# Converted from NanoShaper .vert/.face
v -16.322000 3.902000 -1.877000
v -15.467000 3.902000 -1.877000
v -16.970000 3.902000 -1.377000
v -14.820000 3.902000 -1.377000
v -17.171000 3.902000 -0.877000
v -14.610000 3.902000 -0.877000
v -17.160000 3.902000 -0.377000
v -14.467000 3.902000 -0.377000
v -16.931000 3.902000 0.123000
v -14.170000 3.902000 0.123000
v -16.364000 3.902000 0.623000
v -13.258000 3.902000 0.623000
v -15.997000 3.902000 1.123000
v -12.901000 3.902000 1.123000
v -15.876000 3.902000 1.623000
v -12.877000 3.902000 1.623000
v -15.528000 3.902000 2.123000
v -13.152000 3.902000 2.123000
v -15.068000 3.902000 2.623000
v -13.755000 3.902000 2.623000
v -16.495000 7.902000 1.623000
v -15.273000 7.902000 1.623000
v -16.823000 7.902000 2.123000
v -14.946000 7.902000 2.123000
v -16.827000 7.902000 2.623000
v -14.942000 7.902000 2.623000
v -16.513000 7.902000 3.123000
v -15.255000 7.902000 3.123000
v -17.139000 3.902000 -1.015000
v -17.139000 3.902000 -0.293000
v -16.639000 3.902000 -1.714000
v -16.639000 3.902000 0.407000
v -16.139000 3.902000 -1.926000
v -16.139000 3.902000 0.869000
v -15.639000 3.902000 -1.924000
v -15.639000 3.902000 2.025000
v -15.139000 3.902000 -1.706000
v -15.139000 3.902000 2.558000
v -14.639000 3.902000 -0.976000
v -14.639000 3.902000 2.836000
v -14.139000 3.902000 0.154000
v -14.139000 3.902000 2.824000
v -13.639000 3.902000 0.451000
v -13.639000 3.902000 2.510000
v -13.139000 3.902000 0.726000
v -13.139000 3.902000 2.110000
v -16.639000 7.902000 1.766000
v -16.639000 7.902000 2.995000
v -16.139000 7.902000 1.441000
v -16.139000 7.902000 3.320000
v -15.639000 7.902000 1.439000
v -15.639000 7.902000 3.322000
v -15.139000 7.902000 1.755000
v -15.139000 7.902000 3.006000
v -17.139000 3.830000 -0.877000
v -17.139000 5.034000 -0.877000
v -16.639000 3.267000 -0.877000
v -16.639000 5.725000 -0.877000
v -16.139000 3.072000 -0.877000
v -16.139000 6.393000 -0.877000
v -15.639000 3.074000 -0.877000
v -15.639000 6.607000 -0.877000
v -15.139000 3.275000 -0.877000
v -15.139000 6.592000 -0.877000
v -14.639000 3.848000 -0.877000
v -14.639000 6.336000 -0.877000
v -16.639000 5.415000 3.123000
v -16.639000 7.811000 3.123000
v -16.139000 5.187000 3.123000
v -16.139000 8.054000 3.123000
v -15.639000 5.086000 3.123000
v -15.639000 8.056000 3.123000
v -15.139000 4.881000 3.123000
v -15.139000 7.819000 3.123000
v -14.639000 4.351000 3.123000
v -14.639000 6.156000 3.123000
v -14.139000 4.374000 3.123000
v -14.139000 5.339000 3.123000
v -16.576000 4.402000 -1.877000
v -15.214000 4.402000 -1.877000
v -17.093000 4.402000 -1.377000
v -14.695000 4.402000 -1.377000
v -17.277000 4.402000 -0.877000
v -14.323000 4.402000 -0.877000
v -17.267000 4.402000 -0.377000
v -14.048000 4.402000 -0.377000
v -17.059000 4.402000 0.123000
v -13.515000 4.402000 0.123000
v -16.605000 4.402000 0.623000
v -12.801000 4.402000 0.623000
v -16.319000 4.402000 1.123000
v -12.566000 4.402000 1.123000
v -16.211000 4.402000 1.623000
v -12.548000 4.402000 1.623000
v -15.987000 4.402000 2.123000
v -12.738000 4.402000 2.123000
v -15.491000 4.402000 2.623000
v -13.294000 4.402000 2.623000
v -14.728000 4.402000 3.123000
v -14.095000 4.402000 3.123000
v -17.139000 4.402000 -1.295000
v -17.139000 4.402000 -0.013000
v -16.639000 4.402000 -1.839000
v -16.639000 4.402000 0.584000
v -16.139000 4.402000 -2.032000
v -16.139000 4.402000 1.849000
v -15.639000 4.402000 -2.030000
v -15.639000 4.402000 2.464000
v -15.139000 4.402000 -1.832000
v -15.139000 4.402000 2.944000
v -14.639000 4.402000 -1.295000
v -14.639000 4.402000 3.142000
v -14.139000 4.402000 -0.543000
v -14.139000 4.402000 3.133000
v -13.639000 4.402000 0.048000
v -13.639000 4.402000 2.913000
v -13.139000 4.402000 0.312000
v -13.139000 4.402000 2.523000
v -12.639000 4.402000 0.900000
v -12.639000 4.402000 1.936000
v -17.139000 3.853000 -0.377000
v -17.139000 5.011000 -0.377000
v -16.639000 3.279000 -0.377000
v -16.639000 6.082000 -0.377000
v -16.139000 3.082000 -0.377000
v -16.139000 6.602000 -0.377000
v -15.639000 3.084000 -0.377000
v -15.639000 6.784000 -0.377000
v -15.139000 3.287000 -0.377000
v -15.139000 6.771000 -0.377000
v -14.639000 3.729000 -0.377000
v -14.639000 6.556000 -0.377000
v -14.139000 4.257000 -0.377000
v -14.139000 5.949000 -0.377000
v -16.139000 5.710000 3.623000
v -16.139000 7.488000 3.623000
v -15.639000 5.720000 3.623000
v -15.639000 7.492000 3.623000
v -16.389000 4.902000 -1.877000
v -15.401000 4.902000 -1.877000
v -16.998000 4.902000 -1.377000
v -14.713000 4.902000 -1.377000
v -17.195000 4.902000 -0.877000
v -14.187000 4.902000 -0.877000
v -17.184000 4.902000 -0.377000
v -13.905000 4.902000 -0.377000
v -16.982000 4.902000 0.123000
v -13.305000 4.902000 0.123000
v -16.721000 4.902000 0.623000
v -12.690000 4.902000 0.623000
v -16.506000 4.902000 1.123000
v -12.474000 4.902000 1.123000
v -16.434000 4.902000 1.623000
v -12.458000 4.902000 1.623000
v -16.379000 4.902000 2.123000
v -12.633000 4.902000 2.123000
v -16.084000 4.902000 2.623000
v -13.130000 4.902000 2.623000
v -15.169000 4.902000 3.123000
v -13.859000 4.902000 3.123000
v -17.139000 4.902000 -1.092000
v -17.139000 4.902000 -0.216000
v -16.639000 4.902000 -1.743000
v -16.639000 4.902000 0.788000
v -16.139000 4.902000 -1.950000
v -16.139000 4.902000 2.570000
v -15.639000 4.902000 -1.948000
v -15.639000 4.902000 2.950000
v -15.139000 4.902000 -1.735000
v -15.139000 4.902000 3.131000
v -14.639000 4.902000 -1.319000
v -14.639000 4.902000 3.220000
v -14.139000 4.902000 -0.798000
v -14.139000 4.902000 3.210000
v -13.639000 4.902000 -0.091000
v -13.639000 4.902000 3.004000
v -13.139000 4.902000 0.207000
v -13.139000 4.902000 2.628000
v -12.639000 4.902000 0.703000
v -12.639000 4.902000 2.133000
v -16.639000 3.536000 0.123000
v -16.639000 6.148000 0.123000
v -16.139000 3.293000 0.123000
v -16.139000 6.718000 0.123000
v -15.639000 3.293000 0.123000
v -15.639000 6.870000 0.123000
v -15.139000 3.418000 0.123000
v -15.139000 6.804000 0.123000
v -14.639000 3.623000 0.123000
v -14.639000 6.573000 0.123000
v -14.139000 3.923000 0.123000
v -14.139000 6.136000 0.123000
v -13.639000 4.278000 0.123000
v -13.639000 5.627000 0.123000
v -16.600000 5.402000 -1.377000
v -14.709000 5.402000 -1.377000
v -16.883000 5.402000 -0.877000
v -14.214000 5.402000 -0.877000
v -16.919000 5.402000 -0.377000
v -13.962000 5.402000 -0.377000
v -16.825000 5.402000 0.123000
v -13.479000 5.402000 0.123000
v -16.773000 5.402000 0.623000
v -12.807000 5.402000 0.623000
v -16.757000 5.402000 1.123000
v -12.571000 5.402000 1.123000
v -16.784000 5.402000 1.623000
v -12.554000 5.402000 1.623000
v -16.872000 5.402000 2.123000
v -12.744000 5.402000 2.123000
v -16.892000 5.402000 2.623000
v -13.321000 5.402000 2.623000
v -16.621000 5.402000 3.123000
v -14.243000 5.402000 3.123000
v -16.639000 5.402000 -1.337000
v -16.639000 5.402000 3.105000
v -16.139000 5.402000 -1.636000
v -16.139000 5.402000 3.395000
v -15.639000 5.402000 -1.676000
v -15.639000 5.402000 3.396000
v -15.139000 5.402000 -1.569000
v -15.139000 5.402000 3.313000
v -14.639000 5.402000 -1.333000
v -14.639000 5.402000 3.213000
v -14.139000 5.402000 -0.728000
v -14.139000 5.402000 3.098000
v -13.639000 5.402000 0.002000
v -13.639000 5.402000 2.870000
v -13.139000 5.402000 0.319000
v -13.139000 5.402000 2.517000
v -12.639000 5.402000 0.913000
v -12.639000 5.402000 1.923000
v -16.639000 4.534000 0.623000
v -16.639000 6.561000 0.623000
v -16.139000 3.716000 0.623000
v -16.139000 7.057000 0.623000
v -15.639000 3.539000 0.623000
v -15.639000 7.125000 0.623000
v -15.139000 3.499000 0.623000
v -15.139000 6.945000 0.623000
v -14.639000 3.526000 0.623000
v -14.639000 6.616000 0.623000
v -14.139000 3.661000 0.623000
v -14.139000 6.274000 0.623000
v -13.639000 3.760000 0.623000
v -13.639000 6.047000 0.623000
v -13.139000 3.982000 0.623000
v -13.139000 5.808000 0.623000
v -15.952000 5.902000 -1.377000
v -14.899000 5.902000 -1.377000
v -16.536000 5.902000 -0.877000
v -14.316000 5.902000 -0.877000
v -16.722000 5.902000 -0.377000
v -14.116000 5.902000 -0.377000
v -16.728000 5.902000 0.123000
v -13.888000 5.902000 0.123000
v -16.776000 5.902000 0.623000
v -13.282000 5.902000 0.623000
v -16.941000 5.902000 1.123000
v -12.915000 5.902000 1.123000
v -17.134000 5.902000 1.623000
v -12.892000 5.902000 1.623000
v -17.191000 5.902000 2.123000
v -13.172000 5.902000 2.123000
v -17.205000 5.902000 2.623000
v -13.888000 5.902000 2.623000
v -17.013000 5.902000 3.123000
v -14.573000 5.902000 3.123000
v -16.424000 5.902000 3.623000
v -15.381000 5.902000 3.623000
v -17.139000 5.902000 1.645000
v -17.139000 5.902000 2.872000
v -16.639000 5.902000 -0.673000
v -16.639000 5.902000 3.506000
v -16.139000 5.902000 -1.278000
v -16.139000 5.902000 3.709000
v -15.639000 5.902000 -1.469000
v -15.639000 5.902000 3.704000
v -15.139000 5.902000 -1.455000
v -15.139000 5.902000 3.491000
v -14.639000 5.902000 -1.226000
v -14.639000 5.902000 3.168000
v -14.139000 5.902000 -0.452000
v -14.139000 5.902000 2.815000
v -13.639000 5.902000 0.397000
v -13.639000 5.902000 2.412000
v -13.139000 5.902000 0.746000
v -13.139000 5.902000 2.090000
v -16.639000 5.168000 1.123000
v -16.639000 7.315000 1.123000
v -16.139000 4.058000 1.123000
v -16.139000 7.575000 1.123000
v -15.639000 3.666000 1.123000
v -15.639000 7.579000 1.123000
v -15.139000 3.525000 1.123000
v -15.139000 7.332000 1.123000
v -14.639000 3.508000 1.123000
v -14.639000 6.797000 1.123000
v -14.139000 3.530000 1.123000
v -14.139000 6.411000 1.123000
v -13.639000 3.541000 1.123000
v -13.639000 6.249000 1.123000
v -13.139000 3.721000 1.123000
v -13.139000 6.069000 1.123000
v -12.639000 4.243000 1.123000
v -12.639000 5.546000 1.123000
v -16.127000 6.402000 -0.877000
v -14.722000 6.402000 -0.877000
v -16.398000 6.402000 -0.377000
v -14.452000 6.402000 -0.377000
v -16.489000 6.402000 0.123000
v -14.421000 6.402000 0.123000
v -16.703000 6.402000 0.623000
v -14.358000 6.402000 0.623000
v -17.031000 6.402000 1.123000
v -14.120000 6.402000 1.123000
v -17.247000 6.402000 1.623000
v -13.898000 6.402000 1.623000
v -17.281000 6.402000 2.123000
v -14.042000 6.402000 2.123000
v -17.286000 6.402000 2.623000
v -14.324000 6.402000 2.623000
v -17.108000 6.402000 3.123000
v -14.686000 6.402000 3.123000
v -16.603000 6.402000 3.623000
v -15.202000 6.402000 3.623000
v -17.139000 6.402000 1.309000
v -17.139000 6.402000 3.067000
v -16.639000 6.402000 0.501000
v -16.639000 6.402000 3.601000
v -16.139000 6.402000 -0.865000
v -16.139000 6.402000 3.791000
v -15.639000 6.402000 -1.144000
v -15.639000 6.402000 3.786000
v -15.139000 6.402000 -1.126000
v -15.139000 6.402000 3.584000
v -14.639000 6.402000 -0.782000
v -14.639000 6.402000 3.058000
v -14.139000 6.402000 1.104000
v -14.139000 6.402000 2.302000
v -17.139000 5.913000 1.623000
v -17.139000 6.984000 1.623000
v -16.639000 5.217000 1.623000
v -16.639000 7.799000 1.623000
v -16.139000 4.245000 1.623000
v -16.139000 8.045000 1.623000
v -15.639000 3.722000 1.623000
v -15.639000 8.047000 1.623000
v -15.139000 3.541000 1.623000
v -15.139000 7.806000 1.623000
v -14.639000 3.488000 1.623000
v -14.639000 7.111000 1.623000
v -14.139000 3.491000 1.623000
v -14.139000 6.564000 1.623000
v -13.639000 3.525000 1.623000
v -13.639000 6.284000 1.623000
v -13.139000 3.702000 1.623000
v -13.139000 6.088000 1.623000
v -12.639000 4.209000 1.623000
v -12.639000 5.580000 1.623000
v -16.384000 6.902000 0.623000
v -15.064000 6.902000 0.623000
v -16.939000 6.902000 1.123000
v -14.752000 6.902000 1.123000
v -17.171000 6.902000 1.623000
v -14.475000 6.902000 1.623000
v -17.261000 6.902000 2.123000
v -14.405000 6.902000 2.123000
v -17.263000 6.902000 2.623000
v -14.482000 6.902000 2.623000
v -17.071000 6.902000 3.123000
v -14.697000 6.902000 3.123000
v -16.530000 6.902000 3.623000
v -15.239000 6.902000 3.623000
v -17.139000 6.902000 1.508000
v -17.139000 6.902000 3.002000
v -16.639000 6.902000 0.827000
v -16.639000 6.902000 3.560000
v -16.139000 6.902000 0.445000
v -16.139000 6.902000 3.757000
v -15.639000 6.902000 0.217000
v -15.639000 6.902000 3.759000
v -15.139000 6.902000 0.523000
v -15.139000 6.902000 3.566000
v -14.639000 6.902000 1.280000
v -14.639000 6.902000 3.020000
v -16.139000 3.796000 -1.877000
v -16.139000 5.068000 -1.877000
v -15.639000 3.800000 -1.877000
v -15.639000 5.064000 -1.877000
v -17.139000 5.779000 2.123000
v -17.139000 7.460000 2.123000
v -16.639000 5.170000 2.123000
v -16.639000 8.046000 2.123000
v -16.139000 4.624000 2.123000
v -16.139000 8.247000 2.123000
v -15.639000 3.977000 2.123000
v -15.639000 8.249000 2.123000
v -15.139000 3.687000 2.123000
v -15.139000 8.052000 2.123000
v -14.639000 3.505000 2.123000
v -14.639000 7.480000 2.123000
v -14.139000 3.513000 2.123000
v -14.139000 6.503000 2.123000
v -13.639000 3.683000 2.123000
v -13.639000 6.125000 2.123000
v -13.139000 3.911000 2.123000
v -13.139000 5.878000 2.123000
v -12.639000 4.775000 2.123000
v -12.639000 5.015000 2.123000
v -16.507000 3.402000 -1.377000
v -15.282000 3.402000 -1.377000
v -16.816000 3.402000 -0.877000
v -14.974000 3.402000 -0.877000
v -16.801000 3.402000 -0.377000
v -14.986000 3.402000 -0.377000
v -16.437000 3.402000 0.123000
v -15.191000 3.402000 0.123000
v -16.527000 7.402000 1.123000
v -15.231000 7.402000 1.123000
v -16.949000 7.402000 1.623000
v -14.819000 7.402000 1.623000
v -17.164000 7.402000 2.123000
v -14.605000 7.402000 2.123000
v -17.167000 7.402000 2.623000
v -14.602000 7.402000 2.623000
v -16.958000 7.402000 3.123000
v -14.811000 7.402000 3.123000
v -16.284000 7.402000 3.623000
v -15.485000 7.402000 3.623000
v -16.639000 3.402000 -1.240000
v -16.639000 3.402000 -0.067000
v -16.139000 3.402000 -1.569000
v -16.139000 3.402000 0.262000
v -15.639000 3.402000 -1.566000
v -15.639000 3.402000 0.315000
v -15.139000 3.402000 -1.225000
v -15.139000 3.402000 0.047000
v -17.139000 7.402000 2.021000
v -17.139000 7.402000 2.740000
v -16.639000 7.402000 1.228000
v -16.639000 7.402000 3.446000
v -16.139000 7.402000 0.926000
v -16.139000 7.402000 3.661000
v -15.639000 7.402000 0.921000
v -15.639000 7.402000 3.663000
v -15.139000 7.402000 1.208000
v -15.139000 7.402000 3.452000
v -14.639000 7.402000 1.990000
v -14.639000 7.402000 2.771000
v -16.639000 3.492000 -1.377000
v -16.639000 5.372000 -1.377000
v -16.139000 3.258000 -1.377000
v -16.139000 5.736000 -1.377000
v -15.639000 3.261000 -1.377000
v -15.639000 6.099000 -1.377000
v -15.139000 3.501000 -1.377000
v -15.139000 6.072000 -1.377000
v -17.139000 5.748000 2.623000
v -17.139000 7.467000 2.623000
v -16.639000 5.198000 2.623000
v -16.639000 8.049000 2.623000
v -16.139000 4.930000 2.623000
v -16.139000 8.250000 2.623000
v -15.639000 4.588000 2.623000
v -15.639000 8.252000 2.623000
v -15.139000 3.954000 2.623000
v -15.139000 8.055000 2.623000
v -14.639000 3.720000 2.623000
v -14.639000 7.487000 2.623000
v -14.139000 3.730000 2.623000
v -14.139000 6.129000 2.623000
v -13.639000 3.993000 2.623000
v -13.639000 5.722000 2.623000
v -13.139000 4.782000 2.623000
v -13.139000 5.007000 2.623000
f 121 7 55
f 55 7 5
f 7 83 5
f 85 83 7
f 85 143 83
f 145 143 85
f 145 122 143
f 143 122 56
f 123 415 57
f 57 415 413
f 55 413 415
f 55 415 121
f 197 56 122
f 197 122 199
f 58 197 273
f 197 253 273
f 197 199 253
f 253 124 273
f 125 57 59
f 125 123 57
f 273 251 58
f 124 309 331
f 124 331 60
f 273 124 60
f 251 273 60
f 309 126 331
f 127 59 61
f 127 125 59
f 331 307 60
f 331 126 307
f 126 62 307
f 126 128 62
f 129 61 63
f 129 127 61
f 62 130 64
f 128 130 62
f 63 414 129
f 129 414 416
f 131 416 414
f 131 414 65
f 308 337 66
f 308 64 337
f 64 132 337
f 64 130 132
f 65 6 131
f 131 6 8
f 84 113 133
f 8 84 133
f 6 84 8
f 144 173 113
f 144 113 84
f 198 225 173
f 198 173 144
f 252 283 225
f 252 225 198
f 337 310 66
f 66 310 252
f 310 134 252
f 134 283 252
f 337 132 310
f 113 86 133
f 86 113 146
f 146 113 173
f 146 173 200
f 200 173 225
f 200 225 254
f 254 225 283
f 283 134 254
f 274 267 67
f 330 323 274
f 274 323 267
f 378 371 330
f 330 371 323
f 442 427 378
f 378 427 371
f 442 68 427
f 218 213 69
f 269 274 67
f 269 67 213
f 135 269 213
f 218 135 213
f 274 269 325
f 274 325 330
f 330 325 373
f 330 373 378
f 378 373 429
f 378 429 442
f 136 50 27
f 136 27 68
f 429 136 68
f 442 429 68
f 50 70 27
f 71 220 69
f 69 220 218
f 135 218 220
f 135 220 137
f 138 52 50
f 138 50 136
f 70 50 72
f 72 50 52
f 170 159 73
f 159 170 71
f 170 220 71
f 170 222 220
f 280 270 137
f 220 280 137
f 222 280 220
f 270 280 336
f 270 336 326
f 326 336 384
f 326 384 374
f 374 384 448
f 374 448 430
f 52 138 430
f 52 430 448
f 28 52 448
f 74 28 448
f 72 52 28
f 112 99 75
f 99 112 73
f 112 170 73
f 112 172 170
f 224 170 172
f 222 170 224
f 282 222 224
f 280 222 282
f 324 336 76
f 336 282 76
f 336 280 282
f 372 384 324
f 324 384 336
f 428 448 372
f 372 448 384
f 74 448 428
f 77 114 75
f 75 114 112
f 174 112 114
f 172 112 174
f 214 224 78
f 224 174 78
f 224 172 174
f 268 282 214
f 214 282 224
f 76 282 268
f 100 114 77
f 160 174 100
f 100 174 114
f 78 174 160
f 30 7 121
f 102 85 30
f 30 85 7
f 162 145 102
f 102 145 85
f 162 122 145
f 432 415 123
f 9 30 121
f 9 121 415
f 181 9 415
f 432 181 415
f 30 9 87
f 30 87 102
f 102 87 147
f 102 147 162
f 199 122 162
f 147 199 162
f 201 199 147
f 201 253 199
f 255 253 201
f 255 182 253
f 253 182 124
f 432 123 417
f 123 183 417
f 123 125 183
f 181 432 417
f 309 124 182
f 309 182 311
f 311 184 309
f 309 184 126
f 185 125 127
f 185 183 125
f 126 186 128
f 184 186 126
f 418 185 438
f 185 129 438
f 185 127 129
f 187 418 438
f 128 188 130
f 186 188 128
f 416 438 129
f 187 438 416
f 131 187 416
f 189 187 131
f 130 190 132
f 188 190 130
f 131 8 189
f 189 8 10
f 191 10 8
f 191 8 133
f 312 192 134
f 312 134 310
f 310 132 312
f 312 132 190
f 115 193 86
f 193 133 86
f 193 191 133
f 146 175 115
f 146 115 86
f 200 227 175
f 200 175 146
f 256 194 227
f 200 256 227
f 254 256 200
f 254 134 256
f 256 134 192
f 115 88 193
f 88 115 148
f 148 115 175
f 148 175 202
f 202 175 227
f 227 194 202
f 276 269 135
f 332 325 276
f 276 325 269
f 380 373 332
f 332 373 325
f 444 429 380
f 380 429 373
f 444 136 429
f 137 278 135
f 135 278 276
f 334 276 278
f 332 276 334
f 382 332 334
f 380 332 382
f 446 380 382
f 444 380 446
f 136 444 138
f 138 444 446
f 270 278 137
f 326 334 270
f 270 334 278
f 374 382 326
f 326 382 334
f 430 446 374
f 374 446 382
f 138 446 430
f 32 9 181
f 104 87 32
f 32 87 9
f 233 149 104
f 149 87 104
f 149 147 87
f 149 201 147
f 203 201 149
f 203 255 201
f 257 255 203
f 182 255 329
f 255 313 329
f 255 257 313
f 313 234 329
f 434 417 183
f 11 32 181
f 11 181 417
f 235 11 417
f 434 235 417
f 32 11 89
f 32 89 104
f 233 104 89
f 329 311 182
f 234 361 379
f 234 379 184
f 329 234 184
f 311 329 184
f 361 236 379
f 185 436 183
f 183 436 434
f 235 434 436
f 235 436 237
f 381 186 184
f 381 184 379
f 379 236 381
f 381 236 238
f 418 436 185
f 237 436 418
f 187 237 418
f 239 237 187
f 383 188 186
f 383 186 381
f 381 238 383
f 383 238 240
f 241 187 189
f 241 239 187
f 188 383 362
f 242 188 362
f 190 188 242
f 383 240 362
f 41 243 10
f 243 189 10
f 243 241 189
f 191 41 10
f 314 244 192
f 314 192 312
f 312 190 314
f 314 190 242
f 43 245 41
f 41 245 243
f 41 191 193
f 41 193 43
f 256 285 194
f 256 192 285
f 192 246 285
f 192 244 246
f 43 12 245
f 117 247 88
f 88 247 193
f 247 12 193
f 12 43 193
f 148 177 117
f 148 117 88
f 202 229 177
f 202 177 148
f 285 258 194
f 194 258 202
f 258 248 202
f 248 229 202
f 285 246 258
f 117 90 247
f 90 117 150
f 150 117 177
f 150 177 204
f 204 177 229
f 229 248 204
f 164 149 233
f 289 205 164
f 205 149 164
f 205 203 149
f 205 257 203
f 259 257 205
f 259 313 257
f 315 313 259
f 234 313 377
f 313 363 377
f 313 315 363
f 363 290 377
f 34 11 235
f 291 91 34
f 91 11 34
f 91 89 11
f 151 164 233
f 89 151 233
f 91 151 89
f 289 164 151
f 377 361 234
f 290 419 443
f 290 443 236
f 377 290 236
f 361 377 236
f 419 292 443
f 34 235 13
f 235 293 13
f 235 237 293
f 291 34 13
f 445 238 236
f 445 236 443
f 443 292 445
f 445 292 294
f 295 237 239
f 295 293 237
f 238 445 420
f 296 238 420
f 240 238 296
f 445 294 420
f 297 239 241
f 297 295 239
f 364 298 242
f 364 242 362
f 362 240 364
f 364 240 296
f 299 241 243
f 299 297 241
f 314 339 244
f 314 242 339
f 242 300 339
f 242 298 300
f 301 243 245
f 301 299 243
f 244 339 316
f 302 244 316
f 246 244 302
f 339 300 316
f 45 303 12
f 303 245 12
f 303 301 245
f 247 45 12
f 258 287 248
f 258 246 287
f 246 304 287
f 246 302 304
f 45 14 303
f 119 305 90
f 90 305 247
f 305 14 247
f 14 45 247
f 150 179 119
f 150 119 90
f 204 231 179
f 204 179 150
f 287 260 248
f 248 260 204
f 260 306 204
f 306 231 204
f 287 304 260
f 119 92 305
f 92 119 152
f 152 119 179
f 152 179 206
f 206 179 231
f 231 306 206
f 341 317 327
f 327 317 375
f 375 317 365
f 365 342 375
f 343 207 289
f 289 207 205
f 207 259 205
f 261 259 207
f 261 341 327
f 315 261 327
f 259 261 315
f 375 363 315
f 375 315 327
f 342 421 441
f 342 441 290
f 375 342 290
f 363 375 290
f 421 344 441
f 345 93 291
f 291 93 91
f 93 151 91
f 153 151 93
f 289 151 153
f 289 153 343
f 441 419 290
f 344 21 49
f 344 49 292
f 441 344 292
f 419 441 292
f 21 346 49
f 347 15 293
f 293 15 13
f 291 13 15
f 291 15 345
f 51 294 292
f 51 292 49
f 49 346 51
f 51 346 348
f 349 293 295
f 349 347 293
f 420 447 296
f 51 22 294
f 294 22 420
f 22 350 420
f 350 447 420
f 51 348 22
f 351 295 297
f 351 349 295
f 364 385 298
f 447 422 296
f 296 422 364
f 422 352 364
f 352 385 364
f 447 350 422
f 353 297 299
f 353 351 297
f 298 385 366
f 354 298 366
f 300 298 354
f 385 352 366
f 355 299 301
f 355 353 299
f 318 356 302
f 318 302 316
f 316 300 318
f 318 300 354
f 357 301 303
f 357 355 301
f 302 358 304
f 356 358 302
f 303 14 357
f 357 14 16
f 359 16 14
f 359 14 305
f 262 360 306
f 262 306 260
f 260 304 262
f 262 304 358
f 305 92 359
f 359 92 94
f 152 94 92
f 152 154 94
f 206 154 152
f 206 208 154
f 206 306 208
f 208 306 360
f 387 1 33
f 33 1 105
f 105 1 79
f 105 79 165
f 165 79 139
f 139 388 165
f 35 389 33
f 33 389 387
f 33 107 35
f 33 105 107
f 105 167 107
f 105 165 167
f 165 388 167
f 167 388 390
f 35 2 389
f 2 35 80
f 80 35 107
f 80 107 140
f 140 107 167
f 167 390 140
f 391 263 271
f 271 263 341
f 263 317 341
f 263 319 317
f 319 365 317
f 367 365 319
f 342 365 439
f 365 423 439
f 365 367 423
f 423 392 439
f 393 209 343
f 343 209 207
f 209 391 271
f 261 209 271
f 207 209 261
f 271 341 261
f 439 421 342
f 392 23 47
f 392 47 344
f 439 392 344
f 421 439 344
f 23 394 47
f 106 93 345
f 395 155 106
f 155 93 106
f 155 153 93
f 343 153 155
f 343 155 393
f 47 21 344
f 47 394 21
f 394 346 21
f 394 396 346
f 36 15 347
f 95 106 345
f 95 345 15
f 397 95 15
f 36 397 15
f 395 106 95
f 346 398 348
f 396 398 346
f 36 347 17
f 347 399 17
f 347 349 399
f 397 36 17
f 22 53 350
f 22 348 53
f 348 400 53
f 348 398 400
f 401 349 351
f 401 399 349
f 422 449 352
f 53 24 350
f 350 24 422
f 24 402 422
f 402 449 422
f 53 400 24
f 403 351 353
f 403 401 351
f 368 404 354
f 368 354 366
f 449 424 352
f 424 366 352
f 424 368 366
f 449 402 424
f 405 353 355
f 405 403 353
f 320 406 356
f 320 356 318
f 318 354 320
f 320 354 404
f 18 405 46
f 405 357 46
f 405 355 357
f 407 18 46
f 264 408 288
f 288 358 264
f 358 406 264
f 358 356 406
f 16 46 357
f 96 407 120
f 120 407 359
f 407 46 359
f 46 16 359
f 409 96 120
f 210 410 232
f 288 408 210
f 288 210 232
f 262 288 232
f 360 262 232
f 358 288 262
f 94 120 359
f 120 94 409
f 94 156 409
f 94 154 156
f 410 156 232
f 156 208 232
f 156 154 208
f 360 232 208
f 451 3 31
f 31 3 103
f 103 3 81
f 103 81 163
f 163 81 141
f 141 452 163
f 453 411 433
f 451 31 411
f 411 31 433
f 31 1 433
f 1 387 433
f 103 79 1
f 103 1 31
f 163 139 79
f 163 79 103
f 452 195 217
f 452 217 388
f 163 452 388
f 139 163 388
f 195 454 217
f 435 455 433
f 433 455 453
f 433 387 389
f 433 389 435
f 219 390 388
f 219 388 217
f 249 277 454
f 277 217 454
f 277 219 217
f 249 456 277
f 435 412 455
f 37 457 2
f 2 457 389
f 457 412 389
f 412 435 389
f 80 109 37
f 80 37 2
f 140 169 109
f 140 109 80
f 169 140 390
f 219 169 390
f 221 169 219
f 219 279 221
f 219 277 279
f 277 456 279
f 279 456 458
f 37 4 457
f 4 37 82
f 82 37 109
f 82 109 142
f 142 109 169
f 142 169 196
f 196 169 221
f 196 221 250
f 250 221 279
f 279 458 250
f 459 265 391
f 391 265 263
f 265 319 263
f 321 319 265
f 321 367 319
f 369 367 321
f 369 423 367
f 425 423 369
f 425 460 423
f 423 460 392
f 461 211 393
f 393 211 209
f 391 209 211
f 391 211 459
f 23 392 460
f 23 460 25
f 25 462 23
f 23 462 394
f 166 155 395
f 393 155 166
f 463 393 166
f 461 393 463
f 394 464 396
f 462 464 394
f 108 95 397
f 157 166 395
f 157 395 95
f 465 157 95
f 108 465 95
f 463 166 157
f 396 466 398
f 464 466 396
f 38 17 399
f 97 108 397
f 97 397 17
f 467 97 17
f 38 467 17
f 465 108 97
f 398 468 400
f 466 468 398
f 38 399 19
f 399 469 19
f 399 401 469
f 467 38 19
f 26 470 402
f 26 402 24
f 24 400 26
f 26 400 468
f 471 401 403
f 471 469 401
f 322 472 340
f 322 340 404
f 368 322 404
f 370 322 368
f 424 370 368
f 424 426 370
f 424 402 426
f 426 402 470
f 20 471 44
f 471 405 44
f 471 403 405
f 473 20 44
f 266 474 286
f 340 472 266
f 340 266 286
f 320 340 286
f 406 320 286
f 404 340 320
f 18 44 405
f 98 473 118
f 118 473 407
f 473 44 407
f 44 18 407
f 475 98 118
f 212 476 230
f 286 474 212
f 286 212 230
f 264 286 230
f 408 264 230
f 406 286 264
f 96 118 407
f 158 475 180
f 180 475 409
f 475 118 409
f 118 96 409
f 230 476 158
f 230 158 180
f 210 230 180
f 410 210 180
f 408 230 210
f 156 180 409
f 410 180 156
f 55 5 29
f 29 5 101
f 101 5 83
f 101 83 161
f 161 83 143
f 143 56 161
f 57 413 431
f 55 29 413
f 413 29 431
f 29 3 431
f 3 451 431
f 101 81 3
f 101 3 29
f 161 141 81
f 161 81 101
f 56 197 215
f 56 215 452
f 161 56 452
f 141 161 452
f 197 58 215
f 411 453 431
f 453 57 431
f 453 59 57
f 431 451 411
f 215 195 452
f 58 251 275
f 58 275 454
f 215 58 454
f 195 215 454
f 251 60 275
f 61 453 455
f 61 59 453
f 275 249 454
f 60 307 333
f 60 333 456
f 275 60 456
f 249 275 456
f 307 62 333
f 437 63 412
f 63 455 412
f 63 61 455
f 457 437 412
f 335 458 456
f 335 456 333
f 333 62 335
f 335 62 64
f 437 414 63
f 39 65 4
f 4 65 457
f 65 414 457
f 414 437 457
f 82 111 39
f 82 39 4
f 142 171 111
f 142 111 82
f 196 223 171
f 196 171 142
f 250 281 223
f 250 223 196
f 335 308 458
f 458 308 250
f 308 66 250
f 66 281 250
f 335 64 308
f 39 6 65
f 6 39 84
f 84 39 111
f 84 111 144
f 144 111 171
f 144 171 198
f 198 171 223
f 198 223 252
f 252 223 281
f 281 66 252
f 272 265 459
f 328 321 272
f 272 321 265
f 376 369 328
f 328 369 321
f 440 425 376
f 376 425 369
f 440 460 425
f 216 211 461
f 267 272 459
f 267 459 211
f 67 267 211
f 216 67 211
f 272 267 323
f 272 323 328
f 328 323 371
f 328 371 376
f 376 371 427
f 376 427 440
f 68 48 25
f 68 25 460
f 427 68 460
f 440 427 460
f 48 462 25
f 216 461 213
f 461 69 213
f 461 463 69
f 67 216 213
f 27 48 68
f 27 70 48
f 70 462 48
f 70 464 462
f 168 157 465
f 463 157 168
f 71 463 168
f 69 463 71
f 464 72 466
f 70 72 464
f 110 97 467
f 159 168 465
f 159 465 97
f 73 159 97
f 110 73 97
f 71 168 159
f 28 74 54
f 54 468 28
f 468 72 28
f 468 466 72
f 40 19 469
f 99 110 467
f 99 467 19
f 75 99 19
f 40 75 19
f 73 110 99
f 324 76 338
f 324 338 386
f 324 386 372
f 372 386 450
f 372 450 428
f 54 74 428
f 54 428 450
f 26 54 450
f 470 26 450
f 468 54 26
f 471 42 469
f 469 42 40
f 75 40 42
f 75 42 77
f 214 78 226
f 214 226 284
f 214 284 268
f 338 76 268
f 338 268 284
f 322 338 284
f 472 322 284
f 370 386 322
f 322 386 338
f 426 450 370
f 370 450 386
f 470 450 426
f 20 42 471
f 100 77 116
f 116 77 473
f 77 42 473
f 42 20 473
f 100 116 176
f 100 176 160
f 226 78 160
f 176 226 160
f 228 226 176
f 266 284 474
f 284 228 474
f 284 226 228
f 472 284 266
f 98 116 473
f 475 178 98
f 178 116 98
f 178 176 116
f 212 228 476
f 228 178 476
f 228 176 178
f 474 228 212
f 158 178 475
f 476 178 158
