# Converted from NanoShaper .vert/.face
v -11.005000 0.402000 -9.877000
v -9.724000 0.402000 -9.877000
v -11.450000 0.402000 -9.377000
v -9.356000 0.402000 -9.377000
v -11.973000 0.402000 -8.877000
v -8.877000 0.402000 -8.877000
v -12.232000 0.402000 -8.377000
v -8.507000 0.402000 -8.377000
v -12.459000 0.402000 -7.877000
v -8.492000 0.402000 -7.877000
v -12.642000 0.402000 -7.377000
v -8.791000 0.402000 -7.377000
v -12.705000 0.402000 -6.877000
v -9.174000 0.402000 -6.877000
v -12.873000 0.402000 -6.377000
v -9.648000 0.402000 -6.377000
v -13.449000 0.402000 -5.877000
v -10.296000 0.402000 -5.877000
v -14.167000 0.402000 -5.377000
v -11.414000 0.402000 -5.377000
v -14.916000 0.402000 -4.877000
v -11.765000 0.402000 -4.877000
v -15.206000 0.402000 -4.377000
v -11.926000 0.402000 -4.377000
v -15.589000 0.402000 -3.877000
v -12.060000 0.402000 -3.877000
v -15.796000 0.402000 -3.377000
v -12.143000 0.402000 -3.377000
v -15.806000 0.402000 -2.877000
v -12.342000 0.402000 -2.877000
v -15.624000 0.402000 -2.377000
v -12.698000 0.402000 -2.377000
v -15.109000 0.402000 -1.877000
v -13.229000 0.402000 -1.877000
v -10.486000 4.402000 -13.877000
v -9.374000 4.402000 -13.877000
v -10.855000 4.402000 -13.377000
v -9.006000 4.402000 -13.377000
v -11.025000 4.402000 -12.877000
v -8.979000 4.402000 -12.877000
v -11.162000 4.402000 -12.377000
v -9.066000 4.402000 -12.377000
v -11.303000 4.402000 -11.877000
v -9.170000 4.402000 -11.877000
v -11.604000 4.402000 -11.377000
v -9.146000 4.402000 -11.377000
v -11.797000 4.402000 -10.877000
v -9.020000 4.402000 -10.877000
v -11.802000 4.402000 -10.377000
v -9.034000 4.402000 -10.377000
v -11.710000 4.402000 -9.877000
v -9.184000 4.402000 -9.877000
v -11.746000 4.402000 -9.377000
v -9.360000 4.402000 -9.377000
v -12.021000 4.402000 -8.877000
v -9.544000 4.402000 -8.877000
v -12.467000 4.402000 -8.377000
v -9.665000 4.402000 -8.377000
v -12.704000 4.402000 -7.877000
v -9.611000 4.402000 -7.877000
v -12.857000 4.402000 -7.377000
v -9.558000 4.402000 -7.377000
v -12.920000 4.402000 -6.877000
v -9.591000 4.402000 -6.877000
v -12.815000 4.402000 -6.377000
v -9.824000 4.402000 -6.377000
v -12.570000 4.402000 -5.877000
v -10.241000 4.402000 -5.877000
v -11.978000 4.402000 -5.377000
v -10.837000 4.402000 -5.377000
v -15.639000 0.402000 -3.793000
v -15.639000 0.402000 -2.403000
v -15.139000 0.402000 -4.489000
v -15.139000 0.402000 -1.894000
v -14.639000 0.402000 -5.144000
v -14.639000 0.402000 -1.714000
v -14.139000 0.402000 -5.390000
v -14.139000 0.402000 -1.715000
v -13.639000 0.402000 -5.709000
v -13.639000 0.402000 -1.733000
v -13.139000 0.402000 -6.083000
v -13.139000 0.402000 -1.930000
v -12.639000 0.402000 -7.393000
v -12.639000 0.402000 -2.464000
v -12.139000 0.402000 -8.576000
v -12.139000 0.402000 -3.400000
v -11.639000 0.402000 -9.208000
v -11.639000 0.402000 -5.118000
v -11.139000 0.402000 -9.737000
v -11.139000 0.402000 -5.549000
v -10.639000 0.402000 -10.075000
v -10.639000 0.402000 -5.741000
v -10.139000 0.402000 -10.088000
v -10.139000 0.402000 -5.968000
v -9.639000 0.402000 -9.794000
v -9.639000 0.402000 -6.384000
v -9.139000 0.402000 -9.135000
v -9.139000 0.402000 -6.926000
v -8.639000 0.402000 -8.644000
v -8.639000 0.402000 -7.555000
v -12.639000 4.402000 -8.078000
v -12.639000 4.402000 -5.992000
v -12.139000 4.402000 -8.738000
v -12.139000 4.402000 -5.462000
v -11.639000 4.402000 -11.313000
v -11.639000 4.402000 -5.274000
v -11.139000 4.402000 -12.469000
v -11.139000 4.402000 -5.281000
v -10.639000 4.402000 -13.744000
v -10.639000 4.402000 -5.486000
v -10.139000 4.402000 -14.029000
v -10.139000 4.402000 -6.004000
v -9.639000 4.402000 -14.007000
v -9.639000 4.402000 -8.655000
v -9.639000 4.402000 -8.202000
v -9.639000 4.402000 -6.715000
v -9.139000 4.402000 -13.643000
v -9.139000 4.402000 -12.052000
v -9.139000 4.402000 -11.342000
v -9.139000 4.402000 -10.039000
v -11.139000 1.295000 -14.377000
v -11.139000 2.928000 -14.377000
v -10.639000 0.706000 -14.377000
v -10.639000 3.837000 -14.377000
v -10.139000 0.502000 -14.377000
v -10.139000 4.093000 -14.377000
v -9.639000 0.498000 -14.377000
v -9.639000 4.103000 -14.377000
v -9.139000 0.574000 -14.377000
v -9.139000 3.874000 -14.377000
v -8.639000 0.792000 -14.377000
v -8.639000 3.541000 -14.377000
v -8.139000 1.431000 -14.377000
v -8.139000 2.992000 -14.377000
v -11.639000 3.202000 -10.377000
v -11.639000 5.978000 -10.377000
v -11.139000 2.111000 -10.377000
v -11.139000 6.879000 -10.377000
v -10.639000 0.801000 -10.377000
v -10.639000 7.114000 -10.377000
v -10.139000 0.763000 -10.377000
v -10.139000 7.113000 -10.377000
v -9.639000 1.183000 -10.377000
v -9.639000 6.875000 -10.377000
v -9.139000 3.107000 -10.377000
v -9.139000 6.120000 -10.377000
v -13.139000 -2.207000 -6.377000
v -13.139000 0.158000 -6.377000
v -12.639000 -2.780000 -6.377000
v -12.639000 0.616000 -6.377000
v -12.639000 3.215000 -6.377000
v -12.639000 6.278000 -6.377000
v -12.139000 -2.980000 -6.377000
v -12.139000 1.579000 -6.377000
v -12.139000 2.315000 -6.377000
v -12.139000 6.535000 -6.377000
v -11.639000 -2.981000 -6.377000
v -11.639000 6.552000 -6.377000
v -11.139000 -2.784000 -6.377000
v -11.139000 6.341000 -6.377000
v -10.639000 -2.217000 -6.377000
v -10.639000 5.877000 -6.377000
v -10.139000 -1.207000 -6.377000
v -10.139000 4.993000 -6.377000
v -9.639000 0.491000 -6.377000
v -9.639000 3.396000 -6.377000
v -15.139000 -1.503000 -2.377000
v -15.139000 1.346000 -2.377000
v -14.639000 -1.754000 -2.377000
v -14.639000 1.780000 -2.377000
v -14.139000 -1.760000 -2.377000
v -14.139000 2.026000 -2.377000
v -13.639000 -1.680000 -2.377000
v -13.639000 2.031000 -2.377000
v -13.139000 -1.420000 -2.377000
v -13.139000 1.799000 -2.377000
v -10.599000 0.902000 -14.877000
v -8.791000 0.902000 -14.877000
v -10.874000 0.902000 -14.377000
v -8.502000 0.902000 -14.377000
v -10.899000 0.902000 -13.877000
v -8.445000 0.902000 -13.877000
v -10.881000 0.902000 -13.377000
v -8.465000 0.902000 -13.377000
v -10.551000 0.902000 -12.877000
v -8.816000 0.902000 -12.877000
v -10.793000 0.902000 -10.377000
v -9.873000 0.902000 -10.377000
v -11.440000 0.902000 -9.877000
v -9.289000 0.902000 -9.877000
v -11.711000 0.902000 -9.377000
v -8.880000 0.902000 -9.377000
v -12.078000 0.902000 -8.877000
v -8.372000 0.902000 -8.877000
v -12.280000 0.902000 -8.377000
v -8.143000 0.902000 -8.377000
v -12.329000 0.902000 -7.877000
v -8.132000 0.902000 -7.877000
v -12.393000 0.902000 -7.377000
v -8.333000 0.902000 -7.377000
v -12.406000 0.902000 -6.877000
v -8.817000 0.902000 -6.877000
v -12.440000 0.902000 -6.377000
v -9.510000 0.902000 -6.377000
v -12.430000 0.902000 -5.877000
v -10.274000 0.902000 -5.877000
v -14.622000 0.902000 -4.877000
v -12.358000 0.902000 -4.877000
v -15.063000 0.902000 -4.377000
v -12.334000 0.902000 -4.377000
v -15.464000 0.902000 -3.877000
v -12.340000 0.902000 -3.877000
v -15.694000 0.902000 -3.377000
v -12.408000 0.902000 -3.377000
v -15.705000 0.902000 -2.877000
v -12.485000 0.902000 -2.877000
v -15.506000 0.902000 -2.377000
v -12.686000 0.902000 -2.377000
v -14.871000 0.902000 -1.877000
v -13.217000 0.902000 -1.877000
v -10.660000 4.902000 -12.877000
v -9.573000 4.902000 -12.877000
v -11.146000 4.902000 -12.377000
v -9.318000 4.902000 -12.377000
v -11.492000 4.902000 -11.877000
v -9.197000 4.902000 -11.877000
v -11.703000 4.902000 -11.377000
v -9.123000 4.902000 -11.377000
v -11.765000 4.902000 -10.877000
v -8.993000 4.902000 -10.877000
v -11.748000 4.902000 -10.377000
v -9.004000 4.902000 -10.377000
v -11.675000 4.902000 -9.877000
v -9.209000 4.902000 -9.877000
v -11.747000 4.902000 -9.377000
v -9.516000 4.902000 -9.377000
v -12.078000 4.902000 -8.877000
v -9.936000 4.902000 -8.877000
v -12.571000 4.902000 -8.377000
v -10.009000 4.902000 -8.377000
v -12.904000 4.902000 -7.877000
v -9.919000 4.902000 -7.877000
v -13.138000 4.902000 -7.377000
v -9.853000 4.902000 -7.377000
v -13.158000 4.902000 -6.877000
v -9.889000 4.902000 -6.877000
v -12.973000 4.902000 -6.377000
v -10.103000 4.902000 -6.377000
v -12.545000 4.902000 -5.877000
v -10.347000 4.902000 -5.877000
v -11.714000 4.902000 -5.377000
v -11.100000 4.902000 -5.377000
v -15.639000 0.902000 -3.560000
v -15.639000 0.902000 -2.636000
v -15.139000 0.902000 -4.273000
v -15.139000 0.902000 -2.012000
v -14.639000 0.902000 -4.865000
v -14.639000 0.902000 -1.816000
v -14.139000 0.902000 -5.097000
v -14.139000 0.902000 -1.735000
v -13.639000 0.902000 -5.232000
v -13.639000 0.902000 -1.732000
v -13.139000 0.902000 -5.286000
v -13.139000 0.902000 -1.922000
v -12.639000 0.902000 -5.291000
v -12.639000 0.902000 -2.459000
v -12.139000 0.902000 -8.773000
v -12.139000 0.902000 -5.543000
v -11.639000 0.902000 -9.503000
v -11.639000 0.902000 -5.564000
v -11.139000 0.902000 -10.186000
v -11.139000 0.902000 -5.675000
v -10.639000 0.902000 -14.835000
v -10.639000 0.902000 -12.957000
v -10.639000 0.902000 -10.434000
v -10.639000 0.902000 -5.769000
v -10.139000 0.902000 -15.142000
v -10.139000 0.902000 -12.673000
v -10.139000 0.902000 -10.469000
v -10.139000 0.902000 -5.945000
v -9.639000 0.902000 -15.149000
v -9.639000 0.902000 -12.681000
v -9.639000 0.902000 -10.232000
v -9.639000 0.902000 -6.303000
v -9.139000 0.902000 -15.079000
v -9.139000 0.902000 -12.718000
v -9.139000 0.902000 -9.662000
v -9.139000 0.902000 -6.571000
v -8.639000 0.902000 -14.700000
v -8.639000 0.902000 -13.048000
v -8.639000 0.902000 -9.141000
v -8.639000 0.902000 -7.056000
v -8.139000 0.902000 -8.360000
v -8.139000 0.902000 -7.839000
v -13.139000 4.902000 -7.375000
v -13.139000 4.902000 -6.779000
v -12.639000 4.902000 -8.271000
v -12.639000 4.902000 -5.968000
v -12.139000 4.902000 -8.815000
v -12.139000 4.902000 -5.562000
v -11.639000 4.902000 -11.585000
v -11.639000 4.902000 -5.361000
v -11.139000 4.902000 -12.386000
v -11.139000 4.902000 -5.368000
v -10.639000 4.902000 -12.893000
v -10.639000 4.902000 -5.588000
v -10.139000 4.902000 -13.125000
v -10.139000 4.902000 -6.292000
v -9.639000 4.902000 -12.955000
v -9.639000 4.902000 -9.242000
v -9.139000 4.902000 -11.455000
v -9.139000 4.902000 -10.001000
v -11.139000 1.229000 -13.877000
v -11.139000 3.491000 -13.877000
v -10.639000 0.694000 -13.877000
v -10.639000 4.301000 -13.877000
v -10.139000 0.502000 -13.877000
v -10.139000 4.525000 -13.877000
v -9.639000 0.496000 -13.877000
v -9.639000 4.507000 -13.877000
v -9.139000 0.540000 -13.877000
v -9.139000 4.230000 -13.877000
v -8.639000 0.746000 -13.877000
v -8.639000 3.658000 -13.877000
v -8.139000 1.340000 -13.877000
v -8.139000 3.088000 -13.877000
v -11.639000 2.686000 -9.877000
v -11.639000 5.715000 -9.877000
v -11.139000 0.501000 -9.877000
v -11.139000 6.485000 -9.877000
v -10.639000 0.246000 -9.877000
v -10.639000 6.690000 -9.877000
v -10.139000 0.235000 -9.877000
v -10.139000 6.647000 -9.877000
v -9.639000 0.462000 -9.877000
v -9.639000 6.412000 -9.877000
v -9.139000 2.420000 -9.877000
v -9.139000 4.107000 -9.877000
v -13.639000 -1.585000 -5.877000
v -13.639000 0.276000 -5.877000
v -13.139000 -2.107000 -5.877000
v -13.139000 0.546000 -5.877000
v -12.639000 -2.553000 -5.877000
v -12.639000 0.790000 -5.877000
v -12.139000 -2.792000 -5.877000
v -12.139000 1.087000 -5.877000
v -12.139000 2.753000 -5.877000
v -12.139000 6.018000 -5.877000
v -11.639000 -2.794000 -5.877000
v -11.639000 6.048000 -5.877000
v -11.139000 -2.558000 -5.877000
v -11.139000 5.675000 -5.877000
v -10.639000 -1.638000 -5.877000
v -10.639000 5.298000 -5.877000
v -10.139000 1.855000 -5.877000
v -10.139000 3.091000 -5.877000
v -14.639000 -1.164000 -1.877000
v -14.639000 1.044000 -1.877000
v -14.139000 -1.176000 -1.877000
v -14.139000 1.471000 -1.877000
v -13.639000 -1.023000 -1.877000
v -13.639000 1.480000 -1.877000
v -12.504000 -2.598000 -7.877000
v -11.205000 -2.598000 -7.877000
v -12.792000 -2.598000 -7.377000
v -10.918000 -2.598000 -7.377000
v -12.850000 -2.598000 -6.877000
v -10.907000 -2.598000 -6.877000
v -12.863000 -2.598000 -6.377000
v -10.909000 -2.598000 -6.377000
v -12.579000 -2.598000 -5.877000
v -11.193000 -2.598000 -5.877000
v -10.386000 1.402000 -15.377000
v -8.949000 1.402000 -15.377000
v -10.986000 1.402000 -14.877000
v -8.342000 1.402000 -14.877000
v -11.181000 1.402000 -14.377000
v -8.151000 1.402000 -14.377000
v -11.216000 1.402000 -13.877000
v -8.114000 1.402000 -13.877000
v -11.206000 1.402000 -13.377000
v -8.128000 1.402000 -13.377000
v -10.983000 1.402000 -12.877000
v -8.359000 1.402000 -12.877000
v -10.525000 1.402000 -12.377000
v -9.059000 1.402000 -12.377000
v -11.048000 1.402000 -10.377000
v -9.559000 1.402000 -10.377000
v -11.549000 1.402000 -9.877000
v -9.179000 1.402000 -9.877000
v -11.751000 1.402000 -9.377000
v -8.737000 1.402000 -9.377000
v -11.976000 1.402000 -8.877000
v -8.241000 1.402000 -8.877000
v -12.190000 1.402000 -8.377000
v -8.033000 1.402000 -8.377000
v -12.256000 1.402000 -7.877000
v -8.023000 1.402000 -7.877000
v -12.293000 1.402000 -7.377000
v -8.207000 1.402000 -7.377000
v -12.297000 1.402000 -6.877000
v -8.688000 1.402000 -6.877000
v -12.188000 1.402000 -6.377000
v -9.313000 1.402000 -6.377000
v -11.832000 1.402000 -5.877000
v -10.340000 1.402000 -5.877000
v -14.343000 1.402000 -4.877000
v -13.079000 1.402000 -4.877000
v -14.949000 1.402000 -4.377000
v -12.667000 1.402000 -4.377000
v -15.163000 1.402000 -3.877000
v -12.559000 1.402000 -3.877000
v -15.342000 1.402000 -3.377000
v -12.572000 1.402000 -3.377000
v -15.357000 1.402000 -2.877000
v -12.606000 1.402000 -2.877000
v -15.058000 1.402000 -2.377000
v -12.813000 1.402000 -2.377000
v -14.262000 1.402000 -1.877000
v -13.492000 1.402000 -1.877000
v -11.102000 5.402000 -12.377000
v -9.591000 5.402000 -12.377000
v -11.616000 5.402000 -11.877000
v -9.223000 5.402000 -11.877000
v -11.802000 5.402000 -11.377000
v -9.041000 5.402000 -11.377000
v -11.795000 5.402000 -10.877000
v -8.981000 5.402000 -10.877000
v -11.734000 5.402000 -10.377000
v -8.966000 5.402000 -10.377000
v -11.680000 5.402000 -9.877000
v -9.144000 5.402000 -9.877000
v -11.774000 5.402000 -9.377000
v -9.602000 5.402000 -9.377000
v -12.132000 5.402000 -8.877000
v -9.969000 5.402000 -8.877000
v -12.596000 5.402000 -8.377000
v -10.067000 5.402000 -8.377000
v -12.998000 5.402000 -7.877000
v -10.014000 5.402000 -7.877000
v -13.216000 5.402000 -7.377000
v -10.015000 5.402000 -7.377000
v -13.234000 5.402000 -6.877000
v -10.074000 5.402000 -6.877000
v -13.061000 5.402000 -6.377000
v -10.273000 5.402000 -6.377000
v -12.569000 5.402000 -5.877000
v -10.764000 5.402000 -5.877000
v -12.639000 -2.598000 -7.723000
v -12.639000 -2.598000 -5.939000
v -12.139000 -2.598000 -8.087000
v -12.139000 -2.598000 -5.631000
v -11.639000 -2.598000 -8.105000
v -11.639000 -2.598000 -5.630000
v -11.139000 -2.598000 -7.809000
v -11.139000 -2.598000 -5.932000
v -15.139000 1.402000 -3.944000
v -15.139000 1.402000 -2.458000
v -14.639000 1.402000 -4.709000
v -14.639000 1.402000 -2.062000
v -14.139000 1.402000 -4.941000
v -14.139000 1.402000 -1.845000
v -13.639000 1.402000 -4.973000
v -13.639000 1.402000 -1.840000
v -13.139000 1.402000 -4.900000
v -13.139000 1.402000 -2.050000
v -12.639000 1.402000 -4.288000
v -12.639000 1.402000 -2.741000
v -12.139000 1.402000 -8.534000
v -12.139000 1.402000 -6.255000
v -11.639000 1.402000 -9.711000
v -11.639000 1.402000 -5.795000
v -11.139000 1.402000 -14.553000
v -11.139000 1.402000 -13.157000
v -11.139000 1.402000 -10.305000
v -11.139000 1.402000 -5.743000
v -10.639000 1.402000 -15.237000
v -10.639000 1.402000 -12.491000
v -10.639000 1.402000 -10.667000
v -10.639000 1.402000 -5.783000
v -10.139000 1.402000 -15.452000
v -10.139000 1.402000 -12.083000
v -10.139000 1.402000 -10.817000
v -10.139000 1.402000 -5.963000
v -9.639000 1.402000 -15.466000
v -9.639000 1.402000 -12.114000
v -9.639000 1.402000 -10.469000
v -9.639000 1.402000 -6.246000
v -9.139000 1.402000 -15.437000
v -9.139000 1.402000 -12.341000
v -9.139000 1.402000 -9.822000
v -9.139000 1.402000 -6.468000
v -8.639000 1.402000 -15.200000
v -8.639000 1.402000 -12.603000
v -8.639000 1.402000 -9.282000
v -8.639000 1.402000 -6.919000
v -8.139000 1.402000 -14.278000
v -8.139000 1.402000 -13.332000
v -8.139000 1.402000 -8.696000
v -8.139000 1.402000 -7.503000
v -13.139000 5.402000 -7.620000
v -13.139000 5.402000 -6.534000
v -12.639000 5.402000 -8.310000
v -12.639000 5.402000 -5.922000
v -12.139000 5.402000 -8.870000
v -12.139000 5.402000 -5.699000
v -11.639000 5.402000 -11.837000
v -11.639000 5.402000 -5.617000
v -11.139000 5.402000 -12.353000
v -11.139000 5.402000 -5.683000
v -10.639000 5.402000 -12.598000
v -10.639000 5.402000 -5.974000
v -10.139000 5.402000 -12.651000
v -10.139000 5.402000 -6.638000
v -9.639000 5.402000 -12.422000
v -9.639000 5.402000 -9.341000
v -9.139000 5.402000 -11.707000
v -9.139000 5.402000 -9.886000
v -11.139000 1.250000 -13.377000
v -11.139000 4.033000 -13.377000
v -10.639000 0.712000 -13.377000
v -10.639000 4.574000 -13.377000
v -10.139000 0.527000 -13.377000
v -10.139000 4.769000 -13.377000
v -9.639000 0.529000 -13.377000
v -9.639000 4.735000 -13.377000
v -9.139000 0.554000 -13.377000
v -9.139000 4.509000 -13.377000
v -8.639000 0.762000 -13.377000
v -8.639000 3.864000 -13.377000
v -8.139000 1.374000 -13.377000
v -8.139000 3.107000 -13.377000
v -11.639000 0.693000 -9.377000
v -11.639000 5.867000 -9.377000
v -11.139000 0.164000 -9.377000
v -11.139000 6.302000 -9.377000
v -10.639000 0.020000 -9.377000
v -10.639000 6.382000 -9.377000
v -10.139000 0.019000 -9.377000
v -10.139000 6.257000 -9.377000
v -9.639000 0.221000 -9.377000
v -9.639000 5.677000 -9.377000
v -9.139000 0.571000 -9.377000
v -9.139000 3.935000 -9.377000
v -14.139000 -1.479000 -5.377000
v -14.139000 0.423000 -5.377000
v -13.639000 -1.803000 -5.377000
v -13.639000 0.715000 -5.377000
v -13.139000 -2.047000 -5.377000
v -13.139000 0.832000 -5.377000
v -12.639000 -2.225000 -5.377000
v -12.639000 0.872000 -5.377000
v -12.139000 -2.331000 -5.377000
v -12.139000 0.829000 -5.377000
v -11.639000 -2.260000 -5.377000
v -11.639000 0.633000 -5.377000
v -11.639000 3.131000 -5.377000
v -11.639000 4.942000 -5.377000
v -11.139000 -1.451000 -5.377000
v -11.139000 0.069000 -5.377000
v -11.139000 3.204000 -5.377000
v -11.139000 4.924000 -5.377000
v -12.340000 -2.098000 -8.377000
v -11.370000 -2.098000 -8.377000
v -12.946000 -2.098000 -7.877000
v -10.734000 -2.098000 -7.877000
v -13.138000 -2.098000 -7.377000
v -10.454000 -2.098000 -7.377000
v -13.174000 -2.098000 -6.877000
v -10.449000 -2.098000 -6.877000
v -13.193000 -2.098000 -6.377000
v -10.580000 -2.098000 -6.377000
v -13.148000 -2.098000 -5.877000
v -10.787000 -2.098000 -5.877000
v -13.013000 -2.098000 -5.377000
v -11.400000 -2.098000 -5.377000
v -10.561000 1.902000 -15.377000
v -8.719000 1.902000 -15.377000
v -11.076000 1.902000 -14.877000
v -8.222000 1.902000 -14.877000
v -11.259000 1.902000 -14.377000
v -8.046000 1.902000 -14.377000
v -11.302000 1.902000 -13.877000
v -8.017000 1.902000 -13.877000
v -11.293000 1.902000 -13.377000
v -8.034000 1.902000 -13.377000
v -11.146000 1.902000 -12.877000
v -8.242000 1.902000 -12.877000
v -10.924000 1.902000 -12.377000
v -8.746000 1.902000 -12.377000
v -10.608000 1.902000 -11.877000
v -9.277000 1.902000 -11.877000
v -10.322000 1.902000 -11.377000
v -9.791000 1.902000 -11.377000
v -10.520000 1.902000 -10.877000
v -9.850000 1.902000 -10.877000
v -11.075000 1.902000 -10.377000
v -9.543000 1.902000 -10.377000
v -11.560000 1.902000 -9.877000
v -9.182000 1.902000 -9.877000
v -11.761000 1.902000 -9.377000
v -8.710000 1.902000 -9.377000
v -11.859000 1.902000 -8.877000
v -8.335000 1.902000 -8.877000
v -12.118000 1.902000 -8.377000
v -8.113000 1.902000 -8.377000
v -12.297000 1.902000 -7.877000
v -8.103000 1.902000 -7.877000
v -12.289000 1.902000 -7.377000
v -8.299000 1.902000 -7.377000
v -12.253000 1.902000 -6.877000
v -8.644000 1.902000 -6.877000
v -12.116000 1.902000 -6.377000
v -9.156000 1.902000 -6.377000
v -11.671000 1.902000 -5.877000
v -10.083000 1.902000 -5.877000
v -14.527000 1.902000 -4.377000
v -12.990000 1.902000 -4.377000
v -14.810000 1.902000 -3.877000
v -12.870000 1.902000 -3.877000
v -14.807000 1.902000 -3.377000
v -12.910000 1.902000 -3.377000
v -14.787000 1.902000 -2.877000
v -12.968000 1.902000 -2.877000
v -14.463000 1.902000 -2.377000
v -13.291000 1.902000 -2.377000
v -10.967000 5.902000 -12.377000
v -9.788000 5.902000 -12.377000
v -11.557000 5.902000 -11.877000
v -9.230000 5.902000 -11.877000
v -11.764000 5.902000 -11.377000
v -9.021000 5.902000 -11.377000
v -11.774000 5.902000 -10.877000
v -9.003000 5.902000 -10.877000
v -11.660000 5.902000 -10.377000
v -9.046000 5.902000 -10.377000
v -11.568000 5.902000 -9.877000
v -9.237000 5.902000 -9.877000
v -11.617000 5.902000 -9.377000
v -9.742000 5.902000 -9.377000
v -11.958000 5.902000 -8.877000
v -10.125000 5.902000 -8.877000
v -12.470000 5.902000 -8.377000
v -10.200000 5.902000 -8.377000
v -12.862000 5.902000 -7.877000
v -10.123000 5.902000 -7.877000
v -13.104000 5.902000 -7.377000
v -10.134000 5.902000 -7.377000
v -13.124000 5.902000 -6.877000
v -10.342000 5.902000 -6.877000
v -12.933000 5.902000 -6.377000
v -10.672000 5.902000 -6.377000
v -12.323000 5.902000 -5.877000
v -11.376000 5.902000 -5.877000
v -13.139000 -2.098000 -7.372000
v -13.139000 -2.098000 -5.820000
v -12.639000 -2.098000 -8.208000
v -12.639000 -2.098000 -5.106000
v -12.139000 -2.098000 -8.439000
v -12.139000 -2.098000 -5.104000
v -11.639000 -2.098000 -8.453000
v -11.639000 -2.098000 -5.276000
v -11.139000 -2.098000 -8.256000
v -11.139000 -2.098000 -5.518000
v -10.639000 -2.098000 -7.752000
v -10.639000 -2.098000 -6.180000
v -14.639000 1.902000 -4.251000
v -14.639000 1.902000 -2.562000
v -14.139000 1.902000 -4.603000
v -14.139000 1.902000 -2.209000
v -13.639000 1.902000 -4.681000
v -13.639000 1.902000 -2.202000
v -13.139000 1.902000 -4.552000
v -13.139000 1.902000 -2.531000
v -12.139000 1.902000 -8.338000
v -12.139000 1.902000 -6.436000
v -11.639000 1.902000 -9.739000
v -11.639000 1.902000 -5.863000
v -11.139000 1.902000 -14.761000
v -11.139000 1.902000 -12.855000
v -11.139000 1.902000 -10.322000
v -11.139000 1.902000 -5.758000
v -10.639000 1.902000 -15.330000
v -10.639000 1.902000 -11.926000
v -10.639000 1.902000 -10.764000
v -10.639000 1.902000 -5.772000
v -10.139000 1.902000 -15.530000
v -10.139000 1.902000 -5.863000
v -9.639000 1.902000 -15.559000
v -9.639000 1.902000 -11.532000
v -9.639000 1.902000 -10.526000
v -9.639000 1.902000 -6.083000
v -9.139000 1.902000 -15.541000
v -9.139000 1.902000 -12.006000
v -9.139000 1.902000 -9.835000
v -9.139000 1.902000 -6.387000
v -8.639000 1.902000 -15.326000
v -8.639000 1.902000 -12.475000
v -8.639000 1.902000 -9.273000
v -8.639000 1.902000 -6.885000
v -8.139000 1.902000 -14.708000
v -8.139000 1.902000 -13.059000
v -8.139000 1.902000 -8.478000
v -8.139000 1.902000 -7.721000
v -12.639000 5.902000 -8.126000
v -12.639000 5.902000 -6.057000
v -12.139000 5.902000 -8.718000
v -12.139000 5.902000 -5.820000
v -11.639000 5.902000 -11.736000
v -11.639000 5.902000 -10.294000
v -11.639000 5.902000 -9.319000
v -11.639000 5.902000 -5.804000
v -11.139000 5.902000 -12.285000
v -11.139000 5.902000 -6.000000
v -10.639000 5.902000 -12.480000
v -10.639000 5.902000 -6.411000
v -10.139000 5.902000 -12.494000
v -10.139000 5.902000 -8.840000
v -10.139000 5.902000 -7.956000
v -10.139000 5.902000 -7.355000
v -9.639000 5.902000 -12.288000
v -9.639000 5.902000 -9.465000
v -9.139000 5.902000 -11.720000
v -9.139000 5.902000 -10.061000
v -11.139000 1.875000 -12.877000
v -11.139000 4.140000 -12.877000
v -10.639000 0.964000 -12.877000
v -10.639000 4.919000 -12.877000
v -10.139000 0.737000 -12.877000
v -10.139000 5.094000 -12.877000
v -9.639000 0.741000 -12.877000
v -9.639000 4.942000 -12.877000
v -9.139000 0.771000 -12.877000
v -9.139000 4.558000 -12.877000
v -8.639000 1.030000 -12.877000
v -8.639000 3.893000 -12.877000
v -11.639000 -0.068000 -8.877000
v -11.639000 6.208000 -8.877000
v -11.139000 -0.312000 -8.877000
v -11.139000 6.361000 -8.877000
v -10.639000 -0.313000 -8.877000
v -10.639000 6.287000 -8.877000
v -10.139000 -0.292000 -8.877000
v -10.139000 5.922000 -8.877000
v -9.639000 -0.077000 -8.877000
v -9.639000 4.484000 -8.877000
v -9.139000 0.274000 -8.877000
v -9.139000 3.946000 -8.877000
v -8.639000 0.562000 -8.877000
v -8.639000 3.060000 -8.877000
v -14.639000 -1.571000 -4.877000
v -14.639000 0.871000 -4.877000
v -14.139000 -1.812000 -4.877000
v -14.139000 1.542000 -4.877000
v -13.639000 -1.929000 -4.877000
v -13.639000 1.623000 -4.877000
v -13.139000 -2.000000 -4.877000
v -13.139000 1.444000 -4.877000
v -12.639000 -2.028000 -4.877000
v -12.639000 1.074000 -4.877000
v -12.139000 -1.951000 -4.877000
v -12.139000 0.716000 -4.877000
v -11.639000 -1.557000 -4.877000
v -11.639000 0.238000 -4.877000
v -12.565000 -1.598000 -8.377000
v -11.034000 -1.598000 -8.377000
v -13.063000 -1.598000 -7.877000
v -10.330000 -1.598000 -7.877000
v -13.239000 -1.598000 -7.377000
v -10.113000 -1.598000 -7.377000
v -13.272000 -1.598000 -6.877000
v -10.110000 -1.598000 -6.877000
v -13.402000 -1.598000 -6.377000
v -10.318000 -1.598000 -6.377000
v -13.627000 -1.598000 -5.877000
v -10.622000 -1.598000 -5.877000
v -13.977000 -1.598000 -5.377000
v -11.174000 -1.598000 -5.377000
v -14.604000 -1.598000 -4.877000
v -11.667000 -1.598000 -4.877000
v -14.977000 -1.598000 -4.377000
v -11.949000 -1.598000 -4.377000
v -15.298000 -1.598000 -3.877000
v -12.265000 -1.598000 -3.877000
v -15.337000 -1.598000 -3.377000
v -12.476000 -1.598000 -3.377000
v -15.329000 -1.598000 -2.877000
v -12.812000 -1.598000 -2.877000
v -15.009000 -1.598000 -2.377000
v -13.407000 -1.598000 -2.377000
v -10.487000 2.402000 -15.377000
v -8.784000 2.402000 -15.377000
v -11.048000 2.402000 -14.877000
v -8.200000 2.402000 -14.877000
v -11.247000 2.402000 -14.377000
v -7.994000 2.402000 -14.377000
v -11.271000 2.402000 -13.877000
v -7.970000 2.402000 -13.877000
v -11.264000 2.402000 -13.377000
v -7.971000 2.402000 -13.377000
v -11.231000 2.402000 -12.877000
v -8.154000 2.402000 -12.877000
v -11.061000 2.402000 -12.377000
v -8.634000 2.402000 -12.377000
v -10.843000 2.402000 -11.877000
v -9.120000 2.402000 -11.877000
v -10.685000 2.402000 -11.377000
v -9.550000 2.402000 -11.377000
v -10.845000 2.402000 -10.877000
v -9.661000 2.402000 -10.877000
v -11.251000 2.402000 -10.377000
v -9.475000 2.402000 -10.377000
v -11.578000 2.402000 -9.877000
v -9.145000 2.402000 -9.877000
v -11.760000 2.402000 -9.377000
v -8.680000 2.402000 -9.377000
v -11.842000 2.402000 -8.877000
v -8.458000 2.402000 -8.877000
v -12.077000 2.402000 -8.377000
v -8.366000 2.402000 -8.377000
v -12.271000 2.402000 -7.877000
v -8.367000 2.402000 -7.877000
v -12.280000 2.402000 -7.377000
v -8.521000 2.402000 -7.377000
v -12.279000 2.402000 -6.877000
v -8.744000 2.402000 -6.877000
v -12.164000 2.402000 -6.377000
v -9.223000 2.402000 -6.377000
v -11.800000 2.402000 -5.877000
v -9.848000 2.402000 -5.877000
v -10.715000 6.402000 -12.377000
v -10.068000 6.402000 -12.377000
v -11.457000 6.402000 -11.877000
v -9.326000 6.402000 -11.877000
v -11.683000 6.402000 -11.377000
v -9.101000 6.402000 -11.377000
v -11.695000 6.402000 -10.877000
v -9.089000 6.402000 -10.877000
v -11.509000 6.402000 -10.377000
v -9.277000 6.402000 -10.377000
v -11.236000 6.402000 -9.877000
v -9.625000 6.402000 -9.877000
v -12.001000 6.402000 -8.377000
v -10.717000 6.402000 -8.377000
v -12.373000 6.402000 -7.877000
v -10.482000 6.402000 -7.877000
v -12.733000 6.402000 -7.377000
v -10.497000 6.402000 -7.377000
v -12.761000 6.402000 -6.877000
v -10.850000 6.402000 -6.877000
v -12.467000 6.402000 -6.377000
v -11.232000 6.402000 -6.377000
v -15.139000 -1.598000 -4.202000
v -15.139000 -1.598000 -2.508000
v -14.639000 -1.598000 -4.841000
v -14.639000 -1.598000 -2.182000
v -14.139000 -1.598000 -5.215000
v -14.139000 -1.598000 -2.175000
v -13.639000 -1.598000 -5.856000
v -13.639000 -1.598000 -2.272000
v -13.139000 -1.598000 -7.728000
v -13.139000 -1.598000 -2.623000
v -12.639000 -1.598000 -8.330000
v -12.639000 -1.598000 -3.051000
v -12.139000 -1.598000 -8.541000
v -12.139000 -1.598000 -4.026000
v -11.639000 -1.598000 -8.554000
v -11.639000 -1.598000 -4.913000
v -11.139000 -1.598000 -8.413000
v -11.139000 -1.598000 -5.405000
v -10.639000 -1.598000 -8.184000
v -10.639000 -1.598000 -5.853000
v -10.139000 -1.598000 -7.482000
v -10.139000 -1.598000 -6.755000
v -12.139000 2.402000 -8.269000
v -12.139000 2.402000 -6.315000
v -11.639000 2.402000 -9.757000
v -11.639000 2.402000 -5.797000
v -11.139000 2.402000 -14.712000
v -11.139000 2.402000 -12.570000
v -11.139000 2.402000 -10.528000
v -11.139000 2.402000 -5.695000
v -10.639000 2.402000 -15.290000
v -10.639000 2.402000 -5.703000
v -10.139000 2.402000 -15.494000
v -10.139000 2.402000 -5.786000
v -9.639000 2.402000 -15.510000
v -9.639000 2.402000 -11.190000
v -9.639000 2.402000 -10.773000
v -9.639000 2.402000 -5.990000
v -9.139000 2.402000 -15.487000
v -9.139000 2.402000 -11.858000
v -9.139000 2.402000 -9.871000
v -9.139000 2.402000 -6.460000
v -8.639000 2.402000 -15.300000
v -8.639000 2.402000 -12.372000
v -8.639000 2.402000 -9.312000
v -8.639000 2.402000 -7.071000
v -8.139000 2.402000 -14.777000
v -8.139000 2.402000 -12.902000
v -12.639000 6.402000 -7.575000
v -12.639000 6.402000 -6.579000
v -12.139000 6.402000 -8.234000
v -12.139000 6.402000 -6.190000
v -11.639000 6.402000 -11.532000
v -11.639000 6.402000 -10.660000
v -11.639000 6.402000 -8.593000
v -11.639000 6.402000 -6.168000
v -11.139000 6.402000 -12.186000
v -11.139000 6.402000 -9.727000
v -11.139000 6.402000 -8.748000
v -11.139000 6.402000 -6.472000
v -10.639000 6.402000 -12.394000
v -10.639000 6.402000 -9.431000
v -10.639000 6.402000 -8.240000
v -10.639000 6.402000 -7.096000
v -10.139000 6.402000 -12.393000
v -10.139000 6.402000 -9.571000
v -9.639000 6.402000 -12.182000
v -9.639000 6.402000 -9.863000
v -9.139000 6.402000 -11.516000
v -9.139000 6.402000 -10.676000
v -11.139000 3.030000 -12.377000
v -11.139000 5.021000 -12.377000
v -10.639000 1.508000 -12.377000
v -10.639000 6.446000 -12.377000
v -10.139000 1.186000 -12.377000
v -10.139000 6.444000 -12.377000
v -9.639000 1.205000 -12.377000
v -9.639000 5.509000 -12.377000
v -9.139000 1.340000 -12.377000
v -9.139000 4.550000 -12.377000
v -8.639000 2.330000 -12.377000
v -8.639000 2.528000 -12.377000
v -12.139000 -2.230000 -8.377000
v -12.139000 -0.627000 -8.377000
v -12.139000 -0.125000 -8.377000
v -12.139000 1.665000 -8.377000
v -12.139000 3.750000 -8.377000
v -12.139000 6.308000 -8.377000
v -11.639000 -2.256000 -8.377000
v -11.639000 6.540000 -8.377000
v -11.139000 -1.737000 -8.377000
v -11.139000 6.549000 -8.377000
v -10.639000 -1.050000 -8.377000
v -10.639000 6.357000 -8.377000
v -10.139000 -0.625000 -8.377000
v -10.139000 5.770000 -8.377000
v -9.639000 -0.311000 -8.377000
v -9.639000 4.380000 -8.377000
v -9.139000 0.053000 -8.377000
v -9.139000 4.044000 -8.377000
v -8.639000 0.301000 -8.377000
v -8.639000 3.463000 -8.377000
v -8.139000 0.910000 -8.377000
v -8.139000 1.968000 -8.377000
v -15.139000 -1.478000 -4.377000
v -15.139000 0.589000 -4.377000
v -14.639000 -1.810000 -4.377000
v -14.639000 1.816000 -4.377000
v -14.139000 -2.005000 -4.377000
v -14.139000 2.074000 -4.377000
v -13.639000 -2.006000 -4.377000
v -13.639000 2.121000 -4.377000
v -13.139000 -1.983000 -4.377000
v -13.139000 2.005000 -4.377000
v -12.639000 -1.939000 -4.377000
v -12.639000 1.340000 -4.377000
v -12.139000 -1.744000 -4.377000
v -12.139000 0.650000 -4.377000
v -11.639000 -1.173000 -4.377000
v -11.639000 -0.001000 -4.377000
v -12.379000 -1.098000 -8.377000
v -10.679000 -1.098000 -8.377000
v -12.964000 -1.098000 -7.877000
v -10.100000 -1.098000 -7.877000
v -13.163000 -1.098000 -7.377000
v -9.846000 -1.098000 -7.377000
v -13.305000 -1.098000 -6.877000
v -9.843000 -1.098000 -6.877000
v -13.552000 -1.098000 -6.377000
v -10.072000 -1.098000 -6.377000
v -13.983000 -1.098000 -5.877000
v -10.330000 -1.098000 -5.877000
v -14.456000 -1.098000 -5.377000
v -10.941000 -1.098000 -5.377000
v -14.990000 -1.098000 -4.877000
v -11.430000 -1.098000 -4.877000
v -15.434000 -1.098000 -4.377000
v -11.606000 -1.098000 -4.377000
v -15.648000 -1.098000 -3.877000
v -11.830000 -1.098000 -3.877000
v -15.670000 -1.098000 -3.377000
v -12.120000 -1.098000 -3.377000
v -15.660000 -1.098000 -2.877000
v -12.346000 -1.098000 -2.877000
v -15.445000 -1.098000 -2.377000
v -12.881000 -1.098000 -2.377000
v -14.747000 -1.098000 -1.877000
v -13.911000 -1.098000 -1.877000
v -10.212000 2.902000 -15.377000
v -9.115000 2.902000 -15.377000
v -10.931000 2.902000 -14.877000
v -8.324000 2.902000 -14.877000
v -11.149000 2.902000 -14.377000
v -8.098000 2.902000 -14.377000
v -11.244000 2.902000 -13.877000
v -8.056000 2.902000 -13.877000
v -11.259000 2.902000 -13.377000
v -8.048000 2.902000 -13.377000
v -11.246000 2.902000 -12.877000
v -8.243000 2.902000 -12.877000
v -11.113000 2.902000 -12.377000
v -8.670000 2.902000 -12.377000
v -11.076000 2.902000 -11.877000
v -9.043000 2.902000 -11.877000
v -11.158000 2.902000 -11.377000
v -9.247000 2.902000 -11.377000
v -11.327000 2.902000 -10.877000
v -9.333000 2.902000 -10.877000
v -11.506000 2.902000 -10.377000
v -9.237000 2.902000 -10.377000
v -11.705000 2.902000 -9.877000
v -9.038000 2.902000 -9.877000
v -11.819000 2.902000 -9.377000
v -8.784000 2.902000 -9.377000
v -11.877000 2.902000 -8.877000
v -8.567000 2.902000 -8.877000
v -12.083000 2.902000 -8.377000
v -8.504000 2.902000 -8.377000
v -12.267000 2.902000 -7.877000
v -8.516000 2.902000 -7.877000
v -12.354000 2.902000 -7.377000
v -8.662000 2.902000 -7.377000
v -12.442000 2.902000 -6.877000
v -8.908000 2.902000 -6.877000
v -12.436000 2.902000 -6.377000
v -9.381000 2.902000 -6.377000
v -12.318000 2.902000 -5.877000
v -10.079000 2.902000 -5.877000
v -11.042000 6.902000 -11.877000
v -9.742000 6.902000 -11.877000
v -11.368000 6.902000 -11.377000
v -9.415000 6.902000 -11.377000
v -11.384000 6.902000 -10.877000
v -9.400000 6.902000 -10.877000
v -11.110000 6.902000 -10.377000
v -9.674000 6.902000 -10.377000
v -15.639000 -1.098000 -3.919000
v -15.639000 -1.098000 -2.787000
v -15.139000 -1.098000 -4.693000
v -15.139000 -1.098000 -2.069000
v -14.639000 -1.098000 -5.230000
v -14.639000 -1.098000 -1.850000
v -14.139000 -1.098000 -5.692000
v -14.139000 -1.098000 -1.845000
v -13.639000 -1.098000 -6.265000
v -13.639000 -1.098000 -1.907000
v -13.139000 -1.098000 -7.462000
v -13.139000 -1.098000 -2.131000
v -12.639000 -1.098000 -8.226000
v -12.639000 -1.098000 -2.583000
v -12.139000 -1.098000 -8.467000
v -12.139000 -1.098000 -3.319000
v -11.639000 -1.098000 -8.540000
v -11.639000 -1.098000 -4.253000
v -11.139000 -1.098000 -8.510000
v -11.139000 -1.098000 -5.231000
v -10.639000 -1.098000 -8.357000
v -10.639000 -1.098000 -5.560000
v -10.139000 -1.098000 -7.923000
v -10.139000 -1.098000 -6.240000
v -12.139000 2.902000 -8.275000
v -12.139000 2.902000 -5.661000
v -11.639000 2.902000 -10.096000
v -11.639000 2.902000 -5.527000
v -11.139000 2.902000 -14.417000
v -11.139000 2.902000 -12.487000
v -11.139000 2.902000 -11.455000
v -11.139000 2.902000 -5.540000
v -10.639000 2.902000 -15.172000
v -10.639000 2.902000 -5.666000
v -10.139000 2.902000 -15.395000
v -10.139000 2.902000 -5.849000
v -9.639000 2.902000 -15.405000
v -9.639000 2.902000 -6.123000
v -9.139000 2.902000 -15.381000
v -9.139000 2.902000 -11.683000
v -9.139000 2.902000 -10.113000
v -9.139000 2.902000 -6.646000
v -8.639000 2.902000 -15.178000
v -8.639000 2.902000 -12.414000
v -8.639000 2.902000 -9.102000
v -8.639000 2.902000 -7.451000
v -8.139000 2.902000 -14.525000
v -8.139000 2.902000 -13.070000
v -11.139000 6.902000 -11.785000
v -11.139000 6.902000 -10.407000
v -10.639000 6.902000 -12.082000
v -10.639000 6.902000 -10.109000
v -10.139000 6.902000 -12.080000
v -10.139000 6.902000 -10.112000
v -9.639000 6.902000 -11.778000
v -9.639000 6.902000 -10.413000
v -11.139000 3.094000 -11.877000
v -11.139000 6.828000 -11.877000
v -10.639000 1.979000 -11.877000
v -10.639000 7.074000 -11.877000
v -10.139000 1.505000 -11.877000
v -10.139000 7.073000 -11.877000
v -9.639000 1.560000 -11.877000
v -9.639000 6.824000 -11.877000
v -9.139000 2.332000 -11.877000
v -9.139000 4.253000 -11.877000
v -12.639000 -2.499000 -7.877000
v -12.639000 -0.513000 -7.877000
v -12.639000 4.256000 -7.877000
v -12.639000 6.193000 -7.877000
v -12.139000 -2.754000 -7.877000
v -12.139000 6.540000 -7.877000
v -11.639000 -2.768000 -7.877000
v -11.639000 6.726000 -7.877000
v -11.139000 -2.553000 -7.877000
v -11.139000 6.723000 -7.877000
v -10.639000 -1.999000 -7.877000
v -10.639000 6.521000 -7.877000
v -10.139000 -1.160000 -7.877000
v -10.139000 5.938000 -7.877000
v -9.639000 -0.496000 -7.877000
v -9.639000 4.432000 -7.877000
v -9.139000 -0.008000 -7.877000
v -9.139000 4.024000 -7.877000
v -8.639000 0.289000 -7.877000
v -8.639000 3.434000 -7.877000
v -8.139000 0.885000 -7.877000
v -8.139000 1.994000 -7.877000
v -15.639000 -1.120000 -3.877000
v -15.639000 0.061000 -3.877000
v -15.139000 -1.723000 -3.877000
v -15.139000 1.441000 -3.877000
v -14.639000 -1.929000 -3.877000
v -14.639000 2.041000 -3.877000
v -14.139000 -2.004000 -3.877000
v -14.139000 2.257000 -3.877000
v -13.639000 -2.005000 -3.877000
v -13.639000 2.271000 -3.877000
v -13.139000 -1.982000 -3.877000
v -13.139000 2.105000 -3.877000
v -12.639000 -1.806000 -3.877000
v -12.639000 1.578000 -3.877000
v -12.139000 -1.498000 -3.877000
v -12.139000 0.572000 -3.877000
v -12.133000 -0.598000 -8.377000
v -10.101000 -0.598000 -8.377000
v -12.674000 -0.598000 -7.877000
v -9.714000 -0.598000 -7.877000
v -12.996000 -0.598000 -7.377000
v -9.541000 -0.598000 -7.377000
v -13.243000 -0.598000 -6.877000
v -9.541000 -0.598000 -6.877000
v -13.590000 -0.598000 -6.377000
v -9.747000 -0.598000 -6.377000
v -14.089000 -0.598000 -5.877000
v -10.212000 -0.598000 -5.877000
v -14.586000 -0.598000 -5.377000
v -10.780000 -0.598000 -5.377000
v -15.091000 -0.598000 -4.877000
v -11.301000 -0.598000 -4.877000
v -15.555000 -0.598000 -4.377000
v -11.506000 -0.598000 -4.377000
v -15.750000 -0.598000 -3.877000
v -11.712000 -0.598000 -3.877000
v -15.764000 -0.598000 -3.377000
v -12.012000 -0.598000 -3.377000
v -15.752000 -0.598000 -2.877000
v -12.226000 -0.598000 -2.877000
v -15.553000 -0.598000 -2.377000
v -12.730000 -0.598000 -2.377000
v -14.992000 -0.598000 -1.877000
v -13.371000 -0.598000 -1.877000
v -10.481000 3.402000 -14.877000
v -8.809000 3.402000 -14.877000
v -10.955000 3.402000 -14.377000
v -8.453000 3.402000 -14.377000
v -11.168000 3.402000 -13.877000
v -8.369000 3.402000 -13.877000
v -11.299000 3.402000 -13.377000
v -8.348000 3.402000 -13.377000
v -11.315000 3.402000 -12.877000
v -8.482000 3.402000 -12.877000
v -11.222000 3.402000 -12.377000
v -8.721000 3.402000 -12.377000
v -11.250000 3.402000 -11.877000
v -8.995000 3.402000 -11.877000
v -11.455000 3.402000 -11.377000
v -9.089000 3.402000 -11.377000
v -11.644000 3.402000 -10.877000
v -9.051000 3.402000 -10.877000
v -11.692000 3.402000 -10.377000
v -9.046000 3.402000 -10.377000
v -11.808000 3.402000 -9.877000
v -9.039000 3.402000 -9.877000
v -11.812000 3.402000 -9.377000
v -8.961000 3.402000 -9.377000
v -11.864000 3.402000 -8.877000
v -8.804000 3.402000 -8.877000
v -12.094000 3.402000 -8.377000
v -8.612000 3.402000 -8.377000
v -12.291000 3.402000 -7.877000
v -8.625000 3.402000 -7.877000
v -12.485000 3.402000 -7.377000
v -8.857000 3.402000 -7.377000
v -12.701000 3.402000 -6.877000
v -9.263000 3.402000 -6.877000
v -12.717000 3.402000 -6.377000
v -9.641000 3.402000 -6.377000
v -12.561000 3.402000 -5.877000
v -10.186000 3.402000 -5.877000
v -12.043000 3.402000 -5.377000
v -10.869000 3.402000 -5.377000
v -15.639000 -0.598000 -4.224000
v -15.639000 -0.598000 -2.531000
v -15.139000 -0.598000 -4.825000
v -15.139000 -0.598000 -1.960000
v -14.639000 -0.598000 -5.329000
v -14.639000 -0.598000 -1.759000
v -14.139000 -0.598000 -5.824000
v -14.139000 -0.598000 -1.753000
v -13.639000 -0.598000 -6.329000
v -13.639000 -0.598000 -1.797000
v -13.139000 -0.598000 -7.133000
v -13.139000 -0.598000 -1.999000
v -12.639000 -0.598000 -7.924000
v -12.639000 -0.598000 -2.457000
v -12.139000 -0.598000 -8.373000
v -12.139000 -0.598000 -3.033000
v -11.639000 -0.598000 -8.614000
v -11.639000 -0.598000 -4.002000
v -11.139000 -0.598000 -8.683000
v -11.139000 -0.598000 -5.087000
v -10.639000 -0.598000 -8.635000
v -10.639000 -0.598000 -5.464000
v -10.139000 -0.598000 -8.414000
v -10.139000 -0.598000 -5.955000
v -9.639000 -0.598000 -7.705000
v -9.639000 -0.598000 -6.568000
v -12.639000 3.402000 -7.079000
v -12.639000 3.402000 -6.064000
v -12.139000 3.402000 -8.296000
v -12.139000 3.402000 -5.424000
v -11.639000 3.402000 -10.904000
v -11.639000 3.402000 -5.275000
v -11.139000 3.402000 -13.989000
v -11.139000 3.402000 -5.290000
v -10.639000 3.402000 -14.747000
v -10.639000 3.402000 -5.508000
v -10.139000 3.402000 -15.048000
v -10.139000 3.402000 -5.922000
v -9.639000 3.402000 -15.062000
v -9.639000 3.402000 -6.379000
v -9.139000 3.402000 -15.030000
v -9.139000 3.402000 -7.057000
v -8.639000 3.402000 -14.720000
v -8.639000 3.402000 -12.527000
v -8.639000 3.402000 -8.499000
v -8.639000 3.402000 -7.821000
v -10.139000 1.227000 -15.377000
v -10.139000 2.943000 -15.377000
v -9.639000 1.208000 -15.377000
v -9.639000 2.966000 -15.377000
v -9.139000 1.276000 -15.377000
v -9.139000 2.913000 -15.377000
v -11.639000 4.632000 -11.377000
v -11.639000 6.509000 -11.377000
v -11.139000 2.877000 -11.377000
v -11.139000 7.089000 -11.377000
v -10.639000 2.351000 -11.377000
v -10.639000 7.287000 -11.377000
v -10.139000 1.736000 -11.377000
v -10.139000 7.286000 -11.377000
v -9.639000 2.233000 -11.377000
v -9.639000 7.085000 -11.377000
v -9.139000 3.207000 -11.377000
v -9.139000 4.322000 -11.377000
v -9.139000 4.775000 -11.377000
v -9.139000 6.497000 -11.377000
v -13.139000 -2.097000 -7.377000
v -13.139000 -1.010000 -7.377000
v -13.139000 4.903000 -7.377000
v -13.139000 5.813000 -7.377000
v -12.639000 -2.720000 -7.377000
v -12.639000 0.409000 -7.377000
v -12.639000 3.842000 -7.377000
v -12.639000 6.475000 -7.377000
v -12.139000 -2.934000 -7.377000
v -12.139000 6.695000 -7.377000
v -11.639000 -2.947000 -7.377000
v -11.639000 6.740000 -7.377000
v -11.139000 -2.764000 -7.377000
v -11.139000 6.713000 -7.377000
v -10.639000 -2.277000 -7.377000
v -10.639000 6.509000 -7.377000
v -10.139000 -1.659000 -7.377000
v -10.139000 5.913000 -7.377000
v -9.639000 -0.811000 -7.377000
v -9.639000 4.534000 -7.377000
v -9.139000 0.067000 -7.377000
v -9.139000 3.794000 -7.377000
v -8.639000 0.517000 -7.377000
v -8.639000 2.830000 -7.377000
v -15.639000 -1.171000 -3.377000
v -15.639000 1.019000 -3.377000
v -15.139000 -1.757000 -3.377000
v -15.139000 1.575000 -3.377000
v -14.639000 -1.961000 -3.377000
v -14.639000 2.036000 -3.377000
v -14.139000 -1.974000 -3.377000
v -14.139000 2.247000 -3.377000
v -13.639000 -1.951000 -3.377000
v -13.639000 2.259000 -3.377000
v -13.139000 -1.932000 -3.377000
v -13.139000 2.076000 -3.377000
v -12.639000 -1.726000 -3.377000
v -12.639000 1.547000 -3.377000
v -12.139000 -1.141000 -3.377000
v -12.139000 0.391000 -3.377000
v -11.606000 -0.098000 -8.877000
v -9.669000 -0.098000 -8.877000
v -12.143000 -0.098000 -8.377000
v -9.363000 -0.098000 -8.377000
v -12.555000 -0.098000 -7.877000
v -9.262000 -0.098000 -7.877000
v -12.789000 -0.098000 -7.377000
v -9.265000 -0.098000 -7.377000
v -12.959000 -0.098000 -6.877000
v -9.414000 -0.098000 -6.877000
v -13.349000 -0.098000 -6.377000
v -9.656000 -0.098000 -6.377000
v -13.951000 -0.098000 -5.877000
v -10.197000 -0.098000 -5.877000
v -14.504000 -0.098000 -5.377000
v -10.986000 -0.098000 -5.377000
v -15.037000 -0.098000 -4.877000
v -11.436000 -0.098000 -4.877000
v -15.453000 -0.098000 -4.377000
v -11.597000 -0.098000 -4.377000
v -15.673000 -0.098000 -3.877000
v -11.815000 -0.098000 -3.877000
v -15.751000 -0.098000 -3.377000
v -12.040000 -0.098000 -3.377000
v -15.744000 -0.098000 -2.877000
v -12.235000 -0.098000 -2.877000
v -15.549000 -0.098000 -2.377000
v -12.723000 -0.098000 -2.377000
v -14.973000 -0.098000 -1.877000
v -13.320000 -0.098000 -1.877000
v -10.558000 3.902000 -14.377000
v -9.177000 3.902000 -14.377000
v -10.965000 3.902000 -13.877000
v -8.848000 3.902000 -13.877000
v -11.200000 3.902000 -13.377000
v -8.658000 3.902000 -13.377000
v -11.222000 3.902000 -12.877000
v -8.642000 3.902000 -12.877000
v -11.183000 3.902000 -12.377000
v -8.832000 3.902000 -12.377000
v -11.280000 3.902000 -11.877000
v -9.033000 3.902000 -11.877000
v -11.556000 3.902000 -11.377000
v -9.058000 3.902000 -11.377000
v -11.737000 3.902000 -10.877000
v -8.963000 3.902000 -10.877000
v -11.746000 3.902000 -10.377000
v -8.979000 3.902000 -10.377000
v -11.752000 3.902000 -9.877000
v -9.088000 3.902000 -9.877000
v -11.804000 3.902000 -9.377000
v -9.124000 3.902000 -9.377000
v -11.925000 3.902000 -8.877000
v -9.104000 3.902000 -8.877000
v -12.188000 3.902000 -8.377000
v -8.962000 3.902000 -8.377000
v -12.444000 3.902000 -7.877000
v -8.980000 3.902000 -7.877000
v -12.659000 3.902000 -7.377000
v -9.220000 3.902000 -7.377000
v -12.789000 3.902000 -6.877000
v -9.453000 3.902000 -6.877000
v -12.791000 3.902000 -6.377000
v -9.698000 3.902000 -6.377000
v -12.613000 3.902000 -5.877000
v -10.185000 3.902000 -5.877000
v -12.109000 3.902000 -5.377000
v -10.707000 3.902000 -5.377000
v -15.639000 -0.098000 -3.991000
v -15.639000 -0.098000 -2.541000
v -15.139000 -0.098000 -4.750000
v -15.139000 -0.098000 -1.968000
v -14.639000 -0.098000 -5.266000
v -14.639000 -0.098000 -1.773000
v -14.139000 -0.098000 -5.702000
v -14.139000 -0.098000 -1.745000
v -13.639000 -0.098000 -6.177000
v -13.639000 -0.098000 -1.765000
v -13.139000 -0.098000 -6.584000
v -13.139000 -0.098000 -1.983000
v -12.639000 -0.098000 -7.722000
v -12.639000 -0.098000 -2.447000
v -12.139000 -0.098000 -8.381000
v -12.139000 -0.098000 -3.067000
v -11.639000 -0.098000 -8.855000
v -11.639000 -0.098000 -4.225000
v -11.139000 -0.098000 -9.080000
v -11.139000 -0.098000 -5.258000
v -10.639000 -0.098000 -9.146000
v -10.639000 -0.098000 -5.591000
v -10.139000 -0.098000 -9.151000
v -10.139000 -0.098000 -5.910000
v -9.639000 -0.098000 -8.848000
v -9.639000 -0.098000 -6.405000
v -12.639000 3.902000 -7.448000
v -12.639000 3.902000 -5.922000
v -12.139000 3.902000 -8.444000
v -12.139000 3.902000 -5.395000
v -11.639000 3.902000 -11.213000
v -11.639000 3.902000 -5.208000
v -11.139000 3.902000 -13.570000
v -11.139000 3.902000 -5.215000
v -10.639000 3.902000 -14.293000
v -10.639000 3.902000 -5.419000
v -10.139000 3.902000 -14.608000
v -10.139000 3.902000 -5.926000
v -9.639000 3.902000 -14.619000
v -9.639000 3.902000 -6.473000
v -9.139000 3.902000 -14.341000
v -9.139000 3.902000 -7.539000
v -10.639000 0.933000 -14.877000
v -10.639000 3.281000 -14.877000
v -10.139000 0.689000 -14.877000
v -10.139000 3.568000 -14.877000
v -9.639000 0.684000 -14.877000
v -9.639000 3.584000 -14.877000
v -9.139000 0.753000 -14.877000
v -9.139000 3.521000 -14.877000
v -8.639000 1.014000 -14.877000
v -8.639000 3.289000 -14.877000
v -11.639000 3.390000 -10.877000
v -11.639000 6.536000 -10.877000
v -11.139000 2.703000 -10.877000
v -11.139000 7.102000 -10.877000
v -10.639000 2.149000 -10.877000
v -10.639000 7.299000 -10.877000
v -10.139000 1.482000 -10.877000
v -10.139000 7.298000 -10.877000
v -9.639000 2.440000 -10.877000
v -9.639000 7.098000 -10.877000
v -9.139000 3.205000 -10.877000
v -9.139000 6.524000 -10.877000
v -13.139000 -2.184000 -6.877000
v -13.139000 -0.369000 -6.877000
v -13.139000 4.851000 -6.877000
v -13.139000 5.865000 -6.877000
v -12.639000 -2.769000 -6.877000
v -12.639000 0.500000 -6.877000
v -12.639000 3.252000 -6.877000
v -12.639000 6.497000 -6.877000
v -12.139000 -2.971000 -6.877000
v -12.139000 6.713000 -6.877000
v -11.639000 -2.974000 -6.877000
v -11.639000 6.728000 -6.877000
v -11.139000 -2.781000 -6.877000
v -11.139000 6.560000 -6.877000
v -10.639000 -2.290000 -6.877000
v -10.639000 6.249000 -6.877000
v -10.139000 -1.667000 -6.877000
v -10.139000 5.553000 -6.877000
v -9.639000 -0.816000 -6.877000
v -9.639000 4.504000 -6.877000
v -9.139000 0.450000 -6.877000
v -9.139000 3.220000 -6.877000
v -15.639000 -1.151000 -2.877000
v -15.639000 1.041000 -2.877000
v -15.139000 -1.751000 -2.877000
v -15.139000 1.570000 -2.877000
v -14.639000 -1.957000 -2.877000
v -14.639000 2.014000 -2.877000
v -14.139000 -1.962000 -2.877000
v -14.139000 2.218000 -2.877000
v -13.639000 -1.901000 -2.877000
v -13.639000 2.223000 -2.877000
v -13.139000 -1.741000 -2.877000
v -13.139000 2.029000 -2.877000
v -12.639000 -1.476000 -2.877000
v -12.639000 1.473000 -2.877000
f 313 379 121
f 121 379 377
f 379 581 377
f 583 581 379
f 583 795 581
f 797 795 583
f 797 1005 795
f 1007 1005 797
f 122 1005 1253
f 1005 1185 1253
f 1005 1007 1185
f 1185 314 1253
f 315 181 123
f 123 181 179
f 121 179 181
f 121 181 313
f 1253 1183 122
f 314 1359 1429
f 314 1429 124
f 1253 314 124
f 1183 1253 124
f 1359 316 1429
f 317 123 125
f 317 315 123
f 1429 1357 124
f 316 35 111
f 316 111 126
f 1429 316 126
f 1357 1429 126
f 35 318 111
f 319 125 127
f 319 317 125
f 113 128 126
f 113 126 111
f 111 318 113
f 113 318 320
f 321 127 129
f 321 319 127
f 1358 1435 130
f 113 36 128
f 128 36 1358
f 36 322 1358
f 322 1435 1358
f 113 320 36
f 323 129 131
f 323 321 129
f 130 1435 1360
f 324 130 1360
f 132 130 324
f 1435 322 1360
f 131 180 323
f 323 180 182
f 378 497 325
f 182 378 325
f 180 378 182
f 133 497 378
f 1186 326 134
f 1186 134 1184
f 1184 132 1186
f 1186 132 324
f 497 380 325
f 133 582 497
f 582 380 497
f 582 584 380
f 796 584 582
f 796 798 584
f 1006 798 796
f 1006 1008 798
f 1006 134 1008
f 1008 134 326
f 327 1023 1075
f 1075 1023 135
f 1023 1199 135
f 1023 1201 1199
f 1201 1373 1199
f 1375 1373 1201
f 1375 49 1373
f 51 49 1375
f 51 231 49
f 233 231 51
f 233 429 231
f 431 429 233
f 710 635 328
f 635 431 328
f 635 429 431
f 710 136 635
f 329 189 271
f 271 189 475
f 475 189 389
f 475 389 681
f 681 389 599
f 681 599 137
f 599 811 137
f 599 813 811
f 813 327 1075
f 1021 813 1075
f 811 813 1021
f 1075 135 1021
f 637 710 328
f 839 136 710
f 637 839 710
f 841 839 637
f 841 330 839
f 839 330 138
f 331 1 91
f 329 271 1
f 1 271 91
f 271 187 91
f 187 139 91
f 475 387 187
f 475 187 271
f 681 597 387
f 681 387 475
f 681 137 597
f 332 1100 1047
f 138 332 1047
f 330 332 138
f 1100 140 1047
f 93 333 91
f 91 333 331
f 91 139 141
f 91 141 93
f 334 1102 1100
f 334 1100 332
f 140 1100 142
f 142 1100 1102
f 93 2 333
f 283 335 188
f 188 335 141
f 335 2 141
f 2 93 141
f 143 283 188
f 144 1048 1102
f 334 144 1102
f 336 144 334
f 142 1102 1048
f 283 190 335
f 143 388 283
f 388 190 283
f 388 390 190
f 598 390 388
f 598 600 390
f 812 600 598
f 812 814 600
f 1022 1089 337
f 814 1022 337
f 812 1022 814
f 145 1089 1022
f 52 338 120
f 52 120 312
f 52 312 234
f 234 312 518
f 234 518 432
f 432 518 724
f 432 724 638
f 638 724 146
f 840 638 146
f 842 638 840
f 840 144 842
f 842 144 336
f 1089 1024 337
f 145 1200 1089
f 1200 1024 1089
f 1200 1202 1024
f 1374 1202 1200
f 1374 1376 1202
f 338 1376 120
f 1376 50 120
f 1376 1374 50
f 232 312 50
f 50 312 120
f 430 518 232
f 232 518 312
f 636 724 430
f 430 724 518
f 146 724 636
f 339 983 1057
f 1057 983 1229
f 1229 983 1163
f 1229 1163 1403
f 1403 1163 1339
f 1339 340 1403
f 341 573 147
f 147 573 571
f 573 773 571
f 775 773 573
f 775 339 1057
f 981 775 1057
f 773 775 981
f 1229 1161 981
f 1229 981 1057
f 1403 1337 1161
f 1403 1161 1229
f 340 17 81
f 340 81 148
f 1403 340 148
f 1337 1403 148
f 17 342 81
f 450 369 149
f 147 369 450
f 343 147 450
f 341 147 343
f 81 15 148
f 81 342 15
f 342 150 15
f 342 344 150
f 1248 1215 151
f 1422 1389 1248
f 1248 1389 1215
f 102 65 1422
f 1422 65 1389
f 298 247 102
f 102 247 65
f 504 445 298
f 298 445 247
f 706 651 504
f 504 651 445
f 706 152 651
f 450 149 371
f 149 345 371
f 149 153 345
f 343 450 371
f 203 150 344
f 203 344 205
f 470 403 346
f 403 205 346
f 403 203 205
f 470 154 403
f 876 827 155
f 347 1039 876
f 1039 827 876
f 1039 1037 827
f 1217 1248 151
f 1037 1217 151
f 1039 1217 1037
f 1248 1217 1391
f 1248 1391 1422
f 1422 1391 67
f 1422 67 102
f 102 67 249
f 102 249 298
f 298 249 447
f 298 447 504
f 504 447 653
f 504 653 706
f 348 904 851
f 348 851 152
f 653 348 152
f 706 653 152
f 904 156 851
f 349 153 157
f 349 345 153
f 405 470 346
f 613 154 470
f 405 613 470
f 615 613 405
f 829 876 155
f 613 829 155
f 615 829 613
f 347 876 829
f 350 908 904
f 350 904 348
f 156 904 158
f 158 904 908
f 372 349 456
f 349 159 456
f 349 157 159
f 351 372 456
f 654 352 714
f 908 350 654
f 908 654 714
f 852 908 714
f 160 852 714
f 158 908 852
f 370 456 159
f 574 351 666
f 666 351 161
f 351 456 161
f 456 370 161
f 353 574 666
f 448 354 512
f 714 352 448
f 714 448 512
f 652 714 512
f 162 652 512
f 160 714 652
f 572 666 161
f 666 572 353
f 572 776 353
f 572 774 776
f 774 163 1072
f 984 774 1072
f 776 774 984
f 984 1072 1244
f 984 1244 1164
f 1164 1244 1418
f 1164 1418 1340
f 1340 1418 94
f 1340 94 18
f 18 94 280
f 18 280 206
f 206 280 484
f 206 484 406
f 355 406 484
f 1218 356 1258
f 1218 1258 1432
f 1218 1432 1392
f 1392 1432 112
f 1392 112 68
f 68 112 308
f 68 308 250
f 512 354 250
f 512 250 308
f 446 512 308
f 164 446 308
f 162 512 446
f 982 1072 163
f 1162 1244 982
f 982 1244 1072
f 1338 1418 1162
f 1162 1418 1244
f 16 94 1338
f 1338 94 1418
f 165 284 16
f 284 94 16
f 284 280 94
f 488 280 284
f 484 280 488
f 692 616 355
f 484 692 355
f 488 692 484
f 616 692 890
f 616 890 830
f 830 890 1086
f 830 1086 1040
f 1258 356 1040
f 1258 1040 1086
f 1216 1258 1086
f 166 1216 1086
f 1390 1432 1216
f 1216 1432 1258
f 66 112 1390
f 1390 112 1432
f 248 308 66
f 66 308 112
f 164 308 248
f 204 284 165
f 404 488 204
f 204 488 284
f 614 692 404
f 404 692 488
f 828 890 614
f 614 890 692
f 1038 1086 828
f 828 1086 890
f 166 1086 1038
f 1052 997 167
f 1224 1177 1052
f 1052 1177 997
f 1398 1353 1224
f 1224 1353 1177
f 74 31 1398
f 1398 31 1353
f 256 217 74
f 74 217 31
f 256 168 217
f 856 789 169
f 999 1052 167
f 999 167 789
f 357 999 789
f 856 357 789
f 1052 999 1179
f 1052 1179 1224
f 1224 1179 1355
f 1224 1355 1398
f 1398 1355 33
f 1398 33 74
f 74 33 219
f 74 219 256
f 358 460 417
f 358 417 168
f 219 358 168
f 256 219 168
f 460 170 417
f 171 858 169
f 169 858 856
f 357 856 858
f 357 858 359
f 419 460 358
f 360 670 625
f 360 625 170
f 419 360 170
f 460 419 170
f 670 172 625
f 173 860 171
f 171 860 858
f 1058 1000 359
f 858 1058 359
f 860 1058 858
f 361 1000 1058
f 362 672 670
f 362 670 360
f 172 670 174
f 174 670 672
f 790 860 173
f 175 1060 790
f 1060 860 790
f 1060 1058 860
f 1232 1180 361
f 1058 1232 361
f 1060 1232 1058
f 1180 1232 1406
f 1180 1406 1356
f 1356 1406 82
f 1356 82 34
f 34 82 264
f 34 264 220
f 220 264 466
f 220 466 420
f 672 362 420
f 672 420 466
f 626 672 466
f 176 626 466
f 174 672 626
f 998 1060 175
f 1178 1232 998
f 998 1232 1060
f 1354 1406 1178
f 1178 1406 1232
f 32 82 1354
f 1354 82 1406
f 218 264 32
f 32 264 82
f 418 466 218
f 218 466 264
f 176 466 418
f 519 381 313
f 313 381 379
f 381 583 379
f 585 583 381
f 585 797 583
f 799 797 585
f 799 1007 797
f 1009 1007 799
f 1009 1185 1007
f 1187 1185 1009
f 314 1185 1427
f 1185 1361 1427
f 1185 1187 1361
f 1361 520 1427
f 521 183 315
f 315 183 181
f 313 181 183
f 313 183 519
f 1427 1359 314
f 520 37 109
f 520 109 316
f 1427 520 316
f 1359 1427 316
f 37 522 109
f 523 315 317
f 523 521 315
f 109 35 316
f 109 522 35
f 522 318 35
f 522 524 318
f 525 317 319
f 525 523 317
f 318 526 320
f 524 526 318
f 527 319 321
f 527 525 319
f 36 117 322
f 36 320 117
f 320 528 117
f 320 526 528
f 529 321 323
f 529 527 321
f 1362 530 324
f 1362 324 1360
f 117 38 322
f 38 1360 322
f 38 1362 1360
f 117 528 38
f 323 182 529
f 529 182 184
f 531 184 182
f 531 182 325
f 1188 532 326
f 1188 326 1186
f 1186 324 1188
f 1188 324 530
f 325 380 531
f 531 380 382
f 584 382 380
f 584 586 382
f 798 586 584
f 798 800 586
f 1008 800 798
f 1008 1010 800
f 1008 326 1010
f 1010 326 532
f 533 191 269
f 269 191 471
f 471 191 391
f 471 391 677
f 677 391 601
f 677 601 877
f 877 601 815
f 877 815 327
f 815 1023 327
f 815 1025 1023
f 1025 1201 1023
f 1203 1201 1025
f 1203 1375 1201
f 1377 1375 1203
f 1377 51 1375
f 53 51 1377
f 53 233 51
f 235 233 53
f 235 431 233
f 433 431 235
f 433 534 431
f 431 534 328
f 535 3 89
f 533 269 3
f 3 269 89
f 269 189 89
f 189 329 89
f 471 389 189
f 471 189 269
f 677 599 389
f 677 389 471
f 877 813 599
f 877 599 677
f 877 327 813
f 637 328 534
f 637 534 639
f 910 841 536
f 841 639 536
f 841 637 639
f 910 330 841
f 1 331 89
f 331 535 89
f 331 537 535
f 89 329 1
f 538 914 910
f 538 910 536
f 330 910 332
f 332 910 914
f 539 331 333
f 539 537 331
f 540 918 914
f 540 914 538
f 332 914 334
f 334 914 918
f 95 541 2
f 541 333 2
f 541 539 333
f 335 95 2
f 640 542 722
f 918 540 640
f 722 918 640
f 920 918 722
f 334 918 336
f 336 918 920
f 95 4 541
f 287 543 190
f 190 543 335
f 543 4 335
f 4 95 335
f 390 491 287
f 390 287 190
f 600 695 491
f 600 491 390
f 814 893 695
f 814 695 600
f 337 893 814
f 54 544 338
f 54 338 52
f 234 54 52
f 234 236 54
f 432 236 234
f 432 434 236
f 542 434 722
f 434 638 722
f 434 432 638
f 842 920 638
f 638 920 722
f 336 920 842
f 287 192 543
f 192 287 392
f 392 287 491
f 392 491 602
f 602 491 695
f 602 695 816
f 816 695 893
f 337 1024 893
f 1024 816 893
f 1024 1026 816
f 1202 1026 1024
f 1202 1204 1026
f 1376 1204 1202
f 1376 1378 1204
f 1376 338 1378
f 1378 338 544
f 545 985 1055
f 1055 985 1227
f 1227 985 1165
f 1227 1165 1401
f 1401 1165 1341
f 1401 1341 77
f 77 1341 19
f 19 546 77
f 547 777 859
f 545 1055 777
f 777 1055 859
f 1055 983 859
f 983 339 859
f 1227 1163 983
f 1227 983 1055
f 1401 1339 1163
f 1401 1163 1227
f 79 340 1339
f 1401 79 1339
f 77 79 1401
f 77 546 79
f 79 546 548
f 656 573 341
f 549 547 656
f 547 775 656
f 775 573 656
f 547 859 775
f 859 339 775
f 79 17 340
f 79 548 17
f 548 342 17
f 548 550 342
f 656 341 575
f 341 551 575
f 341 343 551
f 549 656 575
f 342 552 344
f 550 552 342
f 452 371 345
f 343 371 452
f 553 343 452
f 551 343 553
f 554 268 205
f 344 554 205
f 552 554 344
f 268 346 205
f 1074 1039 347
f 1250 1217 1074
f 1074 1217 1039
f 1424 1391 1250
f 1250 1391 1217
f 104 67 1424
f 1424 67 1391
f 300 249 104
f 104 249 67
f 506 447 300
f 300 447 249
f 708 653 506
f 506 653 447
f 708 348 653
f 349 454 345
f 345 454 452
f 553 452 454
f 553 454 555
f 556 270 268
f 556 268 554
f 346 268 405
f 268 472 405
f 268 270 472
f 678 615 472
f 472 615 405
f 878 829 678
f 678 829 615
f 829 878 347
f 878 1074 347
f 878 1076 1074
f 1076 557 1219
f 1250 1076 1219
f 1074 1076 1250
f 1250 1219 1393
f 1250 1393 1424
f 1424 1393 69
f 1424 69 104
f 104 69 251
f 104 251 300
f 300 251 558
f 508 300 558
f 506 300 508
f 712 506 508
f 708 506 712
f 348 708 350
f 350 708 712
f 372 454 349
f 576 555 664
f 664 555 351
f 555 454 351
f 454 372 351
f 576 664 870
f 576 870 778
f 559 778 870
f 20 560 90
f 270 556 20
f 90 270 20
f 272 270 90
f 476 270 272
f 472 270 476
f 682 472 476
f 678 472 682
f 882 678 682
f 878 678 882
f 1080 878 882
f 1076 878 1080
f 557 1076 1080
f 557 1080 561
f 562 510 508
f 562 508 558
f 654 712 352
f 712 510 352
f 712 508 510
f 350 712 654
f 574 664 351
f 353 872 574
f 872 664 574
f 872 870 664
f 1070 986 559
f 870 1070 559
f 872 1070 870
f 986 1070 1242
f 986 1242 1166
f 1166 1242 1416
f 1166 1416 1342
f 90 560 1342
f 1416 90 1342
f 92 90 1416
f 276 90 92
f 272 90 276
f 480 272 276
f 476 272 480
f 686 476 480
f 682 476 686
f 884 682 686
f 882 682 884
f 1082 882 884
f 1080 882 1082
f 1256 1220 561
f 1080 1256 561
f 1082 1256 1080
f 1220 1256 1430
f 1220 1430 1394
f 1394 1430 110
f 1394 110 70
f 70 110 306
f 70 306 252
f 510 562 252
f 510 252 306
f 448 510 306
f 354 448 306
f 352 510 448
f 776 872 353
f 984 1070 776
f 776 1070 872
f 1164 1242 984
f 984 1242 1070
f 1340 1416 1164
f 1164 1416 1242
f 18 92 1340
f 1340 92 1416
f 206 276 18
f 18 276 92
f 406 480 206
f 206 480 276
f 355 688 406
f 688 480 406
f 688 686 480
f 886 686 688
f 884 686 886
f 1084 884 886
f 1082 884 1084
f 1218 1256 356
f 1256 1084 356
f 1256 1082 1084
f 1392 1430 1218
f 1218 1430 1256
f 68 110 1392
f 1392 110 1430
f 250 306 68
f 68 306 110
f 354 306 250
f 616 688 355
f 830 886 616
f 616 886 688
f 1040 1084 830
f 830 1084 886
f 356 1084 1040
f 1054 999 357
f 1226 1179 1054
f 1054 1179 999
f 1400 1355 1226
f 1226 1355 1179
f 76 33 1400
f 1400 33 1355
f 258 219 76
f 76 219 33
f 258 358 219
f 359 1056 357
f 357 1056 1054
f 1228 1054 1056
f 1226 1054 1228
f 1402 1226 1228
f 1400 1226 1402
f 78 1400 1402
f 76 1400 78
f 260 76 78
f 258 76 260
f 358 258 419
f 258 462 419
f 258 260 462
f 462 360 419
f 1000 1056 359
f 361 1230 1000
f 1230 1056 1000
f 1230 1228 1056
f 1404 1228 1230
f 1402 1228 1404
f 80 1402 1404
f 78 1402 80
f 262 78 80
f 260 78 262
f 464 260 262
f 462 260 464
f 360 462 362
f 362 462 464
f 1180 1230 361
f 1356 1404 1180
f 1180 1404 1230
f 34 80 1356
f 1356 80 1404
f 220 262 34
f 34 262 80
f 420 464 220
f 220 464 262
f 362 464 420
f 474 381 519
f 725 587 474
f 587 381 474
f 587 585 381
f 587 799 585
f 801 799 587
f 801 1009 799
f 1011 1009 801
f 1011 1187 1009
f 1189 1187 1011
f 1189 1361 1187
f 1363 1361 1189
f 1363 726 1361
f 1361 726 520
f 274 183 521
f 383 474 519
f 383 519 183
f 727 383 183
f 274 727 183
f 725 474 383
f 37 520 726
f 37 726 39
f 522 37 305
f 37 221 305
f 37 39 221
f 221 728 305
f 274 521 185
f 521 729 185
f 521 523 729
f 727 274 185
f 307 524 522
f 307 522 305
f 305 728 307
f 307 728 730
f 731 523 525
f 731 729 523
f 309 526 524
f 309 524 307
f 307 730 309
f 309 730 732
f 733 525 527
f 733 731 525
f 526 309 222
f 734 526 222
f 528 526 734
f 309 732 222
f 186 733 290
f 733 529 290
f 733 527 529
f 735 186 290
f 1364 736 530
f 1364 530 1362
f 38 1364 1362
f 38 40 1364
f 38 528 40
f 40 528 734
f 184 290 529
f 384 735 498
f 498 735 531
f 735 290 531
f 290 184 531
f 384 498 702
f 384 702 588
f 588 702 900
f 588 900 802
f 802 900 1096
f 802 1096 1012
f 1012 1096 532
f 1188 1012 532
f 1190 1012 1188
f 1188 530 1190
f 1190 530 736
f 382 498 531
f 586 702 382
f 382 702 498
f 800 900 586
f 586 900 702
f 1010 1096 800
f 800 1096 900
f 532 1096 1010
f 737 5 87
f 87 5 533
f 5 191 533
f 5 193 191
f 193 391 191
f 393 391 193
f 393 601 391
f 603 601 393
f 603 815 601
f 817 815 603
f 817 1025 815
f 1027 1025 817
f 1027 1203 1025
f 1205 1203 1027
f 1205 1377 1203
f 1379 1377 1205
f 1379 53 1377
f 55 53 1379
f 55 235 53
f 237 235 55
f 237 433 235
f 435 433 237
f 534 433 711
f 433 641 711
f 433 435 641
f 641 738 711
f 739 1327 1413
f 737 87 1327
f 1327 87 1413
f 87 3 1413
f 3 535 1413
f 87 533 3
f 711 639 534
f 711 738 639
f 738 536 639
f 738 740 536
f 1415 741 1413
f 1413 741 739
f 1413 535 537
f 1413 537 1415
f 536 742 538
f 740 742 536
f 1417 743 1415
f 1415 743 741
f 1415 537 539
f 1415 539 1417
f 538 744 540
f 742 744 538
f 1417 1328 743
f 745 1328 1417
f 539 745 1417
f 541 745 539
f 238 746 310
f 238 310 516
f 238 516 436
f 436 516 542
f 640 436 542
f 642 436 640
f 640 540 642
f 642 540 744
f 97 747 4
f 747 541 4
f 747 745 541
f 543 97 4
f 56 748 544
f 56 544 54
f 746 56 310
f 56 236 310
f 56 54 236
f 434 516 236
f 236 516 310
f 542 516 434
f 97 6 747
f 291 749 192
f 192 749 543
f 749 6 543
f 6 97 543
f 392 495 291
f 392 291 192
f 602 699 495
f 602 495 392
f 816 897 699
f 816 699 602
f 1026 1093 897
f 1026 897 816
f 1206 750 1093
f 1026 1206 1093
f 1204 1206 1026
f 1378 1206 1204
f 1378 1380 1206
f 1378 544 1380
f 1380 544 748
f 291 194 749
f 194 291 394
f 394 291 495
f 394 495 604
f 604 495 699
f 604 699 818
f 818 699 897
f 818 897 1028
f 1028 897 1093
f 1093 750 1028
f 751 987 1053
f 1053 987 1225
f 1225 987 1167
f 1225 1167 1399
f 1399 1167 1343
f 1399 1343 75
f 75 1343 21
f 21 752 75
f 753 779 857
f 751 1053 779
f 779 1053 857
f 1053 985 857
f 985 545 857
f 1225 1165 985
f 1225 985 1053
f 1399 1341 1165
f 1399 1165 1225
f 75 19 1341
f 75 1341 1399
f 752 207 259
f 752 259 546
f 75 752 546
f 19 75 546
f 259 207 461
f 461 207 407
f 407 754 461
f 777 547 857
f 547 753 857
f 547 755 753
f 857 545 777
f 261 548 546
f 261 546 259
f 259 463 261
f 259 461 463
f 461 754 463
f 463 754 756
f 757 547 549
f 757 755 547
f 263 550 548
f 263 548 261
f 261 465 263
f 261 463 465
f 463 756 465
f 465 756 758
f 658 575 551
f 549 575 658
f 759 549 658
f 757 549 759
f 265 552 550
f 265 550 263
f 760 265 408
f 265 465 408
f 265 263 465
f 465 758 408
f 553 660 551
f 551 660 658
f 759 658 660
f 759 660 761
f 552 265 208
f 762 552 208
f 554 552 762
f 265 760 208
f 555 662 553
f 553 662 660
f 868 780 761
f 660 868 761
f 662 868 660
f 763 780 868
f 22 764 88
f 88 556 22
f 556 762 22
f 556 554 762
f 1252 1219 557
f 1426 1393 1252
f 1252 1393 1219
f 106 69 1426
f 1426 69 1393
f 302 251 106
f 106 251 69
f 302 558 251
f 576 662 555
f 778 868 576
f 576 868 662
f 988 763 1068
f 1068 763 559
f 763 868 559
f 868 778 559
f 988 1068 1240
f 988 1240 1168
f 1168 1240 1414
f 1168 1414 1344
f 88 764 1344
f 88 1344 1414
f 20 88 1414
f 560 20 1414
f 556 88 20
f 561 1254 557
f 557 1254 1252
f 1428 1252 1254
f 1426 1252 1428
f 108 1426 1428
f 106 1426 108
f 304 106 108
f 302 106 304
f 558 302 562
f 562 302 304
f 986 1068 559
f 1166 1240 986
f 986 1240 1068
f 1342 1414 1166
f 1166 1414 1240
f 560 1414 1342
f 1220 1254 561
f 1394 1428 1220
f 1220 1428 1254
f 70 108 1394
f 1394 108 1428
f 252 304 70
f 70 304 108
f 562 304 252
f 680 587 725
f 880 801 680
f 680 801 587
f 1078 1011 880
f 880 1011 801
f 923 1191 1078
f 1191 1011 1078
f 1191 1189 1011
f 1191 1363 1189
f 1365 1363 1191
f 726 1363 107
f 1363 41 107
f 1363 1365 41
f 107 41 303
f 303 41 223
f 223 924 303
f 478 383 727
f 589 680 725
f 589 725 383
f 925 589 383
f 478 925 383
f 680 589 803
f 680 803 880
f 880 803 1013
f 880 1013 1078
f 923 1078 1013
f 107 39 726
f 303 221 39
f 303 39 107
f 924 421 511
f 924 511 728
f 303 924 728
f 221 303 728
f 511 421 715
f 715 421 627
f 715 627 913
f 913 627 831
f 831 926 913
f 278 185 729
f 385 478 727
f 385 727 185
f 927 385 185
f 278 927 185
f 925 478 385
f 513 730 728
f 513 728 511
f 511 717 513
f 511 715 717
f 715 917 717
f 715 913 917
f 913 926 917
f 917 926 928
f 731 282 729
f 729 282 278
f 927 278 282
f 927 282 929
f 515 732 730
f 515 730 513
f 930 515 628
f 515 717 628
f 515 513 717
f 628 717 832
f 832 717 917
f 917 928 832
f 733 286 731
f 731 286 282
f 929 282 286
f 929 286 931
f 224 932 734
f 224 734 222
f 515 422 732
f 422 222 732
f 422 224 222
f 515 930 422
f 186 286 733
f 386 931 494
f 494 931 735
f 931 286 735
f 286 186 735
f 386 494 698
f 386 698 590
f 933 590 698
f 1014 934 1092
f 1014 1092 1264
f 1014 1264 1192
f 1192 1264 736
f 1364 1192 736
f 1366 1192 1364
f 40 1366 1364
f 40 42 1366
f 40 734 42
f 42 734 932
f 384 494 735
f 588 698 384
f 384 698 494
f 698 588 933
f 588 804 933
f 588 802 804
f 934 804 1092
f 804 1012 1092
f 804 802 1012
f 1190 1264 1012
f 1012 1264 1092
f 736 1264 1190
f 935 563 659
f 659 563 865
f 865 563 765
f 865 765 1063
f 1063 765 973
f 973 936 1063
f 937 1329 1409
f 1409 1329 85
f 85 1329 7
f 85 7 267
f 267 7 195
f 267 195 469
f 469 195 395
f 395 938 469
f 939 1381 1423
f 1423 1381 103
f 103 1381 57
f 103 57 299
f 299 57 239
f 299 239 505
f 505 239 437
f 505 437 707
f 707 437 643
f 643 940 707
f 661 941 659
f 659 941 935
f 659 867 661
f 659 865 867
f 865 1065 867
f 865 1063 1065
f 1153 1237 936
f 1237 1063 936
f 1237 1065 1063
f 937 1409 1153
f 1409 1237 1153
f 1409 1411 1237
f 85 5 737
f 1411 85 737
f 1409 85 1411
f 267 193 5
f 267 5 85
f 469 393 193
f 469 193 267
f 393 469 938
f 605 393 938
f 603 393 605
f 605 817 603
f 819 817 605
f 819 1027 817
f 1029 1027 819
f 1029 1205 1027
f 1207 1205 1029
f 1207 939 1423
f 1379 1207 1423
f 1205 1207 1379
f 103 55 1379
f 103 1379 1423
f 299 237 55
f 299 55 103
f 505 435 237
f 505 237 299
f 707 641 435
f 707 435 505
f 940 843 907
f 940 907 738
f 707 940 738
f 641 707 738
f 843 942 907
f 661 564 941
f 564 661 943
f 661 869 943
f 661 867 869
f 867 1067 869
f 867 1065 1067
f 1065 1239 1067
f 1065 1237 1239
f 1411 1327 739
f 1239 1411 739
f 1237 1411 1239
f 1411 737 1327
f 911 740 738
f 911 738 907
f 907 942 911
f 911 942 944
f 869 766 943
f 766 869 974
f 974 869 1067
f 974 1067 945
f 1067 1241 945
f 1067 1239 1241
f 1239 739 741
f 1239 741 1241
f 740 911 844
f 946 740 844
f 742 740 946
f 911 944 844
f 1243 947 1241
f 1241 947 945
f 1241 741 743
f 1241 743 1243
f 644 948 718
f 718 744 644
f 744 946 644
f 744 742 946
f 1243 1154 947
f 1419 949 1328
f 1328 949 743
f 949 1154 743
f 1154 1243 743
f 745 1419 1328
f 58 950 114
f 58 114 746
f 238 58 746
f 240 58 238
f 436 240 238
f 436 438 240
f 948 438 718
f 438 642 718
f 438 436 642
f 744 718 642
f 1419 1330 949
f 951 1330 1419
f 745 951 1419
f 747 951 745
f 748 56 114
f 950 748 114
f 952 748 950
f 746 114 56
f 99 953 6
f 953 747 6
f 953 951 747
f 749 99 6
f 1206 1265 750
f 1382 954 1265
f 1206 1382 1265
f 1380 1382 1206
f 1380 748 1382
f 1382 748 952
f 99 8 953
f 749 194 99
f 194 8 99
f 194 196 8
f 394 499 955
f 196 394 955
f 194 394 196
f 604 703 499
f 604 499 394
f 820 956 703
f 604 820 703
f 818 820 604
f 1028 820 818
f 1028 1030 820
f 1265 1208 750
f 1208 1028 750
f 1208 1030 1028
f 1265 954 1208
f 499 396 955
f 396 499 606
f 606 499 703
f 703 956 606
f 957 989 1051
f 1051 989 1223
f 1223 989 1169
f 1223 1169 1397
f 1397 1169 1345
f 1397 1345 73
f 73 1345 23
f 23 958 73
f 959 781 855
f 957 1051 781
f 781 1051 855
f 1051 987 855
f 987 751 855
f 1223 1167 987
f 1223 987 1051
f 1397 1343 1167
f 1397 1167 1223
f 73 21 1343
f 73 1343 1397
f 958 209 257
f 958 257 752
f 73 958 752
f 21 73 752
f 257 209 459
f 459 209 409
f 409 960 459
f 779 753 855
f 753 959 855
f 753 961 959
f 855 751 779
f 257 207 752
f 459 407 207
f 459 207 257
f 960 617 669
f 960 669 754
f 459 960 754
f 407 459 754
f 617 962 669
f 963 753 755
f 963 961 753
f 671 756 754
f 671 754 669
f 669 962 671
f 671 962 964
f 965 755 757
f 965 963 755
f 673 758 756
f 673 756 671
f 671 964 673
f 673 964 966
f 967 757 759
f 967 965 757
f 410 968 760
f 410 760 408
f 673 618 758
f 618 408 758
f 618 410 408
f 673 966 618
f 969 759 761
f 969 967 759
f 210 970 762
f 210 762 208
f 208 760 210
f 210 760 968
f 761 780 969
f 969 780 782
f 971 782 780
f 971 780 763
f 24 972 764
f 24 764 22
f 22 762 24
f 24 762 970
f 763 988 971
f 971 988 990
f 1168 990 988
f 1168 1170 990
f 1344 1170 1168
f 1344 1346 1170
f 1344 764 1346
f 1346 764 972
f 1105 1193 923
f 923 1193 1191
f 1193 1365 1191
f 1367 1365 1193
f 1367 41 1365
f 43 41 1367
f 43 223 41
f 225 223 43
f 924 223 509
f 223 423 509
f 223 225 423
f 509 423 713
f 713 423 629
f 713 629 909
f 909 629 833
f 833 1106 909
f 684 589 925
f 1107 805 684
f 805 589 684
f 805 803 589
f 805 1013 803
f 1015 1013 805
f 923 1013 1015
f 923 1015 1105
f 509 421 924
f 713 627 421
f 713 421 509
f 909 831 627
f 909 627 713
f 1106 1041 1099
f 1106 1099 926
f 909 1106 926
f 831 909 926
f 1041 1108 1099
f 482 385 927
f 591 684 925
f 591 925 385
f 1109 591 385
f 482 1109 385
f 1107 684 591
f 1101 928 926
f 1101 926 1099
f 1099 1108 1101
f 1101 1108 1110
f 929 486 927
f 927 486 482
f 1109 482 486
f 1109 486 1111
f 628 721 930
f 832 919 721
f 832 721 628
f 1101 1042 928
f 928 1042 832
f 1042 1112 832
f 1112 919 832
f 1101 1110 1042
f 931 490 929
f 929 490 486
f 694 592 1111
f 486 694 1111
f 490 694 486
f 1113 592 694
f 44 1114 118
f 44 118 932
f 224 44 932
f 226 44 224
f 422 226 224
f 422 424 226
f 721 630 930
f 630 422 930
f 630 424 422
f 630 721 834
f 834 721 919
f 919 1112 834
f 386 490 931
f 590 694 386
f 386 694 490
f 806 1113 896
f 896 1113 933
f 1113 694 933
f 694 590 933
f 806 896 934
f 1014 806 934
f 1016 806 1014
f 1192 1016 1014
f 1192 1194 1016
f 1366 1194 1192
f 1366 1368 1194
f 1114 1368 118
f 1368 42 118
f 1368 1366 42
f 932 118 42
f 804 896 933
f 934 896 804
f 1115 565 657
f 657 565 863
f 863 565 767
f 863 767 1061
f 1061 767 975
f 1061 975 1233
f 1233 975 1155
f 1155 1116 1233
f 1117 59 101
f 101 59 297
f 297 59 241
f 297 241 503
f 503 241 439
f 503 439 705
f 705 439 645
f 645 1118 705
f 1119 363 451
f 1115 657 363
f 363 657 451
f 657 563 451
f 563 935 451
f 863 765 563
f 863 563 657
f 1061 973 765
f 1061 765 863
f 1235 936 973
f 1061 1235 973
f 1233 1235 1061
f 1331 1329 937
f 1233 1331 937
f 1235 1233 937
f 1116 1331 1233
f 1331 7 1329
f 9 7 1331
f 9 195 7
f 197 195 9
f 197 395 195
f 397 395 197
f 938 395 675
f 395 607 675
f 395 397 607
f 675 607 875
f 875 607 821
f 875 821 1073
f 1073 821 1031
f 1073 1031 1249
f 1249 1031 1209
f 1249 1209 939
f 1209 1381 939
f 1209 1383 1381
f 1383 1117 101
f 57 1383 101
f 1381 1383 57
f 297 239 57
f 297 57 101
f 503 437 239
f 503 239 297
f 705 643 437
f 705 437 503
f 1118 845 903
f 1118 903 940
f 705 1118 940
f 643 705 940
f 845 1120 903
f 453 1121 451
f 451 1121 1119
f 451 935 941
f 451 941 453
f 1235 1153 936
f 1235 937 1153
f 675 605 938
f 875 819 605
f 875 605 675
f 1073 1029 819
f 1073 819 875
f 1249 1207 1029
f 1249 1029 1073
f 1249 939 1207
f 903 843 940
f 903 1120 843
f 1120 942 843
f 1120 1122 942
f 453 364 1121
f 663 1123 564
f 564 1123 941
f 1123 364 941
f 364 453 941
f 943 663 564
f 942 1124 944
f 1122 1124 942
f 663 566 1123
f 871 1125 766
f 766 1125 943
f 1125 566 943
f 566 663 943
f 974 1069 871
f 974 871 766
f 945 1069 974
f 844 915 946
f 844 944 915
f 944 1126 915
f 944 1124 1126
f 871 768 1125
f 768 871 1127
f 871 1071 1127
f 871 1069 1071
f 1069 945 947
f 1069 947 1071
f 644 719 948
f 915 846 946
f 946 846 644
f 846 1128 644
f 1128 719 644
f 915 1126 846
f 1071 976 1127
f 947 1154 1071
f 1154 976 1071
f 1154 1156 976
f 1129 1156 1154
f 1129 1154 949
f 58 115 950
f 242 1130 115
f 58 242 115
f 240 242 58
f 438 242 240
f 438 440 242
f 719 646 948
f 646 438 948
f 646 440 438
f 719 1128 646
f 949 1330 1129
f 1129 1330 1332
f 1131 1332 1330
f 1131 1330 951
f 950 115 60
f 1132 950 60
f 952 950 1132
f 115 1130 60
f 1133 951 953
f 1133 1131 951
f 1384 1134 954
f 1384 954 1382
f 1382 952 1384
f 1384 952 1132
f 953 8 1133
f 1133 8 10
f 196 293 1135
f 10 196 1135
f 8 196 10
f 955 293 196
f 822 1136 956
f 822 956 820
f 1030 822 820
f 1030 1032 822
f 1208 1032 1030
f 1208 1210 1032
f 1208 954 1210
f 1210 954 1134
f 293 198 1135
f 955 396 293
f 396 198 293
f 396 398 198
f 606 398 396
f 606 608 398
f 606 956 608
f 608 956 1136
f 1137 991 1049
f 1049 991 1221
f 1221 991 1171
f 1221 1171 1395
f 1395 1171 1347
f 1347 1138 1395
f 1139 783 853
f 1137 1049 783
f 783 1049 853
f 1049 989 853
f 989 957 853
f 1221 1169 989
f 1221 989 1049
f 1395 1345 1169
f 1395 1169 1221
f 1345 1395 1138
f 25 1345 1138
f 23 1345 25
f 958 23 255
f 23 211 255
f 23 25 211
f 255 211 457
f 457 211 411
f 411 1140 457
f 781 959 853
f 959 1139 853
f 959 1141 1139
f 853 957 781
f 255 209 958
f 457 409 209
f 457 209 255
f 1140 619 667
f 1140 667 960
f 457 1140 960
f 409 457 960
f 619 1142 667
f 1143 959 961
f 1143 1141 959
f 667 617 960
f 667 1142 617
f 1142 962 617
f 1142 1144 962
f 1145 961 963
f 1145 1143 961
f 962 1146 964
f 1144 1146 962
f 1147 963 965
f 1147 1145 963
f 964 1148 966
f 1146 1148 964
f 1149 965 967
f 1149 1147 965
f 410 467 968
f 620 1150 467
f 410 620 467
f 618 620 410
f 618 966 620
f 620 966 1148
f 784 1149 866
f 1149 969 866
f 1149 967 969
f 1151 784 866
f 212 1152 970
f 212 970 210
f 467 412 968
f 412 210 968
f 412 212 210
f 467 1150 412
f 782 866 969
f 992 1151 1066
f 1066 1151 971
f 1151 866 971
f 866 782 971
f 992 1066 1238
f 992 1238 1172
f 1172 1238 1412
f 1172 1412 1348
f 1348 1412 972
f 24 1348 972
f 26 1348 24
f 24 970 26
f 26 970 1152
f 990 1066 971
f 1170 1238 990
f 990 1238 1066
f 1346 1412 1170
f 1170 1412 1238
f 972 1412 1346
f 1267 373 481
f 481 373 687
f 687 373 577
f 687 577 885
f 885 577 791
f 885 791 1083
f 1083 791 1001
f 1001 1268 1083
f 485 1269 481
f 481 1269 1267
f 481 689 485
f 481 687 689
f 687 887 689
f 687 885 887
f 885 1085 887
f 885 1083 1085
f 1083 1268 1085
f 1085 1268 1270
f 489 1271 485
f 485 1271 1269
f 485 693 489
f 485 689 693
f 689 891 693
f 689 887 891
f 887 1087 891
f 887 1085 1087
f 1085 1270 1087
f 1087 1270 1272
f 489 374 1271
f 374 489 578
f 578 489 693
f 578 693 792
f 792 693 891
f 792 891 1002
f 1002 891 1087
f 1087 1272 1002
f 1273 227 301
f 301 227 507
f 507 227 425
f 507 425 709
f 709 425 631
f 709 631 905
f 905 631 835
f 835 1274 905
f 1275 1017 1079
f 1079 1017 1105
f 1017 1193 1105
f 1017 1195 1193
f 1195 1367 1193
f 1369 1367 1195
f 1369 43 1367
f 45 43 1369
f 45 1273 301
f 225 45 301
f 43 45 225
f 507 423 225
f 507 225 301
f 709 629 423
f 709 423 507
f 905 833 629
f 905 629 709
f 1274 1043 1097
f 1274 1097 1106
f 905 1274 1106
f 833 905 1106
f 1043 1276 1097
f 1277 807 1107
f 1107 807 805
f 807 1275 1079
f 1015 807 1079
f 805 807 1015
f 1079 1105 1015
f 1097 1041 1106
f 1097 1276 1041
f 1276 1108 1041
f 1276 1278 1108
f 1279 593 1109
f 1109 593 591
f 1107 591 593
f 1107 593 1277
f 1108 1280 1110
f 1278 1280 1108
f 594 1279 690
f 1279 1111 690
f 1279 1109 1111
f 1281 594 690
f 1042 1103 1112
f 1042 1110 1103
f 1110 1282 1103
f 1110 1280 1282
f 592 690 1111
f 808 1281 892
f 892 1281 1113
f 1281 690 1113
f 690 592 1113
f 808 892 1088
f 808 1088 1018
f 1283 1018 1088
f 46 1284 1114
f 46 1114 44
f 226 311 1285
f 46 226 1285
f 44 226 46
f 424 517 311
f 424 311 226
f 630 723 517
f 630 517 424
f 834 921 723
f 834 723 630
f 1103 1044 1112
f 1112 1044 834
f 1044 1286 834
f 1286 921 834
f 1103 1282 1044
f 806 892 1113
f 1016 1088 806
f 806 1088 892
f 1088 1016 1283
f 1016 1196 1283
f 1016 1194 1196
f 1368 1196 1194
f 1368 1370 1196
f 1368 1114 1370
f 1370 1114 1284
f 311 228 1285
f 228 311 426
f 426 311 517
f 426 517 632
f 632 517 723
f 632 723 836
f 836 723 921
f 921 1286 836
f 1287 769 861
f 861 769 1059
f 1059 769 977
f 977 1288 1059
f 1289 441 501
f 441 1290 501
f 1291 365 449
f 449 365 1115
f 365 565 1115
f 365 567 565
f 567 1287 861
f 767 567 861
f 565 567 767
f 1059 975 767
f 1059 767 861
f 975 1059 1288
f 1157 975 1288
f 1155 975 1157
f 1116 1155 1407
f 1155 1333 1407
f 1155 1157 1333
f 1407 1333 83
f 83 1333 11
f 11 1292 83
f 1293 1385 1421
f 1421 1385 1117
f 1385 59 1117
f 1385 61 59
f 61 241 59
f 243 241 61
f 243 1289 501
f 439 243 501
f 241 243 439
f 439 501 1290
f 647 439 1290
f 645 439 647
f 1118 645 901
f 645 847 901
f 645 647 847
f 847 1294 901
f 363 1119 449
f 1119 1291 449
f 1119 1295 1291
f 449 1115 363
f 1407 1331 1116
f 83 9 1331
f 83 1331 1407
f 9 83 1292
f 199 9 1292
f 197 9 199
f 199 397 197
f 399 397 199
f 399 607 397
f 609 607 399
f 609 821 607
f 823 821 609
f 823 1031 821
f 1033 1031 823
f 1033 1209 1031
f 1211 1209 1033
f 1211 1293 1421
f 1383 1211 1421
f 1209 1211 1383
f 1421 1117 1383
f 901 845 1118
f 901 1294 845
f 1294 1120 845
f 1294 1296 1120
f 1297 1119 1121
f 1297 1295 1119
f 1120 1298 1122
f 1296 1298 1120
f 455 1299 364
f 1299 1121 364
f 1299 1297 1121
f 1123 455 364
f 1122 1300 1124
f 1298 1300 1122
f 455 366 1299
f 665 1301 566
f 566 1301 1123
f 1301 366 1123
f 366 455 1123
f 1125 665 566
f 1124 1302 1126
f 1300 1302 1124
f 665 568 1301
f 873 1303 768
f 768 1303 1125
f 1303 568 1125
f 568 665 1125
f 1127 873 768
f 848 1304 1128
f 848 1128 846
f 846 1126 848
f 848 1126 1302
f 873 770 1303
f 1127 976 873
f 976 770 873
f 976 978 770
f 1156 1245 1305
f 978 1156 1305
f 976 1156 978
f 1129 1245 1156
f 244 1306 1130
f 244 1130 242
f 440 244 242
f 440 442 244
f 646 442 440
f 646 648 442
f 646 1128 648
f 648 1128 1304
f 1245 1158 1305
f 1129 1332 1245
f 1332 1158 1245
f 1332 1334 1158
f 1307 1334 1332
f 1307 1332 1131
f 1386 1308 1436
f 1386 1436 1132
f 60 1386 1132
f 62 1386 60
f 60 1130 62
f 62 1130 1306
f 12 1307 100
f 1307 1133 100
f 1307 1131 1133
f 1309 12 100
f 1034 1310 1094
f 1034 1094 1266
f 1034 1266 1212
f 1436 1308 1212
f 1436 1212 1266
f 1384 1436 1266
f 1134 1384 1266
f 1132 1436 1384
f 10 100 1133
f 200 1309 294
f 294 1309 1135
f 1309 100 1135
f 100 10 1135
f 200 294 500
f 200 500 400
f 400 500 704
f 400 704 610
f 610 704 1136
f 822 610 1136
f 824 610 822
f 1310 824 1094
f 824 1032 1094
f 824 822 1032
f 1210 1266 1032
f 1032 1266 1094
f 1134 1266 1210
f 198 294 1135
f 398 500 198
f 198 500 294
f 608 704 398
f 398 704 500
f 1136 704 608
f 1311 993 1137
f 1137 993 991
f 993 1171 991
f 1173 1171 993
f 1173 1347 1171
f 1349 1347 1173
f 1138 1347 71
f 1347 27 71
f 1347 1349 27
f 71 27 253
f 253 27 213
f 213 1312 253
f 1313 785 1139
f 1139 785 783
f 1137 783 785
f 1137 785 1311
f 71 25 1138
f 253 211 25
f 253 25 71
f 211 253 1312
f 413 211 1312
f 411 211 413
f 413 1314 411
f 411 1314 1140
f 1315 1139 1141
f 1315 1313 1139
f 619 1140 1314
f 619 1314 621
f 621 1316 619
f 619 1316 1142
f 1317 1141 1143
f 1317 1315 1141
f 1142 1318 1144
f 1316 1318 1142
f 1319 1143 1145
f 1319 1317 1143
f 1144 1320 1146
f 1318 1320 1144
f 1321 1145 1147
f 1321 1319 1145
f 1146 1322 1148
f 1320 1322 1146
f 1323 1147 1149
f 1323 1321 1147
f 622 1324 1150
f 622 1150 620
f 620 1148 622
f 622 1148 1322
f 1149 784 1323
f 1323 784 786
f 1325 786 784
f 1325 784 1151
f 28 1326 86
f 28 86 1152
f 212 28 1152
f 214 28 212
f 412 214 212
f 412 414 214
f 412 1150 414
f 414 1150 1324
f 1151 992 1325
f 1325 992 994
f 1172 994 992
f 1172 1174 994
f 1348 1174 1172
f 1348 1350 1174
f 1326 1350 86
f 1350 26 86
f 1350 1348 26
f 1152 86 26
f 1437 375 477
f 477 375 683
f 683 375 579
f 683 579 883
f 883 579 793
f 883 793 1081
f 1081 793 1003
f 1003 1438 1081
f 1439 177 277
f 1437 477 177
f 177 477 277
f 477 373 277
f 373 1267 277
f 683 577 373
f 683 373 477
f 883 791 577
f 883 577 683
f 1081 1001 791
f 1081 791 883
f 1438 1181 1257
f 1438 1257 1268
f 1081 1438 1268
f 1001 1081 1268
f 1181 1440 1257
f 281 1441 277
f 277 1441 1439
f 277 1267 1269
f 277 1269 281
f 1259 1270 1268
f 1259 1268 1257
f 1257 1440 1259
f 1259 1440 1442
f 285 1443 281
f 281 1443 1441
f 281 1269 1271
f 281 1271 285
f 1261 1272 1270
f 1261 1270 1259
f 1259 1442 1261
f 1261 1442 1444
f 285 178 1443
f 493 1445 374
f 374 1445 1271
f 1445 178 1271
f 178 285 1271
f 578 697 493
f 578 493 374
f 792 895 697
f 792 697 578
f 1002 1091 895
f 1002 895 792
f 1261 1182 1272
f 1272 1182 1002
f 1182 1446 1002
f 1446 1091 1002
f 1261 1444 1182
f 493 376 1445
f 376 493 580
f 580 493 697
f 580 697 794
f 794 697 895
f 794 895 1004
f 1004 895 1091
f 1091 1446 1004
f 1447 1197 1251
f 1251 1197 1425
f 1425 1197 1371
f 1425 1371 105
f 105 1371 47
f 105 47 1273
f 47 227 1273
f 47 229 227
f 229 425 227
f 427 425 229
f 427 631 425
f 633 631 427
f 633 835 631
f 837 835 633
f 837 1448 835
f 835 1448 1274
f 1449 1019 1275
f 1275 1019 1017
f 1019 1447 1251
f 1195 1019 1251
f 1017 1019 1195
f 1425 1369 1195
f 1425 1195 1251
f 105 45 1369
f 105 1369 1425
f 105 1273 45
f 1043 1274 1448
f 1043 1448 1045
f 1045 1450 1043
f 1043 1450 1276
f 1451 809 1277
f 1277 809 807
f 1275 807 809
f 1275 809 1449
f 1276 1452 1278
f 1450 1452 1276
f 1453 595 1279
f 1279 595 593
f 1277 593 595
f 1277 595 1451
f 1278 1454 1280
f 1452 1454 1278
f 1279 594 1453
f 1453 594 596
f 594 1281 888
f 810 594 888
f 596 594 810
f 1455 810 888
f 1280 1456 1282
f 1454 1456 1280
f 808 888 1281
f 888 808 1455
f 808 1020 1455
f 808 1018 1020
f 1457 1020 1018
f 1457 1018 1283
f 46 119 1284
f 1285 119 46
f 1046 1458 1286
f 1046 1286 1044
f 1044 1282 1046
f 1046 1282 1456
f 1283 1196 1457
f 1457 1196 1198
f 1370 1198 1196
f 1370 1372 1198
f 119 48 1284
f 48 1370 1284
f 48 1372 1370
f 1285 228 119
f 228 48 119
f 228 230 48
f 426 230 228
f 426 428 230
f 632 428 426
f 632 634 428
f 836 634 632
f 836 838 634
f 836 1286 838
f 838 1286 1458
f 1459 569 655
f 655 569 1287
f 569 769 1287
f 569 771 769
f 771 977 769
f 979 977 771
f 1288 977 1231
f 977 1159 1231
f 977 979 1159
f 1159 1460 1231
f 1461 245 295
f 295 245 1289
f 245 441 1289
f 245 443 441
f 443 1462 441
f 441 1462 1290
f 1463 367 1291
f 1291 367 365
f 367 1459 655
f 567 367 655
f 365 367 567
f 655 1287 567
f 1231 1157 1288
f 1157 1231 1460
f 1335 1157 1460
f 1333 1157 1335
f 1335 11 1333
f 13 11 1335
f 13 1464 11
f 11 1464 1292
f 1465 1213 1247
f 1247 1213 1293
f 1213 1385 1293
f 1213 1387 1385
f 1387 61 1385
f 63 61 1387
f 63 1461 295
f 243 63 295
f 61 63 243
f 295 1289 243
f 647 1290 1462
f 647 1462 649
f 649 847 647
f 849 847 649
f 849 1466 847
f 847 1466 1294
f 1467 1291 1295
f 1467 1463 1291
f 199 1292 1464
f 199 1464 201
f 201 399 199
f 401 399 201
f 401 609 399
f 611 609 401
f 611 823 609
f 825 823 611
f 825 1033 823
f 1035 1033 825
f 1035 1465 1247
f 1211 1035 1247
f 1033 1035 1211
f 1247 1293 1211
f 1294 1468 1296
f 1466 1468 1294
f 1469 1295 1297
f 1469 1467 1295
f 1296 1470 1298
f 1468 1470 1296
f 1471 1297 1299
f 1471 1469 1297
f 1298 1472 1300
f 1470 1472 1298
f 1299 366 1471
f 1471 366 368
f 1473 368 366
f 1473 366 1301
f 850 1474 916
f 916 1302 850
f 1302 1472 850
f 1302 1300 1472
f 1301 568 1473
f 1473 568 570
f 1475 570 568
f 1475 568 1303
f 650 1476 720
f 916 1474 650
f 916 650 720
f 848 916 720
f 1304 848 720
f 1302 916 848
f 1303 770 1475
f 1475 770 772
f 978 772 770
f 978 980 772
f 1477 980 978
f 1477 978 1305
f 246 1478 1306
f 246 1306 244
f 442 246 244
f 442 444 246
f 1476 444 720
f 444 648 720
f 444 442 648
f 1304 720 648
f 1305 1158 1477
f 1477 1158 1160
f 1334 1160 1158
f 1334 1336 1160
f 1334 1307 98
f 14 1334 98
f 1336 1334 14
f 1479 14 98
f 1214 1480 1262
f 1214 1262 1308
f 1386 1214 1308
f 1388 1214 1386
f 62 1388 1386
f 62 64 1388
f 62 1306 64
f 64 1306 1478
f 12 98 1307
f 202 1479 292
f 292 1479 1309
f 1479 98 1309
f 98 12 1309
f 202 292 496
f 202 496 402
f 402 496 700
f 402 700 612
f 612 700 898
f 612 898 826
f 826 898 1310
f 1034 826 1310
f 1036 826 1034
f 1480 1036 1262
f 1036 1212 1262
f 1036 1034 1212
f 1308 1262 1212
f 200 292 1309
f 400 496 200
f 200 496 292
f 610 700 400
f 400 700 496
f 824 898 610
f 610 898 700
f 1310 898 824
f 1481 995 1311
f 1311 995 993
f 995 1173 993
f 1175 1173 995
f 1175 1349 1173
f 1351 1349 1175
f 1351 27 1349
f 29 27 1351
f 29 213 27
f 215 213 29
f 215 1482 213
f 213 1482 1312
f 1483 787 1313
f 1313 787 785
f 1311 785 787
f 1311 787 1481
f 413 1312 1482
f 413 1482 415
f 415 1484 413
f 413 1484 1314
f 1485 1313 1315
f 1485 1483 1313
f 621 1314 1484
f 621 1484 623
f 623 1486 621
f 621 1486 1316
f 1487 1315 1317
f 1487 1485 1315
f 1316 1488 1318
f 1486 1488 1316
f 1489 1317 1319
f 1489 1487 1317
f 1318 1490 1320
f 1488 1490 1318
f 1491 1319 1321
f 1491 1489 1319
f 1320 1492 1322
f 1490 1492 1320
f 788 1491 864
f 1491 1323 864
f 1491 1321 1323
f 1493 788 864
f 624 1494 1324
f 624 1324 622
f 622 1322 624
f 624 1322 1492
f 786 864 1323
f 996 1493 1064
f 1064 1493 1325
f 1493 864 1325
f 864 786 1325
f 996 1064 1236
f 996 1236 1176
f 1176 1236 1410
f 1176 1410 1352
f 1352 1410 1326
f 28 1352 1326
f 30 1352 28
f 214 30 28
f 214 216 30
f 414 216 214
f 414 416 216
f 414 1324 416
f 416 1324 1494
f 994 1064 1325
f 1174 1236 994
f 994 1236 1064
f 1350 1410 1174
f 1174 1410 1236
f 1326 1410 1350
f 121 377 473
f 473 377 679
f 679 377 581
f 679 581 879
f 879 581 795
f 879 795 1077
f 1077 795 1005
f 1005 122 1077
f 123 179 273
f 121 473 179
f 179 473 273
f 473 375 273
f 375 1437 273
f 679 579 375
f 679 375 473
f 879 793 579
f 879 579 679
f 1077 1003 793
f 1077 793 879
f 122 1183 1255
f 122 1255 1438
f 1077 122 1438
f 1003 1077 1438
f 1183 124 1255
f 177 1439 273
f 1439 123 273
f 1439 125 123
f 273 1437 177
f 1255 1181 1438
f 124 1357 1431
f 124 1431 1440
f 1255 124 1440
f 1181 1255 1440
f 1357 126 1431
f 127 1439 1441
f 127 125 1439
f 1433 1442 1440
f 1433 1440 1431
f 1431 126 1433
f 1433 126 128
f 129 1441 1443
f 129 127 1441
f 1442 1433 1358
f 130 1442 1358
f 1444 1442 130
f 1433 128 1358
f 289 131 178
f 131 1443 178
f 131 129 1443
f 1445 289 178
f 1182 1263 1446
f 1182 1444 1263
f 1444 132 1263
f 1444 130 132
f 289 180 131
f 1445 376 289
f 376 180 289
f 376 378 180
f 580 701 133
f 378 580 133
f 376 580 378
f 794 899 701
f 794 701 580
f 1004 1095 899
f 1004 899 794
f 1263 1184 1446
f 1446 1184 1004
f 1184 134 1004
f 134 1095 1004
f 1263 132 1184
f 701 582 133
f 582 701 796
f 796 701 899
f 796 899 1006
f 1006 899 1095
f 1095 134 1006
f 135 1199 1447
f 1447 1199 1197
f 1199 1371 1197
f 1373 1371 1199
f 1373 47 1371
f 49 47 1373
f 49 229 47
f 231 229 49
f 231 427 229
f 429 427 231
f 429 633 427
f 635 633 429
f 906 837 136
f 837 635 136
f 837 633 635
f 906 1448 837
f 137 811 881
f 881 811 1449
f 811 1019 1449
f 811 1021 1019
f 1447 1019 1021
f 1447 1021 135
f 839 906 136
f 138 1098 1045
f 138 1045 1448
f 839 138 1448
f 906 839 1448
f 1098 1450 1045
f 139 187 275
f 275 187 479
f 479 187 387
f 479 387 685
f 685 387 597
f 137 881 597
f 597 881 685
f 881 809 685
f 809 1451 685
f 881 1449 809
f 1047 1098 138
f 1047 140 1098
f 140 1450 1098
f 140 1452 1450
f 279 141 275
f 275 141 139
f 275 483 279
f 275 479 483
f 685 595 1453
f 483 685 1453
f 479 685 483
f 685 1451 595
f 1452 142 1454
f 140 142 1452
f 279 188 141
f 188 279 143
f 279 487 143
f 279 483 487
f 483 1453 596
f 691 483 596
f 487 483 691
f 810 889 691
f 810 691 596
f 1455 889 810
f 1048 144 1104
f 1104 1456 1048
f 1456 142 1048
f 1456 1454 142
f 487 388 143
f 388 487 598
f 598 487 691
f 598 691 812
f 812 691 889
f 1455 1020 889
f 1020 812 889
f 1020 1022 812
f 145 1022 1020
f 145 1020 1457
f 840 146 922
f 1104 144 840
f 1104 840 922
f 1046 1104 922
f 1458 1046 922
f 1456 1104 1046
f 1457 1198 145
f 145 1198 1200
f 1372 1200 1198
f 1372 1374 1200
f 48 1374 1372
f 48 50 1374
f 230 50 48
f 230 232 50
f 428 232 230
f 428 430 232
f 634 430 428
f 634 636 430
f 146 636 922
f 636 838 922
f 636 634 838
f 1458 922 838
f 147 571 1459
f 1459 571 569
f 571 771 569
f 773 771 571
f 773 979 771
f 981 979 773
f 981 1159 979
f 1161 1159 981
f 1460 1159 1405
f 1159 1337 1405
f 1159 1161 1337
f 1337 148 1405
f 296 245 1461
f 502 443 296
f 296 443 245
f 502 1462 443
f 149 369 1463
f 1463 369 367
f 1459 367 369
f 1459 369 147
f 1405 1335 1460
f 1335 1405 148
f 15 1335 148
f 13 1335 15
f 15 150 13
f 13 150 1464
f 151 1215 1465
f 1465 1215 1213
f 1215 1387 1213
f 1389 1387 1215
f 1389 63 1387
f 65 63 1389
f 247 296 1461
f 63 247 1461
f 65 247 63
f 296 247 445
f 296 445 502
f 649 1462 502
f 445 649 502
f 651 649 445
f 902 849 152
f 849 651 152
f 849 649 651
f 902 1466 849
f 153 1463 1467
f 153 149 1463
f 201 1464 150
f 201 150 203
f 203 401 201
f 403 401 203
f 676 611 154
f 611 403 154
f 611 401 403
f 155 827 676
f 827 611 676
f 827 825 611
f 827 1035 825
f 1037 1035 827
f 1465 1035 1037
f 1465 1037 151
f 851 902 152
f 851 156 902
f 156 1466 902
f 156 1468 1466
f 157 1467 1469
f 157 153 1467
f 613 676 154
f 155 676 613
f 1468 158 1470
f 156 158 1468
f 159 1469 1471
f 159 157 1469
f 852 160 912
f 912 1472 852
f 1472 158 852
f 1472 1470 158
f 1471 368 159
f 159 368 370
f 161 370 368
f 161 368 1473
f 652 162 716
f 912 160 652
f 912 652 716
f 850 912 716
f 1474 850 716
f 1472 912 850
f 1473 570 161
f 161 570 572
f 570 1475 874
f 774 570 874
f 572 570 774
f 163 774 874
f 446 164 514
f 716 162 446
f 716 446 514
f 650 716 514
f 1476 650 514
f 1474 716 650
f 772 874 1475
f 874 772 163
f 772 982 163
f 772 980 982
f 980 1477 1246
f 1162 980 1246
f 982 980 1162
f 1162 1246 1420
f 1162 1420 1338
f 1338 1420 96
f 1338 96 16
f 165 16 96
f 1216 166 1260
f 1216 1260 1434
f 1216 1434 1390
f 1390 1434 116
f 1390 116 66
f 66 116 1478
f 246 66 1478
f 248 66 246
f 164 248 514
f 248 444 514
f 248 246 444
f 1476 514 444
f 1160 1246 1477
f 1336 1420 1160
f 1160 1420 1246
f 14 96 1336
f 1336 96 1420
f 204 165 288
f 288 165 1479
f 165 96 1479
f 96 14 1479
f 204 288 492
f 204 492 404
f 404 492 696
f 404 696 614
f 614 696 894
f 614 894 828
f 828 894 1090
f 828 1090 1038
f 1260 166 1038
f 1260 1038 1090
f 1214 1260 1090
f 1480 1214 1090
f 1388 1434 1214
f 1214 1434 1260
f 64 116 1388
f 1388 116 1434
f 1478 116 64
f 202 288 1479
f 402 492 202
f 202 492 288
f 612 696 402
f 402 696 492
f 826 894 612
f 612 894 696
f 1036 1090 826
f 826 1090 894
f 1480 1090 1036
f 1050 995 1481
f 1222 1175 1050
f 1050 1175 995
f 1396 1351 1222
f 1222 1351 1175
f 72 29 1396
f 1396 29 1351
f 254 215 72
f 72 215 29
f 254 1482 215
f 854 787 1483
f 997 1050 1481
f 997 1481 787
f 167 997 787
f 854 167 787
f 1050 997 1177
f 1050 1177 1222
f 1222 1177 1353
f 1222 1353 1396
f 1396 1353 31
f 1396 31 72
f 72 31 217
f 72 217 254
f 168 458 415
f 168 415 1482
f 217 168 1482
f 254 217 1482
f 458 1484 415
f 854 1483 789
f 1483 169 789
f 1483 1485 169
f 167 854 789
f 417 458 168
f 170 668 623
f 170 623 1484
f 417 170 1484
f 458 417 1484
f 668 1486 623
f 171 1485 1487
f 171 169 1485
f 625 668 170
f 625 172 668
f 172 1486 668
f 172 1488 1486
f 173 1487 1489
f 173 171 1487
f 1488 174 1490
f 172 174 1488
f 790 173 862
f 173 1491 862
f 173 1489 1491
f 175 790 862
f 626 176 674
f 674 1492 626
f 1492 174 626
f 1492 1490 174
f 788 862 1491
f 998 175 1062
f 1062 175 1493
f 175 862 1493
f 862 788 1493
f 998 1062 1234
f 998 1234 1178
f 1178 1234 1408
f 1178 1408 1354
f 1354 1408 84
f 1354 84 32
f 32 84 266
f 32 266 218
f 218 266 468
f 218 468 418
f 674 176 418
f 674 418 468
f 624 674 468
f 1494 624 468
f 1492 674 624
f 996 1062 1493
f 1176 1234 996
f 996 1234 1062
f 1352 1408 1176
f 1176 1408 1234
f 30 84 1352
f 1352 84 1408
f 216 266 30
f 30 266 84
f 416 468 216
f 216 468 266
f 1494 468 416
