# Converted from NanoShaper .vert/.face
v -12.533000 4.912000 3.883000
v -10.490000 4.912000 3.883000
v -13.131000 4.912000 4.383000
v -9.834000 4.912000 4.383000
v -13.337000 4.912000 4.883000
v -9.613000 4.912000 4.883000
v -13.423000 4.912000 5.383000
v -9.583000 4.912000 5.383000
v -13.640000 4.912000 5.883000
v -9.545000 4.912000 5.883000
v -13.817000 4.912000 6.383000
v -9.548000 4.912000 6.383000
v -13.850000 4.912000 6.883000
v -9.564000 4.912000 6.883000
v -13.854000 4.912000 7.383000
v -9.576000 4.912000 7.383000
v -13.675000 4.912000 7.883000
v -9.763000 4.912000 7.883000
v -13.162000 4.912000 8.383000
v -10.302000 4.912000 8.383000
v -13.446000 4.912000 5.458000
v -13.446000 4.912000 8.172000
v -12.946000 4.912000 4.160000
v -12.946000 4.912000 8.480000
v -12.446000 4.912000 3.848000
v -12.446000 4.912000 8.558000
v -11.946000 4.912000 3.768000
v -11.946000 4.912000 8.500000
v -11.446000 4.912000 3.777000
v -11.446000 4.912000 8.498000
v -10.946000 4.912000 3.800000
v -10.946000 4.912000 8.535000
v -10.446000 4.912000 3.899000
v -10.446000 4.912000 8.446000
v -9.946000 4.912000 4.244000
v -9.946000 4.912000 8.118000
v -12.946000 3.949000 5.383000
v -12.946000 7.593000 5.383000
v -12.446000 3.606000 5.383000
v -12.446000 7.908000 5.383000
v -11.946000 3.502000 5.383000
v -11.946000 7.988000 5.383000
v -11.446000 3.427000 5.383000
v -11.446000 7.880000 5.383000
v -10.946000 3.484000 5.383000
v -10.946000 7.517000 5.383000
v -10.446000 3.579000 5.383000
v -10.446000 7.091000 5.383000
v -9.946000 3.978000 5.383000
v -9.946000 6.600000 5.383000
v -12.598000 5.412000 3.883000
v -10.490000 5.412000 3.883000
v -13.143000 5.412000 4.383000
v -9.834000 5.412000 4.383000
v -13.337000 5.412000 4.883000
v -9.613000 5.412000 4.883000
v -13.376000 5.412000 5.383000
v -9.550000 5.412000 5.383000
v -13.491000 5.412000 5.883000
v -9.564000 5.412000 5.883000
v -13.652000 5.412000 6.383000
v -9.619000 5.412000 6.383000
v -13.828000 5.412000 6.883000
v -9.579000 5.412000 6.883000
v -13.844000 5.412000 7.383000
v -9.569000 5.412000 7.383000
v -13.664000 5.412000 7.883000
v -9.754000 5.412000 7.883000
v -13.143000 5.412000 8.383000
v -10.286000 5.412000 8.383000
v -13.446000 5.412000 5.732000
v -13.446000 5.412000 8.159000
v -12.946000 5.412000 4.136000
v -12.946000 5.412000 8.470000
v -12.446000 5.412000 3.815000
v -12.446000 5.412000 8.548000
v -11.946000 5.412000 3.728000
v -11.946000 5.412000 8.525000
v -11.446000 5.412000 3.769000
v -11.446000 5.412000 8.505000
v -10.946000 5.412000 3.800000
v -10.946000 5.412000 8.543000
v -10.446000 5.412000 3.899000
v -10.446000 5.412000 8.454000
v -9.946000 5.412000 4.244000
v -9.946000 5.412000 8.129000
v -13.446000 3.994000 5.883000
v -13.446000 5.570000 5.883000
v -12.946000 3.579000 5.883000
v -12.946000 7.648000 5.883000
v -12.446000 3.405000 5.883000
v -12.446000 7.955000 5.883000
v -11.946000 3.317000 5.883000
v -11.946000 8.031000 5.883000
v -11.446000 3.247000 5.883000
v -11.446000 7.920000 5.883000
v -10.946000 3.282000 5.883000
v -10.946000 7.560000 5.883000
v -10.446000 3.361000 5.883000
v -10.446000 7.141000 5.883000
v -9.946000 3.673000 5.883000
v -9.946000 6.575000 5.883000
v -12.620000 5.912000 3.883000
v -10.999000 5.912000 3.883000
v -13.146000 5.912000 4.383000
v -10.084000 5.912000 4.383000
v -13.330000 5.912000 4.883000
v -9.746000 5.912000 4.883000
v -13.344000 5.912000 5.383000
v -9.569000 5.912000 5.383000
v -13.383000 5.912000 5.883000
v -9.587000 5.912000 5.883000
v -13.473000 5.912000 6.383000
v -9.732000 5.912000 6.383000
v -13.618000 5.912000 6.883000
v -9.762000 5.912000 6.883000
v -13.635000 5.912000 7.383000
v -9.758000 5.912000 7.383000
v -13.415000 5.912000 7.883000
v -9.979000 5.912000 7.883000
v -12.691000 5.912000 8.383000
v -10.930000 5.912000 8.383000
v -13.446000 5.912000 6.287000
v -13.446000 5.912000 7.840000
v -12.946000 5.912000 4.127000
v -12.946000 5.912000 8.267000
v -12.446000 5.912000 3.803000
v -12.446000 5.912000 8.457000
v -11.946000 5.912000 3.715000
v -11.946000 5.912000 8.532000
v -11.446000 5.912000 3.786000
v -11.446000 5.912000 8.471000
v -10.946000 5.912000 3.903000
v -10.946000 5.912000 8.386000
v -10.446000 5.912000 4.113000
v -10.446000 5.912000 8.253000
v -9.946000 5.912000 4.561000
v -9.946000 5.912000 7.837000
v -13.446000 3.720000 6.383000
v -13.446000 6.047000 6.383000
v -12.946000 3.390000 6.383000
v -12.946000 7.665000 6.383000
v -12.446000 3.298000 6.383000
v -12.446000 7.969000 6.383000
v -11.946000 3.252000 6.383000
v -11.946000 8.044000 6.383000
v -11.446000 3.238000 6.383000
v -11.446000 7.932000 6.383000
v -10.946000 3.233000 6.383000
v -10.946000 7.566000 6.383000
v -10.446000 3.325000 6.383000
v -10.446000 7.119000 6.383000
v -9.946000 3.648000 6.383000
v -9.946000 6.292000 6.383000
v -12.558000 6.412000 3.883000
v -11.343000 6.412000 3.883000
v -13.118000 6.412000 4.383000
v -10.635000 6.412000 4.383000
v -13.313000 6.412000 4.883000
v -10.008000 6.412000 4.883000
v -13.350000 6.412000 5.383000
v -9.787000 6.412000 5.383000
v -13.362000 6.412000 5.883000
v -9.809000 6.412000 5.883000
v -13.397000 6.412000 6.383000
v -10.032000 6.412000 6.383000
v -13.359000 6.412000 6.883000
v -10.144000 6.412000 6.883000
v -13.290000 6.412000 7.383000
v -10.287000 6.412000 7.383000
v -13.078000 6.412000 7.883000
v -10.605000 6.412000 7.883000
v -12.504000 6.412000 8.383000
v -11.314000 6.412000 8.383000
v -12.946000 6.412000 4.165000
v -12.946000 6.412000 8.049000
v -12.446000 6.412000 3.834000
v -12.446000 6.412000 8.409000
v -11.946000 6.412000 3.742000
v -11.946000 6.412000 8.517000
v -11.446000 6.412000 3.837000
v -11.446000 6.412000 8.437000
v -10.946000 6.412000 4.119000
v -10.946000 6.412000 8.162000
v -10.446000 6.412000 4.527000
v -10.446000 6.412000 7.697000
v -9.946000 6.412000 4.971000
v -9.946000 6.412000 6.202000
v -13.446000 3.745000 6.883000
v -13.446000 6.227000 6.883000
v -12.946000 3.408000 6.883000
v -12.946000 7.403000 6.883000
v -12.446000 3.313000 6.883000
v -12.446000 7.780000 6.883000
v -11.946000 3.255000 6.883000
v -11.946000 7.867000 6.883000
v -11.446000 3.240000 6.883000
v -11.446000 7.737000 6.883000
v -10.946000 3.247000 6.883000
v -10.946000 7.307000 6.883000
v -10.446000 3.341000 6.883000
v -10.446000 6.787000 6.883000
v -9.946000 3.679000 6.883000
v -9.946000 6.162000 6.883000
v -12.904000 6.912000 4.383000
v -10.996000 6.912000 4.383000
v -13.151000 6.912000 4.883000
v -10.528000 6.912000 4.883000
v -13.323000 6.912000 5.383000
v -10.292000 6.912000 5.383000
v -13.350000 6.912000 5.883000
v -10.256000 6.912000 5.883000
v -13.355000 6.912000 6.383000
v -10.290000 6.912000 6.383000
v -13.196000 6.912000 6.883000
v -10.545000 6.912000 6.883000
v -13.059000 6.912000 7.383000
v -10.760000 6.912000 7.383000
v -12.821000 6.912000 7.883000
v -10.997000 6.912000 7.883000
v -12.946000 6.912000 4.440000
v -12.946000 6.912000 7.694000
v -12.446000 6.912000 4.023000
v -12.446000 6.912000 8.187000
v -11.946000 6.912000 3.917000
v -11.946000 6.912000 8.316000
v -11.446000 6.912000 4.027000
v -11.446000 6.912000 8.222000
v -10.946000 6.912000 4.450000
v -10.946000 6.912000 7.814000
v -10.446000 6.912000 5.002000
v -10.446000 6.912000 6.742000
v -13.446000 4.074000 7.383000
v -13.446000 6.153000 7.383000
v -12.946000 3.645000 7.383000
v -12.946000 7.061000 7.383000
v -12.446000 3.527000 7.383000
v -12.446000 7.444000 7.383000
v -11.946000 3.454000 7.383000
v -11.946000 7.554000 7.383000
v -11.446000 3.425000 7.383000
v -11.446000 7.458000 7.383000
v -10.946000 3.461000 7.383000
v -10.946000 7.137000 7.383000
v -10.446000 3.574000 7.383000
v -10.446000 6.536000 7.383000
v -9.946000 4.034000 7.383000
v -9.946000 6.151000 7.383000
v -12.467000 3.412000 5.883000
v -10.323000 3.412000 5.883000
v -12.999000 3.412000 6.383000
v -10.260000 3.412000 6.383000
v -12.954000 3.412000 6.883000
v -10.294000 3.412000 6.883000
v -12.835000 7.412000 4.883000
v -11.129000 7.412000 4.883000
v -13.101000 7.412000 5.383000
v -10.837000 7.412000 5.383000
v -13.144000 7.412000 5.883000
v -10.775000 7.412000 5.883000
v -13.156000 7.412000 6.383000
v -10.790000 7.412000 6.383000
v -12.939000 7.412000 6.883000
v -11.038000 7.412000 6.883000
v -12.513000 7.412000 7.383000
v -11.341000 7.412000 7.383000
v -12.946000 3.412000 6.274000
v -12.946000 3.412000 6.896000
v -12.446000 3.412000 5.857000
v -12.446000 3.412000 7.179000
v -11.946000 3.412000 5.557000
v -11.946000 3.412000 7.312000
v -11.446000 3.412000 5.409000
v -11.446000 3.412000 7.360000
v -10.946000 3.412000 5.507000
v -10.946000 3.412000 7.305000
v -10.446000 3.412000 5.703000
v -10.446000 3.412000 7.102000
v -12.946000 7.412000 5.026000
v -12.946000 7.412000 6.873000
v -12.446000 7.412000 4.567000
v -12.446000 7.412000 7.456000
v -11.946000 7.412000 4.413000
v -11.946000 7.412000 7.747000
v -11.446000 7.412000 4.590000
v -11.446000 7.412000 7.533000
v -10.946000 7.412000 5.128000
v -10.946000 7.412000 6.729000
v -12.446000 4.761000 3.883000
v -12.446000 6.614000 3.883000
v -11.946000 4.537000 3.883000
v -11.946000 6.848000 3.883000
v -11.446000 4.554000 3.883000
v -11.446000 6.603000 3.883000
v -10.946000 4.631000 3.883000
v -10.946000 5.830000 3.883000
v -13.446000 4.400000 7.883000
v -13.446000 5.873000 7.883000
v -12.946000 4.018000 7.883000
v -12.946000 6.730000 7.883000
v -12.446000 3.925000 7.883000
v -12.446000 7.210000 7.883000
v -11.946000 3.952000 7.883000
v -11.946000 7.337000 7.883000
v -11.446000 3.931000 7.883000
v -11.446000 7.244000 7.883000
v -10.946000 3.960000 7.883000
v -10.946000 6.846000 7.883000
v -10.446000 4.080000 7.883000
v -10.446000 6.290000 7.883000
v -9.946000 4.498000 7.883000
v -9.946000 5.866000 7.883000
v -12.617000 3.912000 4.883000
v -10.387000 3.912000 4.883000
v -12.895000 3.912000 5.383000
v -10.000000 3.912000 5.383000
v -13.384000 3.912000 5.883000
v -9.751000 3.912000 5.883000
v -13.601000 3.912000 6.383000
v -9.737000 3.912000 6.383000
v -13.580000 3.912000 6.883000
v -9.770000 3.912000 6.883000
v -13.306000 3.912000 7.383000
v -10.028000 3.912000 7.383000
v -12.436000 7.912000 5.383000
v -11.529000 7.912000 5.383000
v -12.554000 7.912000 5.883000
v -11.428000 7.912000 5.883000
v -12.586000 7.912000 6.383000
v -11.401000 7.912000 6.383000
v -13.446000 3.912000 5.974000
v -13.446000 3.912000 7.197000
v -12.946000 3.912000 5.443000
v -12.946000 3.912000 7.707000
v -12.446000 3.912000 4.641000
v -12.446000 3.912000 7.862000
v -11.946000 3.912000 4.461000
v -11.946000 3.912000 7.844000
v -11.446000 3.912000 4.464000
v -11.446000 3.912000 7.868000
v -10.946000 3.912000 4.548000
v -10.946000 3.912000 7.833000
v -10.446000 3.912000 4.809000
v -10.446000 3.912000 7.707000
v -9.946000 3.912000 5.454000
v -9.946000 3.912000 7.276000
v -12.446000 7.912000 5.401000
v -12.446000 7.912000 6.610000
v -11.946000 7.912000 5.128000
v -11.946000 7.912000 6.800000
v -11.446000 7.912000 5.792000
v -11.446000 7.912000 6.482000
v -12.946000 4.468000 4.383000
v -12.946000 6.851000 4.383000
v -12.446000 4.056000 4.383000
v -12.446000 7.284000 4.383000
v -11.946000 3.960000 4.383000
v -11.946000 7.393000 4.383000
v -11.446000 3.962000 4.383000
v -11.446000 7.280000 4.383000
v -10.946000 4.010000 4.383000
v -10.946000 6.838000 4.383000
v -10.446000 4.130000 4.383000
v -10.446000 6.225000 4.383000
v -9.946000 4.612000 4.383000
v -9.946000 5.711000 4.383000
v -12.946000 4.593000 8.383000
v -12.946000 5.679000 8.383000
v -12.446000 4.427000 8.383000
v -12.446000 6.516000 8.383000
v -11.946000 4.546000 8.383000
v -11.946000 6.798000 8.383000
v -11.446000 4.560000 8.383000
v -11.446000 6.606000 8.383000
v -10.946000 4.497000 8.383000
v -10.946000 5.920000 8.383000
v -10.446000 4.699000 8.383000
v -10.446000 5.665000 8.383000
v -12.905000 4.412000 4.383000
v -10.084000 4.412000 4.383000
v -13.152000 4.412000 4.883000
v -9.814000 4.412000 4.883000
v -13.312000 4.412000 5.383000
v -9.707000 4.412000 5.383000
v -13.631000 4.412000 5.883000
v -9.554000 4.412000 5.883000
v -13.809000 4.412000 6.383000
v -9.547000 4.412000 6.383000
v -13.792000 4.412000 6.883000
v -9.590000 4.412000 6.883000
v -13.669000 4.412000 7.383000
v -9.756000 4.412000 7.383000
v -13.455000 4.412000 7.883000
v -10.012000 4.412000 7.883000
v -13.446000 4.412000 5.616000
v -13.446000 4.412000 7.895000
v -12.946000 4.412000 4.435000
v -12.946000 4.412000 8.283000
v -12.446000 4.412000 4.042000
v -12.446000 4.412000 8.374000
v -11.946000 4.412000 3.949000
v -11.946000 4.412000 8.309000
v -11.446000 4.412000 3.956000
v -11.446000 4.412000 8.299000
v -10.946000 4.412000 3.996000
v -10.946000 4.412000 8.330000
v -10.446000 4.412000 4.113000
v -10.446000 4.412000 8.225000
v -9.946000 4.412000 4.568000
v -9.946000 4.412000 7.789000
v -12.946000 4.152000 4.883000
v -12.946000 7.273000 4.883000
v -12.446000 3.836000 4.883000
v -12.446000 7.686000 4.883000
v -11.946000 3.748000 4.883000
v -11.946000 7.782000 4.883000
v -11.446000 3.736000 4.883000
v -11.446000 7.652000 4.883000
v -10.946000 3.782000 4.883000
v -10.946000 7.248000 4.883000
v -10.446000 3.885000 4.883000
v -10.446000 6.812000 4.883000
v -9.946000 4.241000 4.883000
v -9.946000 6.334000 4.883000
f 87 385 395
f 395 385 21
f 21 385 9
f 21 9 71
f 71 9 59
f 59 88 71
f 89 317 333
f 87 395 317
f 317 395 333
f 395 383 333
f 383 37 333
f 21 7 383
f 21 383 395
f 71 57 7
f 71 7 21
f 57 71 88
f 111 57 88
f 109 57 111
f 111 161 109
f 163 161 111
f 163 209 161
f 211 209 163
f 211 257 209
f 259 257 211
f 259 90 257
f 257 90 38
f 91 249 269
f 89 333 249
f 249 333 269
f 333 315 269
f 315 39 269
f 333 37 315
f 90 327 347
f 40 90 347
f 38 90 40
f 327 92 347
f 271 93 269
f 269 93 91
f 269 39 41
f 269 41 271
f 347 325 40
f 347 92 325
f 92 42 325
f 92 94 42
f 273 95 271
f 271 95 93
f 271 41 43
f 271 43 273
f 326 351 44
f 326 42 351
f 42 96 351
f 42 94 96
f 275 97 273
f 273 97 95
f 273 43 45
f 273 45 275
f 44 351 328
f 98 44 328
f 46 44 98
f 351 96 328
f 277 99 275
f 275 99 97
f 275 45 47
f 275 47 277
f 260 100 48
f 260 48 258
f 258 46 260
f 260 46 98
f 277 250 99
f 345 101 316
f 316 101 47
f 101 250 47
f 250 277 47
f 49 345 316
f 212 102 50
f 212 50 210
f 210 48 212
f 212 48 100
f 345 318 101
f 49 384 345
f 384 318 345
f 384 386 318
f 8 386 384
f 8 10 386
f 58 10 8
f 58 60 10
f 110 60 58
f 110 112 60
f 162 112 110
f 162 164 112
f 162 50 164
f 164 50 102
f 139 319 331
f 331 319 87
f 319 385 87
f 319 387 385
f 387 9 385
f 11 9 387
f 11 59 9
f 61 59 11
f 88 59 123
f 59 113 123
f 59 61 113
f 113 140 123
f 141 251 267
f 139 331 251
f 251 331 267
f 331 317 267
f 317 89 267
f 331 87 317
f 123 111 88
f 111 123 140
f 165 111 140
f 163 111 165
f 165 211 163
f 213 211 165
f 213 259 211
f 261 259 213
f 261 142 259
f 259 142 90
f 249 91 267
f 91 141 267
f 91 143 141
f 267 89 249
f 327 90 142
f 327 142 329
f 329 144 327
f 327 144 92
f 145 91 93
f 145 143 91
f 92 146 94
f 144 146 92
f 147 93 95
f 147 145 93
f 94 148 96
f 146 148 94
f 149 95 97
f 149 147 95
f 330 150 98
f 330 98 328
f 328 96 330
f 330 96 148
f 151 97 99
f 151 149 97
f 262 152 100
f 262 100 260
f 260 98 262
f 262 98 150
f 99 250 151
f 151 250 252
f 153 252 250
f 153 250 101
f 166 154 188
f 166 188 102
f 212 166 102
f 214 166 212
f 212 100 214
f 214 100 152
f 101 318 153
f 153 318 320
f 386 320 318
f 386 388 320
f 10 388 386
f 10 12 388
f 60 12 10
f 60 62 12
f 112 62 60
f 112 114 62
f 154 114 188
f 114 164 188
f 114 112 164
f 102 188 164
f 189 321 139
f 139 321 319
f 321 387 319
f 389 387 321
f 389 11 387
f 13 11 389
f 13 61 11
f 63 61 13
f 63 113 61
f 115 113 63
f 115 190 113
f 113 190 140
f 191 253 141
f 141 253 251
f 139 251 253
f 139 253 189
f 165 140 190
f 165 190 167
f 167 213 165
f 215 213 167
f 280 261 192
f 261 215 192
f 261 213 215
f 280 142 261
f 193 141 143
f 193 191 141
f 263 280 192
f 194 348 329
f 194 329 142
f 263 194 142
f 280 263 142
f 348 144 329
f 195 143 145
f 195 193 143
f 196 350 348
f 196 348 194
f 144 348 146
f 146 348 350
f 197 145 147
f 197 195 145
f 198 352 350
f 198 350 196
f 146 350 148
f 148 350 352
f 199 147 149
f 199 197 147
f 264 200 288
f 352 198 264
f 352 264 288
f 330 352 288
f 150 330 288
f 148 352 330
f 201 149 151
f 201 199 149
f 216 202 232
f 288 200 216
f 288 216 232
f 262 288 232
f 152 262 232
f 150 288 262
f 151 252 201
f 201 252 254
f 203 254 252
f 203 252 153
f 168 204 154
f 168 154 166
f 202 168 232
f 168 214 232
f 168 166 214
f 152 232 214
f 153 320 203
f 203 320 322
f 388 322 320
f 388 390 322
f 12 390 388
f 12 14 390
f 62 14 12
f 62 64 14
f 114 64 62
f 114 116 64
f 114 154 116
f 116 154 204
f 332 321 189
f 233 391 332
f 391 321 332
f 391 389 321
f 391 13 389
f 15 13 391
f 15 63 13
f 65 63 15
f 65 115 63
f 117 115 65
f 117 234 115
f 115 234 190
f 268 253 191
f 323 332 189
f 323 189 253
f 235 323 253
f 268 235 253
f 233 332 323
f 167 190 234
f 167 234 169
f 169 215 167
f 217 215 169
f 217 236 215
f 215 236 192
f 193 270 191
f 191 270 268
f 235 268 270
f 235 270 237
f 263 192 236
f 263 236 265
f 265 238 263
f 263 238 194
f 195 272 193
f 193 272 270
f 237 270 272
f 237 272 239
f 194 240 196
f 238 240 194
f 197 274 195
f 195 274 272
f 239 272 274
f 239 274 241
f 196 242 198
f 240 242 196
f 199 276 197
f 197 276 274
f 241 274 276
f 241 276 243
f 266 244 200
f 266 200 264
f 264 198 266
f 266 198 242
f 201 278 199
f 199 278 276
f 243 276 278
f 243 278 245
f 218 246 202
f 218 202 216
f 216 200 218
f 218 200 244
f 254 278 201
f 324 245 346
f 346 245 203
f 245 278 203
f 278 254 203
f 247 324 346
f 170 248 204
f 170 204 168
f 168 202 170
f 170 202 246
f 322 346 203
f 346 322 247
f 322 392 247
f 322 390 392
f 14 392 390
f 14 16 392
f 64 16 14
f 64 66 16
f 116 66 64
f 116 118 66
f 116 204 118
f 118 204 248
f 289 1 25
f 25 1 75
f 75 1 51
f 75 51 127
f 127 51 103
f 127 103 177
f 177 103 155
f 155 290 177
f 27 291 25
f 25 291 289
f 25 77 27
f 25 75 77
f 75 129 77
f 75 127 129
f 127 179 129
f 127 177 179
f 177 290 179
f 179 290 292
f 29 293 27
f 27 293 291
f 27 79 29
f 27 77 79
f 77 131 79
f 77 129 131
f 129 181 131
f 129 179 181
f 179 292 181
f 181 292 294
f 31 295 29
f 29 295 293
f 29 81 31
f 29 79 81
f 296 81 104
f 81 131 104
f 81 79 131
f 104 131 156
f 156 131 181
f 181 294 156
f 31 2 295
f 2 31 52
f 52 31 81
f 81 296 52
f 297 393 233
f 233 393 391
f 393 15 391
f 17 15 393
f 17 65 15
f 67 65 17
f 124 117 298
f 117 67 298
f 117 65 67
f 124 234 117
f 334 323 235
f 233 323 334
f 299 233 334
f 297 233 299
f 119 124 298
f 169 234 124
f 119 169 124
f 171 169 119
f 222 217 300
f 217 171 300
f 217 169 171
f 222 236 217
f 237 336 235
f 235 336 334
f 299 334 336
f 299 336 301
f 219 222 300
f 302 282 265
f 302 265 236
f 219 302 236
f 222 219 236
f 282 238 265
f 239 338 237
f 237 338 336
f 301 336 338
f 301 338 303
f 304 284 282
f 304 282 302
f 238 282 240
f 240 282 284
f 241 340 239
f 239 340 338
f 303 338 340
f 303 340 305
f 306 286 284
f 306 284 304
f 240 284 242
f 242 284 286
f 243 342 241
f 241 342 340
f 305 340 342
f 305 342 307
f 220 308 230
f 286 306 220
f 286 220 230
f 266 286 230
f 244 266 230
f 242 286 266
f 245 344 243
f 243 344 342
f 307 342 344
f 307 344 309
f 172 310 186
f 230 308 172
f 230 172 186
f 218 230 186
f 246 218 186
f 244 230 218
f 324 344 245
f 394 309 410
f 410 309 247
f 309 344 247
f 344 324 247
f 311 394 410
f 120 312 138
f 186 310 120
f 186 120 138
f 170 186 138
f 248 170 138
f 246 186 170
f 392 410 247
f 410 392 311
f 392 18 311
f 392 16 18
f 66 18 16
f 66 68 18
f 312 68 138
f 68 118 138
f 68 66 118
f 248 138 118
f 353 3 23
f 23 3 73
f 73 3 53
f 73 53 125
f 125 53 105
f 125 105 175
f 175 105 157
f 157 354 175
f 355 379 399
f 353 23 379
f 379 23 399
f 23 1 399
f 1 289 399
f 73 51 1
f 73 1 23
f 125 103 51
f 125 51 73
f 175 155 103
f 175 103 125
f 354 205 223
f 354 223 290
f 175 354 290
f 155 175 290
f 205 356 223
f 401 357 399
f 399 357 355
f 399 289 291
f 399 291 401
f 225 292 290
f 225 290 223
f 223 356 225
f 225 356 358
f 403 359 401
f 401 359 357
f 401 291 293
f 401 293 403
f 227 294 292
f 227 292 225
f 225 358 227
f 227 358 360
f 405 361 403
f 403 361 359
f 403 293 295
f 403 295 405
f 104 133 296
f 156 183 133
f 156 133 104
f 227 206 294
f 294 206 156
f 206 362 156
f 362 183 156
f 227 360 206
f 407 363 405
f 405 363 361
f 405 295 2
f 33 405 2
f 407 405 33
f 52 83 33
f 52 33 2
f 83 52 296
f 133 83 296
f 135 83 133
f 364 135 158
f 135 183 158
f 135 133 183
f 183 362 158
f 407 380 363
f 380 407 365
f 407 35 365
f 407 33 35
f 33 85 35
f 33 83 85
f 366 85 106
f 85 135 106
f 85 83 135
f 135 364 106
f 35 4 365
f 4 35 54
f 54 35 85
f 85 366 54
f 396 393 297
f 22 17 396
f 396 17 393
f 72 67 22
f 22 67 17
f 72 298 67
f 299 398 297
f 297 398 396
f 398 367 19
f 22 398 19
f 396 398 22
f 22 19 69
f 22 69 72
f 368 126 119
f 368 119 298
f 69 368 298
f 72 69 298
f 176 171 126
f 126 171 119
f 176 300 171
f 301 400 299
f 299 400 398
f 367 398 400
f 367 400 369
f 121 126 368
f 126 121 173
f 126 173 176
f 370 224 219
f 370 219 300
f 173 370 300
f 176 173 300
f 224 302 219
f 303 402 301
f 301 402 400
f 369 400 402
f 369 402 371
f 372 226 224
f 372 224 370
f 302 224 304
f 304 224 226
f 305 404 303
f 303 404 402
f 371 402 404
f 371 404 373
f 374 228 226
f 374 226 372
f 304 226 306
f 306 226 228
f 307 406 305
f 305 406 404
f 373 404 406
f 373 406 375
f 174 376 184
f 228 374 174
f 228 174 184
f 220 228 184
f 308 220 184
f 306 228 220
f 309 408 307
f 307 408 406
f 375 406 408
f 375 408 377
f 122 378 136
f 184 376 122
f 184 122 136
f 172 184 136
f 310 172 136
f 308 184 172
f 394 408 309
f 20 377 36
f 36 377 311
f 377 408 311
f 408 394 311
f 20 36 86
f 20 86 70
f 136 378 70
f 136 70 86
f 120 136 86
f 312 120 86
f 310 136 120
f 18 36 311
f 68 86 18
f 18 86 36
f 312 86 68
f 411 381 397
f 397 381 353
f 381 3 353
f 381 5 3
f 5 53 3
f 55 53 5
f 55 105 53
f 107 105 55
f 107 157 105
f 159 157 107
f 354 157 221
f 157 207 221
f 157 159 207
f 207 412 221
f 413 313 335
f 411 397 313
f 313 397 335
f 397 379 335
f 379 355 335
f 397 353 379
f 221 205 354
f 412 255 281
f 412 281 356
f 221 412 356
f 205 221 356
f 255 414 281
f 337 415 335
f 335 415 413
f 335 355 357
f 335 357 337
f 283 358 356
f 283 356 281
f 281 414 283
f 283 414 416
f 339 417 337
f 337 417 415
f 337 357 359
f 337 359 339
f 285 360 358
f 285 358 283
f 283 416 285
f 285 416 418
f 341 419 339
f 339 419 417
f 339 359 361
f 339 361 341
f 206 229 362
f 285 256 360
f 360 256 206
f 256 420 206
f 420 229 206
f 285 418 256
f 343 421 341
f 341 421 419
f 341 361 363
f 341 363 343
f 158 185 364
f 229 208 362
f 362 208 158
f 208 422 158
f 422 185 158
f 229 420 208
f 343 314 421
f 409 423 380
f 380 423 363
f 423 314 363
f 314 343 363
f 365 409 380
f 106 137 366
f 185 160 364
f 364 160 106
f 160 424 106
f 424 137 106
f 185 422 160
f 409 382 423
f 365 4 409
f 4 382 409
f 4 6 382
f 54 6 4
f 54 56 6
f 137 108 366
f 108 54 366
f 108 56 54
f 137 424 108
f 24 19 367
f 74 69 24
f 24 69 19
f 74 368 69
f 369 26 367
f 367 26 24
f 76 24 26
f 74 24 76
f 368 74 121
f 74 128 121
f 74 76 128
f 178 173 128
f 128 173 121
f 178 370 173
f 371 28 369
f 369 28 26
f 78 26 28
f 76 26 78
f 130 76 78
f 128 76 130
f 180 128 130
f 178 128 180
f 370 178 372
f 372 178 180
f 373 30 371
f 371 30 28
f 80 28 30
f 78 28 80
f 132 78 80
f 130 78 132
f 182 130 132
f 180 130 182
f 372 180 374
f 374 180 182
f 375 32 373
f 373 32 30
f 82 30 32
f 80 30 82
f 134 80 82
f 132 80 134
f 174 182 376
f 182 134 376
f 182 132 134
f 374 182 174
f 377 34 375
f 375 34 32
f 84 32 34
f 82 32 84
f 122 134 378
f 134 84 378
f 134 82 84
f 376 134 122
f 20 34 377
f 70 84 20
f 20 84 34
f 378 84 70
f 37 383 411
f 411 383 381
f 383 5 381
f 7 5 383
f 7 55 5
f 57 55 7
f 57 107 55
f 109 107 57
f 109 159 107
f 161 159 109
f 161 207 159
f 209 207 161
f 412 207 279
f 207 257 279
f 207 209 257
f 257 38 279
f 39 315 413
f 413 315 313
f 411 313 315
f 411 315 37
f 279 255 412
f 279 38 255
f 38 414 255
f 38 40 414
f 41 413 415
f 41 39 413
f 40 325 349
f 416 40 349
f 414 40 416
f 325 42 349
f 43 415 417
f 43 41 415
f 416 349 326
f 44 416 326
f 418 416 44
f 349 42 326
f 45 417 419
f 45 43 417
f 256 287 420
f 256 418 287
f 418 46 287
f 418 44 46
f 47 419 421
f 47 45 419
f 208 231 422
f 287 258 420
f 420 258 208
f 258 48 208
f 48 231 208
f 287 46 258
f 421 314 47
f 47 314 316
f 49 316 314
f 49 314 423
f 160 187 424
f 231 210 422
f 422 210 160
f 210 50 160
f 50 187 160
f 231 48 210
f 423 382 49
f 49 382 384
f 6 384 382
f 6 8 384
f 56 8 6
f 56 58 8
f 108 58 56
f 108 110 58
f 187 162 424
f 162 108 424
f 162 110 108
f 187 50 162
