# Converted from NanoShaper .vert/.face
v 2.467000 10.912000 -2.117000
v 3.679000 10.912000 -2.117000
v 2.455000 10.912000 -1.617000
v 3.782000 10.912000 -1.617000
v 2.796000 10.912000 -1.117000
v 4.123000 10.912000 -1.117000
v 2.899000 10.912000 -0.617000
v 4.130000 10.912000 -0.617000
v 2.083000 14.912000 -0.617000
v 3.950000 14.912000 -0.617000
v 1.846000 14.912000 -0.117000
v 4.293000 14.912000 -0.117000
v 1.712000 14.912000 0.383000
v 4.715000 14.912000 0.383000
v 1.699000 14.912000 0.883000
v 4.893000 14.912000 0.883000
v 1.721000 14.912000 1.383000
v 4.910000 14.912000 1.383000
v 1.908000 14.912000 1.883000
v 4.904000 14.912000 1.883000
v 2.333000 14.912000 2.383000
v 4.725000 14.912000 2.383000
v 2.854000 14.912000 2.883000
v 4.213000 14.912000 2.883000
v 2.554000 10.912000 -2.262000
v 2.554000 10.912000 -1.444000
v 3.054000 10.912000 -2.514000
v 3.054000 10.912000 -0.384000
v 3.554000 10.912000 -2.307000
v 3.554000 10.912000 -0.199000
v 4.054000 10.912000 -1.241000
v 4.054000 10.912000 -0.477000
v 2.054000 14.912000 -0.579000
v 2.054000 14.912000 2.080000
v 2.554000 14.912000 -0.977000
v 2.554000 14.912000 2.656000
v 3.054000 14.912000 -1.073000
v 3.054000 14.912000 2.975000
v 3.554000 14.912000 -0.942000
v 3.554000 14.912000 3.060000
v 4.054000 14.912000 -0.462000
v 4.054000 14.912000 2.959000
v 4.554000 14.912000 0.163000
v 4.554000 14.912000 2.613000
v 2.054000 12.019000 -3.117000
v 2.054000 13.275000 -3.117000
v 2.554000 11.573000 -3.117000
v 2.554000 13.720000 -3.117000
v 3.054000 11.447000 -3.117000
v 3.054000 13.834000 -3.117000
v 3.554000 11.564000 -3.117000
v 3.554000 13.727000 -3.117000
v 4.054000 11.997000 -3.117000
v 4.054000 13.297000 -3.117000
v 2.054000 13.114000 0.883000
v 2.054000 15.627000 0.883000
v 2.554000 12.629000 0.883000
v 2.554000 16.003000 0.883000
v 3.054000 12.485000 0.883000
v 3.054000 16.253000 0.883000
v 3.554000 12.432000 0.883000
v 3.554000 16.352000 0.883000
v 4.054000 12.623000 0.883000
v 4.054000 16.231000 0.883000
v 4.554000 13.176000 0.883000
v 4.554000 15.749000 0.883000
v 2.159000 11.412000 -2.617000
v 3.988000 11.412000 -2.617000
v 1.911000 11.412000 -2.117000
v 4.236000 11.412000 -2.117000
v 1.905000 11.412000 -1.617000
v 4.439000 11.412000 -1.617000
v 2.133000 11.412000 -1.117000
v 4.678000 11.412000 -1.117000
v 2.347000 11.412000 -0.617000
v 4.682000 11.412000 -0.617000
v 2.581000 11.412000 -0.117000
v 4.448000 11.412000 -0.117000
v 2.173000 15.412000 -0.117000
v 3.948000 15.412000 -0.117000
v 1.913000 15.412000 0.383000
v 4.472000 15.412000 0.383000
v 1.890000 15.412000 0.883000
v 4.720000 15.412000 0.883000
v 1.899000 15.412000 1.383000
v 4.892000 15.412000 1.383000
v 2.102000 15.412000 1.883000
v 4.907000 15.412000 1.883000
v 2.351000 15.412000 2.383000
v 4.728000 15.412000 2.383000
v 2.865000 15.412000 2.883000
v 4.214000 15.412000 2.883000
v 2.054000 11.412000 -2.471000
v 2.054000 11.412000 -1.235000
v 2.554000 11.412000 -2.938000
v 2.554000 11.412000 -0.152000
v 3.054000 11.412000 -3.079000
v 3.054000 11.412000 0.241000
v 3.554000 11.412000 -2.955000
v 3.554000 11.412000 0.333000
v 4.054000 11.412000 -2.531000
v 4.054000 11.412000 0.204000
v 4.554000 11.412000 -1.442000
v 4.554000 11.412000 -0.275000
v 2.054000 15.412000 0.044000
v 2.054000 15.412000 1.791000
v 2.554000 15.412000 -0.431000
v 2.554000 15.412000 2.646000
v 3.054000 15.412000 -0.565000
v 3.054000 15.412000 2.970000
v 3.554000 15.412000 -0.421000
v 3.554000 15.412000 3.058000
v 4.054000 15.412000 -0.003000
v 4.054000 15.412000 2.959000
v 4.554000 15.412000 0.509000
v 4.554000 15.412000 2.615000
v 2.054000 11.566000 -2.617000
v 2.054000 13.589000 -2.617000
v 2.554000 11.094000 -2.617000
v 2.554000 13.929000 -2.617000
v 3.054000 10.973000 -2.617000
v 3.054000 14.026000 -2.617000
v 3.554000 11.076000 -2.617000
v 3.554000 13.935000 -2.617000
v 4.054000 11.502000 -2.617000
v 4.054000 13.604000 -2.617000
v 2.054000 13.503000 1.383000
v 2.054000 15.625000 1.383000
v 2.554000 13.086000 1.383000
v 2.554000 16.148000 1.383000
v 3.054000 12.821000 1.383000
v 3.054000 16.478000 1.383000
v 3.554000 12.746000 1.383000
v 3.554000 16.567000 1.383000
v 4.054000 12.863000 1.383000
v 4.054000 16.466000 1.383000
v 4.554000 13.220000 1.383000
v 4.554000 16.117000 1.383000
v 2.130000 11.912000 -3.117000
v 3.993000 11.912000 -3.117000
v 1.877000 11.912000 -2.617000
v 4.256000 11.912000 -2.617000
v 1.719000 11.912000 -2.117000
v 4.431000 11.912000 -2.117000
v 1.713000 11.912000 -1.617000
v 4.667000 11.912000 -1.617000
v 1.905000 11.912000 -1.117000
v 4.870000 11.912000 -1.117000
v 2.150000 11.912000 -0.617000
v 4.873000 11.912000 -0.617000
v 2.348000 11.912000 -0.117000
v 4.679000 11.912000 -0.117000
v 2.858000 11.912000 0.383000
v 4.128000 11.912000 0.383000
v 2.499000 15.912000 0.383000
v 3.753000 15.912000 0.383000
v 2.415000 15.912000 0.883000
v 4.447000 15.912000 0.883000
v 2.334000 15.912000 1.383000
v 4.708000 15.912000 1.383000
v 2.353000 15.912000 1.883000
v 4.726000 15.912000 1.883000
v 2.565000 15.912000 2.383000
v 4.514000 15.912000 2.383000
v 2.054000 11.912000 -3.011000
v 2.054000 11.912000 -0.865000
v 2.554000 11.912000 -3.453000
v 2.554000 11.912000 0.150000
v 3.054000 11.912000 -3.566000
v 3.054000 11.912000 0.468000
v 3.554000 11.912000 -3.459000
v 3.554000 11.912000 0.545000
v 4.054000 11.912000 -3.033000
v 4.054000 11.912000 0.420000
v 4.554000 11.912000 -1.805000
v 4.554000 11.912000 0.049000
v 2.554000 15.912000 0.293000
v 2.554000 15.912000 2.366000
v 3.054000 15.912000 0.035000
v 3.054000 15.912000 2.776000
v 3.554000 15.912000 0.246000
v 3.554000 15.912000 2.879000
v 4.054000 15.912000 0.571000
v 4.054000 15.912000 2.763000
v 4.554000 15.912000 1.026000
v 4.554000 15.912000 2.323000
v 2.054000 11.223000 -2.117000
v 2.054000 13.640000 -2.117000
v 2.554000 10.873000 -2.117000
v 2.554000 13.999000 -2.117000
v 3.054000 10.771000 -2.117000
v 3.054000 14.107000 -2.117000
v 3.554000 10.858000 -2.117000
v 3.554000 13.995000 -2.117000
v 4.054000 11.182000 -2.117000
v 4.054000 13.614000 -2.117000
v 2.054000 14.103000 1.883000
v 2.054000 15.317000 1.883000
v 2.554000 13.473000 1.883000
v 2.554000 16.170000 1.883000
v 3.054000 13.059000 1.883000
v 3.054000 16.494000 1.883000
v 3.554000 12.959000 1.883000
v 3.554000 16.582000 1.883000
v 4.054000 13.079000 1.883000
v 4.054000 16.483000 1.883000
v 4.554000 13.541000 1.883000
v 4.554000 16.140000 1.883000
v 2.461000 12.412000 -3.617000
v 3.662000 12.412000 -3.617000
v 1.898000 12.412000 -3.117000
v 4.224000 12.412000 -3.117000
v 1.703000 12.412000 -2.617000
v 4.420000 12.412000 -2.617000
v 1.677000 12.412000 -2.117000
v 4.485000 12.412000 -2.117000
v 1.667000 12.412000 -1.617000
v 4.666000 12.412000 -1.617000
v 1.842000 12.412000 -1.117000
v 4.864000 12.412000 -1.117000
v 2.047000 12.412000 -0.617000
v 4.867000 12.412000 -0.617000
v 2.176000 12.412000 -0.117000
v 4.677000 12.412000 -0.117000
v 2.392000 12.412000 0.383000
v 4.346000 12.412000 0.383000
v 2.907000 16.412000 1.383000
v 4.172000 16.412000 1.383000
v 2.874000 16.412000 1.883000
v 4.205000 16.412000 1.883000
v 2.054000 12.412000 -3.318000
v 2.054000 12.412000 -0.593000
v 2.554000 12.412000 -3.658000
v 2.554000 12.412000 0.570000
v 3.054000 12.412000 -3.755000
v 3.054000 12.412000 0.808000
v 3.554000 12.412000 -3.664000
v 3.554000 12.412000 0.862000
v 4.054000 12.412000 -3.333000
v 4.054000 12.412000 0.667000
v 4.554000 12.412000 -1.875000
v 4.554000 12.412000 0.093000
v 3.054000 16.412000 1.174000
v 3.054000 16.412000 2.175000
v 3.554000 16.412000 0.978000
v 3.554000 16.412000 2.371000
v 4.054000 16.412000 1.204000
v 4.054000 16.412000 2.145000
v 2.054000 11.215000 -1.617000
v 2.054000 13.789000 -1.617000
v 2.554000 10.867000 -1.617000
v 2.554000 14.238000 -1.617000
v 3.054000 10.766000 -1.617000
v 3.054000 14.359000 -1.617000
v 3.554000 10.833000 -1.617000
v 3.554000 14.210000 -1.617000
v 4.054000 11.055000 -1.617000
v 4.054000 13.701000 -1.617000
v 4.554000 11.594000 -1.617000
v 4.554000 12.775000 -1.617000
v 2.554000 13.900000 2.383000
v 2.554000 15.896000 2.383000
v 3.054000 13.503000 2.383000
v 3.054000 16.303000 2.383000
v 3.554000 13.398000 2.383000
v 3.554000 16.405000 2.383000
v 4.054000 13.528000 2.383000
v 4.054000 16.290000 2.383000
v 4.554000 13.981000 2.383000
v 4.554000 15.853000 2.383000
v 2.473000 12.912000 -3.617000
v 3.649000 12.912000 -3.617000
v 1.904000 12.912000 -3.117000
v 4.218000 12.912000 -3.117000
v 1.708000 12.912000 -2.617000
v 4.414000 12.912000 -2.617000
v 1.676000 12.912000 -2.117000
v 4.428000 12.912000 -2.117000
v 1.662000 12.912000 -1.617000
v 4.487000 12.912000 -1.617000
v 1.762000 12.912000 -1.117000
v 4.657000 12.912000 -1.117000
v 1.822000 12.912000 -0.617000
v 4.667000 12.912000 -0.617000
v 1.850000 12.912000 -0.117000
v 4.596000 12.912000 -0.117000
v 1.941000 12.912000 0.383000
v 4.496000 12.912000 0.383000
v 2.196000 12.912000 0.883000
v 4.357000 12.912000 0.883000
v 2.821000 12.912000 1.383000
v 4.152000 12.912000 1.383000
v 2.054000 12.912000 -3.311000
v 2.054000 12.912000 0.677000
v 2.554000 12.912000 -3.653000
v 2.554000 12.912000 1.178000
v 3.054000 12.912000 -3.750000
v 3.054000 12.912000 1.596000
v 3.554000 12.912000 -3.658000
v 3.554000 12.912000 1.801000
v 4.054000 12.912000 -3.326000
v 4.054000 12.912000 1.545000
v 4.554000 12.912000 -1.412000
v 4.554000 12.912000 0.112000
v 2.054000 11.529000 -1.117000
v 2.054000 14.297000 -1.117000
v 2.554000 11.034000 -1.117000
v 2.554000 14.734000 -1.117000
v 3.054000 10.827000 -1.117000
v 3.054000 14.854000 -1.117000
v 3.554000 10.770000 -1.117000
v 3.554000 14.689000 -1.117000
v 4.054000 10.880000 -1.117000
v 4.054000 14.155000 -1.117000
v 4.554000 11.245000 -1.117000
v 4.554000 13.049000 -1.117000
v 3.054000 14.091000 2.883000
v 3.054000 15.712000 2.883000
v 3.554000 13.910000 2.883000
v 3.554000 15.905000 2.883000
v 4.054000 14.146000 2.883000
v 4.054000 15.683000 2.883000
v 2.154000 13.412000 -3.117000
v 3.969000 13.412000 -3.117000
v 1.914000 13.412000 -2.617000
v 4.209000 13.412000 -2.617000
v 1.872000 13.412000 -2.117000
v 4.213000 13.412000 -2.117000
v 1.829000 13.412000 -1.617000
v 4.220000 13.412000 -1.617000
v 1.773000 13.412000 -1.117000
v 4.318000 13.412000 -1.117000
v 1.669000 13.412000 -0.617000
v 4.447000 13.412000 -0.617000
v 1.652000 13.412000 -0.117000
v 4.495000 13.412000 -0.117000
v 1.738000 13.412000 0.383000
v 4.606000 13.412000 0.383000
v 1.884000 13.412000 0.883000
v 4.698000 13.412000 0.883000
v 2.126000 13.412000 1.383000
v 4.699000 13.412000 1.383000
v 2.599000 13.412000 1.883000
v 4.465000 13.412000 1.883000
v 3.357000 13.412000 2.383000
v 3.699000 13.412000 2.383000
v 2.054000 13.412000 -2.976000
v 2.054000 13.412000 1.280000
v 2.554000 13.412000 -3.432000
v 2.554000 13.412000 1.823000
v 3.054000 13.412000 -3.548000
v 3.054000 13.412000 2.267000
v 3.554000 13.412000 -3.439000
v 3.554000 13.412000 2.399000
v 4.054000 13.412000 -2.999000
v 4.054000 13.412000 2.238000
v 4.554000 13.412000 0.151000
v 4.554000 13.412000 1.754000
v 2.054000 12.391000 -0.617000
v 2.054000 14.873000 -0.617000
v 2.554000 11.156000 -0.617000
v 2.554000 15.269000 -0.617000
v 3.054000 10.846000 -0.617000
v 3.054000 15.368000 -0.617000
v 3.554000 10.767000 -0.617000
v 3.554000 15.236000 -0.617000
v 4.054000 10.877000 -0.617000
v 4.054000 14.757000 -0.617000
v 4.554000 11.240000 -0.617000
v 4.554000 13.123000 -0.617000
v 2.512000 13.912000 -2.617000
v 3.611000 13.912000 -2.617000
v 2.393000 13.912000 -2.117000
v 3.709000 13.912000 -2.117000
v 2.156000 13.912000 -1.617000
v 3.894000 13.912000 -1.617000
v 1.880000 13.912000 -1.117000
v 4.152000 13.912000 -1.117000
v 1.669000 13.912000 -0.617000
v 4.359000 13.912000 -0.617000
v 1.631000 13.912000 -0.117000
v 4.458000 13.912000 -0.117000
v 1.663000 13.912000 0.383000
v 4.688000 13.912000 0.383000
v 1.684000 13.912000 0.883000
v 4.888000 13.912000 0.883000
v 1.867000 13.912000 1.383000
v 4.891000 13.912000 1.383000
v 2.193000 13.912000 1.883000
v 4.738000 13.912000 1.883000
v 2.545000 13.912000 2.383000
v 4.508000 13.912000 2.383000
v 3.466000 13.912000 2.883000
v 3.587000 13.912000 2.883000
v 2.054000 13.912000 -1.435000
v 2.054000 13.912000 1.690000
v 2.554000 13.912000 -2.697000
v 2.554000 13.912000 2.394000
v 3.054000 13.912000 -2.976000
v 3.054000 13.912000 2.788000
v 3.554000 13.912000 -2.718000
v 3.554000 13.912000 2.884000
v 4.054000 13.912000 -1.303000
v 4.054000 13.912000 2.763000
v 4.554000 13.912000 0.130000
v 4.554000 13.912000 2.314000
v 2.054000 12.627000 -0.117000
v 2.054000 15.252000 -0.117000
v 2.554000 11.447000 -0.117000
v 2.554000 15.707000 -0.117000
v 3.054000 11.051000 -0.117000
v 3.054000 15.823000 -0.117000
v 3.554000 10.959000 -0.117000
v 3.554000 15.713000 -0.117000
v 4.054000 11.088000 -0.117000
v 4.054000 15.271000 -0.117000
v 4.554000 11.571000 -0.117000
v 4.554000 13.117000 -0.117000
v 2.141000 14.412000 -1.117000
v 3.888000 14.412000 -1.117000
v 1.832000 14.412000 -0.617000
v 4.199000 14.412000 -0.617000
v 1.658000 14.412000 -0.117000
v 4.415000 14.412000 -0.117000
v 1.654000 14.412000 0.383000
v 4.723000 14.412000 0.383000
v 1.669000 14.412000 0.883000
v 4.905000 14.412000 0.883000
v 1.738000 14.412000 1.383000
v 4.909000 14.412000 1.383000
v 1.927000 14.412000 1.883000
v 4.896000 14.412000 1.883000
v 2.335000 14.412000 2.383000
v 4.716000 14.412000 2.383000
v 2.851000 14.412000 2.883000
v 4.202000 14.412000 2.883000
v 2.054000 14.412000 -1.011000
v 2.054000 14.412000 2.054000
v 2.554000 14.412000 -1.424000
v 2.554000 14.412000 2.660000
v 3.054000 14.412000 -1.552000
v 3.054000 14.412000 2.975000
v 3.554000 14.412000 -1.384000
v 3.554000 14.412000 3.058000
v 4.054000 14.412000 -0.888000
v 4.054000 14.412000 2.954000
v 4.554000 14.412000 0.122000
v 4.554000 14.412000 2.602000
v 2.554000 12.249000 -3.617000
v 2.554000 13.045000 -3.617000
v 3.054000 12.002000 -3.617000
v 3.054000 13.292000 -3.617000
v 3.554000 12.231000 -3.617000
v 3.554000 13.063000 -3.617000
v 2.054000 12.764000 0.383000
v 2.054000 15.592000 0.383000
v 2.554000 12.241000 0.383000
v 2.554000 15.935000 0.383000
v 3.054000 11.690000 0.383000
v 3.054000 16.036000 0.383000
v 3.554000 11.499000 0.383000
v 3.554000 15.986000 0.383000
v 4.054000 11.787000 0.383000
v 4.054000 15.742000 0.383000
v 4.554000 13.155000 0.383000
v 4.554000 15.298000 0.383000
f 117 141 165
f 165 141 45
f 141 211 45
f 141 213 211
f 213 273 211
f 275 273 213
f 46 273 347
f 273 325 347
f 273 275 325
f 325 118 347
f 119 67 95
f 117 165 67
f 67 165 95
f 165 139 95
f 139 47 95
f 165 45 139
f 347 323 46
f 118 371 397
f 118 397 48
f 347 118 48
f 323 347 48
f 371 120 397
f 97 121 95
f 95 121 119
f 95 47 49
f 95 49 97
f 399 50 48
f 399 48 397
f 397 120 399
f 399 120 122
f 99 123 97
f 97 123 121
f 97 49 51
f 97 51 99
f 401 52 50
f 401 50 399
f 399 122 401
f 401 122 124
f 99 68 123
f 173 125 140
f 140 125 51
f 125 68 51
f 68 99 51
f 53 173 140
f 324 355 54
f 401 372 52
f 52 372 324
f 372 126 324
f 126 355 324
f 401 124 372
f 173 142 125
f 53 212 173
f 212 142 173
f 212 214 142
f 274 214 212
f 274 276 214
f 355 326 54
f 326 274 54
f 326 276 274
f 355 126 326
f 348 339 55
f 127 387 348
f 387 339 348
f 387 385 339
f 387 427 385
f 429 427 387
f 429 15 427
f 17 15 429
f 17 83 15
f 85 83 17
f 85 128 83
f 83 128 56
f 296 289 57
f 341 348 55
f 341 55 289
f 129 341 289
f 296 129 289
f 127 348 341
f 157 56 128
f 157 128 159
f 159 130 157
f 157 130 58
f 296 57 291
f 57 131 291
f 57 59 131
f 129 296 291
f 130 227 243
f 60 130 243
f 58 130 60
f 227 132 243
f 133 59 61
f 133 131 59
f 245 62 60
f 245 60 243
f 243 132 245
f 245 132 134
f 135 61 63
f 135 133 61
f 247 64 62
f 247 62 245
f 245 134 247
f 247 134 136
f 63 290 135
f 135 290 292
f 137 292 290
f 137 290 65
f 158 185 66
f 247 228 64
f 64 228 158
f 228 138 158
f 138 185 158
f 247 136 228
f 65 340 137
f 137 340 342
f 386 342 340
f 386 388 342
f 428 388 386
f 428 430 388
f 16 430 428
f 16 18 430
f 84 18 16
f 84 86 18
f 185 160 66
f 160 84 66
f 160 86 84
f 185 138 160
f 187 69 93
f 93 69 117
f 69 141 117
f 69 143 141
f 143 213 141
f 215 213 143
f 215 275 213
f 277 275 215
f 277 325 275
f 327 325 277
f 327 188 325
f 325 188 118
f 189 1 25
f 187 93 1
f 1 93 25
f 93 67 25
f 67 119 25
f 93 117 67
f 371 118 188
f 371 188 373
f 373 190 371
f 371 190 120
f 27 191 25
f 25 191 189
f 25 119 121
f 25 121 27
f 120 192 122
f 190 192 120
f 29 193 27
f 27 193 191
f 27 121 123
f 27 123 29
f 122 194 124
f 192 194 122
f 29 2 193
f 101 195 68
f 68 195 123
f 195 2 123
f 2 29 123
f 125 101 68
f 374 196 126
f 374 126 372
f 372 124 374
f 374 124 194
f 101 70 195
f 125 142 101
f 142 70 101
f 142 144 70
f 214 144 142
f 214 216 144
f 276 216 214
f 276 278 216
f 326 278 276
f 326 328 278
f 326 126 328
f 328 126 196
f 396 387 127
f 197 431 396
f 431 387 396
f 431 429 387
f 431 17 429
f 19 17 431
f 106 85 198
f 85 19 198
f 85 17 19
f 106 128 85
f 350 341 129
f 389 396 127
f 389 127 341
f 199 389 341
f 350 199 341
f 197 396 389
f 87 106 198
f 159 128 106
f 87 159 106
f 161 159 87
f 161 200 159
f 159 200 130
f 298 291 131
f 343 350 129
f 343 129 291
f 201 343 291
f 298 201 291
f 199 350 343
f 227 130 200
f 227 200 229
f 229 202 227
f 227 202 132
f 133 300 131
f 131 300 298
f 201 298 300
f 201 300 203
f 132 204 134
f 202 204 132
f 135 302 133
f 133 302 300
f 203 300 302
f 203 302 205
f 134 206 136
f 204 206 134
f 292 302 135
f 344 205 358
f 358 205 137
f 205 302 137
f 302 292 137
f 207 344 358
f 230 208 138
f 230 138 228
f 228 136 230
f 230 136 206
f 342 358 137
f 358 342 207
f 342 390 207
f 342 388 390
f 430 390 388
f 430 432 390
f 18 432 430
f 18 20 432
f 86 20 18
f 86 88 20
f 160 88 86
f 160 162 88
f 160 138 162
f 162 138 208
f 249 71 187
f 187 71 69
f 71 143 69
f 145 143 71
f 145 215 143
f 217 215 145
f 217 277 215
f 279 277 217
f 279 327 277
f 329 327 279
f 329 250 327
f 327 250 188
f 251 3 189
f 189 3 1
f 187 1 3
f 187 3 249
f 373 188 250
f 373 250 375
f 375 252 373
f 373 252 190
f 253 189 191
f 253 251 189
f 190 254 192
f 252 254 190
f 255 191 193
f 255 253 191
f 192 256 194
f 254 256 192
f 193 2 255
f 255 2 4
f 257 4 2
f 257 2 195
f 376 258 196
f 376 196 374
f 374 194 376
f 376 194 256
f 195 70 257
f 257 70 72
f 144 175 259
f 72 144 259
f 70 144 72
f 216 241 175
f 216 175 144
f 280 260 241
f 216 280 241
f 278 280 216
f 328 280 278
f 328 330 280
f 328 196 330
f 330 196 258
f 175 146 259
f 146 175 218
f 218 175 241
f 241 260 218
f 438 431 197
f 34 19 438
f 438 19 431
f 34 198 19
f 261 391 199
f 199 391 389
f 433 438 197
f 389 433 197
f 391 433 389
f 438 433 21
f 438 21 34
f 87 198 34
f 21 87 34
f 89 87 21
f 178 161 262
f 161 89 262
f 161 87 89
f 178 200 161
f 352 343 201
f 199 343 352
f 263 199 352
f 261 199 263
f 163 178 262
f 264 244 229
f 264 229 200
f 163 264 200
f 178 163 200
f 244 202 229
f 352 201 345
f 201 265 345
f 201 203 265
f 263 352 345
f 266 246 244
f 266 244 264
f 202 244 204
f 204 244 246
f 346 265 356
f 265 205 356
f 265 203 205
f 267 346 356
f 268 248 246
f 268 246 266
f 204 246 206
f 206 246 248
f 344 356 205
f 392 267 406
f 406 267 207
f 267 356 207
f 356 344 207
f 269 392 406
f 164 270 186
f 248 268 164
f 248 164 186
f 230 248 186
f 208 230 186
f 206 248 230
f 390 406 207
f 406 390 269
f 390 434 269
f 390 432 434
f 20 434 432
f 20 22 434
f 88 22 20
f 88 90 22
f 270 90 186
f 90 162 186
f 90 88 162
f 208 186 162
f 94 71 249
f 305 147 94
f 147 71 94
f 147 145 71
f 147 217 145
f 219 217 147
f 219 279 217
f 281 279 219
f 281 329 279
f 331 329 281
f 250 329 395
f 329 377 395
f 329 331 377
f 377 306 395
f 26 3 251
f 73 94 249
f 73 249 3
f 307 73 3
f 26 307 3
f 305 94 73
f 395 375 250
f 306 419 439
f 306 439 252
f 395 306 252
f 375 395 252
f 419 308 439
f 26 251 5
f 251 309 5
f 251 253 309
f 307 26 5
f 441 254 252
f 441 252 439
f 439 308 441
f 441 308 310
f 311 253 255
f 311 309 253
f 443 256 254
f 443 254 441
f 441 310 443
f 443 310 312
f 31 313 4
f 313 255 4
f 313 311 255
f 257 31 4
f 376 403 258
f 443 420 256
f 256 420 376
f 420 314 376
f 314 403 376
f 443 312 420
f 31 6 313
f 103 315 72
f 72 315 257
f 315 6 257
f 6 31 257
f 259 103 72
f 280 303 260
f 332 316 303
f 280 332 303
f 330 332 280
f 403 378 258
f 378 330 258
f 378 332 330
f 403 314 378
f 103 74 315
f 259 146 103
f 146 74 103
f 146 148 74
f 218 148 146
f 218 220 148
f 303 282 260
f 282 218 260
f 282 220 218
f 303 316 282
f 398 391 261
f 440 433 398
f 398 433 391
f 36 21 440
f 440 21 433
f 108 89 36
f 36 89 21
f 108 262 89
f 263 400 261
f 261 400 398
f 400 317 435
f 440 400 435
f 398 400 440
f 440 435 23
f 440 23 36
f 36 23 91
f 36 91 108
f 318 180 163
f 318 163 262
f 91 318 262
f 108 91 262
f 180 264 163
f 354 345 265
f 393 400 263
f 393 263 345
f 319 393 345
f 354 319 345
f 317 400 393
f 320 182 180
f 320 180 318
f 264 180 266
f 266 180 182
f 346 354 265
f 394 319 404
f 404 319 267
f 319 354 267
f 354 346 267
f 321 394 404
f 322 184 182
f 322 182 320
f 266 182 268
f 268 182 184
f 392 404 267
f 436 321 448
f 448 321 269
f 321 404 269
f 404 392 269
f 436 448 44
f 436 44 24
f 24 44 116
f 24 116 92
f 184 322 92
f 184 92 116
f 164 184 116
f 270 164 116
f 268 184 164
f 434 448 269
f 22 44 434
f 434 44 448
f 90 116 22
f 22 116 44
f 270 116 90
f 166 147 305
f 359 221 166
f 221 147 166
f 221 219 147
f 221 281 219
f 283 281 221
f 283 331 281
f 333 331 283
f 333 377 331
f 379 377 333
f 306 377 437
f 377 421 437
f 377 379 421
f 421 360 437
f 361 75 307
f 307 75 73
f 149 166 305
f 73 149 305
f 75 149 73
f 359 166 149
f 437 419 306
f 360 9 35
f 360 35 308
f 437 360 308
f 419 437 308
f 9 362 35
f 363 7 309
f 309 7 5
f 307 5 7
f 307 7 361
f 37 310 308
f 37 308 35
f 35 362 37
f 37 362 364
f 365 309 311
f 365 363 309
f 39 312 310
f 39 310 37
f 37 364 39
f 39 364 366
f 367 311 313
f 367 365 311
f 420 445 314
f 39 10 312
f 312 10 420
f 10 368 420
f 368 445 420
f 39 366 10
f 313 6 367
f 367 6 8
f 369 8 6
f 369 6 315
f 334 370 316
f 334 316 332
f 378 334 332
f 378 380 334
f 445 422 314
f 422 378 314
f 422 380 378
f 445 368 422
f 315 74 369
f 369 74 76
f 148 76 74
f 148 150 76
f 220 150 148
f 220 222 150
f 282 222 220
f 282 284 222
f 282 316 284
f 284 316 370
f 442 435 317
f 38 23 442
f 442 23 435
f 110 91 38
f 38 91 23
f 110 318 91
f 402 393 319
f 393 402 317
f 402 442 317
f 402 444 442
f 40 442 444
f 38 442 40
f 112 38 40
f 110 38 112
f 318 110 320
f 320 110 112
f 394 402 319
f 321 446 394
f 446 402 394
f 446 444 402
f 42 444 446
f 40 444 42
f 114 40 42
f 112 40 114
f 320 112 322
f 322 112 114
f 436 446 321
f 24 42 436
f 436 42 446
f 92 114 24
f 24 114 42
f 322 114 92
f 232 221 359
f 407 285 232
f 285 221 232
f 285 283 221
f 285 333 283
f 335 333 285
f 335 379 333
f 381 379 335
f 381 421 379
f 423 421 381
f 360 421 33
f 421 11 33
f 421 423 11
f 11 408 33
f 96 75 361
f 409 151 96
f 151 75 96
f 151 149 75
f 223 232 359
f 149 223 359
f 151 223 149
f 407 232 223
f 33 9 360
f 408 79 107
f 408 107 362
f 33 408 362
f 9 33 362
f 79 410 107
f 28 7 363
f 77 96 361
f 77 361 7
f 411 77 7
f 28 411 7
f 409 96 77
f 109 364 362
f 109 362 107
f 107 410 109
f 109 410 412
f 365 30 363
f 363 30 28
f 411 28 30
f 411 30 413
f 111 366 364
f 111 364 109
f 109 412 111
f 111 412 414
f 367 32 365
f 365 32 30
f 413 30 32
f 413 32 415
f 10 41 368
f 111 80 366
f 366 80 10
f 80 416 10
f 416 41 10
f 111 414 80
f 8 32 367
f 78 415 104
f 104 415 369
f 415 32 369
f 32 8 369
f 417 78 104
f 336 418 370
f 336 370 334
f 380 336 334
f 380 382 336
f 422 382 380
f 422 424 382
f 41 12 368
f 12 422 368
f 12 424 422
f 41 416 12
f 76 104 369
f 104 76 417
f 76 152 417
f 76 150 152
f 222 152 150
f 222 224 152
f 284 224 222
f 284 286 224
f 284 370 286
f 286 370 418
f 449 209 233
f 233 209 295
f 295 209 271
f 271 450 295
f 235 451 233
f 233 451 449
f 233 297 235
f 233 295 297
f 295 450 297
f 297 450 452
f 237 453 235
f 235 453 451
f 235 299 237
f 235 297 299
f 297 452 299
f 299 452 454
f 237 210 453
f 210 237 272
f 272 237 299
f 299 454 272
f 455 287 407
f 407 287 285
f 287 335 285
f 337 335 287
f 337 381 335
f 383 381 337
f 383 423 381
f 425 423 383
f 425 11 423
f 13 11 425
f 408 11 105
f 11 81 105
f 11 13 81
f 81 456 105
f 168 151 409
f 457 225 168
f 225 151 168
f 225 223 151
f 407 223 225
f 407 225 455
f 105 79 408
f 456 155 177
f 456 177 410
f 105 456 410
f 79 105 410
f 155 458 177
f 98 77 411
f 153 168 409
f 153 409 77
f 459 153 77
f 98 459 77
f 457 168 153
f 179 412 410
f 179 410 177
f 177 458 179
f 179 458 460
f 413 100 411
f 411 100 98
f 459 98 100
f 459 100 461
f 181 414 412
f 181 412 179
f 179 460 181
f 181 460 462
f 415 102 413
f 413 102 100
f 461 100 102
f 461 102 463
f 80 113 416
f 181 156 414
f 414 156 80
f 156 464 80
f 464 113 80
f 181 462 156
f 78 102 415
f 154 463 176
f 176 463 417
f 463 102 417
f 102 78 417
f 154 176 242
f 154 242 226
f 226 242 304
f 226 304 288
f 336 357 465
f 288 336 465
f 336 304 418
f 336 288 304
f 382 405 357
f 382 357 336
f 424 447 405
f 424 405 382
f 12 43 447
f 12 447 424
f 113 82 416
f 416 82 12
f 82 466 12
f 466 43 12
f 113 464 82
f 152 176 417
f 224 242 152
f 152 242 176
f 286 304 224
f 224 304 242
f 304 286 418
f 338 465 357
f 338 357 384
f 384 357 405
f 384 405 426
f 426 405 447
f 426 447 14
f 14 447 43
f 43 466 14
f 45 211 231
f 231 211 293
f 293 211 273
f 273 46 293
f 47 139 167
f 45 231 139
f 139 231 167
f 231 209 167
f 209 449 167
f 293 271 209
f 293 209 231
f 46 323 349
f 46 349 450
f 293 46 450
f 271 293 450
f 323 48 349
f 169 49 167
f 167 49 47
f 167 449 451
f 167 451 169
f 351 452 450
f 351 450 349
f 349 48 351
f 351 48 50
f 171 51 169
f 169 51 49
f 169 451 453
f 169 453 171
f 353 454 452
f 353 452 351
f 351 50 353
f 353 50 52
f 171 140 51
f 239 53 210
f 210 53 453
f 53 140 453
f 140 171 453
f 272 301 239
f 272 239 210
f 353 324 454
f 454 324 272
f 324 54 272
f 54 301 272
f 353 52 324
f 239 212 53
f 212 239 274
f 274 239 301
f 301 54 274
f 294 287 455
f 55 339 294
f 339 287 294
f 339 337 287
f 339 383 337
f 385 383 339
f 385 425 383
f 427 425 385
f 427 13 425
f 15 13 427
f 15 81 13
f 83 81 15
f 83 56 81
f 81 56 456
f 234 225 457
f 289 294 455
f 289 455 225
f 57 289 225
f 234 57 225
f 55 294 289
f 155 456 56
f 155 56 157
f 157 58 155
f 155 58 458
f 170 153 459
f 153 170 457
f 170 234 457
f 170 236 234
f 57 234 236
f 57 236 59
f 458 60 460
f 58 60 458
f 461 172 459
f 459 172 170
f 238 170 172
f 236 170 238
f 59 236 238
f 59 238 61
f 460 62 462
f 60 62 460
f 463 174 461
f 461 174 172
f 240 172 174
f 238 172 240
f 61 238 240
f 61 240 63
f 156 183 464
f 156 462 183
f 462 64 183
f 462 62 64
f 154 174 463
f 226 240 154
f 154 240 174
f 240 226 63
f 226 290 63
f 226 288 290
f 65 290 288
f 65 288 465
f 82 115 466
f 183 158 464
f 464 158 82
f 158 66 82
f 66 115 82
f 183 64 158
f 465 338 65
f 65 338 340
f 384 340 338
f 384 386 340
f 426 386 384
f 426 428 386
f 14 428 426
f 14 16 428
f 115 84 466
f 84 14 466
f 84 16 14
f 115 66 84
