# Converted from NanoShaper .vert/.face
v -13.983000 -5.338000 5.383000
v -12.332000 -5.338000 5.383000
v -15.578000 -5.338000 5.883000
v -11.999000 -5.338000 5.883000
v -16.038000 -5.338000 6.383000
v -11.869000 -5.338000 6.383000
v -16.253000 -5.338000 6.883000
v -11.823000 -5.338000 6.883000
v -16.255000 -5.338000 7.383000
v -11.853000 -5.338000 7.383000
v -16.044000 -5.338000 7.883000
v -11.965000 -5.338000 7.883000
v -15.596000 -5.338000 8.383000
v -12.268000 -5.338000 8.383000
v -14.310000 -5.338000 8.883000
v -13.036000 -5.338000 8.883000
v -15.622000 -1.338000 7.383000
v -14.353000 -1.338000 7.383000
v -15.930000 -1.338000 7.883000
v -14.045000 -1.338000 7.883000
v -15.938000 -1.338000 8.383000
v -13.921000 -1.338000 8.383000
v -15.908000 -1.338000 8.883000
v -13.931000 -1.338000 8.883000
v -15.595000 -1.338000 9.383000
v -14.244000 -1.338000 9.383000
v -16.196000 -5.338000 6.682000
v -16.196000 -5.338000 7.593000
v -15.696000 -5.338000 5.981000
v -15.696000 -5.338000 8.276000
v -15.196000 -5.338000 5.707000
v -15.196000 -5.338000 8.627000
v -14.696000 -5.338000 5.670000
v -14.696000 -5.338000 8.756000
v -14.196000 -5.338000 5.523000
v -14.196000 -5.338000 8.909000
v -13.696000 -5.338000 5.258000
v -13.696000 -5.338000 8.960000
v -13.196000 -5.338000 5.180000
v -13.196000 -5.338000 8.923000
v -12.696000 -5.338000 5.192000
v -12.696000 -5.338000 8.715000
v -12.196000 -5.338000 5.518000
v -12.196000 -5.338000 8.310000
v -15.696000 -1.338000 7.453000
v -15.696000 -1.338000 9.280000
v -15.196000 -1.338000 7.169000
v -15.196000 -1.338000 9.599000
v -14.696000 -1.338000 7.192000
v -14.696000 -1.338000 9.612000
v -14.196000 -1.338000 7.555000
v -14.196000 -1.338000 9.337000
v -16.196000 -5.462000 6.883000
v -16.196000 -2.752000 6.883000
v -15.696000 -6.221000 6.883000
v -15.696000 -1.887000 6.883000
v -15.196000 -8.780000 6.883000
v -15.196000 -1.653000 6.883000
v -14.696000 -9.014000 6.883000
v -14.696000 -1.676000 6.883000
v -14.196000 -9.015000 6.883000
v -14.196000 -1.956000 6.883000
v -13.696000 -8.980000 6.883000
v -13.696000 -2.285000 6.883000
v -13.196000 -8.730000 6.883000
v -13.196000 -2.559000 6.883000
v -12.696000 -7.885000 6.883000
v -12.696000 -2.905000 6.883000
v -12.196000 -7.222000 6.883000
v -12.196000 -3.449000 6.883000
v -15.116000 -8.838000 6.883000
v -13.347000 -8.838000 6.883000
v -15.416000 -8.838000 7.383000
v -13.026000 -8.838000 7.383000
v -15.409000 -8.838000 7.883000
v -13.028000 -8.838000 7.883000
v -15.085000 -8.838000 8.383000
v -13.355000 -8.838000 8.383000
v -13.774000 -4.838000 4.883000
v -12.236000 -4.838000 4.883000
v -15.618000 -4.838000 5.383000
v -11.893000 -4.838000 5.383000
v -16.024000 -4.838000 5.883000
v -11.683000 -4.838000 5.883000
v -16.259000 -4.838000 6.383000
v -11.672000 -4.838000 6.383000
v -16.354000 -4.838000 6.883000
v -11.807000 -4.838000 6.883000
v -16.355000 -4.838000 7.383000
v -12.051000 -4.838000 7.383000
v -16.208000 -4.838000 7.883000
v -12.430000 -4.838000 7.883000
v -15.970000 -4.838000 8.383000
v -12.794000 -4.838000 8.383000
v -15.518000 -4.838000 8.883000
v -13.654000 -4.838000 8.883000
v -15.196000 -8.838000 6.963000
v -15.196000 -8.838000 8.275000
v -14.696000 -8.838000 6.659000
v -14.696000 -8.838000 8.579000
v -14.196000 -8.838000 6.658000
v -14.196000 -8.838000 8.588000
v -13.696000 -8.838000 6.700000
v -13.696000 -8.838000 8.559000
v -13.196000 -8.838000 7.038000
v -13.196000 -8.838000 8.220000
v -16.196000 -4.838000 6.184000
v -16.196000 -4.838000 7.919000
v -15.696000 -4.838000 5.464000
v -15.696000 -4.838000 8.721000
v -15.196000 -4.838000 5.144000
v -15.196000 -4.838000 9.059000
v -14.696000 -4.838000 5.117000
v -14.696000 -4.838000 9.106000
v -14.196000 -4.838000 5.049000
v -14.196000 -4.838000 9.045000
v -13.696000 -4.838000 4.845000
v -13.696000 -4.838000 8.899000
v -13.196000 -4.838000 4.613000
v -13.196000 -4.838000 8.659000
v -12.696000 -4.838000 4.618000
v -12.696000 -4.838000 8.275000
v -12.196000 -4.838000 4.925000
v -12.196000 -4.838000 7.577000
v -11.696000 -4.838000 5.827000
v -11.696000 -4.838000 6.501000
v -16.196000 -5.466000 7.383000
v -16.196000 -2.127000 7.383000
v -15.696000 -8.451000 7.383000
v -15.696000 -1.389000 7.383000
v -15.196000 -9.012000 7.383000
v -15.196000 -1.174000 7.383000
v -14.696000 -9.207000 7.383000
v -14.696000 -1.192000 7.383000
v -14.196000 -9.208000 7.383000
v -14.196000 -1.456000 7.383000
v -13.696000 -9.178000 7.383000
v -13.696000 -2.095000 7.383000
v -13.196000 -8.972000 7.383000
v -13.196000 -2.619000 7.383000
v -12.696000 -8.373000 7.383000
v -12.696000 -3.454000 7.383000
v -12.196000 -7.516000 7.383000
v -12.196000 -4.470000 7.383000
v -11.696000 -6.882000 7.383000
v -11.696000 -5.730000 7.383000
v -14.891000 -8.338000 6.383000
v -13.584000 -8.338000 6.383000
v -15.540000 -8.338000 6.883000
v -12.893000 -8.338000 6.883000
v -15.745000 -8.338000 7.383000
v -12.681000 -8.338000 7.383000
v -15.740000 -8.338000 7.883000
v -12.683000 -8.338000 7.883000
v -15.521000 -8.338000 8.383000
v -12.898000 -8.338000 8.383000
v -14.806000 -8.338000 8.883000
v -13.605000 -8.338000 8.883000
v -13.470000 -4.338000 4.383000
v -12.438000 -4.338000 4.383000
v -15.355000 -4.338000 4.883000
v -11.844000 -4.338000 4.883000
v -16.008000 -4.338000 5.383000
v -11.651000 -4.338000 5.383000
v -16.219000 -4.338000 5.883000
v -11.594000 -4.338000 5.883000
v -16.347000 -4.338000 6.383000
v -11.589000 -4.338000 6.383000
v -16.374000 -4.338000 6.883000
v -11.771000 -4.338000 6.883000
v -16.352000 -4.338000 7.383000
v -12.244000 -4.338000 7.383000
v -16.284000 -4.338000 7.883000
v -12.842000 -4.338000 7.883000
v -16.187000 -4.338000 8.383000
v -13.169000 -4.338000 8.383000
v -15.982000 -4.338000 8.883000
v -13.724000 -4.338000 8.883000
v -15.322000 -4.338000 9.383000
v -14.501000 -4.338000 9.383000
v -15.696000 -8.338000 7.195000
v -15.696000 -8.338000 8.043000
v -15.196000 -8.338000 6.537000
v -15.196000 -8.338000 8.701000
v -14.696000 -8.338000 6.330000
v -14.696000 -8.338000 8.908000
v -14.196000 -8.338000 6.327000
v -14.196000 -8.338000 8.921000
v -13.696000 -8.338000 6.354000
v -13.696000 -8.338000 8.905000
v -13.196000 -8.338000 6.575000
v -13.196000 -8.338000 8.684000
v -12.696000 -8.338000 7.317000
v -12.696000 -8.338000 7.942000
v -16.196000 -4.338000 5.792000
v -16.196000 -4.338000 8.342000
v -15.696000 -4.338000 5.062000
v -15.696000 -4.338000 9.185000
v -15.196000 -4.338000 4.837000
v -15.196000 -4.338000 9.418000
v -14.696000 -4.338000 4.819000
v -14.696000 -4.338000 9.431000
v -14.196000 -4.338000 4.761000
v -14.196000 -4.338000 9.235000
v -13.696000 -4.338000 4.506000
v -13.696000 -4.338000 8.857000
v -13.196000 -4.338000 4.300000
v -13.196000 -4.338000 8.412000
v -12.696000 -4.338000 4.303000
v -12.696000 -4.338000 7.722000
v -12.196000 -4.338000 4.517000
v -12.196000 -4.338000 7.345000
v -11.696000 -4.338000 5.197000
v -11.696000 -4.338000 6.739000
v -16.196000 -4.885000 7.883000
v -16.196000 -1.680000 7.883000
v -15.696000 -8.440000 7.883000
v -15.696000 -6.427000 7.883000
v -15.696000 -6.194000 7.883000
v -15.696000 -1.162000 7.883000
v -15.196000 -9.006000 7.883000
v -15.196000 -0.982000 7.883000
v -14.696000 -9.202000 7.883000
v -14.696000 -0.997000 7.883000
v -14.196000 -9.204000 7.883000
v -14.196000 -1.216000 7.883000
v -13.696000 -9.177000 7.883000
v -13.696000 -1.859000 7.883000
v -13.196000 -8.971000 7.883000
v -13.196000 -2.700000 7.883000
v -12.696000 -8.370000 7.883000
v -12.696000 -4.547000 7.883000
v -12.196000 -7.507000 7.883000
v -12.196000 -5.103000 7.883000
v -11.696000 -6.884000 7.883000
v -11.696000 -5.732000 7.883000
v -15.111000 -7.838000 6.383000
v -13.314000 -7.838000 6.383000
v -15.646000 -7.838000 6.883000
v -12.666000 -7.838000 6.883000
v -15.835000 -7.838000 7.383000
v -12.433000 -7.838000 7.383000
v -15.830000 -7.838000 7.883000
v -12.443000 -7.838000 7.883000
v -15.630000 -7.838000 8.383000
v -12.694000 -7.838000 8.383000
v -15.064000 -7.838000 8.883000
v -13.336000 -7.838000 8.883000
v -13.648000 -3.838000 4.383000
v -12.260000 -3.838000 4.383000
v -15.543000 -3.838000 4.883000
v -11.751000 -3.838000 4.883000
v -16.096000 -3.838000 5.383000
v -11.571000 -3.838000 5.383000
v -16.292000 -3.838000 5.883000
v -11.584000 -3.838000 5.883000
v -16.301000 -3.838000 6.383000
v -11.692000 -3.838000 6.383000
v -16.309000 -3.838000 6.883000
v -11.893000 -3.838000 6.883000
v -16.310000 -3.838000 7.383000
v -12.474000 -3.838000 7.383000
v -16.299000 -3.838000 7.883000
v -12.987000 -3.838000 7.883000
v -16.292000 -3.838000 8.383000
v -13.263000 -3.838000 8.383000
v -16.115000 -3.838000 8.883000
v -13.710000 -3.838000 8.883000
v -15.696000 -3.838000 9.383000
v -14.171000 -3.838000 9.383000
v -15.696000 -7.838000 6.971000
v -15.696000 -7.838000 8.269000
v -15.196000 -7.838000 6.431000
v -15.196000 -7.838000 8.810000
v -14.696000 -7.838000 6.240000
v -14.696000 -7.838000 9.000000
v -14.196000 -7.838000 6.234000
v -14.196000 -7.838000 9.016000
v -13.696000 -7.838000 6.255000
v -13.696000 -7.838000 9.004000
v -13.196000 -7.838000 6.441000
v -13.196000 -7.838000 8.808000
v -12.696000 -7.838000 6.845000
v -12.696000 -7.838000 8.385000
v -16.196000 -3.838000 5.570000
v -16.196000 -3.838000 8.712000
v -15.696000 -3.838000 4.972000
v -15.696000 -3.838000 9.383000
v -15.196000 -3.838000 4.762000
v -15.196000 -3.838000 9.617000
v -14.696000 -3.838000 4.742000
v -14.696000 -3.838000 9.619000
v -14.196000 -3.838000 4.669000
v -14.196000 -3.838000 9.400000
v -13.696000 -3.838000 4.411000
v -13.696000 -3.838000 8.864000
v -13.196000 -3.838000 4.219000
v -13.196000 -3.838000 8.275000
v -12.696000 -3.838000 4.222000
v -12.696000 -3.838000 7.551000
v -12.196000 -3.838000 4.421000
v -12.196000 -3.838000 7.201000
v -11.696000 -3.838000 4.984000
v -11.696000 -3.838000 6.402000
v -13.196000 -4.524000 4.383000
v -13.196000 -3.221000 4.383000
v -12.696000 -4.518000 4.383000
v -12.696000 -3.227000 4.383000
v -16.196000 -4.315000 8.383000
v -16.196000 -1.686000 8.383000
v -15.696000 -5.223000 8.383000
v -15.696000 -1.143000 8.383000
v -15.196000 -8.758000 8.383000
v -15.196000 -0.939000 8.383000
v -14.696000 -8.997000 8.383000
v -14.696000 -0.930000 8.383000
v -14.196000 -9.002000 8.383000
v -14.196000 -1.116000 8.383000
v -13.696000 -8.975000 8.383000
v -13.696000 -1.652000 8.383000
v -13.196000 -8.724000 8.383000
v -13.196000 -4.263000 8.383000
v -12.696000 -7.842000 8.383000
v -12.696000 -4.918000 8.383000
v -12.196000 -7.223000 8.383000
v -12.196000 -5.393000 8.383000
v -15.032000 -7.338000 6.383000
v -12.935000 -7.338000 6.383000
v -15.639000 -7.338000 6.883000
v -12.301000 -7.338000 6.883000
v -15.852000 -7.338000 7.383000
v -12.034000 -7.338000 7.383000
v -15.865000 -7.338000 7.883000
v -12.033000 -7.338000 7.883000
v -15.687000 -7.338000 8.383000
v -12.319000 -7.338000 8.383000
v -15.181000 -7.338000 8.883000
v -13.089000 -7.338000 8.883000
v -13.399000 -3.338000 4.383000
v -12.509000 -3.338000 4.383000
v -15.222000 -3.338000 4.883000
v -11.876000 -3.338000 4.883000
v -15.961000 -3.338000 5.383000
v -11.678000 -3.338000 5.383000
v -16.178000 -3.338000 5.883000
v -11.692000 -3.338000 5.883000
v -16.220000 -3.338000 6.383000
v -11.923000 -3.338000 6.383000
v -16.308000 -3.338000 6.883000
v -12.308000 -3.338000 6.883000
v -16.326000 -3.338000 7.383000
v -12.765000 -3.338000 7.383000
v -16.319000 -3.338000 7.883000
v -13.023000 -3.338000 7.883000
v -16.312000 -3.338000 8.383000
v -13.249000 -3.338000 8.383000
v -16.248000 -3.338000 8.883000
v -13.618000 -3.338000 8.883000
v -16.022000 -3.338000 9.383000
v -13.896000 -3.338000 9.383000
v -15.276000 -3.338000 9.883000
v -14.642000 -3.338000 9.883000
v -15.696000 -7.338000 6.973000
v -15.696000 -7.338000 8.366000
v -15.196000 -7.338000 6.466000
v -15.196000 -7.338000 8.874000
v -14.696000 -7.338000 6.287000
v -14.696000 -7.338000 9.053000
v -14.196000 -7.338000 6.222000
v -14.196000 -7.338000 9.040000
v -13.696000 -7.338000 6.229000
v -13.696000 -7.338000 8.977000
v -13.196000 -7.338000 6.305000
v -13.196000 -7.338000 8.910000
v -12.696000 -7.338000 6.512000
v -12.696000 -7.338000 8.700000
v -12.196000 -7.338000 7.026000
v -12.196000 -7.338000 8.228000
v -16.196000 -3.338000 6.003000
v -16.196000 -3.338000 9.059000
v -15.696000 -3.338000 5.109000
v -15.696000 -3.338000 9.696000
v -15.196000 -3.338000 4.876000
v -15.196000 -3.338000 9.900000
v -14.696000 -3.338000 4.845000
v -14.696000 -3.338000 9.895000
v -14.196000 -3.338000 4.778000
v -14.196000 -3.338000 9.678000
v -13.696000 -3.338000 4.537000
v -13.696000 -3.338000 9.026000
v -13.196000 -3.338000 4.326000
v -13.196000 -3.338000 8.293000
v -12.696000 -3.338000 4.330000
v -12.696000 -3.338000 7.288000
v -12.196000 -3.338000 4.549000
v -12.196000 -3.338000 6.734000
v -11.696000 -3.338000 5.295000
v -11.696000 -3.338000 5.901000
v -15.196000 -4.452000 4.883000
v -15.196000 -3.325000 4.883000
v -14.696000 -4.488000 4.883000
v -14.696000 -3.247000 4.883000
v -14.196000 -4.559000 4.883000
v -14.196000 -3.137000 4.883000
v -13.696000 -4.888000 4.883000
v -13.696000 -2.908000 4.883000
v -13.196000 -5.056000 4.883000
v -13.196000 -2.694000 4.883000
v -12.696000 -5.051000 4.883000
v -12.696000 -2.697000 4.883000
v -12.196000 -4.807000 4.883000
v -12.196000 -2.938000 4.883000
v -16.196000 -3.496000 8.883000
v -16.196000 -1.785000 8.883000
v -15.696000 -4.709000 8.883000
v -15.696000 -1.159000 8.883000
v -15.196000 -5.013000 8.883000
v -15.196000 -0.947000 8.883000
v -14.696000 -8.401000 8.883000
v -14.696000 -6.697000 8.883000
v -14.696000 -5.135000 8.883000
v -14.696000 -0.937000 8.883000
v -14.196000 -8.428000 8.883000
v -14.196000 -6.466000 8.883000
v -14.196000 -5.470000 8.883000
v -14.196000 -1.125000 8.883000
v -13.696000 -8.391000 8.883000
v -13.696000 -4.676000 8.883000
v -13.696000 -3.716000 8.883000
v -13.696000 -1.668000 8.883000
v -13.196000 -7.447000 8.883000
v -13.196000 -5.245000 8.883000
v -12.696000 -6.899000 8.883000
v -12.696000 -5.713000 8.883000
v -14.841000 -6.838000 6.383000
v -12.609000 -6.838000 6.383000
v -15.578000 -6.838000 6.883000
v -11.893000 -6.838000 6.883000
v -15.779000 -6.838000 7.383000
v -11.677000 -6.838000 7.383000
v -15.770000 -6.838000 7.883000
v -11.676000 -6.838000 7.883000
v -15.566000 -6.838000 8.383000
v -11.889000 -6.838000 8.383000
v -14.943000 -6.838000 8.883000
v -12.596000 -6.838000 8.883000
v -13.570000 -2.838000 4.883000
v -12.339000 -2.838000 4.883000
v -15.458000 -2.838000 5.383000
v -12.035000 -2.838000 5.383000
v -15.808000 -2.838000 5.883000
v -12.054000 -2.838000 5.883000
v -16.015000 -2.838000 6.383000
v -12.409000 -2.838000 6.383000
v -16.222000 -2.838000 6.883000
v -12.779000 -2.838000 6.883000
v -16.360000 -2.838000 7.383000
v -13.032000 -2.838000 7.383000
v -16.376000 -2.838000 7.883000
v -13.136000 -2.838000 7.883000
v -16.344000 -2.838000 8.383000
v -13.336000 -2.838000 8.383000
v -16.330000 -2.838000 8.883000
v -13.579000 -2.838000 8.883000
v -16.121000 -2.838000 9.383000
v -13.797000 -2.838000 9.383000
v -15.526000 -2.838000 9.883000
v -14.392000 -2.838000 9.883000
v -15.696000 -6.838000 7.099000
v -15.696000 -6.838000 8.131000
v -15.196000 -6.838000 6.525000
v -15.196000 -6.838000 8.753000
v -14.696000 -6.838000 6.358000
v -14.696000 -6.838000 8.949000
v -14.196000 -6.838000 6.274000
v -14.196000 -6.838000 8.963000
v -13.696000 -6.838000 6.226000
v -13.696000 -6.838000 8.983000
v -13.196000 -6.838000 6.222000
v -13.196000 -6.838000 8.987000
v -12.696000 -6.838000 6.355000
v -12.696000 -6.838000 8.907000
v -12.196000 -6.838000 6.580000
v -12.196000 -6.838000 8.691000
v -11.696000 -6.838000 7.301000
v -11.696000 -6.838000 7.970000
v -16.196000 -2.838000 6.798000
v -16.196000 -2.838000 9.258000
v -15.696000 -2.838000 5.635000
v -15.696000 -2.838000 9.793000
v -15.196000 -2.838000 5.250000
v -15.196000 -2.838000 9.982000
v -14.696000 -2.838000 5.157000
v -14.696000 -2.838000 9.977000
v -14.196000 -2.838000 5.131000
v -14.196000 -2.838000 9.776000
v -13.696000 -2.838000 4.972000
v -13.696000 -2.838000 9.206000
v -13.196000 -2.838000 4.686000
v -13.196000 -2.838000 8.093000
v -12.696000 -2.838000 4.690000
v -12.696000 -2.838000 6.784000
v -12.196000 -2.838000 5.036000
v -12.196000 -2.838000 6.160000
v -15.696000 -4.775000 5.383000
v -15.696000 -3.001000 5.383000
v -15.196000 -5.037000 5.383000
v -15.196000 -2.740000 5.383000
v -14.696000 -5.075000 5.383000
v -14.696000 -2.649000 5.383000
v -14.196000 -5.220000 5.383000
v -14.196000 -2.648000 5.383000
v -13.696000 -5.434000 5.383000
v -13.696000 -2.628000 5.383000
v -13.196000 -5.507000 5.383000
v -13.196000 -2.511000 5.383000
v -12.696000 -5.497000 5.383000
v -12.696000 -2.514000 5.383000
v -12.196000 -5.234000 5.383000
v -12.196000 -2.715000 5.383000
v -11.696000 -4.449000 5.383000
v -11.696000 -3.297000 5.383000
v -15.696000 -3.838000 9.383000
v -15.696000 -1.419000 9.383000
v -15.196000 -4.415000 9.383000
v -15.196000 -1.157000 9.383000
v -14.696000 -4.443000 9.383000
v -14.696000 -1.145000 9.383000
v -14.196000 -3.884000 9.383000
v -14.196000 -1.375000 9.383000
v -14.999000 -6.338000 6.383000
v -12.279000 -6.338000 6.383000
v -15.649000 -6.338000 6.883000
v -11.768000 -6.338000 6.883000
v -15.785000 -6.338000 7.383000
v -11.571000 -6.338000 7.383000
v -15.692000 -6.338000 7.883000
v -11.570000 -6.338000 7.883000
v -15.347000 -6.338000 8.383000
v -11.764000 -6.338000 8.383000
v -14.116000 -6.338000 8.883000
v -12.312000 -6.338000 8.883000
v -15.551000 -2.338000 6.383000
v -14.000000 -2.338000 6.383000
v -16.049000 -2.338000 6.883000
v -13.602000 -2.338000 6.883000
v -16.281000 -2.338000 7.383000
v -13.455000 -2.338000 7.383000
v -16.368000 -2.338000 7.883000
v -13.431000 -2.338000 7.883000
v -16.362000 -2.338000 8.383000
v -13.474000 -2.338000 8.383000
v -16.292000 -2.338000 8.883000
v -13.547000 -2.338000 8.883000
v -16.088000 -2.338000 9.383000
v -13.752000 -2.338000 9.383000
v -15.506000 -2.338000 9.883000
v -14.334000 -2.338000 9.883000
v -15.696000 -6.338000 6.978000
v -15.696000 -6.338000 7.872000
v -15.196000 -6.338000 6.455000
v -15.196000 -6.338000 8.511000
v -14.696000 -6.338000 6.348000
v -14.696000 -6.338000 8.720000
v -14.196000 -6.338000 6.278000
v -14.196000 -6.338000 8.864000
v -13.696000 -6.338000 6.165000
v -13.696000 -6.338000 8.994000
v -13.196000 -6.338000 6.123000
v -13.196000 -6.338000 9.018000
v -12.696000 -6.338000 6.204000
v -12.696000 -6.338000 9.012000
v -12.196000 -6.338000 6.439000
v -12.196000 -6.338000 8.816000
v -11.696000 -6.338000 7.010000
v -11.696000 -6.338000 8.262000
v -16.196000 -2.338000 7.131000
v -16.196000 -2.338000 9.185000
v -15.696000 -2.338000 6.500000
v -15.696000 -2.338000 9.776000
v -15.196000 -2.338000 6.194000
v -15.196000 -2.338000 9.984000
v -14.696000 -2.338000 6.083000
v -14.696000 -2.338000 9.993000
v -14.196000 -2.338000 6.261000
v -14.196000 -2.338000 9.810000
v -13.696000 -2.338000 6.675000
v -13.696000 -2.338000 9.291000
v -16.196000 -4.412000 5.883000
v -16.196000 -3.382000 5.883000
v -15.696000 -5.256000 5.883000
v -15.696000 -2.749000 5.883000
v -15.196000 -5.495000 5.883000
v -15.196000 -2.519000 5.883000
v -14.696000 -5.531000 5.883000
v -14.696000 -2.428000 5.883000
v -14.196000 -5.623000 5.883000
v -14.196000 -2.445000 5.883000
v -13.696000 -5.825000 5.883000
v -13.696000 -2.494000 5.883000
v -13.196000 -5.922000 5.883000
v -13.196000 -2.487000 5.883000
v -12.696000 -5.851000 5.883000
v -12.696000 -2.526000 5.883000
v -12.196000 -5.538000 5.883000
v -12.196000 -2.731000 5.883000
v -11.696000 -4.873000 5.883000
v -11.696000 -3.328000 5.883000
v -15.196000 -3.383000 9.883000
v -15.196000 -1.774000 9.883000
v -14.696000 -3.370000 9.883000
v -14.696000 -1.749000 9.883000
v -13.653000 -5.838000 5.883000
v -12.660000 -5.838000 5.883000
v -15.596000 -5.838000 6.383000
v -12.070000 -5.838000 6.383000
v -15.929000 -5.838000 6.883000
v -11.806000 -5.838000 6.883000
v -15.966000 -5.838000 7.383000
v -11.654000 -5.838000 7.383000
v -15.776000 -5.838000 7.883000
v -11.652000 -5.838000 7.883000
v -15.313000 -5.838000 8.383000
v -11.861000 -5.838000 8.383000
v -14.089000 -5.838000 8.883000
v -12.518000 -5.838000 8.883000
v -15.628000 -1.838000 6.883000
v -14.357000 -1.838000 6.883000
v -16.065000 -1.838000 7.383000
v -13.890000 -1.838000 7.383000
v -16.271000 -1.838000 7.883000
v -13.704000 -1.838000 7.883000
v -16.266000 -1.838000 8.383000
v -13.615000 -1.838000 8.383000
v -16.216000 -1.838000 8.883000
v -13.623000 -1.838000 8.883000
v -15.997000 -1.838000 9.383000
v -13.843000 -1.838000 9.383000
v -15.293000 -1.838000 9.883000
v -14.546000 -1.838000 9.883000
v -15.696000 -5.838000 6.477000
v -15.696000 -5.838000 7.992000
v -15.196000 -5.838000 6.178000
v -15.196000 -5.838000 8.461000
v -14.696000 -5.838000 6.142000
v -14.696000 -5.838000 8.618000
v -14.196000 -5.838000 6.072000
v -14.196000 -5.838000 8.829000
v -13.696000 -5.838000 5.894000
v -13.696000 -5.838000 9.017000
v -13.196000 -5.838000 5.806000
v -13.196000 -5.838000 9.020000
v -12.696000 -5.838000 5.869000
v -12.696000 -5.838000 8.930000
v -12.196000 -5.838000 6.222000
v -12.196000 -5.838000 8.719000
v -11.696000 -5.838000 7.210000
v -11.696000 -5.838000 8.051000
v -16.196000 -1.838000 7.627000
v -16.196000 -1.838000 8.965000
v -15.696000 -1.838000 6.941000
v -15.696000 -1.838000 9.685000
v -15.196000 -1.838000 6.680000
v -15.196000 -1.838000 9.907000
v -14.696000 -1.838000 6.704000
v -14.696000 -1.838000 9.917000
v -14.196000 -1.838000 7.027000
v -14.196000 -1.838000 9.721000
v -13.696000 -1.838000 7.934000
v -13.696000 -1.838000 9.119000
v -16.196000 -4.994000 6.383000
v -16.196000 -3.254000 6.383000
v -15.696000 -5.758000 6.383000
v -15.696000 -2.447000 6.383000
v -15.196000 -6.165000 6.383000
v -15.196000 -2.180000 6.383000
v -14.696000 -8.458000 6.383000
v -14.696000 -2.147000 6.383000
v -14.196000 -8.464000 6.383000
v -14.196000 -2.282000 6.383000
v -13.696000 -8.404000 6.383000
v -13.696000 -2.398000 6.383000
v -13.196000 -7.592000 6.383000
v -13.196000 -2.493000 6.383000
v -12.696000 -6.933000 6.383000
v -12.696000 -2.673000 6.383000
v -12.196000 -6.142000 6.383000
v -12.196000 -2.995000 6.383000
v -11.696000 -4.902000 6.383000
v -11.696000 -3.827000 6.383000
f 127 9 53
f 53 9 7
f 9 87 7
f 89 87 9
f 89 169 87
f 171 169 89
f 171 259 169
f 261 259 171
f 261 349 259
f 351 349 261
f 351 455 349
f 457 455 351
f 54 455 577
f 455 547 577
f 455 457 547
f 547 128 577
f 129 151 181
f 181 151 271
f 271 151 241
f 271 241 363
f 363 241 331
f 363 331 469
f 469 331 439
f 469 439 559
f 559 439 535
f 559 535 55
f 535 617 55
f 535 619 617
f 53 617 619
f 53 619 127
f 577 545 54
f 128 629 661
f 128 661 56
f 577 128 56
f 545 577 56
f 629 130 661
f 131 73 97
f 129 181 73
f 73 181 97
f 181 149 97
f 149 57 97
f 271 239 149
f 271 149 181
f 363 329 239
f 363 239 271
f 469 437 329
f 469 329 363
f 559 533 437
f 559 437 469
f 559 55 533
f 661 627 56
f 130 17 47
f 130 47 58
f 661 130 58
f 627 661 58
f 17 132 47
f 71 59 97
f 59 131 97
f 59 133 131
f 97 57 71
f 49 60 58
f 49 58 47
f 47 132 49
f 49 132 134
f 135 59 61
f 135 133 59
f 628 667 62
f 49 18 60
f 60 18 628
f 18 136 628
f 136 667 628
f 49 134 18
f 137 61 63
f 137 135 61
f 62 667 630
f 138 62 630
f 64 62 138
f 667 136 630
f 105 139 72
f 139 63 72
f 139 137 63
f 65 105 72
f 548 140 66
f 548 66 546
f 546 64 548
f 548 64 138
f 105 74 139
f 193 141 150
f 150 141 65
f 141 74 65
f 74 105 65
f 67 193 150
f 352 142 394
f 352 394 68
f 456 352 68
f 458 352 456
f 456 66 458
f 458 66 140
f 193 152 141
f 67 240 193
f 240 152 193
f 240 242 152
f 330 377 143
f 242 330 143
f 240 330 242
f 69 377 330
f 172 144 212
f 172 212 302
f 172 302 262
f 394 142 262
f 394 262 302
f 350 394 302
f 70 350 302
f 68 394 350
f 377 332 143
f 485 145 438
f 438 145 69
f 145 332 69
f 332 377 69
f 534 575 485
f 534 485 438
f 618 657 575
f 618 575 534
f 10 146 657
f 618 10 657
f 8 10 618
f 88 10 8
f 88 90 10
f 144 90 212
f 90 170 212
f 90 88 170
f 260 302 170
f 170 302 212
f 70 302 260
f 485 440 145
f 440 485 536
f 536 485 575
f 536 575 620
f 620 575 657
f 657 146 620
f 28 9 127
f 215 91 28
f 91 9 28
f 91 89 9
f 91 171 89
f 173 171 91
f 173 261 171
f 263 261 173
f 263 351 261
f 353 351 263
f 353 457 351
f 459 457 353
f 459 547 457
f 549 547 459
f 128 547 659
f 547 631 659
f 547 549 631
f 631 216 659
f 217 153 129
f 129 153 151
f 153 241 151
f 243 241 153
f 243 331 241
f 333 331 243
f 333 439 331
f 441 439 333
f 560 535 218
f 535 441 218
f 535 439 441
f 219 621 560
f 621 535 560
f 621 619 535
f 11 28 127
f 619 11 127
f 621 11 619
f 215 28 11
f 659 629 128
f 216 19 45
f 216 45 130
f 659 216 130
f 629 659 130
f 19 220 45
f 221 75 131
f 131 75 73
f 129 73 75
f 129 75 217
f 537 560 218
f 219 560 537
f 45 17 130
f 45 220 17
f 220 132 17
f 220 222 132
f 223 131 133
f 223 221 131
f 132 224 134
f 222 224 132
f 225 133 135
f 225 223 133
f 18 51 136
f 18 134 51
f 134 226 51
f 134 224 226
f 227 135 137
f 227 225 135
f 632 228 138
f 632 138 630
f 51 20 136
f 20 630 136
f 20 632 630
f 51 226 20
f 229 137 139
f 229 227 137
f 550 230 140
f 550 140 548
f 548 138 550
f 550 138 228
f 139 74 229
f 229 74 76
f 231 76 74
f 231 74 141
f 174 232 210
f 174 210 300
f 174 300 264
f 264 300 142
f 352 264 142
f 354 264 352
f 458 354 352
f 458 460 354
f 458 140 460
f 460 140 230
f 141 152 231
f 231 152 154
f 242 154 152
f 242 244 154
f 233 244 242
f 233 242 143
f 92 234 124
f 210 232 92
f 210 92 124
f 172 210 124
f 144 172 124
f 262 300 172
f 172 300 210
f 142 300 262
f 143 332 233
f 233 332 334
f 235 334 332
f 235 332 145
f 12 236 146
f 12 146 10
f 234 12 124
f 12 90 124
f 12 10 90
f 144 124 90
f 145 440 235
f 235 440 442
f 536 442 440
f 536 538 442
f 620 538 536
f 620 622 538
f 620 146 622
f 622 146 236
f 305 159 207
f 207 159 297
f 297 159 249
f 297 249 391
f 391 249 339
f 339 306 391
f 209 307 207
f 207 307 305
f 207 299 209
f 207 297 299
f 297 393 299
f 297 391 393
f 391 306 393
f 393 306 308
f 209 160 307
f 160 209 250
f 250 209 299
f 250 299 340
f 340 299 393
f 393 308 340
f 108 91 215
f 196 173 108
f 108 173 91
f 309 265 196
f 265 173 196
f 265 263 173
f 265 353 263
f 355 353 265
f 355 459 353
f 461 459 355
f 461 549 459
f 551 549 461
f 551 631 549
f 633 631 551
f 633 310 631
f 631 310 216
f 182 153 217
f 272 243 182
f 182 243 153
f 364 333 272
f 272 333 243
f 470 441 364
f 364 441 333
f 470 218 441
f 642 621 219
f 30 11 642
f 642 11 621
f 93 108 215
f 93 215 11
f 311 93 11
f 30 311 11
f 108 93 175
f 108 175 196
f 309 196 175
f 19 216 310
f 19 310 21
f 21 312 19
f 19 312 220
f 98 75 221
f 155 182 217
f 155 217 75
f 313 155 75
f 98 313 75
f 182 155 245
f 182 245 272
f 272 245 335
f 272 335 364
f 364 335 443
f 364 443 470
f 537 218 470
f 443 537 470
f 539 537 443
f 623 642 219
f 537 623 219
f 539 623 537
f 642 623 13
f 642 13 30
f 311 30 13
f 220 314 222
f 312 314 220
f 98 221 77
f 221 315 77
f 221 223 315
f 313 98 77
f 222 316 224
f 314 316 222
f 317 223 225
f 317 315 223
f 224 318 226
f 316 318 224
f 319 225 227
f 319 317 225
f 632 669 228
f 22 320 669
f 632 22 669
f 20 22 632
f 20 226 22
f 22 226 318
f 78 319 106
f 319 229 106
f 319 227 229
f 321 78 106
f 266 322 298
f 266 298 392
f 266 392 356
f 356 392 500
f 356 500 462
f 462 500 230
f 550 462 230
f 552 462 550
f 669 634 228
f 634 550 228
f 634 552 550
f 669 320 634
f 76 106 229
f 156 321 194
f 194 321 231
f 321 106 231
f 106 76 231
f 323 156 194
f 94 324 122
f 94 122 232
f 174 94 232
f 176 94 174
f 322 176 298
f 176 264 298
f 176 174 264
f 354 392 264
f 264 392 298
f 460 500 354
f 354 500 392
f 230 500 460
f 154 194 231
f 194 154 323
f 154 246 323
f 154 244 246
f 244 233 378
f 336 244 378
f 246 244 336
f 325 336 378
f 14 326 44
f 122 324 14
f 122 14 44
f 92 122 44
f 234 92 44
f 232 122 92
f 334 378 233
f 444 325 486
f 486 325 235
f 325 378 235
f 378 334 235
f 444 486 576
f 444 576 540
f 540 576 658
f 540 658 624
f 44 326 624
f 44 624 658
f 12 44 658
f 236 12 658
f 234 44 12
f 442 486 235
f 538 576 442
f 442 576 486
f 622 658 538
f 538 658 576
f 236 658 622
f 399 161 199
f 199 161 289
f 289 161 251
f 289 251 383
f 383 251 341
f 341 400 383
f 201 401 199
f 199 401 399
f 199 291 201
f 199 289 291
f 289 385 291
f 289 383 385
f 383 400 385
f 385 400 402
f 203 403 201
f 201 403 401
f 201 293 203
f 201 291 293
f 291 387 293
f 291 385 387
f 385 402 387
f 387 402 404
f 405 79 117
f 403 203 79
f 203 117 79
f 203 205 117
f 203 295 205
f 203 293 295
f 293 389 295
f 293 387 389
f 387 404 389
f 389 404 406
f 119 407 117
f 117 407 405
f 205 159 305
f 119 205 305
f 117 205 119
f 295 249 159
f 295 159 205
f 389 339 249
f 389 249 295
f 406 447 499
f 406 499 306
f 389 406 306
f 339 389 306
f 447 408 499
f 121 409 119
f 119 409 407
f 119 305 307
f 119 307 121
f 501 308 306
f 501 306 499
f 499 408 501
f 501 408 410
f 121 80 409
f 211 411 160
f 160 411 307
f 411 80 307
f 80 121 307
f 250 301 211
f 250 211 160
f 340 395 301
f 340 301 250
f 501 448 308
f 308 448 340
f 448 412 340
f 412 395 340
f 501 410 448
f 211 162 411
f 162 211 252
f 252 211 301
f 252 301 342
f 342 301 395
f 395 412 342
f 286 265 309
f 413 357 286
f 357 265 286
f 357 355 265
f 357 461 355
f 463 461 357
f 463 551 461
f 553 551 463
f 553 633 551
f 635 633 553
f 635 414 633
f 633 414 310
f 110 93 311
f 415 177 110
f 177 93 110
f 177 175 93
f 267 286 309
f 175 267 309
f 177 267 175
f 413 286 267
f 21 310 414
f 21 414 23
f 23 416 21
f 21 416 312
f 184 155 313
f 274 245 184
f 184 245 155
f 366 335 274
f 274 335 245
f 472 443 366
f 366 443 335
f 562 539 472
f 472 539 443
f 644 623 562
f 562 623 539
f 32 13 644
f 644 13 623
f 95 110 311
f 95 311 13
f 417 95 13
f 32 417 13
f 415 110 95
f 312 418 314
f 416 418 312
f 100 77 315
f 157 184 313
f 157 313 77
f 419 157 77
f 100 419 77
f 184 157 247
f 184 247 274
f 274 247 337
f 274 337 366
f 366 337 445
f 366 445 472
f 472 445 420
f 564 472 420
f 562 472 564
f 646 562 564
f 644 562 646
f 34 644 646
f 32 644 34
f 417 32 34
f 417 34 421
f 314 422 316
f 418 422 314
f 317 102 315
f 315 102 100
f 419 100 102
f 419 102 423
f 424 566 564
f 424 564 420
f 648 564 566
f 646 564 648
f 648 425 15
f 34 648 15
f 646 648 34
f 421 34 15
f 316 426 318
f 422 426 316
f 319 104 317
f 317 104 102
f 423 102 104
f 423 104 427
f 541 566 424
f 566 541 625
f 566 625 648
f 425 648 625
f 178 428 206
f 178 206 296
f 178 296 268
f 429 268 296
f 24 430 320
f 24 320 22
f 22 318 24
f 24 318 426
f 78 104 319
f 158 427 192
f 192 427 321
f 427 104 321
f 104 78 321
f 158 192 282
f 158 282 248
f 431 248 282
f 96 432 120
f 206 428 96
f 120 206 96
f 208 206 120
f 266 296 322
f 296 208 322
f 296 206 208
f 296 266 429
f 266 358 429
f 266 356 358
f 462 358 356
f 462 464 358
f 552 464 462
f 552 554 464
f 634 554 552
f 634 636 554
f 634 320 636
f 636 320 430
f 156 192 321
f 323 284 156
f 284 192 156
f 284 282 192
f 376 338 431
f 282 376 431
f 284 376 282
f 433 338 376
f 16 434 42
f 120 432 16
f 120 16 42
f 94 120 42
f 324 94 42
f 176 208 94
f 94 208 120
f 322 208 176
f 246 284 323
f 336 376 246
f 246 376 284
f 446 433 484
f 484 433 325
f 433 376 325
f 376 336 325
f 446 484 574
f 446 574 542
f 542 574 656
f 542 656 626
f 42 434 626
f 42 626 656
f 14 42 656
f 326 14 656
f 324 42 14
f 444 484 325
f 540 574 444
f 444 574 484
f 624 656 540
f 540 656 574
f 326 656 624
f 505 163 197
f 197 163 287
f 287 163 253
f 287 253 381
f 381 253 343
f 343 506 381
f 507 81 111
f 505 197 81
f 81 197 111
f 197 161 111
f 161 399 111
f 287 251 161
f 287 161 197
f 381 341 251
f 381 251 287
f 506 449 491
f 506 491 400
f 381 506 400
f 341 381 400
f 449 508 491
f 113 509 111
f 111 509 507
f 111 399 401
f 111 401 113
f 493 402 400
f 493 400 491
f 491 508 493
f 493 508 510
f 115 511 113
f 113 511 509
f 113 401 403
f 113 403 115
f 495 404 402
f 495 402 493
f 493 510 495
f 495 510 512
f 513 1 37
f 511 115 1
f 1 115 37
f 115 79 37
f 79 405 37
f 115 403 79
f 497 406 404
f 497 404 495
f 495 512 497
f 497 512 514
f 39 515 37
f 37 515 513
f 37 405 407
f 37 407 39
f 497 447 406
f 497 514 447
f 514 408 447
f 514 516 408
f 41 517 39
f 39 517 515
f 39 407 409
f 39 409 41
f 408 518 410
f 516 518 408
f 41 2 517
f 123 519 80
f 80 519 409
f 519 2 409
f 2 41 409
f 411 123 80
f 448 503 412
f 448 410 503
f 410 520 503
f 410 518 520
f 123 82 519
f 213 521 162
f 162 521 411
f 521 82 411
f 82 123 411
f 252 303 213
f 252 213 162
f 342 397 303
f 342 303 252
f 503 450 412
f 412 450 342
f 450 522 342
f 522 397 342
f 503 520 450
f 213 164 521
f 164 213 254
f 254 213 303
f 254 303 344
f 344 303 397
f 397 522 344
f 380 357 413
f 488 463 380
f 380 463 357
f 578 553 488
f 488 553 463
f 660 635 578
f 578 635 553
f 660 414 635
f 198 177 415
f 523 269 198
f 269 177 198
f 269 267 177
f 359 380 413
f 267 359 413
f 269 359 267
f 380 359 465
f 380 465 488
f 488 465 555
f 488 555 578
f 578 555 637
f 578 637 660
f 524 46 23
f 524 23 414
f 637 524 414
f 660 637 414
f 46 416 23
f 112 95 417
f 179 198 415
f 179 415 95
f 525 179 95
f 112 525 95
f 523 198 179
f 25 46 524
f 25 526 46
f 526 416 46
f 526 418 416
f 186 157 419
f 276 247 186
f 186 247 157
f 368 337 276
f 276 337 247
f 474 445 368
f 368 445 337
f 474 420 445
f 421 114 417
f 417 114 112
f 525 112 114
f 525 114 527
f 418 528 422
f 526 528 418
f 423 188 419
f 419 188 186
f 278 186 188
f 276 186 278
f 370 276 278
f 368 276 370
f 476 368 370
f 474 368 476
f 420 474 424
f 424 474 476
f 36 15 425
f 15 36 421
f 36 114 421
f 36 116 114
f 204 180 527
f 114 204 527
f 116 204 114
f 529 180 204
f 26 530 52
f 52 426 26
f 426 528 26
f 426 422 528
f 427 190 423
f 423 190 188
f 280 188 190
f 278 188 280
f 372 278 280
f 370 278 372
f 478 370 372
f 476 370 478
f 424 476 541
f 476 568 541
f 476 478 568
f 650 625 568
f 568 625 541
f 625 650 425
f 650 36 425
f 650 38 36
f 118 36 38
f 116 36 118
f 178 204 428
f 204 118 428
f 204 116 118
f 204 178 529
f 178 270 529
f 178 268 270
f 268 429 390
f 360 268 390
f 270 268 360
f 360 390 498
f 360 498 466
f 466 498 588
f 466 588 556
f 556 588 670
f 556 670 638
f 52 530 638
f 52 638 670
f 24 52 670
f 430 24 670
f 426 52 24
f 158 190 427
f 248 280 158
f 158 280 190
f 431 374 248
f 374 280 248
f 374 372 280
f 480 372 374
f 478 372 480
f 570 478 480
f 568 478 570
f 652 568 570
f 650 568 652
f 40 650 652
f 38 650 40
f 96 118 432
f 118 40 432
f 118 38 40
f 428 118 96
f 358 390 429
f 464 498 358
f 358 498 390
f 554 588 464
f 464 588 498
f 636 670 554
f 554 670 588
f 430 670 636
f 338 374 431
f 433 482 338
f 482 374 338
f 482 480 374
f 572 480 482
f 570 480 572
f 654 570 572
f 652 570 654
f 16 40 434
f 40 654 434
f 40 652 654
f 432 40 16
f 446 482 433
f 542 572 446
f 446 572 482
f 626 654 542
f 542 654 572
f 434 654 626
f 589 165 195
f 195 165 285
f 285 165 255
f 255 590 285
f 591 83 109
f 589 195 83
f 83 195 109
f 195 163 109
f 163 505 109
f 285 253 163
f 285 163 195
f 253 285 590
f 345 253 590
f 343 253 345
f 506 343 489
f 343 451 489
f 343 345 451
f 451 592 489
f 593 3 31
f 591 109 3
f 3 109 31
f 109 81 31
f 81 507 31
f 109 505 81
f 489 449 506
f 489 592 449
f 592 508 449
f 592 594 508
f 33 595 31
f 31 595 593
f 31 507 509
f 31 509 33
f 508 596 510
f 594 596 508
f 35 597 33
f 33 597 595
f 33 509 511
f 33 511 35
f 510 598 512
f 596 598 510
f 1 513 35
f 513 597 35
f 513 599 597
f 35 511 1
f 512 600 514
f 598 600 512
f 601 613 651
f 515 651 613
f 599 515 613
f 513 515 599
f 514 602 516
f 600 602 514
f 653 603 651
f 651 603 601
f 651 515 517
f 651 517 653
f 516 604 518
f 602 604 516
f 653 614 603
f 43 605 2
f 2 605 517
f 605 614 517
f 614 653 517
f 519 43 2
f 518 606 520
f 604 606 518
f 43 4 605
f 125 607 82
f 82 607 519
f 607 4 519
f 4 43 519
f 521 125 82
f 452 608 522
f 452 522 450
f 450 520 452
f 452 520 606
f 125 84 607
f 521 164 125
f 164 84 125
f 164 166 84
f 254 166 164
f 254 256 166
f 344 256 254
f 344 346 256
f 344 522 346
f 346 522 608
f 288 269 523
f 382 359 288
f 288 359 269
f 490 465 382
f 382 465 359
f 580 555 490
f 490 555 465
f 662 637 580
f 580 637 555
f 662 524 637
f 200 179 525
f 179 200 523
f 200 288 523
f 200 290 288
f 290 609 361
f 382 290 361
f 288 290 382
f 382 361 467
f 382 467 490
f 490 467 557
f 490 557 580
f 580 557 639
f 580 639 662
f 610 48 25
f 610 25 524
f 639 610 524
f 662 639 524
f 48 526 25
f 527 202 525
f 525 202 200
f 292 200 202
f 290 200 292
f 609 290 292
f 609 292 611
f 612 50 48
f 612 48 610
f 526 48 528
f 528 48 50
f 180 202 527
f 529 294 180
f 294 202 180
f 294 292 202
f 388 362 611
f 292 388 611
f 294 388 292
f 362 388 496
f 362 496 468
f 468 496 586
f 468 586 558
f 558 586 668
f 558 668 640
f 50 612 640
f 50 640 668
f 26 50 668
f 530 26 668
f 528 50 26
f 270 294 529
f 360 388 270
f 270 388 294
f 466 496 360
f 360 496 388
f 556 586 466
f 466 586 496
f 638 668 556
f 556 668 586
f 530 668 638
f 671 85 107
f 107 85 589
f 85 165 589
f 85 167 165
f 167 255 165
f 257 255 167
f 590 255 379
f 255 347 379
f 255 257 347
f 347 672 379
f 673 5 29
f 671 107 5
f 5 107 29
f 107 83 29
f 83 591 29
f 107 589 83
f 379 345 590
f 345 379 672
f 453 345 672
f 451 345 453
f 453 674 451
f 451 674 592
f 675 615 643
f 673 29 615
f 615 29 643
f 29 3 643
f 3 593 643
f 29 591 3
f 674 543 581
f 594 674 581
f 592 674 594
f 543 676 581
f 677 147 185
f 185 147 275
f 275 147 237
f 275 237 367
f 367 237 327
f 367 327 473
f 473 327 435
f 473 435 563
f 563 435 531
f 675 643 531
f 643 563 531
f 643 645 563
f 643 593 595
f 643 595 645
f 583 596 594
f 583 594 581
f 581 676 583
f 583 676 678
f 187 679 185
f 185 679 677
f 185 277 187
f 185 275 277
f 275 369 277
f 275 367 369
f 367 475 369
f 367 473 475
f 473 565 475
f 473 563 565
f 563 647 565
f 563 645 647
f 645 595 597
f 645 597 647
f 585 598 596
f 585 596 583
f 583 678 585
f 585 678 680
f 189 681 187
f 187 681 679
f 187 279 189
f 187 277 279
f 277 371 279
f 277 369 371
f 369 477 371
f 369 475 477
f 475 567 477
f 475 565 567
f 565 649 567
f 565 647 649
f 647 597 599
f 647 599 649
f 598 585 544
f 682 598 544
f 600 598 682
f 585 680 544
f 189 148 681
f 148 189 238
f 238 189 279
f 238 279 683
f 279 373 683
f 279 371 373
f 371 479 373
f 371 477 479
f 477 569 479
f 477 567 569
f 649 613 601
f 569 649 601
f 567 649 569
f 649 599 613
f 600 684 602
f 682 684 600
f 373 328 683
f 328 373 685
f 373 481 685
f 373 479 481
f 479 571 481
f 479 569 571
f 569 601 603
f 569 603 571
f 602 686 604
f 684 686 602
f 481 436 685
f 436 481 532
f 532 481 571
f 655 687 614
f 614 687 603
f 687 532 603
f 532 571 603
f 605 655 614
f 454 688 504
f 504 606 454
f 606 686 454
f 606 604 686
f 655 616 687
f 605 4 655
f 4 616 655
f 4 6 616
f 689 6 4
f 689 4 607
f 348 690 398
f 504 688 348
f 504 348 398
f 452 504 398
f 608 452 398
f 606 504 452
f 607 84 689
f 689 84 86
f 166 86 84
f 166 168 86
f 256 168 166
f 256 258 168
f 690 258 398
f 258 346 398
f 258 256 346
f 608 398 346
f 384 361 609
f 492 467 384
f 384 467 361
f 582 557 492
f 492 557 467
f 664 639 582
f 582 639 557
f 664 610 639
f 611 386 609
f 609 386 384
f 494 384 386
f 492 384 494
f 584 492 494
f 582 492 584
f 666 582 584
f 664 582 666
f 610 664 612
f 612 664 666
f 362 386 611
f 468 494 362
f 362 494 386
f 558 584 468
f 468 584 494
f 640 666 558
f 558 666 584
f 612 666 640
f 53 7 27
f 27 7 671
f 7 85 671
f 7 87 85
f 87 167 85
f 169 167 87
f 169 257 167
f 259 257 169
f 259 347 257
f 349 347 259
f 672 347 487
f 347 455 487
f 347 349 455
f 455 54 487
f 55 617 641
f 53 27 617
f 617 27 641
f 27 5 641
f 5 673 641
f 27 671 5
f 487 453 672
f 54 545 579
f 54 579 674
f 487 54 674
f 453 487 674
f 545 56 579
f 57 149 183
f 183 149 273
f 273 149 239
f 273 239 365
f 365 239 329
f 365 329 471
f 471 329 437
f 471 437 561
f 561 437 533
f 55 641 533
f 533 641 561
f 641 615 561
f 615 675 561
f 641 673 615
f 579 543 674
f 56 627 663
f 56 663 676
f 579 56 676
f 543 579 676
f 627 58 663
f 59 71 99
f 57 183 71
f 71 183 99
f 183 147 99
f 147 677 99
f 273 237 147
f 273 147 183
f 365 327 237
f 365 237 273
f 471 435 327
f 471 327 365
f 561 531 435
f 561 435 471
f 561 675 531
f 665 678 676
f 665 676 663
f 663 58 665
f 665 58 60
f 101 61 99
f 99 61 59
f 99 677 679
f 99 679 101
f 678 665 628
f 62 678 628
f 680 678 62
f 665 60 628
f 103 63 101
f 101 63 61
f 101 679 681
f 101 681 103
f 544 587 682
f 544 680 587
f 680 64 587
f 680 62 64
f 103 72 63
f 191 65 148
f 148 65 681
f 65 72 681
f 72 103 681
f 238 281 191
f 238 191 148
f 683 281 238
f 682 587 546
f 66 682 546
f 684 682 66
f 587 64 546
f 191 150 65
f 150 191 67
f 191 283 67
f 191 281 283
f 281 683 328
f 375 281 328
f 283 281 375
f 685 375 328
f 456 68 502
f 502 686 456
f 686 66 456
f 686 684 66
f 283 240 67
f 240 283 330
f 330 283 375
f 483 69 436
f 436 69 685
f 69 330 685
f 330 375 685
f 532 573 483
f 532 483 436
f 687 573 532
f 350 70 396
f 502 68 350
f 502 350 396
f 454 502 396
f 688 454 396
f 686 502 454
f 483 438 69
f 438 483 534
f 534 483 573
f 687 616 573
f 616 534 573
f 616 618 534
f 6 618 616
f 6 8 618
f 6 689 126
f 88 6 126
f 8 6 88
f 88 126 214
f 88 214 170
f 170 214 304
f 170 304 260
f 396 70 260
f 396 260 304
f 348 396 304
f 690 348 304
f 688 396 348
f 86 126 689
f 168 214 86
f 86 214 126
f 258 304 168
f 168 304 214
f 690 304 258
