# Converted from NanoShaper .vert/.face
v -15.728000 -3.667000 3.679000
v -13.419000 -3.667000 3.679000
v -16.208000 -3.667000 4.179000
v -13.030000 -3.667000 4.179000
v -16.336000 -3.667000 4.679000
v -12.938000 -3.667000 4.679000
v -16.273000 -3.667000 5.179000
v -12.925000 -3.667000 5.179000
v -16.156000 -3.667000 5.679000
v -13.038000 -3.667000 5.679000
v -15.703000 -3.667000 6.179000
v -13.476000 -3.667000 6.179000
v -15.087000 0.333000 1.679000
v -13.229000 0.333000 1.679000
v -15.445000 0.333000 2.179000
v -12.880000 0.333000 2.179000
v -15.695000 0.333000 2.679000
v -12.779000 0.333000 2.679000
v -15.818000 0.333000 3.179000
v -12.864000 0.333000 3.179000
v -15.762000 0.333000 3.679000
v -13.077000 0.333000 3.679000
v -15.695000 0.333000 4.179000
v -13.546000 0.333000 4.179000
v -15.907000 -3.667000 3.802000
v -15.907000 -3.667000 6.021000
v -15.407000 -3.667000 3.556000
v -15.407000 -3.667000 6.317000
v -14.907000 -3.667000 3.497000
v -14.907000 -3.667000 6.363000
v -14.407000 -3.667000 3.464000
v -14.407000 -3.667000 6.376000
v -13.907000 -3.667000 3.461000
v -13.907000 -3.667000 6.348000
v -13.407000 -3.667000 3.688000
v -13.407000 -3.667000 6.132000
v -15.407000 0.333000 2.101000
v -15.407000 0.333000 4.633000
v -14.907000 0.333000 1.541000
v -14.907000 0.333000 4.636000
v -14.407000 0.333000 1.342000
v -14.407000 0.333000 4.426000
v -13.907000 0.333000 1.342000
v -13.907000 0.333000 4.331000
v -13.407000 0.333000 1.541000
v -13.407000 0.333000 4.086000
v -12.907000 0.333000 2.116000
v -12.907000 0.333000 3.298000
v -15.907000 -1.239000 2.179000
v -15.907000 -0.544000 2.179000
v -15.407000 -1.949000 2.179000
v -15.407000 0.450000 2.179000
v -14.907000 -2.163000 2.179000
v -14.907000 1.154000 2.179000
v -14.407000 -2.162000 2.179000
v -14.407000 1.368000 2.179000
v -13.907000 -1.968000 2.179000
v -13.907000 1.368000 2.179000
v -13.407000 -1.615000 2.179000
v -13.407000 1.154000 2.179000
v -12.907000 -0.465000 2.179000
v -12.907000 0.449000 2.179000
v -16.407000 -2.726000 6.179000
v -16.407000 -0.883000 6.179000
v -15.907000 -3.500000 6.179000
v -15.907000 -0.284000 6.179000
v -15.407000 -3.818000 6.179000
v -15.407000 -0.074000 6.179000
v -14.907000 -3.875000 6.179000
v -14.907000 -0.063000 6.179000
v -14.407000 -3.896000 6.179000
v -14.407000 -0.244000 6.179000
v -13.907000 -3.887000 6.179000
v -13.907000 -0.666000 6.179000
v -13.407000 -3.600000 6.179000
v -13.407000 -1.340000 6.179000
v -16.056000 -3.167000 3.679000
v -13.149000 -3.167000 3.679000
v -16.417000 -3.167000 4.179000
v -12.838000 -3.167000 4.179000
v -16.526000 -3.167000 4.679000
v -12.759000 -3.167000 4.679000
v -16.480000 -3.167000 5.179000
v -12.739000 -3.167000 5.179000
v -16.388000 -3.167000 5.679000
v -12.835000 -3.167000 5.679000
v -16.203000 -3.167000 6.179000
v -13.175000 -3.167000 6.179000
v -15.753000 -3.167000 6.679000
v -14.003000 -3.167000 6.679000
v -14.767000 0.833000 1.679000
v -13.548000 0.833000 1.679000
v -15.226000 0.833000 2.179000
v -13.090000 0.833000 2.179000
v -15.345000 0.833000 2.679000
v -12.970000 0.833000 2.679000
v -15.294000 0.833000 3.179000
v -13.072000 0.833000 3.179000
v -14.974000 0.833000 3.679000
v -13.488000 0.833000 3.679000
v -16.407000 -3.167000 4.157000
v -16.407000 -3.167000 5.618000
v -15.907000 -3.167000 3.564000
v -15.907000 -3.167000 6.559000
v -15.407000 -3.167000 3.342000
v -15.407000 -3.167000 6.838000
v -14.907000 -3.167000 3.272000
v -14.907000 -3.167000 6.852000
v -14.407000 -3.167000 3.256000
v -14.407000 -3.167000 6.826000
v -13.907000 -3.167000 3.268000
v -13.907000 -3.167000 6.624000
v -13.407000 -3.167000 3.469000
v -13.407000 -3.167000 6.355000
v -12.907000 -3.167000 4.017000
v -12.907000 -3.167000 5.833000
v -14.907000 0.833000 1.777000
v -14.907000 0.833000 3.723000
v -14.407000 0.833000 1.537000
v -14.407000 0.833000 3.873000
v -13.907000 0.833000 1.537000
v -13.907000 0.833000 3.863000
v -13.407000 0.833000 1.778000
v -13.407000 0.833000 3.619000
v -15.907000 -1.630000 2.679000
v -15.907000 -0.077000 2.679000
v -15.407000 -2.256000 2.679000
v -15.407000 0.735000 2.679000
v -14.907000 -2.410000 2.679000
v -14.907000 1.274000 2.679000
v -14.407000 -2.413000 2.679000
v -14.407000 1.469000 2.679000
v -13.907000 -2.330000 2.679000
v -13.907000 1.469000 2.679000
v -13.407000 -2.059000 2.679000
v -13.407000 1.274000 2.679000
v -12.907000 -1.327000 2.679000
v -12.907000 0.722000 2.679000
v -16.407000 -2.434000 6.679000
v -16.407000 -1.107000 6.679000
v -15.907000 -3.048000 6.679000
v -15.907000 -0.374000 6.679000
v -15.407000 -3.341000 6.679000
v -15.407000 -0.150000 6.679000
v -14.907000 -3.369000 6.679000
v -14.907000 -0.138000 6.679000
v -14.407000 -3.370000 6.679000
v -14.407000 -0.331000 6.679000
v -13.907000 -3.072000 6.679000
v -13.907000 -0.923000 6.679000
v -15.748000 -2.667000 3.179000
v -13.514000 -2.667000 3.179000
v -16.218000 -2.667000 3.679000
v -13.047000 -2.667000 3.679000
v -16.500000 -2.667000 4.179000
v -12.837000 -2.667000 4.179000
v -16.579000 -2.667000 4.679000
v -12.749000 -2.667000 4.679000
v -16.512000 -2.667000 5.179000
v -12.746000 -2.667000 5.179000
v -16.516000 -2.667000 5.679000
v -12.843000 -2.667000 5.679000
v -16.428000 -2.667000 6.179000
v -13.182000 -2.667000 6.179000
v -16.271000 -2.667000 6.679000
v -13.701000 -2.667000 6.679000
v -15.855000 -2.667000 7.179000
v -14.554000 -2.667000 7.179000
v -14.544000 1.333000 2.179000
v -13.771000 1.333000 2.179000
v -14.805000 1.333000 2.679000
v -13.511000 1.333000 2.679000
v -14.591000 1.333000 3.179000
v -13.724000 1.333000 3.179000
v -16.407000 -2.667000 3.973000
v -16.407000 -2.667000 6.254000
v -15.907000 -2.667000 3.303000
v -15.907000 -2.667000 7.141000
v -15.407000 -2.667000 3.029000
v -15.407000 -2.667000 7.359000
v -14.907000 -2.667000 2.965000
v -14.907000 -2.667000 7.338000
v -14.407000 -2.667000 2.956000
v -14.407000 -2.667000 7.094000
v -13.907000 -2.667000 3.002000
v -13.907000 -2.667000 6.827000
v -13.407000 -2.667000 3.258000
v -13.407000 -2.667000 6.386000
v -12.907000 -2.667000 3.963000
v -12.907000 -2.667000 5.818000
v -14.407000 1.333000 2.101000
v -14.407000 1.333000 3.295000
v -13.907000 1.333000 2.101000
v -13.907000 1.333000 3.295000
v -15.907000 -2.498000 3.179000
v -15.907000 0.184000 3.179000
v -15.407000 -2.869000 3.179000
v -15.407000 0.738000 3.179000
v -14.907000 -2.967000 3.179000
v -14.907000 1.172000 3.179000
v -14.407000 -2.997000 3.179000
v -14.407000 1.383000 3.179000
v -13.907000 -2.949000 3.179000
v -13.907000 1.383000 3.179000
v -13.407000 -2.559000 3.179000
v -13.407000 1.172000 3.179000
v -12.907000 -1.761000 3.179000
v -12.907000 0.499000 3.179000
v -15.907000 -2.620000 7.179000
v -15.907000 -0.778000 7.179000
v -15.407000 -2.881000 7.179000
v -15.407000 -0.457000 7.179000
v -14.907000 -2.856000 7.179000
v -14.907000 -0.441000 7.179000
v -14.407000 -2.517000 7.179000
v -14.407000 -0.710000 7.179000
v -15.532000 -2.167000 2.679000
v -13.550000 -2.167000 2.679000
v -16.069000 -2.167000 3.179000
v -13.098000 -2.167000 3.179000
v -16.396000 -2.167000 3.679000
v -12.887000 -2.167000 3.679000
v -16.515000 -2.167000 4.179000
v -12.798000 -2.167000 4.179000
v -16.577000 -2.167000 4.679000
v -12.732000 -2.167000 4.679000
v -16.534000 -2.167000 5.179000
v -12.799000 -2.167000 5.179000
v -16.544000 -2.167000 5.679000
v -12.895000 -2.167000 5.679000
v -16.577000 -2.167000 6.179000
v -13.218000 -2.167000 6.179000
v -16.497000 -2.167000 6.679000
v -13.641000 -2.167000 6.679000
v -16.182000 -2.167000 7.179000
v -14.230000 -2.167000 7.179000
v -16.407000 -2.167000 3.711000
v -16.407000 -2.167000 6.876000
v -15.907000 -2.167000 3.025000
v -15.907000 -2.167000 7.394000
v -15.407000 -2.167000 2.570000
v -15.407000 -2.167000 7.572000
v -14.907000 -2.167000 2.189000
v -14.907000 -2.167000 7.554000
v -14.407000 -2.167000 2.191000
v -14.407000 -2.167000 7.330000
v -13.907000 -2.167000 2.484000
v -13.907000 -2.167000 6.893000
v -13.407000 -2.167000 2.796000
v -13.407000 -2.167000 6.392000
v -12.907000 -2.167000 3.621000
v -12.907000 -2.167000 5.712000
v -16.407000 -2.102000 3.679000
v -16.407000 -0.557000 3.679000
v -15.907000 -3.480000 3.679000
v -15.907000 0.189000 3.679000
v -15.407000 -3.831000 3.679000
v -15.407000 0.624000 3.679000
v -14.907000 -3.885000 3.679000
v -14.907000 0.860000 3.679000
v -14.407000 -3.934000 3.679000
v -14.407000 1.059000 3.679000
v -13.907000 -3.941000 3.679000
v -13.907000 1.059000 3.679000
v -13.407000 -3.655000 3.679000
v -13.407000 0.753000 3.679000
v -12.907000 -2.247000 3.679000
v -12.907000 0.012000 3.679000
v -15.203000 -1.667000 1.679000
v -14.117000 -1.667000 1.679000
v -15.697000 -1.667000 2.179000
v -13.455000 -1.667000 2.179000
v -15.892000 -1.667000 2.679000
v -13.062000 -1.667000 2.679000
v -16.134000 -1.667000 3.179000
v -12.883000 -1.667000 3.179000
v -16.412000 -1.667000 3.679000
v -12.774000 -1.667000 3.679000
v -16.516000 -1.667000 4.179000
v -12.759000 -1.667000 4.179000
v -16.566000 -1.667000 4.679000
v -12.750000 -1.667000 4.679000
v -16.526000 -1.667000 5.179000
v -12.827000 -1.667000 5.179000
v -16.534000 -1.667000 5.679000
v -12.923000 -1.667000 5.679000
v -16.588000 -1.667000 6.179000
v -13.251000 -1.667000 6.179000
v -16.509000 -1.667000 6.679000
v -13.663000 -1.667000 6.679000
v -16.197000 -1.667000 7.179000
v -14.123000 -1.667000 7.179000
v -16.407000 -1.667000 3.667000
v -16.407000 -1.667000 6.899000
v -15.907000 -1.667000 2.716000
v -15.907000 -1.667000 7.407000
v -15.407000 -1.667000 1.816000
v -15.407000 -1.667000 7.592000
v -14.907000 -1.667000 1.571000
v -14.907000 -1.667000 7.594000
v -14.407000 -1.667000 1.572000
v -14.407000 -1.667000 7.409000
v -13.907000 -1.667000 1.820000
v -13.907000 -1.667000 6.935000
v -13.407000 -1.667000 2.216000
v -13.407000 -1.667000 6.352000
v -12.907000 -1.667000 3.109000
v -12.907000 -1.667000 5.636000
v -16.407000 -3.214000 4.179000
v -16.407000 -0.335000 4.179000
v -15.907000 -3.973000 4.179000
v -15.907000 0.221000 4.179000
v -15.407000 -4.194000 4.179000
v -15.407000 0.444000 4.179000
v -14.907000 -4.208000 4.179000
v -14.907000 0.546000 4.179000
v -14.407000 -4.246000 4.179000
v -14.407000 0.524000 4.179000
v -13.907000 -4.252000 4.179000
v -13.907000 0.505000 4.179000
v -13.407000 -4.051000 4.179000
v -13.407000 0.212000 4.179000
v -12.907000 -3.424000 4.179000
v -12.907000 -0.614000 4.179000
v -15.566000 -1.167000 1.679000
v -13.652000 -1.167000 1.679000
v -15.925000 -1.167000 2.179000
v -13.143000 -1.167000 2.179000
v -16.037000 -1.167000 2.679000
v -12.871000 -1.167000 2.679000
v -16.186000 -1.167000 3.179000
v -12.789000 -1.167000 3.179000
v -16.454000 -1.167000 3.679000
v -12.775000 -1.167000 3.679000
v -16.540000 -1.167000 4.179000
v -12.774000 -1.167000 4.179000
v -16.567000 -1.167000 4.679000
v -12.794000 -1.167000 4.679000
v -16.499000 -1.167000 5.179000
v -12.899000 -1.167000 5.179000
v -16.492000 -1.167000 5.679000
v -13.144000 -1.167000 5.679000
v -16.497000 -1.167000 6.179000
v -13.529000 -1.167000 6.179000
v -16.422000 -1.167000 6.679000
v -13.822000 -1.167000 6.679000
v -16.115000 -1.167000 7.179000
v -14.137000 -1.167000 7.179000
v -16.407000 -1.167000 3.568000
v -16.407000 -1.167000 6.718000
v -15.907000 -1.167000 2.138000
v -15.907000 -1.167000 7.356000
v -15.407000 -1.167000 1.559000
v -15.407000 -1.167000 7.571000
v -14.907000 -1.167000 1.360000
v -14.907000 -1.167000 7.583000
v -14.407000 -1.167000 1.361000
v -14.407000 -1.167000 7.397000
v -13.907000 -1.167000 1.541000
v -13.907000 -1.167000 6.859000
v -13.407000 -1.167000 1.862000
v -13.407000 -1.167000 6.041000
v -12.907000 -1.167000 2.588000
v -12.907000 -1.167000 5.200000
v -16.407000 -3.536000 4.679000
v -16.407000 -0.597000 4.679000
v -15.907000 -4.103000 4.679000
v -15.907000 0.099000 4.679000
v -15.407000 -4.303000 4.679000
v -15.407000 0.315000 4.679000
v -14.907000 -4.311000 4.679000
v -14.907000 0.316000 4.679000
v -14.407000 -4.330000 4.679000
v -14.407000 0.149000 4.679000
v -13.907000 -4.332000 4.679000
v -13.907000 0.060000 4.679000
v -13.407000 -4.144000 4.679000
v -13.407000 -0.184000 4.679000
v -12.907000 -3.612000 4.679000
v -12.907000 -0.811000 4.679000
v -15.579000 -0.667000 1.679000
v -13.286000 -0.667000 1.679000
v -15.935000 -0.667000 2.179000
v -12.938000 -0.667000 2.179000
v -16.044000 -0.667000 2.679000
v -12.826000 -0.667000 2.679000
v -16.176000 -0.667000 3.179000
v -12.751000 -0.667000 3.179000
v -16.437000 -0.667000 3.679000
v -12.798000 -0.667000 3.679000
v -16.523000 -0.667000 4.179000
v -12.893000 -0.667000 4.179000
v -16.433000 -0.667000 4.679000
v -12.985000 -0.667000 4.679000
v -16.309000 -0.667000 5.179000
v -13.111000 -0.667000 5.179000
v -16.297000 -0.667000 5.679000
v -13.556000 -0.667000 5.679000
v -16.289000 -0.667000 6.179000
v -13.907000 -0.667000 6.179000
v -16.199000 -0.667000 6.679000
v -14.053000 -0.667000 6.679000
v -15.797000 -0.667000 7.179000
v -14.455000 -0.667000 7.179000
v -16.407000 -0.667000 3.605000
v -16.407000 -0.667000 4.777000
v -15.907000 -0.667000 2.116000
v -15.907000 -0.667000 7.090000
v -15.407000 -0.667000 1.548000
v -15.407000 -0.667000 7.357000
v -14.907000 -0.667000 1.351000
v -14.907000 -0.667000 7.371000
v -14.407000 -0.667000 1.320000
v -14.407000 -0.667000 7.144000
v -13.907000 -0.667000 1.355000
v -13.907000 -0.667000 6.181000
v -13.407000 -0.667000 1.580000
v -13.407000 -0.667000 5.556000
v -12.907000 -0.667000 2.263000
v -12.907000 -0.667000 4.236000
v -16.407000 -3.411000 5.179000
v -16.407000 -0.856000 5.179000
v -15.907000 -4.038000 5.179000
v -15.907000 -0.179000 5.179000
v -15.407000 -4.255000 5.179000
v -15.407000 0.060000 5.179000
v -14.907000 -4.335000 5.179000
v -14.907000 0.068000 5.179000
v -14.407000 -4.347000 5.179000
v -14.407000 -0.082000 5.179000
v -13.907000 -4.321000 5.179000
v -13.907000 -0.143000 5.179000
v -13.407000 -4.143000 5.179000
v -13.407000 -0.365000 5.179000
v -12.907000 -3.637000 5.179000
v -12.907000 -1.125000 5.179000
v -15.517000 -4.167000 4.179000
v -13.622000 -4.167000 4.179000
v -15.798000 -4.167000 4.679000
v -13.446000 -4.167000 4.679000
v -15.678000 -4.167000 5.179000
v -13.450000 -4.167000 5.179000
v -15.368000 -4.167000 5.679000
v -13.682000 -4.167000 5.679000
v -15.290000 -0.167000 1.679000
v -13.229000 -0.167000 1.679000
v -15.733000 -0.167000 2.179000
v -12.883000 -0.167000 2.179000
v -15.933000 -0.167000 2.679000
v -12.778000 -0.167000 2.679000
v -16.052000 -0.167000 3.179000
v -12.756000 -0.167000 3.179000
v -16.206000 -0.167000 3.679000
v -12.857000 -0.167000 3.679000
v -16.308000 -0.167000 4.179000
v -13.113000 -0.167000 4.179000
v -16.184000 -0.167000 4.679000
v -13.430000 -0.167000 4.679000
v -15.892000 -0.167000 5.179000
v -13.811000 -0.167000 5.179000
v -15.747000 -0.167000 5.679000
v -14.462000 -0.167000 5.679000
v -15.696000 -0.167000 6.179000
v -14.556000 -0.167000 6.179000
v -15.477000 -0.167000 6.679000
v -14.775000 -0.167000 6.679000
v -15.407000 -4.167000 4.118000
v -15.407000 -4.167000 5.656000
v -14.907000 -4.167000 4.084000
v -14.907000 -4.167000 5.806000
v -14.407000 -4.167000 3.999000
v -14.407000 -4.167000 5.837000
v -13.907000 -4.167000 3.987000
v -13.907000 -4.167000 5.807000
v -15.907000 -0.167000 2.611000
v -15.907000 -0.167000 5.147000
v -15.407000 -0.167000 1.770000
v -15.407000 -0.167000 6.726000
v -14.907000 -0.167000 1.472000
v -14.907000 -0.167000 6.756000
v -14.407000 -0.167000 1.318000
v -14.407000 -0.167000 5.561000
v -13.907000 -0.167000 1.331000
v -13.907000 -0.167000 5.233000
v -13.407000 -0.167000 1.538000
v -13.407000 -0.167000 4.644000
v -12.907000 -0.167000 2.122000
v -12.907000 -0.167000 3.790000
v -15.407000 -1.472000 1.679000
v -15.407000 -0.311000 1.679000
v -14.907000 -1.805000 1.679000
v -14.907000 0.691000 1.679000
v -14.407000 -1.804000 1.679000
v -14.407000 1.018000 1.679000
v -13.907000 -1.466000 1.679000
v -13.907000 1.018000 1.679000
v -13.407000 -0.916000 1.679000
v -13.407000 0.690000 1.679000
v -16.407000 -3.100000 5.679000
v -16.407000 -0.879000 5.679000
v -15.907000 -3.920000 5.679000
v -15.907000 -0.262000 5.679000
v -15.407000 -4.158000 5.679000
v -15.407000 -0.047000 5.679000
v -14.907000 -4.228000 5.679000
v -14.907000 -0.031000 5.679000
v -14.407000 -4.243000 5.679000
v -14.407000 -0.189000 5.679000
v -13.907000 -4.225000 5.679000
v -13.907000 -0.408000 5.679000
v -13.407000 -4.031000 5.679000
v -13.407000 -0.827000 5.679000
v -12.907000 -3.420000 5.679000
v -12.907000 -1.751000 5.679000
f 125 329 49
f 49 329 327
f 329 383 327
f 385 383 329
f 50 383 475
f 383 449 475
f 383 385 449
f 449 126 475
f 127 217 241
f 241 217 51
f 217 271 51
f 217 273 271
f 49 271 273
f 49 273 125
f 475 447 50
f 447 475 126
f 17 447 126
f 15 447 17
f 17 128 15
f 15 128 52
f 243 129 241
f 241 129 127
f 241 51 53
f 241 53 243
f 93 52 128
f 93 128 95
f 95 130 93
f 93 130 54
f 245 131 243
f 243 131 129
f 243 53 55
f 243 55 245
f 169 54 130
f 169 130 171
f 171 132 169
f 169 132 56
f 247 133 245
f 245 133 131
f 245 55 57
f 245 57 247
f 56 134 58
f 132 134 56
f 247 218 133
f 305 135 272
f 272 135 57
f 135 218 57
f 218 247 57
f 59 305 272
f 172 136 60
f 172 60 170
f 170 58 172
f 172 58 134
f 305 274 135
f 363 137 328
f 328 137 59
f 137 274 59
f 274 305 59
f 384 419 363
f 384 363 328
f 61 419 384
f 96 138 62
f 96 62 94
f 94 60 96
f 96 60 136
f 363 330 137
f 330 363 386
f 386 363 419
f 61 448 419
f 448 386 419
f 448 450 386
f 16 450 448
f 16 18 450
f 16 62 18
f 18 62 138
f 176 163 63
f 139 233 176
f 233 163 176
f 233 231 163
f 233 287 231
f 289 287 233
f 289 343 287
f 345 343 289
f 345 140 343
f 343 140 64
f 104 87 65
f 165 176 63
f 165 63 87
f 141 165 87
f 104 141 87
f 139 176 165
f 399 64 140
f 399 140 401
f 401 142 399
f 399 142 66
f 28 11 67
f 89 104 65
f 89 65 11
f 143 89 11
f 28 143 11
f 141 104 89
f 463 66 142
f 463 142 465
f 465 144 463
f 463 144 68
f 69 30 67
f 67 30 28
f 143 28 30
f 143 30 145
f 68 146 70
f 144 146 68
f 71 32 69
f 69 32 30
f 145 30 32
f 145 32 147
f 466 148 72
f 466 72 464
f 464 70 466
f 466 70 146
f 73 34 71
f 71 34 32
f 112 90 147
f 32 112 147
f 34 112 32
f 149 90 112
f 402 150 416
f 416 74 402
f 74 148 402
f 74 72 148
f 12 34 73
f 75 114 12
f 114 34 12
f 114 112 34
f 188 166 149
f 112 188 149
f 114 188 112
f 166 188 250
f 166 250 234
f 234 250 306
f 234 306 290
f 290 306 76
f 344 290 76
f 346 290 344
f 150 346 416
f 346 400 416
f 346 344 400
f 74 416 400
f 88 114 75
f 164 188 88
f 88 188 114
f 232 250 164
f 164 250 188
f 288 306 232
f 232 306 250
f 76 306 288
f 195 219 239
f 239 219 295
f 295 219 275
f 295 275 125
f 275 329 125
f 275 331 329
f 331 385 329
f 387 385 331
f 387 449 385
f 451 449 387
f 451 196 449
f 449 196 126
f 197 151 179
f 195 239 151
f 151 239 179
f 239 217 179
f 217 127 179
f 295 273 217
f 295 217 239
f 295 125 273
f 17 126 196
f 17 196 19
f 19 198 17
f 17 198 128
f 181 199 179
f 179 199 197
f 179 127 129
f 179 129 181
f 95 128 198
f 95 198 97
f 97 200 95
f 95 200 130
f 183 201 181
f 181 201 199
f 181 129 131
f 181 131 183
f 171 130 200
f 171 200 173
f 173 202 171
f 171 202 132
f 185 203 183
f 183 203 201
f 183 131 133
f 183 133 185
f 132 204 134
f 202 204 132
f 185 152 203
f 249 205 218
f 218 205 133
f 205 152 133
f 152 185 133
f 135 249 218
f 174 206 136
f 174 136 172
f 172 134 174
f 174 134 204
f 249 220 205
f 307 207 274
f 274 207 135
f 207 220 135
f 220 249 135
f 137 307 274
f 98 208 138
f 98 138 96
f 96 136 98
f 98 136 206
f 307 276 207
f 137 330 307
f 330 276 307
f 330 332 276
f 386 332 330
f 386 388 332
f 450 388 386
f 450 452 388
f 18 452 450
f 18 20 452
f 18 138 20
f 20 138 208
f 238 233 139
f 294 289 238
f 238 289 233
f 350 345 294
f 294 345 289
f 350 140 345
f 178 165 141
f 235 238 139
f 235 139 165
f 209 235 165
f 178 209 165
f 238 235 291
f 238 291 294
f 294 291 347
f 294 347 350
f 210 408 401
f 210 401 140
f 347 210 140
f 350 347 140
f 408 142 401
f 106 89 143
f 167 178 141
f 167 141 89
f 211 167 89
f 106 211 89
f 209 178 167
f 403 408 210
f 212 478 465
f 212 465 142
f 403 212 142
f 408 403 142
f 478 144 465
f 145 108 143
f 143 108 106
f 211 106 108
f 211 108 213
f 214 480 478
f 214 478 212
f 144 478 146
f 146 478 480
f 147 110 145
f 145 110 108
f 184 168 213
f 108 184 213
f 110 184 108
f 215 168 184
f 404 216 414
f 480 214 404
f 480 404 414
f 466 480 414
f 148 466 414
f 146 480 466
f 90 110 147
f 149 186 90
f 186 110 90
f 186 184 110
f 248 236 215
f 184 248 215
f 186 248 184
f 236 248 304
f 236 304 292
f 292 304 360
f 292 360 348
f 414 216 348
f 414 348 360
f 402 414 360
f 150 402 360
f 148 414 402
f 166 186 149
f 234 248 166
f 166 248 186
f 290 304 234
f 234 304 248
f 346 360 290
f 290 360 304
f 150 360 346
f 253 277 293
f 293 277 349
f 349 277 333
f 349 333 405
f 405 333 389
f 389 254 405
f 255 77 103
f 103 77 177
f 177 77 153
f 177 153 195
f 153 219 195
f 153 221 219
f 221 253 293
f 275 221 293
f 219 221 275
f 349 331 275
f 349 275 293
f 405 387 331
f 405 331 349
f 387 405 254
f 453 387 254
f 451 387 453
f 453 256 451
f 451 256 196
f 257 1 27
f 255 103 1
f 103 27 1
f 103 105 27
f 177 151 197
f 105 177 197
f 103 177 105
f 177 195 151
f 19 196 256
f 19 256 21
f 21 258 19
f 19 258 198
f 29 259 27
f 27 259 257
f 27 107 29
f 27 105 107
f 105 197 199
f 105 199 107
f 97 198 258
f 97 258 99
f 99 260 97
f 97 260 200
f 31 261 29
f 29 261 259
f 29 109 31
f 29 107 109
f 107 199 201
f 107 201 109
f 262 192 173
f 200 262 173
f 260 262 200
f 192 202 173
f 33 263 31
f 31 263 261
f 31 111 33
f 31 109 111
f 109 201 203
f 109 203 111
f 264 194 192
f 264 192 262
f 202 192 204
f 204 192 194
f 33 2 263
f 2 33 265
f 33 113 265
f 33 111 113
f 111 203 152
f 187 111 152
f 113 111 187
f 205 187 152
f 100 266 124
f 194 264 100
f 194 100 124
f 174 194 124
f 206 174 124
f 204 194 174
f 113 78 265
f 78 113 154
f 154 113 187
f 251 267 220
f 220 267 205
f 267 154 205
f 154 187 205
f 207 251 220
f 22 268 48
f 124 266 22
f 124 22 48
f 98 124 48
f 208 98 48
f 206 124 98
f 251 222 267
f 207 276 251
f 276 222 251
f 276 278 222
f 332 278 276
f 332 334 278
f 388 334 332
f 388 390 334
f 452 390 388
f 452 454 390
f 268 454 48
f 454 20 48
f 454 452 20
f 208 48 20
f 240 235 209
f 296 291 240
f 240 291 235
f 352 347 296
f 296 347 291
f 352 210 347
f 180 167 211
f 167 180 209
f 180 240 209
f 180 242 240
f 298 240 242
f 296 240 298
f 354 296 298
f 352 296 354
f 210 352 403
f 352 410 403
f 352 354 410
f 410 212 403
f 213 182 211
f 211 182 180
f 244 180 182
f 242 180 244
f 300 242 244
f 298 242 300
f 356 298 300
f 354 298 356
f 412 354 356
f 410 354 412
f 212 410 214
f 214 410 412
f 168 182 213
f 215 246 168
f 246 182 168
f 246 244 182
f 302 244 246
f 300 244 302
f 358 300 302
f 356 300 358
f 404 412 216
f 412 358 216
f 412 356 358
f 214 412 404
f 236 246 215
f 292 302 236
f 236 302 246
f 348 358 292
f 292 358 302
f 216 358 348
f 309 79 101
f 101 79 175
f 175 79 155
f 175 155 237
f 237 155 223
f 237 223 253
f 223 277 253
f 223 279 277
f 279 333 277
f 335 333 279
f 335 389 333
f 391 389 335
f 391 310 389
f 389 310 254
f 311 3 25
f 309 101 3
f 3 101 25
f 101 77 25
f 77 255 25
f 175 153 77
f 175 77 101
f 237 221 153
f 237 153 175
f 237 253 221
f 453 254 310
f 453 310 455
f 455 312 453
f 453 312 256
f 313 437 467
f 311 25 437
f 437 25 467
f 25 1 467
f 1 257 467
f 25 255 1
f 21 256 312
f 21 312 23
f 23 314 21
f 21 314 258
f 469 315 467
f 467 315 313
f 467 257 259
f 467 259 469
f 316 118 99
f 258 316 99
f 314 316 258
f 118 260 99
f 471 317 469
f 469 317 315
f 469 259 261
f 469 261 471
f 318 120 118
f 318 118 316
f 260 118 262
f 262 118 120
f 473 319 471
f 471 319 317
f 471 261 263
f 471 263 473
f 320 122 120
f 320 120 318
f 262 120 264
f 264 120 122
f 473 438 319
f 35 321 2
f 2 321 263
f 321 438 263
f 438 473 263
f 265 35 2
f 24 322 46
f 122 320 24
f 122 24 46
f 100 122 46
f 266 100 46
f 264 122 100
f 35 4 321
f 115 323 78
f 78 323 265
f 323 4 265
f 4 35 265
f 154 189 115
f 154 115 78
f 267 189 154
f 456 324 488
f 46 322 456
f 46 456 488
f 22 46 488
f 268 22 488
f 266 46 22
f 115 80 323
f 80 115 156
f 156 115 189
f 267 222 189
f 222 156 189
f 222 224 156
f 278 224 222
f 278 280 224
f 334 280 278
f 334 336 280
f 390 336 334
f 390 392 336
f 324 392 488
f 392 454 488
f 392 390 454
f 268 488 454
f 365 81 309
f 309 81 79
f 81 155 79
f 157 155 81
f 157 223 155
f 225 223 157
f 225 279 223
f 281 279 225
f 281 335 279
f 337 335 281
f 337 391 335
f 393 391 337
f 393 366 391
f 391 366 310
f 367 5 311
f 311 5 3
f 309 3 5
f 309 5 365
f 455 310 366
f 455 366 457
f 457 368 455
f 455 368 312
f 369 439 313
f 313 439 437
f 311 437 439
f 311 439 367
f 370 38 23
f 312 370 23
f 368 370 312
f 38 314 23
f 371 313 315
f 371 369 313
f 372 40 38
f 372 38 370
f 314 38 316
f 316 38 40
f 373 315 317
f 373 371 315
f 374 42 40
f 374 40 372
f 316 40 318
f 318 40 42
f 375 317 319
f 375 373 317
f 376 44 42
f 376 42 374
f 318 42 320
f 320 42 44
f 319 438 375
f 375 438 440
f 377 440 438
f 377 438 321
f 458 378 486
f 44 376 458
f 44 458 486
f 24 44 486
f 322 24 486
f 320 44 24
f 321 4 377
f 377 4 6
f 379 6 4
f 379 4 323
f 394 380 420
f 486 378 394
f 486 394 420
f 456 486 420
f 324 456 420
f 322 486 456
f 323 80 379
f 379 80 82
f 156 82 80
f 156 158 82
f 224 158 156
f 224 226 158
f 280 226 224
f 280 282 226
f 336 282 280
f 336 338 282
f 380 338 420
f 338 392 420
f 338 336 392
f 324 420 392
f 421 83 365
f 365 83 81
f 83 157 81
f 159 157 83
f 159 225 157
f 227 225 159
f 227 281 225
f 283 281 227
f 283 337 281
f 339 337 283
f 406 393 422
f 393 339 422
f 393 337 339
f 406 366 393
f 423 7 367
f 367 7 5
f 365 5 7
f 365 7 421
f 395 406 422
f 424 476 457
f 424 457 366
f 395 424 366
f 406 395 366
f 476 368 457
f 425 441 369
f 369 441 439
f 367 439 441
f 367 441 423
f 459 476 424
f 459 426 476
f 426 368 476
f 426 370 368
f 427 369 371
f 427 425 369
f 370 428 372
f 426 428 370
f 429 371 373
f 429 427 371
f 372 430 374
f 428 430 372
f 431 373 375
f 431 429 373
f 374 432 376
f 430 432 374
f 375 440 431
f 431 440 442
f 433 442 440
f 433 440 377
f 460 434 378
f 460 378 458
f 458 376 460
f 460 376 432
f 377 6 433
f 433 6 8
f 435 8 6
f 435 6 379
f 396 436 380
f 396 380 394
f 394 378 396
f 396 378 434
f 379 82 435
f 435 82 84
f 158 84 82
f 158 160 84
f 226 160 158
f 226 228 160
f 282 228 226
f 282 284 228
f 338 284 282
f 338 340 284
f 338 380 340
f 340 380 436
f 489 325 353
f 353 325 409
f 409 325 381
f 381 490 409
f 491 269 299
f 489 353 269
f 353 299 269
f 353 355 299
f 353 411 355
f 353 409 411
f 445 479 490
f 479 409 490
f 479 411 409
f 479 445 39
f 39 445 13
f 13 492 39
f 301 493 299
f 299 493 491
f 299 357 301
f 299 355 357
f 355 413 357
f 355 411 413
f 411 481 413
f 411 479 481
f 479 41 481
f 479 39 41
f 91 119 492
f 119 39 492
f 119 41 39
f 91 494 119
f 301 270 493
f 270 301 495
f 301 359 495
f 301 357 359
f 357 415 359
f 357 413 415
f 413 483 415
f 413 481 483
f 481 43 483
f 481 41 43
f 41 121 43
f 41 119 121
f 119 494 121
f 121 494 496
f 359 326 495
f 326 359 497
f 359 417 497
f 359 415 417
f 415 485 417
f 415 483 485
f 483 45 485
f 483 43 45
f 498 45 92
f 45 121 92
f 45 43 121
f 121 496 92
f 417 382 497
f 382 417 446
f 446 417 485
f 446 485 14
f 14 485 45
f 45 498 14
f 102 83 421
f 499 161 102
f 161 83 102
f 161 159 83
f 161 227 159
f 229 227 161
f 229 283 227
f 285 283 229
f 285 339 283
f 341 339 285
f 341 500 339
f 339 500 422
f 501 9 423
f 423 9 7
f 85 102 421
f 7 85 421
f 9 85 7
f 499 102 85
f 395 422 500
f 395 500 397
f 397 502 395
f 395 502 424
f 468 441 425
f 423 441 468
f 503 423 468
f 501 423 503
f 459 424 502
f 459 502 461
f 461 504 459
f 459 504 426
f 468 425 443
f 425 505 443
f 425 427 505
f 503 468 443
f 426 506 428
f 504 506 426
f 507 427 429
f 507 505 427
f 462 508 482
f 482 430 462
f 430 506 462
f 430 428 506
f 509 429 431
f 509 507 429
f 510 484 482
f 510 482 508
f 430 482 432
f 432 482 484
f 431 442 509
f 509 442 444
f 511 444 442
f 511 442 433
f 398 512 418
f 484 510 398
f 484 398 418
f 460 484 418
f 434 460 418
f 432 484 460
f 433 8 511
f 511 8 10
f 513 10 8
f 513 8 435
f 286 514 308
f 286 308 364
f 286 364 342
f 418 512 342
f 418 342 364
f 396 418 364
f 436 396 364
f 434 418 396
f 435 84 513
f 513 84 86
f 160 86 84
f 160 162 86
f 228 162 160
f 228 230 162
f 514 230 308
f 230 284 308
f 230 228 284
f 340 364 284
f 284 364 308
f 436 364 340
f 49 327 351
f 351 327 407
f 407 327 383
f 383 50 407
f 51 271 297
f 49 351 271
f 271 351 297
f 351 325 297
f 325 489 297
f 407 381 325
f 407 325 351
f 50 447 477
f 50 477 490
f 407 50 490
f 381 407 490
f 477 447 37
f 37 447 15
f 15 52 37
f 269 491 297
f 491 51 297
f 491 53 51
f 297 489 269
f 477 445 490
f 37 13 445
f 37 445 477
f 52 93 117
f 52 117 492
f 37 52 492
f 13 37 492
f 93 54 117
f 55 491 493
f 55 53 491
f 117 91 492
f 54 169 191
f 54 191 494
f 117 54 494
f 91 117 494
f 169 56 191
f 303 57 270
f 57 493 270
f 57 55 493
f 495 303 270
f 193 496 494
f 193 494 191
f 191 56 193
f 193 56 58
f 303 272 57
f 361 59 326
f 326 59 495
f 59 272 495
f 272 303 495
f 497 361 326
f 92 123 498
f 193 170 496
f 496 170 92
f 170 60 92
f 60 123 92
f 193 58 170
f 361 328 59
f 497 382 361
f 382 328 361
f 382 384 328
f 446 487 61
f 384 446 61
f 382 446 384
f 14 47 487
f 14 487 446
f 123 94 498
f 498 94 14
f 94 62 14
f 62 47 14
f 123 60 94
f 487 448 61
f 448 487 16
f 16 487 47
f 47 62 16
f 63 163 499
f 499 163 161
f 163 229 161
f 231 229 163
f 231 285 229
f 287 285 231
f 287 341 285
f 343 341 287
f 343 64 341
f 341 64 500
f 26 9 501
f 65 87 26
f 87 9 26
f 87 85 9
f 499 85 87
f 499 87 63
f 397 500 64
f 397 64 399
f 399 66 397
f 397 66 502
f 26 501 11
f 501 67 11
f 501 503 67
f 65 26 11
f 461 502 66
f 461 66 463
f 463 68 461
f 461 68 504
f 470 443 505
f 503 443 470
f 69 503 470
f 67 503 69
f 504 70 506
f 68 70 504
f 507 472 505
f 505 472 470
f 69 470 472
f 69 472 71
f 464 72 508
f 464 508 462
f 462 506 464
f 464 506 70
f 509 474 507
f 507 474 472
f 71 472 474
f 71 474 73
f 508 74 510
f 72 74 508
f 444 474 509
f 12 73 36
f 36 73 511
f 73 474 511
f 474 444 511
f 75 12 36
f 344 76 362
f 344 362 512
f 398 344 512
f 400 344 398
f 398 510 400
f 400 510 74
f 10 36 511
f 88 75 116
f 116 75 513
f 75 36 513
f 36 10 513
f 88 116 190
f 88 190 164
f 164 190 252
f 164 252 232
f 232 252 514
f 286 232 514
f 288 232 286
f 76 288 362
f 288 342 362
f 288 286 342
f 512 362 342
f 86 116 513
f 162 190 86
f 86 190 116
f 230 252 162
f 162 252 190
f 514 252 230
