# Converted from NanoShaper .vert/.face
v 7.789000 11.333000 10.929000
v 9.701000 11.333000 10.929000
v 6.991000 11.333000 11.429000
v 10.012000 11.333000 11.429000
v 6.727000 11.333000 11.929000
v 10.214000 11.333000 11.929000
v 6.716000 11.333000 12.429000
v 10.246000 11.333000 12.429000
v 6.949000 11.333000 12.929000
v 10.116000 11.333000 12.929000
v 7.974000 11.333000 13.429000
v 9.746000 11.333000 13.429000
v 7.093000 11.333000 11.329000
v 7.093000 11.333000 13.078000
v 7.593000 11.333000 11.032000
v 7.593000 11.333000 13.337000
v 8.093000 11.333000 10.743000
v 8.093000 11.333000 13.464000
v 8.593000 11.333000 10.504000
v 8.593000 11.333000 13.565000
v 9.093000 11.333000 10.509000
v 9.093000 11.333000 13.589000
v 9.593000 11.333000 10.815000
v 9.593000 11.333000 13.507000
v 10.093000 11.333000 11.582000
v 10.093000 11.333000 12.982000
v 8.093000 8.157000 9.929000
v 8.093000 10.526000 9.929000
v 8.593000 7.901000 9.929000
v 8.593000 10.782000 9.929000
v 9.093000 7.891000 9.929000
v 9.093000 10.790000 9.929000
v 9.593000 8.120000 9.929000
v 9.593000 10.550000 9.929000
v 7.593000 9.087000 13.929000
v 7.593000 10.610000 13.929000
v 8.093000 9.034000 13.929000
v 8.093000 10.642000 13.929000
v 8.593000 8.951000 13.929000
v 8.593000 10.663000 13.929000
v 9.093000 8.842000 13.929000
v 9.093000 10.762000 13.929000
v 9.593000 8.721000 13.929000
v 9.593000 10.859000 13.929000
v 10.093000 8.592000 13.929000
v 10.093000 10.921000 13.929000
v 10.593000 8.456000 13.929000
v 10.593000 10.859000 13.929000
v 11.093000 8.445000 13.929000
v 11.093000 10.725000 13.929000
v 11.593000 8.677000 13.929000
v 11.593000 10.478000 13.929000
v 8.217000 7.833000 10.429000
v 9.513000 7.833000 10.429000
v 8.212000 7.833000 10.929000
v 9.517000 7.833000 10.929000
v 8.353000 7.833000 11.429000
v 9.407000 7.833000 11.429000
v 7.942000 11.833000 11.429000
v 9.746000 11.833000 11.429000
v 7.374000 11.833000 11.929000
v 10.007000 11.833000 11.929000
v 7.349000 11.833000 12.429000
v 10.019000 11.833000 12.429000
v 7.871000 11.833000 12.929000
v 9.791000 11.833000 12.929000
v 8.593000 7.833000 10.043000
v 8.593000 7.833000 11.707000
v 9.093000 7.833000 10.026000
v 9.093000 7.833000 11.744000
v 7.593000 11.833000 11.699000
v 7.593000 11.833000 12.709000
v 8.093000 11.833000 11.318000
v 8.093000 11.833000 13.093000
v 8.593000 11.833000 11.030000
v 8.593000 11.833000 13.346000
v 9.093000 11.833000 11.036000
v 9.093000 11.833000 13.357000
v 9.593000 11.833000 11.284000
v 9.593000 11.833000 13.128000
v 7.593000 8.522000 10.429000
v 7.593000 10.679000 10.429000
v 8.093000 7.908000 10.429000
v 8.093000 11.010000 10.429000
v 8.593000 7.698000 10.429000
v 8.593000 11.265000 10.429000
v 9.093000 7.690000 10.429000
v 9.093000 11.268000 10.429000
v 9.593000 7.879000 10.429000
v 9.593000 11.032000 10.429000
v 10.093000 8.425000 10.429000
v 10.093000 10.241000 10.429000
v 9.593000 8.810000 14.429000
v 9.593000 10.519000 14.429000
v 10.093000 8.449000 14.429000
v 10.093000 10.808000 14.429000
v 10.593000 8.237000 14.429000
v 10.593000 10.930000 14.429000
v 11.093000 8.226000 14.429000
v 11.093000 10.928000 14.429000
v 11.593000 8.414000 14.429000
v 11.593000 10.741000 14.429000
v 12.093000 8.960000 14.429000
v 12.093000 10.195000 14.429000
v 7.927000 8.333000 9.929000
v 9.802000 8.333000 9.929000
v 7.688000 8.333000 10.429000
v 10.041000 8.333000 10.429000
v 7.677000 8.333000 10.929000
v 10.047000 8.333000 10.929000
v 7.696000 8.333000 11.429000
v 10.024000 8.333000 11.429000
v 7.626000 8.333000 11.929000
v 9.804000 8.333000 11.929000
v 7.334000 8.333000 12.429000
v 9.389000 8.333000 12.429000
v 7.353000 8.333000 12.929000
v 8.902000 8.333000 12.929000
v 10.300000 8.333000 14.429000
v 11.442000 8.333000 14.429000
v 10.263000 8.333000 14.929000
v 11.478000 8.333000 14.929000
v 8.336000 12.333000 11.929000
v 9.400000 12.333000 11.929000
v 8.311000 12.333000 12.429000
v 9.425000 12.333000 12.429000
v 7.593000 8.333000 12.020000
v 7.593000 8.333000 13.172000
v 8.093000 8.333000 9.761000
v 8.093000 8.333000 13.233000
v 8.593000 8.333000 9.512000
v 8.593000 8.333000 13.220000
v 9.093000 8.333000 9.502000
v 9.093000 8.333000 12.694000
v 9.593000 8.333000 9.725000
v 9.593000 8.333000 12.190000
v 10.593000 8.333000 14.143000
v 10.593000 8.333000 15.300000
v 11.093000 8.333000 14.120000
v 11.093000 8.333000 15.324000
v 8.593000 12.333000 11.673000
v 8.593000 12.333000 12.739000
v 9.093000 12.333000 11.650000
v 9.093000 12.333000 12.763000
v 7.093000 9.239000 10.929000
v 7.093000 10.985000 10.929000
v 7.593000 8.454000 10.929000
v 7.593000 11.256000 10.929000
v 8.093000 7.906000 10.929000
v 8.093000 11.531000 10.929000
v 8.593000 7.696000 10.929000
v 8.593000 11.752000 10.929000
v 9.093000 7.688000 10.929000
v 9.093000 11.735000 10.929000
v 9.593000 7.877000 10.929000
v 9.593000 11.451000 10.929000
v 10.093000 8.412000 10.929000
v 10.093000 10.729000 10.929000
v 9.593000 9.020000 14.929000
v 9.593000 10.172000 14.929000
v 10.093000 8.432000 14.929000
v 10.093000 10.723000 14.929000
v 10.593000 8.221000 14.929000
v 10.593000 10.934000 14.929000
v 11.093000 8.211000 14.929000
v 11.093000 10.944000 14.929000
v 11.593000 8.396000 14.929000
v 11.593000 10.759000 14.929000
v 12.093000 8.926000 14.929000
v 12.093000 10.229000 14.929000
v 8.284000 8.833000 9.429000
v 9.446000 8.833000 9.429000
v 7.706000 8.833000 9.929000
v 10.024000 8.833000 9.929000
v 7.501000 8.833000 10.429000
v 10.224000 8.833000 10.429000
v 7.363000 8.833000 10.929000
v 10.239000 8.833000 10.929000
v 7.176000 8.833000 11.429000
v 10.236000 8.833000 11.429000
v 6.958000 8.833000 11.929000
v 10.157000 8.833000 11.929000
v 6.726000 8.833000 12.429000
v 10.086000 8.833000 12.429000
v 6.735000 8.833000 12.929000
v 10.104000 8.833000 12.929000
v 6.994000 8.833000 13.429000
v 10.707000 8.833000 13.429000
v 9.132000 8.833000 13.929000
v 11.752000 8.833000 13.929000
v 9.565000 8.833000 14.429000
v 12.020000 8.833000 14.429000
v 9.702000 8.833000 14.929000
v 12.038000 8.833000 14.929000
v 9.919000 8.833000 15.429000
v 11.822000 8.833000 15.429000
v 7.093000 8.833000 11.688000
v 7.093000 8.833000 13.529000
v 7.593000 8.833000 10.141000
v 7.593000 8.833000 13.793000
v 8.093000 8.833000 9.537000
v 8.093000 8.833000 13.819000
v 8.593000 8.833000 9.328000
v 8.593000 8.833000 13.843000
v 9.093000 8.833000 9.320000
v 9.093000 8.833000 13.916000
v 9.593000 8.833000 9.508000
v 9.593000 8.833000 14.509000
v 10.093000 8.833000 10.047000
v 10.093000 8.833000 12.370000
v 10.093000 8.833000 12.885000
v 10.093000 8.833000 15.616000
v 10.593000 8.833000 13.386000
v 10.593000 8.833000 15.874000
v 11.093000 8.833000 13.552000
v 11.093000 8.833000 15.887000
v 11.593000 8.833000 13.781000
v 11.593000 8.833000 15.662000
v 6.593000 9.649000 11.429000
v 6.593000 10.595000 11.429000
v 7.093000 8.951000 11.429000
v 7.093000 11.431000 11.429000
v 7.593000 8.423000 11.429000
v 7.593000 11.684000 11.429000
v 8.093000 7.975000 11.429000
v 8.093000 11.938000 11.429000
v 8.593000 7.759000 11.429000
v 8.593000 12.200000 11.429000
v 9.093000 7.745000 11.429000
v 9.093000 12.211000 11.429000
v 9.593000 7.926000 11.429000
v 9.593000 11.980000 11.429000
v 10.093000 8.445000 11.429000
v 10.093000 11.072000 11.429000
v 10.093000 8.653000 15.429000
v 10.093000 10.502000 15.429000
v 10.593000 8.402000 15.429000
v 10.593000 10.753000 15.429000
v 11.093000 8.390000 15.429000
v 11.093000 10.765000 15.429000
v 11.593000 8.609000 15.429000
v 11.593000 10.546000 15.429000
v 8.215000 9.333000 9.429000
v 9.503000 9.333000 9.429000
v 7.680000 9.333000 9.929000
v 10.039000 9.333000 9.929000
v 7.391000 9.333000 10.429000
v 10.229000 9.333000 10.429000
v 7.017000 9.333000 10.929000
v 10.248000 9.333000 10.929000
v 6.758000 9.333000 11.429000
v 10.297000 9.333000 11.429000
v 6.650000 9.333000 11.929000
v 10.402000 9.333000 11.929000
v 6.517000 9.333000 12.429000
v 10.557000 9.333000 12.429000
v 6.525000 9.333000 12.929000
v 10.779000 9.333000 12.929000
v 6.734000 9.333000 13.429000
v 11.373000 9.333000 13.429000
v 7.349000 9.333000 13.929000
v 11.998000 9.333000 13.929000
v 9.176000 9.333000 14.429000
v 12.218000 9.333000 14.429000
v 9.478000 9.333000 14.929000
v 12.233000 9.333000 14.929000
v 9.687000 9.333000 15.429000
v 12.054000 9.333000 15.429000
v 10.205000 9.333000 15.929000
v 11.536000 9.333000 15.929000
v 6.593000 9.333000 12.119000
v 6.593000 9.333000 13.159000
v 7.093000 9.333000 10.834000
v 7.093000 9.333000 13.790000
v 7.593000 9.333000 10.095000
v 7.593000 9.333000 14.004000
v 8.093000 9.333000 9.502000
v 8.093000 9.333000 14.027000
v 8.593000 9.333000 9.296000
v 8.593000 9.333000 14.101000
v 9.093000 9.333000 9.290000
v 9.093000 9.333000 14.350000
v 9.593000 9.333000 9.480000
v 9.593000 9.333000 15.238000
v 10.093000 9.333000 10.023000
v 10.093000 9.333000 15.860000
v 10.593000 9.333000 12.548000
v 10.593000 9.333000 16.072000
v 11.093000 9.333000 13.249000
v 11.093000 9.333000 16.082000
v 11.593000 9.333000 13.547000
v 11.593000 9.333000 15.896000
v 12.093000 9.333000 14.083000
v 12.093000 9.333000 15.360000
v 6.593000 9.442000 11.929000
v 6.593000 11.094000 11.929000
v 7.093000 8.690000 11.929000
v 7.093000 11.690000 11.929000
v 7.593000 8.352000 11.929000
v 7.593000 11.906000 11.929000
v 8.093000 8.107000 11.929000
v 8.093000 12.200000 11.929000
v 8.593000 7.941000 11.929000
v 8.593000 12.413000 11.929000
v 9.093000 7.926000 11.929000
v 9.093000 12.422000 11.929000
v 9.593000 8.140000 11.929000
v 9.593000 12.234000 11.929000
v 10.093000 8.728000 11.929000
v 10.093000 11.687000 11.929000
v 10.593000 8.925000 15.929000
v 10.593000 10.229000 15.929000
v 11.093000 8.904000 15.929000
v 11.093000 10.251000 15.929000
v 8.207000 9.833000 9.429000
v 9.509000 9.833000 9.429000
v 7.678000 9.833000 9.929000
v 10.037000 9.833000 9.929000
v 7.273000 9.833000 10.429000
v 10.221000 9.833000 10.429000
v 6.749000 9.833000 10.929000
v 10.241000 9.833000 10.929000
v 6.539000 9.833000 11.429000
v 10.325000 9.833000 11.429000
v 6.463000 9.833000 11.929000
v 10.557000 9.833000 11.929000
v 6.449000 9.833000 12.429000
v 10.750000 9.833000 12.429000
v 6.500000 9.833000 12.929000
v 10.943000 9.833000 12.929000
v 6.705000 9.833000 13.429000
v 11.407000 9.833000 13.429000
v 7.294000 9.833000 13.929000
v 11.996000 9.833000 13.929000
v 9.147000 9.833000 14.429000
v 12.216000 9.833000 14.429000
v 9.473000 9.833000 14.929000
v 12.231000 9.833000 14.929000
v 9.690000 9.833000 15.429000
v 12.051000 9.833000 15.429000
v 10.209000 9.833000 15.929000
v 11.532000 9.833000 15.929000
v 6.593000 9.833000 11.237000
v 6.593000 9.833000 13.223000
v 7.093000 9.833000 10.578000
v 7.093000 9.833000 13.817000
v 7.593000 9.833000 10.062000
v 7.593000 9.833000 14.024000
v 8.093000 9.833000 9.497000
v 8.093000 9.833000 14.048000
v 8.593000 9.833000 9.291000
v 8.593000 9.833000 14.121000
v 9.093000 9.833000 9.286000
v 9.093000 9.833000 14.379000
v 9.593000 9.833000 9.477000
v 9.593000 9.833000 15.233000
v 10.093000 9.833000 10.029000
v 10.093000 9.833000 15.857000
v 10.593000 9.833000 11.989000
v 10.593000 9.833000 16.070000
v 11.093000 9.833000 13.142000
v 11.093000 9.833000 16.080000
v 11.593000 9.833000 13.550000
v 11.593000 9.833000 15.894000
v 12.093000 9.833000 14.088000
v 12.093000 9.833000 15.356000
v 6.593000 9.084000 12.429000
v 6.593000 11.116000 12.429000
v 7.093000 8.465000 12.429000
v 7.093000 11.701000 12.429000
v 7.593000 8.253000 12.429000
v 7.593000 11.916000 12.429000
v 8.093000 8.193000 12.429000
v 8.093000 12.212000 12.429000
v 8.593000 8.152000 12.429000
v 8.593000 12.423000 12.429000
v 9.093000 8.236000 12.429000
v 9.093000 12.432000 12.429000
v 9.593000 8.449000 12.429000
v 9.593000 12.245000 12.429000
v 10.093000 8.839000 12.429000
v 10.093000 11.709000 12.429000
v 10.593000 9.391000 12.429000
v 10.593000 10.741000 12.429000
v 7.906000 10.333000 9.929000
v 9.810000 10.333000 9.929000
v 7.315000 10.333000 10.429000
v 10.054000 10.333000 10.429000
v 6.732000 10.333000 10.929000
v 10.217000 10.333000 10.929000
v 6.525000 10.333000 11.429000
v 10.303000 10.333000 11.429000
v 6.468000 10.333000 11.929000
v 10.550000 10.333000 11.929000
v 6.456000 10.333000 12.429000
v 10.742000 10.333000 12.429000
v 6.509000 10.333000 12.929000
v 10.850000 10.333000 12.929000
v 6.716000 10.333000 13.429000
v 11.135000 10.333000 13.429000
v 7.321000 10.333000 13.929000
v 11.743000 10.333000 13.929000
v 9.376000 10.333000 14.429000
v 12.012000 10.333000 14.429000
v 9.694000 10.333000 14.929000
v 12.031000 10.333000 14.929000
v 9.928000 10.333000 15.429000
v 11.813000 10.333000 15.429000
v 6.593000 10.333000 11.197000
v 6.593000 10.333000 13.201000
v 7.093000 10.333000 10.561000
v 7.093000 10.333000 13.805000
v 7.593000 10.333000 10.239000
v 7.593000 10.333000 14.012000
v 8.093000 10.333000 9.733000
v 8.093000 10.333000 14.026000
v 8.593000 10.333000 9.484000
v 8.593000 10.333000 14.066000
v 9.093000 10.333000 9.478000
v 9.093000 10.333000 14.227000
v 9.593000 10.333000 9.708000
v 9.593000 10.333000 14.712000
v 10.093000 10.333000 10.532000
v 10.093000 10.333000 15.607000
v 10.593000 10.333000 12.001000
v 10.593000 10.333000 15.867000
v 11.093000 10.333000 13.380000
v 11.093000 10.333000 15.879000
v 11.593000 10.333000 13.790000
v 11.593000 10.333000 15.653000
v 6.593000 9.104000 12.929000
v 6.593000 10.619000 12.929000
v 7.093000 8.474000 12.929000
v 7.093000 11.472000 12.929000
v 7.593000 8.260000 12.929000
v 7.593000 11.717000 12.929000
v 8.093000 8.235000 12.929000
v 8.093000 11.983000 12.929000
v 8.593000 8.240000 12.929000
v 8.593000 12.235000 12.929000
v 9.093000 8.420000 12.929000
v 9.093000 12.246000 12.929000
v 9.593000 8.601000 12.929000
v 9.593000 12.023000 12.929000
v 10.093000 8.828000 12.929000
v 10.093000 11.368000 12.929000
v 10.593000 9.122000 12.929000
v 10.593000 10.775000 12.929000
v 7.844000 10.833000 10.429000
v 9.787000 10.833000 10.429000
v 6.953000 10.833000 10.929000
v 10.036000 10.833000 10.929000
v 6.688000 10.833000 11.429000
v 10.150000 10.833000 11.429000
v 6.509000 10.833000 11.929000
v 10.349000 10.833000 11.929000
v 6.500000 10.833000 12.429000
v 10.536000 10.833000 12.429000
v 6.673000 10.833000 12.929000
v 10.547000 10.833000 12.929000
v 6.964000 10.833000 13.429000
v 10.538000 10.833000 13.429000
v 9.509000 10.833000 13.929000
v 10.708000 10.833000 13.929000
v 10.156000 10.833000 14.429000
v 11.416000 10.833000 14.429000
v 10.287000 10.833000 14.929000
v 11.454000 10.833000 14.929000
v 6.593000 10.833000 11.661000
v 6.593000 10.833000 12.745000
v 7.093000 10.833000 10.787000
v 7.093000 10.833000 13.557000
v 7.593000 10.833000 10.526000
v 7.593000 10.833000 13.810000
v 8.093000 10.833000 10.271000
v 8.093000 10.833000 13.825000
v 8.593000 10.833000 9.987000
v 8.593000 10.833000 13.831000
v 9.093000 10.833000 9.978000
v 9.093000 10.833000 13.867000
v 9.593000 10.833000 10.242000
v 9.593000 10.833000 13.958000
v 10.093000 10.833000 11.164000
v 10.093000 10.833000 14.303000
v 10.593000 10.833000 13.766000
v 10.593000 10.833000 15.275000
v 11.093000 10.833000 14.143000
v 11.093000 10.833000 15.300000
v 8.593000 8.491000 9.429000
v 8.593000 10.238000 9.429000
v 9.093000 8.471000 9.429000
v 9.093000 10.250000 9.429000
v 7.093000 8.733000 13.429000
v 7.093000 10.963000 13.429000
v 7.593000 8.470000 13.429000
v 7.593000 11.235000 13.429000
v 8.093000 8.442000 13.429000
v 8.093000 11.381000 13.429000
v 8.593000 8.449000 13.429000
v 8.593000 11.692000 13.429000
v 9.093000 8.582000 13.429000
v 9.093000 11.712000 13.429000
v 9.593000 8.710000 13.429000
v 9.593000 11.433000 13.429000
v 10.093000 8.733000 13.429000
v 10.093000 11.097000 13.429000
v 10.593000 8.804000 13.429000
v 10.593000 10.799000 13.429000
v 11.093000 9.010000 13.429000
v 11.093000 10.382000 13.429000
f 81 175 199
f 199 175 275
f 275 175 247
f 275 247 347
f 347 247 319
f 347 319 413
f 413 319 387
f 387 82 413
f 83 107 27
f 27 107 105
f 107 81 199
f 173 107 199
f 105 107 173
f 275 245 173
f 275 173 199
f 347 317 245
f 347 245 275
f 413 385 317
f 413 317 347
f 82 449 475
f 82 475 28
f 413 82 28
f 385 413 28
f 449 84 475
f 85 53 67
f 29 67 53
f 83 29 53
f 27 29 83
f 477 30 28
f 477 28 475
f 475 84 477
f 477 84 86
f 69 87 67
f 67 87 85
f 67 29 31
f 67 31 69
f 479 32 30
f 479 30 477
f 477 86 479
f 479 86 88
f 69 54 87
f 89 54 69
f 31 89 69
f 33 89 31
f 481 34 32
f 481 32 479
f 479 88 481
f 481 88 90
f 33 106 89
f 89 106 108
f 174 209 91
f 108 174 91
f 106 174 108
f 246 285 209
f 246 209 174
f 318 357 285
f 318 285 246
f 388 92 357
f 318 388 357
f 386 388 318
f 481 450 34
f 450 386 34
f 450 388 386
f 481 90 450
f 209 176 91
f 176 209 248
f 248 209 285
f 248 285 320
f 320 285 357
f 357 92 320
f 276 261 35
f 348 333 276
f 276 333 261
f 414 401 348
f 348 401 333
f 414 36 401
f 37 278 35
f 35 278 276
f 350 276 278
f 348 276 350
f 416 348 350
f 414 348 416
f 36 414 38
f 38 414 416
f 39 280 37
f 37 280 278
f 352 278 280
f 350 278 352
f 418 350 352
f 416 350 418
f 38 416 40
f 40 416 418
f 41 282 39
f 39 282 280
f 354 280 282
f 352 280 354
f 420 352 354
f 418 352 420
f 40 418 42
f 42 418 420
f 93 191 43
f 43 191 189
f 263 282 41
f 189 263 41
f 191 263 189
f 282 263 335
f 282 335 354
f 354 335 403
f 354 403 420
f 94 482 463
f 94 463 42
f 403 94 42
f 420 403 42
f 482 44 463
f 95 43 45
f 95 93 43
f 96 484 482
f 96 482 94
f 44 482 46
f 46 482 484
f 97 119 137
f 47 137 119
f 95 47 119
f 45 47 95
f 465 484 96
f 465 98 484
f 98 46 484
f 98 48 46
f 139 99 137
f 137 99 97
f 137 47 49
f 137 49 139
f 464 487 50
f 464 48 487
f 48 100 487
f 48 98 100
f 139 120 99
f 101 120 139
f 49 101 139
f 51 101 49
f 50 487 466
f 102 50 466
f 52 50 102
f 487 100 466
f 51 190 101
f 101 190 192
f 262 293 103
f 192 262 103
f 190 262 192
f 334 365 293
f 334 293 262
f 404 104 365
f 334 404 365
f 402 404 334
f 402 52 404
f 404 52 102
f 293 264 103
f 264 293 336
f 336 293 365
f 365 104 336
f 145 249 273
f 273 249 345
f 345 249 321
f 345 321 411
f 411 321 389
f 411 389 471
f 471 389 451
f 451 146 471
f 147 177 81
f 81 177 175
f 177 145 273
f 247 177 273
f 175 177 247
f 345 319 247
f 345 247 273
f 411 387 319
f 411 319 345
f 473 82 387
f 411 473 387
f 471 473 411
f 471 146 473
f 473 146 148
f 149 109 83
f 83 109 107
f 81 107 109
f 81 109 147
f 473 449 82
f 148 1 17
f 148 17 84
f 473 148 84
f 449 473 84
f 1 150 17
f 151 55 85
f 85 55 53
f 83 53 55
f 83 55 149
f 19 86 84
f 19 84 17
f 17 150 19
f 19 150 152
f 153 85 87
f 153 151 85
f 21 88 86
f 21 86 19
f 19 152 21
f 21 152 154
f 87 54 153
f 153 54 56
f 155 56 54
f 155 54 89
f 23 90 88
f 23 88 21
f 21 154 23
f 23 154 156
f 89 108 155
f 155 108 110
f 157 110 108
f 157 108 91
f 388 423 92
f 452 158 423
f 388 452 423
f 450 452 388
f 23 2 90
f 2 450 90
f 2 452 450
f 23 156 2
f 91 176 157
f 157 176 178
f 248 178 176
f 248 250 178
f 320 250 248
f 320 322 250
f 423 390 92
f 390 320 92
f 390 322 320
f 423 158 390
f 208 191 93
f 159 265 208
f 265 191 208
f 265 263 191
f 265 335 263
f 337 335 265
f 422 403 160
f 403 337 160
f 403 335 337
f 422 94 403
f 208 93 193
f 93 161 193
f 93 95 161
f 159 208 193
f 405 422 160
f 405 162 422
f 162 94 422
f 162 96 94
f 163 121 97
f 97 121 119
f 95 119 121
f 95 121 161
f 465 96 162
f 465 162 467
f 467 164 465
f 465 164 98
f 165 97 99
f 165 163 97
f 98 166 100
f 164 166 98
f 99 120 165
f 165 120 122
f 167 122 120
f 167 120 101
f 468 168 102
f 468 102 466
f 466 100 468
f 468 100 166
f 101 192 167
f 167 192 194
f 169 194 192
f 169 192 103
f 406 170 104
f 406 104 404
f 404 102 406
f 406 102 168
f 103 264 169
f 169 264 266
f 336 266 264
f 336 338 266
f 336 104 338
f 338 104 170
f 219 323 343
f 343 323 409
f 409 323 391
f 391 220 409
f 221 251 145
f 145 251 249
f 251 219 343
f 321 251 343
f 249 251 321
f 409 389 321
f 409 321 343
f 389 409 220
f 453 389 220
f 451 389 453
f 146 451 13
f 451 3 13
f 451 453 3
f 3 222 13
f 223 179 147
f 147 179 177
f 145 177 179
f 145 179 221
f 15 148 146
f 15 146 13
f 13 222 15
f 15 222 224
f 225 111 149
f 149 111 109
f 147 109 111
f 147 111 223
f 15 1 148
f 224 59 73
f 224 73 150
f 15 224 150
f 1 15 150
f 59 226 73
f 227 57 151
f 151 57 55
f 149 55 57
f 149 57 225
f 75 152 150
f 75 150 73
f 73 226 75
f 75 226 228
f 229 151 153
f 229 227 151
f 77 154 152
f 77 152 75
f 75 228 77
f 77 228 230
f 153 56 229
f 229 56 58
f 231 58 56
f 231 56 155
f 79 156 154
f 79 154 77
f 77 230 79
f 79 230 232
f 155 110 231
f 231 110 112
f 233 112 110
f 233 110 157
f 452 483 158
f 4 234 483
f 452 4 483
f 2 4 452
f 79 60 156
f 60 2 156
f 60 4 2
f 79 232 60
f 157 178 233
f 233 178 180
f 250 180 178
f 250 252 180
f 322 252 250
f 322 324 252
f 390 324 322
f 390 392 324
f 483 454 158
f 454 390 158
f 454 392 390
f 483 234 454
f 284 265 159
f 356 337 284
f 284 337 265
f 356 160 337
f 235 195 161
f 161 195 193
f 267 284 159
f 193 267 159
f 195 267 193
f 284 267 339
f 284 339 356
f 405 160 356
f 339 405 356
f 407 405 339
f 407 236 405
f 405 236 162
f 138 121 163
f 161 121 138
f 237 161 138
f 235 161 237
f 238 486 467
f 162 238 467
f 236 238 162
f 486 164 467
f 165 140 163
f 163 140 138
f 237 138 140
f 237 140 239
f 240 488 486
f 240 486 238
f 164 486 166
f 166 486 488
f 122 140 165
f 239 140 122
f 167 239 122
f 241 239 167
f 168 468 488
f 240 168 488
f 242 168 240
f 166 488 468
f 167 194 241
f 241 194 196
f 194 169 294
f 268 194 294
f 196 194 268
f 268 294 366
f 268 366 340
f 340 366 170
f 406 340 170
f 408 340 406
f 406 168 408
f 408 168 242
f 266 294 169
f 338 366 266
f 266 366 294
f 170 366 338
f 295 325 219
f 219 325 323
f 325 391 323
f 393 391 325
f 220 391 469
f 391 455 469
f 391 393 455
f 455 296 469
f 297 181 197
f 197 181 221
f 181 251 221
f 181 253 251
f 219 251 253
f 219 253 295
f 469 453 220
f 453 469 296
f 5 453 296
f 3 453 5
f 5 298 3
f 3 298 222
f 179 223 197
f 223 297 197
f 223 299 297
f 197 221 179
f 298 61 71
f 224 298 71
f 222 298 224
f 61 300 71
f 301 113 225
f 225 113 111
f 223 111 113
f 223 113 299
f 71 59 224
f 71 300 59
f 300 226 59
f 300 302 226
f 68 57 227
f 225 57 68
f 303 225 68
f 301 225 303
f 302 123 141
f 228 302 141
f 226 302 228
f 123 304 141
f 229 70 227
f 227 70 68
f 303 68 70
f 303 70 305
f 143 230 228
f 143 228 141
f 141 304 143
f 143 304 306
f 58 70 229
f 305 70 58
f 231 305 58
f 307 305 231
f 230 143 124
f 308 230 124
f 232 230 308
f 143 306 124
f 231 112 307
f 307 112 114
f 309 114 112
f 309 112 233
f 4 25 234
f 62 310 25
f 4 62 25
f 60 62 4
f 60 232 62
f 62 232 308
f 233 180 309
f 309 180 182
f 252 182 180
f 252 254 182
f 324 254 252
f 324 326 254
f 392 326 324
f 392 394 326
f 454 394 392
f 454 456 394
f 25 6 234
f 6 454 234
f 6 456 454
f 25 310 6
f 212 195 235
f 286 267 212
f 212 267 195
f 358 339 286
f 286 339 267
f 424 407 358
f 358 407 339
f 424 236 407
f 237 214 235
f 235 214 212
f 214 311 269
f 286 214 269
f 212 214 286
f 286 269 341
f 286 341 358
f 358 341 312
f 426 358 312
f 424 358 426
f 236 424 238
f 238 424 426
f 239 216 237
f 237 216 214
f 311 214 216
f 311 216 313
f 314 428 426
f 314 426 312
f 238 426 240
f 240 426 428
f 241 218 239
f 239 218 216
f 292 270 313
f 216 292 313
f 218 292 216
f 270 292 364
f 270 364 342
f 428 314 342
f 364 428 342
f 430 428 364
f 240 428 242
f 242 428 430
f 196 218 241
f 268 292 196
f 196 292 218
f 340 364 268
f 268 364 292
f 408 430 340
f 340 430 364
f 242 430 408
f 367 255 271
f 271 255 295
f 255 325 295
f 255 327 325
f 327 393 325
f 395 393 327
f 395 455 393
f 457 455 395
f 457 368 455
f 455 368 296
f 369 183 297
f 297 183 181
f 183 367 271
f 253 183 271
f 181 183 253
f 271 295 253
f 5 296 368
f 5 368 7
f 7 370 5
f 5 370 298
f 371 115 127
f 299 127 115
f 369 299 115
f 297 299 369
f 61 298 370
f 61 370 63
f 63 372 61
f 61 372 300
f 113 301 127
f 301 371 127
f 301 373 371
f 127 299 113
f 300 374 302
f 372 374 300
f 375 301 303
f 375 373 301
f 123 302 374
f 123 374 125
f 125 376 123
f 123 376 304
f 377 303 305
f 377 375 303
f 304 378 306
f 376 378 304
f 116 377 136
f 377 307 136
f 377 305 307
f 379 116 136
f 126 380 308
f 126 308 124
f 124 306 126
f 126 306 378
f 114 136 307
f 184 379 210
f 210 379 309
f 379 136 309
f 136 114 309
f 381 184 210
f 64 382 310
f 64 310 62
f 62 308 64
f 64 308 380
f 182 210 309
f 210 182 381
f 182 256 381
f 182 254 256
f 326 359 383
f 256 326 383
f 254 326 256
f 394 425 359
f 394 359 326
f 458 384 425
f 394 458 425
f 456 458 394
f 6 458 456
f 6 8 458
f 6 310 8
f 8 310 382
f 359 328 383
f 328 359 396
f 396 359 425
f 425 384 396
f 288 269 311
f 360 341 288
f 288 341 269
f 360 312 341
f 313 290 311
f 311 290 288
f 362 288 290
f 360 288 362
f 312 360 314
f 314 360 362
f 270 290 313
f 342 362 270
f 270 362 290
f 314 362 342
f 431 257 367
f 367 257 255
f 257 327 255
f 329 327 257
f 329 395 327
f 397 395 329
f 470 457 432
f 457 397 432
f 457 395 397
f 470 368 457
f 433 185 369
f 369 185 183
f 367 183 185
f 367 185 431
f 459 470 432
f 7 368 470
f 459 7 470
f 9 7 459
f 9 434 7
f 7 434 370
f 435 117 371
f 371 117 115
f 369 115 117
f 369 117 433
f 436 72 63
f 370 436 63
f 434 436 370
f 72 372 63
f 437 371 373
f 437 435 371
f 65 72 436
f 65 438 72
f 438 372 72
f 438 374 372
f 439 373 375
f 439 437 373
f 440 142 125
f 374 440 125
f 438 440 374
f 142 376 125
f 118 439 134
f 439 377 134
f 439 375 377
f 441 118 134
f 442 144 142
f 442 142 440
f 376 142 378
f 378 142 144
f 116 134 377
f 441 134 116
f 379 441 116
f 443 441 379
f 380 126 144
f 442 380 144
f 444 380 442
f 378 144 126
f 211 445 184
f 445 379 184
f 445 443 379
f 381 211 184
f 66 446 382
f 66 382 64
f 64 380 66
f 66 380 444
f 211 186 445
f 287 447 256
f 256 447 381
f 447 186 381
f 186 211 381
f 383 287 256
f 460 448 384
f 460 384 458
f 8 460 458
f 8 10 460
f 8 382 10
f 10 382 446
f 287 258 447
f 383 328 287
f 328 258 287
f 328 330 258
f 396 330 328
f 396 398 330
f 396 384 398
f 398 384 448
f 489 171 203
f 203 171 279
f 279 171 243
f 279 243 351
f 351 243 315
f 315 490 351
f 205 491 203
f 203 491 489
f 203 281 205
f 203 279 281
f 279 353 281
f 279 351 353
f 351 490 353
f 353 490 492
f 205 172 491
f 172 205 244
f 244 205 281
f 244 281 316
f 316 281 353
f 353 492 316
f 272 257 431
f 344 329 272
f 272 329 257
f 410 397 344
f 344 397 329
f 410 432 397
f 493 187 433
f 433 187 185
f 259 272 431
f 185 259 431
f 187 259 185
f 272 259 331
f 272 331 344
f 344 331 399
f 344 399 410
f 459 432 410
f 399 459 410
f 461 459 399
f 14 9 494
f 9 461 494
f 9 459 461
f 14 434 9
f 128 117 435
f 433 117 128
f 495 433 128
f 493 433 495
f 496 16 14
f 496 14 494
f 434 14 436
f 436 14 16
f 437 130 435
f 435 130 128
f 495 128 130
f 495 130 497
f 11 16 496
f 498 74 65
f 498 65 436
f 11 498 436
f 16 11 436
f 74 438 65
f 439 132 437
f 437 132 130
f 497 130 132
f 497 132 499
f 500 76 74
f 500 74 498
f 438 74 440
f 440 74 76
f 118 132 439
f 499 132 118
f 441 499 118
f 501 499 441
f 502 78 76
f 502 76 500
f 440 76 442
f 442 76 78
f 503 441 443
f 503 501 441
f 504 80 78
f 504 78 502
f 442 78 444
f 444 78 80
f 505 443 445
f 505 503 443
f 12 506 26
f 80 504 12
f 80 12 26
f 66 80 26
f 446 66 26
f 444 80 66
f 213 507 186
f 507 445 186
f 507 505 445
f 447 213 186
f 462 508 448
f 462 448 460
f 506 462 26
f 462 10 26
f 462 460 10
f 446 26 10
f 213 188 507
f 289 509 258
f 258 509 447
f 509 188 447
f 188 213 447
f 330 361 289
f 330 289 258
f 398 427 361
f 398 361 330
f 398 448 427
f 448 510 427
f 448 508 510
f 289 260 509
f 260 289 332
f 332 289 361
f 332 361 400
f 400 361 427
f 427 510 400
f 27 105 129
f 129 105 201
f 201 105 173
f 201 173 277
f 277 173 245
f 277 245 349
f 349 245 317
f 349 317 415
f 415 317 385
f 385 28 415
f 131 29 129
f 129 29 27
f 201 171 489
f 131 201 489
f 129 201 131
f 277 243 171
f 277 171 201
f 349 315 243
f 349 243 277
f 417 490 315
f 349 417 315
f 415 417 349
f 415 28 417
f 417 28 30
f 133 31 131
f 131 31 29
f 131 489 491
f 131 491 133
f 419 492 490
f 419 490 417
f 417 30 419
f 419 30 32
f 135 33 133
f 133 33 31
f 133 491 172
f 207 133 172
f 135 133 207
f 244 283 207
f 244 207 172
f 316 355 283
f 316 283 244
f 355 316 492
f 419 355 492
f 421 355 419
f 419 32 421
f 421 32 34
f 135 106 33
f 106 135 174
f 174 135 207
f 174 207 246
f 246 207 283
f 246 283 318
f 318 283 355
f 318 355 386
f 386 355 421
f 421 34 386
f 198 187 493
f 274 259 198
f 198 259 187
f 346 331 274
f 274 331 259
f 412 399 346
f 346 399 331
f 472 461 412
f 412 461 399
f 472 494 461
f 495 200 493
f 493 200 198
f 200 35 261
f 274 200 261
f 198 200 274
f 274 261 333
f 274 333 346
f 346 333 401
f 346 401 412
f 412 401 36
f 474 412 36
f 472 412 474
f 494 472 496
f 496 472 474
f 497 202 495
f 495 202 200
f 35 200 202
f 35 202 37
f 38 476 474
f 38 474 36
f 496 474 11
f 474 18 11
f 474 476 18
f 18 498 11
f 499 204 497
f 497 204 202
f 37 202 204
f 37 204 39
f 40 478 476
f 40 476 38
f 20 476 478
f 18 476 20
f 498 18 500
f 500 18 20
f 501 206 499
f 499 206 204
f 39 204 206
f 39 206 41
f 42 480 478
f 42 478 40
f 22 478 480
f 20 478 22
f 500 20 502
f 502 20 22
f 206 501 189
f 501 43 189
f 501 503 43
f 41 206 189
f 463 480 42
f 480 463 44
f 24 480 44
f 22 480 24
f 502 22 504
f 504 22 24
f 45 503 505
f 45 43 503
f 506 12 24
f 44 506 24
f 46 506 44
f 504 24 12
f 47 505 507
f 47 45 505
f 462 485 508
f 462 506 485
f 506 48 485
f 506 46 48
f 215 49 188
f 49 507 188
f 49 47 507
f 509 215 188
f 508 485 464
f 50 508 464
f 510 508 50
f 485 48 464
f 217 51 215
f 215 51 49
f 215 509 260
f 291 215 260
f 217 215 291
f 332 363 291
f 332 291 260
f 400 429 363
f 400 363 332
f 400 510 429
f 510 52 429
f 510 50 52
f 217 190 51
f 190 217 262
f 262 217 291
f 262 291 334
f 334 291 363
f 334 363 402
f 402 363 429
f 429 52 402
