# Converted from NanoShaper .vert/.face
v 7.443000 15.449000 4.392000
v 8.720000 15.449000 4.392000
v 7.014000 15.449000 4.892000
v 9.167000 15.449000 4.892000
v 6.886000 15.449000 5.392000
v 9.370000 15.449000 5.392000
v 6.823000 15.449000 5.892000
v 9.634000 15.449000 5.892000
v 6.560000 15.449000 6.392000
v 9.899000 15.449000 6.392000
v 6.433000 15.449000 6.892000
v 10.148000 15.449000 6.892000
v 6.435000 15.449000 7.392000
v 10.246000 15.449000 7.392000
v 6.566000 15.449000 7.892000
v 10.128000 15.449000 7.892000
v 7.025000 15.449000 8.392000
v 9.684000 15.449000 8.392000
v 6.577000 15.449000 6.360000
v 6.577000 15.449000 7.912000
v 7.077000 15.449000 4.775000
v 7.077000 15.449000 8.430000
v 7.577000 15.449000 4.317000
v 7.577000 15.449000 8.709000
v 8.077000 15.449000 4.202000
v 8.077000 15.449000 8.792000
v 8.577000 15.449000 4.312000
v 8.577000 15.449000 8.721000
v 9.077000 15.449000 4.747000
v 9.077000 15.449000 8.582000
v 9.577000 15.449000 5.782000
v 9.577000 15.449000 8.453000
v 10.077000 15.449000 6.749000
v 10.077000 15.449000 7.988000
v 5.577000 16.955000 5.392000
v 5.577000 17.474000 5.392000
v 6.077000 16.162000 5.392000
v 6.077000 18.605000 5.392000
v 6.577000 15.706000 5.392000
v 6.577000 18.939000 5.392000
v 7.077000 15.248000 5.392000
v 7.077000 19.023000 5.392000
v 7.577000 14.916000 5.392000
v 7.577000 18.985000 5.392000
v 8.077000 14.818000 5.392000
v 8.077000 19.007000 5.392000
v 8.577000 14.880000 5.392000
v 8.577000 18.917000 5.392000
v 9.077000 15.169000 5.392000
v 9.077000 18.566000 5.392000
v 9.577000 15.643000 5.392000
v 9.577000 18.003000 5.392000
v 7.005000 15.949000 4.392000
v 9.316000 15.949000 4.392000
v 6.497000 15.949000 4.892000
v 9.713000 15.949000 4.892000
v 6.342000 15.949000 5.392000
v 9.806000 15.949000 5.392000
v 6.192000 15.949000 5.892000
v 9.906000 15.949000 5.892000
v 5.973000 15.949000 6.392000
v 10.191000 15.949000 6.392000
v 5.883000 15.949000 6.892000
v 10.349000 15.949000 6.892000
v 6.024000 15.949000 7.392000
v 10.421000 15.949000 7.392000
v 6.305000 15.949000 7.892000
v 10.319000 15.949000 7.892000
v 6.703000 15.949000 8.392000
v 9.971000 15.949000 8.392000
v 7.873000 15.949000 8.892000
v 9.130000 15.949000 8.892000
v 6.077000 15.949000 6.101000
v 6.077000 15.949000 7.501000
v 6.577000 15.949000 4.771000
v 6.577000 15.949000 8.267000
v 7.077000 15.949000 4.350000
v 7.077000 15.949000 8.623000
v 7.577000 15.949000 4.092000
v 7.577000 15.949000 8.766000
v 8.077000 15.949000 3.996000
v 8.077000 15.949000 8.965000
v 8.577000 15.949000 4.085000
v 8.577000 15.949000 9.046000
v 9.077000 15.949000 4.258000
v 9.077000 15.949000 8.920000
v 9.577000 15.949000 4.651000
v 9.577000 15.949000 8.653000
v 10.077000 15.949000 6.199000
v 10.077000 15.949000 8.284000
v 5.577000 16.387000 5.892000
v 5.577000 18.069000 5.892000
v 6.077000 16.010000 5.892000
v 6.077000 18.714000 5.892000
v 6.577000 15.677000 5.892000
v 6.577000 19.021000 5.892000
v 7.077000 15.211000 5.892000
v 7.077000 19.100000 5.892000
v 7.577000 14.814000 5.892000
v 7.577000 19.088000 5.892000
v 8.077000 14.697000 5.892000
v 8.077000 19.102000 5.892000
v 8.577000 14.662000 5.892000
v 8.577000 19.018000 5.892000
v 9.077000 14.815000 5.892000
v 9.077000 18.704000 5.892000
v 9.577000 15.347000 5.892000
v 9.577000 18.154000 5.892000
v 10.077000 16.280000 5.892000
v 10.077000 17.056000 5.892000
v 6.431000 16.449000 4.392000
v 9.611000 16.449000 4.392000
v 5.969000 16.449000 4.892000
v 9.921000 16.449000 4.892000
v 5.806000 16.449000 5.392000
v 10.004000 16.449000 5.392000
v 5.527000 16.449000 5.892000
v 10.121000 16.449000 5.892000
v 5.423000 16.449000 6.392000
v 10.381000 16.449000 6.392000
v 5.393000 16.449000 6.892000
v 10.481000 16.449000 6.892000
v 5.507000 16.449000 7.392000
v 10.429000 16.449000 7.392000
v 5.943000 16.449000 7.892000
v 10.326000 16.449000 7.892000
v 6.587000 16.449000 8.392000
v 9.982000 16.449000 8.392000
v 7.574000 16.449000 8.892000
v 9.487000 16.449000 8.892000
v 5.577000 16.449000 5.796000
v 5.577000 16.449000 7.519000
v 6.077000 16.449000 4.713000
v 6.077000 16.449000 7.981000
v 6.577000 16.449000 4.319000
v 6.577000 16.449000 8.381000
v 7.077000 16.449000 4.140000
v 7.077000 16.449000 8.705000
v 7.577000 16.449000 4.042000
v 7.577000 16.449000 8.893000
v 8.077000 16.449000 3.986000
v 8.077000 16.449000 9.177000
v 8.577000 16.449000 3.974000
v 8.577000 16.449000 9.261000
v 9.077000 16.449000 4.051000
v 9.077000 16.449000 9.157000
v 9.577000 16.449000 4.358000
v 9.577000 16.449000 8.800000
v 10.077000 16.449000 5.772000
v 10.077000 16.449000 8.295000
v 5.577000 16.258000 6.392000
v 5.577000 18.196000 6.392000
v 6.077000 15.873000 6.392000
v 6.077000 18.646000 6.392000
v 6.577000 15.429000 6.392000
v 6.577000 18.964000 6.392000
v 7.077000 14.935000 6.392000
v 7.077000 19.055000 6.392000
v 7.577000 14.541000 6.392000
v 7.577000 19.113000 6.392000
v 8.077000 14.429000 6.392000
v 8.077000 19.041000 6.392000
v 8.577000 14.362000 6.392000
v 8.577000 18.922000 6.392000
v 9.077000 14.452000 6.392000
v 9.077000 18.616000 6.392000
v 9.577000 14.802000 6.392000
v 9.577000 18.186000 6.392000
v 10.077000 15.790000 6.392000
v 10.077000 17.514000 6.392000
v 6.107000 16.949000 4.392000
v 9.610000 16.949000 4.392000
v 5.757000 16.949000 4.892000
v 9.920000 16.949000 4.892000
v 5.578000 16.949000 5.392000
v 10.001000 16.949000 5.392000
v 5.302000 16.949000 5.892000
v 10.107000 16.949000 5.892000
v 5.215000 16.949000 6.392000
v 10.362000 16.949000 6.392000
v 5.218000 16.949000 6.892000
v 10.464000 16.949000 6.892000
v 5.317000 16.949000 7.392000
v 10.420000 16.949000 7.392000
v 5.660000 16.949000 7.892000
v 10.320000 16.949000 7.892000
v 6.543000 16.949000 8.392000
v 9.973000 16.949000 8.392000
v 7.546000 16.949000 8.892000
v 9.510000 16.949000 8.892000
v 5.577000 16.949000 5.394000
v 5.577000 16.949000 7.807000
v 6.077000 16.949000 4.421000
v 6.077000 16.949000 8.158000
v 6.577000 16.949000 4.112000
v 6.577000 16.949000 8.414000
v 7.077000 16.949000 4.035000
v 7.077000 16.949000 8.713000
v 7.577000 16.949000 4.006000
v 7.577000 16.949000 8.909000
v 8.077000 16.949000 4.009000
v 8.077000 16.949000 9.193000
v 8.577000 16.949000 3.975000
v 8.577000 16.949000 9.277000
v 9.077000 16.949000 4.052000
v 9.077000 16.949000 9.174000
v 9.577000 16.949000 4.359000
v 9.577000 16.949000 8.824000
v 10.077000 16.949000 5.806000
v 10.077000 16.949000 8.286000
v 5.577000 16.201000 6.892000
v 5.577000 18.106000 6.892000
v 6.077000 15.791000 6.892000
v 6.077000 18.587000 6.892000
v 6.577000 15.281000 6.892000
v 6.577000 18.942000 6.892000
v 7.077000 14.759000 6.892000
v 7.077000 19.050000 6.892000
v 7.577000 14.419000 6.892000
v 7.577000 19.035000 6.892000
v 8.077000 14.318000 6.892000
v 8.077000 18.924000 6.892000
v 8.577000 14.263000 6.892000
v 8.577000 18.717000 6.892000
v 9.077000 14.346000 6.892000
v 9.077000 18.568000 6.892000
v 9.577000 14.659000 6.892000
v 9.577000 18.266000 6.892000
v 10.077000 15.347000 6.892000
v 10.077000 17.651000 6.892000
v 6.110000 17.449000 4.392000
v 9.310000 17.449000 4.392000
v 5.759000 17.449000 4.892000
v 9.709000 17.449000 4.892000
v 5.571000 17.449000 5.392000
v 9.853000 17.449000 5.392000
v 5.292000 17.449000 5.892000
v 9.961000 17.449000 5.892000
v 5.205000 17.449000 6.392000
v 10.124000 17.449000 6.392000
v 5.235000 17.449000 6.892000
v 10.247000 17.449000 6.892000
v 5.336000 17.449000 7.392000
v 10.228000 17.449000 7.392000
v 5.686000 17.449000 7.892000
v 10.110000 17.449000 7.892000
v 6.832000 17.449000 8.392000
v 9.694000 17.449000 8.392000
v 7.871000 17.449000 8.892000
v 9.232000 17.449000 8.892000
v 5.577000 17.449000 5.382000
v 5.577000 17.449000 7.781000
v 6.077000 17.449000 4.423000
v 6.077000 17.449000 8.140000
v 6.577000 17.449000 4.114000
v 6.577000 17.449000 8.286000
v 7.077000 17.449000 4.036000
v 7.077000 17.449000 8.512000
v 7.577000 17.449000 4.009000
v 7.577000 17.449000 8.702000
v 8.077000 17.449000 4.022000
v 8.077000 17.449000 9.004000
v 8.577000 17.449000 4.101000
v 8.577000 17.449000 9.101000
v 9.077000 17.449000 4.262000
v 9.077000 17.449000 8.982000
v 9.577000 17.449000 4.657000
v 9.577000 17.449000 8.536000
v 10.077000 17.449000 6.276000
v 10.077000 17.449000 7.955000
v 5.577000 16.352000 7.392000
v 5.577000 17.953000 7.392000
v 6.077000 15.901000 7.392000
v 6.077000 18.441000 7.392000
v 6.577000 15.269000 7.392000
v 6.577000 18.840000 7.392000
v 7.077000 14.659000 7.392000
v 7.077000 18.956000 7.392000
v 7.577000 14.352000 7.392000
v 7.577000 18.874000 7.392000
v 8.077000 14.273000 7.392000
v 8.077000 18.706000 7.392000
v 8.577000 14.333000 7.392000
v 8.577000 18.654000 7.392000
v 9.077000 14.438000 7.392000
v 9.077000 18.560000 7.392000
v 9.577000 14.775000 7.392000
v 9.577000 18.248000 7.392000
v 10.077000 15.217000 7.392000
v 10.077000 17.649000 7.392000
v 6.443000 17.949000 4.392000
v 8.717000 17.949000 4.392000
v 5.972000 17.949000 4.892000
v 9.204000 17.949000 4.892000
v 5.737000 17.949000 5.392000
v 9.618000 17.949000 5.392000
v 5.489000 17.949000 5.892000
v 9.738000 17.949000 5.892000
v 5.388000 17.949000 6.392000
v 9.758000 17.949000 6.392000
v 5.452000 17.949000 6.892000
v 9.831000 17.949000 6.892000
v 5.574000 17.949000 7.392000
v 9.814000 17.949000 7.392000
v 6.060000 17.949000 7.892000
v 9.720000 17.949000 7.892000
v 7.420000 17.949000 8.392000
v 9.336000 17.949000 8.392000
v 5.577000 17.949000 5.720000
v 5.577000 17.949000 7.397000
v 6.077000 17.949000 4.724000
v 6.077000 17.949000 7.901000
v 6.577000 17.949000 4.326000
v 6.577000 17.949000 8.146000
v 7.077000 17.949000 4.234000
v 7.077000 17.949000 8.278000
v 7.577000 17.949000 4.209000
v 7.577000 17.949000 8.466000
v 8.077000 17.949000 4.219000
v 8.077000 17.949000 8.595000
v 8.577000 17.949000 4.319000
v 8.577000 17.949000 8.659000
v 9.077000 17.949000 4.728000
v 9.077000 17.949000 8.545000
v 9.577000 17.949000 5.316000
v 9.577000 17.949000 8.147000
v 6.077000 16.304000 7.892000
v 6.077000 17.962000 7.892000
v 6.577000 15.435000 7.892000
v 6.577000 18.465000 7.892000
v 7.077000 14.782000 7.892000
v 7.077000 18.627000 7.892000
v 7.577000 14.444000 7.892000
v 7.577000 18.562000 7.892000
v 8.077000 14.359000 7.892000
v 8.077000 18.538000 7.892000
v 8.577000 14.472000 7.892000
v 8.577000 18.565000 7.892000
v 9.077000 14.763000 7.892000
v 9.077000 18.477000 7.892000
v 9.577000 14.972000 7.892000
v 9.577000 18.137000 7.892000
v 10.077000 15.375000 7.892000
v 10.077000 17.495000 7.892000
v 7.875000 14.449000 6.392000
v 9.070000 14.449000 6.392000
v 7.506000 14.449000 6.892000
v 9.299000 14.449000 6.892000
v 7.361000 14.449000 7.392000
v 9.105000 14.449000 7.392000
v 7.563000 14.449000 7.892000
v 8.522000 14.449000 7.892000
v 6.350000 18.449000 4.892000
v 8.722000 18.449000 4.892000
v 5.952000 18.449000 5.392000
v 9.168000 18.449000 5.392000
v 5.857000 18.449000 5.892000
v 9.288000 18.449000 5.892000
v 5.878000 18.449000 6.392000
v 9.271000 18.449000 6.392000
v 5.953000 18.449000 6.892000
v 9.331000 18.449000 6.892000
v 6.083000 18.449000 7.392000
v 9.312000 18.449000 7.392000
v 6.554000 18.449000 7.892000
v 9.143000 18.449000 7.892000
v 7.577000 14.449000 6.660000
v 7.577000 14.449000 7.905000
v 8.077000 14.449000 6.346000
v 8.077000 14.449000 8.088000
v 8.577000 14.449000 6.212000
v 8.577000 14.449000 7.831000
v 9.077000 14.449000 6.398000
v 9.077000 14.449000 7.420000
v 6.077000 18.449000 5.168000
v 6.077000 18.449000 7.379000
v 6.577000 18.449000 4.764000
v 6.577000 18.449000 7.904000
v 7.077000 18.449000 4.667000
v 7.077000 18.449000 8.039000
v 7.577000 18.449000 4.713000
v 7.577000 18.449000 8.025000
v 8.077000 18.449000 4.697000
v 8.077000 18.449000 8.077000
v 8.577000 18.449000 4.811000
v 8.577000 18.449000 8.141000
v 9.077000 18.449000 5.232000
v 9.077000 18.449000 7.960000
v 6.577000 16.349000 4.392000
v 6.577000 18.037000 4.392000
v 7.077000 15.882000 4.392000
v 7.077000 18.152000 4.392000
v 7.577000 15.356000 4.392000
v 7.577000 18.177000 4.392000
v 8.077000 15.220000 4.392000
v 8.077000 18.169000 4.392000
v 8.577000 15.351000 4.392000
v 8.577000 18.045000 4.392000
v 9.077000 15.778000 4.392000
v 9.077000 17.616000 4.392000
v 9.577000 16.338000 4.392000
v 9.577000 17.055000 4.392000
v 6.577000 16.490000 8.392000
v 6.577000 17.090000 8.392000
v 7.077000 15.371000 8.392000
v 7.077000 17.657000 8.392000
v 7.577000 14.793000 8.392000
v 7.577000 18.053000 8.392000
v 8.077000 14.677000 8.392000
v 8.077000 18.202000 8.392000
v 8.577000 14.832000 8.392000
v 8.577000 18.261000 8.392000
v 9.077000 15.167000 8.392000
v 9.077000 18.144000 8.392000
v 9.577000 15.364000 8.392000
v 9.577000 17.609000 8.392000
v 7.748000 14.949000 4.892000
v 8.415000 14.949000 4.892000
v 7.498000 14.949000 5.392000
v 8.755000 14.949000 5.392000
v 7.351000 14.949000 5.892000
v 9.259000 14.949000 5.892000
v 7.065000 14.949000 6.392000
v 9.689000 14.949000 6.392000
v 6.919000 14.949000 6.892000
v 9.806000 14.949000 6.892000
v 6.843000 14.949000 7.392000
v 9.776000 14.949000 7.392000
v 6.946000 14.949000 7.892000
v 9.525000 14.949000 7.892000
v 7.358000 14.949000 8.392000
v 8.727000 14.949000 8.392000
v 6.606000 18.949000 5.392000
v 8.483000 18.949000 5.392000
v 6.409000 18.949000 5.892000
v 8.734000 18.949000 5.892000
v 6.539000 18.949000 6.392000
v 8.499000 18.949000 6.392000
v 6.595000 18.949000 6.892000
v 8.015000 18.949000 6.892000
v 6.975000 18.949000 7.392000
v 7.259000 18.949000 7.392000
v 7.077000 14.949000 6.372000
v 7.077000 14.949000 8.118000
v 7.577000 14.949000 5.080000
v 7.577000 14.949000 8.512000
v 8.077000 14.949000 4.787000
v 8.077000 14.949000 8.606000
v 8.577000 14.949000 5.063000
v 8.577000 14.949000 8.481000
v 9.077000 14.949000 5.736000
v 9.077000 14.949000 8.169000
v 9.577000 14.949000 6.202000
v 9.577000 14.949000 7.838000
v 6.577000 18.949000 5.422000
v 6.577000 18.949000 6.577000
v 7.077000 18.949000 5.220000
v 7.077000 18.949000 7.410000
v 7.577000 18.949000 5.311000
v 7.577000 18.949000 7.169000
v 8.077000 18.949000 5.263000
v 8.077000 18.949000 6.821000
v 8.577000 18.949000 5.479000
v 8.577000 18.949000 6.317000
v 6.077000 16.315000 4.892000
v 6.077000 18.109000 4.892000
v 6.577000 15.861000 4.892000
v 6.577000 18.607000 4.892000
v 7.077000 15.373000 4.892000
v 7.077000 18.719000 4.892000
v 7.577000 15.007000 4.892000
v 7.577000 18.640000 4.892000
v 8.077000 14.906000 4.892000
v 8.077000 18.675000 4.892000
v 8.577000 15.003000 4.892000
v 8.577000 18.550000 4.892000
v 9.077000 15.360000 4.892000
v 9.077000 18.081000 4.892000
v 9.577000 15.781000 4.892000
v 9.577000 17.612000 4.892000
v 7.577000 16.444000 8.892000
v 7.577000 17.027000 8.892000
v 8.077000 15.777000 8.892000
v 8.077000 17.601000 8.892000
v 8.577000 15.738000 8.892000
v 8.577000 17.723000 8.892000
v 9.077000 15.914000 8.892000
v 9.077000 17.571000 8.892000
f 91 117 131
f 131 117 191
f 191 117 177
f 191 177 35
f 177 235 35
f 177 237 235
f 36 235 309
f 235 297 309
f 235 237 297
f 297 92 309
f 115 37 131
f 37 91 131
f 37 93 91
f 191 175 115
f 191 115 131
f 191 35 175
f 309 295 36
f 295 309 92
f 357 295 92
f 355 295 357
f 357 94 355
f 355 94 38
f 95 59 39
f 39 59 57
f 37 57 59
f 37 59 93
f 94 435 455
f 40 94 455
f 38 94 40
f 435 96 455
f 97 7 41
f 41 7 5
f 39 5 7
f 39 7 95
f 455 433 40
f 455 96 433
f 96 42 433
f 96 98 42
f 99 421 43
f 43 421 419
f 41 419 421
f 41 421 97
f 42 100 44
f 98 100 42
f 101 43 45
f 101 99 43
f 44 102 46
f 100 102 44
f 103 45 47
f 103 101 45
f 434 463 48
f 434 46 463
f 46 104 463
f 46 102 104
f 451 105 420
f 105 47 420
f 105 103 47
f 49 451 420
f 48 463 436
f 106 48 436
f 50 48 106
f 463 104 436
f 451 422 105
f 31 107 6
f 6 107 49
f 107 422 49
f 422 451 49
f 51 31 6
f 358 108 52
f 358 52 356
f 356 50 358
f 358 50 106
f 31 8 107
f 51 58 31
f 58 8 31
f 58 60 8
f 116 149 109
f 60 116 109
f 58 116 60
f 176 209 149
f 176 149 116
f 238 110 209
f 176 238 209
f 236 238 176
f 296 238 236
f 296 298 238
f 296 52 298
f 298 52 108
f 149 118 109
f 118 149 178
f 178 149 209
f 209 110 178
f 151 119 91
f 91 119 117
f 119 177 117
f 179 177 119
f 179 237 177
f 239 237 179
f 239 297 237
f 299 297 239
f 299 152 297
f 297 152 92
f 153 61 73
f 93 73 61
f 151 93 61
f 91 93 151
f 357 92 152
f 357 152 359
f 359 154 357
f 357 154 94
f 155 9 19
f 153 73 9
f 9 73 19
f 73 59 19
f 59 95 19
f 73 93 59
f 435 94 154
f 435 154 437
f 437 156 435
f 435 156 96
f 157 423 443
f 155 19 423
f 423 19 443
f 19 7 443
f 7 97 443
f 19 95 7
f 96 158 98
f 156 158 96
f 421 99 443
f 99 157 443
f 99 159 157
f 443 97 421
f 98 160 100
f 158 160 98
f 161 345 369
f 101 369 345
f 159 101 345
f 99 101 159
f 100 162 102
f 160 162 100
f 371 163 369
f 369 163 161
f 369 101 103
f 369 103 371
f 438 164 464
f 464 104 438
f 104 162 438
f 104 102 162
f 371 346 163
f 165 346 371
f 103 165 371
f 105 165 103
f 106 436 464
f 164 106 464
f 166 106 164
f 104 464 436
f 453 167 422
f 167 105 422
f 167 165 105
f 107 453 422
f 360 168 108
f 360 108 358
f 358 106 360
f 360 106 166
f 453 424 167
f 107 8 453
f 8 424 453
f 8 10 424
f 60 89 169
f 10 60 169
f 8 60 10
f 109 89 60
f 238 269 110
f 300 170 269
f 238 300 269
f 298 300 238
f 298 108 300
f 300 108 168
f 89 62 169
f 109 118 89
f 118 62 89
f 118 120 62
f 178 120 118
f 178 180 120
f 269 240 110
f 240 178 110
f 240 180 178
f 269 170 240
f 211 121 151
f 151 121 119
f 121 179 119
f 181 179 121
f 181 239 179
f 241 239 181
f 241 299 239
f 301 299 241
f 301 212 299
f 299 212 152
f 213 63 153
f 153 63 61
f 151 61 63
f 151 63 211
f 359 152 212
f 359 212 361
f 361 214 359
f 359 214 154
f 215 11 155
f 155 11 9
f 153 9 11
f 153 11 213
f 216 456 437
f 154 216 437
f 214 216 154
f 456 156 437
f 217 425 157
f 157 425 423
f 155 423 425
f 155 425 215
f 439 456 216
f 439 218 456
f 218 156 456
f 218 158 156
f 219 347 367
f 159 367 347
f 217 159 347
f 157 159 217
f 158 220 160
f 218 220 158
f 345 161 367
f 161 219 367
f 161 221 219
f 367 159 345
f 440 222 462
f 462 162 440
f 162 220 440
f 162 160 220
f 223 161 163
f 223 221 161
f 164 438 462
f 222 164 462
f 224 164 222
f 162 462 438
f 373 225 346
f 225 163 346
f 225 223 163
f 165 373 346
f 164 226 166
f 224 226 164
f 373 348 225
f 227 348 373
f 165 227 373
f 167 227 165
f 362 228 168
f 362 168 360
f 360 166 362
f 362 166 226
f 167 424 227
f 227 424 426
f 10 33 229
f 426 10 229
f 424 10 426
f 169 33 10
f 302 230 170
f 302 170 300
f 300 168 302
f 302 168 228
f 33 12 229
f 169 62 33
f 62 12 33
f 62 64 12
f 120 64 62
f 120 122 64
f 180 122 120
f 180 182 122
f 240 182 180
f 240 242 182
f 240 170 242
f 242 170 230
f 271 123 211
f 211 123 121
f 123 181 121
f 183 181 123
f 183 241 181
f 243 241 183
f 243 301 241
f 303 301 243
f 303 272 301
f 301 272 212
f 273 65 213
f 213 65 63
f 211 63 65
f 211 65 271
f 274 376 361
f 212 274 361
f 272 274 212
f 376 214 361
f 275 13 215
f 215 13 11
f 213 11 13
f 213 13 273
f 363 376 274
f 363 276 376
f 276 214 376
f 276 216 214
f 277 427 217
f 217 427 425
f 215 425 427
f 215 427 275
f 439 216 276
f 439 276 441
f 441 278 439
f 439 278 218
f 279 349 219
f 219 349 347
f 217 347 349
f 217 349 277
f 442 280 460
f 460 220 442
f 220 278 442
f 220 218 278
f 281 219 221
f 281 279 219
f 222 440 460
f 280 222 460
f 282 222 280
f 220 460 440
f 283 221 223
f 283 281 221
f 222 284 224
f 282 284 222
f 285 223 225
f 285 283 223
f 224 286 226
f 284 286 224
f 225 348 285
f 285 348 350
f 287 350 348
f 287 348 227
f 364 288 228
f 364 228 362
f 362 226 364
f 364 226 286
f 227 426 287
f 287 426 428
f 289 428 426
f 289 426 229
f 304 290 230
f 304 230 302
f 302 228 304
f 304 228 288
f 229 12 289
f 289 12 14
f 64 14 12
f 64 66 14
f 122 66 64
f 122 124 66
f 182 124 122
f 182 184 124
f 242 184 182
f 242 244 184
f 242 230 244
f 244 230 290
f 132 123 271
f 192 183 132
f 132 183 123
f 252 243 192
f 192 243 183
f 310 303 252
f 252 303 243
f 310 272 303
f 74 65 273
f 125 132 271
f 125 271 65
f 327 125 65
f 74 327 65
f 132 125 185
f 132 185 192
f 192 185 245
f 192 245 252
f 252 245 305
f 252 305 310
f 305 328 310
f 328 272 310
f 328 274 272
f 329 15 275
f 275 15 13
f 67 74 273
f 13 67 273
f 15 67 13
f 327 74 67
f 363 274 328
f 363 328 365
f 365 330 363
f 363 330 276
f 331 429 277
f 277 429 427
f 275 427 429
f 275 429 329
f 332 458 441
f 276 332 441
f 330 332 276
f 458 278 441
f 333 351 279
f 279 351 349
f 277 349 351
f 277 351 331
f 280 442 458
f 332 280 458
f 334 280 332
f 278 458 442
f 335 279 281
f 335 333 279
f 280 336 282
f 334 336 280
f 352 335 372
f 335 283 372
f 335 281 283
f 337 352 372
f 282 338 284
f 336 338 282
f 285 374 283
f 283 374 372
f 337 372 374
f 337 374 339
f 284 340 286
f 338 340 284
f 350 374 285
f 430 339 454
f 454 339 287
f 339 374 287
f 374 350 287
f 341 430 454
f 366 342 288
f 366 288 364
f 364 286 366
f 366 286 340
f 428 454 287
f 341 454 428
f 289 341 428
f 343 341 289
f 306 344 290
f 306 290 304
f 304 288 306
f 306 288 342
f 289 14 343
f 343 14 16
f 66 16 14
f 66 68 16
f 124 68 66
f 124 126 68
f 184 126 124
f 184 186 126
f 244 186 184
f 244 246 186
f 244 290 246
f 246 290 344
f 389 111 135
f 135 111 195
f 195 111 171
f 195 171 255
f 255 171 231
f 255 231 313
f 313 231 291
f 291 390 313
f 391 53 77
f 389 135 53
f 135 77 53
f 135 137 77
f 135 197 137
f 135 195 197
f 195 257 197
f 195 255 257
f 255 315 257
f 255 313 315
f 313 390 315
f 315 390 392
f 393 1 23
f 391 77 1
f 77 23 1
f 77 79 23
f 77 139 79
f 77 137 139
f 137 199 139
f 137 197 199
f 197 259 199
f 197 257 259
f 257 317 259
f 257 315 317
f 315 392 317
f 317 392 394
f 25 395 23
f 23 395 393
f 23 81 25
f 23 79 81
f 79 141 81
f 79 139 141
f 139 201 141
f 139 199 201
f 199 261 201
f 199 259 261
f 259 319 261
f 259 317 319
f 317 394 319
f 319 394 396
f 27 397 25
f 25 397 395
f 25 83 27
f 25 81 83
f 81 143 83
f 81 141 143
f 141 203 143
f 141 201 203
f 201 263 203
f 201 261 263
f 261 321 263
f 261 319 321
f 319 396 321
f 321 396 398
f 27 2 397
f 2 27 399
f 27 85 399
f 27 83 85
f 83 145 85
f 83 143 145
f 143 205 145
f 143 203 205
f 203 265 205
f 203 263 265
f 400 265 292
f 265 321 292
f 265 263 321
f 321 398 292
f 85 54 399
f 54 85 401
f 85 147 401
f 85 145 147
f 145 207 147
f 145 205 207
f 402 207 232
f 207 265 232
f 207 205 265
f 265 400 232
f 147 112 401
f 112 147 172
f 172 147 207
f 207 402 172
f 134 125 327
f 194 185 134
f 134 185 125
f 254 245 194
f 194 245 185
f 312 305 254
f 254 305 245
f 312 328 305
f 20 15 329
f 76 67 20
f 20 67 15
f 67 76 327
f 76 134 327
f 76 136 134
f 136 403 187
f 194 136 187
f 134 136 194
f 194 187 404
f 256 194 404
f 254 194 256
f 314 254 256
f 312 254 314
f 328 312 365
f 312 378 365
f 312 314 378
f 378 330 365
f 444 429 331
f 17 20 329
f 17 329 429
f 405 17 429
f 444 405 429
f 20 17 69
f 20 69 76
f 76 69 127
f 76 127 136
f 403 136 127
f 247 256 404
f 256 247 406
f 316 256 406
f 314 256 316
f 380 314 316
f 378 314 380
f 330 378 332
f 332 378 380
f 368 351 333
f 431 444 331
f 431 331 351
f 407 431 351
f 368 407 351
f 405 444 431
f 307 316 406
f 316 307 408
f 382 316 408
f 380 316 382
f 332 380 334
f 334 380 382
f 335 370 333
f 333 370 368
f 407 368 370
f 407 370 409
f 410 384 382
f 410 382 408
f 334 382 336
f 336 382 384
f 352 370 335
f 409 370 352
f 337 409 352
f 411 409 337
f 412 386 384
f 412 384 410
f 336 384 338
f 338 384 386
f 432 411 452
f 411 339 452
f 411 337 339
f 413 432 452
f 414 388 386
f 414 386 412
f 338 386 340
f 340 386 388
f 430 452 339
f 413 452 430
f 341 413 430
f 415 413 341
f 308 416 326
f 388 414 308
f 388 308 326
f 366 388 326
f 342 366 326
f 340 388 366
f 18 415 34
f 415 343 34
f 415 341 343
f 18 34 90
f 18 90 70
f 70 90 150
f 70 150 128
f 128 150 210
f 128 210 188
f 188 210 270
f 188 270 248
f 326 416 248
f 326 248 270
f 306 326 270
f 344 306 270
f 342 326 306
f 16 34 343
f 68 90 16
f 16 90 34
f 126 150 68
f 68 150 90
f 186 210 126
f 126 210 150
f 246 270 186
f 186 270 210
f 344 270 246
f 465 113 133
f 133 113 193
f 193 113 173
f 193 173 253
f 253 173 233
f 253 233 311
f 311 233 293
f 293 466 311
f 467 55 75
f 465 133 55
f 55 133 75
f 133 111 75
f 111 389 75
f 193 171 111
f 193 111 133
f 253 231 171
f 253 171 193
f 311 291 231
f 311 231 253
f 466 353 377
f 466 377 390
f 311 466 390
f 291 311 390
f 353 468 377
f 469 3 21
f 467 75 3
f 3 75 21
f 75 53 21
f 53 391 21
f 75 389 53
f 379 392 390
f 379 390 377
f 377 468 379
f 379 468 470
f 1 393 21
f 393 469 21
f 393 471 469
f 21 391 1
f 381 394 392
f 381 392 379
f 379 470 381
f 381 470 472
f 473 417 447
f 395 447 417
f 471 395 417
f 393 395 471
f 383 396 394
f 383 394 381
f 381 472 383
f 383 472 474
f 447 418 473
f 475 418 447
f 395 475 447
f 397 475 395
f 385 398 396
f 385 396 383
f 383 474 385
f 385 474 476
f 29 477 2
f 477 397 2
f 477 475 397
f 399 29 2
f 292 323 400
f 385 354 398
f 398 354 292
f 354 478 292
f 478 323 292
f 385 476 354
f 29 4 477
f 87 479 54
f 54 479 399
f 479 4 399
f 4 29 399
f 401 87 54
f 232 267 402
f 323 294 400
f 400 294 232
f 294 480 232
f 480 267 232
f 323 478 294
f 87 56 479
f 401 112 87
f 112 56 87
f 112 114 56
f 172 114 112
f 172 174 114
f 267 234 402
f 234 172 402
f 234 174 172
f 267 480 234
f 196 187 403
f 196 404 187
f 22 17 405
f 78 69 22
f 22 69 17
f 138 127 78
f 78 127 69
f 127 138 403
f 138 196 403
f 138 198 196
f 404 196 247
f 196 258 247
f 196 198 258
f 258 406 247
f 446 431 407
f 431 446 405
f 446 22 405
f 446 24 22
f 80 22 24
f 78 22 80
f 80 481 129
f 138 80 129
f 78 80 138
f 138 129 189
f 138 189 198
f 198 189 482
f 260 198 482
f 258 198 260
f 406 258 307
f 258 318 307
f 258 260 318
f 318 408 307
f 409 448 407
f 407 448 446
f 26 446 448
f 24 446 26
f 26 483 71
f 80 26 71
f 24 26 80
f 481 80 71
f 249 260 482
f 260 249 484
f 320 260 484
f 318 260 320
f 408 318 410
f 410 318 320
f 411 450 409
f 409 450 448
f 28 448 450
f 26 448 28
f 483 26 28
f 483 28 485
f 486 322 320
f 486 320 484
f 410 320 412
f 412 320 322
f 432 450 411
f 413 30 432
f 30 450 432
f 30 28 450
f 485 28 30
f 485 30 487
f 488 324 322
f 488 322 486
f 412 322 414
f 414 322 324
f 415 32 413
f 413 32 30
f 88 72 487
f 30 88 487
f 32 88 30
f 72 88 148
f 72 148 130
f 130 148 208
f 130 208 190
f 190 208 268
f 190 268 250
f 324 488 250
f 324 250 268
f 308 324 268
f 416 308 268
f 414 324 308
f 18 32 415
f 70 88 18
f 18 88 32
f 128 148 70
f 70 148 88
f 188 208 128
f 128 208 148
f 248 268 188
f 188 268 208
f 416 268 248
f 35 235 251
f 235 36 251
f 37 115 465
f 465 115 113
f 115 173 113
f 175 173 115
f 175 35 251
f 233 175 251
f 173 175 233
f 233 251 36
f 295 233 36
f 293 233 295
f 466 293 375
f 293 355 375
f 293 295 355
f 355 38 375
f 39 57 467
f 467 57 55
f 465 55 57
f 465 57 37
f 375 353 466
f 375 38 353
f 38 468 353
f 38 40 468
f 41 5 469
f 469 5 3
f 467 3 5
f 467 5 39
f 40 433 457
f 470 40 457
f 468 40 470
f 433 42 457
f 43 419 445
f 471 445 419
f 41 471 419
f 469 471 41
f 459 472 470
f 459 470 457
f 457 42 459
f 459 42 44
f 417 473 445
f 473 43 445
f 473 45 43
f 445 471 417
f 461 474 472
f 461 472 459
f 459 44 461
f 461 44 46
f 449 47 418
f 47 473 418
f 47 45 473
f 475 449 418
f 474 461 434
f 48 474 434
f 476 474 48
f 461 46 434
f 449 420 47
f 49 420 449
f 475 49 449
f 477 49 475
f 354 387 478
f 354 476 387
f 476 50 387
f 476 48 50
f 477 4 49
f 49 4 6
f 51 6 4
f 51 4 479
f 294 325 480
f 387 356 478
f 478 356 294
f 356 52 294
f 52 325 294
f 387 50 356
f 479 56 51
f 51 56 58
f 114 58 56
f 114 116 58
f 174 116 114
f 174 176 116
f 234 176 174
f 234 236 176
f 325 296 480
f 296 234 480
f 296 236 234
f 325 52 296
f 140 129 481
f 200 189 140
f 140 189 129
f 200 482 189
f 82 71 483
f 71 82 481
f 82 140 481
f 82 142 140
f 202 140 142
f 200 140 202
f 482 200 249
f 200 262 249
f 200 202 262
f 262 484 249
f 485 84 483
f 483 84 82
f 144 82 84
f 142 82 144
f 204 142 144
f 202 142 204
f 264 202 204
f 262 202 264
f 484 262 486
f 486 262 264
f 487 86 485
f 485 86 84
f 146 84 86
f 144 84 146
f 206 144 146
f 204 144 206
f 266 204 206
f 264 204 266
f 486 264 488
f 488 264 266
f 72 86 487
f 130 146 72
f 72 146 86
f 190 206 130
f 130 206 146
f 250 266 190
f 190 266 206
f 488 266 250
