# Converted from NanoShaper .vert/.face
v 15.569000 -1.413000 -12.634000
v 16.533000 -1.413000 -12.634000
v 14.909000 -1.413000 -12.134000
v 17.258000 -1.413000 -12.134000
v 14.605000 -1.413000 -11.634000
v 17.396000 -1.413000 -11.634000
v 14.522000 -1.413000 -11.134000
v 17.281000 -1.413000 -11.134000
v 14.491000 -1.413000 -10.634000
v 17.172000 -1.413000 -10.634000
v 14.527000 -1.413000 -10.134000
v 17.162000 -1.413000 -10.134000
v 14.633000 -1.413000 -9.634000
v 17.056000 -1.413000 -9.634000
v 15.008000 -1.413000 -9.134000
v 16.681000 -1.413000 -9.134000
v 15.770000 2.587000 -14.634000
v 18.333000 2.587000 -14.634000
v 15.409000 2.587000 -14.134000
v 18.738000 2.587000 -14.134000
v 15.291000 2.587000 -13.634000
v 18.855000 2.587000 -13.634000
v 15.068000 2.587000 -13.134000
v 18.762000 2.587000 -13.134000
v 14.481000 2.587000 -12.634000
v 18.400000 2.587000 -12.634000
v 14.106000 2.587000 -12.134000
v 17.584000 2.587000 -12.134000
v 14.002000 2.587000 -11.634000
v 16.821000 2.587000 -11.634000
v 14.098000 2.587000 -11.134000
v 16.514000 2.587000 -11.134000
v 14.458000 2.587000 -10.634000
v 16.154000 2.587000 -10.634000
v 14.570000 -1.413000 -11.528000
v 14.570000 -1.413000 -9.818000
v 15.070000 -1.413000 -12.322000
v 15.070000 -1.413000 -9.087000
v 15.570000 -1.413000 -12.635000
v 15.570000 -1.413000 -8.864000
v 16.070000 -1.413000 -12.649000
v 16.070000 -1.413000 -8.855000
v 16.570000 -1.413000 -12.628000
v 16.570000 -1.413000 -9.053000
v 17.070000 -1.413000 -12.376000
v 17.070000 -1.413000 -9.669000
v 14.070000 2.587000 -12.040000
v 14.070000 2.587000 -11.210000
v 14.570000 2.587000 -12.701000
v 14.570000 2.587000 -10.549000
v 15.070000 2.587000 -13.138000
v 15.070000 2.587000 -10.343000
v 15.570000 2.587000 -14.416000
v 15.570000 2.587000 -10.348000
v 16.070000 2.587000 -14.849000
v 16.070000 2.587000 -10.569000
v 16.570000 2.587000 -15.028000
v 16.570000 2.587000 -11.261000
v 17.070000 2.587000 -15.021000
v 17.070000 2.587000 -11.844000
v 17.570000 2.587000 -14.996000
v 17.570000 2.587000 -12.126000
v 18.070000 2.587000 -14.814000
v 18.070000 2.587000 -12.407000
v 18.570000 2.587000 -14.399000
v 18.570000 2.587000 -12.813000
v 15.070000 1.300000 -14.134000
v 15.070000 1.910000 -14.134000
v 15.570000 0.440000 -14.134000
v 15.570000 3.033000 -14.134000
v 16.070000 -0.032000 -14.134000
v 16.070000 3.645000 -14.134000
v 16.570000 -0.235000 -14.134000
v 16.570000 3.841000 -14.134000
v 17.070000 -0.230000 -14.134000
v 17.070000 3.869000 -14.134000
v 17.570000 -0.255000 -14.134000
v 17.570000 3.876000 -14.134000
v 18.070000 -0.240000 -14.134000
v 18.070000 3.675000 -14.134000
v 18.570000 -0.180000 -14.134000
v 18.570000 3.034000 -14.134000
v 19.070000 0.053000 -14.134000
v 19.070000 2.171000 -14.134000
v 19.570000 0.845000 -14.134000
v 19.570000 1.375000 -14.134000
v 14.570000 -1.520000 -10.134000
v 14.570000 -0.184000 -10.134000
v 15.070000 -2.107000 -10.134000
v 15.070000 0.882000 -10.134000
v 15.570000 -2.313000 -10.134000
v 15.570000 1.215000 -10.134000
v 16.070000 -2.322000 -10.134000
v 16.070000 1.079000 -10.134000
v 16.570000 -2.138000 -10.134000
v 16.570000 0.729000 -10.134000
v 17.070000 -1.617000 -10.134000
v 17.070000 0.217000 -10.134000
v 16.441000 -0.913000 -13.134000
v 17.112000 -0.913000 -13.134000
v 14.952000 -0.913000 -12.634000
v 17.684000 -0.913000 -12.634000
v 14.608000 -0.913000 -12.134000
v 17.794000 -0.913000 -12.134000
v 14.488000 -0.913000 -11.634000
v 17.719000 -0.913000 -11.634000
v 14.428000 -0.913000 -11.134000
v 17.606000 -0.913000 -11.134000
v 14.414000 -0.913000 -10.634000
v 17.477000 -0.913000 -10.634000
v 14.445000 -0.913000 -10.134000
v 17.283000 -0.913000 -10.134000
v 14.544000 -0.913000 -9.634000
v 17.145000 -0.913000 -9.634000
v 14.884000 -0.913000 -9.134000
v 16.805000 -0.913000 -9.134000
v 15.957000 3.087000 -14.634000
v 18.170000 3.087000 -14.634000
v 15.593000 3.087000 -14.134000
v 18.550000 3.087000 -14.134000
v 15.491000 3.087000 -13.634000
v 18.657000 3.087000 -13.634000
v 15.396000 3.087000 -13.134000
v 18.567000 3.087000 -13.134000
v 15.068000 3.087000 -12.634000
v 18.218000 3.087000 -12.634000
v 14.482000 3.087000 -12.134000
v 16.844000 3.087000 -12.134000
v 14.337000 3.087000 -11.634000
v 16.338000 3.087000 -11.634000
v 14.470000 3.087000 -11.134000
v 16.142000 3.087000 -11.134000
v 14.570000 -0.913000 -12.023000
v 14.570000 -0.913000 -9.574000
v 15.070000 -0.913000 -12.729000
v 15.070000 -0.913000 -8.987000
v 15.570000 -0.913000 -12.954000
v 15.570000 -0.913000 -8.780000
v 16.070000 -0.913000 -13.051000
v 16.070000 -0.913000 -8.771000
v 16.570000 -0.913000 -13.170000
v 16.570000 -0.913000 -8.956000
v 17.070000 -0.913000 -13.148000
v 17.070000 -0.913000 -9.477000
v 17.570000 -0.913000 -12.811000
v 17.570000 -0.913000 -10.983000
v 14.570000 3.087000 -12.255000
v 14.570000 3.087000 -10.994000
v 15.070000 3.087000 -12.636000
v 15.070000 3.087000 -10.685000
v 15.570000 3.087000 -14.074000
v 15.570000 3.087000 -10.692000
v 16.070000 3.087000 -14.720000
v 16.070000 3.087000 -11.029000
v 16.570000 3.087000 -14.919000
v 16.570000 3.087000 -11.963000
v 17.070000 3.087000 -14.919000
v 17.070000 3.087000 -12.215000
v 17.570000 3.087000 -14.906000
v 17.570000 3.087000 -12.322000
v 18.070000 3.087000 -14.707000
v 18.070000 3.087000 -12.521000
v 18.570000 3.087000 -14.085000
v 18.570000 3.087000 -13.143000
v 15.070000 0.510000 -13.634000
v 15.070000 2.224000 -13.634000
v 15.570000 -0.030000 -13.634000
v 15.570000 3.236000 -13.634000
v 16.070000 -0.353000 -13.634000
v 16.070000 3.749000 -13.634000
v 16.570000 -0.464000 -13.634000
v 16.570000 3.930000 -13.634000
v 17.070000 -0.453000 -13.634000
v 17.070000 3.969000 -13.634000
v 17.570000 -0.428000 -13.634000
v 17.570000 3.978000 -13.634000
v 18.070000 -0.330000 -13.634000
v 18.070000 3.794000 -13.634000
v 18.570000 -0.257000 -13.634000
v 18.570000 3.276000 -13.634000
v 19.070000 -0.040000 -13.634000
v 19.070000 2.288000 -13.634000
v 19.570000 0.586000 -13.634000
v 19.570000 1.634000 -13.634000
v 14.570000 -1.200000 -9.634000
v 14.570000 -0.682000 -9.634000
v 15.070000 -1.985000 -9.634000
v 15.070000 0.172000 -9.634000
v 15.570000 -2.212000 -9.634000
v 15.570000 0.507000 -9.634000
v 16.070000 -2.221000 -9.634000
v 16.070000 0.525000 -9.634000
v 16.570000 -2.020000 -9.634000
v 16.570000 0.239000 -9.634000
v 17.070000 -1.376000 -9.634000
v 17.070000 -0.506000 -9.634000
v 16.308000 -0.413000 -13.634000
v 17.679000 -0.413000 -13.634000
v 15.393000 -0.413000 -13.134000
v 18.072000 -0.413000 -13.134000
v 14.820000 -0.413000 -12.634000
v 18.130000 -0.413000 -12.634000
v 14.516000 -0.413000 -12.134000
v 18.101000 -0.413000 -12.134000
v 14.427000 -0.413000 -11.634000
v 17.983000 -0.413000 -11.634000
v 14.435000 -0.413000 -11.134000
v 17.740000 -0.413000 -11.134000
v 14.454000 -0.413000 -10.634000
v 17.592000 -0.413000 -10.634000
v 14.522000 -0.413000 -10.134000
v 17.296000 -0.413000 -10.134000
v 14.656000 -0.413000 -9.634000
v 17.033000 -0.413000 -9.634000
v 15.041000 -0.413000 -9.134000
v 16.647000 -0.413000 -9.134000
v 15.988000 3.587000 -14.134000
v 18.188000 3.587000 -14.134000
v 15.851000 3.587000 -13.634000
v 18.335000 3.587000 -13.634000
v 15.990000 3.587000 -13.134000
v 18.211000 3.587000 -13.134000
v 14.570000 -0.413000 -12.257000
v 14.570000 -0.413000 -9.907000
v 15.070000 -0.413000 -12.875000
v 15.070000 -0.413000 -9.113000
v 15.570000 -0.413000 -13.275000
v 15.570000 -0.413000 -8.885000
v 16.070000 -0.413000 -13.564000
v 16.070000 -0.413000 -8.876000
v 16.570000 -0.413000 -13.715000
v 16.570000 -0.413000 -9.078000
v 17.070000 -0.413000 -13.699000
v 17.070000 -0.413000 -9.719000
v 17.570000 -0.413000 -13.670000
v 17.570000 -0.413000 -10.579000
v 18.070000 -0.413000 -13.141000
v 18.070000 -0.413000 -11.901000
v 16.070000 3.587000 -14.249000
v 16.070000 3.587000 -13.007000
v 16.570000 3.587000 -14.558000
v 16.570000 3.587000 -12.726000
v 17.070000 3.587000 -14.577000
v 17.070000 3.587000 -12.664000
v 17.570000 3.587000 -14.578000
v 17.570000 3.587000 -12.650000
v 18.070000 3.587000 -14.288000
v 18.070000 3.587000 -12.940000
v 14.570000 0.907000 -13.134000
v 14.570000 1.316000 -13.134000
v 15.070000 0.009000 -13.134000
v 15.070000 2.590000 -13.134000
v 15.570000 -0.597000 -13.134000
v 15.570000 3.265000 -13.134000
v 16.070000 -0.817000 -13.134000
v 16.070000 3.636000 -13.134000
v 16.570000 -0.949000 -13.134000
v 16.570000 3.832000 -13.134000
v 17.070000 -0.927000 -13.134000
v 17.070000 3.882000 -13.134000
v 17.570000 -0.684000 -13.134000
v 17.570000 3.892000 -13.134000
v 18.070000 -0.415000 -13.134000
v 18.070000 3.694000 -13.134000
v 18.570000 -0.173000 -13.134000
v 18.570000 3.078000 -13.134000
v 19.070000 0.097000 -13.134000
v 19.070000 2.144000 -13.134000
v 15.070000 -1.509000 -9.134000
v 15.070000 -0.372000 -9.134000
v 15.570000 -1.861000 -9.134000
v 15.570000 -0.020000 -9.134000
v 16.070000 -1.874000 -9.134000
v 16.070000 -0.007000 -9.134000
v 16.570000 -1.570000 -9.134000
v 16.570000 -0.311000 -9.134000
v 17.460000 0.087000 -14.634000
v 18.304000 0.087000 -14.634000
v 15.918000 0.087000 -14.134000
v 19.113000 0.087000 -14.134000
v 15.447000 0.087000 -13.634000
v 19.227000 0.087000 -13.634000
v 15.003000 0.087000 -13.134000
v 19.057000 0.087000 -13.134000
v 14.664000 0.087000 -12.634000
v 18.584000 0.087000 -12.634000
v 14.371000 0.087000 -12.134000
v 18.278000 0.087000 -12.134000
v 14.264000 0.087000 -11.634000
v 18.068000 0.087000 -11.634000
v 14.311000 0.087000 -11.134000
v 17.752000 0.087000 -11.134000
v 14.445000 0.087000 -10.634000
v 17.509000 0.087000 -10.634000
v 14.649000 0.087000 -10.134000
v 17.151000 0.087000 -10.134000
v 14.993000 0.087000 -9.634000
v 16.707000 0.087000 -9.634000
v 14.570000 0.087000 -12.460000
v 14.570000 0.087000 -10.304000
v 15.070000 0.087000 -13.213000
v 15.070000 0.087000 -9.556000
v 15.570000 0.087000 -13.780000
v 15.570000 0.087000 -9.242000
v 16.070000 0.087000 -14.330000
v 16.070000 0.087000 -9.229000
v 16.570000 0.087000 -14.611000
v 16.570000 0.087000 -9.504000
v 17.070000 0.087000 -14.609000
v 17.070000 0.087000 -10.059000
v 17.570000 0.087000 -14.661000
v 17.570000 0.087000 -10.791000
v 18.070000 0.087000 -14.647000
v 18.070000 0.087000 -11.639000
v 18.570000 0.087000 -14.587000
v 18.570000 0.087000 -12.616000
v 19.070000 0.087000 -14.206000
v 19.070000 0.087000 -13.154000
v 14.570000 0.300000 -12.634000
v 14.570000 2.708000 -12.634000
v 15.070000 -1.090000 -12.634000
v 15.070000 3.088000 -12.634000
v 15.570000 -1.414000 -12.634000
v 15.570000 3.319000 -12.634000
v 16.070000 -1.428000 -12.634000
v 16.070000 3.460000 -12.634000
v 16.570000 -1.406000 -12.634000
v 16.570000 3.519000 -12.634000
v 17.070000 -1.256000 -12.634000
v 17.070000 3.559000 -12.634000
v 17.570000 -1.010000 -12.634000
v 17.570000 3.571000 -12.634000
v 18.070000 -0.482000 -12.634000
v 18.070000 3.286000 -12.634000
v 18.570000 0.071000 -12.634000
v 18.570000 2.316000 -12.634000
v 19.070000 0.629000 -12.634000
v 19.070000 1.591000 -12.634000
v 15.947000 0.587000 -14.634000
v 19.153000 0.587000 -14.634000
v 15.443000 0.587000 -14.134000
v 19.489000 0.587000 -14.134000
v 15.022000 0.587000 -13.634000
v 19.570000 0.587000 -13.634000
v 14.663000 0.587000 -13.134000
v 19.451000 0.587000 -13.134000
v 14.416000 0.587000 -12.634000
v 19.043000 0.587000 -12.634000
v 14.079000 0.587000 -12.134000
v 18.361000 0.587000 -12.134000
v 13.982000 0.587000 -11.634000
v 17.960000 0.587000 -11.634000
v 14.083000 0.587000 -11.134000
v 17.572000 0.587000 -11.134000
v 14.394000 0.587000 -10.634000
v 17.196000 0.587000 -10.634000
v 14.861000 0.587000 -10.134000
v 16.707000 0.587000 -10.134000
v 14.070000 0.587000 -12.111000
v 14.070000 0.587000 -11.167000
v 14.570000 0.587000 -12.895000
v 14.570000 0.587000 -10.422000
v 15.070000 0.587000 -13.683000
v 15.070000 0.587000 -9.972000
v 15.570000 0.587000 -14.263000
v 15.570000 0.587000 -9.714000
v 16.070000 0.587000 -14.721000
v 16.070000 0.587000 -9.696000
v 16.570000 0.587000 -14.920000
v 16.570000 0.587000 -9.982000
v 17.070000 0.587000 -14.921000
v 17.070000 0.587000 -10.484000
v 17.570000 0.587000 -14.970000
v 17.570000 0.587000 -11.132000
v 18.070000 0.587000 -14.972000
v 18.070000 0.587000 -11.796000
v 18.570000 0.587000 -14.944000
v 18.570000 0.587000 -12.317000
v 19.070000 0.587000 -14.705000
v 19.070000 0.587000 -12.655000
v 19.570000 0.587000 -13.732000
v 19.570000 0.587000 -13.627000
v 14.070000 0.609000 -12.134000
v 14.070000 2.492000 -12.134000
v 14.570000 -0.797000 -12.134000
v 14.570000 3.153000 -12.134000
v 15.070000 -1.596000 -12.134000
v 15.070000 3.359000 -12.134000
v 15.570000 -1.896000 -12.134000
v 15.570000 3.389000 -12.134000
v 16.070000 -1.900000 -12.134000
v 16.070000 3.334000 -12.134000
v 16.570000 -1.757000 -12.134000
v 16.570000 3.185000 -12.134000
v 17.070000 -1.560000 -12.134000
v 17.070000 2.980000 -12.134000
v 17.570000 -1.123000 -12.134000
v 17.570000 2.609000 -12.134000
v 18.070000 -0.487000 -12.134000
v 18.070000 1.723000 -12.134000
v 15.485000 1.087000 -14.634000
v 19.296000 1.087000 -14.634000
v 15.140000 1.087000 -14.134000
v 19.597000 1.087000 -14.134000
v 14.858000 1.087000 -13.634000
v 19.672000 1.087000 -13.634000
v 14.554000 1.087000 -13.134000
v 19.562000 1.087000 -13.134000
v 14.292000 1.087000 -12.634000
v 19.204000 1.087000 -12.634000
v 13.977000 1.087000 -12.134000
v 18.283000 1.087000 -12.134000
v 13.886000 1.087000 -11.634000
v 17.684000 1.087000 -11.634000
v 13.980000 1.087000 -11.134000
v 17.210000 1.087000 -11.134000
v 14.311000 1.087000 -10.634000
v 16.691000 1.087000 -10.634000
v 15.269000 1.087000 -10.134000
v 16.055000 1.087000 -10.134000
v 14.070000 1.087000 -12.333000
v 14.070000 1.087000 -10.946000
v 14.570000 1.087000 -13.175000
v 14.570000 1.087000 -10.436000
v 15.070000 1.087000 -13.982000
v 15.070000 1.087000 -10.207000
v 15.570000 1.087000 -14.705000
v 15.570000 1.087000 -10.077000
v 16.070000 1.087000 -14.936000
v 16.070000 1.087000 -10.140000
v 16.570000 1.087000 -15.006000
v 16.570000 1.087000 -10.502000
v 17.070000 1.087000 -15.006000
v 17.070000 1.087000 -11.004000
v 17.570000 1.087000 -15.049000
v 17.570000 1.087000 -11.532000
v 18.070000 1.087000 -15.066000
v 18.070000 1.087000 -11.959000
v 18.570000 1.087000 -15.048000
v 18.570000 1.087000 -12.293000
v 19.070000 1.087000 -14.830000
v 19.070000 1.087000 -12.529000
v 19.570000 1.087000 -14.206000
v 19.570000 1.087000 -13.154000
v 14.070000 0.401000 -11.634000
v 14.070000 2.734000 -11.634000
v 14.570000 -1.318000 -11.634000
v 14.570000 3.267000 -11.634000
v 15.070000 -1.994000 -11.634000
v 15.070000 3.456000 -11.634000
v 15.570000 -2.208000 -11.634000
v 15.570000 3.451000 -11.634000
v 16.070000 -2.211000 -11.634000
v 16.070000 3.258000 -11.634000
v 16.570000 -2.005000 -11.634000
v 16.570000 2.879000 -11.634000
v 17.070000 -1.675000 -11.634000
v 17.070000 2.178000 -11.634000
v 17.570000 -1.181000 -11.634000
v 17.570000 1.261000 -11.634000
v 15.342000 1.587000 -14.634000
v 19.179000 1.587000 -14.634000
v 15.034000 1.587000 -14.134000
v 19.508000 1.587000 -14.134000
v 14.882000 1.587000 -13.634000
v 19.588000 1.587000 -13.634000
v 14.637000 1.587000 -13.134000
v 19.471000 1.587000 -13.134000
v 14.345000 1.587000 -12.634000
v 19.073000 1.587000 -12.634000
v 14.031000 1.587000 -12.134000
v 18.151000 1.587000 -12.134000
v 13.935000 1.587000 -11.634000
v 17.339000 1.587000 -11.634000
v 14.029000 1.587000 -11.134000
v 16.840000 1.587000 -11.134000
v 14.371000 1.587000 -10.634000
v 16.372000 1.587000 -10.634000
v 14.070000 1.587000 -12.224000
v 14.070000 1.587000 -11.041000
v 14.570000 1.587000 -13.004000
v 14.570000 1.587000 -10.480000
v 15.070000 1.587000 -14.225000
v 15.070000 1.587000 -10.272000
v 15.570000 1.587000 -14.827000
v 15.570000 1.587000 -10.235000
v 16.070000 1.587000 -15.038000
v 16.070000 1.587000 -10.389000
v 16.570000 1.587000 -15.057000
v 16.570000 1.587000 -10.844000
v 17.070000 1.587000 -15.057000
v 17.070000 1.587000 -11.363000
v 17.570000 1.587000 -15.063000
v 17.570000 1.587000 -11.804000
v 18.070000 1.587000 -15.000000
v 18.070000 1.587000 -12.077000
v 18.570000 1.587000 -14.962000
v 18.570000 1.587000 -12.375000
v 19.070000 1.587000 -14.727000
v 19.070000 1.587000 -12.632000
v 19.570000 1.587000 -13.903000
v 19.570000 1.587000 -13.456000
v 14.070000 0.619000 -11.134000
v 14.070000 2.514000 -11.134000
v 14.570000 -1.524000 -11.134000
v 14.570000 3.162000 -11.134000
v 15.070000 -2.088000 -11.134000
v 15.070000 3.366000 -11.134000
v 15.570000 -2.287000 -11.134000
v 15.570000 3.361000 -11.134000
v 16.070000 -2.289000 -11.134000
v 16.070000 3.142000 -11.134000
v 16.570000 -2.097000 -11.134000
v 16.570000 2.431000 -11.134000
v 17.070000 -1.625000 -11.134000
v 17.070000 1.251000 -11.134000
v 17.570000 -1.000000 -11.134000
v 17.570000 0.590000 -11.134000
v 14.966000 -1.913000 -11.634000
v 16.697000 -1.913000 -11.634000
v 14.852000 -1.913000 -11.134000
v 16.804000 -1.913000 -11.134000
v 14.793000 -1.913000 -10.634000
v 16.833000 -1.913000 -10.634000
v 14.838000 -1.913000 -10.134000
v 16.851000 -1.913000 -10.134000
v 14.981000 -1.913000 -9.634000
v 16.708000 -1.913000 -9.634000
v 15.464000 2.087000 -14.634000
v 18.671000 2.087000 -14.634000
v 15.125000 2.087000 -14.134000
v 19.167000 2.087000 -14.134000
v 15.013000 2.087000 -13.634000
v 19.275000 2.087000 -13.634000
v 14.802000 2.087000 -13.134000
v 19.121000 2.087000 -13.134000
v 14.336000 2.087000 -12.634000
v 18.731000 2.087000 -12.634000
v 14.002000 2.087000 -12.134000
v 17.792000 2.087000 -12.134000
v 13.906000 2.087000 -11.634000
v 17.127000 2.087000 -11.634000
v 13.995000 2.087000 -11.134000
v 16.681000 2.087000 -11.134000
v 14.316000 2.087000 -10.634000
v 16.295000 2.087000 -10.634000
v 15.070000 -1.913000 -11.791000
v 15.070000 -1.913000 -9.509000
v 15.570000 -1.913000 -12.117000
v 15.570000 -1.913000 -9.184000
v 16.070000 -1.913000 -12.121000
v 16.070000 -1.913000 -9.172000
v 16.570000 -1.913000 -11.825000
v 16.570000 -1.913000 -9.455000
v 14.070000 2.087000 -12.282000
v 14.070000 2.087000 -10.967000
v 14.570000 2.087000 -12.851000
v 14.570000 2.087000 -10.434000
v 15.070000 2.087000 -13.949000
v 15.070000 2.087000 -10.245000
v 15.570000 2.087000 -14.722000
v 15.570000 2.087000 -10.250000
v 16.070000 2.087000 -14.953000
v 16.070000 2.087000 -10.452000
v 16.570000 2.087000 -15.013000
v 16.570000 2.087000 -10.988000
v 17.070000 2.087000 -15.010000
v 17.070000 2.087000 -11.585000
v 17.570000 2.087000 -14.993000
v 17.570000 2.087000 -11.987000
v 18.070000 2.087000 -14.887000
v 18.070000 2.087000 -12.277000
v 18.570000 2.087000 -14.691000
v 18.570000 2.087000 -12.503000
v 19.070000 2.087000 -14.289000
v 19.070000 2.087000 -13.049000
v 15.570000 0.965000 -14.634000
v 15.570000 2.245000 -14.634000
v 16.070000 0.418000 -14.634000
v 16.070000 3.230000 -14.634000
v 16.570000 0.111000 -14.634000
v 16.570000 3.514000 -14.634000
v 17.070000 0.113000 -14.634000
v 17.070000 3.529000 -14.634000
v 17.570000 0.059000 -14.634000
v 17.570000 3.528000 -14.634000
v 18.070000 0.074000 -14.634000
v 18.070000 3.224000 -14.634000
v 18.570000 0.130000 -14.634000
v 18.570000 2.182000 -14.634000
v 19.070000 0.467000 -14.634000
v 19.070000 1.753000 -14.634000
v 14.570000 -1.599000 -10.634000
v 14.570000 2.738000 -10.634000
v 15.070000 -2.142000 -10.634000
v 15.070000 3.037000 -10.634000
v 15.570000 -2.334000 -10.634000
v 15.570000 3.030000 -10.634000
v 16.070000 -2.331000 -10.634000
v 16.070000 2.705000 -10.634000
v 16.570000 -2.133000 -10.634000
v 16.570000 1.232000 -10.634000
v 17.070000 -1.577000 -10.634000
v 17.070000 0.712000 -10.634000
v 17.570000 -0.619000 -10.634000
v 17.570000 -0.130000 -10.634000
f 165 343 363
f 363 343 425
f 425 343 405
f 425 405 67
f 405 463 67
f 405 465 463
f 68 463 559
f 463 533 559
f 463 465 533
f 533 166 559
f 167 281 303
f 165 363 281
f 281 363 303
f 363 341 303
f 341 69 303
f 425 403 341
f 425 341 363
f 425 67 403
f 559 531 68
f 531 559 166
f 21 531 166
f 19 531 21
f 70 19 151
f 19 121 151
f 19 21 121
f 121 168 151
f 279 71 303
f 71 167 303
f 71 169 167
f 303 69 279
f 151 119 70
f 119 151 168
f 219 119 168
f 217 119 219
f 219 170 217
f 217 170 72
f 171 197 231
f 73 231 197
f 169 73 197
f 71 73 169
f 72 172 74
f 170 172 72
f 233 173 231
f 231 173 171
f 231 73 75
f 231 75 233
f 74 174 76
f 172 174 74
f 235 175 233
f 233 175 173
f 233 75 77
f 233 77 235
f 76 176 78
f 174 176 76
f 235 198 175
f 177 198 235
f 77 177 235
f 79 177 77
f 78 178 80
f 176 178 78
f 179 79 81
f 179 177 79
f 120 163 82
f 220 180 163
f 120 220 163
f 218 220 120
f 218 80 220
f 220 80 178
f 181 81 83
f 181 179 81
f 22 182 84
f 22 84 20
f 163 122 82
f 122 20 82
f 122 22 20
f 163 180 122
f 83 280 181
f 181 280 282
f 342 381 183
f 282 342 183
f 280 342 282
f 85 381 342
f 464 501 86
f 534 184 501
f 464 534 501
f 532 534 464
f 532 84 534
f 534 84 182
f 381 344 183
f 85 404 381
f 404 344 381
f 404 406 344
f 501 466 86
f 466 404 86
f 466 406 404
f 501 184 466
f 36 11 87
f 185 113 36
f 113 11 36
f 113 111 11
f 224 211 186
f 211 113 186
f 211 111 113
f 224 88 211
f 187 527 89
f 89 527 525
f 13 36 87
f 525 13 87
f 527 13 525
f 185 36 13
f 213 224 186
f 295 88 224
f 213 295 224
f 297 295 213
f 364 357 188
f 357 297 188
f 357 295 297
f 364 90 357
f 189 89 91
f 189 187 89
f 190 366 364
f 190 364 188
f 90 364 419
f 364 428 419
f 364 366 428
f 428 92 419
f 191 91 93
f 191 189 91
f 192 368 366
f 192 366 190
f 420 428 94
f 428 368 94
f 428 366 368
f 92 428 420
f 193 93 95
f 193 191 93
f 194 370 368
f 194 368 192
f 94 368 96
f 96 368 370
f 95 526 193
f 193 526 528
f 526 97 46
f 14 526 46
f 528 526 14
f 195 14 46
f 214 196 234
f 214 234 310
f 214 310 298
f 370 194 298
f 370 298 310
f 358 370 310
f 98 358 310
f 96 370 358
f 12 46 97
f 46 12 195
f 12 114 195
f 12 112 114
f 196 114 234
f 114 212 234
f 114 112 212
f 296 310 212
f 212 310 234
f 98 310 296
f 249 407 423
f 407 250 423
f 251 283 301
f 301 283 165
f 283 343 165
f 283 345 343
f 345 249 423
f 405 345 423
f 343 345 405
f 405 423 250
f 467 405 250
f 465 405 467
f 467 533 465
f 535 533 467
f 166 533 51
f 533 23 51
f 533 535 23
f 23 252 51
f 253 199 227
f 251 301 199
f 199 301 227
f 301 281 227
f 281 167 227
f 301 165 281
f 51 21 166
f 21 51 252
f 123 21 252
f 121 21 123
f 123 254 121
f 121 254 168
f 229 255 227
f 227 255 253
f 227 167 169
f 227 169 229
f 219 168 254
f 219 254 221
f 221 256 219
f 219 256 170
f 257 99 141
f 255 229 99
f 99 229 141
f 229 197 141
f 197 171 141
f 229 169 197
f 170 258 172
f 256 258 170
f 143 259 141
f 141 259 257
f 141 171 173
f 141 173 143
f 172 260 174
f 258 260 172
f 143 100 259
f 261 100 143
f 173 261 143
f 175 261 173
f 174 262 176
f 260 262 174
f 237 263 198
f 263 175 198
f 263 261 175
f 177 237 198
f 176 264 178
f 262 264 176
f 237 200 263
f 265 200 237
f 177 265 237
f 179 265 177
f 124 266 164
f 124 164 180
f 220 124 180
f 222 124 220
f 220 178 222
f 222 178 264
f 284 265 318
f 265 181 318
f 265 179 181
f 267 284 318
f 24 268 182
f 24 182 22
f 266 24 164
f 24 122 164
f 24 22 122
f 180 164 122
f 282 318 181
f 346 267 382
f 382 267 183
f 267 318 183
f 318 282 183
f 346 382 444
f 346 444 408
f 408 444 502
f 408 502 468
f 468 502 184
f 534 468 184
f 536 468 534
f 534 182 536
f 536 182 268
f 344 382 183
f 406 444 344
f 344 444 382
f 466 502 406
f 406 502 444
f 184 502 466
f 134 113 185
f 134 186 113
f 548 527 187
f 269 15 548
f 15 527 548
f 15 13 527
f 115 134 185
f 13 115 185
f 15 115 13
f 213 186 134
f 115 213 134
f 215 213 115
f 302 297 270
f 297 215 270
f 297 213 215
f 302 188 297
f 189 550 187
f 187 550 548
f 269 548 550
f 269 550 271
f 272 304 302
f 272 302 270
f 188 302 190
f 190 302 304
f 191 552 189
f 189 552 550
f 271 550 552
f 271 552 273
f 274 306 304
f 274 304 272
f 190 304 192
f 192 304 306
f 193 554 191
f 191 554 552
f 273 552 554
f 273 554 275
f 276 308 306
f 276 306 274
f 192 306 194
f 194 306 308
f 528 554 193
f 554 528 275
f 528 16 275
f 528 14 16
f 14 195 144
f 116 14 144
f 16 14 116
f 116 144 196
f 214 116 196
f 216 116 214
f 276 216 308
f 216 298 308
f 216 214 298
f 194 308 298
f 114 144 195
f 196 144 114
f 319 347 361
f 361 347 249
f 347 407 249
f 347 409 407
f 250 407 481
f 407 469 481
f 407 409 469
f 481 469 557
f 557 469 537
f 557 537 49
f 49 537 25
f 25 320 49
f 321 101 135
f 135 101 225
f 225 101 201
f 225 201 251
f 201 283 251
f 201 285 283
f 285 319 361
f 345 285 361
f 283 285 345
f 361 249 345
f 481 467 250
f 557 535 467
f 557 467 481
f 49 23 535
f 49 535 557
f 320 125 149
f 320 149 252
f 49 320 252
f 23 49 252
f 125 322 149
f 323 1 39
f 321 135 1
f 135 39 1
f 135 137 39
f 225 199 253
f 137 225 253
f 135 225 137
f 225 251 199
f 149 123 252
f 149 322 123
f 322 254 123
f 322 324 254
f 41 325 39
f 39 325 323
f 39 139 41
f 39 137 139
f 137 253 255
f 137 255 139
f 326 240 221
f 254 326 221
f 324 326 254
f 240 256 221
f 41 2 325
f 257 327 99
f 327 41 99
f 41 139 99
f 41 327 2
f 139 255 99
f 328 242 240
f 328 240 326
f 256 240 258
f 258 240 242
f 329 257 259
f 329 327 257
f 330 244 242
f 330 242 328
f 258 242 260
f 260 242 244
f 145 331 100
f 331 259 100
f 331 329 259
f 261 145 100
f 332 246 244
f 332 244 330
f 260 244 262
f 262 244 246
f 145 102 331
f 333 102 145
f 261 333 145
f 263 333 261
f 334 248 246
f 334 246 332
f 262 246 264
f 264 246 248
f 263 200 333
f 333 200 202
f 335 202 200
f 335 200 265
f 26 336 66
f 26 66 266
f 124 26 266
f 126 26 124
f 334 126 248
f 126 222 248
f 126 124 222
f 264 248 222
f 265 284 335
f 335 284 286
f 284 267 380
f 348 284 380
f 286 284 348
f 337 348 380
f 538 338 576
f 66 336 538
f 66 538 576
f 24 66 576
f 268 24 576
f 266 66 24
f 346 380 267
f 380 346 337
f 346 410 337
f 346 408 410
f 468 410 408
f 468 470 410
f 338 470 576
f 470 536 576
f 470 468 536
f 268 576 536
f 38 15 269
f 136 115 38
f 38 115 15
f 226 215 136
f 136 215 115
f 226 270 215
f 271 40 269
f 269 40 38
f 138 38 40
f 136 38 138
f 228 136 138
f 226 136 228
f 270 226 272
f 272 226 228
f 273 42 271
f 271 42 40
f 140 40 42
f 138 40 140
f 230 138 140
f 228 138 230
f 272 228 274
f 274 228 230
f 275 44 273
f 273 44 42
f 142 42 44
f 140 42 142
f 232 140 142
f 230 140 232
f 274 230 276
f 276 230 232
f 16 44 275
f 116 142 16
f 16 142 44
f 216 232 116
f 116 232 142
f 276 232 216
f 383 411 421
f 421 411 479
f 479 411 471
f 479 471 555
f 555 471 539
f 539 384 555
f 385 203 223
f 223 203 299
f 299 203 287
f 299 287 319
f 287 347 319
f 287 349 347
f 349 383 421
f 409 349 421
f 347 349 409
f 479 469 409
f 479 409 421
f 555 537 469
f 555 469 479
f 537 555 384
f 27 537 384
f 25 537 27
f 320 25 147
f 25 127 147
f 25 27 127
f 127 386 147
f 387 3 37
f 37 3 321
f 3 101 321
f 3 103 101
f 103 385 223
f 201 103 223
f 101 103 201
f 299 285 201
f 299 201 223
f 299 319 285
f 147 125 320
f 147 386 125
f 386 322 125
f 386 388 322
f 1 323 37
f 323 387 37
f 323 389 387
f 37 321 1
f 322 390 324
f 388 390 322
f 391 323 325
f 391 389 323
f 324 392 326
f 390 392 324
f 43 393 2
f 393 325 2
f 393 391 325
f 327 43 2
f 326 394 328
f 392 394 326
f 45 395 43
f 43 395 393
f 43 327 329
f 43 329 45
f 128 396 158
f 158 330 128
f 330 394 128
f 330 328 394
f 45 4 395
f 397 4 45
f 329 397 45
f 331 397 329
f 398 160 158
f 398 158 396
f 330 158 332
f 332 158 160
f 331 102 397
f 397 102 104
f 399 104 102
f 399 102 333
f 540 400 572
f 540 572 64
f 540 64 28
f 160 398 28
f 64 160 28
f 162 160 64
f 332 160 334
f 334 160 162
f 333 202 399
f 399 202 204
f 202 335 316
f 288 202 316
f 204 202 288
f 288 316 378
f 288 378 350
f 350 378 440
f 350 440 412
f 412 440 498
f 412 498 472
f 572 400 472
f 498 572 472
f 574 572 498
f 26 64 336
f 64 574 336
f 64 572 574
f 126 162 26
f 26 162 64
f 334 162 126
f 286 316 335
f 348 378 286
f 286 378 316
f 337 442 348
f 442 378 348
f 442 440 378
f 500 440 442
f 498 440 500
f 538 574 338
f 574 500 338
f 574 498 500
f 336 574 538
f 410 442 337
f 470 500 410
f 410 500 442
f 338 500 470
f 445 351 359
f 359 351 383
f 351 411 383
f 351 413 411
f 413 471 411
f 473 471 413
f 473 539 471
f 541 539 473
f 384 539 47
f 539 29 47
f 539 541 29
f 29 446 47
f 447 105 133
f 133 105 385
f 105 203 385
f 105 205 203
f 205 287 203
f 289 287 205
f 289 445 359
f 349 289 359
f 287 289 349
f 359 383 349
f 47 27 384
f 27 47 446
f 129 27 446
f 127 27 129
f 129 448 127
f 127 448 386
f 449 519 547
f 547 519 387
f 519 3 387
f 519 5 3
f 5 447 133
f 103 5 133
f 3 5 103
f 133 385 103
f 386 450 388
f 448 450 386
f 549 451 547
f 547 451 449
f 547 387 389
f 547 389 549
f 388 452 390
f 450 452 388
f 551 453 549
f 549 453 451
f 549 389 391
f 549 391 551
f 390 454 392
f 452 454 390
f 553 455 551
f 551 455 453
f 551 391 393
f 551 393 553
f 130 456 156
f 156 394 130
f 394 454 130
f 394 392 454
f 553 520 455
f 457 520 553
f 393 457 553
f 395 457 393
f 30 458 60
f 156 456 30
f 156 30 60
f 128 156 60
f 396 128 60
f 394 156 128
f 395 4 457
f 457 4 6
f 459 6 4
f 459 4 397
f 474 460 494
f 474 494 570
f 474 570 542
f 60 458 542
f 570 60 542
f 62 60 570
f 396 60 398
f 398 60 62
f 397 104 459
f 459 104 106
f 104 399 238
f 206 104 238
f 106 104 206
f 206 238 314
f 206 314 290
f 290 314 376
f 290 376 352
f 352 376 438
f 352 438 414
f 494 460 414
f 438 494 414
f 496 494 438
f 540 570 400
f 570 496 400
f 570 494 496
f 28 62 540
f 540 62 570
f 398 62 28
f 204 238 399
f 288 314 204
f 204 314 238
f 350 376 288
f 288 376 314
f 412 438 350
f 350 438 376
f 472 496 412
f 412 496 438
f 400 496 472
f 360 351 445
f 503 415 360
f 415 351 360
f 415 413 351
f 415 473 413
f 475 473 415
f 475 541 473
f 543 541 475
f 48 29 504
f 29 543 504
f 29 541 543
f 48 446 29
f 505 7 35
f 35 7 447
f 7 105 447
f 7 107 105
f 107 205 105
f 207 205 107
f 207 289 205
f 291 289 207
f 353 360 445
f 289 353 445
f 291 353 289
f 503 360 353
f 31 48 504
f 129 446 48
f 31 129 48
f 131 129 31
f 131 506 129
f 129 506 448
f 507 521 449
f 449 521 519
f 521 505 35
f 5 521 35
f 519 521 5
f 35 447 5
f 448 508 450
f 506 508 448
f 509 449 451
f 509 507 449
f 450 510 452
f 508 510 450
f 511 451 453
f 511 509 451
f 452 512 454
f 510 512 452
f 513 453 455
f 513 511 453
f 32 514 58
f 32 58 456
f 130 32 456
f 132 32 130
f 130 454 132
f 132 454 512
f 455 520 513
f 513 520 522
f 515 522 520
f 515 520 457
f 476 516 492
f 476 492 568
f 476 568 544
f 58 514 544
f 58 544 568
f 30 58 568
f 458 30 568
f 456 58 30
f 457 6 515
f 515 6 8
f 517 8 6
f 517 6 459
f 416 518 436
f 492 516 416
f 492 416 436
f 474 492 436
f 460 474 436
f 542 568 474
f 474 568 492
f 458 568 542
f 459 106 517
f 517 106 108
f 206 108 106
f 206 208 108
f 290 208 206
f 290 292 208
f 352 292 290
f 352 354 292
f 518 354 436
f 354 414 436
f 354 352 414
f 460 436 414
f 577 401 427
f 427 401 485
f 485 401 461
f 485 461 561
f 561 461 529
f 529 578 561
f 579 339 367
f 577 427 339
f 427 367 339
f 427 429 367
f 427 487 429
f 427 485 487
f 485 563 487
f 485 561 563
f 17 55 578
f 55 561 578
f 55 563 561
f 55 17 153
f 153 17 117
f 117 580 153
f 369 581 367
f 367 581 579
f 367 431 369
f 367 429 431
f 429 489 431
f 429 487 489
f 487 565 489
f 487 563 565
f 563 57 565
f 563 55 57
f 55 155 57
f 55 153 155
f 153 580 155
f 155 580 582
f 371 583 369
f 369 583 581
f 369 433 371
f 369 431 433
f 431 491 433
f 431 489 491
f 489 567 491
f 489 565 567
f 565 59 567
f 565 57 59
f 57 157 59
f 57 155 157
f 155 582 157
f 157 582 584
f 585 277 311
f 583 371 277
f 371 311 277
f 371 373 311
f 371 435 373
f 371 433 435
f 433 493 435
f 433 491 493
f 491 569 493
f 491 567 569
f 567 61 569
f 567 59 61
f 59 159 61
f 59 157 159
f 157 584 159
f 159 584 586
f 313 587 311
f 311 587 585
f 311 375 313
f 311 373 375
f 373 437 375
f 373 435 437
f 435 495 437
f 435 493 495
f 493 571 495
f 493 569 571
f 569 63 571
f 569 61 63
f 61 161 63
f 61 159 161
f 159 586 161
f 161 586 588
f 313 278 587
f 278 313 589
f 313 377 589
f 313 375 377
f 375 439 377
f 375 437 439
f 437 497 439
f 437 495 497
f 495 573 497
f 495 571 573
f 590 573 18
f 573 63 18
f 573 571 63
f 18 63 118
f 118 63 161
f 161 588 118
f 379 591 377
f 377 591 589
f 377 441 379
f 377 439 441
f 439 499 441
f 439 497 499
f 592 499 530
f 499 573 530
f 499 497 573
f 573 590 530
f 379 340 591
f 340 379 402
f 402 379 441
f 402 441 462
f 462 441 499
f 499 592 462
f 422 415 503
f 480 475 422
f 422 475 415
f 556 543 480
f 480 543 475
f 556 504 543
f 593 9 505
f 505 9 7
f 9 107 7
f 109 107 9
f 109 207 107
f 209 207 109
f 209 291 207
f 293 291 209
f 293 353 291
f 355 353 293
f 417 422 503
f 353 417 503
f 355 417 353
f 422 417 477
f 422 477 480
f 480 477 545
f 480 545 556
f 31 504 556
f 545 31 556
f 33 31 545
f 148 131 594
f 131 33 594
f 131 31 33
f 148 506 131
f 595 523 507
f 507 523 521
f 505 521 523
f 505 523 593
f 596 150 148
f 596 148 594
f 506 148 508
f 508 148 150
f 597 507 509
f 597 595 507
f 598 152 150
f 598 150 596
f 508 150 510
f 510 150 152
f 599 509 511
f 599 597 509
f 600 154 152
f 600 152 598
f 510 152 512
f 512 152 154
f 601 511 513
f 601 599 511
f 478 602 490
f 478 490 566
f 478 566 546
f 546 566 514
f 32 546 514
f 34 546 32
f 600 34 154
f 34 132 154
f 34 32 132
f 512 154 132
f 513 522 601
f 601 522 524
f 603 524 522
f 603 522 515
f 418 604 434
f 490 602 418
f 490 418 434
f 476 490 434
f 516 476 434
f 544 566 476
f 476 566 490
f 514 566 544
f 515 8 603
f 603 8 10
f 8 517 146
f 110 8 146
f 10 8 110
f 605 110 146
f 294 606 312
f 294 312 374
f 294 374 356
f 434 604 356
f 434 356 374
f 416 434 374
f 518 416 374
f 516 434 416
f 108 146 517
f 146 108 605
f 108 210 605
f 108 208 210
f 606 210 312
f 210 292 312
f 210 208 292
f 354 374 292
f 292 374 312
f 518 374 354
f 67 463 483
f 463 68 483
f 69 341 365
f 365 341 577
f 341 401 577
f 341 403 401
f 403 67 483
f 461 403 483
f 401 403 461
f 461 483 68
f 531 461 68
f 529 461 531
f 578 529 53
f 529 19 53
f 529 531 19
f 19 70 53
f 71 279 305
f 69 365 279
f 279 365 305
f 365 339 305
f 339 579 305
f 365 577 339
f 53 17 578
f 17 53 70
f 119 17 70
f 117 17 119
f 580 117 239
f 117 217 239
f 117 119 217
f 217 72 239
f 307 73 305
f 305 73 71
f 305 579 581
f 305 581 307
f 241 582 580
f 241 580 239
f 239 72 241
f 241 72 74
f 309 75 307
f 307 75 73
f 307 581 583
f 307 583 309
f 243 584 582
f 243 582 241
f 241 74 243
f 243 74 76
f 277 585 309
f 585 75 309
f 585 77 75
f 309 583 277
f 245 586 584
f 245 584 243
f 243 76 245
f 245 76 78
f 79 585 587
f 79 77 585
f 247 588 586
f 247 586 245
f 245 78 247
f 247 78 80
f 315 81 278
f 81 587 278
f 81 79 587
f 589 315 278
f 18 65 590
f 120 82 65
f 18 120 65
f 118 120 18
f 247 218 588
f 218 118 588
f 218 120 118
f 247 80 218
f 317 83 315
f 315 83 81
f 315 589 591
f 315 591 317
f 530 575 592
f 65 20 590
f 590 20 530
f 20 84 530
f 84 575 530
f 65 82 20
f 317 280 83
f 591 340 317
f 340 280 317
f 340 342 280
f 402 443 85
f 342 402 85
f 340 402 342
f 464 86 443
f 402 464 443
f 462 464 402
f 575 532 592
f 532 462 592
f 532 464 462
f 575 84 532
f 443 404 85
f 443 86 404
f 87 11 593
f 593 11 9
f 11 109 9
f 111 109 11
f 111 209 109
f 211 209 111
f 300 293 88
f 293 211 88
f 293 209 211
f 362 355 300
f 300 355 293
f 424 417 362
f 362 417 355
f 482 477 424
f 424 477 417
f 558 545 482
f 482 545 477
f 50 33 558
f 558 33 545
f 50 594 33
f 89 525 595
f 595 525 523
f 593 523 525
f 593 525 87
f 295 300 88
f 300 295 357
f 300 357 362
f 362 357 90
f 426 362 90
f 424 362 426
f 484 424 426
f 482 424 484
f 560 482 484
f 558 482 560
f 52 558 560
f 50 558 52
f 594 50 596
f 596 50 52
f 91 595 597
f 91 89 595
f 419 426 90
f 426 419 92
f 486 426 92
f 484 426 486
f 562 484 486
f 560 484 562
f 54 560 562
f 52 560 54
f 596 52 598
f 598 52 54
f 93 597 599
f 93 91 597
f 420 94 430
f 486 92 420
f 430 486 420
f 488 486 430
f 564 486 488
f 562 486 564
f 56 562 564
f 54 562 56
f 598 54 600
f 600 54 56
f 95 599 601
f 95 93 599
f 96 432 430
f 96 430 94
f 478 488 602
f 488 432 602
f 488 430 432
f 546 564 478
f 478 564 488
f 34 56 546
f 546 56 564
f 600 56 34
f 601 524 95
f 95 524 526
f 97 526 524
f 97 524 603
f 358 98 372
f 432 96 358
f 432 358 372
f 418 432 372
f 604 418 372
f 602 432 418
f 603 10 97
f 97 10 12
f 110 12 10
f 110 112 12
f 110 605 236
f 212 110 236
f 112 110 212
f 212 236 606
f 294 212 606
f 296 212 294
f 98 296 372
f 296 356 372
f 296 294 356
f 604 372 356
f 210 236 605
f 606 236 210
