# Converted from NanoShaper .vert/.face
v 0.237000 -14.663000 -10.634000
v 1.502000 -14.663000 -10.634000
v -0.188000 -14.663000 -10.134000
v 1.928000 -14.663000 -10.134000
v -0.287000 -14.663000 -9.634000
v 2.026000 -14.663000 -9.634000
v -0.158000 -14.663000 -9.134000
v 2.120000 -14.663000 -9.134000
v 0.089000 -14.663000 -8.634000
v 2.404000 -14.663000 -8.634000
v 0.139000 -14.663000 -8.134000
v 2.525000 -14.663000 -8.134000
v 0.255000 -14.663000 -7.634000
v 2.428000 -14.663000 -7.634000
v 0.707000 -14.663000 -7.134000
v 2.118000 -14.663000 -7.134000
v 2.401000 -14.663000 -5.634000
v 3.200000 -14.663000 -5.634000
v 2.175000 -14.663000 -5.134000
v 3.615000 -14.663000 -5.134000
v 2.106000 -14.663000 -4.634000
v 4.241000 -14.663000 -4.634000
v 2.353000 -14.663000 -4.134000
v 4.511000 -14.663000 -4.134000
v 2.792000 -14.663000 -3.634000
v 4.329000 -14.663000 -3.634000
v 2.812000 -10.663000 -11.634000
v 3.837000 -10.663000 -11.634000
v 2.627000 -10.663000 -11.134000
v 4.503000 -10.663000 -11.134000
v 2.365000 -10.663000 -10.634000
v 5.505000 -10.663000 -10.634000
v 1.335000 -10.663000 -10.134000
v 5.894000 -10.663000 -10.134000
v 1.076000 -10.663000 -9.634000
v 5.986000 -10.663000 -9.634000
v 1.124000 -10.663000 -9.134000
v 6.008000 -10.663000 -9.134000
v 1.094000 -10.663000 -8.634000
v 5.996000 -10.663000 -8.634000
v 1.149000 -10.663000 -8.134000
v 6.078000 -10.663000 -8.134000
v 1.166000 -10.663000 -7.634000
v 6.122000 -10.663000 -7.634000
v 1.113000 -10.663000 -7.134000
v 6.190000 -10.663000 -7.134000
v 1.366000 -10.663000 -6.634000
v 6.229000 -10.663000 -6.634000
v 1.980000 -10.663000 -6.134000
v 6.122000 -10.663000 -6.134000
v 3.347000 -10.663000 -5.634000
v 5.867000 -10.663000 -5.634000
v 3.581000 -10.663000 -5.134000
v 5.599000 -10.663000 -5.134000
v 3.685000 -10.663000 -4.634000
v 5.437000 -10.663000 -4.634000
v 3.622000 -10.663000 -4.134000
v 5.166000 -10.663000 -4.134000
v 3.817000 -10.663000 -3.634000
v 4.748000 -10.663000 -3.634000
v 0.070000 -14.663000 -10.502000
v 0.070000 -14.663000 -8.696000
v 0.570000 -14.663000 -10.783000
v 0.570000 -14.663000 -7.232000
v 1.070000 -14.663000 -10.805000
v 1.070000 -14.663000 -6.988000
v 1.570000 -14.663000 -10.586000
v 1.570000 -14.663000 -6.901000
v 2.070000 -14.663000 -9.286000
v 2.070000 -14.663000 -7.083000
v 2.570000 -14.663000 -5.737000
v 2.570000 -14.663000 -3.940000
v 3.070000 -14.663000 -5.717000
v 3.070000 -14.663000 -3.470000
v 3.570000 -14.663000 -5.168000
v 3.570000 -14.663000 -3.456000
v 4.070000 -14.663000 -4.730000
v 4.070000 -14.663000 -3.465000
v 1.570000 -10.663000 -10.259000
v 1.570000 -10.663000 -6.512000
v 2.070000 -10.663000 -10.375000
v 2.070000 -10.663000 -6.079000
v 2.570000 -10.663000 -10.910000
v 2.570000 -10.663000 -5.947000
v 3.070000 -10.663000 -11.812000
v 3.070000 -10.663000 -5.794000
v 3.570000 -10.663000 -11.816000
v 3.570000 -10.663000 -5.209000
v 4.070000 -10.663000 -11.422000
v 4.070000 -10.663000 -3.478000
v 4.570000 -10.663000 -11.101000
v 4.570000 -10.663000 -3.509000
v 5.070000 -10.663000 -10.851000
v 5.070000 -10.663000 -4.066000
v 5.570000 -10.663000 -10.582000
v 5.570000 -10.663000 -5.070000
v 6.070000 -10.663000 -8.242000
v 6.070000 -10.663000 -6.024000
v -0.430000 -14.396000 -9.634000
v -0.430000 -12.256000 -9.634000
v 0.070000 -15.024000 -9.634000
v 0.070000 -11.696000 -9.634000
v 0.570000 -15.242000 -9.634000
v 0.570000 -11.149000 -9.634000
v 1.070000 -15.260000 -9.634000
v 1.070000 -10.667000 -9.634000
v 1.570000 -15.086000 -9.634000
v 1.570000 -10.480000 -9.634000
v 2.070000 -14.603000 -9.634000
v 2.070000 -10.408000 -9.634000
v 2.570000 -14.118000 -9.634000
v 2.570000 -10.257000 -9.634000
v 3.070000 -13.827000 -9.634000
v 3.070000 -9.888000 -9.634000
v 3.570000 -13.606000 -9.634000
v 3.570000 -9.650000 -9.634000
v 4.070000 -13.382000 -9.634000
v 4.070000 -9.576000 -9.634000
v 4.570000 -13.309000 -9.634000
v 4.570000 -9.574000 -9.634000
v 5.070000 -13.260000 -9.634000
v 5.070000 -9.766000 -9.634000
v 5.570000 -13.057000 -9.634000
v 5.570000 -10.205000 -9.634000
v 6.070000 -12.427000 -9.634000
v 6.070000 -10.831000 -9.634000
v 1.570000 -14.022000 -5.634000
v 1.570000 -11.292000 -5.634000
v 2.070000 -14.523000 -5.634000
v 2.070000 -10.985000 -5.634000
v 2.570000 -14.705000 -5.634000
v 2.570000 -10.918000 -5.634000
v 3.070000 -14.698000 -5.634000
v 3.070000 -10.766000 -5.634000
v 3.570000 -14.487000 -5.634000
v 3.570000 -10.577000 -5.634000
v 4.070000 -14.307000 -5.634000
v 4.070000 -10.251000 -5.634000
v 4.570000 -14.137000 -5.634000
v 4.570000 -10.020000 -5.634000
v 5.070000 -13.922000 -5.634000
v 5.070000 -10.005000 -5.634000
v 5.570000 -13.678000 -5.634000
v 5.570000 -10.285000 -5.634000
v 6.070000 -13.001000 -5.634000
v 6.070000 -11.130000 -5.634000
v -0.100000 -14.163000 -10.634000
v 2.327000 -14.163000 -10.634000
v -0.418000 -14.163000 -10.134000
v 2.522000 -14.163000 -10.134000
v -0.500000 -14.163000 -9.634000
v 2.505000 -14.163000 -9.634000
v -0.394000 -14.163000 -9.134000
v 2.734000 -14.163000 -9.134000
v -0.187000 -14.163000 -8.634000
v 2.998000 -14.163000 -8.634000
v -0.066000 -14.163000 -8.134000
v 3.053000 -14.163000 -8.134000
v 0.042000 -14.163000 -7.634000
v 3.234000 -14.163000 -7.634000
v 0.386000 -14.163000 -7.134000
v 3.440000 -14.163000 -7.134000
v 1.164000 -14.163000 -6.634000
v 3.775000 -14.163000 -6.634000
v 1.594000 -14.163000 -6.134000
v 4.211000 -14.163000 -6.134000
v 1.659000 -14.163000 -5.634000
v 4.501000 -14.163000 -5.634000
v 1.621000 -14.163000 -5.134000
v 5.212000 -14.163000 -5.134000
v 1.606000 -14.163000 -4.634000
v 5.484000 -14.163000 -4.634000
v 1.732000 -14.163000 -4.134000
v 5.477000 -14.163000 -4.134000
v 2.153000 -14.163000 -3.634000
v 5.426000 -14.163000 -3.634000
v 2.625000 -14.163000 -3.134000
v 5.128000 -14.163000 -3.134000
v 3.439000 -10.163000 -10.634000
v 4.942000 -10.163000 -10.634000
v 3.095000 -10.163000 -10.134000
v 5.383000 -10.163000 -10.134000
v 2.731000 -10.163000 -9.634000
v 5.521000 -10.163000 -9.634000
v 2.003000 -10.163000 -9.134000
v 5.569000 -10.163000 -9.134000
v 1.686000 -10.163000 -8.634000
v 5.548000 -10.163000 -8.634000
v 1.643000 -10.163000 -8.134000
v 5.627000 -10.163000 -8.134000
v 1.755000 -10.163000 -7.634000
v 5.875000 -10.163000 -7.634000
v 2.065000 -10.163000 -7.134000
v 5.975000 -10.163000 -7.134000
v 2.429000 -10.163000 -6.634000
v 6.029000 -10.163000 -6.634000
v 3.730000 -10.163000 -6.134000
v 5.901000 -10.163000 -6.134000
v 4.218000 -10.163000 -5.634000
v 5.423000 -10.163000 -5.634000
v -0.430000 -14.163000 -10.101000
v -0.430000 -14.163000 -9.231000
v 0.070000 -14.163000 -10.779000
v 0.070000 -14.163000 -7.570000
v 0.570000 -14.163000 -11.003000
v 0.570000 -14.163000 -6.991000
v 1.070000 -14.163000 -11.027000
v 1.070000 -14.163000 -6.699000
v 1.570000 -14.163000 -10.968000
v 1.570000 -14.163000 -6.189000
v 2.070000 -14.163000 -10.815000
v 2.070000 -14.163000 -3.718000
v 2.570000 -14.163000 -9.409000
v 2.570000 -14.163000 -3.172000
v 3.070000 -14.163000 -8.053000
v 3.070000 -14.163000 -2.958000
v 3.570000 -14.163000 -6.835000
v 3.570000 -14.163000 -2.928000
v 4.070000 -14.163000 -6.249000
v 4.070000 -14.163000 -2.881000
v 4.570000 -14.163000 -5.499000
v 4.570000 -14.163000 -2.943000
v 5.070000 -14.163000 -5.211000
v 5.070000 -14.163000 -3.105000
v 2.070000 -10.163000 -9.175000
v 2.070000 -10.163000 -7.127000
v 2.570000 -10.163000 -9.500000
v 2.570000 -10.163000 -6.547000
v 3.070000 -10.163000 -10.092000
v 3.070000 -10.163000 -6.425000
v 3.570000 -10.163000 -10.714000
v 3.570000 -10.163000 -6.245000
v 4.070000 -10.163000 -10.819000
v 4.070000 -10.163000 -5.766000
v 4.570000 -10.163000 -10.791000
v 4.570000 -10.163000 -5.473000
v 5.070000 -10.163000 -10.538000
v 5.070000 -10.163000 -5.476000
v 5.570000 -10.163000 -8.324000
v 5.570000 -10.163000 -5.736000
v -0.430000 -14.024000 -9.134000
v -0.430000 -12.386000 -9.134000
v 0.070000 -14.894000 -9.134000
v 0.070000 -11.682000 -9.134000
v 0.570000 -15.142000 -9.134000
v 0.570000 -11.170000 -9.134000
v 1.070000 -15.196000 -9.134000
v 1.070000 -10.711000 -9.134000
v 1.570000 -15.080000 -9.134000
v 1.570000 -10.346000 -9.134000
v 2.070000 -14.723000 -9.134000
v 2.070000 -10.141000 -9.134000
v 2.570000 -14.254000 -9.134000
v 2.570000 -9.906000 -9.134000
v 3.070000 -13.993000 -9.134000
v 3.070000 -9.677000 -9.134000
v 3.570000 -13.690000 -9.134000
v 3.570000 -9.548000 -9.134000
v 4.070000 -13.489000 -9.134000
v 4.070000 -9.505000 -9.134000
v 4.570000 -13.374000 -9.134000
v 4.570000 -9.493000 -9.134000
v 5.070000 -13.342000 -9.134000
v 5.070000 -9.670000 -9.134000
v 5.570000 -13.154000 -9.134000
v 5.570000 -10.165000 -9.134000
v 6.070000 -12.625000 -9.134000
v 6.070000 -10.762000 -9.134000
v 1.570000 -14.077000 -5.134000
v 1.570000 -12.261000 -5.134000
v 2.070000 -14.605000 -5.134000
v 2.070000 -11.517000 -5.134000
v 2.570000 -14.793000 -5.134000
v 2.570000 -11.188000 -5.134000
v 3.070000 -14.787000 -5.134000
v 3.070000 -10.994000 -5.134000
v 3.570000 -14.676000 -5.134000
v 3.570000 -10.669000 -5.134000
v 4.070000 -14.453000 -5.134000
v 4.070000 -10.456000 -5.134000
v 4.570000 -14.264000 -5.134000
v 4.570000 -10.369000 -5.134000
v 5.070000 -14.198000 -5.134000
v 5.070000 -10.396000 -5.134000
v 5.570000 -13.993000 -5.134000
v 5.570000 -10.640000 -5.134000
v 6.070000 -13.330000 -5.134000
v 6.070000 -11.284000 -5.134000
v 2.395000 -13.663000 -11.634000
v 3.311000 -13.663000 -11.634000
v 0.929000 -13.663000 -11.134000
v 3.533000 -13.663000 -11.134000
v -0.161000 -13.663000 -10.634000
v 3.481000 -13.663000 -10.634000
v -0.480000 -13.663000 -10.134000
v 3.471000 -13.663000 -10.134000
v -0.566000 -13.663000 -9.634000
v 3.459000 -13.663000 -9.634000
v -0.509000 -13.663000 -9.134000
v 3.639000 -13.663000 -9.134000
v -0.401000 -13.663000 -8.634000
v 3.907000 -13.663000 -8.634000
v -0.137000 -13.663000 -8.134000
v 4.297000 -13.663000 -8.134000
v 0.034000 -13.663000 -7.634000
v 4.590000 -13.663000 -7.634000
v 0.374000 -13.663000 -7.134000
v 5.093000 -13.663000 -7.134000
v 0.883000 -13.663000 -6.634000
v 5.403000 -13.663000 -6.634000
v 1.288000 -13.663000 -6.134000
v 5.381000 -13.663000 -6.134000
v 1.429000 -13.663000 -5.634000
v 5.588000 -13.663000 -5.634000
v 1.424000 -13.663000 -5.134000
v 5.903000 -13.663000 -5.134000
v 1.429000 -13.663000 -4.634000
v 6.025000 -13.663000 -4.634000
v 1.538000 -13.663000 -4.134000
v 6.028000 -13.663000 -4.134000
v 1.898000 -13.663000 -3.634000
v 5.997000 -13.663000 -3.634000
v 2.340000 -13.663000 -3.134000
v 5.876000 -13.663000 -3.134000
v 3.565000 -13.663000 -2.634000
v 5.404000 -13.663000 -2.634000
v 3.518000 -9.663000 -9.634000
v 4.875000 -9.663000 -9.634000
v 3.118000 -9.663000 -9.134000
v 5.059000 -9.663000 -9.134000
v 2.438000 -9.663000 -8.634000
v 4.911000 -9.663000 -8.634000
v 2.197000 -9.663000 -8.134000
v 4.881000 -9.663000 -8.134000
v 2.420000 -9.663000 -7.634000
v 5.088000 -9.663000 -7.634000
v 2.914000 -9.663000 -7.134000
v 5.355000 -9.663000 -7.134000
v 3.973000 -9.663000 -6.634000
v 5.461000 -9.663000 -6.634000
v 4.561000 -9.663000 -6.134000
v 5.147000 -9.663000 -6.134000
v -0.430000 -13.663000 -10.253000
v -0.430000 -13.663000 -8.710000
v 0.070000 -13.663000 -10.822000
v 0.070000 -13.663000 -7.551000
v 0.570000 -13.663000 -11.037000
v 0.570000 -13.663000 -6.949000
v 1.070000 -13.663000 -11.179000
v 1.070000 -13.663000 -6.447000
v 1.570000 -13.663000 -11.330000
v 1.570000 -13.663000 -4.064000
v 2.070000 -13.663000 -11.473000
v 2.070000 -13.663000 -3.457000
v 2.570000 -13.663000 -11.745000
v 2.570000 -13.663000 -2.961000
v 3.070000 -13.663000 -11.775000
v 3.070000 -13.663000 -2.779000
v 3.570000 -13.663000 -9.226000
v 3.570000 -13.663000 -2.633000
v 4.070000 -13.663000 -8.335000
v 4.070000 -13.663000 -2.430000
v 4.570000 -13.663000 -7.661000
v 4.570000 -13.663000 -2.426000
v 5.070000 -13.663000 -7.146000
v 5.070000 -13.663000 -2.507000
v 5.570000 -13.663000 -5.665000
v 5.570000 -13.663000 -2.749000
v 2.570000 -9.663000 -8.718000
v 2.570000 -9.663000 -7.529000
v 3.070000 -9.663000 -9.096000
v 3.070000 -9.663000 -7.036000
v 3.570000 -9.663000 -9.666000
v 3.570000 -9.663000 -6.945000
v 4.070000 -9.663000 -10.131000
v 4.070000 -9.663000 -6.573000
v 4.570000 -9.663000 -10.127000
v 4.570000 -9.663000 -6.129000
v 5.070000 -9.663000 -7.651000
v 5.070000 -9.663000 -6.099000
v -0.430000 -13.234000 -8.634000
v -0.430000 -12.659000 -8.634000
v 0.070000 -14.638000 -8.634000
v 0.070000 -11.822000 -8.634000
v 0.570000 -15.062000 -8.634000
v 0.570000 -11.179000 -8.634000
v 1.070000 -15.219000 -8.634000
v 1.070000 -10.685000 -8.634000
v 1.570000 -15.204000 -8.634000
v 1.570000 -10.246000 -8.634000
v 2.070000 -14.993000 -8.634000
v 2.070000 -9.857000 -8.634000
v 2.570000 -14.495000 -8.634000
v 2.570000 -9.627000 -8.634000
v 3.070000 -14.114000 -8.634000
v 3.070000 -9.564000 -8.634000
v 3.570000 -13.792000 -8.634000
v 3.570000 -9.535000 -8.634000
v 4.070000 -13.586000 -8.634000
v 4.070000 -9.523000 -8.634000
v 4.570000 -13.404000 -8.634000
v 4.570000 -9.553000 -8.634000
v 5.070000 -13.321000 -8.634000
v 5.070000 -9.752000 -8.634000
v 5.570000 -13.118000 -8.634000
v 5.570000 -10.186000 -8.634000
v 6.070000 -12.542000 -8.634000
v 6.070000 -10.792000 -8.634000
v 1.570000 -14.098000 -4.634000
v 1.570000 -12.721000 -4.634000
v 2.070000 -14.642000 -4.634000
v 2.070000 -11.916000 -4.634000
v 2.570000 -14.834000 -4.634000
v 2.570000 -11.367000 -4.634000
v 3.070000 -14.833000 -4.634000
v 3.070000 -11.087000 -4.634000
v 3.570000 -14.787000 -4.634000
v 3.570000 -10.727000 -4.634000
v 4.070000 -14.706000 -4.634000
v 4.070000 -10.540000 -4.634000
v 4.570000 -14.509000 -4.634000
v 4.570000 -10.520000 -4.634000
v 5.070000 -14.309000 -4.634000
v 5.070000 -10.546000 -4.634000
v 5.570000 -14.115000 -4.634000
v 5.570000 -10.736000 -4.634000
v 6.070000 -13.587000 -4.634000
v 6.070000 -11.254000 -4.634000
v 2.201000 -13.163000 -12.134000
v 3.513000 -13.163000 -12.134000
v 1.625000 -13.163000 -11.634000
v 3.947000 -13.163000 -11.634000
v 0.578000 -13.163000 -11.134000
v 4.214000 -13.163000 -11.134000
v -0.181000 -13.163000 -10.634000
v 4.754000 -13.163000 -10.634000
v -0.507000 -13.163000 -10.134000
v 5.027000 -13.163000 -10.134000
v -0.599000 -13.163000 -9.634000
v 5.378000 -13.163000 -9.634000
v -0.532000 -13.163000 -9.134000
v 5.555000 -13.163000 -9.134000
v -0.436000 -13.163000 -8.634000
v 5.495000 -13.163000 -8.634000
v -0.181000 -13.163000 -8.134000
v 5.546000 -13.163000 -8.134000
v -0.023000 -13.163000 -7.634000
v 5.623000 -13.163000 -7.634000
v 0.294000 -13.163000 -7.134000
v 5.863000 -13.163000 -7.134000
v 0.700000 -13.163000 -6.634000
v 5.984000 -13.163000 -6.634000
v 1.069000 -13.163000 -6.134000
v 5.946000 -13.163000 -6.134000
v 1.308000 -13.163000 -5.634000
v 5.985000 -13.163000 -5.634000
v 1.417000 -13.163000 -5.134000
v 6.116000 -13.163000 -5.134000
v 1.445000 -13.163000 -4.634000
v 6.217000 -13.163000 -4.634000
v 1.555000 -13.163000 -4.134000
v 6.223000 -13.163000 -4.134000
v 1.921000 -13.163000 -3.634000
v 6.199000 -13.163000 -3.634000
v 2.364000 -13.163000 -3.134000
v 6.097000 -13.163000 -3.134000
v 3.302000 -13.163000 -2.634000
v 5.746000 -13.163000 -2.634000
v -0.430000 -13.163000 -10.302000
v -0.430000 -13.163000 -8.618000
v 0.070000 -13.163000 -10.832000
v 0.070000 -13.163000 -7.432000
v 0.570000 -13.163000 -11.131000
v 0.570000 -13.163000 -6.833000
v 1.070000 -13.163000 -11.350000
v 1.070000 -13.163000 -6.133000
v 1.570000 -13.163000 -11.600000
v 1.570000 -13.163000 -4.100000
v 2.070000 -13.163000 -12.035000
v 2.070000 -13.163000 -3.482000
v 2.570000 -13.163000 -12.295000
v 2.570000 -13.163000 -2.980000
v 3.070000 -13.163000 -12.311000
v 3.070000 -13.163000 -2.759000
v 3.570000 -13.163000 -12.094000
v 3.570000 -13.163000 -2.452000
v 4.070000 -13.163000 -11.405000
v 4.070000 -13.163000 -2.250000
v 4.570000 -13.163000 -10.745000
v 4.570000 -13.163000 -2.247000
v 5.070000 -13.163000 -10.010000
v 5.070000 -13.163000 -2.302000
v 5.570000 -13.163000 -7.820000
v 5.570000 -13.163000 -2.500000
v 6.070000 -13.163000 -5.282000
v 6.070000 -13.163000 -3.073000
v 2.070000 -13.019000 -12.134000
v 2.070000 -11.857000 -12.134000
v 2.570000 -13.373000 -12.134000
v 2.570000 -11.205000 -12.134000
v 3.070000 -13.392000 -12.134000
v 3.070000 -10.900000 -12.134000
v 3.570000 -13.107000 -12.134000
v 3.570000 -10.897000 -12.134000
v 4.070000 -12.566000 -12.134000
v 4.070000 -11.194000 -12.134000
v 0.070000 -14.542000 -8.134000
v 0.070000 -12.138000 -8.134000
v 0.570000 -15.096000 -8.134000
v 0.570000 -11.292000 -8.134000
v 1.070000 -15.292000 -8.134000
v 1.070000 -10.741000 -8.134000
v 1.570000 -15.293000 -8.134000
v 1.570000 -10.236000 -8.134000
v 2.070000 -15.099000 -8.134000
v 2.070000 -9.740000 -8.134000
v 2.570000 -14.618000 -8.134000
v 2.570000 -9.530000 -8.134000
v 3.070000 -14.148000 -8.134000
v 3.070000 -9.517000 -8.134000
v 3.570000 -13.853000 -8.134000
v 3.570000 -9.512000 -8.134000
v 4.070000 -13.733000 -8.134000
v 4.070000 -9.511000 -8.134000
v 4.570000 -13.528000 -8.134000
v 4.570000 -9.561000 -8.134000
v 5.070000 -13.344000 -8.134000
v 5.070000 -9.765000 -8.134000
v 5.570000 -13.149000 -8.134000
v 5.570000 -10.118000 -8.134000
v 6.070000 -12.619000 -8.134000
v 6.070000 -10.650000 -8.134000
v 1.570000 -13.808000 -4.134000
v 1.570000 -13.105000 -4.134000
v 2.070000 -14.513000 -4.134000
v 2.070000 -12.372000 -4.134000
v 2.570000 -14.730000 -4.134000
v 2.570000 -11.753000 -4.134000
v 3.070000 -14.841000 -4.134000
v 3.070000 -11.153000 -4.134000
v 3.570000 -14.835000 -4.134000
v 3.570000 -10.693000 -4.134000
v 4.070000 -14.815000 -4.134000
v 4.070000 -10.514000 -4.134000
v 4.570000 -14.630000 -4.134000
v 4.570000 -10.527000 -4.134000
v 5.070000 -14.320000 -4.134000
v 5.070000 -10.641000 -4.134000
v 5.570000 -14.112000 -4.134000
v 5.570000 -10.841000 -4.134000
v 6.070000 -13.593000 -4.134000
v 6.070000 -11.460000 -4.134000
v 1.905000 -12.663000 -12.134000
v 3.967000 -12.663000 -12.134000
v 1.293000 -12.663000 -11.634000
v 4.447000 -12.663000 -11.634000
v 0.375000 -12.663000 -11.134000
v 4.944000 -12.663000 -11.134000
v -0.145000 -12.663000 -10.634000
v 5.399000 -12.663000 -10.634000
v -0.488000 -12.663000 -10.134000
v 5.621000 -12.663000 -10.134000
v -0.584000 -12.663000 -9.634000
v 5.952000 -12.663000 -9.634000
v -0.516000 -12.663000 -9.134000
v 6.048000 -12.663000 -9.134000
v -0.431000 -12.663000 -8.634000
v 6.005000 -12.663000 -8.634000
v -0.176000 -12.663000 -8.134000
v 6.045000 -12.663000 -8.134000
v -0.017000 -12.663000 -7.634000
v 6.054000 -12.663000 -7.634000
v 0.279000 -12.663000 -7.134000
v 6.105000 -12.663000 -7.134000
v 0.533000 -12.663000 -6.634000
v 6.188000 -12.663000 -6.634000
v 0.874000 -12.663000 -6.134000
v 6.149000 -12.663000 -6.134000
v 1.276000 -12.663000 -5.634000
v 6.185000 -12.663000 -5.634000
v 1.464000 -12.663000 -5.134000
v 6.174000 -12.663000 -5.134000
v 1.588000 -12.663000 -4.634000
v 6.221000 -12.663000 -4.634000
v 1.793000 -12.663000 -4.134000
v 6.229000 -12.663000 -4.134000
v 2.228000 -12.663000 -3.634000
v 6.204000 -12.663000 -3.634000
v 2.710000 -12.663000 -3.134000
v 6.102000 -12.663000 -3.134000
v 3.358000 -12.663000 -2.634000
v 5.753000 -12.663000 -2.634000
v -0.430000 -12.663000 -10.261000
v -0.430000 -12.663000 -8.632000
v 0.070000 -12.663000 -10.825000
v 0.070000 -12.663000 -7.444000
v 0.570000 -12.663000 -11.296000
v 0.570000 -12.663000 -6.550000
v 1.070000 -12.663000 -11.523000
v 1.070000 -12.663000 -5.937000
v 1.570000 -12.663000 -11.825000
v 1.570000 -12.663000 -4.687000
v 2.070000 -12.663000 -12.269000
v 2.070000 -12.663000 -3.791000
v 2.570000 -12.663000 -12.484000
v 2.570000 -12.663000 -3.242000
v 3.070000 -12.663000 -12.498000
v 3.070000 -12.663000 -2.863000
v 3.570000 -12.663000 -12.341000
v 3.570000 -12.663000 -2.465000
v 4.070000 -12.663000 -12.057000
v 4.070000 -12.663000 -2.264000
v 4.570000 -12.663000 -11.528000
v 4.570000 -12.663000 -2.260000
v 5.070000 -12.663000 -11.034000
v 5.070000 -12.663000 -2.297000
v 5.570000 -12.663000 -10.223000
v 5.570000 -12.663000 -2.494000
v 6.070000 -12.663000 -7.353000
v 6.070000 -12.663000 -3.061000
v 1.570000 -13.107000 -11.634000
v 1.570000 -11.737000 -11.634000
v 2.070000 -13.531000 -11.634000
v 2.070000 -11.308000 -11.634000
v 2.570000 -13.713000 -11.634000
v 2.570000 -10.797000 -11.634000
v 3.070000 -13.727000 -11.634000
v 3.070000 -10.585000 -11.634000
v 3.570000 -13.533000 -11.634000
v 3.570000 -10.583000 -11.634000
v 4.070000 -13.011000 -11.634000
v 4.070000 -10.787000 -11.634000
v 4.570000 -12.524000 -11.634000
v 4.570000 -11.249000 -11.634000
v 0.070000 -14.278000 -7.634000
v 0.070000 -12.393000 -7.634000
v 0.570000 -14.980000 -7.634000
v 0.570000 -11.255000 -7.634000
v 1.070000 -15.194000 -7.634000
v 1.070000 -10.737000 -7.634000
v 1.570000 -15.195000 -7.634000
v 1.570000 -10.350000 -7.634000
v 2.070000 -14.983000 -7.634000
v 2.070000 -9.850000 -7.634000
v 2.570000 -14.546000 -7.634000
v 2.570000 -9.621000 -7.634000
v 3.070000 -14.244000 -7.634000
v 3.070000 -9.543000 -7.634000
v 3.570000 -14.000000 -7.634000
v 3.570000 -9.522000 -7.634000
v 4.070000 -13.825000 -7.634000
v 4.070000 -9.532000 -7.634000
v 4.570000 -13.670000 -7.634000
v 4.570000 -9.571000 -7.634000
v 5.070000 -13.452000 -7.634000
v 5.070000 -9.659000 -7.634000
v 5.570000 -13.204000 -7.634000
v 5.570000 -9.872000 -7.634000
v 6.070000 -12.635000 -7.634000
v 6.070000 -10.518000 -7.634000
v 2.070000 -14.052000 -3.634000
v 2.070000 -12.862000 -3.634000
v 2.570000 -14.547000 -3.634000
v 2.570000 -12.280000 -3.634000
v 3.070000 -14.742000 -3.634000
v 3.070000 -11.380000 -3.634000
v 3.570000 -14.745000 -3.634000
v 3.570000 -10.788000 -3.634000
v 4.070000 -14.737000 -3.634000
v 4.070000 -10.596000 -3.634000
v 4.570000 -14.538000 -3.634000
v 4.570000 -10.610000 -3.634000
v 5.070000 -14.291000 -3.634000
v 5.070000 -10.838000 -3.634000
v 5.570000 -14.084000 -3.634000
v 5.570000 -11.257000 -3.634000
v 6.070000 -13.538000 -3.634000
v 6.070000 -12.051000 -3.634000
v 1.918000 -12.163000 -12.134000
v 4.297000 -12.163000 -12.134000
v 1.306000 -12.163000 -11.634000
v 4.763000 -12.163000 -11.634000
v 0.400000 -12.163000 -11.134000
v 5.231000 -12.163000 -11.134000
v 0.054000 -12.163000 -10.634000
v 5.602000 -12.163000 -10.634000
v -0.256000 -12.163000 -10.134000
v 5.870000 -12.163000 -10.134000
v -0.372000 -12.163000 -9.634000
v 6.139000 -12.163000 -9.634000
v -0.311000 -12.163000 -9.134000
v 6.222000 -12.163000 -9.134000
v -0.219000 -12.163000 -8.634000
v 6.186000 -12.163000 -8.634000
v 0.051000 -12.163000 -8.134000
v 6.221000 -12.163000 -8.134000
v 0.187000 -12.163000 -7.634000
v 6.231000 -12.163000 -7.634000
v 0.333000 -12.163000 -7.134000
v 6.188000 -12.163000 -7.134000
v 0.499000 -12.163000 -6.634000
v 6.226000 -12.163000 -6.634000
v 0.845000 -12.163000 -6.134000
v 6.218000 -12.163000 -6.134000
v 1.315000 -12.163000 -5.634000
v 6.207000 -12.163000 -5.634000
v 1.608000 -12.163000 -5.134000
v 6.184000 -12.163000 -5.134000
v 1.835000 -12.163000 -4.634000
v 6.231000 -12.163000 -4.634000
v 2.256000 -12.163000 -4.134000
v 6.207000 -12.163000 -4.134000
v 2.672000 -12.163000 -3.634000
v 6.100000 -12.163000 -3.634000
v 3.026000 -12.163000 -3.134000
v 5.895000 -12.163000 -3.134000
v 3.400000 -12.163000 -2.634000
v 5.438000 -12.163000 -2.634000
v 0.070000 -12.163000 -10.662000
v 0.070000 -12.163000 -8.082000
v 0.570000 -12.163000 -11.275000
v 0.570000 -12.163000 -6.485000
v 1.070000 -12.163000 -11.508000
v 1.070000 -12.163000 -5.920000
v 1.570000 -12.163000 -11.821000
v 1.570000 -12.163000 -5.208000
v 2.070000 -12.163000 -12.258000
v 2.070000 -12.163000 -4.332000
v 2.570000 -12.163000 -12.475000
v 2.570000 -12.163000 -3.730000
v 3.070000 -12.163000 -12.530000
v 3.070000 -12.163000 -3.060000
v 3.570000 -12.163000 -12.517000
v 3.570000 -12.163000 -2.504000
v 4.070000 -12.163000 -12.319000
v 4.070000 -12.163000 -2.303000
v 4.570000 -12.163000 -11.812000
v 4.570000 -12.163000 -2.303000
v 5.070000 -12.163000 -11.282000
v 5.070000 -12.163000 -2.468000
v 5.570000 -12.163000 -10.696000
v 5.570000 -12.163000 -2.726000
v 6.070000 -12.163000 -9.793000
v 6.070000 -12.163000 -3.555000
v 0.570000 -13.152000 -11.134000
v 0.570000 -11.843000 -11.134000
v 1.070000 -13.813000 -11.134000
v 1.070000 -11.504000 -11.134000
v 1.570000 -13.940000 -11.134000
v 1.570000 -11.308000 -11.134000
v 2.070000 -13.932000 -11.134000
v 2.070000 -11.045000 -11.134000
v 2.570000 -13.884000 -11.134000
v 2.570000 -10.695000 -11.134000
v 3.070000 -13.821000 -11.134000
v 3.070000 -10.482000 -11.134000
v 3.570000 -13.642000 -11.134000
v 3.570000 -10.394000 -11.134000
v 4.070000 -13.259000 -11.134000
v 4.070000 -10.455000 -11.134000
v 4.570000 -12.964000 -11.134000
v 4.570000 -10.707000 -11.134000
v 5.070000 -12.511000 -11.134000
v 5.070000 -11.223000 -11.134000
v 0.570000 -14.526000 -7.134000
v 0.570000 -11.182000 -7.134000
v 1.070000 -14.850000 -7.134000
v 1.070000 -10.687000 -7.134000
v 1.570000 -14.862000 -7.134000
v 1.570000 -10.462000 -7.134000
v 2.070000 -14.689000 -7.134000
v 2.070000 -10.160000 -7.134000
v 2.570000 -14.442000 -7.134000
v 2.570000 -9.830000 -7.134000
v 3.070000 -14.275000 -7.134000
v 3.070000 -9.625000 -7.134000
v 3.570000 -14.101000 -7.134000
v 3.570000 -9.604000 -7.134000
v 4.070000 -13.861000 -7.134000
v 4.070000 -9.532000 -7.134000
v 4.570000 -13.754000 -7.134000
v 4.570000 -9.515000 -7.134000
v 5.070000 -13.668000 -7.134000
v 5.070000 -9.581000 -7.134000
v 5.570000 -13.452000 -7.134000
v 5.570000 -9.774000 -7.134000
v 6.070000 -12.768000 -7.134000
v 6.070000 -10.323000 -7.134000
v 2.570000 -14.108000 -3.134000
v 2.570000 -12.807000 -3.134000
v 3.070000 -14.399000 -3.134000
v 3.070000 -12.061000 -3.134000
v 3.570000 -14.424000 -3.134000
v 3.570000 -11.183000 -3.134000
v 4.070000 -14.427000 -3.134000
v 4.070000 -10.911000 -3.134000
v 4.570000 -14.266000 -3.134000
v 4.570000 -10.930000 -3.134000
v 5.070000 -14.176000 -3.134000
v 5.070000 -11.265000 -3.134000
v 5.570000 -13.964000 -3.134000
v 5.570000 -11.794000 -3.134000
v 6.070000 -13.270000 -3.134000
v 6.070000 -12.529000 -3.134000
v 2.248000 -11.663000 -12.134000
v 4.314000 -11.663000 -12.134000
v 1.649000 -11.663000 -11.634000
v 4.776000 -11.663000 -11.634000
v 0.754000 -11.663000 -11.134000
v 5.213000 -11.663000 -11.134000
v 0.309000 -11.663000 -10.634000
v 5.750000 -11.663000 -10.634000
v 0.195000 -11.663000 -10.134000
v 6.066000 -11.663000 -10.134000
v 0.098000 -11.663000 -9.634000
v 6.167000 -11.663000 -9.634000
v 0.082000 -11.663000 -9.134000
v 6.244000 -11.663000 -9.134000
v 0.176000 -11.663000 -8.634000
v 6.202000 -11.663000 -8.634000
v 0.366000 -11.663000 -8.134000
v 6.240000 -11.663000 -8.134000
v 0.413000 -11.663000 -7.634000
v 6.223000 -11.663000 -7.634000
v 0.393000 -11.663000 -7.134000
v 6.194000 -11.663000 -7.134000
v 0.494000 -11.663000 -6.634000
v 6.227000 -11.663000 -6.634000
v 0.842000 -11.663000 -6.134000
v 6.234000 -11.663000 -6.134000
v 1.368000 -11.663000 -5.634000
v 6.195000 -11.663000 -5.634000
v 1.955000 -11.663000 -5.134000
v 6.185000 -11.663000 -5.134000
v 2.262000 -11.663000 -4.634000
v 6.221000 -11.663000 -4.634000
v 2.640000 -11.663000 -4.134000
v 6.131000 -11.663000 -4.134000
v 2.964000 -11.663000 -3.634000
v 5.883000 -11.663000 -3.634000
v 3.252000 -11.663000 -3.134000
v 5.426000 -11.663000 -3.134000
v 3.745000 -11.663000 -2.634000
v 4.897000 -11.663000 -2.634000
v 0.570000 -11.663000 -10.995000
v 0.570000 -11.663000 -6.477000
v 1.070000 -11.663000 -11.271000
v 1.070000 -11.663000 -5.948000
v 1.570000 -11.663000 -11.580000
v 1.570000 -11.663000 -5.463000
v 2.070000 -11.663000 -11.994000
v 2.070000 -11.663000 -4.994000
v 2.570000 -11.663000 -12.335000
v 2.570000 -11.663000 -4.210000
v 3.070000 -11.663000 -12.527000
v 3.070000 -11.663000 -3.442000
v 3.570000 -11.663000 -12.529000
v 3.570000 -11.663000 -2.756000
v 4.070000 -11.663000 -12.333000
v 4.070000 -11.663000 -2.510000
v 4.570000 -11.663000 -11.828000
v 4.570000 -11.663000 -2.510000
v 5.070000 -11.663000 -11.280000
v 5.070000 -11.663000 -2.754000
v 5.570000 -11.663000 -10.804000
v 5.570000 -11.663000 -3.252000
v 6.070000 -11.663000 -10.124000
v 6.070000 -11.663000 -3.994000
v 0.070000 -14.494000 -10.634000
v 0.070000 -12.124000 -10.634000
v 0.570000 -14.841000 -10.634000
v 0.570000 -11.407000 -10.634000
v 1.070000 -14.866000 -10.634000
v 1.070000 -11.148000 -10.634000
v 1.570000 -14.604000 -10.634000
v 1.570000 -10.957000 -10.634000
v 2.070000 -14.273000 -10.634000
v 2.070000 -10.786000 -10.634000
v 2.570000 -14.040000 -10.634000
v 2.570000 -10.600000 -10.634000
v 3.070000 -13.813000 -10.634000
v 3.070000 -10.330000 -10.634000
v 3.570000 -13.613000 -10.634000
v 3.570000 -10.124000 -10.634000
v 4.070000 -13.352000 -10.634000
v 4.070000 -9.978000 -10.634000
v 4.570000 -13.214000 -10.634000
v 4.570000 -9.980000 -10.634000
v 5.070000 -13.001000 -10.634000
v 5.070000 -10.283000 -10.634000
v 5.570000 -12.289000 -10.634000
v 5.570000 -10.737000 -10.634000
v 0.570000 -12.828000 -6.634000
v 0.570000 -11.404000 -6.634000
v 1.070000 -14.029000 -6.634000
v 1.070000 -10.804000 -6.634000
v 1.570000 -14.452000 -6.634000
v 1.570000 -10.604000 -6.634000
v 2.070000 -14.499000 -6.634000
v 2.070000 -10.332000 -6.634000
v 2.570000 -14.402000 -6.634000
v 2.570000 -10.113000 -6.634000
v 3.070000 -14.286000 -6.634000
v 3.070000 -9.933000 -6.634000
v 3.570000 -14.226000 -6.634000
v 3.570000 -9.819000 -6.634000
v 4.070000 -14.013000 -6.634000
v 4.070000 -9.637000 -6.634000
v 4.570000 -13.841000 -6.634000
v 4.570000 -9.551000 -6.634000
v 5.070000 -13.769000 -6.634000
v 5.070000 -9.542000 -6.634000
v 5.570000 -13.572000 -6.634000
v 5.570000 -9.722000 -6.634000
v 6.070000 -13.013000 -6.634000
v 6.070000 -10.232000 -6.634000
v 3.570000 -13.667000 -2.634000
v 3.570000 -11.834000 -2.634000
v 4.070000 -13.926000 -2.634000
v 4.070000 -11.505000 -2.634000
v 4.570000 -13.931000 -2.634000
v 4.570000 -11.504000 -2.634000
v 5.070000 -13.826000 -2.634000
v 5.070000 -11.832000 -2.634000
v 5.570000 -13.502000 -2.634000
v 5.570000 -12.298000 -2.634000
v 0.587000 -15.163000 -10.134000
v 1.151000 -15.163000 -10.134000
v 0.323000 -15.163000 -9.634000
v 1.415000 -15.163000 -9.634000
v 0.658000 -15.163000 -9.134000
v 1.306000 -15.163000 -9.134000
v 0.818000 -15.163000 -8.634000
v 1.726000 -15.163000 -8.634000
v 0.688000 -15.163000 -8.134000
v 1.956000 -15.163000 -8.134000
v 0.947000 -15.163000 -7.634000
v 1.697000 -15.163000 -7.634000
v 2.609000 -11.163000 -12.134000
v 4.041000 -11.163000 -12.134000
v 2.203000 -11.163000 -11.634000
v 4.499000 -11.163000 -11.634000
v 1.875000 -11.163000 -11.134000
v 5.036000 -11.163000 -11.134000
v 1.035000 -11.163000 -10.634000
v 5.771000 -11.163000 -10.634000
v 0.674000 -11.163000 -10.134000
v 6.083000 -11.163000 -10.134000
v 0.558000 -11.163000 -9.634000
v 6.166000 -11.163000 -9.634000
v 0.577000 -11.163000 -9.134000
v 6.225000 -11.163000 -9.134000
v 0.582000 -11.163000 -8.634000
v 6.196000 -11.163000 -8.634000
v 0.647000 -11.163000 -8.134000
v 6.252000 -11.163000 -8.134000
v 0.626000 -11.163000 -7.634000
v 6.205000 -11.163000 -7.634000
v 0.581000 -11.163000 -7.134000
v 6.208000 -11.163000 -7.134000
v 0.700000 -11.163000 -6.634000
v 6.233000 -11.163000 -6.634000
v 1.151000 -11.163000 -6.134000
v 6.171000 -11.163000 -6.134000
v 1.706000 -11.163000 -5.634000
v 6.079000 -11.163000 -5.634000
v 2.640000 -11.163000 -5.134000
v 6.007000 -11.163000 -5.134000
v 2.931000 -11.163000 -4.634000
v 6.015000 -11.163000 -4.634000
v 3.061000 -11.163000 -4.134000
v 5.908000 -11.163000 -4.134000
v 3.187000 -11.163000 -3.634000
v 5.476000 -11.163000 -3.634000
v 3.590000 -11.163000 -3.134000
v 4.975000 -11.163000 -3.134000
v 0.570000 -15.163000 -10.124000
v 0.570000 -15.163000 -9.206000
v 1.070000 -15.163000 -10.175000
v 1.070000 -15.163000 -7.564000
v 1.570000 -15.163000 -8.751000
v 1.570000 -15.163000 -7.562000
v 0.570000 -11.163000 -9.756000
v 0.570000 -11.163000 -9.199000
v 1.070000 -11.163000 -10.658000
v 1.070000 -11.163000 -6.191000
v 1.570000 -11.163000 -10.887000
v 1.570000 -11.163000 -5.730000
v 2.070000 -11.163000 -11.419000
v 2.070000 -11.163000 -5.468000
v 2.570000 -11.163000 -12.104000
v 2.570000 -11.163000 -5.192000
v 3.070000 -11.163000 -12.343000
v 3.070000 -11.163000 -4.091000
v 3.570000 -11.163000 -12.346000
v 3.570000 -11.163000 -3.149000
v 4.070000 -11.163000 -12.112000
v 4.070000 -11.163000 -2.931000
v 4.570000 -11.163000 -11.570000
v 4.570000 -11.163000 -2.946000
v 5.070000 -11.163000 -11.109000
v 5.070000 -11.163000 -3.209000
v 5.570000 -11.163000 -10.805000
v 5.570000 -11.163000 -3.706000
v 6.070000 -11.163000 -10.168000
v 6.070000 -11.163000 -5.594000
v -0.430000 -14.105000 -10.134000
v -0.430000 -12.475000 -10.134000
v 0.070000 -14.925000 -10.134000
v 0.070000 -11.808000 -10.134000
v 0.570000 -15.160000 -10.134000
v 0.570000 -11.269000 -10.134000
v 1.070000 -15.179000 -10.134000
v 1.070000 -10.796000 -10.134000
v 1.570000 -14.992000 -10.134000
v 1.570000 -10.602000 -10.134000
v 2.070000 -14.509000 -10.134000
v 2.070000 -10.585000 -10.134000
v 2.570000 -14.134000 -10.134000
v 2.570000 -10.481000 -10.134000
v 3.070000 -13.822000 -10.134000
v 3.070000 -10.181000 -10.134000
v 3.570000 -13.606000 -10.134000
v 3.570000 -9.872000 -10.134000
v 4.070000 -13.391000 -10.134000
v 4.070000 -9.665000 -10.134000
v 4.570000 -13.326000 -10.134000
v 4.570000 -9.666000 -10.134000
v 5.070000 -13.140000 -10.134000
v 5.070000 -9.878000 -10.134000
v 5.570000 -12.730000 -10.134000
v 5.570000 -10.314000 -10.134000
v 6.070000 -11.646000 -10.134000
v 6.070000 -11.095000 -10.134000
v 1.070000 -13.166000 -6.134000
v 1.070000 -11.245000 -6.134000
v 1.570000 -14.137000 -6.134000
v 1.570000 -10.853000 -6.134000
v 2.070000 -14.453000 -6.134000
v 2.070000 -10.631000 -6.134000
v 2.570000 -14.506000 -6.134000
v 2.570000 -10.459000 -6.134000
v 3.070000 -14.432000 -6.134000
v 3.070000 -10.426000 -6.134000
v 3.570000 -14.343000 -6.134000
v 3.570000 -10.270000 -6.134000
v 4.070000 -14.201000 -6.134000
v 4.070000 -9.892000 -6.134000
v 4.570000 -14.009000 -6.134000
v 4.570000 -9.661000 -6.134000
v 5.070000 -13.776000 -6.134000
v 5.070000 -9.648000 -6.134000
v 5.570000 -13.551000 -6.134000
v 5.570000 -9.846000 -6.134000
v 6.070000 -12.927000 -6.134000
v 6.070000 -10.481000 -6.134000
f 202 151 99
f 241 299 202
f 299 151 202
f 299 297 151
f 299 439 297
f 441 439 299
f 441 563 439
f 565 563 441
f 565 242 563
f 563 242 100
f 243 7 101
f 101 7 5
f 153 202 99
f 5 153 99
f 7 153 5
f 241 202 153
f 689 100 242
f 689 242 691
f 691 244 689
f 689 244 102
f 978 929 103
f 101 929 978
f 245 101 978
f 243 101 245
f 815 102 244
f 815 244 817
f 984 949 246
f 949 817 246
f 949 815 817
f 984 104 949
f 978 103 931
f 103 247 931
f 103 105 247
f 245 978 931
f 951 984 246
f 951 248 984
f 248 104 984
f 248 106 104
f 105 930 247
f 247 930 932
f 249 932 930
f 249 930 107
f 35 106 248
f 35 248 37
f 37 250 35
f 35 250 108
f 69 251 6
f 251 107 6
f 251 249 107
f 109 69 6
f 250 185 225
f 110 250 225
f 108 250 110
f 185 252 225
f 69 8 251
f 213 253 152
f 152 253 109
f 253 8 109
f 8 69 109
f 111 213 152
f 227 112 110
f 227 110 225
f 225 252 227
f 227 252 254
f 213 154 253
f 255 154 213
f 111 255 213
f 113 255 111
f 227 183 112
f 227 254 183
f 254 114 183
f 254 256 114
f 359 257 298
f 257 113 298
f 257 255 113
f 115 359 298
f 327 114 256
f 327 256 329
f 329 258 327
f 327 258 116
f 359 300 257
f 259 300 359
f 115 259 359
f 117 259 115
f 116 260 118
f 258 260 116
f 261 117 119
f 261 259 117
f 118 262 120
f 260 262 118
f 263 119 121
f 263 261 119
f 330 264 122
f 330 122 328
f 328 120 330
f 330 120 262
f 121 440 263
f 263 440 442
f 265 442 440
f 265 440 123
f 186 266 124
f 186 124 184
f 184 122 186
f 186 122 264
f 123 564 265
f 265 564 566
f 267 566 564
f 267 564 125
f 38 268 126
f 38 126 36
f 36 124 38
f 38 124 266
f 125 690 267
f 267 690 692
f 816 692 690
f 816 818 692
f 950 818 816
f 950 952 818
f 950 126 952
f 952 126 268
f 269 315 127
f 127 315 313
f 315 455 313
f 457 455 315
f 457 579 455
f 581 579 457
f 726 705 270
f 705 581 270
f 705 579 581
f 850 831 726
f 726 831 705
f 850 128 831
f 271 169 129
f 129 169 167
f 127 167 169
f 127 169 269
f 707 726 270
f 726 707 833
f 726 833 850
f 272 990 965
f 272 965 128
f 833 272 128
f 850 833 128
f 990 130 965
f 273 19 131
f 131 19 17
f 129 17 19
f 129 19 271
f 274 992 990
f 274 990 272
f 130 990 132
f 132 990 992
f 275 131 133
f 275 273 131
f 967 992 274
f 967 276 992
f 276 132 992
f 276 134 132
f 75 277 18
f 277 133 18
f 277 275 133
f 135 75 18
f 278 88 51
f 134 278 51
f 276 278 134
f 88 136 51
f 75 20 277
f 279 20 75
f 135 279 75
f 137 279 135
f 53 88 278
f 53 280 88
f 280 136 88
f 280 138 136
f 221 281 168
f 281 137 168
f 281 279 137
f 139 221 168
f 282 236 199
f 138 282 199
f 280 282 138
f 236 140 199
f 223 283 221
f 221 283 281
f 221 139 141
f 221 141 223
f 284 238 236
f 284 236 282
f 140 236 142
f 142 236 238
f 223 170 283
f 285 170 223
f 141 285 223
f 143 285 141
f 144 200 238
f 284 144 238
f 286 144 284
f 142 238 200
f 143 314 285
f 285 314 316
f 456 495 287
f 316 456 287
f 314 456 316
f 145 495 456
f 968 288 1006
f 968 1006 146
f 52 968 146
f 54 968 52
f 52 144 54
f 54 144 286
f 495 458 287
f 145 580 495
f 580 458 495
f 580 582 458
f 706 582 580
f 706 708 582
f 832 708 706
f 832 834 708
f 288 834 1006
f 834 966 1006
f 834 832 966
f 146 1006 966
f 344 299 241
f 381 443 344
f 443 299 344
f 443 441 299
f 443 565 441
f 567 565 443
f 567 382 565
f 565 382 242
f 62 7 243
f 383 155 62
f 155 7 62
f 155 153 7
f 301 344 241
f 153 301 241
f 155 301 153
f 381 344 301
f 691 242 382
f 691 382 693
f 693 384 691
f 691 384 244
f 62 243 9
f 243 385 9
f 243 245 385
f 383 62 9
f 817 244 384
f 817 384 819
f 819 386 817
f 817 386 246
f 387 933 247
f 247 933 931
f 245 931 933
f 245 933 385
f 951 246 386
f 951 386 953
f 953 388 951
f 951 388 248
f 981 389 932
f 389 247 932
f 389 387 247
f 249 981 932
f 37 248 388
f 37 388 39
f 39 390 37
f 37 390 250
f 981 934 389
f 391 934 981
f 249 391 981
f 251 391 249
f 185 250 390
f 185 390 187
f 187 392 185
f 185 392 252
f 251 8 391
f 391 8 10
f 393 10 8
f 393 8 253
f 392 331 369
f 254 392 369
f 252 392 254
f 331 394 369
f 253 154 393
f 393 154 156
f 395 156 154
f 395 154 255
f 371 256 254
f 371 254 369
f 369 394 371
f 371 394 396
f 397 255 257
f 397 395 255
f 371 329 256
f 371 396 329
f 396 258 329
f 396 398 258
f 257 300 397
f 397 300 302
f 399 302 300
f 399 300 259
f 258 400 260
f 398 400 258
f 401 259 261
f 401 399 259
f 260 402 262
f 400 402 260
f 403 261 263
f 403 401 261
f 332 404 264
f 332 264 330
f 330 262 332
f 332 262 402
f 263 442 403
f 403 442 444
f 405 444 442
f 405 442 265
f 188 406 266
f 188 266 186
f 186 264 188
f 188 264 404
f 265 566 405
f 405 566 568
f 407 568 566
f 407 566 267
f 40 408 268
f 40 268 38
f 38 266 40
f 40 266 406
f 267 692 407
f 407 692 694
f 818 694 692
f 818 820 694
f 952 820 818
f 952 954 820
f 952 268 954
f 954 268 408
f 409 317 269
f 269 317 315
f 317 457 315
f 459 457 317
f 602 581 410
f 581 459 410
f 581 457 459
f 602 270 581
f 411 171 271
f 271 171 169
f 269 169 171
f 269 171 409
f 583 602 410
f 707 270 602
f 583 707 602
f 709 707 583
f 852 833 412
f 833 709 412
f 833 707 709
f 852 272 833
f 413 21 273
f 273 21 19
f 271 19 21
f 271 21 411
f 835 852 412
f 835 414 852
f 414 272 852
f 414 274 272
f 415 273 275
f 415 413 273
f 967 274 414
f 967 414 969
f 969 416 967
f 967 416 276
f 417 275 277
f 417 415 275
f 276 418 278
f 416 418 276
f 77 419 20
f 419 277 20
f 419 417 277
f 279 77 20
f 53 278 418
f 53 418 55
f 55 420 53
f 53 420 280
f 77 22 419
f 421 22 77
f 279 421 77
f 281 421 279
f 280 422 282
f 420 422 280
f 423 281 283
f 423 421 281
f 282 424 284
f 422 424 282
f 283 170 423
f 423 170 172
f 425 172 170
f 425 170 285
f 56 426 96
f 96 286 56
f 286 424 56
f 286 284 424
f 285 316 425
f 425 316 318
f 427 318 316
f 427 316 287
f 970 428 288
f 970 288 968
f 426 970 96
f 970 54 96
f 970 968 54
f 286 96 54
f 287 458 427
f 427 458 460
f 582 460 458
f 582 584 460
f 708 584 582
f 708 710 584
f 834 710 708
f 834 836 710
f 834 288 836
f 836 288 428
f 497 553 603
f 603 553 727
f 727 553 679
f 679 498 727
f 499 429 481
f 497 603 429
f 603 481 429
f 603 605 481
f 603 729 605
f 603 727 729
f 805 853 498
f 853 727 498
f 853 729 727
f 805 500 853
f 483 501 481
f 481 501 499
f 481 607 483
f 481 605 607
f 605 731 607
f 605 729 731
f 729 855 731
f 729 853 855
f 939 993 500
f 993 853 500
f 993 855 853
f 939 502 993
f 483 430 501
f 430 483 503
f 483 609 503
f 483 607 609
f 607 733 609
f 607 731 733
f 731 857 733
f 731 855 857
f 855 995 857
f 855 993 995
f 993 502 995
f 995 502 504
f 609 554 503
f 554 609 505
f 609 735 505
f 609 733 735
f 733 859 735
f 733 857 859
f 506 859 940
f 859 995 940
f 859 857 995
f 995 504 940
f 735 680 505
f 680 735 806
f 806 735 859
f 859 506 806
f 470 443 381
f 594 567 470
f 470 567 443
f 594 382 567
f 507 157 383
f 383 157 155
f 157 301 155
f 303 301 157
f 445 470 381
f 301 445 381
f 303 445 301
f 470 445 569
f 470 569 594
f 693 382 594
f 569 693 594
f 695 693 569
f 695 508 693
f 693 508 384
f 509 11 385
f 385 11 9
f 383 9 11
f 383 11 507
f 819 384 508
f 819 508 821
f 821 510 819
f 819 510 386
f 511 935 387
f 387 935 933
f 385 933 935
f 385 935 509
f 953 386 510
f 953 510 955
f 955 512 953
f 953 512 388
f 513 387 389
f 513 511 387
f 39 388 512
f 39 512 41
f 41 514 39
f 39 514 390
f 389 934 513
f 513 934 936
f 515 936 934
f 515 934 391
f 187 390 514
f 187 514 189
f 189 516 187
f 187 516 392
f 391 10 515
f 515 10 12
f 517 12 10
f 517 10 393
f 331 392 516
f 331 516 333
f 333 518 331
f 331 518 394
f 393 156 517
f 517 156 158
f 519 158 156
f 519 156 395
f 394 520 396
f 518 520 394
f 521 395 397
f 521 519 395
f 396 522 398
f 520 522 396
f 361 523 302
f 523 397 302
f 523 521 397
f 399 361 302
f 398 524 400
f 522 524 398
f 361 304 523
f 525 304 361
f 399 525 361
f 401 525 399
f 400 526 402
f 524 526 400
f 527 401 403
f 527 525 401
f 334 528 404
f 334 404 332
f 332 402 334
f 334 402 526
f 403 444 527
f 527 444 446
f 529 446 444
f 529 444 405
f 188 239 406
f 188 404 239
f 404 530 239
f 404 528 530
f 405 568 529
f 529 568 570
f 531 570 568
f 531 568 407
f 40 97 408
f 239 190 406
f 406 190 40
f 190 532 40
f 532 97 40
f 239 530 190
f 407 694 531
f 531 694 696
f 820 696 694
f 820 822 696
f 954 822 820
f 954 956 822
f 97 42 408
f 42 954 408
f 42 956 954
f 97 532 42
f 533 319 409
f 409 319 317
f 319 459 317
f 461 459 319
f 461 534 459
f 459 534 410
f 535 173 411
f 411 173 171
f 409 171 173
f 409 173 533
f 583 410 534
f 583 534 585
f 728 709 536
f 709 585 536
f 709 583 585
f 728 412 709
f 537 23 413
f 413 23 21
f 411 21 23
f 411 23 535
f 711 728 536
f 538 854 835
f 538 835 412
f 711 538 412
f 728 711 412
f 854 414 835
f 539 413 415
f 539 537 413
f 837 854 538
f 969 414 854
f 837 969 854
f 971 969 837
f 971 540 969
f 969 540 416
f 541 415 417
f 541 539 415
f 416 542 418
f 540 542 416
f 543 417 419
f 543 541 417
f 55 418 542
f 55 542 57
f 57 544 55
f 55 544 420
f 419 22 543
f 543 22 24
f 545 24 22
f 545 22 421
f 420 546 422
f 544 546 420
f 547 421 423
f 547 545 421
f 422 548 424
f 546 548 422
f 423 172 547
f 547 172 174
f 549 174 172
f 549 172 425
f 58 550 426
f 58 426 56
f 56 424 58
f 58 424 548
f 425 318 549
f 549 318 320
f 551 320 318
f 551 318 427
f 972 552 428
f 972 428 970
f 970 426 972
f 972 426 550
f 427 460 551
f 551 460 462
f 584 462 460
f 584 586 462
f 710 586 584
f 710 712 586
f 836 712 710
f 836 838 712
f 836 428 838
f 838 428 552
f 621 555 601
f 601 555 725
f 725 555 681
f 681 622 725
f 623 431 479
f 621 601 431
f 431 601 479
f 601 553 479
f 553 497 479
f 725 679 553
f 725 553 601
f 622 807 851
f 622 851 498
f 725 622 498
f 679 725 498
f 807 624 851
f 625 289 355
f 623 479 289
f 289 479 355
f 479 429 355
f 429 499 355
f 479 497 429
f 851 805 498
f 624 941 991
f 624 991 500
f 851 624 500
f 805 851 500
f 941 626 991
f 357 627 355
f 355 627 625
f 355 499 501
f 355 501 357
f 991 939 500
f 626 27 85
f 626 85 502
f 991 626 502
f 939 991 502
f 27 628 85
f 357 290 627
f 485 629 430
f 430 629 501
f 629 290 501
f 290 357 501
f 503 485 430
f 87 504 502
f 87 502 85
f 85 628 87
f 87 628 630
f 485 432 629
f 611 631 554
f 554 631 503
f 631 432 503
f 432 485 503
f 505 611 554
f 940 997 506
f 87 28 504
f 504 28 940
f 28 632 940
f 632 997 940
f 87 630 28
f 611 556 631
f 737 633 680
f 680 633 505
f 633 556 505
f 556 611 505
f 806 861 737
f 806 737 680
f 997 942 506
f 506 942 806
f 942 634 806
f 634 861 806
f 997 632 942
f 737 682 633
f 682 737 808
f 808 737 861
f 861 634 808
f 635 159 507
f 507 159 157
f 159 303 157
f 305 303 159
f 305 445 303
f 447 445 305
f 447 569 445
f 571 569 447
f 720 695 636
f 695 571 636
f 695 569 571
f 720 508 695
f 637 13 509
f 509 13 11
f 507 11 13
f 507 13 635
f 697 720 636
f 821 508 720
f 697 821 720
f 823 821 697
f 823 638 821
f 821 638 510
f 639 937 511
f 511 937 935
f 509 935 937
f 509 937 637
f 955 510 638
f 955 638 957
f 957 640 955
f 955 640 512
f 641 511 513
f 641 639 511
f 41 512 640
f 41 640 43
f 43 642 41
f 41 642 514
f 513 936 641
f 641 936 938
f 643 938 936
f 643 936 515
f 189 514 642
f 189 642 191
f 191 644 189
f 189 644 516
f 515 12 643
f 643 12 14
f 645 14 12
f 645 12 517
f 333 516 644
f 333 644 335
f 335 646 333
f 333 646 518
f 215 647 158
f 647 517 158
f 647 645 517
f 519 215 158
f 518 648 520
f 646 648 518
f 215 160 647
f 649 160 215
f 519 649 215
f 521 649 519
f 520 650 522
f 648 650 520
f 651 521 523
f 651 649 521
f 522 652 524
f 650 652 522
f 363 653 304
f 653 523 304
f 653 651 523
f 525 363 304
f 524 654 526
f 652 654 524
f 363 306 653
f 655 306 363
f 525 655 363
f 527 655 525
f 334 379 528
f 334 526 379
f 526 656 379
f 526 654 656
f 493 657 446
f 657 527 446
f 657 655 527
f 529 493 446
f 528 379 336
f 658 528 336
f 530 528 658
f 379 656 336
f 493 448 657
f 529 570 493
f 570 448 493
f 570 572 448
f 659 572 570
f 659 570 531
f 192 660 532
f 192 532 190
f 190 530 192
f 192 530 658
f 531 696 659
f 659 696 698
f 822 698 696
f 822 824 698
f 956 824 822
f 956 958 824
f 42 958 956
f 42 44 958
f 42 532 44
f 44 532 660
f 352 319 533
f 478 461 352
f 352 461 319
f 478 534 461
f 212 173 535
f 321 352 533
f 321 533 173
f 661 321 173
f 212 661 173
f 352 321 463
f 352 463 478
f 662 604 585
f 662 585 534
f 463 662 534
f 478 463 534
f 604 536 585
f 72 23 537
f 175 212 535
f 175 535 23
f 663 175 23
f 72 663 23
f 661 212 175
f 587 604 662
f 664 730 711
f 664 711 536
f 587 664 536
f 604 587 536
f 730 538 711
f 72 537 25
f 537 665 25
f 537 539 665
f 663 72 25
f 713 730 664
f 837 538 730
f 713 837 730
f 839 837 713
f 994 971 666
f 971 839 666
f 971 837 839
f 994 540 971
f 667 539 541
f 667 665 539
f 973 994 666
f 973 668 994
f 668 540 994
f 668 542 540
f 669 541 543
f 669 667 541
f 57 542 668
f 57 668 59
f 59 670 57
f 57 670 544
f 543 24 669
f 669 24 26
f 671 26 24
f 671 24 545
f 544 672 546
f 670 672 544
f 673 545 547
f 673 671 545
f 60 674 94
f 94 548 60
f 548 672 60
f 548 546 672
f 547 174 673
f 673 174 176
f 675 176 174
f 675 174 549
f 974 676 1004
f 94 674 974
f 94 974 1004
f 58 94 1004
f 550 58 1004
f 548 94 58
f 549 320 675
f 675 320 322
f 677 322 320
f 677 320 551
f 840 678 868
f 1004 676 840
f 1004 840 868
f 972 1004 868
f 552 972 868
f 550 1004 972
f 551 462 677
f 677 462 464
f 586 464 462
f 586 588 464
f 712 588 586
f 712 714 588
f 678 714 868
f 714 838 868
f 714 712 838
f 552 868 838
f 745 557 597
f 597 557 721
f 721 557 683
f 683 746 721
f 747 291 349
f 349 291 475
f 475 291 433
f 745 597 433
f 597 475 433
f 597 599 475
f 597 723 599
f 597 721 723
f 809 847 746
f 847 721 746
f 847 723 721
f 809 748 847
f 351 749 349
f 349 749 747
f 349 477 351
f 349 475 477
f 599 555 621
f 477 599 621
f 475 599 477
f 723 681 555
f 723 555 599
f 849 622 681
f 723 849 681
f 847 849 723
f 847 748 849
f 849 748 750
f 353 751 351
f 351 751 749
f 477 431 623
f 353 477 623
f 351 477 353
f 477 621 431
f 849 807 622
f 750 943 989
f 750 989 624
f 849 750 624
f 807 849 624
f 943 752 989
f 289 625 353
f 625 751 353
f 625 753 751
f 353 623 289
f 989 941 624
f 989 752 941
f 752 626 941
f 752 754 626
f 755 625 627
f 755 753 625
f 27 626 754
f 27 754 29
f 29 756 27
f 27 756 628
f 627 290 755
f 755 290 292
f 757 292 290
f 757 290 629
f 628 758 630
f 756 758 628
f 487 759 432
f 759 629 432
f 759 757 629
f 631 487 432
f 28 89 632
f 28 630 89
f 630 760 89
f 630 758 760
f 487 434 759
f 613 761 556
f 556 761 631
f 761 434 631
f 434 487 631
f 633 613 556
f 942 999 634
f 89 30 632
f 632 30 942
f 30 762 942
f 762 999 942
f 89 760 30
f 613 558 761
f 739 763 682
f 682 763 633
f 763 558 633
f 558 613 633
f 808 863 739
f 808 739 682
f 999 944 634
f 634 944 808
f 944 764 808
f 764 863 808
f 999 762 944
f 739 684 763
f 684 739 810
f 810 739 863
f 863 764 810
f 204 159 635
f 346 305 204
f 204 305 159
f 472 447 346
f 346 447 305
f 596 571 472
f 472 571 447
f 596 636 571
f 64 13 637
f 161 204 635
f 161 635 13
f 765 161 13
f 64 765 13
f 204 161 307
f 204 307 346
f 346 307 449
f 346 449 472
f 472 449 573
f 472 573 596
f 697 636 596
f 573 697 596
f 699 697 573
f 699 823 697
f 825 823 699
f 825 766 823
f 823 766 638
f 980 937 639
f 15 64 637
f 15 637 937
f 767 15 937
f 980 767 937
f 765 64 15
f 957 638 766
f 957 766 959
f 959 768 957
f 957 768 640
f 641 982 639
f 639 982 980
f 767 980 982
f 767 982 769
f 43 640 768
f 43 768 45
f 45 770 43
f 43 770 642
f 938 982 641
f 769 982 938
f 643 769 938
f 771 769 643
f 191 642 770
f 191 770 193
f 193 772 191
f 191 772 644
f 643 14 771
f 771 14 16
f 773 16 14
f 773 14 645
f 774 370 335
f 644 774 335
f 772 774 644
f 370 646 335
f 775 645 647
f 775 773 645
f 337 370 774
f 337 776 370
f 776 646 370
f 776 648 646
f 647 160 775
f 775 160 162
f 777 162 160
f 777 160 649
f 648 778 650
f 776 778 648
f 779 649 651
f 779 777 649
f 650 780 652
f 778 780 650
f 781 651 653
f 781 779 651
f 652 782 654
f 780 782 652
f 365 783 306
f 783 653 306
f 783 781 653
f 655 365 306
f 654 784 656
f 782 784 654
f 365 308 783
f 785 308 365
f 655 785 365
f 657 785 655
f 338 786 658
f 338 658 336
f 336 656 338
f 338 656 784
f 657 448 785
f 785 448 450
f 572 619 787
f 450 572 787
f 448 572 450
f 659 619 572
f 194 788 660
f 194 660 192
f 192 658 194
f 194 658 786
f 619 574 787
f 659 698 619
f 698 574 619
f 698 700 574
f 824 700 698
f 824 826 700
f 958 826 824
f 958 960 826
f 44 960 958
f 44 46 960
f 44 660 46
f 46 660 788
f 354 321 661
f 480 463 354
f 354 463 321
f 480 662 463
f 214 175 663
f 323 354 661
f 323 661 175
f 789 323 175
f 214 789 175
f 354 323 465
f 354 465 480
f 790 606 587
f 790 587 662
f 465 790 662
f 480 465 662
f 606 664 587
f 74 25 665
f 177 214 663
f 177 663 25
f 791 177 25
f 74 791 25
f 789 214 177
f 589 606 790
f 713 664 606
f 589 713 606
f 715 713 589
f 856 839 792
f 839 715 792
f 839 713 715
f 856 666 839
f 667 76 665
f 665 76 74
f 791 74 76
f 791 76 793
f 841 856 792
f 794 996 973
f 794 973 666
f 841 794 666
f 856 841 666
f 996 668 973
f 669 78 667
f 667 78 76
f 793 76 78
f 793 78 795
f 975 996 794
f 796 90 59
f 796 59 668
f 975 796 668
f 996 975 668
f 90 670 59
f 26 78 669
f 795 78 26
f 671 795 26
f 797 795 671
f 798 92 90
f 798 90 796
f 670 90 672
f 672 90 92
f 799 671 673
f 799 797 671
f 976 800 1002
f 92 798 976
f 92 976 1002
f 60 92 1002
f 674 60 1002
f 672 92 60
f 673 176 799
f 799 176 178
f 801 178 176
f 801 176 675
f 842 802 866
f 1002 800 842
f 1002 842 866
f 974 1002 866
f 676 974 866
f 674 1002 974
f 675 322 801
f 801 322 324
f 803 324 322
f 803 322 677
f 716 804 744
f 866 802 716
f 866 716 744
f 840 866 744
f 678 840 744
f 676 866 840
f 677 464 803
f 803 464 466
f 588 466 464
f 588 590 466
f 804 590 744
f 590 714 744
f 590 588 714
f 678 744 714
f 869 147 203
f 203 147 345
f 345 147 293
f 345 293 471
f 471 293 435
f 471 435 595
f 595 435 559
f 595 559 719
f 719 559 685
f 685 870 719
f 871 1 63
f 869 203 1
f 203 63 1
f 203 205 63
f 203 347 205
f 203 345 347
f 345 473 347
f 345 471 473
f 595 557 745
f 473 595 745
f 471 595 473
f 719 683 557
f 719 557 595
f 870 811 845
f 870 845 746
f 719 870 746
f 683 719 746
f 811 872 845
f 65 873 63
f 63 873 871
f 63 207 65
f 63 205 207
f 347 291 747
f 207 347 747
f 205 347 207
f 473 433 291
f 473 291 347
f 473 745 433
f 845 809 746
f 872 945 985
f 872 985 748
f 845 872 748
f 809 845 748
f 945 874 985
f 65 2 873
f 2 65 875
f 65 209 875
f 65 207 209
f 207 747 749
f 207 749 209
f 987 750 748
f 987 748 985
f 985 874 987
f 987 874 876
f 211 877 209
f 209 877 875
f 209 749 751
f 209 751 211
f 987 943 750
f 987 876 943
f 876 752 943
f 876 878 752
f 211 148 877
f 879 148 211
f 751 879 211
f 753 879 751
f 878 31 83
f 754 878 83
f 752 878 754
f 31 880 83
f 881 753 755
f 881 879 753
f 83 29 754
f 83 880 29
f 880 756 29
f 880 882 756
f 755 292 881
f 881 292 294
f 883 294 292
f 883 292 757
f 882 179 231
f 758 882 231
f 756 882 758
f 179 884 231
f 885 757 759
f 885 883 757
f 233 760 758
f 233 758 231
f 231 884 233
f 233 884 886
f 489 887 434
f 887 759 434
f 887 885 759
f 761 489 434
f 30 91 762
f 91 30 760
f 233 91 760
f 235 91 233
f 233 886 235
f 235 886 888
f 489 436 887
f 615 889 558
f 558 889 761
f 889 436 761
f 436 489 761
f 763 615 558
f 944 1001 764
f 1001 944 762
f 91 1001 762
f 93 1001 91
f 890 93 180
f 93 235 180
f 93 91 235
f 235 888 180
f 615 560 889
f 741 891 684
f 684 891 763
f 891 560 763
f 560 615 763
f 810 865 741
f 810 741 684
f 865 810 764
f 1001 865 764
f 1003 865 1001
f 892 1003 32
f 1003 93 32
f 1003 1001 93
f 93 890 32
f 741 686 891
f 686 741 812
f 812 741 865
f 812 865 946
f 946 865 1003
f 1003 892 946
f 206 161 765
f 348 307 206
f 206 307 161
f 474 449 348
f 348 449 307
f 893 575 474
f 575 449 474
f 575 573 449
f 575 699 573
f 701 699 575
f 701 825 699
f 827 825 701
f 827 894 825
f 825 894 766
f 66 15 767
f 15 66 765
f 66 206 765
f 66 208 206
f 208 895 309
f 348 208 309
f 206 208 348
f 348 309 451
f 348 451 474
f 893 474 451
f 959 766 894
f 959 894 961
f 961 896 959
f 959 896 768
f 769 68 767
f 767 68 66
f 68 897 163
f 208 68 163
f 66 68 208
f 895 208 163
f 45 768 896
f 45 896 47
f 47 898 45
f 45 898 770
f 771 70 769
f 769 70 68
f 897 68 70
f 897 70 899
f 900 226 193
f 770 900 193
f 898 900 770
f 226 772 193
f 16 70 771
f 899 70 16
f 773 899 16
f 901 899 773
f 195 226 900
f 195 902 226
f 902 772 226
f 902 774 772
f 903 773 775
f 903 901 773
f 904 372 337
f 774 904 337
f 902 904 774
f 372 776 337
f 217 905 162
f 905 775 162
f 905 903 775
f 777 217 162
f 906 374 372
f 906 372 904
f 776 372 778
f 778 372 374
f 217 164 905
f 907 164 217
f 777 907 217
f 779 907 777
f 339 374 906
f 339 908 374
f 908 778 374
f 908 780 778
f 909 779 781
f 909 907 779
f 780 910 782
f 908 910 780
f 911 781 783
f 911 909 781
f 782 912 784
f 910 912 782
f 783 308 911
f 911 308 310
f 913 310 308
f 913 308 785
f 340 914 786
f 340 786 338
f 338 784 340
f 340 784 912
f 785 450 913
f 913 450 452
f 915 452 450
f 915 450 787
f 196 916 788
f 196 788 194
f 194 786 196
f 196 786 914
f 787 574 915
f 915 574 576
f 700 576 574
f 700 702 576
f 826 702 700
f 826 828 702
f 960 828 826
f 960 962 828
f 46 962 960
f 46 48 962
f 46 788 48
f 48 788 916
f 356 323 789
f 482 465 356
f 356 465 323
f 482 790 465
f 216 177 791
f 177 216 789
f 216 356 789
f 216 358 356
f 484 356 358
f 482 356 484
f 790 482 589
f 482 608 589
f 482 484 608
f 732 715 608
f 608 715 589
f 732 792 715
f 793 218 791
f 791 218 216
f 218 917 325
f 358 218 325
f 216 218 358
f 358 325 467
f 358 467 484
f 484 467 591
f 484 591 608
f 608 591 717
f 608 717 732
f 918 858 841
f 918 841 792
f 717 918 792
f 732 717 792
f 858 794 841
f 795 220 793
f 793 220 218
f 917 218 220
f 917 220 919
f 843 858 918
f 920 998 975
f 920 975 794
f 843 920 794
f 858 843 794
f 998 796 975
f 797 222 795
f 795 222 220
f 919 220 222
f 919 222 921
f 922 1000 998
f 922 998 920
f 796 998 798
f 798 998 1000
f 799 224 797
f 797 224 222
f 921 222 224
f 921 224 923
f 844 924 864
f 1000 922 844
f 1000 844 864
f 976 1000 864
f 800 976 864
f 798 1000 976
f 178 224 799
f 326 923 368
f 368 923 801
f 923 224 801
f 224 178 801
f 925 326 368
f 718 926 742
f 864 924 718
f 864 718 742
f 842 864 742
f 802 842 742
f 800 864 842
f 324 368 801
f 468 925 496
f 496 925 803
f 925 368 803
f 368 324 803
f 468 496 620
f 468 620 592
f 742 926 592
f 742 592 620
f 716 742 620
f 804 716 620
f 802 742 716
f 466 496 803
f 590 620 466
f 466 620 496
f 804 620 590
f 1007 295 343
f 343 295 469
f 469 295 437
f 469 437 593
f 593 437 561
f 561 1008 593
f 1009 3 61
f 61 3 869
f 3 147 869
f 3 149 147
f 149 1007 343
f 293 149 343
f 147 149 293
f 469 435 293
f 469 293 343
f 593 559 435
f 593 435 469
f 559 593 1008
f 687 559 1008
f 685 559 687
f 687 1010 685
f 685 1010 870
f 1 871 61
f 871 1009 61
f 871 1011 1009
f 61 869 1
f 811 870 1010
f 811 1010 813
f 813 1012 811
f 811 1012 872
f 1013 927 979
f 873 979 927
f 1011 873 927
f 871 873 1011
f 945 872 1012
f 945 1012 947
f 947 1014 945
f 945 1014 874
f 979 928 1013
f 67 1015 2
f 2 1015 873
f 1015 928 873
f 928 979 873
f 875 67 2
f 1014 33 79
f 876 1014 79
f 874 1014 876
f 33 1016 79
f 67 4 1015
f 1017 4 67
f 875 1017 67
f 877 1017 875
f 81 878 876
f 81 876 79
f 79 1016 81
f 81 1016 1018
f 877 148 1017
f 1017 148 150
f 1019 150 148
f 1019 148 879
f 81 31 878
f 81 1018 31
f 1018 880 31
f 1018 1020 880
f 1021 879 881
f 1021 1019 879
f 880 1022 882
f 1020 1022 880
f 881 294 1021
f 1021 294 296
f 1023 296 294
f 1023 294 883
f 179 882 1022
f 179 1022 181
f 181 1024 179
f 179 1024 884
f 1025 883 885
f 1025 1023 883
f 884 1026 886
f 1024 1026 884
f 1027 885 887
f 1027 1025 885
f 886 1028 888
f 1026 1028 886
f 887 436 1027
f 1027 436 438
f 1029 438 436
f 1029 436 889
f 180 237 890
f 180 888 237
f 888 1030 237
f 888 1028 1030
f 617 1031 560
f 1031 889 560
f 1031 1029 889
f 891 617 560
f 32 95 892
f 237 182 890
f 890 182 32
f 182 1032 32
f 1032 95 32
f 237 1030 182
f 617 562 1031
f 891 686 617
f 686 562 617
f 686 688 562
f 812 688 686
f 812 814 688
f 946 1005 1033
f 814 946 1033
f 812 946 814
f 95 34 892
f 892 34 946
f 34 1034 946
f 1034 1005 946
f 95 1032 34
f 1005 948 1033
f 1005 1034 948
f 598 575 893
f 722 701 598
f 598 701 575
f 846 827 722
f 722 827 701
f 846 894 827
f 350 309 895
f 1035 453 350
f 453 309 350
f 453 451 309
f 577 598 893
f 451 577 893
f 453 577 451
f 598 577 703
f 598 703 722
f 722 703 829
f 722 829 846
f 1036 986 961
f 1036 961 894
f 829 1036 894
f 846 829 894
f 986 896 961
f 210 163 897
f 311 350 895
f 311 895 163
f 1037 311 163
f 210 1037 163
f 1035 350 311
f 963 986 1036
f 1038 80 47
f 1038 47 896
f 963 1038 896
f 986 963 896
f 80 898 47
f 210 897 165
f 897 1039 165
f 897 899 1039
f 1037 210 165
f 49 80 1038
f 49 1040 80
f 1040 898 80
f 1040 900 898
f 1041 899 901
f 1041 1039 899
f 1042 228 195
f 900 1042 195
f 1040 1042 900
f 228 902 195
f 1043 901 903
f 1043 1041 901
f 1044 230 228
f 1044 228 1042
f 902 228 904
f 904 228 230
f 1045 903 905
f 1045 1043 903
f 1046 232 230
f 1046 230 1044
f 904 230 906
f 906 230 232
f 219 1047 164
f 1047 905 164
f 1047 1045 905
f 907 219 164
f 197 232 1046
f 1048 376 339
f 1048 339 906
f 197 1048 906
f 232 197 906
f 376 908 339
f 219 166 1047
f 1049 166 219
f 907 1049 219
f 909 1049 907
f 341 376 1048
f 341 1050 376
f 1050 908 376
f 1050 910 908
f 1051 909 911
f 1051 1049 909
f 910 1052 912
f 1050 1052 910
f 911 310 1051
f 1051 310 312
f 1053 312 310
f 1053 310 913
f 342 1054 914
f 342 914 340
f 340 912 342
f 342 912 1052
f 913 452 1053
f 1053 452 454
f 1055 454 452
f 1055 452 915
f 198 1056 916
f 198 916 196
f 196 914 198
f 198 914 1054
f 915 576 1055
f 1055 576 578
f 702 578 576
f 702 704 578
f 828 704 702
f 828 830 704
f 962 830 828
f 962 964 830
f 48 964 962
f 48 50 964
f 48 916 50
f 50 916 1056
f 360 325 917
f 486 467 360
f 360 467 325
f 610 591 486
f 486 591 467
f 734 717 610
f 610 717 591
f 734 918 717
f 919 362 917
f 917 362 360
f 488 360 362
f 486 360 488
f 612 486 488
f 610 486 612
f 736 610 612
f 734 610 736
f 918 734 843
f 734 860 843
f 734 736 860
f 860 920 843
f 921 364 919
f 919 364 362
f 490 362 364
f 488 362 490
f 614 488 490
f 612 488 614
f 738 612 614
f 736 612 738
f 862 736 738
f 860 736 862
f 920 860 922
f 922 860 862
f 923 366 921
f 921 366 364
f 492 364 366
f 490 364 492
f 616 490 492
f 614 490 616
f 740 614 616
f 738 614 740
f 844 862 924
f 862 740 924
f 862 738 740
f 922 862 844
f 326 366 923
f 925 494 326
f 494 366 326
f 494 492 366
f 618 492 494
f 616 492 618
f 718 740 926
f 740 618 926
f 740 616 618
f 924 740 718
f 468 494 925
f 592 618 468
f 468 618 494
f 926 618 592
f 99 151 201
f 201 151 1007
f 151 295 1007
f 151 297 295
f 297 437 295
f 439 437 297
f 439 561 437
f 563 561 439
f 563 100 561
f 561 100 1008
f 101 5 1009
f 1009 5 3
f 5 99 201
f 149 5 201
f 3 5 149
f 201 1007 149
f 687 1008 100
f 687 100 689
f 689 102 687
f 687 102 1010
f 103 929 977
f 1011 977 929
f 101 1011 929
f 1009 1011 101
f 813 1010 102
f 813 102 815
f 1012 813 983
f 813 949 983
f 813 815 949
f 949 104 983
f 927 1013 977
f 1013 103 977
f 1013 105 103
f 977 1011 927
f 983 947 1012
f 983 104 947
f 104 1014 947
f 104 106 1014
f 1013 928 105
f 105 928 930
f 107 930 928
f 107 928 1015
f 33 1014 106
f 33 106 35
f 35 108 33
f 33 108 1016
f 1015 4 107
f 107 4 6
f 109 6 4
f 109 4 1017
f 1016 110 1018
f 108 110 1016
f 1017 150 109
f 109 150 152
f 111 152 150
f 111 150 1019
f 1018 112 1020
f 110 112 1018
f 113 1019 1021
f 113 111 1019
f 112 183 229
f 1022 112 229
f 1020 112 1022
f 183 114 229
f 1021 296 113
f 113 296 298
f 115 298 296
f 115 296 1023
f 229 181 1022
f 114 327 373
f 114 373 1024
f 229 114 1024
f 181 229 1024
f 327 116 373
f 117 1023 1025
f 117 115 1023
f 375 1026 1024
f 375 1024 373
f 373 116 375
f 375 116 118
f 119 1025 1027
f 119 117 1025
f 377 1028 1026
f 377 1026 375
f 375 118 377
f 377 118 120
f 491 121 438
f 121 1027 438
f 121 119 1027
f 1029 491 438
f 1028 377 328
f 122 1028 328
f 1030 1028 122
f 377 120 328
f 491 440 121
f 123 440 491
f 1029 123 491
f 1031 123 1029
f 184 124 1032
f 184 1032 182
f 182 1030 184
f 184 1030 122
f 1031 562 123
f 123 562 564
f 688 743 125
f 564 688 125
f 562 688 564
f 814 867 743
f 814 743 688
f 1033 867 814
f 36 126 1034
f 36 1034 34
f 34 1032 36
f 36 1032 124
f 743 690 125
f 690 743 816
f 816 743 867
f 1033 948 867
f 948 816 867
f 948 950 816
f 948 1034 950
f 950 1034 126
f 476 453 1035
f 600 577 476
f 476 577 453
f 724 703 600
f 600 703 577
f 848 829 724
f 724 829 703
f 848 1036 829
f 127 313 1037
f 1037 313 311
f 455 476 1035
f 311 455 1035
f 313 455 311
f 476 455 579
f 476 579 600
f 600 579 705
f 600 705 724
f 724 705 831
f 724 831 848
f 128 988 963
f 128 963 1036
f 831 128 1036
f 848 831 1036
f 988 1038 963
f 129 167 1039
f 1039 167 165
f 1037 165 167
f 1037 167 127
f 965 988 128
f 130 82 49
f 130 49 1038
f 965 130 1038
f 988 965 1038
f 82 1040 49
f 131 17 71
f 1041 71 17
f 129 1041 17
f 1039 1041 129
f 132 84 82
f 132 82 130
f 1040 82 1042
f 1042 82 84
f 73 133 71
f 71 133 131
f 71 1041 1043
f 71 1043 73
f 134 86 84
f 134 84 132
f 1042 84 1044
f 1044 84 86
f 73 18 133
f 135 18 73
f 1043 135 73
f 1045 135 1043
f 51 86 134
f 51 136 86
f 136 1044 86
f 136 1046 1044
f 137 1045 1047
f 137 135 1045
f 138 234 197
f 1046 138 197
f 136 138 1046
f 234 1048 197
f 1047 166 137
f 137 166 168
f 139 168 166
f 139 166 1049
f 199 234 138
f 140 378 341
f 140 341 1048
f 199 140 1048
f 234 199 1048
f 378 1050 341
f 141 1049 1051
f 141 139 1049
f 142 380 378
f 142 378 140
f 1050 378 1052
f 1052 378 380
f 367 143 312
f 143 1051 312
f 143 141 1051
f 1053 367 312
f 200 144 240
f 380 142 200
f 380 200 240
f 342 380 240
f 1054 342 240
f 1052 380 342
f 367 314 143
f 1053 454 367
f 454 314 367
f 454 456 314
f 145 456 454
f 145 454 1055
f 52 146 98
f 240 144 52
f 240 52 98
f 198 240 98
f 1056 198 98
f 1054 240 198
f 1055 578 145
f 145 578 580
f 704 580 578
f 704 706 580
f 830 706 704
f 830 832 706
f 964 832 830
f 964 966 832
f 146 966 98
f 966 50 98
f 966 964 50
f 1056 98 50
