# Converted from NanoShaper .vert/.face
v 17.438000 -12.170000 -18.084000
v 21.065000 -12.170000 -18.084000
v 17.108000 -12.170000 -17.584000
v 21.503000 -12.170000 -17.584000
v 16.998000 -12.170000 -17.084000
v 21.691000 -12.170000 -17.084000
v 16.841000 -12.170000 -16.584000
v 21.773000 -12.170000 -16.584000
v 16.788000 -12.170000 -16.084000
v 21.890000 -12.170000 -16.084000
v 16.898000 -12.170000 -15.584000
v 22.186000 -12.170000 -15.584000
v 17.125000 -12.170000 -15.084000
v 22.815000 -12.170000 -15.084000
v 17.271000 -12.170000 -14.584000
v 23.470000 -12.170000 -14.584000
v 17.396000 -12.170000 -14.084000
v 24.135000 -12.170000 -14.084000
v 17.510000 -12.170000 -13.584000
v 25.419000 -12.170000 -13.584000
v 17.611000 -12.170000 -13.084000
v 25.908000 -12.170000 -13.084000
v 17.944000 -12.170000 -12.584000
v 26.229000 -12.170000 -12.584000
v 18.411000 -12.170000 -12.084000
v 26.315000 -12.170000 -12.084000
v 20.187000 -12.170000 -11.584000
v 26.225000 -12.170000 -11.584000
v 20.813000 -12.170000 -11.084000
v 26.162000 -12.170000 -11.084000
v 21.112000 -12.170000 -10.584000
v 26.269000 -12.170000 -10.584000
v 21.217000 -12.170000 -10.084000
v 26.515000 -12.170000 -10.084000
v 21.274000 -12.170000 -9.584000
v 26.714000 -12.170000 -9.584000
v 21.243000 -12.170000 -9.084000
v 26.791000 -12.170000 -9.084000
v 21.355000 -12.170000 -8.584000
v 26.814000 -12.170000 -8.584000
v 21.786000 -12.170000 -8.084000
v 26.863000 -12.170000 -8.084000
v 22.221000 -12.170000 -7.584000
v 26.782000 -12.170000 -7.584000
v 22.394000 -12.170000 -7.084000
v 26.469000 -12.170000 -7.084000
v 22.789000 -12.170000 -6.584000
v 24.209000 -12.170000 -6.584000
v 16.939000 -12.170000 -16.860000
v 16.939000 -12.170000 -15.499000
v 17.439000 -12.170000 -18.085000
v 17.439000 -12.170000 -13.957000
v 17.939000 -12.170000 -18.397000
v 17.939000 -12.170000 -12.589000
v 18.439000 -12.170000 -18.481000
v 18.439000 -12.170000 -12.057000
v 18.939000 -12.170000 -18.500000
v 18.939000 -12.170000 -11.748000
v 19.439000 -12.170000 -18.496000
v 19.439000 -12.170000 -11.671000
v 19.939000 -12.170000 -18.462000
v 19.939000 -12.170000 -11.644000
v 20.439000 -12.170000 -18.370000
v 20.439000 -12.170000 -11.463000
v 20.939000 -12.170000 -18.162000
v 20.939000 -12.170000 -10.889000
v 21.439000 -12.170000 -17.698000
v 21.439000 -12.170000 -8.434000
v 21.939000 -12.170000 -15.963000
v 21.939000 -12.170000 -7.959000
v 22.439000 -12.170000 -15.357000
v 22.439000 -12.170000 -6.989000
v 22.939000 -12.170000 -14.977000
v 22.939000 -12.170000 -6.492000
v 23.439000 -12.170000 -14.616000
v 23.439000 -12.170000 -6.360000
v 23.939000 -12.170000 -14.179000
v 23.939000 -12.170000 -6.451000
v 24.439000 -12.170000 -13.999000
v 24.439000 -12.170000 -6.665000
v 24.939000 -12.170000 -13.894000
v 24.939000 -12.170000 -6.719000
v 25.439000 -12.170000 -13.564000
v 25.439000 -12.170000 -6.669000
v 25.939000 -12.170000 -13.053000
v 25.939000 -12.170000 -6.747000
v 26.439000 -12.170000 -10.236000
v 26.439000 -12.170000 -7.055000
v 16.939000 -14.771000 -16.584000
v 16.939000 -10.635000 -16.584000
v 17.439000 -15.132000 -16.584000
v 17.439000 -10.233000 -16.584000
v 17.939000 -15.280000 -16.584000
v 17.939000 -9.929000 -16.584000
v 18.439000 -15.366000 -16.584000
v 18.439000 -9.636000 -16.584000
v 18.939000 -15.345000 -16.584000
v 18.939000 -9.552000 -16.584000
v 19.439000 -15.339000 -16.584000
v 19.439000 -9.485000 -16.584000
v 19.939000 -15.333000 -16.584000
v 19.939000 -9.561000 -16.584000
v 20.439000 -15.238000 -16.584000
v 20.439000 -9.719000 -16.584000
v 20.939000 -14.905000 -16.584000
v 20.939000 -10.056000 -16.584000
v 21.439000 -13.461000 -16.584000
v 21.439000 -10.450000 -16.584000
v 18.439000 -12.845000 -12.584000
v 18.439000 -10.960000 -12.584000
v 18.939000 -13.127000 -12.584000
v 18.939000 -10.560000 -12.584000
v 19.439000 -13.205000 -12.584000
v 19.439000 -10.124000 -12.584000
v 19.939000 -13.089000 -12.584000
v 19.939000 -9.909000 -12.584000
v 20.439000 -12.923000 -12.584000
v 20.439000 -9.510000 -12.584000
v 20.939000 -12.905000 -12.584000
v 20.939000 -9.167000 -12.584000
v 21.439000 -12.957000 -12.584000
v 21.439000 -9.046000 -12.584000
v 21.939000 -12.947000 -12.584000
v 21.939000 -8.897000 -12.584000
v 22.439000 -12.962000 -12.584000
v 22.439000 -8.675000 -12.584000
v 22.939000 -13.060000 -12.584000
v 22.939000 -8.565000 -12.584000
v 23.439000 -13.237000 -12.584000
v 23.439000 -8.594000 -12.584000
v 23.939000 -13.342000 -12.584000
v 23.939000 -8.697000 -12.584000
v 24.439000 -13.337000 -12.584000
v 24.439000 -9.074000 -12.584000
v 24.939000 -13.277000 -12.584000
v 24.939000 -9.963000 -12.584000
v 25.439000 -13.154000 -12.584000
v 25.439000 -10.551000 -12.584000
v 25.939000 -12.788000 -12.584000
v 25.939000 -11.090000 -12.584000
v 21.439000 -12.284000 -8.584000
v 21.439000 -10.401000 -8.584000
v 21.939000 -12.656000 -8.584000
v 21.939000 -8.976000 -8.584000
v 22.439000 -12.761000 -8.584000
v 22.439000 -8.651000 -8.584000
v 22.939000 -12.787000 -8.584000
v 22.939000 -8.560000 -8.584000
v 23.439000 -12.933000 -8.584000
v 23.439000 -8.618000 -8.584000
v 23.939000 -13.214000 -8.584000
v 23.939000 -8.621000 -8.584000
v 24.439000 -13.321000 -8.584000
v 24.439000 -8.714000 -8.584000
v 24.939000 -13.289000 -8.584000
v 24.939000 -9.064000 -8.584000
v 25.439000 -13.308000 -8.584000
v 25.439000 -9.693000 -8.584000
v 25.939000 -13.215000 -8.584000
v 25.939000 -10.026000 -8.584000
v 26.439000 -12.877000 -8.584000
v 26.439000 -10.434000 -8.584000
v 17.439000 -11.670000 -18.084000
v 21.356000 -11.670000 -18.084000
v 17.118000 -11.670000 -17.584000
v 21.716000 -11.670000 -17.584000
v 16.951000 -11.670000 -17.084000
v 21.824000 -11.670000 -17.084000
v 16.701000 -11.670000 -16.584000
v 21.856000 -11.670000 -16.584000
v 16.602000 -11.670000 -16.084000
v 22.024000 -11.670000 -16.084000
v 16.691000 -11.670000 -15.584000
v 22.450000 -11.670000 -15.584000
v 16.954000 -11.670000 -15.084000
v 22.935000 -11.670000 -15.084000
v 17.086000 -11.670000 -14.584000
v 23.483000 -11.670000 -14.584000
v 17.200000 -11.670000 -14.084000
v 24.160000 -11.670000 -14.084000
v 17.452000 -11.670000 -13.584000
v 25.410000 -11.670000 -13.584000
v 17.619000 -11.670000 -13.084000
v 25.898000 -11.670000 -13.084000
v 17.956000 -11.670000 -12.584000
v 26.222000 -11.670000 -12.584000
v 18.392000 -11.670000 -12.084000
v 26.308000 -11.670000 -12.084000
v 19.777000 -11.670000 -11.584000
v 26.301000 -11.670000 -11.584000
v 20.572000 -11.670000 -11.084000
v 26.349000 -11.670000 -11.084000
v 20.885000 -11.670000 -10.584000
v 26.480000 -11.670000 -10.584000
v 21.016000 -11.670000 -10.084000
v 26.741000 -11.670000 -10.084000
v 21.077000 -11.670000 -9.584000
v 26.827000 -11.670000 -9.584000
v 21.063000 -11.670000 -9.084000
v 26.826000 -11.670000 -9.084000
v 21.160000 -11.670000 -8.584000
v 26.833000 -11.670000 -8.584000
v 21.498000 -11.670000 -8.084000
v 26.851000 -11.670000 -8.084000
v 21.973000 -11.670000 -7.584000
v 26.769000 -11.670000 -7.584000
v 22.183000 -11.670000 -7.084000
v 26.452000 -11.670000 -7.084000
v 22.490000 -11.670000 -6.584000
v 24.636000 -11.670000 -6.584000
v 16.939000 -11.670000 -17.057000
v 16.939000 -11.670000 -15.116000
v 17.439000 -11.670000 -18.084000
v 17.439000 -11.670000 -13.616000
v 17.939000 -11.670000 -18.410000
v 17.939000 -11.670000 -12.600000
v 18.439000 -11.670000 -18.502000
v 18.439000 -11.670000 -12.038000
v 18.939000 -11.670000 -18.465000
v 18.939000 -11.670000 -11.733000
v 19.439000 -11.670000 -18.486000
v 19.439000 -11.670000 -11.649000
v 19.939000 -11.670000 -18.464000
v 19.939000 -11.670000 -11.531000
v 20.439000 -11.670000 -18.429000
v 20.439000 -11.670000 -11.224000
v 20.939000 -11.670000 -18.336000
v 20.939000 -11.670000 -10.448000
v 21.439000 -11.670000 -18.005000
v 21.439000 -11.670000 -8.144000
v 21.939000 -11.670000 -16.270000
v 21.939000 -11.670000 -7.636000
v 22.439000 -11.670000 -15.595000
v 22.439000 -11.670000 -6.640000
v 22.939000 -11.670000 -15.080000
v 22.939000 -11.670000 -6.273000
v 23.439000 -11.670000 -14.629000
v 23.439000 -11.670000 -6.162000
v 23.939000 -11.670000 -14.193000
v 23.939000 -11.670000 -6.239000
v 24.439000 -11.670000 -13.999000
v 24.439000 -11.670000 -6.500000
v 24.939000 -11.670000 -13.887000
v 24.939000 -11.670000 -6.663000
v 25.439000 -11.670000 -13.555000
v 25.439000 -11.670000 -6.682000
v 25.939000 -11.670000 -13.043000
v 25.939000 -11.670000 -6.760000
v 26.439000 -11.670000 -10.685000
v 26.439000 -11.670000 -7.072000
v 16.939000 -14.119000 -16.084000
v 16.939000 -13.469000 -16.084000
v 16.939000 -12.548000 -16.084000
v 16.939000 -10.482000 -16.084000
v 17.439000 -14.908000 -16.084000
v 17.439000 -10.126000 -16.084000
v 17.939000 -15.192000 -16.084000
v 17.939000 -9.876000 -16.084000
v 18.439000 -15.287000 -16.084000
v 18.439000 -9.581000 -16.084000
v 18.939000 -15.249000 -16.084000
v 18.939000 -9.470000 -16.084000
v 19.439000 -15.228000 -16.084000
v 19.439000 -9.383000 -16.084000
v 19.939000 -15.226000 -16.084000
v 19.939000 -9.375000 -16.084000
v 20.439000 -15.122000 -16.084000
v 20.439000 -9.522000 -16.084000
v 20.939000 -14.743000 -16.084000
v 20.939000 -9.906000 -16.084000
v 21.439000 -13.906000 -16.084000
v 21.439000 -10.332000 -16.084000
v 21.939000 -12.012000 -16.084000
v 21.939000 -10.945000 -16.084000
v 18.439000 -12.252000 -12.084000
v 18.439000 -11.512000 -12.084000
v 18.939000 -12.799000 -12.084000
v 18.939000 -10.965000 -12.084000
v 19.439000 -12.904000 -12.084000
v 19.439000 -10.598000 -12.084000
v 19.939000 -12.767000 -12.084000
v 19.939000 -10.403000 -12.084000
v 20.439000 -12.676000 -12.084000
v 20.439000 -10.061000 -12.084000
v 20.939000 -12.705000 -12.084000
v 20.939000 -9.497000 -12.084000
v 21.439000 -12.773000 -12.084000
v 21.439000 -9.196000 -12.084000
v 21.939000 -12.815000 -12.084000
v 21.939000 -8.915000 -12.084000
v 22.439000 -12.823000 -12.084000
v 22.439000 -8.588000 -12.084000
v 22.939000 -12.911000 -12.084000
v 22.939000 -8.484000 -12.084000
v 23.439000 -13.141000 -12.084000
v 23.439000 -8.487000 -12.084000
v 23.939000 -13.282000 -12.084000
v 23.939000 -8.581000 -12.084000
v 24.439000 -13.324000 -12.084000
v 24.439000 -8.912000 -12.084000
v 24.939000 -13.339000 -12.084000
v 24.939000 -9.778000 -12.084000
v 25.439000 -13.245000 -12.084000
v 25.439000 -10.269000 -12.084000
v 25.939000 -12.914000 -12.084000
v 25.939000 -10.673000 -12.084000
v 21.939000 -12.299000 -8.084000
v 21.939000 -9.110000 -8.084000
v 22.439000 -12.578000 -8.084000
v 22.439000 -8.748000 -8.084000
v 22.939000 -12.783000 -8.084000
v 22.939000 -8.651000 -8.084000
v 23.439000 -12.908000 -8.084000
v 23.439000 -8.751000 -8.084000
v 23.939000 -13.099000 -8.084000
v 23.939000 -8.912000 -8.084000
v 24.439000 -13.228000 -8.084000
v 24.439000 -9.059000 -8.084000
v 24.939000 -13.288000 -8.084000
v 24.939000 -9.624000 -8.084000
v 25.439000 -13.353000 -8.084000
v 25.439000 -10.045000 -8.084000
v 25.939000 -13.276000 -8.084000
v 25.939000 -10.243000 -8.084000
v 26.439000 -12.974000 -8.084000
v 26.439000 -10.613000 -8.084000
v 17.566000 -15.170000 -17.584000
v 19.872000 -15.170000 -17.584000
v 17.307000 -15.170000 -17.084000
v 20.399000 -15.170000 -17.084000
v 17.544000 -15.170000 -16.584000
v 20.587000 -15.170000 -16.584000
v 17.887000 -15.170000 -16.084000
v 20.308000 -15.170000 -16.084000
v 18.317000 -15.170000 -15.584000
v 18.550000 -15.170000 -15.584000
v 17.447000 -11.170000 -18.084000
v 21.356000 -11.170000 -18.084000
v 17.141000 -11.170000 -17.584000
v 21.716000 -11.170000 -17.584000
v 16.978000 -11.170000 -17.084000
v 21.824000 -11.170000 -17.084000
v 16.701000 -11.170000 -16.584000
v 21.842000 -11.170000 -16.584000
v 16.602000 -11.170000 -16.084000
v 22.022000 -11.170000 -16.084000
v 16.690000 -11.170000 -15.584000
v 22.465000 -11.170000 -15.584000
v 16.953000 -11.170000 -15.084000
v 22.943000 -11.170000 -15.084000
v 17.084000 -11.170000 -14.584000
v 23.466000 -11.170000 -14.584000
v 17.199000 -11.170000 -14.084000
v 24.032000 -11.170000 -14.084000
v 17.538000 -11.170000 -13.584000
v 25.112000 -11.170000 -13.584000
v 17.842000 -11.170000 -13.084000
v 25.586000 -11.170000 -13.084000
v 18.240000 -11.170000 -12.584000
v 26.002000 -11.170000 -12.584000
v 18.658000 -11.170000 -12.084000
v 26.179000 -11.170000 -12.084000
v 19.932000 -11.170000 -11.584000
v 26.283000 -11.170000 -11.584000
v 20.571000 -11.170000 -11.084000
v 26.364000 -11.170000 -11.084000
v 20.888000 -11.170000 -10.584000
v 26.496000 -11.170000 -10.584000
v 21.015000 -11.170000 -10.084000
v 26.754000 -11.170000 -10.084000
v 21.042000 -11.170000 -9.584000
v 26.839000 -11.170000 -9.584000
v 21.070000 -11.170000 -9.084000
v 26.837000 -11.170000 -9.084000
v 21.173000 -11.170000 -8.584000
v 26.805000 -11.170000 -8.584000
v 21.515000 -11.170000 -8.084000
v 26.717000 -11.170000 -8.084000
v 21.968000 -11.170000 -7.584000
v 26.542000 -11.170000 -7.584000
v 22.181000 -11.170000 -7.084000
v 26.120000 -11.170000 -7.084000
v 22.487000 -11.170000 -6.584000
v 24.511000 -11.170000 -6.584000
v 17.439000 -15.170000 -17.461000
v 17.439000 -15.170000 -16.691000
v 17.939000 -15.170000 -17.704000
v 17.939000 -15.170000 -15.914000
v 18.439000 -15.170000 -17.750000
v 18.439000 -15.170000 -15.571000
v 18.939000 -15.170000 -17.667000
v 18.939000 -15.170000 -15.844000
v 19.439000 -15.170000 -17.741000
v 19.439000 -15.170000 -15.964000
v 19.939000 -15.170000 -17.522000
v 19.939000 -15.170000 -15.966000
v 20.439000 -15.170000 -17.040000
v 20.439000 -15.170000 -16.205000
v 16.939000 -11.170000 -17.007000
v 16.939000 -11.170000 -15.114000
v 17.439000 -11.170000 -18.076000
v 17.439000 -11.170000 -13.709000
v 17.939000 -11.170000 -18.416000
v 17.939000 -11.170000 -12.918000
v 18.439000 -11.170000 -18.512000
v 18.439000 -11.170000 -12.303000
v 18.939000 -11.170000 -18.474000
v 18.939000 -11.170000 -11.923000
v 19.439000 -11.170000 -18.496000
v 19.439000 -11.170000 -11.795000
v 19.939000 -11.170000 -18.461000
v 19.939000 -11.170000 -11.580000
v 20.439000 -11.170000 -18.427000
v 20.439000 -11.170000 -11.217000
v 20.939000 -11.170000 -18.336000
v 20.939000 -11.170000 -10.453000
v 21.439000 -11.170000 -18.005000
v 21.439000 -11.170000 -8.162000
v 21.939000 -11.170000 -16.251000
v 21.939000 -11.170000 -7.631000
v 22.439000 -11.170000 -15.609000
v 22.439000 -11.170000 -6.637000
v 22.939000 -11.170000 -15.088000
v 22.939000 -11.170000 -6.271000
v 23.439000 -11.170000 -14.612000
v 23.439000 -11.170000 -6.160000
v 23.939000 -11.170000 -14.141000
v 23.939000 -11.170000 -6.237000
v 24.439000 -11.170000 -13.924000
v 24.439000 -11.170000 -6.534000
v 24.939000 -11.170000 -13.706000
v 24.939000 -11.170000 -6.805000
v 25.439000 -11.170000 -13.236000
v 25.439000 -11.170000 -6.892000
v 25.939000 -11.170000 -12.705000
v 25.939000 -11.170000 -6.986000
v 26.439000 -11.170000 -10.730000
v 26.439000 -11.170000 -7.399000
v 16.939000 -12.246000 -15.584000
v 16.939000 -10.615000 -15.584000
v 17.439000 -14.713000 -15.584000
v 17.439000 -10.057000 -15.584000
v 17.939000 -15.078000 -15.584000
v 17.939000 -9.713000 -15.584000
v 18.439000 -15.175000 -15.584000
v 18.439000 -9.561000 -15.584000
v 18.939000 -15.073000 -15.584000
v 18.939000 -9.333000 -15.584000
v 19.439000 -14.911000 -15.584000
v 19.439000 -9.092000 -15.584000
v 19.939000 -14.878000 -15.584000
v 19.939000 -8.956000 -15.584000
v 20.439000 -14.734000 -15.584000
v 20.439000 -9.075000 -15.584000
v 20.939000 -14.389000 -15.584000
v 20.939000 -9.560000 -15.584000
v 21.439000 -13.973000 -15.584000
v 21.439000 -10.037000 -15.584000
v 21.939000 -13.064000 -15.584000
v 21.939000 -10.449000 -15.584000
v 22.439000 -11.705000 -15.584000
v 22.439000 -11.078000 -15.584000
v 19.939000 -11.993000 -11.584000
v 19.939000 -11.156000 -11.584000
v 20.439000 -12.304000 -11.584000
v 20.439000 -10.512000 -11.584000
v 20.939000 -12.536000 -11.584000
v 20.939000 -10.060000 -11.584000
v 21.439000 -12.742000 -11.584000
v 21.439000 -9.442000 -11.584000
v 21.939000 -12.832000 -11.584000
v 21.939000 -8.938000 -11.584000
v 22.439000 -12.796000 -11.584000
v 22.439000 -8.634000 -11.584000
v 22.939000 -12.856000 -11.584000
v 22.939000 -8.554000 -11.584000
v 23.439000 -12.999000 -11.584000
v 23.439000 -8.528000 -11.584000
v 23.939000 -13.263000 -11.584000
v 23.939000 -8.631000 -11.584000
v 24.439000 -13.355000 -11.584000
v 24.439000 -8.985000 -11.584000
v 24.939000 -13.277000 -11.584000
v 24.939000 -9.724000 -11.584000
v 25.439000 -13.140000 -11.584000
v 25.439000 -10.137000 -11.584000
v 25.939000 -12.770000 -11.584000
v 25.939000 -10.489000 -11.584000
v 21.939000 -10.782000 -7.584000
v 21.939000 -10.012000 -7.584000
v 22.439000 -12.392000 -7.584000
v 22.439000 -9.109000 -7.584000
v 22.939000 -12.714000 -7.584000
v 22.939000 -8.975000 -7.584000
v 23.439000 -12.822000 -7.584000
v 23.439000 -9.114000 -7.584000
v 23.939000 -12.884000 -7.584000
v 23.939000 -9.549000 -7.584000
v 24.439000 -13.071000 -7.584000
v 24.439000 -9.926000 -7.584000
v 24.939000 -13.187000 -7.584000
v 24.939000 -10.351000 -7.584000
v 25.439000 -13.273000 -7.584000
v 25.439000 -10.467000 -7.584000
v 25.939000 -13.191000 -7.584000
v 25.939000 -10.607000 -7.584000
v 26.439000 -12.861000 -7.584000
v 26.439000 -11.043000 -7.584000
v 17.320000 -14.670000 -18.084000
v 20.044000 -14.670000 -18.084000
v 16.869000 -14.670000 -17.584000
v 20.634000 -14.670000 -17.584000
v 16.754000 -14.670000 -17.084000
v 21.029000 -14.670000 -17.084000
v 16.861000 -14.670000 -16.584000
v 21.122000 -14.670000 -16.584000
v 17.197000 -14.670000 -16.084000
v 20.994000 -14.670000 -16.084000
v 17.404000 -14.670000 -15.584000
v 20.541000 -14.670000 -15.584000
v 17.891000 -14.670000 -15.084000
v 19.432000 -14.670000 -15.084000
v 17.715000 -10.670000 -18.084000
v 21.018000 -10.670000 -18.084000
v 17.333000 -10.670000 -17.584000
v 21.501000 -10.670000 -17.584000
v 17.191000 -10.670000 -17.084000
v 21.628000 -10.670000 -17.084000
v 16.914000 -10.670000 -16.584000
v 21.617000 -10.670000 -16.584000
v 16.797000 -10.670000 -16.084000
v 21.776000 -10.670000 -16.084000
v 16.901000 -10.670000 -15.584000
v 22.186000 -10.670000 -15.584000
v 17.054000 -10.670000 -15.084000
v 22.695000 -10.670000 -15.084000
v 17.162000 -10.670000 -14.584000
v 23.423000 -10.670000 -14.584000
v 17.408000 -10.670000 -14.084000
v 23.970000 -10.670000 -14.084000
v 17.823000 -10.670000 -13.584000
v 24.904000 -10.670000 -13.584000
v 18.292000 -10.670000 -13.084000
v 25.248000 -10.670000 -13.084000
v 18.801000 -10.670000 -12.584000
v 25.539000 -10.670000 -12.584000
v 19.333000 -10.670000 -12.084000
v 25.936000 -10.670000 -12.084000
v 20.244000 -10.670000 -11.584000
v 26.081000 -10.670000 -11.584000
v 20.832000 -10.670000 -11.084000
v 26.206000 -10.670000 -11.084000
v 21.047000 -10.670000 -10.584000
v 26.415000 -10.670000 -10.584000
v 21.083000 -10.670000 -10.084000
v 26.704000 -10.670000 -10.084000
v 21.034000 -10.670000 -9.584000
v 26.794000 -10.670000 -9.584000
v 21.129000 -10.670000 -9.084000
v 26.708000 -10.670000 -9.084000
v 21.368000 -10.670000 -8.584000
v 26.603000 -10.670000 -8.584000
v 21.580000 -10.670000 -8.084000
v 26.484000 -10.670000 -8.084000
v 21.920000 -10.670000 -7.584000
v 26.036000 -10.670000 -7.584000
v 22.322000 -10.670000 -7.084000
v 24.665000 -10.670000 -7.084000
v 22.778000 -10.670000 -6.584000
v 24.186000 -10.670000 -6.584000
v 16.939000 -14.670000 -17.711000
v 16.939000 -14.670000 -16.441000
v 17.439000 -14.670000 -18.148000
v 17.439000 -14.670000 -15.520000
v 17.939000 -14.670000 -18.257000
v 17.939000 -14.670000 -15.060000
v 18.439000 -14.670000 -18.308000
v 18.439000 -14.670000 -14.935000
v 18.939000 -14.670000 -18.250000
v 18.939000 -14.670000 -14.893000
v 19.439000 -14.670000 -18.251000
v 19.439000 -14.670000 -15.090000
v 19.939000 -14.670000 -18.140000
v 19.939000 -14.670000 -15.348000
v 20.439000 -14.670000 -17.737000
v 20.439000 -14.670000 -15.517000
v 20.939000 -14.670000 -17.258000
v 20.939000 -14.670000 -15.988000
v 16.939000 -10.670000 -16.634000
v 16.939000 -10.670000 -15.489000
v 17.439000 -10.670000 -17.787000
v 17.439000 -10.670000 -14.034000
v 17.939000 -10.670000 -18.220000
v 17.939000 -10.670000 -13.416000
v 18.439000 -10.670000 -18.333000
v 18.439000 -10.670000 -12.964000
v 18.939000 -10.670000 -18.401000
v 18.939000 -10.670000 -12.427000
v 19.439000 -10.670000 -18.478000
v 19.439000 -10.670000 -12.029000
v 19.939000 -10.670000 -18.375000
v 19.939000 -10.670000 -11.820000
v 20.439000 -10.670000 -18.242000
v 20.439000 -10.670000 -11.455000
v 20.939000 -10.670000 -18.124000
v 20.939000 -10.670000 -10.899000
v 21.439000 -10.670000 -17.692000
v 21.439000 -10.670000 -8.388000
v 21.939000 -10.670000 -15.844000
v 21.939000 -10.670000 -7.561000
v 22.439000 -10.670000 -15.338000
v 22.439000 -10.670000 -6.941000
v 22.939000 -10.670000 -14.915000
v 22.939000 -10.670000 -6.484000
v 23.439000 -10.670000 -14.568000
v 23.439000 -10.670000 -6.353000
v 23.939000 -10.670000 -14.103000
v 23.939000 -10.670000 -6.444000
v 24.439000 -10.670000 -13.892000
v 24.439000 -10.670000 -6.834000
v 24.939000 -10.670000 -13.548000
v 24.939000 -10.670000 -7.280000
v 25.439000 -10.670000 -12.737000
v 25.439000 -10.670000 -7.400000
v 25.939000 -10.670000 -12.079000
v 25.939000 -10.670000 -7.527000
v 26.439000 -10.670000 -10.545000
v 26.439000 -10.670000 -7.998000
v 17.439000 -13.436000 -15.084000
v 17.439000 -9.944000 -15.084000
v 17.939000 -14.701000 -15.084000
v 17.939000 -9.604000 -15.084000
v 18.439000 -14.837000 -15.084000
v 18.439000 -9.435000 -15.084000
v 18.939000 -14.781000 -15.084000
v 18.939000 -9.109000 -15.084000
v 19.439000 -14.667000 -15.084000
v 19.439000 -8.729000 -15.084000
v 19.939000 -14.489000 -15.084000
v 19.939000 -8.614000 -15.084000
v 20.439000 -14.343000 -15.084000
v 20.439000 -8.700000 -15.084000
v 20.939000 -14.184000 -15.084000
v 20.939000 -9.043000 -15.084000
v 21.439000 -13.854000 -15.084000
v 21.439000 -9.685000 -15.084000
v 21.939000 -13.305000 -15.084000
v 21.939000 -10.047000 -15.084000
v 22.439000 -12.750000 -15.084000
v 22.439000 -10.407000 -15.084000
v 22.939000 -11.655000 -15.084000
v 22.939000 -11.154000 -15.084000
v 20.939000 -12.312000 -11.084000
v 20.939000 -10.551000 -11.084000
v 21.439000 -12.659000 -11.084000
v 21.439000 -9.932000 -11.084000
v 21.939000 -12.767000 -11.084000
v 21.939000 -9.097000 -11.084000
v 22.439000 -12.801000 -11.084000
v 22.439000 -8.751000 -11.084000
v 22.939000 -12.866000 -11.084000
v 22.939000 -8.578000 -11.084000
v 23.439000 -13.009000 -11.084000
v 23.439000 -8.501000 -11.084000
v 23.939000 -13.265000 -11.084000
v 23.939000 -8.609000 -11.084000
v 24.439000 -13.342000 -11.084000
v 24.439000 -8.964000 -11.084000
v 24.939000 -13.234000 -11.084000
v 24.939000 -9.574000 -11.084000
v 25.439000 -13.061000 -11.084000
v 25.439000 -9.977000 -11.084000
v 25.939000 -12.662000 -11.084000
v 25.939000 -10.326000 -11.084000
v 22.439000 -12.231000 -7.084000
v 22.439000 -10.440000 -7.084000
v 22.939000 -12.623000 -7.084000
v 22.939000 -9.930000 -7.084000
v 23.439000 -12.739000 -7.084000
v 23.439000 -9.890000 -7.084000
v 23.939000 -12.700000 -7.084000
v 23.939000 -10.023000 -7.084000
v 24.439000 -12.724000 -7.084000
v 24.439000 -10.474000 -7.084000
v 24.939000 -12.842000 -7.084000
v 24.939000 -10.826000 -7.084000
v 25.439000 -12.965000 -7.084000
v 25.439000 -10.941000 -7.084000
v 25.939000 -12.856000 -7.084000
v 25.939000 -11.052000 -7.084000
v 26.439000 -12.279000 -7.084000
v 26.439000 -11.630000 -7.084000
v 16.997000 -14.170000 -18.084000
v 20.350000 -14.170000 -18.084000
v 16.655000 -14.170000 -17.584000
v 20.921000 -14.170000 -17.584000
v 16.558000 -14.170000 -17.084000
v 21.232000 -14.170000 -17.084000
v 16.648000 -14.170000 -16.584000
v 21.311000 -14.170000 -16.584000
v 16.950000 -14.170000 -16.084000
v 21.289000 -14.170000 -16.084000
v 17.166000 -14.170000 -15.584000
v 21.213000 -14.170000 -15.584000
v 17.517000 -14.170000 -15.084000
v 20.976000 -14.170000 -15.084000
v 18.272000 -14.170000 -14.584000
v 19.859000 -14.170000 -14.584000
v 18.802000 -10.170000 -18.084000
v 20.025000 -10.170000 -18.084000
v 17.920000 -10.170000 -17.584000
v 20.781000 -10.170000 -17.584000
v 17.739000 -10.170000 -17.084000
v 21.076000 -10.170000 -17.084000
v 17.561000 -10.170000 -16.584000
v 21.077000 -10.170000 -16.584000
v 17.347000 -10.170000 -16.084000
v 21.258000 -10.170000 -16.084000
v 17.318000 -10.170000 -15.584000
v 21.569000 -10.170000 -15.584000
v 17.265000 -10.170000 -15.084000
v 22.159000 -10.170000 -15.084000
v 17.365000 -10.170000 -14.584000
v 23.081000 -10.170000 -14.584000
v 17.770000 -10.170000 -14.084000
v 23.607000 -10.170000 -14.084000
v 18.262000 -10.170000 -13.584000
v 24.574000 -10.170000 -13.584000
v 18.788000 -10.170000 -13.084000
v 24.993000 -10.170000 -13.084000
v 19.366000 -10.170000 -12.584000
v 25.114000 -10.170000 -12.584000
v 20.314000 -10.170000 -12.084000
v 25.299000 -10.170000 -12.084000
v 20.861000 -10.170000 -11.584000
v 25.496000 -10.170000 -11.584000
v 21.262000 -10.170000 -11.084000
v 25.758000 -10.170000 -11.084000
v 21.394000 -10.170000 -10.584000
v 26.114000 -10.170000 -10.584000
v 21.311000 -10.170000 -10.084000
v 26.507000 -10.170000 -10.084000
v 21.212000 -10.170000 -9.584000
v 26.612000 -10.170000 -9.584000
v 21.318000 -10.170000 -9.084000
v 26.498000 -10.170000 -9.084000
v 21.485000 -10.170000 -8.584000
v 26.169000 -10.170000 -8.584000
v 21.601000 -10.170000 -8.084000
v 25.733000 -10.170000 -8.084000
v 21.906000 -10.170000 -7.584000
v 24.657000 -10.170000 -7.584000
v 22.615000 -10.170000 -7.084000
v 24.145000 -10.170000 -7.084000
v 16.939000 -14.170000 -18.027000
v 16.939000 -14.170000 -16.101000
v 17.439000 -14.170000 -18.361000
v 17.439000 -14.170000 -15.160000
v 17.939000 -14.170000 -18.454000
v 17.939000 -14.170000 -14.791000
v 18.439000 -14.170000 -18.506000
v 18.439000 -14.170000 -14.476000
v 18.939000 -14.170000 -18.455000
v 18.939000 -14.170000 -14.326000
v 19.439000 -14.170000 -18.432000
v 19.439000 -14.170000 -14.396000
v 19.939000 -14.170000 -18.336000
v 19.939000 -14.170000 -14.645000
v 20.439000 -14.170000 -17.998000
v 20.439000 -14.170000 -14.858000
v 20.939000 -14.170000 -17.566000
v 20.939000 -14.170000 -15.050000
v 17.439000 -10.170000 -16.400000
v 17.439000 -10.170000 -14.443000
v 17.939000 -10.170000 -17.605000
v 17.939000 -10.170000 -13.911000
v 18.439000 -10.170000 -17.887000
v 18.439000 -10.170000 -13.416000
v 18.939000 -10.170000 -18.157000
v 18.939000 -10.170000 -12.956000
v 19.439000 -10.170000 -18.260000
v 19.439000 -10.170000 -12.544000
v 19.939000 -10.170000 -18.133000
v 19.939000 -10.170000 -12.343000
v 20.439000 -10.170000 -17.794000
v 20.439000 -10.170000 -11.977000
v 20.939000 -10.170000 -17.444000
v 20.939000 -10.170000 -11.514000
v 21.439000 -10.170000 -15.777000
v 21.439000 -10.170000 -8.727000
v 21.939000 -10.170000 -15.205000
v 21.939000 -10.170000 -7.551000
v 22.439000 -10.170000 -14.911000
v 22.439000 -10.170000 -7.195000
v 22.939000 -10.170000 -14.664000
v 22.939000 -10.170000 -6.934000
v 23.439000 -10.170000 -14.241000
v 23.439000 -10.170000 -6.842000
v 23.939000 -10.170000 -13.865000
v 23.939000 -10.170000 -6.957000
v 24.439000 -10.170000 -13.662000
v 24.439000 -10.170000 -7.370000
v 24.939000 -10.170000 -13.193000
v 24.939000 -10.170000 -7.753000
v 25.439000 -10.170000 -11.720000
v 25.439000 -10.170000 -7.918000
v 25.939000 -10.170000 -10.779000
v 25.939000 -10.170000 -8.292000
v 26.439000 -10.170000 -10.214000
v 26.439000 -10.170000 -8.973000
v 17.439000 -12.492000 -14.584000
v 17.439000 -10.071000 -14.584000
v 17.939000 -13.848000 -14.584000
v 17.939000 -9.695000 -14.584000
v 18.439000 -14.297000 -14.584000
v 18.439000 -9.410000 -14.584000
v 18.939000 -14.445000 -14.584000
v 18.939000 -8.971000 -14.584000
v 19.439000 -14.334000 -14.584000
v 19.439000 -8.620000 -14.584000
v 19.939000 -14.138000 -14.584000
v 19.939000 -8.514000 -14.584000
v 20.439000 -13.973000 -14.584000
v 20.439000 -8.593000 -14.584000
v 20.939000 -13.897000 -14.584000
v 20.939000 -8.889000 -14.584000
v 21.439000 -13.703000 -14.584000
v 21.439000 -9.220000 -14.584000
v 21.939000 -13.384000 -14.584000
v 21.939000 -9.419000 -14.584000
v 22.439000 -13.116000 -14.584000
v 22.439000 -9.595000 -14.584000
v 22.939000 -12.862000 -14.584000
v 22.939000 -10.071000 -14.584000
v 23.439000 -12.282000 -14.584000
v 23.439000 -10.730000 -14.584000
v 20.939000 -11.856000 -10.584000
v 20.939000 -10.932000 -10.584000
v 21.439000 -12.480000 -10.584000
v 21.439000 -10.107000 -10.584000
v 21.939000 -12.722000 -10.584000
v 21.939000 -9.382000 -10.584000
v 22.439000 -12.810000 -10.584000
v 22.439000 -8.895000 -10.584000
v 22.939000 -12.824000 -10.584000
v 22.939000 -8.623000 -10.584000
v 23.439000 -13.000000 -10.584000
v 23.439000 -8.520000 -10.584000
v 23.939000 -13.275000 -10.584000
v 23.939000 -8.602000 -10.584000
v 24.439000 -13.355000 -10.584000
v 24.439000 -8.913000 -10.584000
v 24.939000 -13.277000 -10.584000
v 24.939000 -9.417000 -10.584000
v 25.439000 -13.157000 -10.584000
v 25.439000 -9.696000 -10.584000
v 25.939000 -12.815000 -10.584000
v 25.939000 -10.015000 -10.584000
v 26.439000 -11.804000 -10.584000
v 26.439000 -10.762000 -10.584000
v 22.939000 -12.284000 -6.584000
v 22.939000 -10.546000 -6.584000
v 23.439000 -12.439000 -6.584000
v 23.439000 -10.391000 -6.584000
v 23.939000 -12.333000 -6.584000
v 23.939000 -10.497000 -6.584000
v 24.439000 -11.996000 -6.584000
v 24.439000 -11.028000 -6.584000
v 16.996000 -13.670000 -18.084000
v 20.547000 -13.670000 -18.084000
v 16.655000 -13.670000 -17.584000
v 21.052000 -13.670000 -17.584000
v 16.557000 -13.670000 -17.084000
v 21.263000 -13.670000 -17.084000
v 16.648000 -13.670000 -16.584000
v 21.394000 -13.670000 -16.584000
v 16.922000 -13.670000 -16.084000
v 21.571000 -13.670000 -16.084000
v 17.129000 -13.670000 -15.584000
v 21.683000 -13.670000 -15.584000
v 17.463000 -13.670000 -15.084000
v 21.613000 -13.670000 -15.084000
v 17.823000 -13.670000 -14.584000
v 21.502000 -13.670000 -14.584000
v 18.142000 -13.670000 -14.084000
v 21.142000 -13.670000 -14.084000
v 18.459000 -13.670000 -13.584000
v 19.421000 -13.670000 -13.584000
v 19.194000 -9.670000 -17.584000
v 19.635000 -9.670000 -17.584000
v 18.598000 -9.670000 -17.084000
v 19.974000 -9.670000 -17.084000
v 18.352000 -9.670000 -16.584000
v 20.315000 -9.670000 -16.584000
v 18.244000 -9.670000 -16.084000
v 20.679000 -9.670000 -16.084000
v 18.045000 -9.670000 -15.584000
v 21.040000 -9.670000 -15.584000
v 17.798000 -9.670000 -15.084000
v 21.423000 -9.670000 -15.084000
v 17.995000 -9.670000 -14.584000
v 22.540000 -9.670000 -14.584000
v 18.324000 -9.670000 -14.084000
v 23.086000 -9.670000 -14.084000
v 18.726000 -9.670000 -13.584000
v 24.048000 -9.670000 -13.584000
v 19.279000 -9.670000 -13.084000
v 24.504000 -9.670000 -13.084000
v 20.276000 -9.670000 -12.584000
v 24.758000 -9.670000 -12.584000
v 20.758000 -9.670000 -12.084000
v 24.874000 -9.670000 -12.084000
v 21.219000 -9.670000 -11.584000
v 24.896000 -9.670000 -11.584000
v 21.609000 -9.670000 -11.084000
v 25.033000 -9.670000 -11.084000
v 21.751000 -9.670000 -10.584000
v 25.376000 -9.670000 -10.584000
v 21.749000 -9.670000 -10.084000
v 25.890000 -9.670000 -10.084000
v 21.594000 -9.670000 -9.584000
v 26.097000 -9.670000 -9.584000
v 21.576000 -9.670000 -9.084000
v 25.870000 -9.670000 -9.084000
v 21.565000 -9.670000 -8.584000
v 25.413000 -9.670000 -8.584000
v 21.658000 -9.670000 -8.084000
v 24.973000 -9.670000 -8.084000
v 21.993000 -9.670000 -7.584000
v 24.158000 -9.670000 -7.584000
v 16.939000 -13.670000 -18.028000
v 16.939000 -13.670000 -16.051000
v 17.439000 -13.670000 -18.361000
v 17.439000 -13.670000 -15.115000
v 17.939000 -13.670000 -18.459000
v 17.939000 -13.670000 -14.412000
v 18.439000 -13.670000 -18.515000
v 18.439000 -13.670000 -13.603000
v 18.939000 -13.670000 -18.468000
v 18.939000 -13.670000 -13.400000
v 19.439000 -13.670000 -18.449000
v 19.439000 -13.670000 -13.601000
v 19.939000 -13.670000 -18.369000
v 19.939000 -13.670000 -13.952000
v 20.439000 -13.670000 -18.152000
v 20.439000 -13.670000 -14.020000
v 20.939000 -13.670000 -17.740000
v 20.939000 -13.670000 -14.040000
v 21.439000 -13.670000 -16.450000
v 21.439000 -13.670000 -14.381000
v 17.939000 -9.670000 -15.471000
v 17.939000 -9.670000 -14.654000
v 18.439000 -9.670000 -16.924000
v 18.439000 -9.670000 -13.889000
v 18.939000 -9.670000 -17.338000
v 18.939000 -9.670000 -13.386000
v 19.439000 -9.670000 -17.633000
v 19.439000 -9.670000 -13.002000
v 19.939000 -9.670000 -17.175000
v 19.939000 -9.670000 -12.827000
v 20.439000 -9.670000 -16.454000
v 20.439000 -9.670000 -12.399000
v 20.939000 -9.670000 -15.715000
v 20.939000 -9.670000 -11.876000
v 21.439000 -9.670000 -15.069000
v 21.439000 -9.670000 -11.356000
v 21.939000 -9.670000 -14.797000
v 21.939000 -9.670000 -7.639000
v 22.439000 -9.670000 -14.643000
v 22.439000 -9.670000 -7.302000
v 22.939000 -9.670000 -14.204000
v 22.939000 -9.670000 -7.200000
v 23.439000 -9.670000 -13.836000
v 23.439000 -9.670000 -7.243000
v 23.939000 -9.670000 -13.644000
v 23.939000 -9.670000 -7.478000
v 24.439000 -9.670000 -13.196000
v 24.439000 -9.670000 -7.738000
v 24.939000 -9.670000 -11.330000
v 24.939000 -9.670000 -8.057000
v 25.439000 -9.670000 -10.516000
v 25.439000 -9.670000 -8.625000
v 25.939000 -9.670000 -10.032000
v 25.939000 -9.670000 -9.156000
v 17.439000 -14.754000 -18.084000
v 17.439000 -11.673000 -18.084000
v 17.939000 -14.890000 -18.084000
v 17.939000 -10.496000 -18.084000
v 18.439000 -14.939000 -18.084000
v 18.439000 -10.341000 -18.084000
v 18.939000 -14.875000 -18.084000
v 18.939000 -10.083000 -18.084000
v 19.439000 -14.895000 -18.084000
v 19.439000 -9.963000 -18.084000
v 19.939000 -14.748000 -18.084000
v 19.939000 -10.111000 -18.084000
v 20.439000 -13.858000 -18.084000
v 20.439000 -10.439000 -18.084000
v 20.939000 -12.461000 -18.084000
v 20.939000 -10.616000 -18.084000
v 17.439000 -12.277000 -14.084000
v 17.439000 -10.619000 -14.084000
v 17.939000 -13.481000 -14.084000
v 17.939000 -10.009000 -14.084000
v 18.439000 -13.859000 -14.084000
v 18.439000 -9.537000 -14.084000
v 18.939000 -13.983000 -14.084000
v 18.939000 -9.098000 -14.084000
v 19.439000 -13.928000 -14.084000
v 19.439000 -8.712000 -14.084000
v 19.939000 -13.775000 -14.084000
v 19.939000 -8.599000 -14.084000
v 20.439000 -13.701000 -14.084000
v 20.439000 -8.683000 -14.084000
v 20.939000 -13.688000 -14.084000
v 20.939000 -8.891000 -14.084000
v 21.439000 -13.582000 -14.084000
v 21.439000 -9.032000 -14.084000
v 21.939000 -13.399000 -14.084000
v 21.939000 -9.115000 -14.084000
v 22.439000 -13.291000 -14.084000
v 22.439000 -9.232000 -14.084000
v 22.939000 -13.190000 -14.084000
v 22.939000 -9.547000 -14.084000
v 23.439000 -12.875000 -14.084000
v 23.439000 -9.992000 -14.084000
v 23.939000 -12.430000 -14.084000
v 23.939000 -10.609000 -14.084000
v 21.439000 -12.437000 -10.084000
v 21.439000 -10.002000 -10.084000
v 21.939000 -12.740000 -10.084000
v 21.939000 -9.384000 -10.084000
v 22.439000 -12.818000 -10.084000
v 22.439000 -8.881000 -10.084000
v 22.939000 -12.812000 -10.084000
v 22.939000 -8.599000 -10.084000
v 23.439000 -12.961000 -10.084000
v 23.439000 -8.521000 -10.084000
v 23.939000 -13.234000 -10.084000
v 23.939000 -8.629000 -10.084000
v 24.439000 -13.327000 -10.084000
v 24.439000 -8.894000 -10.084000
v 24.939000 -13.346000 -10.084000
v 24.939000 -9.198000 -10.084000
v 25.439000 -13.270000 -10.084000
v 25.439000 -9.509000 -10.084000
v 25.939000 -12.986000 -10.084000
v 25.939000 -9.690000 -10.084000
v 26.439000 -12.287000 -10.084000
v 26.439000 -10.076000 -10.084000
v 17.274000 -13.170000 -18.084000
v 20.872000 -13.170000 -18.084000
v 16.866000 -13.170000 -17.584000
v 21.241000 -13.170000 -17.584000
v 16.749000 -13.170000 -17.084000
v 21.355000 -13.170000 -17.084000
v 16.806000 -13.170000 -16.584000
v 21.491000 -13.170000 -16.584000
v 16.980000 -13.170000 -16.084000
v 21.763000 -13.170000 -16.084000
v 17.110000 -13.170000 -15.584000
v 21.903000 -13.170000 -15.584000
v 17.411000 -13.170000 -15.084000
v 22.062000 -13.170000 -15.084000
v 17.638000 -13.170000 -14.584000
v 22.325000 -13.170000 -14.584000
v 17.726000 -13.170000 -14.084000
v 22.989000 -13.170000 -14.084000
v 17.853000 -13.170000 -13.584000
v 23.219000 -13.170000 -13.584000
v 18.292000 -13.170000 -13.084000
v 24.905000 -13.170000 -13.084000
v 19.087000 -13.170000 -12.584000
v 19.698000 -13.170000 -12.584000
v 23.256000 -13.170000 -12.584000
v 25.398000 -13.170000 -12.584000
v 23.509000 -13.170000 -12.084000
v 25.601000 -13.170000 -12.084000
v 23.740000 -13.170000 -11.584000
v 25.361000 -13.170000 -11.584000
v 23.725000 -13.170000 -11.084000
v 25.101000 -13.170000 -11.084000
v 23.711000 -13.170000 -10.584000
v 25.403000 -13.170000 -10.584000
v 23.797000 -13.170000 -10.084000
v 25.663000 -13.170000 -10.084000
v 23.848000 -13.170000 -9.584000
v 25.930000 -13.170000 -9.584000
v 23.888000 -13.170000 -9.084000
v 26.104000 -13.170000 -9.084000
v 23.843000 -13.170000 -8.584000
v 26.042000 -13.170000 -8.584000
v 24.135000 -13.170000 -8.084000
v 26.174000 -13.170000 -8.084000
v 24.791000 -13.170000 -7.584000
v 25.993000 -13.170000 -7.584000
v 19.263000 -9.170000 -15.584000
v 20.580000 -9.170000 -15.584000
v 18.870000 -9.170000 -15.084000
v 21.041000 -9.170000 -15.084000
v 18.748000 -9.170000 -14.584000
v 21.349000 -9.170000 -14.584000
v 18.868000 -9.170000 -14.084000
v 22.274000 -9.170000 -14.084000
v 19.297000 -9.170000 -13.584000
v 22.829000 -9.170000 -13.584000
v 20.540000 -9.170000 -13.084000
v 24.049000 -9.170000 -13.084000
v 20.932000 -9.170000 -12.584000
v 24.510000 -9.170000 -12.584000
v 21.496000 -9.170000 -12.084000
v 24.636000 -9.170000 -12.084000
v 21.706000 -9.170000 -11.584000
v 24.586000 -9.170000 -11.584000
v 21.878000 -9.170000 -11.084000
v 24.599000 -9.170000 -11.084000
v 22.095000 -9.170000 -10.584000
v 24.685000 -9.170000 -10.584000
v 22.089000 -9.170000 -10.084000
v 24.889000 -9.170000 -10.084000
v 21.883000 -9.170000 -9.584000
v 25.114000 -9.170000 -9.584000
v 21.788000 -9.170000 -9.084000
v 25.141000 -9.170000 -9.084000
v 21.779000 -9.170000 -8.584000
v 25.024000 -9.170000 -8.584000
v 21.890000 -9.170000 -8.084000
v 24.601000 -9.170000 -8.084000
v 22.346000 -9.170000 -7.584000
v 23.523000 -9.170000 -7.584000
v 16.939000 -13.170000 -17.717000
v 16.939000 -13.170000 -16.225000
v 17.439000 -13.170000 -18.200000
v 17.439000 -13.170000 -15.039000
v 17.939000 -13.170000 -18.414000
v 17.939000 -13.170000 -13.437000
v 18.439000 -13.170000 -18.504000
v 18.439000 -13.170000 -12.992000
v 18.939000 -13.170000 -18.475000
v 18.939000 -13.170000 -12.678000
v 19.439000 -13.170000 -18.451000
v 19.439000 -13.170000 -12.494000
v 19.939000 -13.170000 -18.422000
v 19.939000 -13.170000 -12.816000
v 20.439000 -13.170000 -18.334000
v 20.439000 -13.170000 -12.955000
v 20.939000 -13.170000 -18.023000
v 20.939000 -13.170000 -13.006000
v 21.439000 -13.170000 -16.712000
v 21.439000 -13.170000 -12.946000
v 21.939000 -13.170000 -15.454000
v 21.939000 -13.170000 -13.000000
v 22.439000 -13.170000 -14.451000
v 22.439000 -13.170000 -12.940000
v 22.939000 -13.170000 -14.136000
v 22.939000 -13.170000 -12.914000
v 23.439000 -13.170000 -13.305000
v 23.439000 -13.170000 -12.163000
v 23.939000 -13.170000 -13.243000
v 23.939000 -13.170000 -8.282000
v 24.439000 -13.170000 -13.268000
v 24.439000 -13.170000 -7.877000
v 24.939000 -13.170000 -13.050000
v 24.939000 -13.170000 -7.544000
v 25.439000 -13.170000 -12.541000
v 25.439000 -13.170000 -11.670000
v 25.439000 -13.170000 -10.548000
v 25.439000 -13.170000 -7.359000
v 25.939000 -13.170000 -9.574000
v 25.939000 -13.170000 -7.531000
v 18.939000 -9.170000 -15.197000
v 18.939000 -9.170000 -13.965000
v 19.439000 -9.170000 -15.684000
v 19.439000 -9.170000 -13.492000
v 19.939000 -9.170000 -15.800000
v 19.939000 -9.170000 -13.349000
v 20.439000 -9.170000 -15.661000
v 20.439000 -9.170000 -13.156000
v 20.939000 -9.170000 -15.254000
v 20.939000 -9.170000 -12.578000
v 21.439000 -9.170000 -14.478000
v 21.439000 -9.170000 -12.172000
v 21.939000 -9.170000 -14.213000
v 21.939000 -9.170000 -10.976000
v 21.939000 -9.170000 -9.698000
v 21.939000 -9.170000 -7.993000
v 22.439000 -9.170000 -13.895000
v 22.439000 -9.170000 -7.535000
v 22.939000 -9.170000 -13.514000
v 22.939000 -9.170000 -7.423000
v 23.439000 -9.170000 -13.302000
v 23.439000 -9.170000 -7.539000
v 23.939000 -9.170000 -13.151000
v 23.939000 -9.170000 -7.835000
v 24.439000 -9.170000 -12.707000
v 24.439000 -9.170000 -7.994000
v 24.939000 -9.170000 -10.012000
v 24.939000 -9.170000 -8.427000
v 16.939000 -14.761000 -17.584000
v 16.939000 -13.047000 -17.584000
v 17.439000 -15.125000 -17.584000
v 17.439000 -10.526000 -17.584000
v 17.939000 -15.223000 -17.584000
v 17.939000 -10.162000 -17.584000
v 18.439000 -15.239000 -17.584000
v 18.439000 -9.998000 -17.584000
v 18.939000 -15.205000 -17.584000
v 18.939000 -9.740000 -17.584000
v 19.439000 -15.247000 -17.584000
v 19.439000 -9.652000 -17.584000
v 19.939000 -15.144000 -17.584000
v 19.939000 -9.760000 -17.584000
v 20.439000 -14.830000 -17.584000
v 20.439000 -10.052000 -17.584000
v 20.939000 -14.078000 -17.584000
v 20.939000 -10.223000 -17.584000
v 21.439000 -12.282000 -17.584000
v 21.439000 -10.590000 -17.584000
v 17.939000 -13.288000 -13.584000
v 17.939000 -10.536000 -13.584000
v 18.439000 -13.662000 -13.584000
v 18.439000 -10.000000 -13.584000
v 18.939000 -13.763000 -13.584000
v 18.939000 -9.482000 -13.584000
v 19.439000 -13.663000 -13.584000
v 19.439000 -9.069000 -13.584000
v 19.939000 -13.453000 -13.584000
v 19.939000 -8.914000 -13.584000
v 20.439000 -13.413000 -13.584000
v 20.439000 -8.933000 -13.584000
v 20.939000 -13.396000 -13.584000
v 20.939000 -8.977000 -13.584000
v 21.439000 -13.362000 -13.584000
v 21.439000 -8.974000 -13.584000
v 21.939000 -13.312000 -13.584000
v 21.939000 -9.027000 -13.584000
v 22.439000 -13.351000 -13.584000
v 22.439000 -9.087000 -13.584000
v 22.939000 -13.270000 -13.584000
v 22.939000 -9.209000 -13.584000
v 23.439000 -13.096000 -13.584000
v 23.439000 -9.396000 -13.584000
v 23.939000 -12.959000 -13.584000
v 23.939000 -9.585000 -13.584000
v 24.439000 -12.937000 -13.584000
v 24.439000 -10.073000 -13.584000
v 24.939000 -12.807000 -13.584000
v 24.939000 -10.806000 -13.584000
v 21.439000 -12.379000 -9.584000
v 21.439000 -9.874000 -9.584000
v 21.939000 -12.710000 -9.584000
v 21.939000 -9.095000 -9.584000
v 22.439000 -12.800000 -9.584000
v 22.439000 -8.711000 -9.584000
v 22.939000 -12.793000 -9.584000
v 22.939000 -8.567000 -9.584000
v 23.439000 -12.942000 -9.584000
v 23.439000 -8.497000 -9.584000
v 23.939000 -13.206000 -9.584000
v 23.939000 -8.584000 -9.584000
v 24.439000 -13.295000 -9.584000
v 24.439000 -8.734000 -9.584000
v 24.939000 -13.352000 -9.584000
v 24.939000 -9.048000 -9.584000
v 25.439000 -13.296000 -9.584000
v 25.439000 -9.392000 -9.584000
v 25.939000 -13.166000 -9.584000
v 25.939000 -9.594000 -9.584000
v 26.439000 -12.783000 -9.584000
v 26.439000 -9.940000 -9.584000
v 17.434000 -12.670000 -18.084000
v 20.909000 -12.670000 -18.084000
v 17.082000 -12.670000 -17.584000
v 21.301000 -12.670000 -17.584000
v 16.962000 -12.670000 -17.084000
v 21.500000 -12.670000 -17.084000
v 16.888000 -12.670000 -16.584000
v 21.638000 -12.670000 -16.584000
v 16.968000 -12.670000 -16.084000
v 21.779000 -12.670000 -16.084000
v 17.077000 -12.670000 -15.584000
v 22.037000 -12.670000 -15.584000
v 17.293000 -12.670000 -15.084000
v 22.510000 -12.670000 -15.084000
v 17.501000 -12.670000 -14.584000
v 23.200000 -12.670000 -14.584000
v 17.553000 -12.670000 -14.084000
v 23.686000 -12.670000 -14.084000
v 17.648000 -12.670000 -13.584000
v 25.127000 -12.670000 -13.584000
v 17.812000 -12.670000 -13.084000
v 25.623000 -12.670000 -13.084000
v 18.234000 -12.670000 -12.584000
v 26.028000 -12.670000 -12.584000
v 18.741000 -12.670000 -12.084000
v 26.128000 -12.670000 -12.084000
v 21.250000 -12.670000 -11.584000
v 26.014000 -12.670000 -11.584000
v 21.467000 -12.670000 -11.084000
v 25.933000 -12.670000 -11.084000
v 21.808000 -12.670000 -10.584000
v 26.052000 -12.670000 -10.584000
v 21.772000 -12.670000 -10.084000
v 26.232000 -12.670000 -10.084000
v 21.845000 -12.670000 -9.584000
v 26.520000 -12.670000 -9.584000
v 21.753000 -12.670000 -9.084000
v 26.612000 -12.670000 -9.084000
v 21.972000 -12.670000 -8.584000
v 26.602000 -12.670000 -8.584000
v 22.646000 -12.670000 -8.084000
v 26.683000 -12.670000 -8.084000
v 22.841000 -12.670000 -7.584000
v 26.589000 -12.670000 -7.584000
v 23.059000 -12.670000 -7.084000
v 26.196000 -12.670000 -7.084000
v 19.596000 -8.670000 -15.084000
v 20.353000 -8.670000 -15.084000
v 19.331000 -8.670000 -14.584000
v 20.617000 -8.670000 -14.584000
v 19.545000 -8.670000 -14.084000
v 20.403000 -8.670000 -14.084000
v 22.452000 -8.670000 -12.584000
v 23.871000 -8.670000 -12.584000
v 22.270000 -8.670000 -12.084000
v 24.126000 -8.670000 -12.084000
v 22.347000 -8.670000 -11.584000
v 24.025000 -8.670000 -11.584000
v 22.662000 -8.670000 -11.084000
v 24.065000 -8.670000 -11.084000
v 22.835000 -8.670000 -10.584000
v 24.097000 -8.670000 -10.584000
v 22.770000 -8.670000 -10.084000
v 24.029000 -8.670000 -10.084000
v 22.544000 -8.670000 -9.584000
v 24.250000 -8.670000 -9.584000
v 22.339000 -8.670000 -9.084000
v 24.547000 -8.670000 -9.084000
v 22.392000 -8.670000 -8.584000
v 24.309000 -8.670000 -8.584000
v 22.711000 -8.670000 -8.084000
v 23.159000 -8.670000 -8.084000
v 16.939000 -12.670000 -16.970000
v 16.939000 -12.670000 -16.211000
v 17.439000 -12.670000 -18.089000
v 17.439000 -12.670000 -14.790000
v 17.939000 -12.670000 -18.400000
v 17.939000 -12.670000 -12.870000
v 18.439000 -12.670000 -18.481000
v 18.439000 -12.670000 -12.381000
v 18.939000 -12.670000 -18.498000
v 18.939000 -12.670000 -11.976000
v 19.439000 -12.670000 -18.446000
v 19.439000 -12.670000 -11.884000
v 19.939000 -12.670000 -18.456000
v 19.939000 -12.670000 -11.983000
v 20.439000 -12.670000 -18.357000
v 20.439000 -12.670000 -12.074000
v 20.939000 -12.670000 -18.059000
v 20.939000 -12.670000 -11.971000
v 21.439000 -12.670000 -17.260000
v 21.439000 -12.670000 -11.114000
v 21.939000 -12.670000 -15.734000
v 21.939000 -12.670000 -8.618000
v 22.439000 -12.670000 -15.143000
v 22.439000 -12.670000 -8.322000
v 22.939000 -12.670000 -14.747000
v 22.939000 -12.670000 -7.239000
v 23.439000 -12.670000 -14.341000
v 23.439000 -12.670000 -6.919000
v 23.939000 -12.670000 -13.923000
v 23.939000 -12.670000 -7.029000
v 24.439000 -12.670000 -13.800000
v 24.439000 -12.670000 -7.029000
v 24.939000 -12.670000 -13.691000
v 24.939000 -12.670000 -6.950000
v 25.439000 -12.670000 -13.272000
v 25.439000 -12.670000 -6.850000
v 25.939000 -12.670000 -12.751000
v 25.939000 -12.670000 -11.254000
v 25.939000 -12.670000 -11.004000
v 25.939000 -12.670000 -6.940000
v 26.439000 -12.670000 -9.745000
v 26.439000 -12.670000 -7.325000
v 19.439000 -8.670000 -14.921000
v 19.439000 -8.670000 -14.207000
v 19.939000 -8.670000 -15.206000
v 19.939000 -8.670000 -13.922000
v 20.439000 -8.670000 -15.009000
v 20.439000 -8.670000 -14.119000
v 22.439000 -8.670000 -12.570000
v 22.439000 -8.670000 -11.323000
v 22.439000 -8.670000 -9.460000
v 22.439000 -8.670000 -8.358000
v 22.939000 -8.670000 -12.812000
v 22.939000 -8.670000 -8.036000
v 23.439000 -8.670000 -12.739000
v 23.439000 -8.670000 -8.322000
v 23.939000 -8.670000 -12.521000
v 23.939000 -8.670000 -8.467000
v 24.439000 -8.670000 -9.402000
v 24.439000 -8.670000 -8.718000
v 16.939000 -14.903000 -17.084000
v 16.939000 -12.752000 -17.084000
v 17.439000 -15.228000 -17.084000
v 17.439000 -10.391000 -17.084000
v 17.939000 -15.319000 -17.084000
v 17.939000 -10.023000 -17.084000
v 18.439000 -15.316000 -17.084000
v 18.439000 -9.717000 -17.084000
v 18.939000 -15.300000 -17.084000
v 18.939000 -9.618000 -17.084000
v 19.439000 -15.353000 -17.084000
v 19.439000 -9.557000 -17.084000
v 19.939000 -15.279000 -17.084000
v 19.939000 -9.655000 -17.084000
v 20.439000 -15.154000 -17.084000
v 20.439000 -9.926000 -17.084000
v 20.939000 -14.789000 -17.084000
v 20.939000 -10.109000 -17.084000
v 21.439000 -12.834000 -17.084000
v 21.439000 -10.433000 -17.084000
v 17.939000 -12.833000 -13.084000
v 17.939000 -11.038000 -13.084000
v 18.439000 -13.269000 -13.084000
v 18.439000 -10.546000 -13.084000
v 18.939000 -13.427000 -13.084000
v 18.939000 -10.033000 -13.084000
v 19.439000 -13.380000 -13.084000
v 19.439000 -9.555000 -13.084000
v 19.939000 -13.253000 -13.084000
v 19.939000 -9.397000 -13.084000
v 20.439000 -13.232000 -13.084000
v 20.439000 -9.212000 -13.084000
v 20.939000 -13.203000 -13.084000
v 20.939000 -9.044000 -13.084000
v 21.439000 -13.228000 -13.084000
v 21.439000 -8.971000 -13.084000
v 21.939000 -13.204000 -13.084000
v 21.939000 -8.978000 -13.084000
v 22.439000 -13.241000 -13.084000
v 22.439000 -8.907000 -13.084000
v 22.939000 -13.210000 -13.084000
v 22.939000 -8.871000 -13.084000
v 23.439000 -13.208000 -13.084000
v 23.439000 -8.945000 -13.084000
v 23.939000 -13.244000 -13.084000
v 23.939000 -9.094000 -13.084000
v 24.439000 -13.253000 -13.084000
v 24.439000 -9.582000 -13.084000
v 24.939000 -13.157000 -13.084000
v 24.939000 -10.101000 -13.084000
v 25.439000 -12.840000 -13.084000
v 25.439000 -10.995000 -13.084000
v 21.439000 -12.426000 -9.084000
v 21.439000 -9.948000 -9.084000
v 21.939000 -12.759000 -9.084000
v 21.939000 -8.973000 -9.084000
v 22.439000 -12.854000 -9.084000
v 22.439000 -8.624000 -9.084000
v 22.939000 -12.832000 -9.084000
v 22.939000 -8.520000 -9.084000
v 23.439000 -12.943000 -9.084000
v 23.439000 -8.559000 -9.084000
v 23.939000 -13.190000 -9.084000
v 23.939000 -8.538000 -9.084000
v 24.439000 -13.278000 -9.084000
v 24.439000 -8.625000 -9.084000
v 24.939000 -13.328000 -9.084000
v 24.939000 -8.943000 -9.084000
v 25.439000 -13.355000 -9.084000
v 25.439000 -9.436000 -9.084000
v 25.939000 -13.251000 -9.084000
v 25.939000 -9.698000 -9.084000
v 26.439000 -12.903000 -9.084000
v 26.439000 -10.088000 -9.084000
f 572 515 89
f 756 699 572
f 572 699 515
f 251 877 756
f 877 699 756
f 877 875 699
f 1132 1057 252
f 1057 877 252
f 1057 875 877
f 1344 1277 1132
f 1132 1277 1057
f 253 9 1344
f 9 1277 1344
f 9 7 1277
f 9 169 7
f 171 169 9
f 171 343 169
f 345 343 171
f 345 529 343
f 531 529 345
f 531 254 529
f 529 254 90
f 572 89 517
f 89 255 517
f 89 91 255
f 572 517 701
f 572 701 756
f 251 756 701
f 1059 1132 252
f 1132 1059 1279
f 1132 1279 1344
f 253 1344 1279
f 254 717 773
f 92 254 773
f 90 254 92
f 717 256 773
f 257 333 93
f 93 333 331
f 91 331 333
f 91 333 255
f 773 715 92
f 773 256 715
f 256 94 715
f 256 258 94
f 259 93 95
f 259 257 93
f 893 94 258
f 893 258 895
f 895 260 893
f 893 260 96
f 261 95 97
f 261 259 95
f 96 262 98
f 260 262 96
f 263 97 99
f 263 261 97
f 98 264 100
f 262 264 98
f 265 99 101
f 265 263 99
f 100 266 102
f 264 266 100
f 334 265 398
f 265 103 398
f 265 101 103
f 267 334 398
f 894 961 104
f 894 102 961
f 102 268 961
f 102 266 268
f 332 398 103
f 267 398 332
f 105 267 332
f 269 267 105
f 104 961 896
f 270 104 896
f 106 104 270
f 961 268 896
f 105 516 269
f 269 516 518
f 700 518 516
f 700 702 518
f 876 949 271
f 702 876 271
f 700 876 702
f 107 949 876
f 718 272 108
f 718 108 716
f 716 106 718
f 718 106 270
f 949 878 271
f 107 1058 949
f 1058 878 949
f 1058 1060 878
f 1278 1060 1058
f 1278 1280 1060
f 8 1280 1278
f 8 10 1280
f 170 231 273
f 10 170 273
f 8 170 10
f 344 419 231
f 344 231 170
f 532 274 419
f 344 532 419
f 530 532 344
f 530 108 532
f 532 108 272
f 231 172 273
f 172 231 346
f 346 231 419
f 419 274 346
f 1350 1293 109
f 275 25 1350
f 25 1293 1350
f 25 23 1293
f 25 185 23
f 187 185 25
f 406 359 276
f 359 187 276
f 359 185 187
f 406 110 359
f 1350 109 1295
f 109 277 1295
f 109 111 277
f 275 1350 1295
f 361 406 276
f 278 598 545
f 278 545 110
f 361 278 110
f 406 361 110
f 598 112 545
f 1142 1073 113
f 111 1073 1142
f 279 111 1142
f 277 111 279
f 547 598 278
f 280 782 731
f 280 731 112
f 547 280 112
f 598 547 112
f 782 114 731
f 1074 1142 113
f 279 1142 1074
f 115 279 1074
f 281 279 115
f 282 784 782
f 282 782 280
f 114 782 116
f 116 782 784
f 283 115 117
f 283 281 115
f 733 784 282
f 284 962 909
f 284 909 116
f 733 284 116
f 784 733 116
f 962 118 909
f 285 117 119
f 285 283 117
f 911 962 284
f 286 1180 1109
f 286 1109 118
f 911 286 118
f 962 911 118
f 1180 120 1109
f 287 119 121
f 287 285 119
f 288 1182 1180
f 288 1180 286
f 120 1180 122
f 122 1180 1182
f 289 121 123
f 289 287 121
f 1111 1182 288
f 1111 290 1182
f 290 122 1182
f 290 124 122
f 291 123 125
f 291 289 123
f 290 1325 1391
f 126 290 1391
f 124 290 126
f 1325 292 1391
f 293 125 127
f 293 291 125
f 1391 1323 126
f 1391 292 1323
f 292 128 1323
f 292 294 128
f 1158 1075 129
f 127 1075 1158
f 295 127 1158
f 293 127 295
f 128 296 130
f 294 296 128
f 1158 129 1077
f 129 297 1077
f 129 131 297
f 295 1158 1077
f 1324 1399 132
f 1324 130 1399
f 130 298 1399
f 130 296 298
f 299 131 133
f 299 297 131
f 132 1399 1326
f 300 132 1326
f 134 132 300
f 1399 298 1326
f 301 133 135
f 301 299 133
f 912 302 136
f 912 136 910
f 1110 912 910
f 1110 1112 912
f 1110 134 1112
f 1112 134 300
f 1165 303 1076
f 303 135 1076
f 303 301 135
f 137 1165 1076
f 734 304 138
f 734 138 732
f 732 136 734
f 734 136 302
f 1165 1078 303
f 305 1078 1165
f 137 305 1165
f 139 305 137
f 548 306 140
f 548 140 546
f 546 138 548
f 548 138 304
f 139 1294 305
f 305 1294 1296
f 24 1296 1294
f 24 26 1296
f 186 26 24
f 186 188 26
f 360 188 186
f 360 362 188
f 360 140 362
f 362 140 306
f 68 39 141
f 230 201 68
f 68 201 39
f 418 375 230
f 230 375 201
f 608 561 418
f 418 561 375
f 608 142 561
f 68 141 41
f 141 307 41
f 141 143 307
f 68 41 203
f 68 203 230
f 230 203 377
f 230 377 418
f 418 377 563
f 418 563 608
f 747 142 608
f 563 747 608
f 749 747 563
f 749 925 747
f 927 925 749
f 927 1125 925
f 1127 1125 927
f 1127 308 1125
f 1125 308 144
f 1366 1309 145
f 143 1309 1366
f 309 143 1366
f 307 143 309
f 310 1394 1339
f 144 310 1339
f 308 310 144
f 1394 146 1339
f 1366 145 1311
f 145 311 1311
f 145 147 311
f 309 1366 1311
f 1341 1394 310
f 1341 312 1394
f 312 146 1394
f 312 148 146
f 313 147 149
f 313 311 147
f 1342 314 1398
f 1398 150 1342
f 150 312 1342
f 150 148 312
f 1160 1091 151
f 149 1091 1160
f 315 149 1160
f 313 149 315
f 316 1400 1398
f 316 1398 314
f 150 1398 152
f 152 1398 1400
f 1160 151 1093
f 151 317 1093
f 151 153 317
f 315 1160 1093
f 154 1340 1400
f 316 154 1400
f 318 154 316
f 152 1400 1340
f 319 153 155
f 319 317 153
f 1128 320 1198
f 1198 156 1128
f 156 318 1128
f 156 154 318
f 321 155 157
f 321 319 155
f 928 322 158
f 928 158 926
f 320 928 1198
f 928 1126 1198
f 928 926 1126
f 156 1198 1126
f 323 157 159
f 323 321 157
f 750 324 808
f 808 160 750
f 160 322 750
f 160 158 322
f 159 1092 323
f 323 1092 1094
f 325 1094 1092
f 325 1092 161
f 162 748 808
f 324 162 808
f 326 162 324
f 160 808 748
f 161 1310 325
f 325 1310 1312
f 40 1312 1310
f 40 42 1312
f 202 42 40
f 202 204 42
f 376 204 202
f 376 378 204
f 562 378 376
f 562 564 378
f 562 162 564
f 564 162 326
f 932 877 251
f 932 252 877
f 439 11 253
f 253 11 9
f 11 171 9
f 173 171 11
f 173 345 171
f 347 345 173
f 347 531 345
f 533 531 347
f 533 440 531
f 531 440 254
f 441 519 255
f 255 519 517
f 519 701 517
f 703 701 519
f 879 932 251
f 701 879 251
f 703 879 701
f 1059 252 932
f 879 1059 932
f 1061 1059 879
f 1061 1279 1059
f 1281 1279 1061
f 253 1279 1281
f 253 1281 439
f 717 254 440
f 717 440 719
f 719 442 717
f 717 442 256
f 388 333 257
f 255 333 388
f 443 255 388
f 441 255 443
f 256 444 258
f 442 444 256
f 388 257 335
f 257 445 335
f 257 259 445
f 443 388 335
f 895 258 444
f 895 444 897
f 897 446 895
f 895 446 260
f 336 445 392
f 445 261 392
f 445 259 261
f 447 336 392
f 260 448 262
f 446 448 260
f 263 394 261
f 261 394 392
f 447 392 394
f 447 394 449
f 448 1097 1173
f 264 448 1173
f 262 448 264
f 1097 450 1173
f 265 396 263
f 263 396 394
f 449 394 396
f 449 396 451
f 1175 266 264
f 1175 264 1173
f 1173 450 1175
f 1175 450 452
f 334 396 265
f 451 396 334
f 267 451 334
f 453 451 267
f 1177 268 266
f 1177 266 1175
f 1175 452 1177
f 1177 452 454
f 520 453 588
f 453 269 588
f 453 267 269
f 455 520 588
f 896 963 270
f 1177 1098 268
f 268 1098 896
f 1098 456 896
f 456 963 896
f 1177 454 1098
f 518 588 269
f 588 518 455
f 518 704 455
f 518 702 704
f 457 704 702
f 457 702 271
f 718 789 272
f 963 898 270
f 270 898 718
f 898 458 718
f 458 789 718
f 963 456 898
f 271 878 457
f 457 878 880
f 1060 880 878
f 1060 1062 880
f 1280 1363 459
f 1062 1280 459
f 1060 1280 1062
f 10 69 1363
f 10 1363 1280
f 273 69 10
f 532 609 274
f 789 720 272
f 272 720 532
f 720 460 532
f 460 609 532
f 789 458 720
f 1363 1282 459
f 1282 1363 12
f 12 1363 69
f 233 461 172
f 172 461 273
f 461 12 273
f 12 69 273
f 346 421 233
f 346 233 172
f 609 534 274
f 274 534 346
f 534 462 346
f 462 421 346
f 609 460 534
f 233 174 461
f 174 233 348
f 348 233 421
f 421 462 348
f 56 25 275
f 218 187 56
f 56 187 25
f 218 276 187
f 1352 1295 277
f 1295 1352 275
f 1352 56 275
f 1352 58 56
f 220 56 58
f 218 56 220
f 276 218 361
f 218 408 361
f 218 220 408
f 408 278 361
f 279 1354 277
f 277 1354 1352
f 60 1352 1354
f 58 1352 60
f 222 58 60
f 220 58 222
f 410 220 222
f 408 220 410
f 278 408 547
f 408 600 547
f 408 410 600
f 600 280 547
f 281 1356 279
f 279 1356 1354
f 62 1354 1356
f 60 1354 62
f 62 463 189
f 222 62 189
f 60 62 222
f 222 189 363
f 222 363 410
f 410 363 464
f 602 410 464
f 600 410 602
f 280 600 282
f 282 600 602
f 283 1358 281
f 281 1358 1356
f 1358 465 27
f 62 1358 27
f 1356 1358 62
f 463 62 27
f 549 602 464
f 466 786 733
f 466 733 282
f 549 466 282
f 602 549 282
f 786 284 733
f 285 1360 283
f 283 1360 1358
f 465 1358 1360
f 465 1360 467
f 735 786 466
f 468 964 911
f 468 911 284
f 735 468 284
f 786 735 284
f 964 286 911
f 1360 285 1297
f 285 469 1297
f 285 287 469
f 467 1360 1297
f 913 964 468
f 913 470 964
f 470 286 964
f 470 288 286
f 471 287 289
f 471 469 287
f 1111 288 470
f 1111 470 1113
f 1113 472 1111
f 1111 472 290
f 473 289 291
f 473 471 289
f 1325 290 472
f 1325 472 1327
f 1327 474 1325
f 1325 474 292
f 475 291 293
f 475 473 291
f 292 476 294
f 474 476 292
f 477 293 295
f 477 475 293
f 294 478 296
f 476 478 294
f 479 1079 297
f 297 1079 1077
f 295 1077 1079
f 295 1079 477
f 296 480 298
f 478 480 296
f 481 297 299
f 481 479 297
f 1328 482 300
f 1328 300 1326
f 1326 298 1328
f 1328 298 480
f 483 299 301
f 483 481 299
f 914 484 302
f 914 302 912
f 1112 914 912
f 1112 1114 914
f 1112 300 1114
f 1114 300 482
f 1080 483 1166
f 483 303 1166
f 483 301 303
f 485 1080 1166
f 734 805 304
f 734 302 805
f 302 486 805
f 302 484 486
f 1078 1166 303
f 485 1166 1078
f 305 485 1078
f 487 485 305
f 548 625 306
f 805 736 304
f 304 736 548
f 736 488 548
f 488 625 548
f 805 486 736
f 305 1296 487
f 487 1296 1298
f 26 1298 1296
f 26 28 1298
f 188 28 26
f 188 190 28
f 362 190 188
f 362 364 190
f 625 550 306
f 550 362 306
f 550 364 362
f 625 488 550
f 70 41 307
f 232 203 70
f 70 203 41
f 420 377 232
f 232 377 203
f 489 565 420
f 565 377 420
f 565 563 377
f 565 749 563
f 751 749 565
f 968 927 490
f 927 751 490
f 927 749 751
f 1186 1127 968
f 968 1127 927
f 1186 308 1127
f 70 307 43
f 307 491 43
f 307 309 491
f 70 43 205
f 70 205 232
f 232 205 379
f 232 379 420
f 489 420 379
f 929 968 490
f 968 929 1129
f 968 1129 1186
f 1129 492 1186
f 492 308 1186
f 492 310 308
f 493 1313 311
f 311 1313 1311
f 309 1311 1313
f 309 1313 491
f 494 1396 1341
f 310 494 1341
f 492 494 310
f 1396 312 1341
f 495 311 313
f 495 493 311
f 314 1342 1396
f 494 314 1396
f 496 314 494
f 312 1396 1342
f 497 313 315
f 497 495 313
f 1130 498 1194
f 1194 316 1130
f 316 496 1130
f 316 314 496
f 1162 1093 317
f 315 1093 1162
f 499 315 1162
f 497 315 499
f 930 500 978
f 1194 498 930
f 978 1194 930
f 1196 1194 978
f 316 1194 318
f 318 1194 1196
f 1162 317 1095
f 317 501 1095
f 317 319 501
f 499 1162 1095
f 752 502 804
f 978 500 752
f 804 978 752
f 980 978 804
f 1128 1196 320
f 1196 980 320
f 1196 978 980
f 318 1196 1128
f 503 319 321
f 503 501 319
f 504 806 804
f 504 804 502
f 928 980 322
f 980 806 322
f 980 804 806
f 320 980 928
f 505 321 323
f 505 503 321
f 324 750 806
f 504 324 806
f 506 324 504
f 322 806 750
f 323 1094 505
f 505 1094 1096
f 507 1096 1094
f 507 1094 325
f 566 508 628
f 628 326 566
f 326 506 566
f 326 324 506
f 325 1312 507
f 507 1312 1314
f 42 1314 1312
f 42 44 1314
f 204 44 42
f 204 206 44
f 378 206 204
f 378 380 206
f 508 380 628
f 380 564 628
f 380 378 564
f 326 628 564
f 50 11 439
f 212 173 50
f 50 173 11
f 400 347 212
f 212 347 173
f 590 533 400
f 400 533 347
f 590 440 533
f 574 519 441
f 758 703 574
f 574 703 519
f 934 879 758
f 758 879 703
f 629 1063 934
f 1063 879 934
f 1063 1061 879
f 1063 1281 1061
f 1283 1281 1063
f 13 50 439
f 1281 13 439
f 1283 13 1281
f 50 13 175
f 50 175 212
f 212 175 349
f 212 349 400
f 400 349 535
f 400 535 590
f 719 440 590
f 535 719 590
f 721 719 535
f 721 630 719
f 719 630 442
f 574 441 521
f 441 631 521
f 441 443 631
f 574 521 705
f 574 705 758
f 758 705 881
f 758 881 934
f 629 934 881
f 630 899 951
f 444 630 951
f 442 630 444
f 899 632 951
f 390 335 445
f 443 335 390
f 633 443 390
f 631 443 633
f 951 897 444
f 951 632 897
f 632 446 897
f 632 634 446
f 336 390 445
f 633 390 336
f 447 633 336
f 635 633 447
f 634 1099 1171
f 448 634 1171
f 446 634 448
f 1099 636 1171
f 522 635 582
f 635 449 582
f 635 447 449
f 637 522 582
f 1171 1097 448
f 1171 636 1097
f 636 450 1097
f 636 638 450
f 451 584 449
f 449 584 582
f 637 582 584
f 637 584 639
f 638 1317 1387
f 452 638 1387
f 450 638 452
f 1317 640 1387
f 453 586 451
f 451 586 584
f 639 584 586
f 639 586 641
f 452 1387 1318
f 642 452 1318
f 454 452 642
f 1387 640 1318
f 520 586 453
f 641 586 520
f 455 641 520
f 643 641 455
f 1098 1179 456
f 1098 454 1179
f 454 644 1179
f 454 642 644
f 455 704 643
f 643 704 706
f 645 706 704
f 645 704 457
f 900 646 458
f 900 458 898
f 1179 1100 456
f 1100 898 456
f 1100 900 898
f 1179 644 1100
f 457 880 645
f 645 880 882
f 1062 1151 647
f 882 1062 647
f 880 1062 882
f 459 1151 1062
f 720 791 460
f 720 458 791
f 458 648 791
f 458 646 648
f 1151 1064 647
f 1365 649 1282
f 1282 649 459
f 649 1064 459
f 1064 1151 459
f 12 71 1365
f 12 1365 1282
f 461 71 12
f 534 611 462
f 791 722 460
f 460 722 534
f 722 650 534
f 650 611 534
f 791 648 722
f 1365 1284 649
f 1284 1365 14
f 14 1365 71
f 461 174 71
f 174 14 71
f 174 176 14
f 348 423 651
f 176 348 651
f 174 348 176
f 611 536 462
f 462 536 348
f 536 652 348
f 652 423 348
f 611 650 536
f 423 350 651
f 423 652 350
f 224 189 463
f 412 363 224
f 224 363 189
f 412 464 363
f 64 27 465
f 27 64 463
f 64 224 463
f 64 226 224
f 414 224 226
f 412 224 414
f 464 412 549
f 412 604 549
f 412 414 604
f 604 466 549
f 64 465 29
f 465 653 29
f 465 467 653
f 64 29 191
f 64 191 226
f 226 191 365
f 226 365 414
f 414 365 551
f 414 551 604
f 654 788 735
f 654 735 466
f 551 654 466
f 604 551 466
f 788 468 735
f 1362 1297 469
f 467 1297 1362
f 655 467 1362
f 653 467 655
f 737 788 654
f 656 966 913
f 656 913 468
f 737 656 468
f 788 737 468
f 966 470 913
f 1362 469 1299
f 469 657 1299
f 469 471 657
f 655 1362 1299
f 915 966 656
f 1113 470 966
f 915 1113 966
f 1115 1113 915
f 1115 658 1113
f 1113 658 472
f 659 471 473
f 659 657 471
f 660 1392 1327
f 472 660 1327
f 658 660 472
f 1392 474 1327
f 661 473 475
f 661 659 473
f 1329 1392 660
f 1329 662 1392
f 662 474 1392
f 662 476 474
f 663 475 477
f 663 661 475
f 476 664 478
f 662 664 476
f 665 1081 479
f 479 1081 1079
f 477 1079 1081
f 477 1081 663
f 478 666 480
f 664 666 478
f 667 479 481
f 667 665 479
f 1330 668 482
f 1330 482 1328
f 1328 480 1330
f 1330 480 666
f 669 481 483
f 669 667 481
f 914 979 484
f 1116 670 979
f 914 1116 979
f 1114 1116 914
f 1114 482 1116
f 1116 482 668
f 483 1080 669
f 669 1080 1082
f 671 1082 1080
f 671 1080 485
f 484 979 916
f 672 484 916
f 486 484 672
f 979 670 916
f 1300 671 1380
f 671 487 1380
f 671 485 487
f 673 1300 1380
f 738 674 488
f 738 488 736
f 736 486 738
f 738 486 672
f 1298 1380 487
f 1380 1298 673
f 1298 30 673
f 1298 28 30
f 190 30 28
f 190 192 30
f 364 192 190
f 364 366 192
f 550 366 364
f 550 552 366
f 550 488 552
f 552 488 674
f 610 565 489
f 792 751 610
f 610 751 565
f 792 490 751
f 675 45 491
f 491 45 43
f 45 205 43
f 207 205 45
f 207 379 205
f 381 379 207
f 567 610 489
f 379 567 489
f 381 567 379
f 610 567 676
f 794 610 676
f 792 610 794
f 490 792 929
f 792 970 929
f 792 794 970
f 1188 1129 970
f 970 1129 929
f 1188 492 1129
f 1368 1313 493
f 491 1313 1368
f 677 491 1368
f 675 491 677
f 753 794 676
f 794 753 678
f 972 794 678
f 970 794 972
f 1190 970 972
f 1188 970 1190
f 492 1188 494
f 494 1188 1190
f 1368 493 1315
f 493 679 1315
f 493 495 679
f 677 1368 1315
f 680 974 972
f 680 972 678
f 1192 972 974
f 1190 972 1192
f 494 1190 496
f 496 1190 1192
f 681 495 497
f 681 679 495
f 682 976 974
f 682 974 680
f 1130 1192 498
f 1192 976 498
f 1192 974 976
f 496 1192 1130
f 683 497 499
f 683 681 497
f 754 684 802
f 976 682 754
f 976 754 802
f 930 976 802
f 500 930 802
f 498 976 930
f 1164 1095 501
f 499 1095 1164
f 685 499 1164
f 683 499 685
f 568 686 622
f 802 684 568
f 802 568 622
f 752 802 622
f 502 752 622
f 500 802 752
f 503 1168 501
f 501 1168 1164
f 685 1164 1168
f 685 1168 687
f 688 624 622
f 688 622 686
f 502 622 504
f 504 622 624
f 505 1170 503
f 503 1170 1168
f 687 1168 1170
f 687 1170 689
f 690 626 624
f 690 624 688
f 504 624 506
f 506 624 626
f 1096 1170 505
f 1316 689 1384
f 1384 689 507
f 689 1170 507
f 1170 1096 507
f 691 1316 1384
f 382 692 438
f 626 690 382
f 626 382 438
f 566 626 438
f 508 566 438
f 506 626 566
f 1314 1384 507
f 1384 1314 691
f 1314 46 691
f 1314 44 46
f 206 46 44
f 206 208 46
f 692 208 438
f 208 380 438
f 208 206 380
f 508 438 380
f 1134 1063 629
f 1346 1283 1134
f 1134 1283 1063
f 811 15 1346
f 15 1283 1346
f 15 13 1283
f 15 175 13
f 177 175 15
f 177 349 175
f 351 349 177
f 351 535 349
f 537 535 351
f 537 721 535
f 723 721 537
f 723 812 721
f 721 812 630
f 576 521 631
f 760 705 576
f 576 705 521
f 813 883 760
f 883 705 760
f 883 881 705
f 1065 1134 629
f 881 1065 629
f 883 1065 881
f 1134 1065 1285
f 1134 1285 1346
f 811 1346 1285
f 814 952 899
f 630 814 899
f 812 814 630
f 952 632 899
f 633 578 631
f 631 578 576
f 578 815 707
f 760 578 707
f 576 578 760
f 813 760 707
f 901 952 814
f 901 816 952
f 816 632 952
f 816 634 632
f 635 580 633
f 633 580 578
f 815 578 580
f 815 580 817
f 1099 634 816
f 1099 816 1101
f 1101 818 1099
f 1099 818 636
f 522 580 635
f 817 580 522
f 637 817 522
f 819 817 637
f 818 1319 1385
f 638 818 1385
f 636 818 638
f 1319 820 1385
f 708 819 768
f 819 639 768
f 819 637 639
f 821 708 768
f 1385 1317 638
f 1385 820 1317
f 820 640 1317
f 820 822 640
f 641 770 639
f 639 770 768
f 821 768 770
f 821 770 823
f 1318 1389 642
f 1318 640 1389
f 640 824 1389
f 640 822 824
f 643 772 641
f 641 772 770
f 823 770 772
f 823 772 825
f 642 1389 1320
f 826 642 1320
f 644 642 826
f 1389 824 1320
f 706 772 643
f 825 772 706
f 645 825 706
f 827 825 645
f 900 965 646
f 1102 828 965
f 900 1102 965
f 1100 1102 900
f 1100 644 1102
f 1102 644 826
f 645 882 827
f 827 882 884
f 829 884 882
f 829 882 647
f 967 648 646
f 967 646 965
f 965 828 967
f 967 828 830
f 647 1064 829
f 829 1064 1066
f 831 1066 1064
f 831 1064 649
f 722 793 650
f 793 722 648
f 967 793 648
f 969 793 967
f 967 830 969
f 969 830 832
f 1367 833 1284
f 833 649 1284
f 833 831 649
f 14 73 1367
f 14 1367 1284
f 176 235 73
f 176 73 14
f 651 235 176
f 536 613 652
f 613 536 650
f 793 613 650
f 795 613 793
f 834 795 902
f 795 969 902
f 795 793 969
f 969 832 902
f 1367 1286 833
f 1286 1367 835
f 1367 75 835
f 1367 73 75
f 73 237 75
f 73 235 237
f 235 651 350
f 425 235 350
f 237 235 425
f 613 538 652
f 652 538 350
f 538 836 350
f 836 425 350
f 538 613 724
f 724 613 795
f 795 834 724
f 75 16 835
f 16 75 178
f 178 75 237
f 178 237 352
f 352 237 425
f 425 836 352
f 66 29 653
f 837 193 66
f 193 29 66
f 193 191 29
f 193 365 191
f 367 365 193
f 606 551 838
f 551 367 838
f 551 365 367
f 606 654 551
f 66 653 31
f 653 839 31
f 653 655 839
f 837 66 31
f 553 606 838
f 737 654 606
f 553 737 606
f 739 737 553
f 739 840 737
f 737 840 656
f 841 1301 657
f 657 1301 1299
f 655 1299 1301
f 655 1301 839
f 915 656 840
f 915 840 917
f 1184 1115 842
f 1115 917 842
f 1115 915 917
f 1184 658 1115
f 843 657 659
f 843 841 657
f 1117 1184 842
f 1117 844 1184
f 844 658 1184
f 844 660 658
f 845 659 661
f 845 843 659
f 1329 660 844
f 1329 844 1331
f 1331 846 1329
f 1329 846 662
f 847 661 663
f 847 845 661
f 662 848 664
f 846 848 662
f 849 1083 665
f 665 1083 1081
f 663 1081 1083
f 663 1083 847
f 664 850 666
f 848 850 664
f 851 665 667
f 851 849 665
f 1332 852 668
f 1332 668 1330
f 1330 666 1332
f 1332 666 850
f 853 667 669
f 853 851 667
f 1118 854 670
f 1118 670 1116
f 1116 668 1118
f 1118 668 852
f 669 1082 853
f 853 1082 1084
f 855 1084 1082
f 855 1082 671
f 918 856 672
f 918 672 916
f 916 670 918
f 918 670 854
f 1381 857 1300
f 857 671 1300
f 857 855 671
f 673 1381 1300
f 738 807 674
f 738 672 807
f 672 858 807
f 672 856 858
f 1381 1302 857
f 673 30 1381
f 30 1302 1381
f 30 32 1302
f 192 249 859
f 32 192 859
f 30 192 32
f 366 437 249
f 366 249 192
f 554 860 437
f 366 554 437
f 552 554 366
f 807 740 674
f 740 552 674
f 740 554 552
f 807 858 740
f 249 194 859
f 194 249 368
f 368 249 437
f 437 860 368
f 72 45 675
f 234 207 72
f 72 207 45
f 422 381 234
f 234 381 207
f 612 567 422
f 422 567 381
f 612 676 567
f 72 675 47
f 675 861 47
f 675 677 861
f 72 47 209
f 72 209 234
f 234 209 383
f 234 383 422
f 422 383 569
f 422 569 612
f 862 796 753
f 862 753 676
f 569 862 676
f 612 569 676
f 796 678 753
f 1370 1315 679
f 677 1315 1370
f 863 677 1370
f 861 677 863
f 864 798 796
f 864 796 862
f 678 796 680
f 680 796 798
f 681 1372 679
f 679 1372 1370
f 863 1370 1372
f 863 1372 865
f 866 800 798
f 866 798 864
f 680 798 682
f 682 798 800
f 683 1374 681
f 681 1374 1372
f 80 48 865
f 1372 80 865
f 1374 80 1372
f 867 48 80
f 570 868 620
f 800 866 570
f 800 570 620
f 754 800 620
f 684 754 620
f 682 800 754
f 685 1376 683
f 683 1376 1374
f 82 1374 1376
f 80 1374 82
f 244 210 867
f 80 244 867
f 82 244 80
f 210 244 432
f 210 432 384
f 620 868 384
f 620 384 432
f 568 620 432
f 686 568 432
f 684 620 568
f 687 1378 685
f 685 1378 1376
f 84 1376 1378
f 82 1376 84
f 246 82 84
f 244 82 246
f 434 244 246
f 432 244 434
f 686 432 688
f 688 432 434
f 689 1382 687
f 687 1382 1378
f 86 1378 1382
f 84 1378 86
f 248 84 86
f 246 84 248
f 436 246 248
f 434 246 436
f 688 434 690
f 690 434 436
f 1316 1382 689
f 691 88 1316
f 88 1382 1316
f 88 86 1382
f 250 86 88
f 248 86 250
f 382 436 692
f 436 250 692
f 436 248 250
f 690 436 382
f 46 88 691
f 208 250 46
f 46 250 88
f 692 250 208
f 985 509 573
f 573 509 757
f 757 509 693
f 757 693 933
f 933 693 869
f 933 869 1133
f 1133 869 1051
f 1133 1051 1345
f 1345 1051 1271
f 1345 1271 51
f 51 1271 1
f 1 986 51
f 575 987 573
f 573 987 985
f 573 759 575
f 573 757 759
f 757 935 759
f 757 933 935
f 933 1135 935
f 933 1133 1135
f 1133 1347 1135
f 1133 1345 1347
f 1345 53 1347
f 1345 51 53
f 163 215 986
f 215 51 986
f 215 53 51
f 215 163 403
f 403 163 337
f 403 337 593
f 593 337 523
f 523 988 593
f 577 989 575
f 575 989 987
f 575 761 577
f 575 759 761
f 759 937 761
f 759 935 937
f 935 1137 937
f 935 1135 1137
f 1135 1349 1137
f 1135 1347 1349
f 1347 55 1349
f 1347 53 55
f 53 217 55
f 53 215 217
f 215 405 217
f 215 403 405
f 403 595 405
f 403 593 595
f 593 988 595
f 595 988 990
f 579 991 577
f 577 991 989
f 577 763 579
f 577 761 763
f 761 939 763
f 761 937 939
f 937 1139 939
f 937 1137 1139
f 1137 1351 1139
f 1137 1349 1351
f 1349 57 1351
f 1349 55 57
f 55 219 57
f 55 217 219
f 217 407 219
f 217 405 407
f 405 597 407
f 405 595 597
f 709 779 990
f 779 595 990
f 779 597 595
f 709 992 779
f 581 993 579
f 579 993 991
f 579 765 581
f 579 763 765
f 763 941 765
f 763 939 941
f 939 1141 941
f 939 1139 1141
f 1139 1353 1141
f 1139 1351 1353
f 1351 59 1353
f 1351 57 59
f 57 221 59
f 57 219 221
f 219 409 221
f 219 407 409
f 407 599 409
f 407 597 599
f 597 781 599
f 597 779 781
f 779 992 781
f 781 992 994
f 583 995 581
f 581 995 993
f 581 767 583
f 581 765 767
f 765 943 767
f 765 941 943
f 941 1143 943
f 941 1141 1143
f 1141 1355 1143
f 1141 1353 1355
f 1353 61 1355
f 1353 59 61
f 59 223 61
f 59 221 223
f 221 411 223
f 221 409 411
f 409 601 411
f 409 599 601
f 599 783 601
f 599 781 783
f 781 994 783
f 783 994 996
f 583 510 995
f 510 583 694
f 694 583 767
f 694 767 997
f 767 945 997
f 767 943 945
f 943 1145 945
f 943 1143 1145
f 1143 1357 1145
f 1143 1355 1357
f 1355 63 1357
f 1355 61 63
f 61 225 63
f 61 223 225
f 223 413 225
f 223 411 413
f 411 603 413
f 411 601 603
f 998 603 710
f 603 783 710
f 603 601 783
f 783 996 710
f 945 870 997
f 870 945 1052
f 1052 945 1145
f 1052 1145 1272
f 1272 1145 1357
f 1272 1357 999
f 1357 65 999
f 1357 63 65
f 63 227 65
f 63 225 227
f 225 415 227
f 225 413 415
f 413 605 415
f 413 603 605
f 603 998 605
f 605 998 1000
f 65 2 999
f 2 65 164
f 164 65 227
f 164 227 338
f 338 227 415
f 338 415 524
f 524 415 605
f 605 1000 524
f 1001 17 811
f 811 17 15
f 17 177 15
f 179 177 17
f 179 351 177
f 353 351 179
f 353 537 351
f 539 537 353
f 774 723 1002
f 723 539 1002
f 723 537 539
f 774 812 723
f 936 883 813
f 1003 1067 936
f 1067 883 936
f 1067 1065 883
f 1067 1285 1065
f 1287 1285 1067
f 811 1285 1287
f 811 1287 1001
f 725 774 1002
f 725 1004 774
f 1004 812 774
f 1004 814 812
f 762 707 815
f 885 936 813
f 885 813 707
f 1005 885 707
f 762 1005 707
f 1003 936 885
f 901 814 1004
f 901 1004 903
f 903 1006 901
f 901 1006 816
f 817 764 815
f 815 764 762
f 1005 762 764
f 1005 764 1007
f 1101 816 1006
f 1101 1006 1103
f 1103 1008 1101
f 1101 1008 818
f 819 766 817
f 817 766 764
f 1007 764 766
f 1007 766 1009
f 1010 1386 1319
f 818 1010 1319
f 1008 1010 818
f 1386 820 1319
f 708 766 819
f 1009 766 708
f 821 1009 708
f 1011 1009 821
f 1321 1386 1010
f 1321 1012 1386
f 1012 820 1386
f 1012 822 820
f 1013 821 823
f 1013 1011 821
f 1322 1014 1390
f 1390 824 1322
f 824 1012 1322
f 824 822 1012
f 1015 823 825
f 1015 1013 823
f 826 1320 1390
f 1014 826 1390
f 1016 826 1014
f 824 1390 1320
f 886 1015 950
f 1015 827 950
f 1015 825 827
f 1017 886 950
f 1102 1181 828
f 1102 826 1181
f 826 1018 1181
f 826 1016 1018
f 884 950 827
f 1017 950 884
f 829 1017 884
f 1019 1017 829
f 1183 830 828
f 1183 828 1181
f 1181 1018 1183
f 1183 1018 1020
f 1153 1021 1066
f 1021 829 1066
f 1021 1019 829
f 831 1153 1066
f 830 1183 1104
f 1022 830 1104
f 832 830 1022
f 1183 1020 1104
f 1155 1023 1153
f 1153 1023 1021
f 1153 831 833
f 1153 833 1155
f 902 971 834
f 902 832 971
f 832 1024 971
f 832 1022 1024
f 1155 1068 1023
f 1369 1025 1286
f 1286 1025 833
f 1025 1068 833
f 1068 1155 833
f 835 1369 1286
f 538 615 836
f 724 797 615
f 724 615 538
f 971 904 834
f 834 904 724
f 904 1026 724
f 1026 797 724
f 971 1024 904
f 1369 1288 1025
f 77 1027 16
f 16 1027 835
f 1027 1288 835
f 1288 1369 835
f 178 239 77
f 178 77 16
f 352 427 239
f 352 239 178
f 427 352 836
f 615 427 836
f 617 427 615
f 1028 617 726
f 617 797 726
f 617 615 797
f 797 1026 726
f 77 18 1027
f 18 77 180
f 180 77 239
f 180 239 354
f 354 239 427
f 354 427 540
f 540 427 617
f 617 1028 540
f 228 193 837
f 416 367 228
f 228 367 193
f 416 838 367
f 1029 33 839
f 839 33 31
f 195 228 837
f 31 195 837
f 33 195 31
f 228 195 369
f 228 369 416
f 553 838 416
f 369 553 416
f 555 553 369
f 555 739 553
f 741 739 555
f 741 1030 739
f 739 1030 840
f 1031 1303 841
f 841 1303 1301
f 839 1301 1303
f 839 1303 1029
f 917 840 1030
f 917 1030 919
f 919 1032 917
f 917 1032 842
f 1033 841 843
f 1033 1031 841
f 1117 842 1032
f 1117 1032 1119
f 1119 1034 1117
f 1117 1034 844
f 1035 843 845
f 1035 1033 843
f 1331 844 1034
f 1331 1034 1333
f 1333 1036 1331
f 1331 1036 846
f 1037 845 847
f 1037 1035 845
f 846 1038 848
f 1036 1038 846
f 1039 1085 849
f 849 1085 1083
f 847 1083 1085
f 847 1085 1037
f 848 1040 850
f 1038 1040 848
f 1041 849 851
f 1041 1039 849
f 1334 1042 852
f 1334 852 1332
f 1332 850 1334
f 1334 850 1040
f 1043 851 853
f 1043 1041 851
f 1120 1044 854
f 1120 854 1118
f 1118 852 1120
f 1120 852 1042
f 1167 1045 1084
f 1045 853 1084
f 1045 1043 853
f 855 1167 1084
f 918 981 856
f 918 854 981
f 854 1046 981
f 854 1044 1046
f 1167 1086 1045
f 1047 1086 1167
f 855 1047 1167
f 857 1047 855
f 856 981 920
f 1048 856 920
f 858 856 1048
f 981 1046 920
f 857 1302 1047
f 1047 1302 1304
f 32 87 1049
f 1304 32 1049
f 1302 32 1304
f 859 87 32
f 554 627 860
f 740 809 627
f 740 627 554
f 740 858 809
f 858 1050 809
f 858 1048 1050
f 87 34 1049
f 859 194 87
f 194 34 87
f 194 196 34
f 368 196 194
f 368 370 196
f 627 556 860
f 556 368 860
f 556 370 368
f 556 627 742
f 742 627 809
f 809 1050 742
f 74 47 861
f 236 209 74
f 74 209 47
f 424 383 236
f 236 383 209
f 614 569 424
f 424 569 383
f 614 862 569
f 863 76 861
f 861 76 74
f 238 74 76
f 236 74 238
f 426 236 238
f 424 236 426
f 616 424 426
f 614 424 616
f 862 614 864
f 864 614 616
f 865 78 863
f 863 78 76
f 240 76 78
f 238 76 240
f 428 238 240
f 426 238 428
f 618 426 428
f 616 426 618
f 864 616 866
f 866 616 618
f 48 78 865
f 867 242 48
f 242 78 48
f 242 240 78
f 430 240 242
f 428 240 430
f 570 618 868
f 618 430 868
f 618 428 430
f 866 618 570
f 210 242 867
f 384 430 210
f 210 430 242
f 868 430 384
f 1199 511 571
f 571 511 755
f 755 511 695
f 755 695 931
f 931 695 871
f 931 871 1131
f 1131 871 1053
f 1053 1200 1131
f 509 985 571
f 985 1199 571
f 985 1201 1199
f 755 693 509
f 755 509 571
f 931 869 693
f 931 693 755
f 1131 1051 869
f 1131 869 931
f 1051 1131 1200
f 1273 1051 1200
f 1271 1051 1273
f 1273 1 1271
f 3 1 1273
f 986 1 213
f 1 165 213
f 1 3 165
f 213 165 401
f 401 165 339
f 401 339 591
f 591 339 525
f 525 1202 591
f 1203 327 387
f 987 387 327
f 1201 987 327
f 985 987 1201
f 213 163 986
f 401 337 163
f 401 163 213
f 591 523 337
f 591 337 401
f 1202 711 775
f 1202 775 988
f 591 1202 988
f 523 591 988
f 711 1204 775
f 389 1205 387
f 387 1205 1203
f 387 987 989
f 387 989 389
f 777 990 988
f 777 988 775
f 775 1204 777
f 777 1204 1206
f 391 1207 389
f 389 1207 1205
f 389 989 991
f 389 991 391
f 777 709 990
f 777 1206 709
f 1206 992 709
f 1206 1208 992
f 393 1209 391
f 391 1209 1207
f 391 991 993
f 391 993 393
f 1208 889 957
f 994 1208 957
f 992 1208 994
f 889 1210 957
f 393 328 1209
f 1211 328 393
f 993 1211 393
f 995 1211 993
f 994 957 890
f 1212 994 890
f 996 994 1212
f 957 1210 890
f 585 1213 510
f 1213 995 510
f 1213 1211 995
f 694 769 585
f 694 585 510
f 997 769 694
f 710 785 998
f 710 996 785
f 996 1214 785
f 996 1212 1214
f 585 512 1213
f 512 585 696
f 696 585 769
f 947 1215 870
f 870 1215 997
f 1215 696 997
f 696 769 997
f 1052 1147 947
f 1052 947 870
f 1272 1359 1147
f 1272 1147 1052
f 999 1359 1272
f 998 785 712
f 1216 998 712
f 1000 998 1216
f 785 1214 712
f 947 872 1215
f 872 947 1054
f 1054 947 1147
f 1054 1147 1274
f 1274 1147 1359
f 67 1217 2
f 2 1217 999
f 1217 1274 999
f 1274 1359 999
f 164 229 67
f 164 67 2
f 338 417 229
f 338 229 164
f 524 607 417
f 524 417 338
f 524 1000 607
f 1000 1218 607
f 1000 1216 1218
f 67 4 1217
f 4 67 166
f 166 67 229
f 166 229 340
f 340 229 417
f 340 417 526
f 526 417 607
f 607 1218 526
f 52 17 1001
f 214 179 52
f 52 179 17
f 402 353 214
f 214 353 179
f 592 539 402
f 402 539 353
f 592 1002 539
f 1219 1069 1003
f 1003 1069 1067
f 1069 1287 1067
f 1289 1287 1069
f 19 52 1001
f 1287 19 1001
f 1289 19 1287
f 52 19 181
f 52 181 214
f 214 181 355
f 214 355 402
f 402 355 541
f 402 541 592
f 1220 776 725
f 1220 725 1002
f 541 1220 1002
f 592 541 1002
f 776 1004 725
f 938 885 1005
f 1003 885 938
f 1221 1003 938
f 1219 1003 1221
f 727 776 1220
f 1222 954 903
f 1222 903 1004
f 727 1222 1004
f 776 727 1004
f 954 1006 903
f 938 1005 887
f 1005 1223 887
f 1005 1007 1223
f 1221 938 887
f 905 954 1222
f 1224 1172 1103
f 1224 1103 1006
f 905 1224 1006
f 954 905 1006
f 1172 1008 1103
f 888 1223 942
f 1223 1009 942
f 1223 1007 1009
f 1225 888 942
f 1105 1172 1224
f 1105 1226 1172
f 1226 1008 1172
f 1226 1010 1008
f 1011 944 1009
f 1009 944 942
f 1225 942 944
f 1225 944 1227
f 1228 1388 1321
f 1010 1228 1321
f 1226 1228 1010
f 1388 1012 1321
f 1013 946 1011
f 1011 946 944
f 1227 944 946
f 1227 946 1229
f 1014 1322 1388
f 1228 1014 1388
f 1230 1014 1228
f 1012 1388 1322
f 1015 948 1013
f 1013 948 946
f 1229 946 948
f 1229 948 1231
f 1014 1232 1016
f 1230 1232 1014
f 886 948 1015
f 1231 948 886
f 1017 1231 886
f 1233 1231 1017
f 1016 1234 1018
f 1232 1234 1016
f 1235 1017 1019
f 1235 1233 1017
f 1018 1236 1020
f 1234 1236 1018
f 1237 1019 1021
f 1237 1235 1019
f 1104 1187 1022
f 1104 1020 1187
f 1020 1238 1187
f 1020 1236 1238
f 1239 1021 1023
f 1239 1237 1021
f 1022 1187 1106
f 1240 1022 1106
f 1024 1022 1240
f 1187 1238 1106
f 1023 1068 1239
f 1239 1068 1070
f 1241 1070 1068
f 1241 1068 1025
f 904 973 1026
f 904 1024 973
f 1024 1242 973
f 1024 1240 1242
f 1371 1243 1288
f 1243 1025 1288
f 1243 1241 1025
f 1027 1371 1288
f 726 799 1028
f 799 726 1026
f 973 799 1026
f 975 799 973
f 973 1242 975
f 975 1242 1244
f 1373 1245 1371
f 1371 1245 1243
f 1371 1027 18
f 79 1371 18
f 1373 1371 79
f 180 241 79
f 180 79 18
f 354 429 241
f 354 241 180
f 540 619 429
f 540 429 354
f 619 540 1028
f 799 619 1028
f 801 619 799
f 1246 801 906
f 801 975 906
f 801 799 975
f 975 1244 906
f 1375 1247 1373
f 1373 1247 1245
f 1373 81 1375
f 1373 79 81
f 79 243 81
f 79 241 243
f 241 431 243
f 241 429 431
f 1248 431 542
f 431 619 542
f 431 429 619
f 542 619 728
f 728 619 801
f 801 1246 728
f 1375 1290 1247
f 1290 1375 20
f 20 1375 81
f 20 81 182
f 182 81 243
f 182 243 356
f 356 243 431
f 431 1248 356
f 1249 35 1029
f 1029 35 33
f 35 195 33
f 197 195 35
f 197 369 195
f 371 369 197
f 371 555 369
f 557 555 371
f 557 741 555
f 743 741 557
f 743 1250 741
f 741 1250 1030
f 1251 1305 1031
f 1031 1305 1303
f 1029 1303 1305
f 1029 1305 1249
f 919 1030 1250
f 919 1250 921
f 1032 919 1185
f 919 1121 1185
f 919 921 1121
f 1121 1252 1185
f 1253 1031 1033
f 1253 1251 1031
f 1185 1119 1032
f 1185 1252 1119
f 1252 1034 1119
f 1252 1254 1034
f 1255 1033 1035
f 1255 1253 1033
f 1333 1034 1254
f 1333 1254 1335
f 1335 1256 1333
f 1333 1256 1036
f 1257 1035 1037
f 1257 1255 1035
f 1036 1258 1038
f 1256 1258 1036
f 1259 1087 1039
f 1039 1087 1085
f 1037 1085 1087
f 1037 1087 1257
f 1038 1260 1040
f 1258 1260 1038
f 1261 1039 1041
f 1261 1259 1039
f 1336 1262 1042
f 1336 1042 1334
f 1334 1040 1336
f 1336 1040 1260
f 1263 1041 1043
f 1263 1261 1041
f 1120 1197 1044
f 1120 1042 1197
f 1042 1264 1197
f 1042 1262 1264
f 1265 1043 1045
f 1265 1263 1043
f 1044 1197 1122
f 1266 1044 1122
f 1046 1044 1266
f 1197 1264 1122
f 1045 1086 1265
f 1265 1086 1088
f 1267 1088 1086
f 1267 1086 1047
f 920 983 1048
f 920 1046 983
f 1046 1268 983
f 1046 1266 1268
f 1383 1269 1304
f 1269 1047 1304
f 1269 1267 1047
f 1049 1383 1304
f 1048 983 922
f 1270 1048 922
f 1050 1048 1270
f 983 1268 922
f 1383 1306 1269
f 1049 34 1383
f 34 1306 1383
f 34 36 1306
f 196 36 34
f 196 198 36
f 370 198 196
f 370 372 198
f 556 372 370
f 556 558 372
f 742 558 556
f 742 744 558
f 742 1050 744
f 744 1050 1270
f 1403 513 1199
f 1199 513 511
f 513 695 511
f 697 695 513
f 697 871 695
f 873 871 697
f 873 1053 871
f 1055 1053 873
f 1055 1404 1053
f 1053 1404 1200
f 1405 329 385
f 1201 385 329
f 1403 1201 329
f 1199 1201 1403
f 1273 1200 1404
f 1273 1404 1275
f 1275 3 1273
f 5 3 1275
f 5 165 3
f 167 165 5
f 167 339 165
f 341 339 167
f 341 525 339
f 527 525 341
f 527 1406 525
f 525 1406 1202
f 327 1203 385
f 1203 1405 385
f 1203 1407 1405
f 385 1201 327
f 711 1202 1406
f 711 1406 713
f 713 1408 711
f 711 1408 1204
f 1409 1203 1205
f 1409 1407 1203
f 1204 1410 1206
f 1408 1410 1204
f 1411 1205 1207
f 1411 1409 1205
f 1410 891 955
f 1208 1410 955
f 1206 1410 1208
f 891 1412 955
f 1413 1207 1209
f 1413 1411 1207
f 955 889 1208
f 955 1412 889
f 1412 1210 889
f 1412 1414 1210
f 395 1415 328
f 1415 1209 328
f 1415 1413 1209
f 1211 395 328
f 890 959 1212
f 890 1210 959
f 1210 1416 959
f 1210 1414 1416
f 395 330 1415
f 1417 330 395
f 1211 1417 395
f 1213 1417 1211
f 1212 959 892
f 1418 1212 892
f 1214 1212 1418
f 959 1416 892
f 587 1419 512
f 1419 1213 512
f 1419 1417 1213
f 696 771 587
f 696 587 512
f 1215 771 696
f 712 787 1216
f 712 1214 787
f 1214 1420 787
f 1214 1418 1420
f 587 514 1419
f 514 587 698
f 698 587 771
f 1215 872 771
f 872 698 771
f 872 874 698
f 1054 874 872
f 1054 1056 874
f 1274 1361 1421
f 1056 1274 1421
f 1054 1274 1056
f 1217 1361 1274
f 1216 787 714
f 1422 1216 714
f 1218 1216 1422
f 787 1420 714
f 1361 1276 1421
f 1217 4 1361
f 4 1276 1361
f 4 6 1276
f 166 6 4
f 166 168 6
f 340 168 166
f 340 342 168
f 526 342 340
f 526 528 342
f 526 1218 528
f 528 1218 1422
f 1136 1069 1219
f 1423 1291 1136
f 1291 1069 1136
f 1291 1289 1069
f 1291 19 1289
f 21 19 1291
f 21 181 19
f 183 181 21
f 183 355 181
f 357 355 183
f 594 541 1424
f 541 357 1424
f 541 355 357
f 594 1220 541
f 1136 1219 1071
f 1219 1425 1071
f 1219 1221 1425
f 1423 1136 1071
f 543 594 1424
f 1426 778 727
f 1426 727 1220
f 543 1426 1220
f 594 543 1220
f 778 1222 727
f 940 887 1223
f 1221 887 940
f 1427 1221 940
f 1425 1221 1427
f 729 778 1426
f 1428 956 905
f 1428 905 1222
f 729 1428 1222
f 778 729 1222
f 956 1224 905
f 888 940 1223
f 1427 940 888
f 1225 1427 888
f 1429 1427 1225
f 907 956 1428
f 1430 1174 1105
f 1430 1105 1224
f 907 1430 1224
f 956 907 1224
f 1174 1226 1105
f 1431 1225 1227
f 1431 1429 1225
f 1432 1176 1174
f 1432 1174 1430
f 1226 1174 1228
f 1228 1174 1176
f 1433 1227 1229
f 1433 1431 1227
f 1434 1178 1176
f 1434 1176 1432
f 1228 1176 1230
f 1230 1176 1178
f 1435 1229 1231
f 1435 1433 1229
f 1107 1178 1434
f 1107 1436 1178
f 1436 1230 1178
f 1436 1232 1230
f 1437 1231 1233
f 1437 1435 1231
f 1232 1438 1234
f 1436 1438 1232
f 1439 1233 1235
f 1439 1437 1233
f 1234 1440 1236
f 1438 1440 1234
f 1441 1235 1237
f 1441 1439 1235
f 1236 1442 1238
f 1440 1442 1236
f 1443 1237 1239
f 1443 1441 1237
f 1106 1189 1240
f 1106 1238 1189
f 1238 1444 1189
f 1238 1442 1444
f 1157 1445 1070
f 1445 1239 1070
f 1445 1443 1239
f 1241 1157 1070
f 1191 1242 1240
f 1191 1240 1189
f 1189 1444 1191
f 1191 1444 1446
f 1159 1447 1157
f 1157 1447 1445
f 1157 1241 1243
f 1157 1243 1159
f 1193 1244 1242
f 1193 1242 1191
f 1191 1446 1193
f 1193 1446 1448
f 1161 1449 1159
f 1159 1449 1447
f 1159 1243 1245
f 1159 1245 1161
f 906 977 1246
f 1193 1108 1244
f 1244 1108 906
f 1108 1450 906
f 1450 977 906
f 1193 1448 1108
f 1161 1072 1449
f 1451 1072 1161
f 1245 1451 1161
f 1247 1451 1245
f 542 621 1248
f 728 803 621
f 728 621 542
f 977 908 1246
f 1246 908 728
f 908 1452 728
f 1452 803 728
f 977 1450 908
f 1377 1453 1290
f 1453 1247 1290
f 1453 1451 1247
f 20 83 1377
f 20 1377 1290
f 182 245 83
f 182 83 20
f 356 433 245
f 356 245 182
f 621 544 1248
f 1248 544 356
f 544 1454 356
f 1454 433 356
f 544 621 730
f 730 621 803
f 803 1452 730
f 1377 1292 1453
f 1292 1377 22
f 22 1377 83
f 22 83 184
f 184 83 245
f 184 245 358
f 358 245 433
f 433 1454 358
f 1455 37 1249
f 1249 37 35
f 37 197 35
f 199 197 37
f 199 371 197
f 373 371 199
f 373 557 371
f 559 557 373
f 559 743 557
f 745 743 559
f 745 1456 743
f 743 1456 1250
f 1457 1307 1251
f 1251 1307 1305
f 1249 1305 1307
f 1249 1307 1455
f 921 1250 1456
f 921 1456 923
f 923 1121 921
f 1123 1121 923
f 1123 1458 1121
f 1121 1458 1252
f 1459 1251 1253
f 1459 1457 1251
f 1458 1337 1393
f 1254 1458 1393
f 1252 1458 1254
f 1337 1460 1393
f 1461 1253 1255
f 1461 1459 1253
f 1393 1335 1254
f 1393 1460 1335
f 1460 1256 1335
f 1460 1462 1256
f 1463 1255 1257
f 1463 1461 1255
f 1256 1464 1258
f 1462 1464 1256
f 1465 1089 1259
f 1259 1089 1087
f 1257 1087 1089
f 1257 1089 1463
f 1258 1466 1260
f 1464 1466 1258
f 1467 1259 1261
f 1467 1465 1259
f 1336 1401 1262
f 1336 1260 1401
f 1260 1468 1401
f 1260 1466 1468
f 1469 1261 1263
f 1469 1467 1261
f 1262 1401 1338
f 1470 1262 1338
f 1264 1262 1470
f 1401 1468 1338
f 1471 1263 1265
f 1471 1469 1263
f 1124 1472 1266
f 1124 1266 1122
f 1122 1264 1124
f 1124 1264 1470
f 1169 1473 1088
f 1473 1265 1088
f 1473 1471 1265
f 1267 1169 1088
f 924 1474 984
f 984 1268 924
f 1268 1472 924
f 1268 1266 1472
f 1169 1090 1473
f 1475 1090 1169
f 1267 1475 1169
f 1269 1475 1267
f 1270 922 984
f 1474 1270 984
f 1476 1270 1474
f 1268 984 922
f 1269 1306 1475
f 1475 1306 1308
f 36 1308 1306
f 36 38 1308
f 198 38 36
f 198 200 38
f 372 200 198
f 372 374 200
f 558 374 372
f 558 560 374
f 744 560 558
f 744 746 560
f 744 1270 746
f 746 1270 1476
f 89 515 1403
f 1403 515 513
f 515 697 513
f 699 697 515
f 699 873 697
f 875 873 699
f 875 1055 873
f 1057 1055 875
f 1404 1055 1343
f 1055 1277 1343
f 1055 1057 1277
f 1343 1277 49
f 49 1277 7
f 49 7 211
f 211 7 169
f 211 169 399
f 399 169 343
f 399 343 589
f 589 343 529
f 529 90 589
f 386 329 1405
f 1403 329 386
f 91 1403 386
f 89 1403 91
f 1343 1275 1404
f 49 5 1275
f 49 1275 1343
f 211 167 5
f 211 5 49
f 399 341 167
f 399 167 211
f 589 527 341
f 589 341 399
f 589 90 527
f 90 1406 527
f 90 92 1406
f 386 1405 331
f 1405 93 331
f 1405 1407 93
f 91 386 331
f 713 1406 92
f 713 92 715
f 715 94 713
f 713 94 1408
f 95 1407 1409
f 95 93 1407
f 94 893 953
f 1410 94 953
f 1408 94 1410
f 893 96 953
f 97 1409 1411
f 97 95 1409
f 953 891 1410
f 953 96 891
f 96 1412 891
f 96 98 1412
f 99 1411 1413
f 99 97 1411
f 1412 100 1414
f 98 100 1412
f 101 1413 1415
f 101 99 1413
f 1414 102 1416
f 100 102 1414
f 397 103 330
f 103 1415 330
f 103 101 1415
f 1417 397 330
f 894 104 1418
f 894 1418 892
f 892 1416 894
f 894 1416 102
f 397 332 103
f 105 332 397
f 1417 105 397
f 1419 105 1417
f 1418 106 1420
f 104 106 1418
f 1419 514 105
f 105 514 516
f 698 516 514
f 698 700 516
f 874 700 698
f 874 876 700
f 1056 1149 107
f 876 1056 107
f 874 1056 876
f 1421 1149 1056
f 716 108 1422
f 716 1422 714
f 714 1420 716
f 716 1420 106
f 1149 1058 107
f 1421 1276 1149
f 1276 1058 1149
f 1276 1278 1058
f 6 1278 1276
f 6 8 1278
f 168 8 6
f 168 170 8
f 342 170 168
f 342 344 170
f 528 344 342
f 528 530 344
f 528 1422 530
f 530 1422 108
f 1348 1291 1423
f 54 21 1348
f 1348 21 1291
f 216 183 54
f 54 183 21
f 404 357 216
f 216 357 183
f 404 1424 357
f 1138 1071 1425
f 1293 1348 1423
f 1293 1423 1071
f 109 1293 1071
f 1138 109 1071
f 1348 1293 23
f 1348 23 54
f 54 23 185
f 54 185 216
f 216 185 359
f 216 359 404
f 110 596 543
f 110 543 1424
f 359 110 1424
f 404 359 1424
f 596 1426 543
f 1427 1140 1425
f 1425 1140 1138
f 109 1138 1140
f 109 1140 111
f 545 596 110
f 112 780 729
f 112 729 1426
f 545 112 1426
f 596 545 1426
f 780 1428 729
f 1140 1427 1073
f 1427 113 1073
f 1427 1429 113
f 111 1140 1073
f 731 780 112
f 114 958 907
f 114 907 1428
f 731 114 1428
f 780 731 1428
f 958 1430 907
f 1074 113 1144
f 113 1431 1144
f 113 1429 1431
f 115 1074 1144
f 116 960 958
f 116 958 114
f 1430 958 1432
f 1432 958 960
f 1433 1146 1431
f 1431 1146 1144
f 115 1144 1146
f 115 1146 117
f 909 960 116
f 909 118 960
f 118 1432 960
f 118 1434 1432
f 1435 1148 1433
f 1433 1148 1146
f 117 1146 1148
f 117 1148 119
f 1107 1434 118
f 1107 118 1109
f 1109 120 1107
f 1107 120 1436
f 1437 1150 1435
f 1435 1150 1148
f 119 1148 1150
f 119 1150 121
f 1436 122 1438
f 120 122 1436
f 1439 1152 1437
f 1437 1152 1150
f 121 1150 1152
f 121 1152 123
f 1438 124 1440
f 122 124 1438
f 1441 1154 1439
f 1439 1154 1152
f 123 1152 1154
f 123 1154 125
f 1440 126 1442
f 124 126 1440
f 1443 1156 1441
f 1441 1156 1154
f 125 1154 1156
f 125 1156 127
f 126 1323 1395
f 1444 126 1395
f 1442 126 1444
f 1323 128 1395
f 1156 1443 1075
f 1443 129 1075
f 1443 1445 129
f 127 1156 1075
f 1397 1446 1444
f 1397 1444 1395
f 1395 128 1397
f 1397 128 130
f 131 1445 1447
f 131 129 1445
f 1446 1397 1324
f 132 1446 1324
f 1448 1446 132
f 1397 130 1324
f 133 1447 1449
f 133 131 1447
f 1108 1195 1450
f 1108 1448 1195
f 1448 134 1195
f 1448 132 134
f 1163 135 1072
f 135 1449 1072
f 135 133 1449
f 1451 1163 1072
f 910 136 1452
f 910 1452 908
f 1195 1110 1450
f 1110 908 1450
f 1110 910 908
f 1195 134 1110
f 1163 1076 135
f 137 1076 1163
f 1451 137 1163
f 1453 137 1451
f 544 623 1454
f 732 138 623
f 544 732 623
f 730 732 544
f 730 1452 732
f 732 1452 136
f 1379 139 1292
f 139 1453 1292
f 139 137 1453
f 22 85 1379
f 22 1379 1292
f 184 247 85
f 184 85 22
f 358 435 247
f 358 247 184
f 623 546 1454
f 1454 546 358
f 546 140 358
f 140 435 358
f 623 138 546
f 1379 1294 139
f 1294 1379 24
f 24 1379 85
f 24 85 186
f 186 85 247
f 186 247 360
f 360 247 435
f 435 140 360
f 141 39 1455
f 1455 39 37
f 39 199 37
f 201 199 39
f 201 373 199
f 375 373 201
f 375 559 373
f 561 559 375
f 790 745 142
f 745 561 142
f 745 559 561
f 790 1456 745
f 1364 1307 1457
f 1455 1307 1364
f 143 1455 1364
f 141 1455 143
f 747 790 142
f 923 1456 790
f 747 923 790
f 925 923 747
f 925 1123 923
f 1125 1123 925
f 1125 144 1123
f 1123 144 1458
f 1364 1457 1309
f 1457 145 1309
f 1457 1459 145
f 143 1364 1309
f 1337 1458 144
f 1337 144 1339
f 1339 146 1337
f 1337 146 1460
f 147 1459 1461
f 147 145 1459
f 1460 148 1462
f 146 148 1460
f 149 1461 1463
f 149 147 1461
f 1462 150 1464
f 148 150 1462
f 151 1091 1465
f 1465 1091 1089
f 1463 1089 1091
f 1463 1091 149
f 1464 152 1466
f 150 152 1464
f 153 1465 1467
f 153 151 1465
f 1340 154 1402
f 1402 1468 1340
f 1468 152 1340
f 1468 1466 152
f 155 1467 1469
f 155 153 1467
f 1470 1338 1402
f 154 1470 1402
f 156 1470 154
f 1468 1402 1338
f 157 1469 1471
f 157 155 1469
f 926 158 982
f 926 982 1472
f 1124 926 1472
f 1126 926 1124
f 1124 1470 1126
f 1126 1470 156
f 159 1471 1473
f 159 157 1471
f 1474 924 982
f 158 1474 982
f 160 1474 158
f 1472 982 924
f 1473 1090 159
f 159 1090 1092
f 161 1092 1090
f 161 1090 1475
f 748 162 810
f 810 1476 748
f 1476 160 748
f 1476 1474 160
f 1475 1308 161
f 161 1308 1310
f 38 1310 1308
f 38 40 1310
f 200 40 38
f 200 202 40
f 374 202 200
f 374 376 202
f 560 376 374
f 560 562 376
f 162 562 810
f 562 746 810
f 562 560 746
f 1476 810 746
