# Converted from NanoShaper .vert/.face
v -1.848000 12.062000 -13.568000
v 0.202000 12.062000 -13.568000
v -2.239000 12.062000 -13.068000
v 0.521000 12.062000 -13.068000
v -2.343000 12.062000 -12.568000
v 0.640000 12.062000 -12.568000
v -2.420000 12.062000 -12.068000
v 0.663000 12.062000 -12.068000
v -2.694000 12.062000 -11.568000
v 0.696000 12.062000 -11.568000
v -2.814000 12.062000 -11.068000
v 0.582000 12.062000 -11.068000
v -2.783000 12.062000 -10.568000
v 0.168000 12.062000 -10.568000
v -2.901000 12.062000 -10.068000
v -0.427000 12.062000 -10.068000
v -3.268000 12.062000 -9.568000
v -0.837000 12.062000 -9.568000
v -3.599000 12.062000 -9.068000
v -0.963000 12.062000 -9.068000
v -3.698000 12.062000 -8.568000
v -0.961000 12.062000 -8.568000
v -3.714000 12.062000 -8.068000
v -0.914000 12.062000 -8.068000
v -3.618000 12.062000 -7.568000
v -1.010000 12.062000 -7.568000
v -3.284000 12.062000 -7.068000
v -1.344000 12.062000 -7.068000
v -3.590000 12.062000 -9.090000
v -3.590000 12.062000 -7.502000
v -3.090000 12.062000 -9.782000
v -3.090000 12.062000 -6.912000
v -2.590000 12.062000 -11.737000
v -2.590000 12.062000 -6.705000
v -2.090000 12.062000 -13.316000
v -2.090000 12.062000 -6.696000
v -1.590000 12.062000 -13.747000
v -1.590000 12.062000 -6.880000
v -1.090000 12.062000 -13.950000
v -1.090000 12.062000 -7.398000
v -0.590000 12.062000 -13.967000
v -0.590000 12.062000 -9.917000
v -0.090000 12.062000 -13.793000
v -0.090000 12.062000 -10.349000
v 0.410000 12.062000 -13.299000
v 0.410000 12.062000 -10.800000
v -2.090000 10.361000 -13.568000
v -2.090000 11.754000 -13.568000
v -1.590000 10.073000 -13.568000
v -1.590000 12.621000 -13.568000
v -1.090000 10.080000 -13.568000
v -1.090000 12.977000 -13.568000
v -0.590000 10.393000 -13.568000
v -0.590000 13.001000 -13.568000
v -0.090000 10.945000 -13.568000
v -0.090000 12.732000 -13.568000
v -3.090000 9.962000 -9.568000
v -3.090000 12.268000 -9.568000
v -2.590000 9.498000 -9.568000
v -2.590000 12.575000 -9.568000
v -2.090000 9.290000 -9.568000
v -2.090000 12.721000 -9.568000
v -1.590000 9.296000 -9.568000
v -1.590000 12.678000 -9.568000
v -1.090000 9.518000 -9.568000
v -1.090000 12.330000 -9.568000
v -0.590000 10.253000 -9.568000
v -0.590000 11.750000 -9.568000
v -1.631000 12.562000 -13.568000
v 0.047000 12.562000 -13.568000
v -1.992000 12.562000 -13.068000
v 0.407000 12.562000 -13.068000
v -2.086000 12.562000 -12.568000
v 0.502000 12.562000 -12.568000
v -2.143000 12.562000 -12.068000
v 0.509000 12.562000 -12.068000
v -2.207000 12.562000 -11.568000
v 0.490000 12.562000 -11.568000
v -2.295000 12.562000 -11.068000
v 0.371000 12.562000 -11.068000
v -2.184000 12.562000 -10.568000
v -0.031000 12.562000 -10.568000
v -2.136000 12.562000 -10.068000
v -0.959000 12.562000 -10.068000
v -2.626000 12.562000 -9.568000
v -1.342000 12.562000 -9.568000
v -3.252000 12.562000 -9.068000
v -1.252000 12.562000 -9.068000
v -3.530000 12.562000 -8.568000
v -1.095000 12.562000 -8.568000
v -3.625000 12.562000 -8.068000
v -1.003000 12.562000 -8.068000
v -3.522000 12.562000 -7.568000
v -1.106000 12.562000 -7.568000
v -3.151000 12.562000 -7.068000
v -1.477000 12.562000 -7.068000
v -3.590000 12.562000 -8.381000
v -3.590000 12.562000 -7.775000
v -3.090000 12.562000 -9.264000
v -3.090000 12.562000 -7.020000
v -2.590000 12.562000 -9.589000
v -2.590000 12.562000 -6.796000
v -2.090000 12.562000 -12.489000
v -2.090000 12.562000 -6.786000
v -1.590000 12.562000 -13.601000
v -1.590000 12.562000 -6.984000
v -1.090000 12.562000 -13.842000
v -1.090000 12.562000 -9.983000
v -1.090000 12.562000 -8.553000
v -1.090000 12.562000 -7.607000
v -0.590000 12.562000 -13.861000
v -0.590000 12.562000 -10.265000
v -0.090000 12.562000 -13.670000
v -0.090000 12.562000 -10.526000
v 0.410000 12.562000 -13.062000
v 0.410000 12.562000 -11.163000
v -2.590000 10.594000 -13.068000
v -2.590000 11.522000 -13.068000
v -2.090000 9.962000 -13.068000
v -2.090000 12.318000 -13.068000
v -1.590000 9.759000 -13.068000
v -1.590000 13.071000 -13.068000
v -1.090000 9.764000 -13.068000
v -1.090000 13.307000 -13.068000
v -0.590000 9.943000 -13.068000
v -0.590000 13.325000 -13.068000
v -0.090000 10.091000 -13.068000
v -0.090000 13.137000 -13.068000
v 0.410000 10.430000 -13.068000
v 0.410000 12.556000 -13.068000
v -3.590000 11.004000 -9.068000
v -3.590000 12.084000 -9.068000
v -3.090000 10.284000 -9.068000
v -3.090000 12.719000 -9.068000
v -2.590000 9.884000 -9.068000
v -2.590000 13.022000 -9.068000
v -2.090000 9.649000 -9.068000
v -2.090000 13.054000 -9.068000
v -1.590000 9.657000 -9.068000
v -1.590000 12.881000 -9.068000
v -1.090000 10.010000 -9.068000
v -1.090000 12.288000 -9.068000
v -1.601000 13.062000 -13.068000
v 0.017000 13.062000 -13.068000
v -1.742000 13.062000 -12.568000
v 0.151000 13.062000 -12.568000
v -1.831000 13.062000 -12.068000
v 0.205000 13.062000 -12.068000
v -1.823000 13.062000 -11.568000
v 0.175000 13.062000 -11.568000
v -1.660000 13.062000 -11.068000
v 0.012000 13.062000 -11.068000
v -3.174000 13.062000 -8.568000
v -1.454000 13.062000 -8.568000
v -3.304000 13.062000 -8.068000
v -1.324000 13.062000 -8.068000
v -3.163000 13.062000 -7.568000
v -1.466000 13.062000 -7.568000
v -3.090000 13.062000 -8.692000
v -3.090000 13.062000 -7.463000
v -2.590000 13.062000 -9.028000
v -2.590000 13.062000 -7.127000
v -2.090000 13.062000 -9.057000
v -2.090000 13.062000 -7.114000
v -1.590000 13.062000 -13.086000
v -1.590000 13.062000 -10.973000
v -1.590000 13.062000 -8.755000
v -1.590000 13.062000 -7.403000
v -1.090000 13.062000 -13.478000
v -1.090000 13.062000 -10.634000
v -0.590000 13.062000 -13.504000
v -0.590000 13.062000 -10.645000
v -0.090000 13.062000 -13.213000
v -0.090000 13.062000 -10.938000
v -2.590000 10.098000 -12.568000
v -2.590000 11.722000 -12.568000
v -2.090000 9.779000 -12.568000
v -2.090000 12.553000 -12.568000
v -1.590000 9.669000 -12.568000
v -1.590000 13.184000 -12.568000
v -1.090000 9.683000 -12.568000
v -1.090000 13.402000 -12.568000
v -0.590000 9.744000 -12.568000
v -0.590000 13.417000 -12.568000
v -0.090000 9.780000 -12.568000
v -0.090000 13.240000 -12.568000
v 0.410000 10.014000 -12.568000
v 0.410000 12.745000 -12.568000
v 0.910000 10.815000 -12.568000
v 0.910000 11.325000 -12.568000
v -3.590000 10.854000 -8.568000
v -3.590000 12.394000 -8.568000
v -3.090000 10.358000 -8.568000
v -3.090000 13.129000 -8.568000
v -2.590000 10.138000 -8.568000
v -2.590000 13.354000 -8.568000
v -2.090000 10.079000 -8.568000
v -2.090000 13.364000 -8.568000
v -1.590000 10.241000 -8.568000
v -1.590000 13.165000 -8.568000
v -1.090000 10.928000 -8.568000
v -1.090000 12.550000 -8.568000
v -2.563000 9.562000 -12.068000
v -1.735000 9.562000 -12.068000
v -3.198000 9.562000 -11.568000
v -1.312000 9.562000 -11.568000
v -3.311000 9.562000 -11.068000
v -0.918000 9.562000 -11.068000
v -3.299000 9.562000 -10.568000
v -0.851000 9.562000 -10.568000
v -3.134000 9.562000 -10.068000
v -0.875000 9.562000 -10.068000
v -2.675000 9.562000 -9.568000
v -1.034000 9.562000 -9.568000
v -3.090000 9.562000 -11.732000
v -3.090000 9.562000 -10.009000
v -2.590000 9.562000 -12.061000
v -2.590000 9.562000 -9.457000
v -2.090000 9.562000 -12.134000
v -2.090000 9.562000 -9.152000
v -1.590000 9.562000 -11.941000
v -1.590000 9.562000 -9.160000
v -1.090000 9.562000 -11.311000
v -1.090000 9.562000 -9.490000
v -3.090000 9.885000 -12.068000
v -3.090000 11.245000 -12.068000
v -2.590000 9.569000 -12.068000
v -2.590000 11.863000 -12.068000
v -2.090000 9.523000 -12.068000
v -2.090000 12.675000 -12.068000
v -1.590000 9.592000 -12.068000
v -1.590000 13.265000 -12.068000
v -1.090000 9.684000 -12.068000
v -1.090000 13.473000 -12.068000
v -0.590000 9.683000 -12.068000
v -0.590000 13.483000 -12.068000
v -0.090000 9.703000 -12.068000
v -0.090000 13.299000 -12.068000
v 0.410000 9.921000 -12.068000
v 0.410000 12.782000 -12.068000
v 0.910000 10.544000 -12.068000
v 0.910000 11.598000 -12.068000
v -3.590000 11.064000 -8.068000
v -3.590000 12.648000 -8.068000
v -3.090000 10.469000 -8.068000
v -3.090000 13.237000 -8.068000
v -2.590000 10.279000 -8.068000
v -2.590000 13.444000 -8.068000
v -2.090000 10.297000 -8.068000
v -2.090000 13.454000 -8.068000
v -1.590000 10.533000 -8.068000
v -1.590000 13.270000 -8.068000
v -1.090000 11.316000 -8.068000
v -1.090000 12.751000 -8.068000
v -2.221000 10.062000 -13.068000
v -0.204000 10.062000 -13.068000
v -2.554000 10.062000 -12.568000
v 0.470000 10.062000 -12.568000
v -3.213000 10.062000 -12.068000
v 0.582000 10.062000 -12.068000
v -3.548000 10.062000 -11.568000
v 0.640000 10.062000 -11.568000
v -3.632000 10.062000 -11.068000
v 0.508000 10.062000 -11.068000
v -3.651000 10.062000 -10.568000
v -0.003000 10.062000 -10.568000
v -3.537000 10.062000 -10.068000
v -0.416000 10.062000 -10.068000
v -3.185000 10.062000 -9.568000
v -0.661000 10.062000 -9.568000
v -2.825000 10.062000 -9.068000
v -1.055000 10.062000 -9.068000
v -3.590000 10.062000 -11.437000
v -3.590000 10.062000 -10.206000
v -3.090000 10.062000 -12.169000
v -3.090000 10.062000 -9.459000
v -2.590000 10.062000 -12.533000
v -2.590000 10.062000 -8.763000
v -2.090000 10.062000 -13.255000
v -2.090000 10.062000 -8.597000
v -1.590000 10.062000 -13.557000
v -1.590000 10.062000 -8.753000
v -1.090000 10.062000 -13.550000
v -1.090000 10.062000 -9.042000
v -0.590000 10.062000 -13.248000
v -0.590000 10.062000 -9.737000
v -0.090000 10.062000 -13.037000
v -0.090000 10.062000 -10.462000
v 0.410000 10.062000 -12.666000
v 0.410000 10.062000 -10.929000
v -3.590000 10.184000 -11.568000
v -3.590000 10.916000 -11.568000
v -3.090000 9.476000 -11.568000
v -3.090000 11.628000 -11.568000
v -2.590000 9.256000 -11.568000
v -2.590000 12.152000 -11.568000
v -2.090000 9.248000 -11.568000
v -2.090000 12.716000 -11.568000
v -1.590000 9.442000 -11.568000
v -1.590000 13.253000 -11.568000
v -1.090000 9.620000 -11.568000
v -1.090000 13.456000 -11.568000
v -0.590000 9.673000 -11.568000
v -0.590000 13.462000 -11.568000
v -0.090000 9.696000 -11.568000
v -0.090000 13.273000 -11.568000
v 0.410000 9.885000 -11.568000
v 0.410000 12.741000 -11.568000
v 0.910000 10.418000 -11.568000
v 0.910000 11.733000 -11.568000
v -3.590000 11.803000 -7.568000
v -3.590000 12.341000 -7.568000
v -3.090000 10.896000 -7.568000
v -3.090000 13.120000 -7.568000
v -2.590000 10.616000 -7.568000
v -2.590000 13.346000 -7.568000
v -2.090000 10.641000 -7.568000
v -2.090000 13.356000 -7.568000
v -1.590000 10.953000 -7.568000
v -1.590000 13.156000 -7.568000
v -1.090000 11.623000 -7.568000
v -1.090000 12.521000 -7.568000
v -2.238000 10.562000 -13.568000
v -0.457000 10.562000 -13.568000
v -2.578000 10.562000 -13.068000
v 0.499000 10.562000 -13.068000
v -2.840000 10.562000 -12.568000
v 0.834000 10.562000 -12.568000
v -3.337000 10.562000 -12.068000
v 0.917000 10.562000 -12.068000
v -3.642000 10.562000 -11.568000
v 0.977000 10.562000 -11.568000
v -3.720000 10.562000 -11.068000
v 0.882000 10.562000 -11.068000
v -3.758000 10.562000 -10.568000
v 0.524000 10.562000 -10.568000
v -3.653000 10.562000 -10.068000
v -0.027000 10.562000 -10.068000
v -3.463000 10.562000 -9.568000
v -0.474000 10.562000 -9.568000
v -3.357000 10.562000 -9.068000
v -0.894000 10.562000 -9.068000
v -3.359000 10.562000 -8.568000
v -1.266000 10.562000 -8.568000
v -3.218000 10.562000 -8.068000
v -1.554000 10.562000 -8.068000
v -3.590000 10.562000 -11.695000
v -3.590000 10.562000 -9.920000
v -3.090000 10.562000 -12.291000
v -3.090000 10.562000 -7.902000
v -2.590000 10.562000 -13.035000
v -2.590000 10.562000 -7.622000
v -2.090000 10.562000 -13.685000
v -2.090000 10.562000 -7.647000
v -1.590000 10.562000 -13.889000
v -1.590000 10.562000 -8.013000
v -1.090000 10.562000 -13.884000
v -1.090000 10.562000 -8.818000
v -0.590000 10.562000 -13.665000
v -0.590000 10.562000 -9.434000
v -0.090000 10.562000 -13.386000
v -0.090000 10.562000 -10.012000
v 0.410000 10.562000 -13.144000
v 0.410000 10.562000 -10.480000
v 0.910000 10.562000 -12.233000
v 0.910000 10.562000 -11.143000
v -3.590000 9.962000 -11.068000
v -3.590000 11.147000 -11.068000
v -3.090000 9.381000 -11.068000
v -3.090000 11.745000 -11.068000
v -2.590000 9.177000 -11.068000
v -2.590000 12.261000 -11.068000
v -2.090000 9.169000 -11.068000
v -2.090000 12.722000 -11.068000
v -1.590000 9.296000 -11.068000
v -1.590000 13.118000 -11.068000
v -1.090000 9.494000 -11.068000
v -1.090000 13.343000 -11.068000
v -0.590000 9.670000 -11.068000
v -0.590000 13.349000 -11.068000
v -0.090000 9.784000 -11.068000
v -0.090000 13.140000 -11.068000
v 0.410000 9.988000 -11.068000
v 0.410000 12.450000 -11.068000
v 0.910000 10.633000 -11.068000
v 0.910000 11.518000 -11.068000
v -3.090000 11.490000 -7.068000
v -3.090000 12.654000 -7.068000
v -2.590000 11.142000 -7.068000
v -2.590000 13.002000 -7.068000
v -2.090000 11.128000 -7.068000
v -2.090000 13.015000 -7.068000
v -1.590000 11.427000 -7.068000
v -1.590000 12.717000 -7.068000
v -2.367000 11.062000 -13.568000
v -0.020000 11.062000 -13.568000
v -2.674000 11.062000 -13.068000
v 0.634000 11.062000 -13.068000
v -2.849000 11.062000 -12.568000
v 0.935000 11.062000 -12.568000
v -3.201000 11.062000 -12.068000
v 1.014000 11.062000 -12.068000
v -3.539000 11.062000 -11.568000
v 1.074000 11.062000 -11.568000
v -3.626000 11.062000 -11.068000
v 0.987000 11.062000 -11.068000
v -3.679000 11.062000 -10.568000
v 0.667000 11.062000 -10.568000
v -3.595000 11.062000 -10.068000
v 0.106000 11.062000 -10.068000
v -3.552000 11.062000 -9.568000
v -0.356000 11.062000 -9.568000
v -3.610000 11.062000 -9.068000
v -0.817000 11.062000 -9.068000
v -3.691000 11.062000 -8.568000
v -1.047000 11.062000 -8.568000
v -3.589000 11.062000 -8.068000
v -1.183000 11.062000 -8.068000
v -3.228000 11.062000 -7.568000
v -1.475000 11.062000 -7.568000
v -3.590000 11.062000 -11.398000
v -3.590000 11.062000 -10.042000
v -3.590000 11.062000 -9.170000
v -3.590000 11.062000 -8.070000
v -3.090000 11.062000 -12.191000
v -3.090000 11.062000 -7.442000
v -2.590000 11.062000 -13.260000
v -2.590000 11.062000 -7.148000
v -2.090000 11.062000 -13.793000
v -2.090000 11.062000 -7.134000
v -1.590000 11.062000 -13.982000
v -1.590000 11.062000 -7.432000
v -1.090000 11.062000 -13.976000
v -1.090000 11.062000 -8.398000
v -0.590000 11.062000 -13.854000
v -0.590000 11.062000 -9.352000
v -0.090000 11.062000 -13.622000
v -0.090000 11.062000 -9.885000
v 0.410000 11.062000 -13.262000
v 0.410000 11.062000 -10.358000
v 0.910000 11.062000 -12.634000
v 0.910000 11.062000 -10.897000
v -3.590000 9.934000 -10.568000
v -3.590000 11.264000 -10.568000
v -3.090000 9.406000 -10.568000
v -3.090000 11.795000 -10.568000
v -2.590000 9.219000 -10.568000
v -2.590000 12.218000 -10.568000
v -2.090000 9.196000 -10.568000
v -2.090000 12.623000 -10.568000
v -1.590000 9.197000 -10.568000
v -1.590000 12.846000 -10.568000
v -1.090000 9.389000 -10.568000
v -1.090000 13.012000 -10.568000
v -0.590000 9.729000 -10.568000
v -0.590000 12.980000 -10.568000
v -0.090000 10.002000 -10.568000
v -0.090000 12.649000 -10.568000
v 0.410000 10.408000 -10.568000
v 0.410000 11.743000 -10.568000
v -2.233000 11.562000 -13.568000
v 0.107000 11.562000 -13.568000
v -2.574000 11.562000 -13.068000
v 0.555000 11.562000 -13.068000
v -2.678000 11.562000 -12.568000
v 0.840000 11.562000 -12.568000
v -2.831000 11.562000 -12.068000
v 0.924000 11.562000 -12.068000
v -3.170000 11.562000 -11.568000
v 0.987000 11.562000 -11.568000
v -3.295000 11.562000 -11.068000
v 0.893000 11.562000 -11.068000
v -3.374000 11.562000 -10.568000
v 0.540000 11.562000 -10.568000
v -3.380000 11.562000 -10.068000
v -0.038000 11.562000 -10.068000
v -3.497000 11.562000 -9.568000
v -0.486000 11.562000 -9.568000
v -3.696000 11.562000 -9.068000
v -0.824000 11.562000 -9.068000
v -3.786000 11.562000 -8.568000
v -0.970000 11.562000 -8.568000
v -3.693000 11.562000 -8.068000
v -1.008000 11.562000 -8.068000
v -3.514000 11.562000 -7.568000
v -1.114000 11.562000 -7.568000
v -3.139000 11.562000 -7.068000
v -1.489000 11.562000 -7.068000
v -3.590000 11.562000 -9.317000
v -3.590000 11.562000 -7.768000
v -3.090000 11.562000 -11.692000
v -3.090000 11.562000 -7.030000
v -2.590000 11.562000 -13.024000
v -2.590000 11.562000 -6.803000
v -2.090000 11.562000 -13.681000
v -2.090000 11.562000 -6.793000
v -1.590000 11.562000 -13.887000
v -1.590000 11.562000 -6.993000
v -1.090000 11.562000 -13.945000
v -1.090000 11.562000 -7.629000
v -0.590000 11.562000 -13.929000
v -0.590000 11.562000 -9.441000
v -0.090000 11.562000 -13.724000
v -0.090000 11.562000 -10.022000
v 0.410000 11.562000 -13.250000
v 0.410000 11.562000 -10.467000
v 0.910000 11.562000 -12.286000
v 0.910000 11.562000 -11.112000
v -3.590000 10.199000 -10.068000
v -3.590000 11.079000 -10.068000
v -3.090000 9.530000 -10.068000
v -3.090000 11.894000 -10.068000
v -2.590000 9.315000 -10.068000
v -2.590000 12.303000 -10.068000
v -2.090000 9.183000 -10.068000
v -2.090000 12.582000 -10.068000
v -1.590000 9.188000 -10.068000
v -1.590000 12.686000 -10.068000
v -1.090000 9.390000 -10.068000
v -1.090000 12.626000 -10.068000
v -0.590000 9.865000 -10.068000
v -0.590000 12.230000 -10.068000
v -0.090000 10.465000 -10.068000
v -0.090000 11.642000 -10.068000
f 117 397 427
f 397 118 427
f 119 255 279
f 279 255 47
f 255 323 47
f 255 325 323
f 325 117 427
f 395 325 427
f 323 325 395
f 395 427 118
f 463 395 118
f 461 395 463
f 48 461 35
f 461 3 35
f 461 463 3
f 3 120 35
f 281 121 279
f 279 121 119
f 279 47 49
f 279 49 281
f 35 1 48
f 1 35 120
f 71 1 120
f 69 1 71
f 50 69 165
f 69 143 165
f 69 71 143
f 143 122 165
f 283 123 281
f 281 123 121
f 281 49 51
f 281 51 283
f 169 52 50
f 169 50 165
f 165 122 169
f 169 122 124
f 285 125 283
f 283 125 123
f 283 51 53
f 283 53 285
f 171 54 52
f 171 52 169
f 169 124 171
f 171 124 126
f 285 256 125
f 361 127 324
f 324 127 53
f 127 256 53
f 256 285 53
f 55 361 324
f 173 56 54
f 173 54 171
f 171 126 173
f 173 126 128
f 363 129 361
f 361 129 127
f 361 55 396
f 439 361 396
f 363 361 439
f 462 505 439
f 462 439 396
f 2 45 505
f 2 505 462
f 72 130 45
f 2 72 45
f 70 72 2
f 173 144 56
f 144 70 56
f 144 72 70
f 173 128 144
f 363 326 129
f 326 363 398
f 398 363 439
f 398 439 464
f 464 439 505
f 464 505 4
f 4 505 45
f 45 130 4
f 131 413 423
f 423 413 489
f 489 413 479
f 489 479 29
f 29 479 19
f 19 132 29
f 276 269 57
f 133 341 276
f 341 269 276
f 341 339 269
f 341 131 423
f 411 341 423
f 339 341 411
f 489 477 411
f 489 411 423
f 29 17 477
f 29 477 489
f 132 87 99
f 132 99 58
f 29 132 58
f 17 29 58
f 87 134 99
f 218 213 59
f 271 276 57
f 271 57 213
f 135 271 213
f 218 135 213
f 133 276 271
f 99 85 58
f 99 134 85
f 134 60 85
f 134 136 60
f 61 220 59
f 59 220 218
f 135 218 220
f 135 220 137
f 60 138 62
f 136 138 60
f 63 222 61
f 61 222 220
f 137 220 222
f 137 222 139
f 62 140 64
f 138 140 62
f 65 224 63
f 63 224 222
f 139 222 224
f 139 224 141
f 88 142 66
f 88 66 86
f 86 64 88
f 88 64 140
f 214 224 65
f 224 214 141
f 214 272 141
f 214 270 272
f 270 67 360
f 342 270 360
f 272 270 342
f 342 360 436
f 342 436 414
f 414 436 502
f 414 502 480
f 480 502 68
f 18 480 68
f 20 480 18
f 18 66 20
f 20 66 142
f 340 360 67
f 412 436 340
f 340 436 360
f 478 502 412
f 412 502 436
f 68 502 478
f 175 327 351
f 351 327 117
f 327 397 117
f 327 399 397
f 118 397 493
f 397 465 493
f 397 399 465
f 465 176 493
f 177 257 119
f 119 257 255
f 257 175 351
f 325 257 351
f 255 257 325
f 351 117 325
f 493 463 118
f 463 493 176
f 5 463 176
f 3 463 5
f 5 178 3
f 3 178 120
f 179 119 121
f 179 177 119
f 71 120 178
f 71 178 73
f 73 143 71
f 145 143 73
f 145 180 143
f 143 180 122
f 181 121 123
f 181 179 121
f 122 182 124
f 180 182 122
f 183 123 125
f 183 181 123
f 124 184 126
f 182 184 124
f 287 185 256
f 185 125 256
f 185 183 125
f 127 287 256
f 126 186 128
f 184 186 126
f 289 187 287
f 287 187 185
f 287 127 129
f 287 129 289
f 72 115 130
f 146 188 115
f 72 146 115
f 144 146 72
f 144 128 146
f 146 128 186
f 289 258 187
f 129 326 289
f 326 258 289
f 326 328 258
f 398 441 189
f 328 398 189
f 326 398 328
f 466 190 441
f 398 466 441
f 464 466 398
f 4 466 464
f 4 6 466
f 115 74 130
f 74 4 130
f 74 6 4
f 115 188 74
f 441 400 189
f 441 190 400
f 191 415 131
f 131 415 413
f 415 479 413
f 481 479 415
f 481 19 479
f 21 19 481
f 21 192 19
f 19 192 132
f 193 343 133
f 133 343 341
f 131 341 343
f 131 343 191
f 87 132 192
f 87 192 89
f 134 87 159
f 87 153 159
f 87 89 153
f 153 194 159
f 278 271 135
f 133 271 278
f 195 133 278
f 193 133 195
f 161 136 134
f 161 134 159
f 159 194 161
f 161 194 196
f 137 280 135
f 135 280 278
f 195 278 280
f 195 280 197
f 163 138 136
f 163 136 161
f 161 196 163
f 163 196 198
f 139 282 137
f 137 282 280
f 197 280 282
f 197 282 199
f 167 140 138
f 167 138 163
f 163 198 167
f 167 198 200
f 141 284 139
f 139 284 282
f 358 344 199
f 282 358 199
f 284 358 282
f 201 344 358
f 90 202 142
f 90 142 88
f 167 154 140
f 154 88 140
f 154 90 88
f 167 200 154
f 272 284 141
f 342 358 272
f 272 358 284
f 358 342 201
f 342 416 201
f 342 414 416
f 480 416 414
f 480 482 416
f 20 482 480
f 20 22 482
f 20 142 22
f 22 142 202
f 225 259 275
f 275 259 349
f 349 259 329
f 349 329 425
f 425 329 401
f 401 226 425
f 277 227 275
f 275 227 225
f 349 327 175
f 277 349 175
f 275 349 277
f 425 399 327
f 425 327 349
f 399 425 226
f 467 399 226
f 465 399 467
f 467 228 465
f 465 228 176
f 229 203 219
f 227 277 203
f 203 277 219
f 277 257 219
f 257 177 219
f 277 175 257
f 5 176 228
f 5 228 7
f 178 5 103
f 5 75 103
f 5 7 75
f 75 230 103
f 219 204 229
f 231 204 219
f 177 231 219
f 179 231 177
f 103 73 178
f 73 103 230
f 147 73 230
f 145 73 147
f 147 232 145
f 145 232 180
f 233 179 181
f 233 231 179
f 180 234 182
f 232 234 180
f 235 181 183
f 235 233 181
f 182 236 184
f 234 236 182
f 237 183 185
f 237 235 183
f 184 238 186
f 236 238 184
f 239 185 187
f 239 237 185
f 148 240 188
f 148 188 146
f 146 186 148
f 148 186 238
f 187 258 239
f 239 258 260
f 328 365 241
f 260 328 241
f 258 328 260
f 189 365 328
f 466 507 190
f 8 242 507
f 466 8 507
f 6 8 466
f 74 8 6
f 74 76 8
f 74 188 76
f 76 188 240
f 365 330 241
f 189 400 365
f 400 330 365
f 400 402 330
f 507 468 190
f 468 400 190
f 468 402 400
f 507 242 468
f 424 415 191
f 243 483 424
f 483 415 424
f 483 481 415
f 483 21 481
f 23 21 483
f 192 21 97
f 21 91 97
f 21 23 91
f 91 244 97
f 245 345 193
f 193 345 343
f 417 424 191
f 343 417 191
f 345 417 343
f 243 424 417
f 97 89 192
f 89 97 244
f 155 89 244
f 153 89 155
f 155 246 153
f 153 246 194
f 247 193 195
f 247 245 193
f 194 248 196
f 246 248 194
f 249 195 197
f 249 247 195
f 196 250 198
f 248 250 196
f 251 197 199
f 251 249 197
f 198 252 200
f 250 252 198
f 199 344 251
f 251 344 346
f 344 201 434
f 418 344 434
f 346 344 418
f 253 418 434
f 90 109 202
f 156 254 109
f 90 156 109
f 154 156 90
f 154 200 156
f 156 200 252
f 416 434 201
f 434 416 253
f 416 484 253
f 416 482 484
f 22 484 482
f 22 24 484
f 109 92 202
f 92 22 202
f 92 24 22
f 109 254 92
f 291 331 347
f 331 292 347
f 293 205 215
f 215 205 225
f 205 259 225
f 205 261 259
f 261 291 347
f 329 261 347
f 259 261 329
f 329 347 292
f 403 329 292
f 401 329 403
f 226 401 491
f 401 469 491
f 401 403 469
f 469 294 491
f 217 295 215
f 215 295 293
f 215 225 227
f 215 227 217
f 491 467 226
f 294 9 33
f 294 33 228
f 491 294 228
f 467 491 228
f 9 296 33
f 203 229 217
f 229 295 217
f 229 297 295
f 217 227 203
f 33 7 228
f 7 33 296
f 77 7 296
f 75 7 77
f 77 298 75
f 75 298 230
f 221 299 204
f 299 229 204
f 299 297 229
f 231 221 204
f 147 230 298
f 147 298 149
f 149 300 147
f 147 300 232
f 221 206 299
f 301 206 221
f 231 301 221
f 233 301 231
f 232 302 234
f 300 302 232
f 303 233 235
f 303 301 233
f 234 304 236
f 302 304 234
f 305 235 237
f 305 303 235
f 236 306 238
f 304 306 236
f 307 237 239
f 307 305 237
f 150 308 240
f 150 240 148
f 148 238 150
f 150 238 306
f 239 260 307
f 307 260 262
f 309 262 260
f 309 260 241
f 10 310 242
f 10 242 8
f 76 10 8
f 76 78 10
f 76 240 78
f 78 240 308
f 241 330 309
f 309 330 332
f 402 332 330
f 402 404 332
f 468 404 402
f 468 470 404
f 468 242 470
f 470 242 310
f 490 483 243
f 311 25 490
f 25 483 490
f 25 23 483
f 98 91 312
f 91 25 312
f 91 23 25
f 98 244 91
f 350 345 245
f 313 419 350
f 419 345 350
f 419 417 345
f 485 490 243
f 417 485 243
f 419 485 417
f 311 490 485
f 93 98 312
f 155 244 98
f 93 155 98
f 157 155 93
f 157 314 155
f 155 314 246
f 247 352 245
f 245 352 350
f 313 350 352
f 313 352 315
f 246 316 248
f 314 316 246
f 249 354 247
f 247 354 352
f 315 352 354
f 315 354 317
f 248 318 250
f 316 318 248
f 251 356 249
f 249 356 354
f 317 354 356
f 317 356 319
f 250 320 252
f 318 320 250
f 346 356 251
f 356 346 319
f 346 420 319
f 346 418 420
f 418 253 500
f 486 418 500
f 420 418 486
f 321 486 500
f 94 322 110
f 94 110 254
f 156 94 254
f 158 94 156
f 156 252 158
f 158 252 320
f 484 500 253
f 500 484 321
f 484 26 321
f 484 24 26
f 322 26 110
f 26 92 110
f 26 24 92
f 254 110 92
f 367 263 273
f 273 263 291
f 263 331 291
f 263 333 331
f 292 331 421
f 331 405 421
f 331 333 405
f 405 368 421
f 369 207 293
f 293 207 205
f 207 367 273
f 261 207 273
f 205 207 261
f 273 291 261
f 421 403 292
f 403 421 368
f 471 403 368
f 469 403 471
f 471 370 469
f 469 370 294
f 371 293 295
f 371 369 293
f 9 294 370
f 9 370 11
f 11 372 9
f 9 372 296
f 373 295 297
f 373 371 295
f 77 296 372
f 77 372 79
f 79 374 77
f 77 374 298
f 375 297 299
f 375 373 297
f 149 298 374
f 149 374 151
f 151 376 149
f 149 376 300
f 223 377 206
f 377 299 206
f 377 375 299
f 301 223 206
f 300 378 302
f 376 378 300
f 223 208 377
f 379 208 223
f 301 379 223
f 303 379 301
f 302 380 304
f 378 380 302
f 381 303 305
f 381 379 303
f 304 382 306
f 380 382 304
f 383 305 307
f 383 381 305
f 80 384 116
f 80 116 308
f 150 80 308
f 152 80 150
f 150 306 152
f 152 306 382
f 307 262 383
f 383 262 264
f 262 309 366
f 334 262 366
f 264 262 334
f 385 334 366
f 472 386 508
f 472 508 310
f 10 472 310
f 12 472 10
f 384 12 116
f 12 78 116
f 12 10 78
f 308 116 78
f 332 366 309
f 366 332 385
f 332 406 385
f 332 404 406
f 386 406 508
f 406 470 508
f 406 404 470
f 310 508 470
f 30 25 311
f 30 312 25
f 426 419 313
f 387 487 426
f 487 419 426
f 487 485 419
f 27 30 311
f 485 27 311
f 487 27 485
f 93 312 30
f 27 93 30
f 95 93 27
f 160 157 388
f 157 95 388
f 157 93 95
f 160 314 157
f 315 428 313
f 313 428 426
f 387 426 428
f 387 428 389
f 390 162 160
f 390 160 388
f 314 160 316
f 316 160 162
f 317 430 315
f 315 430 428
f 389 428 430
f 389 430 391
f 392 164 162
f 392 162 390
f 316 162 318
f 318 162 164
f 319 432 317
f 317 432 430
f 391 430 432
f 391 432 393
f 394 168 164
f 394 164 392
f 318 164 320
f 320 164 168
f 420 432 319
f 432 420 393
f 420 488 393
f 420 486 488
f 486 321 40
f 28 486 40
f 488 486 28
f 28 40 322
f 94 28 322
f 96 28 94
f 394 96 168
f 96 158 168
f 96 94 158
f 320 168 158
f 26 40 321
f 322 40 26
f 443 265 367
f 367 265 263
f 265 333 263
f 335 333 265
f 335 405 333
f 407 405 335
f 407 444 405
f 405 444 368
f 445 209 369
f 369 209 207
f 367 207 209
f 367 209 443
f 471 368 444
f 471 444 473
f 473 446 471
f 471 446 370
f 447 369 371
f 447 445 369
f 11 370 446
f 11 446 13
f 13 448 11
f 11 448 372
f 449 371 373
f 449 447 371
f 79 372 448
f 79 448 81
f 81 450 79
f 79 450 374
f 451 373 375
f 451 449 373
f 452 166 151
f 374 452 151
f 450 452 374
f 166 376 151
f 453 375 377
f 453 451 375
f 454 170 166
f 454 166 452
f 376 166 378
f 378 166 170
f 377 208 453
f 453 208 210
f 455 210 208
f 455 208 379
f 456 172 170
f 456 170 454
f 378 170 380
f 380 170 172
f 457 379 381
f 457 455 379
f 458 174 172
f 458 172 456
f 380 172 382
f 382 172 174
f 266 457 290
f 457 383 290
f 457 381 383
f 459 266 290
f 14 460 46
f 14 46 384
f 80 14 384
f 82 14 80
f 458 82 174
f 82 152 174
f 82 80 152
f 382 174 152
f 264 290 383
f 290 264 459
f 264 336 459
f 264 334 336
f 334 385 442
f 408 334 442
f 336 334 408
f 408 442 386
f 472 408 386
f 474 408 472
f 460 474 46
f 474 12 46
f 474 472 12
f 384 46 12
f 406 442 385
f 386 442 406
f 492 487 387
f 32 27 492
f 492 27 487
f 100 95 32
f 32 95 27
f 100 388 95
f 389 494 387
f 387 494 492
f 34 492 494
f 32 492 34
f 102 32 34
f 100 32 102
f 388 100 390
f 390 100 102
f 391 496 389
f 389 496 494
f 36 494 496
f 34 494 36
f 104 34 36
f 102 34 104
f 390 102 392
f 392 102 104
f 393 498 391
f 391 498 496
f 38 496 498
f 36 496 38
f 106 36 38
f 104 36 106
f 392 104 394
f 394 104 106
f 488 498 393
f 28 38 488
f 488 38 498
f 96 106 28
f 28 106 38
f 394 106 96
f 274 265 443
f 509 337 274
f 337 265 274
f 337 335 265
f 337 407 335
f 409 407 337
f 409 510 407
f 407 510 444
f 511 211 445
f 445 211 209
f 267 274 443
f 209 267 443
f 211 267 209
f 509 274 267
f 473 444 510
f 473 510 475
f 475 512 473
f 473 512 446
f 513 445 447
f 513 511 445
f 13 446 512
f 13 512 15
f 15 514 13
f 13 514 448
f 515 447 449
f 515 513 447
f 81 448 514
f 81 514 83
f 83 516 81
f 81 516 450
f 517 449 451
f 517 515 449
f 450 518 452
f 516 518 450
f 519 451 453
f 519 517 451
f 452 520 454
f 518 520 452
f 453 210 519
f 519 210 212
f 521 212 210
f 521 210 455
f 84 522 112
f 112 456 84
f 456 520 84
f 456 454 520
f 268 521 288
f 521 457 288
f 521 455 457
f 523 268 288
f 16 524 44
f 112 522 16
f 44 112 16
f 114 112 44
f 456 112 458
f 458 112 114
f 266 288 457
f 338 523 364
f 364 523 459
f 523 288 459
f 288 266 459
f 338 364 440
f 338 440 410
f 410 440 506
f 410 506 476
f 44 524 476
f 44 476 506
f 14 44 506
f 460 14 506
f 82 114 14
f 14 114 44
f 458 114 82
f 336 364 459
f 408 440 336
f 336 440 364
f 474 506 408
f 408 506 440
f 460 506 474
f 47 323 353
f 353 323 429
f 429 323 395
f 429 395 495
f 495 395 461
f 461 48 495
f 355 49 353
f 353 49 47
f 353 431 355
f 353 429 431
f 429 497 431
f 429 495 497
f 1 37 48
f 37 495 48
f 37 497 495
f 37 1 105
f 105 1 69
f 69 50 105
f 357 51 355
f 355 51 49
f 355 433 357
f 355 431 433
f 431 499 433
f 431 497 499
f 497 39 499
f 497 37 39
f 37 107 39
f 37 105 107
f 105 50 107
f 107 50 52
f 359 53 357
f 357 53 51
f 357 435 359
f 357 433 435
f 433 501 435
f 433 499 501
f 499 41 501
f 499 39 41
f 39 111 41
f 39 107 111
f 107 52 111
f 111 52 54
f 359 324 53
f 324 359 55
f 359 437 55
f 359 435 437
f 435 503 437
f 435 501 503
f 501 43 503
f 501 41 43
f 41 113 43
f 41 111 113
f 111 54 113
f 113 54 56
f 437 396 55
f 396 437 462
f 462 437 503
f 462 503 2
f 2 503 43
f 2 43 70
f 70 43 113
f 113 56 70
f 348 337 509
f 422 409 348
f 348 409 337
f 422 510 409
f 216 211 511
f 57 269 216
f 269 211 216
f 269 267 211
f 339 348 509
f 267 339 509
f 269 339 267
f 348 339 411
f 348 411 422
f 475 510 422
f 411 475 422
f 477 475 411
f 512 475 31
f 475 17 31
f 475 477 17
f 17 58 31
f 216 511 213
f 511 59 213
f 511 513 59
f 57 216 213
f 31 15 512
f 58 85 101
f 58 101 514
f 31 58 514
f 15 31 514
f 85 60 101
f 61 513 515
f 61 59 513
f 101 83 514
f 101 60 83
f 60 516 83
f 60 62 516
f 63 515 517
f 63 61 515
f 516 64 518
f 62 64 516
f 65 517 519
f 65 63 517
f 86 66 108
f 108 520 86
f 520 64 86
f 520 518 64
f 519 212 65
f 65 212 214
f 212 521 286
f 270 212 286
f 214 212 270
f 67 270 286
f 18 68 42
f 108 66 18
f 108 18 42
f 84 108 42
f 522 84 42
f 520 108 84
f 268 286 521
f 340 67 362
f 362 67 523
f 67 286 523
f 286 268 523
f 340 362 438
f 340 438 412
f 412 438 504
f 412 504 478
f 42 68 478
f 42 478 504
f 16 42 504
f 524 16 504
f 522 42 16
f 338 362 523
f 410 438 338
f 338 438 362
f 476 504 410
f 410 504 438
f 524 504 476
