# Converted from NanoShaper .vert/.face
v -7.282000 -20.938000 -19.818000
v -6.020000 -20.938000 -19.818000
v -7.892000 -20.938000 -19.318000
v -5.323000 -20.938000 -19.318000
v -8.153000 -20.938000 -18.818000
v -5.112000 -20.938000 -18.818000
v -8.520000 -20.938000 -18.318000
v -5.045000 -20.938000 -18.318000
v -8.919000 -20.938000 -17.818000
v -4.919000 -20.938000 -17.818000
v -9.131000 -20.938000 -17.318000
v -4.919000 -20.938000 -17.318000
v -9.149000 -20.938000 -16.818000
v -5.114000 -20.938000 -16.818000
v -9.130000 -20.938000 -16.318000
v -5.647000 -20.938000 -16.318000
v -8.904000 -20.938000 -15.818000
v -6.217000 -20.938000 -15.818000
v -8.169000 -20.938000 -15.318000
v -6.926000 -20.938000 -15.318000
v -6.080000 -16.938000 -16.318000
v -5.583000 -16.938000 -16.318000
v -7.227000 -16.938000 -15.818000
v -4.777000 -16.938000 -15.818000
v -7.886000 -16.938000 -15.318000
v -4.543000 -16.938000 -15.318000
v -8.101000 -16.938000 -14.818000
v -4.335000 -16.938000 -14.818000
v -8.230000 -16.938000 -14.318000
v -4.118000 -16.938000 -14.318000
v -8.270000 -16.938000 -13.818000
v -4.065000 -16.938000 -13.818000
v -8.413000 -16.938000 -13.318000
v -3.960000 -16.938000 -13.318000
v -8.620000 -16.938000 -12.818000
v -3.962000 -16.938000 -12.818000
v -8.693000 -16.938000 -12.318000
v -4.097000 -16.938000 -12.318000
v -8.839000 -16.938000 -11.818000
v -4.341000 -16.938000 -11.818000
v -8.847000 -16.938000 -11.318000
v -5.245000 -16.938000 -11.318000
v -8.560000 -16.938000 -10.818000
v -7.153000 -16.938000 -10.818000
v -8.840000 -20.938000 -17.919000
v -8.840000 -20.938000 -15.737000
v -8.340000 -20.938000 -18.550000
v -8.340000 -20.938000 -15.375000
v -7.840000 -20.938000 -19.393000
v -7.840000 -20.938000 -15.275000
v -7.340000 -20.938000 -19.793000
v -7.340000 -20.938000 -15.255000
v -6.840000 -20.938000 -19.909000
v -6.840000 -20.938000 -15.349000
v -6.340000 -20.938000 -19.870000
v -6.340000 -20.938000 -15.699000
v -5.840000 -20.938000 -19.750000
v -5.840000 -20.938000 -16.159000
v -5.340000 -20.938000 -19.341000
v -5.340000 -20.938000 -16.545000
v -8.840000 -16.938000 -11.815000
v -8.840000 -16.938000 -11.292000
v -8.340000 -16.938000 -13.512000
v -8.340000 -16.938000 -10.658000
v -7.840000 -16.938000 -15.382000
v -7.840000 -16.938000 -10.536000
v -7.340000 -16.938000 -15.774000
v -7.340000 -16.938000 -10.677000
v -6.840000 -16.938000 -15.953000
v -6.840000 -16.938000 -11.045000
v -6.340000 -16.938000 -16.240000
v -6.340000 -16.938000 -11.212000
v -5.840000 -16.938000 -16.342000
v -5.840000 -16.938000 -11.300000
v -5.340000 -16.938000 -16.247000
v -5.340000 -16.938000 -11.313000
v -4.840000 -16.938000 -15.894000
v -4.840000 -16.938000 -11.424000
v -4.340000 -16.938000 -14.826000
v -4.340000 -16.938000 -11.819000
v -8.840000 -21.480000 -16.818000
v -8.840000 -19.452000 -16.818000
v -8.340000 -22.376000 -16.818000
v -8.340000 -18.803000 -16.818000
v -7.840000 -22.706000 -16.818000
v -7.840000 -18.349000 -16.818000
v -7.340000 -22.846000 -16.818000
v -7.340000 -18.226000 -16.818000
v -6.840000 -22.950000 -16.818000
v -6.840000 -18.295000 -16.818000
v -6.340000 -22.980000 -16.818000
v -6.340000 -18.634000 -16.818000
v -5.840000 -22.669000 -16.818000
v -5.840000 -19.342000 -16.818000
v -5.340000 -21.976000 -16.818000
v -5.340000 -20.132000 -16.818000
v -8.340000 -17.392000 -12.818000
v -8.340000 -15.285000 -12.818000
v -7.840000 -17.765000 -12.818000
v -7.840000 -14.850000 -12.818000
v -7.340000 -17.985000 -12.818000
v -7.340000 -14.742000 -12.818000
v -6.840000 -18.081000 -12.818000
v -6.840000 -14.843000 -12.818000
v -6.340000 -18.147000 -12.818000
v -6.340000 -14.961000 -12.818000
v -5.840000 -18.303000 -12.818000
v -5.840000 -15.013000 -12.818000
v -5.340000 -18.361000 -12.818000
v -5.340000 -15.008000 -12.818000
v -4.840000 -18.258000 -12.818000
v -4.840000 -15.111000 -12.818000
v -4.340000 -17.917000 -12.818000
v -4.340000 -15.461000 -12.818000
v -7.449000 -20.438000 -19.318000
v -5.792000 -20.438000 -19.318000
v -7.880000 -20.438000 -18.818000
v -5.462000 -20.438000 -18.818000
v -8.507000 -20.438000 -18.318000
v -5.229000 -20.438000 -18.318000
v -9.035000 -20.438000 -17.818000
v -5.023000 -20.438000 -17.818000
v -9.230000 -20.438000 -17.318000
v -5.023000 -20.438000 -17.318000
v -9.235000 -20.438000 -16.818000
v -5.225000 -20.438000 -16.818000
v -9.205000 -20.438000 -16.318000
v -5.601000 -20.438000 -16.318000
v -8.994000 -20.438000 -15.818000
v -6.057000 -20.438000 -15.818000
v -8.396000 -20.438000 -15.318000
v -6.507000 -20.438000 -15.318000
v -6.621000 -16.438000 -15.818000
v -5.197000 -16.438000 -15.818000
v -7.457000 -16.438000 -15.318000
v -4.812000 -16.438000 -15.318000
v -7.930000 -16.438000 -14.818000
v -4.602000 -16.438000 -14.818000
v -8.126000 -16.438000 -14.318000
v -4.474000 -16.438000 -14.318000
v -8.233000 -16.438000 -13.818000
v -4.264000 -16.438000 -13.818000
v -8.493000 -16.438000 -13.318000
v -4.065000 -16.438000 -13.318000
v -8.712000 -16.438000 -12.818000
v -3.980000 -16.438000 -12.818000
v -8.938000 -16.438000 -12.318000
v -3.994000 -16.438000 -12.318000
v -9.152000 -16.438000 -11.818000
v -4.205000 -16.438000 -11.818000
v -9.157000 -16.438000 -11.318000
v -4.806000 -16.438000 -11.318000
v -8.955000 -16.438000 -10.818000
v -6.711000 -16.438000 -10.818000
v -8.326000 -16.438000 -10.318000
v -7.387000 -16.438000 -10.318000
v -8.840000 -20.438000 -18.062000
v -8.840000 -20.438000 -15.628000
v -8.340000 -20.438000 -18.437000
v -8.340000 -20.438000 -15.292000
v -7.840000 -20.438000 -18.858000
v -7.840000 -20.438000 -15.129000
v -7.340000 -20.438000 -19.404000
v -7.340000 -20.438000 -15.070000
v -6.840000 -20.438000 -19.568000
v -6.840000 -20.438000 -15.168000
v -6.340000 -20.438000 -19.525000
v -6.340000 -20.438000 -15.453000
v -5.840000 -20.438000 -19.354000
v -5.840000 -20.438000 -16.089000
v -5.340000 -20.438000 -18.533000
v -5.340000 -20.438000 -16.644000
v -8.840000 -16.438000 -12.502000
v -8.840000 -16.438000 -10.670000
v -8.340000 -16.438000 -13.573000
v -8.340000 -16.438000 -10.323000
v -7.840000 -16.438000 -14.939000
v -7.840000 -16.438000 -10.232000
v -7.340000 -16.438000 -15.427000
v -7.340000 -16.438000 -10.337000
v -6.840000 -16.438000 -15.745000
v -6.840000 -16.438000 -10.703000
v -6.340000 -16.438000 -15.916000
v -6.340000 -16.438000 -11.050000
v -5.840000 -16.438000 -16.039000
v -5.840000 -16.438000 -11.199000
v -5.340000 -16.438000 -15.913000
v -5.340000 -16.438000 -11.202000
v -4.840000 -16.438000 -15.366000
v -4.840000 -16.438000 -11.304000
v -4.340000 -16.438000 -13.977000
v -4.340000 -16.438000 -11.648000
v -8.840000 -21.420000 -16.318000
v -8.840000 -19.507000 -16.318000
v -8.340000 -22.039000 -16.318000
v -8.340000 -18.492000 -16.318000
v -7.840000 -22.479000 -16.318000
v -7.840000 -18.109000 -16.318000
v -7.340000 -22.586000 -16.318000
v -7.340000 -17.897000 -16.318000
v -6.840000 -22.469000 -16.318000
v -6.840000 -17.717000 -16.318000
v -6.340000 -22.132000 -16.318000
v -6.340000 -17.252000 -16.318000
v -5.840000 -21.726000 -16.318000
v -5.840000 -16.875000 -16.318000
v -5.340000 -18.552000 -16.318000
v -5.340000 -17.222000 -16.318000
v -8.840000 -16.670000 -12.318000
v -8.840000 -15.337000 -12.318000
v -8.340000 -17.412000 -12.318000
v -8.340000 -14.895000 -12.318000
v -7.840000 -17.748000 -12.318000
v -7.840000 -14.634000 -12.318000
v -7.340000 -17.844000 -12.318000
v -7.340000 -14.543000 -12.318000
v -6.840000 -17.825000 -12.318000
v -6.840000 -14.640000 -12.318000
v -6.340000 -17.859000 -12.318000
v -6.340000 -14.893000 -12.318000
v -5.840000 -18.035000 -12.318000
v -5.840000 -15.020000 -12.318000
v -5.340000 -18.147000 -12.318000
v -5.340000 -15.020000 -12.318000
v -4.840000 -18.037000 -12.318000
v -4.840000 -15.124000 -12.318000
v -4.340000 -17.594000 -12.318000
v -4.340000 -15.479000 -12.318000
v -8.259000 -19.938000 -18.318000
v -5.708000 -19.938000 -18.318000
v -8.930000 -19.938000 -17.818000
v -5.376000 -19.938000 -17.818000
v -9.141000 -19.938000 -17.318000
v -5.348000 -19.938000 -17.318000
v -9.141000 -19.938000 -16.818000
v -5.425000 -19.938000 -16.818000
v -9.091000 -19.938000 -16.318000
v -5.575000 -19.938000 -16.318000
v -8.861000 -19.938000 -15.818000
v -5.775000 -19.938000 -15.818000
v -8.434000 -19.938000 -15.318000
v -5.978000 -19.938000 -15.318000
v -7.641000 -19.938000 -14.818000
v -6.668000 -19.938000 -14.818000
v -6.890000 -15.938000 -15.318000
v -5.313000 -15.938000 -15.318000
v -7.475000 -15.938000 -14.818000
v -4.964000 -15.938000 -14.818000
v -7.773000 -15.938000 -14.318000
v -4.886000 -15.938000 -14.318000
v -7.972000 -15.938000 -13.818000
v -4.645000 -15.938000 -13.818000
v -8.370000 -15.938000 -13.318000
v -4.250000 -15.938000 -13.318000
v -8.655000 -15.938000 -12.818000
v -4.057000 -15.938000 -12.818000
v -9.029000 -15.938000 -12.318000
v -4.070000 -15.938000 -12.318000
v -9.231000 -15.938000 -11.818000
v -4.296000 -15.938000 -11.818000
v -9.236000 -15.938000 -11.318000
v -5.035000 -15.938000 -11.318000
v -9.047000 -15.938000 -10.818000
v -6.632000 -15.938000 -10.818000
v -8.514000 -15.938000 -10.318000
v -7.199000 -15.938000 -10.318000
v -8.840000 -19.938000 -17.934000
v -8.840000 -19.938000 -15.788000
v -8.340000 -19.938000 -18.289000
v -8.340000 -19.938000 -15.232000
v -7.840000 -19.938000 -18.435000
v -7.840000 -19.938000 -14.888000
v -7.340000 -19.938000 -18.536000
v -7.340000 -19.938000 -14.774000
v -6.840000 -19.938000 -18.552000
v -6.840000 -19.938000 -14.785000
v -6.340000 -19.938000 -18.546000
v -6.340000 -19.938000 -14.919000
v -5.840000 -19.938000 -18.405000
v -5.840000 -19.938000 -15.662000
v -8.840000 -15.938000 -12.559000
v -8.840000 -15.938000 -10.558000
v -8.340000 -15.938000 -13.355000
v -8.340000 -15.938000 -10.240000
v -7.840000 -15.938000 -14.083000
v -7.840000 -15.938000 -10.154000
v -7.340000 -15.938000 -14.918000
v -7.340000 -15.938000 -10.253000
v -6.840000 -15.938000 -15.349000
v -6.840000 -15.938000 -10.592000
v -6.340000 -15.938000 -15.477000
v -6.340000 -15.938000 -11.044000
v -5.840000 -15.938000 -15.501000
v -5.840000 -15.938000 -11.239000
v -5.340000 -15.938000 -15.337000
v -5.340000 -15.938000 -11.277000
v -4.840000 -15.938000 -14.181000
v -4.840000 -15.938000 -11.385000
v -4.340000 -15.938000 -13.444000
v -4.340000 -15.938000 -11.761000
v -7.340000 -21.918000 -19.818000
v -7.340000 -20.998000 -19.818000
v -6.840000 -22.221000 -19.818000
v -6.840000 -20.752000 -19.818000
v -6.340000 -22.505000 -19.818000
v -6.340000 -20.825000 -19.818000
v -5.840000 -22.291000 -19.818000
v -5.840000 -21.129000 -19.818000
v -8.840000 -21.068000 -15.818000
v -8.840000 -19.887000 -15.818000
v -8.340000 -21.534000 -15.818000
v -8.340000 -18.484000 -15.818000
v -7.840000 -21.804000 -15.818000
v -7.840000 -17.792000 -15.818000
v -7.340000 -21.992000 -15.818000
v -7.340000 -17.057000 -15.818000
v -6.840000 -21.719000 -15.818000
v -6.840000 -16.631000 -15.818000
v -6.340000 -21.220000 -15.818000
v -6.340000 -16.322000 -15.818000
v -5.840000 -20.023000 -15.818000
v -5.840000 -16.245000 -15.818000
v -5.340000 -19.240000 -15.818000
v -5.340000 -16.357000 -15.818000
v -4.840000 -18.613000 -15.818000
v -4.840000 -16.815000 -15.818000
v -8.840000 -16.937000 -11.818000
v -8.840000 -15.016000 -11.818000
v -8.340000 -17.313000 -11.818000
v -8.340000 -14.689000 -11.818000
v -7.840000 -17.560000 -11.818000
v -7.840000 -14.587000 -11.818000
v -7.340000 -17.664000 -11.818000
v -7.340000 -14.540000 -11.818000
v -6.840000 -17.628000 -11.818000
v -6.840000 -14.637000 -11.818000
v -6.340000 -17.633000 -11.818000
v -6.340000 -14.943000 -11.818000
v -5.840000 -17.602000 -11.818000
v -5.840000 -15.173000 -11.818000
v -5.340000 -17.611000 -11.818000
v -5.340000 -15.231000 -11.818000
v -4.840000 -17.452000 -11.818000
v -4.840000 -15.356000 -11.818000
v -4.340000 -16.936000 -11.818000
v -4.340000 -15.845000 -11.818000
v -7.044000 -23.438000 -18.818000
v -5.658000 -23.438000 -18.818000
v -7.318000 -23.438000 -18.318000
v -5.384000 -23.438000 -18.318000
v -7.294000 -23.438000 -17.818000
v -5.407000 -23.438000 -17.818000
v -6.938000 -23.438000 -17.318000
v -5.763000 -23.438000 -17.318000
v -8.505000 -19.438000 -17.818000
v -7.150000 -19.438000 -17.818000
v -8.813000 -19.438000 -17.318000
v -6.057000 -19.438000 -17.318000
v -8.829000 -19.438000 -16.818000
v -5.748000 -19.438000 -16.818000
v -8.804000 -19.438000 -16.318000
v -5.567000 -19.438000 -16.318000
v -8.711000 -19.438000 -15.818000
v -5.453000 -19.438000 -15.818000
v -8.491000 -19.438000 -15.318000
v -5.377000 -19.438000 -15.318000
v -7.935000 -19.438000 -14.818000
v -5.400000 -19.438000 -14.818000
v -6.938000 -19.438000 -14.318000
v -5.748000 -19.438000 -14.318000
v -7.018000 -15.438000 -13.818000
v -5.131000 -15.438000 -13.818000
v -7.897000 -15.438000 -13.318000
v -4.631000 -15.438000 -13.318000
v -8.423000 -15.438000 -12.818000
v -4.362000 -15.438000 -12.818000
v -8.899000 -15.438000 -12.318000
v -4.378000 -15.438000 -12.318000
v -9.122000 -15.438000 -11.818000
v -4.702000 -15.438000 -11.818000
v -9.127000 -15.438000 -11.318000
v -6.174000 -15.438000 -11.318000
v -8.919000 -15.438000 -10.818000
v -6.781000 -15.438000 -10.818000
v -8.236000 -15.438000 -10.318000
v -7.478000 -15.438000 -10.318000
v -6.840000 -23.438000 -18.972000
v -6.840000 -23.438000 -17.254000
v -6.340000 -23.438000 -19.101000
v -6.340000 -23.438000 -17.125000
v -5.840000 -23.438000 -18.959000
v -5.840000 -23.438000 -17.267000
v -8.340000 -19.438000 -17.935000
v -8.340000 -19.438000 -15.122000
v -7.840000 -19.438000 -18.063000
v -7.840000 -19.438000 -14.769000
v -7.340000 -19.438000 -17.922000
v -7.340000 -19.438000 -14.533000
v -6.840000 -19.438000 -17.723000
v -6.840000 -19.438000 -14.262000
v -6.340000 -19.438000 -17.607000
v -6.340000 -19.438000 -14.121000
v -5.840000 -19.438000 -16.982000
v -5.840000 -19.438000 -14.257000
v -8.840000 -15.438000 -12.392000
v -8.840000 -15.438000 -10.715000
v -8.340000 -15.438000 -12.924000
v -8.340000 -15.438000 -10.355000
v -7.840000 -15.438000 -13.351000
v -7.840000 -15.438000 -10.261000
v -7.340000 -15.438000 -13.605000
v -7.340000 -15.438000 -10.369000
v -6.840000 -15.438000 -13.963000
v -6.840000 -15.438000 -10.754000
v -6.340000 -15.438000 -14.111000
v -6.340000 -15.438000 -11.194000
v -5.840000 -15.438000 -14.176000
v -5.840000 -15.438000 -11.493000
v -5.340000 -15.438000 -13.982000
v -5.340000 -15.438000 -11.576000
v -4.840000 -15.438000 -13.498000
v -4.840000 -15.438000 -11.719000
v -7.840000 -22.076000 -19.318000
v -7.840000 -20.840000 -19.318000
v -7.340000 -22.557000 -19.318000
v -7.340000 -20.377000 -19.318000
v -6.840000 -23.002000 -19.318000
v -6.840000 -20.251000 -19.318000
v -6.340000 -23.165000 -19.318000
v -6.340000 -20.279000 -19.318000
v -5.840000 -23.025000 -19.318000
v -5.840000 -20.412000 -19.318000
v -5.340000 -22.605000 -19.318000
v -5.340000 -20.906000 -19.318000
v -8.340000 -20.731000 -15.318000
v -8.340000 -18.795000 -15.318000
v -7.840000 -21.048000 -15.318000
v -7.840000 -16.850000 -15.318000
v -7.340000 -21.089000 -15.318000
v -7.340000 -16.323000 -15.318000
v -6.840000 -20.846000 -15.318000
v -6.840000 -15.915000 -15.318000
v -6.340000 -20.269000 -15.318000
v -6.340000 -15.815000 -15.318000
v -5.840000 -19.831000 -15.318000
v -5.840000 -15.797000 -15.318000
v -5.340000 -19.397000 -15.318000
v -5.340000 -15.924000 -15.318000
v -4.840000 -18.905000 -15.318000
v -4.840000 -16.396000 -15.318000
v -8.840000 -16.945000 -11.318000
v -8.840000 -15.008000 -11.318000
v -8.340000 -17.269000 -11.318000
v -8.340000 -14.684000 -11.318000
v -7.840000 -17.363000 -11.318000
v -7.840000 -14.597000 -11.318000
v -7.340000 -17.317000 -11.318000
v -7.340000 -14.683000 -11.318000
v -6.840000 -17.195000 -11.318000
v -6.840000 -14.845000 -11.318000
v -6.340000 -17.129000 -11.318000
v -6.340000 -15.265000 -11.318000
v -5.840000 -16.982000 -11.318000
v -5.840000 -15.711000 -11.318000
v -5.340000 -16.950000 -11.318000
v -5.340000 -15.831000 -11.318000
v -4.840000 -16.588000 -11.318000
v -4.840000 -16.194000 -11.318000
v -6.926000 -22.938000 -19.318000
v -5.697000 -22.938000 -19.318000
v -7.457000 -22.938000 -18.818000
v -5.245000 -22.938000 -18.818000
v -7.645000 -22.938000 -18.318000
v -5.056000 -22.938000 -18.318000
v -7.669000 -22.938000 -17.818000
v -5.073000 -22.938000 -17.818000
v -7.576000 -22.938000 -17.318000
v -5.308000 -22.938000 -17.318000
v -6.911000 -22.938000 -16.818000
v -6.148000 -22.938000 -16.818000
v -8.009000 -18.938000 -17.318000
v -6.844000 -18.938000 -17.318000
v -8.443000 -18.938000 -16.818000
v -6.148000 -18.938000 -16.818000
v -8.607000 -18.938000 -16.318000
v -5.466000 -18.938000 -16.318000
v -8.606000 -18.938000 -15.818000
v -5.089000 -18.938000 -15.818000
v -8.394000 -18.938000 -15.318000
v -4.874000 -18.938000 -15.318000
v -7.996000 -18.938000 -14.818000
v -4.879000 -18.938000 -14.818000
v -7.459000 -18.938000 -14.318000
v -4.936000 -18.938000 -14.318000
v -6.974000 -18.938000 -13.818000
v -5.295000 -18.938000 -13.818000
v -7.998000 -14.938000 -12.818000
v -6.467000 -14.938000 -12.818000
v -8.409000 -14.938000 -12.318000
v -6.221000 -14.938000 -12.318000
v -8.758000 -14.938000 -11.818000
v -6.347000 -14.938000 -11.818000
v -8.766000 -14.938000 -11.318000
v -6.679000 -14.938000 -11.318000
v -8.440000 -14.938000 -10.818000
v -7.273000 -14.938000 -10.818000
v -7.340000 -22.938000 -18.977000
v -7.340000 -22.938000 -16.995000
v -6.840000 -22.938000 -19.367000
v -6.840000 -22.938000 -16.807000
v -6.340000 -22.938000 -19.513000
v -6.340000 -22.938000 -16.799000
v -5.840000 -22.938000 -19.404000
v -5.840000 -22.938000 -16.906000
v -5.340000 -22.938000 -18.959000
v -5.340000 -22.938000 -17.278000
v -8.340000 -18.938000 -17.001000
v -8.340000 -18.938000 -15.238000
v -7.840000 -18.938000 -17.392000
v -7.840000 -18.938000 -14.671000
v -7.340000 -18.938000 -17.430000
v -7.340000 -18.938000 -14.191000
v -6.840000 -18.938000 -17.317000
v -6.840000 -18.938000 -13.733000
v -6.340000 -18.938000 -16.990000
v -6.340000 -18.938000 -13.621000
v -5.840000 -18.938000 -16.577000
v -5.840000 -18.938000 -13.650000
v -5.340000 -18.938000 -16.186000
v -5.340000 -18.938000 -13.789000
v -8.340000 -14.938000 -12.390000
v -8.340000 -14.938000 -10.749000
v -7.840000 -14.938000 -12.929000
v -7.840000 -14.938000 -10.615000
v -7.340000 -14.938000 -13.058000
v -7.340000 -14.938000 -10.769000
v -6.840000 -14.938000 -13.002000
v -6.840000 -14.938000 -11.199000
v -6.340000 -14.938000 -12.683000
v -6.340000 -14.938000 -11.833000
v -7.840000 -22.375000 -18.818000
v -7.840000 -20.397000 -18.818000
v -7.340000 -23.142000 -18.818000
v -7.340000 -20.123000 -18.818000
v -6.840000 -23.553000 -18.818000
v -6.840000 -20.060000 -18.818000
v -6.340000 -23.656000 -18.818000
v -6.340000 -20.071000 -18.818000
v -5.840000 -23.543000 -18.818000
v -5.840000 -20.184000 -18.818000
v -5.340000 -23.111000 -18.818000
v -5.340000 -20.566000 -18.818000
v -7.840000 -19.739000 -14.818000
v -7.840000 -16.284000 -14.818000
v -7.340000 -20.032000 -14.818000
v -7.340000 -15.867000 -14.818000
v -6.840000 -19.974000 -14.818000
v -6.840000 -15.691000 -14.818000
v -6.340000 -19.874000 -14.818000
v -6.340000 -15.609000 -14.818000
v -5.840000 -19.714000 -14.818000
v -5.840000 -15.596000 -14.818000
v -5.340000 -19.378000 -14.818000
v -5.340000 -15.703000 -14.818000
v -4.840000 -18.899000 -14.818000
v -4.840000 -16.062000 -14.818000
v -4.340000 -18.095000 -14.818000
v -4.340000 -16.928000 -14.818000
v -8.840000 -16.649000 -10.818000
v -8.840000 -15.304000 -10.818000
v -8.340000 -17.065000 -10.818000
v -8.340000 -14.888000 -10.818000
v -7.840000 -17.168000 -10.818000
v -7.840000 -14.785000 -10.818000
v -7.340000 -17.050000 -10.818000
v -7.340000 -14.903000 -10.818000
v -6.840000 -16.646000 -10.818000
v -6.840000 -15.344000 -10.818000
v -6.565000 -22.438000 -19.818000
v -6.016000 -22.438000 -19.818000
v -7.509000 -22.438000 -19.318000
v -5.241000 -22.438000 -19.318000
v -7.787000 -22.438000 -18.818000
v -5.015000 -22.438000 -18.818000
v -7.856000 -22.438000 -18.318000
v -4.958000 -22.438000 -18.318000
v -8.055000 -22.438000 -17.818000
v -4.982000 -22.438000 -17.818000
v -8.292000 -22.438000 -17.318000
v -5.192000 -22.438000 -17.318000
v -8.276000 -22.438000 -16.818000
v -5.661000 -22.438000 -16.818000
v -7.921000 -22.438000 -16.318000
v -6.777000 -22.438000 -16.318000
v -7.989000 -18.438000 -16.818000
v -6.537000 -18.438000 -16.818000
v -8.289000 -18.438000 -16.318000
v -5.299000 -18.438000 -16.318000
v -8.306000 -18.438000 -15.818000
v -4.741000 -18.438000 -15.818000
v -8.222000 -18.438000 -15.318000
v -4.539000 -18.438000 -15.318000
v -8.064000 -18.438000 -14.818000
v -4.505000 -18.438000 -14.818000
v -7.822000 -18.438000 -14.318000
v -4.406000 -18.438000 -14.318000
v -7.470000 -18.438000 -13.818000
v -4.402000 -18.438000 -13.818000
v -6.939000 -18.438000 -13.318000
v -4.696000 -18.438000 -13.318000
v -7.840000 -22.438000 -18.417000
v -7.840000 -22.438000 -16.265000
v -7.340000 -22.438000 -19.454000
v -7.340000 -22.438000 -16.133000
v -6.840000 -22.438000 -19.726000
v -6.840000 -22.438000 -16.281000
v -6.340000 -22.438000 -19.846000
v -6.340000 -22.438000 -16.549000
v -5.840000 -22.438000 -19.767000
v -5.840000 -22.438000 -16.714000
v -5.340000 -22.438000 -19.436000
v -5.340000 -22.438000 -17.112000
v -7.840000 -18.438000 -16.930000
v -7.840000 -18.438000 -14.349000
v -7.340000 -18.438000 -17.079000
v -7.340000 -18.438000 -13.655000
v -6.840000 -18.438000 -16.962000
v -6.840000 -18.438000 -13.257000
v -6.340000 -18.438000 -16.728000
v -6.340000 -18.438000 -13.134000
v -5.840000 -18.438000 -16.517000
v -5.840000 -18.438000 -13.028000
v -5.340000 -18.438000 -16.341000
v -5.340000 -18.438000 -12.983000
v -4.840000 -18.438000 -15.948000
v -4.840000 -18.438000 -13.194000
v -8.340000 -21.628000 -18.318000
v -8.340000 -20.019000 -18.318000
v -7.840000 -22.464000 -18.318000
v -7.840000 -19.773000 -18.318000
v -7.340000 -23.416000 -18.318000
v -7.340000 -19.771000 -18.318000
v -6.840000 -23.742000 -18.318000
v -6.840000 -19.787000 -18.318000
v -6.340000 -23.831000 -18.318000
v -6.340000 -19.782000 -18.318000
v -5.840000 -23.734000 -18.318000
v -5.840000 -19.873000 -18.318000
v -5.340000 -23.393000 -18.318000
v -5.340000 -20.267000 -18.318000
v -7.840000 -18.412000 -14.318000
v -7.840000 -16.003000 -14.318000
v -7.340000 -19.080000 -14.318000
v -7.340000 -15.673000 -14.318000
v -6.840000 -19.486000 -14.318000
v -6.840000 -15.573000 -14.318000
v -6.340000 -19.597000 -14.318000
v -6.340000 -15.519000 -14.318000
v -5.840000 -19.486000 -14.318000
v -5.840000 -15.495000 -14.318000
v -5.340000 -19.201000 -14.318000
v -5.340000 -15.604000 -14.318000
v -4.840000 -18.846000 -14.318000
v -4.840000 -15.984000 -14.318000
v -4.340000 -18.366000 -14.318000
v -4.340000 -16.578000 -14.318000
v -8.340000 -16.424000 -10.318000
v -8.340000 -15.529000 -10.318000
v -7.840000 -16.635000 -10.318000
v -7.840000 -15.318000 -10.318000
v -7.340000 -16.385000 -10.318000
v -7.340000 -15.568000 -10.318000
v -7.322000 -21.938000 -19.818000
v -5.713000 -21.938000 -19.818000
v -7.911000 -21.938000 -19.318000
v -5.125000 -21.938000 -19.318000
v -8.101000 -21.938000 -18.818000
v -4.918000 -21.938000 -18.818000
v -8.180000 -21.938000 -18.318000
v -4.909000 -21.938000 -18.318000
v -8.437000 -21.938000 -17.818000
v -4.986000 -21.938000 -17.818000
v -8.636000 -21.938000 -17.318000
v -5.092000 -21.938000 -17.318000
v -8.625000 -21.938000 -16.818000
v -5.320000 -21.938000 -16.818000
v -8.404000 -21.938000 -16.318000
v -6.053000 -21.938000 -16.318000
v -7.595000 -21.938000 -15.818000
v -7.112000 -21.938000 -15.818000
v -7.481000 -17.938000 -16.318000
v -5.156000 -17.938000 -16.318000
v -7.944000 -17.938000 -15.818000
v -4.631000 -17.938000 -15.818000
v -8.094000 -17.938000 -15.318000
v -4.444000 -17.938000 -15.318000
v -8.134000 -17.938000 -14.818000
v -4.286000 -17.938000 -14.818000
v -8.094000 -17.938000 -14.318000
v -4.091000 -17.938000 -14.318000
v -7.904000 -17.938000 -13.818000
v -4.088000 -17.938000 -13.818000
v -7.719000 -17.938000 -13.318000
v -4.243000 -17.938000 -13.318000
v -7.475000 -17.938000 -12.818000
v -4.360000 -17.938000 -12.818000
v -6.061000 -17.938000 -12.318000
v -4.668000 -17.938000 -12.318000
v -8.340000 -21.938000 -17.963000
v -8.340000 -21.938000 -16.237000
v -7.840000 -21.938000 -19.418000
v -7.840000 -21.938000 -15.888000
v -7.340000 -21.938000 -19.810000
v -7.340000 -21.938000 -15.795000
v -6.840000 -21.938000 -19.925000
v -6.840000 -21.938000 -15.901000
v -6.340000 -21.938000 -19.942000
v -6.340000 -21.938000 -16.203000
v -5.840000 -21.938000 -19.868000
v -5.840000 -21.938000 -16.394000
v -5.340000 -21.938000 -19.570000
v -5.340000 -21.938000 -16.791000
v -7.840000 -17.938000 -16.001000
v -7.840000 -17.938000 -13.668000
v -7.340000 -17.938000 -16.367000
v -7.340000 -17.938000 -12.686000
v -6.840000 -17.938000 -16.492000
v -6.840000 -17.938000 -12.590000
v -6.340000 -17.938000 -16.505000
v -6.340000 -17.938000 -12.496000
v -5.840000 -17.938000 -16.494000
v -5.840000 -17.938000 -12.191000
v -5.340000 -17.938000 -16.402000
v -5.340000 -17.938000 -12.064000
v -4.840000 -17.938000 -16.083000
v -4.840000 -17.938000 -12.196000
v -4.340000 -17.938000 -14.952000
v -4.340000 -17.938000 -12.913000
v -8.840000 -21.078000 -17.818000
v -8.840000 -19.774000 -17.818000
v -8.340000 -22.106000 -17.818000
v -8.340000 -19.347000 -17.818000
v -7.840000 -22.704000 -17.818000
v -7.840000 -19.242000 -17.818000
v -7.340000 -23.392000 -17.818000
v -7.340000 -19.355000 -17.818000
v -6.840000 -23.725000 -17.818000
v -6.840000 -19.510000 -17.818000
v -6.340000 -23.815000 -17.818000
v -6.340000 -19.546000 -17.818000
v -5.840000 -23.716000 -17.818000
v -5.840000 -19.664000 -17.818000
v -5.340000 -23.369000 -17.818000
v -5.340000 -19.972000 -17.818000
v -7.840000 -18.037000 -13.818000
v -7.840000 -15.810000 -13.818000
v -7.340000 -18.600000 -13.818000
v -7.340000 -15.547000 -13.818000
v -6.840000 -19.005000 -13.818000
v -6.840000 -15.363000 -13.818000
v -6.340000 -19.108000 -13.818000
v -6.340000 -15.264000 -13.818000
v -5.840000 -19.076000 -13.818000
v -5.840000 -15.222000 -13.818000
v -5.340000 -18.957000 -13.818000
v -5.340000 -15.320000 -13.818000
v -4.840000 -18.739000 -13.818000
v -4.840000 -15.722000 -13.818000
v -4.340000 -18.371000 -13.818000
v -4.340000 -16.320000 -13.818000
v -7.510000 -21.438000 -19.818000
v -5.746000 -21.438000 -19.818000
v -8.010000 -21.438000 -19.318000
v -5.198000 -21.438000 -19.318000
v -8.199000 -21.438000 -18.818000
v -4.997000 -21.438000 -18.818000
v -8.422000 -21.438000 -18.318000
v -4.963000 -21.438000 -18.318000
v -8.637000 -21.438000 -17.818000
v -4.957000 -21.438000 -17.818000
v -8.833000 -21.438000 -17.318000
v -4.987000 -21.438000 -17.318000
v -8.865000 -21.438000 -16.818000
v -5.187000 -21.438000 -16.818000
v -8.823000 -21.438000 -16.318000
v -5.730000 -21.438000 -16.318000
v -8.501000 -21.438000 -15.818000
v -6.538000 -21.438000 -15.818000
v -6.468000 -17.438000 -16.318000
v -5.297000 -17.438000 -16.318000
v -7.593000 -17.438000 -15.818000
v -4.682000 -17.438000 -15.818000
v -8.009000 -17.438000 -15.318000
v -4.461000 -17.438000 -15.318000
v -8.190000 -17.438000 -14.818000
v -4.209000 -17.438000 -14.818000
v -8.193000 -17.438000 -14.318000
v -4.010000 -17.438000 -14.318000
v -8.140000 -17.438000 -13.818000
v -4.006000 -17.438000 -13.818000
v -8.152000 -17.438000 -13.318000
v -4.031000 -17.438000 -13.318000
v -8.295000 -17.438000 -12.818000
v -4.044000 -17.438000 -12.818000
v -8.314000 -17.438000 -12.318000
v -4.258000 -17.438000 -12.318000
v -8.115000 -17.438000 -11.818000
v -4.818000 -17.438000 -11.818000
v -8.840000 -21.438000 -17.282000
v -8.840000 -21.438000 -16.387000
v -8.340000 -21.438000 -18.469000
v -8.340000 -21.438000 -15.706000
v -7.840000 -21.438000 -19.550000
v -7.840000 -21.438000 -15.570000
v -7.340000 -21.438000 -19.902000
v -7.340000 -21.438000 -15.550000
v -6.840000 -21.438000 -20.009000
v -6.840000 -21.438000 -15.664000
v -6.340000 -21.438000 -19.972000
v -6.340000 -21.438000 -15.906000
v -5.840000 -21.438000 -19.862000
v -5.840000 -21.438000 -16.241000
v -5.340000 -21.438000 -19.504000
v -5.340000 -21.438000 -16.623000
v -7.840000 -17.438000 -15.576000
v -7.840000 -17.438000 -11.543000
v -7.340000 -17.438000 -15.961000
v -7.340000 -17.438000 -11.504000
v -6.840000 -17.438000 -16.137000
v -6.840000 -17.438000 -11.575000
v -6.340000 -17.438000 -16.355000
v -6.340000 -17.438000 -11.562000
v -5.840000 -17.438000 -16.424000
v -5.840000 -17.438000 -11.635000
v -5.340000 -17.438000 -16.335000
v -5.340000 -17.438000 -11.670000
v -4.840000 -17.438000 -16.009000
v -4.840000 -17.438000 -11.806000
v -4.340000 -17.438000 -15.029000
v -4.340000 -17.438000 -12.213000
v -8.840000 -21.426000 -17.318000
v -8.840000 -19.465000 -17.318000
v -8.340000 -22.391000 -17.318000
v -8.340000 -19.109000 -17.318000
v -7.840000 -22.754000 -17.318000
v -7.840000 -18.869000 -17.318000
v -7.340000 -23.119000 -17.318000
v -7.340000 -18.768000 -17.318000
v -6.840000 -23.490000 -17.318000
v -6.840000 -18.940000 -17.318000
v -6.340000 -23.599000 -17.318000
v -6.340000 -19.251000 -17.318000
v -5.840000 -23.480000 -17.318000
v -5.840000 -19.551000 -17.318000
v -5.340000 -23.000000 -17.318000
v -5.340000 -19.947000 -17.318000
v -8.340000 -17.120000 -13.318000
v -8.340000 -15.883000 -13.318000
v -7.840000 -17.817000 -13.318000
v -7.840000 -15.404000 -13.318000
v -7.340000 -18.213000 -13.318000
v -7.340000 -15.210000 -13.318000
v -6.840000 -18.490000 -13.318000
v -6.840000 -15.100000 -13.318000
v -6.340000 -18.602000 -13.318000
v -6.340000 -15.063000 -13.318000
v -5.840000 -18.651000 -13.318000
v -5.840000 -15.021000 -13.318000
v -5.340000 -18.658000 -13.318000
v -5.340000 -15.104000 -13.318000
v -4.840000 -18.526000 -13.318000
v -4.840000 -15.309000 -13.318000
v -4.340000 -18.083000 -13.318000
v -4.340000 -15.761000 -13.318000
f 810 783 81
f 193 15 810
f 15 783 810
f 15 13 783
f 15 125 13
f 127 125 15
f 127 235 125
f 237 235 127
f 237 194 235
f 235 194 82
f 195 687 83
f 83 687 685
f 785 810 81
f 685 785 81
f 687 785 685
f 193 810 785
f 359 82 194
f 359 194 361
f 361 483 359
f 485 483 361
f 485 196 483
f 483 196 84
f 197 593 85
f 85 593 591
f 83 591 593
f 83 593 195
f 595 84 196
f 595 196 597
f 597 198 595
f 595 198 86
f 199 85 87
f 199 197 85
f 198 691 725
f 88 198 725
f 86 198 88
f 691 200 725
f 510 479 89
f 87 479 510
f 201 87 510
f 199 87 201
f 727 90 88
f 727 88 725
f 725 200 727
f 727 200 202
f 91 512 89
f 89 512 510
f 618 594 201
f 510 618 201
f 512 618 510
f 203 594 618
f 596 629 92
f 629 596 90
f 727 629 90
f 729 629 727
f 789 831 202
f 831 727 202
f 831 729 727
f 789 204 831
f 480 512 91
f 93 620 480
f 620 512 480
f 620 618 512
f 720 688 203
f 618 720 203
f 620 720 618
f 205 688 720
f 484 527 94
f 527 484 92
f 629 527 92
f 631 527 629
f 629 731 631
f 629 729 731
f 729 833 731
f 729 831 833
f 21 73 204
f 73 831 204
f 73 833 831
f 21 206 73
f 592 620 93
f 95 722 592
f 722 620 592
f 722 720 620
f 824 786 205
f 720 824 205
f 722 824 720
f 786 824 60
f 786 60 16
f 16 60 172
f 16 172 128
f 128 172 96
f 236 128 96
f 238 128 236
f 360 238 236
f 360 362 238
f 527 486 94
f 486 360 94
f 486 362 360
f 486 527 207
f 527 633 207
f 527 631 633
f 631 733 633
f 631 731 733
f 731 835 733
f 731 833 835
f 208 835 22
f 835 73 22
f 835 833 73
f 73 206 22
f 686 722 95
f 784 824 686
f 686 824 722
f 14 60 784
f 784 60 824
f 126 172 14
f 14 172 60
f 96 172 126
f 633 598 207
f 598 633 692
f 692 633 733
f 692 733 790
f 790 733 835
f 835 208 790
f 209 147 173
f 173 147 281
f 281 147 257
f 281 257 405
f 405 257 377
f 377 210 405
f 211 37 97
f 97 37 35
f 37 209 173
f 145 37 173
f 35 37 145
f 281 255 145
f 281 145 173
f 405 375 255
f 405 255 281
f 210 499 531
f 210 531 98
f 405 210 98
f 375 405 98
f 499 212 531
f 213 805 99
f 99 805 803
f 97 803 805
f 97 805 211
f 531 497 98
f 531 212 497
f 212 100 497
f 212 214 100
f 726 705 101
f 99 705 726
f 215 99 726
f 213 99 215
f 100 216 102
f 214 216 100
f 103 728 101
f 101 728 726
f 215 726 728
f 215 728 217
f 102 218 104
f 216 218 102
f 105 730 103
f 103 730 728
f 217 728 730
f 217 730 219
f 498 539 106
f 498 104 539
f 104 220 539
f 104 218 220
f 730 105 707
f 105 221 707
f 105 107 221
f 219 730 707
f 106 539 500
f 222 106 500
f 108 106 222
f 539 220 500
f 223 107 109
f 223 221 107
f 108 224 110
f 222 224 108
f 225 109 111
f 225 223 109
f 110 226 112
f 224 226 110
f 111 706 225
f 225 706 708
f 227 708 706
f 227 706 113
f 378 228 114
f 378 114 376
f 376 112 378
f 378 112 226
f 113 804 227
f 227 804 806
f 36 806 804
f 36 38 806
f 146 38 36
f 146 148 38
f 256 148 146
f 256 258 148
f 256 114 258
f 258 114 228
f 301 771 815
f 771 302 815
f 303 673 715
f 301 815 673
f 815 715 673
f 815 817 715
f 1 53 302
f 53 815 302
f 53 817 815
f 1 304 53
f 305 579 617
f 303 715 579
f 715 617 579
f 715 717 617
f 715 819 717
f 715 817 819
f 817 55 819
f 817 53 55
f 53 304 55
f 55 304 306
f 617 580 305
f 580 617 307
f 617 719 307
f 617 717 719
f 717 821 719
f 717 819 821
f 308 821 2
f 821 55 2
f 821 819 55
f 55 306 2
f 719 674 307
f 674 719 772
f 772 719 821
f 821 308 772
f 309 17 193
f 193 17 15
f 17 127 15
f 129 127 17
f 129 237 127
f 239 237 129
f 239 310 237
f 237 310 194
f 710 687 195
f 311 787 710
f 787 687 710
f 787 785 687
f 193 785 787
f 193 787 309
f 361 194 310
f 361 310 363
f 363 485 361
f 487 485 363
f 487 312 485
f 485 312 196
f 612 593 197
f 593 612 195
f 612 710 195
f 612 712 710
f 311 710 712
f 311 712 313
f 597 196 312
f 597 312 599
f 198 597 723
f 597 693 723
f 597 599 693
f 693 314 723
f 199 614 197
f 197 614 612
f 614 315 689
f 712 614 689
f 612 614 712
f 313 712 689
f 723 691 198
f 314 791 827
f 314 827 200
f 723 314 200
f 691 723 200
f 791 316 827
f 201 616 199
f 199 616 614
f 716 690 315
f 614 716 315
f 616 716 614
f 317 690 716
f 829 202 200
f 829 200 827
f 23 69 316
f 69 827 316
f 69 829 827
f 23 318 69
f 594 616 201
f 203 718 594
f 718 616 594
f 718 716 616
f 820 788 317
f 716 820 317
f 718 820 716
f 319 788 820
f 829 789 202
f 71 204 789
f 829 71 789
f 69 71 829
f 133 183 318
f 183 69 318
f 183 71 69
f 133 320 183
f 688 718 203
f 205 822 688
f 822 718 688
f 822 820 718
f 58 18 319
f 820 58 319
f 822 58 820
f 18 58 170
f 18 170 130
f 321 130 170
f 71 21 204
f 185 206 21
f 71 185 21
f 183 185 71
f 183 320 185
f 185 320 322
f 786 822 205
f 16 58 786
f 786 58 822
f 128 170 16
f 16 170 58
f 170 128 321
f 128 240 321
f 128 238 240
f 362 240 238
f 362 364 240
f 486 529 323
f 364 486 323
f 362 486 364
f 207 529 486
f 22 75 208
f 75 22 206
f 185 75 206
f 187 75 185
f 185 322 187
f 187 322 324
f 529 488 323
f 635 325 598
f 598 325 207
f 325 488 207
f 488 529 207
f 692 735 635
f 692 635 598
f 790 837 735
f 790 735 692
f 837 790 208
f 75 837 208
f 77 837 75
f 326 77 134
f 77 187 134
f 77 75 187
f 187 324 134
f 635 600 325
f 600 635 694
f 694 635 735
f 694 735 792
f 792 735 837
f 792 837 24
f 24 837 77
f 77 326 24
f 327 149 209
f 209 149 147
f 149 257 147
f 259 257 149
f 259 377 257
f 379 377 259
f 379 328 377
f 377 328 210
f 329 39 211
f 211 39 37
f 209 37 39
f 209 39 327
f 499 210 328
f 499 328 501
f 501 330 499
f 499 330 212
f 331 807 213
f 213 807 805
f 211 805 807
f 211 807 329
f 212 332 214
f 330 332 212
f 333 213 215
f 333 331 213
f 214 334 216
f 332 334 214
f 335 215 217
f 335 333 215
f 216 336 218
f 334 336 216
f 337 217 219
f 337 335 217
f 502 338 540
f 540 220 502
f 220 336 502
f 220 218 336
f 732 707 221
f 219 707 732
f 339 219 732
f 337 219 339
f 222 500 540
f 338 222 540
f 340 222 338
f 220 540 500
f 223 734 221
f 221 734 732
f 339 732 734
f 339 734 341
f 222 342 224
f 340 342 222
f 225 736 223
f 223 736 734
f 341 734 736
f 341 736 343
f 224 344 226
f 342 344 224
f 708 736 225
f 808 343 840
f 840 343 227
f 343 736 227
f 736 708 227
f 808 840 80
f 808 80 40
f 345 40 80
f 380 346 228
f 380 228 378
f 378 226 380
f 380 226 344
f 806 840 227
f 38 80 806
f 806 80 840
f 80 38 345
f 38 150 345
f 38 148 150
f 258 150 148
f 258 260 150
f 258 228 260
f 260 228 346
f 423 675 711
f 711 675 813
f 813 675 773
f 813 773 49
f 49 773 3
f 3 424 49
f 425 581 613
f 423 711 581
f 711 613 581
f 711 713 613
f 813 771 301
f 713 813 301
f 711 813 713
f 51 302 771
f 813 51 771
f 49 51 813
f 115 163 424
f 163 49 424
f 163 51 49
f 115 426 163
f 427 469 509
f 425 613 469
f 613 509 469
f 613 615 509
f 713 673 303
f 615 713 303
f 613 713 615
f 713 301 673
f 51 1 302
f 165 304 1
f 51 165 1
f 163 165 51
f 163 426 165
f 165 426 428
f 511 429 509
f 509 429 427
f 615 579 305
f 511 615 305
f 509 615 511
f 615 303 579
f 167 306 304
f 167 304 165
f 165 428 167
f 167 428 430
f 513 431 511
f 511 431 429
f 511 305 580
f 619 511 580
f 513 511 619
f 307 619 580
f 2 57 308
f 57 2 306
f 167 57 306
f 169 57 167
f 167 430 169
f 169 430 432
f 513 470 431
f 470 513 433
f 513 621 433
f 513 619 621
f 619 307 674
f 721 619 674
f 621 619 721
f 772 823 721
f 772 721 674
f 823 772 308
f 57 823 308
f 59 823 57
f 434 59 116
f 59 169 116
f 59 57 169
f 169 432 116
f 621 582 433
f 582 621 676
f 676 621 721
f 676 721 774
f 774 721 823
f 774 823 4
f 4 823 59
f 59 434 4
f 46 17 309
f 158 129 46
f 46 129 17
f 268 239 158
f 158 239 129
f 268 310 239
f 812 787 311
f 787 812 309
f 812 46 309
f 812 48 46
f 48 435 131
f 158 48 131
f 46 48 158
f 158 131 241
f 158 241 268
f 363 310 268
f 241 363 268
f 365 363 241
f 365 487 363
f 489 487 365
f 489 436 487
f 487 436 312
f 313 814 311
f 311 814 812
f 814 437 19
f 48 814 19
f 812 814 48
f 435 48 19
f 599 312 436
f 599 436 601
f 601 693 599
f 695 693 601
f 314 693 825
f 693 793 825
f 693 695 793
f 825 793 65
f 65 793 25
f 25 438 65
f 714 689 315
f 689 714 313
f 714 814 313
f 714 816 814
f 437 814 816
f 437 816 439
f 825 791 314
f 67 316 791
f 825 67 791
f 65 67 825
f 135 179 438
f 179 65 438
f 179 67 65
f 135 440 179
f 690 714 315
f 317 818 690
f 818 714 690
f 818 816 714
f 54 20 439
f 816 54 439
f 818 54 816
f 441 20 54
f 67 23 316
f 181 318 23
f 67 181 23
f 179 181 67
f 245 289 440
f 289 179 440
f 289 181 179
f 245 442 289
f 788 818 317
f 319 56 788
f 56 818 788
f 56 54 818
f 168 132 441
f 54 168 441
f 56 168 54
f 443 132 168
f 181 133 318
f 291 320 133
f 181 291 133
f 289 291 181
f 289 442 291
f 291 442 444
f 18 56 319
f 130 168 18
f 18 168 56
f 242 443 280
f 280 443 321
f 443 168 321
f 168 130 321
f 445 242 280
f 293 322 320
f 293 320 291
f 291 444 293
f 293 444 446
f 240 280 321
f 280 240 445
f 240 366 445
f 240 364 366
f 447 366 364
f 447 364 323
f 295 324 322
f 295 322 293
f 293 446 295
f 295 446 448
f 323 488 447
f 447 488 490
f 449 490 488
f 449 488 325
f 134 189 326
f 295 246 324
f 324 246 134
f 246 450 134
f 450 189 134
f 295 448 246
f 325 600 449
f 449 600 602
f 694 602 600
f 694 696 602
f 792 696 694
f 792 794 696
f 24 794 792
f 24 26 794
f 189 136 326
f 136 24 326
f 136 26 24
f 189 450 136
f 451 41 61
f 61 41 327
f 41 149 327
f 41 151 149
f 151 259 149
f 261 259 151
f 261 379 259
f 381 379 261
f 381 452 379
f 379 452 328
f 39 329 61
f 329 451 61
f 329 453 451
f 61 327 39
f 501 328 452
f 501 452 503
f 503 454 501
f 501 454 330
f 826 807 331
f 329 807 826
f 455 329 826
f 453 329 455
f 330 456 332
f 454 456 330
f 333 828 331
f 331 828 826
f 455 826 828
f 455 828 457
f 332 458 334
f 456 458 332
f 335 830 333
f 333 830 828
f 457 828 830
f 457 830 459
f 334 460 336
f 458 460 334
f 337 832 335
f 335 832 830
f 459 830 832
f 459 832 461
f 504 462 338
f 504 338 502
f 502 336 504
f 504 336 460
f 339 834 337
f 337 834 832
f 461 832 834
f 461 834 463
f 382 464 418
f 418 340 382
f 340 462 382
f 340 338 462
f 341 836 339
f 339 836 834
f 463 834 836
f 463 836 465
f 466 420 418
f 466 418 464
f 340 418 342
f 342 418 420
f 343 838 341
f 341 838 836
f 78 42 465
f 836 78 465
f 838 78 836
f 467 42 78
f 262 468 298
f 420 466 262
f 298 420 262
f 422 420 298
f 342 420 344
f 344 420 422
f 808 838 343
f 40 78 808
f 808 78 838
f 152 467 192
f 192 467 345
f 467 78 345
f 78 40 345
f 298 468 152
f 192 298 152
f 300 298 192
f 380 422 346
f 422 300 346
f 422 298 300
f 344 422 380
f 150 192 345
f 260 300 150
f 150 300 192
f 346 300 260
f 541 677 423
f 423 677 675
f 677 773 675
f 775 773 677
f 775 3 773
f 5 3 775
f 424 3 161
f 3 117 161
f 3 5 117
f 117 542 161
f 543 471 507
f 507 471 425
f 471 581 425
f 471 583 581
f 423 581 583
f 423 583 541
f 161 115 424
f 161 542 115
f 542 426 115
f 542 544 426
f 545 347 387
f 543 507 347
f 347 507 387
f 507 469 387
f 469 427 387
f 507 425 469
f 426 546 428
f 544 546 426
f 389 547 387
f 387 547 545
f 387 427 429
f 387 429 389
f 428 548 430
f 546 548 428
f 391 549 389
f 389 549 547
f 389 429 431
f 389 431 391
f 430 550 432
f 548 550 430
f 391 348 549
f 515 551 470
f 470 551 431
f 551 348 431
f 348 391 431
f 433 515 470
f 118 552 434
f 118 434 116
f 116 432 118
f 118 432 550
f 515 472 551
f 433 582 515
f 582 472 515
f 582 584 472
f 676 584 582
f 676 678 584
f 774 678 676
f 774 776 678
f 4 776 774
f 4 6 776
f 4 434 6
f 6 434 552
f 160 131 435
f 270 241 160
f 160 241 131
f 394 365 270
f 270 365 241
f 518 489 394
f 394 489 365
f 518 436 489
f 50 19 437
f 19 50 435
f 50 160 435
f 50 162 160
f 272 160 162
f 270 160 272
f 272 553 367
f 394 272 367
f 270 272 394
f 394 367 491
f 394 491 518
f 601 436 518
f 491 601 518
f 603 601 491
f 603 695 601
f 697 695 603
f 697 793 695
f 795 793 697
f 795 25 793
f 27 25 795
f 438 25 177
f 25 137 177
f 25 27 137
f 137 554 177
f 439 52 437
f 437 52 50
f 164 50 52
f 162 50 164
f 164 555 243
f 272 164 243
f 162 164 272
f 553 272 243
f 177 135 438
f 554 247 287
f 554 287 440
f 177 554 440
f 135 177 440
f 247 556 287
f 20 52 439
f 441 166 20
f 166 52 20
f 166 164 52
f 555 164 166
f 555 166 557
f 287 245 440
f 287 556 245
f 556 442 245
f 556 558 442
f 132 166 441
f 244 557 278
f 278 557 443
f 557 166 443
f 166 132 443
f 559 244 278
f 442 560 444
f 558 560 442
f 242 278 443
f 559 278 242
f 445 559 242
f 561 559 445
f 444 562 446
f 560 562 444
f 445 366 561
f 561 366 368
f 563 368 366
f 563 366 447
f 446 564 448
f 562 564 446
f 447 490 563
f 563 490 492
f 565 492 490
f 565 490 449
f 248 566 450
f 248 450 246
f 246 448 248
f 248 448 564
f 449 602 565
f 565 602 604
f 696 737 567
f 604 696 567
f 602 696 604
f 794 839 737
f 794 737 696
f 26 79 839
f 26 839 794
f 138 568 79
f 26 138 79
f 136 138 26
f 136 450 138
f 138 450 566
f 737 698 567
f 698 737 796
f 796 737 839
f 796 839 28
f 28 839 79
f 79 568 28
f 62 41 451
f 569 153 62
f 153 41 62
f 153 151 41
f 153 261 151
f 263 261 153
f 263 381 261
f 383 381 263
f 383 570 381
f 381 570 452
f 62 451 43
f 451 571 43
f 451 453 571
f 569 62 43
f 503 452 570
f 503 570 505
f 505 572 503
f 503 572 454
f 573 453 455
f 573 571 453
f 454 574 456
f 572 574 454
f 575 455 457
f 575 573 455
f 456 576 458
f 574 576 456
f 44 575 70
f 575 459 70
f 575 457 459
f 577 44 70
f 506 578 538
f 538 460 506
f 460 576 506
f 460 458 576
f 461 72 459
f 459 72 70
f 184 154 577
f 70 184 577
f 72 184 70
f 154 184 292
f 154 292 264
f 264 292 416
f 264 416 384
f 538 578 384
f 538 384 416
f 504 538 416
f 462 504 416
f 460 538 504
f 463 74 461
f 461 74 72
f 186 72 74
f 184 72 186
f 294 184 186
f 292 184 294
f 382 416 464
f 416 294 464
f 416 292 294
f 462 416 382
f 465 76 463
f 463 76 74
f 188 74 76
f 186 74 188
f 296 186 188
f 294 186 296
f 464 294 466
f 466 294 296
f 42 76 465
f 467 190 42
f 190 76 42
f 190 188 76
f 262 296 468
f 296 190 468
f 296 188 190
f 466 296 262
f 152 190 467
f 468 190 152
f 637 777 811
f 811 777 47
f 47 777 7
f 47 7 159
f 159 7 119
f 119 638 159
f 639 585 611
f 611 585 541
f 585 677 541
f 585 679 677
f 679 637 811
f 775 679 811
f 677 679 775
f 47 5 775
f 47 775 811
f 159 117 5
f 159 5 47
f 638 229 271
f 638 271 542
f 159 638 542
f 117 159 542
f 229 640 271
f 641 473 543
f 543 473 471
f 473 639 611
f 583 473 611
f 471 473 583
f 611 541 583
f 273 544 542
f 273 542 271
f 271 640 273
f 273 640 642
f 643 349 545
f 545 349 347
f 543 347 349
f 543 349 641
f 275 546 544
f 275 544 273
f 273 642 275
f 275 642 644
f 645 545 547
f 645 643 545
f 277 548 546
f 277 546 275
f 275 644 277
f 277 644 646
f 647 547 549
f 647 645 547
f 279 550 548
f 279 548 277
f 277 646 279
f 279 646 648
f 549 348 647
f 647 348 350
f 649 350 348
f 649 348 551
f 118 171 552
f 279 230 550
f 550 230 118
f 230 650 118
f 650 171 118
f 279 648 230
f 551 472 649
f 649 472 474
f 584 474 472
f 584 586 474
f 678 586 584
f 678 680 586
f 776 680 678
f 776 778 680
f 6 778 776
f 6 8 778
f 171 120 552
f 120 6 552
f 120 8 6
f 171 650 120
f 396 367 553
f 520 491 396
f 396 491 367
f 624 603 520
f 520 603 491
f 651 699 624
f 699 603 624
f 699 697 603
f 699 795 697
f 797 795 699
f 797 27 795
f 29 27 797
f 29 137 27
f 139 137 29
f 139 652 137
f 137 652 554
f 274 243 555
f 243 274 553
f 274 396 553
f 274 398 396
f 398 653 493
f 520 398 493
f 396 398 520
f 520 493 605
f 520 605 624
f 651 624 605
f 247 554 652
f 247 652 249
f 249 654 247
f 247 654 556
f 557 276 555
f 555 276 274
f 276 655 369
f 398 276 369
f 274 276 398
f 653 398 369
f 556 656 558
f 654 656 556
f 244 276 557
f 655 276 244
f 559 655 244
f 657 655 559
f 558 658 560
f 656 658 558
f 659 559 561
f 659 657 559
f 560 660 562
f 658 660 560
f 561 368 659
f 659 368 370
f 661 370 368
f 661 368 563
f 562 662 564
f 660 662 562
f 563 492 661
f 661 492 494
f 663 494 492
f 663 492 565
f 250 664 566
f 250 566 248
f 248 564 250
f 250 564 662
f 565 604 663
f 663 604 606
f 665 606 604
f 665 604 567
f 140 666 568
f 140 568 138
f 138 566 140
f 140 566 664
f 567 698 665
f 665 698 700
f 796 700 698
f 796 798 700
f 28 798 796
f 28 30 798
f 28 568 30
f 30 568 666
f 174 153 569
f 282 263 174
f 174 263 153
f 406 383 282
f 282 383 263
f 406 570 383
f 64 43 571
f 43 64 569
f 64 174 569
f 64 176 174
f 176 667 265
f 282 176 265
f 174 176 282
f 282 265 668
f 408 282 668
f 406 282 408
f 570 406 505
f 406 532 505
f 406 408 532
f 532 572 505
f 573 66 571
f 571 66 64
f 66 669 155
f 176 66 155
f 64 66 176
f 667 176 155
f 385 408 668
f 408 385 670
f 534 408 670
f 532 408 534
f 572 532 574
f 574 532 534
f 575 68 573
f 573 68 66
f 180 156 669
f 66 180 669
f 68 180 66
f 671 156 180
f 386 672 412
f 534 670 386
f 412 534 386
f 536 534 412
f 574 534 576
f 576 534 536
f 44 68 575
f 577 182 44
f 182 68 44
f 182 180 68
f 290 266 671
f 180 290 671
f 182 290 180
f 412 672 266
f 290 412 266
f 414 412 290
f 506 536 578
f 536 414 578
f 536 412 414
f 576 536 506
f 154 182 577
f 264 290 154
f 154 290 182
f 384 414 264
f 264 414 290
f 578 414 384
f 739 9 45
f 45 9 157
f 157 9 121
f 157 121 267
f 267 121 231
f 231 740 267
f 741 681 709
f 709 681 637
f 681 777 637
f 681 779 777
f 779 739 45
f 7 779 45
f 777 779 7
f 157 119 7
f 157 7 45
f 269 638 119
f 157 269 119
f 267 269 157
f 355 393 740
f 393 267 740
f 393 269 267
f 355 742 393
f 743 587 639
f 639 587 585
f 587 741 709
f 679 587 709
f 585 587 679
f 709 637 679
f 269 229 638
f 395 640 229
f 269 395 229
f 393 395 269
f 393 742 395
f 395 742 744
f 745 475 641
f 641 475 473
f 639 473 475
f 639 475 743
f 397 642 640
f 397 640 395
f 395 744 397
f 397 744 746
f 747 351 643
f 643 351 349
f 641 349 351
f 641 351 745
f 642 397 356
f 748 642 356
f 644 642 748
f 397 746 356
f 749 643 645
f 749 747 643
f 644 750 646
f 748 750 644
f 751 645 647
f 751 749 645
f 646 752 648
f 750 752 646
f 647 350 751
f 751 350 352
f 753 352 350
f 753 350 649
f 232 754 650
f 232 650 230
f 230 648 232
f 232 648 752
f 649 474 753
f 753 474 476
f 586 476 474
f 586 588 476
f 680 588 586
f 680 682 588
f 778 682 680
f 778 780 682
f 8 780 778
f 8 10 780
f 120 10 8
f 120 122 10
f 120 650 122
f 122 650 754
f 755 701 651
f 651 701 699
f 701 797 699
f 799 797 701
f 799 29 797
f 31 29 799
f 31 139 29
f 141 139 31
f 652 139 285
f 139 251 285
f 139 141 251
f 251 756 285
f 522 493 653
f 757 607 522
f 607 493 522
f 607 605 493
f 651 605 607
f 651 607 755
f 285 249 652
f 285 756 249
f 756 654 249
f 756 758 654
f 400 369 655
f 495 522 653
f 495 653 369
f 759 495 369
f 400 759 369
f 757 522 495
f 758 371 413
f 656 758 413
f 654 758 656
f 371 760 413
f 657 402 655
f 655 402 400
f 759 400 402
f 759 402 761
f 415 658 656
f 415 656 413
f 413 760 415
f 415 760 762
f 659 404 657
f 657 404 402
f 761 402 404
f 761 404 763
f 417 660 658
f 417 658 415
f 415 762 417
f 417 762 764
f 370 404 659
f 763 404 370
f 661 763 370
f 765 763 661
f 419 662 660
f 419 660 417
f 417 764 419
f 419 764 766
f 661 494 765
f 765 494 496
f 767 496 494
f 767 494 663
f 250 297 664
f 419 372 662
f 662 372 250
f 372 768 250
f 768 297 250
f 419 766 372
f 663 606 767
f 767 606 608
f 769 608 606
f 769 606 665
f 140 191 666
f 297 252 664
f 664 252 140
f 252 770 140
f 770 191 140
f 297 768 252
f 665 700 769
f 769 700 702
f 798 702 700
f 798 800 702
f 30 800 798
f 30 32 800
f 191 142 666
f 142 30 666
f 142 32 30
f 191 770 142
f 284 265 667
f 284 668 265
f 178 155 669
f 155 178 667
f 178 284 667
f 178 286 284
f 668 284 385
f 284 410 385
f 284 286 410
f 410 670 385
f 156 178 669
f 671 288 156
f 288 178 156
f 288 286 178
f 386 410 672
f 410 288 672
f 410 286 288
f 670 410 386
f 266 288 671
f 672 288 266
f 841 11 739
f 739 11 9
f 11 121 9
f 123 121 11
f 123 231 121
f 233 231 123
f 233 842 231
f 231 842 740
f 843 683 741
f 741 683 681
f 683 779 681
f 781 779 683
f 739 779 781
f 739 781 841
f 355 740 842
f 355 842 357
f 357 844 355
f 355 844 742
f 845 589 743
f 743 589 587
f 741 587 589
f 741 589 843
f 844 481 519
f 744 844 519
f 742 844 744
f 481 846 519
f 847 477 745
f 745 477 475
f 743 475 477
f 743 477 845
f 521 746 744
f 521 744 519
f 519 846 521
f 521 846 848
f 849 353 747
f 747 353 351
f 745 351 353
f 745 353 847
f 356 399 748
f 521 482 746
f 746 482 356
f 482 850 356
f 850 399 356
f 521 848 482
f 851 747 749
f 851 849 747
f 401 750 748
f 401 748 399
f 399 850 401
f 401 850 852
f 853 749 751
f 853 851 749
f 750 401 358
f 854 750 358
f 752 750 854
f 401 852 358
f 751 352 853
f 853 352 354
f 855 354 352
f 855 352 753
f 234 856 754
f 234 754 232
f 232 752 234
f 234 752 854
f 753 476 855
f 855 476 478
f 588 478 476
f 588 590 478
f 682 590 588
f 682 684 590
f 780 684 682
f 780 782 684
f 10 782 780
f 10 12 782
f 122 12 10
f 122 124 12
f 122 754 124
f 124 754 856
f 857 33 63
f 63 33 175
f 175 33 143
f 175 143 283
f 283 143 253
f 253 858 283
f 724 701 755
f 859 801 724
f 801 701 724
f 801 799 701
f 801 857 63
f 31 801 63
f 799 801 31
f 175 141 31
f 175 31 63
f 283 251 141
f 283 141 175
f 858 373 409
f 858 409 756
f 283 858 756
f 251 283 756
f 373 860 409
f 626 607 757
f 703 724 755
f 703 755 607
f 861 703 607
f 626 861 607
f 859 724 703
f 411 758 756
f 411 756 409
f 409 860 411
f 411 860 862
f 524 495 759
f 609 626 757
f 609 757 495
f 863 609 495
f 524 863 495
f 861 626 609
f 411 371 758
f 411 862 371
f 862 760 371
f 862 864 760
f 761 526 759
f 759 526 524
f 863 524 526
f 863 526 865
f 760 866 762
f 864 866 760
f 763 528 761
f 761 528 526
f 865 526 528
f 865 528 867
f 762 868 764
f 866 868 762
f 765 530 763
f 763 530 528
f 867 528 530
f 867 530 869
f 764 870 766
f 868 870 764
f 496 530 765
f 869 530 496
f 767 869 496
f 871 869 767
f 372 421 768
f 372 766 421
f 766 872 421
f 766 870 872
f 767 608 871
f 871 608 610
f 873 610 608
f 873 608 769
f 252 299 770
f 421 374 768
f 768 374 252
f 374 874 252
f 874 299 252
f 421 872 374
f 769 702 873
f 873 702 704
f 800 704 702
f 800 802 704
f 32 802 800
f 32 34 802
f 142 34 32
f 142 144 34
f 299 254 770
f 254 142 770
f 254 144 142
f 299 874 254
f 81 783 809
f 809 783 841
f 783 11 841
f 783 13 11
f 13 123 11
f 125 123 13
f 125 233 123
f 235 233 125
f 235 82 233
f 233 82 842
f 83 685 843
f 843 685 683
f 685 81 809
f 781 685 809
f 683 685 781
f 809 841 781
f 357 842 82
f 357 82 359
f 844 357 517
f 357 483 517
f 357 359 483
f 483 84 517
f 85 591 845
f 845 591 589
f 843 589 591
f 843 591 83
f 517 481 844
f 84 595 623
f 84 623 846
f 517 84 846
f 481 517 846
f 595 86 623
f 508 477 847
f 845 477 508
f 87 845 508
f 85 845 87
f 625 848 846
f 625 846 623
f 623 86 625
f 625 86 88
f 388 353 849
f 479 508 847
f 479 847 353
f 89 479 353
f 388 89 353
f 87 508 479
f 482 523 850
f 523 482 848
f 625 523 848
f 627 523 625
f 625 88 627
f 627 88 90
f 851 390 849
f 849 390 388
f 89 388 390
f 89 390 91
f 525 852 850
f 525 850 523
f 92 525 596
f 525 627 596
f 525 523 627
f 627 90 596
f 853 392 851
f 851 392 390
f 514 480 91
f 390 514 91
f 392 514 390
f 93 480 514
f 358 403 854
f 525 484 852
f 852 484 358
f 484 94 358
f 94 403 358
f 525 92 484
f 354 392 853
f 855 516 354
f 516 392 354
f 516 514 392
f 622 592 93
f 514 622 93
f 516 622 514
f 95 592 622
f 236 96 856
f 236 856 234
f 403 360 854
f 360 234 854
f 360 236 234
f 403 94 360
f 478 516 855
f 590 622 478
f 478 622 516
f 622 590 95
f 590 686 95
f 590 684 686
f 782 686 684
f 782 784 686
f 12 784 782
f 12 14 784
f 124 14 12
f 124 126 14
f 124 856 126
f 126 856 96
f 97 35 857
f 857 35 33
f 35 143 33
f 145 143 35
f 145 253 143
f 255 253 145
f 858 253 407
f 253 375 407
f 253 255 375
f 375 98 407
f 99 803 859
f 859 803 801
f 857 801 803
f 857 803 97
f 407 373 858
f 98 497 533
f 98 533 860
f 407 98 860
f 373 407 860
f 497 100 533
f 101 705 861
f 861 705 703
f 859 703 705
f 859 705 99
f 535 862 860
f 535 860 533
f 533 100 535
f 535 100 102
f 628 609 863
f 861 609 628
f 103 861 628
f 101 861 103
f 537 864 862
f 537 862 535
f 535 102 537
f 537 102 104
f 865 630 863
f 863 630 628
f 103 628 630
f 103 630 105
f 864 537 498
f 106 864 498
f 866 864 106
f 537 104 498
f 867 632 865
f 865 632 630
f 105 630 632
f 105 632 107
f 866 108 868
f 106 108 866
f 869 634 867
f 867 634 632
f 107 632 634
f 107 634 109
f 868 110 870
f 108 110 868
f 871 636 869
f 869 636 634
f 109 634 636
f 109 636 111
f 870 112 872
f 110 112 870
f 610 636 871
f 706 111 738
f 738 111 873
f 111 636 873
f 636 610 873
f 113 706 738
f 376 114 874
f 376 874 374
f 374 872 376
f 376 872 112
f 704 738 873
f 738 704 113
f 704 804 113
f 704 802 804
f 34 804 802
f 34 36 804
f 144 36 34
f 144 146 36
f 254 146 144
f 254 256 146
f 254 874 256
f 256 874 114
