# Converted from NanoShaper .vert/.face
v 11.003000 -12.304000 11.258000
v 12.826000 -12.304000 11.258000
v 10.741000 -12.304000 11.758000
v 13.202000 -12.304000 11.758000
v 10.578000 -12.304000 12.258000
v 13.659000 -12.304000 12.258000
v 10.585000 -12.304000 12.758000
v 13.921000 -12.304000 12.758000
v 10.630000 -12.304000 13.258000
v 14.319000 -12.304000 13.258000
v 10.855000 -12.304000 13.758000
v 14.583000 -12.304000 13.758000
v 11.240000 -12.304000 14.258000
v 14.650000 -12.304000 14.258000
v 11.436000 -12.304000 14.758000
v 14.647000 -12.304000 14.758000
v 11.393000 -12.304000 15.258000
v 14.455000 -12.304000 15.258000
v 11.237000 -12.304000 15.758000
v 14.363000 -12.304000 15.758000
v 11.253000 -12.304000 16.258000
v 14.348000 -12.304000 16.258000
v 11.485000 -12.304000 16.758000
v 14.264000 -12.304000 16.758000
v 11.743000 -12.304000 17.258000
v 14.070000 -12.304000 17.258000
v 12.303000 -12.304000 17.758000
v 13.510000 -12.304000 17.758000
v 11.518000 -8.304000 9.758000
v 13.324000 -8.304000 9.758000
v 11.257000 -8.304000 10.258000
v 13.584000 -8.304000 10.258000
v 11.240000 -8.304000 10.758000
v 13.774000 -8.304000 10.758000
v 11.260000 -8.304000 11.258000
v 14.023000 -8.304000 11.258000
v 11.246000 -8.304000 11.758000
v 14.031000 -8.304000 11.758000
v 11.237000 -8.304000 12.258000
v 13.829000 -8.304000 12.258000
v 11.243000 -8.304000 12.758000
v 13.651000 -8.304000 12.758000
v 11.474000 -8.304000 13.258000
v 13.492000 -8.304000 13.258000
v 11.803000 -8.304000 13.758000
v 13.567000 -8.304000 13.758000
v 11.877000 -8.304000 14.258000
v 13.890000 -8.304000 14.258000
v 11.766000 -8.304000 14.758000
v 14.412000 -8.304000 14.758000
v 11.614000 -8.304000 15.258000
v 14.684000 -8.304000 15.258000
v 11.587000 -8.304000 15.758000
v 14.844000 -8.304000 15.758000
v 11.547000 -8.304000 16.258000
v 14.847000 -8.304000 16.258000
v 11.475000 -8.304000 16.758000
v 14.685000 -8.304000 16.758000
v 11.471000 -8.304000 17.258000
v 14.361000 -8.304000 17.258000
v 11.629000 -8.304000 17.758000
v 13.851000 -8.304000 17.758000
v 11.892000 -4.304000 17.258000
v 13.043000 -4.304000 17.258000
v 11.910000 -4.304000 17.758000
v 13.033000 -4.304000 17.758000
v 8.853000 -4.304000 18.258000
v 10.617000 -4.304000 18.258000
v 12.030000 -4.304000 18.258000
v 12.944000 -4.304000 18.258000
v 7.939000 -4.304000 18.758000
v 10.646000 -4.304000 18.758000
v 7.720000 -4.304000 19.258000
v 10.660000 -4.304000 19.258000
v 7.733000 -4.304000 19.758000
v 10.601000 -4.304000 19.758000
v 7.984000 -4.304000 20.258000
v 10.341000 -4.304000 20.258000
v 10.946000 -12.304000 11.338000
v 10.946000 -12.304000 13.871000
v 11.446000 -12.304000 10.914000
v 11.446000 -12.304000 16.686000
v 11.946000 -12.304000 10.816000
v 11.946000 -12.304000 17.507000
v 12.446000 -12.304000 10.944000
v 12.446000 -12.304000 17.818000
v 12.946000 -12.304000 11.435000
v 12.946000 -12.304000 17.897000
v 13.446000 -12.304000 11.995000
v 13.446000 -12.304000 17.787000
v 13.946000 -12.304000 12.804000
v 13.946000 -12.304000 17.425000
v 14.446000 -12.304000 13.430000
v 14.446000 -12.304000 15.286000
v 11.446000 -8.304000 9.849000
v 11.446000 -8.304000 13.220000
v 11.946000 -8.304000 9.446000
v 11.946000 -8.304000 18.075000
v 12.446000 -8.304000 9.348000
v 12.446000 -8.304000 18.246000
v 12.946000 -8.304000 9.468000
v 12.946000 -8.304000 18.251000
v 13.446000 -8.304000 9.925000
v 13.446000 -8.304000 18.123000
v 13.946000 -8.304000 11.037000
v 13.946000 -8.304000 12.017000
v 13.946000 -8.304000 14.326000
v 13.946000 -8.304000 17.656000
v 14.446000 -8.304000 14.800000
v 14.446000 -8.304000 17.156000
v 7.946000 -4.304000 18.749000
v 7.946000 -4.304000 20.209000
v 8.446000 -4.304000 18.363000
v 8.446000 -4.304000 20.595000
v 8.946000 -4.304000 18.236000
v 8.946000 -4.304000 20.687000
v 9.446000 -4.304000 18.060000
v 9.446000 -4.304000 20.672000
v 9.946000 -4.304000 17.851000
v 9.946000 -4.304000 20.560000
v 10.446000 -4.304000 18.031000
v 10.446000 -4.304000 20.114000
v 11.946000 -4.304000 17.154000
v 11.946000 -4.304000 17.884000
v 12.446000 -4.304000 16.867000
v 12.446000 -4.304000 18.518000
v 12.946000 -4.304000 17.092000
v 12.946000 -4.304000 18.255000
v 10.946000 -12.231000 11.258000
v 10.946000 -8.624000 11.258000
v 11.446000 -12.635000 11.258000
v 11.446000 -8.087000 11.258000
v 11.946000 -12.749000 11.258000
v 11.946000 -7.760000 11.258000
v 12.446000 -12.607000 11.258000
v 12.446000 -7.670000 11.258000
v 12.946000 -12.138000 11.258000
v 12.946000 -7.715000 11.258000
v 13.446000 -10.808000 11.258000
v 13.446000 -7.832000 11.258000
v 13.946000 -10.233000 11.258000
v 13.946000 -8.204000 11.258000
v 11.446000 -12.372000 15.258000
v 11.446000 -10.603000 15.258000
v 11.946000 -12.744000 15.258000
v 11.946000 -7.534000 15.258000
v 12.446000 -13.073000 15.258000
v 12.446000 -6.097000 15.258000
v 12.946000 -13.187000 15.258000
v 12.946000 -5.879000 15.258000
v 13.446000 -13.118000 15.258000
v 13.446000 -5.926000 15.258000
v 13.946000 -12.872000 15.258000
v 13.946000 -6.232000 15.258000
v 14.446000 -12.320000 15.258000
v 14.446000 -7.449000 15.258000
v 7.946000 -6.954000 19.258000
v 7.946000 -4.019000 19.258000
v 8.446000 -7.304000 19.258000
v 8.446000 -3.708000 19.258000
v 8.946000 -7.524000 19.258000
v 8.946000 -3.629000 19.258000
v 9.446000 -7.819000 19.258000
v 9.446000 -3.684000 19.258000
v 9.946000 -7.917000 19.258000
v 9.946000 -3.779000 19.258000
v 10.446000 -7.987000 19.258000
v 10.446000 -4.110000 19.258000
v 10.946000 -7.948000 19.258000
v 10.946000 -4.507000 19.258000
v 11.446000 -7.928000 19.258000
v 11.446000 -4.674000 19.258000
v 11.946000 -7.838000 19.258000
v 11.946000 -4.735000 19.258000
v 12.446000 -7.756000 19.258000
v 12.446000 -4.862000 19.258000
v 12.946000 -7.635000 19.258000
v 12.946000 -5.199000 19.258000
v 13.446000 -7.184000 19.258000
v 13.446000 -5.595000 19.258000
v 11.226000 -11.804000 10.758000
v 12.615000 -11.804000 10.758000
v 10.746000 -11.804000 11.258000
v 13.083000 -11.804000 11.258000
v 10.561000 -11.804000 11.758000
v 13.407000 -11.804000 11.758000
v 10.543000 -11.804000 12.258000
v 13.843000 -11.804000 12.258000
v 10.563000 -11.804000 12.758000
v 14.337000 -11.804000 12.758000
v 10.597000 -11.804000 13.258000
v 14.611000 -11.804000 13.258000
v 10.788000 -11.804000 13.758000
v 14.778000 -11.804000 13.758000
v 11.115000 -11.804000 14.258000
v 14.837000 -11.804000 14.258000
v 11.253000 -11.804000 14.758000
v 14.834000 -11.804000 14.758000
v 11.190000 -11.804000 15.258000
v 14.633000 -11.804000 15.258000
v 11.045000 -11.804000 15.758000
v 14.429000 -11.804000 15.758000
v 11.059000 -11.804000 16.258000
v 14.363000 -11.804000 16.258000
v 11.275000 -11.804000 16.758000
v 14.322000 -11.804000 16.758000
v 11.729000 -11.804000 17.258000
v 14.135000 -11.804000 17.258000
v 12.287000 -11.804000 17.758000
v 13.599000 -11.804000 17.758000
v 11.805000 -7.804000 10.258000
v 13.036000 -7.804000 10.258000
v 11.775000 -7.804000 10.758000
v 13.106000 -7.804000 10.758000
v 11.844000 -7.804000 11.258000
v 13.374000 -7.804000 11.258000
v 11.841000 -7.804000 11.758000
v 13.393000 -7.804000 11.758000
v 11.798000 -7.804000 12.258000
v 13.083000 -7.804000 12.258000
v 11.798000 -7.804000 12.758000
v 13.023000 -7.804000 12.758000
v 12.552000 -7.804000 14.258000
v 13.064000 -7.804000 14.258000
v 12.092000 -7.804000 14.758000
v 14.059000 -7.804000 14.758000
v 11.808000 -7.804000 15.258000
v 14.572000 -7.804000 15.258000
v 11.633000 -7.804000 15.758000
v 14.761000 -7.804000 15.758000
v 11.481000 -7.804000 16.258000
v 14.779000 -7.804000 16.258000
v 11.326000 -7.804000 16.758000
v 14.761000 -7.804000 16.758000
v 11.118000 -7.804000 17.258000
v 14.597000 -7.804000 17.258000
v 10.730000 -7.804000 17.758000
v 14.297000 -7.804000 17.758000
v 9.954000 -7.804000 18.258000
v 13.883000 -7.804000 18.258000
v 9.417000 -7.804000 18.758000
v 13.166000 -7.804000 18.758000
v 9.407000 -7.804000 19.258000
v 12.089000 -7.804000 19.258000
v 9.430000 -7.804000 19.758000
v 11.199000 -7.804000 19.758000
v 8.235000 -3.804000 19.258000
v 10.006000 -3.804000 19.258000
v 8.256000 -3.804000 19.758000
v 9.996000 -3.804000 19.758000
v 10.946000 -11.804000 11.005000
v 10.946000 -11.804000 13.979000
v 11.446000 -11.804000 10.623000
v 11.446000 -11.804000 16.959000
v 11.946000 -11.804000 10.503000
v 11.946000 -11.804000 17.509000
v 12.446000 -11.804000 10.647000
v 12.446000 -11.804000 17.829000
v 12.946000 -11.804000 11.071000
v 12.946000 -11.804000 17.919000
v 13.446000 -11.804000 11.802000
v 13.446000 -11.804000 17.827000
v 13.946000 -11.804000 12.387000
v 13.946000 -11.804000 17.500000
v 14.446000 -11.804000 12.904000
v 14.446000 -11.804000 15.697000
v 9.446000 -7.804000 18.691000
v 9.446000 -7.804000 19.787000
v 9.946000 -7.804000 18.267000
v 9.946000 -7.804000 20.071000
v 10.446000 -7.804000 17.906000
v 10.446000 -7.804000 20.239000
v 10.946000 -7.804000 17.559000
v 10.946000 -7.804000 20.049000
v 11.446000 -7.804000 16.358000
v 11.446000 -7.804000 19.620000
v 11.946000 -7.804000 10.060000
v 11.946000 -7.804000 12.986000
v 11.946000 -7.804000 14.977000
v 11.946000 -7.804000 19.365000
v 12.446000 -7.804000 9.867000
v 12.446000 -7.804000 13.230000
v 12.446000 -7.804000 14.340000
v 12.446000 -7.804000 19.169000
v 12.946000 -7.804000 10.114000
v 12.946000 -7.804000 12.902000
v 12.946000 -7.804000 14.214000
v 12.946000 -7.804000 18.914000
v 13.446000 -7.804000 14.404000
v 13.446000 -7.804000 18.588000
v 13.946000 -7.804000 14.682000
v 13.946000 -7.804000 18.178000
v 14.446000 -7.804000 15.085000
v 14.446000 -7.804000 17.554000
v 8.446000 -3.804000 18.942000
v 8.446000 -3.804000 20.016000
v 8.946000 -3.804000 18.771000
v 8.946000 -3.804000 20.187000
v 9.446000 -3.804000 18.887000
v 9.446000 -3.804000 20.106000
v 9.946000 -3.804000 19.149000
v 9.946000 -3.804000 19.844000
v 10.946000 -12.701000 11.758000
v 10.946000 -8.616000 11.758000
v 11.446000 -13.113000 11.758000
v 11.446000 -8.075000 11.758000
v 11.946000 -13.215000 11.758000
v 11.946000 -7.761000 11.758000
v 12.446000 -13.098000 11.758000
v 12.446000 -7.677000 11.758000
v 12.946000 -12.674000 11.758000
v 12.946000 -7.712000 11.758000
v 13.446000 -11.741000 11.758000
v 13.446000 -7.825000 11.758000
v 13.946000 -10.624000 11.758000
v 13.946000 -8.193000 11.758000
v 11.446000 -12.561000 15.758000
v 11.446000 -10.397000 15.758000
v 11.446000 -6.313000 15.758000
v 11.446000 -5.765000 15.758000
v 11.946000 -12.924000 15.758000
v 11.946000 -5.461000 15.758000
v 12.446000 -13.280000 15.758000
v 12.446000 -5.350000 15.758000
v 12.946000 -13.393000 15.758000
v 12.946000 -5.361000 15.758000
v 13.446000 -13.317000 15.758000
v 13.446000 -5.339000 15.758000
v 13.946000 -13.008000 15.758000
v 13.946000 -5.458000 15.758000
v 14.446000 -10.387000 15.758000
v 14.446000 -5.926000 15.758000
v 7.946000 -6.966000 19.758000
v 7.946000 -4.033000 19.758000
v 8.446000 -7.313000 19.758000
v 8.446000 -3.719000 19.758000
v 8.946000 -7.525000 19.758000
v 8.946000 -3.639000 19.758000
v 9.446000 -7.809000 19.758000
v 9.446000 -3.689000 19.758000
v 9.946000 -7.896000 19.758000
v 9.946000 -3.783000 19.758000
v 10.446000 -7.972000 19.758000
v 10.446000 -4.120000 19.758000
v 10.946000 -7.887000 19.758000
v 10.946000 -4.609000 19.758000
v 11.446000 -7.735000 19.758000
v 11.446000 -4.835000 19.758000
v 11.946000 -7.592000 19.758000
v 11.946000 -4.960000 19.758000
v 12.446000 -7.311000 19.758000
v 12.446000 -5.352000 19.758000
v 12.946000 -7.025000 19.758000
v 12.946000 -6.068000 19.758000
v 11.226000 -11.304000 10.258000
v 12.654000 -11.304000 10.258000
v 10.926000 -11.304000 10.758000
v 12.934000 -11.304000 10.758000
v 10.689000 -11.304000 11.258000
v 13.203000 -11.304000 11.258000
v 10.545000 -11.304000 11.758000
v 13.643000 -11.304000 11.758000
v 10.535000 -11.304000 12.258000
v 14.092000 -11.304000 12.258000
v 10.560000 -11.304000 12.758000
v 14.579000 -11.304000 12.758000
v 10.593000 -11.304000 13.258000
v 14.792000 -11.304000 13.258000
v 10.783000 -11.304000 13.758000
v 14.842000 -11.304000 13.758000
v 11.112000 -11.304000 14.258000
v 14.861000 -11.304000 14.258000
v 11.253000 -11.304000 14.758000
v 14.826000 -11.304000 14.758000
v 11.193000 -11.304000 15.258000
v 14.623000 -11.304000 15.258000
v 11.049000 -11.304000 15.758000
v 14.405000 -11.304000 15.758000
v 11.064000 -11.304000 16.258000
v 14.346000 -11.304000 16.258000
v 11.281000 -11.304000 16.758000
v 14.329000 -11.304000 16.758000
v 11.781000 -11.304000 17.258000
v 14.127000 -11.304000 17.258000
v 12.349000 -11.304000 17.758000
v 13.567000 -11.304000 17.758000
v 12.066000 -7.304000 15.258000
v 14.359000 -7.304000 15.258000
v 11.658000 -7.304000 15.758000
v 14.629000 -7.304000 15.758000
v 11.352000 -7.304000 16.258000
v 14.762000 -7.304000 16.258000
v 11.014000 -7.304000 16.758000
v 14.799000 -7.304000 16.758000
v 10.500000 -7.304000 17.258000
v 14.775000 -7.304000 17.258000
v 9.608000 -7.304000 17.758000
v 14.648000 -7.304000 17.758000
v 9.042000 -7.304000 18.258000
v 14.413000 -7.304000 18.258000
v 8.755000 -7.304000 18.758000
v 13.845000 -7.304000 18.758000
v 8.444000 -7.304000 19.258000
v 13.361000 -7.304000 19.258000
v 8.423000 -7.304000 19.758000
v 12.461000 -7.304000 19.758000
v 8.954000 -7.304000 20.258000
v 11.484000 -7.304000 20.258000
v 10.946000 -11.304000 10.720000
v 10.946000 -11.304000 13.985000
v 11.446000 -11.304000 10.009000
v 11.446000 -11.304000 16.952000
v 11.946000 -11.304000 9.800000
v 11.946000 -11.304000 17.455000
v 12.446000 -11.304000 10.010000
v 12.446000 -11.304000 17.801000
v 12.946000 -11.304000 10.783000
v 12.946000 -11.304000 17.900000
v 13.446000 -11.304000 11.519000
v 13.446000 -11.304000 17.811000
v 13.946000 -11.304000 12.085000
v 13.946000 -11.304000 17.483000
v 14.446000 -11.304000 12.592000
v 14.446000 -11.304000 15.626000
v 8.446000 -7.304000 19.255000
v 8.446000 -7.304000 19.805000
v 8.946000 -7.304000 18.393000
v 8.946000 -7.304000 20.252000
v 9.446000 -7.304000 17.896000
v 9.446000 -7.304000 20.574000
v 9.946000 -7.304000 17.493000
v 9.946000 -7.304000 20.673000
v 10.446000 -7.304000 17.288000
v 10.446000 -7.304000 20.746000
v 10.946000 -7.304000 16.847000
v 10.946000 -7.304000 20.648000
v 11.446000 -7.304000 16.114000
v 11.446000 -7.304000 20.286000
v 11.946000 -7.304000 15.397000
v 11.946000 -7.304000 20.032000
v 12.446000 -7.304000 14.939000
v 12.446000 -7.304000 19.764000
v 12.946000 -7.304000 14.803000
v 12.946000 -7.304000 19.606000
v 13.446000 -7.304000 14.783000
v 13.446000 -7.304000 19.146000
v 13.946000 -7.304000 14.918000
v 13.946000 -7.304000 18.658000
v 14.446000 -7.304000 15.375000
v 14.446000 -7.304000 18.215000
v 10.946000 -12.986000 12.258000
v 10.946000 -8.832000 12.258000
v 11.446000 -13.311000 12.258000
v 11.446000 -8.050000 12.258000
v 11.946000 -13.398000 12.258000
v 11.946000 -7.741000 12.258000
v 12.446000 -13.306000 12.258000
v 12.446000 -7.662000 12.258000
v 12.946000 -13.144000 12.258000
v 12.946000 -7.755000 12.258000
v 13.446000 -12.761000 12.258000
v 13.446000 -7.992000 12.258000
v 13.946000 -11.646000 12.258000
v 13.946000 -8.431000 12.258000
v 14.446000 -10.558000 12.258000
v 14.446000 -9.340000 12.258000
v 10.946000 -6.640000 16.258000
v 10.946000 -5.416000 16.258000
v 11.446000 -12.541000 16.258000
v 11.446000 -10.483000 16.258000
v 11.446000 -7.658000 16.258000
v 11.446000 -4.990000 16.258000
v 11.946000 -13.045000 16.258000
v 11.946000 -4.871000 16.258000
v 12.446000 -13.357000 16.258000
v 12.446000 -4.819000 16.258000
v 12.946000 -13.438000 16.258000
v 12.946000 -4.927000 16.258000
v 13.446000 -13.342000 16.258000
v 13.446000 -5.083000 16.258000
v 13.946000 -13.028000 16.258000
v 13.946000 -5.232000 16.258000
v 14.446000 -10.005000 16.258000
v 14.446000 -5.578000 16.258000
v 7.946000 -6.660000 20.258000
v 7.946000 -4.358000 20.258000
v 8.446000 -7.110000 20.258000
v 8.446000 -3.943000 20.258000
v 8.946000 -7.299000 20.258000
v 8.946000 -3.848000 20.258000
v 9.446000 -7.604000 20.258000
v 9.446000 -3.889000 20.258000
v 9.946000 -7.705000 20.258000
v 9.946000 -4.001000 20.258000
v 10.446000 -7.792000 20.258000
v 10.446000 -4.442000 20.258000
v 10.946000 -7.694000 20.258000
v 10.946000 -4.960000 20.258000
v 11.446000 -7.338000 20.258000
v 11.446000 -5.295000 20.258000
v 11.946000 -6.695000 20.258000
v 11.946000 -5.537000 20.258000
v 10.996000 -10.804000 9.758000
v 12.896000 -10.804000 9.758000
v 10.765000 -10.804000 10.258000
v 13.126000 -10.804000 10.258000
v 10.704000 -10.804000 10.758000
v 13.203000 -10.804000 10.758000
v 10.583000 -10.804000 11.258000
v 13.448000 -10.804000 11.258000
v 10.547000 -10.804000 11.758000
v 13.831000 -10.804000 11.758000
v 10.532000 -10.804000 12.258000
v 14.290000 -10.804000 12.258000
v 10.559000 -10.804000 12.758000
v 14.639000 -10.804000 12.758000
v 10.605000 -10.804000 13.258000
v 14.811000 -10.804000 13.258000
v 10.815000 -10.804000 13.758000
v 14.849000 -10.804000 13.758000
v 11.185000 -10.804000 14.258000
v 14.869000 -10.804000 14.258000
v 11.351000 -10.804000 14.758000
v 14.833000 -10.804000 14.758000
v 11.361000 -10.804000 15.258000
v 14.618000 -10.804000 15.258000
v 11.253000 -10.804000 15.758000
v 14.412000 -10.804000 15.758000
v 11.270000 -10.804000 16.258000
v 14.366000 -10.804000 16.258000
v 11.483000 -10.804000 16.758000
v 14.348000 -10.804000 16.758000
v 11.825000 -10.804000 17.258000
v 14.147000 -10.804000 17.258000
v 12.406000 -10.804000 17.758000
v 13.573000 -10.804000 17.758000
v 12.227000 -6.804000 15.258000
v 14.104000 -6.804000 15.258000
v 11.628000 -6.804000 15.758000
v 14.580000 -6.804000 15.758000
v 11.073000 -6.804000 16.258000
v 14.778000 -6.804000 16.258000
v 10.453000 -6.804000 16.758000
v 14.815000 -6.804000 16.758000
v 9.529000 -6.804000 17.258000
v 14.842000 -6.804000 17.258000
v 8.960000 -6.804000 17.758000
v 14.840000 -6.804000 17.758000
v 8.500000 -6.804000 18.258000
v 14.647000 -6.804000 18.258000
v 8.086000 -6.804000 18.758000
v 14.117000 -6.804000 18.758000
v 7.827000 -6.804000 19.258000
v 13.606000 -6.804000 19.258000
v 7.817000 -6.804000 19.758000
v 13.082000 -6.804000 19.758000
v 8.049000 -6.804000 20.258000
v 11.901000 -6.804000 20.258000
v 9.250000 -6.804000 20.758000
v 11.128000 -6.804000 20.758000
v 10.946000 -10.804000 9.827000
v 10.946000 -10.804000 13.923000
v 11.446000 -10.804000 9.403000
v 11.446000 -10.804000 16.694000
v 11.946000 -10.804000 9.294000
v 11.946000 -10.804000 17.412000
v 12.446000 -10.804000 9.403000
v 12.446000 -10.804000 17.776000
v 12.946000 -10.804000 9.827000
v 12.946000 -10.804000 17.887000
v 13.446000 -10.804000 11.254000
v 13.446000 -10.804000 17.810000
v 13.946000 -10.804000 11.903000
v 13.946000 -10.804000 17.502000
v 14.446000 -10.804000 12.434000
v 14.446000 -10.804000 15.633000
v 7.946000 -6.804000 18.956000
v 7.946000 -6.804000 20.104000
v 8.446000 -6.804000 18.324000
v 8.446000 -6.804000 20.577000
v 8.946000 -6.804000 17.778000
v 8.946000 -6.804000 20.703000
v 9.446000 -6.804000 17.336000
v 9.446000 -6.804000 20.809000
v 9.946000 -6.804000 16.957000
v 9.946000 -6.804000 20.885000
v 10.446000 -6.804000 16.762000
v 10.446000 -6.804000 20.926000
v 10.946000 -6.804000 16.389000
v 10.946000 -6.804000 20.841000
v 11.446000 -6.804000 15.896000
v 11.446000 -6.804000 20.526000
v 11.946000 -6.804000 15.506000
v 11.946000 -6.804000 20.241000
v 12.446000 -6.804000 15.131000
v 12.446000 -6.804000 19.982000
v 12.946000 -6.804000 15.020000
v 12.946000 -6.804000 19.824000
v 13.446000 -6.804000 15.052000
v 13.446000 -6.804000 19.468000
v 13.946000 -6.804000 15.171000
v 13.946000 -6.804000 18.907000
v 14.446000 -6.804000 15.564000
v 14.446000 -6.804000 18.507000
v 10.946000 -12.979000 12.758000
v 10.946000 -9.249000 12.758000
v 11.446000 -13.311000 12.758000
v 11.446000 -8.054000 12.758000
v 11.946000 -13.405000 12.758000
v 11.946000 -7.741000 12.758000
v 12.446000 -13.418000 12.758000
v 12.446000 -7.661000 12.758000
v 12.946000 -13.343000 12.758000
v 12.946000 -7.768000 12.758000
v 13.446000 -13.038000 12.758000
v 13.446000 -8.126000 12.758000
v 13.946000 -12.264000 12.758000
v 13.946000 -8.536000 12.758000
v 14.446000 -11.649000 12.758000
v 14.446000 -9.109000 12.758000
v 9.946000 -6.324000 16.758000
v 9.946000 -5.816000 16.758000
v 10.446000 -6.798000 16.758000
v 10.446000 -5.262000 16.758000
v 10.946000 -7.212000 16.758000
v 10.946000 -4.901000 16.758000
v 11.446000 -12.226000 16.758000
v 11.446000 -10.898000 16.758000
v 11.446000 -8.146000 16.758000
v 11.446000 -4.745000 16.758000
v 11.946000 -13.051000 16.758000
v 11.946000 -4.483000 16.758000
v 12.446000 -13.361000 16.758000
v 12.446000 -4.363000 16.758000
v 12.946000 -13.440000 16.758000
v 12.946000 -4.463000 16.758000
v 13.446000 -13.331000 16.758000
v 13.446000 -4.822000 16.758000
v 13.946000 -12.968000 16.758000
v 13.946000 -5.192000 16.758000
v 14.446000 -9.355000 16.758000
v 14.446000 -5.563000 16.758000
v 8.446000 -6.461000 20.758000
v 8.446000 -4.678000 20.758000
v 8.946000 -6.706000 20.758000
v 8.946000 -4.442000 20.758000
v 9.446000 -6.967000 20.758000
v 9.446000 -4.456000 20.758000
v 9.946000 -7.159000 20.758000
v 9.946000 -4.719000 20.758000
v 10.446000 -7.284000 20.758000
v 10.446000 -5.332000 20.758000
v 10.946000 -7.093000 20.758000
v 10.946000 -5.821000 20.758000
v 11.333000 -10.304000 9.258000
v 12.558000 -10.304000 9.258000
v 10.777000 -10.304000 9.758000
v 13.114000 -10.304000 9.758000
v 10.583000 -10.304000 10.258000
v 13.401000 -10.304000 10.258000
v 10.581000 -10.304000 10.758000
v 13.614000 -10.304000 10.758000
v 10.553000 -10.304000 11.258000
v 13.890000 -10.304000 11.258000
v 10.533000 -10.304000 11.758000
v 14.179000 -10.304000 11.758000
v 10.548000 -10.304000 12.258000
v 14.543000 -10.304000 12.258000
v 10.579000 -10.304000 12.758000
v 14.760000 -10.304000 12.758000
v 10.748000 -10.304000 13.258000
v 14.809000 -10.304000 13.258000
v 11.015000 -10.304000 13.758000
v 14.805000 -10.304000 13.758000
v 11.253000 -10.304000 14.258000
v 14.855000 -10.304000 14.258000
v 11.472000 -10.304000 14.758000
v 14.839000 -10.304000 14.758000
v 11.512000 -10.304000 15.258000
v 14.666000 -10.304000 15.258000
v 11.475000 -10.304000 15.758000
v 14.459000 -10.304000 15.758000
v 11.508000 -10.304000 16.258000
v 14.398000 -10.304000 16.258000
v 11.590000 -10.304000 16.758000
v 14.356000 -10.304000 16.758000
v 11.813000 -10.304000 17.258000
v 14.160000 -10.304000 17.258000
v 12.375000 -10.304000 17.758000
v 13.600000 -10.304000 17.758000
v 12.308000 -6.304000 15.258000
v 13.978000 -6.304000 15.258000
v 11.440000 -6.304000 15.758000
v 14.582000 -6.304000 15.758000
v 10.769000 -6.304000 16.258000
v 14.791000 -6.304000 16.258000
v 9.935000 -6.304000 16.758000
v 14.813000 -6.304000 16.758000
v 9.245000 -6.304000 17.258000
v 14.836000 -6.304000 17.258000
v 8.735000 -6.304000 17.758000
v 14.836000 -6.304000 17.758000
v 8.269000 -6.304000 18.258000
v 14.643000 -6.304000 18.258000
v 7.827000 -6.304000 18.758000
v 14.164000 -6.304000 18.758000
v 7.617000 -6.304000 19.258000
v 13.647000 -6.304000 19.258000
v 7.609000 -6.304000 19.758000
v 13.087000 -6.304000 19.758000
v 7.798000 -6.304000 20.258000
v 12.151000 -6.304000 20.258000
v 8.348000 -6.304000 20.758000
v 11.101000 -6.304000 20.758000
v 10.946000 -10.304000 9.543000
v 10.946000 -10.304000 13.624000
v 11.446000 -10.304000 9.209000
v 11.446000 -10.304000 14.668000
v 11.946000 -10.304000 9.115000
v 11.946000 -10.304000 17.432000
v 12.446000 -10.304000 9.209000
v 12.446000 -10.304000 17.790000
v 12.946000 -10.304000 9.542000
v 12.946000 -10.304000 17.899000
v 13.446000 -10.304000 10.336000
v 13.446000 -10.304000 17.822000
v 13.946000 -10.304000 11.330000
v 13.946000 -10.304000 17.518000
v 14.446000 -10.304000 12.133000
v 14.446000 -10.304000 15.816000
v 7.946000 -6.304000 18.608000
v 7.946000 -6.304000 20.452000
v 8.446000 -6.304000 18.054000
v 8.446000 -6.304000 20.802000
v 8.946000 -6.304000 17.497000
v 8.946000 -6.304000 20.903000
v 9.446000 -6.304000 17.073000
v 9.446000 -6.304000 20.878000
v 9.946000 -6.304000 16.754000
v 9.946000 -6.304000 20.906000
v 10.446000 -6.304000 16.504000
v 10.446000 -6.304000 20.914000
v 10.946000 -6.304000 16.098000
v 10.946000 -6.304000 20.827000
v 11.446000 -6.304000 15.756000
v 11.446000 -6.304000 20.556000
v 11.946000 -6.304000 15.501000
v 11.946000 -6.304000 20.353000
v 12.446000 -6.304000 15.193000
v 12.446000 -6.304000 20.066000
v 12.946000 -6.304000 15.094000
v 12.946000 -6.304000 19.826000
v 13.446000 -6.304000 15.146000
v 13.446000 -6.304000 19.471000
v 13.946000 -6.304000 15.245000
v 13.946000 -6.304000 18.973000
v 14.446000 -6.304000 15.586000
v 14.446000 -6.304000 18.502000
v 11.446000 -10.503000 9.258000
v 11.446000 -9.678000 9.258000
v 11.946000 -10.739000 9.258000
v 11.946000 -8.751000 9.258000
v 12.446000 -10.503000 9.258000
v 12.446000 -8.479000 9.258000
v 10.946000 -12.923000 13.258000
v 10.946000 -9.850000 13.258000
v 11.446000 -13.277000 13.258000
v 11.446000 -8.341000 13.258000
v 11.946000 -13.380000 13.258000
v 11.946000 -7.935000 13.258000
v 12.446000 -13.410000 13.258000
v 12.446000 -7.814000 13.258000
v 12.946000 -13.334000 13.258000
v 12.946000 -7.907000 13.258000
v 13.446000 -13.044000 13.258000
v 13.446000 -8.261000 13.258000
v 13.946000 -12.651000 13.258000
v 13.946000 -8.686000 13.258000
v 14.446000 -12.118000 13.258000
v 14.446000 -9.087000 13.258000
v 9.446000 -6.701000 17.258000
v 9.446000 -5.287000 17.258000
v 9.946000 -7.122000 17.258000
v 9.946000 -4.928000 17.258000
v 10.446000 -7.280000 17.258000
v 10.446000 -4.792000 17.258000
v 10.946000 -7.628000 17.258000
v 10.946000 -4.688000 17.258000
v 11.446000 -8.253000 17.258000
v 11.446000 -4.551000 17.258000
v 11.946000 -12.761000 17.258000
v 11.946000 -4.281000 17.258000
v 12.446000 -13.157000 17.258000
v 12.446000 -4.178000 17.258000
v 12.946000 -13.249000 17.258000
v 12.946000 -4.263000 17.258000
v 13.446000 -13.120000 17.258000
v 13.446000 -4.584000 17.258000
v 13.946000 -12.638000 17.258000
v 13.946000 -5.129000 17.258000
v 14.446000 -8.148000 17.258000
v 14.446000 -5.572000 17.258000
v 11.364000 -9.804000 9.258000
v 12.595000 -9.804000 9.258000
v 10.793000 -9.804000 9.758000
v 13.295000 -9.804000 9.758000
v 10.597000 -9.804000 10.258000
v 13.635000 -9.804000 10.258000
v 10.595000 -9.804000 10.758000
v 13.862000 -9.804000 10.758000
v 10.569000 -9.804000 11.258000
v 14.146000 -9.804000 11.258000
v 10.543000 -9.804000 11.758000
v 14.351000 -9.804000 11.758000
v 10.552000 -9.804000 12.258000
v 14.564000 -9.804000 12.258000
v 10.726000 -9.804000 12.758000
v 14.773000 -9.804000 12.758000
v 10.977000 -9.804000 13.258000
v 14.790000 -9.804000 13.258000
v 11.268000 -9.804000 13.758000
v 14.774000 -9.804000 13.758000
v 11.402000 -9.804000 14.258000
v 14.796000 -9.804000 14.258000
v 11.525000 -9.804000 14.758000
v 14.801000 -9.804000 14.758000
v 11.546000 -9.804000 15.258000
v 14.755000 -9.804000 15.258000
v 11.556000 -9.804000 15.758000
v 14.633000 -9.804000 15.758000
v 11.574000 -9.804000 16.258000
v 14.490000 -9.804000 16.258000
v 11.611000 -9.804000 16.758000
v 14.356000 -9.804000 16.758000
v 11.797000 -9.804000 17.258000
v 14.163000 -9.804000 17.258000
v 12.322000 -9.804000 17.758000
v 13.640000 -9.804000 17.758000
v 11.426000 -5.804000 15.758000
v 14.365000 -5.804000 15.758000
v 10.746000 -5.804000 16.258000
v 14.613000 -5.804000 16.258000
v 9.952000 -5.804000 16.758000
v 14.628000 -5.804000 16.758000
v 9.260000 -5.804000 17.258000
v 14.635000 -5.804000 17.258000
v 8.744000 -5.804000 17.758000
v 14.633000 -5.804000 17.758000
v 8.247000 -5.804000 18.258000
v 14.411000 -5.804000 18.258000
v 7.792000 -5.804000 18.758000
v 14.125000 -5.804000 18.758000
v 7.602000 -5.804000 19.258000
v 13.572000 -5.804000 19.258000
v 7.598000 -5.804000 19.758000
v 12.746000 -5.804000 19.758000
v 7.789000 -5.804000 20.258000
v 12.136000 -5.804000 20.258000
v 8.331000 -5.804000 20.758000
v 10.938000 -5.804000 20.758000
v 10.946000 -9.804000 9.562000
v 10.946000 -9.804000 13.211000
v 11.446000 -9.804000 9.223000
v 11.446000 -9.804000 14.433000
v 11.946000 -9.804000 9.129000
v 11.946000 -9.804000 17.459000
v 12.446000 -9.804000 9.207000
v 12.446000 -9.804000 17.818000
v 12.946000 -9.804000 9.441000
v 12.946000 -9.804000 17.925000
v 13.446000 -9.804000 9.963000
v 13.446000 -9.804000 17.845000
v 13.946000 -9.804000 10.924000
v 13.946000 -9.804000 17.532000
v 14.446000 -9.804000 12.016000
v 14.446000 -9.804000 16.406000
v 7.946000 -5.804000 18.551000
v 7.946000 -5.804000 20.464000
v 8.446000 -5.804000 18.065000
v 8.446000 -5.804000 20.811000
v 8.946000 -5.804000 17.512000
v 8.946000 -5.804000 20.911000
v 9.446000 -5.804000 17.082000
v 9.446000 -5.804000 20.873000
v 9.946000 -5.804000 16.760000
v 9.946000 -5.804000 20.887000
v 10.446000 -5.804000 16.487000
v 10.446000 -5.804000 20.867000
v 10.946000 -5.804000 16.089000
v 10.946000 -5.804000 20.755000
v 11.446000 -5.804000 15.750000
v 11.446000 -5.804000 20.489000
v 11.946000 -5.804000 15.618000
v 11.946000 -5.804000 20.344000
v 12.446000 -5.804000 15.425000
v 12.446000 -5.804000 20.025000
v 12.946000 -5.804000 15.306000
v 12.946000 -5.804000 19.619000
v 13.446000 -5.804000 15.321000
v 13.446000 -5.804000 19.326000
v 13.946000 -5.804000 15.434000
v 13.946000 -5.804000 18.985000
v 14.446000 -5.804000 15.867000
v 14.446000 -5.804000 18.199000
v 10.946000 -10.731000 9.758000
v 10.946000 -9.450000 9.758000
v 11.446000 -11.168000 9.758000
v 11.446000 -8.404000 9.758000
v 11.946000 -11.278000 9.758000
v 11.946000 -7.972000 9.758000
v 12.446000 -11.168000 9.758000
v 12.446000 -7.870000 9.758000
v 12.946000 -10.732000 9.758000
v 12.946000 -7.996000 9.758000
v 13.446000 -9.566000 9.758000
v 13.446000 -8.490000 9.758000
v 10.946000 -12.540000 13.758000
v 10.946000 -10.446000 13.758000
v 11.446000 -13.037000 13.758000
v 11.446000 -9.356000 13.758000
v 11.946000 -13.162000 13.758000
v 11.946000 -8.163000 13.758000
v 12.446000 -13.206000 13.758000
v 12.446000 -7.918000 13.758000
v 12.946000 -13.140000 13.758000
v 12.946000 -7.948000 13.758000
v 13.446000 -12.999000 13.758000
v 13.446000 -8.199000 13.758000
v 13.946000 -12.834000 13.758000
v 13.946000 -8.654000 13.758000
v 14.446000 -12.483000 13.758000
v 14.446000 -9.098000 13.758000
v 8.946000 -6.783000 17.758000
v 8.946000 -4.982000 17.758000
v 9.446000 -7.194000 17.758000
v 9.446000 -4.491000 17.758000
v 9.946000 -7.557000 17.758000
v 9.946000 -4.361000 17.758000
v 10.446000 -7.724000 17.758000
v 10.446000 -4.447000 17.758000
v 10.946000 -7.877000 17.758000
v 10.946000 -4.516000 17.758000
v 11.446000 -8.156000 17.758000
v 11.446000 -4.456000 17.758000
v 11.946000 -8.657000 17.758000
v 11.946000 -4.289000 17.758000
v 12.446000 -12.520000 17.758000
v 12.446000 -4.185000 17.758000
v 12.946000 -12.711000 17.758000
v 12.946000 -4.268000 17.758000
v 13.446000 -12.425000 17.758000
v 13.446000 -4.583000 17.758000
v 13.946000 -8.161000 17.758000
v 13.946000 -5.074000 17.758000
v 14.446000 -7.617000 17.758000
v 14.446000 -5.576000 17.758000
v 11.427000 -13.304000 12.258000
v 12.452000 -13.304000 12.258000
v 11.428000 -13.304000 12.758000
v 13.045000 -13.304000 12.758000
v 11.515000 -13.304000 13.258000
v 13.025000 -13.304000 13.258000
v 12.504000 -13.304000 15.758000
v 13.482000 -13.304000 15.758000
v 12.316000 -13.304000 16.258000
v 13.537000 -13.304000 16.258000
v 12.307000 -13.304000 16.758000
v 13.505000 -13.304000 16.758000
v 11.802000 -9.304000 9.258000
v 12.896000 -9.304000 9.258000
v 11.052000 -9.304000 9.758000
v 13.545000 -9.304000 9.758000
v 10.813000 -9.304000 10.258000
v 13.770000 -9.304000 10.258000
v 10.736000 -9.304000 10.758000
v 14.048000 -9.304000 10.758000
v 10.604000 -9.304000 11.258000
v 14.255000 -9.304000 11.258000
v 10.599000 -9.304000 11.758000
v 14.353000 -9.304000 11.758000
v 10.730000 -9.304000 12.258000
v 14.432000 -9.304000 12.258000
v 10.928000 -9.304000 12.758000
v 14.590000 -9.304000 12.758000
v 11.189000 -9.304000 13.258000
v 14.607000 -9.304000 13.258000
v 11.458000 -9.304000 13.758000
v 14.583000 -9.304000 13.758000
v 11.544000 -9.304000 14.258000
v 14.622000 -9.304000 14.258000
v 11.540000 -9.304000 14.758000
v 14.750000 -9.304000 14.758000
v 11.569000 -9.304000 15.258000
v 14.835000 -9.304000 15.258000
v 11.565000 -9.304000 15.758000
v 14.835000 -9.304000 15.758000
v 11.547000 -9.304000 16.258000
v 14.667000 -9.304000 16.258000
v 11.536000 -9.304000 16.758000
v 14.462000 -9.304000 16.758000
v 11.717000 -9.304000 17.258000
v 14.176000 -9.304000 17.258000
v 12.231000 -9.304000 17.758000
v 13.662000 -9.304000 17.758000
v 11.041000 -5.304000 16.258000
v 14.096000 -5.304000 16.258000
v 10.399000 -5.304000 16.758000
v 14.123000 -5.304000 16.758000
v 9.436000 -5.304000 17.258000
v 14.121000 -5.304000 17.258000
v 8.829000 -5.304000 17.758000
v 14.159000 -5.304000 17.758000
v 8.247000 -5.304000 18.258000
v 14.129000 -5.304000 18.258000
v 7.744000 -5.304000 18.758000
v 13.899000 -5.304000 18.758000
v 7.557000 -5.304000 19.258000
v 13.047000 -5.304000 19.258000
v 7.568000 -5.304000 19.758000
v 12.407000 -5.304000 19.758000
v 7.781000 -5.304000 20.258000
v 11.464000 -5.304000 20.258000
v 8.402000 -5.304000 20.758000
v 10.425000 -5.304000 20.758000
v 11.446000 -13.304000 12.221000
v 11.446000 -13.304000 13.107000
v 11.946000 -13.304000 11.931000
v 11.946000 -13.304000 13.499000
v 12.446000 -13.304000 12.251000
v 12.446000 -13.304000 13.581000
v 12.446000 -13.304000 15.896000
v 12.446000 -13.304000 16.970000
v 12.946000 -13.304000 12.596000
v 12.946000 -13.304000 13.376000
v 12.946000 -13.304000 15.481000
v 12.946000 -13.304000 17.162000
v 13.446000 -13.304000 15.704000
v 13.446000 -13.304000 16.873000
v 10.946000 -9.304000 9.914000
v 10.946000 -9.304000 12.792000
v 11.446000 -9.304000 9.417000
v 11.446000 -9.304000 13.725000
v 11.946000 -9.304000 9.219000
v 11.946000 -9.304000 17.545000
v 12.446000 -9.304000 9.172000
v 12.446000 -9.304000 17.857000
v 12.946000 -9.304000 9.277000
v 12.946000 -9.304000 17.948000
v 13.446000 -9.304000 9.633000
v 13.446000 -9.304000 17.859000
v 13.946000 -9.304000 10.611000
v 13.946000 -9.304000 17.544000
v 14.446000 -9.304000 12.314000
v 14.446000 -9.304000 16.794000
v 7.946000 -5.304000 18.501000
v 7.946000 -5.304000 20.456000
v 8.446000 -5.304000 18.093000
v 8.446000 -5.304000 20.775000
v 8.946000 -5.304000 17.623000
v 8.946000 -5.304000 20.859000
v 9.446000 -5.304000 17.253000
v 9.446000 -5.304000 20.882000
v 9.946000 -5.304000 16.979000
v 9.946000 -5.304000 20.855000
v 10.446000 -5.304000 16.723000
v 10.446000 -5.304000 20.751000
v 10.946000 -5.304000 16.336000
v 10.946000 -5.304000 20.538000
v 11.446000 -5.304000 15.956000
v 11.446000 -5.304000 20.264000
v 11.946000 -5.304000 15.842000
v 11.946000 -5.304000 20.123000
v 12.446000 -5.304000 15.788000
v 12.446000 -5.304000 19.711000
v 12.946000 -5.304000 15.820000
v 12.946000 -5.304000 19.306000
v 13.446000 -5.304000 15.815000
v 13.446000 -5.304000 19.113000
v 13.946000 -5.304000 16.030000
v 13.946000 -5.304000 18.694000
v 10.946000 -11.041000 10.258000
v 10.946000 -9.090000 10.258000
v 11.446000 -11.443000 10.258000
v 11.446000 -8.065000 10.258000
v 11.946000 -11.567000 10.258000
v 11.946000 -7.743000 10.258000
v 12.446000 -11.435000 10.258000
v 12.446000 -7.658000 10.258000
v 12.946000 -11.041000 10.258000
v 12.946000 -7.762000 10.258000
v 13.446000 -10.232000 10.258000
v 13.446000 -8.118000 10.258000
v 11.446000 -12.582000 14.258000
v 11.446000 -9.663000 14.258000
v 11.946000 -12.861000 14.258000
v 11.946000 -8.220000 14.258000
v 12.446000 -12.976000 14.258000
v 12.446000 -7.837000 14.258000
v 12.946000 -12.980000 14.258000
v 12.946000 -7.780000 14.258000
v 13.446000 -12.970000 14.258000
v 13.446000 -7.931000 14.258000
v 13.946000 -12.878000 14.258000
v 13.946000 -8.370000 14.258000
v 14.446000 -12.561000 14.258000
v 14.446000 -8.948000 14.258000
v 8.446000 -6.729000 18.258000
v 8.446000 -4.507000 18.258000
v 8.946000 -7.198000 18.258000
v 8.946000 -4.278000 18.258000
v 9.446000 -7.624000 18.258000
v 9.446000 -4.191000 18.258000
v 9.946000 -7.801000 18.258000
v 9.946000 -4.150000 18.258000
v 10.446000 -7.909000 18.258000
v 10.446000 -4.232000 18.258000
v 10.946000 -7.944000 18.258000
v 10.946000 -4.414000 18.258000
v 11.446000 -8.019000 18.258000
v 11.446000 -4.452000 18.258000
v 11.946000 -8.181000 18.258000
v 11.946000 -4.335000 18.258000
v 12.446000 -8.291000 18.258000
v 12.446000 -4.226000 18.258000
v 12.946000 -8.295000 18.258000
v 12.946000 -4.304000 18.258000
v 13.446000 -8.147000 18.258000
v 13.446000 -4.615000 18.258000
v 13.946000 -7.731000 18.258000
v 13.946000 -5.068000 18.258000
v 14.446000 -7.261000 18.258000
v 14.446000 -5.861000 18.258000
v 11.025000 -12.804000 11.758000
v 12.836000 -12.804000 11.758000
v 10.794000 -12.804000 12.258000
v 13.412000 -12.804000 12.258000
v 10.801000 -12.804000 12.758000
v 13.643000 -12.804000 12.758000
v 10.851000 -12.804000 13.258000
v 13.760000 -12.804000 13.258000
v 11.133000 -12.804000 13.758000
v 14.014000 -12.804000 13.758000
v 11.815000 -12.804000 14.258000
v 14.114000 -12.804000 14.258000
v 12.133000 -12.804000 14.758000
v 14.105000 -12.804000 14.758000
v 12.031000 -12.804000 15.258000
v 14.034000 -12.804000 15.258000
v 11.780000 -12.804000 15.758000
v 14.119000 -12.804000 15.758000
v 11.713000 -12.804000 16.258000
v 14.136000 -12.804000 16.258000
v 11.744000 -12.804000 16.758000
v 14.069000 -12.804000 16.758000
v 11.978000 -12.804000 17.258000
v 13.835000 -12.804000 17.258000
v 11.919000 -8.804000 9.258000
v 12.923000 -8.804000 9.258000
v 11.285000 -8.804000 9.758000
v 13.556000 -8.804000 9.758000
v 11.062000 -8.804000 10.258000
v 13.776000 -8.804000 10.258000
v 10.970000 -8.804000 10.758000
v 14.031000 -8.804000 10.758000
v 10.805000 -8.804000 11.258000
v 14.241000 -8.804000 11.258000
v 10.799000 -8.804000 11.758000
v 14.249000 -8.804000 11.758000
v 10.958000 -8.804000 12.258000
v 14.179000 -8.804000 12.258000
v 11.051000 -8.804000 12.758000
v 14.175000 -8.804000 12.758000
v 11.242000 -8.804000 13.258000
v 14.097000 -8.804000 13.258000
v 11.541000 -8.804000 13.758000
v 14.145000 -8.804000 13.758000
v 11.643000 -8.804000 14.258000
v 14.358000 -8.804000 14.258000
v 11.584000 -8.804000 14.758000
v 14.644000 -8.804000 14.758000
v 11.570000 -8.804000 15.258000
v 14.841000 -8.804000 15.258000
v 11.567000 -8.804000 15.758000
v 14.866000 -8.804000 15.758000
v 11.545000 -8.804000 16.258000
v 14.843000 -8.804000 16.258000
v 11.521000 -8.804000 16.758000
v 14.647000 -8.804000 16.758000
v 11.619000 -8.804000 17.258000
v 14.167000 -8.804000 17.258000
v 12.021000 -8.804000 17.758000
v 13.656000 -8.804000 17.758000
v 11.254000 -4.804000 16.758000
v 13.424000 -4.804000 16.758000
v 10.397000 -4.804000 17.258000
v 13.628000 -4.804000 17.258000
v 9.064000 -4.804000 17.758000
v 13.657000 -4.804000 17.758000
v 8.256000 -4.804000 18.258000
v 13.631000 -4.804000 18.258000
v 7.726000 -4.804000 18.758000
v 13.345000 -4.804000 18.758000
v 7.541000 -4.804000 19.258000
v 12.266000 -4.804000 19.258000
v 7.552000 -4.804000 19.758000
v 11.341000 -4.804000 19.758000
v 7.763000 -4.804000 20.258000
v 10.802000 -4.804000 20.258000
v 8.377000 -4.804000 20.758000
v 9.994000 -4.804000 20.758000
v 10.946000 -12.804000 11.871000
v 10.946000 -12.804000 13.499000
v 11.446000 -12.804000 11.427000
v 11.446000 -12.804000 14.008000
v 11.946000 -12.804000 11.312000
v 11.946000 -12.804000 14.374000
v 11.946000 -12.804000 15.433000
v 11.946000 -12.804000 17.215000
v 12.446000 -12.804000 11.444000
v 12.446000 -12.804000 17.612000
v 12.946000 -12.804000 11.865000
v 12.946000 -12.804000 17.705000
v 13.446000 -12.804000 12.303000
v 13.446000 -12.804000 17.576000
v 13.946000 -12.804000 13.648000
v 13.946000 -12.804000 17.092000
v 10.946000 -8.804000 10.844000
v 10.946000 -8.804000 12.212000
v 11.446000 -8.804000 9.566000
v 11.446000 -8.804000 13.563000
v 11.946000 -8.804000 9.248000
v 11.946000 -8.804000 17.694000
v 12.446000 -8.804000 9.164000
v 12.446000 -8.804000 17.955000
v 12.946000 -8.804000 9.267000
v 12.946000 -8.804000 18.005000
v 13.446000 -8.804000 9.618000
v 13.446000 -8.804000 17.886000
v 13.946000 -8.804000 10.630000
v 13.946000 -8.804000 17.488000
v 14.446000 -8.804000 14.421000
v 14.446000 -8.804000 17.004000
v 7.946000 -4.804000 18.484000
v 7.946000 -4.804000 20.474000
v 8.446000 -4.804000 18.171000
v 8.446000 -4.804000 20.784000
v 8.946000 -4.804000 17.864000
v 8.946000 -4.804000 20.863000
v 9.446000 -4.804000 17.464000
v 9.446000 -4.804000 20.872000
v 9.946000 -4.804000 17.336000
v 9.946000 -4.804000 20.778000
v 10.446000 -4.804000 17.244000
v 10.446000 -4.804000 20.534000
v 10.946000 -4.804000 16.941000
v 10.946000 -4.804000 20.103000
v 11.446000 -4.804000 16.612000
v 11.446000 -4.804000 19.696000
v 11.946000 -4.804000 16.347000
v 11.946000 -4.804000 19.427000
v 12.446000 -4.804000 16.275000
v 12.446000 -4.804000 19.195000
v 12.946000 -4.804000 16.395000
v 12.946000 -4.804000 19.046000
v 13.446000 -4.804000 16.790000
v 13.446000 -4.804000 18.633000
v 10.946000 -11.343000 10.758000
v 10.946000 -8.863000 10.758000
v 11.446000 -12.033000 10.758000
v 11.446000 -8.046000 10.758000
v 11.946000 -12.211000 10.758000
v 11.946000 -7.728000 10.758000
v 12.446000 -11.983000 10.758000
v 12.446000 -7.644000 10.758000
v 12.946000 -11.281000 10.758000
v 12.946000 -7.741000 10.758000
v 13.446000 -10.509000 10.758000
v 13.446000 -7.996000 10.758000
v 13.946000 -9.617000 10.758000
v 13.946000 -8.571000 10.758000
v 11.446000 -12.317000 14.758000
v 11.446000 -10.462000 14.758000
v 11.946000 -12.687000 14.758000
v 11.946000 -7.982000 14.758000
v 12.446000 -12.922000 14.758000
v 12.446000 -7.524000 14.758000
v 12.946000 -12.988000 14.758000
v 12.946000 -7.366000 14.758000
v 13.446000 -12.994000 14.758000
v 13.446000 -7.340000 14.758000
v 13.946000 -12.876000 14.758000
v 13.946000 -7.628000 14.758000
v 14.446000 -12.557000 14.758000
v 14.446000 -8.348000 14.758000
v 7.946000 -6.605000 18.758000
v 7.946000 -4.295000 18.758000
v 8.446000 -7.101000 18.758000
v 8.446000 -3.904000 18.758000
v 8.946000 -7.466000 18.758000
v 8.946000 -3.812000 18.758000
v 9.446000 -7.816000 18.758000
v 9.446000 -3.875000 18.758000
v 9.946000 -7.923000 18.758000
v 9.946000 -3.971000 18.758000
v 10.446000 -7.967000 18.758000
v 10.446000 -4.189000 18.758000
v 10.946000 -7.965000 18.758000
v 10.946000 -4.454000 18.758000
v 11.446000 -7.979000 18.758000
v 11.446000 -4.576000 18.758000
v 11.946000 -7.965000 18.758000
v 11.946000 -4.521000 18.758000
v 12.446000 -7.971000 18.758000
v 12.446000 -4.430000 18.758000
v 12.946000 -7.883000 18.758000
v 12.946000 -4.523000 18.758000
v 13.446000 -7.638000 18.758000
v 13.446000 -4.905000 18.758000
v 13.946000 -7.165000 18.758000
v 13.946000 -5.368000 18.758000
f 303 3 79
f 79 3 129
f 3 183 129
f 3 185 183
f 185 359 183
f 361 359 185
f 361 509 359
f 511 509 361
f 511 663 509
f 665 663 511
f 665 811 663
f 813 811 665
f 813 977 811
f 979 977 813
f 979 1165 977
f 1167 1165 979
f 1167 304 1165
f 1165 304 130
f 305 1133 1213
f 303 79 1133
f 1133 79 1213
f 79 1 1213
f 1 131 1213
f 79 129 1
f 35 130 304
f 35 304 37
f 37 306 35
f 35 306 132
f 1215 307 1213
f 1213 307 305
f 1213 131 133
f 1213 133 1215
f 215 132 306
f 215 306 217
f 217 308 215
f 215 308 134
f 1219 309 1215
f 1215 309 307
f 1215 133 135
f 1215 135 1219
f 134 310 136
f 308 310 134
f 1219 1134 309
f 87 311 2
f 2 311 135
f 311 1134 135
f 1134 1219 135
f 137 87 2
f 136 312 138
f 310 312 136
f 87 4 311
f 137 184 87
f 184 4 87
f 184 186 4
f 360 419 313
f 186 360 313
f 184 360 186
f 139 419 360
f 218 314 140
f 218 140 216
f 216 138 218
f 218 138 312
f 419 362 313
f 139 510 419
f 510 362 419
f 510 512 362
f 664 727 315
f 512 664 315
f 510 664 512
f 141 727 664
f 140 316 142
f 314 316 140
f 727 666 315
f 141 812 727
f 812 666 727
f 812 814 666
f 978 814 812
f 978 980 814
f 1166 980 978
f 1166 1168 980
f 36 1168 1166
f 36 38 1168
f 36 142 38
f 38 142 316
f 317 19 143
f 143 19 17
f 19 199 17
f 201 199 19
f 201 375 199
f 377 375 201
f 377 525 375
f 527 525 377
f 527 318 525
f 525 318 144
f 319 693 745
f 745 693 891
f 891 693 839
f 839 320 891
f 321 1149 1217
f 145 1217 1149
f 317 145 1149
f 143 145 317
f 679 144 318
f 679 318 681
f 681 827 679
f 829 827 681
f 829 993 827
f 995 993 829
f 995 1181 993
f 1183 1181 995
f 1183 51 1181
f 53 51 1183
f 53 227 51
f 229 227 53
f 146 227 439
f 227 389 439
f 227 229 389
f 439 389 593
f 593 389 539
f 319 745 539
f 745 593 539
f 745 747 593
f 745 893 747
f 745 891 893
f 891 320 893
f 893 320 322
f 1147 147 1217
f 147 321 1217
f 147 323 321
f 1217 145 1147
f 439 387 146
f 593 537 387
f 593 387 439
f 747 691 537
f 747 537 593
f 895 148 691
f 747 895 691
f 893 895 747
f 893 322 895
f 895 322 324
f 325 963 1035
f 149 1035 963
f 323 149 963
f 147 149 323
f 897 150 148
f 897 148 895
f 895 324 897
f 897 324 326
f 1037 327 1035
f 1035 327 325
f 1035 149 151
f 1035 151 1037
f 899 152 150
f 899 150 897
f 897 326 899
f 899 326 328
f 1037 964 327
f 329 964 1037
f 151 329 1037
f 153 329 151
f 901 154 152
f 901 152 899
f 899 328 901
f 901 328 330
f 153 1148 329
f 329 1148 1150
f 1148 155 94
f 20 1148 94
f 1150 1148 20
f 20 94 266
f 20 266 202
f 202 266 424
f 202 424 378
f 378 424 576
f 378 576 528
f 331 528 576
f 388 449 156
f 538 603 449
f 538 449 388
f 692 757 603
f 692 603 538
f 901 840 154
f 154 840 692
f 840 332 692
f 332 757 692
f 901 330 840
f 18 94 155
f 200 266 18
f 18 266 94
f 376 424 200
f 200 424 266
f 526 576 376
f 376 576 424
f 576 526 331
f 526 682 331
f 526 680 682
f 828 682 680
f 828 830 682
f 994 830 828
f 994 996 830
f 1182 996 994
f 1182 1184 996
f 52 1184 1182
f 52 54 1184
f 228 54 52
f 228 230 54
f 449 390 156
f 390 228 156
f 390 230 228
f 390 449 540
f 540 449 603
f 540 603 694
f 694 603 757
f 757 332 694
f 333 555 157
f 157 555 553
f 555 707 553
f 709 707 555
f 709 853 707
f 855 853 709
f 855 1017 853
f 1019 1017 855
f 1019 1203 1017
f 1205 1203 1019
f 1205 73 1203
f 75 73 1205
f 75 334 73
f 73 334 158
f 335 405 159
f 159 405 403
f 157 403 405
f 157 405 333
f 247 158 334
f 247 334 249
f 249 336 247
f 247 336 160
f 337 159 161
f 337 335 159
f 160 338 162
f 336 338 160
f 339 245 163
f 163 245 243
f 161 243 245
f 161 245 337
f 162 340 164
f 338 340 162
f 341 163 165
f 341 339 163
f 164 342 166
f 340 342 164
f 343 165 167
f 343 341 165
f 250 344 168
f 250 168 248
f 248 166 250
f 250 166 342
f 345 167 169
f 345 343 167
f 76 346 170
f 76 170 74
f 74 168 76
f 76 168 344
f 246 345 276
f 345 171 276
f 345 169 171
f 347 246 276
f 1206 348 1258
f 1258 172 1206
f 172 346 1206
f 172 170 346
f 173 280 171
f 171 280 276
f 347 276 280
f 347 280 349
f 350 1260 1258
f 350 1258 348
f 172 1258 174
f 174 1258 1260
f 244 280 173
f 349 280 244
f 175 349 244
f 351 349 175
f 1020 352 1074
f 1260 350 1020
f 1260 1020 1074
f 1204 1260 1074
f 176 1204 1074
f 174 1260 1204
f 406 351 444
f 351 177 444
f 351 175 177
f 353 406 444
f 856 354 898
f 1074 352 856
f 898 1074 856
f 1076 1074 898
f 176 1074 178
f 178 1074 1076
f 404 444 177
f 556 353 600
f 600 353 179
f 353 444 179
f 444 404 179
f 556 600 754
f 556 754 710
f 898 354 710
f 754 898 710
f 900 898 754
f 1018 1076 180
f 1076 900 180
f 1076 898 900
f 178 1076 1018
f 554 600 179
f 708 754 554
f 554 754 600
f 854 900 708
f 708 900 754
f 180 900 854
f 451 1135 1211
f 1211 1135 303
f 1135 3 303
f 1135 5 3
f 5 185 3
f 187 185 5
f 187 361 185
f 363 361 187
f 363 511 361
f 513 511 363
f 513 665 511
f 667 665 513
f 667 813 665
f 815 813 667
f 815 979 813
f 981 979 815
f 1228 1167 452
f 1167 981 452
f 1167 979 981
f 1228 304 1167
f 453 957 1025
f 451 1211 957
f 957 1211 1025
f 1211 1133 1025
f 1133 305 1025
f 1211 303 1133
f 1169 1228 452
f 37 304 1228
f 1169 37 1228
f 39 37 1169
f 39 454 37
f 37 454 306
f 1027 455 1025
f 1025 455 453
f 1025 305 307
f 1025 307 1027
f 217 306 454
f 217 454 219
f 219 456 217
f 217 456 308
f 1029 457 1027
f 1027 457 455
f 1027 307 309
f 1027 309 1029
f 308 458 310
f 456 458 308
f 1029 958 457
f 1221 459 1134
f 1134 459 309
f 459 958 309
f 958 1029 309
f 311 1221 1134
f 310 460 312
f 458 460 310
f 1221 1136 459
f 89 461 4
f 4 461 311
f 461 1136 311
f 1136 1221 311
f 186 261 89
f 186 89 4
f 313 261 186
f 220 462 314
f 220 314 218
f 218 312 220
f 220 312 460
f 89 6 461
f 6 89 188
f 188 89 261
f 421 463 362
f 362 463 313
f 463 188 313
f 188 261 313
f 512 573 421
f 512 421 362
f 315 573 512
f 40 464 106
f 106 316 40
f 316 462 40
f 316 314 462
f 421 364 463
f 364 421 514
f 514 421 573
f 729 465 666
f 666 465 315
f 465 514 315
f 514 573 315
f 814 875 729
f 814 729 666
f 982 466 875
f 814 982 875
f 980 982 814
f 1168 982 980
f 1168 1170 982
f 464 1170 106
f 1170 38 106
f 1170 1168 38
f 316 106 38
f 729 668 465
f 668 729 816
f 816 729 875
f 875 466 816
f 467 695 743
f 743 695 889
f 889 695 841
f 841 468 889
f 469 21 317
f 317 21 19
f 21 201 19
f 203 201 21
f 203 377 201
f 379 377 203
f 379 527 377
f 529 527 379
f 529 470 527
f 527 470 318
f 471 391 437
f 437 391 591
f 591 391 541
f 467 743 541
f 541 743 591
f 743 693 591
f 693 319 591
f 889 839 693
f 889 693 743
f 468 1005 1069
f 468 1069 320
f 889 468 320
f 839 889 320
f 1005 472 1069
f 473 1151 321
f 321 1151 1149
f 317 1149 1151
f 317 1151 469
f 681 318 470
f 681 470 683
f 683 829 681
f 831 829 683
f 831 995 829
f 997 995 831
f 997 1183 995
f 1185 1183 997
f 1185 53 1183
f 55 53 1185
f 55 229 53
f 231 229 55
f 231 471 437
f 389 231 437
f 229 231 389
f 591 539 389
f 591 389 437
f 591 319 539
f 1071 322 320
f 1071 320 1069
f 1069 472 1071
f 1071 472 474
f 475 965 1031
f 323 1031 965
f 473 323 965
f 321 323 473
f 1073 324 322
f 1073 322 1071
f 1071 474 1073
f 1073 474 476
f 963 325 1031
f 325 475 1031
f 325 477 475
f 1031 323 963
f 1075 326 324
f 1075 324 1073
f 1073 476 1075
f 1075 476 478
f 479 325 327
f 479 477 325
f 1077 328 326
f 1077 326 1075
f 1075 478 1077
f 1077 478 480
f 327 964 479
f 479 964 966
f 481 966 964
f 481 964 329
f 1079 330 328
f 1079 328 1077
f 1077 480 1079
f 1079 480 482
f 329 1150 481
f 481 1150 1152
f 20 1152 1150
f 20 22 1152
f 202 22 20
f 202 204 22
f 378 204 202
f 378 380 204
f 528 380 378
f 528 530 380
f 528 331 730
f 684 528 730
f 530 528 684
f 483 684 730
f 840 903 332
f 1079 1006 330
f 330 1006 840
f 1006 484 840
f 484 903 840
f 1079 482 1006
f 682 730 331
f 730 682 483
f 682 832 483
f 682 830 832
f 996 832 830
f 996 998 832
f 1184 998 996
f 1184 1186 998
f 54 1186 1184
f 54 56 1186
f 230 56 54
f 230 232 56
f 390 232 230
f 390 392 232
f 540 392 390
f 540 542 392
f 694 542 540
f 694 696 542
f 903 842 332
f 842 694 332
f 842 696 694
f 903 484 842
f 578 555 333
f 485 711 578
f 711 555 578
f 711 709 555
f 711 855 709
f 857 855 711
f 857 1019 855
f 1021 1019 857
f 1021 1205 1019
f 1207 1205 1021
f 112 75 486
f 75 1207 486
f 75 1205 1207
f 112 334 75
f 426 405 335
f 557 578 333
f 557 333 405
f 487 557 405
f 426 487 405
f 485 578 557
f 77 112 486
f 488 296 249
f 488 249 334
f 77 488 334
f 112 77 334
f 296 336 249
f 337 428 335
f 335 428 426
f 487 426 428
f 487 428 489
f 490 298 296
f 490 296 488
f 336 296 338
f 338 296 298
f 268 245 339
f 407 428 337
f 407 337 245
f 491 407 245
f 268 491 245
f 489 428 407
f 492 300 298
f 492 298 490
f 338 298 340
f 340 298 300
f 341 270 339
f 339 270 268
f 491 268 270
f 491 270 493
f 494 302 300
f 494 300 492
f 340 300 342
f 342 300 302
f 343 272 341
f 341 272 270
f 493 270 272
f 493 272 495
f 78 496 122
f 302 494 78
f 302 78 122
f 250 302 122
f 344 250 122
f 342 302 250
f 345 274 343
f 343 274 272
f 495 272 274
f 495 274 497
f 1208 498 1256
f 122 496 1208
f 122 1208 1256
f 76 122 1256
f 346 76 1256
f 344 122 76
f 246 274 345
f 497 274 246
f 347 497 246
f 499 497 347
f 348 1206 1256
f 498 348 1256
f 500 348 498
f 346 1256 1206
f 408 499 440
f 499 349 440
f 499 347 349
f 408 440 594
f 408 594 558
f 501 558 594
f 1022 502 1072
f 1072 350 1022
f 350 500 1022
f 350 348 500
f 351 442 349
f 349 442 440
f 596 440 442
f 594 440 596
f 750 712 501
f 594 750 501
f 596 750 594
f 712 750 896
f 712 896 858
f 1072 502 858
f 1072 858 896
f 1020 1072 896
f 352 1020 896
f 350 1072 1020
f 406 442 351
f 353 598 406
f 598 442 406
f 598 596 442
f 752 596 598
f 750 596 752
f 856 896 354
f 896 752 354
f 896 750 752
f 352 896 856
f 556 598 353
f 710 752 556
f 556 752 598
f 354 752 710
f 605 1137 451
f 451 1137 1135
f 1137 5 1135
f 7 5 1137
f 7 187 5
f 189 187 7
f 189 363 187
f 365 363 189
f 365 513 363
f 515 513 365
f 515 667 513
f 669 667 515
f 669 815 667
f 817 815 669
f 817 981 815
f 983 981 817
f 983 606 981
f 981 606 452
f 607 959 453
f 453 959 957
f 451 957 959
f 451 959 605
f 1169 452 606
f 1169 606 1171
f 1171 39 1169
f 41 39 1171
f 41 608 39
f 39 608 454
f 609 453 455
f 609 607 453
f 219 454 608
f 219 608 221
f 221 610 219
f 219 610 456
f 611 455 457
f 611 609 455
f 456 612 458
f 610 612 456
f 1033 613 958
f 613 457 958
f 613 611 457
f 459 1033 958
f 458 614 460
f 612 614 458
f 1033 960 613
f 1223 615 1136
f 1136 615 459
f 615 960 459
f 960 1033 459
f 461 1223 1136
f 222 616 462
f 222 462 220
f 220 460 222
f 222 460 614
f 1223 1138 615
f 461 6 1223
f 6 1138 1223
f 6 8 1138
f 188 263 617
f 8 188 617
f 6 188 8
f 463 263 188
f 42 618 464
f 42 464 40
f 40 462 42
f 42 462 616
f 263 190 617
f 423 619 364
f 364 619 463
f 619 190 463
f 190 263 463
f 514 575 423
f 514 423 364
f 465 575 514
f 982 1053 466
f 1172 620 1053
f 982 1172 1053
f 1170 1172 982
f 1170 464 1172
f 1172 464 618
f 423 366 619
f 366 423 516
f 516 423 575
f 465 668 575
f 668 516 575
f 668 670 516
f 816 670 668
f 816 818 670
f 1053 984 466
f 984 816 466
f 984 818 816
f 1053 620 984
f 621 697 739
f 697 622 739
f 741 623 739
f 739 623 621
f 843 887 622
f 887 739 622
f 887 741 739
f 887 843 1065
f 1065 843 1007
f 1007 624 1065
f 625 543 589
f 623 741 543
f 543 741 589
f 741 695 589
f 695 467 589
f 887 841 695
f 887 695 741
f 1067 468 841
f 887 1067 841
f 1065 1067 887
f 1065 624 1067
f 1067 624 626
f 82 21 469
f 627 205 82
f 205 21 82
f 205 203 21
f 205 379 203
f 381 379 205
f 564 529 628
f 529 381 628
f 529 379 381
f 564 470 529
f 629 233 275
f 275 233 471
f 233 391 471
f 233 393 391
f 393 625 589
f 541 393 589
f 391 393 541
f 589 467 541
f 1067 1005 468
f 626 1193 1257
f 626 1257 472
f 1067 626 472
f 1005 1067 472
f 1193 630 1257
f 631 1153 473
f 473 1153 1151
f 23 82 469
f 1151 23 469
f 1153 23 1151
f 627 82 23
f 531 564 628
f 683 470 564
f 531 683 564
f 685 683 531
f 685 831 683
f 833 831 685
f 833 997 831
f 999 997 833
f 999 1185 997
f 1187 1185 999
f 1187 55 1185
f 57 55 1187
f 57 629 275
f 231 57 275
f 55 57 231
f 275 471 231
f 1259 474 472
f 1259 472 1257
f 1257 630 1259
f 1259 630 632
f 633 967 475
f 475 967 965
f 473 965 967
f 473 967 631
f 1261 476 474
f 1261 474 1259
f 1259 632 1261
f 1261 632 634
f 635 475 477
f 635 633 475
f 1263 478 476
f 1263 476 1261
f 1261 634 1263
f 1263 634 636
f 637 477 479
f 637 635 477
f 478 1263 1194
f 638 478 1194
f 480 478 638
f 1263 636 1194
f 479 966 637
f 637 966 968
f 639 968 966
f 639 966 481
f 480 640 482
f 638 640 480
f 481 1152 639
f 639 1152 1154
f 22 1154 1152
f 22 24 1154
f 204 24 22
f 204 206 24
f 380 206 204
f 380 382 206
f 530 382 380
f 530 532 382
f 684 532 530
f 684 686 532
f 684 483 876
f 834 684 876
f 686 684 834
f 641 834 876
f 1008 642 484
f 1008 484 1006
f 1006 482 1008
f 1008 482 640
f 832 876 483
f 876 832 641
f 832 1000 641
f 832 998 1000
f 1186 1000 998
f 1186 1188 1000
f 56 1188 1186
f 56 58 1188
f 232 58 56
f 232 234 58
f 392 234 232
f 392 394 234
f 542 394 392
f 542 544 394
f 696 544 542
f 696 698 544
f 842 698 696
f 842 844 698
f 842 484 844
f 844 484 642
f 732 711 485
f 878 857 732
f 732 857 711
f 1056 1021 878
f 878 1021 857
f 1244 1207 1056
f 1056 1207 1021
f 1244 486 1207
f 580 557 487
f 713 732 485
f 713 485 557
f 643 713 557
f 580 643 557
f 732 713 859
f 732 859 878
f 878 859 1023
f 878 1023 1056
f 1056 1023 1209
f 1056 1209 1244
f 644 114 77
f 644 77 486
f 1209 644 486
f 1244 1209 486
f 114 488 77
f 489 582 487
f 487 582 580
f 643 580 582
f 643 582 645
f 646 116 114
f 646 114 644
f 488 114 490
f 490 114 116
f 430 407 491
f 559 582 489
f 559 489 407
f 647 559 407
f 430 647 407
f 645 582 559
f 648 118 116
f 648 116 646
f 490 116 492
f 492 116 118
f 493 432 491
f 491 432 430
f 647 430 432
f 647 432 649
f 650 120 118
f 650 118 648
f 492 118 494
f 494 118 120
f 495 434 493
f 493 434 432
f 649 432 434
f 649 434 651
f 1024 652 1066
f 1024 1066 1254
f 1024 1254 1210
f 120 650 1210
f 120 1210 1254
f 78 120 1254
f 496 78 1254
f 494 120 78
f 497 436 495
f 495 436 434
f 651 434 436
f 651 436 653
f 860 654 890
f 1066 652 860
f 890 1066 860
f 1068 1066 890
f 1208 1254 498
f 1254 1068 498
f 1254 1066 1068
f 496 1254 1208
f 499 438 497
f 497 438 436
f 592 560 653
f 436 592 653
f 438 592 436
f 560 592 746
f 560 746 714
f 890 654 714
f 746 890 714
f 892 890 746
f 1070 890 892
f 1068 890 1070
f 498 1068 500
f 500 1068 1070
f 408 438 499
f 558 592 408
f 408 592 438
f 501 748 558
f 748 592 558
f 748 746 592
f 894 746 748
f 892 746 894
f 1022 1070 502
f 1070 894 502
f 1070 892 894
f 500 1070 1022
f 712 748 501
f 858 894 712
f 712 894 748
f 502 894 858
f 759 655 717
f 717 655 863
f 863 655 803
f 803 760 863
f 719 761 717
f 717 761 759
f 717 865 719
f 717 863 865
f 969 1043 760
f 1043 863 760
f 1043 865 863
f 1043 969 1231
f 1231 969 1157
f 1157 762 1231
f 721 763 719
f 719 763 761
f 719 867 721
f 719 865 867
f 865 1045 867
f 865 1043 1045
f 1043 1233 1045
f 1043 1231 1233
f 1231 762 1233
f 1233 762 764
f 721 656 763
f 656 721 804
f 804 721 867
f 804 867 970
f 970 867 1045
f 970 1045 1158
f 1158 1045 1233
f 1233 764 1158
f 765 1139 605
f 605 1139 1137
f 1139 7 1137
f 9 7 1139
f 9 189 7
f 191 189 9
f 191 365 189
f 367 365 191
f 367 515 365
f 517 515 367
f 517 669 515
f 671 669 517
f 862 817 766
f 817 671 766
f 817 669 671
f 1040 983 862
f 862 983 817
f 1040 606 983
f 1026 959 607
f 605 959 1026
f 767 605 1026
f 765 605 767
f 819 862 766
f 862 819 985
f 862 985 1040
f 1171 606 1040
f 985 1171 1040
f 1173 1171 985
f 96 41 768
f 41 1173 768
f 41 1171 1173
f 96 608 41
f 1026 607 961
f 607 769 961
f 607 609 769
f 767 1026 961
f 43 96 768
f 770 278 221
f 770 221 608
f 43 770 608
f 96 43 608
f 278 610 221
f 771 609 611
f 771 769 609
f 772 282 278
f 772 278 770
f 610 278 612
f 612 278 282
f 773 611 613
f 773 771 611
f 774 286 282
f 774 282 772
f 612 282 614
f 614 282 286
f 613 960 773
f 773 960 962
f 775 962 960
f 775 960 615
f 616 222 286
f 774 616 286
f 776 616 774
f 614 286 222
f 615 1138 775
f 775 1138 1140
f 8 91 777
f 1140 8 777
f 1138 8 1140
f 617 91 8
f 44 778 618
f 44 618 42
f 42 616 44
f 44 616 776
f 91 10 777
f 265 779 190
f 190 779 617
f 779 10 617
f 10 91 617
f 619 265 190
f 1174 780 620
f 1174 620 1172
f 1172 618 1174
f 1174 618 778
f 265 192 779
f 619 366 265
f 366 192 265
f 366 368 192
f 516 368 366
f 516 518 368
f 670 518 516
f 670 672 518
f 818 672 670
f 818 820 672
f 984 820 818
f 984 986 820
f 984 620 986
f 986 620 780
f 781 699 737
f 737 699 883
f 883 699 845
f 883 845 1061
f 1061 845 1009
f 1009 782 1061
f 783 545 585
f 781 737 545
f 545 737 585
f 737 697 585
f 697 621 585
f 885 622 697
f 737 885 697
f 883 885 737
f 883 1063 885
f 883 1061 1063
f 1061 782 1063
f 1063 782 784
f 587 785 585
f 585 785 783
f 585 621 623
f 585 623 587
f 885 843 622
f 1063 1007 843
f 1063 843 885
f 784 1195 1253
f 784 1253 624
f 1063 784 624
f 1007 1063 624
f 1195 786 1253
f 787 395 435
f 785 587 395
f 395 587 435
f 587 543 435
f 543 625 435
f 587 623 543
f 1255 626 624
f 1255 624 1253
f 1253 786 1255
f 1255 786 788
f 254 205 627
f 412 381 254
f 254 381 205
f 412 628 381
f 789 235 629
f 629 235 233
f 235 787 435
f 393 235 435
f 233 235 393
f 435 625 393
f 1255 1193 626
f 1255 788 1193
f 788 630 1193
f 788 790 630
f 1218 1153 631
f 791 25 1218
f 25 1153 1218
f 25 23 1153
f 207 254 627
f 23 207 627
f 25 207 23
f 254 207 383
f 254 383 412
f 531 628 412
f 383 531 412
f 533 531 383
f 533 685 531
f 687 685 533
f 687 833 685
f 835 833 687
f 835 999 833
f 1001 999 835
f 1001 1187 999
f 1189 1187 1001
f 1189 57 1187
f 59 57 1189
f 629 57 59
f 629 59 789
f 790 63 123
f 632 790 123
f 630 790 632
f 63 792 123
f 1032 967 633
f 1155 1218 631
f 1155 631 967
f 793 1155 967
f 1032 793 967
f 791 1218 1155
f 125 634 632
f 125 632 123
f 123 792 125
f 125 792 794
f 635 1036 633
f 633 1036 1032
f 793 1032 1036
f 793 1036 795
f 127 636 634
f 127 634 125
f 125 794 127
f 127 794 796
f 637 1038 635
f 635 1038 1036
f 795 1036 1038
f 795 1038 797
f 1194 1265 638
f 127 64 636
f 636 64 1194
f 64 798 1194
f 798 1265 1194
f 127 796 64
f 968 1038 637
f 1156 797 1226
f 1226 797 639
f 797 1038 639
f 1038 968 639
f 799 1156 1226
f 638 1265 1196
f 800 638 1196
f 640 638 800
f 1265 798 1196
f 1154 1226 639
f 1226 1154 799
f 1154 26 799
f 1154 24 26
f 206 26 24
f 206 208 26
f 382 208 206
f 382 384 208
f 532 384 382
f 532 534 384
f 686 534 532
f 686 688 534
f 834 688 686
f 834 836 688
f 834 641 1054
f 1002 834 1054
f 836 834 1002
f 1002 1054 1242
f 1002 1242 1190
f 1190 1242 110
f 1190 110 60
f 801 60 110
f 1010 802 642
f 1010 642 1008
f 1008 640 1010
f 1010 640 800
f 1000 1054 641
f 1188 1242 1000
f 1000 1242 1054
f 58 110 1188
f 1188 110 1242
f 110 58 801
f 58 236 801
f 58 234 236
f 394 236 234
f 394 396 236
f 544 396 394
f 544 546 396
f 698 546 544
f 698 700 546
f 844 700 698
f 844 846 700
f 844 642 846
f 846 642 802
f 734 713 643
f 880 859 734
f 734 859 713
f 1058 1023 880
f 880 1023 859
f 1246 1209 1058
f 1058 1209 1023
f 1246 644 1209
f 645 736 643
f 643 736 734
f 882 734 736
f 880 734 882
f 1060 880 882
f 1058 880 1060
f 1248 1058 1060
f 1246 1058 1248
f 644 1246 646
f 646 1246 1248
f 584 559 647
f 559 584 645
f 584 736 645
f 584 738 736
f 884 736 738
f 882 736 884
f 1062 882 884
f 1060 882 1062
f 1250 1060 1062
f 1248 1060 1250
f 646 1248 648
f 648 1248 1250
f 649 586 647
f 647 586 584
f 740 584 586
f 738 584 740
f 886 738 740
f 884 738 886
f 1064 884 886
f 1062 884 1064
f 1252 1062 1064
f 1250 1062 1252
f 648 1250 650
f 650 1250 1252
f 651 588 649
f 649 588 586
f 742 586 588
f 740 586 742
f 888 740 742
f 886 740 888
f 1024 1064 652
f 1064 888 652
f 1064 886 888
f 1210 1252 1024
f 1024 1252 1064
f 650 1252 1210
f 653 590 651
f 651 590 588
f 744 588 590
f 742 588 744
f 860 888 654
f 888 744 654
f 888 742 744
f 652 888 860
f 560 590 653
f 714 744 560
f 560 744 590
f 654 744 714
f 905 657 715
f 715 657 861
f 861 657 805
f 805 906 861
f 907 503 563
f 905 715 503
f 503 715 563
f 715 655 563
f 655 759 563
f 861 803 655
f 861 655 715
f 906 971 1041
f 906 1041 760
f 861 906 760
f 803 861 760
f 1041 971 1229
f 1229 971 1159
f 1159 908 1229
f 565 909 563
f 563 909 907
f 563 759 761
f 563 761 565
f 1041 969 760
f 1229 1157 969
f 1229 969 1041
f 908 29 97
f 908 97 762
f 1229 908 762
f 1157 1229 762
f 29 910 97
f 567 911 565
f 565 911 909
f 565 761 763
f 565 763 567
f 99 764 762
f 99 762 97
f 97 910 99
f 99 910 912
f 567 504 911
f 723 913 656
f 656 913 763
f 913 504 763
f 504 567 763
f 804 869 723
f 804 723 656
f 970 1047 869
f 970 869 804
f 1158 1235 1047
f 1158 1047 970
f 1235 1158 764
f 99 1235 764
f 101 1235 99
f 99 912 101
f 101 912 914
f 723 658 913
f 658 723 806
f 806 723 869
f 806 869 915
f 869 1049 915
f 869 1047 1049
f 1047 1237 1049
f 1047 1235 1237
f 916 1237 30
f 1237 101 30
f 1237 1235 101
f 101 914 30
f 1049 972 915
f 972 1049 1160
f 1160 1049 1237
f 1237 916 1160
f 1212 1139 765
f 917 11 1212
f 11 1139 1212
f 11 9 1139
f 11 191 9
f 193 191 11
f 193 367 191
f 369 367 193
f 369 517 367
f 519 517 369
f 716 671 918
f 671 519 918
f 671 517 519
f 716 766 671
f 1212 765 1141
f 765 919 1141
f 765 767 919
f 917 1212 1141
f 673 716 918
f 819 766 716
f 673 819 716
f 821 819 673
f 1042 985 920
f 985 821 920
f 985 819 821
f 1230 1173 1042
f 1042 1173 985
f 1230 768 1173
f 1028 961 769
f 767 961 1028
f 921 767 1028
f 919 767 921
f 987 1042 920
f 1042 987 1175
f 1042 1175 1230
f 43 768 1230
f 1175 43 1230
f 45 43 1175
f 45 922 43
f 43 922 770
f 771 1030 769
f 769 1030 1028
f 921 1028 1030
f 921 1030 923
f 770 924 772
f 922 924 770
f 773 1034 771
f 771 1034 1030
f 923 1030 1034
f 923 1034 925
f 772 926 774
f 924 926 772
f 962 1034 773
f 925 1034 962
f 775 925 962
f 927 925 775
f 774 928 776
f 926 928 774
f 1225 929 1140
f 929 775 1140
f 929 927 775
f 777 1225 1140
f 46 930 778
f 46 778 44
f 44 776 46
f 46 776 928
f 1225 1142 929
f 93 931 10
f 10 931 777
f 931 1142 777
f 1142 1225 777
f 779 93 10
f 1176 932 780
f 1176 780 1174
f 1174 778 1176
f 1176 778 930
f 93 12 931
f 779 192 93
f 192 12 93
f 192 194 12
f 368 194 192
f 368 370 194
f 518 370 368
f 518 520 370
f 672 520 518
f 672 674 520
f 820 674 672
f 820 822 674
f 986 822 820
f 986 988 822
f 986 780 988
f 988 780 932
f 933 701 735
f 735 701 881
f 881 701 847
f 881 847 1059
f 1059 847 1011
f 1011 934 1059
f 935 547 583
f 933 735 547
f 547 735 583
f 735 699 583
f 699 781 583
f 881 845 699
f 881 699 735
f 1059 1009 845
f 1059 845 881
f 934 1197 1249
f 934 1249 782
f 1059 934 782
f 1009 1059 782
f 1197 936 1249
f 937 397 431
f 935 583 397
f 397 583 431
f 583 545 431
f 545 783 431
f 583 781 545
f 1251 784 782
f 1251 782 1249
f 1249 936 1251
f 1251 936 938
f 433 939 431
f 431 939 937
f 431 783 785
f 431 785 433
f 1251 1195 784
f 1251 938 1195
f 938 786 1195
f 938 940 786
f 941 237 273
f 939 433 237
f 237 433 273
f 433 395 273
f 395 787 273
f 433 785 395
f 786 942 788
f 940 942 786
f 235 789 273
f 789 941 273
f 789 943 941
f 273 787 235
f 788 944 790
f 942 944 788
f 84 25 791
f 256 207 84
f 84 207 25
f 414 383 256
f 256 383 207
f 566 533 414
f 414 533 383
f 720 687 566
f 566 687 533
f 866 835 720
f 720 835 687
f 1044 1001 866
f 866 1001 835
f 1232 1189 1044
f 1044 1189 1001
f 945 61 1232
f 61 1189 1232
f 61 59 1189
f 789 59 61
f 789 61 943
f 63 790 944
f 63 944 65
f 65 946 63
f 63 946 792
f 1220 1155 793
f 27 84 791
f 27 791 1155
f 947 27 1155
f 1220 947 1155
f 84 27 209
f 84 209 256
f 256 209 385
f 256 385 414
f 414 385 535
f 414 535 566
f 566 535 689
f 566 689 720
f 720 689 837
f 720 837 866
f 866 837 1003
f 866 1003 1044
f 1044 1003 1191
f 1044 1191 1232
f 945 1232 1191
f 792 948 794
f 946 948 792
f 795 1222 793
f 793 1222 1220
f 947 1220 1222
f 947 1222 949
f 794 950 796
f 948 950 794
f 797 1224 795
f 795 1224 1222
f 949 1222 1224
f 949 1224 951
f 66 952 798
f 66 798 64
f 64 796 66
f 66 796 950
f 1156 1224 797
f 28 951 92
f 92 951 799
f 951 1224 799
f 1224 1156 799
f 28 92 264
f 28 264 210
f 210 264 422
f 210 422 386
f 386 422 574
f 386 574 536
f 536 574 728
f 536 728 690
f 690 728 874
f 690 874 838
f 838 874 1052
f 838 1052 1004
f 1004 1052 1240
f 1004 1240 1192
f 1192 1240 108
f 1192 108 62
f 953 62 108
f 1198 954 800
f 1198 800 1196
f 1196 798 1198
f 1198 798 952
f 26 92 799
f 208 264 26
f 26 264 92
f 384 422 208
f 208 422 264
f 534 574 384
f 384 574 422
f 688 728 534
f 534 728 574
f 836 874 688
f 688 874 728
f 1002 1052 836
f 836 1052 874
f 1190 1240 1002
f 1002 1240 1052
f 60 108 1190
f 1190 108 1240
f 238 953 294
f 294 953 801
f 953 108 801
f 108 60 801
f 955 238 294
f 1012 956 802
f 1012 802 1010
f 1010 800 1012
f 1012 800 954
f 236 294 801
f 294 236 955
f 236 398 955
f 236 396 398
f 546 398 396
f 546 548 398
f 700 548 546
f 700 702 548
f 846 702 700
f 846 848 702
f 846 802 848
f 848 802 956
f 1081 505 561
f 561 505 905
f 505 657 905
f 505 659 657
f 659 805 657
f 807 805 659
f 906 805 1039
f 805 973 1039
f 805 807 973
f 973 1082 1039
f 1083 355 411
f 1081 561 355
f 355 561 411
f 561 503 411
f 503 907 411
f 561 905 503
f 1039 971 906
f 971 1039 1082
f 1161 971 1082
f 1159 971 1161
f 908 1159 95
f 1159 31 95
f 1159 1161 31
f 31 1084 95
f 413 1085 411
f 411 1085 1083
f 411 907 909
f 411 909 413
f 95 29 908
f 1084 211 277
f 1084 277 910
f 95 1084 910
f 29 95 910
f 211 1086 277
f 415 1087 413
f 413 1087 1085
f 413 909 911
f 413 911 415
f 281 912 910
f 281 910 277
f 277 1086 281
f 281 1086 1088
f 415 356 1087
f 569 1089 504
f 504 1089 911
f 1089 356 911
f 356 415 911
f 913 569 504
f 285 914 912
f 285 912 281
f 281 1088 285
f 285 1088 1090
f 569 506 1089
f 913 658 569
f 658 506 569
f 658 660 506
f 806 871 1091
f 660 806 1091
f 658 806 660
f 915 871 806
f 30 103 916
f 285 212 914
f 914 212 30
f 212 1092 30
f 1092 103 30
f 285 1090 212
f 871 808 1091
f 915 972 871
f 972 808 871
f 972 974 808
f 1160 974 972
f 1160 1162 974
f 103 32 916
f 32 1160 916
f 32 1162 1160
f 103 1092 32
f 80 11 917
f 252 193 80
f 80 193 11
f 410 369 252
f 252 369 193
f 562 519 410
f 410 519 369
f 562 918 519
f 1214 1141 919
f 13 80 917
f 13 917 1141
f 1093 13 1141
f 1214 1093 1141
f 80 13 195
f 80 195 252
f 252 195 371
f 252 371 410
f 410 371 521
f 410 521 562
f 673 918 562
f 521 673 562
f 675 673 521
f 675 821 673
f 823 821 675
f 823 1094 821
f 821 1094 920
f 1214 919 1143
f 919 1095 1143
f 919 921 1095
f 1093 1214 1143
f 987 920 1094
f 987 1094 989
f 989 1175 987
f 1177 1175 989
f 1177 45 1175
f 47 45 1177
f 47 1096 45
f 45 1096 922
f 1097 921 923
f 1097 1095 921
f 922 1098 924
f 1096 1098 922
f 1099 923 925
f 1099 1097 923
f 1098 223 287
f 926 1098 287
f 924 1098 926
f 223 1100 287
f 1101 925 927
f 1101 1099 925
f 926 287 224
f 1102 926 224
f 928 926 1102
f 287 1100 224
f 1103 927 929
f 1103 1101 927
f 48 1104 930
f 48 930 46
f 46 928 48
f 48 928 1102
f 929 1142 1103
f 1103 1142 1144
f 1105 1144 1142
f 1105 1142 931
f 1178 1106 932
f 1178 932 1176
f 1176 930 1178
f 1178 930 1104
f 931 12 1105
f 1105 12 14
f 194 14 12
f 194 196 14
f 370 196 194
f 370 372 196
f 520 372 370
f 520 522 372
f 674 522 520
f 674 676 522
f 822 676 674
f 822 824 676
f 988 824 822
f 988 990 824
f 988 932 990
f 990 932 1106
f 1107 703 733
f 733 703 879
f 879 703 849
f 879 849 1057
f 1057 849 1013
f 1057 1013 1245
f 1245 1013 1199
f 1199 1108 1245
f 1109 549 581
f 1107 733 549
f 549 733 581
f 733 701 581
f 701 933 581
f 879 847 701
f 879 701 733
f 1057 1011 847
f 1057 847 879
f 1247 934 1011
f 1057 1247 1011
f 1245 1247 1057
f 67 115 1108
f 115 1245 1108
f 115 1247 1245
f 67 1110 115
f 1111 399 429
f 1109 581 399
f 399 581 429
f 581 547 429
f 547 935 429
f 581 933 547
f 1247 1197 934
f 117 936 1197
f 1247 117 1197
f 115 117 1247
f 115 1110 117
f 117 1110 1112
f 397 937 429
f 937 1111 429
f 937 1113 1111
f 429 935 397
f 119 938 936
f 119 936 117
f 117 1112 119
f 119 1112 1114
f 1115 239 271
f 939 271 239
f 1113 939 239
f 937 939 1113
f 121 940 938
f 121 938 119
f 119 1114 121
f 121 1114 1116
f 237 941 271
f 941 1115 271
f 941 1117 1115
f 271 939 237
f 940 121 68
f 1118 940 68
f 942 940 1118
f 121 1116 68
f 1119 941 943
f 1119 1117 941
f 942 1120 944
f 1118 1120 942
f 98 61 945
f 943 61 98
f 1121 943 98
f 1119 943 1121
f 1122 124 65
f 944 1122 65
f 1120 1122 944
f 124 946 65
f 86 27 947
f 258 209 86
f 86 209 27
f 416 385 258
f 258 385 209
f 568 535 416
f 416 535 385
f 722 689 568
f 568 689 535
f 868 837 722
f 722 837 689
f 1046 1003 868
f 868 1003 837
f 1234 1191 1046
f 1046 1191 1003
f 1191 1234 945
f 1234 98 945
f 1234 100 98
f 1121 98 100
f 1121 100 1123
f 69 124 1122
f 69 1124 124
f 1124 946 124
f 1124 948 946
f 949 88 947
f 947 88 86
f 260 86 88
f 258 86 260
f 418 258 260
f 416 258 418
f 570 416 418
f 568 416 570
f 724 568 570
f 722 568 724
f 870 722 724
f 868 722 870
f 1048 868 870
f 1046 868 1048
f 1236 1046 1048
f 1234 1046 1236
f 102 1234 1236
f 100 1234 102
f 1123 100 102
f 1123 102 1125
f 70 1126 128
f 128 950 70
f 950 1124 70
f 950 948 1124
f 951 90 949
f 949 90 88
f 262 88 90
f 260 88 262
f 420 260 262
f 418 260 420
f 572 418 420
f 570 418 572
f 726 570 572
f 724 570 726
f 872 724 726
f 870 724 872
f 1050 870 872
f 1048 870 1050
f 1238 1048 1050
f 1236 1048 1238
f 104 1236 1238
f 102 1236 104
f 1125 102 104
f 1125 104 1127
f 952 66 128
f 1126 952 128
f 1128 952 1126
f 950 128 66
f 28 90 951
f 210 262 28
f 28 262 90
f 386 420 210
f 210 420 262
f 536 572 386
f 386 572 420
f 690 726 536
f 536 726 572
f 838 872 690
f 690 872 726
f 1004 1050 838
f 838 1050 872
f 1192 1238 1004
f 1004 1238 1050
f 62 104 1192
f 1192 104 1238
f 240 1127 292
f 292 1127 953
f 1127 104 953
f 104 62 953
f 1129 240 292
f 1200 1130 954
f 1200 954 1198
f 1198 952 1200
f 1200 952 1128
f 238 292 953
f 400 1129 450
f 450 1129 955
f 1129 292 955
f 292 238 955
f 1131 400 450
f 850 1132 904
f 850 904 956
f 1012 850 956
f 1014 850 1012
f 1012 954 1014
f 1014 954 1130
f 398 450 955
f 450 398 1131
f 398 550 1131
f 398 548 550
f 702 550 548
f 702 704 550
f 1132 704 904
f 704 848 904
f 704 702 848
f 956 904 848
f 1267 357 409
f 409 357 1081
f 357 505 1081
f 357 507 505
f 507 659 505
f 661 659 507
f 661 807 659
f 809 807 661
f 809 973 807
f 975 973 809
f 975 1268 973
f 973 1268 1082
f 1269 181 253
f 1267 409 181
f 181 409 253
f 409 355 253
f 355 1083 253
f 409 1081 355
f 1161 1082 1268
f 1161 1268 1163
f 1163 31 1161
f 33 31 1163
f 33 1270 31
f 31 1270 1084
f 255 1271 253
f 253 1271 1269
f 253 1083 1085
f 253 1085 255
f 211 1084 1270
f 211 1270 213
f 213 1272 211
f 211 1272 1086
f 257 1273 255
f 255 1273 1271
f 255 1085 1087
f 255 1087 257
f 1086 1274 1088
f 1272 1274 1086
f 257 182 1273
f 1087 356 257
f 356 182 257
f 356 358 182
f 1275 358 356
f 1275 356 1089
f 1088 1276 1090
f 1274 1276 1088
f 1089 506 1275
f 1275 506 508
f 660 725 1277
f 508 660 1277
f 506 660 508
f 1091 725 660
f 214 1278 1092
f 214 1092 212
f 212 1090 214
f 214 1090 1276
f 725 662 1277
f 1091 808 725
f 808 662 725
f 808 810 662
f 974 1051 1279
f 810 974 1279
f 808 974 810
f 1162 1239 1051
f 1162 1051 974
f 34 1280 1239
f 1162 34 1239
f 32 34 1162
f 32 1092 34
f 34 1092 1278
f 1051 976 1279
f 976 1051 1164
f 1164 1051 1239
f 1239 1280 1164
f 1281 15 1093
f 1093 15 13
f 15 195 13
f 197 195 15
f 197 371 195
f 373 371 197
f 373 521 371
f 523 521 373
f 718 675 1282
f 675 523 1282
f 675 521 523
f 864 823 718
f 718 823 675
f 864 1094 823
f 1216 1143 1095
f 1093 1143 1216
f 1283 1093 1216
f 1281 1093 1283
f 677 718 1282
f 718 677 825
f 718 825 864
f 989 1094 864
f 825 989 864
f 991 989 825
f 991 1177 989
f 1179 1177 991
f 1179 47 1177
f 49 47 1179
f 49 1284 47
f 47 1284 1096
f 1216 1095 1145
f 1095 1285 1145
f 1095 1097 1285
f 1283 1216 1145
f 1284 225 283
f 1098 1284 283
f 1096 1284 1098
f 225 1286 283
f 1287 1097 1099
f 1287 1285 1097
f 283 223 1098
f 283 1286 223
f 1286 1100 223
f 1286 1288 1100
f 1289 1099 1101
f 1289 1287 1099
f 224 289 1102
f 224 1100 289
f 1100 1290 289
f 1100 1288 1290
f 1291 1101 1103
f 1291 1289 1101
f 48 107 1104
f 107 48 1102
f 289 107 1102
f 291 107 289
f 289 1290 291
f 291 1290 1292
f 1103 1144 1291
f 1291 1144 1146
f 1293 1146 1144
f 1293 1144 1105
f 1178 1241 1106
f 107 50 1104
f 1104 50 1178
f 50 1294 1178
f 1294 1241 1178
f 50 107 226
f 226 107 291
f 291 1292 226
f 1105 14 1293
f 1293 14 16
f 196 16 14
f 196 198 16
f 372 198 196
f 372 374 198
f 522 374 372
f 522 524 374
f 676 524 522
f 676 678 524
f 824 678 676
f 824 826 678
f 990 826 824
f 990 992 826
f 1241 1180 1106
f 1180 990 1106
f 1180 992 990
f 1241 1294 1180
f 1295 705 731
f 731 705 877
f 877 705 851
f 877 851 1055
f 1055 851 1015
f 1055 1015 1243
f 1243 1015 1201
f 1243 1201 111
f 111 1201 71
f 71 1296 111
f 1297 551 579
f 1295 731 551
f 551 731 579
f 731 703 579
f 703 1107 579
f 877 849 703
f 877 703 731
f 1055 1013 849
f 1055 849 877
f 1243 1199 1013
f 1243 1013 1055
f 113 1108 1199
f 1243 113 1199
f 111 113 1243
f 111 1296 113
f 113 1296 1298
f 1299 401 427
f 1297 579 401
f 401 579 427
f 579 549 427
f 549 1109 427
f 579 1107 549
f 113 67 1108
f 113 1298 67
f 1298 1110 67
f 1298 1300 1110
f 1301 241 267
f 1299 427 241
f 241 427 267
f 427 399 267
f 399 1111 267
f 427 1109 399
f 1110 1302 1112
f 1300 1302 1110
f 269 1303 267
f 267 1303 1301
f 267 1111 1113
f 267 1113 269
f 1112 1304 1114
f 1302 1304 1112
f 239 1115 269
f 1115 1303 269
f 1115 1305 1303
f 269 1113 239
f 1114 1306 1116
f 1304 1306 1114
f 1307 1115 1117
f 1307 1305 1115
f 72 1308 1118
f 72 1118 68
f 68 1116 72
f 72 1116 1306
f 1309 1117 1119
f 1309 1307 1117
f 1118 1310 1120
f 1308 1310 1118
f 1311 1119 1121
f 1311 1309 1119
f 1120 1312 1122
f 1310 1312 1120
f 1313 1121 1123
f 1313 1311 1121
f 1314 126 69
f 1122 1314 69
f 1312 1314 1122
f 126 1124 69
f 1315 1123 1125
f 1315 1313 1123
f 1126 70 126
f 1314 1126 126
f 1316 1126 1314
f 1124 126 70
f 242 1315 290
f 1315 1127 290
f 1315 1125 1127
f 1317 242 290
f 1202 1318 1266
f 1266 1128 1202
f 1128 1316 1202
f 1128 1126 1316
f 240 290 1127
f 402 1317 448
f 448 1317 1129
f 1317 290 1129
f 290 240 1129
f 1319 402 448
f 1016 1320 1080
f 1266 1318 1016
f 1266 1016 1080
f 1200 1266 1080
f 1130 1200 1080
f 1128 1266 1200
f 400 448 1129
f 552 1319 604
f 604 1319 1131
f 1319 448 1131
f 448 400 1131
f 552 604 758
f 552 758 706
f 706 758 1132
f 850 706 1132
f 852 706 850
f 1320 852 1080
f 852 1014 1080
f 852 850 1014
f 1130 1080 1014
f 550 604 1131
f 704 758 550
f 550 758 604
f 1132 758 704
f 129 183 251
f 251 183 1267
f 183 357 1267
f 183 359 357
f 359 507 357
f 509 507 359
f 509 661 507
f 663 661 509
f 663 809 661
f 811 809 663
f 811 975 809
f 977 975 811
f 1268 975 1227
f 975 1165 1227
f 975 977 1165
f 1165 130 1227
f 131 1 81
f 129 251 1
f 1 251 81
f 251 181 81
f 181 1269 81
f 251 1267 181
f 1227 1163 1268
f 1163 1227 130
f 35 1163 130
f 33 1163 35
f 35 132 33
f 33 132 1270
f 83 133 81
f 81 133 131
f 81 1269 1271
f 81 1271 83
f 213 1270 132
f 213 132 215
f 215 134 213
f 213 134 1272
f 85 135 83
f 83 135 133
f 83 1271 1273
f 83 1273 85
f 1272 136 1274
f 134 136 1272
f 85 2 135
f 259 137 182
f 182 137 1273
f 137 2 1273
f 2 85 1273
f 358 417 259
f 358 259 182
f 1275 417 358
f 1274 138 1276
f 136 138 1274
f 259 184 137
f 184 259 360
f 360 259 417
f 571 139 508
f 508 139 1275
f 139 360 1275
f 360 417 1275
f 1277 571 508
f 216 140 1278
f 216 1278 214
f 214 1276 216
f 216 1276 138
f 571 510 139
f 1277 662 571
f 662 510 571
f 662 664 510
f 810 873 141
f 664 810 141
f 662 810 664
f 1279 873 810
f 34 105 1280
f 34 1278 105
f 1278 142 105
f 1278 140 142
f 873 812 141
f 1279 976 873
f 976 812 873
f 976 978 812
f 1164 978 976
f 1164 1166 978
f 105 36 1280
f 36 1164 1280
f 36 1166 1164
f 105 142 36
f 143 17 1281
f 1281 17 15
f 17 197 15
f 199 197 17
f 199 373 197
f 375 373 199
f 375 523 373
f 525 523 375
f 525 144 523
f 523 144 1282
f 145 1281 1283
f 145 143 1281
f 677 1282 144
f 677 144 679
f 679 825 677
f 827 825 679
f 827 991 825
f 993 991 827
f 993 1179 991
f 1181 1179 993
f 1181 49 1179
f 51 49 1181
f 1284 49 279
f 49 227 279
f 49 51 227
f 227 146 279
f 147 1147 1285
f 1285 1147 1145
f 1283 1145 1147
f 1283 1147 145
f 279 225 1284
f 146 387 441
f 146 441 1286
f 279 146 1286
f 225 279 1286
f 441 387 595
f 595 387 537
f 595 537 749
f 749 537 691
f 691 148 749
f 149 1285 1287
f 149 147 1285
f 443 1288 1286
f 443 1286 441
f 441 597 443
f 441 595 597
f 595 751 597
f 595 749 751
f 749 148 751
f 751 148 150
f 151 1287 1289
f 151 149 1287
f 445 1290 1288
f 445 1288 443
f 443 599 445
f 443 597 599
f 597 753 599
f 597 751 753
f 751 150 753
f 753 150 152
f 153 1289 1291
f 153 151 1289
f 447 1292 1290
f 447 1290 445
f 445 601 447
f 445 599 601
f 599 755 601
f 599 753 755
f 753 152 755
f 755 152 154
f 1291 1146 153
f 153 1146 1148
f 155 1148 1146
f 155 1146 1293
f 50 109 1294
f 226 293 109
f 226 109 50
f 447 388 1292
f 1292 388 226
f 388 156 226
f 156 293 226
f 388 447 538
f 538 447 601
f 538 601 692
f 692 601 755
f 755 154 692
f 1293 16 155
f 155 16 18
f 198 18 16
f 198 200 18
f 374 200 198
f 374 376 200
f 524 376 374
f 524 526 376
f 678 526 524
f 678 680 526
f 826 680 678
f 826 828 680
f 992 828 826
f 992 994 828
f 1180 994 992
f 1180 1182 994
f 109 52 1294
f 52 1180 1294
f 52 1182 1180
f 52 109 228
f 228 109 293
f 293 156 228
f 157 553 577
f 577 553 1295
f 553 705 1295
f 553 707 705
f 707 851 705
f 853 851 707
f 853 1015 851
f 1017 1015 853
f 1017 1201 1015
f 1203 1201 1017
f 1203 71 1201
f 73 71 1203
f 73 158 71
f 71 158 1296
f 159 403 425
f 157 577 403
f 403 577 425
f 577 551 425
f 551 1297 425
f 577 1295 551
f 158 247 295
f 1298 158 295
f 1296 158 1298
f 247 160 295
f 401 1299 425
f 1299 159 425
f 1299 161 159
f 425 1297 401
f 297 1300 1298
f 297 1298 295
f 295 160 297
f 297 160 162
f 163 243 1301
f 1301 243 241
f 1299 241 243
f 1299 243 161
f 299 1302 1300
f 299 1300 297
f 297 162 299
f 299 162 164
f 165 1301 1303
f 165 163 1301
f 301 1304 1302
f 301 1302 299
f 299 164 301
f 301 164 166
f 167 1303 1305
f 167 165 1303
f 1304 301 248
f 168 1304 248
f 1306 1304 168
f 301 166 248
f 169 1305 1307
f 169 167 1305
f 74 170 1308
f 74 1308 72
f 72 1306 74
f 74 1306 168
f 171 1307 1309
f 171 169 1307
f 1308 172 1310
f 170 172 1308
f 173 1309 1311
f 173 171 1309
f 1310 174 1312
f 172 174 1310
f 244 173 284
f 173 1313 284
f 173 1311 1313
f 175 244 284
f 1204 176 1262
f 1262 1314 1204
f 1314 174 1204
f 1314 1312 174
f 1315 288 1313
f 1313 288 284
f 175 284 288
f 175 288 177
f 178 1264 1262
f 178 1262 176
f 1314 1262 1316
f 1316 1262 1264
f 242 288 1315
f 404 177 446
f 446 177 1317
f 177 288 1317
f 288 242 1317
f 179 404 446
f 1018 180 1078
f 1264 178 1018
f 1264 1018 1078
f 1202 1264 1078
f 1318 1202 1078
f 1316 1264 1202
f 402 446 1317
f 554 179 602
f 602 179 1319
f 179 446 1319
f 446 402 1319
f 554 602 756
f 554 756 708
f 708 756 902
f 708 902 854
f 1078 180 854
f 1078 854 902
f 1016 1078 902
f 1320 1016 902
f 1318 1078 1016
f 552 602 1319
f 706 756 552
f 552 756 602
f 852 902 706
f 706 902 756
f 1320 902 852
