# Converted from NanoShaper .vert/.face
v 17.160000 -14.499000 -16.353000
v 19.652000 -14.499000 -16.353000
v 17.037000 -14.499000 -15.853000
v 20.798000 -14.499000 -15.853000
v 17.202000 -14.499000 -15.353000
v 20.923000 -14.499000 -15.353000
v 17.638000 -14.499000 -14.853000
v 21.000000 -14.499000 -14.853000
v 18.110000 -14.499000 -14.353000
v 20.848000 -14.499000 -14.353000
v 16.633000 -10.499000 -17.353000
v 19.385000 -10.499000 -17.353000
v 16.279000 -10.499000 -16.853000
v 19.937000 -10.499000 -16.853000
v 16.180000 -10.499000 -16.353000
v 20.482000 -10.499000 -16.353000
v 16.279000 -10.499000 -15.853000
v 20.989000 -10.499000 -15.853000
v 16.510000 -10.499000 -15.353000
v 21.456000 -10.499000 -15.353000
v 16.602000 -10.499000 -14.853000
v 21.827000 -10.499000 -14.853000
v 16.581000 -10.499000 -14.353000
v 21.959000 -10.499000 -14.353000
v 16.640000 -10.499000 -13.853000
v 21.860000 -10.499000 -13.853000
v 16.758000 -10.499000 -13.353000
v 21.699000 -10.499000 -13.353000
v 17.012000 -10.499000 -12.853000
v 21.320000 -10.499000 -12.853000
v 17.174000 -10.499000 -12.353000
v 20.577000 -10.499000 -12.353000
v 17.332000 -10.499000 -11.853000
v 20.003000 -10.499000 -11.853000
v 17.685000 -10.499000 -11.353000
v 19.434000 -10.499000 -11.353000
v 17.511000 -14.499000 -16.706000
v 17.511000 -14.499000 -15.031000
v 18.011000 -14.499000 -16.831000
v 18.011000 -14.499000 -14.455000
v 18.511000 -14.499000 -16.835000
v 18.511000 -14.499000 -13.977000
v 19.011000 -14.499000 -16.686000
v 19.011000 -14.499000 -13.857000
v 19.511000 -14.499000 -16.389000
v 19.511000 -14.499000 -13.881000
v 20.011000 -14.499000 -16.337000
v 20.011000 -14.499000 -13.925000
v 20.511000 -14.499000 -16.168000
v 20.511000 -14.499000 -14.040000
v 16.511000 -10.499000 -17.223000
v 16.511000 -10.499000 -15.351000
v 17.011000 -10.499000 -17.650000
v 17.011000 -10.499000 -12.857000
v 17.511000 -10.499000 -17.806000
v 17.511000 -10.499000 -11.540000
v 18.011000 -10.499000 -17.810000
v 18.011000 -10.499000 -11.142000
v 18.511000 -10.499000 -17.842000
v 18.511000 -10.499000 -11.024000
v 19.011000 -10.499000 -17.692000
v 19.011000 -10.499000 -11.103000
v 19.511000 -10.499000 -17.237000
v 19.511000 -10.499000 -11.417000
v 20.011000 -10.499000 -16.788000
v 20.011000 -10.499000 -11.860000
v 20.511000 -10.499000 -16.326000
v 20.511000 -10.499000 -12.283000
v 21.011000 -10.499000 -15.831000
v 21.011000 -10.499000 -12.663000
v 21.511000 -10.499000 -15.281000
v 21.511000 -10.499000 -13.043000
v 17.011000 -12.406000 -17.853000
v 17.011000 -10.695000 -17.853000
v 17.511000 -12.885000 -17.853000
v 17.511000 -10.544000 -17.853000
v 18.011000 -13.003000 -17.853000
v 18.011000 -10.543000 -17.853000
v 18.511000 -12.858000 -17.853000
v 18.511000 -10.511000 -17.853000
v 19.011000 -12.298000 -17.853000
v 19.011000 -10.670000 -17.853000
v 17.011000 -13.410000 -13.853000
v 17.011000 -9.019000 -13.853000
v 17.511000 -13.784000 -13.853000
v 17.511000 -8.652000 -13.853000
v 18.011000 -14.051000 -13.853000
v 18.011000 -8.301000 -13.853000
v 18.511000 -14.371000 -13.853000
v 18.511000 -8.005000 -13.853000
v 19.011000 -14.495000 -13.853000
v 19.011000 -7.697000 -13.853000
v 19.511000 -14.470000 -13.853000
v 19.511000 -7.611000 -13.853000
v 20.011000 -14.432000 -13.853000
v 20.011000 -7.612000 -13.853000
v 20.511000 -14.323000 -13.853000
v 20.511000 -7.648000 -13.853000
v 21.011000 -13.890000 -13.853000
v 21.011000 -7.747000 -13.853000
v 21.511000 -11.043000 -13.853000
v 21.511000 -8.087000 -13.853000
v 22.011000 -10.301000 -13.853000
v 22.011000 -8.710000 -13.853000
v 17.120000 -13.999000 -16.853000
v 19.332000 -13.999000 -16.853000
v 16.774000 -13.999000 -16.353000
v 20.833000 -13.999000 -16.353000
v 16.687000 -13.999000 -15.853000
v 21.179000 -13.999000 -15.853000
v 16.802000 -13.999000 -15.353000
v 21.276000 -13.999000 -15.353000
v 17.159000 -13.999000 -14.853000
v 21.351000 -13.999000 -14.853000
v 17.516000 -13.999000 -14.353000
v 21.245000 -13.999000 -14.353000
v 17.923000 -13.999000 -13.853000
v 20.921000 -13.999000 -13.853000
v 19.668000 -13.999000 -13.353000
v 20.311000 -13.999000 -13.353000
v 18.393000 -9.999000 -17.353000
v 18.563000 -9.999000 -17.353000
v 16.640000 -9.999000 -16.853000
v 19.449000 -9.999000 -16.853000
v 16.503000 -9.999000 -16.353000
v 20.378000 -9.999000 -16.353000
v 16.615000 -9.999000 -15.853000
v 21.415000 -9.999000 -15.853000
v 16.698000 -9.999000 -15.353000
v 21.827000 -9.999000 -15.353000
v 16.685000 -9.999000 -14.853000
v 22.184000 -9.999000 -14.853000
v 16.630000 -9.999000 -14.353000
v 22.283000 -9.999000 -14.353000
v 16.571000 -9.999000 -13.853000
v 22.184000 -9.999000 -13.853000
v 16.673000 -9.999000 -13.353000
v 21.850000 -9.999000 -13.353000
v 16.968000 -9.999000 -12.853000
v 21.450000 -9.999000 -12.853000
v 17.145000 -9.999000 -12.353000
v 20.868000 -9.999000 -12.353000
v 17.247000 -9.999000 -11.853000
v 20.366000 -9.999000 -11.853000
v 17.568000 -9.999000 -11.353000
v 19.855000 -9.999000 -11.353000
v 17.011000 -13.999000 -16.743000
v 17.011000 -13.999000 -15.027000
v 17.511000 -13.999000 -17.093000
v 17.511000 -13.999000 -14.363000
v 18.011000 -13.999000 -17.181000
v 18.011000 -13.999000 -13.768000
v 18.511000 -13.999000 -17.140000
v 18.511000 -13.999000 -13.500000
v 19.011000 -13.999000 -17.029000
v 19.011000 -13.999000 -13.353000
v 19.511000 -13.999000 -16.774000
v 19.511000 -13.999000 -13.379000
v 20.011000 -13.999000 -16.682000
v 20.011000 -13.999000 -13.303000
v 20.511000 -13.999000 -16.564000
v 20.511000 -13.999000 -13.443000
v 21.011000 -13.999000 -16.158000
v 21.011000 -13.999000 -13.974000
v 16.511000 -9.999000 -16.471000
v 16.511000 -9.999000 -16.234000
v 17.011000 -9.999000 -17.215000
v 17.011000 -9.999000 -12.772000
v 17.511000 -9.999000 -17.339000
v 17.511000 -9.999000 -11.414000
v 18.011000 -9.999000 -17.351000
v 18.011000 -9.999000 -11.054000
v 18.511000 -9.999000 -17.356000
v 18.511000 -9.999000 -10.943000
v 19.011000 -9.999000 -17.202000
v 19.011000 -9.999000 -11.010000
v 19.511000 -9.999000 -16.794000
v 19.511000 -9.999000 -11.151000
v 20.011000 -9.999000 -16.467000
v 20.011000 -9.999000 -11.502000
v 20.511000 -9.999000 -16.308000
v 20.511000 -9.999000 -11.986000
v 21.011000 -9.999000 -16.104000
v 21.011000 -9.999000 -12.479000
v 21.511000 -9.999000 -15.758000
v 21.511000 -9.999000 -12.913000
v 22.011000 -9.999000 -15.154000
v 22.011000 -9.999000 -13.554000
v 16.511000 -12.362000 -17.353000
v 16.511000 -10.686000 -17.353000
v 17.011000 -12.924000 -17.353000
v 17.011000 -10.139000 -17.353000
v 17.511000 -13.433000 -17.353000
v 17.511000 -10.014000 -17.353000
v 18.011000 -13.584000 -17.353000
v 18.011000 -10.002000 -17.353000
v 18.511000 -13.447000 -17.353000
v 18.511000 -9.996000 -17.353000
v 19.011000 -13.114000 -17.353000
v 19.011000 -10.147000 -17.353000
v 19.511000 -12.432000 -17.353000
v 19.511000 -10.620000 -17.353000
v 20.011000 -11.717000 -17.353000
v 20.011000 -11.322000 -17.353000
v 17.011000 -13.228000 -13.353000
v 17.011000 -9.164000 -13.353000
v 17.511000 -13.643000 -13.353000
v 17.511000 -8.818000 -13.353000
v 18.011000 -13.769000 -13.353000
v 18.011000 -8.500000 -13.353000
v 18.511000 -13.871000 -13.353000
v 18.511000 -8.012000 -13.353000
v 19.011000 -13.999000 -13.353000
v 19.011000 -7.681000 -13.353000
v 19.511000 -13.974000 -13.353000
v 19.511000 -7.586000 -13.353000
v 20.011000 -14.050000 -13.353000
v 20.011000 -7.557000 -13.353000
v 20.511000 -13.909000 -13.353000
v 20.511000 -7.631000 -13.353000
v 21.011000 -12.011000 -13.353000
v 21.011000 -7.840000 -13.353000
v 21.511000 -10.826000 -13.353000
v 21.511000 -8.217000 -13.353000
v 17.631000 -13.499000 -17.353000
v 18.355000 -13.499000 -17.353000
v 16.935000 -13.499000 -16.853000
v 19.951000 -13.499000 -16.853000
v 16.662000 -13.499000 -16.353000
v 20.980000 -13.499000 -16.353000
v 16.582000 -13.499000 -15.853000
v 21.288000 -13.499000 -15.853000
v 16.678000 -13.499000 -15.353000
v 21.383000 -13.499000 -15.353000
v 16.827000 -13.499000 -14.853000
v 21.457000 -13.499000 -14.853000
v 16.978000 -13.499000 -14.353000
v 21.367000 -13.499000 -14.353000
v 17.099000 -13.499000 -13.853000
v 21.231000 -13.499000 -13.853000
v 17.274000 -13.499000 -13.353000
v 20.894000 -13.499000 -13.353000
v 19.371000 -13.499000 -12.853000
v 19.741000 -13.499000 -12.853000
v 18.269000 -9.499000 -16.853000
v 18.841000 -9.499000 -16.853000
v 17.548000 -9.499000 -16.353000
v 19.922000 -9.499000 -16.353000
v 17.154000 -9.499000 -15.853000
v 21.533000 -9.499000 -15.853000
v 16.998000 -9.499000 -15.353000
v 21.954000 -9.499000 -15.353000
v 16.813000 -9.499000 -14.853000
v 22.281000 -9.499000 -14.853000
v 16.726000 -9.499000 -14.353000
v 22.373000 -9.499000 -14.353000
v 16.678000 -9.499000 -13.853000
v 22.281000 -9.499000 -13.853000
v 16.789000 -9.499000 -13.353000
v 21.952000 -9.499000 -13.353000
v 17.098000 -9.499000 -12.853000
v 21.478000 -9.499000 -12.853000
v 17.255000 -9.499000 -12.353000
v 21.023000 -9.499000 -12.353000
v 17.359000 -9.499000 -11.853000
v 20.514000 -9.499000 -11.853000
v 17.722000 -9.499000 -11.353000
v 19.971000 -9.499000 -11.353000
v 17.011000 -13.499000 -16.943000
v 17.011000 -13.499000 -14.191000
v 17.511000 -13.499000 -17.309000
v 17.511000 -13.499000 -13.116000
v 18.011000 -13.499000 -17.403000
v 18.011000 -13.499000 -12.946000
v 18.511000 -13.499000 -17.325000
v 18.511000 -13.499000 -12.940000
v 19.011000 -13.499000 -17.174000
v 19.011000 -13.499000 -12.928000
v 19.511000 -13.499000 -17.057000
v 19.511000 -13.499000 -12.837000
v 20.011000 -13.499000 -16.831000
v 20.011000 -13.499000 -12.927000
v 20.511000 -13.499000 -16.676000
v 20.511000 -13.499000 -13.105000
v 21.011000 -13.499000 -16.320000
v 21.011000 -13.499000 -13.476000
v 17.011000 -9.499000 -15.394000
v 17.011000 -9.499000 -13.000000
v 17.511000 -9.499000 -16.313000
v 17.511000 -9.499000 -11.581000
v 18.011000 -9.499000 -16.744000
v 18.011000 -9.499000 -11.169000
v 18.511000 -9.499000 -16.893000
v 18.511000 -9.499000 -11.037000
v 19.011000 -9.499000 -16.786000
v 19.011000 -9.499000 -10.982000
v 19.511000 -9.499000 -16.510000
v 19.511000 -9.499000 -11.070000
v 20.011000 -9.499000 -16.329000
v 20.011000 -9.499000 -11.391000
v 20.511000 -9.499000 -16.274000
v 20.511000 -9.499000 -11.849000
v 21.011000 -9.499000 -16.189000
v 21.011000 -9.499000 -12.341000
v 21.511000 -9.499000 -15.876000
v 21.511000 -9.499000 -12.885000
v 22.011000 -9.499000 -15.294000
v 22.011000 -9.499000 -13.414000
v 16.511000 -12.526000 -16.853000
v 16.511000 -10.127000 -16.853000
v 17.011000 -13.756000 -16.853000
v 17.011000 -9.776000 -16.853000
v 17.511000 -14.363000 -16.853000
v 17.511000 -9.680000 -16.853000
v 18.011000 -14.479000 -16.853000
v 18.011000 -9.590000 -16.853000
v 18.511000 -14.480000 -16.853000
v 18.511000 -9.459000 -16.853000
v 19.011000 -14.318000 -16.853000
v 19.011000 -9.567000 -16.853000
v 19.511000 -13.849000 -16.853000
v 19.511000 -10.094000 -16.853000
v 20.011000 -13.356000 -16.853000
v 20.011000 -10.574000 -16.853000
v 17.011000 -10.484000 -12.853000
v 17.011000 -9.724000 -12.853000
v 17.511000 -13.228000 -12.853000
v 17.511000 -9.014000 -12.853000
v 18.011000 -13.404000 -12.853000
v 18.011000 -8.562000 -12.853000
v 18.511000 -13.411000 -12.853000
v 18.511000 -7.963000 -12.853000
v 19.011000 -13.427000 -12.853000
v 19.011000 -7.657000 -12.853000
v 19.511000 -13.516000 -12.853000
v 19.511000 -7.578000 -12.853000
v 20.011000 -13.409000 -12.853000
v 20.011000 -7.641000 -12.853000
v 20.511000 -12.817000 -12.853000
v 20.511000 -7.741000 -12.853000
v 21.011000 -10.936000 -12.853000
v 21.011000 -8.077000 -12.853000
v 17.894000 -12.999000 -17.853000
v 18.080000 -12.999000 -17.853000
v 17.063000 -12.999000 -17.353000
v 19.127000 -12.999000 -17.353000
v 16.738000 -12.999000 -16.853000
v 20.027000 -12.999000 -16.853000
v 16.626000 -12.999000 -16.353000
v 20.902000 -12.999000 -16.353000
v 16.601000 -12.999000 -15.853000
v 21.259000 -12.999000 -15.853000
v 16.636000 -12.999000 -15.353000
v 21.371000 -12.999000 -15.353000
v 16.660000 -12.999000 -14.853000
v 21.420000 -12.999000 -14.853000
v 16.665000 -12.999000 -14.353000
v 21.393000 -12.999000 -14.353000
v 16.752000 -12.999000 -13.853000
v 21.313000 -12.999000 -13.853000
v 16.879000 -12.999000 -13.353000
v 21.003000 -12.999000 -13.353000
v 17.289000 -12.999000 -12.853000
v 20.432000 -12.999000 -12.853000
v 18.050000 -8.999000 -15.853000
v 21.382000 -8.999000 -15.853000
v 17.561000 -8.999000 -15.353000
v 21.816000 -8.999000 -15.353000
v 17.166000 -8.999000 -14.853000
v 22.180000 -8.999000 -14.853000
v 17.050000 -8.999000 -14.353000
v 22.279000 -8.999000 -14.353000
v 17.031000 -8.999000 -13.853000
v 22.179000 -8.999000 -13.853000
v 17.191000 -8.999000 -13.353000
v 21.853000 -8.999000 -13.353000
v 17.528000 -8.999000 -12.853000
v 21.488000 -8.999000 -12.853000
v 17.612000 -8.999000 -12.353000
v 21.005000 -8.999000 -12.353000
v 17.748000 -8.999000 -11.853000
v 20.415000 -8.999000 -11.853000
v 18.238000 -8.999000 -11.353000
v 19.801000 -8.999000 -11.353000
v 17.011000 -12.999000 -17.291000
v 17.011000 -12.999000 -13.131000
v 17.511000 -12.999000 -17.733000
v 17.511000 -12.999000 -12.722000
v 18.011000 -12.999000 -17.857000
v 18.011000 -12.999000 -12.504000
v 18.511000 -12.999000 -17.707000
v 18.511000 -12.999000 -12.388000
v 19.011000 -12.999000 -17.413000
v 19.011000 -12.999000 -12.483000
v 19.511000 -12.999000 -17.171000
v 19.511000 -12.999000 -12.518000
v 20.011000 -12.999000 -16.864000
v 20.011000 -12.999000 -12.599000
v 20.511000 -12.999000 -16.606000
v 20.511000 -12.999000 -12.923000
v 21.011000 -12.999000 -16.244000
v 21.011000 -12.999000 -13.360000
v 17.511000 -8.999000 -15.284000
v 17.511000 -8.999000 -12.897000
v 18.011000 -8.999000 -15.810000
v 18.011000 -8.999000 -11.536000
v 18.511000 -8.999000 -16.174000
v 18.511000 -8.999000 -11.196000
v 19.011000 -8.999000 -16.190000
v 19.011000 -8.999000 -11.091000
v 19.511000 -8.999000 -16.177000
v 19.511000 -8.999000 -11.187000
v 20.011000 -8.999000 -16.200000
v 20.011000 -8.999000 -11.528000
v 20.511000 -8.999000 -16.169000
v 20.511000 -8.999000 -11.945000
v 21.011000 -8.999000 -16.078000
v 21.011000 -8.999000 -12.358000
v 21.511000 -8.999000 -15.726000
v 21.511000 -8.999000 -12.876000
v 22.011000 -8.999000 -15.147000
v 22.011000 -8.999000 -13.561000
v 16.511000 -12.621000 -16.353000
v 16.511000 -9.992000 -16.353000
v 17.011000 -14.361000 -16.353000
v 17.011000 -9.676000 -16.353000
v 17.511000 -14.700000 -16.353000
v 17.511000 -9.513000 -16.353000
v 18.011000 -14.787000 -16.353000
v 18.011000 -9.262000 -16.353000
v 18.511000 -14.830000 -16.353000
v 18.511000 -9.124000 -16.353000
v 19.011000 -14.717000 -16.353000
v 19.011000 -9.151000 -16.353000
v 19.511000 -14.527000 -16.353000
v 19.511000 -9.255000 -16.353000
v 20.011000 -14.484000 -16.353000
v 20.011000 -9.589000 -16.353000
v 20.511000 -14.328000 -16.353000
v 20.511000 -11.690000 -16.353000
v 17.511000 -12.080000 -12.353000
v 17.511000 -9.102000 -12.353000
v 18.011000 -12.830000 -12.353000
v 18.011000 -8.575000 -12.353000
v 18.511000 -12.961000 -12.353000
v 18.511000 -8.118000 -12.353000
v 19.011000 -12.814000 -12.353000
v 19.011000 -7.775000 -12.353000
v 19.511000 -12.436000 -12.353000
v 19.511000 -7.688000 -12.353000
v 20.011000 -11.594000 -12.353000
v 20.011000 -7.804000 -12.353000
v 20.511000 -10.791000 -12.353000
v 20.511000 -8.108000 -12.353000
v 21.011000 -9.626000 -12.353000
v 21.011000 -9.306000 -12.353000
v 17.100000 -12.499000 -17.853000
v 18.862000 -12.499000 -17.853000
v 16.637000 -12.499000 -17.353000
v 19.457000 -12.499000 -17.353000
v 16.494000 -12.499000 -16.853000
v 20.147000 -12.499000 -16.853000
v 16.450000 -12.499000 -16.353000
v 20.755000 -12.499000 -16.353000
v 16.502000 -12.499000 -15.853000
v 21.152000 -12.499000 -15.853000
v 16.569000 -12.499000 -15.353000
v 21.347000 -12.499000 -15.353000
v 16.571000 -12.499000 -14.853000
v 21.456000 -12.499000 -14.853000
v 16.572000 -12.499000 -14.353000
v 21.405000 -12.499000 -14.353000
v 16.652000 -12.499000 -13.853000
v 21.305000 -12.499000 -13.853000
v 16.768000 -12.499000 -13.353000
v 20.970000 -12.499000 -13.353000
v 17.128000 -12.499000 -12.853000
v 20.557000 -12.499000 -12.853000
v 17.683000 -12.499000 -12.353000
v 19.420000 -12.499000 -12.353000
v 19.715000 -8.499000 -15.853000
v 20.252000 -8.499000 -15.853000
v 18.140000 -8.499000 -15.353000
v 21.356000 -8.499000 -15.353000
v 17.664000 -8.499000 -14.853000
v 21.809000 -8.499000 -14.853000
v 17.548000 -8.499000 -14.353000
v 21.947000 -8.499000 -14.353000
v 17.703000 -8.499000 -13.853000
v 21.840000 -8.499000 -13.853000
v 18.011000 -8.499000 -13.353000
v 21.687000 -8.499000 -13.353000
v 18.072000 -8.499000 -12.853000
v 21.329000 -8.499000 -12.853000
v 18.088000 -8.499000 -12.353000
v 20.889000 -8.499000 -12.353000
v 18.251000 -8.499000 -11.853000
v 20.273000 -8.499000 -11.853000
v 16.511000 -12.499000 -16.976000
v 16.511000 -12.499000 -15.814000
v 17.011000 -12.499000 -17.781000
v 17.011000 -12.499000 -12.970000
v 17.511000 -12.499000 -18.100000
v 17.511000 -12.499000 -12.509000
v 18.011000 -12.499000 -18.190000
v 18.011000 -12.499000 -12.168000
v 18.511000 -12.499000 -18.080000
v 18.511000 -12.499000 -12.079000
v 19.011000 -12.499000 -17.710000
v 19.011000 -12.499000 -12.187000
v 19.511000 -12.499000 -17.317000
v 19.511000 -12.499000 -12.374000
v 20.011000 -12.499000 -16.962000
v 20.011000 -12.499000 -12.507000
v 20.511000 -12.499000 -16.566000
v 20.511000 -12.499000 -12.808000
v 21.011000 -12.499000 -16.089000
v 21.011000 -12.499000 -13.393000
v 18.011000 -8.499000 -15.230000
v 18.011000 -8.499000 -13.354000
v 18.511000 -8.499000 -15.680000
v 18.511000 -8.499000 -11.599000
v 19.011000 -8.499000 -15.789000
v 19.011000 -8.499000 -11.447000
v 19.511000 -8.499000 -15.823000
v 19.511000 -8.499000 -11.534000
v 20.011000 -8.499000 -15.888000
v 20.011000 -8.499000 -11.698000
v 20.511000 -8.499000 -15.822000
v 20.511000 -8.499000 -12.073000
v 21.011000 -8.499000 -15.695000
v 21.011000 -8.499000 -12.464000
v 21.511000 -8.499000 -15.176000
v 21.511000 -8.499000 -13.047000
v 16.511000 -12.522000 -15.853000
v 16.511000 -10.121000 -15.853000
v 17.011000 -14.474000 -15.853000
v 17.011000 -9.614000 -15.853000
v 17.511000 -14.784000 -15.853000
v 17.511000 -9.285000 -15.853000
v 18.011000 -14.874000 -15.853000
v 18.011000 -9.030000 -15.853000
v 18.511000 -14.935000 -15.853000
v 18.511000 -8.679000 -15.853000
v 19.011000 -14.844000 -15.853000
v 19.011000 -8.565000 -15.853000
v 19.511000 -14.778000 -15.853000
v 19.511000 -8.529000 -15.853000
v 20.011000 -14.792000 -15.853000
v 20.011000 -8.464000 -15.853000
v 20.511000 -14.676000 -15.853000
v 20.511000 -8.529000 -15.853000
v 21.011000 -14.283000 -15.853000
v 21.011000 -12.233000 -15.853000
v 21.011000 -10.475000 -15.853000
v 21.011000 -8.649000 -15.853000
v 21.511000 -9.741000 -15.853000
v 21.511000 -9.314000 -15.853000
v 17.511000 -11.188000 -11.853000
v 17.511000 -9.242000 -11.853000
v 18.011000 -11.896000 -11.853000
v 18.011000 -8.731000 -11.853000
v 18.511000 -12.023000 -11.853000
v 18.511000 -8.351000 -11.853000
v 19.011000 -11.837000 -11.853000
v 19.011000 -8.155000 -11.853000
v 19.511000 -11.084000 -11.853000
v 19.511000 -8.048000 -11.853000
v 20.011000 -10.488000 -11.853000
v 20.011000 -8.217000 -11.853000
v 20.511000 -9.575000 -11.853000
v 20.511000 -9.401000 -11.853000
v 16.650000 -11.999000 -17.853000
v 19.286000 -11.999000 -17.853000
v 16.306000 -11.999000 -17.353000
v 19.904000 -11.999000 -17.353000
v 16.216000 -11.999000 -16.853000
v 20.298000 -11.999000 -16.853000
v 16.165000 -11.999000 -16.353000
v 20.584000 -11.999000 -16.353000
v 16.260000 -11.999000 -15.853000
v 20.867000 -11.999000 -15.853000
v 16.478000 -11.999000 -15.353000
v 21.241000 -11.999000 -15.353000
v 16.579000 -11.999000 -14.853000
v 21.378000 -11.999000 -14.853000
v 16.579000 -11.999000 -14.353000
v 21.408000 -11.999000 -14.353000
v 16.604000 -11.999000 -13.853000
v 21.302000 -11.999000 -13.853000
v 16.715000 -11.999000 -13.353000
v 21.013000 -11.999000 -13.353000
v 17.065000 -11.999000 -12.853000
v 20.560000 -11.999000 -12.853000
v 17.476000 -11.999000 -12.353000
v 19.862000 -11.999000 -12.353000
v 18.271000 -11.999000 -11.853000
v 18.662000 -11.999000 -11.853000
v 18.612000 -7.999000 -14.853000
v 20.459000 -7.999000 -14.853000
v 18.422000 -7.999000 -14.353000
v 21.264000 -7.999000 -14.353000
v 18.518000 -7.999000 -13.853000
v 21.420000 -7.999000 -13.853000
v 18.523000 -7.999000 -13.353000
v 21.284000 -7.999000 -13.353000
v 18.474000 -7.999000 -12.853000
v 20.932000 -7.999000 -12.853000
v 18.636000 -7.999000 -12.353000
v 20.350000 -7.999000 -12.353000
v 16.511000 -11.999000 -17.705000
v 16.511000 -11.999000 -15.254000
v 17.011000 -11.999000 -18.087000
v 17.011000 -11.999000 -12.912000
v 17.511000 -11.999000 -18.220000
v 17.511000 -11.999000 -12.311000
v 18.011000 -11.999000 -18.285000
v 18.011000 -11.999000 -11.932000
v 18.511000 -11.999000 -18.191000
v 18.511000 -11.999000 -11.837000
v 19.011000 -11.999000 -18.020000
v 19.011000 -11.999000 -11.972000
v 19.511000 -11.999000 -17.643000
v 19.511000 -11.999000 -12.161000
v 20.011000 -11.999000 -17.253000
v 20.011000 -11.999000 -12.461000
v 20.511000 -11.999000 -16.491000
v 20.511000 -11.999000 -12.815000
v 21.011000 -11.999000 -15.693000
v 21.011000 -11.999000 -13.349000
v 18.511000 -7.999000 -14.688000
v 18.511000 -7.999000 -13.903000
v 18.511000 -7.999000 -13.197000
v 18.511000 -7.999000 -12.628000
v 19.011000 -7.999000 -15.207000
v 19.011000 -7.999000 -12.012000
v 19.511000 -7.999000 -15.315000
v 19.511000 -7.999000 -11.898000
v 20.011000 -7.999000 -15.170000
v 20.011000 -7.999000 -12.052000
v 20.511000 -7.999000 -14.827000
v 20.511000 -7.999000 -12.465000
v 21.011000 -7.999000 -14.607000
v 21.011000 -7.999000 -12.992000
v 16.511000 -12.209000 -15.353000
v 16.511000 -10.497000 -15.353000
v 17.011000 -14.322000 -15.353000
v 17.011000 -9.485000 -15.353000
v 17.511000 -14.672000 -15.353000
v 17.511000 -9.046000 -15.353000
v 18.011000 -14.812000 -15.353000
v 18.011000 -8.598000 -15.353000
v 18.511000 -14.884000 -15.353000
v 18.511000 -8.293000 -15.353000
v 19.011000 -14.865000 -15.353000
v 19.011000 -8.134000 -15.353000
v 19.511000 -14.863000 -15.353000
v 19.511000 -8.040000 -15.353000
v 20.011000 -14.872000 -15.353000
v 20.011000 -8.121000 -15.353000
v 20.511000 -14.764000 -15.353000
v 20.511000 -8.210000 -15.353000
v 21.011000 -14.413000 -15.353000
v 21.011000 -8.302000 -15.353000
v 21.511000 -10.428000 -15.353000
v 21.511000 -8.627000 -15.353000
v 18.011000 -10.861000 -11.353000
v 18.011000 -9.205000 -11.353000
v 18.511000 -11.055000 -11.353000
v 18.511000 -8.741000 -11.353000
v 19.011000 -10.913000 -11.353000
v 19.011000 -8.592000 -11.353000
v 19.511000 -10.397000 -11.353000
v 19.511000 -8.728000 -11.353000
v 16.541000 -11.499000 -17.853000
v 19.443000 -11.499000 -17.853000
v 16.225000 -11.499000 -17.353000
v 20.031000 -11.499000 -17.353000
v 16.136000 -11.499000 -16.853000
v 20.363000 -11.499000 -16.853000
v 16.070000 -11.499000 -16.353000
v 20.483000 -11.499000 -16.353000
v 16.158000 -11.499000 -15.853000
v 20.684000 -11.499000 -15.853000
v 16.425000 -11.499000 -15.353000
v 21.106000 -11.499000 -15.353000
v 16.572000 -11.499000 -14.853000
v 21.349000 -11.499000 -14.853000
v 16.573000 -11.499000 -14.353000
v 21.431000 -11.499000 -14.353000
v 16.664000 -11.499000 -13.853000
v 21.346000 -11.499000 -13.853000
v 16.806000 -11.499000 -13.353000
v 21.200000 -11.499000 -13.353000
v 17.035000 -11.499000 -12.853000
v 20.800000 -11.499000 -12.853000
v 17.243000 -11.499000 -12.353000
v 20.059000 -11.499000 -12.353000
v 17.613000 -11.499000 -11.853000
v 19.311000 -11.499000 -11.853000
v 16.511000 -11.499000 -17.821000
v 16.511000 -11.499000 -15.140000
v 17.011000 -11.499000 -18.169000
v 17.011000 -11.499000 -12.910000
v 17.511000 -11.499000 -18.272000
v 17.511000 -11.499000 -11.949000
v 18.011000 -11.499000 -18.231000
v 18.011000 -11.499000 -11.625000
v 18.511000 -11.499000 -18.235000
v 18.511000 -11.499000 -11.546000
v 19.011000 -11.499000 -18.132000
v 19.011000 -11.499000 -11.664000
v 19.511000 -11.499000 -17.784000
v 19.511000 -11.499000 -12.015000
v 20.011000 -11.499000 -17.372000
v 20.011000 -11.499000 -12.316000
v 20.511000 -11.499000 -16.250000
v 20.511000 -11.499000 -12.682000
v 21.011000 -11.499000 -15.479000
v 21.011000 -11.499000 -13.053000
v 17.011000 -13.814000 -14.853000
v 17.011000 -9.162000 -14.853000
v 17.511000 -14.389000 -14.853000
v 17.511000 -8.660000 -14.853000
v 18.011000 -14.717000 -14.853000
v 18.011000 -8.279000 -14.853000
v 18.511000 -14.847000 -14.853000
v 18.511000 -8.067000 -14.853000
v 19.011000 -14.921000 -14.853000
v 19.011000 -7.763000 -14.853000
v 19.511000 -14.918000 -14.853000
v 19.511000 -7.680000 -14.853000
v 20.011000 -14.867000 -14.853000
v 20.011000 -7.799000 -14.853000
v 20.511000 -14.789000 -14.853000
v 20.511000 -8.013000 -14.853000
v 21.011000 -14.490000 -14.853000
v 21.011000 -8.140000 -14.853000
v 21.511000 -10.945000 -14.853000
v 21.511000 -8.313000 -14.853000
v 22.011000 -10.302000 -14.853000
v 22.011000 -8.708000 -14.853000
v 16.701000 -10.999000 -17.853000
v 19.319000 -10.999000 -17.853000
v 16.343000 -10.999000 -17.353000
v 19.880000 -10.999000 -17.353000
v 16.177000 -10.999000 -16.853000
v 20.258000 -10.999000 -16.853000
v 16.090000 -10.999000 -16.353000
v 20.485000 -10.999000 -16.353000
v 16.182000 -10.999000 -15.853000
v 20.699000 -10.999000 -15.853000
v 16.440000 -10.999000 -15.353000
v 21.153000 -10.999000 -15.353000
v 16.565000 -10.999000 -14.853000
v 21.483000 -10.999000 -14.853000
v 16.623000 -10.999000 -14.353000
v 21.578000 -10.999000 -14.353000
v 16.719000 -10.999000 -13.853000
v 21.533000 -10.999000 -13.853000
v 16.870000 -10.999000 -13.353000
v 21.396000 -10.999000 -13.353000
v 17.049000 -10.999000 -12.853000
v 20.982000 -10.999000 -12.853000
v 17.162000 -10.999000 -12.353000
v 20.431000 -10.999000 -12.353000
v 17.475000 -10.999000 -11.853000
v 19.574000 -10.999000 -11.853000
v 18.249000 -10.999000 -11.353000
v 18.823000 -10.999000 -11.353000
v 16.511000 -10.999000 -17.651000
v 16.511000 -10.999000 -15.152000
v 17.011000 -10.999000 -18.050000
v 17.011000 -10.999000 -13.014000
v 17.511000 -10.999000 -18.163000
v 17.511000 -10.999000 -11.813000
v 18.011000 -10.999000 -18.138000
v 18.011000 -10.999000 -11.438000
v 18.511000 -10.999000 -18.153000
v 18.511000 -10.999000 -11.317000
v 19.011000 -10.999000 -18.042000
v 19.011000 -10.999000 -11.420000
v 19.511000 -10.999000 -17.661000
v 19.511000 -10.999000 -11.803000
v 20.011000 -10.999000 -17.231000
v 20.011000 -10.999000 -12.084000
v 20.511000 -10.999000 -16.289000
v 20.511000 -10.999000 -12.435000
v 21.011000 -10.999000 -15.518000
v 21.011000 -10.999000 -12.876000
v 21.511000 -10.999000 -14.774000
v 21.511000 -10.999000 -13.723000
v 17.011000 -13.535000 -14.353000
v 17.011000 -9.040000 -14.353000
v 17.511000 -13.993000 -14.353000
v 17.511000 -8.538000 -14.353000
v 18.011000 -14.424000 -14.353000
v 18.011000 -8.192000 -14.353000
v 18.511000 -14.737000 -14.353000
v 18.511000 -7.939000 -14.353000
v 19.011000 -14.827000 -14.353000
v 19.011000 -7.645000 -14.353000
v 19.511000 -14.816000 -14.353000
v 19.511000 -7.569000 -14.353000
v 20.011000 -14.768000 -14.353000
v 20.011000 -7.667000 -14.353000
v 20.511000 -14.685000 -14.353000
v 20.511000 -7.746000 -14.353000
v 21.011000 -14.352000 -14.353000
v 21.011000 -7.854000 -14.353000
v 21.511000 -11.162000 -14.353000
v 21.511000 -8.177000 -14.353000
v 22.011000 -10.446000 -14.353000
v 22.011000 -8.565000 -14.353000
f 189 575 611
f 611 575 701
f 701 575 677
f 701 677 771
f 771 677 745
f 745 190 771
f 191 459 501
f 189 611 459
f 459 611 501
f 611 573 501
f 573 73 501
f 701 675 573
f 701 573 611
f 771 743 675
f 771 675 701
f 190 11 53
f 190 53 74
f 771 190 74
f 743 771 74
f 11 192 53
f 193 345 387
f 191 501 345
f 345 501 387
f 501 457 387
f 457 75 387
f 501 73 457
f 55 76 74
f 55 74 53
f 53 192 55
f 55 192 194
f 195 225 273
f 193 387 225
f 225 387 273
f 387 343 273
f 343 77 273
f 387 75 343
f 57 78 76
f 57 76 55
f 55 194 57
f 57 194 196
f 273 226 195
f 391 197 344
f 344 197 77
f 197 226 77
f 226 273 77
f 79 391 344
f 59 80 78
f 59 78 57
f 121 173 196
f 173 57 196
f 173 59 57
f 121 198 173
f 393 199 391
f 391 199 197
f 391 79 458
f 509 391 458
f 393 391 509
f 81 509 458
f 61 82 80
f 61 80 59
f 200 61 122
f 61 173 122
f 61 59 173
f 173 198 122
f 393 346 199
f 346 393 460
f 460 393 509
f 623 201 574
f 574 201 81
f 201 460 81
f 460 509 81
f 676 713 623
f 676 623 574
f 744 783 713
f 744 713 676
f 61 12 82
f 82 12 744
f 12 202 744
f 202 783 744
f 61 200 12
f 623 576 201
f 576 623 203
f 623 715 203
f 623 713 715
f 204 715 746
f 715 783 746
f 715 713 783
f 783 202 746
f 715 678 203
f 715 204 678
f 205 361 83
f 83 361 359
f 361 473 359
f 475 473 361
f 475 589 473
f 591 589 475
f 591 691 589
f 693 691 591
f 693 759 691
f 761 759 693
f 761 25 759
f 27 25 761
f 27 135 25
f 137 135 27
f 137 257 135
f 259 257 137
f 259 206 257
f 257 206 84
f 207 241 85
f 85 241 239
f 83 239 241
f 83 241 205
f 373 84 206
f 373 206 375
f 375 208 373
f 373 208 86
f 152 117 87
f 85 117 152
f 209 85 152
f 207 85 209
f 210 520 489
f 86 210 489
f 208 210 86
f 520 88 489
f 89 154 87
f 87 154 152
f 209 152 154
f 209 154 211
f 491 520 210
f 491 212 520
f 212 88 520
f 212 90 88
f 91 156 89
f 89 156 154
f 211 154 156
f 211 156 213
f 603 90 212
f 603 212 605
f 605 214 603
f 603 214 92
f 93 158 91
f 91 158 156
f 213 156 158
f 213 158 215
f 92 216 94
f 214 216 92
f 158 93 119
f 93 217 119
f 93 95 217
f 215 158 119
f 94 218 96
f 216 218 94
f 120 217 162
f 217 97 162
f 217 95 97
f 219 120 162
f 96 220 98
f 218 220 96
f 118 162 97
f 242 219 286
f 286 219 99
f 219 162 99
f 162 118 99
f 242 286 402
f 242 402 362
f 362 402 518
f 362 518 476
f 221 476 518
f 98 222 100
f 220 222 98
f 240 286 99
f 360 402 240
f 240 402 286
f 474 518 360
f 360 518 402
f 518 474 221
f 474 592 221
f 474 590 592
f 692 592 590
f 692 694 592
f 692 101 792
f 762 692 792
f 694 692 762
f 223 762 792
f 606 224 102
f 606 102 604
f 604 100 606
f 606 100 222
f 760 792 101
f 792 760 223
f 760 28 223
f 760 26 28
f 26 103 188
f 138 26 188
f 28 26 138
f 138 188 308
f 138 308 260
f 260 308 422
f 260 422 376
f 376 422 104
f 490 376 104
f 492 376 490
f 490 102 492
f 492 102 224
f 136 188 103
f 258 308 136
f 136 308 188
f 374 422 258
f 258 422 308
f 104 422 374
f 309 461 499
f 499 461 189
f 461 575 189
f 461 577 575
f 577 677 575
f 679 677 577
f 679 745 677
f 747 745 679
f 190 745 51
f 745 13 51
f 745 747 13
f 13 310 51
f 311 227 269
f 269 227 385
f 385 227 347
f 309 499 347
f 347 499 385
f 499 459 385
f 459 191 385
f 499 189 459
f 51 11 190
f 310 123 167
f 310 167 192
f 51 310 192
f 11 51 192
f 123 312 167
f 313 105 149
f 311 269 105
f 269 149 105
f 269 271 149
f 385 345 193
f 271 385 193
f 269 385 271
f 385 191 345
f 169 194 192
f 169 192 167
f 167 312 169
f 169 312 314
f 151 315 149
f 149 315 313
f 271 225 195
f 151 271 195
f 149 271 151
f 271 193 225
f 171 196 194
f 171 194 169
f 169 314 171
f 171 314 316
f 153 317 151
f 151 317 315
f 151 195 226
f 275 151 226
f 153 151 275
f 197 275 226
f 171 121 196
f 316 245 293
f 316 293 198
f 171 316 198
f 121 171 198
f 245 318 293
f 155 319 153
f 153 319 317
f 153 277 155
f 153 275 277
f 275 197 199
f 275 199 277
f 122 175 200
f 293 246 198
f 198 246 122
f 246 320 122
f 320 175 122
f 293 318 246
f 155 106 319
f 106 155 321
f 155 279 321
f 155 277 279
f 277 199 346
f 395 277 346
f 279 277 395
f 460 511 395
f 460 395 346
f 201 511 460
f 12 63 202
f 175 124 200
f 200 124 12
f 124 322 12
f 322 63 12
f 175 320 124
f 279 228 321
f 228 279 323
f 279 397 323
f 279 395 397
f 395 513 397
f 395 511 513
f 511 201 576
f 625 511 576
f 513 511 625
f 203 625 576
f 746 785 204
f 63 14 202
f 202 14 746
f 14 324 746
f 324 785 746
f 63 322 14
f 397 348 323
f 348 397 462
f 462 397 513
f 462 513 578
f 578 513 625
f 203 678 625
f 678 578 625
f 678 680 578
f 785 748 204
f 748 678 204
f 748 680 678
f 785 324 748
f 386 361 205
f 502 475 386
f 386 475 361
f 614 591 502
f 502 591 475
f 704 693 614
f 614 693 591
f 774 761 704
f 704 761 693
f 54 27 774
f 774 27 761
f 325 139 54
f 139 27 54
f 139 137 27
f 288 259 326
f 259 139 326
f 259 137 139
f 288 206 259
f 272 241 207
f 363 386 205
f 363 205 241
f 327 363 241
f 272 327 241
f 386 363 477
f 386 477 502
f 502 477 593
f 502 593 614
f 614 593 695
f 614 695 704
f 704 695 763
f 704 763 774
f 774 763 29
f 774 29 54
f 325 54 29
f 261 288 326
f 328 404 375
f 328 375 206
f 261 328 206
f 288 261 206
f 404 208 375
f 209 274 207
f 207 274 272
f 327 272 274
f 327 274 329
f 377 404 328
f 377 330 404
f 330 208 404
f 330 210 208
f 211 276 209
f 209 276 274
f 329 274 276
f 329 276 331
f 491 210 330
f 491 330 493
f 212 491 633
f 491 607 633
f 491 493 607
f 607 332 633
f 213 278 211
f 211 278 276
f 331 276 278
f 331 278 333
f 633 605 212
f 633 332 605
f 332 214 605
f 332 334 214
f 278 213 243
f 213 335 243
f 213 215 335
f 333 278 243
f 214 336 216
f 334 336 214
f 160 119 217
f 335 215 119
f 282 335 119
f 160 282 119
f 335 282 244
f 337 244 282
f 216 338 218
f 336 338 216
f 120 160 217
f 219 284 120
f 284 160 120
f 284 282 160
f 400 364 337
f 282 400 337
f 284 400 282
f 339 364 400
f 218 340 220
f 338 340 218
f 242 284 219
f 362 400 242
f 242 400 284
f 400 362 339
f 362 478 339
f 362 476 478
f 476 221 630
f 594 476 630
f 478 476 594
f 594 630 720
f 594 720 696
f 696 720 790
f 696 790 764
f 341 764 790
f 608 342 644
f 644 222 608
f 222 340 608
f 222 220 340
f 592 630 221
f 694 720 592
f 592 720 630
f 762 790 694
f 694 790 720
f 30 341 72
f 72 341 223
f 341 790 223
f 790 762 223
f 30 72 186
f 30 186 140
f 140 186 306
f 140 306 262
f 262 306 420
f 262 420 378
f 378 420 534
f 378 534 494
f 644 342 494
f 644 494 534
f 606 644 534
f 224 606 534
f 222 644 606
f 28 72 223
f 138 186 28
f 28 186 72
f 260 306 138
f 138 306 186
f 376 420 260
f 260 420 306
f 492 534 376
f 376 534 420
f 224 534 492
f 423 463 309
f 309 463 461
f 463 577 461
f 579 577 463
f 579 679 577
f 681 679 579
f 681 747 679
f 749 747 681
f 749 13 747
f 15 13 749
f 310 13 165
f 13 125 165
f 13 15 125
f 125 424 165
f 425 107 147
f 147 107 311
f 107 227 311
f 107 229 227
f 229 347 227
f 349 347 229
f 309 347 349
f 309 349 423
f 165 123 310
f 165 424 123
f 424 312 123
f 424 426 312
f 427 1 37
f 425 147 1
f 1 147 37
f 147 105 37
f 105 313 37
f 147 311 105
f 312 428 314
f 426 428 312
f 39 429 37
f 37 429 427
f 37 313 315
f 37 315 39
f 428 247 291
f 316 428 291
f 314 428 316
f 247 430 291
f 41 431 39
f 39 431 429
f 39 315 317
f 39 317 41
f 291 245 316
f 291 430 245
f 430 318 245
f 430 432 318
f 43 433 41
f 41 433 431
f 41 317 319
f 41 319 43
f 246 295 320
f 246 318 295
f 318 434 295
f 318 432 434
f 45 435 43
f 43 435 433
f 43 319 106
f 157 43 106
f 45 43 157
f 321 157 106
f 124 177 322
f 177 124 320
f 295 177 320
f 297 177 295
f 295 434 297
f 297 434 436
f 45 2 435
f 2 45 437
f 45 159 437
f 45 157 159
f 157 321 228
f 281 157 228
f 159 157 281
f 323 281 228
f 14 65 324
f 65 14 322
f 177 65 322
f 179 65 177
f 438 179 248
f 179 297 248
f 179 177 297
f 297 436 248
f 161 439 159
f 159 439 437
f 159 283 161
f 159 281 283
f 281 323 348
f 399 281 348
f 283 281 399
f 462 515 399
f 462 399 348
f 578 627 515
f 578 515 462
f 682 440 627
f 578 682 627
f 680 682 578
f 748 682 680
f 748 750 682
f 65 16 324
f 16 748 324
f 16 750 748
f 16 65 126
f 126 65 179
f 179 438 126
f 161 108 439
f 108 161 230
f 230 161 283
f 230 283 350
f 350 283 399
f 350 399 464
f 464 399 515
f 464 515 580
f 580 515 627
f 627 440 580
f 168 139 325
f 168 326 139
f 388 363 327
f 504 477 388
f 388 477 363
f 441 595 504
f 595 477 504
f 595 593 477
f 595 695 593
f 697 695 595
f 697 763 695
f 765 763 697
f 765 29 763
f 31 29 765
f 141 168 325
f 29 141 325
f 31 141 29
f 261 326 168
f 141 261 168
f 263 261 141
f 263 442 261
f 261 442 328
f 329 390 327
f 327 390 388
f 390 443 479
f 504 390 479
f 388 390 504
f 441 504 479
f 377 328 442
f 377 442 379
f 379 444 377
f 377 444 330
f 331 392 329
f 329 392 390
f 443 390 392
f 443 392 445
f 493 330 444
f 493 444 495
f 634 607 446
f 607 495 446
f 607 493 495
f 634 332 607
f 333 394 331
f 331 394 392
f 445 392 394
f 445 394 447
f 609 634 446
f 609 448 634
f 448 332 634
f 448 334 332
f 280 243 335
f 243 280 333
f 280 394 333
f 280 396 394
f 512 480 447
f 394 512 447
f 396 512 394
f 449 480 512
f 334 450 336
f 448 450 334
f 244 280 335
f 337 398 244
f 398 280 244
f 398 396 280
f 514 396 398
f 512 396 514
f 626 596 449
f 512 626 449
f 514 626 512
f 451 596 626
f 336 452 338
f 450 452 336
f 364 398 337
f 339 516 364
f 516 398 364
f 516 514 398
f 628 514 516
f 626 514 628
f 718 698 451
f 626 718 451
f 628 718 626
f 698 718 788
f 698 788 766
f 453 766 788
f 610 454 642
f 642 340 610
f 340 452 610
f 340 338 452
f 478 516 339
f 594 628 478
f 478 628 516
f 696 718 594
f 594 718 628
f 764 788 696
f 696 788 718
f 32 453 70
f 70 453 341
f 453 788 341
f 788 764 341
f 32 70 184
f 32 184 142
f 455 142 184
f 380 456 418
f 380 418 532
f 380 532 496
f 642 454 496
f 642 496 532
f 608 642 532
f 342 608 532
f 340 642 608
f 30 70 341
f 140 184 30
f 30 184 70
f 184 140 455
f 140 264 455
f 140 262 264
f 456 264 418
f 264 378 418
f 264 262 378
f 494 532 378
f 378 532 418
f 342 532 494
f 535 465 423
f 423 465 463
f 465 579 463
f 581 579 465
f 581 681 579
f 683 681 581
f 683 749 681
f 751 749 683
f 751 15 749
f 17 15 751
f 166 125 536
f 125 17 536
f 125 15 17
f 166 424 125
f 537 109 425
f 425 109 107
f 109 229 107
f 231 229 109
f 231 349 229
f 351 349 231
f 423 349 351
f 423 351 535
f 127 166 536
f 127 538 166
f 538 424 166
f 538 426 424
f 539 3 427
f 427 3 1
f 425 1 3
f 425 3 537
f 538 249 289
f 428 538 289
f 426 538 428
f 249 540 289
f 541 427 429
f 541 539 427
f 289 247 428
f 289 540 247
f 540 430 247
f 540 542 430
f 543 429 431
f 543 541 429
f 542 365 407
f 432 542 407
f 430 542 432
f 365 544 407
f 545 431 433
f 545 543 431
f 409 434 432
f 409 432 407
f 407 544 409
f 409 544 546
f 547 433 435
f 547 545 433
f 411 436 434
f 411 434 409
f 409 546 411
f 411 546 548
f 47 549 2
f 549 435 2
f 549 547 435
f 437 47 2
f 248 299 438
f 299 248 436
f 411 299 436
f 413 299 411
f 481 527 548
f 527 411 548
f 527 413 411
f 481 550 527
f 49 551 47
f 47 551 549
f 47 437 439
f 47 439 49
f 682 717 440
f 750 787 717
f 750 717 682
f 16 67 787
f 16 787 750
f 126 181 67
f 126 67 16
f 181 126 438
f 299 181 438
f 301 181 299
f 299 415 301
f 299 413 415
f 552 415 482
f 415 527 482
f 415 413 527
f 527 550 482
f 49 4 551
f 163 553 108
f 108 553 439
f 553 4 439
f 4 49 439
f 230 285 163
f 230 163 108
f 350 401 285
f 350 285 230
f 464 517 401
f 464 401 350
f 582 554 517
f 464 582 517
f 580 582 464
f 717 684 440
f 684 580 440
f 684 582 580
f 684 717 752
f 752 717 787
f 752 787 18
f 18 787 67
f 18 67 555
f 67 183 555
f 67 181 183
f 181 303 183
f 181 301 303
f 301 417 303
f 301 415 417
f 415 552 417
f 417 552 556
f 163 110 553
f 110 163 232
f 232 163 285
f 232 285 352
f 352 285 401
f 352 401 466
f 466 401 517
f 517 554 466
f 183 128 555
f 128 183 557
f 183 305 557
f 183 303 305
f 558 305 366
f 305 417 366
f 305 303 417
f 417 556 366
f 305 250 557
f 305 558 250
f 616 595 441
f 706 697 616
f 616 697 595
f 559 767 706
f 767 697 706
f 767 765 697
f 767 31 765
f 33 31 767
f 33 141 31
f 143 141 33
f 143 263 141
f 265 263 143
f 265 560 263
f 263 560 442
f 506 479 443
f 479 506 441
f 506 616 441
f 506 618 616
f 618 561 699
f 706 618 699
f 616 618 706
f 559 706 699
f 379 442 560
f 379 560 381
f 381 562 379
f 379 562 444
f 445 508 443
f 443 508 506
f 508 563 597
f 618 508 597
f 506 508 618
f 561 618 597
f 495 444 562
f 495 562 497
f 497 564 495
f 495 564 446
f 447 510 445
f 445 510 508
f 622 598 563
f 508 622 563
f 510 622 508
f 565 598 622
f 566 636 609
f 446 566 609
f 564 566 446
f 636 448 609
f 480 510 447
f 449 624 480
f 624 510 480
f 624 622 510
f 714 700 565
f 622 714 565
f 624 714 622
f 567 700 714
f 568 638 636
f 568 636 566
f 448 636 450
f 450 636 638
f 596 624 449
f 451 716 596
f 716 624 596
f 716 714 624
f 786 768 567
f 714 786 567
f 716 786 714
f 768 786 66
f 768 66 34
f 569 34 66
f 570 640 638
f 570 638 568
f 450 638 452
f 452 638 640
f 698 716 451
f 766 786 698
f 698 786 716
f 453 68 766
f 68 786 766
f 68 66 786
f 182 144 569
f 66 182 569
f 68 182 66
f 571 144 182
f 382 572 416
f 382 416 530
f 382 530 498
f 640 570 498
f 640 498 530
f 610 640 530
f 454 610 530
f 452 640 610
f 32 68 453
f 142 182 32
f 32 182 68
f 266 571 304
f 304 571 455
f 571 182 455
f 182 142 455
f 416 572 266
f 416 266 304
f 380 416 304
f 456 380 304
f 496 530 380
f 380 530 416
f 454 530 496
f 264 304 455
f 456 304 264
f 500 465 535
f 645 583 500
f 583 465 500
f 583 581 465
f 583 683 581
f 685 683 583
f 685 751 683
f 753 751 685
f 753 17 751
f 19 17 753
f 19 646 17
f 17 646 536
f 647 111 537
f 537 111 109
f 111 231 109
f 233 231 111
f 233 351 231
f 353 351 233
f 467 500 535
f 351 467 535
f 353 467 351
f 645 500 467
f 127 536 646
f 127 646 129
f 538 127 287
f 127 251 287
f 127 129 251
f 251 648 287
f 649 5 539
f 539 5 3
f 537 3 5
f 537 5 647
f 287 249 538
f 287 648 249
f 648 540 249
f 648 650 540
f 651 539 541
f 651 649 539
f 650 367 405
f 542 650 405
f 540 650 542
f 367 652 405
f 653 541 543
f 653 651 541
f 405 365 542
f 652 483 521
f 652 521 544
f 405 652 544
f 365 405 544
f 483 654 521
f 655 543 545
f 655 653 543
f 523 546 544
f 523 544 521
f 521 654 523
f 523 654 656
f 657 545 547
f 657 655 545
f 525 548 546
f 525 546 523
f 523 656 525
f 525 656 658
f 659 547 549
f 659 657 547
f 525 481 548
f 525 658 481
f 658 550 481
f 658 660 550
f 661 549 551
f 661 659 549
f 482 529 552
f 482 550 529
f 550 662 529
f 550 660 662
f 551 4 661
f 661 4 6
f 663 6 4
f 663 4 553
f 582 629 554
f 684 719 629
f 684 629 582
f 752 789 719
f 752 719 684
f 18 69 789
f 18 789 752
f 555 69 18
f 531 556 552
f 531 552 529
f 529 662 531
f 531 662 664
f 553 110 663
f 663 110 112
f 232 112 110
f 232 234 112
f 352 234 232
f 352 354 234
f 466 354 352
f 466 468 354
f 629 584 554
f 584 466 554
f 584 468 466
f 584 629 686
f 686 629 719
f 686 719 754
f 754 719 789
f 754 789 20
f 20 789 69
f 185 665 128
f 128 665 555
f 665 20 555
f 20 69 555
f 557 185 128
f 366 419 558
f 531 484 556
f 556 484 366
f 484 666 366
f 666 419 366
f 531 664 484
f 185 130 665
f 557 250 185
f 250 130 185
f 250 252 130
f 419 368 558
f 368 250 558
f 368 252 250
f 419 666 368
f 776 767 559
f 56 33 776
f 776 33 767
f 170 143 56
f 56 143 33
f 290 265 170
f 170 265 143
f 290 560 265
f 708 699 561
f 699 708 559
f 708 776 559
f 708 778 776
f 778 667 35
f 56 778 35
f 776 778 56
f 56 35 145
f 56 145 170
f 170 145 267
f 170 267 290
f 668 406 381
f 668 381 560
f 267 668 560
f 290 267 560
f 406 562 381
f 620 597 563
f 597 620 561
f 620 708 561
f 620 710 708
f 710 669 769
f 778 710 769
f 708 710 778
f 667 778 769
f 383 406 668
f 670 522 497
f 670 497 562
f 383 670 562
f 406 383 562
f 522 564 497
f 598 620 563
f 565 712 598
f 712 620 598
f 712 710 620
f 782 770 669
f 710 782 669
f 712 782 710
f 671 770 782
f 672 524 522
f 672 522 670
f 564 522 566
f 566 522 524
f 700 712 565
f 567 784 700
f 784 712 700
f 784 782 712
f 64 36 671
f 782 64 671
f 784 64 782
f 673 36 64
f 674 526 524
f 674 524 672
f 566 524 568
f 568 524 526
f 768 784 567
f 34 64 768
f 768 64 784
f 146 673 180
f 180 673 569
f 673 64 569
f 64 34 569
f 146 180 300
f 146 300 268
f 268 300 414
f 268 414 384
f 526 674 384
f 414 526 384
f 528 526 414
f 568 526 570
f 570 526 528
f 144 180 569
f 571 302 144
f 302 180 144
f 302 300 180
f 382 414 572
f 414 302 572
f 414 300 302
f 498 528 382
f 382 528 414
f 570 528 498
f 266 302 571
f 572 302 266
f 612 583 645
f 702 685 612
f 612 685 583
f 772 753 702
f 702 753 685
f 52 19 772
f 772 19 753
f 52 646 19
f 148 111 647
f 721 235 148
f 235 111 148
f 235 233 111
f 235 353 233
f 355 353 235
f 355 467 353
f 469 467 355
f 585 612 645
f 467 585 645
f 469 585 467
f 612 585 687
f 612 687 702
f 702 687 755
f 702 755 772
f 772 755 21
f 772 21 52
f 129 646 52
f 21 129 52
f 131 129 21
f 131 251 129
f 253 251 131
f 253 722 251
f 251 722 648
f 38 5 649
f 113 148 647
f 113 647 5
f 723 113 5
f 38 723 5
f 721 148 113
f 722 369 403
f 650 722 403
f 648 722 650
f 369 724 403
f 38 649 7
f 649 725 7
f 649 651 725
f 723 38 7
f 403 367 650
f 724 485 519
f 724 519 652
f 403 724 652
f 367 403 652
f 485 726 519
f 727 651 653
f 727 725 651
f 519 483 652
f 519 726 483
f 726 654 483
f 726 728 654
f 729 653 655
f 729 727 653
f 728 599 635
f 656 728 635
f 654 728 656
f 599 730 635
f 731 655 657
f 731 729 655
f 637 658 656
f 637 656 635
f 635 730 637
f 637 730 732
f 733 657 659
f 733 731 657
f 639 660 658
f 639 658 637
f 637 732 639
f 639 732 734
f 735 659 661
f 735 733 659
f 660 639 600
f 736 660 600
f 662 660 736
f 639 734 600
f 661 6 735
f 735 6 8
f 737 8 6
f 737 6 663
f 662 738 664
f 736 738 662
f 663 112 737
f 737 112 114
f 234 114 112
f 234 236 114
f 354 236 234
f 354 356 236
f 468 356 354
f 468 470 356
f 584 470 468
f 584 586 470
f 686 586 584
f 686 688 586
f 754 688 686
f 754 756 688
f 20 71 739
f 756 20 739
f 754 20 756
f 665 71 20
f 484 533 666
f 484 664 533
f 664 740 533
f 664 738 740
f 71 22 739
f 187 741 130
f 130 741 665
f 741 22 665
f 22 71 665
f 252 307 187
f 252 187 130
f 368 421 307
f 368 307 252
f 533 486 666
f 666 486 368
f 486 742 368
f 742 421 368
f 533 740 486
f 187 132 741
f 132 187 254
f 254 187 307
f 254 307 370
f 370 307 421
f 421 742 370
f 58 35 667
f 172 145 58
f 58 145 35
f 292 267 172
f 172 267 145
f 292 668 267
f 780 769 669
f 769 780 667
f 780 58 667
f 780 60 58
f 174 58 60
f 172 58 174
f 294 172 174
f 292 172 294
f 668 292 383
f 292 408 383
f 292 294 408
f 408 670 383
f 770 780 669
f 671 62 770
f 62 780 770
f 62 60 780
f 176 60 62
f 174 60 176
f 296 174 176
f 294 174 296
f 410 294 296
f 408 294 410
f 670 408 672
f 672 408 410
f 36 62 671
f 673 178 36
f 178 62 36
f 178 176 62
f 298 176 178
f 296 176 298
f 412 296 298
f 410 296 412
f 672 410 674
f 674 410 412
f 146 178 673
f 268 298 146
f 146 298 178
f 384 412 268
f 268 412 298
f 674 412 384
f 793 237 721
f 721 237 235
f 237 355 235
f 357 355 237
f 357 469 355
f 471 469 357
f 471 585 469
f 587 585 471
f 587 687 585
f 689 687 587
f 689 755 687
f 757 755 689
f 757 21 755
f 23 21 757
f 23 131 21
f 133 131 23
f 133 253 131
f 255 253 133
f 255 794 253
f 253 794 722
f 150 113 723
f 721 113 150
f 795 721 150
f 793 721 795
f 369 722 794
f 369 794 371
f 371 796 369
f 369 796 724
f 40 7 725
f 115 150 723
f 115 723 7
f 797 115 7
f 40 797 7
f 795 150 115
f 485 724 796
f 485 796 487
f 487 798 485
f 485 798 726
f 40 725 9
f 725 799 9
f 725 727 799
f 797 40 9
f 798 601 631
f 728 798 631
f 726 798 728
f 601 800 631
f 801 727 729
f 801 799 727
f 631 599 728
f 631 800 599
f 800 730 599
f 800 802 730
f 803 729 731
f 803 801 729
f 730 804 732
f 802 804 730
f 805 731 733
f 805 803 731
f 732 806 734
f 804 806 732
f 807 733 735
f 807 805 733
f 600 641 736
f 600 734 641
f 734 808 641
f 734 806 808
f 735 8 807
f 807 8 10
f 809 10 8
f 809 8 737
f 643 738 736
f 643 736 641
f 641 808 643
f 643 808 810
f 737 114 809
f 809 114 116
f 236 116 114
f 236 238 116
f 356 238 236
f 356 358 238
f 470 358 356
f 470 472 358
f 586 472 470
f 586 588 472
f 688 588 586
f 688 690 588
f 756 791 811
f 690 756 811
f 688 756 690
f 739 791 756
f 738 643 602
f 812 738 602
f 740 738 812
f 643 810 602
f 791 758 811
f 739 22 791
f 22 758 791
f 22 24 758
f 813 24 22
f 813 22 741
f 488 814 742
f 488 742 486
f 486 740 488
f 488 740 812
f 741 132 813
f 813 132 134
f 254 134 132
f 254 256 134
f 370 256 254
f 370 372 256
f 370 742 372
f 372 742 814
f 73 573 613
f 613 573 703
f 703 573 675
f 703 675 773
f 773 675 743
f 743 74 773
f 75 457 503
f 73 613 457
f 613 503 457
f 613 615 503
f 613 705 615
f 613 703 705
f 703 775 705
f 703 773 775
f 773 74 775
f 775 74 76
f 77 343 389
f 75 503 343
f 503 389 343
f 503 505 389
f 503 617 505
f 503 615 617
f 615 707 617
f 615 705 707
f 705 777 707
f 705 775 777
f 775 76 777
f 777 76 78
f 389 344 77
f 344 389 79
f 389 507 79
f 389 505 507
f 505 619 507
f 505 617 619
f 617 709 619
f 617 707 709
f 707 779 709
f 707 777 779
f 777 78 779
f 779 78 80
f 507 458 79
f 458 507 81
f 507 621 81
f 507 619 621
f 619 711 621
f 619 709 711
f 709 781 711
f 709 779 781
f 779 80 781
f 781 80 82
f 621 574 81
f 574 621 676
f 676 621 711
f 676 711 744
f 744 711 781
f 781 82 744
f 270 237 793
f 83 359 270
f 359 237 270
f 359 357 237
f 359 471 357
f 473 471 359
f 473 587 471
f 589 587 473
f 589 689 587
f 691 689 589
f 691 757 689
f 759 757 691
f 759 23 757
f 25 23 759
f 25 133 23
f 135 133 25
f 135 255 133
f 257 255 135
f 257 84 255
f 255 84 794
f 270 793 239
f 793 85 239
f 793 795 85
f 83 270 239
f 371 794 84
f 371 84 373
f 373 86 371
f 371 86 796
f 87 117 797
f 797 117 115
f 795 115 117
f 795 117 85
f 487 796 86
f 487 86 489
f 489 88 487
f 487 88 798
f 42 9 799
f 797 9 42
f 89 797 42
f 87 797 89
f 90 632 601
f 798 90 601
f 88 90 798
f 632 800 601
f 801 44 799
f 799 44 42
f 89 42 44
f 89 44 91
f 603 632 90
f 603 92 632
f 92 800 632
f 92 802 800
f 803 46 801
f 801 46 44
f 91 44 46
f 91 46 93
f 802 94 804
f 92 94 802
f 805 48 803
f 803 48 46
f 93 46 48
f 93 48 95
f 804 96 806
f 94 96 804
f 807 50 805
f 805 50 48
f 95 48 50
f 95 50 97
f 806 98 808
f 96 98 806
f 10 50 807
f 118 97 164
f 164 97 809
f 97 50 809
f 50 10 809
f 99 118 164
f 808 100 810
f 98 100 808
f 116 164 809
f 164 116 99
f 116 240 99
f 116 238 240
f 358 240 238
f 358 360 240
f 472 360 358
f 472 474 360
f 588 474 472
f 588 590 474
f 690 590 588
f 690 692 590
f 101 692 690
f 101 690 811
f 604 102 812
f 604 812 602
f 602 810 604
f 604 810 100
f 811 758 101
f 101 758 760
f 24 760 758
f 24 26 760
f 103 26 24
f 103 24 813
f 490 104 814
f 490 814 488
f 488 812 490
f 490 812 102
f 813 134 103
f 103 134 136
f 256 136 134
f 256 258 136
f 372 258 256
f 372 374 258
f 372 814 374
f 374 814 104
