# Converted from NanoShaper .vert/.face
v -7.211000 7.811000 -11.656000
v -5.435000 7.811000 -11.656000
v -7.519000 7.811000 -11.156000
v -5.086000 7.811000 -11.156000
v -7.523000 7.811000 -10.656000
v -5.063000 7.811000 -10.656000
v -7.252000 7.811000 -10.156000
v -5.266000 7.811000 -10.156000
v -6.846000 7.811000 -9.656000
v -5.363000 7.811000 -9.656000
v -6.886000 7.811000 -9.156000
v -5.080000 7.811000 -9.156000
v -7.656000 7.811000 -8.656000
v -4.728000 7.811000 -8.656000
v -8.009000 7.811000 -8.156000
v -4.702000 7.811000 -8.156000
v -8.017000 7.811000 -7.656000
v -4.994000 7.811000 -7.656000
v -7.690000 7.811000 -7.156000
v -5.458000 7.811000 -7.156000
v -7.202000 7.811000 -6.656000
v -5.880000 7.811000 -6.656000
v -6.066000 11.811000 -12.156000
v -5.026000 11.811000 -12.156000
v -6.492000 11.811000 -11.656000
v -4.395000 11.811000 -11.656000
v -6.756000 11.811000 -11.156000
v -3.469000 11.811000 -11.156000
v -6.959000 11.811000 -10.656000
v -2.868000 11.811000 -10.656000
v -7.028000 11.811000 -10.156000
v -2.412000 11.811000 -10.156000
v -7.266000 11.811000 -9.656000
v -2.236000 11.811000 -9.656000
v -7.584000 11.811000 -9.156000
v -2.222000 11.811000 -9.156000
v -7.637000 11.811000 -8.656000
v -2.252000 11.811000 -8.656000
v -7.825000 11.811000 -8.156000
v -2.277000 11.811000 -8.156000
v -8.040000 11.811000 -7.656000
v -2.456000 11.811000 -7.656000
v -8.075000 11.811000 -7.156000
v -2.636000 11.811000 -7.156000
v -8.272000 11.811000 -6.656000
v -2.915000 11.811000 -6.656000
v -8.552000 11.811000 -6.156000
v -3.393000 11.811000 -6.156000
v -8.688000 11.811000 -5.656000
v -5.285000 11.811000 -5.656000
v -8.878000 11.811000 -5.156000
v -5.983000 11.811000 -5.156000
v -9.157000 11.811000 -4.656000
v -6.252000 11.811000 -4.656000
v -9.363000 11.811000 -4.156000
v -6.362000 11.811000 -4.156000
v -9.358000 11.811000 -3.656000
v -6.587000 11.811000 -3.656000
v -9.136000 11.811000 -3.156000
v -7.048000 11.811000 -3.156000
v -8.367000 11.811000 -2.656000
v -7.817000 11.811000 -2.656000
v -7.826000 7.811000 -8.497000
v -7.826000 7.811000 -7.288000
v -7.326000 7.811000 -11.536000
v -7.326000 7.811000 -10.259000
v -7.326000 7.811000 -8.866000
v -7.326000 7.811000 -6.785000
v -6.826000 7.811000 -11.859000
v -6.826000 7.811000 -6.450000
v -6.326000 7.811000 -11.873000
v -6.326000 7.811000 -6.431000
v -5.826000 7.811000 -11.838000
v -5.826000 7.811000 -6.706000
v -5.326000 7.811000 -11.560000
v -5.326000 7.811000 -9.988000
v -5.326000 7.811000 -9.519000
v -5.326000 7.811000 -7.285000
v -4.826000 7.811000 -8.864000
v -4.826000 7.811000 -7.853000
v -9.326000 11.811000 -4.304000
v -9.326000 11.811000 -3.534000
v -8.826000 11.811000 -5.287000
v -8.826000 11.811000 -2.855000
v -8.326000 11.811000 -6.584000
v -8.326000 11.811000 -2.647000
v -7.826000 11.811000 -8.152000
v -7.826000 11.811000 -2.654000
v -7.326000 11.811000 -9.587000
v -7.326000 11.811000 -2.877000
v -6.826000 11.811000 -11.027000
v -6.826000 11.811000 -3.407000
v -6.326000 11.811000 -11.894000
v -6.326000 11.811000 -4.382000
v -5.826000 11.811000 -12.262000
v -5.826000 11.811000 -5.317000
v -5.326000 11.811000 -12.283000
v -5.326000 11.811000 -5.635000
v -4.826000 11.811000 -11.994000
v -4.826000 11.811000 -5.820000
v -4.326000 11.811000 -11.607000
v -4.326000 11.811000 -5.870000
v -3.826000 11.811000 -11.300000
v -3.826000 11.811000 -5.897000
v -3.326000 11.811000 -11.080000
v -3.326000 11.811000 -6.230000
v -2.826000 11.811000 -10.615000
v -2.826000 11.811000 -6.754000
v -2.326000 11.811000 -9.983000
v -2.326000 11.811000 -7.951000
v -8.326000 9.068000 -10.656000
v -8.326000 10.429000 -10.656000
v -7.826000 8.253000 -10.656000
v -7.826000 11.028000 -10.656000
v -7.326000 7.650000 -10.656000
v -7.326000 11.476000 -10.656000
v -6.826000 7.440000 -10.656000
v -6.826000 11.914000 -10.656000
v -6.326000 7.419000 -10.656000
v -6.326000 12.247000 -10.656000
v -5.826000 7.421000 -10.656000
v -5.826000 12.777000 -10.656000
v -5.326000 7.604000 -10.656000
v -5.326000 13.231000 -10.656000
v -4.826000 8.128000 -10.656000
v -4.826000 13.455000 -10.656000
v -4.326000 8.845000 -10.656000
v -4.326000 13.464000 -10.656000
v -3.826000 9.468000 -10.656000
v -3.826000 13.437000 -10.656000
v -3.326000 10.369000 -10.656000
v -3.326000 13.171000 -10.656000
v -8.826000 10.240000 -6.656000
v -8.826000 10.972000 -6.656000
v -8.326000 9.221000 -6.656000
v -8.326000 11.768000 -6.656000
v -7.826000 8.354000 -6.656000
v -7.826000 12.113000 -6.656000
v -7.326000 7.908000 -6.656000
v -7.326000 12.537000 -6.656000
v -6.826000 7.643000 -6.656000
v -6.826000 13.004000 -6.656000
v -6.326000 7.627000 -6.656000
v -6.326000 13.181000 -6.656000
v -5.826000 7.849000 -6.656000
v -5.826000 13.173000 -6.656000
v -5.326000 8.541000 -6.656000
v -5.326000 13.073000 -6.656000
v -4.826000 8.986000 -6.656000
v -4.826000 12.823000 -6.656000
v -4.326000 9.062000 -6.656000
v -4.326000 12.563000 -6.656000
v -3.826000 9.073000 -6.656000
v -3.826000 12.407000 -6.656000
v -3.326000 9.131000 -6.656000
v -3.326000 12.154000 -6.656000
v -2.826000 9.377000 -6.656000
v -2.826000 11.740000 -6.656000
v -8.326000 10.215000 -2.656000
v -8.326000 11.830000 -2.656000
v -7.826000 10.192000 -2.656000
v -7.826000 11.816000 -2.656000
v -7.711000 8.311000 -12.156000
v -5.465000 8.311000 -12.156000
v -8.013000 8.311000 -11.656000
v -4.858000 8.311000 -11.656000
v -8.010000 8.311000 -11.156000
v -4.681000 8.311000 -11.156000
v -7.856000 8.311000 -10.656000
v -4.733000 8.311000 -10.656000
v -7.696000 8.311000 -10.156000
v -4.856000 8.311000 -10.156000
v -7.625000 8.311000 -9.656000
v -4.834000 8.311000 -9.656000
v -7.782000 8.311000 -9.156000
v -4.598000 8.311000 -9.156000
v -8.154000 8.311000 -8.656000
v -4.212000 8.311000 -8.656000
v -8.373000 8.311000 -8.156000
v -3.968000 8.311000 -8.156000
v -8.378000 8.311000 -7.656000
v -4.269000 8.311000 -7.656000
v -8.170000 8.311000 -7.156000
v -4.917000 8.311000 -7.156000
v -7.768000 8.311000 -6.656000
v -5.459000 8.311000 -6.656000
v -6.980000 8.311000 -6.156000
v -6.153000 8.311000 -6.156000
v -5.867000 12.311000 -11.156000
v -3.463000 12.311000 -11.156000
v -6.255000 12.311000 -10.656000
v -2.918000 12.311000 -10.656000
v -6.496000 12.311000 -10.156000
v -2.498000 12.311000 -10.156000
v -6.546000 12.311000 -9.656000
v -2.311000 12.311000 -9.656000
v -6.770000 12.311000 -9.156000
v -2.328000 12.311000 -9.156000
v -7.055000 12.311000 -8.656000
v -2.499000 12.311000 -8.656000
v -7.101000 12.311000 -8.156000
v -2.626000 12.311000 -8.156000
v -7.308000 12.311000 -7.656000
v -2.909000 12.311000 -7.656000
v -7.533000 12.311000 -7.156000
v -3.186000 12.311000 -7.156000
v -7.551000 12.311000 -6.656000
v -3.561000 12.311000 -6.656000
v -7.691000 12.311000 -6.156000
v -4.928000 12.311000 -6.156000
v -8.244000 12.311000 -5.656000
v -5.681000 12.311000 -5.656000
v -8.536000 12.311000 -5.156000
v -6.361000 12.311000 -5.156000
v -8.715000 12.311000 -4.656000
v -6.578000 12.311000 -4.656000
v -9.003000 12.311000 -4.156000
v -6.734000 12.311000 -4.156000
v -8.995000 12.311000 -3.656000
v -7.095000 12.311000 -3.656000
v -8.642000 12.311000 -3.156000
v -7.542000 12.311000 -3.156000
v -8.326000 8.311000 -8.321000
v -8.326000 8.311000 -7.464000
v -7.826000 8.311000 -12.033000
v -7.826000 8.311000 -10.558000
v -7.826000 8.311000 -9.084000
v -7.826000 8.311000 -6.710000
v -7.326000 8.311000 -12.372000
v -7.326000 8.311000 -6.345000
v -6.826000 8.311000 -12.390000
v -6.826000 8.311000 -6.115000
v -6.326000 8.311000 -12.347000
v -6.326000 8.311000 -6.115000
v -5.826000 8.311000 -12.341000
v -5.826000 8.311000 -6.308000
v -5.326000 8.311000 -12.039000
v -5.326000 8.311000 -6.802000
v -4.826000 8.311000 -11.611000
v -4.826000 8.311000 -10.313000
v -4.826000 8.311000 -9.627000
v -4.826000 8.311000 -7.240000
v -4.326000 8.311000 -8.811000
v -4.326000 8.311000 -7.615000
v -8.826000 12.311000 -4.507000
v -8.826000 12.311000 -3.331000
v -8.326000 12.311000 -5.569000
v -8.326000 12.311000 -3.008000
v -7.826000 12.311000 -5.985000
v -7.826000 12.311000 -3.016000
v -7.326000 12.311000 -7.628000
v -7.326000 12.311000 -3.372000
v -6.826000 12.311000 -9.083000
v -6.826000 12.311000 -3.947000
v -6.326000 12.311000 -10.524000
v -6.326000 12.311000 -5.201000
v -5.826000 12.311000 -11.196000
v -5.826000 12.311000 -5.584000
v -5.326000 12.311000 -11.482000
v -5.326000 12.311000 -5.853000
v -4.826000 12.311000 -11.472000
v -4.826000 12.311000 -6.215000
v -4.326000 12.311000 -11.393000
v -4.326000 12.311000 -6.381000
v -3.826000 12.311000 -11.289000
v -3.826000 12.311000 -6.532000
v -3.326000 12.311000 -11.073000
v -3.326000 12.311000 -6.880000
v -2.826000 12.311000 -10.547000
v -2.826000 12.311000 -7.744000
v -2.326000 12.311000 -9.738000
v -2.326000 12.311000 -9.164000
v -8.326000 9.108000 -10.156000
v -8.326000 10.710000 -10.156000
v -7.826000 8.515000 -10.156000
v -7.826000 11.228000 -10.156000
v -7.326000 7.864000 -10.156000
v -7.326000 11.576000 -10.156000
v -6.826000 7.629000 -10.156000
v -6.826000 11.972000 -10.156000
v -6.326000 7.586000 -10.156000
v -6.326000 12.476000 -10.156000
v -5.826000 7.584000 -10.156000
v -5.826000 13.015000 -10.156000
v -5.326000 7.770000 -10.156000
v -5.326000 13.473000 -10.156000
v -4.826000 8.379000 -10.156000
v -4.826000 13.657000 -10.156000
v -4.326000 9.043000 -10.156000
v -4.326000 13.659000 -10.156000
v -3.826000 9.523000 -10.156000
v -3.826000 13.632000 -10.156000
v -3.326000 10.148000 -10.156000
v -3.326000 13.412000 -10.156000
v -2.826000 10.775000 -10.156000
v -2.826000 12.832000 -10.156000
v -8.826000 10.167000 -6.156000
v -8.826000 11.448000 -6.156000
v -8.326000 9.516000 -6.156000
v -8.326000 11.987000 -6.156000
v -7.826000 8.881000 -6.156000
v -7.826000 12.229000 -6.156000
v -7.326000 8.547000 -6.156000
v -7.326000 12.572000 -6.156000
v -6.826000 8.237000 -6.156000
v -6.826000 12.829000 -6.156000
v -6.326000 8.211000 -6.156000
v -6.326000 12.989000 -6.156000
v -5.826000 8.804000 -6.156000
v -5.826000 12.969000 -6.156000
v -5.326000 9.342000 -6.156000
v -5.326000 12.700000 -6.156000
v -4.826000 9.574000 -6.156000
v -4.826000 12.240000 -6.156000
v -4.326000 9.580000 -6.156000
v -4.326000 12.076000 -6.156000
v -3.826000 9.585000 -6.156000
v -3.826000 12.015000 -6.156000
v -3.326000 9.701000 -6.156000
v -3.326000 11.757000 -6.156000
v -7.467000 8.811000 -12.656000
v -5.694000 8.811000 -12.656000
v -8.125000 8.811000 -12.156000
v -4.372000 8.811000 -12.156000
v -8.333000 8.811000 -11.656000
v -4.078000 8.811000 -11.656000
v -8.331000 8.811000 -11.156000
v -4.087000 8.811000 -11.156000
v -8.190000 8.811000 -10.656000
v -4.365000 8.811000 -10.656000
v -8.104000 8.811000 -10.156000
v -4.570000 8.811000 -10.156000
v -8.065000 8.811000 -9.656000
v -4.527000 8.811000 -9.656000
v -8.260000 8.811000 -9.156000
v -4.158000 8.811000 -9.156000
v -8.570000 8.811000 -8.656000
v -2.831000 8.811000 -8.656000
v -8.620000 8.811000 -8.156000
v -2.556000 8.811000 -8.156000
v -8.568000 8.811000 -7.656000
v -2.575000 8.811000 -7.656000
v -8.404000 8.811000 -7.156000
v -2.914000 8.811000 -7.156000
v -8.176000 8.811000 -6.656000
v -5.110000 8.811000 -6.656000
v -7.740000 8.811000 -6.156000
v -5.823000 8.811000 -6.156000
v -4.962000 12.811000 -11.156000
v -3.728000 12.811000 -11.156000
v -5.784000 12.811000 -10.656000
v -3.052000 12.811000 -10.656000
v -6.058000 12.811000 -10.156000
v -2.812000 12.811000 -10.156000
v -6.082000 12.811000 -9.656000
v -2.613000 12.811000 -9.656000
v -6.250000 12.811000 -9.156000
v -2.636000 12.811000 -9.156000
v -6.516000 12.811000 -8.656000
v -2.969000 12.811000 -8.656000
v -6.554000 12.811000 -8.156000
v -3.499000 12.811000 -8.156000
v -6.769000 12.811000 -7.656000
v -3.646000 12.811000 -7.656000
v -7.073000 12.811000 -7.156000
v -3.955000 12.811000 -7.156000
v -7.080000 12.811000 -6.656000
v -4.809000 12.811000 -6.656000
v -6.870000 12.811000 -6.156000
v -5.470000 12.811000 -6.156000
v -8.326000 8.811000 -11.689000
v -8.326000 8.811000 -11.132000
v -8.326000 8.811000 -9.069000
v -8.326000 8.811000 -6.924000
v -7.826000 8.811000 -12.466000
v -7.826000 8.811000 -6.240000
v -7.326000 8.811000 -12.695000
v -7.326000 8.811000 -5.817000
v -6.826000 8.811000 -12.709000
v -6.826000 8.811000 -5.697000
v -6.326000 8.811000 -12.692000
v -6.326000 8.811000 -5.858000
v -5.826000 8.811000 -12.689000
v -5.826000 8.811000 -6.153000
v -5.326000 8.811000 -12.518000
v -5.326000 8.811000 -6.520000
v -4.826000 8.811000 -12.394000
v -4.826000 8.811000 -6.785000
v -4.326000 8.811000 -12.111000
v -4.326000 8.811000 -10.714000
v -4.326000 8.811000 -9.307000
v -4.326000 8.811000 -6.924000
v -3.826000 8.811000 -9.003000
v -3.826000 8.811000 -6.947000
v -3.326000 8.811000 -8.922000
v -3.326000 8.811000 -6.962000
v -2.826000 8.811000 -8.651000
v -2.826000 8.811000 -7.233000
v -6.826000 12.811000 -7.585000
v -6.826000 12.811000 -6.104000
v -6.326000 12.811000 -9.046000
v -6.326000 12.811000 -5.907000
v -5.826000 12.811000 -10.611000
v -5.826000 12.811000 -5.953000
v -5.326000 12.811000 -10.998000
v -5.326000 12.811000 -6.302000
v -4.826000 12.811000 -11.183000
v -4.826000 12.811000 -6.648000
v -4.326000 12.811000 -11.202000
v -4.326000 12.811000 -6.876000
v -3.826000 12.811000 -11.183000
v -3.826000 12.811000 -7.289000
v -3.326000 12.811000 -10.945000
v -3.326000 12.811000 -8.381000
v -2.826000 12.811000 -10.189000
v -2.826000 12.811000 -8.798000
v -8.326000 9.093000 -9.656000
v -8.326000 11.237000 -9.656000
v -7.826000 8.564000 -9.656000
v -7.826000 11.506000 -9.656000
v -7.326000 8.011000 -9.656000
v -7.326000 11.770000 -9.656000
v -6.826000 7.803000 -9.656000
v -6.826000 12.100000 -9.656000
v -6.326000 7.687000 -9.656000
v -6.326000 12.530000 -9.656000
v -5.826000 7.688000 -9.656000
v -5.826000 13.049000 -9.656000
v -5.326000 7.828000 -9.656000
v -5.326000 13.487000 -9.656000
v -4.826000 8.325000 -9.656000
v -4.826000 13.672000 -9.656000
v -4.326000 8.987000 -9.656000
v -4.326000 13.672000 -9.656000
v -3.826000 9.331000 -9.656000
v -3.826000 13.626000 -9.656000
v -3.326000 9.790000 -9.656000
v -3.326000 13.406000 -9.656000
v -2.826000 10.338000 -9.656000
v -2.826000 12.997000 -9.656000
v -2.326000 11.256000 -9.656000
v -2.326000 12.354000 -9.656000
v -8.826000 10.060000 -5.656000
v -8.826000 11.550000 -5.656000
v -8.326000 9.566000 -5.656000
v -8.326000 12.247000 -5.656000
v -7.826000 9.116000 -5.656000
v -7.826000 12.507000 -5.656000
v -7.326000 8.898000 -5.656000
v -7.326000 12.631000 -5.656000
v -6.826000 8.844000 -5.656000
v -6.826000 12.676000 -5.656000
v -6.326000 9.046000 -5.656000
v -6.326000 12.629000 -5.656000
v -5.826000 9.428000 -5.656000
v -5.826000 12.429000 -5.656000
v -5.326000 9.789000 -5.656000
v -5.326000 11.849000 -5.656000
v -4.826000 10.063000 -5.656000
v -4.826000 11.536000 -5.656000
v -4.326000 10.168000 -5.656000
v -4.326000 11.510000 -5.656000
v -3.826000 10.211000 -5.656000
v -3.826000 11.481000 -5.656000
v -7.680000 9.311000 -12.656000
v -4.592000 9.311000 -12.656000
v -8.225000 9.311000 -12.156000
v -3.955000 9.311000 -12.156000
v -8.418000 9.311000 -11.656000
v -3.753000 9.311000 -11.656000
v -8.420000 9.311000 -11.156000
v -3.759000 9.311000 -11.156000
v -8.415000 9.311000 -10.656000
v -3.902000 9.311000 -10.656000
v -8.420000 9.311000 -10.156000
v -4.014000 9.311000 -10.156000
v -8.450000 9.311000 -9.656000
v -3.855000 9.311000 -9.656000
v -8.667000 9.311000 -9.156000
v -3.020000 9.311000 -9.156000
v -8.897000 9.311000 -8.656000
v -2.361000 9.311000 -8.656000
v -8.913000 9.311000 -8.156000
v -2.081000 9.311000 -8.156000
v -8.861000 9.311000 -7.656000
v -2.087000 9.311000 -7.656000
v -8.666000 9.311000 -7.156000
v -2.394000 9.311000 -7.156000
v -8.361000 9.311000 -6.656000
v -2.917000 9.311000 -6.656000
v -8.179000 9.311000 -6.156000
v -5.369000 9.311000 -6.156000
v -8.075000 9.311000 -5.656000
v -5.972000 9.311000 -5.656000
v -7.915000 9.311000 -5.156000
v -6.470000 9.311000 -5.156000
v -5.208000 13.311000 -10.656000
v -3.518000 13.311000 -10.656000
v -5.541000 13.311000 -10.156000
v -3.199000 13.311000 -10.156000
v -5.569000 13.311000 -9.656000
v -3.206000 13.311000 -9.656000
v -5.713000 13.311000 -9.156000
v -3.540000 13.311000 -9.156000
v -5.993000 13.311000 -8.656000
v -3.944000 13.311000 -8.656000
v -6.079000 13.311000 -8.156000
v -4.128000 13.311000 -8.156000
v -6.079000 13.311000 -7.656000
v -4.181000 13.311000 -7.656000
v -5.887000 13.311000 -7.156000
v -4.544000 13.311000 -7.156000
v -8.826000 9.311000 -8.874000
v -8.826000 9.311000 -7.504000
v -8.326000 9.311000 -11.962000
v -8.326000 9.311000 -6.561000
v -7.826000 9.311000 -12.568000
v -7.826000 9.311000 -5.031000
v -7.326000 9.311000 -12.781000
v -7.326000 9.311000 -4.821000
v -6.826000 9.311000 -12.855000
v -6.826000 9.311000 -4.954000
v -6.326000 9.311000 -12.903000
v -6.326000 9.311000 -5.294000
v -5.826000 9.311000 -12.902000
v -5.826000 9.311000 -5.792000
v -5.326000 9.311000 -12.812000
v -5.326000 9.311000 -6.187000
v -4.826000 9.311000 -12.719000
v -4.826000 9.311000 -6.405000
v -4.326000 9.311000 -12.522000
v -4.326000 9.311000 -6.384000
v -3.826000 9.311000 -11.912000
v -3.826000 9.311000 -10.916000
v -3.826000 9.311000 -9.625000
v -3.826000 9.311000 -6.364000
v -3.326000 9.311000 -9.310000
v -3.326000 9.311000 -6.438000
v -2.826000 9.311000 -9.051000
v -2.826000 9.311000 -6.740000
v -2.326000 9.311000 -8.616000
v -2.326000 9.311000 -7.224000
v -5.826000 13.311000 -8.994000
v -5.826000 13.311000 -7.105000
v -5.326000 13.311000 -10.545000
v -5.326000 13.311000 -6.975000
v -4.826000 13.311000 -10.839000
v -4.826000 13.311000 -7.015000
v -4.326000 13.311000 -10.855000
v -4.326000 13.311000 -7.370000
v -3.826000 13.311000 -10.824000
v -3.826000 13.311000 -8.807000
v -3.326000 13.311000 -10.444000
v -3.326000 13.311000 -9.384000
v -6.326000 9.697000 -13.156000
v -6.326000 10.968000 -13.156000
v -5.826000 9.687000 -13.156000
v -5.826000 10.978000 -13.156000
v -5.326000 9.833000 -13.156000
v -5.326000 10.828000 -13.156000
v -8.826000 9.694000 -9.156000
v -8.826000 10.943000 -9.156000
v -8.326000 8.864000 -9.156000
v -8.326000 11.493000 -9.156000
v -7.826000 8.358000 -9.156000
v -7.826000 11.697000 -9.156000
v -7.326000 7.937000 -9.156000
v -7.326000 11.982000 -9.156000
v -6.826000 7.789000 -9.156000
v -6.826000 12.271000 -9.156000
v -6.326000 7.616000 -9.156000
v -6.326000 12.747000 -9.156000
v -5.826000 7.616000 -9.156000
v -5.826000 13.223000 -9.156000
v -5.326000 7.704000 -9.156000
v -5.326000 13.523000 -9.156000
v -4.826000 8.003000 -9.156000
v -4.826000 13.662000 -9.156000
v -4.326000 8.677000 -9.156000
v -4.326000 13.653000 -9.156000
v -3.826000 8.952000 -9.156000
v -3.826000 13.463000 -9.156000
v -3.326000 9.081000 -9.156000
v -3.326000 13.218000 -9.156000
v -2.826000 9.596000 -9.156000
v -2.826000 12.975000 -9.156000
v -2.326000 10.280000 -9.156000
v -2.326000 12.306000 -9.156000
v -8.826000 9.819000 -5.156000
v -8.826000 11.897000 -5.156000
v -8.326000 9.500000 -5.156000
v -8.326000 12.485000 -5.156000
v -7.826000 9.278000 -5.156000
v -7.826000 12.694000 -5.156000
v -7.326000 9.144000 -5.156000
v -7.326000 12.703000 -5.156000
v -6.826000 9.156000 -5.156000
v -6.826000 12.575000 -5.156000
v -6.326000 9.422000 -5.156000
v -6.326000 12.280000 -5.156000
v -5.826000 10.007000 -5.156000
v -5.826000 11.619000 -5.156000
v -6.512000 9.811000 -13.156000
v -5.375000 9.811000 -13.156000
v -7.691000 9.811000 -12.656000
v -4.380000 9.811000 -12.656000
v -8.251000 9.811000 -12.156000
v -3.853000 9.811000 -12.156000
v -8.449000 9.811000 -11.656000
v -3.665000 9.811000 -11.656000
v -8.455000 9.811000 -11.156000
v -3.642000 9.811000 -11.156000
v -8.489000 9.811000 -10.656000
v -3.648000 9.811000 -10.656000
v -8.537000 9.811000 -10.156000
v -3.583000 9.811000 -10.156000
v -8.670000 9.811000 -9.656000
v -3.311000 9.811000 -9.656000
v -8.870000 9.811000 -9.156000
v -2.602000 9.811000 -9.156000
v -8.984000 9.811000 -8.656000
v -1.973000 9.811000 -8.656000
v -8.998000 9.811000 -8.156000
v -1.769000 9.811000 -8.156000
v -8.963000 9.811000 -7.656000
v -1.774000 9.811000 -7.656000
v -8.830000 9.811000 -7.156000
v -1.990000 9.811000 -7.156000
v -8.654000 9.811000 -6.656000
v -2.486000 9.811000 -6.656000
v -8.581000 9.811000 -6.156000
v -3.148000 9.811000 -6.156000
v -8.599000 9.811000 -5.656000
v -5.293000 9.811000 -5.656000
v -8.816000 9.811000 -5.156000
v -6.011000 9.811000 -5.156000
v -9.098000 9.811000 -4.656000
v -6.427000 9.811000 -4.656000
v -9.091000 9.811000 -4.156000
v -6.618000 9.811000 -4.156000
v -8.998000 9.811000 -3.656000
v -6.895000 9.811000 -3.656000
v -8.694000 9.811000 -3.156000
v -7.404000 9.811000 -3.156000
v -8.826000 9.811000 -9.306000
v -8.826000 9.811000 -7.146000
v -8.826000 9.811000 -5.142000
v -8.826000 9.811000 -3.298000
v -8.326000 9.811000 -12.023000
v -8.326000 9.811000 -2.953000
v -7.826000 9.811000 -12.579000
v -7.826000 9.811000 -2.939000
v -7.326000 9.811000 -12.784000
v -7.326000 9.811000 -3.232000
v -6.826000 9.811000 -13.004000
v -6.826000 9.811000 -3.730000
v -6.326000 9.811000 -13.208000
v -6.326000 9.811000 -4.810000
v -5.826000 9.811000 -13.213000
v -5.826000 9.811000 -5.298000
v -5.326000 9.811000 -13.147000
v -5.326000 9.811000 -5.628000
v -4.826000 9.811000 -12.932000
v -4.826000 9.811000 -5.890000
v -4.326000 9.811000 -12.624000
v -4.326000 9.811000 -5.933000
v -3.826000 9.811000 -12.111000
v -3.826000 9.811000 -5.968000
v -3.326000 9.811000 -9.676000
v -3.326000 9.811000 -6.102000
v -2.826000 9.811000 -9.257000
v -2.826000 9.811000 -6.318000
v -2.326000 9.811000 -9.011000
v -2.326000 9.811000 -6.818000
v -1.826000 9.811000 -8.367000
v -1.826000 9.811000 -7.470000
v -7.326000 8.715000 -12.656000
v -7.326000 10.538000 -12.656000
v -6.826000 8.685000 -12.656000
v -6.826000 11.261000 -12.656000
v -6.326000 8.728000 -12.656000
v -6.326000 11.504000 -12.656000
v -5.826000 8.735000 -12.656000
v -5.826000 11.513000 -12.656000
v -5.326000 9.072000 -12.656000
v -5.326000 11.463000 -12.656000
v -4.826000 9.169000 -12.656000
v -4.826000 11.213000 -12.656000
v -8.826000 9.154000 -8.656000
v -8.826000 10.968000 -8.656000
v -8.326000 8.548000 -8.656000
v -8.326000 11.506000 -8.656000
v -7.826000 7.921000 -8.656000
v -7.826000 11.723000 -8.656000
v -7.326000 7.694000 -8.656000
v -7.326000 12.031000 -8.656000
v -6.826000 7.607000 -8.656000
v -6.826000 12.501000 -8.656000
v -6.326000 7.464000 -8.656000
v -6.326000 12.971000 -8.656000
v -5.826000 7.459000 -8.656000
v -5.826000 13.435000 -8.656000
v -5.326000 7.509000 -8.656000
v -5.326000 13.628000 -8.656000
v -4.826000 7.733000 -8.656000
v -4.826000 13.634000 -8.656000
v -4.326000 8.220000 -8.656000
v -4.326000 13.514000 -8.656000
v -3.826000 8.511000 -8.656000
v -3.826000 13.222000 -8.656000
v -3.326000 8.602000 -8.656000
v -3.326000 12.982000 -8.656000
v -2.826000 8.814000 -8.656000
v -2.826000 12.701000 -8.656000
v -2.326000 9.342000 -8.656000
v -2.326000 11.968000 -8.656000
v -9.326000 10.110000 -4.656000
v -9.326000 11.483000 -4.656000
v -8.826000 9.602000 -4.656000
v -8.826000 12.221000 -4.656000
v -8.326000 9.425000 -4.656000
v -8.326000 12.536000 -4.656000
v -7.826000 9.385000 -4.656000
v -7.826000 12.690000 -4.656000
v -7.326000 9.366000 -4.656000
v -7.326000 12.698000 -4.656000
v -6.826000 9.491000 -4.656000
v -6.826000 12.509000 -4.656000
v -6.326000 9.957000 -4.656000
v -6.326000 11.967000 -4.656000
v -6.751000 10.311000 -13.156000
v -5.022000 10.311000 -13.156000
v -7.465000 10.311000 -12.656000
v -4.407000 10.311000 -12.656000
v -8.127000 10.311000 -12.156000
v -3.970000 10.311000 -12.156000
v -8.345000 10.311000 -11.656000
v -3.739000 10.311000 -11.656000
v -8.354000 10.311000 -11.156000
v -3.548000 10.311000 -11.156000
v -8.382000 10.311000 -10.656000
v -3.366000 10.311000 -10.656000
v -8.501000 10.311000 -10.156000
v -3.190000 10.311000 -10.156000
v -8.762000 10.311000 -9.656000
v -2.860000 10.311000 -9.656000
v -8.971000 10.311000 -9.156000
v -2.316000 10.311000 -9.156000
v -8.985000 10.311000 -8.656000
v -1.880000 10.311000 -8.656000
v -8.973000 10.311000 -8.156000
v -1.690000 10.311000 -8.156000
v -8.944000 10.311000 -7.656000
v -1.695000 10.311000 -7.656000
v -8.911000 10.311000 -7.156000
v -1.896000 10.311000 -7.156000
v -8.842000 10.311000 -6.656000
v -2.370000 10.311000 -6.656000
v -8.891000 10.311000 -6.156000
v -2.907000 10.311000 -6.156000
v -8.967000 10.311000 -5.656000
v -3.666000 10.311000 -5.656000
v -9.216000 10.311000 -5.156000
v -5.498000 10.311000 -5.156000
v -9.420000 10.311000 -4.656000
v -6.078000 10.311000 -4.656000
v -9.414000 10.311000 -4.156000
v -6.284000 10.311000 -4.156000
v -9.334000 10.311000 -3.656000
v -6.477000 10.311000 -3.656000
v -9.129000 10.311000 -3.156000
v -6.959000 10.311000 -3.156000
v -8.476000 10.311000 -2.656000
v -7.621000 10.311000 -2.656000
v -9.326000 10.311000 -4.956000
v -9.326000 10.311000 -3.616000
v -8.826000 10.311000 -9.549000
v -8.826000 10.311000 -2.840000
v -8.326000 10.311000 -11.734000
v -8.326000 10.311000 -2.614000
v -7.826000 10.311000 -12.456000
v -7.826000 10.311000 -2.603000
v -7.326000 10.311000 -12.738000
v -7.326000 10.311000 -2.802000
v -6.826000 10.311000 -13.110000
v -6.826000 10.311000 -3.286000
v -6.326000 10.311000 -13.311000
v -6.326000 10.311000 -3.982000
v -5.826000 10.311000 -13.316000
v -5.826000 10.311000 -4.938000
v -5.326000 10.311000 -13.249000
v -5.326000 10.311000 -5.251000
v -4.826000 10.311000 -13.052000
v -4.826000 10.311000 -5.517000
v -4.326000 10.311000 -12.564000
v -4.326000 10.311000 -5.586000
v -3.826000 10.311000 -11.880000
v -3.826000 10.311000 -5.608000
v -3.326000 10.311000 -10.542000
v -3.326000 10.311000 -5.843000
v -2.826000 10.311000 -9.625000
v -2.826000 10.311000 -6.211000
v -2.326000 10.311000 -9.166000
v -2.326000 10.311000 -6.703000
v -1.826000 10.311000 -8.562000
v -1.826000 10.311000 -7.275000
v -7.826000 8.401000 -12.156000
v -7.826000 10.691000 -12.156000
v -7.326000 8.138000 -12.156000
v -7.326000 11.247000 -12.156000
v -6.826000 8.101000 -12.156000
v -6.826000 11.525000 -12.156000
v -6.326000 8.126000 -12.156000
v -6.326000 11.713000 -12.156000
v -5.826000 8.156000 -12.156000
v -5.826000 11.893000 -12.156000
v -5.326000 8.407000 -12.156000
v -5.326000 11.910000 -12.156000
v -4.826000 8.622000 -12.156000
v -4.826000 11.686000 -12.156000
v -4.326000 8.843000 -12.156000
v -4.326000 10.914000 -12.156000
v -8.826000 9.123000 -8.156000
v -8.826000 10.916000 -8.156000
v -8.326000 8.213000 -8.156000
v -8.326000 11.475000 -8.156000
v -7.826000 7.677000 -8.156000
v -7.826000 11.810000 -8.156000
v -7.326000 7.491000 -8.156000
v -7.326000 12.133000 -8.156000
v -6.826000 7.488000 -8.156000
v -6.826000 12.554000 -8.156000
v -6.326000 7.422000 -8.156000
v -6.326000 13.023000 -8.156000
v -5.826000 7.425000 -8.156000
v -5.826000 13.504000 -8.156000
v -5.326000 7.492000 -8.156000
v -5.326000 13.683000 -8.156000
v -4.826000 7.712000 -8.156000
v -4.826000 13.668000 -8.156000
v -4.326000 8.132000 -8.156000
v -4.326000 13.460000 -8.156000
v -3.826000 8.353000 -8.156000
v -3.826000 13.044000 -8.156000
v -3.326000 8.421000 -8.156000
v -3.326000 12.705000 -8.156000
v -2.826000 8.600000 -8.156000
v -2.826000 12.465000 -8.156000
v -2.326000 9.078000 -8.156000
v -2.326000 11.919000 -8.156000
v -1.826000 9.674000 -8.156000
v -1.826000 10.872000 -8.156000
v -9.326000 10.121000 -4.156000
v -9.326000 11.891000 -4.156000
v -8.826000 9.607000 -4.156000
v -8.826000 12.442000 -4.156000
v -8.326000 9.428000 -4.156000
v -8.326000 12.634000 -4.156000
v -7.826000 9.426000 -4.156000
v -7.826000 12.648000 -4.156000
v -7.326000 9.447000 -4.156000
v -7.326000 12.603000 -4.156000
v -6.826000 9.646000 -4.156000
v -6.826000 12.382000 -4.156000
v -6.326000 10.215000 -4.156000
v -6.326000 11.722000 -4.156000
v -6.558000 10.811000 -13.156000
v -5.295000 10.811000 -13.156000
v -7.172000 10.811000 -12.656000
v -4.524000 10.811000 -12.656000
v -7.697000 10.811000 -12.156000
v -4.277000 10.811000 -12.156000
v -7.990000 10.811000 -11.656000
v -3.930000 10.811000 -11.656000
v -8.026000 10.811000 -11.156000
v -3.465000 10.811000 -11.156000
v -8.064000 10.811000 -10.656000
v -3.033000 10.811000 -10.656000
v -8.257000 10.811000 -10.156000
v -2.809000 10.811000 -10.156000
v -8.658000 10.811000 -9.656000
v -2.451000 10.811000 -9.656000
v -8.884000 10.811000 -9.156000
v -2.199000 10.811000 -9.156000
v -8.897000 10.811000 -8.656000
v -1.979000 10.811000 -8.656000
v -8.874000 10.811000 -8.156000
v -1.799000 10.811000 -8.156000
v -8.850000 10.811000 -7.656000
v -1.804000 10.811000 -7.656000
v -8.821000 10.811000 -7.156000
v -2.026000 10.811000 -7.156000
v -8.856000 10.811000 -6.656000
v -2.417000 10.811000 -6.656000
v -8.984000 10.811000 -6.156000
v -2.885000 10.811000 -6.156000
v -9.067000 10.811000 -5.656000
v -3.417000 10.811000 -5.656000
v -9.316000 10.811000 -5.156000
v -5.341000 10.811000 -5.156000
v -9.505000 10.811000 -4.656000
v -5.949000 10.811000 -4.656000
v -9.500000 10.811000 -4.156000
v -6.185000 10.811000 -4.156000
v -9.429000 10.811000 -3.656000
v -6.370000 10.811000 -3.656000
v -9.240000 10.811000 -3.156000
v -6.830000 10.811000 -3.156000
v -8.708000 10.811000 -2.656000
v -7.390000 10.811000 -2.656000
v -9.326000 10.811000 -5.139000
v -9.326000 10.811000 -3.318000
v -8.826000 10.811000 -9.347000
v -8.826000 10.811000 -7.226000
v -8.826000 10.811000 -6.865000
v -8.826000 10.811000 -2.726000
v -8.326000 10.811000 -10.053000
v -8.326000 10.811000 -2.518000
v -7.826000 10.811000 -11.994000
v -7.826000 10.811000 -2.508000
v -7.326000 10.811000 -12.486000
v -7.326000 10.811000 -2.691000
v -6.826000 10.811000 -13.008000
v -6.826000 10.811000 -3.159000
v -6.326000 10.811000 -13.225000
v -6.326000 10.811000 -3.736000
v -5.826000 10.811000 -13.230000
v -5.826000 10.811000 -4.802000
v -5.326000 10.811000 -13.162000
v -5.326000 10.811000 -5.164000
v -4.826000 10.811000 -12.950000
v -4.826000 10.811000 -5.412000
v -4.326000 10.811000 -12.279000
v -4.326000 10.811000 -5.479000
v -3.826000 10.811000 -11.545000
v -3.826000 10.811000 -5.500000
v -3.326000 10.811000 -11.005000
v -3.326000 10.811000 -5.712000
v -2.826000 10.811000 -10.192000
v -2.826000 10.811000 -6.214000
v -2.326000 10.811000 -9.437000
v -2.326000 10.811000 -6.777000
v -1.826000 10.811000 -8.273000
v -1.826000 10.811000 -7.564000
v -8.326000 8.793000 -11.656000
v -8.326000 10.353000 -11.656000
v -7.826000 8.156000 -11.656000
v -7.826000 10.973000 -11.656000
v -7.326000 7.876000 -11.656000
v -7.326000 11.502000 -11.656000
v -6.826000 7.646000 -11.656000
v -6.826000 11.705000 -11.656000
v -6.326000 7.633000 -11.656000
v -6.326000 11.895000 -11.656000
v -5.826000 7.658000 -11.656000
v -5.826000 12.114000 -11.656000
v -5.326000 7.887000 -11.656000
v -5.326000 12.192000 -11.656000
v -4.826000 8.333000 -11.656000
v -4.826000 12.096000 -11.656000
v -4.326000 8.617000 -11.656000
v -4.326000 11.707000 -11.656000
v -3.826000 9.147000 -11.656000
v -3.826000 10.595000 -11.656000
v -8.826000 9.233000 -7.656000
v -8.826000 10.868000 -7.656000
v -8.326000 8.203000 -7.656000
v -8.326000 11.496000 -7.656000
v -7.826000 7.671000 -7.656000
v -7.826000 11.990000 -7.656000
v -7.326000 7.486000 -7.656000
v -7.326000 12.297000 -7.656000
v -6.826000 7.429000 -7.656000
v -6.826000 12.767000 -7.656000
v -6.326000 7.403000 -7.656000
v -6.326000 13.134000 -7.656000
v -5.826000 7.439000 -7.656000
v -5.826000 13.483000 -7.656000
v -5.326000 7.634000 -7.656000
v -5.326000 13.666000 -7.656000
v -4.826000 7.934000 -7.656000
v -4.826000 13.651000 -7.656000
v -4.326000 8.287000 -7.656000
v -4.326000 13.430000 -7.656000
v -3.826000 8.410000 -7.656000
v -3.826000 12.954000 -7.656000
v -3.326000 8.434000 -7.656000
v -3.326000 12.551000 -7.656000
v -2.826000 8.615000 -7.656000
v -2.826000 12.252000 -7.656000
v -2.326000 9.092000 -7.656000
v -2.326000 11.557000 -7.656000
v -1.826000 9.685000 -7.656000
v -1.826000 10.861000 -7.656000
v -9.326000 10.291000 -3.656000
v -9.326000 11.880000 -3.656000
v -8.826000 9.673000 -3.656000
v -8.826000 12.437000 -3.656000
v -8.326000 9.461000 -3.656000
v -8.326000 12.629000 -3.656000
v -7.826000 9.451000 -3.656000
v -7.826000 12.623000 -3.656000
v -7.326000 9.606000 -3.656000
v -7.326000 12.435000 -3.656000
v -6.826000 9.862000 -3.656000
v -6.826000 12.121000 -3.656000
v -6.761000 11.311000 -12.656000
v -4.960000 11.311000 -12.656000
v -7.244000 11.311000 -12.156000
v -4.511000 11.311000 -12.156000
v -7.557000 11.311000 -11.656000
v -4.150000 11.311000 -11.656000
v -7.569000 11.311000 -11.156000
v -3.400000 11.311000 -11.156000
v -7.554000 11.311000 -10.656000
v -2.904000 11.311000 -10.656000
v -7.731000 11.311000 -10.156000
v -2.543000 11.311000 -10.156000
v -8.223000 11.311000 -9.656000
v -2.315000 11.311000 -9.656000
v -8.558000 11.311000 -9.156000
v -2.153000 11.311000 -9.156000
v -8.574000 11.311000 -8.656000
v -2.109000 11.311000 -8.656000
v -8.535000 11.311000 -8.156000
v -2.083000 11.311000 -8.156000
v -8.518000 11.311000 -7.656000
v -2.150000 11.311000 -7.656000
v -8.532000 11.311000 -7.156000
v -2.309000 11.311000 -7.156000
v -8.700000 11.311000 -6.656000
v -2.518000 11.311000 -6.656000
v -8.889000 11.311000 -6.156000
v -2.994000 11.311000 -6.156000
v -8.959000 11.311000 -5.656000
v -3.594000 11.311000 -5.656000
v -9.197000 11.311000 -5.156000
v -5.556000 11.311000 -5.156000
v -9.404000 11.311000 -4.656000
v -6.042000 11.311000 -4.656000
v -9.473000 11.311000 -4.156000
v -6.245000 11.311000 -4.156000
v -9.466000 11.311000 -3.656000
v -6.449000 11.311000 -3.656000
v -9.265000 11.311000 -3.156000
v -6.907000 11.311000 -3.156000
v -8.694000 11.311000 -2.656000
v -7.490000 11.311000 -2.656000
v -9.326000 11.311000 -4.917000
v -9.326000 11.311000 -3.260000
v -8.826000 11.311000 -6.385000
v -8.826000 11.311000 -2.728000
v -8.326000 11.311000 -9.560000
v -8.326000 11.311000 -2.539000
v -7.826000 11.311000 -10.024000
v -7.826000 11.311000 -2.545000
v -7.326000 11.311000 -12.075000
v -7.326000 11.311000 -2.747000
v -6.826000 11.311000 -12.585000
v -6.826000 11.311000 -3.246000
v -6.326000 11.311000 -12.902000
v -6.326000 11.311000 -3.890000
v -5.826000 11.311000 -12.909000
v -5.826000 11.311000 -4.936000
v -5.326000 11.311000 -12.839000
v -5.326000 11.311000 -5.295000
v -4.826000 11.311000 -12.532000
v -4.826000 11.311000 -5.526000
v -4.326000 11.311000 -11.872000
v -4.326000 11.311000 -5.564000
v -3.826000 11.311000 -11.389000
v -3.826000 11.311000 -5.581000
v -3.326000 11.311000 -11.108000
v -3.326000 11.311000 -5.809000
v -2.826000 11.311000 -10.543000
v -2.826000 11.311000 -6.323000
v -2.326000 11.311000 -9.686000
v -2.326000 11.311000 -7.098000
v -8.326000 8.798000 -11.156000
v -8.326000 10.377000 -11.156000
v -7.826000 8.133000 -11.156000
v -7.826000 11.012000 -11.156000
v -7.326000 7.653000 -11.156000
v -7.326000 11.511000 -11.156000
v -6.826000 7.443000 -11.156000
v -6.826000 11.782000 -11.156000
v -6.326000 7.428000 -11.156000
v -6.326000 11.998000 -11.156000
v -5.826000 7.438000 -11.156000
v -5.826000 12.336000 -11.156000
v -5.326000 7.623000 -11.156000
v -5.326000 12.610000 -11.156000
v -4.826000 8.138000 -11.156000
v -4.826000 12.871000 -11.156000
v -4.326000 8.621000 -11.156000
v -4.326000 12.912000 -11.156000
v -3.826000 9.161000 -11.156000
v -3.826000 12.872000 -11.156000
v -8.826000 9.799000 -7.156000
v -8.826000 10.796000 -7.156000
v -8.326000 8.632000 -7.156000
v -8.326000 11.526000 -7.156000
v -7.826000 7.900000 -7.156000
v -7.826000 12.015000 -7.156000
v -7.326000 7.633000 -7.156000
v -7.326000 12.512000 -7.156000
v -6.826000 7.438000 -7.156000
v -6.826000 12.998000 -7.156000
v -6.326000 7.425000 -7.156000
v -6.326000 13.190000 -7.156000
v -5.826000 7.598000 -7.156000
v -5.826000 13.327000 -7.156000
v -5.326000 7.911000 -7.156000
v -5.326000 13.445000 -7.156000
v -4.826000 8.376000 -7.156000
v -4.826000 13.427000 -7.156000
v -4.326000 8.600000 -7.156000
v -4.326000 13.149000 -7.156000
v -3.826000 8.644000 -7.156000
v -3.826000 12.724000 -7.156000
v -3.326000 8.649000 -7.156000
v -3.326000 12.418000 -7.156000
v -2.826000 8.872000 -7.156000
v -2.826000 11.977000 -7.156000
v -2.326000 9.364000 -7.156000
v -2.326000 11.345000 -7.156000
v -8.826000 9.910000 -3.156000
v -8.826000 12.189000 -3.156000
v -8.326000 9.654000 -3.156000
v -8.326000 12.424000 -3.156000
v -7.826000 9.642000 -3.156000
v -7.826000 12.417000 -3.156000
v -7.326000 9.865000 -3.156000
v -7.326000 12.164000 -3.156000
f 273 475 111
f 111 475 473
f 475 613 473
f 615 613 475
f 615 741 613
f 743 741 615
f 743 274 741
f 741 274 112
f 226 169 113
f 275 331 226
f 331 169 226
f 331 329 169
f 111 329 331
f 111 331 273
f 877 112 274
f 877 274 879
f 879 276 877
f 877 276 114
f 66 5 115
f 171 226 113
f 171 113 5
f 277 171 5
f 66 277 5
f 275 226 171
f 1015 114 276
f 1015 276 1017
f 1017 278 1015
f 1015 278 116
f 66 115 7
f 115 279 7
f 115 117 279
f 277 66 7
f 29 116 278
f 29 278 31
f 31 280 29
f 29 280 118
f 281 117 119
f 281 279 117
f 280 193 255
f 120 280 255
f 118 280 120
f 193 282 255
f 283 119 121
f 283 281 119
f 255 191 120
f 282 353 403
f 282 403 122
f 255 282 122
f 191 255 122
f 353 284 403
f 285 121 123
f 285 283 121
f 403 351 122
f 284 499 545
f 284 545 124
f 403 284 124
f 351 403 124
f 499 286 545
f 123 6 285
f 285 6 8
f 6 125 240
f 172 6 240
f 8 6 172
f 287 172 240
f 545 497 124
f 545 286 497
f 286 126 497
f 286 288 126
f 170 240 125
f 240 170 287
f 170 332 287
f 170 330 332
f 289 332 330
f 289 330 127
f 126 290 128
f 288 290 126
f 127 474 289
f 289 474 476
f 291 476 474
f 291 474 129
f 128 292 130
f 290 292 128
f 129 614 291
f 291 614 616
f 742 799 293
f 616 742 293
f 614 742 616
f 131 799 742
f 498 553 132
f 498 130 553
f 130 294 553
f 130 292 294
f 799 744 293
f 939 295 878
f 878 295 131
f 295 744 131
f 744 799 131
f 1016 1075 939
f 1016 939 878
f 30 107 1075
f 30 1075 1016
f 192 269 107
f 192 107 30
f 352 415 269
f 352 269 192
f 553 500 132
f 132 500 352
f 500 296 352
f 296 415 352
f 553 294 500
f 939 880 295
f 880 939 1018
f 1018 939 1075
f 1018 1075 32
f 32 1075 107
f 32 107 194
f 194 107 269
f 194 269 354
f 354 269 415
f 415 296 354
f 297 759 133
f 133 759 757
f 759 893 757
f 895 893 759
f 134 893 1051
f 893 1033 1051
f 893 895 1033
f 1033 298 1051
f 516 489 135
f 299 631 516
f 631 489 516
f 631 629 489
f 133 629 631
f 133 631 297
f 1051 1031 134
f 298 47 85
f 298 85 136
f 1051 298 136
f 1031 1051 136
f 47 300 85
f 376 345 137
f 491 516 135
f 491 135 345
f 301 491 345
f 376 301 345
f 299 516 491
f 85 45 136
f 85 300 45
f 300 138 45
f 300 302 138
f 230 185 139
f 347 376 137
f 347 137 185
f 303 347 185
f 230 303 185
f 301 376 347
f 207 138 302
f 207 302 209
f 209 304 207
f 207 304 140
f 70 21 141
f 187 230 139
f 187 139 21
f 305 187 21
f 70 305 21
f 303 230 187
f 367 140 304
f 367 304 369
f 369 306 367
f 367 306 142
f 143 72 141
f 141 72 70
f 305 70 72
f 305 72 307
f 142 308 144
f 306 308 142
f 22 72 143
f 188 307 236
f 236 307 145
f 307 72 145
f 72 22 145
f 309 188 236
f 144 310 146
f 308 310 144
f 186 236 145
f 348 309 386
f 386 309 147
f 309 236 147
f 236 186 147
f 348 386 528
f 348 528 492
f 311 492 528
f 370 312 406
f 406 148 370
f 148 310 370
f 148 146 310
f 346 386 147
f 149 530 346
f 530 386 346
f 530 528 386
f 311 528 530
f 311 530 313
f 210 314 262
f 406 312 210
f 262 406 210
f 408 406 262
f 148 406 150
f 150 406 408
f 151 532 149
f 149 532 530
f 313 530 532
f 313 532 315
f 316 264 262
f 316 262 314
f 368 408 152
f 408 264 152
f 408 262 264
f 150 408 368
f 153 536 151
f 151 536 532
f 315 532 536
f 315 536 317
f 318 266 264
f 318 264 316
f 152 264 154
f 154 264 266
f 155 538 153
f 153 538 536
f 317 536 538
f 317 538 319
f 48 320 106
f 266 318 48
f 266 48 106
f 208 266 106
f 156 208 106
f 154 266 208
f 490 538 155
f 632 319 672
f 672 319 157
f 319 538 157
f 538 490 157
f 632 672 802
f 632 802 760
f 760 802 940
f 760 940 896
f 896 940 1076
f 896 1076 1034
f 106 320 1034
f 106 1034 1076
f 46 106 1076
f 158 46 1076
f 156 106 46
f 630 672 157
f 758 802 630
f 630 802 672
f 894 940 758
f 758 940 802
f 1032 1076 894
f 894 1076 940
f 158 1076 1032
f 780 773 159
f 918 909 780
f 780 909 773
f 1054 1047 918
f 918 1047 909
f 86 61 1054
f 1054 61 1047
f 86 160 61
f 161 782 159
f 159 782 780
f 920 780 782
f 918 780 920
f 1056 918 920
f 1054 918 1056
f 88 1054 1056
f 86 1054 88
f 160 86 162
f 162 86 88
f 774 782 161
f 910 920 774
f 774 920 782
f 1048 1056 910
f 910 1056 920
f 62 88 1048
f 1048 88 1056
f 162 88 62
f 417 477 273
f 273 477 475
f 477 615 475
f 617 615 477
f 617 743 615
f 745 743 617
f 274 743 917
f 743 881 917
f 743 745 881
f 881 418 917
f 419 333 275
f 275 333 331
f 273 331 333
f 273 333 417
f 917 879 274
f 418 1019 1055
f 418 1055 276
f 917 418 276
f 879 917 276
f 1019 420 1055
f 421 173 277
f 277 173 171
f 275 171 173
f 275 173 419
f 1055 1017 276
f 1055 420 1017
f 420 278 1017
f 420 422 278
f 423 9 279
f 279 9 7
f 277 7 9
f 277 9 421
f 31 278 422
f 31 422 33
f 33 424 31
f 31 424 280
f 425 279 281
f 425 423 279
f 193 280 424
f 193 424 195
f 195 426 193
f 193 426 282
f 427 281 283
f 427 425 281
f 353 282 426
f 353 426 355
f 355 428 353
f 353 428 284
f 10 427 76
f 427 285 76
f 427 283 285
f 429 10 76
f 499 284 428
f 499 428 501
f 501 430 499
f 499 430 286
f 8 76 285
f 76 8 429
f 8 174 429
f 8 172 174
f 431 174 172
f 431 172 287
f 286 432 288
f 430 432 286
f 287 332 431
f 431 332 334
f 433 334 332
f 433 332 289
f 288 434 290
f 432 434 288
f 289 476 433
f 433 476 478
f 435 478 476
f 435 476 291
f 290 436 292
f 434 436 290
f 669 437 616
f 437 291 616
f 437 435 291
f 293 669 616
f 292 438 294
f 436 438 292
f 669 618 437
f 293 744 669
f 744 618 669
f 744 746 618
f 439 746 744
f 439 744 295
f 502 440 296
f 502 296 500
f 500 294 502
f 502 294 438
f 295 880 439
f 439 880 882
f 1018 1077 441
f 882 1018 441
f 880 1018 882
f 32 109 1077
f 32 1077 1018
f 194 271 109
f 194 109 32
f 356 442 271
f 194 356 271
f 354 356 194
f 354 296 356
f 356 296 440
f 1077 1020 441
f 1020 1077 34
f 34 1077 109
f 34 109 196
f 196 109 271
f 271 442 196
f 443 761 297
f 297 761 759
f 761 895 759
f 897 895 761
f 897 1033 895
f 1035 1033 897
f 1035 444 1033
f 1033 444 298
f 445 633 299
f 299 633 631
f 297 631 633
f 297 633 443
f 47 298 444
f 47 444 49
f 49 446 47
f 47 446 300
f 447 493 301
f 301 493 491
f 299 491 493
f 299 493 445
f 446 211 249
f 302 446 249
f 300 446 302
f 211 448 249
f 378 347 303
f 301 347 378
f 449 301 378
f 447 301 449
f 249 209 302
f 249 448 209
f 448 304 209
f 448 450 304
f 232 187 305
f 187 232 303
f 232 378 303
f 232 380 378
f 449 378 380
f 449 380 451
f 452 400 369
f 304 452 369
f 450 452 304
f 400 306 369
f 307 234 305
f 305 234 232
f 382 232 234
f 380 232 382
f 451 380 382
f 451 382 453
f 454 402 400
f 454 400 452
f 306 400 308
f 308 400 402
f 188 234 307
f 309 384 188
f 384 234 188
f 384 382 234
f 526 494 453
f 382 526 453
f 384 526 382
f 455 494 526
f 456 404 402
f 456 402 454
f 308 402 310
f 310 402 404
f 348 384 309
f 492 526 348
f 348 526 384
f 455 526 492
f 311 455 492
f 457 455 311
f 212 458 260
f 404 456 212
f 404 212 260
f 370 404 260
f 312 370 260
f 310 404 370
f 634 457 664
f 457 313 664
f 457 311 313
f 459 634 664
f 50 460 100
f 260 458 50
f 260 50 100
f 210 260 100
f 314 210 100
f 312 260 210
f 315 666 313
f 313 666 664
f 459 664 666
f 459 666 461
f 462 102 100
f 462 100 460
f 314 100 316
f 316 100 102
f 317 668 315
f 315 668 666
f 461 666 668
f 461 668 463
f 464 104 102
f 464 102 462
f 316 102 318
f 318 102 104
f 319 670 317
f 317 670 668
f 800 762 463
f 668 800 463
f 670 800 668
f 762 800 938
f 762 938 898
f 898 938 1074
f 898 1074 1036
f 104 464 1036
f 104 1036 1074
f 48 104 1074
f 320 48 1074
f 318 104 48
f 632 670 319
f 760 800 632
f 632 800 670
f 896 938 760
f 760 938 800
f 1034 1074 896
f 896 1074 938
f 320 1074 1034
f 555 603 657
f 657 603 787
f 787 603 731
f 787 731 925
f 925 731 867
f 867 556 925
f 659 557 657
f 657 557 555
f 657 789 659
f 657 787 789
f 787 927 789
f 787 925 927
f 925 556 927
f 927 556 558
f 659 604 557
f 604 659 559
f 659 791 559
f 659 789 791
f 789 929 791
f 789 927 929
f 927 558 929
f 929 558 560
f 791 732 559
f 732 791 868
f 868 791 929
f 929 560 868
f 561 619 645
f 645 619 777
f 777 619 747
f 777 747 913
f 913 747 883
f 883 562 913
f 563 479 417
f 417 479 477
f 479 561 645
f 617 479 645
f 477 479 617
f 777 745 617
f 777 617 645
f 913 881 745
f 913 745 777
f 562 1021 1053
f 562 1053 418
f 913 562 418
f 881 913 418
f 1021 564 1053
f 565 335 419
f 419 335 333
f 417 333 335
f 417 335 563
f 1053 1019 418
f 1053 564 1019
f 564 420 1019
f 564 566 420
f 567 175 421
f 421 175 173
f 419 173 175
f 419 175 565
f 566 35 89
f 422 566 89
f 420 566 422
f 35 568 89
f 569 11 423
f 423 11 9
f 421 9 11
f 421 11 567
f 89 33 422
f 89 568 33
f 568 424 33
f 568 570 424
f 571 423 425
f 571 569 423
f 195 424 570
f 195 570 197
f 197 572 195
f 195 572 426
f 573 425 427
f 573 571 425
f 355 426 572
f 355 572 357
f 357 574 355
f 355 574 428
f 77 575 10
f 575 427 10
f 575 573 427
f 429 77 10
f 501 428 574
f 501 574 503
f 503 576 501
f 501 576 430
f 77 12 575
f 241 577 174
f 174 577 429
f 577 12 429
f 12 77 429
f 431 241 174
f 430 578 432
f 576 578 430
f 241 176 577
f 391 579 334
f 334 579 431
f 579 176 431
f 176 241 431
f 433 391 334
f 432 580 434
f 578 580 432
f 391 336 579
f 535 581 478
f 478 581 433
f 581 336 433
f 336 391 433
f 435 535 478
f 434 582 436
f 580 582 434
f 537 583 535
f 535 583 581
f 535 435 437
f 535 437 537
f 504 584 554
f 554 438 504
f 438 582 504
f 438 436 582
f 537 480 583
f 671 585 618
f 618 585 437
f 585 480 437
f 480 537 437
f 746 801 671
f 746 671 618
f 439 801 746
f 440 502 554
f 584 440 554
f 586 440 584
f 438 554 502
f 671 620 585
f 620 671 587
f 671 803 587
f 671 801 803
f 801 439 882
f 941 801 882
f 803 801 941
f 441 941 882
f 198 588 272
f 198 272 442
f 356 198 442
f 358 198 356
f 356 440 358
f 358 440 586
f 803 748 587
f 748 803 884
f 884 803 941
f 441 1020 941
f 1020 884 941
f 1020 1022 884
f 34 1022 1020
f 34 36 1022
f 588 36 272
f 36 196 272
f 36 34 196
f 442 272 196
f 589 763 443
f 443 763 761
f 763 897 761
f 899 897 763
f 899 1035 897
f 1037 1035 899
f 444 1035 83
f 1035 51 83
f 1035 1037 51
f 51 590 83
f 591 635 445
f 445 635 633
f 443 633 635
f 443 635 589
f 83 49 444
f 590 213 247
f 590 247 446
f 83 590 446
f 49 83 446
f 213 592 247
f 593 495 447
f 447 495 493
f 445 493 495
f 445 495 591
f 247 211 446
f 247 592 211
f 592 448 211
f 592 594 448
f 595 447 449
f 595 593 447
f 448 596 450
f 594 596 448
f 597 449 451
f 597 595 449
f 450 598 452
f 596 598 450
f 496 597 524
f 597 453 524
f 597 451 453
f 599 496 524
f 214 600 256
f 256 454 214
f 454 598 214
f 454 452 598
f 494 524 453
f 636 599 660
f 660 599 455
f 599 524 455
f 524 494 455
f 601 636 660
f 52 602 96
f 256 600 52
f 96 256 52
f 258 256 96
f 454 256 456
f 456 256 258
f 457 662 455
f 455 662 660
f 792 764 601
f 660 792 601
f 662 792 660
f 764 792 930
f 764 930 900
f 900 930 1066
f 900 1066 1038
f 96 602 1038
f 1066 96 1038
f 98 96 1066
f 212 258 458
f 258 98 458
f 258 96 98
f 456 258 212
f 634 662 457
f 459 794 634
f 794 662 634
f 794 792 662
f 932 792 794
f 930 792 932
f 1068 930 932
f 1066 930 1068
f 50 98 460
f 98 1068 460
f 98 1066 1068
f 458 98 50
f 461 796 459
f 459 796 794
f 934 794 796
f 932 794 934
f 1070 932 934
f 1068 932 1070
f 460 1068 462
f 462 1068 1070
f 463 798 461
f 461 798 796
f 936 796 798
f 934 796 936
f 1072 934 936
f 1070 934 1072
f 462 1070 464
f 464 1070 1072
f 762 798 463
f 898 936 762
f 762 936 798
f 1036 1072 898
f 898 1072 936
f 464 1072 1036
f 677 321 377
f 377 321 519
f 519 321 465
f 519 465 653
f 653 465 605
f 653 605 783
f 783 605 733
f 733 678 783
f 379 679 377
f 377 679 677
f 377 521 379
f 377 519 521
f 519 655 521
f 519 653 655
f 653 785 655
f 653 783 785
f 869 923 678
f 923 783 678
f 923 785 783
f 869 680 923
f 381 681 379
f 379 681 679
f 379 523 381
f 379 521 523
f 655 603 555
f 523 655 555
f 521 655 523
f 785 731 603
f 785 603 655
f 923 867 731
f 923 731 785
f 680 1007 1061
f 680 1061 556
f 923 680 556
f 867 923 556
f 1007 682 1061
f 383 683 381
f 381 683 681
f 381 525 383
f 381 523 525
f 523 555 557
f 523 557 525
f 1063 558 556
f 1063 556 1061
f 1061 682 1063
f 1063 682 684
f 383 322 683
f 322 383 685
f 383 527 685
f 383 525 527
f 525 557 604
f 661 525 604
f 527 525 661
f 559 661 604
f 1065 560 558
f 1065 558 1063
f 1063 684 1065
f 1065 684 686
f 529 687 527
f 527 687 685
f 527 663 529
f 527 661 663
f 661 559 732
f 793 661 732
f 663 661 793
f 868 931 793
f 868 793 732
f 1065 1008 560
f 560 1008 868
f 1008 688 868
f 688 931 868
f 1065 686 1008
f 529 466 687
f 466 529 606
f 606 529 663
f 606 663 734
f 734 663 793
f 734 793 870
f 870 793 931
f 931 688 870
f 689 481 513
f 513 481 561
f 481 619 561
f 481 621 619
f 621 747 619
f 749 747 621
f 749 883 747
f 885 883 749
f 885 690 883
f 883 690 562
f 691 337 373
f 689 513 337
f 337 513 373
f 513 479 373
f 479 563 373
f 513 561 479
f 1021 562 690
f 1021 690 1023
f 1023 692 1021
f 1021 692 564
f 693 177 227
f 691 373 177
f 177 373 227
f 373 335 227
f 335 565 227
f 373 563 335
f 564 694 566
f 692 694 564
f 695 13 67
f 693 227 13
f 13 227 67
f 227 175 67
f 175 567 67
f 227 565 175
f 35 566 694
f 35 694 37
f 37 696 35
f 35 696 568
f 11 569 67
f 569 695 67
f 569 697 695
f 67 567 11
f 696 199 253
f 570 696 253
f 568 696 570
f 199 698 253
f 699 569 571
f 699 697 569
f 253 197 570
f 698 359 401
f 698 401 572
f 253 698 572
f 197 253 572
f 359 700 401
f 701 571 573
f 701 699 571
f 401 357 572
f 700 505 543
f 700 543 574
f 401 700 574
f 357 401 574
f 505 702 543
f 703 573 575
f 703 701 573
f 543 503 574
f 543 702 503
f 702 576 503
f 702 704 576
f 79 705 12
f 705 575 12
f 705 703 575
f 577 79 12
f 576 706 578
f 704 706 576
f 79 14 705
f 243 707 176
f 176 707 577
f 707 14 577
f 14 79 577
f 579 243 176
f 578 708 580
f 706 708 578
f 243 178 707
f 393 709 336
f 336 709 579
f 709 178 579
f 178 243 579
f 581 393 336
f 506 710 552
f 552 582 506
f 582 708 506
f 582 580 708
f 395 711 393
f 393 711 709
f 393 581 583
f 393 583 395
f 584 504 552
f 710 584 552
f 712 584 710
f 582 552 504
f 395 338 711
f 539 713 480
f 480 713 583
f 713 338 583
f 338 395 583
f 585 539 480
f 360 714 416
f 416 586 360
f 586 712 360
f 586 584 712
f 539 482 713
f 673 715 620
f 620 715 585
f 715 482 585
f 482 539 585
f 587 673 620
f 200 716 588
f 200 588 198
f 714 200 416
f 200 358 416
f 200 198 358
f 586 416 358
f 673 622 715
f 587 748 673
f 748 622 673
f 748 750 622
f 884 750 748
f 884 886 750
f 1022 886 884
f 1022 1024 886
f 36 1024 1022
f 36 38 1024
f 36 588 38
f 38 588 716
f 717 765 775
f 775 765 911
f 911 765 901
f 911 901 1049
f 1049 901 1039
f 1039 718 1049
f 719 637 647
f 717 775 637
f 637 775 647
f 775 763 647
f 763 589 647
f 911 899 763
f 911 763 775
f 1049 1037 899
f 1049 899 911
f 1037 1049 718
f 53 1037 718
f 51 1037 53
f 53 720 51
f 51 720 590
f 635 591 647
f 591 719 647
f 591 721 719
f 647 589 635
f 213 590 720
f 213 720 215
f 215 722 213
f 213 722 592
f 518 495 593
f 591 495 518
f 723 591 518
f 721 591 723
f 592 724 594
f 722 724 592
f 595 520 593
f 593 520 518
f 723 518 520
f 723 520 725
f 594 726 596
f 724 726 594
f 597 522 595
f 595 522 520
f 725 520 522
f 725 522 727
f 596 728 598
f 726 728 596
f 496 522 597
f 638 727 658
f 658 727 599
f 727 522 599
f 522 496 599
f 729 638 658
f 216 730 600
f 216 600 214
f 214 598 216
f 216 598 728
f 636 658 599
f 766 729 790
f 790 729 601
f 729 658 601
f 658 636 601
f 766 790 928
f 766 928 902
f 902 928 1064
f 902 1064 1040
f 1040 1064 602
f 52 1040 602
f 54 1040 52
f 52 600 54
f 54 600 730
f 764 790 601
f 900 928 764
f 764 928 790
f 1038 1064 900
f 900 1064 928
f 602 1064 1038
f 807 323 375
f 375 323 517
f 517 323 467
f 517 467 651
f 651 467 607
f 651 607 781
f 781 607 735
f 735 808 781
f 809 163 229
f 807 375 163
f 163 375 229
f 375 321 229
f 321 677 229
f 517 465 321
f 517 321 375
f 651 605 465
f 651 465 517
f 781 733 605
f 781 605 651
f 808 871 921
f 808 921 678
f 781 808 678
f 733 781 678
f 871 810 921
f 231 811 229
f 229 811 809
f 229 677 679
f 229 679 231
f 921 869 678
f 810 1009 1059
f 810 1059 680
f 921 810 680
f 869 921 680
f 1009 812 1059
f 233 813 231
f 231 813 811
f 231 679 681
f 231 681 233
f 1059 1007 680
f 1059 812 1007
f 812 682 1007
f 812 814 682
f 235 815 233
f 233 815 813
f 233 681 683
f 233 683 235
f 814 23 95
f 684 814 95
f 682 814 684
f 23 816 95
f 235 164 815
f 385 817 322
f 322 817 683
f 817 164 683
f 164 235 683
f 685 385 322
f 97 686 684
f 97 684 95
f 95 816 97
f 97 816 818
f 387 819 385
f 385 819 817
f 385 685 687
f 385 687 387
f 1008 1067 688
f 97 24 686
f 686 24 1008
f 24 820 1008
f 820 1067 1008
f 97 818 24
f 387 324 819
f 531 821 466
f 466 821 687
f 821 324 687
f 324 387 687
f 606 665 531
f 606 531 466
f 734 795 665
f 734 665 606
f 870 933 795
f 870 795 734
f 1067 1010 688
f 688 1010 870
f 1010 822 870
f 822 933 870
f 1067 820 1010
f 531 468 821
f 468 531 608
f 608 531 665
f 608 665 736
f 736 665 795
f 736 795 872
f 872 795 933
f 933 822 872
f 823 483 689
f 689 483 481
f 483 621 481
f 623 621 483
f 623 749 621
f 751 749 623
f 751 885 749
f 887 885 751
f 887 824 885
f 885 824 690
f 825 179 223
f 223 179 691
f 179 337 691
f 179 339 337
f 689 337 339
f 689 339 823
f 1023 690 824
f 1023 824 1025
f 1025 826 1023
f 1023 826 692
f 827 15 63
f 825 223 15
f 15 223 63
f 223 177 63
f 177 693 63
f 223 691 177
f 692 828 694
f 826 828 692
f 13 695 63
f 695 827 63
f 695 829 827
f 63 693 13
f 37 694 828
f 37 828 39
f 39 830 37
f 37 830 696
f 831 695 697
f 831 829 695
f 199 696 830
f 199 830 201
f 201 832 199
f 199 832 698
f 833 697 699
f 833 831 697
f 359 698 832
f 359 832 361
f 361 834 359
f 359 834 700
f 835 699 701
f 835 833 699
f 505 700 834
f 505 834 507
f 507 836 505
f 505 836 702
f 837 701 703
f 837 835 701
f 702 838 704
f 836 838 702
f 839 703 705
f 839 837 703
f 704 840 706
f 838 840 704
f 705 14 839
f 839 14 16
f 841 16 14
f 841 14 707
f 706 842 708
f 840 842 706
f 707 178 841
f 841 178 180
f 843 180 178
f 843 178 709
f 508 844 710
f 508 710 506
f 506 708 508
f 508 708 842
f 845 709 711
f 845 843 709
f 362 846 414
f 414 712 362
f 712 844 362
f 712 710 844
f 397 847 338
f 847 711 338
f 847 845 711
f 713 397 338
f 714 360 414
f 846 714 414
f 848 714 846
f 712 414 360
f 397 340 847
f 541 849 482
f 482 849 713
f 849 340 713
f 340 397 713
f 715 541 482
f 202 850 716
f 202 716 200
f 200 714 202
f 202 714 848
f 541 484 849
f 675 851 622
f 622 851 715
f 851 484 715
f 484 541 715
f 750 805 675
f 750 675 622
f 886 943 805
f 886 805 750
f 1026 852 943
f 886 1026 943
f 1024 1026 886
f 38 1026 1024
f 38 40 1026
f 38 716 40
f 40 716 850
f 675 624 851
f 624 675 752
f 752 675 805
f 752 805 888
f 888 805 943
f 943 852 888
f 853 767 717
f 717 767 765
f 767 901 765
f 903 901 767
f 903 1039 901
f 1041 1039 903
f 718 1039 81
f 1039 55 81
f 1039 1041 55
f 55 854 81
f 855 639 719
f 719 639 637
f 717 637 639
f 717 639 853
f 81 53 718
f 854 217 245
f 854 245 720
f 81 854 720
f 53 81 720
f 217 856 245
f 857 719 721
f 857 855 719
f 245 215 720
f 245 856 215
f 856 722 215
f 856 858 722
f 859 721 723
f 859 857 721
f 722 860 724
f 858 860 722
f 861 723 725
f 861 859 723
f 724 862 726
f 860 862 724
f 863 725 727
f 863 861 725
f 726 864 728
f 862 864 726
f 727 638 863
f 863 638 640
f 865 640 638
f 865 638 729
f 56 866 94
f 56 94 730
f 216 56 730
f 218 56 216
f 216 728 218
f 218 728 864
f 729 766 865
f 865 766 768
f 902 768 766
f 902 904 768
f 1040 904 902
f 1040 1042 904
f 866 1042 94
f 1042 54 94
f 1042 1040 54
f 730 94 54
f 945 325 371
f 371 325 515
f 515 325 469
f 515 469 649
f 649 469 609
f 649 609 779
f 779 609 737
f 737 946 779
f 947 165 225
f 945 371 165
f 165 371 225
f 371 323 225
f 323 807 225
f 515 467 323
f 515 323 371
f 649 607 467
f 649 467 515
f 779 735 607
f 779 607 649
f 946 873 919
f 946 919 808
f 779 946 808
f 735 779 808
f 873 948 919
f 163 809 225
f 809 947 225
f 809 949 947
f 225 807 163
f 919 871 808
f 948 1011 1057
f 948 1057 810
f 919 948 810
f 871 919 810
f 1011 950 1057
f 951 1 69
f 811 69 1
f 949 811 1
f 809 811 949
f 1057 1009 810
f 1057 950 1009
f 950 812 1009
f 950 952 812
f 71 953 69
f 69 953 951
f 69 811 813
f 69 813 71
f 952 25 93
f 814 952 93
f 812 952 814
f 25 954 93
f 73 955 71
f 71 955 953
f 71 813 815
f 71 815 73
f 93 23 814
f 93 954 23
f 954 816 23
f 954 956 816
f 73 2 955
f 237 957 164
f 164 957 815
f 957 2 815
f 2 73 815
f 817 237 164
f 816 958 818
f 956 958 816
f 237 166 957
f 959 166 237
f 817 959 237
f 819 959 817
f 24 99 820
f 24 818 99
f 818 960 99
f 818 958 960
f 389 961 324
f 961 819 324
f 961 959 819
f 821 389 324
f 1010 1069 822
f 99 26 820
f 820 26 1010
f 26 962 1010
f 962 1069 1010
f 99 960 26
f 389 326 961
f 533 963 468
f 468 963 821
f 963 326 821
f 326 389 821
f 608 667 533
f 608 533 468
f 736 797 667
f 736 667 608
f 874 964 797
f 736 874 797
f 872 874 736
f 1069 1012 822
f 1012 872 822
f 1012 874 872
f 1069 962 1012
f 533 470 963
f 470 533 610
f 610 533 667
f 610 667 738
f 738 667 797
f 797 964 738
f 965 485 823
f 823 485 483
f 485 623 483
f 625 623 485
f 625 751 623
f 753 751 625
f 753 887 751
f 889 887 753
f 889 966 887
f 887 966 824
f 967 181 825
f 825 181 179
f 181 339 179
f 341 339 181
f 823 339 341
f 823 341 965
f 1025 824 966
f 1025 966 1027
f 1027 968 1025
f 1025 968 826
f 969 17 827
f 827 17 15
f 825 15 17
f 825 17 967
f 968 41 87
f 828 968 87
f 826 968 828
f 41 970 87
f 971 827 829
f 971 969 827
f 87 39 828
f 87 970 39
f 970 830 39
f 970 972 830
f 973 829 831
f 973 971 829
f 201 830 972
f 201 972 203
f 203 974 201
f 201 974 832
f 975 831 833
f 975 973 831
f 361 832 974
f 361 974 363
f 363 976 361
f 361 976 834
f 977 833 835
f 977 975 833
f 507 834 976
f 507 976 509
f 509 978 507
f 507 978 836
f 979 835 837
f 979 977 835
f 836 980 838
f 978 980 836
f 18 979 80
f 979 839 80
f 979 837 839
f 981 18 80
f 838 982 840
f 980 982 838
f 16 80 839
f 981 80 16
f 841 981 16
f 983 981 841
f 840 984 842
f 982 984 840
f 841 180 983
f 983 180 182
f 985 182 180
f 985 180 843
f 510 986 844
f 510 844 508
f 508 842 510
f 510 842 984
f 987 843 845
f 987 985 843
f 364 988 846
f 364 846 362
f 362 844 364
f 364 844 986
f 989 845 847
f 989 987 845
f 204 990 270
f 270 848 204
f 848 988 204
f 848 846 988
f 847 340 989
f 989 340 342
f 991 342 340
f 991 340 849
f 42 992 110
f 270 990 42
f 270 42 110
f 202 270 110
f 850 202 110
f 848 270 202
f 849 484 991
f 991 484 486
f 993 486 484
f 993 484 851
f 1028 994 852
f 1028 852 1026
f 992 1028 110
f 1028 40 110
f 1028 1026 40
f 850 110 40
f 851 624 993
f 993 624 626
f 752 626 624
f 752 754 626
f 888 754 752
f 888 890 754
f 888 852 890
f 890 852 994
f 995 769 853
f 853 769 767
f 769 903 767
f 905 903 769
f 905 1041 903
f 1043 1041 905
f 1043 55 1041
f 57 55 1043
f 57 996 55
f 55 996 854
f 997 641 855
f 855 641 639
f 853 639 641
f 853 641 995
f 217 854 996
f 217 996 219
f 219 998 217
f 217 998 856
f 999 855 857
f 999 997 855
f 856 1000 858
f 998 1000 856
f 1001 857 859
f 1001 999 857
f 858 1002 860
f 1000 1002 858
f 1003 859 861
f 1003 1001 859
f 860 1004 862
f 1002 1004 860
f 642 1003 656
f 1003 863 656
f 1003 861 863
f 1005 642 656
f 220 1006 254
f 254 864 220
f 864 1004 220
f 864 862 1004
f 640 656 863
f 770 1005 788
f 788 1005 865
f 1005 656 865
f 656 640 865
f 770 788 926
f 770 926 906
f 906 926 1062
f 906 1062 1044
f 1044 1062 866
f 56 1044 866
f 58 1044 56
f 1006 58 254
f 58 218 254
f 58 56 218
f 864 254 218
f 768 788 865
f 904 926 768
f 768 926 788
f 1042 1062 904
f 904 1062 926
f 866 1062 1042
f 1079 327 945
f 945 327 325
f 327 469 325
f 471 469 327
f 471 609 469
f 611 609 471
f 611 737 609
f 739 737 611
f 739 1080 737
f 737 1080 946
f 1081 167 947
f 947 167 165
f 945 165 167
f 945 167 1079
f 873 946 1080
f 873 1080 875
f 875 1082 873
f 873 1082 948
f 1083 3 65
f 949 65 3
f 1081 949 3
f 947 949 1081
f 1011 948 1082
f 1011 1082 1013
f 1013 1084 1011
f 1011 1084 950
f 1 951 65
f 951 1083 65
f 951 1085 1083
f 65 949 1
f 950 1086 952
f 1084 1086 950
f 1087 951 953
f 1087 1085 951
f 25 952 1086
f 25 1086 27
f 27 1088 25
f 25 1088 954
f 1089 953 955
f 1089 1087 953
f 1088 189 257
f 956 1088 257
f 954 1088 956
f 189 1090 257
f 75 1091 2
f 1091 955 2
f 1091 1089 955
f 957 75 2
f 259 958 956
f 259 956 257
f 257 1090 259
f 259 1090 1092
f 75 4 1091
f 239 1093 166
f 166 1093 957
f 1093 4 957
f 4 75 957
f 959 239 166
f 261 960 958
f 261 958 259
f 349 407 1092
f 407 259 1092
f 407 261 259
f 349 1094 407
f 239 168 1093
f 1095 168 239
f 959 1095 239
f 961 1095 959
f 26 101 962
f 101 26 960
f 261 101 960
f 263 101 261
f 261 409 263
f 261 407 409
f 407 1094 409
f 409 1094 1096
f 961 326 1095
f 1095 326 328
f 1097 328 326
f 1097 326 963
f 874 935 964
f 1012 1071 935
f 1012 935 874
f 1071 1012 962
f 101 1071 962
f 103 1071 101
f 101 265 103
f 101 263 265
f 263 411 265
f 263 409 411
f 409 1096 411
f 411 1096 1098
f 963 470 1097
f 1097 470 472
f 610 472 470
f 610 612 472
f 738 612 610
f 738 740 612
f 935 876 964
f 876 738 964
f 876 740 738
f 876 935 1014
f 1014 935 1071
f 1014 1071 28
f 28 1071 103
f 28 103 190
f 190 103 265
f 190 265 350
f 350 265 411
f 411 1098 350
f 514 485 965
f 1099 627 514
f 627 485 514
f 627 625 485
f 627 753 625
f 755 753 627
f 914 889 1100
f 889 755 1100
f 889 753 755
f 914 966 889
f 224 181 967
f 1101 343 224
f 343 181 224
f 343 341 181
f 487 514 965
f 341 487 965
f 343 487 341
f 1099 514 487
f 891 914 1100
f 1027 966 914
f 891 1027 914
f 1029 1027 891
f 1029 1102 1027
f 1027 1102 968
f 64 17 969
f 183 224 967
f 183 967 17
f 1103 183 17
f 64 1103 17
f 1101 224 183
f 41 968 1102
f 41 1102 43
f 43 1104 41
f 41 1104 970
f 64 969 19
f 969 1105 19
f 969 971 1105
f 1103 64 19
f 1104 205 251
f 972 1104 251
f 970 1104 972
f 205 1106 251
f 1107 971 973
f 1107 1105 971
f 251 203 972
f 1106 365 399
f 1106 399 974
f 251 1106 974
f 203 251 974
f 365 1108 399
f 1109 973 975
f 1109 1107 973
f 399 363 974
f 399 1108 363
f 1108 976 363
f 1108 1110 976
f 1111 975 977
f 1111 1109 975
f 509 976 1110
f 509 1110 511
f 511 1112 509
f 509 1112 978
f 20 1111 78
f 1111 979 78
f 1111 977 979
f 1113 20 78
f 978 1114 980
f 1112 1114 978
f 18 78 979
f 184 1113 242
f 242 1113 981
f 1113 78 981
f 78 18 981
f 1115 184 242
f 980 1116 982
f 1114 1116 980
f 983 244 981
f 981 244 242
f 1115 242 244
f 1115 244 1117
f 512 1118 550
f 550 984 512
f 984 1116 512
f 984 982 1116
f 182 244 983
f 1117 244 182
f 985 1117 182
f 1119 1117 985
f 366 1120 412
f 550 1118 366
f 550 366 412
f 510 550 412
f 986 510 412
f 984 550 510
f 1121 985 987
f 1121 1119 985
f 988 364 412
f 1120 988 412
f 1122 988 1120
f 986 412 364
f 344 1121 398
f 1121 989 398
f 1121 987 989
f 1123 344 398
f 206 1124 990
f 206 990 204
f 204 988 206
f 206 988 1122
f 342 398 989
f 488 1123 542
f 542 1123 991
f 1123 398 991
f 398 342 991
f 1125 488 542
f 44 1126 992
f 44 992 42
f 42 990 44
f 44 990 1124
f 486 542 991
f 628 1125 676
f 676 1125 993
f 1125 542 993
f 542 486 993
f 628 676 806
f 628 806 756
f 756 806 944
f 756 944 892
f 892 944 994
f 1028 892 994
f 1030 892 1028
f 1028 992 1030
f 1030 992 1126
f 626 676 993
f 754 806 626
f 626 806 676
f 890 944 754
f 754 944 806
f 994 944 890
f 776 769 995
f 912 905 776
f 776 905 769
f 1050 1043 912
f 912 1043 905
f 82 57 1050
f 1050 57 1043
f 82 996 57
f 648 641 997
f 771 776 995
f 771 995 641
f 1127 771 641
f 648 1127 641
f 776 771 907
f 776 907 912
f 912 907 1045
f 912 1045 1050
f 1050 1045 59
f 1050 59 82
f 1128 246 219
f 1128 219 996
f 59 1128 996
f 82 59 996
f 246 998 219
f 648 997 643
f 997 1129 643
f 997 999 1129
f 1127 648 643
f 221 246 1128
f 221 1130 246
f 1130 998 246
f 1130 1000 998
f 1131 999 1001
f 1131 1129 999
f 1000 1132 1002
f 1130 1132 1000
f 644 1131 654
f 1131 1003 654
f 1131 1001 1003
f 1133 644 654
f 222 1134 252
f 252 1004 222
f 1004 1132 222
f 1004 1002 1132
f 642 654 1003
f 772 1133 786
f 786 1133 1005
f 1133 654 1005
f 654 642 1005
f 772 786 924
f 772 924 908
f 908 924 1060
f 908 1060 1046
f 1046 1060 92
f 1046 92 60
f 252 1134 60
f 252 60 92
f 220 252 92
f 1006 220 92
f 1004 252 220
f 770 786 1005
f 906 924 770
f 770 924 786
f 1044 1060 906
f 906 1060 924
f 58 92 1044
f 1044 92 1060
f 1006 92 58
f 372 327 1079
f 111 473 372
f 473 327 372
f 473 471 327
f 473 611 471
f 613 611 473
f 613 739 611
f 741 739 613
f 741 112 739
f 739 112 1080
f 113 169 1081
f 1081 169 167
f 329 372 1079
f 167 329 1079
f 169 329 167
f 111 372 329
f 875 1080 112
f 875 112 877
f 877 114 875
f 875 114 1082
f 115 5 1083
f 1083 5 3
f 1081 3 5
f 1081 5 113
f 1013 1082 114
f 1013 114 1015
f 1015 116 1013
f 1013 116 1084
f 117 1083 1085
f 117 115 1083
f 116 29 91
f 1086 116 91
f 1084 116 1086
f 29 118 91
f 119 1085 1087
f 119 117 1085
f 91 27 1086
f 91 118 27
f 118 1088 27
f 118 120 1088
f 121 1087 1089
f 121 119 1087
f 189 1088 120
f 189 120 191
f 191 122 189
f 189 122 1090
f 123 1089 1091
f 123 121 1089
f 122 351 405
f 1092 122 405
f 1090 122 1092
f 351 124 405
f 1091 4 123
f 123 4 6
f 125 6 4
f 125 4 1093
f 405 349 1092
f 124 497 547
f 124 547 1094
f 405 124 1094
f 349 405 1094
f 497 126 547
f 1093 168 125
f 125 168 170
f 168 1095 390
f 330 168 390
f 170 168 330
f 127 330 390
f 549 1096 1094
f 549 1094 547
f 547 126 549
f 549 126 128
f 328 390 1095
f 474 127 534
f 534 127 1097
f 127 390 1097
f 390 328 1097
f 129 474 534
f 551 1098 1096
f 551 1096 549
f 549 128 551
f 551 128 130
f 472 534 1097
f 534 472 129
f 472 614 129
f 472 612 614
f 740 614 612
f 740 742 614
f 876 937 131
f 742 876 131
f 740 876 742
f 1014 1073 937
f 1014 937 876
f 28 105 1073
f 28 1073 1014
f 190 267 105
f 190 105 28
f 350 413 267
f 350 267 190
f 551 498 1098
f 1098 498 350
f 498 132 350
f 132 413 350
f 551 130 498
f 937 878 131
f 878 937 1016
f 1016 937 1073
f 1016 1073 30
f 30 1073 105
f 30 105 192
f 192 105 267
f 192 267 352
f 352 267 413
f 413 132 352
f 646 627 1099
f 133 757 646
f 757 627 646
f 757 755 627
f 1100 755 915
f 755 893 915
f 755 757 893
f 893 134 915
f 374 343 1101
f 135 489 374
f 489 343 374
f 489 487 343
f 629 646 1099
f 487 629 1099
f 489 629 487
f 133 646 629
f 915 891 1100
f 891 915 134
f 1031 891 134
f 1029 891 1031
f 1031 136 1029
f 1029 136 1102
f 228 183 1103
f 345 374 1101
f 345 1101 183
f 137 345 183
f 228 137 183
f 135 374 345
f 43 1102 136
f 43 136 45
f 45 138 43
f 43 138 1104
f 68 19 1105
f 185 228 1103
f 185 1103 19
f 139 185 19
f 68 139 19
f 137 228 185
f 205 1104 138
f 205 138 207
f 207 140 205
f 205 140 1106
f 68 1105 21
f 1105 141 21
f 1105 1107 141
f 139 68 21
f 365 1106 140
f 365 140 367
f 367 142 365
f 365 142 1108
f 143 1107 1109
f 143 141 1107
f 1108 144 1110
f 142 144 1108
f 22 143 74
f 143 1111 74
f 143 1109 1111
f 145 22 74
f 146 544 511
f 1110 146 511
f 144 146 1110
f 544 1112 511
f 20 74 1111
f 186 145 238
f 238 145 1113
f 145 74 1113
f 74 20 1113
f 147 186 238
f 148 546 544
f 148 544 146
f 1112 544 1114
f 1114 544 546
f 184 238 1113
f 346 147 388
f 388 147 1115
f 147 238 1115
f 238 184 1115
f 149 346 388
f 150 548 546
f 150 546 148
f 1114 546 1116
f 1116 546 548
f 1117 392 1115
f 1115 392 388
f 149 388 392
f 149 392 151
f 368 152 410
f 548 150 368
f 548 368 410
f 512 548 410
f 1118 512 410
f 1116 548 512
f 1119 394 1117
f 1117 394 392
f 151 392 394
f 151 394 153
f 1120 366 410
f 152 1120 410
f 154 1120 152
f 1118 410 366
f 1121 396 1119
f 1119 396 394
f 153 394 396
f 153 396 155
f 208 156 268
f 268 1122 208
f 1122 154 208
f 1122 1120 154
f 344 396 1121
f 490 155 540
f 540 155 1123
f 155 396 1123
f 396 344 1123
f 157 490 540
f 46 158 108
f 268 156 46
f 268 46 108
f 206 268 108
f 1124 206 108
f 1122 268 206
f 488 540 1123
f 630 157 674
f 674 157 1125
f 157 540 1125
f 540 488 1125
f 630 674 804
f 630 804 758
f 758 804 942
f 758 942 894
f 894 942 1078
f 894 1078 1032
f 108 158 1032
f 108 1032 1078
f 44 108 1078
f 1126 44 1078
f 1124 108 44
f 628 674 1125
f 756 804 628
f 628 804 674
f 892 942 756
f 756 942 804
f 1030 1078 892
f 892 1078 942
f 1126 1078 1030
f 778 771 1127
f 916 907 778
f 778 907 771
f 1052 1045 916
f 916 1045 907
f 84 59 1052
f 1052 59 1045
f 84 1128 59
f 650 643 1129
f 773 778 1127
f 773 1127 643
f 159 773 643
f 650 159 643
f 778 773 909
f 778 909 916
f 916 909 1047
f 916 1047 1052
f 1052 1047 61
f 1052 61 84
f 160 248 221
f 160 221 1128
f 61 160 1128
f 84 61 1128
f 248 1130 221
f 1131 652 1129
f 1129 652 650
f 159 650 652
f 159 652 161
f 162 250 248
f 162 248 160
f 1130 248 1132
f 1132 248 250
f 644 652 1131
f 774 161 784
f 784 161 1133
f 161 652 1133
f 652 644 1133
f 774 784 922
f 774 922 910
f 910 922 1058
f 910 1058 1048
f 1048 1058 90
f 1048 90 62
f 250 162 62
f 250 62 90
f 222 250 90
f 1134 222 90
f 1132 250 222
f 772 784 1133
f 908 922 772
f 772 922 784
f 1046 1058 908
f 908 1058 922
f 60 90 1046
f 1046 90 1058
f 1134 90 60
