# Converted from NanoShaper .vert/.face
v 13.111000 2.446000 -18.017000
v 15.106000 2.446000 -18.017000
v 12.591000 2.446000 -17.517000
v 15.385000 2.446000 -17.517000
v 12.317000 2.446000 -17.017000
v 15.562000 2.446000 -17.017000
v 11.880000 2.446000 -16.517000
v 15.586000 2.446000 -16.517000
v 11.525000 2.446000 -16.017000
v 15.619000 2.446000 -16.017000
v 11.052000 2.446000 -15.517000
v 15.635000 2.446000 -15.517000
v 10.398000 2.446000 -15.017000
v 15.458000 2.446000 -15.017000
v 9.642000 2.446000 -14.517000
v 14.950000 2.446000 -14.517000
v 9.607000 2.446000 -14.017000
v 11.449000 2.446000 -14.017000
v 9.615000 2.446000 -13.517000
v 11.330000 2.446000 -13.517000
v 9.763000 2.446000 -14.719000
v 9.763000 2.446000 -13.268000
v 10.263000 2.446000 -14.972000
v 10.263000 2.446000 -13.036000
v 10.763000 2.446000 -15.318000
v 10.763000 2.446000 -13.106000
v 11.263000 2.446000 -15.753000
v 11.263000 2.446000 -13.384000
v 11.763000 2.446000 -16.355000
v 11.763000 2.446000 -14.307000
v 12.263000 2.446000 -16.938000
v 12.263000 2.446000 -14.416000
v 12.763000 2.446000 -17.745000
v 12.763000 2.446000 -14.334000
v 13.263000 2.446000 -18.091000
v 13.263000 2.446000 -14.255000
v 13.763000 2.446000 -18.324000
v 13.763000 2.446000 -14.314000
v 14.263000 2.446000 -18.421000
v 14.263000 2.446000 -14.333000
v 14.763000 2.446000 -18.291000
v 14.763000 2.446000 -14.428000
v 15.263000 2.446000 -17.781000
v 15.263000 2.446000 -14.760000
v 9.263000 3.912000 -15.517000
v 9.263000 4.567000 -15.517000
v 9.763000 3.313000 -15.517000
v 9.763000 4.990000 -15.517000
v 10.263000 2.867000 -15.517000
v 10.263000 5.351000 -15.517000
v 10.763000 2.548000 -15.517000
v 10.763000 5.750000 -15.517000
v 11.263000 2.376000 -15.517000
v 11.263000 5.851000 -15.517000
v 11.763000 2.171000 -15.517000
v 11.763000 5.913000 -15.517000
v 12.263000 1.757000 -15.517000
v 12.263000 5.833000 -15.517000
v 12.763000 1.102000 -15.517000
v 12.763000 5.612000 -15.517000
v 13.263000 0.622000 -15.517000
v 13.263000 5.298000 -15.517000
v 13.763000 0.498000 -15.517000
v 13.763000 4.858000 -15.517000
v 14.263000 0.599000 -15.517000
v 14.263000 4.091000 -15.517000
v 14.763000 0.908000 -15.517000
v 14.763000 3.598000 -15.517000
v 15.263000 1.271000 -15.517000
v 15.263000 3.195000 -15.517000
v 10.763000 3.717000 -11.517000
v 10.763000 5.654000 -11.517000
v 11.263000 3.417000 -11.517000
v 11.263000 5.996000 -11.517000
v 11.763000 3.311000 -11.517000
v 11.763000 6.095000 -11.517000
v 12.263000 3.404000 -11.517000
v 12.263000 6.006000 -11.517000
v 12.763000 3.737000 -11.517000
v 12.763000 5.681000 -11.517000
v 13.667000 2.946000 -18.517000
v 14.784000 2.946000 -18.517000
v 12.825000 2.946000 -18.017000
v 15.372000 2.946000 -18.017000
v 12.445000 2.946000 -17.517000
v 15.574000 2.946000 -17.517000
v 12.046000 2.946000 -17.017000
v 15.597000 2.946000 -17.017000
v 11.340000 2.946000 -16.517000
v 15.575000 2.946000 -16.517000
v 10.804000 2.946000 -16.017000
v 15.485000 2.946000 -16.017000
v 10.160000 2.946000 -15.517000
v 15.454000 2.946000 -15.517000
v 9.352000 2.946000 -15.017000
v 15.245000 2.946000 -15.017000
v 9.115000 2.946000 -14.517000
v 14.457000 2.946000 -14.517000
v 9.095000 2.946000 -14.017000
v 13.135000 2.946000 -14.017000
v 9.102000 2.946000 -13.517000
v 12.642000 2.946000 -13.517000
v 9.326000 2.946000 -13.017000
v 12.425000 2.946000 -13.017000
v 10.827000 2.946000 -12.517000
v 12.318000 2.946000 -12.517000
v 9.263000 2.946000 -14.888000
v 9.263000 2.946000 -13.109000
v 9.763000 2.946000 -15.347000
v 9.763000 2.946000 -12.660000
v 10.263000 2.946000 -15.580000
v 10.263000 2.946000 -12.537000
v 10.763000 2.946000 -15.975000
v 10.763000 2.946000 -12.527000
v 11.263000 2.946000 -16.430000
v 11.263000 2.946000 -12.398000
v 11.763000 2.946000 -16.833000
v 11.763000 2.946000 -12.201000
v 12.263000 2.946000 -17.228000
v 12.263000 2.946000 -12.429000
v 12.763000 2.946000 -17.949000
v 12.763000 2.946000 -13.688000
v 13.263000 2.946000 -18.342000
v 13.263000 2.946000 -14.094000
v 13.763000 2.946000 -18.554000
v 13.763000 2.946000 -14.311000
v 14.263000 2.946000 -18.635000
v 14.263000 2.946000 -14.459000
v 14.763000 2.946000 -18.526000
v 14.763000 2.946000 -14.622000
v 15.263000 2.946000 -18.162000
v 15.263000 2.946000 -15.042000
v 12.763000 4.266000 -19.017000
v 12.763000 5.142000 -19.017000
v 13.263000 4.065000 -19.017000
v 13.263000 5.342000 -19.017000
v 13.763000 4.351000 -19.017000
v 13.763000 5.056000 -19.017000
v 8.763000 3.685000 -15.017000
v 8.763000 4.795000 -15.017000
v 9.263000 3.079000 -15.017000
v 9.263000 5.291000 -15.017000
v 9.763000 2.603000 -15.017000
v 9.763000 5.457000 -15.017000
v 10.263000 2.470000 -15.017000
v 10.263000 5.737000 -15.017000
v 10.763000 2.358000 -15.017000
v 10.763000 5.962000 -15.017000
v 11.263000 2.274000 -15.017000
v 11.263000 6.049000 -15.017000
v 11.763000 2.184000 -15.017000
v 11.763000 6.111000 -15.017000
v 12.263000 1.968000 -15.017000
v 12.263000 6.033000 -15.017000
v 12.763000 1.528000 -15.017000
v 12.763000 5.723000 -15.017000
v 13.263000 1.127000 -15.017000
v 13.263000 5.206000 -15.017000
v 13.763000 1.005000 -15.017000
v 13.763000 4.720000 -15.017000
v 14.263000 1.014000 -15.017000
v 14.263000 3.878000 -15.017000
v 14.763000 1.129000 -15.017000
v 14.763000 3.348000 -15.017000
v 15.263000 1.546000 -15.017000
v 15.263000 2.920000 -15.017000
v 10.763000 4.043000 -11.017000
v 10.763000 5.375000 -11.017000
v 11.263000 3.611000 -11.017000
v 11.263000 5.807000 -11.017000
v 11.763000 3.497000 -11.017000
v 11.763000 5.921000 -11.017000
v 12.263000 3.599000 -11.017000
v 12.263000 5.819000 -11.017000
v 12.763000 4.005000 -11.017000
v 12.763000 5.413000 -11.017000
v 13.022000 3.446000 -18.517000
v 14.817000 3.446000 -18.517000
v 12.371000 3.446000 -18.017000
v 15.389000 3.446000 -18.017000
v 12.098000 3.446000 -17.517000
v 15.588000 3.446000 -17.517000
v 11.670000 3.446000 -17.017000
v 15.589000 3.446000 -17.017000
v 11.092000 3.446000 -16.517000
v 15.417000 3.446000 -16.517000
v 10.482000 3.446000 -16.017000
v 15.170000 3.446000 -16.017000
v 9.683000 3.446000 -15.517000
v 14.946000 3.446000 -15.517000
v 8.930000 3.446000 -15.017000
v 14.631000 3.446000 -15.017000
v 8.682000 3.446000 -14.517000
v 14.082000 3.446000 -14.517000
v 8.684000 3.446000 -14.017000
v 13.438000 3.446000 -14.017000
v 8.877000 3.446000 -13.517000
v 13.098000 3.446000 -13.517000
v 9.113000 3.446000 -13.017000
v 12.982000 3.446000 -13.017000
v 9.651000 3.446000 -12.517000
v 12.936000 3.446000 -12.517000
v 10.591000 3.446000 -12.017000
v 12.688000 3.446000 -12.017000
v 11.199000 3.446000 -11.517000
v 12.358000 3.446000 -11.517000
v 8.763000 3.446000 -14.755000
v 8.763000 3.446000 -13.783000
v 9.263000 3.446000 -15.292000
v 9.263000 3.446000 -12.819000
v 9.763000 3.446000 -15.565000
v 9.763000 3.446000 -12.450000
v 10.263000 3.446000 -15.879000
v 10.263000 3.446000 -12.161000
v 10.763000 3.446000 -16.244000
v 10.763000 3.446000 -11.927000
v 11.263000 3.446000 -16.693000
v 11.263000 3.446000 -11.401000
v 11.763000 3.446000 -17.098000
v 11.763000 3.446000 -11.115000
v 12.263000 3.446000 -17.858000
v 12.263000 3.446000 -11.362000
v 12.763000 3.446000 -18.351000
v 12.763000 3.446000 -12.124000
v 13.263000 3.446000 -18.601000
v 13.263000 3.446000 -13.817000
v 13.763000 3.446000 -18.670000
v 13.763000 3.446000 -14.281000
v 14.263000 3.446000 -18.657000
v 14.263000 3.446000 -14.666000
v 14.763000 3.446000 -18.541000
v 14.763000 3.446000 -15.164000
v 15.263000 3.446000 -18.184000
v 15.263000 3.446000 -16.192000
v 12.263000 4.017000 -18.517000
v 12.263000 5.390000 -18.517000
v 12.763000 3.603000 -18.517000
v 12.763000 5.793000 -18.517000
v 13.263000 3.285000 -18.517000
v 13.263000 5.888000 -18.517000
v 13.763000 2.813000 -18.517000
v 13.763000 5.762000 -18.517000
v 14.263000 2.608000 -18.517000
v 14.263000 5.283000 -18.517000
v 14.763000 2.908000 -18.517000
v 14.763000 3.560000 -18.517000
v 8.763000 3.343000 -14.517000
v 8.763000 5.137000 -14.517000
v 9.263000 2.746000 -14.517000
v 9.263000 5.505000 -14.517000
v 9.763000 2.388000 -14.517000
v 9.763000 5.666000 -14.517000
v 10.263000 2.282000 -14.517000
v 10.263000 5.933000 -14.517000
v 10.763000 2.310000 -14.517000
v 10.763000 6.046000 -14.517000
v 11.263000 2.298000 -14.517000
v 11.263000 6.067000 -14.517000
v 11.763000 2.344000 -14.517000
v 11.763000 6.113000 -14.517000
v 12.263000 2.352000 -14.517000
v 12.263000 6.036000 -14.517000
v 12.763000 2.208000 -14.517000
v 12.763000 5.727000 -14.517000
v 13.263000 1.724000 -14.517000
v 13.263000 5.189000 -14.517000
v 13.763000 1.545000 -14.517000
v 13.763000 4.413000 -14.517000
v 14.263000 1.517000 -14.517000
v 14.263000 3.117000 -14.517000
v 14.763000 1.717000 -14.517000
v 14.763000 2.749000 -14.517000
v 11.263000 4.204000 -10.517000
v 11.263000 5.214000 -10.517000
v 11.763000 3.989000 -10.517000
v 11.763000 5.429000 -10.517000
v 12.263000 4.179000 -10.517000
v 12.263000 5.240000 -10.517000
v 12.318000 3.946000 -18.517000
v 14.524000 3.946000 -18.517000
v 12.068000 3.946000 -18.017000
v 15.170000 3.946000 -18.017000
v 11.904000 3.946000 -17.517000
v 15.406000 3.946000 -17.517000
v 11.562000 3.946000 -17.017000
v 15.407000 3.946000 -17.017000
v 11.050000 3.946000 -16.517000
v 15.173000 3.946000 -16.517000
v 10.114000 3.946000 -16.017000
v 14.692000 3.946000 -16.017000
v 9.244000 3.946000 -15.517000
v 14.380000 3.946000 -15.517000
v 8.661000 3.946000 -15.017000
v 14.222000 3.946000 -15.017000
v 8.462000 3.946000 -14.517000
v 13.953000 3.946000 -14.517000
v 8.463000 3.946000 -14.017000
v 13.513000 3.946000 -14.017000
v 8.665000 3.946000 -13.517000
v 13.251000 3.946000 -13.517000
v 9.100000 3.946000 -13.017000
v 13.167000 3.946000 -13.017000
v 9.550000 3.946000 -12.517000
v 13.146000 3.946000 -12.517000
v 10.089000 3.946000 -12.017000
v 13.005000 3.946000 -12.017000
v 10.563000 3.946000 -11.517000
v 12.932000 3.946000 -11.517000
v 10.834000 3.946000 -11.017000
v 12.717000 3.946000 -11.017000
v 8.763000 3.946000 -15.153000
v 8.763000 3.946000 -13.387000
v 9.263000 3.946000 -15.525000
v 9.263000 3.946000 -12.808000
v 9.763000 3.946000 -15.771000
v 9.763000 3.946000 -12.272000
v 10.263000 3.946000 -16.084000
v 10.263000 3.946000 -11.874000
v 10.763000 3.946000 -16.296000
v 10.763000 3.946000 -11.125000
v 11.263000 3.946000 -16.746000
v 11.263000 3.946000 -10.662000
v 11.763000 3.946000 -17.255000
v 11.763000 3.946000 -10.544000
v 12.263000 3.946000 -18.444000
v 12.263000 3.946000 -10.650000
v 12.763000 3.946000 -18.852000
v 12.763000 3.946000 -11.083000
v 13.263000 3.946000 -18.948000
v 13.263000 3.946000 -13.554000
v 13.763000 3.946000 -18.849000
v 13.763000 3.946000 -14.287000
v 14.263000 3.946000 -18.654000
v 14.263000 3.946000 -15.119000
v 14.763000 3.946000 -18.368000
v 14.763000 3.946000 -16.107000
v 15.263000 3.946000 -17.883000
v 15.263000 3.946000 -16.647000
v 12.263000 3.600000 -18.017000
v 12.263000 5.687000 -18.017000
v 12.763000 3.038000 -18.017000
v 12.763000 6.001000 -18.017000
v 13.263000 2.211000 -18.017000
v 13.263000 6.081000 -18.017000
v 13.763000 1.994000 -18.017000
v 13.763000 5.974000 -18.017000
v 14.263000 2.032000 -18.017000
v 14.263000 5.615000 -18.017000
v 14.763000 2.180000 -18.017000
v 14.763000 4.477000 -18.017000
v 15.263000 2.666000 -18.017000
v 15.263000 3.802000 -18.017000
v 8.763000 3.344000 -14.017000
v 8.763000 5.135000 -14.017000
v 9.263000 2.721000 -14.017000
v 9.263000 5.504000 -14.017000
v 9.763000 2.370000 -14.017000
v 9.763000 5.707000 -14.017000
v 10.263000 2.266000 -14.017000
v 10.263000 5.988000 -14.017000
v 10.763000 2.316000 -14.017000
v 10.763000 6.097000 -14.017000
v 11.263000 2.388000 -14.017000
v 11.263000 6.085000 -14.017000
v 11.763000 2.561000 -14.017000
v 11.763000 6.061000 -14.017000
v 12.263000 2.723000 -14.017000
v 12.263000 5.969000 -14.017000
v 12.763000 2.753000 -14.017000
v 12.763000 5.637000 -14.017000
v 13.263000 3.118000 -14.017000
v 13.263000 4.954000 -14.017000
v 13.146000 0.446000 -16.517000
v 14.428000 0.446000 -16.517000
v 13.160000 0.446000 -16.017000
v 14.414000 0.446000 -16.017000
v 12.643000 4.446000 -19.017000
v 13.814000 4.446000 -19.017000
v 12.072000 4.446000 -18.517000
v 14.427000 4.446000 -18.517000
v 11.875000 4.446000 -18.017000
v 14.779000 4.446000 -18.017000
v 11.774000 4.446000 -17.517000
v 14.950000 4.446000 -17.517000
v 11.508000 4.446000 -17.017000
v 14.926000 4.446000 -17.017000
v 11.055000 4.446000 -16.517000
v 14.662000 4.446000 -16.517000
v 10.110000 4.446000 -16.017000
v 14.211000 4.446000 -16.017000
v 9.206000 4.446000 -15.517000
v 14.026000 4.446000 -15.517000
v 8.642000 4.446000 -15.017000
v 13.978000 4.446000 -15.017000
v 8.446000 4.446000 -14.517000
v 13.743000 4.446000 -14.517000
v 8.447000 4.446000 -14.017000
v 13.447000 4.446000 -14.017000
v 8.646000 4.446000 -13.517000
v 13.228000 4.446000 -13.517000
v 9.097000 4.446000 -13.017000
v 13.174000 4.446000 -13.017000
v 9.556000 4.446000 -12.517000
v 13.162000 4.446000 -12.517000
v 10.038000 4.446000 -12.017000
v 13.132000 4.446000 -12.017000
v 10.379000 4.446000 -11.517000
v 13.136000 4.446000 -11.517000
v 10.592000 4.446000 -11.017000
v 12.959000 4.446000 -11.017000
v 11.105000 4.446000 -10.517000
v 12.446000 4.446000 -10.517000
v 13.263000 0.446000 -16.721000
v 13.263000 0.446000 -15.850000
v 13.763000 0.446000 -16.967000
v 13.763000 0.446000 -15.604000
v 14.263000 0.446000 -16.774000
v 14.263000 0.446000 -15.797000
v 8.763000 4.446000 -15.178000
v 8.763000 4.446000 -13.362000
v 9.263000 4.446000 -15.543000
v 9.263000 4.446000 -12.805000
v 9.763000 4.446000 -15.778000
v 9.763000 4.446000 -12.273000
v 10.263000 4.446000 -16.086000
v 10.263000 4.446000 -11.730000
v 10.763000 4.446000 -16.291000
v 10.763000 4.446000 -10.788000
v 11.263000 4.446000 -16.747000
v 11.263000 4.446000 -10.442000
v 11.763000 4.446000 -17.483000
v 11.763000 4.446000 -10.343000
v 12.263000 4.446000 -18.751000
v 12.263000 4.446000 -10.432000
v 12.763000 4.446000 -19.066000
v 12.763000 4.446000 -10.760000
v 13.263000 4.446000 -19.147000
v 13.263000 4.446000 -13.633000
v 13.763000 4.446000 -19.040000
v 13.763000 4.446000 -14.547000
v 14.263000 4.446000 -18.689000
v 14.263000 4.446000 -16.094000
v 14.763000 4.446000 -18.048000
v 14.763000 4.446000 -16.657000
v 12.263000 3.238000 -17.517000
v 12.263000 5.684000 -17.517000
v 12.763000 2.035000 -17.517000
v 12.763000 5.999000 -17.517000
v 13.263000 1.258000 -17.517000
v 13.263000 6.080000 -17.517000
v 13.763000 1.003000 -17.517000
v 13.763000 5.972000 -17.517000
v 14.263000 1.202000 -17.517000
v 14.263000 5.613000 -17.517000
v 14.763000 1.657000 -17.517000
v 14.763000 4.680000 -17.517000
v 15.263000 2.200000 -17.517000
v 15.263000 4.142000 -17.517000
v 8.763000 3.692000 -13.517000
v 8.763000 4.787000 -13.517000
v 9.263000 2.727000 -13.517000
v 9.263000 5.301000 -13.517000
v 9.763000 2.374000 -13.517000
v 9.763000 5.651000 -13.517000
v 10.263000 2.270000 -13.517000
v 10.263000 5.988000 -13.517000
v 10.763000 2.313000 -13.517000
v 10.763000 6.097000 -13.517000
v 11.263000 2.416000 -13.517000
v 11.263000 6.084000 -13.517000
v 11.763000 2.686000 -13.517000
v 11.763000 6.101000 -13.517000
v 12.263000 2.826000 -13.517000
v 12.263000 6.014000 -13.517000
v 12.763000 3.020000 -13.517000
v 12.763000 5.687000 -13.517000
v 12.837000 0.946000 -17.017000
v 14.737000 0.946000 -17.017000
v 12.611000 0.946000 -16.517000
v 14.963000 0.946000 -16.517000
v 12.618000 0.946000 -16.017000
v 14.967000 0.946000 -16.017000
v 12.867000 0.946000 -15.517000
v 14.821000 0.946000 -15.517000
v 12.637000 4.946000 -19.017000
v 13.821000 4.946000 -19.017000
v 12.069000 4.946000 -18.517000
v 14.389000 4.946000 -18.517000
v 11.872000 4.946000 -18.017000
v 14.588000 4.946000 -18.017000
v 11.828000 4.946000 -17.517000
v 14.613000 4.946000 -17.517000
v 11.684000 4.946000 -17.017000
v 14.474000 4.946000 -17.017000
v 11.320000 4.946000 -16.517000
v 14.198000 4.946000 -16.517000
v 10.638000 4.946000 -16.017000
v 13.897000 4.946000 -16.017000
v 9.696000 4.946000 -15.517000
v 13.683000 4.946000 -15.517000
v 8.858000 4.946000 -15.017000
v 13.512000 4.946000 -15.017000
v 8.625000 4.946000 -14.517000
v 13.453000 4.946000 -14.517000
v 8.626000 4.946000 -14.017000
v 13.267000 4.946000 -14.017000
v 8.862000 4.946000 -13.517000
v 13.169000 4.946000 -13.517000
v 9.320000 4.946000 -13.017000
v 13.151000 4.946000 -13.017000
v 9.656000 4.946000 -12.517000
v 13.122000 4.946000 -12.517000
v 10.132000 4.946000 -12.017000
v 13.128000 4.946000 -12.017000
v 10.399000 4.946000 -11.517000
v 13.141000 4.946000 -11.517000
v 10.587000 4.946000 -11.017000
v 12.964000 4.946000 -11.017000
v 11.095000 4.946000 -10.517000
v 12.456000 4.946000 -10.517000
v 12.763000 0.946000 -16.908000
v 12.763000 0.946000 -15.662000
v 13.263000 0.946000 -17.364000
v 13.263000 0.946000 -15.201000
v 13.763000 0.946000 -17.484000
v 13.763000 0.946000 -15.071000
v 14.263000 0.946000 -17.386000
v 14.263000 0.946000 -15.107000
v 14.763000 0.946000 -16.982000
v 14.763000 0.946000 -15.422000
v 8.763000 4.946000 -14.877000
v 8.763000 4.946000 -13.663000
v 9.263000 4.946000 -15.349000
v 9.263000 4.946000 -13.098000
v 9.763000 4.946000 -15.551000
v 9.763000 4.946000 -12.385000
v 10.263000 4.946000 -15.877000
v 10.263000 4.946000 -11.826000
v 10.763000 4.946000 -16.071000
v 10.763000 4.946000 -10.781000
v 11.263000 4.946000 -16.451000
v 11.263000 4.946000 -10.437000
v 11.763000 4.946000 -17.216000
v 11.763000 4.946000 -10.338000
v 12.263000 4.946000 -18.756000
v 12.263000 4.946000 -10.426000
v 12.763000 4.946000 -19.069000
v 12.763000 4.946000 -10.753000
v 13.263000 4.946000 -19.150000
v 13.263000 4.946000 -14.003000
v 13.763000 4.946000 -19.043000
v 13.763000 4.946000 -15.667000
v 14.263000 4.946000 -18.684000
v 14.263000 4.946000 -16.601000
v 11.763000 3.274000 -17.017000
v 11.763000 5.068000 -17.017000
v 12.263000 2.560000 -17.017000
v 12.263000 5.550000 -17.017000
v 12.763000 1.056000 -17.017000
v 12.763000 5.804000 -17.017000
v 13.263000 0.596000 -17.017000
v 13.263000 5.882000 -17.017000
v 13.763000 0.475000 -17.017000
v 13.763000 5.755000 -17.017000
v 14.263000 0.573000 -17.017000
v 14.263000 5.275000 -17.017000
v 14.763000 0.980000 -17.017000
v 14.763000 4.620000 -17.017000
v 15.263000 1.802000 -17.017000
v 15.263000 4.143000 -17.017000
v 9.263000 3.042000 -13.017000
v 9.263000 4.860000 -13.017000
v 9.763000 2.579000 -13.017000
v 9.763000 5.582000 -13.017000
v 10.263000 2.457000 -13.017000
v 10.263000 5.928000 -13.017000
v 10.763000 2.494000 -13.017000
v 10.763000 6.028000 -13.017000
v 11.263000 2.605000 -13.017000
v 11.263000 6.069000 -13.017000
v 11.763000 2.766000 -13.017000
v 11.763000 6.130000 -13.017000
v 12.263000 2.875000 -13.017000
v 12.263000 6.039000 -13.017000
v 12.763000 3.178000 -13.017000
v 12.763000 5.715000 -13.017000
v 13.143000 1.446000 -17.517000
v 14.501000 1.446000 -17.517000
v 12.614000 1.446000 -17.017000
v 15.008000 1.446000 -17.017000
v 12.423000 1.446000 -16.517000
v 15.186000 1.446000 -16.517000
v 12.401000 1.446000 -16.017000
v 15.384000 1.446000 -16.017000
v 12.539000 1.446000 -15.517000
v 15.405000 1.446000 -15.517000
v 12.829000 1.446000 -15.017000
v 15.185000 1.446000 -15.017000
v 12.305000 5.446000 -18.517000
v 14.153000 5.446000 -18.517000
v 12.067000 5.446000 -18.017000
v 14.390000 5.446000 -18.017000
v 12.067000 5.446000 -17.517000
v 14.388000 5.446000 -17.517000
v 12.120000 5.446000 -17.017000
v 14.145000 5.446000 -17.017000
v 12.029000 5.446000 -16.517000
v 13.601000 5.446000 -16.517000
v 11.374000 5.446000 -16.017000
v 13.250000 5.446000 -16.017000
v 10.350000 5.446000 -15.517000
v 13.049000 5.446000 -15.517000
v 9.732000 5.446000 -15.017000
v 13.011000 5.446000 -15.017000
v 9.141000 5.446000 -14.517000
v 13.000000 5.446000 -14.517000
v 9.143000 5.446000 -14.017000
v 12.917000 5.446000 -14.017000
v 9.468000 5.446000 -13.517000
v 12.950000 5.446000 -13.517000
v 9.652000 5.446000 -13.017000
v 12.971000 5.446000 -13.017000
v 9.931000 5.446000 -12.517000
v 12.933000 5.446000 -12.517000
v 10.403000 5.446000 -12.017000
v 12.930000 5.446000 -12.017000
v 10.602000 5.446000 -11.517000
v 12.949000 5.446000 -11.517000
v 10.813000 5.446000 -11.017000
v 12.738000 5.446000 -11.017000
v 12.763000 1.446000 -17.213000
v 12.763000 1.446000 -15.111000
v 13.263000 1.446000 -17.577000
v 13.263000 1.446000 -14.680000
v 13.763000 1.446000 -17.687000
v 13.763000 1.446000 -14.581000
v 14.263000 1.446000 -17.611000
v 14.263000 1.446000 -14.562000
v 14.763000 1.446000 -17.336000
v 14.763000 1.446000 -14.674000
v 15.263000 1.446000 -16.333000
v 15.263000 1.446000 -15.131000
v 9.263000 5.446000 -14.727000
v 9.263000 5.446000 -13.814000
v 9.763000 5.446000 -15.033000
v 9.763000 5.446000 -12.745000
v 10.263000 5.446000 -15.419000
v 10.263000 5.446000 -12.207000
v 10.763000 5.446000 -15.828000
v 10.763000 5.446000 -11.092000
v 11.263000 5.446000 -15.979000
v 11.263000 5.446000 -10.643000
v 11.763000 5.446000 -16.214000
v 11.763000 5.446000 -10.527000
v 12.263000 5.446000 -18.462000
v 12.263000 5.446000 -10.631000
v 12.763000 5.446000 -18.864000
v 12.763000 5.446000 -11.052000
v 13.263000 5.446000 -18.958000
v 13.263000 5.446000 -16.048000
v 13.763000 5.446000 -18.832000
v 13.763000 5.446000 -16.668000
v 14.263000 5.446000 -18.355000
v 14.263000 5.446000 -17.188000
v 11.263000 3.057000 -16.517000
v 11.263000 4.868000 -16.517000
v 11.763000 2.569000 -16.517000
v 11.763000 5.312000 -16.517000
v 12.263000 1.933000 -16.517000
v 12.263000 5.528000 -16.517000
v 12.763000 0.743000 -16.517000
v 12.763000 5.611000 -16.517000
v 13.263000 0.391000 -16.517000
v 13.263000 5.580000 -16.517000
v 13.763000 0.288000 -16.517000
v 13.763000 5.331000 -16.517000
v 14.263000 0.372000 -16.517000
v 14.263000 4.860000 -16.517000
v 14.763000 0.691000 -16.517000
v 14.763000 4.332000 -16.517000
v 15.263000 1.599000 -16.517000
v 15.263000 3.807000 -16.517000
v 9.763000 3.244000 -12.517000
v 9.763000 5.214000 -12.517000
v 10.263000 2.976000 -12.517000
v 10.263000 5.695000 -12.517000
v 10.763000 2.956000 -12.517000
v 10.763000 5.939000 -12.517000
v 11.263000 2.878000 -12.517000
v 11.263000 6.053000 -12.517000
v 11.763000 2.844000 -12.517000
v 11.763000 6.111000 -12.517000
v 12.263000 2.924000 -12.517000
v 12.263000 6.014000 -12.517000
v 12.763000 3.238000 -12.517000
v 12.763000 5.673000 -12.517000
v 12.822000 1.946000 -17.517000
v 15.099000 1.946000 -17.517000
v 12.538000 1.946000 -17.017000
v 15.368000 1.946000 -17.017000
v 12.256000 1.946000 -16.517000
v 15.454000 1.946000 -16.517000
v 12.109000 1.946000 -16.017000
v 15.603000 1.946000 -16.017000
v 12.067000 1.946000 -15.517000
v 15.621000 1.946000 -15.517000
v 12.299000 1.946000 -15.017000
v 15.442000 1.946000 -15.017000
v 13.052000 1.946000 -14.517000
v 14.922000 1.946000 -14.517000
v 12.631000 5.946000 -18.017000
v 13.826000 5.946000 -18.017000
v 12.635000 5.946000 -17.517000
v 13.823000 5.946000 -17.517000
v 10.719000 5.946000 -15.017000
v 12.460000 5.946000 -15.017000
v 10.292000 5.946000 -14.517000
v 12.465000 5.946000 -14.517000
v 10.171000 5.946000 -14.017000
v 12.320000 5.946000 -14.017000
v 10.171000 5.946000 -13.517000
v 12.416000 5.946000 -13.517000
v 10.309000 5.946000 -13.017000
v 12.462000 5.946000 -13.017000
v 10.777000 5.946000 -12.517000
v 12.410000 5.946000 -12.517000
v 11.097000 5.946000 -12.017000
v 12.370000 5.946000 -12.017000
v 11.150000 5.946000 -11.517000
v 12.401000 5.946000 -11.517000
v 12.263000 1.946000 -16.530000
v 12.263000 1.946000 -15.056000
v 12.763000 1.946000 -17.440000
v 12.763000 1.946000 -14.679000
v 13.263000 1.946000 -17.872000
v 13.263000 1.946000 -14.433000
v 13.763000 1.946000 -17.987000
v 13.763000 1.946000 -14.362000
v 14.263000 1.946000 -17.932000
v 14.263000 1.946000 -14.350000
v 14.763000 1.946000 -17.779000
v 14.763000 1.946000 -14.443000
v 15.263000 1.946000 -17.285000
v 15.263000 1.946000 -14.780000
v 10.263000 5.946000 -14.419000
v 10.263000 5.946000 -13.107000
v 10.763000 5.946000 -15.090000
v 10.763000 5.946000 -12.549000
v 11.263000 5.946000 -15.344000
v 11.263000 5.946000 -11.308000
v 11.763000 5.946000 -15.464000
v 11.763000 5.946000 -11.061000
v 12.263000 5.946000 -15.295000
v 12.263000 5.946000 -11.277000
v 12.763000 5.946000 -18.219000
v 12.763000 5.946000 -17.324000
v 13.263000 5.946000 -18.417000
v 13.263000 5.946000 -17.126000
v 13.763000 5.946000 -18.136000
v 13.763000 5.946000 -17.408000
v 10.263000 3.717000 -16.017000
v 10.263000 4.684000 -16.017000
v 10.763000 2.996000 -16.017000
v 10.763000 5.081000 -16.017000
v 11.263000 2.587000 -16.017000
v 11.263000 5.408000 -16.017000
v 11.763000 2.283000 -16.017000
v 11.763000 5.549000 -16.017000
v 12.263000 1.715000 -16.017000
v 12.263000 5.617000 -16.017000
v 12.763000 0.753000 -16.017000
v 12.763000 5.563000 -16.017000
v 13.263000 0.398000 -16.017000
v 13.263000 5.441000 -16.017000
v 13.763000 0.294000 -16.017000
v 13.763000 5.104000 -16.017000
v 14.263000 0.379000 -16.017000
v 14.263000 4.376000 -16.017000
v 14.763000 0.701000 -16.017000
v 14.763000 3.861000 -16.017000
v 15.263000 1.295000 -16.017000
v 15.263000 3.333000 -16.017000
v 10.263000 3.676000 -12.017000
v 10.263000 5.240000 -12.017000
v 10.763000 3.379000 -12.017000
v 10.763000 5.772000 -12.017000
v 11.263000 3.177000 -12.017000
v 11.263000 6.001000 -12.017000
v 11.763000 3.047000 -12.017000
v 11.763000 6.083000 -12.017000
v 12.263000 3.142000 -12.017000
v 12.263000 5.992000 -12.017000
v 12.763000 3.531000 -12.017000
v 12.763000 5.660000 -12.017000
f 133 377 435
f 435 377 547
f 547 377 485
f 485 134 547
f 437 135 435
f 435 135 133
f 435 549 437
f 435 547 549
f 547 134 549
f 549 134 136
f 439 137 437
f 437 137 135
f 437 551 439
f 437 549 551
f 549 136 551
f 551 136 138
f 439 378 137
f 378 439 486
f 486 439 551
f 551 138 486
f 139 293 311
f 311 293 419
f 419 293 393
f 393 140 419
f 141 191 209
f 139 311 191
f 191 311 209
f 311 291 209
f 291 45 209
f 419 391 291
f 419 291 311
f 140 501 533
f 140 533 46
f 419 140 46
f 391 419 46
f 501 142 533
f 143 95 109
f 141 209 95
f 95 209 109
f 209 189 109
f 189 47 109
f 209 45 189
f 533 499 46
f 142 613 645
f 142 645 48
f 533 142 48
f 499 533 48
f 613 144 645
f 93 49 109
f 49 143 109
f 49 145 143
f 109 47 93
f 647 50 48
f 647 48 645
f 645 144 647
f 647 144 146
f 147 13 25
f 51 25 13
f 145 51 13
f 49 51 145
f 647 611 50
f 146 715 747
f 146 747 52
f 647 146 52
f 611 647 52
f 715 148 747
f 11 53 25
f 53 147 25
f 53 149 147
f 25 51 11
f 749 54 52
f 749 52 747
f 747 148 749
f 749 148 150
f 151 53 55
f 151 149 53
f 751 56 54
f 751 54 749
f 749 150 751
f 751 150 152
f 732 705 57
f 55 705 732
f 153 55 732
f 151 55 153
f 753 58 56
f 753 56 751
f 751 152 753
f 753 152 154
f 632 595 59
f 707 732 57
f 707 57 595
f 155 707 595
f 632 155 595
f 153 732 707
f 58 753 716
f 156 58 716
f 60 58 156
f 753 154 716
f 524 483 61
f 597 632 59
f 597 59 483
f 157 597 483
f 524 157 483
f 155 632 597
f 614 158 62
f 614 62 612
f 612 60 614
f 614 60 156
f 63 526 61
f 61 526 524
f 157 524 526
f 157 526 159
f 502 160 64
f 502 64 500
f 500 62 502
f 502 62 158
f 65 528 63
f 63 528 526
f 159 526 528
f 159 528 161
f 294 162 334
f 294 334 66
f 392 294 66
f 394 294 392
f 392 64 394
f 394 64 160
f 67 530 65
f 65 530 528
f 161 528 530
f 161 530 163
f 192 164 232
f 334 162 192
f 334 192 232
f 292 334 232
f 68 292 232
f 66 334 292
f 484 530 67
f 598 163 642
f 642 163 69
f 163 530 69
f 530 484 69
f 165 598 642
f 96 166 132
f 232 164 96
f 232 96 132
f 190 232 132
f 70 190 132
f 68 232 190
f 596 642 69
f 642 596 165
f 596 708 165
f 596 706 708
f 12 708 706
f 12 14 708
f 166 14 132
f 14 94 132
f 14 12 94
f 70 132 94
f 320 307 71
f 167 409 320
f 409 307 320
f 409 407 307
f 409 515 407
f 517 515 409
f 650 627 168
f 627 517 168
f 627 515 517
f 650 72 627
f 218 205 73
f 309 320 71
f 309 71 205
f 169 309 205
f 218 169 205
f 167 320 309
f 629 650 168
f 170 750 729
f 170 729 72
f 629 170 72
f 650 629 72
f 750 74 729
f 75 220 73
f 73 220 218
f 169 218 220
f 169 220 171
f 172 752 750
f 172 750 170
f 74 750 76
f 76 750 752
f 77 222 75
f 75 222 220
f 171 220 222
f 171 222 173
f 174 754 752
f 174 752 172
f 76 752 78
f 78 752 754
f 206 222 77
f 310 173 328
f 328 173 79
f 173 222 79
f 222 206 79
f 175 310 328
f 630 176 658
f 754 174 630
f 754 630 658
f 730 754 658
f 80 730 658
f 78 754 730
f 308 328 79
f 328 308 175
f 308 410 175
f 308 408 410
f 516 410 408
f 516 518 410
f 176 518 658
f 518 628 658
f 518 516 628
f 80 658 628
f 235 379 433
f 433 379 545
f 545 379 487
f 487 236 545
f 237 279 327
f 235 433 279
f 279 433 327
f 433 377 327
f 377 133 327
f 545 485 377
f 545 377 433
f 236 599 657
f 236 657 134
f 545 236 134
f 485 545 134
f 599 238 657
f 239 177 225
f 237 327 177
f 327 225 177
f 327 329 225
f 327 133 135
f 327 135 329
f 659 136 134
f 659 134 657
f 657 238 659
f 659 238 240
f 241 81 125
f 239 225 81
f 225 125 81
f 225 227 125
f 225 331 227
f 225 329 331
f 329 135 137
f 329 137 331
f 661 138 136
f 661 136 659
f 659 240 661
f 661 240 242
f 127 243 125
f 125 243 241
f 125 229 127
f 125 227 229
f 227 333 229
f 227 331 333
f 331 137 378
f 441 331 378
f 333 331 441
f 486 553 441
f 486 441 378
f 661 600 138
f 138 600 486
f 600 244 486
f 244 553 486
f 661 242 600
f 129 245 127
f 127 245 243
f 127 231 129
f 127 229 231
f 246 231 280
f 231 333 280
f 231 229 333
f 280 333 380
f 380 333 441
f 380 441 488
f 488 441 553
f 553 244 488
f 129 82 245
f 82 129 178
f 178 129 231
f 231 246 178
f 247 193 207
f 207 193 139
f 193 293 139
f 193 295 293
f 295 393 293
f 395 393 295
f 140 393 531
f 393 503 531
f 393 395 503
f 503 248 531
f 249 97 107
f 247 207 97
f 97 207 107
f 207 191 107
f 191 141 107
f 207 139 191
f 531 501 140
f 248 615 643
f 248 643 142
f 531 248 142
f 501 531 142
f 615 250 643
f 251 15 21
f 249 107 15
f 15 107 21
f 107 95 21
f 95 143 21
f 107 141 95
f 643 613 142
f 643 250 613
f 250 144 613
f 250 252 144
f 23 253 21
f 21 253 251
f 21 143 145
f 21 145 23
f 144 254 146
f 252 254 144
f 13 147 23
f 147 253 23
f 147 255 253
f 23 145 13
f 715 146 254
f 715 254 717
f 717 256 715
f 715 256 148
f 257 147 149
f 257 255 147
f 148 258 150
f 256 258 148
f 259 149 151
f 259 257 149
f 150 260 152
f 258 260 150
f 261 151 153
f 261 259 151
f 152 262 154
f 260 262 152
f 734 707 155
f 153 707 734
f 263 153 734
f 261 153 263
f 718 264 156
f 718 156 716
f 716 154 718
f 718 154 262
f 634 597 157
f 709 734 155
f 709 155 597
f 265 709 597
f 634 265 597
f 263 734 709
f 616 266 158
f 616 158 614
f 614 156 616
f 616 156 264
f 159 636 157
f 157 636 634
f 265 634 636
f 265 636 267
f 396 268 440
f 396 440 160
f 502 396 160
f 504 396 502
f 502 158 504
f 504 158 266
f 161 638 159
f 159 638 636
f 267 636 638
f 267 638 269
f 194 270 230
f 194 230 162
f 294 194 162
f 296 194 294
f 268 296 440
f 296 394 440
f 296 294 394
f 160 440 394
f 163 640 161
f 161 640 638
f 269 638 640
f 269 640 271
f 98 272 130
f 230 270 98
f 230 98 130
f 192 230 130
f 164 192 130
f 162 230 192
f 598 640 163
f 710 271 744
f 744 271 165
f 271 640 165
f 640 598 165
f 710 744 44
f 710 44 16
f 130 272 16
f 130 16 44
f 96 130 44
f 166 96 44
f 164 130 96
f 708 744 165
f 14 44 708
f 708 44 744
f 166 44 14
f 428 409 167
f 540 517 428
f 428 517 409
f 540 168 517
f 322 309 169
f 411 428 167
f 411 167 309
f 273 411 309
f 322 273 309
f 428 411 519
f 428 519 540
f 274 652 629
f 274 629 168
f 519 274 168
f 540 519 168
f 652 170 629
f 171 324 169
f 169 324 322
f 273 322 324
f 273 324 275
f 276 654 652
f 276 652 274
f 170 652 172
f 172 652 654
f 173 326 171
f 171 326 324
f 275 324 326
f 275 326 277
f 278 656 654
f 278 654 276
f 172 654 174
f 174 654 656
f 310 326 173
f 412 277 436
f 436 277 175
f 277 326 175
f 326 310 175
f 412 436 548
f 412 548 520
f 656 278 520
f 656 520 548
f 630 656 548
f 176 630 548
f 174 656 630
f 410 436 175
f 518 548 410
f 410 548 436
f 176 548 518
f 339 281 325
f 325 281 235
f 281 379 235
f 281 381 379
f 381 487 379
f 489 487 381
f 236 487 655
f 487 601 655
f 487 489 601
f 601 340 655
f 341 179 223
f 339 325 179
f 179 325 223
f 325 279 223
f 279 237 223
f 325 235 279
f 655 599 236
f 340 711 755
f 340 755 238
f 655 340 238
f 599 655 238
f 711 342 755
f 343 1 35
f 35 1 123
f 123 1 83
f 341 223 83
f 83 223 123
f 223 177 123
f 177 239 123
f 223 237 177
f 757 240 238
f 757 238 755
f 755 342 757
f 757 342 344
f 37 345 35
f 35 345 343
f 123 81 241
f 37 123 241
f 35 123 37
f 123 239 81
f 759 242 240
f 759 240 757
f 757 344 759
f 759 344 346
f 39 347 37
f 37 347 345
f 37 241 243
f 37 243 39
f 600 663 244
f 759 712 242
f 242 712 600
f 712 348 600
f 348 663 600
f 759 346 712
f 41 349 39
f 39 349 347
f 39 243 245
f 39 245 41
f 280 335 246
f 380 443 335
f 380 335 280
f 490 350 443
f 380 490 443
f 488 490 380
f 663 602 244
f 602 488 244
f 602 490 488
f 663 348 602
f 41 2 349
f 131 351 82
f 82 351 245
f 351 2 245
f 2 41 245
f 178 233 131
f 178 131 82
f 335 282 246
f 246 282 178
f 282 352 178
f 352 233 178
f 282 335 382
f 382 335 443
f 443 350 382
f 131 84 351
f 84 131 180
f 180 131 233
f 233 352 180
f 353 195 247
f 247 195 193
f 195 295 193
f 297 295 195
f 297 395 295
f 397 395 297
f 397 503 395
f 505 503 397
f 505 354 503
f 503 354 248
f 355 99 249
f 249 99 97
f 247 97 99
f 247 99 353
f 615 248 354
f 615 354 617
f 617 356 615
f 615 356 250
f 357 17 251
f 251 17 15
f 249 15 17
f 249 17 355
f 250 358 252
f 356 358 250
f 359 251 253
f 359 357 251
f 358 719 745
f 254 358 745
f 252 358 254
f 719 360 745
f 361 253 255
f 361 359 253
f 745 717 254
f 745 360 717
f 360 256 717
f 360 362 256
f 363 255 257
f 363 361 255
f 256 364 258
f 362 364 256
f 18 363 30
f 363 259 30
f 363 257 259
f 365 18 30
f 258 366 260
f 364 366 258
f 261 32 259
f 259 32 30
f 365 30 32
f 365 32 367
f 260 368 262
f 366 368 260
f 263 34 261
f 261 34 32
f 367 32 34
f 367 34 369
f 720 370 264
f 720 264 718
f 718 262 720
f 720 262 368
f 736 709 265
f 709 736 263
f 736 34 263
f 736 36 34
f 124 100 369
f 34 124 369
f 36 124 34
f 371 100 124
f 618 372 266
f 618 266 616
f 616 264 618
f 618 264 370
f 267 738 265
f 265 738 736
f 38 736 738
f 36 736 38
f 126 36 38
f 124 36 126
f 228 196 371
f 124 228 371
f 126 228 124
f 196 228 332
f 196 332 298
f 298 332 268
f 396 298 268
f 398 298 396
f 504 398 396
f 504 506 398
f 504 266 506
f 506 266 372
f 269 740 267
f 267 740 738
f 40 738 740
f 38 738 40
f 128 38 40
f 126 38 128
f 194 228 270
f 228 128 270
f 228 126 128
f 296 332 194
f 194 332 228
f 268 332 296
f 271 742 269
f 269 742 740
f 42 740 742
f 40 740 42
f 98 128 272
f 128 42 272
f 128 40 42
f 270 128 98
f 710 742 271
f 16 42 710
f 710 42 742
f 272 42 16
f 430 411 273
f 542 519 430
f 430 519 411
f 542 274 519
f 275 432 273
f 273 432 430
f 544 430 432
f 542 430 544
f 274 542 276
f 276 542 544
f 277 434 275
f 275 434 432
f 546 432 434
f 544 432 546
f 276 544 278
f 278 544 546
f 412 434 277
f 520 546 412
f 412 546 434
f 278 546 520
f 445 181 221
f 221 181 339
f 181 281 339
f 181 283 281
f 283 381 281
f 383 381 283
f 383 489 381
f 491 489 383
f 491 601 489
f 603 601 491
f 603 446 601
f 601 446 340
f 447 3 33
f 33 3 121
f 121 3 85
f 445 221 85
f 85 221 121
f 221 179 121
f 179 341 121
f 221 339 179
f 711 340 446
f 711 446 713
f 713 448 711
f 711 448 342
f 449 587 633
f 633 587 735
f 735 587 697
f 447 33 697
f 697 33 735
f 33 1 735
f 1 343 735
f 121 83 1
f 121 1 33
f 121 341 83
f 342 450 344
f 448 450 342
f 635 451 633
f 633 451 449
f 633 737 635
f 633 735 737
f 735 343 345
f 735 345 737
f 344 452 346
f 450 452 344
f 637 453 635
f 635 453 451
f 635 739 637
f 635 737 739
f 737 345 347
f 737 347 739
f 714 454 348
f 714 348 712
f 712 346 714
f 714 346 452
f 637 588 453
f 588 637 455
f 637 741 455
f 637 739 741
f 739 347 349
f 739 349 741
f 492 456 350
f 492 350 490
f 602 492 490
f 602 604 492
f 602 348 604
f 604 348 454
f 741 698 455
f 43 457 2
f 2 457 349
f 457 698 349
f 698 741 349
f 351 43 2
f 282 337 352
f 384 458 337
f 282 384 337
f 382 384 282
f 382 350 384
f 384 350 456
f 43 4 457
f 351 84 43
f 84 4 43
f 84 86 4
f 180 86 84
f 180 182 86
f 337 284 352
f 284 180 352
f 284 182 180
f 337 458 284
f 208 195 353
f 459 299 208
f 299 195 208
f 299 297 195
f 299 397 297
f 399 397 299
f 532 505 460
f 505 399 460
f 505 397 399
f 532 354 505
f 461 101 355
f 355 101 99
f 197 208 353
f 99 197 353
f 101 197 99
f 459 208 197
f 507 532 460
f 462 644 617
f 462 617 354
f 507 462 354
f 532 507 354
f 644 356 617
f 463 19 357
f 357 19 17
f 355 17 19
f 355 19 461
f 619 644 462
f 619 464 644
f 464 356 644
f 464 358 356
f 465 357 359
f 465 463 357
f 719 358 464
f 719 464 721
f 721 466 719
f 719 466 360
f 467 359 361
f 467 465 359
f 360 468 362
f 466 468 360
f 469 361 363
f 469 467 361
f 362 470 364
f 468 470 362
f 363 18 469
f 469 18 20
f 471 20 18
f 471 18 365
f 364 472 366
f 470 472 364
f 473 365 367
f 473 471 365
f 366 474 368
f 472 474 366
f 102 473 122
f 473 369 122
f 473 367 369
f 475 102 122
f 722 476 370
f 722 370 720
f 720 368 722
f 722 368 474
f 100 122 369
f 198 475 226
f 226 475 371
f 475 122 371
f 122 100 371
f 198 226 330
f 198 330 300
f 300 330 438
f 300 438 400
f 400 438 550
f 400 550 508
f 508 550 372
f 618 508 372
f 620 508 618
f 618 370 620
f 620 370 476
f 196 226 371
f 298 330 196
f 196 330 226
f 398 438 298
f 298 438 330
f 506 550 398
f 398 550 438
f 372 550 506
f 555 183 219
f 219 183 323
f 323 183 285
f 323 285 431
f 431 285 385
f 431 385 543
f 543 385 493
f 493 556 543
f 557 87 119
f 555 219 87
f 87 219 119
f 219 181 119
f 181 445 119
f 323 283 181
f 323 181 219
f 431 383 283
f 431 283 323
f 543 491 383
f 543 383 431
f 491 543 556
f 605 491 556
f 603 491 605
f 605 558 603
f 603 558 446
f 559 589 631
f 631 589 733
f 733 589 699
f 733 699 447
f 699 3 447
f 699 5 3
f 5 557 119
f 85 5 119
f 3 5 85
f 119 445 85
f 560 756 713
f 446 560 713
f 558 560 446
f 756 448 713
f 561 477 523
f 559 631 477
f 477 631 523
f 631 587 523
f 587 449 523
f 733 697 587
f 733 587 631
f 733 447 697
f 562 758 756
f 562 756 560
f 448 756 450
f 450 756 758
f 525 563 523
f 523 563 561
f 523 449 451
f 523 451 525
f 564 760 758
f 564 758 562
f 450 758 452
f 452 758 760
f 527 565 525
f 525 565 563
f 525 451 453
f 525 453 527
f 606 566 664
f 760 564 606
f 760 606 664
f 714 760 664
f 454 714 664
f 452 760 714
f 527 478 565
f 639 567 588
f 588 567 453
f 567 478 453
f 478 527 453
f 455 639 588
f 494 568 456
f 494 456 492
f 566 494 664
f 494 604 664
f 494 492 604
f 454 664 604
f 639 590 567
f 743 569 698
f 698 569 455
f 569 590 455
f 590 639 455
f 457 743 698
f 386 570 458
f 386 458 384
f 384 456 386
f 386 456 568
f 743 700 569
f 457 4 743
f 4 700 743
f 4 6 700
f 86 6 4
f 86 88 6
f 182 88 86
f 182 184 88
f 284 184 182
f 284 286 184
f 284 458 286
f 286 458 570
f 312 299 459
f 420 399 312
f 312 399 299
f 420 460 399
f 108 101 461
f 571 199 108
f 199 101 108
f 199 197 101
f 301 312 459
f 197 301 459
f 199 301 197
f 312 301 401
f 312 401 420
f 572 534 507
f 572 507 460
f 401 572 460
f 420 401 460
f 534 462 507
f 22 19 463
f 103 108 461
f 103 461 19
f 573 103 19
f 22 573 19
f 571 108 103
f 509 534 572
f 619 462 534
f 509 619 534
f 621 619 509
f 621 574 619
f 619 574 464
f 465 24 463
f 463 24 22
f 573 22 24
f 573 24 575
f 576 746 721
f 464 576 721
f 574 576 464
f 746 466 721
f 467 26 465
f 465 26 24
f 575 24 26
f 575 26 577
f 723 746 576
f 723 578 746
f 578 466 746
f 578 468 466
f 469 28 467
f 467 28 26
f 577 26 28
f 577 28 579
f 468 580 470
f 578 580 468
f 20 28 469
f 579 28 20
f 471 579 20
f 581 579 471
f 470 582 472
f 580 582 470
f 583 471 473
f 583 581 471
f 472 584 474
f 582 584 472
f 473 102 583
f 583 102 104
f 585 104 102
f 585 102 475
f 724 586 476
f 724 476 722
f 722 474 724
f 724 474 584
f 475 198 585
f 585 198 200
f 300 200 198
f 300 302 200
f 400 302 300
f 400 402 302
f 508 402 400
f 508 510 402
f 620 510 508
f 620 622 510
f 620 476 622
f 622 476 586
f 665 185 217
f 217 185 321
f 321 185 287
f 321 287 429
f 429 287 387
f 387 666 429
f 667 89 117
f 665 217 89
f 89 217 117
f 217 183 117
f 183 555 117
f 321 285 183
f 321 183 217
f 429 385 285
f 429 285 321
f 385 429 666
f 495 385 666
f 493 385 495
f 495 668 493
f 493 668 556
f 669 701 731
f 731 701 31
f 31 701 7
f 667 117 7
f 7 117 31
f 117 87 31
f 87 557 31
f 117 555 87
f 605 556 668
f 605 668 607
f 607 670 605
f 605 670 558
f 671 479 521
f 521 479 559
f 479 589 559
f 479 591 589
f 591 669 731
f 699 591 731
f 589 591 699
f 31 5 699
f 31 699 731
f 31 557 5
f 558 672 560
f 670 672 558
f 673 373 413
f 671 521 373
f 373 521 413
f 521 477 413
f 477 561 413
f 521 559 477
f 560 674 562
f 672 674 560
f 415 675 413
f 413 675 673
f 413 561 563
f 413 563 415
f 608 676 662
f 662 564 608
f 564 674 608
f 564 562 674
f 417 677 415
f 415 677 675
f 415 563 565
f 415 565 417
f 496 678 554
f 662 676 496
f 662 496 554
f 606 662 554
f 566 606 554
f 564 662 606
f 417 374 677
f 529 679 478
f 478 679 565
f 679 374 565
f 374 417 565
f 567 529 478
f 388 680 444
f 554 678 388
f 554 388 444
f 494 554 444
f 568 494 444
f 566 554 494
f 529 480 679
f 567 590 529
f 590 480 529
f 590 592 480
f 681 592 590
f 681 590 569
f 288 682 338
f 444 680 288
f 444 288 338
f 386 444 338
f 570 386 338
f 568 444 386
f 569 700 681
f 681 700 702
f 6 702 700
f 6 8 702
f 88 8 6
f 88 90 8
f 184 90 88
f 184 186 90
f 682 186 338
f 186 286 338
f 186 184 286
f 570 338 286
f 210 199 571
f 314 301 210
f 210 301 199
f 422 401 314
f 314 401 301
f 422 572 401
f 110 103 573
f 201 210 571
f 201 571 103
f 683 201 103
f 110 683 103
f 210 201 303
f 210 303 314
f 314 303 403
f 314 403 422
f 509 572 422
f 403 509 422
f 511 509 403
f 646 621 684
f 621 511 684
f 621 509 511
f 646 574 621
f 575 112 573
f 573 112 110
f 683 110 112
f 683 112 685
f 623 646 684
f 623 686 646
f 686 574 646
f 686 576 574
f 577 114 575
f 575 114 112
f 685 112 114
f 685 114 687
f 688 748 723
f 576 688 723
f 686 688 576
f 748 578 723
f 114 577 105
f 577 689 105
f 577 579 689
f 687 114 105
f 725 748 688
f 725 690 748
f 690 578 748
f 690 580 578
f 691 579 581
f 691 689 579
f 580 692 582
f 690 692 580
f 693 581 583
f 693 691 581
f 582 694 584
f 692 694 582
f 583 104 693
f 693 104 106
f 695 106 104
f 695 104 585
f 726 696 586
f 726 586 724
f 724 584 726
f 726 584 694
f 585 200 695
f 695 200 202
f 302 202 200
f 302 304 202
f 402 304 302
f 402 404 304
f 510 404 402
f 510 512 404
f 622 512 510
f 622 624 512
f 622 586 624
f 624 586 696
f 761 289 317
f 317 289 425
f 425 289 389
f 389 762 425
f 763 187 215
f 761 317 187
f 317 215 187
f 317 319 215
f 317 427 319
f 317 425 427
f 497 539 762
f 539 425 762
f 539 427 425
f 497 764 539
f 765 91 115
f 763 215 91
f 91 215 115
f 215 185 115
f 185 665 115
f 319 287 185
f 319 185 215
f 427 387 287
f 427 287 319
f 541 666 387
f 427 541 387
f 539 541 427
f 539 764 541
f 541 764 766
f 767 9 29
f 765 115 9
f 9 115 29
f 115 89 29
f 89 667 29
f 115 665 89
f 541 495 666
f 766 609 653
f 766 653 668
f 541 766 668
f 495 541 668
f 609 768 653
f 769 703 669
f 669 703 701
f 703 767 29
f 7 703 29
f 701 703 7
f 29 667 7
f 653 607 668
f 653 768 607
f 768 670 607
f 768 770 670
f 771 481 671
f 671 481 479
f 481 591 479
f 593 591 481
f 669 591 593
f 669 593 769
f 670 772 672
f 770 772 670
f 773 375 673
f 673 375 373
f 671 373 375
f 671 375 771
f 610 774 660
f 660 674 610
f 674 772 610
f 674 672 772
f 775 673 675
f 775 773 673
f 676 608 660
f 774 676 660
f 776 676 774
f 674 660 608
f 777 675 677
f 777 775 675
f 390 778 442
f 390 442 678
f 496 390 678
f 498 390 496
f 496 676 498
f 498 676 776
f 677 374 777
f 777 374 376
f 779 376 374
f 779 374 679
f 290 780 336
f 442 778 290
f 442 290 336
f 388 442 336
f 680 388 336
f 678 442 388
f 679 480 779
f 779 480 482
f 592 641 781
f 482 592 781
f 480 592 482
f 681 641 592
f 188 782 234
f 336 780 188
f 336 188 234
f 288 336 234
f 682 288 234
f 680 336 288
f 641 594 781
f 681 702 641
f 702 594 641
f 702 704 594
f 8 704 702
f 8 10 704
f 90 10 8
f 90 92 10
f 782 92 234
f 92 186 234
f 92 90 186
f 682 234 186
f 212 201 683
f 316 303 212
f 212 303 201
f 424 403 316
f 316 403 303
f 536 511 424
f 424 511 403
f 536 684 511
f 685 214 683
f 683 214 212
f 214 783 305
f 316 214 305
f 212 214 316
f 316 305 405
f 316 405 424
f 424 405 513
f 424 513 536
f 784 648 623
f 784 623 684
f 513 784 684
f 536 513 684
f 648 686 623
f 214 685 203
f 685 785 203
f 685 687 785
f 783 214 203
f 625 648 784
f 625 786 648
f 786 686 648
f 786 688 686
f 116 105 689
f 687 105 116
f 787 687 116
f 785 687 787
f 725 688 786
f 725 786 727
f 727 788 725
f 725 788 690
f 691 118 689
f 689 118 116
f 787 116 118
f 787 118 789
f 690 790 692
f 788 790 690
f 693 120 691
f 691 120 118
f 789 118 120
f 789 120 791
f 692 792 694
f 790 792 692
f 106 120 693
f 204 791 224
f 224 791 695
f 791 120 695
f 120 106 695
f 793 204 224
f 728 794 696
f 728 696 726
f 726 694 728
f 728 694 792
f 202 224 695
f 224 202 793
f 202 306 793
f 202 304 306
f 404 306 304
f 404 406 306
f 512 406 404
f 512 514 406
f 624 514 512
f 624 626 514
f 624 696 626
f 626 696 794
f 45 291 313
f 313 291 421
f 421 291 391
f 391 46 421
f 47 189 211
f 45 313 189
f 313 211 189
f 313 315 211
f 313 423 315
f 313 421 423
f 499 535 46
f 535 421 46
f 535 423 421
f 499 48 535
f 49 93 111
f 47 211 93
f 211 111 93
f 211 213 111
f 315 289 761
f 213 315 761
f 211 315 213
f 423 389 289
f 423 289 315
f 537 762 389
f 423 537 389
f 535 537 423
f 535 48 537
f 537 48 50
f 113 51 111
f 111 51 49
f 213 187 763
f 113 213 763
f 111 213 113
f 213 761 187
f 537 497 762
f 50 611 649
f 50 649 764
f 537 50 764
f 497 537 764
f 611 52 649
f 53 11 27
f 51 113 11
f 11 113 27
f 113 91 27
f 91 765 27
f 113 763 91
f 651 766 764
f 651 764 649
f 649 52 651
f 651 52 54
f 9 767 27
f 767 53 27
f 767 55 53
f 27 765 9
f 651 609 766
f 651 54 609
f 54 768 609
f 54 56 768
f 57 705 769
f 769 705 703
f 767 703 705
f 767 705 55
f 768 58 770
f 56 58 768
f 522 481 771
f 59 595 522
f 595 481 522
f 595 593 481
f 769 593 595
f 769 595 57
f 770 60 772
f 58 60 770
f 414 375 773
f 483 522 771
f 483 771 375
f 61 483 375
f 414 61 375
f 59 522 483
f 612 62 774
f 612 774 610
f 610 772 612
f 612 772 60
f 775 416 773
f 773 416 414
f 61 414 416
f 61 416 63
f 500 64 552
f 552 776 500
f 776 62 500
f 776 774 62
f 777 418 775
f 775 418 416
f 63 416 418
f 63 418 65
f 392 66 778
f 392 778 390
f 64 392 552
f 392 498 552
f 392 390 498
f 776 552 498
f 376 418 777
f 65 418 376
f 779 65 376
f 67 65 779
f 292 68 780
f 292 780 290
f 290 778 292
f 292 778 66
f 779 482 67
f 67 482 484
f 69 484 482
f 69 482 781
f 190 70 782
f 190 782 188
f 188 780 190
f 190 780 68
f 781 594 69
f 69 594 596
f 704 596 594
f 704 706 596
f 10 706 704
f 10 12 706
f 92 12 10
f 92 94 12
f 92 782 94
f 94 782 70
f 318 305 783
f 426 405 318
f 318 405 305
f 538 513 426
f 426 513 405
f 538 784 513
f 216 203 785
f 307 318 783
f 307 783 203
f 71 307 203
f 216 71 203
f 318 307 407
f 318 407 426
f 426 407 515
f 426 515 538
f 625 784 538
f 515 625 538
f 627 625 515
f 627 72 625
f 625 72 786
f 216 785 205
f 785 73 205
f 785 787 73
f 71 216 205
f 727 786 72
f 727 72 729
f 729 74 727
f 727 74 788
f 75 787 789
f 75 73 787
f 788 76 790
f 74 76 788
f 77 789 791
f 77 75 789
f 790 78 792
f 76 78 790
f 791 204 77
f 77 204 206
f 79 206 204
f 79 204 793
f 730 80 794
f 730 794 728
f 728 792 730
f 730 792 78
f 793 306 79
f 79 306 308
f 406 308 306
f 406 408 308
f 514 408 406
f 514 516 408
f 626 516 514
f 626 628 516
f 626 794 628
f 628 794 80
