# Converted from NanoShaper .vert/.face
v 11.036000 6.196000 -6.017000
v 11.551000 6.196000 -6.017000
v 10.239000 6.196000 -5.517000
v 12.916000 6.196000 -5.517000
v 10.006000 6.196000 -5.017000
v 13.466000 6.196000 -5.017000
v 9.979000 6.196000 -4.517000
v 13.661000 6.196000 -4.517000
v 9.993000 6.196000 -4.017000
v 13.663000 6.196000 -4.017000
v 10.188000 6.196000 -3.517000
v 13.642000 6.196000 -3.517000
v 10.351000 6.196000 -3.017000
v 13.582000 6.196000 -3.017000
v 10.559000 6.196000 -2.517000
v 13.387000 6.196000 -2.517000
v 11.148000 6.196000 -2.017000
v 12.819000 6.196000 -2.017000
v 10.013000 6.196000 -5.046000
v 10.013000 6.196000 -3.930000
v 10.513000 6.196000 -5.787000
v 10.513000 6.196000 -2.592000
v 11.013000 6.196000 -6.012000
v 11.013000 6.196000 -2.088000
v 11.513000 6.196000 -6.024000
v 11.513000 6.196000 -1.887000
v 12.013000 6.196000 -5.836000
v 12.013000 6.196000 -1.810000
v 12.513000 6.196000 -5.653000
v 12.513000 6.196000 -1.886000
v 13.013000 6.196000 -5.463000
v 13.013000 6.196000 -2.140000
v 13.513000 6.196000 -4.938000
v 13.513000 6.196000 -2.762000
v 10.013000 6.177000 -5.017000
v 10.013000 7.869000 -5.017000
v 10.513000 5.535000 -5.017000
v 10.513000 9.627000 -5.017000
v 11.013000 5.319000 -5.017000
v 11.013000 9.860000 -5.017000
v 11.513000 5.231000 -5.017000
v 11.513000 9.854000 -5.017000
v 12.013000 5.067000 -5.017000
v 12.013000 9.606000 -5.017000
v 12.513000 5.058000 -5.017000
v 12.513000 8.311000 -5.017000
v 13.013000 5.287000 -5.017000
v 13.013000 7.270000 -5.017000
v 10.760000 6.696000 -6.017000
v 11.822000 6.696000 -6.017000
v 10.141000 6.696000 -5.517000
v 12.722000 6.696000 -5.517000
v 9.925000 6.696000 -5.017000
v 13.366000 6.696000 -5.017000
v 9.894000 6.696000 -4.517000
v 13.576000 6.696000 -4.517000
v 9.911000 6.696000 -4.017000
v 13.614000 6.696000 -4.017000
v 10.096000 6.696000 -3.517000
v 13.674000 6.696000 -3.517000
v 10.328000 6.696000 -3.017000
v 13.689000 6.696000 -3.017000
v 10.565000 6.696000 -2.517000
v 13.522000 6.696000 -2.517000
v 10.972000 6.696000 -2.017000
v 13.249000 6.696000 -2.017000
v 10.013000 6.696000 -5.285000
v 10.013000 6.696000 -3.697000
v 10.513000 6.696000 -5.884000
v 10.513000 6.696000 -2.634000
v 11.013000 6.696000 -6.094000
v 11.013000 6.696000 -1.987000
v 11.513000 6.696000 -6.104000
v 11.513000 6.696000 -1.707000
v 12.013000 6.696000 -5.922000
v 12.013000 6.696000 -1.518000
v 12.513000 6.696000 -5.617000
v 12.513000 6.696000 -1.537000
v 13.013000 6.696000 -5.364000
v 13.013000 6.696000 -1.777000
v 13.513000 6.696000 -4.739000
v 13.513000 6.696000 -2.497000
v 10.013000 6.109000 -4.517000
v 10.013000 9.306000 -4.517000
v 10.513000 5.501000 -4.517000
v 10.513000 9.863000 -4.517000
v 11.013000 5.181000 -4.517000
v 11.013000 10.056000 -4.517000
v 11.513000 4.985000 -4.517000
v 11.513000 10.051000 -4.517000
v 12.013000 4.868000 -4.517000
v 12.013000 9.870000 -4.517000
v 12.513000 4.860000 -4.517000
v 12.513000 9.579000 -4.517000
v 13.013000 5.050000 -4.517000
v 13.013000 7.924000 -4.517000
v 13.513000 5.597000 -4.517000
v 13.513000 6.840000 -4.517000
v 10.638000 7.196000 -6.017000
v 11.909000 7.196000 -6.017000
v 10.090000 7.196000 -5.517000
v 12.502000 7.196000 -5.517000
v 9.896000 7.196000 -5.017000
v 13.049000 7.196000 -5.017000
v 9.839000 7.196000 -4.517000
v 13.307000 7.196000 -4.517000
v 9.850000 7.196000 -4.017000
v 13.507000 7.196000 -4.017000
v 9.965000 7.196000 -3.517000
v 13.648000 7.196000 -3.517000
v 10.168000 7.196000 -3.017000
v 13.653000 7.196000 -3.017000
v 10.453000 7.196000 -2.517000
v 13.583000 7.196000 -2.517000
v 10.688000 7.196000 -2.017000
v 13.373000 7.196000 -2.017000
v 11.463000 7.196000 -1.517000
v 12.784000 7.196000 -1.517000
v 10.013000 7.196000 -5.377000
v 10.013000 7.196000 -3.338000
v 10.513000 7.196000 -5.944000
v 10.513000 7.196000 -2.338000
v 11.013000 7.196000 -6.145000
v 11.013000 7.196000 -1.708000
v 11.513000 7.196000 -6.149000
v 11.513000 7.196000 -1.507000
v 12.013000 7.196000 -5.959000
v 12.013000 7.196000 -1.413000
v 12.513000 7.196000 -5.507000
v 12.513000 7.196000 -1.428000
v 13.013000 7.196000 -5.063000
v 13.013000 7.196000 -1.647000
v 13.513000 7.196000 -3.998000
v 13.513000 7.196000 -2.282000
v 10.013000 6.142000 -4.017000
v 10.013000 9.301000 -4.017000
v 10.513000 5.477000 -4.017000
v 10.513000 9.860000 -4.017000
v 11.013000 4.998000 -4.017000
v 11.013000 10.054000 -4.017000
v 11.513000 4.806000 -4.017000
v 11.513000 10.071000 -4.017000
v 12.013000 4.786000 -4.017000
v 12.013000 10.035000 -4.017000
v 12.513000 4.792000 -4.017000
v 12.513000 9.829000 -4.017000
v 13.013000 4.993000 -4.017000
v 13.013000 9.227000 -4.017000
v 13.513000 5.557000 -4.017000
v 13.513000 7.177000 -4.017000
v 10.889000 7.696000 -6.017000
v 11.659000 7.696000 -6.017000
v 10.204000 7.696000 -5.517000
v 12.348000 7.696000 -5.517000
v 9.979000 7.696000 -5.017000
v 12.858000 7.696000 -5.017000
v 9.837000 7.696000 -4.517000
v 13.102000 7.696000 -4.517000
v 9.835000 7.696000 -4.017000
v 13.396000 7.696000 -4.017000
v 9.863000 7.696000 -3.517000
v 13.591000 7.696000 -3.517000
v 10.044000 7.696000 -3.017000
v 13.615000 7.696000 -3.017000
v 10.354000 7.696000 -2.517000
v 13.620000 7.696000 -2.517000
v 10.582000 7.696000 -2.017000
v 13.445000 7.696000 -2.017000
v 11.185000 7.696000 -1.517000
v 12.949000 7.696000 -1.517000
v 10.013000 7.696000 -5.126000
v 10.013000 7.696000 -3.073000
v 10.513000 7.696000 -5.830000
v 10.513000 7.696000 -2.132000
v 11.013000 7.696000 -6.049000
v 11.013000 7.696000 -1.606000
v 11.513000 7.696000 -6.053000
v 11.513000 7.696000 -1.420000
v 12.013000 7.696000 -5.846000
v 12.013000 7.696000 -1.339000
v 12.513000 7.696000 -5.351000
v 12.513000 7.696000 -1.349000
v 13.013000 7.696000 -4.743000
v 13.013000 7.696000 -1.557000
v 13.513000 7.696000 -3.782000
v 13.513000 7.696000 -2.148000
v 10.013000 7.051000 -3.517000
v 10.013000 8.767000 -3.517000
v 10.513000 5.537000 -3.517000
v 10.513000 9.619000 -3.517000
v 11.013000 5.011000 -3.517000
v 11.013000 9.911000 -3.517000
v 11.513000 4.820000 -3.517000
v 11.513000 10.050000 -3.517000
v 12.013000 4.791000 -3.517000
v 12.013000 10.051000 -3.517000
v 12.513000 4.795000 -3.517000
v 12.513000 9.858000 -3.517000
v 13.013000 4.996000 -3.517000
v 13.013000 9.316000 -3.517000
v 13.513000 5.581000 -3.517000
v 13.513000 8.136000 -3.517000
v 10.470000 8.196000 -5.517000
v 12.058000 8.196000 -5.517000
v 10.046000 8.196000 -5.017000
v 12.558000 8.196000 -5.017000
v 9.857000 8.196000 -4.517000
v 12.940000 8.196000 -4.517000
v 9.856000 8.196000 -4.017000
v 13.271000 8.196000 -4.017000
v 9.888000 8.196000 -3.517000
v 13.494000 8.196000 -3.517000
v 10.097000 8.196000 -3.017000
v 13.622000 8.196000 -3.017000
v 10.374000 8.196000 -2.517000
v 13.622000 8.196000 -2.517000
v 10.594000 8.196000 -2.017000
v 13.427000 8.196000 -2.017000
v 11.199000 8.196000 -1.517000
v 12.875000 8.196000 -1.517000
v 10.013000 8.196000 -4.958000
v 10.013000 8.196000 -3.161000
v 10.513000 8.196000 -5.551000
v 10.513000 8.196000 -2.153000
v 11.013000 8.196000 -5.783000
v 11.013000 8.196000 -1.615000
v 11.513000 8.196000 -5.785000
v 11.513000 8.196000 -1.424000
v 12.013000 8.196000 -5.554000
v 12.013000 8.196000 -1.386000
v 12.513000 8.196000 -5.065000
v 12.513000 8.196000 -1.393000
v 13.013000 8.196000 -4.384000
v 13.013000 8.196000 -1.597000
v 13.513000 8.196000 -3.453000
v 13.513000 8.196000 -2.174000
v 10.513000 5.582000 -3.017000
v 10.513000 9.222000 -3.017000
v 11.013000 5.054000 -3.017000
v 11.013000 9.814000 -3.017000
v 11.513000 4.872000 -3.017000
v 11.513000 10.026000 -3.017000
v 12.013000 4.887000 -3.017000
v 12.013000 10.035000 -3.017000
v 12.513000 4.998000 -3.017000
v 12.513000 9.846000 -3.017000
v 13.013000 5.244000 -3.017000
v 13.013000 9.377000 -3.017000
v 13.513000 6.037000 -3.017000
v 13.513000 8.730000 -3.017000
v 10.607000 8.696000 -5.517000
v 11.894000 8.696000 -5.517000
v 10.064000 8.696000 -5.017000
v 12.450000 8.696000 -5.017000
v 9.871000 8.696000 -4.517000
v 12.924000 8.696000 -4.517000
v 9.873000 8.696000 -4.017000
v 13.137000 8.696000 -4.017000
v 9.987000 8.696000 -3.517000
v 13.323000 8.696000 -3.517000
v 10.219000 8.696000 -3.017000
v 13.526000 8.696000 -3.017000
v 10.476000 8.696000 -2.517000
v 13.526000 8.696000 -2.517000
v 10.710000 8.696000 -2.017000
v 13.314000 8.696000 -2.017000
v 11.528000 8.696000 -1.517000
v 12.623000 8.696000 -1.517000
v 10.013000 8.696000 -4.928000
v 10.013000 8.696000 -3.426000
v 10.513000 8.696000 -5.463000
v 10.513000 8.696000 -2.393000
v 11.013000 8.696000 -5.656000
v 11.013000 8.696000 -1.727000
v 11.513000 8.696000 -5.652000
v 11.513000 8.696000 -1.520000
v 12.013000 8.696000 -5.447000
v 12.013000 8.696000 -1.481000
v 12.513000 8.696000 -4.951000
v 12.513000 8.696000 -1.489000
v 13.013000 8.696000 -4.358000
v 13.013000 8.696000 -1.711000
v 13.513000 8.696000 -3.080000
v 13.513000 8.696000 -2.454000
v 10.513000 7.006000 -2.517000
v 10.513000 8.777000 -2.517000
v 11.013000 5.306000 -2.517000
v 11.013000 9.558000 -2.517000
v 11.513000 5.083000 -2.517000
v 11.513000 9.818000 -2.517000
v 12.013000 5.100000 -2.517000
v 12.013000 9.829000 -2.517000
v 12.513000 5.372000 -2.517000
v 12.513000 9.616000 -2.517000
v 13.013000 5.752000 -2.517000
v 13.013000 9.335000 -2.517000
v 13.513000 6.637000 -2.517000
v 13.513000 8.730000 -2.517000
v 11.639000 5.196000 -5.017000
v 12.877000 5.196000 -5.017000
v 10.986000 5.196000 -4.517000
v 13.206000 5.196000 -4.517000
v 10.767000 5.196000 -4.017000
v 13.257000 5.196000 -4.017000
v 10.776000 5.196000 -3.517000
v 13.252000 5.196000 -3.517000
v 10.820000 5.196000 -3.017000
v 12.951000 5.196000 -3.017000
v 11.185000 5.196000 -2.517000
v 12.262000 5.196000 -2.517000
v 10.845000 9.196000 -5.517000
v 11.655000 9.196000 -5.517000
v 10.174000 9.196000 -5.017000
v 12.328000 9.196000 -5.017000
v 9.964000 9.196000 -4.517000
v 12.808000 9.196000 -4.517000
v 9.967000 9.196000 -4.017000
v 13.026000 9.196000 -4.017000
v 10.182000 9.196000 -3.517000
v 13.077000 9.196000 -3.517000
v 10.500000 9.196000 -3.017000
v 13.189000 9.196000 -3.017000
v 10.731000 9.196000 -2.517000
v 13.188000 9.196000 -2.517000
v 11.177000 9.196000 -2.017000
v 12.869000 9.196000 -2.017000
v 11.013000 5.196000 -4.555000
v 11.013000 5.196000 -2.671000
v 11.513000 5.196000 -4.933000
v 11.513000 5.196000 -2.372000
v 12.013000 5.196000 -5.185000
v 12.013000 5.196000 -2.394000
v 12.513000 5.196000 -5.196000
v 12.513000 5.196000 -2.730000
v 13.013000 5.196000 -4.886000
v 13.013000 5.196000 -3.078000
v 10.013000 9.196000 -4.698000
v 10.013000 9.196000 -3.847000
v 10.513000 9.196000 -5.354000
v 10.513000 9.196000 -2.986000
v 11.013000 9.196000 -5.560000
v 11.013000 9.196000 -2.161000
v 11.513000 9.196000 -5.555000
v 11.513000 9.196000 -1.859000
v 12.013000 9.196000 -5.336000
v 12.013000 9.196000 -1.817000
v 12.513000 9.196000 -4.819000
v 12.513000 9.196000 -1.829000
v 13.013000 9.196000 -4.075000
v 13.013000 9.196000 -2.165000
v 11.013000 6.209000 -6.017000
v 11.013000 7.769000 -6.017000
v 11.513000 6.176000 -6.017000
v 11.513000 7.779000 -6.017000
v 11.013000 6.613000 -2.017000
v 11.013000 9.082000 -2.017000
v 11.513000 5.694000 -2.017000
v 11.513000 9.331000 -2.017000
v 12.013000 5.732000 -2.017000
v 12.013000 9.370000 -2.017000
v 12.513000 6.038000 -2.017000
v 12.513000 9.343000 -2.017000
v 13.013000 6.368000 -2.017000
v 13.013000 9.090000 -2.017000
v 10.661000 5.696000 -5.517000
v 12.641000 5.696000 -5.517000
v 10.321000 5.696000 -5.017000
v 13.344000 5.696000 -5.017000
v 10.283000 5.696000 -4.517000
v 13.558000 5.696000 -4.517000
v 10.298000 5.696000 -4.017000
v 13.572000 5.696000 -4.017000
v 10.411000 5.696000 -3.517000
v 13.558000 5.696000 -3.517000
v 10.459000 5.696000 -3.017000
v 13.350000 5.696000 -3.017000
v 10.687000 5.696000 -2.517000
v 12.930000 5.696000 -2.517000
v 11.508000 5.696000 -2.017000
v 11.939000 5.696000 -2.017000
v 10.609000 9.696000 -5.017000
v 11.891000 9.696000 -5.017000
v 10.298000 9.696000 -4.517000
v 12.350000 9.696000 -4.517000
v 10.301000 9.696000 -4.017000
v 12.682000 9.696000 -4.017000
v 10.611000 9.696000 -3.517000
v 12.724000 9.696000 -3.517000
v 10.862000 9.696000 -3.017000
v 12.712000 9.696000 -3.017000
v 11.204000 9.696000 -2.517000
v 12.370000 9.696000 -2.517000
v 10.513000 5.696000 -5.372000
v 10.513000 5.696000 -2.835000
v 11.013000 5.696000 -5.698000
v 11.013000 5.696000 -2.212000
v 11.513000 5.696000 -5.714000
v 11.513000 5.696000 -2.016000
v 12.013000 5.696000 -5.593000
v 12.013000 5.696000 -2.032000
v 12.513000 5.696000 -5.547000
v 12.513000 5.696000 -2.243000
v 13.013000 5.696000 -5.343000
v 13.013000 5.696000 -2.590000
v 13.513000 5.696000 -4.687000
v 13.513000 5.696000 -3.347000
v 10.513000 9.696000 -4.922000
v 10.513000 9.696000 -3.624000
v 11.013000 9.696000 -5.226000
v 11.013000 9.696000 -2.712000
v 11.513000 9.696000 -5.219000
v 11.513000 9.696000 -2.360000
v 12.013000 9.696000 -4.892000
v 12.013000 9.696000 -2.347000
v 12.513000 9.696000 -4.353000
v 12.513000 9.696000 -2.650000
v 10.513000 5.812000 -5.517000
v 10.513000 8.298000 -5.517000
v 11.013000 5.541000 -5.517000
v 11.013000 9.294000 -5.517000
v 11.513000 5.526000 -5.517000
v 11.513000 9.283000 -5.517000
v 12.013000 5.581000 -5.517000
v 12.013000 8.292000 -5.517000
v 12.513000 5.628000 -5.517000
v 12.513000 7.164000 -5.517000
v 11.513000 7.167000 -1.517000
v 11.513000 8.688000 -1.517000
v 12.013000 6.698000 -1.517000
v 12.013000 8.779000 -1.517000
v 12.513000 6.748000 -1.517000
v 12.513000 8.762000 -1.517000
f 83 7 35
f 35 7 5
f 7 53 5
f 55 53 7
f 55 103 53
f 105 103 55
f 105 155 103
f 157 155 105
f 36 155 221
f 155 207 221
f 155 157 207
f 221 207 269
f 269 207 255
f 269 255 337
f 337 255 315
f 315 84 337
f 85 369 37
f 37 369 367
f 35 367 369
f 35 369 83
f 221 205 36
f 269 253 205
f 269 205 221
f 337 313 253
f 337 253 269
f 84 383 407
f 84 407 38
f 337 84 38
f 313 337 38
f 383 86 407
f 87 301 327
f 39 327 301
f 85 39 301
f 37 39 85
f 407 381 38
f 407 86 381
f 86 40 381
f 86 88 40
f 329 89 327
f 327 89 87
f 327 39 41
f 327 41 329
f 40 90 42
f 88 90 40
f 299 43 329
f 43 89 329
f 43 91 89
f 329 41 299
f 382 413 44
f 382 42 413
f 42 92 413
f 42 90 92
f 93 43 45
f 93 91 43
f 254 279 46
f 314 347 279
f 314 279 254
f 413 384 44
f 44 384 314
f 384 94 314
f 94 347 314
f 413 92 384
f 335 95 300
f 95 45 300
f 95 93 45
f 47 335 300
f 156 183 48
f 208 96 183
f 156 208 183
f 206 208 156
f 279 256 46
f 256 206 46
f 256 208 206
f 256 279 316
f 316 279 347
f 347 94 316
f 335 302 95
f 405 97 368
f 368 97 47
f 97 302 47
f 302 335 47
f 6 33 405
f 6 405 368
f 54 81 33
f 54 33 6
f 106 98 81
f 54 106 81
f 104 106 54
f 183 158 48
f 158 104 48
f 158 106 104
f 183 96 158
f 405 370 97
f 370 405 8
f 8 405 33
f 8 33 56
f 56 33 81
f 81 98 56
f 135 9 83
f 83 9 7
f 9 55 7
f 57 55 9
f 57 105 55
f 107 105 57
f 107 157 105
f 159 157 107
f 159 207 157
f 209 207 159
f 209 255 207
f 257 255 209
f 257 315 255
f 317 315 257
f 317 136 315
f 315 136 84
f 137 371 85
f 85 371 369
f 83 369 371
f 83 371 135
f 383 84 136
f 383 136 385
f 385 138 383
f 383 138 86
f 139 303 87
f 87 303 301
f 85 301 303
f 85 303 137
f 86 140 88
f 138 140 86
f 141 87 89
f 141 139 87
f 88 142 90
f 140 142 88
f 143 89 91
f 143 141 89
f 90 144 92
f 142 144 90
f 145 91 93
f 145 143 91
f 384 415 94
f 384 92 415
f 92 146 415
f 92 144 146
f 147 93 95
f 147 145 93
f 208 233 96
f 256 281 233
f 256 233 208
f 316 349 281
f 316 281 256
f 415 386 94
f 94 386 316
f 386 148 316
f 148 349 316
f 415 146 386
f 95 302 147
f 147 302 304
f 149 304 302
f 149 302 97
f 108 150 98
f 108 98 106
f 158 108 106
f 158 160 108
f 233 210 96
f 210 158 96
f 210 160 158
f 210 233 258
f 258 233 281
f 258 281 318
f 318 281 349
f 349 148 318
f 97 370 149
f 149 370 372
f 8 372 370
f 8 10 372
f 56 10 8
f 56 58 10
f 56 98 58
f 58 98 150
f 20 9 135
f 68 57 20
f 20 57 9
f 187 109 68
f 109 57 68
f 109 107 57
f 109 159 107
f 161 159 109
f 161 209 159
f 211 209 161
f 211 257 209
f 259 257 211
f 338 317 188
f 317 259 188
f 317 257 259
f 338 136 317
f 189 373 137
f 137 373 371
f 11 20 135
f 371 11 135
f 373 11 371
f 20 11 59
f 20 59 68
f 187 68 59
f 319 338 188
f 190 408 385
f 190 385 136
f 319 190 136
f 338 319 136
f 408 138 385
f 191 305 139
f 139 305 303
f 137 303 305
f 137 305 189
f 387 408 190
f 387 192 408
f 192 138 408
f 192 140 138
f 193 139 141
f 193 191 139
f 140 194 142
f 192 194 140
f 195 141 143
f 195 193 141
f 142 196 144
f 194 196 142
f 197 143 145
f 197 195 143
f 144 198 146
f 196 198 144
f 199 145 147
f 199 197 145
f 388 200 148
f 388 148 386
f 386 146 388
f 388 146 198
f 147 304 199
f 199 304 306
f 201 306 304
f 201 304 149
f 108 133 150
f 160 185 133
f 160 133 108
f 212 202 185
f 160 212 185
f 210 212 160
f 258 212 210
f 258 260 212
f 318 260 258
f 318 320 260
f 318 148 320
f 320 148 200
f 149 372 201
f 201 372 374
f 10 374 372
f 10 12 374
f 58 12 10
f 58 60 12
f 133 110 150
f 110 58 150
f 110 60 58
f 110 133 162
f 162 133 185
f 185 202 162
f 120 109 187
f 172 161 120
f 120 161 109
f 222 211 172
f 172 211 161
f 270 259 222
f 222 259 211
f 270 188 259
f 237 375 189
f 189 375 373
f 375 11 373
f 13 11 375
f 13 59 11
f 61 59 13
f 111 120 187
f 59 111 187
f 61 111 59
f 120 111 163
f 120 163 172
f 172 163 213
f 172 213 222
f 222 213 261
f 222 261 270
f 319 188 270
f 261 319 270
f 321 319 261
f 321 238 319
f 319 238 190
f 239 307 191
f 191 307 305
f 189 305 307
f 189 307 237
f 387 190 238
f 387 238 389
f 389 240 387
f 387 240 192
f 241 191 193
f 241 239 191
f 192 242 194
f 240 242 192
f 243 193 195
f 243 241 193
f 194 244 196
f 242 244 194
f 245 195 197
f 245 243 195
f 196 246 198
f 244 246 196
f 308 245 336
f 245 199 336
f 245 197 199
f 247 308 336
f 390 248 200
f 390 200 388
f 388 198 390
f 390 198 246
f 306 336 199
f 376 247 406
f 406 247 201
f 247 336 201
f 336 306 201
f 249 376 406
f 212 235 202
f 260 283 235
f 260 235 212
f 322 250 283
f 260 322 283
f 320 322 260
f 320 200 322
f 322 200 248
f 374 406 201
f 406 374 249
f 374 14 249
f 374 12 14
f 60 14 12
f 60 62 14
f 110 62 60
f 110 112 62
f 162 112 110
f 162 164 112
f 235 214 202
f 214 162 202
f 214 164 162
f 214 235 262
f 262 235 283
f 283 250 262
f 394 375 237
f 22 13 394
f 394 13 375
f 70 61 22
f 22 61 13
f 285 113 70
f 113 61 70
f 113 111 61
f 113 163 111
f 165 163 113
f 165 213 163
f 215 213 165
f 215 261 213
f 263 261 215
f 340 321 286
f 321 263 286
f 321 261 263
f 340 238 321
f 328 307 239
f 377 394 237
f 377 237 307
f 287 377 307
f 328 287 307
f 394 377 15
f 394 15 22
f 22 15 63
f 22 63 70
f 285 70 63
f 323 340 286
f 288 410 389
f 288 389 238
f 323 288 238
f 340 323 238
f 410 240 389
f 328 239 309
f 239 289 309
f 239 241 289
f 287 328 309
f 391 410 288
f 391 290 410
f 290 240 410
f 290 242 240
f 291 241 243
f 291 289 241
f 242 292 244
f 290 292 242
f 310 291 334
f 291 245 334
f 291 243 245
f 293 310 334
f 392 294 416
f 416 246 392
f 246 292 392
f 246 244 292
f 308 334 245
f 378 293 404
f 404 293 247
f 293 334 247
f 334 308 247
f 295 378 404
f 248 390 416
f 294 248 416
f 296 248 294
f 246 416 390
f 376 404 247
f 16 295 34
f 34 295 249
f 295 404 249
f 404 376 249
f 297 16 34
f 324 298 250
f 324 250 322
f 322 248 324
f 324 248 296
f 14 34 249
f 34 14 297
f 14 64 297
f 14 62 64
f 112 64 62
f 112 114 64
f 164 114 112
f 164 166 114
f 214 166 164
f 214 216 166
f 262 216 214
f 262 264 216
f 262 250 264
f 264 250 298
f 351 49 71
f 71 49 123
f 123 49 99
f 123 99 175
f 175 99 151
f 151 352 175
f 353 1 25
f 351 71 1
f 71 25 1
f 71 73 25
f 71 125 73
f 71 123 125
f 123 177 125
f 123 175 177
f 175 352 177
f 177 352 354
f 25 2 353
f 2 25 50
f 50 25 73
f 50 73 100
f 100 73 125
f 100 125 152
f 152 125 177
f 177 354 152
f 122 113 285
f 174 165 122
f 122 165 113
f 224 215 174
f 174 215 165
f 272 263 224
f 224 263 215
f 272 286 263
f 396 377 287
f 24 15 396
f 396 15 377
f 355 65 24
f 65 15 24
f 65 63 15
f 115 122 285
f 63 115 285
f 65 115 63
f 122 115 167
f 122 167 174
f 174 167 217
f 174 217 224
f 224 217 265
f 224 265 272
f 356 342 323
f 356 323 286
f 265 356 286
f 272 265 286
f 342 288 323
f 330 309 289
f 379 396 287
f 379 287 309
f 357 379 309
f 330 357 309
f 396 379 17
f 396 17 24
f 355 24 17
f 325 342 356
f 358 412 391
f 358 391 288
f 325 358 288
f 342 325 288
f 412 290 391
f 291 332 289
f 289 332 330
f 400 380 357
f 330 400 357
f 332 400 330
f 359 380 400
f 360 414 412
f 360 412 358
f 290 412 292
f 292 412 414
f 310 332 291
f 293 402 310
f 402 332 310
f 402 400 332
f 359 400 402
f 359 402 361
f 294 392 414
f 360 294 414
f 362 294 360
f 292 414 392
f 378 402 293
f 18 361 32
f 32 361 295
f 361 402 295
f 402 378 295
f 363 18 32
f 326 364 350
f 350 296 326
f 296 362 326
f 296 294 362
f 16 32 295
f 66 363 82
f 82 363 297
f 363 32 297
f 32 16 297
f 66 82 134
f 66 134 116
f 116 134 186
f 116 186 168
f 168 186 236
f 168 236 218
f 218 236 284
f 218 284 266
f 350 364 266
f 350 266 284
f 324 350 284
f 298 324 284
f 296 350 324
f 64 82 297
f 114 134 64
f 64 134 82
f 166 186 114
f 114 186 134
f 216 236 166
f 166 236 186
f 264 284 216
f 216 284 236
f 298 284 264
f 417 3 21
f 21 3 69
f 69 3 51
f 69 51 121
f 121 51 101
f 121 101 173
f 173 101 153
f 173 153 223
f 223 153 203
f 203 418 223
f 419 365 395
f 417 21 365
f 21 395 365
f 21 23 395
f 69 49 351
f 23 69 351
f 21 69 23
f 121 99 49
f 121 49 69
f 173 151 99
f 173 99 121
f 225 352 151
f 173 225 151
f 223 225 173
f 251 273 418
f 273 223 418
f 273 225 223
f 273 251 341
f 341 251 311
f 311 420 341
f 397 421 395
f 395 421 419
f 23 1 353
f 397 23 353
f 395 23 397
f 23 351 1
f 227 354 352
f 227 352 225
f 225 275 227
f 225 273 275
f 273 343 275
f 273 341 343
f 341 420 343
f 343 420 422
f 399 423 397
f 397 423 421
f 397 353 2
f 27 397 2
f 399 397 27
f 50 75 27
f 50 27 2
f 100 127 75
f 100 75 50
f 152 179 127
f 152 127 100
f 179 152 354
f 227 179 354
f 229 179 227
f 424 229 252
f 229 275 252
f 229 227 275
f 252 275 312
f 312 275 343
f 343 422 312
f 401 425 399
f 399 425 423
f 399 29 401
f 399 27 29
f 27 77 29
f 27 75 77
f 426 77 102
f 77 127 102
f 77 75 127
f 102 127 154
f 154 127 179
f 154 179 204
f 204 179 229
f 229 424 204
f 401 366 425
f 366 401 4
f 4 401 29
f 4 29 52
f 52 29 77
f 77 426 52
f 72 65 355
f 124 115 72
f 72 115 65
f 176 167 124
f 124 167 115
f 226 217 176
f 176 217 167
f 274 265 226
f 226 265 217
f 274 356 265
f 398 379 357
f 26 17 398
f 398 17 379
f 17 26 355
f 26 72 355
f 26 74 72
f 74 427 117
f 124 74 117
f 72 74 124
f 124 117 169
f 124 169 176
f 176 169 219
f 176 219 226
f 226 219 428
f 276 226 428
f 274 226 276
f 356 274 325
f 274 344 325
f 274 276 344
f 344 358 325
f 380 398 357
f 359 28 380
f 28 398 380
f 28 26 398
f 76 26 28
f 74 26 76
f 427 74 76
f 427 76 429
f 267 276 428
f 276 267 430
f 346 276 430
f 344 276 346
f 358 344 360
f 360 344 346
f 361 30 359
f 359 30 28
f 78 28 30
f 76 28 78
f 429 76 78
f 429 78 431
f 432 348 346
f 432 346 430
f 360 346 362
f 362 346 348
f 18 30 361
f 363 80 18
f 80 30 18
f 80 78 30
f 132 118 431
f 78 132 431
f 80 132 78
f 118 132 184
f 118 184 170
f 170 184 234
f 170 234 220
f 220 234 282
f 220 282 268
f 348 432 268
f 348 268 282
f 326 348 282
f 364 326 282
f 362 348 326
f 66 80 363
f 116 132 66
f 66 132 80
f 168 184 116
f 116 184 132
f 218 234 168
f 168 234 184
f 266 282 218
f 218 282 234
f 364 282 266
f 35 5 19
f 19 5 67
f 67 5 53
f 67 53 119
f 119 53 103
f 119 103 171
f 171 103 155
f 155 36 171
f 37 367 393
f 35 19 367
f 367 19 393
f 19 3 393
f 3 417 393
f 67 51 3
f 67 3 19
f 119 101 51
f 119 51 67
f 171 153 101
f 171 101 119
f 153 171 36
f 205 153 36
f 203 153 205
f 418 203 271
f 203 253 271
f 203 205 253
f 271 253 339
f 339 253 313
f 313 38 339
f 365 419 393
f 419 37 393
f 419 39 37
f 393 417 365
f 271 251 418
f 339 311 251
f 339 251 271
f 38 381 409
f 38 409 420
f 339 38 420
f 311 339 420
f 381 40 409
f 41 419 421
f 41 39 419
f 411 422 420
f 411 420 409
f 409 40 411
f 411 40 42
f 43 299 331
f 423 331 299
f 41 423 299
f 421 423 41
f 252 277 424
f 312 345 277
f 312 277 252
f 411 382 422
f 422 382 312
f 382 44 312
f 44 345 312
f 411 42 382
f 333 45 331
f 331 45 43
f 331 423 425
f 331 425 333
f 102 129 426
f 154 181 129
f 154 129 102
f 204 231 181
f 204 181 154
f 277 254 424
f 424 254 204
f 254 46 204
f 46 231 204
f 254 277 314
f 314 277 345
f 345 44 314
f 333 300 45
f 403 47 366
f 366 47 425
f 47 300 425
f 300 333 425
f 4 31 403
f 4 403 366
f 52 79 31
f 52 31 4
f 79 52 426
f 129 79 426
f 131 79 129
f 48 131 156
f 131 181 156
f 131 129 181
f 156 181 206
f 206 181 231
f 231 46 206
f 403 368 47
f 368 403 6
f 6 403 31
f 6 31 54
f 54 31 79
f 54 79 104
f 104 79 131
f 131 48 104
f 126 117 427
f 178 169 126
f 126 169 117
f 228 219 178
f 178 219 169
f 228 428 219
f 429 128 427
f 427 128 126
f 180 126 128
f 178 126 180
f 230 178 180
f 228 178 230
f 428 228 267
f 228 278 267
f 228 230 278
f 278 430 267
f 431 130 429
f 429 130 128
f 182 128 130
f 180 128 182
f 232 180 182
f 230 180 232
f 280 230 232
f 278 230 280
f 430 278 432
f 432 278 280
f 118 130 431
f 170 182 118
f 118 182 130
f 220 232 170
f 170 232 182
f 268 280 220
f 220 280 232
f 432 280 268
