# Converted from NanoShaper .vert/.face
v -11.946000 13.727000 -16.500000
v -11.406000 13.727000 -16.500000
v -13.035000 13.727000 -16.000000
v -10.161000 13.727000 -16.000000
v -13.361000 13.727000 -15.500000
v -9.645000 13.727000 -15.500000
v -13.452000 13.727000 -15.000000
v -9.529000 13.727000 -15.000000
v -13.359000 13.727000 -14.500000
v -9.550000 13.727000 -14.500000
v -13.069000 13.727000 -14.000000
v -9.593000 13.727000 -14.000000
v -12.867000 13.727000 -13.500000
v -9.597000 13.727000 -13.500000
v -12.733000 13.727000 -13.000000
v -9.688000 13.727000 -13.000000
v -12.340000 13.727000 -12.500000
v -9.831000 13.727000 -12.500000
v -11.843000 13.727000 -12.000000
v -10.186000 13.727000 -12.000000
v -13.501000 17.727000 -20.500000
v -11.549000 17.727000 -20.500000
v -13.831000 17.727000 -20.000000
v -11.088000 17.727000 -20.000000
v -13.925000 17.727000 -19.500000
v -10.756000 17.727000 -19.500000
v -13.833000 17.727000 -19.000000
v -10.544000 17.727000 -19.000000
v -13.537000 17.727000 -18.500000
v -10.238000 17.727000 -18.500000
v -13.323000 17.727000 -18.000000
v -10.138000 17.727000 -18.000000
v -13.045000 17.727000 -17.500000
v -10.125000 17.727000 -17.500000
v -12.875000 17.727000 -17.000000
v -9.955000 17.727000 -17.000000
v -12.589000 17.727000 -16.500000
v -9.525000 17.727000 -16.500000
v -12.437000 17.727000 -16.000000
v -9.204000 17.727000 -16.000000
v -12.329000 17.727000 -15.500000
v -9.116000 17.727000 -15.500000
v -12.047000 17.727000 -15.000000
v -9.192000 17.727000 -15.000000
v -11.874000 17.727000 -14.500000
v -9.244000 17.727000 -14.500000
v -11.750000 17.727000 -14.000000
v -9.336000 17.727000 -14.000000
v -11.397000 17.727000 -13.500000
v -9.689000 17.727000 -13.500000
v -13.288000 13.727000 -15.661000
v -13.288000 13.727000 -14.345000
v -12.788000 13.727000 -16.194000
v -12.788000 13.727000 -13.144000
v -12.288000 13.727000 -16.417000
v -12.288000 13.727000 -12.458000
v -11.788000 13.727000 -16.519000
v -11.788000 13.727000 -11.939000
v -11.288000 13.727000 -16.485000
v -11.288000 13.727000 -11.604000
v -10.788000 13.727000 -16.451000
v -10.788000 13.727000 -11.595000
v -10.288000 13.727000 -16.124000
v -10.288000 13.727000 -11.896000
v -9.788000 13.727000 -15.706000
v -9.788000 13.727000 -12.607000
v -13.788000 17.727000 -20.100000
v -13.788000 17.727000 -18.895000
v -13.288000 17.727000 -20.671000
v -13.288000 17.727000 -17.922000
v -12.788000 17.727000 -20.872000
v -12.788000 17.727000 -16.827000
v -12.288000 17.727000 -20.877000
v -12.288000 17.727000 -15.409000
v -11.788000 17.727000 -20.687000
v -11.788000 17.727000 -14.111000
v -11.288000 17.727000 -20.193000
v -11.288000 17.727000 -13.415000
v -10.788000 17.727000 -19.577000
v -10.788000 17.727000 -13.203000
v -10.288000 17.727000 -18.610000
v -10.288000 17.727000 -13.205000
v -9.788000 17.727000 -16.765000
v -9.788000 17.727000 -13.422000
v -9.288000 17.727000 -16.184000
v -9.288000 17.727000 -14.147000
v -13.288000 16.824000 -18.000000
v -13.288000 18.682000 -18.000000
v -12.788000 16.133000 -18.000000
v -12.788000 19.289000 -18.000000
v -12.288000 15.853000 -18.000000
v -12.288000 19.479000 -18.000000
v -11.788000 15.813000 -18.000000
v -11.788000 19.460000 -18.000000
v -11.288000 16.004000 -18.000000
v -11.288000 19.254000 -18.000000
v -10.788000 16.479000 -18.000000
v -10.788000 18.864000 -18.000000
v -10.288000 17.048000 -18.000000
v -10.288000 18.313000 -18.000000
v -12.788000 12.993000 -14.000000
v -12.788000 14.953000 -14.000000
v -12.288000 12.554000 -14.000000
v -12.288000 16.424000 -14.000000
v -11.788000 12.359000 -14.000000
v -11.788000 17.629000 -14.000000
v -11.288000 12.358000 -14.000000
v -11.288000 18.287000 -14.000000
v -10.788000 12.552000 -14.000000
v -10.788000 18.495000 -14.000000
v -10.288000 13.028000 -14.000000
v -10.288000 18.493000 -14.000000
v -9.788000 13.552000 -14.000000
v -9.788000 18.280000 -14.000000
v -9.288000 14.162000 -14.000000
v -9.288000 15.388000 -14.000000
v -9.288000 16.416000 -14.000000
v -9.288000 17.598000 -14.000000
v -12.449000 14.227000 -16.500000
v -10.151000 14.227000 -16.500000
v -12.951000 14.227000 -16.000000
v -9.650000 14.227000 -16.000000
v -13.274000 14.227000 -15.500000
v -9.310000 14.227000 -15.500000
v -13.371000 14.227000 -15.000000
v -9.223000 14.227000 -15.000000
v -13.272000 14.227000 -14.500000
v -9.243000 14.227000 -14.500000
v -13.043000 14.227000 -14.000000
v -9.261000 14.227000 -14.000000
v -12.930000 14.227000 -13.500000
v -9.249000 14.227000 -13.500000
v -12.820000 14.227000 -13.000000
v -9.367000 14.227000 -13.000000
v -12.496000 14.227000 -12.500000
v -9.661000 14.227000 -12.500000
v -12.211000 14.227000 -12.000000
v -9.831000 14.227000 -12.000000
v -11.921000 14.227000 -11.500000
v -10.147000 14.227000 -11.500000
v -13.386000 18.227000 -20.500000
v -11.664000 18.227000 -20.500000
v -13.748000 18.227000 -20.000000
v -11.217000 18.227000 -20.000000
v -13.847000 18.227000 -19.500000
v -10.849000 18.227000 -19.500000
v -13.750000 18.227000 -19.000000
v -10.665000 18.227000 -19.000000
v -13.528000 18.227000 -18.500000
v -10.358000 18.227000 -18.500000
v -13.380000 18.227000 -18.000000
v -10.248000 18.227000 -18.000000
v -13.054000 18.227000 -17.500000
v -10.206000 18.227000 -17.500000
v -12.770000 18.227000 -17.000000
v -10.012000 18.227000 -17.000000
v -12.532000 18.227000 -16.500000
v -9.632000 18.227000 -16.500000
v -12.430000 18.227000 -16.000000
v -9.290000 18.227000 -16.000000
v -12.339000 18.227000 -15.500000
v -9.196000 18.227000 -15.500000
v -12.032000 18.227000 -15.000000
v -9.299000 18.227000 -15.000000
v -11.668000 18.227000 -14.500000
v -9.524000 18.227000 -14.500000
v -11.369000 18.227000 -14.000000
v -9.717000 18.227000 -14.000000
v -13.288000 14.227000 -15.465000
v -13.288000 14.227000 -14.542000
v -12.788000 14.227000 -16.184000
v -12.788000 14.227000 -12.929000
v -12.288000 14.227000 -16.618000
v -12.288000 14.227000 -12.161000
v -11.788000 14.227000 -16.805000
v -11.788000 14.227000 -11.321000
v -11.288000 14.227000 -16.819000
v -11.288000 14.227000 -11.007000
v -10.788000 14.227000 -16.818000
v -10.788000 14.227000 -11.008000
v -10.288000 14.227000 -16.610000
v -10.288000 14.227000 -11.326000
v -9.788000 14.227000 -16.116000
v -9.788000 14.227000 -12.116000
v -9.288000 14.227000 -15.438000
v -9.288000 14.227000 -13.225000
v -13.788000 18.227000 -19.889000
v -13.788000 18.227000 -19.106000
v -13.288000 18.227000 -20.577000
v -13.288000 18.227000 -17.817000
v -12.788000 18.227000 -20.793000
v -12.788000 18.227000 -17.041000
v -12.288000 18.227000 -20.798000
v -12.288000 18.227000 -15.380000
v -11.788000 18.227000 -20.595000
v -11.788000 18.227000 -14.674000
v -11.288000 18.227000 -20.070000
v -11.288000 18.227000 -13.882000
v -10.788000 18.227000 -19.319000
v -10.788000 18.227000 -13.556000
v -10.288000 18.227000 -18.300000
v -10.288000 18.227000 -13.559000
v -9.788000 18.227000 -16.681000
v -9.788000 18.227000 -13.895000
v -9.288000 18.227000 -15.995000
v -9.288000 18.227000 -15.027000
v -12.788000 16.507000 -17.500000
v -12.788000 18.840000 -17.500000
v -12.288000 15.881000 -17.500000
v -12.288000 19.194000 -17.500000
v -11.788000 15.724000 -17.500000
v -11.788000 19.297000 -17.500000
v -11.288000 15.842000 -17.500000
v -11.288000 19.222000 -17.500000
v -10.788000 16.322000 -17.500000
v -10.788000 18.945000 -17.500000
v -10.288000 17.099000 -17.500000
v -10.288000 18.434000 -17.500000
v -12.788000 13.412000 -13.500000
v -12.788000 14.815000 -13.500000
v -12.288000 12.683000 -13.500000
v -12.288000 16.295000 -13.500000
v -11.788000 12.466000 -13.500000
v -11.788000 17.024000 -13.500000
v -11.288000 12.465000 -13.500000
v -11.288000 17.873000 -13.500000
v -10.788000 12.678000 -13.500000
v -10.788000 18.174000 -13.500000
v -10.288000 13.093000 -13.500000
v -10.288000 18.171000 -13.500000
v -9.788000 13.570000 -13.500000
v -9.788000 17.861000 -13.500000
v -9.288000 14.140000 -13.500000
v -9.288000 15.373000 -13.500000
v -12.563000 14.727000 -16.500000
v -9.995000 14.727000 -16.500000
v -12.892000 14.727000 -16.000000
v -9.537000 14.727000 -16.000000
v -13.041000 14.727000 -15.500000
v -9.226000 14.727000 -15.500000
v -13.085000 14.727000 -15.000000
v -9.144000 14.727000 -15.000000
v -12.982000 14.727000 -14.500000
v -9.163000 14.727000 -14.500000
v -12.895000 14.727000 -14.000000
v -9.166000 14.727000 -14.000000
v -12.828000 14.727000 -13.500000
v -9.146000 14.727000 -13.500000
v -12.706000 14.727000 -13.000000
v -9.254000 14.727000 -13.000000
v -12.503000 14.727000 -12.500000
v -9.539000 14.727000 -12.500000
v -12.373000 14.727000 -12.000000
v -9.697000 14.727000 -12.000000
v -12.266000 14.727000 -11.500000
v -9.814000 14.727000 -11.500000
v -11.934000 14.727000 -11.000000
v -10.146000 14.727000 -11.000000
v -13.411000 18.727000 -20.000000
v -11.637000 18.727000 -20.000000
v -13.544000 18.727000 -19.500000
v -11.179000 18.727000 -19.500000
v -13.445000 18.727000 -19.000000
v -10.875000 18.727000 -19.000000
v -13.384000 18.727000 -18.500000
v -10.721000 18.727000 -18.500000
v -13.269000 18.727000 -18.000000
v -10.606000 18.727000 -18.000000
v -12.872000 18.727000 -17.500000
v -10.496000 18.727000 -17.500000
v -12.454000 18.727000 -17.000000
v -10.166000 18.727000 -17.000000
v -12.326000 18.727000 -16.500000
v -9.813000 18.727000 -16.500000
v -12.344000 18.727000 -16.000000
v -9.620000 18.727000 -16.000000
v -12.251000 18.727000 -15.500000
v -9.505000 18.727000 -15.500000
v -11.900000 18.727000 -15.000000
v -9.643000 18.727000 -15.000000
v -10.925000 18.727000 -14.500000
v -10.296000 18.727000 -14.500000
v -12.788000 14.727000 -16.214000
v -12.788000 14.727000 -13.236000
v -12.288000 14.727000 -16.726000
v -12.288000 14.727000 -11.564000
v -11.788000 14.727000 -16.921000
v -11.788000 14.727000 -10.882000
v -11.288000 14.727000 -16.947000
v -11.288000 14.727000 -10.671000
v -10.788000 14.727000 -16.931000
v -10.788000 14.727000 -10.672000
v -10.288000 14.727000 -16.742000
v -10.288000 14.727000 -10.885000
v -9.788000 14.727000 -16.246000
v -9.788000 14.727000 -11.577000
v -9.288000 14.727000 -15.647000
v -9.288000 14.727000 -12.925000
v -13.288000 18.727000 -20.172000
v -13.288000 18.727000 -18.044000
v -12.788000 18.727000 -20.482000
v -12.788000 18.727000 -17.427000
v -12.288000 18.727000 -20.488000
v -12.288000 18.727000 -15.608000
v -11.788000 18.727000 -20.201000
v -11.788000 18.727000 -14.912000
v -11.288000 18.727000 -19.628000
v -11.288000 18.727000 -14.622000
v -10.788000 18.727000 -18.725000
v -10.788000 18.727000 -14.485000
v -10.288000 18.727000 -17.152000
v -10.288000 18.727000 -14.503000
v -9.788000 18.727000 -16.437000
v -9.788000 18.727000 -14.809000
v -12.788000 17.252000 -17.000000
v -12.788000 18.183000 -17.000000
v -12.288000 16.065000 -17.000000
v -12.288000 18.934000 -17.000000
v -11.788000 15.048000 -17.000000
v -11.788000 19.244000 -17.000000
v -11.288000 14.954000 -17.000000
v -11.288000 19.324000 -17.000000
v -10.788000 15.503000 -17.000000
v -10.788000 19.228000 -17.000000
v -10.288000 16.849000 -17.000000
v -10.288000 18.894000 -17.000000
v -12.788000 13.905000 -13.000000
v -12.788000 14.483000 -13.000000
v -12.288000 13.118000 -13.000000
v -12.288000 15.987000 -13.000000
v -11.788000 12.823000 -13.000000
v -11.788000 16.751000 -13.000000
v -11.288000 12.770000 -13.000000
v -11.288000 17.061000 -13.000000
v -10.788000 12.862000 -13.000000
v -10.788000 17.296000 -13.000000
v -10.288000 13.070000 -13.000000
v -10.288000 17.173000 -13.000000
v -9.788000 13.576000 -13.000000
v -9.788000 16.146000 -13.000000
v -9.288000 14.460000 -13.000000
v -9.288000 15.052000 -13.000000
v -11.998000 15.227000 -17.000000
v -10.922000 15.227000 -17.000000
v -12.511000 15.227000 -16.500000
v -10.019000 15.227000 -16.500000
v -12.776000 15.227000 -16.000000
v -9.549000 15.227000 -16.000000
v -12.878000 15.227000 -15.500000
v -9.239000 15.227000 -15.500000
v -12.870000 15.227000 -15.000000
v -9.158000 15.227000 -15.000000
v -12.786000 15.227000 -14.500000
v -9.218000 15.227000 -14.500000
v -12.635000 15.227000 -14.000000
v -9.250000 15.227000 -14.000000
v -12.555000 15.227000 -13.500000
v -9.227000 15.227000 -13.500000
v -12.502000 15.227000 -13.000000
v -9.342000 15.227000 -13.000000
v -12.445000 15.227000 -12.500000
v -9.562000 15.227000 -12.500000
v -12.439000 15.227000 -12.000000
v -9.639000 15.227000 -12.000000
v -12.364000 15.227000 -11.500000
v -9.716000 15.227000 -11.500000
v -12.064000 15.227000 -11.000000
v -10.016000 15.227000 -11.000000
v -12.492000 19.227000 -19.500000
v -11.994000 19.227000 -19.500000
v -12.924000 19.227000 -19.000000
v -11.254000 19.227000 -19.000000
v -13.040000 19.227000 -18.500000
v -11.134000 19.227000 -18.500000
v -12.876000 19.227000 -18.000000
v -11.247000 19.227000 -18.000000
v -12.199000 19.227000 -17.500000
v -11.301000 19.227000 -17.500000
v -11.835000 19.227000 -17.000000
v -10.784000 19.227000 -17.000000
v -11.924000 19.227000 -16.500000
v -10.162000 19.227000 -16.500000
v -12.032000 19.227000 -16.000000
v -10.021000 19.227000 -16.000000
v -11.907000 19.227000 -15.500000
v -10.144000 19.227000 -15.500000
v -12.788000 15.227000 -15.971000
v -12.788000 15.227000 -14.506000
v -12.288000 15.227000 -16.787000
v -12.288000 15.227000 -11.320000
v -11.788000 15.227000 -17.058000
v -11.788000 15.227000 -10.771000
v -11.288000 15.227000 -17.071000
v -11.288000 15.227000 -10.577000
v -10.788000 15.227000 -16.953000
v -10.788000 15.227000 -10.578000
v -10.288000 15.227000 -16.721000
v -10.288000 15.227000 -10.774000
v -9.788000 15.227000 -16.226000
v -9.788000 15.227000 -11.328000
v -9.288000 15.227000 -15.620000
v -9.288000 15.227000 -13.143000
v -12.788000 19.227000 -19.246000
v -12.788000 19.227000 -17.889000
v -12.288000 19.227000 -19.538000
v -12.288000 19.227000 -17.555000
v -11.788000 19.227000 -19.441000
v -11.788000 19.227000 -15.330000
v -11.288000 19.227000 -19.056000
v -11.288000 19.227000 -17.815000
v -11.288000 19.227000 -17.451000
v -11.288000 19.227000 -15.015000
v -10.788000 19.227000 -17.003000
v -10.788000 19.227000 -15.009000
v -10.288000 19.227000 -16.669000
v -10.288000 19.227000 -15.298000
v -13.288000 17.156000 -20.500000
v -13.288000 18.376000 -20.500000
v -12.788000 16.826000 -20.500000
v -12.788000 18.707000 -20.500000
v -12.288000 16.819000 -20.500000
v -12.288000 18.714000 -20.500000
v -11.788000 17.125000 -20.500000
v -11.788000 18.407000 -20.500000
v -12.288000 13.968000 -16.500000
v -12.288000 18.799000 -16.500000
v -11.788000 13.697000 -16.500000
v -11.788000 19.322000 -16.500000
v -11.288000 13.743000 -16.500000
v -11.288000 19.528000 -16.500000
v -10.788000 13.771000 -16.500000
v -10.788000 19.533000 -16.500000
v -10.288000 14.052000 -16.500000
v -10.288000 19.325000 -16.500000
v -9.788000 17.079000 -16.500000
v -9.788000 18.657000 -16.500000
v -12.288000 13.647000 -12.500000
v -12.288000 15.874000 -12.500000
v -11.788000 13.225000 -12.500000
v -11.788000 16.478000 -12.500000
v -11.288000 13.008000 -12.500000
v -11.288000 16.721000 -12.500000
v -10.788000 12.995000 -12.500000
v -10.788000 16.796000 -12.500000
v -10.288000 13.194000 -12.500000
v -10.288000 16.578000 -12.500000
v -9.788000 13.831000 -12.500000
v -9.788000 15.871000 -12.500000
v -11.955000 15.727000 -17.500000
v -11.774000 15.727000 -17.500000
v -12.225000 15.727000 -17.000000
v -10.713000 15.727000 -17.000000
v -12.353000 15.727000 -16.500000
v -10.078000 15.727000 -16.500000
v -12.504000 15.727000 -16.000000
v -9.535000 15.727000 -16.000000
v -12.601000 15.727000 -15.500000
v -9.209000 15.727000 -15.500000
v -12.577000 15.727000 -15.000000
v -9.118000 15.727000 -15.000000
v -12.528000 15.727000 -14.500000
v -9.212000 15.727000 -14.500000
v -12.494000 15.727000 -14.000000
v -9.351000 15.727000 -14.000000
v -12.417000 15.727000 -13.500000
v -9.430000 15.727000 -13.500000
v -12.369000 15.727000 -13.000000
v -9.630000 15.727000 -13.000000
v -12.352000 15.727000 -12.500000
v -9.725000 15.727000 -12.500000
v -12.347000 15.727000 -12.000000
v -9.733000 15.727000 -12.000000
v -12.266000 15.727000 -11.500000
v -9.814000 15.727000 -11.500000
v -11.934000 15.727000 -11.000000
v -10.146000 15.727000 -11.000000
v -12.288000 15.727000 -16.773000
v -12.288000 15.727000 -11.564000
v -11.788000 15.727000 -17.507000
v -11.788000 15.727000 -10.882000
v -11.288000 15.727000 -17.356000
v -11.288000 15.727000 -10.671000
v -10.788000 15.727000 -17.043000
v -10.788000 15.727000 -10.672000
v -10.288000 15.727000 -16.685000
v -10.288000 15.727000 -10.885000
v -9.788000 15.727000 -16.209000
v -9.788000 15.727000 -11.578000
v -9.288000 15.727000 -15.672000
v -9.288000 15.727000 -14.284000
v -13.788000 17.431000 -20.000000
v -13.788000 18.101000 -20.000000
v -13.288000 16.706000 -20.000000
v -13.288000 18.827000 -20.000000
v -12.788000 16.486000 -20.000000
v -12.788000 19.046000 -20.000000
v -12.288000 16.481000 -20.000000
v -12.288000 19.051000 -20.000000
v -11.788000 16.680000 -20.000000
v -11.788000 18.845000 -20.000000
v -11.288000 17.148000 -20.000000
v -11.288000 18.343000 -20.000000
v -12.788000 13.105000 -16.000000
v -12.788000 15.200000 -16.000000
v -12.288000 12.803000 -16.000000
v -12.288000 18.859000 -16.000000
v -11.788000 12.810000 -16.000000
v -11.788000 19.427000 -16.000000
v -11.288000 13.125000 -16.000000
v -11.288000 19.628000 -16.000000
v -10.788000 13.436000 -16.000000
v -10.788000 19.632000 -16.000000
v -10.288000 13.655000 -16.000000
v -10.288000 19.442000 -16.000000
v -9.788000 14.025000 -16.000000
v -9.788000 18.934000 -16.000000
v -9.288000 17.295000 -16.000000
v -9.288000 18.220000 -16.000000
v -12.288000 14.442000 -12.000000
v -12.288000 15.859000 -12.000000
v -11.788000 13.675000 -12.000000
v -11.788000 16.409000 -12.000000
v -11.288000 13.370000 -12.000000
v -11.288000 16.612000 -12.000000
v -10.788000 13.352000 -12.000000
v -10.788000 16.628000 -12.000000
v -10.288000 13.628000 -12.000000
v -10.288000 16.424000 -12.000000
v -9.788000 14.336000 -12.000000
v -9.788000 15.851000 -12.000000
v -12.903000 16.227000 -19.000000
v -11.180000 16.227000 -19.000000
v -13.035000 16.227000 -18.500000
v -11.048000 16.227000 -18.500000
v -12.898000 16.227000 -18.000000
v -11.053000 16.227000 -18.000000
v -12.614000 16.227000 -17.500000
v -10.897000 16.227000 -17.500000
v -12.326000 16.227000 -17.000000
v -10.515000 16.227000 -17.000000
v -12.292000 16.227000 -16.500000
v -10.031000 16.227000 -16.500000
v -12.391000 16.227000 -16.000000
v -9.544000 16.227000 -16.000000
v -12.463000 16.227000 -15.500000
v -9.236000 16.227000 -15.500000
v -12.382000 16.227000 -15.000000
v -9.156000 16.227000 -15.000000
v -12.345000 16.227000 -14.500000
v -9.206000 16.227000 -14.500000
v -12.385000 16.227000 -14.000000
v -9.324000 16.227000 -14.000000
v -12.317000 16.227000 -13.500000
v -9.563000 16.227000 -13.500000
v -12.197000 16.227000 -13.000000
v -9.818000 16.227000 -13.000000
v -12.046000 16.227000 -12.500000
v -10.000000 16.227000 -12.500000
v -12.019000 16.227000 -12.000000
v -10.058000 16.227000 -12.000000
v -11.908000 16.227000 -11.500000
v -10.172000 16.227000 -11.500000
v -12.788000 16.227000 -19.178000
v -12.788000 16.227000 -17.801000
v -12.288000 16.227000 -19.495000
v -12.288000 16.227000 -13.286000
v -11.788000 16.227000 -19.465000
v -11.788000 16.227000 -11.322000
v -11.288000 16.227000 -19.153000
v -11.288000 16.227000 -11.007000
v -10.788000 16.227000 -17.350000
v -10.788000 16.227000 -11.008000
v -10.288000 16.227000 -16.763000
v -10.288000 16.227000 -11.327000
v -9.788000 16.227000 -16.223000
v -9.788000 16.227000 -13.065000
v -9.288000 16.227000 -15.627000
v -9.288000 16.227000 -14.138000
v -13.788000 17.162000 -19.500000
v -13.788000 18.370000 -19.500000
v -13.288000 16.592000 -19.500000
v -13.288000 18.940000 -19.500000
v -12.788000 16.350000 -19.500000
v -12.788000 19.160000 -19.500000
v -12.288000 16.230000 -19.500000
v -12.288000 19.245000 -19.500000
v -11.788000 16.262000 -19.500000
v -11.788000 19.175000 -19.500000
v -11.288000 16.578000 -19.500000
v -11.288000 18.844000 -19.500000
v -10.788000 17.452000 -19.500000
v -10.788000 18.031000 -19.500000
v -13.288000 13.325000 -15.500000
v -13.288000 14.189000 -15.500000
v -12.788000 12.674000 -15.500000
v -12.788000 15.405000 -15.500000
v -12.288000 12.469000 -15.500000
v -12.288000 18.616000 -15.500000
v -11.788000 12.475000 -15.500000
v -11.788000 19.322000 -15.500000
v -11.288000 12.693000 -15.500000
v -11.288000 19.539000 -15.500000
v -10.788000 13.101000 -15.500000
v -10.788000 19.544000 -15.500000
v -10.288000 13.381000 -15.500000
v -10.288000 19.338000 -15.500000
v -9.788000 13.611000 -15.500000
v -9.788000 18.957000 -15.500000
v -9.288000 14.290000 -15.500000
v -9.288000 18.431000 -15.500000
v -12.288000 14.783000 -11.500000
v -12.288000 15.669000 -11.500000
v -11.788000 14.103000 -11.500000
v -11.788000 16.319000 -11.500000
v -11.288000 13.827000 -11.500000
v -11.288000 16.527000 -11.500000
v -10.788000 13.818000 -11.500000
v -10.788000 16.526000 -11.500000
v -10.288000 14.089000 -11.500000
v -10.288000 16.316000 -11.500000
v -9.788000 14.795000 -11.500000
v -9.788000 15.657000 -11.500000
v -12.860000 12.727000 -15.500000
v -11.239000 12.727000 -15.500000
v -13.001000 12.727000 -15.000000
v -10.747000 12.727000 -15.000000
v -12.856000 12.727000 -14.500000
v -10.616000 12.727000 -14.500000
v -12.532000 12.727000 -14.000000
v -10.565000 12.727000 -14.000000
v -12.345000 12.727000 -13.500000
v -10.720000 12.727000 -13.500000
v -13.316000 16.727000 -20.000000
v -11.723000 16.727000 -20.000000
v -13.463000 16.727000 -19.500000
v -11.167000 16.727000 -19.500000
v -13.388000 16.727000 -19.000000
v -10.826000 16.727000 -19.000000
v -13.354000 16.727000 -18.500000
v -10.641000 16.727000 -18.500000
v -13.253000 16.727000 -18.000000
v -10.512000 16.727000 -18.000000
v -12.895000 16.727000 -17.500000
v -10.469000 16.727000 -17.500000
v -12.519000 16.727000 -17.000000
v -10.325000 16.727000 -17.000000
v -12.404000 16.727000 -16.500000
v -9.974000 16.727000 -16.500000
v -12.378000 16.727000 -16.000000
v -9.503000 16.727000 -16.000000
v -12.381000 16.727000 -15.500000
v -9.236000 16.727000 -15.500000
v -12.262000 16.727000 -15.000000
v -9.138000 16.727000 -15.000000
v -12.103000 16.727000 -14.500000
v -9.158000 16.727000 -14.500000
v -12.090000 16.727000 -14.000000
v -9.255000 16.727000 -14.000000
v -12.001000 16.727000 -13.500000
v -9.589000 16.727000 -13.500000
v -11.819000 16.727000 -13.000000
v -10.015000 16.727000 -13.000000
v -11.270000 16.727000 -12.500000
v -10.515000 16.727000 -12.500000
v -12.788000 12.727000 -15.601000
v -12.788000 12.727000 -14.405000
v -12.288000 12.727000 -15.922000
v -12.288000 12.727000 -13.422000
v -11.788000 12.727000 -15.914000
v -11.788000 12.727000 -13.097000
v -11.288000 12.727000 -15.564000
v -11.288000 12.727000 -13.070000
v -10.788000 12.727000 -15.064000
v -10.788000 12.727000 -13.395000
v -13.288000 16.727000 -20.043000
v -13.288000 16.727000 -18.093000
v -12.788000 16.727000 -20.397000
v -12.788000 16.727000 -17.392000
v -12.288000 16.727000 -20.405000
v -12.288000 16.727000 -15.063000
v -11.788000 16.727000 -20.077000
v -11.788000 16.727000 -12.957000
v -11.288000 16.727000 -19.619000
v -11.288000 16.727000 -12.513000
v -10.788000 16.727000 -18.898000
v -10.788000 16.727000 -12.348000
v -10.288000 16.727000 -16.921000
v -10.288000 16.727000 -12.706000
v -9.788000 16.727000 -16.310000
v -9.788000 16.727000 -13.262000
v -9.288000 16.727000 -15.617000
v -9.288000 16.727000 -13.924000
v -13.788000 17.422000 -19.000000
v -13.788000 18.110000 -19.000000
v -13.288000 16.607000 -19.000000
v -13.288000 18.905000 -19.000000
v -12.788000 16.137000 -19.000000
v -12.788000 19.321000 -19.000000
v -12.288000 15.927000 -19.000000
v -12.288000 19.507000 -19.000000
v -11.788000 15.928000 -19.000000
v -11.788000 19.488000 -19.000000
v -11.288000 16.142000 -19.000000
v -11.288000 19.253000 -19.000000
v -10.788000 16.832000 -19.000000
v -10.788000 18.488000 -19.000000
v -13.288000 13.098000 -15.000000
v -13.288000 14.415000 -15.000000
v -12.788000 12.565000 -15.000000
v -12.788000 15.393000 -15.000000
v -12.288000 12.377000 -15.000000
v -12.288000 16.652000 -15.000000
v -11.788000 12.380000 -15.000000
v -11.788000 18.891000 -15.000000
v -11.288000 12.465000 -15.000000
v -11.288000 19.211000 -15.000000
v -10.788000 12.695000 -15.000000
v -10.788000 19.217000 -15.000000
v -10.288000 13.186000 -15.000000
v -10.288000 19.055000 -15.000000
v -9.788000 13.512000 -15.000000
v -9.788000 18.840000 -15.000000
v -9.288000 14.072000 -15.000000
v -9.288000 18.197000 -15.000000
v -11.788000 14.526000 -11.000000
v -11.788000 15.926000 -11.000000
v -11.288000 14.232000 -11.000000
v -11.288000 16.220000 -11.000000
v -10.788000 14.233000 -11.000000
v -10.788000 16.219000 -11.000000
v -10.288000 14.531000 -11.000000
v -10.288000 15.922000 -11.000000
v -12.880000 13.227000 -16.000000
v -11.158000 13.227000 -16.000000
v -13.249000 13.227000 -15.500000
v -10.608000 13.227000 -15.500000
v -13.348000 13.227000 -15.000000
v -10.238000 13.227000 -15.000000
v -13.247000 13.227000 -14.500000
v -10.141000 13.227000 -14.500000
v -12.931000 13.227000 -14.000000
v -10.070000 13.227000 -14.000000
v -12.725000 13.227000 -13.500000
v -10.129000 13.227000 -13.500000
v -12.399000 13.227000 -13.000000
v -10.074000 13.227000 -13.000000
v -11.791000 13.227000 -12.500000
v -10.241000 13.227000 -12.500000
v -13.339000 17.227000 -20.500000
v -11.711000 17.227000 -20.500000
v -13.715000 17.227000 -20.000000
v -11.235000 17.227000 -20.000000
v -13.817000 17.227000 -19.500000
v -10.861000 17.227000 -19.500000
v -13.718000 17.227000 -19.000000
v -10.645000 17.227000 -19.000000
v -13.497000 17.227000 -18.500000
v -10.319000 17.227000 -18.500000
v -13.347000 17.227000 -18.000000
v -10.212000 17.227000 -18.000000
v -13.044000 17.227000 -17.500000
v -10.224000 17.227000 -17.500000
v -12.778000 17.227000 -17.000000
v -10.094000 17.227000 -17.000000
v -12.508000 17.227000 -16.500000
v -9.679000 17.227000 -16.500000
v -12.362000 17.227000 -16.000000
v -9.316000 17.227000 -16.000000
v -12.298000 17.227000 -15.500000
v -9.193000 17.227000 -15.500000
v -12.080000 17.227000 -15.000000
v -9.164000 17.227000 -15.000000
v -11.956000 17.227000 -14.500000
v -9.143000 17.227000 -14.500000
v -11.882000 17.227000 -14.000000
v -9.227000 17.227000 -14.000000
v -11.659000 17.227000 -13.500000
v -9.541000 17.227000 -13.500000
v -10.964000 17.227000 -13.000000
v -10.357000 17.227000 -13.000000
v -13.288000 13.227000 -15.394000
v -13.288000 13.227000 -14.612000
v -12.788000 13.227000 -16.070000
v -12.788000 13.227000 -13.673000
v -12.288000 13.227000 -16.277000
v -12.288000 13.227000 -12.872000
v -11.788000 13.227000 -16.272000
v -11.788000 13.227000 -12.498000
v -11.288000 13.227000 -16.082000
v -11.288000 13.227000 -12.146000
v -10.788000 13.227000 -15.645000
v -10.788000 13.227000 -12.127000
v -10.288000 13.227000 -15.137000
v -10.288000 13.227000 -12.439000
v -13.788000 17.227000 -19.769000
v -13.788000 17.227000 -19.226000
v -13.288000 17.227000 -20.540000
v -13.288000 17.227000 -17.868000
v -12.788000 17.227000 -20.762000
v -12.788000 17.227000 -17.023000
v -12.288000 17.227000 -20.767000
v -12.288000 17.227000 -15.464000
v -11.788000 17.227000 -20.558000
v -11.788000 17.227000 -13.738000
v -11.288000 17.227000 -20.047000
v -11.288000 17.227000 -13.145000
v -10.788000 17.227000 -19.293000
v -10.788000 17.227000 -12.958000
v -10.288000 17.227000 -18.420000
v -10.288000 17.227000 -13.024000
v -9.788000 17.227000 -16.600000
v -9.788000 17.227000 -13.296000
v -9.288000 17.227000 -15.925000
v -9.288000 17.227000 -13.858000
v -13.288000 16.576000 -18.500000
v -13.288000 18.920000 -18.500000
v -12.788000 16.029000 -18.500000
v -12.788000 19.413000 -18.500000
v -12.288000 15.835000 -18.500000
v -12.288000 19.586000 -18.500000
v -11.788000 15.836000 -18.500000
v -11.788000 19.569000 -18.500000
v -11.288000 16.032000 -18.500000
v -11.288000 19.350000 -18.500000
v -10.788000 16.545000 -18.500000
v -10.788000 18.810000 -18.500000
v -10.288000 17.322000 -18.500000
v -10.288000 18.040000 -18.500000
v -13.288000 13.331000 -14.500000
v -13.288000 14.182000 -14.500000
v -12.788000 12.677000 -14.500000
v -12.788000 15.222000 -14.500000
v -12.288000 12.463000 -14.500000
v -12.288000 16.369000 -14.500000
v -11.788000 12.363000 -14.500000
v -11.788000 17.992000 -14.500000
v -11.288000 12.376000 -14.500000
v -11.288000 18.603000 -14.500000
v -10.788000 12.589000 -14.500000
v -10.788000 18.737000 -14.500000
v -10.288000 13.094000 -14.500000
v -10.288000 18.725000 -14.500000
v -9.788000 13.527000 -14.500000
v -9.788000 18.489000 -14.500000
v -9.288000 14.115000 -14.500000
v -9.288000 17.832000 -14.500000
f 798 759 87
f 70 31 798
f 798 31 759
f 190 151 70
f 70 151 31
f 190 88 151
f 564 535 89
f 207 643 564
f 643 535 564
f 643 641 535
f 761 798 87
f 641 761 87
f 643 761 641
f 798 761 33
f 798 33 70
f 70 33 153
f 70 153 190
f 267 88 190
f 153 267 190
f 269 267 153
f 404 375 208
f 375 269 208
f 375 267 269
f 404 90 375
f 564 89 537
f 89 209 537
f 89 91 209
f 207 564 537
f 210 406 404
f 210 404 208
f 90 404 92
f 92 404 406
f 211 449 479
f 93 479 449
f 209 93 449
f 91 93 209
f 377 406 210
f 377 212 406
f 212 92 406
f 212 94 92
f 479 450 211
f 213 450 479
f 93 213 479
f 95 213 93
f 378 214 410
f 410 96 378
f 96 212 378
f 96 94 212
f 95 536 213
f 213 536 538
f 215 538 536
f 215 536 97
f 98 376 410
f 214 98 410
f 216 98 214
f 96 410 376
f 97 642 215
f 215 642 644
f 217 644 642
f 217 642 99
f 270 218 100
f 270 100 268
f 268 98 270
f 270 98 216
f 99 760 217
f 217 760 762
f 32 762 760
f 32 34 762
f 152 34 32
f 152 154 34
f 152 100 154
f 154 100 218
f 784 741 101
f 219 13 784
f 13 741 784
f 13 11 741
f 13 129 11
f 131 129 13
f 131 245 129
f 247 245 131
f 247 220 245
f 245 220 102
f 221 631 103
f 103 631 629
f 743 784 101
f 629 743 101
f 631 743 629
f 219 784 743
f 355 102 220
f 355 220 357
f 357 463 355
f 465 463 357
f 465 551 463
f 553 551 465
f 553 222 551
f 551 222 104
f 223 103 105
f 223 221 103
f 657 104 222
f 657 222 659
f 804 775 224
f 775 659 224
f 775 657 659
f 804 106 775
f 225 105 107
f 225 223 105
f 777 804 224
f 47 106 804
f 777 47 804
f 49 47 777
f 198 167 226
f 167 49 226
f 167 47 49
f 198 108 167
f 227 107 109
f 227 225 107
f 228 200 198
f 228 198 226
f 108 198 110
f 110 198 200
f 109 630 227
f 227 630 632
f 229 632 630
f 229 630 111
f 230 202 200
f 230 200 228
f 110 200 112
f 112 200 202
f 111 742 229
f 229 742 744
f 231 744 742
f 231 742 113
f 232 204 202
f 232 202 230
f 112 202 114
f 114 202 204
f 113 12 231
f 231 12 14
f 233 14 12
f 233 12 115
f 466 234 116
f 466 116 464
f 552 466 464
f 552 554 466
f 552 117 692
f 660 552 692
f 554 552 660
f 660 692 814
f 660 814 778
f 778 814 118
f 48 778 118
f 50 778 48
f 232 50 204
f 50 168 204
f 50 48 168
f 114 204 168
f 115 130 233
f 233 130 132
f 246 132 130
f 246 248 132
f 356 248 246
f 356 358 248
f 356 116 358
f 358 116 234
f 658 692 117
f 776 814 658
f 658 814 692
f 118 814 776
f 678 643 207
f 800 761 678
f 678 761 643
f 315 35 800
f 35 761 800
f 35 33 761
f 192 153 316
f 153 35 316
f 153 33 35
f 302 269 192
f 192 269 153
f 302 208 269
f 317 539 209
f 209 539 537
f 645 678 207
f 537 645 207
f 539 645 537
f 678 645 763
f 678 763 800
f 315 800 763
f 155 192 316
f 192 155 271
f 192 271 302
f 271 318 302
f 318 208 302
f 318 210 208
f 319 343 391
f 391 343 211
f 343 449 211
f 343 451 449
f 209 449 451
f 209 451 317
f 377 210 318
f 377 318 379
f 379 320 377
f 377 320 212
f 393 321 391
f 391 321 319
f 391 211 450
f 481 391 450
f 393 391 481
f 213 481 450
f 378 411 214
f 378 212 411
f 212 322 411
f 212 320 322
f 393 344 321
f 344 393 323
f 393 483 323
f 393 481 483
f 481 213 538
f 571 481 538
f 483 481 571
f 215 571 538
f 413 216 214
f 413 214 411
f 411 322 413
f 413 322 324
f 483 452 323
f 452 483 540
f 540 483 571
f 215 644 571
f 644 540 571
f 644 646 540
f 325 646 644
f 325 644 217
f 270 311 218
f 413 380 216
f 216 380 270
f 380 326 270
f 326 311 270
f 413 324 380
f 217 762 325
f 325 762 764
f 34 764 762
f 34 36 764
f 154 36 34
f 154 156 36
f 311 272 218
f 272 154 218
f 272 156 154
f 311 326 272
f 54 13 219
f 327 133 54
f 133 13 54
f 133 131 13
f 284 247 328
f 247 133 328
f 247 131 133
f 284 220 247
f 668 631 221
f 329 745 668
f 745 631 668
f 745 743 631
f 15 54 219
f 743 15 219
f 745 15 743
f 327 54 15
f 249 284 328
f 357 220 284
f 249 357 284
f 359 357 249
f 359 465 357
f 467 465 359
f 566 553 330
f 553 467 330
f 553 465 467
f 566 222 553
f 223 670 221
f 221 670 668
f 329 668 670
f 329 670 331
f 555 566 330
f 659 222 566
f 555 659 566
f 661 659 555
f 661 332 659
f 659 332 224
f 225 672 223
f 223 672 670
f 331 670 672
f 331 672 333
f 334 806 777
f 224 334 777
f 332 334 224
f 78 49 806
f 806 49 777
f 78 226 49
f 227 674 225
f 225 674 672
f 333 672 674
f 333 674 335
f 779 806 334
f 806 779 336
f 80 806 336
f 78 806 80
f 226 78 228
f 228 78 80
f 632 674 227
f 335 674 632
f 229 335 632
f 337 335 229
f 780 338 810
f 80 336 780
f 810 80 780
f 82 80 810
f 228 80 230
f 230 80 82
f 229 744 337
f 337 744 746
f 339 746 744
f 339 744 231
f 556 340 576
f 556 576 690
f 556 690 662
f 810 338 662
f 690 810 662
f 812 810 690
f 84 810 812
f 82 810 84
f 230 82 232
f 232 82 84
f 231 14 339
f 339 14 16
f 14 233 186
f 134 14 186
f 16 14 134
f 341 134 186
f 360 342 402
f 360 402 234
f 466 360 234
f 468 360 466
f 340 468 576
f 468 554 576
f 468 466 554
f 660 690 554
f 554 690 576
f 778 812 660
f 660 812 690
f 50 84 778
f 778 84 812
f 232 84 50
f 132 186 233
f 186 132 341
f 132 250 341
f 132 248 250
f 342 250 402
f 250 358 402
f 250 248 358
f 234 402 358
f 417 749 797
f 797 749 69
f 69 749 21
f 69 21 189
f 189 21 141
f 141 418 189
f 799 419 797
f 797 419 417
f 797 71 799
f 797 69 71
f 69 191 71
f 69 189 191
f 189 418 191
f 191 418 420
f 801 421 799
f 799 421 419
f 799 73 801
f 799 71 73
f 71 193 73
f 71 191 193
f 191 420 193
f 193 420 422
f 803 423 801
f 801 423 421
f 801 75 803
f 801 73 75
f 73 195 75
f 73 193 195
f 193 422 195
f 195 422 424
f 803 750 423
f 750 803 22
f 22 803 75
f 22 75 142
f 142 75 195
f 195 424 142
f 72 35 315
f 72 316 35
f 425 119 173
f 173 119 285
f 285 119 235
f 285 235 389
f 389 235 345
f 389 345 477
f 477 345 453
f 477 453 317
f 453 539 317
f 453 541 539
f 541 645 539
f 647 645 541
f 647 763 645
f 765 763 647
f 37 72 315
f 763 37 315
f 765 37 763
f 155 316 72
f 37 155 72
f 157 155 37
f 157 271 155
f 273 271 157
f 273 426 271
f 271 426 318
f 427 1 57
f 425 173 1
f 173 57 1
f 173 175 57
f 173 287 175
f 173 285 287
f 389 343 319
f 287 389 319
f 285 389 287
f 477 451 343
f 477 343 389
f 477 317 451
f 379 318 426
f 379 426 381
f 381 428 379
f 379 428 320
f 57 2 427
f 2 57 429
f 57 177 429
f 57 175 177
f 175 289 177
f 175 287 289
f 287 319 321
f 287 321 289
f 320 430 322
f 428 430 320
f 179 431 177
f 177 431 429
f 177 291 179
f 177 289 291
f 289 321 344
f 395 289 344
f 291 289 395
f 323 395 344
f 322 432 324
f 430 432 322
f 181 433 179
f 179 433 431
f 179 293 181
f 179 291 293
f 291 397 293
f 291 395 397
f 395 323 452
f 485 395 452
f 397 395 485
f 540 573 485
f 540 485 452
f 646 687 573
f 646 573 540
f 325 687 646
f 380 415 326
f 380 324 415
f 324 434 415
f 324 432 434
f 181 120 433
f 120 181 236
f 236 181 293
f 236 293 346
f 346 293 397
f 346 397 454
f 454 397 485
f 454 485 542
f 542 485 573
f 542 573 648
f 648 573 687
f 811 435 764
f 764 435 325
f 435 648 325
f 648 687 325
f 36 83 811
f 36 811 764
f 156 203 83
f 156 83 36
f 274 436 203
f 156 274 203
f 272 274 156
f 415 382 326
f 382 272 326
f 382 274 272
f 415 434 382
f 811 766 435
f 766 811 38
f 38 811 83
f 38 83 158
f 158 83 203
f 203 436 158
f 172 133 327
f 172 328 133
f 786 745 329
f 437 17 786
f 17 745 786
f 17 15 745
f 135 172 327
f 15 135 327
f 17 135 15
f 249 328 172
f 135 249 172
f 251 249 135
f 251 359 249
f 361 359 251
f 361 467 359
f 469 467 361
f 469 438 467
f 467 438 330
f 786 329 747
f 329 439 747
f 329 331 439
f 437 786 747
f 555 330 438
f 555 438 557
f 682 661 440
f 661 557 440
f 661 555 557
f 682 332 661
f 441 331 333
f 441 439 331
f 442 684 682
f 442 682 440
f 332 682 334
f 334 682 684
f 443 333 335
f 443 441 333
f 663 684 442
f 444 808 779
f 444 779 334
f 663 444 334
f 684 663 334
f 808 336 779
f 445 335 337
f 445 443 335
f 664 446 688
f 808 444 664
f 808 664 688
f 780 808 688
f 338 780 688
f 336 808 780
f 337 746 445
f 445 746 748
f 746 339 66
f 18 746 66
f 748 746 18
f 447 18 66
f 558 448 340
f 558 340 556
f 446 558 688
f 558 662 688
f 558 556 662
f 338 688 662
f 16 66 339
f 66 16 447
f 16 136 447
f 16 134 136
f 134 341 298
f 252 134 298
f 136 134 252
f 252 298 342
f 360 252 342
f 362 252 360
f 468 362 360
f 468 470 362
f 468 340 470
f 470 340 448
f 250 298 341
f 342 298 250
f 491 23 67
f 23 492 67
f 493 633 675
f 675 633 417
f 633 749 417
f 633 751 749
f 751 491 67
f 21 751 67
f 749 751 21
f 21 67 492
f 143 21 492
f 141 21 143
f 418 141 299
f 141 259 299
f 141 143 259
f 259 494 299
f 677 495 675
f 675 495 493
f 675 417 419
f 675 419 677
f 301 420 418
f 301 418 299
f 299 494 301
f 301 494 496
f 679 497 677
f 677 497 495
f 677 419 421
f 677 421 679
f 303 422 420
f 303 420 301
f 301 496 303
f 303 496 498
f 681 499 679
f 679 499 497
f 679 421 423
f 679 423 681
f 305 424 422
f 305 422 303
f 303 498 305
f 305 498 500
f 681 634 499
f 805 501 750
f 750 501 423
f 501 634 423
f 634 681 423
f 22 77 805
f 22 805 750
f 142 197 77
f 142 77 22
f 305 260 424
f 424 260 142
f 260 502 142
f 502 197 142
f 305 500 260
f 805 752 501
f 752 805 24
f 24 805 77
f 24 77 144
f 144 77 197
f 197 502 144
f 503 733 783
f 783 733 53
f 53 733 3
f 53 3 171
f 171 3 121
f 171 121 283
f 283 121 237
f 237 504 283
f 785 505 783
f 783 505 503
f 783 55 785
f 783 53 55
f 171 119 425
f 55 171 425
f 53 171 55
f 283 235 119
f 283 119 171
f 235 283 504
f 347 235 504
f 345 235 347
f 347 453 345
f 455 453 347
f 455 541 453
f 543 541 455
f 543 647 541
f 649 647 543
f 649 765 647
f 767 765 649
f 767 37 765
f 39 37 767
f 39 157 37
f 159 157 39
f 159 273 157
f 275 273 159
f 275 506 273
f 273 506 426
f 787 507 785
f 785 507 505
f 55 1 427
f 787 55 427
f 785 55 787
f 55 425 1
f 381 426 506
f 381 506 383
f 383 508 381
f 381 508 428
f 789 509 787
f 787 509 507
f 787 427 2
f 59 787 2
f 789 787 59
f 429 59 2
f 428 510 430
f 508 510 428
f 789 734 509
f 734 789 511
f 789 61 511
f 789 59 61
f 59 429 431
f 59 431 61
f 430 512 432
f 510 512 430
f 63 513 61
f 61 513 511
f 61 431 433
f 61 433 63
f 432 514 434
f 512 514 432
f 63 4 513
f 183 515 120
f 120 515 433
f 515 4 433
f 4 63 433
f 236 295 183
f 236 183 120
f 346 399 295
f 346 295 236
f 454 487 399
f 454 399 346
f 542 575 487
f 542 487 454
f 648 689 575
f 648 575 542
f 435 689 648
f 274 313 436
f 384 516 313
f 274 384 313
f 382 384 274
f 382 434 384
f 384 434 514
f 183 122 515
f 122 183 238
f 238 183 295
f 238 295 348
f 348 295 399
f 348 399 456
f 456 399 487
f 456 487 544
f 544 487 575
f 544 575 650
f 650 575 689
f 435 766 689
f 766 650 689
f 766 768 650
f 38 85 517
f 768 38 517
f 766 38 768
f 160 518 85
f 38 160 85
f 158 160 38
f 313 276 436
f 276 158 436
f 276 160 158
f 313 516 276
f 85 40 517
f 85 518 40
f 56 17 437
f 174 135 56
f 56 135 17
f 519 253 174
f 253 135 174
f 253 251 135
f 253 361 251
f 363 361 253
f 363 469 361
f 471 469 363
f 471 520 469
f 469 520 438
f 788 747 439
f 19 56 437
f 19 437 747
f 521 19 747
f 788 521 747
f 56 19 137
f 56 137 174
f 519 174 137
f 557 438 520
f 557 520 559
f 559 522 557
f 557 522 440
f 441 790 439
f 439 790 788
f 521 788 790
f 521 790 523
f 440 524 442
f 522 524 440
f 443 792 441
f 441 792 790
f 523 790 792
f 523 792 525
f 526 686 663
f 442 526 663
f 524 526 442
f 686 444 663
f 445 794 443
f 443 794 792
f 525 792 794
f 525 794 527
f 446 664 686
f 526 446 686
f 528 446 526
f 444 686 664
f 748 794 445
f 794 748 527
f 748 20 527
f 748 18 20
f 18 447 184
f 138 18 184
f 20 18 138
f 529 138 184
f 560 530 448
f 560 448 558
f 558 446 560
f 560 446 528
f 136 184 447
f 184 136 529
f 136 254 529
f 136 252 254
f 362 254 252
f 362 364 254
f 470 364 362
f 470 472 364
f 470 448 472
f 472 448 530
f 579 753 795
f 795 753 491
f 753 23 491
f 753 25 23
f 492 23 187
f 23 145 187
f 23 25 145
f 145 580 187
f 581 635 493
f 493 635 633
f 635 579 795
f 751 635 795
f 633 635 751
f 795 491 751
f 187 143 492
f 143 187 580
f 261 143 580
f 259 143 261
f 261 582 259
f 259 582 494
f 583 493 495
f 583 581 493
f 494 584 496
f 582 584 494
f 585 495 497
f 585 583 495
f 584 369 405
f 498 584 405
f 496 584 498
f 369 586 405
f 587 497 499
f 587 585 497
f 498 405 370
f 588 498 370
f 500 498 588
f 405 586 370
f 683 589 634
f 589 499 634
f 589 587 499
f 501 683 634
f 260 307 502
f 260 500 307
f 500 590 307
f 500 588 590
f 683 636 589
f 501 752 683
f 752 636 683
f 752 754 636
f 24 79 591
f 754 24 591
f 752 24 754
f 146 592 79
f 24 146 79
f 144 146 24
f 307 262 502
f 262 144 502
f 262 146 144
f 307 590 262
f 79 26 591
f 79 592 26
f 593 5 51
f 5 594 51
f 595 623 665
f 665 623 503
f 623 733 503
f 623 735 733
f 735 593 51
f 3 735 51
f 733 735 3
f 3 51 594
f 123 3 594
f 121 3 123
f 123 237 121
f 239 237 123
f 504 237 387
f 237 349 387
f 237 239 349
f 349 596 387
f 667 597 665
f 665 597 595
f 665 503 505
f 665 505 667
f 387 347 504
f 347 387 596
f 457 347 596
f 455 347 457
f 457 543 455
f 545 543 457
f 545 649 543
f 651 649 545
f 651 767 649
f 769 767 651
f 769 39 767
f 41 39 769
f 41 159 39
f 161 159 41
f 304 275 598
f 275 161 598
f 275 159 161
f 304 506 275
f 669 599 667
f 667 599 597
f 667 505 507
f 667 507 669
f 277 304 598
f 383 506 304
f 277 383 304
f 385 383 277
f 385 600 383
f 383 600 508
f 671 601 669
f 669 601 599
f 669 507 509
f 669 509 671
f 508 602 510
f 600 602 508
f 671 624 601
f 791 603 734
f 734 603 509
f 603 624 509
f 624 671 509
f 511 791 734
f 510 604 512
f 602 604 510
f 791 736 603
f 605 736 791
f 511 605 791
f 513 605 511
f 512 606 514
f 604 606 512
f 65 607 4
f 607 513 4
f 607 605 513
f 515 65 4
f 386 608 516
f 386 516 384
f 384 514 386
f 386 514 606
f 65 6 607
f 515 122 65
f 122 6 65
f 122 124 6
f 238 297 609
f 124 238 609
f 122 238 124
f 348 401 297
f 348 297 238
f 456 489 401
f 456 401 348
f 544 577 489
f 544 489 456
f 650 691 577
f 650 577 544
f 768 813 691
f 768 691 650
f 517 813 768
f 160 205 518
f 278 610 205
f 160 278 205
f 276 278 160
f 276 516 278
f 278 516 608
f 297 240 609
f 240 297 350
f 350 297 401
f 350 401 458
f 458 401 489
f 458 489 546
f 546 489 577
f 546 577 652
f 652 577 691
f 652 691 770
f 770 691 813
f 517 40 813
f 40 770 813
f 40 42 770
f 205 162 518
f 162 40 518
f 162 42 40
f 205 610 162
f 286 253 519
f 611 365 286
f 365 253 286
f 365 363 253
f 478 471 612
f 471 365 612
f 471 363 365
f 478 520 471
f 58 19 521
f 613 139 58
f 139 19 58
f 139 137 19
f 255 286 519
f 137 255 519
f 139 255 137
f 611 286 255
f 473 478 612
f 559 520 478
f 473 559 478
f 561 559 473
f 561 614 559
f 559 614 522
f 523 60 521
f 521 60 58
f 613 58 60
f 613 60 615
f 522 616 524
f 614 616 522
f 525 62 523
f 523 62 60
f 615 60 62
f 615 62 617
f 524 618 526
f 616 618 524
f 527 64 525
f 525 64 62
f 617 62 64
f 617 64 619
f 526 620 528
f 618 620 526
f 20 64 527
f 64 20 619
f 20 140 619
f 20 138 140
f 138 529 296
f 256 138 296
f 140 138 256
f 621 256 296
f 474 622 488
f 474 488 530
f 560 474 530
f 562 474 560
f 560 528 562
f 562 528 620
f 254 296 529
f 296 254 621
f 254 366 621
f 254 364 366
f 622 366 488
f 366 472 488
f 366 364 472
f 530 488 472
f 796 753 579
f 693 27 796
f 27 753 796
f 27 25 753
f 188 145 694
f 145 27 694
f 145 25 27
f 188 580 145
f 695 637 581
f 581 637 635
f 755 796 579
f 635 755 579
f 637 755 635
f 693 796 755
f 147 188 694
f 261 580 188
f 147 261 188
f 263 261 147
f 263 696 261
f 261 696 582
f 697 531 563
f 583 563 531
f 695 583 531
f 581 583 695
f 696 371 403
f 584 696 403
f 582 696 584
f 371 698 403
f 565 699 563
f 563 699 697
f 563 583 585
f 563 585 565
f 403 369 584
f 403 698 369
f 698 586 369
f 698 700 586
f 567 701 565
f 565 701 699
f 565 585 587
f 565 587 567
f 370 407 588
f 370 586 407
f 586 702 407
f 586 700 702
f 569 703 567
f 567 703 701
f 567 587 589
f 567 589 569
f 409 590 588
f 409 588 407
f 407 702 409
f 409 702 704
f 569 532 703
f 589 636 569
f 636 532 569
f 636 638 532
f 754 807 705
f 638 754 705
f 636 754 638
f 591 807 754
f 146 199 592
f 264 706 199
f 146 264 199
f 262 264 146
f 409 372 590
f 372 262 590
f 372 264 262
f 409 704 372
f 807 756 705
f 591 26 807
f 26 756 807
f 26 28 756
f 199 148 592
f 148 26 592
f 148 28 26
f 199 706 148
f 707 737 781
f 781 737 593
f 737 5 593
f 737 7 5
f 594 5 169
f 5 125 169
f 5 7 125
f 125 708 169
f 709 625 595
f 595 625 623
f 625 707 781
f 735 625 781
f 623 625 735
f 781 593 735
f 169 123 594
f 123 169 708
f 241 123 708
f 239 123 241
f 241 349 239
f 351 349 241
f 351 710 349
f 349 710 596
f 711 595 597
f 711 709 595
f 457 596 710
f 457 710 459
f 459 545 457
f 547 545 459
f 680 651 712
f 651 547 712
f 651 545 547
f 802 769 680
f 680 769 651
f 74 41 802
f 802 41 769
f 194 161 74
f 74 161 41
f 194 598 161
f 713 597 599
f 713 711 597
f 653 680 712
f 680 653 771
f 680 771 802
f 802 771 43
f 802 43 74
f 74 43 163
f 74 163 194
f 277 598 194
f 163 277 194
f 279 277 163
f 408 385 714
f 385 279 714
f 385 277 279
f 408 600 385
f 715 599 601
f 715 713 599
f 716 412 408
f 716 408 714
f 600 408 602
f 602 408 412
f 673 717 624
f 717 601 624
f 717 715 601
f 603 673 624
f 718 414 412
f 718 412 716
f 602 412 604
f 604 412 414
f 673 626 717
f 793 719 736
f 736 719 603
f 719 626 603
f 626 673 603
f 605 793 736
f 720 416 414
f 720 414 718
f 604 414 606
f 606 414 416
f 793 738 719
f 721 738 793
f 605 721 793
f 607 721 605
f 608 386 416
f 720 608 416
f 722 608 720
f 606 416 386
f 607 6 721
f 721 6 8
f 124 185 723
f 8 124 723
f 6 124 8
f 609 185 124
f 164 724 206
f 164 206 610
f 278 164 610
f 280 164 278
f 278 608 280
f 280 608 722
f 185 126 723
f 609 240 185
f 240 126 185
f 240 242 126
f 350 242 240
f 350 352 242
f 458 352 350
f 458 460 352
f 546 460 458
f 546 548 460
f 652 548 546
f 652 654 548
f 770 654 652
f 770 772 654
f 42 772 770
f 42 44 772
f 724 44 206
f 44 162 206
f 44 42 162
f 610 206 162
f 390 365 611
f 390 612 365
f 176 139 613
f 725 257 176
f 257 139 176
f 257 255 139
f 367 390 611
f 255 367 611
f 257 367 255
f 473 612 390
f 367 473 390
f 475 473 367
f 568 561 726
f 561 475 726
f 561 473 475
f 568 614 561
f 615 178 613
f 613 178 176
f 725 176 178
f 725 178 727
f 728 570 568
f 728 568 726
f 614 568 616
f 616 568 570
f 617 180 615
f 615 180 178
f 727 178 180
f 727 180 729
f 730 572 570
f 730 570 728
f 616 570 618
f 618 570 572
f 619 182 617
f 617 182 180
f 729 180 182
f 729 182 731
f 732 574 572
f 732 572 730
f 618 572 620
f 620 572 574
f 140 182 619
f 182 140 731
f 140 258 731
f 140 256 258
f 256 621 400
f 368 256 400
f 258 256 368
f 368 400 622
f 474 368 622
f 476 368 474
f 732 476 574
f 476 562 574
f 476 474 562
f 620 574 562
f 366 400 621
f 622 400 366
f 68 27 693
f 68 694 27
f 815 639 695
f 695 639 637
f 639 755 637
f 757 755 639
f 29 68 693
f 755 29 693
f 757 29 755
f 147 694 68
f 29 147 68
f 149 147 29
f 149 263 147
f 265 263 149
f 265 816 263
f 263 816 696
f 817 533 697
f 697 533 531
f 695 531 533
f 695 533 815
f 371 696 816
f 371 816 373
f 373 818 371
f 371 818 698
f 819 697 699
f 819 817 697
f 698 820 700
f 818 820 698
f 821 699 701
f 821 819 699
f 700 822 702
f 820 822 700
f 823 701 703
f 823 821 701
f 702 824 704
f 822 824 702
f 703 532 823
f 823 532 534
f 638 685 825
f 534 638 825
f 532 638 534
f 705 685 638
f 264 309 706
f 374 826 309
f 264 374 309
f 372 374 264
f 372 704 374
f 374 704 824
f 685 640 825
f 705 756 685
f 756 640 685
f 756 758 640
f 28 81 827
f 758 28 827
f 756 28 758
f 150 828 81
f 28 150 81
f 148 150 28
f 309 266 706
f 266 148 706
f 266 150 148
f 309 826 266
f 81 30 827
f 81 828 30
f 782 737 707
f 829 9 782
f 9 737 782
f 9 7 737
f 170 125 830
f 125 9 830
f 125 7 9
f 170 708 125
f 831 627 709
f 709 627 625
f 739 782 707
f 625 739 707
f 627 739 625
f 829 782 739
f 127 170 830
f 241 708 170
f 127 241 170
f 243 241 127
f 388 351 832
f 351 243 832
f 351 241 243
f 388 710 351
f 833 709 711
f 833 831 709
f 353 388 832
f 459 710 388
f 353 459 388
f 461 459 353
f 461 547 459
f 549 547 461
f 549 834 547
f 547 834 712
f 835 711 713
f 835 833 711
f 653 712 834
f 653 834 655
f 655 771 653
f 773 771 655
f 773 43 771
f 45 43 773
f 196 163 836
f 163 45 836
f 163 43 45
f 306 279 196
f 196 279 163
f 306 714 279
f 837 713 715
f 837 835 713
f 165 196 836
f 196 165 838
f 308 196 838
f 306 196 308
f 714 306 716
f 716 306 308
f 839 715 717
f 839 837 715
f 281 308 838
f 281 840 308
f 840 716 308
f 840 718 716
f 717 626 839
f 839 626 628
f 841 628 626
f 841 626 719
f 282 842 312
f 312 720 282
f 720 840 282
f 720 718 840
f 719 738 841
f 841 738 740
f 843 740 738
f 843 738 721
f 844 314 312
f 844 312 842
f 720 312 722
f 722 312 314
f 721 8 843
f 843 8 10
f 845 10 8
f 845 8 723
f 166 846 724
f 166 724 164
f 844 166 314
f 166 280 314
f 166 164 280
f 722 314 280
f 723 126 845
f 845 126 128
f 242 128 126
f 242 244 128
f 352 244 242
f 352 354 244
f 460 354 352
f 460 462 354
f 548 462 460
f 548 550 462
f 654 550 548
f 654 656 550
f 772 656 654
f 772 774 656
f 44 774 772
f 44 46 774
f 44 724 46
f 46 724 846
f 288 257 725
f 392 367 288
f 288 367 257
f 480 475 392
f 392 475 367
f 480 726 475
f 727 290 725
f 725 290 288
f 394 288 290
f 392 288 394
f 482 392 394
f 480 392 482
f 726 480 728
f 728 480 482
f 729 292 727
f 727 292 290
f 396 290 292
f 394 290 396
f 484 394 396
f 482 394 484
f 728 482 730
f 730 482 484
f 731 294 729
f 729 294 292
f 398 292 294
f 396 292 398
f 486 396 398
f 484 396 486
f 730 484 732
f 732 484 486
f 258 294 731
f 368 398 258
f 258 398 294
f 476 486 368
f 368 486 398
f 732 486 476
f 676 639 815
f 87 759 676
f 759 639 676
f 759 757 639
f 759 29 757
f 31 29 759
f 31 149 29
f 151 149 31
f 300 265 88
f 265 151 88
f 265 149 151
f 300 816 265
f 89 535 817
f 817 535 533
f 641 676 815
f 533 641 815
f 535 641 533
f 87 676 641
f 267 300 88
f 373 816 300
f 267 373 300
f 375 373 267
f 375 90 373
f 373 90 818
f 91 817 819
f 91 89 817
f 818 92 820
f 90 92 818
f 93 819 821
f 93 91 819
f 820 94 822
f 92 94 820
f 95 821 823
f 95 93 821
f 822 96 824
f 94 96 822
f 823 534 95
f 95 534 536
f 97 536 534
f 97 534 825
f 376 98 826
f 376 826 374
f 374 824 376
f 376 824 96
f 825 640 97
f 97 640 642
f 758 809 99
f 642 758 99
f 640 758 642
f 827 809 758
f 150 201 828
f 268 100 201
f 150 268 201
f 266 268 150
f 266 826 268
f 268 826 98
f 809 760 99
f 827 30 809
f 30 760 809
f 30 32 760
f 201 152 828
f 152 30 828
f 152 32 30
f 201 100 152
f 52 9 829
f 52 830 9
f 666 627 831
f 101 741 666
f 741 627 666
f 741 739 627
f 11 52 829
f 739 11 829
f 741 11 739
f 127 830 52
f 11 127 52
f 129 127 11
f 129 243 127
f 245 243 129
f 245 102 243
f 243 102 832
f 666 831 629
f 831 103 629
f 831 833 103
f 101 666 629
f 353 832 102
f 353 102 355
f 355 461 353
f 463 461 355
f 463 549 461
f 551 549 463
f 551 104 549
f 549 104 834
f 105 833 835
f 105 103 833
f 655 834 104
f 655 104 657
f 657 773 655
f 775 773 657
f 76 45 106
f 45 775 106
f 45 773 775
f 76 836 45
f 107 835 837
f 107 105 835
f 47 76 106
f 165 836 76
f 47 165 76
f 167 165 47
f 167 108 165
f 165 108 838
f 109 837 839
f 109 107 837
f 110 310 281
f 838 110 281
f 108 110 838
f 310 840 281
f 839 628 109
f 109 628 630
f 111 630 628
f 111 628 841
f 842 282 310
f 110 842 310
f 112 842 110
f 840 310 282
f 841 740 111
f 111 740 742
f 113 742 740
f 113 740 843
f 842 114 844
f 112 114 842
f 843 10 113
f 113 10 12
f 115 12 10
f 115 10 845
f 464 116 490
f 464 490 578
f 464 578 552
f 117 552 578
f 48 118 86
f 48 86 846
f 166 48 846
f 168 48 166
f 166 844 168
f 168 844 114
f 845 128 115
f 115 128 130
f 244 130 128
f 244 246 130
f 354 246 244
f 354 356 246
f 116 356 490
f 356 462 490
f 356 354 462
f 550 578 462
f 462 578 490
f 578 550 117
f 550 658 117
f 550 656 658
f 774 658 656
f 774 776 658
f 118 776 86
f 776 46 86
f 776 774 46
f 846 86 46
