# Converted from NanoShaper .vert/.face
v 14.357000 19.227000 13.750000
v 16.199000 19.227000 13.750000
v 14.064000 19.227000 14.250000
v 16.462000 19.227000 14.250000
v 13.794000 19.227000 14.750000
v 16.446000 19.227000 14.750000
v 13.410000 19.227000 15.250000
v 16.431000 19.227000 15.250000
v 13.192000 19.227000 15.750000
v 16.435000 19.227000 15.750000
v 13.124000 19.227000 16.250000
v 16.390000 19.227000 16.250000
v 13.108000 19.227000 16.750000
v 16.243000 19.227000 16.750000
v 13.080000 19.227000 17.250000
v 16.030000 19.227000 17.250000
v 13.060000 19.227000 17.750000
v 15.884000 19.227000 17.750000
v 13.054000 19.227000 18.250000
v 15.826000 19.227000 18.250000
v 13.161000 19.227000 18.750000
v 15.720000 19.227000 18.750000
v 13.370000 19.227000 19.250000
v 15.525000 19.227000 19.250000
v 13.543000 19.227000 19.750000
v 15.395000 19.227000 19.750000
v 13.535000 19.227000 20.250000
v 15.445000 19.227000 20.250000
v 13.551000 19.227000 20.750000
v 15.429000 19.227000 20.750000
v 13.898000 19.227000 21.250000
v 15.082000 19.227000 21.250000
v 13.212000 19.227000 15.680000
v 13.212000 19.227000 18.914000
v 13.712000 19.227000 14.834000
v 13.712000 19.227000 21.064000
v 14.212000 19.227000 13.914000
v 14.212000 19.227000 21.408000
v 14.712000 19.227000 13.549000
v 14.712000 19.227000 21.423000
v 15.212000 19.227000 13.466000
v 15.212000 19.227000 21.131000
v 15.712000 19.227000 13.466000
v 15.712000 19.227000 18.778000
v 16.212000 19.227000 13.764000
v 16.212000 19.227000 16.844000
v 13.212000 18.211000 16.750000
v 13.212000 21.328000 16.750000
v 13.712000 17.605000 16.750000
v 13.712000 21.913000 16.750000
v 14.212000 17.397000 16.750000
v 14.212000 22.114000 16.750000
v 14.712000 17.389000 16.750000
v 14.712000 22.169000 16.750000
v 15.212000 17.579000 16.750000
v 15.212000 22.172000 16.750000
v 15.712000 18.127000 16.750000
v 15.712000 22.052000 16.750000
v 16.212000 19.163000 16.750000
v 16.212000 21.862000 16.750000
v 16.712000 20.055000 16.750000
v 16.712000 21.320000 16.750000
v 13.212000 19.729000 20.750000
v 13.212000 20.725000 20.750000
v 13.712000 19.097000 20.750000
v 13.712000 21.356000 20.750000
v 14.212000 18.884000 20.750000
v 14.212000 21.570000 20.750000
v 14.712000 18.873000 20.750000
v 14.712000 21.580000 20.750000
v 15.212000 19.061000 20.750000
v 15.212000 21.393000 20.750000
v 15.712000 19.604000 20.750000
v 15.712000 20.849000 20.750000
v 14.508000 19.727000 13.250000
v 16.003000 19.727000 13.250000
v 13.900000 19.727000 13.750000
v 16.580000 19.727000 13.750000
v 13.692000 19.727000 14.250000
v 16.768000 19.727000 14.250000
v 13.383000 19.727000 14.750000
v 16.761000 19.727000 14.750000
v 13.150000 19.727000 15.250000
v 16.758000 19.727000 15.250000
v 13.086000 19.727000 15.750000
v 16.755000 19.727000 15.750000
v 13.083000 19.727000 16.250000
v 16.713000 19.727000 16.250000
v 13.103000 19.727000 16.750000
v 16.525000 19.727000 16.750000
v 13.047000 19.727000 17.250000
v 16.268000 19.727000 17.250000
v 13.037000 19.727000 17.750000
v 16.038000 19.727000 17.750000
v 13.061000 19.727000 18.250000
v 15.899000 19.727000 18.250000
v 13.065000 19.727000 18.750000
v 15.818000 19.727000 18.750000
v 13.218000 19.727000 19.250000
v 15.688000 19.727000 19.250000
v 13.279000 19.727000 19.750000
v 15.670000 19.727000 19.750000
v 13.201000 19.727000 20.250000
v 15.779000 19.727000 20.250000
v 13.213000 19.727000 20.750000
v 15.767000 19.727000 20.750000
v 13.441000 19.727000 21.250000
v 15.539000 19.727000 21.250000
v 14.227000 19.727000 21.750000
v 14.753000 19.727000 21.750000
v 13.212000 19.727000 15.052000
v 13.212000 19.727000 19.228000
v 13.212000 19.727000 20.192000
v 13.212000 19.727000 20.746000
v 13.712000 19.727000 14.196000
v 13.712000 19.727000 21.520000
v 14.212000 19.727000 13.416000
v 14.212000 19.727000 21.746000
v 14.712000 19.727000 13.187000
v 14.712000 19.727000 21.757000
v 15.212000 19.727000 13.153000
v 15.212000 19.727000 21.559000
v 15.712000 19.727000 13.157000
v 15.712000 19.727000 19.136000
v 15.712000 19.727000 19.983000
v 15.712000 19.727000 20.934000
v 16.212000 19.727000 13.367000
v 16.212000 19.727000 17.375000
v 16.712000 19.727000 14.024000
v 16.712000 19.727000 16.257000
v 14.712000 19.598000 13.250000
v 14.712000 20.938000 13.250000
v 15.212000 19.518000 13.250000
v 15.212000 21.408000 13.250000
v 15.712000 19.521000 13.250000
v 15.712000 21.440000 13.250000
v 16.212000 20.653000 13.250000
v 16.212000 20.861000 13.250000
v 13.212000 18.524000 17.250000
v 13.212000 20.903000 17.250000
v 13.712000 17.830000 17.250000
v 13.712000 21.666000 17.250000
v 14.212000 17.592000 17.250000
v 14.212000 21.960000 17.250000
v 14.712000 17.585000 17.250000
v 14.712000 22.079000 17.250000
v 15.212000 17.808000 17.250000
v 15.212000 22.083000 17.250000
v 15.712000 18.496000 17.250000
v 15.712000 21.924000 17.250000
v 16.212000 19.637000 17.250000
v 16.212000 21.640000 17.250000
v 13.712000 19.363000 21.250000
v 13.712000 21.090000 21.250000
v 14.212000 19.098000 21.250000
v 14.212000 21.355000 21.250000
v 14.712000 19.086000 21.250000
v 14.712000 21.367000 21.250000
v 15.212000 19.316000 21.250000
v 15.212000 21.137000 21.250000
v 14.271000 20.227000 13.250000
v 16.170000 20.227000 13.250000
v 13.777000 20.227000 13.750000
v 16.669000 20.227000 13.750000
v 13.582000 20.227000 14.250000
v 16.846000 20.227000 14.250000
v 13.286000 20.227000 14.750000
v 16.846000 20.227000 14.750000
v 13.070000 20.227000 15.250000
v 16.848000 20.227000 15.250000
v 13.034000 20.227000 15.750000
v 16.845000 20.227000 15.750000
v 13.026000 20.227000 16.250000
v 16.816000 20.227000 16.250000
v 13.036000 20.227000 16.750000
v 16.786000 20.227000 16.750000
v 13.056000 20.227000 17.250000
v 16.589000 20.227000 17.250000
v 13.117000 20.227000 17.750000
v 16.269000 20.227000 17.750000
v 13.140000 20.227000 18.250000
v 16.057000 20.227000 18.250000
v 13.150000 20.227000 18.750000
v 15.797000 20.227000 18.750000
v 13.258000 20.227000 19.250000
v 15.672000 20.227000 19.250000
v 13.234000 20.227000 19.750000
v 15.726000 20.227000 19.750000
v 13.107000 20.227000 20.250000
v 15.873000 20.227000 20.250000
v 13.118000 20.227000 20.750000
v 15.861000 20.227000 20.750000
v 13.328000 20.227000 21.250000
v 15.652000 20.227000 21.250000
v 13.925000 20.227000 21.750000
v 15.055000 20.227000 21.750000
v 13.212000 20.227000 14.869000
v 13.212000 20.227000 18.987000
v 13.212000 20.227000 19.850000
v 13.212000 20.227000 21.040000
v 13.712000 20.227000 13.876000
v 13.712000 20.227000 21.633000
v 14.212000 20.227000 13.287000
v 14.212000 20.227000 21.841000
v 14.712000 20.227000 13.079000
v 14.712000 20.227000 21.851000
v 15.212000 20.227000 13.063000
v 15.212000 20.227000 21.668000
v 15.712000 20.227000 13.080000
v 15.712000 20.227000 18.996000
v 15.712000 20.227000 19.693000
v 15.712000 20.227000 21.152000
v 16.212000 20.227000 13.275000
v 16.212000 20.227000 17.903000
v 16.712000 20.227000 13.828000
v 16.712000 20.227000 17.012000
v 14.212000 19.330000 13.750000
v 14.212000 21.191000 13.750000
v 14.712000 19.081000 13.750000
v 14.712000 21.670000 13.750000
v 15.212000 19.002000 13.750000
v 15.212000 21.931000 13.750000
v 15.712000 19.002000 13.750000
v 15.712000 21.949000 13.750000
v 16.212000 19.237000 13.750000
v 16.212000 21.739000 13.750000
v 16.712000 20.663000 13.750000
v 16.712000 20.851000 13.750000
v 13.212000 18.552000 17.750000
v 13.212000 20.745000 17.750000
v 13.712000 17.981000 17.750000
v 13.712000 21.402000 17.750000
v 14.212000 17.773000 17.750000
v 14.212000 21.868000 17.750000
v 14.712000 17.776000 17.750000
v 14.712000 22.059000 17.750000
v 15.212000 17.997000 17.750000
v 15.212000 22.054000 17.750000
v 15.712000 18.605000 17.750000
v 15.712000 21.848000 17.750000
v 16.212000 20.103000 17.750000
v 16.212000 21.286000 17.750000
v 14.212000 19.734000 21.750000
v 14.212000 20.719000 21.750000
v 14.712000 19.707000 21.750000
v 14.712000 20.746000 21.750000
v 14.442000 20.727000 13.250000
v 16.219000 20.727000 13.250000
v 13.869000 20.727000 13.750000
v 16.715000 20.727000 13.750000
v 13.616000 20.727000 14.250000
v 16.890000 20.727000 14.250000
v 13.257000 20.727000 14.750000
v 16.875000 20.727000 14.750000
v 13.078000 20.727000 15.250000
v 16.866000 20.727000 15.250000
v 13.075000 20.727000 15.750000
v 16.889000 20.727000 15.750000
v 13.070000 20.727000 16.250000
v 16.889000 20.727000 16.250000
v 13.083000 20.727000 16.750000
v 16.865000 20.727000 16.750000
v 13.139000 20.727000 17.250000
v 16.680000 20.727000 17.250000
v 13.205000 20.727000 17.750000
v 16.359000 20.727000 17.750000
v 13.364000 20.727000 18.250000
v 16.148000 20.727000 18.250000
v 13.471000 20.727000 18.750000
v 15.803000 20.727000 18.750000
v 13.513000 20.727000 19.250000
v 15.621000 20.727000 19.250000
v 13.379000 20.727000 19.750000
v 15.645000 20.727000 19.750000
v 13.201000 20.727000 20.250000
v 15.779000 20.727000 20.250000
v 13.213000 20.727000 20.750000
v 15.767000 20.727000 20.750000
v 13.441000 20.727000 21.250000
v 15.539000 20.727000 21.250000
v 14.226000 20.727000 21.750000
v 14.754000 20.727000 21.750000
v 13.212000 20.727000 14.832000
v 13.212000 20.727000 17.778000
v 13.212000 20.727000 20.191000
v 13.212000 20.727000 20.746000
v 13.712000 20.727000 14.071000
v 13.712000 20.727000 21.520000
v 14.212000 20.727000 13.383000
v 14.212000 20.727000 21.746000
v 14.712000 20.727000 13.160000
v 14.712000 20.727000 21.757000
v 15.212000 20.727000 13.081000
v 15.212000 20.727000 21.559000
v 15.712000 20.727000 13.069000
v 15.712000 20.727000 18.931000
v 15.712000 20.727000 19.999000
v 15.712000 20.727000 20.934000
v 16.212000 20.727000 13.245000
v 16.212000 20.727000 18.129000
v 16.712000 20.727000 13.744000
v 16.712000 20.727000 17.194000
v 13.712000 19.684000 14.250000
v 13.712000 20.994000 14.250000
v 14.212000 19.108000 14.250000
v 14.212000 21.561000 14.250000
v 14.712000 18.883000 14.250000
v 14.712000 21.972000 14.250000
v 15.212000 18.807000 14.250000
v 15.212000 22.130000 14.250000
v 15.712000 18.822000 14.250000
v 15.712000 22.127000 14.250000
v 16.212000 19.020000 14.250000
v 16.212000 21.948000 14.250000
v 16.712000 19.589000 14.250000
v 16.712000 21.438000 14.250000
v 13.212000 18.538000 18.250000
v 13.212000 20.432000 18.250000
v 13.712000 18.002000 18.250000
v 13.712000 21.129000 18.250000
v 14.212000 17.815000 18.250000
v 14.212000 21.647000 18.250000
v 14.712000 17.823000 18.250000
v 14.712000 21.875000 18.250000
v 15.212000 18.032000 18.250000
v 15.212000 21.868000 18.250000
v 15.712000 18.636000 18.250000
v 15.712000 21.622000 18.250000
v 14.968000 21.227000 13.250000
v 16.044000 21.227000 13.250000
v 14.257000 21.227000 13.750000
v 16.621000 21.227000 13.750000
v 13.869000 21.227000 14.250000
v 16.809000 21.227000 14.250000
v 13.383000 21.227000 14.750000
v 16.793000 21.227000 14.750000
v 13.186000 21.227000 15.250000
v 16.783000 21.227000 15.250000
v 13.172000 21.227000 15.750000
v 16.807000 21.227000 15.750000
v 13.155000 21.227000 16.250000
v 16.808000 21.227000 16.250000
v 13.171000 21.227000 16.750000
v 16.756000 21.227000 16.750000
v 13.356000 21.227000 17.250000
v 16.553000 21.227000 17.250000
v 13.515000 21.227000 17.750000
v 16.241000 21.227000 17.750000
v 13.820000 21.227000 18.250000
v 16.025000 21.227000 18.250000
v 14.070000 21.227000 18.750000
v 15.576000 21.227000 18.750000
v 14.102000 21.227000 19.250000
v 15.262000 21.227000 19.250000
v 13.816000 21.227000 19.750000
v 15.268000 21.227000 19.750000
v 13.535000 21.227000 20.250000
v 15.445000 21.227000 20.250000
v 13.551000 21.227000 20.750000
v 15.429000 21.227000 20.750000
v 13.898000 21.227000 21.250000
v 15.082000 21.227000 21.250000
v 13.212000 21.227000 15.129000
v 13.212000 21.227000 16.902000
v 13.712000 21.227000 14.402000
v 13.712000 21.227000 18.114000
v 13.712000 21.227000 19.873000
v 13.712000 21.227000 21.065000
v 14.212000 21.227000 13.799000
v 14.212000 21.227000 21.408000
v 14.712000 21.227000 13.393000
v 14.712000 21.227000 21.423000
v 15.212000 21.227000 13.168000
v 15.212000 21.227000 21.131000
v 15.712000 21.227000 13.151000
v 15.712000 21.227000 18.600000
v 16.212000 21.227000 13.340000
v 16.212000 21.227000 17.827000
v 16.712000 21.227000 13.920000
v 16.712000 21.227000 16.924000
v 13.712000 19.292000 14.750000
v 13.712000 21.632000 14.750000
v 14.212000 18.851000 14.750000
v 14.212000 22.128000 14.750000
v 14.712000 18.584000 14.750000
v 14.712000 22.375000 14.750000
v 15.212000 18.563000 14.750000
v 15.212000 22.375000 14.750000
v 15.712000 18.719000 14.750000
v 15.712000 22.218000 14.750000
v 16.212000 19.025000 14.750000
v 16.212000 21.940000 14.750000
v 16.712000 19.609000 14.750000
v 16.712000 21.409000 14.750000
v 13.212000 19.059000 18.750000
v 13.212000 20.370000 18.750000
v 13.712000 18.213000 18.750000
v 13.712000 20.922000 18.750000
v 14.212000 17.992000 18.750000
v 14.212000 21.352000 18.750000
v 14.712000 18.002000 18.750000
v 14.712000 21.552000 18.750000
v 15.212000 18.249000 18.750000
v 15.212000 21.487000 18.750000
v 15.712000 19.201000 18.750000
v 15.712000 21.021000 18.750000
v 13.893000 17.727000 15.750000
v 15.070000 17.727000 15.750000
v 13.559000 17.727000 16.250000
v 15.404000 17.727000 16.250000
v 13.556000 17.727000 16.750000
v 15.407000 17.727000 16.750000
v 13.867000 17.727000 17.250000
v 15.088000 17.727000 17.250000
v 14.782000 21.727000 13.750000
v 16.230000 21.727000 13.750000
v 14.403000 21.727000 14.250000
v 16.495000 21.727000 14.250000
v 13.831000 21.727000 14.750000
v 16.479000 21.727000 14.750000
v 13.545000 21.727000 15.250000
v 16.469000 21.727000 15.250000
v 13.508000 21.727000 15.750000
v 16.494000 21.727000 15.750000
v 13.470000 21.727000 16.250000
v 16.495000 21.727000 16.250000
v 13.485000 21.727000 16.750000
v 16.394000 21.727000 16.750000
v 13.785000 21.727000 17.250000
v 16.095000 21.727000 17.250000
v 14.024000 21.727000 17.750000
v 15.869000 21.727000 17.750000
v 14.329000 21.727000 18.250000
v 15.565000 21.727000 18.250000
v 13.712000 17.727000 15.936000
v 13.712000 17.727000 17.073000
v 14.212000 17.727000 15.586000
v 14.212000 17.727000 17.561000
v 14.712000 17.727000 15.576000
v 14.712000 17.727000 17.562000
v 15.212000 17.727000 15.886000
v 15.212000 17.727000 17.123000
v 13.712000 21.727000 14.892000
v 13.712000 21.727000 17.165000
v 14.212000 21.727000 14.421000
v 14.212000 21.727000 18.130000
v 14.712000 21.727000 13.829000
v 14.712000 21.727000 18.460000
v 15.212000 21.727000 13.487000
v 15.212000 21.727000 18.441000
v 15.712000 21.727000 13.465000
v 15.712000 21.727000 18.090000
v 16.212000 21.727000 13.732000
v 16.212000 21.727000 17.116000
v 13.212000 19.582000 15.250000
v 13.212000 21.285000 15.250000
v 13.712000 18.764000 15.250000
v 13.712000 21.883000 15.250000
v 14.212000 18.187000 15.250000
v 14.212000 22.394000 15.250000
v 14.712000 18.124000 15.250000
v 14.712000 22.593000 15.250000
v 15.212000 18.275000 15.250000
v 15.212000 22.592000 15.250000
v 15.712000 18.540000 15.250000
v 15.712000 22.390000 15.250000
v 16.212000 19.012000 15.250000
v 16.212000 21.943000 15.250000
v 16.712000 19.620000 15.250000
v 16.712000 21.390000 15.250000
v 13.712000 18.756000 19.250000
v 13.712000 20.924000 19.250000
v 14.212000 18.443000 19.250000
v 14.212000 21.291000 19.250000
v 14.712000 18.452000 19.250000
v 14.712000 21.408000 19.250000
v 15.212000 18.781000 19.250000
v 15.212000 21.260000 19.250000
v 14.141000 18.227000 15.250000
v 15.093000 18.227000 15.250000
v 13.424000 18.227000 15.750000
v 15.578000 18.227000 15.750000
v 13.208000 18.227000 16.250000
v 15.755000 18.227000 16.250000
v 13.206000 18.227000 16.750000
v 15.757000 18.227000 16.750000
v 13.364000 18.227000 17.250000
v 15.580000 18.227000 17.250000
v 13.437000 18.227000 17.750000
v 15.459000 18.227000 17.750000
v 13.435000 18.227000 18.250000
v 15.442000 18.227000 18.250000
v 13.694000 18.227000 18.750000
v 15.183000 18.227000 18.750000
v 14.347000 22.227000 14.750000
v 15.692000 22.227000 14.750000
v 14.003000 22.227000 15.250000
v 15.915000 22.227000 15.250000
v 13.982000 22.227000 15.750000
v 15.936000 22.227000 15.750000
v 14.191000 22.227000 16.250000
v 15.689000 22.227000 16.250000
v 13.212000 18.227000 16.229000
v 13.212000 18.227000 16.780000
v 13.712000 18.227000 15.458000
v 13.712000 18.227000 18.768000
v 14.212000 18.227000 15.229000
v 14.212000 18.227000 19.045000
v 14.712000 18.227000 15.163000
v 14.712000 18.227000 19.034000
v 15.212000 18.227000 15.316000
v 15.212000 18.227000 18.718000
v 15.712000 18.227000 16.084000
v 15.712000 18.227000 16.921000
v 14.212000 22.227000 14.876000
v 14.212000 22.227000 16.281000
v 14.712000 22.227000 14.570000
v 14.712000 22.227000 16.597000
v 15.212000 22.227000 14.479000
v 15.212000 22.227000 16.602000
v 15.712000 22.227000 14.780000
v 15.712000 22.227000 16.220000
v 13.212000 19.158000 15.750000
v 13.212000 21.318000 15.750000
v 13.712000 17.855000 15.750000
v 13.712000 21.928000 15.750000
v 14.212000 17.601000 15.750000
v 14.212000 22.411000 15.750000
v 14.712000 17.592000 15.750000
v 14.712000 22.608000 15.750000
v 15.212000 17.823000 15.750000
v 15.212000 22.607000 15.750000
v 15.712000 18.392000 15.750000
v 15.712000 22.407000 15.750000
v 16.212000 19.013000 15.750000
v 16.212000 21.961000 15.750000
v 16.712000 19.623000 15.750000
v 16.712000 21.435000 15.750000
v 13.712000 19.051000 19.750000
v 13.712000 21.145000 19.750000
v 14.212000 18.765000 19.750000
v 14.212000 21.417000 19.750000
v 14.712000 18.762000 19.750000
v 14.712000 21.454000 19.750000
v 15.212000 19.034000 19.750000
v 15.212000 21.266000 19.750000
v 15.712000 19.913000 19.750000
v 15.712000 20.476000 19.750000
v 14.382000 18.727000 14.750000
v 15.728000 18.727000 14.750000
v 13.737000 18.727000 15.250000
v 15.959000 18.727000 15.250000
v 13.299000 18.727000 15.750000
v 15.979000 18.727000 15.750000
v 13.105000 18.727000 16.250000
v 15.971000 18.727000 16.250000
v 13.103000 18.727000 16.750000
v 15.956000 18.727000 16.750000
v 13.145000 18.727000 17.250000
v 15.808000 18.727000 17.250000
v 13.137000 18.727000 17.750000
v 15.761000 18.727000 17.750000
v 13.130000 18.727000 18.250000
v 15.747000 18.727000 18.250000
v 13.317000 18.727000 18.750000
v 15.561000 18.727000 18.750000
v 13.739000 18.727000 19.250000
v 15.161000 18.727000 19.250000
v 13.212000 18.727000 15.915000
v 13.212000 18.727000 18.545000
v 13.712000 18.727000 15.269000
v 13.712000 18.727000 19.220000
v 14.212000 18.727000 14.882000
v 14.212000 18.727000 19.657000
v 14.712000 18.727000 14.551000
v 14.712000 18.727000 19.658000
v 15.212000 18.727000 14.449000
v 15.212000 18.727000 19.192000
v 15.712000 18.727000 14.726000
v 15.712000 18.727000 18.410000
v 13.212000 18.216000 16.250000
v 13.212000 21.361000 16.250000
v 13.712000 17.607000 16.250000
v 13.712000 21.926000 16.250000
v 14.212000 17.398000 16.250000
v 14.212000 22.237000 16.250000
v 14.712000 17.391000 16.250000
v 14.712000 22.427000 16.250000
v 15.212000 17.581000 16.250000
v 15.212000 22.425000 16.250000
v 15.712000 18.131000 16.250000
v 15.712000 22.214000 16.250000
v 16.212000 19.044000 16.250000
v 16.212000 21.950000 16.250000
v 16.712000 19.723000 16.250000
v 16.712000 21.437000 16.250000
v 13.212000 19.699000 20.250000
v 13.212000 20.755000 20.250000
v 13.712000 19.079000 20.250000
v 13.712000 21.370000 20.250000
v 14.212000 18.856000 20.250000
v 14.212000 21.581000 20.250000
v 14.712000 18.847000 20.250000
v 14.712000 21.591000 20.250000
v 15.212000 19.044000 20.250000
v 15.212000 21.406000 20.250000
v 15.712000 19.580000 20.250000
v 15.712000 20.874000 20.250000
f 131 75 119
f 119 75 205
f 205 75 161
f 205 161 291
f 291 161 247
f 247 132 291
f 121 133 119
f 119 133 131
f 119 207 121
f 119 205 207
f 205 293 207
f 205 291 293
f 329 373 132
f 373 291 132
f 373 293 291
f 329 134 373
f 123 135 121
f 121 135 133
f 121 209 123
f 121 207 209
f 207 295 209
f 207 293 295
f 293 375 295
f 293 373 375
f 373 134 375
f 375 134 136
f 123 76 135
f 76 123 162
f 162 123 209
f 162 209 137
f 209 299 137
f 209 295 299
f 138 299 330
f 299 375 330
f 299 295 375
f 375 136 330
f 299 248 137
f 299 138 248
f 504 485 47
f 139 559 504
f 559 485 504
f 559 557 485
f 559 13 557
f 15 13 559
f 15 89 13
f 91 89 15
f 91 175 89
f 177 175 91
f 177 261 175
f 263 261 177
f 364 343 140
f 343 263 140
f 343 261 263
f 364 48 343
f 436 411 49
f 487 504 47
f 487 47 411
f 141 487 411
f 436 141 411
f 139 504 487
f 345 364 140
f 142 444 427
f 142 427 48
f 345 142 48
f 364 345 48
f 444 50 427
f 436 49 413
f 49 143 413
f 49 51 143
f 141 436 413
f 429 444 142
f 429 144 444
f 144 50 444
f 144 52 50
f 145 51 53
f 145 143 51
f 52 146 54
f 144 146 52
f 414 145 442
f 145 55 442
f 145 53 55
f 147 414 442
f 54 148 56
f 146 148 54
f 412 442 55
f 488 147 514
f 514 147 57
f 147 442 57
f 442 412 57
f 149 488 514
f 56 150 58
f 148 150 56
f 486 514 57
f 514 486 149
f 486 560 149
f 486 558 560
f 558 59 46
f 16 558 46
f 560 558 16
f 151 16 46
f 430 152 454
f 454 60 430
f 60 150 430
f 60 58 150
f 14 46 59
f 46 14 151
f 14 92 151
f 14 90 92
f 90 61 216
f 178 90 216
f 92 90 178
f 178 216 302
f 178 302 264
f 264 302 380
f 264 380 346
f 454 152 346
f 454 346 380
f 428 454 380
f 62 428 380
f 60 454 428
f 176 216 61
f 262 302 176
f 176 302 216
f 344 380 262
f 262 380 302
f 62 380 344
f 200 191 63
f 200 64 191
f 36 29 65
f 153 107 36
f 107 29 36
f 107 105 29
f 193 200 63
f 105 193 63
f 107 193 105
f 277 64 200
f 193 277 200
f 279 277 193
f 368 359 154
f 359 279 154
f 359 277 279
f 368 66 359
f 36 65 31
f 65 155 31
f 65 67 155
f 153 36 31
f 361 368 154
f 361 156 368
f 156 66 368
f 156 68 66
f 157 67 69
f 157 155 67
f 68 158 70
f 156 158 68
f 32 157 42
f 157 71 42
f 157 69 71
f 159 32 42
f 362 160 374
f 374 72 362
f 72 158 362
f 72 70 158
f 30 42 71
f 108 159 126
f 126 159 73
f 159 42 73
f 42 30 73
f 108 126 212
f 108 212 194
f 194 212 298
f 194 298 280
f 374 160 280
f 374 280 298
f 360 374 298
f 74 360 298
f 72 374 360
f 106 126 73
f 192 212 106
f 106 212 126
f 278 298 192
f 192 298 212
f 74 298 278
f 217 77 117
f 117 77 203
f 203 77 163
f 203 163 289
f 289 163 249
f 249 218 289
f 219 1 39
f 217 117 1
f 1 117 39
f 117 75 39
f 75 131 39
f 203 161 75
f 203 75 117
f 289 247 161
f 289 161 203
f 218 331 371
f 218 371 132
f 289 218 132
f 247 289 132
f 331 220 371
f 41 221 39
f 39 221 219
f 39 131 133
f 39 133 41
f 371 329 132
f 220 415 449
f 220 449 134
f 371 220 134
f 329 371 134
f 415 222 449
f 43 223 41
f 41 223 221
f 41 133 135
f 41 135 43
f 451 136 134
f 451 134 449
f 449 222 451
f 451 222 224
f 43 2 223
f 127 225 76
f 76 225 135
f 225 2 135
f 2 43 135
f 162 213 127
f 162 127 76
f 137 213 162
f 330 377 138
f 377 330 136
f 451 377 136
f 453 377 451
f 451 224 453
f 453 224 226
f 127 78 225
f 78 127 164
f 164 127 213
f 301 227 248
f 248 227 137
f 227 164 137
f 164 213 137
f 377 332 138
f 138 332 248
f 332 228 248
f 228 301 248
f 332 377 416
f 416 377 453
f 453 226 416
f 301 250 227
f 301 228 250
f 229 561 139
f 139 561 559
f 561 15 559
f 17 15 561
f 17 91 15
f 93 91 17
f 93 177 91
f 179 177 93
f 179 263 177
f 265 263 179
f 265 230 263
f 263 230 140
f 231 489 141
f 141 489 487
f 139 487 489
f 139 489 229
f 345 140 230
f 345 230 347
f 347 232 345
f 345 232 142
f 438 413 143
f 141 413 438
f 233 141 438
f 231 141 233
f 429 142 232
f 429 232 431
f 431 234 429
f 429 234 144
f 145 440 143
f 143 440 438
f 233 438 440
f 233 440 235
f 144 236 146
f 234 236 144
f 414 440 145
f 235 440 414
f 147 235 414
f 237 235 147
f 146 238 148
f 236 238 146
f 147 488 237
f 237 488 490
f 239 490 488
f 239 488 149
f 148 240 150
f 238 240 148
f 149 560 239
f 239 560 562
f 16 562 560
f 16 18 562
f 16 151 128
f 94 16 128
f 18 16 94
f 241 94 128
f 432 242 152
f 432 152 430
f 430 150 432
f 432 150 240
f 92 128 151
f 128 92 241
f 92 180 241
f 92 178 180
f 264 180 178
f 264 266 180
f 346 266 264
f 346 348 266
f 346 152 348
f 348 152 242
f 116 107 153
f 202 193 116
f 116 193 107
f 288 279 202
f 202 279 193
f 288 154 279
f 38 31 155
f 31 38 153
f 38 116 153
f 38 118 116
f 118 243 195
f 202 118 195
f 116 118 202
f 202 195 244
f 290 202 244
f 288 202 290
f 154 288 361
f 288 370 361
f 288 290 370
f 370 156 361
f 157 40 155
f 155 40 38
f 40 245 109
f 118 40 109
f 38 40 118
f 243 118 109
f 281 290 244
f 290 281 246
f 372 290 246
f 370 290 372
f 156 370 158
f 158 370 372
f 32 40 157
f 110 245 122
f 122 245 159
f 245 40 159
f 40 32 159
f 110 122 208
f 110 208 196
f 196 208 294
f 196 294 282
f 372 246 282
f 372 282 294
f 362 372 294
f 160 362 294
f 158 372 362
f 108 122 159
f 194 208 108
f 108 208 122
f 280 294 194
f 194 294 208
f 160 294 280
f 303 79 115
f 115 79 201
f 201 79 165
f 201 165 287
f 287 165 251
f 251 304 287
f 305 3 37
f 303 115 3
f 3 115 37
f 115 77 37
f 77 217 37
f 201 163 77
f 201 77 115
f 287 249 163
f 287 163 201
f 304 333 369
f 304 369 218
f 287 304 218
f 249 287 218
f 333 306 369
f 1 219 37
f 219 305 37
f 219 307 305
f 37 217 1
f 369 331 218
f 306 417 447
f 306 447 220
f 369 306 220
f 331 369 220
f 417 308 447
f 309 219 221
f 309 307 219
f 447 415 220
f 447 308 415
f 308 222 415
f 308 310 222
f 311 221 223
f 311 309 221
f 222 312 224
f 310 312 222
f 45 313 2
f 313 223 2
f 313 311 223
f 225 45 2
f 224 314 226
f 312 314 224
f 45 4 313
f 129 315 78
f 78 315 225
f 315 4 225
f 4 45 225
f 164 215 129
f 164 129 78
f 227 215 164
f 332 379 228
f 418 316 379
f 332 418 379
f 416 418 332
f 416 226 418
f 418 226 314
f 129 80 315
f 80 129 166
f 166 129 215
f 227 250 215
f 250 166 215
f 250 252 166
f 379 334 228
f 334 250 228
f 334 252 250
f 379 316 334
f 317 563 229
f 229 563 561
f 563 17 561
f 19 17 563
f 19 93 17
f 95 93 19
f 95 179 93
f 181 179 95
f 284 265 318
f 265 181 318
f 265 179 181
f 284 230 265
f 319 491 231
f 231 491 489
f 229 489 491
f 229 491 317
f 267 284 318
f 320 366 347
f 320 347 230
f 267 320 230
f 284 267 230
f 366 232 347
f 321 231 233
f 321 319 231
f 349 366 320
f 322 446 431
f 322 431 232
f 349 322 232
f 366 349 232
f 446 234 431
f 323 233 235
f 323 321 233
f 433 446 322
f 433 324 446
f 324 234 446
f 324 236 234
f 325 235 237
f 325 323 235
f 236 326 238
f 324 326 236
f 237 490 325
f 325 490 492
f 327 492 490
f 327 490 239
f 434 328 452
f 452 240 434
f 240 326 434
f 240 238 326
f 239 562 327
f 327 562 564
f 18 564 562
f 18 20 564
f 94 20 18
f 94 96 20
f 94 241 214
f 182 94 214
f 96 94 182
f 182 214 300
f 182 300 268
f 268 300 378
f 268 378 350
f 452 328 350
f 452 350 378
f 432 452 378
f 242 432 378
f 240 452 432
f 180 214 241
f 266 300 180
f 180 300 214
f 348 378 266
f 266 378 300
f 242 378 348
f 204 195 243
f 204 244 195
f 120 109 245
f 109 120 243
f 120 204 243
f 120 206 204
f 244 204 281
f 204 292 281
f 204 206 292
f 292 246 281
f 110 120 245
f 196 206 110
f 110 206 120
f 282 292 196
f 196 292 206
f 246 292 282
f 381 81 303
f 303 81 79
f 81 165 79
f 167 165 81
f 167 251 165
f 253 251 167
f 304 251 365
f 251 335 365
f 251 253 335
f 335 382 365
f 383 5 305
f 305 5 3
f 303 3 5
f 303 5 381
f 365 333 304
f 382 419 445
f 382 445 306
f 365 382 306
f 333 365 306
f 419 384 445
f 385 549 575
f 307 575 549
f 383 307 549
f 305 307 383
f 445 417 306
f 384 495 517
f 384 517 308
f 445 384 308
f 417 445 308
f 495 386 517
f 577 387 575
f 575 387 385
f 575 307 309
f 575 309 577
f 519 310 308
f 519 308 517
f 517 386 519
f 519 386 388
f 579 389 577
f 577 389 387
f 577 309 311
f 577 311 579
f 310 519 496
f 390 310 496
f 312 310 390
f 519 388 496
f 579 550 389
f 391 550 579
f 311 391 579
f 313 391 311
f 312 392 314
f 390 392 312
f 313 4 391
f 391 4 6
f 393 6 4
f 393 4 315
f 420 394 316
f 420 316 418
f 418 314 420
f 420 314 392
f 315 80 393
f 393 80 82
f 166 82 80
f 166 168 82
f 252 168 166
f 252 254 168
f 334 254 252
f 334 336 254
f 334 316 336
f 336 316 394
f 570 563 317
f 395 21 570
f 21 563 570
f 21 19 563
f 21 95 19
f 97 95 21
f 97 181 95
f 183 181 97
f 183 396 181
f 181 396 318
f 397 493 319
f 319 493 491
f 565 570 317
f 491 565 317
f 493 565 491
f 395 570 565
f 267 318 396
f 267 396 269
f 269 398 267
f 267 398 320
f 399 319 321
f 399 397 319
f 349 320 398
f 349 398 351
f 351 400 349
f 349 400 322
f 401 321 323
f 401 399 321
f 402 448 433
f 322 402 433
f 400 402 322
f 448 324 433
f 494 401 512
f 401 325 512
f 401 323 325
f 403 494 512
f 404 450 448
f 404 448 402
f 324 448 326
f 326 448 450
f 492 512 325
f 566 403 580
f 580 403 327
f 403 512 327
f 512 492 327
f 405 566 580
f 352 406 376
f 450 404 352
f 450 352 376
f 434 450 376
f 328 434 376
f 326 450 434
f 564 580 327
f 580 564 405
f 564 22 405
f 564 20 22
f 96 22 20
f 96 98 22
f 182 98 96
f 182 184 98
f 268 184 182
f 268 270 184
f 406 270 376
f 270 350 376
f 270 268 350
f 328 376 350
f 455 83 111
f 111 83 197
f 197 83 169
f 197 169 283
f 283 169 255
f 283 255 363
f 363 255 337
f 337 456 363
f 457 7 35
f 455 111 7
f 7 111 35
f 111 81 35
f 81 381 35
f 197 167 81
f 197 81 111
f 283 253 167
f 283 167 197
f 363 335 253
f 363 253 283
f 456 421 443
f 456 443 382
f 363 456 382
f 335 363 382
f 421 458 443
f 459 479 507
f 507 479 573
f 573 479 551
f 457 35 551
f 551 35 573
f 35 5 573
f 5 383 573
f 35 381 5
f 443 419 382
f 458 497 515
f 458 515 384
f 443 458 384
f 419 443 384
f 497 460 515
f 509 461 507
f 507 461 459
f 573 549 385
f 509 573 385
f 507 573 509
f 573 383 549
f 515 495 384
f 515 460 495
f 460 386 495
f 460 462 386
f 509 480 461
f 463 480 509
f 385 463 509
f 387 463 385
f 386 464 388
f 462 464 386
f 465 387 389
f 465 463 387
f 496 521 390
f 496 388 521
f 388 466 521
f 388 464 466
f 389 550 465
f 465 550 552
f 467 552 550
f 467 550 391
f 390 521 498
f 468 390 498
f 392 390 468
f 521 466 498
f 391 6 467
f 467 6 8
f 469 8 6
f 469 6 393
f 422 470 394
f 422 394 420
f 420 392 422
f 422 392 468
f 393 82 469
f 469 82 84
f 168 84 82
f 168 170 84
f 254 170 168
f 254 256 170
f 336 256 254
f 336 338 256
f 336 394 338
f 338 394 470
f 34 21 395
f 112 97 34
f 34 97 21
f 198 183 112
f 112 183 97
f 198 396 183
f 506 493 397
f 572 565 506
f 506 565 493
f 23 34 395
f 23 395 565
f 471 23 565
f 572 471 565
f 34 23 99
f 34 99 112
f 112 99 185
f 112 185 198
f 269 396 198
f 185 269 198
f 271 269 185
f 271 472 269
f 269 472 398
f 399 508 397
f 397 508 506
f 508 473 567
f 572 508 567
f 506 508 572
f 471 572 567
f 351 398 472
f 351 472 353
f 353 474 351
f 351 474 400
f 401 510 399
f 399 510 508
f 473 508 510
f 473 510 475
f 400 476 402
f 474 476 400
f 494 510 401
f 568 475 578
f 578 475 403
f 475 510 403
f 510 494 403
f 477 568 578
f 402 478 404
f 476 478 402
f 566 578 403
f 24 477 44
f 44 477 405
f 477 578 405
f 578 566 405
f 24 44 124
f 24 124 100
f 100 124 210
f 100 210 186
f 186 210 296
f 186 296 272
f 272 296 406
f 352 272 406
f 354 272 352
f 352 404 354
f 354 404 478
f 22 44 405
f 98 124 22
f 22 124 44
f 184 210 98
f 98 210 124
f 270 296 184
f 184 296 210
f 406 296 270
f 523 9 33
f 33 9 455
f 9 83 455
f 9 85 83
f 85 169 83
f 171 169 85
f 171 255 169
f 257 255 171
f 257 337 255
f 339 337 257
f 339 524 337
f 337 524 456
f 525 481 505
f 505 481 571
f 571 481 553
f 523 33 553
f 553 33 571
f 33 7 571
f 7 457 571
f 33 455 7
f 421 456 524
f 421 524 423
f 423 526 421
f 421 526 458
f 527 407 437
f 525 505 407
f 407 505 437
f 505 479 437
f 479 459 437
f 571 551 479
f 571 479 505
f 571 457 551
f 497 458 526
f 497 526 499
f 499 528 497
f 497 528 460
f 439 529 437
f 437 529 527
f 437 459 461
f 437 461 439
f 460 530 462
f 528 530 460
f 439 408 529
f 511 531 480
f 480 531 461
f 531 408 461
f 408 439 461
f 463 511 480
f 462 532 464
f 530 532 462
f 511 482 531
f 533 482 511
f 463 533 511
f 465 533 463
f 464 534 466
f 532 534 464
f 465 552 533
f 533 552 554
f 535 554 552
f 535 552 467
f 500 536 468
f 500 468 498
f 498 466 500
f 500 466 534
f 467 8 535
f 535 8 10
f 537 10 8
f 537 8 469
f 424 538 470
f 424 470 422
f 422 468 424
f 424 468 536
f 469 84 537
f 537 84 86
f 170 86 84
f 170 172 86
f 256 172 170
f 256 258 172
f 338 258 256
f 338 340 258
f 338 470 340
f 340 470 538
f 539 25 471
f 471 25 23
f 25 99 23
f 101 99 25
f 101 185 99
f 187 185 101
f 187 271 185
f 273 271 187
f 273 540 271
f 271 540 472
f 574 567 473
f 471 567 574
f 541 471 574
f 539 471 541
f 353 472 540
f 353 540 355
f 355 542 353
f 353 542 474
f 475 576 473
f 473 576 574
f 541 574 576
f 541 576 543
f 474 544 476
f 542 544 474
f 568 576 475
f 543 576 568
f 477 543 568
f 545 543 477
f 476 546 478
f 544 546 476
f 477 24 545
f 545 24 26
f 100 26 24
f 100 102 26
f 186 211 547
f 102 186 547
f 100 186 102
f 274 548 211
f 186 274 211
f 272 274 186
f 354 274 272
f 354 356 274
f 354 478 356
f 356 478 546
f 211 188 547
f 211 548 188
f 581 483 503
f 503 483 569
f 569 483 555
f 569 555 523
f 555 9 523
f 555 11 9
f 11 85 9
f 87 85 11
f 87 171 85
f 173 171 87
f 173 257 171
f 259 257 173
f 259 339 257
f 341 339 259
f 341 582 339
f 339 582 524
f 583 409 435
f 581 503 409
f 409 503 435
f 503 481 435
f 481 525 435
f 569 553 481
f 569 481 503
f 569 523 553
f 423 524 582
f 423 582 425
f 425 584 423
f 423 584 526
f 407 527 435
f 527 583 435
f 527 585 583
f 435 525 407
f 499 526 584
f 499 584 501
f 501 586 499
f 499 586 528
f 587 527 529
f 587 585 527
f 528 588 530
f 586 588 528
f 441 589 408
f 589 529 408
f 589 587 529
f 531 441 408
f 530 590 532
f 588 590 530
f 441 410 589
f 513 591 482
f 482 591 531
f 591 410 531
f 410 441 531
f 533 513 482
f 502 592 522
f 522 534 502
f 534 590 502
f 534 532 590
f 513 484 591
f 533 554 513
f 554 484 513
f 554 556 484
f 593 556 554
f 593 554 535
f 536 500 522
f 592 536 522
f 594 536 592
f 534 522 500
f 535 10 593
f 593 10 12
f 595 12 10
f 595 10 537
f 426 596 538
f 426 538 424
f 424 536 426
f 426 536 594
f 537 86 595
f 595 86 88
f 172 88 86
f 172 174 88
f 258 174 172
f 258 260 174
f 340 260 258
f 340 342 260
f 340 538 342
f 342 538 596
f 597 103 113
f 113 103 199
f 199 103 189
f 199 189 285
f 285 189 275
f 275 598 285
f 599 27 539
f 539 27 25
f 27 597 113
f 101 27 113
f 25 27 101
f 199 187 101
f 199 101 113
f 285 273 187
f 285 187 199
f 598 357 367
f 598 367 540
f 285 598 540
f 273 285 540
f 357 600 367
f 601 539 541
f 601 599 539
f 367 355 540
f 367 600 355
f 600 542 355
f 600 602 542
f 603 541 543
f 603 601 541
f 542 604 544
f 602 604 542
f 605 543 545
f 605 603 543
f 544 606 546
f 604 606 544
f 545 26 605
f 605 26 28
f 102 125 607
f 28 102 607
f 26 102 28
f 547 125 102
f 274 297 548
f 358 608 297
f 274 358 297
f 356 358 274
f 356 546 358
f 358 546 606
f 125 104 607
f 547 188 125
f 188 104 125
f 188 190 104
f 297 276 548
f 276 188 548
f 276 190 188
f 297 608 276
f 47 485 581
f 581 485 483
f 485 555 483
f 557 555 485
f 557 11 555
f 13 11 557
f 13 87 11
f 89 87 13
f 89 173 87
f 175 173 89
f 175 259 173
f 261 259 175
f 261 341 259
f 343 341 261
f 343 48 341
f 341 48 582
f 49 411 583
f 583 411 409
f 581 409 411
f 581 411 47
f 425 582 48
f 425 48 427
f 427 50 425
f 425 50 584
f 51 583 585
f 51 49 583
f 52 516 501
f 584 52 501
f 50 52 584
f 516 586 501
f 53 585 587
f 53 51 585
f 54 518 516
f 54 516 52
f 586 516 588
f 588 516 518
f 55 587 589
f 55 53 587
f 56 520 518
f 56 518 54
f 588 518 590
f 590 518 520
f 589 410 55
f 55 410 412
f 57 412 410
f 57 410 591
f 592 502 520
f 56 592 520
f 58 592 56
f 590 520 502
f 591 484 57
f 57 484 486
f 556 486 484
f 556 558 486
f 59 558 556
f 59 556 593
f 592 60 594
f 58 60 592
f 593 12 59
f 59 12 14
f 12 595 130
f 90 12 130
f 14 12 90
f 61 90 130
f 428 62 596
f 428 596 426
f 426 594 428
f 428 594 60
f 88 130 595
f 130 88 61
f 88 176 61
f 88 174 176
f 260 176 174
f 260 262 176
f 342 262 260
f 342 344 262
f 342 596 344
f 344 596 62
f 114 103 597
f 63 191 114
f 191 103 114
f 191 189 103
f 286 275 64
f 275 191 64
f 275 189 191
f 286 598 275
f 65 29 599
f 599 29 27
f 105 114 597
f 27 105 597
f 29 105 27
f 63 114 105
f 277 286 64
f 357 598 286
f 277 357 286
f 359 357 277
f 359 66 357
f 357 66 600
f 67 599 601
f 67 65 599
f 600 68 602
f 66 68 600
f 69 601 603
f 69 67 601
f 602 70 604
f 68 70 602
f 71 603 605
f 71 69 603
f 604 72 606
f 70 72 604
f 605 28 71
f 71 28 30
f 73 30 28
f 73 28 607
f 360 74 608
f 360 608 358
f 358 606 360
f 360 606 72
f 607 104 73
f 73 104 106
f 190 106 104
f 190 192 106
f 276 192 190
f 276 278 192
f 276 608 278
f 278 608 74
