# Converted from NanoShaper .vert/.face
v -17.267000 4.542000 -5.974000
v -15.578000 4.542000 -5.974000
v -17.808000 4.542000 -5.474000
v -14.901000 4.542000 -5.474000
v -17.999000 4.542000 -4.974000
v -14.653000 4.542000 -4.974000
v -17.996000 4.542000 -4.474000
v -14.601000 4.542000 -4.474000
v -17.797000 4.542000 -3.974000
v -14.576000 4.542000 -3.974000
v -17.273000 4.542000 -3.474000
v -14.613000 4.542000 -3.474000
v -16.643000 4.542000 -2.974000
v -14.786000 4.542000 -2.974000
v -17.861000 4.542000 -5.381000
v -17.861000 4.542000 -4.083000
v -17.361000 4.542000 -5.920000
v -17.361000 4.542000 -3.542000
v -16.861000 4.542000 -6.111000
v -16.861000 4.542000 -3.101000
v -16.361000 4.542000 -6.111000
v -16.361000 4.542000 -2.829000
v -15.861000 4.542000 -6.059000
v -15.861000 4.542000 -2.625000
v -15.361000 4.542000 -5.864000
v -15.361000 4.542000 -2.544000
v -14.861000 4.542000 -5.421000
v -14.861000 4.542000 -2.826000
v -18.361000 6.030000 -4.974000
v -18.361000 6.981000 -4.974000
v -17.861000 3.968000 -4.974000
v -17.861000 7.628000 -4.974000
v -17.361000 3.408000 -4.974000
v -17.361000 7.844000 -4.974000
v -16.861000 3.213000 -4.974000
v -16.861000 7.891000 -4.974000
v -16.361000 3.211000 -4.974000
v -16.361000 7.906000 -4.974000
v -15.861000 3.234000 -4.974000
v -15.861000 7.916000 -4.974000
v -15.361000 3.433000 -4.974000
v -15.361000 7.926000 -4.974000
v -14.861000 4.016000 -4.974000
v -14.861000 7.883000 -4.974000
v -14.361000 5.013000 -4.974000
v -14.361000 7.699000 -4.974000
v -13.861000 5.875000 -4.974000
v -13.861000 7.170000 -4.974000
v -17.199000 5.042000 -5.974000
v -15.330000 5.042000 -5.974000
v -17.792000 5.042000 -5.474000
v -14.574000 5.042000 -5.474000
v -18.008000 5.042000 -4.974000
v -14.348000 5.042000 -4.974000
v -18.024000 5.042000 -4.474000
v -14.321000 5.042000 -4.474000
v -17.845000 5.042000 -3.974000
v -14.294000 5.042000 -3.974000
v -17.352000 5.042000 -3.474000
v -14.236000 5.042000 -3.474000
v -16.780000 5.042000 -2.974000
v -14.115000 5.042000 -2.974000
v -16.220000 5.042000 -2.474000
v -14.120000 5.042000 -2.474000
v -15.800000 5.042000 -1.974000
v -14.425000 5.042000 -1.974000
v -17.861000 5.042000 -5.362000
v -17.861000 5.042000 -4.003000
v -17.361000 5.042000 -5.882000
v -17.361000 5.042000 -3.480000
v -16.861000 5.042000 -6.086000
v -16.861000 5.042000 -3.033000
v -16.361000 5.042000 -6.132000
v -16.361000 5.042000 -2.627000
v -15.861000 5.042000 -6.122000
v -15.861000 5.042000 -2.034000
v -15.361000 5.042000 -5.984000
v -15.361000 5.042000 -1.740000
v -14.861000 5.042000 -5.756000
v -14.861000 5.042000 -1.741000
v -14.361000 5.042000 -5.028000
v -14.361000 5.042000 -2.037000
v -18.361000 5.982000 -4.474000
v -18.361000 7.030000 -4.474000
v -17.861000 3.975000 -4.474000
v -17.861000 7.649000 -4.474000
v -17.361000 3.411000 -4.474000
v -17.361000 7.862000 -4.474000
v -16.861000 3.216000 -4.474000
v -16.861000 7.900000 -4.474000
v -16.361000 3.180000 -4.474000
v -16.361000 7.937000 -4.474000
v -15.861000 3.180000 -4.474000
v -15.861000 7.947000 -4.474000
v -15.361000 3.358000 -4.474000
v -15.361000 7.948000 -4.474000
v -14.861000 3.869000 -4.474000
v -14.861000 7.899000 -4.474000
v -14.361000 4.952000 -4.474000
v -14.361000 7.707000 -4.474000
v -13.861000 5.877000 -4.474000
v -13.861000 7.168000 -4.474000
v -17.306000 5.542000 -5.974000
v -15.024000 5.542000 -5.974000
v -17.867000 5.542000 -5.474000
v -14.344000 5.542000 -5.474000
v -18.120000 5.542000 -4.974000
v -14.096000 5.542000 -4.974000
v -18.139000 5.542000 -4.474000
v -14.082000 5.542000 -4.474000
v -17.935000 5.542000 -3.974000
v -14.086000 5.542000 -3.974000
v -17.477000 5.542000 -3.474000
v -13.977000 5.542000 -3.474000
v -16.916000 5.542000 -2.974000
v -13.809000 5.542000 -2.974000
v -16.464000 5.542000 -2.474000
v -13.813000 5.542000 -2.474000
v -16.196000 5.542000 -1.974000
v -14.028000 5.542000 -1.974000
v -15.518000 5.542000 -1.474000
v -14.706000 5.542000 -1.474000
v -17.861000 5.542000 -5.481000
v -17.861000 5.542000 -3.876000
v -17.361000 5.542000 -5.940000
v -17.361000 5.542000 -3.377000
v -16.861000 5.542000 -6.143000
v -16.861000 5.542000 -2.928000
v -16.361000 5.542000 -6.150000
v -16.361000 5.542000 -2.284000
v -15.861000 5.542000 -6.114000
v -15.861000 5.542000 -1.642000
v -15.361000 5.542000 -6.080000
v -15.361000 5.542000 -1.434000
v -14.861000 5.542000 -5.895000
v -14.861000 5.542000 -1.434000
v -14.361000 5.542000 -5.494000
v -14.361000 5.542000 -1.644000
v -13.861000 5.542000 -3.170000
v -13.861000 5.542000 -2.299000
v -17.861000 5.257000 -3.974000
v -17.861000 7.431000 -3.974000
v -17.361000 3.656000 -3.974000
v -17.361000 7.700000 -3.974000
v -16.861000 3.392000 -3.974000
v -16.861000 7.859000 -3.974000
v -16.361000 3.208000 -3.974000
v -16.361000 7.925000 -3.974000
v -15.861000 3.191000 -3.974000
v -15.861000 7.988000 -3.974000
v -15.361000 3.371000 -3.974000
v -15.361000 8.025000 -3.974000
v -14.861000 3.892000 -3.974000
v -14.861000 7.989000 -3.974000
v -14.361000 4.898000 -3.974000
v -14.361000 7.760000 -3.974000
v -13.861000 5.896000 -3.974000
v -13.861000 7.123000 -3.974000
v -17.390000 6.042000 -5.974000
v -14.661000 6.042000 -5.974000
v -18.131000 6.042000 -5.474000
v -13.995000 6.042000 -5.474000
v -18.365000 6.042000 -4.974000
v -13.786000 6.042000 -4.974000
v -18.384000 6.042000 -4.474000
v -13.787000 6.042000 -4.474000
v -18.198000 6.042000 -3.974000
v -13.799000 6.042000 -3.974000
v -17.735000 6.042000 -3.474000
v -13.786000 6.042000 -3.474000
v -17.210000 6.042000 -2.974000
v -13.727000 6.042000 -2.974000
v -16.751000 6.042000 -2.474000
v -13.737000 6.042000 -2.474000
v -16.307000 6.042000 -1.974000
v -13.938000 6.042000 -1.974000
v -15.719000 6.042000 -1.474000
v -14.505000 6.042000 -1.474000
v -18.361000 6.042000 -4.992000
v -18.361000 6.042000 -4.359000
v -17.861000 6.042000 -5.740000
v -17.861000 6.042000 -3.605000
v -17.361000 6.042000 -5.983000
v -17.361000 6.042000 -3.099000
v -16.861000 6.042000 -6.084000
v -16.861000 6.042000 -2.617000
v -16.361000 6.042000 -6.100000
v -16.361000 6.042000 -2.033000
v -15.861000 6.042000 -6.077000
v -15.861000 6.042000 -1.553000
v -15.361000 6.042000 -6.070000
v -15.361000 6.042000 -1.358000
v -14.861000 6.042000 -6.025000
v -14.861000 6.042000 -1.358000
v -14.361000 6.042000 -5.830000
v -14.361000 6.042000 -1.554000
v -13.861000 6.042000 -5.227000
v -13.861000 6.042000 -2.108000
v -17.361000 5.155000 -3.474000
v -17.361000 7.440000 -3.474000
v -16.861000 3.700000 -3.474000
v -16.861000 7.693000 -3.474000
v -16.361000 3.423000 -3.474000
v -16.361000 7.880000 -3.474000
v -15.861000 3.403000 -3.474000
v -15.861000 8.092000 -3.474000
v -15.361000 3.623000 -3.474000
v -15.361000 8.260000 -3.474000
v -14.861000 4.255000 -3.474000
v -14.861000 8.268000 -3.474000
v -14.361000 4.849000 -3.474000
v -14.361000 8.042000 -3.474000
v -13.861000 5.796000 -3.474000
v -13.861000 7.291000 -3.474000
v -17.600000 6.542000 -5.974000
v -14.442000 6.542000 -5.974000
v -18.228000 6.542000 -5.474000
v -13.894000 6.542000 -5.474000
v -18.446000 6.542000 -4.974000
v -13.699000 6.542000 -4.974000
v -18.463000 6.542000 -4.474000
v -13.700000 6.542000 -4.474000
v -18.290000 6.542000 -3.974000
v -13.718000 6.542000 -3.974000
v -17.840000 6.542000 -3.474000
v -13.695000 6.542000 -3.474000
v -17.327000 6.542000 -2.974000
v -13.684000 6.542000 -2.974000
v -16.849000 6.542000 -2.474000
v -13.716000 6.542000 -2.474000
v -16.342000 6.542000 -1.974000
v -13.918000 6.542000 -1.974000
v -15.691000 6.542000 -1.474000
v -14.490000 6.542000 -1.474000
v -18.361000 6.542000 -5.236000
v -18.361000 6.542000 -4.115000
v -17.861000 6.542000 -5.836000
v -17.861000 6.542000 -3.496000
v -17.361000 6.542000 -6.046000
v -17.361000 6.542000 -3.002000
v -16.861000 6.542000 -6.083000
v -16.861000 6.542000 -2.490000
v -16.361000 6.542000 -6.104000
v -16.361000 6.542000 -1.987000
v -15.861000 6.542000 -6.105000
v -15.861000 6.542000 -1.570000
v -15.361000 6.542000 -6.104000
v -15.361000 6.542000 -1.365000
v -14.861000 6.542000 -6.110000
v -14.861000 6.542000 -1.358000
v -14.361000 6.542000 -5.929000
v -14.361000 6.542000 -1.544000
v -13.861000 6.542000 -5.420000
v -13.861000 6.542000 -2.069000
v -16.861000 5.417000 -2.974000
v -16.861000 7.407000 -2.974000
v -16.361000 4.064000 -2.974000
v -16.361000 7.823000 -2.974000
v -15.861000 4.011000 -2.974000
v -15.861000 8.239000 -2.974000
v -15.361000 4.205000 -2.974000
v -15.361000 8.446000 -2.974000
v -14.861000 4.493000 -2.974000
v -14.861000 8.454000 -2.974000
v -14.361000 4.830000 -2.974000
v -14.361000 8.264000 -2.974000
v -13.861000 5.414000 -2.974000
v -13.861000 7.720000 -2.974000
v -16.971000 7.042000 -5.974000
v -14.711000 7.042000 -5.974000
v -18.096000 7.042000 -5.474000
v -14.014000 7.042000 -5.474000
v -18.337000 7.042000 -4.974000
v -13.801000 7.042000 -4.974000
v -18.356000 7.042000 -4.474000
v -13.802000 7.042000 -4.474000
v -18.165000 7.042000 -3.974000
v -13.824000 7.042000 -3.974000
v -17.692000 7.042000 -3.474000
v -13.782000 7.042000 -3.474000
v -17.165000 7.042000 -2.974000
v -13.707000 7.042000 -2.974000
v -16.721000 7.042000 -2.474000
v -13.720000 7.042000 -2.474000
v -16.276000 7.042000 -1.974000
v -13.929000 7.042000 -1.974000
v -15.659000 7.042000 -1.474000
v -14.524000 7.042000 -1.474000
v -17.861000 7.042000 -5.705000
v -17.861000 7.042000 -3.644000
v -17.361000 7.042000 -5.937000
v -17.361000 7.042000 -3.141000
v -16.861000 7.042000 -5.987000
v -16.861000 7.042000 -2.659000
v -16.361000 7.042000 -6.010000
v -16.361000 7.042000 -2.066000
v -15.861000 7.042000 -6.012000
v -15.861000 7.042000 -1.584000
v -15.361000 7.042000 -6.011000
v -15.361000 7.042000 -1.380000
v -14.861000 7.042000 -6.009000
v -14.861000 7.042000 -1.373000
v -14.361000 7.042000 -5.812000
v -14.361000 7.042000 -1.560000
v -13.861000 7.042000 -5.185000
v -13.861000 7.042000 -2.087000
v -16.361000 5.284000 -2.474000
v -16.361000 7.633000 -2.474000
v -15.861000 4.704000 -2.474000
v -15.861000 8.226000 -2.474000
v -15.361000 4.584000 -2.474000
v -15.361000 8.436000 -2.474000
v -14.861000 4.641000 -2.474000
v -14.861000 8.443000 -2.474000
v -14.361000 4.843000 -2.474000
v -14.361000 8.252000 -2.474000
v -13.861000 5.423000 -2.474000
v -13.861000 7.697000 -2.474000
v -17.213000 3.542000 -5.474000
v -15.610000 3.542000 -5.474000
v -17.538000 3.542000 -4.974000
v -15.216000 3.542000 -4.974000
v -17.534000 3.542000 -4.474000
v -15.117000 3.542000 -4.474000
v -17.192000 3.542000 -3.974000
v -15.133000 3.542000 -3.974000
v -16.649000 3.542000 -3.474000
v -15.483000 3.542000 -3.474000
v -17.577000 7.542000 -5.474000
v -14.476000 7.542000 -5.474000
v -17.971000 7.542000 -4.974000
v -14.150000 7.542000 -4.974000
v -17.998000 7.542000 -4.474000
v -14.149000 7.542000 -4.474000
v -17.706000 7.542000 -3.974000
v -14.141000 7.542000 -3.974000
v -17.209000 7.542000 -3.474000
v -13.967000 7.542000 -3.474000
v -16.696000 7.542000 -2.974000
v -13.785000 7.542000 -2.974000
v -16.410000 7.542000 -2.474000
v -13.796000 7.542000 -2.474000
v -16.164000 7.542000 -1.974000
v -14.019000 7.542000 -1.974000
v -15.439000 7.542000 -1.474000
v -14.744000 7.542000 -1.474000
v -17.361000 3.542000 -5.326000
v -17.361000 3.542000 -4.138000
v -16.861000 3.542000 -5.650000
v -16.861000 3.542000 -3.690000
v -16.361000 3.542000 -5.646000
v -16.361000 3.542000 -3.326000
v -15.861000 3.542000 -5.583000
v -15.861000 3.542000 -3.302000
v -15.361000 3.542000 -5.248000
v -15.361000 3.542000 -3.582000
v -17.861000 7.542000 -5.199000
v -17.861000 7.542000 -4.152000
v -17.361000 7.542000 -5.573000
v -17.361000 7.542000 -3.633000
v -16.861000 7.542000 -5.649000
v -16.861000 7.542000 -3.170000
v -16.361000 7.542000 -5.677000
v -16.361000 7.542000 -2.356000
v -15.861000 7.542000 -5.684000
v -15.861000 7.542000 -1.674000
v -15.361000 7.542000 -5.687000
v -15.361000 7.542000 -1.455000
v -14.861000 7.542000 -5.661000
v -14.861000 7.542000 -1.448000
v -14.361000 7.542000 -5.365000
v -14.361000 7.542000 -1.647000
v -13.861000 7.542000 -3.245000
v -13.861000 7.542000 -2.261000
v -17.361000 5.981000 -5.974000
v -17.361000 6.946000 -5.974000
v -16.861000 3.971000 -5.974000
v -16.861000 7.074000 -5.974000
v -16.361000 3.979000 -5.974000
v -16.361000 7.126000 -5.974000
v -15.861000 4.117000 -5.974000
v -15.861000 7.132000 -5.974000
v -15.361000 5.007000 -5.974000
v -15.361000 7.130000 -5.974000
v -14.861000 5.874000 -5.974000
v -14.861000 7.120000 -5.974000
v -15.861000 5.090000 -1.974000
v -15.861000 7.963000 -1.974000
v -15.361000 4.847000 -1.974000
v -15.361000 8.222000 -1.974000
v -14.861000 4.847000 -1.974000
v -14.861000 8.231000 -1.974000
v -14.361000 5.091000 -1.974000
v -14.361000 7.996000 -1.974000
v -16.992000 4.042000 -5.974000
v -16.174000 4.042000 -5.974000
v -17.684000 4.042000 -5.474000
v -15.090000 4.042000 -5.474000
v -17.894000 4.042000 -4.974000
v -14.850000 4.042000 -4.974000
v -17.891000 4.042000 -4.474000
v -14.779000 4.042000 -4.474000
v -17.672000 4.042000 -3.974000
v -14.791000 4.042000 -3.974000
v -17.123000 4.042000 -3.474000
v -15.008000 4.042000 -3.474000
v -16.321000 4.042000 -2.974000
v -15.750000 4.042000 -2.974000
v -15.975000 8.042000 -3.474000
v -14.360000 8.042000 -3.474000
v -16.105000 8.042000 -2.974000
v -14.089000 8.042000 -2.974000
v -16.080000 8.042000 -2.474000
v -14.103000 8.042000 -2.474000
v -15.761000 8.042000 -1.974000
v -14.422000 8.042000 -1.974000
v -17.861000 4.042000 -5.109000
v -17.861000 4.042000 -4.356000
v -17.361000 4.042000 -5.796000
v -17.361000 4.042000 -3.668000
v -16.861000 4.042000 -6.006000
v -16.861000 4.042000 -3.219000
v -16.361000 4.042000 -6.002000
v -16.361000 4.042000 -2.983000
v -15.861000 4.042000 -5.945000
v -15.861000 4.042000 -2.957000
v -15.361000 4.042000 -5.731000
v -15.361000 4.042000 -3.122000
v -14.861000 4.042000 -5.019000
v -14.861000 4.042000 -3.750000
v -15.861000 8.042000 -3.681000
v -15.861000 8.042000 -2.073000
v -15.361000 8.042000 -3.924000
v -15.361000 8.042000 -1.762000
v -14.861000 8.042000 -3.846000
v -14.861000 8.042000 -1.752000
v -14.361000 8.042000 -3.475000
v -14.361000 8.042000 -2.031000
v -17.861000 5.525000 -5.474000
v -17.861000 7.348000 -5.474000
v -17.361000 3.643000 -5.474000
v -17.361000 7.620000 -5.474000
v -16.861000 3.408000 -5.474000
v -16.861000 7.682000 -5.474000
v -16.361000 3.411000 -5.474000
v -16.361000 7.704000 -5.474000
v -15.861000 3.456000 -5.474000
v -15.861000 7.712000 -5.474000
v -15.361000 3.704000 -5.474000
v -15.361000 7.717000 -5.474000
v -14.861000 4.619000 -5.474000
v -14.861000 7.686000 -5.474000
v -14.361000 5.516000 -5.474000
v -14.361000 7.465000 -5.474000
v -15.361000 5.440000 -1.474000
v -15.361000 7.593000 -1.474000
v -14.861000 5.441000 -1.474000
v -14.861000 7.612000 -1.474000
f 83 165 29
f 29 165 163
f 165 219 163
f 221 219 165
f 221 84 219
f 219 84 30
f 85 401 31
f 31 401 399
f 401 5 399
f 7 5 401
f 7 53 5
f 55 53 7
f 55 107 53
f 109 107 55
f 29 107 109
f 29 109 83
f 273 30 84
f 273 84 275
f 275 331 273
f 333 331 275
f 333 86 331
f 331 86 32
f 87 323 33
f 33 323 321
f 31 321 323
f 31 323 85
f 32 88 34
f 86 88 32
f 89 33 35
f 89 87 33
f 34 90 36
f 88 90 34
f 91 35 37
f 91 89 35
f 36 92 38
f 90 92 36
f 93 37 39
f 93 91 37
f 38 94 40
f 92 94 38
f 95 39 41
f 95 93 39
f 40 96 42
f 94 96 40
f 41 322 95
f 95 322 324
f 97 324 322
f 97 322 43
f 42 98 44
f 96 98 42
f 43 400 97
f 97 400 402
f 6 402 400
f 6 8 402
f 99 8 6
f 99 6 45
f 44 100 46
f 98 100 44
f 45 54 99
f 99 54 56
f 108 56 54
f 108 110 56
f 101 110 108
f 101 108 47
f 334 102 48
f 334 48 332
f 332 46 334
f 334 46 100
f 47 164 101
f 101 164 166
f 220 166 164
f 220 222 166
f 274 222 220
f 274 276 222
f 274 48 276
f 276 48 102
f 180 165 83
f 236 221 180
f 180 221 165
f 236 84 221
f 418 401 85
f 16 7 418
f 418 7 401
f 68 55 16
f 16 55 7
f 141 111 68
f 111 55 68
f 111 109 55
f 167 180 83
f 109 167 83
f 111 167 109
f 180 167 223
f 180 223 236
f 275 84 236
f 223 275 236
f 277 275 223
f 358 333 142
f 333 277 142
f 333 275 277
f 358 86 333
f 348 323 87
f 403 418 85
f 403 85 323
f 143 403 323
f 348 143 323
f 418 403 9
f 418 9 16
f 16 9 57
f 16 57 68
f 141 68 57
f 335 358 142
f 335 144 358
f 144 86 358
f 144 88 86
f 348 87 325
f 87 145 325
f 87 89 145
f 143 348 325
f 88 146 90
f 144 146 88
f 147 89 91
f 147 145 89
f 90 148 92
f 146 148 90
f 149 91 93
f 149 147 91
f 92 150 94
f 148 150 92
f 151 93 95
f 151 149 93
f 94 152 96
f 150 152 94
f 95 324 151
f 151 324 326
f 153 326 324
f 153 324 97
f 96 154 98
f 152 154 96
f 97 402 153
f 153 402 404
f 8 404 402
f 8 10 404
f 155 10 8
f 155 8 99
f 98 156 100
f 154 156 98
f 99 56 155
f 155 56 58
f 110 58 56
f 110 112 58
f 157 112 110
f 157 110 101
f 336 158 102
f 336 102 334
f 334 100 336
f 336 100 156
f 101 166 157
f 157 166 168
f 222 168 166
f 222 224 168
f 276 224 222
f 276 278 224
f 276 102 278
f 278 102 158
f 124 111 141
f 182 167 124
f 124 167 111
f 238 223 182
f 182 223 167
f 290 277 238
f 238 277 223
f 290 142 277
f 420 403 143
f 18 9 420
f 420 9 403
f 70 57 18
f 18 57 9
f 113 124 141
f 113 141 57
f 199 113 57
f 70 199 57
f 124 113 169
f 124 169 182
f 182 169 225
f 182 225 238
f 238 225 279
f 238 279 290
f 200 360 335
f 200 335 142
f 279 200 142
f 290 279 142
f 360 144 335
f 350 325 145
f 405 420 143
f 405 143 325
f 201 405 325
f 350 201 325
f 420 405 11
f 420 11 18
f 18 11 59
f 18 59 70
f 199 70 59
f 337 360 200
f 337 202 360
f 202 144 360
f 202 146 144
f 350 145 327
f 145 203 327
f 145 147 203
f 201 350 327
f 146 204 148
f 202 204 146
f 205 147 149
f 205 203 147
f 204 409 431
f 150 204 431
f 148 204 150
f 409 206 431
f 328 205 356
f 205 151 356
f 205 149 151
f 207 328 356
f 433 152 150
f 433 150 431
f 431 206 433
f 433 206 208
f 326 356 151
f 406 207 430
f 430 207 153
f 207 356 153
f 356 326 153
f 209 406 430
f 435 154 152
f 435 152 433
f 433 208 435
f 435 208 210
f 404 430 153
f 430 404 209
f 404 12 209
f 404 10 12
f 211 12 10
f 211 10 155
f 437 156 154
f 437 154 435
f 435 210 437
f 437 210 212
f 155 58 211
f 211 58 60
f 112 60 58
f 112 114 60
f 213 114 112
f 213 112 157
f 338 214 158
f 338 158 336
f 437 410 156
f 410 336 156
f 410 338 336
f 437 212 410
f 157 168 213
f 213 168 170
f 224 170 168
f 224 226 170
f 278 226 224
f 278 280 226
f 278 158 280
f 280 158 214
f 126 113 199
f 184 169 126
f 126 169 113
f 240 225 184
f 184 225 169
f 292 279 240
f 240 279 225
f 292 200 279
f 422 405 201
f 20 11 422
f 422 11 405
f 72 59 20
f 20 59 11
f 115 126 199
f 115 199 59
f 255 115 59
f 72 255 59
f 126 115 171
f 126 171 184
f 184 171 227
f 184 227 240
f 240 227 281
f 240 281 292
f 256 362 337
f 256 337 200
f 281 256 200
f 292 281 200
f 362 202 337
f 352 327 203
f 327 352 201
f 352 422 201
f 352 424 422
f 424 257 13
f 20 424 13
f 422 424 20
f 20 13 61
f 20 61 72
f 255 72 61
f 339 362 256
f 339 258 362
f 258 202 362
f 258 204 202
f 205 354 203
f 203 354 352
f 354 259 407
f 424 354 407
f 352 354 424
f 257 424 407
f 409 204 258
f 409 258 411
f 411 260 409
f 409 260 206
f 328 354 205
f 408 259 428
f 428 259 207
f 259 354 207
f 354 328 207
f 261 408 428
f 206 262 208
f 260 262 206
f 406 428 207
f 261 428 406
f 209 261 406
f 263 261 209
f 208 264 210
f 262 264 208
f 209 12 263
f 263 12 14
f 265 14 12
f 265 12 211
f 210 266 212
f 264 266 210
f 211 60 265
f 265 60 62
f 114 139 267
f 62 114 267
f 60 114 62
f 213 139 114
f 338 373 214
f 412 268 373
f 338 412 373
f 410 412 338
f 410 212 412
f 412 212 266
f 139 116 267
f 213 170 139
f 170 116 139
f 170 172 116
f 226 172 170
f 226 228 172
f 280 228 226
f 280 282 228
f 373 340 214
f 340 280 214
f 340 282 280
f 373 268 340
f 128 115 255
f 186 171 128
f 128 171 115
f 242 227 186
f 186 227 171
f 294 281 242
f 242 281 227
f 294 256 281
f 22 13 257
f 74 61 22
f 22 61 13
f 117 128 255
f 117 255 61
f 307 117 61
f 74 307 61
f 128 117 173
f 128 173 186
f 186 173 229
f 186 229 242
f 242 229 283
f 242 283 294
f 339 256 294
f 283 339 294
f 341 339 283
f 341 308 339
f 339 308 258
f 426 407 259
f 407 426 257
f 426 22 257
f 426 24 22
f 24 309 63
f 74 24 63
f 22 24 74
f 307 74 63
f 411 258 308
f 411 308 413
f 413 310 411
f 411 310 260
f 408 426 259
f 261 26 408
f 26 426 408
f 26 24 426
f 309 24 26
f 309 26 311
f 260 312 262
f 310 312 260
f 263 28 261
f 261 28 26
f 311 26 28
f 311 28 313
f 262 314 264
f 312 314 262
f 14 28 263
f 313 28 14
f 265 313 14
f 315 313 265
f 264 316 266
f 314 316 264
f 265 62 315
f 315 62 64
f 317 64 62
f 317 62 267
f 414 318 268
f 414 268 412
f 412 266 414
f 414 266 316
f 267 116 317
f 317 116 118
f 172 118 116
f 172 174 118
f 228 174 172
f 228 230 174
f 282 230 228
f 282 284 230
f 340 284 282
f 340 342 284
f 340 268 342
f 342 268 318
f 375 159 183
f 183 159 239
f 239 159 215
f 215 376 239
f 377 395 421
f 421 395 19
f 19 395 1
f 19 1 71
f 71 1 49
f 71 49 127
f 127 49 103
f 375 183 103
f 183 127 103
f 183 185 127
f 183 241 185
f 183 239 241
f 269 293 376
f 293 239 376
f 293 241 239
f 269 378 293
f 423 379 421
f 421 379 377
f 421 21 423
f 421 19 21
f 19 73 21
f 19 71 73
f 71 129 73
f 71 127 129
f 127 187 129
f 127 185 187
f 185 243 187
f 185 241 243
f 241 295 243
f 241 293 295
f 293 378 295
f 295 378 380
f 423 396 379
f 396 423 381
f 423 23 381
f 423 21 23
f 21 75 23
f 21 73 75
f 73 131 75
f 73 129 131
f 129 189 131
f 129 187 189
f 187 245 189
f 187 243 245
f 243 297 245
f 243 295 297
f 295 380 297
f 297 380 382
f 23 2 381
f 2 23 383
f 23 77 383
f 23 75 77
f 75 133 77
f 75 131 133
f 131 191 133
f 131 189 191
f 189 247 191
f 189 245 247
f 245 299 247
f 245 297 299
f 297 382 299
f 299 382 384
f 77 50 383
f 50 77 104
f 104 77 133
f 104 133 385
f 133 193 385
f 133 191 193
f 191 249 193
f 191 247 249
f 247 301 249
f 247 299 301
f 299 384 301
f 301 384 386
f 193 160 385
f 160 193 216
f 216 193 249
f 216 249 270
f 270 249 301
f 301 386 270
f 130 117 307
f 188 173 130
f 130 173 117
f 244 229 188
f 188 229 173
f 296 283 244
f 244 283 229
f 364 341 296
f 296 341 283
f 364 308 341
f 76 63 309
f 119 130 307
f 119 307 63
f 387 119 63
f 76 387 63
f 130 119 175
f 130 175 188
f 188 175 231
f 188 231 244
f 244 231 285
f 244 285 296
f 296 285 343
f 296 343 364
f 388 432 413
f 388 413 308
f 343 388 308
f 364 343 308
f 432 310 413
f 76 309 65
f 309 389 65
f 309 311 389
f 387 76 65
f 415 432 388
f 415 390 432
f 390 310 432
f 390 312 310
f 391 311 313
f 391 389 311
f 312 392 314
f 390 392 312
f 66 391 82
f 391 315 82
f 391 313 315
f 393 66 82
f 416 394 438
f 438 316 416
f 316 392 416
f 316 314 392
f 64 82 315
f 120 393 140
f 140 393 317
f 393 82 317
f 82 64 317
f 120 140 198
f 120 198 176
f 176 198 254
f 176 254 232
f 232 254 306
f 232 306 286
f 286 306 374
f 286 374 344
f 438 394 344
f 438 344 374
f 414 438 374
f 318 414 374
f 316 438 414
f 118 140 317
f 174 198 118
f 118 198 140
f 230 254 174
f 174 254 198
f 284 306 230
f 230 306 254
f 342 374 284
f 284 374 306
f 318 374 342
f 439 105 123
f 123 105 181
f 181 105 161
f 181 161 237
f 237 161 217
f 237 217 289
f 289 217 271
f 271 440 289
f 441 397 419
f 419 397 17
f 17 397 3
f 17 3 69
f 69 3 51
f 439 123 51
f 123 69 51
f 123 125 69
f 181 159 375
f 125 181 375
f 123 181 125
f 237 215 159
f 237 159 181
f 291 376 215
f 237 291 215
f 289 291 237
f 329 359 440
f 359 289 440
f 359 291 289
f 329 442 359
f 443 319 349
f 441 419 319
f 319 419 349
f 419 395 349
f 395 377 349
f 17 1 395
f 17 395 419
f 69 49 1
f 69 1 17
f 125 103 49
f 125 49 69
f 125 375 103
f 291 269 376
f 361 378 269
f 291 361 269
f 359 361 291
f 359 442 361
f 361 442 444
f 351 445 349
f 349 445 443
f 349 377 379
f 349 379 351
f 363 380 378
f 363 378 361
f 361 444 363
f 363 444 446
f 353 447 351
f 351 447 445
f 351 379 396
f 425 351 396
f 353 351 425
f 381 425 396
f 365 382 380
f 365 380 363
f 363 446 365
f 365 446 448
f 353 320 447
f 320 353 449
f 353 427 449
f 353 425 427
f 425 381 2
f 25 425 2
f 427 425 25
f 383 25 2
f 367 384 382
f 367 382 365
f 365 448 367
f 367 448 450
f 427 398 449
f 398 427 4
f 4 427 25
f 79 451 50
f 50 451 383
f 451 4 383
f 4 25 383
f 104 135 79
f 104 79 50
f 385 135 104
f 369 386 384
f 369 384 367
f 367 450 369
f 369 450 452
f 79 52 451
f 52 79 453
f 79 137 453
f 79 135 137
f 135 385 160
f 195 135 160
f 137 135 195
f 216 251 195
f 216 195 160
f 270 303 251
f 270 251 216
f 369 330 386
f 386 330 270
f 330 454 270
f 454 303 270
f 369 452 330
f 137 106 453
f 106 137 162
f 162 137 195
f 162 195 218
f 218 195 251
f 218 251 272
f 272 251 303
f 303 454 272
f 132 119 387
f 190 175 132
f 132 175 119
f 246 231 190
f 190 231 175
f 298 285 246
f 246 285 231
f 366 343 298
f 298 343 285
f 366 388 343
f 78 65 389
f 121 132 387
f 121 387 65
f 455 121 65
f 78 455 65
f 132 121 177
f 132 177 190
f 190 177 233
f 190 233 246
f 246 233 287
f 246 287 298
f 298 287 345
f 298 345 366
f 456 434 415
f 456 415 388
f 345 456 388
f 366 345 388
f 434 390 415
f 391 80 389
f 389 80 78
f 455 78 80
f 455 80 457
f 458 436 434
f 458 434 456
f 390 434 392
f 392 434 436
f 66 80 391
f 122 457 138
f 138 457 393
f 457 80 393
f 80 66 393
f 122 138 196
f 122 196 178
f 178 196 252
f 178 252 234
f 234 252 304
f 234 304 288
f 288 304 372
f 288 372 346
f 436 458 346
f 436 346 372
f 416 436 372
f 394 416 372
f 392 436 416
f 120 138 393
f 176 196 120
f 120 196 138
f 232 252 176
f 176 252 196
f 286 304 232
f 232 304 252
f 344 372 286
f 286 372 304
f 394 372 344
f 29 163 179
f 179 163 235
f 235 163 219
f 219 30 235
f 31 399 417
f 417 399 15
f 15 399 5
f 15 5 67
f 67 5 53
f 67 53 439
f 53 105 439
f 53 107 105
f 107 29 179
f 161 107 179
f 105 107 161
f 235 217 161
f 235 161 179
f 217 235 30
f 273 217 30
f 271 217 273
f 440 271 357
f 271 331 357
f 271 273 331
f 331 32 357
f 33 321 347
f 31 417 321
f 321 417 347
f 417 397 347
f 397 441 347
f 15 3 397
f 15 397 417
f 67 51 3
f 67 3 15
f 67 439 51
f 357 329 440
f 357 32 329
f 32 442 329
f 32 34 442
f 319 443 347
f 443 33 347
f 443 35 33
f 347 441 319
f 442 36 444
f 34 36 442
f 37 443 445
f 37 35 443
f 444 38 446
f 36 38 444
f 39 445 447
f 39 37 445
f 446 40 448
f 38 40 446
f 355 41 320
f 41 447 320
f 41 39 447
f 449 355 320
f 448 42 450
f 40 42 448
f 355 322 41
f 429 43 398
f 398 43 449
f 43 322 449
f 322 355 449
f 4 27 429
f 4 429 398
f 451 27 4
f 450 44 452
f 42 44 450
f 429 400 43
f 400 429 6
f 6 429 27
f 81 45 52
f 52 45 451
f 45 6 451
f 6 27 451
f 453 81 52
f 330 371 454
f 330 452 371
f 452 46 371
f 452 44 46
f 81 54 45
f 453 106 81
f 106 54 81
f 106 108 54
f 162 197 47
f 108 162 47
f 106 162 108
f 218 253 197
f 218 197 162
f 272 305 253
f 272 253 218
f 371 332 454
f 454 332 272
f 332 48 272
f 48 305 272
f 371 46 332
f 197 164 47
f 164 197 220
f 220 197 253
f 220 253 274
f 274 253 305
f 305 48 274
f 134 121 455
f 192 177 134
f 134 177 121
f 248 233 192
f 192 233 177
f 300 287 248
f 248 287 233
f 368 345 300
f 300 345 287
f 368 456 345
f 457 136 455
f 455 136 134
f 194 134 136
f 192 134 194
f 250 192 194
f 248 192 250
f 302 248 250
f 300 248 302
f 370 300 302
f 368 300 370
f 456 368 458
f 458 368 370
f 122 136 457
f 178 194 122
f 122 194 136
f 234 250 178
f 178 250 194
f 288 302 234
f 234 302 250
f 346 370 288
f 288 370 302
f 458 370 346
