# Converted from NanoShaper .vert/.face
v 0.170000 -14.247000 14.205000
v 2.631000 -14.247000 14.205000
v -0.125000 -14.247000 14.705000
v 3.068000 -14.247000 14.705000
v 0.086000 -14.247000 15.205000
v 3.207000 -14.247000 15.205000
v 0.459000 -14.247000 15.705000
v 3.395000 -14.247000 15.705000
v 0.936000 -14.247000 16.205000
v 3.893000 -14.247000 16.205000
v 2.201000 -14.247000 16.705000
v 4.093000 -14.247000 16.705000
v 2.529000 -14.247000 17.205000
v 3.805000 -14.247000 17.205000
v 1.102000 -10.247000 15.205000
v 1.898000 -10.247000 15.205000
v 0.872000 -10.247000 15.705000
v 2.128000 -10.247000 15.705000
v 1.139000 -10.247000 16.205000
v 1.860000 -10.247000 16.205000
v 0.217000 -14.247000 14.179000
v 0.217000 -14.247000 15.361000
v 0.717000 -14.247000 14.120000
v 0.717000 -14.247000 16.043000
v 1.217000 -14.247000 14.034000
v 1.217000 -14.247000 16.319000
v 1.717000 -14.247000 13.992000
v 1.717000 -14.247000 16.437000
v 2.217000 -14.247000 14.039000
v 2.217000 -14.247000 16.723000
v 2.717000 -14.247000 14.265000
v 2.717000 -14.247000 17.327000
v 3.217000 -14.247000 15.241000
v 3.217000 -14.247000 17.330000
v 3.717000 -14.247000 16.081000
v 3.717000 -14.247000 17.253000
v 1.217000 -10.247000 15.130000
v 1.217000 -10.247000 16.251000
v 1.717000 -10.247000 15.101000
v 1.717000 -10.247000 16.280000
v -0.283000 -13.537000 13.705000
v -0.283000 -11.877000 13.705000
v 0.217000 -13.900000 13.705000
v 0.217000 -11.531000 13.705000
v 0.717000 -13.946000 13.705000
v 0.717000 -11.314000 13.705000
v 1.217000 -14.002000 13.705000
v 1.217000 -11.040000 13.705000
v 1.717000 -14.006000 13.705000
v 1.717000 -11.038000 13.705000
v 2.217000 -13.904000 13.705000
v 2.217000 -11.333000 13.705000
v 2.717000 -13.558000 13.705000
v 2.717000 -12.141000 13.705000
v 2.217000 -13.689000 17.705000
v 2.217000 -12.311000 17.705000
v 2.717000 -13.986000 17.705000
v 2.717000 -12.014000 17.705000
v 3.217000 -13.985000 17.705000
v 3.217000 -12.015000 17.705000
v 3.717000 -13.908000 17.705000
v 3.717000 -12.095000 17.705000
v 4.217000 -13.558000 17.705000
v 4.217000 -12.445000 17.705000
v -0.081000 -13.747000 13.705000
v 2.527000 -13.747000 13.705000
v -0.559000 -13.747000 14.205000
v 3.008000 -13.747000 14.205000
v -0.684000 -13.747000 14.705000
v 3.291000 -13.747000 14.705000
v -0.586000 -13.747000 15.205000
v 3.617000 -13.747000 15.205000
v -0.173000 -13.747000 15.705000
v 4.143000 -13.747000 15.705000
v 0.570000 -13.747000 16.205000
v 4.545000 -13.747000 16.205000
v 1.423000 -13.747000 16.705000
v 4.640000 -13.747000 16.705000
v 1.870000 -13.747000 17.205000
v 4.513000 -13.747000 17.205000
v 2.276000 -13.747000 17.705000
v 4.033000 -13.747000 17.705000
v -0.283000 -13.747000 13.848000
v -0.283000 -13.747000 15.619000
v 0.217000 -13.747000 13.588000
v 0.217000 -13.747000 15.928000
v 0.717000 -13.747000 13.545000
v 0.717000 -13.747000 16.324000
v 1.217000 -13.747000 13.496000
v 1.217000 -13.747000 16.578000
v 1.717000 -13.747000 13.494000
v 1.717000 -13.747000 16.978000
v 2.217000 -13.747000 13.579000
v 2.217000 -13.747000 17.660000
v 2.717000 -13.747000 13.843000
v 2.717000 -13.747000 17.899000
v 3.217000 -13.747000 14.549000
v 3.217000 -13.747000 17.898000
v 3.717000 -13.747000 15.308000
v 3.717000 -13.747000 17.825000
v 4.217000 -13.747000 15.762000
v 4.217000 -13.747000 17.578000
v -0.783000 -13.210000 14.205000
v -0.783000 -12.235000 14.205000
v -0.283000 -14.029000 14.205000
v -0.283000 -11.434000 14.205000
v 0.217000 -14.259000 14.205000
v 0.217000 -11.198000 14.205000
v 0.717000 -14.299000 14.205000
v 0.717000 -10.924000 14.205000
v 1.217000 -14.388000 14.205000
v 1.217000 -10.711000 14.205000
v 1.717000 -14.437000 14.205000
v 1.717000 -10.710000 14.205000
v 2.217000 -14.448000 14.205000
v 2.217000 -10.919000 14.205000
v 2.717000 -14.168000 14.205000
v 2.717000 -11.588000 14.205000
v 3.217000 -13.238000 14.205000
v 3.217000 -12.698000 14.205000
v 0.807000 -13.247000 13.205000
v 2.050000 -13.247000 13.205000
v -0.420000 -13.247000 13.705000
v 2.874000 -13.247000 13.705000
v -0.776000 -13.247000 14.205000
v 3.215000 -13.247000 14.205000
v -0.881000 -13.247000 14.705000
v 3.429000 -13.247000 14.705000
v -0.798000 -13.247000 15.205000
v 3.888000 -13.247000 15.205000
v -0.481000 -13.247000 15.705000
v 4.440000 -13.247000 15.705000
v 0.454000 -13.247000 16.205000
v 4.753000 -13.247000 16.205000
v 1.260000 -13.247000 16.705000
v 4.834000 -13.247000 16.705000
v 1.657000 -13.247000 17.205000
v 4.726000 -13.247000 17.205000
v 1.979000 -13.247000 17.705000
v 4.366000 -13.247000 17.705000
v -0.783000 -13.247000 14.222000
v -0.783000 -13.247000 15.245000
v -0.283000 -13.247000 13.598000
v -0.283000 -13.247000 15.869000
v 0.217000 -13.247000 13.385000
v 0.217000 -13.247000 16.092000
v 0.717000 -13.247000 13.241000
v 0.717000 -13.247000 16.381000
v 1.217000 -13.247000 13.052000
v 1.217000 -13.247000 16.670000
v 1.717000 -13.247000 13.065000
v 1.717000 -13.247000 17.327000
v 2.217000 -13.247000 13.300000
v 2.217000 -13.247000 17.899000
v 2.717000 -13.247000 13.578000
v 2.717000 -13.247000 18.097000
v 3.217000 -13.247000 14.210000
v 3.217000 -13.247000 18.097000
v 3.717000 -13.247000 15.060000
v 3.717000 -13.247000 18.023000
v 4.217000 -13.247000 15.518000
v 4.217000 -13.247000 17.819000
v 4.717000 -13.247000 16.114000
v 4.717000 -13.247000 17.226000
v -0.783000 -13.563000 14.705000
v -0.783000 -11.939000 14.705000
v -0.283000 -14.156000 14.705000
v -0.283000 -11.324000 14.705000
v 0.217000 -14.364000 14.705000
v 0.217000 -10.942000 14.705000
v 0.717000 -14.520000 14.705000
v 0.717000 -10.726000 14.705000
v 1.217000 -14.724000 14.705000
v 1.217000 -10.510000 14.705000
v 1.717000 -14.766000 14.705000
v 1.717000 -10.500000 14.705000
v 2.217000 -14.776000 14.705000
v 2.217000 -10.724000 14.705000
v 2.717000 -14.582000 14.705000
v 2.717000 -11.352000 14.705000
v 3.217000 -13.979000 14.705000
v 3.217000 -12.281000 14.705000
v 0.455000 -12.747000 13.205000
v 2.394000 -12.747000 13.205000
v -0.460000 -12.747000 13.705000
v 2.890000 -12.747000 13.705000
v -0.793000 -12.747000 14.205000
v 3.226000 -12.747000 14.205000
v -0.890000 -12.747000 14.705000
v 3.429000 -12.747000 14.705000
v -0.803000 -12.747000 15.205000
v 3.885000 -12.747000 15.205000
v -0.484000 -12.747000 15.705000
v 4.437000 -12.747000 15.705000
v 0.174000 -12.747000 16.205000
v 4.752000 -12.747000 16.205000
v 1.184000 -12.747000 16.705000
v 4.832000 -12.747000 16.705000
v 1.619000 -12.747000 17.205000
v 4.724000 -12.747000 17.205000
v 1.980000 -12.747000 17.705000
v 4.364000 -12.747000 17.705000
v -0.783000 -12.747000 14.180000
v -0.783000 -12.747000 15.255000
v -0.283000 -12.747000 13.560000
v -0.283000 -12.747000 15.888000
v 0.217000 -12.747000 13.329000
v 0.217000 -12.747000 16.228000
v 0.717000 -12.747000 13.023000
v 0.717000 -12.747000 16.466000
v 1.217000 -12.747000 12.835000
v 1.217000 -12.747000 16.730000
v 1.717000 -12.747000 12.846000
v 1.717000 -12.747000 17.354000
v 2.217000 -12.747000 13.059000
v 2.217000 -12.747000 17.898000
v 2.717000 -12.747000 13.541000
v 2.717000 -12.747000 18.097000
v 3.217000 -12.747000 14.181000
v 3.217000 -12.747000 18.096000
v 3.717000 -12.747000 15.063000
v 3.717000 -12.747000 18.022000
v 4.217000 -12.747000 15.520000
v 4.217000 -12.747000 17.817000
v 4.717000 -12.747000 16.118000
v 4.717000 -12.747000 17.222000
v -0.783000 -13.316000 15.205000
v -0.783000 -12.310000 15.205000
v -0.283000 -14.057000 15.205000
v -0.283000 -11.318000 15.205000
v 0.217000 -14.303000 15.205000
v 0.217000 -10.821000 15.205000
v 0.717000 -14.606000 15.205000
v 0.717000 -10.445000 15.205000
v 1.217000 -14.819000 15.205000
v 1.217000 -10.217000 15.205000
v 1.717000 -14.857000 15.205000
v 1.717000 -10.204000 15.205000
v 2.217000 -14.865000 15.205000
v 2.217000 -10.399000 15.205000
v 2.717000 -14.686000 15.205000
v 2.717000 -11.006000 15.205000
v 3.217000 -14.237000 15.205000
v 3.217000 -11.913000 15.205000
v 3.717000 -13.600000 15.205000
v 3.717000 -12.419000 15.205000
v 0.436000 -12.247000 13.205000
v 2.414000 -12.247000 13.205000
v -0.461000 -12.247000 13.705000
v 2.749000 -12.247000 13.705000
v -0.785000 -12.247000 14.205000
v 3.028000 -12.247000 14.205000
v -0.873000 -12.247000 14.705000
v 3.193000 -12.247000 14.705000
v -0.773000 -12.247000 15.205000
v 3.563000 -12.247000 15.205000
v -0.444000 -12.247000 15.705000
v 4.134000 -12.247000 15.705000
v -0.057000 -12.247000 16.205000
v 4.540000 -12.247000 16.205000
v 0.867000 -12.247000 16.705000
v 4.635000 -12.247000 16.705000
v 1.624000 -12.247000 17.205000
v 4.507000 -12.247000 17.205000
v 2.281000 -12.247000 17.705000
v 4.022000 -12.247000 17.705000
v -0.783000 -12.247000 14.198000
v -0.783000 -12.247000 15.179000
v -0.283000 -12.247000 13.557000
v -0.283000 -12.247000 15.918000
v 0.217000 -12.247000 13.323000
v 0.217000 -12.247000 16.419000
v 0.717000 -12.247000 13.006000
v 0.717000 -12.247000 16.639000
v 1.217000 -12.247000 12.821000
v 1.217000 -12.247000 16.920000
v 1.717000 -12.247000 12.831000
v 1.717000 -12.247000 17.273000
v 2.217000 -12.247000 13.042000
v 2.217000 -12.247000 17.656000
v 2.717000 -12.247000 13.644000
v 2.717000 -12.247000 17.896000
v 3.217000 -12.247000 14.759000
v 3.217000 -12.247000 17.895000
v 3.717000 -12.247000 15.323000
v 3.717000 -12.247000 17.820000
v 4.217000 -12.247000 15.769000
v 4.217000 -12.247000 17.571000
v -0.283000 -13.634000 15.705000
v -0.283000 -11.503000 15.705000
v 0.217000 -14.027000 15.705000
v 0.217000 -10.860000 15.705000
v 0.717000 -14.493000 15.705000
v 0.717000 -10.338000 15.705000
v 1.217000 -14.725000 15.705000
v 1.217000 -10.128000 15.705000
v 1.717000 -14.761000 15.705000
v 1.717000 -10.116000 15.705000
v 2.217000 -14.768000 15.705000
v 2.217000 -10.296000 15.705000
v 2.717000 -14.586000 15.705000
v 2.717000 -10.807000 15.705000
v 3.217000 -14.339000 15.705000
v 3.217000 -11.589000 15.705000
v 3.717000 -14.069000 15.705000
v 3.717000 -11.938000 15.705000
v 4.217000 -13.672000 15.705000
v 4.217000 -12.332000 15.705000
v 0.739000 -11.747000 13.205000
v 2.139000 -11.747000 13.205000
v -0.164000 -11.747000 13.705000
v 2.545000 -11.747000 13.705000
v -0.581000 -11.747000 14.205000
v 2.764000 -11.747000 14.205000
v -0.684000 -11.747000 14.705000
v 2.894000 -11.747000 14.705000
v -0.567000 -11.747000 15.205000
v 3.060000 -11.747000 15.205000
v -0.363000 -11.747000 15.705000
v 3.409000 -11.747000 15.705000
v -0.040000 -11.747000 16.205000
v 3.869000 -11.747000 16.205000
v 0.567000 -11.747000 16.705000
v 4.077000 -11.747000 16.705000
v 1.869000 -11.747000 17.205000
v 3.774000 -11.747000 17.205000
v -0.283000 -11.747000 13.797000
v -0.283000 -11.747000 15.881000
v 0.217000 -11.747000 13.529000
v 0.217000 -11.747000 16.414000
v 0.717000 -11.747000 13.221000
v 0.717000 -11.747000 16.824000
v 1.217000 -11.747000 13.001000
v 1.217000 -11.747000 17.041000
v 1.717000 -11.747000 13.013000
v 1.717000 -11.747000 17.169000
v 2.217000 -11.747000 13.265000
v 2.217000 -11.747000 17.278000
v 2.717000 -11.747000 14.099000
v 2.717000 -11.747000 17.353000
v 3.217000 -11.747000 15.441000
v 3.217000 -11.747000 17.318000
v 3.717000 -11.747000 16.074000
v 3.717000 -11.747000 17.235000
v 0.217000 -12.806000 16.205000
v 0.217000 -11.185000 16.205000
v 0.717000 -14.033000 16.205000
v 0.717000 -10.458000 16.205000
v 1.217000 -14.386000 16.205000
v 1.217000 -10.228000 16.205000
v 1.717000 -14.433000 16.205000
v 1.717000 -10.215000 16.205000
v 2.217000 -14.489000 16.205000
v 2.217000 -10.412000 16.205000
v 2.717000 -14.446000 16.205000
v 2.717000 -10.970000 16.205000
v 3.217000 -14.385000 16.205000
v 3.217000 -11.451000 16.205000
v 3.717000 -14.296000 16.205000
v 3.717000 -11.697000 16.205000
v 4.217000 -14.081000 16.205000
v 4.217000 -11.923000 16.205000
v 4.717000 -13.393000 16.205000
v 4.717000 -12.611000 16.205000
v 0.808000 -11.247000 13.705000
v 2.121000 -11.247000 13.705000
v 0.062000 -11.247000 14.205000
v 2.547000 -11.247000 14.205000
v -0.184000 -11.247000 14.705000
v 2.664000 -11.247000 14.705000
v -0.236000 -11.247000 15.205000
v 2.795000 -11.247000 15.205000
v -0.135000 -11.247000 15.705000
v 2.949000 -11.247000 15.705000
v 0.189000 -11.247000 16.205000
v 2.963000 -11.247000 16.205000
v 0.568000 -11.247000 16.705000
v 2.626000 -11.247000 16.705000
v 0.217000 -11.247000 14.094000
v 0.217000 -11.247000 16.247000
v 0.717000 -11.247000 13.773000
v 0.717000 -11.247000 16.824000
v 1.217000 -11.247000 13.495000
v 1.217000 -11.247000 17.038000
v 1.717000 -11.247000 13.503000
v 1.717000 -11.247000 17.053000
v 2.217000 -11.247000 13.777000
v 2.217000 -11.247000 16.943000
v 2.717000 -11.247000 14.956000
v 2.717000 -11.247000 16.626000
v 0.717000 -12.086000 16.705000
v 0.717000 -10.934000 16.705000
v 1.217000 -12.898000 16.705000
v 1.217000 -10.576000 16.705000
v 1.717000 -14.018000 16.705000
v 1.717000 -10.558000 16.705000
v 2.217000 -14.254000 16.705000
v 2.217000 -10.853000 16.705000
v 2.717000 -14.382000 16.705000
v 2.717000 -11.309000 16.705000
v 3.217000 -14.391000 16.705000
v 3.217000 -11.518000 16.705000
v 3.717000 -14.377000 16.705000
v 3.717000 -11.627000 16.705000
v 4.217000 -14.176000 16.705000
v 4.217000 -11.827000 16.705000
v 4.717000 -13.608000 16.705000
v 4.717000 -12.395000 16.705000
v 1.356000 -14.747000 14.705000
v 2.347000 -14.747000 14.705000
v 0.982000 -14.747000 15.205000
v 2.602000 -14.747000 15.205000
v 1.350000 -14.747000 15.705000
v 2.317000 -14.747000 15.705000
v 1.075000 -10.747000 14.205000
v 1.866000 -10.747000 14.205000
v 0.665000 -10.747000 14.705000
v 2.248000 -10.747000 14.705000
v 0.327000 -10.747000 15.205000
v 2.577000 -10.747000 15.205000
v 0.311000 -10.747000 15.705000
v 2.681000 -10.747000 15.705000
v 0.436000 -10.747000 16.205000
v 2.563000 -10.747000 16.205000
v 0.894000 -10.747000 16.705000
v 2.106000 -10.747000 16.705000
v 1.217000 -14.747000 14.769000
v 1.217000 -14.747000 15.642000
v 1.717000 -14.747000 14.659000
v 1.717000 -14.747000 15.738000
v 2.217000 -14.747000 14.635000
v 2.217000 -14.747000 15.754000
v 0.717000 -10.747000 14.660000
v 0.717000 -10.747000 16.575000
v 1.217000 -10.747000 14.118000
v 1.217000 -10.747000 16.837000
v 1.717000 -10.747000 14.115000
v 1.717000 -10.747000 16.852000
v 2.217000 -10.747000 14.660000
v 2.217000 -10.747000 16.629000
v 0.717000 -13.181000 13.205000
v 0.717000 -11.770000 13.205000
v 1.217000 -13.430000 13.205000
v 1.217000 -11.486000 13.205000
v 1.717000 -13.416000 13.205000
v 1.717000 -11.500000 13.205000
v 2.217000 -13.083000 13.205000
v 2.217000 -11.834000 13.205000
v 1.717000 -13.465000 17.205000
v 1.717000 -11.911000 17.205000
v 2.217000 -14.089000 17.205000
v 2.217000 -11.643000 17.205000
v 2.717000 -14.298000 17.205000
v 2.717000 -11.646000 17.205000
v 3.217000 -14.301000 17.205000
v 3.217000 -11.700000 17.205000
v 3.717000 -14.269000 17.205000
v 3.717000 -11.734000 17.205000
v 4.217000 -14.048000 17.205000
v 4.217000 -11.955000 17.205000
v 4.717000 -13.290000 17.205000
v 4.717000 -12.713000 17.205000
f 103 187 203
f 203 187 267
f 267 187 251
f 251 104 267
f 105 67 83
f 83 67 41
f 67 123 41
f 67 125 123
f 125 103 203
f 185 125 203
f 123 125 185
f 267 249 185
f 267 185 203
f 104 313 327
f 104 327 42
f 267 104 42
f 249 267 42
f 313 106 327
f 107 1 21
f 105 83 1
f 1 83 21
f 83 65 21
f 65 43 21
f 83 41 65
f 327 311 42
f 106 367 379
f 106 379 44
f 327 106 44
f 311 327 44
f 367 108 379
f 23 109 21
f 21 109 107
f 21 43 45
f 21 45 23
f 381 46 44
f 381 44 379
f 379 108 381
f 381 108 110
f 25 111 23
f 23 111 109
f 23 45 47
f 23 47 25
f 381 365 46
f 110 415 435
f 110 435 48
f 381 110 48
f 365 381 48
f 415 112 435
f 27 113 25
f 25 113 111
f 25 47 49
f 25 49 27
f 437 50 48
f 437 48 435
f 435 112 437
f 437 112 114
f 29 115 27
f 27 115 113
f 27 49 51
f 27 51 29
f 366 387 52
f 437 416 50
f 50 416 366
f 416 116 366
f 116 387 366
f 437 114 416
f 29 2 115
f 95 117 66
f 66 117 51
f 117 2 51
f 2 29 51
f 53 95 66
f 312 339 54
f 387 368 52
f 52 368 312
f 368 118 312
f 118 339 312
f 387 116 368
f 95 68 117
f 53 124 95
f 124 68 95
f 124 126 68
f 186 219 119
f 126 186 119
f 124 186 126
f 252 120 219
f 186 252 219
f 250 252 186
f 339 314 54
f 314 250 54
f 314 252 250
f 339 118 314
f 219 188 119
f 219 120 188
f 154 139 55
f 216 201 154
f 154 201 139
f 216 56 201
f 96 81 57
f 81 96 55
f 96 154 55
f 96 156 154
f 218 154 156
f 216 154 218
f 56 216 265
f 216 282 265
f 216 218 282
f 282 58 265
f 59 98 57
f 57 98 96
f 158 96 98
f 156 96 158
f 220 156 158
f 218 156 220
f 284 218 220
f 282 218 284
f 58 282 60
f 60 282 284
f 61 100 59
f 59 100 98
f 160 98 100
f 158 98 160
f 222 158 160
f 220 158 222
f 286 220 222
f 284 220 286
f 60 284 62
f 62 284 286
f 82 100 61
f 63 162 82
f 162 100 82
f 162 160 100
f 224 160 162
f 222 160 224
f 266 286 64
f 286 224 64
f 286 222 224
f 62 286 266
f 140 162 63
f 202 224 140
f 140 224 162
f 64 224 202
f 165 127 141
f 141 127 103
f 127 187 103
f 127 189 187
f 189 251 187
f 253 251 189
f 253 166 251
f 251 166 104
f 167 69 105
f 105 69 67
f 69 165 141
f 125 69 141
f 67 69 125
f 141 103 125
f 313 104 166
f 313 166 315
f 315 168 313
f 313 168 106
f 169 3 107
f 107 3 1
f 105 1 3
f 105 3 167
f 367 106 168
f 367 168 369
f 369 170 367
f 367 170 108
f 171 107 109
f 171 169 107
f 170 417 433
f 110 170 433
f 108 170 110
f 417 172 433
f 173 109 111
f 173 171 109
f 433 415 110
f 433 172 415
f 172 112 415
f 172 174 112
f 175 409 429
f 113 429 409
f 173 113 409
f 111 113 173
f 112 176 114
f 174 176 112
f 431 177 429
f 429 177 175
f 429 113 115
f 429 115 431
f 416 439 116
f 416 114 439
f 114 178 439
f 114 176 178
f 431 410 177
f 31 179 2
f 2 179 115
f 179 410 115
f 410 431 115
f 117 31 2
f 370 180 118
f 370 118 368
f 439 418 116
f 418 368 116
f 418 370 368
f 439 178 418
f 31 4 179
f 97 181 68
f 68 181 117
f 181 4 117
f 4 31 117
f 126 157 97
f 126 97 68
f 119 157 126
f 254 182 120
f 254 120 252
f 314 254 252
f 314 316 254
f 314 118 316
f 316 118 180
f 97 70 181
f 70 97 128
f 128 97 157
f 119 188 157
f 188 128 157
f 188 190 128
f 188 120 190
f 190 120 182
f 227 129 165
f 165 129 127
f 129 189 127
f 191 189 129
f 268 253 228
f 253 191 228
f 253 189 191
f 268 166 253
f 229 71 167
f 167 71 69
f 165 69 71
f 165 71 227
f 255 268 228
f 315 166 268
f 255 315 268
f 317 315 255
f 317 230 315
f 315 230 168
f 231 5 169
f 169 5 3
f 167 3 5
f 167 5 229
f 369 168 230
f 369 230 371
f 371 232 369
f 369 232 170
f 233 169 171
f 233 231 169
f 417 170 232
f 417 232 419
f 419 234 417
f 417 234 172
f 235 411 427
f 173 427 411
f 233 173 411
f 171 173 233
f 234 15 37
f 174 234 37
f 172 234 174
f 15 236 37
f 409 175 427
f 175 235 427
f 175 237 235
f 427 173 409
f 39 176 174
f 39 174 37
f 37 236 39
f 39 236 238
f 239 175 177
f 239 237 175
f 176 39 16
f 240 176 16
f 178 176 240
f 39 238 16
f 177 410 239
f 239 410 412
f 241 412 410
f 241 410 179
f 370 389 180
f 420 242 389
f 370 420 389
f 418 420 370
f 418 178 420
f 420 178 240
f 179 4 241
f 241 4 6
f 243 6 4
f 243 4 181
f 254 283 182
f 318 244 283
f 254 318 283
f 316 318 254
f 389 372 180
f 372 316 180
f 372 318 316
f 389 242 372
f 181 70 243
f 243 70 72
f 128 159 245
f 72 128 245
f 70 128 72
f 190 221 159
f 190 159 128
f 283 256 182
f 182 256 190
f 256 246 190
f 246 221 190
f 283 244 256
f 159 130 245
f 130 159 192
f 192 159 221
f 221 246 192
f 142 129 227
f 204 191 142
f 142 191 129
f 204 228 191
f 84 71 229
f 131 142 227
f 131 227 71
f 289 131 71
f 84 289 71
f 142 131 193
f 142 193 204
f 255 228 204
f 193 255 204
f 257 255 193
f 257 317 255
f 319 317 257
f 319 290 317
f 317 290 230
f 22 5 231
f 73 84 229
f 73 229 5
f 291 73 5
f 22 291 5
f 289 84 73
f 371 230 290
f 371 290 373
f 373 292 371
f 371 292 232
f 22 231 7
f 231 293 7
f 231 233 293
f 291 22 7
f 419 232 292
f 419 292 421
f 421 294 419
f 419 294 234
f 428 411 235
f 233 411 428
f 295 233 428
f 293 233 295
f 15 234 294
f 15 294 17
f 17 296 15
f 15 296 236
f 428 235 413
f 235 297 413
f 235 237 297
f 295 428 413
f 236 298 238
f 296 298 236
f 299 237 239
f 299 297 237
f 18 300 240
f 18 240 16
f 16 238 18
f 18 238 298
f 239 412 299
f 299 412 414
f 301 414 412
f 301 412 241
f 422 302 242
f 422 242 420
f 420 240 422
f 422 240 300
f 33 303 6
f 303 241 6
f 303 301 241
f 243 33 6
f 318 341 244
f 374 304 341
f 318 374 341
f 372 374 318
f 372 242 374
f 374 242 302
f 33 8 303
f 99 305 72
f 72 305 243
f 305 8 243
f 8 33 243
f 245 99 72
f 256 285 246
f 341 320 244
f 244 320 256
f 320 306 256
f 306 285 256
f 341 304 320
f 99 74 305
f 161 307 130
f 130 307 245
f 307 74 245
f 74 99 245
f 192 223 161
f 192 161 130
f 285 258 246
f 246 258 192
f 258 308 192
f 308 223 192
f 285 306 258
f 161 132 307
f 132 161 194
f 194 161 223
f 223 308 194
f 144 131 289
f 206 193 144
f 144 193 131
f 270 257 206
f 206 257 193
f 328 319 270
f 270 319 257
f 328 290 319
f 86 73 291
f 73 86 289
f 86 144 289
f 86 146 144
f 146 345 195
f 206 146 195
f 144 146 206
f 206 195 259
f 206 259 270
f 270 259 321
f 270 321 328
f 373 290 328
f 321 373 328
f 375 373 321
f 375 346 373
f 373 346 292
f 24 7 293
f 75 86 291
f 75 291 7
f 347 75 7
f 24 347 7
f 86 75 133
f 86 133 146
f 345 146 133
f 421 292 346
f 421 346 423
f 423 348 421
f 421 348 294
f 24 293 9
f 293 349 9
f 293 295 349
f 347 24 9
f 17 294 348
f 17 348 19
f 19 350 17
f 17 350 296
f 430 413 297
f 295 413 430
f 351 295 430
f 349 295 351
f 296 352 298
f 350 352 296
f 299 432 297
f 297 432 430
f 351 430 432
f 351 432 353
f 20 354 300
f 20 300 18
f 18 298 20
f 20 298 352
f 414 432 299
f 353 432 414
f 301 353 414
f 355 353 301
f 424 356 302
f 424 302 422
f 422 300 424
f 424 300 354
f 357 301 303
f 357 355 301
f 376 358 304
f 376 304 374
f 374 302 376
f 376 302 356
f 35 359 8
f 359 303 8
f 359 357 303
f 305 35 8
f 320 343 306
f 320 304 343
f 304 360 343
f 304 358 360
f 35 10 359
f 101 361 74
f 74 361 305
f 361 10 305
f 10 35 305
f 307 101 74
f 258 287 308
f 343 322 306
f 306 322 258
f 322 362 258
f 362 287 258
f 343 360 322
f 101 76 361
f 163 363 132
f 132 363 307
f 363 76 307
f 76 101 307
f 194 225 163
f 194 163 132
f 287 260 308
f 308 260 194
f 260 364 194
f 364 225 194
f 287 362 260
f 163 134 363
f 134 163 196
f 196 163 225
f 225 364 196
f 208 195 345
f 272 259 208
f 208 259 195
f 330 321 272
f 272 321 259
f 380 375 330
f 330 375 321
f 380 346 375
f 88 75 347
f 148 133 88
f 88 133 75
f 133 148 345
f 148 208 345
f 148 210 208
f 274 208 210
f 272 208 274
f 274 391 323
f 330 274 323
f 272 274 330
f 330 323 377
f 330 377 380
f 392 434 423
f 392 423 346
f 377 392 346
f 380 377 346
f 434 348 423
f 26 9 349
f 9 26 347
f 26 88 347
f 26 90 88
f 150 88 90
f 148 88 150
f 150 393 197
f 210 150 197
f 148 150 210
f 210 197 261
f 210 261 274
f 391 274 261
f 425 434 392
f 394 38 19
f 394 19 348
f 425 394 348
f 434 425 348
f 38 350 19
f 351 28 349
f 349 28 26
f 28 395 77
f 90 28 77
f 26 28 90
f 90 77 135
f 90 135 150
f 393 150 135
f 396 40 38
f 396 38 394
f 350 38 352
f 352 38 40
f 28 351 11
f 351 397 11
f 351 353 397
f 395 28 11
f 426 398 440
f 40 396 426
f 40 426 440
f 20 40 440
f 354 20 440
f 352 40 20
f 399 353 355
f 399 397 353
f 378 400 390
f 440 398 378
f 440 378 390
f 424 440 390
f 356 424 390
f 354 440 424
f 401 355 357
f 401 399 355
f 358 376 390
f 400 358 390
f 402 358 400
f 356 390 376
f 403 357 359
f 403 401 357
f 358 404 360
f 402 404 358
f 359 10 403
f 403 10 12
f 405 12 10
f 405 10 361
f 324 406 362
f 324 362 322
f 322 360 324
f 324 360 404
f 361 76 405
f 405 76 78
f 407 78 76
f 407 76 363
f 262 408 364
f 262 364 260
f 260 362 262
f 262 362 406
f 363 134 407
f 407 134 136
f 196 136 134
f 196 198 136
f 196 364 198
f 198 364 408
f 441 183 209
f 209 183 273
f 273 183 247
f 247 442 273
f 443 121 149
f 441 209 121
f 209 149 121
f 209 211 149
f 209 275 211
f 209 273 275
f 309 333 442
f 333 273 442
f 333 275 273
f 309 444 333
f 151 445 149
f 149 445 443
f 149 213 151
f 149 211 213
f 211 277 213
f 211 275 277
f 275 335 277
f 275 333 335
f 333 444 335
f 335 444 446
f 151 122 445
f 122 151 447
f 151 215 447
f 151 213 215
f 213 279 215
f 213 277 279
f 448 279 310
f 279 335 310
f 279 277 335
f 335 446 310
f 215 184 447
f 184 215 248
f 248 215 279
f 279 448 248
f 332 323 391
f 382 377 332
f 332 377 323
f 382 392 377
f 212 197 393
f 276 261 212
f 212 261 197
f 261 276 391
f 276 332 391
f 276 334 332
f 384 332 334
f 382 332 384
f 392 382 425
f 382 436 425
f 382 384 436
f 436 394 425
f 92 77 395
f 449 137 92
f 137 77 92
f 137 135 77
f 199 212 393
f 135 199 393
f 137 199 135
f 212 199 263
f 212 263 276
f 276 263 450
f 336 276 450
f 334 276 336
f 386 334 336
f 384 334 386
f 438 384 386
f 436 384 438
f 394 436 396
f 396 436 438
f 30 11 397
f 79 92 395
f 79 395 11
f 451 79 11
f 30 451 11
f 449 92 79
f 325 336 450
f 336 325 452
f 388 336 452
f 386 336 388
f 426 438 398
f 438 388 398
f 438 386 388
f 396 438 426
f 30 397 13
f 397 453 13
f 397 399 453
f 451 30 13
f 400 378 388
f 452 400 388
f 454 400 452
f 398 388 378
f 455 399 401
f 455 453 399
f 400 456 402
f 454 456 400
f 457 401 403
f 457 455 401
f 402 458 404
f 456 458 402
f 403 12 457
f 457 12 14
f 459 14 12
f 459 12 405
f 326 460 406
f 326 406 324
f 324 404 326
f 326 404 458
f 405 78 459
f 459 78 80
f 461 80 78
f 461 78 407
f 264 462 408
f 264 408 262
f 262 406 264
f 264 406 460
f 407 136 461
f 461 136 138
f 198 138 136
f 198 200 138
f 198 408 200
f 200 408 462
f 41 123 143
f 143 123 205
f 205 123 185
f 205 185 269
f 269 185 249
f 249 42 269
f 43 65 85
f 41 143 65
f 143 85 65
f 143 145 85
f 143 207 145
f 143 205 207
f 205 271 207
f 205 269 271
f 311 329 42
f 329 269 42
f 329 271 269
f 311 44 329
f 87 45 85
f 85 45 43
f 85 147 87
f 85 145 147
f 207 183 441
f 147 207 441
f 145 207 147
f 271 247 183
f 271 183 207
f 331 442 247
f 271 331 247
f 329 331 271
f 329 44 331
f 331 44 46
f 89 47 87
f 87 47 45
f 147 121 443
f 89 147 443
f 87 147 89
f 147 441 121
f 331 309 442
f 46 365 383
f 46 383 444
f 331 46 444
f 309 331 444
f 365 48 383
f 91 49 89
f 89 49 47
f 89 443 445
f 89 445 91
f 385 446 444
f 385 444 383
f 383 48 385
f 385 48 50
f 93 51 91
f 91 51 49
f 91 445 122
f 153 91 122
f 93 91 153
f 447 153 122
f 310 337 448
f 385 366 446
f 446 366 310
f 366 52 310
f 52 337 310
f 385 50 366
f 93 66 51
f 66 93 53
f 93 155 53
f 93 153 155
f 153 447 184
f 217 153 184
f 155 153 217
f 248 281 217
f 248 217 184
f 337 312 448
f 448 312 248
f 312 54 248
f 54 281 248
f 337 52 312
f 155 124 53
f 124 155 186
f 186 155 217
f 186 217 250
f 250 217 281
f 281 54 250
f 152 137 449
f 214 199 152
f 152 199 137
f 278 263 214
f 214 263 199
f 278 450 263
f 94 79 451
f 139 152 449
f 139 449 79
f 55 139 79
f 94 55 79
f 152 139 201
f 152 201 214
f 214 201 56
f 280 214 56
f 278 214 280
f 450 278 325
f 278 338 325
f 278 280 338
f 338 452 325
f 32 13 453
f 81 94 451
f 81 451 13
f 57 81 13
f 32 57 13
f 55 94 81
f 265 280 56
f 280 265 58
f 340 280 58
f 338 280 340
f 452 338 454
f 454 338 340
f 455 34 453
f 453 34 32
f 57 32 34
f 57 34 59
f 60 342 340
f 60 340 58
f 454 340 456
f 456 340 342
f 457 36 455
f 455 36 34
f 59 34 36
f 59 36 61
f 62 344 342
f 62 342 60
f 456 342 458
f 458 342 344
f 14 36 457
f 82 61 102
f 102 61 459
f 61 36 459
f 36 14 459
f 63 82 102
f 266 64 288
f 344 62 266
f 344 266 288
f 326 344 288
f 460 326 288
f 458 344 326
f 80 102 459
f 140 63 164
f 164 63 461
f 63 102 461
f 102 80 461
f 140 164 226
f 140 226 202
f 288 64 202
f 288 202 226
f 264 288 226
f 462 264 226
f 460 288 264
f 138 164 461
f 200 226 138
f 138 226 164
f 462 226 200
