# Converted from NanoShaper .vert/.face
v 4.344000 -9.247000 6.705000
v 5.597000 -9.247000 6.705000
v 3.885000 -9.247000 7.205000
v 6.130000 -9.247000 7.205000
v 0.420000 -9.247000 7.705000
v 2.042000 -9.247000 7.705000
v 3.525000 -9.247000 7.705000
v 6.555000 -9.247000 7.705000
v -0.054000 -9.247000 8.205000
v 6.751000 -9.247000 8.205000
v -0.181000 -9.247000 8.705000
v 6.850000 -9.247000 8.705000
v -0.088000 -9.247000 9.205000
v 6.811000 -9.247000 9.205000
v 0.305000 -9.247000 9.705000
v 6.721000 -9.247000 9.705000
v 0.856000 -9.247000 10.205000
v 6.393000 -9.247000 10.205000
v 1.307000 -9.247000 10.705000
v 5.930000 -9.247000 10.705000
v 1.426000 -9.247000 11.205000
v 3.815000 -9.247000 11.205000
v 1.809000 -9.247000 11.705000
v 2.838000 -9.247000 11.705000
v -0.033000 -9.247000 8.166000
v -0.033000 -9.247000 9.319000
v 0.467000 -9.247000 7.679000
v 0.467000 -9.247000 9.830000
v 0.967000 -9.247000 7.548000
v 0.967000 -9.247000 10.308000
v 1.467000 -9.247000 7.555000
v 1.467000 -9.247000 11.388000
v 1.967000 -9.247000 7.667000
v 1.967000 -9.247000 11.731000
v 2.467000 -9.247000 7.909000
v 2.467000 -9.247000 11.844000
v 2.967000 -9.247000 7.959000
v 2.967000 -9.247000 11.597000
v 3.467000 -9.247000 7.752000
v 3.467000 -9.247000 11.329000
v 3.967000 -9.247000 7.068000
v 3.967000 -9.247000 11.157000
v 4.467000 -9.247000 6.639000
v 4.467000 -9.247000 11.052000
v 4.967000 -9.247000 6.528000
v 4.967000 -9.247000 11.050000
v 5.467000 -9.247000 6.636000
v 5.467000 -9.247000 10.974000
v 5.967000 -9.247000 7.049000
v 5.967000 -9.247000 10.670000
v 6.467000 -9.247000 7.547000
v 6.467000 -9.247000 10.127000
v 0.467000 -10.484000 10.205000
v 0.467000 -9.904000 10.205000
v 0.967000 -11.209000 10.205000
v 0.967000 -9.163000 10.205000
v 1.467000 -11.494000 10.205000
v 1.467000 -8.959000 10.205000
v 1.967000 -11.573000 10.205000
v 1.967000 -8.622000 10.205000
v 2.467000 -11.527000 10.205000
v 2.467000 -8.301000 10.205000
v 2.967000 -11.476000 10.205000
v 2.967000 -8.222000 10.205000
v 3.467000 -11.425000 10.205000
v 3.467000 -8.197000 10.205000
v 3.967000 -11.448000 10.205000
v 3.967000 -8.154000 10.205000
v 4.467000 -11.498000 10.205000
v 4.467000 -8.216000 10.205000
v 4.967000 -11.551000 10.205000
v 4.967000 -8.177000 10.205000
v 5.467000 -11.554000 10.205000
v 5.467000 -8.257000 10.205000
v 5.967000 -11.405000 10.205000
v 5.967000 -8.581000 10.205000
v 4.522000 -8.747000 7.205000
v 5.418000 -8.747000 7.205000
v 4.148000 -8.747000 7.705000
v 6.085000 -8.747000 7.705000
v 0.612000 -8.747000 8.205000
v 1.827000 -8.747000 8.205000
v 3.268000 -8.747000 8.205000
v 6.534000 -8.747000 8.205000
v 0.344000 -8.747000 8.705000
v 6.653000 -8.747000 8.705000
v 0.527000 -8.747000 9.205000
v 6.630000 -8.747000 9.205000
v 1.111000 -8.747000 9.705000
v 6.526000 -8.747000 9.705000
v 1.815000 -8.747000 10.205000
v 6.128000 -8.747000 10.205000
v 2.256000 -8.747000 10.705000
v 5.619000 -8.747000 10.705000
v 0.467000 -8.747000 8.353000
v 0.467000 -8.747000 9.131000
v 0.967000 -8.747000 8.072000
v 0.967000 -8.747000 9.556000
v 1.467000 -8.747000 8.094000
v 1.467000 -8.747000 9.892000
v 1.967000 -8.747000 8.320000
v 1.967000 -8.747000 10.396000
v 2.467000 -8.747000 8.506000
v 2.467000 -8.747000 10.815000
v 2.967000 -8.747000 8.361000
v 2.967000 -8.747000 10.890000
v 3.467000 -8.747000 8.100000
v 3.467000 -8.747000 10.880000
v 3.967000 -8.747000 7.848000
v 3.967000 -8.747000 10.929000
v 4.467000 -8.747000 7.257000
v 4.467000 -8.747000 10.848000
v 4.967000 -8.747000 7.040000
v 4.967000 -8.747000 10.867000
v 5.467000 -8.747000 7.250000
v 5.467000 -8.747000 10.779000
v 5.967000 -8.747000 7.631000
v 5.967000 -8.747000 10.398000
v 6.467000 -8.747000 8.084000
v 6.467000 -8.747000 9.819000
v 4.467000 -10.774000 6.705000
v 4.467000 -9.156000 6.705000
v 4.967000 -10.918000 6.705000
v 4.967000 -9.012000 6.705000
v 5.467000 -10.779000 6.705000
v 5.467000 -9.152000 6.705000
v 0.967000 -11.379000 10.705000
v 0.967000 -9.479000 10.705000
v 1.467000 -11.748000 10.705000
v 1.467000 -9.188000 10.705000
v 1.967000 -11.851000 10.705000
v 1.967000 -8.914000 10.705000
v 2.467000 -11.804000 10.705000
v 2.467000 -8.642000 10.705000
v 2.967000 -11.698000 10.705000
v 2.967000 -8.536000 10.705000
v 3.467000 -11.491000 10.705000
v 3.467000 -8.528000 10.705000
v 3.967000 -11.258000 10.705000
v 3.967000 -8.466000 10.705000
v 4.467000 -11.053000 10.705000
v 4.467000 -8.563000 10.705000
v 4.967000 -11.006000 10.705000
v 4.967000 -8.529000 10.705000
v 5.467000 -10.852000 10.705000
v 5.467000 -8.644000 10.705000
v 4.787000 -8.247000 8.205000
v 5.820000 -8.247000 8.205000
v 3.588000 -8.247000 8.705000
v 6.094000 -8.247000 8.705000
v 2.755000 -8.247000 9.205000
v 6.120000 -8.247000 9.205000
v 2.372000 -8.247000 9.705000
v 5.916000 -8.247000 9.705000
v 2.654000 -8.247000 10.205000
v 5.440000 -8.247000 10.205000
v 2.467000 -8.247000 9.418000
v 2.467000 -8.247000 10.034000
v 2.967000 -8.247000 9.176000
v 2.967000 -8.247000 10.271000
v 3.467000 -8.247000 8.831000
v 3.467000 -8.247000 10.321000
v 3.967000 -8.247000 8.584000
v 3.967000 -8.247000 10.410000
v 4.467000 -8.247000 8.458000
v 4.467000 -8.247000 10.278000
v 4.967000 -8.247000 8.161000
v 4.967000 -8.247000 10.351000
v 5.467000 -8.247000 8.099000
v 5.467000 -8.247000 10.182000
v 5.967000 -8.247000 8.343000
v 5.967000 -8.247000 9.648000
v 3.967000 -10.788000 7.205000
v 3.967000 -9.142000 7.205000
v 4.467000 -11.161000 7.205000
v 4.467000 -8.769000 7.205000
v 4.967000 -11.263000 7.205000
v 4.967000 -8.668000 7.205000
v 5.467000 -11.164000 7.205000
v 5.467000 -8.767000 7.205000
v 5.967000 -10.828000 7.205000
v 5.967000 -9.093000 7.205000
v 0.967000 -11.502000 11.205000
v 0.967000 -9.566000 11.205000
v 1.467000 -11.837000 11.205000
v 1.467000 -9.231000 11.205000
v 1.967000 -11.934000 11.205000
v 1.967000 -9.096000 11.205000
v 2.467000 -11.911000 11.205000
v 2.467000 -9.011000 11.205000
v 2.967000 -11.813000 11.205000
v 2.967000 -9.034000 11.205000
v 3.467000 -11.486000 11.205000
v 3.467000 -9.118000 11.205000
v 3.967000 -10.974000 11.205000
v 3.967000 -9.375000 11.205000
v 4.467000 -10.268000 11.205000
v 4.467000 -10.066000 11.205000
v 4.477000 -11.747000 8.705000
v 5.908000 -11.747000 8.705000
v 4.226000 -11.747000 9.205000
v 6.148000 -11.747000 9.205000
v 4.399000 -11.747000 9.705000
v 5.974000 -11.747000 9.705000
v 1.465000 -11.747000 10.705000
v 2.831000 -11.747000 10.705000
v 1.280000 -11.747000 11.205000
v 3.109000 -11.747000 11.205000
v 1.518000 -11.747000 11.705000
v 2.919000 -11.747000 11.705000
v 1.467000 -11.747000 10.703000
v 1.467000 -11.747000 11.655000
v 1.967000 -11.747000 10.481000
v 1.967000 -11.747000 11.877000
v 2.467000 -11.747000 10.584000
v 2.467000 -11.747000 11.898000
v 2.967000 -11.747000 10.833000
v 2.967000 -11.747000 11.650000
v 4.467000 -11.747000 8.713000
v 4.467000 -11.747000 9.772000
v 4.967000 -11.747000 8.544000
v 4.967000 -11.747000 9.941000
v 5.467000 -11.747000 8.527000
v 5.467000 -11.747000 9.949000
v 5.967000 -11.747000 8.763000
v 5.967000 -11.747000 9.713000
v 0.467000 -10.740000 7.705000
v 0.467000 -9.212000 7.705000
v 0.967000 -10.915000 7.705000
v 0.967000 -9.037000 7.705000
v 1.467000 -10.927000 7.705000
v 1.467000 -9.049000 7.705000
v 1.967000 -10.781000 7.705000
v 1.967000 -9.195000 7.705000
v 2.467000 -10.444000 7.705000
v 2.467000 -9.522000 7.705000
v 2.967000 -10.365000 7.705000
v 2.967000 -9.607000 7.705000
v 3.467000 -10.685000 7.705000
v 3.467000 -9.301000 7.705000
v 3.967000 -11.008000 7.705000
v 3.967000 -8.843000 7.705000
v 4.467000 -11.277000 7.705000
v 4.467000 -8.616000 7.705000
v 4.967000 -11.373000 7.705000
v 4.967000 -8.502000 7.705000
v 5.467000 -11.300000 7.705000
v 5.467000 -8.507000 7.705000
v 5.967000 -11.158000 7.705000
v 5.967000 -8.672000 7.705000
v 6.467000 -10.785000 7.705000
v 6.467000 -9.125000 7.705000
v 0.967000 -11.348000 11.705000
v 0.967000 -9.720000 11.705000
v 1.467000 -11.727000 11.705000
v 1.467000 -9.341000 11.705000
v 1.967000 -11.832000 11.705000
v 1.967000 -9.236000 11.705000
v 2.467000 -11.832000 11.705000
v 2.467000 -9.190000 11.705000
v 2.967000 -11.728000 11.705000
v 2.967000 -9.293000 11.705000
v 3.467000 -11.358000 11.705000
v 3.467000 -9.622000 11.705000
v 4.771000 -11.247000 7.205000
v 5.169000 -11.247000 7.205000
v 4.399000 -11.247000 7.705000
v 5.666000 -11.247000 7.705000
v 0.782000 -11.247000 8.205000
v 1.752000 -11.247000 8.205000
v 4.106000 -11.247000 8.205000
v 6.180000 -11.247000 8.205000
v 0.430000 -11.247000 8.705000
v 6.522000 -11.247000 8.705000
v 0.655000 -11.247000 9.205000
v 6.646000 -11.247000 9.205000
v 1.044000 -11.247000 9.705000
v 6.552000 -11.247000 9.705000
v 1.019000 -11.247000 10.205000
v 6.163000 -11.247000 10.205000
v 0.865000 -11.247000 10.705000
v 3.987000 -11.247000 10.705000
v 0.773000 -11.247000 11.205000
v 3.704000 -11.247000 11.205000
v 0.894000 -11.247000 11.705000
v 3.550000 -11.247000 11.705000
v 1.346000 -11.247000 12.205000
v 3.153000 -11.247000 12.205000
v 0.467000 -11.247000 8.534000
v 0.467000 -11.247000 8.951000
v 0.967000 -11.247000 8.158000
v 0.967000 -11.247000 9.503000
v 0.967000 -11.247000 10.381000
v 0.967000 -11.247000 11.834000
v 1.467000 -11.247000 8.132000
v 1.467000 -11.247000 12.270000
v 1.967000 -11.247000 8.384000
v 1.967000 -11.247000 12.384000
v 2.467000 -11.247000 8.575000
v 2.467000 -11.247000 12.432000
v 2.967000 -11.247000 8.480000
v 2.967000 -11.247000 12.316000
v 3.467000 -11.247000 8.534000
v 3.467000 -11.247000 11.865000
v 3.967000 -11.247000 8.327000
v 3.967000 -11.247000 10.724000
v 4.467000 -11.247000 7.480000
v 4.467000 -11.247000 10.494000
v 4.967000 -11.247000 7.168000
v 4.967000 -11.247000 10.461000
v 5.467000 -11.247000 7.467000
v 5.467000 -11.247000 10.447000
v 5.967000 -11.247000 7.951000
v 5.967000 -11.247000 10.325000
v 6.467000 -11.247000 8.605000
v 6.467000 -11.247000 9.871000
v -0.033000 -10.734000 8.205000
v -0.033000 -9.218000 8.205000
v 0.467000 -11.147000 8.205000
v 0.467000 -8.805000 8.205000
v 0.967000 -11.268000 8.205000
v 0.967000 -8.684000 8.205000
v 1.467000 -11.280000 8.205000
v 1.467000 -8.696000 8.205000
v 1.967000 -11.178000 8.205000
v 1.967000 -8.796000 8.205000
v 2.467000 -11.043000 8.205000
v 2.467000 -8.929000 8.205000
v 2.967000 -11.046000 8.205000
v 2.967000 -8.892000 8.205000
v 3.467000 -11.054000 8.205000
v 3.467000 -8.621000 8.205000
v 3.967000 -11.193000 8.205000
v 3.967000 -8.490000 8.205000
v 4.467000 -11.436000 8.205000
v 4.467000 -8.346000 8.205000
v 4.967000 -11.535000 8.205000
v 4.967000 -8.229000 8.205000
v 5.467000 -11.525000 8.205000
v 5.467000 -8.201000 8.205000
v 5.967000 -11.380000 8.205000
v 5.967000 -8.298000 8.205000
v 6.467000 -10.968000 8.205000
v 6.467000 -8.661000 8.205000
v 1.467000 -11.339000 12.205000
v 1.467000 -9.730000 12.205000
v 1.967000 -11.487000 12.205000
v 1.967000 -9.578000 12.205000
v 2.467000 -11.527000 12.205000
v 2.467000 -9.495000 12.205000
v 2.967000 -11.388000 12.205000
v 2.967000 -9.635000 12.205000
v 4.426000 -10.747000 6.705000
v 5.515000 -10.747000 6.705000
v 3.934000 -10.747000 7.205000
v 6.054000 -10.747000 7.205000
v 0.478000 -10.747000 7.705000
v 2.016000 -10.747000 7.705000
v 3.555000 -10.747000 7.705000
v 6.496000 -10.747000 7.705000
v -0.023000 -10.747000 8.205000
v 6.622000 -10.747000 8.205000
v -0.153000 -10.747000 8.705000
v 6.735000 -10.747000 8.705000
v -0.058000 -10.747000 9.205000
v 6.821000 -10.747000 9.205000
v 0.309000 -10.747000 9.705000
v 6.741000 -10.747000 9.705000
v 0.574000 -10.747000 10.205000
v 6.429000 -10.747000 10.205000
v 0.628000 -10.747000 10.705000
v 5.607000 -10.747000 10.705000
v 0.594000 -10.747000 11.205000
v 4.169000 -10.747000 11.205000
v 0.698000 -10.747000 11.705000
v 3.772000 -10.747000 11.705000
v 1.049000 -10.747000 12.205000
v 3.441000 -10.747000 12.205000
v -0.033000 -10.747000 8.225000
v -0.033000 -10.747000 9.260000
v 0.467000 -10.747000 7.710000
v 0.467000 -10.747000 9.939000
v 0.967000 -10.747000 7.575000
v 0.967000 -10.747000 12.124000
v 1.467000 -10.747000 7.567000
v 1.467000 -10.747000 12.465000
v 1.967000 -10.747000 7.680000
v 1.967000 -10.747000 12.564000
v 2.467000 -10.747000 7.915000
v 2.467000 -10.747000 12.621000
v 2.967000 -10.747000 7.947000
v 2.967000 -10.747000 12.522000
v 3.467000 -10.747000 7.767000
v 3.467000 -10.747000 12.177000
v 3.967000 -10.747000 7.146000
v 3.967000 -10.747000 11.414000
v 4.467000 -10.747000 6.684000
v 4.467000 -10.747000 11.025000
v 4.967000 -10.747000 6.569000
v 4.967000 -10.747000 10.913000
v 5.467000 -10.747000 6.681000
v 5.467000 -10.747000 10.779000
v 5.967000 -10.747000 7.116000
v 5.967000 -10.747000 10.521000
v 6.467000 -10.747000 7.649000
v 6.467000 -10.747000 10.164000
v -0.033000 -10.904000 8.705000
v -0.033000 -9.048000 8.705000
v 0.467000 -11.264000 8.705000
v 0.467000 -8.688000 8.705000
v 0.967000 -11.375000 8.705000
v 0.967000 -8.577000 8.705000
v 1.467000 -11.387000 8.705000
v 1.467000 -8.588000 8.705000
v 1.967000 -11.315000 8.705000
v 1.967000 -8.614000 8.705000
v 2.467000 -11.290000 8.705000
v 2.467000 -8.613000 8.705000
v 2.967000 -11.349000 8.705000
v 2.967000 -8.507000 8.705000
v 3.467000 -11.331000 8.705000
v 3.467000 -8.288000 8.705000
v 3.967000 -11.468000 8.705000
v 3.967000 -8.199000 8.705000
v 4.467000 -11.744000 8.705000
v 4.467000 -8.193000 8.705000
v 4.967000 -11.827000 8.705000
v 4.967000 -8.121000 8.705000
v 5.467000 -11.836000 8.705000
v 5.467000 -8.103000 8.705000
v 5.967000 -11.723000 8.705000
v 5.967000 -8.192000 8.705000
v 6.467000 -11.326000 8.705000
v 6.467000 -8.516000 8.705000
v 4.060000 -10.247000 6.705000
v 5.880000 -10.247000 6.705000
v 3.632000 -10.247000 7.205000
v 6.386000 -10.247000 7.205000
v 0.115000 -10.247000 7.705000
v 6.731000 -10.247000 7.705000
v -0.249000 -10.247000 8.205000
v 6.829000 -10.247000 8.205000
v -0.359000 -10.247000 8.705000
v 6.883000 -10.247000 8.705000
v -0.279000 -10.247000 9.205000
v 6.828000 -10.247000 9.205000
v 0.034000 -10.247000 9.705000
v 6.732000 -10.247000 9.705000
v 0.428000 -10.247000 10.205000
v 6.411000 -10.247000 10.205000
v 0.590000 -10.247000 10.705000
v 5.889000 -10.247000 10.705000
v 0.608000 -10.247000 11.205000
v 4.472000 -10.247000 11.205000
v 0.712000 -10.247000 11.705000
v 3.799000 -10.247000 11.705000
v 1.069000 -10.247000 12.205000
v 3.434000 -10.247000 12.205000
v -0.033000 -10.247000 7.854000
v -0.033000 -10.247000 9.631000
v 0.467000 -10.247000 7.483000
v 0.467000 -10.247000 10.284000
v 0.967000 -10.247000 7.370000
v 0.967000 -10.247000 12.104000
v 1.467000 -10.247000 7.367000
v 1.467000 -10.247000 12.451000
v 1.967000 -10.247000 7.463000
v 1.967000 -10.247000 12.553000
v 2.467000 -10.247000 7.622000
v 2.467000 -10.247000 12.616000
v 2.967000 -10.247000 7.653000
v 2.967000 -10.247000 12.517000
v 3.467000 -10.247000 7.377000
v 3.467000 -10.247000 12.170000
v 3.967000 -10.247000 6.795000
v 3.967000 -10.247000 11.516000
v 4.467000 -10.247000 6.455000
v 4.467000 -10.247000 11.206000
v 4.967000 -10.247000 6.359000
v 4.967000 -10.247000 11.104000
v 5.467000 -10.247000 6.452000
v 5.467000 -10.247000 10.990000
v 5.967000 -10.247000 6.788000
v 5.967000 -10.247000 10.625000
v 6.467000 -10.247000 7.286000
v 6.467000 -10.247000 10.145000
v -0.033000 -10.782000 9.205000
v -0.033000 -9.170000 9.205000
v 0.467000 -11.179000 9.205000
v 0.467000 -8.773000 9.205000
v 0.967000 -11.314000 9.205000
v 0.967000 -8.648000 9.205000
v 1.467000 -11.389000 9.205000
v 1.467000 -8.590000 9.205000
v 1.967000 -11.378000 9.205000
v 1.967000 -8.511000 9.205000
v 2.467000 -11.381000 9.205000
v 2.467000 -8.318000 9.205000
v 2.967000 -11.425000 9.205000
v 2.967000 -8.236000 9.205000
v 3.467000 -11.430000 9.205000
v 3.467000 -8.169000 9.205000
v 3.967000 -11.592000 9.205000
v 3.967000 -8.121000 9.205000
v 4.467000 -11.857000 9.205000
v 4.467000 -8.140000 9.205000
v 4.967000 -11.934000 9.205000
v 4.967000 -8.074000 9.205000
v 5.467000 -11.941000 9.205000
v 5.467000 -8.065000 9.205000
v 5.967000 -11.837000 9.205000
v 5.967000 -8.173000 9.205000
v 6.467000 -11.489000 9.205000
v 6.467000 -8.526000 9.205000
v 4.043000 -9.747000 6.705000
v 5.898000 -9.747000 6.705000
v 3.614000 -9.747000 7.205000
v 6.408000 -9.747000 7.205000
v 0.103000 -9.747000 7.705000
v 6.747000 -9.747000 7.705000
v -0.258000 -9.747000 8.205000
v 6.844000 -9.747000 8.205000
v -0.366000 -9.747000 8.705000
v 6.883000 -9.747000 8.705000
v -0.287000 -9.747000 9.205000
v 6.823000 -9.747000 9.205000
v 0.024000 -9.747000 9.705000
v 6.723000 -9.747000 9.705000
v 0.525000 -9.747000 10.205000
v 6.390000 -9.747000 10.205000
v 0.762000 -9.747000 10.705000
v 5.923000 -9.747000 10.705000
v 0.820000 -9.747000 11.205000
v 4.238000 -9.747000 11.205000
v 0.946000 -9.747000 11.705000
v 3.570000 -9.747000 11.705000
v 1.440000 -9.747000 12.205000
v 3.123000 -9.747000 12.205000
v -0.033000 -9.747000 7.842000
v -0.033000 -9.747000 9.643000
v 0.467000 -9.747000 7.474000
v 0.467000 -9.747000 10.129000
v 0.967000 -9.747000 7.362000
v 0.967000 -9.747000 11.744000
v 1.467000 -9.747000 7.364000
v 1.467000 -9.747000 12.218000
v 1.967000 -9.747000 7.459000
v 1.967000 -9.747000 12.341000
v 2.467000 -9.747000 7.613000
v 2.467000 -9.747000 12.415000
v 2.967000 -9.747000 7.640000
v 2.967000 -9.747000 12.296000
v 3.467000 -9.747000 7.356000
v 3.467000 -9.747000 11.838000
v 3.967000 -9.747000 6.778000
v 3.967000 -9.747000 11.346000
v 4.467000 -9.747000 6.442000
v 4.467000 -9.747000 11.136000
v 4.967000 -9.747000 6.347000
v 4.967000 -9.747000 11.098000
v 5.467000 -9.747000 6.440000
v 5.467000 -9.747000 10.992000
v 5.967000 -9.747000 6.772000
v 5.967000 -9.747000 10.662000
v 6.467000 -9.747000 7.263000
v 6.467000 -9.747000 10.124000
v 0.467000 -10.907000 9.705000
v 0.467000 -9.112000 9.705000
v 0.967000 -11.210000 9.705000
v 0.967000 -8.802000 9.705000
v 1.467000 -11.377000 9.705000
v 1.467000 -8.669000 9.705000
v 1.967000 -11.395000 9.705000
v 1.967000 -8.475000 9.705000
v 2.467000 -11.383000 9.705000
v 2.467000 -8.211000 9.705000
v 2.967000 -11.389000 9.705000
v 2.967000 -8.137000 9.705000
v 3.467000 -11.389000 9.705000
v 3.467000 -8.103000 9.705000
v 3.967000 -11.538000 9.705000
v 3.967000 -8.072000 9.705000
v 4.467000 -11.775000 9.705000
v 4.467000 -8.116000 9.705000
v 4.967000 -11.856000 9.705000
v 4.967000 -8.070000 9.705000
v 5.467000 -11.861000 9.705000
v 5.467000 -8.129000 9.705000
v 5.967000 -11.751000 9.705000
v 5.967000 -8.269000 9.705000
v 6.467000 -11.367000 9.705000
v 6.467000 -8.665000 9.705000
f 121 353 397
f 397 353 477
f 477 353 435
f 477 435 557
f 557 435 515
f 557 515 43
f 43 515 1
f 1 122 43
f 399 123 397
f 397 123 121
f 397 479 399
f 397 477 479
f 477 559 479
f 477 557 559
f 557 45 559
f 557 43 45
f 43 122 45
f 45 122 124
f 401 125 399
f 399 125 123
f 399 481 401
f 399 479 481
f 479 561 481
f 479 559 561
f 559 47 561
f 559 45 47
f 45 124 47
f 47 124 126
f 401 354 125
f 354 401 436
f 436 401 481
f 436 481 516
f 516 481 561
f 516 561 2
f 2 561 47
f 47 126 2
f 462 449 53
f 462 54 449
f 127 281 293
f 293 281 55
f 281 369 55
f 281 371 369
f 451 462 53
f 369 451 53
f 371 451 369
f 529 54 462
f 451 529 462
f 531 529 451
f 30 17 128
f 17 531 128
f 17 529 531
f 30 56 17
f 129 205 211
f 127 293 205
f 205 293 211
f 293 279 211
f 279 57 211
f 293 55 279
f 19 30 128
f 19 130 30
f 130 56 30
f 130 58 56
f 213 131 211
f 211 131 129
f 211 57 59
f 211 59 213
f 132 102 91
f 58 132 91
f 130 132 58
f 102 60 91
f 215 133 213
f 213 133 131
f 213 59 61
f 213 61 215
f 93 102 132
f 93 134 102
f 134 60 102
f 134 62 60
f 215 206 133
f 135 206 215
f 61 135 215
f 63 135 61
f 136 160 155
f 62 136 155
f 134 136 62
f 160 64 155
f 137 63 65
f 137 135 63
f 138 162 160
f 138 160 136
f 64 160 66
f 66 160 162
f 139 65 67
f 139 137 65
f 140 164 162
f 140 162 138
f 66 162 68
f 68 162 164
f 282 139 308
f 139 69 308
f 139 67 69
f 141 282 308
f 142 166 164
f 142 164 140
f 68 164 70
f 70 164 166
f 71 310 69
f 69 310 308
f 141 308 310
f 141 310 143
f 144 168 166
f 144 166 142
f 70 166 72
f 72 166 168
f 73 312 71
f 71 312 310
f 143 310 312
f 143 312 145
f 74 156 168
f 144 74 168
f 146 74 144
f 72 168 156
f 75 314 73
f 73 314 312
f 404 372 145
f 312 404 145
f 314 404 312
f 372 404 484
f 372 484 452
f 452 484 564
f 452 564 532
f 532 564 50
f 532 50 20
f 20 50 118
f 20 118 94
f 118 76 94
f 76 146 94
f 76 74 146
f 280 314 75
f 370 404 280
f 280 404 314
f 450 484 370
f 370 484 404
f 530 564 450
f 450 564 484
f 18 50 530
f 530 50 564
f 92 118 18
f 18 118 50
f 76 118 92
f 173 355 395
f 395 355 475
f 475 355 437
f 475 437 555
f 555 437 517
f 555 517 41
f 41 517 3
f 3 174 41
f 353 121 395
f 121 173 395
f 121 175 173
f 475 435 353
f 475 353 395
f 555 515 435
f 555 435 475
f 41 1 515
f 41 515 555
f 41 174 1
f 174 122 1
f 174 176 122
f 177 265 309
f 123 309 265
f 175 123 265
f 121 123 175
f 176 77 113
f 124 176 113
f 122 176 124
f 77 178 113
f 309 266 177
f 179 266 309
f 123 179 309
f 125 179 123
f 124 113 78
f 180 124 78
f 126 124 180
f 113 178 78
f 403 181 354
f 181 125 354
f 181 179 125
f 436 483 403
f 436 403 354
f 516 563 483
f 516 483 436
f 2 49 563
f 2 563 516
f 2 126 49
f 126 182 49
f 126 180 182
f 403 356 181
f 356 403 438
f 438 403 483
f 438 483 518
f 518 483 563
f 518 563 4
f 4 563 49
f 49 182 4
f 183 283 127
f 127 283 281
f 283 371 281
f 373 371 283
f 373 451 371
f 453 451 373
f 453 531 451
f 533 531 453
f 533 184 531
f 531 184 128
f 185 207 129
f 129 207 205
f 127 205 207
f 127 207 183
f 19 128 184
f 19 184 21
f 21 186 19
f 19 186 130
f 187 129 131
f 187 185 129
f 130 188 132
f 186 188 130
f 189 131 133
f 189 187 131
f 190 104 93
f 132 190 93
f 188 190 132
f 104 134 93
f 217 191 206
f 191 133 206
f 191 189 133
f 135 217 206
f 192 106 104
f 192 104 190
f 134 104 136
f 136 104 106
f 217 208 191
f 193 208 217
f 135 193 217
f 137 193 135
f 194 108 106
f 194 106 192
f 136 106 138
f 138 106 108
f 284 193 306
f 193 139 306
f 193 137 139
f 195 284 306
f 22 196 42
f 108 194 22
f 42 108 22
f 110 108 42
f 138 108 140
f 140 108 110
f 282 306 139
f 374 195 398
f 398 195 141
f 195 306 141
f 306 282 141
f 197 374 398
f 534 198 558
f 42 196 534
f 558 42 534
f 44 42 558
f 112 42 44
f 110 42 112
f 140 110 142
f 142 110 112
f 143 400 141
f 141 400 398
f 480 454 197
f 398 480 197
f 400 480 398
f 558 198 454
f 480 558 454
f 560 558 480
f 46 558 560
f 44 558 46
f 114 44 46
f 112 44 114
f 142 112 144
f 144 112 114
f 145 402 143
f 143 402 400
f 482 400 402
f 480 400 482
f 562 480 482
f 560 480 562
f 48 560 562
f 46 560 48
f 116 46 48
f 114 46 116
f 144 114 146
f 146 114 116
f 372 402 145
f 452 482 372
f 372 482 402
f 532 562 452
f 452 562 482
f 20 48 532
f 532 48 562
f 94 116 20
f 20 116 48
f 146 116 94
f 227 439 461
f 461 439 541
f 541 439 519
f 541 519 27
f 27 519 5
f 5 228 27
f 229 357 383
f 227 461 357
f 461 383 357
f 461 463 383
f 461 543 463
f 461 541 543
f 541 29 543
f 541 27 29
f 27 228 29
f 29 228 230
f 385 231 383
f 383 231 229
f 383 465 385
f 383 463 465
f 463 545 465
f 463 543 545
f 543 31 545
f 543 29 31
f 29 230 31
f 31 230 232
f 387 233 385
f 385 233 231
f 385 467 387
f 385 465 467
f 465 547 467
f 465 545 547
f 545 33 547
f 545 31 33
f 31 232 33
f 33 232 234
f 387 358 233
f 358 387 235
f 387 469 235
f 387 467 469
f 467 549 469
f 467 547 549
f 236 549 6
f 549 33 6
f 549 547 33
f 33 234 6
f 471 237 469
f 469 237 235
f 469 551 471
f 469 549 551
f 549 236 551
f 551 236 238
f 473 239 471
f 471 239 237
f 471 553 473
f 471 551 553
f 551 238 553
f 553 238 240
f 241 359 173
f 173 359 355
f 359 239 473
f 437 359 473
f 355 359 437
f 553 517 437
f 553 437 473
f 517 553 240
f 7 517 240
f 3 517 7
f 7 242 3
f 3 242 174
f 243 267 307
f 175 307 267
f 241 175 267
f 173 175 241
f 242 79 111
f 176 242 111
f 174 242 176
f 79 244 111
f 265 177 307
f 177 243 307
f 177 245 243
f 307 175 265
f 111 77 176
f 111 244 77
f 244 178 77
f 244 246 178
f 311 247 266
f 247 177 266
f 247 245 177
f 179 311 266
f 78 115 180
f 78 178 115
f 178 248 115
f 178 246 248
f 311 268 247
f 249 268 311
f 179 249 311
f 181 249 179
f 117 182 180
f 117 180 115
f 115 248 117
f 117 248 250
f 405 251 356
f 251 181 356
f 251 249 181
f 438 485 405
f 438 405 356
f 518 565 485
f 518 485 438
f 4 51 565
f 4 565 518
f 117 80 182
f 182 80 4
f 80 252 4
f 252 51 4
f 117 250 80
f 405 360 251
f 360 405 440
f 440 405 485
f 440 485 520
f 520 485 565
f 520 565 8
f 8 565 51
f 51 252 8
f 253 285 183
f 183 285 283
f 285 373 283
f 375 373 285
f 375 453 373
f 455 453 375
f 455 533 453
f 535 533 455
f 535 254 533
f 533 254 184
f 212 207 185
f 183 207 212
f 255 183 212
f 253 183 255
f 256 32 21
f 184 256 21
f 254 256 184
f 32 186 21
f 212 185 209
f 185 257 209
f 185 187 257
f 255 212 209
f 23 32 256
f 23 258 32
f 258 186 32
f 258 188 186
f 259 187 189
f 259 257 187
f 188 260 190
f 258 260 188
f 210 259 218
f 259 191 218
f 259 189 191
f 261 210 218
f 24 262 38
f 38 192 24
f 192 260 24
f 192 190 260
f 208 218 191
f 261 218 208
f 193 261 208
f 263 261 193
f 264 40 38
f 264 38 262
f 192 38 194
f 194 38 40
f 193 284 263
f 263 284 286
f 284 195 396
f 376 284 396
f 286 284 376
f 376 396 476
f 376 476 456
f 456 476 556
f 456 556 536
f 40 264 536
f 40 536 556
f 22 40 556
f 196 22 556
f 194 40 22
f 374 396 195
f 197 478 374
f 478 396 374
f 478 476 396
f 534 556 198
f 556 478 198
f 556 476 478
f 196 556 534
f 454 478 197
f 198 478 454
f 317 441 459
f 459 441 539
f 539 441 521
f 539 521 25
f 25 521 9
f 9 318 25
f 319 361 381
f 317 459 361
f 361 459 381
f 459 439 381
f 439 227 381
f 539 519 439
f 539 439 459
f 25 5 519
f 25 519 539
f 25 318 5
f 318 228 5
f 318 320 228
f 321 269 291
f 319 381 269
f 269 381 291
f 381 357 291
f 357 229 291
f 381 227 357
f 320 81 97
f 230 320 97
f 228 320 230
f 81 322 97
f 295 323 291
f 291 323 321
f 291 229 231
f 291 231 295
f 99 232 230
f 99 230 97
f 97 322 99
f 99 322 324
f 295 270 323
f 325 270 295
f 231 325 295
f 233 325 231
f 232 99 82
f 326 232 82
f 234 232 326
f 99 324 82
f 389 327 358
f 327 233 358
f 327 325 233
f 235 389 358
f 6 35 236
f 6 234 35
f 234 328 35
f 234 326 328
f 391 329 389
f 389 329 327
f 389 235 237
f 389 237 391
f 37 238 236
f 37 236 35
f 35 328 37
f 37 328 330
f 393 331 391
f 391 331 329
f 391 237 239
f 391 239 393
f 39 240 238
f 39 238 37
f 83 107 330
f 107 37 330
f 107 39 37
f 83 332 107
f 359 241 393
f 241 331 393
f 241 333 331
f 393 239 359
f 39 7 240
f 109 242 7
f 39 109 7
f 107 109 39
f 107 332 109
f 109 332 334
f 335 271 243
f 243 271 267
f 241 267 271
f 241 271 333
f 109 79 242
f 109 334 79
f 334 244 79
f 334 336 244
f 337 243 245
f 337 335 243
f 336 147 167
f 246 336 167
f 244 336 246
f 147 338 167
f 339 245 247
f 339 337 245
f 169 248 246
f 169 246 167
f 167 338 169
f 169 338 340
f 313 341 268
f 341 247 268
f 341 339 247
f 249 313 268
f 248 169 148
f 342 248 148
f 250 248 342
f 169 340 148
f 313 272 341
f 343 272 313
f 249 343 313
f 251 343 249
f 80 119 252
f 80 250 119
f 250 344 119
f 250 342 344
f 251 360 343
f 343 360 362
f 440 362 360
f 440 442 362
f 520 442 440
f 520 522 442
f 8 522 520
f 8 10 522
f 119 84 252
f 84 8 252
f 84 10 8
f 119 344 84
f 294 285 253
f 384 375 294
f 294 375 285
f 464 455 384
f 384 455 375
f 544 535 464
f 464 535 455
f 544 254 535
f 294 253 287
f 253 345 287
f 253 255 345
f 294 287 377
f 294 377 384
f 384 377 457
f 384 457 464
f 464 457 537
f 464 537 544
f 537 346 544
f 346 254 544
f 346 256 254
f 214 209 257
f 255 209 214
f 347 255 214
f 345 255 347
f 348 34 23
f 256 348 23
f 346 348 256
f 34 258 23
f 259 216 257
f 257 216 214
f 347 214 216
f 347 216 349
f 350 36 34
f 350 34 348
f 258 34 260
f 260 34 36
f 210 216 259
f 349 216 210
f 261 349 210
f 351 349 261
f 262 24 36
f 350 262 36
f 352 262 350
f 260 36 24
f 288 351 304
f 351 263 304
f 351 261 263
f 288 304 394
f 288 394 378
f 378 394 474
f 378 474 458
f 458 474 554
f 458 554 538
f 554 264 538
f 264 352 538
f 264 262 352
f 286 304 263
f 376 394 286
f 286 394 304
f 456 474 376
f 376 474 394
f 536 554 456
f 456 554 474
f 264 554 536
f 407 363 379
f 379 363 317
f 363 441 317
f 363 443 441
f 443 521 441
f 523 521 443
f 523 9 521
f 11 9 523
f 11 408 9
f 9 408 318
f 409 273 289
f 407 379 273
f 273 379 289
f 379 361 289
f 361 319 289
f 379 317 361
f 408 85 95
f 320 408 95
f 318 408 320
f 85 410 95
f 269 321 289
f 321 409 289
f 321 411 409
f 289 319 269
f 95 81 320
f 95 410 81
f 410 322 81
f 410 412 322
f 413 321 323
f 413 411 321
f 322 414 324
f 412 414 322
f 297 415 270
f 415 323 270
f 415 413 323
f 325 297 270
f 82 101 326
f 82 324 101
f 324 416 101
f 324 414 416
f 299 417 297
f 297 417 415
f 297 325 327
f 297 327 299
f 103 328 326
f 103 326 101
f 101 416 103
f 103 416 418
f 301 419 299
f 299 419 417
f 299 327 329
f 299 329 301
f 105 330 328
f 105 328 103
f 103 418 105
f 105 418 420
f 303 421 301
f 301 421 419
f 301 329 331
f 301 331 303
f 105 83 330
f 105 420 83
f 420 332 83
f 420 422 332
f 305 423 303
f 303 423 421
f 303 331 333
f 303 333 305
f 422 149 163
f 334 422 163
f 332 422 334
f 149 424 163
f 271 335 305
f 335 423 305
f 335 425 423
f 305 333 271
f 165 336 334
f 165 334 163
f 163 424 165
f 165 424 426
f 427 199 221
f 337 221 199
f 425 337 199
f 335 337 425
f 165 147 336
f 165 426 147
f 426 338 147
f 426 428 338
f 223 429 221
f 221 429 427
f 221 337 339
f 221 339 223
f 338 430 340
f 428 430 338
f 223 200 429
f 431 200 223
f 339 431 223
f 341 431 339
f 148 171 342
f 148 340 171
f 340 432 171
f 340 430 432
f 315 433 272
f 433 341 272
f 433 431 341
f 343 315 272
f 342 171 150
f 434 342 150
f 344 342 434
f 171 432 150
f 315 274 433
f 343 362 315
f 362 274 315
f 362 364 274
f 442 364 362
f 442 444 364
f 522 444 442
f 522 524 444
f 10 524 522
f 10 12 524
f 84 12 10
f 84 86 12
f 84 344 86
f 86 344 434
f 296 287 345
f 386 377 296
f 296 377 287
f 466 457 386
f 386 457 377
f 546 537 466
f 466 537 457
f 546 346 537
f 347 298 345
f 345 298 296
f 388 296 298
f 386 296 388
f 468 386 388
f 466 386 468
f 548 466 468
f 546 466 548
f 346 546 348
f 348 546 548
f 349 300 347
f 347 300 298
f 390 298 300
f 388 298 390
f 470 388 390
f 468 388 470
f 550 468 470
f 548 468 550
f 348 548 350
f 350 548 550
f 351 302 349
f 349 302 300
f 392 300 302
f 390 300 392
f 472 390 392
f 470 390 472
f 552 470 472
f 550 470 552
f 350 550 352
f 352 550 552
f 288 302 351
f 378 392 288
f 288 392 302
f 458 472 378
f 378 472 392
f 538 552 458
f 458 552 472
f 352 552 538
f 487 365 407
f 407 365 363
f 365 443 363
f 445 443 365
f 445 523 443
f 525 523 445
f 525 11 523
f 13 11 525
f 13 488 11
f 11 488 408
f 290 273 409
f 407 273 290
f 489 407 290
f 487 407 489
f 490 96 85
f 408 490 85
f 488 490 408
f 96 410 85
f 290 409 275
f 409 491 275
f 409 411 491
f 489 290 275
f 87 96 490
f 87 492 96
f 492 410 96
f 492 412 410
f 493 411 413
f 493 491 411
f 412 494 414
f 492 494 412
f 495 413 415
f 495 493 413
f 414 496 416
f 494 496 414
f 497 415 417
f 497 495 415
f 416 498 418
f 496 498 416
f 499 417 419
f 499 497 417
f 498 151 159
f 420 498 159
f 418 498 420
f 151 500 159
f 501 419 421
f 501 499 419
f 161 422 420
f 161 420 159
f 159 500 161
f 161 500 502
f 503 421 423
f 503 501 421
f 161 149 422
f 161 502 149
f 502 424 149
f 502 504 424
f 505 201 219
f 425 219 201
f 503 425 201
f 423 425 503
f 424 506 426
f 504 506 424
f 199 427 219
f 427 505 219
f 427 507 505
f 219 425 199
f 426 508 428
f 506 508 426
f 509 427 429
f 509 507 427
f 428 510 430
f 508 510 428
f 225 511 200
f 511 429 200
f 511 509 429
f 431 225 200
f 430 512 432
f 510 512 430
f 225 202 511
f 513 202 225
f 431 513 225
f 433 513 431
f 152 514 434
f 152 434 150
f 150 432 152
f 152 432 512
f 433 274 513
f 513 274 276
f 364 276 274
f 364 366 276
f 444 366 364
f 444 446 366
f 524 446 444
f 524 526 446
f 12 526 524
f 12 14 526
f 86 14 12
f 86 88 14
f 86 434 88
f 88 434 514
f 380 365 487
f 460 445 380
f 380 445 365
f 540 525 460
f 460 525 445
f 26 13 540
f 540 13 525
f 26 488 13
f 380 487 367
f 487 567 367
f 487 489 567
f 380 367 447
f 380 447 460
f 460 447 527
f 460 527 540
f 540 527 15
f 540 15 26
f 15 568 26
f 568 488 26
f 568 490 488
f 292 275 491
f 489 275 292
f 569 489 292
f 567 489 569
f 570 98 87
f 490 570 87
f 568 570 490
f 98 492 87
f 292 491 277
f 491 571 277
f 491 493 571
f 569 292 277
f 89 98 570
f 89 572 98
f 572 492 98
f 572 494 492
f 573 493 495
f 573 571 493
f 494 574 496
f 572 574 494
f 575 495 497
f 575 573 495
f 574 153 157
f 498 574 157
f 496 574 498
f 153 576 157
f 577 497 499
f 577 575 497
f 157 151 498
f 157 576 151
f 576 500 151
f 576 578 500
f 579 499 501
f 579 577 499
f 500 580 502
f 578 580 500
f 581 501 503
f 581 579 501
f 502 582 504
f 580 582 502
f 583 203 505
f 505 203 201
f 503 201 203
f 503 203 581
f 504 584 506
f 582 584 504
f 585 505 507
f 585 583 505
f 506 586 508
f 584 586 506
f 587 507 509
f 587 585 507
f 508 588 510
f 586 588 508
f 589 509 511
f 589 587 509
f 154 590 172
f 172 512 154
f 512 588 154
f 512 510 588
f 511 202 589
f 589 202 204
f 591 204 202
f 591 202 513
f 514 152 172
f 590 514 172
f 592 514 590
f 512 172 152
f 513 276 591
f 591 276 278
f 366 278 276
f 366 368 278
f 446 368 366
f 446 448 368
f 526 448 446
f 526 528 448
f 14 528 526
f 14 16 528
f 88 16 14
f 88 90 16
f 88 514 90
f 90 514 592
f 382 367 567
f 53 449 382
f 449 367 382
f 449 447 367
f 542 527 54
f 527 449 54
f 527 447 449
f 28 15 542
f 542 15 527
f 28 568 15
f 382 567 369
f 567 55 369
f 567 569 55
f 53 382 369
f 529 542 54
f 542 529 17
f 542 17 28
f 17 56 28
f 56 568 28
f 56 570 568
f 57 279 571
f 571 279 277
f 569 277 279
f 569 279 55
f 58 100 89
f 570 58 89
f 56 58 570
f 100 572 89
f 59 571 573
f 59 57 571
f 91 100 58
f 91 60 100
f 60 572 100
f 60 574 572
f 61 573 575
f 61 59 573
f 62 158 153
f 574 62 153
f 60 62 574
f 158 576 153
f 63 575 577
f 63 61 575
f 155 158 62
f 155 64 158
f 64 576 158
f 64 578 576
f 65 577 579
f 65 63 577
f 578 66 580
f 64 66 578
f 67 579 581
f 67 65 579
f 580 68 582
f 66 68 580
f 220 203 583
f 581 203 220
f 69 581 220
f 67 581 69
f 582 70 584
f 68 70 582
f 585 222 583
f 583 222 220
f 69 220 222
f 69 222 71
f 584 72 586
f 70 72 584
f 587 224 585
f 585 224 222
f 71 222 224
f 71 224 73
f 156 74 170
f 170 588 156
f 588 72 156
f 588 586 72
f 589 226 587
f 587 226 224
f 73 224 226
f 73 226 75
f 590 154 170
f 74 590 170
f 76 590 74
f 588 170 154
f 204 226 589
f 280 75 316
f 316 75 591
f 75 226 591
f 226 204 591
f 280 316 406
f 280 406 370
f 370 406 486
f 370 486 450
f 450 486 566
f 450 566 530
f 530 566 52
f 530 52 18
f 18 52 120
f 18 120 92
f 120 592 92
f 592 76 92
f 592 590 76
f 278 316 591
f 368 406 278
f 278 406 316
f 448 486 368
f 368 486 406
f 528 566 448
f 448 566 486
f 16 52 528
f 528 52 566
f 90 120 16
f 16 120 52
f 592 120 90
