# Converted from NanoShaper .vert/.face
v 10.747000 -1.107000 -2.541000
v 12.893000 -1.107000 -2.541000
v 10.278000 -1.107000 -2.041000
v 14.308000 -1.107000 -2.041000
v 10.103000 -1.107000 -1.541000
v 14.628000 -1.107000 -1.541000
v 9.812000 -1.107000 -1.041000
v 14.712000 -1.107000 -1.041000
v 9.712000 -1.107000 -0.541000
v 14.607000 -1.107000 -0.541000
v 9.601000 -1.107000 -0.041000
v 14.265000 -1.107000 -0.041000
v 9.333000 -1.107000 0.459000
v 13.941000 -1.107000 0.459000
v 8.794000 -1.107000 0.959000
v 13.555000 -1.107000 0.959000
v 8.111000 -1.107000 1.459000
v 13.068000 -1.107000 1.459000
v 7.254000 -1.107000 1.959000
v 12.541000 -1.107000 1.959000
v 7.013000 -1.107000 2.459000
v 12.224000 -1.107000 2.459000
v 7.035000 -1.107000 2.959000
v 11.936000 -1.107000 2.959000
v 7.306000 -1.107000 3.459000
v 11.669000 -1.107000 3.459000
v 7.869000 -1.107000 3.959000
v 11.400000 -1.107000 3.959000
v 8.366000 -1.107000 4.459000
v 11.192000 -1.107000 4.459000
v 8.979000 -1.107000 4.959000
v 10.849000 -1.107000 4.959000
v 7.102000 2.893000 -0.041000
v 8.816000 2.893000 -0.041000
v 6.762000 2.893000 0.459000
v 10.688000 2.893000 0.459000
v 6.997000 2.893000 0.959000
v 10.980000 2.893000 0.959000
v 7.350000 2.893000 1.459000
v 10.990000 2.893000 1.459000
v 7.680000 2.893000 1.959000
v 10.879000 2.893000 1.959000
v 8.350000 2.893000 2.459000
v 10.449000 2.893000 2.459000
v 7.117000 -1.107000 2.160000
v 7.117000 -1.107000 3.177000
v 7.617000 -1.107000 1.694000
v 7.617000 -1.107000 3.723000
v 8.117000 -1.107000 1.455000
v 8.117000 -1.107000 4.181000
v 8.617000 -1.107000 1.111000
v 8.617000 -1.107000 4.662000
v 9.117000 -1.107000 0.680000
v 9.117000 -1.107000 5.071000
v 9.617000 -1.107000 -0.086000
v 9.617000 -1.107000 5.293000
v 10.117000 -1.107000 -1.572000
v 10.117000 -1.107000 5.311000
v 10.617000 -1.107000 -2.454000
v 10.617000 -1.107000 5.133000
v 11.117000 -1.107000 -2.710000
v 11.117000 -1.107000 4.618000
v 11.617000 -1.107000 -2.870000
v 11.617000 -1.107000 3.555000
v 12.117000 -1.107000 -2.858000
v 12.117000 -1.107000 2.699000
v 12.617000 -1.107000 -2.653000
v 12.617000 -1.107000 1.883000
v 13.117000 -1.107000 -2.481000
v 13.117000 -1.107000 1.423000
v 13.617000 -1.107000 -2.414000
v 13.617000 -1.107000 0.908000
v 14.117000 -1.107000 -2.200000
v 14.117000 -1.107000 0.153000
v 14.617000 -1.107000 -1.570000
v 14.617000 -1.107000 -0.563000
v 7.117000 2.893000 -0.047000
v 7.117000 2.893000 1.044000
v 7.617000 2.893000 -0.070000
v 7.617000 2.893000 1.928000
v 8.117000 2.893000 -0.213000
v 8.117000 2.893000 2.165000
v 8.617000 2.893000 -0.183000
v 8.617000 2.893000 2.623000
v 9.117000 2.893000 0.154000
v 9.117000 2.893000 2.681000
v 9.617000 2.893000 0.267000
v 9.617000 2.893000 2.677000
v 10.117000 2.893000 0.302000
v 10.117000 2.893000 2.628000
v 10.617000 2.893000 0.421000
v 10.617000 2.893000 2.324000
v 6.117000 0.950000 0.459000
v 6.117000 2.291000 0.459000
v 6.617000 0.425000 0.459000
v 6.617000 2.815000 0.459000
v 7.117000 0.213000 0.459000
v 7.117000 3.001000 0.459000
v 7.617000 0.119000 0.459000
v 7.617000 3.014000 0.459000
v 8.117000 0.083000 0.459000
v 8.117000 3.046000 0.459000
v 8.617000 -0.112000 0.459000
v 8.617000 3.095000 0.459000
v 9.117000 -0.653000 0.459000
v 9.117000 3.108000 0.459000
v 9.617000 -2.097000 0.459000
v 9.617000 3.065000 0.459000
v 10.117000 -2.655000 0.459000
v 10.117000 3.021000 0.459000
v 10.617000 -3.400000 0.459000
v 10.617000 2.910000 0.459000
v 11.117000 -3.753000 0.459000
v 11.117000 2.711000 0.459000
v 11.617000 -3.939000 0.459000
v 11.617000 2.128000 0.459000
v 12.117000 -4.139000 0.459000
v 12.117000 1.382000 0.459000
v 12.617000 -4.173000 0.459000
v 12.617000 0.779000 0.459000
v 13.117000 -4.162000 0.459000
v 13.117000 -0.179000 0.459000
v 13.617000 -3.943000 0.459000
v 13.617000 -0.717000 0.459000
v 14.117000 -3.234000 0.459000
v 14.117000 -1.550000 0.459000
v 8.617000 -2.951000 4.459000
v 8.617000 1.350000 4.459000
v 9.117000 -3.085000 4.459000
v 9.117000 1.567000 4.459000
v 9.617000 -3.155000 4.459000
v 9.617000 1.573000 4.459000
v 10.117000 -3.129000 4.459000
v 10.117000 1.253000 4.459000
v 10.617000 -2.929000 4.459000
v 10.617000 0.136000 4.459000
v 11.117000 -2.437000 4.459000
v 11.117000 -0.864000 4.459000
v 10.393000 -0.607000 -2.541000
v 12.883000 -0.607000 -2.541000
v 10.049000 -0.607000 -2.041000
v 14.017000 -0.607000 -2.041000
v 9.872000 -0.607000 -1.541000
v 14.415000 -0.607000 -1.541000
v 9.606000 -0.607000 -1.041000
v 14.514000 -0.607000 -1.041000
v 9.514000 -0.607000 -0.541000
v 14.390000 -0.607000 -0.541000
v 9.407000 -0.607000 -0.041000
v 13.973000 -0.607000 -0.041000
v 9.082000 -0.607000 0.459000
v 13.505000 -0.607000 0.459000
v 8.538000 -0.607000 0.959000
v 13.048000 -0.607000 0.959000
v 7.338000 -0.607000 1.459000
v 12.511000 -0.607000 1.459000
v 6.835000 -0.607000 1.959000
v 12.166000 -0.607000 1.959000
v 6.705000 -0.607000 2.459000
v 11.965000 -0.607000 2.459000
v 6.800000 -0.607000 2.959000
v 11.638000 -0.607000 2.959000
v 7.164000 -0.607000 3.459000
v 11.451000 -0.607000 3.459000
v 7.926000 -0.607000 3.959000
v 11.195000 -0.607000 3.959000
v 8.435000 -0.607000 4.459000
v 10.983000 -0.607000 4.459000
v 9.200000 -0.607000 4.959000
v 10.516000 -0.607000 4.959000
v 9.001000 3.393000 0.959000
v 9.972000 3.393000 0.959000
v 8.718000 3.393000 1.459000
v 10.368000 3.393000 1.459000
v 8.935000 3.393000 1.959000
v 10.077000 3.393000 1.959000
v 7.117000 -0.607000 1.607000
v 7.117000 -0.607000 3.417000
v 7.617000 -0.607000 1.357000
v 7.617000 -0.607000 3.758000
v 8.117000 -0.607000 1.173000
v 8.117000 -0.607000 4.120000
v 8.617000 -0.607000 0.906000
v 8.617000 -0.607000 4.601000
v 9.117000 -0.607000 0.422000
v 9.117000 -0.607000 4.918000
v 9.617000 -0.607000 -1.068000
v 9.617000 -0.607000 5.095000
v 10.117000 -0.607000 -2.185000
v 10.117000 -0.607000 5.108000
v 10.617000 -0.607000 -2.707000
v 10.617000 -0.607000 4.892000
v 11.117000 -0.607000 -2.887000
v 11.117000 -0.607000 4.158000
v 11.617000 -0.607000 -2.902000
v 11.617000 -0.607000 3.000000
v 12.117000 -0.607000 -2.878000
v 12.117000 -0.607000 2.055000
v 12.617000 -0.607000 -2.684000
v 12.617000 -0.607000 1.334000
v 13.117000 -0.607000 -2.448000
v 13.117000 -0.607000 0.907000
v 13.617000 -0.607000 -2.278000
v 13.617000 -0.607000 0.351000
v 14.117000 -0.607000 -1.954000
v 14.117000 -0.607000 -0.177000
v 9.117000 3.393000 0.900000
v 9.117000 3.393000 2.069000
v 9.617000 3.393000 0.912000
v 9.617000 3.393000 2.055000
v 10.117000 3.393000 1.023000
v 10.117000 3.393000 1.937000
v 6.117000 1.140000 0.959000
v 6.117000 2.100000 0.959000
v 6.617000 0.417000 0.959000
v 6.617000 2.720000 0.959000
v 7.117000 0.004000 0.959000
v 7.117000 2.920000 0.959000
v 7.617000 -0.221000 0.959000
v 7.617000 2.985000 0.959000
v 8.117000 -0.347000 0.959000
v 8.117000 3.051000 0.959000
v 8.617000 -0.699000 0.959000
v 8.617000 3.235000 0.959000
v 9.117000 -3.002000 0.959000
v 9.117000 3.419000 0.959000
v 9.617000 -3.311000 0.959000
v 9.617000 3.413000 0.959000
v 10.117000 -3.494000 0.959000
v 10.117000 3.368000 0.959000
v 10.617000 -3.858000 0.959000
v 10.617000 3.135000 0.959000
v 11.117000 -4.090000 0.959000
v 11.117000 2.808000 0.959000
v 11.617000 -4.136000 0.959000
v 11.617000 2.294000 0.959000
v 12.117000 -4.224000 0.959000
v 12.117000 1.021000 0.959000
v 12.617000 -4.255000 0.959000
v 12.617000 -0.224000 0.959000
v 13.117000 -4.245000 0.959000
v 13.117000 -0.668000 0.959000
v 13.617000 -4.042000 0.959000
v 13.617000 -1.178000 0.959000
v 14.117000 -3.466000 0.959000
v 14.117000 -2.047000 0.959000
v 9.117000 -2.504000 4.959000
v 9.117000 -0.771000 4.959000
v 9.617000 -2.815000 4.959000
v 9.617000 -0.272000 4.959000
v 10.117000 -2.824000 4.959000
v 10.117000 -0.398000 4.959000
v 10.617000 -2.545000 4.959000
v 10.617000 -0.699000 4.959000
v 11.999000 -4.107000 0.459000
v 13.307000 -4.107000 0.459000
v 11.208000 -4.107000 0.959000
v 13.506000 -4.107000 0.959000
v 10.869000 -4.107000 1.459000
v 13.240000 -4.107000 1.459000
v 8.649000 -4.107000 1.959000
v 9.848000 -4.107000 1.959000
v 11.140000 -4.107000 1.959000
v 12.781000 -4.107000 1.959000
v 8.183000 -4.107000 2.459000
v 10.066000 -4.107000 2.459000
v 11.504000 -4.107000 2.459000
v 12.153000 -4.107000 2.459000
v 7.809000 -4.107000 2.959000
v 9.862000 -4.107000 2.959000
v 8.042000 -4.107000 3.459000
v 9.004000 -4.107000 3.459000
v 10.377000 -0.107000 -2.541000
v 12.833000 -0.107000 -2.541000
v 10.036000 -0.107000 -2.041000
v 13.801000 -0.107000 -2.041000
v 9.868000 -0.107000 -1.541000
v 14.132000 -0.107000 -1.541000
v 9.564000 -0.107000 -1.041000
v 14.224000 -0.107000 -1.041000
v 9.321000 -0.107000 -0.541000
v 14.116000 -0.107000 -0.541000
v 9.150000 -0.107000 -0.041000
v 13.760000 -0.107000 -0.041000
v 8.611000 -0.107000 0.459000
v 13.052000 -0.107000 0.459000
v 7.321000 -0.107000 0.959000
v 12.527000 -0.107000 0.959000
v 6.857000 -0.107000 1.459000
v 12.188000 -0.107000 1.459000
v 6.603000 -0.107000 1.959000
v 11.905000 -0.107000 1.959000
v 6.495000 -0.107000 2.459000
v 11.681000 -0.107000 2.459000
v 6.576000 -0.107000 2.959000
v 11.402000 -0.107000 2.959000
v 6.892000 -0.107000 3.459000
v 11.230000 -0.107000 3.459000
v 7.753000 -0.107000 3.959000
v 11.105000 -0.107000 3.959000
v 8.337000 -0.107000 4.459000
v 10.739000 -0.107000 4.459000
v 8.117000 -4.107000 2.508000
v 8.117000 -4.107000 3.503000
v 8.617000 -4.107000 1.975000
v 8.617000 -4.107000 3.504000
v 9.117000 -4.107000 1.808000
v 9.117000 -4.107000 3.413000
v 9.617000 -4.107000 1.827000
v 9.617000 -4.107000 3.132000
v 11.117000 -4.107000 1.006000
v 11.117000 -4.107000 1.928000
v 11.617000 -4.107000 0.854000
v 11.617000 -4.107000 2.513000
v 12.117000 -4.107000 0.381000
v 12.117000 -4.107000 2.480000
v 12.617000 -4.107000 0.308000
v 12.617000 -4.107000 2.053000
v 13.117000 -4.107000 0.331000
v 13.117000 -4.107000 1.554000
v 6.617000 -0.107000 1.929000
v 6.617000 -0.107000 3.059000
v 7.117000 -0.107000 1.121000
v 7.117000 -0.107000 3.642000
v 7.617000 -0.107000 0.814000
v 7.617000 -0.107000 3.882000
v 8.117000 -0.107000 0.695000
v 8.117000 -0.107000 4.231000
v 8.617000 -0.107000 0.455000
v 8.617000 -0.107000 4.682000
v 9.117000 -0.107000 0.011000
v 9.117000 -0.107000 4.874000
v 9.617000 -0.107000 -1.126000
v 9.617000 -0.107000 4.915000
v 10.117000 -0.107000 -2.209000
v 10.117000 -0.107000 4.791000
v 10.617000 -0.107000 -2.721000
v 10.617000 -0.107000 4.558000
v 11.117000 -0.107000 -2.899000
v 11.117000 -0.107000 3.932000
v 11.617000 -0.107000 -2.887000
v 11.617000 -0.107000 2.602000
v 12.117000 -0.107000 -2.864000
v 12.117000 -0.107000 1.594000
v 12.617000 -0.107000 -2.681000
v 12.617000 -0.107000 0.873000
v 13.117000 -0.107000 -2.410000
v 13.117000 -0.107000 0.406000
v 13.617000 -0.107000 -2.192000
v 13.617000 -0.107000 0.073000
v 14.117000 -0.107000 -1.579000
v 14.117000 -0.107000 -0.543000
v 10.617000 -0.992000 -2.541000
v 10.617000 0.340000 -2.541000
v 11.117000 -1.457000 -2.541000
v 11.117000 0.622000 -2.541000
v 11.617000 -1.757000 -2.541000
v 11.617000 0.603000 -2.541000
v 12.117000 -1.739000 -2.541000
v 12.117000 0.560000 -2.541000
v 12.617000 -1.484000 -2.541000
v 12.617000 0.256000 -2.541000
v 6.617000 0.305000 1.459000
v 6.617000 2.384000 1.459000
v 7.117000 -0.420000 1.459000
v 7.117000 2.785000 1.459000
v 7.617000 -0.741000 1.459000
v 7.617000 2.972000 1.459000
v 8.117000 -3.391000 1.459000
v 8.117000 -2.271000 1.459000
v 8.117000 -1.116000 1.459000
v 8.117000 3.071000 1.459000
v 8.617000 -3.740000 1.459000
v 8.617000 3.336000 1.459000
v 9.117000 -3.832000 1.459000
v 9.117000 3.522000 1.459000
v 9.617000 -3.839000 1.459000
v 9.617000 3.516000 1.459000
v 10.117000 -3.877000 1.459000
v 10.117000 3.471000 1.459000
v 10.617000 -4.013000 1.459000
v 10.617000 3.258000 1.459000
v 11.117000 -4.184000 1.459000
v 11.117000 2.744000 1.459000
v 11.617000 -4.211000 1.459000
v 11.617000 2.051000 1.459000
v 12.117000 -4.257000 1.459000
v 12.117000 0.087000 1.459000
v 12.617000 -4.259000 1.459000
v 12.617000 -0.722000 1.459000
v 13.117000 -4.142000 1.459000
v 13.117000 -1.159000 1.459000
v 13.617000 -3.916000 1.459000
v 13.617000 -1.730000 1.459000
v 14.117000 -3.145000 1.459000
v 14.117000 -2.598000 1.459000
v 11.724000 -3.607000 -0.041000
v 13.538000 -3.607000 -0.041000
v 10.826000 -3.607000 0.459000
v 13.943000 -3.607000 0.459000
v 10.295000 -3.607000 0.959000
v 14.040000 -3.607000 0.959000
v 8.338000 -3.607000 1.459000
v 13.916000 -3.607000 1.459000
v 7.802000 -3.607000 1.959000
v 13.484000 -3.607000 1.959000
v 7.339000 -3.607000 2.459000
v 12.976000 -3.607000 2.459000
v 7.203000 -3.607000 2.959000
v 12.394000 -3.607000 2.959000
v 7.294000 -3.607000 3.459000
v 10.190000 -3.607000 3.459000
v 7.701000 -3.607000 3.959000
v 9.397000 -3.607000 3.959000
v 10.670000 0.393000 -2.541000
v 12.472000 0.393000 -2.541000
v 10.234000 0.393000 -2.041000
v 13.460000 0.393000 -2.041000
v 10.015000 0.393000 -1.541000
v 13.897000 0.393000 -1.541000
v 9.627000 0.393000 -1.041000
v 14.002000 0.393000 -1.041000
v 8.952000 0.393000 -0.541000
v 13.879000 0.393000 -0.541000
v 6.932000 0.393000 -0.041000
v 13.399000 0.393000 -0.041000
v 6.673000 0.393000 0.459000
v 12.799000 0.393000 0.459000
v 6.640000 0.393000 0.959000
v 12.291000 0.393000 0.959000
v 6.576000 0.393000 1.459000
v 11.975000 0.393000 1.459000
v 6.507000 0.393000 1.959000
v 11.648000 0.393000 1.959000
v 6.482000 0.393000 2.459000
v 11.457000 0.393000 2.459000
v 6.564000 0.393000 2.959000
v 11.268000 0.393000 2.959000
v 6.876000 0.393000 3.459000
v 11.133000 0.393000 3.459000
v 7.435000 0.393000 3.959000
v 10.872000 0.393000 3.959000
v 8.315000 0.393000 4.459000
v 10.441000 0.393000 4.459000
v 7.617000 -3.607000 2.118000
v 7.617000 -3.607000 3.895000
v 8.117000 -3.607000 1.610000
v 8.117000 -3.607000 4.139000
v 8.617000 -3.607000 1.357000
v 8.617000 -3.607000 4.137000
v 9.117000 -3.607000 1.293000
v 9.117000 -3.607000 4.058000
v 9.617000 -3.607000 1.253000
v 9.617000 -3.607000 3.818000
v 10.117000 -3.607000 1.093000
v 10.117000 -3.607000 3.506000
v 10.617000 -3.607000 0.615000
v 10.617000 -3.607000 3.145000
v 11.117000 -3.607000 0.339000
v 11.117000 -3.607000 3.083000
v 11.617000 -3.607000 0.052000
v 11.617000 -3.607000 3.132000
v 12.117000 -3.607000 -0.255000
v 12.117000 -3.607000 3.068000
v 12.617000 -3.607000 -0.287000
v 12.617000 -3.607000 2.802000
v 13.117000 -3.607000 -0.246000
v 13.117000 -3.607000 2.359000
v 13.617000 -3.607000 0.020000
v 13.617000 -3.607000 1.842000
v 6.617000 0.393000 1.164000
v 6.617000 0.393000 3.086000
v 7.117000 0.393000 -0.142000
v 7.117000 0.393000 3.673000
v 7.617000 0.393000 -0.143000
v 7.617000 0.393000 4.093000
v 8.117000 0.393000 -0.152000
v 8.117000 0.393000 4.339000
v 8.617000 0.393000 -0.342000
v 8.617000 0.393000 4.671000
v 9.117000 0.393000 -0.652000
v 9.117000 0.393000 4.854000
v 9.617000 0.393000 -1.032000
v 9.617000 0.393000 4.840000
v 10.117000 0.393000 -1.776000
v 10.117000 0.393000 4.647000
v 10.617000 0.393000 -2.504000
v 10.617000 0.393000 4.308000
v 11.117000 0.393000 -2.715000
v 11.117000 0.393000 3.495000
v 11.617000 0.393000 -2.700000
v 11.617000 0.393000 2.024000
v 12.117000 0.393000 -2.667000
v 12.117000 0.393000 1.198000
v 12.617000 0.393000 -2.456000
v 12.617000 0.393000 0.616000
v 13.117000 0.393000 -2.207000
v 13.117000 0.393000 0.162000
v 13.617000 0.393000 -1.923000
v 13.617000 0.393000 -0.197000
v 10.117000 -0.824000 -2.041000
v 10.117000 0.172000 -2.041000
v 10.617000 -1.431000 -2.041000
v 10.617000 0.771000 -2.041000
v 11.117000 -1.910000 -2.041000
v 11.117000 0.962000 -2.041000
v 11.617000 -2.108000 -2.041000
v 11.617000 0.997000 -2.041000
v 12.117000 -2.150000 -2.041000
v 12.117000 1.094000 -2.041000
v 12.617000 -2.263000 -2.041000
v 12.617000 1.071000 -2.041000
v 13.117000 -2.345000 -2.041000
v 13.117000 0.706000 -2.041000
v 13.617000 -2.328000 -2.041000
v 13.617000 0.239000 -2.041000
v 14.117000 -1.996000 -2.041000
v 14.117000 -0.729000 -2.041000
v 6.617000 -0.161000 1.959000
v 6.617000 1.915000 1.959000
v 7.117000 -0.926000 1.959000
v 7.117000 2.658000 1.959000
v 7.617000 -3.383000 1.959000
v 7.617000 2.881000 1.959000
v 8.117000 -3.880000 1.959000
v 8.117000 2.972000 1.959000
v 8.617000 -4.101000 1.959000
v 8.617000 3.238000 1.959000
v 9.117000 -4.180000 1.959000
v 9.117000 3.438000 1.959000
v 9.617000 -4.170000 1.959000
v 9.617000 3.432000 1.959000
v 10.117000 -4.052000 1.959000
v 10.117000 3.384000 1.959000
v 10.617000 -4.023000 1.959000
v 10.617000 3.154000 1.959000
v 11.117000 -4.100000 1.959000
v 11.117000 2.423000 1.959000
v 11.617000 -4.239000 1.959000
v 11.617000 0.466000 1.959000
v 12.117000 -4.228000 1.959000
v 12.117000 -0.525000 1.959000
v 12.617000 -4.150000 1.959000
v 12.617000 -1.192000 1.959000
v 13.117000 -3.938000 1.959000
v 13.117000 -1.734000 1.959000
v 13.617000 -3.437000 1.959000
v 13.617000 -2.308000 1.959000
v 12.492000 -3.107000 -1.041000
v 13.235000 -3.107000 -1.041000
v 11.637000 -3.107000 -0.541000
v 13.605000 -3.107000 -0.541000
v 11.168000 -3.107000 -0.041000
v 13.902000 -3.107000 -0.041000
v 10.457000 -3.107000 0.459000
v 14.146000 -3.107000 0.459000
v 9.235000 -3.107000 0.959000
v 14.229000 -3.107000 0.959000
v 7.975000 -3.107000 1.459000
v 14.124000 -3.107000 1.459000
v 7.476000 -3.107000 1.959000
v 13.769000 -3.107000 1.959000
v 7.104000 -3.107000 2.459000
v 13.285000 -3.107000 2.459000
v 6.990000 -3.107000 2.959000
v 12.735000 -3.107000 2.959000
v 7.066000 -3.107000 3.459000
v 11.988000 -3.107000 3.459000
v 7.375000 -3.107000 3.959000
v 10.729000 -3.107000 3.959000
v 9.245000 -3.107000 4.459000
v 10.214000 -3.107000 4.459000
v 10.857000 0.893000 -2.041000
v 12.944000 0.893000 -2.041000
v 10.546000 0.893000 -1.541000
v 13.397000 0.893000 -1.541000
v 10.031000 0.893000 -1.041000
v 13.521000 0.893000 -1.041000
v 6.739000 0.893000 -0.541000
v 13.405000 0.893000 -0.541000
v 6.274000 0.893000 -0.041000
v 12.992000 0.893000 -0.041000
v 6.150000 0.893000 0.459000
v 12.529000 0.893000 0.459000
v 6.245000 0.893000 0.959000
v 12.152000 0.893000 0.959000
v 6.402000 0.893000 1.459000
v 11.799000 0.893000 1.459000
v 6.483000 0.893000 1.959000
v 11.467000 0.893000 1.959000
v 6.516000 0.893000 2.459000
v 11.286000 0.893000 2.459000
v 6.622000 0.893000 2.959000
v 11.164000 0.893000 2.959000
v 6.959000 0.893000 3.459000
v 10.947000 0.893000 3.459000
v 7.354000 0.893000 3.959000
v 10.655000 0.893000 3.959000
v 8.362000 0.893000 4.459000
v 10.300000 0.893000 4.459000
v 7.117000 -3.107000 2.431000
v 7.117000 -3.107000 3.583000
v 7.617000 -3.107000 1.842000
v 7.617000 -3.107000 4.158000
v 8.117000 -3.107000 1.351000
v 8.117000 -3.107000 4.355000
v 8.617000 -3.107000 1.146000
v 8.617000 -3.107000 4.395000
v 9.117000 -3.107000 1.010000
v 9.117000 -3.107000 4.438000
v 9.617000 -3.107000 0.807000
v 9.617000 -3.107000 4.536000
v 10.117000 -3.107000 0.662000
v 10.117000 -3.107000 4.517000
v 10.617000 -3.107000 0.336000
v 10.617000 -3.107000 4.028000
v 11.117000 -3.107000 0.003000
v 11.117000 -3.107000 3.752000
v 11.617000 -3.107000 -0.524000
v 11.617000 -3.107000 3.606000
v 12.117000 -3.107000 -0.825000
v 12.117000 -3.107000 3.373000
v 12.617000 -3.107000 -1.112000
v 12.617000 -3.107000 3.052000
v 13.117000 -3.107000 -1.114000
v 13.117000 -3.107000 2.590000
v 13.617000 -3.107000 -0.521000
v 13.617000 -3.107000 2.096000
v 14.117000 -3.107000 0.385000
v 14.117000 -3.107000 1.477000
v 6.617000 0.893000 -0.458000
v 6.617000 0.893000 2.945000
v 7.117000 0.893000 -0.683000
v 7.117000 0.893000 3.663000
v 7.617000 0.893000 -0.683000
v 7.617000 0.893000 4.169000
v 8.117000 0.893000 -0.728000
v 8.117000 0.893000 4.371000
v 8.617000 0.893000 -0.759000
v 8.617000 0.893000 4.586000
v 9.117000 0.893000 -0.791000
v 9.117000 0.893000 4.787000
v 9.617000 0.893000 -0.853000
v 9.617000 0.893000 4.792000
v 10.117000 0.893000 -1.097000
v 10.117000 0.893000 4.598000
v 10.617000 0.893000 -1.660000
v 10.617000 0.893000 4.041000
v 11.117000 0.893000 -2.189000
v 11.117000 0.893000 3.117000
v 11.617000 0.893000 -2.195000
v 11.617000 0.893000 1.699000
v 12.117000 0.893000 -2.216000
v 12.117000 0.893000 1.025000
v 12.617000 0.893000 -2.179000
v 12.617000 0.893000 0.379000
v 13.117000 0.893000 -1.912000
v 13.117000 0.893000 -0.148000
v 10.117000 -1.126000 -1.541000
v 10.117000 0.557000 -1.541000
v 10.617000 -1.585000 -1.541000
v 10.617000 0.935000 -1.541000
v 11.117000 -2.033000 -1.541000
v 11.117000 1.145000 -1.541000
v 11.617000 -2.283000 -1.541000
v 11.617000 1.262000 -1.541000
v 12.117000 -2.562000 -1.541000
v 12.117000 1.435000 -1.541000
v 12.617000 -2.828000 -1.541000
v 12.617000 1.418000 -1.541000
v 13.117000 -2.829000 -1.541000
v 13.117000 1.183000 -1.541000
v 13.617000 -2.661000 -1.541000
v 13.617000 0.672000 -1.541000
v 14.117000 -2.424000 -1.541000
v 14.117000 -0.060000 -1.541000
v 14.617000 -1.669000 -1.541000
v 14.617000 -1.056000 -1.541000
v 6.617000 -0.456000 2.459000
v 6.617000 1.309000 2.459000
v 7.117000 -3.159000 2.459000
v 7.117000 -1.973000 2.459000
v 7.117000 -1.448000 2.459000
v 7.117000 2.257000 2.459000
v 7.617000 -3.874000 2.459000
v 7.617000 2.594000 2.459000
v 8.117000 -4.090000 2.459000
v 8.117000 2.781000 2.459000
v 8.617000 -4.209000 2.459000
v 8.617000 2.976000 2.459000
v 9.117000 -4.282000 2.459000
v 9.117000 3.120000 2.459000
v 9.617000 -4.272000 2.459000
v 9.617000 3.113000 2.459000
v 10.117000 -4.087000 2.459000
v 10.117000 3.059000 2.459000
v 10.617000 -3.957000 2.459000
v 10.617000 2.759000 2.459000
v 11.117000 -3.990000 2.459000
v 11.117000 2.029000 2.459000
v 11.617000 -4.131000 2.459000
v 11.617000 0.084000 2.459000
v 12.117000 -4.116000 2.459000
v 12.117000 -0.873000 2.459000
v 12.617000 -3.887000 2.459000
v 12.617000 -1.595000 2.459000
v 13.117000 -3.455000 2.459000
v 13.117000 -2.303000 2.459000
v 12.186000 -2.607000 -1.541000
v 13.767000 -2.607000 -1.541000
v 11.615000 -2.607000 -1.041000
v 14.012000 -2.607000 -1.041000
v 11.221000 -2.607000 -0.541000
v 14.055000 -2.607000 -0.541000
v 10.703000 -2.607000 -0.041000
v 14.143000 -2.607000 -0.041000
v 10.049000 -2.607000 0.459000
v 14.215000 -2.607000 0.459000
v 8.921000 -2.607000 0.959000
v 14.224000 -2.607000 0.959000
v 7.962000 -2.607000 1.459000
v 14.119000 -2.607000 1.459000
v 7.434000 -2.607000 1.959000
v 13.762000 -2.607000 1.959000
v 7.085000 -2.607000 2.459000
v 13.272000 -2.607000 2.459000
v 6.977000 -2.607000 2.959000
v 12.742000 -2.607000 2.959000
v 7.053000 -2.607000 3.459000
v 12.292000 -2.607000 3.459000
v 7.357000 -2.607000 3.959000
v 11.503000 -2.607000 3.959000
v 8.352000 -2.607000 4.459000
v 10.990000 -2.607000 4.459000
v 9.222000 -2.607000 4.959000
v 10.549000 -2.607000 4.959000
v 11.937000 1.393000 -1.541000
v 12.712000 1.393000 -1.541000
v 10.934000 1.393000 -1.041000
v 12.965000 1.393000 -1.041000
v 6.426000 1.393000 -0.541000
v 12.739000 1.393000 -0.541000
v 6.070000 1.393000 -0.041000
v 12.339000 1.393000 -0.041000
v 5.964000 1.393000 0.459000
v 12.108000 1.393000 0.459000
v 6.046000 1.393000 0.959000
v 11.955000 1.393000 0.959000
v 6.322000 1.393000 1.459000
v 11.710000 1.393000 1.459000
v 6.520000 1.393000 1.959000
v 11.406000 1.393000 1.959000
v 6.638000 1.393000 2.459000
v 11.239000 1.393000 2.459000
v 6.844000 1.393000 2.959000
v 11.144000 1.393000 2.959000
v 7.030000 1.393000 3.459000
v 10.834000 1.393000 3.459000
v 7.337000 1.393000 3.959000
v 10.447000 1.393000 3.959000
v 8.687000 1.393000 4.459000
v 9.976000 1.393000 4.459000
v 7.117000 -2.607000 2.388000
v 7.117000 -2.607000 3.613000
v 7.617000 -2.607000 1.803000
v 7.617000 -2.607000 4.174000
v 8.117000 -2.607000 1.341000
v 8.117000 -2.607000 4.378000
v 8.617000 -2.607000 1.116000
v 8.617000 -2.607000 4.573000
v 9.117000 -2.607000 0.828000
v 9.117000 -2.607000 4.879000
v 9.617000 -2.607000 0.610000
v 9.617000 -2.607000 5.136000
v 10.117000 -2.607000 0.430000
v 10.117000 -2.607000 5.145000
v 10.617000 -2.607000 0.037000
v 10.617000 -2.607000 4.908000
v 11.117000 -2.607000 -0.417000
v 11.117000 -2.607000 4.329000
v 11.617000 -2.607000 -1.042000
v 11.617000 -2.607000 3.876000
v 12.117000 -2.607000 -1.490000
v 12.117000 -2.607000 3.593000
v 12.617000 -2.607000 -1.727000
v 12.617000 -2.607000 3.096000
v 13.117000 -2.607000 -1.758000
v 13.117000 -2.607000 2.581000
v 13.617000 -2.607000 -1.645000
v 13.617000 -2.607000 2.087000
v 14.117000 -2.607000 -0.186000
v 14.117000 -2.607000 1.464000
v 6.117000 1.393000 -0.141000
v 6.117000 1.393000 1.122000
v 6.617000 1.393000 -0.683000
v 6.617000 1.393000 2.396000
v 7.117000 1.393000 -0.872000
v 7.117000 1.393000 3.656000
v 7.617000 1.393000 -0.876000
v 7.617000 1.393000 4.184000
v 8.117000 1.393000 -0.936000
v 8.117000 1.393000 4.368000
v 8.617000 1.393000 -0.925000
v 8.617000 1.393000 4.442000
v 9.117000 1.393000 -0.814000
v 9.117000 1.393000 4.592000
v 9.617000 1.393000 -0.698000
v 9.617000 1.393000 4.597000
v 10.117000 1.393000 -0.714000
v 10.117000 1.393000 4.364000
v 10.617000 1.393000 -0.873000
v 10.617000 1.393000 3.714000
v 11.117000 1.393000 -1.120000
v 11.117000 1.393000 3.031000
v 11.617000 1.393000 -1.255000
v 11.617000 1.393000 1.626000
v 12.117000 1.393000 -1.636000
v 12.117000 1.393000 0.434000
v 12.617000 1.393000 -1.600000
v 12.617000 1.393000 -0.446000
v 9.617000 -0.657000 -1.041000
v 9.617000 0.361000 -1.041000
v 10.117000 -1.425000 -1.041000
v 10.117000 0.955000 -1.041000
v 10.617000 -1.729000 -1.041000
v 10.617000 1.252000 -1.041000
v 11.117000 -2.141000 -1.041000
v 11.117000 1.432000 -1.041000
v 11.617000 -2.609000 -1.041000
v 11.617000 1.459000 -1.041000
v 12.117000 -2.943000 -1.041000
v 12.117000 1.536000 -1.041000
v 12.617000 -3.135000 -1.041000
v 12.617000 1.517000 -1.041000
v 13.117000 -3.136000 -1.041000
v 13.117000 1.302000 -1.041000
v 13.617000 -2.928000 -1.041000
v 13.617000 0.791000 -1.041000
v 14.117000 -2.527000 -1.041000
v 14.117000 0.189000 -1.041000
v 14.617000 -1.927000 -1.041000
v 14.617000 -0.799000 -1.041000
v 6.617000 -0.252000 2.959000
v 6.617000 0.865000 2.959000
v 7.117000 -3.463000 2.959000
v 7.117000 1.911000 2.959000
v 7.617000 -4.007000 2.959000
v 7.617000 2.400000 2.959000
v 8.117000 -4.199000 2.959000
v 8.117000 2.595000 2.959000
v 8.617000 -4.211000 2.959000
v 8.617000 2.687000 2.959000
v 9.117000 -4.218000 2.959000
v 9.117000 2.669000 2.959000
v 9.617000 -4.186000 2.959000
v 9.617000 2.670000 2.959000
v 10.117000 -3.965000 2.959000
v 10.117000 2.629000 2.959000
v 10.617000 -3.720000 2.959000
v 10.617000 2.323000 2.959000
v 11.117000 -3.680000 2.959000
v 11.117000 1.516000 2.959000
v 11.617000 -3.775000 2.959000
v 11.617000 -0.576000 2.959000
v 12.117000 -3.752000 2.959000
v 12.117000 -1.314000 2.959000
v 12.617000 -3.370000 2.959000
v 12.617000 -2.038000 2.959000
v 11.613000 -2.107000 -2.041000
v 14.011000 -2.107000 -2.041000
v 11.240000 -2.107000 -1.541000
v 14.422000 -2.107000 -1.541000
v 11.074000 -2.107000 -1.041000
v 14.521000 -2.107000 -1.041000
v 10.622000 -2.107000 -0.541000
v 14.408000 -2.107000 -0.541000
v 10.177000 -2.107000 -0.041000
v 14.284000 -2.107000 -0.041000
v 9.620000 -2.107000 0.459000
v 14.226000 -2.107000 0.459000
v 8.909000 -2.107000 0.959000
v 14.128000 -2.107000 0.959000
v 8.212000 -2.107000 1.459000
v 13.899000 -2.107000 1.459000
v 7.426000 -2.107000 1.959000
v 13.451000 -2.107000 1.959000
v 7.094000 -2.107000 2.459000
v 12.975000 -2.107000 2.459000
v 7.001000 -2.107000 2.959000
v 12.636000 -2.107000 2.959000
v 7.096000 -2.107000 3.459000
v 12.274000 -2.107000 3.459000
v 7.430000 -2.107000 3.959000
v 11.673000 -2.107000 3.959000
v 8.351000 -2.107000 4.459000
v 11.257000 -2.107000 4.459000
v 8.899000 -2.107000 4.959000
v 10.872000 -2.107000 4.959000
v 6.438000 1.893000 -0.541000
v 9.452000 1.893000 -0.541000
v 6.079000 1.893000 -0.041000
v 11.597000 1.893000 -0.041000
v 5.972000 1.893000 0.459000
v 11.758000 1.893000 0.459000
v 6.054000 1.893000 0.959000
v 11.769000 1.893000 0.959000
v 6.360000 1.893000 1.459000
v 11.663000 1.893000 1.459000
v 6.611000 1.893000 1.959000
v 11.352000 1.893000 1.959000
v 6.867000 1.893000 2.459000
v 11.151000 1.893000 2.459000
v 7.104000 1.893000 2.959000
v 10.948000 1.893000 2.959000
v 7.223000 1.893000 3.459000
v 10.558000 1.893000 3.459000
v 7.606000 1.893000 3.959000
v 10.029000 1.893000 3.959000
v 7.117000 -2.107000 2.405000
v 7.117000 -2.107000 3.510000
v 7.617000 -2.107000 1.806000
v 7.617000 -2.107000 4.109000
v 8.117000 -2.107000 1.525000
v 8.117000 -2.107000 4.337000
v 8.617000 -2.107000 1.187000
v 8.617000 -2.107000 4.658000
v 9.117000 -2.107000 0.797000
v 9.117000 -2.107000 5.143000
v 9.617000 -2.107000 0.463000
v 9.617000 -2.107000 5.352000
v 10.117000 -2.107000 0.019000
v 10.117000 -2.107000 5.359000
v 10.617000 -2.107000 -0.536000
v 10.617000 -2.107000 5.167000
v 11.117000 -2.107000 -1.127000
v 11.117000 -2.107000 4.631000
v 11.617000 -2.107000 -2.042000
v 11.617000 -2.107000 4.025000
v 12.117000 -2.107000 -2.102000
v 12.117000 -2.107000 3.579000
v 12.617000 -2.107000 -2.170000
v 12.617000 -2.107000 2.999000
v 13.117000 -2.107000 -2.232000
v 13.117000 -2.107000 2.321000
v 13.617000 -2.107000 -2.218000
v 13.617000 -2.107000 1.819000
v 14.117000 -2.107000 -1.958000
v 14.117000 -2.107000 0.991000
v 6.117000 1.893000 -0.123000
v 6.117000 1.893000 1.104000
v 6.617000 1.893000 -0.673000
v 6.617000 1.893000 1.973000
v 7.117000 1.893000 -0.863000
v 7.117000 1.893000 3.011000
v 7.617000 1.893000 -0.872000
v 7.617000 1.893000 3.967000
v 8.117000 1.893000 -0.943000
v 8.117000 1.893000 4.186000
v 8.617000 1.893000 -0.930000
v 8.617000 1.893000 4.176000
v 9.117000 1.893000 -0.721000
v 9.117000 1.893000 4.154000
v 9.617000 1.893000 -0.486000
v 9.617000 1.893000 4.127000
v 10.117000 1.893000 -0.436000
v 10.117000 1.893000 3.901000
v 10.617000 1.893000 -0.480000
v 10.617000 1.893000 3.411000
v 11.117000 1.893000 -0.385000
v 11.117000 1.893000 2.551000
v 11.617000 1.893000 -0.008000
v 11.617000 1.893000 1.559000
v 6.617000 1.016000 -0.541000
v 6.617000 2.225000 -0.541000
v 7.117000 0.701000 -0.541000
v 7.117000 2.539000 -0.541000
v 7.617000 0.702000 -0.541000
v 7.617000 2.553000 -0.541000
v 8.117000 0.668000 -0.541000
v 8.117000 2.658000 -0.541000
v 8.617000 0.563000 -0.541000
v 8.617000 2.639000 -0.541000
v 9.117000 0.232000 -0.541000
v 9.117000 2.313000 -0.541000
v 9.617000 -0.911000 -0.541000
v 9.617000 1.752000 -0.541000
v 10.117000 -1.599000 -0.541000
v 10.117000 1.656000 -0.541000
v 10.617000 -2.102000 -0.541000
v 10.617000 1.796000 -0.541000
v 11.117000 -2.498000 -0.541000
v 11.117000 1.751000 -0.541000
v 11.617000 -3.087000 -0.541000
v 11.617000 1.658000 -0.541000
v 12.117000 -3.381000 -0.541000
v 12.117000 1.549000 -0.541000
v 12.617000 -3.398000 -0.541000
v 12.617000 1.427000 -0.541000
v 13.117000 -3.356000 -0.541000
v 13.117000 1.193000 -0.541000
v 13.617000 -3.098000 -0.541000
v 13.617000 0.656000 -0.541000
v 14.117000 -2.534000 -0.541000
v 14.117000 -0.110000 -0.541000
v 7.117000 -3.278000 3.459000
v 7.117000 -2.001000 3.459000
v 7.117000 -0.527000 3.459000
v 7.117000 1.691000 3.459000
v 7.617000 -3.918000 3.459000
v 7.617000 2.288000 3.459000
v 8.117000 -4.124000 3.459000
v 8.117000 2.482000 3.459000
v 8.617000 -4.125000 3.459000
v 8.617000 2.475000 3.459000
v 9.117000 -4.089000 3.459000
v 9.117000 2.450000 3.459000
v 9.617000 -3.894000 3.459000
v 9.617000 2.442000 3.459000
v 10.117000 -3.639000 3.459000
v 10.117000 2.254000 3.459000
v 10.617000 -3.439000 3.459000
v 10.617000 1.827000 3.459000
v 11.117000 -3.338000 3.459000
v 11.117000 0.454000 3.459000
v 11.617000 -3.305000 3.459000
v 11.617000 -0.971000 3.459000
v 12.117000 -2.973000 3.459000
v 12.117000 -1.806000 3.459000
v 11.283000 -1.607000 -2.541000
v 12.407000 -1.607000 -2.541000
v 10.793000 -1.607000 -2.041000
v 14.311000 -1.607000 -2.041000
v 10.638000 -1.607000 -1.541000
v 14.630000 -1.607000 -1.541000
v 10.430000 -1.607000 -1.041000
v 14.713000 -1.607000 -1.041000
v 10.126000 -1.607000 -0.541000
v 14.609000 -1.607000 -0.541000
v 9.829000 -1.607000 -0.041000
v 14.330000 -1.607000 -0.041000
v 9.416000 -1.607000 0.459000
v 14.128000 -1.607000 0.459000
v 8.863000 -1.607000 0.959000
v 13.932000 -1.607000 0.959000
v 8.325000 -1.607000 1.459000
v 13.507000 -1.607000 1.459000
v 7.460000 -1.607000 1.959000
v 13.016000 -1.607000 1.959000
v 7.135000 -1.607000 2.459000
v 12.626000 -1.607000 2.459000
v 7.082000 -1.607000 2.959000
v 12.402000 -1.607000 2.959000
v 7.239000 -1.607000 3.459000
v 11.967000 -1.607000 3.459000
v 7.687000 -1.607000 3.959000
v 11.615000 -1.607000 3.959000
v 8.342000 -1.607000 4.459000
v 11.265000 -1.607000 4.459000
v 8.882000 -1.607000 4.959000
v 10.892000 -1.607000 4.959000
v 6.797000 2.393000 -0.541000
v 9.038000 2.393000 -0.541000
v 6.305000 2.393000 -0.041000
v 11.024000 2.393000 -0.041000
v 6.178000 2.393000 0.459000
v 11.454000 2.393000 0.459000
v 6.276000 2.393000 0.959000
v 11.556000 2.393000 0.959000
v 6.624000 2.393000 1.459000
v 11.430000 2.393000 1.459000
v 6.845000 2.393000 1.959000
v 11.130000 2.393000 1.959000
v 7.255000 2.393000 2.459000
v 10.941000 2.393000 2.459000
v 7.603000 2.393000 2.959000
v 10.545000 2.393000 2.959000
v 7.813000 2.393000 3.459000
v 9.822000 2.393000 3.459000
v 7.117000 -1.607000 2.521000
v 7.117000 -1.607000 3.150000
v 7.617000 -1.607000 1.842000
v 7.617000 -1.607000 3.901000
v 8.117000 -1.607000 1.593000
v 8.117000 -1.607000 4.281000
v 8.617000 -1.607000 1.225000
v 8.617000 -1.607000 4.691000
v 9.117000 -1.607000 0.749000
v 9.117000 -1.607000 5.157000
v 9.617000 -1.607000 0.257000
v 9.617000 -1.607000 5.364000
v 10.117000 -1.607000 -0.524000
v 10.117000 -1.607000 5.371000
v 10.617000 -1.607000 -1.467000
v 10.617000 -1.607000 5.182000
v 11.117000 -1.607000 -2.432000
v 11.117000 -1.607000 4.658000
v 11.617000 -1.607000 -2.658000
v 11.617000 -1.607000 3.957000
v 12.117000 -1.607000 -2.644000
v 12.117000 -1.607000 3.317000
v 12.617000 -1.607000 -2.482000
v 12.617000 -1.607000 2.475000
v 13.117000 -1.607000 -2.437000
v 13.117000 -1.607000 1.866000
v 13.617000 -1.607000 -2.416000
v 13.617000 -1.607000 1.373000
v 14.117000 -1.607000 -2.202000
v 14.117000 -1.607000 0.494000
v 14.617000 -1.607000 -1.575000
v 14.617000 -1.607000 -0.558000
v 6.617000 2.393000 -0.422000
v 6.617000 2.393000 1.449000
v 7.117000 2.393000 -0.655000
v 7.117000 2.393000 2.324000
v 7.617000 2.393000 -0.666000
v 7.617000 2.393000 2.996000
v 8.117000 2.393000 -0.754000
v 8.117000 2.393000 3.662000
v 8.617000 2.393000 -0.739000
v 8.617000 2.393000 3.647000
v 9.117000 2.393000 -0.484000
v 9.117000 2.393000 3.587000
v 9.617000 2.393000 -0.270000
v 9.617000 2.393000 3.568000
v 10.117000 2.393000 -0.223000
v 10.117000 2.393000 3.243000
v 10.617000 2.393000 -0.204000
v 10.617000 2.393000 2.903000
v 11.117000 2.393000 0.025000
v 11.117000 2.393000 1.987000
v 6.117000 1.210000 -0.041000
v 6.117000 2.030000 -0.041000
v 6.617000 0.549000 -0.041000
v 6.617000 2.691000 -0.041000
v 7.117000 0.345000 -0.041000
v 7.117000 2.895000 -0.041000
v 7.617000 0.344000 -0.041000
v 7.617000 2.905000 -0.041000
v 8.117000 0.342000 -0.041000
v 8.117000 2.967000 -0.041000
v 8.617000 0.249000 -0.041000
v 8.617000 2.953000 -0.041000
v 9.117000 -0.066000 -0.041000
v 9.117000 2.775000 -0.041000
v 9.617000 -1.156000 -0.041000
v 9.617000 2.653000 -0.041000
v 10.117000 -2.038000 -0.041000
v 10.117000 2.625000 -0.041000
v 10.617000 -2.533000 -0.041000
v 10.617000 2.588000 -0.041000
v 11.117000 -3.042000 -0.041000
v 11.117000 2.310000 -0.041000
v 11.617000 -3.518000 -0.041000
v 11.617000 1.877000 -0.041000
v 12.117000 -3.818000 -0.041000
v 12.117000 1.530000 -0.041000
v 12.617000 -3.859000 -0.041000
v 12.617000 1.220000 -0.041000
v 13.117000 -3.843000 -0.041000
v 13.117000 0.743000 -0.041000
v 13.617000 -3.526000 -0.041000
v 13.617000 0.175000 -0.041000
v 14.117000 -2.676000 -0.041000
v 14.117000 -0.808000 -0.041000
v 7.617000 -3.528000 3.959000
v 7.617000 -1.706000 3.959000
v 7.617000 0.058000 3.959000
v 7.617000 1.903000 3.959000
v 8.117000 -3.818000 3.959000
v 8.117000 2.175000 3.959000
v 8.617000 -3.815000 3.959000
v 8.617000 2.164000 3.959000
v 9.117000 -3.733000 3.959000
v 9.117000 2.118000 3.959000
v 9.617000 -3.497000 3.959000
v 9.617000 2.094000 3.959000
v 10.117000 -3.310000 3.959000
v 10.117000 1.813000 3.959000
v 10.617000 -3.139000 3.959000
v 10.617000 1.038000 3.959000
v 11.117000 -2.942000 3.959000
v 11.117000 -0.164000 3.959000
v 11.617000 -2.389000 3.959000
v 11.617000 -1.612000 3.959000
f 213 747 93
f 93 747 745
f 747 903 745
f 905 903 747
f 905 214 903
f 903 214 94
f 215 585 95
f 95 585 583
f 93 583 585
f 93 585 213
f 1065 94 214
f 1065 214 1067
f 1067 216 1065
f 1065 216 96
f 217 429 97
f 97 429 427
f 95 427 429
f 95 429 215
f 35 96 216
f 35 216 37
f 37 218 35
f 35 218 98
f 219 287 325
f 99 325 287
f 217 99 287
f 97 99 217
f 98 220 100
f 218 220 98
f 327 221 325
f 325 221 219
f 325 99 101
f 325 101 327
f 100 222 102
f 220 222 100
f 223 153 183
f 221 327 153
f 153 327 183
f 327 285 183
f 285 103 183
f 327 101 285
f 102 224 104
f 222 224 102
f 225 719 771
f 771 719 927
f 927 719 881
f 927 881 1087
f 1087 881 1043
f 1087 1043 53
f 53 1043 15
f 223 183 15
f 15 183 53
f 183 151 53
f 151 105 53
f 183 103 151
f 224 171 207
f 106 224 207
f 104 224 106
f 171 226 207
f 227 557 611
f 225 771 557
f 771 611 557
f 771 773 611
f 771 929 773
f 771 927 929
f 1087 1041 107
f 929 1087 107
f 927 1087 929
f 53 13 1041
f 53 1041 1087
f 53 105 13
f 209 108 106
f 209 106 207
f 207 226 209
f 209 226 228
f 613 229 611
f 611 229 227
f 773 717 109
f 613 773 109
f 611 773 613
f 929 879 717
f 929 717 773
f 929 107 879
f 108 209 172
f 230 108 172
f 110 108 230
f 209 228 172
f 231 401 457
f 229 613 401
f 401 613 457
f 613 555 457
f 555 111 457
f 613 109 555
f 110 232 112
f 230 232 110
f 399 113 457
f 113 231 457
f 113 233 231
f 457 111 399
f 38 234 114
f 38 114 36
f 36 112 38
f 38 112 232
f 235 257 313
f 115 313 257
f 233 115 257
f 113 115 233
f 1068 236 116
f 1068 116 1066
f 1066 114 1068
f 1068 114 234
f 255 117 313
f 117 235 313
f 117 237 235
f 313 115 255
f 748 238 118
f 748 118 746
f 904 748 746
f 904 906 748
f 904 116 906
f 906 116 236
f 239 117 119
f 239 237 117
f 288 240 346
f 288 346 496
f 288 496 430
f 430 496 120
f 584 430 120
f 586 430 584
f 584 118 586
f 586 118 238
f 241 119 121
f 241 239 119
f 154 242 202
f 346 240 154
f 346 154 202
f 286 346 202
f 122 286 202
f 428 496 286
f 286 496 346
f 120 496 428
f 121 256 241
f 241 256 258
f 243 258 256
f 243 256 123
f 16 244 72
f 202 242 16
f 202 16 72
f 152 202 72
f 124 152 72
f 122 202 152
f 123 400 243
f 243 400 402
f 245 402 400
f 245 400 125
f 1044 246 1108
f 72 244 1044
f 72 1044 1108
f 14 72 1108
f 126 14 1108
f 124 72 14
f 125 556 245
f 245 556 558
f 718 558 556
f 718 720 558
f 880 720 718
f 880 882 720
f 246 882 1108
f 882 1042 1108
f 882 880 1042
f 126 1108 1042
f 770 733 127
f 926 895 770
f 770 895 733
f 1086 1057 926
f 926 1057 895
f 52 29 1086
f 1086 29 1057
f 184 167 52
f 52 167 29
f 330 301 184
f 184 301 167
f 480 443 330
f 330 443 301
f 640 599 480
f 480 599 443
f 640 128 599
f 129 772 127
f 127 772 770
f 772 247 897
f 926 772 897
f 770 772 926
f 926 897 1059
f 926 1059 1086
f 1086 1059 31
f 1086 31 52
f 52 31 248
f 186 52 248
f 184 52 186
f 332 184 186
f 330 184 332
f 482 330 332
f 480 330 482
f 642 480 482
f 640 480 642
f 128 640 761
f 640 806 761
f 640 642 806
f 806 130 761
f 612 571 131
f 735 772 129
f 735 129 571
f 249 735 571
f 612 249 571
f 247 772 735
f 169 186 248
f 186 169 250
f 334 186 250
f 332 186 334
f 484 332 334
f 482 332 484
f 644 482 484
f 642 482 644
f 808 642 644
f 806 642 808
f 130 806 132
f 132 806 808
f 133 614 131
f 131 614 612
f 249 612 614
f 249 614 251
f 252 336 334
f 252 334 250
f 486 334 336
f 484 334 486
f 646 484 486
f 644 484 646
f 762 808 134
f 808 646 134
f 808 644 646
f 132 808 762
f 572 614 133
f 736 251 778
f 778 251 135
f 251 614 135
f 614 572 135
f 253 736 778
f 170 254 192
f 336 252 170
f 192 336 170
f 338 336 192
f 444 486 136
f 486 338 136
f 486 336 338
f 600 646 444
f 444 646 486
f 134 646 600
f 734 778 135
f 898 253 936
f 936 253 137
f 253 778 137
f 778 734 137
f 898 936 1096
f 898 1096 1060
f 1060 1096 62
f 1060 62 32
f 192 254 32
f 192 32 62
f 168 192 62
f 138 168 62
f 302 338 168
f 168 338 192
f 136 338 302
f 896 936 137
f 1058 1096 896
f 896 1096 936
f 30 62 1058
f 1058 62 1096
f 138 62 30
f 353 139 191
f 191 139 337
f 337 139 273
f 273 354 337
f 355 1 61
f 353 191 1
f 191 61 1
f 191 193 61
f 191 339 193
f 191 337 339
f 415 489 354
f 489 337 354
f 489 339 337
f 415 356 489
f 357 1029 1097
f 355 61 1029
f 61 1097 1029
f 61 63 1097
f 61 195 63
f 61 193 195
f 193 341 195
f 193 339 341
f 339 491 341
f 339 489 491
f 489 356 491
f 491 356 358
f 1099 359 1097
f 1097 359 357
f 1097 65 1099
f 1097 63 65
f 63 197 65
f 63 195 197
f 195 343 197
f 195 341 343
f 341 493 343
f 341 491 493
f 491 358 493
f 493 358 360
f 1099 1030 359
f 1030 1099 361
f 1099 67 361
f 1099 65 67
f 65 199 67
f 65 197 199
f 197 345 199
f 197 343 345
f 362 345 416
f 345 493 416
f 345 343 493
f 493 360 416
f 67 2 361
f 2 67 140
f 140 67 199
f 140 199 274
f 274 199 345
f 345 362 274
f 794 747 213
f 950 905 794
f 794 905 747
f 950 214 905
f 363 431 471
f 471 431 215
f 431 585 215
f 431 587 585
f 749 794 213
f 585 749 213
f 587 749 585
f 794 749 907
f 794 907 950
f 364 1112 1067
f 364 1067 214
f 907 364 214
f 950 907 214
f 1112 216 1067
f 365 289 323
f 363 471 289
f 289 471 323
f 471 429 323
f 429 217 323
f 471 215 429
f 1069 1112 364
f 366 78 37
f 366 37 216
f 1069 366 216
f 1112 1069 216
f 78 218 37
f 367 155 179
f 365 323 155
f 155 323 179
f 323 287 179
f 287 219 179
f 323 217 287
f 39 78 366
f 39 368 78
f 368 218 78
f 368 220 218
f 369 559 605
f 605 559 767
f 767 559 721
f 721 370 767
f 371 17 49
f 367 179 17
f 179 49 17
f 179 181 49
f 179 219 221
f 179 221 181
f 220 372 222
f 368 372 220
f 373 403 449
f 369 605 403
f 605 449 403
f 605 607 449
f 605 769 607
f 605 767 769
f 883 925 370
f 925 767 370
f 925 769 767
f 925 883 1085
f 1085 883 1045
f 371 49 1045
f 49 1085 1045
f 49 51 1085
f 181 153 223
f 51 181 223
f 49 181 51
f 181 221 153
f 222 374 224
f 372 374 222
f 451 375 449
f 449 375 373
f 449 609 451
f 449 607 609
f 769 719 225
f 609 769 225
f 607 769 609
f 925 881 719
f 925 719 769
f 1085 1043 881
f 1085 881 925
f 51 15 1043
f 51 1043 1085
f 51 223 15
f 171 224 374
f 171 374 173
f 173 376 171
f 171 376 226
f 453 377 451
f 451 377 375
f 609 557 227
f 453 609 227
f 451 609 453
f 609 225 557
f 226 378 228
f 376 378 226
f 455 379 453
f 453 379 377
f 453 227 229
f 453 229 455
f 172 211 230
f 172 228 211
f 228 380 211
f 228 378 380
f 401 231 455
f 231 379 455
f 231 381 379
f 455 229 401
f 230 211 174
f 382 230 174
f 232 230 382
f 211 380 174
f 383 259 311
f 233 311 259
f 381 233 259
f 231 233 381
f 40 384 234
f 40 234 38
f 38 232 40
f 40 232 382
f 257 235 311
f 235 383 311
f 235 385 383
f 311 233 257
f 1070 386 236
f 1070 236 1068
f 1068 234 1070
f 1070 234 384
f 387 235 237
f 387 385 235
f 432 388 494
f 432 494 654
f 432 654 588
f 588 654 238
f 748 588 238
f 750 588 748
f 906 750 748
f 906 908 750
f 906 236 908
f 908 236 386
f 389 237 239
f 389 387 237
f 156 390 200
f 156 200 240
f 288 156 240
f 290 156 288
f 388 290 494
f 290 430 494
f 290 288 430
f 586 654 430
f 430 654 494
f 238 654 586
f 391 239 241
f 391 389 239
f 18 392 70
f 200 390 18
f 200 18 70
f 154 200 70
f 242 154 70
f 240 200 154
f 241 258 391
f 391 258 260
f 393 260 258
f 393 258 243
f 1046 394 1106
f 70 392 1046
f 70 1046 1106
f 16 70 1106
f 244 16 1106
f 242 70 16
f 243 402 393
f 393 402 404
f 395 404 402
f 395 402 245
f 884 396 948
f 1106 394 884
f 1106 884 948
f 1044 1106 948
f 246 1044 948
f 244 1106 1044
f 245 558 395
f 395 558 560
f 720 560 558
f 720 722 560
f 396 722 948
f 722 882 948
f 722 720 882
f 246 948 882
f 928 897 247
f 1088 1059 928
f 928 1059 897
f 54 31 1088
f 1088 31 1059
f 54 248 31
f 774 735 249
f 735 774 247
f 774 928 247
f 774 930 928
f 1090 928 930
f 1088 928 1090
f 56 1088 1090
f 54 1088 56
f 248 54 169
f 54 188 169
f 54 56 188
f 188 250 169
f 251 776 249
f 249 776 774
f 932 774 776
f 930 774 932
f 1092 930 932
f 1090 930 1092
f 58 1090 1092
f 56 1090 58
f 190 56 58
f 188 56 190
f 250 188 252
f 252 188 190
f 736 776 251
f 253 934 736
f 934 776 736
f 934 932 776
f 1094 932 934
f 1092 932 1094
f 60 1092 1094
f 58 1092 60
f 170 190 254
f 190 60 254
f 190 58 60
f 252 190 170
f 898 934 253
f 1060 1094 898
f 898 1094 934
f 32 60 1060
f 1060 60 1094
f 254 60 32
f 501 141 189
f 189 141 335
f 335 141 275
f 275 502 335
f 503 3 59
f 501 189 3
f 3 189 59
f 189 139 59
f 139 353 59
f 335 273 139
f 335 139 189
f 502 417 487
f 502 487 354
f 335 502 354
f 273 335 354
f 417 504 487
f 505 1031 1095
f 503 59 1031
f 1031 59 1095
f 59 1 1095
f 1 355 1095
f 59 353 1
f 487 415 354
f 504 573 649
f 504 649 356
f 487 504 356
f 415 487 356
f 573 506 649
f 507 869 937
f 505 1095 869
f 869 1095 937
f 1095 1029 937
f 1029 357 937
f 1095 355 1029
f 651 358 356
f 651 356 649
f 649 506 651
f 651 506 508
f 939 509 937
f 937 509 507
f 937 357 359
f 937 359 939
f 653 360 358
f 653 358 651
f 651 508 653
f 653 508 510
f 941 511 939
f 939 511 509
f 939 359 1030
f 1101 939 1030
f 941 939 1101
f 361 1101 1030
f 416 495 362
f 495 416 360
f 653 495 360
f 655 495 653
f 653 510 655
f 655 510 512
f 943 513 941
f 941 513 511
f 941 1103 943
f 941 1101 1103
f 1101 361 2
f 69 1101 2
f 1103 1101 69
f 140 201 69
f 140 69 2
f 274 347 201
f 274 201 140
f 347 274 362
f 495 347 362
f 497 347 495
f 514 497 574
f 497 655 574
f 497 495 655
f 655 512 574
f 945 515 943
f 943 515 513
f 943 1105 945
f 943 1103 1105
f 1103 71 1105
f 1103 69 71
f 69 203 71
f 69 201 203
f 201 349 203
f 201 347 349
f 516 349 418
f 349 497 418
f 349 347 497
f 497 514 418
f 945 870 515
f 870 945 517
f 945 1107 517
f 945 1105 1107
f 1105 73 1107
f 1105 71 73
f 518 73 142
f 73 203 142
f 73 71 203
f 142 203 276
f 276 203 349
f 349 516 276
f 1107 1032 517
f 1032 1107 4
f 4 1107 73
f 73 518 4
f 519 291 321
f 321 291 363
f 291 431 363
f 291 433 431
f 433 587 431
f 589 587 433
f 589 749 587
f 751 749 589
f 751 907 749
f 909 907 751
f 909 520 907
f 907 520 364
f 521 157 177
f 519 321 157
f 157 321 177
f 321 289 177
f 289 365 177
f 321 363 289
f 1069 364 520
f 1069 520 1071
f 1071 522 1069
f 1069 522 366
f 523 561 603
f 603 561 765
f 765 561 723
f 765 723 921
f 921 723 885
f 921 885 1081
f 1081 885 1047
f 1081 1047 47
f 47 1047 19
f 521 177 19
f 19 177 47
f 177 155 47
f 155 367 47
f 177 365 155
f 524 80 39
f 366 524 39
f 522 524 366
f 80 368 39
f 525 405 447
f 523 603 405
f 405 603 447
f 603 559 447
f 559 369 447
f 765 721 559
f 765 559 603
f 923 370 721
f 765 923 721
f 921 923 765
f 921 1083 923
f 921 1081 1083
f 47 17 371
f 1083 47 371
f 1081 47 1083
f 47 367 17
f 41 80 524
f 41 526 80
f 526 368 80
f 526 372 368
f 403 373 447
f 373 525 447
f 373 527 525
f 447 369 403
f 923 883 370
f 1083 1045 883
f 1083 883 923
f 1083 371 1045
f 372 528 374
f 526 528 372
f 529 261 307
f 375 307 261
f 527 375 261
f 373 375 527
f 173 374 528
f 173 528 175
f 175 530 173
f 173 530 376
f 309 531 307
f 307 531 529
f 307 375 377
f 307 377 309
f 376 532 378
f 530 532 376
f 309 262 531
f 533 262 309
f 377 533 309
f 379 533 377
f 176 534 212
f 212 380 176
f 380 532 176
f 380 378 532
f 535 379 381
f 535 533 379
f 382 174 212
f 534 382 212
f 536 382 534
f 380 212 174
f 312 259 383
f 381 259 312
f 537 381 312
f 535 381 537
f 42 538 384
f 42 384 40
f 40 382 42
f 42 382 536
f 312 383 263
f 383 539 263
f 383 385 539
f 537 312 263
f 590 540 652
f 590 652 816
f 590 816 752
f 752 816 972
f 752 972 910
f 910 972 386
f 1070 910 386
f 1072 910 1070
f 1070 384 1072
f 1072 384 538
f 541 385 387
f 541 539 385
f 292 542 344
f 292 344 388
f 432 292 388
f 434 292 432
f 540 434 652
f 434 588 652
f 434 432 588
f 750 816 588
f 588 816 652
f 908 972 750
f 750 972 816
f 386 972 908
f 543 387 389
f 543 541 387
f 20 544 68
f 20 68 390
f 156 20 390
f 158 20 156
f 542 158 344
f 158 290 344
f 158 156 290
f 388 344 290
f 264 543 320
f 543 391 320
f 543 389 391
f 545 264 320
f 1048 546 1104
f 68 544 1048
f 68 1048 1104
f 18 68 1104
f 392 18 1104
f 390 68 18
f 260 320 391
f 406 545 470
f 470 545 393
f 545 320 393
f 320 260 393
f 547 406 470
f 886 548 946
f 1104 546 886
f 1104 886 946
f 1046 1104 946
f 394 1046 946
f 392 1104 1046
f 404 470 393
f 562 547 630
f 630 547 395
f 547 470 395
f 470 404 395
f 562 630 792
f 562 792 724
f 946 548 724
f 946 724 792
f 884 946 792
f 396 884 792
f 394 946 884
f 560 630 395
f 722 792 560
f 560 792 630
f 396 792 722
f 659 5 57
f 57 5 501
f 5 141 501
f 5 143 141
f 143 275 141
f 277 275 143
f 502 275 485
f 275 419 485
f 275 277 419
f 419 660 485
f 3 503 57
f 503 659 57
f 503 661 659
f 57 501 3
f 485 417 502
f 660 575 647
f 660 647 504
f 485 660 504
f 417 485 504
f 575 662 647
f 663 1033 505
f 505 1033 1031
f 503 1031 1033
f 503 1033 661
f 647 573 504
f 647 662 573
f 662 506 573
f 662 664 506
f 665 871 507
f 507 871 869
f 505 869 871
f 505 871 663
f 506 666 508
f 664 666 506
f 667 507 509
f 667 665 507
f 666 737 817
f 510 666 817
f 508 666 510
f 737 668 817
f 669 709 785
f 511 785 709
f 667 511 709
f 509 511 667
f 819 512 510
f 819 510 817
f 817 668 819
f 819 668 670
f 787 671 785
f 785 671 669
f 785 511 513
f 785 513 787
f 574 657 514
f 819 738 512
f 512 738 574
f 738 672 574
f 672 657 574
f 819 670 738
f 789 673 787
f 787 673 671
f 787 513 515
f 787 515 789
f 418 499 516
f 657 576 514
f 514 576 418
f 576 674 418
f 674 499 418
f 657 672 576
f 789 710 673
f 947 675 870
f 870 675 515
f 675 710 515
f 710 789 515
f 517 947 870
f 142 205 518
f 276 351 205
f 276 205 142
f 499 420 516
f 516 420 276
f 420 676 276
f 676 351 276
f 499 674 420
f 947 872 675
f 1109 677 1032
f 1032 677 517
f 677 872 517
f 872 947 517
f 4 75 1109
f 4 1109 1032
f 205 144 518
f 518 144 4
f 144 678 4
f 678 75 4
f 144 205 278
f 278 205 351
f 351 676 278
f 1109 1034 677
f 1034 1109 6
f 6 1109 75
f 75 678 6
f 679 293 519
f 519 293 291
f 293 433 291
f 435 433 293
f 435 589 433
f 591 589 435
f 796 751 680
f 751 591 680
f 751 589 591
f 952 909 796
f 796 909 751
f 952 520 909
f 681 563 601
f 601 563 763
f 763 563 725
f 763 725 919
f 919 725 887
f 887 682 919
f 683 21 45
f 45 21 521
f 21 157 521
f 21 159 157
f 519 157 159
f 519 159 679
f 753 796 680
f 796 753 911
f 796 911 952
f 684 1114 1071
f 684 1071 520
f 911 684 520
f 952 911 520
f 1114 522 1071
f 685 407 445
f 681 601 407
f 407 601 445
f 601 561 445
f 561 523 445
f 763 723 561
f 763 561 601
f 919 885 723
f 919 723 763
f 885 919 682
f 1049 885 682
f 1047 885 1049
f 1049 683 45
f 19 1049 45
f 1047 1049 19
f 45 521 19
f 1073 1114 684
f 1073 686 1114
f 686 522 1114
f 686 524 522
f 405 525 445
f 525 685 445
f 525 687 685
f 445 523 405
f 688 82 41
f 524 688 41
f 686 688 524
f 82 526 41
f 689 265 305
f 527 305 265
f 687 527 265
f 525 527 687
f 43 82 688
f 43 690 82
f 690 526 82
f 690 528 526
f 261 529 305
f 529 689 305
f 529 691 689
f 305 527 261
f 692 208 175
f 528 692 175
f 690 692 528
f 208 530 175
f 693 529 531
f 693 691 529
f 694 210 208
f 694 208 692
f 530 208 532
f 532 208 210
f 531 262 693
f 693 262 266
f 695 266 262
f 695 262 533
f 534 176 210
f 694 534 210
f 696 534 694
f 532 210 176
f 697 533 535
f 697 695 533
f 44 698 92
f 92 536 44
f 536 696 44
f 536 534 696
f 699 535 537
f 699 697 535
f 1074 700 1130
f 92 698 1074
f 92 1074 1130
f 42 92 1130
f 538 42 1130
f 536 92 42
f 701 267 539
f 539 267 263
f 537 263 267
f 537 267 699
f 436 702 492
f 436 492 540
f 590 436 540
f 592 436 590
f 752 592 590
f 752 754 592
f 910 754 752
f 910 912 754
f 700 912 1130
f 912 1072 1130
f 912 910 1072
f 538 1130 1072
f 703 539 541
f 703 701 539
f 160 704 198
f 160 198 542
f 292 160 542
f 294 160 292
f 702 294 492
f 294 434 492
f 294 292 434
f 540 492 434
f 268 703 318
f 703 543 318
f 703 541 543
f 705 268 318
f 22 706 544
f 22 544 20
f 704 22 198
f 22 158 198
f 22 20 158
f 542 198 158
f 264 318 543
f 408 705 468
f 468 705 545
f 705 318 545
f 318 264 545
f 707 408 468
f 888 708 944
f 888 944 546
f 1048 888 546
f 1050 888 1048
f 1048 544 1050
f 1050 544 706
f 406 468 545
f 564 707 628
f 628 707 547
f 707 468 547
f 468 406 547
f 564 628 790
f 564 790 726
f 944 708 726
f 944 726 790
f 886 944 790
f 548 886 790
f 546 944 886
f 562 628 547
f 724 790 562
f 562 790 628
f 548 790 724
f 821 145 187
f 187 145 333
f 333 145 279
f 279 822 333
f 823 7 659
f 659 7 5
f 7 821 187
f 143 7 187
f 5 7 143
f 333 277 143
f 333 143 187
f 277 333 822
f 421 277 822
f 419 277 421
f 660 419 645
f 419 577 645
f 419 421 577
f 577 824 645
f 825 1035 1093
f 661 1093 1035
f 823 661 1035
f 659 661 823
f 645 575 660
f 645 824 575
f 824 662 575
f 824 826 662
f 827 873 935
f 825 1093 873
f 873 1093 935
f 1093 1033 935
f 1033 663 935
f 1093 661 1033
f 826 739 813
f 664 826 813
f 662 826 664
f 739 828 813
f 829 711 781
f 827 935 711
f 711 935 781
f 935 871 781
f 871 665 781
f 935 663 871
f 815 666 664
f 815 664 813
f 813 828 815
f 815 828 830
f 783 831 781
f 781 831 829
f 781 665 667
f 781 667 783
f 815 737 666
f 815 830 737
f 830 668 737
f 830 832 668
f 833 549 623
f 831 783 549
f 549 783 623
f 783 709 623
f 709 669 623
f 783 667 709
f 668 834 670
f 832 834 668
f 625 835 623
f 623 835 833
f 623 669 671
f 623 671 625
f 740 836 672
f 740 672 738
f 738 670 740
f 740 670 834
f 625 550 835
f 837 550 625
f 671 837 625
f 673 837 671
f 578 838 674
f 578 674 576
f 576 672 578
f 578 672 836
f 673 710 837
f 837 710 712
f 839 712 710
f 839 710 675
f 422 840 676
f 422 676 420
f 420 674 422
f 422 674 838
f 675 872 839
f 839 872 874
f 841 874 872
f 841 872 677
f 146 842 678
f 146 678 144
f 278 146 144
f 278 280 146
f 278 676 280
f 280 676 840
f 677 1034 841
f 841 1034 1036
f 6 1036 1034
f 6 8 1036
f 6 678 8
f 8 678 842
f 843 295 679
f 679 295 293
f 295 435 293
f 437 435 295
f 632 591 844
f 591 437 844
f 591 435 437
f 632 680 591
f 845 565 681
f 681 565 563
f 565 725 563
f 727 725 565
f 727 887 725
f 889 887 727
f 682 887 1079
f 887 1051 1079
f 887 889 1051
f 1079 1051 683
f 1051 21 683
f 1051 23 21
f 23 159 21
f 161 159 23
f 679 159 161
f 679 161 843
f 593 632 844
f 753 680 632
f 593 753 632
f 755 753 593
f 755 911 753
f 913 911 755
f 913 846 911
f 911 846 684
f 847 409 685
f 685 409 407
f 681 407 409
f 681 409 845
f 1079 1049 682
f 1079 683 1049
f 1073 684 846
f 1073 846 1075
f 1075 848 1073
f 1073 848 686
f 849 269 303
f 687 303 269
f 847 687 269
f 685 687 847
f 686 850 688
f 848 850 686
f 265 689 303
f 689 849 303
f 689 851 849
f 303 687 265
f 852 84 43
f 688 852 43
f 850 852 688
f 84 690 43
f 853 689 691
f 853 851 689
f 854 86 84
f 854 84 852
f 690 84 692
f 692 84 86
f 855 691 693
f 855 853 691
f 856 88 86
f 856 86 854
f 692 86 694
f 694 86 88
f 693 266 855
f 855 266 270
f 857 270 266
f 857 266 695
f 858 90 88
f 858 88 856
f 694 88 696
f 696 88 90
f 859 695 697
f 859 857 695
f 1076 860 1128
f 90 858 1076
f 90 1076 1128
f 44 90 1128
f 698 44 1128
f 696 90 44
f 861 697 699
f 861 859 697
f 914 862 970
f 1128 860 914
f 1128 914 970
f 1074 1128 970
f 700 1074 970
f 698 1128 1074
f 314 267 701
f 699 267 314
f 863 699 314
f 861 699 863
f 296 864 342
f 296 342 702
f 436 296 702
f 438 296 436
f 592 438 436
f 592 594 438
f 754 594 592
f 754 756 594
f 862 756 970
f 756 912 970
f 756 754 912
f 700 970 912
f 703 316 701
f 701 316 314
f 863 314 316
f 863 316 865
f 24 866 66
f 24 66 704
f 160 24 704
f 162 24 160
f 864 162 342
f 162 294 342
f 162 160 294
f 702 342 294
f 268 316 703
f 410 865 466
f 466 865 705
f 865 316 705
f 316 268 705
f 867 410 466
f 1052 868 1102
f 66 866 1052
f 66 1052 1102
f 22 66 1102
f 706 22 1102
f 704 66 22
f 408 466 705
f 566 867 626
f 626 867 707
f 867 466 707
f 466 408 707
f 566 626 788
f 566 788 728
f 728 788 708
f 888 728 708
f 890 728 888
f 868 890 1102
f 890 1050 1102
f 890 888 1050
f 706 1102 1050
f 564 626 707
f 726 788 564
f 564 788 626
f 708 788 726
f 973 741 795
f 795 741 951
f 951 741 899
f 899 974 951
f 975 579 633
f 973 795 579
f 795 633 579
f 795 797 633
f 795 953 797
f 795 951 953
f 1061 1113 974
f 1113 951 974
f 1113 953 951
f 1061 976 1113
f 635 977 633
f 633 977 975
f 633 799 635
f 633 797 799
f 797 955 799
f 797 953 955
f 953 1115 955
f 953 1113 1115
f 1113 976 1115
f 1115 976 978
f 637 979 635
f 635 979 977
f 635 801 637
f 635 799 801
f 799 957 801
f 799 955 957
f 955 1117 957
f 955 1115 1117
f 1115 978 1117
f 1117 978 980
f 639 981 637
f 637 981 979
f 637 803 639
f 637 801 803
f 801 959 803
f 801 957 959
f 957 1119 959
f 957 1117 1119
f 1117 980 1119
f 1119 980 982
f 983 423 481
f 981 639 423
f 639 481 423
f 639 641 481
f 639 805 641
f 639 803 805
f 803 961 805
f 803 959 961
f 984 961 1062
f 961 1119 1062
f 961 959 1119
f 1119 982 1062
f 985 147 821
f 821 147 145
f 147 279 145
f 281 279 147
f 481 483 822
f 281 481 822
f 279 281 822
f 481 281 983
f 481 643 483
f 481 641 643
f 641 807 643
f 641 805 807
f 986 807 900
f 807 961 900
f 807 805 961
f 961 984 900
f 987 9 823
f 823 9 7
f 821 7 9
f 821 9 985
f 483 421 822
f 643 577 421
f 643 421 483
f 809 824 577
f 643 809 577
f 807 809 643
f 807 986 809
f 809 986 988
f 989 1037 825
f 825 1037 1035
f 823 1035 1037
f 823 1037 987
f 811 826 824
f 811 824 809
f 809 988 811
f 811 988 990
f 991 875 827
f 827 875 873
f 825 873 875
f 825 875 989
f 811 739 826
f 811 990 739
f 990 828 739
f 990 992 828
f 993 713 829
f 829 713 711
f 827 711 713
f 827 713 991
f 828 994 830
f 992 994 828
f 995 551 621
f 831 621 551
f 993 831 551
f 829 831 993
f 830 996 832
f 994 996 830
f 549 833 621
f 833 995 621
f 833 997 995
f 621 831 549
f 832 998 834
f 996 998 832
f 999 833 835
f 999 997 833
f 742 1000 836
f 742 836 740
f 740 834 742
f 742 834 998
f 835 550 999
f 999 550 552
f 1001 552 550
f 1001 550 837
f 580 1002 838
f 580 838 578
f 578 836 580
f 580 836 1000
f 837 712 1001
f 1001 712 714
f 1003 714 712
f 1003 712 839
f 282 1004 352
f 282 352 840
f 422 282 840
f 424 282 422
f 422 838 424
f 424 838 1002
f 839 874 1003
f 1003 874 876
f 874 841 1110
f 1038 874 1110
f 876 874 1038
f 1038 1110 76
f 1038 76 10
f 10 76 842
f 146 10 842
f 148 10 146
f 1004 148 352
f 148 280 352
f 148 146 280
f 840 352 280
f 1036 1110 841
f 8 76 1036
f 1036 76 1110
f 842 76 8
f 322 295 843
f 472 437 322
f 322 437 295
f 472 844 437
f 1005 567 845
f 845 567 565
f 567 727 565
f 729 727 567
f 729 889 727
f 891 889 729
f 1080 1051 1006
f 1051 891 1006
f 1051 889 891
f 46 23 1080
f 1080 23 1051
f 178 161 46
f 46 161 23
f 297 322 843
f 297 843 161
f 1007 297 161
f 178 1007 161
f 322 297 439
f 322 439 472
f 593 844 472
f 439 593 472
f 595 593 439
f 595 755 593
f 757 755 595
f 954 913 1008
f 913 757 1008
f 913 755 757
f 954 846 913
f 1009 411 847
f 847 411 409
f 845 409 411
f 845 411 1005
f 1053 1080 1006
f 1080 1053 25
f 1080 25 46
f 46 25 163
f 46 163 178
f 1007 178 163
f 915 954 1008
f 1010 1116 1075
f 1010 1075 846
f 915 1010 846
f 954 915 846
f 1116 848 1075
f 1011 271 849
f 849 271 269
f 847 269 271
f 847 271 1009
f 1077 1116 1010
f 1077 1012 1116
f 1012 848 1116
f 1012 850 848
f 1013 849 851
f 1013 1011 849
f 850 1014 852
f 1012 1014 850
f 272 1013 308
f 1013 853 308
f 1013 851 853
f 1015 272 308
f 852 1016 854
f 1014 1016 852
f 855 310 853
f 853 310 308
f 1015 308 310
f 1015 310 1017
f 854 1018 856
f 1016 1018 854
f 270 310 855
f 1017 310 270
f 857 1017 270
f 1019 1017 857
f 1078 1020 1126
f 1126 858 1078
f 858 1018 1078
f 858 856 1018
f 412 1019 458
f 1019 859 458
f 1019 857 859
f 1021 412 458
f 916 1022 968
f 1126 1020 916
f 1126 916 968
f 1076 1126 968
f 860 1076 968
f 858 1126 1076
f 861 460 859
f 859 460 458
f 1021 458 460
f 1021 460 1023
f 596 1024 650
f 596 650 814
f 596 814 758
f 968 1022 758
f 968 758 814
f 914 968 814
f 862 914 814
f 860 968 914
f 863 462 861
f 861 462 460
f 1023 460 462
f 1023 462 1025
f 164 1026 196
f 164 196 864
f 296 164 864
f 298 164 296
f 438 298 296
f 438 440 298
f 1024 440 650
f 440 594 650
f 440 438 594
f 756 814 594
f 594 814 650
f 862 814 756
f 865 464 863
f 863 464 462
f 622 568 1025
f 462 622 1025
f 464 622 462
f 1027 568 622
f 1054 1028 1100
f 1054 1100 866
f 24 1054 866
f 26 1054 24
f 1026 26 196
f 26 162 196
f 26 24 162
f 864 196 162
f 410 464 865
f 867 624 410
f 624 464 410
f 624 622 464
f 786 730 1027
f 622 786 1027
f 624 786 622
f 730 786 942
f 730 942 892
f 1100 1028 892
f 1100 892 942
f 1052 1100 942
f 868 1052 942
f 866 1100 1052
f 566 624 867
f 728 786 566
f 566 786 624
f 890 942 728
f 728 942 786
f 868 942 890
f 1131 743 793
f 793 743 949
f 949 743 901
f 901 1132 949
f 1133 581 631
f 1131 793 581
f 581 793 631
f 793 741 631
f 741 973 631
f 949 899 741
f 949 741 793
f 1132 1063 1111
f 1132 1111 974
f 949 1132 974
f 899 949 974
f 1063 1134 1111
f 1135 425 473
f 1133 631 425
f 425 631 473
f 631 579 473
f 579 975 473
f 631 973 579
f 1111 1061 974
f 1134 33 77
f 1134 77 976
f 1111 1134 976
f 1061 1111 976
f 33 1136 77
f 475 1137 473
f 473 1137 1135
f 473 975 977
f 473 977 475
f 79 978 976
f 79 976 77
f 77 1136 79
f 79 1136 1138
f 477 1139 475
f 475 1139 1137
f 475 977 979
f 475 979 477
f 81 980 978
f 81 978 79
f 79 1138 81
f 81 1138 1140
f 479 1141 477
f 477 1141 1139
f 477 979 981
f 477 981 479
f 83 982 980
f 83 980 81
f 81 1140 83
f 83 1140 1142
f 423 983 479
f 983 1141 479
f 983 1143 1141
f 479 981 423
f 1062 1121 984
f 83 34 982
f 982 34 1062
f 34 1144 1062
f 1144 1121 1062
f 83 1142 34
f 1145 11 55
f 55 11 985
f 11 147 985
f 11 149 147
f 149 281 147
f 283 281 149
f 983 281 283
f 983 283 1143
f 900 963 986
f 963 900 984
f 1121 963 984
f 1123 963 1121
f 1121 1144 1123
f 1123 1144 1146
f 1147 1039 1091
f 1145 55 1039
f 1039 55 1091
f 55 9 1091
f 9 987 1091
f 55 985 9
f 965 988 986
f 965 986 963
f 963 1125 965
f 963 1123 1125
f 1123 1146 1125
f 1125 1146 1148
f 1149 877 933
f 1147 1091 877
f 877 1091 933
f 1091 1037 933
f 1037 989 933
f 1091 987 1037
f 967 990 988
f 967 988 965
f 965 1127 967
f 965 1125 1127
f 1125 1148 1127
f 1127 1148 1150
f 1151 715 779
f 1149 933 715
f 715 933 779
f 933 875 779
f 875 991 779
f 933 989 875
f 969 992 990
f 969 990 967
f 1152 969 1064
f 969 1127 1064
f 969 967 1127
f 1127 1150 1064
f 1153 553 619
f 1151 779 553
f 553 779 619
f 779 713 619
f 713 993 619
f 779 991 713
f 992 969 902
f 1154 992 902
f 994 992 1154
f 969 1152 902
f 1155 397 463
f 1153 619 397
f 397 619 463
f 619 551 463
f 551 995 463
f 619 993 551
f 994 1156 996
f 1154 1156 994
f 465 1157 463
f 463 1157 1155
f 463 995 997
f 463 997 465
f 744 1158 820
f 820 998 744
f 998 1156 744
f 998 996 1156
f 467 1159 465
f 465 1159 1157
f 465 997 999
f 465 999 467
f 582 1160 658
f 820 1158 582
f 820 582 658
f 742 820 658
f 1000 742 658
f 998 820 742
f 467 398 1159
f 627 1161 552
f 552 1161 999
f 1161 398 999
f 398 467 999
f 1001 627 552
f 426 1162 500
f 658 1160 426
f 658 426 500
f 580 658 500
f 1002 580 500
f 1000 658 580
f 627 554 1161
f 791 1163 714
f 714 1163 1001
f 1163 554 1001
f 554 627 1001
f 1003 791 714
f 150 1164 206
f 150 206 1004
f 282 150 1004
f 284 150 282
f 1162 284 500
f 284 424 500
f 284 282 424
f 1002 500 424
f 791 716 1163
f 1003 876 791
f 876 716 791
f 876 878 716
f 1038 878 876
f 1038 1040 878
f 10 1040 1038
f 10 12 1040
f 1164 12 206
f 12 148 206
f 12 10 148
f 1004 206 148
f 602 567 1005
f 764 729 602
f 602 729 567
f 920 891 764
f 764 891 729
f 920 1006 891
f 324 297 1007
f 474 439 324
f 324 439 297
f 634 595 474
f 474 595 439
f 798 757 634
f 634 757 595
f 798 1008 757
f 446 411 1009
f 569 602 1005
f 569 1005 411
f 1165 569 411
f 446 1165 411
f 602 569 731
f 602 731 764
f 764 731 893
f 764 893 920
f 1166 1082 1053
f 1166 1053 1006
f 893 1166 1006
f 920 893 1006
f 48 25 1082
f 1082 25 1053
f 180 163 48
f 48 163 25
f 163 180 1007
f 180 324 1007
f 180 326 324
f 326 1167 441
f 474 326 441
f 324 326 474
f 474 441 597
f 474 597 634
f 634 597 759
f 634 759 798
f 915 1008 798
f 759 915 798
f 917 915 759
f 917 1168 915
f 915 1168 1010
f 304 271 1011
f 413 446 1009
f 413 1009 271
f 1169 413 271
f 304 1169 271
f 1165 446 413
f 1055 1082 1166
f 1082 1055 27
f 1082 27 48
f 48 27 165
f 48 165 180
f 180 165 299
f 180 299 326
f 1167 326 299
f 1170 1118 1077
f 1010 1170 1077
f 1168 1170 1010
f 1118 1012 1077
f 1013 306 1011
f 1011 306 304
f 1169 304 306
f 1169 306 1171
f 1172 1120 1118
f 1172 1118 1170
f 1012 1118 1014
f 1014 1118 1120
f 272 306 1013
f 1171 306 272
f 1015 1171 272
f 1173 1171 1015
f 1174 1122 1120
f 1174 1120 1172
f 1014 1120 1016
f 1016 1120 1122
f 414 1173 454
f 1173 1017 454
f 1173 1015 1017
f 1175 414 454
f 1176 1124 1122
f 1176 1122 1174
f 1016 1122 1018
f 1018 1122 1124
f 1019 456 1017
f 1017 456 454
f 1175 454 456
f 1175 456 1177
f 918 1178 966
f 1124 1176 918
f 1124 918 966
f 1078 1124 966
f 1020 1078 966
f 1018 1124 1078
f 412 456 1019
f 1177 456 412
f 1021 1177 412
f 1179 1177 1021
f 760 1180 812
f 966 1178 760
f 966 760 812
f 916 966 812
f 1022 916 812
f 1020 966 916
f 570 1179 618
f 1179 1023 618
f 1179 1021 1023
f 1181 570 618
f 300 1182 340
f 300 340 490
f 300 490 442
f 442 490 1024
f 596 442 1024
f 598 442 596
f 1180 598 812
f 598 758 812
f 598 596 758
f 1022 812 758
f 1025 620 1023
f 1023 620 618
f 782 732 1181
f 618 782 1181
f 620 782 618
f 1183 732 782
f 1056 1184 1098
f 1056 1098 64
f 1056 64 28
f 28 64 1026
f 164 28 1026
f 166 28 164
f 1182 166 340
f 166 298 340
f 166 164 298
f 440 490 298
f 298 490 340
f 1024 490 440
f 568 620 1025
f 1027 784 568
f 784 620 568
f 784 782 620
f 940 894 1183
f 782 940 1183
f 784 940 782
f 1098 1184 894
f 1098 894 940
f 1054 1098 940
f 1028 1054 940
f 26 64 1054
f 1054 64 1098
f 1026 64 26
f 730 784 1027
f 892 940 730
f 730 940 784
f 1028 940 892
f 93 745 1131
f 1131 745 743
f 745 901 743
f 903 901 745
f 903 94 901
f 901 94 1132
f 95 583 1133
f 1133 583 581
f 1131 581 583
f 1131 583 93
f 1063 1132 94
f 1063 94 1065
f 1065 96 1063
f 1063 96 1134
f 97 427 1135
f 1135 427 425
f 1133 425 427
f 1133 427 95
f 33 1134 96
f 33 96 35
f 35 98 33
f 33 98 1136
f 99 1135 1137
f 99 97 1135
f 1136 100 1138
f 98 100 1136
f 101 1137 1139
f 101 99 1137
f 1138 102 1140
f 100 102 1138
f 103 285 329
f 1141 329 285
f 101 1141 285
f 1139 1141 101
f 1140 104 1142
f 102 104 1140
f 105 151 185
f 103 329 151
f 329 185 151
f 329 331 185
f 329 1141 1143
f 329 1143 331
f 34 85 1144
f 34 1142 85
f 1142 106 85
f 1142 104 106
f 107 1041 1089
f 1089 1041 1145
f 1041 11 1145
f 1041 13 11
f 13 105 185
f 149 13 185
f 11 13 149
f 331 283 149
f 331 149 185
f 331 1143 283
f 87 1146 1144
f 87 1144 85
f 85 106 87
f 87 106 108
f 109 717 775
f 775 717 931
f 931 717 879
f 107 1089 879
f 879 1089 931
f 1089 1039 931
f 1039 1147 931
f 1089 1145 1039
f 89 1148 1146
f 89 1146 87
f 87 108 89
f 89 108 110
f 111 555 615
f 109 775 555
f 775 615 555
f 775 777 615
f 931 877 1149
f 777 931 1149
f 775 931 777
f 931 1147 877
f 91 1150 1148
f 91 1148 89
f 89 110 91
f 91 110 112
f 113 399 459
f 111 615 399
f 615 459 399
f 615 617 459
f 777 715 1151
f 617 777 1151
f 615 777 617
f 777 1149 715
f 1064 1129 1152
f 91 36 1150
f 1150 36 1064
f 36 114 1064
f 114 1129 1064
f 91 112 36
f 461 115 459
f 459 115 113
f 617 553 1153
f 461 617 1153
f 459 617 461
f 617 1151 553
f 902 971 1154
f 1129 1066 1152
f 1152 1066 902
f 1066 116 902
f 116 971 902
f 1129 114 1066
f 117 255 315
f 115 461 255
f 255 461 315
f 461 397 315
f 397 1155 315
f 461 1153 397
f 746 118 818
f 904 746 818
f 1154 904 818
f 1156 1154 818
f 904 1154 971
f 971 116 904
f 317 119 315
f 315 119 117
f 315 1155 1157
f 315 1157 317
f 584 120 656
f 818 118 584
f 818 584 656
f 744 818 656
f 1158 744 656
f 1156 818 744
f 319 121 317
f 317 121 119
f 317 1157 1159
f 317 1159 319
f 286 122 348
f 286 348 498
f 286 498 428
f 656 120 428
f 656 428 498
f 582 656 498
f 1160 582 498
f 1158 656 582
f 319 256 121
f 469 123 398
f 398 123 1159
f 123 256 1159
f 256 319 1159
f 1161 469 398
f 152 124 204
f 348 122 152
f 204 348 152
f 350 348 204
f 426 498 1162
f 498 350 1162
f 498 348 350
f 1160 498 426
f 469 400 123
f 629 125 554
f 554 125 1161
f 125 400 1161
f 400 469 1161
f 1163 629 554
f 14 126 74
f 204 124 14
f 204 14 74
f 150 204 74
f 1164 150 74
f 284 350 150
f 150 350 204
f 1162 350 284
f 629 556 125
f 1163 716 629
f 716 556 629
f 716 718 556
f 878 718 716
f 878 880 718
f 1040 880 878
f 1040 1042 880
f 126 1042 74
f 1042 12 74
f 1042 1040 12
f 1164 74 12
f 604 569 1165
f 766 731 604
f 604 731 569
f 922 893 766
f 766 893 731
f 922 1166 893
f 476 441 1167
f 636 597 476
f 476 597 441
f 800 759 636
f 636 759 597
f 956 917 800
f 800 917 759
f 956 1168 917
f 448 413 1169
f 413 448 1165
f 448 604 1165
f 448 606 604
f 768 604 606
f 766 604 768
f 924 766 768
f 922 766 924
f 1166 922 1055
f 922 1084 1055
f 922 924 1084
f 50 27 1084
f 1084 27 1055
f 182 165 50
f 50 165 27
f 328 299 182
f 182 299 165
f 299 328 1167
f 328 476 1167
f 328 478 476
f 638 476 478
f 636 476 638
f 802 636 638
f 800 636 802
f 958 800 802
f 956 800 958
f 1168 956 1170
f 1170 956 958
f 1171 450 1169
f 1169 450 448
f 608 448 450
f 606 448 608
f 608 127 733
f 768 608 733
f 606 608 768
f 768 733 895
f 768 895 924
f 924 895 1057
f 924 1057 1084
f 1084 1057 29
f 1084 29 50
f 50 29 167
f 50 167 182
f 182 167 301
f 182 301 328
f 328 301 443
f 328 443 478
f 478 443 599
f 478 599 638
f 638 599 128
f 804 638 128
f 802 638 804
f 960 802 804
f 958 802 960
f 1170 958 1172
f 1172 958 960
f 1173 452 1171
f 1171 452 450
f 610 450 452
f 608 450 610
f 127 608 610
f 127 610 129
f 761 804 128
f 804 761 130
f 962 804 130
f 960 804 962
f 1172 960 1174
f 1174 960 962
f 414 452 1173
f 610 452 414
f 131 610 414
f 1175 131 414
f 571 610 131
f 129 610 571
f 132 964 962
f 132 962 130
f 1174 962 1176
f 1176 962 964
f 133 1175 1177
f 133 131 1175
f 762 134 810
f 964 132 762
f 964 762 810
f 918 964 810
f 1178 918 810
f 1176 964 918
f 572 133 616
f 133 1179 616
f 133 1177 1179
f 135 572 616
f 444 136 488
f 444 488 648
f 444 648 600
f 810 134 600
f 810 600 648
f 760 810 648
f 1180 760 648
f 1178 810 760
f 570 616 1179
f 734 135 780
f 780 135 1181
f 135 616 1181
f 616 570 1181
f 137 734 780
f 168 138 194
f 168 194 1182
f 300 168 1182
f 302 168 300
f 136 302 488
f 302 442 488
f 302 300 442
f 598 648 442
f 442 648 488
f 1180 648 598
f 732 780 1181
f 896 137 938
f 938 137 1183
f 137 780 1183
f 780 732 1183
f 896 938 1184
f 1056 896 1184
f 1058 896 1056
f 28 1058 1056
f 28 30 1058
f 138 30 194
f 30 166 194
f 30 28 166
f 1182 194 166
f 894 938 1183
f 1184 938 894
