# Converted from NanoShaper .vert/.face
v -8.698000 -2.357000 -18.541000
v -6.770000 -2.357000 -18.541000
v -10.556000 -2.357000 -18.041000
v -6.616000 -2.357000 -18.041000
v -10.971000 -2.357000 -17.541000
v -6.639000 -2.357000 -17.541000
v -11.114000 -2.357000 -17.041000
v -6.598000 -2.357000 -17.041000
v -10.981000 -2.357000 -16.541000
v -6.734000 -2.357000 -16.541000
v -10.745000 -2.357000 -16.041000
v -6.815000 -2.357000 -16.041000
v -10.611000 -2.357000 -15.541000
v -6.730000 -2.357000 -15.541000
v -10.538000 -2.357000 -15.041000
v -6.624000 -2.357000 -15.041000
v -10.548000 -2.357000 -14.541000
v -6.622000 -2.357000 -14.541000
v -10.528000 -2.357000 -14.041000
v -6.747000 -2.357000 -14.041000
v -10.448000 -2.357000 -13.541000
v -6.972000 -2.357000 -13.541000
v -10.141000 -2.357000 -13.041000
v -7.493000 -2.357000 -13.041000
v -10.883000 -2.357000 -17.679000
v -10.883000 -2.357000 -16.355000
v -10.383000 -2.357000 -18.176000
v -10.383000 -2.357000 -13.387000
v -9.883000 -2.357000 -18.384000
v -9.883000 -2.357000 -12.829000
v -9.383000 -2.357000 -18.510000
v -9.383000 -2.357000 -12.631000
v -8.883000 -2.357000 -18.523000
v -8.883000 -2.357000 -12.630000
v -8.383000 -2.357000 -18.654000
v -8.383000 -2.357000 -12.768000
v -7.883000 -2.357000 -18.945000
v -7.883000 -2.357000 -12.886000
v -7.383000 -2.357000 -18.967000
v -7.383000 -2.357000 -13.107000
v -6.883000 -2.357000 -18.685000
v -6.883000 -2.357000 -13.727000
v -8.383000 -4.071000 -19.041000
v -8.383000 -2.812000 -19.041000
v -7.883000 -4.270000 -19.041000
v -7.883000 -2.456000 -19.041000
v -7.383000 -4.291000 -19.041000
v -7.383000 -2.433000 -19.041000
v -6.883000 -3.998000 -19.041000
v -6.883000 -2.726000 -19.041000
v -10.383000 -3.907000 -15.041000
v -10.383000 -1.058000 -15.041000
v -9.883000 -4.583000 -15.041000
v -9.883000 -0.278000 -15.041000
v -9.383000 -5.053000 -15.041000
v -9.383000 -0.050000 -15.041000
v -8.883000 -5.482000 -15.041000
v -8.883000 -0.040000 -15.041000
v -8.383000 -5.666000 -15.041000
v -8.383000 -0.242000 -15.041000
v -7.883000 -5.660000 -15.041000
v -7.883000 -0.671000 -15.041000
v -7.383000 -5.439000 -15.041000
v -7.383000 -1.187000 -15.041000
v -6.883000 -4.994000 -15.041000
v -6.883000 -1.818000 -15.041000
v -6.383000 -4.151000 -15.041000
v -6.383000 -2.701000 -15.041000
v -10.493000 -5.857000 -18.041000
v -8.813000 -5.857000 -18.041000
v -10.654000 -5.857000 -17.541000
v -8.610000 -5.857000 -17.541000
v -10.546000 -5.857000 -17.041000
v -8.245000 -5.857000 -17.041000
v -10.167000 -5.857000 -16.541000
v -8.060000 -5.857000 -16.541000
v -9.950000 -5.857000 -16.041000
v -8.137000 -5.857000 -16.041000
v -9.969000 -1.857000 -18.041000
v -9.341000 -1.857000 -18.041000
v -10.558000 -1.857000 -17.541000
v -7.547000 -1.857000 -17.541000
v -10.671000 -1.857000 -17.041000
v -7.233000 -1.857000 -17.041000
v -10.545000 -1.857000 -16.541000
v -7.134000 -1.857000 -16.541000
v -10.459000 -1.857000 -16.041000
v -7.125000 -1.857000 -16.041000
v -10.495000 -1.857000 -15.541000
v -6.967000 -1.857000 -15.541000
v -10.538000 -1.857000 -15.041000
v -6.867000 -1.857000 -15.041000
v -10.569000 -1.857000 -14.541000
v -6.965000 -1.857000 -14.541000
v -10.514000 -1.857000 -14.041000
v -7.253000 -1.857000 -14.041000
v -10.426000 -1.857000 -13.541000
v -7.636000 -1.857000 -13.541000
v -10.110000 -1.857000 -13.041000
v -8.035000 -1.857000 -13.041000
v -10.383000 -5.857000 -18.180000
v -10.383000 -5.857000 -16.809000
v -9.883000 -5.857000 -18.469000
v -9.883000 -5.857000 -15.942000
v -9.383000 -5.857000 -18.459000
v -9.383000 -5.857000 -15.598000
v -8.883000 -5.857000 -18.136000
v -8.883000 -5.857000 -15.559000
v -8.383000 -5.857000 -17.213000
v -8.383000 -5.857000 -15.670000
v -10.383000 -1.857000 -17.783000
v -10.383000 -1.857000 -13.437000
v -9.883000 -1.857000 -18.064000
v -9.883000 -1.857000 -12.854000
v -9.383000 -1.857000 -18.053000
v -9.383000 -1.857000 -12.648000
v -8.883000 -1.857000 -17.809000
v -8.883000 -1.857000 -12.640000
v -8.383000 -1.857000 -17.645000
v -8.383000 -1.857000 -12.818000
v -7.883000 -1.857000 -17.698000
v -7.883000 -1.857000 -13.179000
v -7.383000 -1.857000 -17.332000
v -7.383000 -1.857000 -13.865000
v -6.883000 -1.857000 -15.249000
v -6.883000 -1.857000 -14.834000
v -10.883000 -4.965000 -18.541000
v -10.883000 -3.808000 -18.541000
v -10.383000 -5.456000 -18.541000
v -10.383000 -3.227000 -18.541000
v -9.883000 -5.781000 -18.541000
v -9.883000 -2.659000 -18.541000
v -9.383000 -5.770000 -18.541000
v -9.383000 -2.388000 -18.541000
v -8.883000 -5.414000 -18.541000
v -8.883000 -2.373000 -18.541000
v -8.383000 -5.028000 -18.541000
v -8.383000 -2.282000 -18.541000
v -7.883000 -4.746000 -18.541000
v -7.883000 -2.098000 -18.541000
v -7.383000 -4.643000 -18.541000
v -7.383000 -2.081000 -18.541000
v -6.883000 -4.449000 -18.541000
v -6.883000 -2.275000 -18.541000
v -6.383000 -3.835000 -18.541000
v -6.383000 -2.889000 -18.541000
v -10.383000 -3.230000 -14.541000
v -10.383000 -0.743000 -14.541000
v -9.883000 -3.947000 -14.541000
v -9.883000 -0.155000 -14.541000
v -9.383000 -4.518000 -14.541000
v -9.383000 0.053000 -14.541000
v -8.883000 -5.009000 -14.541000
v -8.883000 0.062000 -14.541000
v -8.383000 -5.325000 -14.541000
v -8.383000 -0.122000 -14.541000
v -7.883000 -5.374000 -14.541000
v -7.883000 -0.637000 -14.541000
v -7.383000 -5.272000 -14.541000
v -7.383000 -1.322000 -14.541000
v -6.883000 -5.040000 -14.541000
v -6.883000 -2.000000 -14.541000
v -6.383000 -4.543000 -14.541000
v -6.383000 -2.663000 -14.541000
v -10.464000 -5.357000 -18.541000
v -8.825000 -5.357000 -18.541000
v -10.970000 -5.357000 -18.041000
v -8.283000 -5.357000 -18.041000
v -11.105000 -5.357000 -17.541000
v -7.805000 -5.357000 -17.541000
v -10.974000 -5.357000 -17.041000
v -7.220000 -5.357000 -17.041000
v -10.676000 -5.357000 -16.541000
v -7.093000 -5.357000 -16.541000
v -10.464000 -5.357000 -16.041000
v -7.084000 -5.357000 -16.041000
v -9.956000 -5.357000 -15.541000
v -7.140000 -5.357000 -15.541000
v -9.078000 -5.357000 -15.041000
v -7.274000 -5.357000 -15.041000
v -8.243000 -5.357000 -14.541000
v -7.736000 -5.357000 -14.541000
v -9.831000 -1.357000 -16.541000
v -8.038000 -1.357000 -16.541000
v -10.121000 -1.357000 -16.041000
v -7.645000 -1.357000 -16.041000
v -10.347000 -1.357000 -15.541000
v -7.354000 -1.357000 -15.541000
v -10.461000 -1.357000 -15.041000
v -7.215000 -1.357000 -15.041000
v -10.511000 -1.357000 -14.541000
v -7.350000 -1.357000 -14.541000
v -10.452000 -1.357000 -14.041000
v -7.676000 -1.357000 -14.041000
v -10.337000 -1.357000 -13.541000
v -7.885000 -1.357000 -13.541000
v -9.990000 -1.357000 -13.041000
v -8.232000 -1.357000 -13.041000
v -10.883000 -5.357000 -18.168000
v -10.883000 -5.357000 -16.896000
v -10.383000 -5.357000 -18.592000
v -10.383000 -5.357000 -15.933000
v -9.883000 -5.357000 -18.790000
v -9.883000 -5.357000 -15.489000
v -9.383000 -5.357000 -18.782000
v -9.383000 -5.357000 -15.230000
v -8.883000 -5.357000 -18.575000
v -8.883000 -5.357000 -14.868000
v -8.383000 -5.357000 -18.183000
v -8.383000 -5.357000 -14.577000
v -7.883000 -5.357000 -17.601000
v -7.883000 -5.357000 -14.510000
v -7.383000 -5.357000 -17.257000
v -7.383000 -5.357000 -14.842000
v -10.383000 -1.357000 -15.445000
v -10.383000 -1.357000 -13.682000
v -9.883000 -1.357000 -16.468000
v -9.883000 -1.357000 -12.955000
v -9.383000 -1.357000 -16.736000
v -9.383000 -1.357000 -12.733000
v -8.883000 -1.357000 -16.551000
v -8.883000 -1.357000 -12.724000
v -8.383000 -1.357000 -16.607000
v -8.383000 -1.357000 -12.924000
v -7.883000 -1.357000 -16.409000
v -7.883000 -1.357000 -13.545000
v -7.383000 -1.357000 -15.590000
v -7.383000 -1.357000 -14.482000
v -11.383000 -4.610000 -18.041000
v -11.383000 -4.162000 -18.041000
v -10.883000 -5.433000 -18.041000
v -10.883000 -2.744000 -18.041000
v -10.383000 -5.942000 -18.041000
v -10.383000 -2.117000 -18.041000
v -9.883000 -6.148000 -18.041000
v -9.883000 -1.834000 -18.041000
v -9.383000 -6.140000 -18.041000
v -9.383000 -1.845000 -18.041000
v -8.883000 -5.914000 -18.041000
v -8.883000 -2.005000 -18.041000
v -8.383000 -5.433000 -18.041000
v -8.383000 -2.038000 -18.041000
v -7.883000 -5.107000 -18.041000
v -7.883000 -1.972000 -18.041000
v -7.383000 -4.870000 -18.041000
v -7.383000 -1.978000 -18.041000
v -6.883000 -4.570000 -18.041000
v -6.883000 -2.154000 -18.041000
v -6.383000 -4.069000 -18.041000
v -6.383000 -2.655000 -18.041000
v -10.383000 -2.996000 -14.041000
v -10.383000 -0.997000 -14.041000
v -9.883000 -3.607000 -14.041000
v -9.883000 -0.257000 -14.041000
v -9.383000 -4.033000 -14.041000
v -9.383000 -0.033000 -14.041000
v -8.883000 -4.497000 -14.041000
v -8.883000 -0.023000 -14.041000
v -8.383000 -4.974000 -14.041000
v -8.383000 -0.222000 -14.041000
v -7.883000 -5.170000 -14.041000
v -7.883000 -0.839000 -14.041000
v -7.383000 -5.202000 -14.041000
v -7.383000 -1.733000 -14.041000
v -6.883000 -5.108000 -14.041000
v -6.883000 -2.252000 -14.041000
v -6.383000 -4.855000 -14.041000
v -6.383000 -2.702000 -14.041000
v -5.883000 -3.950000 -14.041000
v -5.883000 -3.712000 -14.041000
v -10.952000 -4.857000 -18.541000
v -8.144000 -4.857000 -18.541000
v -11.315000 -4.857000 -18.041000
v -7.364000 -4.857000 -18.041000
v -11.415000 -4.857000 -17.541000
v -7.089000 -4.857000 -17.541000
v -11.317000 -4.857000 -17.041000
v -6.869000 -4.857000 -17.041000
v -11.125000 -4.857000 -16.541000
v -6.776000 -4.857000 -16.541000
v -10.934000 -4.857000 -16.041000
v -6.777000 -4.857000 -16.041000
v -10.489000 -4.857000 -15.541000
v -6.822000 -4.857000 -15.541000
v -9.586000 -4.857000 -15.041000
v -6.766000 -4.857000 -15.041000
v -9.014000 -4.857000 -14.541000
v -6.649000 -4.857000 -14.541000
v -8.537000 -4.857000 -14.041000
v -6.386000 -4.857000 -14.041000
v -8.181000 -4.857000 -13.541000
v -6.219000 -4.857000 -13.541000
v -8.003000 -4.857000 -13.041000
v -6.336000 -4.857000 -13.041000
v -10.014000 -0.857000 -15.541000
v -7.811000 -0.857000 -15.541000
v -10.322000 -0.857000 -15.041000
v -7.658000 -0.857000 -15.041000
v -10.429000 -0.857000 -14.541000
v -7.736000 -0.857000 -14.541000
v -10.340000 -0.857000 -14.041000
v -7.876000 -0.857000 -14.041000
v -10.033000 -0.857000 -13.541000
v -8.186000 -0.857000 -13.541000
v -11.383000 -4.857000 -17.822000
v -11.383000 -4.857000 -17.253000
v -10.883000 -4.857000 -18.595000
v -10.883000 -4.857000 -15.962000
v -10.383000 -4.857000 -18.824000
v -10.383000 -4.857000 -15.465000
v -9.883000 -4.857000 -18.883000
v -9.883000 -4.857000 -15.234000
v -9.383000 -4.857000 -18.884000
v -9.383000 -4.857000 -14.859000
v -8.883000 -4.857000 -18.842000
v -8.883000 -4.857000 -14.412000
v -8.383000 -4.857000 -18.663000
v -8.383000 -4.857000 -13.839000
v -7.883000 -4.857000 -18.410000
v -7.883000 -4.857000 -12.871000
v -7.383000 -4.857000 -18.069000
v -7.383000 -4.857000 -12.573000
v -6.883000 -4.857000 -17.080000
v -6.883000 -4.857000 -12.592000
v -6.383000 -4.857000 -14.037000
v -6.383000 -4.857000 -12.963000
v -10.383000 -0.857000 -14.864000
v -10.383000 -0.857000 -14.173000
v -9.883000 -0.857000 -15.691000
v -9.883000 -0.857000 -13.370000
v -9.383000 -0.857000 -15.993000
v -9.383000 -0.857000 -13.055000
v -8.883000 -0.857000 -15.994000
v -8.883000 -0.857000 -13.043000
v -8.383000 -0.857000 -15.953000
v -8.383000 -0.857000 -13.325000
v -7.883000 -0.857000 -15.639000
v -7.883000 -0.857000 -14.022000
v -11.383000 -4.937000 -17.541000
v -11.383000 -2.932000 -17.541000
v -10.883000 -5.578000 -17.541000
v -10.883000 -2.263000 -17.541000
v -10.383000 -6.073000 -17.541000
v -10.383000 -1.720000 -17.541000
v -9.883000 -6.260000 -17.541000
v -9.883000 -1.520000 -17.541000
v -9.383000 -6.253000 -17.541000
v -9.383000 -1.529000 -17.541000
v -8.883000 -6.053000 -17.541000
v -8.883000 -1.701000 -17.541000
v -8.383000 -5.670000 -17.541000
v -8.383000 -1.789000 -17.541000
v -7.883000 -5.400000 -17.541000
v -7.883000 -1.782000 -17.541000
v -7.383000 -5.121000 -17.541000
v -7.383000 -1.919000 -17.541000
v -6.883000 -4.641000 -17.541000
v -6.883000 -2.159000 -17.541000
v -6.383000 -3.963000 -17.541000
v -6.383000 -2.719000 -17.541000
v -10.383000 -2.783000 -13.541000
v -10.383000 -1.501000 -13.541000
v -9.883000 -3.456000 -13.541000
v -9.883000 -0.680000 -13.541000
v -9.383000 -3.697000 -13.541000
v -9.383000 -0.357000 -13.541000
v -8.883000 -4.021000 -13.541000
v -8.883000 -0.344000 -13.541000
v -8.383000 -4.661000 -13.541000
v -8.383000 -0.628000 -13.541000
v -7.883000 -5.048000 -13.541000
v -7.883000 -1.362000 -13.541000
v -7.383000 -5.214000 -13.541000
v -7.383000 -2.116000 -13.541000
v -6.883000 -5.201000 -13.541000
v -6.883000 -2.404000 -13.541000
v -6.383000 -4.989000 -13.541000
v -6.383000 -2.673000 -13.541000
v -5.883000 -4.383000 -13.541000
v -5.883000 -3.279000 -13.541000
v -11.073000 -4.357000 -18.541000
v -6.760000 -4.357000 -18.541000
v -11.403000 -4.357000 -18.041000
v -6.608000 -4.357000 -18.041000
v -11.496000 -4.357000 -17.541000
v -6.662000 -4.357000 -17.541000
v -11.457000 -4.357000 -17.041000
v -6.623000 -4.357000 -17.041000
v -11.429000 -4.357000 -16.541000
v -6.644000 -4.357000 -16.541000
v -11.316000 -4.357000 -16.041000
v -6.680000 -4.357000 -16.041000
v -10.920000 -4.357000 -15.541000
v -6.631000 -4.357000 -15.541000
v -10.057000 -4.357000 -15.041000
v -6.451000 -4.357000 -15.041000
v -9.531000 -4.357000 -14.541000
v -6.284000 -4.357000 -14.541000
v -9.021000 -4.357000 -14.041000
v -5.990000 -4.357000 -14.041000
v -8.604000 -4.357000 -13.541000
v -5.873000 -4.357000 -13.541000
v -8.382000 -4.357000 -13.041000
v -5.956000 -4.357000 -13.041000
v -8.042000 -4.357000 -12.541000
v -6.297000 -4.357000 -12.541000
v -9.981000 -0.357000 -15.041000
v -8.235000 -0.357000 -15.041000
v -10.125000 -0.357000 -14.541000
v -8.092000 -0.357000 -14.541000
v -10.005000 -0.357000 -14.041000
v -8.211000 -0.357000 -14.041000
v -9.385000 -0.357000 -13.541000
v -8.831000 -0.357000 -13.541000
v -11.383000 -4.357000 -18.088000
v -11.383000 -4.357000 -16.230000
v -10.883000 -4.357000 -18.695000
v -10.883000 -4.357000 -15.514000
v -10.383000 -4.357000 -18.908000
v -10.383000 -4.357000 -15.268000
v -9.883000 -4.357000 -18.925000
v -9.883000 -4.357000 -14.893000
v -9.383000 -4.357000 -18.939000
v -9.383000 -4.357000 -14.372000
v -8.883000 -4.357000 -18.950000
v -8.883000 -4.357000 -13.882000
v -8.383000 -4.357000 -18.934000
v -8.383000 -4.357000 -13.043000
v -7.883000 -4.357000 -18.966000
v -7.883000 -4.357000 -12.417000
v -7.383000 -4.357000 -18.976000
v -7.383000 -4.357000 -12.221000
v -6.883000 -4.357000 -18.698000
v -6.883000 -4.357000 -12.235000
v -6.383000 -4.357000 -14.833000
v -6.383000 -4.357000 -12.468000
v -5.883000 -4.357000 -13.670000
v -5.883000 -4.357000 -13.330000
v -9.883000 -0.357000 -15.176000
v -9.883000 -0.357000 -13.861000
v -9.383000 -0.357000 -15.498000
v -9.383000 -0.357000 -13.540000
v -8.883000 -0.357000 -15.510000
v -8.883000 -0.357000 -13.527000
v -8.383000 -0.357000 -15.232000
v -8.383000 -0.357000 -13.806000
v -11.383000 -4.652000 -17.041000
v -11.383000 -2.700000 -17.041000
v -10.883000 -5.451000 -17.041000
v -10.883000 -2.125000 -17.041000
v -10.383000 -5.984000 -17.041000
v -10.383000 -1.625000 -17.041000
v -9.883000 -6.184000 -17.041000
v -9.883000 -1.439000 -17.041000
v -9.383000 -6.222000 -17.041000
v -9.383000 -1.432000 -17.041000
v -8.883000 -6.158000 -17.041000
v -8.883000 -1.536000 -17.041000
v -8.383000 -5.954000 -17.041000
v -8.383000 -1.508000 -17.041000
v -7.883000 -5.681000 -17.041000
v -7.883000 -1.517000 -17.041000
v -7.383000 -5.481000 -17.041000
v -7.383000 -1.736000 -17.041000
v -6.883000 -4.891000 -17.041000
v -6.883000 -2.125000 -17.041000
v -6.383000 -3.999000 -17.041000
v -6.383000 -2.650000 -17.041000
v -9.883000 -3.048000 -13.041000
v -9.883000 -1.199000 -13.041000
v -9.383000 -3.353000 -13.041000
v -9.383000 -0.872000 -13.041000
v -8.883000 -3.600000 -13.041000
v -8.883000 -0.860000 -13.041000
v -8.383000 -4.355000 -13.041000
v -8.383000 -1.148000 -13.041000
v -7.883000 -4.944000 -13.041000
v -7.883000 -2.084000 -13.041000
v -7.383000 -5.136000 -13.041000
v -7.383000 -2.402000 -13.041000
v -6.883000 -5.122000 -13.041000
v -6.883000 -2.540000 -13.041000
v -6.383000 -4.894000 -13.041000
v -6.383000 -2.767000 -13.041000
v -5.883000 -4.139000 -13.041000
v -5.883000 -3.522000 -13.041000
v -8.548000 -3.857000 -19.041000
v -6.779000 -3.857000 -19.041000
v -10.918000 -3.857000 -18.541000
v -6.393000 -3.857000 -18.541000
v -11.294000 -3.857000 -18.041000
v -6.282000 -3.857000 -18.041000
v -11.462000 -3.857000 -17.541000
v -6.336000 -3.857000 -17.541000
v -11.552000 -3.857000 -17.041000
v -6.316000 -3.857000 -17.041000
v -11.528000 -3.857000 -16.541000
v -6.428000 -3.857000 -16.541000
v -11.423000 -3.857000 -16.041000
v -6.503000 -3.857000 -16.041000
v -11.074000 -3.857000 -15.541000
v -6.402000 -3.857000 -15.541000
v -10.417000 -3.857000 -15.041000
v -6.299000 -3.857000 -15.041000
v -9.973000 -3.857000 -14.541000
v -6.149000 -3.857000 -14.541000
v -9.593000 -3.857000 -14.041000
v -5.878000 -3.857000 -14.041000
v -9.083000 -3.857000 -13.541000
v -5.770000 -3.857000 -13.541000
v -8.649000 -3.857000 -13.041000
v -5.847000 -3.857000 -13.041000
v -8.189000 -3.857000 -12.541000
v -6.150000 -3.857000 -12.541000
v -11.383000 -3.857000 -17.811000
v -11.383000 -3.857000 -15.953000
v -10.883000 -3.857000 -18.568000
v -10.883000 -3.857000 -15.394000
v -10.383000 -3.857000 -18.807000
v -10.383000 -3.857000 -15.012000
v -9.883000 -3.857000 -18.945000
v -9.883000 -3.857000 -14.447000
v -9.383000 -3.857000 -18.958000
v -9.383000 -3.857000 -13.825000
v -8.883000 -3.857000 -18.954000
v -8.883000 -3.857000 -13.348000
v -8.383000 -3.857000 -19.100000
v -8.383000 -3.857000 -12.741000
v -7.883000 -3.857000 -19.290000
v -7.883000 -3.857000 -12.296000
v -7.383000 -3.857000 -19.307000
v -7.383000 -3.857000 -12.117000
v -6.883000 -3.857000 -19.115000
v -6.883000 -3.857000 -12.130000
v -6.383000 -3.857000 -18.519000
v -6.383000 -3.857000 -16.667000
v -6.383000 -3.857000 -15.489000
v -6.383000 -3.857000 -12.342000
v -5.883000 -3.857000 -14.053000
v -5.883000 -3.857000 -12.947000
v -11.383000 -4.461000 -16.541000
v -11.383000 -2.901000 -16.541000
v -10.883000 -5.119000 -16.541000
v -10.883000 -2.270000 -16.541000
v -10.383000 -5.653000 -16.541000
v -10.383000 -1.696000 -16.541000
v -9.883000 -6.044000 -16.541000
v -9.883000 -1.378000 -16.541000
v -9.383000 -6.233000 -16.541000
v -9.383000 -1.277000 -16.541000
v -8.883000 -6.245000 -16.541000
v -8.883000 -1.351000 -16.541000
v -8.383000 -6.063000 -16.541000
v -8.383000 -1.325000 -16.541000
v -7.883000 -5.778000 -16.541000
v -7.883000 -1.400000 -16.541000
v -7.383000 -5.583000 -16.541000
v -7.383000 -1.646000 -16.541000
v -6.883000 -5.084000 -16.541000
v -6.883000 -2.179000 -16.541000
v -6.383000 -3.745000 -16.541000
v -6.383000 -2.909000 -16.541000
v -7.883000 -4.558000 -12.541000
v -7.883000 -3.008000 -12.541000
v -7.383000 -4.827000 -12.541000
v -7.383000 -2.833000 -12.541000
v -6.883000 -4.809000 -12.541000
v -6.883000 -2.852000 -12.541000
v -6.383000 -4.480000 -12.541000
v -6.383000 -3.181000 -12.541000
v -8.697000 -3.357000 -19.041000
v -6.640000 -3.357000 -19.041000
v -10.473000 -3.357000 -18.541000
v -6.294000 -3.357000 -18.541000
v -11.142000 -3.357000 -18.041000
v -6.192000 -3.357000 -18.041000
v -11.464000 -3.357000 -17.541000
v -6.236000 -3.357000 -17.541000
v -11.562000 -3.357000 -17.041000
v -6.211000 -3.357000 -17.041000
v -11.484000 -3.357000 -16.541000
v -6.315000 -3.357000 -16.541000
v -11.330000 -3.357000 -16.041000
v -6.390000 -3.357000 -16.041000
v -10.974000 -3.357000 -15.541000
v -6.304000 -3.357000 -15.541000
v -10.596000 -3.357000 -15.041000
v -6.218000 -3.357000 -15.041000
v -10.332000 -3.357000 -14.541000
v -6.160000 -3.357000 -14.541000
v -10.152000 -3.357000 -14.041000
v -5.968000 -3.357000 -14.041000
v -10.009000 -3.357000 -13.541000
v -5.852000 -3.357000 -13.541000
v -9.369000 -3.357000 -13.041000
v -5.935000 -3.357000 -13.041000
v -8.156000 -3.357000 -12.541000
v -6.266000 -3.357000 -12.541000
v -11.383000 -3.357000 -17.711000
v -11.383000 -3.357000 -16.183000
v -10.883000 -3.357000 -18.270000
v -10.883000 -3.357000 -15.429000
v -10.383000 -3.357000 -18.614000
v -10.383000 -3.357000 -14.660000
v -9.883000 -3.357000 -18.847000
v -9.883000 -3.357000 -13.358000
v -9.383000 -3.357000 -18.950000
v -9.383000 -3.357000 -13.045000
v -8.883000 -3.357000 -18.996000
v -8.883000 -3.357000 -12.877000
v -8.383000 -3.357000 -19.173000
v -8.383000 -3.357000 -12.656000
v -7.883000 -3.357000 -19.383000
v -7.883000 -3.357000 -12.391000
v -7.383000 -3.357000 -19.398000
v -7.383000 -3.357000 -12.200000
v -6.883000 -3.357000 -19.222000
v -6.883000 -3.357000 -12.214000
v -6.383000 -3.357000 -18.722000
v -6.383000 -3.357000 -16.202000
v -6.383000 -3.357000 -15.914000
v -6.383000 -3.357000 -12.443000
v -5.883000 -3.357000 -13.787000
v -5.883000 -3.357000 -13.213000
v -11.383000 -4.159000 -16.041000
v -11.383000 -3.522000 -16.041000
v -10.883000 -4.907000 -16.041000
v -10.883000 -2.594000 -16.041000
v -10.383000 -5.418000 -16.041000
v -10.383000 -1.713000 -16.041000
v -9.883000 -5.911000 -16.041000
v -9.883000 -1.146000 -16.041000
v -9.383000 -6.139000 -16.041000
v -9.383000 -0.906000 -16.041000
v -8.883000 -6.151000 -16.041000
v -8.883000 -0.905000 -16.041000
v -8.383000 -5.966000 -16.041000
v -8.383000 -0.945000 -16.041000
v -7.883000 -5.780000 -16.041000
v -7.883000 -1.172000 -16.041000
v -7.383000 -5.596000 -16.041000
v -7.383000 -1.590000 -16.041000
v -6.883000 -5.089000 -16.041000
v -6.883000 -2.252000 -16.041000
v -8.425000 -2.857000 -19.041000
v -6.784000 -2.857000 -19.041000
v -10.031000 -2.857000 -18.541000
v -6.396000 -2.857000 -18.541000
v -10.970000 -2.857000 -18.041000
v -6.286000 -2.857000 -18.041000
v -11.353000 -2.857000 -17.541000
v -6.324000 -2.857000 -17.541000
v -11.459000 -2.857000 -17.041000
v -6.290000 -2.857000 -17.041000
v -11.365000 -2.857000 -16.541000
v -6.402000 -2.857000 -16.541000
v -11.043000 -2.857000 -16.041000
v -6.491000 -2.857000 -16.041000
v -10.813000 -2.857000 -15.541000
v -6.404000 -2.857000 -15.541000
v -10.608000 -2.857000 -15.041000
v -6.312000 -2.857000 -15.041000
v -10.478000 -2.857000 -14.541000
v -6.287000 -2.857000 -14.541000
v -10.442000 -2.857000 -14.041000
v -6.257000 -2.857000 -14.041000
v -10.357000 -2.857000 -13.541000
v -6.164000 -2.857000 -13.541000
v -10.018000 -2.857000 -13.041000
v -6.274000 -2.857000 -13.041000
v -7.501000 -2.857000 -12.541000
v -6.866000 -2.857000 -12.541000
v -11.383000 -2.857000 -17.463000
v -11.383000 -2.857000 -16.588000
v -10.883000 -2.857000 -18.104000
v -10.883000 -2.857000 -15.724000
v -10.383000 -2.857000 -18.337000
v -10.383000 -2.857000 -13.618000
v -9.883000 -2.857000 -18.649000
v -9.883000 -2.857000 -12.933000
v -9.383000 -2.857000 -18.852000
v -9.383000 -2.857000 -12.719000
v -8.883000 -2.857000 -18.891000
v -8.883000 -2.857000 -12.694000
v -8.383000 -2.857000 -19.062000
v -8.383000 -2.857000 -12.674000
v -7.883000 -2.857000 -19.287000
v -7.883000 -2.857000 -12.618000
v -7.383000 -2.857000 -19.303000
v -7.383000 -2.857000 -12.517000
v -6.883000 -2.857000 -19.111000
v -6.883000 -2.857000 -12.535000
v -6.383000 -2.857000 -18.510000
v -6.383000 -2.857000 -16.594000
v -6.383000 -2.857000 -15.482000
v -6.383000 -2.857000 -12.871000
v -10.883000 -4.409000 -15.541000
v -10.883000 -3.063000 -15.541000
v -10.383000 -4.987000 -15.541000
v -10.383000 -1.455000 -15.541000
v -9.883000 -5.453000 -15.541000
v -9.883000 -0.722000 -15.541000
v -9.383000 -5.800000 -15.541000
v -9.383000 -0.403000 -15.541000
v -8.883000 -5.845000 -15.541000
v -8.883000 -0.390000 -15.541000
v -8.383000 -5.819000 -15.541000
v -8.383000 -0.571000 -15.541000
v -7.883000 -5.761000 -15.541000
v -7.883000 -0.804000 -15.541000
v -7.383000 -5.559000 -15.541000
v -7.383000 -1.329000 -15.541000
v -6.883000 -4.987000 -15.541000
v -6.883000 -2.068000 -15.541000
v -6.383000 -3.809000 -15.541000
v -6.383000 -2.910000 -15.541000
f 127 271 307
f 307 271 417
f 417 271 381
f 417 381 517
f 517 381 489
f 489 128 517
f 129 165 201
f 127 307 165
f 307 201 165
f 307 309 201
f 307 419 309
f 307 417 419
f 417 519 419
f 417 517 519
f 573 603 128
f 603 517 128
f 603 519 517
f 573 130 603
f 203 131 201
f 201 131 129
f 201 311 203
f 201 309 311
f 309 421 311
f 309 419 421
f 419 521 421
f 419 519 521
f 519 605 521
f 519 603 605
f 647 679 130
f 679 603 130
f 679 605 603
f 647 132 679
f 205 133 203
f 203 133 131
f 203 313 205
f 203 311 313
f 311 423 313
f 311 421 423
f 421 523 423
f 421 521 523
f 521 607 523
f 521 605 607
f 605 681 607
f 605 679 681
f 679 132 681
f 681 132 134
f 207 135 205
f 205 135 133
f 205 315 207
f 205 313 315
f 313 425 315
f 313 423 425
f 423 525 425
f 423 523 525
f 523 609 525
f 523 607 609
f 607 683 609
f 607 681 683
f 681 134 683
f 683 134 136
f 207 166 135
f 166 207 137
f 207 317 137
f 207 315 317
f 315 427 317
f 315 425 427
f 525 487 43
f 427 525 43
f 425 525 427
f 609 571 487
f 609 487 525
f 683 645 571
f 683 571 609
f 136 1 35
f 136 35 44
f 683 136 44
f 645 683 44
f 1 138 35
f 317 272 137
f 272 317 139
f 317 429 139
f 317 427 429
f 427 43 45
f 427 45 429
f 37 46 44
f 37 44 35
f 35 138 37
f 37 138 140
f 431 141 429
f 429 141 139
f 429 45 47
f 429 47 431
f 39 48 46
f 39 46 37
f 37 140 39
f 39 140 142
f 433 143 431
f 431 143 141
f 431 47 49
f 431 49 433
f 41 50 48
f 41 48 39
f 39 142 41
f 41 142 144
f 433 382 143
f 49 488 433
f 488 382 433
f 488 490 382
f 572 619 145
f 490 572 145
f 488 572 490
f 648 146 619
f 572 648 619
f 646 648 572
f 41 2 50
f 2 646 50
f 2 648 646
f 41 144 2
f 619 574 145
f 619 146 574
f 520 503 51
f 604 587 520
f 520 587 503
f 147 663 604
f 663 587 604
f 663 661 587
f 663 15 661
f 17 15 663
f 17 91 15
f 93 91 17
f 93 189 91
f 191 189 93
f 52 189 327
f 189 299 327
f 189 191 299
f 299 148 327
f 422 395 53
f 505 520 51
f 505 51 395
f 149 505 395
f 422 149 395
f 520 505 589
f 520 589 604
f 147 604 589
f 327 297 52
f 297 327 148
f 409 297 148
f 407 297 409
f 409 150 407
f 407 150 54
f 314 285 55
f 397 422 53
f 397 53 285
f 151 397 285
f 314 151 285
f 149 422 397
f 54 152 56
f 150 152 54
f 208 179 57
f 287 314 55
f 287 55 179
f 153 287 179
f 208 153 179
f 151 314 287
f 56 154 58
f 152 154 56
f 59 210 57
f 57 210 208
f 153 208 210
f 153 210 155
f 58 156 60
f 154 156 58
f 210 59 181
f 59 157 181
f 59 61 157
f 155 210 181
f 410 158 62
f 410 62 408
f 408 60 410
f 410 60 156
f 182 157 214
f 157 63 214
f 157 61 63
f 159 182 214
f 300 160 64
f 300 64 298
f 298 62 300
f 300 62 158
f 180 214 63
f 159 214 180
f 65 159 180
f 161 159 65
f 94 162 126
f 94 126 66
f 190 94 66
f 192 94 190
f 190 64 192
f 192 64 160
f 65 286 161
f 161 286 288
f 396 435 163
f 288 396 163
f 286 396 288
f 67 435 396
f 18 164 68
f 18 68 16
f 162 18 126
f 18 92 126
f 18 16 92
f 66 126 92
f 435 398 163
f 67 504 435
f 504 398 435
f 504 506 398
f 588 506 504
f 588 590 506
f 662 590 588
f 662 664 590
f 662 68 664
f 664 68 164
f 229 383 415
f 383 230 415
f 231 167 199
f 199 167 127
f 167 271 127
f 167 273 271
f 273 229 415
f 381 273 415
f 271 273 381
f 381 415 230
f 491 381 230
f 489 381 491
f 128 489 601
f 489 575 601
f 489 491 575
f 601 575 675
f 675 575 649
f 649 232 675
f 233 69 101
f 231 199 69
f 69 199 101
f 199 165 101
f 165 129 101
f 199 127 165
f 601 573 128
f 677 130 573
f 601 677 573
f 675 677 601
f 3 27 232
f 27 675 232
f 27 677 675
f 3 234 27
f 103 235 101
f 101 235 233
f 101 129 131
f 101 131 103
f 677 647 130
f 29 132 647
f 677 29 647
f 27 29 677
f 79 113 234
f 113 27 234
f 113 29 27
f 79 236 113
f 105 237 103
f 103 237 235
f 103 131 133
f 103 133 105
f 31 134 132
f 31 132 29
f 29 115 31
f 29 113 115
f 113 236 115
f 115 236 238
f 107 239 105
f 105 239 237
f 105 133 135
f 105 135 107
f 33 136 134
f 33 134 31
f 240 33 80
f 33 115 80
f 33 31 115
f 115 238 80
f 107 70 239
f 209 241 166
f 166 241 135
f 241 70 135
f 70 107 135
f 137 209 166
f 33 1 136
f 33 240 1
f 240 138 1
f 240 242 138
f 209 168 241
f 319 243 272
f 272 243 137
f 243 168 137
f 168 209 137
f 139 319 272
f 138 244 140
f 242 244 138
f 321 245 319
f 319 245 243
f 319 139 141
f 319 141 321
f 140 246 142
f 244 246 140
f 321 274 245
f 247 274 321
f 141 247 321
f 143 247 141
f 142 248 144
f 246 248 142
f 143 382 247
f 247 382 384
f 490 535 249
f 384 490 249
f 382 490 384
f 145 535 490
f 648 693 146
f 4 250 693
f 648 4 693
f 2 4 648
f 2 144 4
f 4 144 248
f 535 492 249
f 145 574 535
f 574 492 535
f 574 576 492
f 693 650 146
f 650 574 146
f 650 576 574
f 693 250 650
f 251 665 147
f 147 665 663
f 665 17 663
f 19 17 665
f 19 93 17
f 95 93 19
f 95 191 93
f 193 191 95
f 328 299 252
f 299 193 252
f 299 191 193
f 328 148 299
f 522 505 149
f 253 591 522
f 591 505 522
f 591 589 505
f 147 589 591
f 147 591 251
f 301 328 252
f 409 148 328
f 301 409 328
f 411 409 301
f 411 254 409
f 409 254 150
f 424 397 151
f 507 522 149
f 507 149 397
f 255 507 397
f 424 255 397
f 253 522 507
f 150 256 152
f 254 256 150
f 316 287 153
f 399 424 151
f 399 151 287
f 257 399 287
f 316 257 287
f 255 424 399
f 152 258 154
f 256 258 152
f 316 153 289
f 153 259 289
f 153 155 259
f 257 316 289
f 154 260 156
f 258 260 154
f 212 181 157
f 155 181 212
f 261 155 212
f 259 155 261
f 412 262 158
f 412 158 410
f 410 156 412
f 412 156 260
f 182 212 157
f 261 212 182
f 159 261 182
f 263 261 159
f 194 264 228
f 194 228 160
f 300 194 160
f 302 194 300
f 300 158 302
f 302 158 262
f 265 159 161
f 265 263 159
f 96 266 162
f 96 162 94
f 264 96 228
f 96 192 228
f 96 94 192
f 160 228 192
f 161 288 265
f 265 288 290
f 267 290 288
f 267 288 163
f 20 268 164
f 20 164 18
f 18 162 20
f 20 162 266
f 163 398 267
f 267 398 400
f 506 539 269
f 400 506 269
f 398 506 400
f 592 270 539
f 506 592 539
f 590 592 506
f 664 592 590
f 664 666 592
f 664 164 666
f 666 164 268
f 539 508 269
f 539 270 508
f 339 275 305
f 305 275 229
f 275 383 229
f 275 385 383
f 230 383 515
f 383 493 515
f 383 385 493
f 515 493 599
f 599 493 577
f 577 340 599
f 341 169 231
f 231 169 167
f 169 339 305
f 273 169 305
f 167 169 273
f 305 229 273
f 515 491 230
f 599 575 491
f 599 491 515
f 575 599 340
f 651 575 340
f 649 575 651
f 232 649 25
f 649 5 25
f 649 651 5
f 5 342 25
f 343 71 233
f 233 71 69
f 231 69 71
f 231 71 341
f 25 3 232
f 342 81 111
f 342 111 234
f 25 342 234
f 3 25 234
f 81 344 111
f 345 233 235
f 345 343 233
f 111 79 234
f 111 344 79
f 344 236 79
f 344 346 236
f 347 235 237
f 347 345 235
f 236 348 238
f 346 348 236
f 349 237 239
f 349 347 237
f 80 117 240
f 80 238 117
f 238 350 117
f 238 348 350
f 239 70 349
f 349 70 72
f 351 72 70
f 351 70 241
f 119 242 240
f 119 240 117
f 117 350 119
f 119 350 352
f 211 353 168
f 353 241 168
f 353 351 241
f 243 211 168
f 121 244 242
f 121 242 119
f 119 352 121
f 121 352 354
f 211 170 353
f 355 170 211
f 243 355 211
f 245 355 243
f 244 121 82
f 356 244 82
f 246 244 356
f 121 354 82
f 245 274 355
f 355 274 276
f 357 276 274
f 357 274 247
f 246 358 248
f 356 358 246
f 247 384 357
f 357 384 386
f 359 386 384
f 359 384 249
f 6 360 250
f 6 250 4
f 4 248 6
f 6 248 358
f 249 492 359
f 359 492 494
f 576 494 492
f 576 578 494
f 650 578 576
f 650 652 578
f 650 250 652
f 652 250 360
f 678 665 251
f 361 21 678
f 21 665 678
f 21 19 665
f 21 95 19
f 97 95 21
f 216 193 362
f 193 97 362
f 193 95 97
f 216 252 193
f 363 593 253
f 253 593 591
f 667 678 251
f 591 667 251
f 593 667 591
f 361 678 667
f 195 216 362
f 301 252 216
f 195 301 216
f 303 301 195
f 440 411 364
f 411 303 364
f 411 301 303
f 440 254 411
f 524 507 255
f 253 507 524
f 365 253 524
f 363 253 365
f 413 440 364
f 413 366 440
f 366 254 440
f 366 256 254
f 426 399 257
f 509 524 255
f 509 255 399
f 367 509 399
f 426 367 399
f 365 524 509
f 256 368 258
f 366 368 256
f 318 289 259
f 401 426 257
f 401 257 289
f 369 401 289
f 318 369 289
f 367 426 401
f 414 370 446
f 446 260 414
f 260 368 414
f 260 258 368
f 318 259 291
f 259 371 291
f 259 261 371
f 369 318 291
f 196 372 226
f 196 226 338
f 196 338 304
f 446 370 304
f 446 304 338
f 412 446 338
f 262 412 338
f 260 446 412
f 373 261 263
f 373 371 261
f 98 374 124
f 226 372 98
f 226 98 124
f 194 226 124
f 264 194 124
f 302 338 194
f 194 338 226
f 262 338 302
f 375 263 265
f 375 373 263
f 22 376 42
f 124 374 22
f 124 22 42
f 96 124 42
f 266 96 42
f 264 124 96
f 325 377 290
f 377 265 290
f 377 375 265
f 267 325 290
f 268 20 42
f 376 268 42
f 378 268 376
f 266 42 20
f 325 292 377
f 437 379 400
f 400 379 267
f 379 292 267
f 292 325 267
f 269 437 400
f 592 623 270
f 668 380 623
f 592 668 623
f 666 668 592
f 666 268 668
f 668 268 378
f 437 402 379
f 269 508 437
f 508 402 437
f 508 510 402
f 623 594 270
f 594 508 270
f 594 510 508
f 623 380 594
f 306 275 339
f 447 387 306
f 387 275 306
f 387 385 275
f 387 493 385
f 495 493 387
f 495 577 493
f 579 577 495
f 340 577 673
f 577 653 673
f 577 579 653
f 653 448 673
f 449 171 341
f 341 171 169
f 277 306 339
f 169 277 339
f 171 277 169
f 447 306 277
f 673 651 340
f 651 673 448
f 7 651 448
f 5 651 7
f 7 450 5
f 5 450 342
f 451 73 343
f 343 73 71
f 341 71 73
f 341 73 449
f 81 342 450
f 81 450 83
f 83 452 81
f 81 452 344
f 453 343 345
f 453 451 343
f 344 454 346
f 452 454 344
f 455 345 347
f 455 453 345
f 346 456 348
f 454 456 346
f 457 347 349
f 457 455 347
f 348 458 350
f 456 458 348
f 109 459 72
f 459 349 72
f 459 457 349
f 351 109 72
f 350 460 352
f 458 460 350
f 109 74 459
f 461 74 109
f 351 461 109
f 353 461 351
f 352 462 354
f 460 462 352
f 213 463 170
f 463 353 170
f 463 461 353
f 355 213 170
f 82 123 356
f 82 354 123
f 354 464 123
f 354 462 464
f 213 172 463
f 323 465 276
f 276 465 355
f 465 172 355
f 172 213 355
f 357 323 276
f 356 123 84
f 466 356 84
f 358 356 466
f 123 464 84
f 323 278 465
f 357 386 323
f 386 278 323
f 386 388 278
f 467 388 386
f 467 386 359
f 8 468 360
f 8 360 6
f 6 358 8
f 8 358 466
f 359 494 467
f 467 494 496
f 578 496 494
f 578 580 496
f 652 580 578
f 652 654 580
f 652 360 654
f 654 360 468
f 28 21 361
f 112 97 28
f 28 97 21
f 112 362 97
f 606 593 363
f 469 669 606
f 669 593 606
f 669 667 593
f 23 28 361
f 667 23 361
f 669 23 667
f 28 23 99
f 28 99 112
f 195 362 112
f 99 195 112
f 197 195 99
f 330 303 470
f 303 197 470
f 303 195 197
f 330 364 303
f 365 608 363
f 363 608 606
f 469 606 608
f 469 608 471
f 472 332 330
f 472 330 470
f 364 330 413
f 330 442 413
f 330 332 442
f 442 366 413
f 526 509 367
f 595 608 365
f 595 365 509
f 473 595 509
f 526 473 509
f 471 608 595
f 474 334 332
f 474 332 472
f 444 332 334
f 442 332 444
f 366 442 368
f 368 442 444
f 428 401 369
f 511 526 367
f 511 367 401
f 475 511 401
f 428 475 401
f 473 526 511
f 476 336 334
f 476 334 474
f 414 444 370
f 444 336 370
f 444 334 336
f 368 444 414
f 477 293 371
f 371 293 291
f 403 428 369
f 291 403 369
f 293 403 291
f 475 428 403
f 100 478 122
f 100 122 372
f 196 100 372
f 198 100 196
f 476 198 336
f 198 304 336
f 198 196 304
f 370 336 304
f 479 371 373
f 479 477 371
f 24 480 40
f 122 478 24
f 122 24 40
f 98 122 40
f 374 98 40
f 372 122 98
f 481 373 375
f 481 479 373
f 376 22 40
f 480 376 40
f 482 376 480
f 374 40 22
f 483 375 377
f 483 481 375
f 376 484 378
f 482 484 376
f 377 292 483
f 483 292 294
f 292 379 438
f 404 292 438
f 294 292 404
f 485 404 438
f 596 486 624
f 596 624 380
f 668 596 380
f 670 596 668
f 668 378 670
f 670 378 484
f 402 438 379
f 438 402 485
f 402 512 485
f 402 510 512
f 486 512 624
f 512 594 624
f 512 510 594
f 380 624 594
f 541 389 447
f 447 389 387
f 389 495 387
f 497 495 389
f 497 579 495
f 581 579 497
f 674 653 542
f 653 581 542
f 653 579 581
f 674 448 653
f 200 171 449
f 543 279 200
f 279 171 200
f 279 277 171
f 447 277 279
f 447 279 541
f 655 674 542
f 7 448 674
f 655 7 674
f 9 7 655
f 9 544 7
f 7 544 450
f 102 73 451
f 173 200 449
f 173 449 73
f 545 173 73
f 102 545 73
f 543 200 173
f 83 450 544
f 83 544 85
f 85 546 83
f 83 546 452
f 102 451 75
f 451 547 75
f 451 453 547
f 545 102 75
f 452 548 454
f 546 548 452
f 549 453 455
f 549 547 453
f 548 183 219
f 456 548 219
f 454 548 456
f 183 550 219
f 551 455 457
f 551 549 455
f 221 458 456
f 221 456 219
f 219 550 221
f 221 550 552
f 553 457 459
f 553 551 457
f 223 460 458
f 223 458 221
f 221 552 223
f 223 552 554
f 459 74 553
f 553 74 76
f 555 76 74
f 555 74 461
f 460 223 184
f 556 460 184
f 462 460 556
f 223 554 184
f 557 461 463
f 557 555 461
f 462 558 464
f 556 558 462
f 463 172 557
f 557 172 174
f 559 174 172
f 559 172 465
f 86 560 466
f 86 466 84
f 84 464 86
f 86 464 558
f 465 278 559
f 559 278 280
f 388 280 278
f 388 390 280
f 388 467 536
f 498 388 536
f 390 388 498
f 561 498 536
f 656 562 694
f 656 694 468
f 8 656 468
f 10 656 8
f 8 466 10
f 10 466 560
f 496 536 467
f 536 496 561
f 496 582 561
f 496 580 582
f 562 582 694
f 582 654 694
f 582 580 654
f 468 694 654
f 680 669 469
f 30 23 680
f 680 23 669
f 114 99 30
f 30 99 23
f 218 197 114
f 114 197 99
f 218 470 197
f 471 682 469
f 469 682 680
f 32 680 682
f 30 680 32
f 116 30 32
f 114 30 116
f 220 114 116
f 218 114 220
f 470 218 472
f 472 218 220
f 610 595 473
f 595 610 471
f 610 682 471
f 610 684 682
f 34 682 684
f 32 682 34
f 118 32 34
f 116 32 118
f 222 116 118
f 220 116 222
f 472 220 474
f 474 220 222
f 528 511 475
f 511 528 473
f 528 610 473
f 528 612 610
f 686 610 612
f 684 610 686
f 36 684 686
f 34 684 36
f 120 34 36
f 118 34 120
f 224 118 120
f 222 118 224
f 474 222 476
f 476 222 224
f 320 293 477
f 563 405 320
f 405 293 320
f 405 403 293
f 513 528 475
f 403 513 475
f 405 513 403
f 528 513 597
f 528 597 612
f 612 597 564
f 688 612 564
f 686 612 688
f 38 686 688
f 36 686 38
f 100 120 478
f 120 38 478
f 120 36 38
f 198 224 100
f 100 224 120
f 476 224 198
f 479 322 477
f 477 322 320
f 563 320 322
f 563 322 565
f 671 688 564
f 566 480 24
f 688 566 24
f 38 688 24
f 566 688 671
f 478 38 24
f 481 324 479
f 479 324 322
f 565 322 324
f 565 324 567
f 480 568 482
f 566 568 480
f 483 326 481
f 481 326 324
f 567 324 326
f 567 326 569
f 672 570 696
f 696 484 672
f 484 568 672
f 484 482 568
f 294 326 483
f 326 294 569
f 294 406 569
f 294 404 406
f 404 485 540
f 514 404 540
f 406 404 514
f 514 540 486
f 596 514 486
f 598 514 596
f 570 598 696
f 598 670 696
f 598 596 670
f 484 696 670
f 512 540 485
f 486 540 512
f 416 389 541
f 625 499 416
f 499 389 416
f 499 497 389
f 600 581 626
f 581 499 626
f 581 497 499
f 600 542 581
f 627 281 543
f 543 281 279
f 391 416 541
f 279 391 541
f 281 391 279
f 625 416 391
f 583 600 626
f 655 542 600
f 583 655 600
f 657 655 583
f 26 9 628
f 9 657 628
f 9 655 657
f 26 544 9
f 629 175 545
f 545 175 173
f 543 173 175
f 543 175 627
f 11 26 628
f 85 544 26
f 11 85 26
f 87 85 11
f 87 630 85
f 85 630 546
f 631 77 547
f 547 77 75
f 545 75 77
f 545 77 629
f 630 185 217
f 548 630 217
f 546 630 548
f 185 632 217
f 633 547 549
f 633 631 547
f 217 183 548
f 217 632 183
f 632 550 183
f 632 634 550
f 635 549 551
f 635 633 549
f 550 636 552
f 634 636 550
f 637 551 553
f 637 635 551
f 552 638 554
f 636 638 552
f 553 76 637
f 637 76 78
f 639 78 76
f 639 76 555
f 184 225 556
f 184 554 225
f 554 640 225
f 554 638 640
f 641 555 557
f 641 639 555
f 556 225 186
f 642 556 186
f 558 556 642
f 225 640 186
f 557 174 641
f 641 174 176
f 643 176 174
f 643 174 559
f 88 644 560
f 88 560 86
f 86 558 88
f 88 558 642
f 559 280 643
f 643 280 282
f 390 282 280
f 390 392 282
f 498 392 390
f 498 500 392
f 498 561 620
f 584 498 620
f 500 498 584
f 584 620 562
f 656 584 562
f 658 584 656
f 10 658 656
f 10 12 658
f 10 560 12
f 12 560 644
f 582 620 561
f 562 620 582
f 430 405 563
f 530 513 430
f 430 513 405
f 614 597 530
f 530 597 513
f 614 564 597
f 565 432 563
f 563 432 430
f 532 430 432
f 530 430 532
f 616 530 532
f 614 530 616
f 564 614 671
f 614 690 671
f 614 616 690
f 690 566 671
f 567 434 565
f 565 434 432
f 534 432 434
f 532 432 534
f 618 532 534
f 616 532 618
f 692 616 618
f 690 616 692
f 566 690 568
f 568 690 692
f 569 436 567
f 567 436 434
f 538 434 436
f 534 434 538
f 622 534 538
f 618 534 622
f 672 692 570
f 692 622 570
f 692 618 622
f 568 692 672
f 406 436 569
f 514 538 406
f 406 538 436
f 598 622 514
f 514 622 538
f 570 622 598
f 516 499 625
f 516 626 499
f 308 281 627
f 697 393 308
f 393 281 308
f 393 391 281
f 501 516 625
f 391 501 625
f 393 501 391
f 583 626 516
f 501 583 516
f 585 583 501
f 676 657 698
f 657 585 698
f 657 583 585
f 676 628 657
f 202 175 629
f 283 308 627
f 283 627 175
f 699 283 175
f 202 699 175
f 697 308 283
f 659 676 698
f 11 628 676
f 659 11 676
f 13 11 659
f 13 87 11
f 89 87 13
f 89 700 87
f 87 700 630
f 104 77 631
f 177 202 629
f 177 629 77
f 701 177 77
f 104 701 77
f 699 202 177
f 185 630 700
f 185 700 187
f 632 185 329
f 185 295 329
f 185 187 295
f 295 702 329
f 633 106 631
f 631 106 104
f 701 104 106
f 701 106 703
f 331 634 632
f 331 632 329
f 329 702 331
f 331 702 704
f 635 108 633
f 633 108 106
f 703 106 108
f 703 108 705
f 333 636 634
f 333 634 331
f 331 704 333
f 333 704 706
f 637 110 635
f 635 110 108
f 705 108 110
f 705 110 707
f 335 638 636
f 335 636 333
f 333 706 335
f 335 706 708
f 78 110 637
f 707 110 78
f 639 707 78
f 709 707 639
f 337 640 638
f 337 638 335
f 335 708 337
f 337 708 710
f 711 639 641
f 711 709 639
f 186 227 642
f 337 296 640
f 640 296 186
f 296 712 186
f 712 227 186
f 337 710 296
f 641 176 711
f 711 176 178
f 713 178 176
f 713 176 643
f 90 714 644
f 90 644 88
f 227 188 642
f 188 88 642
f 188 90 88
f 227 712 188
f 643 282 713
f 713 282 284
f 392 284 282
f 392 394 284
f 500 394 392
f 500 502 394
f 584 621 715
f 502 584 715
f 500 584 502
f 660 716 621
f 584 660 621
f 658 660 584
f 12 660 658
f 12 14 660
f 12 644 14
f 14 644 714
f 621 586 715
f 621 716 586
f 43 487 527
f 527 487 611
f 611 487 571
f 611 571 685
f 685 571 645
f 645 44 685
f 529 45 527
f 527 45 43
f 527 613 529
f 527 611 613
f 611 687 613
f 611 685 687
f 685 44 687
f 687 44 46
f 531 47 529
f 529 47 45
f 529 615 531
f 529 613 615
f 613 689 615
f 613 687 689
f 687 46 689
f 689 46 48
f 533 49 531
f 531 49 47
f 531 617 533
f 531 615 617
f 615 691 617
f 615 689 691
f 689 48 691
f 691 48 50
f 533 488 49
f 488 533 572
f 572 533 617
f 572 617 646
f 646 617 691
f 691 50 646
f 418 393 697
f 518 501 418
f 418 501 393
f 602 585 518
f 518 585 501
f 602 698 585
f 310 283 699
f 283 310 697
f 310 418 697
f 310 420 418
f 420 51 503
f 518 420 503
f 418 420 518
f 518 503 587
f 518 587 602
f 659 698 602
f 587 659 602
f 661 659 587
f 661 13 659
f 15 13 661
f 15 89 13
f 91 89 15
f 700 89 215
f 89 189 215
f 89 91 189
f 189 52 215
f 204 177 701
f 177 204 699
f 204 310 699
f 204 312 310
f 312 53 395
f 420 312 395
f 310 312 420
f 51 420 395
f 215 187 700
f 187 215 52
f 297 187 52
f 295 187 297
f 702 295 439
f 295 407 439
f 295 297 407
f 407 54 439
f 703 206 701
f 701 206 204
f 206 55 285
f 312 206 285
f 204 206 312
f 53 312 285
f 441 704 702
f 441 702 439
f 439 54 441
f 441 54 56
f 206 703 179
f 703 57 179
f 703 705 57
f 55 206 179
f 443 706 704
f 443 704 441
f 441 56 443
f 443 56 58
f 59 705 707
f 59 57 705
f 445 708 706
f 445 706 443
f 443 58 445
f 445 58 60
f 61 707 709
f 61 59 707
f 708 445 408
f 62 708 408
f 710 708 62
f 445 60 408
f 63 709 711
f 63 61 709
f 298 64 712
f 298 712 296
f 296 710 298
f 298 710 62
f 711 178 63
f 63 178 180
f 65 180 178
f 65 178 713
f 90 125 714
f 190 66 125
f 90 190 125
f 188 190 90
f 188 712 190
f 190 712 64
f 713 284 65
f 65 284 286
f 394 286 284
f 394 396 286
f 502 537 67
f 396 502 67
f 394 502 396
f 715 537 502
f 660 695 716
f 16 68 695
f 660 16 695
f 14 16 660
f 125 92 714
f 92 14 714
f 92 16 14
f 125 66 92
f 537 504 67
f 715 586 537
f 586 504 537
f 586 588 504
f 695 662 716
f 662 586 716
f 662 588 586
f 695 68 662
