# Converted from NanoShaper .vert/.face
v -10.793000 -9.823000 3.348000
v -9.411000 -9.823000 3.348000
v -11.248000 -9.823000 3.848000
v -8.995000 -9.823000 3.848000
v -11.701000 -9.823000 4.348000
v -8.762000 -9.823000 4.348000
v -12.297000 -9.823000 4.848000
v -8.696000 -9.823000 4.848000
v -12.570000 -9.823000 5.348000
v -8.718000 -9.823000 5.348000
v -12.554000 -9.823000 5.848000
v -8.936000 -9.823000 5.848000
v -12.230000 -9.823000 6.348000
v -9.561000 -9.823000 6.348000
v -11.468000 -9.823000 6.848000
v -10.646000 -9.823000 6.848000
v -12.340000 -9.823000 4.893000
v -12.340000 -9.823000 6.239000
v -11.840000 -9.823000 4.484000
v -11.840000 -9.823000 6.655000
v -11.340000 -9.823000 3.930000
v -11.340000 -9.823000 6.883000
v -10.840000 -9.823000 3.398000
v -10.840000 -9.823000 6.896000
v -10.340000 -9.823000 3.095000
v -10.340000 -9.823000 6.700000
v -9.840000 -9.823000 3.101000
v -9.840000 -9.823000 6.444000
v -9.340000 -9.823000 3.421000
v -9.340000 -9.823000 6.234000
v -8.840000 -9.823000 4.113000
v -8.840000 -9.823000 5.688000
v -12.340000 -8.207000 3.348000
v -12.340000 -6.417000 3.348000
v -11.840000 -8.694000 3.348000
v -11.840000 -6.160000 3.348000
v -11.340000 -9.293000 3.348000
v -11.340000 -6.003000 3.348000
v -10.840000 -9.788000 3.348000
v -10.840000 -5.985000 3.348000
v -10.340000 -10.018000 3.348000
v -10.340000 -5.929000 3.348000
v -9.840000 -10.017000 3.348000
v -9.840000 -5.944000 3.348000
v -9.340000 -9.769000 3.348000
v -9.340000 -6.102000 3.348000
v -8.840000 -8.934000 3.348000
v -8.840000 -6.330000 3.348000
v -10.731000 -9.323000 2.848000
v -9.440000 -9.323000 2.848000
v -11.302000 -9.323000 3.348000
v -8.997000 -9.323000 3.348000
v -11.825000 -9.323000 3.848000
v -8.802000 -9.323000 3.848000
v -12.243000 -9.323000 4.348000
v -8.669000 -9.323000 4.348000
v -12.686000 -9.323000 4.848000
v -8.660000 -9.323000 4.848000
v -12.880000 -9.323000 5.348000
v -8.736000 -9.323000 5.348000
v -12.868000 -9.323000 5.848000
v -8.914000 -9.323000 5.848000
v -12.642000 -9.323000 6.348000
v -9.419000 -9.323000 6.348000
v -11.900000 -9.323000 6.848000
v -10.408000 -9.323000 6.848000
v -12.840000 -9.323000 5.179000
v -12.840000 -9.323000 5.954000
v -12.340000 -9.323000 4.431000
v -12.340000 -9.323000 6.645000
v -11.840000 -9.323000 3.863000
v -11.840000 -9.323000 6.862000
v -11.340000 -9.323000 3.386000
v -11.340000 -9.323000 6.979000
v -10.840000 -9.323000 2.935000
v -10.840000 -9.323000 6.990000
v -10.340000 -9.323000 2.648000
v -10.340000 -9.323000 6.810000
v -9.840000 -9.323000 2.643000
v -9.840000 -9.323000 6.520000
v -9.340000 -9.323000 2.933000
v -9.340000 -9.323000 6.299000
v -8.840000 -9.323000 3.700000
v -8.840000 -9.323000 5.703000
v -12.840000 -7.921000 3.848000
v -12.840000 -6.717000 3.848000
v -12.340000 -8.791000 3.848000
v -12.340000 -6.155000 3.848000
v -11.840000 -9.312000 3.848000
v -11.840000 -5.962000 3.848000
v -11.340000 -9.757000 3.848000
v -11.340000 -5.910000 3.848000
v -10.840000 -10.180000 3.848000
v -10.840000 -5.911000 3.848000
v -10.340000 -10.504000 3.848000
v -10.340000 -5.922000 3.848000
v -9.840000 -10.515000 3.848000
v -9.840000 -5.916000 3.848000
v -9.340000 -10.257000 3.848000
v -9.340000 -5.930000 3.848000
v -8.840000 -9.441000 3.848000
v -8.840000 -6.110000 3.848000
v -8.340000 -8.361000 3.848000
v -8.340000 -6.627000 3.848000
v -10.522000 -8.823000 2.348000
v -9.636000 -8.823000 2.348000
v -11.273000 -8.823000 2.848000
v -8.999000 -8.823000 2.848000
v -11.728000 -8.823000 3.348000
v -8.794000 -8.823000 3.348000
v -12.302000 -8.823000 3.848000
v -8.615000 -8.823000 3.848000
v -12.674000 -8.823000 4.348000
v -8.549000 -8.823000 4.348000
v -12.878000 -8.823000 4.848000
v -8.646000 -8.823000 4.848000
v -12.960000 -8.823000 5.348000
v -8.754000 -8.823000 5.348000
v -12.947000 -8.823000 5.848000
v -8.951000 -8.823000 5.848000
v -12.737000 -8.823000 6.348000
v -9.506000 -8.823000 6.348000
v -12.138000 -8.823000 6.848000
v -10.641000 -8.823000 6.848000
v -12.840000 -8.823000 4.695000
v -12.840000 -8.823000 6.167000
v -12.340000 -8.823000 3.891000
v -12.340000 -8.823000 6.739000
v -11.840000 -8.823000 3.451000
v -11.840000 -8.823000 6.941000
v -11.340000 -8.823000 2.912000
v -11.340000 -8.823000 6.949000
v -10.840000 -8.823000 2.513000
v -10.840000 -8.823000 6.898000
v -10.340000 -8.823000 2.296000
v -10.340000 -8.823000 6.703000
v -9.840000 -8.823000 2.292000
v -9.840000 -8.823000 6.472000
v -9.340000 -8.823000 2.501000
v -9.340000 -8.823000 6.250000
v -8.840000 -8.823000 3.179000
v -8.840000 -8.823000 5.637000
v -12.840000 -8.441000 4.348000
v -12.840000 -6.686000 4.348000
v -12.340000 -9.245000 4.348000
v -12.340000 -6.139000 4.348000
v -11.840000 -9.717000 4.348000
v -11.840000 -5.948000 4.348000
v -11.340000 -10.196000 4.348000
v -11.340000 -5.922000 4.348000
v -10.840000 -10.763000 4.348000
v -10.840000 -5.928000 4.348000
v -10.340000 -11.000000 4.348000
v -10.340000 -5.958000 4.348000
v -9.840000 -11.002000 4.348000
v -9.840000 -5.940000 4.348000
v -9.340000 -10.771000 4.348000
v -9.340000 -5.939000 4.348000
v -8.840000 -10.006000 4.348000
v -8.840000 -6.121000 4.348000
v -8.340000 -8.390000 4.348000
v -8.340000 -6.647000 4.348000
v -11.064000 -8.323000 2.348000
v -9.395000 -8.323000 2.348000
v -11.740000 -8.323000 2.848000
v -8.879000 -8.323000 2.848000
v -12.201000 -8.323000 3.348000
v -8.553000 -8.323000 3.348000
v -12.689000 -8.323000 3.848000
v -8.325000 -8.323000 3.848000
v -12.882000 -8.323000 4.348000
v -8.312000 -8.323000 4.348000
v -12.975000 -8.323000 4.848000
v -8.504000 -8.323000 4.848000
v -12.968000 -8.323000 5.348000
v -8.773000 -8.323000 5.348000
v -12.842000 -8.323000 5.848000
v -9.047000 -8.323000 5.848000
v -12.605000 -8.323000 6.348000
v -9.721000 -8.323000 6.348000
v -12.840000 -8.323000 4.172000
v -12.840000 -8.323000 5.855000
v -12.340000 -8.323000 3.454000
v -12.340000 -8.323000 6.609000
v -11.840000 -8.323000 2.964000
v -11.840000 -8.323000 6.831000
v -11.340000 -8.323000 2.501000
v -11.340000 -8.323000 6.837000
v -10.840000 -8.323000 2.279000
v -10.840000 -8.323000 6.637000
v -10.340000 -8.323000 2.193000
v -10.340000 -8.323000 6.448000
v -9.840000 -8.323000 2.190000
v -9.840000 -8.323000 6.381000
v -9.340000 -8.323000 2.380000
v -9.340000 -8.323000 6.150000
v -8.840000 -8.323000 2.915000
v -8.840000 -8.323000 5.474000
v -8.340000 -8.323000 3.786000
v -8.340000 -8.323000 4.473000
v -12.840000 -8.926000 4.848000
v -12.840000 -7.269000 4.848000
v -12.340000 -9.789000 4.848000
v -12.340000 -6.356000 4.848000
v -11.840000 -10.199000 4.848000
v -11.840000 -6.129000 4.848000
v -11.340000 -10.553000 4.848000
v -11.340000 -6.123000 4.848000
v -10.840000 -10.977000 4.848000
v -10.840000 -6.146000 4.848000
v -10.340000 -11.177000 4.848000
v -10.340000 -6.165000 4.848000
v -9.840000 -11.178000 4.848000
v -9.840000 -6.146000 4.848000
v -9.340000 -10.983000 4.848000
v -9.340000 -6.149000 4.848000
v -8.840000 -10.422000 4.848000
v -8.840000 -6.371000 4.848000
v -11.464000 -7.823000 2.348000
v -9.386000 -7.823000 2.348000
v -12.143000 -7.823000 2.848000
v -8.866000 -7.823000 2.848000
v -12.644000 -7.823000 3.348000
v -8.437000 -7.823000 3.348000
v -12.877000 -7.823000 3.848000
v -8.232000 -7.823000 3.848000
v -12.964000 -7.823000 4.348000
v -8.222000 -7.823000 4.348000
v -12.952000 -7.823000 4.848000
v -8.403000 -7.823000 4.848000
v -12.878000 -7.823000 5.348000
v -8.862000 -7.823000 5.348000
v -12.657000 -7.823000 5.848000
v -9.430000 -7.823000 5.848000
v -12.115000 -7.823000 6.348000
v -11.045000 -7.823000 6.348000
v -12.840000 -7.823000 3.718000
v -12.840000 -7.823000 5.491000
v -12.340000 -7.823000 3.053000
v -12.340000 -7.823000 6.187000
v -11.840000 -7.823000 2.540000
v -11.840000 -7.823000 6.467000
v -11.340000 -7.823000 2.313000
v -11.340000 -7.823000 6.475000
v -10.840000 -7.823000 2.196000
v -10.840000 -7.823000 6.226000
v -10.340000 -7.823000 2.177000
v -10.340000 -7.823000 6.102000
v -9.840000 -7.823000 2.186000
v -9.840000 -7.823000 6.062000
v -9.340000 -7.823000 2.375000
v -9.340000 -7.823000 5.783000
v -8.840000 -7.823000 2.881000
v -8.840000 -7.823000 5.328000
v -8.340000 -7.823000 3.520000
v -8.340000 -7.823000 4.729000
v -12.840000 -9.423000 5.348000
v -12.840000 -7.732000 5.348000
v -12.340000 -10.015000 5.348000
v -12.340000 -6.977000 5.348000
v -11.840000 -10.452000 5.348000
v -11.840000 -6.647000 5.348000
v -11.340000 -10.686000 5.348000
v -11.340000 -6.611000 5.348000
v -10.840000 -10.955000 5.348000
v -10.840000 -6.659000 5.348000
v -10.340000 -11.158000 5.348000
v -10.340000 -6.710000 5.348000
v -9.840000 -11.160000 5.348000
v -9.840000 -6.734000 5.348000
v -9.340000 -10.961000 5.348000
v -9.340000 -6.759000 5.348000
v -8.840000 -10.380000 5.348000
v -8.840000 -7.907000 5.348000
v -11.681000 -7.323000 2.348000
v -9.507000 -7.323000 2.348000
v -12.258000 -7.323000 2.848000
v -8.861000 -7.323000 2.848000
v -12.763000 -7.323000 3.348000
v -8.352000 -7.323000 3.348000
v -12.976000 -7.323000 3.848000
v -8.168000 -7.323000 3.848000
v -12.989000 -7.323000 4.348000
v -8.177000 -7.323000 4.348000
v -12.854000 -7.323000 4.848000
v -8.384000 -7.323000 4.848000
v -12.616000 -7.323000 5.348000
v -8.959000 -7.323000 5.348000
v -12.220000 -7.323000 5.848000
v -10.771000 -7.323000 5.848000
v -12.840000 -7.323000 3.475000
v -12.840000 -7.323000 4.888000
v -12.340000 -7.323000 2.927000
v -12.340000 -7.323000 5.732000
v -11.840000 -7.323000 2.440000
v -11.840000 -7.323000 6.039000
v -11.340000 -7.323000 2.231000
v -11.340000 -7.323000 6.037000
v -10.840000 -7.323000 2.194000
v -10.840000 -7.323000 5.872000
v -10.340000 -7.323000 2.193000
v -10.340000 -7.323000 5.700000
v -9.840000 -7.323000 2.232000
v -9.840000 -7.323000 5.618000
v -9.340000 -7.323000 2.445000
v -9.340000 -7.323000 5.516000
v -8.840000 -7.323000 2.862000
v -8.840000 -7.323000 5.279000
v -8.340000 -7.323000 3.368000
v -8.340000 -7.323000 4.777000
v -12.840000 -9.394000 5.848000
v -12.840000 -8.316000 5.848000
v -12.340000 -10.002000 5.848000
v -12.340000 -7.410000 5.848000
v -11.840000 -10.456000 5.848000
v -11.840000 -7.168000 5.848000
v -11.340000 -10.671000 5.848000
v -11.340000 -7.142000 5.848000
v -10.840000 -10.772000 5.848000
v -10.840000 -7.277000 5.848000
v -10.340000 -10.935000 5.848000
v -10.340000 -7.521000 5.848000
v -9.840000 -10.937000 5.848000
v -9.840000 -7.622000 5.848000
v -9.340000 -10.689000 5.848000
v -9.340000 -7.904000 5.848000
v -10.758000 -10.823000 4.348000
v -9.413000 -10.823000 4.348000
v -11.036000 -10.823000 4.848000
v -9.135000 -10.823000 4.848000
v -11.058000 -10.823000 5.348000
v -9.161000 -10.823000 5.348000
v -10.672000 -10.823000 5.848000
v -9.534000 -10.823000 5.848000
v -11.387000 -6.823000 2.348000
v -9.718000 -6.823000 2.348000
v -12.121000 -6.823000 2.848000
v -9.004000 -6.823000 2.848000
v -12.655000 -6.823000 3.348000
v -8.449000 -6.823000 3.348000
v -12.886000 -6.823000 3.848000
v -8.251000 -6.823000 3.848000
v -12.900000 -6.823000 4.348000
v -8.261000 -6.823000 4.348000
v -12.707000 -6.823000 4.848000
v -8.484000 -6.823000 4.848000
v -12.164000 -6.823000 5.348000
v -9.220000 -6.823000 5.348000
v -10.840000 -10.823000 4.437000
v -10.840000 -10.823000 5.733000
v -10.340000 -10.823000 4.111000
v -10.340000 -10.823000 5.986000
v -9.840000 -10.823000 4.109000
v -9.840000 -10.823000 5.988000
v -9.340000 -10.823000 4.426000
v -9.340000 -10.823000 5.671000
v -12.840000 -6.823000 3.692000
v -12.840000 -6.823000 4.580000
v -12.340000 -6.823000 3.047000
v -12.340000 -6.823000 5.232000
v -11.840000 -6.823000 2.567000
v -11.840000 -6.823000 5.479000
v -11.340000 -6.823000 2.337000
v -11.340000 -6.823000 5.548000
v -10.840000 -6.823000 2.304000
v -10.840000 -6.823000 5.530000
v -10.340000 -6.823000 2.291000
v -10.340000 -6.823000 5.419000
v -9.840000 -6.823000 2.314000
v -9.840000 -6.823000 5.385000
v -9.340000 -6.823000 2.545000
v -9.340000 -6.823000 5.373000
v -8.840000 -6.823000 2.962000
v -8.840000 -6.823000 5.183000
v -8.340000 -6.823000 3.549000
v -8.340000 -6.823000 4.595000
v -11.340000 -7.927000 2.348000
v -11.340000 -6.797000 2.348000
v -10.840000 -8.490000 2.348000
v -10.840000 -6.730000 2.348000
v -10.340000 -8.934000 2.348000
v -10.340000 -6.694000 2.348000
v -9.840000 -8.943000 2.348000
v -9.840000 -6.739000 2.348000
v -12.340000 -9.737000 6.348000
v -12.340000 -7.987000 6.348000
v -11.840000 -10.215000 6.348000
v -11.840000 -7.702000 6.348000
v -11.340000 -10.475000 6.348000
v -11.340000 -7.699000 6.348000
v -10.840000 -10.490000 6.348000
v -10.840000 -7.939000 6.348000
v -10.340000 -10.406000 6.348000
v -10.340000 -8.138000 6.348000
v -9.840000 -10.274000 6.348000
v -9.840000 -8.241000 6.348000
v -10.676000 -10.323000 3.848000
v -9.432000 -10.323000 3.848000
v -11.217000 -10.323000 4.348000
v -8.985000 -10.323000 4.348000
v -11.673000 -10.323000 4.848000
v -8.796000 -10.323000 4.848000
v -12.000000 -10.323000 5.348000
v -8.816000 -10.323000 5.348000
v -12.005000 -10.323000 5.848000
v -9.055000 -10.323000 5.848000
v -11.696000 -10.323000 6.348000
v -9.968000 -10.323000 6.348000
v -11.638000 -6.323000 2.848000
v -9.456000 -6.323000 2.848000
v -12.207000 -6.323000 3.348000
v -8.850000 -6.323000 3.348000
v -12.554000 -6.323000 3.848000
v -8.568000 -6.323000 3.848000
v -12.574000 -6.323000 4.348000
v -8.581000 -6.323000 4.348000
v -12.295000 -6.323000 4.848000
v -8.908000 -6.323000 4.848000
v -11.840000 -10.323000 5.022000
v -11.840000 -10.323000 6.193000
v -11.340000 -10.323000 4.512000
v -11.340000 -10.323000 6.543000
v -10.840000 -10.323000 3.970000
v -10.840000 -10.323000 6.561000
v -10.340000 -10.323000 3.685000
v -10.340000 -10.323000 6.408000
v -9.840000 -10.323000 3.662000
v -9.840000 -10.323000 6.330000
v -9.340000 -10.323000 3.922000
v -9.340000 -10.323000 6.119000
v -8.840000 -10.323000 4.660000
v -8.840000 -10.323000 5.437000
v -12.340000 -6.323000 3.470000
v -12.340000 -6.323000 4.801000
v -11.840000 -6.323000 3.054000
v -11.840000 -6.323000 5.099000
v -11.340000 -6.323000 2.694000
v -11.340000 -6.323000 5.096000
v -10.840000 -6.323000 2.663000
v -10.840000 -6.323000 5.054000
v -10.340000 -6.323000 2.611000
v -10.340000 -6.323000 5.042000
v -9.840000 -6.323000 2.632000
v -9.840000 -6.323000 5.064000
v -9.340000 -6.323000 2.968000
v -9.340000 -6.323000 5.057000
v -8.840000 -6.323000 3.358000
v -8.840000 -6.323000 4.787000
v -11.840000 -8.236000 2.848000
v -11.840000 -6.466000 2.848000
v -11.340000 -8.770000 2.848000
v -11.340000 -6.205000 2.848000
v -10.840000 -9.233000 2.848000
v -10.840000 -6.184000 2.848000
v -10.340000 -9.525000 2.848000
v -10.340000 -6.129000 2.848000
v -9.840000 -9.523000 2.848000
v -9.840000 -6.147000 2.848000
v -9.340000 -9.247000 2.848000
v -9.340000 -6.415000 2.848000
v -11.840000 -9.365000 6.848000
v -11.840000 -8.364000 6.848000
v -11.340000 -9.905000 6.848000
v -11.340000 -8.350000 6.848000
v -10.840000 -9.932000 6.848000
v -10.840000 -8.709000 6.848000
f 85 225 237
f 237 225 291
f 291 225 281
f 291 281 357
f 357 281 341
f 341 86 357
f 87 169 183
f 85 237 169
f 169 237 183
f 237 223 183
f 223 33 183
f 291 279 223
f 291 223 237
f 357 339 279
f 357 279 291
f 86 413 433
f 86 433 34
f 357 86 34
f 339 357 34
f 413 88 433
f 89 111 129
f 87 183 111
f 111 183 129
f 183 167 129
f 167 35 129
f 183 33 167
f 433 411 34
f 433 88 411
f 88 36 411
f 88 90 36
f 91 53 73
f 89 129 53
f 53 129 73
f 129 109 73
f 109 37 73
f 129 35 109
f 36 92 38
f 90 92 36
f 93 3 23
f 91 73 3
f 3 73 23
f 73 51 23
f 51 39 23
f 73 37 51
f 38 94 40
f 92 94 38
f 95 397 425
f 93 23 397
f 397 23 425
f 23 1 425
f 1 41 425
f 23 39 1
f 40 96 42
f 94 96 40
f 427 97 425
f 425 97 95
f 425 41 43
f 425 43 427
f 42 98 44
f 96 98 42
f 427 398 97
f 29 99 2
f 2 99 43
f 99 398 43
f 398 427 43
f 45 29 2
f 44 100 46
f 98 100 44
f 29 4 99
f 83 101 52
f 52 101 45
f 101 4 45
f 4 29 45
f 47 83 52
f 412 447 48
f 412 46 447
f 46 102 447
f 46 100 102
f 83 54 101
f 47 110 83
f 110 54 83
f 110 112 54
f 168 199 103
f 112 168 103
f 110 168 112
f 224 255 199
f 224 199 168
f 280 309 255
f 280 255 224
f 340 375 309
f 340 309 280
f 447 414 48
f 48 414 340
f 414 104 340
f 104 375 340
f 447 102 414
f 199 170 103
f 170 199 226
f 226 199 255
f 226 255 282
f 282 255 309
f 282 309 342
f 342 309 375
f 375 104 342
f 143 171 181
f 181 171 85
f 171 225 85
f 171 227 225
f 227 281 225
f 283 281 227
f 283 341 281
f 343 341 283
f 343 144 341
f 341 144 86
f 145 113 127
f 143 181 113
f 113 181 127
f 181 169 127
f 169 87 127
f 181 85 169
f 413 86 144
f 413 144 415
f 415 146 413
f 413 146 88
f 147 55 71
f 145 127 55
f 55 127 71
f 127 111 71
f 111 89 71
f 127 87 111
f 88 148 90
f 146 148 88
f 149 5 21
f 147 71 5
f 5 71 21
f 71 53 21
f 53 91 21
f 71 89 53
f 90 150 92
f 148 150 90
f 151 399 423
f 149 21 399
f 399 21 423
f 21 3 423
f 3 93 423
f 21 91 3
f 92 152 94
f 150 152 92
f 153 327 351
f 151 423 327
f 327 423 351
f 423 397 351
f 397 95 351
f 423 93 397
f 94 154 96
f 152 154 94
f 353 155 351
f 351 155 153
f 351 95 97
f 351 97 353
f 96 156 98
f 154 156 96
f 353 328 155
f 429 157 398
f 398 157 97
f 157 328 97
f 328 353 97
f 99 429 398
f 98 158 100
f 156 158 98
f 429 400 157
f 31 159 4
f 4 159 99
f 159 400 99
f 400 429 99
f 101 31 4
f 100 160 102
f 158 160 100
f 31 6 159
f 101 54 31
f 54 6 31
f 54 56 6
f 112 56 54
f 112 114 56
f 161 114 112
f 161 112 103
f 416 162 104
f 416 104 414
f 414 102 416
f 416 102 160
f 103 170 161
f 161 170 172
f 226 172 170
f 226 228 172
f 282 228 226
f 282 284 228
f 342 284 282
f 342 344 284
f 342 104 344
f 344 104 162
f 201 115 125
f 125 115 143
f 115 171 143
f 115 173 171
f 173 227 171
f 229 227 173
f 229 283 227
f 285 283 229
f 358 343 202
f 343 285 202
f 343 283 285
f 358 144 343
f 203 57 69
f 201 125 57
f 57 125 69
f 125 113 69
f 113 145 69
f 125 143 113
f 345 358 202
f 204 434 415
f 204 415 144
f 345 204 144
f 358 345 144
f 434 146 415
f 205 7 19
f 203 69 7
f 7 69 19
f 69 55 19
f 55 147 19
f 69 145 55
f 417 434 204
f 417 206 434
f 206 146 434
f 206 148 146
f 207 401 421
f 205 19 401
f 401 19 421
f 19 5 421
f 5 149 421
f 19 147 5
f 148 208 150
f 206 208 148
f 209 329 349
f 207 421 329
f 329 421 349
f 421 399 349
f 399 151 349
f 421 149 399
f 150 210 152
f 208 210 150
f 327 153 349
f 153 209 349
f 153 211 209
f 349 151 327
f 152 212 154
f 210 212 152
f 213 153 155
f 213 211 153
f 154 214 156
f 212 214 154
f 355 215 328
f 215 155 328
f 215 213 155
f 157 355 328
f 156 216 158
f 214 216 156
f 355 330 215
f 431 217 400
f 400 217 157
f 217 330 157
f 330 355 157
f 159 431 400
f 418 218 448
f 448 160 418
f 160 216 418
f 160 158 216
f 431 402 217
f 159 6 431
f 6 402 431
f 6 8 402
f 56 8 6
f 56 58 8
f 114 58 56
f 114 116 58
f 114 161 200
f 174 114 200
f 116 114 174
f 174 200 256
f 174 256 230
f 230 256 310
f 230 310 286
f 286 310 376
f 286 376 346
f 448 218 346
f 448 346 376
f 416 448 376
f 162 416 376
f 160 448 416
f 172 200 161
f 228 256 172
f 172 256 200
f 284 310 228
f 228 310 256
f 344 376 284
f 284 376 310
f 162 376 344
f 257 59 67
f 67 59 201
f 59 115 201
f 59 117 115
f 117 173 115
f 175 173 117
f 175 229 173
f 231 229 175
f 292 285 258
f 285 231 258
f 285 229 231
f 292 202 285
f 259 9 17
f 257 67 9
f 9 67 17
f 67 57 17
f 57 203 17
f 67 201 57
f 287 292 258
f 260 360 345
f 260 345 202
f 287 260 202
f 292 287 202
f 360 204 345
f 261 403 419
f 259 17 403
f 403 17 419
f 17 7 419
f 7 205 419
f 17 203 7
f 347 360 260
f 262 436 417
f 262 417 204
f 347 262 204
f 360 347 204
f 436 206 417
f 401 207 419
f 207 261 419
f 207 263 261
f 419 205 401
f 264 438 436
f 264 436 262
f 206 436 208
f 208 436 438
f 265 331 209
f 209 331 329
f 207 329 331
f 207 331 263
f 266 440 438
f 266 438 264
f 208 438 210
f 210 438 440
f 267 209 211
f 267 265 209
f 268 442 440
f 268 440 266
f 210 440 212
f 212 440 442
f 269 211 213
f 269 267 211
f 270 444 442
f 270 442 268
f 212 442 214
f 214 442 444
f 271 213 215
f 271 269 213
f 272 446 444
f 272 444 270
f 214 444 216
f 216 444 446
f 215 330 271
f 271 330 332
f 273 332 330
f 273 330 217
f 232 274 254
f 232 254 308
f 232 308 288
f 288 308 374
f 288 374 348
f 446 272 348
f 446 348 374
f 418 446 374
f 218 418 374
f 216 446 418
f 217 402 273
f 273 402 404
f 8 404 402
f 8 10 404
f 58 10 8
f 58 60 10
f 116 60 58
f 116 118 60
f 174 118 116
f 174 176 118
f 274 176 254
f 176 230 254
f 176 174 230
f 286 308 230
f 230 308 254
f 346 374 286
f 286 374 308
f 218 374 346
f 311 61 257
f 257 61 59
f 61 117 59
f 119 117 61
f 119 175 117
f 177 175 119
f 238 231 312
f 231 177 312
f 231 175 177
f 238 258 231
f 313 11 259
f 259 11 9
f 257 9 11
f 257 11 311
f 233 238 312
f 314 294 287
f 314 287 258
f 233 314 258
f 238 233 258
f 294 260 287
f 315 405 261
f 261 405 403
f 259 403 405
f 259 405 313
f 289 294 314
f 316 362 347
f 316 347 260
f 289 316 260
f 294 289 260
f 362 262 347
f 317 261 263
f 317 315 261
f 318 364 362
f 318 362 316
f 262 362 264
f 264 362 364
f 350 331 265
f 263 331 350
f 319 263 350
f 317 263 319
f 320 366 364
f 320 364 318
f 264 364 266
f 266 364 366
f 350 265 333
f 265 321 333
f 265 267 321
f 319 350 333
f 290 322 302
f 366 320 290
f 302 366 290
f 368 366 302
f 266 366 268
f 268 366 368
f 323 267 269
f 323 321 267
f 324 304 302
f 324 302 322
f 370 302 304
f 368 302 370
f 268 368 270
f 270 368 370
f 334 323 356
f 323 271 356
f 323 269 271
f 325 334 356
f 234 326 252
f 304 324 234
f 252 304 234
f 306 304 252
f 372 304 306
f 370 304 372
f 270 370 272
f 272 370 372
f 332 356 271
f 406 325 432
f 432 325 273
f 325 356 273
f 356 332 273
f 406 432 32
f 406 32 12
f 12 32 84
f 12 84 62
f 62 84 142
f 62 142 120
f 120 142 198
f 120 198 178
f 252 326 178
f 252 178 198
f 232 252 198
f 274 232 198
f 288 306 232
f 232 306 252
f 348 372 288
f 288 372 306
f 272 372 348
f 404 432 273
f 10 32 404
f 404 32 432
f 60 84 10
f 10 84 32
f 118 142 60
f 60 142 84
f 176 198 118
f 118 198 142
f 274 198 176
f 377 219 243
f 243 219 297
f 297 219 275
f 297 275 363
f 363 275 335
f 335 378 363
f 379 163 189
f 377 243 163
f 243 189 163
f 243 245 189
f 243 299 245
f 243 297 299
f 297 365 299
f 297 363 365
f 363 378 365
f 365 378 380
f 381 105 135
f 379 189 105
f 189 135 105
f 189 191 135
f 189 247 191
f 189 245 247
f 245 301 247
f 245 299 301
f 299 367 301
f 299 365 367
f 365 380 367
f 367 380 382
f 137 383 135
f 135 383 381
f 135 193 137
f 135 191 193
f 191 249 193
f 191 247 249
f 247 303 249
f 247 301 303
f 301 369 303
f 301 367 369
f 367 382 369
f 369 382 384
f 137 106 383
f 106 137 164
f 164 137 193
f 164 193 220
f 220 193 249
f 220 249 276
f 276 249 303
f 276 303 336
f 336 303 369
f 369 384 336
f 68 61 311
f 126 119 68
f 68 119 61
f 182 177 126
f 126 177 119
f 182 312 177
f 18 11 313
f 63 68 311
f 63 311 11
f 385 63 11
f 18 385 11
f 68 63 121
f 68 121 126
f 126 121 179
f 126 179 182
f 386 240 233
f 386 233 312
f 179 386 312
f 182 179 312
f 240 314 233
f 420 405 315
f 13 18 313
f 13 313 405
f 387 13 405
f 420 387 405
f 385 18 13
f 235 240 386
f 388 296 289
f 388 289 314
f 235 388 314
f 240 235 314
f 296 316 289
f 420 315 407
f 315 389 407
f 315 317 389
f 387 420 407
f 390 298 296
f 390 296 388
f 316 296 318
f 318 296 298
f 391 317 319
f 391 389 317
f 236 392 246
f 298 390 236
f 246 298 236
f 300 298 246
f 318 298 320
f 320 298 300
f 352 333 321
f 319 333 352
f 393 319 352
f 391 319 393
f 394 248 246
f 394 246 392
f 290 300 322
f 300 248 322
f 300 246 248
f 320 300 290
f 323 354 321
f 321 354 352
f 428 408 393
f 352 428 393
f 354 428 352
f 395 408 428
f 396 250 248
f 396 248 394
f 322 248 324
f 324 248 250
f 334 354 323
f 325 430 334
f 430 354 334
f 430 428 354
f 30 14 395
f 428 30 395
f 430 30 428
f 14 30 82
f 14 82 64
f 64 82 140
f 64 140 122
f 122 140 196
f 122 196 180
f 250 396 180
f 250 180 196
f 234 250 196
f 326 234 196
f 324 250 234
f 406 430 325
f 12 30 406
f 406 30 430
f 62 82 12
f 12 82 30
f 120 140 62
f 62 140 82
f 178 196 120
f 120 196 140
f 326 196 178
f 449 221 241
f 241 221 295
f 295 221 277
f 295 277 361
f 361 277 337
f 337 450 361
f 451 165 187
f 449 241 165
f 165 241 187
f 241 219 187
f 219 377 187
f 295 275 219
f 295 219 241
f 361 335 275
f 361 275 295
f 450 409 437
f 450 437 378
f 361 450 378
f 335 361 378
f 409 452 437
f 453 107 133
f 451 187 107
f 107 187 133
f 187 163 133
f 163 379 133
f 187 377 163
f 439 380 378
f 439 378 437
f 437 452 439
f 439 452 454
f 455 49 77
f 453 133 49
f 49 133 77
f 133 105 77
f 105 381 77
f 133 379 105
f 441 382 380
f 441 380 439
f 439 454 441
f 441 454 456
f 79 457 77
f 77 457 455
f 77 381 383
f 77 383 79
f 443 384 382
f 443 382 441
f 441 456 443
f 443 456 458
f 79 50 457
f 139 459 106
f 106 459 383
f 459 50 383
f 50 79 383
f 164 195 139
f 164 139 106
f 220 251 195
f 220 195 164
f 276 305 251
f 276 251 220
f 336 371 305
f 336 305 276
f 443 410 384
f 384 410 336
f 410 460 336
f 460 371 336
f 443 458 410
f 139 108 459
f 108 139 166
f 166 139 195
f 166 195 222
f 222 195 251
f 222 251 278
f 278 251 305
f 278 305 338
f 338 305 371
f 371 460 338
f 70 63 385
f 128 121 70
f 70 121 63
f 184 179 128
f 128 179 121
f 184 386 179
f 20 13 387
f 65 70 385
f 65 385 13
f 461 65 13
f 20 461 13
f 70 65 123
f 70 123 128
f 128 123 462
f 186 128 462
f 184 128 186
f 386 184 235
f 184 242 235
f 184 186 242
f 242 388 235
f 422 407 389
f 15 20 387
f 15 387 407
f 463 15 407
f 422 463 407
f 461 20 15
f 464 188 186
f 464 186 462
f 244 186 188
f 242 186 244
f 388 242 390
f 390 242 244
f 391 424 389
f 389 424 422
f 463 422 424
f 463 424 465
f 466 190 188
f 466 188 464
f 236 244 392
f 244 190 392
f 244 188 190
f 390 244 236
f 393 426 391
f 391 426 424
f 26 16 465
f 424 26 465
f 426 26 424
f 16 26 78
f 16 78 66
f 66 78 136
f 66 136 124
f 190 466 124
f 136 190 124
f 192 190 136
f 392 190 394
f 394 190 192
f 408 426 393
f 395 28 408
f 28 426 408
f 28 26 426
f 80 26 28
f 78 26 80
f 138 78 80
f 136 78 138
f 194 136 138
f 192 136 194
f 394 192 396
f 396 192 194
f 14 28 395
f 64 80 14
f 14 80 28
f 122 138 64
f 64 138 80
f 180 194 122
f 122 194 138
f 396 194 180
f 33 223 239
f 239 223 293
f 293 223 279
f 293 279 359
f 359 279 339
f 339 34 359
f 35 167 185
f 33 239 167
f 167 239 185
f 239 221 185
f 221 449 185
f 293 277 221
f 293 221 239
f 359 337 277
f 359 277 293
f 34 411 435
f 34 435 450
f 359 34 450
f 337 359 450
f 411 36 435
f 37 109 131
f 35 185 109
f 109 185 131
f 185 165 131
f 165 451 131
f 185 449 165
f 435 409 450
f 435 36 409
f 36 452 409
f 36 38 452
f 39 51 75
f 37 131 51
f 51 131 75
f 131 107 75
f 107 453 75
f 131 451 107
f 452 40 454
f 38 40 452
f 41 1 25
f 39 75 1
f 1 75 25
f 75 49 25
f 49 455 25
f 75 453 49
f 454 42 456
f 40 42 454
f 27 43 25
f 25 43 41
f 25 455 457
f 25 457 27
f 456 44 458
f 42 44 456
f 27 2 43
f 81 45 50
f 50 45 457
f 45 2 457
f 2 27 457
f 459 81 50
f 410 445 460
f 410 458 445
f 458 46 445
f 458 44 46
f 81 52 45
f 141 47 108
f 108 47 459
f 47 52 459
f 52 81 459
f 166 197 141
f 166 141 108
f 222 253 197
f 222 197 166
f 278 307 253
f 278 253 222
f 338 373 307
f 338 307 278
f 445 412 460
f 460 412 338
f 412 48 338
f 48 373 338
f 445 46 412
f 141 110 47
f 110 141 168
f 168 141 197
f 168 197 224
f 224 197 253
f 224 253 280
f 280 253 307
f 280 307 340
f 340 307 373
f 373 48 340
f 72 65 461
f 130 123 72
f 72 123 65
f 130 462 123
f 22 15 463
f 15 22 461
f 22 72 461
f 22 74 72
f 132 72 74
f 130 72 132
f 462 130 464
f 464 130 132
f 465 24 463
f 463 24 22
f 76 22 24
f 74 22 76
f 134 74 76
f 132 74 134
f 464 132 466
f 466 132 134
f 16 24 465
f 66 76 16
f 16 76 24
f 124 134 66
f 66 134 76
f 466 134 124
