# Converted from NanoShaper .vert/.face
v -0.728000 20.899000 -6.404000
v 0.980000 20.899000 -6.404000
v -1.250000 20.899000 -5.904000
v 3.019000 20.899000 -5.904000
v -1.408000 20.899000 -5.404000
v 3.347000 20.899000 -5.404000
v -1.401000 20.899000 -4.904000
v 3.440000 20.899000 -4.904000
v -1.301000 20.899000 -4.404000
v 3.396000 20.899000 -4.404000
v -1.170000 20.899000 -3.904000
v 3.400000 20.899000 -3.904000
v -0.797000 20.899000 -3.404000
v 3.282000 20.899000 -3.404000
v 1.295000 20.899000 -2.904000
v 2.876000 20.899000 -2.904000
v -1.172000 20.899000 -6.008000
v -1.172000 20.899000 -3.908000
v -0.672000 20.899000 -6.444000
v -0.672000 20.899000 -3.301000
v -0.172000 20.899000 -6.666000
v -0.172000 20.899000 -3.077000
v 0.328000 20.899000 -6.672000
v 0.328000 20.899000 -3.051000
v 0.828000 20.899000 -6.473000
v 0.828000 20.899000 -3.030000
v 1.328000 20.899000 -6.306000
v 1.328000 20.899000 -2.889000
v 1.828000 20.899000 -6.289000
v 1.828000 20.899000 -2.678000
v 2.328000 20.899000 -6.273000
v 2.328000 20.899000 -2.668000
v 2.828000 20.899000 -6.060000
v 2.828000 20.899000 -2.870000
v 3.328000 20.899000 -5.452000
v 3.328000 20.899000 -3.517000
v -2.172000 18.326000 -3.404000
v -2.172000 19.391000 -3.404000
v -1.672000 17.963000 -3.404000
v -1.672000 20.063000 -3.404000
v -1.172000 17.953000 -3.404000
v -1.172000 20.408000 -3.404000
v -0.672000 18.276000 -3.404000
v -0.672000 21.087000 -3.404000
v -0.172000 18.753000 -3.404000
v -0.172000 21.412000 -3.404000
v 0.328000 19.277000 -3.404000
v 0.328000 21.441000 -3.404000
v 0.828000 19.393000 -3.404000
v 0.828000 21.429000 -3.404000
v 1.328000 19.284000 -3.404000
v 1.328000 21.477000 -3.404000
v 1.828000 19.115000 -3.404000
v 1.828000 21.637000 -3.404000
v 2.328000 19.105000 -3.404000
v 2.328000 21.646000 -3.404000
v 2.828000 19.309000 -3.404000
v 2.828000 21.443000 -3.404000
v 3.328000 19.971000 -3.404000
v 3.328000 20.780000 -3.404000
v -2.107000 17.399000 -6.404000
v -1.644000 17.399000 -6.404000
v -2.762000 17.399000 -5.904000
v -0.989000 17.399000 -5.904000
v -2.884000 17.399000 -5.404000
v -0.867000 17.399000 -5.404000
v -2.927000 17.399000 -4.904000
v -0.891000 17.399000 -4.904000
v -2.793000 17.399000 -4.404000
v -1.023000 17.399000 -4.404000
v -0.718000 21.399000 -5.904000
v 2.874000 21.399000 -5.904000
v -0.866000 21.399000 -5.404000
v 3.243000 21.399000 -5.404000
v -0.900000 21.399000 -4.904000
v 3.343000 21.399000 -4.904000
v -0.909000 21.399000 -4.404000
v 3.244000 21.399000 -4.404000
v -0.797000 21.399000 -3.904000
v 3.076000 21.399000 -3.904000
v -0.213000 21.399000 -3.404000
v 2.889000 21.399000 -3.404000
v -2.672000 17.399000 -6.041000
v -2.672000 17.399000 -4.235000
v -2.172000 17.399000 -6.386000
v -2.172000 17.399000 -3.925000
v -1.672000 17.399000 -6.410000
v -1.672000 17.399000 -3.919000
v -1.172000 17.399000 -6.146000
v -1.172000 17.399000 -4.200000
v -0.672000 21.399000 -5.970000
v -0.672000 21.399000 -3.716000
v -0.172000 21.399000 -6.314000
v -0.172000 21.399000 -3.392000
v 0.328000 21.399000 -6.322000
v 0.328000 21.399000 -3.362000
v 0.828000 21.399000 -6.130000
v 0.828000 21.399000 -3.371000
v 1.328000 21.399000 -6.098000
v 1.328000 21.399000 -3.291000
v 1.828000 21.399000 -6.189000
v 1.828000 21.399000 -3.031000
v 2.328000 21.399000 -6.174000
v 2.328000 21.399000 -3.018000
v 2.828000 21.399000 -5.941000
v 2.828000 21.399000 -3.325000
v 3.328000 21.399000 -5.101000
v 3.328000 21.399000 -4.705000
v 1.328000 19.835000 -2.904000
v 1.328000 20.931000 -2.904000
v 1.828000 19.483000 -2.904000
v 1.828000 21.269000 -2.904000
v 2.328000 19.469000 -2.904000
v 2.328000 21.282000 -2.904000
v 2.828000 19.787000 -2.904000
v 2.828000 20.964000 -2.904000
v -2.755000 17.899000 -6.404000
v -0.986000 17.899000 -6.404000
v -3.103000 17.899000 -5.904000
v -0.529000 17.899000 -5.904000
v -3.194000 17.899000 -5.404000
v -0.358000 17.899000 -5.404000
v -3.231000 17.899000 -4.904000
v -0.357000 17.899000 -4.904000
v -3.131000 17.899000 -4.404000
v -0.379000 17.899000 -4.404000
v -2.768000 17.899000 -3.904000
v -0.540000 17.899000 -3.904000
v 1.152000 21.899000 -5.404000
v 2.867000 21.899000 -5.404000
v 0.876000 21.899000 -4.904000
v 3.007000 21.899000 -4.904000
v 1.045000 21.899000 -4.404000
v 2.868000 21.899000 -4.404000
v -3.172000 17.899000 -5.659000
v -3.172000 17.899000 -4.519000
v -2.672000 17.899000 -6.473000
v -2.672000 17.899000 -3.829000
v -2.172000 17.899000 -6.707000
v -2.172000 17.899000 -3.607000
v -1.672000 17.899000 -6.725000
v -1.672000 17.899000 -3.463000
v -1.172000 17.899000 -6.538000
v -1.172000 17.899000 -3.453000
v -0.672000 17.899000 -6.090000
v -0.672000 17.899000 -3.736000
v 1.328000 21.899000 -5.576000
v 1.328000 21.899000 -4.180000
v 1.828000 21.899000 -5.847000
v 1.828000 21.899000 -3.948000
v 2.328000 21.899000 -5.827000
v 2.328000 21.899000 -3.965000
v 2.828000 21.899000 -5.464000
v 2.828000 21.899000 -4.342000
v -2.672000 17.769000 -6.404000
v -2.672000 18.971000 -6.404000
v -2.172000 17.417000 -6.404000
v -2.172000 19.585000 -6.404000
v -1.672000 17.393000 -6.404000
v -1.672000 20.105000 -6.404000
v -1.172000 17.661000 -6.404000
v -1.172000 20.485000 -6.404000
v -0.672000 18.201000 -6.404000
v -0.672000 20.973000 -6.404000
v -0.172000 18.474000 -6.404000
v -0.172000 21.310000 -6.404000
v 0.328000 18.780000 -6.404000
v 0.328000 21.318000 -6.404000
v 0.828000 19.259000 -6.404000
v 0.828000 21.041000 -6.404000
v -2.873000 18.399000 -6.404000
v -0.379000 18.399000 -6.404000
v -3.190000 18.399000 -5.904000
v 0.411000 18.399000 -5.904000
v -3.275000 18.399000 -5.404000
v 0.556000 18.399000 -5.404000
v -3.309000 18.399000 -4.904000
v 0.510000 18.399000 -4.904000
v -3.215000 18.399000 -4.404000
v 0.358000 18.399000 -4.404000
v -2.883000 18.399000 -3.904000
v -0.074000 18.399000 -3.904000
v -2.218000 18.399000 -3.404000
v -0.571000 18.399000 -3.404000
v -3.172000 18.399000 -5.949000
v -3.172000 18.399000 -4.306000
v -2.672000 18.399000 -6.573000
v -2.672000 18.399000 -3.735000
v -2.172000 18.399000 -6.790000
v -2.172000 18.399000 -3.370000
v -1.672000 18.399000 -6.808000
v -1.672000 18.399000 -3.151000
v -1.172000 18.399000 -6.726000
v -1.172000 18.399000 -3.144000
v -0.672000 18.399000 -6.535000
v -0.672000 18.399000 -3.340000
v -0.172000 18.399000 -6.330000
v -0.172000 18.399000 -3.760000
v 0.328000 18.399000 -6.018000
v 0.328000 18.399000 -4.359000
v -3.172000 18.156000 -5.904000
v -3.172000 18.584000 -5.904000
v -2.672000 17.324000 -5.904000
v -2.672000 19.429000 -5.904000
v -2.172000 17.089000 -5.904000
v -2.172000 20.010000 -5.904000
v -1.672000 17.071000 -5.904000
v -1.672000 20.528000 -5.904000
v -1.172000 17.259000 -5.904000
v -1.172000 20.959000 -5.904000
v -0.672000 17.765000 -5.904000
v -0.672000 21.434000 -5.904000
v -0.172000 18.113000 -5.904000
v -0.172000 21.655000 -5.904000
v 0.328000 18.338000 -5.904000
v 0.328000 21.661000 -5.904000
v 0.828000 18.845000 -5.904000
v 0.828000 21.582000 -5.904000
v 1.328000 19.324000 -5.904000
v 1.328000 21.641000 -5.904000
v 1.828000 19.697000 -5.904000
v 1.828000 21.843000 -5.904000
v 2.328000 19.951000 -5.904000
v 2.328000 21.823000 -5.904000
v 2.828000 20.306000 -5.904000
v 2.828000 21.468000 -5.904000
v -2.722000 18.899000 -6.404000
v 0.423000 18.899000 -6.404000
v -3.079000 18.899000 -5.904000
v 0.888000 18.899000 -5.904000
v -3.171000 18.899000 -5.404000
v 1.040000 18.899000 -5.404000
v -3.201000 18.899000 -4.904000
v 1.158000 18.899000 -4.904000
v -3.099000 18.899000 -4.404000
v 1.105000 18.899000 -4.404000
v -2.754000 18.899000 -3.904000
v 0.527000 18.899000 -3.904000
v -2.338000 18.899000 -3.404000
v -0.065000 18.899000 -3.404000
v -3.172000 18.899000 -5.246000
v -3.172000 18.899000 -4.637000
v -2.672000 18.899000 -6.444000
v -2.672000 18.899000 -3.802000
v -2.172000 18.899000 -6.688000
v -2.172000 18.899000 -3.277000
v -1.672000 18.899000 -6.818000
v -1.672000 18.899000 -3.073000
v -1.172000 18.899000 -6.828000
v -1.172000 18.899000 -3.053000
v -0.672000 18.899000 -6.723000
v -0.672000 18.899000 -3.103000
v -0.172000 18.899000 -6.675000
v -0.172000 18.899000 -3.324000
v 0.328000 18.899000 -6.470000
v 0.328000 18.899000 -3.732000
v 0.828000 18.899000 -6.002000
v 0.828000 18.899000 -4.087000
v -3.172000 17.843000 -5.404000
v -3.172000 18.897000 -5.404000
v -2.672000 17.219000 -5.404000
v -2.672000 19.554000 -5.404000
v -2.172000 17.002000 -5.404000
v -2.172000 20.141000 -5.404000
v -1.672000 16.985000 -5.404000
v -1.672000 20.645000 -5.404000
v -1.172000 17.159000 -5.404000
v -1.172000 21.093000 -5.404000
v -0.672000 17.628000 -5.404000
v -0.672000 21.551000 -5.404000
v -0.172000 18.003000 -5.404000
v -0.172000 21.753000 -5.404000
v 0.328000 18.224000 -5.404000
v 0.328000 21.776000 -5.404000
v 0.828000 18.705000 -5.404000
v 0.828000 21.800000 -5.404000
v 1.328000 19.078000 -5.404000
v 1.328000 21.986000 -5.404000
v 1.828000 19.290000 -5.404000
v 1.828000 22.177000 -5.404000
v 2.328000 19.460000 -5.404000
v 2.328000 22.162000 -5.404000
v 2.828000 19.774000 -5.404000
v 2.828000 21.930000 -5.404000
v 3.328000 20.662000 -5.404000
v 3.328000 21.112000 -5.404000
v -2.300000 19.399000 -6.404000
v 0.933000 19.399000 -6.404000
v -2.701000 19.399000 -5.904000
v 1.418000 19.399000 -5.904000
v -2.824000 19.399000 -5.404000
v 2.123000 19.399000 -5.404000
v -2.848000 19.399000 -4.904000
v 2.877000 19.399000 -4.904000
v -2.744000 19.399000 -4.404000
v 3.016000 19.399000 -4.404000
v -2.576000 19.399000 -3.904000
v 3.104000 19.399000 -3.904000
v -2.167000 19.399000 -3.404000
v 2.946000 19.399000 -3.404000
v -2.672000 19.399000 -5.957000
v -2.672000 19.399000 -4.171000
v -2.172000 19.399000 -6.508000
v -2.172000 19.399000 -3.408000
v -1.672000 19.399000 -6.733000
v -1.672000 19.399000 -3.160000
v -1.172000 19.399000 -6.795000
v -1.172000 19.399000 -3.007000
v -0.672000 19.399000 -6.788000
v -0.672000 19.399000 -3.014000
v -0.172000 19.399000 -6.779000
v -0.172000 19.399000 -3.170000
v 0.328000 19.399000 -6.707000
v 0.328000 19.399000 -3.321000
v 0.828000 19.399000 -6.489000
v 0.828000 19.399000 -3.398000
v 1.328000 19.399000 -5.985000
v 1.328000 19.399000 -3.251000
v 1.828000 19.399000 -5.585000
v 1.828000 19.399000 -2.982000
v 2.328000 19.399000 -5.339000
v 2.328000 19.399000 -2.970000
v 2.828000 19.399000 -4.981000
v 2.828000 19.399000 -3.254000
v -3.172000 17.756000 -4.904000
v -3.172000 18.964000 -4.904000
v -2.672000 17.186000 -4.904000
v -2.672000 19.546000 -4.904000
v -2.172000 16.985000 -4.904000
v -2.172000 20.133000 -4.904000
v -1.672000 16.980000 -4.904000
v -1.672000 20.638000 -4.904000
v -1.172000 17.170000 -4.904000
v -1.172000 21.103000 -4.904000
v -0.672000 17.643000 -4.904000
v -0.672000 21.565000 -4.904000
v -0.172000 18.007000 -4.904000
v -0.172000 21.744000 -4.904000
v 0.328000 18.249000 -4.904000
v 0.328000 21.827000 -4.904000
v 0.828000 18.687000 -4.904000
v 0.828000 21.887000 -4.904000
v 1.328000 18.980000 -4.904000
v 1.328000 22.092000 -4.904000
v 1.828000 19.104000 -4.904000
v 1.828000 22.271000 -4.904000
v 2.328000 19.141000 -4.904000
v 2.328000 22.257000 -4.904000
v 2.828000 19.362000 -4.904000
v 2.828000 22.044000 -4.904000
v 3.328000 20.081000 -4.904000
v 3.328000 21.436000 -4.904000
v -1.838000 19.899000 -6.404000
v 1.118000 19.899000 -6.404000
v -2.288000 19.899000 -5.904000
v 2.164000 19.899000 -5.904000
v -2.398000 19.899000 -5.404000
v 2.939000 19.899000 -5.404000
v -2.347000 19.899000 -4.904000
v 3.263000 19.899000 -4.904000
v -2.340000 19.899000 -4.404000
v 3.358000 19.899000 -4.404000
v -2.193000 19.899000 -3.904000
v 3.418000 19.899000 -3.904000
v -1.795000 19.899000 -3.404000
v 3.301000 19.899000 -3.404000
v 1.269000 19.899000 -2.904000
v 2.905000 19.899000 -2.904000
v -2.172000 19.899000 -6.084000
v -2.172000 19.899000 -3.866000
v -1.672000 19.899000 -6.516000
v -1.672000 19.899000 -3.309000
v -1.172000 19.899000 -6.709000
v -1.172000 19.899000 -3.105000
v -0.672000 19.899000 -6.754000
v -0.672000 19.899000 -3.074000
v -0.172000 19.899000 -6.819000
v -0.172000 19.899000 -3.069000
v 0.328000 19.899000 -6.817000
v 0.328000 19.899000 -3.074000
v 0.828000 19.899000 -6.619000
v 0.828000 19.899000 -3.041000
v 1.328000 19.899000 -6.272000
v 1.328000 19.899000 -2.874000
v 1.828000 19.899000 -6.039000
v 1.828000 19.899000 -2.659000
v 2.328000 19.899000 -5.853000
v 2.328000 19.899000 -2.650000
v 2.828000 19.899000 -5.525000
v 2.828000 19.899000 -2.848000
v 3.328000 19.899000 -4.680000
v 3.328000 19.899000 -3.466000
v -3.172000 18.029000 -4.404000
v -3.172000 18.691000 -4.404000
v -2.672000 17.300000 -4.404000
v -2.672000 19.492000 -4.404000
v -2.172000 17.081000 -4.404000
v -2.172000 20.077000 -4.404000
v -1.672000 17.076000 -4.404000
v -1.672000 20.585000 -4.404000
v -1.172000 17.282000 -4.404000
v -1.172000 21.057000 -4.404000
v -0.672000 17.664000 -4.404000
v -0.672000 21.598000 -4.404000
v -0.172000 18.063000 -4.404000
v -0.172000 21.807000 -4.404000
v 0.328000 18.375000 -4.404000
v 0.328000 21.823000 -4.404000
v 0.828000 18.770000 -4.404000
v 0.828000 21.853000 -4.404000
v 1.328000 18.968000 -4.404000
v 1.328000 21.997000 -4.404000
v 1.828000 19.037000 -4.404000
v 1.828000 22.178000 -4.404000
v 2.328000 19.052000 -4.404000
v 2.328000 22.163000 -4.404000
v 2.828000 19.252000 -4.404000
v 2.828000 21.931000 -4.404000
v 3.328000 19.829000 -4.404000
v 3.328000 21.177000 -4.404000
v -1.270000 20.399000 -6.404000
v 1.138000 20.399000 -6.404000
v -1.839000 20.399000 -5.904000
v 2.888000 20.399000 -5.904000
v -1.970000 20.399000 -5.404000
v 3.253000 20.399000 -5.404000
v -1.968000 20.399000 -4.904000
v 3.387000 20.399000 -4.904000
v -1.908000 20.399000 -4.404000
v 3.458000 20.399000 -4.404000
v -1.779000 20.399000 -3.904000
v 3.501000 20.399000 -3.904000
v -1.184000 20.399000 -3.404000
v 3.392000 20.399000 -3.404000
v 0.986000 20.399000 -2.904000
v 3.036000 20.399000 -2.904000
v -1.672000 20.399000 -6.123000
v -1.672000 20.399000 -3.755000
v -1.172000 20.399000 -6.458000
v -1.172000 20.399000 -3.398000
v -0.672000 20.399000 -6.655000
v -0.672000 20.399000 -3.166000
v -0.172000 20.399000 -6.769000
v -0.172000 20.399000 -2.997000
v 0.328000 20.399000 -6.774000
v 0.328000 20.399000 -2.969000
v 0.828000 20.399000 -6.585000
v 0.828000 20.399000 -2.936000
v 1.328000 20.399000 -6.331000
v 1.328000 20.399000 -2.774000
v 1.828000 20.399000 -6.232000
v 1.828000 20.399000 -2.574000
v 2.328000 20.399000 -6.183000
v 2.328000 20.399000 -2.565000
v 2.828000 20.399000 -5.953000
v 2.828000 20.399000 -2.750000
v 3.328000 20.399000 -5.161000
v 3.328000 20.399000 -3.270000
v -2.672000 17.753000 -3.904000
v -2.672000 19.136000 -3.904000
v -2.172000 17.421000 -3.904000
v -2.172000 19.924000 -3.904000
v -1.672000 17.414000 -3.904000
v -1.672000 20.478000 -3.904000
v -1.172000 17.577000 -3.904000
v -1.172000 20.896000 -3.904000
v -0.672000 17.795000 -3.904000
v -0.672000 21.502000 -3.904000
v -0.172000 18.312000 -3.904000
v -0.172000 21.727000 -3.904000
v 0.328000 18.773000 -3.904000
v 0.328000 21.745000 -3.904000
v 0.828000 19.007000 -3.904000
v 0.828000 21.729000 -3.904000
v 1.328000 19.055000 -3.904000
v 1.328000 21.744000 -3.904000
v 1.828000 19.003000 -3.904000
v 1.828000 21.869000 -3.904000
v 2.328000 18.995000 -3.904000
v 2.328000 21.860000 -3.904000
v 2.828000 19.179000 -3.904000
v 2.828000 21.624000 -3.904000
v 3.328000 19.700000 -3.904000
v 3.328000 21.051000 -3.904000
f 190 183 37
f 246 239 190
f 190 239 183
f 246 38 239
f 39 192 37
f 37 192 190
f 248 190 192
f 246 190 248
f 38 246 299
f 246 306 299
f 246 248 306
f 372 365 306
f 306 365 299
f 372 40 365
f 41 194 39
f 39 194 192
f 250 192 194
f 248 192 250
f 308 248 250
f 306 248 308
f 374 306 308
f 372 306 374
f 40 372 433
f 372 440 433
f 372 374 440
f 440 42 433
f 43 196 41
f 41 196 194
f 252 194 196
f 250 194 252
f 310 250 252
f 308 250 310
f 376 308 310
f 374 308 376
f 442 374 376
f 440 374 442
f 42 440 13
f 440 20 13
f 440 442 20
f 20 44 13
f 184 196 43
f 45 254 184
f 254 196 184
f 254 252 196
f 312 252 254
f 310 252 312
f 378 310 312
f 376 310 378
f 444 376 378
f 442 376 444
f 22 442 444
f 20 442 22
f 44 20 81
f 20 94 81
f 20 22 94
f 94 46 81
f 240 254 45
f 47 314 240
f 314 254 240
f 314 312 254
f 380 312 314
f 378 312 380
f 446 378 380
f 444 378 446
f 24 444 446
f 22 444 24
f 96 22 24
f 94 22 96
f 46 94 48
f 48 94 96
f 49 316 47
f 47 316 314
f 382 314 316
f 380 314 382
f 448 380 382
f 446 380 448
f 26 446 448
f 24 446 26
f 98 24 26
f 96 24 98
f 48 96 50
f 50 96 98
f 51 318 49
f 49 318 316
f 318 109 367
f 382 318 367
f 316 318 382
f 382 367 435
f 382 435 448
f 448 435 15
f 448 15 26
f 26 15 110
f 100 26 110
f 98 26 100
f 50 98 52
f 52 98 100
f 53 320 51
f 51 320 318
f 109 318 320
f 109 320 111
f 112 102 100
f 112 100 110
f 52 100 54
f 54 100 102
f 55 322 53
f 53 322 320
f 111 320 322
f 111 322 113
f 114 104 102
f 114 102 112
f 54 102 56
f 56 102 104
f 57 324 55
f 55 324 322
f 113 322 324
f 113 324 115
f 116 106 104
f 116 104 114
f 56 104 58
f 58 104 106
f 300 324 57
f 324 300 115
f 300 368 115
f 300 366 368
f 366 59 458
f 436 366 458
f 368 366 436
f 436 458 60
f 14 436 60
f 16 436 14
f 116 16 106
f 16 82 106
f 16 14 82
f 58 106 82
f 434 458 59
f 60 458 434
f 155 117 137
f 137 117 187
f 187 117 171
f 187 171 243
f 243 171 227
f 227 156 243
f 139 157 137
f 137 157 155
f 137 189 139
f 137 187 189
f 187 245 189
f 187 243 245
f 287 303 156
f 303 243 156
f 303 245 243
f 287 158 303
f 159 61 87
f 157 139 61
f 139 87 61
f 139 141 87
f 139 191 141
f 139 189 191
f 189 247 191
f 189 245 247
f 245 305 247
f 245 303 305
f 353 371 158
f 371 303 158
f 371 305 303
f 353 160 371
f 87 62 159
f 62 87 161
f 87 143 161
f 87 141 143
f 141 193 143
f 141 191 193
f 191 249 193
f 191 247 249
f 247 307 249
f 247 305 307
f 305 373 307
f 305 371 373
f 421 439 160
f 439 371 160
f 439 373 371
f 421 162 439
f 143 118 161
f 118 143 163
f 143 195 163
f 143 193 195
f 193 251 195
f 193 249 251
f 249 309 251
f 249 307 309
f 307 375 309
f 307 373 375
f 373 441 375
f 373 439 441
f 1 19 162
f 19 439 162
f 19 441 439
f 1 164 19
f 195 172 163
f 172 195 165
f 195 253 165
f 195 251 253
f 251 311 253
f 251 309 311
f 309 377 311
f 309 375 377
f 375 443 377
f 375 441 443
f 441 21 443
f 441 19 21
f 19 164 21
f 21 164 166
f 255 167 253
f 253 167 165
f 253 313 255
f 253 311 313
f 311 379 313
f 311 377 379
f 377 445 379
f 377 443 445
f 443 23 445
f 443 21 23
f 21 166 23
f 23 166 168
f 255 228 167
f 228 255 169
f 255 315 169
f 255 313 315
f 313 381 315
f 313 379 381
f 379 447 381
f 379 445 447
f 445 25 447
f 445 23 25
f 23 168 25
f 25 168 170
f 315 288 169
f 288 315 354
f 354 315 381
f 354 381 422
f 422 381 447
f 422 447 2
f 2 447 25
f 25 170 2
f 384 367 109
f 450 435 384
f 384 435 367
f 28 15 450
f 450 15 435
f 28 110 15
f 111 386 109
f 109 386 384
f 452 384 386
f 450 384 452
f 30 450 452
f 28 450 30
f 110 28 112
f 112 28 30
f 113 388 111
f 111 388 386
f 454 386 388
f 452 386 454
f 32 452 454
f 30 452 32
f 112 30 114
f 114 30 32
f 115 390 113
f 113 390 388
f 456 388 390
f 454 388 456
f 34 454 456
f 32 454 34
f 114 32 116
f 116 32 34
f 368 390 115
f 436 456 368
f 368 456 390
f 16 34 436
f 436 34 456
f 116 34 16
f 201 173 185
f 173 202 185
f 203 63 83
f 83 63 155
f 63 117 155
f 63 119 117
f 119 201 185
f 171 119 185
f 117 119 171
f 171 185 202
f 229 171 202
f 227 171 229
f 156 227 301
f 227 289 301
f 227 229 289
f 289 204 301
f 85 205 83
f 83 205 203
f 83 155 157
f 83 157 85
f 301 287 156
f 204 355 369
f 204 369 158
f 301 204 158
f 287 301 158
f 355 206 369
f 61 159 85
f 159 205 85
f 159 207 205
f 85 157 61
f 369 353 158
f 206 423 437
f 206 437 160
f 369 206 160
f 353 369 160
f 423 208 437
f 89 209 62
f 209 159 62
f 209 207 159
f 161 89 62
f 437 421 160
f 208 3 17
f 208 17 162
f 437 208 162
f 421 437 162
f 3 210 17
f 89 64 209
f 145 211 118
f 118 211 161
f 211 64 161
f 64 89 161
f 163 145 118
f 17 1 162
f 210 71 91
f 210 91 164
f 17 210 164
f 1 17 164
f 71 212 91
f 145 120 211
f 197 213 172
f 172 213 163
f 213 120 163
f 120 145 163
f 165 197 172
f 93 166 164
f 93 164 91
f 91 212 93
f 93 212 214
f 199 215 197
f 197 215 213
f 197 165 167
f 197 167 199
f 95 168 166
f 95 166 93
f 93 214 95
f 95 214 216
f 199 174 215
f 257 217 228
f 228 217 167
f 217 174 167
f 174 199 167
f 169 257 228
f 97 170 168
f 97 168 95
f 95 216 97
f 97 216 218
f 257 230 217
f 317 219 288
f 288 219 169
f 219 230 169
f 230 257 169
f 354 383 317
f 354 317 288
f 422 449 383
f 422 383 354
f 2 27 449
f 2 449 422
f 27 2 170
f 97 27 170
f 99 27 97
f 97 218 99
f 99 218 220
f 317 290 219
f 290 317 221
f 317 385 221
f 317 383 385
f 383 451 385
f 383 449 451
f 449 29 451
f 449 27 29
f 27 101 29
f 27 99 101
f 99 220 101
f 101 220 222
f 385 356 221
f 356 385 223
f 385 453 223
f 385 451 453
f 451 31 453
f 451 29 31
f 29 103 31
f 29 101 103
f 101 222 103
f 103 222 224
f 455 225 453
f 453 225 223
f 453 33 455
f 453 31 33
f 31 105 33
f 31 103 105
f 103 224 105
f 105 224 226
f 455 424 225
f 424 455 4
f 4 455 33
f 4 33 72
f 72 33 105
f 105 226 72
f 259 121 135
f 135 121 201
f 121 173 201
f 121 175 173
f 175 260 173
f 173 260 202
f 261 65 203
f 203 65 63
f 65 259 135
f 119 65 135
f 63 65 119
f 135 201 119
f 229 202 260
f 229 260 231
f 231 289 229
f 291 289 231
f 291 262 289
f 289 262 204
f 263 203 205
f 263 261 203
f 355 204 262
f 355 262 357
f 357 264 355
f 355 264 206
f 265 205 207
f 265 263 205
f 423 206 264
f 423 264 425
f 425 266 423
f 423 266 208
f 267 207 209
f 267 265 207
f 3 208 266
f 3 266 5
f 5 268 3
f 3 268 210
f 209 64 267
f 267 64 66
f 269 66 64
f 269 64 211
f 71 210 268
f 71 268 73
f 73 270 71
f 71 270 212
f 211 120 269
f 269 120 122
f 271 122 120
f 271 120 213
f 212 272 214
f 270 272 212
f 273 213 215
f 273 271 213
f 214 274 216
f 272 274 214
f 215 174 273
f 273 174 176
f 275 176 174
f 275 174 217
f 216 276 218
f 274 276 216
f 217 230 275
f 275 230 232
f 277 232 230
f 277 230 219
f 276 129 147
f 220 276 147
f 218 276 220
f 129 278 147
f 319 279 290
f 279 219 290
f 279 277 219
f 221 319 290
f 149 222 220
f 149 220 147
f 147 278 149
f 149 278 280
f 319 292 279
f 387 281 356
f 356 281 221
f 281 292 221
f 292 319 221
f 223 387 356
f 151 224 222
f 151 222 149
f 149 280 151
f 151 280 282
f 389 283 387
f 387 283 281
f 387 223 225
f 387 225 389
f 153 226 224
f 153 224 151
f 151 282 153
f 153 282 284
f 389 358 283
f 225 424 389
f 424 358 389
f 424 426 358
f 4 35 285
f 426 4 285
f 424 4 426
f 74 286 35
f 4 74 35
f 72 74 4
f 153 130 226
f 130 72 226
f 130 74 72
f 153 284 130
f 35 6 285
f 35 286 6
f 325 123 259
f 259 123 121
f 123 175 121
f 177 175 123
f 260 175 241
f 175 233 241
f 175 177 233
f 233 326 241
f 327 67 261
f 261 67 65
f 259 65 67
f 259 67 325
f 241 231 260
f 231 241 326
f 293 231 326
f 291 231 293
f 293 328 291
f 291 328 262
f 329 261 263
f 329 327 261
f 357 262 328
f 357 328 359
f 359 330 357
f 357 330 264
f 331 263 265
f 331 329 263
f 425 264 330
f 425 330 427
f 427 332 425
f 425 332 266
f 333 265 267
f 333 331 265
f 5 266 332
f 5 332 7
f 7 334 5
f 5 334 268
f 267 66 333
f 333 66 68
f 335 68 66
f 335 66 269
f 73 268 334
f 73 334 75
f 75 336 73
f 73 336 270
f 269 122 335
f 335 122 124
f 337 124 122
f 337 122 271
f 270 338 272
f 336 338 270
f 339 271 273
f 339 337 271
f 272 340 274
f 338 340 272
f 273 176 339
f 339 176 178
f 341 178 176
f 341 176 275
f 274 342 276
f 340 342 274
f 275 232 341
f 341 232 234
f 343 234 232
f 343 232 277
f 129 276 342
f 129 342 131
f 131 344 129
f 129 344 278
f 345 277 279
f 345 343 277
f 278 346 280
f 344 346 278
f 321 347 292
f 347 279 292
f 347 345 279
f 281 321 292
f 280 348 282
f 346 348 280
f 323 349 321
f 321 349 347
f 321 281 283
f 321 283 323
f 282 350 284
f 348 350 282
f 323 294 349
f 283 358 323
f 358 294 323
f 358 360 294
f 426 457 351
f 360 426 351
f 358 426 360
f 285 457 426
f 74 107 286
f 132 352 107
f 74 132 107
f 130 132 74
f 130 284 132
f 132 284 350
f 457 428 351
f 285 6 457
f 6 428 457
f 6 8 428
f 107 76 286
f 76 6 286
f 76 8 6
f 107 352 76
f 136 123 325
f 393 179 136
f 179 123 136
f 179 177 123
f 242 233 394
f 233 179 394
f 233 177 179
f 242 326 233
f 395 69 327
f 327 69 67
f 125 136 325
f 67 125 325
f 69 125 67
f 393 136 125
f 235 242 394
f 293 326 242
f 235 293 242
f 295 293 235
f 295 396 293
f 293 396 328
f 397 327 329
f 397 395 327
f 359 328 396
f 359 396 361
f 361 398 359
f 359 398 330
f 399 329 331
f 399 397 329
f 427 330 398
f 427 398 429
f 429 400 427
f 427 400 332
f 401 331 333
f 401 399 331
f 7 332 400
f 7 400 9
f 9 402 7
f 7 402 334
f 333 68 401
f 401 68 70
f 403 70 68
f 403 68 335
f 75 334 402
f 75 402 77
f 77 404 75
f 75 404 336
f 335 124 403
f 403 124 126
f 405 126 124
f 405 124 337
f 336 406 338
f 404 406 336
f 407 337 339
f 407 405 337
f 338 408 340
f 406 408 338
f 339 178 407
f 407 178 180
f 409 180 178
f 409 178 341
f 340 410 342
f 408 410 340
f 341 234 409
f 409 234 236
f 411 236 234
f 411 234 343
f 131 342 410
f 131 410 133
f 133 412 131
f 131 412 344
f 413 343 345
f 413 411 343
f 344 414 346
f 412 414 344
f 415 345 347
f 415 413 345
f 346 416 348
f 414 416 346
f 417 347 349
f 417 415 347
f 348 418 350
f 416 418 348
f 349 294 417
f 417 294 296
f 360 391 419
f 296 360 419
f 294 360 296
f 351 391 360
f 78 420 108
f 78 108 352
f 132 78 352
f 134 78 132
f 132 350 134
f 134 350 418
f 391 362 419
f 351 428 391
f 428 362 391
f 428 430 362
f 8 430 428
f 8 10 430
f 420 10 108
f 10 76 108
f 10 8 76
f 352 108 76
f 186 179 393
f 186 394 179
f 84 69 395
f 459 127 84
f 127 69 84
f 127 125 69
f 181 186 393
f 125 181 393
f 127 181 125
f 235 394 186
f 181 235 186
f 237 235 181
f 302 295 460
f 295 237 460
f 295 235 237
f 302 396 295
f 397 86 395
f 395 86 84
f 459 84 86
f 459 86 461
f 297 302 460
f 361 396 302
f 297 361 302
f 363 361 297
f 363 462 361
f 361 462 398
f 399 88 397
f 397 88 86
f 461 86 88
f 461 88 463
f 429 398 462
f 429 462 431
f 431 464 429
f 429 464 400
f 401 90 399
f 399 90 88
f 463 88 90
f 463 90 465
f 466 18 9
f 400 466 9
f 464 466 400
f 18 402 9
f 70 90 401
f 465 90 70
f 403 465 70
f 467 465 403
f 11 18 466
f 77 402 18
f 11 77 18
f 79 77 11
f 79 468 77
f 77 468 404
f 403 126 467
f 467 126 128
f 469 128 126
f 469 126 405
f 404 470 406
f 468 470 404
f 182 469 200
f 469 407 200
f 469 405 407
f 471 182 200
f 406 472 408
f 470 472 406
f 180 200 407
f 238 471 258
f 258 471 409
f 471 200 409
f 200 180 409
f 473 238 258
f 408 474 410
f 472 474 408
f 236 258 409
f 473 258 236
f 411 473 236
f 475 473 411
f 476 148 133
f 410 476 133
f 474 476 410
f 148 412 133
f 477 411 413
f 477 475 411
f 478 150 148
f 478 148 476
f 412 148 414
f 414 148 150
f 479 413 415
f 479 477 413
f 480 152 150
f 480 150 478
f 414 150 416
f 416 150 152
f 481 415 417
f 481 479 415
f 482 154 152
f 482 152 480
f 416 152 418
f 418 152 154
f 417 296 481
f 481 296 298
f 483 298 296
f 483 296 419
f 80 484 420
f 80 420 78
f 482 80 154
f 80 134 154
f 80 78 134
f 418 154 134
f 419 362 483
f 483 362 364
f 430 364 362
f 430 432 364
f 10 432 430
f 10 12 432
f 10 420 12
f 12 420 484
f 138 127 459
f 188 181 138
f 138 181 127
f 244 237 188
f 188 237 181
f 244 460 237
f 461 140 459
f 459 140 138
f 140 37 183
f 188 140 183
f 138 140 188
f 188 183 239
f 188 239 244
f 38 304 297
f 38 297 460
f 239 38 460
f 244 239 460
f 370 363 304
f 304 363 297
f 370 462 363
f 463 142 461
f 461 142 140
f 37 140 142
f 37 142 39
f 299 304 38
f 304 299 365
f 304 365 370
f 40 438 431
f 40 431 462
f 365 40 462
f 370 365 462
f 438 464 431
f 465 144 463
f 463 144 142
f 39 142 144
f 39 144 41
f 433 438 40
f 433 42 438
f 42 464 438
f 42 466 464
f 467 146 465
f 465 146 144
f 41 144 146
f 41 146 43
f 11 466 42
f 11 42 13
f 92 79 44
f 79 13 44
f 79 11 13
f 92 468 79
f 128 146 467
f 184 43 198
f 198 43 469
f 43 146 469
f 146 128 469
f 45 184 198
f 81 92 44
f 81 46 92
f 46 468 92
f 46 470 468
f 182 198 469
f 240 45 256
f 256 45 471
f 45 198 471
f 198 182 471
f 47 240 256
f 470 48 472
f 46 48 470
f 238 256 471
f 47 256 238
f 473 47 238
f 49 47 473
f 472 50 474
f 48 50 472
f 51 473 475
f 51 49 473
f 474 52 476
f 50 52 474
f 53 475 477
f 53 51 475
f 476 54 478
f 52 54 476
f 55 477 479
f 55 53 477
f 478 56 480
f 54 56 478
f 57 479 481
f 57 55 479
f 480 58 482
f 56 58 480
f 481 298 57
f 57 298 300
f 298 483 392
f 366 298 392
f 300 298 366
f 59 366 392
f 14 60 36
f 14 36 484
f 80 14 484
f 82 14 80
f 80 482 82
f 82 482 58
f 364 392 483
f 392 364 59
f 364 434 59
f 364 432 434
f 60 434 36
f 434 12 36
f 434 432 12
f 484 36 12
