# Converted from NanoShaper .vert/.face
v 5.066000 11.649000 -3.154000
v 6.043000 11.649000 -3.154000
v 4.422000 11.649000 -2.654000
v 7.222000 11.649000 -2.654000
v 4.203000 11.649000 -2.154000
v 7.776000 11.649000 -2.154000
v 4.178000 11.649000 -1.654000
v 8.232000 11.649000 -1.654000
v 4.176000 11.649000 -1.154000
v 8.418000 11.649000 -1.154000
v 4.202000 11.649000 -0.654000
v 8.445000 11.649000 -0.654000
v 4.217000 11.649000 -0.154000
v 8.460000 11.649000 -0.154000
v 4.400000 11.649000 0.346000
v 8.469000 11.649000 0.346000
v 4.868000 11.649000 0.846000
v 8.290000 11.649000 0.846000
v 5.416000 11.649000 1.346000
v 7.773000 11.649000 1.346000
v 4.578000 11.649000 -2.839000
v 4.578000 11.649000 0.580000
v 5.078000 11.649000 -3.158000
v 5.078000 11.649000 1.087000
v 5.578000 11.649000 -3.243000
v 5.578000 11.649000 1.421000
v 6.078000 11.649000 -3.140000
v 6.078000 11.649000 1.515000
v 6.578000 11.649000 -2.881000
v 6.578000 11.649000 1.495000
v 7.078000 11.649000 -2.725000
v 7.078000 11.649000 1.516000
v 7.578000 11.649000 -2.368000
v 7.578000 11.649000 1.435000
v 8.078000 11.649000 -1.859000
v 8.078000 11.649000 1.118000
v 4.578000 10.721000 -1.654000
v 4.578000 14.285000 -1.654000
v 5.078000 10.303000 -1.654000
v 5.078000 14.629000 -1.654000
v 5.578000 10.091000 -1.654000
v 5.578000 14.727000 -1.654000
v 6.078000 9.992000 -1.654000
v 6.078000 14.635000 -1.654000
v 6.578000 10.001000 -1.654000
v 6.578000 14.311000 -1.654000
v 7.078000 10.105000 -1.654000
v 7.078000 13.897000 -1.654000
v 7.578000 10.276000 -1.654000
v 7.578000 12.838000 -1.654000
v 8.078000 10.716000 -1.654000
v 8.078000 12.009000 -1.654000
v 4.886000 12.149000 -3.154000
v 6.203000 12.149000 -3.154000
v 4.366000 12.149000 -2.654000
v 7.210000 12.149000 -2.654000
v 4.182000 12.149000 -2.154000
v 7.717000 12.149000 -2.154000
v 4.171000 12.149000 -1.654000
v 7.987000 12.149000 -1.654000
v 4.186000 12.149000 -1.154000
v 8.202000 12.149000 -1.154000
v 4.217000 12.149000 -0.654000
v 8.249000 12.149000 -0.654000
v 4.234000 12.149000 -0.154000
v 8.258000 12.149000 -0.154000
v 4.420000 12.149000 0.346000
v 8.261000 12.149000 0.346000
v 4.876000 12.149000 0.846000
v 8.044000 12.149000 0.846000
v 5.437000 12.149000 1.346000
v 7.213000 12.149000 1.346000
v 4.578000 12.149000 -2.924000
v 4.578000 12.149000 0.554000
v 5.078000 12.149000 -3.241000
v 5.078000 12.149000 1.077000
v 5.578000 12.149000 -3.322000
v 5.578000 12.149000 1.409000
v 6.078000 12.149000 -3.214000
v 6.078000 12.149000 1.502000
v 6.578000 12.149000 -2.956000
v 6.578000 12.149000 1.493000
v 7.078000 12.149000 -2.735000
v 7.078000 12.149000 1.390000
v 7.578000 12.149000 -2.346000
v 7.578000 12.149000 1.214000
v 8.078000 12.149000 -1.498000
v 8.078000 12.149000 0.799000
v 4.578000 10.449000 -1.154000
v 4.578000 13.932000 -1.154000
v 5.078000 10.105000 -1.154000
v 5.078000 14.400000 -1.154000
v 5.578000 10.006000 -1.154000
v 5.578000 14.517000 -1.154000
v 6.078000 9.998000 -1.154000
v 6.078000 14.435000 -1.154000
v 6.578000 9.987000 -1.154000
v 6.578000 14.224000 -1.154000
v 7.078000 9.980000 -1.154000
v 7.078000 13.907000 -1.154000
v 7.578000 10.079000 -1.154000
v 7.578000 12.966000 -1.154000
v 8.078000 10.421000 -1.154000
v 8.078000 12.304000 -1.154000
v 4.867000 12.649000 -3.154000
v 6.516000 12.649000 -3.154000
v 4.355000 12.649000 -2.654000
v 7.197000 12.649000 -2.654000
v 4.178000 12.649000 -2.154000
v 7.521000 12.649000 -2.154000
v 4.192000 12.649000 -1.654000
v 7.681000 12.649000 -1.654000
v 4.231000 12.649000 -1.154000
v 7.766000 12.649000 -1.154000
v 4.271000 12.649000 -0.654000
v 7.798000 12.649000 -0.654000
v 4.436000 12.649000 -0.154000
v 7.779000 12.649000 -0.154000
v 4.650000 12.649000 0.346000
v 7.732000 12.649000 0.346000
v 4.908000 12.649000 0.846000
v 7.468000 12.649000 0.846000
v 5.481000 12.649000 1.346000
v 6.678000 12.649000 1.346000
v 4.578000 12.649000 -2.937000
v 4.578000 12.649000 0.192000
v 5.078000 12.649000 -3.250000
v 5.078000 12.649000 1.059000
v 5.578000 12.649000 -3.331000
v 5.578000 12.649000 1.387000
v 6.078000 12.649000 -3.254000
v 6.078000 12.649000 1.477000
v 6.578000 12.649000 -3.131000
v 6.578000 12.649000 1.382000
v 7.078000 12.649000 -2.786000
v 7.078000 12.649000 1.168000
v 7.578000 12.649000 -2.025000
v 7.578000 12.649000 0.697000
v 4.578000 10.466000 -0.654000
v 4.578000 13.278000 -0.654000
v 5.078000 10.118000 -0.654000
v 5.078000 14.013000 -0.654000
v 5.578000 10.016000 -0.654000
v 5.578000 14.266000 -0.654000
v 6.078000 9.987000 -0.654000
v 6.078000 14.298000 -0.654000
v 6.578000 9.987000 -0.654000
v 6.578000 14.198000 -0.654000
v 7.078000 9.990000 -0.654000
v 7.078000 13.887000 -0.654000
v 7.578000 10.087000 -0.654000
v 7.578000 12.964000 -0.654000
v 8.078000 10.423000 -0.654000
v 8.078000 12.366000 -0.654000
v 4.925000 13.149000 -3.154000
v 6.537000 13.149000 -3.154000
v 4.399000 13.149000 -2.654000
v 7.192000 13.149000 -2.654000
v 4.216000 13.149000 -2.154000
v 7.413000 13.149000 -2.154000
v 4.227000 13.149000 -1.654000
v 7.468000 13.149000 -1.654000
v 4.344000 13.149000 -1.154000
v 7.495000 13.149000 -1.154000
v 4.491000 13.149000 -0.654000
v 7.491000 13.149000 -0.654000
v 4.697000 13.149000 -0.154000
v 7.470000 13.149000 -0.154000
v 4.878000 13.149000 0.346000
v 7.325000 13.149000 0.346000
v 5.129000 13.149000 0.846000
v 7.009000 13.149000 0.846000
v 4.578000 13.149000 -2.888000
v 4.578000 13.149000 -0.429000
v 5.078000 13.149000 -3.225000
v 5.078000 13.149000 0.777000
v 5.578000 13.149000 -3.320000
v 5.578000 13.149000 1.193000
v 6.078000 13.149000 -3.256000
v 6.078000 13.149000 1.298000
v 6.578000 13.149000 -3.139000
v 6.578000 13.149000 1.185000
v 7.078000 13.149000 -2.795000
v 7.078000 13.149000 0.751000
v 4.578000 10.812000 -0.154000
v 4.578000 12.896000 -0.154000
v 5.078000 10.347000 -0.154000
v 5.078000 13.819000 -0.154000
v 5.578000 10.108000 -0.154000
v 5.578000 14.164000 -0.154000
v 6.078000 9.995000 -0.154000
v 6.078000 14.264000 -0.154000
v 6.578000 9.983000 -0.154000
v 6.578000 14.177000 -0.154000
v 7.078000 10.003000 -0.154000
v 7.078000 13.855000 -0.154000
v 7.578000 10.088000 -0.154000
v 7.578000 12.927000 -0.154000
v 8.078000 10.406000 -0.154000
v 8.078000 12.371000 -0.154000
v 4.962000 13.649000 -3.154000
v 6.209000 13.649000 -3.154000
v 4.420000 13.649000 -2.654000
v 6.954000 13.649000 -2.654000
v 4.234000 13.649000 -2.154000
v 7.222000 13.649000 -2.154000
v 4.246000 13.649000 -1.654000
v 7.276000 13.649000 -1.654000
v 4.462000 13.649000 -1.154000
v 7.287000 13.649000 -1.154000
v 4.791000 13.649000 -0.654000
v 7.274000 13.649000 -0.654000
v 4.943000 13.649000 -0.154000
v 7.246000 13.649000 -0.154000
v 5.161000 13.649000 0.346000
v 7.029000 13.649000 0.346000
v 4.578000 13.649000 -2.862000
v 4.578000 13.649000 -0.996000
v 5.078000 13.649000 -3.207000
v 5.078000 13.649000 0.219000
v 5.578000 13.649000 -3.304000
v 5.578000 13.649000 0.698000
v 6.078000 13.649000 -3.213000
v 6.078000 13.649000 0.833000
v 6.578000 13.649000 -2.943000
v 6.578000 13.649000 0.710000
v 7.078000 13.649000 -2.490000
v 7.078000 13.649000 0.276000
v 4.578000 11.195000 0.346000
v 4.578000 12.512000 0.346000
v 5.078000 10.743000 0.346000
v 5.078000 13.536000 0.346000
v 5.578000 10.334000 0.346000
v 5.578000 13.973000 0.346000
v 6.078000 10.195000 0.346000
v 6.078000 14.089000 0.346000
v 6.578000 10.090000 0.346000
v 6.578000 13.989000 0.346000
v 7.078000 9.994000 0.346000
v 7.078000 13.585000 0.346000
v 7.578000 10.075000 0.346000
v 7.578000 12.807000 0.346000
v 8.078000 10.387000 0.346000
v 8.078000 12.370000 0.346000
v 5.427000 10.149000 -1.654000
v 7.215000 10.149000 -1.654000
v 4.980000 10.149000 -1.154000
v 7.727000 10.149000 -1.154000
v 5.006000 10.149000 -0.654000
v 7.714000 10.149000 -0.654000
v 5.483000 10.149000 -0.154000
v 7.720000 10.149000 -0.154000
v 6.335000 10.149000 0.346000
v 7.748000 10.149000 0.346000
v 4.683000 14.149000 -2.654000
v 6.488000 14.149000 -2.654000
v 4.453000 14.149000 -2.154000
v 6.733000 14.149000 -2.154000
v 4.467000 14.149000 -1.654000
v 6.770000 14.149000 -1.654000
v 4.737000 14.149000 -1.154000
v 6.737000 14.149000 -1.154000
v 5.276000 14.149000 -0.654000
v 6.697000 14.149000 -0.654000
v 5.542000 14.149000 -0.154000
v 6.647000 14.149000 -0.154000
v 5.078000 10.149000 -1.333000
v 5.078000 10.149000 -0.538000
v 5.578000 10.149000 -1.880000
v 5.578000 10.149000 -0.005000
v 6.078000 10.149000 -2.124000
v 6.078000 10.149000 0.265000
v 6.578000 10.149000 -2.050000
v 6.578000 10.149000 0.549000
v 7.078000 10.149000 -1.783000
v 7.078000 10.149000 0.812000
v 7.578000 10.149000 -1.409000
v 7.578000 10.149000 0.622000
v 4.578000 14.149000 -2.496000
v 4.578000 14.149000 -1.375000
v 5.078000 14.149000 -2.971000
v 5.078000 14.149000 -0.854000
v 5.578000 14.149000 -3.089000
v 5.578000 14.149000 -0.075000
v 6.078000 14.149000 -2.979000
v 6.078000 14.149000 0.231000
v 6.578000 14.149000 -2.524000
v 6.578000 14.149000 -0.020000
v 5.078000 11.626000 -3.154000
v 5.078000 13.821000 -3.154000
v 5.578000 11.334000 -3.154000
v 5.578000 14.045000 -3.154000
v 6.078000 11.754000 -3.154000
v 6.078000 13.838000 -3.154000
v 5.078000 11.184000 0.846000
v 5.078000 13.076000 0.846000
v 5.578000 10.759000 0.846000
v 5.578000 13.511000 0.846000
v 6.078000 10.591000 0.846000
v 6.078000 13.636000 0.846000
v 6.578000 10.291000 0.846000
v 6.578000 13.508000 0.846000
v 7.078000 10.168000 0.846000
v 7.078000 13.054000 0.846000
v 7.578000 10.262000 0.846000
v 7.578000 12.539000 0.846000
v 8.078000 10.651000 0.846000
v 8.078000 12.106000 0.846000
v 4.931000 10.649000 -2.154000
v 7.444000 10.649000 -2.154000
v 4.636000 10.649000 -1.654000
v 8.031000 10.649000 -1.654000
v 4.424000 10.649000 -1.154000
v 8.249000 10.649000 -1.154000
v 4.437000 10.649000 -0.654000
v 8.253000 10.649000 -0.654000
v 4.697000 10.649000 -0.154000
v 8.272000 10.649000 -0.154000
v 5.190000 10.649000 0.346000
v 8.288000 10.649000 0.346000
v 5.920000 10.649000 0.846000
v 8.076000 10.649000 0.846000
v 5.097000 14.649000 -2.154000
v 6.074000 14.649000 -2.154000
v 5.130000 14.649000 -1.654000
v 6.041000 14.649000 -1.654000
v 4.578000 10.649000 -1.555000
v 4.578000 10.649000 -0.316000
v 5.078000 10.649000 -2.355000
v 5.078000 10.649000 0.217000
v 5.578000 10.649000 -2.592000
v 5.578000 10.649000 0.691000
v 6.078000 10.649000 -2.648000
v 6.078000 10.649000 0.924000
v 6.578000 10.649000 -2.571000
v 6.578000 10.649000 1.213000
v 7.078000 10.649000 -2.437000
v 7.078000 10.649000 1.337000
v 7.578000 10.649000 -2.041000
v 7.578000 10.649000 1.243000
v 8.078000 10.649000 -1.587000
v 8.078000 10.649000 0.844000
v 5.578000 14.649000 -2.471000
v 5.578000 14.649000 -1.400000
v 4.578000 11.256000 -2.654000
v 4.578000 14.009000 -2.654000
v 5.078000 10.819000 -2.654000
v 5.078000 14.444000 -2.654000
v 5.578000 10.704000 -2.654000
v 5.578000 14.557000 -2.654000
v 6.078000 10.659000 -2.654000
v 6.078000 14.452000 -2.654000
v 6.578000 10.805000 -2.654000
v 6.578000 14.036000 -2.654000
v 7.078000 11.266000 -2.654000
v 7.078000 13.465000 -2.654000
v 5.578000 11.373000 1.346000
v 5.578000 12.822000 1.346000
v 6.078000 11.156000 1.346000
v 6.078000 13.060000 1.346000
v 6.578000 10.900000 1.346000
v 6.578000 12.799000 1.346000
v 7.078000 10.663000 1.346000
v 7.078000 12.290000 1.346000
v 7.578000 10.836000 1.346000
v 7.578000 11.921000 1.346000
v 4.653000 11.149000 -2.654000
v 7.041000 11.149000 -2.654000
v 4.390000 11.149000 -2.154000
v 7.733000 11.149000 -2.154000
v 4.330000 11.149000 -1.654000
v 8.247000 11.149000 -1.654000
v 4.230000 11.149000 -1.154000
v 8.431000 11.149000 -1.154000
v 4.242000 11.149000 -0.654000
v 8.446000 11.149000 -0.654000
v 4.385000 11.149000 -0.154000
v 8.464000 11.149000 -0.154000
v 4.609000 11.149000 0.346000
v 8.476000 11.149000 0.346000
v 5.102000 11.149000 0.846000
v 8.299000 11.149000 0.846000
v 6.124000 11.149000 1.346000
v 7.788000 11.149000 1.346000
v 4.578000 11.149000 -2.559000
v 4.578000 11.149000 0.301000
v 5.078000 11.149000 -2.962000
v 5.078000 11.149000 0.815000
v 5.578000 11.149000 -3.061000
v 5.578000 11.149000 1.232000
v 6.078000 11.149000 -2.943000
v 6.078000 11.149000 1.342000
v 6.578000 11.149000 -2.770000
v 6.578000 11.149000 1.427000
v 7.078000 11.149000 -2.639000
v 7.078000 11.149000 1.524000
v 7.578000 11.149000 -2.281000
v 7.578000 11.149000 1.442000
v 8.078000 11.149000 -1.878000
v 8.078000 11.149000 1.129000
v 4.578000 10.910000 -2.154000
v 4.578000 14.302000 -2.154000
v 5.078000 10.576000 -2.154000
v 5.078000 14.642000 -2.154000
v 5.578000 10.282000 -2.154000
v 5.578000 14.738000 -2.154000
v 6.078000 10.166000 -2.154000
v 6.078000 14.648000 -2.154000
v 6.578000 10.213000 -2.154000
v 6.578000 14.319000 -2.154000
v 7.078000 10.348000 -2.154000
v 7.078000 13.838000 -2.154000
v 7.578000 10.821000 -2.154000
v 7.578000 12.501000 -2.154000
f 89 313 327
f 327 313 37
f 313 371 37
f 313 373 371
f 373 7 371
f 9 7 373
f 9 59 7
f 61 59 9
f 61 111 59
f 113 111 61
f 113 161 111
f 163 161 113
f 163 207 161
f 209 207 163
f 280 259 90
f 259 209 90
f 259 207 209
f 280 38 259
f 91 247 267
f 89 327 247
f 247 327 267
f 327 311 267
f 311 39 267
f 327 37 311
f 261 280 90
f 261 92 280
f 92 38 280
f 92 40 38
f 245 41 267
f 41 91 267
f 41 93 91
f 267 39 245
f 94 344 325
f 40 94 325
f 92 94 40
f 344 42 325
f 95 41 43
f 95 93 41
f 44 326 344
f 94 44 344
f 96 44 94
f 42 344 326
f 97 43 45
f 97 95 43
f 44 98 46
f 96 98 44
f 99 45 47
f 99 97 45
f 262 100 48
f 262 48 260
f 260 46 262
f 262 46 98
f 277 101 246
f 101 47 246
f 101 99 47
f 49 277 246
f 164 102 50
f 164 50 162
f 208 164 162
f 208 210 164
f 208 48 210
f 210 48 100
f 277 248 101
f 341 103 312
f 312 103 49
f 103 248 49
f 248 277 49
f 51 341 312
f 60 87 52
f 114 104 87
f 60 114 87
f 112 114 60
f 112 50 114
f 114 50 102
f 341 314 103
f 51 372 341
f 372 314 341
f 372 374 314
f 8 374 372
f 8 10 374
f 87 62 52
f 62 8 52
f 62 10 8
f 87 104 62
f 139 315 89
f 89 315 313
f 315 373 313
f 375 373 315
f 375 9 373
f 11 9 375
f 11 61 9
f 63 61 11
f 63 113 61
f 115 113 63
f 115 163 113
f 165 163 115
f 218 209 140
f 209 165 140
f 209 163 165
f 218 90 209
f 141 249 91
f 91 249 247
f 89 247 249
f 89 249 139
f 211 218 140
f 142 282 261
f 142 261 90
f 211 142 90
f 218 211 90
f 282 92 261
f 143 91 93
f 143 141 91
f 263 282 142
f 263 144 282
f 144 92 282
f 144 94 92
f 145 93 95
f 145 143 93
f 94 146 96
f 144 146 94
f 147 95 97
f 147 145 95
f 96 148 98
f 146 148 96
f 149 97 99
f 149 147 97
f 264 150 100
f 264 100 262
f 262 98 264
f 264 98 148
f 151 99 101
f 151 149 99
f 166 152 102
f 166 102 164
f 210 166 164
f 210 212 166
f 210 100 212
f 212 100 150
f 101 248 151
f 151 248 250
f 153 250 248
f 153 248 103
f 116 154 104
f 116 104 114
f 114 102 116
f 116 102 152
f 103 314 153
f 153 314 316
f 374 316 314
f 374 376 316
f 10 376 374
f 10 12 376
f 62 12 10
f 62 64 12
f 62 104 64
f 64 104 154
f 328 315 139
f 185 377 328
f 377 315 328
f 377 375 315
f 377 11 375
f 13 11 377
f 13 63 11
f 65 63 13
f 65 115 63
f 117 115 65
f 174 165 186
f 165 117 186
f 165 115 117
f 174 140 165
f 268 249 141
f 317 328 139
f 317 139 249
f 187 317 249
f 268 187 249
f 185 328 317
f 167 174 186
f 211 140 174
f 167 211 174
f 213 211 167
f 213 188 211
f 211 188 142
f 268 141 251
f 141 189 251
f 141 143 189
f 187 268 251
f 263 142 188
f 263 188 265
f 265 190 263
f 263 190 144
f 191 143 145
f 191 189 143
f 144 192 146
f 190 192 144
f 193 145 147
f 193 191 145
f 146 194 148
f 192 194 146
f 195 147 149
f 195 193 147
f 266 196 150
f 266 150 264
f 264 148 266
f 266 148 194
f 197 149 151
f 197 195 149
f 168 198 152
f 168 152 166
f 212 168 166
f 212 214 168
f 212 150 214
f 214 150 196
f 151 250 197
f 197 250 252
f 199 252 250
f 199 250 153
f 118 200 154
f 118 154 116
f 116 152 118
f 118 152 198
f 153 316 199
f 199 316 318
f 376 318 316
f 376 378 318
f 12 378 376
f 12 14 378
f 64 14 12
f 64 66 14
f 64 154 66
f 66 154 200
f 386 377 185
f 229 15 386
f 15 377 386
f 15 13 377
f 15 65 13
f 67 65 15
f 126 117 230
f 117 67 230
f 117 65 67
f 126 186 117
f 330 317 187
f 379 386 185
f 379 185 317
f 231 379 317
f 330 231 317
f 229 386 379
f 119 126 230
f 167 186 126
f 119 167 126
f 169 167 119
f 220 213 232
f 213 169 232
f 213 167 169
f 220 188 213
f 270 251 189
f 319 330 187
f 319 187 251
f 233 319 251
f 270 233 251
f 231 330 319
f 215 220 232
f 234 284 265
f 234 265 188
f 215 234 188
f 220 215 188
f 284 190 265
f 191 272 189
f 189 272 270
f 233 270 272
f 233 272 235
f 236 286 284
f 236 284 234
f 190 284 192
f 192 284 286
f 272 191 253
f 191 237 253
f 191 193 237
f 235 272 253
f 238 288 286
f 238 286 236
f 192 286 194
f 194 286 288
f 239 193 195
f 239 237 193
f 216 240 228
f 288 238 216
f 288 216 228
f 266 288 228
f 196 266 228
f 194 288 266
f 241 195 197
f 241 239 195
f 170 242 198
f 170 198 168
f 240 170 228
f 170 214 228
f 170 168 214
f 196 228 214
f 197 252 241
f 241 252 254
f 243 254 252
f 243 252 199
f 120 244 200
f 120 200 118
f 118 198 120
f 120 198 242
f 199 318 243
f 243 318 320
f 378 320 318
f 378 380 320
f 14 380 378
f 14 16 380
f 66 16 14
f 66 68 16
f 66 200 68
f 68 200 244
f 289 1 23
f 23 1 75
f 75 1 53
f 75 53 127
f 127 53 105
f 127 105 175
f 175 105 155
f 175 155 219
f 219 155 201
f 201 290 219
f 25 291 23
f 23 291 289
f 23 77 25
f 23 75 77
f 75 129 77
f 75 127 129
f 127 177 129
f 127 175 177
f 175 221 177
f 175 219 221
f 219 290 221
f 221 290 292
f 25 2 291
f 2 25 293
f 25 79 293
f 25 77 79
f 77 131 79
f 77 129 131
f 129 179 131
f 129 177 179
f 177 223 179
f 177 221 223
f 221 292 223
f 223 292 294
f 79 54 293
f 54 79 106
f 106 79 131
f 106 131 156
f 156 131 179
f 156 179 202
f 202 179 223
f 223 294 202
f 22 15 229
f 74 67 22
f 22 67 15
f 74 230 67
f 388 379 231
f 17 22 229
f 17 229 379
f 295 17 379
f 388 295 379
f 22 17 69
f 22 69 74
f 119 230 74
f 69 119 74
f 121 119 69
f 176 169 296
f 169 121 296
f 169 119 121
f 176 232 169
f 332 319 233
f 381 388 231
f 381 231 319
f 297 381 319
f 332 297 319
f 295 388 381
f 171 176 296
f 298 222 215
f 298 215 232
f 171 298 232
f 176 171 232
f 222 234 215
f 332 233 321
f 233 299 321
f 233 235 299
f 297 332 321
f 300 224 222
f 300 222 298
f 234 222 236
f 236 222 224
f 274 253 237
f 235 253 274
f 301 235 274
f 299 235 301
f 302 226 224
f 302 224 300
f 236 224 238
f 238 224 226
f 239 276 237
f 237 276 274
f 301 274 276
f 301 276 303
f 172 304 184
f 226 302 172
f 226 172 184
f 216 226 184
f 240 216 184
f 238 226 216
f 241 278 239
f 239 278 276
f 303 276 278
f 303 278 305
f 122 306 138
f 184 304 122
f 184 122 138
f 170 184 138
f 242 170 138
f 240 184 170
f 254 278 241
f 322 305 342
f 342 305 243
f 305 278 243
f 278 254 243
f 307 322 342
f 70 308 88
f 138 306 70
f 138 70 88
f 120 138 88
f 244 120 88
f 242 138 120
f 320 342 243
f 342 320 307
f 320 382 307
f 320 380 382
f 16 382 380
f 16 18 382
f 308 18 88
f 18 68 88
f 18 16 68
f 244 88 68
f 345 3 21
f 21 3 73
f 73 3 55
f 73 55 125
f 125 55 107
f 125 107 173
f 173 107 157
f 173 157 217
f 217 157 203
f 203 346 217
f 347 367 387
f 345 21 367
f 367 21 387
f 21 1 387
f 1 289 387
f 73 53 1
f 73 1 21
f 125 105 53
f 125 53 73
f 173 155 105
f 173 105 125
f 217 201 155
f 217 155 173
f 346 255 281
f 346 281 290
f 217 346 290
f 201 217 290
f 255 348 281
f 389 349 387
f 387 349 347
f 387 289 291
f 387 291 389
f 283 292 290
f 283 290 281
f 281 348 283
f 283 348 350
f 391 351 389
f 389 351 349
f 389 291 2
f 27 389 2
f 391 389 27
f 293 27 2
f 285 294 292
f 285 292 283
f 283 350 285
f 285 350 352
f 393 353 391
f 391 353 351
f 391 29 393
f 391 27 29
f 27 293 54
f 81 27 54
f 29 27 81
f 106 133 81
f 106 81 54
f 156 181 133
f 156 133 106
f 202 225 181
f 202 181 156
f 285 256 294
f 294 256 202
f 256 354 202
f 354 225 202
f 285 352 256
f 393 368 353
f 368 393 355
f 393 31 355
f 393 29 31
f 29 83 31
f 29 81 83
f 81 135 83
f 81 133 135
f 133 183 135
f 133 181 183
f 356 183 204
f 183 225 204
f 183 181 225
f 225 354 204
f 31 4 355
f 4 31 56
f 56 31 83
f 56 83 108
f 108 83 135
f 108 135 158
f 158 135 183
f 183 356 158
f 24 17 295
f 76 69 24
f 24 69 17
f 128 121 76
f 76 121 69
f 128 296 121
f 390 381 297
f 19 24 295
f 19 295 381
f 357 19 381
f 390 357 381
f 24 19 71
f 24 71 76
f 76 71 123
f 76 123 128
f 358 178 171
f 358 171 296
f 123 358 296
f 128 123 296
f 178 298 171
f 334 321 299
f 321 334 297
f 334 390 297
f 334 392 390
f 357 390 392
f 357 392 359
f 360 180 178
f 360 178 358
f 298 178 300
f 300 178 180
f 301 336 299
f 299 336 334
f 336 361 383
f 392 336 383
f 334 336 392
f 359 392 383
f 362 182 180
f 362 180 360
f 300 180 302
f 302 180 182
f 303 338 301
f 301 338 336
f 361 336 338
f 361 338 363
f 124 364 136
f 182 362 124
f 182 124 136
f 172 182 136
f 304 172 136
f 302 182 172
f 305 340 303
f 303 340 338
f 363 338 340
f 363 340 365
f 72 366 86
f 136 364 72
f 136 72 86
f 122 136 86
f 306 122 86
f 304 136 122
f 322 340 305
f 384 365 400
f 400 365 307
f 365 340 307
f 340 322 307
f 384 400 36
f 384 36 20
f 86 366 20
f 86 20 36
f 70 86 36
f 308 70 36
f 306 86 70
f 382 400 307
f 18 36 382
f 382 36 400
f 308 36 18
f 401 369 385
f 385 369 345
f 369 3 345
f 369 5 3
f 5 55 3
f 57 55 5
f 57 107 55
f 109 107 57
f 109 157 107
f 159 157 109
f 159 203 157
f 205 203 159
f 346 203 279
f 203 257 279
f 203 205 257
f 257 402 279
f 403 309 329
f 401 385 309
f 309 385 329
f 385 367 329
f 367 347 329
f 385 345 367
f 279 255 346
f 279 402 255
f 402 348 255
f 402 404 348
f 331 405 329
f 329 405 403
f 329 347 349
f 329 349 331
f 404 323 343
f 350 404 343
f 348 404 350
f 323 406 343
f 333 407 331
f 331 407 405
f 331 349 351
f 331 351 333
f 350 343 324
f 408 350 324
f 352 350 408
f 343 406 324
f 335 409 333
f 333 409 407
f 333 351 353
f 333 353 335
f 256 287 354
f 256 352 287
f 352 410 287
f 352 408 410
f 337 411 335
f 335 411 409
f 335 353 368
f 395 335 368
f 337 335 395
f 355 395 368
f 204 227 356
f 287 258 354
f 354 258 204
f 258 412 204
f 412 227 204
f 287 410 258
f 337 310 411
f 310 337 413
f 337 397 413
f 337 395 397
f 395 355 4
f 33 395 4
f 397 395 33
f 56 85 33
f 56 33 4
f 110 414 85
f 56 110 85
f 108 110 56
f 158 110 108
f 158 160 110
f 227 206 356
f 206 158 356
f 206 160 158
f 227 412 206
f 397 370 413
f 370 397 6
f 6 397 33
f 6 33 58
f 58 33 85
f 85 414 58
f 26 19 357
f 78 71 26
f 26 71 19
f 130 123 78
f 78 123 71
f 130 358 123
f 359 28 357
f 357 28 26
f 80 26 28
f 78 26 80
f 132 78 80
f 130 78 132
f 358 130 360
f 360 130 132
f 394 383 361
f 383 394 359
f 394 28 359
f 394 30 28
f 82 28 30
f 80 28 82
f 134 80 82
f 132 80 134
f 360 132 362
f 362 132 134
f 363 396 361
f 361 396 394
f 32 394 396
f 30 394 32
f 84 30 32
f 82 30 84
f 124 134 364
f 134 84 364
f 134 82 84
f 362 134 124
f 365 398 363
f 363 398 396
f 34 396 398
f 32 396 34
f 72 84 366
f 84 34 366
f 84 32 34
f 364 84 72
f 384 398 365
f 20 34 384
f 384 34 398
f 366 34 20
f 37 371 401
f 401 371 369
f 371 5 369
f 7 5 371
f 7 57 5
f 59 57 7
f 59 109 57
f 111 109 59
f 111 159 109
f 161 159 111
f 161 205 159
f 207 205 161
f 207 257 205
f 259 257 207
f 259 38 257
f 257 38 402
f 39 311 403
f 403 311 309
f 401 309 311
f 401 311 37
f 402 40 404
f 38 40 402
f 41 245 269
f 405 269 245
f 39 405 245
f 403 405 39
f 323 404 40
f 323 40 325
f 325 42 323
f 323 42 406
f 271 43 269
f 269 43 41
f 269 405 407
f 269 407 271
f 326 44 408
f 326 408 324
f 324 406 326
f 326 406 42
f 273 45 271
f 271 45 43
f 271 407 409
f 271 409 273
f 408 46 410
f 44 46 408
f 275 47 273
f 273 47 45
f 273 409 411
f 273 411 275
f 260 48 412
f 260 412 258
f 258 410 260
f 260 410 46
f 275 246 47
f 339 49 310
f 310 49 411
f 49 246 411
f 246 275 411
f 413 339 310
f 110 137 414
f 162 50 137
f 110 162 137
f 160 162 110
f 206 162 160
f 206 208 162
f 206 412 208
f 208 412 48
f 339 312 49
f 399 51 370
f 370 51 413
f 51 312 413
f 312 339 413
f 6 35 399
f 6 399 370
f 60 52 35
f 6 60 35
f 58 60 6
f 137 112 414
f 112 58 414
f 112 60 58
f 137 50 112
f 399 372 51
f 372 399 8
f 8 399 35
f 35 52 8
