# Converted from NanoShaper .vert/.face
v -12.656000 -10.873000 10.254000
v -10.545000 -10.873000 10.254000
v -13.260000 -10.873000 10.754000
v -10.178000 -10.873000 10.754000
v -13.374000 -10.873000 11.254000
v -10.069000 -10.873000 11.254000
v -13.368000 -10.873000 11.754000
v -9.996000 -10.873000 11.754000
v -13.346000 -10.873000 12.254000
v -9.871000 -10.873000 12.254000
v -13.373000 -10.873000 12.754000
v -9.682000 -10.873000 12.754000
v -13.409000 -10.873000 13.254000
v -9.597000 -10.873000 13.254000
v -13.673000 -10.873000 13.754000
v -9.710000 -10.873000 13.754000
v -13.876000 -10.873000 14.254000
v -10.074000 -10.873000 14.254000
v -14.215000 -10.873000 14.754000
v -10.365000 -10.873000 14.754000
v -14.356000 -10.873000 15.254000
v -10.463000 -10.873000 15.254000
v -14.372000 -10.873000 15.754000
v -10.546000 -10.873000 15.754000
v -14.215000 -10.873000 16.254000
v -10.852000 -10.873000 16.254000
v -12.312000 -6.873000 11.754000
v -11.040000 -6.873000 11.754000
v -12.788000 -6.873000 12.254000
v -10.564000 -6.873000 12.254000
v -12.931000 -6.873000 12.754000
v -10.421000 -6.873000 12.754000
v -12.806000 -6.873000 13.254000
v -10.451000 -6.873000 13.254000
v -12.262000 -6.873000 13.754000
v -10.581000 -6.873000 13.754000
v -13.895000 -10.873000 14.294000
v -13.895000 -10.873000 16.567000
v -13.395000 -10.873000 13.198000
v -13.395000 -10.873000 16.716000
v -12.895000 -10.873000 10.361000
v -12.895000 -10.873000 16.722000
v -12.395000 -10.873000 10.199000
v -12.395000 -10.873000 16.689000
v -11.895000 -10.873000 10.041000
v -11.895000 -10.873000 16.688000
v -11.395000 -10.873000 9.922000
v -11.395000 -10.873000 16.607000
v -10.895000 -10.873000 10.035000
v -10.895000 -10.873000 16.296000
v -10.395000 -10.873000 10.402000
v -10.395000 -10.873000 14.846000
v -9.895000 -10.873000 12.147000
v -9.895000 -10.873000 14.055000
v -12.895000 -6.873000 12.503000
v -12.895000 -6.873000 13.035000
v -12.395000 -6.873000 11.826000
v -12.395000 -6.873000 13.657000
v -11.895000 -6.873000 11.553000
v -11.895000 -6.873000 14.086000
v -11.395000 -6.873000 11.616000
v -11.395000 -6.873000 14.224000
v -10.895000 -6.873000 11.876000
v -10.895000 -6.873000 14.078000
v -13.895000 -10.264000 11.254000
v -13.895000 -8.352000 11.254000
v -13.395000 -10.851000 11.254000
v -13.395000 -7.864000 11.254000
v -12.895000 -11.282000 11.254000
v -12.895000 -7.352000 11.254000
v -12.395000 -11.728000 11.254000
v -12.395000 -7.019000 11.254000
v -11.895000 -12.194000 11.254000
v -11.895000 -6.922000 11.254000
v -11.395000 -12.318000 11.254000
v -11.395000 -6.955000 11.254000
v -10.895000 -12.166000 11.254000
v -10.895000 -7.034000 11.254000
v -10.395000 -11.651000 11.254000
v -10.395000 -7.334000 11.254000
v -9.895000 -9.679000 11.254000
v -9.895000 -8.302000 11.254000
v -14.395000 -10.833000 15.254000
v -14.395000 -8.928000 15.254000
v -13.895000 -11.363000 15.254000
v -13.895000 -8.583000 15.254000
v -13.395000 -11.901000 15.254000
v -13.395000 -8.383000 15.254000
v -12.895000 -12.220000 15.254000
v -12.895000 -8.117000 15.254000
v -12.395000 -12.307000 15.254000
v -12.395000 -8.034000 15.254000
v -11.895000 -12.242000 15.254000
v -11.895000 -8.136000 15.254000
v -11.395000 -12.156000 15.254000
v -11.395000 -8.445000 15.254000
v -10.895000 -11.846000 15.254000
v -10.895000 -9.040000 15.254000
v -12.641000 -10.373000 9.754000
v -10.732000 -10.373000 9.754000
v -13.307000 -10.373000 10.254000
v -10.359000 -10.373000 10.254000
v -13.647000 -10.373000 10.754000
v -10.079000 -10.373000 10.754000
v -13.786000 -10.373000 11.254000
v -9.975000 -10.373000 11.254000
v -13.871000 -10.373000 11.754000
v -9.858000 -10.373000 11.754000
v -13.863000 -10.373000 12.254000
v -9.618000 -10.373000 12.254000
v -13.806000 -10.373000 12.754000
v -9.533000 -10.373000 12.754000
v -13.895000 -10.373000 13.254000
v -9.516000 -10.373000 13.254000
v -14.063000 -10.373000 13.754000
v -9.621000 -10.373000 13.754000
v -14.263000 -10.373000 14.254000
v -9.972000 -10.373000 14.254000
v -14.577000 -10.373000 14.754000
v -10.348000 -10.373000 14.754000
v -14.680000 -10.373000 15.254000
v -10.519000 -10.373000 15.254000
v -14.687000 -10.373000 15.754000
v -10.630000 -10.373000 15.754000
v -14.572000 -10.373000 16.254000
v -10.964000 -10.373000 16.254000
v -14.178000 -10.373000 16.754000
v -12.414000 -10.373000 16.754000
v -14.395000 -10.373000 14.447000
v -14.395000 -10.373000 16.541000
v -13.895000 -10.373000 13.254000
v -13.895000 -10.373000 16.921000
v -13.395000 -10.373000 10.378000
v -13.395000 -10.373000 17.029000
v -12.895000 -10.373000 9.858000
v -12.895000 -10.373000 16.940000
v -12.395000 -10.373000 9.714000
v -12.395000 -10.373000 16.748000
v -11.895000 -10.373000 9.599000
v -11.895000 -10.373000 16.628000
v -11.395000 -10.373000 9.382000
v -11.395000 -10.373000 16.522000
v -10.895000 -10.373000 9.593000
v -10.895000 -10.373000 16.184000
v -10.395000 -10.373000 10.198000
v -10.395000 -10.373000 14.857000
v -9.895000 -10.373000 11.650000
v -9.895000 -10.373000 14.178000
v -13.895000 -10.349000 11.754000
v -13.895000 -8.034000 11.754000
v -13.395000 -10.846000 11.754000
v -13.395000 -7.708000 11.754000
v -12.895000 -11.405000 11.754000
v -12.895000 -7.288000 11.754000
v -12.395000 -12.210000 11.754000
v -12.395000 -6.906000 11.754000
v -11.895000 -12.559000 11.754000
v -11.895000 -6.807000 11.754000
v -11.395000 -12.649000 11.754000
v -11.395000 -6.818000 11.754000
v -10.895000 -12.540000 11.754000
v -10.895000 -6.928000 11.754000
v -10.395000 -12.155000 11.754000
v -10.395000 -7.307000 11.754000
v -9.895000 -10.494000 11.754000
v -9.895000 -7.936000 11.754000
v -14.395000 -10.849000 15.754000
v -14.395000 -8.939000 15.754000
v -13.895000 -11.257000 15.754000
v -13.895000 -8.596000 15.754000
v -13.395000 -11.783000 15.754000
v -13.395000 -8.476000 15.754000
v -12.895000 -12.133000 15.754000
v -12.895000 -8.408000 15.754000
v -12.395000 -12.226000 15.754000
v -12.395000 -8.382000 15.754000
v -11.895000 -12.162000 15.754000
v -11.895000 -8.543000 15.754000
v -11.395000 -12.072000 15.754000
v -11.395000 -8.955000 15.754000
v -10.895000 -11.733000 15.754000
v -10.895000 -9.931000 15.754000
v -12.189000 -9.873000 8.754000
v -10.555000 -9.873000 8.754000
v -12.559000 -9.873000 9.254000
v -10.420000 -9.873000 9.254000
v -13.271000 -9.873000 9.754000
v -10.358000 -9.873000 9.754000
v -13.661000 -9.873000 10.254000
v -10.230000 -9.873000 10.254000
v -14.031000 -9.873000 10.754000
v -10.089000 -9.873000 10.754000
v -14.143000 -9.873000 11.254000
v -9.929000 -9.873000 11.254000
v -14.197000 -9.873000 11.754000
v -9.678000 -9.873000 11.754000
v -14.226000 -9.873000 12.254000
v -9.524000 -9.873000 12.254000
v -14.312000 -9.873000 12.754000
v -9.455000 -9.873000 12.754000
v -14.267000 -9.873000 13.254000
v -9.462000 -9.873000 13.254000
v -14.274000 -9.873000 13.754000
v -9.559000 -9.873000 13.754000
v -14.435000 -9.873000 14.254000
v -9.896000 -9.873000 14.254000
v -14.673000 -9.873000 14.754000
v -10.401000 -9.873000 14.754000
v -14.769000 -9.873000 15.254000
v -10.686000 -9.873000 15.254000
v -14.771000 -9.873000 15.754000
v -10.933000 -9.873000 15.754000
v -14.664000 -9.873000 16.254000
v -11.311000 -9.873000 16.254000
v -14.310000 -9.873000 16.754000
v -12.385000 -9.873000 16.754000
v -14.395000 -9.873000 14.158000
v -14.395000 -9.873000 16.670000
v -13.895000 -9.873000 10.519000
v -13.895000 -9.873000 17.013000
v -13.395000 -9.873000 9.881000
v -13.395000 -9.873000 17.114000
v -12.895000 -9.873000 9.502000
v -12.895000 -9.873000 17.030000
v -12.395000 -9.873000 9.083000
v -12.395000 -9.873000 16.759000
v -11.895000 -9.873000 8.445000
v -11.895000 -9.873000 16.582000
v -11.395000 -9.873000 8.287000
v -11.395000 -9.873000 16.320000
v -10.895000 -9.873000 8.416000
v -10.895000 -9.873000 15.676000
v -10.395000 -9.873000 9.520000
v -10.395000 -9.873000 14.745000
v -9.895000 -9.873000 11.323000
v -9.895000 -9.873000 14.253000
v -11.895000 -9.693000 8.254000
v -11.895000 -7.994000 8.254000
v -11.395000 -9.841000 8.254000
v -11.395000 -7.846000 8.254000
v -10.895000 -9.720000 8.254000
v -10.895000 -7.967000 8.254000
v -10.395000 -9.047000 8.254000
v -10.395000 -8.640000 8.254000
v -14.395000 -9.632000 12.254000
v -14.395000 -8.085000 12.254000
v -13.895000 -10.341000 12.254000
v -13.895000 -7.678000 12.254000
v -13.395000 -10.827000 12.254000
v -13.395000 -7.462000 12.254000
v -12.895000 -11.405000 12.254000
v -12.895000 -6.979000 12.254000
v -12.395000 -12.346000 12.254000
v -12.395000 -6.637000 12.254000
v -11.895000 -12.659000 12.254000
v -11.895000 -6.552000 12.254000
v -11.395000 -12.743000 12.254000
v -11.395000 -6.548000 12.254000
v -10.895000 -12.641000 12.254000
v -10.895000 -6.661000 12.254000
v -10.395000 -12.299000 12.254000
v -10.395000 -7.054000 12.254000
v -9.895000 -10.934000 12.254000
v -9.895000 -7.535000 12.254000
v -14.395000 -10.684000 16.254000
v -14.395000 -9.105000 16.254000
v -13.895000 -11.076000 16.254000
v -13.895000 -8.713000 16.254000
v -13.395000 -11.358000 16.254000
v -13.395000 -8.603000 16.254000
v -12.895000 -11.791000 16.254000
v -12.895000 -8.690000 16.254000
v -12.395000 -11.916000 16.254000
v -12.395000 -8.840000 16.254000
v -11.895000 -11.853000 16.254000
v -11.895000 -8.977000 16.254000
v -11.395000 -11.737000 16.254000
v -11.395000 -9.651000 16.254000
v -10.895000 -11.132000 16.254000
v -10.895000 -10.545000 16.254000
v -12.217000 -9.373000 8.254000
v -10.526000 -9.373000 8.254000
v -12.575000 -9.373000 8.754000
v -10.169000 -9.373000 8.754000
v -12.859000 -9.373000 9.254000
v -10.076000 -9.373000 9.254000
v -13.386000 -9.373000 9.754000
v -10.064000 -9.373000 9.754000
v -13.807000 -9.373000 10.254000
v -10.088000 -9.373000 10.254000
v -14.152000 -9.373000 10.754000
v -10.015000 -9.373000 10.754000
v -14.254000 -9.373000 11.254000
v -9.861000 -9.373000 11.254000
v -14.334000 -9.373000 11.754000
v -9.587000 -9.373000 11.754000
v -14.538000 -9.373000 12.254000
v -9.489000 -9.373000 12.254000
v -14.653000 -9.373000 12.754000
v -9.508000 -9.373000 12.754000
v -14.569000 -9.373000 13.254000
v -9.520000 -9.373000 13.254000
v -14.451000 -9.373000 13.754000
v -9.612000 -9.373000 13.754000
v -14.452000 -9.373000 14.254000
v -9.937000 -9.373000 14.254000
v -14.573000 -9.373000 14.754000
v -10.398000 -9.373000 14.754000
v -14.674000 -9.373000 15.254000
v -10.826000 -9.373000 15.254000
v -14.671000 -9.373000 15.754000
v -11.143000 -9.373000 15.754000
v -14.554000 -9.373000 16.254000
v -11.497000 -9.373000 16.254000
v -14.152000 -9.373000 16.754000
v -12.587000 -9.373000 16.754000
v -14.395000 -9.373000 11.936000
v -14.395000 -9.373000 16.516000
v -13.895000 -9.373000 10.342000
v -13.895000 -9.373000 16.904000
v -13.395000 -9.373000 9.763000
v -13.395000 -9.373000 17.013000
v -12.895000 -9.373000 9.297000
v -12.895000 -9.373000 16.923000
v -12.395000 -9.373000 8.441000
v -12.395000 -9.373000 16.652000
v -11.895000 -9.373000 8.050000
v -11.895000 -9.373000 16.494000
v -11.395000 -9.373000 7.940000
v -11.395000 -9.373000 16.153000
v -10.895000 -9.373000 8.031000
v -10.895000 -9.373000 15.338000
v -10.395000 -9.373000 8.384000
v -10.395000 -9.373000 14.750000
v -9.895000 -9.373000 11.178000
v -9.895000 -9.373000 14.210000
v -12.395000 -9.669000 8.754000
v -12.395000 -8.001000 8.754000
v -11.895000 -10.049000 8.754000
v -11.895000 -7.519000 8.754000
v -11.395000 -10.158000 8.754000
v -11.395000 -7.402000 8.754000
v -10.895000 -10.069000 8.754000
v -10.895000 -7.555000 8.754000
v -10.395000 -9.723000 8.754000
v -10.395000 -7.964000 8.754000
v -14.395000 -9.789000 12.754000
v -14.395000 -7.917000 12.754000
v -13.895000 -10.287000 12.754000
v -13.895000 -7.562000 12.754000
v -13.395000 -10.851000 12.754000
v -13.395000 -7.326000 12.754000
v -12.895000 -11.356000 12.754000
v -12.895000 -6.838000 12.754000
v -12.395000 -12.215000 12.754000
v -12.395000 -6.532000 12.754000
v -11.895000 -12.562000 12.754000
v -11.895000 -6.454000 12.754000
v -11.395000 -12.652000 12.754000
v -11.395000 -6.449000 12.754000
v -10.895000 -12.543000 12.754000
v -10.895000 -6.553000 12.754000
v -10.395000 -12.160000 12.754000
v -10.395000 -6.901000 12.754000
v -9.895000 -11.291000 12.754000
v -9.895000 -7.420000 12.754000
v -13.895000 -10.673000 16.754000
v -13.895000 -9.116000 16.754000
v -13.395000 -10.832000 16.754000
v -13.395000 -8.957000 16.754000
v -12.895000 -10.802000 16.754000
v -12.895000 -9.087000 16.754000
v -12.395000 -10.286000 16.754000
v -12.395000 -9.766000 16.754000
v -12.369000 -8.873000 8.254000
v -10.374000 -8.873000 8.254000
v -12.686000 -8.873000 8.754000
v -10.058000 -8.873000 8.754000
v -12.941000 -8.873000 9.254000
v -9.972000 -8.873000 9.254000
v -13.393000 -8.873000 9.754000
v -9.958000 -8.873000 9.754000
v -13.754000 -8.873000 10.254000
v -9.984000 -8.873000 10.254000
v -14.072000 -8.873000 10.754000
v -9.948000 -8.873000 10.754000
v -14.193000 -8.873000 11.254000
v -9.813000 -8.873000 11.254000
v -14.364000 -8.873000 11.754000
v -9.549000 -8.873000 11.754000
v -14.647000 -8.873000 12.254000
v -9.459000 -8.873000 12.254000
v -14.754000 -8.873000 12.754000
v -9.513000 -8.873000 12.754000
v -14.675000 -8.873000 13.254000
v -9.522000 -8.873000 13.254000
v -14.448000 -8.873000 13.754000
v -9.620000 -8.873000 13.754000
v -14.289000 -8.873000 14.254000
v -9.958000 -8.873000 14.254000
v -14.263000 -8.873000 14.754000
v -10.518000 -8.873000 14.754000
v -14.341000 -8.873000 15.254000
v -10.966000 -8.873000 15.254000
v -14.329000 -8.873000 15.754000
v -11.477000 -8.873000 15.754000
v -14.164000 -8.873000 16.254000
v -12.187000 -8.873000 16.254000
v -14.395000 -8.873000 11.812000
v -14.395000 -8.873000 13.888000
v -13.895000 -8.873000 10.455000
v -13.895000 -8.873000 16.517000
v -13.395000 -8.873000 9.755000
v -13.395000 -8.873000 16.672000
v -12.895000 -8.873000 9.188000
v -12.895000 -8.873000 16.545000
v -12.395000 -8.873000 8.281000
v -12.395000 -8.873000 16.291000
v -11.895000 -8.873000 7.938000
v -11.895000 -8.873000 16.152000
v -11.395000 -8.873000 7.836000
v -11.395000 -8.873000 15.656000
v -10.895000 -8.873000 7.920000
v -10.895000 -8.873000 15.183000
v -10.395000 -8.873000 8.233000
v -10.395000 -8.873000 14.640000
v -9.895000 -8.873000 11.028000
v -9.895000 -8.873000 14.189000
v -12.895000 -9.187000 9.254000
v -12.895000 -8.540000 9.254000
v -12.395000 -9.996000 9.254000
v -12.395000 -7.488000 9.254000
v -11.895000 -10.196000 9.254000
v -11.895000 -7.148000 9.254000
v -11.395000 -10.313000 9.254000
v -11.395000 -7.064000 9.254000
v -10.895000 -10.208000 9.254000
v -10.895000 -7.180000 9.254000
v -10.395000 -9.849000 9.254000
v -10.395000 -7.581000 9.254000
v -14.395000 -9.693000 13.254000
v -14.395000 -8.039000 13.254000
v -13.895000 -10.373000 13.254000
v -13.895000 -7.647000 13.254000
v -13.395000 -10.887000 13.254000
v -13.395000 -7.434000 13.254000
v -12.895000 -11.414000 13.254000
v -12.895000 -6.961000 13.254000
v -12.395000 -11.941000 13.254000
v -12.395000 -6.624000 13.254000
v -11.895000 -12.261000 13.254000
v -11.895000 -6.532000 13.254000
v -11.395000 -12.338000 13.254000
v -11.395000 -6.500000 13.254000
v -10.895000 -12.188000 13.254000
v -10.895000 -6.596000 13.254000
v -10.395000 -11.808000 13.254000
v -10.395000 -6.928000 13.254000
v -9.895000 -11.366000 13.254000
v -9.895000 -7.587000 13.254000
v -12.220000 -12.373000 11.754000
v -10.616000 -12.373000 11.754000
v -12.366000 -12.373000 12.254000
v -10.471000 -12.373000 12.254000
v -12.226000 -12.373000 12.754000
v -10.611000 -12.373000 12.754000
v -12.252000 -8.373000 8.254000
v -10.492000 -8.373000 8.254000
v -12.599000 -8.373000 8.754000
v -10.144000 -8.373000 8.754000
v -12.832000 -8.373000 9.254000
v -10.051000 -8.373000 9.254000
v -13.262000 -8.373000 9.754000
v -10.023000 -8.373000 9.754000
v -13.627000 -8.373000 10.254000
v -10.034000 -8.373000 10.254000
v -13.774000 -8.373000 10.754000
v -9.997000 -8.373000 10.754000
v -13.915000 -8.373000 11.254000
v -9.881000 -8.373000 11.254000
v -14.200000 -8.373000 11.754000
v -9.637000 -8.373000 11.754000
v -14.555000 -8.373000 12.254000
v -9.536000 -8.373000 12.254000
v -14.669000 -8.373000 12.754000
v -9.513000 -8.373000 12.754000
v -14.586000 -8.373000 13.254000
v -9.594000 -8.373000 13.254000
v -14.262000 -8.373000 13.754000
v -9.730000 -8.373000 13.754000
v -13.782000 -8.373000 14.254000
v -10.113000 -8.373000 14.254000
v -13.493000 -8.373000 14.754000
v -10.848000 -8.373000 14.754000
v -13.377000 -8.373000 15.254000
v -11.509000 -8.373000 15.254000
v -11.895000 -12.373000 11.439000
v -11.895000 -12.373000 13.081000
v -11.395000 -12.373000 11.311000
v -11.395000 -12.373000 13.208000
v -10.895000 -12.373000 11.468000
v -10.895000 -12.373000 13.048000
v -14.395000 -8.373000 11.986000
v -14.395000 -8.373000 13.595000
v -13.895000 -8.373000 11.194000
v -13.895000 -8.373000 14.145000
v -13.395000 -8.373000 9.884000
v -13.395000 -8.373000 15.213000
v -12.895000 -8.373000 9.338000
v -12.895000 -8.373000 15.696000
v -12.395000 -8.373000 8.404000
v -12.395000 -8.373000 15.745000
v -11.895000 -8.373000 8.025000
v -11.895000 -8.373000 15.592000
v -11.395000 -8.373000 7.917000
v -11.395000 -8.373000 15.176000
v -10.895000 -8.373000 8.006000
v -10.895000 -8.373000 14.801000
v -10.395000 -8.373000 8.350000
v -10.395000 -8.373000 14.426000
v -9.895000 -8.373000 11.215000
v -9.895000 -8.373000 14.033000
v -12.895000 -10.268000 9.754000
v -12.895000 -7.893000 9.754000
v -12.395000 -10.408000 9.754000
v -12.395000 -7.330000 9.754000
v -11.895000 -10.500000 9.754000
v -11.895000 -7.044000 9.754000
v -11.395000 -10.659000 9.754000
v -11.395000 -6.966000 9.754000
v -10.895000 -10.503000 9.754000
v -10.895000 -7.074000 9.754000
v -10.395000 -9.932000 9.754000
v -10.395000 -7.427000 9.754000
v -14.395000 -9.602000 13.754000
v -14.395000 -8.661000 13.754000
v -13.895000 -10.652000 13.754000
v -13.895000 -7.992000 13.754000
v -13.395000 -11.156000 13.754000
v -13.395000 -7.808000 13.754000
v -12.895000 -11.554000 13.754000
v -12.895000 -7.474000 13.754000
v -12.395000 -11.879000 13.754000
v -12.395000 -6.958000 13.754000
v -11.895000 -12.040000 13.754000
v -11.895000 -6.683000 13.754000
v -11.395000 -12.036000 13.754000
v -11.395000 -6.586000 13.754000
v -10.895000 -11.860000 13.754000
v -10.895000 -6.688000 13.754000
v -10.395000 -11.594000 13.754000
v -10.395000 -7.054000 13.754000
v -9.895000 -11.203000 13.754000
v -9.895000 -8.095000 13.754000
v -12.272000 -11.873000 11.254000
v -10.569000 -11.873000 11.254000
v -12.612000 -11.873000 11.754000
v -10.225000 -11.873000 11.754000
v -12.714000 -11.873000 12.254000
v -10.123000 -11.873000 12.254000
v -12.625000 -11.873000 12.754000
v -10.215000 -11.873000 12.754000
v -12.459000 -11.873000 13.254000
v -10.474000 -11.873000 13.254000
v -12.404000 -11.873000 13.754000
v -10.919000 -11.873000 13.754000
v -12.735000 -11.873000 14.254000
v -11.181000 -11.873000 14.254000
v -13.273000 -11.873000 14.754000
v -11.071000 -11.873000 14.754000
v -13.422000 -11.873000 15.254000
v -10.924000 -11.873000 15.254000
v -13.306000 -11.873000 15.754000
v -11.046000 -11.873000 15.754000
v -12.699000 -11.873000 16.254000
v -12.106000 -11.873000 16.254000
v -11.604000 -7.873000 8.254000
v -11.140000 -7.873000 8.254000
v -12.301000 -7.873000 8.754000
v -10.483000 -7.873000 8.754000
v -12.639000 -7.873000 9.254000
v -10.228000 -7.873000 9.254000
v -12.878000 -7.873000 9.754000
v -10.123000 -7.873000 9.754000
v -13.269000 -7.873000 10.254000
v -10.136000 -7.873000 10.254000
v -13.405000 -7.873000 10.754000
v -10.095000 -7.873000 10.754000
v -13.406000 -7.873000 11.254000
v -10.033000 -7.873000 11.254000
v -13.662000 -7.873000 11.754000
v -9.933000 -7.873000 11.754000
v -14.199000 -7.873000 12.254000
v -9.690000 -7.873000 12.254000
v -14.354000 -7.873000 12.754000
v -9.608000 -7.873000 12.754000
v -14.241000 -7.873000 13.254000
v -9.726000 -7.873000 13.254000
v -13.628000 -7.873000 13.754000
v -10.022000 -7.873000 13.754000
v -12.900000 -7.873000 14.254000
v -10.385000 -7.873000 14.254000
v -12.577000 -7.873000 14.754000
v -11.295000 -7.873000 14.754000
v -13.395000 -11.873000 15.048000
v -13.395000 -11.873000 15.517000
v -12.895000 -11.873000 14.382000
v -12.895000 -11.873000 16.172000
v -12.395000 -11.873000 11.398000
v -12.395000 -11.873000 16.296000
v -11.895000 -11.873000 10.935000
v -11.895000 -11.873000 16.232000
v -11.395000 -11.873000 10.808000
v -11.395000 -11.873000 16.105000
v -10.895000 -11.873000 10.971000
v -10.895000 -11.873000 13.728000
v -10.395000 -11.873000 11.463000
v -10.395000 -11.873000 13.140000
v -13.895000 -7.873000 11.948000
v -13.895000 -7.873000 13.632000
v -13.395000 -7.873000 10.616000
v -13.395000 -7.873000 13.831000
v -12.895000 -7.873000 9.779000
v -12.895000 -7.873000 14.262000
v -12.395000 -7.873000 8.869000
v -12.395000 -7.873000 14.877000
v -11.895000 -7.873000 8.373000
v -11.895000 -7.873000 14.918000
v -11.395000 -7.873000 8.227000
v -11.395000 -7.873000 14.788000
v -10.895000 -7.873000 8.346000
v -10.895000 -7.873000 14.600000
v -10.395000 -7.873000 8.906000
v -10.395000 -7.873000 14.263000
v -9.895000 -7.873000 11.843000
v -9.895000 -7.873000 13.532000
v -13.395000 -10.259000 10.254000
v -13.395000 -7.999000 10.254000
v -12.895000 -10.767000 10.254000
v -12.895000 -7.518000 10.254000
v -12.395000 -10.934000 10.254000
v -12.395000 -7.174000 10.254000
v -11.895000 -11.210000 10.254000
v -11.895000 -7.047000 10.254000
v -11.395000 -11.353000 10.254000
v -11.395000 -6.997000 10.254000
v -10.895000 -11.221000 10.254000
v -10.895000 -7.105000 10.254000
v -10.395000 -10.505000 10.254000
v -10.395000 -7.458000 10.254000
v -14.395000 -10.024000 14.254000
v -14.395000 -9.120000 14.254000
v -13.895000 -10.853000 14.254000
v -13.895000 -8.442000 14.254000
v -13.395000 -11.370000 14.254000
v -13.395000 -8.130000 14.254000
v -12.895000 -11.775000 14.254000
v -12.895000 -7.870000 14.254000
v -12.395000 -11.998000 14.254000
v -12.395000 -7.484000 14.254000
v -11.895000 -12.006000 14.254000
v -11.895000 -7.032000 14.254000
v -11.395000 -11.952000 14.254000
v -11.395000 -6.901000 14.254000
v -10.895000 -11.691000 14.254000
v -10.895000 -7.039000 14.254000
v -10.395000 -11.333000 14.254000
v -10.395000 -7.833000 14.254000
v -12.348000 -11.373000 10.754000
v -10.528000 -11.373000 10.754000
v -12.791000 -11.373000 11.254000
v -10.229000 -11.373000 11.254000
v -12.918000 -11.373000 11.754000
v -10.094000 -11.373000 11.754000
v -12.912000 -11.373000 12.254000
v -10.004000 -11.373000 12.254000
v -12.883000 -11.373000 12.754000
v -9.940000 -11.373000 12.754000
v -12.926000 -11.373000 13.254000
v -9.902000 -11.373000 13.254000
v -13.166000 -11.373000 13.754000
v -10.054000 -11.373000 13.754000
v -13.392000 -11.373000 14.254000
v -10.437000 -11.373000 14.254000
v -13.728000 -11.373000 14.754000
v -10.579000 -11.373000 14.754000
v -13.884000 -11.373000 15.254000
v -10.573000 -11.373000 15.254000
v -13.756000 -11.373000 15.754000
v -10.659000 -11.373000 15.754000
v -13.375000 -11.373000 16.254000
v -11.004000 -11.373000 16.254000
v -12.276000 -7.373000 9.254000
v -10.591000 -7.373000 9.254000
v -12.447000 -7.373000 9.754000
v -10.446000 -7.373000 9.754000
v -12.741000 -7.373000 10.254000
v -10.478000 -7.373000 10.254000
v -12.865000 -7.373000 10.754000
v -10.428000 -7.373000 10.754000
v -12.915000 -7.373000 11.254000
v -10.354000 -7.373000 11.254000
v -12.969000 -7.373000 11.754000
v -10.321000 -7.373000 11.754000
v -13.267000 -7.373000 12.254000
v -10.054000 -7.373000 12.254000
v -13.469000 -7.373000 12.754000
v -9.941000 -7.373000 12.754000
v -13.303000 -7.373000 13.254000
v -10.054000 -7.373000 13.254000
v -12.814000 -7.373000 13.754000
v -10.196000 -7.373000 13.754000
v -12.284000 -7.373000 14.254000
v -10.551000 -7.373000 14.254000
v -13.395000 -11.373000 14.261000
v -13.395000 -11.373000 16.238000
v -12.895000 -11.373000 11.560000
v -12.895000 -11.373000 12.663000
v -12.895000 -11.373000 13.110000
v -12.895000 -11.373000 16.511000
v -12.395000 -11.373000 10.789000
v -12.395000 -11.373000 16.603000
v -11.895000 -11.373000 10.416000
v -11.895000 -11.373000 16.582000
v -11.395000 -11.373000 10.274000
v -11.395000 -11.373000 16.494000
v -10.895000 -11.373000 10.405000
v -10.895000 -11.373000 16.143000
v -10.395000 -11.373000 10.946000
v -10.395000 -11.373000 14.181000
v -13.395000 -7.373000 12.466000
v -13.395000 -7.373000 13.096000
v -12.895000 -7.373000 11.075000
v -12.895000 -7.373000 13.681000
v -12.395000 -7.373000 9.543000
v -12.395000 -7.373000 14.132000
v -11.895000 -7.373000 8.895000
v -11.895000 -7.373000 14.490000
v -11.395000 -7.373000 8.781000
v -11.395000 -7.373000 14.571000
v -10.895000 -7.373000 8.940000
v -10.895000 -7.373000 14.468000
v -10.395000 -7.373000 10.969000
v -10.395000 -7.373000 14.092000
v -13.895000 -10.100000 10.754000
v -13.895000 -8.546000 10.754000
v -13.395000 -10.729000 10.754000
v -13.395000 -7.864000 10.754000
v -12.895000 -11.112000 10.754000
v -12.895000 -7.402000 10.754000
v -12.395000 -11.345000 10.754000
v -12.395000 -7.085000 10.754000
v -11.895000 -11.704000 10.754000
v -11.895000 -6.997000 10.754000
v -11.395000 -11.822000 10.754000
v -11.395000 -6.981000 10.754000
v -10.895000 -11.671000 10.754000
v -10.895000 -7.075000 10.754000
v -10.395000 -11.228000 10.754000
v -10.395000 -7.406000 10.754000
v -14.395000 -10.686000 14.754000
v -14.395000 -9.037000 14.754000
v -13.895000 -11.218000 14.754000
v -13.895000 -8.593000 14.754000
v -13.395000 -11.749000 14.754000
v -13.395000 -8.299000 14.754000
v -12.895000 -12.109000 14.754000
v -12.895000 -7.999000 14.754000
v -12.395000 -12.203000 14.754000
v -12.395000 -7.812000 14.754000
v -11.895000 -12.137000 14.754000
v -11.895000 -7.709000 14.754000
v -11.395000 -12.049000 14.754000
v -11.395000 -7.803000 14.754000
v -10.895000 -11.730000 14.754000
v -10.895000 -8.291000 14.754000
v -10.395000 -10.989000 14.754000
v -10.395000 -9.927000 14.754000
f 149 195 65
f 65 195 193
f 195 293 193
f 295 293 195
f 295 387 293
f 389 387 295
f 389 479 387
f 481 479 389
f 481 150 479
f 479 150 66
f 151 107 67
f 67 107 105
f 65 105 107
f 65 107 149
f 589 66 150
f 589 150 591
f 591 152 589
f 589 152 68
f 153 673 717
f 717 673 69
f 673 5 69
f 673 7 5
f 67 5 7
f 67 7 151
f 701 68 152
f 701 152 703
f 703 154 701
f 701 154 70
f 155 557 609
f 153 717 557
f 557 717 609
f 717 671 609
f 671 71 609
f 717 69 671
f 70 156 72
f 154 156 70
f 157 461 497
f 155 609 461
f 461 609 497
f 609 555 497
f 555 73 497
f 609 71 555
f 156 27 59
f 74 156 59
f 72 156 74
f 27 158 59
f 499 159 497
f 497 159 157
f 497 73 75
f 497 75 499
f 61 76 74
f 61 74 59
f 59 158 61
f 61 158 160
f 501 161 499
f 499 161 159
f 499 75 77
f 499 77 501
f 76 61 28
f 162 76 28
f 78 76 162
f 61 160 28
f 501 462 161
f 617 163 556
f 556 163 77
f 163 462 77
f 462 501 77
f 79 617 556
f 78 164 80
f 162 164 78
f 617 558 163
f 79 672 617
f 672 558 617
f 672 674 558
f 6 674 672
f 6 8 674
f 106 147 165
f 8 106 165
f 6 106 8
f 194 235 147
f 194 147 106
f 81 235 194
f 592 166 82
f 592 82 590
f 702 592 590
f 702 704 592
f 702 80 704
f 704 80 164
f 147 108 165
f 108 147 196
f 196 147 235
f 81 294 235
f 294 196 235
f 294 296 196
f 388 296 294
f 388 390 296
f 480 390 388
f 480 482 390
f 480 82 482
f 482 82 166
f 167 123 83
f 83 123 121
f 123 209 121
f 211 209 123
f 211 309 209
f 311 309 211
f 311 168 309
f 309 168 84
f 169 23 85
f 85 23 21
f 83 21 23
f 83 23 167
f 403 84 168
f 403 168 405
f 405 170 403
f 403 170 86
f 606 571 87
f 171 689 606
f 689 571 606
f 689 687 571
f 85 687 689
f 85 689 169
f 86 172 88
f 170 172 86
f 606 87 573
f 87 173 573
f 87 89 173
f 171 606 573
f 174 510 495
f 88 174 495
f 172 174 88
f 510 90 495
f 175 89 91
f 175 173 89
f 176 512 510
f 176 510 174
f 90 510 92
f 92 510 512
f 177 91 93
f 177 175 91
f 178 514 512
f 178 512 176
f 92 512 94
f 94 512 514
f 179 93 95
f 179 177 93
f 406 180 422
f 514 178 406
f 514 406 422
f 496 514 422
f 96 496 422
f 94 514 496
f 95 572 179
f 179 572 574
f 181 574 572
f 181 572 97
f 212 182 232
f 212 232 332
f 212 332 312
f 422 180 312
f 422 312 332
f 404 422 332
f 98 404 332
f 96 422 404
f 97 688 181
f 181 688 690
f 22 690 688
f 22 24 690
f 122 24 22
f 122 124 24
f 182 124 232
f 124 210 232
f 124 122 210
f 310 332 210
f 210 332 232
f 98 332 310
f 237 281 327
f 327 281 419
f 419 281 375
f 419 375 513
f 513 375 467
f 467 238 513
f 329 239 327
f 327 239 237
f 327 421 329
f 327 419 421
f 419 515 421
f 419 513 515
f 577 629 238
f 629 513 238
f 629 515 513
f 577 240 629
f 331 241 329
f 329 241 239
f 329 423 331
f 329 421 423
f 421 517 423
f 421 515 517
f 242 517 578
f 517 629 578
f 517 515 629
f 629 240 578
f 331 282 241
f 282 331 243
f 331 425 243
f 331 423 425
f 244 425 468
f 425 517 468
f 425 423 517
f 517 242 468
f 425 376 243
f 425 244 376
f 245 297 317
f 317 297 409
f 409 297 391
f 409 391 503
f 503 391 483
f 483 246 503
f 247 197 149
f 149 197 195
f 197 245 317
f 295 197 317
f 195 197 295
f 409 389 295
f 409 295 317
f 503 481 389
f 503 389 409
f 246 593 619
f 246 619 150
f 503 246 150
f 481 503 150
f 593 248 619
f 249 109 151
f 151 109 107
f 149 107 109
f 149 109 247
f 619 591 150
f 619 248 591
f 248 152 591
f 248 250 152
f 251 675 153
f 153 675 673
f 675 7 673
f 9 7 675
f 151 7 9
f 151 9 249
f 703 152 250
f 703 250 705
f 705 252 703
f 703 252 154
f 253 559 155
f 155 559 557
f 153 557 559
f 153 559 251
f 252 29 57
f 156 252 57
f 154 252 156
f 29 254 57
f 255 463 157
f 157 463 461
f 155 461 463
f 155 463 253
f 57 27 156
f 57 254 27
f 254 158 27
f 254 256 158
f 257 157 159
f 257 255 157
f 158 258 160
f 256 258 158
f 259 159 161
f 259 257 159
f 28 63 162
f 28 160 63
f 160 260 63
f 160 258 260
f 161 462 259
f 259 462 464
f 261 464 462
f 261 462 163
f 162 63 30
f 262 162 30
f 164 162 262
f 63 260 30
f 163 558 261
f 261 558 560
f 674 560 558
f 674 676 560
f 8 53 263
f 676 8 263
f 674 8 676
f 165 53 8
f 592 635 166
f 706 264 635
f 592 706 635
f 704 706 592
f 704 164 706
f 706 164 262
f 53 10 263
f 165 108 53
f 108 10 53
f 108 110 10
f 196 110 108
f 196 198 110
f 296 198 196
f 296 298 198
f 390 298 296
f 390 392 298
f 482 392 390
f 482 484 392
f 635 594 166
f 594 482 166
f 594 484 482
f 635 264 594
f 265 125 167
f 167 125 123
f 125 211 123
f 213 211 125
f 213 311 211
f 313 311 213
f 313 266 311
f 311 266 168
f 267 25 169
f 169 25 23
f 167 23 25
f 167 25 265
f 405 168 266
f 405 266 407
f 407 268 405
f 405 268 170
f 716 689 171
f 169 689 716
f 269 169 716
f 267 169 269
f 170 270 172
f 268 270 170
f 608 573 173
f 691 716 171
f 691 171 573
f 271 691 573
f 608 271 573
f 269 716 691
f 172 272 174
f 270 272 172
f 608 173 575
f 173 273 575
f 173 175 273
f 271 608 575
f 174 274 176
f 272 274 174
f 576 273 612
f 273 177 612
f 273 175 177
f 275 576 612
f 408 276 420
f 420 178 408
f 178 274 408
f 178 176 274
f 179 614 177
f 177 614 612
f 275 612 614
f 275 614 277
f 314 278 330
f 420 276 314
f 420 314 330
f 406 420 330
f 180 406 330
f 178 420 406
f 574 614 179
f 692 277 728
f 728 277 181
f 277 614 181
f 614 574 181
f 279 692 728
f 126 280 144
f 126 144 182
f 212 126 182
f 214 126 212
f 278 214 330
f 214 312 330
f 214 212 312
f 180 330 312
f 690 728 181
f 728 690 279
f 690 26 279
f 690 24 26
f 280 26 144
f 26 124 144
f 26 24 124
f 182 144 124
f 337 283 325
f 325 283 417
f 417 283 377
f 417 377 511
f 511 377 469
f 469 338 511
f 339 183 227
f 337 325 183
f 183 325 227
f 325 281 227
f 281 237 227
f 417 375 281
f 417 281 325
f 511 467 375
f 511 375 417
f 338 579 627
f 338 627 238
f 511 338 238
f 467 511 238
f 579 340 627
f 229 341 227
f 227 341 339
f 227 237 239
f 227 239 229
f 627 577 238
f 627 340 577
f 340 240 577
f 340 342 240
f 231 343 229
f 229 343 341
f 229 239 241
f 229 241 231
f 578 631 242
f 578 240 631
f 240 344 631
f 240 342 344
f 231 184 343
f 333 345 282
f 282 345 241
f 345 184 241
f 184 231 241
f 243 333 282
f 468 519 244
f 631 580 242
f 242 580 468
f 580 346 468
f 346 519 468
f 631 344 580
f 333 284 345
f 243 376 333
f 376 284 333
f 376 378 284
f 519 470 244
f 470 376 244
f 470 378 376
f 519 346 470
f 347 299 245
f 245 299 297
f 299 391 297
f 393 391 299
f 393 483 391
f 485 483 393
f 485 348 483
f 483 348 246
f 349 199 247
f 247 199 197
f 245 197 199
f 245 199 347
f 593 246 348
f 593 348 595
f 595 350 593
f 593 350 248
f 351 111 249
f 249 111 109
f 247 109 111
f 247 111 349
f 350 707 731
f 250 350 731
f 248 350 250
f 707 352 731
f 718 675 251
f 353 11 718
f 11 675 718
f 11 9 675
f 249 9 11
f 249 11 351
f 731 705 250
f 352 31 55
f 352 55 252
f 731 352 252
f 705 731 252
f 31 354 55
f 355 561 253
f 253 561 559
f 677 718 251
f 559 677 251
f 561 677 559
f 353 718 677
f 55 29 252
f 55 354 29
f 354 254 29
f 354 356 254
f 357 465 255
f 255 465 463
f 253 463 465
f 253 465 355
f 254 358 256
f 356 358 254
f 359 255 257
f 359 357 255
f 256 360 258
f 358 360 256
f 361 257 259
f 361 359 257
f 258 362 260
f 360 362 258
f 259 464 361
f 361 464 466
f 363 466 464
f 363 464 261
f 32 364 262
f 32 262 30
f 30 260 32
f 32 260 362
f 261 560 363
f 363 560 562
f 676 562 560
f 676 678 562
f 365 678 676
f 365 676 263
f 708 366 264
f 708 264 706
f 706 262 708
f 708 262 364
f 263 10 365
f 365 10 12
f 110 12 10
f 110 112 12
f 198 112 110
f 198 200 112
f 298 200 198
f 298 300 200
f 392 300 298
f 392 394 300
f 484 394 392
f 484 486 394
f 594 486 484
f 594 596 486
f 594 264 596
f 596 264 366
f 130 125 265
f 218 213 130
f 130 213 125
f 318 313 218
f 218 313 213
f 318 266 313
f 38 25 267
f 127 130 265
f 127 265 25
f 367 127 25
f 38 367 25
f 130 127 215
f 130 215 218
f 218 215 315
f 218 315 318
f 368 412 407
f 368 407 266
f 315 368 266
f 318 315 266
f 412 268 407
f 269 40 267
f 267 40 38
f 367 38 40
f 367 40 369
f 370 414 412
f 370 412 368
f 268 412 270
f 270 412 414
f 720 691 271
f 691 720 269
f 720 40 269
f 720 42 40
f 369 40 42
f 369 42 371
f 372 416 414
f 372 414 370
f 270 414 272
f 272 414 416
f 610 575 273
f 575 610 271
f 610 720 271
f 610 722 720
f 44 720 722
f 42 720 44
f 138 128 371
f 42 138 371
f 44 138 42
f 373 128 138
f 316 374 326
f 416 372 316
f 326 416 316
f 418 416 326
f 272 416 274
f 274 416 418
f 576 610 273
f 275 724 576
f 724 610 576
f 724 722 610
f 46 722 724
f 44 722 46
f 140 44 46
f 138 44 140
f 228 216 373
f 138 228 373
f 140 228 138
f 326 374 216
f 228 326 216
f 328 326 228
f 408 418 276
f 418 328 276
f 418 326 328
f 274 418 408
f 277 726 275
f 275 726 724
f 48 724 726
f 46 724 48
f 142 46 48
f 140 46 142
f 230 140 142
f 228 140 230
f 314 328 278
f 328 230 278
f 328 228 230
f 276 328 314
f 692 726 277
f 279 50 692
f 50 726 692
f 50 48 726
f 126 142 280
f 142 50 280
f 142 48 50
f 214 230 126
f 126 230 142
f 278 230 214
f 26 50 279
f 280 50 26
f 429 379 415
f 379 430 415
f 431 185 225
f 225 185 337
f 185 283 337
f 185 285 283
f 285 429 415
f 377 285 415
f 283 285 377
f 377 415 430
f 471 377 430
f 469 377 471
f 338 469 625
f 469 581 625
f 469 471 581
f 581 432 625
f 183 339 225
f 339 431 225
f 339 433 431
f 225 337 183
f 625 579 338
f 432 693 737
f 432 737 340
f 625 432 340
f 579 625 340
f 693 434 737
f 435 339 341
f 435 433 339
f 739 342 340
f 739 340 737
f 737 434 739
f 739 434 436
f 437 341 343
f 437 435 341
f 741 344 342
f 741 342 739
f 739 436 741
f 741 436 438
f 343 184 437
f 437 184 186
f 439 186 184
f 439 184 345
f 580 633 346
f 741 694 344
f 344 694 580
f 694 440 580
f 440 633 580
f 741 438 694
f 345 284 439
f 439 284 286
f 378 286 284
f 378 380 286
f 470 380 378
f 470 472 380
f 633 582 346
f 582 470 346
f 582 472 470
f 633 440 582
f 441 301 347
f 347 301 299
f 301 393 299
f 395 393 301
f 395 485 393
f 487 485 395
f 487 442 485
f 485 442 348
f 443 201 349
f 349 201 199
f 347 199 201
f 347 201 441
f 595 348 442
f 595 442 597
f 597 444 595
f 595 444 350
f 445 13 39
f 39 13 351
f 13 111 351
f 13 113 111
f 349 111 113
f 349 113 443
f 446 732 707
f 350 446 707
f 444 446 350
f 732 352 707
f 447 679 719
f 445 39 679
f 679 39 719
f 39 11 719
f 11 353 719
f 39 351 11
f 709 732 446
f 448 56 31
f 448 31 352
f 709 448 352
f 732 709 352
f 56 354 31
f 449 563 355
f 355 563 561
f 563 447 719
f 677 563 719
f 561 563 677
f 719 353 677
f 33 56 448
f 33 450 56
f 450 354 56
f 450 356 354
f 498 465 357
f 355 465 498
f 451 355 498
f 449 355 451
f 356 452 358
f 450 452 356
f 359 500 357
f 357 500 498
f 451 498 500
f 451 500 453
f 358 454 360
f 452 454 358
f 361 502 359
f 359 502 500
f 453 500 502
f 453 502 455
f 360 456 362
f 454 456 360
f 466 502 361
f 564 455 618
f 618 455 363
f 455 502 363
f 502 466 363
f 457 564 618
f 34 458 364
f 34 364 32
f 32 362 34
f 34 362 456
f 562 618 363
f 618 562 457
f 562 680 457
f 562 678 680
f 459 680 678
f 459 678 365
f 710 460 366
f 710 366 708
f 708 364 710
f 710 364 458
f 365 12 459
f 459 12 14
f 112 14 12
f 112 114 14
f 200 114 112
f 200 202 114
f 300 202 200
f 300 302 202
f 394 302 300
f 394 396 302
f 486 396 394
f 486 488 396
f 596 488 486
f 596 598 488
f 596 366 598
f 598 366 460
f 132 127 367
f 220 215 132
f 132 215 127
f 320 315 220
f 220 315 215
f 320 368 315
f 369 134 367
f 367 134 132
f 222 132 134
f 220 132 222
f 322 220 222
f 320 220 322
f 368 320 370
f 370 320 322
f 371 136 369
f 369 136 134
f 224 134 136
f 222 134 224
f 324 222 224
f 322 222 324
f 370 322 372
f 372 322 324
f 128 136 371
f 373 226 128
f 226 136 128
f 226 224 136
f 316 324 374
f 324 226 374
f 324 224 226
f 372 324 316
f 216 226 373
f 374 226 216
f 523 187 223
f 223 187 323
f 323 187 287
f 323 287 429
f 287 379 429
f 287 381 379
f 430 379 509
f 379 473 509
f 379 381 473
f 473 524 509
f 525 99 137
f 523 223 99
f 99 223 137
f 223 185 137
f 185 431 137
f 323 285 185
f 323 185 223
f 323 429 285
f 509 471 430
f 471 509 524
f 583 471 524
f 581 471 583
f 432 581 735
f 581 695 735
f 581 583 695
f 695 526 735
f 139 527 137
f 137 527 525
f 137 431 433
f 137 433 139
f 735 693 432
f 735 526 693
f 526 434 693
f 526 528 434
f 141 529 139
f 139 529 527
f 139 433 435
f 139 435 141
f 434 530 436
f 528 530 434
f 143 531 141
f 141 531 529
f 141 435 437
f 141 437 143
f 436 532 438
f 530 532 436
f 143 100 531
f 233 533 186
f 186 533 437
f 533 100 437
f 100 143 437
f 439 233 186
f 696 534 440
f 696 440 694
f 694 438 696
f 696 438 532
f 233 188 533
f 439 286 233
f 286 188 233
f 286 288 188
f 380 288 286
f 380 382 288
f 472 382 380
f 472 474 382
f 582 474 472
f 582 584 474
f 582 440 584
f 584 440 534
f 535 303 441
f 441 303 301
f 303 395 301
f 397 395 303
f 504 487 536
f 487 397 536
f 487 395 397
f 504 442 487
f 537 115 131
f 131 115 443
f 115 201 443
f 115 203 201
f 441 201 203
f 441 203 535
f 489 504 536
f 538 620 597
f 538 597 442
f 489 538 442
f 504 489 442
f 620 444 597
f 539 15 445
f 445 15 13
f 15 537 131
f 113 15 131
f 13 15 113
f 131 443 113
f 599 620 538
f 599 540 620
f 540 444 620
f 540 446 444
f 541 681 447
f 447 681 679
f 445 679 681
f 445 681 539
f 542 734 709
f 446 542 709
f 540 542 446
f 734 448 709
f 543 565 449
f 449 565 563
f 447 563 565
f 447 565 541
f 711 734 542
f 544 58 33
f 544 33 448
f 711 544 448
f 734 711 448
f 58 450 33
f 545 449 451
f 545 543 449
f 35 58 544
f 35 546 58
f 546 450 58
f 546 452 450
f 547 451 453
f 547 545 451
f 452 548 454
f 546 548 452
f 566 547 616
f 547 455 616
f 547 453 455
f 549 566 616
f 454 550 456
f 548 550 454
f 564 616 455
f 549 616 564
f 457 549 564
f 551 549 457
f 36 552 458
f 36 458 34
f 34 456 36
f 36 456 550
f 457 680 551
f 551 680 682
f 553 682 680
f 553 680 459
f 600 554 636
f 600 636 460
f 710 600 460
f 712 600 710
f 710 458 712
f 712 458 552
f 459 14 553
f 553 14 16
f 114 16 14
f 114 116 16
f 202 116 114
f 202 204 116
f 302 204 202
f 302 304 204
f 396 304 302
f 396 398 304
f 488 398 396
f 488 490 398
f 554 490 636
f 490 598 636
f 490 488 598
f 460 636 598
f 637 189 221
f 221 189 321
f 321 189 289
f 321 289 413
f 413 289 383
f 413 383 507
f 507 383 475
f 475 638 507
f 639 101 135
f 637 221 101
f 101 221 135
f 221 187 135
f 187 523 135
f 321 287 187
f 321 187 221
f 413 381 287
f 413 287 321
f 507 473 381
f 507 381 413
f 638 585 623
f 638 623 524
f 507 638 524
f 473 507 524
f 585 640 623
f 641 1 43
f 639 135 1
f 1 135 43
f 135 99 43
f 99 525 43
f 135 523 99
f 623 583 524
f 583 623 640
f 697 583 640
f 695 583 697
f 697 642 695
f 695 642 526
f 45 643 43
f 43 643 641
f 43 525 527
f 43 527 45
f 526 644 528
f 642 644 526
f 47 645 45
f 45 645 643
f 45 527 529
f 45 529 47
f 528 646 530
f 644 646 528
f 49 647 47
f 47 647 645
f 47 529 531
f 47 531 49
f 530 648 532
f 646 648 530
f 49 2 647
f 145 649 100
f 100 649 531
f 649 2 531
f 2 49 531
f 533 145 100
f 698 650 534
f 698 534 696
f 696 532 698
f 698 532 648
f 145 102 649
f 533 188 145
f 188 102 145
f 188 190 102
f 288 190 188
f 288 290 190
f 382 290 288
f 382 384 290
f 474 384 382
f 474 476 384
f 584 476 474
f 584 586 476
f 584 534 586
f 586 534 650
f 651 205 217
f 217 205 535
f 205 303 535
f 205 305 303
f 410 397 652
f 397 305 652
f 397 303 305
f 410 536 397
f 653 117 537
f 537 117 115
f 117 651 217
f 203 117 217
f 115 117 203
f 217 535 203
f 399 410 652
f 654 506 489
f 654 489 536
f 399 654 536
f 410 399 536
f 506 538 489
f 655 17 539
f 539 17 15
f 537 15 17
f 537 17 653
f 491 506 654
f 656 622 599
f 656 599 538
f 491 656 538
f 506 491 538
f 622 540 599
f 657 683 541
f 541 683 681
f 539 681 683
f 539 683 655
f 601 622 656
f 601 658 622
f 658 540 622
f 658 542 540
f 659 567 543
f 543 567 565
f 541 565 567
f 541 567 657
f 660 736 711
f 542 660 711
f 658 660 542
f 736 544 711
f 661 543 545
f 661 659 543
f 713 736 660
f 662 60 35
f 662 35 544
f 713 662 544
f 736 713 544
f 60 546 35
f 663 545 547
f 663 661 545
f 664 62 60
f 664 60 662
f 546 60 548
f 548 60 62
f 547 566 663
f 663 566 568
f 665 568 566
f 665 566 549
f 666 64 62
f 666 62 664
f 548 62 550
f 550 62 64
f 684 665 730
f 665 551 730
f 665 549 551
f 667 684 730
f 714 668 744
f 64 666 714
f 64 714 744
f 36 64 744
f 552 36 744
f 550 64 36
f 682 730 551
f 18 667 54
f 54 667 553
f 667 730 553
f 730 682 553
f 18 54 148
f 18 148 118
f 118 148 236
f 118 236 206
f 206 236 336
f 206 336 306
f 306 336 428
f 306 428 400
f 400 428 522
f 400 522 492
f 492 522 554
f 600 492 554
f 602 492 600
f 668 602 744
f 602 712 744
f 602 600 712
f 552 744 712
f 16 54 553
f 116 148 16
f 16 148 54
f 204 236 116
f 116 236 148
f 304 336 204
f 204 336 236
f 398 428 304
f 304 428 336
f 490 522 398
f 398 522 428
f 554 522 490
f 745 191 219
f 219 191 319
f 319 191 291
f 319 291 411
f 411 291 385
f 385 746 411
f 747 103 133
f 745 219 103
f 103 219 133
f 219 189 133
f 189 637 133
f 319 289 189
f 319 189 219
f 411 383 289
f 411 289 319
f 383 411 746
f 477 383 746
f 475 383 477
f 638 475 621
f 475 587 621
f 475 477 587
f 587 748 621
f 749 3 41
f 747 133 3
f 3 133 41
f 133 101 41
f 101 639 41
f 133 637 101
f 621 585 638
f 621 748 585
f 748 640 585
f 748 750 640
f 1 641 41
f 641 749 41
f 641 751 749
f 41 639 1
f 697 640 750
f 697 750 699
f 699 752 697
f 697 752 642
f 753 669 723
f 643 723 669
f 751 643 669
f 641 643 751
f 642 754 644
f 752 754 642
f 725 755 723
f 723 755 753
f 723 643 645
f 723 645 725
f 644 756 646
f 754 756 644
f 727 757 725
f 725 757 755
f 725 645 647
f 725 647 727
f 646 758 648
f 756 758 646
f 727 670 757
f 51 759 2
f 2 759 647
f 759 670 647
f 670 727 647
f 649 51 2
f 700 760 650
f 700 650 698
f 698 648 700
f 700 648 758
f 51 4 759
f 649 102 51
f 102 4 51
f 102 104 4
f 190 104 102
f 190 192 104
f 290 192 190
f 290 292 192
f 384 292 290
f 384 386 292
f 476 386 384
f 476 478 386
f 586 478 476
f 586 588 478
f 586 650 588
f 588 650 760
f 761 119 129
f 129 119 651
f 119 205 651
f 119 207 205
f 207 305 205
f 307 305 207
f 307 762 305
f 305 762 652
f 763 19 37
f 761 129 19
f 19 129 37
f 129 117 37
f 117 653 37
f 129 651 117
f 399 652 762
f 399 762 401
f 401 764 399
f 399 764 654
f 765 685 715
f 763 37 685
f 685 37 715
f 37 17 715
f 17 655 715
f 37 653 17
f 491 654 764
f 491 764 493
f 493 766 491
f 491 766 656
f 767 569 607
f 765 715 569
f 569 715 607
f 715 683 607
f 683 657 607
f 715 655 683
f 768 624 601
f 656 768 601
f 766 768 656
f 624 658 601
f 567 659 607
f 659 767 607
f 659 769 767
f 607 657 567
f 603 624 768
f 603 770 624
f 770 658 624
f 770 660 658
f 771 659 661
f 771 769 659
f 772 738 713
f 660 772 713
f 770 772 660
f 738 662 713
f 773 661 663
f 773 771 661
f 774 740 738
f 774 738 772
f 662 738 664
f 664 738 740
f 663 568 773
f 773 568 570
f 775 570 568
f 775 568 665
f 604 776 632
f 740 774 604
f 632 740 604
f 742 740 632
f 664 740 666
f 666 740 742
f 665 684 775
f 775 684 686
f 777 686 684
f 777 684 667
f 208 778 234
f 208 234 334
f 208 334 308
f 308 334 426
f 308 426 402
f 402 426 520
f 402 520 494
f 632 776 494
f 520 632 494
f 634 632 520
f 714 742 668
f 742 634 668
f 742 632 634
f 666 742 714
f 667 18 777
f 777 18 20
f 118 20 18
f 118 120 20
f 778 120 234
f 120 206 234
f 120 118 206
f 306 334 206
f 206 334 234
f 400 426 306
f 306 426 334
f 492 520 400
f 400 520 426
f 602 634 492
f 492 634 520
f 668 634 602
f 65 193 745
f 745 193 191
f 193 291 191
f 293 291 193
f 293 385 291
f 387 385 293
f 746 385 505
f 385 479 505
f 385 387 479
f 479 66 505
f 67 105 747
f 747 105 103
f 745 103 105
f 745 105 65
f 505 477 746
f 477 505 66
f 589 477 66
f 587 477 589
f 589 68 587
f 587 68 748
f 69 5 749
f 749 5 3
f 747 3 5
f 747 5 67
f 68 701 733
f 750 68 733
f 748 68 750
f 701 70 733
f 71 671 721
f 751 721 671
f 69 751 671
f 749 751 69
f 733 699 750
f 733 70 699
f 70 752 699
f 70 72 752
f 73 555 611
f 71 721 555
f 555 721 611
f 721 669 611
f 669 753 611
f 721 751 669
f 752 74 754
f 72 74 752
f 613 75 611
f 611 75 73
f 611 753 755
f 611 755 613
f 754 76 756
f 74 76 754
f 615 77 613
f 613 77 75
f 613 755 757
f 613 757 615
f 756 78 758
f 76 78 756
f 615 556 77
f 729 79 670
f 670 79 757
f 79 556 757
f 556 615 757
f 759 729 670
f 700 743 760
f 700 758 743
f 758 80 743
f 758 78 80
f 729 672 79
f 759 4 729
f 4 672 729
f 4 6 672
f 104 6 4
f 104 106 6
f 192 106 104
f 192 194 106
f 292 335 81
f 194 292 81
f 192 292 194
f 386 427 335
f 386 335 292
f 478 521 427
f 478 427 386
f 590 82 521
f 478 590 521
f 588 590 478
f 743 702 760
f 702 588 760
f 702 590 588
f 743 80 702
f 335 294 81
f 294 335 388
f 388 335 427
f 388 427 480
f 480 427 521
f 521 82 480
f 83 121 761
f 761 121 119
f 121 207 119
f 209 207 121
f 209 307 207
f 309 307 209
f 309 84 307
f 307 84 762
f 85 21 763
f 763 21 19
f 761 19 21
f 761 21 83
f 401 762 84
f 401 84 403
f 403 86 401
f 401 86 764
f 87 571 605
f 605 571 765
f 571 685 765
f 571 687 685
f 763 685 687
f 763 687 85
f 88 508 493
f 764 88 493
f 86 88 764
f 508 766 493
f 569 767 605
f 767 87 605
f 767 89 87
f 605 765 569
f 495 508 88
f 495 90 508
f 90 766 508
f 90 768 766
f 91 767 769
f 91 89 767
f 92 626 603
f 768 92 603
f 90 92 768
f 626 770 603
f 93 769 771
f 93 91 769
f 94 628 626
f 94 626 92
f 770 626 772
f 772 626 628
f 95 771 773
f 95 93 771
f 496 96 516
f 628 94 496
f 516 628 496
f 630 628 516
f 772 628 774
f 774 628 630
f 773 570 95
f 95 570 572
f 97 572 570
f 97 570 775
f 404 98 424
f 516 96 404
f 424 516 404
f 518 516 424
f 604 630 776
f 630 518 776
f 630 516 518
f 774 630 604
f 775 686 97
f 97 686 688
f 686 777 52
f 22 686 52
f 688 686 22
f 22 52 146
f 22 146 122
f 122 146 778
f 208 122 778
f 210 122 208
f 308 210 208
f 308 310 210
f 98 310 424
f 310 402 424
f 310 308 402
f 494 518 402
f 402 518 424
f 776 518 494
f 20 52 777
f 120 146 20
f 20 146 52
f 778 146 120
