# Converted from NanoShaper .vert/.face
v -3.615000 -12.165000 -6.882000
v -1.963000 -12.165000 -6.882000
v -4.309000 -12.165000 -6.382000
v -1.533000 -12.165000 -6.382000
v -6.037000 -12.165000 -5.882000
v -1.312000 -12.165000 -5.882000
v -6.684000 -12.165000 -5.382000
v -1.300000 -12.165000 -5.382000
v -6.907000 -12.165000 -4.882000
v -1.499000 -12.165000 -4.882000
v -7.031000 -12.165000 -4.382000
v -2.133000 -12.165000 -4.382000
v -7.084000 -12.165000 -3.882000
v -3.625000 -12.165000 -3.882000
v -7.074000 -12.165000 -3.382000
v -3.953000 -12.165000 -3.382000
v -7.005000 -12.165000 -2.882000
v -4.200000 -12.165000 -2.882000
v -6.690000 -12.165000 -2.382000
v -4.451000 -12.165000 -2.382000
v -5.990000 -12.165000 -1.882000
v -5.093000 -12.165000 -1.882000
v -7.065000 -12.165000 -4.105000
v -7.065000 -12.165000 -3.195000
v -6.565000 -12.165000 -5.533000
v -6.565000 -12.165000 -2.260000
v -6.065000 -12.165000 -5.872000
v -6.065000 -12.165000 -1.912000
v -5.565000 -12.165000 -5.959000
v -5.565000 -12.165000 -1.804000
v -5.065000 -12.165000 -6.041000
v -5.065000 -12.165000 -1.893000
v -4.565000 -12.165000 -6.227000
v -4.565000 -12.165000 -2.238000
v -4.065000 -12.165000 -6.580000
v -4.065000 -12.165000 -3.161000
v -3.565000 -12.165000 -6.902000
v -3.565000 -12.165000 -3.945000
v -3.065000 -12.165000 -7.010000
v -3.065000 -12.165000 -4.236000
v -2.565000 -12.165000 -7.067000
v -2.565000 -12.165000 -4.303000
v -2.065000 -12.165000 -6.948000
v -2.065000 -12.165000 -4.410000
v -1.565000 -12.165000 -6.433000
v -1.565000 -12.165000 -4.792000
v -7.065000 -12.214000 -3.882000
v -7.065000 -10.307000 -3.882000
v -6.565000 -13.651000 -3.882000
v -6.565000 -9.942000 -3.882000
v -6.065000 -13.998000 -3.882000
v -6.065000 -9.832000 -3.882000
v -5.565000 -14.264000 -3.882000
v -5.565000 -9.909000 -3.882000
v -5.065000 -14.375000 -3.882000
v -5.065000 -10.217000 -3.882000
v -4.565000 -14.412000 -3.882000
v -4.565000 -10.663000 -3.882000
v -4.065000 -14.314000 -3.882000
v -4.065000 -11.436000 -3.882000
v -3.565000 -13.986000 -3.882000
v -3.565000 -12.266000 -3.882000
v -2.245000 -15.665000 -6.882000
v -0.878000 -15.665000 -6.882000
v -2.535000 -15.665000 -6.382000
v -0.588000 -15.665000 -6.382000
v -2.608000 -15.665000 -5.882000
v -0.565000 -15.665000 -5.882000
v -2.577000 -15.665000 -5.382000
v -0.595000 -15.665000 -5.382000
v -2.186000 -15.665000 -4.882000
v -0.940000 -15.665000 -4.882000
v -3.837000 -11.665000 -6.382000
v -2.030000 -11.665000 -6.382000
v -4.178000 -11.665000 -5.882000
v -1.667000 -11.665000 -5.882000
v -6.261000 -11.665000 -5.382000
v -1.650000 -11.665000 -5.382000
v -6.798000 -11.665000 -4.882000
v -1.951000 -11.665000 -4.882000
v -7.131000 -11.665000 -4.382000
v -3.587000 -11.665000 -4.382000
v -7.325000 -11.665000 -3.882000
v -3.965000 -11.665000 -3.882000
v -7.365000 -11.665000 -3.382000
v -4.091000 -11.665000 -3.382000
v -7.356000 -11.665000 -2.882000
v -4.162000 -11.665000 -2.882000
v -7.131000 -11.665000 -2.382000
v -4.352000 -11.665000 -2.382000
v -6.362000 -11.665000 -1.882000
v -4.887000 -11.665000 -1.882000
v -2.565000 -15.665000 -6.256000
v -2.565000 -15.665000 -5.357000
v -2.065000 -15.665000 -7.017000
v -2.065000 -15.665000 -4.801000
v -1.565000 -15.665000 -7.153000
v -1.565000 -15.665000 -4.668000
v -1.065000 -15.665000 -7.021000
v -1.065000 -15.665000 -4.799000
v -0.565000 -15.665000 -5.883000
v -0.565000 -15.665000 -5.505000
v -7.065000 -11.665000 -4.498000
v -7.065000 -11.665000 -2.300000
v -6.565000 -11.665000 -5.137000
v -6.565000 -11.665000 -1.947000
v -6.065000 -11.665000 -5.496000
v -6.065000 -11.665000 -1.805000
v -5.565000 -11.665000 -5.609000
v -5.565000 -11.665000 -1.720000
v -5.065000 -11.665000 -5.505000
v -5.065000 -11.665000 -1.804000
v -4.565000 -11.665000 -5.545000
v -4.565000 -11.665000 -2.117000
v -4.065000 -11.665000 -6.059000
v -4.065000 -11.665000 -3.550000
v -3.565000 -11.665000 -6.578000
v -3.565000 -11.665000 -4.398000
v -3.065000 -11.665000 -6.684000
v -3.065000 -11.665000 -4.615000
v -2.565000 -11.665000 -6.567000
v -2.565000 -11.665000 -4.647000
v -2.065000 -11.665000 -6.406000
v -2.065000 -11.665000 -4.797000
v -3.565000 -14.204000 -7.382000
v -3.565000 -13.206000 -7.382000
v -3.065000 -14.394000 -7.382000
v -3.065000 -12.890000 -7.382000
v -2.565000 -14.528000 -7.382000
v -2.565000 -12.591000 -7.382000
v -2.065000 -15.125000 -7.382000
v -2.065000 -12.800000 -7.382000
v -1.565000 -15.354000 -7.382000
v -1.565000 -13.824000 -7.382000
v -1.065000 -15.133000 -7.382000
v -1.065000 -14.238000 -7.382000
v -7.065000 -12.181000 -3.382000
v -7.065000 -10.169000 -3.382000
v -6.565000 -13.339000 -3.382000
v -6.565000 -9.848000 -3.382000
v -6.065000 -13.781000 -3.382000
v -6.065000 -9.762000 -3.382000
v -5.565000 -13.894000 -3.382000
v -5.565000 -9.864000 -3.382000
v -5.065000 -13.868000 -3.382000
v -5.065000 -10.200000 -3.382000
v -4.565000 -13.896000 -3.382000
v -4.565000 -10.669000 -3.382000
v -4.065000 -13.703000 -3.382000
v -4.065000 -11.762000 -3.382000
v -2.027000 -15.165000 -7.382000
v -1.096000 -15.165000 -7.382000
v -2.743000 -15.165000 -6.882000
v -0.467000 -15.165000 -6.882000
v -3.244000 -15.165000 -6.382000
v -0.266000 -15.165000 -6.382000
v -3.521000 -15.165000 -5.882000
v -0.253000 -15.165000 -5.882000
v -3.519000 -15.165000 -5.382000
v -0.277000 -15.165000 -5.382000
v -3.213000 -15.165000 -4.882000
v -0.512000 -15.165000 -4.882000
v -1.797000 -15.165000 -4.382000
v -1.329000 -15.165000 -4.382000
v -6.683000 -11.165000 -4.882000
v -4.848000 -11.165000 -4.882000
v -7.211000 -11.165000 -4.382000
v -4.245000 -11.165000 -4.382000
v -7.401000 -11.165000 -3.882000
v -4.210000 -11.165000 -3.882000
v -7.467000 -11.165000 -3.382000
v -4.249000 -11.165000 -3.382000
v -7.459000 -11.165000 -2.882000
v -4.265000 -11.165000 -2.882000
v -7.254000 -11.165000 -2.382000
v -4.472000 -11.165000 -2.382000
v -6.671000 -11.165000 -1.882000
v -5.147000 -11.165000 -1.882000
v -3.065000 -15.165000 -6.534000
v -3.065000 -15.165000 -4.773000
v -2.565000 -15.165000 -7.037000
v -2.565000 -15.165000 -4.612000
v -2.065000 -15.165000 -7.367000
v -2.065000 -15.165000 -4.460000
v -1.565000 -15.165000 -7.468000
v -1.565000 -15.165000 -4.362000
v -1.065000 -15.165000 -7.370000
v -1.065000 -15.165000 -4.459000
v -0.565000 -15.165000 -7.011000
v -0.565000 -15.165000 -4.817000
v -7.065000 -11.165000 -4.577000
v -7.065000 -11.165000 -2.154000
v -6.565000 -11.165000 -4.949000
v -6.565000 -11.165000 -1.839000
v -6.065000 -11.165000 -5.121000
v -6.065000 -11.165000 -1.755000
v -5.565000 -11.165000 -5.127000
v -5.565000 -11.165000 -1.805000
v -5.065000 -11.165000 -4.959000
v -5.065000 -11.165000 -1.912000
v -4.565000 -11.165000 -4.783000
v -4.565000 -11.165000 -2.264000
v -4.065000 -14.407000 -6.882000
v -4.065000 -12.792000 -6.882000
v -3.565000 -14.808000 -6.882000
v -3.565000 -12.115000 -6.882000
v -3.065000 -14.968000 -6.882000
v -3.065000 -11.940000 -6.882000
v -2.565000 -15.344000 -6.882000
v -2.565000 -12.000000 -6.882000
v -2.065000 -15.769000 -6.882000
v -2.065000 -12.116000 -6.882000
v -1.565000 -15.880000 -6.882000
v -1.565000 -12.520000 -6.882000
v -1.065000 -15.772000 -6.882000
v -1.065000 -13.530000 -6.882000
v -0.565000 -15.345000 -6.882000
v -0.565000 -14.027000 -6.882000
v -7.065000 -12.107000 -2.882000
v -7.065000 -10.180000 -2.882000
v -6.565000 -12.723000 -2.882000
v -6.565000 -9.856000 -2.882000
v -6.065000 -13.243000 -2.882000
v -6.065000 -9.770000 -2.882000
v -5.565000 -13.396000 -2.882000
v -5.565000 -9.873000 -2.882000
v -5.065000 -13.320000 -2.882000
v -5.065000 -10.225000 -2.882000
v -4.565000 -13.055000 -2.882000
v -4.565000 -10.713000 -2.882000
v -2.405000 -14.665000 -7.382000
v -0.893000 -14.665000 -7.382000
v -3.811000 -14.665000 -6.882000
v -0.367000 -14.665000 -6.882000
v -4.084000 -14.665000 -6.382000
v -0.181000 -14.665000 -6.382000
v -4.129000 -14.665000 -5.882000
v -0.171000 -14.665000 -5.882000
v -4.158000 -14.665000 -5.382000
v -0.196000 -14.665000 -5.382000
v -4.169000 -14.665000 -4.882000
v -0.414000 -14.665000 -4.882000
v -3.008000 -14.665000 -4.382000
v -1.043000 -14.665000 -4.382000
v -6.382000 -10.665000 -4.882000
v -5.662000 -10.665000 -4.882000
v -7.079000 -10.665000 -4.382000
v -4.848000 -10.665000 -4.382000
v -7.289000 -10.665000 -3.882000
v -4.563000 -10.665000 -3.882000
v -7.382000 -10.665000 -3.382000
v -4.569000 -10.665000 -3.382000
v -7.374000 -10.665000 -2.882000
v -4.615000 -10.665000 -2.882000
v -7.152000 -10.665000 -2.382000
v -4.924000 -10.665000 -2.382000
v -6.424000 -10.665000 -1.882000
v -5.749000 -10.665000 -1.882000
v -4.065000 -14.665000 -6.457000
v -4.065000 -14.665000 -4.714000
v -3.565000 -14.665000 -7.065000
v -3.565000 -14.665000 -4.506000
v -3.065000 -14.665000 -7.196000
v -3.065000 -14.665000 -4.394000
v -2.565000 -14.665000 -7.329000
v -2.565000 -14.665000 -4.318000
v -2.065000 -14.665000 -7.472000
v -2.065000 -14.665000 -4.323000
v -1.565000 -14.665000 -7.552000
v -1.565000 -14.665000 -4.282000
v -1.065000 -14.665000 -7.461000
v -1.065000 -14.665000 -4.374000
v -0.565000 -14.665000 -7.136000
v -0.565000 -14.665000 -4.701000
v -7.065000 -10.665000 -4.403000
v -7.065000 -10.665000 -2.275000
v -6.565000 -10.665000 -4.814000
v -6.565000 -10.665000 -1.929000
v -6.065000 -10.665000 -4.933000
v -6.065000 -10.665000 -1.839000
v -5.565000 -10.665000 -4.850000
v -5.565000 -10.665000 -1.946000
v -5.065000 -10.665000 -4.558000
v -5.065000 -10.665000 -2.259000
v -4.565000 -10.665000 -3.891000
v -4.565000 -10.665000 -3.404000
v -5.065000 -13.583000 -6.382000
v -5.065000 -12.704000 -6.382000
v -4.565000 -14.127000 -6.382000
v -4.565000 -12.378000 -6.382000
v -4.065000 -14.685000 -6.382000
v -4.065000 -11.894000 -6.382000
v -3.565000 -15.009000 -6.382000
v -3.565000 -11.509000 -6.382000
v -3.065000 -15.260000 -6.382000
v -3.065000 -11.420000 -6.382000
v -2.565000 -15.637000 -6.382000
v -2.565000 -11.519000 -6.382000
v -2.065000 -15.972000 -6.382000
v -2.065000 -11.647000 -6.382000
v -1.565000 -16.067000 -6.382000
v -1.565000 -12.115000 -6.382000
v -1.065000 -15.975000 -6.382000
v -1.065000 -13.157000 -6.382000
v -0.565000 -15.642000 -6.382000
v -0.565000 -13.730000 -6.382000
v -7.065000 -11.781000 -2.382000
v -7.065000 -10.506000 -2.382000
v -6.565000 -12.305000 -2.382000
v -6.565000 -10.078000 -2.382000
v -6.065000 -12.757000 -2.382000
v -6.065000 -9.976000 -2.382000
v -5.565000 -12.890000 -2.382000
v -5.565000 -10.098000 -2.382000
v -5.065000 -12.782000 -2.382000
v -5.065000 -10.539000 -2.382000
v -4.565000 -12.368000 -2.382000
v -4.565000 -11.008000 -2.382000
v -3.602000 -14.165000 -7.382000
v -1.142000 -14.165000 -7.382000
v -4.199000 -14.165000 -6.882000
v -0.486000 -14.165000 -6.882000
v -4.531000 -14.165000 -6.382000
v -0.282000 -14.165000 -6.382000
v -5.163000 -14.165000 -5.882000
v -0.275000 -14.165000 -5.882000
v -5.765000 -14.165000 -5.382000
v -0.304000 -14.165000 -5.382000
v -6.053000 -14.165000 -4.882000
v -0.545000 -14.165000 -4.882000
v -6.047000 -14.165000 -4.382000
v -1.342000 -14.165000 -4.382000
v -5.749000 -14.165000 -3.882000
v -3.789000 -14.165000 -3.882000
v -6.590000 -10.165000 -4.382000
v -5.454000 -10.165000 -4.382000
v -6.923000 -10.165000 -3.882000
v -5.122000 -10.165000 -3.882000
v -7.062000 -10.165000 -3.382000
v -5.100000 -10.165000 -3.382000
v -7.050000 -10.165000 -2.882000
v -5.122000 -10.165000 -2.882000
v -6.725000 -10.165000 -2.382000
v -5.448000 -10.165000 -2.382000
v -5.565000 -14.165000 -5.530000
v -5.565000 -14.165000 -3.756000
v -5.065000 -14.165000 -5.959000
v -5.065000 -14.165000 -3.630000
v -4.565000 -14.165000 -6.343000
v -4.565000 -14.165000 -3.579000
v -4.065000 -14.165000 -7.056000
v -4.065000 -14.165000 -3.696000
v -3.565000 -14.165000 -7.398000
v -3.565000 -14.165000 -4.010000
v -3.065000 -14.165000 -7.486000
v -3.065000 -14.165000 -4.173000
v -2.565000 -14.165000 -7.470000
v -2.565000 -14.165000 -4.234000
v -2.065000 -14.165000 -7.518000
v -2.065000 -14.165000 -4.232000
v -1.565000 -14.165000 -7.469000
v -1.565000 -14.165000 -4.312000
v -1.065000 -14.165000 -7.353000
v -1.065000 -14.165000 -4.487000
v -0.565000 -14.165000 -6.987000
v -0.565000 -14.165000 -4.858000
v -6.565000 -10.165000 -4.401000
v -6.565000 -10.165000 -2.274000
v -6.065000 -10.165000 -4.575000
v -6.065000 -10.165000 -2.153000
v -5.565000 -10.165000 -4.456000
v -5.565000 -10.165000 -2.299000
v -6.065000 -13.196000 -5.882000
v -6.065000 -12.190000 -5.882000
v -5.565000 -13.777000 -5.882000
v -5.565000 -12.014000 -5.882000
v -5.065000 -14.220000 -5.882000
v -5.065000 -12.000000 -5.882000
v -4.565000 -14.430000 -5.882000
v -4.565000 -11.880000 -5.882000
v -4.065000 -14.705000 -5.882000
v -4.065000 -11.589000 -5.882000
v -3.565000 -15.122000 -5.882000
v -3.565000 -11.312000 -5.882000
v -3.065000 -15.470000 -5.882000
v -3.065000 -11.236000 -5.882000
v -2.565000 -15.691000 -5.882000
v -2.565000 -11.313000 -5.882000
v -2.065000 -15.993000 -5.882000
v -2.065000 -11.418000 -5.882000
v -1.565000 -16.087000 -5.882000
v -1.565000 -11.766000 -5.882000
v -1.065000 -15.995000 -5.882000
v -1.065000 -13.079000 -5.882000
v -0.565000 -15.665000 -5.882000
v -0.565000 -13.723000 -5.882000
v -6.565000 -11.480000 -1.882000
v -6.565000 -10.807000 -1.882000
v -6.065000 -12.082000 -1.882000
v -6.065000 -10.559000 -1.882000
v -5.565000 -12.343000 -1.882000
v -5.565000 -10.867000 -1.882000
v -5.065000 -12.137000 -1.882000
v -5.065000 -11.239000 -1.882000
v -3.778000 -13.665000 -7.382000
v -1.721000 -13.665000 -7.382000
v -4.311000 -13.665000 -6.882000
v -0.926000 -13.665000 -6.882000
v -4.989000 -13.665000 -6.382000
v -0.631000 -13.665000 -6.382000
v -5.641000 -13.665000 -5.882000
v -0.625000 -13.665000 -5.882000
v -6.308000 -13.665000 -5.382000
v -0.664000 -13.665000 -5.382000
v -6.590000 -13.665000 -4.882000
v -0.940000 -13.665000 -4.882000
v -6.584000 -13.665000 -4.382000
v -1.616000 -13.665000 -4.382000
v -6.551000 -13.665000 -3.882000
v -3.367000 -13.665000 -3.882000
v -6.260000 -13.665000 -3.382000
v -4.029000 -13.665000 -3.382000
v -6.565000 -13.665000 -4.972000
v -6.565000 -13.665000 -3.947000
v -6.065000 -13.665000 -5.578000
v -6.065000 -13.665000 -3.238000
v -5.565000 -13.665000 -5.959000
v -5.565000 -13.665000 -3.105000
v -5.065000 -13.665000 -6.350000
v -5.065000 -13.665000 -3.186000
v -4.565000 -13.665000 -6.640000
v -4.565000 -13.665000 -3.245000
v -4.065000 -13.665000 -7.167000
v -4.065000 -13.665000 -3.368000
v -3.565000 -13.665000 -7.480000
v -3.565000 -13.665000 -3.707000
v -3.065000 -13.665000 -7.563000
v -3.065000 -13.665000 -4.089000
v -2.565000 -13.665000 -7.536000
v -2.565000 -13.665000 -4.250000
v -2.065000 -13.665000 -7.457000
v -2.065000 -13.665000 -4.283000
v -1.565000 -13.665000 -7.327000
v -1.565000 -13.665000 -4.401000
v -1.065000 -13.665000 -7.011000
v -1.065000 -13.665000 -4.741000
v -6.565000 -13.414000 -5.382000
v -6.565000 -11.972000 -5.382000
v -6.065000 -13.868000 -5.382000
v -6.065000 -11.550000 -5.382000
v -5.565000 -14.283000 -5.382000
v -5.565000 -11.468000 -5.382000
v -5.065000 -14.438000 -5.382000
v -5.065000 -11.565000 -5.382000
v -4.565000 -14.538000 -5.382000
v -4.565000 -11.555000 -5.382000
v -4.065000 -14.712000 -5.382000
v -4.065000 -11.440000 -5.382000
v -3.565000 -15.117000 -5.382000
v -3.565000 -11.307000 -5.382000
v -3.065000 -15.468000 -5.382000
v -3.065000 -11.245000 -5.382000
v -2.565000 -15.672000 -5.382000
v -2.565000 -11.306000 -5.382000
v -2.065000 -15.972000 -5.382000
v -2.065000 -11.406000 -5.382000
v -1.565000 -16.067000 -5.382000
v -1.565000 -11.750000 -5.382000
v -1.065000 -15.973000 -5.382000
v -1.065000 -13.076000 -5.382000
v -0.565000 -15.635000 -5.382000
v -0.565000 -13.765000 -5.382000
v -3.518000 -13.165000 -7.382000
v -1.918000 -13.165000 -7.382000
v -4.229000 -13.165000 -6.882000
v -1.300000 -13.165000 -6.882000
v -5.222000 -13.165000 -6.382000
v -1.060000 -13.165000 -6.382000
v -6.097000 -13.165000 -5.882000
v -1.020000 -13.165000 -5.882000
v -6.709000 -13.165000 -5.382000
v -1.021000 -13.165000 -5.382000
v -6.906000 -13.165000 -4.882000
v -1.251000 -13.165000 -4.882000
v -6.898000 -13.165000 -4.382000
v -1.879000 -13.165000 -4.382000
v -6.861000 -13.165000 -3.882000
v -3.273000 -13.165000 -3.882000
v -6.655000 -13.165000 -3.382000
v -3.852000 -13.165000 -3.382000
v -6.181000 -13.165000 -2.882000
v -4.700000 -13.165000 -2.882000
v -6.565000 -13.165000 -5.565000
v -6.565000 -13.165000 -3.263000
v -6.065000 -13.165000 -5.895000
v -6.065000 -13.165000 -2.802000
v -5.565000 -13.165000 -6.143000
v -5.565000 -13.165000 -2.644000
v -5.065000 -13.165000 -6.459000
v -5.065000 -13.165000 -2.746000
v -4.565000 -13.165000 -6.653000
v -4.565000 -13.165000 -2.933000
v -4.065000 -13.165000 -7.025000
v -4.065000 -13.165000 -3.240000
v -3.565000 -13.165000 -7.365000
v -3.565000 -13.165000 -3.602000
v -3.065000 -13.165000 -7.468000
v -3.065000 -13.165000 -4.022000
v -2.565000 -13.165000 -7.521000
v -2.565000 -13.165000 -4.193000
v -2.065000 -13.165000 -7.443000
v -2.065000 -13.165000 -4.297000
v -1.565000 -13.165000 -7.157000
v -1.565000 -13.165000 -4.579000
v -1.065000 -13.165000 -6.403000
v -1.065000 -13.165000 -5.226000
v -6.565000 -13.690000 -4.882000
v -6.565000 -10.847000 -4.882000
v -6.065000 -14.153000 -4.882000
v -6.065000 -10.558000 -4.882000
v -5.565000 -14.488000 -4.882000
v -5.565000 -10.741000 -4.882000
v -5.065000 -14.582000 -4.882000
v -5.065000 -11.082000 -4.882000
v -4.565000 -14.591000 -4.882000
v -4.565000 -11.240000 -4.882000
v -4.065000 -14.695000 -4.882000
v -4.065000 -11.335000 -4.882000
v -3.565000 -14.916000 -4.882000
v -3.565000 -11.402000 -4.882000
v -3.065000 -15.253000 -4.882000
v -3.065000 -11.451000 -4.882000
v -2.565000 -15.427000 -4.882000
v -2.565000 -11.488000 -4.882000
v -2.065000 -15.734000 -4.882000
v -2.065000 -11.604000 -4.882000
v -1.565000 -15.849000 -4.882000
v -1.565000 -12.047000 -4.882000
v -1.065000 -15.736000 -4.882000
v -1.065000 -13.465000 -4.882000
v -0.565000 -15.270000 -4.882000
v -0.565000 -14.129000 -4.882000
v -2.820000 -12.665000 -7.382000
v -2.231000 -12.665000 -7.382000
v -3.948000 -12.665000 -6.882000
v -1.477000 -12.665000 -6.882000
v -5.031000 -12.665000 -6.382000
v -1.257000 -12.665000 -6.382000
v -6.287000 -12.665000 -5.882000
v -1.196000 -12.665000 -5.882000
v -6.806000 -12.665000 -5.382000
v -1.189000 -12.665000 -5.382000
v -6.989000 -12.665000 -4.882000
v -1.378000 -12.665000 -4.882000
v -6.983000 -12.665000 -4.382000
v -1.892000 -12.665000 -4.382000
v -6.950000 -12.665000 -3.882000
v -3.404000 -12.665000 -3.882000
v -6.826000 -12.665000 -3.382000
v -3.864000 -12.665000 -3.382000
v -6.598000 -12.665000 -2.882000
v -4.325000 -12.665000 -2.882000
v -6.221000 -12.665000 -2.382000
v -4.862000 -12.665000 -2.382000
v -6.565000 -12.665000 -5.680000
v -6.565000 -12.665000 -2.829000
v -6.065000 -12.665000 -5.982000
v -6.065000 -12.665000 -2.265000
v -5.565000 -12.665000 -6.124000
v -5.565000 -12.665000 -2.118000
v -5.065000 -12.665000 -6.368000
v -5.065000 -12.665000 -2.238000
v -4.565000 -12.665000 -6.546000
v -4.565000 -12.665000 -2.654000
v -4.065000 -12.665000 -6.837000
v -4.065000 -12.665000 -3.140000
v -3.565000 -12.665000 -7.067000
v -3.565000 -12.665000 -3.742000
v -3.065000 -12.665000 -7.298000
v -3.065000 -12.665000 -4.073000
v -2.565000 -12.665000 -7.416000
v -2.565000 -12.665000 -4.196000
v -2.065000 -12.665000 -7.332000
v -2.065000 -12.665000 -4.300000
v -1.565000 -12.665000 -6.990000
v -1.565000 -12.665000 -4.638000
v -7.065000 -11.962000 -4.382000
v -7.065000 -10.638000 -4.382000
v -6.565000 -13.685000 -4.382000
v -6.565000 -10.152000 -4.382000
v -6.065000 -14.146000 -4.382000
v -6.065000 -10.022000 -4.382000
v -5.565000 -14.483000 -4.382000
v -5.565000 -10.112000 -4.382000
v -5.065000 -14.577000 -4.382000
v -5.065000 -10.491000 -4.382000
v -4.565000 -14.595000 -4.382000
v -4.565000 -10.901000 -4.382000
v -4.065000 -14.565000 -4.382000
v -4.065000 -11.309000 -4.382000
v -3.565000 -14.563000 -4.382000
v -3.565000 -11.680000 -4.382000
v -3.065000 -14.646000 -4.382000
v -3.065000 -11.950000 -4.382000
v -2.565000 -14.818000 -4.382000
v -2.565000 -12.000000 -4.382000
v -2.065000 -14.938000 -4.382000
v -2.065000 -12.232000 -4.382000
v -1.565000 -15.221000 -4.382000
v -1.565000 -13.717000 -4.382000
v -1.065000 -14.854000 -4.382000
v -1.065000 -14.546000 -4.382000
f 125 319 353
f 353 319 435
f 435 319 405
f 405 126 435
f 355 127 353
f 353 127 125
f 353 437 355
f 353 435 437
f 473 507 126
f 507 435 126
f 507 437 435
f 473 128 507
f 357 129 355
f 355 129 127
f 355 439 357
f 355 437 439
f 437 509 439
f 437 507 509
f 543 581 128
f 581 507 128
f 581 509 507
f 543 130 581
f 131 231 267
f 129 357 231
f 357 267 231
f 357 359 267
f 357 441 359
f 357 439 441
f 439 511 441
f 439 509 511
f 132 511 544
f 511 581 544
f 511 509 581
f 581 130 544
f 133 151 185
f 131 267 151
f 267 185 151
f 267 269 185
f 267 361 269
f 267 359 361
f 134 361 406
f 361 441 406
f 361 359 441
f 406 441 474
f 474 441 511
f 511 132 474
f 185 152 133
f 152 185 135
f 185 271 135
f 185 269 271
f 136 271 320
f 271 361 320
f 271 269 361
f 361 134 320
f 271 232 135
f 271 136 232
f 137 15 47
f 47 15 13
f 15 83 13
f 85 83 15
f 85 169 83
f 171 169 85
f 171 249 169
f 251 249 171
f 251 138 249
f 249 138 48
f 139 489 49
f 49 489 487
f 489 557 487
f 559 557 489
f 47 557 559
f 47 559 137
f 337 48 138
f 337 138 339
f 339 140 337
f 337 140 50
f 141 421 51
f 51 421 419
f 49 419 421
f 49 421 139
f 50 142 52
f 140 142 50
f 346 333 53
f 51 333 346
f 143 51 346
f 141 51 143
f 52 144 54
f 142 144 52
f 55 348 53
f 53 348 346
f 143 346 348
f 143 348 145
f 340 146 56
f 340 56 338
f 338 54 340
f 340 54 144
f 57 350 55
f 55 350 348
f 145 348 350
f 145 350 147
f 252 148 286
f 286 58 252
f 58 146 252
f 58 56 146
f 59 352 57
f 57 352 350
f 147 350 352
f 147 352 149
f 86 150 116
f 86 116 60
f 170 86 60
f 172 86 170
f 148 172 286
f 172 250 286
f 172 170 250
f 58 286 250
f 334 352 59
f 422 149 436
f 436 149 61
f 149 352 61
f 352 334 61
f 422 436 506
f 422 506 490
f 490 506 578
f 490 578 560
f 560 578 62
f 14 560 62
f 16 560 14
f 150 16 116
f 16 84 116
f 16 14 84
f 60 116 84
f 420 436 61
f 488 506 420
f 420 506 436
f 558 578 488
f 488 578 506
f 62 578 558
f 203 321 351
f 351 321 433
f 433 321 407
f 433 407 503
f 503 407 475
f 475 204 503
f 205 233 261
f 203 351 233
f 233 351 261
f 351 319 261
f 319 125 261
f 433 405 319
f 433 319 351
f 505 126 405
f 433 505 405
f 503 505 433
f 545 577 204
f 577 503 204
f 577 505 503
f 577 545 37
f 37 545 1
f 1 206 37
f 263 207 261
f 261 207 205
f 261 125 127
f 261 127 263
f 505 473 126
f 579 128 473
f 505 579 473
f 577 579 505
f 577 39 579
f 577 37 39
f 37 206 39
f 39 206 208
f 209 153 181
f 207 263 153
f 263 181 153
f 263 265 181
f 263 127 129
f 263 129 265
f 579 543 128
f 41 130 543
f 579 41 543
f 39 41 579
f 39 208 41
f 41 208 210
f 211 63 95
f 209 181 63
f 181 95 63
f 181 183 95
f 265 231 131
f 183 265 131
f 181 265 183
f 265 129 231
f 544 583 132
f 583 544 130
f 41 583 130
f 43 583 41
f 41 210 43
f 43 210 212
f 97 213 95
f 95 213 211
f 183 151 133
f 97 183 133
f 95 183 97
f 183 131 151
f 406 443 134
f 474 513 443
f 474 443 406
f 513 474 132
f 583 513 132
f 585 513 583
f 214 585 2
f 585 43 2
f 585 583 43
f 43 212 2
f 99 215 97
f 97 215 213
f 97 133 152
f 187 97 152
f 99 97 187
f 135 187 152
f 320 363 136
f 363 320 134
f 443 363 134
f 445 363 443
f 216 445 476
f 445 513 476
f 445 443 513
f 476 513 546
f 546 513 585
f 585 214 546
f 99 64 215
f 64 99 217
f 99 189 217
f 99 187 189
f 187 135 232
f 273 187 232
f 189 187 273
f 273 232 136
f 363 273 136
f 365 273 363
f 218 365 408
f 365 445 408
f 365 363 445
f 445 216 408
f 189 154 217
f 154 189 234
f 234 189 273
f 234 273 322
f 322 273 365
f 365 218 322
f 24 15 137
f 219 87 24
f 87 15 24
f 87 85 15
f 87 171 85
f 173 171 87
f 173 251 171
f 253 251 173
f 253 220 251
f 251 220 138
f 494 489 139
f 221 561 494
f 561 489 494
f 561 559 489
f 17 24 137
f 559 17 137
f 561 17 559
f 219 24 17
f 339 138 220
f 339 220 341
f 341 222 339
f 339 222 140
f 426 421 141
f 491 494 139
f 491 139 421
f 223 491 421
f 426 223 421
f 221 494 491
f 140 224 142
f 222 224 140
f 143 428 141
f 141 428 426
f 223 426 428
f 223 428 225
f 142 226 144
f 224 226 142
f 145 430 143
f 143 430 428
f 225 428 430
f 225 430 227
f 342 228 146
f 342 146 340
f 340 144 342
f 342 144 226
f 147 432 145
f 145 432 430
f 502 492 227
f 430 502 227
f 432 502 430
f 229 492 502
f 254 230 148
f 254 148 252
f 252 146 254
f 254 146 228
f 149 434 147
f 147 434 432
f 504 432 434
f 502 432 504
f 576 562 229
f 502 576 229
f 504 576 502
f 562 576 36
f 562 36 18
f 18 36 150
f 86 18 150
f 88 18 86
f 172 88 86
f 172 174 88
f 172 148 174
f 174 148 230
f 422 434 149
f 490 504 422
f 422 504 434
f 560 576 490
f 490 576 504
f 16 36 560
f 560 36 576
f 150 36 16
f 287 477 499
f 477 288 499
f 289 409 431
f 287 499 409
f 499 431 409
f 499 501 431
f 547 573 288
f 573 499 288
f 573 501 499
f 547 290 573
f 291 235 259
f 259 235 203
f 235 321 203
f 235 323 321
f 323 289 431
f 407 323 431
f 321 323 407
f 501 475 407
f 501 407 431
f 575 204 475
f 501 575 475
f 573 575 501
f 3 35 290
f 35 573 290
f 35 575 573
f 3 292 35
f 233 205 259
f 205 291 259
f 205 293 291
f 259 203 233
f 575 545 204
f 35 1 545
f 35 545 575
f 292 73 117
f 292 117 206
f 35 292 206
f 1 35 206
f 73 294 117
f 295 155 179
f 207 179 155
f 293 207 155
f 205 207 293
f 119 208 206
f 119 206 117
f 117 294 119
f 119 294 296
f 153 209 179
f 209 295 179
f 209 297 295
f 179 207 153
f 121 210 208
f 121 208 119
f 119 296 121
f 121 296 298
f 299 65 211
f 211 65 63
f 209 63 65
f 209 65 297
f 123 212 210
f 123 210 121
f 121 298 123
f 123 298 300
f 301 211 213
f 301 299 211
f 2 45 214
f 123 74 212
f 212 74 2
f 74 302 2
f 302 45 2
f 123 300 74
f 303 213 215
f 303 301 213
f 476 515 216
f 548 304 515
f 476 548 515
f 546 548 476
f 45 4 214
f 4 546 214
f 4 548 546
f 45 302 4
f 215 64 303
f 303 64 66
f 305 66 64
f 305 64 217
f 410 306 218
f 410 218 408
f 515 478 216
f 478 408 216
f 478 410 408
f 515 304 478
f 217 154 305
f 305 154 156
f 234 156 154
f 234 236 156
f 322 236 234
f 322 324 236
f 322 218 324
f 324 218 306
f 307 89 219
f 219 89 87
f 89 173 87
f 175 173 89
f 175 253 173
f 255 253 175
f 255 308 253
f 253 308 220
f 566 561 221
f 309 19 566
f 19 561 566
f 19 17 561
f 219 17 19
f 219 19 307
f 341 220 308
f 341 308 343
f 343 310 341
f 341 310 222
f 496 491 223
f 563 566 221
f 563 221 491
f 311 563 491
f 496 311 491
f 309 566 563
f 222 312 224
f 310 312 222
f 225 498 223
f 223 498 496
f 311 496 498
f 311 498 313
f 224 314 226
f 312 314 224
f 227 500 225
f 225 500 498
f 313 498 500
f 313 500 315
f 344 316 228
f 344 228 342
f 342 226 344
f 344 226 314
f 492 500 227
f 564 315 574
f 574 315 229
f 315 500 229
f 500 492 229
f 317 564 574
f 256 318 230
f 256 230 254
f 254 228 256
f 256 228 316
f 562 574 229
f 574 562 317
f 562 20 317
f 562 18 20
f 88 20 18
f 88 90 20
f 174 90 88
f 174 176 90
f 174 230 176
f 176 230 318
f 373 479 495
f 495 479 567
f 567 479 549
f 549 374 567
f 375 411 427
f 373 495 411
f 495 427 411
f 495 497 427
f 495 569 497
f 495 567 569
f 5 29 374
f 29 567 374
f 29 569 567
f 5 376 29
f 377 325 347
f 375 427 325
f 427 347 325
f 427 429 347
f 497 477 287
f 429 497 287
f 427 497 429
f 571 288 477
f 497 571 477
f 569 571 497
f 569 31 571
f 569 29 31
f 29 376 31
f 31 376 378
f 349 379 347
f 347 379 377
f 429 409 289
f 349 429 289
f 347 429 349
f 429 287 409
f 571 547 288
f 33 290 547
f 571 33 547
f 31 33 571
f 31 378 33
f 33 378 380
f 381 237 291
f 291 237 235
f 237 379 349
f 323 237 349
f 235 237 323
f 349 289 323
f 33 3 290
f 380 75 115
f 380 115 292
f 33 380 292
f 3 33 292
f 75 382 115
f 383 291 293
f 383 381 291
f 115 73 292
f 115 382 73
f 382 294 73
f 382 384 294
f 385 157 295
f 295 157 155
f 293 155 157
f 293 157 383
f 294 386 296
f 384 386 294
f 387 67 93
f 297 93 67
f 385 297 67
f 295 297 385
f 296 388 298
f 386 388 296
f 65 299 93
f 299 387 93
f 299 389 387
f 93 297 65
f 298 390 300
f 388 390 298
f 391 299 301
f 391 389 299
f 76 392 302
f 76 302 74
f 74 300 76
f 76 300 390
f 393 301 303
f 393 391 301
f 550 394 304
f 550 304 548
f 4 550 548
f 4 6 550
f 4 302 6
f 6 302 392
f 101 395 66
f 395 303 66
f 395 393 303
f 305 101 66
f 412 396 306
f 412 306 410
f 478 412 410
f 478 480 412
f 478 304 480
f 480 304 394
f 101 68 395
f 305 156 101
f 156 68 101
f 156 158 68
f 236 158 156
f 236 238 158
f 324 238 236
f 324 326 238
f 324 306 326
f 326 306 396
f 104 89 307
f 192 175 104
f 104 175 89
f 276 255 192
f 192 255 175
f 276 308 255
f 26 19 309
f 19 26 307
f 26 104 307
f 26 106 104
f 106 397 177
f 192 106 177
f 104 106 192
f 192 177 398
f 278 192 398
f 276 192 278
f 308 276 343
f 276 368 343
f 276 278 368
f 368 310 343
f 568 563 311
f 563 568 309
f 568 26 309
f 568 28 26
f 28 399 91
f 106 28 91
f 26 28 106
f 397 106 91
f 257 278 398
f 278 257 400
f 370 278 400
f 368 278 370
f 310 368 312
f 312 368 370
f 313 570 311
f 311 570 568
f 570 401 21
f 28 570 21
f 568 570 28
f 399 28 21
f 258 402 282
f 370 400 258
f 282 370 258
f 372 370 282
f 312 370 314
f 314 370 372
f 315 572 313
f 313 572 570
f 32 22 401
f 570 32 401
f 572 32 570
f 403 22 32
f 178 404 200
f 282 402 178
f 200 282 178
f 284 282 200
f 344 372 316
f 372 284 316
f 372 282 284
f 314 372 344
f 564 572 315
f 317 34 564
f 34 572 564
f 34 32 572
f 114 92 403
f 32 114 403
f 34 114 32
f 200 404 92
f 114 200 92
f 202 200 114
f 256 284 318
f 284 202 318
f 284 200 202
f 316 284 256
f 20 34 317
f 90 114 20
f 20 114 34
f 176 202 90
f 90 202 114
f 318 202 176
f 447 481 493
f 493 481 565
f 565 481 551
f 565 551 25
f 25 551 7
f 7 448 25
f 449 413 425
f 447 493 413
f 413 493 425
f 493 479 425
f 479 373 425
f 565 549 479
f 565 479 493
f 27 374 549
f 565 27 549
f 25 27 565
f 77 107 448
f 107 25 448
f 107 27 25
f 77 450 107
f 451 327 345
f 449 425 327
f 327 425 345
f 425 411 345
f 411 375 345
f 425 373 411
f 27 5 374
f 109 376 5
f 27 109 5
f 107 109 27
f 107 450 109
f 109 450 452
f 325 377 345
f 377 451 345
f 377 453 451
f 345 375 325
f 111 378 376
f 111 376 109
f 109 452 111
f 111 452 454
f 455 377 379
f 455 453 377
f 113 380 378
f 113 378 111
f 111 454 113
f 113 454 456
f 457 239 381
f 381 239 237
f 379 237 239
f 379 239 455
f 113 75 380
f 113 456 75
f 456 382 75
f 456 458 382
f 459 381 383
f 459 457 381
f 382 460 384
f 458 460 382
f 461 159 385
f 385 159 157
f 383 157 159
f 383 159 459
f 384 462 386
f 460 462 384
f 463 69 387
f 387 69 67
f 385 67 69
f 385 69 461
f 386 464 388
f 462 464 386
f 465 387 389
f 465 463 387
f 388 466 390
f 464 466 388
f 467 389 391
f 467 465 389
f 78 468 392
f 78 392 76
f 76 390 78
f 78 390 466
f 469 391 393
f 469 467 391
f 552 470 394
f 552 394 550
f 6 552 550
f 6 8 552
f 6 392 8
f 8 392 468
f 70 469 102
f 469 395 102
f 469 393 395
f 471 70 102
f 414 472 396
f 414 396 412
f 480 414 412
f 480 482 414
f 480 394 482
f 482 394 470
f 68 102 395
f 102 68 471
f 68 160 471
f 68 158 160
f 238 160 158
f 238 240 160
f 326 240 238
f 326 328 240
f 326 396 328
f 328 396 472
f 194 177 397
f 194 398 177
f 108 91 399
f 91 108 397
f 108 194 397
f 108 196 194
f 398 194 257
f 194 280 257
f 194 196 280
f 280 400 257
f 30 21 401
f 21 30 399
f 30 108 399
f 30 110 108
f 198 108 110
f 196 108 198
f 258 280 402
f 280 198 402
f 280 196 198
f 400 280 258
f 22 30 401
f 403 112 22
f 112 30 22
f 112 110 30
f 178 198 404
f 198 112 404
f 198 110 112
f 402 198 178
f 92 112 403
f 404 112 92
f 517 415 423
f 423 415 447
f 415 481 447
f 415 483 481
f 483 551 481
f 553 551 483
f 553 7 551
f 9 7 553
f 448 7 105
f 7 79 105
f 7 9 79
f 105 79 193
f 193 79 165
f 165 518 193
f 413 449 423
f 449 517 423
f 449 519 517
f 423 447 413
f 105 77 448
f 195 450 77
f 105 195 77
f 193 195 105
f 245 279 518
f 279 193 518
f 279 195 193
f 245 520 279
f 521 329 451
f 451 329 327
f 449 327 329
f 449 329 519
f 197 452 450
f 197 450 195
f 522 197 246
f 197 279 246
f 197 195 279
f 279 520 246
f 523 451 453
f 523 521 451
f 199 454 452
f 199 452 197
f 197 522 199
f 199 522 524
f 525 453 455
f 525 523 453
f 454 199 166
f 526 454 166
f 456 454 526
f 199 524 166
f 527 241 457
f 457 241 239
f 455 239 241
f 455 241 525
f 456 528 458
f 526 528 456
f 529 457 459
f 529 527 457
f 458 530 460
f 528 530 458
f 531 161 461
f 461 161 159
f 459 159 161
f 459 161 529
f 460 532 462
f 530 532 460
f 94 69 463
f 461 69 94
f 533 461 94
f 531 461 533
f 462 534 464
f 532 534 462
f 94 463 71
f 463 535 71
f 463 465 535
f 533 94 71
f 464 536 466
f 534 536 464
f 537 465 467
f 537 535 465
f 80 538 468
f 80 468 78
f 78 466 80
f 80 466 536
f 539 467 469
f 539 537 467
f 484 540 516
f 484 516 470
f 552 484 470
f 554 484 552
f 8 554 552
f 8 10 554
f 8 468 10
f 10 468 538
f 469 70 539
f 539 70 72
f 541 72 70
f 541 70 471
f 416 542 472
f 416 472 414
f 540 416 516
f 416 482 516
f 416 414 482
f 470 516 482
f 471 160 541
f 541 160 162
f 240 162 160
f 240 242 162
f 328 242 240
f 328 330 242
f 328 472 330
f 330 472 542
f 587 81 103
f 103 81 191
f 191 81 167
f 191 167 275
f 275 167 247
f 247 588 275
f 589 417 517
f 517 417 415
f 417 483 415
f 485 483 417
f 485 553 483
f 555 553 485
f 555 9 553
f 11 9 555
f 11 587 103
f 79 11 103
f 9 11 79
f 191 165 79
f 191 79 103
f 277 518 165
f 191 277 165
f 275 277 191
f 335 367 588
f 367 275 588
f 367 277 275
f 335 590 367
f 591 517 519
f 591 589 517
f 277 245 518
f 369 520 245
f 277 369 245
f 367 369 277
f 367 590 369
f 369 590 592
f 593 331 521
f 521 331 329
f 519 329 331
f 519 331 591
f 246 281 522
f 281 246 520
f 369 281 520
f 371 281 369
f 369 592 371
f 371 592 594
f 595 521 523
f 595 593 521
f 283 524 522
f 283 522 281
f 596 283 336
f 283 371 336
f 283 281 371
f 371 594 336
f 597 523 525
f 597 595 523
f 166 201 526
f 283 248 524
f 524 248 166
f 248 598 166
f 598 201 166
f 283 596 248
f 260 241 527
f 525 241 260
f 599 525 260
f 597 525 599
f 526 201 168
f 600 526 168
f 528 526 600
f 201 598 168
f 529 262 527
f 527 262 260
f 599 260 262
f 599 262 601
f 82 602 118
f 118 530 82
f 530 600 82
f 530 528 600
f 180 161 531
f 161 180 529
f 180 262 529
f 180 264 262
f 601 262 264
f 601 264 603
f 604 120 118
f 604 118 602
f 530 118 532
f 532 118 120
f 533 182 531
f 531 182 180
f 182 605 243
f 264 182 243
f 180 182 264
f 603 264 243
f 606 122 120
f 606 120 604
f 532 120 534
f 534 120 122
f 96 71 535
f 71 96 533
f 96 182 533
f 96 184 182
f 605 182 184
f 605 184 607
f 12 608 44
f 122 606 12
f 44 122 12
f 124 122 44
f 534 122 536
f 536 122 124
f 537 98 535
f 535 98 96
f 98 609 163
f 184 98 163
f 96 98 184
f 607 184 163
f 418 610 444
f 418 444 514
f 418 514 486
f 486 514 586
f 486 586 556
f 44 608 556
f 586 44 556
f 46 44 586
f 80 124 538
f 124 46 538
f 124 44 46
f 536 124 80
f 539 100 537
f 537 100 98
f 188 164 609
f 98 188 609
f 100 188 98
f 611 164 188
f 332 612 364
f 444 610 332
f 364 444 332
f 446 444 364
f 484 514 540
f 514 446 540
f 514 444 446
f 554 586 484
f 484 586 514
f 10 46 554
f 554 46 586
f 538 46 10
f 72 100 539
f 541 190 72
f 190 100 72
f 190 188 100
f 274 244 611
f 188 274 611
f 190 274 188
f 364 612 244
f 274 364 244
f 366 364 274
f 416 446 542
f 446 366 542
f 446 364 366
f 540 446 416
f 162 190 541
f 242 274 162
f 162 274 190
f 330 366 242
f 242 366 274
f 542 366 330
f 47 13 23
f 23 13 587
f 13 81 587
f 13 83 81
f 83 167 81
f 169 167 83
f 169 247 167
f 249 247 169
f 249 48 247
f 247 48 588
f 424 417 589
f 49 487 424
f 487 417 424
f 487 485 417
f 487 555 485
f 557 555 487
f 557 47 23
f 11 557 23
f 555 557 11
f 23 587 11
f 335 588 48
f 335 48 337
f 337 50 335
f 335 50 590
f 424 589 419
f 589 51 419
f 589 591 51
f 49 424 419
f 590 52 592
f 50 52 590
f 53 333 593
f 593 333 331
f 591 331 333
f 591 333 51
f 592 54 594
f 52 54 592
f 55 593 595
f 55 53 593
f 338 56 596
f 338 596 336
f 336 594 338
f 338 594 54
f 57 595 597
f 57 55 595
f 248 285 598
f 248 596 285
f 596 58 285
f 596 56 58
f 59 597 599
f 59 57 597
f 170 60 600
f 170 600 168
f 285 250 598
f 250 168 598
f 250 170 168
f 285 58 250
f 334 59 354
f 59 601 354
f 59 599 601
f 61 334 354
f 14 62 38
f 14 38 602
f 82 14 602
f 84 14 82
f 82 600 84
f 84 600 60
f 603 356 601
f 601 356 354
f 438 420 61
f 354 438 61
f 356 438 354
f 420 438 508
f 420 508 488
f 488 508 580
f 488 580 558
f 38 62 558
f 580 38 558
f 40 38 580
f 602 38 604
f 604 38 40
f 266 243 605
f 243 266 603
f 266 356 603
f 266 358 356
f 440 356 358
f 438 356 440
f 510 438 440
f 508 438 510
f 582 508 510
f 580 508 582
f 42 580 582
f 40 580 42
f 604 40 606
f 606 40 42
f 607 268 605
f 605 268 266
f 360 266 268
f 358 266 360
f 442 358 360
f 440 358 442
f 512 440 442
f 510 440 512
f 584 510 512
f 582 510 584
f 12 42 608
f 42 584 608
f 42 582 584
f 606 42 12
f 186 163 609
f 163 186 607
f 186 268 607
f 186 270 268
f 362 268 270
f 360 268 362
f 418 442 610
f 442 362 610
f 442 360 362
f 486 512 418
f 418 512 442
f 556 584 486
f 486 584 512
f 608 584 556
f 164 186 609
f 611 272 164
f 272 186 164
f 272 270 186
f 332 362 612
f 362 272 612
f 362 270 272
f 610 362 332
f 244 272 611
f 612 272 244
