# Converted from NanoShaper .vert/.face
v 2.772000 10.585000 -8.632000
v 4.086000 10.585000 -8.632000
v 2.019000 10.585000 -8.132000
v 4.504000 10.585000 -8.132000
v 1.687000 10.585000 -7.632000
v 4.894000 10.585000 -7.632000
v 1.595000 10.585000 -7.132000
v 5.213000 10.585000 -7.132000
v 1.691000 10.585000 -6.632000
v 5.307000 10.585000 -6.632000
v 2.010000 10.585000 -6.132000
v 5.384000 10.585000 -6.132000
v 2.354000 10.585000 -5.632000
v 5.508000 10.585000 -5.632000
v 2.579000 10.585000 -5.132000
v 5.599000 10.585000 -5.132000
v 2.819000 10.585000 -4.632000
v 5.658000 10.585000 -4.632000
v 2.933000 10.585000 -4.132000
v 5.637000 10.585000 -4.132000
v 3.224000 10.585000 -3.632000
v 5.479000 10.585000 -3.632000
v 4.116000 10.585000 -3.132000
v 5.165000 10.585000 -3.132000
v 6.060000 10.585000 -0.132000
v 6.822000 10.585000 -0.132000
v 5.837000 10.585000 0.368000
v 7.044000 10.585000 0.368000
v 6.153000 10.585000 0.868000
v 6.728000 10.585000 0.868000
v 4.370000 14.585000 -2.632000
v 6.439000 14.585000 -2.632000
v 3.898000 14.585000 -2.132000
v 7.423000 14.585000 -2.132000
v 3.764000 14.585000 -1.632000
v 7.625000 14.585000 -1.632000
v 3.707000 14.585000 -1.132000
v 7.628000 14.585000 -1.132000
v 3.718000 14.585000 -0.632000
v 7.356000 14.585000 -0.632000
v 3.848000 14.585000 -0.132000
v 7.050000 14.585000 -0.132000
v 4.150000 14.585000 0.368000
v 7.119000 14.585000 0.368000
v 4.256000 14.585000 0.868000
v 7.111000 14.585000 0.868000
v 4.353000 14.585000 1.368000
v 6.912000 14.585000 1.368000
v 4.764000 14.585000 1.868000
v 6.096000 14.585000 1.868000
v 1.685000 10.585000 -7.627000
v 1.685000 10.585000 -6.649000
v 2.185000 10.585000 -8.269000
v 2.185000 10.585000 -5.903000
v 2.685000 10.585000 -8.578000
v 2.685000 10.585000 -4.909000
v 3.185000 10.585000 -8.810000
v 3.185000 10.585000 -3.654000
v 3.685000 10.585000 -8.808000
v 3.685000 10.585000 -3.480000
v 4.185000 10.585000 -8.557000
v 4.185000 10.585000 -3.096000
v 4.685000 10.585000 -7.870000
v 4.685000 10.585000 -3.082000
v 5.185000 10.585000 -7.204000
v 5.185000 10.585000 -3.144000
v 6.185000 10.585000 -0.211000
v 6.185000 10.585000 0.883000
v 6.685000 10.585000 -0.216000
v 6.685000 10.585000 0.889000
v 4.185000 14.585000 -2.494000
v 4.185000 14.585000 0.458000
v 4.685000 14.585000 -2.755000
v 4.685000 14.585000 1.808000
v 5.185000 14.585000 -2.773000
v 5.185000 14.585000 2.049000
v 5.685000 14.585000 -2.768000
v 5.685000 14.585000 2.046000
v 6.185000 14.585000 -2.776000
v 6.185000 14.585000 1.810000
v 6.685000 14.585000 -2.431000
v 6.685000 14.585000 1.523000
v 7.185000 14.585000 -2.288000
v 7.185000 14.585000 -0.470000
v 2.185000 9.154000 -7.632000
v 2.185000 11.387000 -7.632000
v 2.685000 8.616000 -7.632000
v 2.685000 11.619000 -7.632000
v 3.185000 8.423000 -7.632000
v 3.185000 11.635000 -7.632000
v 3.685000 8.425000 -7.632000
v 3.685000 11.455000 -7.632000
v 4.185000 8.622000 -7.632000
v 4.185000 11.271000 -7.632000
v 4.685000 9.181000 -7.632000
v 4.685000 10.961000 -7.632000
v 2.185000 11.535000 -3.632000
v 2.185000 12.232000 -3.632000
v 2.685000 10.814000 -3.632000
v 2.685000 12.965000 -3.632000
v 3.185000 10.592000 -3.632000
v 3.185000 13.440000 -3.632000
v 3.685000 10.516000 -3.632000
v 3.685000 13.850000 -3.632000
v 4.185000 10.369000 -3.632000
v 4.185000 14.081000 -3.632000
v 4.685000 10.350000 -3.632000
v 4.685000 14.097000 -3.632000
v 5.185000 10.458000 -3.632000
v 5.185000 14.066000 -3.632000
v 5.685000 10.700000 -3.632000
v 5.685000 13.898000 -3.632000
v 6.185000 11.266000 -3.632000
v 6.185000 13.440000 -3.632000
v 3.685000 12.099000 0.368000
v 3.685000 13.884000 0.368000
v 4.185000 11.325000 0.368000
v 4.185000 14.628000 0.368000
v 4.685000 11.093000 0.368000
v 4.685000 15.004000 0.368000
v 5.185000 10.955000 0.368000
v 5.185000 15.157000 0.368000
v 5.685000 10.669000 0.368000
v 5.685000 15.166000 0.368000
v 6.185000 10.471000 0.368000
v 6.185000 14.982000 0.368000
v 6.685000 10.469000 0.368000
v 6.685000 14.733000 0.368000
v 7.185000 10.662000 0.368000
v 7.185000 14.549000 0.368000
v 7.685000 10.898000 0.368000
v 7.685000 14.317000 0.368000
v 8.185000 10.973000 0.368000
v 8.185000 14.244000 0.368000
v 8.685000 11.025000 0.368000
v 8.685000 14.183000 0.368000
v 9.185000 11.058000 0.368000
v 9.185000 14.076000 0.368000
v 9.685000 11.289000 0.368000
v 9.685000 13.855000 0.368000
v 10.185000 12.139000 0.368000
v 10.185000 13.122000 0.368000
v 2.327000 11.085000 -8.132000
v 3.790000 11.085000 -8.132000
v 1.895000 11.085000 -7.632000
v 4.555000 11.085000 -7.632000
v 1.787000 11.085000 -7.132000
v 4.983000 11.085000 -7.132000
v 1.900000 11.085000 -6.632000
v 5.189000 11.085000 -6.632000
v 2.124000 11.085000 -6.132000
v 5.454000 11.085000 -6.132000
v 2.263000 11.085000 -5.632000
v 5.727000 11.085000 -5.632000
v 2.313000 11.085000 -5.132000
v 5.834000 11.085000 -5.132000
v 2.296000 11.085000 -4.632000
v 6.013000 11.085000 -4.632000
v 2.309000 11.085000 -4.132000
v 6.130000 11.085000 -4.132000
v 2.407000 11.085000 -3.632000
v 6.066000 11.085000 -3.632000
v 2.836000 11.085000 -3.132000
v 6.046000 11.085000 -3.132000
v 3.800000 11.085000 -2.632000
v 6.084000 11.085000 -2.632000
v 4.700000 11.085000 -2.132000
v 6.153000 11.085000 -2.132000
v 5.693000 11.085000 -1.632000
v 6.918000 11.085000 -1.632000
v 5.715000 11.085000 -1.132000
v 7.098000 11.085000 -1.132000
v 5.607000 11.085000 -0.632000
v 7.401000 11.085000 -0.632000
v 5.316000 11.085000 -0.132000
v 8.274000 11.085000 -0.132000
v 4.727000 11.085000 0.368000
v 9.287000 11.085000 0.368000
v 4.407000 11.085000 0.868000
v 9.565000 11.085000 0.868000
v 4.695000 11.085000 1.368000
v 7.146000 11.085000 1.368000
v 8.062000 11.085000 1.368000
v 9.669000 11.085000 1.368000
v 8.367000 11.085000 1.868000
v 9.547000 11.085000 1.868000
v 8.711000 11.085000 2.368000
v 9.203000 11.085000 2.368000
v 4.341000 15.085000 -1.632000
v 5.645000 15.085000 -1.632000
v 4.233000 15.085000 -1.132000
v 5.976000 15.085000 -1.132000
v 4.235000 15.085000 -0.632000
v 6.116000 15.085000 -0.632000
v 4.506000 15.085000 -0.132000
v 5.970000 15.085000 -0.132000
v 4.912000 15.085000 0.368000
v 5.980000 15.085000 0.368000
v 4.831000 15.085000 0.868000
v 6.028000 15.085000 0.868000
v 5.052000 15.085000 1.368000
v 5.807000 15.085000 1.368000
v 2.185000 11.085000 -8.024000
v 2.185000 11.085000 -5.951000
v 2.685000 11.085000 -8.289000
v 2.685000 11.085000 -3.248000
v 3.185000 11.085000 -8.330000
v 3.185000 11.085000 -2.982000
v 3.685000 11.085000 -8.203000
v 3.685000 11.085000 -2.714000
v 4.185000 11.085000 -7.850000
v 4.185000 11.085000 -2.428000
v 4.685000 11.085000 -7.535000
v 4.685000 11.085000 -2.142000
v 4.685000 11.085000 0.390000
v 4.685000 11.085000 1.362000
v 5.185000 11.085000 -6.641000
v 5.185000 11.085000 -2.035000
v 5.185000 11.085000 0.021000
v 5.185000 11.085000 1.485000
v 5.685000 11.085000 -5.737000
v 5.685000 11.085000 -1.659000
v 5.685000 11.085000 -0.868000
v 5.685000 11.085000 1.508000
v 6.185000 11.085000 -2.085000
v 6.185000 11.085000 1.543000
v 6.685000 11.085000 -1.804000
v 6.685000 11.085000 1.529000
v 7.185000 11.085000 -0.879000
v 7.185000 11.085000 1.356000
v 7.685000 11.085000 -0.337000
v 7.685000 11.085000 1.243000
v 8.185000 11.085000 -0.180000
v 8.185000 11.085000 1.503000
v 8.685000 11.085000 0.193000
v 8.685000 11.085000 2.355000
v 9.185000 11.085000 0.308000
v 9.185000 11.085000 2.375000
v 4.685000 15.085000 -2.129000
v 4.685000 15.085000 0.005000
v 5.185000 15.085000 -2.129000
v 5.185000 15.085000 1.449000
v 5.685000 15.085000 -1.603000
v 5.685000 15.085000 1.444000
v 1.685000 9.796000 -7.132000
v 1.685000 10.888000 -7.132000
v 2.185000 9.154000 -7.132000
v 2.185000 11.498000 -7.132000
v 2.685000 8.656000 -7.132000
v 2.685000 11.712000 -7.132000
v 3.185000 8.466000 -7.132000
v 3.185000 11.730000 -7.132000
v 3.685000 8.470000 -7.132000
v 3.685000 11.639000 -7.132000
v 4.185000 8.672000 -7.132000
v 4.185000 11.587000 -7.132000
v 4.685000 9.161000 -7.132000
v 4.685000 11.373000 -7.132000
v 5.185000 9.899000 -7.132000
v 5.185000 10.690000 -7.132000
v 2.685000 11.229000 -3.132000
v 2.685000 12.587000 -3.132000
v 3.185000 10.908000 -3.132000
v 3.185000 13.384000 -3.132000
v 3.685000 10.748000 -3.132000
v 3.685000 13.949000 -3.132000
v 4.185000 10.570000 -3.132000
v 4.185000 14.211000 -3.132000
v 4.685000 10.564000 -3.132000
v 4.685000 14.298000 -3.132000
v 5.185000 10.589000 -3.132000
v 5.185000 14.303000 -3.132000
v 5.685000 10.813000 -3.132000
v 5.685000 14.303000 -3.132000
v 6.185000 11.211000 -3.132000
v 6.185000 14.294000 -3.132000
v 6.685000 11.915000 -3.132000
v 6.685000 13.986000 -3.132000
v 3.685000 11.813000 0.868000
v 3.685000 13.613000 0.868000
v 4.185000 11.207000 0.868000
v 4.185000 14.472000 0.868000
v 4.685000 10.996000 0.868000
v 4.685000 15.005000 0.868000
v 5.185000 10.927000 0.868000
v 5.185000 15.198000 0.868000
v 5.685000 10.772000 0.868000
v 5.685000 15.196000 0.868000
v 6.185000 10.578000 0.868000
v 6.185000 14.998000 0.868000
v 6.685000 10.576000 0.868000
v 6.685000 14.748000 0.868000
v 7.185000 10.779000 0.868000
v 7.185000 14.539000 0.868000
v 7.685000 10.947000 0.868000
v 7.685000 14.318000 0.868000
v 8.185000 10.963000 0.868000
v 8.185000 14.265000 0.868000
v 8.685000 10.936000 0.868000
v 8.685000 14.259000 0.868000
v 9.185000 10.948000 0.868000
v 9.185000 14.168000 0.868000
v 9.685000 11.157000 0.868000
v 9.685000 13.965000 0.868000
v 10.185000 11.751000 0.868000
v 10.185000 13.388000 0.868000
v 2.560000 11.585000 -7.632000
v 3.388000 11.585000 -7.632000
v 2.329000 11.585000 -7.132000
v 4.199000 11.585000 -7.132000
v 2.402000 11.585000 -6.632000
v 4.871000 11.585000 -6.632000
v 2.382000 11.585000 -6.132000
v 5.431000 11.585000 -6.132000
v 2.293000 11.585000 -5.632000
v 5.739000 11.585000 -5.632000
v 2.169000 11.585000 -5.132000
v 5.929000 11.585000 -5.132000
v 2.080000 11.585000 -4.632000
v 6.210000 11.585000 -4.632000
v 2.091000 11.585000 -4.132000
v 6.310000 11.585000 -4.132000
v 2.172000 11.585000 -3.632000
v 6.348000 11.585000 -3.632000
v 2.490000 11.585000 -3.132000
v 6.516000 11.585000 -3.132000
v 3.283000 11.585000 -2.632000
v 6.702000 11.585000 -2.632000
v 3.827000 11.585000 -2.132000
v 7.131000 11.585000 -2.132000
v 4.185000 11.585000 -1.632000
v 7.516000 11.585000 -1.632000
v 4.351000 11.585000 -1.132000
v 7.778000 11.585000 -1.132000
v 4.410000 11.585000 -0.632000
v 8.566000 11.585000 -0.632000
v 4.227000 11.585000 -0.132000
v 9.489000 11.585000 -0.132000
v 3.926000 11.585000 0.368000
v 9.969000 11.585000 0.368000
v 3.809000 11.585000 0.868000
v 10.097000 11.585000 0.868000
v 3.918000 11.585000 1.368000
v 10.167000 11.585000 1.368000
v 4.366000 11.585000 1.868000
v 10.124000 11.585000 1.868000
v 7.866000 11.585000 2.368000
v 9.998000 11.585000 2.368000
v 8.154000 11.585000 2.868000
v 9.701000 11.585000 2.868000
v 8.379000 11.585000 3.368000
v 9.443000 11.585000 3.368000
v 2.185000 11.585000 -5.193000
v 2.185000 11.585000 -3.599000
v 2.685000 11.585000 -7.714000
v 2.685000 11.585000 -2.971000
v 3.185000 11.585000 -7.747000
v 3.185000 11.585000 -2.697000
v 3.685000 11.585000 -7.319000
v 3.685000 11.585000 -2.263000
v 4.185000 11.585000 -7.140000
v 4.185000 11.585000 -1.632000
v 4.185000 11.585000 -0.058000
v 4.185000 11.585000 1.731000
v 4.685000 11.585000 -6.787000
v 4.685000 11.585000 2.002000
v 5.185000 11.585000 -6.359000
v 5.185000 11.585000 2.032000
v 5.685000 11.585000 -5.764000
v 5.685000 11.585000 2.033000
v 6.185000 11.585000 -4.691000
v 6.185000 11.585000 2.041000
v 6.685000 11.585000 -2.668000
v 6.685000 11.585000 2.047000
v 7.185000 11.585000 -2.089000
v 7.185000 11.585000 2.017000
v 7.685000 11.585000 -1.264000
v 7.685000 11.585000 2.206000
v 8.185000 11.585000 -0.811000
v 8.185000 11.585000 2.950000
v 8.685000 11.585000 -0.548000
v 8.685000 11.585000 3.572000
v 9.185000 11.585000 -0.255000
v 9.185000 11.585000 3.553000
v 9.685000 11.585000 0.005000
v 9.685000 11.585000 2.898000
v 2.185000 9.286000 -6.632000
v 2.185000 11.410000 -6.632000
v 2.685000 8.748000 -6.632000
v 2.685000 11.740000 -6.632000
v 3.185000 8.545000 -6.632000
v 3.185000 11.833000 -6.632000
v 3.685000 8.550000 -6.632000
v 3.685000 11.835000 -6.632000
v 4.185000 8.766000 -6.632000
v 4.185000 11.851000 -6.632000
v 4.685000 9.118000 -6.632000
v 4.685000 11.723000 -6.632000
v 5.185000 9.681000 -6.632000
v 5.185000 11.095000 -6.632000
v 3.185000 11.736000 -2.632000
v 3.185000 12.981000 -2.632000
v 3.685000 11.191000 -2.632000
v 3.685000 13.976000 -2.632000
v 4.185000 10.897000 -2.632000
v 4.185000 14.467000 -2.632000
v 4.685000 10.861000 -2.632000
v 4.685000 14.716000 -2.632000
v 5.185000 10.854000 -2.632000
v 5.185000 14.720000 -2.632000
v 5.685000 10.938000 -2.632000
v 5.685000 14.670000 -2.632000
v 6.185000 11.141000 -2.632000
v 6.185000 14.655000 -2.632000
v 6.685000 11.563000 -2.632000
v 6.685000 14.480000 -2.632000
v 7.185000 12.147000 -2.632000
v 7.185000 14.326000 -2.632000
v 7.685000 12.722000 -2.632000
v 7.685000 14.014000 -2.632000
v 3.685000 12.112000 1.368000
v 3.685000 13.344000 1.368000
v 4.185000 11.317000 1.368000
v 4.185000 14.260000 1.368000
v 4.685000 11.087000 1.368000
v 4.685000 14.910000 1.368000
v 5.185000 11.030000 1.368000
v 5.185000 15.117000 1.368000
v 5.685000 11.005000 1.368000
v 5.685000 15.115000 1.368000
v 6.185000 10.928000 1.368000
v 6.185000 14.902000 1.368000
v 6.685000 10.933000 1.368000
v 6.685000 14.657000 1.368000
v 7.185000 11.094000 1.368000
v 7.185000 14.442000 1.368000
v 7.685000 11.146000 1.368000
v 7.685000 14.260000 1.368000
v 8.185000 11.053000 1.368000
v 8.185000 14.218000 1.368000
v 8.685000 10.917000 1.368000
v 8.685000 14.230000 1.368000
v 9.185000 10.909000 1.368000
v 9.185000 14.219000 1.368000
v 9.685000 11.094000 1.368000
v 9.685000 14.025000 1.368000
v 10.185000 11.617000 1.368000
v 10.185000 13.477000 1.368000
v 2.963000 12.085000 -6.132000
v 5.157000 12.085000 -6.132000
v 2.449000 12.085000 -5.632000
v 5.545000 12.085000 -5.632000
v 2.160000 12.085000 -5.132000
v 5.859000 12.085000 -5.132000
v 2.064000 12.085000 -4.632000
v 6.197000 12.085000 -4.632000
v 2.073000 12.085000 -4.132000
v 6.309000 12.085000 -4.132000
v 2.153000 12.085000 -3.632000
v 6.464000 12.085000 -3.632000
v 2.465000 12.085000 -3.132000
v 6.741000 12.085000 -3.132000
v 3.070000 12.085000 -2.632000
v 7.132000 12.085000 -2.632000
v 3.480000 12.085000 -2.132000
v 7.571000 12.085000 -2.132000
v 3.701000 12.085000 -1.632000
v 8.002000 12.085000 -1.632000
v 3.745000 12.085000 -1.132000
v 8.310000 12.085000 -1.132000
v 3.809000 12.085000 -0.632000
v 8.907000 12.085000 -0.632000
v 3.797000 12.085000 -0.132000
v 9.814000 12.085000 -0.132000
v 3.689000 12.085000 0.368000
v 10.176000 12.085000 0.368000
v 3.600000 12.085000 0.868000
v 10.285000 12.085000 0.868000
v 3.691000 12.085000 1.368000
v 10.342000 12.085000 1.368000
v 4.024000 12.085000 1.868000
v 10.330000 12.085000 1.868000
v 6.964000 12.085000 2.368000
v 10.228000 12.085000 2.368000
v 7.580000 12.085000 2.868000
v 10.124000 12.085000 2.868000
v 7.797000 12.085000 3.368000
v 10.025000 12.085000 3.368000
v 8.187000 12.085000 3.868000
v 9.635000 12.085000 3.868000
v 2.185000 12.085000 -5.192000
v 2.185000 12.085000 -3.552000
v 2.685000 12.085000 -5.922000
v 2.685000 12.085000 -2.949000
v 3.185000 12.085000 -6.203000
v 3.185000 12.085000 -2.523000
v 3.685000 12.085000 -6.235000
v 3.685000 12.085000 -1.692000
v 3.685000 12.085000 0.383000
v 3.685000 12.085000 1.353000
v 4.185000 12.085000 -6.370000
v 4.185000 12.085000 2.000000
v 4.685000 12.085000 -6.348000
v 4.685000 12.085000 2.217000
v 5.185000 12.085000 -6.111000
v 5.185000 12.085000 2.233000
v 5.685000 12.085000 -5.372000
v 5.685000 12.085000 2.216000
v 6.185000 12.085000 -4.660000
v 6.185000 12.085000 2.227000
v 6.685000 12.085000 -3.233000
v 6.685000 12.085000 2.294000
v 7.185000 12.085000 -2.584000
v 7.185000 12.085000 2.466000
v 7.685000 12.085000 -2.026000
v 7.685000 12.085000 3.077000
v 8.185000 12.085000 -1.293000
v 8.185000 12.085000 3.866000
v 8.685000 12.085000 -0.800000
v 8.685000 12.085000 4.087000
v 9.185000 12.085000 -0.467000
v 9.185000 12.085000 4.077000
v 9.685000 12.085000 -0.232000
v 9.685000 12.085000 3.828000
v 10.185000 12.085000 0.389000
v 10.185000 12.085000 2.520000
v 2.185000 9.766000 -6.132000
v 2.185000 11.237000 -6.132000
v 2.685000 9.145000 -6.132000
v 2.685000 11.913000 -6.132000
v 3.185000 8.856000 -6.132000
v 3.185000 12.151000 -6.132000
v 3.685000 8.863000 -6.132000
v 3.685000 12.183000 -6.132000
v 4.185000 9.019000 -6.132000
v 4.185000 12.354000 -6.132000
v 4.685000 9.243000 -6.132000
v 4.685000 12.354000 -6.132000
v 5.185000 9.942000 -6.132000
v 5.185000 12.056000 -6.132000
v 3.685000 11.725000 -2.132000
v 3.685000 14.173000 -2.132000
v 4.185000 11.304000 -2.132000
v 4.185000 14.867000 -2.132000
v 4.685000 11.088000 -2.132000
v 4.685000 15.083000 -2.132000
v 5.185000 11.045000 -2.132000
v 5.185000 15.083000 -2.132000
v 5.685000 11.022000 -2.132000
v 5.685000 14.899000 -2.132000
v 6.185000 11.092000 -2.132000
v 6.185000 14.769000 -2.132000
v 6.685000 11.270000 -2.132000
v 6.685000 14.686000 -2.132000
v 7.185000 11.642000 -2.132000
v 7.185000 14.655000 -2.132000
v 7.685000 12.212000 -2.132000
v 7.685000 14.443000 -2.132000
v 8.185000 12.975000 -2.132000
v 8.185000 13.760000 -2.132000
v 4.185000 11.767000 1.868000
v 4.185000 13.512000 1.868000
v 4.685000 11.420000 1.868000
v 4.685000 14.508000 1.868000
v 5.185000 11.374000 1.868000
v 5.185000 14.803000 1.868000
v 5.685000 11.365000 1.868000
v 5.685000 14.801000 1.868000
v 6.185000 11.357000 1.868000
v 6.185000 14.519000 1.868000
v 6.685000 11.359000 1.868000
v 6.685000 14.325000 1.868000
v 7.185000 11.441000 1.868000
v 7.185000 14.178000 1.868000
v 7.685000 11.371000 1.868000
v 7.685000 14.148000 1.868000
v 8.185000 11.166000 1.868000
v 8.185000 14.201000 1.868000
v 8.685000 10.979000 1.868000
v 8.685000 14.229000 1.868000
v 9.185000 10.971000 1.868000
v 9.185000 14.235000 1.868000
v 9.685000 11.159000 1.868000
v 9.685000 14.062000 1.868000
v 10.185000 11.685000 1.868000
v 10.185000 13.570000 1.868000
v 2.907000 8.585000 -8.132000
v 3.953000 8.585000 -8.132000
v 2.737000 8.585000 -7.632000
v 4.122000 8.585000 -7.632000
v 2.815000 8.585000 -7.132000
v 4.030000 8.585000 -7.132000
v 3.026000 8.585000 -6.632000
v 3.819000 8.585000 -6.632000
v 2.779000 12.585000 -5.632000
v 4.947000 12.585000 -5.632000
v 2.351000 12.585000 -5.132000
v 5.496000 12.585000 -5.132000
v 2.240000 12.585000 -4.632000
v 5.968000 12.585000 -4.632000
v 2.247000 12.585000 -4.132000
v 6.207000 12.585000 -4.132000
v 2.340000 12.585000 -3.632000
v 6.435000 12.585000 -3.632000
v 2.684000 12.585000 -3.132000
v 6.892000 12.585000 -3.132000
v 3.084000 12.585000 -2.632000
v 7.542000 12.585000 -2.632000
v 3.406000 12.585000 -2.132000
v 7.990000 12.585000 -2.132000
v 3.535000 12.585000 -1.632000
v 8.240000 12.585000 -1.632000
v 3.531000 12.585000 -1.132000
v 8.467000 12.585000 -1.132000
v 3.590000 12.585000 -0.632000
v 8.966000 12.585000 -0.632000
v 3.587000 12.585000 -0.132000
v 9.880000 12.585000 -0.132000
v 3.566000 12.585000 0.368000
v 10.210000 12.585000 0.368000
v 3.509000 12.585000 0.868000
v 10.305000 12.585000 0.868000
v 3.605000 12.585000 1.368000
v 10.336000 12.585000 1.368000
v 3.944000 12.585000 1.868000
v 10.363000 12.585000 1.868000
v 6.691000 12.585000 2.368000
v 10.318000 12.585000 2.368000
v 7.368000 12.585000 2.868000
v 10.295000 12.585000 2.868000
v 7.607000 12.585000 3.368000
v 10.214000 12.585000 3.368000
v 7.920000 12.585000 3.868000
v 9.902000 12.585000 3.868000
v 3.185000 8.585000 -8.325000
v 3.185000 8.585000 -6.534000
v 3.685000 8.585000 -8.322000
v 3.685000 8.585000 -6.545000
v 2.685000 12.585000 -5.563000
v 2.685000 12.585000 -3.131000
v 3.185000 12.585000 -5.806000
v 3.185000 12.585000 -2.510000
v 3.685000 12.585000 -5.828000
v 3.685000 12.585000 1.536000
v 4.185000 12.585000 -5.838000
v 4.185000 12.585000 2.050000
v 4.685000 12.585000 -5.814000
v 4.685000 12.585000 2.239000
v 5.185000 12.585000 -5.378000
v 5.185000 12.585000 2.248000
v 5.685000 12.585000 -4.994000
v 5.685000 12.585000 2.230000
v 6.185000 12.585000 -4.187000
v 6.185000 12.585000 2.264000
v 6.685000 12.585000 -3.324000
v 6.685000 12.585000 2.366000
v 7.185000 12.585000 -2.876000
v 7.185000 12.585000 2.647000
v 7.685000 12.585000 -2.528000
v 7.685000 12.585000 3.544000
v 8.185000 12.585000 -1.755000
v 8.185000 12.585000 4.080000
v 8.685000 12.585000 -0.854000
v 8.685000 12.585000 4.267000
v 9.185000 12.585000 -0.518000
v 9.185000 12.585000 4.258000
v 9.685000 12.585000 -0.289000
v 9.685000 12.585000 4.049000
v 10.185000 12.585000 0.306000
v 10.185000 12.585000 3.442000
v 2.685000 9.689000 -5.632000
v 2.685000 12.481000 -5.632000
v 3.185000 9.378000 -5.632000
v 3.185000 12.815000 -5.632000
v 3.685000 9.356000 -5.632000
v 3.685000 12.823000 -5.632000
v 4.185000 9.381000 -5.632000
v 4.185000 12.717000 -5.632000
v 4.685000 9.633000 -5.632000
v 4.685000 12.664000 -5.632000
v 5.185000 10.136000 -5.632000
v 5.185000 12.454000 -5.632000
v 5.685000 10.934000 -5.632000
v 5.685000 11.796000 -5.632000
v 3.685000 12.114000 -1.632000
v 3.685000 14.447000 -1.632000
v 4.185000 11.585000 -1.632000
v 4.185000 14.999000 -1.632000
v 4.685000 11.346000 -1.632000
v 4.685000 15.194000 -1.632000
v 5.185000 11.234000 -1.632000
v 5.185000 15.194000 -1.632000
v 5.685000 11.087000 -1.632000
v 5.685000 15.075000 -1.632000
v 6.185000 10.993000 -1.632000
v 6.185000 14.889000 -1.632000
v 6.685000 11.011000 -1.632000
v 6.685000 14.777000 -1.632000
v 7.185000 11.236000 -1.632000
v 7.185000 14.745000 -1.632000
v 7.685000 11.776000 -1.632000
v 7.685000 14.549000 -1.632000
v 8.185000 12.407000 -1.632000
v 8.185000 13.994000 -1.632000
v 7.185000 11.952000 2.368000
v 7.185000 13.684000 2.368000
v 7.685000 11.718000 2.368000
v 7.685000 13.913000 2.368000
v 8.185000 11.316000 2.368000
v 8.185000 14.110000 2.368000
v 8.685000 11.090000 2.368000
v 8.685000 14.185000 2.368000
v 9.185000 11.081000 2.368000
v 9.185000 14.182000 2.368000
v 9.685000 11.285000 2.368000
v 9.685000 13.990000 2.368000
v 10.185000 11.942000 2.368000
v 10.185000 13.441000 2.368000
v 2.700000 9.085000 -8.632000
v 4.160000 9.085000 -8.632000
v 2.317000 9.085000 -8.132000
v 4.543000 9.085000 -8.132000
v 2.228000 9.085000 -7.632000
v 4.632000 9.085000 -7.632000
v 2.243000 9.085000 -7.132000
v 4.611000 9.085000 -7.132000
v 2.342000 9.085000 -6.632000
v 4.633000 9.085000 -6.632000
v 2.747000 9.085000 -6.132000
v 4.392000 9.085000 -6.132000
v 2.950000 13.085000 -5.132000
v 3.960000 13.085000 -5.132000
v 2.738000 13.085000 -4.632000
v 5.530000 13.085000 -4.632000
v 2.739000 13.085000 -4.132000
v 5.989000 13.085000 -4.132000
v 2.808000 13.085000 -3.632000
v 6.361000 13.085000 -3.632000
v 2.966000 13.085000 -3.132000
v 6.939000 13.085000 -3.132000
v 3.213000 13.085000 -2.632000
v 7.883000 13.085000 -2.632000
v 3.445000 13.085000 -2.132000
v 8.214000 13.085000 -2.132000
v 3.533000 13.085000 -1.632000
v 8.325000 13.085000 -1.632000
v 3.503000 13.085000 -1.132000
v 8.505000 13.085000 -1.132000
v 3.519000 13.085000 -0.632000
v 8.967000 13.085000 -0.632000
v 3.518000 13.085000 -0.132000
v 9.858000 13.085000 -0.132000
v 3.544000 13.085000 0.368000
v 10.194000 13.085000 0.368000
v 3.510000 13.085000 0.868000
v 10.287000 13.085000 0.868000
v 3.605000 13.085000 1.368000
v 10.316000 13.085000 1.368000
v 3.945000 13.085000 1.868000
v 10.364000 13.085000 1.868000
v 6.708000 13.085000 2.368000
v 10.308000 13.085000 2.368000
v 7.379000 13.085000 2.868000
v 10.280000 13.085000 2.868000
v 7.623000 13.085000 3.368000
v 10.198000 13.085000 3.368000
v 7.941000 13.085000 3.868000
v 9.881000 13.085000 3.868000
v 2.685000 9.085000 -8.621000
v 2.685000 9.085000 -6.179000
v 3.185000 9.085000 -8.854000
v 3.185000 9.085000 -5.937000
v 3.685000 9.085000 -8.852000
v 3.685000 9.085000 -5.920000
v 4.185000 9.085000 -8.613000
v 4.185000 9.085000 -6.007000
v 3.185000 13.085000 -5.286000
v 3.185000 13.085000 -2.691000
v 3.685000 13.085000 -5.297000
v 3.685000 13.085000 1.535000
v 4.185000 13.085000 -5.008000
v 4.185000 13.085000 2.048000
v 4.685000 13.085000 -4.871000
v 4.685000 13.085000 2.225000
v 5.185000 13.085000 -4.774000
v 5.185000 13.085000 2.272000
v 5.685000 13.085000 -4.522000
v 5.685000 13.085000 2.267000
v 6.185000 13.085000 -3.841000
v 6.185000 13.085000 2.272000
v 6.685000 13.085000 -3.309000
v 6.685000 13.085000 2.360000
v 7.185000 13.085000 -3.014000
v 7.185000 13.085000 2.634000
v 7.685000 13.085000 -2.790000
v 7.685000 13.085000 3.511000
v 8.185000 13.085000 -2.203000
v 8.185000 13.085000 4.062000
v 8.685000 13.085000 -0.878000
v 8.685000 13.085000 4.251000
v 9.185000 13.085000 -0.512000
v 9.185000 13.085000 4.242000
v 9.685000 13.085000 -0.272000
v 9.685000 13.085000 4.030000
v 10.185000 13.085000 0.344000
v 10.185000 13.085000 3.402000
v 2.185000 11.491000 -5.132000
v 2.185000 12.204000 -5.132000
v 2.685000 10.443000 -5.132000
v 2.685000 12.937000 -5.132000
v 3.185000 10.051000 -5.132000
v 3.185000 13.157000 -5.132000
v 3.685000 9.831000 -5.132000
v 3.685000 13.162000 -5.132000
v 4.185000 9.776000 -5.132000
v 4.185000 12.993000 -5.132000
v 4.685000 9.875000 -5.132000
v 4.685000 12.880000 -5.132000
v 5.185000 10.178000 -5.132000
v 5.185000 12.749000 -5.132000
v 5.685000 10.733000 -5.132000
v 5.685000 12.402000 -5.132000
v 3.685000 12.180000 -1.132000
v 3.685000 14.547000 -1.132000
v 4.185000 11.671000 -1.132000
v 4.185000 15.057000 -1.132000
v 4.685000 11.484000 -1.132000
v 4.685000 15.238000 -1.132000
v 5.185000 11.378000 -1.132000
v 5.185000 15.233000 -1.132000
v 5.685000 11.102000 -1.132000
v 5.685000 15.180000 -1.132000
v 6.185000 10.917000 -1.132000
v 6.185000 14.972000 -1.132000
v 6.685000 10.928000 -1.132000
v 6.685000 14.787000 -1.132000
v 7.185000 11.131000 -1.132000
v 7.185000 14.733000 -1.132000
v 7.685000 11.498000 -1.132000
v 7.685000 14.552000 -1.132000
v 8.185000 11.924000 -1.132000
v 8.185000 14.047000 -1.132000
v 7.685000 11.966000 2.868000
v 7.685000 13.635000 2.868000
v 8.185000 11.563000 2.868000
v 8.185000 13.998000 2.868000
v 8.685000 11.350000 2.868000
v 8.685000 14.174000 2.868000
v 9.185000 11.350000 2.868000
v 9.185000 14.165000 2.868000
v 9.685000 11.573000 2.868000
v 9.685000 13.959000 2.868000
v 10.185000 12.210000 2.868000
v 10.185000 13.372000 2.868000
v 2.430000 9.585000 -8.632000
v 4.429000 9.585000 -8.632000
v 2.121000 9.585000 -8.132000
v 4.736000 9.585000 -8.132000
v 1.905000 9.585000 -7.632000
v 4.852000 9.585000 -7.632000
v 1.797000 9.585000 -7.132000
v 5.038000 9.585000 -7.132000
v 1.911000 9.585000 -6.632000
v 5.133000 9.585000 -6.632000
v 2.331000 9.585000 -6.132000
v 5.011000 9.585000 -6.132000
v 2.792000 9.585000 -5.632000
v 4.618000 9.585000 -5.632000
v 3.676000 13.585000 -4.132000
v 5.476000 13.585000 -4.132000
v 3.368000 13.585000 -3.632000
v 6.083000 13.585000 -3.632000
v 3.321000 13.585000 -3.132000
v 6.914000 13.585000 -3.132000
v 3.426000 13.585000 -2.632000
v 7.900000 13.585000 -2.632000
v 3.518000 13.585000 -2.132000
v 8.227000 13.585000 -2.132000
v 3.544000 13.585000 -1.632000
v 8.321000 13.585000 -1.632000
v 3.505000 13.585000 -1.132000
v 8.411000 13.585000 -1.132000
v 3.510000 13.585000 -0.632000
v 8.687000 13.585000 -0.632000
v 3.521000 13.585000 -0.132000
v 9.505000 13.585000 -0.132000
v 3.587000 13.585000 0.368000
v 9.961000 13.585000 0.368000
v 3.673000 13.585000 0.868000
v 10.073000 13.585000 0.868000
v 3.819000 13.585000 1.368000
v 10.124000 13.585000 1.368000
v 4.242000 13.585000 1.868000
v 10.176000 13.585000 1.868000
v 6.989000 13.585000 2.368000
v 10.101000 13.585000 2.368000
v 7.636000 13.585000 2.868000
v 10.065000 13.585000 2.868000
v 7.855000 13.585000 3.368000
v 9.967000 13.585000 3.368000
v 8.280000 13.585000 3.868000
v 9.542000 13.585000 3.868000
v 2.185000 9.585000 -8.279000
v 2.185000 9.585000 -6.264000
v 2.685000 9.585000 -8.842000
v 2.685000 9.585000 -5.716000
v 3.185000 9.585000 -9.038000
v 3.185000 9.585000 -5.457000
v 3.685000 9.585000 -9.036000
v 3.685000 9.585000 -5.420000
v 4.185000 9.585000 -8.835000
v 4.185000 9.585000 -5.418000
v 4.685000 9.585000 -8.258000
v 4.685000 9.585000 -5.695000
v 3.685000 13.585000 -4.139000
v 3.685000 13.585000 0.918000
v 4.185000 13.585000 -4.319000
v 4.185000 13.585000 1.823000
v 4.685000 13.585000 -4.335000
v 4.685000 13.585000 2.119000
v 5.185000 13.585000 -4.249000
v 5.185000 13.585000 2.274000
v 5.685000 13.585000 -3.996000
v 5.685000 13.585000 2.276000
v 6.185000 13.585000 -3.559000
v 6.185000 13.585000 2.254000
v 6.685000 13.585000 -3.278000
v 6.685000 13.585000 2.301000
v 7.185000 13.585000 -3.012000
v 7.185000 13.585000 2.441000
v 7.685000 13.585000 -2.805000
v 7.685000 13.585000 2.957000
v 8.185000 13.585000 -2.232000
v 8.185000 13.585000 3.799000
v 8.685000 13.585000 -0.635000
v 8.685000 13.585000 4.033000
v 9.185000 13.585000 -0.275000
v 9.185000 13.585000 4.022000
v 9.685000 13.585000 -0.001000
v 9.685000 13.585000 3.757000
v 2.685000 9.100000 -8.632000
v 2.685000 10.502000 -8.632000
v 3.185000 8.808000 -8.632000
v 3.185000 10.793000 -8.632000
v 3.685000 8.810000 -8.632000
v 3.685000 10.791000 -8.632000
v 4.185000 9.111000 -8.632000
v 4.185000 10.490000 -8.632000
v 2.185000 11.277000 -4.632000
v 2.185000 12.481000 -4.632000
v 2.685000 10.681000 -4.632000
v 2.685000 13.052000 -4.632000
v 3.185000 10.401000 -4.632000
v 3.185000 13.260000 -4.632000
v 3.685000 10.117000 -4.632000
v 3.685000 13.339000 -4.632000
v 4.185000 9.948000 -4.632000
v 4.185000 13.357000 -4.632000
v 4.685000 9.947000 -4.632000
v 4.685000 13.344000 -4.632000
v 5.185000 10.127000 -4.632000
v 5.185000 13.258000 -4.632000
v 5.685000 10.624000 -4.632000
v 5.685000 12.941000 -4.632000
v 6.185000 11.469000 -4.632000
v 6.185000 12.133000 -4.632000
v 3.685000 12.301000 -0.632000
v 3.685000 14.527000 -0.632000
v 4.185000 11.711000 -0.632000
v 4.185000 15.055000 -0.632000
v 4.685000 11.499000 -0.632000
v 4.685000 15.242000 -0.632000
v 5.185000 11.339000 -0.632000
v 5.185000 15.269000 -0.632000
v 5.685000 11.025000 -0.632000
v 5.685000 15.254000 -0.632000
v 6.185000 10.802000 -0.632000
v 6.185000 15.040000 -0.632000
v 6.685000 10.804000 -0.632000
v 6.685000 14.753000 -0.632000
v 7.185000 11.009000 -0.632000
v 7.185000 14.630000 -0.632000
v 7.685000 11.213000 -0.632000
v 7.685000 14.436000 -0.632000
v 8.185000 11.393000 -0.632000
v 8.185000 14.102000 -0.632000
v 8.685000 11.697000 -0.632000
v 8.685000 13.588000 -0.632000
v 7.685000 12.303000 3.368000
v 7.685000 13.282000 3.368000
v 8.185000 11.690000 3.368000
v 8.185000 13.895000 3.368000
v 8.685000 11.492000 3.368000
v 8.685000 14.093000 3.368000
v 9.185000 11.501000 3.368000
v 9.185000 14.084000 3.368000
v 9.685000 11.723000 3.368000
v 9.685000 13.862000 3.368000
v 10.185000 12.448000 3.368000
v 10.185000 13.137000 3.368000
v 2.448000 10.085000 -8.632000
v 4.412000 10.085000 -8.632000
v 2.018000 10.085000 -8.132000
v 4.723000 10.085000 -8.132000
v 1.690000 10.085000 -7.632000
v 4.948000 10.085000 -7.632000
v 1.598000 10.085000 -7.132000
v 5.229000 10.085000 -7.132000
v 1.694000 10.085000 -6.632000
v 5.311000 10.085000 -6.632000
v 2.035000 10.085000 -6.132000
v 5.239000 10.085000 -6.132000
v 2.467000 10.085000 -5.632000
v 5.141000 10.085000 -5.632000
v 3.112000 10.085000 -5.132000
v 5.062000 10.085000 -5.132000
v 3.745000 10.085000 -4.632000
v 5.109000 10.085000 -4.632000
v 4.102000 10.085000 -4.132000
v 4.842000 10.085000 -4.132000
v 4.201000 14.085000 -3.632000
v 4.851000 14.085000 -3.632000
v 3.903000 14.085000 -3.132000
v 6.588000 14.085000 -3.132000
v 3.774000 14.085000 -2.632000
v 7.618000 14.085000 -2.632000
v 3.652000 14.085000 -2.132000
v 8.032000 14.085000 -2.132000
v 3.561000 14.085000 -1.632000
v 8.136000 14.085000 -1.632000
v 3.521000 14.085000 -1.132000
v 8.161000 14.085000 -1.132000
v 3.535000 14.085000 -0.632000
v 8.206000 14.085000 -0.632000
v 3.641000 14.085000 -0.132000
v 8.429000 14.085000 -0.132000
v 3.786000 14.085000 0.368000
v 9.140000 14.085000 0.368000
v 3.930000 14.085000 0.868000
v 9.460000 14.085000 0.868000
v 4.125000 14.085000 1.368000
v 9.580000 14.085000 1.368000
v 4.451000 14.085000 1.868000
v 9.644000 14.085000 1.868000
v 8.092000 14.085000 2.368000
v 9.506000 14.085000 2.368000
v 8.371000 14.085000 2.868000
v 9.449000 14.085000 2.868000
v 8.641000 14.085000 3.368000
v 9.181000 14.085000 3.368000
v 1.685000 10.085000 -7.620000
v 1.685000 10.085000 -6.656000
v 2.185000 10.085000 -8.322000
v 2.185000 10.085000 -5.985000
v 2.685000 10.085000 -8.827000
v 2.685000 10.085000 -5.420000
v 3.185000 10.085000 -9.025000
v 3.185000 10.085000 -5.102000
v 3.685000 10.085000 -9.023000
v 3.685000 10.085000 -4.706000
v 4.185000 10.085000 -8.820000
v 4.185000 10.085000 -4.082000
v 4.685000 10.085000 -8.227000
v 4.685000 10.085000 -4.051000
v 5.185000 10.085000 -7.240000
v 5.185000 10.085000 -5.845000
v 3.685000 14.085000 -2.270000
v 3.685000 14.085000 -0.009000
v 4.185000 14.085000 -3.623000
v 4.185000 14.085000 1.499000
v 4.685000 14.085000 -3.666000
v 4.685000 14.085000 2.058000
v 5.185000 14.085000 -3.585000
v 5.185000 14.085000 2.255000
v 5.685000 14.085000 -3.401000
v 5.685000 14.085000 2.253000
v 6.185000 14.085000 -3.284000
v 6.185000 14.085000 2.123000
v 6.685000 14.085000 -3.068000
v 6.685000 14.085000 2.057000
v 7.185000 14.085000 -2.821000
v 7.185000 14.085000 1.987000
v 7.685000 14.085000 -2.582000
v 7.685000 14.085000 2.041000
v 8.185000 14.085000 -0.761000
v 8.185000 14.085000 2.451000
v 8.685000 14.085000 0.134000
v 8.685000 14.085000 3.390000
v 9.185000 14.085000 0.391000
v 9.185000 14.085000 3.365000
v 2.185000 9.351000 -8.132000
v 2.185000 10.932000 -8.132000
v 2.685000 8.706000 -8.132000
v 2.685000 11.284000 -8.132000
v 3.185000 8.500000 -8.132000
v 3.185000 11.304000 -8.132000
v 3.685000 8.502000 -8.132000
v 3.685000 11.127000 -8.132000
v 4.185000 8.714000 -8.132000
v 4.185000 10.894000 -8.132000
v 4.685000 9.381000 -8.132000
v 4.685000 10.222000 -8.132000
v 2.185000 11.302000 -4.132000
v 2.185000 12.465000 -4.132000
v 2.685000 10.717000 -4.132000
v 2.685000 13.050000 -4.132000
v 3.185000 10.503000 -4.132000
v 3.185000 13.353000 -4.132000
v 3.685000 10.286000 -4.132000
v 3.685000 13.588000 -4.132000
v 4.185000 10.063000 -4.132000
v 4.185000 13.763000 -4.132000
v 4.685000 10.048000 -4.132000
v 4.685000 13.784000 -4.132000
v 5.185000 10.244000 -4.132000
v 5.185000 13.706000 -4.132000
v 5.685000 10.620000 -4.132000
v 5.685000 13.430000 -4.132000
v 6.185000 11.187000 -4.132000
v 6.185000 12.675000 -4.132000
v 3.685000 12.291000 -0.132000
v 3.685000 14.244000 -0.132000
v 4.185000 11.618000 -0.132000
v 4.185000 14.924000 -0.132000
v 4.685000 11.365000 -0.132000
v 4.685000 15.132000 -0.132000
v 5.185000 11.176000 -0.132000
v 5.185000 15.181000 -0.132000
v 5.685000 10.766000 -0.132000
v 5.685000 15.173000 -0.132000
v 6.185000 10.553000 -0.132000
v 6.185000 14.969000 -0.132000
v 6.685000 10.551000 -0.132000
v 6.685000 14.696000 -0.132000
v 7.185000 10.758000 -0.132000
v 7.185000 14.533000 -0.132000
v 7.685000 10.995000 -0.132000
v 7.685000 14.313000 -0.132000
v 8.185000 11.065000 -0.132000
v 8.185000 14.180000 -0.132000
v 8.685000 11.242000 -0.132000
v 8.685000 13.958000 -0.132000
v 9.185000 11.424000 -0.132000
v 9.185000 13.745000 -0.132000
v 9.685000 11.797000 -0.132000
v 9.685000 13.411000 -0.132000
v 8.185000 12.086000 3.868000
v 8.185000 13.499000 3.868000
v 8.685000 11.805000 3.868000
v 8.685000 13.780000 3.868000
v 9.185000 11.818000 3.868000
v 9.185000 13.767000 3.868000
v 9.685000 12.140000 3.868000
v 9.685000 13.445000 3.868000
f 245 1007 1051
f 1051 1007 51
f 51 1007 7
f 7 246 51
f 247 861 85
f 85 861 859
f 861 245 1051
f 1005 861 1051
f 859 861 1005
f 51 5 1005
f 51 1005 1051
f 5 51 246
f 147 5 246
f 145 5 147
f 147 248 145
f 145 248 86
f 249 725 87
f 87 725 723
f 85 723 725
f 85 725 247
f 307 86 248
f 307 248 309
f 309 250 307
f 307 250 88
f 251 591 89
f 89 591 589
f 87 589 591
f 87 591 249
f 88 252 90
f 250 252 88
f 253 89 91
f 253 251 89
f 308 359 92
f 308 90 359
f 90 254 359
f 90 252 254
f 91 590 253
f 253 590 592
f 255 592 590
f 255 590 93
f 361 94 92
f 361 92 359
f 359 254 361
f 361 254 256
f 93 724 255
f 255 724 726
f 257 726 724
f 257 724 95
f 146 213 96
f 361 310 94
f 94 310 146
f 310 258 146
f 258 213 146
f 361 256 310
f 95 860 257
f 257 860 862
f 1006 1065 259
f 862 1006 259
f 860 1006 862
f 6 65 1065
f 6 1065 1006
f 213 148 96
f 96 148 6
f 148 260 6
f 260 65 6
f 213 258 148
f 1065 1008 259
f 1008 1065 8
f 8 1065 65
f 65 260 8
f 354 323 97
f 492 459 354
f 354 459 323
f 492 98 459
f 206 161 99
f 325 354 97
f 325 97 161
f 261 325 161
f 206 261 161
f 354 325 461
f 354 461 492
f 603 98 492
f 461 603 492
f 605 603 461
f 605 262 603
f 603 262 100
f 206 99 163
f 99 263 163
f 99 101 263
f 261 206 163
f 737 100 262
f 737 262 739
f 739 264 737
f 737 264 102
f 60 21 103
f 101 21 60
f 265 101 60
f 263 101 265
f 871 102 264
f 871 264 873
f 873 266 871
f 871 266 104
f 60 103 23
f 103 267 23
f 103 105 267
f 265 60 23
f 266 1023 1069
f 106 266 1069
f 104 266 106
f 1023 268 1069
f 269 105 107
f 269 267 105
f 1069 1021 106
f 1069 268 1021
f 268 108 1021
f 268 270 108
f 24 269 66
f 269 109 66
f 269 107 109
f 271 24 66
f 1022 1073 110
f 1022 108 1073
f 108 272 1073
f 108 270 272
f 22 66 109
f 271 66 22
f 111 271 22
f 273 271 111
f 1075 112 110
f 1075 110 1073
f 1073 272 1075
f 1075 272 274
f 111 162 273
f 273 162 164
f 275 164 162
f 275 162 113
f 872 925 114
f 925 872 112
f 1075 925 112
f 1077 925 1075
f 1075 274 1077
f 1077 274 276
f 113 324 275
f 275 324 326
f 460 511 277
f 326 460 277
f 324 460 326
f 604 655 511
f 604 511 460
f 738 791 655
f 738 655 604
f 791 738 114
f 925 791 114
f 927 791 925
f 278 927 1024
f 927 1077 1024
f 927 925 1077
f 1077 276 1024
f 511 462 277
f 462 511 606
f 606 511 655
f 606 655 740
f 740 655 791
f 740 791 874
f 874 791 927
f 927 278 874
f 279 477 499
f 499 477 115
f 477 619 115
f 477 621 619
f 621 753 619
f 755 753 621
f 755 887 753
f 889 887 755
f 889 280 887
f 887 280 116
f 281 341 117
f 117 341 339
f 341 279 499
f 475 341 499
f 339 341 475
f 499 115 475
f 1037 116 280
f 1037 280 1039
f 72 43 282
f 43 1039 282
f 43 1037 1039
f 72 118 43
f 283 179 215
f 119 215 179
f 281 119 179
f 117 119 281
f 45 72 282
f 45 284 72
f 284 118 72
f 284 120 118
f 177 121 215
f 121 283 215
f 121 285 283
f 215 119 177
f 197 120 284
f 197 284 199
f 199 286 197
f 197 286 122
f 287 121 123
f 287 285 121
f 122 288 124
f 286 288 122
f 289 29 125
f 125 29 27
f 123 27 29
f 123 29 287
f 200 290 126
f 200 126 198
f 198 124 200
f 200 124 288
f 291 125 127
f 291 289 125
f 126 292 128
f 290 292 126
f 127 28 291
f 291 28 30
f 293 30 28
f 293 28 129
f 46 294 130
f 46 130 44
f 44 128 46
f 46 128 292
f 295 129 131
f 295 293 129
f 130 296 132
f 294 296 130
f 297 131 133
f 297 295 131
f 132 298 134
f 296 298 132
f 299 133 135
f 299 297 133
f 134 300 136
f 298 300 134
f 301 135 137
f 301 299 135
f 1038 1089 138
f 1038 136 1089
f 136 302 1089
f 136 300 302
f 137 178 301
f 301 178 180
f 303 180 178
f 303 178 139
f 138 1089 1040
f 304 138 1040
f 140 138 304
f 1089 302 1040
f 139 340 303
f 303 340 342
f 476 525 305
f 342 476 305
f 340 476 342
f 141 525 476
f 890 306 142
f 890 142 888
f 888 140 890
f 890 140 304
f 525 478 305
f 141 620 525
f 620 478 525
f 620 622 478
f 754 622 620
f 754 756 622
f 754 142 756
f 756 142 306
f 1052 1007 245
f 52 7 1052
f 1052 7 1007
f 52 246 7
f 387 863 247
f 247 863 861
f 1009 1052 245
f 861 1009 245
f 863 1009 861
f 1052 1009 9
f 1052 9 52
f 147 246 52
f 9 147 52
f 149 147 9
f 149 388 147
f 147 388 248
f 389 727 249
f 249 727 725
f 247 725 727
f 247 727 387
f 309 248 388
f 309 388 311
f 311 390 309
f 309 390 250
f 391 593 251
f 251 593 591
f 249 591 593
f 249 593 389
f 250 392 252
f 390 392 250
f 393 251 253
f 393 391 251
f 252 394 254
f 392 394 252
f 253 592 393
f 393 592 594
f 395 594 592
f 395 592 255
f 254 396 256
f 394 396 254
f 255 726 395
f 395 726 728
f 397 728 726
f 397 726 257
f 310 365 258
f 310 256 365
f 256 398 365
f 256 396 398
f 257 862 397
f 397 862 864
f 399 864 862
f 399 862 259
f 148 217 260
f 365 312 258
f 258 312 148
f 312 400 148
f 400 217 148
f 365 398 312
f 259 1008 399
f 399 1008 1010
f 8 1010 1008
f 8 10 1010
f 217 150 260
f 150 8 260
f 150 10 8
f 217 400 150
f 356 325 261
f 494 461 356
f 356 461 325
f 640 605 494
f 494 605 461
f 640 262 605
f 208 163 263
f 163 208 261
f 208 356 261
f 208 358 356
f 358 401 463
f 494 358 463
f 356 358 494
f 494 463 607
f 494 607 640
f 402 778 739
f 402 739 262
f 607 402 262
f 640 607 262
f 778 264 739
f 265 210 263
f 263 210 208
f 210 403 327
f 358 210 327
f 208 210 358
f 401 358 327
f 741 778 402
f 873 264 778
f 741 873 778
f 875 873 741
f 875 404 873
f 873 404 266
f 62 23 267
f 165 210 265
f 165 265 23
f 405 165 23
f 62 405 23
f 403 210 165
f 1023 266 404
f 1023 404 1025
f 1025 406 1023
f 1023 406 268
f 269 64 267
f 267 64 62
f 405 62 64
f 405 64 407
f 406 31 73
f 270 406 73
f 268 406 270
f 31 408 73
f 24 64 269
f 407 64 24
f 271 407 24
f 409 407 271
f 75 272 270
f 75 270 73
f 73 408 75
f 75 408 410
f 411 271 273
f 411 409 271
f 77 274 272
f 77 272 75
f 75 410 77
f 77 410 412
f 273 164 411
f 411 164 166
f 413 166 164
f 413 164 275
f 79 276 274
f 79 274 77
f 77 412 79
f 79 412 414
f 373 415 326
f 415 275 326
f 415 413 275
f 277 373 326
f 1024 1079 278
f 79 32 276
f 276 32 1024
f 32 416 1024
f 416 1079 1024
f 79 414 32
f 373 328 415
f 277 462 373
f 462 328 373
f 462 464 328
f 606 657 417
f 464 606 417
f 462 606 464
f 740 793 657
f 740 657 606
f 874 929 793
f 874 793 740
f 929 874 278
f 1079 929 278
f 1081 929 1079
f 1079 416 1081
f 1081 416 418
f 657 608 417
f 608 657 419
f 657 795 419
f 657 793 795
f 793 931 795
f 793 929 931
f 420 931 1026
f 931 1081 1026
f 931 929 1081
f 1081 418 1026
f 795 742 419
f 742 795 876
f 876 795 931
f 931 420 876
f 500 477 279
f 421 623 500
f 623 477 500
f 623 621 477
f 623 755 621
f 757 755 623
f 916 889 422
f 889 757 422
f 889 755 757
f 916 280 889
f 423 343 281
f 281 343 341
f 479 500 279
f 341 479 279
f 343 479 341
f 421 500 479
f 891 916 422
f 1039 280 916
f 891 1039 916
f 1041 1039 891
f 1041 424 1039
f 1039 424 282
f 216 179 283
f 281 179 216
f 425 281 216
f 423 281 425
f 45 282 424
f 45 424 47
f 47 426 45
f 45 426 284
f 216 283 181
f 283 427 181
f 283 285 427
f 425 216 181
f 199 284 426
f 199 426 201
f 201 428 199
f 199 428 286
f 429 285 287
f 429 427 285
f 286 430 288
f 428 430 286
f 68 29 289
f 287 29 68
f 431 287 68
f 429 287 431
f 202 432 290
f 202 290 200
f 200 288 202
f 202 288 430
f 291 70 289
f 289 70 68
f 431 68 70
f 431 70 433
f 290 434 292
f 432 434 290
f 30 70 291
f 182 433 230
f 230 433 293
f 433 70 293
f 70 30 293
f 435 182 230
f 48 436 294
f 48 294 46
f 46 292 48
f 48 292 434
f 295 232 293
f 293 232 230
f 435 230 232
f 435 232 437
f 294 438 296
f 436 438 294
f 232 295 183
f 295 439 183
f 295 297 439
f 437 232 183
f 296 440 298
f 438 440 296
f 441 297 299
f 441 439 297
f 298 442 300
f 440 442 298
f 443 299 301
f 443 441 299
f 300 444 302
f 442 444 300
f 301 180 443
f 443 180 184
f 445 184 180
f 445 180 303
f 1042 446 304
f 1042 304 1040
f 1040 302 1042
f 1042 302 444
f 303 342 445
f 445 342 344
f 447 344 342
f 447 342 305
f 892 448 306
f 892 306 890
f 890 304 892
f 892 304 446
f 305 478 447
f 447 478 480
f 622 480 478
f 622 624 480
f 756 624 622
f 756 758 624
f 756 306 758
f 758 306 448
f 904 863 387
f 527 1011 904
f 1011 863 904
f 1011 1009 863
f 1011 9 1009
f 11 9 1011
f 11 149 9
f 151 149 11
f 151 528 149
f 149 528 388
f 770 727 389
f 865 904 387
f 865 387 727
f 529 865 727
f 770 529 727
f 527 904 865
f 311 388 528
f 311 528 313
f 313 530 311
f 311 530 390
f 636 593 391
f 729 770 389
f 729 389 593
f 531 729 593
f 636 531 593
f 529 770 729
f 530 449 495
f 392 530 495
f 390 530 392
f 449 532 495
f 393 638 391
f 391 638 636
f 531 636 638
f 531 638 533
f 497 394 392
f 497 392 495
f 495 532 497
f 497 532 534
f 594 638 393
f 533 638 594
f 395 533 594
f 535 533 395
f 501 396 394
f 501 394 497
f 497 534 501
f 501 534 536
f 395 728 535
f 535 728 730
f 537 730 728
f 537 728 397
f 503 398 396
f 503 396 501
f 501 536 503
f 503 536 538
f 397 864 537
f 537 864 866
f 539 866 864
f 539 864 399
f 312 367 400
f 503 450 398
f 398 450 312
f 450 540 312
f 540 367 312
f 503 538 450
f 399 1010 539
f 539 1010 1012
f 10 1012 1010
f 10 12 1012
f 150 12 10
f 150 152 12
f 367 314 400
f 314 150 400
f 314 152 150
f 367 540 314
f 496 463 401
f 642 607 496
f 496 607 463
f 642 402 607
f 360 327 403
f 465 496 401
f 465 401 327
f 541 465 327
f 360 541 327
f 496 465 609
f 496 609 642
f 741 402 642
f 609 741 642
f 743 741 609
f 743 875 741
f 877 875 743
f 404 875 1067
f 875 1027 1067
f 875 877 1027
f 1027 542 1067
f 212 165 405
f 329 360 403
f 329 403 165
f 543 329 165
f 212 543 165
f 541 360 329
f 1067 1025 404
f 542 33 71
f 542 71 406
f 1067 542 406
f 1025 1067 406
f 33 544 71
f 407 214 405
f 405 214 212
f 543 212 214
f 543 214 545
f 71 31 406
f 71 544 31
f 544 408 31
f 544 546 408
f 214 407 167
f 407 547 167
f 407 409 547
f 545 214 167
f 408 548 410
f 546 548 408
f 549 409 411
f 549 547 409
f 410 550 412
f 548 550 410
f 411 166 549
f 549 166 168
f 551 168 166
f 551 166 413
f 412 552 414
f 550 552 412
f 553 413 415
f 553 551 413
f 32 81 416
f 32 414 81
f 414 554 81
f 414 552 554
f 415 328 553
f 553 328 330
f 464 513 555
f 330 464 555
f 328 464 330
f 417 513 464
f 83 418 416
f 83 416 81
f 81 554 83
f 83 554 556
f 513 466 555
f 659 557 608
f 608 557 417
f 557 466 417
f 466 513 417
f 419 659 608
f 1026 1083 420
f 83 34 418
f 418 34 1026
f 34 558 1026
f 558 1083 1026
f 83 556 34
f 659 610 557
f 797 559 742
f 742 559 419
f 559 610 419
f 610 659 419
f 876 933 797
f 876 797 742
f 1083 1028 420
f 420 1028 876
f 1028 560 876
f 560 933 876
f 1083 558 1028
f 797 744 559
f 744 797 878
f 878 797 933
f 933 560 878
f 644 623 421
f 780 757 644
f 644 757 623
f 780 422 757
f 364 343 423
f 561 481 364
f 481 343 364
f 481 479 343
f 625 644 421
f 479 625 421
f 481 625 479
f 644 625 759
f 644 759 780
f 562 918 891
f 562 891 422
f 759 562 422
f 780 759 422
f 1070 1041 918
f 918 1041 891
f 1070 424 1041
f 364 423 345
f 423 563 345
f 423 425 563
f 561 364 345
f 893 918 562
f 918 893 1043
f 918 1043 1070
f 564 74 47
f 564 47 424
f 1043 564 424
f 1070 1043 424
f 74 426 47
f 220 181 427
f 425 181 220
f 565 425 220
f 563 425 565
f 49 74 564
f 566 242 201
f 566 201 426
f 49 566 426
f 74 49 426
f 242 428 201
f 429 224 427
f 427 224 220
f 565 220 224
f 565 224 567
f 568 244 242
f 568 242 566
f 428 242 430
f 430 242 244
f 431 226 429
f 429 226 224
f 567 224 226
f 567 226 569
f 50 570 80
f 244 568 50
f 244 50 80
f 202 244 80
f 432 202 80
f 430 244 202
f 433 228 431
f 431 228 226
f 569 226 228
f 569 228 571
f 572 82 80
f 572 80 570
f 432 80 434
f 434 80 82
f 182 228 433
f 571 228 182
f 435 571 182
f 573 571 435
f 436 48 82
f 572 436 82
f 574 436 572
f 434 82 48
f 575 435 437
f 575 573 435
f 436 576 438
f 574 576 436
f 234 183 439
f 437 183 234
f 577 437 234
f 575 437 577
f 438 578 440
f 576 578 438
f 234 439 185
f 439 579 185
f 439 441 579
f 577 234 185
f 440 580 442
f 578 580 440
f 581 441 443
f 581 579 441
f 442 582 444
f 580 582 442
f 443 184 581
f 581 184 186
f 583 186 184
f 583 184 445
f 1044 584 446
f 1044 446 1042
f 1042 444 1044
f 1044 444 582
f 445 344 583
f 583 344 346
f 585 346 344
f 585 344 447
f 894 586 448
f 894 448 892
f 892 446 894
f 894 446 584
f 447 480 585
f 585 480 482
f 624 482 480
f 624 626 482
f 758 626 624
f 758 760 626
f 758 448 760
f 760 448 586
f 1054 1011 527
f 54 11 1054
f 1054 11 1011
f 204 151 54
f 54 151 11
f 204 528 151
f 906 865 529
f 1013 1054 527
f 1013 527 865
f 671 1013 865
f 906 671 865
f 1054 1013 13
f 1054 13 54
f 54 13 153
f 54 153 204
f 313 528 204
f 153 313 204
f 315 313 153
f 530 313 493
f 313 451 493
f 313 315 451
f 451 672 493
f 772 729 531
f 867 906 529
f 867 529 729
f 673 867 729
f 772 673 729
f 671 906 867
f 493 449 530
f 672 595 641
f 672 641 532
f 493 672 532
f 449 493 532
f 595 674 641
f 533 774 531
f 531 774 772
f 673 772 774
f 673 774 675
f 643 534 532
f 643 532 641
f 641 674 643
f 643 674 676
f 535 776 533
f 533 776 774
f 675 774 776
f 675 776 677
f 645 536 534
f 645 534 643
f 643 676 645
f 645 676 678
f 730 776 535
f 868 677 914
f 914 677 537
f 677 776 537
f 776 730 537
f 679 868 914
f 647 538 536
f 647 536 645
f 645 678 647
f 647 678 680
f 866 914 537
f 1014 679 1066
f 1066 679 539
f 679 914 539
f 914 866 539
f 681 1014 1066
f 450 505 540
f 647 596 538
f 538 596 450
f 596 682 450
f 682 505 450
f 647 680 596
f 1012 1066 539
f 1066 1012 681
f 1012 14 681
f 1012 12 14
f 152 221 683
f 14 152 683
f 12 152 14
f 314 369 221
f 314 221 152
f 505 452 540
f 540 452 314
f 452 684 314
f 684 369 314
f 505 682 452
f 221 154 683
f 154 221 316
f 316 221 369
f 369 684 316
f 498 465 541
f 685 611 498
f 611 465 498
f 611 609 465
f 611 743 609
f 745 743 611
f 745 877 743
f 879 877 745
f 879 1027 877
f 1029 1027 879
f 1029 686 1027
f 1027 686 542
f 687 331 543
f 543 331 329
f 467 498 541
f 329 467 541
f 331 467 329
f 685 498 467
f 33 542 686
f 33 686 35
f 35 688 33
f 33 688 544
f 689 543 545
f 689 687 543
f 688 189 239
f 546 688 239
f 544 688 546
f 189 690 239
f 218 167 547
f 545 167 218
f 691 545 218
f 689 545 691
f 241 548 546
f 241 546 239
f 239 690 241
f 241 690 692
f 549 222 547
f 547 222 218
f 691 218 222
f 691 222 693
f 548 241 190
f 694 548 190
f 550 548 694
f 241 692 190
f 222 549 168
f 695 169 225
f 551 225 169
f 693 551 169
f 551 222 168
f 551 693 222
f 550 696 552
f 694 696 550
f 227 697 225
f 225 697 695
f 225 551 553
f 225 553 227
f 552 698 554
f 696 698 552
f 227 170 697
f 375 699 330
f 330 699 553
f 699 170 553
f 170 227 553
f 555 375 330
f 554 700 556
f 698 700 554
f 375 332 699
f 515 701 466
f 466 701 555
f 701 332 555
f 332 375 555
f 557 515 466
f 36 702 558
f 36 558 34
f 34 556 36
f 36 556 700
f 515 468 701
f 661 703 610
f 610 703 557
f 703 468 557
f 468 515 557
f 559 661 610
f 1030 704 560
f 1030 560 1028
f 1028 558 1030
f 1030 558 702
f 661 612 703
f 559 744 661
f 744 612 661
f 744 746 612
f 878 746 744
f 878 880 746
f 878 560 880
f 880 560 704
f 502 481 561
f 646 625 502
f 502 625 481
f 782 759 646
f 646 759 625
f 782 562 759
f 366 345 563
f 345 366 561
f 366 502 561
f 366 504 502
f 648 502 504
f 646 502 648
f 784 646 648
f 782 646 784
f 562 782 893
f 782 920 893
f 782 784 920
f 1072 1043 920
f 920 1043 893
f 1072 564 1043
f 565 368 563
f 563 368 366
f 506 366 368
f 504 366 506
f 650 504 506
f 648 504 650
f 786 648 650
f 784 648 786
f 922 784 786
f 920 784 922
f 1074 920 922
f 1072 920 1074
f 564 1072 49
f 1072 76 49
f 1072 1074 76
f 76 566 49
f 567 370 565
f 565 370 368
f 508 368 370
f 506 368 508
f 652 506 508
f 650 506 652
f 788 650 652
f 786 650 788
f 924 786 788
f 922 786 924
f 1076 922 924
f 1074 922 1076
f 78 1074 1076
f 76 1074 78
f 566 76 568
f 568 76 78
f 569 372 567
f 567 372 370
f 510 370 372
f 508 370 510
f 654 508 510
f 652 508 654
f 790 652 654
f 788 652 790
f 926 788 790
f 924 788 926
f 1078 924 926
f 1076 924 1078
f 50 78 570
f 78 1078 570
f 78 1076 1078
f 568 78 50
f 571 374 569
f 569 374 372
f 512 372 374
f 510 372 512
f 656 510 512
f 654 510 656
f 792 654 656
f 790 654 792
f 928 790 792
f 926 790 928
f 1080 926 928
f 1078 926 1080
f 570 1078 572
f 572 1078 1080
f 573 376 571
f 571 376 374
f 376 705 483
f 512 376 483
f 374 376 512
f 512 483 627
f 512 627 656
f 656 627 761
f 656 761 792
f 792 761 895
f 792 895 928
f 928 895 706
f 1082 928 706
f 1080 928 1082
f 572 1080 574
f 574 1080 1082
f 575 378 573
f 573 378 376
f 705 376 378
f 705 378 707
f 708 1084 1082
f 708 1082 706
f 574 1082 576
f 576 1082 1084
f 378 575 347
f 575 709 347
f 575 577 709
f 707 378 347
f 1045 1084 708
f 1045 710 1084
f 710 576 1084
f 710 578 576
f 236 185 579
f 577 185 236
f 711 577 236
f 709 577 711
f 578 712 580
f 710 712 578
f 236 579 187
f 579 713 187
f 579 581 713
f 711 236 187
f 580 714 582
f 712 714 580
f 581 186 713
f 713 186 188
f 715 188 186
f 715 186 583
f 1046 716 584
f 1046 584 1044
f 1044 582 1046
f 1046 582 714
f 583 346 715
f 715 346 348
f 717 348 346
f 717 346 585
f 896 718 586
f 896 586 894
f 894 584 896
f 896 584 716
f 585 482 717
f 717 482 484
f 626 484 482
f 626 628 484
f 760 628 626
f 760 762 628
f 760 586 762
f 762 586 718
f 807 317 353
f 353 317 491
f 491 317 453
f 453 808 491
f 1056 1013 671
f 809 15 1056
f 15 1013 1056
f 15 13 1013
f 15 153 13
f 155 153 15
f 155 807 353
f 315 155 353
f 153 155 315
f 491 451 315
f 491 315 353
f 808 597 639
f 808 639 672
f 491 808 672
f 451 491 672
f 597 810 639
f 908 867 673
f 1015 1056 671
f 1015 671 867
f 811 1015 867
f 908 811 867
f 809 1056 1015
f 639 595 672
f 810 731 777
f 810 777 674
f 639 810 674
f 595 639 674
f 731 812 777
f 675 910 673
f 673 910 908
f 811 908 910
f 811 910 813
f 779 676 674
f 779 674 777
f 777 812 779
f 779 812 814
f 677 912 675
f 675 912 910
f 813 910 912
f 813 912 815
f 676 779 732
f 816 676 732
f 678 676 816
f 779 814 732
f 868 912 677
f 815 912 868
f 679 815 868
f 817 815 679
f 678 818 680
f 816 818 678
f 679 1014 817
f 817 1014 1016
f 819 1016 1014
f 819 1014 681
f 596 649 682
f 596 680 649
f 680 820 649
f 680 818 820
f 681 14 819
f 819 14 16
f 821 16 14
f 821 14 683
f 452 507 684
f 649 598 682
f 682 598 452
f 598 822 452
f 822 507 452
f 649 820 598
f 683 154 821
f 821 154 156
f 316 156 154
f 316 318 156
f 507 454 684
f 454 316 684
f 454 318 316
f 507 822 454
f 823 613 685
f 685 613 611
f 613 745 611
f 747 745 613
f 747 879 745
f 881 879 747
f 881 1029 879
f 1031 1029 881
f 1031 824 1029
f 1029 824 686
f 362 331 687
f 825 469 362
f 469 331 362
f 469 467 331
f 685 467 469
f 685 469 823
f 35 686 824
f 35 824 37
f 37 826 35
f 35 826 688
f 362 687 333
f 687 827 333
f 687 689 827
f 825 362 333
f 189 688 826
f 189 826 191
f 191 828 189
f 189 828 690
f 829 689 691
f 829 827 689
f 690 830 692
f 828 830 690
f 831 691 693
f 831 829 691
f 190 243 694
f 190 692 243
f 692 832 243
f 692 830 832
f 833 171 695
f 695 171 169
f 693 169 171
f 693 171 831
f 694 243 192
f 834 694 192
f 696 694 834
f 243 832 192
f 835 695 697
f 835 833 695
f 696 836 698
f 834 836 696
f 697 170 835
f 835 170 172
f 837 172 170
f 837 170 699
f 698 838 700
f 836 838 698
f 377 839 332
f 839 699 332
f 839 837 699
f 701 377 332
f 38 840 702
f 38 702 36
f 36 700 38
f 38 700 838
f 377 334 839
f 517 841 468
f 468 841 701
f 841 334 701
f 334 377 701
f 703 517 468
f 1032 842 704
f 1032 704 1030
f 1030 702 1032
f 1032 702 840
f 517 470 841
f 703 612 517
f 612 470 517
f 612 614 470
f 746 614 612
f 746 748 614
f 880 748 746
f 880 882 748
f 880 704 882
f 882 704 842
f 514 483 705
f 658 627 514
f 514 627 483
f 794 761 658
f 658 761 627
f 930 895 794
f 794 895 761
f 930 706 895
f 514 705 485
f 705 843 485
f 705 707 843
f 514 485 629
f 514 629 658
f 658 629 763
f 658 763 794
f 794 763 897
f 794 897 930
f 897 844 930
f 844 706 930
f 844 708 706
f 845 349 709
f 709 349 347
f 707 347 349
f 707 349 843
f 846 1086 1045
f 708 846 1045
f 844 846 708
f 1086 710 1045
f 847 709 711
f 847 845 709
f 1047 1086 846
f 1047 848 1086
f 848 710 1086
f 848 712 710
f 238 187 713
f 711 187 238
f 849 711 238
f 847 711 849
f 712 850 714
f 848 850 712
f 188 238 713
f 849 238 188
f 715 849 188
f 851 849 715
f 1048 852 716
f 1048 716 1046
f 1046 714 1048
f 1048 714 850
f 715 348 851
f 851 348 350
f 348 717 526
f 486 348 526
f 350 348 486
f 853 486 526
f 898 854 718
f 898 718 896
f 896 716 898
f 898 716 852
f 484 526 717
f 526 484 853
f 484 630 853
f 484 628 630
f 762 630 628
f 762 764 630
f 762 718 764
f 764 718 854
f 941 855 905
f 905 855 1055
f 1055 855 1001
f 1001 942 1055
f 943 719 771
f 941 905 719
f 905 771 719
f 905 907 771
f 905 1057 907
f 905 1055 1057
f 1 57 942
f 57 1055 942
f 57 1057 1055
f 1 944 57
f 773 945 771
f 771 945 943
f 771 909 773
f 771 907 909
f 907 1059 909
f 907 1057 1059
f 1057 59 1059
f 1057 57 59
f 57 944 59
f 59 944 946
f 773 720 945
f 720 773 947
f 773 911 947
f 773 909 911
f 909 1061 911
f 909 1059 1061
f 948 1061 2
f 1061 59 2
f 1061 1059 59
f 59 946 2
f 911 856 947
f 856 911 1002
f 1002 911 1061
f 1061 948 1002
f 949 319 807
f 807 319 317
f 319 453 317
f 455 453 319
f 455 950 453
f 453 950 808
f 56 15 809
f 951 157 56
f 157 15 56
f 157 155 15
f 807 155 157
f 807 157 949
f 597 808 950
f 597 950 599
f 599 952 597
f 597 952 810
f 1058 1015 811
f 17 56 809
f 17 809 1015
f 953 17 1015
f 1058 953 1015
f 951 56 17
f 731 810 952
f 731 952 733
f 733 954 731
f 731 954 812
f 813 1060 811
f 811 1060 1058
f 953 1058 1060
f 953 1060 955
f 812 956 814
f 954 956 812
f 1060 813 1017
f 813 957 1017
f 813 815 957
f 955 1060 1017
f 732 781 816
f 732 814 781
f 814 958 781
f 814 956 958
f 959 815 817
f 959 957 815
f 783 818 816
f 783 816 781
f 781 958 783
f 783 958 960
f 817 1016 959
f 959 1016 1018
f 961 1018 1016
f 961 1016 819
f 785 820 818
f 785 818 783
f 783 960 785
f 785 960 962
f 819 16 961
f 961 16 18
f 963 18 16
f 963 16 821
f 598 651 822
f 785 734 820
f 820 734 598
f 734 964 598
f 964 651 598
f 785 962 734
f 821 156 963
f 963 156 158
f 318 371 965
f 158 318 965
f 156 318 158
f 454 509 371
f 454 371 318
f 651 600 822
f 822 600 454
f 600 966 454
f 966 509 454
f 651 964 600
f 371 320 965
f 320 371 456
f 456 371 509
f 509 966 456
f 967 615 823
f 823 615 613
f 615 747 613
f 749 747 615
f 749 881 747
f 883 881 749
f 883 1031 881
f 1033 1031 883
f 1033 968 1031
f 1031 968 824
f 969 471 825
f 825 471 469
f 823 469 471
f 823 471 967
f 37 824 968
f 37 968 39
f 39 970 37
f 37 970 826
f 971 335 827
f 827 335 333
f 825 333 335
f 825 335 969
f 191 826 970
f 191 970 193
f 193 972 191
f 191 972 828
f 973 827 829
f 973 971 827
f 828 974 830
f 972 974 828
f 975 173 223
f 831 223 173
f 973 831 173
f 829 831 973
f 830 976 832
f 974 976 830
f 171 833 223
f 833 975 223
f 833 977 975
f 223 831 171
f 194 978 834
f 194 834 192
f 192 832 194
f 194 832 976
f 979 833 835
f 979 977 833
f 834 980 836
f 978 980 834
f 229 981 172
f 981 835 172
f 981 979 835
f 837 229 172
f 836 982 838
f 980 982 836
f 229 174 981
f 983 174 229
f 837 983 229
f 839 983 837
f 40 984 840
f 40 840 38
f 38 838 40
f 40 838 982
f 379 985 334
f 985 839 334
f 985 983 839
f 841 379 334
f 1032 1085 842
f 1032 840 1085
f 840 986 1085
f 840 984 986
f 379 336 985
f 519 987 470
f 470 987 841
f 987 336 841
f 336 379 841
f 614 663 519
f 614 519 470
f 748 799 663
f 748 663 614
f 882 935 799
f 882 799 748
f 1085 1034 842
f 842 1034 882
f 1034 988 882
f 988 935 882
f 1085 986 1034
f 519 472 987
f 472 519 616
f 616 519 663
f 616 663 750
f 750 663 799
f 750 799 884
f 884 799 935
f 935 988 884
f 516 485 843
f 989 631 516
f 631 485 516
f 631 629 485
f 631 763 629
f 765 763 631
f 932 897 990
f 897 765 990
f 897 763 765
f 932 844 897
f 380 349 845
f 487 516 843
f 487 843 349
f 991 487 349
f 380 991 349
f 989 516 487
f 899 932 990
f 899 992 932
f 992 844 932
f 992 846 844
f 380 845 351
f 845 993 351
f 845 847 993
f 991 380 351
f 1047 846 992
f 1047 992 1049
f 1049 994 1047
f 1047 994 848
f 995 847 849
f 995 993 847
f 1050 996 1090
f 1090 850 1050
f 850 994 1050
f 850 848 994
f 352 995 386
f 995 851 386
f 995 849 851
f 997 352 386
f 852 1048 1090
f 996 852 1090
f 998 852 996
f 850 1090 1048
f 350 386 851
f 386 350 997
f 350 488 997
f 350 486 488
f 999 488 486
f 999 486 853
f 900 1000 854
f 900 854 898
f 898 852 900
f 900 852 998
f 853 630 999
f 999 630 632
f 764 632 630
f 764 766 632
f 764 854 766
f 766 854 1000
f 1091 857 903
f 903 857 1053
f 1053 857 1003
f 1053 1003 53
f 53 1003 3
f 3 1092 53
f 1093 721 769
f 1091 903 721
f 721 903 769
f 903 855 769
f 855 941 769
f 1053 1001 855
f 1053 855 903
f 55 942 1001
f 1053 55 1001
f 53 55 1053
f 143 205 1092
f 205 53 1092
f 205 55 53
f 143 1094 205
f 1095 587 635
f 1093 769 587
f 587 769 635
f 769 719 635
f 719 943 635
f 769 941 719
f 55 1 942
f 207 944 1
f 55 207 1
f 205 207 55
f 205 1094 207
f 207 1094 1096
f 637 1097 635
f 635 1097 1095
f 635 943 945
f 635 945 637
f 209 946 944
f 209 944 207
f 207 1096 209
f 209 1096 1098
f 637 588 1097
f 775 1099 720
f 720 1099 945
f 1099 588 945
f 588 637 945
f 947 775 720
f 2 61 948
f 209 144 946
f 946 144 2
f 144 1100 2
f 1100 61 2
f 209 1098 144
f 775 722 1099
f 913 1101 856
f 856 1101 947
f 1101 722 947
f 722 775 947
f 1002 1063 913
f 1002 913 856
f 61 4 948
f 948 4 1002
f 4 1102 1002
f 1102 1063 1002
f 61 1100 4
f 913 858 1101
f 858 913 1004
f 1004 913 1063
f 1063 1102 1004
f 1103 321 949
f 949 321 319
f 321 455 319
f 457 455 321
f 457 1104 455
f 455 1104 950
f 1105 159 951
f 951 159 157
f 949 157 159
f 949 159 1103
f 599 950 1104
f 599 1104 601
f 601 1106 599
f 599 1106 952
f 1107 19 953
f 953 19 17
f 951 17 19
f 951 19 1105
f 733 952 1106
f 733 1106 735
f 735 1108 733
f 733 1108 954
f 1109 953 955
f 1109 1107 953
f 1108 869 915
f 956 1108 915
f 954 1108 956
f 869 1110 915
f 1111 1019 957
f 957 1019 1017
f 955 1017 1019
f 955 1019 1109
f 917 958 956
f 917 956 915
f 915 1110 917
f 917 1110 1112
f 1113 957 959
f 1113 1111 957
f 919 960 958
f 919 958 917
f 917 1112 919
f 919 1112 1114
f 959 1018 1113
f 1113 1018 1020
f 1115 1020 1018
f 1115 1018 961
f 921 962 960
f 921 960 919
f 919 1114 921
f 921 1114 1116
f 961 18 1115
f 1115 18 20
f 1117 20 18
f 1117 18 963
f 734 787 964
f 921 870 962
f 962 870 734
f 870 1118 734
f 1118 787 734
f 921 1116 870
f 963 158 1117
f 1117 158 160
f 1119 160 158
f 1119 158 965
f 600 653 966
f 787 736 964
f 964 736 600
f 736 1120 600
f 1120 653 600
f 787 1118 736
f 965 320 1119
f 1119 320 322
f 456 322 320
f 456 458 322
f 653 602 966
f 602 456 966
f 602 458 456
f 653 1120 602
f 1121 617 967
f 967 617 615
f 617 749 615
f 751 749 617
f 751 883 749
f 885 883 751
f 885 1033 883
f 1035 1033 885
f 1035 1122 1033
f 1033 1122 968
f 1123 473 969
f 969 473 471
f 967 471 473
f 967 473 1121
f 39 968 1122
f 39 1122 41
f 41 1124 39
f 39 1124 970
f 1125 337 971
f 971 337 335
f 969 335 337
f 969 337 1123
f 193 970 1124
f 193 1124 195
f 195 1126 193
f 193 1126 972
f 1127 971 973
f 1127 1125 971
f 972 1128 974
f 1126 1128 972
f 1129 175 975
f 975 175 173
f 973 173 175
f 973 175 1127
f 974 1130 976
f 1128 1130 974
f 1131 25 67
f 977 67 25
f 1129 977 25
f 975 977 1129
f 196 1132 978
f 196 978 194
f 194 976 196
f 196 976 1130
f 69 1133 67
f 67 1133 1131
f 67 977 979
f 67 979 69
f 978 1134 980
f 1132 1134 978
f 69 26 1133
f 1135 26 69
f 979 1135 69
f 981 1135 979
f 42 1136 84
f 84 982 42
f 982 1134 42
f 982 980 1134
f 231 1137 174
f 1137 981 174
f 1137 1135 981
f 983 231 174
f 984 40 84
f 1136 984 84
f 1138 984 1136
f 982 84 40
f 233 1139 231
f 231 1139 1137
f 231 983 985
f 231 985 233
f 984 1140 986
f 1138 1140 984
f 233 176 1139
f 381 1141 336
f 336 1141 985
f 1141 176 985
f 176 233 985
f 987 381 336
f 1036 1142 988
f 1036 988 1034
f 1034 986 1036
f 1036 986 1140
f 383 1143 381
f 381 1143 1141
f 381 987 472
f 521 381 472
f 383 381 521
f 616 665 521
f 616 521 472
f 750 801 665
f 750 665 616
f 884 937 801
f 884 801 750
f 884 988 937
f 988 1144 937
f 988 1142 1144
f 383 338 1143
f 338 383 1145
f 383 523 1145
f 383 521 523
f 521 667 523
f 521 665 667
f 665 803 667
f 665 801 803
f 1146 803 886
f 803 937 886
f 803 801 937
f 937 1144 886
f 523 474 1145
f 474 523 618
f 618 523 667
f 618 667 752
f 752 667 803
f 803 1146 752
f 660 631 989
f 796 765 660
f 660 765 631
f 796 990 765
f 518 487 991
f 633 660 989
f 633 989 487
f 1147 633 487
f 518 1147 487
f 660 633 767
f 660 767 796
f 1148 934 899
f 1148 899 990
f 767 1148 990
f 796 767 990
f 934 992 899
f 382 351 993
f 489 518 991
f 489 991 351
f 1149 489 351
f 382 1149 351
f 1147 518 489
f 901 934 1148
f 1150 1088 1049
f 1150 1049 992
f 901 1150 992
f 934 901 992
f 1088 994 1049
f 995 384 993
f 993 384 382
f 1149 382 384
f 1149 384 1151
f 996 1050 1088
f 1150 996 1088
f 1152 996 1150
f 994 1088 1050
f 352 384 995
f 490 1151 524
f 524 1151 997
f 1151 384 997
f 384 352 997
f 1153 490 524
f 902 1154 940
f 940 998 902
f 998 1152 902
f 998 996 1152
f 488 524 997
f 634 1153 670
f 670 1153 999
f 1153 524 999
f 524 488 999
f 634 670 806
f 634 806 768
f 940 1154 768
f 940 768 806
f 900 940 806
f 1000 900 806
f 998 940 900
f 632 670 999
f 766 806 632
f 632 806 670
f 1000 806 766
f 85 859 1091
f 1091 859 857
f 859 1003 857
f 1005 1003 859
f 1005 3 1003
f 5 3 1005
f 1092 3 203
f 3 145 203
f 3 5 145
f 145 86 203
f 87 723 1093
f 1093 723 721
f 1091 721 723
f 1091 723 85
f 203 143 1092
f 86 307 355
f 86 355 1094
f 203 86 1094
f 143 203 1094
f 307 88 355
f 89 589 1095
f 1095 589 587
f 1093 587 589
f 1093 589 87
f 357 1096 1094
f 357 1094 355
f 355 88 357
f 357 88 90
f 91 1095 1097
f 91 89 1095
f 1096 357 308
f 92 1096 308
f 1098 1096 92
f 357 90 308
f 1097 588 91
f 91 588 590
f 93 590 588
f 93 588 1099
f 144 211 1100
f 144 1098 211
f 1098 94 211
f 1098 92 94
f 1099 722 93
f 93 722 724
f 95 724 722
f 95 722 1101
f 4 63 1102
f 211 146 1100
f 1100 146 4
f 146 96 4
f 96 63 4
f 211 94 146
f 1101 858 95
f 95 858 860
f 1004 860 858
f 1004 1006 860
f 63 6 1102
f 6 1004 1102
f 6 1006 1004
f 63 96 6
f 97 323 1103
f 1103 323 321
f 323 457 321
f 459 457 323
f 459 98 457
f 457 98 1104
f 99 161 1105
f 1105 161 159
f 1103 159 161
f 1103 161 97
f 601 1104 98
f 601 98 603
f 603 100 601
f 601 100 1106
f 58 19 1107
f 1105 19 58
f 101 1105 58
f 99 1105 101
f 735 1106 100
f 735 100 737
f 737 102 735
f 735 102 1108
f 58 1107 21
f 1107 103 21
f 1107 1109 103
f 101 58 21
f 869 1108 102
f 869 102 871
f 871 104 869
f 869 104 1110
f 1062 1019 1111
f 1109 1019 1062
f 105 1109 1062
f 103 1109 105
f 1110 106 1112
f 104 106 1110
f 1113 1064 1111
f 1111 1064 1062
f 105 1062 1064
f 105 1064 107
f 106 1021 1071
f 1114 106 1071
f 1112 106 1114
f 1021 108 1071
f 1020 1064 1113
f 107 1064 1020
f 1115 107 1020
f 109 107 1115
f 1114 1071 1022
f 110 1114 1022
f 1116 1114 110
f 1071 108 1022
f 1115 20 109
f 109 20 22
f 111 22 20
f 111 20 1117
f 870 923 1118
f 870 1116 923
f 1116 112 923
f 1116 110 112
f 1117 160 111
f 111 160 162
f 113 162 160
f 113 160 1119
f 736 789 1120
f 923 872 1118
f 1118 872 736
f 872 114 736
f 114 789 736
f 923 112 872
f 1119 322 113
f 113 322 324
f 458 324 322
f 458 460 324
f 602 460 458
f 602 604 460
f 789 738 1120
f 738 602 1120
f 738 604 602
f 789 114 738
f 115 619 1121
f 1121 619 617
f 619 751 617
f 753 751 619
f 753 885 751
f 887 885 753
f 1068 1035 116
f 1035 887 116
f 1035 885 887
f 1068 1122 1035
f 117 339 363
f 363 339 1123
f 339 473 1123
f 339 475 473
f 1121 473 475
f 1121 475 115
f 1037 1068 116
f 41 1122 1068
f 1037 41 1068
f 43 41 1037
f 43 118 41
f 41 118 1124
f 337 1125 363
f 1125 117 363
f 1125 119 117
f 363 1123 337
f 120 240 195
f 1124 120 195
f 118 120 1124
f 240 1126 195
f 121 177 219
f 1127 219 177
f 119 1127 177
f 1125 1127 119
f 197 240 120
f 197 122 240
f 122 1126 240
f 122 1128 1126
f 175 1129 219
f 1129 121 219
f 1129 123 121
f 219 1127 175
f 1128 124 1130
f 122 124 1128
f 125 27 1131
f 1131 27 25
f 1129 25 27
f 1129 27 123
f 198 126 1132
f 198 1132 196
f 196 1130 198
f 198 1130 124
f 127 1131 1133
f 127 125 1131
f 1132 128 1134
f 126 128 1132
f 1133 26 127
f 127 26 28
f 129 28 26
f 129 26 1135
f 44 130 1136
f 44 1136 42
f 42 1134 44
f 44 1134 128
f 131 1135 1137
f 131 129 1135
f 1136 132 1138
f 130 132 1136
f 133 1137 1139
f 133 131 1137
f 1138 134 1140
f 132 134 1138
f 235 135 176
f 135 1139 176
f 135 133 1139
f 1141 235 176
f 1036 1087 1142
f 1036 1140 1087
f 1140 136 1087
f 1140 134 136
f 237 137 235
f 235 137 135
f 235 1141 1143
f 235 1143 237
f 1142 1087 1038
f 138 1142 1038
f 1144 1142 138
f 1087 136 1038
f 237 178 137
f 385 139 338
f 338 139 1143
f 139 178 1143
f 178 237 1143
f 1145 385 338
f 886 939 1146
f 886 1144 939
f 1144 140 939
f 1144 138 140
f 385 340 139
f 1145 474 385
f 474 340 385
f 474 476 340
f 618 669 141
f 476 618 141
f 474 618 476
f 752 805 669
f 752 669 618
f 939 888 1146
f 1146 888 752
f 888 142 752
f 142 805 752
f 939 140 888
f 669 620 141
f 620 669 754
f 754 669 805
f 805 142 754
f 662 633 1147
f 798 767 662
f 662 767 633
f 798 1148 767
f 520 489 1149
f 489 520 1147
f 520 662 1147
f 520 664 662
f 800 662 664
f 798 662 800
f 1148 798 901
f 798 936 901
f 798 800 936
f 936 1150 901
f 1151 522 1149
f 1149 522 520
f 666 520 522
f 664 520 666
f 802 664 666
f 800 664 802
f 938 800 802
f 936 800 938
f 1150 936 1152
f 1152 936 938
f 490 522 1151
f 1153 668 490
f 668 522 490
f 668 666 522
f 804 666 668
f 802 666 804
f 902 938 1154
f 938 804 1154
f 938 802 804
f 1152 938 902
f 634 668 1153
f 768 804 634
f 634 804 668
f 1154 804 768
