# Converted from NanoShaper .vert/.face
v 9.681000 -7.165000 -20.132000
v 10.126000 -7.165000 -20.132000
v 9.007000 -7.165000 -19.632000
v 12.088000 -7.165000 -19.632000
v 8.876000 -7.165000 -19.132000
v 14.710000 -7.165000 -19.132000
v 8.971000 -7.165000 -18.632000
v 15.106000 -7.165000 -18.632000
v 9.128000 -7.165000 -18.132000
v 15.265000 -7.165000 -18.132000
v 9.456000 -7.165000 -17.632000
v 15.356000 -7.165000 -17.632000
v 9.514000 -7.165000 -17.132000
v 15.277000 -7.165000 -17.132000
v 9.656000 -7.165000 -16.632000
v 14.972000 -7.165000 -16.632000
v 10.035000 -7.165000 -16.132000
v 14.355000 -7.165000 -16.132000
v 10.568000 -7.165000 -15.632000
v 13.894000 -7.165000 -15.632000
v 12.623000 -7.165000 -15.132000
v 13.321000 -7.165000 -15.132000
v 10.077000 -3.165000 -18.132000
v 14.446000 -3.165000 -18.132000
v 9.573000 -3.165000 -17.632000
v 14.756000 -3.165000 -17.632000
v 9.058000 -3.165000 -17.132000
v 14.839000 -3.165000 -17.132000
v 8.942000 -3.165000 -16.632000
v 14.746000 -3.165000 -16.632000
v 9.004000 -3.165000 -16.132000
v 14.605000 -3.165000 -16.132000
v 9.152000 -3.165000 -15.632000
v 14.392000 -3.165000 -15.632000
v 10.343000 -3.165000 -15.132000
v 14.249000 -3.165000 -15.132000
v 11.418000 -3.165000 -14.632000
v 13.972000 -3.165000 -14.632000
v 12.217000 -3.165000 -14.132000
v 13.632000 -3.165000 -14.132000
v 11.622000 -3.165000 -12.132000
v 13.201000 -3.165000 -12.132000
v 11.422000 -3.165000 -11.632000
v 13.405000 -3.165000 -11.632000
v 11.221000 -3.165000 -11.132000
v 13.622000 -3.165000 -11.132000
v 11.112000 -3.165000 -10.632000
v 13.731000 -3.165000 -10.632000
v 11.202000 -3.165000 -10.132000
v 13.641000 -3.165000 -10.132000
v 11.550000 -3.165000 -9.632000
v 13.293000 -3.165000 -9.632000
v 12.378000 0.835000 -13.632000
v 14.910000 0.835000 -13.632000
v 12.040000 0.835000 -13.132000
v 15.252000 0.835000 -13.132000
v 11.763000 0.835000 -12.632000
v 15.352000 0.835000 -12.632000
v 11.678000 0.835000 -12.132000
v 15.305000 0.835000 -12.132000
v 11.634000 0.835000 -11.632000
v 15.261000 0.835000 -11.632000
v 11.648000 0.835000 -11.132000
v 15.214000 0.835000 -11.132000
v 11.760000 0.835000 -10.632000
v 15.273000 0.835000 -10.632000
v 11.951000 0.835000 -10.132000
v 15.272000 0.835000 -10.132000
v 12.055000 0.835000 -9.632000
v 15.216000 0.835000 -9.632000
v 12.141000 0.835000 -9.132000
v 15.118000 0.835000 -9.132000
v 12.450000 0.835000 -8.632000
v 14.761000 0.835000 -8.632000
v 9.185000 -7.165000 -19.864000
v 9.185000 -7.165000 -18.054000
v 9.685000 -7.165000 -20.133000
v 9.685000 -7.165000 -16.588000
v 10.185000 -7.165000 -20.117000
v 10.185000 -7.165000 -15.946000
v 10.685000 -7.165000 -20.004000
v 10.685000 -7.165000 -15.548000
v 11.185000 -7.165000 -19.745000
v 11.185000 -7.165000 -15.326000
v 11.685000 -7.165000 -19.641000
v 11.685000 -7.165000 -15.314000
v 12.185000 -7.165000 -19.624000
v 12.185000 -7.165000 -15.286000
v 12.685000 -7.165000 -19.599000
v 12.685000 -7.165000 -15.112000
v 13.185000 -7.165000 -19.599000
v 13.185000 -7.165000 -15.093000
v 13.685000 -7.165000 -19.443000
v 13.685000 -7.165000 -15.361000
v 14.185000 -7.165000 -19.373000
v 14.185000 -7.165000 -15.974000
v 14.685000 -7.165000 -19.151000
v 14.685000 -7.165000 -16.396000
v 15.185000 -7.165000 -18.411000
v 15.185000 -7.165000 -16.925000
v 9.185000 -3.165000 -17.318000
v 9.185000 -3.165000 -15.584000
v 9.685000 -3.165000 -17.732000
v 9.685000 -3.165000 -15.231000
v 10.185000 -3.165000 -18.221000
v 10.185000 -3.165000 -15.167000
v 10.685000 -3.165000 -18.445000
v 10.685000 -3.165000 -15.016000
v 11.185000 -3.165000 -18.454000
v 11.185000 -3.165000 -14.757000
v 11.185000 -3.165000 -11.040000
v 11.185000 -3.165000 -10.179000
v 11.685000 -3.165000 -18.445000
v 11.685000 -3.165000 -14.496000
v 11.685000 -3.165000 -12.214000
v 11.685000 -3.165000 -9.527000
v 12.185000 -3.165000 -18.448000
v 12.185000 -3.165000 -14.164000
v 12.185000 -3.165000 -12.560000
v 12.185000 -3.165000 -9.322000
v 12.685000 -3.165000 -18.460000
v 12.685000 -3.165000 -13.703000
v 12.685000 -3.165000 -12.627000
v 12.685000 -3.165000 -9.327000
v 13.185000 -3.165000 -18.541000
v 13.185000 -3.165000 -13.705000
v 13.185000 -3.165000 -12.158000
v 13.185000 -3.165000 -9.546000
v 13.685000 -3.165000 -18.541000
v 13.685000 -3.165000 -14.203000
v 13.685000 -3.165000 -10.955000
v 13.685000 -3.165000 -10.265000
v 14.185000 -3.165000 -18.346000
v 14.185000 -3.165000 -14.993000
v 14.685000 -3.165000 -17.796000
v 14.685000 -3.165000 -16.369000
v 11.685000 0.835000 -12.309000
v 11.685000 0.835000 -10.851000
v 12.185000 0.835000 -13.378000
v 12.185000 0.835000 -9.024000
v 12.685000 0.835000 -13.876000
v 12.685000 0.835000 -8.436000
v 13.185000 0.835000 -14.052000
v 13.185000 0.835000 -8.229000
v 13.685000 0.835000 -14.035000
v 13.685000 0.835000 -8.220000
v 14.185000 0.835000 -13.992000
v 14.185000 0.835000 -8.337000
v 14.685000 0.835000 -13.804000
v 14.685000 0.835000 -8.571000
v 15.185000 0.835000 -13.275000
v 15.185000 0.835000 -9.353000
v 8.685000 -6.783000 -18.632000
v 8.685000 -5.082000 -18.632000
v 9.185000 -7.332000 -18.632000
v 9.185000 -4.479000 -18.632000
v 9.685000 -7.524000 -18.632000
v 9.685000 -3.989000 -18.632000
v 10.185000 -7.587000 -18.632000
v 10.185000 -3.671000 -18.632000
v 10.685000 -7.643000 -18.632000
v 10.685000 -3.593000 -18.632000
v 11.185000 -7.773000 -18.632000
v 11.185000 -3.610000 -18.632000
v 11.685000 -7.973000 -18.632000
v 11.685000 -3.672000 -18.632000
v 12.185000 -8.219000 -18.632000
v 12.185000 -3.815000 -18.632000
v 12.685000 -8.442000 -18.632000
v 12.685000 -3.991000 -18.632000
v 13.185000 -8.449000 -18.632000
v 13.185000 -3.951000 -18.632000
v 13.685000 -8.266000 -18.632000
v 13.685000 -4.177000 -18.632000
v 14.185000 -8.095000 -18.632000
v 14.185000 -5.049000 -18.632000
v 14.685000 -7.785000 -18.632000
v 14.685000 -5.606000 -18.632000
v 15.185000 -6.917000 -18.632000
v 15.185000 -6.385000 -18.632000
v 11.685000 -3.559000 -14.632000
v 11.685000 -1.323000 -14.632000
v 12.185000 -3.966000 -14.632000
v 12.185000 -0.618000 -14.632000
v 12.685000 -4.191000 -14.632000
v 12.685000 -0.381000 -14.632000
v 13.185000 -4.183000 -14.632000
v 13.185000 -0.344000 -14.632000
v 13.685000 -3.807000 -14.632000
v 13.685000 -0.560000 -14.632000
v 14.185000 -2.272000 -14.632000
v 14.185000 -1.210000 -14.632000
v 11.185000 -3.326000 -10.632000
v 11.185000 -1.083000 -10.632000
v 11.685000 -3.861000 -10.632000
v 11.685000 0.618000 -10.632000
v 12.185000 -4.050000 -10.632000
v 12.185000 1.550000 -10.632000
v 12.685000 -4.045000 -10.632000
v 12.685000 2.170000 -10.632000
v 13.185000 -3.844000 -10.632000
v 13.185000 2.518000 -10.632000
v 13.685000 -3.273000 -10.632000
v 13.685000 2.673000 -10.632000
v 14.185000 -0.950000 -10.632000
v 14.185000 2.680000 -10.632000
v 14.685000 -0.357000 -10.632000
v 14.685000 2.493000 -10.632000
v 15.185000 0.636000 -10.632000
v 15.185000 1.964000 -10.632000
v 9.037000 -6.665000 -20.132000
v 11.199000 -6.665000 -20.132000
v 8.677000 -6.665000 -19.632000
v 13.815000 -6.665000 -19.632000
v 8.578000 -6.665000 -19.132000
v 14.862000 -6.665000 -19.132000
v 8.631000 -6.665000 -18.632000
v 15.213000 -6.665000 -18.632000
v 8.737000 -6.665000 -18.132000
v 15.318000 -6.665000 -18.132000
v 8.890000 -6.665000 -17.632000
v 15.276000 -6.665000 -17.632000
v 9.050000 -6.665000 -17.132000
v 15.172000 -6.665000 -17.132000
v 9.262000 -6.665000 -16.632000
v 14.841000 -6.665000 -16.632000
v 9.546000 -6.665000 -16.132000
v 14.459000 -6.665000 -16.132000
v 9.996000 -6.665000 -15.632000
v 14.213000 -6.665000 -15.632000
v 11.866000 -6.665000 -15.132000
v 13.883000 -6.665000 -15.132000
v 11.873000 -2.665000 -18.132000
v 14.504000 -2.665000 -18.132000
v 10.127000 -2.665000 -17.632000
v 14.872000 -2.665000 -17.632000
v 9.658000 -2.665000 -17.132000
v 14.965000 -2.665000 -17.132000
v 9.529000 -2.665000 -16.632000
v 14.865000 -2.665000 -16.632000
v 9.692000 -2.665000 -16.132000
v 14.700000 -2.665000 -16.132000
v 10.447000 -2.665000 -15.632000
v 14.398000 -2.665000 -15.632000
v 10.983000 -2.665000 -15.132000
v 14.193000 -2.665000 -15.132000
v 11.429000 -2.665000 -14.632000
v 14.103000 -2.665000 -14.632000
v 11.713000 -2.665000 -14.132000
v 13.989000 -2.665000 -14.132000
v 11.869000 -2.665000 -13.632000
v 13.947000 -2.665000 -13.632000
v 11.854000 -2.665000 -13.132000
v 13.887000 -2.665000 -13.132000
v 11.582000 -2.665000 -12.632000
v 13.779000 -2.665000 -12.632000
v 11.230000 -2.665000 -12.132000
v 13.685000 -2.665000 -12.132000
v 11.112000 -2.665000 -11.632000
v 13.708000 -2.665000 -11.632000
v 11.087000 -2.665000 -11.132000
v 13.748000 -2.665000 -11.132000
v 11.022000 -2.665000 -10.632000
v 13.822000 -2.665000 -10.632000
v 11.106000 -2.665000 -10.132000
v 13.738000 -2.665000 -10.132000
v 11.419000 -2.665000 -9.632000
v 13.424000 -2.665000 -9.632000
v 12.506000 1.335000 -13.632000
v 14.754000 1.335000 -13.632000
v 12.165000 1.335000 -13.132000
v 15.142000 1.335000 -13.132000
v 12.059000 1.335000 -12.632000
v 15.266000 1.335000 -12.632000
v 12.021000 1.335000 -12.132000
v 15.316000 1.335000 -12.132000
v 11.946000 1.335000 -11.632000
v 15.340000 1.335000 -11.632000
v 11.997000 1.335000 -11.132000
v 15.303000 1.335000 -11.132000
v 12.032000 1.335000 -10.632000
v 15.352000 1.335000 -10.632000
v 12.028000 1.335000 -10.132000
v 15.366000 1.335000 -10.132000
v 12.000000 1.335000 -9.632000
v 15.302000 1.335000 -9.632000
v 12.090000 1.335000 -9.132000
v 15.204000 1.335000 -9.132000
v 12.413000 1.335000 -8.632000
v 14.880000 1.335000 -8.632000
v 8.685000 -6.665000 -19.651000
v 8.685000 -6.665000 -18.278000
v 9.185000 -6.665000 -20.243000
v 9.185000 -6.665000 -16.836000
v 9.685000 -6.665000 -20.436000
v 9.685000 -6.665000 -15.961000
v 10.185000 -6.665000 -20.424000
v 10.185000 -6.665000 -15.522000
v 10.685000 -6.665000 -20.354000
v 10.685000 -6.665000 -15.354000
v 11.185000 -6.665000 -20.139000
v 11.185000 -6.665000 -15.225000
v 11.685000 -6.665000 -19.989000
v 11.685000 -6.665000 -15.173000
v 12.185000 -6.665000 -19.954000
v 12.185000 -6.665000 -15.012000
v 12.685000 -6.665000 -19.892000
v 12.685000 -6.665000 -14.800000
v 13.185000 -6.665000 -19.890000
v 13.185000 -6.665000 -14.786000
v 13.685000 -6.665000 -19.703000
v 13.685000 -6.665000 -14.977000
v 14.185000 -6.665000 -19.480000
v 14.185000 -6.665000 -15.564000
v 14.685000 -6.665000 -19.270000
v 14.685000 -6.665000 -16.453000
v 15.185000 -6.665000 -18.695000
v 15.185000 -6.665000 -17.168000
v 9.685000 -2.665000 -17.175000
v 9.685000 -2.665000 -16.143000
v 10.185000 -2.665000 -17.717000
v 10.185000 -2.665000 -15.770000
v 10.685000 -2.665000 -18.082000
v 10.685000 -2.665000 -15.420000
v 11.185000 -2.665000 -18.095000
v 11.185000 -2.665000 -14.919000
v 11.185000 -2.665000 -12.022000
v 11.185000 -2.665000 -9.954000
v 11.685000 -2.665000 -18.094000
v 11.685000 -2.665000 -14.197000
v 11.685000 -2.665000 -12.774000
v 11.685000 -2.665000 -9.419000
v 12.185000 -2.665000 -18.206000
v 12.185000 -2.665000 -9.230000
v 12.685000 -2.665000 -18.353000
v 12.685000 -2.665000 -9.235000
v 13.185000 -2.665000 -18.503000
v 13.185000 -2.665000 -9.436000
v 13.685000 -2.665000 -18.497000
v 13.685000 -2.665000 -12.135000
v 13.685000 -2.665000 -11.947000
v 13.685000 -2.665000 -10.006000
v 14.185000 -2.665000 -18.337000
v 14.185000 -2.665000 -15.093000
v 14.685000 -2.665000 -17.947000
v 14.685000 -2.665000 -16.100000
v 12.185000 1.335000 -13.182000
v 12.185000 1.335000 -8.930000
v 12.685000 1.335000 -13.770000
v 12.685000 1.335000 -8.421000
v 13.185000 1.335000 -13.959000
v 13.185000 1.335000 -8.241000
v 13.685000 1.335000 -13.941000
v 13.685000 1.335000 -8.236000
v 14.185000 1.335000 -13.888000
v 14.185000 1.335000 -8.257000
v 14.685000 1.335000 -13.683000
v 14.685000 1.335000 -8.471000
v 15.185000 1.335000 -13.020000
v 15.185000 1.335000 -9.084000
v 8.685000 -6.538000 -18.132000
v 8.685000 -5.092000 -18.132000
v 9.185000 -7.207000 -18.132000
v 9.185000 -4.222000 -18.132000
v 9.685000 -7.423000 -18.132000
v 9.685000 -3.533000 -18.132000
v 10.185000 -7.559000 -18.132000
v 10.185000 -3.027000 -18.132000
v 10.685000 -7.780000 -18.132000
v 10.685000 -2.712000 -18.132000
v 11.185000 -7.976000 -18.132000
v 11.185000 -2.700000 -18.132000
v 11.685000 -8.086000 -18.132000
v 11.685000 -2.701000 -18.132000
v 12.185000 -8.348000 -18.132000
v 12.185000 -2.556000 -18.132000
v 12.685000 -8.550000 -18.132000
v 12.685000 -2.044000 -18.132000
v 13.185000 -8.556000 -18.132000
v 13.185000 -0.966000 -18.132000
v 13.685000 -8.482000 -18.132000
v 13.685000 -0.685000 -18.132000
v 14.185000 -8.455000 -18.132000
v 14.185000 -0.697000 -18.132000
v 14.685000 -8.250000 -18.132000
v 14.685000 -5.314000 -18.132000
v 14.685000 -2.331000 -18.132000
v 14.685000 -1.017000 -18.132000
v 15.185000 -7.585000 -18.132000
v 15.185000 -6.055000 -18.132000
v 11.685000 -2.600000 -14.132000
v 11.685000 -1.088000 -14.132000
v 12.185000 -3.141000 -14.132000
v 12.185000 -0.458000 -14.132000
v 12.685000 -3.443000 -14.132000
v 12.685000 0.037000 -14.132000
v 13.185000 -3.447000 -14.132000
v 13.185000 0.362000 -14.132000
v 13.685000 -3.109000 -14.132000
v 13.685000 0.102000 -14.132000
v 14.185000 -2.346000 -14.132000
v 14.185000 -0.827000 -14.132000
v 11.185000 -3.120000 -10.132000
v 11.185000 -1.485000 -10.132000
v 11.685000 -3.761000 -10.132000
v 11.685000 -0.566000 -10.132000
v 12.185000 -3.965000 -10.132000
v 12.185000 1.835000 -10.132000
v 12.685000 -3.960000 -10.132000
v 12.685000 2.451000 -10.132000
v 13.185000 -3.743000 -10.132000
v 13.185000 2.646000 -10.132000
v 13.685000 -3.040000 -10.132000
v 13.685000 2.714000 -10.132000
v 14.185000 -0.969000 -10.132000
v 14.185000 2.723000 -10.132000
v 14.685000 -0.425000 -10.132000
v 14.685000 2.542000 -10.132000
v 15.185000 0.651000 -10.132000
v 15.185000 2.030000 -10.132000
v 8.928000 -6.165000 -20.132000
v 11.503000 -6.165000 -20.132000
v 8.598000 -6.165000 -19.632000
v 13.916000 -6.165000 -19.632000
v 8.504000 -6.165000 -19.132000
v 14.728000 -6.165000 -19.132000
v 8.529000 -6.165000 -18.632000
v 15.118000 -6.165000 -18.632000
v 8.591000 -6.165000 -18.132000
v 15.231000 -6.165000 -18.132000
v 8.601000 -6.165000 -17.632000
v 15.146000 -6.165000 -17.632000
v 8.714000 -6.165000 -17.132000
v 14.955000 -6.165000 -17.132000
v 8.869000 -6.165000 -16.632000
v 14.744000 -6.165000 -16.632000
v 8.977000 -6.165000 -16.132000
v 14.444000 -6.165000 -16.132000
v 9.107000 -6.165000 -15.632000
v 14.294000 -6.165000 -15.632000
v 10.516000 -6.165000 -15.132000
v 10.835000 -6.165000 -15.132000
v 11.706000 -6.165000 -15.132000
v 13.991000 -6.165000 -15.132000
v 12.596000 -2.165000 -18.132000
v 14.798000 -2.165000 -18.132000
v 12.060000 -2.165000 -17.632000
v 15.137000 -2.165000 -17.632000
v 11.586000 -2.165000 -17.132000
v 15.222000 -2.165000 -17.132000
v 11.368000 -2.165000 -16.632000
v 15.108000 -2.165000 -16.632000
v 11.314000 -2.165000 -16.132000
v 14.760000 -2.165000 -16.132000
v 11.376000 -2.165000 -15.632000
v 14.365000 -2.165000 -15.632000
v 11.405000 -2.165000 -15.132000
v 14.207000 -2.165000 -15.132000
v 11.491000 -2.165000 -14.632000
v 14.208000 -2.165000 -14.632000
v 11.592000 -2.165000 -14.132000
v 14.265000 -2.165000 -14.132000
v 11.607000 -2.165000 -13.632000
v 14.251000 -2.165000 -13.632000
v 11.530000 -2.165000 -13.132000
v 14.230000 -2.165000 -13.132000
v 11.288000 -2.165000 -12.632000
v 14.151000 -2.165000 -12.632000
v 11.114000 -2.165000 -12.132000
v 13.922000 -2.165000 -12.132000
v 11.011000 -2.165000 -11.632000
v 13.817000 -2.165000 -11.632000
v 11.009000 -2.165000 -11.132000
v 13.810000 -2.165000 -11.132000
v 11.025000 -2.165000 -10.632000
v 13.824000 -2.165000 -10.632000
v 11.128000 -2.165000 -10.132000
v 13.720000 -2.165000 -10.132000
v 11.476000 -2.165000 -9.632000
v 13.373000 -2.165000 -9.632000
v 12.519000 1.835000 -13.132000
v 14.802000 1.835000 -13.132000
v 12.401000 1.835000 -12.632000
v 15.132000 1.835000 -12.632000
v 12.395000 1.835000 -12.132000
v 15.238000 1.835000 -12.132000
v 12.469000 1.835000 -11.632000
v 15.251000 1.835000 -11.632000
v 12.438000 1.835000 -11.132000
v 15.202000 1.835000 -11.132000
v 12.381000 1.835000 -10.632000
v 15.246000 1.835000 -10.632000
v 12.185000 1.835000 -10.132000
v 15.276000 1.835000 -10.132000
v 12.083000 1.835000 -9.632000
v 15.202000 1.835000 -9.632000
v 12.179000 1.835000 -9.132000
v 15.093000 1.835000 -9.132000
v 12.534000 1.835000 -8.632000
v 14.726000 1.835000 -8.632000
v 8.685000 -6.165000 -19.817000
v 8.685000 -6.165000 -17.208000
v 9.185000 -6.165000 -20.330000
v 9.185000 -6.165000 -15.517000
v 9.685000 -6.165000 -20.511000
v 9.685000 -6.165000 -15.191000
v 10.185000 -6.165000 -20.501000
v 10.185000 -6.165000 -15.161000
v 10.685000 -6.165000 -20.456000
v 10.685000 -6.165000 -15.128000
v 11.185000 -6.165000 -20.254000
v 11.185000 -6.165000 -15.170000
v 11.685000 -6.165000 -20.095000
v 11.685000 -6.165000 -15.138000
v 12.185000 -6.165000 -20.054000
v 12.185000 -6.165000 -14.927000
v 12.685000 -6.165000 -19.980000
v 12.685000 -6.165000 -14.722000
v 13.185000 -6.165000 -19.972000
v 13.185000 -6.165000 -14.708000
v 13.685000 -6.165000 -19.798000
v 13.685000 -6.165000 -14.887000
v 14.185000 -6.165000 -19.442000
v 14.185000 -6.165000 -15.394000
v 14.685000 -6.165000 -19.165000
v 14.685000 -6.165000 -16.545000
v 15.185000 -6.165000 -18.445000
v 15.185000 -6.165000 -17.752000
v 11.185000 -2.165000 -12.345000
v 11.185000 -2.165000 -10.011000
v 11.685000 -2.165000 -17.233000
v 11.685000 -2.165000 -9.473000
v 12.185000 -2.165000 -17.765000
v 12.185000 -2.165000 -9.282000
v 12.685000 -2.165000 -18.198000
v 12.685000 -2.165000 -9.286000
v 13.185000 -2.165000 -18.421000
v 13.185000 -2.165000 -9.487000
v 13.685000 -2.165000 -18.497000
v 13.685000 -2.165000 -10.053000
v 14.185000 -2.165000 -18.450000
v 14.185000 -2.165000 -12.739000
v 14.685000 -2.165000 -18.226000
v 14.685000 -2.165000 -16.050000
v 15.185000 -2.165000 -17.478000
v 15.185000 -2.165000 -16.857000
v 12.185000 1.835000 -10.132000
v 12.185000 1.835000 -9.117000
v 12.685000 1.835000 -13.357000
v 12.685000 1.835000 -8.519000
v 13.185000 1.835000 -13.631000
v 13.185000 1.835000 -8.325000
v 13.685000 1.835000 -13.607000
v 13.685000 1.835000 -8.330000
v 14.185000 1.835000 -13.538000
v 14.185000 1.835000 -8.364000
v 14.685000 1.835000 -13.252000
v 14.685000 1.835000 -8.600000
v 15.185000 1.835000 -12.486000
v 15.185000 1.835000 -9.507000
v 8.685000 -6.362000 -17.632000
v 8.685000 -5.009000 -17.632000
v 9.185000 -6.936000 -17.632000
v 9.185000 -3.473000 -17.632000
v 9.685000 -7.317000 -17.632000
v 9.685000 -3.061000 -17.632000
v 10.185000 -7.542000 -17.632000
v 10.185000 -2.625000 -17.632000
v 10.685000 -7.870000 -17.632000
v 10.685000 -2.405000 -17.632000
v 11.185000 -8.068000 -17.632000
v 11.185000 -2.385000 -17.632000
v 11.685000 -8.117000 -17.632000
v 11.685000 -2.333000 -17.632000
v 12.185000 -8.271000 -17.632000
v 12.185000 -2.072000 -17.632000
v 12.685000 -8.470000 -17.632000
v 12.685000 -1.184000 -17.632000
v 13.185000 -8.526000 -17.632000
v 13.185000 -0.571000 -17.632000
v 13.685000 -8.557000 -17.632000
v 13.685000 -0.373000 -17.632000
v 14.185000 -8.563000 -17.632000
v 14.185000 -0.382000 -17.632000
v 14.685000 -8.377000 -17.632000
v 14.685000 -0.603000 -17.632000
v 15.185000 -7.852000 -17.632000
v 15.185000 -6.279000 -17.632000
v 15.185000 -2.023000 -17.632000
v 15.185000 -1.324000 -17.632000
v 11.685000 -2.367000 -13.632000
v 11.685000 -1.063000 -13.632000
v 12.185000 -2.933000 -13.632000
v 12.185000 -0.195000 -13.632000
v 12.685000 -3.140000 -13.632000
v 12.685000 1.568000 -13.632000
v 13.185000 -3.137000 -13.632000
v 13.185000 1.833000 -13.632000
v 13.685000 -2.902000 -13.632000
v 13.685000 1.810000 -13.632000
v 14.185000 -2.323000 -13.632000
v 14.185000 1.740000 -13.632000
v 14.685000 0.186000 -13.632000
v 14.685000 1.428000 -13.632000
v 11.685000 -3.350000 -9.632000
v 11.685000 -1.125000 -9.632000
v 12.185000 -3.644000 -9.632000
v 12.185000 2.055000 -9.632000
v 12.685000 -3.638000 -9.632000
v 12.685000 2.563000 -9.632000
v 13.185000 -3.320000 -9.632000
v 13.185000 2.743000 -9.632000
v 13.685000 -1.206000 -9.632000
v 13.685000 2.730000 -9.632000
v 14.185000 -0.791000 -9.632000
v 14.185000 2.675000 -9.632000
v 14.685000 -0.178000 -9.632000
v 14.685000 2.468000 -9.632000
v 15.185000 0.757000 -9.632000
v 15.185000 1.876000 -9.632000
v 9.096000 -5.665000 -20.132000
v 11.340000 -5.665000 -20.132000
v 8.718000 -5.665000 -19.632000
v 13.749000 -5.665000 -19.632000
v 8.601000 -5.665000 -19.132000
v 14.243000 -5.665000 -19.132000
v 8.541000 -5.665000 -18.632000
v 14.757000 -5.665000 -18.632000
v 8.567000 -5.665000 -18.132000
v 14.925000 -5.665000 -18.132000
v 8.527000 -5.665000 -17.632000
v 14.940000 -5.665000 -17.632000
v 8.584000 -5.665000 -17.132000
v 14.886000 -5.665000 -17.132000
v 8.582000 -5.665000 -16.632000
v 14.775000 -5.665000 -16.632000
v 8.628000 -5.665000 -16.132000
v 14.466000 -5.665000 -16.132000
v 8.714000 -5.665000 -15.632000
v 14.255000 -5.665000 -15.632000
v 9.060000 -5.665000 -15.132000
v 13.935000 -5.665000 -15.132000
v 12.875000 -1.665000 -18.132000
v 14.926000 -1.665000 -18.132000
v 12.504000 -1.665000 -17.632000
v 15.232000 -1.665000 -17.632000
v 12.301000 -1.665000 -17.132000
v 15.311000 -1.665000 -17.132000
v 12.237000 -1.665000 -16.632000
v 15.205000 -1.665000 -16.632000
v 12.233000 -1.665000 -16.132000
v 14.854000 -1.665000 -16.132000
v 11.990000 -1.665000 -15.632000
v 14.414000 -1.665000 -15.632000
v 11.772000 -1.665000 -15.132000
v 14.250000 -1.665000 -15.132000
v 11.598000 -1.665000 -14.632000
v 14.279000 -1.665000 -14.632000
v 11.549000 -1.665000 -14.132000
v 14.348000 -1.665000 -14.132000
v 11.531000 -1.665000 -13.632000
v 14.330000 -1.665000 -13.632000
v 11.421000 -1.665000 -13.132000
v 14.335000 -1.665000 -13.132000
v 11.173000 -1.665000 -12.632000
v 14.278000 -1.665000 -12.632000
v 11.080000 -1.665000 -12.132000
v 14.075000 -1.665000 -12.132000
v 11.064000 -1.665000 -11.632000
v 13.953000 -1.665000 -11.632000
v 10.993000 -1.665000 -11.132000
v 13.905000 -1.665000 -11.132000
v 11.061000 -1.665000 -10.632000
v 13.880000 -1.665000 -10.632000
v 11.173000 -1.665000 -10.132000
v 13.793000 -1.665000 -10.132000
v 11.520000 -1.665000 -9.632000
v 13.440000 -1.665000 -9.632000
v 13.039000 2.335000 -12.632000
v 14.792000 2.335000 -12.632000
v 12.900000 2.335000 -12.132000
v 14.934000 2.335000 -12.132000
v 12.954000 2.335000 -11.632000
v 14.927000 2.335000 -11.632000
v 12.942000 2.335000 -11.132000
v 14.850000 2.335000 -11.132000
v 12.865000 2.335000 -10.632000
v 14.895000 2.335000 -10.632000
v 12.533000 2.335000 -10.132000
v 14.952000 2.335000 -10.132000
v 12.396000 2.335000 -9.632000
v 14.856000 2.335000 -9.632000
v 12.524000 2.335000 -9.132000
v 14.704000 2.335000 -9.132000
v 8.685000 -5.665000 -19.546000
v 8.685000 -5.665000 -15.717000
v 9.185000 -5.665000 -20.198000
v 9.185000 -5.665000 -15.034000
v 9.685000 -5.665000 -20.398000
v 9.685000 -5.665000 -14.827000
v 10.185000 -5.665000 -20.397000
v 10.185000 -5.665000 -14.829000
v 10.685000 -5.665000 -20.368000
v 10.685000 -5.665000 -14.867000
v 11.185000 -5.665000 -20.182000
v 11.185000 -5.665000 -15.011000
v 11.685000 -5.665000 -20.058000
v 11.685000 -5.665000 -15.016000
v 12.185000 -5.665000 -19.966000
v 12.185000 -5.665000 -14.898000
v 12.685000 -5.665000 -19.884000
v 12.685000 -5.665000 -14.743000
v 13.185000 -5.665000 -19.867000
v 13.185000 -5.665000 -14.740000
v 13.685000 -5.665000 -19.677000
v 13.685000 -5.665000 -14.932000
v 14.185000 -5.665000 -19.185000
v 14.185000 -5.665000 -15.475000
v 14.685000 -5.665000 -18.732000
v 14.685000 -5.665000 -16.450000
v 11.185000 -1.665000 -12.662000
v 11.185000 -1.665000 -10.104000
v 11.685000 -1.665000 -14.949000
v 11.685000 -1.665000 -9.501000
v 12.185000 -1.665000 -15.975000
v 12.185000 -1.665000 -9.290000
v 12.685000 -1.665000 -17.922000
v 12.685000 -1.665000 -9.278000
v 13.185000 -1.665000 -18.364000
v 13.185000 -1.665000 -9.454000
v 13.685000 -1.665000 -18.549000
v 13.685000 -1.665000 -9.918000
v 14.185000 -1.665000 -18.540000
v 14.185000 -1.665000 -12.403000
v 14.685000 -1.665000 -18.334000
v 14.685000 -1.665000 -15.972000
v 15.185000 -1.665000 -17.749000
v 15.185000 -1.665000 -16.586000
v 12.685000 2.335000 -10.335000
v 12.685000 2.335000 -8.919000
v 13.185000 2.335000 -12.830000
v 13.185000 2.335000 -8.643000
v 13.685000 2.335000 -13.105000
v 13.685000 2.335000 -8.658000
v 14.185000 2.335000 -13.096000
v 14.185000 2.335000 -8.724000
v 14.685000 2.335000 -12.781000
v 14.685000 2.335000 -9.103000
v 8.685000 -6.088000 -17.132000
v 8.685000 -3.740000 -17.132000
v 9.185000 -6.810000 -17.132000
v 9.185000 -3.064000 -17.132000
v 9.685000 -7.301000 -17.132000
v 9.685000 -2.645000 -17.132000
v 10.185000 -7.537000 -17.132000
v 10.185000 -2.423000 -17.132000
v 10.685000 -7.874000 -17.132000
v 10.685000 -2.328000 -17.132000
v 11.185000 -8.060000 -17.132000
v 11.185000 -2.272000 -17.132000
v 11.685000 -8.073000 -17.132000
v 11.685000 -2.125000 -17.132000
v 12.185000 -8.117000 -17.132000
v 12.185000 -1.790000 -17.132000
v 12.685000 -8.244000 -17.132000
v 12.685000 -0.999000 -17.132000
v 13.185000 -8.414000 -17.132000
v 13.185000 -0.477000 -17.132000
v 13.685000 -8.475000 -17.132000
v 13.685000 -0.292000 -17.132000
v 14.185000 -8.483000 -17.132000
v 14.185000 -0.301000 -17.132000
v 14.685000 -8.284000 -17.132000
v 14.685000 -0.507000 -17.132000
v 15.185000 -7.667000 -17.132000
v 15.185000 -6.697000 -17.132000
v 15.185000 -2.254000 -17.132000
v 15.185000 -1.093000 -17.132000
v 11.685000 -2.436000 -13.132000
v 11.685000 -0.883000 -13.132000
v 12.185000 -2.922000 -13.132000
v 12.185000 1.382000 -13.132000
v 12.685000 -3.067000 -13.132000
v 12.685000 1.959000 -13.132000
v 13.185000 -3.022000 -13.132000
v 13.185000 2.162000 -13.132000
v 13.685000 -2.823000 -13.132000
v 13.685000 2.305000 -13.132000
v 14.185000 -2.265000 -13.132000
v 14.185000 2.295000 -13.132000
v 14.685000 -0.674000 -13.132000
v 14.685000 1.965000 -13.132000
v 15.185000 0.399000 -13.132000
v 15.185000 1.223000 -13.132000
v 12.185000 0.454000 -9.132000
v 12.185000 1.851000 -9.132000
v 12.685000 -0.567000 -9.132000
v 12.685000 2.458000 -9.132000
v 13.185000 -0.715000 -9.132000
v 13.185000 2.652000 -9.132000
v 13.685000 -0.620000 -9.132000
v 13.685000 2.639000 -9.132000
v 14.185000 -0.363000 -9.132000
v 14.185000 2.582000 -9.132000
v 14.685000 0.234000 -9.132000
v 14.685000 2.349000 -9.132000
v 15.185000 1.078000 -9.132000
v 15.185000 1.531000 -9.132000
v 9.098000 -5.165000 -19.632000
v 12.467000 -5.165000 -19.632000
v 8.765000 -5.165000 -19.132000
v 13.855000 -5.165000 -19.132000
v 8.647000 -5.165000 -18.632000
v 14.279000 -5.165000 -18.632000
v 8.656000 -5.165000 -18.132000
v 14.610000 -5.165000 -18.132000
v 8.632000 -5.165000 -17.632000
v 14.796000 -5.165000 -17.632000
v 8.581000 -5.165000 -17.132000
v 14.877000 -5.165000 -17.132000
v 8.503000 -5.165000 -16.632000
v 14.803000 -5.165000 -16.632000
v 8.520000 -5.165000 -16.132000
v 14.509000 -5.165000 -16.132000
v 8.598000 -5.165000 -15.632000
v 14.235000 -5.165000 -15.632000
v 8.904000 -5.165000 -15.132000
v 13.900000 -5.165000 -15.132000
v 13.034000 -1.165000 -18.132000
v 14.789000 -1.165000 -18.132000
v 12.693000 -1.165000 -17.632000
v 15.130000 -1.165000 -17.632000
v 12.606000 -1.165000 -17.132000
v 15.216000 -1.165000 -17.132000
v 12.694000 -1.165000 -16.632000
v 15.101000 -1.165000 -16.632000
v 12.755000 -1.165000 -16.132000
v 14.707000 -1.165000 -16.132000
v 12.587000 -1.165000 -15.632000
v 14.241000 -1.165000 -15.632000
v 12.086000 -1.165000 -15.132000
v 14.100000 -1.165000 -15.132000
v 11.742000 -1.165000 -14.632000
v 14.166000 -1.165000 -14.632000
v 11.651000 -1.165000 -14.132000
v 14.274000 -1.165000 -14.132000
v 11.638000 -1.165000 -13.632000
v 14.354000 -1.165000 -13.632000
v 11.524000 -1.165000 -13.132000
v 14.446000 -1.165000 -13.132000
v 11.258000 -1.165000 -12.632000
v 14.479000 -1.165000 -12.632000
v 11.158000 -1.165000 -12.132000
v 14.321000 -1.165000 -12.132000
v 11.147000 -1.165000 -11.632000
v 14.232000 -1.165000 -11.632000
v 11.077000 -1.165000 -11.132000
v 14.131000 -1.165000 -11.132000
v 11.151000 -1.165000 -10.632000
v 14.044000 -1.165000 -10.632000
v 11.271000 -1.165000 -10.132000
v 14.025000 -1.165000 -10.132000
v 11.659000 -1.165000 -9.632000
v 13.721000 -1.165000 -9.632000
v 8.685000 -5.165000 -18.905000
v 8.685000 -5.165000 -15.435000
v 9.185000 -5.165000 -19.727000
v 9.185000 -5.165000 -14.904000
v 9.685000 -5.165000 -20.030000
v 9.685000 -5.165000 -14.716000
v 10.185000 -5.165000 -20.060000
v 10.185000 -5.165000 -14.722000
v 10.685000 -5.165000 -20.043000
v 10.685000 -5.165000 -14.764000
v 11.185000 -5.165000 -19.983000
v 11.185000 -5.165000 -14.800000
v 11.685000 -5.165000 -19.957000
v 11.685000 -5.165000 -14.816000
v 12.185000 -5.165000 -19.753000
v 12.185000 -5.165000 -14.843000
v 12.685000 -5.165000 -19.570000
v 12.685000 -5.165000 -14.766000
v 13.185000 -5.165000 -19.516000
v 13.185000 -5.165000 -14.767000
v 13.685000 -5.165000 -19.280000
v 13.685000 -5.165000 -14.964000
v 14.185000 -5.165000 -18.738000
v 14.185000 -5.165000 -15.520000
v 14.685000 -5.165000 -17.933000
v 14.685000 -5.165000 -16.374000
v 11.185000 -1.165000 -12.394000
v 11.185000 -1.165000 -10.406000
v 11.685000 -1.165000 -14.451000
v 11.685000 -1.165000 -9.612000
v 12.185000 -1.165000 -15.221000
v 12.185000 -1.165000 -9.363000
v 12.685000 -1.165000 -17.612000
v 12.685000 -1.165000 -16.663000
v 12.685000 -1.165000 -15.815000
v 12.685000 -1.165000 -9.273000
v 13.185000 -1.165000 -18.251000
v 13.185000 -1.165000 -9.355000
v 13.685000 -1.165000 -18.452000
v 13.685000 -1.165000 -9.602000
v 14.185000 -1.165000 -18.443000
v 14.185000 -1.165000 -15.527000
v 14.185000 -1.165000 -14.555000
v 14.185000 -1.165000 -11.307000
v 14.685000 -1.165000 -18.218000
v 14.685000 -1.165000 -16.114000
v 15.185000 -1.165000 -17.451000
v 15.185000 -1.165000 -16.884000
v 8.685000 -5.892000 -16.632000
v 8.685000 -3.527000 -16.632000
v 9.185000 -6.541000 -16.632000
v 9.185000 -2.967000 -16.632000
v 9.685000 -7.188000 -16.632000
v 9.685000 -2.545000 -16.632000
v 10.185000 -7.465000 -16.632000
v 10.185000 -2.339000 -16.632000
v 10.685000 -7.824000 -16.632000
v 10.685000 -2.287000 -16.632000
v 11.185000 -8.025000 -16.632000
v 11.185000 -2.219000 -16.632000
v 11.685000 -8.037000 -16.632000
v 11.685000 -2.011000 -16.632000
v 12.185000 -8.077000 -16.632000
v 12.185000 -1.707000 -16.632000
v 12.685000 -8.120000 -16.632000
v 12.685000 -1.179000 -16.632000
v 13.185000 -8.140000 -16.632000
v 13.185000 -0.603000 -16.632000
v 13.685000 -8.175000 -16.632000
v 13.685000 -0.400000 -16.632000
v 14.185000 -8.172000 -16.632000
v 14.185000 -0.409000 -16.632000
v 14.685000 -7.890000 -16.632000
v 14.685000 -0.636000 -16.632000
v 15.185000 -1.902000 -16.632000
v 15.185000 -1.445000 -16.632000
v 11.185000 -1.806000 -12.632000
v 11.185000 -1.451000 -12.632000
v 11.685000 -2.810000 -12.632000
v 11.685000 0.601000 -12.632000
v 12.185000 -3.118000 -12.632000
v 12.185000 1.556000 -12.632000
v 12.685000 -3.163000 -12.632000
v 12.685000 2.061000 -12.632000
v 13.185000 -3.036000 -12.632000
v 13.185000 2.448000 -12.632000
v 13.685000 -2.745000 -12.632000
v 13.685000 2.652000 -12.632000
v 14.185000 -2.077000 -12.632000
v 14.185000 2.645000 -12.632000
v 14.685000 -0.852000 -12.632000
v 14.685000 2.422000 -12.632000
v 15.185000 0.147000 -12.632000
v 15.185000 1.662000 -12.632000
v 12.685000 0.143000 -8.632000
v 12.685000 2.041000 -8.632000
v 13.185000 -0.181000 -8.632000
v 13.185000 2.324000 -8.632000
v 13.685000 -0.193000 -8.632000
v 13.685000 2.309000 -8.632000
v 14.185000 0.088000 -8.632000
v 14.185000 2.246000 -8.632000
v 14.685000 0.715000 -8.632000
v 14.685000 1.893000 -8.632000
v 10.182000 -4.665000 -19.632000
v 10.770000 -4.665000 -19.632000
v 9.169000 -4.665000 -19.132000
v 12.702000 -4.665000 -19.132000
v 8.995000 -4.665000 -18.632000
v 13.961000 -4.665000 -18.632000
v 8.912000 -4.665000 -18.132000
v 14.433000 -4.665000 -18.132000
v 8.790000 -4.665000 -17.632000
v 14.703000 -4.665000 -17.632000
v 8.612000 -4.665000 -17.132000
v 14.810000 -4.665000 -17.132000
v 8.536000 -4.665000 -16.632000
v 14.729000 -4.665000 -16.632000
v 8.522000 -4.665000 -16.132000
v 14.459000 -4.665000 -16.132000
v 8.610000 -4.665000 -15.632000
v 14.264000 -4.665000 -15.632000
v 8.931000 -4.665000 -15.132000
v 13.905000 -4.665000 -15.132000
v 13.059000 -0.665000 -17.632000
v 14.764000 -0.665000 -17.632000
v 12.941000 -0.665000 -17.132000
v 14.882000 -0.665000 -17.132000
v 13.099000 -0.665000 -16.632000
v 14.723000 -0.665000 -16.632000
v 13.540000 -0.665000 -16.132000
v 13.926000 -0.665000 -16.132000
v 12.820000 -0.665000 -15.132000
v 13.378000 -0.665000 -15.132000
v 12.123000 -0.665000 -14.632000
v 13.811000 -0.665000 -14.632000
v 11.985000 -0.665000 -14.132000
v 14.134000 -0.665000 -14.132000
v 11.928000 -0.665000 -13.632000
v 14.428000 -0.665000 -13.632000
v 11.788000 -0.665000 -13.132000
v 14.689000 -0.665000 -13.132000
v 11.519000 -0.665000 -12.632000
v 14.777000 -0.665000 -12.632000
v 11.405000 -0.665000 -12.132000
v 14.665000 -0.665000 -12.132000
v 11.400000 -0.665000 -11.632000
v 14.510000 -0.665000 -11.632000
v 11.339000 -0.665000 -11.132000
v 14.505000 -0.665000 -11.132000
v 11.422000 -0.665000 -10.632000
v 14.458000 -0.665000 -10.632000
v 11.611000 -0.665000 -10.132000
v 14.504000 -0.665000 -10.132000
v 11.977000 -0.665000 -9.632000
v 14.349000 -0.665000 -9.632000
v 12.815000 -0.665000 -9.132000
v 13.434000 -0.665000 -9.132000
v 8.685000 -4.665000 -17.334000
v 8.685000 -4.665000 -15.466000
v 9.185000 -4.665000 -19.154000
v 9.185000 -4.665000 -14.931000
v 9.685000 -4.665000 -19.497000
v 9.685000 -4.665000 -14.741000
v 10.185000 -4.665000 -19.633000
v 10.185000 -4.665000 -14.735000
v 10.685000 -4.665000 -19.652000
v 10.685000 -4.665000 -14.717000
v 11.185000 -4.665000 -19.619000
v 11.185000 -4.665000 -14.702000
v 11.685000 -4.665000 -19.610000
v 11.685000 -4.665000 -14.710000
v 12.185000 -4.665000 -19.316000
v 12.185000 -4.665000 -14.782000
v 12.685000 -4.665000 -19.135000
v 12.685000 -4.665000 -14.767000
v 13.185000 -4.665000 -19.095000
v 13.185000 -4.665000 -14.773000
v 13.685000 -4.665000 -18.875000
v 13.685000 -4.665000 -14.970000
v 14.185000 -4.665000 -18.401000
v 14.185000 -4.665000 -15.475000
v 14.685000 -4.665000 -17.673000
v 14.685000 -4.665000 -16.522000
v 11.685000 -0.665000 -12.915000
v 11.685000 -0.665000 -10.017000
v 12.185000 -0.665000 -14.726000
v 12.185000 -0.665000 -9.446000
v 12.685000 -0.665000 -15.080000
v 12.685000 -0.665000 -9.171000
v 13.185000 -0.665000 -17.812000
v 13.185000 -0.665000 -16.493000
v 13.185000 -0.665000 -15.199000
v 13.185000 -0.665000 -9.097000
v 13.685000 -0.665000 -18.112000
v 13.685000 -0.665000 -16.100000
v 13.685000 -0.665000 -14.802000
v 13.685000 -0.665000 -9.174000
v 14.185000 -0.665000 -18.100000
v 14.185000 -0.665000 -16.212000
v 14.185000 -0.665000 -14.044000
v 14.185000 -0.665000 -9.433000
v 14.685000 -0.665000 -17.755000
v 14.685000 -0.665000 -16.579000
v 14.685000 -0.665000 -13.142000
v 14.685000 -0.665000 -12.181000
v 9.185000 -6.876000 -20.132000
v 9.185000 -5.553000 -20.132000
v 9.685000 -7.166000 -20.132000
v 9.685000 -5.263000 -20.132000
v 10.185000 -7.150000 -20.132000
v 10.185000 -5.241000 -20.132000
v 10.685000 -7.032000 -20.132000
v 10.685000 -5.263000 -20.132000
v 11.185000 -6.680000 -20.132000
v 11.185000 -5.504000 -20.132000
v 8.685000 -5.787000 -16.132000
v 8.685000 -3.603000 -16.132000
v 9.185000 -6.352000 -16.132000
v 9.185000 -3.024000 -16.132000
v 9.685000 -6.788000 -16.132000
v 9.685000 -2.671000 -16.132000
v 10.185000 -7.279000 -16.132000
v 10.185000 -2.444000 -16.132000
v 10.685000 -7.725000 -16.132000
v 10.685000 -2.362000 -16.132000
v 11.185000 -7.943000 -16.132000
v 11.185000 -2.219000 -16.132000
v 11.685000 -7.952000 -16.132000
v 11.685000 -1.938000 -16.132000
v 12.185000 -7.984000 -16.132000
v 12.185000 -1.691000 -16.132000
v 12.685000 -7.992000 -16.132000
v 12.685000 -1.275000 -16.132000
v 13.185000 -7.943000 -16.132000
v 13.185000 -0.780000 -16.132000
v 13.685000 -7.762000 -16.132000
v 13.685000 -0.651000 -16.132000
v 14.185000 -7.412000 -16.132000
v 14.185000 -0.732000 -16.132000
v 14.685000 -2.860000 -16.132000
v 14.685000 -1.132000 -16.132000
v 11.185000 -2.550000 -12.132000
v 11.185000 -1.095000 -12.132000
v 11.685000 -3.211000 -12.132000
v 11.685000 0.852000 -12.132000
v 12.185000 -3.414000 -12.132000
v 12.185000 1.551000 -12.132000
v 12.685000 -3.404000 -12.132000
v 12.685000 2.095000 -12.132000
v 13.185000 -3.177000 -12.132000
v 13.185000 2.566000 -12.132000
v 13.685000 -2.665000 -12.132000
v 13.685000 2.753000 -12.132000
v 14.185000 -1.387000 -12.132000
v 14.185000 2.747000 -12.132000
v 14.685000 -0.618000 -12.132000
v 14.685000 2.543000 -12.132000
v 15.185000 0.244000 -12.132000
v 15.185000 1.965000 -12.132000
v 12.108000 -8.165000 -18.632000
v 13.948000 -8.165000 -18.632000
v 11.875000 -8.165000 -18.132000
v 14.796000 -8.165000 -18.132000
v 11.905000 -8.165000 -17.632000
v 14.952000 -8.165000 -17.632000
v 12.367000 -8.165000 -17.132000
v 14.839000 -8.165000 -17.132000
v 13.597000 -8.165000 -16.632000
v 14.212000 -8.165000 -16.632000
v 9.504000 -4.165000 -18.632000
v 13.676000 -4.165000 -18.632000
v 9.215000 -4.165000 -18.132000
v 14.396000 -4.165000 -18.132000
v 8.891000 -4.165000 -17.632000
v 14.712000 -4.165000 -17.632000
v 8.621000 -4.165000 -17.132000
v 14.796000 -4.165000 -17.132000
v 8.541000 -4.165000 -16.632000
v 14.695000 -4.165000 -16.632000
v 8.554000 -4.165000 -16.132000
v 14.425000 -4.165000 -16.132000
v 8.651000 -4.165000 -15.632000
v 14.262000 -4.165000 -15.632000
v 8.985000 -4.165000 -15.132000
v 13.975000 -4.165000 -15.132000
v 12.594000 -4.165000 -14.632000
v 13.222000 -4.165000 -14.632000
v 12.471000 -0.165000 -14.132000
v 13.938000 -0.165000 -14.132000
v 12.203000 -0.165000 -13.632000
v 14.511000 -0.165000 -13.632000
v 11.918000 -0.165000 -13.132000
v 14.873000 -0.165000 -13.132000
v 11.636000 -0.165000 -12.632000
v 14.983000 -0.165000 -12.632000
v 11.529000 -0.165000 -12.132000
v 14.931000 -0.165000 -12.132000
v 11.537000 -0.165000 -11.632000
v 14.836000 -0.165000 -11.632000
v 11.483000 -0.165000 -11.132000
v 14.807000 -0.165000 -11.132000
v 11.583000 -0.165000 -10.632000
v 14.770000 -0.165000 -10.632000
v 11.875000 -0.165000 -10.132000
v 14.806000 -0.165000 -10.132000
v 12.099000 -0.165000 -9.632000
v 14.690000 -0.165000 -9.632000
v 12.426000 -0.165000 -9.132000
v 14.385000 -0.165000 -9.132000
v 13.136000 -0.165000 -8.632000
v 13.784000 -0.165000 -8.632000
v 12.185000 -8.165000 -18.727000
v 12.185000 -8.165000 -17.302000
v 12.685000 -8.165000 -19.051000
v 12.685000 -8.165000 -16.831000
v 13.185000 -8.165000 -19.060000
v 13.185000 -8.165000 -16.682000
v 13.685000 -8.165000 -18.778000
v 13.685000 -8.165000 -16.620000
v 14.185000 -8.165000 -18.566000
v 14.185000 -8.165000 -16.626000
v 14.685000 -8.165000 -18.276000
v 14.685000 -8.165000 -16.916000
v 8.685000 -4.165000 -17.284000
v 8.685000 -4.165000 -15.552000
v 9.185000 -4.165000 -18.074000
v 9.185000 -4.165000 -14.973000
v 9.685000 -4.165000 -18.798000
v 9.685000 -4.165000 -14.769000
v 10.185000 -4.165000 -19.039000
v 10.185000 -4.165000 -14.757000
v 10.685000 -4.165000 -19.104000
v 10.685000 -4.165000 -14.713000
v 11.185000 -4.165000 -19.114000
v 11.185000 -4.165000 -14.699000
v 11.685000 -4.165000 -18.943000
v 11.685000 -4.165000 -14.702000
v 12.185000 -4.165000 -18.812000
v 12.185000 -4.165000 -14.690000
v 12.685000 -4.165000 -18.715000
v 12.685000 -4.165000 -14.621000
v 13.185000 -4.165000 -18.720000
v 13.185000 -4.165000 -14.624000
v 13.685000 -4.165000 -18.629000
v 13.685000 -4.165000 -14.851000
v 14.185000 -4.165000 -18.321000
v 14.185000 -4.165000 -15.457000
v 14.685000 -4.165000 -17.701000
v 14.685000 -4.165000 -16.608000
v 11.685000 -0.165000 -12.736000
v 11.685000 -0.165000 -10.415000
v 12.185000 -0.165000 -13.605000
v 12.185000 -0.165000 -9.464000
v 12.685000 -0.165000 -14.327000
v 12.685000 -0.165000 -8.889000
v 13.185000 -0.165000 -14.437000
v 13.185000 -0.165000 -8.618000
v 13.685000 -0.165000 -14.267000
v 13.685000 -0.165000 -8.605000
v 14.185000 -0.165000 -13.947000
v 14.185000 -0.165000 -8.882000
v 14.685000 -0.165000 -13.441000
v 14.685000 -0.165000 -9.622000
v 8.685000 -6.686000 -19.632000
v 8.685000 -5.743000 -19.632000
v 9.185000 -7.306000 -19.632000
v 9.185000 -5.087000 -19.632000
v 9.685000 -7.503000 -19.632000
v 9.685000 -4.801000 -19.632000
v 10.185000 -7.490000 -19.632000
v 10.185000 -4.665000 -19.632000
v 10.685000 -7.405000 -19.632000
v 10.685000 -4.646000 -19.632000
v 11.185000 -7.251000 -19.632000
v 11.185000 -4.679000 -19.632000
v 11.685000 -7.174000 -19.632000
v 11.685000 -4.686000 -19.632000
v 12.185000 -7.155000 -19.632000
v 12.185000 -4.980000 -19.632000
v 12.685000 -7.111000 -19.632000
v 12.685000 -5.239000 -19.632000
v 13.185000 -7.114000 -19.632000
v 13.185000 -5.286000 -19.632000
v 13.685000 -6.827000 -19.632000
v 13.685000 -5.583000 -19.632000
v 8.685000 -5.596000 -15.632000
v 8.685000 -3.895000 -15.632000
v 9.185000 -6.222000 -15.632000
v 9.185000 -3.141000 -15.632000
v 9.685000 -6.471000 -15.632000
v 9.685000 -2.916000 -15.632000
v 10.185000 -6.828000 -15.632000
v 10.185000 -2.786000 -15.632000
v 10.685000 -7.311000 -15.632000
v 10.685000 -2.533000 -15.632000
v 11.185000 -7.626000 -15.632000
v 11.185000 -2.261000 -15.632000
v 11.685000 -7.635000 -15.632000
v 11.685000 -1.948000 -15.632000
v 12.185000 -7.650000 -15.632000
v 12.185000 -1.530000 -15.632000
v 12.685000 -7.659000 -15.632000
v 12.685000 -1.055000 -15.632000
v 13.185000 -7.589000 -15.632000
v 13.185000 -0.793000 -15.632000
v 13.685000 -7.332000 -15.632000
v 13.685000 -0.802000 -15.632000
v 14.185000 -6.737000 -15.632000
v 14.185000 -1.098000 -15.632000
v 11.185000 -2.820000 -11.632000
v 11.185000 -1.070000 -11.632000
v 11.685000 -3.408000 -11.632000
v 11.685000 0.958000 -11.632000
v 12.185000 -3.634000 -11.632000
v 12.185000 1.540000 -11.632000
v 12.685000 -3.626000 -11.632000
v 12.685000 2.033000 -11.632000
v 13.185000 -3.379000 -11.632000
v 13.185000 2.520000 -11.632000
v 13.685000 -2.719000 -11.632000
v 13.685000 2.718000 -11.632000
v 14.185000 -1.260000 -11.632000
v 14.185000 2.720000 -11.632000
v 14.685000 -0.375000 -11.632000
v 14.685000 2.527000 -11.632000
v 15.185000 0.498000 -11.632000
v 15.185000 1.982000 -11.632000
v 11.715000 -7.665000 -19.132000
v 13.870000 -7.665000 -19.132000
v 10.847000 -7.665000 -18.632000
v 14.790000 -7.665000 -18.632000
v 10.451000 -7.665000 -18.132000
v 15.156000 -7.665000 -18.132000
v 10.407000 -7.665000 -17.632000
v 15.270000 -7.665000 -17.632000
v 10.402000 -7.665000 -17.132000
v 15.186000 -7.665000 -17.132000
v 10.478000 -7.665000 -16.632000
v 14.850000 -7.665000 -16.632000
v 10.607000 -7.665000 -16.132000
v 13.852000 -7.665000 -16.132000
v 10.207000 -3.665000 -18.632000
v 11.632000 -3.665000 -18.632000
v 9.550000 -3.665000 -18.132000
v 14.472000 -3.665000 -18.132000
v 9.050000 -3.665000 -17.632000
v 14.771000 -3.665000 -17.632000
v 8.712000 -3.665000 -17.132000
v 14.845000 -3.665000 -17.132000
v 8.626000 -3.665000 -16.632000
v 14.734000 -3.665000 -16.632000
v 8.658000 -3.665000 -16.132000
v 14.450000 -3.665000 -16.132000
v 8.762000 -3.665000 -15.632000
v 14.286000 -3.665000 -15.632000
v 9.141000 -3.665000 -15.132000
v 14.158000 -3.665000 -15.132000
v 11.764000 -3.665000 -14.632000
v 13.784000 -3.665000 -14.632000
v 11.587000 -3.665000 -11.132000
v 13.256000 -3.665000 -11.132000
v 11.437000 -3.665000 -10.632000
v 13.406000 -3.665000 -10.632000
v 11.560000 -3.665000 -10.132000
v 13.283000 -3.665000 -10.132000
v 13.101000 0.335000 -14.132000
v 13.396000 0.335000 -14.132000
v 12.360000 0.335000 -13.632000
v 14.783000 0.335000 -13.632000
v 11.955000 0.335000 -13.132000
v 15.161000 0.335000 -13.132000
v 11.651000 0.335000 -12.632000
v 15.269000 0.335000 -12.632000
v 11.573000 0.335000 -12.132000
v 15.221000 0.335000 -12.132000
v 11.551000 0.335000 -11.632000
v 15.133000 0.335000 -11.632000
v 11.542000 0.335000 -11.132000
v 14.990000 0.335000 -11.132000
v 11.646000 0.335000 -10.632000
v 14.986000 0.335000 -10.632000
v 11.931000 0.335000 -10.132000
v 14.987000 0.335000 -10.132000
v 12.097000 0.335000 -9.632000
v 14.934000 0.335000 -9.632000
v 12.223000 0.335000 -9.132000
v 14.777000 0.335000 -9.132000
v 12.559000 0.335000 -8.632000
v 14.364000 0.335000 -8.632000
v 10.685000 -7.665000 -18.551000
v 10.685000 -7.665000 -16.014000
v 11.185000 -7.665000 -18.915000
v 11.185000 -7.665000 -15.674000
v 11.685000 -7.665000 -19.125000
v 11.685000 -7.665000 -15.664000
v 12.185000 -7.665000 -19.230000
v 12.185000 -7.665000 -15.648000
v 12.685000 -7.665000 -19.381000
v 12.685000 -7.665000 -15.638000
v 13.185000 -7.665000 -19.388000
v 13.185000 -7.665000 -15.710000
v 13.685000 -7.665000 -19.207000
v 13.685000 -7.665000 -16.025000
v 14.185000 -7.665000 -19.026000
v 14.185000 -7.665000 -16.283000
v 14.685000 -7.665000 -18.731000
v 14.685000 -7.665000 -16.502000
v 15.185000 -7.665000 -18.061000
v 15.185000 -7.665000 -17.130000
v 8.685000 -3.665000 -17.055000
v 8.685000 -3.665000 -15.877000
v 9.185000 -3.665000 -17.749000
v 9.185000 -3.665000 -15.099000
v 9.685000 -3.665000 -18.312000
v 9.685000 -3.665000 -14.874000
v 10.185000 -3.665000 -18.627000
v 10.185000 -3.665000 -14.857000
v 10.685000 -3.665000 -18.674000
v 10.685000 -3.665000 -14.794000
v 11.185000 -3.665000 -18.664000
v 11.185000 -3.665000 -14.706000
v 11.685000 -3.665000 -18.630000
v 11.685000 -3.665000 -14.645000
v 11.685000 -3.665000 -11.263000
v 11.685000 -3.665000 -9.956000
v 12.185000 -3.665000 -18.582000
v 12.185000 -3.665000 -14.522000
v 12.185000 -3.665000 -11.584000
v 12.185000 -3.665000 -9.654000
v 12.685000 -3.665000 -18.542000
v 12.685000 -3.665000 -14.318000
v 12.685000 -3.665000 -11.573000
v 12.685000 -3.665000 -9.661000
v 13.185000 -3.665000 -18.564000
v 13.185000 -3.665000 -14.319000
v 13.185000 -3.665000 -11.232000
v 13.185000 -3.665000 -9.988000
v 13.685000 -3.665000 -18.559000
v 13.685000 -3.665000 -14.558000
v 14.185000 -3.665000 -18.369000
v 14.185000 -3.665000 -15.200000
v 14.685000 -3.665000 -17.832000
v 14.685000 -3.665000 -16.528000
v 11.685000 0.335000 -12.720000
v 11.685000 0.335000 -10.546000
v 12.185000 0.335000 -13.379000
v 12.185000 0.335000 -9.239000
v 12.685000 0.335000 -13.970000
v 12.685000 0.335000 -8.529000
v 13.185000 0.335000 -14.141000
v 13.185000 0.335000 -8.307000
v 13.685000 0.335000 -14.068000
v 13.685000 0.335000 -8.297000
v 14.185000 0.335000 -13.961000
v 14.185000 0.335000 -8.494000
v 14.685000 0.335000 -13.705000
v 14.685000 0.335000 -8.983000
v 15.185000 0.335000 -13.074000
v 15.185000 0.335000 -11.801000
v 8.685000 -6.904000 -19.132000
v 8.685000 -5.384000 -19.132000
v 9.185000 -7.416000 -19.132000
v 9.185000 -4.654000 -19.132000
v 9.685000 -7.598000 -19.132000
v 9.685000 -4.422000 -19.132000
v 10.185000 -7.587000 -19.132000
v 10.185000 -4.256000 -19.132000
v 10.685000 -7.540000 -19.132000
v 10.685000 -4.194000 -19.132000
v 11.185000 -7.562000 -19.132000
v 11.185000 -4.185000 -19.132000
v 11.685000 -7.658000 -19.132000
v 11.685000 -4.334000 -19.132000
v 12.185000 -7.800000 -19.132000
v 12.185000 -4.525000 -19.132000
v 12.685000 -8.080000 -19.132000
v 12.685000 -4.662000 -19.132000
v 13.185000 -8.089000 -19.132000
v 13.185000 -4.701000 -19.132000
v 13.685000 -7.785000 -19.132000
v 13.685000 -4.961000 -19.132000
v 14.185000 -7.557000 -19.132000
v 14.185000 -5.591000 -19.132000
v 14.685000 -7.202000 -19.132000
v 14.685000 -6.100000 -19.132000
v 9.185000 -5.825000 -15.132000
v 9.185000 -3.603000 -15.132000
v 9.685000 -6.111000 -15.132000
v 9.685000 -3.262000 -15.132000
v 10.185000 -6.131000 -15.132000
v 10.185000 -3.205000 -15.132000
v 10.685000 -6.174000 -15.132000
v 10.685000 -2.970000 -15.132000
v 11.185000 -6.011000 -15.132000
v 11.185000 -2.435000 -15.132000
v 11.685000 -6.136000 -15.132000
v 11.685000 -1.791000 -15.132000
v 12.185000 -6.935000 -15.132000
v 12.185000 -1.042000 -15.132000
v 12.685000 -7.186000 -15.132000
v 12.685000 -0.704000 -15.132000
v 13.185000 -7.205000 -15.132000
v 13.185000 -0.637000 -15.132000
v 13.685000 -6.936000 -15.132000
v 13.685000 -0.780000 -15.132000
v 14.185000 -3.592000 -15.132000
v 14.185000 -1.336000 -15.132000
v 11.185000 -3.069000 -11.132000
v 11.185000 -0.935000 -11.132000
v 11.685000 -3.740000 -11.132000
v 11.685000 0.917000 -11.132000
v 12.185000 -3.947000 -11.132000
v 12.185000 1.517000 -11.132000
v 12.685000 -3.942000 -11.132000
v 12.685000 2.060000 -11.132000
v 13.185000 -3.721000 -11.132000
v 13.185000 2.516000 -11.132000
v 13.685000 -2.979000 -11.132000
v 13.685000 2.694000 -11.132000
v 14.185000 -1.077000 -11.132000
v 14.185000 2.680000 -11.132000
v 14.685000 -0.426000 -11.132000
v 14.685000 2.466000 -11.132000
v 15.185000 0.750000 -11.132000
v 15.185000 1.874000 -11.132000
f 292 217 153
f 361 429 292
f 429 217 292
f 429 427 217
f 429 627 427
f 629 627 429
f 629 813 627
f 815 813 629
f 815 362 813
f 813 362 154
f 363 9 155
f 155 9 7
f 219 292 153
f 7 219 153
f 9 219 7
f 361 292 219
f 973 154 362
f 973 362 975
f 975 364 973
f 973 364 156
f 365 155 157
f 365 363 155
f 1135 156 364
f 1135 364 1137
f 158 1135 1379
f 1135 1309 1379
f 1135 1137 1309
f 1309 366 1379
f 367 157 159
f 367 365 157
f 1381 160 158
f 1381 158 1379
f 23 105 366
f 105 1379 366
f 105 1381 1379
f 23 368 105
f 369 1297 1355
f 161 1355 1297
f 367 161 1297
f 159 161 367
f 1381 1307 160
f 107 162 1307
f 1381 107 1307
f 105 107 1381
f 105 368 107
f 107 368 370
f 1295 163 1355
f 163 369 1355
f 163 371 369
f 1355 161 1295
f 109 164 162
f 109 162 107
f 107 370 109
f 109 370 372
f 373 163 165
f 373 371 163
f 1308 1387 166
f 1387 1308 164
f 109 1387 164
f 113 1387 109
f 109 372 113
f 113 372 374
f 375 1127 167
f 167 1127 1125
f 165 1125 1127
f 165 1127 373
f 1391 168 166
f 1391 166 1387
f 1387 117 1391
f 1387 113 117
f 233 333 374
f 333 113 374
f 333 117 113
f 233 376 333
f 377 167 169
f 377 375 167
f 1395 170 168
f 1395 168 1391
f 1391 121 1395
f 1391 117 121
f 117 335 121
f 117 333 335
f 445 535 376
f 535 333 376
f 535 335 333
f 445 378 535
f 379 169 171
f 379 377 169
f 1399 172 170
f 1399 170 1395
f 1395 125 1399
f 1395 121 125
f 121 337 125
f 121 335 337
f 335 537 337
f 335 535 537
f 643 729 378
f 729 535 378
f 729 537 535
f 729 643 901
f 901 643 829
f 829 380 901
f 381 171 173
f 381 379 171
f 1136 1209 174
f 1209 1136 172
f 1399 1209 172
f 1403 1209 1399
f 1399 129 1403
f 1399 125 129
f 125 339 129
f 125 337 339
f 337 539 339
f 337 537 539
f 537 731 539
f 537 729 731
f 729 903 731
f 729 901 903
f 901 380 903
f 903 380 382
f 1185 383 1126
f 383 173 1126
f 383 381 173
f 175 1185 1126
f 974 1045 176
f 1045 974 174
f 1209 1045 174
f 1211 1045 1209
f 1209 1405 1211
f 1209 1403 1405
f 1403 133 1405
f 1403 129 133
f 129 343 133
f 129 339 343
f 339 541 343
f 339 539 541
f 539 733 541
f 539 731 733
f 731 905 733
f 731 903 905
f 903 382 905
f 905 382 384
f 1187 385 1185
f 1185 385 383
f 1185 175 177
f 1185 177 1187
f 816 386 178
f 816 178 814
f 1045 976 176
f 976 814 176
f 976 816 814
f 976 1045 1138
f 1138 1045 1211
f 1138 1211 1310
f 1310 1211 1405
f 1310 1405 24
f 24 1405 133
f 24 133 234
f 234 133 343
f 234 343 387
f 343 543 387
f 343 541 543
f 541 735 543
f 541 733 735
f 733 909 735
f 733 905 909
f 905 384 909
f 909 384 388
f 1187 1128 385
f 177 1296 1187
f 1296 1128 1187
f 1296 1298 1128
f 8 99 389
f 1298 8 389
f 1296 8 1298
f 179 99 8
f 428 527 180
f 630 390 527
f 428 630 527
f 628 630 428
f 628 178 630
f 630 178 386
f 543 446 387
f 446 543 644
f 644 543 735
f 644 735 830
f 830 735 909
f 909 388 830
f 99 10 389
f 179 218 99
f 218 10 99
f 218 220 10
f 527 430 180
f 430 218 180
f 430 220 218
f 527 390 430
f 114 37 181
f 330 247 114
f 114 247 37
f 391 461 330
f 461 247 330
f 461 459 247
f 461 657 459
f 659 657 461
f 182 657 893
f 657 845 893
f 657 659 845
f 845 392 893
f 1392 1323 183
f 1323 1392 181
f 1392 114 181
f 1392 118 114
f 118 393 249
f 330 118 249
f 114 118 330
f 391 330 249
f 893 843 182
f 843 893 392
f 1001 843 392
f 999 843 1001
f 1001 394 999
f 999 394 184
f 1206 1151 185
f 1151 1206 183
f 1206 1392 183
f 1206 1396 1392
f 1396 395 39
f 118 1396 39
f 1392 1396 118
f 393 118 39
f 394 1153 1219
f 186 394 1219
f 184 394 186
f 1153 396 1219
f 187 1208 185
f 185 1208 1206
f 1400 1206 1208
f 1396 1206 1400
f 395 1396 1400
f 395 1400 397
f 1221 188 186
f 1221 186 1219
f 1331 1415 396
f 1415 1219 396
f 1415 1221 1219
f 1331 398 1415
f 1152 1208 187
f 189 1404 1152
f 1404 1208 1152
f 1404 1400 1208
f 130 40 397
f 1400 130 397
f 1404 130 1400
f 399 40 130
f 1223 190 188
f 1223 188 1221
f 400 1223 1332
f 1223 1415 1332
f 1223 1221 1415
f 1415 398 1332
f 1324 1404 189
f 38 130 1324
f 1324 130 1404
f 130 38 399
f 38 250 399
f 38 248 250
f 401 250 248
f 401 248 191
f 844 907 192
f 1002 402 907
f 844 1002 907
f 1000 1002 844
f 1223 1154 190
f 1154 1000 190
f 1154 1002 1000
f 1223 400 1154
f 191 460 401
f 401 460 462
f 658 462 460
f 658 660 462
f 907 846 192
f 846 658 192
f 846 660 658
f 907 402 846
f 112 47 193
f 403 265 112
f 265 47 112
f 265 263 47
f 265 475 263
f 477 475 265
f 477 673 475
f 675 673 477
f 892 859 404
f 859 675 404
f 859 673 675
f 892 194 859
f 405 1329 195
f 195 1329 1327
f 49 112 193
f 1327 49 193
f 1329 49 1327
f 403 112 49
f 861 892 404
f 1015 194 892
f 861 1015 892
f 1017 1015 861
f 1216 1167 406
f 1167 1017 406
f 1167 1015 1017
f 1410 1345 1216
f 1216 1345 1167
f 1410 196 1345
f 407 195 197
f 407 405 195
f 1169 1216 406
f 1216 1169 1347
f 1216 1347 1410
f 65 196 1410
f 1347 65 1410
f 67 65 1347
f 67 281 65
f 283 281 67
f 283 408 281
f 281 408 198
f 409 197 199
f 409 407 197
f 491 198 408
f 491 408 493
f 200 491 739
f 491 689 739
f 491 493 689
f 689 410 739
f 411 199 201
f 411 409 199
f 739 687 200
f 739 410 687
f 410 202 687
f 410 412 202
f 201 1328 411
f 411 1328 1330
f 1328 203 132
f 50 1328 132
f 1330 1328 50
f 413 50 132
f 202 414 204
f 412 414 202
f 48 132 203
f 132 48 413
f 48 266 413
f 48 264 266
f 476 266 264
f 476 478 266
f 674 478 476
f 674 676 478
f 860 676 674
f 860 862 676
f 415 862 860
f 415 860 205
f 204 416 206
f 414 416 204
f 205 1016 415
f 415 1016 1018
f 417 1018 1016
f 417 1016 207
f 206 418 208
f 416 418 206
f 207 1168 417
f 417 1168 1170
f 1346 1170 1168
f 1346 1348 1170
f 419 1348 1346
f 419 1346 209
f 690 420 210
f 690 210 688
f 688 208 690
f 690 208 418
f 209 66 419
f 419 66 68
f 282 68 66
f 282 284 68
f 492 284 282
f 492 494 284
f 492 210 494
f 494 210 420
f 561 431 361
f 361 431 429
f 431 629 429
f 631 629 431
f 631 815 629
f 817 815 631
f 817 562 815
f 815 562 362
f 76 9 363
f 563 221 76
f 221 9 76
f 221 219 9
f 361 219 221
f 361 221 561
f 975 362 562
f 975 562 977
f 364 975 1191
f 975 1139 1191
f 975 977 1139
f 1191 1139 1377
f 1377 1139 1311
f 1311 564 1377
f 76 363 11
f 363 565 11
f 363 365 565
f 563 76 11
f 1191 1137 364
f 1377 1309 1137
f 1377 1137 1191
f 564 25 103
f 564 103 366
f 1377 564 366
f 1309 1377 366
f 25 566 103
f 567 365 367
f 567 565 365
f 103 23 366
f 566 235 321
f 566 321 368
f 103 566 368
f 23 103 368
f 235 568 321
f 569 1299 369
f 369 1299 1297
f 367 1297 1299
f 367 1299 567
f 323 370 368
f 323 368 321
f 321 568 323
f 323 568 570
f 571 369 371
f 571 569 369
f 325 372 370
f 325 370 323
f 323 570 325
f 325 570 572
f 573 371 373
f 573 571 371
f 329 374 372
f 329 372 325
f 325 572 329
f 329 572 574
f 575 1129 375
f 375 1129 1127
f 373 1127 1129
f 373 1129 573
f 329 233 374
f 574 447 533
f 574 533 376
f 329 574 376
f 233 329 376
f 447 576 533
f 577 375 377
f 577 575 375
f 533 445 376
f 576 645 727
f 576 727 378
f 533 576 378
f 445 533 378
f 645 578 727
f 579 377 379
f 579 577 377
f 727 643 378
f 643 727 578
f 831 643 578
f 829 643 831
f 380 829 1055
f 829 989 1055
f 829 831 989
f 989 580 1055
f 581 379 381
f 581 579 379
f 1059 382 380
f 1059 380 1055
f 1055 580 1059
f 1059 580 582
f 583 381 383
f 583 581 381
f 1063 384 382
f 1063 382 1059
f 1059 582 1063
f 1063 582 584
f 585 383 385
f 585 583 383
f 816 889 386
f 976 1047 889
f 976 889 816
f 1138 1213 1047
f 1138 1047 976
f 1310 1407 1213
f 1310 1213 1138
f 24 135 1407
f 24 1407 1310
f 234 345 135
f 234 135 24
f 387 345 234
f 1067 388 384
f 1067 384 1063
f 1063 584 1067
f 1067 584 586
f 385 1128 585
f 585 1128 1130
f 1298 1373 587
f 1130 1298 587
f 1128 1298 1130
f 389 1373 1298
f 432 588 528
f 432 528 390
f 630 432 390
f 632 432 630
f 889 818 386
f 818 630 386
f 818 632 630
f 818 889 978
f 978 889 1047
f 978 1047 1140
f 1140 1047 1213
f 1140 1213 1312
f 1312 1213 1407
f 1312 1407 26
f 26 1407 135
f 26 135 236
f 236 135 345
f 387 446 345
f 446 236 345
f 446 448 236
f 644 737 589
f 448 644 589
f 446 644 448
f 832 590 737
f 644 832 737
f 830 832 644
f 1067 990 388
f 990 830 388
f 990 832 830
f 1067 586 990
f 1373 1300 587
f 389 10 1373
f 10 1300 1373
f 10 12 1300
f 220 12 10
f 220 222 12
f 588 222 528
f 222 430 528
f 222 220 430
f 390 528 430
f 737 646 589
f 737 590 646
f 591 463 391
f 391 463 461
f 463 659 461
f 661 659 463
f 661 845 659
f 847 845 661
f 847 592 845
f 845 592 392
f 593 251 393
f 393 251 249
f 391 249 251
f 391 251 591
f 1001 392 592
f 1001 592 1003
f 1003 594 1001
f 1001 594 394
f 122 39 395
f 393 39 122
f 595 393 122
f 593 393 595
f 1153 394 594
f 1153 594 1155
f 396 1153 1413
f 1153 1333 1413
f 1153 1155 1333
f 1413 1333 141
f 141 1333 53
f 141 53 349
f 349 53 269
f 269 596 349
f 397 126 395
f 395 126 122
f 595 122 126
f 595 126 597
f 1413 1331 396
f 143 398 1331
f 1413 143 1331
f 141 143 1413
f 141 351 143
f 141 349 351
f 349 596 351
f 351 596 598
f 40 126 397
f 597 126 40
f 399 597 40
f 599 597 399
f 1332 1417 400
f 1417 1332 398
f 143 1417 398
f 145 1417 143
f 143 353 145
f 143 351 353
f 351 598 353
f 353 598 600
f 399 250 599
f 599 250 252
f 601 252 250
f 601 250 401
f 1002 1065 402
f 1154 1225 1065
f 1154 1065 1002
f 1225 1154 400
f 1417 1225 400
f 1419 1225 1417
f 1417 147 1419
f 1417 145 147
f 145 355 147
f 145 353 355
f 353 600 355
f 355 600 602
f 401 462 601
f 601 462 464
f 660 464 462
f 660 662 464
f 846 662 660
f 846 848 662
f 1065 1004 402
f 1004 846 402
f 1004 848 846
f 1004 1065 1156
f 1156 1065 1225
f 1156 1225 603
f 1225 1421 603
f 1225 1419 1421
f 1419 149 1421
f 1419 147 149
f 147 357 149
f 147 355 357
f 355 602 357
f 357 602 604
f 1421 1334 603
f 1334 1421 54
f 54 1421 149
f 54 149 270
f 270 149 357
f 357 604 270
f 328 265 403
f 530 477 328
f 328 477 265
f 722 675 530
f 530 675 477
f 722 404 675
f 1390 1329 405
f 605 51 1390
f 51 1329 1390
f 51 49 1329
f 267 328 403
f 49 267 403
f 51 267 49
f 328 267 479
f 328 479 530
f 530 479 677
f 530 677 722
f 861 404 722
f 677 861 722
f 863 861 677
f 1050 1017 606
f 1017 863 606
f 1017 861 863
f 1050 406 1017
f 407 1394 405
f 405 1394 1390
f 605 1390 1394
f 605 1394 607
f 1019 1050 606
f 1169 406 1050
f 1019 1169 1050
f 1171 1169 1019
f 1171 1347 1169
f 1349 1347 1171
f 1349 67 1347
f 69 67 1349
f 69 283 67
f 285 283 69
f 408 283 547
f 283 495 547
f 283 285 495
f 495 608 547
f 409 1398 407
f 407 1398 1394
f 607 1394 1398
f 607 1398 609
f 547 493 408
f 493 547 608
f 691 493 608
f 689 493 691
f 691 610 689
f 689 610 410
f 411 1402 409
f 409 1402 1398
f 609 1398 1402
f 609 1402 611
f 410 612 412
f 610 612 410
f 1330 1402 411
f 1402 1330 611
f 1330 52 611
f 1330 50 52
f 50 413 342
f 268 50 342
f 52 50 268
f 268 342 540
f 268 540 480
f 480 540 732
f 480 732 678
f 613 678 732
f 412 614 414
f 612 614 412
f 266 342 413
f 478 540 266
f 266 540 342
f 676 732 478
f 478 732 540
f 732 676 613
f 676 864 613
f 676 862 864
f 615 864 862
f 615 862 415
f 414 616 416
f 614 616 414
f 415 1018 615
f 615 1018 1020
f 617 1020 1018
f 617 1018 417
f 416 618 418
f 616 618 416
f 417 1170 617
f 617 1170 1172
f 1348 1172 1170
f 1348 1350 1172
f 619 1350 1348
f 619 1348 419
f 692 620 420
f 692 420 690
f 690 418 692
f 692 418 618
f 419 68 619
f 619 68 70
f 284 70 68
f 284 286 70
f 494 286 284
f 494 496 286
f 494 420 496
f 496 420 620
f 502 431 561
f 749 633 502
f 633 431 502
f 633 631 431
f 633 817 631
f 819 817 633
f 562 817 1023
f 817 979 1023
f 817 819 979
f 1023 979 1189
f 1189 979 1141
f 1141 750 1189
f 751 223 563
f 563 223 221
f 433 502 561
f 221 433 561
f 223 433 221
f 749 502 433
f 1023 977 562
f 1189 1139 977
f 1189 977 1023
f 1139 1189 750
f 1313 1139 750
f 1311 1139 1313
f 564 1311 101
f 1311 27 101
f 1311 1313 27
f 27 752 101
f 753 13 565
f 565 13 11
f 563 11 13
f 563 13 751
f 101 25 564
f 752 237 319
f 752 319 566
f 101 752 566
f 25 101 566
f 237 754 319
f 755 565 567
f 755 753 565
f 319 235 566
f 319 754 235
f 754 568 235
f 754 756 568
f 757 1301 569
f 569 1301 1299
f 567 1299 1301
f 567 1301 755
f 568 758 570
f 756 758 568
f 759 569 571
f 759 757 569
f 570 760 572
f 758 760 570
f 761 571 573
f 761 759 571
f 760 449 531
f 574 760 531
f 572 760 574
f 449 762 531
f 1178 1129 575
f 573 1129 1178
f 763 573 1178
f 761 573 763
f 531 447 574
f 531 762 447
f 762 576 447
f 762 764 576
f 1178 575 1131
f 575 765 1131
f 575 577 765
f 763 1178 1131
f 645 576 764
f 645 764 647
f 578 645 897
f 645 833 897
f 645 647 833
f 833 766 897
f 767 577 579
f 767 765 577
f 897 831 578
f 831 897 766
f 991 831 766
f 989 831 991
f 991 768 989
f 989 768 580
f 769 579 581
f 769 767 579
f 580 770 582
f 768 770 580
f 771 581 583
f 771 769 581
f 582 772 584
f 770 772 582
f 773 583 585
f 773 771 583
f 584 774 586
f 772 774 584
f 585 1130 773
f 773 1130 1132
f 775 1132 1130
f 775 1130 587
f 224 776 318
f 224 318 588
f 432 224 588
f 434 224 432
f 632 434 432
f 632 634 434
f 818 634 632
f 818 820 634
f 978 820 818
f 978 980 820
f 1140 980 978
f 1140 1142 980
f 1312 1142 1140
f 1312 1314 1142
f 26 1314 1312
f 26 28 1314
f 236 28 26
f 236 238 28
f 448 545 777
f 238 448 777
f 236 448 238
f 589 545 448
f 832 911 590
f 992 778 911
f 832 992 911
f 990 992 832
f 990 586 992
f 992 586 774
f 587 1300 775
f 775 1300 1302
f 12 1302 1300
f 12 14 1302
f 776 14 318
f 14 222 318
f 14 12 222
f 588 318 222
f 545 450 777
f 589 646 545
f 646 450 545
f 646 648 450
f 911 834 590
f 834 646 590
f 834 648 646
f 911 778 834
f 779 465 591
f 591 465 463
f 465 661 463
f 663 661 465
f 663 847 661
f 849 847 663
f 849 780 847
f 847 780 592
f 781 253 593
f 593 253 251
f 591 251 253
f 591 253 779
f 1003 592 780
f 1003 780 1005
f 594 1003 1217
f 1003 1157 1217
f 1003 1005 1157
f 1217 1157 1411
f 1411 1157 1335
f 1411 1335 139
f 139 1335 55
f 139 55 347
f 347 55 271
f 271 782 347
f 783 593 595
f 783 781 593
f 1217 1155 594
f 1411 1333 1155
f 1411 1155 1217
f 139 53 1333
f 139 1333 1411
f 347 269 53
f 347 53 139
f 782 481 549
f 782 549 596
f 347 782 596
f 269 347 596
f 481 784 549
f 785 595 597
f 785 783 595
f 551 598 596
f 551 596 549
f 549 784 551
f 551 784 786
f 787 597 599
f 787 785 597
f 553 600 598
f 553 598 551
f 551 786 553
f 553 786 788
f 599 252 787
f 787 252 254
f 789 254 252
f 789 252 601
f 555 602 600
f 555 600 553
f 553 788 555
f 555 788 790
f 601 464 789
f 789 464 466
f 662 466 464
f 662 664 466
f 848 664 662
f 848 850 664
f 1004 1069 791
f 850 1004 791
f 848 1004 850
f 1156 1227 1069
f 1156 1069 1004
f 603 1227 1156
f 557 604 602
f 557 602 555
f 555 790 557
f 557 790 792
f 1069 1006 791
f 1006 1069 1158
f 1158 1069 1227
f 603 1334 1227
f 1334 1158 1227
f 1334 1336 1158
f 54 151 793
f 1336 54 793
f 1334 54 1336
f 272 794 151
f 54 272 151
f 270 272 54
f 557 482 604
f 482 270 604
f 482 272 270
f 557 792 482
f 151 56 793
f 151 794 56
f 116 51 605
f 332 267 116
f 116 267 51
f 532 479 332
f 332 479 267
f 724 677 532
f 532 677 479
f 894 863 724
f 724 863 677
f 894 606 863
f 607 120 605
f 605 120 116
f 334 116 120
f 332 116 334
f 534 332 334
f 532 332 534
f 726 532 534
f 724 532 726
f 896 724 726
f 894 724 896
f 606 894 1019
f 894 1052 1019
f 894 896 1052
f 1218 1171 1052
f 1052 1171 1019
f 1412 1349 1218
f 1218 1349 1171
f 795 71 1412
f 71 1349 1412
f 71 69 1349
f 71 285 69
f 287 285 71
f 287 495 285
f 497 495 287
f 497 796 495
f 495 796 608
f 609 124 607
f 607 124 120
f 336 120 124
f 334 120 336
f 536 334 336
f 534 334 536
f 728 534 536
f 726 534 728
f 900 726 728
f 896 726 900
f 1054 896 900
f 1052 896 1054
f 1054 797 1173
f 1218 1054 1173
f 1052 1054 1218
f 1218 1173 1351
f 1218 1351 1412
f 795 1412 1351
f 691 608 796
f 691 796 693
f 693 798 691
f 691 798 610
f 611 128 609
f 609 128 124
f 338 124 128
f 336 124 338
f 538 336 338
f 536 336 538
f 730 536 538
f 728 536 730
f 902 728 730
f 900 728 902
f 902 799 1021
f 1054 902 1021
f 900 902 1054
f 797 1054 1021
f 610 800 612
f 798 800 610
f 52 128 611
f 268 338 52
f 52 338 128
f 480 538 268
f 268 538 338
f 678 730 480
f 480 730 538
f 613 904 678
f 904 730 678
f 904 902 730
f 1062 1022 799
f 902 1062 799
f 904 1062 902
f 801 1022 1062
f 612 802 614
f 800 802 612
f 864 904 613
f 615 1066 864
f 1066 904 864
f 1066 1062 904
f 801 1062 1066
f 801 1066 803
f 614 804 616
f 802 804 614
f 1020 1066 615
f 1174 803 1228
f 1228 803 617
f 803 1066 617
f 1066 1020 617
f 805 1174 1228
f 616 806 618
f 804 806 616
f 1172 1228 617
f 1228 1172 805
f 1172 1352 805
f 1172 1350 1352
f 1350 619 152
f 72 1350 152
f 1352 1350 72
f 807 72 152
f 498 808 560
f 498 560 620
f 692 498 620
f 694 498 692
f 692 618 694
f 694 618 806
f 70 152 619
f 152 70 807
f 70 288 807
f 70 286 288
f 808 288 560
f 288 496 560
f 288 286 496
f 620 560 496
f 913 635 749
f 749 635 633
f 635 819 633
f 821 819 635
f 821 979 819
f 981 979 821
f 981 1141 979
f 1143 1141 981
f 750 1141 1375
f 1141 1315 1375
f 1141 1143 1315
f 1315 914 1375
f 294 223 751
f 915 435 294
f 435 223 294
f 435 433 223
f 749 433 435
f 749 435 913
f 1375 1313 750
f 1313 1375 914
f 29 1313 914
f 27 1313 29
f 29 916 27
f 27 916 752
f 917 15 753
f 753 15 13
f 225 294 751
f 13 225 751
f 15 225 13
f 915 294 225
f 237 752 916
f 237 916 239
f 239 918 237
f 237 918 754
f 919 753 755
f 919 917 753
f 754 920 756
f 918 920 754
f 921 1303 757
f 757 1303 1301
f 755 1301 1303
f 755 1303 919
f 756 922 758
f 920 922 756
f 923 757 759
f 923 921 757
f 758 924 760
f 922 924 758
f 925 759 761
f 925 923 759
f 449 760 924
f 449 924 451
f 451 926 449
f 449 926 762
f 927 761 763
f 927 925 761
f 762 928 764
f 926 928 762
f 1180 1131 765
f 763 1131 1180
f 929 763 1180
f 927 763 929
f 647 764 928
f 647 928 649
f 898 833 930
f 833 649 930
f 833 647 649
f 898 766 833
f 767 1182 765
f 765 1182 1180
f 929 1180 1182
f 929 1182 931
f 835 898 930
f 991 766 898
f 835 991 898
f 993 991 835
f 993 932 991
f 991 932 768
f 1182 767 1133
f 767 933 1133
f 767 769 933
f 931 1182 1133
f 768 934 770
f 932 934 768
f 935 769 771
f 935 933 769
f 770 936 772
f 934 936 770
f 1134 935 1188
f 935 773 1188
f 935 771 773
f 937 1134 1188
f 772 938 774
f 936 938 772
f 1132 1188 773
f 1304 937 1374
f 1374 937 775
f 937 1188 775
f 1188 1132 775
f 1304 1374 100
f 1304 100 16
f 16 100 776
f 224 16 776
f 226 16 224
f 434 226 224
f 434 436 226
f 634 436 434
f 634 636 436
f 820 636 634
f 820 822 636
f 980 822 820
f 980 982 822
f 1142 982 980
f 1142 1144 982
f 1314 1144 1142
f 1314 1316 1144
f 28 1316 1314
f 28 30 1316
f 238 30 28
f 238 240 30
f 238 777 546
f 452 238 546
f 240 238 452
f 939 452 546
f 836 940 912
f 836 912 778
f 992 836 778
f 994 836 992
f 992 774 994
f 994 774 938
f 1302 1374 775
f 14 100 1302
f 1302 100 1374
f 776 100 14
f 450 546 777
f 546 450 939
f 450 650 939
f 450 648 650
f 940 650 912
f 650 834 912
f 650 648 834
f 778 912 834
f 941 665 721
f 665 942 721
f 943 255 331
f 331 255 779
f 255 465 779
f 255 467 465
f 467 941 721
f 663 467 721
f 465 467 663
f 663 721 942
f 851 663 942
f 849 663 851
f 780 849 1049
f 849 1007 1049
f 849 851 1007
f 1049 1007 1215
f 1215 1007 1159
f 1215 1159 1409
f 1409 1159 1337
f 1337 944 1409
f 253 781 331
f 781 943 331
f 781 945 943
f 331 779 253
f 1049 1005 780
f 1215 1157 1005
f 1215 1005 1049
f 1409 1335 1157
f 1409 1157 1215
f 1335 1409 944
f 57 1335 944
f 55 1335 57
f 57 271 55
f 273 271 57
f 273 946 271
f 271 946 782
f 947 781 783
f 947 945 781
f 481 782 946
f 481 946 483
f 483 948 481
f 481 948 784
f 949 783 785
f 949 947 783
f 948 679 741
f 786 948 741
f 784 948 786
f 679 950 741
f 951 785 787
f 951 949 785
f 743 788 786
f 743 786 741
f 741 950 743
f 743 950 952
f 787 254 951
f 951 254 256
f 254 789 542
f 468 254 542
f 256 254 468
f 953 468 542
f 745 790 788
f 745 788 743
f 743 952 745
f 745 952 954
f 466 542 789
f 542 466 953
f 466 666 953
f 466 664 666
f 850 666 664
f 850 852 666
f 955 852 850
f 955 850 791
f 747 792 790
f 747 790 745
f 745 954 747
f 747 954 956
f 791 1006 955
f 955 1006 1008
f 1158 1008 1006
f 1158 1160 1008
f 1336 1423 957
f 1160 1336 957
f 1158 1336 1160
f 793 1423 1336
f 272 359 794
f 484 958 359
f 272 484 359
f 482 484 272
f 747 680 792
f 680 482 792
f 680 484 482
f 747 956 680
f 1423 1338 957
f 793 56 1423
f 56 1338 1423
f 56 58 1338
f 359 274 794
f 274 56 794
f 274 58 56
f 359 958 274
f 140 71 795
f 348 287 140
f 140 287 71
f 548 497 348
f 348 497 287
f 548 796 497
f 1220 1173 797
f 959 1353 1220
f 1353 1173 1220
f 1353 1351 1173
f 73 140 795
f 1351 73 795
f 1353 73 1351
f 140 73 289
f 140 289 348
f 348 289 499
f 348 499 548
f 960 740 693
f 960 693 796
f 499 960 796
f 548 499 796
f 740 798 693
f 1058 1021 799
f 1175 1220 797
f 1175 797 1021
f 961 1175 1021
f 1058 961 1021
f 959 1220 1175
f 962 742 740
f 962 740 960
f 798 740 800
f 800 740 742
f 1022 1058 799
f 961 1058 1022
f 801 961 1022
f 963 961 801
f 964 744 742
f 964 742 962
f 800 742 802
f 802 742 744
f 1176 963 1226
f 963 803 1226
f 963 801 803
f 965 1176 1226
f 966 746 744
f 966 744 964
f 802 744 804
f 804 744 746
f 1174 1226 803
f 1354 965 1422
f 1422 965 805
f 965 1226 805
f 1226 1174 805
f 967 1354 1422
f 968 748 746
f 968 746 966
f 804 746 806
f 806 746 748
f 1352 1422 805
f 1422 1352 967
f 1352 74 967
f 1352 72 74
f 72 807 360
f 290 72 360
f 74 72 290
f 290 360 808
f 498 290 808
f 500 290 498
f 968 500 748
f 500 694 748
f 500 498 694
f 806 748 694
f 288 360 807
f 808 360 288
f 1071 211 293
f 293 211 503
f 503 211 421
f 503 421 697
f 697 421 621
f 621 1072 697
f 1073 1 77
f 1071 293 1
f 293 77 1
f 293 295 77
f 293 505 295
f 293 503 505
f 503 699 505
f 503 697 699
f 697 1072 699
f 699 1072 1074
f 77 2 1073
f 2 77 1075
f 77 297 1075
f 77 295 297
f 295 507 297
f 295 505 507
f 505 701 507
f 505 699 701
f 699 1074 701
f 701 1074 1076
f 299 1077 297
f 297 1077 1075
f 297 509 299
f 297 507 509
f 507 703 509
f 507 701 703
f 701 1076 703
f 703 1076 1078
f 301 1079 299
f 299 1079 1077
f 299 511 301
f 299 509 511
f 509 705 511
f 509 703 705
f 703 1078 705
f 705 1078 1080
f 301 212 1079
f 212 301 422
f 422 301 511
f 422 511 622
f 622 511 705
f 705 1080 622
f 1081 637 913
f 913 637 635
f 637 821 635
f 823 821 637
f 823 981 821
f 983 981 823
f 983 1143 981
f 1145 1143 983
f 1145 1315 1143
f 1317 1315 1145
f 1317 1082 1315
f 1315 1082 914
f 1083 437 915
f 915 437 435
f 913 435 437
f 913 437 1081
f 29 914 1082
f 29 1082 31
f 31 1084 29
f 29 1084 916
f 78 15 917
f 1085 227 78
f 227 15 78
f 227 225 15
f 915 225 227
f 915 227 1083
f 1086 320 239
f 916 1086 239
f 1084 1086 916
f 320 918 239
f 78 917 17
f 917 1087 17
f 917 919 1087
f 1085 78 17
f 241 320 1086
f 241 1088 320
f 1088 918 320
f 1088 920 918
f 1089 1305 921
f 921 1305 1303
f 919 1303 1305
f 919 1305 1087
f 920 1090 922
f 1088 1090 920
f 1091 921 923
f 1091 1089 921
f 922 1092 924
f 1090 1092 922
f 1093 923 925
f 1093 1091 923
f 451 924 1092
f 451 1092 453
f 453 1094 451
f 451 1094 926
f 1095 925 927
f 1095 1093 925
f 926 1096 928
f 1094 1096 926
f 1097 927 929
f 1097 1095 927
f 649 928 1096
f 649 1096 651
f 651 1098 649
f 649 1098 930
f 1099 929 931
f 1099 1097 929
f 835 930 1098
f 835 1098 837
f 1056 993 1100
f 993 837 1100
f 993 835 837
f 1056 932 993
f 1184 1133 933
f 931 1133 1184
f 1101 931 1184
f 1099 931 1101
f 995 1056 1100
f 995 1102 1056
f 1102 932 1056
f 1102 934 932
f 935 1186 933
f 933 1186 1184
f 1370 1306 1101
f 1184 1370 1101
f 1186 1370 1184
f 1103 1306 1370
f 996 1104 1064
f 1064 936 996
f 936 1102 996
f 936 934 1102
f 1134 1186 935
f 937 1372 1134
f 1372 1186 1134
f 1372 1370 1186
f 98 18 1103
f 1370 98 1103
f 1372 98 1370
f 18 98 316
f 18 316 228
f 228 316 526
f 228 526 438
f 438 526 720
f 438 720 638
f 638 720 890
f 638 890 824
f 824 890 1048
f 824 1048 984
f 984 1048 1214
f 984 1214 1146
f 1146 1214 1408
f 1146 1408 1318
f 1318 1408 136
f 1318 136 32
f 1105 32 136
f 1106 1068 1064
f 1106 1064 1104
f 936 1064 938
f 938 1064 1068
f 1304 1372 937
f 16 98 1304
f 1304 98 1372
f 226 316 16
f 16 316 98
f 436 526 226
f 226 526 316
f 636 720 436
f 436 720 526
f 822 890 636
f 636 890 720
f 982 1048 822
f 822 1048 890
f 1144 1214 982
f 982 1214 1048
f 1316 1408 1144
f 1144 1408 1214
f 30 136 1316
f 1316 136 1408
f 136 30 1105
f 30 242 1105
f 30 240 242
f 452 242 240
f 452 454 242
f 452 939 738
f 652 452 738
f 454 452 652
f 652 738 940
f 836 652 940
f 838 652 836
f 1106 838 1068
f 838 994 1068
f 838 836 994
f 938 1068 994
f 650 738 939
f 940 738 650
f 1107 469 529
f 529 469 941
f 469 665 941
f 469 667 665
f 942 665 891
f 665 853 891
f 665 667 853
f 853 1108 891
f 1109 41 115
f 115 41 943
f 41 255 943
f 41 257 255
f 257 1107 529
f 467 257 529
f 255 257 467
f 529 941 467
f 891 851 942
f 851 891 1108
f 1009 851 1108
f 1007 851 1009
f 1009 1159 1007
f 1161 1159 1009
f 1161 1337 1159
f 1339 1337 1161
f 944 1337 137
f 1337 59 137
f 1337 1339 59
f 59 1110 137
f 119 1111 115
f 115 1111 1109
f 115 943 945
f 115 945 119
f 137 57 944
f 57 137 1110
f 275 57 1110
f 273 57 275
f 275 1112 273
f 273 1112 946
f 123 1113 119
f 119 1113 1111
f 119 945 947
f 119 947 123
f 483 946 1112
f 483 1112 485
f 485 1114 483
f 483 1114 948
f 127 1115 123
f 123 1115 1113
f 123 947 949
f 123 949 127
f 679 948 1114
f 679 1114 681
f 681 1116 679
f 679 1116 950
f 127 42 1115
f 949 951 127
f 951 258 127
f 258 42 127
f 951 340 258
f 1117 258 340
f 950 1118 952
f 1116 1118 950
f 256 340 951
f 340 256 1117
f 256 470 1117
f 256 468 470
f 468 953 734
f 668 468 734
f 470 468 668
f 1119 668 734
f 952 1120 954
f 1118 1120 952
f 666 734 953
f 734 666 1119
f 666 854 1119
f 666 852 854
f 852 955 1070
f 1010 852 1070
f 854 852 1010
f 1121 1010 1070
f 954 1122 956
f 1120 1122 954
f 1008 1070 955
f 1070 1008 1121
f 1008 1162 1121
f 1008 1160 1162
f 1123 1162 1160
f 1123 1160 957
f 484 559 958
f 682 1124 559
f 484 682 559
f 680 682 484
f 680 956 682
f 682 956 1122
f 957 1338 1123
f 1123 1338 1340
f 58 1340 1338
f 58 60 1340
f 274 60 58
f 274 276 60
f 559 486 958
f 486 274 958
f 486 276 274
f 559 1124 486
f 1414 1353 959
f 142 73 1414
f 1414 73 1353
f 350 289 142
f 142 289 73
f 550 499 350
f 350 499 289
f 550 960 499
f 1222 1175 961
f 1175 1222 959
f 1222 1414 959
f 1222 1416 1414
f 144 1414 1416
f 142 1414 144
f 352 142 144
f 350 142 352
f 552 350 352
f 550 350 552
f 960 550 962
f 962 550 552
f 963 1224 961
f 961 1224 1222
f 1418 1222 1224
f 1416 1222 1418
f 146 1416 1418
f 144 1416 146
f 354 144 146
f 352 144 354
f 554 352 354
f 552 352 554
f 962 552 964
f 964 552 554
f 1176 1224 963
f 965 1420 1176
f 1420 1224 1176
f 1420 1418 1224
f 148 1418 1420
f 146 1418 148
f 356 146 148
f 354 146 356
f 556 354 356
f 554 354 556
f 964 554 966
f 966 554 556
f 1354 1420 965
f 967 150 1354
f 150 1420 1354
f 150 148 1420
f 358 148 150
f 356 148 358
f 558 356 358
f 556 356 558
f 966 556 968
f 968 556 558
f 74 150 967
f 290 358 74
f 74 358 150
f 500 558 290
f 290 558 358
f 968 558 500
f 1229 213 291
f 291 213 501
f 501 213 423
f 423 1230 501
f 1231 3 75
f 1229 291 3
f 3 291 75
f 291 211 75
f 211 1071 75
f 501 421 211
f 501 211 291
f 421 501 1230
f 623 421 1230
f 621 421 623
f 1072 621 867
f 621 809 867
f 621 623 809
f 809 1232 867
f 1 1073 75
f 1073 1231 75
f 1073 1233 1231
f 75 1071 1
f 869 1074 1072
f 869 1072 867
f 867 1232 869
f 869 1232 1234
f 79 1235 2
f 1235 1073 2
f 1235 1233 1073
f 1075 79 2
f 871 1076 1074
f 871 1074 869
f 969 1029 1234
f 1029 869 1234
f 1029 871 869
f 969 1236 1029
f 81 1237 79
f 79 1237 1235
f 79 1075 1077
f 79 1077 81
f 873 1078 1076
f 873 1076 871
f 871 1031 873
f 871 1029 1031
f 1029 1236 1031
f 1031 1236 1238
f 83 1239 81
f 81 1239 1237
f 81 1077 1079
f 81 1079 83
f 875 1080 1078
f 875 1078 873
f 1240 875 970
f 875 1031 970
f 875 873 1031
f 1031 1238 970
f 85 1241 83
f 83 1241 1239
f 83 1079 212
f 303 83 212
f 85 83 303
f 422 513 303
f 422 303 212
f 622 707 513
f 622 513 422
f 707 622 1080
f 875 707 1080
f 877 707 875
f 875 1240 877
f 877 1240 1242
f 85 4 1241
f 4 85 1243
f 85 305 1243
f 85 303 305
f 303 515 305
f 303 513 515
f 513 709 515
f 513 707 709
f 707 879 709
f 707 877 879
f 877 1242 879
f 879 1242 1244
f 307 1245 305
f 305 1245 1243
f 305 517 307
f 305 515 517
f 515 711 517
f 515 709 711
f 1246 711 810
f 711 879 810
f 711 709 879
f 879 1244 810
f 309 1247 307
f 307 1247 1245
f 307 519 309
f 307 517 519
f 517 713 519
f 517 711 713
f 711 1246 713
f 713 1246 1248
f 311 1249 309
f 309 1249 1247
f 309 521 311
f 309 519 521
f 519 715 521
f 519 713 715
f 713 1248 715
f 715 1248 1250
f 311 214 1249
f 214 311 424
f 424 311 521
f 424 521 624
f 624 521 715
f 715 1250 624
f 696 637 1081
f 1251 825 696
f 825 637 696
f 825 823 637
f 825 983 823
f 985 983 825
f 985 1145 983
f 1147 1145 985
f 1376 1317 1252
f 1317 1147 1252
f 1317 1145 1147
f 1376 1082 1317
f 1253 439 1083
f 1083 439 437
f 639 696 1081
f 437 639 1081
f 439 639 437
f 1251 696 639
f 1319 1376 1252
f 31 1082 1376
f 1319 31 1376
f 33 31 1319
f 33 1254 31
f 31 1254 1084
f 296 227 1085
f 1083 227 296
f 1255 1083 296
f 1253 1083 1255
f 1084 1256 1086
f 1254 1256 1084
f 80 17 1087
f 229 296 1085
f 229 1085 17
f 1257 229 17
f 80 1257 17
f 1255 296 229
f 1258 322 241
f 1086 1258 241
f 1256 1258 1086
f 322 1088 241
f 1356 1305 1089
f 19 80 1087
f 19 1087 1305
f 1259 19 1305
f 1356 1259 1305
f 1257 80 19
f 243 322 1258
f 243 1260 322
f 1260 1088 322
f 1260 1090 1088
f 1091 1358 1089
f 1089 1358 1356
f 1259 1356 1358
f 1259 1358 1261
f 1090 1262 1092
f 1260 1262 1090
f 1093 1360 1091
f 1091 1360 1358
f 1261 1358 1360
f 1261 1360 1263
f 453 1092 1262
f 453 1262 455
f 455 1264 453
f 453 1264 1094
f 1095 1362 1093
f 1093 1362 1360
f 1263 1360 1362
f 1263 1362 1265
f 1264 653 725
f 1096 1264 725
f 1094 1264 1096
f 653 1266 725
f 1097 1364 1095
f 1095 1364 1362
f 1265 1362 1364
f 1265 1364 1267
f 725 651 1096
f 1266 839 899
f 1266 899 1098
f 725 1266 1098
f 651 725 1098
f 839 1268 899
f 1099 1366 1097
f 1097 1366 1364
f 1267 1364 1366
f 1267 1366 1269
f 899 837 1098
f 899 1268 837
f 1268 1100 837
f 1268 1270 1100
f 1101 1368 1099
f 1099 1368 1366
f 1269 1366 1368
f 1269 1368 1271
f 1272 1060 995
f 1100 1272 995
f 1270 1272 1100
f 1060 1102 995
f 1306 1368 1101
f 20 1271 96
f 96 1271 1103
f 1271 1368 1103
f 1368 1306 1103
f 1273 20 96
f 1104 996 1060
f 1272 1104 1060
f 1274 1104 1272
f 1102 1060 996
f 18 96 1103
f 96 18 1273
f 18 230 1273
f 18 228 230
f 438 230 228
f 438 440 230
f 638 440 438
f 638 640 440
f 824 640 638
f 824 826 640
f 984 826 824
f 984 986 826
f 1146 986 984
f 1146 1148 986
f 1318 1148 1146
f 1318 1320 1148
f 32 1320 1318
f 32 34 1320
f 32 1105 346
f 244 32 346
f 34 32 244
f 244 346 544
f 244 544 456
f 456 544 736
f 456 736 654
f 654 736 910
f 654 910 840
f 910 1106 840
f 1106 1274 840
f 1106 1104 1274
f 242 346 1105
f 454 544 242
f 242 544 346
f 652 736 454
f 454 736 544
f 838 910 652
f 652 910 736
f 1106 910 838
f 1275 259 327
f 327 259 1107
f 259 469 1107
f 259 471 469
f 471 667 469
f 669 667 471
f 669 853 667
f 855 853 669
f 855 1276 853
f 853 1276 1108
f 1277 43 1109
f 1109 43 41
f 43 1275 327
f 257 43 327
f 41 43 257
f 327 1107 257
f 1009 1108 1276
f 1009 1276 1011
f 1011 1161 1009
f 1163 1161 1011
f 1163 1339 1161
f 1341 1339 1163
f 1341 59 1339
f 61 59 1341
f 61 1278 59
f 59 1278 1110
f 1279 1109 1111
f 1279 1277 1109
f 275 1110 1278
f 275 1278 277
f 277 1280 275
f 275 1280 1112
f 1281 1111 1113
f 1281 1279 1111
f 485 1112 1280
f 485 1280 487
f 487 1282 485
f 485 1282 1114
f 1283 1113 1115
f 1283 1281 1113
f 681 1114 1282
f 681 1282 683
f 683 1284 681
f 681 1284 1116
f 1115 42 1283
f 1283 42 44
f 258 341 1285
f 44 258 1285
f 42 258 44
f 1117 341 258
f 1116 1286 1118
f 1284 1286 1116
f 341 260 1285
f 1117 470 341
f 470 260 341
f 470 472 260
f 668 472 470
f 668 670 472
f 1287 670 668
f 1287 668 1119
f 1118 1288 1120
f 1286 1288 1118
f 1119 854 1287
f 1287 854 856
f 1010 856 854
f 1010 1012 856
f 1289 1012 1010
f 1289 1010 1121
f 1120 1290 1122
f 1288 1290 1120
f 1121 1162 1289
f 1289 1162 1164
f 1162 1123 1424
f 1342 1162 1424
f 1164 1162 1342
f 1291 1342 1424
f 684 1292 1124
f 684 1124 682
f 682 1122 684
f 684 1122 1290
f 1340 1424 1123
f 1424 1340 1291
f 1340 62 1291
f 1340 60 62
f 276 62 60
f 276 278 62
f 486 278 276
f 486 488 278
f 486 1124 488
f 488 1124 1292
f 1425 215 1229
f 1229 215 213
f 215 423 213
f 425 423 215
f 1230 423 695
f 423 625 695
f 423 425 625
f 625 1426 695
f 1427 5 1231
f 1231 5 3
f 1229 3 5
f 1229 5 1425
f 695 623 1230
f 623 695 1426
f 811 623 1426
f 809 623 811
f 1232 809 1025
f 809 971 1025
f 809 811 971
f 971 1428 1025
f 1429 1231 1233
f 1429 1427 1231
f 1027 1234 1232
f 1027 1232 1025
f 1025 1428 1027
f 1027 1428 1430
f 1431 1233 1235
f 1431 1429 1233
f 1027 969 1234
f 1027 1430 969
f 1430 1236 969
f 1430 1432 1236
f 1433 1235 1237
f 1433 1431 1235
f 1236 1434 1238
f 1432 1434 1236
f 1435 1237 1239
f 1435 1433 1237
f 970 1033 1240
f 970 1238 1033
f 1238 1436 1033
f 1238 1434 1436
f 1437 1239 1241
f 1437 1435 1239
f 1035 1242 1240
f 1035 1240 1033
f 1033 1436 1035
f 1035 1436 1438
f 1439 1293 1361
f 87 1361 4
f 1361 1437 4
f 1437 1241 4
f 1361 1293 1437
f 1243 87 4
f 1037 1244 1242
f 1037 1242 1035
f 1035 1438 1037
f 1037 1438 1440
f 1363 1441 1361
f 1361 1441 1439
f 1361 89 1363
f 1361 87 89
f 87 1243 1245
f 87 1245 89
f 810 881 1246
f 881 810 1244
f 1037 881 1244
f 1039 881 1037
f 1037 1440 1039
f 1039 1440 1442
f 1365 1443 1363
f 1363 1443 1441
f 1363 91 1365
f 1363 89 91
f 89 1245 1247
f 89 1247 91
f 883 1248 1246
f 883 1246 881
f 1444 883 972
f 883 1039 972
f 883 881 1039
f 1039 1442 972
f 1367 1445 1365
f 1365 1445 1443
f 1365 93 1367
f 1365 91 93
f 91 1247 1249
f 91 1249 93
f 885 1250 1248
f 885 1248 883
f 883 1444 885
f 885 1444 1446
f 1367 1294 1445
f 1294 1367 1447
f 1367 95 1447
f 1367 93 95
f 93 1249 214
f 313 93 214
f 95 93 313
f 424 523 313
f 424 313 214
f 624 717 523
f 624 523 424
f 885 812 1250
f 1250 812 624
f 812 1448 624
f 1448 717 624
f 885 1446 812
f 97 1449 95
f 95 1449 1447
f 95 315 97
f 95 313 315
f 313 525 315
f 313 523 525
f 1450 525 626
f 525 717 626
f 525 523 717
f 717 1448 626
f 97 6 1449
f 6 97 216
f 216 97 315
f 216 315 426
f 426 315 525
f 525 1450 426
f 866 825 1251
f 1024 985 866
f 866 985 825
f 1190 1147 1024
f 1024 1147 985
f 1190 1252 1147
f 504 439 1253
f 1451 641 504
f 641 439 504
f 641 639 439
f 827 866 1251
f 639 827 1251
f 641 827 639
f 866 827 987
f 866 987 1024
f 1024 987 1149
f 1024 1149 1190
f 1319 1252 1190
f 1149 1319 1190
f 1321 1319 1149
f 102 33 1452
f 33 1321 1452
f 33 1319 1321
f 102 1254 33
f 1255 506 1253
f 1253 506 504
f 1451 504 506
f 1451 506 1453
f 1454 104 102
f 1454 102 1452
f 1254 102 1256
f 1256 102 104
f 298 229 1257
f 229 298 1255
f 298 506 1255
f 298 508 506
f 1453 506 508
f 1453 508 1455
f 1456 106 104
f 1456 104 1454
f 1256 104 1258
f 1258 104 106
f 82 19 1259
f 19 82 1257
f 82 298 1257
f 82 300 298
f 300 1457 441
f 508 300 441
f 298 300 508
f 1455 508 441
f 35 106 1456
f 1458 324 243
f 1458 243 1258
f 35 1458 1258
f 106 35 1258
f 324 1260 243
f 1261 84 1259
f 1259 84 82
f 302 82 84
f 300 82 302
f 512 442 1457
f 300 512 1457
f 302 512 300
f 1459 442 512
f 245 324 1458
f 245 1460 324
f 1460 1260 324
f 1460 1262 1260
f 1263 86 1261
f 1261 86 84
f 304 84 86
f 302 84 304
f 514 302 304
f 512 302 514
f 1459 512 514
f 1459 514 1461
f 455 1262 1460
f 455 1460 457
f 457 1462 455
f 455 1462 1264
f 1265 88 1263
f 1263 88 86
f 88 1463 231
f 304 88 231
f 86 88 304
f 304 231 443
f 304 443 514
f 1461 514 443
f 653 1264 1462
f 653 1462 655
f 1266 653 895
f 653 841 895
f 653 655 841
f 841 1464 895
f 88 1265 21
f 1265 1465 21
f 1265 1267 1465
f 1463 88 21
f 895 839 1266
f 895 1464 839
f 1464 1268 839
f 1464 1466 1268
f 1467 1267 1269
f 1467 1465 1267
f 1466 997 1057
f 1270 1466 1057
f 1268 1466 1270
f 997 1468 1057
f 22 1467 94
f 1467 1271 94
f 1467 1269 1271
f 1469 22 94
f 1270 1057 998
f 1470 1270 998
f 1272 1270 1470
f 1057 1468 998
f 20 94 1271
f 232 1469 314
f 314 1469 1273
f 1469 94 1273
f 94 20 1273
f 232 314 524
f 232 524 444
f 444 524 718
f 444 718 642
f 642 718 888
f 642 888 828
f 828 888 1046
f 828 1046 988
f 988 1046 1212
f 988 1212 1150
f 1150 1212 1406
f 1150 1406 1322
f 1471 1322 1406
f 842 1472 906
f 906 1274 842
f 1274 1470 842
f 1274 1272 1470
f 230 314 1273
f 440 524 230
f 230 524 314
f 640 718 440
f 440 718 524
f 826 888 640
f 640 888 718
f 986 1046 826
f 826 1046 888
f 1148 1212 986
f 986 1212 1046
f 1320 1406 1148
f 1148 1406 1212
f 1406 1320 1471
f 1320 36 1471
f 1320 34 36
f 244 36 34
f 244 246 36
f 456 246 244
f 456 458 246
f 654 458 456
f 654 656 458
f 1472 656 906
f 656 840 906
f 656 654 840
f 1274 906 840
f 1473 261 1275
f 1275 261 259
f 261 471 259
f 473 471 261
f 473 669 471
f 671 669 473
f 671 855 669
f 857 855 671
f 857 1474 855
f 855 1474 1276
f 1475 1325 1389
f 1389 1325 1277
f 1325 43 1277
f 1325 45 43
f 1275 43 45
f 1275 45 1473
f 1011 1276 1474
f 1011 1474 1013
f 1013 1163 1011
f 1165 1163 1013
f 1165 1341 1163
f 1343 1341 1165
f 1343 61 1341
f 63 61 1343
f 63 1476 61
f 61 1476 1278
f 1393 1477 1389
f 1389 1477 1475
f 1389 1277 1279
f 1389 1279 1393
f 277 1278 1476
f 277 1476 279
f 279 1478 277
f 277 1478 1280
f 1397 1479 1393
f 1393 1479 1477
f 1393 1279 1281
f 1393 1281 1397
f 487 1280 1478
f 487 1478 489
f 489 1480 487
f 487 1480 1282
f 1401 1481 1397
f 1397 1481 1479
f 1397 1281 1283
f 1397 1283 1401
f 683 1282 1480
f 683 1480 685
f 685 1482 683
f 683 1482 1284
f 1401 1326 1481
f 1283 44 1401
f 44 1326 1401
f 44 46 1326
f 1483 46 44
f 1483 44 1285
f 1284 1484 1286
f 1482 1484 1284
f 1285 260 1483
f 1483 260 262
f 472 262 260
f 472 474 262
f 670 474 472
f 670 672 474
f 670 1287 908
f 858 670 908
f 672 670 858
f 1485 858 908
f 1286 1486 1288
f 1484 1486 1286
f 856 908 1287
f 908 856 1485
f 856 1014 1485
f 856 1012 1014
f 1487 1014 1012
f 1487 1012 1289
f 1288 1488 1290
f 1486 1488 1288
f 1289 1164 1487
f 1487 1164 1166
f 1342 1166 1164
f 1342 1344 1166
f 1489 1344 1342
f 1489 1342 1291
f 686 1490 1292
f 686 1292 684
f 684 1290 686
f 686 1290 1488
f 1291 62 1489
f 1489 62 64
f 278 64 62
f 278 280 64
f 488 280 278
f 488 490 280
f 488 1292 490
f 490 1292 1490
f 153 217 1425
f 1425 217 215
f 217 425 215
f 427 425 217
f 427 625 425
f 627 625 427
f 1426 625 865
f 625 813 865
f 625 627 813
f 813 154 865
f 155 7 1427
f 1427 7 5
f 1425 5 7
f 1425 7 153
f 865 811 1426
f 811 865 154
f 973 811 154
f 971 811 973
f 973 156 971
f 971 156 1428
f 157 1427 1429
f 157 155 1427
f 156 1135 1193
f 1430 156 1193
f 1428 156 1430
f 1135 158 1193
f 159 1429 1431
f 159 157 1429
f 1195 1432 1430
f 1195 1430 1193
f 1193 158 1195
f 1195 158 160
f 161 1431 1433
f 161 159 1431
f 1197 1434 1432
f 1197 1432 1195
f 1307 1383 160
f 1383 1195 160
f 1383 1197 1195
f 1307 162 1383
f 163 1295 1357
f 1435 1357 1295
f 161 1435 1295
f 1433 1435 161
f 1199 1436 1434
f 1199 1434 1197
f 1197 1385 1199
f 1197 1383 1385
f 1383 162 1385
f 1385 162 164
f 1359 165 1357
f 1357 165 163
f 1357 1435 1437
f 1357 1437 1359
f 1201 1438 1436
f 1201 1436 1199
f 166 1201 1308
f 1201 1385 1308
f 1201 1199 1385
f 1385 164 1308
f 167 1125 1177
f 165 1359 1125
f 1125 1359 1177
f 1359 1293 1177
f 1293 1439 1177
f 1359 1437 1293
f 1203 1440 1438
f 1203 1438 1201
f 1201 166 1203
f 1203 166 168
f 1179 169 1177
f 1177 169 167
f 1177 1439 1441
f 1177 1441 1179
f 1205 1442 1440
f 1205 1440 1203
f 1203 168 1205
f 1205 168 170
f 1181 171 1179
f 1179 171 169
f 1179 1441 1443
f 1179 1443 1181
f 972 1041 1444
f 1041 972 1442
f 1205 1041 1442
f 1207 1041 1205
f 1205 170 1207
f 1207 170 172
f 1183 173 1181
f 1181 173 171
f 1181 1443 1445
f 1181 1445 1183
f 1043 1446 1444
f 1043 1444 1041
f 174 1043 1136
f 1043 1207 1136
f 1043 1041 1207
f 1207 172 1136
f 1183 1126 173
f 1369 175 1294
f 1294 175 1445
f 175 1126 1445
f 1126 1183 1445
f 1447 1369 1294
f 812 887 1448
f 1043 974 1446
f 1446 974 812
f 974 176 812
f 176 887 812
f 1043 174 974
f 1371 177 1369
f 1369 177 175
f 1369 1447 1449
f 1369 1449 1371
f 626 719 1450
f 887 814 1448
f 1448 814 626
f 814 178 626
f 178 719 626
f 887 176 814
f 1371 1296 177
f 1449 6 1371
f 6 1296 1371
f 6 8 1296
f 216 317 179
f 8 216 179
f 6 216 8
f 428 180 317
f 216 428 317
f 426 428 216
f 719 628 1450
f 628 426 1450
f 628 428 426
f 719 178 628
f 317 218 179
f 317 180 218
f 698 641 1451
f 868 827 698
f 698 827 641
f 1026 987 868
f 868 987 827
f 1192 1149 1026
f 1026 1149 987
f 1378 1321 1192
f 1192 1321 1149
f 1378 1452 1321
f 1453 700 1451
f 1451 700 698
f 870 698 700
f 868 698 870
f 1028 868 870
f 1026 868 1028
f 1194 1026 1028
f 1192 1026 1194
f 1380 1192 1194
f 1378 1192 1380
f 1452 1378 1454
f 1454 1378 1380
f 1455 702 1453
f 1453 702 700
f 872 700 702
f 870 700 872
f 1030 870 872
f 1028 870 1030
f 1196 1028 1030
f 1194 1028 1196
f 1382 1194 1196
f 1380 1194 1382
f 1454 1380 1456
f 1456 1380 1382
f 510 441 1457
f 441 510 1455
f 510 702 1455
f 510 704 702
f 874 702 704
f 872 702 874
f 1032 872 874
f 1030 872 1032
f 1198 1030 1032
f 1196 1030 1198
f 1384 1196 1198
f 1382 1196 1384
f 1456 1382 35
f 1382 108 35
f 1382 1384 108
f 108 1458 35
f 442 510 1457
f 1459 706 442
f 706 510 442
f 706 704 510
f 876 704 706
f 874 704 876
f 1034 874 876
f 1032 874 1034
f 1200 1032 1034
f 1198 1032 1200
f 1386 1198 1200
f 1384 1198 1386
f 110 1384 1386
f 108 1384 110
f 1458 108 245
f 108 326 245
f 108 110 326
f 326 1460 245
f 1461 708 1459
f 1459 708 706
f 878 706 708
f 876 706 878
f 1036 876 878
f 1034 876 1036
f 1202 1034 1036
f 1200 1034 1202
f 1388 1200 1202
f 1386 1200 1388
f 1388 181 37
f 110 1388 37
f 1386 1388 110
f 110 37 247
f 110 247 326
f 457 1460 326
f 247 457 326
f 459 457 247
f 1462 457 723
f 457 657 723
f 457 459 657
f 657 182 723
f 306 231 1463
f 516 443 306
f 306 443 231
f 443 516 1461
f 516 708 1461
f 516 710 708
f 880 708 710
f 878 708 880
f 1038 878 880
f 1036 878 1038
f 1204 1036 1038
f 1202 1036 1204
f 1204 183 1323
f 1388 1204 1323
f 1202 1204 1388
f 181 1388 1323
f 723 655 1462
f 655 723 182
f 843 655 182
f 841 655 843
f 1464 841 1051
f 841 999 1051
f 841 843 999
f 999 184 1051
f 90 21 1465
f 21 90 1463
f 90 306 1463
f 90 308 306
f 518 306 308
f 516 306 518
f 712 516 518
f 710 516 712
f 882 710 712
f 880 710 882
f 1040 880 882
f 1038 880 1040
f 1040 185 1151
f 1204 1040 1151
f 1038 1040 1204
f 183 1204 1151
f 1053 1466 1464
f 1053 1464 1051
f 1051 184 1053
f 1053 184 186
f 1467 92 1465
f 1465 92 90
f 310 90 92
f 308 90 310
f 520 308 310
f 518 308 520
f 714 518 520
f 712 518 714
f 884 712 714
f 882 712 884
f 1042 882 884
f 1040 882 1042
f 185 1040 1042
f 185 1042 187
f 1053 997 1466
f 1053 186 997
f 186 1468 997
f 186 188 1468
f 22 92 1467
f 1469 312 22
f 312 92 22
f 312 310 92
f 522 310 312
f 520 310 522
f 716 520 522
f 714 520 716
f 886 714 716
f 884 714 886
f 1044 884 886
f 1042 884 1044
f 1210 1152 187
f 1042 1210 187
f 1044 1210 1042
f 189 1152 1210
f 998 1061 1470
f 998 1468 1061
f 1468 190 1061
f 1468 188 190
f 232 312 1469
f 444 522 232
f 232 522 312
f 642 716 444
f 444 716 522
f 828 886 642
f 642 886 716
f 988 1044 828
f 828 1044 886
f 1150 1210 988
f 988 1210 1044
f 1210 1150 189
f 1150 1324 189
f 1150 1322 1324
f 1322 1471 134
f 38 1322 134
f 1324 1322 38
f 38 134 344
f 38 344 248
f 191 248 344
f 844 192 1472
f 844 1472 842
f 1061 1000 1470
f 1000 842 1470
f 1000 844 842
f 1061 190 1000
f 36 134 1471
f 246 344 36
f 36 344 134
f 344 246 191
f 246 460 191
f 246 458 460
f 656 460 458
f 656 658 460
f 656 1472 658
f 658 1472 192
f 193 47 111
f 111 47 1473
f 47 261 1473
f 47 263 261
f 263 473 261
f 475 473 263
f 475 671 473
f 673 671 475
f 673 857 671
f 859 857 673
f 859 194 857
f 857 194 1474
f 195 1327 1475
f 1475 1327 1325
f 1327 193 111
f 45 1327 111
f 1325 1327 45
f 111 1473 45
f 1013 1474 194
f 1013 194 1015
f 1015 1165 1013
f 1167 1165 1015
f 1167 1343 1165
f 1345 1343 1167
f 138 63 196
f 63 1345 196
f 63 1343 1345
f 138 1476 63
f 197 1475 1477
f 197 195 1475
f 65 138 196
f 279 1476 138
f 65 279 138
f 281 279 65
f 281 198 279
f 279 198 1478
f 199 1477 1479
f 199 197 1477
f 489 1478 198
f 489 198 491
f 491 200 489
f 489 200 1480
f 201 1479 1481
f 201 199 1479
f 685 1480 200
f 685 200 687
f 687 202 685
f 685 202 1482
f 1481 1326 201
f 201 1326 1328
f 46 131 203
f 1328 46 203
f 1326 46 1328
f 1483 131 46
f 1482 204 1484
f 202 204 1482
f 131 48 203
f 1483 262 131
f 262 48 131
f 262 264 48
f 474 264 262
f 474 476 264
f 672 476 474
f 672 674 476
f 858 674 672
f 858 860 674
f 205 860 858
f 205 858 1485
f 1484 206 1486
f 204 206 1484
f 1485 1014 205
f 205 1014 1016
f 207 1016 1014
f 207 1014 1487
f 1486 208 1488
f 206 208 1486
f 1487 1166 207
f 207 1166 1168
f 1344 1168 1166
f 1344 1346 1168
f 209 1346 1344
f 209 1344 1489
f 688 210 1490
f 688 1490 686
f 686 1488 688
f 688 1488 208
f 1489 64 209
f 209 64 66
f 280 66 64
f 280 282 66
f 490 282 280
f 490 492 282
f 490 1490 492
f 492 1490 210
