# Converted from NanoShaper .vert/.face
v -4.710000 -14.189000 -6.615000
v -2.922000 -14.189000 -6.615000
v -5.167000 -14.189000 -6.115000
v -2.441000 -14.189000 -6.115000
v -5.354000 -14.189000 -5.615000
v -2.298000 -14.189000 -5.615000
v -5.445000 -14.189000 -5.115000
v -2.344000 -14.189000 -5.115000
v -5.422000 -14.189000 -4.615000
v -2.331000 -14.189000 -4.615000
v -5.318000 -14.189000 -4.115000
v -2.336000 -14.189000 -4.115000
v -5.134000 -14.189000 -3.615000
v -2.448000 -14.189000 -3.615000
v -5.072000 -14.189000 -3.115000
v -2.580000 -14.189000 -3.115000
v -5.154000 -14.189000 -2.615000
v -2.687000 -14.189000 -2.615000
v -5.262000 -14.189000 -2.115000
v -2.800000 -14.189000 -2.115000
v -5.164000 -14.189000 -1.615000
v -2.936000 -14.189000 -1.615000
v -4.806000 -14.189000 -1.115000
v -3.332000 -14.189000 -1.115000
v -5.049000 -14.189000 -6.309000
v -5.049000 -14.189000 -1.405000
v -4.549000 -14.189000 -6.696000
v -4.549000 -14.189000 -0.923000
v -4.049000 -14.189000 -6.786000
v -4.049000 -14.189000 -0.836000
v -3.549000 -14.189000 -6.769000
v -3.549000 -14.189000 -0.988000
v -3.049000 -14.189000 -6.677000
v -3.049000 -14.189000 -1.409000
v -2.549000 -14.189000 -6.285000
v -2.549000 -14.189000 -3.267000
v -5.049000 -14.253000 -3.115000
v -5.049000 -13.261000 -3.115000
v -4.549000 -15.383000 -3.115000
v -4.549000 -12.667000 -3.115000
v -4.049000 -16.224000 -3.115000
v -4.049000 -12.532000 -3.115000
v -3.549000 -16.394000 -3.115000
v -3.549000 -12.668000 -3.115000
v -3.049000 -16.424000 -3.115000
v -3.049000 -13.223000 -3.115000
v -2.549000 -16.305000 -3.115000
v -2.549000 -14.248000 -3.115000
v -5.549000 -12.735000 0.885000
v -5.549000 -12.146000 0.885000
v -5.049000 -13.335000 0.885000
v -5.049000 -11.545000 0.885000
v -4.549000 -13.448000 0.885000
v -4.549000 -11.432000 0.885000
v -4.049000 -13.295000 0.885000
v -4.049000 -11.585000 0.885000
v -4.688000 -13.689000 -6.115000
v -3.115000 -13.689000 -6.115000
v -5.132000 -13.689000 -5.615000
v -2.841000 -13.689000 -5.615000
v -5.244000 -13.689000 -5.115000
v -2.844000 -13.689000 -5.115000
v -5.246000 -13.689000 -4.615000
v -2.821000 -13.689000 -4.615000
v -5.140000 -13.689000 -4.115000
v -2.857000 -13.689000 -4.115000
v -5.068000 -13.689000 -3.615000
v -2.862000 -13.689000 -3.615000
v -5.140000 -13.689000 -3.115000
v -2.804000 -13.689000 -3.115000
v -5.333000 -13.689000 -2.615000
v -2.717000 -13.689000 -2.615000
v -5.435000 -13.689000 -2.115000
v -2.665000 -13.689000 -2.115000
v -5.378000 -13.689000 -1.615000
v -2.749000 -13.689000 -1.615000
v -5.283000 -13.689000 -1.115000
v -2.988000 -13.689000 -1.115000
v -5.179000 -13.689000 -0.615000
v -3.461000 -13.689000 -0.615000
v -5.215000 -13.689000 -0.115000
v -3.883000 -13.689000 -0.115000
v -5.005000 -13.689000 0.385000
v -4.162000 -13.689000 0.385000
v -5.049000 -13.689000 -5.763000
v -5.049000 -13.689000 0.342000
v -4.549000 -13.689000 -6.196000
v -4.549000 -13.689000 0.545000
v -4.049000 -13.689000 -6.311000
v -4.049000 -13.689000 0.250000
v -3.549000 -13.689000 -6.265000
v -3.549000 -13.689000 -0.537000
v -3.049000 -13.689000 -6.060000
v -3.049000 -13.689000 -1.023000
v -4.549000 -15.759000 -6.615000
v -4.549000 -14.079000 -6.615000
v -4.049000 -16.187000 -6.615000
v -4.049000 -13.964000 -6.615000
v -3.549000 -16.358000 -6.615000
v -3.549000 -13.983000 -6.615000
v -3.049000 -16.389000 -6.615000
v -3.049000 -14.104000 -6.615000
v -2.549000 -16.275000 -6.615000
v -2.549000 -14.602000 -6.615000
v -5.049000 -14.349000 -2.615000
v -5.049000 -12.621000 -2.615000
v -4.549000 -14.950000 -2.615000
v -4.549000 -12.038000 -2.615000
v -4.049000 -15.340000 -2.615000
v -4.049000 -11.898000 -2.615000
v -3.549000 -15.435000 -2.615000
v -3.549000 -12.020000 -2.615000
v -3.049000 -15.349000 -2.615000
v -3.049000 -12.589000 -2.615000
v -4.413000 -13.189000 -5.615000
v -3.727000 -13.189000 -5.615000
v -4.677000 -13.189000 -5.115000
v -3.452000 -13.189000 -5.115000
v -4.749000 -13.189000 -4.615000
v -3.325000 -13.189000 -4.615000
v -4.659000 -13.189000 -4.115000
v -3.420000 -13.189000 -4.115000
v -4.757000 -13.189000 -3.615000
v -3.330000 -13.189000 -3.615000
v -5.018000 -13.189000 -3.115000
v -3.071000 -13.189000 -3.115000
v -5.313000 -13.189000 -2.615000
v -2.786000 -13.189000 -2.615000
v -5.426000 -13.189000 -2.115000
v -2.676000 -13.189000 -2.115000
v -5.514000 -13.189000 -1.615000
v -2.659000 -13.189000 -1.615000
v -5.641000 -13.189000 -1.115000
v -2.771000 -13.189000 -1.115000
v -5.729000 -13.189000 -0.615000
v -3.105000 -13.189000 -0.615000
v -5.766000 -13.189000 -0.115000
v -3.361000 -13.189000 -0.115000
v -5.669000 -13.189000 0.385000
v -3.499000 -13.189000 0.385000
v -5.259000 -13.189000 0.885000
v -3.908000 -13.189000 0.885000
v -5.549000 -13.189000 -1.459000
v -5.549000 -13.189000 0.598000
v -5.049000 -13.189000 -3.066000
v -5.049000 -13.189000 1.002000
v -4.549000 -13.189000 -5.487000
v -4.549000 -13.189000 1.096000
v -4.049000 -13.189000 -5.721000
v -4.049000 -13.189000 0.969000
v -3.549000 -13.189000 -5.426000
v -3.549000 -13.189000 0.486000
v -3.049000 -13.189000 -3.083000
v -3.049000 -13.189000 -0.691000
v -5.049000 -15.798000 -6.115000
v -5.049000 -14.036000 -6.115000
v -4.549000 -16.206000 -6.115000
v -4.549000 -13.598000 -6.115000
v -4.049000 -16.598000 -6.115000
v -4.049000 -13.473000 -6.115000
v -3.549000 -16.716000 -6.115000
v -3.549000 -13.578000 -6.115000
v -3.049000 -16.740000 -6.115000
v -3.049000 -13.713000 -6.115000
v -2.549000 -16.658000 -6.115000
v -2.549000 -14.056000 -6.115000
v -2.049000 -16.322000 -6.115000
v -2.049000 -14.570000 -6.115000
v -5.049000 -14.470000 -2.115000
v -5.049000 -12.048000 -2.115000
v -4.549000 -14.818000 -2.115000
v -4.549000 -11.697000 -2.115000
v -4.049000 -14.979000 -2.115000
v -4.049000 -11.598000 -2.115000
v -3.549000 -14.932000 -2.115000
v -3.549000 -11.689000 -2.115000
v -3.049000 -14.622000 -2.115000
v -3.049000 -12.036000 -2.115000
v -3.773000 -16.689000 -6.115000
v -2.642000 -16.689000 -6.115000
v -4.113000 -16.689000 -5.615000
v -2.359000 -16.689000 -5.615000
v -4.160000 -16.689000 -5.115000
v -2.367000 -16.689000 -5.115000
v -4.104000 -16.689000 -4.615000
v -2.450000 -16.689000 -4.615000
v -4.132000 -16.689000 -4.115000
v -2.366000 -16.689000 -4.115000
v -3.854000 -16.689000 -3.615000
v -2.606000 -16.689000 -3.615000
v -4.586000 -12.689000 -3.115000
v -3.513000 -12.689000 -3.115000
v -5.089000 -12.689000 -2.615000
v -2.997000 -12.689000 -2.615000
v -5.336000 -12.689000 -2.115000
v -2.729000 -12.689000 -2.115000
v -5.586000 -12.689000 -1.615000
v -2.652000 -12.689000 -1.615000
v -5.864000 -12.689000 -1.115000
v -2.764000 -12.689000 -1.115000
v -5.943000 -12.689000 -0.615000
v -3.040000 -12.689000 -0.615000
v -5.961000 -12.689000 -0.115000
v -3.192000 -12.689000 -0.115000
v -5.878000 -12.689000 0.385000
v -3.289000 -12.689000 0.385000
v -5.561000 -12.689000 0.885000
v -3.606000 -12.689000 0.885000
v -4.049000 -16.689000 -5.845000
v -4.049000 -16.689000 -3.823000
v -3.549000 -16.689000 -6.174000
v -3.549000 -16.689000 -3.510000
v -3.049000 -16.689000 -6.223000
v -3.049000 -16.689000 -3.471000
v -2.549000 -16.689000 -6.038000
v -2.549000 -16.689000 -3.668000
v -5.549000 -12.689000 -1.676000
v -5.549000 -12.689000 0.898000
v -5.049000 -12.689000 -2.675000
v -5.049000 -12.689000 1.211000
v -4.549000 -12.689000 -3.137000
v -4.549000 -12.689000 1.291000
v -4.049000 -12.689000 -3.291000
v -4.049000 -12.689000 1.184000
v -3.549000 -12.689000 -3.137000
v -3.549000 -12.689000 0.823000
v -3.049000 -12.689000 -2.687000
v -3.049000 -12.689000 -0.596000
v -5.049000 -15.942000 -5.615000
v -5.049000 -13.585000 -5.615000
v -4.549000 -16.364000 -5.615000
v -4.549000 -13.235000 -5.615000
v -4.049000 -16.718000 -5.615000
v -4.049000 -13.144000 -5.615000
v -3.549000 -16.826000 -5.615000
v -3.549000 -13.252000 -5.615000
v -3.049000 -16.845000 -5.615000
v -3.049000 -13.565000 -5.615000
v -2.549000 -16.770000 -5.615000
v -2.549000 -13.902000 -5.615000
v -2.049000 -16.471000 -5.615000
v -2.049000 -14.421000 -5.615000
v -5.549000 -13.004000 -1.615000
v -5.549000 -12.107000 -1.615000
v -5.049000 -14.346000 -1.615000
v -5.049000 -11.500000 -1.615000
v -4.549000 -14.707000 -1.615000
v -4.549000 -11.378000 -1.615000
v -4.049000 -14.805000 -1.615000
v -4.049000 -11.432000 -1.615000
v -3.549000 -14.706000 -1.615000
v -3.549000 -11.603000 -1.615000
v -3.049000 -14.343000 -1.615000
v -3.049000 -11.927000 -1.615000
v -4.045000 -16.189000 -6.615000
v -2.419000 -16.189000 -6.615000
v -4.566000 -16.189000 -6.115000
v -1.942000 -16.189000 -6.115000
v -4.729000 -16.189000 -5.615000
v -1.816000 -16.189000 -5.615000
v -4.725000 -16.189000 -5.115000
v -1.828000 -16.189000 -5.115000
v -4.707000 -16.189000 -4.615000
v -1.871000 -16.189000 -4.615000
v -4.685000 -16.189000 -4.115000
v -1.827000 -16.189000 -4.115000
v -4.564000 -16.189000 -3.615000
v -1.939000 -16.189000 -3.615000
v -4.096000 -16.189000 -3.115000
v -2.381000 -16.189000 -3.115000
v -4.747000 -12.189000 -2.615000
v -3.317000 -12.189000 -2.615000
v -5.151000 -12.189000 -2.115000
v -2.929000 -12.189000 -2.115000
v -5.570000 -12.189000 -1.615000
v -2.840000 -12.189000 -1.615000
v -5.879000 -12.189000 -1.115000
v -2.971000 -12.189000 -1.115000
v -5.957000 -12.189000 -0.615000
v -3.160000 -12.189000 -0.615000
v -5.961000 -12.189000 -0.115000
v -3.207000 -12.189000 -0.115000
v -5.878000 -12.189000 0.385000
v -3.289000 -12.189000 0.385000
v -5.561000 -12.189000 0.885000
v -3.607000 -12.189000 0.885000
v -4.549000 -16.189000 -6.142000
v -4.549000 -16.189000 -3.586000
v -4.049000 -16.189000 -6.613000
v -4.049000 -16.189000 -3.089000
v -3.549000 -16.189000 -6.744000
v -3.549000 -16.189000 -2.957000
v -3.049000 -16.189000 -6.767000
v -3.049000 -16.189000 -2.932000
v -2.549000 -16.189000 -6.678000
v -2.549000 -16.189000 -3.027000
v -2.049000 -16.189000 -6.288000
v -2.049000 -16.189000 -3.429000
v -5.549000 -12.189000 -1.636000
v -5.549000 -12.189000 0.897000
v -5.049000 -12.189000 -2.285000
v -5.049000 -12.189000 1.211000
v -4.549000 -12.189000 -2.736000
v -4.549000 -12.189000 1.291000
v -4.049000 -12.189000 -2.853000
v -4.049000 -12.189000 1.183000
v -3.549000 -12.189000 -2.751000
v -3.549000 -12.189000 0.823000
v -3.049000 -12.189000 -2.336000
v -3.049000 -12.189000 -0.948000
v -5.049000 -15.826000 -5.115000
v -5.049000 -13.450000 -5.115000
v -4.549000 -16.404000 -5.115000
v -4.549000 -13.135000 -5.115000
v -4.049000 -16.739000 -5.115000
v -4.049000 -13.049000 -5.115000
v -3.549000 -16.835000 -5.115000
v -3.549000 -13.147000 -5.115000
v -3.049000 -16.849000 -5.115000
v -3.049000 -13.488000 -5.115000
v -2.549000 -16.769000 -5.115000
v -2.549000 -13.984000 -5.115000
v -2.049000 -16.461000 -5.115000
v -2.049000 -14.439000 -5.115000
v -5.549000 -13.332000 -1.115000
v -5.549000 -11.507000 -1.115000
v -5.049000 -13.955000 -1.115000
v -5.049000 -11.166000 -1.115000
v -4.549000 -14.361000 -1.115000
v -4.549000 -11.078000 -1.115000
v -4.049000 -14.492000 -1.115000
v -4.049000 -11.187000 -1.115000
v -3.549000 -14.358000 -1.115000
v -3.549000 -11.535000 -1.115000
v -3.049000 -13.788000 -1.115000
v -3.049000 -12.081000 -1.115000
v -4.658000 -15.689000 -6.615000
v -2.089000 -15.689000 -6.615000
v -5.138000 -15.689000 -6.115000
v -1.731000 -15.689000 -6.115000
v -5.262000 -15.689000 -5.615000
v -1.624000 -15.689000 -5.615000
v -5.160000 -15.689000 -5.115000
v -1.638000 -15.689000 -5.115000
v -4.959000 -15.689000 -4.615000
v -1.674000 -15.689000 -4.615000
v -4.885000 -15.689000 -4.115000
v -1.636000 -15.689000 -4.115000
v -4.778000 -15.689000 -3.615000
v -1.732000 -15.689000 -3.615000
v -4.434000 -15.689000 -3.115000
v -2.070000 -15.689000 -3.115000
v -4.528000 -11.689000 -2.115000
v -3.548000 -11.689000 -2.115000
v -5.303000 -11.689000 -1.615000
v -3.369000 -11.689000 -1.615000
v -5.688000 -11.689000 -1.115000
v -3.386000 -11.689000 -1.115000
v -5.779000 -11.689000 -0.615000
v -3.368000 -11.689000 -0.615000
v -5.765000 -11.689000 -0.115000
v -3.403000 -11.689000 -0.115000
v -5.668000 -11.689000 0.385000
v -3.500000 -11.689000 0.385000
v -5.257000 -11.689000 0.885000
v -3.910000 -11.689000 0.885000
v -5.049000 -15.689000 -6.265000
v -5.049000 -15.689000 -4.876000
v -4.549000 -15.689000 -6.668000
v -4.549000 -15.689000 -3.240000
v -4.049000 -15.689000 -6.842000
v -4.049000 -15.689000 -2.842000
v -3.549000 -15.689000 -6.945000
v -3.549000 -15.689000 -2.739000
v -3.049000 -15.689000 -6.959000
v -3.049000 -15.689000 -2.732000
v -2.549000 -15.689000 -6.884000
v -2.549000 -15.689000 -2.822000
v -2.049000 -15.689000 -6.578000
v -2.049000 -15.689000 -3.136000
v -5.549000 -11.689000 -1.364000
v -5.549000 -11.689000 0.596000
v -5.049000 -11.689000 -1.773000
v -5.049000 -11.689000 1.001000
v -4.549000 -11.689000 -2.099000
v -4.549000 -11.689000 1.095000
v -4.049000 -11.689000 -2.324000
v -4.049000 -11.689000 0.968000
v -3.549000 -11.689000 -2.115000
v -3.549000 -11.689000 0.484000
v -5.049000 -15.471000 -4.615000
v -5.049000 -13.427000 -4.615000
v -4.549000 -16.384000 -4.615000
v -4.549000 -13.092000 -4.615000
v -4.049000 -16.712000 -4.615000
v -4.049000 -12.995000 -4.615000
v -3.549000 -16.805000 -4.615000
v -3.549000 -13.083000 -4.615000
v -3.049000 -16.812000 -4.615000
v -3.049000 -13.404000 -4.615000
v -2.549000 -16.730000 -4.615000
v -2.549000 -13.976000 -4.615000
v -2.049000 -16.410000 -4.615000
v -2.049000 -14.426000 -4.615000
v -5.549000 -13.404000 -0.615000
v -5.549000 -11.396000 -0.615000
v -5.049000 -13.783000 -0.615000
v -5.049000 -11.084000 -0.615000
v -4.549000 -14.001000 -0.615000
v -4.549000 -11.001000 -0.615000
v -4.049000 -14.005000 -0.615000
v -4.049000 -11.103000 -0.615000
v -3.549000 -13.752000 -0.615000
v -3.549000 -11.447000 -0.615000
v -3.049000 -12.955000 -0.615000
v -3.049000 -12.602000 -0.615000
v -5.009000 -15.189000 -6.615000
v -2.093000 -15.189000 -6.615000
v -5.363000 -15.189000 -6.115000
v -1.733000 -15.189000 -6.115000
v -5.466000 -15.189000 -5.615000
v -1.626000 -15.189000 -5.615000
v -5.381000 -15.189000 -5.115000
v -1.642000 -15.189000 -5.115000
v -5.214000 -15.189000 -4.615000
v -1.671000 -15.189000 -4.615000
v -5.079000 -15.189000 -4.115000
v -1.640000 -15.189000 -4.115000
v -4.851000 -15.189000 -3.615000
v -1.736000 -15.189000 -3.615000
v -4.615000 -15.189000 -3.115000
v -2.076000 -15.189000 -3.115000
v -4.281000 -15.189000 -2.615000
v -2.881000 -15.189000 -2.615000
v -5.105000 -11.189000 -1.115000
v -4.043000 -11.189000 -1.115000
v -5.276000 -11.189000 -0.615000
v -3.872000 -11.189000 -0.615000
v -5.212000 -11.189000 -0.115000
v -3.956000 -11.189000 -0.115000
v -5.001000 -11.189000 0.385000
v -4.167000 -11.189000 0.385000
v -5.049000 -15.189000 -6.579000
v -5.049000 -15.189000 -4.039000
v -4.549000 -15.189000 -6.888000
v -4.549000 -15.189000 -2.979000
v -4.049000 -15.189000 -6.965000
v -4.049000 -15.189000 -2.460000
v -3.549000 -15.189000 -6.961000
v -3.549000 -15.189000 -2.439000
v -3.049000 -15.189000 -6.958000
v -3.049000 -15.189000 -2.546000
v -2.549000 -15.189000 -6.881000
v -2.549000 -15.189000 -2.789000
v -2.049000 -15.189000 -6.574000
v -2.049000 -15.189000 -3.141000
v -5.049000 -11.189000 -1.172000
v -5.049000 -11.189000 0.338000
v -4.549000 -11.189000 -1.357000
v -4.549000 -11.189000 0.542000
v -4.049000 -11.189000 -1.122000
v -4.049000 -11.189000 0.244000
v -5.049000 -15.250000 -4.115000
v -5.049000 -13.549000 -4.115000
v -4.549000 -16.370000 -4.115000
v -4.549000 -13.130000 -4.115000
v -4.049000 -16.728000 -4.115000
v -4.049000 -13.015000 -4.115000
v -3.549000 -16.838000 -4.115000
v -3.549000 -13.122000 -4.115000
v -3.049000 -16.849000 -4.115000
v -3.049000 -13.516000 -4.115000
v -2.549000 -16.769000 -4.115000
v -2.549000 -13.951000 -4.115000
v -2.049000 -16.462000 -4.115000
v -2.049000 -14.437000 -4.115000
v -5.549000 -13.454000 -0.115000
v -5.549000 -11.426000 -0.115000
v -5.049000 -13.761000 -0.115000
v -5.049000 -11.120000 -0.115000
v -4.549000 -13.854000 -0.115000
v -4.549000 -11.041000 -0.115000
v -4.049000 -13.768000 -0.115000
v -4.049000 -11.147000 -0.115000
v -3.549000 -13.437000 -0.115000
v -3.549000 -11.498000 -0.115000
v -5.021000 -14.689000 -6.615000
v -2.437000 -14.689000 -6.615000
v -5.371000 -14.689000 -6.115000
v -1.952000 -14.689000 -6.115000
v -5.474000 -14.689000 -5.615000
v -1.824000 -14.689000 -5.615000
v -5.452000 -14.689000 -5.115000
v -1.842000 -14.689000 -5.115000
v -5.406000 -14.689000 -4.615000
v -1.848000 -14.689000 -4.615000
v -5.300000 -14.689000 -4.115000
v -1.839000 -14.689000 -4.115000
v -5.010000 -14.689000 -3.615000
v -1.953000 -14.689000 -3.615000
v -4.824000 -14.689000 -3.115000
v -2.314000 -14.689000 -3.115000
v -4.781000 -14.689000 -2.615000
v -2.713000 -14.689000 -2.615000
v -4.772000 -14.689000 -2.115000
v -3.112000 -14.689000 -2.115000
v -4.589000 -14.689000 -1.615000
v -3.510000 -14.689000 -1.615000
v -5.049000 -14.689000 -6.589000
v -5.049000 -14.689000 -3.679000
v -4.549000 -14.689000 -6.896000
v -4.549000 -14.689000 -1.573000
v -4.049000 -14.689000 -6.972000
v -4.049000 -14.689000 -1.372000
v -3.549000 -14.689000 -6.955000
v -3.549000 -14.689000 -1.575000
v -3.049000 -14.689000 -6.877000
v -3.049000 -14.689000 -2.195000
v -2.549000 -14.689000 -6.671000
v -2.549000 -14.689000 -2.821000
v -2.049000 -14.689000 -6.274000
v -2.049000 -14.689000 -3.450000
v -5.049000 -14.598000 -3.615000
v -5.049000 -13.636000 -3.615000
v -4.549000 -16.210000 -3.615000
v -4.549000 -13.031000 -3.615000
v -4.049000 -16.618000 -3.615000
v -4.049000 -12.893000 -3.615000
v -3.549000 -16.737000 -3.615000
v -3.549000 -13.026000 -3.615000
v -3.049000 -16.755000 -3.615000
v -3.049000 -13.516000 -3.615000
v -2.549000 -16.669000 -3.615000
v -2.549000 -14.060000 -3.615000
v -2.049000 -16.327000 -3.615000
v -2.049000 -14.571000 -3.615000
v -5.549000 -13.339000 0.385000
v -5.549000 -11.542000 0.385000
v -5.049000 -13.674000 0.385000
v -5.049000 -11.206000 0.385000
v -4.549000 -13.758000 0.385000
v -4.549000 -11.122000 0.385000
v -4.049000 -13.645000 0.385000
v -4.049000 -11.235000 0.385000
v -3.549000 -13.257000 0.385000
v -3.549000 -11.624000 0.385000
f 95 337 369
f 369 337 445
f 445 337 417
f 445 417 511
f 511 417 487
f 511 487 27
f 27 487 1
f 1 96 27
f 371 97 369
f 369 97 95
f 369 447 371
f 369 445 447
f 445 513 447
f 445 511 513
f 511 29 513
f 511 27 29
f 27 96 29
f 29 96 98
f 99 255 291
f 97 371 255
f 371 291 255
f 371 373 291
f 371 449 373
f 371 447 449
f 447 515 449
f 447 513 515
f 513 31 515
f 513 29 31
f 29 98 31
f 31 98 100
f 293 101 291
f 291 101 99
f 291 375 293
f 291 373 375
f 373 451 375
f 373 449 451
f 449 517 451
f 449 515 517
f 515 33 517
f 515 31 33
f 31 100 33
f 33 100 102
f 295 103 293
f 293 103 101
f 293 377 295
f 293 375 377
f 375 453 377
f 375 451 453
f 451 519 453
f 451 517 519
f 104 519 2
f 519 33 2
f 519 517 33
f 33 102 2
f 295 256 103
f 256 295 338
f 338 295 377
f 338 377 418
f 418 377 453
f 418 453 488
f 488 453 519
f 519 104 488
f 105 17 37
f 37 17 15
f 17 69 15
f 71 69 17
f 38 69 145
f 69 127 145
f 69 71 127
f 145 127 219
f 219 127 193
f 193 106 219
f 446 431 39
f 107 503 446
f 503 431 446
f 503 501 431
f 37 501 503
f 37 503 105
f 145 125 38
f 219 191 125
f 219 125 145
f 106 271 303
f 106 303 40
f 219 106 40
f 191 219 40
f 271 108 303
f 290 269 41
f 372 351 290
f 290 351 269
f 433 446 39
f 433 39 351
f 109 433 351
f 372 109 351
f 107 446 433
f 305 42 40
f 305 40 303
f 303 108 305
f 305 108 110
f 43 292 41
f 41 292 290
f 374 290 292
f 372 290 374
f 109 372 374
f 109 374 111
f 307 44 42
f 307 42 305
f 305 110 307
f 307 110 112
f 45 294 43
f 43 294 292
f 376 292 294
f 374 292 376
f 111 374 376
f 111 376 113
f 126 153 46
f 192 227 153
f 192 153 126
f 307 272 44
f 44 272 192
f 272 114 192
f 114 227 192
f 307 112 272
f 47 296 45
f 45 296 294
f 378 294 296
f 376 294 378
f 454 434 113
f 376 454 113
f 378 454 376
f 434 454 520
f 434 520 504
f 504 520 48
f 16 504 48
f 18 504 16
f 70 18 16
f 70 72 18
f 153 128 46
f 128 70 46
f 128 72 70
f 128 153 194
f 194 153 227
f 227 114 194
f 270 296 47
f 352 378 270
f 270 378 296
f 432 454 352
f 352 454 378
f 502 520 432
f 432 520 454
f 48 520 502
f 218 207 49
f 300 285 218
f 218 285 207
f 300 50 285
f 146 141 51
f 141 146 49
f 146 218 49
f 146 220 218
f 302 218 220
f 300 218 302
f 50 300 365
f 300 384 365
f 300 302 384
f 384 52 365
f 53 148 51
f 51 148 146
f 222 146 148
f 220 146 222
f 304 220 222
f 302 220 304
f 386 302 304
f 384 302 386
f 52 384 54
f 54 384 386
f 55 150 53
f 53 150 148
f 224 148 150
f 222 148 224
f 306 222 224
f 304 222 306
f 388 304 306
f 386 304 388
f 54 386 56
f 56 386 388
f 142 150 55
f 208 224 142
f 142 224 150
f 286 306 208
f 208 306 224
f 366 388 286
f 286 388 306
f 56 388 366
f 155 339 367
f 367 339 443
f 443 339 419
f 443 419 509
f 509 419 489
f 509 489 25
f 25 489 3
f 3 156 25
f 157 257 287
f 155 367 257
f 257 367 287
f 367 337 287
f 337 95 287
f 443 417 337
f 443 337 367
f 509 487 417
f 509 417 443
f 25 1 487
f 25 487 509
f 156 57 87
f 156 87 96
f 25 156 96
f 1 25 96
f 57 158 87
f 289 159 287
f 287 159 157
f 287 95 97
f 287 97 289
f 89 98 96
f 89 96 87
f 87 158 89
f 89 158 160
f 161 179 211
f 159 289 179
f 179 289 211
f 289 255 211
f 255 99 211
f 289 97 255
f 91 100 98
f 91 98 89
f 89 160 91
f 91 160 162
f 213 163 211
f 211 163 161
f 211 99 101
f 211 101 213
f 100 91 58
f 164 100 58
f 102 100 164
f 91 162 58
f 213 180 163
f 165 180 213
f 101 165 213
f 103 165 101
f 2 35 104
f 2 102 35
f 102 166 35
f 102 164 166
f 297 167 256
f 167 103 256
f 167 165 103
f 338 379 297
f 338 297 256
f 418 455 379
f 418 379 338
f 488 521 455
f 488 455 418
f 35 4 104
f 104 4 488
f 4 168 488
f 168 521 488
f 35 166 4
f 297 258 167
f 258 297 340
f 340 297 379
f 340 379 420
f 420 379 455
f 420 455 490
f 490 455 521
f 521 168 490
f 169 19 105
f 105 19 17
f 19 71 17
f 73 71 19
f 73 127 71
f 129 127 73
f 129 193 127
f 195 193 129
f 106 193 301
f 193 273 301
f 193 195 273
f 273 170 301
f 171 505 107
f 107 505 503
f 105 503 505
f 105 505 169
f 301 271 106
f 301 170 271
f 170 108 271
f 170 172 108
f 448 433 109
f 107 433 448
f 173 107 448
f 171 107 173
f 172 353 387
f 110 172 387
f 108 172 110
f 353 174 387
f 111 450 109
f 109 450 448
f 173 448 450
f 173 450 175
f 389 112 110
f 389 110 387
f 387 174 389
f 389 174 176
f 113 452 111
f 111 452 450
f 518 506 175
f 450 518 175
f 452 518 450
f 177 506 518
f 272 309 114
f 389 354 112
f 112 354 272
f 354 178 272
f 178 309 272
f 389 176 354
f 434 452 113
f 504 518 434
f 434 518 452
f 518 504 177
f 504 20 177
f 504 18 20
f 72 20 18
f 72 74 20
f 128 74 72
f 128 130 74
f 194 130 128
f 194 196 130
f 309 274 114
f 274 194 114
f 274 196 194
f 309 178 274
f 229 341 155
f 155 341 339
f 341 419 339
f 421 419 341
f 421 489 419
f 491 489 421
f 491 3 489
f 5 3 491
f 156 3 85
f 3 59 85
f 3 5 59
f 59 230 85
f 231 259 157
f 157 259 257
f 155 257 259
f 155 259 229
f 85 57 156
f 85 230 57
f 230 158 57
f 230 232 158
f 233 181 209
f 159 209 181
f 231 159 181
f 157 159 231
f 232 115 149
f 160 232 149
f 158 232 160
f 115 234 149
f 179 161 209
f 161 233 209
f 161 235 233
f 209 159 179
f 160 149 116
f 236 160 116
f 162 160 236
f 149 234 116
f 237 161 163
f 237 235 161
f 58 93 164
f 58 162 93
f 162 238 93
f 162 236 238
f 215 239 180
f 239 163 180
f 239 237 163
f 165 215 180
f 164 93 60
f 240 164 60
f 166 164 240
f 93 238 60
f 215 182 239
f 241 182 215
f 165 241 215
f 167 241 165
f 6 242 168
f 6 168 4
f 4 166 6
f 6 166 240
f 167 258 241
f 241 258 260
f 340 260 258
f 340 342 260
f 420 342 340
f 420 422 342
f 490 422 420
f 490 492 422
f 490 168 492
f 492 168 242
f 243 197 217
f 217 197 299
f 299 197 275
f 275 244 299
f 245 21 169
f 169 21 19
f 21 73 19
f 75 73 21
f 75 129 73
f 131 129 75
f 131 243 217
f 195 131 217
f 129 131 195
f 299 273 195
f 299 195 217
f 244 355 383
f 244 383 170
f 299 244 170
f 273 299 170
f 355 246 383
f 247 507 171
f 171 507 505
f 169 505 507
f 169 507 245
f 385 172 170
f 385 170 383
f 383 246 385
f 385 246 248
f 249 171 173
f 249 247 171
f 385 353 172
f 385 248 353
f 248 174 353
f 248 250 174
f 251 173 175
f 251 249 173
f 174 252 176
f 250 252 174
f 175 506 251
f 251 506 508
f 253 508 506
f 253 506 177
f 356 254 178
f 356 178 354
f 354 176 356
f 356 176 252
f 177 20 253
f 253 20 22
f 74 22 20
f 74 76 22
f 130 76 74
f 130 132 76
f 196 132 130
f 196 198 132
f 274 198 196
f 274 276 198
f 274 178 276
f 276 178 254
f 311 343 229
f 229 343 341
f 343 421 341
f 423 421 343
f 423 491 421
f 493 491 423
f 493 5 491
f 7 5 493
f 7 59 5
f 61 59 7
f 61 312 59
f 59 312 230
f 313 261 231
f 231 261 259
f 229 259 261
f 229 261 311
f 312 117 147
f 232 312 147
f 230 312 232
f 117 314 147
f 315 183 233
f 233 183 181
f 231 181 183
f 231 183 313
f 147 115 232
f 147 314 115
f 314 234 115
f 314 316 234
f 317 233 235
f 317 315 233
f 116 151 236
f 116 234 151
f 234 318 151
f 234 316 318
f 319 235 237
f 319 317 235
f 236 151 118
f 320 236 118
f 238 236 320
f 151 318 118
f 321 237 239
f 321 319 237
f 62 322 240
f 62 240 60
f 60 238 62
f 62 238 320
f 239 182 321
f 321 182 184
f 323 184 182
f 323 182 241
f 8 324 242
f 8 242 6
f 6 240 8
f 8 240 322
f 241 260 323
f 323 260 262
f 342 262 260
f 342 344 262
f 422 344 342
f 422 424 344
f 492 424 422
f 492 494 424
f 492 242 494
f 494 242 324
f 325 133 143
f 143 133 243
f 133 197 243
f 133 199 197
f 199 275 197
f 277 275 199
f 244 275 381
f 275 357 381
f 275 277 357
f 357 326 381
f 26 21 245
f 327 77 26
f 77 21 26
f 77 75 21
f 77 325 143
f 131 77 143
f 75 77 131
f 143 243 131
f 381 355 244
f 326 435 457
f 326 457 246
f 381 326 246
f 355 381 246
f 435 328 457
f 512 507 247
f 23 26 245
f 23 245 507
f 329 23 507
f 512 329 507
f 327 26 23
f 459 248 246
f 459 246 457
f 457 328 459
f 459 328 330
f 249 514 247
f 247 514 512
f 329 512 514
f 329 514 331
f 461 250 248
f 461 248 459
f 459 330 461
f 461 330 332
f 251 516 249
f 249 516 514
f 331 514 516
f 331 516 333
f 250 461 436
f 334 250 436
f 252 250 334
f 461 332 436
f 508 516 251
f 24 333 34
f 34 333 253
f 333 516 253
f 516 508 253
f 335 24 34
f 358 336 254
f 358 254 356
f 356 252 358
f 358 252 334
f 22 34 253
f 34 22 335
f 22 78 335
f 22 76 78
f 132 78 76
f 132 134 78
f 198 134 132
f 198 200 134
f 276 200 198
f 276 278 200
f 276 254 278
f 278 254 336
f 368 343 311
f 391 425 368
f 425 343 368
f 425 423 343
f 425 493 423
f 495 493 425
f 495 7 493
f 9 7 495
f 9 61 7
f 63 61 9
f 63 392 61
f 61 392 312
f 393 263 313
f 313 263 261
f 345 368 311
f 261 345 311
f 263 345 261
f 391 368 345
f 117 312 392
f 117 392 119
f 119 394 117
f 117 394 314
f 395 185 315
f 315 185 183
f 313 183 185
f 313 185 393
f 314 396 316
f 394 396 314
f 397 315 317
f 397 395 315
f 316 398 318
f 396 398 316
f 399 317 319
f 399 397 317
f 120 400 320
f 120 320 118
f 118 318 120
f 120 318 398
f 401 319 321
f 401 399 319
f 64 402 322
f 64 322 62
f 62 320 64
f 64 320 400
f 321 184 401
f 401 184 186
f 403 186 184
f 403 184 323
f 10 404 324
f 10 324 8
f 8 322 10
f 10 322 402
f 323 262 403
f 403 262 264
f 344 264 262
f 344 346 264
f 424 346 344
f 424 426 346
f 494 426 424
f 494 496 426
f 494 324 496
f 496 324 404
f 405 135 325
f 325 135 133
f 135 199 133
f 201 199 135
f 201 277 199
f 279 277 201
f 279 357 277
f 359 357 279
f 359 406 357
f 357 406 326
f 407 79 327
f 327 79 77
f 325 77 79
f 325 79 405
f 435 326 406
f 435 406 437
f 437 408 435
f 435 408 328
f 28 23 329
f 327 23 28
f 409 327 28
f 407 327 409
f 328 410 330
f 408 410 328
f 331 30 329
f 329 30 28
f 409 28 30
f 409 30 411
f 330 412 332
f 410 412 330
f 333 32 331
f 331 32 30
f 411 30 32
f 411 32 413
f 438 414 334
f 438 334 436
f 436 332 438
f 438 332 412
f 24 32 333
f 80 413 94
f 94 413 335
f 413 32 335
f 32 24 335
f 80 94 154
f 80 154 136
f 415 136 154
f 280 416 310
f 280 310 336
f 358 280 336
f 360 280 358
f 358 334 360
f 360 334 414
f 78 94 335
f 134 154 78
f 78 154 94
f 154 134 415
f 134 202 415
f 134 200 202
f 416 202 310
f 202 278 310
f 202 200 278
f 336 310 278
f 463 427 391
f 391 427 425
f 427 495 425
f 497 495 427
f 497 9 495
f 11 9 497
f 11 63 9
f 65 63 11
f 65 464 63
f 63 464 392
f 465 265 393
f 393 265 263
f 265 345 263
f 347 345 265
f 391 345 347
f 391 347 463
f 119 392 464
f 119 464 121
f 121 466 119
f 119 466 394
f 467 187 395
f 395 187 185
f 393 185 187
f 393 187 465
f 394 468 396
f 466 468 394
f 469 395 397
f 469 467 395
f 396 470 398
f 468 470 396
f 471 397 399
f 471 469 397
f 122 472 400
f 122 400 120
f 120 398 122
f 122 398 470
f 473 399 401
f 473 471 399
f 66 474 402
f 66 402 64
f 64 400 66
f 66 400 472
f 401 186 473
f 473 186 188
f 475 188 186
f 475 186 403
f 12 476 404
f 12 404 10
f 10 402 12
f 12 402 474
f 403 264 475
f 475 264 266
f 346 266 264
f 346 348 266
f 426 348 346
f 426 428 348
f 496 428 426
f 496 498 428
f 496 404 498
f 498 404 476
f 477 137 405
f 405 137 135
f 137 201 135
f 203 201 137
f 203 279 201
f 281 279 203
f 281 359 279
f 361 359 281
f 361 478 359
f 359 478 406
f 479 81 407
f 407 81 79
f 405 79 81
f 405 81 477
f 437 406 478
f 437 478 439
f 439 480 437
f 437 480 408
f 481 407 409
f 481 479 407
f 408 482 410
f 480 482 408
f 483 409 411
f 483 481 409
f 410 484 412
f 482 484 410
f 82 483 92
f 483 413 92
f 483 411 413
f 485 82 92
f 440 486 414
f 440 414 438
f 438 412 440
f 440 412 484
f 80 92 413
f 92 80 485
f 80 138 485
f 80 136 138
f 136 415 228
f 204 136 228
f 138 136 204
f 204 228 416
f 280 204 416
f 282 204 280
f 360 282 280
f 360 362 282
f 360 414 362
f 362 414 486
f 202 228 415
f 416 228 202
f 444 427 463
f 510 497 444
f 444 497 427
f 523 13 510
f 13 497 510
f 13 11 497
f 13 65 11
f 67 65 13
f 67 524 65
f 65 524 464
f 525 267 465
f 465 267 265
f 267 347 265
f 349 347 267
f 429 444 463
f 347 429 463
f 349 429 347
f 444 429 499
f 444 499 510
f 523 510 499
f 121 464 524
f 121 524 123
f 123 526 121
f 121 526 466
f 210 187 467
f 465 187 210
f 527 465 210
f 525 465 527
f 466 528 468
f 526 528 466
f 210 467 189
f 467 529 189
f 467 469 529
f 527 210 189
f 468 530 470
f 528 530 468
f 531 469 471
f 531 529 469
f 124 532 472
f 124 472 122
f 122 470 124
f 124 470 530
f 190 531 216
f 531 473 216
f 531 471 473
f 533 190 216
f 68 534 474
f 68 474 66
f 66 472 68
f 68 472 532
f 188 216 473
f 533 216 188
f 475 533 188
f 535 533 475
f 14 536 476
f 14 476 12
f 12 474 14
f 14 474 534
f 475 266 535
f 535 266 268
f 348 268 266
f 348 350 268
f 428 350 348
f 428 430 350
f 498 430 428
f 498 500 430
f 498 476 500
f 500 476 536
f 537 139 477
f 477 139 137
f 139 203 137
f 205 203 139
f 205 281 203
f 283 281 205
f 283 361 281
f 363 361 283
f 363 538 361
f 361 538 478
f 86 81 479
f 477 81 86
f 539 477 86
f 537 477 539
f 540 458 439
f 478 540 439
f 538 540 478
f 458 480 439
f 86 479 83
f 479 541 83
f 479 481 541
f 539 86 83
f 441 458 540
f 441 542 458
f 542 480 458
f 542 482 480
f 84 541 90
f 541 483 90
f 541 481 483
f 543 84 90
f 442 544 462
f 462 484 442
f 484 542 442
f 484 482 542
f 82 90 483
f 543 90 82
f 485 543 82
f 545 543 485
f 486 440 462
f 544 486 462
f 546 486 544
f 484 462 440
f 485 138 545
f 545 138 140
f 204 140 138
f 204 206 140
f 282 206 204
f 282 284 206
f 362 284 282
f 362 364 284
f 362 486 364
f 364 486 546
f 37 15 523
f 523 15 13
f 15 67 13
f 69 67 15
f 69 38 67
f 67 38 524
f 288 267 525
f 370 349 288
f 288 349 267
f 39 431 370
f 431 349 370
f 431 429 349
f 431 499 429
f 501 499 431
f 523 499 501
f 523 501 37
f 123 524 38
f 123 38 125
f 526 123 221
f 123 191 221
f 123 125 191
f 191 40 221
f 288 525 269
f 525 41 269
f 525 527 41
f 288 269 351
f 288 351 370
f 39 370 351
f 223 528 526
f 223 526 221
f 221 40 223
f 223 40 42
f 212 189 529
f 527 189 212
f 43 527 212
f 41 527 43
f 225 530 528
f 225 528 223
f 223 42 225
f 225 42 44
f 531 214 529
f 529 214 212
f 43 212 214
f 43 214 45
f 126 46 532
f 126 532 124
f 225 192 530
f 192 124 530
f 192 126 124
f 225 44 192
f 190 214 531
f 45 214 190
f 533 45 190
f 47 45 533
f 16 48 36
f 16 36 534
f 68 16 534
f 70 16 68
f 68 532 70
f 70 532 46
f 270 47 298
f 47 535 298
f 47 533 535
f 270 298 380
f 270 380 352
f 352 380 456
f 352 456 432
f 432 456 522
f 432 522 502
f 36 48 502
f 36 502 522
f 14 36 522
f 536 14 522
f 534 36 14
f 268 298 535
f 350 380 268
f 268 380 298
f 430 456 350
f 350 456 380
f 500 522 430
f 430 522 456
f 536 522 500
f 144 139 537
f 49 207 144
f 207 139 144
f 207 205 139
f 207 283 205
f 285 283 207
f 382 363 50
f 363 285 50
f 363 283 285
f 382 538 363
f 144 537 141
f 537 51 141
f 537 539 51
f 49 144 141
f 365 382 50
f 365 52 382
f 52 538 382
f 52 540 538
f 88 83 541
f 539 83 88
f 53 539 88
f 51 539 53
f 54 460 441
f 540 54 441
f 52 54 540
f 460 542 441
f 84 88 541
f 53 88 84
f 543 53 84
f 55 53 543
f 544 442 460
f 54 544 460
f 56 544 54
f 542 460 442
f 142 55 152
f 55 545 152
f 55 543 545
f 142 152 226
f 142 226 208
f 208 226 308
f 208 308 286
f 286 308 390
f 286 390 366
f 390 546 366
f 546 56 366
f 546 544 56
f 140 152 545
f 206 226 140
f 140 226 152
f 284 308 206
f 206 308 226
f 364 390 284
f 284 390 308
f 546 390 364
