# Converted from NanoShaper .vert/.face
v 9.492000 -4.189000 4.885000
v 11.915000 -4.189000 4.885000
v 9.163000 -4.189000 5.385000
v 12.230000 -4.189000 5.385000
v 9.073000 -4.189000 5.885000
v 12.473000 -4.189000 5.885000
v 9.043000 -4.189000 6.385000
v 12.773000 -4.189000 6.385000
v 9.139000 -4.189000 6.885000
v 12.863000 -4.189000 6.885000
v 9.252000 -4.189000 7.385000
v 12.995000 -4.189000 7.385000
v 9.252000 -4.189000 7.885000
v 13.334000 -4.189000 7.885000
v 9.138000 -4.189000 8.385000
v 13.858000 -4.189000 8.385000
v 8.777000 -4.189000 8.885000
v 14.211000 -4.189000 8.885000
v 8.365000 -4.189000 9.385000
v 14.316000 -4.189000 9.385000
v 8.258000 -4.189000 9.885000
v 14.233000 -4.189000 9.885000
v 8.283000 -4.189000 10.385000
v 13.917000 -4.189000 10.385000
v 8.391000 -4.189000 10.885000
v 10.652000 -4.189000 10.885000
v 8.832000 -4.189000 11.385000
v 10.075000 -4.189000 11.385000
v 8.451000 -4.189000 9.227000
v 8.451000 -4.189000 10.999000
v 8.951000 -4.189000 8.696000
v 8.951000 -4.189000 11.451000
v 9.451000 -4.189000 4.926000
v 9.451000 -4.189000 11.564000
v 9.951000 -4.189000 4.588000
v 9.951000 -4.189000 11.452000
v 10.451000 -4.189000 4.491000
v 10.451000 -4.189000 11.051000
v 10.951000 -4.189000 4.514000
v 10.951000 -4.189000 10.716000
v 11.451000 -4.189000 4.585000
v 11.451000 -4.189000 10.624000
v 11.951000 -4.189000 4.924000
v 11.951000 -4.189000 10.672000
v 12.451000 -4.189000 5.854000
v 12.451000 -4.189000 10.752000
v 12.951000 -4.189000 7.275000
v 12.951000 -4.189000 10.797000
v 13.451000 -4.189000 8.011000
v 13.451000 -4.189000 10.696000
v 13.951000 -4.189000 8.477000
v 13.951000 -4.189000 10.349000
v 9.451000 -6.760000 7.385000
v 9.451000 -3.859000 7.385000
v 9.951000 -7.124000 7.385000
v 9.951000 -3.470000 7.385000
v 10.451000 -7.240000 7.385000
v 10.451000 -3.344000 7.385000
v 10.951000 -7.293000 7.385000
v 10.951000 -3.206000 7.385000
v 11.451000 -7.196000 7.385000
v 11.451000 -3.061000 7.385000
v 11.951000 -6.860000 7.385000
v 11.951000 -3.034000 7.385000
v 12.451000 -6.350000 7.385000
v 12.451000 -3.219000 7.385000
v 12.951000 -4.759000 7.385000
v 12.951000 -3.851000 7.385000
v 8.951000 -5.809000 11.385000
v 8.951000 -4.106000 11.385000
v 9.451000 -5.946000 11.385000
v 9.451000 -3.970000 11.385000
v 9.951000 -5.811000 11.385000
v 9.951000 -4.104000 11.385000
v 9.759000 -3.689000 4.885000
v 12.024000 -3.689000 4.885000
v 9.354000 -3.689000 5.385000
v 12.212000 -3.689000 5.385000
v 9.249000 -3.689000 5.885000
v 12.419000 -3.689000 5.885000
v 9.219000 -3.689000 6.385000
v 12.600000 -3.689000 6.385000
v 9.332000 -3.689000 6.885000
v 12.696000 -3.689000 6.885000
v 9.612000 -3.689000 7.385000
v 12.888000 -3.689000 7.385000
v 9.782000 -3.689000 7.885000
v 13.340000 -3.689000 7.885000
v 9.846000 -3.689000 8.385000
v 13.836000 -3.689000 8.385000
v 9.474000 -3.689000 8.885000
v 14.195000 -3.689000 8.885000
v 8.986000 -3.689000 9.385000
v 14.301000 -3.689000 9.385000
v 8.774000 -3.689000 9.885000
v 14.217000 -3.689000 9.885000
v 8.861000 -3.689000 10.385000
v 10.135000 -3.689000 10.385000
v 11.262000 -3.689000 10.385000
v 13.897000 -3.689000 10.385000
v 9.122000 -3.689000 10.885000
v 9.784000 -3.689000 10.885000
v 8.951000 -3.689000 9.420000
v 8.951000 -3.689000 10.709000
v 9.451000 -3.689000 5.208000
v 9.451000 -3.689000 7.095000
v 9.451000 -3.689000 8.904000
v 9.451000 -3.689000 10.986000
v 9.951000 -3.689000 4.746000
v 9.951000 -3.689000 10.714000
v 10.451000 -3.689000 4.515000
v 10.451000 -3.689000 10.101000
v 10.951000 -3.689000 4.450000
v 10.951000 -3.689000 10.258000
v 11.451000 -3.689000 4.466000
v 11.451000 -3.689000 10.459000
v 11.951000 -3.689000 4.787000
v 11.951000 -3.689000 10.649000
v 12.451000 -3.689000 5.957000
v 12.451000 -3.689000 10.755000
v 12.951000 -3.689000 7.480000
v 12.951000 -3.689000 10.783000
v 13.451000 -3.689000 7.997000
v 13.451000 -3.689000 10.680000
v 13.951000 -3.689000 8.499000
v 13.951000 -3.689000 10.327000
v 10.951000 -2.841000 3.885000
v 10.951000 -1.108000 3.885000
v 11.451000 -2.984000 3.885000
v 11.451000 -0.964000 3.885000
v 11.951000 -2.863000 3.885000
v 11.951000 -1.085000 3.885000
v 12.451000 -2.217000 3.885000
v 12.451000 -1.731000 3.885000
v 8.951000 -5.884000 7.885000
v 8.951000 -4.889000 7.885000
v 9.451000 -6.883000 7.885000
v 9.451000 -3.938000 7.885000
v 9.951000 -7.214000 7.885000
v 9.951000 -3.611000 7.885000
v 10.451000 -7.307000 7.885000
v 10.451000 -3.492000 7.885000
v 10.951000 -7.231000 7.885000
v 10.951000 -3.319000 7.885000
v 11.451000 -7.090000 7.885000
v 11.451000 -3.099000 7.885000
v 11.951000 -6.711000 7.885000
v 11.951000 -2.923000 7.885000
v 12.451000 -6.222000 7.885000
v 12.451000 -2.882000 7.885000
v 12.951000 -5.298000 7.885000
v 12.951000 -3.118000 7.885000
v 10.727000 -7.189000 6.885000
v 11.151000 -7.189000 6.885000
v 10.155000 -7.189000 7.385000
v 11.468000 -7.189000 7.385000
v 9.893000 -7.189000 7.885000
v 11.126000 -7.189000 7.885000
v 10.253000 -7.189000 8.385000
v 10.657000 -7.189000 8.385000
v 10.542000 -3.189000 4.385000
v 12.049000 -3.189000 4.385000
v 10.022000 -3.189000 4.885000
v 12.301000 -3.189000 4.885000
v 9.774000 -3.189000 5.385000
v 12.359000 -3.189000 5.385000
v 9.725000 -3.189000 5.885000
v 12.393000 -3.189000 5.885000
v 9.718000 -3.189000 6.385000
v 12.355000 -3.189000 6.385000
v 9.935000 -3.189000 6.885000
v 12.271000 -3.189000 6.885000
v 10.990000 -3.189000 7.385000
v 12.405000 -3.189000 7.385000
v 11.276000 -3.189000 7.885000
v 13.034000 -3.189000 7.885000
v 11.115000 -3.189000 8.385000
v 13.524000 -3.189000 8.385000
v 10.873000 -3.189000 8.885000
v 13.959000 -3.189000 8.885000
v 11.081000 -3.189000 9.385000
v 14.087000 -3.189000 9.385000
v 11.390000 -3.189000 9.885000
v 13.986000 -3.189000 9.885000
v 11.858000 -3.189000 10.385000
v 13.557000 -3.189000 10.385000
v 9.951000 -7.189000 7.610000
v 9.951000 -7.189000 8.111000
v 10.451000 -7.189000 7.150000
v 10.451000 -7.189000 8.423000
v 10.951000 -7.189000 6.841000
v 10.951000 -7.189000 8.124000
v 11.451000 -7.189000 7.238000
v 11.451000 -7.189000 7.501000
v 9.951000 -3.189000 4.993000
v 9.951000 -3.189000 6.900000
v 10.451000 -3.189000 4.448000
v 10.451000 -3.189000 7.089000
v 10.951000 -3.189000 4.188000
v 10.951000 -3.189000 7.345000
v 10.951000 -3.189000 8.592000
v 10.951000 -3.189000 9.199000
v 11.451000 -3.189000 4.109000
v 11.451000 -3.189000 9.989000
v 11.951000 -3.189000 4.294000
v 11.951000 -3.189000 10.437000
v 12.451000 -3.189000 7.443000
v 12.451000 -3.189000 10.563000
v 12.951000 -3.189000 7.830000
v 12.951000 -3.189000 10.569000
v 13.451000 -3.189000 8.299000
v 13.451000 -3.189000 10.445000
v 13.951000 -3.189000 8.870000
v 13.951000 -3.189000 9.957000
v 10.451000 -3.010000 4.385000
v 10.451000 -1.137000 4.385000
v 10.951000 -3.520000 4.385000
v 10.951000 -0.762000 4.385000
v 11.451000 -3.534000 4.385000
v 11.451000 -0.655000 4.385000
v 11.951000 -3.258000 4.385000
v 11.951000 -0.746000 4.385000
v 12.451000 -2.856000 4.385000
v 12.451000 -1.092000 4.385000
v 8.951000 -6.422000 8.385000
v 8.951000 -4.462000 8.385000
v 9.451000 -6.834000 8.385000
v 9.451000 -3.886000 8.385000
v 9.951000 -7.104000 8.385000
v 9.951000 -3.659000 8.385000
v 10.451000 -7.205000 8.385000
v 10.451000 -3.492000 8.385000
v 10.951000 -7.107000 8.385000
v 10.951000 -3.253000 8.385000
v 11.451000 -6.764000 8.385000
v 11.451000 -3.016000 8.385000
v 11.951000 -6.352000 8.385000
v 11.951000 -2.704000 8.385000
v 12.451000 -5.936000 8.385000
v 12.451000 -2.619000 8.385000
v 12.951000 -5.388000 8.385000
v 12.951000 -2.733000 8.385000
v 13.451000 -4.865000 8.385000
v 13.451000 -3.111000 8.385000
v 10.033000 -6.689000 5.885000
v 11.246000 -6.689000 5.885000
v 9.811000 -6.689000 6.385000
v 11.653000 -6.689000 6.385000
v 9.672000 -6.689000 6.885000
v 11.984000 -6.689000 6.885000
v 9.395000 -6.689000 7.385000
v 12.097000 -6.689000 7.385000
v 9.293000 -6.689000 7.885000
v 11.970000 -6.689000 7.885000
v 9.249000 -6.689000 8.385000
v 11.539000 -6.689000 8.385000
v 9.016000 -6.689000 8.885000
v 11.004000 -6.689000 8.885000
v 8.819000 -6.689000 9.385000
v 10.252000 -6.689000 9.385000
v 9.076000 -6.689000 9.885000
v 9.888000 -6.689000 9.885000
v 10.758000 -2.689000 3.885000
v 12.184000 -2.689000 3.885000
v 10.322000 -2.689000 4.385000
v 12.579000 -2.689000 4.385000
v 10.102000 -2.689000 4.885000
v 12.674000 -2.689000 4.885000
v 10.050000 -2.689000 5.385000
v 12.579000 -2.689000 5.385000
v 10.176000 -2.689000 5.885000
v 12.389000 -2.689000 5.885000
v 10.643000 -2.689000 6.385000
v 12.044000 -2.689000 6.385000
v 11.992000 -2.689000 8.385000
v 12.841000 -2.689000 8.385000
v 11.741000 -2.689000 8.885000
v 13.171000 -2.689000 8.885000
v 11.837000 -2.689000 9.385000
v 13.474000 -2.689000 9.385000
v 12.086000 -2.689000 9.885000
v 13.200000 -2.689000 9.885000
v 8.951000 -6.689000 8.961000
v 8.951000 -6.689000 9.758000
v 9.451000 -6.689000 7.276000
v 9.451000 -6.689000 10.023000
v 9.951000 -6.689000 5.975000
v 9.951000 -6.689000 9.830000
v 10.451000 -6.689000 5.707000
v 10.451000 -6.689000 9.227000
v 10.951000 -6.689000 5.792000
v 10.951000 -6.689000 8.914000
v 11.451000 -6.689000 6.094000
v 11.451000 -6.689000 8.483000
v 11.951000 -6.689000 6.821000
v 11.951000 -6.689000 7.919000
v 10.451000 -2.689000 4.198000
v 10.451000 -2.689000 6.282000
v 10.951000 -2.689000 3.769000
v 10.951000 -2.689000 6.470000
v 11.451000 -2.689000 3.651000
v 11.451000 -2.689000 6.651000
v 11.951000 -2.689000 3.751000
v 11.951000 -2.689000 6.469000
v 11.951000 -2.689000 8.423000
v 11.951000 -2.689000 9.742000
v 12.451000 -2.689000 4.157000
v 12.451000 -2.689000 5.748000
v 12.451000 -2.689000 8.229000
v 12.451000 -2.689000 10.022000
v 12.951000 -2.689000 8.496000
v 12.951000 -2.689000 9.956000
v 13.451000 -2.689000 9.256000
v 13.451000 -2.689000 9.570000
v 9.951000 -5.761000 4.885000
v 9.951000 -3.375000 4.885000
v 10.451000 -5.890000 4.885000
v 10.451000 -1.015000 4.885000
v 10.951000 -5.921000 4.885000
v 10.951000 -0.674000 4.885000
v 11.451000 -5.815000 4.885000
v 11.451000 -0.575000 4.885000
v 11.951000 -5.259000 4.885000
v 11.951000 -4.520000 4.885000
v 11.951000 -3.924000 4.885000
v 11.951000 -0.659000 4.885000
v 12.451000 -2.987000 4.885000
v 12.451000 -0.975000 4.885000
v 8.451000 -6.277000 8.885000
v 8.451000 -4.614000 8.885000
v 8.951000 -6.662000 8.885000
v 8.951000 -4.019000 8.885000
v 9.451000 -6.831000 8.885000
v 9.451000 -3.698000 8.885000
v 9.951000 -6.911000 8.885000
v 9.951000 -3.587000 8.885000
v 10.451000 -6.892000 8.885000
v 10.451000 -3.432000 8.885000
v 10.951000 -6.723000 8.885000
v 10.951000 -3.153000 8.885000
v 11.451000 -6.355000 8.885000
v 11.451000 -2.895000 8.885000
v 11.951000 -6.121000 8.885000
v 11.951000 -2.595000 8.885000
v 12.451000 -5.778000 8.885000
v 12.451000 -2.515000 8.885000
v 12.951000 -5.421000 8.885000
v 12.951000 -2.616000 8.885000
v 13.451000 -5.168000 8.885000
v 13.451000 -2.792000 8.885000
v 13.951000 -4.781000 8.885000
v 13.951000 -3.179000 8.885000
v 9.836000 -6.189000 5.385000
v 11.516000 -6.189000 5.385000
v 9.406000 -6.189000 5.885000
v 11.971000 -6.189000 5.885000
v 9.295000 -6.189000 6.385000
v 12.145000 -6.189000 6.385000
v 9.243000 -6.189000 6.885000
v 12.452000 -6.189000 6.885000
v 9.162000 -6.189000 7.385000
v 12.577000 -6.189000 7.385000
v 9.030000 -6.189000 7.885000
v 12.476000 -6.189000 7.885000
v 8.755000 -6.189000 8.385000
v 12.169000 -6.189000 8.385000
v 8.388000 -6.189000 8.885000
v 11.793000 -6.189000 8.885000
v 8.290000 -6.189000 9.385000
v 11.062000 -6.189000 9.385000
v 8.411000 -6.189000 9.885000
v 10.596000 -6.189000 9.885000
v 8.698000 -6.189000 10.385000
v 10.235000 -6.189000 10.385000
v 9.004000 -6.189000 10.885000
v 9.902000 -6.189000 10.885000
v 10.484000 -2.189000 3.885000
v 12.458000 -2.189000 3.885000
v 10.170000 -2.189000 4.385000
v 12.772000 -2.189000 4.385000
v 10.085000 -2.189000 4.885000
v 12.854000 -2.189000 4.885000
v 10.161000 -2.189000 5.385000
v 12.748000 -2.189000 5.385000
v 10.430000 -2.189000 5.885000
v 12.419000 -2.189000 5.885000
v 8.451000 -6.189000 8.759000
v 8.451000 -6.189000 9.960000
v 8.951000 -6.189000 8.074000
v 8.951000 -6.189000 10.831000
v 9.451000 -6.189000 5.796000
v 9.451000 -6.189000 11.059000
v 9.951000 -6.189000 5.314000
v 9.951000 -6.189000 10.835000
v 10.451000 -6.189000 5.179000
v 10.451000 -6.189000 10.057000
v 10.951000 -6.189000 5.206000
v 10.951000 -6.189000 9.497000
v 11.451000 -6.189000 5.345000
v 11.451000 -6.189000 9.087000
v 11.951000 -6.189000 5.848000
v 11.951000 -6.189000 8.736000
v 12.451000 -6.189000 6.885000
v 12.451000 -6.189000 7.937000
v 10.451000 -2.189000 3.919000
v 10.451000 -2.189000 5.909000
v 10.951000 -2.189000 3.572000
v 10.951000 -2.189000 6.219000
v 11.451000 -2.189000 3.471000
v 11.451000 -2.189000 6.343000
v 11.951000 -2.189000 3.557000
v 11.951000 -2.189000 6.255000
v 12.451000 -2.189000 3.878000
v 12.451000 -2.189000 5.847000
v 9.451000 -5.800000 5.385000
v 9.451000 -3.557000 5.385000
v 9.951000 -6.278000 5.385000
v 9.951000 -2.912000 5.385000
v 10.451000 -6.442000 5.385000
v 10.451000 -1.175000 5.385000
v 10.951000 -6.386000 5.385000
v 10.951000 -0.787000 5.385000
v 11.451000 -6.229000 5.385000
v 11.451000 -0.679000 5.385000
v 11.951000 -5.817000 5.385000
v 11.951000 -0.771000 5.385000
v 12.451000 -2.987000 5.385000
v 12.451000 -1.127000 5.385000
v 8.451000 -6.404000 9.385000
v 8.451000 -4.073000 9.385000
v 8.951000 -6.752000 9.385000
v 8.951000 -3.703000 9.385000
v 9.451000 -6.856000 9.385000
v 9.451000 -3.570000 9.385000
v 9.951000 -6.789000 9.385000
v 9.951000 -3.507000 9.385000
v 10.451000 -6.619000 9.385000
v 10.451000 -3.446000 9.385000
v 10.951000 -6.291000 9.385000
v 10.951000 -3.250000 9.385000
v 11.451000 -5.925000 9.385000
v 11.451000 -2.963000 9.385000
v 11.951000 -5.738000 9.385000
v 11.951000 -2.637000 9.385000
v 12.451000 -5.536000 9.385000
v 12.451000 -2.532000 9.385000
v 12.951000 -5.405000 9.385000
v 12.951000 -2.580000 9.385000
v 13.451000 -5.280000 9.385000
v 13.451000 -2.680000 9.385000
v 13.951000 -4.939000 9.385000
v 13.951000 -3.021000 9.385000
v 9.846000 -5.689000 4.885000
v 11.644000 -5.689000 4.885000
v 9.366000 -5.689000 5.385000
v 12.059000 -5.689000 5.385000
v 9.193000 -5.689000 5.885000
v 12.207000 -5.689000 5.885000
v 9.107000 -5.689000 6.385000
v 12.383000 -5.689000 6.385000
v 9.042000 -5.689000 6.885000
v 12.681000 -5.689000 6.885000
v 9.049000 -5.689000 7.385000
v 12.785000 -5.689000 7.385000
v 8.904000 -5.689000 7.885000
v 12.749000 -5.689000 7.885000
v 8.504000 -5.689000 8.385000
v 12.647000 -5.689000 8.385000
v 8.186000 -5.689000 8.885000
v 12.560000 -5.689000 8.885000
v 8.102000 -5.689000 9.385000
v 12.044000 -5.689000 9.385000
v 8.191000 -5.689000 9.885000
v 11.103000 -5.689000 9.885000
v 8.258000 -5.689000 10.385000
v 10.709000 -5.689000 10.385000
v 8.365000 -5.689000 10.885000
v 10.541000 -5.689000 10.885000
v 8.789000 -5.689000 11.385000
v 10.117000 -5.689000 11.385000
v 10.501000 -1.689000 3.885000
v 12.440000 -1.689000 3.885000
v 10.183000 -1.689000 4.385000
v 12.759000 -1.689000 4.385000
v 10.100000 -1.689000 4.885000
v 12.841000 -1.689000 4.885000
v 10.207000 -1.689000 5.385000
v 12.735000 -1.689000 5.385000
v 10.567000 -1.689000 5.885000
v 12.374000 -1.689000 5.885000
v 8.451000 -5.689000 8.441000
v 8.451000 -5.689000 11.043000
v 8.951000 -5.689000 7.784000
v 8.951000 -5.689000 11.476000
v 9.451000 -5.689000 5.242000
v 9.451000 -5.689000 11.587000
v 9.951000 -5.689000 4.833000
v 9.951000 -5.689000 11.478000
v 10.451000 -5.689000 4.734000
v 10.451000 -5.689000 11.048000
v 10.951000 -5.689000 4.687000
v 10.951000 -5.689000 10.022000
v 11.451000 -5.689000 4.780000
v 11.451000 -5.689000 9.655000
v 11.951000 -5.689000 5.190000
v 11.951000 -5.689000 9.438000
v 12.451000 -5.689000 6.499000
v 12.451000 -5.689000 9.081000
v 10.451000 -1.689000 3.938000
v 10.451000 -1.689000 5.771000
v 10.951000 -1.689000 3.586000
v 10.951000 -1.689000 6.123000
v 11.451000 -1.689000 3.484000
v 11.451000 -1.689000 6.227000
v 11.951000 -1.689000 3.570000
v 11.951000 -1.689000 6.143000
v 12.451000 -1.689000 3.896000
v 12.451000 -1.689000 5.812000
v 9.451000 -6.254000 5.885000
v 9.451000 -3.423000 5.885000
v 9.951000 -6.655000 5.885000
v 9.951000 -2.980000 5.885000
v 10.451000 -6.773000 5.885000
v 10.451000 -2.128000 5.885000
v 10.951000 -6.732000 5.885000
v 10.951000 -1.182000 5.885000
v 11.451000 -6.616000 5.885000
v 11.451000 -1.027000 5.885000
v 11.951000 -6.216000 5.885000
v 11.951000 -1.158000 5.885000
v 12.451000 -4.954000 5.885000
v 12.451000 -4.052000 5.885000
v 8.451000 -6.245000 9.885000
v 8.451000 -3.938000 9.885000
v 8.951000 -6.641000 9.885000
v 8.951000 -3.606000 9.885000
v 9.451000 -6.754000 9.885000
v 9.451000 -3.511000 9.885000
v 9.951000 -6.667000 9.885000
v 9.951000 -3.571000 9.885000
v 10.451000 -6.333000 9.885000
v 10.451000 -3.618000 9.885000
v 10.951000 -5.816000 9.885000
v 10.951000 -3.510000 9.885000
v 11.451000 -5.485000 9.885000
v 11.451000 -3.127000 9.885000
v 11.951000 -5.336000 9.885000
v 11.951000 -2.741000 9.885000
v 12.451000 -5.270000 9.885000
v 12.451000 -2.628000 9.885000
v 12.951000 -5.298000 9.885000
v 12.951000 -2.662000 9.885000
v 13.451000 -5.191000 9.885000
v 13.451000 -2.769000 9.885000
v 13.951000 -4.815000 9.885000
v 13.951000 -3.145000 9.885000
v 9.519000 -5.189000 4.885000
v 11.974000 -5.189000 4.885000
v 9.157000 -5.189000 5.385000
v 12.287000 -5.189000 5.385000
v 9.048000 -5.189000 5.885000
v 12.386000 -5.189000 5.885000
v 9.067000 -5.189000 6.385000
v 12.544000 -5.189000 6.385000
v 9.035000 -5.189000 6.885000
v 12.768000 -5.189000 6.885000
v 9.043000 -5.189000 7.385000
v 12.877000 -5.189000 7.385000
v 8.900000 -5.189000 7.885000
v 13.009000 -5.189000 7.885000
v 8.513000 -5.189000 8.385000
v 13.153000 -5.189000 8.385000
v 8.193000 -5.189000 8.885000
v 13.407000 -5.189000 8.885000
v 8.104000 -5.189000 9.385000
v 13.636000 -5.189000 9.385000
v 8.086000 -5.189000 9.885000
v 13.455000 -5.189000 9.885000
v 8.072000 -5.189000 10.385000
v 11.131000 -5.189000 10.385000
v 8.163000 -5.189000 10.885000
v 10.777000 -5.189000 10.885000
v 8.492000 -5.189000 11.385000
v 10.414000 -5.189000 11.385000
v 10.834000 -1.189000 3.885000
v 12.107000 -1.189000 3.885000
v 10.410000 -1.189000 4.385000
v 12.531000 -1.189000 4.385000
v 10.312000 -1.189000 4.885000
v 12.630000 -1.189000 4.885000
v 10.440000 -1.189000 5.385000
v 12.502000 -1.189000 5.385000
v 10.940000 -1.189000 5.885000
v 12.002000 -1.189000 5.885000
v 8.451000 -5.189000 8.451000
v 8.451000 -5.189000 11.344000
v 8.951000 -5.189000 7.771000
v 8.951000 -5.189000 11.680000
v 9.451000 -5.189000 4.948000
v 9.451000 -5.189000 11.774000
v 9.951000 -5.189000 4.629000
v 9.951000 -5.189000 11.681000
v 10.451000 -5.189000 4.542000
v 10.451000 -5.189000 11.347000
v 10.951000 -5.189000 4.475000
v 10.951000 -5.189000 10.610000
v 11.451000 -5.189000 4.552000
v 11.451000 -5.189000 10.167000
v 11.951000 -5.189000 4.862000
v 11.951000 -5.189000 10.034000
v 12.451000 -5.189000 6.163000
v 12.451000 -5.189000 10.015000
v 12.951000 -5.189000 7.695000
v 12.951000 -5.189000 10.118000
v 13.451000 -5.189000 8.937000
v 13.451000 -5.189000 9.890000
v 10.451000 -1.189000 4.302000
v 10.451000 -1.189000 5.407000
v 10.951000 -1.189000 3.818000
v 10.951000 -1.189000 5.891000
v 11.451000 -1.189000 3.695000
v 11.451000 -1.189000 6.014000
v 11.951000 -1.189000 3.799000
v 11.951000 -1.189000 5.909000
v 12.451000 -1.189000 4.235000
v 12.451000 -1.189000 5.473000
v 9.451000 -6.401000 6.385000
v 9.451000 -3.393000 6.385000
v 9.951000 -6.759000 6.385000
v 9.951000 -3.047000 6.385000
v 10.451000 -6.906000 6.385000
v 10.451000 -2.773000 6.385000
v 10.951000 -6.926000 6.385000
v 10.951000 -2.575000 6.385000
v 11.451000 -6.808000 6.385000
v 11.451000 -2.298000 6.385000
v 11.951000 -6.409000 6.385000
v 11.951000 -2.573000 6.385000
v 12.451000 -5.442000 6.385000
v 12.451000 -3.377000 6.385000
v 8.451000 -5.959000 10.385000
v 8.451000 -3.980000 10.385000
v 8.951000 -6.342000 10.385000
v 8.951000 -3.651000 10.385000
v 9.451000 -6.459000 10.385000
v 9.451000 -3.558000 10.385000
v 9.951000 -6.358000 10.385000
v 9.951000 -3.643000 10.385000
v 10.451000 -5.986000 10.385000
v 10.451000 -3.755000 10.385000
v 10.951000 -5.408000 10.385000
v 10.951000 -3.779000 10.385000
v 11.451000 -4.935000 10.385000
v 11.451000 -3.573000 10.385000
v 11.951000 -4.844000 10.385000
v 11.951000 -3.120000 10.385000
v 12.451000 -4.904000 10.385000
v 12.451000 -2.961000 10.385000
v 12.951000 -4.988000 10.385000
v 12.951000 -2.972000 10.385000
v 13.451000 -4.843000 10.385000
v 13.451000 -3.116000 10.385000
v 9.497000 -4.689000 4.885000
v 11.993000 -4.689000 4.885000
v 9.153000 -4.689000 5.385000
v 12.301000 -4.689000 5.385000
v 9.050000 -4.689000 5.885000
v 12.493000 -4.689000 5.885000
v 9.056000 -4.689000 6.385000
v 12.755000 -4.689000 6.385000
v 9.073000 -4.689000 6.885000
v 12.842000 -4.689000 6.885000
v 9.095000 -4.689000 7.385000
v 12.961000 -4.689000 7.385000
v 9.015000 -4.689000 7.885000
v 13.229000 -4.689000 7.885000
v 8.769000 -4.689000 8.385000
v 13.592000 -4.689000 8.385000
v 8.405000 -4.689000 8.885000
v 14.017000 -4.689000 8.885000
v 8.167000 -4.689000 9.385000
v 14.138000 -4.689000 9.385000
v 8.076000 -4.689000 9.885000
v 14.042000 -4.689000 9.885000
v 8.079000 -4.689000 10.385000
v 13.647000 -4.689000 10.385000
v 8.170000 -4.689000 10.885000
v 10.883000 -4.689000 10.885000
v 8.502000 -4.689000 11.385000
v 10.404000 -4.689000 11.385000
v 11.171000 -0.689000 4.385000
v 11.771000 -0.689000 4.385000
v 10.915000 -0.689000 4.885000
v 12.027000 -0.689000 4.885000
v 11.303000 -0.689000 5.385000
v 11.639000 -0.689000 5.385000
v 8.451000 -4.689000 8.803000
v 8.451000 -4.689000 11.334000
v 8.951000 -4.689000 8.058000
v 8.951000 -4.689000 11.673000
v 9.451000 -4.689000 4.929000
v 9.451000 -4.689000 11.767000
v 9.951000 -4.689000 4.600000
v 9.951000 -4.689000 11.674000
v 10.451000 -4.689000 4.503000
v 10.451000 -4.689000 11.337000
v 10.951000 -4.689000 4.461000
v 10.951000 -4.689000 10.827000
v 11.451000 -4.689000 4.538000
v 11.451000 -4.689000 10.551000
v 11.951000 -4.689000 4.843000
v 11.951000 -4.689000 10.499000
v 12.451000 -4.689000 5.797000
v 12.451000 -4.689000 10.554000
v 12.951000 -4.689000 7.361000
v 12.951000 -4.689000 10.620000
v 13.451000 -4.689000 8.229000
v 13.451000 -4.689000 10.502000
v 13.951000 -4.689000 8.768000
v 13.951000 -4.689000 10.059000
v 10.951000 -0.689000 4.654000
v 10.951000 -0.689000 5.055000
v 11.451000 -0.689000 4.298000
v 11.451000 -0.689000 5.411000
v 11.951000 -0.689000 4.573000
v 11.951000 -0.689000 5.135000
v 9.451000 -6.469000 6.885000
v 9.451000 -3.532000 6.885000
v 9.951000 -6.866000 6.885000
v 9.951000 -3.183000 6.885000
v 10.451000 -7.113000 6.885000
v 10.451000 -3.084000 6.885000
v 10.951000 -7.207000 6.885000
v 10.951000 -3.005000 6.885000
v 11.451000 -7.103000 6.885000
v 11.451000 -2.869000 6.885000
v 11.951000 -6.730000 6.885000
v 11.951000 -2.971000 6.885000
v 12.451000 -6.190000 6.885000
v 12.451000 -3.370000 6.885000
v 8.451000 -5.803000 10.885000
v 8.451000 -4.112000 10.885000
v 8.951000 -6.169000 10.885000
v 8.951000 -3.747000 10.885000
v 9.451000 -6.269000 10.885000
v 9.451000 -3.647000 10.885000
v 9.951000 -6.170000 10.885000
v 9.951000 -3.745000 10.885000
v 10.451000 -5.807000 10.885000
v 10.451000 -4.028000 10.885000
f 127 263 299
f 299 263 407
f 407 263 377
f 407 377 511
f 511 377 481
f 511 481 619
f 619 481 585
f 585 128 619
f 301 129 299
f 299 129 127
f 299 409 301
f 299 407 409
f 407 513 409
f 407 511 513
f 511 621 513
f 511 619 621
f 619 128 621
f 621 128 130
f 303 131 301
f 301 131 129
f 301 411 303
f 301 409 411
f 409 515 411
f 409 513 515
f 513 623 515
f 513 621 623
f 621 130 623
f 623 130 132
f 303 264 131
f 264 303 133
f 303 413 133
f 303 411 413
f 134 413 482
f 413 515 482
f 413 411 515
f 482 515 586
f 586 515 623
f 623 132 586
f 413 378 133
f 413 134 378
f 135 465 493
f 493 465 597
f 597 465 569
f 569 136 597
f 137 253 53
f 53 253 251
f 253 361 251
f 363 361 253
f 363 135 493
f 463 363 493
f 361 363 463
f 597 567 463
f 597 463 493
f 567 597 136
f 675 567 136
f 673 567 675
f 675 11 673
f 13 11 675
f 13 138 11
f 11 138 54
f 139 157 187
f 55 187 157
f 137 55 157
f 53 55 137
f 85 54 138
f 85 138 87
f 87 140 85
f 85 140 56
f 155 57 187
f 57 139 187
f 57 141 139
f 187 55 155
f 56 142 58
f 140 142 56
f 143 57 59
f 143 141 57
f 58 144 60
f 142 144 58
f 158 143 194
f 143 61 194
f 143 59 61
f 145 158 194
f 173 60 144
f 173 144 175
f 175 146 173
f 173 146 62
f 156 194 61
f 145 194 156
f 63 145 156
f 147 145 63
f 62 148 64
f 146 148 62
f 63 252 147
f 147 252 254
f 149 254 252
f 149 252 65
f 174 207 66
f 174 64 207
f 64 150 207
f 64 148 150
f 65 362 149
f 149 362 364
f 464 364 362
f 464 466 364
f 568 613 151
f 466 568 151
f 464 568 466
f 67 613 568
f 86 121 68
f 121 86 66
f 207 121 66
f 209 121 207
f 207 150 209
f 209 150 152
f 613 570 151
f 67 674 613
f 674 570 613
f 674 676 570
f 12 676 674
f 12 14 676
f 121 88 68
f 88 12 68
f 88 14 12
f 88 121 176
f 176 121 209
f 209 152 176
f 494 479 69
f 598 583 494
f 494 583 479
f 700 689 598
f 598 689 583
f 32 27 700
f 700 27 689
f 32 70 27
f 71 496 69
f 69 496 494
f 600 494 496
f 598 494 600
f 702 598 600
f 700 598 702
f 34 700 702
f 32 700 34
f 70 32 72
f 72 32 34
f 73 498 71
f 71 498 496
f 602 496 498
f 600 496 602
f 704 600 602
f 702 600 704
f 36 702 704
f 34 702 36
f 72 34 74
f 74 34 36
f 480 498 73
f 584 602 480
f 480 602 498
f 690 704 584
f 584 704 602
f 28 36 690
f 690 36 704
f 74 36 28
f 215 265 297
f 297 265 405
f 405 265 379
f 405 379 509
f 509 379 483
f 509 483 617
f 617 483 587
f 587 216 617
f 217 161 199
f 215 297 161
f 161 297 199
f 297 263 199
f 263 127 199
f 405 377 263
f 405 263 297
f 509 481 377
f 509 377 405
f 617 585 481
f 617 481 509
f 617 216 585
f 216 128 585
f 216 218 128
f 203 219 199
f 199 219 217
f 199 127 129
f 199 129 203
f 218 691 723
f 130 218 723
f 128 218 130
f 691 220 723
f 205 221 203
f 203 221 219
f 203 129 131
f 203 131 205
f 130 723 692
f 222 130 692
f 132 130 222
f 723 220 692
f 205 162 221
f 307 223 264
f 264 223 131
f 223 162 131
f 162 205 131
f 133 307 264
f 482 517 134
f 586 625 517
f 586 517 482
f 586 132 625
f 132 224 625
f 132 222 224
f 307 266 223
f 133 378 307
f 378 266 307
f 378 380 266
f 517 484 134
f 484 378 134
f 484 380 378
f 484 517 588
f 588 517 625
f 625 224 588
f 225 365 389
f 389 365 135
f 365 465 135
f 365 467 465
f 467 569 465
f 571 569 467
f 136 569 699
f 569 677 699
f 569 571 677
f 677 226 699
f 227 255 137
f 137 255 253
f 255 225 389
f 363 255 389
f 253 255 363
f 389 135 363
f 699 675 136
f 675 699 226
f 15 675 226
f 13 675 15
f 15 228 13
f 13 228 138
f 188 157 139
f 137 157 188
f 229 137 188
f 227 137 229
f 87 138 228
f 87 228 89
f 89 230 87
f 87 230 140
f 188 139 159
f 139 231 159
f 139 141 231
f 229 188 159
f 140 232 142
f 230 232 140
f 160 231 192
f 231 143 192
f 231 141 143
f 233 160 192
f 142 234 144
f 232 234 142
f 158 192 143
f 233 192 158
f 145 233 158
f 235 233 145
f 175 144 234
f 175 234 177
f 177 236 175
f 175 236 146
f 256 235 296
f 235 147 296
f 235 145 147
f 237 256 296
f 146 238 148
f 236 238 146
f 254 296 147
f 366 237 404
f 404 237 149
f 237 296 149
f 296 254 149
f 239 366 404
f 238 275 309
f 150 238 309
f 148 238 150
f 275 240 309
f 364 404 149
f 404 364 239
f 364 468 239
f 364 466 468
f 241 468 466
f 241 466 151
f 150 309 276
f 242 150 276
f 152 150 242
f 309 240 276
f 151 570 241
f 241 570 572
f 676 717 243
f 572 676 243
f 570 676 572
f 14 49 717
f 14 717 676
f 88 123 49
f 88 49 14
f 176 211 123
f 176 123 88
f 176 152 211
f 152 244 211
f 152 242 244
f 717 678 243
f 678 717 16
f 16 717 49
f 16 49 90
f 90 49 123
f 90 123 178
f 178 123 211
f 211 244 178
f 315 453 497
f 497 453 601
f 601 453 557
f 601 557 703
f 703 557 663
f 703 663 35
f 35 663 1
f 35 1 109
f 109 1 75
f 75 316 109
f 499 317 497
f 497 317 315
f 497 603 499
f 497 601 603
f 601 705 603
f 601 703 705
f 703 37 705
f 703 35 37
f 35 111 37
f 35 109 111
f 163 197 316
f 197 109 316
f 197 111 109
f 197 163 215
f 163 265 215
f 163 267 265
f 267 379 265
f 381 379 267
f 381 483 379
f 485 483 381
f 485 587 483
f 589 587 485
f 589 318 587
f 587 318 216
f 501 319 499
f 499 319 317
f 499 605 501
f 499 603 605
f 603 707 605
f 603 705 707
f 705 39 707
f 705 37 39
f 37 113 39
f 37 111 113
f 197 161 217
f 113 197 217
f 111 197 113
f 197 215 161
f 318 693 721
f 218 318 721
f 216 318 218
f 693 320 721
f 503 321 501
f 501 321 319
f 501 607 503
f 501 605 607
f 605 709 607
f 605 707 709
f 707 41 709
f 707 39 41
f 39 115 41
f 39 113 115
f 113 217 219
f 113 219 115
f 721 691 218
f 721 320 691
f 320 220 691
f 320 322 220
f 503 454 321
f 454 503 323
f 503 609 323
f 503 607 609
f 607 711 609
f 607 709 711
f 324 711 2
f 711 41 2
f 711 709 41
f 2 41 325
f 41 117 325
f 41 115 117
f 115 219 221
f 115 221 117
f 692 725 222
f 692 220 725
f 220 326 725
f 220 322 326
f 609 558 323
f 558 609 664
f 664 609 711
f 711 324 664
f 117 76 325
f 221 162 117
f 162 76 117
f 162 164 76
f 327 164 162
f 327 162 223
f 222 725 694
f 328 222 694
f 224 222 328
f 725 326 694
f 223 266 327
f 327 266 268
f 380 268 266
f 380 382 268
f 484 382 380
f 484 486 382
f 588 486 484
f 588 590 486
f 588 224 590
f 590 224 328
f 329 367 387
f 387 367 491
f 491 367 469
f 491 469 595
f 595 469 573
f 595 573 697
f 697 573 679
f 679 330 697
f 365 225 387
f 225 329 387
f 225 331 329
f 491 467 365
f 491 365 387
f 595 571 467
f 595 467 491
f 697 677 571
f 697 571 595
f 330 17 31
f 330 31 226
f 697 330 226
f 677 697 226
f 17 332 31
f 333 257 227
f 227 257 255
f 225 255 257
f 225 257 331
f 31 15 226
f 31 332 15
f 332 228 15
f 332 334 228
f 335 227 229
f 335 333 227
f 89 228 334
f 89 334 91
f 91 336 89
f 89 336 230
f 190 159 231
f 229 159 190
f 337 229 190
f 335 229 337
f 230 338 232
f 336 338 230
f 160 190 231
f 337 190 160
f 233 337 160
f 339 337 233
f 338 179 201
f 234 338 201
f 232 338 234
f 179 340 201
f 258 339 294
f 339 235 294
f 339 233 235
f 341 258 294
f 201 177 234
f 201 340 177
f 340 236 177
f 340 342 236
f 256 294 235
f 368 341 402
f 402 341 237
f 341 294 237
f 294 256 237
f 343 368 402
f 342 277 305
f 238 342 305
f 236 342 238
f 277 344 305
f 366 402 237
f 343 402 366
f 239 343 366
f 345 343 239
f 305 275 238
f 305 344 275
f 344 240 275
f 344 346 240
f 239 468 345
f 345 468 470
f 347 470 468
f 347 468 241
f 276 311 242
f 276 240 311
f 240 348 311
f 240 346 348
f 241 572 347
f 347 572 574
f 349 574 572
f 349 572 243
f 242 311 278
f 350 242 278
f 244 242 350
f 311 348 278
f 719 351 678
f 351 243 678
f 351 349 243
f 16 51 719
f 16 719 678
f 90 125 51
f 90 51 16
f 178 213 125
f 178 125 90
f 178 244 213
f 244 352 213
f 244 350 352
f 719 680 351
f 680 719 18
f 18 719 51
f 18 51 92
f 92 51 125
f 92 125 180
f 180 125 213
f 213 352 180
f 415 455 495
f 495 455 599
f 599 455 559
f 599 559 701
f 701 559 665
f 701 665 33
f 33 665 3
f 33 3 105
f 105 3 77
f 77 416 105
f 417 353 393
f 415 495 353
f 353 495 393
f 495 453 393
f 453 315 393
f 599 557 453
f 599 453 495
f 701 663 557
f 701 557 599
f 33 1 663
f 33 663 701
f 105 75 1
f 105 1 33
f 416 165 195
f 416 195 316
f 105 416 316
f 75 105 316
f 165 418 195
f 395 419 393
f 393 419 417
f 393 315 317
f 393 317 395
f 195 163 316
f 163 195 418
f 269 163 418
f 267 163 269
f 269 381 267
f 383 381 269
f 383 485 381
f 487 485 383
f 487 589 485
f 591 589 487
f 591 420 589
f 589 420 318
f 397 421 395
f 395 421 419
f 395 317 319
f 395 319 397
f 422 722 693
f 318 422 693
f 420 422 318
f 722 320 693
f 399 423 397
f 397 423 421
f 397 319 321
f 397 321 399
f 695 722 422
f 695 424 722
f 424 320 722
f 424 322 320
f 399 354 423
f 505 425 454
f 454 425 321
f 425 354 321
f 354 399 321
f 323 505 454
f 2 43 324
f 325 43 2
f 696 426 726
f 726 326 696
f 326 424 696
f 326 322 424
f 505 456 425
f 323 558 505
f 558 456 505
f 558 560 456
f 664 560 558
f 664 666 560
f 43 4 324
f 4 664 324
f 4 666 664
f 325 76 43
f 76 4 43
f 76 78 4
f 164 78 76
f 164 166 78
f 427 166 164
f 427 164 327
f 328 694 726
f 426 328 726
f 428 328 426
f 326 726 694
f 327 268 427
f 427 268 270
f 382 270 268
f 382 384 270
f 486 384 382
f 486 488 384
f 590 488 486
f 590 592 488
f 590 328 592
f 592 328 428
f 429 369 329
f 329 369 367
f 369 469 367
f 471 469 369
f 471 573 469
f 575 573 471
f 575 679 573
f 681 679 575
f 330 679 29
f 679 19 29
f 679 681 19
f 19 430 29
f 431 259 283
f 331 283 259
f 429 331 259
f 329 331 429
f 29 17 330
f 29 430 17
f 430 332 17
f 430 432 332
f 257 333 283
f 333 431 283
f 333 433 431
f 283 331 257
f 432 93 107
f 334 432 107
f 332 432 334
f 93 434 107
f 435 333 335
f 435 433 333
f 107 91 334
f 107 434 91
f 434 336 91
f 434 436 336
f 260 435 290
f 435 337 290
f 435 335 337
f 437 260 290
f 336 438 338
f 436 438 336
f 339 292 337
f 337 292 290
f 437 290 292
f 437 292 439
f 440 202 179
f 338 440 179
f 438 440 338
f 202 340 179
f 258 292 339
f 370 439 400
f 400 439 341
f 439 292 341
f 292 258 341
f 441 370 400
f 181 202 440
f 181 442 202
f 442 340 202
f 442 342 340
f 368 400 341
f 441 400 368
f 343 441 368
f 443 441 343
f 277 342 442
f 277 442 279
f 279 444 277
f 277 444 344
f 472 443 508
f 443 345 508
f 443 343 345
f 445 472 508
f 344 446 346
f 444 446 344
f 470 508 345
f 445 508 470
f 347 445 470
f 447 445 347
f 346 448 348
f 446 448 346
f 615 449 574
f 449 347 574
f 449 447 347
f 349 615 574
f 278 313 350
f 278 348 313
f 348 450 313
f 348 448 450
f 615 576 449
f 451 576 615
f 349 451 615
f 351 451 349
f 350 313 280
f 452 350 280
f 352 350 452
f 313 450 280
f 351 680 451
f 451 680 682
f 18 682 680
f 18 20 682
f 92 20 18
f 92 94 20
f 180 94 92
f 180 182 94
f 180 352 182
f 182 352 452
f 519 355 391
f 391 355 415
f 355 455 415
f 355 457 455
f 457 559 455
f 561 559 457
f 561 665 559
f 667 665 561
f 667 3 665
f 5 3 667
f 5 77 3
f 79 77 5
f 79 520 77
f 77 520 416
f 353 417 391
f 417 519 391
f 417 521 519
f 391 415 353
f 165 416 520
f 165 520 167
f 167 522 165
f 165 522 418
f 523 245 289
f 419 289 245
f 521 419 245
f 417 419 521
f 269 418 522
f 269 522 271
f 271 383 269
f 385 383 271
f 510 487 524
f 487 385 524
f 487 383 385
f 618 591 510
f 510 591 487
f 618 420 591
f 291 525 289
f 289 525 523
f 289 419 421
f 289 421 291
f 489 510 524
f 510 489 593
f 510 593 618
f 593 526 618
f 526 420 618
f 526 422 420
f 291 246 525
f 527 246 291
f 421 527 291
f 423 527 421
f 528 724 695
f 422 528 695
f 526 528 422
f 724 424 695
f 401 529 354
f 529 423 354
f 529 527 423
f 425 401 354
f 426 696 724
f 528 426 724
f 530 426 528
f 424 724 696
f 401 356 529
f 425 456 401
f 456 356 401
f 456 458 356
f 560 458 456
f 560 562 458
f 666 713 531
f 562 666 531
f 560 666 562
f 4 45 713
f 4 713 666
f 80 532 45
f 4 80 45
f 78 80 4
f 166 80 78
f 166 168 80
f 166 427 308
f 272 166 308
f 168 166 272
f 272 308 414
f 272 414 386
f 386 414 518
f 386 518 490
f 490 518 626
f 490 626 594
f 626 428 594
f 428 530 594
f 428 426 530
f 713 668 531
f 668 713 6
f 6 713 45
f 45 532 6
f 270 308 427
f 384 414 270
f 270 414 308
f 488 518 384
f 384 518 414
f 592 626 488
f 488 626 518
f 428 626 592
f 533 371 429
f 429 371 369
f 371 471 369
f 473 471 371
f 473 575 471
f 577 575 473
f 577 681 575
f 683 681 577
f 683 19 681
f 21 19 683
f 21 534 19
f 19 534 430
f 284 259 431
f 429 259 284
f 535 429 284
f 533 429 535
f 534 95 103
f 432 534 103
f 430 534 432
f 95 536 103
f 284 431 261
f 431 537 261
f 431 433 537
f 535 284 261
f 103 93 432
f 103 536 93
f 536 434 93
f 536 538 434
f 262 537 288
f 537 435 288
f 537 433 435
f 539 262 288
f 434 540 436
f 538 540 434
f 260 288 435
f 539 288 260
f 437 539 260
f 541 539 437
f 436 542 438
f 540 542 436
f 372 541 398
f 541 439 398
f 541 437 439
f 543 372 398
f 438 544 440
f 542 544 438
f 370 398 439
f 474 543 504
f 504 543 441
f 543 398 441
f 398 370 441
f 545 474 504
f 181 440 544
f 181 544 183
f 183 546 181
f 181 546 442
f 443 506 441
f 441 506 504
f 545 504 506
f 545 506 547
f 548 306 279
f 442 548 279
f 546 548 442
f 306 444 279
f 472 506 443
f 547 506 472
f 445 547 472
f 549 547 445
f 281 306 548
f 281 550 306
f 550 444 306
f 550 446 444
f 551 445 447
f 551 549 445
f 446 552 448
f 550 552 446
f 553 447 449
f 553 551 447
f 282 554 314
f 314 450 282
f 450 552 282
f 450 448 552
f 449 576 553
f 553 576 578
f 555 578 576
f 555 576 451
f 452 280 314
f 554 452 314
f 556 452 554
f 450 314 280
f 451 682 555
f 555 682 684
f 20 684 682
f 20 22 684
f 94 22 20
f 94 96 22
f 182 96 94
f 182 184 96
f 182 452 184
f 184 452 556
f 627 357 519
f 519 357 355
f 357 457 355
f 459 457 357
f 459 561 457
f 563 561 459
f 563 667 561
f 669 667 563
f 669 5 667
f 7 5 669
f 7 79 5
f 81 79 7
f 81 628 79
f 79 628 520
f 629 247 287
f 521 287 247
f 627 521 247
f 519 521 627
f 167 520 628
f 167 628 169
f 169 630 167
f 167 630 522
f 245 523 287
f 523 629 287
f 523 631 629
f 287 521 245
f 632 298 271
f 522 632 271
f 630 632 522
f 406 385 298
f 298 385 271
f 406 524 385
f 633 523 525
f 633 631 523
f 273 298 632
f 298 273 634
f 408 298 634
f 406 298 408
f 524 406 489
f 406 512 489
f 406 408 512
f 620 593 512
f 512 593 489
f 620 526 593
f 293 635 246
f 635 525 246
f 635 633 525
f 527 293 246
f 636 410 408
f 636 408 634
f 514 408 410
f 512 408 514
f 622 512 514
f 620 512 622
f 526 620 528
f 528 620 622
f 293 248 635
f 637 248 293
f 527 637 293
f 529 637 527
f 638 412 410
f 638 410 636
f 516 410 412
f 514 410 516
f 624 514 516
f 622 514 624
f 528 622 530
f 530 622 624
f 529 356 637
f 637 356 358
f 458 358 356
f 458 460 358
f 562 611 639
f 460 562 639
f 458 562 460
f 531 611 562
f 80 119 532
f 170 640 119
f 80 170 119
f 168 170 80
f 272 170 168
f 272 274 170
f 638 274 412
f 274 386 412
f 274 272 386
f 490 516 386
f 386 516 412
f 594 624 490
f 490 624 516
f 530 624 594
f 611 564 639
f 531 668 611
f 668 564 611
f 668 670 564
f 6 670 668
f 6 8 670
f 119 82 532
f 82 6 532
f 82 8 6
f 119 640 82
f 388 371 533
f 641 475 388
f 475 371 388
f 475 473 371
f 475 577 473
f 579 577 475
f 579 683 577
f 685 683 579
f 685 21 683
f 23 21 685
f 23 642 21
f 21 642 534
f 388 533 373
f 533 643 373
f 533 535 643
f 641 388 373
f 95 534 642
f 95 642 97
f 97 644 95
f 95 644 536
f 286 261 537
f 535 261 286
f 645 535 286
f 643 535 645
f 536 646 538
f 644 646 536
f 262 286 537
f 645 286 262
f 539 645 262
f 647 645 539
f 538 648 540
f 646 648 538
f 374 647 396
f 647 541 396
f 647 539 541
f 649 374 396
f 98 650 112
f 112 542 98
f 542 648 98
f 542 540 648
f 372 396 541
f 476 649 502
f 502 649 543
f 649 396 543
f 396 372 543
f 651 476 502
f 652 114 112
f 652 112 650
f 542 112 544
f 544 112 114
f 474 502 543
f 580 651 608
f 608 651 545
f 651 502 545
f 502 474 545
f 653 580 608
f 99 114 652
f 654 204 183
f 654 183 544
f 99 654 544
f 114 99 544
f 204 546 183
f 547 610 545
f 545 610 608
f 653 608 610
f 653 610 655
f 185 204 654
f 185 656 204
f 656 546 204
f 656 548 546
f 549 612 547
f 547 612 610
f 655 610 612
f 655 612 657
f 658 310 281
f 548 658 281
f 656 658 548
f 310 550 281
f 551 614 549
f 549 614 612
f 657 612 614
f 657 614 659
f 660 312 310
f 660 310 658
f 550 310 552
f 552 310 312
f 553 616 551
f 551 616 614
f 659 614 616
f 659 616 661
f 554 282 312
f 660 554 312
f 662 554 660
f 552 312 282
f 578 616 553
f 686 661 720
f 720 661 555
f 661 616 555
f 616 578 555
f 686 720 52
f 686 52 24
f 24 52 126
f 24 126 100
f 100 126 214
f 100 214 186
f 214 556 186
f 556 662 186
f 556 554 662
f 684 720 555
f 22 52 684
f 684 52 720
f 96 126 22
f 22 126 52
f 184 214 96
f 96 214 126
f 556 214 184
f 727 359 627
f 627 359 357
f 359 459 357
f 461 459 359
f 461 563 459
f 565 563 461
f 565 669 563
f 671 669 565
f 671 7 669
f 9 7 671
f 9 81 7
f 83 81 9
f 83 728 81
f 81 728 628
f 729 249 629
f 629 249 247
f 627 247 249
f 627 249 727
f 169 628 728
f 169 728 171
f 171 730 169
f 169 730 630
f 731 629 631
f 731 729 629
f 630 732 632
f 730 732 630
f 733 153 191
f 633 191 153
f 731 633 153
f 631 633 731
f 734 300 273
f 632 734 273
f 732 734 632
f 300 634 273
f 191 154 733
f 735 154 191
f 633 735 191
f 635 735 633
f 736 302 300
f 736 300 734
f 634 300 636
f 636 300 302
f 295 737 248
f 737 635 248
f 737 735 635
f 637 295 248
f 738 304 302
f 738 302 736
f 636 302 638
f 638 302 304
f 295 250 737
f 403 739 358
f 358 739 637
f 739 250 637
f 250 295 637
f 460 507 403
f 460 403 358
f 639 507 460
f 172 740 640
f 172 640 170
f 738 172 304
f 172 274 304
f 172 170 274
f 638 304 274
f 403 360 739
f 360 403 462
f 462 403 507
f 639 564 507
f 564 462 507
f 564 566 462
f 670 566 564
f 670 672 566
f 8 672 670
f 8 10 672
f 82 10 8
f 82 84 10
f 82 640 84
f 84 640 740
f 741 477 641
f 641 477 475
f 477 579 475
f 581 579 477
f 581 685 579
f 687 685 581
f 687 23 685
f 25 23 687
f 25 742 23
f 23 742 642
f 390 373 643
f 641 373 390
f 743 641 390
f 741 641 743
f 744 104 97
f 642 744 97
f 742 744 642
f 104 644 97
f 390 643 375
f 643 745 375
f 643 645 745
f 743 390 375
f 101 104 744
f 101 746 104
f 746 644 104
f 746 646 644
f 376 745 394
f 745 647 394
f 745 645 647
f 747 376 394
f 102 748 110
f 110 648 102
f 648 746 102
f 648 646 746
f 374 394 647
f 747 394 374
f 649 747 374
f 749 747 649
f 650 98 110
f 748 650 110
f 750 650 748
f 648 110 98
f 649 476 749
f 749 476 478
f 476 651 606
f 582 476 606
f 478 476 582
f 582 606 708
f 582 708 688
f 688 708 40
f 688 40 26
f 40 652 26
f 652 750 26
f 652 650 750
f 580 606 651
f 653 710 580
f 710 606 580
f 710 708 606
f 42 708 710
f 40 708 42
f 652 40 99
f 40 116 99
f 40 42 116
f 116 654 99
f 655 712 653
f 653 712 710
f 44 710 712
f 42 710 44
f 118 42 44
f 116 42 118
f 654 116 185
f 116 206 185
f 116 118 206
f 206 656 185
f 657 714 655
f 655 714 712
f 46 712 714
f 44 712 46
f 120 44 46
f 118 44 120
f 208 118 120
f 206 118 208
f 656 206 658
f 658 206 208
f 659 716 657
f 657 716 714
f 48 714 716
f 46 714 48
f 122 46 48
f 120 46 122
f 210 120 122
f 208 120 210
f 658 208 660
f 660 208 210
f 661 718 659
f 659 718 716
f 50 716 718
f 48 716 50
f 124 48 50
f 122 48 124
f 212 122 124
f 210 122 212
f 660 210 662
f 662 210 212
f 686 718 661
f 24 50 686
f 686 50 718
f 100 124 24
f 24 124 50
f 186 212 100
f 100 212 124
f 662 212 186
f 53 251 285
f 285 251 727
f 251 359 727
f 251 361 359
f 361 461 359
f 463 461 361
f 463 565 461
f 567 565 463
f 567 671 565
f 673 671 567
f 673 9 671
f 11 9 673
f 106 83 54
f 83 11 54
f 83 9 11
f 106 728 83
f 249 729 285
f 729 53 285
f 729 55 53
f 285 727 249
f 85 106 54
f 56 196 171
f 56 171 728
f 85 56 728
f 106 85 728
f 196 730 171
f 57 155 189
f 731 189 155
f 55 731 155
f 729 731 55
f 58 198 196
f 58 196 56
f 730 196 732
f 732 196 198
f 153 733 189
f 733 57 189
f 733 59 57
f 189 731 153
f 60 200 198
f 60 198 58
f 732 198 734
f 734 198 200
f 193 61 154
f 61 733 154
f 61 59 733
f 735 193 154
f 173 200 60
f 173 62 200
f 62 734 200
f 62 736 734
f 193 156 61
f 63 156 193
f 735 63 193
f 737 63 735
f 736 64 738
f 62 64 736
f 737 250 63
f 63 250 252
f 65 252 250
f 65 250 739
f 174 66 740
f 174 740 172
f 172 738 174
f 174 738 64
f 739 360 65
f 65 360 362
f 462 362 360
f 462 464 362
f 566 464 462
f 566 568 464
f 672 715 67
f 568 672 67
f 566 672 568
f 10 47 715
f 10 715 672
f 86 68 47
f 10 86 47
f 84 86 10
f 84 740 86
f 86 740 66
f 715 674 67
f 674 715 12
f 12 715 47
f 47 68 12
f 492 477 741
f 596 581 492
f 492 581 477
f 698 687 596
f 596 687 581
f 30 25 698
f 698 25 687
f 30 742 25
f 492 741 479
f 741 69 479
f 741 743 69
f 492 479 583
f 492 583 596
f 596 583 689
f 596 689 698
f 698 689 27
f 698 27 30
f 27 70 30
f 70 742 30
f 70 744 742
f 392 375 745
f 743 375 392
f 71 743 392
f 69 743 71
f 72 108 101
f 744 72 101
f 70 72 744
f 108 746 101
f 376 392 745
f 71 392 376
f 747 71 376
f 73 71 747
f 748 102 108
f 72 748 108
f 74 748 72
f 746 108 102
f 480 73 500
f 73 749 500
f 73 747 749
f 480 500 604
f 480 604 584
f 584 604 706
f 584 706 690
f 690 706 38
f 690 38 28
f 38 750 28
f 750 74 28
f 750 748 74
f 478 500 749
f 582 604 478
f 478 604 500
f 688 706 582
f 582 706 604
f 26 38 688
f 688 38 706
f 750 38 26
