# Converted from NanoShaper .vert/.face
v -14.920000 2.586000 -15.843000
v -14.444000 2.586000 -15.843000
v -15.652000 2.586000 -15.343000
v -13.774000 2.586000 -15.343000
v -16.473000 2.586000 -14.843000
v -13.275000 2.586000 -14.843000
v -16.649000 2.586000 -14.343000
v -12.881000 2.586000 -14.343000
v -16.753000 2.586000 -13.843000
v -12.736000 2.586000 -13.843000
v -16.641000 2.586000 -13.343000
v -12.641000 2.586000 -13.343000
v -16.118000 2.586000 -12.843000
v -12.705000 2.586000 -12.843000
v -15.719000 2.586000 -12.343000
v -12.664000 2.586000 -12.343000
v -15.531000 2.586000 -11.843000
v -12.726000 2.586000 -11.843000
v -15.052000 2.586000 -11.343000
v -12.776000 2.586000 -11.343000
v -14.386000 2.586000 -10.843000
v -13.321000 2.586000 -10.843000
v -15.483000 6.586000 -16.343000
v -13.185000 6.586000 -16.343000
v -15.645000 6.586000 -15.843000
v -12.860000 6.586000 -15.843000
v -15.707000 6.586000 -15.343000
v -12.753000 6.586000 -15.343000
v -15.724000 6.586000 -14.843000
v -12.694000 6.586000 -14.843000
v -15.889000 6.586000 -14.343000
v -12.565000 6.586000 -14.343000
v -16.133000 6.586000 -13.843000
v -12.371000 6.586000 -13.843000
v -16.389000 6.586000 -13.343000
v -12.286000 6.586000 -13.343000
v -16.622000 6.586000 -12.843000
v -12.694000 6.586000 -12.843000
v -16.874000 6.586000 -12.343000
v -12.956000 6.586000 -12.343000
v -16.982000 6.586000 -11.843000
v -13.000000 6.586000 -11.843000
v -17.020000 6.586000 -11.343000
v -12.725000 6.586000 -11.343000
v -16.908000 6.586000 -10.843000
v -11.836000 6.586000 -10.843000
v -16.550000 6.586000 -10.343000
v -10.906000 6.586000 -10.343000
v -15.668000 6.586000 -9.843000
v -10.741000 6.586000 -9.843000
v -14.800000 6.586000 -9.343000
v -10.636000 6.586000 -9.343000
v -14.109000 6.586000 -8.843000
v -10.782000 6.586000 -8.843000
v -13.626000 6.586000 -8.343000
v -11.201000 6.586000 -8.343000
v -13.049000 6.586000 -7.843000
v -11.421000 6.586000 -7.843000
v -16.684000 2.586000 -14.186000
v -16.684000 2.586000 -13.439000
v -16.184000 2.586000 -15.106000
v -16.184000 2.586000 -12.888000
v -15.684000 2.586000 -15.322000
v -15.684000 2.586000 -12.254000
v -15.184000 2.586000 -15.736000
v -15.184000 2.586000 -11.484000
v -14.684000 2.586000 -15.872000
v -14.684000 2.586000 -10.989000
v -14.184000 2.586000 -15.739000
v -14.184000 2.586000 -10.771000
v -13.684000 2.586000 -15.260000
v -13.684000 2.586000 -10.775000
v -13.184000 2.586000 -14.711000
v -13.184000 2.586000 -10.934000
v -12.684000 2.586000 -13.608000
v -12.684000 2.586000 -13.009000
v -12.684000 2.586000 -12.548000
v -12.684000 2.586000 -12.153000
v -16.684000 6.586000 -12.725000
v -16.684000 6.586000 -10.492000
v -16.184000 6.586000 -13.741000
v -16.184000 6.586000 -10.057000
v -15.684000 6.586000 -15.541000
v -15.684000 6.586000 -9.852000
v -15.184000 6.586000 -16.657000
v -15.184000 6.586000 -9.485000
v -14.684000 6.586000 -16.836000
v -14.684000 6.586000 -9.291000
v -14.184000 6.586000 -16.817000
v -14.184000 6.586000 -8.919000
v -13.684000 6.586000 -16.664000
v -13.684000 6.586000 -8.395000
v -13.184000 6.586000 -16.342000
v -13.184000 6.586000 -7.974000
v -12.684000 6.586000 -14.779000
v -12.684000 6.586000 -12.854000
v -12.684000 6.586000 -11.289000
v -12.684000 6.586000 -7.509000
v -12.184000 6.586000 -10.941000
v -12.184000 6.586000 -7.387000
v -11.684000 6.586000 -10.813000
v -11.684000 6.586000 -7.557000
v -11.184000 6.586000 -10.640000
v -11.184000 6.586000 -8.369000
v -10.684000 6.586000 -9.685000
v -10.684000 6.586000 -9.059000
v -17.184000 3.134000 -14.343000
v -17.184000 5.136000 -14.343000
v -16.684000 2.619000 -14.343000
v -16.684000 5.597000 -14.343000
v -16.184000 2.217000 -14.343000
v -16.184000 6.117000 -14.343000
v -15.684000 1.862000 -14.343000
v -15.684000 6.990000 -14.343000
v -15.184000 1.760000 -14.343000
v -15.184000 7.651000 -14.343000
v -14.684000 1.724000 -14.343000
v -14.684000 7.892000 -14.343000
v -14.184000 1.752000 -14.343000
v -14.184000 7.984000 -14.343000
v -13.684000 1.869000 -14.343000
v -13.684000 7.891000 -14.343000
v -13.184000 2.272000 -14.343000
v -13.184000 7.555000 -14.343000
v -12.684000 2.780000 -14.343000
v -12.684000 6.734000 -14.343000
v -12.184000 3.174000 -14.343000
v -12.184000 6.210000 -14.343000
v -11.684000 3.371000 -14.343000
v -11.684000 5.875000 -14.343000
v -11.184000 3.763000 -14.343000
v -11.184000 5.369000 -14.343000
v -16.684000 4.735000 -10.343000
v -16.684000 6.404000 -10.343000
v -16.184000 4.041000 -10.343000
v -16.184000 6.933000 -10.343000
v -15.684000 3.520000 -10.343000
v -15.684000 7.113000 -10.343000
v -15.184000 3.180000 -10.343000
v -15.184000 7.445000 -10.343000
v -14.684000 2.972000 -10.343000
v -14.684000 7.590000 -10.343000
v -14.184000 2.750000 -10.343000
v -14.184000 7.570000 -10.343000
v -13.684000 2.673000 -10.343000
v -13.684000 7.518000 -10.343000
v -13.184000 2.676000 -10.343000
v -13.184000 7.441000 -10.343000
v -12.684000 2.725000 -10.343000
v -12.684000 7.321000 -10.343000
v -12.184000 2.868000 -10.343000
v -12.184000 7.029000 -10.343000
v -11.684000 3.235000 -10.343000
v -11.684000 6.882000 -10.343000
v -11.184000 3.647000 -10.343000
v -11.184000 6.759000 -10.343000
v -10.684000 4.026000 -10.343000
v -10.684000 6.354000 -10.343000
v -15.917000 3.086000 -15.843000
v -13.794000 3.086000 -15.843000
v -16.559000 3.086000 -15.343000
v -13.279000 3.086000 -15.343000
v -17.005000 3.086000 -14.843000
v -12.818000 3.086000 -14.843000
v -17.132000 3.086000 -14.343000
v -12.326000 3.086000 -14.343000
v -17.082000 3.086000 -13.843000
v -12.147000 3.086000 -13.843000
v -16.971000 3.086000 -13.343000
v -12.124000 3.086000 -13.343000
v -16.642000 3.086000 -12.843000
v -12.185000 3.086000 -12.843000
v -16.282000 3.086000 -12.343000
v -12.187000 3.086000 -12.343000
v -16.139000 3.086000 -11.843000
v -12.066000 3.086000 -11.843000
v -15.980000 3.086000 -11.343000
v -11.700000 3.086000 -11.343000
v -15.487000 3.086000 -10.843000
v -11.659000 3.086000 -10.843000
v -14.935000 3.086000 -10.343000
v -11.831000 3.086000 -10.343000
v -14.678000 3.086000 -9.843000
v -12.129000 3.086000 -9.843000
v -14.691000 3.086000 -9.343000
v -12.292000 3.086000 -9.343000
v -14.521000 3.086000 -8.843000
v -12.802000 3.086000 -8.843000
v -15.028000 7.086000 -16.343000
v -13.313000 7.086000 -16.343000
v -15.385000 7.086000 -15.843000
v -12.953000 7.086000 -15.843000
v -15.482000 7.086000 -15.343000
v -12.856000 7.086000 -15.343000
v -15.504000 7.086000 -14.843000
v -12.873000 7.086000 -14.843000
v -15.646000 7.086000 -14.343000
v -12.891000 7.086000 -14.343000
v -15.928000 7.086000 -13.843000
v -12.822000 7.086000 -13.843000
v -16.091000 7.086000 -13.343000
v -12.923000 7.086000 -13.343000
v -16.354000 7.086000 -12.843000
v -13.227000 7.086000 -12.843000
v -16.536000 7.086000 -12.343000
v -13.339000 7.086000 -12.343000
v -16.666000 7.086000 -11.843000
v -13.311000 7.086000 -11.843000
v -16.714000 7.086000 -11.343000
v -13.172000 7.086000 -11.343000
v -16.563000 7.086000 -10.843000
v -12.832000 7.086000 -10.843000
v -15.758000 7.086000 -10.343000
v -12.289000 7.086000 -10.343000
v -14.774000 7.086000 -9.843000
v -11.785000 7.086000 -9.843000
v -14.096000 7.086000 -9.343000
v -11.601000 7.086000 -9.343000
v -13.650000 7.086000 -8.843000
v -11.806000 7.086000 -8.843000
v -13.025000 7.086000 -8.343000
v -12.328000 7.086000 -8.343000
v -16.684000 3.086000 -15.205000
v -16.684000 3.086000 -12.889000
v -16.184000 3.086000 -15.727000
v -16.184000 3.086000 -12.094000
v -15.684000 3.086000 -15.902000
v -15.684000 3.086000 -11.054000
v -15.184000 3.086000 -16.088000
v -15.184000 3.086000 -10.531000
v -14.684000 3.086000 -16.188000
v -14.684000 3.086000 -9.879000
v -14.684000 3.086000 -9.442000
v -14.684000 3.086000 -9.243000
v -14.184000 3.086000 -16.090000
v -14.184000 3.086000 -8.507000
v -13.684000 3.086000 -15.730000
v -13.684000 3.086000 -8.363000
v -13.184000 3.086000 -15.248000
v -13.184000 3.086000 -8.491000
v -12.684000 3.086000 -14.728000
v -12.684000 3.086000 -8.947000
v -12.184000 3.086000 -14.054000
v -12.184000 3.086000 -12.849000
v -12.184000 3.086000 -12.326000
v -12.184000 3.086000 -9.619000
v -11.684000 3.086000 -11.308000
v -11.684000 3.086000 -10.724000
v -16.684000 7.086000 -11.632000
v -16.684000 7.086000 -11.129000
v -16.184000 7.086000 -13.159000
v -16.184000 7.086000 -10.484000
v -15.684000 7.086000 -14.270000
v -15.684000 7.086000 -10.316000
v -15.184000 7.086000 -16.182000
v -15.184000 7.086000 -9.989000
v -14.684000 7.086000 -16.555000
v -14.684000 7.086000 -9.811000
v -14.184000 7.086000 -16.660000
v -14.184000 7.086000 -9.451000
v -13.684000 7.086000 -16.567000
v -13.684000 7.086000 -8.882000
v -13.184000 7.086000 -16.215000
v -13.184000 7.086000 -12.932000
v -13.184000 7.086000 -11.370000
v -13.184000 7.086000 -8.405000
v -12.684000 7.086000 -10.705000
v -12.684000 7.086000 -8.292000
v -12.184000 7.086000 -10.225000
v -12.184000 7.086000 -8.416000
v -11.684000 7.086000 -9.650000
v -11.684000 7.086000 -9.038000
v -17.184000 3.257000 -13.843000
v -17.184000 5.065000 -13.843000
v -16.684000 2.518000 -13.843000
v -16.684000 5.926000 -13.843000
v -16.184000 2.113000 -13.843000
v -16.184000 6.507000 -13.843000
v -15.684000 1.779000 -13.843000
v -15.684000 7.491000 -13.843000
v -15.184000 1.683000 -13.843000
v -15.184000 7.843000 -13.843000
v -14.684000 1.641000 -13.843000
v -14.684000 7.962000 -13.843000
v -14.184000 1.651000 -13.843000
v -14.184000 8.029000 -13.843000
v -13.684000 1.759000 -13.843000
v -13.684000 7.942000 -13.843000
v -13.184000 2.111000 -13.843000
v -13.184000 7.623000 -13.843000
v -12.684000 2.637000 -13.843000
v -12.684000 6.889000 -13.843000
v -12.184000 3.066000 -13.843000
v -12.184000 6.471000 -13.843000
v -11.684000 3.267000 -13.843000
v -11.684000 6.277000 -13.843000
v -11.184000 3.614000 -13.843000
v -11.184000 5.900000 -13.843000
v -16.184000 4.211000 -9.843000
v -16.184000 6.366000 -9.843000
v -15.684000 3.611000 -9.843000
v -15.684000 6.578000 -9.843000
v -15.184000 3.294000 -9.843000
v -15.184000 6.935000 -9.843000
v -14.684000 3.089000 -9.843000
v -14.684000 7.113000 -9.843000
v -14.184000 2.793000 -9.843000
v -14.184000 7.309000 -9.843000
v -13.684000 2.696000 -9.843000
v -13.684000 7.452000 -9.843000
v -13.184000 2.636000 -9.843000
v -13.184000 7.526000 -9.843000
v -12.684000 2.729000 -9.843000
v -12.684000 7.455000 -9.843000
v -12.184000 3.036000 -9.843000
v -12.184000 7.308000 -9.843000
v -11.684000 3.544000 -9.843000
v -11.684000 7.039000 -9.843000
v -11.184000 3.821000 -9.843000
v -11.184000 6.873000 -9.843000
v -10.684000 4.195000 -9.843000
v -10.684000 6.527000 -9.843000
v -16.528000 3.586000 -15.843000
v -13.649000 3.586000 -15.843000
v -17.053000 3.586000 -15.343000
v -13.126000 3.586000 -15.343000
v -17.405000 3.586000 -14.843000
v -12.108000 3.586000 -14.843000
v -17.493000 3.586000 -14.343000
v -11.350000 3.586000 -14.343000
v -17.379000 3.586000 -13.843000
v -11.211000 3.586000 -13.843000
v -17.083000 3.586000 -13.343000
v -11.221000 3.586000 -13.343000
v -16.773000 3.586000 -12.843000
v -11.290000 3.586000 -12.843000
v -16.555000 3.586000 -12.343000
v -11.158000 3.586000 -12.343000
v -16.493000 3.586000 -11.843000
v -10.771000 3.586000 -11.843000
v -16.383000 3.586000 -11.343000
v -10.647000 3.586000 -11.343000
v -16.040000 3.586000 -10.843000
v -10.792000 3.586000 -10.843000
v -15.749000 3.586000 -10.343000
v -11.293000 3.586000 -10.343000
v -15.658000 3.586000 -9.843000
v -11.630000 3.586000 -9.843000
v -15.647000 3.586000 -9.343000
v -11.826000 3.586000 -9.343000
v -15.517000 3.586000 -8.843000
v -12.082000 3.586000 -8.843000
v -14.726000 3.586000 -8.343000
v -12.719000 3.586000 -8.343000
v -13.696000 3.586000 -7.843000
v -13.575000 3.586000 -7.843000
v -15.031000 7.586000 -15.843000
v -13.307000 7.586000 -15.843000
v -15.163000 7.586000 -15.343000
v -13.174000 7.586000 -15.343000
v -15.185000 7.586000 -14.843000
v -13.190000 7.586000 -14.843000
v -15.270000 7.586000 -14.343000
v -13.215000 7.586000 -14.343000
v -15.592000 7.586000 -13.843000
v -13.149000 7.586000 -13.843000
v -15.735000 7.586000 -13.343000
v -13.302000 7.586000 -13.343000
v -15.982000 7.586000 -12.843000
v -13.632000 7.586000 -12.843000
v -16.118000 7.586000 -12.343000
v -13.694000 7.586000 -12.343000
v -16.211000 7.586000 -11.843000
v -13.627000 7.586000 -11.843000
v -16.093000 7.586000 -11.343000
v -13.655000 7.586000 -11.343000
v -15.585000 7.586000 -10.843000
v -13.706000 7.586000 -10.843000
v -14.764000 7.586000 -10.343000
v -14.465000 7.586000 -10.343000
v -17.184000 3.586000 -15.210000
v -17.184000 3.586000 -13.509000
v -16.684000 3.586000 -15.678000
v -16.684000 3.586000 -12.681000
v -16.184000 3.586000 -16.066000
v -16.184000 3.586000 -11.018000
v -15.684000 3.586000 -16.180000
v -15.684000 3.586000 -10.086000
v -15.184000 3.586000 -16.207000
v -15.184000 3.586000 -8.505000
v -14.684000 3.586000 -16.286000
v -14.684000 3.586000 -8.328000
v -14.184000 3.586000 -16.189000
v -14.184000 3.586000 -8.009000
v -13.684000 3.586000 -15.874000
v -13.684000 3.586000 -7.842000
v -13.184000 3.586000 -15.394000
v -13.184000 3.586000 -7.952000
v -12.684000 3.586000 -15.068000
v -12.684000 3.586000 -8.369000
v -12.184000 3.586000 -14.867000
v -12.184000 3.586000 -8.744000
v -11.684000 3.586000 -14.685000
v -11.684000 3.586000 -9.721000
v -11.184000 3.586000 -12.389000
v -11.184000 3.586000 -10.452000
v -10.684000 3.586000 -11.632000
v -10.684000 3.586000 -11.091000
v -16.184000 7.586000 -12.047000
v -16.184000 7.586000 -11.582000
v -15.684000 7.586000 -13.612000
v -15.684000 7.586000 -10.927000
v -15.184000 7.586000 -14.864000
v -15.184000 7.586000 -10.475000
v -14.684000 7.586000 -16.197000
v -14.684000 7.586000 -10.339000
v -14.184000 7.586000 -16.341000
v -14.184000 7.586000 -10.373000
v -13.684000 7.586000 -16.215000
v -13.684000 7.586000 -12.666000
v -13.684000 7.586000 -12.271000
v -13.684000 7.586000 -10.965000
v -13.184000 7.586000 -15.485000
v -13.184000 7.586000 -15.208000
v -13.184000 7.586000 -14.155000
v -13.184000 7.586000 -13.613000
v -16.684000 2.629000 -13.343000
v -16.684000 6.144000 -13.343000
v -16.184000 2.255000 -13.343000
v -16.184000 6.942000 -13.343000
v -15.684000 1.895000 -13.343000
v -15.684000 7.633000 -13.343000
v -15.184000 1.742000 -13.343000
v -15.184000 7.938000 -13.343000
v -14.684000 1.676000 -13.343000
v -14.684000 8.024000 -13.343000
v -14.184000 1.644000 -13.343000
v -14.184000 7.952000 -13.343000
v -13.684000 1.723000 -13.343000
v -13.684000 7.826000 -13.343000
v -13.184000 2.029000 -13.343000
v -13.184000 7.464000 -13.343000
v -12.684000 2.543000 -13.343000
v -12.684000 6.831000 -13.343000
v -12.184000 3.045000 -13.343000
v -12.184000 6.545000 -13.343000
v -11.684000 3.289000 -13.343000
v -11.684000 6.395000 -13.343000
v -11.184000 3.623000 -13.343000
v -11.184000 6.065000 -13.343000
v -15.684000 3.622000 -9.343000
v -15.684000 5.998000 -9.343000
v -15.184000 3.296000 -9.343000
v -15.184000 6.444000 -9.343000
v -14.684000 3.082000 -9.343000
v -14.684000 6.638000 -9.343000
v -14.184000 2.776000 -9.343000
v -14.184000 7.010000 -9.343000
v -13.684000 2.679000 -9.343000
v -13.684000 7.349000 -9.343000
v -13.184000 2.721000 -9.343000
v -13.184000 7.474000 -9.343000
v -12.684000 2.832000 -9.343000
v -12.684000 7.528000 -9.343000
v -12.184000 3.201000 -9.343000
v -12.184000 7.418000 -9.343000
v -11.684000 3.707000 -9.343000
v -11.684000 7.125000 -9.343000
v -11.184000 4.037000 -9.343000
v -11.184000 6.950000 -9.343000
v -10.684000 4.572000 -9.343000
v -10.684000 6.636000 -9.343000
v -15.282000 4.086000 -16.343000
v -14.203000 4.086000 -16.343000
v -16.638000 4.086000 -15.843000
v -13.382000 4.086000 -15.843000
v -17.214000 4.086000 -15.343000
v -12.815000 4.086000 -15.343000
v -17.523000 4.086000 -14.843000
v -11.369000 4.086000 -14.843000
v -17.604000 4.086000 -14.343000
v -11.000000 4.086000 -14.343000
v -17.500000 4.086000 -13.843000
v -10.897000 4.086000 -13.843000
v -17.154000 4.086000 -13.343000
v -10.890000 4.086000 -13.343000
v -16.770000 4.086000 -12.843000
v -10.890000 4.086000 -12.843000
v -16.626000 4.086000 -12.343000
v -10.717000 4.086000 -12.343000
v -16.602000 4.086000 -11.843000
v -10.420000 4.086000 -11.843000
v -16.532000 4.086000 -11.343000
v -10.329000 4.086000 -11.343000
v -16.401000 4.086000 -10.843000
v -10.435000 4.086000 -10.843000
v -16.224000 4.086000 -10.343000
v -10.637000 4.086000 -10.343000
v -16.082000 4.086000 -9.843000
v -10.785000 4.086000 -9.843000
v -15.992000 4.086000 -9.343000
v -11.116000 4.086000 -9.343000
v -15.894000 4.086000 -8.843000
v -11.220000 4.086000 -8.843000
v -15.538000 4.086000 -8.343000
v -11.362000 4.086000 -8.343000
v -14.514000 4.086000 -7.843000
v -12.539000 4.086000 -7.843000
v -17.184000 4.086000 -15.373000
v -17.184000 4.086000 -13.373000
v -16.684000 4.086000 -15.795000
v -16.684000 4.086000 -12.622000
v -16.184000 4.086000 -16.148000
v -16.184000 4.086000 -10.155000
v -15.684000 4.086000 -16.293000
v -15.684000 4.086000 -8.491000
v -15.184000 4.086000 -16.355000
v -15.184000 4.086000 -8.124000
v -14.684000 4.086000 -16.451000
v -14.684000 4.086000 -7.944000
v -14.184000 4.086000 -16.334000
v -14.184000 4.086000 -7.633000
v -13.684000 4.086000 -16.026000
v -13.684000 4.086000 -7.514000
v -13.184000 4.086000 -15.648000
v -13.184000 4.086000 -7.592000
v -12.684000 4.086000 -15.276000
v -12.684000 4.086000 -7.786000
v -12.184000 4.086000 -15.152000
v -12.184000 4.086000 -7.902000
v -11.684000 4.086000 -15.039000
v -11.684000 4.086000 -8.030000
v -11.184000 4.086000 -14.654000
v -11.184000 4.086000 -9.159000
v -10.684000 4.086000 -12.287000
v -10.684000 4.086000 -10.161000
v -15.184000 4.719000 -16.843000
v -15.184000 6.407000 -16.843000
v -14.684000 4.569000 -16.843000
v -14.684000 6.576000 -16.843000
v -14.184000 4.688000 -16.843000
v -14.184000 6.524000 -16.843000
v -13.684000 5.358000 -16.843000
v -13.684000 5.768000 -16.843000
v -16.684000 3.177000 -12.843000
v -16.684000 6.512000 -12.843000
v -16.184000 2.627000 -12.843000
v -16.184000 7.377000 -12.843000
v -15.684000 2.190000 -12.843000
v -15.684000 7.773000 -12.843000
v -15.184000 1.859000 -12.843000
v -15.184000 7.928000 -12.843000
v -14.684000 1.766000 -12.843000
v -14.684000 7.969000 -12.843000
v -14.184000 1.721000 -12.843000
v -14.184000 7.861000 -12.843000
v -13.684000 1.809000 -12.843000
v -13.684000 7.623000 -12.843000
v -13.184000 2.137000 -12.843000
v -13.184000 7.023000 -12.843000
v -12.684000 2.607000 -12.843000
v -12.684000 6.581000 -12.843000
v -12.184000 3.086000 -12.843000
v -12.184000 6.422000 -12.843000
v -11.684000 3.376000 -12.843000
v -11.684000 6.314000 -12.843000
v -11.184000 3.676000 -12.843000
v -11.184000 5.953000 -12.843000
v -15.684000 3.749000 -8.843000
v -15.684000 5.467000 -8.843000
v -15.184000 3.389000 -8.843000
v -15.184000 5.933000 -8.843000
v -14.684000 3.193000 -8.843000
v -14.684000 6.122000 -8.843000
v -14.184000 2.879000 -8.843000
v -14.184000 6.496000 -8.843000
v -13.684000 2.774000 -8.843000
v -13.684000 7.058000 -8.843000
v -13.184000 2.868000 -8.843000
v -13.184000 7.365000 -8.843000
v -12.684000 3.175000 -8.843000
v -12.684000 7.444000 -8.843000
v -12.184000 3.527000 -8.843000
v -12.184000 7.325000 -8.843000
v -11.684000 3.799000 -8.843000
v -11.684000 7.017000 -8.843000
v -11.184000 4.120000 -8.843000
v -11.184000 6.839000 -8.843000
v -10.684000 4.779000 -8.843000
v -10.684000 6.485000 -8.843000
v -14.844000 4.586000 -16.843000
v -14.471000 4.586000 -16.843000
v -15.828000 4.586000 -16.343000
v -13.715000 4.586000 -16.343000
v -16.477000 4.586000 -15.843000
v -13.231000 4.586000 -15.843000
v -17.109000 4.586000 -15.343000
v -12.570000 4.586000 -15.343000
v -17.445000 4.586000 -14.843000
v -11.244000 4.586000 -14.843000
v -17.531000 4.586000 -14.343000
v -10.910000 4.586000 -14.343000
v -17.420000 4.586000 -13.843000
v -10.814000 4.586000 -13.843000
v -17.155000 4.586000 -13.343000
v -10.795000 4.586000 -13.343000
v -16.910000 4.586000 -12.843000
v -10.783000 4.586000 -12.843000
v -16.756000 4.586000 -12.343000
v -10.607000 4.586000 -12.343000
v -16.716000 4.586000 -11.843000
v -10.327000 4.586000 -11.843000
v -16.728000 4.586000 -11.343000
v -10.242000 4.586000 -11.343000
v -16.700000 4.586000 -10.843000
v -10.326000 4.586000 -10.843000
v -16.572000 4.586000 -10.343000
v -10.378000 4.586000 -10.343000
v -16.403000 4.586000 -9.843000
v -10.461000 4.586000 -9.843000
v -16.153000 4.586000 -9.343000
v -10.673000 4.586000 -9.343000
v -16.001000 4.586000 -8.843000
v -10.826000 4.586000 -8.843000
v -15.684000 4.586000 -8.343000
v -10.962000 4.586000 -8.343000
v -14.706000 4.586000 -7.843000
v -11.285000 4.586000 -7.843000
v -12.594000 4.586000 -7.343000
v -11.893000 4.586000 -7.343000
v -17.184000 4.586000 -15.267000
v -17.184000 4.586000 -13.398000
v -16.684000 4.586000 -15.653000
v -16.684000 4.586000 -10.730000
v -16.184000 4.586000 -16.084000
v -16.184000 4.586000 -9.418000
v -15.684000 4.586000 -16.438000
v -15.684000 4.586000 -8.343000
v -15.184000 4.586000 -16.719000
v -15.184000 4.586000 -8.017000
v -14.684000 4.586000 -16.860000
v -14.684000 4.586000 -7.831000
v -14.184000 4.586000 -16.742000
v -14.184000 4.586000 -7.532000
v -13.684000 4.586000 -16.313000
v -13.684000 4.586000 -7.421000
v -13.184000 4.586000 -15.793000
v -13.184000 4.586000 -7.409000
v -12.684000 4.586000 -15.395000
v -12.684000 4.586000 -7.358000
v -12.184000 4.586000 -15.240000
v -12.184000 4.586000 -7.290000
v -11.684000 4.586000 -15.129000
v -11.684000 4.586000 -7.441000
v -11.184000 4.586000 -14.782000
v -11.184000 4.586000 -7.977000
v -10.684000 4.586000 -12.501000
v -10.684000 4.586000 -9.316000
v -15.684000 4.287000 -16.343000
v -15.684000 6.382000 -16.343000
v -15.184000 4.061000 -16.343000
v -15.184000 6.886000 -16.343000
v -14.684000 3.829000 -16.343000
v -14.684000 7.438000 -16.343000
v -14.184000 4.104000 -16.343000
v -14.184000 7.584000 -16.343000
v -13.684000 4.624000 -16.343000
v -13.684000 7.456000 -16.343000
v -16.684000 4.392000 -12.343000
v -16.684000 6.914000 -12.343000
v -16.184000 2.993000 -12.343000
v -16.184000 7.519000 -12.343000
v -15.684000 2.549000 -12.343000
v -15.684000 7.869000 -12.343000
v -15.184000 2.183000 -12.343000
v -15.184000 7.976000 -12.343000
v -14.684000 1.916000 -12.343000
v -14.684000 7.971000 -12.343000
v -14.184000 1.817000 -12.343000
v -14.184000 7.880000 -12.343000
v -13.684000 1.916000 -12.343000
v -13.684000 7.577000 -12.343000
v -13.184000 2.223000 -12.343000
v -13.184000 6.846000 -12.343000
v -12.684000 2.567000 -12.343000
v -12.684000 6.381000 -12.343000
v -12.184000 3.088000 -12.343000
v -12.184000 6.226000 -12.343000
v -11.684000 3.372000 -12.343000
v -11.684000 6.098000 -12.343000
v -11.184000 3.569000 -12.343000
v -11.184000 5.803000 -12.343000
v -10.684000 4.163000 -12.343000
v -10.684000 5.093000 -12.343000
v -15.684000 4.585000 -8.343000
v -15.684000 4.625000 -8.343000
v -15.184000 3.741000 -8.343000
v -15.184000 5.470000 -8.343000
v -14.684000 3.571000 -8.343000
v -14.684000 5.652000 -8.343000
v -14.184000 3.252000 -8.343000
v -14.184000 5.999000 -8.343000
v -13.684000 3.106000 -8.343000
v -13.684000 6.502000 -8.343000
v -13.184000 3.236000 -8.343000
v -13.184000 7.022000 -8.343000
v -12.684000 3.608000 -8.343000
v -12.684000 7.131000 -8.343000
v -12.184000 3.794000 -8.343000
v -12.184000 7.048000 -8.343000
v -11.684000 3.907000 -8.343000
v -11.684000 6.856000 -8.343000
v -11.184000 4.249000 -8.343000
v -11.184000 6.573000 -8.343000
v -10.684000 5.537000 -8.343000
v -10.684000 5.679000 -8.343000
v -15.530000 5.086000 -16.843000
v -13.785000 5.086000 -16.843000
v -15.929000 5.086000 -16.343000
v -13.434000 5.086000 -16.343000
v -16.237000 5.086000 -15.843000
v -13.168000 5.086000 -15.843000
v -16.665000 5.086000 -15.343000
v -12.598000 5.086000 -15.343000
v -17.119000 5.086000 -14.843000
v -11.397000 5.086000 -14.843000
v -17.232000 5.086000 -14.343000
v -11.019000 5.086000 -14.343000
v -17.173000 5.086000 -13.843000
v -10.876000 5.086000 -13.843000
v -17.106000 5.086000 -13.343000
v -10.788000 5.086000 -13.343000
v -17.037000 5.086000 -12.843000
v -10.794000 5.086000 -12.843000
v -17.022000 5.086000 -12.343000
v -10.682000 5.086000 -12.343000
v -16.973000 5.086000 -11.843000
v -10.433000 5.086000 -11.843000
v -17.008000 5.086000 -11.343000
v -10.341000 5.086000 -11.343000
v -17.003000 5.086000 -10.843000
v -10.357000 5.086000 -10.843000
v -16.891000 5.086000 -10.343000
v -10.305000 5.086000 -10.343000
v -16.544000 5.086000 -9.843000
v -10.351000 5.086000 -9.843000
v -16.170000 5.086000 -9.343000
v -10.374000 5.086000 -9.343000
v -15.910000 5.086000 -8.843000
v -10.487000 5.086000 -8.843000
v -15.561000 5.086000 -8.343000
v -10.799000 5.086000 -8.343000
v -14.519000 5.086000 -7.843000
v -10.984000 5.086000 -7.843000
v -13.272000 5.086000 -7.343000
v -11.321000 5.086000 -7.343000
v -17.184000 5.086000 -14.686000
v -17.184000 5.086000 -13.927000
v -16.684000 5.086000 -15.324000
v -16.684000 5.086000 -10.016000
v -16.184000 5.086000 -15.932000
v -16.184000 5.086000 -9.363000
v -15.684000 5.086000 -16.681000
v -15.684000 5.086000 -8.468000
v -15.184000 5.086000 -17.064000
v -15.184000 5.086000 -8.108000
v -14.684000 5.086000 -17.174000
v -14.684000 5.086000 -7.936000
v -14.184000 5.086000 -17.086000
v -14.184000 5.086000 -7.633000
v -13.684000 5.086000 -16.744000
v -13.684000 5.086000 -7.483000
v -13.184000 5.086000 -15.865000
v -13.184000 5.086000 -7.307000
v -12.684000 5.086000 -15.395000
v -12.684000 5.086000 -7.073000
v -12.184000 5.086000 -15.171000
v -12.184000 5.086000 -6.991000
v -11.684000 5.086000 -15.019000
v -11.684000 5.086000 -7.104000
v -11.184000 5.086000 -14.625000
v -11.184000 5.086000 -7.491000
v -10.684000 5.086000 -12.349000
v -10.684000 5.086000 -8.526000
v -16.184000 3.207000 -15.843000
v -16.184000 5.299000 -15.843000
v -15.684000 3.016000 -15.843000
v -15.684000 6.529000 -15.843000
v -15.184000 2.691000 -15.843000
v -15.184000 7.427000 -15.843000
v -14.684000 2.557000 -15.843000
v -14.684000 7.804000 -15.843000
v -14.184000 2.689000 -15.843000
v -14.184000 7.910000 -15.843000
v -13.684000 3.410000 -15.843000
v -13.684000 7.817000 -15.843000
v -13.184000 5.023000 -15.843000
v -13.184000 7.463000 -15.843000
v -16.684000 4.500000 -11.843000
v -16.684000 7.067000 -11.843000
v -16.184000 3.128000 -11.843000
v -16.184000 7.613000 -11.843000
v -15.684000 2.719000 -11.843000
v -15.684000 7.922000 -11.843000
v -15.184000 2.391000 -11.843000
v -15.184000 8.003000 -11.843000
v -14.684000 2.186000 -11.843000
v -14.684000 8.032000 -11.843000
v -14.184000 2.079000 -11.843000
v -14.184000 7.952000 -11.843000
v -13.684000 2.149000 -11.843000
v -13.684000 7.644000 -11.843000
v -13.184000 2.299000 -11.843000
v -13.184000 6.848000 -11.843000
v -12.684000 2.624000 -11.843000
v -12.684000 6.335000 -11.843000
v -12.184000 3.018000 -11.843000
v -12.184000 6.139000 -11.843000
v -11.684000 3.222000 -11.843000
v -11.684000 6.013000 -11.843000
v -11.184000 3.338000 -11.843000
v -11.184000 5.825000 -11.843000
v -10.684000 3.670000 -11.843000
v -10.684000 5.471000 -11.843000
v -14.684000 4.428000 -7.843000
v -14.684000 4.760000 -7.843000
v -14.184000 3.747000 -7.843000
v -14.184000 5.433000 -7.843000
v -13.684000 3.585000 -7.843000
v -13.684000 5.943000 -7.843000
v -13.184000 3.692000 -7.843000
v -13.184000 6.463000 -7.843000
v -12.684000 4.028000 -7.843000
v -12.684000 6.780000 -7.843000
v -12.184000 4.143000 -7.843000
v -12.184000 6.856000 -7.843000
v -11.684000 4.260000 -7.843000
v -11.684000 6.742000 -7.843000
v -11.184000 4.717000 -7.843000
v -11.184000 6.352000 -7.843000
v -15.652000 5.586000 -16.843000
v -13.663000 5.586000 -16.843000
v -15.970000 5.586000 -16.343000
v -13.343000 5.586000 -16.343000
v -16.110000 5.586000 -15.843000
v -13.115000 5.586000 -15.843000
v -16.255000 5.586000 -15.343000
v -12.644000 5.586000 -15.343000
v -16.517000 5.586000 -14.843000
v -12.012000 5.586000 -14.843000
v -16.694000 5.586000 -14.343000
v -11.354000 5.586000 -14.343000
v -16.899000 5.586000 -13.843000
v -10.997000 5.586000 -13.843000
v -17.003000 5.586000 -13.343000
v -10.879000 5.586000 -13.343000
v -17.053000 5.586000 -12.843000
v -10.942000 5.586000 -12.843000
v -17.128000 5.586000 -12.343000
v -10.963000 5.586000 -12.343000
v -17.072000 5.586000 -11.843000
v -10.807000 5.586000 -11.843000
v -17.093000 5.586000 -11.343000
v -10.666000 5.586000 -11.343000
v -17.087000 5.586000 -10.843000
v -10.529000 5.586000 -10.843000
v -16.982000 5.586000 -10.343000
v -10.394000 5.586000 -10.343000
v -16.632000 5.586000 -9.843000
v -10.326000 5.586000 -9.843000
v -15.995000 5.586000 -9.343000
v -10.263000 5.586000 -9.343000
v -15.587000 5.586000 -8.843000
v -10.367000 5.586000 -8.843000
v -14.875000 5.586000 -8.343000
v -10.682000 5.586000 -8.343000
v -14.037000 5.586000 -7.843000
v -10.904000 5.586000 -7.843000
v -13.238000 5.586000 -7.343000
v -11.215000 5.586000 -7.343000
v -16.684000 5.586000 -14.376000
v -16.684000 5.586000 -9.893000
v -16.184000 5.586000 -15.544000
v -16.184000 5.586000 -9.504000
v -15.684000 5.586000 -16.809000
v -15.684000 5.586000 -8.978000
v -15.184000 5.586000 -17.155000
v -15.184000 5.586000 -8.459000
v -14.684000 5.586000 -17.257000
v -14.684000 5.586000 -8.278000
v -14.184000 5.586000 -17.175000
v -14.184000 5.586000 -7.960000
v -13.684000 5.586000 -16.864000
v -13.684000 5.586000 -7.641000
v -13.184000 5.586000 -15.960000
v -13.184000 5.586000 -7.297000
v -12.684000 5.586000 -15.379000
v -12.684000 5.586000 -6.994000
v -12.184000 5.586000 -14.965000
v -12.184000 5.586000 -6.916000
v -11.684000 5.586000 -14.629000
v -11.684000 5.586000 -7.023000
v -11.184000 5.586000 -14.142000
v -11.184000 5.586000 -7.376000
v -10.684000 5.586000 -11.468000
v -10.684000 5.586000 -8.340000
v -17.184000 3.886000 -15.343000
v -17.184000 4.383000 -15.343000
v -16.684000 3.198000 -15.343000
v -16.684000 5.067000 -15.343000
v -16.184000 2.800000 -15.343000
v -16.184000 5.703000 -15.343000
v -15.684000 2.602000 -15.343000
v -15.684000 6.621000 -15.343000
v -15.184000 2.347000 -15.343000
v -15.184000 7.564000 -15.343000
v -14.684000 2.249000 -15.343000
v -14.684000 7.902000 -15.343000
v -14.184000 2.346000 -15.343000
v -14.184000 8.000000 -15.343000
v -13.684000 2.652000 -15.343000
v -13.684000 7.914000 -15.343000
v -13.184000 3.332000 -15.343000
v -13.184000 7.596000 -15.343000
v -12.684000 4.251000 -15.343000
v -12.684000 5.994000 -15.343000
v -16.684000 4.505000 -11.343000
v -16.684000 7.117000 -11.343000
v -16.184000 3.276000 -11.343000
v -16.184000 7.509000 -11.343000
v -15.684000 2.920000 -11.343000
v -15.684000 7.835000 -11.343000
v -15.184000 2.683000 -11.343000
v -15.184000 7.953000 -11.343000
v -14.684000 2.353000 -11.343000
v -14.684000 8.027000 -11.343000
v -14.184000 2.248000 -11.343000
v -14.184000 7.938000 -11.343000
v -13.684000 2.305000 -11.343000
v -13.684000 7.616000 -11.343000
v -13.184000 2.406000 -11.343000
v -13.184000 7.099000 -11.343000
v -12.684000 2.627000 -11.343000
v -12.684000 6.550000 -11.343000
v -12.184000 2.846000 -11.343000
v -12.184000 6.285000 -11.343000
v -11.684000 3.092000 -11.343000
v -11.684000 6.167000 -11.343000
v -11.184000 3.248000 -11.343000
v -11.184000 5.980000 -11.343000
v -10.684000 3.550000 -11.343000
v -10.684000 5.606000 -11.343000
v -13.184000 4.858000 -7.343000
v -13.184000 5.837000 -7.343000
v -12.684000 4.607000 -7.343000
v -12.684000 6.434000 -7.343000
v -12.184000 4.532000 -7.343000
v -12.184000 6.546000 -7.343000
v -11.684000 4.686000 -7.343000
v -11.684000 6.391000 -7.343000
v -15.391000 2.086000 -14.843000
v -14.100000 2.086000 -14.843000
v -16.044000 2.086000 -14.343000
v -13.354000 2.086000 -14.343000
v -16.157000 2.086000 -13.843000
v -13.207000 2.086000 -13.843000
v -15.997000 2.086000 -13.343000
v -13.128000 2.086000 -13.343000
v -15.572000 2.086000 -12.843000
v -13.236000 2.086000 -12.843000
v -15.003000 2.086000 -12.343000
v -13.385000 2.086000 -12.343000
v -14.309000 2.086000 -11.843000
v -14.048000 2.086000 -11.843000
v -15.504000 6.086000 -16.843000
v -13.804000 6.086000 -16.843000
v -15.862000 6.086000 -16.343000
v -13.286000 6.086000 -16.343000
v -15.956000 6.086000 -15.843000
v -12.956000 6.086000 -15.843000
v -16.004000 6.086000 -15.343000
v -12.694000 6.086000 -15.343000
v -16.052000 6.086000 -14.843000
v -12.447000 6.086000 -14.843000
v -16.209000 6.086000 -14.343000
v -12.006000 6.086000 -14.343000
v -16.530000 6.086000 -13.843000
v -11.368000 6.086000 -13.843000
v -16.731000 6.086000 -13.343000
v -11.205000 6.086000 -13.343000
v -16.950000 6.086000 -12.843000
v -11.316000 6.086000 -12.843000
v -17.050000 6.086000 -12.343000
v -11.658000 6.086000 -12.343000
v -17.066000 6.086000 -11.843000
v -11.953000 6.086000 -11.843000
v -17.099000 6.086000 -11.343000
v -11.445000 6.086000 -11.343000
v -17.019000 6.086000 -10.843000
v -10.859000 6.086000 -10.843000
v -16.871000 6.086000 -10.343000
v -10.529000 6.086000 -10.343000
v -16.474000 6.086000 -9.843000
v -10.414000 6.086000 -9.843000
v -15.588000 6.086000 -9.343000
v -10.337000 6.086000 -9.343000
v -14.772000 6.086000 -8.843000
v -10.447000 6.086000 -8.843000
v -14.091000 6.086000 -8.343000
v -10.788000 6.086000 -8.343000
v -13.523000 6.086000 -7.843000
v -11.023000 6.086000 -7.843000
v -13.068000 6.086000 -7.343000
v -11.376000 6.086000 -7.343000
v -15.684000 2.086000 -14.724000
v -15.684000 2.086000 -13.002000
v -15.184000 2.086000 -14.886000
v -15.184000 2.086000 -12.484000
v -14.684000 2.086000 -14.951000
v -14.684000 2.086000 -12.035000
v -14.184000 2.086000 -14.862000
v -14.184000 2.086000 -11.828000
v -13.684000 2.086000 -14.680000
v -13.684000 2.086000 -11.995000
v -13.184000 2.086000 -13.704000
v -13.184000 2.086000 -13.021000
v -16.684000 6.086000 -13.474000
v -16.684000 6.086000 -10.044000
v -16.184000 6.086000 -14.399000
v -16.184000 6.086000 -9.676000
v -15.684000 6.086000 -16.653000
v -15.684000 6.086000 -9.420000
v -15.184000 6.086000 -17.045000
v -15.184000 6.086000 -9.005000
v -14.684000 6.086000 -17.156000
v -14.684000 6.086000 -8.805000
v -14.184000 6.086000 -17.067000
v -14.184000 6.086000 -8.434000
v -13.684000 6.086000 -16.746000
v -13.684000 6.086000 -7.980000
v -13.184000 6.086000 -16.212000
v -13.184000 6.086000 -7.458000
v -12.684000 6.086000 -15.323000
v -12.684000 6.086000 -7.112000
v -12.184000 6.086000 -14.492000
v -12.184000 6.086000 -7.027000
v -11.684000 6.086000 -14.144000
v -11.684000 6.086000 -12.308000
v -11.684000 6.086000 -11.503000
v -11.684000 6.086000 -7.144000
v -11.184000 6.086000 -11.164000
v -11.184000 6.086000 -7.551000
v -10.684000 6.086000 -10.619000
v -10.684000 6.086000 -8.477000
v -17.184000 3.251000 -14.843000
v -17.184000 5.019000 -14.843000
v -16.684000 2.778000 -14.843000
v -16.684000 5.431000 -14.843000
v -16.184000 2.429000 -14.843000
v -16.184000 5.913000 -14.843000
v -15.684000 2.199000 -14.843000
v -15.684000 6.652000 -14.843000
v -15.184000 2.055000 -14.843000
v -15.184000 7.587000 -14.843000
v -14.684000 2.020000 -14.843000
v -14.684000 7.913000 -14.843000
v -14.184000 2.072000 -14.843000
v -14.184000 8.004000 -14.843000
v -13.684000 2.255000 -14.843000
v -13.684000 7.911000 -14.843000
v -13.184000 2.677000 -14.843000
v -13.184000 7.580000 -14.843000
v -12.684000 3.206000 -14.843000
v -12.684000 6.563000 -14.843000
v -12.184000 3.558000 -14.843000
v -12.184000 5.738000 -14.843000
v -11.684000 3.750000 -14.843000
v -11.684000 5.376000 -14.843000
v -16.684000 4.564000 -10.843000
v -16.684000 6.962000 -10.843000
v -16.184000 3.748000 -10.843000
v -16.184000 7.322000 -10.843000
v -15.684000 3.248000 -10.843000
v -15.684000 7.524000 -10.843000
v -15.184000 2.903000 -10.843000
v -15.184000 7.825000 -10.843000
v -14.684000 2.713000 -10.843000
v -14.684000 7.928000 -10.843000
v -14.184000 2.546000 -10.843000
v -14.184000 7.832000 -10.843000
v -13.684000 2.560000 -10.843000
v -13.684000 7.574000 -10.843000
v -13.184000 2.615000 -10.843000
v -13.184000 7.302000 -10.843000
v -12.684000 2.662000 -10.843000
v -12.684000 6.968000 -10.843000
v -12.184000 2.758000 -10.843000
v -12.184000 6.679000 -10.843000
v -11.684000 3.068000 -10.843000
v -11.684000 6.557000 -10.843000
v -11.184000 3.353000 -10.843000
v -11.184000 6.389000 -10.843000
v -10.684000 3.691000 -10.843000
v -10.684000 5.836000 -10.843000
f 273 331 107
f 107 331 329
f 331 481 329
f 483 481 331
f 483 601 481
f 603 601 483
f 758 727 274
f 727 603 274
f 727 601 603
f 758 108 727
f 275 9 59
f 59 9 109
f 9 165 109
f 9 167 165
f 107 165 167
f 107 167 273
f 729 758 274
f 851 108 758
f 729 851 758
f 853 851 729
f 853 276 851
f 851 276 110
f 7 111 59
f 111 275 59
f 111 277 275
f 59 109 7
f 985 110 276
f 985 276 987
f 987 278 985
f 985 278 112
f 279 965 113
f 113 965 963
f 111 963 965
f 111 965 277
f 31 112 278
f 31 278 33
f 114 31 253
f 31 199 253
f 31 33 199
f 199 280 253
f 281 113 115
f 281 279 113
f 253 197 114
f 197 253 280
f 365 197 280
f 363 197 365
f 365 282 363
f 363 282 116
f 283 115 117
f 283 281 115
f 116 284 118
f 282 284 116
f 285 117 119
f 285 283 117
f 118 286 120
f 284 286 118
f 287 119 121
f 287 285 119
f 120 288 122
f 286 288 120
f 121 964 287
f 287 964 966
f 289 966 964
f 289 964 123
f 364 425 124
f 364 122 425
f 122 290 425
f 122 288 290
f 123 8 289
f 289 8 10
f 291 10 8
f 291 8 125
f 200 292 126
f 200 126 198
f 425 366 124
f 366 198 124
f 366 200 198
f 425 290 366
f 243 293 166
f 293 125 166
f 293 291 125
f 127 243 166
f 34 294 128
f 34 128 32
f 32 126 34
f 34 126 292
f 243 168 293
f 295 168 243
f 127 295 243
f 129 295 127
f 986 1047 130
f 986 128 1047
f 128 296 1047
f 128 294 296
f 129 330 295
f 295 330 332
f 297 332 330
f 297 330 131
f 852 903 132
f 1047 988 130
f 130 988 852
f 988 298 852
f 298 903 852
f 1047 296 988
f 131 482 297
f 297 482 484
f 602 484 482
f 602 604 484
f 728 604 602
f 728 730 604
f 903 854 132
f 854 728 132
f 854 730 728
f 903 298 854
f 760 743 133
f 882 867 760
f 760 867 743
f 1028 1001 882
f 882 1001 867
f 1028 134 1001
f 514 497 135
f 299 619 514
f 619 497 514
f 619 617 497
f 745 760 133
f 617 745 133
f 619 745 617
f 760 745 869
f 760 869 882
f 882 869 1003
f 882 1003 1028
f 300 82 47
f 300 47 134
f 1003 300 134
f 1028 1003 134
f 82 136 47
f 388 345 137
f 499 514 135
f 499 135 345
f 301 499 345
f 388 301 345
f 299 514 499
f 302 84 82
f 302 82 300
f 136 82 213
f 82 254 213
f 82 84 254
f 254 138 213
f 388 137 347
f 137 303 347
f 137 139 303
f 301 388 347
f 49 84 302
f 84 49 304
f 256 84 304
f 254 84 256
f 138 254 140
f 140 254 256
f 232 181 141
f 139 181 232
f 305 139 232
f 303 139 305
f 215 256 304
f 306 416 379
f 306 379 140
f 215 306 140
f 256 215 140
f 416 142 379
f 232 141 183
f 141 307 183
f 141 143 307
f 305 232 183
f 144 380 416
f 306 144 416
f 308 144 306
f 142 416 380
f 309 143 145
f 309 307 143
f 144 310 146
f 308 310 144
f 311 145 147
f 311 309 145
f 146 312 148
f 310 312 146
f 313 147 149
f 313 311 147
f 148 314 150
f 312 314 148
f 315 149 151
f 315 313 149
f 214 269 152
f 214 150 269
f 150 316 269
f 150 314 316
f 151 182 315
f 315 182 184
f 317 184 182
f 317 182 153
f 152 269 216
f 318 152 216
f 154 152 318
f 269 316 216
f 153 346 317
f 317 346 348
f 319 348 346
f 319 346 155
f 154 320 156
f 318 320 154
f 500 319 536
f 319 157 536
f 319 155 157
f 321 500 536
f 50 322 158
f 50 158 48
f 48 156 50
f 50 156 320
f 498 536 157
f 536 498 321
f 498 620 321
f 498 618 620
f 744 620 618
f 744 746 620
f 868 746 744
f 868 870 746
f 1002 870 868
f 1002 1004 870
f 1002 158 1004
f 1004 158 322
f 382 331 273
f 510 483 382
f 382 483 331
f 632 603 510
f 510 603 483
f 632 274 603
f 60 9 275
f 427 169 60
f 169 9 60
f 169 167 9
f 333 382 273
f 167 333 273
f 169 333 167
f 382 333 485
f 382 485 510
f 510 485 605
f 510 605 632
f 729 274 632
f 605 729 632
f 731 729 605
f 731 853 729
f 855 853 731
f 276 853 1027
f 853 989 1027
f 853 855 989
f 989 428 1027
f 60 275 11
f 275 429 11
f 275 277 429
f 427 60 11
f 1027 987 276
f 428 35 81
f 428 81 278
f 1027 428 278
f 987 1027 278
f 35 430 81
f 431 967 279
f 279 967 965
f 277 965 967
f 277 967 429
f 81 33 278
f 33 81 430
f 201 33 430
f 199 33 201
f 280 199 411
f 199 367 411
f 199 201 367
f 367 432 411
f 433 279 281
f 433 431 279
f 411 365 280
f 411 432 365
f 432 282 365
f 432 434 282
f 435 281 283
f 435 433 281
f 282 436 284
f 434 436 282
f 437 283 285
f 437 435 283
f 284 438 286
f 436 438 284
f 439 285 287
f 439 437 285
f 286 440 288
f 438 440 286
f 1025 441 966
f 441 287 966
f 441 439 287
f 289 1025 966
f 368 442 426
f 426 290 368
f 290 440 368
f 290 288 440
f 1025 968 441
f 75 443 10
f 10 443 289
f 443 968 289
f 968 1025 289
f 291 75 10
f 202 444 292
f 202 292 200
f 442 202 426
f 202 366 426
f 202 200 366
f 290 426 366
f 75 12 443
f 445 12 75
f 291 445 75
f 293 445 291
f 36 446 294
f 36 294 34
f 34 292 36
f 36 292 444
f 293 168 445
f 445 168 170
f 447 170 168
f 447 168 295
f 294 448 296
f 446 448 294
f 295 332 447
f 447 332 334
f 449 334 332
f 449 332 297
f 990 450 298
f 990 298 988
f 988 296 990
f 990 296 448
f 297 484 449
f 449 484 486
f 604 486 484
f 604 606 486
f 730 606 604
f 730 732 606
f 854 732 730
f 854 856 732
f 854 298 856
f 856 298 450
f 636 619 299
f 762 745 636
f 636 745 619
f 884 869 762
f 762 869 745
f 1030 1003 884
f 884 1003 869
f 1030 300 1003
f 451 501 301
f 301 501 499
f 621 636 299
f 499 621 299
f 501 621 499
f 636 621 747
f 636 747 762
f 762 747 871
f 762 871 884
f 884 871 452
f 1032 884 452
f 1030 884 1032
f 300 1030 302
f 302 1030 1032
f 453 349 303
f 303 349 347
f 301 347 349
f 301 349 451
f 1005 1032 452
f 454 86 49
f 454 49 302
f 1005 454 302
f 1032 1005 302
f 86 304 49
f 455 185 233
f 305 233 185
f 453 305 185
f 303 305 453
f 51 86 454
f 456 258 215
f 456 215 304
f 51 456 304
f 86 51 304
f 258 306 215
f 183 307 233
f 307 455 233
f 307 457 455
f 233 305 183
f 458 260 258
f 458 258 456
f 306 258 308
f 308 258 260
f 459 307 309
f 459 457 307
f 217 260 458
f 217 460 260
f 460 308 260
f 460 310 308
f 461 309 311
f 461 459 309
f 310 462 312
f 460 462 310
f 463 311 313
f 463 461 311
f 312 464 314
f 462 464 312
f 186 463 246
f 463 315 246
f 463 313 315
f 465 186 246
f 314 466 316
f 464 466 314
f 184 246 315
f 350 465 404
f 404 465 317
f 465 246 317
f 246 184 317
f 467 350 404
f 216 271 318
f 216 316 271
f 316 468 271
f 316 466 468
f 348 404 317
f 467 404 348
f 319 467 348
f 469 467 319
f 318 271 218
f 470 318 218
f 320 318 470
f 271 468 218
f 319 500 469
f 469 500 502
f 471 502 500
f 471 500 321
f 50 105 322
f 50 320 105
f 320 472 105
f 320 470 472
f 321 620 471
f 471 620 622
f 746 622 620
f 746 748 622
f 870 748 746
f 870 872 748
f 1004 872 870
f 1004 1006 872
f 105 52 322
f 52 1004 322
f 52 1006 1004
f 105 472 52
f 537 717 765
f 765 717 887
f 887 717 841
f 887 841 1033
f 1033 841 975
f 975 538 1033
f 539 591 641
f 537 765 591
f 765 641 591
f 765 767 641
f 765 889 767
f 765 887 889
f 887 1035 889
f 887 1033 1035
f 1033 538 1035
f 1035 538 540
f 641 592 539
f 592 641 541
f 641 769 541
f 641 767 769
f 767 891 769
f 767 889 891
f 889 1037 891
f 889 1035 1037
f 1035 540 1037
f 1037 540 542
f 769 718 541
f 718 769 543
f 769 893 543
f 769 891 893
f 544 893 976
f 893 1037 976
f 893 891 1037
f 1037 542 976
f 893 842 543
f 893 544 842
f 224 169 427
f 545 335 224
f 335 169 224
f 335 333 169
f 335 485 333
f 487 485 335
f 487 605 485
f 607 605 487
f 607 731 605
f 733 731 607
f 733 855 731
f 857 855 733
f 857 989 855
f 991 989 857
f 991 546 989
f 989 546 428
f 62 11 429
f 171 224 427
f 171 427 11
f 547 171 11
f 62 547 11
f 545 224 171
f 35 428 546
f 35 546 37
f 430 35 251
f 35 203 251
f 35 37 203
f 203 548 251
f 1016 967 431
f 13 62 429
f 13 429 967
f 549 13 967
f 1016 549 967
f 547 62 13
f 251 201 430
f 201 251 548
f 369 201 548
f 367 201 369
f 369 550 367
f 367 550 432
f 1016 431 969
f 431 551 969
f 431 433 551
f 549 1016 969
f 432 552 434
f 550 552 432
f 553 433 435
f 553 551 433
f 434 554 436
f 552 554 434
f 555 435 437
f 555 553 435
f 436 556 438
f 554 556 436
f 557 437 439
f 557 555 437
f 438 558 440
f 556 558 438
f 970 557 1026
f 557 441 1026
f 557 439 441
f 559 970 1026
f 204 560 264
f 204 264 442
f 368 204 442
f 370 204 368
f 368 440 370
f 370 440 558
f 968 1026 441
f 14 559 76
f 76 559 443
f 559 1026 443
f 1026 968 443
f 561 14 76
f 38 562 96
f 264 560 38
f 264 38 96
f 202 264 96
f 444 202 96
f 442 264 202
f 12 76 443
f 172 561 244
f 244 561 445
f 561 76 445
f 76 12 445
f 563 172 244
f 446 36 96
f 562 446 96
f 564 446 562
f 444 96 36
f 170 244 445
f 563 244 170
f 447 563 170
f 565 563 447
f 446 566 448
f 564 566 446
f 447 334 565
f 565 334 336
f 567 336 334
f 567 334 449
f 992 568 450
f 992 450 990
f 990 448 992
f 992 448 566
f 449 486 567
f 567 486 488
f 606 488 486
f 606 608 488
f 732 608 606
f 732 734 608
f 856 734 732
f 856 858 734
f 856 450 858
f 858 450 568
f 569 503 451
f 451 503 501
f 503 621 501
f 623 621 503
f 623 747 621
f 749 747 623
f 886 871 570
f 871 749 570
f 871 747 749
f 886 452 871
f 571 351 453
f 453 351 349
f 451 349 351
f 451 351 569
f 873 886 570
f 572 1034 1005
f 572 1005 452
f 873 572 452
f 886 873 452
f 1034 454 1005
f 234 185 455
f 453 185 234
f 573 453 234
f 571 453 573
f 1007 1034 572
f 574 88 51
f 574 51 454
f 1007 574 454
f 1034 1007 454
f 88 456 51
f 234 455 187
f 455 575 187
f 455 457 575
f 573 234 187
f 576 90 88
f 576 88 574
f 456 88 458
f 458 88 90
f 577 457 459
f 577 575 457
f 53 90 576
f 578 262 217
f 578 217 458
f 53 578 458
f 90 53 458
f 262 460 217
f 579 459 461
f 579 577 459
f 219 262 578
f 219 580 262
f 580 460 262
f 580 462 460
f 188 579 242
f 579 463 242
f 579 461 463
f 581 188 242
f 462 582 464
f 580 582 462
f 186 242 463
f 581 242 186
f 465 581 186
f 583 581 465
f 464 584 466
f 582 584 464
f 465 350 583
f 583 350 352
f 585 352 350
f 585 350 467
f 220 586 272
f 272 468 220
f 468 584 220
f 468 466 584
f 504 585 534
f 585 469 534
f 585 467 469
f 587 504 534
f 470 218 272
f 586 470 272
f 588 470 586
f 468 272 218
f 502 534 469
f 624 587 658
f 658 587 471
f 587 534 471
f 534 502 471
f 589 624 658
f 54 590 106
f 106 472 54
f 472 588 54
f 472 470 588
f 622 658 471
f 658 622 589
f 622 750 589
f 622 748 750
f 872 750 748
f 872 874 750
f 1006 874 872
f 1006 1008 874
f 590 1008 106
f 1008 52 106
f 1008 1006 52
f 472 106 52
f 659 593 637
f 637 593 763
f 763 593 719
f 763 719 885
f 885 719 843
f 885 843 1031
f 1031 843 977
f 977 660 1031
f 661 473 517
f 659 637 473
f 637 517 473
f 637 639 517
f 763 717 537
f 639 763 537
f 637 763 639
f 885 841 717
f 885 717 763
f 1031 975 841
f 1031 841 885
f 660 23 85
f 660 85 538
f 1031 660 538
f 975 1031 538
f 23 662 85
f 519 663 517
f 517 663 661
f 639 591 539
f 519 639 539
f 517 639 519
f 639 537 591
f 87 540 538
f 87 538 85
f 189 257 662
f 257 85 662
f 257 87 85
f 189 664 257
f 519 474 663
f 643 665 592
f 592 665 539
f 665 474 539
f 474 519 539
f 541 643 592
f 89 542 540
f 89 540 87
f 87 259 89
f 87 257 259
f 257 664 259
f 259 664 666
f 643 594 665
f 771 667 718
f 718 667 541
f 667 594 541
f 594 643 541
f 543 771 718
f 976 1039 544
f 1039 976 542
f 89 1039 542
f 91 1039 89
f 89 261 91
f 89 259 261
f 259 666 261
f 261 666 668
f 771 720 667
f 543 842 771
f 842 720 771
f 842 844 720
f 1039 978 544
f 978 842 544
f 978 844 842
f 978 1039 24
f 24 1039 91
f 24 91 190
f 190 91 261
f 261 668 190
f 384 335 545
f 512 487 384
f 384 487 335
f 669 609 512
f 609 487 512
f 609 607 487
f 609 733 607
f 735 733 609
f 735 857 733
f 859 857 735
f 859 991 857
f 993 991 859
f 546 991 79
f 991 39 79
f 991 993 39
f 39 670 79
f 671 173 547
f 547 173 171
f 337 384 545
f 171 337 545
f 173 337 171
f 384 337 489
f 384 489 512
f 669 512 489
f 79 37 546
f 37 79 670
f 205 37 670
f 203 37 205
f 205 672 203
f 203 672 548
f 673 15 549
f 549 15 13
f 547 13 15
f 547 15 671
f 369 548 672
f 369 672 371
f 371 674 369
f 369 674 550
f 1018 969 551
f 549 969 1018
f 675 549 1018
f 673 549 675
f 550 676 552
f 674 676 550
f 1018 551 971
f 551 677 971
f 551 553 677
f 675 1018 971
f 552 678 554
f 676 678 552
f 679 553 555
f 679 677 553
f 554 680 556
f 678 680 554
f 681 555 557
f 681 679 555
f 372 682 420
f 420 558 372
f 558 680 372
f 558 556 680
f 557 970 681
f 681 970 972
f 683 972 970
f 683 970 559
f 206 684 560
f 206 560 204
f 682 206 420
f 206 370 420
f 206 204 370
f 558 420 370
f 77 685 14
f 685 559 14
f 685 683 559
f 561 77 14
f 40 686 562
f 40 562 38
f 38 560 40
f 40 560 684
f 77 16 685
f 561 172 77
f 172 16 77
f 172 174 16
f 687 174 172
f 687 172 563
f 562 688 564
f 686 688 562
f 689 563 565
f 689 687 563
f 564 690 566
f 688 690 564
f 405 691 336
f 691 565 336
f 691 689 565
f 567 405 336
f 994 692 568
f 994 568 992
f 992 566 994
f 994 566 690
f 405 338 691
f 567 488 405
f 488 338 405
f 488 490 338
f 608 657 693
f 490 608 693
f 488 608 490
f 734 783 657
f 734 657 608
f 860 694 783
f 734 860 783
f 858 860 734
f 858 568 860
f 860 568 692
f 657 610 693
f 610 657 736
f 736 657 783
f 783 694 736
f 516 503 569
f 695 625 516
f 625 503 516
f 625 623 503
f 764 749 696
f 749 625 696
f 749 623 625
f 764 570 749
f 390 351 571
f 505 516 569
f 505 569 351
f 697 505 351
f 390 697 351
f 695 516 505
f 751 764 696
f 698 888 873
f 698 873 570
f 751 698 570
f 764 751 570
f 888 572 873
f 390 571 353
f 571 699 353
f 571 573 699
f 697 390 353
f 875 888 698
f 700 1036 1007
f 700 1007 572
f 875 700 572
f 888 875 572
f 1036 574 1007
f 236 187 575
f 573 187 236
f 701 573 236
f 699 573 701
f 702 1038 1036
f 702 1036 700
f 574 1036 576
f 576 1036 1038
f 577 238 575
f 575 238 236
f 701 236 238
f 701 238 703
f 1009 1038 702
f 704 92 53
f 704 53 576
f 1009 704 576
f 1038 1009 576
f 92 578 53
f 579 240 577
f 577 240 238
f 703 238 240
f 703 240 705
f 55 92 704
f 706 266 219
f 706 219 578
f 55 706 578
f 92 55 578
f 266 580 219
f 188 240 579
f 354 705 400
f 400 705 581
f 705 240 581
f 240 188 581
f 707 354 400
f 221 266 706
f 221 708 266
f 708 580 266
f 708 582 580
f 583 402 581
f 581 402 400
f 707 400 402
f 707 402 709
f 222 710 270
f 270 584 222
f 584 708 222
f 584 582 708
f 352 402 583
f 709 402 352
f 585 709 352
f 711 709 585
f 586 220 270
f 710 586 270
f 712 586 710
f 584 270 220
f 585 504 711
f 711 504 506
f 713 506 504
f 713 504 587
f 56 714 104
f 104 588 56
f 588 712 56
f 588 586 712
f 587 624 713
f 713 624 626
f 624 589 784
f 752 624 784
f 626 624 752
f 715 752 784
f 1010 716 1054
f 104 714 1010
f 104 1010 1054
f 54 104 1054
f 590 54 1054
f 588 104 54
f 750 784 589
f 784 750 715
f 750 876 715
f 750 874 876
f 716 876 1054
f 876 1008 1054
f 876 874 1008
f 590 1054 1008
f 785 323 385
f 385 323 513
f 513 323 475
f 513 475 635
f 635 475 595
f 635 595 761
f 761 595 721
f 721 786 761
f 787 159 227
f 785 385 159
f 385 227 159
f 385 387 227
f 385 515 387
f 385 513 515
f 635 593 659
f 515 635 659
f 513 635 515
f 761 719 593
f 761 593 635
f 719 761 786
f 845 719 786
f 843 719 845
f 845 977 843
f 979 977 845
f 979 788 977
f 977 788 660
f 229 789 227
f 227 789 787
f 227 389 229
f 227 387 389
f 515 473 661
f 389 515 661
f 387 515 389
f 515 659 473
f 23 660 788
f 23 788 25
f 662 23 255
f 23 191 255
f 23 25 191
f 191 790 255
f 791 1 67
f 789 229 1
f 229 67 1
f 229 231 67
f 229 391 231
f 229 389 391
f 389 661 663
f 389 663 391
f 255 189 662
f 790 357 415
f 790 415 664
f 255 790 664
f 189 255 664
f 357 792 415
f 67 2 791
f 2 67 793
f 67 235 793
f 67 231 235
f 231 393 235
f 231 391 393
f 391 663 474
f 521 391 474
f 393 391 521
f 665 521 474
f 417 666 664
f 417 664 415
f 415 792 417
f 417 792 794
f 235 160 793
f 160 235 795
f 235 395 795
f 235 393 395
f 393 523 395
f 393 521 523
f 521 665 594
f 645 521 594
f 523 521 645
f 667 645 594
f 419 668 666
f 419 666 417
f 417 794 419
f 419 794 796
f 395 324 795
f 324 395 476
f 476 395 523
f 476 523 596
f 596 523 645
f 773 797 720
f 720 797 667
f 797 596 667
f 596 645 667
f 844 895 773
f 844 773 720
f 978 1041 895
f 978 895 844
f 24 93 1041
f 24 1041 978
f 190 263 93
f 190 93 24
f 419 358 668
f 668 358 190
f 358 798 190
f 798 263 190
f 419 796 358
f 773 722 797
f 722 773 846
f 846 773 895
f 846 895 980
f 980 895 1041
f 980 1041 26
f 26 1041 93
f 26 93 192
f 192 93 263
f 263 798 192
f 799 611 669
f 669 611 609
f 611 735 609
f 737 735 611
f 737 859 735
f 861 859 737
f 861 993 859
f 995 993 861
f 995 39 993
f 41 39 995
f 41 800 39
f 39 800 670
f 226 173 671
f 801 339 226
f 339 173 226
f 339 337 173
f 339 489 337
f 491 489 339
f 669 489 491
f 669 491 799
f 205 670 800
f 205 800 207
f 672 205 409
f 205 373 409
f 205 207 373
f 373 802 409
f 64 15 673
f 175 226 671
f 175 671 15
f 803 175 15
f 64 803 15
f 801 226 175
f 409 371 672
f 409 802 371
f 802 674 371
f 802 804 674
f 64 673 17
f 673 805 17
f 673 675 805
f 803 64 17
f 674 806 676
f 804 806 674
f 1020 971 677
f 675 971 1020
f 807 675 1020
f 805 675 807
f 676 808 678
f 806 808 676
f 1020 677 973
f 677 809 973
f 677 679 809
f 807 1020 973
f 678 810 680
f 808 810 678
f 974 809 1024
f 809 681 1024
f 809 679 681
f 811 974 1024
f 372 421 682
f 372 680 421
f 680 812 421
f 680 810 812
f 972 1024 681
f 811 1024 972
f 683 811 972
f 813 811 683
f 208 814 684
f 208 684 206
f 421 374 682
f 374 206 682
f 374 208 206
f 421 812 374
f 18 813 78
f 813 685 78
f 813 683 685
f 815 18 78
f 42 816 686
f 42 686 40
f 40 684 42
f 42 684 814
f 16 78 685
f 16 174 78
f 174 817 78
f 817 815 78
f 817 174 245
f 687 245 174
f 686 818 688
f 816 818 686
f 245 176 817
f 819 176 245
f 687 819 245
f 689 819 687
f 996 820 1048
f 1048 690 996
f 690 818 996
f 690 688 818
f 821 689 691
f 821 819 689
f 692 994 1048
f 820 692 1048
f 822 692 820
f 690 1048 994
f 691 338 821
f 821 338 340
f 490 535 823
f 340 490 823
f 338 490 340
f 693 535 490
f 862 824 694
f 862 694 860
f 860 692 862
f 862 692 822
f 535 492 823
f 693 610 535
f 610 492 535
f 610 612 492
f 736 612 610
f 736 738 612
f 736 694 738
f 738 694 824
f 638 625 695
f 638 696 625
f 518 505 697
f 505 518 695
f 518 638 695
f 518 640 638
f 696 638 751
f 638 766 751
f 638 640 766
f 766 698 751
f 392 353 699
f 353 392 697
f 392 518 697
f 392 520 518
f 520 825 627
f 640 520 627
f 518 520 640
f 640 627 826
f 768 640 826
f 766 640 768
f 698 766 875
f 766 890 875
f 766 768 890
f 890 700 875
f 701 394 699
f 699 394 392
f 394 827 507
f 520 394 507
f 392 394 520
f 825 520 507
f 753 768 826
f 768 753 828
f 892 768 828
f 890 768 892
f 700 890 702
f 702 890 892
f 394 701 355
f 701 829 355
f 701 703 829
f 827 394 355
f 877 892 828
f 830 1040 1009
f 830 1009 702
f 877 830 702
f 892 877 702
f 1040 704 1009
f 356 829 398
f 829 705 398
f 829 703 705
f 831 356 398
f 1011 1040 830
f 832 94 55
f 832 55 704
f 1011 832 704
f 1040 1011 704
f 94 706 55
f 354 398 705
f 831 398 354
f 707 831 354
f 833 831 707
f 57 94 832
f 834 268 221
f 834 221 706
f 57 834 706
f 94 57 706
f 268 708 221
f 508 833 530
f 833 709 530
f 833 707 709
f 835 508 530
f 710 222 268
f 834 710 268
f 836 710 834
f 708 268 222
f 711 532 709
f 709 532 530
f 835 530 532
f 835 532 837
f 710 838 712
f 836 838 710
f 506 532 711
f 628 837 656
f 656 837 713
f 837 532 713
f 532 506 713
f 839 628 656
f 58 840 714
f 58 714 56
f 56 712 58
f 58 712 838
f 626 656 713
f 656 626 839
f 626 754 839
f 626 752 754
f 752 715 906
f 878 752 906
f 754 752 878
f 878 906 716
f 1010 878 716
f 1012 878 1010
f 1010 714 1012
f 1012 714 840
f 876 906 715
f 716 906 876
f 907 477 509
f 477 908 509
f 909 325 383
f 907 509 325
f 509 383 325
f 509 511 383
f 597 633 908
f 633 509 908
f 633 511 509
f 597 910 633
f 911 161 225
f 909 383 161
f 161 383 225
f 383 323 225
f 323 785 225
f 511 475 323
f 511 323 383
f 633 595 475
f 633 475 511
f 595 633 910
f 723 595 910
f 721 595 723
f 786 721 883
f 721 847 883
f 721 723 847
f 847 912 883
f 159 787 225
f 787 911 225
f 787 913 911
f 225 785 159
f 883 845 786
f 845 883 912
f 981 845 912
f 979 845 981
f 788 979 83
f 979 27 83
f 979 981 27
f 27 914 83
f 915 3 65
f 789 65 3
f 913 789 3
f 787 789 913
f 83 25 788
f 25 83 914
f 193 25 914
f 191 25 193
f 193 916 191
f 191 916 790
f 1 791 65
f 791 915 65
f 791 917 915
f 65 789 1
f 357 790 916
f 357 916 359
f 359 918 357
f 357 918 792
f 69 919 2
f 919 791 2
f 919 917 791
f 793 69 2
f 792 920 794
f 918 920 792
f 69 4 919
f 237 921 160
f 160 921 793
f 921 4 793
f 4 69 793
f 795 237 160
f 794 922 796
f 920 922 794
f 237 162 921
f 397 923 324
f 324 923 795
f 923 162 795
f 162 237 795
f 476 525 397
f 476 397 324
f 596 647 525
f 596 525 476
f 797 647 596
f 358 423 798
f 358 796 423
f 796 924 423
f 796 922 924
f 397 326 923
f 326 397 478
f 478 397 525
f 478 525 925
f 525 649 925
f 525 647 649
f 647 797 722
f 775 647 722
f 649 647 775
f 846 897 775
f 846 775 722
f 982 926 897
f 846 982 897
f 980 982 846
f 26 982 980
f 26 28 982
f 192 28 26
f 192 194 28
f 423 360 798
f 360 192 798
f 360 194 192
f 423 924 360
f 649 598 925
f 598 649 724
f 724 649 775
f 724 775 848
f 848 775 897
f 897 926 848
f 927 613 799
f 799 613 611
f 613 737 611
f 739 737 613
f 739 861 737
f 863 861 739
f 863 995 861
f 997 995 863
f 997 41 995
f 43 41 997
f 800 41 249
f 41 209 249
f 41 43 209
f 209 928 249
f 929 341 801
f 801 341 339
f 341 491 339
f 493 491 341
f 799 491 493
f 799 493 927
f 249 207 800
f 373 207 249
f 930 373 249
f 928 930 249
f 373 930 410
f 410 802 373
f 931 177 803
f 803 177 175
f 801 175 177
f 801 177 929
f 375 410 930
f 375 932 410
f 932 802 410
f 932 804 802
f 66 17 805
f 803 17 66
f 933 803 66
f 931 803 933
f 804 934 806
f 932 934 804
f 66 805 19
f 805 935 19
f 805 807 935
f 933 66 19
f 806 936 808
f 934 936 806
f 1022 973 809
f 807 973 1022
f 937 807 1022
f 935 807 937
f 808 938 810
f 936 938 808
f 974 1022 809
f 937 1022 974
f 811 937 974
f 939 937 811
f 810 940 812
f 938 940 810
f 941 811 813
f 941 939 811
f 208 265 814
f 376 942 265
f 208 376 265
f 374 376 208
f 374 812 376
f 376 812 940
f 813 18 941
f 941 18 20
f 943 20 18
f 943 18 815
f 44 944 816
f 44 816 42
f 265 210 814
f 210 42 814
f 210 44 42
f 265 942 210
f 945 815 817
f 945 943 815
f 816 946 818
f 944 946 816
f 817 176 945
f 945 176 178
f 947 178 176
f 947 176 819
f 996 1049 820
f 996 818 1049
f 818 948 1049
f 818 946 948
f 949 819 821
f 949 947 819
f 820 1049 998
f 950 820 998
f 822 820 950
f 1049 948 998
f 407 951 340
f 951 821 340
f 951 949 821
f 823 407 340
f 862 905 824
f 862 822 905
f 822 952 905
f 822 950 952
f 407 342 951
f 823 492 407
f 492 342 407
f 492 494 342
f 612 494 492
f 612 614 494
f 738 614 612
f 738 740 614
f 905 864 824
f 864 738 824
f 864 740 738
f 905 952 864
f 642 627 825
f 642 826 627
f 522 507 827
f 507 522 825
f 522 642 825
f 522 644 642
f 826 642 753
f 642 770 753
f 642 644 770
f 770 828 753
f 396 355 829
f 355 396 827
f 396 522 827
f 396 524 522
f 646 522 524
f 644 522 646
f 772 644 646
f 770 644 772
f 828 770 877
f 770 894 877
f 770 772 894
f 894 830 877
f 356 396 829
f 831 526 356
f 526 396 356
f 526 524 396
f 648 524 526
f 646 524 648
f 648 953 755
f 772 648 755
f 646 648 772
f 772 755 879
f 772 879 894
f 954 1042 1011
f 954 1011 830
f 879 954 830
f 894 879 830
f 1042 832 1011
f 833 528 831
f 831 528 526
f 650 526 528
f 648 526 650
f 953 648 650
f 953 650 955
f 1013 1042 954
f 956 98 57
f 956 57 832
f 1013 956 832
f 1042 1013 832
f 98 834 57
f 508 528 833
f 650 528 508
f 957 650 508
f 835 957 508
f 629 650 957
f 955 650 629
f 958 100 98
f 958 98 956
f 834 98 836
f 836 98 100
f 630 957 654
f 957 837 654
f 957 835 837
f 959 630 654
f 960 102 100
f 960 100 958
f 836 100 838
f 838 100 102
f 628 654 837
f 756 959 782
f 782 959 839
f 959 654 839
f 654 628 839
f 756 782 904
f 756 904 880
f 880 904 1052
f 880 1052 1014
f 102 960 1014
f 102 1014 1052
f 58 102 1052
f 840 58 1052
f 838 102 58
f 754 782 839
f 878 904 754
f 754 904 782
f 1012 1052 878
f 878 1052 904
f 840 1052 1012
f 1055 327 381
f 381 327 907
f 327 477 907
f 327 479 477
f 908 477 631
f 477 599 631
f 477 479 599
f 599 1056 631
f 1057 163 223
f 1055 381 163
f 163 381 223
f 381 325 223
f 325 909 223
f 381 907 325
f 631 597 908
f 1056 725 759
f 1056 759 910
f 631 1056 910
f 597 631 910
f 725 1058 759
f 1059 5 61
f 1057 223 5
f 5 223 61
f 223 161 61
f 161 911 61
f 223 909 161
f 759 723 910
f 723 759 1058
f 849 723 1058
f 847 723 849
f 849 1060 847
f 847 1060 912
f 63 1061 61
f 61 1061 1059
f 61 911 913
f 61 913 63
f 981 912 1060
f 981 1060 983
f 983 27 981
f 29 27 983
f 29 1062 27
f 27 1062 914
f 1063 961 1017
f 1061 63 961
f 961 63 1017
f 63 3 1017
f 3 915 1017
f 63 913 3
f 193 914 1062
f 193 1062 195
f 916 193 413
f 193 361 413
f 193 195 361
f 361 1064 413
f 1019 1065 1017
f 1017 1065 1063
f 1017 915 917
f 1017 917 1019
f 413 359 916
f 413 1064 359
f 1064 918 359
f 1064 1066 918
f 1021 1067 1019
f 1019 1067 1065
f 1019 917 919
f 1019 919 1021
f 918 1068 920
f 1066 1068 918
f 1021 962 1067
f 71 1069 4
f 4 1069 919
f 1069 962 919
f 962 1021 919
f 921 71 4
f 920 1070 922
f 1068 1070 920
f 71 6 1069
f 239 1071 162
f 162 1071 921
f 1071 6 921
f 6 71 921
f 923 239 162
f 362 1072 424
f 424 924 362
f 924 1070 362
f 924 922 1070
f 239 164 1071
f 399 1073 326
f 326 1073 923
f 1073 164 923
f 164 239 923
f 478 527 399
f 478 399 326
f 925 527 478
f 982 1043 926
f 30 1074 1043
f 982 30 1043
f 28 30 982
f 194 30 28
f 194 196 30
f 1072 196 424
f 196 360 424
f 196 194 360
f 924 424 360
f 401 1075 399
f 399 1075 1073
f 399 529 401
f 399 527 529
f 527 925 598
f 651 527 598
f 529 527 651
f 724 777 651
f 724 651 598
f 848 899 777
f 848 777 724
f 1043 984 926
f 926 984 848
f 984 1076 848
f 1076 899 848
f 1043 1074 984
f 401 328 1075
f 328 401 1077
f 401 531 1077
f 401 529 531
f 529 653 531
f 529 651 653
f 651 779 653
f 651 777 779
f 1078 779 850
f 779 899 850
f 779 777 899
f 899 1076 850
f 531 480 1077
f 480 531 600
f 600 531 653
f 600 653 726
f 726 653 779
f 779 1078 726
f 1079 615 927
f 927 615 613
f 615 739 613
f 741 739 615
f 741 863 739
f 865 863 741
f 865 997 863
f 999 997 865
f 999 43 997
f 45 43 999
f 250 209 1080
f 209 45 1080
f 209 43 45
f 250 928 209
f 386 341 929
f 1081 495 386
f 495 341 386
f 495 493 341
f 927 493 495
f 927 495 1079
f 211 250 1080
f 211 1082 250
f 1082 928 250
f 1082 930 928
f 228 177 931
f 343 386 929
f 343 929 177
f 1083 343 177
f 228 1083 177
f 1081 386 343
f 1084 412 375
f 930 1084 375
f 1082 1084 930
f 412 932 375
f 228 931 179
f 931 1085 179
f 931 933 1085
f 1083 228 179
f 377 412 1084
f 377 1086 412
f 1086 932 412
f 1086 934 932
f 68 19 935
f 933 19 68
f 1087 933 68
f 1085 933 1087
f 934 1088 936
f 1086 1088 934
f 68 935 21
f 935 1089 21
f 935 937 1089
f 1087 68 21
f 936 1090 938
f 1088 1090 936
f 1091 937 939
f 1091 1089 937
f 378 1092 422
f 422 940 378
f 940 1090 378
f 940 938 1090
f 22 1091 74
f 1091 941 74
f 1091 939 941
f 1093 22 74
f 942 376 422
f 1092 942 422
f 1094 942 1092
f 940 422 376
f 20 74 941
f 1093 74 20
f 943 1093 20
f 1095 1093 943
f 44 97 944
f 212 1096 97
f 44 212 97
f 210 212 44
f 210 942 212
f 212 942 1094
f 1097 943 945
f 1097 1095 943
f 99 946 944
f 99 944 97
f 97 1096 99
f 99 1096 1098
f 247 1099 178
f 1099 945 178
f 1099 1097 945
f 947 247 178
f 946 99 46
f 1100 946 46
f 948 946 1100
f 99 1098 46
f 247 180 1099
f 1101 180 247
f 947 1101 247
f 949 1101 947
f 998 1051 950
f 998 948 1051
f 948 1102 1051
f 948 1100 1102
f 344 1101 408
f 1101 951 408
f 1101 949 951
f 1103 344 408
f 950 1051 1000
f 1104 950 1000
f 952 950 1104
f 1051 1102 1000
f 342 408 951
f 408 342 1103
f 342 496 1103
f 342 494 496
f 614 496 494
f 614 616 496
f 740 616 614
f 740 742 616
f 864 742 740
f 864 866 742
f 864 952 866
f 866 952 1104
f 774 755 953
f 896 879 774
f 774 879 755
f 896 954 879
f 955 776 953
f 953 776 774
f 898 774 776
f 896 774 898
f 954 896 1013
f 896 1044 1013
f 896 898 1044
f 1044 956 1013
f 652 629 957
f 629 652 955
f 652 776 955
f 652 778 776
f 900 776 778
f 898 776 900
f 1046 898 900
f 1044 898 1046
f 956 1044 958
f 958 1044 1046
f 630 652 957
f 959 780 630
f 780 652 630
f 780 778 652
f 902 778 780
f 900 778 902
f 1050 900 902
f 1046 900 1050
f 958 1046 960
f 960 1046 1050
f 756 780 959
f 880 902 756
f 756 902 780
f 1014 1050 880
f 880 1050 902
f 960 1050 1014
f 107 329 1055
f 1055 329 327
f 329 479 327
f 481 479 329
f 481 599 479
f 601 599 481
f 1056 599 757
f 599 727 757
f 599 601 727
f 727 108 757
f 109 165 1057
f 1057 165 163
f 1055 163 165
f 1055 165 107
f 757 725 1056
f 108 851 881
f 108 881 1058
f 757 108 1058
f 725 757 1058
f 851 110 881
f 111 7 1059
f 1059 7 5
f 1057 5 7
f 1057 7 109
f 881 849 1058
f 110 985 1029
f 110 1029 1060
f 881 110 1060
f 849 881 1060
f 985 112 1029
f 113 963 1015
f 1061 1015 963
f 111 1061 963
f 1059 1061 111
f 1029 983 1060
f 983 1029 112
f 31 983 112
f 29 983 31
f 31 114 29
f 29 114 1062
f 961 1063 1015
f 1063 113 1015
f 1063 115 113
f 1015 1061 961
f 195 1062 114
f 195 114 197
f 197 361 195
f 363 361 197
f 363 116 361
f 361 116 1064
f 117 1063 1065
f 117 115 1063
f 1064 118 1066
f 116 118 1064
f 119 1065 1067
f 119 117 1065
f 1066 120 1068
f 118 120 1066
f 1023 121 962
f 121 1067 962
f 121 119 1067
f 1069 1023 962
f 1068 122 1070
f 120 122 1068
f 1023 964 121
f 73 123 6
f 6 123 1069
f 123 964 1069
f 964 1023 1069
f 1071 73 6
f 364 124 1072
f 364 1072 362
f 362 1070 364
f 364 1070 122
f 73 8 123
f 241 125 164
f 164 125 1071
f 125 8 1071
f 8 73 1071
f 1073 241 164
f 30 95 1074
f 198 126 95
f 30 198 95
f 196 198 30
f 196 1072 198
f 198 1072 124
f 241 166 125
f 127 166 241
f 1073 127 241
f 1075 127 1073
f 984 1045 1076
f 95 32 1074
f 1074 32 984
f 32 128 984
f 128 1045 984
f 95 126 32
f 403 129 328
f 129 1075 328
f 129 127 1075
f 1077 403 328
f 850 901 1078
f 1045 986 1076
f 1076 986 850
f 986 130 850
f 130 901 850
f 1045 128 986
f 403 330 129
f 533 131 480
f 480 131 1077
f 131 330 1077
f 330 403 1077
f 600 655 533
f 600 533 480
f 726 781 655
f 726 655 600
f 901 852 1078
f 1078 852 726
f 852 132 726
f 132 781 726
f 901 130 852
f 533 482 131
f 482 533 602
f 602 533 655
f 602 655 728
f 728 655 781
f 781 132 728
f 634 615 1079
f 133 743 634
f 743 615 634
f 743 741 615
f 743 865 741
f 867 865 743
f 867 999 865
f 1001 999 867
f 80 45 134
f 45 1001 134
f 45 999 1001
f 80 1080 45
f 135 497 1081
f 1081 497 495
f 617 634 1079
f 495 617 1079
f 497 617 495
f 133 634 617
f 47 80 134
f 136 252 211
f 136 211 1080
f 47 136 1080
f 80 47 1080
f 252 1082 211
f 137 345 1083
f 1083 345 343
f 1081 343 345
f 1081 345 135
f 213 252 136
f 213 138 252
f 138 1082 252
f 138 1084 1082
f 230 179 1085
f 1083 179 230
f 139 1083 230
f 137 1083 139
f 140 414 377
f 1084 140 377
f 138 140 1084
f 414 1086 377
f 230 1085 181
f 1085 141 181
f 1085 1087 141
f 139 230 181
f 379 414 140
f 379 142 414
f 142 1086 414
f 142 1088 1086
f 70 21 1089
f 1087 21 70
f 143 1087 70
f 141 1087 143
f 380 144 418
f 418 1090 380
f 1090 142 380
f 1090 1088 142
f 1091 72 1089
f 1089 72 70
f 143 70 72
f 143 72 145
f 1092 378 418
f 144 1092 418
f 146 1092 144
f 1090 418 378
f 22 72 1091
f 145 72 22
f 1093 145 22
f 147 145 1093
f 1092 148 1094
f 146 148 1092
f 149 1093 1095
f 149 147 1093
f 212 267 1096
f 212 1094 267
f 1094 150 267
f 1094 148 150
f 151 1095 1097
f 151 149 1095
f 1096 267 214
f 152 1096 214
f 1098 1096 152
f 267 150 214
f 182 151 248
f 151 1099 248
f 151 1097 1099
f 153 182 248
f 46 101 1100
f 46 1098 101
f 1098 154 101
f 1098 152 154
f 180 248 1099
f 346 153 406
f 406 153 1101
f 153 248 1101
f 248 180 1101
f 155 346 406
f 103 1102 1100
f 103 1100 101
f 101 154 103
f 103 154 156
f 344 406 1101
f 155 406 344
f 1103 155 344
f 157 155 1103
f 1000 1053 1104
f 103 48 1102
f 1102 48 1000
f 48 158 1000
f 158 1053 1000
f 103 156 48
f 1103 496 157
f 157 496 498
f 616 498 496
f 616 618 498
f 742 618 616
f 742 744 618
f 866 744 742
f 866 868 744
f 1053 1002 1104
f 1002 866 1104
f 1002 868 866
f 1053 158 1002
