# Converted from NanoShaper .vert/.face
v 12.366000 1.336000 3.657000
v 14.666000 1.336000 3.657000
v 12.018000 1.336000 4.157000
v 15.116000 1.336000 4.157000
v 11.781000 1.336000 4.657000
v 15.763000 1.336000 4.657000
v 11.582000 1.336000 5.157000
v 16.090000 1.336000 5.157000
v 11.458000 1.336000 5.657000
v 16.181000 1.336000 5.657000
v 11.226000 1.336000 6.157000
v 16.234000 1.336000 6.157000
v 10.986000 1.336000 6.657000
v 16.240000 1.336000 6.657000
v 10.895000 1.336000 7.157000
v 16.245000 1.336000 7.157000
v 10.908000 1.336000 7.657000
v 16.198000 1.336000 7.657000
v 11.004000 1.336000 8.157000
v 16.208000 1.336000 8.157000
v 11.339000 1.336000 8.657000
v 16.168000 1.336000 8.657000
v 11.927000 1.336000 9.157000
v 16.236000 1.336000 9.157000
v 12.297000 1.336000 9.657000
v 16.417000 1.336000 9.657000
v 13.006000 1.336000 10.157000
v 16.510000 1.336000 10.157000
v 13.611000 1.336000 10.657000
v 16.386000 1.336000 10.657000
v 14.682000 1.336000 11.157000
v 15.926000 1.336000 11.157000
v 14.823000 5.336000 7.657000
v 15.878000 5.336000 7.657000
v 14.644000 5.336000 8.157000
v 16.057000 5.336000 8.157000
v 14.882000 5.336000 8.657000
v 15.819000 5.336000 8.657000
v 11.066000 1.336000 6.448000
v 11.066000 1.336000 8.294000
v 11.566000 1.336000 5.202000
v 11.566000 1.336000 8.833000
v 12.066000 1.336000 4.057000
v 12.066000 1.336000 9.342000
v 12.566000 1.336000 3.504000
v 12.566000 1.336000 9.874000
v 13.066000 1.336000 3.313000
v 13.066000 1.336000 10.200000
v 13.566000 1.336000 3.316000
v 13.566000 1.336000 10.621000
v 14.066000 1.336000 3.358000
v 14.066000 1.336000 10.873000
v 14.566000 1.336000 3.579000
v 14.566000 1.336000 11.080000
v 15.066000 1.336000 4.106000
v 15.066000 1.336000 11.306000
v 15.566000 1.336000 4.497000
v 15.566000 1.336000 11.301000
v 16.066000 1.336000 5.096000
v 16.066000 1.336000 11.059000
v 15.066000 5.336000 7.480000
v 15.066000 5.336000 8.774000
v 15.566000 5.336000 7.454000
v 15.566000 5.336000 8.801000
v 11.066000 0.250000 7.157000
v 11.066000 2.275000 7.157000
v 11.566000 -1.214000 7.157000
v 11.566000 2.796000 7.157000
v 12.066000 -1.924000 7.157000
v 12.066000 3.321000 7.157000
v 12.566000 -2.142000 7.157000
v 12.566000 4.195000 7.157000
v 13.066000 -2.261000 7.157000
v 13.066000 4.734000 7.157000
v 13.566000 -2.270000 7.157000
v 13.566000 4.925000 7.157000
v 14.066000 -2.086000 7.157000
v 14.066000 4.958000 7.157000
v 14.566000 -1.757000 7.157000
v 14.566000 5.043000 7.157000
v 15.066000 -1.493000 7.157000
v 15.066000 5.152000 7.157000
v 15.566000 -1.031000 7.157000
v 15.566000 5.123000 7.157000
v 16.066000 -0.435000 7.157000
v 16.066000 4.841000 7.157000
v 14.566000 1.457000 11.157000
v 14.566000 3.212000 11.157000
v 15.066000 1.132000 11.157000
v 15.066000 3.525000 11.157000
v 15.566000 1.139000 11.157000
v 15.566000 3.532000 11.157000
v 16.066000 1.489000 11.157000
v 16.066000 3.238000 11.157000
v 12.084000 -2.164000 5.157000
v 12.586000 -2.164000 5.157000
v 11.743000 -2.164000 5.657000
v 12.926000 -2.164000 5.657000
v 11.965000 -2.164000 6.157000
v 13.073000 -2.164000 6.157000
v 12.295000 -2.164000 6.657000
v 13.600000 -2.164000 6.657000
v 12.651000 -2.164000 7.157000
v 13.918000 -2.164000 7.157000
v 13.027000 -2.164000 7.657000
v 13.655000 -2.164000 7.657000
v 12.687000 1.836000 3.657000
v 14.296000 1.836000 3.657000
v 12.224000 1.836000 4.157000
v 14.930000 1.836000 4.157000
v 11.980000 1.836000 4.657000
v 15.758000 1.836000 4.657000
v 11.805000 1.836000 5.157000
v 16.086000 1.836000 5.157000
v 11.628000 1.836000 5.657000
v 16.189000 1.836000 5.657000
v 11.341000 1.836000 6.157000
v 16.240000 1.836000 6.157000
v 11.004000 1.836000 6.657000
v 16.202000 1.836000 6.657000
v 10.901000 1.836000 7.157000
v 16.240000 1.836000 7.157000
v 10.986000 1.836000 7.657000
v 16.214000 1.836000 7.657000
v 11.194000 1.836000 8.157000
v 16.217000 1.836000 8.157000
v 11.615000 1.836000 8.657000
v 16.217000 1.836000 8.657000
v 12.158000 1.836000 9.157000
v 16.354000 1.836000 9.157000
v 12.469000 1.836000 9.657000
v 16.607000 1.836000 9.657000
v 12.887000 1.836000 10.157000
v 16.688000 1.836000 10.157000
v 13.340000 1.836000 10.657000
v 16.581000 1.836000 10.657000
v 14.325000 1.836000 11.157000
v 16.224000 1.836000 11.157000
v 12.066000 -2.164000 5.166000
v 12.066000 -2.164000 6.234000
v 12.566000 -2.164000 5.148000
v 12.566000 -2.164000 7.089000
v 13.066000 -2.164000 6.149000
v 13.066000 -2.164000 7.680000
v 13.566000 -2.164000 6.641000
v 13.566000 -2.164000 7.705000
v 11.066000 1.836000 6.527000
v 11.066000 1.836000 7.859000
v 11.566000 1.836000 5.809000
v 11.566000 1.836000 8.620000
v 12.066000 1.836000 4.456000
v 12.066000 1.836000 9.040000
v 12.566000 1.836000 3.741000
v 12.566000 1.836000 9.791000
v 13.066000 1.836000 3.510000
v 13.066000 1.836000 10.325000
v 13.566000 1.836000 3.515000
v 13.566000 1.836000 10.849000
v 14.066000 1.836000 3.570000
v 14.066000 1.836000 11.062000
v 14.566000 1.836000 3.845000
v 14.566000 1.836000 11.294000
v 15.066000 1.836000 4.242000
v 15.066000 1.836000 11.486000
v 15.566000 1.836000 4.502000
v 15.566000 1.836000 11.482000
v 16.066000 1.836000 5.106000
v 16.066000 1.836000 11.278000
v 16.566000 1.836000 9.554000
v 16.566000 1.836000 10.691000
v 12.566000 0.016000 3.657000
v 12.566000 1.717000 3.657000
v 13.066000 -0.314000 3.657000
v 13.066000 2.026000 3.657000
v 13.566000 -0.327000 3.657000
v 13.566000 2.019000 3.657000
v 14.066000 -0.025000 3.657000
v 14.066000 1.949000 3.657000
v 14.566000 0.565000 3.657000
v 14.566000 1.556000 3.657000
v 11.066000 0.459000 7.657000
v 11.066000 2.089000 7.657000
v 11.566000 -0.582000 7.657000
v 11.566000 2.719000 7.657000
v 12.066000 -1.495000 7.657000
v 12.066000 3.497000 7.657000
v 12.566000 -1.949000 7.657000
v 12.566000 4.216000 7.657000
v 13.066000 -2.173000 7.657000
v 13.066000 4.725000 7.657000
v 13.566000 -2.183000 7.657000
v 13.566000 4.934000 7.657000
v 14.066000 -1.996000 7.657000
v 14.066000 5.005000 7.657000
v 14.566000 -1.819000 7.657000
v 14.566000 5.199000 7.657000
v 15.066000 -1.615000 7.657000
v 15.066000 5.415000 7.657000
v 15.566000 -1.144000 7.657000
v 15.566000 5.429000 7.657000
v 16.066000 -0.622000 7.657000
v 16.066000 5.235000 7.657000
v 16.566000 3.616000 7.657000
v 16.566000 4.639000 7.657000
v 11.792000 -1.664000 4.657000
v 12.877000 -1.664000 4.657000
v 11.295000 -1.664000 5.157000
v 13.393000 -1.664000 5.157000
v 11.165000 -1.664000 5.657000
v 13.590000 -1.664000 5.657000
v 11.260000 -1.664000 6.157000
v 13.952000 -1.664000 6.157000
v 11.586000 -1.664000 6.657000
v 14.392000 -1.664000 6.657000
v 11.793000 -1.664000 7.157000
v 14.752000 -1.664000 7.157000
v 12.238000 -1.664000 7.657000
v 14.985000 -1.664000 7.657000
v 12.707000 -1.664000 8.157000
v 14.790000 -1.664000 8.157000
v 12.577000 2.336000 4.157000
v 14.144000 2.336000 4.157000
v 12.166000 2.336000 4.657000
v 15.438000 2.336000 4.657000
v 11.974000 2.336000 5.157000
v 15.896000 2.336000 5.157000
v 11.784000 2.336000 5.657000
v 16.159000 2.336000 5.657000
v 11.501000 2.336000 6.157000
v 16.236000 2.336000 6.157000
v 11.227000 2.336000 6.657000
v 16.191000 2.336000 6.657000
v 11.104000 2.336000 7.157000
v 16.230000 2.336000 7.157000
v 11.205000 2.336000 7.657000
v 16.211000 2.336000 7.657000
v 11.542000 2.336000 8.157000
v 16.199000 2.336000 8.157000
v 11.900000 2.336000 8.657000
v 16.286000 2.336000 8.657000
v 12.304000 2.336000 9.157000
v 16.460000 2.336000 9.157000
v 12.542000 2.336000 9.657000
v 16.634000 2.336000 9.657000
v 12.879000 2.336000 10.157000
v 16.712000 2.336000 10.157000
v 13.313000 2.336000 10.657000
v 16.627000 2.336000 10.657000
v 14.264000 2.336000 11.157000
v 16.309000 2.336000 11.157000
v 11.566000 -1.664000 4.811000
v 11.566000 -1.664000 6.623000
v 12.066000 -1.664000 4.555000
v 12.066000 -1.664000 7.502000
v 12.566000 -1.664000 4.547000
v 12.566000 -1.664000 8.047000
v 13.066000 -1.664000 4.780000
v 13.066000 -1.664000 8.315000
v 13.566000 -1.664000 5.600000
v 13.566000 -1.664000 8.341000
v 14.066000 -1.664000 6.259000
v 14.066000 -1.664000 8.338000
v 14.566000 -1.664000 6.921000
v 14.566000 -1.664000 8.309000
v 11.566000 2.336000 6.023000
v 11.566000 2.336000 8.193000
v 12.066000 2.336000 4.878000
v 12.066000 2.336000 8.858000
v 12.566000 2.336000 4.165000
v 12.566000 2.336000 9.707000
v 13.066000 2.336000 3.943000
v 13.066000 2.336000 10.352000
v 13.566000 2.336000 3.955000
v 13.566000 2.336000 10.868000
v 14.066000 2.336000 4.113000
v 14.066000 2.336000 11.076000
v 14.566000 2.336000 4.393000
v 14.566000 2.336000 11.335000
v 15.066000 2.336000 4.499000
v 15.066000 2.336000 11.540000
v 15.566000 2.336000 4.753000
v 15.566000 2.336000 11.544000
v 16.066000 2.336000 5.447000
v 16.066000 2.336000 11.352000
v 16.566000 2.336000 9.405000
v 16.566000 2.336000 10.799000
v 12.066000 -0.646000 4.157000
v 12.066000 1.507000 4.157000
v 12.566000 -0.951000 4.157000
v 12.566000 2.325000 4.157000
v 13.066000 -0.926000 4.157000
v 13.066000 2.614000 4.157000
v 13.566000 -0.708000 4.157000
v 13.566000 2.593000 4.157000
v 14.066000 -0.469000 4.157000
v 14.066000 2.375000 4.157000
v 14.566000 0.038000 4.157000
v 14.566000 2.128000 4.157000
v 15.066000 0.875000 4.157000
v 15.066000 1.590000 4.157000
v 11.066000 0.686000 8.157000
v 11.066000 1.578000 8.157000
v 11.566000 -0.619000 8.157000
v 11.566000 2.384000 8.157000
v 12.066000 -1.187000 8.157000
v 12.066000 3.677000 8.157000
v 12.566000 -1.567000 8.157000
v 12.566000 4.273000 8.157000
v 13.066000 -1.846000 8.157000
v 13.066000 4.773000 8.157000
v 13.566000 -1.859000 8.157000
v 13.566000 4.991000 8.157000
v 14.066000 -1.773000 8.157000
v 14.066000 5.067000 8.157000
v 14.566000 -1.731000 8.157000
v 14.566000 5.287000 8.157000
v 15.066000 -1.513000 8.157000
v 15.066000 5.498000 8.157000
v 15.566000 -1.014000 8.157000
v 15.566000 5.511000 8.157000
v 16.066000 -0.387000 8.157000
v 16.066000 5.331000 8.157000
v 16.566000 3.432000 8.157000
v 16.566000 4.822000 8.157000
v 11.433000 -1.164000 4.657000
v 13.499000 -1.164000 4.657000
v 11.070000 -1.164000 5.157000
v 13.920000 -1.164000 5.157000
v 10.961000 -1.164000 5.657000
v 14.069000 -1.164000 5.657000
v 11.041000 -1.164000 6.157000
v 14.379000 -1.164000 6.157000
v 11.333000 -1.164000 6.657000
v 14.935000 -1.164000 6.657000
v 11.553000 -1.164000 7.157000
v 15.405000 -1.164000 7.157000
v 11.803000 -1.164000 7.657000
v 15.543000 -1.164000 7.657000
v 12.034000 -1.164000 8.157000
v 15.411000 -1.164000 8.157000
v 12.277000 -1.164000 8.657000
v 14.993000 -1.164000 8.657000
v 12.371000 2.836000 4.657000
v 14.300000 2.836000 4.657000
v 12.016000 2.836000 5.157000
v 15.585000 2.836000 5.157000
v 11.889000 2.836000 5.657000
v 15.987000 2.836000 5.657000
v 11.732000 2.836000 6.157000
v 16.150000 2.836000 6.157000
v 11.632000 2.836000 6.657000
v 16.212000 2.836000 6.657000
v 11.609000 2.836000 7.157000
v 16.217000 2.836000 7.157000
v 11.668000 2.836000 7.657000
v 16.247000 2.836000 7.657000
v 11.790000 2.836000 8.157000
v 16.262000 2.836000 8.157000
v 12.008000 2.836000 8.657000
v 16.396000 2.836000 8.657000
v 12.305000 2.836000 9.157000
v 16.636000 2.836000 9.157000
v 12.518000 2.836000 9.657000
v 16.716000 2.836000 9.657000
v 12.835000 2.836000 10.157000
v 16.702000 2.836000 10.157000
v 13.333000 2.836000 10.657000
v 16.615000 2.836000 10.657000
v 14.305000 2.836000 11.157000
v 16.293000 2.836000 11.157000
v 11.066000 -1.164000 5.166000
v 11.066000 -1.164000 6.221000
v 11.566000 -1.164000 4.555000
v 11.566000 -1.164000 7.187000
v 12.066000 -1.164000 4.345000
v 12.066000 -1.164000 8.233000
v 12.566000 -1.164000 4.291000
v 12.566000 -1.164000 8.849000
v 13.066000 -1.164000 4.401000
v 13.066000 -1.164000 8.876000
v 13.566000 -1.164000 4.709000
v 13.566000 -1.164000 8.816000
v 14.066000 -1.164000 5.649000
v 14.066000 -1.164000 8.854000
v 14.566000 -1.164000 6.318000
v 14.566000 -1.164000 8.848000
v 15.066000 -1.164000 6.753000
v 15.066000 -1.164000 8.601000
v 12.066000 2.836000 5.051000
v 12.066000 2.836000 8.779000
v 12.566000 2.836000 4.501000
v 12.566000 2.836000 9.773000
v 13.066000 2.836000 4.293000
v 13.066000 2.836000 10.381000
v 13.566000 2.836000 4.305000
v 13.566000 2.836000 10.849000
v 14.066000 2.836000 4.520000
v 14.066000 2.836000 11.057000
v 14.566000 2.836000 4.777000
v 14.566000 2.836000 11.322000
v 15.066000 2.836000 4.926000
v 15.066000 2.836000 11.528000
v 15.566000 2.836000 5.143000
v 15.566000 2.836000 11.533000
v 16.066000 2.836000 5.856000
v 16.066000 2.836000 11.339000
v 16.566000 2.836000 8.993000
v 16.566000 2.836000 10.774000
v 11.566000 -1.438000 4.657000
v 11.566000 0.896000 4.657000
v 12.066000 -1.797000 4.657000
v 12.066000 2.120000 4.657000
v 12.566000 -1.807000 4.657000
v 12.566000 3.208000 4.657000
v 13.066000 -1.491000 4.657000
v 13.066000 3.517000 4.657000
v 13.566000 -1.104000 4.657000
v 13.566000 3.503000 4.657000
v 14.066000 -0.639000 4.657000
v 14.066000 3.139000 4.657000
v 14.566000 -0.167000 4.657000
v 14.566000 2.659000 4.657000
v 15.066000 0.366000 4.657000
v 15.066000 2.532000 4.657000
v 15.566000 0.944000 4.657000
v 15.566000 2.207000 4.657000
v 11.566000 -0.433000 8.657000
v 11.566000 1.783000 8.657000
v 12.066000 -1.050000 8.657000
v 12.066000 3.320000 8.657000
v 12.566000 -1.255000 8.657000
v 12.566000 4.247000 8.657000
v 13.066000 -1.354000 8.657000
v 13.066000 4.749000 8.657000
v 13.566000 -1.366000 8.657000
v 13.566000 4.930000 8.657000
v 14.066000 -1.415000 8.657000
v 14.066000 4.989000 8.657000
v 14.566000 -1.407000 8.657000
v 14.566000 5.184000 8.657000
v 15.066000 -1.086000 8.657000
v 15.066000 5.392000 8.657000
v 15.566000 -0.558000 8.657000
v 15.566000 5.405000 8.657000
v 16.066000 0.739000 8.657000
v 16.066000 5.208000 8.657000
v 16.566000 3.241000 8.657000
v 16.566000 4.577000 8.657000
v 12.081000 -0.664000 4.157000
v 13.665000 -0.664000 4.157000
v 11.422000 -0.664000 4.657000
v 14.038000 -0.664000 4.657000
v 11.063000 -0.664000 5.157000
v 14.346000 -0.664000 5.157000
v 10.954000 -0.664000 5.657000
v 14.555000 -0.664000 5.657000
v 11.033000 -0.664000 6.157000
v 14.941000 -0.664000 6.157000
v 11.259000 -0.664000 6.657000
v 15.531000 -0.664000 6.657000
v 11.482000 -0.664000 7.157000
v 15.941000 -0.664000 7.157000
v 11.588000 -0.664000 7.657000
v 16.041000 -0.664000 7.657000
v 11.591000 -0.664000 8.157000
v 15.919000 -0.664000 8.157000
v 11.684000 -0.664000 8.657000
v 15.455000 -0.664000 8.657000
v 12.075000 -0.664000 9.157000
v 13.598000 -0.664000 9.157000
v 12.697000 3.336000 4.657000
v 13.882000 3.336000 4.657000
v 12.225000 3.336000 5.157000
v 14.943000 3.336000 5.157000
v 12.099000 3.336000 5.657000
v 15.849000 3.336000 5.657000
v 12.129000 3.336000 6.157000
v 16.127000 3.336000 6.157000
v 12.068000 3.336000 6.657000
v 16.219000 3.336000 6.657000
v 12.078000 3.336000 7.157000
v 16.290000 3.336000 7.157000
v 11.987000 3.336000 7.657000
v 16.426000 3.336000 7.657000
v 11.959000 3.336000 8.157000
v 16.510000 3.336000 8.157000
v 12.069000 3.336000 8.657000
v 16.596000 3.336000 8.657000
v 12.346000 3.336000 9.157000
v 16.692000 3.336000 9.157000
v 12.503000 3.336000 9.657000
v 16.707000 3.336000 9.657000
v 12.813000 3.336000 10.157000
v 16.600000 3.336000 10.157000
v 13.634000 3.336000 10.657000
v 16.390000 3.336000 10.657000
v 14.693000 3.336000 11.157000
v 15.962000 3.336000 11.157000
v 11.066000 -0.664000 5.149000
v 11.066000 -0.664000 6.251000
v 11.566000 -0.664000 4.528000
v 11.566000 -0.664000 7.463000
v 12.066000 -0.664000 4.166000
v 12.066000 -0.664000 9.150000
v 12.566000 -0.664000 3.950000
v 12.566000 -0.664000 9.374000
v 13.066000 -0.664000 3.942000
v 13.066000 -0.664000 9.365000
v 13.566000 -0.664000 4.093000
v 13.566000 -0.664000 9.168000
v 14.066000 -0.664000 4.713000
v 14.066000 -0.664000 9.066000
v 14.566000 -0.664000 5.677000
v 14.566000 -0.664000 9.034000
v 15.066000 -0.664000 6.262000
v 15.066000 -0.664000 8.850000
v 15.566000 -0.664000 6.683000
v 15.566000 -0.664000 8.583000
v 12.066000 3.336000 7.238000
v 12.066000 3.336000 8.650000
v 12.566000 3.336000 4.744000
v 12.566000 3.336000 9.805000
v 13.066000 3.336000 4.520000
v 13.066000 3.336000 10.363000
v 13.566000 3.336000 4.532000
v 13.566000 3.336000 10.623000
v 14.066000 3.336000 4.751000
v 14.066000 3.336000 10.852000
v 14.566000 3.336000 4.995000
v 14.566000 3.336000 11.084000
v 15.066000 3.336000 5.186000
v 15.066000 3.336000 11.314000
v 15.566000 3.336000 5.396000
v 15.566000 3.336000 11.320000
v 16.066000 3.336000 6.007000
v 16.066000 3.336000 11.081000
v 16.566000 3.336000 8.528000
v 16.566000 3.336000 10.243000
v 11.066000 -1.145000 5.157000
v 11.066000 -0.647000 5.157000
v 11.566000 -1.935000 5.157000
v 11.566000 1.277000 5.157000
v 12.066000 -2.160000 5.157000
v 12.066000 3.024000 5.157000
v 12.566000 -2.168000 5.157000
v 12.566000 3.673000 5.157000
v 13.066000 -1.962000 5.157000
v 13.066000 3.879000 5.157000
v 13.566000 -1.528000 5.157000
v 13.566000 4.016000 5.157000
v 14.066000 -0.963000 5.157000
v 14.066000 4.011000 5.157000
v 14.566000 -0.474000 5.157000
v 14.566000 3.785000 5.157000
v 15.066000 0.022000 5.157000
v 15.066000 3.254000 5.157000
v 15.566000 0.509000 5.157000
v 15.566000 2.855000 5.157000
v 16.066000 1.229000 5.157000
v 16.066000 1.922000 5.157000
v 12.066000 -0.655000 9.157000
v 12.066000 1.677000 9.157000
v 12.566000 -0.937000 9.157000
v 12.566000 3.981000 9.157000
v 13.066000 -0.926000 9.157000
v 13.066000 4.620000 9.157000
v 13.566000 -0.684000 9.157000
v 13.566000 4.835000 9.157000
v 14.066000 -0.382000 9.157000
v 14.066000 4.980000 9.157000
v 14.566000 -0.132000 9.157000
v 14.566000 5.037000 9.157000
v 15.066000 0.047000 9.157000
v 15.066000 5.102000 9.157000
v 15.566000 0.327000 9.157000
v 15.566000 5.100000 9.157000
v 16.066000 0.962000 9.157000
v 16.066000 4.877000 9.157000
v 16.566000 2.583000 9.157000
v 16.566000 4.248000 9.157000
v 12.744000 -0.164000 3.657000
v 13.915000 -0.164000 3.657000
v 11.827000 -0.164000 4.157000
v 14.386000 -0.164000 4.157000
v 11.483000 -0.164000 4.657000
v 14.569000 -0.164000 4.657000
v 11.252000 -0.164000 5.157000
v 14.889000 -0.164000 5.157000
v 11.119000 -0.164000 5.657000
v 15.091000 -0.164000 5.657000
v 11.077000 -0.164000 6.157000
v 15.561000 -0.164000 6.157000
v 11.124000 -0.164000 6.657000
v 15.956000 -0.164000 6.657000
v 11.271000 -0.164000 7.157000
v 16.148000 -0.164000 7.157000
v 11.401000 -0.164000 7.657000
v 16.232000 -0.164000 7.657000
v 11.408000 -0.164000 8.157000
v 16.129000 -0.164000 8.157000
v 11.492000 -0.164000 8.657000
v 15.781000 -0.164000 8.657000
v 11.803000 -0.164000 9.157000
v 14.473000 -0.164000 9.157000
v 12.908000 3.836000 5.157000
v 14.484000 3.836000 5.157000
v 12.630000 3.836000 5.657000
v 15.801000 3.836000 5.657000
v 12.565000 3.836000 6.157000
v 16.122000 3.836000 6.157000
v 12.451000 3.836000 6.657000
v 16.224000 3.836000 6.657000
v 12.403000 3.836000 7.157000
v 16.380000 3.836000 7.157000
v 12.244000 3.836000 7.657000
v 16.636000 3.836000 7.657000
v 12.152000 3.836000 8.157000
v 16.719000 3.836000 8.157000
v 12.280000 3.836000 8.657000
v 16.677000 3.836000 8.657000
v 12.520000 3.836000 9.157000
v 16.697000 3.836000 9.157000
v 12.690000 3.836000 9.657000
v 16.609000 3.836000 9.657000
v 13.075000 3.836000 10.157000
v 16.376000 3.836000 10.157000
v 14.196000 3.836000 10.657000
v 15.881000 3.836000 10.657000
v 11.566000 -0.164000 4.512000
v 11.566000 -0.164000 8.828000
v 12.066000 -0.164000 3.964000
v 12.066000 -0.164000 9.368000
v 12.566000 -0.164000 3.732000
v 12.566000 -0.164000 9.556000
v 13.066000 -0.164000 3.538000
v 13.066000 -0.164000 9.574000
v 13.566000 -0.164000 3.527000
v 13.566000 -0.164000 9.424000
v 14.066000 -0.164000 3.759000
v 14.066000 -0.164000 9.257000
v 14.566000 -0.164000 4.651000
v 14.566000 -0.164000 9.147000
v 15.066000 -0.164000 5.608000
v 15.066000 -0.164000 9.039000
v 15.566000 -0.164000 6.161000
v 15.566000 -0.164000 8.835000
v 16.066000 -0.164000 6.930000
v 16.066000 -0.164000 8.291000
v 12.566000 3.836000 6.147000
v 12.566000 3.836000 9.288000
v 13.066000 3.836000 5.074000
v 13.066000 3.836000 10.150000
v 13.566000 3.836000 4.985000
v 13.566000 3.836000 10.380000
v 14.066000 3.836000 5.013000
v 14.066000 3.836000 10.572000
v 14.566000 3.836000 5.181000
v 14.566000 3.836000 10.820000
v 15.066000 3.836000 5.277000
v 15.066000 3.836000 10.856000
v 15.566000 3.836000 5.470000
v 15.566000 3.836000 10.789000
v 16.066000 3.836000 6.026000
v 16.066000 3.836000 10.530000
v 16.566000 3.836000 7.497000
v 16.566000 3.836000 9.769000
v 11.066000 -1.486000 5.657000
v 11.066000 -0.299000 5.657000
v 11.566000 -2.065000 5.657000
v 11.566000 1.686000 5.657000
v 12.066000 -2.269000 5.657000
v 12.066000 3.279000 5.657000
v 12.566000 -2.276000 5.657000
v 12.566000 3.797000 5.657000
v 13.066000 -2.090000 5.657000
v 13.066000 4.136000 5.657000
v 13.566000 -1.683000 5.657000
v 13.566000 4.361000 5.657000
v 14.066000 -1.168000 5.657000
v 14.066000 4.544000 5.657000
v 14.566000 -0.655000 5.657000
v 14.566000 4.568000 5.657000
v 15.066000 -0.193000 5.657000
v 15.066000 4.560000 5.657000
v 15.566000 0.315000 5.657000
v 15.566000 4.266000 5.657000
v 16.066000 0.968000 5.657000
v 16.066000 2.652000 5.657000
v 12.566000 0.280000 9.657000
v 12.566000 3.581000 9.657000
v 13.066000 0.018000 9.657000
v 13.066000 4.240000 9.657000
v 13.566000 0.119000 9.657000
v 13.566000 4.657000 9.657000
v 14.066000 0.359000 9.657000
v 14.066000 4.873000 9.657000
v 14.566000 0.510000 9.657000
v 14.566000 4.893000 9.657000
v 15.066000 0.494000 9.657000
v 15.066000 4.911000 9.657000
v 15.566000 0.587000 9.657000
v 15.566000 4.902000 9.657000
v 16.066000 0.927000 9.657000
v 16.066000 4.691000 9.657000
v 16.566000 1.657000 9.657000
v 16.566000 4.013000 9.657000
v 12.415000 0.336000 3.657000
v 14.364000 0.336000 3.657000
v 11.835000 0.336000 4.157000
v 14.841000 0.336000 4.157000
v 11.516000 0.336000 4.657000
v 15.044000 0.336000 4.657000
v 11.400000 0.336000 5.157000
v 15.377000 0.336000 5.157000
v 11.285000 0.336000 5.657000
v 15.589000 0.336000 5.657000
v 11.070000 0.336000 6.157000
v 15.927000 0.336000 6.157000
v 10.969000 0.336000 6.657000
v 16.155000 0.336000 6.657000
v 11.041000 0.336000 7.157000
v 16.236000 0.336000 7.157000
v 11.137000 0.336000 7.657000
v 16.230000 0.336000 7.657000
v 11.234000 0.336000 8.157000
v 16.145000 0.336000 8.157000
v 11.457000 0.336000 8.657000
v 15.919000 0.336000 8.657000
v 11.818000 0.336000 9.157000
v 15.575000 0.336000 9.157000
v 12.528000 0.336000 9.657000
v 14.018000 0.336000 9.657000
v 13.498000 4.336000 5.657000
v 15.495000 4.336000 5.657000
v 13.077000 4.336000 6.157000
v 15.911000 4.336000 6.157000
v 12.745000 4.336000 6.657000
v 16.067000 4.336000 6.657000
v 12.651000 4.336000 7.157000
v 16.349000 4.336000 7.157000
v 12.669000 4.336000 7.657000
v 16.653000 4.336000 7.657000
v 12.631000 4.336000 8.157000
v 16.735000 4.336000 8.157000
v 12.626000 4.336000 8.657000
v 16.634000 4.336000 8.657000
v 12.760000 4.336000 9.157000
v 16.522000 4.336000 9.157000
v 13.197000 4.336000 9.657000
v 16.411000 4.336000 9.657000
v 13.723000 4.336000 10.157000
v 15.999000 4.336000 10.157000
v 11.066000 0.336000 6.170000
v 11.066000 0.336000 7.259000
v 11.566000 0.336000 4.539000
v 11.566000 0.336000 8.832000
v 12.066000 0.336000 3.964000
v 12.066000 0.336000 9.367000
v 12.566000 0.336000 3.537000
v 12.566000 0.336000 9.676000
v 13.066000 0.336000 3.326000
v 13.066000 0.336000 9.848000
v 13.566000 0.336000 3.317000
v 13.566000 0.336000 9.837000
v 14.066000 0.336000 3.496000
v 14.066000 0.336000 9.630000
v 14.566000 0.336000 3.801000
v 14.566000 0.336000 9.429000
v 15.066000 0.336000 4.695000
v 15.066000 0.336000 9.408000
v 15.566000 0.336000 5.617000
v 15.566000 0.336000 9.167000
v 16.066000 0.336000 6.434000
v 16.066000 0.336000 8.375000
v 13.066000 4.336000 6.172000
v 13.066000 4.336000 9.533000
v 13.566000 4.336000 5.613000
v 13.566000 4.336000 10.049000
v 14.066000 4.336000 5.469000
v 14.066000 4.336000 10.289000
v 14.566000 4.336000 5.466000
v 14.566000 4.336000 10.347000
v 15.066000 4.336000 5.476000
v 15.066000 4.336000 10.381000
v 15.566000 4.336000 5.709000
v 15.566000 4.336000 10.345000
v 16.066000 4.336000 6.653000
v 16.066000 4.336000 10.107000
v 16.566000 4.336000 7.465000
v 16.566000 4.336000 8.913000
v 11.066000 -1.264000 6.157000
v 11.066000 -0.356000 6.157000
v 11.566000 -1.970000 6.157000
v 11.566000 2.527000 6.157000
v 12.066000 -2.189000 6.157000
v 12.066000 3.253000 6.157000
v 12.566000 -2.236000 6.157000
v 12.566000 3.838000 6.157000
v 13.066000 -2.166000 6.157000
v 13.066000 4.327000 6.157000
v 13.566000 -1.949000 6.157000
v 13.566000 4.648000 6.157000
v 14.066000 -1.556000 6.157000
v 14.066000 4.859000 6.157000
v 14.566000 -0.991000 6.157000
v 14.566000 4.883000 6.157000
v 15.066000 -0.548000 6.157000
v 15.066000 4.880000 6.157000
v 15.566000 -0.159000 6.157000
v 15.566000 4.677000 6.157000
v 16.066000 0.597000 6.157000
v 16.066000 4.038000 6.157000
v 13.066000 1.162000 10.157000
v 13.066000 3.826000 10.157000
v 13.566000 0.775000 10.157000
v 13.566000 4.190000 10.157000
v 14.066000 0.718000 10.157000
v 14.066000 4.513000 10.157000
v 14.566000 0.723000 10.157000
v 14.566000 4.552000 10.157000
v 15.066000 0.643000 10.157000
v 15.066000 4.587000 10.157000
v 15.566000 0.668000 10.157000
v 15.566000 4.576000 10.157000
v 16.066000 0.871000 10.157000
v 16.066000 4.266000 10.157000
v 16.566000 1.440000 10.157000
v 16.566000 3.459000 10.157000
v 12.364000 0.836000 3.657000
v 14.680000 0.836000 3.657000
v 11.881000 0.836000 4.157000
v 15.056000 0.836000 4.157000
v 11.550000 0.836000 4.657000
v 15.472000 0.836000 4.657000
v 11.458000 0.836000 5.157000
v 15.884000 0.836000 5.157000
v 11.338000 0.836000 5.657000
v 16.002000 0.836000 5.657000
v 11.068000 0.836000 6.157000
v 16.138000 0.836000 6.157000
v 10.955000 0.836000 6.657000
v 16.242000 0.836000 6.657000
v 10.964000 0.836000 7.157000
v 16.248000 0.836000 7.157000
v 10.926000 0.836000 7.657000
v 16.202000 0.836000 7.657000
v 11.021000 0.836000 8.157000
v 16.192000 0.836000 8.157000
v 11.363000 0.836000 8.657000
v 16.095000 0.836000 8.657000
v 11.867000 0.836000 9.157000
v 15.986000 0.836000 9.157000
v 12.306000 0.836000 9.657000
v 15.963000 0.836000 9.657000
v 13.397000 0.836000 10.157000
v 16.008000 0.836000 10.157000
v 14.843000 0.836000 10.657000
v 15.764000 0.836000 10.657000
v 13.969000 4.836000 6.157000
v 15.241000 4.836000 6.157000
v 13.513000 4.836000 6.657000
v 15.562000 4.836000 6.657000
v 13.262000 4.836000 7.157000
v 16.071000 4.836000 7.157000
v 13.265000 4.836000 7.657000
v 16.463000 4.836000 7.657000
v 13.165000 4.836000 8.157000
v 16.558000 4.836000 8.157000
v 13.238000 4.836000 8.657000
v 16.436000 4.836000 8.657000
v 13.571000 4.836000 9.157000
v 16.118000 4.836000 9.157000
v 13.923000 4.836000 9.657000
v 15.794000 4.836000 9.657000
v 11.066000 0.836000 6.162000
v 11.066000 0.836000 8.258000
v 11.566000 0.836000 4.618000
v 11.566000 0.836000 8.846000
v 12.066000 0.836000 3.970000
v 12.066000 0.836000 9.379000
v 12.566000 0.836000 3.500000
v 12.566000 0.836000 9.866000
v 13.066000 0.836000 3.303000
v 13.066000 0.836000 10.063000
v 13.566000 0.836000 3.298000
v 13.566000 0.836000 10.204000
v 14.066000 0.836000 3.348000
v 14.066000 0.836000 10.342000
v 14.566000 0.836000 3.567000
v 14.566000 0.836000 10.457000
v 15.066000 0.836000 4.174000
v 15.066000 0.836000 10.787000
v 15.566000 0.836000 4.735000
v 15.566000 0.836000 10.778000
v 16.066000 0.836000 5.934000
v 16.066000 0.836000 8.771000
v 13.566000 4.836000 6.624000
v 13.566000 4.836000 9.152000
v 14.066000 4.836000 6.097000
v 14.066000 4.836000 9.737000
v 14.566000 4.836000 6.044000
v 14.566000 4.836000 9.782000
v 15.066000 4.836000 6.050000
v 15.066000 4.836000 9.823000
v 15.566000 4.836000 6.662000
v 15.566000 4.836000 9.806000
v 16.066000 4.836000 7.153000
v 16.066000 4.836000 9.240000
v 11.066000 0.020000 6.657000
v 11.066000 2.043000 6.657000
v 11.566000 -1.639000 6.657000
v 11.566000 2.751000 6.657000
v 12.066000 -2.057000 6.657000
v 12.066000 3.333000 6.657000
v 12.566000 -2.242000 6.657000
v 12.566000 4.026000 6.657000
v 13.066000 -2.244000 6.657000
v 13.066000 4.642000 6.657000
v 13.566000 -2.170000 6.657000
v 13.566000 4.847000 6.657000
v 14.066000 -1.969000 6.657000
v 14.066000 4.940000 6.657000
v 14.566000 -1.479000 6.657000
v 14.566000 4.967000 6.657000
v 15.066000 -1.037000 6.657000
v 15.066000 4.985000 6.657000
v 15.566000 -0.633000 6.657000
v 15.566000 4.834000 6.657000
v 16.066000 0.038000 6.657000
v 16.066000 4.339000 6.657000
v 13.566000 1.385000 10.657000
v 13.566000 3.270000 10.657000
v 14.066000 1.067000 10.657000
v 14.066000 3.699000 10.657000
v 14.566000 0.943000 10.657000
v 14.566000 4.047000 10.657000
v 15.066000 0.773000 10.657000
v 15.066000 4.069000 10.657000
v 15.566000 0.778000 10.657000
v 15.566000 3.975000 10.657000
v 16.066000 0.999000 10.657000
v 16.066000 3.697000 10.657000
v 16.566000 1.759000 10.657000
v 16.566000 3.007000 10.657000
f 171 707 759
f 759 707 881
f 881 707 829
f 881 829 45
f 45 829 1
f 1 172 45
f 173 581 635
f 171 759 581
f 759 635 581
f 759 761 635
f 759 883 761
f 759 881 883
f 881 47 883
f 881 45 47
f 107 155 172
f 155 45 172
f 155 47 45
f 107 174 155
f 637 175 635
f 635 175 173
f 635 763 637
f 635 761 763
f 761 885 763
f 761 883 885
f 883 49 885
f 883 47 49
f 47 157 49
f 47 155 157
f 155 174 157
f 157 174 176
f 637 582 175
f 582 637 177
f 637 765 177
f 637 763 765
f 763 887 765
f 763 885 887
f 885 51 887
f 885 49 51
f 49 159 51
f 49 157 159
f 157 176 159
f 159 176 178
f 765 708 177
f 708 765 179
f 765 889 179
f 765 887 889
f 887 53 889
f 887 51 53
f 180 53 108
f 53 159 108
f 53 51 159
f 159 178 108
f 889 830 179
f 830 889 2
f 2 889 53
f 53 180 2
f 754 721 65
f 181 845 754
f 845 721 754
f 845 843 721
f 845 15 843
f 17 15 845
f 17 121 15
f 123 121 17
f 123 182 121
f 121 182 66
f 374 335 67
f 502 461 374
f 374 461 335
f 183 597 502
f 597 461 502
f 597 595 461
f 723 754 65
f 595 723 65
f 597 723 595
f 181 754 723
f 233 66 182
f 233 182 235
f 235 184 233
f 233 184 68
f 254 215 69
f 337 374 67
f 337 67 215
f 185 337 215
f 254 185 215
f 374 337 463
f 374 463 502
f 183 502 463
f 353 68 184
f 353 184 355
f 70 353 519
f 353 483 519
f 353 355 483
f 483 186 519
f 254 69 217
f 69 187 217
f 69 71 187
f 185 254 217
f 519 481 70
f 481 519 186
f 615 481 186
f 613 481 615
f 615 188 613
f 613 188 72
f 189 105 73
f 73 105 103
f 71 103 105
f 71 105 187
f 739 72 188
f 739 188 741
f 741 190 739
f 739 190 74
f 191 73 75
f 191 189 73
f 863 74 190
f 863 190 865
f 865 192 863
f 863 192 76
f 75 104 191
f 191 104 106
f 193 106 104
f 193 104 77
f 76 194 78
f 192 194 76
f 195 77 79
f 195 193 77
f 78 196 80
f 194 196 78
f 79 216 195
f 195 216 218
f 197 218 216
f 197 216 81
f 196 33 61
f 82 196 61
f 80 196 82
f 33 198 61
f 81 336 197
f 197 336 338
f 199 338 336
f 199 336 83
f 63 84 82
f 63 82 61
f 61 198 63
f 63 198 200
f 83 462 199
f 199 462 464
f 201 464 462
f 201 462 85
f 84 63 34
f 202 84 34
f 86 84 202
f 63 200 34
f 85 596 201
f 201 596 598
f 722 598 596
f 722 724 598
f 844 724 722
f 844 846 724
f 16 846 844
f 16 18 846
f 122 18 16
f 122 124 18
f 234 124 122
f 234 236 124
f 354 236 234
f 354 356 236
f 482 356 354
f 482 484 356
f 614 665 203
f 484 614 203
f 482 614 484
f 740 789 665
f 740 665 614
f 866 204 789
f 740 866 789
f 864 866 740
f 864 86 866
f 866 86 202
f 665 616 203
f 616 665 742
f 742 665 789
f 789 204 742
f 162 137 87
f 278 249 162
f 162 249 137
f 400 369 278
f 278 369 249
f 400 88 369
f 56 31 89
f 31 56 87
f 56 162 87
f 56 164 162
f 280 162 164
f 278 162 280
f 402 278 280
f 400 278 402
f 88 400 497
f 400 532 497
f 400 402 532
f 532 90 497
f 91 58 89
f 89 58 56
f 166 56 58
f 164 56 166
f 282 164 166
f 280 164 282
f 404 280 282
f 402 280 404
f 534 402 404
f 532 402 534
f 90 532 92
f 92 532 534
f 32 58 91
f 93 168 32
f 168 58 32
f 168 166 58
f 284 166 168
f 282 166 284
f 406 282 284
f 404 282 406
f 498 534 94
f 534 406 94
f 534 404 406
f 92 534 498
f 138 168 93
f 250 284 138
f 138 284 168
f 370 406 250
f 250 406 284
f 94 406 370
f 287 583 631
f 631 583 757
f 757 583 709
f 757 709 879
f 879 709 831
f 879 831 43
f 43 831 3
f 3 288 43
f 289 449 505
f 287 631 449
f 631 505 449
f 631 633 505
f 757 707 171
f 633 757 171
f 631 757 633
f 879 829 707
f 879 707 757
f 43 1 829
f 43 829 879
f 288 109 153
f 288 153 172
f 43 288 172
f 1 43 172
f 109 290 153
f 507 291 505
f 505 291 289
f 633 581 173
f 507 633 173
f 505 633 507
f 633 171 581
f 153 107 172
f 290 221 271
f 290 271 174
f 153 290 174
f 107 153 174
f 221 292 271
f 509 293 507
f 507 293 291
f 507 173 175
f 507 175 509
f 273 176 174
f 273 174 271
f 271 292 273
f 273 292 294
f 509 450 293
f 639 295 582
f 582 295 175
f 295 450 175
f 450 509 175
f 177 639 582
f 275 178 176
f 275 176 273
f 273 294 275
f 275 294 296
f 639 584 295
f 767 297 708
f 708 297 177
f 297 584 177
f 584 639 177
f 179 767 708
f 108 161 180
f 275 222 178
f 178 222 108
f 222 298 108
f 298 161 108
f 275 296 222
f 767 710 297
f 179 830 767
f 830 710 767
f 830 832 710
f 2 55 299
f 832 2 299
f 830 2 832
f 161 110 180
f 180 110 2
f 110 300 2
f 300 55 2
f 161 298 110
f 55 4 299
f 55 300 4
f 301 847 181
f 181 847 845
f 847 17 845
f 19 17 847
f 148 123 302
f 123 19 302
f 123 17 19
f 148 182 123
f 303 599 183
f 183 599 597
f 599 723 597
f 725 723 599
f 181 723 725
f 181 725 301
f 125 148 302
f 235 182 148
f 125 235 148
f 237 235 125
f 237 304 235
f 235 304 184
f 305 339 185
f 185 339 337
f 339 463 337
f 465 463 339
f 183 463 465
f 183 465 303
f 355 184 304
f 355 304 357
f 357 483 355
f 485 483 357
f 485 306 483
f 483 306 186
f 256 217 187
f 185 217 256
f 307 185 256
f 305 185 307
f 615 186 306
f 615 306 617
f 617 308 615
f 615 308 188
f 144 105 189
f 219 256 187
f 219 187 105
f 309 219 105
f 144 309 105
f 307 256 219
f 741 188 308
f 741 308 743
f 743 310 741
f 741 310 190
f 191 146 189
f 189 146 144
f 309 144 146
f 309 146 311
f 865 190 310
f 865 310 867
f 867 312 865
f 865 312 192
f 106 146 191
f 311 146 106
f 193 311 106
f 313 311 193
f 192 314 194
f 312 314 192
f 315 193 195
f 315 313 193
f 194 316 196
f 314 316 194
f 195 218 315
f 315 218 220
f 317 220 218
f 317 218 197
f 33 196 316
f 33 316 35
f 35 318 33
f 33 318 198
f 197 338 317
f 317 338 340
f 319 340 338
f 319 338 199
f 198 320 200
f 318 320 198
f 199 464 319
f 319 464 466
f 321 466 464
f 321 464 201
f 36 322 202
f 36 202 34
f 34 200 36
f 36 200 320
f 201 598 321
f 321 598 600
f 724 600 598
f 724 726 600
f 846 726 724
f 846 848 726
f 18 848 846
f 18 20 848
f 124 20 18
f 124 126 20
f 236 126 124
f 236 238 126
f 356 238 236
f 356 358 238
f 484 358 356
f 484 486 358
f 323 486 484
f 323 484 203
f 868 324 204
f 868 204 866
f 866 202 868
f 868 202 322
f 203 616 323
f 323 616 618
f 742 618 616
f 742 744 618
f 742 204 744
f 744 204 324
f 409 325 373
f 373 325 501
f 501 325 451
f 501 451 629
f 629 451 585
f 629 585 755
f 755 585 711
f 755 711 877
f 877 711 833
f 833 410 877
f 411 205 253
f 409 373 205
f 373 253 205
f 373 375 253
f 373 503 375
f 373 501 503
f 629 583 287
f 503 629 287
f 501 629 503
f 755 709 583
f 755 583 629
f 877 831 709
f 877 709 755
f 831 877 410
f 5 831 410
f 3 831 5
f 288 3 151
f 3 111 151
f 3 5 111
f 111 412 151
f 255 413 253
f 253 413 411
f 253 377 255
f 253 375 377
f 503 449 289
f 377 503 289
f 375 503 377
f 503 287 449
f 151 109 288
f 412 223 269
f 412 269 290
f 151 412 290
f 109 151 290
f 269 223 391
f 391 223 343
f 343 414 391
f 255 206 413
f 206 255 415
f 255 379 415
f 255 377 379
f 377 289 291
f 377 291 379
f 269 221 290
f 393 292 221
f 269 393 221
f 391 393 269
f 471 523 414
f 523 391 414
f 523 393 391
f 471 416 523
f 379 326 415
f 417 326 379
f 291 417 379
f 293 417 291
f 395 294 292
f 395 292 393
f 393 525 395
f 393 523 525
f 523 416 525
f 525 416 418
f 293 450 417
f 417 450 452
f 419 452 450
f 419 450 295
f 397 296 294
f 397 294 395
f 420 397 472
f 397 525 472
f 397 395 525
f 525 418 472
f 641 421 584
f 421 295 584
f 421 419 295
f 297 641 584
f 222 277 298
f 397 344 296
f 296 344 222
f 344 422 222
f 422 277 222
f 397 420 344
f 641 586 421
f 297 710 641
f 710 586 641
f 710 712 586
f 832 891 423
f 712 832 423
f 710 832 712
f 299 891 832
f 110 163 300
f 163 110 298
f 277 163 298
f 279 163 277
f 277 422 279
f 279 422 424
f 891 834 423
f 57 425 4
f 4 425 299
f 425 834 299
f 834 891 299
f 57 4 300
f 163 57 300
f 165 57 163
f 426 165 224
f 165 279 224
f 165 163 279
f 279 424 224
f 57 6 425
f 6 57 112
f 112 57 165
f 165 426 112
f 876 847 301
f 40 19 876
f 876 19 847
f 40 302 19
f 427 601 303
f 303 601 599
f 601 725 599
f 727 725 601
f 849 876 301
f 725 849 301
f 727 849 725
f 876 849 21
f 876 21 40
f 428 150 125
f 428 125 302
f 21 428 302
f 40 21 302
f 266 237 150
f 150 237 125
f 266 304 237
f 376 339 305
f 429 467 376
f 467 339 376
f 467 465 339
f 303 465 467
f 303 467 427
f 127 150 428
f 150 127 239
f 150 239 266
f 357 304 266
f 239 357 266
f 359 357 239
f 520 485 430
f 485 359 430
f 485 357 359
f 520 306 485
f 376 305 341
f 305 431 341
f 305 307 431
f 429 376 341
f 487 520 430
f 617 306 520
f 487 617 520
f 619 617 487
f 619 432 617
f 617 432 308
f 258 219 309
f 307 219 258
f 433 307 258
f 431 307 433
f 743 308 432
f 743 432 745
f 745 434 743
f 743 434 310
f 311 260 309
f 309 260 258
f 433 258 260
f 433 260 435
f 867 310 434
f 867 434 869
f 869 436 867
f 867 436 312
f 313 262 311
f 311 262 260
f 435 260 262
f 435 262 437
f 312 438 314
f 436 438 312
f 315 264 313
f 313 264 262
f 437 262 264
f 437 264 439
f 314 440 316
f 438 440 314
f 220 264 315
f 342 439 388
f 388 439 317
f 439 264 317
f 264 220 317
f 441 342 388
f 35 316 440
f 35 440 37
f 37 442 35
f 35 442 318
f 340 388 317
f 468 441 518
f 518 441 319
f 441 388 319
f 388 340 319
f 443 468 518
f 318 444 320
f 442 444 318
f 466 518 319
f 602 443 648
f 648 443 321
f 443 518 321
f 518 466 321
f 602 648 774
f 602 774 728
f 445 728 774
f 38 446 322
f 38 322 36
f 36 320 38
f 38 320 444
f 600 648 321
f 726 774 600
f 600 774 648
f 774 726 445
f 726 850 445
f 726 848 850
f 20 850 848
f 20 22 850
f 126 22 20
f 126 128 22
f 238 128 126
f 238 240 128
f 358 240 238
f 358 360 240
f 486 537 447
f 360 486 447
f 358 486 360
f 323 537 486
f 870 448 324
f 870 324 868
f 868 322 870
f 870 322 446
f 537 488 447
f 323 618 537
f 618 488 537
f 618 620 488
f 744 620 618
f 744 746 620
f 744 324 746
f 746 324 448
f 539 453 499
f 453 540 499
f 541 207 251
f 251 207 409
f 207 325 409
f 207 327 325
f 327 539 499
f 451 327 499
f 325 327 451
f 451 499 540
f 587 451 540
f 585 451 587
f 587 711 585
f 713 711 587
f 713 833 711
f 835 833 713
f 835 542 833
f 833 542 410
f 205 411 251
f 411 541 251
f 411 543 541
f 251 409 205
f 5 410 542
f 5 542 7
f 7 111 5
f 113 111 7
f 412 111 267
f 111 225 267
f 111 113 225
f 267 225 389
f 389 225 345
f 345 544 389
f 545 95 141
f 413 141 95
f 543 413 95
f 411 413 543
f 267 223 412
f 389 343 223
f 389 223 267
f 544 473 521
f 544 521 414
f 389 544 414
f 343 389 414
f 473 546 521
f 141 96 545
f 257 547 206
f 206 547 413
f 547 96 413
f 96 141 413
f 415 257 206
f 521 471 414
f 546 605 651
f 546 651 416
f 521 546 416
f 471 521 416
f 605 548 651
f 257 208 547
f 381 549 326
f 326 549 415
f 549 208 415
f 208 257 415
f 417 381 326
f 653 418 416
f 653 416 651
f 651 548 653
f 653 548 550
f 381 328 549
f 511 551 452
f 452 551 417
f 551 328 417
f 328 381 417
f 419 511 452
f 472 527 420
f 527 472 418
f 653 527 418
f 655 527 653
f 653 550 655
f 655 550 552
f 511 454 551
f 553 454 511
f 419 553 511
f 421 553 419
f 344 399 422
f 399 344 420
f 527 399 420
f 529 399 527
f 554 529 606
f 529 655 606
f 529 527 655
f 655 552 606
f 421 586 553
f 553 586 588
f 712 769 555
f 588 712 555
f 586 712 588
f 423 769 712
f 401 424 422
f 401 422 399
f 556 401 474
f 401 529 474
f 401 399 529
f 529 554 474
f 769 714 555
f 893 557 834
f 834 557 423
f 557 714 423
f 714 769 423
f 425 893 834
f 224 281 426
f 281 224 424
f 401 281 424
f 403 281 401
f 401 556 403
f 403 556 558
f 893 836 557
f 59 559 6
f 6 559 425
f 559 836 425
f 836 893 425
f 112 167 59
f 112 59 6
f 281 226 426
f 426 226 112
f 226 560 112
f 560 167 112
f 226 281 346
f 346 281 403
f 403 558 346
f 59 8 559
f 8 59 114
f 114 59 167
f 167 560 114
f 630 601 427
f 756 727 630
f 630 727 601
f 878 849 756
f 756 849 727
f 42 21 878
f 878 21 849
f 42 428 21
f 504 467 429
f 603 630 427
f 603 427 467
f 561 603 467
f 504 561 467
f 630 603 729
f 630 729 756
f 756 729 851
f 756 851 878
f 878 851 23
f 878 23 42
f 562 152 127
f 562 127 428
f 23 562 428
f 42 23 428
f 268 239 152
f 152 239 127
f 390 359 268
f 268 359 239
f 390 430 359
f 378 341 431
f 469 504 429
f 469 429 341
f 563 469 341
f 378 563 341
f 561 504 469
f 129 152 562
f 152 129 241
f 152 241 268
f 268 241 361
f 268 361 390
f 487 430 390
f 361 487 390
f 489 487 361
f 489 619 487
f 621 619 489
f 621 564 619
f 619 564 432
f 433 380 431
f 431 380 378
f 563 378 380
f 563 380 565
f 745 432 564
f 745 564 747
f 747 566 745
f 745 566 434
f 435 382 433
f 433 382 380
f 565 380 382
f 565 382 567
f 568 898 869
f 434 568 869
f 566 568 434
f 898 436 869
f 437 384 435
f 435 384 382
f 512 470 567
f 382 512 567
f 384 512 382
f 569 470 512
f 871 898 568
f 871 570 898
f 570 436 898
f 570 438 436
f 439 386 437
f 437 386 384
f 514 384 386
f 512 384 514
f 642 604 569
f 512 642 569
f 514 642 512
f 571 604 642
f 438 572 440
f 570 572 438
f 342 386 439
f 441 516 342
f 516 386 342
f 516 514 386
f 644 514 516
f 642 514 644
f 571 642 644
f 571 644 573
f 574 62 37
f 440 574 37
f 572 574 440
f 62 442 37
f 468 516 441
f 443 646 468
f 646 516 468
f 646 644 516
f 573 644 646
f 573 646 575
f 576 64 62
f 576 62 574
f 442 62 444
f 444 62 64
f 602 646 443
f 646 602 575
f 602 730 575
f 602 728 730
f 728 445 896
f 852 728 896
f 730 728 852
f 577 852 896
f 446 38 64
f 576 446 64
f 578 446 576
f 444 64 38
f 850 896 445
f 896 850 577
f 850 24 577
f 850 22 24
f 128 24 22
f 128 130 24
f 240 130 128
f 240 242 130
f 360 407 579
f 242 360 579
f 240 360 242
f 447 407 360
f 748 580 790
f 748 790 448
f 870 748 448
f 872 748 870
f 870 446 872
f 872 446 578
f 407 362 579
f 447 488 407
f 488 362 407
f 488 490 362
f 620 490 488
f 620 622 490
f 580 622 790
f 622 746 790
f 622 620 746
f 448 790 746
f 667 329 371
f 371 329 539
f 329 453 539
f 329 455 453
f 455 668 453
f 453 668 540
f 669 209 541
f 541 209 207
f 209 667 371
f 327 209 371
f 207 209 327
f 371 539 327
f 587 540 668
f 587 668 589
f 589 713 587
f 715 713 589
f 715 835 713
f 837 835 715
f 542 835 41
f 835 9 41
f 835 837 9
f 9 670 41
f 671 97 139
f 543 139 97
f 669 543 97
f 541 543 669
f 41 7 542
f 7 41 670
f 115 7 670
f 113 7 115
f 115 225 113
f 227 225 115
f 227 345 225
f 347 345 227
f 347 672 345
f 345 672 544
f 95 545 139
f 545 671 139
f 545 673 671
f 139 543 95
f 473 544 672
f 473 672 475
f 475 674 473
f 473 674 546
f 545 96 673
f 673 96 98
f 675 98 96
f 675 96 547
f 605 546 674
f 605 674 607
f 607 676 605
f 605 676 548
f 259 677 208
f 677 547 208
f 677 675 547
f 549 259 208
f 676 733 777
f 550 676 777
f 548 676 550
f 733 678 777
f 259 210 677
f 383 679 328
f 328 679 549
f 679 210 549
f 210 259 549
f 551 383 328
f 779 552 550
f 779 550 777
f 777 678 779
f 779 678 680
f 383 330 679
f 551 454 383
f 454 330 383
f 454 456 330
f 681 456 454
f 681 454 553
f 606 657 554
f 657 606 552
f 779 657 552
f 781 657 779
f 779 680 781
f 781 680 682
f 643 683 588
f 683 553 588
f 683 681 553
f 555 643 588
f 474 531 556
f 531 474 554
f 657 531 554
f 659 531 657
f 657 783 659
f 657 781 783
f 781 682 783
f 783 682 684
f 643 590 683
f 771 685 714
f 714 685 555
f 685 590 555
f 590 643 555
f 557 771 714
f 533 558 556
f 533 556 531
f 531 661 533
f 531 659 661
f 686 661 734
f 661 783 734
f 661 659 783
f 783 684 734
f 771 716 685
f 557 836 771
f 836 716 771
f 836 838 716
f 687 838 836
f 687 836 559
f 226 283 560
f 348 688 283
f 226 348 283
f 346 348 226
f 533 476 558
f 476 346 558
f 476 348 346
f 476 533 608
f 608 533 661
f 661 686 608
f 559 8 687
f 687 8 10
f 114 10 8
f 114 116 10
f 283 228 560
f 228 114 560
f 228 116 114
f 283 688 228
f 632 603 561
f 758 729 632
f 632 729 603
f 880 851 758
f 758 851 729
f 44 23 880
f 880 23 851
f 44 562 23
f 506 469 563
f 469 506 561
f 506 632 561
f 506 634 632
f 634 689 731
f 758 634 731
f 632 634 758
f 758 731 853
f 758 853 880
f 880 853 25
f 880 25 44
f 129 562 44
f 25 129 44
f 131 129 25
f 131 241 129
f 243 241 131
f 243 361 241
f 363 361 243
f 363 489 361
f 491 489 363
f 650 621 690
f 621 491 690
f 621 489 491
f 650 564 621
f 565 508 563
f 563 508 506
f 636 506 508
f 634 506 636
f 689 634 636
f 689 636 691
f 623 650 690
f 692 776 747
f 692 747 564
f 623 692 564
f 650 623 564
f 776 566 747
f 567 510 565
f 565 510 508
f 638 508 510
f 636 508 638
f 691 636 638
f 691 638 693
f 749 776 692
f 749 694 776
f 694 566 776
f 694 568 566
f 470 510 567
f 569 640 470
f 640 510 470
f 640 638 510
f 766 732 693
f 638 766 693
f 640 766 638
f 695 732 766
f 871 568 694
f 871 694 873
f 873 696 871
f 871 696 570
f 604 640 569
f 571 768 604
f 768 640 604
f 768 766 640
f 695 766 768
f 695 768 697
f 570 698 572
f 696 698 570
f 573 770 571
f 571 770 768
f 697 768 770
f 697 770 699
f 572 700 574
f 698 700 572
f 575 772 573
f 573 772 770
f 699 770 772
f 699 772 701
f 574 702 576
f 700 702 574
f 730 772 575
f 772 730 701
f 730 854 701
f 730 852 854
f 703 854 852
f 703 852 577
f 874 704 908
f 908 578 874
f 578 702 874
f 578 576 702
f 577 24 703
f 703 24 26
f 130 169 705
f 26 130 705
f 24 130 26
f 242 285 169
f 242 169 130
f 579 285 242
f 750 706 580
f 750 580 748
f 704 750 908
f 750 872 908
f 750 748 872
f 578 908 872
f 169 132 705
f 132 169 244
f 244 169 285
f 579 362 285
f 362 244 285
f 362 364 244
f 490 364 362
f 490 492 364
f 622 492 490
f 622 624 492
f 622 580 624
f 624 580 706
f 791 331 667
f 667 331 329
f 331 455 329
f 457 455 331
f 457 792 455
f 455 792 668
f 793 211 669
f 669 211 209
f 667 209 211
f 667 211 791
f 589 668 792
f 589 792 591
f 591 715 589
f 717 715 591
f 717 837 715
f 839 837 717
f 839 9 837
f 11 9 839
f 670 9 149
f 9 117 149
f 9 11 117
f 149 117 265
f 265 117 229
f 229 794 265
f 795 99 671
f 671 99 97
f 669 97 99
f 669 99 793
f 149 115 670
f 265 227 115
f 265 115 149
f 227 265 794
f 349 227 794
f 347 227 349
f 349 796 347
f 347 796 672
f 797 671 673
f 797 795 671
f 475 672 796
f 475 796 477
f 674 475 649
f 475 609 649
f 475 477 609
f 609 798 649
f 143 799 98
f 799 673 98
f 799 797 673
f 675 143 98
f 649 607 674
f 649 798 607
f 798 676 607
f 798 800 676
f 143 100 799
f 801 100 143
f 675 801 143
f 677 801 675
f 733 676 800
f 733 800 735
f 735 802 733
f 733 802 678
f 677 210 801
f 801 210 212
f 803 212 210
f 803 210 679
f 802 859 899
f 680 802 899
f 678 802 680
f 859 804 899
f 679 330 803
f 803 330 332
f 456 513 805
f 332 456 805
f 330 456 332
f 681 513 456
f 901 682 680
f 901 680 899
f 899 804 901
f 901 804 806
f 513 458 805
f 807 458 513
f 681 807 513
f 683 807 681
f 903 684 682
f 903 682 901
f 901 806 903
f 903 806 808
f 683 590 807
f 807 590 592
f 809 592 590
f 809 590 685
f 734 785 686
f 903 860 684
f 684 860 734
f 860 810 734
f 810 785 734
f 903 808 860
f 685 716 809
f 809 716 718
f 838 895 811
f 718 838 811
f 716 838 718
f 687 895 838
f 348 405 688
f 476 535 405
f 476 405 348
f 608 663 535
f 608 535 476
f 785 736 686
f 686 736 608
f 736 812 608
f 812 663 608
f 785 810 736
f 895 840 811
f 687 10 895
f 10 840 895
f 10 12 840
f 116 12 10
f 116 118 12
f 228 118 116
f 228 230 118
f 405 350 688
f 350 228 688
f 350 230 228
f 350 405 478
f 478 405 535
f 478 535 610
f 610 535 663
f 663 812 610
f 760 731 689
f 882 853 760
f 760 853 731
f 46 25 882
f 882 25 853
f 154 131 46
f 46 131 25
f 270 243 154
f 154 243 131
f 392 363 270
f 270 363 243
f 522 491 392
f 392 491 363
f 522 690 491
f 691 762 689
f 689 762 760
f 884 760 762
f 882 760 884
f 884 813 27
f 46 884 27
f 882 884 46
f 46 27 133
f 46 133 154
f 154 133 245
f 154 245 270
f 270 245 365
f 270 365 392
f 392 365 493
f 392 493 522
f 814 652 623
f 814 623 690
f 493 814 690
f 522 493 690
f 652 692 623
f 693 764 691
f 691 764 762
f 764 815 855
f 884 764 855
f 762 764 884
f 813 884 855
f 625 652 814
f 816 778 749
f 816 749 692
f 625 816 692
f 652 625 692
f 778 694 749
f 732 764 693
f 815 764 732
f 695 815 732
f 817 815 695
f 751 778 816
f 818 900 873
f 818 873 694
f 751 818 694
f 778 751 694
f 900 696 873
f 819 695 697
f 819 817 695
f 820 902 900
f 820 900 818
f 696 900 698
f 698 900 902
f 821 697 699
f 821 819 697
f 822 904 902
f 822 902 820
f 698 902 700
f 700 902 904
f 823 699 701
f 823 821 699
f 824 906 904
f 824 904 822
f 700 904 702
f 702 904 906
f 701 854 823
f 823 854 856
f 825 856 854
f 825 854 703
f 752 826 788
f 906 824 752
f 906 752 788
f 874 906 788
f 704 874 788
f 702 906 874
f 703 26 825
f 825 26 28
f 827 28 26
f 827 26 705
f 626 828 666
f 788 826 626
f 788 626 666
f 750 788 666
f 706 750 666
f 704 788 750
f 705 132 827
f 827 132 134
f 244 134 132
f 244 246 134
f 364 246 244
f 364 366 246
f 492 366 364
f 492 494 366
f 828 494 666
f 494 624 666
f 494 492 624
f 706 666 624
f 372 331 791
f 500 457 372
f 372 457 331
f 500 792 457
f 909 719 753
f 753 719 875
f 875 719 841
f 875 841 39
f 39 841 13
f 39 13 147
f 147 13 119
f 119 910 147
f 252 211 793
f 333 372 791
f 333 791 211
f 911 333 211
f 252 911 211
f 372 333 459
f 372 459 500
f 591 792 500
f 459 591 500
f 593 591 459
f 593 909 753
f 717 593 753
f 591 593 717
f 875 839 717
f 875 717 753
f 39 11 839
f 39 839 875
f 147 117 11
f 147 11 39
f 117 147 910
f 231 117 910
f 229 117 231
f 231 912 229
f 229 912 794
f 140 99 795
f 213 252 793
f 213 793 99
f 913 213 99
f 140 913 99
f 911 252 213
f 349 794 912
f 349 912 351
f 351 914 349
f 349 914 796
f 140 795 101
f 795 915 101
f 795 797 915
f 913 140 101
f 477 796 914
f 477 914 479
f 479 609 477
f 611 609 479
f 611 916 609
f 609 916 798
f 917 797 799
f 917 915 797
f 916 737 775
f 800 916 775
f 798 916 800
f 737 918 775
f 145 919 100
f 919 799 100
f 919 917 799
f 801 145 100
f 775 735 800
f 918 861 897
f 918 897 802
f 775 918 802
f 735 775 802
f 861 920 897
f 145 102 919
f 261 921 212
f 212 921 801
f 921 102 801
f 102 145 801
f 803 261 212
f 897 859 802
f 897 920 859
f 920 804 859
f 920 922 804
f 261 214 921
f 385 923 332
f 332 923 803
f 923 214 803
f 214 261 803
f 805 385 332
f 804 924 806
f 922 924 804
f 385 334 923
f 515 925 458
f 458 925 805
f 925 334 805
f 334 385 805
f 807 515 458
f 806 926 808
f 924 926 806
f 515 460 925
f 645 927 592
f 592 927 807
f 927 460 807
f 460 515 807
f 809 645 592
f 862 928 810
f 862 810 860
f 860 808 862
f 862 808 926
f 645 594 927
f 773 929 718
f 718 929 809
f 929 594 809
f 594 645 809
f 811 773 718
f 736 787 812
f 736 810 787
f 810 930 787
f 810 928 930
f 773 720 929
f 811 840 773
f 840 720 773
f 840 842 720
f 12 842 840
f 12 14 842
f 118 14 12
f 118 120 14
f 230 120 118
f 230 232 120
f 350 232 230
f 350 352 232
f 478 352 350
f 478 480 352
f 610 480 478
f 610 612 480
f 787 738 812
f 738 610 812
f 738 612 610
f 787 930 738
f 48 27 813
f 156 133 48
f 48 133 27
f 272 245 156
f 156 245 133
f 394 365 272
f 272 365 245
f 524 493 394
f 394 493 365
f 524 814 493
f 886 855 815
f 855 886 813
f 886 48 813
f 886 50 48
f 50 931 135
f 156 50 135
f 48 50 156
f 156 135 247
f 156 247 272
f 272 247 367
f 272 367 394
f 394 367 932
f 526 394 932
f 524 394 526
f 814 524 625
f 524 654 625
f 524 526 654
f 654 816 625
f 817 888 815
f 815 888 886
f 888 933 29
f 50 888 29
f 886 888 50
f 931 50 29
f 495 526 932
f 526 495 934
f 656 526 934
f 654 526 656
f 816 654 751
f 654 780 751
f 654 656 780
f 780 818 751
f 819 890 817
f 817 890 888
f 933 888 890
f 933 890 935
f 627 656 934
f 656 627 936
f 782 656 936
f 780 656 782
f 818 780 820
f 820 780 782
f 890 819 857
f 819 937 857
f 819 821 937
f 935 890 857
f 938 784 782
f 938 782 936
f 820 782 822
f 822 782 784
f 939 821 823
f 939 937 821
f 940 786 784
f 940 784 938
f 822 784 824
f 824 784 786
f 823 856 939
f 939 856 858
f 941 858 856
f 941 856 825
f 628 942 664
f 786 940 628
f 786 628 664
f 752 786 664
f 826 752 664
f 824 786 752
f 825 28 941
f 941 28 30
f 943 30 28
f 943 28 827
f 496 944 538
f 664 942 496
f 664 496 538
f 626 664 538
f 828 626 538
f 826 664 626
f 827 134 943
f 943 134 136
f 246 136 134
f 246 248 136
f 366 248 246
f 366 368 248
f 944 368 538
f 368 494 538
f 368 366 494
f 828 538 494
f 65 721 909
f 909 721 719
f 721 841 719
f 843 841 721
f 843 13 841
f 15 13 843
f 15 119 13
f 121 119 15
f 121 66 119
f 119 66 910
f 67 335 911
f 911 335 333
f 335 459 333
f 461 459 335
f 461 593 459
f 595 593 461
f 909 593 595
f 909 595 65
f 231 910 66
f 231 66 233
f 233 68 231
f 231 68 912
f 69 215 913
f 913 215 213
f 911 213 215
f 911 215 67
f 351 912 68
f 351 68 353
f 353 70 351
f 351 70 914
f 142 101 915
f 913 101 142
f 71 913 142
f 69 913 71
f 479 914 70
f 479 70 481
f 481 611 479
f 613 611 481
f 613 72 611
f 611 72 916
f 142 915 103
f 915 73 103
f 915 917 73
f 71 142 103
f 737 916 72
f 737 72 739
f 739 74 737
f 737 74 918
f 75 917 919
f 75 73 917
f 861 918 74
f 861 74 863
f 863 76 861
f 861 76 920
f 919 102 75
f 75 102 104
f 77 104 102
f 77 102 921
f 920 78 922
f 76 78 920
f 263 79 214
f 79 921 214
f 79 77 921
f 923 263 214
f 922 80 924
f 78 80 922
f 263 216 79
f 387 81 334
f 334 81 923
f 81 216 923
f 216 263 923
f 925 387 334
f 924 82 926
f 80 82 924
f 387 336 81
f 517 83 460
f 460 83 925
f 83 336 925
f 336 387 925
f 927 517 460
f 862 905 928
f 862 926 905
f 926 84 905
f 926 82 84
f 517 462 83
f 647 85 594
f 594 85 927
f 85 462 927
f 462 517 927
f 929 647 594
f 907 930 928
f 907 928 905
f 905 84 907
f 907 84 86
f 647 596 85
f 929 720 647
f 720 596 647
f 720 722 596
f 842 722 720
f 842 844 722
f 14 844 842
f 14 16 844
f 120 16 14
f 120 122 16
f 232 122 120
f 232 234 122
f 352 234 232
f 352 354 234
f 480 354 352
f 480 482 354
f 612 482 480
f 612 614 482
f 738 614 612
f 738 740 614
f 907 864 930
f 864 738 930
f 864 740 738
f 907 86 864
f 158 135 931
f 274 247 158
f 158 247 135
f 396 367 274
f 274 367 247
f 396 932 367
f 52 29 933
f 29 52 931
f 52 158 931
f 52 160 158
f 276 158 160
f 274 158 276
f 398 274 276
f 396 274 398
f 932 396 495
f 396 528 495
f 396 398 528
f 528 934 495
f 935 54 933
f 933 54 52
f 54 87 137
f 160 54 137
f 52 54 160
f 160 137 249
f 160 249 276
f 276 249 369
f 276 369 398
f 398 369 88
f 530 398 88
f 528 398 530
f 934 528 627
f 528 658 627
f 528 530 658
f 658 936 627
f 892 857 937
f 31 54 935
f 31 935 857
f 89 31 857
f 892 89 857
f 87 54 31
f 497 530 88
f 530 497 90
f 660 530 90
f 658 530 660
f 936 658 938
f 938 658 660
f 939 894 937
f 937 894 892
f 89 892 894
f 89 894 91
f 92 662 660
f 92 660 90
f 938 660 940
f 940 660 662
f 858 894 939
f 32 91 60
f 60 91 941
f 91 894 941
f 894 858 941
f 93 32 60
f 498 94 536
f 662 92 498
f 662 498 536
f 628 662 536
f 942 628 536
f 940 662 628
f 30 60 941
f 138 93 170
f 170 93 943
f 93 60 943
f 60 30 943
f 138 170 286
f 138 286 250
f 250 286 408
f 250 408 370
f 536 94 370
f 536 370 408
f 496 536 408
f 944 496 408
f 942 536 496
f 136 170 943
f 248 286 136
f 136 286 170
f 368 408 248
f 248 408 286
f 944 408 368
