# Converted from NanoShaper .vert/.face
v -1.801000 -15.914000 -13.093000
v -0.527000 -15.914000 -13.093000
v -2.860000 -15.914000 -12.593000
v -0.047000 -15.914000 -12.593000
v -3.336000 -15.914000 -12.093000
v 0.267000 -15.914000 -12.093000
v -3.756000 -15.914000 -11.593000
v 0.286000 -15.914000 -11.593000
v -3.981000 -15.914000 -11.093000
v 0.274000 -15.914000 -11.093000
v -4.032000 -15.914000 -10.593000
v -0.007000 -15.914000 -10.593000
v -4.066000 -15.914000 -10.093000
v -0.270000 -15.914000 -10.093000
v -4.084000 -15.914000 -9.593000
v -0.339000 -15.914000 -9.593000
v -4.068000 -15.914000 -9.093000
v -0.311000 -15.914000 -9.093000
v -3.883000 -15.914000 -8.593000
v -0.284000 -15.914000 -8.593000
v -3.556000 -15.914000 -8.093000
v -0.282000 -15.914000 -8.093000
v -3.331000 -15.914000 -7.593000
v -0.471000 -15.914000 -7.593000
v -2.768000 -15.914000 -7.093000
v -1.005000 -15.914000 -7.093000
v -3.934000 -15.914000 -11.257000
v -3.934000 -15.914000 -8.685000
v -3.434000 -15.914000 -11.998000
v -3.434000 -15.914000 -7.785000
v -2.934000 -15.914000 -12.525000
v -2.934000 -15.914000 -7.189000
v -2.434000 -15.914000 -12.800000
v -2.434000 -15.914000 -6.979000
v -1.934000 -15.914000 -12.991000
v -1.934000 -15.914000 -6.950000
v -1.434000 -15.914000 -13.283000
v -1.434000 -15.914000 -6.948000
v -0.934000 -15.914000 -13.293000
v -0.934000 -15.914000 -7.134000
v -0.434000 -15.914000 -13.007000
v -0.434000 -15.914000 -7.657000
v 0.066000 -15.914000 -12.479000
v 0.066000 -15.914000 -10.681000
v -3.434000 -18.828000 -13.093000
v -3.434000 -17.007000 -13.093000
v -2.934000 -19.052000 -13.093000
v -2.934000 -16.687000 -13.093000
v -2.434000 -19.060000 -13.093000
v -2.434000 -16.328000 -13.093000
v -1.934000 -19.091000 -13.093000
v -1.934000 -16.005000 -13.093000
v -1.434000 -19.125000 -13.093000
v -1.434000 -15.755000 -13.093000
v -0.934000 -19.021000 -13.093000
v -0.934000 -15.746000 -13.093000
v -0.434000 -18.536000 -13.093000
v -0.434000 -15.982000 -13.093000
v -3.934000 -16.558000 -9.093000
v -3.934000 -15.367000 -9.093000
v -3.434000 -17.125000 -9.093000
v -3.434000 -14.801000 -9.093000
v -2.934000 -17.386000 -9.093000
v -2.934000 -14.604000 -9.093000
v -2.434000 -17.678000 -9.093000
v -2.434000 -14.527000 -9.093000
v -1.934000 -17.885000 -9.093000
v -1.934000 -14.518000 -9.093000
v -1.434000 -17.887000 -9.093000
v -1.434000 -14.573000 -9.093000
v -0.934000 -17.661000 -9.093000
v -0.934000 -14.775000 -9.093000
v -0.434000 -17.102000 -9.093000
v -0.434000 -15.362000 -9.093000
v -2.302000 -19.414000 -12.593000
v -0.531000 -19.414000 -12.593000
v -2.680000 -19.414000 -12.093000
v -0.232000 -19.414000 -12.093000
v -2.626000 -19.414000 -11.593000
v -0.234000 -19.414000 -11.593000
v -2.334000 -19.414000 -11.093000
v -0.539000 -19.414000 -11.093000
v -2.671000 -15.414000 -12.093000
v -1.483000 -15.414000 -12.093000
v -3.289000 -15.414000 -11.593000
v -1.173000 -15.414000 -11.593000
v -3.726000 -15.414000 -11.093000
v -1.068000 -15.414000 -11.093000
v -3.924000 -15.414000 -10.593000
v -0.835000 -15.414000 -10.593000
v -3.971000 -15.414000 -10.093000
v -0.788000 -15.414000 -10.093000
v -3.987000 -15.414000 -9.593000
v -0.582000 -15.414000 -9.593000
v -3.955000 -15.414000 -9.093000
v -0.412000 -15.414000 -9.093000
v -3.751000 -15.414000 -8.593000
v -0.383000 -15.414000 -8.593000
v -3.440000 -15.414000 -8.093000
v -0.382000 -15.414000 -8.093000
v -3.210000 -15.414000 -7.593000
v -0.588000 -15.414000 -7.593000
v -2.482000 -15.414000 -7.093000
v -1.255000 -15.414000 -7.093000
v -2.434000 -19.414000 -12.501000
v -2.434000 -19.414000 -11.200000
v -1.934000 -19.414000 -12.762000
v -1.934000 -19.414000 -10.870000
v -1.434000 -19.414000 -12.833000
v -1.434000 -19.414000 -10.846000
v -0.934000 -19.414000 -12.819000
v -0.934000 -19.414000 -10.875000
v -0.434000 -19.414000 -12.492000
v -0.434000 -19.414000 -11.202000
v -3.934000 -15.414000 -10.529000
v -3.934000 -15.414000 -8.996000
v -3.434000 -15.414000 -11.470000
v -3.434000 -15.414000 -8.077000
v -2.934000 -15.414000 -11.861000
v -2.934000 -15.414000 -7.311000
v -2.434000 -15.414000 -12.194000
v -2.434000 -15.414000 -7.082000
v -1.934000 -15.414000 -12.216000
v -1.934000 -15.414000 -7.049000
v -1.434000 -15.414000 -12.052000
v -1.434000 -15.414000 -7.048000
v -0.934000 -15.414000 -10.932000
v -0.934000 -15.414000 -7.250000
v -0.434000 -15.414000 -9.188000
v -0.434000 -15.414000 -7.896000
v -3.934000 -18.561000 -12.593000
v -3.934000 -17.274000 -12.593000
v -3.434000 -19.089000 -12.593000
v -3.434000 -16.515000 -12.593000
v -2.934000 -19.270000 -12.593000
v -2.934000 -15.966000 -12.593000
v -2.434000 -19.370000 -12.593000
v -2.434000 -15.745000 -12.593000
v -1.934000 -19.551000 -12.593000
v -1.934000 -15.660000 -12.593000
v -1.434000 -19.609000 -12.593000
v -1.434000 -15.539000 -12.593000
v -0.934000 -19.597000 -12.593000
v -0.934000 -15.532000 -12.593000
v -0.434000 -19.338000 -12.593000
v -0.434000 -15.707000 -12.593000
v 0.066000 -18.867000 -12.593000
v 0.066000 -16.000000 -12.593000
v -3.434000 -16.898000 -8.593000
v -3.434000 -15.025000 -8.593000
v -2.934000 -17.221000 -8.593000
v -2.934000 -14.724000 -8.593000
v -2.434000 -17.602000 -8.593000
v -2.434000 -14.551000 -8.593000
v -1.934000 -17.805000 -8.593000
v -1.934000 -14.538000 -8.593000
v -1.434000 -17.808000 -8.593000
v -1.434000 -14.560000 -8.593000
v -0.934000 -17.616000 -8.593000
v -0.934000 -14.753000 -8.593000
v -0.434000 -17.081000 -8.593000
v -0.434000 -15.300000 -8.593000
v -3.307000 -18.914000 -13.093000
v -0.780000 -18.914000 -13.093000
v -3.664000 -18.914000 -12.593000
v 0.000000 -18.914000 -12.593000
v -3.687000 -18.914000 -12.093000
v 0.309000 -18.914000 -12.093000
v -3.409000 -18.914000 -11.593000
v 0.307000 -18.914000 -11.593000
v -2.843000 -18.914000 -11.093000
v -0.008000 -18.914000 -11.093000
v -2.374000 -18.914000 -10.593000
v -0.799000 -18.914000 -10.593000
v -3.285000 -14.914000 -11.093000
v -1.979000 -14.914000 -11.093000
v -3.585000 -14.914000 -10.593000
v -1.557000 -14.914000 -10.593000
v -3.635000 -14.914000 -10.093000
v -1.231000 -14.914000 -10.093000
v -3.653000 -14.914000 -9.593000
v -1.045000 -14.914000 -9.593000
v -3.587000 -14.914000 -9.093000
v -0.756000 -14.914000 -9.093000
v -3.288000 -14.914000 -8.593000
v -0.725000 -14.914000 -8.593000
v -3.078000 -14.914000 -8.093000
v -0.727000 -14.914000 -8.093000
v -2.742000 -14.914000 -7.593000
v -1.040000 -14.914000 -7.593000
v -3.434000 -18.914000 -12.982000
v -3.434000 -18.914000 -11.618000
v -2.934000 -18.914000 -13.261000
v -2.934000 -18.914000 -11.190000
v -2.434000 -18.914000 -13.285000
v -2.434000 -18.914000 -10.649000
v -1.934000 -18.914000 -13.312000
v -1.934000 -18.914000 -10.372000
v -1.434000 -18.914000 -13.304000
v -1.434000 -18.914000 -10.395000
v -0.934000 -18.914000 -13.147000
v -0.934000 -18.914000 -10.549000
v -0.434000 -18.914000 -12.917000
v -0.434000 -18.914000 -10.776000
v 0.066000 -18.914000 -12.529000
v 0.066000 -18.914000 -11.164000
v -3.434000 -14.914000 -10.926000
v -3.434000 -14.914000 -8.770000
v -2.934000 -14.914000 -11.292000
v -2.934000 -14.914000 -7.793000
v -2.434000 -14.914000 -11.329000
v -2.434000 -14.914000 -7.433000
v -1.934000 -14.914000 -11.044000
v -1.934000 -14.914000 -7.393000
v -1.434000 -14.914000 -10.474000
v -1.434000 -14.914000 -7.393000
v -0.934000 -14.914000 -9.448000
v -0.934000 -14.914000 -7.697000
v -3.934000 -18.594000 -12.093000
v -3.934000 -16.882000 -12.093000
v -3.434000 -19.107000 -12.093000
v -3.434000 -15.988000 -12.093000
v -2.934000 -19.305000 -12.093000
v -2.934000 -15.581000 -12.093000
v -2.434000 -19.555000 -12.093000
v -2.434000 -15.336000 -12.093000
v -1.934000 -19.763000 -12.093000
v -1.934000 -15.337000 -12.093000
v -1.434000 -19.806000 -12.093000
v -1.434000 -15.423000 -12.093000
v -0.934000 -19.795000 -12.093000
v -0.934000 -15.503000 -12.093000
v -0.434000 -19.583000 -12.093000
v -0.434000 -15.539000 -12.093000
v 0.066000 -19.110000 -12.093000
v 0.066000 -15.748000 -12.093000
v 0.566000 -18.577000 -12.093000
v 0.566000 -16.360000 -12.093000
v -3.434000 -16.481000 -8.093000
v -3.434000 -15.400000 -8.093000
v -2.934000 -17.069000 -8.093000
v -2.934000 -14.800000 -8.093000
v -2.434000 -17.536000 -8.093000
v -2.434000 -14.586000 -8.093000
v -1.934000 -17.753000 -8.093000
v -1.934000 -14.564000 -8.093000
v -1.434000 -17.766000 -8.093000
v -1.434000 -14.568000 -8.093000
v -0.934000 -17.583000 -8.093000
v -0.934000 -14.757000 -8.093000
v -0.434000 -17.052000 -8.093000
v -0.434000 -15.299000 -8.093000
v -2.929000 -18.414000 -13.593000
v -1.293000 -18.414000 -13.593000
v -3.767000 -18.414000 -13.093000
v -0.243000 -18.414000 -13.093000
v -4.001000 -18.414000 -12.593000
v 0.431000 -18.414000 -12.593000
v -4.018000 -18.414000 -12.093000
v 0.641000 -18.414000 -12.093000
v -3.827000 -18.414000 -11.593000
v 0.640000 -18.414000 -11.593000
v -3.318000 -18.414000 -11.093000
v 0.426000 -18.414000 -11.093000
v -2.846000 -18.414000 -10.593000
v -0.257000 -18.414000 -10.593000
v -2.313000 -18.414000 -10.093000
v -1.068000 -18.414000 -10.093000
v -3.934000 -18.414000 -12.803000
v -3.934000 -18.414000 -11.797000
v -3.434000 -18.414000 -13.401000
v -3.434000 -18.414000 -11.181000
v -2.934000 -18.414000 -13.592000
v -2.934000 -18.414000 -10.700000
v -2.434000 -18.414000 -13.643000
v -2.434000 -18.414000 -10.187000
v -1.934000 -18.414000 -13.655000
v -1.934000 -18.414000 -9.906000
v -1.434000 -18.414000 -13.628000
v -1.434000 -18.414000 -9.907000
v -0.934000 -18.414000 -13.421000
v -0.934000 -18.414000 -10.195000
v -0.434000 -18.414000 -13.149000
v -0.434000 -18.414000 -10.523000
v 0.066000 -18.414000 -12.946000
v 0.066000 -18.414000 -10.746000
v 0.566000 -18.414000 -12.345000
v 0.566000 -18.414000 -11.348000
v -3.934000 -18.050000 -11.593000
v -3.934000 -16.310000 -11.593000
v -3.434000 -18.897000 -11.593000
v -3.434000 -15.513000 -11.593000
v -2.934000 -19.179000 -11.593000
v -2.934000 -15.211000 -11.593000
v -2.434000 -19.567000 -11.593000
v -2.434000 -15.078000 -11.593000
v -1.934000 -19.773000 -11.593000
v -1.934000 -15.118000 -11.593000
v -1.434000 -19.806000 -11.593000
v -1.434000 -15.312000 -11.593000
v -0.934000 -19.794000 -11.593000
v -0.934000 -15.474000 -11.593000
v -0.434000 -19.581000 -11.593000
v -0.434000 -15.533000 -11.593000
v 0.066000 -19.109000 -11.593000
v 0.066000 -15.736000 -11.593000
v 0.566000 -18.575000 -11.593000
v 0.566000 -16.310000 -11.593000
v -2.934000 -16.815000 -7.593000
v -2.934000 -15.052000 -7.593000
v -2.434000 -17.277000 -7.593000
v -2.434000 -14.790000 -7.593000
v -1.934000 -17.544000 -7.593000
v -1.934000 -14.759000 -7.593000
v -1.434000 -17.560000 -7.593000
v -1.434000 -14.761000 -7.593000
v -0.934000 -17.336000 -7.593000
v -0.934000 -14.987000 -7.593000
v -3.262000 -17.914000 -13.593000
v -0.843000 -17.914000 -13.593000
v -3.879000 -17.914000 -13.093000
v -0.003000 -17.914000 -13.093000
v -4.095000 -17.914000 -12.593000
v 0.539000 -17.914000 -12.593000
v -4.110000 -17.914000 -12.093000
v 0.733000 -17.914000 -12.093000
v -3.963000 -17.914000 -11.593000
v 0.731000 -17.914000 -11.593000
v -3.722000 -17.914000 -11.093000
v 0.538000 -17.914000 -11.093000
v -3.313000 -17.914000 -10.593000
v 0.107000 -17.914000 -10.593000
v -2.819000 -17.914000 -10.093000
v -0.585000 -17.914000 -10.093000
v -2.371000 -17.914000 -9.593000
v -1.014000 -17.914000 -9.593000
v -3.934000 -17.914000 -13.007000
v -3.934000 -17.914000 -11.517000
v -3.434000 -17.914000 -13.507000
v -3.434000 -17.914000 -10.729000
v -2.934000 -17.914000 -13.684000
v -2.934000 -17.914000 -10.209000
v -2.434000 -17.914000 -13.754000
v -2.434000 -17.914000 -9.643000
v -1.934000 -17.914000 -13.763000
v -1.934000 -17.914000 -9.188000
v -1.434000 -17.914000 -13.715000
v -1.434000 -17.914000 -9.185000
v -0.934000 -17.914000 -13.618000
v -0.934000 -17.914000 -9.689000
v -0.434000 -17.914000 -13.383000
v -0.434000 -17.914000 -10.214000
v 0.066000 -17.914000 -13.052000
v 0.066000 -17.914000 -10.562000
v 0.566000 -17.914000 -12.548000
v 0.566000 -17.914000 -11.142000
v -3.934000 -17.466000 -11.093000
v -3.934000 -15.809000 -11.093000
v -3.434000 -18.306000 -11.093000
v -3.434000 -15.027000 -11.093000
v -2.934000 -18.841000 -11.093000
v -2.934000 -14.762000 -11.093000
v -2.434000 -19.339000 -11.093000
v -2.434000 -14.743000 -11.093000
v -1.934000 -19.586000 -11.093000
v -1.934000 -14.939000 -11.093000
v -1.434000 -19.612000 -11.093000
v -1.434000 -15.243000 -11.093000
v -0.934000 -19.592000 -11.093000
v -0.934000 -15.448000 -11.093000
v -0.434000 -19.332000 -11.093000
v -0.434000 -15.554000 -11.093000
v 0.066000 -18.862000 -11.093000
v 0.066000 -15.751000 -11.093000
v 0.566000 -17.688000 -11.093000
v 0.566000 -16.313000 -11.093000
v -2.434000 -16.481000 -7.093000
v -2.434000 -15.387000 -7.093000
v -1.934000 -16.929000 -7.093000
v -1.934000 -15.316000 -7.093000
v -1.434000 -16.962000 -7.093000
v -1.434000 -15.314000 -7.093000
v -2.911000 -17.414000 -13.593000
v -0.607000 -17.414000 -13.593000
v -3.764000 -17.414000 -13.093000
v -0.029000 -17.414000 -13.093000
v -3.999000 -17.414000 -12.593000
v 0.459000 -17.414000 -12.593000
v -4.053000 -17.414000 -12.093000
v 0.663000 -17.414000 -12.093000
v -4.035000 -17.414000 -11.593000
v 0.687000 -17.414000 -11.593000
v -3.956000 -17.414000 -11.093000
v 0.621000 -17.414000 -11.093000
v -3.755000 -17.414000 -10.593000
v 0.412000 -17.414000 -10.593000
v -3.386000 -17.414000 -10.093000
v -0.127000 -17.414000 -10.093000
v -3.129000 -17.414000 -9.593000
v -0.548000 -17.414000 -9.593000
v -2.886000 -17.414000 -9.093000
v -0.663000 -17.414000 -9.093000
v -2.666000 -17.414000 -8.593000
v -0.680000 -17.414000 -8.593000
v -2.586000 -17.414000 -8.093000
v -0.711000 -17.414000 -8.093000
v -2.248000 -17.414000 -7.593000
v -1.049000 -17.414000 -7.593000
v -3.934000 -17.414000 -12.796000
v -3.934000 -17.414000 -10.994000
v -3.434000 -17.414000 -13.397000
v -3.434000 -17.414000 -10.146000
v -2.934000 -17.414000 -13.589000
v -2.934000 -17.414000 -9.152000
v -2.434000 -17.414000 -13.676000
v -2.434000 -17.414000 -7.784000
v -1.934000 -17.414000 -13.707000
v -1.934000 -17.414000 -7.429000
v -1.434000 -17.414000 -13.724000
v -1.434000 -17.414000 -7.410000
v -0.934000 -17.414000 -13.708000
v -0.934000 -17.414000 -7.698000
v -0.434000 -17.414000 -13.491000
v -0.434000 -17.414000 -9.782000
v 0.066000 -17.414000 -13.001000
v 0.066000 -17.414000 -10.240000
v 0.566000 -17.414000 -12.400000
v 0.566000 -17.414000 -10.909000
v -3.934000 -17.065000 -10.593000
v -3.934000 -15.439000 -10.593000
v -3.434000 -17.810000 -10.593000
v -3.434000 -14.791000 -10.593000
v -2.934000 -18.325000 -10.593000
v -2.934000 -14.572000 -10.593000
v -2.434000 -18.873000 -10.593000
v -2.434000 -14.555000 -10.593000
v -1.934000 -19.109000 -10.593000
v -1.934000 -14.718000 -10.593000
v -1.434000 -19.116000 -10.593000
v -1.434000 -14.998000 -10.593000
v -0.934000 -19.004000 -10.593000
v -0.934000 -15.348000 -10.593000
v -0.434000 -18.535000 -10.593000
v -0.434000 -15.655000 -10.593000
v 0.066000 -17.978000 -10.593000
v 0.066000 -15.973000 -10.593000
v -1.887000 -16.914000 -13.593000
v -0.604000 -16.914000 -13.593000
v -3.296000 -16.914000 -13.093000
v 0.004000 -16.914000 -13.093000
v -3.745000 -16.914000 -12.593000
v 0.471000 -16.914000 -12.593000
v -3.945000 -16.914000 -12.093000
v 0.671000 -16.914000 -12.093000
v -4.055000 -16.914000 -11.593000
v 0.700000 -16.914000 -11.593000
v -4.063000 -16.914000 -11.093000
v 0.704000 -16.914000 -11.093000
v -3.999000 -16.914000 -10.593000
v 0.521000 -16.914000 -10.593000
v -3.827000 -16.914000 -10.093000
v 0.071000 -16.914000 -10.093000
v -3.714000 -16.914000 -9.593000
v -0.252000 -16.914000 -9.593000
v -3.689000 -16.914000 -9.093000
v -0.354000 -16.914000 -9.093000
v -3.413000 -16.914000 -8.593000
v -0.358000 -16.914000 -8.593000
v -3.120000 -16.914000 -8.093000
v -0.371000 -16.914000 -8.093000
v -2.807000 -16.914000 -7.593000
v -0.593000 -16.914000 -7.593000
v -1.959000 -16.914000 -7.093000
v -1.338000 -16.914000 -7.093000
v -3.934000 -16.914000 -12.137000
v -3.934000 -16.914000 -10.355000
v -3.434000 -16.914000 -12.981000
v -3.434000 -16.914000 -8.614000
v -2.934000 -16.914000 -13.263000
v -2.934000 -16.914000 -7.726000
v -2.434000 -16.914000 -13.398000
v -2.434000 -16.914000 -7.312000
v -1.934000 -16.914000 -13.582000
v -1.934000 -16.914000 -7.087000
v -1.434000 -16.914000 -13.684000
v -1.434000 -16.914000 -7.073000
v -0.934000 -16.914000 -13.691000
v -0.934000 -16.914000 -7.268000
v -0.434000 -16.914000 -13.504000
v -0.434000 -16.914000 -7.881000
v 0.066000 -16.914000 -13.025000
v 0.066000 -16.914000 -10.087000
v 0.566000 -16.914000 -12.421000
v 0.566000 -16.914000 -10.674000
v -3.934000 -16.670000 -10.093000
v -3.934000 -15.328000 -10.093000
v -3.434000 -17.378000 -10.093000
v -3.434000 -14.756000 -10.093000
v -2.934000 -17.815000 -10.093000
v -2.934000 -14.555000 -10.093000
v -2.434000 -18.320000 -10.093000
v -2.434000 -14.541000 -10.093000
v -1.934000 -18.590000 -10.093000
v -1.934000 -14.565000 -10.093000
v -1.434000 -18.579000 -10.093000
v -1.434000 -14.757000 -10.093000
v -0.934000 -18.317000 -10.093000
v -0.934000 -15.265000 -10.093000
v -0.434000 -17.719000 -10.093000
v -0.434000 -15.723000 -10.093000
v 0.066000 -16.966000 -10.093000
v 0.066000 -16.711000 -10.093000
v -1.469000 -16.414000 -13.593000
v -0.859000 -16.414000 -13.593000
v -2.575000 -16.414000 -13.093000
v -0.102000 -16.414000 -13.093000
v -3.331000 -16.414000 -12.593000
v 0.371000 -16.414000 -12.593000
v -3.752000 -16.414000 -12.093000
v 0.587000 -16.414000 -12.093000
v -3.973000 -16.414000 -11.593000
v 0.610000 -16.414000 -11.593000
v -4.079000 -16.414000 -11.093000
v 0.610000 -16.414000 -11.093000
v -4.089000 -16.414000 -10.593000
v 0.411000 -16.414000 -10.593000
v -4.012000 -16.414000 -10.093000
v -0.009000 -16.414000 -10.093000
v -3.998000 -16.414000 -9.593000
v -0.233000 -16.414000 -9.593000
v -3.993000 -16.414000 -9.093000
v -0.289000 -16.414000 -9.093000
v -3.796000 -16.414000 -8.593000
v -0.267000 -16.414000 -8.593000
v -3.463000 -16.414000 -8.093000
v -0.274000 -16.414000 -8.093000
v -3.229000 -16.414000 -7.593000
v -0.478000 -16.414000 -7.593000
v -2.537000 -16.414000 -7.093000
v -1.056000 -16.414000 -7.093000
v -3.934000 -16.414000 -11.736000
v -3.934000 -16.414000 -8.870000
v -3.434000 -16.414000 -12.473000
v -3.434000 -16.414000 -8.024000
v -2.934000 -16.414000 -12.933000
v -2.934000 -16.414000 -7.292000
v -2.434000 -16.414000 -13.130000
v -2.434000 -16.414000 -7.066000
v -1.934000 -16.414000 -13.380000
v -1.934000 -16.414000 -6.988000
v -1.434000 -16.414000 -13.601000
v -1.434000 -16.414000 -6.978000
v -0.934000 -16.414000 -13.609000
v -0.934000 -16.414000 -7.157000
v -0.434000 -16.414000 -13.408000
v -0.434000 -16.414000 -7.665000
v 0.066000 -16.414000 -12.909000
v 0.066000 -16.414000 -10.193000
v 0.566000 -16.414000 -12.182000
v 0.566000 -16.414000 -10.915000
v -2.934000 -18.412000 -13.593000
v -2.934000 -17.423000 -13.593000
v -2.434000 -18.519000 -13.593000
v -2.434000 -17.225000 -13.593000
v -1.934000 -18.545000 -13.593000
v -1.934000 -16.945000 -13.593000
v -1.434000 -18.498000 -13.593000
v -1.434000 -16.393000 -13.593000
v -0.934000 -17.981000 -13.593000
v -0.934000 -16.373000 -13.593000
v -3.934000 -16.562000 -9.593000
v -3.934000 -15.296000 -9.593000
v -3.434000 -17.173000 -9.593000
v -3.434000 -14.743000 -9.593000
v -2.934000 -17.580000 -9.593000
v -2.934000 -14.550000 -9.593000
v -2.434000 -17.881000 -9.593000
v -2.434000 -14.513000 -9.593000
v -1.934000 -18.127000 -9.593000
v -1.934000 -14.520000 -9.593000
v -1.434000 -18.127000 -9.593000
v -1.434000 -14.693000 -9.593000
v -0.934000 -17.845000 -9.593000
v -0.934000 -15.006000 -9.593000
v -0.434000 -17.284000 -9.593000
v -0.434000 -15.671000 -9.593000
f 131 257 269
f 269 257 337
f 337 257 323
f 337 323 409
f 409 323 387
f 387 132 409
f 133 165 191
f 131 269 165
f 165 269 191
f 269 255 191
f 255 45 191
f 337 321 255
f 337 255 269
f 409 385 321
f 409 321 337
f 132 451 477
f 132 477 46
f 409 132 46
f 385 409 46
f 451 134 477
f 163 47 191
f 47 133 191
f 47 135 133
f 191 45 163
f 477 449 46
f 134 517 545
f 134 545 48
f 477 134 48
f 449 477 48
f 517 136 545
f 137 47 49
f 137 135 47
f 545 515 48
f 136 3 33
f 136 33 50
f 545 136 50
f 515 545 50
f 3 138 33
f 139 75 107
f 51 107 75
f 137 51 75
f 49 51 137
f 35 52 50
f 35 50 33
f 33 138 35
f 35 138 140
f 109 141 107
f 107 141 139
f 107 51 53
f 107 53 109
f 35 1 52
f 35 140 1
f 140 54 1
f 140 142 54
f 111 143 109
f 109 143 141
f 109 53 55
f 109 55 111
f 54 144 56
f 142 144 54
f 111 76 143
f 203 145 164
f 164 145 55
f 145 76 55
f 76 111 55
f 57 203 164
f 2 41 58
f 2 56 41
f 56 146 41
f 56 144 146
f 203 166 145
f 285 147 256
f 256 147 57
f 147 166 57
f 166 203 57
f 322 353 285
f 322 285 256
f 386 425 353
f 386 353 322
f 450 491 425
f 450 425 386
f 516 557 491
f 516 491 450
f 41 4 58
f 58 4 516
f 4 148 516
f 148 557 516
f 41 146 4
f 285 258 147
f 258 285 324
f 324 285 353
f 324 353 388
f 388 353 425
f 388 425 452
f 452 425 491
f 452 491 518
f 518 491 557
f 557 148 518
f 542 531 59
f 28 17 542
f 542 17 531
f 116 95 28
f 28 95 17
f 116 60 95
f 478 465 61
f 533 542 59
f 533 59 465
f 149 533 465
f 478 149 465
f 542 533 19
f 542 19 28
f 28 19 97
f 28 97 116
f 150 208 183
f 150 183 60
f 97 150 60
f 116 97 60
f 208 62 183
f 478 61 467
f 61 151 467
f 61 63 151
f 149 478 467
f 185 208 150
f 185 152 208
f 152 62 208
f 152 64 62
f 153 403 65
f 65 403 401
f 63 401 403
f 63 403 151
f 64 154 66
f 152 154 64
f 155 65 67
f 155 153 65
f 66 156 68
f 154 156 66
f 157 67 69
f 157 155 67
f 68 158 70
f 156 158 68
f 159 69 71
f 159 157 69
f 70 160 72
f 158 160 70
f 71 402 159
f 159 402 404
f 161 404 402
f 161 402 73
f 186 162 74
f 186 74 184
f 184 72 186
f 186 72 160
f 73 466 161
f 161 466 468
f 532 468 466
f 532 534 468
f 18 534 532
f 18 20 534
f 96 20 18
f 96 98 20
f 96 74 98
f 98 74 162
f 219 259 131
f 131 259 257
f 259 323 257
f 325 323 259
f 325 387 323
f 389 387 325
f 132 387 475
f 387 453 475
f 387 389 453
f 453 220 475
f 221 167 133
f 133 167 165
f 131 165 167
f 131 167 219
f 475 451 132
f 220 519 543
f 220 543 134
f 475 220 134
f 451 475 134
f 519 222 543
f 223 133 135
f 223 221 133
f 543 517 134
f 222 5 31
f 222 31 136
f 543 222 136
f 517 543 136
f 5 224 31
f 225 77 105
f 137 105 77
f 223 137 77
f 135 137 223
f 31 3 136
f 224 83 121
f 224 121 138
f 31 224 138
f 3 31 138
f 83 226 121
f 75 139 105
f 139 225 105
f 139 227 225
f 105 137 75
f 123 140 138
f 123 138 121
f 121 226 123
f 123 226 228
f 229 139 141
f 229 227 139
f 140 123 84
f 230 140 84
f 142 140 230
f 123 228 84
f 231 141 143
f 231 229 141
f 142 232 144
f 230 232 142
f 113 233 76
f 233 143 76
f 233 231 143
f 145 113 76
f 144 234 146
f 232 234 144
f 113 78 233
f 205 235 166
f 166 235 145
f 235 78 145
f 78 113 145
f 147 205 166
f 4 43 148
f 4 146 43
f 146 236 43
f 146 234 236
f 205 168 235
f 287 237 258
f 258 237 147
f 237 168 147
f 168 205 147
f 324 355 287
f 324 287 258
f 388 427 355
f 388 355 324
f 452 493 427
f 452 427 388
f 518 559 493
f 518 493 452
f 43 6 148
f 148 6 518
f 6 238 518
f 238 559 518
f 43 236 6
f 287 260 237
f 260 287 326
f 326 287 355
f 326 355 390
f 390 355 427
f 390 427 454
f 454 427 493
f 454 493 520
f 520 493 559
f 559 238 520
f 239 535 149
f 149 535 533
f 535 19 533
f 21 19 535
f 21 97 19
f 99 97 21
f 99 240 97
f 97 240 150
f 241 469 151
f 151 469 467
f 149 467 469
f 149 469 239
f 185 150 240
f 185 240 187
f 187 242 185
f 185 242 152
f 243 405 153
f 153 405 403
f 151 403 405
f 151 405 241
f 152 244 154
f 242 244 152
f 245 153 155
f 245 243 153
f 154 246 156
f 244 246 154
f 247 155 157
f 247 245 155
f 156 248 158
f 246 248 156
f 249 157 159
f 249 247 157
f 158 250 160
f 248 250 158
f 159 404 249
f 249 404 406
f 251 406 404
f 251 404 161
f 188 252 162
f 188 162 186
f 186 160 188
f 188 160 250
f 161 468 251
f 251 468 470
f 534 470 468
f 534 536 470
f 20 536 534
f 20 22 536
f 98 22 20
f 98 100 22
f 98 162 100
f 100 162 252
f 270 259 219
f 289 327 270
f 327 259 270
f 327 325 259
f 327 389 325
f 391 389 327
f 391 453 389
f 455 453 391
f 220 453 541
f 453 521 541
f 453 455 521
f 521 290 541
f 192 167 221
f 261 270 219
f 261 219 167
f 291 261 167
f 192 291 167
f 289 270 261
f 541 519 220
f 290 7 29
f 290 29 222
f 541 290 222
f 519 541 222
f 7 292 29
f 192 221 169
f 221 293 169
f 221 223 293
f 291 192 169
f 29 5 222
f 292 85 119
f 292 119 224
f 29 292 224
f 5 29 224
f 85 294 119
f 295 79 225
f 225 79 77
f 223 77 79
f 223 79 293
f 119 83 224
f 119 294 83
f 294 226 83
f 294 296 226
f 297 225 227
f 297 295 225
f 226 298 228
f 296 298 226
f 299 227 229
f 299 297 227
f 84 125 230
f 84 228 125
f 228 300 125
f 228 298 300
f 301 229 231
f 301 299 229
f 230 125 86
f 302 230 86
f 232 230 302
f 125 300 86
f 303 231 233
f 303 301 231
f 232 304 234
f 302 304 232
f 233 78 303
f 303 78 80
f 305 80 78
f 305 78 235
f 234 306 236
f 304 306 234
f 235 168 305
f 305 168 170
f 307 170 168
f 307 168 237
f 8 308 238
f 8 238 6
f 6 236 8
f 8 236 306
f 237 260 307
f 307 260 262
f 326 262 260
f 326 328 262
f 390 328 326
f 390 392 328
f 454 392 390
f 454 456 392
f 520 456 454
f 520 522 456
f 520 238 522
f 522 238 308
f 544 535 239
f 30 21 544
f 544 21 535
f 118 99 30
f 30 99 21
f 118 240 99
f 480 469 241
f 537 544 239
f 537 239 469
f 309 537 469
f 480 309 469
f 544 537 23
f 544 23 30
f 30 23 101
f 30 101 118
f 310 210 187
f 310 187 240
f 101 310 240
f 118 101 240
f 210 242 187
f 416 405 243
f 471 480 241
f 471 241 405
f 311 471 405
f 416 311 405
f 309 480 471
f 189 210 310
f 189 312 210
f 312 242 210
f 312 244 242
f 416 243 407
f 243 313 407
f 243 245 313
f 311 416 407
f 244 314 246
f 312 314 244
f 315 245 247
f 315 313 245
f 246 316 248
f 314 316 246
f 408 315 422
f 315 249 422
f 315 247 249
f 317 408 422
f 190 318 218
f 218 250 190
f 250 316 190
f 250 248 316
f 406 422 249
f 472 317 490
f 490 317 251
f 317 422 251
f 422 406 251
f 472 490 556
f 472 556 538
f 538 556 42
f 538 42 24
f 24 42 130
f 24 130 102
f 218 318 102
f 218 102 130
f 188 218 130
f 252 188 130
f 250 218 188
f 470 490 251
f 536 556 470
f 470 556 490
f 22 42 536
f 536 42 556
f 100 130 22
f 22 130 42
f 252 130 100
f 338 327 289
f 357 393 338
f 393 327 338
f 393 391 327
f 393 455 391
f 457 455 393
f 457 521 455
f 523 521 457
f 290 521 27
f 521 9 27
f 521 523 9
f 9 358 27
f 272 261 291
f 329 338 289
f 329 289 261
f 359 329 261
f 272 359 261
f 357 338 329
f 27 7 290
f 358 87 117
f 358 117 292
f 27 358 292
f 7 27 292
f 87 360 117
f 194 169 293
f 263 272 291
f 263 291 169
f 361 263 169
f 194 361 169
f 359 272 263
f 117 85 292
f 360 175 209
f 360 209 294
f 117 360 294
f 85 117 294
f 175 362 209
f 106 79 295
f 171 194 293
f 171 293 79
f 363 171 79
f 106 363 79
f 361 194 171
f 211 296 294
f 211 294 209
f 209 362 211
f 211 362 364
f 106 295 81
f 295 365 81
f 295 297 365
f 363 106 81
f 296 211 176
f 366 296 176
f 298 296 366
f 211 364 176
f 367 297 299
f 367 365 297
f 298 368 300
f 366 368 298
f 369 299 301
f 369 367 299
f 88 370 302
f 88 302 86
f 86 300 88
f 88 300 368
f 82 369 114
f 369 303 114
f 369 301 303
f 371 82 114
f 302 372 304
f 370 372 302
f 80 114 303
f 172 371 206
f 206 371 305
f 371 114 305
f 114 80 305
f 373 172 206
f 304 374 306
f 372 374 304
f 170 206 305
f 264 373 288
f 288 373 307
f 373 206 307
f 206 170 307
f 264 288 356
f 264 356 330
f 375 330 356
f 10 376 308
f 10 308 8
f 8 306 10
f 10 306 374
f 262 288 307
f 328 356 262
f 262 356 288
f 356 328 375
f 328 394 375
f 328 392 394
f 456 394 392
f 456 458 394
f 522 458 456
f 522 524 458
f 522 308 524
f 524 308 376
f 546 537 309
f 32 23 546
f 546 23 537
f 120 101 32
f 32 101 23
f 120 310 101
f 482 471 311
f 539 546 309
f 539 309 471
f 377 539 471
f 482 377 471
f 546 539 25
f 546 25 32
f 32 25 103
f 32 103 120
f 378 212 189
f 378 189 310
f 103 378 310
f 120 103 310
f 212 312 189
f 418 407 313
f 473 482 311
f 473 311 407
f 379 473 407
f 418 379 407
f 377 482 473
f 380 214 212
f 380 212 378
f 312 212 314
f 314 212 214
f 315 420 313
f 313 420 418
f 379 418 420
f 379 420 381
f 382 216 214
f 382 214 380
f 314 214 316
f 316 214 216
f 408 420 315
f 474 381 488
f 488 381 317
f 381 420 317
f 420 408 317
f 474 488 554
f 474 554 540
f 540 554 40
f 540 40 26
f 26 40 128
f 26 128 104
f 216 382 104
f 216 104 128
f 190 216 128
f 318 190 128
f 316 216 190
f 472 488 317
f 538 554 472
f 472 554 488
f 24 40 538
f 538 40 554
f 102 128 24
f 24 128 40
f 318 128 102
f 410 393 357
f 429 459 410
f 459 393 410
f 459 457 393
f 459 523 457
f 525 523 459
f 525 9 523
f 11 9 525
f 11 430 9
f 9 430 358
f 340 329 359
f 395 410 357
f 395 357 329
f 431 395 329
f 340 431 329
f 429 410 395
f 87 358 430
f 87 430 89
f 360 87 207
f 87 177 207
f 87 89 177
f 177 432 207
f 274 263 361
f 331 340 359
f 331 359 263
f 433 331 263
f 274 433 263
f 431 340 331
f 207 175 360
f 207 432 175
f 432 362 175
f 432 434 362
f 196 171 363
f 265 274 361
f 265 361 171
f 435 265 171
f 196 435 171
f 433 274 265
f 362 436 364
f 434 436 362
f 108 81 365
f 173 196 363
f 173 363 81
f 437 173 81
f 108 437 81
f 435 196 173
f 176 213 366
f 176 364 213
f 364 438 213
f 364 436 438
f 367 110 365
f 365 110 108
f 437 108 110
f 437 110 439
f 366 213 178
f 440 366 178
f 368 366 440
f 213 438 178
f 369 112 367
f 367 112 110
f 439 110 112
f 439 112 441
f 88 127 370
f 88 368 127
f 368 442 127
f 368 440 442
f 82 112 369
f 174 441 204
f 204 441 371
f 441 112 371
f 112 82 371
f 443 174 204
f 370 127 90
f 444 370 90
f 372 370 444
f 127 442 90
f 172 204 371
f 266 443 286
f 286 443 373
f 443 204 373
f 204 172 373
f 445 266 286
f 12 446 44
f 44 374 12
f 374 444 12
f 374 372 444
f 264 286 373
f 286 264 445
f 264 332 445
f 264 330 332
f 330 375 428
f 396 330 428
f 332 330 396
f 396 428 494
f 396 494 460
f 460 494 560
f 460 560 526
f 44 446 526
f 44 526 560
f 10 44 560
f 376 10 560
f 374 44 10
f 394 428 375
f 458 494 394
f 394 494 428
f 524 560 458
f 458 560 494
f 376 560 524
f 548 539 377
f 34 25 548
f 548 25 539
f 122 103 34
f 34 103 25
f 122 378 103
f 484 473 379
f 473 484 377
f 484 548 377
f 484 550 548
f 36 548 550
f 34 548 36
f 124 34 36
f 122 34 124
f 378 122 380
f 380 122 124
f 381 486 379
f 379 486 484
f 552 484 486
f 550 484 552
f 38 550 552
f 36 550 38
f 126 36 38
f 124 36 126
f 380 124 382
f 382 124 126
f 474 486 381
f 540 552 474
f 474 552 486
f 26 38 540
f 540 38 552
f 104 126 26
f 26 126 38
f 382 126 104
f 476 459 429
f 495 527 476
f 527 459 476
f 527 525 459
f 527 11 525
f 13 11 527
f 430 11 115
f 11 91 115
f 11 13 91
f 91 496 115
f 412 395 431
f 461 476 429
f 461 429 395
f 497 461 395
f 412 497 395
f 495 476 461
f 115 89 430
f 89 115 496
f 179 89 496
f 177 89 179
f 179 498 177
f 177 498 432
f 342 331 433
f 397 412 431
f 397 431 331
f 499 397 331
f 342 499 331
f 497 412 397
f 432 500 434
f 498 500 432
f 276 265 435
f 333 342 433
f 333 433 265
f 501 333 265
f 276 501 265
f 499 342 333
f 434 502 436
f 500 502 434
f 198 173 437
f 267 276 435
f 267 435 173
f 503 267 173
f 198 503 173
f 501 276 267
f 436 504 438
f 502 504 436
f 439 200 437
f 437 200 198
f 503 198 200
f 503 200 505
f 178 215 440
f 178 438 215
f 438 506 215
f 438 504 506
f 441 202 439
f 439 202 200
f 282 268 505
f 200 282 505
f 202 282 200
f 507 268 282
f 440 215 180
f 508 440 180
f 442 440 508
f 215 506 180
f 174 202 441
f 443 284 174
f 284 202 174
f 284 282 202
f 352 334 507
f 282 352 507
f 284 352 282
f 509 334 352
f 92 510 444
f 92 444 90
f 90 442 92
f 92 442 508
f 266 284 443
f 445 354 266
f 354 284 266
f 354 352 284
f 426 398 509
f 352 426 509
f 354 426 352
f 511 398 426
f 528 512 558
f 528 558 446
f 12 528 446
f 14 528 12
f 12 444 14
f 14 444 510
f 332 354 445
f 396 426 332
f 332 426 354
f 426 396 511
f 396 462 511
f 396 460 462
f 512 462 558
f 462 526 558
f 462 460 526
f 446 558 526
f 561 319 341
f 319 562 341
f 563 253 275
f 561 341 253
f 341 275 253
f 341 343 275
f 383 415 562
f 415 341 562
f 415 343 341
f 383 564 415
f 277 565 275
f 275 565 563
f 275 345 277
f 275 343 345
f 343 417 345
f 343 415 417
f 415 564 417
f 417 564 566
f 279 567 277
f 277 567 565
f 277 347 279
f 277 345 347
f 345 419 347
f 345 417 419
f 447 485 566
f 485 417 566
f 485 419 417
f 485 447 551
f 551 447 513
f 513 568 551
f 279 254 567
f 254 279 569
f 279 349 569
f 279 347 349
f 347 421 349
f 347 419 421
f 419 487 421
f 419 485 487
f 485 553 487
f 485 551 553
f 551 568 553
f 553 568 570
f 349 320 569
f 320 349 384
f 384 349 421
f 384 421 448
f 448 421 487
f 448 487 514
f 514 487 553
f 553 570 514
f 571 529 495
f 495 529 527
f 529 13 527
f 15 13 529
f 15 91 13
f 93 91 15
f 93 572 91
f 91 572 496
f 573 463 497
f 497 463 461
f 495 461 463
f 495 463 571
f 179 496 572
f 179 572 181
f 181 574 179
f 179 574 498
f 575 399 499
f 499 399 397
f 497 397 399
f 497 399 573
f 498 576 500
f 574 576 498
f 344 333 501
f 499 333 344
f 577 499 344
f 575 499 577
f 500 578 502
f 576 578 500
f 278 267 503
f 335 344 501
f 335 501 267
f 579 335 267
f 278 579 267
f 577 344 335
f 502 580 504
f 578 580 502
f 505 280 503
f 503 280 278
f 579 278 280
f 579 280 581
f 504 582 506
f 580 582 504
f 268 280 505
f 336 581 350
f 350 581 507
f 581 280 507
f 280 268 507
f 583 336 350
f 182 584 508
f 182 508 180
f 180 506 182
f 182 506 582
f 334 350 507
f 400 583 424
f 424 583 509
f 583 350 509
f 350 334 509
f 585 400 424
f 94 586 510
f 94 510 92
f 92 508 94
f 94 508 584
f 398 424 509
f 464 585 492
f 492 585 511
f 585 424 511
f 424 398 511
f 464 492 512
f 528 464 512
f 530 464 528
f 14 530 528
f 14 16 530
f 14 510 16
f 16 510 586
f 462 492 511
f 512 492 462
f 45 255 271
f 271 255 339
f 339 255 321
f 339 321 411
f 411 321 385
f 385 46 411
f 47 163 193
f 45 271 163
f 271 193 163
f 271 273 193
f 339 319 561
f 273 339 561
f 271 339 273
f 413 562 319
f 339 413 319
f 411 413 339
f 449 479 46
f 479 411 46
f 479 413 411
f 449 48 479
f 195 49 193
f 193 49 47
f 273 253 563
f 195 273 563
f 193 273 195
f 273 561 253
f 413 383 562
f 481 564 383
f 413 481 383
f 479 481 413
f 515 547 48
f 547 479 48
f 547 481 479
f 515 50 547
f 197 51 195
f 195 51 49
f 195 563 565
f 195 565 197
f 483 566 564
f 483 564 481
f 481 549 483
f 481 547 549
f 547 50 549
f 549 50 52
f 199 53 197
f 197 53 51
f 197 565 567
f 197 567 199
f 483 447 566
f 549 513 447
f 549 447 483
f 52 1 37
f 52 37 568
f 549 52 568
f 513 549 568
f 1 54 37
f 201 55 199
f 199 55 53
f 199 567 254
f 281 199 254
f 201 199 281
f 569 281 254
f 39 570 568
f 39 568 37
f 37 54 39
f 39 54 56
f 201 164 55
f 164 201 57
f 201 283 57
f 201 281 283
f 281 569 320
f 351 281 320
f 283 281 351
f 384 423 351
f 384 351 320
f 448 489 423
f 448 423 384
f 514 555 489
f 514 489 448
f 39 2 570
f 570 2 514
f 2 58 514
f 58 555 514
f 39 56 2
f 283 256 57
f 256 283 322
f 322 283 351
f 322 351 386
f 386 351 423
f 386 423 450
f 450 423 489
f 450 489 516
f 516 489 555
f 555 58 516
f 59 531 571
f 571 531 529
f 531 15 529
f 17 15 531
f 17 93 15
f 95 93 17
f 95 60 93
f 93 60 572
f 61 465 573
f 573 465 463
f 571 463 465
f 571 465 59
f 181 572 60
f 181 60 183
f 183 62 181
f 181 62 574
f 414 399 575
f 573 399 414
f 63 573 414
f 61 573 63
f 574 64 576
f 62 64 574
f 414 575 401
f 575 65 401
f 575 577 65
f 63 414 401
f 576 66 578
f 64 66 576
f 346 335 579
f 577 335 346
f 67 577 346
f 65 577 67
f 578 68 580
f 66 68 578
f 581 348 579
f 579 348 346
f 67 346 348
f 67 348 69
f 580 70 582
f 68 70 580
f 336 348 581
f 69 348 336
f 583 69 336
f 71 69 583
f 182 217 584
f 182 582 217
f 582 72 217
f 582 70 72
f 583 400 71
f 71 400 402
f 73 402 400
f 73 400 585
f 94 129 586
f 217 184 584
f 584 184 94
f 184 74 94
f 74 129 94
f 217 72 184
f 585 464 73
f 73 464 466
f 530 466 464
f 530 532 466
f 16 532 530
f 16 18 532
f 129 96 586
f 96 16 586
f 96 18 16
f 129 74 96
