# Converted from NanoShaper .vert/.face
v -4.355000 -16.914000 -4.593000
v -3.088000 -16.914000 -4.593000
v -4.691000 -16.914000 -4.093000
v -2.747000 -16.914000 -4.093000
v -4.707000 -16.914000 -3.593000
v -2.727000 -16.914000 -3.593000
v -4.422000 -16.914000 -3.093000
v -2.998000 -16.914000 -3.093000
v -6.269000 -12.914000 -4.593000
v -4.310000 -12.914000 -4.593000
v -6.511000 -12.914000 -4.093000
v -4.168000 -12.914000 -4.093000
v -6.510000 -12.914000 -3.593000
v -4.161000 -12.914000 -3.593000
v -6.422000 -12.914000 -3.093000
v -4.182000 -12.914000 -3.093000
v -6.079000 -12.914000 -2.593000
v -4.451000 -12.914000 -2.593000
v -4.434000 -16.914000 -4.521000
v -4.434000 -16.914000 -3.105000
v -3.934000 -16.914000 -4.784000
v -3.934000 -16.914000 -2.823000
v -3.434000 -16.914000 -4.770000
v -3.434000 -16.914000 -2.836000
v -2.934000 -16.914000 -4.442000
v -2.934000 -16.914000 -3.164000
v -6.434000 -12.914000 -4.329000
v -6.434000 -12.914000 -3.127000
v -5.934000 -12.914000 -4.871000
v -5.934000 -12.914000 -2.478000
v -5.434000 -12.914000 -5.037000
v -5.434000 -12.914000 -2.276000
v -4.934000 -12.914000 -4.992000
v -4.934000 -12.914000 -2.302000
v -4.434000 -12.914000 -4.739000
v -4.434000 -12.914000 -2.611000
v -6.934000 -11.930000 -3.593000
v -6.934000 -10.914000 -3.593000
v -6.434000 -15.031000 -3.593000
v -6.434000 -10.287000 -3.593000
v -5.934000 -15.948000 -3.593000
v -5.934000 -10.073000 -3.593000
v -5.434000 -16.537000 -3.593000
v -5.434000 -10.062000 -3.593000
v -4.934000 -16.772000 -3.593000
v -4.934000 -10.247000 -3.593000
v -4.434000 -17.120000 -3.593000
v -4.434000 -10.781000 -3.593000
v -3.934000 -17.306000 -3.593000
v -3.934000 -13.216000 -3.593000
v -3.434000 -17.296000 -3.593000
v -3.434000 -13.874000 -3.593000
v -2.934000 -17.086000 -3.593000
v -2.934000 -14.780000 -3.593000
v -2.434000 -16.476000 -3.593000
v -2.434000 -15.404000 -3.593000
v -4.972000 -16.414000 -5.093000
v -3.356000 -16.414000 -5.093000
v -5.310000 -16.414000 -4.593000
v -2.656000 -16.414000 -4.593000
v -5.610000 -16.414000 -4.093000
v -2.425000 -16.414000 -4.093000
v -5.594000 -16.414000 -3.593000
v -2.410000 -16.414000 -3.593000
v -5.232000 -16.414000 -3.093000
v -2.601000 -16.414000 -3.093000
v -4.231000 -16.414000 -2.593000
v -3.189000 -16.414000 -2.593000
v -6.411000 -12.414000 -4.593000
v -4.561000 -12.414000 -4.593000
v -6.665000 -12.414000 -4.093000
v -4.355000 -12.414000 -4.093000
v -6.668000 -12.414000 -3.593000
v -4.341000 -12.414000 -3.593000
v -6.486000 -12.414000 -3.093000
v -4.449000 -12.414000 -3.093000
v -5.917000 -12.414000 -2.593000
v -4.944000 -12.414000 -2.593000
v -5.434000 -16.414000 -4.460000
v -5.434000 -16.414000 -3.286000
v -4.934000 -16.414000 -5.144000
v -4.934000 -16.414000 -2.944000
v -4.434000 -16.414000 -5.416000
v -4.434000 -16.414000 -2.698000
v -3.934000 -16.414000 -5.360000
v -3.934000 -16.414000 -2.505000
v -3.434000 -16.414000 -5.131000
v -3.434000 -16.414000 -2.515000
v -2.934000 -16.414000 -4.867000
v -2.934000 -16.414000 -2.739000
v -2.434000 -16.414000 -4.130000
v -2.434000 -16.414000 -3.476000
v -6.434000 -12.414000 -4.565000
v -6.434000 -12.414000 -3.016000
v -5.934000 -12.414000 -4.923000
v -5.934000 -12.414000 -2.601000
v -5.434000 -12.414000 -5.017000
v -5.434000 -12.414000 -2.485000
v -4.934000 -12.414000 -4.877000
v -4.934000 -12.414000 -2.598000
v -4.434000 -12.414000 -4.385000
v -4.434000 -12.414000 -3.126000
v -6.434000 -15.016000 -3.093000
v -6.434000 -13.056000 -3.093000
v -6.434000 -12.637000 -3.093000
v -6.434000 -10.533000 -3.093000
v -5.934000 -15.652000 -3.093000
v -5.934000 -10.273000 -3.093000
v -5.434000 -16.276000 -3.093000
v -5.434000 -10.260000 -3.093000
v -4.934000 -16.541000 -3.093000
v -4.934000 -10.483000 -3.093000
v -4.434000 -16.905000 -3.093000
v -4.434000 -12.456000 -3.093000
v -3.934000 -17.126000 -3.093000
v -3.934000 -13.300000 -3.093000
v -3.434000 -17.114000 -3.093000
v -3.434000 -14.443000 -3.093000
v -2.934000 -16.864000 -3.093000
v -2.934000 -15.016000 -3.093000
v -5.312000 -15.914000 -6.093000
v -4.071000 -15.914000 -6.093000
v -5.647000 -15.914000 -5.593000
v -3.588000 -15.914000 -5.593000
v -5.687000 -15.914000 -5.093000
v -3.051000 -15.914000 -5.093000
v -5.793000 -15.914000 -4.593000
v -2.555000 -15.914000 -4.593000
v -5.961000 -15.914000 -4.093000
v -2.341000 -15.914000 -4.093000
v -5.949000 -15.914000 -3.593000
v -2.326000 -15.914000 -3.593000
v -5.729000 -15.914000 -3.093000
v -2.504000 -15.914000 -3.093000
v -4.899000 -15.914000 -2.593000
v -3.006000 -15.914000 -2.593000
v -6.044000 -11.914000 -5.093000
v -5.225000 -11.914000 -5.093000
v -6.728000 -11.914000 -4.593000
v -4.550000 -11.914000 -4.593000
v -6.940000 -11.914000 -4.093000
v -4.344000 -11.914000 -4.093000
v -6.940000 -11.914000 -3.593000
v -4.342000 -11.914000 -3.593000
v -6.729000 -11.914000 -3.093000
v -4.521000 -11.914000 -3.093000
v -6.070000 -11.914000 -2.593000
v -5.122000 -11.914000 -2.593000
v -5.934000 -15.914000 -4.213000
v -5.934000 -15.914000 -3.533000
v -5.434000 -15.914000 -5.977000
v -5.434000 -15.914000 -2.802000
v -4.934000 -15.914000 -6.280000
v -4.934000 -15.914000 -2.599000
v -4.434000 -15.914000 -6.276000
v -4.434000 -15.914000 -2.529000
v -3.934000 -15.914000 -5.961000
v -3.934000 -15.914000 -2.421000
v -3.434000 -15.914000 -5.459000
v -3.434000 -15.914000 -2.431000
v -2.934000 -15.914000 -4.984000
v -2.934000 -15.914000 -2.638000
v -2.434000 -15.914000 -4.378000
v -2.434000 -15.914000 -3.228000
v -6.934000 -11.914000 -4.121000
v -6.934000 -11.914000 -3.562000
v -6.434000 -11.914000 -4.895000
v -6.434000 -11.914000 -2.789000
v -5.934000 -11.914000 -5.122000
v -5.934000 -11.914000 -2.550000
v -5.434000 -11.914000 -5.141000
v -5.434000 -11.914000 -2.515000
v -4.934000 -11.914000 -4.956000
v -4.934000 -11.914000 -2.685000
v -4.434000 -11.914000 -4.390000
v -4.434000 -11.914000 -3.262000
v -4.934000 -15.445000 -6.593000
v -4.934000 -14.415000 -6.593000
v -4.434000 -15.438000 -6.593000
v -4.434000 -14.421000 -6.593000
v -5.934000 -15.375000 -2.593000
v -5.934000 -12.511000 -2.593000
v -5.934000 -12.171000 -2.593000
v -5.934000 -10.855000 -2.593000
v -5.434000 -15.662000 -2.593000
v -5.434000 -10.828000 -2.593000
v -4.934000 -15.899000 -2.593000
v -4.934000 -12.427000 -2.593000
v -4.434000 -16.149000 -2.593000
v -4.434000 -12.929000 -2.593000
v -3.934000 -16.608000 -2.593000
v -3.934000 -14.464000 -2.593000
v -3.434000 -16.588000 -2.593000
v -3.434000 -15.287000 -2.593000
v -4.992000 -15.414000 -6.593000
v -4.391000 -15.414000 -6.593000
v -5.749000 -15.414000 -6.093000
v -3.633000 -15.414000 -6.093000
v -5.975000 -15.414000 -5.593000
v -3.351000 -15.414000 -5.593000
v -5.995000 -15.414000 -5.093000
v -2.997000 -15.414000 -5.093000
v -6.031000 -15.414000 -4.593000
v -2.680000 -15.414000 -4.593000
v -6.171000 -15.414000 -4.093000
v -2.446000 -15.414000 -4.093000
v -6.184000 -15.414000 -3.593000
v -2.430000 -15.414000 -3.593000
v -6.158000 -15.414000 -3.093000
v -2.624000 -15.414000 -3.093000
v -5.883000 -15.414000 -2.593000
v -3.242000 -15.414000 -2.593000
v -6.282000 -11.414000 -5.093000
v -5.026000 -11.414000 -5.093000
v -6.835000 -11.414000 -4.593000
v -4.472000 -11.414000 -4.593000
v -7.031000 -11.414000 -4.093000
v -4.276000 -11.414000 -4.093000
v -7.031000 -11.414000 -3.593000
v -4.276000 -11.414000 -3.593000
v -6.836000 -11.414000 -3.093000
v -4.471000 -11.414000 -3.093000
v -6.286000 -11.414000 -2.593000
v -5.021000 -11.414000 -2.593000
v -5.934000 -15.414000 -5.739000
v -5.934000 -15.414000 -2.647000
v -5.434000 -15.414000 -6.398000
v -5.434000 -15.414000 -2.336000
v -4.934000 -15.414000 -6.605000
v -4.934000 -15.414000 -2.316000
v -4.434000 -15.414000 -6.602000
v -4.434000 -15.414000 -2.368000
v -3.934000 -15.414000 -6.388000
v -3.934000 -15.414000 -2.442000
v -3.434000 -15.414000 -5.737000
v -3.434000 -15.414000 -2.535000
v -2.934000 -15.414000 -4.984000
v -2.934000 -15.414000 -2.763000
v -2.434000 -15.414000 -4.038000
v -2.434000 -15.414000 -3.568000
v -6.934000 -11.414000 -4.408000
v -6.934000 -11.414000 -3.276000
v -6.434000 -11.414000 -5.004000
v -6.434000 -11.414000 -2.680000
v -5.934000 -11.414000 -5.213000
v -5.934000 -11.414000 -2.470000
v -5.434000 -11.414000 -5.224000
v -5.434000 -11.414000 -2.459000
v -4.934000 -11.414000 -5.043000
v -4.934000 -11.414000 -2.641000
v -4.434000 -11.414000 -4.529000
v -4.434000 -11.414000 -3.154000
v -5.434000 -15.825000 -6.093000
v -5.434000 -14.035000 -6.093000
v -4.934000 -16.068000 -6.093000
v -4.934000 -13.792000 -6.093000
v -4.434000 -16.065000 -6.093000
v -4.434000 -13.795000 -6.093000
v -3.934000 -15.813000 -6.093000
v -3.934000 -14.047000 -6.093000
v -5.434000 -15.089000 -2.093000
v -5.434000 -13.196000 -2.093000
v -4.934000 -15.094000 -2.093000
v -4.934000 -13.207000 -2.093000
v -5.261000 -14.914000 -6.593000
v -4.122000 -14.914000 -6.593000
v -5.854000 -14.914000 -6.093000
v -3.528000 -14.914000 -6.093000
v -6.063000 -14.914000 -5.593000
v -3.315000 -14.914000 -5.593000
v -6.125000 -14.914000 -5.093000
v -3.117000 -14.914000 -5.093000
v -6.284000 -14.914000 -4.593000
v -2.923000 -14.914000 -4.593000
v -6.480000 -14.914000 -4.093000
v -2.801000 -14.914000 -4.093000
v -6.486000 -14.914000 -3.593000
v -2.781000 -14.914000 -3.593000
v -6.476000 -14.914000 -3.093000
v -3.063000 -14.914000 -3.093000
v -6.284000 -14.914000 -2.593000
v -3.780000 -14.914000 -2.593000
v -5.690000 -14.914000 -2.093000
v -4.664000 -14.914000 -2.093000
v -6.023000 -10.914000 -5.093000
v -5.284000 -10.914000 -5.093000
v -6.720000 -10.914000 -4.593000
v -4.587000 -10.914000 -4.593000
v -6.934000 -10.914000 -4.093000
v -4.373000 -10.914000 -4.093000
v -6.934000 -10.914000 -3.593000
v -4.373000 -10.914000 -3.593000
v -6.722000 -10.914000 -3.093000
v -4.585000 -10.914000 -3.093000
v -6.031000 -10.914000 -2.593000
v -5.276000 -10.914000 -2.593000
v -6.434000 -14.914000 -4.269000
v -6.434000 -14.914000 -2.915000
v -5.934000 -14.914000 -5.958000
v -5.934000 -14.914000 -2.228000
v -5.434000 -14.914000 -6.501000
v -5.434000 -14.914000 -2.014000
v -4.934000 -14.914000 -6.693000
v -4.934000 -14.914000 -2.012000
v -4.434000 -14.914000 -6.690000
v -4.434000 -14.914000 -2.211000
v -3.934000 -14.914000 -6.492000
v -3.934000 -14.914000 -2.498000
v -3.434000 -14.914000 -5.930000
v -3.434000 -14.914000 -2.804000
v -2.934000 -14.914000 -4.639000
v -2.934000 -14.914000 -3.250000
v -6.934000 -10.914000 -4.092000
v -6.934000 -10.914000 -3.592000
v -6.434000 -10.914000 -4.887000
v -6.434000 -10.914000 -2.796000
v -5.934000 -10.914000 -5.116000
v -5.934000 -10.914000 -2.568000
v -5.434000 -10.914000 -5.128000
v -5.434000 -10.914000 -2.556000
v -4.934000 -10.914000 -4.930000
v -4.934000 -10.914000 -2.754000
v -4.434000 -10.914000 -4.305000
v -4.434000 -10.914000 -3.378000
v -5.934000 -15.511000 -5.593000
v -5.934000 -14.344000 -5.593000
v -5.434000 -16.083000 -5.593000
v -5.434000 -13.713000 -5.593000
v -4.934000 -16.280000 -5.593000
v -4.934000 -13.499000 -5.593000
v -4.434000 -16.314000 -5.593000
v -4.434000 -13.563000 -5.593000
v -3.934000 -16.187000 -5.593000
v -3.934000 -13.786000 -5.593000
v -3.434000 -15.665000 -5.593000
v -3.434000 -14.380000 -5.593000
v -5.734000 -14.414000 -6.093000
v -3.648000 -14.414000 -6.093000
v -5.963000 -14.414000 -5.593000
v -3.420000 -14.414000 -5.593000
v -6.111000 -14.414000 -5.093000
v -3.364000 -14.414000 -5.093000
v -6.392000 -14.414000 -4.593000
v -3.215000 -14.414000 -4.593000
v -6.583000 -14.414000 -4.093000
v -3.182000 -14.414000 -4.093000
v -6.583000 -14.414000 -3.593000
v -3.224000 -14.414000 -3.593000
v -6.561000 -14.414000 -3.093000
v -3.447000 -14.414000 -3.093000
v -6.382000 -14.414000 -2.593000
v -3.945000 -14.414000 -2.593000
v -5.877000 -14.414000 -2.093000
v -4.478000 -14.414000 -2.093000
v -6.270000 -10.414000 -4.593000
v -5.037000 -10.414000 -4.593000
v -6.592000 -10.414000 -4.093000
v -4.715000 -10.414000 -4.093000
v -6.593000 -10.414000 -3.593000
v -4.714000 -10.414000 -3.593000
v -6.273000 -10.414000 -3.093000
v -5.034000 -10.414000 -3.093000
v -6.434000 -14.414000 -4.520000
v -6.434000 -14.414000 -2.690000
v -5.934000 -14.414000 -5.700000
v -5.934000 -14.414000 -2.128000
v -5.434000 -14.414000 -6.383000
v -5.434000 -14.414000 -1.929000
v -4.934000 -14.414000 -6.593000
v -4.934000 -14.414000 -1.927000
v -4.434000 -14.414000 -6.590000
v -4.434000 -14.414000 -2.119000
v -3.934000 -14.414000 -6.373000
v -3.934000 -14.414000 -2.605000
v -3.434000 -14.414000 -5.651000
v -3.434000 -14.414000 -3.112000
v -6.434000 -10.414000 -4.421000
v -6.434000 -10.414000 -3.263000
v -5.934000 -10.414000 -4.772000
v -5.934000 -10.414000 -2.911000
v -5.434000 -10.414000 -4.788000
v -5.434000 -10.414000 -2.895000
v -4.934000 -10.414000 -4.495000
v -4.934000 -10.414000 -3.189000
v -5.934000 -15.550000 -5.093000
v -5.934000 -13.647000 -5.093000
v -5.934000 -11.985000 -5.093000
v -5.934000 -10.860000 -5.093000
v -5.434000 -16.137000 -5.093000
v -5.434000 -13.086000 -5.093000
v -5.434000 -12.094000 -5.093000
v -5.434000 -10.833000 -5.093000
v -4.934000 -16.435000 -5.093000
v -4.934000 -13.080000 -5.093000
v -4.434000 -16.634000 -5.093000
v -4.434000 -13.278000 -5.093000
v -3.934000 -16.639000 -5.093000
v -3.934000 -13.540000 -5.093000
v -3.434000 -16.471000 -5.093000
v -3.434000 -14.242000 -5.093000
v -5.258000 -13.914000 -6.093000
v -4.124000 -13.914000 -6.093000
v -5.661000 -13.914000 -5.593000
v -3.769000 -13.914000 -5.593000
v -6.036000 -13.914000 -5.093000
v -3.597000 -13.914000 -5.093000
v -6.426000 -13.914000 -4.593000
v -3.395000 -13.914000 -4.593000
v -6.603000 -13.914000 -4.093000
v -3.376000 -13.914000 -4.093000
v -6.597000 -13.914000 -3.593000
v -3.419000 -13.914000 -3.593000
v -6.583000 -13.914000 -3.093000
v -3.610000 -13.914000 -3.093000
v -6.407000 -13.914000 -2.593000
v -3.984000 -13.914000 -2.593000
v -5.909000 -13.914000 -2.093000
v -4.488000 -13.914000 -2.093000
v -6.434000 -13.914000 -4.578000
v -6.434000 -13.914000 -2.642000
v -5.934000 -13.914000 -5.222000
v -5.934000 -13.914000 -2.108000
v -5.434000 -13.914000 -5.927000
v -5.434000 -13.914000 -1.919000
v -4.934000 -13.914000 -6.246000
v -4.934000 -13.914000 -1.924000
v -4.434000 -13.914000 -6.243000
v -4.434000 -13.914000 -2.127000
v -3.934000 -13.914000 -5.910000
v -3.934000 -13.914000 -2.662000
v -3.434000 -13.914000 -4.728000
v -3.434000 -13.914000 -3.514000
v -6.434000 -12.372000 -4.593000
v -6.434000 -10.535000 -4.593000
v -5.934000 -15.626000 -4.593000
v -5.934000 -10.274000 -4.593000
v -5.434000 -16.329000 -4.593000
v -5.434000 -10.261000 -4.593000
v -4.934000 -16.631000 -4.593000
v -4.934000 -10.485000 -4.593000
v -4.434000 -16.877000 -4.593000
v -4.434000 -12.744000 -4.593000
v -3.934000 -17.074000 -4.593000
v -3.934000 -13.267000 -4.593000
v -3.434000 -17.062000 -4.593000
v -3.434000 -13.827000 -4.593000
v -2.934000 -16.796000 -4.593000
v -2.934000 -14.892000 -4.593000
v -5.777000 -13.414000 -5.093000
v -4.132000 -13.414000 -5.093000
v -6.343000 -13.414000 -4.593000
v -3.751000 -13.414000 -4.593000
v -6.538000 -13.414000 -4.093000
v -3.720000 -13.414000 -4.093000
v -6.532000 -13.414000 -3.593000
v -3.736000 -13.414000 -3.593000
v -6.509000 -13.414000 -3.093000
v -3.876000 -13.414000 -3.093000
v -6.320000 -13.414000 -2.593000
v -4.078000 -13.414000 -2.593000
v -5.747000 -13.414000 -2.093000
v -4.650000 -13.414000 -2.093000
v -6.434000 -13.414000 -4.428000
v -6.434000 -13.414000 -2.821000
v -5.934000 -13.414000 -4.999000
v -5.934000 -13.414000 -2.197000
v -5.434000 -13.414000 -5.281000
v -5.434000 -13.414000 -1.995000
v -4.934000 -13.414000 -5.455000
v -4.934000 -13.414000 -2.001000
v -4.434000 -13.414000 -5.273000
v -4.434000 -13.414000 -2.217000
v -3.934000 -13.414000 -4.919000
v -3.934000 -13.414000 -2.905000
v -6.934000 -11.929000 -4.093000
v -6.934000 -10.915000 -4.093000
v -6.434000 -15.015000 -4.093000
v -6.434000 -10.287000 -4.093000
v -5.934000 -15.975000 -4.093000
v -5.934000 -10.073000 -4.093000
v -5.434000 -16.550000 -4.093000
v -5.434000 -10.062000 -4.093000
v -4.934000 -16.775000 -4.093000
v -4.934000 -10.247000 -4.093000
v -4.434000 -17.103000 -4.093000
v -4.434000 -10.782000 -4.093000
v -3.934000 -17.291000 -4.093000
v -3.934000 -13.213000 -4.093000
v -3.434000 -17.281000 -4.093000
v -3.434000 -13.790000 -4.093000
v -2.934000 -17.068000 -4.093000
v -2.934000 -14.776000 -4.093000
v -2.434000 -16.437000 -4.093000
v -2.434000 -15.442000 -4.093000
f 166 143 37
f 242 219 166
f 166 219 143
f 314 291 242
f 242 291 219
f 314 38 291
f 103 279 39
f 39 279 277
f 279 347 277
f 349 347 279
f 349 411 347
f 413 411 349
f 413 455 411
f 457 455 413
f 28 13 104
f 13 457 104
f 13 455 457
f 105 75 28
f 75 13 28
f 75 73 13
f 145 166 37
f 73 145 37
f 75 145 73
f 166 145 221
f 166 221 242
f 242 221 293
f 242 293 314
f 106 378 359
f 106 359 38
f 293 106 38
f 314 293 38
f 378 40 359
f 150 131 41
f 107 209 150
f 209 131 150
f 209 207 131
f 39 207 209
f 39 209 103
f 15 28 104
f 105 28 15
f 361 378 106
f 361 108 378
f 108 40 378
f 108 42 40
f 80 63 43
f 133 150 41
f 133 41 63
f 109 133 63
f 80 109 63
f 107 150 133
f 42 110 44
f 108 110 42
f 80 43 65
f 43 111 65
f 43 45 111
f 109 80 65
f 362 112 384
f 384 46 362
f 46 110 362
f 46 44 110
f 20 5 47
f 45 5 20
f 113 45 20
f 111 45 113
f 76 114 102
f 76 102 176
f 76 176 146
f 146 176 252
f 146 252 222
f 222 252 324
f 222 324 294
f 384 112 294
f 384 294 324
f 360 384 324
f 48 360 324
f 46 384 360
f 20 47 7
f 47 115 7
f 47 49 115
f 113 20 7
f 16 116 50
f 16 50 14
f 114 16 102
f 16 74 102
f 16 14 74
f 144 176 74
f 74 176 102
f 220 252 144
f 144 252 176
f 292 324 220
f 220 324 252
f 48 324 292
f 117 49 51
f 117 115 49
f 350 118 376
f 350 376 432
f 350 432 414
f 414 432 52
f 456 414 52
f 458 414 456
f 456 50 458
f 458 50 116
f 8 117 26
f 117 53 26
f 117 51 53
f 119 8 26
f 280 120 312
f 376 118 280
f 376 280 312
f 348 376 312
f 54 348 312
f 412 432 348
f 348 432 376
f 52 432 412
f 6 26 53
f 66 119 92
f 92 119 55
f 119 26 55
f 26 6 55
f 66 92 164
f 66 164 134
f 134 164 240
f 134 240 210
f 312 120 210
f 312 210 240
f 278 312 240
f 56 278 240
f 54 312 278
f 64 92 55
f 132 164 64
f 64 164 92
f 208 240 132
f 132 240 164
f 56 240 208
f 177 195 229
f 229 195 303
f 303 195 265
f 265 178 303
f 231 179 229
f 229 179 177
f 229 305 231
f 229 303 305
f 303 178 305
f 305 178 180
f 231 196 179
f 196 231 266
f 266 231 305
f 305 180 266
f 298 279 103
f 364 349 298
f 298 349 279
f 420 413 364
f 364 413 349
f 464 457 420
f 420 457 413
f 464 104 457
f 94 75 105
f 168 145 94
f 94 145 75
f 244 221 168
f 168 221 145
f 316 293 244
f 244 293 221
f 316 106 293
f 226 209 107
f 281 298 103
f 281 103 209
f 181 281 209
f 226 181 209
f 298 281 351
f 298 351 364
f 364 351 415
f 364 415 420
f 420 415 459
f 420 459 464
f 15 104 464
f 459 15 464
f 17 15 459
f 15 17 182
f 94 15 182
f 96 94 182
f 105 15 94
f 96 183 147
f 168 96 147
f 94 96 168
f 168 147 223
f 168 223 244
f 244 223 295
f 244 295 316
f 184 380 361
f 184 361 106
f 295 184 106
f 316 295 106
f 380 108 361
f 152 133 109
f 211 226 107
f 211 107 133
f 185 211 133
f 152 185 133
f 181 226 211
f 77 96 182
f 183 96 77
f 186 382 380
f 186 380 184
f 108 380 110
f 110 380 382
f 82 65 111
f 65 82 109
f 82 152 109
f 82 154 152
f 185 152 154
f 185 154 187
f 78 188 100
f 78 100 174
f 78 174 148
f 148 174 250
f 148 250 224
f 224 250 322
f 224 322 296
f 382 186 296
f 382 296 322
f 362 382 322
f 112 362 322
f 110 382 362
f 113 84 111
f 111 84 82
f 84 189 135
f 154 84 135
f 82 84 154
f 187 154 135
f 18 190 36
f 100 188 18
f 100 18 36
f 76 100 36
f 114 76 36
f 146 174 76
f 76 174 100
f 222 250 146
f 146 250 174
f 294 322 222
f 222 322 250
f 112 322 294
f 22 7 115
f 67 84 113
f 67 113 7
f 191 67 7
f 22 191 7
f 189 84 67
f 352 192 374
f 352 374 430
f 352 430 416
f 416 430 474
f 416 474 460
f 36 190 460
f 36 460 474
f 16 36 474
f 116 16 474
f 114 36 16
f 117 24 115
f 115 24 22
f 191 22 24
f 191 24 193
f 282 194 310
f 374 192 282
f 374 282 310
f 350 374 310
f 118 350 310
f 414 430 350
f 350 430 374
f 458 474 414
f 414 474 430
f 116 474 458
f 8 24 117
f 68 193 90
f 90 193 119
f 193 24 119
f 24 8 119
f 68 90 162
f 68 162 136
f 136 162 238
f 136 238 212
f 310 194 212
f 310 212 238
f 280 310 238
f 120 280 238
f 118 310 280
f 66 90 119
f 134 162 66
f 66 162 90
f 210 238 134
f 134 238 162
f 120 238 210
f 253 197 227
f 227 197 301
f 301 197 267
f 301 267 367
f 367 267 337
f 337 254 367
f 255 121 153
f 253 227 121
f 121 227 153
f 227 195 153
f 195 177 153
f 301 265 195
f 301 195 227
f 369 178 265
f 301 369 265
f 367 369 301
f 401 425 254
f 425 367 254
f 425 369 367
f 401 256 425
f 155 257 153
f 153 257 255
f 153 177 179
f 153 179 155
f 371 180 178
f 371 178 369
f 369 427 371
f 369 425 427
f 425 256 427
f 427 256 258
f 155 122 257
f 233 259 196
f 196 259 179
f 259 122 179
f 122 155 179
f 266 307 233
f 266 233 196
f 307 266 180
f 371 307 180
f 373 307 371
f 260 373 402
f 373 427 402
f 373 371 427
f 427 258 402
f 233 198 259
f 198 233 268
f 268 233 307
f 268 307 338
f 338 307 373
f 373 260 338
f 300 281 181
f 366 351 300
f 300 351 281
f 422 415 366
f 366 415 351
f 466 459 422
f 422 459 415
f 30 17 466
f 466 17 459
f 30 182 17
f 170 147 183
f 246 223 170
f 170 223 147
f 318 295 246
f 246 295 223
f 318 184 295
f 228 211 185
f 283 300 181
f 283 181 211
f 261 283 211
f 228 261 211
f 300 283 353
f 300 353 366
f 366 353 417
f 366 417 422
f 422 417 461
f 422 461 466
f 466 461 262
f 32 466 262
f 30 466 32
f 182 30 77
f 30 98 77
f 30 32 98
f 77 98 183
f 98 170 183
f 98 172 170
f 248 170 172
f 246 170 248
f 320 246 248
f 318 246 320
f 184 318 186
f 186 318 320
f 187 230 185
f 185 230 228
f 261 228 230
f 261 230 263
f 264 34 32
f 264 32 262
f 78 98 188
f 98 34 188
f 98 32 34
f 148 172 78
f 78 172 98
f 224 248 148
f 148 248 172
f 296 320 224
f 224 320 248
f 186 320 296
f 156 135 189
f 135 156 187
f 156 230 187
f 156 232 230
f 306 284 263
f 230 306 263
f 232 306 230
f 284 306 372
f 284 372 354
f 354 372 428
f 354 428 418
f 418 428 472
f 418 472 462
f 34 264 462
f 34 462 472
f 18 34 472
f 190 18 472
f 188 34 18
f 86 67 191
f 67 86 189
f 86 156 189
f 86 158 156
f 234 156 158
f 232 156 234
f 308 232 234
f 306 232 308
f 352 372 192
f 372 308 192
f 372 306 308
f 416 428 352
f 352 428 372
f 460 472 416
f 416 472 428
f 190 472 460
f 193 88 191
f 191 88 86
f 160 86 88
f 158 86 160
f 236 158 160
f 234 158 236
f 282 308 194
f 308 236 194
f 308 234 236
f 192 308 282
f 68 88 193
f 136 160 68
f 68 160 88
f 212 236 136
f 136 236 160
f 194 236 212
f 325 199 225
f 225 199 299
f 299 199 269
f 299 269 365
f 365 269 339
f 339 326 365
f 327 123 151
f 325 225 123
f 123 225 151
f 225 197 151
f 197 253 151
f 299 267 197
f 299 197 225
f 365 337 267
f 365 267 299
f 326 403 423
f 326 423 254
f 365 326 254
f 337 365 254
f 403 328 423
f 121 255 151
f 255 327 151
f 255 329 327
f 151 253 121
f 423 401 254
f 423 328 401
f 328 256 401
f 328 330 256
f 331 255 257
f 331 329 255
f 256 332 258
f 330 332 256
f 157 333 122
f 333 257 122
f 333 331 257
f 259 157 122
f 402 429 260
f 402 258 429
f 258 334 429
f 258 332 334
f 157 124 333
f 235 335 198
f 198 335 259
f 335 124 259
f 124 157 259
f 268 309 235
f 268 235 198
f 338 375 309
f 338 309 268
f 429 404 260
f 260 404 338
f 404 336 338
f 336 375 338
f 429 334 404
f 235 200 335
f 200 235 270
f 270 235 309
f 270 309 340
f 340 309 375
f 375 336 340
f 302 283 261
f 368 353 302
f 302 353 283
f 424 417 368
f 368 417 353
f 468 461 424
f 424 461 417
f 468 262 461
f 263 304 261
f 261 304 302
f 370 302 304
f 368 302 370
f 426 368 370
f 424 368 426
f 470 424 426
f 468 424 470
f 262 468 264
f 264 468 470
f 284 304 263
f 354 370 284
f 284 370 304
f 418 426 354
f 354 426 370
f 462 470 418
f 418 470 426
f 264 470 462
f 385 201 325
f 325 201 199
f 201 269 199
f 271 269 201
f 271 339 269
f 341 339 271
f 326 339 421
f 339 405 421
f 339 341 405
f 405 386 421
f 387 137 169
f 169 137 245
f 245 137 213
f 245 213 317
f 317 213 285
f 285 388 317
f 389 125 327
f 327 125 123
f 325 123 125
f 325 125 385
f 421 403 326
f 386 449 467
f 386 467 328
f 421 386 328
f 403 421 328
f 449 390 467
f 171 391 169
f 169 391 387
f 169 247 171
f 169 245 247
f 245 319 247
f 245 317 319
f 317 388 319
f 319 388 392
f 393 57 81
f 329 81 57
f 389 329 57
f 327 329 389
f 469 330 328
f 469 328 467
f 467 390 469
f 469 390 394
f 171 138 391
f 138 171 214
f 214 171 247
f 214 247 286
f 286 247 319
f 319 392 286
f 83 395 81
f 81 395 393
f 81 329 331
f 81 331 83
f 471 332 330
f 471 330 469
f 469 394 471
f 471 394 396
f 85 397 83
f 83 397 395
f 83 331 333
f 83 333 85
f 332 471 450
f 398 332 450
f 334 332 398
f 471 396 450
f 87 399 85
f 85 399 397
f 85 333 124
f 159 85 124
f 87 85 159
f 335 159 124
f 406 400 336
f 406 336 404
f 404 334 406
f 406 334 398
f 87 58 399
f 58 87 126
f 126 87 159
f 335 200 159
f 200 126 159
f 200 202 126
f 270 202 200
f 270 272 202
f 340 272 270
f 340 342 272
f 340 336 342
f 342 336 400
f 433 139 167
f 167 139 243
f 243 139 215
f 243 215 315
f 315 215 287
f 287 434 315
f 435 203 385
f 385 203 201
f 203 271 201
f 273 271 203
f 273 341 271
f 343 341 273
f 343 405 341
f 407 405 343
f 386 405 465
f 405 451 465
f 405 407 451
f 465 451 29
f 29 451 9
f 29 9 95
f 95 9 69
f 433 167 69
f 69 167 95
f 167 137 95
f 137 387 95
f 243 213 137
f 243 137 167
f 315 285 213
f 315 213 243
f 434 355 379
f 434 379 388
f 315 434 388
f 285 315 388
f 355 436 379
f 437 127 389
f 389 127 125
f 385 125 127
f 385 127 435
f 465 449 386
f 31 390 449
f 465 31 449
f 29 31 465
f 29 97 31
f 29 95 97
f 95 387 391
f 95 391 97
f 381 392 388
f 381 388 379
f 379 436 381
f 381 436 438
f 439 59 393
f 393 59 57
f 389 57 59
f 389 59 437
f 33 394 390
f 33 390 31
f 31 99 33
f 31 97 99
f 97 391 138
f 173 97 138
f 99 97 173
f 214 249 173
f 214 173 138
f 286 321 249
f 286 249 214
f 381 356 392
f 392 356 286
f 356 440 286
f 440 321 286
f 381 438 356
f 441 393 395
f 441 439 393
f 35 396 394
f 35 394 33
f 442 35 70
f 35 99 70
f 35 33 99
f 70 99 140
f 140 99 173
f 140 173 216
f 216 173 249
f 216 249 288
f 288 249 321
f 321 440 288
f 443 1 21
f 397 21 1
f 441 397 1
f 395 397 441
f 450 473 398
f 35 10 396
f 396 10 450
f 10 444 450
f 444 473 450
f 35 442 10
f 23 445 21
f 21 445 443
f 21 397 399
f 21 399 23
f 406 431 400
f 473 452 398
f 398 452 406
f 452 446 406
f 446 431 406
f 473 444 452
f 23 2 445
f 89 447 58
f 58 447 399
f 447 2 399
f 2 23 399
f 126 161 89
f 126 89 58
f 202 237 161
f 202 161 126
f 272 311 237
f 272 237 202
f 344 448 311
f 272 344 311
f 342 344 272
f 431 408 400
f 408 342 400
f 408 344 342
f 431 446 408
f 89 60 447
f 60 89 128
f 128 89 161
f 128 161 204
f 204 161 237
f 204 237 274
f 274 237 311
f 311 448 274
f 475 141 165
f 165 141 241
f 241 141 217
f 217 476 241
f 477 275 297
f 297 275 363
f 363 275 345
f 363 345 419
f 419 345 409
f 419 409 463
f 463 409 453
f 463 453 27
f 27 453 11
f 27 11 93
f 93 11 71
f 475 165 71
f 71 165 93
f 165 139 93
f 139 433 93
f 241 215 139
f 241 139 165
f 215 241 476
f 289 215 476
f 287 215 289
f 434 287 377
f 287 357 377
f 287 289 357
f 357 478 377
f 479 129 149
f 149 129 435
f 129 203 435
f 129 205 203
f 205 477 297
f 273 205 297
f 203 205 273
f 363 343 273
f 363 273 297
f 419 407 343
f 419 343 363
f 463 451 407
f 463 407 419
f 27 9 451
f 27 451 463
f 93 69 9
f 93 9 27
f 93 433 69
f 377 355 434
f 377 478 355
f 478 436 355
f 478 480 436
f 481 61 79
f 479 149 61
f 61 149 79
f 149 127 79
f 127 437 79
f 149 435 127
f 436 482 438
f 480 482 436
f 59 439 79
f 439 481 79
f 439 483 481
f 79 437 59
f 356 383 440
f 356 438 383
f 438 484 383
f 438 482 484
f 485 3 19
f 441 19 3
f 483 441 3
f 439 441 483
f 70 101 442
f 140 175 101
f 140 101 70
f 216 251 175
f 216 175 140
f 288 323 251
f 288 251 216
f 383 358 440
f 440 358 288
f 358 486 288
f 486 323 288
f 383 484 358
f 1 443 19
f 443 485 19
f 443 487 485
f 19 441 1
f 12 488 444
f 12 444 10
f 101 72 442
f 72 10 442
f 72 12 10
f 72 101 142
f 142 101 175
f 142 175 218
f 218 175 251
f 218 251 290
f 290 251 323
f 323 486 290
f 489 443 445
f 489 487 443
f 454 490 446
f 454 446 452
f 452 444 454
f 454 444 488
f 25 491 2
f 491 445 2
f 491 489 445
f 447 25 2
f 346 492 448
f 346 448 344
f 408 346 344
f 408 410 346
f 408 446 410
f 410 446 490
f 25 4 491
f 91 493 60
f 60 493 447
f 493 4 447
f 4 25 447
f 128 163 91
f 128 91 60
f 206 494 163
f 128 206 163
f 204 206 128
f 274 206 204
f 274 276 206
f 274 448 276
f 276 448 492
f 91 62 493
f 62 91 130
f 130 91 163
f 163 494 130
f 37 143 475
f 475 143 141
f 143 217 141
f 219 217 143
f 476 217 313
f 217 291 313
f 217 219 291
f 291 38 313
f 39 277 477
f 477 277 275
f 277 345 275
f 347 345 277
f 347 409 345
f 411 409 347
f 411 453 409
f 455 453 411
f 455 11 453
f 13 11 455
f 13 71 11
f 73 71 13
f 475 71 73
f 475 73 37
f 313 289 476
f 289 313 38
f 359 289 38
f 357 289 359
f 359 40 357
f 357 40 478
f 41 131 479
f 479 131 129
f 131 205 129
f 207 205 131
f 477 205 207
f 477 207 39
f 478 42 480
f 40 42 478
f 43 63 481
f 481 63 61
f 479 61 63
f 479 63 41
f 480 44 482
f 42 44 480
f 45 481 483
f 45 43 481
f 482 46 484
f 44 46 482
f 47 5 485
f 485 5 3
f 483 3 5
f 483 5 45
f 360 48 486
f 360 486 358
f 358 484 360
f 360 484 46
f 49 485 487
f 49 47 485
f 14 50 488
f 14 488 12
f 72 14 12
f 72 74 14
f 142 74 72
f 142 144 74
f 218 144 142
f 218 220 144
f 290 220 218
f 290 292 220
f 290 486 292
f 292 486 48
f 51 487 489
f 51 49 487
f 456 52 490
f 456 490 454
f 454 488 456
f 456 488 50
f 53 489 491
f 53 51 489
f 348 54 492
f 348 492 346
f 410 348 346
f 410 412 348
f 410 490 412
f 412 490 52
f 491 4 53
f 53 4 6
f 55 6 4
f 55 4 493
f 206 239 494
f 278 56 239
f 206 278 239
f 276 278 206
f 276 492 278
f 278 492 54
f 493 62 55
f 55 62 64
f 130 64 62
f 130 132 64
f 239 208 494
f 208 130 494
f 208 132 130
f 239 56 208
