# Converted from NanoShaper .vert/.face
v -7.306000 7.440000 -4.522000
v -6.176000 7.440000 -4.522000
v -13.188000 7.440000 -4.022000
v -11.040000 7.440000 -4.022000
v -7.821000 7.440000 -4.022000
v -5.647000 7.440000 -4.022000
v -13.509000 7.440000 -3.522000
v -9.401000 7.440000 -3.522000
v -8.104000 7.440000 -3.522000
v -5.222000 7.440000 -3.522000
v -13.595000 7.440000 -3.022000
v -9.161000 7.440000 -3.022000
v -8.140000 7.440000 -3.022000
v -4.949000 7.440000 -3.022000
v -13.493000 7.440000 -2.522000
v -9.442000 7.440000 -2.522000
v -7.960000 7.440000 -2.522000
v -4.296000 7.440000 -2.522000
v -13.145000 7.440000 -2.022000
v -9.671000 7.440000 -2.022000
v -7.906000 7.440000 -2.022000
v -4.060000 7.440000 -2.022000
v -12.752000 7.440000 -1.522000
v -9.653000 7.440000 -1.522000
v -7.819000 7.440000 -1.522000
v -4.062000 7.440000 -1.522000
v -12.564000 7.440000 -1.022000
v -9.819000 7.440000 -1.022000
v -7.617000 7.440000 -1.022000
v -4.197000 7.440000 -1.022000
v -12.251000 7.440000 -0.522000
v -10.265000 7.440000 -0.522000
v -7.342000 7.440000 -0.522000
v -4.639000 7.440000 -0.522000
v -6.913000 7.440000 -0.022000
v -5.125000 7.440000 -0.022000
v -7.378000 11.440000 -8.022000
v -6.120000 11.440000 -8.022000
v -7.986000 11.440000 -7.522000
v -5.684000 11.440000 -7.522000
v -8.476000 11.440000 -7.022000
v -5.578000 11.440000 -7.022000
v -8.837000 11.440000 -6.522000
v -5.563000 11.440000 -6.522000
v -9.040000 11.440000 -6.022000
v -5.426000 11.440000 -6.022000
v -9.358000 11.440000 -5.522000
v -5.335000 11.440000 -5.522000
v -9.460000 11.440000 -5.022000
v -5.391000 11.440000 -5.022000
v -9.513000 11.440000 -4.522000
v -5.421000 11.440000 -4.522000
v -9.591000 11.440000 -4.022000
v -5.419000 11.440000 -4.022000
v -9.629000 11.440000 -3.522000
v -5.273000 11.440000 -3.522000
v -9.646000 11.440000 -3.022000
v -4.984000 11.440000 -3.022000
v -9.661000 11.440000 -2.522000
v -4.611000 11.440000 -2.522000
v -9.673000 11.440000 -2.022000
v -4.164000 11.440000 -2.022000
v -9.832000 11.440000 -1.522000
v -4.033000 11.440000 -1.522000
v -9.939000 11.440000 -1.022000
v -4.082000 11.440000 -1.022000
v -9.962000 11.440000 -0.522000
v -4.401000 11.440000 -0.522000
v -9.868000 11.440000 -0.022000
v -6.549000 11.440000 -0.022000
v -9.473000 11.440000 0.478000
v -7.151000 11.440000 0.478000
v -13.510000 7.440000 -3.519000
v -13.510000 7.440000 -2.566000
v -13.010000 7.440000 -4.172000
v -13.010000 7.440000 -1.887000
v -12.510000 7.440000 -4.393000
v -12.510000 7.440000 -0.893000
v -12.010000 7.440000 -4.410000
v -12.010000 7.440000 -0.325000
v -11.510000 7.440000 -4.239000
v -11.510000 7.440000 -0.128000
v -11.010000 7.440000 -4.009000
v -11.010000 7.440000 -0.128000
v -10.510000 7.440000 -3.814000
v -10.510000 7.440000 -0.327000
v -10.010000 7.440000 -3.687000
v -10.010000 7.440000 -0.779000
v -9.510000 7.440000 -3.595000
v -9.510000 7.440000 -2.414000
v -8.010000 7.440000 -3.722000
v -8.010000 7.440000 -2.672000
v -7.510000 7.440000 -4.382000
v -7.510000 7.440000 -0.844000
v -7.010000 7.440000 -4.634000
v -7.010000 7.440000 -0.100000
v -6.510000 7.440000 -4.643000
v -6.510000 7.440000 0.166000
v -6.010000 7.440000 -4.413000
v -6.010000 7.440000 0.186000
v -5.510000 7.440000 -3.900000
v -5.510000 7.440000 0.126000
v -5.010000 7.440000 -3.115000
v -5.010000 7.440000 -0.102000
v -4.510000 7.440000 -2.646000
v -4.510000 7.440000 -0.646000
v -9.510000 11.440000 -4.533000
v -9.510000 11.440000 0.450000
v -9.010000 11.440000 -6.076000
v -9.010000 11.440000 0.685000
v -8.510000 11.440000 -6.984000
v -8.510000 11.440000 0.685000
v -8.010000 11.440000 -7.500000
v -8.010000 11.440000 0.654000
v -7.510000 11.440000 -7.926000
v -7.510000 11.440000 0.628000
v -7.010000 11.440000 -8.176000
v -7.010000 11.440000 0.385000
v -6.510000 11.440000 -8.181000
v -6.510000 11.440000 -0.049000
v -6.010000 11.440000 -7.943000
v -6.010000 11.440000 -0.242000
v -5.510000 11.440000 -6.289000
v -5.510000 11.440000 -0.267000
v -5.010000 11.440000 -3.069000
v -5.010000 11.440000 -0.285000
v -4.510000 11.440000 -2.435000
v -4.510000 11.440000 -0.449000
v -9.010000 9.389000 -6.022000
v -9.010000 11.490000 -6.022000
v -8.510000 8.973000 -6.022000
v -8.510000 12.390000 -6.022000
v -8.010000 8.791000 -6.022000
v -8.010000 13.512000 -6.022000
v -7.510000 8.783000 -6.022000
v -7.510000 14.282000 -6.022000
v -7.010000 8.930000 -6.022000
v -7.010000 14.512000 -6.022000
v -6.510000 9.164000 -6.022000
v -6.510000 14.569000 -6.022000
v -6.010000 9.942000 -6.022000
v -6.010000 14.547000 -6.022000
v -5.510000 11.176000 -6.022000
v -5.510000 14.333000 -6.022000
v -5.010000 12.634000 -6.022000
v -5.010000 13.721000 -6.022000
v -13.010000 6.689000 -2.022000
v -13.010000 7.789000 -2.022000
v -12.510000 6.305000 -2.022000
v -12.510000 8.392000 -2.022000
v -12.010000 6.204000 -2.022000
v -12.010000 8.732000 -2.022000
v -11.510000 6.231000 -2.022000
v -11.510000 8.965000 -2.022000
v -11.010000 6.360000 -2.022000
v -11.010000 9.255000 -2.022000
v -10.510000 6.603000 -2.022000
v -10.510000 10.100000 -2.022000
v -10.010000 7.095000 -2.022000
v -10.010000 10.890000 -2.022000
v -9.510000 7.556000 -2.022000
v -9.510000 11.850000 -2.022000
v -9.010000 7.735000 -2.022000
v -9.010000 12.407000 -2.022000
v -8.510000 7.710000 -2.022000
v -8.510000 12.734000 -2.022000
v -8.010000 7.496000 -2.022000
v -8.010000 12.951000 -2.022000
v -7.510000 7.287000 -2.022000
v -7.510000 12.969000 -2.022000
v -7.010000 7.028000 -2.022000
v -7.010000 12.967000 -2.022000
v -6.510000 6.845000 -2.022000
v -6.510000 12.776000 -2.022000
v -6.010000 6.812000 -2.022000
v -6.010000 12.482000 -2.022000
v -5.510000 6.828000 -2.022000
v -5.510000 12.277000 -2.022000
v -5.010000 6.934000 -2.022000
v -5.010000 12.043000 -2.022000
v -4.510000 7.125000 -2.022000
v -4.510000 11.789000 -2.022000
v -4.010000 7.472000 -2.022000
v -4.010000 11.265000 -2.022000
v -3.510000 7.976000 -2.022000
v -3.510000 10.819000 -2.022000
v -3.010000 8.709000 -2.022000
v -3.010000 10.145000 -2.022000
v -7.945000 7.940000 -4.522000
v -5.839000 7.940000 -4.522000
v -12.906000 7.940000 -4.022000
v -5.343000 7.940000 -4.022000
v -13.313000 7.940000 -3.522000
v -4.912000 7.940000 -3.522000
v -13.412000 7.940000 -3.022000
v -4.075000 7.940000 -3.022000
v -13.294000 7.940000 -2.522000
v -3.644000 7.940000 -2.522000
v -12.918000 7.940000 -2.022000
v -3.534000 7.940000 -2.022000
v -12.675000 7.940000 -1.522000
v -3.558000 7.940000 -1.522000
v -12.551000 7.940000 -1.022000
v -3.676000 7.940000 -1.022000
v -12.234000 7.940000 -0.522000
v -9.977000 7.940000 -0.522000
v -7.971000 7.940000 -0.522000
v -4.109000 7.940000 -0.522000
v -7.468000 7.940000 -0.022000
v -4.790000 7.940000 -0.022000
v -6.812000 7.940000 0.478000
v -5.697000 7.940000 0.478000
v -7.704000 11.940000 -8.022000
v -5.793000 11.940000 -8.022000
v -8.045000 11.940000 -7.522000
v -5.464000 11.940000 -7.522000
v -8.299000 11.940000 -7.022000
v -5.369000 11.940000 -7.022000
v -8.595000 11.940000 -6.522000
v -5.364000 11.940000 -6.522000
v -8.778000 11.940000 -6.022000
v -5.316000 11.940000 -6.022000
v -8.910000 11.940000 -5.522000
v -5.301000 11.940000 -5.522000
v -9.008000 11.940000 -5.022000
v -5.367000 11.940000 -5.022000
v -9.119000 11.940000 -4.522000
v -5.426000 11.940000 -4.522000
v -9.320000 11.940000 -4.022000
v -5.492000 11.940000 -4.022000
v -9.420000 11.940000 -3.522000
v -5.437000 11.940000 -3.522000
v -9.425000 11.940000 -3.022000
v -5.215000 11.940000 -3.022000
v -9.462000 11.940000 -2.522000
v -5.051000 11.940000 -2.522000
v -9.461000 11.940000 -2.022000
v -4.790000 11.940000 -2.022000
v -9.450000 11.940000 -1.522000
v -4.543000 11.940000 -1.522000
v -9.436000 11.940000 -1.022000
v -4.709000 11.940000 -1.022000
v -9.447000 11.940000 -0.522000
v -7.064000 11.940000 -0.522000
v -9.264000 11.940000 -0.022000
v -7.422000 11.940000 -0.022000
v -13.010000 7.940000 -3.940000
v -13.010000 7.940000 -2.137000
v -12.510000 7.940000 -4.206000
v -12.510000 7.940000 -0.922000
v -12.010000 7.940000 -4.226000
v -12.010000 7.940000 -0.340000
v -11.510000 7.940000 -4.120000
v -11.510000 7.940000 -0.140000
v -11.010000 7.940000 -4.077000
v -11.010000 7.940000 -0.141000
v -10.510000 7.940000 -4.111000
v -10.510000 7.940000 -0.311000
v -10.010000 7.940000 -4.212000
v -10.010000 7.940000 -0.509000
v -9.510000 7.940000 -4.236000
v -9.510000 7.940000 -0.711000
v -9.010000 7.940000 -4.223000
v -9.010000 7.940000 -0.839000
v -8.510000 7.940000 -4.286000
v -8.510000 7.940000 -0.810000
v -8.010000 7.940000 -4.487000
v -8.010000 7.940000 -0.556000
v -7.510000 7.940000 -4.708000
v -7.510000 7.940000 -0.056000
v -7.010000 7.940000 -4.862000
v -7.010000 7.940000 0.354000
v -6.510000 7.940000 -4.843000
v -6.510000 7.940000 0.582000
v -6.010000 7.940000 -4.649000
v -6.010000 7.940000 0.572000
v -5.510000 7.940000 -4.170000
v -5.510000 7.940000 0.410000
v -5.010000 7.940000 -3.626000
v -5.010000 7.940000 0.147000
v -4.510000 7.940000 -3.228000
v -4.510000 7.940000 -0.264000
v -4.010000 7.940000 -2.977000
v -4.010000 7.940000 -0.593000
v -9.010000 11.940000 -5.006000
v -9.010000 11.940000 0.150000
v -8.510000 11.940000 -6.708000
v -8.510000 11.940000 0.148000
v -8.010000 11.940000 -7.590000
v -8.010000 11.940000 0.076000
v -7.510000 11.940000 -8.178000
v -7.510000 11.940000 0.035000
v -7.010000 11.940000 -8.383000
v -7.010000 11.940000 -0.569000
v -6.510000 11.940000 -8.387000
v -6.510000 11.940000 -0.791000
v -6.010000 11.940000 -8.193000
v -6.010000 11.940000 -0.837000
v -5.510000 11.940000 -7.629000
v -5.510000 11.940000 -0.827000
v -5.010000 11.940000 -2.412000
v -5.010000 11.940000 -0.816000
v -9.510000 9.478000 -5.522000
v -9.510000 11.170000 -5.522000
v -9.010000 9.118000 -5.522000
v -9.010000 11.818000 -5.522000
v -8.510000 8.882000 -5.522000
v -8.510000 12.412000 -5.522000
v -8.010000 8.751000 -5.522000
v -8.010000 13.792000 -5.522000
v -7.510000 8.681000 -5.522000
v -7.510000 14.395000 -5.522000
v -7.010000 8.731000 -5.522000
v -7.010000 14.606000 -5.522000
v -6.510000 8.962000 -5.522000
v -6.510000 14.619000 -5.522000
v -6.010000 9.682000 -5.522000
v -6.010000 14.471000 -5.522000
v -5.510000 10.982000 -5.522000
v -5.510000 14.220000 -5.522000
v -12.510000 6.787000 -1.522000
v -12.510000 8.300000 -1.522000
v -12.010000 6.417000 -1.522000
v -12.010000 8.839000 -1.522000
v -11.510000 6.277000 -1.522000
v -11.510000 9.056000 -1.522000
v -11.010000 6.280000 -1.522000
v -11.010000 9.376000 -1.522000
v -10.510000 6.476000 -1.522000
v -10.510000 10.339000 -1.522000
v -10.010000 7.012000 -1.522000
v -10.010000 11.088000 -1.522000
v -9.510000 7.544000 -1.522000
v -9.510000 11.860000 -1.522000
v -9.010000 7.726000 -1.522000
v -9.010000 12.381000 -1.522000
v -8.510000 7.725000 -1.522000
v -8.510000 12.594000 -1.522000
v -8.010000 7.536000 -1.522000
v -8.010000 12.687000 -1.522000
v -7.510000 7.320000 -1.522000
v -7.510000 12.652000 -1.522000
v -7.010000 6.996000 -1.522000
v -7.010000 12.613000 -1.522000
v -6.510000 6.803000 -1.522000
v -6.510000 12.431000 -1.522000
v -6.010000 6.804000 -1.522000
v -6.010000 12.227000 -1.522000
v -5.510000 6.844000 -1.522000
v -5.510000 12.157000 -1.522000
v -5.010000 6.852000 -1.522000
v -5.010000 12.107000 -1.522000
v -4.510000 7.030000 -1.522000
v -4.510000 11.921000 -1.522000
v -4.010000 7.495000 -1.522000
v -4.010000 11.410000 -1.522000
v -3.510000 7.986000 -1.522000
v -3.510000 10.915000 -1.522000
v -3.010000 8.515000 -1.522000
v -3.010000 10.353000 -1.522000
v -7.786000 8.440000 -5.022000
v -6.503000 8.440000 -5.022000
v -9.921000 8.440000 -4.522000
v -5.837000 8.440000 -4.522000
v -11.001000 8.440000 -4.022000
v -5.330000 8.440000 -4.022000
v -12.702000 8.440000 -3.522000
v -4.750000 8.440000 -3.522000
v -12.897000 8.440000 -3.022000
v -3.772000 8.440000 -3.022000
v -12.666000 8.440000 -2.522000
v -3.428000 8.440000 -2.522000
v -12.452000 8.440000 -2.022000
v -3.161000 8.440000 -2.022000
v -12.421000 8.440000 -1.522000
v -3.056000 8.440000 -1.522000
v -12.324000 8.440000 -1.022000
v -3.177000 8.440000 -1.022000
v -11.903000 8.440000 -0.522000
v -3.649000 8.440000 -0.522000
v -7.933000 8.440000 -0.022000
v -4.586000 8.440000 -0.022000
v -7.377000 8.440000 0.478000
v -5.119000 8.440000 0.478000
v -6.788000 8.440000 0.978000
v -5.659000 8.440000 0.978000
v -7.713000 12.440000 -8.022000
v -5.784000 12.440000 -8.022000
v -8.040000 12.440000 -7.522000
v -5.409000 12.440000 -7.522000
v -8.176000 12.440000 -7.022000
v -5.162000 12.440000 -7.022000
v -8.386000 12.440000 -6.522000
v -5.059000 12.440000 -6.522000
v -8.480000 12.440000 -6.022000
v -5.110000 12.440000 -6.022000
v -8.488000 12.440000 -5.522000
v -5.191000 12.440000 -5.522000
v -8.611000 12.440000 -5.022000
v -5.329000 12.440000 -5.022000
v -8.849000 12.440000 -4.522000
v -5.481000 12.440000 -4.522000
v -8.966000 12.440000 -4.022000
v -5.683000 12.440000 -4.022000
v -8.994000 12.440000 -3.522000
v -5.826000 12.440000 -3.522000
v -8.942000 12.440000 -3.022000
v -5.796000 12.440000 -3.022000
v -8.965000 12.440000 -2.522000
v -5.651000 12.440000 -2.522000
v -8.956000 12.440000 -2.022000
v -5.884000 12.440000 -2.022000
v -8.908000 12.440000 -1.522000
v -6.531000 12.440000 -1.522000
v -8.664000 12.440000 -1.022000
v -7.852000 12.440000 -1.022000
v -12.510000 8.440000 -3.660000
v -12.510000 8.440000 -2.248000
v -12.010000 8.440000 -3.739000
v -12.010000 8.440000 -0.602000
v -11.510000 8.440000 -3.840000
v -11.510000 8.440000 -0.355000
v -11.010000 8.440000 -4.018000
v -11.010000 8.440000 -0.344000
v -10.510000 8.440000 -4.240000
v -10.510000 8.440000 -0.371000
v -10.010000 8.440000 -4.476000
v -10.010000 8.440000 -0.366000
v -9.510000 8.440000 -4.702000
v -9.510000 8.440000 -0.333000
v -9.010000 8.440000 -4.743000
v -9.010000 8.440000 -0.331000
v -8.510000 8.440000 -4.777000
v -8.510000 8.440000 -0.292000
v -8.010000 8.440000 -4.891000
v -8.010000 8.440000 -0.076000
v -7.510000 8.440000 -5.107000
v -7.510000 8.440000 0.368000
v -7.010000 8.440000 -5.153000
v -7.010000 8.440000 0.785000
v -6.510000 8.440000 -5.026000
v -6.510000 8.440000 1.127000
v -6.010000 8.440000 -4.681000
v -6.010000 8.440000 1.144000
v -5.510000 8.440000 -4.178000
v -5.510000 8.440000 0.868000
v -5.010000 8.440000 -3.701000
v -5.010000 8.440000 0.384000
v -4.510000 8.440000 -3.409000
v -4.510000 8.440000 -0.072000
v -4.010000 8.440000 -3.205000
v -4.010000 8.440000 -0.327000
v -3.510000 8.440000 -2.678000
v -3.510000 8.440000 -0.615000
v -8.510000 12.440000 -5.372000
v -8.510000 12.440000 -0.931000
v -8.010000 12.440000 -7.595000
v -8.010000 12.440000 -0.929000
v -7.510000 12.440000 -8.186000
v -7.510000 12.440000 -1.230000
v -7.010000 12.440000 -8.390000
v -7.010000 12.440000 -1.376000
v -6.510000 12.440000 -8.394000
v -6.510000 12.440000 -1.535000
v -6.010000 12.440000 -8.200000
v -6.010000 12.440000 -1.930000
v -5.510000 12.440000 -7.679000
v -5.510000 12.440000 -4.455000
v -10.010000 9.657000 -5.022000
v -10.010000 10.729000 -5.022000
v -9.510000 8.967000 -5.022000
v -9.510000 11.381000 -5.022000
v -9.010000 8.738000 -5.022000
v -9.010000 11.937000 -5.022000
v -8.510000 8.641000 -5.022000
v -8.510000 12.595000 -5.022000
v -8.010000 8.542000 -5.022000
v -8.010000 13.566000 -5.022000
v -7.510000 8.360000 -5.022000
v -7.510000 14.282000 -5.022000
v -7.010000 8.263000 -5.022000
v -7.010000 14.512000 -5.022000
v -6.510000 8.433000 -5.022000
v -6.510000 14.526000 -5.022000
v -6.010000 9.558000 -5.022000
v -6.010000 14.330000 -5.022000
v -5.510000 11.084000 -5.022000
v -5.510000 13.796000 -5.022000
v -12.510000 7.228000 -1.022000
v -12.510000 8.085000 -1.022000
v -12.010000 6.569000 -1.022000
v -12.010000 8.744000 -1.022000
v -11.510000 6.360000 -1.022000
v -11.510000 8.963000 -1.022000
v -11.010000 6.361000 -1.022000
v -11.010000 9.225000 -1.022000
v -10.510000 6.571000 -1.022000
v -10.510000 10.138000 -1.022000
v -10.010000 7.182000 -1.022000
v -10.010000 11.307000 -1.022000
v -9.510000 7.691000 -1.022000
v -9.510000 11.887000 -1.022000
v -9.010000 7.837000 -1.022000
v -9.010000 12.267000 -1.022000
v -8.510000 7.830000 -1.022000
v -8.510000 12.480000 -1.022000
v -8.010000 7.644000 -1.022000
v -8.010000 12.481000 -1.022000
v -7.510000 7.381000 -1.022000
v -7.510000 12.294000 -1.022000
v -7.010000 7.018000 -1.022000
v -7.010000 12.146000 -1.022000
v -6.510000 6.801000 -1.022000
v -6.510000 12.084000 -1.022000
v -6.010000 6.785000 -1.022000
v -6.010000 12.021000 -1.022000
v -5.510000 6.826000 -1.022000
v -5.510000 12.025000 -1.022000
v -5.010000 6.948000 -1.022000
v -5.010000 12.031000 -1.022000
v -4.510000 7.153000 -1.022000
v -4.510000 11.832000 -1.022000
v -4.010000 7.620000 -1.022000
v -4.010000 11.374000 -1.022000
v -3.510000 8.114000 -1.022000
v -3.510000 10.849000 -1.022000
v -3.010000 8.743000 -1.022000
v -3.010000 10.044000 -1.022000
v -8.271000 8.940000 -6.522000
v -7.289000 8.940000 -6.522000
v -8.449000 8.940000 -6.022000
v -6.976000 8.940000 -6.022000
v -8.678000 8.940000 -5.522000
v -6.537000 8.940000 -5.522000
v -9.468000 8.940000 -5.022000
v -6.214000 8.940000 -5.022000
v -10.203000 8.940000 -4.522000
v -5.853000 8.940000 -4.522000
v -10.785000 8.940000 -4.022000
v -5.382000 8.940000 -4.022000
v -11.235000 8.940000 -3.522000
v -4.742000 8.940000 -3.522000
v -11.393000 8.940000 -3.022000
v -3.753000 8.940000 -3.022000
v -11.362000 8.940000 -2.522000
v -3.265000 8.940000 -2.522000
v -11.565000 8.940000 -2.022000
v -2.938000 8.940000 -2.022000
v -11.820000 8.940000 -1.522000
v -2.850000 8.940000 -1.522000
v -11.578000 8.940000 -1.022000
v -2.951000 8.940000 -1.022000
v -10.534000 8.940000 -0.522000
v -3.301000 8.940000 -0.522000
v -9.385000 8.940000 -0.022000
v -4.049000 8.940000 -0.022000
v -7.980000 8.940000 0.478000
v -4.676000 8.940000 0.478000
v -7.467000 8.940000 0.978000
v -5.097000 8.940000 0.978000
v -6.902000 8.940000 1.478000
v -5.579000 8.940000 1.478000
v -7.417000 12.940000 -8.022000
v -6.029000 12.940000 -8.022000
v -7.837000 12.940000 -7.522000
v -5.298000 12.940000 -7.522000
v -7.954000 12.940000 -7.022000
v -4.966000 12.940000 -7.022000
v -8.093000 12.940000 -6.522000
v -4.874000 12.940000 -6.522000
v -8.195000 12.940000 -6.022000
v -4.920000 12.940000 -6.022000
v -8.209000 12.940000 -5.522000
v -5.013000 12.940000 -5.522000
v -8.322000 12.940000 -5.022000
v -5.313000 12.940000 -5.022000
v -8.410000 12.940000 -4.522000
v -5.651000 12.940000 -4.522000
v -8.407000 12.940000 -4.022000
v -6.083000 12.940000 -4.022000
v -8.477000 12.940000 -3.522000
v -6.464000 12.940000 -3.522000
v -8.358000 12.940000 -3.022000
v -6.625000 12.940000 -3.022000
v -8.302000 12.940000 -2.522000
v -6.587000 12.940000 -2.522000
v -8.059000 12.940000 -2.022000
v -6.880000 12.940000 -2.022000
v -11.510000 8.940000 -2.121000
v -11.510000 8.940000 -0.969000
v -11.010000 8.940000 -3.803000
v -11.010000 8.940000 -0.701000
v -10.510000 8.940000 -4.249000
v -10.510000 8.940000 -0.512000
v -10.010000 8.940000 -4.685000
v -10.010000 8.940000 -0.303000
v -9.510000 8.940000 -5.001000
v -9.510000 8.940000 -0.080000
v -9.010000 8.940000 -5.260000
v -9.010000 8.940000 0.110000
v -8.510000 8.940000 -5.759000
v -8.510000 8.940000 0.184000
v -8.010000 8.940000 -6.697000
v -8.010000 8.940000 0.455000
v -7.510000 8.940000 -6.681000
v -7.510000 8.940000 0.946000
v -7.010000 8.940000 -6.058000
v -7.010000 8.940000 1.398000
v -6.510000 8.940000 -5.484000
v -6.510000 8.940000 1.645000
v -6.010000 8.940000 -4.735000
v -6.010000 8.940000 1.653000
v -5.510000 8.940000 -4.130000
v -5.510000 8.940000 1.429000
v -5.010000 8.940000 -3.684000
v -5.010000 8.940000 0.898000
v -4.510000 8.940000 -3.421000
v -4.510000 8.940000 0.293000
v -4.010000 8.940000 -3.223000
v -4.010000 8.940000 -0.049000
v -3.510000 8.940000 -2.753000
v -3.510000 8.940000 -0.365000
v -3.010000 8.940000 -2.181000
v -3.010000 8.940000 -0.896000
v -8.010000 12.940000 -6.762000
v -8.010000 12.940000 -1.992000
v -7.510000 12.940000 -7.952000
v -7.510000 12.940000 -1.952000
v -7.010000 12.940000 -8.198000
v -7.010000 12.940000 -1.960000
v -6.510000 12.940000 -8.203000
v -6.510000 12.940000 -3.430000
v -6.010000 12.940000 -8.013000
v -6.010000 12.940000 -4.089000
v -5.510000 12.940000 -7.698000
v -5.510000 12.940000 -4.747000
v -5.010000 12.940000 -7.124000
v -5.010000 12.940000 -5.531000
v -10.010000 8.533000 -4.522000
v -10.010000 10.909000 -4.522000
v -9.510000 8.216000 -4.522000
v -9.510000 11.443000 -4.522000
v -9.010000 8.169000 -4.522000
v -9.010000 12.164000 -4.522000
v -8.510000 8.148000 -4.522000
v -8.510000 12.822000 -4.522000
v -8.010000 7.983000 -4.522000
v -8.010000 13.360000 -4.522000
v -7.510000 7.633000 -4.522000
v -7.510000 13.842000 -4.522000
v -7.010000 7.289000 -4.522000
v -7.010000 14.173000 -4.522000
v -6.510000 7.279000 -4.522000
v -6.510000 14.192000 -4.522000
v -6.010000 7.602000 -4.522000
v -6.010000 13.905000 -4.522000
v -5.510000 11.068000 -4.522000
v -5.510000 12.554000 -4.522000
v -12.010000 6.974000 -0.522000
v -12.010000 8.339000 -0.522000
v -11.510000 6.675000 -0.522000
v -11.510000 8.638000 -0.522000
v -11.010000 6.675000 -0.522000
v -11.010000 8.712000 -0.522000
v -10.510000 6.978000 -0.522000
v -10.510000 8.967000 -0.522000
v -10.010000 7.906000 -0.522000
v -10.010000 11.353000 -0.522000
v -9.510000 8.152000 -0.522000
v -9.510000 11.902000 -0.522000
v -9.010000 8.203000 -0.522000
v -9.010000 12.119000 -0.522000
v -8.510000 8.161000 -0.522000
v -8.510000 12.207000 -0.522000
v -8.010000 7.965000 -0.522000
v -8.010000 12.191000 -0.522000
v -7.510000 7.575000 -0.522000
v -7.510000 12.083000 -0.522000
v -7.010000 7.117000 -0.522000
v -7.010000 11.924000 -0.522000
v -6.510000 6.884000 -0.522000
v -6.510000 11.787000 -0.522000
v -6.010000 6.867000 -0.522000
v -6.010000 11.711000 -0.522000
v -5.510000 6.920000 -0.522000
v -5.510000 11.719000 -0.522000
v -5.010000 7.118000 -0.522000
v -5.010000 11.725000 -0.522000
v -4.510000 7.593000 -0.522000
v -4.510000 11.495000 -0.522000
v -4.010000 8.031000 -0.522000
v -4.010000 11.231000 -0.522000
v -3.510000 8.567000 -0.522000
v -3.510000 10.513000 -0.522000
v -8.502000 9.440000 -7.022000
v -7.057000 9.440000 -7.022000
v -8.885000 9.440000 -6.522000
v -6.626000 9.440000 -6.522000
v -9.052000 9.440000 -6.022000
v -6.237000 9.440000 -6.022000
v -9.470000 9.440000 -5.522000
v -6.129000 9.440000 -5.522000
v -9.910000 9.440000 -5.022000
v -6.044000 9.440000 -5.022000
v -10.239000 9.440000 -4.522000
v -5.867000 9.440000 -4.522000
v -10.562000 9.440000 -4.022000
v -5.579000 9.440000 -4.022000
v -10.888000 9.440000 -3.522000
v -4.880000 9.440000 -3.522000
v -10.982000 9.440000 -3.022000
v -3.774000 9.440000 -3.022000
v -10.880000 9.440000 -2.522000
v -3.249000 9.440000 -2.522000
v -10.835000 9.440000 -2.022000
v -2.929000 9.440000 -2.022000
v -10.949000 9.440000 -1.522000
v -2.842000 9.440000 -1.522000
v -10.807000 9.440000 -1.022000
v -2.943000 9.440000 -1.022000
v -10.313000 9.440000 -0.522000
v -3.287000 9.440000 -0.522000
v -9.728000 9.440000 -0.022000
v -3.739000 9.440000 -0.022000
v -8.424000 9.440000 0.478000
v -4.397000 9.440000 0.478000
v -7.772000 9.440000 0.978000
v -4.832000 9.440000 0.978000
v -7.189000 9.440000 1.478000
v -5.292000 9.440000 1.478000
v -7.332000 13.440000 -7.522000
v -5.310000 13.440000 -7.522000
v -7.593000 13.440000 -7.022000
v -4.975000 13.440000 -7.022000
v -7.867000 13.440000 -6.522000
v -4.883000 13.440000 -6.522000
v -8.033000 13.440000 -6.022000
v -4.925000 13.440000 -6.022000
v -8.110000 13.440000 -5.522000
v -5.018000 13.440000 -5.522000
v -8.069000 13.440000 -5.022000
v -5.353000 13.440000 -5.022000
v -7.927000 13.440000 -4.522000
v -5.767000 13.440000 -4.522000
v -7.451000 13.440000 -4.022000
v -6.565000 13.440000 -4.022000
v -10.510000 9.440000 -4.097000
v -10.510000 9.440000 -0.679000
v -10.010000 9.440000 -4.874000
v -10.010000 9.440000 -0.289000
v -9.510000 9.440000 -5.493000
v -9.510000 9.440000 0.141000
v -9.010000 9.440000 -6.120000
v -9.010000 9.440000 0.335000
v -8.510000 9.440000 -7.016000
v -8.510000 9.440000 0.443000
v -8.010000 9.440000 -7.243000
v -8.010000 9.440000 0.749000
v -7.510000 9.440000 -7.234000
v -7.510000 9.440000 1.189000
v -7.010000 9.440000 -6.984000
v -7.010000 9.440000 1.621000
v -6.510000 9.440000 -6.408000
v -6.510000 9.440000 1.828000
v -6.010000 9.440000 -4.910000
v -6.010000 9.440000 1.835000
v -5.510000 9.440000 -3.938000
v -5.510000 9.440000 1.646000
v -5.010000 9.440000 -3.580000
v -5.010000 9.440000 1.149000
v -4.510000 9.440000 -3.403000
v -4.510000 9.440000 0.589000
v -4.010000 9.440000 -3.209000
v -4.010000 9.440000 0.191000
v -3.510000 9.440000 -2.747000
v -3.510000 9.440000 -0.286000
v -3.010000 9.440000 -2.200000
v -3.010000 9.440000 -0.879000
v -8.010000 13.440000 -6.112000
v -8.010000 13.440000 -4.751000
v -7.510000 13.440000 -7.247000
v -7.510000 13.440000 -4.049000
v -7.010000 13.440000 -7.768000
v -7.010000 13.440000 -3.944000
v -6.510000 13.440000 -7.903000
v -6.510000 13.440000 -4.044000
v -6.010000 13.440000 -7.877000
v -6.010000 13.440000 -4.323000
v -5.510000 13.440000 -7.679000
v -5.510000 13.440000 -4.842000
v -5.010000 13.440000 -7.104000
v -5.010000 13.440000 -5.544000
v -7.510000 11.571000 -8.022000
v -7.510000 12.843000 -8.022000
v -7.010000 11.250000 -8.022000
v -7.010000 13.164000 -8.022000
v -6.510000 11.244000 -8.022000
v -6.510000 13.215000 -8.022000
v -6.010000 11.545000 -8.022000
v -6.010000 12.915000 -8.022000
v -13.010000 6.615000 -4.022000
v -13.010000 7.823000 -4.022000
v -12.510000 6.264000 -4.022000
v -12.510000 8.174000 -4.022000
v -12.010000 6.239000 -4.022000
v -12.010000 8.202000 -4.022000
v -11.510000 6.506000 -4.022000
v -11.510000 8.163000 -4.022000
v -11.010000 7.491000 -4.022000
v -11.010000 8.425000 -4.022000
v -10.510000 7.746000 -4.022000
v -10.510000 9.549000 -4.022000
v -10.010000 7.707000 -4.022000
v -10.010000 10.801000 -4.022000
v -9.510000 7.727000 -4.022000
v -9.510000 11.589000 -4.022000
v -9.010000 7.820000 -4.022000
v -9.010000 12.376000 -4.022000
v -8.510000 7.795000 -4.022000
v -8.510000 12.868000 -4.022000
v -8.010000 7.582000 -4.022000
v -8.010000 13.208000 -4.022000
v -7.510000 7.148000 -4.022000
v -7.510000 13.423000 -4.022000
v -7.010000 6.922000 -4.022000
v -7.010000 13.513000 -4.022000
v -6.510000 6.915000 -4.022000
v -6.510000 13.408000 -4.022000
v -6.010000 7.121000 -4.022000
v -6.010000 12.863000 -4.022000
v -5.510000 7.606000 -4.022000
v -5.510000 9.263000 -4.022000
v -5.510000 10.749000 -4.022000
v -5.510000 11.996000 -4.022000
v -10.010000 10.281000 -0.022000
v -10.010000 11.149000 -0.022000
v -9.510000 9.047000 -0.022000
v -9.510000 11.807000 -0.022000
v -9.010000 8.773000 -0.022000
v -9.010000 12.015000 -0.022000
v -8.510000 8.719000 -0.022000
v -8.510000 12.015000 -0.022000
v -8.010000 8.499000 -0.022000
v -8.010000 11.982000 -0.022000
v -7.510000 7.987000 -0.022000
v -7.510000 11.963000 -0.022000
v -7.010000 7.545000 -0.022000
v -7.010000 11.730000 -0.022000
v -6.510000 7.204000 -0.022000
v -6.510000 11.424000 -0.022000
v -6.010000 7.181000 -0.022000
v -6.010000 11.267000 -0.022000
v -5.510000 7.255000 -0.022000
v -5.510000 11.218000 -0.022000
v -5.010000 7.547000 -0.022000
v -5.010000 11.168000 -0.022000
v -4.510000 8.539000 -0.022000
v -4.510000 11.088000 -0.022000
v -4.010000 8.976000 -0.022000
v -4.010000 10.749000 -0.022000
v -12.519000 5.940000 -3.522000
v -11.905000 5.940000 -3.522000
v -12.781000 5.940000 -3.022000
v -11.644000 5.940000 -3.022000
v -12.441000 5.940000 -2.522000
v -11.983000 5.940000 -2.522000
v -8.781000 9.940000 -7.022000
v -6.640000 9.940000 -7.022000
v -9.085000 9.940000 -6.522000
v -6.202000 9.940000 -6.522000
v -9.300000 9.940000 -6.022000
v -6.010000 9.940000 -6.022000
v -9.778000 9.940000 -5.522000
v -5.930000 9.940000 -5.522000
v -10.098000 9.940000 -5.022000
v -5.923000 9.940000 -5.022000
v -10.226000 9.940000 -4.522000
v -5.861000 9.940000 -4.522000
v -10.333000 9.940000 -4.022000
v -5.673000 9.940000 -4.022000
v -10.439000 9.940000 -3.522000
v -5.026000 9.940000 -3.522000
v -10.498000 9.940000 -3.022000
v -3.817000 9.940000 -3.022000
v -10.501000 9.940000 -2.522000
v -3.271000 9.940000 -2.522000
v -10.576000 9.940000 -2.022000
v -2.961000 9.940000 -2.022000
v -10.662000 9.940000 -1.522000
v -2.881000 9.940000 -1.522000
v -10.570000 9.940000 -1.022000
v -2.989000 9.940000 -1.022000
v -10.264000 9.940000 -0.522000
v -3.343000 9.940000 -0.522000
v -9.883000 9.940000 -0.022000
v -3.733000 9.940000 -0.022000
v -9.408000 9.940000 0.478000
v -4.377000 9.940000 0.478000
v -7.862000 9.940000 0.978000
v -4.851000 9.940000 0.978000
v -7.169000 9.940000 1.478000
v -5.312000 9.940000 1.478000
v -6.865000 13.940000 -7.522000
v -5.647000 13.940000 -7.522000
v -7.312000 13.940000 -7.022000
v -5.199000 13.940000 -7.022000
v -7.505000 13.940000 -6.522000
v -5.088000 13.940000 -6.522000
v -7.827000 13.940000 -6.022000
v -5.126000 13.940000 -6.022000
v -7.935000 13.940000 -5.522000
v -5.237000 13.940000 -5.522000
v -7.827000 13.940000 -5.022000
v -5.609000 13.940000 -5.022000
v -7.406000 13.940000 -4.522000
v -6.044000 13.940000 -4.522000
v -12.510000 5.940000 -3.528000
v -12.510000 5.940000 -2.558000
v -12.010000 5.940000 -3.575000
v -12.010000 5.940000 -2.511000
v -10.510000 9.940000 -2.456000
v -10.510000 9.940000 -0.889000
v -10.010000 9.940000 -5.214000
v -10.010000 9.940000 -0.189000
v -9.510000 9.940000 -5.762000
v -9.510000 9.940000 0.402000
v -9.010000 9.940000 -6.698000
v -9.010000 9.940000 0.647000
v -8.510000 9.940000 -7.243000
v -8.510000 9.940000 0.728000
v -8.010000 9.940000 -7.433000
v -8.010000 9.940000 0.904000
v -7.510000 9.940000 -7.426000
v -7.510000 9.940000 1.191000
v -7.010000 9.940000 -7.231000
v -7.010000 9.940000 1.604000
v -6.510000 9.940000 -6.926000
v -6.510000 9.940000 1.814000
v -6.010000 9.940000 -6.021000
v -6.010000 9.940000 1.821000
v -5.510000 9.940000 -3.811000
v -5.510000 9.940000 1.629000
v -5.010000 9.940000 -3.516000
v -5.010000 9.940000 1.129000
v -4.510000 9.940000 -3.392000
v -4.510000 9.940000 0.595000
v -4.010000 9.940000 -3.180000
v -4.010000 9.940000 0.195000
v -3.510000 9.940000 -2.722000
v -3.510000 9.940000 -0.315000
v -3.010000 9.940000 -2.143000
v -3.010000 9.940000 -0.974000
v -7.510000 13.940000 -6.512000
v -7.510000 13.940000 -4.601000
v -7.010000 13.940000 -7.417000
v -7.010000 13.940000 -4.346000
v -6.510000 13.940000 -7.665000
v -6.510000 13.940000 -4.331000
v -6.010000 13.940000 -7.667000
v -6.010000 13.940000 -4.546000
v -5.510000 13.940000 -7.424000
v -5.510000 13.940000 -5.146000
v -8.010000 11.599000 -7.522000
v -8.010000 12.569000 -7.522000
v -7.510000 10.594000 -7.522000
v -7.510000 13.280000 -7.522000
v -7.010000 10.668000 -7.522000
v -7.010000 13.799000 -7.522000
v -6.510000 10.836000 -7.522000
v -6.510000 14.118000 -7.522000
v -6.010000 11.123000 -7.522000
v -6.010000 14.120000 -7.522000
v -5.510000 11.774000 -7.522000
v -5.510000 13.809000 -7.522000
v -13.010000 6.173000 -3.522000
v -13.010000 8.265000 -3.522000
v -12.510000 5.938000 -3.522000
v -12.510000 8.500000 -3.522000
v -12.010000 5.919000 -3.522000
v -12.010000 8.557000 -3.522000
v -11.510000 6.107000 -3.522000
v -11.510000 8.719000 -3.522000
v -11.010000 6.668000 -3.522000
v -11.010000 9.238000 -3.522000
v -10.510000 7.192000 -3.522000
v -10.510000 9.854000 -3.522000
v -10.010000 7.357000 -3.522000
v -10.010000 10.854000 -3.522000
v -9.510000 7.411000 -3.522000
v -9.510000 11.757000 -3.522000
v -9.010000 7.557000 -3.522000
v -9.010000 12.420000 -3.522000
v -8.510000 7.580000 -3.522000
v -8.510000 12.920000 -3.522000
v -8.010000 7.386000 -3.522000
v -8.010000 13.111000 -3.522000
v -7.510000 7.016000 -3.522000
v -7.510000 13.180000 -3.522000
v -7.010000 6.811000 -3.522000
v -7.010000 13.182000 -3.522000
v -6.510000 6.804000 -3.522000
v -6.510000 12.978000 -3.522000
v -6.010000 6.926000 -3.522000
v -6.010000 12.568000 -3.522000
v -5.510000 7.151000 -3.522000
v -5.510000 12.075000 -3.522000
v -5.010000 7.764000 -3.522000
v -5.010000 9.866000 -3.522000
v -9.510000 10.037000 0.478000
v -9.510000 11.401000 0.478000
v -9.010000 9.710000 0.478000
v -9.010000 11.701000 0.478000
v -8.510000 9.510000 0.478000
v -8.510000 11.700000 0.478000
v -8.010000 8.971000 0.478000
v -8.010000 11.657000 0.478000
v -7.510000 8.548000 0.478000
v -7.510000 11.629000 0.478000
v -7.010000 8.107000 0.478000
v -7.010000 11.359000 0.478000
v -6.510000 7.813000 0.478000
v -6.510000 11.157000 0.478000
v -6.010000 7.836000 0.478000
v -6.010000 11.054000 0.478000
v -5.510000 8.034000 0.478000
v -5.510000 10.935000 0.478000
v -5.010000 8.550000 0.478000
v -5.010000 10.739000 0.478000
v -4.510000 9.184000 0.478000
v -4.510000 10.252000 0.478000
v -12.840000 6.440000 -4.022000
v -11.584000 6.440000 -4.022000
v -13.272000 6.440000 -3.522000
v -11.152000 6.440000 -3.522000
v -13.375000 6.440000 -3.022000
v -11.049000 6.440000 -3.022000
v -13.252000 6.440000 -2.522000
v -11.019000 6.440000 -2.522000
v -12.770000 6.440000 -2.022000
v -10.808000 6.440000 -2.022000
v -12.060000 6.440000 -1.522000
v -10.569000 6.440000 -1.522000
v -11.774000 6.440000 -1.022000
v -10.749000 6.440000 -1.022000
v -8.779000 10.440000 -7.022000
v -6.297000 10.440000 -7.022000
v -9.084000 10.440000 -6.522000
v -5.992000 10.440000 -6.522000
v -9.316000 10.440000 -6.022000
v -5.885000 10.440000 -6.022000
v -9.781000 10.440000 -5.522000
v -5.821000 10.440000 -5.522000
v -10.100000 10.440000 -5.022000
v -5.841000 10.440000 -5.022000
v -10.184000 10.440000 -4.522000
v -5.799000 10.440000 -4.522000
v -10.131000 10.440000 -4.022000
v -5.637000 10.440000 -4.022000
v -10.170000 10.440000 -3.522000
v -5.104000 10.440000 -3.522000
v -10.145000 10.440000 -3.022000
v -4.093000 10.440000 -3.022000
v -10.193000 10.440000 -2.522000
v -3.535000 10.440000 -2.522000
v -10.329000 10.440000 -2.022000
v -3.148000 10.440000 -2.022000
v -10.452000 10.440000 -1.522000
v -3.057000 10.440000 -1.522000
v -10.365000 10.440000 -1.022000
v -3.181000 10.440000 -1.022000
v -10.213000 10.440000 -0.522000
v -3.486000 10.440000 -0.522000
v -10.052000 10.440000 -0.022000
v -3.855000 10.440000 -0.022000
v -9.735000 10.440000 0.478000
v -4.648000 10.440000 0.478000
v -7.756000 10.440000 0.978000
v -5.164000 10.440000 0.978000
v -6.810000 10.440000 1.478000
v -5.671000 10.440000 1.478000
v -6.561000 14.440000 -7.022000
v -5.950000 14.440000 -7.022000
v -6.849000 14.440000 -6.522000
v -5.673000 14.440000 -6.522000
v -7.235000 14.440000 -6.022000
v -5.696000 14.440000 -6.022000
v -7.439000 14.440000 -5.522000
v -5.930000 14.440000 -5.522000
v -7.235000 14.440000 -5.022000
v -6.216000 14.440000 -5.022000
v -13.010000 6.440000 -3.889000
v -13.010000 6.440000 -2.196000
v -12.510000 6.440000 -4.167000
v -12.510000 6.440000 -1.885000
v -12.010000 6.440000 -4.188000
v -12.010000 6.440000 -1.452000
v -11.510000 6.440000 -3.970000
v -11.510000 6.440000 -0.842000
v -11.010000 6.440000 -2.474000
v -11.010000 6.440000 -0.843000
v -10.010000 10.440000 -5.218000
v -10.010000 10.440000 0.081000
v -9.510000 10.440000 -5.781000
v -9.510000 10.440000 0.661000
v -9.010000 10.440000 -6.696000
v -9.010000 10.440000 0.860000
v -8.510000 10.440000 -7.241000
v -8.510000 10.440000 0.872000
v -8.010000 10.440000 -7.433000
v -8.010000 10.440000 0.922000
v -7.510000 10.440000 -7.489000
v -7.510000 10.440000 1.060000
v -7.010000 10.440000 -7.401000
v -7.010000 10.440000 1.341000
v -6.510000 10.440000 -7.205000
v -6.510000 10.440000 1.596000
v -6.010000 10.440000 -6.567000
v -6.010000 10.440000 1.605000
v -5.510000 10.440000 -3.844000
v -5.510000 10.440000 1.368000
v -5.010000 10.440000 -3.471000
v -5.010000 10.440000 0.836000
v -4.510000 10.440000 -3.232000
v -4.510000 10.440000 0.377000
v -4.010000 10.440000 -2.958000
v -4.010000 10.440000 0.096000
v -3.510000 10.440000 -2.503000
v -3.510000 10.440000 -0.480000
v -7.010000 14.440000 -6.225000
v -7.010000 14.440000 -4.867000
v -6.510000 14.440000 -7.050000
v -6.510000 14.440000 -4.841000
v -6.010000 14.440000 -7.054000
v -6.010000 14.440000 -5.387000
v -8.510000 9.448000 -7.022000
v -8.510000 11.380000 -7.022000
v -8.010000 9.170000 -7.022000
v -8.010000 12.824000 -7.022000
v -7.510000 9.179000 -7.022000
v -7.510000 13.580000 -7.022000
v -7.010000 9.490000 -7.022000
v -7.010000 14.237000 -7.022000
v -6.510000 10.075000 -7.022000
v -6.510000 14.451000 -7.022000
v -6.010000 10.882000 -7.022000
v -6.010000 14.453000 -7.022000
v -5.510000 11.555000 -7.022000
v -5.510000 14.243000 -7.022000
v -5.010000 12.764000 -7.022000
v -5.010000 13.570000 -7.022000
v -13.510000 6.694000 -3.022000
v -13.510000 7.744000 -3.022000
v -13.010000 6.069000 -3.022000
v -13.010000 8.369000 -3.022000
v -12.510000 5.851000 -3.022000
v -12.510000 8.587000 -3.022000
v -12.010000 5.834000 -3.022000
v -12.010000 8.657000 -3.022000
v -11.510000 6.008000 -3.022000
v -11.510000 8.854000 -3.022000
v -11.010000 6.500000 -3.022000
v -11.010000 9.394000 -3.022000
v -10.510000 7.056000 -3.022000
v -10.510000 9.928000 -3.022000
v -10.010000 7.260000 -3.022000
v -10.010000 10.772000 -3.022000
v -9.510000 7.331000 -3.022000
v -9.510000 11.800000 -3.022000
v -9.010000 7.484000 -3.022000
v -9.010000 12.369000 -3.022000
v -8.510000 7.534000 -3.022000
v -8.510000 12.849000 -3.022000
v -8.010000 7.378000 -3.022000
v -8.010000 13.065000 -3.022000
v -7.510000 7.033000 -3.022000
v -7.510000 13.091000 -3.022000
v -7.010000 6.836000 -3.022000
v -7.010000 13.068000 -3.022000
v -6.510000 6.818000 -3.022000
v -6.510000 12.873000 -3.022000
v -6.010000 6.832000 -3.022000
v -6.010000 12.535000 -3.022000
v -5.510000 7.032000 -3.022000
v -5.510000 12.249000 -3.022000
v -5.010000 7.400000 -3.022000
v -5.010000 11.507000 -3.022000
v -4.510000 7.694000 -3.022000
v -4.510000 10.734000 -3.022000
v -4.010000 8.003000 -3.022000
v -4.010000 10.348000 -3.022000
v -7.510000 8.981000 0.978000
v -7.510000 10.674000 0.978000
v -7.010000 8.592000 0.978000
v -7.010000 10.868000 0.978000
v -6.510000 8.322000 0.978000
v -6.510000 10.938000 0.978000
v -6.010000 8.301000 0.978000
v -6.010000 10.936000 0.978000
v -5.510000 8.544000 0.978000
v -5.510000 10.733000 0.978000
v -5.010000 9.052000 0.978000
v -5.010000 10.254000 0.978000
v -13.173000 6.940000 -4.022000
v -11.250000 6.940000 -4.022000
v -7.083000 6.940000 -4.022000
v -6.399000 6.940000 -4.022000
v -13.498000 6.940000 -3.522000
v -10.812000 6.940000 -3.522000
v -7.381000 6.940000 -3.522000
v -5.959000 6.940000 -3.522000
v -13.584000 6.940000 -3.022000
v -10.659000 6.940000 -3.022000
v -7.340000 6.940000 -3.022000
v -5.679000 6.940000 -3.022000
v -13.481000 6.940000 -2.522000
v -10.487000 6.940000 -2.522000
v -7.027000 6.940000 -2.522000
v -5.477000 6.940000 -2.522000
v -13.129000 6.940000 -2.022000
v -10.157000 6.940000 -2.022000
v -6.806000 6.940000 -2.022000
v -4.975000 6.940000 -2.022000
v -12.614000 6.940000 -1.522000
v -10.058000 6.940000 -1.522000
v -6.912000 6.940000 -1.522000
v -4.692000 6.940000 -1.522000
v -12.370000 6.940000 -1.022000
v -10.153000 6.940000 -1.022000
v -6.884000 6.940000 -1.022000
v -5.038000 6.940000 -1.022000
v -11.977000 6.940000 -0.522000
v -10.546000 6.940000 -0.522000
v -6.692000 6.940000 -0.522000
v -5.416000 6.940000 -0.522000
v -7.825000 10.940000 -7.522000
v -6.310000 10.940000 -7.522000
v -8.737000 10.940000 -7.022000
v -5.967000 10.940000 -7.022000
v -9.055000 10.940000 -6.522000
v -5.852000 10.940000 -6.522000
v -9.288000 10.940000 -6.022000
v -5.643000 10.940000 -6.022000
v -9.601000 10.940000 -5.522000
v -5.536000 10.940000 -5.522000
v -9.892000 10.940000 -5.022000
v -5.591000 10.940000 -5.022000
v -9.991000 10.940000 -4.522000
v -5.565000 10.940000 -4.522000
v -9.938000 10.940000 -4.022000
v -5.453000 10.940000 -4.022000
v -9.959000 10.940000 -3.522000
v -5.208000 10.940000 -3.522000
v -9.910000 10.940000 -3.022000
v -4.707000 10.940000 -3.022000
v -9.960000 10.940000 -2.522000
v -4.097000 10.940000 -2.522000
v -9.978000 10.940000 -2.022000
v -3.665000 10.940000 -2.022000
v -10.091000 10.940000 -1.522000
v -3.543000 10.940000 -1.522000
v -10.133000 10.940000 -1.022000
v -3.583000 10.940000 -1.022000
v -10.144000 10.940000 -0.522000
v -3.717000 10.940000 -0.522000
v -10.063000 10.940000 -0.022000
v -4.204000 10.940000 -0.022000
v -9.750000 10.940000 0.478000
v -5.526000 10.940000 0.478000
v -13.510000 6.940000 -3.488000
v -13.510000 6.940000 -2.598000
v -13.010000 6.940000 -4.159000
v -13.010000 6.940000 -1.926000
v -12.510000 6.940000 -4.382000
v -12.510000 6.940000 -1.354000
v -12.010000 6.940000 -4.400000
v -12.010000 6.940000 -0.547000
v -11.510000 6.940000 -4.221000
v -11.510000 6.940000 -0.312000
v -11.010000 6.940000 -3.781000
v -11.010000 6.940000 -0.312000
v -10.510000 6.940000 -2.556000
v -10.510000 6.940000 -0.549000
v -7.010000 6.940000 -4.062000
v -7.010000 6.940000 -2.507000
v -6.510000 6.940000 -4.078000
v -6.510000 6.940000 -0.391000
v -6.010000 6.940000 -3.564000
v -6.010000 6.940000 -0.355000
v -5.510000 6.940000 -2.565000
v -5.510000 6.940000 -0.474000
v -5.010000 6.940000 -2.040000
v -5.010000 6.940000 -1.049000
v -10.010000 10.940000 -1.793000
v -10.010000 10.940000 0.106000
v -9.510000 10.940000 -5.690000
v -9.510000 10.940000 0.674000
v -9.010000 10.940000 -6.631000
v -9.010000 10.940000 0.871000
v -8.510000 10.940000 -7.206000
v -8.510000 10.940000 0.874000
v -8.010000 10.940000 -7.451000
v -8.010000 10.940000 0.861000
v -7.510000 10.940000 -7.635000
v -7.510000 10.940000 0.877000
v -7.010000 10.940000 -7.725000
v -7.010000 10.940000 0.911000
v -6.510000 10.940000 -7.641000
v -6.510000 10.940000 0.975000
v -6.010000 10.940000 -7.127000
v -6.010000 10.940000 0.969000
v -5.510000 10.940000 -4.258000
v -5.510000 10.940000 0.467000
v -5.010000 10.940000 -3.293000
v -5.010000 10.940000 0.218000
v -4.510000 10.940000 -2.858000
v -4.510000 10.940000 0.092000
v -4.010000 10.940000 -2.456000
v -4.010000 10.940000 -0.154000
v -9.010000 9.678000 -6.522000
v -9.010000 11.105000 -6.522000
v -8.510000 9.065000 -6.522000
v -8.510000 12.212000 -6.522000
v -8.010000 8.866000 -6.522000
v -8.010000 13.182000 -6.522000
v -7.510000 8.874000 -6.522000
v -7.510000 13.933000 -6.522000
v -7.010000 9.092000 -6.522000
v -7.010000 14.363000 -6.522000
v -6.510000 9.571000 -6.522000
v -6.510000 14.544000 -6.522000
v -6.010000 10.359000 -6.522000
v -6.010000 14.545000 -6.522000
v -5.510000 11.547000 -6.522000
v -5.510000 14.352000 -6.522000
v -5.010000 12.528000 -6.522000
v -5.010000 13.806000 -6.522000
v -13.010000 6.193000 -2.522000
v -13.010000 8.245000 -2.522000
v -12.510000 5.954000 -2.522000
v -12.510000 8.502000 -2.522000
v -12.010000 5.936000 -2.522000
v -12.010000 8.636000 -2.522000
v -11.510000 6.116000 -2.522000
v -11.510000 8.831000 -2.522000
v -11.010000 6.447000 -2.522000
v -11.010000 9.298000 -2.522000
v -10.510000 6.923000 -2.522000
v -10.510000 9.930000 -2.522000
v -10.010000 7.183000 -2.522000
v -10.010000 10.862000 -2.522000
v -9.510000 7.409000 -2.522000
v -9.510000 11.852000 -2.522000
v -9.010000 7.585000 -2.522000
v -9.010000 12.408000 -2.522000
v -8.510000 7.610000 -2.522000
v -8.510000 12.828000 -2.522000
v -8.010000 7.464000 -2.522000
v -8.010000 13.031000 -2.522000
v -7.510000 7.154000 -2.522000
v -7.510000 13.062000 -2.522000
v -7.010000 6.935000 -2.522000
v -7.010000 13.073000 -2.522000
v -6.510000 6.821000 -2.522000
v -6.510000 12.899000 -2.522000
v -6.010000 6.803000 -2.522000
v -6.010000 12.585000 -2.522000
v -5.510000 6.928000 -2.522000
v -5.510000 12.358000 -2.522000
v -5.010000 7.171000 -2.522000
v -5.010000 11.897000 -2.522000
v -4.510000 7.378000 -2.522000
v -4.510000 11.310000 -2.522000
v -4.010000 7.581000 -2.522000
v -4.010000 10.862000 -2.522000
v -3.510000 8.192000 -2.522000
v -3.510000 10.414000 -2.522000
v -7.010000 9.058000 1.478000
v -7.010000 10.247000 1.478000
v -6.510000 8.718000 1.478000
v -6.510000 10.586000 1.478000
v -6.010000 8.708000 1.478000
v -6.010000 10.597000 1.478000
v -5.510000 9.011000 1.478000
v -5.510000 10.293000 1.478000
f 303 873 925
f 925 873 1103
f 1103 873 1051
f 1103 1051 1295
f 1295 1051 1243
f 1243 304 1295
f 305 701 129
f 129 701 699
f 701 303 925
f 871 701 925
f 699 701 871
f 1103 1049 871
f 1103 871 925
f 1295 1241 1049
f 1295 1049 1103
f 1241 1295 304
f 47 1241 304
f 45 1241 47
f 47 306 45
f 45 306 130
f 307 533 601
f 131 601 533
f 305 131 533
f 129 131 305
f 221 130 306
f 221 306 223
f 223 308 221
f 221 308 132
f 531 133 601
f 133 307 601
f 133 309 307
f 601 131 531
f 395 132 308
f 395 308 397
f 397 571 395
f 573 571 397
f 573 737 571
f 739 737 573
f 739 310 737
f 737 310 134
f 311 133 135
f 311 309 133
f 909 134 310
f 909 310 911
f 911 312 909
f 909 312 136
f 313 135 137
f 313 311 135
f 1085 136 312
f 1085 312 1087
f 1087 314 1085
f 1085 314 138
f 137 532 313
f 313 532 534
f 315 534 532
f 315 532 139
f 138 316 140
f 314 316 138
f 139 700 315
f 315 700 702
f 872 939 317
f 702 872 317
f 700 872 702
f 141 939 872
f 140 318 142
f 316 318 140
f 939 874 317
f 141 1050 939
f 1050 874 939
f 1050 1052 874
f 1242 1052 1050
f 1242 1244 1052
f 319 1244 1242
f 319 1242 143
f 1088 320 144
f 1088 144 1086
f 1086 142 1088
f 1088 142 318
f 143 46 319
f 319 46 48
f 222 48 46
f 222 224 48
f 396 224 222
f 396 398 224
f 396 145 638
f 574 396 638
f 398 396 574
f 574 638 792
f 574 792 740
f 740 792 146
f 910 740 146
f 912 740 910
f 910 144 912
f 912 144 320
f 572 638 145
f 738 792 572
f 572 792 638
f 146 792 738
f 1272 1219 147
f 76 19 1272
f 1272 19 1219
f 76 148 19
f 1094 1039 149
f 1223 1272 147
f 1223 147 1039
f 321 1223 1039
f 1094 321 1039
f 1272 1223 23
f 1272 23 76
f 199 148 76
f 23 199 76
f 201 199 23
f 201 322 199
f 199 322 150
f 1094 149 1041
f 149 323 1041
f 149 151 323
f 321 1094 1041
f 373 150 322
f 373 322 375
f 375 324 373
f 373 324 152
f 325 151 153
f 325 323 151
f 547 152 324
f 547 324 549
f 549 326 547
f 547 326 154
f 327 153 155
f 327 325 153
f 154 328 156
f 326 328 154
f 155 1040 327
f 327 1040 1042
f 329 1042 1040
f 329 1040 157
f 715 156 328
f 715 328 717
f 717 887 715
f 889 887 717
f 889 330 887
f 887 330 158
f 157 1220 329
f 329 1220 1224
f 331 1224 1220
f 331 1220 159
f 1065 158 330
f 1065 330 1067
f 160 1065 1293
f 1065 1259 1293
f 1065 1067 1259
f 1259 332 1293
f 159 20 331
f 331 20 24
f 333 24 20
f 333 20 161
f 1293 1257 160
f 1257 1293 332
f 63 1257 332
f 61 1257 63
f 63 334 61
f 61 334 162
f 335 161 163
f 335 333 161
f 237 162 334
f 237 334 239
f 239 336 237
f 237 336 164
f 337 163 165
f 337 335 163
f 411 164 336
f 411 336 413
f 413 338 411
f 411 338 166
f 339 165 167
f 339 337 165
f 340 626 587
f 166 340 587
f 338 340 166
f 626 168 587
f 341 25 169
f 169 25 21
f 167 21 25
f 167 25 339
f 342 628 626
f 342 626 340
f 168 626 170
f 170 626 628
f 343 169 171
f 343 341 169
f 344 630 628
f 344 628 342
f 170 628 172
f 172 628 630
f 345 1225 173
f 173 1225 1221
f 171 1221 1225
f 171 1225 343
f 414 346 464
f 630 344 414
f 630 414 464
f 588 630 464
f 174 588 464
f 172 630 588
f 347 173 175
f 347 345 173
f 348 466 464
f 348 464 346
f 174 464 176
f 176 464 466
f 349 175 177
f 349 347 175
f 178 412 466
f 348 178 466
f 350 178 348
f 176 466 412
f 351 177 179
f 351 349 177
f 178 352 180
f 350 352 178
f 179 1222 351
f 351 1222 1226
f 353 1226 1222
f 353 1222 181
f 240 354 182
f 240 182 238
f 238 180 240
f 240 180 352
f 181 22 353
f 353 22 26
f 355 26 22
f 355 22 183
f 64 356 184
f 64 184 62
f 62 182 64
f 64 182 354
f 183 200 355
f 355 200 202
f 357 202 200
f 357 200 185
f 1260 358 186
f 1260 186 1258
f 1258 184 1260
f 1260 184 356
f 185 374 357
f 357 374 376
f 359 376 374
f 359 374 187
f 1068 360 188
f 1068 188 1066
f 1066 186 1068
f 1068 186 358
f 187 548 359
f 359 548 550
f 716 550 548
f 716 718 550
f 888 718 716
f 888 890 718
f 888 188 890
f 890 188 360
f 469 875 923
f 923 875 1101
f 1101 875 1053
f 1053 470 1101
f 471 703 751
f 469 923 703
f 703 923 751
f 923 873 751
f 873 303 751
f 1101 1051 873
f 1101 873 923
f 1051 1101 470
f 1245 1051 470
f 1243 1051 1245
f 1245 472 1243
f 1243 472 304
f 473 535 599
f 471 751 535
f 535 751 599
f 751 701 599
f 701 305 599
f 751 303 701
f 47 304 472
f 47 472 49
f 49 474 47
f 47 474 306
f 533 307 599
f 307 473 599
f 307 475 473
f 599 305 533
f 223 306 474
f 223 474 225
f 308 223 455
f 223 399 455
f 223 225 399
f 399 476 455
f 477 307 309
f 477 475 307
f 455 397 308
f 397 455 476
f 575 397 476
f 573 397 575
f 575 739 573
f 741 739 575
f 741 478 739
f 739 478 310
f 479 361 437
f 311 437 361
f 477 311 361
f 309 311 477
f 911 310 478
f 911 478 913
f 913 480 911
f 911 480 312
f 439 481 437
f 437 481 479
f 437 311 313
f 437 313 439
f 1087 312 480
f 1087 480 1089
f 1089 482 1087
f 1087 482 314
f 441 483 439
f 439 483 481
f 439 313 534
f 609 439 534
f 441 439 609
f 315 609 534
f 314 484 316
f 482 484 314
f 441 362 483
f 362 441 536
f 536 441 609
f 315 702 609
f 702 536 609
f 702 704 536
f 485 704 702
f 485 702 317
f 1090 486 1134
f 1134 318 1090
f 318 484 1090
f 318 316 484
f 317 874 485
f 485 874 876
f 1052 876 874
f 1052 1054 876
f 1244 1054 1052
f 1244 1246 1054
f 487 1246 1244
f 487 1244 319
f 914 488 962
f 1134 486 914
f 1134 914 962
f 1088 1134 962
f 320 1088 962
f 318 1134 1088
f 319 48 487
f 487 48 50
f 224 50 48
f 224 226 50
f 398 226 224
f 398 400 226
f 574 400 398
f 574 576 400
f 740 576 574
f 740 742 576
f 488 742 962
f 742 912 962
f 742 740 912
f 320 962 912
f 1274 1223 321
f 489 27 1274
f 27 1223 1274
f 27 23 1223
f 27 201 23
f 203 201 27
f 203 490 201
f 201 490 322
f 1096 1041 323
f 1227 1274 321
f 1227 321 1041
f 491 1227 1041
f 1096 491 1041
f 489 1274 1227
f 375 322 490
f 375 490 377
f 377 492 375
f 375 492 324
f 1096 323 1043
f 323 493 1043
f 323 325 493
f 491 1096 1043
f 549 324 492
f 549 492 551
f 551 494 549
f 549 494 326
f 495 325 327
f 495 493 325
f 326 496 328
f 494 496 326
f 327 1042 495
f 495 1042 1044
f 497 1044 1042
f 497 1042 329
f 717 328 496
f 717 496 719
f 719 889 717
f 891 889 719
f 891 498 889
f 889 498 330
f 329 1224 497
f 497 1224 1228
f 499 1228 1224
f 499 1224 331
f 1067 330 498
f 1067 498 1069
f 1069 1259 1067
f 1261 1259 1069
f 1261 500 1259
f 1259 500 332
f 331 24 499
f 499 24 28
f 501 28 24
f 501 24 333
f 63 332 500
f 63 500 65
f 65 502 63
f 63 502 334
f 503 333 335
f 503 501 333
f 239 334 502
f 239 502 241
f 241 504 239
f 239 504 336
f 505 335 337
f 505 503 335
f 413 336 504
f 413 504 415
f 415 506 413
f 413 506 338
f 507 337 339
f 507 505 337
f 338 508 340
f 506 508 338
f 509 29 341
f 341 29 25
f 339 25 29
f 339 29 507
f 416 510 460
f 460 342 416
f 342 508 416
f 342 340 508
f 511 341 343
f 511 509 341
f 512 462 460
f 512 460 510
f 342 460 344
f 344 460 462
f 513 1229 345
f 345 1229 1225
f 343 1225 1229
f 343 1229 511
f 346 414 462
f 512 346 462
f 514 346 512
f 344 462 414
f 515 345 347
f 515 513 345
f 346 516 348
f 514 516 346
f 517 347 349
f 517 515 347
f 348 518 350
f 516 518 348
f 1230 517 1292
f 517 351 1292
f 517 349 351
f 519 1230 1292
f 350 520 352
f 518 520 350
f 1226 1292 351
f 519 1292 1226
f 353 519 1226
f 521 519 353
f 242 522 354
f 242 354 240
f 240 352 242
f 242 352 520
f 353 26 521
f 521 26 30
f 523 30 26
f 523 26 355
f 66 524 356
f 66 356 64
f 64 354 66
f 66 354 522
f 355 202 523
f 523 202 204
f 525 204 202
f 525 202 357
f 1262 526 358
f 1262 358 1260
f 1260 356 1262
f 1262 356 524
f 357 376 525
f 525 376 378
f 527 378 376
f 527 376 359
f 1070 528 360
f 1070 360 1068
f 1068 358 1070
f 1070 358 526
f 359 550 527
f 527 550 552
f 718 552 550
f 718 720 552
f 890 720 718
f 890 892 720
f 890 360 892
f 892 360 528
f 639 537 595
f 595 537 749
f 749 537 705
f 749 705 469
f 705 875 469
f 705 877 875
f 877 1053 875
f 1055 1053 877
f 1055 640 1053
f 1053 640 470
f 641 363 429
f 639 595 363
f 595 429 363
f 595 597 429
f 749 703 471
f 597 749 471
f 595 749 597
f 749 469 703
f 1245 470 640
f 1245 640 1247
f 472 1245 107
f 1245 51 107
f 1245 1247 51
f 51 642 107
f 431 643 429
f 429 643 641
f 597 535 473
f 431 597 473
f 429 597 431
f 597 471 535
f 107 49 472
f 642 227 285
f 642 285 474
f 107 642 474
f 49 107 474
f 227 644 285
f 433 645 431
f 431 645 643
f 431 473 475
f 431 475 433
f 285 225 474
f 225 285 644
f 401 225 644
f 399 225 401
f 401 646 399
f 399 646 476
f 435 647 433
f 433 647 645
f 433 475 477
f 433 477 435
f 575 476 646
f 575 646 577
f 780 741 648
f 741 577 648
f 741 575 577
f 780 478 741
f 649 189 269
f 647 435 189
f 189 435 269
f 435 361 269
f 361 479 269
f 435 477 361
f 743 780 648
f 650 954 913
f 650 913 478
f 743 650 478
f 780 743 478
f 954 480 913
f 651 1 95
f 649 269 1
f 269 95 1
f 269 271 95
f 269 479 481
f 269 481 271
f 915 954 650
f 652 1130 1089
f 652 1089 480
f 915 652 480
f 954 915 480
f 1130 482 1089
f 97 653 95
f 95 653 651
f 95 273 97
f 95 271 273
f 271 481 483
f 271 483 273
f 654 1132 1130
f 654 1130 652
f 482 1130 484
f 484 1130 1132
f 97 2 653
f 2 97 655
f 97 275 655
f 97 273 275
f 273 483 362
f 443 273 362
f 275 273 443
f 536 611 443
f 536 443 362
f 704 765 611
f 704 611 536
f 485 765 704
f 916 656 960
f 1132 654 916
f 1132 916 960
f 1090 1132 960
f 486 1090 960
f 484 1132 1090
f 275 190 655
f 190 275 364
f 364 275 443
f 364 443 538
f 538 443 611
f 538 611 706
f 706 611 765
f 485 876 765
f 876 706 765
f 876 878 706
f 1054 878 876
f 1054 1056 878
f 1246 1056 1054
f 1246 1248 1056
f 657 1248 1246
f 657 1246 487
f 578 658 636
f 578 636 790
f 578 790 744
f 960 656 744
f 960 744 790
f 914 960 790
f 488 914 790
f 486 960 914
f 487 50 657
f 657 50 52
f 226 52 50
f 226 228 52
f 400 228 226
f 400 402 228
f 658 402 636
f 402 576 636
f 402 400 576
f 742 790 576
f 576 790 636
f 488 790 742
f 78 27 489
f 250 203 78
f 78 203 27
f 250 490 203
f 1276 1227 491
f 31 78 489
f 31 489 1227
f 659 31 1227
f 1276 659 1227
f 78 31 205
f 78 205 250
f 660 420 377
f 660 377 490
f 205 660 490
f 250 205 490
f 420 492 377
f 1098 1043 493
f 1231 1276 491
f 1231 491 1043
f 661 1231 1043
f 1098 661 1043
f 659 1276 1231
f 379 420 660
f 662 590 551
f 662 551 492
f 379 662 492
f 420 379 492
f 590 494 551
f 495 1100 493
f 493 1100 1098
f 661 1098 1100
f 661 1100 663
f 664 592 590
f 664 590 662
f 494 590 496
f 496 590 592
f 1044 1100 495
f 1232 663 1282
f 1282 663 497
f 663 1100 497
f 1100 1044 497
f 665 1232 1282
f 553 592 664
f 666 748 719
f 666 719 496
f 553 666 496
f 592 553 496
f 922 891 748
f 748 891 719
f 922 498 891
f 1228 1282 497
f 32 665 88
f 88 665 499
f 665 1282 499
f 1282 1228 499
f 667 32 88
f 721 748 666
f 748 721 893
f 748 893 922
f 1069 498 922
f 893 1069 922
f 1071 1069 893
f 1071 1261 1069
f 1263 1261 1071
f 1263 668 1261
f 1261 668 500
f 28 88 499
f 206 667 262
f 262 667 501
f 667 88 501
f 88 28 501
f 669 206 262
f 65 500 668
f 65 668 67
f 67 670 65
f 65 670 502
f 503 264 501
f 501 264 262
f 669 262 264
f 669 264 671
f 241 502 670
f 241 670 243
f 243 672 241
f 241 672 504
f 505 266 503
f 503 266 264
f 671 264 266
f 671 266 673
f 674 456 415
f 504 674 415
f 672 674 504
f 456 506 415
f 507 268 505
f 505 268 266
f 673 266 268
f 673 268 675
f 676 458 456
f 676 456 674
f 506 456 508
f 508 456 458
f 94 29 509
f 207 268 507
f 207 507 29
f 677 207 29
f 94 677 29
f 675 268 207
f 510 416 458
f 676 510 458
f 678 510 676
f 508 458 416
f 94 509 33
f 509 679 33
f 509 511 679
f 677 94 33
f 244 680 294
f 294 512 244
f 512 678 244
f 512 510 678
f 681 1233 513
f 513 1233 1229
f 511 1229 1233
f 511 1233 679
f 682 296 294
f 682 294 680
f 512 294 514
f 514 294 296
f 683 513 515
f 683 681 513
f 684 298 296
f 684 296 682
f 514 296 516
f 516 296 298
f 685 515 517
f 685 683 515
f 686 300 298
f 686 298 684
f 516 298 518
f 518 298 300
f 517 1230 685
f 685 1230 1234
f 687 1234 1230
f 687 1230 519
f 688 302 300
f 688 300 686
f 518 300 520
f 520 300 302
f 34 687 106
f 687 521 106
f 687 519 521
f 689 34 106
f 522 242 302
f 688 522 302
f 690 522 688
f 520 302 242
f 30 106 521
f 208 689 284
f 284 689 523
f 689 106 523
f 106 30 523
f 691 208 284
f 68 692 524
f 68 524 66
f 66 522 68
f 68 522 690
f 204 284 523
f 380 691 454
f 454 691 525
f 691 284 525
f 284 204 525
f 693 380 454
f 1264 694 526
f 1264 526 1262
f 1262 524 1264
f 1264 524 692
f 378 454 525
f 554 693 624
f 624 693 527
f 693 454 527
f 454 378 527
f 554 624 778
f 554 778 722
f 722 778 952
f 722 952 894
f 894 952 528
f 1070 894 528
f 1072 894 1070
f 1070 526 1072
f 1072 526 694
f 552 624 527
f 720 778 552
f 552 778 624
f 892 952 720
f 720 952 778
f 528 952 892
f 793 213 291
f 291 213 459
f 459 213 387
f 387 794 459
f 795 37 117
f 793 291 37
f 291 117 37
f 291 293 117
f 291 461 293
f 291 459 461
f 563 629 794
f 629 459 794
f 629 461 459
f 563 796 629
f 119 797 117
f 117 797 795
f 117 295 119
f 117 293 295
f 293 463 295
f 293 461 463
f 461 631 463
f 461 629 631
f 629 796 631
f 631 796 798
f 119 38 797
f 38 119 799
f 119 297 799
f 119 295 297
f 295 465 297
f 295 463 465
f 800 465 564
f 465 631 564
f 465 463 631
f 631 798 564
f 297 214 799
f 214 297 388
f 388 297 465
f 465 800 388
f 801 1203 1271
f 1271 1203 75
f 75 1203 3
f 3 802 75
f 803 1031 1093
f 801 1271 1031
f 1271 1093 1031
f 1271 1273 1093
f 1271 77 1273
f 1271 75 77
f 191 249 802
f 249 75 802
f 249 77 75
f 191 804 249
f 1095 805 1093
f 1093 805 803
f 1093 1275 1095
f 1093 1273 1275
f 1273 79 1275
f 1273 77 79
f 77 251 79
f 77 249 251
f 249 804 251
f 251 804 806
f 1095 1032 805
f 1032 1095 807
f 1095 1277 807
f 1095 1275 1277
f 1275 81 1277
f 1275 79 81
f 79 253 81
f 79 251 253
f 251 806 253
f 253 806 808
f 1277 1204 807
f 1204 1277 4
f 4 1277 81
f 4 81 809
f 81 255 809
f 81 253 255
f 253 808 255
f 255 808 810
f 257 811 255
f 255 811 809
f 365 425 810
f 425 255 810
f 425 257 255
f 425 365 593
f 593 365 539
f 593 539 747
f 747 539 707
f 707 812 747
f 259 813 257
f 257 813 811
f 257 427 259
f 257 425 427
f 593 537 639
f 427 593 639
f 425 593 427
f 747 705 537
f 747 537 593
f 705 747 812
f 879 705 812
f 877 705 879
f 879 1055 877
f 1057 1055 879
f 1057 814 1055
f 1055 814 640
f 261 815 259
f 259 815 813
f 427 363 641
f 261 427 641
f 259 427 261
f 427 639 363
f 1247 640 814
f 1247 814 1249
f 1249 51 1247
f 53 51 1249
f 53 816 51
f 51 816 642
f 263 817 261
f 261 817 815
f 261 641 643
f 261 643 263
f 227 642 816
f 227 816 229
f 229 818 227
f 227 818 644
f 265 819 263
f 263 819 817
f 263 643 645
f 263 645 265
f 401 644 818
f 401 818 403
f 403 820 401
f 401 820 646
f 267 821 265
f 265 821 819
f 265 645 647
f 265 647 267
f 577 646 820
f 577 820 579
f 579 822 577
f 577 822 648
f 823 5 93
f 821 267 5
f 5 267 93
f 267 189 93
f 189 649 93
f 267 647 189
f 824 782 743
f 648 824 743
f 822 824 648
f 782 650 743
f 825 1205 1283
f 823 93 1205
f 1205 93 1283
f 93 1 1283
f 1 651 1283
f 93 649 1
f 745 782 824
f 826 956 915
f 826 915 650
f 745 826 650
f 782 745 650
f 956 652 915
f 1285 827 1283
f 1283 827 825
f 1283 651 653
f 1283 653 1285
f 746 828 786
f 956 826 746
f 786 956 746
f 958 956 786
f 652 956 654
f 654 956 958
f 1285 1206 827
f 99 829 2
f 2 829 653
f 829 1206 653
f 1206 1285 653
f 655 99 2
f 580 830 634
f 786 828 580
f 634 786 580
f 788 786 634
f 916 958 656
f 958 788 656
f 958 786 788
f 654 958 916
f 99 6 829
f 277 831 190
f 190 831 655
f 831 6 655
f 6 99 655
f 364 445 277
f 364 277 190
f 538 613 445
f 538 445 364
f 708 832 613
f 538 708 613
f 706 708 538
f 878 708 706
f 878 880 708
f 1056 880 878
f 1056 1058 880
f 1248 1311 833
f 1058 1248 833
f 1056 1248 1058
f 657 1311 1248
f 404 834 468
f 634 830 404
f 634 404 468
f 578 634 468
f 658 578 468
f 744 788 578
f 578 788 634
f 656 788 744
f 277 192 831
f 192 277 366
f 366 277 445
f 366 445 540
f 540 445 613
f 613 832 540
f 1311 1250 833
f 657 52 1311
f 52 1250 1311
f 52 54 1250
f 228 54 52
f 228 230 54
f 834 230 468
f 230 402 468
f 230 228 402
f 658 468 402
f 80 31 659
f 252 205 80
f 80 205 31
f 252 660 205
f 1278 1231 661
f 1231 1278 659
f 1278 80 659
f 1278 82 80
f 254 80 82
f 252 80 254
f 660 252 379
f 252 422 379
f 252 254 422
f 422 662 379
f 663 1280 661
f 661 1280 1278
f 84 1278 1280
f 82 1278 84
f 256 82 84
f 254 82 256
f 424 254 256
f 422 254 424
f 662 422 664
f 664 422 424
f 1232 1280 663
f 665 86 1232
f 86 1280 1232
f 86 84 1280
f 258 84 86
f 256 84 258
f 426 256 258
f 424 256 426
f 664 424 553
f 424 594 553
f 424 426 594
f 594 666 553
f 32 86 665
f 667 260 32
f 260 86 32
f 260 258 86
f 428 258 260
f 426 258 428
f 596 426 428
f 594 426 596
f 666 594 721
f 594 750 721
f 594 596 750
f 924 893 750
f 750 893 721
f 835 1073 924
f 1073 893 924
f 1073 1071 893
f 1073 1263 1071
f 1265 1263 1073
f 1265 836 1263
f 1263 836 668
f 206 260 667
f 669 430 206
f 430 260 206
f 430 428 260
f 598 428 430
f 596 428 598
f 598 837 723
f 750 598 723
f 596 598 750
f 750 723 895
f 750 895 924
f 835 924 895
f 67 668 836
f 67 836 69
f 69 838 67
f 67 838 670
f 671 432 669
f 669 432 430
f 432 839 555
f 598 432 555
f 430 432 598
f 837 598 555
f 243 670 838
f 243 838 245
f 245 840 243
f 243 840 672
f 673 434 671
f 671 434 432
f 839 432 434
f 839 434 841
f 672 842 674
f 840 842 672
f 675 436 673
f 673 436 434
f 841 434 436
f 841 436 843
f 674 844 676
f 842 844 674
f 270 207 677
f 381 436 675
f 381 675 207
f 845 381 207
f 270 845 207
f 843 436 381
f 676 846 678
f 844 846 676
f 96 33 679
f 209 270 677
f 209 677 33
f 847 209 33
f 96 847 33
f 845 270 209
f 246 848 680
f 246 680 244
f 244 678 246
f 246 678 846
f 1286 1233 681
f 35 96 679
f 35 679 1233
f 849 35 1233
f 1286 849 1233
f 847 96 35
f 70 850 120
f 120 682 70
f 682 848 70
f 682 680 848
f 683 1288 681
f 681 1288 1286
f 849 1286 1288
f 849 1288 851
f 852 122 120
f 852 120 850
f 682 120 684
f 684 120 122
f 685 1290 683
f 683 1290 1288
f 851 1288 1290
f 851 1290 853
f 854 124 122
f 854 122 852
f 684 122 686
f 686 122 124
f 1234 1290 685
f 36 853 104
f 104 853 687
f 853 1290 687
f 1290 1234 687
f 855 36 104
f 856 126 124
f 856 124 854
f 686 124 688
f 688 124 126
f 34 104 687
f 210 855 282
f 282 855 689
f 855 104 689
f 104 34 689
f 210 282 450
f 210 450 382
f 857 382 450
f 858 128 126
f 858 126 856
f 688 126 690
f 690 126 128
f 208 282 689
f 691 452 208
f 452 282 208
f 452 450 282
f 620 556 857
f 450 620 857
f 452 620 450
f 859 556 620
f 1266 860 1318
f 128 858 1266
f 128 1266 1318
f 68 128 1318
f 692 68 1318
f 690 128 68
f 380 452 691
f 693 622 380
f 622 452 380
f 622 620 452
f 776 724 859
f 620 776 859
f 622 776 620
f 724 776 950
f 724 950 896
f 896 950 1128
f 896 1128 1074
f 1318 860 1074
f 1318 1074 1128
f 1264 1318 1128
f 694 1264 1128
f 692 1318 1264
f 554 622 693
f 722 776 554
f 554 776 622
f 894 950 722
f 722 950 776
f 1072 1128 894
f 894 1128 950
f 694 1128 1072
f 963 215 289
f 289 215 457
f 457 215 389
f 389 964 457
f 965 1235 1303
f 1303 1235 115
f 115 1235 39
f 963 289 39
f 39 289 115
f 289 213 115
f 213 793 115
f 457 387 213
f 457 213 289
f 964 565 627
f 964 627 794
f 457 964 794
f 387 457 794
f 565 966 627
f 1305 967 1303
f 1303 967 965
f 115 37 795
f 1305 115 795
f 1303 115 1305
f 115 793 37
f 627 563 794
f 966 731 783
f 966 783 796
f 627 966 796
f 563 627 796
f 731 968 783
f 1307 969 1305
f 1305 969 967
f 1305 795 797
f 1305 797 1307
f 785 798 796
f 785 796 783
f 903 957 968
f 957 783 968
f 957 785 783
f 903 970 957
f 1307 1236 969
f 121 971 38
f 38 971 797
f 971 1236 797
f 1236 1307 797
f 799 121 38
f 564 633 800
f 633 564 798
f 785 633 798
f 787 633 785
f 785 959 787
f 785 957 959
f 957 970 959
f 959 970 972
f 121 40 971
f 299 973 214
f 214 973 799
f 973 40 799
f 40 121 799
f 388 467 299
f 388 299 214
f 467 388 800
f 633 467 800
f 635 467 633
f 633 789 635
f 633 787 789
f 974 789 904
f 789 959 904
f 789 787 959
f 959 972 904
f 299 216 973
f 216 299 390
f 390 299 467
f 390 467 566
f 566 467 635
f 566 635 732
f 732 635 789
f 789 974 732
f 975 1033 1091
f 1091 1033 801
f 1033 1203 801
f 1033 1207 1203
f 1207 3 1203
f 7 3 1207
f 802 3 247
f 3 193 247
f 3 7 193
f 193 976 247
f 977 861 917
f 975 1091 861
f 861 1091 917
f 1091 1031 917
f 1031 803 917
f 1091 801 1031
f 247 191 802
f 976 367 417
f 976 417 804
f 247 976 804
f 191 247 804
f 367 978 417
f 919 979 917
f 917 979 977
f 917 803 805
f 917 805 919
f 419 806 804
f 419 804 417
f 417 978 419
f 419 978 980
f 919 862 979
f 1097 981 1032
f 1032 981 805
f 981 862 805
f 862 919 805
f 807 1097 1032
f 421 808 806
f 421 806 419
f 419 980 421
f 421 980 982
f 1097 1034 981
f 1279 983 1204
f 1204 983 807
f 983 1034 807
f 1034 1097 807
f 4 83 1279
f 4 1279 1204
f 809 83 4
f 423 810 808
f 423 808 421
f 541 591 982
f 591 421 982
f 591 423 421
f 541 984 591
f 1279 1208 983
f 1208 1279 985
f 1279 85 985
f 1279 83 85
f 83 809 811
f 83 811 85
f 423 365 810
f 591 539 365
f 591 365 423
f 539 591 984
f 709 539 984
f 707 539 709
f 709 986 707
f 707 986 812
f 87 987 85
f 85 987 985
f 85 811 813
f 85 813 87
f 879 812 986
f 879 986 881
f 881 1057 879
f 1059 1057 881
f 1059 988 1057
f 1057 988 814
f 89 989 87
f 87 989 987
f 87 813 815
f 87 815 89
f 1249 814 988
f 1249 988 1251
f 1251 53 1249
f 55 53 1251
f 55 990 53
f 53 990 816
f 89 8 989
f 991 8 89
f 815 991 89
f 817 991 815
f 229 816 990
f 229 990 231
f 231 992 229
f 229 992 818
f 993 817 819
f 993 991 817
f 403 818 992
f 403 992 405
f 405 994 403
f 403 994 820
f 995 9 91
f 821 91 9
f 993 821 9
f 819 821 993
f 579 820 994
f 579 994 581
f 581 996 579
f 579 996 822
f 5 823 91
f 823 995 91
f 823 997 995
f 91 821 5
f 822 998 824
f 996 998 822
f 999 1209 825
f 825 1209 1205
f 823 1205 1209
f 823 1209 997
f 1000 784 745
f 824 1000 745
f 998 1000 824
f 784 826 745
f 1001 825 827
f 1001 999 825
f 828 746 784
f 1000 828 784
f 1002 828 1000
f 826 784 746
f 1287 1003 1206
f 1003 827 1206
f 1003 1001 827
f 829 1287 1206
f 582 1004 830
f 582 830 580
f 580 828 582
f 582 828 1002
f 1287 1210 1003
f 101 1005 6
f 6 1005 829
f 1005 1210 829
f 1210 1287 829
f 831 101 6
f 708 767 832
f 880 941 767
f 880 767 708
f 1058 1119 941
f 1058 941 880
f 833 1119 1058
f 406 1006 834
f 406 834 404
f 404 830 406
f 406 830 1004
f 101 10 1005
f 279 1007 192
f 192 1007 831
f 1007 10 831
f 10 101 831
f 366 447 279
f 366 279 192
f 540 615 447
f 540 447 366
f 615 540 832
f 767 615 832
f 769 615 767
f 1008 769 882
f 769 941 882
f 769 767 941
f 882 941 1060
f 1060 941 1119
f 833 1250 1119
f 1250 1060 1119
f 1250 1252 1060
f 54 1252 1250
f 54 56 1252
f 230 56 54
f 230 232 56
f 230 834 232
f 232 834 1006
f 279 194 1007
f 194 279 368
f 368 279 447
f 368 447 542
f 542 447 615
f 542 615 710
f 710 615 769
f 769 1008 710
f 1102 1073 835
f 1294 1265 1102
f 1102 1265 1073
f 1294 836 1265
f 752 723 837
f 926 895 752
f 752 895 723
f 1075 1102 835
f 1075 835 895
f 1009 1075 895
f 926 1009 895
f 1102 1075 1267
f 1102 1267 1294
f 1010 108 69
f 1010 69 836
f 1267 1010 836
f 1294 1267 836
f 108 838 69
f 600 555 839
f 555 600 837
f 600 752 837
f 600 754 752
f 754 1011 897
f 926 754 897
f 752 754 926
f 1009 926 897
f 71 108 1010
f 1012 286 245
f 1012 245 838
f 71 1012 838
f 108 71 838
f 286 840 245
f 841 602 839
f 839 602 600
f 756 600 602
f 754 600 756
f 1011 754 756
f 1011 756 1013
f 1014 288 286
f 1014 286 1012
f 840 286 842
f 842 286 288
f 843 604 841
f 841 604 602
f 604 1015 725
f 756 604 725
f 602 604 756
f 1013 756 725
f 1016 290 288
f 1016 288 1014
f 842 288 844
f 844 288 290
f 438 381 845
f 557 604 843
f 557 843 381
f 1017 557 381
f 438 1017 381
f 1015 604 557
f 1018 292 290
f 1018 290 1016
f 844 290 846
f 846 290 292
f 272 209 847
f 383 438 845
f 383 845 209
f 1019 383 209
f 272 1019 209
f 1017 438 383
f 72 1020 118
f 292 1018 72
f 292 72 118
f 246 292 118
f 848 246 118
f 846 292 246
f 98 35 849
f 211 272 847
f 211 847 35
f 1021 211 35
f 98 1021 35
f 1019 272 211
f 850 70 118
f 1020 850 118
f 1022 850 1020
f 848 118 70
f 851 100 849
f 849 100 98
f 1021 98 100
f 1021 100 1023
f 850 1024 852
f 1022 1024 850
f 853 102 851
f 851 102 100
f 278 212 1023
f 100 278 1023
f 102 278 100
f 1025 212 278
f 1268 1026 1312
f 1312 854 1268
f 854 1024 1268
f 854 852 1024
f 36 102 853
f 855 280 36
f 280 102 36
f 280 278 102
f 448 384 1025
f 278 448 1025
f 280 448 278
f 1027 384 448
f 1028 1314 1312
f 1028 1312 1026
f 854 1312 856
f 856 1312 1314
f 210 280 855
f 382 448 210
f 210 448 280
f 558 1027 618
f 618 1027 857
f 1027 448 857
f 448 382 857
f 1029 558 618
f 1076 1030 1124
f 1314 1028 1076
f 1124 1314 1076
f 1316 1314 1124
f 856 1314 858
f 858 1314 1316
f 556 618 857
f 726 1029 774
f 774 1029 859
f 1029 618 859
f 618 556 859
f 726 774 948
f 726 948 898
f 1124 1030 898
f 948 1124 898
f 1126 1124 948
f 1266 1316 860
f 1316 1126 860
f 1316 1124 1126
f 858 1316 1266
f 724 774 859
f 896 948 724
f 724 948 774
f 1074 1126 896
f 896 1126 948
f 860 1126 1074
f 1135 867 929
f 929 867 1107
f 1107 867 1045
f 1107 1045 1299
f 1299 1045 1237
f 1237 1136 1299
f 1137 695 757
f 1135 929 695
f 929 757 695
f 929 931 757
f 929 1109 931
f 929 1107 1109
f 1107 1301 1109
f 1107 1299 1301
f 41 113 1136
f 113 1299 1136
f 113 1301 1299
f 113 41 963
f 41 215 963
f 41 217 215
f 217 389 215
f 391 389 217
f 391 1138 389
f 389 1138 964
f 759 1139 757
f 757 1139 1137
f 757 933 759
f 757 931 933
f 931 1111 933
f 931 1109 1111
f 1301 1235 965
f 1111 1301 965
f 1109 1301 1111
f 113 39 1235
f 113 1235 1301
f 113 963 39
f 565 964 1138
f 565 1138 567
f 966 565 781
f 565 733 781
f 565 567 733
f 733 1140 781
f 759 696 1139
f 696 759 1141
f 759 935 1141
f 759 933 935
f 933 1113 935
f 933 1111 1113
f 1111 965 967
f 1111 967 1113
f 781 731 966
f 1140 905 955
f 1140 955 968
f 781 1140 968
f 731 781 968
f 905 1142 955
f 935 868 1141
f 868 935 1143
f 935 1115 1143
f 935 1113 1115
f 1113 967 969
f 1113 969 1115
f 955 903 968
f 1142 1081 1131
f 1142 1131 970
f 955 1142 970
f 903 955 970
f 1081 1144 1131
f 1115 1046 1143
f 1309 1145 1236
f 1236 1145 969
f 1145 1046 969
f 1046 1115 969
f 971 1309 1236
f 1133 972 970
f 1133 970 1131
f 1131 1144 1133
f 1133 1144 1146
f 1309 1238 1145
f 971 40 1309
f 40 1238 1309
f 40 42 1238
f 1147 42 40
f 1147 40 973
f 904 961 974
f 1133 1082 972
f 972 1082 904
f 1082 1148 904
f 1148 961 904
f 1133 1146 1082
f 973 216 1147
f 1147 216 218
f 390 218 216
f 390 392 218
f 566 637 1149
f 392 566 1149
f 390 566 392
f 732 791 637
f 732 637 566
f 961 906 974
f 974 906 732
f 906 1150 732
f 1150 791 732
f 961 1148 906
f 637 568 1149
f 568 637 734
f 734 637 791
f 791 1150 734
f 1151 1211 1269
f 1269 1211 73
f 73 1211 11
f 11 1152 73
f 1153 1035 975
f 975 1035 1033
f 1035 1151 1269
f 1207 1035 1269
f 1033 1035 1207
f 73 7 1207
f 73 1207 1269
f 7 73 1152
f 195 7 1152
f 193 7 195
f 195 1154 193
f 193 1154 976
f 1155 863 977
f 977 863 861
f 975 861 863
f 975 863 1153
f 367 976 1154
f 367 1154 369
f 369 1156 367
f 367 1156 978
f 1157 977 979
f 1157 1155 977
f 978 1158 980
f 1156 1158 978
f 979 862 1157
f 1157 862 864
f 1159 864 862
f 1159 862 981
f 980 1160 982
f 1158 1160 980
f 981 1034 1159
f 1159 1034 1036
f 1161 1036 1034
f 1161 1034 983
f 541 982 1160
f 541 1160 543
f 543 1162 541
f 541 1162 984
f 983 1208 1161
f 1161 1208 1212
f 1163 1212 1208
f 1163 1208 985
f 709 984 1162
f 709 1162 711
f 711 1164 709
f 709 1164 986
f 1165 985 987
f 1165 1163 985
f 881 986 1164
f 881 1164 883
f 883 1059 881
f 1061 1059 883
f 1061 1166 1059
f 1059 1166 988
f 1167 987 989
f 1167 1165 987
f 1251 988 1166
f 1251 1166 1253
f 1253 55 1251
f 57 55 1253
f 57 1168 55
f 55 1168 990
f 989 8 1167
f 1167 8 12
f 1169 12 8
f 1169 8 991
f 231 990 1168
f 231 1168 233
f 233 1170 231
f 231 1170 992
f 1171 991 993
f 1171 1169 991
f 405 992 1170
f 405 1170 407
f 407 1172 405
f 405 1172 994
f 1173 13 995
f 995 13 9
f 993 9 13
f 993 13 1171
f 581 994 1172
f 581 1172 583
f 583 1174 581
f 581 1174 996
f 1175 995 997
f 1175 1173 995
f 996 1176 998
f 1174 1176 996
f 1177 1213 999
f 999 1213 1209
f 997 1209 1213
f 997 1213 1175
f 998 1178 1000
f 1176 1178 998
f 1179 999 1001
f 1179 1177 999
f 584 1180 632
f 632 1002 584
f 1002 1178 584
f 1002 1000 1178
f 1181 1001 1003
f 1181 1179 1001
f 1004 582 632
f 1180 1004 632
f 1182 1004 1180
f 1002 632 582
f 1003 1210 1181
f 1181 1210 1214
f 1183 1214 1210
f 1183 1210 1005
f 408 1184 1006
f 408 1006 406
f 406 1004 408
f 408 1004 1182
f 103 1185 10
f 1185 1005 10
f 1185 1183 1005
f 1007 103 10
f 882 943 1008
f 1060 1121 943
f 1060 943 882
f 1252 1313 1121
f 1252 1121 1060
f 56 125 1313
f 56 1313 1252
f 234 1186 125
f 56 234 125
f 232 234 56
f 232 1006 234
f 234 1006 1184
f 103 14 1185
f 281 1187 194
f 194 1187 1007
f 1187 14 1007
f 14 103 1007
f 368 449 281
f 368 281 194
f 542 617 449
f 542 449 368
f 710 771 617
f 710 617 542
f 771 710 1008
f 943 771 1008
f 945 771 943
f 943 1123 945
f 943 1121 1123
f 1188 1123 1254
f 1123 1313 1254
f 1123 1121 1313
f 1254 1313 58
f 58 1313 125
f 125 1186 58
f 281 196 1187
f 196 281 1189
f 281 451 1189
f 281 449 451
f 449 619 451
f 449 617 619
f 617 773 619
f 617 771 773
f 771 947 773
f 771 945 947
f 1190 947 1062
f 947 1123 1062
f 947 945 1123
f 1123 1188 1062
f 451 370 1189
f 370 451 544
f 544 451 619
f 544 619 712
f 712 619 773
f 712 773 884
f 884 773 947
f 947 1190 884
f 1104 1075 1009
f 1296 1267 1104
f 1104 1267 1075
f 1296 1010 1267
f 928 897 1011
f 897 928 1009
f 928 1104 1009
f 928 1106 1104
f 1298 1104 1106
f 1296 1104 1298
f 1010 1296 71
f 1296 110 71
f 1296 1298 110
f 110 1012 71
f 1013 930 1011
f 1011 930 928
f 1108 928 930
f 1106 928 1108
f 1300 1106 1108
f 1298 1106 1300
f 112 1298 1300
f 110 1298 112
f 1012 110 1014
f 1014 110 112
f 758 725 1015
f 725 758 1013
f 758 930 1013
f 758 932 930
f 1110 930 932
f 1108 930 1110
f 1302 1108 1110
f 1300 1108 1302
f 114 1300 1302
f 112 1300 114
f 1014 112 1016
f 1016 112 114
f 606 557 1017
f 727 758 1015
f 727 1015 557
f 1191 727 557
f 606 1191 557
f 758 727 899
f 758 899 932
f 932 899 1077
f 932 1077 1110
f 1110 1077 1192
f 1304 1110 1192
f 1302 1110 1304
f 116 1302 1304
f 114 1302 116
f 1016 114 1018
f 1018 114 116
f 440 383 1019
f 559 606 1017
f 559 1017 383
f 1193 559 383
f 440 1193 383
f 1191 606 559
f 1194 1306 1304
f 1194 1304 1192
f 72 116 1020
f 116 1306 1020
f 116 1304 1306
f 1018 116 72
f 274 211 1021
f 385 440 1019
f 385 1019 211
f 1195 385 211
f 274 1195 211
f 1193 440 385
f 1196 1308 1306
f 1196 1306 1194
f 1020 1306 1022
f 1022 1306 1308
f 1023 276 1021
f 1021 276 274
f 1195 274 276
f 1195 276 1197
f 1198 1310 1308
f 1198 1308 1196
f 1022 1308 1024
f 1024 1308 1310
f 212 276 1023
f 386 1197 446
f 446 1197 1025
f 1197 276 1025
f 276 212 1025
f 1199 386 446
f 1026 1268 1310
f 1198 1026 1310
f 1200 1026 1198
f 1024 1310 1268
f 384 446 1025
f 560 1199 616
f 616 1199 1027
f 1199 446 1027
f 446 384 1027
f 1201 560 616
f 1078 1202 1122
f 1122 1028 1078
f 1028 1200 1078
f 1028 1026 1200
f 558 616 1027
f 728 1201 772
f 772 1201 1029
f 1201 616 1029
f 616 558 1029
f 728 772 946
f 728 946 900
f 1122 1202 900
f 1122 900 946
f 1076 1122 946
f 1030 1076 946
f 1028 1122 1076
f 726 772 1029
f 898 946 726
f 726 946 772
f 1030 946 898
f 1319 869 927
f 927 869 1105
f 1105 869 1047
f 1105 1047 1297
f 1297 1047 1239
f 1239 1320 1297
f 1321 697 755
f 1319 927 697
f 697 927 755
f 927 867 755
f 867 1135 755
f 1105 1045 867
f 1105 867 927
f 1297 1237 1045
f 1297 1045 1105
f 1320 43 111
f 1320 111 1136
f 1297 1320 1136
f 1237 1297 1136
f 111 43 287
f 287 43 219
f 219 1322 287
f 1323 529 603
f 1321 755 529
f 529 755 603
f 755 695 603
f 695 1137 603
f 755 1135 695
f 111 41 1136
f 287 217 41
f 287 41 111
f 217 287 1322
f 393 217 1322
f 391 217 393
f 1138 391 625
f 391 569 625
f 391 393 569
f 569 1324 625
f 605 1325 603
f 603 1325 1323
f 603 1137 1139
f 603 1139 605
f 625 567 1138
f 567 625 1324
f 735 567 1324
f 733 567 735
f 735 1326 733
f 733 1326 1140
f 605 530 1325
f 761 1327 696
f 696 1327 1139
f 1327 530 1139
f 530 605 1139
f 1141 761 696
f 905 1140 1326
f 905 1326 907
f 907 1328 905
f 905 1328 1142
f 761 698 1327
f 937 1329 868
f 868 1329 1141
f 1329 698 1141
f 698 761 1141
f 1143 937 868
f 1081 1142 1328
f 1081 1328 1083
f 1083 1330 1081
f 1081 1330 1144
f 937 870 1329
f 1117 1331 1046
f 1046 1331 1143
f 1331 870 1143
f 870 937 1143
f 1145 1117 1046
f 1144 1332 1146
f 1330 1332 1144
f 1117 1048 1331
f 1145 1238 1117
f 1238 1048 1117
f 1238 1240 1048
f 42 1240 1238
f 42 44 1240
f 1333 44 42
f 1333 42 1147
f 1084 1334 1148
f 1084 1148 1082
f 1082 1146 1084
f 1084 1146 1332
f 1147 218 1333
f 1333 218 220
f 392 220 218
f 392 394 220
f 1335 394 392
f 1335 392 1149
f 908 1336 1150
f 908 1150 906
f 906 1148 908
f 908 1148 1334
f 1149 568 1335
f 1335 568 570
f 734 570 568
f 734 736 570
f 734 1150 736
f 736 1150 1336
f 1270 1211 1151
f 74 11 1270
f 1270 11 1211
f 74 1152 11
f 1337 1037 1153
f 1153 1037 1035
f 1215 1270 1151
f 1035 1215 1151
f 1037 1215 1035
f 1270 1215 15
f 1270 15 74
f 195 1152 74
f 15 195 74
f 197 195 15
f 197 1338 195
f 195 1338 1154
f 918 863 1155
f 1153 863 918
f 1339 1153 918
f 1337 1153 1339
f 369 1154 1338
f 369 1338 371
f 371 1340 369
f 369 1340 1156
f 918 1155 865
f 1155 1341 865
f 1155 1157 1341
f 1339 918 865
f 1156 1342 1158
f 1340 1342 1156
f 1157 864 1341
f 1341 864 866
f 1343 866 864
f 1343 864 1159
f 1158 1344 1160
f 1342 1344 1158
f 1159 1036 1343
f 1343 1036 1038
f 1345 1038 1036
f 1345 1036 1161
f 543 1160 1344
f 543 1344 545
f 545 1346 543
f 543 1346 1162
f 1281 1347 1212
f 1347 1161 1212
f 1347 1345 1161
f 1163 1281 1212
f 711 1162 1346
f 711 1346 713
f 713 1348 711
f 711 1348 1164
f 1281 1216 1347
f 1349 1216 1281
f 1163 1349 1281
f 1165 1349 1163
f 883 1164 1348
f 883 1348 885
f 885 1061 883
f 1063 1061 885
f 1063 1350 1061
f 1061 1350 1166
f 1351 1165 1167
f 1351 1349 1165
f 1253 1166 1350
f 1253 1350 1255
f 1255 57 1253
f 59 57 1255
f 59 1352 57
f 57 1352 1168
f 1167 12 1351
f 1351 12 16
f 1353 16 12
f 1353 12 1169
f 233 1168 1352
f 233 1352 235
f 235 1354 233
f 233 1354 1170
f 1355 1169 1171
f 1355 1353 1169
f 407 1170 1354
f 407 1354 409
f 409 1356 407
f 407 1356 1172
f 92 13 1173
f 1171 13 92
f 1357 1171 92
f 1355 1171 1357
f 583 1172 1356
f 583 1356 585
f 585 1358 583
f 583 1358 1174
f 92 1173 17
f 1173 1359 17
f 1173 1175 1359
f 1357 92 17
f 1174 1360 1176
f 1358 1360 1174
f 1361 1217 1177
f 1177 1217 1213
f 1175 1213 1217
f 1175 1217 1359
f 1176 1362 1178
f 1360 1362 1176
f 1363 1177 1179
f 1363 1361 1177
f 586 1364 1180
f 586 1180 584
f 584 1178 586
f 586 1178 1362
f 1365 1179 1181
f 1365 1363 1179
f 1180 1366 1182
f 1364 1366 1180
f 1289 1367 1214
f 1367 1181 1214
f 1367 1365 1181
f 1183 1289 1214
f 410 1368 1184
f 410 1184 408
f 408 1182 410
f 410 1182 1366
f 1289 1218 1367
f 1369 1218 1289
f 1183 1369 1289
f 1185 1369 1183
f 236 1370 1186
f 236 1186 234
f 234 1184 236
f 236 1184 1368
f 105 1371 14
f 1371 1185 14
f 1371 1369 1185
f 1187 105 14
f 1254 1315 1188
f 60 1372 1315
f 1254 60 1315
f 58 60 1254
f 58 1186 60
f 60 1186 1370
f 105 18 1371
f 283 1373 196
f 196 1373 1187
f 1373 18 1187
f 18 105 1187
f 1189 283 196
f 1062 1125 1190
f 1315 1256 1188
f 1188 1256 1062
f 1256 1374 1062
f 1374 1125 1062
f 1315 1372 1256
f 283 198 1373
f 453 1375 370
f 370 1375 1189
f 1375 198 1189
f 198 283 1189
f 544 621 453
f 544 453 370
f 712 775 621
f 712 621 544
f 884 949 775
f 884 775 712
f 1125 1064 1190
f 1190 1064 884
f 1064 1376 884
f 1376 949 884
f 1125 1374 1064
f 453 372 1375
f 372 453 546
f 546 453 621
f 546 621 714
f 714 621 775
f 714 775 886
f 886 775 949
f 949 1376 886
f 760 727 1191
f 934 899 760
f 760 899 727
f 1112 1077 934
f 934 1077 899
f 1112 1192 1077
f 608 559 1193
f 729 760 1191
f 729 1191 559
f 1377 729 559
f 608 1377 559
f 760 729 901
f 760 901 934
f 934 901 1378
f 1114 934 1378
f 1112 934 1114
f 1192 1112 1194
f 1194 1112 1114
f 442 385 1195
f 561 608 1193
f 561 1193 385
f 1379 561 385
f 442 1379 385
f 1377 608 561
f 1079 1114 1378
f 1079 1380 1114
f 1380 1194 1114
f 1380 1196 1194
f 1197 444 1195
f 1195 444 442
f 1379 442 444
f 1379 444 1381
f 1196 1382 1198
f 1380 1382 1196
f 386 444 1197
f 562 1381 614
f 614 1381 1199
f 1381 444 1199
f 444 386 1199
f 1383 562 614
f 1080 1384 1120
f 1120 1200 1080
f 1200 1382 1080
f 1200 1198 1382
f 560 614 1199
f 730 1383 770
f 770 1383 1201
f 1383 614 1201
f 614 560 1201
f 730 770 944
f 730 944 902
f 1120 1384 902
f 1120 902 944
f 1078 1120 944
f 1202 1078 944
f 1200 1120 1078
f 728 770 1201
f 900 944 728
f 728 944 770
f 1202 944 900
f 129 699 753
f 753 699 1319
f 699 869 1319
f 699 871 869
f 871 1047 869
f 1049 1047 871
f 1049 1239 1047
f 1241 1239 1049
f 1320 1239 109
f 1239 45 109
f 1239 1241 45
f 45 130 109
f 697 1321 753
f 1321 129 753
f 1321 131 129
f 753 1319 697
f 109 43 1320
f 43 109 130
f 221 43 130
f 219 43 221
f 221 132 219
f 219 132 1322
f 133 531 1323
f 1323 531 529
f 1321 529 531
f 1321 531 131
f 393 1322 132
f 393 132 395
f 395 569 393
f 571 569 395
f 1324 569 779
f 569 737 779
f 569 571 737
f 737 134 779
f 135 1323 1325
f 135 133 1323
f 779 735 1324
f 134 909 953
f 134 953 1326
f 779 134 1326
f 735 779 1326
f 909 136 953
f 607 137 530
f 137 1325 530
f 137 135 1325
f 1327 607 530
f 953 907 1326
f 136 1085 1129
f 136 1129 1328
f 953 136 1328
f 907 953 1328
f 1085 138 1129
f 607 532 137
f 763 139 698
f 698 139 1327
f 139 532 1327
f 532 607 1327
f 1329 763 698
f 1129 1083 1328
f 1129 138 1083
f 138 1330 1083
f 138 140 1330
f 763 700 139
f 1329 870 763
f 870 700 763
f 870 872 700
f 141 872 870
f 141 870 1331
f 1330 142 1332
f 140 142 1330
f 1331 1048 141
f 141 1048 1050
f 1240 1050 1048
f 1240 1242 1050
f 44 123 143
f 1242 44 143
f 1240 44 1242
f 1333 123 44
f 1086 144 1334
f 1086 1334 1084
f 1084 1332 1086
f 1086 1332 142
f 123 46 143
f 1333 220 123
f 220 46 123
f 220 222 46
f 394 222 220
f 394 396 222
f 145 396 394
f 145 394 1335
f 910 146 1336
f 910 1336 908
f 908 1334 910
f 910 1334 144
f 1335 570 145
f 145 570 572
f 736 572 570
f 736 738 572
f 736 1336 738
f 738 1336 146
f 1092 1037 1337
f 147 1219 1092
f 1219 1037 1092
f 1219 1215 1037
f 1219 15 1215
f 19 15 1219
f 248 197 148
f 197 19 148
f 197 15 19
f 248 1338 197
f 1092 1337 1039
f 1337 149 1039
f 1337 1339 149
f 147 1092 1039
f 199 248 148
f 150 418 371
f 150 371 1338
f 199 150 1338
f 248 199 1338
f 418 1340 371
f 920 865 1341
f 1339 865 920
f 151 1339 920
f 149 1339 151
f 373 418 150
f 373 152 418
f 152 1340 418
f 152 1342 1340
f 866 920 1341
f 151 920 866
f 1343 151 866
f 153 151 1343
f 152 547 589
f 1344 152 589
f 1342 152 1344
f 547 154 589
f 1099 155 1038
f 155 1343 1038
f 155 153 1343
f 1345 1099 1038
f 589 545 1344
f 589 154 545
f 154 1346 545
f 154 156 1346
f 1099 1040 155
f 157 1040 1099
f 1345 157 1099
f 1347 157 1345
f 713 1346 156
f 713 156 715
f 1348 713 921
f 713 887 921
f 713 715 887
f 887 158 921
f 1347 1216 157
f 157 1216 1220
f 159 1220 1216
f 159 1216 1349
f 921 885 1348
f 885 921 158
f 1065 885 158
f 1063 885 1065
f 1065 160 1063
f 1063 160 1350
f 20 159 90
f 159 1351 90
f 159 1349 1351
f 161 20 90
f 1255 1350 160
f 1255 160 1257
f 1257 59 1255
f 61 59 1257
f 61 162 59
f 59 162 1352
f 16 90 1351
f 161 90 16
f 1353 161 16
f 163 161 1353
f 235 1352 162
f 235 162 237
f 237 164 235
f 235 164 1354
f 165 1353 1355
f 165 163 1353
f 409 1354 164
f 409 164 411
f 411 166 409
f 409 166 1356
f 167 1355 1357
f 167 165 1355
f 585 1356 166
f 585 166 587
f 587 168 585
f 585 168 1358
f 169 21 1359
f 1359 21 17
f 1357 17 21
f 1357 21 167
f 1358 170 1360
f 168 170 1358
f 1284 1217 1361
f 1359 1217 1284
f 171 1359 1284
f 169 1359 171
f 1360 172 1362
f 170 172 1360
f 1284 1361 1221
f 1361 173 1221
f 1361 1363 173
f 171 1284 1221
f 588 174 1364
f 588 1364 586
f 586 1362 588
f 588 1362 172
f 175 1363 1365
f 175 173 1363
f 1364 176 1366
f 174 176 1364
f 177 1365 1367
f 177 175 1365
f 412 178 1368
f 412 1368 410
f 410 1366 412
f 412 1366 176
f 1291 179 1218
f 179 1367 1218
f 179 177 1367
f 1369 1291 1218
f 236 301 1370
f 236 1368 301
f 1368 180 301
f 1368 178 180
f 1291 1222 179
f 181 1222 1291
f 1369 181 1291
f 1371 181 1369
f 60 127 1372
f 301 238 1370
f 1370 238 60
f 238 182 60
f 182 127 60
f 301 180 238
f 1371 18 181
f 181 18 22
f 183 22 18
f 183 18 1373
f 1256 1317 1374
f 127 62 1372
f 1372 62 1256
f 62 184 1256
f 184 1317 1256
f 127 182 62
f 1373 198 183
f 183 198 200
f 185 200 198
f 185 198 1375
f 1064 1127 1376
f 1317 1258 1374
f 1374 1258 1064
f 1258 186 1064
f 186 1127 1064
f 1317 184 1258
f 1375 372 185
f 185 372 374
f 546 623 187
f 374 546 187
f 372 546 374
f 714 777 623
f 714 623 546
f 886 951 777
f 886 777 714
f 1127 1066 1376
f 1376 1066 886
f 1066 188 886
f 188 951 886
f 1127 186 1066
f 623 548 187
f 548 623 716
f 716 623 777
f 716 777 888
f 888 777 951
f 951 188 888
f 762 729 1377
f 936 901 762
f 762 901 729
f 936 1378 901
f 610 561 1379
f 561 610 1377
f 610 762 1377
f 610 764 762
f 938 762 764
f 936 762 938
f 1378 936 1079
f 936 1116 1079
f 936 938 1116
f 1116 1380 1079
f 1381 612 1379
f 1379 612 610
f 766 610 612
f 764 610 766
f 940 764 766
f 938 764 940
f 1118 938 940
f 1116 938 1118
f 1380 1116 1382
f 1382 1116 1118
f 562 612 1381
f 1383 768 562
f 768 612 562
f 768 766 612
f 942 766 768
f 940 766 942
f 1080 1118 1384
f 1118 942 1384
f 1118 940 942
f 1382 1118 1080
f 730 768 1383
f 902 942 730
f 730 942 768
f 1384 942 902
