# Converted from NanoShaper .vert/.face
v 28.633000 4.449000 -12.608000
v 30.467000 4.449000 -12.608000
v 28.167000 4.449000 -12.108000
v 30.823000 4.449000 -12.108000
v 27.493000 4.449000 -11.608000
v 30.929000 4.449000 -11.608000
v 25.608000 4.449000 -11.108000
v 30.951000 4.449000 -11.108000
v 25.052000 4.449000 -10.608000
v 30.923000 4.449000 -10.608000
v 24.737000 4.449000 -10.108000
v 30.850000 4.449000 -10.108000
v 24.655000 4.449000 -9.608000
v 30.774000 4.449000 -9.608000
v 24.685000 4.449000 -9.108000
v 30.810000 4.449000 -9.108000
v 24.728000 4.449000 -8.608000
v 30.835000 4.449000 -8.608000
v 24.832000 4.449000 -8.108000
v 30.996000 4.449000 -8.108000
v 25.183000 4.449000 -7.608000
v 31.226000 4.449000 -7.608000
v 25.575000 4.449000 -7.108000
v 31.171000 4.449000 -7.108000
v 26.017000 4.449000 -6.608000
v 31.140000 4.449000 -6.608000
v 26.245000 4.449000 -6.108000
v 30.812000 4.449000 -6.108000
v 26.575000 4.449000 -5.608000
v 30.060000 4.449000 -5.608000
v 27.170000 4.449000 -5.108000
v 29.550000 4.449000 -5.108000
v 25.077000 4.449000 -10.632000
v 25.077000 4.449000 -7.718000
v 25.577000 4.449000 -11.076000
v 25.577000 4.449000 -7.106000
v 26.077000 4.449000 -11.408000
v 26.077000 4.449000 -6.509000
v 26.577000 4.449000 -11.500000
v 26.577000 4.449000 -5.607000
v 27.077000 4.449000 -11.502000
v 27.077000 4.449000 -5.204000
v 27.577000 4.449000 -11.647000
v 27.577000 4.449000 -4.841000
v 28.077000 4.449000 -12.022000
v 28.077000 4.449000 -4.729000
v 28.577000 4.449000 -12.554000
v 28.577000 4.449000 -4.705000
v 29.077000 4.449000 -12.873000
v 29.077000 4.449000 -4.799000
v 29.577000 4.449000 -12.957000
v 29.577000 4.449000 -5.135000
v 30.077000 4.449000 -12.853000
v 30.077000 4.449000 -5.623000
v 30.577000 4.449000 -12.499000
v 30.577000 4.449000 -5.997000
v 31.077000 4.449000 -7.998000
v 31.077000 4.449000 -6.368000
v 25.077000 2.259000 -9.108000
v 25.077000 5.234000 -9.108000
v 25.577000 1.934000 -9.108000
v 25.577000 5.644000 -9.108000
v 26.077000 1.845000 -9.108000
v 26.077000 5.991000 -9.108000
v 26.577000 1.835000 -9.108000
v 26.577000 6.095000 -9.108000
v 27.077000 1.926000 -9.108000
v 27.077000 6.051000 -9.108000
v 27.577000 2.251000 -9.108000
v 27.577000 6.038000 -9.108000
v 28.077000 2.665000 -9.108000
v 28.077000 6.129000 -9.108000
v 28.577000 2.865000 -9.108000
v 28.577000 6.390000 -9.108000
v 29.077000 3.174000 -9.108000
v 29.077000 6.563000 -9.108000
v 29.577000 3.638000 -9.108000
v 29.577000 6.766000 -9.108000
v 30.077000 3.865000 -9.108000
v 30.077000 6.782000 -9.108000
v 30.577000 4.167000 -9.108000
v 30.577000 6.524000 -9.108000
v 31.077000 5.060000 -9.108000
v 31.077000 5.850000 -9.108000
v 27.577000 3.871000 -5.108000
v 27.577000 5.499000 -5.108000
v 28.077000 3.707000 -5.108000
v 28.077000 5.663000 -5.108000
v 28.577000 3.687000 -5.108000
v 28.577000 5.694000 -5.108000
v 29.077000 3.821000 -5.108000
v 29.077000 5.637000 -5.108000
v 29.577000 4.581000 -5.108000
v 29.577000 5.085000 -5.108000
v 28.637000 4.949000 -12.608000
v 30.463000 4.949000 -12.608000
v 28.163000 4.949000 -12.108000
v 30.820000 4.949000 -12.108000
v 27.665000 4.949000 -11.608000
v 30.926000 4.949000 -11.608000
v 25.915000 4.949000 -11.108000
v 30.934000 4.949000 -11.108000
v 25.343000 4.949000 -10.608000
v 30.927000 4.949000 -10.608000
v 24.941000 4.949000 -10.108000
v 30.923000 4.949000 -10.108000
v 24.845000 4.949000 -9.608000
v 30.969000 4.949000 -9.608000
v 24.859000 4.949000 -9.108000
v 31.042000 4.949000 -9.108000
v 24.923000 4.949000 -8.608000
v 31.283000 4.949000 -8.608000
v 25.048000 4.949000 -8.108000
v 31.657000 4.949000 -8.108000
v 25.449000 4.949000 -7.608000
v 31.776000 4.949000 -7.608000
v 25.816000 4.949000 -7.108000
v 31.743000 4.949000 -7.108000
v 26.091000 4.949000 -6.608000
v 31.722000 4.949000 -6.608000
v 26.232000 4.949000 -6.108000
v 31.596000 4.949000 -6.108000
v 26.556000 4.949000 -5.608000
v 31.109000 4.949000 -5.608000
v 27.178000 4.949000 -5.108000
v 29.601000 4.949000 -5.108000
v 25.077000 4.949000 -10.345000
v 25.077000 4.949000 -8.054000
v 25.577000 4.949000 -10.792000
v 25.577000 4.949000 -7.418000
v 26.077000 4.949000 -11.198000
v 26.077000 4.949000 -6.648000
v 26.577000 4.949000 -11.306000
v 26.577000 4.949000 -5.588000
v 27.077000 4.949000 -11.328000
v 27.077000 4.949000 -5.207000
v 27.577000 4.949000 -11.541000
v 27.577000 4.949000 -4.846000
v 28.077000 4.949000 -12.026000
v 28.077000 4.949000 -4.735000
v 28.577000 4.949000 -12.551000
v 28.577000 4.949000 -4.708000
v 29.077000 4.949000 -12.870000
v 29.077000 4.949000 -4.803000
v 29.577000 4.949000 -12.954000
v 29.577000 4.949000 -5.093000
v 30.077000 4.949000 -12.850000
v 30.077000 4.949000 -5.335000
v 30.577000 4.949000 -12.495000
v 30.577000 4.949000 -5.461000
v 31.077000 4.949000 -9.006000
v 31.077000 4.949000 -5.591000
v 31.577000 4.949000 -8.247000
v 31.577000 4.949000 -6.072000
v 29.077000 3.870000 -12.608000
v 29.077000 5.514000 -12.608000
v 29.577000 3.744000 -12.608000
v 29.577000 5.640000 -12.608000
v 30.077000 3.903000 -12.608000
v 30.077000 5.481000 -12.608000
v 25.077000 2.406000 -8.608000
v 25.077000 5.150000 -8.608000
v 25.577000 2.043000 -8.608000
v 25.577000 5.695000 -8.608000
v 26.077000 1.946000 -8.608000
v 26.077000 5.993000 -8.608000
v 26.577000 1.934000 -8.608000
v 26.577000 6.066000 -8.608000
v 27.077000 2.032000 -8.608000
v 27.077000 6.083000 -8.608000
v 27.577000 2.336000 -8.608000
v 27.577000 6.196000 -8.608000
v 28.077000 2.710000 -8.608000
v 28.077000 6.412000 -8.608000
v 28.577000 2.963000 -8.608000
v 28.577000 6.602000 -8.608000
v 29.077000 3.303000 -8.608000
v 29.077000 6.776000 -8.608000
v 29.577000 3.705000 -8.608000
v 29.577000 7.094000 -8.608000
v 30.077000 3.962000 -8.608000
v 30.077000 7.230000 -8.608000
v 30.577000 4.245000 -8.608000
v 30.577000 7.108000 -8.608000
v 31.077000 4.687000 -8.608000
v 31.077000 6.578000 -8.608000
v 28.979000 5.449000 -12.608000
v 30.121000 5.449000 -12.608000
v 28.456000 5.449000 -12.108000
v 30.602000 5.449000 -12.108000
v 28.011000 5.449000 -11.608000
v 30.727000 5.449000 -11.608000
v 27.688000 5.449000 -11.108000
v 30.717000 5.449000 -11.108000
v 26.158000 5.449000 -10.608000
v 30.747000 5.449000 -10.608000
v 25.577000 5.449000 -10.108000
v 30.884000 5.449000 -10.108000
v 25.374000 5.449000 -9.608000
v 30.991000 5.449000 -9.608000
v 25.348000 5.449000 -9.108000
v 31.147000 5.449000 -9.108000
v 25.361000 5.449000 -8.608000
v 31.521000 5.449000 -8.608000
v 25.493000 5.449000 -8.108000
v 31.870000 5.449000 -8.108000
v 25.891000 5.449000 -7.608000
v 31.971000 5.449000 -7.608000
v 26.132000 5.449000 -7.108000
v 31.945000 5.449000 -7.108000
v 26.209000 5.449000 -6.608000
v 31.926000 5.449000 -6.608000
v 26.328000 5.449000 -6.108000
v 31.821000 5.449000 -6.108000
v 26.697000 5.449000 -5.608000
v 31.464000 5.449000 -5.608000
v 27.509000 5.449000 -5.108000
v 29.379000 5.449000 -5.108000
v 25.577000 5.449000 -10.108000
v 25.577000 5.449000 -7.969000
v 26.077000 5.449000 -10.525000
v 26.077000 5.449000 -7.284000
v 26.577000 5.449000 -10.760000
v 26.577000 5.449000 -5.725000
v 27.077000 5.449000 -10.769000
v 27.077000 5.449000 -5.367000
v 27.577000 5.449000 -10.990000
v 27.577000 5.449000 -5.070000
v 28.077000 5.449000 -11.718000
v 28.077000 5.449000 -4.937000
v 28.577000 5.449000 -12.243000
v 28.577000 5.449000 -4.907000
v 29.077000 5.449000 -12.656000
v 29.077000 5.449000 -5.008000
v 29.577000 5.449000 -12.755000
v 29.577000 5.449000 -5.172000
v 30.077000 5.449000 -12.632000
v 30.077000 5.449000 -5.263000
v 30.577000 5.449000 -12.156000
v 30.577000 5.449000 -5.263000
v 31.077000 5.449000 -9.273000
v 31.077000 5.449000 -5.366000
v 31.577000 5.449000 -8.554000
v 31.577000 5.449000 -5.720000
v 28.577000 3.816000 -12.108000
v 28.577000 5.569000 -12.108000
v 29.077000 3.486000 -12.108000
v 29.077000 5.898000 -12.108000
v 29.577000 3.396000 -12.108000
v 29.577000 5.988000 -12.108000
v 30.077000 3.508000 -12.108000
v 30.077000 5.876000 -12.108000
v 30.577000 3.901000 -12.108000
v 30.577000 5.483000 -12.108000
v 25.077000 3.232000 -8.108000
v 25.077000 4.988000 -8.108000
v 25.577000 2.419000 -8.108000
v 25.577000 5.549000 -8.108000
v 26.077000 2.280000 -8.108000
v 26.077000 5.883000 -8.108000
v 26.577000 2.237000 -8.108000
v 26.577000 6.016000 -8.108000
v 27.077000 2.243000 -8.108000
v 27.077000 6.109000 -8.108000
v 27.577000 2.371000 -8.108000
v 27.577000 6.247000 -8.108000
v 28.077000 2.697000 -8.108000
v 28.077000 6.588000 -8.108000
v 28.577000 3.122000 -8.108000
v 28.577000 6.914000 -8.108000
v 29.077000 3.492000 -8.108000
v 29.077000 7.121000 -8.108000
v 29.577000 3.835000 -8.108000
v 29.577000 7.426000 -8.108000
v 30.077000 4.144000 -8.108000
v 30.077000 7.531000 -8.108000
v 30.577000 4.296000 -8.108000
v 30.577000 7.439000 -8.108000
v 31.077000 4.486000 -8.108000
v 31.077000 7.092000 -8.108000
v 31.577000 4.847000 -8.108000
v 31.577000 6.550000 -8.108000
v 26.014000 1.949000 -10.608000
v 27.123000 1.949000 -10.608000
v 25.696000 1.949000 -10.108000
v 27.281000 1.949000 -10.108000
v 25.410000 1.949000 -9.608000
v 27.147000 1.949000 -9.608000
v 25.538000 1.949000 -9.108000
v 27.134000 1.949000 -9.108000
v 25.971000 1.949000 -8.608000
v 26.780000 1.949000 -8.608000
v 29.237000 5.949000 -12.108000
v 29.864000 5.949000 -12.108000
v 28.715000 5.949000 -11.608000
v 30.165000 5.949000 -11.608000
v 28.427000 5.949000 -11.108000
v 30.153000 5.949000 -11.108000
v 28.457000 5.949000 -10.608000
v 30.370000 5.949000 -10.608000
v 28.409000 5.949000 -10.108000
v 30.686000 5.949000 -10.108000
v 26.181000 5.949000 -9.608000
v 27.032000 5.949000 -9.608000
v 28.133000 5.949000 -9.608000
v 30.818000 5.949000 -9.608000
v 25.985000 5.949000 -9.108000
v 31.033000 5.949000 -9.108000
v 25.965000 5.949000 -8.608000
v 31.520000 5.949000 -8.608000
v 26.278000 5.949000 -8.108000
v 31.869000 5.949000 -8.108000
v 26.485000 5.949000 -7.608000
v 31.971000 5.949000 -7.608000
v 26.459000 5.949000 -7.108000
v 31.950000 5.949000 -7.108000
v 26.408000 5.949000 -6.608000
v 31.934000 5.949000 -6.608000
v 26.541000 5.949000 -6.108000
v 31.829000 5.949000 -6.108000
v 27.038000 5.949000 -5.608000
v 31.475000 5.949000 -5.608000
v 25.577000 1.949000 -9.999000
v 25.577000 1.949000 -8.945000
v 26.077000 1.949000 -10.675000
v 26.077000 1.949000 -8.599000
v 26.577000 1.949000 -10.872000
v 26.577000 1.949000 -8.571000
v 27.077000 1.949000 -10.660000
v 27.077000 1.949000 -8.878000
v 26.077000 5.949000 -9.481000
v 26.077000 5.949000 -8.299000
v 26.577000 5.949000 -9.775000
v 26.577000 5.949000 -6.045000
v 27.077000 5.949000 -9.566000
v 27.077000 5.949000 -5.588000
v 27.577000 5.949000 -9.303000
v 27.577000 5.949000 -5.466000
v 28.077000 5.949000 -9.536000
v 28.077000 5.949000 -5.401000
v 28.577000 5.949000 -11.484000
v 28.577000 5.949000 -5.347000
v 29.077000 5.949000 -11.971000
v 29.077000 5.949000 -5.267000
v 29.577000 5.949000 -12.193000
v 29.577000 5.949000 -5.242000
v 30.077000 5.949000 -11.898000
v 30.077000 5.949000 -5.270000
v 30.577000 5.949000 -10.296000
v 30.577000 5.949000 -5.255000
v 31.077000 5.949000 -9.045000
v 31.077000 5.949000 -5.358000
v 31.577000 5.949000 -8.554000
v 31.577000 5.949000 -5.709000
v 27.577000 4.201000 -11.608000
v 27.577000 4.785000 -11.608000
v 28.077000 3.653000 -11.608000
v 28.077000 5.533000 -11.608000
v 28.577000 3.489000 -11.608000
v 28.577000 5.901000 -11.608000
v 29.077000 3.359000 -11.608000
v 29.077000 6.030000 -11.608000
v 29.577000 3.293000 -11.608000
v 29.577000 6.091000 -11.608000
v 30.077000 3.395000 -11.608000
v 30.077000 5.989000 -11.608000
v 30.577000 3.740000 -11.608000
v 30.577000 5.644000 -11.608000
v 25.577000 3.251000 -7.608000
v 25.577000 5.090000 -7.608000
v 26.077000 2.792000 -7.608000
v 26.077000 5.649000 -7.608000
v 26.577000 2.490000 -7.608000
v 26.577000 5.999000 -7.608000
v 27.077000 2.387000 -7.608000
v 27.077000 6.204000 -7.608000
v 27.577000 2.486000 -7.608000
v 27.577000 6.389000 -7.608000
v 28.077000 2.818000 -7.608000
v 28.077000 6.713000 -7.608000
v 28.577000 3.215000 -7.608000
v 28.577000 7.115000 -7.608000
v 29.077000 3.658000 -7.608000
v 29.077000 7.450000 -7.608000
v 29.577000 3.894000 -7.608000
v 29.577000 7.558000 -7.608000
v 30.077000 4.161000 -7.608000
v 30.077000 7.606000 -7.608000
v 30.577000 4.293000 -7.608000
v 30.577000 7.520000 -7.608000
v 31.077000 4.384000 -7.608000
v 31.077000 7.202000 -7.608000
v 31.577000 4.702000 -7.608000
v 31.577000 6.695000 -7.608000
v 25.819000 2.449000 -11.108000
v 27.318000 2.449000 -11.108000
v 25.412000 2.449000 -10.608000
v 27.704000 2.449000 -10.608000
v 25.000000 2.449000 -10.108000
v 27.812000 2.449000 -10.108000
v 24.869000 2.449000 -9.608000
v 27.740000 2.449000 -9.608000
v 24.919000 2.449000 -9.108000
v 27.774000 2.449000 -9.108000
v 25.042000 2.449000 -8.608000
v 27.716000 2.449000 -8.608000
v 25.529000 2.449000 -8.108000
v 27.747000 2.449000 -8.108000
v 26.685000 2.449000 -7.608000
v 27.477000 2.449000 -7.608000
v 29.132000 6.449000 -10.108000
v 30.063000 6.449000 -10.108000
v 28.908000 6.449000 -9.608000
v 30.331000 6.449000 -9.608000
v 28.722000 6.449000 -9.108000
v 30.664000 6.449000 -9.108000
v 28.181000 6.449000 -8.608000
v 31.196000 6.449000 -8.608000
v 27.906000 6.449000 -8.108000
v 31.655000 6.449000 -8.108000
v 27.693000 6.449000 -7.608000
v 31.775000 6.449000 -7.608000
v 27.137000 6.449000 -7.108000
v 31.761000 6.449000 -7.108000
v 26.953000 6.449000 -6.608000
v 31.748000 6.449000 -6.608000
v 27.258000 6.449000 -6.108000
v 31.625000 6.449000 -6.108000
v 28.905000 6.449000 -5.608000
v 31.162000 6.449000 -5.608000
v 25.077000 2.449000 -10.236000
v 25.077000 2.449000 -8.544000
v 25.577000 2.449000 -10.851000
v 25.577000 2.449000 -8.084000
v 26.077000 2.449000 -11.263000
v 26.077000 2.449000 -7.932000
v 26.577000 2.449000 -11.368000
v 26.577000 2.449000 -7.695000
v 27.077000 2.449000 -11.256000
v 27.077000 2.449000 -7.478000
v 27.577000 2.449000 -10.828000
v 27.577000 2.449000 -7.698000
v 27.077000 6.449000 -7.037000
v 27.077000 6.449000 -6.275000
v 27.577000 6.449000 -7.439000
v 27.577000 6.449000 -6.014000
v 28.077000 6.449000 -8.501000
v 28.077000 6.449000 -5.949000
v 28.577000 6.449000 -8.943000
v 28.577000 6.449000 -5.773000
v 29.077000 6.449000 -10.051000
v 29.077000 6.449000 -5.521000
v 29.577000 6.449000 -10.289000
v 29.577000 6.449000 -5.423000
v 30.077000 6.449000 -10.096000
v 30.077000 6.449000 -5.455000
v 30.577000 6.449000 -9.206000
v 30.577000 6.449000 -5.441000
v 31.077000 6.449000 -8.704000
v 31.077000 6.449000 -5.562000
v 31.577000 6.449000 -8.245000
v 31.577000 6.449000 -6.019000
v 25.577000 2.884000 -11.108000
v 25.577000 3.490000 -11.108000
v 26.077000 2.251000 -11.108000
v 26.077000 5.065000 -11.108000
v 26.577000 2.125000 -11.108000
v 26.577000 5.197000 -11.108000
v 27.077000 2.260000 -11.108000
v 27.077000 5.202000 -11.108000
v 27.577000 2.791000 -11.108000
v 27.577000 5.387000 -11.108000
v 28.077000 3.132000 -11.108000
v 28.077000 5.708000 -11.108000
v 28.577000 3.220000 -11.108000
v 28.577000 6.016000 -11.108000
v 29.077000 3.263000 -11.108000
v 29.077000 6.107000 -11.108000
v 29.577000 3.253000 -11.108000
v 29.577000 6.098000 -11.108000
v 30.077000 3.350000 -11.108000
v 30.077000 5.987000 -11.108000
v 30.577000 3.685000 -11.108000
v 30.577000 5.621000 -11.108000
v 25.577000 3.943000 -7.108000
v 25.577000 4.457000 -7.108000
v 26.077000 3.272000 -7.108000
v 26.077000 5.362000 -7.108000
v 26.577000 2.848000 -7.108000
v 26.577000 6.074000 -7.108000
v 27.077000 2.669000 -7.108000
v 27.077000 6.425000 -7.108000
v 27.577000 2.696000 -7.108000
v 27.577000 6.555000 -7.108000
v 28.077000 2.899000 -7.108000
v 28.077000 6.780000 -7.108000
v 28.577000 3.262000 -7.108000
v 28.577000 7.260000 -7.108000
v 29.077000 3.655000 -7.108000
v 29.077000 7.567000 -7.108000
v 29.577000 3.857000 -7.108000
v 29.577000 7.646000 -7.108000
v 30.077000 4.135000 -7.108000
v 30.077000 7.626000 -7.108000
v 30.577000 4.303000 -7.108000
v 30.577000 7.526000 -7.108000
v 31.077000 4.408000 -7.108000
v 31.077000 7.185000 -7.108000
v 31.577000 4.740000 -7.108000
v 31.577000 6.687000 -7.108000
v 25.561000 2.949000 -11.108000
v 27.735000 2.949000 -11.108000
v 25.154000 2.949000 -10.608000
v 28.529000 2.949000 -10.608000
v 24.789000 2.949000 -10.108000
v 28.717000 2.949000 -10.108000
v 24.677000 2.949000 -9.608000
v 28.677000 2.949000 -9.608000
v 24.702000 2.949000 -9.108000
v 28.768000 2.949000 -9.108000
v 24.803000 2.949000 -8.608000
v 28.549000 2.949000 -8.608000
v 25.153000 2.949000 -8.108000
v 28.339000 2.949000 -8.108000
v 25.912000 2.949000 -7.608000
v 28.249000 2.949000 -7.608000
v 26.442000 2.949000 -7.108000
v 28.160000 2.949000 -7.108000
v 26.825000 2.949000 -6.608000
v 28.242000 2.949000 -6.608000
v 27.108000 2.949000 -6.108000
v 27.993000 2.949000 -6.108000
v 29.351000 6.949000 -8.608000
v 30.796000 6.949000 -8.608000
v 28.676000 6.949000 -8.108000
v 31.190000 6.949000 -8.108000
v 28.378000 6.949000 -7.608000
v 31.297000 6.949000 -7.608000
v 28.286000 6.949000 -7.108000
v 31.284000 6.949000 -7.108000
v 28.359000 6.949000 -6.608000
v 31.244000 6.949000 -6.608000
v 28.796000 6.949000 -6.108000
v 30.966000 6.949000 -6.108000
v 25.077000 2.949000 -10.535000
v 25.077000 2.949000 -8.183000
v 25.577000 2.949000 -11.124000
v 25.577000 2.949000 -7.810000
v 26.077000 2.949000 -11.452000
v 26.077000 2.949000 -7.470000
v 26.577000 2.949000 -11.543000
v 26.577000 2.949000 -6.967000
v 27.077000 2.949000 -11.446000
v 27.077000 2.949000 -6.136000
v 27.577000 2.949000 -11.208000
v 27.577000 2.949000 -5.948000
v 28.077000 2.949000 -10.909000
v 28.077000 2.949000 -6.190000
v 28.577000 2.949000 -10.553000
v 28.577000 2.949000 -8.647000
v 28.577000 6.949000 -8.017000
v 28.577000 6.949000 -6.306000
v 29.077000 6.949000 -8.384000
v 29.077000 6.949000 -5.944000
v 29.577000 6.949000 -8.783000
v 29.577000 6.949000 -5.844000
v 30.077000 6.949000 -8.888000
v 30.077000 6.949000 -5.883000
v 30.577000 6.949000 -8.736000
v 30.577000 6.949000 -5.934000
v 31.077000 6.949000 -8.316000
v 31.077000 6.949000 -6.218000
v 25.077000 3.891000 -10.608000
v 25.077000 4.534000 -10.608000
v 25.577000 2.266000 -10.608000
v 25.577000 5.131000 -10.608000
v 26.077000 1.923000 -10.608000
v 26.077000 5.419000 -10.608000
v 26.577000 1.828000 -10.608000
v 26.577000 5.516000 -10.608000
v 27.077000 1.929000 -10.608000
v 27.077000 5.527000 -10.608000
v 27.577000 2.292000 -10.608000
v 27.577000 5.566000 -10.608000
v 28.077000 2.762000 -10.608000
v 28.077000 5.735000 -10.608000
v 28.577000 2.969000 -10.608000
v 28.577000 6.004000 -10.608000
v 29.077000 3.186000 -10.608000
v 29.077000 6.202000 -10.608000
v 29.577000 3.306000 -10.608000
v 29.577000 6.255000 -10.608000
v 30.077000 3.411000 -10.608000
v 30.077000 6.146000 -10.608000
v 30.577000 3.758000 -10.608000
v 30.577000 5.728000 -10.608000
v 26.077000 3.850000 -6.608000
v 26.077000 4.901000 -6.608000
v 26.577000 3.132000 -6.608000
v 26.577000 6.167000 -6.608000
v 27.077000 2.839000 -6.608000
v 27.077000 6.506000 -6.608000
v 27.577000 2.767000 -6.608000
v 27.577000 6.614000 -6.608000
v 28.077000 2.869000 -6.608000
v 28.077000 6.769000 -6.608000
v 28.577000 3.193000 -6.608000
v 28.577000 7.153000 -6.608000
v 29.077000 3.491000 -6.608000
v 29.077000 7.487000 -6.608000
v 29.577000 3.808000 -6.608000
v 29.577000 7.571000 -6.608000
v 30.077000 4.168000 -6.608000
v 30.077000 7.541000 -6.608000
v 30.577000 4.314000 -6.608000
v 30.577000 7.434000 -6.608000
v 31.077000 4.422000 -6.608000
v 31.077000 7.082000 -6.608000
v 31.577000 4.765000 -6.608000
v 31.577000 6.675000 -6.608000
v 29.183000 3.449000 -12.108000
v 29.918000 3.449000 -12.108000
v 28.729000 3.449000 -11.608000
v 30.194000 3.449000 -11.608000
v 25.573000 3.449000 -11.108000
v 30.280000 3.449000 -11.108000
v 25.144000 3.449000 -10.608000
v 30.162000 3.449000 -10.608000
v 24.782000 3.449000 -10.108000
v 29.948000 3.449000 -10.108000
v 24.671000 3.449000 -9.608000
v 29.558000 3.449000 -9.608000
v 24.666000 3.449000 -9.108000
v 29.342000 3.449000 -9.108000
v 24.770000 3.449000 -8.608000
v 29.247000 3.449000 -8.608000
v 25.004000 3.449000 -8.108000
v 29.002000 3.449000 -8.108000
v 25.443000 3.449000 -7.608000
v 28.800000 3.449000 -7.608000
v 25.871000 3.449000 -7.108000
v 28.795000 3.449000 -7.108000
v 26.284000 3.449000 -6.608000
v 28.988000 3.449000 -6.608000
v 26.472000 3.449000 -6.108000
v 29.222000 3.449000 -6.108000
v 26.934000 3.449000 -5.608000
v 29.014000 3.449000 -5.608000
v 29.635000 7.449000 -8.108000
v 30.550000 7.449000 -8.108000
v 29.076000 7.449000 -7.608000
v 30.736000 7.449000 -7.608000
v 28.826000 7.449000 -7.108000
v 30.737000 7.449000 -7.108000
v 28.987000 7.449000 -6.608000
v 30.539000 7.449000 -6.608000
v 25.077000 3.449000 -10.545000
v 25.077000 3.449000 -8.005000
v 25.577000 3.449000 -11.111000
v 25.577000 3.449000 -7.418000
v 26.077000 3.449000 -11.436000
v 26.077000 3.449000 -6.914000
v 26.577000 3.449000 -11.526000
v 26.577000 3.449000 -5.935000
v 27.077000 3.449000 -11.478000
v 27.077000 3.449000 -5.535000
v 27.577000 3.449000 -11.434000
v 27.577000 3.449000 -5.431000
v 28.077000 3.449000 -11.434000
v 28.077000 3.449000 -5.433000
v 28.577000 3.449000 -11.531000
v 28.577000 3.449000 -5.437000
v 29.077000 3.449000 -12.016000
v 29.077000 3.449000 -8.231000
v 29.077000 3.449000 -6.494000
v 29.077000 3.449000 -5.674000
v 29.577000 3.449000 -12.223000
v 29.577000 3.449000 -9.635000
v 30.077000 3.449000 -11.951000
v 30.077000 3.449000 -10.263000
v 29.077000 7.449000 -7.609000
v 29.077000 7.449000 -6.516000
v 29.577000 7.449000 -8.041000
v 29.577000 7.449000 -6.345000
v 30.077000 7.449000 -8.298000
v 30.077000 7.449000 -6.408000
v 30.577000 7.449000 -8.079000
v 30.577000 7.449000 -6.649000
v 25.077000 2.351000 -10.108000
v 25.077000 5.119000 -10.108000
v 25.577000 1.993000 -10.108000
v 25.577000 5.449000 -10.108000
v 26.077000 1.834000 -10.108000
v 26.077000 5.615000 -10.108000
v 26.577000 1.754000 -10.108000
v 26.577000 5.735000 -10.108000
v 27.077000 1.850000 -10.108000
v 27.077000 5.698000 -10.108000
v 27.577000 2.183000 -10.108000
v 27.577000 5.666000 -10.108000
v 28.077000 2.662000 -10.108000
v 28.077000 5.766000 -10.108000
v 28.577000 2.884000 -10.108000
v 28.577000 6.081000 -10.108000
v 29.077000 3.174000 -10.108000
v 29.077000 6.427000 -10.108000
v 29.577000 3.348000 -10.108000
v 29.577000 6.535000 -10.108000
v 30.077000 3.498000 -10.108000
v 30.077000 6.444000 -10.108000
v 30.577000 3.879000 -10.108000
v 30.577000 6.093000 -10.108000
v 26.577000 3.313000 -6.108000
v 26.577000 5.997000 -6.108000
v 27.077000 2.961000 -6.108000
v 27.077000 6.386000 -6.108000
v 27.577000 2.872000 -6.108000
v 27.577000 6.494000 -6.108000
v 28.077000 2.983000 -6.108000
v 28.077000 6.540000 -6.108000
v 28.577000 3.225000 -6.108000
v 28.577000 6.764000 -6.108000
v 29.077000 3.384000 -6.108000
v 29.077000 7.160000 -6.108000
v 29.577000 3.712000 -6.108000
v 29.577000 7.271000 -6.108000
v 30.077000 4.180000 -6.108000
v 30.077000 7.225000 -6.108000
v 30.577000 4.401000 -6.108000
v 30.577000 7.095000 -6.108000
v 31.077000 4.534000 -6.108000
v 31.077000 6.906000 -6.108000
v 31.577000 4.924000 -6.108000
v 31.577000 6.516000 -6.108000
v 28.960000 3.949000 -12.608000
v 30.140000 3.949000 -12.608000
v 28.455000 3.949000 -12.108000
v 30.612000 3.949000 -12.108000
v 27.671000 3.949000 -11.608000
v 30.737000 3.949000 -11.608000
v 25.589000 3.949000 -11.108000
v 30.776000 3.949000 -11.108000
v 25.059000 3.949000 -10.608000
v 30.724000 3.949000 -10.608000
v 24.742000 3.949000 -10.108000
v 30.630000 3.949000 -10.108000
v 24.657000 3.949000 -9.608000
v 30.386000 3.949000 -9.608000
v 24.673000 3.949000 -9.108000
v 30.266000 3.949000 -9.108000
v 24.721000 3.949000 -8.608000
v 30.042000 3.949000 -8.608000
v 24.831000 3.949000 -8.108000
v 29.725000 3.949000 -8.108000
v 25.182000 3.949000 -7.608000
v 29.695000 3.949000 -7.608000
v 25.575000 3.949000 -7.108000
v 29.777000 3.949000 -7.108000
v 26.050000 3.949000 -6.608000
v 29.745000 3.949000 -6.608000
v 26.274000 3.949000 -6.108000
v 29.795000 3.949000 -6.108000
v 26.630000 3.949000 -5.608000
v 29.663000 3.949000 -5.608000
v 27.474000 3.949000 -5.108000
v 29.252000 3.949000 -5.108000
v 25.077000 3.949000 -10.626000
v 25.077000 3.949000 -7.716000
v 25.577000 3.949000 -11.096000
v 25.577000 3.949000 -7.106000
v 26.077000 3.949000 -11.415000
v 26.077000 3.949000 -6.565000
v 26.577000 3.949000 -11.502000
v 26.577000 3.949000 -5.658000
v 27.077000 3.949000 -11.482000
v 27.077000 3.949000 -5.330000
v 27.577000 3.949000 -11.576000
v 27.577000 3.949000 -5.049000
v 28.077000 3.949000 -11.804000
v 28.077000 3.949000 -4.918000
v 28.577000 3.949000 -12.257000
v 28.577000 3.949000 -4.896000
v 29.077000 3.949000 -12.666000
v 29.077000 3.949000 -5.007000
v 29.577000 3.949000 -12.765000
v 29.577000 3.949000 -5.445000
v 30.077000 3.949000 -12.642000
v 30.077000 3.949000 -8.642000
v 30.577000 3.949000 -12.174000
v 30.577000 3.949000 -10.000000
v 25.077000 2.191000 -9.608000
v 25.077000 5.233000 -9.608000
v 25.577000 1.876000 -9.608000
v 25.577000 5.582000 -9.608000
v 26.077000 1.792000 -9.608000
v 26.077000 5.909000 -9.608000
v 26.577000 1.809000 -9.608000
v 26.577000 6.019000 -9.608000
v 27.077000 1.918000 -9.608000
v 27.077000 5.935000 -9.608000
v 27.577000 2.276000 -9.608000
v 27.577000 5.841000 -9.608000
v 28.077000 2.703000 -9.608000
v 28.077000 5.927000 -9.608000
v 28.577000 2.903000 -9.608000
v 28.577000 6.215000 -9.608000
v 29.077000 3.202000 -9.608000
v 29.077000 6.530000 -9.608000
v 29.577000 3.459000 -9.608000
v 29.577000 6.637000 -9.608000
v 30.077000 3.754000 -9.608000
v 30.077000 6.569000 -9.608000
v 30.577000 4.141000 -9.608000
v 30.577000 6.257000 -9.608000
v 26.577000 4.443000 -5.608000
v 26.577000 5.030000 -5.608000
v 27.077000 3.348000 -5.608000
v 27.077000 5.977000 -5.608000
v 27.577000 3.221000 -5.608000
v 27.577000 6.134000 -5.608000
v 28.077000 3.318000 -5.608000
v 28.077000 6.194000 -5.608000
v 28.577000 3.373000 -5.608000
v 28.577000 6.294000 -5.608000
v 29.077000 3.473000 -5.608000
v 29.077000 6.568000 -5.608000
v 29.577000 3.836000 -5.608000
v 29.577000 6.694000 -5.608000
v 30.077000 4.465000 -5.608000
v 30.077000 6.656000 -5.608000
v 30.577000 4.750000 -5.608000
v 30.577000 6.670000 -5.608000
v 31.077000 4.927000 -5.608000
v 31.077000 6.513000 -5.608000
f 155 735 783
f 783 735 49
f 49 735 1
f 49 1 143
f 143 1 95
f 143 95 233
f 233 95 187
f 187 156 233
f 785 157 783
f 783 157 155
f 783 51 785
f 783 49 51
f 49 145 51
f 49 143 145
f 143 235 145
f 143 233 235
f 233 156 235
f 235 156 158
f 787 159 785
f 785 159 157
f 785 53 787
f 785 51 53
f 51 147 53
f 51 145 147
f 145 237 147
f 145 235 237
f 235 158 237
f 237 158 160
f 787 736 159
f 736 787 2
f 2 787 53
f 2 53 96
f 96 53 147
f 96 147 188
f 188 147 237
f 237 160 188
f 161 405 59
f 59 405 403
f 405 519 403
f 521 519 405
f 521 633 519
f 635 633 521
f 635 749 633
f 751 749 635
f 751 15 749
f 17 15 751
f 17 109 15
f 111 109 17
f 111 162 109
f 109 162 60
f 324 289 61
f 59 289 324
f 163 59 324
f 161 59 163
f 201 60 162
f 201 162 203
f 203 164 201
f 201 164 62
f 324 61 291
f 61 165 291
f 61 63 165
f 163 324 291
f 307 62 164
f 307 164 309
f 309 166 307
f 307 166 64
f 167 63 65
f 167 165 63
f 64 168 66
f 166 168 64
f 292 167 330
f 167 67 330
f 167 65 67
f 169 292 330
f 66 170 68
f 168 170 66
f 290 330 67
f 169 330 290
f 69 169 290
f 171 169 69
f 68 172 70
f 170 172 68
f 69 404 171
f 171 404 406
f 173 406 404
f 173 404 71
f 70 174 72
f 172 174 70
f 522 173 560
f 173 73 560
f 173 71 73
f 175 522 560
f 174 417 449
f 74 174 449
f 72 174 74
f 417 176 449
f 520 560 73
f 175 560 520
f 75 175 520
f 177 175 75
f 449 415 74
f 449 176 415
f 176 76 415
f 176 178 76
f 75 634 177
f 177 634 636
f 179 636 634
f 179 634 77
f 178 533 565
f 78 178 565
f 76 178 78
f 533 180 565
f 752 179 788
f 179 79 788
f 179 77 79
f 181 752 788
f 567 80 78
f 567 78 565
f 565 180 567
f 567 180 182
f 750 788 79
f 181 788 750
f 81 181 750
f 183 181 81
f 569 82 80
f 569 80 567
f 567 182 569
f 569 182 184
f 81 16 183
f 183 16 18
f 110 151 185
f 18 110 185
f 16 110 18
f 83 151 110
f 308 351 84
f 416 459 351
f 416 351 308
f 569 534 82
f 82 534 416
f 534 186 416
f 186 459 416
f 569 184 534
f 151 112 185
f 83 202 151
f 202 112 151
f 202 204 112
f 351 310 84
f 310 202 84
f 310 204 202
f 310 351 418
f 418 351 459
f 459 186 418
f 778 765 85
f 44 31 778
f 778 31 765
f 138 125 44
f 44 125 31
f 228 217 138
f 138 217 125
f 228 86 217
f 87 780 85
f 85 780 778
f 46 778 780
f 44 778 46
f 140 44 46
f 138 44 140
f 230 138 140
f 228 138 230
f 86 228 88
f 88 228 230
f 89 782 87
f 87 782 780
f 48 780 782
f 46 780 48
f 142 46 48
f 140 46 142
f 232 140 142
f 230 140 232
f 88 230 90
f 90 230 232
f 91 784 89
f 89 784 782
f 50 782 784
f 48 782 50
f 144 48 50
f 142 48 144
f 234 142 144
f 232 142 234
f 90 232 92
f 92 232 234
f 766 784 91
f 32 50 766
f 766 50 784
f 93 146 32
f 146 50 32
f 146 144 50
f 218 234 94
f 234 146 94
f 234 144 146
f 92 234 218
f 126 146 93
f 94 146 126
f 245 737 781
f 781 737 47
f 47 737 3
f 47 3 141
f 141 3 97
f 141 97 231
f 231 97 189
f 189 246 231
f 735 155 781
f 155 245 781
f 155 247 245
f 47 1 735
f 47 735 781
f 141 95 1
f 141 1 47
f 231 187 95
f 231 95 141
f 231 246 187
f 246 156 187
f 246 248 156
f 249 621 677
f 157 677 621
f 247 157 621
f 155 157 247
f 248 293 345
f 158 248 345
f 156 248 158
f 293 250 345
f 677 622 249
f 251 622 677
f 157 251 677
f 159 251 157
f 158 345 294
f 252 158 294
f 160 158 252
f 345 250 294
f 789 253 736
f 253 159 736
f 253 251 159
f 2 55 789
f 2 789 736
f 96 149 55
f 96 55 2
f 188 239 149
f 188 149 96
f 188 160 239
f 160 254 239
f 160 252 254
f 789 738 253
f 738 789 4
f 4 789 55
f 4 55 98
f 98 55 149
f 98 149 190
f 190 149 239
f 239 254 190
f 432 405 161
f 546 521 432
f 432 521 405
f 255 637 546
f 637 521 546
f 637 635 521
f 637 751 635
f 753 751 637
f 753 17 751
f 19 17 753
f 19 111 17
f 113 111 19
f 113 256 111
f 111 256 162
f 432 161 407
f 161 257 407
f 161 163 257
f 432 407 523
f 432 523 546
f 255 546 523
f 203 162 256
f 203 256 205
f 205 258 203
f 203 258 164
f 326 291 165
f 163 291 326
f 259 163 326
f 257 163 259
f 260 332 309
f 164 260 309
f 258 260 164
f 332 166 309
f 167 328 165
f 165 328 326
f 259 326 328
f 259 328 261
f 311 332 260
f 311 262 332
f 262 166 332
f 262 168 166
f 292 328 167
f 261 328 292
f 169 261 292
f 263 261 169
f 168 264 170
f 262 264 168
f 265 169 171
f 265 263 169
f 170 266 172
f 264 266 170
f 171 406 265
f 265 406 408
f 267 408 406
f 267 406 173
f 266 419 447
f 174 266 447
f 172 266 174
f 419 268 447
f 173 522 267
f 267 522 524
f 269 524 522
f 269 522 175
f 447 417 174
f 447 268 417
f 268 176 417
f 268 270 176
f 638 269 674
f 269 177 674
f 269 175 177
f 271 638 674
f 270 535 563
f 178 270 563
f 176 270 178
f 535 272 563
f 636 674 177
f 271 674 636
f 179 271 636
f 273 271 179
f 563 533 178
f 563 272 533
f 272 180 533
f 272 274 180
f 179 752 273
f 273 752 754
f 275 754 752
f 275 752 181
f 274 649 685
f 182 274 685
f 180 274 182
f 649 276 685
f 277 181 183
f 277 275 181
f 182 685 650
f 278 182 650
f 184 182 278
f 685 276 650
f 183 18 277
f 277 18 20
f 279 20 18
f 279 18 185
f 534 571 186
f 534 184 571
f 184 280 571
f 184 278 280
f 153 281 112
f 281 185 112
f 281 279 185
f 204 243 153
f 204 153 112
f 310 353 243
f 310 243 204
f 418 461 353
f 418 353 310
f 571 536 186
f 186 536 418
f 536 282 418
f 282 461 418
f 571 280 536
f 153 114 281
f 114 153 206
f 206 153 243
f 206 243 312
f 312 243 353
f 312 353 420
f 420 353 461
f 461 282 420
f 355 5 43
f 5 356 43
f 357 739 779
f 355 43 739
f 43 779 739
f 43 45 779
f 99 139 356
f 139 43 356
f 139 45 43
f 139 99 229
f 229 99 191
f 191 358 229
f 737 245 779
f 245 357 779
f 245 359 357
f 45 3 737
f 45 737 779
f 139 97 3
f 139 3 45
f 229 189 97
f 229 97 139
f 229 358 189
f 358 246 189
f 358 360 246
f 361 623 673
f 247 673 623
f 359 247 623
f 245 247 359
f 360 295 343
f 248 360 343
f 246 360 248
f 295 362 343
f 621 249 673
f 249 361 673
f 249 363 361
f 673 247 621
f 343 293 248
f 343 362 293
f 362 250 293
f 362 364 250
f 679 365 622
f 365 249 622
f 365 363 249
f 251 679 622
f 294 347 252
f 294 250 347
f 250 366 347
f 250 364 366
f 679 624 365
f 367 624 679
f 251 367 679
f 253 367 251
f 252 347 296
f 368 252 296
f 254 252 368
f 347 366 296
f 253 738 367
f 367 738 740
f 4 740 738
f 4 6 740
f 98 6 4
f 98 100 6
f 190 100 98
f 190 192 100
f 190 254 192
f 192 254 368
f 658 637 255
f 768 753 658
f 658 753 637
f 34 19 768
f 768 19 753
f 128 113 34
f 34 113 19
f 128 256 113
f 434 407 257
f 548 523 434
f 434 523 407
f 639 658 255
f 639 255 523
f 369 639 523
f 548 369 523
f 658 639 755
f 658 755 768
f 768 755 21
f 768 21 34
f 34 21 115
f 34 115 128
f 370 220 205
f 370 205 256
f 115 370 256
f 128 115 256
f 220 258 205
f 259 436 257
f 257 436 434
f 436 371 525
f 548 436 525
f 434 436 548
f 369 548 525
f 207 220 370
f 207 372 220
f 372 258 220
f 372 260 258
f 261 438 259
f 259 438 436
f 371 436 438
f 371 438 373
f 311 260 372
f 311 372 313
f 313 374 311
f 311 374 262
f 438 261 409
f 261 375 409
f 261 263 375
f 373 438 409
f 262 376 264
f 374 376 262
f 410 375 442
f 375 265 442
f 375 263 265
f 377 410 442
f 264 378 266
f 376 378 264
f 408 442 265
f 377 442 408
f 267 377 408
f 379 377 267
f 419 266 378
f 419 378 421
f 421 380 419
f 419 380 268
f 267 524 379
f 379 524 526
f 381 526 524
f 381 524 269
f 380 537 561
f 270 380 561
f 268 380 270
f 537 382 561
f 269 638 381
f 381 638 640
f 383 640 638
f 383 638 271
f 561 535 270
f 382 651 681
f 382 681 272
f 561 382 272
f 535 561 272
f 651 384 681
f 385 271 273
f 385 383 271
f 683 274 272
f 683 272 681
f 681 384 683
f 683 384 386
f 273 754 385
f 385 754 756
f 387 756 754
f 387 754 275
f 683 649 274
f 683 386 649
f 386 276 649
f 386 388 276
f 389 275 277
f 389 387 275
f 650 687 278
f 650 276 687
f 276 390 687
f 276 388 390
f 57 391 20
f 391 277 20
f 391 389 277
f 279 57 20
f 278 687 652
f 392 278 652
f 280 278 392
f 687 390 652
f 57 22 391
f 393 22 57
f 279 393 57
f 281 393 279
f 538 394 282
f 538 282 536
f 536 280 538
f 538 280 392
f 281 114 393
f 393 114 116
f 206 116 114
f 206 208 116
f 312 208 206
f 312 314 208
f 420 314 312
f 420 422 314
f 420 282 422
f 422 282 394
f 463 511 547
f 547 511 659
f 659 511 625
f 625 464 659
f 465 395 435
f 463 547 395
f 547 435 395
f 547 549 435
f 547 661 549
f 547 659 661
f 741 771 464
f 771 659 464
f 771 661 659
f 771 741 37
f 37 741 7
f 37 7 131
f 131 7 101
f 101 466 131
f 437 467 435
f 435 467 465
f 435 551 437
f 435 549 551
f 549 663 551
f 549 661 663
f 661 773 663
f 661 771 773
f 771 39 773
f 771 37 39
f 37 133 39
f 37 131 133
f 131 466 133
f 133 466 468
f 439 469 437
f 437 469 467
f 437 553 439
f 437 551 553
f 551 665 553
f 551 663 665
f 663 775 665
f 663 773 775
f 773 41 775
f 773 39 41
f 39 135 41
f 39 133 135
f 133 468 135
f 135 468 470
f 439 396 469
f 396 439 471
f 439 555 471
f 439 553 555
f 553 667 555
f 553 665 667
f 665 777 667
f 665 775 777
f 41 5 355
f 777 41 355
f 775 41 777
f 137 356 5
f 41 137 5
f 135 137 41
f 135 470 137
f 137 470 472
f 555 512 471
f 512 555 473
f 555 669 473
f 555 667 669
f 777 739 357
f 669 777 357
f 667 777 669
f 777 355 739
f 137 99 356
f 99 137 472
f 193 99 472
f 191 99 193
f 193 474 191
f 191 474 358
f 671 475 669
f 669 475 473
f 669 357 359
f 669 359 671
f 474 297 341
f 360 474 341
f 358 474 360
f 297 476 341
f 623 361 671
f 361 475 671
f 361 477 475
f 671 359 623
f 341 295 360
f 341 476 295
f 476 362 295
f 476 478 362
f 479 361 363
f 479 477 361
f 362 480 364
f 478 480 362
f 481 363 365
f 481 479 363
f 364 482 366
f 480 482 364
f 365 624 481
f 481 624 626
f 483 626 624
f 483 624 367
f 298 484 368
f 298 368 296
f 296 366 298
f 298 366 482
f 367 740 483
f 483 740 742
f 6 742 740
f 6 8 742
f 100 8 6
f 100 102 8
f 192 102 100
f 192 194 102
f 192 368 194
f 194 368 484
f 660 639 369
f 485 757 660
f 757 639 660
f 757 755 639
f 757 21 755
f 23 21 757
f 130 115 486
f 115 23 486
f 115 21 23
f 130 370 115
f 550 525 371
f 641 660 369
f 641 369 525
f 487 641 525
f 550 487 525
f 485 660 641
f 117 130 486
f 488 222 207
f 488 207 370
f 117 488 370
f 130 117 370
f 222 372 207
f 550 371 527
f 371 489 527
f 371 373 489
f 487 550 527
f 209 222 488
f 313 372 222
f 209 313 222
f 315 313 209
f 315 490 313
f 313 490 374
f 440 409 375
f 373 409 440
f 491 373 440
f 489 373 491
f 374 492 376
f 490 492 374
f 410 440 375
f 491 440 410
f 377 491 410
f 493 491 377
f 492 423 445
f 378 492 445
f 376 492 378
f 423 494 445
f 495 377 379
f 495 493 377
f 445 421 378
f 445 494 421
f 494 380 421
f 494 496 380
f 379 526 495
f 495 526 528
f 497 528 526
f 497 526 381
f 537 380 496
f 537 496 539
f 539 498 537
f 537 498 382
f 381 640 497
f 497 640 642
f 499 642 640
f 499 640 383
f 651 382 498
f 651 498 653
f 653 500 651
f 651 500 384
f 501 383 385
f 501 499 383
f 384 502 386
f 500 502 384
f 385 756 501
f 501 756 758
f 503 758 756
f 503 756 387
f 386 504 388
f 502 504 386
f 505 387 389
f 505 503 387
f 388 506 390
f 504 506 388
f 507 389 391
f 507 505 389
f 654 508 392
f 654 392 652
f 652 390 654
f 654 390 506
f 391 22 507
f 507 22 24
f 509 24 22
f 509 22 393
f 540 510 394
f 540 394 538
f 538 392 540
f 540 392 508
f 393 116 509
f 509 116 118
f 208 118 116
f 208 210 118
f 314 210 208
f 314 316 210
f 422 316 314
f 422 424 316
f 422 394 424
f 424 394 510
f 573 743 767
f 767 743 33
f 33 743 9
f 9 574 33
f 575 397 433
f 433 397 463
f 397 511 463
f 397 513 511
f 513 625 511
f 627 625 513
f 767 769 464
f 627 767 464
f 625 627 464
f 767 627 573
f 767 35 769
f 767 33 35
f 103 129 574
f 129 33 574
f 129 35 33
f 103 576 129
f 577 283 325
f 575 433 283
f 283 433 325
f 433 395 325
f 395 465 325
f 433 463 395
f 769 741 464
f 35 7 741
f 35 741 769
f 129 101 7
f 129 7 35
f 129 576 101
f 576 466 101
f 576 578 466
f 327 579 325
f 325 579 577
f 325 465 467
f 325 467 327
f 578 195 223
f 468 578 223
f 466 578 468
f 195 580 223
f 329 581 327
f 327 581 579
f 327 467 469
f 327 469 329
f 225 470 468
f 225 468 223
f 223 580 225
f 225 580 582
f 329 284 581
f 441 583 396
f 396 583 469
f 583 284 469
f 284 329 469
f 471 441 396
f 227 472 470
f 227 470 225
f 225 582 227
f 227 582 584
f 441 398 583
f 557 585 512
f 512 585 471
f 585 398 471
f 398 441 471
f 473 557 512
f 227 193 472
f 227 584 193
f 584 474 193
f 584 586 474
f 557 514 585
f 587 514 557
f 473 587 557
f 475 587 473
f 297 474 586
f 297 586 299
f 299 588 297
f 297 588 476
f 589 475 477
f 589 587 475
f 476 590 478
f 588 590 476
f 591 477 479
f 591 589 477
f 478 592 480
f 590 592 478
f 593 479 481
f 593 591 479
f 480 594 482
f 592 594 480
f 481 626 593
f 593 626 628
f 595 628 626
f 595 626 483
f 300 596 484
f 300 484 298
f 298 482 300
f 300 482 594
f 483 742 595
f 595 742 744
f 8 744 742
f 8 10 744
f 102 10 8
f 102 104 10
f 194 104 102
f 194 196 104
f 194 484 196
f 196 484 596
f 770 757 485
f 36 23 770
f 770 23 757
f 36 486 23
f 662 641 487
f 759 770 485
f 759 485 641
f 597 759 641
f 662 597 641
f 770 759 25
f 770 25 36
f 598 132 117
f 598 117 486
f 25 598 486
f 36 25 486
f 132 488 117
f 552 527 489
f 643 662 487
f 643 487 527
f 599 643 527
f 552 599 527
f 597 662 643
f 119 132 598
f 209 488 132
f 119 209 132
f 211 209 119
f 211 315 209
f 317 315 211
f 317 600 315
f 315 600 490
f 552 489 529
f 489 601 529
f 489 491 601
f 599 552 529
f 600 425 443
f 492 600 443
f 490 600 492
f 425 602 443
f 603 491 493
f 603 601 491
f 443 423 492
f 443 602 423
f 602 494 423
f 602 604 494
f 605 493 495
f 605 603 493
f 494 606 496
f 604 606 494
f 495 528 605
f 605 528 530
f 607 530 528
f 607 528 497
f 539 496 606
f 539 606 541
f 541 608 539
f 539 608 498
f 497 642 607
f 607 642 644
f 609 644 642
f 609 642 499
f 653 498 608
f 653 608 655
f 655 610 653
f 653 610 500
f 611 499 501
f 611 609 499
f 500 612 502
f 610 612 500
f 501 758 611
f 611 758 760
f 613 760 758
f 613 758 503
f 502 614 504
f 612 614 502
f 615 503 505
f 615 613 503
f 656 616 688
f 688 506 656
f 506 614 656
f 506 504 614
f 617 505 507
f 617 615 505
f 508 654 688
f 616 508 688
f 618 508 616
f 506 688 654
f 507 24 617
f 617 24 26
f 619 26 24
f 619 24 509
f 542 620 510
f 542 510 540
f 540 508 542
f 542 508 618
f 509 118 619
f 619 118 120
f 210 120 118
f 210 212 120
f 316 212 210
f 316 318 212
f 424 318 316
f 424 426 318
f 424 510 426
f 426 510 620
f 689 399 431
f 431 399 545
f 545 399 515
f 545 515 657
f 657 515 629
f 657 629 573
f 629 743 573
f 629 745 743
f 745 9 743
f 11 9 745
f 574 9 127
f 9 105 127
f 9 11 105
f 105 690 127
f 397 575 431
f 575 689 431
f 575 691 689
f 545 513 397
f 545 397 431
f 657 627 513
f 657 513 545
f 657 573 627
f 127 103 574
f 127 690 103
f 690 576 103
f 690 692 576
f 693 285 577
f 577 285 283
f 575 283 285
f 575 285 691
f 692 197 221
f 578 692 221
f 576 692 578
f 197 694 221
f 695 577 579
f 695 693 577
f 221 195 578
f 221 694 195
f 694 580 195
f 694 696 580
f 697 579 581
f 697 695 579
f 580 698 582
f 696 698 580
f 581 284 697
f 697 284 286
f 699 286 284
f 699 284 583
f 582 700 584
f 698 700 582
f 583 398 699
f 699 398 400
f 701 400 398
f 701 398 585
f 584 702 586
f 700 702 584
f 559 703 514
f 703 585 514
f 703 701 585
f 587 559 514
f 299 586 702
f 299 702 301
f 301 704 299
f 299 704 588
f 559 516 703
f 705 516 559
f 587 705 559
f 589 705 587
f 588 706 590
f 704 706 588
f 707 589 591
f 707 705 589
f 706 411 453
f 592 706 453
f 590 706 592
f 411 708 453
f 630 707 680
f 707 593 680
f 707 591 593
f 709 630 680
f 592 453 412
f 710 592 412
f 594 592 710
f 453 708 412
f 628 680 593
f 709 680 628
f 595 709 628
f 711 709 595
f 300 349 596
f 300 594 349
f 594 712 349
f 594 710 712
f 595 744 711
f 711 744 746
f 10 746 744
f 10 12 746
f 104 12 10
f 104 106 12
f 196 106 104
f 196 198 106
f 349 302 596
f 302 196 596
f 302 198 196
f 349 712 302
f 772 759 597
f 38 25 772
f 772 25 759
f 38 598 25
f 713 645 599
f 599 645 643
f 761 772 597
f 643 761 597
f 645 761 643
f 772 761 27
f 772 27 38
f 119 598 38
f 27 119 38
f 121 119 27
f 121 211 119
f 213 211 121
f 213 317 211
f 319 317 213
f 319 714 317
f 317 714 600
f 554 529 601
f 599 529 554
f 715 599 554
f 713 599 715
f 716 444 425
f 600 716 425
f 714 716 600
f 444 602 425
f 554 601 531
f 601 717 531
f 601 603 717
f 715 554 531
f 427 444 716
f 427 718 444
f 718 602 444
f 718 604 602
f 532 717 558
f 717 605 558
f 717 603 605
f 719 532 558
f 604 720 606
f 718 720 604
f 530 558 605
f 719 558 530
f 607 719 530
f 721 719 607
f 722 562 541
f 606 722 541
f 720 722 606
f 562 608 541
f 675 723 644
f 723 607 644
f 723 721 607
f 609 675 644
f 543 562 722
f 724 682 655
f 724 655 608
f 543 724 608
f 562 543 608
f 682 610 655
f 675 646 723
f 725 646 675
f 609 725 675
f 611 725 609
f 726 684 682
f 726 682 724
f 610 682 612
f 612 682 684
f 611 760 725
f 725 760 762
f 727 762 760
f 727 760 613
f 728 686 684
f 728 684 726
f 612 684 614
f 614 684 686
f 729 613 615
f 729 727 613
f 616 656 686
f 728 616 686
f 730 616 728
f 614 686 656
f 28 729 58
f 729 617 58
f 729 615 617
f 731 28 58
f 544 732 572
f 572 618 544
f 618 730 544
f 618 616 730
f 26 58 617
f 731 58 26
f 619 731 26
f 733 731 619
f 620 542 572
f 732 620 572
f 734 620 732
f 618 572 542
f 619 120 733
f 733 120 122
f 212 122 120
f 212 214 122
f 318 214 212
f 318 320 214
f 426 320 318
f 426 428 320
f 426 620 428
f 428 620 734
f 791 401 689
f 689 401 399
f 401 515 399
f 517 515 401
f 517 629 515
f 631 629 517
f 631 745 629
f 747 745 631
f 747 11 745
f 13 11 747
f 13 105 11
f 107 105 13
f 107 792 105
f 105 792 690
f 793 287 323
f 691 323 287
f 791 691 287
f 689 691 791
f 792 199 219
f 692 792 219
f 690 792 692
f 199 794 219
f 285 693 323
f 693 793 323
f 693 795 793
f 323 691 285
f 219 197 692
f 219 794 197
f 794 694 197
f 794 796 694
f 797 693 695
f 797 795 693
f 796 303 333
f 696 796 333
f 694 796 696
f 303 798 333
f 799 695 697
f 799 797 695
f 696 333 304
f 800 696 304
f 698 696 800
f 333 798 304
f 697 286 799
f 799 286 288
f 801 288 286
f 801 286 699
f 698 802 700
f 800 802 698
f 699 400 801
f 801 400 402
f 803 402 400
f 803 400 701
f 700 804 702
f 802 804 700
f 805 701 703
f 805 803 701
f 301 702 804
f 301 804 305
f 305 806 301
f 301 806 704
f 703 516 805
f 805 516 518
f 807 518 516
f 807 516 705
f 806 413 451
f 706 806 451
f 704 806 706
f 413 808 451
f 632 807 678
f 807 707 678
f 807 705 707
f 809 632 678
f 451 411 706
f 451 808 411
f 808 708 411
f 808 810 708
f 630 678 707
f 809 678 630
f 709 809 630
f 811 809 709
f 412 455 710
f 412 708 455
f 708 812 455
f 708 810 812
f 748 811 790
f 811 711 790
f 811 709 711
f 813 748 790
f 710 455 414
f 814 710 414
f 712 710 814
f 455 812 414
f 746 790 711
f 790 746 813
f 746 14 813
f 746 12 14
f 106 14 12
f 106 108 14
f 198 108 106
f 198 200 108
f 302 200 198
f 302 306 200
f 302 712 306
f 306 712 814
f 664 645 713
f 774 761 664
f 664 761 645
f 815 29 774
f 29 761 774
f 29 27 761
f 29 121 27
f 123 121 29
f 224 213 816
f 213 123 816
f 213 121 123
f 334 319 224
f 224 319 213
f 334 714 319
f 664 713 647
f 713 817 647
f 713 715 817
f 664 647 763
f 664 763 774
f 815 774 763
f 215 224 816
f 224 215 321
f 224 321 334
f 321 818 334
f 818 714 334
f 818 716 714
f 556 531 717
f 715 531 556
f 819 715 556
f 817 715 819
f 820 446 427
f 716 820 427
f 818 820 716
f 446 718 427
f 532 556 717
f 819 556 532
f 719 819 532
f 821 819 719
f 822 448 446
f 822 446 820
f 718 446 720
f 720 446 448
f 823 719 721
f 823 821 719
f 824 450 448
f 824 448 822
f 720 448 722
f 722 448 450
f 648 823 676
f 823 723 676
f 823 721 723
f 825 648 676
f 429 450 824
f 826 564 543
f 826 543 722
f 429 826 722
f 450 429 722
f 564 724 543
f 646 676 723
f 825 676 646
f 725 825 646
f 827 825 725
f 828 566 564
f 828 564 826
f 724 564 726
f 726 564 566
f 725 762 827
f 827 762 764
f 762 727 54
f 30 762 54
f 764 762 30
f 829 30 54
f 830 568 566
f 830 566 828
f 726 566 728
f 728 566 568
f 729 56 727
f 727 56 54
f 829 54 56
f 829 56 831
f 832 570 568
f 832 568 830
f 728 568 730
f 730 568 570
f 28 56 729
f 831 56 28
f 731 831 28
f 833 831 731
f 732 544 570
f 832 732 570
f 834 732 832
f 730 570 544
f 124 833 154
f 833 733 154
f 833 731 733
f 124 154 244
f 124 244 216
f 216 244 354
f 216 354 322
f 322 354 462
f 322 462 430
f 462 734 430
f 734 834 430
f 734 732 834
f 122 154 733
f 214 244 122
f 122 244 154
f 320 354 214
f 214 354 244
f 428 462 320
f 320 462 354
f 734 462 428
f 59 403 791
f 791 403 401
f 403 517 401
f 519 517 403
f 519 631 517
f 633 631 519
f 633 747 631
f 749 747 633
f 749 13 747
f 15 13 749
f 15 107 13
f 109 107 15
f 109 60 107
f 107 60 792
f 61 289 793
f 793 289 287
f 791 287 289
f 791 289 59
f 199 792 60
f 199 60 201
f 201 62 199
f 199 62 794
f 63 793 795
f 63 61 793
f 62 307 331
f 796 62 331
f 794 62 796
f 307 64 331
f 65 795 797
f 65 63 795
f 331 303 796
f 331 64 303
f 64 798 303
f 64 66 798
f 67 797 799
f 67 65 797
f 304 335 800
f 304 798 335
f 798 68 335
f 798 66 68
f 799 288 67
f 67 288 290
f 69 290 288
f 69 288 801
f 337 802 800
f 337 800 335
f 335 68 337
f 337 68 70
f 801 402 69
f 69 402 404
f 71 404 402
f 71 402 803
f 339 804 802
f 339 802 337
f 337 70 339
f 339 70 72
f 73 803 805
f 73 71 803
f 339 305 804
f 339 72 305
f 72 806 305
f 72 74 806
f 805 518 73
f 73 518 520
f 75 520 518
f 75 518 807
f 413 806 74
f 413 74 415
f 415 76 413
f 413 76 808
f 807 632 75
f 75 632 634
f 77 634 632
f 77 632 809
f 808 78 810
f 76 78 808
f 79 809 811
f 79 77 809
f 810 80 812
f 78 80 810
f 811 748 79
f 79 748 750
f 81 750 748
f 81 748 813
f 414 457 814
f 414 812 457
f 812 82 457
f 812 80 82
f 813 14 81
f 81 14 16
f 108 16 14
f 108 110 16
f 200 241 83
f 110 200 83
f 108 200 110
f 308 84 241
f 200 308 241
f 306 308 200
f 457 416 814
f 416 306 814
f 416 308 306
f 457 82 416
f 241 202 83
f 241 84 202
f 40 29 815
f 134 123 40
f 40 123 29
f 134 816 123
f 666 647 817
f 776 763 666
f 666 763 647
f 763 776 815
f 776 40 815
f 776 42 40
f 136 40 42
f 134 40 136
f 816 134 215
f 134 226 215
f 134 136 226
f 336 321 226
f 226 321 215
f 336 818 321
f 819 668 817
f 817 668 666
f 668 85 765
f 776 668 765
f 666 668 776
f 776 765 31
f 776 31 42
f 42 31 125
f 42 125 136
f 136 125 217
f 136 217 226
f 226 217 86
f 338 226 86
f 336 226 338
f 818 336 820
f 820 336 338
f 821 670 819
f 819 670 668
f 85 668 670
f 85 670 87
f 88 340 338
f 88 338 86
f 820 338 822
f 822 338 340
f 823 672 821
f 821 672 670
f 87 670 672
f 87 672 89
f 90 342 340
f 90 340 88
f 822 340 824
f 824 340 342
f 648 672 823
f 89 672 648
f 825 89 648
f 91 89 825
f 92 344 342
f 92 342 90
f 824 342 429
f 342 452 429
f 342 344 452
f 452 826 429
f 766 91 786
f 91 827 786
f 91 825 827
f 766 786 52
f 766 52 32
f 93 32 52
f 218 94 236
f 344 92 218
f 236 344 218
f 346 344 236
f 454 344 346
f 452 344 454
f 826 452 828
f 828 452 454
f 764 786 827
f 30 52 764
f 764 52 786
f 126 93 148
f 148 93 829
f 93 52 829
f 52 30 829
f 236 94 126
f 148 236 126
f 238 236 148
f 348 236 238
f 346 236 348
f 456 346 348
f 454 346 456
f 828 454 830
f 830 454 456
f 831 150 829
f 829 150 148
f 240 148 150
f 238 148 240
f 350 238 240
f 348 238 350
f 458 348 350
f 456 348 458
f 830 456 832
f 832 456 458
f 833 152 831
f 831 152 150
f 242 150 152
f 240 150 242
f 352 240 242
f 350 240 352
f 460 350 352
f 458 350 460
f 832 458 834
f 834 458 460
f 124 152 833
f 216 242 124
f 124 242 152
f 322 352 216
f 216 352 242
f 430 460 322
f 322 460 352
f 834 460 430
