# Converted from NanoShaper .vert/.face
v 8.095000 26.449000 -16.358000
v 9.995000 26.449000 -16.358000
v 7.874000 26.449000 -15.858000
v 10.218000 26.449000 -15.858000
v 7.888000 26.449000 -15.358000
v 10.207000 26.449000 -15.358000
v 8.147000 26.449000 -14.858000
v 9.943000 26.449000 -14.858000
v 9.499000 30.449000 -15.858000
v 10.662000 30.449000 -15.858000
v 9.459000 30.449000 -15.358000
v 11.194000 30.449000 -15.358000
v 9.884000 30.449000 -14.858000
v 11.693000 30.449000 -14.858000
v 10.455000 30.449000 -14.358000
v 14.174000 30.449000 -14.358000
v 10.844000 30.449000 -13.858000
v 15.236000 30.449000 -13.858000
v 11.041000 30.449000 -13.358000
v 16.062000 30.449000 -13.358000
v 11.144000 30.449000 -12.858000
v 16.669000 30.449000 -12.858000
v 11.221000 30.449000 -12.358000
v 17.019000 30.449000 -12.358000
v 11.377000 30.449000 -11.858000
v 17.569000 30.449000 -11.858000
v 11.604000 30.449000 -11.358000
v 17.796000 30.449000 -11.358000
v 11.706000 30.449000 -10.858000
v 17.973000 30.449000 -10.858000
v 11.736000 30.449000 -10.358000
v 18.211000 30.449000 -10.358000
v 11.730000 30.449000 -9.858000
v 18.215000 30.449000 -9.858000
v 11.737000 30.449000 -9.358000
v 17.979000 30.449000 -9.358000
v 11.740000 30.449000 -8.858000
v 16.728000 30.449000 -8.858000
v 11.929000 30.449000 -8.358000
v 15.298000 30.449000 -8.358000
v 12.474000 30.449000 -7.858000
v 14.675000 30.449000 -7.858000
v 8.327000 26.449000 -16.589000
v 8.327000 26.449000 -14.690000
v 8.827000 26.449000 -16.810000
v 8.827000 26.449000 -14.469000
v 9.327000 26.449000 -16.797000
v 9.327000 26.449000 -14.483000
v 9.827000 26.449000 -16.538000
v 9.827000 26.449000 -14.741000
v 9.827000 30.449000 -16.152000
v 9.827000 30.449000 -14.928000
v 10.327000 30.449000 -16.138000
v 10.327000 30.449000 -14.451000
v 10.827000 30.449000 -15.757000
v 10.827000 30.449000 -13.891000
v 11.327000 30.449000 -15.169000
v 11.327000 30.449000 -11.993000
v 11.827000 30.449000 -14.785000
v 11.827000 30.449000 -8.557000
v 12.327000 30.449000 -14.619000
v 12.327000 30.449000 -7.945000
v 12.827000 30.449000 -14.558000
v 12.827000 30.449000 -7.736000
v 13.327000 30.449000 -14.516000
v 13.327000 30.449000 -7.724000
v 13.827000 30.449000 -14.464000
v 13.827000 30.449000 -7.735000
v 14.327000 30.449000 -14.276000
v 14.327000 30.449000 -7.748000
v 14.827000 30.449000 -14.004000
v 14.827000 30.449000 -7.941000
v 15.327000 30.449000 -13.807000
v 15.327000 30.449000 -8.382000
v 15.827000 30.449000 -13.476000
v 15.827000 30.449000 -8.660000
v 16.327000 30.449000 -13.210000
v 16.327000 30.449000 -8.763000
v 16.827000 30.449000 -12.602000
v 16.827000 30.449000 -8.878000
v 17.327000 30.449000 -12.095000
v 17.327000 30.449000 -8.951000
v 17.827000 30.449000 -11.214000
v 17.827000 30.449000 -9.202000
v 7.827000 26.556000 -15.358000
v 7.827000 27.953000 -15.358000
v 8.327000 26.017000 -15.358000
v 8.327000 29.149000 -15.358000
v 8.827000 25.832000 -15.358000
v 8.827000 29.831000 -15.358000
v 9.327000 25.843000 -15.358000
v 9.327000 30.376000 -15.358000
v 9.827000 26.059000 -15.358000
v 9.827000 30.567000 -15.358000
v 10.327000 26.585000 -15.358000
v 10.327000 30.605000 -15.358000
v 10.827000 27.245000 -15.358000
v 10.827000 30.581000 -15.358000
v 11.327000 28.089000 -15.358000
v 11.327000 30.377000 -15.358000
v 11.827000 28.749000 -15.358000
v 11.827000 29.818000 -15.358000
v 11.827000 28.775000 -11.358000
v 11.827000 31.346000 -11.358000
v 12.327000 28.509000 -11.358000
v 12.327000 31.856000 -11.358000
v 12.827000 28.490000 -11.358000
v 12.827000 32.070000 -11.358000
v 13.327000 28.610000 -11.358000
v 13.327000 32.107000 -11.358000
v 13.827000 28.616000 -11.358000
v 13.827000 32.101000 -11.358000
v 14.327000 28.490000 -11.358000
v 14.327000 32.067000 -11.358000
v 14.827000 28.311000 -11.358000
v 14.827000 31.882000 -11.358000
v 15.327000 28.284000 -11.358000
v 15.327000 31.643000 -11.358000
v 15.827000 28.281000 -11.358000
v 15.827000 31.559000 -11.358000
v 16.327000 28.294000 -11.358000
v 16.327000 31.377000 -11.358000
v 16.827000 28.376000 -11.358000
v 16.827000 31.120000 -11.358000
v 17.327000 28.559000 -11.358000
v 17.327000 30.920000 -11.358000
v 17.827000 29.080000 -11.358000
v 17.827000 30.395000 -11.358000
v 8.397000 26.949000 -16.858000
v 9.775000 26.949000 -16.858000
v 7.867000 26.949000 -16.358000
v 10.406000 26.949000 -16.358000
v 7.682000 26.949000 -15.858000
v 10.664000 26.949000 -15.858000
v 7.694000 26.949000 -15.358000
v 10.671000 26.949000 -15.358000
v 7.908000 26.949000 -14.858000
v 10.434000 26.949000 -14.858000
v 8.534000 26.949000 -14.358000
v 9.571000 26.949000 -14.358000
v 11.745000 30.949000 -14.358000
v 14.215000 30.949000 -14.358000
v 11.268000 30.949000 -13.858000
v 15.249000 30.949000 -13.858000
v 11.186000 30.949000 -13.358000
v 15.823000 30.949000 -13.358000
v 11.199000 30.949000 -12.858000
v 16.399000 30.949000 -12.858000
v 11.245000 30.949000 -12.358000
v 16.661000 30.949000 -12.358000
v 11.428000 30.949000 -11.858000
v 16.898000 30.949000 -11.858000
v 11.672000 30.949000 -11.358000
v 17.276000 30.949000 -11.358000
v 11.742000 30.949000 -10.858000
v 17.333000 30.949000 -10.858000
v 11.740000 30.949000 -10.358000
v 17.618000 30.949000 -10.358000
v 11.731000 30.949000 -9.858000
v 17.628000 30.949000 -9.858000
v 11.706000 30.949000 -9.358000
v 17.102000 30.949000 -9.358000
v 11.705000 30.949000 -8.858000
v 15.937000 30.949000 -8.858000
v 11.883000 30.949000 -8.358000
v 15.255000 30.949000 -8.358000
v 12.397000 30.949000 -7.858000
v 14.668000 30.949000 -7.858000
v 7.827000 26.949000 -16.287000
v 7.827000 26.949000 -14.992000
v 8.327000 26.949000 -16.818000
v 8.327000 26.949000 -14.462000
v 8.827000 26.949000 -17.007000
v 8.827000 26.949000 -14.277000
v 9.327000 26.949000 -16.997000
v 9.327000 26.949000 -14.289000
v 9.827000 26.949000 -16.831000
v 9.827000 26.949000 -14.451000
v 10.327000 26.949000 -16.440000
v 10.327000 26.949000 -14.744000
v 11.327000 30.949000 -13.998000
v 11.327000 30.949000 -12.062000
v 11.827000 30.949000 -14.384000
v 11.827000 30.949000 -8.464000
v 12.327000 30.949000 -14.449000
v 12.327000 30.949000 -7.900000
v 12.827000 30.949000 -14.512000
v 12.827000 30.949000 -7.704000
v 13.327000 30.949000 -14.505000
v 13.327000 30.949000 -7.700000
v 13.827000 30.949000 -14.482000
v 13.827000 30.949000 -7.733000
v 14.327000 30.949000 -14.297000
v 14.327000 30.949000 -7.751000
v 14.827000 30.949000 -14.014000
v 14.827000 30.949000 -7.944000
v 15.327000 30.949000 -13.814000
v 15.327000 30.949000 -8.438000
v 15.827000 30.949000 -13.355000
v 15.827000 30.949000 -8.812000
v 16.327000 30.949000 -12.933000
v 16.327000 30.949000 -8.952000
v 16.827000 30.949000 -11.974000
v 16.827000 30.949000 -9.171000
v 17.327000 30.949000 -10.896000
v 17.327000 30.949000 -9.522000
v 8.327000 26.273000 -14.858000
v 8.327000 28.244000 -14.858000
v 8.827000 26.045000 -14.858000
v 8.827000 29.275000 -14.858000
v 9.327000 26.059000 -14.858000
v 9.327000 30.164000 -14.858000
v 9.827000 26.326000 -14.858000
v 9.827000 30.425000 -14.858000
v 10.327000 26.841000 -14.858000
v 10.327000 30.590000 -14.858000
v 10.827000 27.531000 -14.858000
v 10.827000 30.615000 -14.858000
v 11.327000 28.083000 -14.858000
v 11.327000 30.572000 -14.858000
v 11.827000 28.463000 -14.858000
v 11.827000 30.360000 -14.858000
v 11.827000 29.530000 -10.858000
v 11.827000 31.239000 -10.858000
v 12.327000 29.004000 -10.858000
v 12.327000 31.857000 -10.858000
v 12.827000 28.928000 -10.858000
v 12.827000 32.070000 -10.858000
v 13.327000 28.987000 -10.858000
v 13.327000 32.107000 -10.858000
v 13.827000 28.837000 -10.858000
v 13.827000 32.103000 -10.858000
v 14.327000 28.539000 -10.858000
v 14.327000 32.071000 -10.858000
v 14.827000 28.326000 -10.858000
v 14.827000 31.932000 -10.858000
v 15.327000 28.285000 -10.858000
v 15.327000 31.713000 -10.858000
v 15.827000 28.280000 -10.858000
v 15.827000 31.602000 -10.858000
v 16.327000 28.274000 -10.858000
v 16.327000 31.444000 -10.858000
v 16.827000 28.303000 -10.858000
v 16.827000 31.220000 -10.858000
v 17.327000 28.483000 -10.858000
v 17.327000 30.952000 -10.858000
v 17.827000 28.787000 -10.858000
v 17.827000 30.616000 -10.858000
v 8.145000 27.449000 -16.858000
v 10.451000 27.449000 -16.858000
v 7.819000 27.449000 -16.358000
v 10.738000 27.449000 -16.358000
v 7.685000 27.449000 -15.858000
v 10.880000 27.449000 -15.858000
v 7.699000 27.449000 -15.358000
v 10.899000 27.449000 -15.358000
v 7.914000 27.449000 -14.858000
v 10.777000 27.449000 -14.858000
v 8.548000 27.449000 -14.358000
v 10.266000 27.449000 -14.358000
v 11.686000 31.449000 -13.858000
v 14.701000 31.449000 -13.858000
v 11.421000 31.449000 -13.358000
v 15.556000 31.449000 -13.358000
v 11.406000 31.449000 -12.858000
v 15.814000 31.449000 -12.858000
v 11.447000 31.449000 -12.358000
v 16.014000 31.449000 -12.358000
v 11.668000 31.449000 -11.858000
v 16.148000 31.449000 -11.858000
v 11.894000 31.449000 -11.358000
v 16.180000 31.449000 -11.358000
v 11.935000 31.449000 -10.858000
v 16.311000 31.449000 -10.858000
v 11.930000 31.449000 -10.358000
v 16.732000 31.449000 -10.358000
v 11.869000 31.449000 -9.858000
v 16.717000 31.449000 -9.858000
v 11.717000 31.449000 -9.358000
v 16.003000 31.449000 -9.358000
v 11.700000 31.449000 -8.858000
v 15.446000 31.449000 -8.858000
v 11.877000 31.449000 -8.358000
v 14.999000 31.449000 -8.358000
v 12.386000 31.449000 -7.858000
v 14.119000 31.449000 -7.858000
v 7.827000 27.449000 -16.376000
v 7.827000 27.449000 -15.003000
v 8.327000 27.449000 -17.018000
v 8.327000 27.449000 -14.468000
v 8.827000 27.449000 -17.244000
v 8.827000 27.449000 -14.282000
v 9.327000 27.449000 -17.237000
v 9.327000 27.449000 -14.231000
v 9.827000 27.449000 -17.196000
v 9.827000 27.449000 -14.247000
v 10.327000 27.449000 -16.971000
v 10.327000 27.449000 -14.384000
v 10.827000 27.449000 -16.076000
v 10.827000 27.449000 -15.001000
v 11.827000 31.449000 -13.990000
v 11.827000 31.449000 -11.574000
v 11.827000 31.449000 -9.710000
v 11.827000 31.449000 -8.451000
v 12.327000 31.449000 -14.222000
v 12.327000 31.449000 -7.894000
v 12.827000 31.449000 -14.309000
v 12.827000 31.449000 -7.700000
v 13.327000 31.449000 -14.313000
v 13.327000 31.449000 -7.704000
v 13.827000 31.449000 -14.305000
v 13.827000 31.449000 -7.777000
v 14.327000 31.449000 -14.087000
v 14.327000 31.449000 -7.933000
v 14.827000 31.449000 -13.812000
v 14.827000 31.449000 -8.188000
v 15.327000 31.449000 -13.587000
v 15.327000 31.449000 -8.740000
v 15.827000 31.449000 -12.829000
v 15.827000 31.449000 -9.232000
v 16.327000 31.449000 -10.836000
v 16.327000 31.449000 -9.496000
v 8.827000 26.666000 -14.358000
v 8.827000 27.779000 -14.358000
v 9.327000 26.698000 -14.358000
v 9.327000 28.779000 -14.358000
v 9.827000 27.139000 -14.358000
v 9.827000 30.162000 -14.358000
v 10.327000 27.492000 -14.358000
v 10.327000 30.401000 -14.358000
v 10.827000 27.816000 -14.358000
v 10.827000 30.590000 -14.358000
v 11.327000 28.056000 -14.358000
v 11.327000 30.783000 -14.358000
v 11.827000 28.217000 -14.358000
v 11.827000 30.982000 -14.358000
v 12.327000 28.457000 -14.358000
v 12.327000 31.192000 -14.358000
v 12.827000 29.051000 -14.358000
v 12.827000 31.370000 -14.358000
v 13.327000 29.483000 -14.358000
v 13.327000 31.372000 -14.358000
v 13.827000 30.026000 -14.358000
v 13.827000 31.351000 -14.358000
v 11.827000 30.044000 -10.358000
v 11.827000 31.239000 -10.358000
v 12.327000 29.386000 -10.358000
v 12.327000 31.904000 -10.358000
v 12.827000 29.211000 -10.358000
v 12.827000 32.133000 -10.358000
v 13.327000 29.220000 -10.358000
v 13.327000 32.148000 -10.358000
v 13.827000 29.100000 -10.358000
v 13.827000 32.134000 -10.358000
v 14.327000 28.801000 -10.358000
v 14.327000 32.079000 -10.358000
v 14.827000 28.495000 -10.358000
v 14.827000 32.038000 -10.358000
v 15.327000 28.308000 -10.358000
v 15.327000 31.855000 -10.358000
v 15.827000 28.286000 -10.358000
v 15.827000 31.643000 -10.358000
v 16.327000 28.287000 -10.358000
v 16.327000 31.582000 -10.358000
v 16.827000 28.293000 -10.358000
v 16.827000 31.396000 -10.358000
v 17.327000 28.341000 -10.358000
v 17.327000 31.066000 -10.358000
v 17.827000 28.546000 -10.358000
v 17.827000 30.835000 -10.358000
v 18.327000 29.146000 -10.358000
v 18.327000 30.235000 -10.358000
v 8.535000 27.949000 -17.358000
v 10.051000 27.949000 -17.358000
v 7.919000 27.949000 -16.858000
v 10.727000 27.949000 -16.858000
v 7.708000 27.949000 -16.358000
v 10.952000 27.949000 -16.358000
v 7.694000 27.949000 -15.858000
v 11.067000 27.949000 -15.858000
v 7.826000 27.949000 -15.358000
v 11.197000 27.949000 -15.358000
v 8.154000 27.949000 -14.858000
v 11.157000 27.949000 -14.858000
v 8.910000 27.949000 -14.358000
v 11.068000 27.949000 -14.358000
v 11.393000 27.949000 -13.358000
v 12.739000 27.949000 -13.358000
v 11.476000 27.949000 -12.858000
v 12.716000 27.949000 -12.858000
v 12.038000 31.949000 -13.358000
v 14.437000 31.949000 -13.358000
v 11.997000 31.949000 -12.858000
v 15.230000 31.949000 -12.858000
v 12.028000 31.949000 -12.358000
v 15.208000 31.949000 -12.358000
v 12.378000 31.949000 -11.858000
v 14.753000 31.949000 -11.858000
v 12.485000 31.949000 -11.358000
v 14.696000 31.949000 -11.358000
v 12.483000 31.949000 -10.858000
v 14.780000 31.949000 -10.858000
v 12.391000 31.949000 -10.358000
v 15.140000 31.949000 -10.358000
v 12.155000 31.949000 -9.858000
v 15.211000 31.949000 -9.858000
v 11.908000 31.949000 -9.358000
v 15.173000 31.949000 -9.358000
v 11.888000 31.949000 -8.858000
v 14.793000 31.949000 -8.858000
v 12.099000 31.949000 -8.358000
v 14.463000 31.949000 -8.358000
v 7.827000 27.949000 -16.701000
v 7.827000 27.949000 -15.356000
v 8.327000 27.949000 -17.251000
v 8.327000 27.949000 -14.708000
v 8.827000 27.949000 -17.442000
v 8.827000 27.949000 -14.400000
v 9.327000 27.949000 -17.438000
v 9.327000 27.949000 -14.224000
v 9.827000 27.949000 -17.413000
v 9.827000 27.949000 -14.170000
v 10.327000 27.949000 -17.230000
v 10.327000 27.949000 -14.124000
v 10.827000 27.949000 -16.697000
v 10.827000 27.949000 -14.122000
v 11.827000 27.949000 -13.831000
v 11.827000 27.949000 -12.513000
v 12.327000 27.949000 -13.777000
v 12.327000 27.949000 -12.498000
v 12.327000 31.949000 -13.619000
v 12.327000 31.949000 -11.958000
v 12.327000 31.949000 -10.185000
v 12.327000 31.949000 -8.121000
v 12.827000 31.949000 -13.724000
v 12.827000 31.949000 -7.889000
v 13.327000 31.949000 -13.784000
v 13.327000 31.949000 -7.894000
v 13.827000 31.949000 -13.798000
v 13.827000 31.949000 -7.993000
v 14.327000 31.949000 -13.421000
v 14.327000 31.949000 -8.228000
v 14.827000 31.949000 -13.259000
v 14.827000 31.949000 -11.950000
v 14.827000 31.949000 -10.757000
v 14.827000 31.949000 -8.906000
v 10.327000 28.512000 -13.858000
v 10.327000 29.901000 -13.858000
v 10.827000 28.098000 -13.858000
v 10.827000 30.430000 -13.858000
v 11.327000 27.978000 -13.858000
v 11.327000 31.019000 -13.858000
v 11.827000 27.961000 -13.858000
v 11.827000 31.583000 -13.858000
v 12.327000 27.995000 -13.858000
v 12.327000 31.818000 -13.858000
v 12.827000 28.221000 -13.858000
v 12.827000 31.880000 -13.858000
v 13.327000 28.766000 -13.858000
v 13.327000 31.906000 -13.858000
v 13.827000 29.183000 -13.858000
v 13.827000 31.913000 -13.858000
v 14.327000 29.713000 -13.858000
v 14.327000 31.692000 -13.858000
v 14.827000 30.064000 -13.858000
v 14.827000 31.374000 -13.858000
v 11.827000 30.129000 -9.858000
v 11.827000 31.334000 -9.858000
v 12.327000 29.527000 -9.858000
v 12.327000 32.112000 -9.858000
v 12.827000 29.318000 -9.858000
v 12.827000 32.347000 -9.858000
v 13.327000 29.294000 -9.858000
v 13.327000 32.353000 -9.858000
v 13.827000 29.226000 -9.858000
v 13.827000 32.336000 -9.858000
v 14.327000 29.018000 -9.858000
v 14.327000 32.193000 -9.858000
v 14.827000 28.741000 -9.858000
v 14.827000 32.091000 -9.858000
v 15.327000 28.509000 -9.858000
v 15.327000 31.880000 -9.858000
v 15.827000 28.480000 -9.858000
v 15.827000 31.658000 -9.858000
v 16.327000 28.436000 -9.858000
v 16.327000 31.575000 -9.858000
v 16.827000 28.332000 -9.858000
v 16.827000 31.389000 -9.858000
v 17.327000 28.337000 -9.858000
v 17.327000 31.067000 -9.858000
v 17.827000 28.542000 -9.858000
v 17.827000 30.840000 -9.858000
v 18.327000 29.137000 -9.858000
v 18.327000 30.245000 -9.858000
v 8.536000 28.449000 -17.358000
v 10.094000 28.449000 -17.358000
v 7.919000 28.449000 -16.858000
v 10.745000 28.449000 -16.858000
v 7.709000 28.449000 -16.358000
v 11.072000 28.449000 -16.358000
v 7.700000 28.449000 -15.858000
v 11.436000 28.449000 -15.858000
v 7.888000 28.449000 -15.358000
v 11.668000 28.449000 -15.358000
v 8.428000 28.449000 -14.858000
v 11.814000 28.449000 -14.858000
v 9.232000 28.449000 -14.358000
v 12.315000 28.449000 -14.358000
v 10.386000 28.449000 -13.858000
v 13.053000 28.449000 -13.858000
v 10.782000 28.449000 -13.358000
v 13.320000 28.449000 -13.358000
v 10.930000 28.449000 -12.858000
v 13.556000 28.449000 -12.858000
v 11.185000 28.449000 -12.358000
v 13.598000 28.449000 -12.358000
v 11.841000 28.449000 -11.858000
v 13.293000 28.449000 -11.858000
v 14.495000 28.449000 -11.858000
v 16.619000 28.449000 -11.858000
v 14.431000 28.449000 -11.358000
v 17.102000 28.449000 -11.358000
v 14.477000 28.449000 -10.858000
v 17.240000 28.449000 -10.858000
v 14.922000 28.449000 -10.358000
v 17.656000 28.449000 -10.358000
v 16.219000 28.449000 -9.858000
v 17.665000 28.449000 -9.858000
v 12.465000 32.449000 -9.358000
v 14.100000 32.449000 -9.358000
v 12.427000 32.449000 -8.858000
v 14.080000 32.449000 -8.858000
v 7.827000 28.449000 -16.699000
v 7.827000 28.449000 -15.468000
v 8.327000 28.449000 -17.250000
v 8.327000 28.449000 -14.917000
v 8.827000 28.449000 -17.441000
v 8.827000 28.449000 -14.610000
v 9.327000 28.449000 -17.442000
v 9.327000 28.449000 -14.308000
v 9.827000 28.449000 -17.427000
v 9.827000 28.449000 -14.104000
v 10.327000 28.449000 -17.246000
v 10.327000 28.449000 -13.895000
v 10.827000 28.449000 -16.737000
v 10.827000 28.449000 -13.226000
v 11.327000 28.449000 -16.001000
v 11.327000 28.449000 -12.218000
v 11.827000 28.449000 -14.833000
v 11.827000 28.449000 -11.869000
v 12.327000 28.449000 -14.351000
v 12.327000 28.449000 -11.463000
v 12.827000 28.449000 -14.087000
v 12.827000 28.449000 -11.428000
v 13.327000 28.449000 -13.344000
v 13.327000 28.449000 -11.958000
v 14.827000 28.449000 -12.157000
v 14.827000 28.449000 -10.479000
v 15.327000 28.449000 -12.297000
v 15.327000 28.449000 -9.958000
v 15.827000 28.449000 -12.315000
v 15.827000 28.449000 -9.909000
v 16.327000 28.449000 -12.150000
v 16.327000 28.449000 -9.827000
v 16.827000 28.449000 -11.629000
v 16.827000 28.449000 -9.495000
v 17.327000 28.449000 -10.732000
v 17.327000 28.449000 -9.506000
v 12.827000 32.449000 -9.687000
v 12.827000 32.449000 -8.434000
v 13.327000 32.449000 -9.689000
v 13.327000 32.449000 -8.442000
v 13.827000 32.449000 -9.632000
v 13.827000 32.449000 -8.625000
v 8.827000 27.667000 -17.358000
v 8.827000 28.730000 -17.358000
v 9.327000 27.680000 -17.358000
v 9.327000 28.740000 -17.358000
v 9.827000 27.760000 -17.358000
v 9.827000 28.717000 -17.358000
v 10.827000 28.376000 -13.358000
v 10.827000 29.956000 -13.358000
v 11.327000 27.978000 -13.358000
v 11.327000 31.288000 -13.358000
v 11.827000 27.817000 -13.358000
v 11.827000 31.841000 -13.358000
v 12.327000 27.810000 -13.358000
v 12.327000 32.032000 -13.358000
v 12.827000 28.000000 -13.358000
v 12.827000 32.059000 -13.358000
v 13.327000 28.456000 -13.358000
v 13.327000 32.099000 -13.358000
v 13.827000 28.845000 -13.358000
v 13.827000 32.109000 -13.358000
v 14.327000 29.228000 -13.358000
v 14.327000 31.973000 -13.358000
v 14.827000 29.428000 -13.358000
v 14.827000 31.894000 -13.358000
v 15.327000 29.535000 -13.358000
v 15.327000 31.675000 -13.358000
v 15.827000 29.631000 -13.358000
v 15.827000 30.943000 -13.358000
v 11.827000 30.162000 -9.358000
v 11.827000 31.799000 -9.358000
v 12.327000 29.563000 -9.358000
v 12.327000 32.371000 -9.358000
v 12.827000 29.356000 -9.358000
v 12.827000 32.567000 -9.358000
v 13.327000 29.318000 -9.358000
v 13.327000 32.564000 -9.358000
v 13.827000 29.284000 -9.358000
v 13.827000 32.525000 -9.358000
v 14.327000 29.170000 -9.358000
v 14.327000 32.336000 -9.358000
v 14.827000 29.025000 -9.358000
v 14.827000 32.086000 -9.358000
v 15.327000 28.991000 -9.358000
v 15.327000 31.857000 -9.358000
v 15.827000 28.956000 -9.358000
v 15.827000 31.524000 -9.358000
v 16.327000 28.744000 -9.358000
v 16.327000 31.369000 -9.358000
v 16.827000 28.526000 -9.358000
v 16.827000 31.141000 -9.358000
v 17.327000 28.531000 -9.358000
v 17.327000 30.853000 -9.358000
v 17.827000 28.779000 -9.358000
v 17.827000 30.602000 -9.358000
v 8.166000 28.949000 -16.858000
v 10.651000 28.949000 -16.858000
v 7.909000 28.949000 -16.358000
v 11.202000 28.949000 -16.358000
v 7.899000 28.949000 -15.858000
v 11.693000 28.949000 -15.858000
v 8.126000 28.949000 -15.358000
v 11.888000 28.949000 -15.358000
v 8.713000 28.949000 -14.858000
v 12.122000 28.949000 -14.858000
v 9.341000 28.949000 -14.358000
v 12.753000 28.949000 -14.358000
v 10.002000 28.949000 -13.858000
v 13.523000 28.949000 -13.858000
v 10.537000 28.949000 -13.358000
v 13.940000 28.949000 -13.358000
v 10.741000 28.949000 -12.858000
v 14.657000 28.949000 -12.858000
v 15.227000 28.949000 -12.858000
v 15.732000 28.949000 -12.858000
v 10.954000 28.949000 -12.358000
v 16.956000 28.949000 -12.358000
v 11.364000 28.949000 -11.858000
v 17.504000 28.949000 -11.858000
v 11.666000 28.949000 -11.358000
v 17.744000 28.949000 -11.358000
v 12.486000 28.949000 -10.858000
v 12.959000 28.949000 -10.858000
v 13.561000 28.949000 -10.858000
v 17.977000 28.949000 -10.858000
v 14.112000 28.949000 -10.358000
v 18.222000 28.949000 -10.358000
v 14.448000 28.949000 -9.858000
v 18.227000 28.949000 -9.858000
v 15.857000 28.949000 -9.358000
v 17.993000 28.949000 -9.358000
v 8.327000 28.949000 -17.011000
v 8.327000 28.949000 -15.156000
v 8.827000 28.949000 -17.242000
v 8.827000 28.949000 -14.771000
v 9.327000 28.949000 -17.251000
v 9.327000 28.949000 -14.370000
v 9.827000 28.949000 -17.247000
v 9.827000 28.949000 -13.956000
v 10.327000 28.949000 -17.059000
v 10.327000 28.949000 -13.617000
v 10.827000 28.949000 -16.723000
v 10.827000 28.949000 -12.590000
v 11.327000 28.949000 -16.250000
v 11.327000 28.949000 -11.911000
v 11.827000 28.949000 -15.576000
v 11.827000 28.949000 -11.186000
v 12.327000 28.949000 -14.633000
v 12.327000 28.949000 -10.907000
v 12.827000 28.949000 -14.324000
v 12.827000 28.949000 -10.831000
v 13.327000 28.949000 -14.043000
v 13.327000 28.949000 -10.906000
v 13.827000 28.949000 -13.482000
v 13.827000 28.949000 -10.702000
v 14.327000 28.949000 -13.008000
v 14.327000 28.949000 -10.081000
v 14.827000 28.949000 -12.833000
v 14.827000 28.949000 -9.490000
v 15.327000 28.949000 -12.863000
v 15.327000 28.949000 -9.398000
v 15.827000 28.949000 -12.841000
v 15.827000 28.949000 -9.364000
v 16.327000 28.949000 -12.742000
v 16.327000 28.949000 -9.156000
v 16.827000 28.949000 -12.488000
v 16.827000 28.949000 -8.934000
v 17.327000 28.949000 -12.031000
v 17.327000 28.949000 -8.939000
v 17.827000 28.949000 -11.116000
v 17.827000 28.949000 -9.187000
v 8.327000 27.107000 -16.858000
v 8.327000 29.106000 -16.858000
v 8.827000 26.531000 -16.858000
v 8.827000 29.341000 -16.858000
v 9.327000 26.556000 -16.858000
v 9.327000 29.460000 -16.858000
v 9.827000 26.992000 -16.858000
v 9.827000 29.677000 -16.858000
v 10.327000 27.336000 -16.858000
v 10.327000 29.659000 -16.858000
v 10.827000 28.652000 -12.858000
v 10.827000 29.694000 -12.858000
v 11.327000 28.037000 -12.858000
v 11.327000 31.314000 -12.858000
v 11.827000 27.828000 -12.858000
v 11.827000 31.858000 -12.858000
v 12.327000 27.821000 -12.858000
v 12.327000 32.052000 -12.858000
v 12.827000 28.012000 -12.858000
v 12.827000 32.069000 -12.858000
v 13.327000 28.339000 -12.858000
v 13.327000 32.101000 -12.858000
v 13.827000 28.581000 -12.858000
v 13.827000 32.111000 -12.858000
v 14.327000 28.840000 -12.858000
v 14.327000 32.081000 -12.858000
v 14.827000 28.969000 -12.858000
v 14.827000 32.080000 -12.858000
v 15.327000 28.944000 -12.858000
v 15.327000 31.896000 -12.858000
v 15.827000 28.972000 -12.858000
v 15.827000 31.437000 -12.858000
v 16.327000 29.152000 -12.858000
v 16.327000 31.022000 -12.858000
v 11.827000 30.170000 -8.858000
v 11.827000 31.839000 -8.858000
v 12.327000 29.568000 -8.858000
v 12.327000 32.392000 -8.858000
v 12.827000 29.360000 -8.858000
v 12.827000 32.585000 -8.858000
v 13.327000 29.338000 -8.858000
v 13.327000 32.581000 -8.858000
v 13.827000 29.328000 -8.858000
v 13.827000 32.518000 -8.858000
v 14.327000 29.325000 -8.858000
v 14.327000 32.327000 -8.858000
v 14.827000 29.394000 -8.858000
v 14.827000 31.924000 -8.858000
v 15.327000 29.506000 -8.858000
v 15.327000 31.579000 -8.858000
v 15.827000 29.617000 -8.858000
v 15.827000 31.036000 -8.858000
v 16.327000 29.522000 -8.858000
v 16.327000 30.769000 -8.858000
v 16.827000 29.084000 -8.858000
v 16.827000 30.398000 -8.858000
v 17.327000 29.095000 -8.858000
v 17.327000 30.286000 -8.858000
v 9.290000 29.449000 -16.858000
v 10.528000 29.449000 -16.858000
v 8.493000 29.449000 -16.358000
v 11.211000 29.449000 -16.358000
v 8.436000 29.449000 -15.858000
v 11.707000 29.449000 -15.858000
v 8.597000 29.449000 -15.358000
v 11.929000 29.449000 -15.358000
v 8.875000 29.449000 -14.858000
v 12.240000 29.449000 -14.858000
v 9.356000 29.449000 -14.358000
v 13.271000 29.449000 -14.358000
v 9.981000 29.449000 -13.858000
v 14.095000 29.449000 -13.858000
v 10.538000 29.449000 -13.358000
v 14.902000 29.449000 -13.358000
v 10.750000 29.449000 -12.858000
v 16.613000 29.449000 -12.858000
v 10.966000 29.449000 -12.358000
v 17.246000 29.449000 -12.358000
v 11.236000 29.449000 -11.858000
v 17.768000 29.449000 -11.858000
v 11.447000 29.449000 -11.358000
v 17.967000 29.449000 -11.358000
v 11.865000 29.449000 -10.858000
v 18.214000 29.449000 -10.858000
v 12.238000 29.449000 -10.358000
v 18.417000 29.449000 -10.358000
v 12.457000 29.449000 -9.858000
v 18.421000 29.449000 -9.858000
v 12.533000 29.449000 -9.358000
v 18.227000 29.449000 -9.358000
v 12.542000 29.449000 -8.858000
v 15.036000 29.449000 -8.858000
v 16.416000 29.449000 -8.858000
v 17.668000 29.449000 -8.858000
v 8.827000 29.449000 -16.692000
v 8.827000 29.449000 -14.935000
v 9.327000 29.449000 -16.866000
v 9.327000 29.449000 -14.384000
v 9.827000 29.449000 -16.949000
v 9.827000 29.449000 -13.942000
v 10.327000 29.449000 -16.914000
v 10.327000 29.449000 -13.610000
v 10.827000 29.449000 -16.707000
v 10.827000 29.449000 -12.615000
v 11.327000 29.449000 -16.263000
v 11.327000 29.449000 -11.602000
v 11.827000 29.449000 -15.612000
v 11.827000 29.449000 -10.903000
v 12.327000 29.449000 -14.776000
v 12.327000 29.449000 -10.200000
v 12.827000 29.449000 -14.491000
v 12.827000 29.449000 -8.549000
v 13.327000 29.449000 -14.342000
v 13.327000 29.449000 -8.503000
v 13.827000 29.449000 -14.123000
v 13.827000 29.449000 -8.489000
v 14.327000 29.449000 -13.622000
v 14.327000 29.449000 -8.507000
v 14.827000 29.449000 -13.374000
v 14.827000 29.449000 -8.784000
v 15.327000 29.449000 -13.310000
v 15.327000 29.449000 -8.904000
v 15.827000 29.449000 -13.266000
v 15.827000 29.449000 -8.939000
v 16.327000 29.449000 -13.021000
v 16.327000 29.449000 -8.882000
v 16.827000 29.449000 -12.737000
v 16.827000 29.449000 -8.739000
v 17.327000 29.449000 -12.295000
v 17.327000 29.449000 -8.744000
v 17.827000 29.449000 -11.756000
v 17.827000 29.449000 -8.949000
v 18.327000 29.449000 -10.651000
v 18.327000 29.449000 -9.544000
v 7.827000 27.393000 -16.358000
v 7.827000 28.804000 -16.358000
v 8.327000 26.222000 -16.358000
v 8.327000 29.360000 -16.358000
v 8.827000 26.004000 -16.358000
v 8.827000 29.640000 -16.358000
v 9.327000 26.017000 -16.358000
v 9.327000 30.089000 -16.358000
v 9.827000 26.273000 -16.358000
v 9.827000 30.329000 -16.358000
v 10.327000 26.869000 -16.358000
v 10.327000 30.322000 -16.358000
v 10.827000 27.605000 -16.358000
v 10.827000 30.061000 -16.358000
v 11.327000 28.301000 -12.358000
v 11.327000 31.221000 -12.358000
v 11.827000 28.042000 -12.358000
v 11.827000 31.836000 -12.358000
v 12.327000 28.033000 -12.358000
v 12.327000 32.047000 -12.358000
v 12.827000 28.194000 -12.358000
v 12.827000 32.096000 -12.358000
v 13.327000 28.376000 -12.358000
v 13.327000 32.111000 -12.358000
v 13.827000 28.511000 -12.358000
v 13.827000 32.114000 -12.358000
v 14.327000 28.582000 -12.358000
v 14.327000 32.111000 -12.358000
v 14.827000 28.555000 -12.358000
v 14.827000 32.070000 -12.358000
v 15.327000 28.484000 -12.358000
v 15.327000 31.884000 -12.358000
v 15.827000 28.474000 -12.358000
v 15.827000 31.547000 -12.358000
v 16.327000 28.564000 -12.358000
v 16.327000 31.280000 -12.358000
v 16.827000 28.818000 -12.358000
v 16.827000 30.736000 -12.358000
v 12.327000 29.798000 -8.358000
v 12.327000 32.180000 -8.358000
v 12.827000 29.548000 -8.358000
v 12.827000 32.408000 -8.358000
v 13.327000 29.528000 -8.358000
v 13.327000 32.403000 -8.358000
v 13.827000 29.523000 -8.358000
v 13.827000 32.309000 -8.358000
v 14.327000 29.533000 -8.358000
v 14.327000 32.077000 -8.358000
v 14.827000 29.766000 -8.358000
v 14.827000 31.618000 -8.358000
v 8.425000 25.949000 -15.858000
v 9.665000 25.949000 -15.858000
v 8.451000 25.949000 -15.358000
v 9.639000 25.949000 -15.358000
v 9.184000 29.949000 -16.358000
v 10.936000 29.949000 -16.358000
v 8.914000 29.949000 -15.858000
v 11.488000 29.949000 -15.858000
v 8.895000 29.949000 -15.358000
v 11.761000 29.949000 -15.358000
v 9.109000 29.949000 -14.858000
v 12.145000 29.949000 -14.858000
v 9.610000 29.949000 -14.358000
v 13.789000 29.949000 -14.358000
v 10.386000 29.949000 -13.858000
v 14.608000 29.949000 -13.858000
v 10.822000 29.949000 -13.358000
v 16.099000 29.949000 -13.358000
v 10.961000 29.949000 -12.858000
v 16.719000 29.949000 -12.858000
v 11.142000 29.949000 -12.358000
v 17.262000 29.949000 -12.358000
v 11.270000 29.949000 -11.858000
v 17.785000 29.949000 -11.858000
v 11.460000 29.949000 -11.358000
v 17.980000 29.949000 -11.358000
v 11.719000 29.949000 -10.858000
v 18.210000 29.949000 -10.858000
v 11.864000 29.949000 -10.358000
v 18.414000 29.949000 -10.358000
v 11.921000 29.949000 -9.858000
v 18.418000 29.949000 -9.858000
v 11.942000 29.949000 -9.358000
v 18.224000 29.949000 -9.358000
v 11.946000 29.949000 -8.858000
v 17.661000 29.949000 -8.858000
v 12.176000 29.949000 -8.358000
v 15.026000 29.949000 -8.358000
v 8.827000 25.949000 -16.260000
v 8.827000 25.949000 -15.020000
v 9.327000 25.949000 -16.234000
v 9.327000 25.949000 -15.046000
v 9.327000 29.949000 -16.491000
v 9.327000 29.949000 -14.633000
v 9.827000 29.949000 -16.722000
v 9.827000 29.949000 -14.158000
v 10.327000 29.949000 -16.715000
v 10.327000 29.949000 -13.895000
v 10.827000 29.949000 -16.464000
v 10.827000 29.949000 -13.347000
v 11.327000 29.949000 -16.033000
v 11.327000 29.949000 -11.637000
v 11.827000 29.949000 -15.244000
v 11.827000 29.949000 -10.531000
v 12.327000 29.949000 -14.743000
v 12.327000 29.949000 -8.200000
v 12.827000 29.949000 -14.581000
v 12.827000 29.949000 -7.943000
v 13.327000 29.949000 -14.514000
v 13.327000 29.949000 -7.927000
v 13.827000 29.949000 -14.339000
v 13.827000 29.949000 -7.931000
v 14.327000 29.949000 -14.014000
v 14.327000 29.949000 -7.944000
v 14.827000 29.949000 -13.788000
v 14.827000 29.949000 -8.176000
v 15.327000 29.949000 -13.600000
v 15.327000 29.949000 -8.567000
v 15.827000 29.949000 -13.448000
v 15.827000 29.949000 -8.726000
v 16.327000 29.949000 -13.229000
v 16.327000 29.949000 -8.762000
v 16.827000 29.949000 -12.756000
v 16.827000 29.949000 -8.740000
v 17.327000 29.949000 -12.311000
v 17.327000 29.949000 -8.747000
v 17.827000 29.949000 -11.787000
v 17.827000 29.949000 -8.952000
v 18.327000 29.949000 -10.643000
v 18.327000 29.949000 -9.552000
v 7.827000 26.532000 -15.858000
v 7.827000 28.824000 -15.858000
v 8.327000 26.004000 -15.858000
v 8.327000 29.371000 -15.858000
v 8.827000 25.820000 -15.858000
v 8.827000 29.832000 -15.858000
v 9.327000 25.832000 -15.858000
v 9.327000 30.357000 -15.858000
v 9.827000 26.045000 -15.858000
v 9.827000 30.550000 -15.858000
v 10.327000 26.584000 -15.858000
v 10.327000 30.544000 -15.858000
v 10.827000 27.262000 -15.858000
v 10.827000 30.396000 -15.858000
v 11.327000 28.315000 -15.858000
v 11.327000 30.126000 -15.858000
v 11.327000 29.036000 -11.858000
v 11.327000 30.177000 -11.858000
v 11.827000 28.457000 -11.858000
v 11.827000 31.617000 -11.858000
v 12.327000 28.297000 -11.858000
v 12.327000 31.928000 -11.858000
v 12.827000 28.301000 -11.858000
v 12.827000 32.089000 -11.858000
v 13.327000 28.462000 -11.858000
v 13.327000 32.105000 -11.858000
v 13.827000 28.562000 -11.858000
v 13.827000 32.106000 -11.858000
v 14.327000 28.496000 -11.858000
v 14.327000 32.085000 -11.858000
v 14.827000 28.360000 -11.858000
v 14.827000 31.927000 -11.858000
v 15.327000 28.304000 -11.858000
v 15.327000 31.718000 -11.858000
v 15.827000 28.295000 -11.858000
v 15.827000 31.557000 -11.858000
v 16.327000 28.357000 -11.858000
v 16.327000 31.361000 -11.858000
v 16.827000 28.535000 -11.858000
v 16.827000 30.991000 -11.858000
v 17.327000 28.786000 -11.858000
v 17.327000 30.693000 -11.858000
v 12.827000 30.094000 -7.858000
v 12.827000 31.897000 -7.858000
v 13.327000 30.066000 -7.858000
v 13.327000 31.889000 -7.858000
v 13.827000 30.078000 -7.858000
v 13.827000 31.705000 -7.858000
v 14.327000 30.105000 -7.858000
v 14.327000 31.282000 -7.858000
f 170 135 85
f 288 255 170
f 170 255 135
f 414 381 288
f 288 381 255
f 414 86 381
f 207 7 87
f 87 7 5
f 137 170 85
f 5 137 85
f 7 137 5
f 170 137 257
f 170 257 288
f 288 257 383
f 288 383 414
f 208 536 503
f 208 503 86
f 383 208 86
f 414 383 86
f 666 635 536
f 536 635 503
f 666 88 635
f 928 891 89
f 87 891 928
f 209 87 928
f 207 87 209
f 505 536 208
f 536 505 637
f 536 637 666
f 210 800 769
f 210 769 88
f 637 210 88
f 666 637 88
f 800 90 769
f 91 930 89
f 89 930 928
f 209 928 930
f 209 930 211
f 771 800 210
f 897 90 800
f 771 897 800
f 899 897 771
f 899 212 897
f 897 212 92
f 892 930 91
f 211 930 892
f 93 211 892
f 213 211 93
f 214 52 11
f 92 214 11
f 212 214 92
f 52 94 11
f 93 6 213
f 213 6 8
f 215 8 6
f 215 6 95
f 13 52 214
f 13 216 52
f 216 94 52
f 216 96 94
f 95 136 215
f 215 136 138
f 136 97 300
f 258 136 300
f 138 136 258
f 217 258 300
f 96 218 98
f 216 218 96
f 256 300 97
f 300 256 217
f 256 384 217
f 256 382 384
f 219 384 382
f 219 382 99
f 12 57 100
f 12 98 57
f 98 220 57
f 98 218 220
f 99 504 219
f 219 504 506
f 221 506 504
f 221 504 101
f 898 941 102
f 57 14 100
f 100 14 898
f 14 222 898
f 222 941 898
f 57 220 14
f 101 636 221
f 221 636 638
f 770 638 636
f 770 772 638
f 941 900 102
f 900 770 102
f 900 772 770
f 941 222 900
f 680 653 103
f 812 785 680
f 680 785 653
f 223 915 812
f 915 785 812
f 915 913 785
f 915 27 913
f 29 27 915
f 29 153 27
f 155 153 29
f 155 224 153
f 153 224 104
f 105 682 103
f 103 682 680
f 682 225 787
f 812 682 787
f 680 682 812
f 223 812 787
f 271 104 224
f 271 224 273
f 273 226 271
f 271 226 106
f 682 105 655
f 105 227 655
f 105 107 227
f 225 682 655
f 399 106 226
f 399 226 401
f 401 228 399
f 399 228 108
f 656 227 686
f 227 109 686
f 227 107 109
f 229 656 686
f 108 230 110
f 228 230 108
f 686 109 657
f 109 231 657
f 109 111 231
f 229 686 657
f 110 232 112
f 230 232 110
f 233 111 113
f 233 231 111
f 112 234 114
f 232 234 112
f 235 523 115
f 115 523 521
f 113 521 523
f 113 523 233
f 402 236 116
f 402 116 400
f 400 114 402
f 402 114 234
f 237 115 117
f 237 235 115
f 116 238 118
f 236 238 116
f 239 117 119
f 239 237 117
f 118 240 120
f 238 240 118
f 241 119 121
f 241 239 119
f 274 242 122
f 274 122 272
f 272 120 274
f 274 120 240
f 243 121 123
f 243 241 121
f 122 244 124
f 242 244 122
f 123 522 243
f 243 522 524
f 245 524 522
f 245 522 125
f 154 205 126
f 154 124 205
f 124 246 205
f 124 244 246
f 703 247 654
f 247 125 654
f 247 245 125
f 127 703 654
f 28 83 128
f 205 156 126
f 126 156 28
f 156 248 28
f 248 83 28
f 205 246 156
f 703 658 247
f 127 786 703
f 786 658 703
f 786 788 658
f 914 788 786
f 914 916 788
f 83 30 128
f 30 914 128
f 30 916 914
f 83 248 30
f 44 7 207
f 172 137 44
f 44 137 7
f 290 257 172
f 172 257 137
f 416 383 290
f 290 383 257
f 416 208 383
f 209 46 207
f 207 46 44
f 46 323 139
f 172 46 139
f 44 46 172
f 172 139 259
f 172 259 290
f 290 259 324
f 418 290 324
f 416 290 418
f 208 416 505
f 416 538 505
f 416 418 538
f 668 637 538
f 538 637 505
f 668 210 637
f 211 48 209
f 209 48 46
f 323 46 48
f 323 48 325
f 385 418 324
f 418 385 507
f 418 507 538
f 538 507 326
f 670 538 326
f 668 538 670
f 210 668 771
f 668 802 771
f 668 670 802
f 932 899 802
f 802 899 771
f 932 212 899
f 213 50 211
f 211 50 48
f 178 140 325
f 48 178 325
f 50 178 48
f 327 140 178
f 639 670 326
f 670 639 773
f 670 773 802
f 802 773 901
f 802 901 932
f 901 328 932
f 328 212 932
f 328 214 212
f 8 50 213
f 215 180 8
f 180 50 8
f 180 178 50
f 298 260 327
f 178 298 327
f 180 298 178
f 329 260 298
f 330 54 13
f 214 330 13
f 328 330 214
f 54 216 13
f 138 180 215
f 258 298 138
f 138 298 180
f 329 298 258
f 217 329 258
f 331 329 217
f 15 54 330
f 15 332 54
f 332 216 54
f 332 218 216
f 217 384 331
f 331 384 386
f 333 386 384
f 333 384 219
f 218 334 220
f 332 334 218
f 549 335 506
f 335 219 506
f 335 333 219
f 221 549 506
f 14 59 222
f 220 334 14
f 334 183 14
f 183 59 14
f 183 334 141
f 141 336 183
f 549 508 335
f 681 337 638
f 638 337 221
f 337 508 221
f 508 549 221
f 772 813 681
f 772 681 638
f 900 943 813
f 900 813 772
f 943 900 222
f 59 943 222
f 61 943 59
f 59 185 61
f 59 183 185
f 183 336 185
f 185 336 338
f 681 640 337
f 640 681 339
f 681 815 339
f 681 813 815
f 813 945 815
f 813 943 945
f 943 63 945
f 943 61 63
f 61 187 63
f 61 185 187
f 185 338 187
f 187 338 340
f 815 774 339
f 774 815 341
f 815 947 341
f 815 945 947
f 945 65 947
f 945 63 65
f 63 189 65
f 63 187 189
f 187 340 189
f 189 340 342
f 947 902 341
f 902 947 343
f 947 67 343
f 947 65 67
f 65 191 67
f 65 189 191
f 189 342 191
f 191 342 344
f 67 16 343
f 16 67 142
f 142 67 191
f 191 344 142
f 942 915 223
f 345 31 942
f 31 915 942
f 31 29 915
f 31 155 29
f 157 155 31
f 157 346 155
f 155 346 224
f 347 789 225
f 225 789 787
f 917 942 223
f 787 917 223
f 789 917 787
f 345 942 917
f 273 224 346
f 273 346 275
f 275 348 273
f 273 348 226
f 684 655 227
f 225 655 684
f 349 225 684
f 347 225 349
f 401 226 348
f 401 348 403
f 403 350 401
f 401 350 228
f 656 684 227
f 349 684 656
f 229 349 656
f 351 349 229
f 228 352 230
f 350 352 228
f 688 657 231
f 229 657 688
f 353 229 688
f 351 229 353
f 230 354 232
f 352 354 230
f 688 231 659
f 231 355 659
f 231 233 355
f 353 688 659
f 232 356 234
f 354 356 232
f 558 523 235
f 233 523 558
f 357 233 558
f 355 233 357
f 402 445 236
f 402 234 445
f 234 358 445
f 234 356 358
f 558 235 525
f 235 359 525
f 235 237 359
f 357 558 525
f 236 445 404
f 360 236 404
f 238 236 360
f 445 358 404
f 361 237 239
f 361 359 237
f 238 362 240
f 360 362 238
f 363 239 241
f 363 361 239
f 274 321 242
f 274 240 321
f 240 364 321
f 240 362 364
f 365 241 243
f 365 363 241
f 242 321 276
f 366 242 276
f 244 242 366
f 321 364 276
f 567 367 524
f 367 243 524
f 367 365 243
f 245 567 524
f 244 368 246
f 366 368 244
f 567 526 367
f 369 526 567
f 245 369 567
f 247 369 245
f 158 370 248
f 158 248 156
f 156 246 158
f 158 246 368
f 247 658 369
f 369 658 660
f 788 837 371
f 660 788 371
f 658 788 660
f 916 967 837
f 916 837 788
f 32 372 967
f 916 32 967
f 30 32 916
f 30 248 32
f 32 248 370
f 837 790 371
f 790 837 918
f 918 837 967
f 967 372 918
f 174 139 323
f 292 259 174
f 174 259 139
f 292 324 259
f 325 176 323
f 323 176 174
f 294 174 176
f 292 174 294
f 324 292 385
f 292 420 385
f 292 294 420
f 540 507 420
f 420 507 385
f 540 326 507
f 140 176 325
f 327 296 140
f 296 176 140
f 296 294 176
f 422 294 296
f 420 294 422
f 542 420 422
f 540 420 542
f 326 540 639
f 540 672 639
f 540 542 672
f 804 773 672
f 672 773 639
f 934 901 804
f 804 901 773
f 934 328 901
f 260 296 327
f 329 424 260
f 424 296 260
f 424 422 296
f 544 422 424
f 542 422 544
f 544 447 641
f 672 544 641
f 542 544 672
f 672 641 775
f 672 775 804
f 804 775 448
f 936 804 448
f 934 804 936
f 328 934 330
f 330 934 936
f 331 426 329
f 329 426 424
f 426 449 509
f 544 426 509
f 424 426 544
f 447 544 509
f 903 936 448
f 450 56 15
f 450 15 330
f 903 450 330
f 936 903 330
f 56 332 15
f 386 426 331
f 449 426 386
f 333 449 386
f 451 449 333
f 17 56 450
f 334 332 56
f 143 334 56
f 17 143 56
f 181 334 143
f 143 452 181
f 453 333 335
f 453 451 333
f 181 141 334
f 452 261 301
f 452 301 336
f 181 452 336
f 141 181 336
f 261 454 301
f 551 455 508
f 455 335 508
f 455 453 335
f 337 551 508
f 305 338 336
f 305 336 301
f 301 454 305
f 305 454 456
f 553 457 551
f 551 457 455
f 551 337 640
f 683 551 640
f 553 551 683
f 339 683 640
f 307 340 338
f 307 338 305
f 305 456 307
f 307 456 458
f 553 510 457
f 510 553 459
f 553 685 459
f 553 683 685
f 683 339 774
f 817 683 774
f 685 683 817
f 341 817 774
f 309 342 340
f 309 340 307
f 307 458 309
f 309 458 460
f 685 642 459
f 642 685 461
f 685 819 461
f 685 817 819
f 817 341 902
f 949 817 902
f 819 817 949
f 343 949 902
f 311 344 342
f 311 342 309
f 309 460 311
f 311 460 462
f 819 776 461
f 776 819 463
f 819 951 463
f 819 949 951
f 949 343 16
f 69 949 16
f 951 949 69
f 142 193 69
f 142 69 16
f 193 142 344
f 311 193 344
f 313 193 311
f 311 462 313
f 313 462 464
f 951 904 463
f 904 951 465
f 951 71 465
f 951 69 71
f 69 195 71
f 69 193 195
f 466 195 262
f 195 313 262
f 195 193 313
f 313 464 262
f 71 18 465
f 18 71 144
f 144 71 195
f 195 466 144
f 467 33 345
f 345 33 31
f 33 157 31
f 159 157 33
f 159 468 157
f 157 468 346
f 814 789 347
f 469 919 814
f 919 789 814
f 919 917 789
f 345 917 919
f 345 919 467
f 275 346 468
f 275 468 277
f 348 275 433
f 275 405 433
f 275 277 405
f 405 470 433
f 814 347 791
f 347 471 791
f 347 349 471
f 469 814 791
f 433 403 348
f 433 470 403
f 470 350 403
f 470 472 350
f 473 349 351
f 473 471 349
f 350 474 352
f 472 474 350
f 475 351 353
f 475 473 351
f 352 476 354
f 474 476 352
f 690 659 355
f 353 659 690
f 477 353 690
f 475 353 477
f 354 478 356
f 476 478 354
f 690 355 661
f 355 479 661
f 355 357 479
f 477 690 661
f 356 480 358
f 478 480 356
f 560 525 359
f 357 525 560
f 481 357 560
f 479 357 481
f 406 482 360
f 406 360 404
f 404 358 406
f 406 358 480
f 361 562 359
f 359 562 560
f 481 560 562
f 481 562 483
f 360 484 362
f 482 484 360
f 562 361 527
f 361 485 527
f 361 363 485
f 483 562 527
f 362 486 364
f 484 486 362
f 487 363 365
f 487 485 363
f 278 488 366
f 278 366 276
f 276 364 278
f 278 364 486
f 489 365 367
f 489 487 365
f 366 490 368
f 488 490 366
f 367 526 489
f 489 526 528
f 491 528 526
f 491 526 369
f 160 492 370
f 160 370 158
f 158 368 160
f 160 368 490
f 369 660 491
f 491 660 662
f 493 662 660
f 493 660 371
f 34 494 372
f 34 372 32
f 32 370 34
f 34 370 492
f 371 790 493
f 493 790 792
f 918 792 790
f 918 920 792
f 918 372 920
f 920 372 494
f 575 373 417
f 417 373 537
f 537 373 495
f 495 576 537
f 419 577 417
f 417 577 575
f 417 539 419
f 417 537 539
f 537 576 539
f 539 576 578
f 421 579 419
f 419 579 577
f 419 541 421
f 419 539 541
f 539 578 541
f 541 578 580
f 421 374 579
f 374 421 496
f 496 421 541
f 541 580 496
f 674 641 447
f 806 775 674
f 674 775 641
f 806 448 775
f 581 511 449
f 449 511 509
f 643 674 447
f 509 643 447
f 511 643 509
f 674 643 777
f 674 777 806
f 903 448 806
f 777 903 806
f 905 903 777
f 905 582 903
f 903 582 450
f 583 449 451
f 583 581 449
f 17 450 582
f 17 582 19
f 19 143 17
f 145 143 19
f 145 584 143
f 143 584 452
f 585 387 427
f 453 427 387
f 583 453 387
f 451 453 583
f 261 452 584
f 261 584 263
f 263 586 261
f 261 586 454
f 429 587 427
f 427 587 585
f 427 453 455
f 427 455 429
f 586 391 431
f 456 586 431
f 454 586 456
f 391 588 431
f 429 388 587
f 589 388 429
f 455 589 429
f 457 589 455
f 435 458 456
f 435 456 431
f 431 588 435
f 435 588 590
f 457 510 589
f 589 510 512
f 591 512 510
f 591 510 459
f 437 460 458
f 437 458 435
f 435 590 437
f 437 590 592
f 687 593 642
f 593 459 642
f 593 591 459
f 461 687 642
f 439 462 460
f 439 460 437
f 437 592 439
f 439 592 594
f 687 644 593
f 821 595 776
f 776 595 461
f 595 644 461
f 644 687 461
f 463 821 776
f 441 464 462
f 441 462 439
f 439 594 441
f 441 594 596
f 823 597 821
f 821 597 595
f 821 463 904
f 953 821 904
f 823 821 953
f 465 953 904
f 262 315 466
f 441 392 464
f 464 392 262
f 392 598 262
f 598 315 262
f 441 596 392
f 823 778 597
f 778 823 599
f 823 955 599
f 823 953 955
f 953 465 18
f 73 953 18
f 955 953 73
f 144 197 73
f 144 73 18
f 197 144 466
f 315 197 466
f 317 197 315
f 315 598 317
f 317 598 600
f 957 601 955
f 955 601 599
f 955 75 957
f 955 73 75
f 602 75 146
f 75 197 146
f 75 73 197
f 146 197 264
f 264 197 317
f 317 600 264
f 957 906 601
f 906 957 20
f 20 957 75
f 75 602 20
f 603 35 467
f 467 35 33
f 35 159 33
f 161 159 35
f 468 159 303
f 159 279 303
f 159 161 279
f 279 604 303
f 605 921 469
f 469 921 919
f 467 919 921
f 467 921 603
f 303 277 468
f 277 303 604
f 407 277 604
f 405 277 407
f 407 606 405
f 405 606 470
f 607 793 471
f 471 793 791
f 469 791 793
f 469 793 605
f 606 529 569
f 472 606 569
f 470 606 472
f 529 608 569
f 609 471 473
f 609 607 471
f 571 474 472
f 571 472 569
f 569 608 571
f 571 608 610
f 611 473 475
f 611 609 473
f 573 476 474
f 573 474 571
f 571 610 573
f 573 610 612
f 613 475 477
f 613 611 475
f 476 573 530
f 614 476 530
f 478 476 614
f 573 612 530
f 692 661 479
f 477 661 692
f 615 477 692
f 613 477 615
f 478 616 480
f 614 616 478
f 481 694 479
f 479 694 692
f 615 692 694
f 615 694 617
f 408 618 482
f 408 482 406
f 406 480 408
f 408 480 616
f 483 696 481
f 481 696 694
f 617 694 696
f 617 696 619
f 482 620 484
f 618 620 482
f 564 527 485
f 663 696 483
f 663 483 527
f 621 663 527
f 564 621 527
f 619 696 663
f 280 622 322
f 322 486 280
f 486 620 280
f 486 484 620
f 487 566 485
f 485 566 564
f 621 564 566
f 621 566 623
f 488 278 322
f 622 488 322
f 624 488 622
f 486 322 278
f 489 568 487
f 487 568 566
f 623 566 568
f 623 568 625
f 162 626 206
f 206 490 162
f 490 624 162
f 490 488 624
f 528 568 489
f 625 568 528
f 491 625 528
f 627 625 491
f 492 160 206
f 626 492 206
f 628 492 626
f 490 206 160
f 491 662 627
f 627 662 664
f 662 493 838
f 794 662 838
f 664 662 794
f 794 838 968
f 794 968 922
f 922 968 494
f 34 922 494
f 36 922 34
f 34 492 36
f 36 492 628
f 792 838 493
f 920 968 792
f 792 968 838
f 494 968 920
f 705 249 289
f 289 249 415
f 415 249 375
f 415 375 535
f 535 375 497
f 535 497 665
f 665 497 629
f 629 706 665
f 707 129 173
f 705 289 129
f 289 173 129
f 289 291 173
f 415 373 575
f 291 415 575
f 289 415 291
f 535 495 373
f 535 373 415
f 667 576 495
f 535 667 495
f 665 667 535
f 665 706 667
f 667 706 708
f 175 709 173
f 173 709 707
f 173 293 175
f 173 291 293
f 291 575 577
f 291 577 293
f 669 578 576
f 669 576 667
f 763 801 708
f 801 667 708
f 801 669 667
f 763 710 801
f 175 130 709
f 130 175 711
f 175 295 711
f 175 293 295
f 293 577 579
f 293 579 295
f 671 580 578
f 671 578 669
f 669 803 671
f 669 801 803
f 801 710 803
f 803 710 712
f 297 713 295
f 295 713 711
f 295 579 374
f 423 295 374
f 297 295 423
f 496 543 423
f 496 423 374
f 543 496 580
f 671 543 580
f 673 543 671
f 671 805 673
f 671 803 805
f 803 712 805
f 805 712 714
f 297 250 713
f 250 297 376
f 376 297 423
f 376 423 498
f 498 423 543
f 498 543 630
f 630 543 673
f 630 673 764
f 764 673 805
f 805 714 764
f 546 511 581
f 715 645 546
f 645 511 546
f 645 643 511
f 645 777 643
f 779 777 645
f 938 905 716
f 905 779 716
f 905 777 779
f 938 582 905
f 546 581 513
f 581 717 513
f 581 583 717
f 715 546 513
f 907 938 716
f 19 582 938
f 907 19 938
f 21 19 907
f 21 145 19
f 147 145 21
f 147 718 145
f 145 718 584
f 719 389 585
f 585 389 387
f 583 387 389
f 583 389 717
f 263 584 718
f 263 718 265
f 265 720 263
f 263 720 586
f 721 585 587
f 721 719 585
f 391 586 720
f 391 720 393
f 393 722 391
f 391 722 588
f 587 388 721
f 721 388 390
f 723 390 388
f 723 388 589
f 588 724 590
f 722 724 588
f 555 725 512
f 725 589 512
f 725 723 589
f 591 555 512
f 590 726 592
f 724 726 590
f 555 514 725
f 727 514 555
f 591 727 555
f 593 727 591
f 592 728 594
f 726 728 592
f 689 729 644
f 729 593 644
f 729 727 593
f 595 689 644
f 594 730 596
f 728 730 594
f 689 646 729
f 731 646 689
f 595 731 689
f 597 731 595
f 392 443 598
f 392 596 443
f 596 732 443
f 596 730 732
f 733 647 693
f 825 693 778
f 693 731 778
f 731 597 778
f 693 647 731
f 599 825 778
f 598 443 394
f 734 598 394
f 600 598 734
f 443 732 394
f 693 648 733
f 648 693 735
f 693 827 735
f 693 825 827
f 825 599 601
f 825 601 827
f 146 199 602
f 266 736 199
f 146 266 199
f 264 266 146
f 264 600 266
f 266 600 734
f 829 737 827
f 827 737 735
f 827 601 906
f 959 827 906
f 829 827 959
f 20 77 959
f 20 959 906
f 77 20 602
f 199 77 602
f 201 77 199
f 199 736 201
f 201 736 738
f 829 780 737
f 780 829 908
f 908 829 959
f 908 959 22
f 22 959 77
f 22 77 148
f 148 77 201
f 201 738 148
f 739 37 603
f 603 37 35
f 37 161 35
f 163 161 37
f 163 279 161
f 281 279 163
f 281 740 279
f 279 740 604
f 741 923 605
f 605 923 921
f 603 921 923
f 603 923 739
f 407 604 740
f 407 740 409
f 409 742 407
f 407 742 606
f 743 795 607
f 607 795 793
f 605 793 795
f 605 795 741
f 529 606 742
f 529 742 531
f 531 744 529
f 529 744 608
f 745 607 609
f 745 743 607
f 608 746 610
f 744 746 608
f 747 609 611
f 747 745 609
f 610 748 612
f 746 748 610
f 749 611 613
f 749 747 611
f 532 750 614
f 532 614 530
f 530 612 532
f 532 612 748
f 751 613 615
f 751 749 613
f 410 752 446
f 446 616 410
f 616 750 410
f 616 614 750
f 796 751 826
f 751 617 826
f 751 615 617
f 753 796 826
f 618 408 446
f 752 618 446
f 754 618 752
f 616 446 408
f 619 828 617
f 617 828 826
f 753 826 828
f 753 828 755
f 282 756 320
f 320 620 282
f 620 754 282
f 620 618 754
f 698 663 621
f 663 698 619
f 698 828 619
f 698 830 828
f 755 828 830
f 755 830 757
f 164 758 202
f 320 756 164
f 320 164 202
f 280 320 202
f 622 280 202
f 620 320 280
f 623 700 621
f 621 700 698
f 700 759 797
f 830 700 797
f 698 700 830
f 757 830 797
f 38 760 80
f 202 758 38
f 80 202 38
f 204 202 80
f 622 202 624
f 624 202 204
f 625 702 623
f 623 702 700
f 759 700 702
f 759 702 761
f 762 82 80
f 762 80 760
f 162 204 626
f 204 82 626
f 204 80 82
f 624 204 162
f 627 704 625
f 625 704 702
f 836 798 761
f 702 836 761
f 704 836 702
f 798 836 966
f 798 966 924
f 82 762 924
f 966 82 924
f 84 82 966
f 626 82 628
f 628 82 84
f 664 704 627
f 794 836 664
f 664 836 704
f 922 966 794
f 794 966 836
f 36 84 922
f 922 84 966
f 628 84 36
f 839 251 287
f 287 251 413
f 413 251 377
f 413 377 533
f 533 377 499
f 499 840 533
f 841 1 43
f 43 1 171
f 171 1 131
f 839 287 131
f 131 287 171
f 287 249 171
f 249 705 171
f 413 375 249
f 413 249 287
f 533 497 375
f 533 375 413
f 497 533 840
f 631 497 840
f 629 497 631
f 631 842 629
f 629 842 706
f 45 843 43
f 43 843 841
f 171 129 707
f 45 171 707
f 43 171 45
f 171 705 129
f 842 765 799
f 708 842 799
f 706 842 708
f 765 844 799
f 47 845 45
f 45 845 843
f 45 707 709
f 45 709 47
f 799 763 708
f 844 893 931
f 844 931 710
f 799 844 710
f 763 799 710
f 893 846 931
f 49 847 47
f 47 847 845
f 47 709 130
f 177 47 130
f 49 47 177
f 711 177 130
f 933 712 710
f 933 710 931
f 931 846 933
f 933 846 848
f 49 2 847
f 2 49 849
f 49 179 849
f 49 177 179
f 177 711 713
f 177 713 179
f 935 714 712
f 935 712 933
f 933 848 935
f 935 848 850
f 179 132 849
f 713 250 179
f 250 132 179
f 250 252 132
f 376 425 851
f 252 376 851
f 250 376 252
f 498 545 425
f 498 425 376
f 630 675 545
f 630 545 498
f 764 807 675
f 764 675 630
f 807 764 714
f 935 807 714
f 937 807 935
f 935 850 937
f 937 850 852
f 425 378 851
f 378 425 500
f 500 425 545
f 500 545 632
f 632 545 675
f 632 675 766
f 766 675 807
f 766 807 894
f 894 807 937
f 937 852 894
f 676 645 715
f 808 779 676
f 676 779 645
f 808 716 779
f 853 515 717
f 717 515 513
f 649 676 715
f 513 649 715
f 515 649 513
f 676 649 781
f 676 781 808
f 907 716 808
f 781 907 808
f 909 907 781
f 909 21 907
f 23 21 909
f 23 147 21
f 149 147 23
f 149 854 147
f 147 854 718
f 428 389 719
f 717 389 428
f 855 717 428
f 853 717 855
f 265 718 854
f 265 854 267
f 267 856 265
f 265 856 720
f 721 430 719
f 719 430 428
f 855 428 430
f 855 430 857
f 393 720 856
f 393 856 395
f 395 858 393
f 393 858 722
f 390 430 721
f 857 430 390
f 723 857 390
f 859 857 723
f 722 860 724
f 858 860 722
f 861 723 725
f 861 859 723
f 724 862 726
f 860 862 724
f 725 514 861
f 861 514 516
f 863 516 514
f 863 514 727
f 726 864 728
f 862 864 726
f 865 727 729
f 865 863 727
f 728 866 730
f 864 866 728
f 691 867 646
f 867 729 646
f 867 865 729
f 731 691 646
f 730 868 732
f 866 868 730
f 647 733 691
f 733 867 691
f 733 869 867
f 691 731 647
f 396 870 734
f 396 734 394
f 394 732 396
f 396 732 868
f 695 871 648
f 871 733 648
f 871 869 733
f 735 695 648
f 266 319 736
f 266 734 319
f 734 872 319
f 734 870 872
f 697 873 695
f 695 873 871
f 695 735 737
f 695 737 697
f 736 319 268
f 874 736 268
f 738 736 874
f 319 872 268
f 699 875 697
f 697 875 873
f 697 737 780
f 831 697 780
f 699 697 831
f 908 961 831
f 908 831 780
f 22 79 961
f 22 961 908
f 150 876 79
f 22 150 79
f 148 150 22
f 148 738 150
f 150 738 874
f 699 650 875
f 650 699 782
f 782 699 831
f 782 831 910
f 910 831 961
f 910 961 24
f 24 961 79
f 79 876 24
f 60 37 739
f 184 163 60
f 60 163 37
f 304 281 184
f 184 281 163
f 304 740 281
f 877 925 741
f 741 925 923
f 39 60 739
f 923 39 739
f 925 39 923
f 60 39 165
f 60 165 184
f 184 165 283
f 184 283 304
f 409 740 304
f 283 409 304
f 411 409 283
f 411 878 409
f 409 878 742
f 816 795 743
f 741 795 816
f 879 741 816
f 877 741 879
f 880 570 531
f 742 880 531
f 878 880 742
f 570 744 531
f 745 818 743
f 743 818 816
f 879 816 818
f 879 818 881
f 882 572 570
f 882 570 880
f 744 570 746
f 746 570 572
f 747 820 745
f 745 820 818
f 881 818 820
f 881 820 883
f 884 574 572
f 884 572 882
f 746 572 748
f 748 572 574
f 749 822 747
f 747 822 820
f 883 820 822
f 883 822 885
f 750 532 574
f 884 750 574
f 886 750 884
f 748 574 532
f 751 824 749
f 749 824 822
f 885 822 824
f 885 824 887
f 412 888 752
f 412 752 410
f 410 750 412
f 412 750 886
f 796 824 751
f 926 887 956
f 956 887 753
f 887 824 753
f 824 796 753
f 926 956 74
f 926 74 40
f 40 74 198
f 40 198 166
f 166 198 318
f 166 318 284
f 318 754 284
f 754 888 284
f 754 752 888
f 755 958 753
f 753 958 956
f 76 956 958
f 74 956 76
f 200 74 76
f 198 74 200
f 282 318 756
f 318 200 756
f 318 198 200
f 754 318 282
f 757 960 755
f 755 960 958
f 78 958 960
f 76 958 78
f 164 200 758
f 200 78 758
f 200 76 78
f 756 200 164
f 832 797 759
f 797 832 757
f 832 960 757
f 832 962 960
f 38 78 760
f 78 962 760
f 78 960 962
f 758 78 38
f 761 834 759
f 759 834 832
f 964 832 834
f 962 832 964
f 760 962 762
f 762 962 964
f 798 834 761
f 924 964 798
f 798 964 834
f 762 964 924
f 969 133 169
f 169 133 839
f 133 251 839
f 133 253 251
f 253 377 251
f 379 377 253
f 379 499 377
f 501 499 379
f 501 970 499
f 499 970 840
f 971 3 841
f 841 3 1
f 3 969 169
f 131 3 169
f 1 3 131
f 169 839 131
f 631 840 970
f 631 970 633
f 633 972 631
f 631 972 842
f 973 889 927
f 843 927 889
f 971 843 889
f 841 843 971
f 765 842 972
f 765 972 767
f 767 974 765
f 765 974 844
f 929 975 927
f 927 975 973
f 927 843 845
f 927 845 929
f 893 844 974
f 893 974 895
f 895 976 893
f 893 976 846
f 929 890 975
f 977 890 929
f 845 977 929
f 847 977 845
f 976 9 51
f 848 976 51
f 846 976 848
f 9 978 51
f 847 2 977
f 977 2 4
f 979 4 2
f 979 2 849
f 53 850 848
f 53 848 51
f 51 978 53
f 53 978 980
f 849 132 979
f 979 132 134
f 252 299 981
f 134 252 981
f 132 252 134
f 851 299 252
f 850 53 10
f 982 850 10
f 852 850 982
f 53 980 10
f 299 254 981
f 851 378 299
f 378 254 299
f 378 380 254
f 500 547 983
f 380 500 983
f 378 500 380
f 632 677 547
f 632 547 500
f 766 809 677
f 766 677 632
f 894 939 809
f 894 809 766
f 894 852 939
f 852 984 939
f 852 982 984
f 547 502 983
f 502 547 634
f 634 547 677
f 634 677 768
f 768 677 809
f 768 809 896
f 896 809 939
f 939 984 896
f 548 515 853
f 678 649 548
f 548 649 515
f 985 783 678
f 783 649 678
f 783 781 649
f 783 909 781
f 911 909 783
f 58 23 986
f 23 911 986
f 23 909 911
f 182 149 58
f 58 149 23
f 182 854 149
f 855 550 853
f 853 550 548
f 550 987 651
f 678 550 651
f 548 550 678
f 985 678 651
f 25 58 986
f 58 25 151
f 58 151 182
f 267 854 182
f 151 267 182
f 269 267 151
f 269 988 267
f 267 988 856
f 550 855 517
f 855 989 517
f 855 857 989
f 987 550 517
f 990 432 395
f 856 990 395
f 988 990 856
f 432 858 395
f 991 857 859
f 991 989 857
f 397 432 990
f 397 992 432
f 992 858 432
f 992 860 858
f 518 991 556
f 991 861 556
f 991 859 861
f 993 518 556
f 860 994 862
f 992 994 860
f 516 556 861
f 993 556 516
f 863 993 516
f 995 993 863
f 862 996 864
f 994 996 862
f 997 863 865
f 997 995 863
f 864 998 866
f 996 998 864
f 999 519 557
f 867 557 519
f 997 867 519
f 865 867 997
f 398 1000 444
f 444 868 398
f 868 998 398
f 868 866 998
f 559 1001 557
f 557 1001 999
f 557 867 869
f 557 869 559
f 870 396 444
f 1000 870 444
f 1002 870 1000
f 868 444 396
f 561 1003 559
f 559 1003 1001
f 559 869 871
f 559 871 561
f 870 1004 872
f 1002 1004 870
f 563 1005 561
f 561 1005 1003
f 561 871 873
f 561 873 563
f 270 1006 874
f 270 874 268
f 268 872 270
f 270 872 1004
f 563 520 1005
f 1007 520 563
f 873 1007 563
f 875 1007 873
f 150 203 876
f 150 874 203
f 874 1008 203
f 874 1006 1008
f 701 1009 650
f 1009 875 650
f 1009 1007 875
f 782 833 701
f 782 701 650
f 910 963 833
f 910 833 782
f 24 81 963
f 24 963 910
f 203 152 876
f 876 152 24
f 152 1010 24
f 1010 81 24
f 203 1008 152
f 701 652 1009
f 652 701 784
f 784 701 833
f 784 833 912
f 912 833 963
f 912 963 26
f 26 963 81
f 81 1010 26
f 944 925 877
f 62 39 944
f 944 39 925
f 186 165 62
f 62 165 39
f 306 283 186
f 186 283 165
f 434 411 306
f 306 411 283
f 434 878 411
f 879 946 877
f 877 946 944
f 946 1011 41
f 62 946 41
f 944 946 62
f 62 41 167
f 62 167 186
f 186 167 285
f 186 285 306
f 306 285 1012
f 436 306 1012
f 434 306 436
f 878 434 880
f 880 434 436
f 881 948 879
f 879 948 946
f 1011 946 948
f 1011 948 1013
f 1014 438 436
f 1014 436 1012
f 880 436 882
f 882 436 438
f 883 950 881
f 881 950 948
f 1013 948 950
f 1013 950 1015
f 1016 440 438
f 1016 438 1014
f 882 438 884
f 884 438 440
f 885 952 883
f 883 952 950
f 1015 950 952
f 1015 952 1017
f 286 1018 314
f 440 1016 286
f 314 440 286
f 442 440 314
f 884 440 886
f 886 440 442
f 887 954 885
f 885 954 952
f 72 42 1017
f 952 72 1017
f 954 72 952
f 42 72 196
f 42 196 168
f 314 1018 168
f 196 314 168
f 316 314 196
f 412 442 888
f 442 316 888
f 442 314 316
f 886 442 412
f 926 954 887
f 40 72 926
f 926 72 954
f 166 196 40
f 40 196 72
f 284 316 166
f 166 316 196
f 888 316 284
f 85 135 969
f 969 135 133
f 135 253 133
f 255 253 135
f 255 379 253
f 381 379 255
f 534 501 86
f 501 381 86
f 501 379 381
f 534 970 501
f 87 5 971
f 971 5 3
f 969 3 5
f 969 5 85
f 503 534 86
f 633 970 534
f 503 633 534
f 635 633 503
f 635 88 633
f 633 88 972
f 89 891 973
f 973 891 889
f 971 889 891
f 971 891 87
f 767 972 88
f 767 88 769
f 769 90 767
f 767 90 974
f 91 973 975
f 91 89 973
f 895 974 90
f 895 90 897
f 897 92 895
f 895 92 976
f 975 890 91
f 91 890 892
f 93 892 890
f 93 890 977
f 9 976 92
f 9 92 11
f 11 94 9
f 9 94 978
f 977 4 93
f 93 4 6
f 95 6 4
f 95 4 979
f 978 96 980
f 94 96 978
f 979 134 95
f 95 134 136
f 97 136 134
f 97 134 981
f 10 55 982
f 10 980 55
f 980 98 55
f 980 96 98
f 981 254 97
f 97 254 256
f 380 256 254
f 380 382 256
f 99 382 380
f 99 380 983
f 982 55 12
f 100 982 12
f 984 982 100
f 55 98 12
f 983 502 99
f 99 502 504
f 634 679 101
f 504 634 101
f 502 634 504
f 768 811 679
f 768 679 634
f 898 102 811
f 768 898 811
f 896 898 768
f 896 984 898
f 898 984 100
f 679 636 101
f 636 679 770
f 770 679 811
f 811 102 770
f 810 783 985
f 940 911 810
f 810 911 783
f 940 986 911
f 103 653 987
f 987 653 651
f 785 810 985
f 651 785 985
f 653 785 651
f 810 785 913
f 810 913 940
f 25 986 940
f 913 25 940
f 27 25 913
f 27 151 25
f 153 151 27
f 302 269 104
f 269 153 104
f 269 151 153
f 302 988 269
f 552 517 989
f 987 517 552
f 105 987 552
f 103 987 105
f 271 302 104
f 271 106 302
f 106 988 302
f 106 990 988
f 991 554 989
f 989 554 552
f 105 552 554
f 105 554 107
f 397 990 106
f 397 106 399
f 399 108 397
f 397 108 992
f 518 554 991
f 107 554 518
f 993 107 518
f 109 107 993
f 992 110 994
f 108 110 992
f 111 993 995
f 111 109 993
f 994 112 996
f 110 112 994
f 113 995 997
f 113 111 995
f 996 114 998
f 112 114 996
f 115 521 999
f 999 521 519
f 997 519 521
f 997 521 113
f 400 116 1000
f 400 1000 398
f 398 998 400
f 400 998 114
f 117 999 1001
f 117 115 999
f 1000 118 1002
f 116 118 1000
f 119 1001 1003
f 119 117 1001
f 1002 120 1004
f 118 120 1002
f 121 1003 1005
f 121 119 1003
f 272 122 1006
f 272 1006 270
f 270 1004 272
f 272 1004 120
f 565 123 520
f 123 1005 520
f 123 121 1005
f 1007 565 520
f 1006 124 1008
f 122 124 1006
f 565 522 123
f 125 522 565
f 1007 125 565
f 1009 125 1007
f 154 126 1010
f 154 1010 152
f 152 1008 154
f 154 1008 124
f 1009 652 125
f 125 652 654
f 784 835 127
f 654 784 127
f 652 784 654
f 912 965 835
f 912 835 784
f 28 128 965
f 912 28 965
f 26 28 912
f 26 1010 28
f 28 1010 126
f 835 786 127
f 786 835 914
f 914 835 965
f 965 128 914
f 64 41 1011
f 188 167 64
f 64 167 41
f 308 285 188
f 188 285 167
f 308 1012 285
f 1013 66 1011
f 1011 66 64
f 190 64 66
f 188 64 190
f 310 188 190
f 308 188 310
f 1012 308 1014
f 1014 308 310
f 1015 68 1013
f 1013 68 66
f 192 66 68
f 190 66 192
f 312 190 192
f 310 190 312
f 1014 310 1016
f 1016 310 312
f 1017 70 1015
f 1015 70 68
f 194 68 70
f 192 68 194
f 286 312 1018
f 312 194 1018
f 312 192 194
f 1016 312 286
f 42 70 1017
f 168 194 42
f 42 194 70
f 1018 194 168
