# Converted from NanoShaper .vert/.face
v 9.167000 15.449000 4.892000
v 9.370000 15.449000 5.392000
v 9.634000 15.449000 5.892000
v 9.899000 15.449000 6.392000
v 10.148000 15.449000 6.892000
v 10.246000 15.449000 7.392000
v 10.128000 15.449000 7.892000
v 7.025000 15.449000 8.392000
v 9.684000 15.449000 8.392000
v 7.077000 15.449000 8.430000
v 7.577000 15.449000 8.709000
v 8.077000 15.449000 8.792000
v 8.577000 15.449000 8.721000
v 9.077000 15.449000 4.747000
v 9.077000 15.449000 8.582000
v 9.577000 15.449000 5.782000
v 9.577000 15.449000 8.453000
v 10.077000 15.449000 6.749000
v 10.077000 15.449000 7.988000
v 8.077000 19.007000 5.392000
v 8.577000 14.880000 5.392000
v 8.577000 18.917000 5.392000
v 9.077000 15.169000 5.392000
v 9.077000 18.566000 5.392000
v 9.577000 15.643000 5.392000
v 9.577000 18.003000 5.392000
v 9.316000 15.949000 4.392000
v 9.713000 15.949000 4.892000
v 9.806000 15.949000 5.392000
v 9.906000 15.949000 5.892000
v 10.191000 15.949000 6.392000
v 10.349000 15.949000 6.892000
v 10.421000 15.949000 7.392000
v 10.319000 15.949000 7.892000
v 6.703000 15.949000 8.392000
v 9.971000 15.949000 8.392000
v 7.873000 15.949000 8.892000
v 9.130000 15.949000 8.892000
v 6.577000 15.949000 8.267000
v 7.077000 15.949000 8.623000
v 7.577000 15.949000 8.766000
v 8.077000 15.949000 3.996000
v 8.077000 15.949000 8.965000
v 8.577000 15.949000 4.085000
v 8.577000 15.949000 9.046000
v 9.077000 15.949000 4.258000
v 9.077000 15.949000 8.920000
v 9.577000 15.949000 4.651000
v 9.577000 15.949000 8.653000
v 10.077000 15.949000 6.199000
v 10.077000 15.949000 8.284000
v 7.577000 19.088000 5.892000
v 8.077000 19.102000 5.892000
v 8.577000 19.018000 5.892000
v 9.077000 14.815000 5.892000
v 9.077000 18.704000 5.892000
v 9.577000 15.347000 5.892000
v 9.577000 18.154000 5.892000
v 10.077000 16.280000 5.892000
v 10.077000 17.056000 5.892000
v 9.611000 16.449000 4.392000
v 9.921000 16.449000 4.892000
v 10.004000 16.449000 5.392000
v 10.121000 16.449000 5.892000
v 10.381000 16.449000 6.392000
v 10.481000 16.449000 6.892000
v 10.429000 16.449000 7.392000
v 5.943000 16.449000 7.892000
v 10.326000 16.449000 7.892000
v 6.587000 16.449000 8.392000
v 9.982000 16.449000 8.392000
v 7.574000 16.449000 8.892000
v 9.487000 16.449000 8.892000
v 6.077000 16.449000 7.981000
v 6.577000 16.449000 8.381000
v 7.077000 16.449000 4.140000
v 7.077000 16.449000 8.705000
v 7.577000 16.449000 4.042000
v 7.577000 16.449000 8.893000
v 8.077000 16.449000 3.986000
v 8.077000 16.449000 9.177000
v 8.577000 16.449000 3.974000
v 8.577000 16.449000 9.261000
v 9.077000 16.449000 4.051000
v 9.077000 16.449000 9.157000
v 9.577000 16.449000 4.358000
v 9.577000 16.449000 8.800000
v 10.077000 16.449000 5.772000
v 10.077000 16.449000 8.295000
v 7.077000 19.055000 6.392000
v 7.577000 19.113000 6.392000
v 8.077000 19.041000 6.392000
v 8.577000 18.922000 6.392000
v 9.077000 14.452000 6.392000
v 9.077000 18.616000 6.392000
v 9.577000 14.802000 6.392000
v 9.577000 18.186000 6.392000
v 10.077000 15.790000 6.392000
v 10.077000 17.514000 6.392000
v 9.610000 16.949000 4.392000
v 9.920000 16.949000 4.892000
v 10.001000 16.949000 5.392000
v 10.107000 16.949000 5.892000
v 10.362000 16.949000 6.392000
v 10.464000 16.949000 6.892000
v 10.420000 16.949000 7.392000
v 5.660000 16.949000 7.892000
v 10.320000 16.949000 7.892000
v 6.543000 16.949000 8.392000
v 9.973000 16.949000 8.392000
v 7.546000 16.949000 8.892000
v 9.510000 16.949000 8.892000
v 5.577000 16.949000 7.807000
v 6.077000 16.949000 8.158000
v 6.577000 16.949000 4.112000
v 6.577000 16.949000 8.414000
v 7.077000 16.949000 4.035000
v 7.077000 16.949000 8.713000
v 7.577000 16.949000 4.006000
v 7.577000 16.949000 8.909000
v 8.077000 16.949000 4.009000
v 8.077000 16.949000 9.193000
v 8.577000 16.949000 3.975000
v 8.577000 16.949000 9.277000
v 9.077000 16.949000 4.052000
v 9.077000 16.949000 9.174000
v 9.577000 16.949000 4.359000
v 9.577000 16.949000 8.824000
v 10.077000 16.949000 5.806000
v 10.077000 16.949000 8.286000
v 7.077000 19.050000 6.892000
v 7.577000 19.035000 6.892000
v 8.077000 18.924000 6.892000
v 8.577000 18.717000 6.892000
v 9.077000 14.346000 6.892000
v 9.077000 18.568000 6.892000
v 9.577000 14.659000 6.892000
v 9.577000 18.266000 6.892000
v 10.077000 15.347000 6.892000
v 10.077000 17.651000 6.892000
v 9.310000 17.449000 4.392000
v 9.709000 17.449000 4.892000
v 9.853000 17.449000 5.392000
v 9.961000 17.449000 5.892000
v 10.124000 17.449000 6.392000
v 10.247000 17.449000 6.892000
v 10.228000 17.449000 7.392000
v 5.686000 17.449000 7.892000
v 10.110000 17.449000 7.892000
v 6.832000 17.449000 8.392000
v 9.694000 17.449000 8.392000
v 7.871000 17.449000 8.892000
v 9.232000 17.449000 8.892000
v 5.577000 17.449000 7.781000
v 6.077000 17.449000 8.140000
v 6.577000 17.449000 4.114000
v 6.577000 17.449000 8.286000
v 7.077000 17.449000 4.036000
v 7.077000 17.449000 8.512000
v 7.577000 17.449000 4.009000
v 7.577000 17.449000 8.702000
v 8.077000 17.449000 4.022000
v 8.077000 17.449000 9.004000
v 8.577000 17.449000 4.101000
v 8.577000 17.449000 9.101000
v 9.077000 17.449000 4.262000
v 9.077000 17.449000 8.982000
v 9.577000 17.449000 4.657000
v 9.577000 17.449000 8.536000
v 10.077000 17.449000 6.276000
v 10.077000 17.449000 7.955000
v 6.577000 18.840000 7.392000
v 7.077000 18.956000 7.392000
v 7.577000 18.874000 7.392000
v 8.077000 14.273000 7.392000
v 8.077000 18.706000 7.392000
v 8.577000 14.333000 7.392000
v 8.577000 18.654000 7.392000
v 9.077000 14.438000 7.392000
v 9.077000 18.560000 7.392000
v 9.577000 14.775000 7.392000
v 9.577000 18.248000 7.392000
v 10.077000 15.217000 7.392000
v 10.077000 17.649000 7.392000
v 6.443000 17.949000 4.392000
v 8.717000 17.949000 4.392000
v 9.204000 17.949000 4.892000
v 9.618000 17.949000 5.392000
v 9.738000 17.949000 5.892000
v 9.758000 17.949000 6.392000
v 9.831000 17.949000 6.892000
v 9.814000 17.949000 7.392000
v 6.060000 17.949000 7.892000
v 9.720000 17.949000 7.892000
v 7.420000 17.949000 8.392000
v 9.336000 17.949000 8.392000
v 6.077000 17.949000 7.901000
v 6.577000 17.949000 4.326000
v 6.577000 17.949000 8.146000
v 7.077000 17.949000 4.234000
v 7.077000 17.949000 8.278000
v 7.577000 17.949000 4.209000
v 7.577000 17.949000 8.466000
v 8.077000 17.949000 4.219000
v 8.077000 17.949000 8.595000
v 8.577000 17.949000 4.319000
v 8.577000 17.949000 8.659000
v 9.077000 17.949000 4.728000
v 9.077000 17.949000 8.545000
v 9.577000 17.949000 5.316000
v 9.577000 17.949000 8.147000
v 6.077000 17.962000 7.892000
v 6.577000 15.435000 7.892000
v 6.577000 18.465000 7.892000
v 7.077000 14.782000 7.892000
v 7.077000 18.627000 7.892000
v 7.577000 14.444000 7.892000
v 7.577000 18.562000 7.892000
v 8.077000 14.359000 7.892000
v 8.077000 18.538000 7.892000
v 8.577000 14.472000 7.892000
v 8.577000 18.565000 7.892000
v 9.077000 14.763000 7.892000
v 9.077000 18.477000 7.892000
v 9.577000 14.972000 7.892000
v 9.577000 18.137000 7.892000
v 10.077000 15.375000 7.892000
v 10.077000 17.495000 7.892000
v 9.070000 14.449000 6.392000
v 9.299000 14.449000 6.892000
v 9.105000 14.449000 7.392000
v 7.563000 14.449000 7.892000
v 8.522000 14.449000 7.892000
v 8.722000 18.449000 4.892000
v 9.168000 18.449000 5.392000
v 9.288000 18.449000 5.892000
v 9.271000 18.449000 6.392000
v 9.331000 18.449000 6.892000
v 9.312000 18.449000 7.392000
v 6.554000 18.449000 7.892000
v 9.143000 18.449000 7.892000
v 7.577000 14.449000 7.905000
v 8.077000 14.449000 8.088000
v 8.577000 14.449000 7.831000
v 9.077000 14.449000 6.398000
v 9.077000 14.449000 7.420000
v 6.577000 18.449000 7.904000
v 7.077000 18.449000 4.667000
v 7.077000 18.449000 8.039000
v 7.577000 18.449000 4.713000
v 7.577000 18.449000 8.025000
v 8.077000 18.449000 4.697000
v 8.077000 18.449000 8.077000
v 8.577000 18.449000 4.811000
v 8.577000 18.449000 8.141000
v 9.077000 18.449000 5.232000
v 9.077000 18.449000 7.960000
v 6.577000 18.037000 4.392000
v 7.077000 18.152000 4.392000
v 7.577000 18.177000 4.392000
v 8.077000 18.169000 4.392000
v 8.577000 15.351000 4.392000
v 8.577000 18.045000 4.392000
v 9.077000 15.778000 4.392000
v 9.077000 17.616000 4.392000
v 9.577000 16.338000 4.392000
v 9.577000 17.055000 4.392000
v 6.577000 16.490000 8.392000
v 6.577000 17.090000 8.392000
v 7.077000 15.371000 8.392000
v 7.077000 17.657000 8.392000
v 7.577000 14.793000 8.392000
v 7.577000 18.053000 8.392000
v 8.077000 14.677000 8.392000
v 8.077000 18.202000 8.392000
v 8.577000 14.832000 8.392000
v 8.577000 18.261000 8.392000
v 9.077000 15.167000 8.392000
v 9.077000 18.144000 8.392000
v 9.577000 15.364000 8.392000
v 9.577000 17.609000 8.392000
v 8.415000 14.949000 4.892000
v 9.259000 14.949000 5.892000
v 9.689000 14.949000 6.392000
v 9.806000 14.949000 6.892000
v 9.776000 14.949000 7.392000
v 6.946000 14.949000 7.892000
v 9.525000 14.949000 7.892000
v 7.358000 14.949000 8.392000
v 8.727000 14.949000 8.392000
v 8.483000 18.949000 5.392000
v 8.734000 18.949000 5.892000
v 8.499000 18.949000 6.392000
v 8.015000 18.949000 6.892000
v 6.975000 18.949000 7.392000
v 7.259000 18.949000 7.392000
v 7.077000 14.949000 8.118000
v 7.577000 14.949000 8.512000
v 8.077000 14.949000 8.606000
v 8.577000 14.949000 5.063000
v 8.577000 14.949000 8.481000
v 9.077000 14.949000 5.736000
v 9.077000 14.949000 8.169000
v 9.577000 14.949000 6.202000
v 9.577000 14.949000 7.838000
v 7.077000 18.949000 7.410000
v 7.577000 18.949000 7.169000
v 8.077000 18.949000 5.263000
v 8.077000 18.949000 6.821000
v 8.577000 18.949000 5.479000
v 8.577000 18.949000 6.317000
v 7.077000 18.719000 4.892000
v 7.577000 18.640000 4.892000
v 8.077000 18.675000 4.892000
v 8.577000 15.003000 4.892000
v 8.577000 18.550000 4.892000
v 9.077000 15.360000 4.892000
v 9.077000 18.081000 4.892000
v 9.577000 15.781000 4.892000
v 9.577000 17.612000 4.892000
v 7.577000 16.444000 8.892000
v 7.577000 17.027000 8.892000
v 8.077000 15.777000 8.892000
v 8.077000 17.601000 8.892000
v 8.577000 15.738000 8.892000
v 8.577000 17.723000 8.892000
v 9.077000 15.914000 8.892000
v 9.077000 17.571000 8.892000
f 291 310 22
f 291 20 310
f 20 54 310
f 20 53 54
f 22 310 292
f 56 22 292
f 24 22 56
f 310 54 292
f 302 283 55
f 16 57 2
f 2 57 23
f 57 283 23
f 283 302 23
f 25 16 2
f 236 58 26
f 236 26 235
f 235 24 236
f 236 24 56
f 16 3 57
f 25 29 16
f 29 3 16
f 29 30 3
f 63 88 59
f 30 63 59
f 29 63 30
f 102 129 88
f 102 88 63
f 144 60 129
f 102 144 129
f 143 144 102
f 188 144 143
f 188 189 144
f 188 26 189
f 189 26 58
f 88 64 59
f 64 88 103
f 103 88 129
f 129 60 103
f 52 92 53
f 91 92 52
f 293 93 311
f 311 54 293
f 54 92 293
f 54 53 92
f 56 292 311
f 93 56 311
f 95 56 93
f 54 311 292
f 304 96 283
f 96 55 283
f 96 94 55
f 57 304 283
f 237 97 58
f 237 58 236
f 236 56 237
f 237 56 95
f 304 284 96
f 57 3 304
f 3 284 304
f 3 4 284
f 30 50 98
f 4 30 98
f 3 30 4
f 59 50 30
f 144 170 60
f 190 99 170
f 144 190 170
f 189 190 144
f 189 58 190
f 190 58 97
f 50 31 98
f 59 64 50
f 64 31 50
f 64 65 31
f 103 65 64
f 103 104 65
f 170 145 60
f 145 103 60
f 145 104 103
f 170 99 145
f 90 132 91
f 131 132 90
f 294 133 309
f 309 92 294
f 92 132 294
f 92 91 132
f 93 293 309
f 133 93 309
f 134 93 133
f 92 309 293
f 245 135 229
f 94 245 229
f 93 136 95
f 134 136 93
f 245 230 135
f 137 230 245
f 94 137 245
f 96 137 94
f 238 138 97
f 238 97 237
f 237 95 238
f 238 95 136
f 96 284 137
f 137 284 285
f 4 18 139
f 285 4 139
f 284 4 285
f 98 18 4
f 191 140 99
f 191 99 190
f 190 97 191
f 191 97 138
f 18 5 139
f 98 31 18
f 31 5 18
f 31 32 5
f 65 32 31
f 65 66 32
f 104 66 65
f 104 105 66
f 145 105 104
f 145 146 105
f 145 99 146
f 146 99 140
f 296 174 307
f 307 132 296
f 132 173 296
f 132 131 173
f 133 294 307
f 174 133 307
f 176 133 174
f 132 307 294
f 133 178 134
f 176 178 133
f 134 180 136
f 178 180 134
f 135 230 179
f 179 230 231
f 181 231 230
f 181 230 137
f 239 182 138
f 239 138 238
f 238 136 239
f 239 136 180
f 137 285 181
f 181 285 286
f 183 286 285
f 183 285 139
f 192 184 140
f 192 140 191
f 191 138 192
f 192 138 182
f 139 5 183
f 183 5 6
f 32 6 5
f 32 33 6
f 66 33 32
f 66 67 33
f 105 67 66
f 105 106 67
f 146 106 105
f 146 147 106
f 146 140 147
f 147 140 184
f 113 107 148
f 113 148 154
f 154 148 193
f 216 306 295
f 172 216 295
f 214 216 172
f 306 173 295
f 174 296 306
f 216 174 306
f 218 174 216
f 173 306 296
f 174 220 176
f 218 220 174
f 233 219 244
f 219 177 244
f 219 175 177
f 221 233 244
f 176 222 178
f 220 222 176
f 179 246 177
f 177 246 244
f 221 244 246
f 221 246 223
f 178 224 180
f 222 224 178
f 231 246 179
f 288 223 305
f 305 223 181
f 223 246 181
f 246 231 181
f 225 288 305
f 241 226 182
f 241 182 239
f 239 180 241
f 241 180 224
f 286 305 181
f 225 305 286
f 183 225 286
f 227 225 183
f 194 228 184
f 194 184 192
f 192 182 194
f 194 182 226
f 183 6 227
f 227 6 7
f 33 7 6
f 33 34 7
f 67 34 33
f 67 69 34
f 106 69 67
f 106 108 69
f 147 108 106
f 147 149 108
f 147 184 149
f 149 184 228
f 185 258 198
f 115 158 117
f 115 156 158
f 156 200 158
f 156 198 200
f 198 258 200
f 200 258 259
f 76 119 78
f 76 117 119
f 117 160 119
f 117 158 160
f 158 202 160
f 158 200 202
f 200 259 202
f 202 259 260
f 78 121 80
f 78 119 121
f 119 162 121
f 119 160 162
f 160 204 162
f 160 202 204
f 202 260 204
f 204 260 261
f 42 82 44
f 42 80 82
f 80 123 82
f 80 121 123
f 121 164 123
f 121 162 164
f 162 206 164
f 162 204 206
f 204 261 206
f 206 261 263
f 44 84 46
f 44 82 84
f 82 125 84
f 82 123 125
f 123 166 125
f 123 164 166
f 265 166 186
f 166 206 186
f 166 164 206
f 206 263 186
f 46 27 264
f 27 46 266
f 46 86 266
f 46 84 86
f 84 127 86
f 84 125 127
f 267 127 141
f 127 166 141
f 127 125 166
f 166 265 141
f 86 61 266
f 61 86 100
f 100 86 127
f 127 267 100
f 114 107 74
f 74 107 68
f 155 148 114
f 114 148 107
f 197 193 155
f 155 193 148
f 197 212 193
f 39 75 74
f 75 268 109
f 114 75 109
f 74 75 114
f 114 109 269
f 157 114 269
f 155 114 157
f 199 155 157
f 197 155 199
f 212 197 240
f 197 247 240
f 197 199 247
f 247 214 240
f 297 287 215
f 8 213 287
f 270 8 287
f 297 270 287
f 39 35 70
f 39 70 75
f 268 75 70
f 150 157 269
f 157 150 271
f 201 157 271
f 199 157 201
f 249 199 201
f 247 199 249
f 214 247 216
f 216 247 249
f 242 232 217
f 289 297 215
f 289 215 232
f 272 289 232
f 242 272 232
f 270 297 289
f 195 201 271
f 201 195 273
f 251 201 273
f 249 201 251
f 216 249 218
f 218 249 251
f 219 243 217
f 217 243 242
f 272 242 243
f 272 243 274
f 275 253 251
f 275 251 273
f 218 251 220
f 220 251 253
f 233 243 219
f 274 243 233
f 221 274 233
f 276 274 221
f 277 255 253
f 277 253 275
f 220 253 222
f 222 253 255
f 290 276 303
f 276 223 303
f 276 221 223
f 278 290 303
f 279 257 255
f 279 255 277
f 222 255 224
f 224 255 257
f 288 303 223
f 278 303 288
f 225 278 288
f 280 278 225
f 196 281 211
f 257 279 196
f 257 196 211
f 241 257 211
f 226 241 211
f 224 257 241
f 9 280 19
f 280 227 19
f 280 225 227
f 9 19 51
f 9 51 36
f 36 51 89
f 36 89 71
f 71 89 130
f 71 130 110
f 110 130 171
f 110 171 151
f 211 281 151
f 211 151 171
f 194 211 171
f 228 194 171
f 226 211 194
f 7 19 227
f 34 51 7
f 7 51 19
f 69 89 34
f 34 89 51
f 108 130 69
f 69 130 89
f 149 171 108
f 108 171 130
f 228 171 149
f 248 259 258
f 250 260 259
f 250 259 248
f 248 312 250
f 250 312 313
f 252 261 260
f 252 260 250
f 250 313 252
f 252 313 314
f 254 263 261
f 254 261 252
f 252 314 254
f 254 314 316
f 317 315 262
f 186 208 265
f 254 234 263
f 263 234 186
f 234 318 186
f 318 208 186
f 254 316 234
f 14 1 317
f 48 319 27
f 27 319 264
f 319 1 264
f 1 14 264
f 266 48 27
f 141 168 267
f 208 187 265
f 265 187 141
f 187 320 141
f 320 168 141
f 208 318 187
f 48 28 319
f 266 61 48
f 61 28 48
f 61 62 28
f 100 62 61
f 100 101 62
f 168 142 267
f 142 100 267
f 142 101 100
f 168 320 142
f 116 109 268
f 116 269 109
f 10 8 270
f 40 35 10
f 10 35 8
f 77 70 40
f 40 70 35
f 70 77 268
f 77 116 268
f 77 118 116
f 269 116 150
f 116 159 150
f 116 118 159
f 159 271 150
f 298 289 272
f 289 298 270
f 298 10 270
f 298 11 10
f 41 10 11
f 40 10 41
f 41 321 72
f 77 41 72
f 40 41 77
f 77 72 111
f 77 111 118
f 118 111 322
f 161 118 322
f 159 118 161
f 271 159 195
f 159 203 195
f 159 161 203
f 203 273 195
f 274 299 272
f 272 299 298
f 12 298 299
f 11 298 12
f 12 323 37
f 41 12 37
f 11 12 41
f 321 41 37
f 152 161 322
f 161 152 324
f 205 161 324
f 203 161 205
f 273 203 275
f 275 203 205
f 276 301 274
f 274 301 299
f 13 299 301
f 12 299 13
f 323 12 13
f 323 13 325
f 326 207 205
f 326 205 324
f 275 205 277
f 277 205 207
f 290 301 276
f 278 15 290
f 15 301 290
f 15 13 301
f 325 13 15
f 325 15 327
f 328 209 207
f 328 207 326
f 277 207 279
f 279 207 209
f 280 17 278
f 278 17 15
f 49 38 327
f 15 49 327
f 17 49 15
f 38 49 87
f 38 87 73
f 73 87 128
f 73 128 112
f 112 128 169
f 112 169 153
f 209 328 153
f 209 153 169
f 196 209 169
f 281 196 169
f 279 209 196
f 9 17 280
f 36 49 9
f 9 49 17
f 71 87 36
f 36 87 49
f 110 128 71
f 71 128 87
f 151 169 110
f 110 169 128
f 281 169 151
f 308 314 313
f 300 21 282
f 315 300 282
f 314 308 291
f 22 314 291
f 316 314 22
f 308 20 291
f 315 23 300
f 317 23 315
f 234 256 318
f 234 316 256
f 316 24 256
f 316 22 24
f 317 1 23
f 23 1 2
f 25 2 1
f 25 1 319
f 187 210 320
f 256 235 318
f 318 235 187
f 235 26 187
f 26 210 187
f 256 24 235
f 319 28 25
f 25 28 29
f 62 29 28
f 62 63 29
f 101 63 62
f 101 102 63
f 142 102 101
f 142 143 102
f 210 188 320
f 188 142 320
f 188 143 142
f 210 26 188
f 79 72 321
f 120 111 79
f 79 111 72
f 120 322 111
f 43 37 323
f 37 43 321
f 43 79 321
f 43 81 79
f 122 79 81
f 120 79 122
f 322 120 152
f 120 163 152
f 120 122 163
f 163 324 152
f 325 45 323
f 323 45 43
f 83 43 45
f 81 43 83
f 124 81 83
f 122 81 124
f 165 122 124
f 163 122 165
f 324 163 326
f 326 163 165
f 327 47 325
f 325 47 45
f 85 45 47
f 83 45 85
f 126 83 85
f 124 83 126
f 167 124 126
f 165 124 167
f 326 165 328
f 328 165 167
f 38 47 327
f 73 85 38
f 38 85 47
f 112 126 73
f 73 126 85
f 153 167 112
f 112 167 126
f 328 167 153
