# Converted from NanoShaper .vert/.face
v 29.244000 26.199000 -11.108000
v 31.416000 26.199000 -11.108000
v 28.690000 26.199000 -10.608000
v 31.762000 26.199000 -10.608000
v 28.087000 26.199000 -10.108000
v 31.852000 26.199000 -10.108000
v 27.239000 26.199000 -9.608000
v 31.743000 26.199000 -9.608000
v 26.731000 26.199000 -9.108000
v 31.473000 26.199000 -9.108000
v 26.385000 26.199000 -8.608000
v 31.363000 26.199000 -8.608000
v 26.246000 26.199000 -8.108000
v 31.245000 26.199000 -8.108000
v 26.156000 26.199000 -7.608000
v 31.062000 26.199000 -7.608000
v 26.151000 26.199000 -7.108000
v 30.941000 26.199000 -7.108000
v 26.098000 26.199000 -6.608000
v 30.880000 26.199000 -6.608000
v 26.023000 26.199000 -6.108000
v 30.800000 26.199000 -6.108000
v 26.077000 26.199000 -5.608000
v 30.503000 26.199000 -5.608000
v 26.214000 26.199000 -5.108000
v 30.112000 26.199000 -5.108000
v 26.532000 26.199000 -4.608000
v 29.006000 26.199000 -4.608000
v 26.077000 26.199000 -6.490000
v 26.077000 26.199000 -5.610000
v 26.577000 26.199000 -8.943000
v 26.577000 26.199000 -4.565000
v 27.077000 26.199000 -9.436000
v 27.077000 26.199000 -4.268000
v 27.577000 26.199000 -9.825000
v 27.577000 26.199000 -4.194000
v 28.077000 26.199000 -10.101000
v 28.077000 26.199000 -4.292000
v 28.577000 26.199000 -10.501000
v 28.577000 26.199000 -4.442000
v 29.077000 26.199000 -10.933000
v 29.077000 26.199000 -4.627000
v 29.577000 26.199000 -11.321000
v 29.577000 26.199000 -4.755000
v 30.077000 26.199000 -11.432000
v 30.077000 26.199000 -5.075000
v 30.577000 26.199000 -11.442000
v 30.577000 26.199000 -5.715000
v 31.077000 26.199000 -11.328000
v 31.077000 26.199000 -7.673000
v 31.577000 26.199000 -10.936000
v 31.577000 26.199000 -9.316000
v 29.577000 25.868000 -11.108000
v 30.077000 25.721000 -11.108000
v 30.577000 25.687000 -11.108000
v 31.077000 25.841000 -11.108000
v 26.077000 23.700000 -7.108000
v 26.077000 25.902000 -7.108000
v 26.577000 23.269000 -7.108000
v 27.077000 22.916000 -7.108000
v 27.577000 22.745000 -7.108000
v 28.077000 22.663000 -7.108000
v 28.577000 22.645000 -7.108000
v 29.077000 22.780000 -7.108000
v 29.577000 22.865000 -7.108000
v 30.077000 22.982000 -7.108000
v 30.577000 23.378000 -7.108000
v 31.077000 26.766000 -7.108000
v 31.077000 27.549000 -7.108000
v 27.174000 22.699000 -9.108000
v 29.412000 22.699000 -9.108000
v 27.023000 22.699000 -8.608000
v 29.582000 22.699000 -8.608000
v 27.124000 22.699000 -8.108000
v 29.589000 22.699000 -8.108000
v 27.293000 22.699000 -7.608000
v 29.514000 22.699000 -7.608000
v 27.771000 22.699000 -7.108000
v 28.828000 22.699000 -7.108000
v 29.095000 26.699000 -11.108000
v 31.543000 26.699000 -11.108000
v 28.540000 26.699000 -10.608000
v 31.857000 26.699000 -10.608000
v 28.122000 26.699000 -10.108000
v 31.940000 26.699000 -10.108000
v 27.582000 26.699000 -9.608000
v 31.839000 26.699000 -9.608000
v 27.037000 26.699000 -9.108000
v 31.584000 26.699000 -9.108000
v 26.559000 26.699000 -8.608000
v 31.470000 26.699000 -8.608000
v 26.242000 26.699000 -8.108000
v 31.390000 26.699000 -8.108000
v 26.139000 26.699000 -7.608000
v 31.276000 26.699000 -7.608000
v 26.194000 26.699000 -7.108000
v 31.060000 26.699000 -7.108000
v 26.197000 26.699000 -6.608000
v 30.966000 26.699000 -6.608000
v 26.134000 26.699000 -6.108000
v 30.900000 26.699000 -6.108000
v 26.149000 26.699000 -5.608000
v 30.751000 26.699000 -5.608000
v 26.239000 26.699000 -5.108000
v 30.368000 26.699000 -5.108000
v 26.563000 26.699000 -4.608000
v 28.643000 26.699000 -4.608000
v 27.077000 22.699000 -8.900000
v 27.077000 22.699000 -8.243000
v 27.577000 22.699000 -9.484000
v 27.577000 22.699000 -7.248000
v 28.077000 22.699000 -9.599000
v 28.077000 22.699000 -6.994000
v 28.577000 22.699000 -9.528000
v 28.577000 22.699000 -6.999000
v 29.077000 22.699000 -9.412000
v 29.077000 22.699000 -7.234000
v 29.577000 22.699000 -8.653000
v 29.577000 22.699000 -7.844000
v 26.577000 26.699000 -8.628000
v 26.577000 26.699000 -4.595000
v 27.077000 26.699000 -9.144000
v 27.077000 26.699000 -4.284000
v 27.577000 26.699000 -9.604000
v 27.577000 26.699000 -4.202000
v 28.077000 26.699000 -10.065000
v 28.077000 26.699000 -4.305000
v 28.577000 26.699000 -10.644000
v 28.577000 26.699000 -4.578000
v 29.077000 26.699000 -11.089000
v 29.077000 26.699000 -4.723000
v 29.577000 26.699000 -11.433000
v 29.577000 26.699000 -4.770000
v 30.077000 26.699000 -11.535000
v 30.077000 26.699000 -4.930000
v 30.577000 26.699000 -11.531000
v 30.577000 26.699000 -5.316000
v 31.077000 26.699000 -11.424000
v 31.077000 26.699000 -7.157000
v 31.577000 26.699000 -11.073000
v 31.577000 26.699000 -9.090000
v 28.577000 26.458000 -10.608000
v 28.577000 26.995000 -10.608000
v 29.077000 25.812000 -10.608000
v 29.577000 25.467000 -10.608000
v 30.077000 25.378000 -10.608000
v 30.577000 25.365000 -10.608000
v 31.077000 25.487000 -10.608000
v 31.577000 25.877000 -10.608000
v 31.577000 27.501000 -10.608000
v 26.077000 23.647000 -6.608000
v 26.077000 26.144000 -6.608000
v 26.577000 23.223000 -6.608000
v 27.077000 22.914000 -6.608000
v 27.577000 22.802000 -6.608000
v 28.077000 22.759000 -6.608000
v 28.577000 22.830000 -6.608000
v 29.077000 22.981000 -6.608000
v 29.577000 23.158000 -6.608000
v 30.077000 23.338000 -6.608000
v 30.577000 24.508000 -6.608000
v 27.224000 23.199000 -9.608000
v 29.403000 23.199000 -9.608000
v 26.838000 23.199000 -9.108000
v 29.891000 23.199000 -9.108000
v 26.725000 23.199000 -8.608000
v 30.396000 23.199000 -8.608000
v 26.763000 23.199000 -8.108000
v 30.567000 23.199000 -8.108000
v 26.752000 23.199000 -7.608000
v 30.532000 23.199000 -7.608000
v 26.644000 23.199000 -7.108000
v 30.410000 23.199000 -7.108000
v 26.602000 23.199000 -6.608000
v 29.736000 23.199000 -6.608000
v 26.593000 23.199000 -6.108000
v 28.967000 23.199000 -6.108000
v 26.715000 23.199000 -5.608000
v 28.518000 23.199000 -5.608000
v 27.343000 23.199000 -5.108000
v 27.888000 23.199000 -5.108000
v 29.212000 27.199000 -11.108000
v 31.404000 27.199000 -11.108000
v 28.658000 27.199000 -10.608000
v 31.754000 27.199000 -10.608000
v 28.258000 27.199000 -10.108000
v 31.844000 27.199000 -10.108000
v 27.776000 27.199000 -9.608000
v 31.735000 27.199000 -9.608000
v 27.202000 27.199000 -9.108000
v 31.552000 27.199000 -9.108000
v 26.746000 27.199000 -8.608000
v 31.508000 27.199000 -8.608000
v 26.355000 27.199000 -8.108000
v 31.464000 27.199000 -8.108000
v 26.243000 27.199000 -7.608000
v 31.385000 27.199000 -7.608000
v 26.236000 27.199000 -7.108000
v 31.122000 27.199000 -7.108000
v 26.174000 27.199000 -6.608000
v 30.965000 27.199000 -6.608000
v 26.211000 27.199000 -6.108000
v 30.960000 27.199000 -6.108000
v 26.207000 27.199000 -5.608000
v 30.861000 27.199000 -5.608000
v 26.311000 27.199000 -5.108000
v 30.523000 27.199000 -5.108000
v 26.662000 27.199000 -4.608000
v 28.626000 27.199000 -4.608000
v 27.077000 23.199000 -9.471000
v 27.077000 23.199000 -5.224000
v 27.577000 23.199000 -9.809000
v 27.577000 23.199000 -5.072000
v 28.077000 23.199000 -9.897000
v 28.077000 23.199000 -5.181000
v 28.577000 23.199000 -9.869000
v 28.577000 23.199000 -5.687000
v 29.077000 23.199000 -9.787000
v 29.077000 23.199000 -6.226000
v 29.577000 23.199000 -9.466000
v 29.577000 23.199000 -6.559000
v 30.077000 23.199000 -8.913000
v 30.077000 23.199000 -6.748000
v 26.577000 27.199000 -8.448000
v 26.577000 27.199000 -4.692000
v 27.077000 27.199000 -8.990000
v 27.077000 27.199000 -4.348000
v 27.577000 27.199000 -9.412000
v 27.577000 27.199000 -4.245000
v 28.077000 27.199000 -9.920000
v 28.077000 27.199000 -4.326000
v 28.577000 27.199000 -10.527000
v 28.577000 27.199000 -4.585000
v 29.077000 27.199000 -10.966000
v 29.077000 27.199000 -4.728000
v 29.577000 27.199000 -4.725000
v 30.077000 27.199000 -4.823000
v 30.577000 27.199000 -5.162000
v 31.077000 27.199000 -7.011000
v 31.577000 27.199000 -10.923000
v 31.577000 27.199000 -9.210000
v 28.577000 25.295000 -10.108000
v 29.077000 24.949000 -10.108000
v 29.577000 24.771000 -10.108000
v 30.077000 24.839000 -10.108000
v 30.577000 25.065000 -10.108000
v 31.077000 25.367000 -10.108000
v 31.577000 25.747000 -10.108000
v 31.577000 27.630000 -10.108000
v 26.077000 23.781000 -6.108000
v 26.077000 26.358000 -6.108000
v 26.577000 23.217000 -6.108000
v 27.077000 22.864000 -6.108000
v 27.577000 22.756000 -6.108000
v 28.077000 22.820000 -6.108000
v 28.577000 22.959000 -6.108000
v 29.077000 23.290000 -6.108000
v 29.577000 23.668000 -6.108000
v 30.077000 23.982000 -6.108000
v 30.577000 25.665000 -6.108000
v 27.110000 23.699000 -9.608000
v 29.893000 23.699000 -9.608000
v 26.756000 23.699000 -9.108000
v 30.446000 23.699000 -9.108000
v 26.590000 23.699000 -8.608000
v 30.786000 23.699000 -8.608000
v 26.464000 23.699000 -8.108000
v 30.906000 23.699000 -8.108000
v 26.231000 23.699000 -7.608000
v 30.853000 23.699000 -7.608000
v 26.077000 23.699000 -7.108000
v 30.759000 23.699000 -7.108000
v 26.024000 23.699000 -6.608000
v 30.413000 23.699000 -6.608000
v 26.155000 23.699000 -6.108000
v 29.644000 23.699000 -6.108000
v 26.383000 23.699000 -5.608000
v 29.063000 23.699000 -5.608000
v 26.732000 23.699000 -5.108000
v 28.584000 23.699000 -5.108000
v 31.384000 27.699000 -10.608000
v 31.509000 27.699000 -10.108000
v 28.264000 27.699000 -9.608000
v 31.412000 27.699000 -9.608000
v 27.751000 27.699000 -9.108000
v 31.358000 27.699000 -9.108000
v 27.180000 27.699000 -8.608000
v 31.398000 27.699000 -8.608000
v 26.753000 27.699000 -8.108000
v 31.379000 27.699000 -8.108000
v 26.570000 27.699000 -7.608000
v 31.298000 27.699000 -7.608000
v 26.391000 27.699000 -7.108000
v 31.021000 27.699000 -7.108000
v 26.273000 27.699000 -6.608000
v 30.871000 27.699000 -6.608000
v 26.323000 27.699000 -6.108000
v 30.877000 27.699000 -6.108000
v 26.304000 27.699000 -5.608000
v 30.397000 27.699000 -5.108000
v 26.817000 27.699000 -4.608000
v 28.408000 27.699000 -4.608000
v 26.077000 23.699000 -7.070000
v 26.077000 23.699000 -6.290000
v 26.577000 23.699000 -8.536000
v 26.577000 23.699000 -5.273000
v 27.077000 23.699000 -9.576000
v 27.077000 23.699000 -4.884000
v 27.577000 23.699000 -9.888000
v 27.577000 23.699000 -4.770000
v 28.077000 23.699000 -9.970000
v 28.077000 23.699000 -4.852000
v 28.577000 23.699000 -9.970000
v 28.577000 23.699000 -5.103000
v 29.077000 23.699000 -9.907000
v 29.077000 23.699000 -5.619000
v 29.577000 23.699000 -9.774000
v 29.577000 23.699000 -6.067000
v 30.077000 23.699000 -9.481000
v 30.077000 23.699000 -6.358000
v 30.577000 23.699000 -8.940000
v 30.577000 23.699000 -6.784000
v 26.577000 27.699000 -7.632000
v 26.577000 27.699000 -4.847000
v 27.077000 27.699000 -8.457000
v 27.077000 27.699000 -4.454000
v 27.577000 27.699000 -8.984000
v 27.577000 27.699000 -4.341000
v 28.077000 27.699000 -9.409000
v 28.077000 27.699000 -4.427000
v 28.577000 27.699000 -4.698000
v 29.077000 27.699000 -4.826000
v 29.577000 27.699000 -4.808000
v 30.077000 27.699000 -4.913000
v 30.577000 27.699000 -5.287000
v 31.077000 27.699000 -7.208000
v 27.077000 24.463000 -9.608000
v 27.077000 25.005000 -9.608000
v 27.577000 22.837000 -9.608000
v 27.577000 26.688000 -9.608000
v 28.077000 22.709000 -9.608000
v 28.077000 27.545000 -9.608000
v 28.577000 22.782000 -9.608000
v 29.077000 22.899000 -9.608000
v 29.577000 23.402000 -9.608000
v 30.077000 23.837000 -9.608000
v 30.577000 24.474000 -9.608000
v 31.077000 25.307000 -9.608000
v 31.077000 28.061000 -9.608000
v 31.577000 25.906000 -9.608000
v 31.577000 27.477000 -9.608000
v 26.077000 24.293000 -5.608000
v 26.077000 26.198000 -5.608000
v 26.577000 23.352000 -5.608000
v 27.077000 22.958000 -5.608000
v 27.577000 22.843000 -5.608000
v 28.077000 22.926000 -5.608000
v 28.577000 23.252000 -5.608000
v 29.077000 23.708000 -5.608000
v 29.577000 23.934000 -5.608000
v 30.077000 24.276000 -5.608000
v 30.577000 26.367000 -5.608000
v 27.082000 24.199000 -9.608000
v 30.448000 24.199000 -9.608000
v 26.693000 24.199000 -9.108000
v 30.791000 24.199000 -9.108000
v 26.372000 24.199000 -8.608000
v 30.917000 24.199000 -8.608000
v 26.167000 24.199000 -8.108000
v 31.005000 24.199000 -8.108000
v 25.843000 24.199000 -7.608000
v 30.946000 24.199000 -7.608000
v 25.733000 24.199000 -7.108000
v 30.850000 24.199000 -7.108000
v 25.722000 24.199000 -6.608000
v 30.556000 24.199000 -6.608000
v 25.822000 24.199000 -6.108000
v 30.240000 24.199000 -6.108000
v 26.144000 24.199000 -5.608000
v 30.000000 24.199000 -5.608000
v 26.558000 24.199000 -5.108000
v 29.496000 24.199000 -5.108000
v 27.681000 24.199000 -4.608000
v 28.290000 24.199000 -4.608000
v 30.919000 28.199000 -9.608000
v 31.043000 28.199000 -9.108000
v 31.040000 28.199000 -8.608000
v 31.068000 28.199000 -8.108000
v 30.959000 28.199000 -7.608000
v 28.537000 28.199000 -5.108000
v 26.077000 24.199000 -7.972000
v 26.077000 24.199000 -5.695000
v 26.577000 24.199000 -8.955000
v 26.577000 24.199000 -5.093000
v 27.077000 24.199000 -9.602000
v 27.077000 24.199000 -4.800000
v 27.577000 24.199000 -9.907000
v 27.577000 24.199000 -4.629000
v 28.077000 24.199000 -9.984000
v 28.077000 24.199000 -4.582000
v 28.577000 24.199000 -9.983000
v 28.577000 24.199000 -4.642000
v 29.077000 24.199000 -9.971000
v 29.077000 24.199000 -4.759000
v 29.577000 24.199000 -9.947000
v 29.577000 24.199000 -5.167000
v 30.077000 24.199000 -9.843000
v 30.077000 24.199000 -5.783000
v 30.577000 24.199000 -9.474000
v 30.577000 24.199000 -6.637000
v 27.577000 28.199000 -4.674000
v 28.077000 28.199000 -4.794000
v 28.577000 28.199000 -5.126000
v 29.077000 28.199000 -5.195000
v 29.577000 28.199000 -5.121000
v 30.077000 28.199000 -5.263000
v 27.077000 22.799000 -9.108000
v 27.077000 26.827000 -9.108000
v 27.577000 22.447000 -9.108000
v 27.577000 27.584000 -9.108000
v 28.077000 22.357000 -9.108000
v 28.577000 22.425000 -9.108000
v 29.077000 22.512000 -9.108000
v 29.577000 22.851000 -9.108000
v 30.077000 23.355000 -9.108000
v 30.577000 23.851000 -9.108000
v 31.077000 25.449000 -9.108000
v 31.077000 28.164000 -9.108000
v 31.577000 26.578000 -9.108000
v 31.577000 27.066000 -9.108000
v 26.577000 24.158000 -5.108000
v 27.077000 23.320000 -5.108000
v 27.577000 23.162000 -5.108000
v 28.077000 23.275000 -5.108000
v 28.577000 23.694000 -5.108000
v 28.577000 28.187000 -5.108000
v 29.077000 23.966000 -5.108000
v 29.077000 28.119000 -5.108000
v 29.577000 24.252000 -5.108000
v 29.577000 28.186000 -5.108000
v 30.077000 24.854000 -5.108000
v 30.077000 25.514000 -5.108000
v 30.077000 26.008000 -5.108000
v 30.077000 28.036000 -5.108000
v 27.043000 24.699000 -9.608000
v 30.687000 24.699000 -9.608000
v 26.618000 24.699000 -9.108000
v 30.910000 24.699000 -9.108000
v 26.290000 24.699000 -8.608000
v 30.977000 24.699000 -8.608000
v 26.052000 24.699000 -8.108000
v 30.954000 24.699000 -8.108000
v 25.733000 24.699000 -7.608000
v 31.000000 24.699000 -7.608000
v 25.632000 24.699000 -7.108000
v 30.892000 24.699000 -7.108000
v 25.645000 24.699000 -6.608000
v 30.606000 24.699000 -6.608000
v 25.715000 24.699000 -6.108000
v 30.438000 24.699000 -6.108000
v 25.844000 24.699000 -5.608000
v 30.337000 24.699000 -5.608000
v 26.209000 24.699000 -5.108000
v 30.012000 24.699000 -5.108000
v 27.248000 24.699000 -4.608000
v 29.407000 24.699000 -4.608000
v 26.077000 24.699000 -8.144000
v 26.077000 24.699000 -5.238000
v 26.577000 24.699000 -9.066000
v 26.577000 24.699000 -4.888000
v 27.077000 24.699000 -9.640000
v 27.077000 24.699000 -4.709000
v 27.577000 24.699000 -9.940000
v 27.577000 24.699000 -4.405000
v 28.077000 24.699000 -10.015000
v 28.077000 24.699000 -4.292000
v 28.577000 24.699000 -10.006000
v 28.577000 24.699000 -4.336000
v 29.077000 24.699000 -10.056000
v 29.077000 24.699000 -4.423000
v 29.577000 24.699000 -10.084000
v 29.577000 24.699000 -4.761000
v 30.077000 24.699000 -10.035000
v 30.077000 24.699000 -5.175000
v 30.577000 24.699000 -9.744000
v 30.577000 24.699000 -6.548000
v 26.577000 23.738000 -8.608000
v 26.577000 26.758000 -8.608000
v 27.077000 22.645000 -8.608000
v 27.077000 27.603000 -8.608000
v 27.577000 22.333000 -8.608000
v 27.577000 27.939000 -8.608000
v 28.077000 22.251000 -8.608000
v 28.577000 22.318000 -8.608000
v 29.077000 22.398000 -8.608000
v 29.577000 22.695000 -8.608000
v 30.077000 23.014000 -8.608000
v 30.577000 23.370000 -8.608000
v 31.077000 25.644000 -8.608000
v 31.077000 28.166000 -8.608000
v 26.577000 25.910000 -4.608000
v 26.577000 26.855000 -4.608000
v 27.077000 25.106000 -4.608000
v 27.577000 24.256000 -4.608000
v 27.577000 28.131000 -4.608000
v 28.077000 24.160000 -4.608000
v 28.077000 28.007000 -4.608000
v 28.577000 24.238000 -4.608000
v 28.577000 27.427000 -4.608000
v 29.077000 24.366000 -4.608000
v 29.077000 26.114000 -4.608000
v 28.680000 25.199000 -10.108000
v 30.809000 25.199000 -10.108000
v 27.109000 25.199000 -9.608000
v 30.998000 25.199000 -9.608000
v 26.622000 25.199000 -9.108000
v 31.009000 25.199000 -9.108000
v 26.277000 25.199000 -8.608000
v 30.978000 25.199000 -8.608000
v 26.097000 25.199000 -8.108000
v 30.942000 25.199000 -8.108000
v 25.823000 25.199000 -7.608000
v 30.950000 25.199000 -7.608000
v 25.715000 25.199000 -7.108000
v 30.840000 25.199000 -7.108000
v 25.715000 25.199000 -6.608000
v 30.603000 25.199000 -6.608000
v 25.663000 25.199000 -6.108000
v 30.502000 25.199000 -6.108000
v 25.757000 25.199000 -5.608000
v 30.424000 25.199000 -5.608000
v 26.089000 25.199000 -5.108000
v 30.126000 25.199000 -5.108000
v 27.031000 25.199000 -4.608000
v 29.532000 25.199000 -4.608000
v 26.077000 25.199000 -8.065000
v 26.077000 25.199000 -5.121000
v 26.577000 25.199000 -9.064000
v 26.577000 25.199000 -4.792000
v 27.077000 25.199000 -9.575000
v 27.077000 25.199000 -4.584000
v 27.577000 25.199000 -9.912000
v 27.577000 25.199000 -4.319000
v 28.077000 25.199000 -10.015000
v 28.077000 25.199000 -4.214000
v 28.577000 25.199000 -10.086000
v 28.577000 25.199000 -4.256000
v 29.077000 25.199000 -10.189000
v 29.077000 25.199000 -4.339000
v 29.577000 25.199000 -10.338000
v 29.577000 25.199000 -4.649000
v 30.077000 25.199000 -10.384000
v 30.077000 25.199000 -5.057000
v 30.577000 25.199000 -10.306000
v 30.577000 25.199000 -6.534000
v 26.077000 24.471000 -8.108000
v 26.077000 25.094000 -8.108000
v 26.577000 23.502000 -8.108000
v 26.577000 27.538000 -8.108000
v 27.077000 22.748000 -8.108000
v 27.077000 27.879000 -8.108000
v 27.577000 22.411000 -8.108000
v 28.077000 22.318000 -8.108000
v 28.577000 22.285000 -8.108000
v 29.077000 22.386000 -8.108000
v 29.577000 22.692000 -8.108000
v 30.077000 22.899000 -8.108000
v 30.577000 23.209000 -8.108000
v 31.077000 25.820000 -8.108000
v 31.077000 28.190000 -8.108000
v 30.378000 25.699000 -11.108000
v 30.703000 25.699000 -11.108000
v 29.199000 25.699000 -10.608000
v 31.409000 25.699000 -10.608000
v 28.234000 25.699000 -10.108000
v 31.531000 25.699000 -10.108000
v 27.104000 25.699000 -9.608000
v 31.397000 25.699000 -9.608000
v 26.611000 25.699000 -9.108000
v 31.177000 25.699000 -9.108000
v 26.296000 25.699000 -8.608000
v 31.099000 25.699000 -8.608000
v 26.183000 25.699000 -8.108000
v 31.036000 25.699000 -8.108000
v 26.057000 25.699000 -7.608000
v 30.976000 25.699000 -7.608000
v 25.986000 25.699000 -7.108000
v 30.866000 25.699000 -7.108000
v 25.864000 25.699000 -6.608000
v 30.698000 25.699000 -6.608000
v 25.767000 25.699000 -6.108000
v 30.587000 25.699000 -6.108000
v 25.870000 25.699000 -5.608000
v 30.411000 25.699000 -5.608000
v 26.179000 25.699000 -5.108000
v 30.058000 25.699000 -5.108000
v 26.667000 25.699000 -4.608000
v 29.386000 25.699000 -4.608000
v 26.077000 25.699000 -7.679000
v 26.077000 25.699000 -5.249000
v 26.577000 25.699000 -9.072000
v 26.577000 25.699000 -4.685000
v 27.077000 25.699000 -9.579000
v 27.077000 25.699000 -4.367000
v 27.577000 25.699000 -9.925000
v 27.577000 25.699000 -4.267000
v 28.077000 25.699000 -10.063000
v 28.077000 25.699000 -4.248000
v 28.577000 25.699000 -10.248000
v 28.577000 25.699000 -4.321000
v 29.077000 25.699000 -10.511000
v 29.077000 25.699000 -4.452000
v 29.577000 25.699000 -10.928000
v 29.577000 25.699000 -4.736000
v 30.077000 25.699000 -11.085000
v 30.077000 25.699000 -5.125000
v 30.577000 25.699000 -11.121000
v 30.577000 25.699000 -6.062000
v 31.077000 25.699000 -10.964000
v 31.077000 25.699000 -8.393000
v 26.077000 23.843000 -7.608000
v 26.077000 25.757000 -7.608000
v 26.577000 23.403000 -7.608000
v 26.577000 27.707000 -7.608000
v 27.077000 22.870000 -7.608000
v 27.577000 22.533000 -7.608000
v 28.077000 22.424000 -7.608000
v 28.577000 22.371000 -7.608000
v 29.077000 22.480000 -7.608000
v 29.577000 22.725000 -7.608000
v 30.077000 22.891000 -7.608000
v 30.577000 23.247000 -7.608000
v 31.077000 26.248000 -7.608000
v 31.077000 28.076000 -7.608000
f 142 82 128
f 82 143 128
f 144 3 41
f 142 128 3
f 128 41 3
f 128 130 41
f 184 234 143
f 234 128 143
f 234 130 128
f 145 573 613
f 144 41 573
f 573 41 613
f 41 1 613
f 1 53 613
f 130 80 1
f 130 1 41
f 234 182 80
f 234 80 130
f 615 146 613
f 613 146 145
f 613 53 54
f 613 54 615
f 571 55 615
f 55 146 615
f 55 147 146
f 615 54 571
f 619 148 572
f 148 55 572
f 148 147 55
f 56 619 572
f 619 574 148
f 51 149 2
f 2 149 56
f 149 574 56
f 574 619 56
f 81 140 51
f 81 51 2
f 183 240 140
f 183 140 81
f 281 150 183
f 150 240 183
f 51 4 149
f 4 51 83
f 83 51 140
f 83 140 185
f 185 140 240
f 240 150 185
f 151 273 303
f 303 273 57
f 273 373 57
f 273 375 373
f 375 455 373
f 457 455 375
f 457 524 455
f 526 524 457
f 526 587 524
f 589 587 526
f 589 152 587
f 587 152 58
f 271 59 303
f 59 151 303
f 59 153 151
f 303 57 271
f 17 58 152
f 17 152 19
f 19 96 17
f 98 96 19
f 98 198 96
f 200 198 98
f 200 293 198
f 295 293 200
f 154 174 60
f 60 174 172
f 59 172 174
f 59 174 153
f 155 60 61
f 155 154 60
f 113 78 62
f 61 78 113
f 156 61 113
f 155 61 156
f 63 115 62
f 62 115 113
f 156 113 115
f 156 115 157
f 79 115 63
f 157 115 79
f 64 157 79
f 158 157 64
f 159 64 65
f 159 158 64
f 175 159 223
f 159 66 223
f 159 65 66
f 160 175 223
f 173 223 66
f 274 160 322
f 322 160 67
f 160 223 67
f 223 173 67
f 274 322 410
f 274 410 376
f 161 376 410
f 272 322 67
f 374 410 272
f 272 410 322
f 410 374 161
f 374 458 161
f 374 456 458
f 525 458 456
f 525 527 458
f 588 527 525
f 588 590 527
f 18 590 588
f 18 20 590
f 97 20 18
f 97 99 20
f 97 68 239
f 201 97 239
f 99 97 201
f 201 239 69
f 294 201 69
f 296 201 294
f 199 239 68
f 69 239 199
f 242 575 609
f 609 575 39
f 39 575 5
f 39 5 142
f 5 82 142
f 5 84 82
f 143 82 232
f 82 186 232
f 82 84 186
f 243 512 548
f 242 609 512
f 609 548 512
f 609 611 548
f 39 3 144
f 611 39 144
f 609 39 611
f 39 142 3
f 232 184 143
f 550 244 548
f 548 244 243
f 611 573 145
f 550 611 145
f 548 611 550
f 611 144 573
f 552 245 550
f 550 245 244
f 550 145 146
f 550 146 552
f 554 246 552
f 552 246 245
f 552 146 147
f 552 147 554
f 554 513 246
f 247 513 554
f 147 247 554
f 148 247 147
f 148 574 247
f 247 574 576
f 248 576 574
f 248 574 149
f 282 249 150
f 282 150 281
f 149 4 248
f 248 4 6
f 83 6 4
f 83 85 6
f 185 85 83
f 185 187 85
f 185 150 187
f 187 150 249
f 304 273 151
f 250 377 304
f 377 273 304
f 377 375 273
f 377 457 375
f 459 457 377
f 459 526 457
f 528 526 459
f 528 589 526
f 591 589 528
f 152 589 29
f 589 21 29
f 589 591 21
f 21 251 29
f 304 151 275
f 151 252 275
f 151 153 252
f 250 304 275
f 29 19 152
f 19 29 251
f 100 19 251
f 98 19 100
f 100 200 98
f 202 200 100
f 202 295 200
f 297 295 202
f 253 176 154
f 154 176 174
f 153 174 176
f 153 176 252
f 254 154 155
f 254 253 154
f 255 155 156
f 255 254 155
f 256 156 157
f 256 255 156
f 177 256 219
f 256 158 219
f 256 157 158
f 257 177 219
f 159 221 158
f 158 221 219
f 257 219 221
f 257 221 258
f 175 221 159
f 276 258 320
f 320 258 160
f 258 221 160
f 221 175 160
f 259 276 320
f 274 320 160
f 320 274 259
f 274 378 259
f 274 376 378
f 376 161 486
f 460 376 486
f 378 376 460
f 460 486 555
f 460 555 529
f 260 529 555
f 458 486 161
f 527 555 458
f 458 555 486
f 555 527 260
f 527 592 260
f 527 590 592
f 20 592 590
f 20 22 592
f 99 22 20
f 99 101 22
f 201 101 99
f 201 203 101
f 296 203 201
f 296 298 203
f 337 445 471
f 445 338 471
f 339 162 212
f 212 162 309
f 309 162 261
f 309 261 397
f 397 261 363
f 337 471 363
f 471 397 363
f 471 473 397
f 514 542 338
f 542 471 338
f 542 473 471
f 542 514 605
f 605 514 577
f 605 577 35
f 35 577 7
f 7 340 35
f 214 341 212
f 212 341 339
f 212 311 214
f 212 309 311
f 309 399 311
f 309 397 399
f 397 475 399
f 397 473 475
f 473 544 475
f 473 542 544
f 542 607 544
f 542 605 607
f 605 37 607
f 605 35 37
f 86 126 340
f 126 35 340
f 126 37 35
f 126 86 230
f 230 86 188
f 188 342 230
f 216 343 214
f 214 343 341
f 214 313 216
f 214 311 313
f 311 401 313
f 311 399 401
f 399 477 401
f 399 475 477
f 475 546 477
f 475 544 546
f 607 575 242
f 546 607 242
f 544 607 546
f 37 5 575
f 37 575 607
f 126 84 5
f 126 5 37
f 230 186 84
f 230 84 126
f 218 344 216
f 216 344 343
f 216 315 218
f 216 313 315
f 313 403 315
f 313 401 403
f 401 479 403
f 401 477 479
f 546 512 243
f 479 546 243
f 477 546 479
f 546 242 512
f 218 163 344
f 163 218 345
f 218 317 345
f 218 315 317
f 315 405 317
f 315 403 405
f 403 481 405
f 403 479 481
f 479 243 244
f 479 244 481
f 317 262 345
f 262 317 346
f 317 407 346
f 317 405 407
f 405 483 407
f 405 481 483
f 481 244 245
f 481 245 483
f 407 364 346
f 364 407 347
f 407 485 347
f 407 483 485
f 483 245 246
f 483 246 485
f 485 446 347
f 246 513 485
f 513 446 485
f 513 515 446
f 348 515 513
f 348 513 247
f 247 576 348
f 348 576 578
f 350 578 576
f 350 576 248
f 284 351 249
f 284 249 282
f 248 6 350
f 350 6 8
f 85 8 6
f 85 87 8
f 187 87 85
f 187 189 87
f 187 249 189
f 189 249 351
f 392 377 250
f 352 461 392
f 461 377 392
f 461 459 377
f 461 528 459
f 530 528 461
f 530 591 528
f 593 591 530
f 30 21 353
f 21 593 353
f 21 591 593
f 30 251 21
f 354 277 252
f 252 277 275
f 379 392 250
f 275 379 250
f 277 379 275
f 352 392 379
f 23 30 353
f 100 251 30
f 23 100 30
f 102 100 23
f 102 202 100
f 204 202 102
f 204 297 202
f 299 297 204
f 355 178 253
f 253 178 176
f 252 176 178
f 252 178 354
f 356 253 254
f 356 355 253
f 357 254 255
f 357 356 254
f 179 357 217
f 357 256 217
f 357 255 256
f 358 179 217
f 177 217 256
f 278 358 316
f 316 358 257
f 358 217 257
f 217 177 257
f 359 278 316
f 258 318 257
f 257 318 316
f 359 316 318
f 359 318 360
f 276 318 258
f 380 360 408
f 408 360 259
f 360 318 259
f 318 276 259
f 361 380 408
f 378 408 259
f 408 378 361
f 378 462 361
f 378 460 462
f 529 462 460
f 529 531 462
f 529 260 618
f 594 529 618
f 531 529 594
f 594 618 48
f 594 48 24
f 362 24 48
f 592 618 260
f 22 48 592
f 592 48 618
f 48 22 362
f 22 103 362
f 22 101 103
f 203 103 101
f 203 205 103
f 298 205 203
f 417 164 210
f 210 164 307
f 307 164 263
f 307 263 395
f 395 263 365
f 395 365 337
f 365 445 337
f 365 447 445
f 338 445 540
f 445 516 540
f 445 447 516
f 540 516 603
f 603 516 579
f 603 579 33
f 33 579 9
f 33 9 122
f 122 9 88
f 88 418 122
f 419 70 110
f 417 210 70
f 70 210 110
f 210 162 110
f 162 339 110
f 307 261 162
f 307 162 210
f 395 363 261
f 395 261 307
f 395 337 363
f 540 514 338
f 603 577 514
f 603 514 540
f 33 7 577
f 33 577 603
f 124 340 7
f 33 124 7
f 122 124 33
f 190 228 418
f 228 122 418
f 228 124 122
f 190 420 228
f 112 421 110
f 110 421 419
f 110 339 341
f 110 341 112
f 124 86 340
f 228 188 86
f 228 86 124
f 420 285 329
f 420 329 342
f 228 420 342
f 188 228 342
f 114 422 112
f 112 422 421
f 112 341 343
f 112 343 114
f 329 283 342
f 116 423 114
f 114 423 422
f 114 343 344
f 114 344 116
f 116 71 423
f 220 424 163
f 163 424 344
f 424 71 344
f 71 116 344
f 345 220 163
f 220 165 424
f 319 425 262
f 262 425 345
f 425 165 345
f 165 220 345
f 346 319 262
f 319 264 425
f 409 426 364
f 364 426 346
f 426 264 346
f 264 319 346
f 347 409 364
f 409 366 426
f 347 446 409
f 446 366 409
f 446 448 366
f 515 448 446
f 515 517 448
f 427 517 515
f 427 515 348
f 386 428 349
f 386 349 385
f 348 578 427
f 427 578 580
f 578 350 52
f 10 578 52
f 580 578 10
f 429 10 52
f 191 430 241
f 191 241 351
f 284 191 351
f 286 191 284
f 284 349 286
f 286 349 428
f 8 52 350
f 52 8 429
f 8 89 429
f 8 87 89
f 430 89 241
f 89 189 241
f 89 87 189
f 351 241 189
f 468 461 352
f 537 530 468
f 468 530 461
f 600 593 537
f 537 593 530
f 600 353 593
f 306 277 354
f 431 381 306
f 381 277 306
f 381 379 277
f 463 468 352
f 379 463 352
f 381 463 379
f 468 463 532
f 468 532 537
f 537 532 595
f 537 595 600
f 23 353 600
f 595 23 600
f 25 23 595
f 25 102 23
f 104 102 25
f 104 204 102
f 206 204 104
f 206 299 204
f 211 178 355
f 279 306 354
f 279 354 178
f 432 279 178
f 211 432 178
f 431 306 279
f 211 355 180
f 355 433 180
f 355 356 433
f 432 211 180
f 181 433 215
f 433 357 215
f 433 356 357
f 434 181 215
f 179 215 357
f 434 215 179
f 358 434 179
f 435 434 358
f 390 436 413
f 358 278 435
f 435 278 280
f 437 280 278
f 437 278 359
f 438 414 413
f 438 413 436
f 382 437 406
f 437 360 406
f 437 359 360
f 439 382 406
f 440 415 414
f 440 414 438
f 380 406 360
f 464 439 484
f 484 439 361
f 439 406 361
f 406 380 361
f 441 464 484
f 596 442 616
f 443 596 616
f 444 416 415
f 444 415 440
f 462 484 361
f 484 462 441
f 462 533 441
f 462 531 533
f 442 533 616
f 533 594 616
f 533 531 594
f 616 594 443
f 594 26 443
f 594 24 26
f 24 362 137
f 105 24 137
f 26 24 105
f 105 137 238
f 105 238 207
f 207 238 335
f 207 335 300
f 416 444 300
f 416 300 335
f 103 137 362
f 205 238 103
f 103 238 137
f 205 335 238
f 487 367 393
f 393 367 469
f 469 367 449
f 469 449 538
f 538 449 518
f 538 518 601
f 601 518 581
f 601 581 31
f 31 581 11
f 31 11 120
f 120 11 90
f 90 488 120
f 489 72 108
f 108 72 417
f 72 164 417
f 72 166 164
f 166 263 164
f 265 263 166
f 265 487 393
f 365 265 393
f 263 265 365
f 469 447 365
f 469 365 393
f 538 516 447
f 538 447 469
f 601 579 516
f 601 516 538
f 31 9 579
f 31 579 601
f 120 88 9
f 120 9 31
f 488 192 226
f 488 226 418
f 120 488 418
f 88 120 418
f 192 490 226
f 70 419 108
f 419 489 108
f 419 491 489
f 108 417 70
f 226 190 418
f 490 287 327
f 490 327 420
f 226 490 420
f 190 226 420
f 287 492 327
f 493 419 421
f 493 491 419
f 327 285 420
f 327 492 285
f 494 421 422
f 494 493 421
f 495 422 423
f 495 494 422
f 118 496 71
f 496 423 71
f 496 495 423
f 424 118 71
f 118 73 496
f 222 497 165
f 165 497 424
f 497 73 424
f 73 118 424
f 425 222 165
f 222 167 497
f 321 498 264
f 264 498 425
f 498 167 425
f 167 222 425
f 426 321 264
f 321 266 498
f 426 366 321
f 366 266 321
f 366 368 266
f 448 368 366
f 448 450 368
f 517 450 448
f 517 519 450
f 499 519 517
f 499 517 427
f 387 500 428
f 387 428 386
f 427 580 499
f 499 580 582
f 10 582 580
f 10 12 582
f 10 429 141
f 91 10 141
f 12 10 91
f 91 141 430
f 191 91 430
f 193 91 191
f 286 193 191
f 286 288 193
f 286 428 288
f 288 428 500
f 89 141 429
f 430 141 89
f 394 381 431
f 470 463 394
f 394 463 381
f 539 532 470
f 470 532 463
f 602 595 539
f 539 595 532
f 501 27 602
f 27 595 602
f 27 25 595
f 27 104 25
f 106 104 27
f 225 206 502
f 206 106 502
f 206 104 106
f 308 279 432
f 279 308 431
f 308 394 431
f 308 396 394
f 472 394 396
f 470 394 472
f 472 503 534
f 539 472 534
f 470 472 539
f 539 534 597
f 539 597 602
f 501 602 597
f 208 225 502
f 225 208 301
f 225 301 324
f 213 180 433
f 180 213 432
f 213 308 432
f 213 310 308
f 398 308 310
f 396 308 398
f 398 504 465
f 472 398 465
f 396 398 472
f 503 472 465
f 181 213 433
f 434 312 181
f 312 213 181
f 312 310 213
f 312 506 383
f 398 312 383
f 310 312 398
f 504 398 383
f 507 412 411
f 507 411 505
f 435 314 434
f 434 314 312
f 402 384 506
f 312 402 506
f 314 402 312
f 508 384 402
f 302 509 331
f 412 507 302
f 412 302 331
f 390 412 331
f 436 390 331
f 280 314 435
f 437 404 280
f 404 314 280
f 404 402 314
f 508 402 404
f 508 404 510
f 28 511 42
f 28 42 131
f 28 131 107
f 107 131 235
f 107 235 209
f 331 509 209
f 235 331 209
f 332 331 235
f 436 331 438
f 438 331 332
f 382 404 437
f 466 510 482
f 482 510 439
f 510 404 439
f 404 382 439
f 466 482 551
f 466 551 535
f 535 551 614
f 535 614 598
f 42 511 598
f 614 42 598
f 44 42 614
f 133 42 44
f 131 42 133
f 236 131 133
f 235 131 236
f 333 235 236
f 332 235 333
f 438 332 440
f 440 332 333
f 464 482 439
f 441 553 464
f 553 482 464
f 553 551 482
f 596 614 442
f 614 553 442
f 614 551 553
f 443 46 596
f 46 614 596
f 46 44 614
f 135 44 46
f 133 44 135
f 237 133 135
f 236 133 237
f 334 236 237
f 333 236 334
f 440 333 444
f 444 333 334
f 533 553 441
f 442 553 533
f 26 46 443
f 105 135 26
f 26 135 46
f 207 237 105
f 105 237 135
f 300 334 207
f 207 334 237
f 444 334 300
f 556 451 467
f 451 557 467
f 558 267 305
f 305 267 487
f 267 367 487
f 267 369 367
f 369 556 467
f 449 369 467
f 367 369 449
f 449 467 557
f 520 449 557
f 518 449 520
f 520 581 518
f 583 581 520
f 583 11 581
f 13 11 583
f 13 90 11
f 92 90 13
f 488 90 224
f 90 194 224
f 90 92 194
f 194 559 224
f 109 72 489
f 560 168 109
f 168 72 109
f 168 166 72
f 168 558 305
f 265 168 305
f 166 168 265
f 305 487 265
f 224 192 488
f 559 289 325
f 559 325 490
f 224 559 490
f 192 224 490
f 289 561 325
f 109 489 74
f 489 562 74
f 489 491 562
f 560 109 74
f 325 287 490
f 325 561 287
f 561 492 287
f 563 491 493
f 563 562 491
f 564 493 494
f 564 563 493
f 565 494 495
f 565 564 494
f 566 495 496
f 566 565 495
f 496 73 566
f 566 73 75
f 567 75 73
f 567 73 497
f 497 167 567
f 567 167 169
f 568 169 167
f 568 167 498
f 498 266 568
f 568 266 268
f 368 268 266
f 368 370 268
f 450 370 368
f 450 452 370
f 519 452 450
f 519 521 452
f 519 499 620
f 584 519 620
f 521 519 584
f 569 584 620
f 388 570 500
f 388 500 387
f 582 620 499
f 620 582 569
f 582 14 569
f 582 12 14
f 91 14 12
f 91 93 14
f 193 93 91
f 193 195 93
f 288 195 193
f 288 290 195
f 288 500 290
f 290 500 570
f 32 27 501
f 121 106 32
f 32 106 27
f 121 502 106
f 541 534 503
f 604 597 541
f 541 597 534
f 597 604 501
f 604 32 501
f 604 34 32
f 123 32 34
f 121 32 123
f 502 121 208
f 121 227 208
f 121 123 227
f 326 301 227
f 227 301 208
f 474 465 504
f 465 474 503
f 474 541 503
f 474 543 541
f 606 541 543
f 604 541 606
f 36 604 606
f 34 604 36
f 125 34 36
f 123 34 125
f 229 123 125
f 227 123 229
f 328 227 229
f 326 227 328
f 505 326 328
f 400 383 506
f 383 400 504
f 400 474 504
f 400 476 474
f 545 474 476
f 543 474 545
f 608 543 545
f 606 543 608
f 38 606 608
f 36 606 38
f 127 36 38
f 125 36 127
f 231 125 127
f 229 125 231
f 330 229 231
f 328 229 330
f 505 328 507
f 507 328 330
f 384 400 506
f 508 478 384
f 478 400 384
f 478 476 400
f 547 476 478
f 545 476 547
f 610 545 547
f 608 545 610
f 40 608 610
f 38 608 40
f 129 38 40
f 127 38 129
f 233 127 129
f 231 127 233
f 302 330 509
f 330 233 509
f 330 231 233
f 507 330 302
f 510 480 508
f 508 480 478
f 549 478 480
f 547 478 549
f 612 547 549
f 610 547 612
f 28 40 511
f 40 612 511
f 40 610 612
f 107 129 28
f 28 129 40
f 209 233 107
f 107 233 129
f 509 233 209
f 466 480 510
f 535 549 466
f 466 549 480
f 598 612 535
f 535 612 549
f 511 612 598
f 621 371 391
f 391 371 556
f 371 451 556
f 371 453 451
f 557 451 536
f 451 522 536
f 451 453 522
f 536 522 599
f 599 522 585
f 585 622 599
f 623 269 558
f 558 269 267
f 269 621 391
f 369 269 391
f 267 269 369
f 391 556 369
f 536 520 557
f 599 583 520
f 599 520 536
f 583 599 622
f 15 583 622
f 13 583 15
f 15 92 13
f 94 92 15
f 94 194 92
f 196 194 94
f 559 194 323
f 194 291 323
f 194 196 291
f 291 624 323
f 625 170 560
f 560 170 168
f 558 168 170
f 558 170 623
f 323 289 559
f 323 624 289
f 624 561 289
f 626 76 562
f 562 76 74
f 560 74 76
f 560 76 625
f 627 562 563
f 627 626 562
f 628 563 564
f 628 627 563
f 629 564 565
f 629 628 564
f 77 629 119
f 629 566 119
f 629 565 566
f 630 77 119
f 75 119 566
f 630 119 75
f 567 630 75
f 631 630 567
f 567 169 631
f 631 169 171
f 632 171 169
f 632 169 568
f 568 268 632
f 632 268 270
f 370 270 268
f 370 372 270
f 452 372 370
f 452 454 372
f 521 454 452
f 521 523 454
f 584 523 521
f 584 586 523
f 584 569 50
f 16 584 50
f 586 584 16
f 633 16 50
f 389 634 570
f 389 570 388
f 14 50 569
f 50 14 633
f 14 95 633
f 14 93 95
f 195 95 93
f 195 197 95
f 290 197 195
f 290 292 197
f 290 570 292
f 292 570 634
f 53 1 43
f 43 1 132
f 132 1 80
f 45 54 43
f 43 54 53
f 43 134 45
f 43 132 134
f 55 571 617
f 54 45 571
f 45 617 571
f 45 47 617
f 45 136 47
f 45 134 136
f 617 572 55
f 572 617 56
f 617 49 56
f 617 47 49
f 47 138 49
f 47 136 138
f 49 2 56
f 2 49 81
f 81 49 138
f 81 138 183
f 57 373 621
f 621 373 371
f 373 453 371
f 455 453 373
f 455 522 453
f 524 522 455
f 524 585 522
f 587 585 524
f 587 58 585
f 585 58 622
f 59 271 623
f 623 271 269
f 621 269 271
f 621 271 57
f 15 622 58
f 15 58 17
f 17 94 15
f 96 94 17
f 96 196 94
f 198 196 96
f 198 291 196
f 293 291 198
f 60 172 625
f 625 172 170
f 623 170 172
f 623 172 59
f 111 76 626
f 625 76 111
f 61 625 111
f 60 625 61
f 111 626 78
f 626 62 78
f 626 627 62
f 61 111 78
f 63 627 628
f 63 62 627
f 79 63 117
f 63 629 117
f 63 628 629
f 64 79 117
f 77 117 629
f 64 117 77
f 630 64 77
f 65 64 630
f 66 630 631
f 66 65 630
f 631 171 66
f 66 171 173
f 67 173 171
f 67 171 632
f 632 270 67
f 67 270 272
f 372 272 270
f 372 374 272
f 454 374 372
f 454 456 374
f 523 456 454
f 523 525 456
f 586 525 523
f 586 588 525
f 16 588 586
f 16 18 588
f 16 633 139
f 97 16 139
f 18 16 97
f 68 97 139
f 294 69 336
f 294 336 634
f 389 294 634
f 95 139 633
f 139 95 68
f 95 199 68
f 95 197 199
f 69 199 336
f 199 292 336
f 199 197 292
f 634 336 292
