# Converted from NanoShaper .vert/.face
v 6.780000 -14.131000 2.546000
v 8.834000 -14.131000 2.546000
v 6.695000 -14.131000 3.046000
v 9.266000 -14.131000 3.046000
v 6.733000 -14.131000 3.546000
v 9.903000 -14.131000 3.546000
v 7.674000 -14.131000 4.046000
v 10.776000 -14.131000 4.046000
v 8.071000 -14.131000 4.546000
v 10.815000 -14.131000 4.546000
v 8.133000 -14.131000 5.046000
v 10.271000 -14.131000 5.046000
v 7.026000 -14.131000 2.302000
v 7.026000 -14.131000 3.807000
v 7.526000 -14.131000 2.283000
v 7.526000 -14.131000 3.965000
v 8.026000 -14.131000 2.258000
v 8.026000 -14.131000 4.431000
v 8.526000 -14.131000 2.243000
v 8.526000 -14.131000 5.440000
v 9.026000 -14.131000 2.807000
v 9.026000 -14.131000 5.425000
v 9.526000 -14.131000 3.222000
v 9.526000 -14.131000 5.372000
v 10.026000 -14.131000 3.668000
v 10.026000 -14.131000 5.298000
v 10.526000 -14.131000 3.837000
v 10.526000 -14.131000 4.828000
v 6.526000 -13.743000 2.046000
v 6.526000 -11.966000 2.046000
v 7.026000 -13.995000 2.046000
v 7.026000 -11.429000 2.046000
v 7.526000 -14.003000 2.046000
v 7.526000 -11.204000 2.046000
v 8.026000 -14.019000 2.046000
v 8.026000 -11.214000 2.046000
v 8.526000 -14.028000 2.046000
v 8.526000 -11.445000 2.046000
v 9.026000 -13.803000 2.046000
v 9.026000 -11.717000 2.046000
v 8.526000 -13.553000 6.046000
v 8.526000 -12.224000 6.046000
v 9.026000 -13.538000 6.046000
v 9.026000 -12.225000 6.046000
v 9.526000 -13.503000 6.046000
v 9.526000 -12.197000 6.046000
v 10.026000 -13.475000 6.046000
v 10.026000 -12.199000 6.046000
v 6.412000 -13.631000 2.046000
v 9.207000 -13.631000 2.046000
v 6.154000 -13.631000 2.546000
v 9.662000 -13.631000 2.546000
v 6.102000 -13.631000 3.046000
v 10.224000 -13.631000 3.046000
v 6.119000 -13.631000 3.546000
v 11.168000 -13.631000 3.546000
v 6.387000 -13.631000 4.046000
v 11.442000 -13.631000 4.046000
v 7.173000 -13.631000 4.546000
v 11.459000 -13.631000 4.546000
v 7.553000 -13.631000 5.046000
v 11.231000 -13.631000 5.046000
v 7.793000 -13.631000 5.546000
v 10.680000 -13.631000 5.546000
v 6.526000 -13.631000 1.933000
v 6.526000 -13.631000 4.175000
v 7.026000 -13.631000 1.679000
v 7.026000 -13.631000 4.447000
v 7.526000 -13.631000 1.671000
v 7.526000 -13.631000 4.986000
v 8.026000 -13.631000 1.646000
v 8.026000 -13.631000 5.779000
v 8.526000 -13.631000 1.636000
v 8.526000 -13.631000 5.999000
v 9.026000 -13.631000 1.867000
v 9.026000 -13.631000 5.991000
v 9.526000 -13.631000 2.408000
v 9.526000 -13.631000 5.969000
v 10.026000 -13.631000 2.898000
v 10.026000 -13.631000 5.950000
v 10.526000 -13.631000 3.189000
v 10.526000 -13.631000 5.703000
v 11.026000 -13.631000 3.416000
v 11.026000 -13.631000 5.248000
v 6.026000 -13.398000 2.546000
v 6.026000 -12.311000 2.546000
v 6.526000 -13.998000 2.546000
v 6.526000 -11.690000 2.546000
v 7.026000 -14.203000 2.546000
v 7.026000 -11.206000 2.546000
v 7.526000 -14.212000 2.546000
v 7.526000 -11.017000 2.546000
v 8.026000 -14.217000 2.546000
v 8.026000 -11.026000 2.546000
v 8.526000 -14.220000 2.546000
v 8.526000 -11.131000 2.546000
v 9.026000 -14.046000 2.546000
v 9.026000 -11.187000 2.546000
v 9.526000 -13.760000 2.546000
v 9.526000 -11.282000 2.546000
v 10.026000 -13.115000 2.546000
v 10.026000 -11.433000 2.546000
v 6.763000 -13.131000 1.546000
v 8.899000 -13.131000 1.546000
v 6.151000 -13.131000 2.046000
v 9.468000 -13.131000 2.046000
v 5.942000 -13.131000 2.546000
v 10.014000 -13.131000 2.546000
v 5.896000 -13.131000 3.046000
v 10.819000 -13.131000 3.046000
v 5.910000 -13.131000 3.546000
v 11.446000 -13.131000 3.546000
v 6.128000 -13.131000 4.046000
v 11.664000 -13.131000 4.046000
v 6.753000 -13.131000 4.546000
v 11.677000 -13.131000 4.546000
v 7.303000 -13.131000 5.046000
v 11.494000 -13.131000 5.046000
v 7.562000 -13.131000 5.546000
v 10.992000 -13.131000 5.546000
v 8.087000 -13.131000 6.046000
v 10.397000 -13.131000 6.046000
v 6.026000 -13.131000 2.274000
v 6.026000 -13.131000 3.875000
v 6.526000 -13.131000 1.672000
v 6.526000 -13.131000 4.423000
v 7.026000 -13.131000 1.466000
v 7.026000 -13.131000 4.732000
v 7.526000 -13.131000 1.460000
v 7.526000 -13.131000 5.482000
v 8.026000 -13.131000 1.435000
v 8.026000 -13.131000 6.011000
v 8.526000 -13.131000 1.427000
v 8.526000 -13.131000 6.194000
v 9.026000 -13.131000 1.616000
v 9.026000 -13.131000 6.188000
v 9.526000 -13.131000 2.110000
v 9.526000 -13.131000 6.179000
v 10.026000 -13.131000 2.554000
v 10.026000 -13.131000 6.170000
v 10.526000 -13.131000 2.872000
v 10.526000 -13.131000 5.971000
v 11.026000 -13.131000 3.156000
v 11.026000 -13.131000 5.517000
v 11.526000 -13.131000 3.675000
v 11.526000 -13.131000 4.989000
v 6.026000 -13.502000 3.046000
v 6.026000 -12.224000 3.046000
v 6.526000 -14.041000 3.046000
v 6.526000 -11.660000 3.046000
v 7.026000 -14.231000 3.046000
v 7.026000 -11.216000 3.046000
v 7.526000 -14.281000 3.046000
v 7.526000 -11.027000 3.046000
v 8.026000 -14.285000 3.046000
v 8.026000 -11.004000 3.046000
v 8.526000 -14.237000 3.046000
v 8.526000 -10.992000 3.046000
v 9.026000 -14.193000 3.046000
v 9.026000 -10.902000 3.046000
v 9.526000 -14.046000 3.046000
v 9.526000 -10.756000 3.046000
v 10.026000 -13.789000 3.046000
v 10.026000 -10.777000 3.046000
v 10.526000 -13.398000 3.046000
v 10.526000 -11.056000 3.046000
v 6.738000 -12.631000 1.546000
v 8.918000 -12.631000 1.546000
v 6.139000 -12.631000 2.046000
v 9.503000 -12.631000 2.046000
v 5.932000 -12.631000 2.546000
v 10.381000 -12.631000 2.546000
v 5.890000 -12.631000 3.046000
v 10.963000 -12.631000 3.046000
v 5.904000 -12.631000 3.546000
v 11.469000 -12.631000 3.546000
v 6.120000 -12.631000 4.046000
v 11.682000 -12.631000 4.046000
v 6.741000 -12.631000 4.546000
v 11.694000 -12.631000 4.546000
v 7.304000 -12.631000 5.046000
v 11.513000 -12.631000 5.046000
v 7.565000 -12.631000 5.546000
v 11.017000 -12.631000 5.546000
v 8.092000 -12.631000 6.046000
v 10.432000 -12.631000 6.046000
v 6.026000 -12.631000 2.250000
v 6.026000 -12.631000 3.889000
v 6.526000 -12.631000 1.660000
v 6.526000 -12.631000 4.431000
v 7.026000 -12.631000 1.456000
v 7.026000 -12.631000 4.737000
v 7.526000 -12.631000 1.405000
v 7.526000 -12.631000 5.477000
v 8.026000 -12.631000 1.397000
v 8.026000 -12.631000 6.008000
v 8.526000 -12.631000 1.418000
v 8.526000 -12.631000 6.191000
v 9.026000 -12.631000 1.606000
v 9.026000 -12.631000 6.188000
v 9.526000 -12.631000 2.067000
v 9.526000 -12.631000 6.190000
v 10.026000 -12.631000 2.398000
v 10.026000 -12.631000 6.186000
v 10.526000 -12.631000 2.632000
v 10.526000 -12.631000 5.990000
v 11.026000 -12.631000 3.106000
v 11.026000 -12.631000 5.538000
v 11.526000 -12.631000 3.636000
v 11.526000 -12.631000 5.023000
v 6.026000 -13.472000 3.546000
v 6.026000 -12.256000 3.546000
v 6.526000 -14.025000 3.546000
v 6.526000 -11.703000 3.546000
v 7.026000 -14.215000 3.546000
v 7.026000 -11.447000 3.546000
v 7.526000 -14.280000 3.546000
v 7.526000 -11.202000 3.546000
v 8.026000 -14.288000 3.546000
v 8.026000 -11.025000 3.546000
v 8.526000 -14.251000 3.546000
v 8.526000 -10.934000 3.546000
v 9.026000 -14.247000 3.546000
v 9.026000 -10.720000 3.546000
v 9.526000 -14.246000 3.546000
v 9.526000 -10.540000 3.546000
v 10.026000 -14.089000 3.546000
v 10.026000 -10.558000 3.546000
v 10.526000 -13.978000 3.546000
v 10.526000 -10.780000 3.546000
v 11.026000 -13.759000 3.546000
v 11.026000 -11.366000 3.546000
v 7.121000 -12.131000 1.546000
v 8.418000 -12.131000 1.546000
v 6.368000 -12.131000 2.046000
v 9.401000 -12.131000 2.046000
v 6.120000 -12.131000 2.546000
v 10.389000 -12.131000 2.546000
v 6.079000 -12.131000 3.046000
v 10.950000 -12.131000 3.046000
v 6.096000 -12.131000 3.546000
v 11.452000 -12.131000 3.546000
v 6.358000 -12.131000 4.046000
v 11.659000 -12.131000 4.046000
v 7.142000 -12.131000 4.546000
v 11.666000 -12.131000 4.546000
v 7.557000 -12.131000 5.046000
v 11.476000 -12.131000 5.046000
v 7.805000 -12.131000 5.546000
v 10.931000 -12.131000 5.546000
v 6.526000 -12.131000 1.888000
v 6.526000 -12.131000 4.203000
v 7.026000 -12.131000 1.592000
v 7.026000 -12.131000 4.470000
v 7.526000 -12.131000 1.411000
v 7.526000 -12.131000 4.985000
v 8.026000 -12.131000 1.420000
v 8.026000 -12.131000 5.767000
v 8.526000 -12.131000 1.586000
v 8.526000 -12.131000 5.990000
v 9.026000 -12.131000 1.823000
v 9.026000 -12.131000 5.991000
v 9.526000 -12.131000 2.125000
v 9.526000 -12.131000 6.008000
v 10.026000 -12.131000 2.409000
v 10.026000 -12.131000 6.007000
v 10.526000 -12.131000 2.627000
v 10.526000 -12.131000 5.781000
v 11.026000 -12.131000 3.119000
v 11.026000 -12.131000 5.492000
v 11.526000 -12.131000 3.669000
v 11.526000 -12.131000 4.958000
v 6.526000 -13.764000 4.046000
v 6.526000 -11.964000 4.046000
v 7.026000 -13.998000 4.046000
v 7.026000 -11.720000 4.046000
v 7.526000 -14.087000 4.046000
v 7.526000 -11.464000 4.046000
v 8.026000 -14.220000 4.046000
v 8.026000 -11.158000 4.046000
v 8.526000 -14.244000 4.046000
v 8.526000 -10.995000 4.046000
v 9.026000 -14.259000 4.046000
v 9.026000 -10.704000 4.046000
v 9.526000 -14.266000 4.046000
v 9.526000 -10.527000 4.046000
v 10.026000 -14.215000 4.046000
v 10.026000 -10.543000 4.046000
v 10.526000 -14.193000 4.046000
v 10.526000 -10.763000 4.046000
v 11.026000 -14.015000 4.046000
v 11.026000 -11.180000 4.046000
v 11.526000 -13.498000 4.046000
v 11.526000 -11.728000 4.046000
v 6.819000 -11.631000 2.046000
v 8.858000 -11.631000 2.046000
v 6.581000 -11.631000 2.546000
v 10.211000 -11.631000 2.546000
v 6.557000 -11.631000 3.046000
v 10.856000 -11.631000 3.046000
v 6.656000 -11.631000 3.546000
v 11.223000 -11.631000 3.546000
v 7.254000 -11.631000 4.046000
v 11.471000 -11.631000 4.046000
v 7.600000 -11.631000 4.546000
v 11.479000 -11.631000 4.546000
v 7.893000 -11.631000 5.046000
v 11.253000 -11.631000 5.046000
v 7.026000 -11.631000 1.838000
v 7.026000 -11.631000 3.890000
v 7.526000 -11.631000 1.610000
v 7.526000 -11.631000 4.404000
v 8.026000 -11.631000 1.619000
v 8.026000 -11.631000 5.172000
v 8.526000 -11.631000 1.871000
v 8.526000 -11.631000 5.450000
v 9.026000 -11.631000 2.096000
v 9.026000 -11.631000 5.470000
v 9.526000 -11.631000 2.323000
v 9.526000 -11.631000 5.508000
v 10.026000 -11.631000 2.491000
v 10.026000 -11.631000 5.541000
v 10.526000 -11.631000 2.713000
v 10.526000 -11.631000 5.491000
v 11.026000 -11.631000 3.292000
v 11.026000 -11.631000 5.270000
v 7.026000 -13.506000 4.546000
v 7.026000 -12.234000 4.546000
v 7.526000 -13.858000 4.546000
v 7.526000 -11.711000 4.546000
v 8.026000 -14.113000 4.546000
v 8.026000 -11.242000 4.546000
v 8.526000 -14.245000 4.546000
v 8.526000 -11.051000 4.546000
v 9.026000 -14.257000 4.546000
v 9.026000 -10.897000 4.546000
v 9.526000 -14.241000 4.546000
v 9.526000 -10.707000 4.546000
v 10.026000 -14.219000 4.546000
v 10.026000 -10.727000 4.546000
v 10.526000 -14.206000 4.546000
v 10.526000 -10.945000 4.546000
v 11.026000 -14.030000 4.546000
v 11.026000 -11.178000 4.546000
v 11.526000 -13.525000 4.546000
v 11.526000 -11.713000 4.546000
v 7.163000 -11.131000 2.546000
v 8.526000 -11.131000 2.546000
v 7.185000 -11.131000 3.046000
v 10.599000 -11.131000 3.046000
v 7.699000 -11.131000 3.546000
v 10.867000 -11.131000 3.546000
v 8.097000 -11.131000 4.046000
v 10.964000 -11.131000 4.046000
v 8.243000 -11.131000 4.546000
v 10.942000 -11.131000 4.546000
v 7.526000 -11.131000 2.181000
v 7.526000 -11.131000 3.372000
v 8.026000 -11.131000 2.200000
v 8.026000 -11.131000 3.936000
v 8.526000 -11.131000 2.546000
v 8.526000 -11.131000 4.797000
v 9.026000 -11.131000 2.630000
v 9.026000 -11.131000 4.897000
v 9.526000 -11.131000 2.663000
v 9.526000 -11.131000 4.995000
v 10.026000 -11.131000 2.699000
v 10.026000 -11.131000 5.014000
v 10.526000 -11.131000 2.972000
v 10.526000 -11.131000 4.956000
v 7.526000 -13.594000 5.046000
v 7.526000 -12.175000 5.046000
v 8.026000 -14.072000 5.046000
v 8.026000 -11.504000 5.046000
v 8.526000 -14.255000 5.046000
v 8.526000 -11.269000 5.046000
v 9.026000 -14.250000 5.046000
v 9.026000 -11.247000 5.046000
v 9.526000 -14.229000 5.046000
v 9.526000 -11.193000 5.046000
v 10.026000 -14.197000 5.046000
v 10.026000 -11.160000 5.046000
v 10.526000 -14.045000 5.046000
v 10.526000 -11.182000 5.046000
v 11.026000 -13.817000 5.046000
v 11.026000 -11.405000 5.046000
v 9.202000 -10.631000 3.546000
v 10.258000 -10.631000 3.546000
v 9.167000 -10.631000 4.046000
v 10.293000 -10.631000 4.046000
v 9.526000 -10.631000 3.268000
v 9.526000 -10.631000 4.399000
v 10.026000 -10.631000 3.310000
v 10.026000 -10.631000 4.357000
v 7.026000 -13.387000 1.546000
v 7.026000 -12.281000 1.546000
v 7.526000 -13.403000 1.546000
v 7.526000 -11.741000 1.546000
v 8.026000 -13.457000 1.546000
v 8.026000 -11.759000 1.546000
v 8.526000 -13.477000 1.546000
v 8.526000 -12.225000 1.546000
v 8.026000 -13.857000 5.546000
v 8.026000 -11.919000 5.546000
v 8.526000 -14.074000 5.546000
v 8.526000 -11.701000 5.546000
v 9.026000 -14.065000 5.546000
v 9.026000 -11.691000 5.546000
v 9.526000 -14.040000 5.546000
v 9.526000 -11.659000 5.546000
v 10.026000 -14.011000 5.546000
v 10.026000 -11.635000 5.546000
v 10.526000 -13.777000 5.546000
v 10.526000 -11.725000 5.546000
f 85 107 123
f 123 107 187
f 187 107 171
f 171 86 187
f 87 51 29
f 29 51 49
f 51 85 123
f 105 51 123
f 49 51 105
f 187 169 105
f 187 105 123
f 169 187 86
f 237 169 86
f 235 169 237
f 237 88 235
f 235 88 30
f 89 1 13
f 31 13 1
f 87 31 1
f 29 31 87
f 295 30 88
f 295 88 297
f 297 90 295
f 295 90 32
f 15 91 13
f 13 91 89
f 13 31 33
f 13 33 15
f 90 347 357
f 34 90 357
f 32 90 34
f 347 92 357
f 17 93 15
f 15 93 91
f 15 33 35
f 15 35 17
f 359 36 34
f 359 34 357
f 357 92 359
f 359 92 94
f 19 95 17
f 17 95 93
f 17 35 37
f 17 37 19
f 36 359 348
f 96 36 348
f 38 36 96
f 359 94 348
f 19 2 95
f 97 2 19
f 37 97 19
f 39 97 37
f 296 317 40
f 296 38 317
f 38 98 317
f 38 96 98
f 77 99 50
f 99 39 50
f 99 97 39
f 106 137 77
f 106 77 50
f 170 201 137
f 170 137 106
f 236 263 201
f 236 201 170
f 263 236 40
f 317 263 40
f 319 263 317
f 317 98 319
f 319 98 100
f 77 52 99
f 52 77 108
f 108 77 137
f 108 137 101
f 137 203 101
f 137 201 203
f 201 265 203
f 201 263 265
f 263 321 265
f 263 319 321
f 319 100 321
f 321 100 102
f 203 172 101
f 172 203 238
f 238 203 265
f 238 265 298
f 298 265 321
f 321 102 298
f 134 121 41
f 198 185 134
f 134 185 121
f 198 42 185
f 43 136 41
f 41 136 134
f 200 134 136
f 198 134 200
f 42 198 44
f 44 198 200
f 45 138 43
f 43 138 136
f 202 136 138
f 200 136 202
f 44 200 46
f 46 200 202
f 47 140 45
f 45 140 138
f 204 138 140
f 202 138 204
f 46 202 48
f 48 202 204
f 122 140 47
f 186 204 122
f 122 204 140
f 48 204 186
f 147 109 85
f 85 109 107
f 109 171 107
f 173 171 109
f 173 148 171
f 171 148 86
f 149 53 87
f 87 53 51
f 85 51 53
f 85 53 147
f 237 86 148
f 237 148 239
f 239 150 237
f 237 150 88
f 151 3 89
f 89 3 1
f 87 1 3
f 87 3 149
f 297 88 150
f 297 150 299
f 299 152 297
f 297 152 90
f 153 89 91
f 153 151 89
f 347 90 152
f 347 152 349
f 349 154 347
f 347 154 92
f 155 91 93
f 155 153 91
f 92 156 94
f 154 156 92
f 157 93 95
f 157 155 93
f 348 361 96
f 348 94 361
f 94 158 361
f 94 156 158
f 21 159 2
f 159 95 2
f 159 157 95
f 97 21 2
f 363 98 96
f 363 96 361
f 361 158 363
f 363 158 160
f 21 4 159
f 161 4 21
f 97 161 21
f 99 161 97
f 365 100 98
f 365 98 363
f 363 160 365
f 365 160 162
f 79 163 52
f 163 99 52
f 163 161 99
f 108 139 79
f 108 79 52
f 101 139 108
f 367 102 100
f 367 100 365
f 365 162 367
f 367 162 164
f 79 54 163
f 54 79 165
f 79 141 165
f 79 139 141
f 139 101 172
f 205 139 172
f 141 139 205
f 238 267 205
f 238 205 172
f 298 323 267
f 298 267 238
f 323 298 102
f 367 323 102
f 369 323 367
f 367 164 369
f 369 164 166
f 141 110 165
f 110 141 174
f 174 141 205
f 174 205 240
f 240 205 267
f 240 267 300
f 300 267 323
f 300 323 350
f 350 323 369
f 369 166 350
f 211 111 147
f 147 111 109
f 111 173 109
f 175 173 111
f 175 212 173
f 173 212 148
f 213 55 149
f 149 55 53
f 147 53 55
f 147 55 211
f 239 148 212
f 239 212 241
f 241 214 239
f 239 214 150
f 215 5 151
f 151 5 3
f 149 3 5
f 149 5 213
f 299 150 214
f 299 214 301
f 301 216 299
f 299 216 152
f 217 151 153
f 217 215 151
f 218 358 349
f 152 218 349
f 216 218 152
f 358 154 349
f 219 153 155
f 219 217 153
f 351 358 218
f 351 220 358
f 220 154 358
f 220 156 154
f 221 155 157
f 221 219 155
f 156 222 158
f 220 222 156
f 223 157 159
f 223 221 157
f 158 224 160
f 222 224 158
f 23 225 4
f 225 159 4
f 225 223 159
f 161 23 4
f 224 387 391
f 162 224 391
f 160 224 162
f 387 226 391
f 23 6 225
f 227 6 23
f 161 227 23
f 163 227 161
f 393 164 162
f 393 162 391
f 391 226 393
f 393 226 228
f 81 229 54
f 229 163 54
f 229 227 163
f 165 81 54
f 164 393 388
f 230 164 388
f 166 164 230
f 393 228 388
f 83 231 81
f 81 231 229
f 81 165 110
f 143 81 110
f 83 81 143
f 174 207 143
f 174 143 110
f 240 269 207
f 240 207 174
f 300 325 269
f 300 269 240
f 352 232 325
f 300 352 325
f 350 352 300
f 350 166 352
f 352 166 230
f 83 56 231
f 56 83 112
f 112 83 143
f 112 143 176
f 176 143 207
f 176 207 242
f 242 207 269
f 242 269 302
f 302 269 325
f 325 232 302
f 124 111 211
f 188 175 124
f 124 175 111
f 188 212 175
f 273 57 213
f 213 57 55
f 113 124 211
f 55 113 211
f 57 113 55
f 124 113 177
f 124 177 188
f 241 212 188
f 177 241 188
f 243 241 177
f 243 274 241
f 241 274 214
f 14 5 215
f 213 5 14
f 275 213 14
f 273 213 275
f 276 310 301
f 214 276 301
f 274 276 214
f 310 216 301
f 217 16 215
f 215 16 14
f 275 14 16
f 275 16 277
f 303 310 276
f 303 278 310
f 278 216 310
f 278 218 216
f 16 217 7
f 217 279 7
f 217 219 279
f 277 16 7
f 280 360 351
f 218 280 351
f 278 280 218
f 360 220 351
f 281 219 221
f 281 279 219
f 353 360 280
f 353 282 360
f 282 220 360
f 282 222 220
f 283 221 223
f 283 281 221
f 222 284 224
f 282 284 222
f 285 223 225
f 285 283 223
f 387 224 284
f 387 284 389
f 389 286 387
f 387 286 226
f 25 287 6
f 287 225 6
f 287 285 225
f 227 25 6
f 226 288 228
f 286 288 226
f 27 289 25
f 25 289 287
f 25 227 229
f 25 229 27
f 390 290 230
f 390 230 388
f 388 228 390
f 390 228 288
f 27 8 289
f 291 8 27
f 229 291 27
f 231 291 229
f 354 292 232
f 354 232 352
f 352 230 354
f 354 230 290
f 231 56 291
f 291 56 58
f 112 145 293
f 58 112 293
f 56 112 58
f 176 209 145
f 176 145 112
f 242 271 209
f 242 209 176
f 304 294 271
f 242 304 271
f 302 304 242
f 302 232 304
f 304 232 292
f 145 114 293
f 114 145 178
f 178 145 209
f 178 209 244
f 244 209 271
f 271 294 244
f 66 57 273
f 126 113 66
f 66 113 57
f 190 177 126
f 126 177 113
f 252 243 190
f 190 243 177
f 252 274 243
f 275 68 273
f 273 68 66
f 68 327 115
f 126 68 115
f 66 68 126
f 126 115 179
f 126 179 190
f 190 179 328
f 254 190 328
f 252 190 254
f 274 252 276
f 276 252 254
f 68 275 59
f 275 329 59
f 275 277 329
f 327 68 59
f 245 254 328
f 330 312 303
f 330 303 276
f 245 330 276
f 254 245 276
f 312 278 303
f 18 7 279
f 277 7 18
f 331 277 18
f 329 277 331
f 305 312 330
f 305 332 312
f 332 278 312
f 332 280 278
f 18 279 9
f 279 333 9
f 279 281 333
f 331 18 9
f 353 280 332
f 353 332 355
f 355 334 353
f 353 334 282
f 335 281 283
f 335 333 281
f 282 336 284
f 334 336 282
f 337 283 285
f 337 335 283
f 338 392 389
f 284 338 389
f 336 338 284
f 392 286 389
f 339 285 287
f 339 337 285
f 340 394 392
f 340 392 338
f 286 392 288
f 288 392 394
f 341 287 289
f 341 339 287
f 290 390 394
f 340 290 394
f 342 290 340
f 288 394 390
f 289 8 341
f 341 8 10
f 343 10 8
f 343 8 291
f 356 344 292
f 356 292 354
f 354 290 356
f 356 290 342
f 291 58 343
f 343 58 60
f 345 60 58
f 345 58 293
f 306 346 294
f 306 294 304
f 304 292 306
f 306 292 344
f 293 114 345
f 345 114 116
f 178 116 114
f 178 180 116
f 244 180 178
f 244 246 180
f 244 294 246
f 246 294 346
f 128 115 327
f 192 179 128
f 128 179 115
f 192 328 179
f 70 59 329
f 117 128 327
f 117 327 59
f 371 117 59
f 70 371 59
f 128 117 181
f 128 181 192
f 372 256 245
f 372 245 328
f 181 372 328
f 192 181 328
f 256 330 245
f 70 329 61
f 329 373 61
f 329 331 373
f 371 70 61
f 247 256 372
f 305 330 256
f 247 305 256
f 307 305 247
f 307 374 305
f 305 374 332
f 375 11 333
f 333 11 9
f 331 9 11
f 331 11 373
f 376 362 355
f 332 376 355
f 374 376 332
f 362 334 355
f 377 333 335
f 377 375 333
f 378 364 362
f 378 362 376
f 334 362 336
f 336 362 364
f 379 335 337
f 379 377 335
f 380 366 364
f 380 364 378
f 336 364 338
f 338 364 366
f 381 337 339
f 381 379 337
f 382 368 366
f 382 366 380
f 338 366 340
f 340 366 368
f 12 381 28
f 381 341 28
f 381 339 341
f 383 12 28
f 384 370 368
f 384 368 382
f 340 368 342
f 342 368 370
f 10 28 341
f 383 28 10
f 343 383 10
f 385 383 343
f 344 356 370
f 384 344 370
f 386 344 384
f 342 370 356
f 343 60 385
f 385 60 62
f 60 345 146
f 118 60 146
f 62 60 118
f 118 146 210
f 118 210 182
f 182 210 272
f 182 272 248
f 248 272 346
f 306 248 346
f 308 248 306
f 306 344 308
f 308 344 386
f 116 146 345
f 180 210 116
f 116 210 146
f 246 272 180
f 180 272 210
f 346 272 246
f 395 103 127
f 127 103 191
f 191 103 167
f 167 396 191
f 129 397 127
f 127 397 395
f 127 193 129
f 127 191 193
f 233 255 396
f 255 191 396
f 255 193 191
f 233 398 255
f 131 399 129
f 129 399 397
f 129 195 131
f 129 193 195
f 193 257 195
f 193 255 257
f 255 398 257
f 257 398 400
f 133 401 131
f 131 401 399
f 131 197 133
f 131 195 197
f 402 197 234
f 197 257 234
f 197 195 257
f 257 400 234
f 133 104 401
f 104 133 168
f 168 133 197
f 197 402 168
f 130 117 371
f 194 181 130
f 130 181 117
f 194 372 181
f 403 63 373
f 373 63 61
f 119 130 371
f 61 119 371
f 63 119 61
f 130 119 183
f 130 183 194
f 247 372 194
f 183 247 194
f 249 247 183
f 314 307 404
f 307 249 404
f 307 247 249
f 314 374 307
f 20 11 375
f 373 11 20
f 405 373 20
f 403 373 405
f 406 316 314
f 406 314 404
f 374 314 376
f 376 314 316
f 377 22 375
f 375 22 20
f 405 20 22
f 405 22 407
f 408 318 316
f 408 316 406
f 376 316 378
f 378 316 318
f 379 24 377
f 377 24 22
f 407 22 24
f 407 24 409
f 410 320 318
f 410 318 408
f 378 318 380
f 380 318 320
f 381 26 379
f 379 26 24
f 409 24 26
f 409 26 411
f 412 322 320
f 412 320 410
f 380 320 382
f 382 320 322
f 12 26 381
f 411 26 12
f 383 411 12
f 413 411 383
f 414 324 322
f 414 322 412
f 382 322 384
f 384 322 324
f 64 413 84
f 413 385 84
f 413 383 385
f 64 84 144
f 64 144 120
f 120 144 208
f 120 208 184
f 184 208 270
f 184 270 250
f 324 414 250
f 270 324 250
f 326 324 270
f 384 324 386
f 386 324 326
f 62 84 385
f 118 144 62
f 62 144 84
f 182 208 118
f 118 208 144
f 248 270 182
f 182 270 208
f 308 326 248
f 248 326 270
f 386 326 308
f 29 49 65
f 65 49 125
f 125 49 105
f 125 105 189
f 189 105 169
f 189 169 251
f 251 169 235
f 235 30 251
f 67 31 65
f 65 31 29
f 125 103 395
f 67 125 395
f 65 125 67
f 189 167 103
f 189 103 125
f 253 396 167
f 189 253 167
f 251 253 189
f 295 309 30
f 309 251 30
f 309 253 251
f 295 32 309
f 69 33 67
f 67 33 31
f 67 395 397
f 67 397 69
f 253 233 396
f 311 398 233
f 253 311 233
f 309 311 253
f 309 32 311
f 311 32 34
f 71 35 69
f 69 35 33
f 69 397 399
f 69 399 71
f 313 400 398
f 313 398 311
f 311 34 313
f 313 34 36
f 73 37 71
f 71 37 35
f 71 399 401
f 71 401 73
f 234 259 402
f 259 234 400
f 313 259 400
f 315 259 313
f 313 36 315
f 315 36 38
f 75 39 73
f 73 39 37
f 73 401 104
f 135 73 104
f 75 73 135
f 168 199 135
f 168 135 104
f 199 168 402
f 259 199 402
f 261 199 259
f 40 261 296
f 261 315 296
f 261 259 315
f 315 38 296
f 75 50 39
f 50 75 106
f 106 75 135
f 106 135 170
f 170 135 199
f 170 199 236
f 236 199 261
f 261 40 236
f 72 63 403
f 132 119 72
f 72 119 63
f 196 183 132
f 132 183 119
f 258 249 196
f 196 249 183
f 258 404 249
f 405 74 403
f 403 74 72
f 74 41 121
f 132 74 121
f 72 74 132
f 132 121 185
f 132 185 196
f 196 185 42
f 260 196 42
f 258 196 260
f 404 258 406
f 406 258 260
f 407 76 405
f 405 76 74
f 41 74 76
f 41 76 43
f 44 262 260
f 44 260 42
f 406 260 408
f 408 260 262
f 409 78 407
f 407 78 76
f 43 76 78
f 43 78 45
f 46 264 262
f 46 262 44
f 408 262 410
f 410 262 264
f 411 80 409
f 409 80 78
f 45 78 80
f 45 80 47
f 48 266 264
f 48 264 46
f 410 264 412
f 412 264 266
f 413 82 411
f 411 82 80
f 142 122 47
f 80 142 47
f 82 142 80
f 122 142 206
f 122 206 186
f 266 48 186
f 206 266 186
f 268 266 206
f 412 266 414
f 414 266 268
f 64 82 413
f 120 142 64
f 64 142 82
f 184 206 120
f 120 206 142
f 250 268 184
f 184 268 206
f 414 268 250
