# Converted from NanoShaper .vert/.face
v 9.048000 -14.387000 3.418000
v 10.333000 -14.387000 3.418000
v 8.515000 -14.387000 3.918000
v 10.866000 -14.387000 3.918000
v 8.330000 -14.387000 4.418000
v 11.051000 -14.387000 4.418000
v 8.341000 -14.387000 4.918000
v 11.042000 -14.387000 4.918000
v 8.555000 -14.387000 5.418000
v 10.845000 -14.387000 5.418000
v 9.183000 -14.387000 5.918000
v 10.217000 -14.387000 5.918000
v 9.452000 -10.387000 2.918000
v 11.977000 -10.387000 2.918000
v 8.953000 -10.387000 3.418000
v 12.371000 -10.387000 3.418000
v 8.692000 -10.387000 3.918000
v 12.824000 -10.387000 3.918000
v 8.511000 -10.387000 4.418000
v 13.055000 -10.387000 4.418000
v 8.498000 -10.387000 4.918000
v 13.344000 -10.387000 4.918000
v 8.666000 -10.387000 5.418000
v 13.526000 -10.387000 5.418000
v 8.866000 -10.387000 5.918000
v 13.519000 -10.387000 5.918000
v 8.919000 -10.387000 6.418000
v 13.509000 -10.387000 6.418000
v 8.950000 -10.387000 6.918000
v 13.541000 -10.387000 6.918000
v 9.151000 -10.387000 7.418000
v 13.562000 -10.387000 7.418000
v 9.332000 -10.387000 7.918000
v 13.543000 -10.387000 7.918000
v 9.522000 -10.387000 8.418000
v 13.483000 -10.387000 8.418000
v 9.976000 -10.387000 8.918000
v 13.489000 -10.387000 8.918000
v 10.487000 -10.387000 9.418000
v 13.590000 -10.387000 9.418000
v 10.797000 -10.387000 9.918000
v 13.784000 -10.387000 9.918000
v 10.868000 -10.387000 10.418000
v 13.820000 -10.387000 10.418000
v 10.800000 -10.387000 10.918000
v 13.823000 -10.387000 10.918000
v 10.805000 -10.387000 11.418000
v 13.788000 -10.387000 11.418000
v 11.010000 -10.387000 11.918000
v 13.525000 -10.387000 11.918000
v 11.610000 -10.387000 12.418000
v 12.698000 -10.387000 12.418000
v 8.393000 -14.387000 4.174000
v 8.393000 -14.387000 5.100000
v 8.893000 -14.387000 3.514000
v 8.893000 -14.387000 5.760000
v 9.393000 -14.387000 3.292000
v 9.393000 -14.387000 5.982000
v 9.893000 -14.387000 3.274000
v 9.893000 -14.387000 6.000000
v 10.393000 -14.387000 3.452000
v 10.393000 -14.387000 5.840000
v 10.893000 -14.387000 3.964000
v 10.893000 -14.387000 5.339000
v 8.893000 -10.387000 3.519000
v 8.893000 -10.387000 6.079000
v 9.393000 -10.387000 2.965000
v 9.393000 -10.387000 8.146000
v 9.893000 -10.387000 2.650000
v 9.893000 -10.387000 8.835000
v 10.393000 -10.387000 2.476000
v 10.393000 -10.387000 9.320000
v 10.893000 -10.387000 2.461000
v 10.893000 -10.387000 11.702000
v 11.393000 -10.387000 2.552000
v 11.393000 -10.387000 12.300000
v 11.893000 -10.387000 2.835000
v 11.893000 -10.387000 12.505000
v 12.393000 -10.387000 3.445000
v 12.393000 -10.387000 12.509000
v 12.893000 -10.387000 4.033000
v 12.893000 -10.387000 12.331000
v 13.393000 -10.387000 5.005000
v 13.393000 -10.387000 12.046000
v 8.393000 -14.616000 4.418000
v 8.393000 -13.662000 4.418000
v 8.393000 -10.148000 4.418000
v 8.393000 -9.155000 4.418000
v 8.893000 -15.268000 4.418000
v 8.893000 -8.523000 4.418000
v 9.393000 -15.489000 4.418000
v 9.393000 -8.309000 4.418000
v 9.893000 -15.507000 4.418000
v 9.893000 -8.265000 4.418000
v 10.393000 -15.330000 4.418000
v 10.393000 -8.255000 4.418000
v 10.893000 -14.822000 4.418000
v 10.893000 -8.271000 4.418000
v 11.393000 -13.396000 4.418000
v 11.393000 -8.400000 4.418000
v 11.893000 -12.781000 4.418000
v 11.893000 -8.468000 4.418000
v 12.393000 -12.068000 4.418000
v 12.393000 -8.713000 4.418000
v 12.893000 -11.302000 4.418000
v 12.893000 -9.539000 4.418000
v 9.893000 -11.240000 8.418000
v 9.893000 -9.206000 8.418000
v 10.393000 -12.068000 8.418000
v 10.393000 -8.313000 8.418000
v 10.893000 -12.406000 8.418000
v 10.893000 -8.039000 8.418000
v 11.393000 -12.551000 8.418000
v 11.393000 -8.022000 8.418000
v 11.893000 -12.532000 8.418000
v 11.893000 -8.208000 8.418000
v 12.393000 -12.312000 8.418000
v 12.393000 -8.487000 8.418000
v 12.893000 -11.687000 8.418000
v 12.893000 -8.825000 8.418000
v 13.393000 -10.690000 8.418000
v 13.393000 -9.551000 8.418000
v 11.893000 -10.667000 12.418000
v 11.893000 -9.573000 12.418000
v 12.393000 -10.677000 12.418000
v 12.393000 -9.133000 12.418000
v 12.893000 -10.142000 12.418000
v 12.893000 -9.132000 12.418000
v 9.047000 -13.887000 3.418000
v 10.633000 -13.887000 3.418000
v 8.516000 -13.887000 3.918000
v 11.029000 -13.887000 3.918000
v 8.331000 -13.887000 4.418000
v 11.137000 -13.887000 4.418000
v 8.342000 -13.887000 4.918000
v 11.222000 -13.887000 4.918000
v 8.556000 -13.887000 5.418000
v 11.165000 -13.887000 5.418000
v 9.185000 -13.887000 5.918000
v 10.827000 -13.887000 5.918000
v 9.533000 -9.887000 2.918000
v 11.369000 -9.887000 2.918000
v 8.940000 -9.887000 3.418000
v 12.133000 -9.887000 3.418000
v 8.535000 -9.887000 3.918000
v 12.580000 -9.887000 3.918000
v 8.320000 -9.887000 4.418000
v 12.978000 -9.887000 4.418000
v 8.307000 -9.887000 4.918000
v 13.362000 -9.887000 4.918000
v 8.490000 -9.887000 5.418000
v 13.548000 -9.887000 5.418000
v 8.708000 -9.887000 5.918000
v 13.546000 -9.887000 5.918000
v 8.746000 -9.887000 6.418000
v 13.525000 -9.887000 6.418000
v 8.750000 -9.887000 6.918000
v 13.527000 -9.887000 6.918000
v 8.948000 -9.887000 7.418000
v 13.551000 -9.887000 7.418000
v 9.283000 -9.887000 7.918000
v 13.548000 -9.887000 7.918000
v 9.519000 -9.887000 8.418000
v 13.484000 -9.887000 8.418000
v 10.056000 -9.887000 8.918000
v 13.558000 -9.887000 8.918000
v 10.712000 -9.887000 9.418000
v 13.783000 -9.887000 9.418000
v 10.927000 -9.887000 9.918000
v 13.981000 -9.887000 9.918000
v 10.911000 -9.887000 10.418000
v 14.009000 -9.887000 10.418000
v 10.794000 -9.887000 10.918000
v 14.015000 -9.887000 10.918000
v 10.798000 -9.887000 11.418000
v 13.990000 -9.887000 11.418000
v 11.003000 -9.887000 11.918000
v 13.775000 -9.887000 11.918000
v 11.594000 -9.887000 12.418000
v 13.142000 -9.887000 12.418000
v 8.393000 -13.887000 4.177000
v 8.393000 -13.887000 5.098000
v 8.893000 -13.887000 3.515000
v 8.893000 -13.887000 5.760000
v 9.393000 -13.887000 3.268000
v 9.393000 -13.887000 5.986000
v 9.893000 -13.887000 3.189000
v 9.893000 -13.887000 6.094000
v 10.393000 -13.887000 3.286000
v 10.393000 -13.887000 6.096000
v 10.893000 -13.887000 3.675000
v 10.893000 -13.887000 5.859000
v 8.393000 -9.887000 4.181000
v 8.393000 -9.887000 5.225000
v 8.893000 -9.887000 3.481000
v 8.893000 -9.887000 7.324000
v 9.393000 -9.887000 2.991000
v 9.393000 -9.887000 8.157000
v 9.893000 -9.887000 2.812000
v 9.893000 -9.887000 8.817000
v 10.393000 -9.887000 2.778000
v 10.393000 -9.887000 9.123000
v 10.893000 -9.887000 2.774000
v 10.893000 -9.887000 9.766000
v 10.893000 -9.887000 10.506000
v 10.893000 -9.887000 11.717000
v 11.393000 -9.887000 2.929000
v 11.393000 -9.887000 12.308000
v 11.893000 -9.887000 3.173000
v 11.893000 -9.887000 12.512000
v 12.393000 -9.887000 3.740000
v 12.393000 -9.887000 12.528000
v 12.893000 -9.887000 4.309000
v 12.893000 -9.887000 12.489000
v 13.393000 -9.887000 4.971000
v 13.393000 -9.887000 12.290000
v 13.893000 -9.887000 9.624000
v 13.893000 -9.887000 11.713000
v 8.393000 -14.583000 4.918000
v 8.393000 -13.696000 4.918000
v 8.393000 -10.182000 4.918000
v 8.393000 -9.121000 4.918000
v 8.893000 -15.255000 4.918000
v 8.893000 -8.507000 4.918000
v 9.393000 -15.478000 4.918000
v 9.393000 -8.296000 4.918000
v 9.893000 -15.496000 4.918000
v 9.893000 -8.258000 4.918000
v 10.393000 -15.317000 4.918000
v 10.393000 -8.251000 4.918000
v 10.893000 -14.799000 4.918000
v 10.893000 -8.247000 4.918000
v 11.393000 -13.595000 4.918000
v 11.393000 -8.258000 4.918000
v 11.893000 -13.101000 4.918000
v 11.893000 -8.284000 4.918000
v 12.393000 -12.382000 4.918000
v 12.393000 -8.409000 4.918000
v 12.893000 -11.709000 4.918000
v 12.893000 -8.627000 4.918000
v 10.393000 -11.546000 8.918000
v 10.393000 -9.458000 8.918000
v 10.893000 -12.096000 8.918000
v 10.893000 -8.618000 8.918000
v 11.393000 -12.326000 8.918000
v 11.393000 -8.403000 8.918000
v 11.893000 -12.314000 8.918000
v 11.893000 -8.392000 8.918000
v 12.393000 -12.052000 8.918000
v 12.393000 -8.528000 8.918000
v 12.893000 -11.322000 8.918000
v 12.893000 -8.741000 8.918000
v 13.393000 -10.638000 8.918000
v 13.393000 -9.260000 8.918000
v 9.079000 -13.387000 3.418000
v 11.129000 -13.387000 3.418000
v 8.699000 -13.387000 3.918000
v 11.350000 -13.387000 3.918000
v 8.526000 -13.387000 4.418000
v 11.399000 -13.387000 4.418000
v 8.540000 -13.387000 4.918000
v 11.563000 -13.387000 4.918000
v 8.780000 -13.387000 5.418000
v 11.794000 -13.387000 5.418000
v 9.435000 -13.387000 5.918000
v 11.777000 -13.387000 5.918000
v 10.231000 -13.387000 6.418000
v 11.667000 -13.387000 6.418000
v 9.109000 -9.387000 3.418000
v 11.618000 -9.387000 3.418000
v 8.541000 -9.387000 3.918000
v 12.294000 -9.387000 3.918000
v 8.325000 -9.387000 4.418000
v 12.857000 -9.387000 4.418000
v 8.312000 -9.387000 4.918000
v 13.367000 -9.387000 4.918000
v 8.496000 -9.387000 5.418000
v 13.556000 -9.387000 5.418000
v 8.710000 -9.387000 5.918000
v 13.551000 -9.387000 5.918000
v 8.746000 -9.387000 6.418000
v 13.517000 -9.387000 6.418000
v 8.749000 -9.387000 6.918000
v 13.495000 -9.387000 6.918000
v 8.948000 -9.387000 7.418000
v 13.474000 -9.387000 7.418000
v 9.401000 -9.387000 7.918000
v 13.359000 -9.387000 7.918000
v 9.752000 -9.387000 8.418000
v 13.312000 -9.387000 8.418000
v 10.452000 -9.387000 8.918000
v 13.456000 -9.387000 8.918000
v 11.038000 -9.387000 9.418000
v 13.782000 -9.387000 9.418000
v 11.194000 -9.387000 9.918000
v 13.980000 -9.387000 9.918000
v 11.141000 -9.387000 10.418000
v 14.003000 -9.387000 10.418000
v 10.985000 -9.387000 10.918000
v 14.012000 -9.387000 10.918000
v 10.990000 -9.387000 11.418000
v 13.992000 -9.387000 11.418000
v 11.236000 -9.387000 11.918000
v 13.777000 -9.387000 11.918000
v 12.131000 -9.387000 12.418000
v 13.146000 -9.387000 12.418000
v 8.893000 -13.387000 3.621000
v 8.893000 -13.387000 5.545000
v 9.393000 -13.387000 3.179000
v 9.393000 -13.387000 5.891000
v 9.893000 -13.387000 2.973000
v 9.893000 -13.387000 6.221000
v 10.393000 -13.387000 2.960000
v 10.393000 -13.387000 6.502000
v 10.893000 -13.387000 3.180000
v 10.893000 -13.387000 6.709000
v 11.393000 -13.387000 4.376000
v 11.393000 -13.387000 6.684000
v 8.393000 -9.387000 4.195000
v 8.393000 -9.387000 5.211000
v 8.893000 -9.387000 3.569000
v 8.893000 -9.387000 7.325000
v 9.393000 -9.387000 3.204000
v 9.393000 -9.387000 7.909000
v 9.893000 -9.387000 2.994000
v 9.893000 -9.387000 8.571000
v 10.393000 -9.387000 2.989000
v 10.393000 -9.387000 8.886000
v 10.893000 -9.387000 2.986000
v 10.893000 -9.387000 9.230000
v 11.393000 -9.387000 3.201000
v 11.393000 -9.387000 12.074000
v 11.893000 -9.387000 3.665000
v 11.893000 -9.387000 12.335000
v 12.393000 -9.387000 3.988000
v 12.393000 -9.387000 12.490000
v 12.893000 -9.387000 4.447000
v 12.893000 -9.387000 12.490000
v 13.393000 -9.387000 4.961000
v 13.393000 -9.387000 7.790000
v 13.393000 -9.387000 8.773000
v 13.393000 -9.387000 12.291000
v 13.893000 -9.387000 9.627000
v 13.893000 -9.387000 11.717000
v 8.893000 -14.984000 5.418000
v 8.893000 -13.046000 5.418000
v 8.893000 -11.390000 5.418000
v 8.893000 -8.726000 5.418000
v 9.393000 -15.262000 5.418000
v 9.393000 -8.451000 5.418000
v 9.893000 -15.283000 5.418000
v 9.893000 -8.367000 5.418000
v 10.393000 -15.065000 5.418000
v 10.393000 -8.257000 5.418000
v 10.893000 -14.286000 5.418000
v 10.893000 -8.231000 5.418000
v 11.393000 -13.668000 5.418000
v 11.393000 -8.191000 5.418000
v 11.893000 -13.326000 5.418000
v 11.893000 -8.213000 5.418000
v 12.393000 -12.730000 5.418000
v 12.393000 -8.227000 5.418000
v 12.893000 -11.737000 5.418000
v 12.893000 -8.403000 5.418000
v 13.393000 -10.783000 5.418000
v 13.393000 -8.912000 5.418000
v 10.893000 -11.444000 9.418000
v 10.893000 -9.652000 9.418000
v 11.393000 -11.794000 9.418000
v 11.393000 -8.725000 9.418000
v 11.893000 -11.826000 9.418000
v 11.893000 -8.474000 9.418000
v 12.393000 -11.550000 9.418000
v 12.393000 -8.417000 9.418000
v 12.893000 -11.107000 9.418000
v 12.893000 -8.483000 9.418000
v 13.393000 -10.664000 9.418000
v 13.393000 -8.739000 9.418000
v 9.504000 -12.887000 2.918000
v 11.292000 -12.887000 2.918000
v 8.992000 -12.887000 3.418000
v 11.470000 -12.887000 3.418000
v 8.786000 -12.887000 3.918000
v 11.619000 -12.887000 3.918000
v 8.706000 -12.887000 4.418000
v 11.832000 -12.887000 4.418000
v 8.710000 -12.887000 4.918000
v 12.090000 -12.887000 4.918000
v 8.912000 -12.887000 5.418000
v 12.311000 -12.887000 5.418000
v 9.443000 -12.887000 5.918000
v 12.306000 -12.887000 5.918000
v 9.887000 -12.887000 6.418000
v 12.273000 -12.887000 6.418000
v 10.233000 -12.887000 6.918000
v 12.257000 -12.887000 6.918000
v 10.551000 -12.887000 7.418000
v 12.226000 -12.887000 7.418000
v 8.799000 -8.887000 3.918000
v 11.684000 -8.887000 3.918000
v 8.532000 -8.887000 4.418000
v 12.573000 -8.887000 4.418000
v 8.517000 -8.887000 4.918000
v 13.154000 -8.887000 4.918000
v 8.738000 -8.887000 5.418000
v 13.378000 -8.887000 5.418000
v 8.950000 -8.887000 5.918000
v 13.370000 -8.887000 5.918000
v 8.948000 -8.887000 6.418000
v 13.328000 -8.887000 6.418000
v 8.948000 -8.887000 6.918000
v 13.317000 -8.887000 6.918000
v 9.188000 -8.887000 7.418000
v 13.292000 -8.887000 7.418000
v 9.721000 -8.887000 7.918000
v 13.096000 -8.887000 7.918000
v 10.054000 -8.887000 8.418000
v 12.969000 -8.887000 8.418000
v 10.670000 -8.887000 8.918000
v 13.116000 -8.887000 8.918000
v 11.239000 -8.887000 9.418000
v 13.538000 -8.887000 9.418000
v 11.421000 -8.887000 9.918000
v 13.780000 -8.887000 9.918000
v 11.466000 -8.887000 10.418000
v 13.799000 -8.887000 10.418000
v 11.458000 -8.887000 10.918000
v 13.812000 -8.887000 10.918000
v 11.474000 -8.887000 11.418000
v 13.793000 -8.887000 11.418000
v 11.754000 -8.887000 11.918000
v 13.532000 -8.887000 11.918000
v 8.893000 -12.887000 3.610000
v 8.893000 -12.887000 5.387000
v 9.393000 -12.887000 2.997000
v 9.393000 -12.887000 5.881000
v 9.893000 -12.887000 2.683000
v 9.893000 -12.887000 6.427000
v 10.393000 -12.887000 2.499000
v 10.393000 -12.887000 7.155000
v 10.893000 -12.887000 2.534000
v 10.893000 -12.887000 7.780000
v 11.393000 -12.887000 3.144000
v 11.393000 -12.887000 7.831000
v 11.893000 -12.887000 4.589000
v 11.893000 -12.887000 7.774000
v 8.893000 -8.887000 3.825000
v 8.893000 -8.887000 5.715000
v 9.393000 -8.887000 3.564000
v 9.393000 -8.887000 7.615000
v 9.893000 -8.887000 3.478000
v 9.893000 -8.887000 8.152000
v 10.393000 -8.887000 3.466000
v 10.393000 -8.887000 8.752000
v 10.893000 -8.887000 3.481000
v 10.893000 -8.887000 9.065000
v 11.393000 -8.887000 3.757000
v 11.393000 -8.887000 9.775000
v 11.893000 -8.887000 3.984000
v 11.893000 -8.887000 12.051000
v 12.393000 -8.887000 4.236000
v 12.393000 -8.887000 12.293000
v 12.893000 -8.887000 4.665000
v 12.893000 -8.887000 12.293000
v 13.393000 -8.887000 9.262000
v 13.393000 -8.887000 12.052000
v 10.393000 -12.227000 1.918000
v 10.393000 -11.127000 1.918000
v 10.893000 -12.208000 1.918000
v 10.893000 -11.147000 1.918000
v 8.893000 -10.549000 5.918000
v 8.893000 -8.965000 5.918000
v 9.393000 -14.619000 5.918000
v 9.393000 -13.498000 5.918000
v 9.393000 -12.610000 5.918000
v 9.393000 -8.532000 5.918000
v 9.893000 -14.667000 5.918000
v 9.893000 -8.390000 5.918000
v 10.393000 -14.211000 5.918000
v 10.393000 -8.256000 5.918000
v 10.893000 -13.845000 5.918000
v 10.893000 -8.114000 5.918000
v 11.393000 -13.558000 5.918000
v 11.393000 -7.987000 5.918000
v 11.893000 -13.318000 5.918000
v 11.893000 -8.005000 5.918000
v 12.393000 -12.721000 5.918000
v 12.393000 -8.161000 5.918000
v 12.893000 -11.727000 5.918000
v 12.893000 -8.411000 5.918000
v 13.393000 -10.840000 5.918000
v 13.393000 -8.925000 5.918000
v 10.893000 -10.862000 9.918000
v 10.893000 -9.966000 9.918000
v 11.393000 -11.377000 9.918000
v 11.393000 -8.931000 9.918000
v 11.893000 -11.493000 9.918000
v 11.893000 -8.467000 9.918000
v 12.393000 -11.350000 9.918000
v 12.393000 -8.282000 9.918000
v 12.893000 -11.040000 9.918000
v 12.893000 -8.288000 9.918000
v 13.393000 -10.785000 9.918000
v 13.393000 -8.495000 9.918000
v 13.893000 -10.183000 9.918000
v 13.893000 -9.098000 9.918000
v 9.690000 -12.387000 2.418000
v 11.553000 -12.387000 2.418000
v 9.336000 -12.387000 2.918000
v 11.798000 -12.387000 2.918000
v 8.970000 -12.387000 3.418000
v 11.843000 -12.387000 3.418000
v 8.754000 -12.387000 3.918000
v 11.951000 -12.387000 3.918000
v 8.725000 -12.387000 4.418000
v 12.103000 -12.387000 4.418000
v 8.741000 -12.387000 4.918000
v 12.389000 -12.387000 4.918000
v 8.937000 -12.387000 5.418000
v 12.521000 -12.387000 5.418000
v 9.391000 -12.387000 5.918000
v 12.516000 -12.387000 5.918000
v 9.741000 -12.387000 6.418000
v 12.591000 -12.387000 6.418000
v 9.923000 -12.387000 6.918000
v 12.769000 -12.387000 6.918000
v 10.015000 -12.387000 7.418000
v 12.767000 -12.387000 7.418000
v 10.252000 -12.387000 7.918000
v 12.543000 -12.387000 7.918000
v 10.858000 -12.387000 8.418000
v 12.272000 -12.387000 8.418000
v 9.141000 -8.387000 4.418000
v 11.329000 -8.387000 4.418000
v 9.109000 -8.387000 4.918000
v 12.312000 -8.387000 4.918000
v 9.785000 -8.387000 5.418000
v 12.864000 -8.387000 5.418000
v 9.904000 -8.387000 5.918000
v 12.851000 -8.387000 5.918000
v 9.523000 -8.387000 6.418000
v 12.811000 -8.387000 6.418000
v 9.521000 -8.387000 6.918000
v 12.848000 -8.387000 6.918000
v 9.856000 -8.387000 7.418000
v 12.815000 -8.387000 7.418000
v 10.047000 -8.387000 7.918000
v 12.561000 -8.387000 7.918000
v 10.320000 -8.387000 8.418000
v 12.191000 -8.387000 8.418000
v 12.052000 -8.387000 9.918000
v 13.198000 -8.387000 9.918000
v 12.048000 -8.387000 10.418000
v 13.218000 -8.387000 10.418000
v 12.041000 -8.387000 10.918000
v 13.246000 -8.387000 10.918000
v 12.071000 -8.387000 11.418000
v 13.215000 -8.387000 11.418000
v 8.893000 -12.387000 3.547000
v 8.893000 -12.387000 5.343000
v 9.393000 -12.387000 2.835000
v 9.393000 -12.387000 5.920000
v 9.893000 -12.387000 2.223000
v 9.893000 -12.387000 6.823000
v 10.393000 -12.387000 2.000000
v 10.393000 -12.387000 8.065000
v 10.893000 -12.387000 2.009000
v 10.893000 -12.387000 8.447000
v 11.393000 -12.387000 2.257000
v 11.393000 -12.387000 8.818000
v 11.893000 -12.387000 3.701000
v 11.893000 -12.387000 8.798000
v 12.393000 -12.387000 4.926000
v 12.393000 -12.387000 8.185000
v 9.393000 -8.387000 4.171000
v 9.393000 -8.387000 5.236000
v 9.893000 -8.387000 4.064000
v 9.893000 -8.387000 5.535000
v 9.893000 -8.387000 5.938000
v 9.893000 -8.387000 7.496000
v 10.393000 -8.387000 4.039000
v 10.393000 -8.387000 8.490000
v 10.893000 -8.387000 4.071000
v 10.893000 -8.387000 8.761000
v 11.393000 -8.387000 4.451000
v 11.393000 -8.387000 8.897000
v 11.893000 -8.387000 4.572000
v 11.893000 -8.387000 8.899000
v 12.393000 -8.387000 4.962000
v 12.393000 -8.387000 8.168000
v 12.393000 -8.387000 9.529000
v 12.393000 -8.387000 11.722000
v 12.893000 -8.387000 9.603000
v 12.893000 -8.387000 11.722000
v 9.893000 -12.595000 2.418000
v 9.893000 -10.745000 2.418000
v 10.393000 -12.827000 2.418000
v 10.393000 -10.469000 2.418000
v 10.893000 -12.817000 2.418000
v 10.893000 -10.455000 2.418000
v 11.393000 -12.559000 2.418000
v 11.393000 -10.617000 2.418000
v 8.893000 -10.328000 6.418000
v 8.893000 -8.979000 6.418000
v 9.393000 -11.339000 6.418000
v 9.393000 -8.457000 6.418000
v 9.893000 -12.903000 6.418000
v 9.893000 -8.275000 6.418000
v 10.393000 -13.473000 6.418000
v 10.393000 -8.178000 6.418000
v 10.893000 -13.541000 6.418000
v 10.893000 -7.970000 6.418000
v 11.393000 -13.474000 6.418000
v 11.393000 -7.808000 6.418000
v 11.893000 -13.261000 6.418000
v 11.893000 -7.825000 6.418000
v 12.393000 -12.725000 6.418000
v 12.393000 -8.044000 6.418000
v 12.893000 -11.869000 6.418000
v 12.893000 -8.440000 6.418000
v 13.393000 -11.183000 6.418000
v 13.393000 -9.003000 6.418000
v 10.893000 -10.512000 10.418000
v 10.893000 -9.957000 10.418000
v 11.393000 -11.229000 10.418000
v 11.393000 -8.989000 10.418000
v 11.893000 -11.415000 10.418000
v 11.893000 -8.472000 10.418000
v 12.393000 -11.366000 10.418000
v 12.393000 -8.279000 10.418000
v 12.893000 -11.106000 10.418000
v 12.893000 -8.283000 10.418000
v 13.393000 -10.822000 10.418000
v 13.393000 -8.484000 10.418000
v 13.893000 -10.255000 10.418000
v 13.893000 -9.053000 10.418000
v 10.064000 -11.887000 1.918000
v 11.179000 -11.887000 1.918000
v 9.469000 -11.887000 2.418000
v 11.774000 -11.887000 2.418000
v 9.245000 -11.887000 2.918000
v 12.059000 -11.887000 2.918000
v 8.930000 -11.887000 3.418000
v 12.279000 -11.887000 3.418000
v 8.734000 -11.887000 3.918000
v 12.372000 -11.887000 3.918000
v 8.721000 -11.887000 4.418000
v 12.551000 -11.887000 4.418000
v 8.749000 -11.887000 4.918000
v 12.796000 -11.887000 4.918000
v 8.944000 -11.887000 5.418000
v 12.810000 -11.887000 5.418000
v 9.344000 -11.887000 5.918000
v 12.794000 -11.887000 5.918000
v 9.619000 -11.887000 6.418000
v 12.879000 -11.887000 6.418000
v 9.724000 -11.887000 6.918000
v 13.005000 -11.887000 6.918000
v 9.796000 -11.887000 7.418000
v 12.999000 -11.887000 7.418000
v 9.959000 -11.887000 7.918000
v 12.850000 -11.887000 7.918000
v 10.212000 -11.887000 8.418000
v 12.793000 -11.887000 8.418000
v 10.687000 -11.887000 8.918000
v 12.545000 -11.887000 8.918000
v 11.095000 -7.887000 6.418000
v 12.099000 -7.887000 6.418000
v 10.653000 -7.887000 6.918000
v 12.217000 -7.887000 6.918000
v 10.614000 -7.887000 7.418000
v 12.193000 -7.887000 7.418000
v 10.669000 -7.887000 7.918000
v 11.692000 -7.887000 7.918000
v 8.893000 -11.887000 3.481000
v 8.893000 -11.887000 5.329000
v 9.393000 -11.887000 2.548000
v 9.393000 -11.887000 5.985000
v 9.893000 -11.887000 2.008000
v 9.893000 -11.887000 7.708000
v 10.393000 -11.887000 1.820000
v 10.393000 -11.887000 8.595000
v 10.893000 -11.887000 1.828000
v 10.893000 -11.887000 9.113000
v 11.393000 -11.887000 2.035000
v 11.393000 -11.887000 9.344000
v 11.893000 -11.887000 2.624000
v 11.893000 -11.887000 9.356000
v 12.393000 -11.887000 4.019000
v 12.393000 -11.887000 9.073000
v 12.893000 -11.887000 6.459000
v 12.893000 -11.887000 7.741000
v 10.893000 -7.887000 6.666000
v 10.893000 -7.887000 8.140000
v 11.393000 -7.887000 6.123000
v 11.393000 -7.887000 8.175000
v 11.893000 -7.887000 6.170000
v 11.893000 -7.887000 7.708000
v 9.393000 -12.605000 2.918000
v 9.393000 -10.751000 2.918000
v 9.893000 -13.289000 2.918000
v 9.893000 -9.533000 2.918000
v 10.393000 -13.325000 2.918000
v 10.393000 -9.517000 2.918000
v 10.893000 -13.133000 2.918000
v 10.893000 -9.510000 2.918000
v 11.393000 -12.816000 2.918000
v 11.393000 -9.906000 2.918000
v 11.893000 -12.208000 2.918000
v 11.893000 -10.287000 2.918000
v 8.893000 -10.290000 6.918000
v 8.893000 -8.980000 6.918000
v 9.393000 -11.273000 6.918000
v 9.393000 -8.456000 6.918000
v 9.893000 -12.325000 6.918000
v 9.893000 -8.259000 6.918000
v 10.393000 -13.034000 6.918000
v 10.393000 -8.021000 6.918000
v 10.893000 -13.265000 6.918000
v 10.893000 -7.818000 6.918000
v 11.393000 -13.257000 6.918000
v 11.393000 -7.785000 6.918000
v 11.893000 -13.092000 6.918000
v 11.893000 -7.787000 6.918000
v 12.393000 -12.790000 6.918000
v 12.393000 -7.981000 6.918000
v 12.893000 -12.133000 6.918000
v 12.893000 -8.428000 6.918000
v 13.393000 -11.337000 6.918000
v 13.393000 -9.034000 6.918000
v 10.893000 -10.679000 10.918000
v 10.893000 -9.561000 10.918000
v 11.393000 -11.270000 10.918000
v 11.393000 -8.952000 10.918000
v 11.893000 -11.475000 10.918000
v 11.893000 -8.470000 10.918000
v 12.393000 -11.479000 10.918000
v 12.393000 -8.272000 10.918000
v 12.893000 -11.285000 10.918000
v 12.893000 -8.272000 10.918000
v 13.393000 -10.840000 10.918000
v 13.393000 -8.469000 10.918000
v 13.893000 -10.263000 10.918000
v 13.893000 -9.029000 10.918000
v 9.095000 -15.387000 4.418000
v 10.286000 -15.387000 4.418000
v 9.121000 -15.387000 4.918000
v 10.259000 -15.387000 4.918000
v 10.101000 -11.387000 1.918000
v 11.142000 -11.387000 1.918000
v 9.487000 -11.387000 2.418000
v 11.790000 -11.387000 2.418000
v 9.258000 -11.387000 2.918000
v 12.261000 -11.387000 2.918000
v 8.935000 -11.387000 3.418000
v 12.459000 -11.387000 3.418000
v 8.744000 -11.387000 3.918000
v 12.630000 -11.387000 3.918000
v 8.742000 -11.387000 4.418000
v 12.849000 -11.387000 4.418000
v 8.770000 -11.387000 4.918000
v 12.992000 -11.387000 4.918000
v 8.892000 -11.387000 5.418000
v 13.033000 -11.387000 5.418000
v 9.181000 -11.387000 5.918000
v 13.105000 -11.387000 5.918000
v 9.417000 -11.387000 6.418000
v 13.292000 -11.387000 6.418000
v 9.449000 -11.387000 6.918000
v 13.364000 -11.387000 6.918000
v 9.469000 -11.387000 7.418000
v 13.353000 -11.387000 7.418000
v 9.703000 -11.387000 7.918000
v 13.138000 -11.387000 7.918000
v 9.950000 -11.387000 8.418000
v 12.998000 -11.387000 8.418000
v 10.236000 -11.387000 8.918000
v 12.845000 -11.387000 8.918000
v 10.839000 -11.387000 9.418000
v 12.575000 -11.387000 9.418000
v 11.415000 -11.387000 9.918000
v 12.319000 -11.387000 9.918000
v 11.752000 -11.387000 10.418000
v 12.319000 -11.387000 10.418000
v 11.608000 -11.387000 10.918000
v 12.699000 -11.387000 10.918000
v 11.619000 -11.387000 11.418000
v 12.688000 -11.387000 11.418000
v 9.393000 -15.387000 4.077000
v 9.393000 -15.387000 5.198000
v 9.893000 -15.387000 4.035000
v 9.893000 -15.387000 5.239000
v 8.893000 -11.387000 3.491000
v 8.893000 -11.387000 5.420000
v 9.393000 -11.387000 2.581000
v 9.393000 -11.387000 6.332000
v 9.893000 -11.387000 2.026000
v 9.893000 -11.387000 8.285000
v 10.393000 -11.387000 1.835000
v 10.393000 -11.387000 9.069000
v 10.893000 -11.387000 1.843000
v 10.893000 -11.387000 9.473000
v 11.393000 -11.387000 2.053000
v 11.393000 -11.387000 9.899000
v 11.893000 -11.387000 2.516000
v 11.893000 -11.387000 11.691000
v 12.393000 -11.387000 3.182000
v 12.393000 -11.387000 9.758000
v 12.393000 -11.387000 10.528000
v 12.393000 -11.387000 11.701000
v 12.893000 -11.387000 4.557000
v 12.893000 -11.387000 8.822000
v 9.393000 -14.760000 3.418000
v 9.393000 -9.103000 3.418000
v 9.893000 -14.797000 3.418000
v 9.893000 -8.939000 3.418000
v 10.393000 -14.236000 3.418000
v 10.393000 -8.933000 3.418000
v 10.893000 -13.629000 3.418000
v 10.893000 -8.943000 3.418000
v 11.393000 -13.002000 3.418000
v 11.393000 -9.168000 3.418000
v 11.893000 -12.334000 3.418000
v 11.893000 -9.649000 3.418000
v 12.393000 -11.645000 3.418000
v 12.393000 -10.462000 3.418000
v 9.393000 -11.238000 7.418000
v 9.393000 -8.690000 7.418000
v 9.893000 -12.135000 7.418000
v 9.893000 -8.362000 7.418000
v 10.393000 -12.789000 7.418000
v 10.393000 -8.008000 7.418000
v 10.893000 -13.014000 7.418000
v 10.893000 -7.799000 7.418000
v 11.393000 -13.036000 7.418000
v 11.393000 -7.771000 7.418000
v 11.893000 -13.007000 7.418000
v 11.893000 -7.797000 7.418000
v 12.393000 -12.786000 7.418000
v 12.393000 -7.993000 7.418000
v 12.893000 -12.127000 7.418000
v 12.893000 -8.459000 7.418000
v 13.393000 -11.317000 7.418000
v 13.393000 -9.090000 7.418000
v 10.893000 -10.668000 11.418000
v 10.893000 -9.572000 11.418000
v 11.393000 -11.265000 11.418000
v 11.393000 -8.965000 11.418000
v 11.893000 -11.470000 11.418000
v 11.893000 -8.486000 11.418000
v 12.393000 -11.474000 11.418000
v 12.393000 -8.285000 11.418000
v 12.893000 -11.280000 11.418000
v 12.893000 -8.285000 11.418000
v 13.393000 -10.797000 11.418000
v 13.393000 -8.485000 11.418000
v 13.893000 -10.198000 11.418000
v 13.893000 -9.069000 11.418000
v 8.750000 -14.887000 3.918000
v 10.630000 -14.887000 3.918000
v 8.527000 -14.887000 4.418000
v 10.853000 -14.887000 4.418000
v 8.541000 -14.887000 4.918000
v 10.840000 -14.887000 4.918000
v 8.801000 -14.887000 5.418000
v 10.580000 -14.887000 5.418000
v 9.755000 -10.887000 2.418000
v 11.662000 -10.887000 2.418000
v 9.360000 -10.887000 2.918000
v 12.241000 -10.887000 2.918000
v 8.985000 -10.887000 3.418000
v 12.490000 -10.887000 3.418000
v 8.775000 -10.887000 3.918000
v 12.832000 -10.887000 3.918000
v 8.702000 -10.887000 4.418000
v 13.034000 -10.887000 4.418000
v 8.725000 -10.887000 4.918000
v 13.159000 -10.887000 4.918000
v 8.773000 -10.887000 5.418000
v 13.333000 -10.887000 5.418000
v 8.964000 -10.887000 5.918000
v 13.373000 -10.887000 5.918000
v 9.193000 -10.887000 6.418000
v 13.472000 -10.887000 6.418000
v 9.246000 -10.887000 6.918000
v 13.541000 -10.887000 6.918000
v 9.291000 -10.887000 7.418000
v 13.532000 -10.887000 7.418000
v 9.482000 -10.887000 7.918000
v 13.382000 -10.887000 7.918000
v 9.736000 -10.887000 8.418000
v 13.289000 -10.887000 8.418000
v 9.999000 -10.887000 8.918000
v 13.251000 -10.887000 8.918000
v 10.528000 -10.887000 9.418000
v 13.164000 -10.887000 9.418000
v 10.904000 -10.887000 9.918000
v 13.216000 -10.887000 9.918000
v 11.050000 -10.887000 10.418000
v 13.280000 -10.887000 10.418000
v 11.007000 -10.887000 10.918000
v 13.342000 -10.887000 10.918000
v 11.012000 -10.887000 11.418000
v 13.305000 -10.887000 11.418000
v 11.265000 -10.887000 11.918000
v 13.043000 -10.887000 11.918000
v 8.893000 -14.887000 3.763000
v 8.893000 -14.887000 5.511000
v 9.393000 -14.887000 3.492000
v 9.393000 -14.887000 5.783000
v 9.893000 -14.887000 3.471000
v 9.893000 -14.887000 5.803000
v 10.393000 -14.887000 3.684000
v 10.393000 -14.887000 5.590000
v 8.893000 -10.887000 3.577000
v 8.893000 -10.887000 5.778000
v 9.393000 -10.887000 2.875000
v 9.393000 -10.887000 7.723000
v 9.893000 -10.887000 2.288000
v 9.893000 -10.887000 8.733000
v 10.393000 -10.887000 2.052000
v 10.393000 -10.887000 9.306000
v 10.893000 -10.887000 2.062000
v 10.893000 -10.887000 9.896000
v 11.393000 -10.887000 2.283000
v 11.393000 -10.887000 12.046000
v 11.893000 -10.887000 2.553000
v 11.893000 -10.887000 12.298000
v 12.393000 -10.887000 3.222000
v 12.393000 -10.887000 12.303000
v 12.893000 -10.887000 4.020000
v 12.893000 -10.887000 12.065000
v 13.393000 -10.887000 6.048000
v 13.393000 -10.887000 7.880000
v 8.893000 -15.037000 3.918000
v 8.893000 -8.792000 3.918000
v 9.393000 -15.303000 3.918000
v 9.393000 -8.526000 3.918000
v 9.893000 -15.323000 3.918000
v 9.893000 -8.472000 3.918000
v 10.393000 -15.114000 3.918000
v 10.393000 -8.458000 3.918000
v 10.893000 -14.262000 3.918000
v 10.893000 -8.474000 3.918000
v 11.393000 -13.313000 3.918000
v 11.393000 -8.714000 3.918000
v 11.893000 -12.469000 3.918000
v 11.893000 -8.984000 3.918000
v 12.393000 -11.852000 3.918000
v 12.393000 -9.590000 3.918000
v 9.393000 -10.610000 7.918000
v 9.393000 -9.404000 7.918000
v 9.893000 -11.755000 7.918000
v 9.893000 -8.608000 7.918000
v 10.393000 -12.539000 7.918000
v 10.393000 -8.037000 7.918000
v 10.893000 -12.808000 7.918000
v 10.893000 -7.818000 7.918000
v 11.393000 -12.835000 7.918000
v 11.393000 -7.805000 7.918000
v 11.893000 -12.804000 7.918000
v 11.893000 -7.970000 7.918000
v 12.393000 -12.536000 7.918000
v 12.393000 -8.241000 7.918000
v 12.893000 -11.805000 7.918000
v 12.893000 -8.683000 7.918000
v 13.393000 -10.857000 7.918000
v 13.393000 -9.451000 7.918000
v 11.393000 -11.014000 11.918000
v 11.393000 -9.226000 11.918000
v 11.893000 -11.265000 11.918000
v 11.893000 -8.748000 11.918000
v 12.393000 -11.270000 11.918000
v 12.393000 -8.500000 11.918000
v 12.893000 -11.033000 11.918000
v 12.893000 -8.500000 11.918000
v 13.393000 -10.519000 11.918000
v 13.393000 -8.747000 11.918000
f 219 7 85
f 85 7 5
f 7 133 5
f 135 133 7
f 135 220 133
f 133 220 86
f 221 149 87
f 87 149 147
f 149 273 147
f 275 273 149
f 275 222 273
f 273 222 88
f 223 863 89
f 89 863 861
f 85 861 863
f 85 863 219
f 259 86 220
f 259 220 261
f 261 385 259
f 387 385 261
f 387 515 385
f 517 515 387
f 517 647 515
f 649 647 517
f 649 759 647
f 761 759 649
f 761 875 759
f 877 875 761
f 877 19 875
f 21 19 877
f 87 19 21
f 87 21 221
f 401 88 222
f 401 222 403
f 403 224 401
f 401 224 90
f 225 747 91
f 91 747 745
f 89 745 747
f 89 747 223
f 533 90 224
f 533 224 535
f 535 226 533
f 533 226 92
f 227 91 93
f 227 225 91
f 92 228 94
f 226 228 92
f 93 746 227
f 227 746 748
f 229 748 746
f 229 746 95
f 94 230 96
f 228 230 94
f 95 862 229
f 229 862 864
f 231 864 862
f 231 862 97
f 96 232 98
f 230 232 96
f 97 6 231
f 231 6 8
f 134 8 6
f 134 136 8
f 233 136 134
f 233 134 99
f 534 585 100
f 534 98 585
f 98 234 585
f 98 232 234
f 99 260 233
f 233 260 262
f 386 445 235
f 262 386 235
f 260 386 262
f 101 445 386
f 587 102 100
f 587 100 585
f 585 234 587
f 587 234 236
f 445 388 235
f 101 516 445
f 516 388 445
f 516 518 388
f 237 518 516
f 237 516 103
f 102 587 536
f 238 102 536
f 104 102 238
f 587 236 536
f 103 648 237
f 237 648 650
f 760 811 239
f 650 760 239
f 648 760 650
f 105 811 760
f 274 337 106
f 402 463 337
f 402 337 274
f 402 104 463
f 104 240 463
f 104 238 240
f 811 762 239
f 105 876 811
f 876 762 811
f 876 878 762
f 20 878 876
f 20 22 878
f 148 22 20
f 148 150 22
f 337 276 106
f 276 148 106
f 276 150 148
f 276 337 404
f 404 337 463
f 463 240 404
f 920 891 107
f 70 35 920
f 920 35 891
f 200 163 70
f 70 163 35
f 326 289 200
f 200 289 163
f 326 108 289
f 682 663 109
f 241 777 682
f 777 663 682
f 777 775 663
f 893 920 107
f 775 893 107
f 777 893 775
f 920 893 37
f 920 37 70
f 70 37 165
f 70 165 200
f 200 165 242
f 328 200 242
f 326 200 328
f 108 326 417
f 326 454 417
f 326 328 454
f 582 549 454
f 454 549 417
f 582 110 549
f 568 531 111
f 665 682 109
f 665 109 531
f 243 665 531
f 568 243 531
f 241 682 665
f 291 328 242
f 328 291 419
f 328 419 454
f 454 419 244
f 584 454 244
f 582 454 584
f 110 582 112
f 112 582 584
f 113 570 111
f 111 570 568
f 243 568 570
f 243 570 245
f 246 586 584
f 246 584 244
f 112 584 114
f 114 584 586
f 115 572 113
f 113 572 570
f 245 570 572
f 245 572 247
f 248 588 586
f 248 586 246
f 114 586 116
f 116 586 588
f 532 572 115
f 247 572 532
f 117 247 532
f 249 247 117
f 118 550 588
f 248 118 588
f 250 118 248
f 116 588 550
f 117 664 249
f 249 664 666
f 664 119 812
f 778 664 812
f 666 664 778
f 251 778 812
f 118 252 120
f 250 252 118
f 776 812 119
f 812 776 251
f 776 894 251
f 776 892 894
f 253 894 892
f 253 892 121
f 290 341 122
f 420 254 341
f 290 420 341
f 418 420 290
f 418 120 420
f 420 120 252
f 121 36 253
f 253 36 38
f 164 38 36
f 164 166 38
f 341 292 122
f 292 164 122
f 292 166 164
f 341 254 292
f 78 51 123
f 210 179 78
f 78 179 51
f 210 124 179
f 125 80 123
f 123 80 78
f 212 78 80
f 210 78 212
f 124 210 305
f 210 336 305
f 210 212 336
f 336 126 305
f 52 80 125
f 127 214 52
f 214 80 52
f 214 212 80
f 338 212 214
f 336 212 338
f 126 336 128
f 128 336 338
f 180 214 127
f 306 338 180
f 180 338 214
f 128 338 306
f 54 7 219
f 182 135 54
f 54 135 7
f 182 220 135
f 194 149 221
f 320 275 194
f 194 275 149
f 320 222 275
f 345 865 223
f 223 865 863
f 9 54 219
f 863 9 219
f 865 9 863
f 54 9 137
f 54 137 182
f 261 220 182
f 137 261 182
f 263 261 137
f 434 387 346
f 387 263 346
f 387 261 263
f 560 517 434
f 434 517 387
f 676 649 560
f 560 649 517
f 347 763 676
f 763 649 676
f 763 761 649
f 763 877 761
f 879 877 763
f 879 21 877
f 23 21 879
f 151 194 221
f 21 151 221
f 23 151 21
f 194 151 277
f 194 277 320
f 403 222 320
f 277 403 320
f 405 403 277
f 405 348 403
f 403 348 224
f 790 747 225
f 223 747 790
f 349 223 790
f 345 223 349
f 389 434 346
f 434 389 519
f 434 519 560
f 560 519 651
f 560 651 676
f 347 676 651
f 350 576 535
f 224 350 535
f 348 350 224
f 576 226 535
f 227 792 225
f 225 792 790
f 349 790 792
f 349 792 351
f 537 576 350
f 537 352 576
f 352 226 576
f 352 228 226
f 748 792 227
f 351 792 748
f 229 351 748
f 353 351 229
f 228 354 230
f 352 354 228
f 229 864 353
f 353 864 866
f 864 231 64
f 10 864 64
f 866 864 10
f 355 10 64
f 230 356 232
f 354 356 230
f 8 64 231
f 64 8 355
f 8 138 355
f 8 136 138
f 357 138 136
f 357 136 233
f 232 358 234
f 356 358 232
f 233 262 357
f 357 262 264
f 359 264 262
f 359 262 235
f 234 360 236
f 358 360 234
f 235 388 359
f 359 388 390
f 518 573 361
f 390 518 361
f 388 518 390
f 237 573 518
f 536 589 238
f 536 236 589
f 236 362 589
f 236 360 362
f 573 520 361
f 237 650 573
f 650 520 573
f 650 652 520
f 363 652 650
f 363 650 239
f 238 589 538
f 364 238 538
f 240 238 364
f 589 362 538
f 239 762 363
f 363 762 764
f 878 764 762
f 878 880 764
f 22 83 365
f 880 22 365
f 878 22 880
f 150 215 83
f 150 83 22
f 276 339 215
f 276 215 150
f 406 366 339
f 276 406 339
f 404 406 276
f 404 240 406
f 406 240 364
f 83 24 365
f 24 83 152
f 152 83 215
f 152 215 278
f 278 215 339
f 339 366 278
f 800 777 241
f 922 893 800
f 800 893 777
f 72 37 922
f 922 37 893
f 202 165 72
f 72 165 37
f 202 242 165
f 684 665 243
f 779 800 241
f 779 241 665
f 367 779 665
f 684 367 665
f 800 779 895
f 800 895 922
f 922 895 39
f 922 39 72
f 72 39 167
f 72 167 202
f 368 330 291
f 368 291 242
f 167 368 242
f 202 167 242
f 456 419 330
f 330 419 291
f 456 244 419
f 245 686 243
f 243 686 684
f 367 684 686
f 367 686 369
f 293 330 368
f 330 293 421
f 330 421 456
f 421 370 456
f 370 244 456
f 370 246 244
f 247 688 245
f 245 688 686
f 369 686 688
f 369 688 371
f 246 372 248
f 370 372 246
f 249 690 247
f 247 690 688
f 371 688 690
f 371 690 373
f 248 374 250
f 372 374 248
f 666 690 249
f 690 666 373
f 666 780 373
f 666 778 780
f 375 780 778
f 375 778 251
f 250 376 252
f 374 376 250
f 251 894 375
f 375 894 896
f 377 896 894
f 377 894 253
f 420 465 254
f 420 252 465
f 252 378 465
f 252 376 378
f 253 38 377
f 377 38 40
f 166 40 38
f 166 168 40
f 292 168 166
f 292 294 168
f 465 422 254
f 422 292 254
f 422 294 292
f 465 378 422
f 467 637 681
f 681 637 799
f 799 637 749
f 749 468 799
f 683 469 681
f 681 469 467
f 681 801 683
f 681 799 801
f 799 468 801
f 801 468 470
f 683 638 469
f 638 683 750
f 750 683 801
f 801 470 750
f 908 865 345
f 56 9 908
f 908 9 865
f 184 137 56
f 56 137 9
f 308 263 184
f 184 263 137
f 308 346 263
f 794 763 347
f 916 879 794
f 794 879 763
f 471 25 916
f 25 879 916
f 25 23 879
f 25 151 23
f 153 151 25
f 153 277 151
f 279 277 153
f 448 405 472
f 405 279 472
f 405 277 279
f 448 348 405
f 349 910 345
f 345 910 908
f 910 473 11
f 56 910 11
f 908 910 56
f 56 11 139
f 56 139 184
f 184 139 474
f 310 184 474
f 308 184 310
f 346 308 389
f 308 436 389
f 308 310 436
f 475 521 436
f 521 389 436
f 521 519 389
f 521 651 519
f 653 651 521
f 765 794 347
f 651 765 347
f 653 765 651
f 794 765 881
f 794 881 916
f 471 916 881
f 407 448 472
f 407 476 448
f 476 348 448
f 476 350 348
f 351 912 349
f 349 912 910
f 473 910 912
f 473 912 477
f 265 310 474
f 310 265 391
f 310 391 436
f 475 436 391
f 478 578 537
f 350 478 537
f 476 478 350
f 578 352 537
f 353 914 351
f 351 914 912
f 62 12 477
f 912 62 477
f 914 62 912
f 479 12 62
f 539 578 478
f 539 480 578
f 480 352 578
f 480 354 352
f 866 914 353
f 10 62 866
f 866 62 914
f 140 479 192
f 192 479 355
f 479 62 355
f 62 10 355
f 481 140 192
f 354 482 356
f 480 482 354
f 138 192 355
f 481 192 138
f 357 481 138
f 483 481 357
f 356 484 358
f 482 484 356
f 357 264 483
f 483 264 266
f 485 266 264
f 485 264 359
f 358 486 360
f 484 486 358
f 359 390 485
f 485 390 392
f 487 392 390
f 487 390 361
f 360 488 362
f 486 488 360
f 361 520 487
f 487 520 522
f 652 522 520
f 652 654 522
f 489 654 652
f 489 652 363
f 540 490 364
f 540 364 538
f 538 362 540
f 540 362 488
f 363 764 489
f 489 764 766
f 880 766 764
f 880 882 766
f 491 882 880
f 491 880 365
f 408 492 366
f 408 366 406
f 406 364 408
f 408 364 490
f 365 24 491
f 491 24 26
f 152 26 24
f 152 154 26
f 278 154 152
f 278 280 154
f 278 366 280
f 280 366 492
f 802 779 367
f 924 895 802
f 802 895 779
f 493 41 924
f 41 895 924
f 41 39 895
f 204 167 494
f 167 41 494
f 167 39 41
f 204 368 167
f 369 804 367
f 367 804 802
f 804 495 897
f 924 804 897
f 802 804 924
f 493 924 897
f 169 204 494
f 293 368 204
f 169 293 204
f 295 293 169
f 458 421 496
f 421 295 496
f 421 293 295
f 458 370 421
f 804 369 781
f 369 497 781
f 369 371 497
f 495 804 781
f 423 458 496
f 423 498 458
f 498 370 458
f 498 372 370
f 782 497 808
f 497 373 808
f 497 371 373
f 499 782 808
f 498 551 591
f 374 498 591
f 372 498 374
f 551 500 591
f 780 808 373
f 499 808 780
f 375 499 780
f 501 499 375
f 593 376 374
f 593 374 591
f 591 500 593
f 593 500 502
f 375 896 501
f 501 896 898
f 503 898 896
f 503 896 377
f 376 593 552
f 504 376 552
f 378 376 504
f 593 502 552
f 377 40 503
f 503 40 42
f 168 217 505
f 42 168 505
f 40 168 42
f 294 343 217
f 294 217 168
f 424 506 343
f 294 424 343
f 422 424 294
f 422 378 424
f 424 378 504
f 217 170 505
f 170 217 296
f 296 217 343
f 343 506 296
f 595 507 563
f 563 507 679
f 679 507 639
f 679 639 797
f 797 639 751
f 797 751 919
f 919 751 867
f 867 596 919
f 565 597 563
f 563 597 595
f 679 637 467
f 565 679 467
f 563 679 565
f 797 749 637
f 797 637 679
f 921 468 749
f 797 921 749
f 919 921 797
f 919 596 921
f 921 596 598
f 567 599 565
f 565 599 597
f 565 467 469
f 565 469 567
f 923 470 468
f 923 468 921
f 921 598 923
f 923 598 600
f 569 601 567
f 567 601 599
f 567 469 638
f 685 567 638
f 569 567 685
f 750 803 685
f 750 685 638
f 803 750 470
f 923 803 470
f 925 803 923
f 923 600 925
f 925 600 602
f 569 508 601
f 508 569 640
f 640 569 685
f 640 685 752
f 752 685 803
f 752 803 868
f 868 803 925
f 925 602 868
f 66 25 471
f 603 155 66
f 155 25 66
f 155 153 25
f 155 279 153
f 281 279 155
f 281 604 279
f 279 604 472
f 58 11 473
f 186 139 58
f 58 139 11
f 186 474 139
f 562 521 475
f 678 653 562
f 562 653 521
f 796 765 678
f 678 765 653
f 605 883 796
f 883 765 796
f 883 881 765
f 27 66 471
f 881 27 471
f 883 27 881
f 603 66 27
f 407 472 604
f 407 604 409
f 409 606 407
f 407 606 476
f 477 60 473
f 473 60 58
f 188 58 60
f 186 58 188
f 474 186 265
f 186 312 265
f 186 188 312
f 607 393 312
f 393 265 312
f 393 391 265
f 523 562 475
f 391 523 475
f 393 523 391
f 562 523 655
f 562 655 678
f 678 655 767
f 678 767 796
f 605 796 767
f 606 541 579
f 478 606 579
f 476 606 478
f 541 608 579
f 12 60 477
f 479 190 12
f 190 60 12
f 190 188 60
f 190 609 267
f 312 190 267
f 188 190 312
f 607 312 267
f 579 539 478
f 579 608 539
f 608 480 539
f 608 610 480
f 140 190 479
f 609 190 140
f 481 609 140
f 611 609 481
f 480 612 482
f 610 612 480
f 613 481 483
f 613 611 481
f 612 667 695
f 484 612 695
f 482 612 484
f 667 614 695
f 483 266 613
f 613 266 268
f 615 268 266
f 615 266 485
f 697 486 484
f 697 484 695
f 695 614 697
f 697 614 616
f 485 392 615
f 615 392 394
f 617 394 392
f 617 392 487
f 486 697 668
f 618 486 668
f 488 486 618
f 697 616 668
f 487 522 617
f 617 522 524
f 654 524 522
f 654 656 524
f 619 656 654
f 619 654 489
f 542 620 490
f 542 490 540
f 540 488 542
f 542 488 618
f 489 766 619
f 619 766 768
f 882 933 621
f 768 882 621
f 766 882 768
f 491 933 882
f 410 622 492
f 410 492 408
f 408 490 410
f 410 490 620
f 933 884 621
f 491 26 933
f 26 884 933
f 26 28 884
f 154 28 26
f 154 156 28
f 280 156 154
f 280 282 156
f 280 492 282
f 282 492 622
f 623 43 493
f 493 43 41
f 43 624 41
f 41 624 494
f 625 899 495
f 495 899 897
f 493 897 899
f 493 899 623
f 169 494 624
f 169 624 171
f 171 295 169
f 297 295 171
f 297 626 295
f 295 626 496
f 627 783 497
f 497 783 781
f 495 781 783
f 495 783 625
f 423 496 626
f 423 626 425
f 425 628 423
f 423 628 498
f 497 782 627
f 627 782 784
f 629 784 782
f 629 782 499
f 551 498 628
f 551 628 553
f 553 630 551
f 551 630 500
f 631 499 501
f 631 629 499
f 500 632 502
f 630 632 500
f 501 898 631
f 631 898 900
f 633 900 898
f 633 898 503
f 554 634 504
f 554 504 552
f 552 502 554
f 554 502 632
f 503 42 633
f 633 42 44
f 635 44 42
f 635 42 505
f 426 636 506
f 426 506 424
f 424 504 426
f 426 504 634
f 505 170 635
f 635 170 172
f 296 172 170
f 296 298 172
f 296 506 298
f 298 506 636
f 699 509 561
f 561 509 677
f 677 509 641
f 677 641 795
f 795 641 753
f 795 753 917
f 917 753 869
f 869 700 917
f 701 379 437
f 699 561 379
f 379 561 437
f 561 507 437
f 507 595 437
f 677 639 507
f 677 507 561
f 795 751 639
f 795 639 677
f 917 867 751
f 917 751 795
f 700 13 69
f 700 69 596
f 917 700 596
f 867 917 596
f 69 13 199
f 199 13 141
f 141 702 199
f 439 703 437
f 437 703 701
f 437 595 597
f 437 597 439
f 71 598 596
f 71 596 69
f 69 201 71
f 69 199 201
f 199 702 201
f 201 702 704
f 441 705 439
f 439 705 703
f 439 597 599
f 439 599 441
f 73 600 598
f 73 598 71
f 71 203 73
f 71 201 203
f 201 704 203
f 203 704 706
f 441 380 705
f 707 380 441
f 599 707 441
f 601 707 599
f 75 602 600
f 75 600 73
f 708 75 142
f 75 203 142
f 75 73 203
f 203 706 142
f 601 508 707
f 707 508 510
f 640 687 709
f 510 640 709
f 508 640 510
f 752 805 687
f 752 687 640
f 868 927 805
f 868 805 752
f 927 868 602
f 75 927 602
f 77 927 75
f 75 708 77
f 77 708 710
f 687 642 709
f 642 687 754
f 754 687 805
f 754 805 870
f 870 805 927
f 870 927 14
f 14 927 77
f 77 710 14
f 711 157 603
f 603 157 155
f 157 281 155
f 283 281 157
f 283 712 281
f 281 712 604
f 713 885 605
f 605 885 883
f 885 27 883
f 29 27 885
f 603 27 29
f 603 29 711
f 409 604 712
f 409 712 411
f 411 714 409
f 409 714 606
f 438 393 607
f 564 523 438
f 438 523 393
f 715 657 564
f 657 523 564
f 657 655 523
f 657 767 655
f 769 767 657
f 605 767 769
f 605 769 713
f 541 606 714
f 541 714 543
f 543 716 541
f 541 716 608
f 314 267 609
f 395 438 607
f 395 607 267
f 717 395 267
f 314 717 267
f 438 395 525
f 438 525 564
f 715 564 525
f 608 718 610
f 716 718 608
f 611 316 609
f 609 316 314
f 717 314 316
f 717 316 719
f 718 669 693
f 612 718 693
f 610 718 612
f 669 720 693
f 613 318 611
f 611 318 316
f 719 316 318
f 719 318 721
f 693 667 612
f 693 720 667
f 720 614 667
f 720 722 614
f 268 318 613
f 721 318 268
f 615 721 268
f 723 721 615
f 614 724 616
f 722 724 614
f 615 394 723
f 723 394 396
f 725 396 394
f 725 394 617
f 670 726 618
f 670 618 668
f 668 616 670
f 670 616 724
f 617 524 725
f 725 524 526
f 656 691 727
f 526 656 727
f 524 656 526
f 619 691 656
f 544 728 620
f 544 620 542
f 542 618 544
f 544 618 726
f 691 658 727
f 619 768 691
f 768 658 691
f 768 770 658
f 729 770 768
f 729 768 621
f 412 730 622
f 412 622 410
f 410 620 412
f 412 620 728
f 621 884 729
f 729 884 886
f 28 886 884
f 28 30 886
f 156 30 28
f 156 158 30
f 282 158 156
f 282 284 158
f 282 622 284
f 284 622 730
f 731 45 623
f 623 45 43
f 624 43 205
f 43 173 205
f 43 45 173
f 173 732 205
f 733 901 625
f 625 901 899
f 623 899 901
f 623 901 731
f 205 171 624
f 171 205 732
f 299 171 732
f 297 171 299
f 299 734 297
f 297 734 626
f 735 785 627
f 627 785 783
f 625 783 785
f 625 785 733
f 425 626 734
f 425 734 427
f 427 736 425
f 425 736 628
f 809 737 784
f 737 627 784
f 737 735 627
f 629 809 784
f 553 628 736
f 553 736 555
f 555 738 553
f 553 738 630
f 809 786 737
f 739 786 809
f 629 739 809
f 631 739 629
f 630 740 632
f 738 740 630
f 631 900 739
f 739 900 902
f 741 902 900
f 741 900 633
f 556 742 634
f 556 634 554
f 554 632 556
f 556 632 740
f 633 44 741
f 741 44 46
f 743 46 44
f 743 44 635
f 428 744 636
f 428 636 426
f 426 634 428
f 428 634 742
f 635 172 743
f 743 172 174
f 298 174 172
f 298 300 174
f 298 636 300
f 300 636 744
f 813 1 57
f 57 1 185
f 185 1 129
f 185 129 309
f 309 129 255
f 309 255 435
f 435 255 381
f 435 381 699
f 381 509 699
f 381 511 509
f 511 641 509
f 643 641 511
f 643 753 641
f 755 753 643
f 755 869 753
f 871 869 755
f 700 869 67
f 869 15 67
f 869 871 15
f 67 15 197
f 197 15 143
f 197 143 323
f 323 143 269
f 269 814 323
f 59 815 57
f 57 815 813
f 57 187 59
f 57 185 187
f 185 311 187
f 185 309 311
f 435 379 701
f 311 435 701
f 309 435 311
f 435 699 379
f 67 13 700
f 197 141 13
f 197 13 67
f 325 702 141
f 197 325 141
f 323 325 197
f 323 814 325
f 325 814 816
f 59 2 815
f 2 59 817
f 59 189 817
f 59 187 189
f 187 313 189
f 187 311 313
f 311 701 703
f 311 703 313
f 327 704 702
f 327 702 325
f 325 816 327
f 327 816 818
f 189 130 817
f 130 189 819
f 189 315 819
f 189 313 315
f 313 703 705
f 313 705 315
f 329 706 704
f 329 704 327
f 327 818 329
f 329 818 820
f 315 256 819
f 443 821 380
f 380 821 705
f 821 256 705
f 256 315 705
f 707 443 380
f 142 207 708
f 207 142 706
f 329 207 706
f 331 207 329
f 329 820 331
f 331 820 822
f 443 382 821
f 707 510 443
f 510 382 443
f 510 512 382
f 823 512 510
f 823 510 709
f 209 710 708
f 209 708 207
f 824 209 270
f 209 331 270
f 209 207 331
f 331 822 270
f 709 642 823
f 823 642 644
f 754 807 825
f 644 754 825
f 642 754 644
f 870 929 807
f 870 807 754
f 16 826 929
f 870 16 929
f 14 16 870
f 209 144 710
f 144 14 710
f 144 16 14
f 209 824 144
f 807 756 825
f 756 807 872
f 872 807 929
f 929 826 872
f 196 157 711
f 322 283 196
f 196 283 157
f 322 712 283
f 827 887 713
f 713 887 885
f 887 29 885
f 31 29 887
f 159 196 711
f 29 159 711
f 31 159 29
f 196 159 285
f 196 285 322
f 411 712 322
f 285 411 322
f 413 411 285
f 413 828 411
f 411 828 714
f 829 659 715
f 715 659 657
f 659 769 657
f 771 769 659
f 713 769 771
f 713 771 827
f 543 714 828
f 543 828 545
f 545 830 543
f 543 830 716
f 440 395 717
f 831 527 440
f 527 395 440
f 527 525 395
f 715 525 527
f 715 527 829
f 716 832 718
f 830 832 716
f 440 717 397
f 717 833 397
f 717 719 833
f 831 440 397
f 669 718 832
f 669 832 671
f 671 834 669
f 669 834 720
f 835 719 721
f 835 833 719
f 720 836 722
f 834 836 720
f 837 721 723
f 837 835 721
f 722 838 724
f 836 838 722
f 723 396 837
f 837 396 398
f 839 398 396
f 839 396 725
f 672 840 726
f 672 726 670
f 670 724 672
f 672 724 838
f 725 526 839
f 839 526 528
f 841 528 526
f 841 526 727
f 546 842 728
f 546 728 544
f 544 726 546
f 546 726 840
f 727 658 841
f 841 658 660
f 770 660 658
f 770 772 660
f 843 772 770
f 843 770 729
f 414 844 730
f 414 730 412
f 412 728 414
f 414 728 842
f 729 886 843
f 843 886 888
f 30 888 886
f 30 32 888
f 158 32 30
f 158 160 32
f 284 160 158
f 284 286 160
f 284 730 286
f 286 730 844
f 845 47 731
f 731 47 45
f 47 173 45
f 175 173 47
f 175 846 173
f 173 846 732
f 847 903 733
f 733 903 901
f 731 901 903
f 731 903 845
f 299 732 846
f 299 846 301
f 301 848 299
f 299 848 734
f 849 787 735
f 735 787 785
f 733 785 787
f 733 787 847
f 427 734 848
f 427 848 429
f 429 850 427
f 427 850 736
f 851 735 737
f 851 849 735
f 555 736 850
f 555 850 557
f 557 852 555
f 555 852 738
f 737 786 851
f 851 786 788
f 853 788 786
f 853 786 739
f 738 854 740
f 852 854 738
f 739 902 853
f 853 902 904
f 855 904 902
f 855 902 741
f 558 856 742
f 558 742 556
f 556 740 558
f 558 740 854
f 741 46 855
f 855 46 48
f 857 48 46
f 857 46 743
f 430 858 744
f 430 744 428
f 428 742 430
f 430 742 856
f 743 174 857
f 857 174 176
f 300 176 174
f 300 302 176
f 300 744 302
f 302 744 858
f 935 859 907
f 907 859 55
f 55 859 3
f 55 3 183
f 183 3 131
f 183 131 307
f 307 131 257
f 307 257 433
f 433 257 383
f 433 383 559
f 559 383 513
f 559 513 675
f 675 513 645
f 675 645 793
f 793 645 757
f 793 757 915
f 915 757 873
f 915 873 65
f 65 873 17
f 65 17 195
f 195 17 145
f 195 145 321
f 321 145 271
f 321 271 447
f 447 271 399
f 399 936 447
f 909 937 907
f 907 937 935
f 55 1 813
f 909 55 813
f 907 55 909
f 183 129 1
f 183 1 55
f 307 255 129
f 307 129 183
f 433 381 255
f 433 255 307
f 559 511 381
f 559 381 433
f 675 643 511
f 675 511 559
f 793 755 643
f 793 643 675
f 915 871 755
f 915 755 793
f 65 15 871
f 65 871 915
f 195 143 15
f 195 15 65
f 321 269 143
f 321 143 195
f 449 814 269
f 321 449 269
f 447 449 321
f 447 936 449
f 449 936 938
f 911 939 909
f 909 939 937
f 909 813 815
f 909 815 911
f 451 816 814
f 451 814 449
f 449 938 451
f 451 938 940
f 913 941 911
f 911 941 939
f 911 815 2
f 61 911 2
f 913 911 61
f 817 61 2
f 453 818 816
f 453 816 451
f 451 940 453
f 453 940 942
f 913 860 941
f 860 913 4
f 4 913 61
f 191 943 130
f 130 943 817
f 943 4 817
f 4 61 817
f 819 191 130
f 455 820 818
f 455 818 453
f 453 942 455
f 455 942 944
f 191 132 943
f 819 256 191
f 256 132 191
f 256 258 132
f 945 258 256
f 945 256 821
f 457 822 820
f 457 820 455
f 455 944 457
f 457 944 946
f 821 382 945
f 945 382 384
f 512 571 947
f 384 512 947
f 382 512 384
f 823 571 512
f 270 333 824
f 457 400 822
f 822 400 270
f 400 948 270
f 948 333 270
f 457 946 400
f 571 514 947
f 823 644 571
f 644 514 571
f 644 646 514
f 949 646 644
f 949 644 825
f 16 79 826
f 144 211 79
f 144 79 16
f 333 272 824
f 824 272 144
f 272 950 144
f 950 211 144
f 333 948 272
f 825 756 949
f 949 756 758
f 872 758 756
f 872 874 758
f 79 18 826
f 18 872 826
f 18 874 872
f 18 79 146
f 146 79 211
f 211 950 146
f 918 887 827
f 951 33 918
f 33 887 918
f 33 31 887
f 33 159 31
f 161 159 33
f 324 285 952
f 285 161 952
f 285 159 161
f 450 413 324
f 324 413 285
f 450 828 413
f 680 659 829
f 953 773 680
f 773 659 680
f 773 771 659
f 889 918 827
f 771 889 827
f 773 889 771
f 951 918 889
f 287 324 952
f 324 287 415
f 324 415 450
f 954 580 545
f 954 545 828
f 415 954 828
f 450 415 828
f 580 830 545
f 955 529 831
f 831 529 527
f 661 680 829
f 527 661 829
f 529 661 527
f 953 680 661
f 547 580 954
f 547 956 580
f 956 830 580
f 956 832 830
f 442 397 833
f 831 397 442
f 957 831 442
f 955 831 957
f 671 832 956
f 671 956 673
f 673 958 671
f 671 958 834
f 835 444 833
f 833 444 442
f 957 442 444
f 957 444 959
f 834 960 836
f 958 960 834
f 837 446 835
f 835 446 444
f 959 444 446
f 959 446 961
f 674 962 698
f 698 838 674
f 838 960 674
f 838 836 960
f 398 446 837
f 961 446 398
f 839 961 398
f 963 961 839
f 840 672 698
f 962 840 698
f 964 840 962
f 838 698 672
f 839 528 963
f 963 528 530
f 528 841 692
f 662 528 692
f 530 528 662
f 965 662 692
f 548 966 842
f 548 842 546
f 546 840 548
f 548 840 964
f 660 692 841
f 692 660 965
f 660 774 965
f 660 772 774
f 772 843 934
f 890 772 934
f 774 772 890
f 967 890 934
f 288 968 340
f 288 340 844
f 414 288 844
f 416 288 414
f 414 842 416
f 416 842 966
f 888 934 843
f 934 888 967
f 888 34 967
f 888 32 34
f 160 34 32
f 160 162 34
f 968 162 340
f 162 286 340
f 162 160 286
f 844 340 286
f 74 47 845
f 206 175 74
f 74 175 47
f 206 846 175
f 969 905 847
f 847 905 903
f 49 74 845
f 903 49 845
f 905 49 903
f 74 49 177
f 74 177 206
f 301 846 206
f 177 301 206
f 303 301 177
f 303 970 301
f 301 970 848
f 806 787 849
f 847 787 806
f 971 847 806
f 969 847 971
f 429 848 970
f 429 970 431
f 431 972 429
f 429 972 850
f 851 810 849
f 849 810 806
f 971 806 810
f 971 810 973
f 974 592 557
f 850 974 557
f 972 974 850
f 592 852 557
f 788 810 851
f 973 810 788
f 853 973 788
f 975 973 853
f 976 594 592
f 976 592 974
f 852 592 854
f 854 592 594
f 853 904 975
f 975 904 906
f 977 906 904
f 977 904 855
f 856 558 594
f 976 856 594
f 978 856 976
f 854 594 558
f 855 48 977
f 977 48 50
f 48 857 218
f 178 48 218
f 50 48 178
f 178 218 344
f 178 344 304
f 304 344 858
f 430 304 858
f 432 304 430
f 430 856 432
f 432 856 978
f 176 218 857
f 302 344 176
f 176 344 218
f 858 344 302
f 85 5 53
f 53 5 181
f 181 5 133
f 133 86 181
f 87 147 193
f 193 147 319
f 319 147 273
f 273 88 319
f 89 861 935
f 935 861 859
f 861 85 53
f 3 861 53
f 859 861 3
f 181 131 3
f 181 3 53
f 131 181 86
f 259 131 86
f 257 131 259
f 259 383 257
f 385 383 259
f 385 513 383
f 515 513 385
f 515 645 513
f 647 645 515
f 647 757 645
f 759 757 647
f 759 873 757
f 875 873 759
f 875 17 873
f 19 17 875
f 19 87 193
f 145 19 193
f 17 19 145
f 319 271 145
f 319 145 193
f 271 319 88
f 401 271 88
f 399 271 401
f 401 90 399
f 399 90 936
f 91 745 789
f 937 789 745
f 89 937 745
f 935 937 89
f 90 533 575
f 938 90 575
f 936 90 938
f 533 92 575
f 791 93 789
f 789 93 91
f 789 937 939
f 789 939 791
f 577 940 938
f 577 938 575
f 575 92 577
f 577 92 94
f 791 746 93
f 95 746 791
f 939 95 791
f 941 95 939
f 581 942 940
f 581 940 577
f 577 94 581
f 581 94 96
f 941 860 95
f 95 860 862
f 4 63 97
f 862 4 97
f 860 4 862
f 943 63 4
f 583 944 942
f 583 942 581
f 581 96 583
f 583 96 98
f 63 6 97
f 943 132 63
f 132 6 63
f 132 134 6
f 258 317 99
f 134 258 99
f 132 258 134
f 945 317 258
f 944 583 534
f 100 944 534
f 946 944 100
f 583 98 534
f 317 260 99
f 945 384 317
f 384 260 317
f 384 386 260
f 101 386 384
f 101 384 947
f 400 459 948
f 400 946 459
f 946 102 459
f 946 100 102
f 947 514 101
f 101 514 516
f 646 689 103
f 516 646 103
f 514 646 516
f 949 689 646
f 272 335 950
f 335 272 948
f 459 335 948
f 461 335 459
f 459 102 461
f 461 102 104
f 689 648 103
f 949 758 689
f 758 648 689
f 758 760 648
f 874 931 105
f 760 874 105
f 758 874 760
f 18 81 931
f 18 931 874
f 146 213 81
f 146 81 18
f 335 274 950
f 950 274 146
f 274 106 146
f 106 213 146
f 274 335 402
f 402 335 461
f 461 104 402
f 931 876 105
f 876 931 20
f 20 931 81
f 20 81 148
f 148 81 213
f 213 106 148
f 68 33 951
f 198 161 68
f 68 161 33
f 198 952 161
f 798 773 953
f 107 891 798
f 891 773 798
f 891 889 773
f 35 68 951
f 889 35 951
f 891 35 889
f 68 35 163
f 68 163 198
f 287 952 198
f 163 287 198
f 289 287 163
f 452 415 108
f 415 289 108
f 415 287 289
f 452 954 415
f 566 529 955
f 109 663 566
f 663 529 566
f 663 661 529
f 775 798 953
f 661 775 953
f 663 775 661
f 107 798 775
f 417 452 108
f 547 954 452
f 417 547 452
f 549 547 417
f 549 110 547
f 547 110 956
f 566 955 531
f 955 111 531
f 955 957 111
f 109 566 531
f 112 694 673
f 956 112 673
f 110 112 956
f 694 958 673
f 113 957 959
f 113 111 957
f 114 696 694
f 114 694 112
f 958 694 960
f 960 694 696
f 115 959 961
f 115 113 959
f 962 674 696
f 114 962 696
f 116 962 114
f 960 696 674
f 532 115 574
f 115 963 574
f 115 961 963
f 117 532 574
f 550 118 590
f 590 964 550
f 964 116 550
f 964 962 116
f 530 574 963
f 574 530 117
f 530 664 117
f 530 662 664
f 119 664 662
f 119 662 965
f 966 548 590
f 118 966 590
f 120 966 118
f 964 590 548
f 965 774 119
f 119 774 776
f 890 776 774
f 890 892 776
f 121 892 890
f 121 890 967
f 290 122 968
f 290 968 288
f 416 290 288
f 416 418 290
f 416 966 418
f 418 966 120
f 967 34 121
f 121 34 36
f 162 36 34
f 162 164 36
f 162 968 164
f 164 968 122
f 926 905 969
f 76 49 926
f 926 49 905
f 208 177 76
f 76 177 49
f 332 303 208
f 208 303 177
f 332 970 303
f 971 928 969
f 969 928 926
f 928 123 51
f 76 928 51
f 926 928 76
f 76 51 179
f 76 179 208
f 208 179 124
f 334 208 124
f 332 208 334
f 970 332 431
f 332 460 431
f 332 334 460
f 460 972 431
f 973 930 971
f 971 930 928
f 123 928 930
f 123 930 125
f 305 334 124
f 334 305 126
f 462 334 126
f 460 334 462
f 972 460 974
f 974 460 462
f 975 932 973
f 973 932 930
f 82 52 125
f 930 82 125
f 932 82 930
f 127 52 82
f 128 464 462
f 128 462 126
f 974 462 976
f 976 462 464
f 906 932 975
f 977 84 906
f 84 932 906
f 84 82 932
f 216 180 127
f 82 216 127
f 84 216 82
f 180 216 342
f 180 342 306
f 464 128 306
f 342 464 306
f 466 464 342
f 976 464 978
f 978 464 466
f 50 84 977
f 178 216 50
f 50 216 84
f 304 342 178
f 178 342 216
f 432 466 304
f 304 466 342
f 978 466 432
