# Converted from NanoShaper .vert/.face
v -9.957000 -9.887000 3.918000
v -8.754000 -9.887000 3.918000
v -11.391000 -9.887000 4.418000
v -8.194000 -9.887000 4.418000
v -12.496000 -9.887000 4.918000
v -7.985000 -9.887000 4.918000
v -13.028000 -9.887000 5.418000
v -7.821000 -9.887000 5.418000
v -13.317000 -9.887000 5.918000
v -7.670000 -9.887000 5.918000
v -13.518000 -9.887000 6.418000
v -7.649000 -9.887000 6.418000
v -13.569000 -9.887000 6.918000
v -7.666000 -9.887000 6.918000
v -13.684000 -9.887000 7.418000
v -7.694000 -9.887000 7.418000
v -13.858000 -9.887000 7.918000
v -7.696000 -9.887000 7.918000
v -14.058000 -9.887000 8.418000
v -7.688000 -9.887000 8.418000
v -14.063000 -9.887000 8.918000
v -7.903000 -9.887000 8.918000
v -14.102000 -9.887000 9.418000
v -11.391000 -9.887000 9.418000
v -10.526000 -9.887000 9.418000
v -8.420000 -9.887000 9.418000
v -14.368000 -9.887000 9.918000
v -12.084000 -9.887000 9.918000
v -14.584000 -9.887000 10.418000
v -12.165000 -9.887000 10.418000
v -14.576000 -9.887000 10.918000
v -12.215000 -9.887000 10.918000
v -14.546000 -9.887000 11.418000
v -12.237000 -9.887000 11.418000
v -14.323000 -9.887000 11.918000
v -12.460000 -9.887000 11.918000
v -11.495000 -5.887000 7.418000
v -9.710000 -5.887000 7.418000
v -11.631000 -5.887000 7.918000
v -9.711000 -5.887000 7.918000
v -12.035000 -5.887000 8.418000
v -9.799000 -5.887000 8.418000
v -12.144000 -5.887000 8.918000
v -10.161000 -5.887000 8.918000
v -12.489000 -5.887000 9.418000
v -10.225000 -5.887000 9.418000
v -12.510000 -5.887000 9.918000
v -10.236000 -5.887000 9.918000
v -12.470000 -5.887000 10.418000
v -10.873000 -5.887000 10.418000
v -14.107000 -9.887000 9.435000
v -14.107000 -9.887000 12.133000
v -13.607000 -9.887000 7.142000
v -13.607000 -9.887000 12.357000
v -13.107000 -9.887000 5.550000
v -13.107000 -9.887000 12.342000
v -12.607000 -9.887000 4.987000
v -12.607000 -9.887000 12.077000
v -12.107000 -9.887000 4.767000
v -12.107000 -9.887000 9.989000
v -11.607000 -9.887000 4.527000
v -11.607000 -9.887000 9.461000
v -11.107000 -9.887000 4.337000
v -11.107000 -9.887000 9.398000
v -10.607000 -9.887000 4.246000
v -10.607000 -9.887000 9.402000
v -10.107000 -9.887000 4.003000
v -10.107000 -9.887000 9.595000
v -9.607000 -9.887000 3.803000
v -9.607000 -9.887000 9.826000
v -9.107000 -9.887000 3.802000
v -9.107000 -9.887000 9.830000
v -8.607000 -9.887000 4.001000
v -8.607000 -9.887000 9.600000
v -8.107000 -9.887000 4.575000
v -8.107000 -9.887000 9.131000
v -12.107000 -5.887000 8.794000
v -12.107000 -5.887000 10.784000
v -11.607000 -5.887000 7.875000
v -11.607000 -5.887000 10.803000
v -11.107000 -5.887000 6.987000
v -11.107000 -5.887000 10.591000
v -10.607000 -5.887000 6.953000
v -10.607000 -5.887000 10.311000
v -10.107000 -5.887000 7.038000
v -10.107000 -5.887000 8.818000
v -14.107000 -9.190000 7.418000
v -14.107000 -8.110000 7.418000
v -13.607000 -10.092000 7.418000
v -13.607000 -7.461000 7.418000
v -13.107000 -11.253000 7.418000
v -13.107000 -6.989000 7.418000
v -12.607000 -11.831000 7.418000
v -12.607000 -6.733000 7.418000
v -12.107000 -12.032000 7.418000
v -12.107000 -6.391000 7.418000
v -11.607000 -12.035000 7.418000
v -11.607000 -5.959000 7.418000
v -11.107000 -11.983000 7.418000
v -11.107000 -5.739000 7.418000
v -10.607000 -11.820000 7.418000
v -10.607000 -5.722000 7.418000
v -10.107000 -11.547000 7.418000
v -10.107000 -5.758000 7.418000
v -9.607000 -11.276000 7.418000
v -9.607000 -5.944000 7.418000
v -9.107000 -11.144000 7.418000
v -9.107000 -6.425000 7.418000
v -8.607000 -10.884000 7.418000
v -8.607000 -6.924000 7.418000
v -8.107000 -10.332000 7.418000
v -8.107000 -7.462000 7.418000
v -7.607000 -9.731000 7.418000
v -7.607000 -8.511000 7.418000
v -15.107000 -8.306000 11.418000
v -15.107000 -7.056000 11.418000
v -14.607000 -9.784000 11.418000
v -14.607000 -6.514000 11.418000
v -14.107000 -10.309000 11.418000
v -14.107000 -6.327000 11.418000
v -13.607000 -10.491000 11.418000
v -13.607000 -6.299000 11.418000
v -13.107000 -10.479000 11.418000
v -13.107000 -6.252000 11.418000
v -12.607000 -10.265000 11.418000
v -12.607000 -6.240000 11.418000
v -12.107000 -9.644000 11.418000
v -12.107000 -6.314000 11.418000
v -11.607000 -8.564000 11.418000
v -11.607000 -6.497000 11.418000
v -11.107000 -7.761000 11.418000
v -11.107000 -6.715000 11.418000
v -11.365000 -9.387000 4.418000
v -8.434000 -9.387000 4.418000
v -12.341000 -9.387000 4.918000
v -8.043000 -9.387000 4.918000
v -13.022000 -9.387000 5.418000
v -7.667000 -9.387000 5.418000
v -13.495000 -9.387000 5.918000
v -7.483000 -9.387000 5.918000
v -13.709000 -9.387000 6.418000
v -7.452000 -9.387000 6.418000
v -13.822000 -9.387000 6.918000
v -7.465000 -9.387000 6.918000
v -14.003000 -9.387000 7.418000
v -7.496000 -9.387000 7.418000
v -14.107000 -9.387000 7.918000
v -7.494000 -9.387000 7.918000
v -14.314000 -9.387000 8.418000
v -7.484000 -9.387000 8.418000
v -14.511000 -9.387000 8.918000
v -7.661000 -9.387000 8.918000
v -14.526000 -9.387000 9.418000
v -8.153000 -9.387000 9.418000
v -14.613000 -9.387000 9.918000
v -11.012000 -9.387000 9.918000
v -10.254000 -9.387000 9.918000
v -8.797000 -9.387000 9.918000
v -14.765000 -9.387000 10.418000
v -11.610000 -9.387000 10.418000
v -14.763000 -9.387000 10.918000
v -11.784000 -9.387000 10.918000
v -14.750000 -9.387000 11.418000
v -11.989000 -9.387000 11.418000
v -14.566000 -9.387000 11.918000
v -12.217000 -9.387000 11.918000
v -14.034000 -9.387000 12.418000
v -12.748000 -9.387000 12.418000
v -14.607000 -9.387000 9.899000
v -14.607000 -9.387000 11.844000
v -14.107000 -9.387000 7.920000
v -14.107000 -9.387000 12.376000
v -13.607000 -9.387000 6.114000
v -13.607000 -9.387000 12.561000
v -13.107000 -9.387000 5.505000
v -13.107000 -9.387000 12.548000
v -12.607000 -9.387000 5.046000
v -12.607000 -9.387000 12.332000
v -12.107000 -9.387000 4.839000
v -12.107000 -9.387000 11.697000
v -11.607000 -9.387000 4.537000
v -11.607000 -9.387000 10.413000
v -11.107000 -9.387000 4.350000
v -11.107000 -9.387000 9.952000
v -10.607000 -9.387000 4.293000
v -10.607000 -9.387000 9.862000
v -10.107000 -9.387000 4.180000
v -10.107000 -9.387000 9.955000
v -9.607000 -9.387000 4.003000
v -9.607000 -9.387000 10.022000
v -9.107000 -9.387000 4.002000
v -9.107000 -9.387000 10.011000
v -8.607000 -9.387000 4.243000
v -8.607000 -9.387000 9.818000
v -8.107000 -9.387000 4.835000
v -8.107000 -9.387000 9.382000
v -7.607000 -9.387000 5.527000
v -7.607000 -9.387000 8.818000
v -9.607000 -11.650000 3.918000
v -9.607000 -9.537000 3.918000
v -9.107000 -11.614000 3.918000
v -9.107000 -9.536000 3.918000
v -14.107000 -9.385000 7.918000
v -14.107000 -7.961000 7.918000
v -13.607000 -10.243000 7.918000
v -13.607000 -7.441000 7.918000
v -13.107000 -10.917000 7.918000
v -13.107000 -7.003000 7.918000
v -12.607000 -11.616000 7.918000
v -12.607000 -6.633000 7.918000
v -12.107000 -11.854000 7.918000
v -12.107000 -6.172000 7.918000
v -11.607000 -11.857000 7.918000
v -11.607000 -5.878000 7.918000
v -11.107000 -11.788000 7.918000
v -11.107000 -5.737000 7.918000
v -10.607000 -11.572000 7.918000
v -10.607000 -5.723000 7.918000
v -10.107000 -11.219000 7.918000
v -10.107000 -5.757000 7.918000
v -9.607000 -11.082000 7.918000
v -9.607000 -5.945000 7.918000
v -9.107000 -11.036000 7.918000
v -9.107000 -6.448000 7.918000
v -8.607000 -10.829000 7.918000
v -8.607000 -6.984000 7.918000
v -8.107000 -10.329000 7.918000
v -8.107000 -7.592000 7.918000
v -7.607000 -9.730000 7.918000
v -7.607000 -8.523000 7.918000
v -14.607000 -8.954000 11.918000
v -14.607000 -6.768000 11.918000
v -14.107000 -10.092000 11.918000
v -14.107000 -6.538000 11.918000
v -13.607000 -10.309000 11.918000
v -13.607000 -6.515000 11.918000
v -13.107000 -10.294000 11.918000
v -13.107000 -6.434000 11.918000
v -12.607000 -10.038000 11.918000
v -12.607000 -6.429000 11.918000
v -12.107000 -8.744000 11.918000
v -12.107000 -6.657000 11.918000
v -12.011000 -8.887000 4.918000
v -8.206000 -8.887000 4.918000
v -12.869000 -8.887000 5.418000
v -7.678000 -8.887000 5.418000
v -13.487000 -8.887000 5.918000
v -7.493000 -8.887000 5.918000
v -13.719000 -8.887000 6.418000
v -7.450000 -8.887000 6.418000
v -13.988000 -8.887000 6.918000
v -7.463000 -8.887000 6.918000
v -14.197000 -8.887000 7.418000
v -7.495000 -8.887000 7.418000
v -14.283000 -8.887000 7.918000
v -7.490000 -8.887000 7.918000
v -14.529000 -8.887000 8.418000
v -7.479000 -8.887000 8.418000
v -14.711000 -8.887000 8.918000
v -7.656000 -8.887000 8.918000
v -14.706000 -8.887000 9.418000
v -8.154000 -8.887000 9.418000
v -14.754000 -8.887000 9.918000
v -8.833000 -8.887000 9.918000
v -14.805000 -8.887000 10.418000
v -10.761000 -8.887000 10.418000
v -14.845000 -8.887000 10.918000
v -11.441000 -8.887000 10.918000
v -14.828000 -8.887000 11.418000
v -11.773000 -8.887000 11.418000
v -14.618000 -8.887000 11.918000
v -12.150000 -8.887000 11.918000
v -14.046000 -8.887000 12.418000
v -12.727000 -8.887000 12.418000
v -14.607000 -8.887000 8.568000
v -14.607000 -8.887000 11.933000
v -14.107000 -8.887000 7.134000
v -14.107000 -8.887000 12.385000
v -13.607000 -8.887000 6.130000
v -13.607000 -8.887000 12.565000
v -13.107000 -8.887000 5.550000
v -13.107000 -8.887000 12.553000
v -12.607000 -8.887000 5.277000
v -12.607000 -8.887000 12.352000
v -12.107000 -8.887000 4.970000
v -12.107000 -8.887000 11.850000
v -11.607000 -8.887000 4.743000
v -11.607000 -8.887000 11.177000
v -11.107000 -8.887000 4.558000
v -11.107000 -8.887000 10.596000
v -10.607000 -8.887000 4.481000
v -10.607000 -8.887000 10.377000
v -10.107000 -8.887000 4.474000
v -10.107000 -8.887000 10.322000
v -9.607000 -8.887000 4.504000
v -9.607000 -8.887000 10.175000
v -9.107000 -8.887000 4.520000
v -9.107000 -8.887000 10.013000
v -8.607000 -8.887000 4.701000
v -8.607000 -8.887000 9.801000
v -8.107000 -8.887000 4.980000
v -8.107000 -8.887000 9.385000
v -7.607000 -8.887000 5.548000
v -7.607000 -8.887000 8.829000
v -11.107000 -10.642000 4.418000
v -11.107000 -9.154000 4.418000
v -10.607000 -11.299000 4.418000
v -10.607000 -9.000000 4.418000
v -10.107000 -12.049000 4.418000
v -10.107000 -8.968000 4.418000
v -9.607000 -12.276000 4.418000
v -9.607000 -8.962000 4.418000
v -9.107000 -12.260000 4.418000
v -9.107000 -8.972000 4.418000
v -8.607000 -11.989000 4.418000
v -8.607000 -9.212000 4.418000
v -14.107000 -9.799000 8.418000
v -14.107000 -7.678000 8.418000
v -13.607000 -10.342000 8.418000
v -13.607000 -7.224000 8.418000
v -13.107000 -10.687000 8.418000
v -13.107000 -6.894000 8.418000
v -12.607000 -11.027000 8.418000
v -12.607000 -6.424000 8.418000
v -12.107000 -11.339000 8.418000
v -12.107000 -5.928000 8.418000
v -11.607000 -11.345000 8.418000
v -11.607000 -5.745000 8.418000
v -11.107000 -11.228000 8.418000
v -11.107000 -5.723000 8.418000
v -10.607000 -10.983000 8.418000
v -10.607000 -5.735000 8.418000
v -10.107000 -10.848000 8.418000
v -10.107000 -5.786000 8.418000
v -9.607000 -10.844000 8.418000
v -9.607000 -5.996000 8.418000
v -9.107000 -10.835000 8.418000
v -9.107000 -6.592000 8.418000
v -8.607000 -10.596000 8.418000
v -8.607000 -7.266000 8.418000
v -8.107000 -10.297000 8.418000
v -8.107000 -7.889000 8.418000
v -7.607000 -9.748000 8.418000
v -7.607000 -8.499000 8.418000
v -14.107000 -8.272000 12.418000
v -14.107000 -7.154000 12.418000
v -13.607000 -9.785000 12.418000
v -13.607000 -7.136000 12.418000
v -13.107000 -9.759000 12.418000
v -13.107000 -6.958000 12.418000
v -12.607000 -8.363000 12.418000
v -12.607000 -6.948000 12.418000
v -9.984000 -12.387000 4.918000
v -8.832000 -12.387000 4.918000
v -10.514000 -12.387000 5.418000
v -8.802000 -12.387000 5.418000
v -10.491000 -12.387000 5.918000
v -9.274000 -12.387000 5.918000
v -12.379000 -8.387000 5.418000
v -7.929000 -8.387000 5.418000
v -13.258000 -8.387000 5.918000
v -7.691000 -8.387000 5.918000
v -13.608000 -8.387000 6.418000
v -7.549000 -8.387000 6.418000
v -13.982000 -8.387000 6.918000
v -7.550000 -8.387000 6.918000
v -14.193000 -8.387000 7.418000
v -7.660000 -8.387000 7.418000
v -14.281000 -8.387000 7.918000
v -7.683000 -8.387000 7.918000
v -14.531000 -8.387000 8.418000
v -7.671000 -8.387000 8.418000
v -14.712000 -8.387000 8.918000
v -7.882000 -8.387000 8.918000
v -14.759000 -8.387000 9.418000
v -8.479000 -8.387000 9.418000
v -14.837000 -8.387000 9.918000
v -9.074000 -8.387000 9.918000
v -14.980000 -8.387000 10.418000
v -9.783000 -8.387000 10.418000
v -15.074000 -8.387000 10.918000
v -10.899000 -8.387000 10.918000
v -15.063000 -8.387000 11.418000
v -11.468000 -8.387000 11.418000
v -14.814000 -8.387000 11.918000
v -11.916000 -8.387000 11.918000
v -14.045000 -8.387000 12.418000
v -12.626000 -8.387000 12.418000
v -10.107000 -12.387000 5.007000
v -10.107000 -12.387000 6.266000
v -9.607000 -12.387000 4.612000
v -9.607000 -12.387000 6.240000
v -9.107000 -12.387000 4.642000
v -9.107000 -12.387000 5.766000
v -14.607000 -8.387000 8.565000
v -14.607000 -8.387000 12.126000
v -14.107000 -8.387000 7.146000
v -14.107000 -8.387000 12.397000
v -13.607000 -8.387000 6.418000
v -13.607000 -8.387000 12.561000
v -13.107000 -8.387000 5.789000
v -13.107000 -8.387000 12.555000
v -12.607000 -8.387000 5.544000
v -12.607000 -8.387000 12.412000
v -12.107000 -8.387000 5.198000
v -12.107000 -8.387000 12.125000
v -11.607000 -8.387000 4.981000
v -11.607000 -8.387000 11.561000
v -11.107000 -8.387000 4.970000
v -11.107000 -8.387000 11.107000
v -10.607000 -8.387000 4.937000
v -10.607000 -8.387000 10.713000
v -10.107000 -8.387000 4.954000
v -10.107000 -8.387000 10.523000
v -9.607000 -8.387000 4.982000
v -9.607000 -8.387000 10.324000
v -9.107000 -8.387000 4.977000
v -9.107000 -8.387000 9.945000
v -8.607000 -8.387000 4.995000
v -8.607000 -8.387000 9.538000
v -8.107000 -8.387000 5.235000
v -8.107000 -8.387000 9.153000
v -7.607000 -8.387000 6.188000
v -7.607000 -8.387000 7.150000
v -12.107000 -10.767000 4.918000
v -12.107000 -9.105000 4.918000
v -11.607000 -11.042000 4.918000
v -11.607000 -8.498000 4.918000
v -11.107000 -11.487000 4.918000
v -11.107000 -8.459000 4.918000
v -10.607000 -12.114000 4.918000
v -10.607000 -8.406000 4.918000
v -10.107000 -12.346000 4.918000
v -10.107000 -8.422000 4.918000
v -9.607000 -12.490000 4.918000
v -9.607000 -8.467000 4.918000
v -9.107000 -12.477000 4.918000
v -9.107000 -8.463000 4.918000
v -8.607000 -12.260000 4.918000
v -8.607000 -8.514000 4.918000
v -8.107000 -11.612000 4.918000
v -8.107000 -9.127000 4.918000
v -14.607000 -9.212000 8.918000
v -14.607000 -7.988000 8.918000
v -14.107000 -9.839000 8.918000
v -14.107000 -7.163000 8.918000
v -13.607000 -10.319000 8.918000
v -13.607000 -6.934000 8.918000
v -13.107000 -10.516000 8.918000
v -13.107000 -6.676000 8.918000
v -12.607000 -10.586000 8.918000
v -12.607000 -6.172000 8.918000
v -12.107000 -10.487000 8.918000
v -12.107000 -5.872000 8.918000
v -11.607000 -10.369000 8.918000
v -11.607000 -5.723000 8.918000
v -11.107000 -10.352000 8.918000
v -11.107000 -5.724000 8.918000
v -10.607000 -10.362000 8.918000
v -10.607000 -5.770000 8.918000
v -10.107000 -10.465000 8.918000
v -10.107000 -5.909000 8.918000
v -9.607000 -10.541000 8.918000
v -9.607000 -6.217000 8.918000
v -9.107000 -10.540000 8.918000
v -9.107000 -7.139000 8.918000
v -8.607000 -10.349000 8.918000
v -8.607000 -7.804000 8.918000
v -8.107000 -10.086000 8.918000
v -8.107000 -8.161000 8.918000
v -10.277000 -11.887000 4.418000
v -8.509000 -11.887000 4.418000
v -10.838000 -11.887000 4.918000
v -8.246000 -11.887000 4.918000
v -11.145000 -11.887000 5.418000
v -8.231000 -11.887000 5.418000
v -11.563000 -11.887000 5.918000
v -8.452000 -11.887000 5.918000
v -12.065000 -11.887000 6.418000
v -8.985000 -11.887000 6.418000
v -12.477000 -11.887000 6.918000
v -10.002000 -11.887000 6.918000
v -12.514000 -11.887000 7.418000
v -10.769000 -11.887000 7.418000
v -11.950000 -7.887000 5.418000
v -10.432000 -7.887000 5.418000
v -13.029000 -7.887000 5.918000
v -8.017000 -7.887000 5.918000
v -13.560000 -7.887000 6.418000
v -7.769000 -7.887000 6.418000
v -13.783000 -7.887000 6.918000
v -7.771000 -7.887000 6.918000
v -13.987000 -7.887000 7.418000
v -7.925000 -7.887000 7.418000
v -14.057000 -7.887000 7.918000
v -7.983000 -7.887000 7.918000
v -14.297000 -7.887000 8.418000
v -8.109000 -7.887000 8.418000
v -14.575000 -7.887000 8.918000
v -8.515000 -7.887000 8.918000
v -14.767000 -7.887000 9.418000
v -8.906000 -7.887000 9.418000
v -14.976000 -7.887000 9.918000
v -9.197000 -7.887000 9.918000
v -15.180000 -7.887000 10.418000
v -9.747000 -7.887000 10.418000
v -15.253000 -7.887000 10.918000
v -10.472000 -7.887000 10.918000
v -15.243000 -7.887000 11.418000
v -11.178000 -7.887000 11.418000
v -15.032000 -7.887000 11.918000
v -11.668000 -7.887000 11.918000
v -14.419000 -7.887000 12.418000
v -12.195000 -7.887000 12.418000
v -12.107000 -11.887000 6.487000
v -12.107000 -11.887000 7.860000
v -11.607000 -11.887000 5.944000
v -11.607000 -11.887000 7.865000
v -11.107000 -11.887000 5.357000
v -11.107000 -11.887000 7.733000
v -10.607000 -11.887000 4.688000
v -10.607000 -11.887000 7.228000
v -10.107000 -11.887000 4.262000
v -10.107000 -11.887000 6.956000
v -9.607000 -11.887000 4.041000
v -9.607000 -11.887000 6.800000
v -9.107000 -11.887000 4.056000
v -9.107000 -11.887000 6.541000
v -8.607000 -11.887000 4.320000
v -8.607000 -11.887000 6.086000
v -15.107000 -7.887000 10.175000
v -15.107000 -7.887000 11.792000
v -14.607000 -7.887000 8.985000
v -14.607000 -7.887000 12.322000
v -14.107000 -7.887000 8.078000
v -14.107000 -7.887000 12.507000
v -13.607000 -7.887000 6.503000
v -13.607000 -7.887000 12.571000
v -13.107000 -7.887000 5.963000
v -13.107000 -7.887000 12.587000
v -12.607000 -7.887000 5.766000
v -12.607000 -7.887000 12.561000
v -12.107000 -7.887000 5.506000
v -12.107000 -7.887000 12.367000
v -11.607000 -7.887000 5.309000
v -11.607000 -7.887000 11.835000
v -11.107000 -7.887000 5.304000
v -11.107000 -7.887000 11.366000
v -10.607000 -7.887000 5.385000
v -10.607000 -7.887000 11.037000
v -10.107000 -7.887000 5.439000
v -10.107000 -7.887000 10.638000
v -9.607000 -7.887000 5.440000
v -9.607000 -7.887000 10.324000
v -9.107000 -7.887000 5.459000
v -9.107000 -7.887000 9.773000
v -8.607000 -7.887000 5.526000
v -8.607000 -7.887000 9.007000
v -8.107000 -7.887000 5.823000
v -8.107000 -7.887000 8.415000
v -12.607000 -11.044000 5.418000
v -12.607000 -8.596000 5.418000
v -12.107000 -11.297000 5.418000
v -12.107000 -8.080000 5.418000
v -11.607000 -11.575000 5.418000
v -11.607000 -7.601000 5.418000
v -11.107000 -11.916000 5.418000
v -11.107000 -7.645000 5.418000
v -10.607000 -12.335000 5.418000
v -10.607000 -7.846000 5.418000
v -10.107000 -12.518000 5.418000
v -10.107000 -7.910000 5.418000
v -9.607000 -12.527000 5.418000
v -9.607000 -7.911000 5.418000
v -9.107000 -12.490000 5.418000
v -9.107000 -7.925000 5.418000
v -8.607000 -12.275000 5.418000
v -8.607000 -7.978000 5.418000
v -8.107000 -11.647000 5.418000
v -8.107000 -8.215000 5.418000
v -14.607000 -9.210000 9.418000
v -14.607000 -7.369000 9.418000
v -14.107000 -9.882000 9.418000
v -14.107000 -6.876000 9.418000
v -13.607000 -10.273000 9.418000
v -13.607000 -6.707000 9.418000
v -13.107000 -10.395000 9.418000
v -13.107000 -6.388000 9.418000
v -12.607000 -10.333000 9.418000
v -12.607000 -5.951000 9.418000
v -12.107000 -10.107000 9.418000
v -12.107000 -5.768000 9.418000
v -11.607000 -9.919000 9.418000
v -11.607000 -5.727000 9.418000
v -11.107000 -9.864000 9.418000
v -11.107000 -5.712000 9.418000
v -10.607000 -9.866000 9.418000
v -10.607000 -5.749000 9.418000
v -10.107000 -10.082000 9.418000
v -10.107000 -5.957000 9.418000
v -9.607000 -10.315000 9.418000
v -9.607000 -6.469000 9.418000
v -9.107000 -10.320000 9.418000
v -9.107000 -7.536000 9.418000
v -8.607000 -10.081000 9.418000
v -8.607000 -8.267000 9.418000
v -9.890000 -11.387000 3.918000
v -8.896000 -11.387000 3.918000
v -10.566000 -11.387000 4.418000
v -8.261000 -11.387000 4.418000
v -11.199000 -11.387000 4.918000
v -8.045000 -11.387000 4.918000
v -11.888000 -11.387000 5.418000
v -8.033000 -11.387000 5.418000
v -12.438000 -11.387000 5.918000
v -8.163000 -11.387000 5.918000
v -12.761000 -11.387000 6.418000
v -8.409000 -11.387000 6.418000
v -13.016000 -11.387000 6.918000
v -9.060000 -11.387000 6.918000
v -13.036000 -11.387000 7.418000
v -9.859000 -11.387000 7.418000
v -12.827000 -11.387000 7.918000
v -10.384000 -11.387000 7.918000
v -12.414000 -7.387000 5.918000
v -8.984000 -7.387000 5.918000
v -13.310000 -7.387000 6.418000
v -8.346000 -7.387000 6.418000
v -13.534000 -7.387000 6.918000
v -8.159000 -7.387000 6.918000
v -13.538000 -7.387000 7.418000
v -8.153000 -7.387000 7.418000
v -13.549000 -7.387000 7.918000
v -8.221000 -7.387000 7.918000
v -13.803000 -7.387000 8.418000
v -8.485000 -7.387000 8.418000
v -14.335000 -7.387000 8.918000
v -8.943000 -7.387000 8.918000
v -14.617000 -7.387000 9.418000
v -9.195000 -7.387000 9.418000
v -14.975000 -7.387000 9.918000
v -9.396000 -7.387000 9.918000
v -15.184000 -7.387000 10.418000
v -9.729000 -7.387000 10.418000
v -15.237000 -7.387000 10.918000
v -10.247000 -7.387000 10.918000
v -15.226000 -7.387000 11.418000
v -10.897000 -7.387000 11.418000
v -15.012000 -7.387000 11.918000
v -11.639000 -7.387000 11.918000
v -14.376000 -7.387000 12.418000
v -12.176000 -7.387000 12.418000
v -12.607000 -11.387000 6.198000
v -12.607000 -11.387000 8.150000
v -12.107000 -11.387000 5.563000
v -12.107000 -11.387000 8.390000
v -11.607000 -11.387000 5.217000
v -11.607000 -11.387000 8.393000
v -11.107000 -11.387000 4.829000
v -11.107000 -11.387000 8.327000
v -10.607000 -11.387000 4.451000
v -10.607000 -11.387000 8.108000
v -10.107000 -11.387000 4.025000
v -10.107000 -11.387000 7.622000
v -9.607000 -11.387000 3.842000
v -9.607000 -11.387000 7.239000
v -9.107000 -11.387000 3.855000
v -9.107000 -11.387000 6.960000
v -8.607000 -11.387000 4.071000
v -8.607000 -11.387000 6.615000
v -8.107000 -11.387000 4.708000
v -8.107000 -11.387000 5.736000
v -15.107000 -7.387000 10.166000
v -15.107000 -7.387000 11.758000
v -14.607000 -7.387000 9.401000
v -14.607000 -7.387000 12.303000
v -14.107000 -7.387000 8.698000
v -14.107000 -7.387000 12.491000
v -13.607000 -7.387000 8.109000
v -13.607000 -7.387000 12.496000
v -13.107000 -7.387000 6.214000
v -13.107000 -7.387000 12.565000
v -12.607000 -7.387000 5.984000
v -12.607000 -7.387000 12.570000
v -12.107000 -7.387000 5.739000
v -12.107000 -7.387000 12.378000
v -11.607000 -7.387000 5.527000
v -11.607000 -7.387000 11.884000
v -11.107000 -7.387000 5.547000
v -11.107000 -7.387000 11.510000
v -10.607000 -7.387000 5.718000
v -10.607000 -7.387000 11.263000
v -10.107000 -7.387000 5.758000
v -10.107000 -7.387000 10.794000
v -9.607000 -7.387000 5.755000
v -9.607000 -7.387000 10.258000
v -9.107000 -7.387000 5.876000
v -9.107000 -7.387000 9.183000
v -8.607000 -7.387000 6.129000
v -8.607000 -7.387000 8.536000
v -13.107000 -10.657000 5.918000
v -13.107000 -8.082000 5.918000
v -12.607000 -11.270000 5.918000
v -12.607000 -7.492000 5.918000
v -12.107000 -11.642000 5.918000
v -12.107000 -7.195000 5.918000
v -11.607000 -11.874000 5.918000
v -11.607000 -6.940000 5.918000
v -11.107000 -12.061000 5.918000
v -11.107000 -6.955000 5.918000
v -10.607000 -12.323000 5.918000
v -10.607000 -7.049000 5.918000
v -10.107000 -12.508000 5.918000
v -10.107000 -6.995000 5.918000
v -9.607000 -12.497000 5.918000
v -9.607000 -6.988000 5.918000
v -9.107000 -12.321000 5.918000
v -9.107000 -7.324000 5.918000
v -8.607000 -12.048000 5.918000
v -8.607000 -7.531000 5.918000
v -8.107000 -11.277000 5.918000
v -8.107000 -7.797000 5.918000
v -7.607000 -9.773000 5.918000
v -7.607000 -8.551000 5.918000
v -14.607000 -9.407000 9.918000
v -14.607000 -6.754000 9.918000
v -14.107000 -10.147000 9.918000
v -14.107000 -6.492000 9.918000
v -13.607000 -10.380000 9.918000
v -13.607000 -6.408000 9.918000
v -13.107000 -10.407000 9.918000
v -13.107000 -6.234000 9.918000
v -12.607000 -10.243000 9.918000
v -12.607000 -5.943000 9.918000
v -12.107000 -9.905000 9.918000
v -12.107000 -5.747000 9.918000
v -11.607000 -9.625000 9.918000
v -11.607000 -5.738000 9.918000
v -11.107000 -9.412000 9.918000
v -11.107000 -5.735000 9.918000
v -10.607000 -9.336000 9.918000
v -10.607000 -5.750000 9.918000
v -10.107000 -9.436000 9.918000
v -10.107000 -5.966000 9.918000
v -9.607000 -9.705000 9.918000
v -9.607000 -6.602000 9.918000
v -9.107000 -9.714000 9.918000
v -9.107000 -8.272000 9.918000
v -9.966000 -10.887000 3.918000
v -8.731000 -10.887000 3.918000
v -10.829000 -10.887000 4.418000
v -8.178000 -10.887000 4.418000
v -11.865000 -10.887000 4.918000
v -7.986000 -10.887000 4.918000
v -12.763000 -10.887000 5.418000
v -7.965000 -10.887000 5.418000
v -12.984000 -10.887000 5.918000
v -7.959000 -10.887000 5.918000
v -13.061000 -10.887000 6.418000
v -8.140000 -10.887000 6.418000
v -13.201000 -10.887000 6.918000
v -8.421000 -10.887000 6.918000
v -13.230000 -10.887000 7.418000
v -8.612000 -10.887000 7.418000
v -13.126000 -10.887000 7.918000
v -8.702000 -10.887000 7.918000
v -12.814000 -10.887000 8.418000
v -10.294000 -10.887000 8.418000
v -12.426000 -6.887000 6.418000
v -8.910000 -6.887000 6.418000
v -12.928000 -6.887000 6.918000
v -8.666000 -6.887000 6.918000
v -12.917000 -6.887000 7.418000
v -8.647000 -6.887000 7.418000
v -12.952000 -6.887000 7.918000
v -8.698000 -6.887000 7.918000
v -13.099000 -6.887000 8.418000
v -8.938000 -6.887000 8.418000
v -13.474000 -6.887000 8.918000
v -9.211000 -6.887000 8.918000
v -14.127000 -6.887000 9.418000
v -9.448000 -6.887000 9.418000
v -14.735000 -6.887000 9.918000
v -9.531000 -6.887000 9.918000
v -14.988000 -6.887000 10.418000
v -9.729000 -6.887000 10.418000
v -15.022000 -6.887000 10.918000
v -10.249000 -6.887000 10.918000
v -15.005000 -6.887000 11.418000
v -10.937000 -6.887000 11.418000
v -14.737000 -6.887000 11.918000
v -11.871000 -6.887000 11.918000
v -13.107000 -10.887000 6.601000
v -13.107000 -10.887000 7.971000
v -12.607000 -10.887000 5.251000
v -12.607000 -10.887000 8.550000
v -12.107000 -10.887000 4.990000
v -12.107000 -10.887000 8.645000
v -11.607000 -10.887000 4.784000
v -11.607000 -10.887000 8.596000
v -11.107000 -10.887000 4.524000
v -11.107000 -10.887000 8.554000
v -10.607000 -10.887000 4.316000
v -10.607000 -10.887000 8.490000
v -10.107000 -10.887000 3.997000
v -10.107000 -10.887000 8.368000
v -9.607000 -10.887000 3.798000
v -9.607000 -10.887000 8.349000
v -9.107000 -10.887000 3.794000
v -9.107000 -10.887000 8.332000
v -8.607000 -10.887000 3.988000
v -8.607000 -10.887000 7.401000
v -8.107000 -10.887000 4.545000
v -8.107000 -10.887000 6.357000
v -14.607000 -6.887000 9.789000
v -14.607000 -6.887000 12.040000
v -14.107000 -6.887000 9.401000
v -14.107000 -6.887000 12.272000
v -13.607000 -6.887000 9.009000
v -13.607000 -6.887000 12.284000
v -13.107000 -6.887000 8.433000
v -13.107000 -6.887000 12.377000
v -12.607000 -6.887000 6.558000
v -12.607000 -6.887000 12.383000
v -12.107000 -6.887000 6.190000
v -12.107000 -6.887000 12.153000
v -11.607000 -6.887000 5.961000
v -11.607000 -6.887000 11.699000
v -11.107000 -6.887000 5.971000
v -11.107000 -6.887000 11.470000
v -10.607000 -6.887000 6.017000
v -10.607000 -6.887000 11.246000
v -10.107000 -6.887000 5.982000
v -10.107000 -6.887000 10.809000
v -9.607000 -6.887000 5.978000
v -9.607000 -6.887000 10.183000
v -9.107000 -6.887000 6.215000
v -9.107000 -6.887000 8.742000
v -13.607000 -9.720000 6.418000
v -13.607000 -8.386000 6.418000
v -13.107000 -10.754000 6.418000
v -13.107000 -7.196000 6.418000
v -12.607000 -11.539000 6.418000
v -12.607000 -6.967000 6.418000
v -12.107000 -11.866000 6.418000
v -12.107000 -6.663000 6.418000
v -11.607000 -12.047000 6.418000
v -11.607000 -6.438000 6.418000
v -11.107000 -12.089000 6.418000
v -11.107000 -6.393000 6.418000
v -10.607000 -12.167000 6.418000
v -10.607000 -6.419000 6.418000
v -10.107000 -12.298000 6.418000
v -10.107000 -6.427000 6.418000
v -9.607000 -12.283000 6.418000
v -9.607000 -6.462000 6.418000
v -9.107000 -12.016000 6.418000
v -9.107000 -6.693000 6.418000
v -8.607000 -11.567000 6.418000
v -8.607000 -7.202000 6.418000
v -8.107000 -10.786000 6.418000
v -8.107000 -7.551000 6.418000
v -7.607000 -9.817000 6.418000
v -7.607000 -8.190000 6.418000
v -15.107000 -8.135000 10.418000
v -15.107000 -7.120000 10.418000
v -14.607000 -9.847000 10.418000
v -14.607000 -6.495000 10.418000
v -14.107000 -10.363000 10.418000
v -14.107000 -6.282000 10.418000
v -13.607000 -10.543000 10.418000
v -13.607000 -6.261000 10.418000
v -13.107000 -10.528000 10.418000
v -13.107000 -6.192000 10.418000
v -12.607000 -10.311000 10.418000
v -12.607000 -5.968000 10.418000
v -12.107000 -9.825000 10.418000
v -12.107000 -5.759000 10.418000
v -11.607000 -9.385000 10.418000
v -11.607000 -5.750000 10.418000
v -11.107000 -9.068000 10.418000
v -11.107000 -5.837000 10.418000
v -10.607000 -8.826000 10.418000
v -10.607000 -5.950000 10.418000
v -10.107000 -8.708000 10.418000
v -10.107000 -6.213000 10.418000
v -9.982000 -10.387000 3.918000
v -8.720000 -10.387000 3.918000
v -11.333000 -10.387000 4.418000
v -8.174000 -10.387000 4.418000
v -12.483000 -10.387000 4.918000
v -7.982000 -10.387000 4.918000
v -13.008000 -10.387000 5.418000
v -7.927000 -10.387000 5.418000
v -13.190000 -10.387000 5.918000
v -7.876000 -10.387000 5.918000
v -13.221000 -10.387000 6.418000
v -7.940000 -10.387000 6.418000
v -13.312000 -10.387000 6.918000
v -8.080000 -10.387000 6.918000
v -13.461000 -10.387000 7.418000
v -8.158000 -10.387000 7.418000
v -13.486000 -10.387000 7.918000
v -8.160000 -10.387000 7.918000
v -13.543000 -10.387000 8.418000
v -8.262000 -10.387000 8.418000
v -13.487000 -10.387000 8.918000
v -11.703000 -10.387000 8.918000
v -10.438000 -10.387000 8.918000
v -8.692000 -10.387000 8.918000
v -13.202000 -10.387000 9.418000
v -12.867000 -10.387000 9.418000
v -13.578000 -10.387000 9.918000
v -12.990000 -10.387000 9.918000
v -14.066000 -10.387000 10.418000
v -12.730000 -10.387000 10.418000
v -14.045000 -10.387000 10.918000
v -12.749000 -10.387000 10.918000
v -13.958000 -10.387000 11.418000
v -12.825000 -10.387000 11.418000
v -12.009000 -6.387000 6.918000
v -9.253000 -6.387000 6.918000
v -12.102000 -6.387000 7.418000
v -9.141000 -6.387000 7.418000
v -12.348000 -6.387000 7.918000
v -9.157000 -6.387000 7.918000
v -12.576000 -6.387000 8.418000
v -9.224000 -6.387000 8.418000
v -12.820000 -6.387000 8.918000
v -9.450000 -6.387000 8.918000
v -13.107000 -6.387000 9.418000
v -9.659000 -6.387000 9.418000
v -13.527000 -6.387000 9.918000
v -9.713000 -6.387000 9.918000
v -14.421000 -6.387000 10.418000
v -9.947000 -6.387000 10.418000
v -14.442000 -6.387000 10.918000
v -10.554000 -6.387000 10.918000
v -14.343000 -6.387000 11.418000
v -11.859000 -6.387000 11.418000
v -13.607000 -10.387000 9.937000
v -13.607000 -10.387000 11.769000
v -13.107000 -10.387000 5.617000
v -13.107000 -10.387000 11.738000
v -12.607000 -10.387000 4.994000
v -12.607000 -10.387000 9.278000
v -12.107000 -10.387000 4.781000
v -12.107000 -10.387000 9.011000
v -11.607000 -10.387000 4.563000
v -11.607000 -10.387000 8.902000
v -11.107000 -10.387000 4.351000
v -11.107000 -10.387000 8.884000
v -10.607000 -10.387000 4.250000
v -10.607000 -10.387000 8.892000
v -10.107000 -10.387000 3.990000
v -10.107000 -10.387000 9.017000
v -9.607000 -10.387000 3.790000
v -9.607000 -10.387000 9.300000
v -9.107000 -10.387000 3.788000
v -9.107000 -10.387000 9.307000
v -8.607000 -10.387000 3.982000
v -8.607000 -10.387000 8.813000
v -8.107000 -10.387000 4.537000
v -8.107000 -10.387000 7.021000
v -14.107000 -6.387000 10.102000
v -14.107000 -6.387000 11.627000
v -13.607000 -6.387000 9.964000
v -13.607000 -6.387000 11.690000
v -13.107000 -6.387000 9.419000
v -13.107000 -6.387000 11.833000
v -12.607000 -6.387000 8.525000
v -12.607000 -6.387000 11.843000
v -12.107000 -6.387000 7.435000
v -12.107000 -6.387000 11.524000
v -11.607000 -6.387000 6.510000
v -11.607000 -6.387000 11.336000
v -11.107000 -6.387000 6.424000
v -11.107000 -6.387000 11.248000
v -10.607000 -6.387000 6.442000
v -10.607000 -6.387000 10.971000
v -10.107000 -6.387000 6.458000
v -10.107000 -6.387000 10.585000
v -9.607000 -6.387000 6.554000
v -9.607000 -6.387000 9.230000
v -13.607000 -9.801000 6.918000
v -13.607000 -7.509000 6.918000
v -13.107000 -11.211000 6.918000
v -13.107000 -6.979000 6.918000
v -12.607000 -11.810000 6.918000
v -12.607000 -6.766000 6.918000
v -12.107000 -12.015000 6.918000
v -12.107000 -6.443000 6.918000
v -11.607000 -12.054000 6.918000
v -11.607000 -6.170000 6.918000
v -11.107000 -12.027000 6.918000
v -11.107000 -5.927000 6.918000
v -10.607000 -11.988000 6.918000
v -10.607000 -5.908000 6.918000
v -10.107000 -11.916000 6.918000
v -10.107000 -5.956000 6.918000
v -9.607000 -11.713000 6.918000
v -9.607000 -6.174000 6.918000
v -9.107000 -11.422000 6.918000
v -9.107000 -6.473000 6.918000
v -8.607000 -11.097000 6.918000
v -8.607000 -6.942000 6.918000
v -8.107000 -10.421000 6.918000
v -8.107000 -7.457000 6.918000
v -7.607000 -9.788000 6.918000
v -7.607000 -8.195000 6.918000
v -15.107000 -8.328000 10.918000
v -15.107000 -7.031000 10.918000
v -14.607000 -9.832000 10.918000
v -14.607000 -6.480000 10.918000
v -14.107000 -10.352000 10.918000
v -14.107000 -6.275000 10.918000
v -13.607000 -10.533000 10.918000
v -13.607000 -6.251000 10.918000
v -13.107000 -10.518000 10.918000
v -13.107000 -6.224000 10.918000
v -12.607000 -10.300000 10.918000
v -12.607000 -6.105000 10.918000
v -12.107000 -9.747000 10.918000
v -12.107000 -5.966000 10.918000
v -11.607000 -9.138000 10.918000
v -11.607000 -5.956000 10.918000
v -11.107000 -8.570000 10.918000
v -11.107000 -6.057000 10.918000
v -10.607000 -8.036000 10.918000
v -10.607000 -6.334000 10.918000
f 199 607 665
f 665 607 807
f 807 607 749
f 807 749 957
f 957 749 887
f 957 887 69
f 69 887 1
f 1 200 69
f 667 201 665
f 665 201 199
f 665 809 667
f 665 807 809
f 807 959 809
f 807 957 959
f 957 71 959
f 957 69 71
f 69 200 71
f 71 200 202
f 667 608 201
f 608 667 750
f 750 667 809
f 750 809 888
f 888 809 959
f 888 959 2
f 2 959 71
f 71 202 2
f 203 255 87
f 87 255 253
f 255 367 253
f 369 367 255
f 369 204 367
f 367 204 88
f 205 17 89
f 89 17 15
f 17 145 15
f 147 145 17
f 87 145 147
f 87 147 203
f 493 88 204
f 493 204 495
f 495 206 493
f 493 206 90
f 207 765 91
f 91 765 763
f 765 901 763
f 903 901 765
f 89 901 903
f 89 903 205
f 631 90 206
f 631 206 633
f 633 208 631
f 631 208 92
f 209 623 93
f 93 623 621
f 91 621 623
f 91 623 207
f 773 92 208
f 773 208 775
f 775 210 773
f 773 210 94
f 516 483 95
f 93 483 516
f 211 93 516
f 209 93 211
f 210 925 973
f 96 210 973
f 94 210 96
f 925 212 973
f 97 518 95
f 95 518 516
f 211 516 518
f 211 518 213
f 973 923 96
f 212 39 79
f 212 79 98
f 973 212 98
f 923 973 98
f 39 214 79
f 99 520 97
f 97 520 518
f 213 518 520
f 213 520 215
f 79 37 98
f 79 214 37
f 214 100 37
f 214 216 100
f 484 520 99
f 215 520 484
f 101 215 484
f 217 215 101
f 100 218 102
f 216 218 100
f 624 217 664
f 217 103 664
f 217 101 103
f 219 624 664
f 102 220 104
f 218 220 102
f 622 664 103
f 219 664 622
f 105 219 622
f 221 219 105
f 40 222 106
f 40 106 38
f 38 104 40
f 40 104 220
f 223 105 107
f 223 221 105
f 926 224 108
f 926 108 924
f 924 106 926
f 926 106 222
f 107 764 223
f 223 764 766
f 225 766 764
f 225 764 109
f 776 226 110
f 776 110 774
f 774 108 776
f 776 108 224
f 109 902 225
f 225 902 904
f 227 904 902
f 227 902 111
f 634 228 112
f 634 112 632
f 632 110 634
f 634 110 226
f 111 16 227
f 227 16 18
f 229 18 16
f 229 16 113
f 370 230 114
f 370 114 368
f 494 370 368
f 494 496 370
f 494 112 496
f 496 112 228
f 113 146 229
f 229 146 148
f 254 148 146
f 254 256 148
f 254 114 256
f 256 114 230
f 532 509 115
f 674 647 532
f 532 647 509
f 674 116 647
f 170 163 117
f 231 271 170
f 271 163 170
f 271 269 163
f 271 383 269
f 385 383 271
f 511 532 115
f 383 511 115
f 385 511 383
f 532 511 649
f 532 649 674
f 789 116 674
f 649 789 674
f 791 789 649
f 791 232 789
f 789 232 118
f 233 35 119
f 119 35 33
f 165 170 117
f 33 165 117
f 35 165 33
f 231 170 165
f 234 966 939
f 118 234 939
f 232 234 118
f 966 120 939
f 942 919 121
f 119 919 942
f 235 119 942
f 233 119 235
f 236 968 966
f 236 966 234
f 120 966 122
f 122 966 968
f 123 944 121
f 121 944 942
f 235 942 944
f 235 944 237
f 238 970 968
f 238 968 236
f 122 968 124
f 124 968 970
f 920 944 123
f 237 944 920
f 125 237 920
f 239 237 125
f 240 972 970
f 240 970 238
f 124 970 126
f 126 970 972
f 125 34 239
f 239 34 36
f 34 127 180
f 166 34 180
f 36 34 166
f 166 180 286
f 166 286 272
f 241 272 286
f 242 974 972
f 242 972 240
f 126 972 128
f 128 972 974
f 164 180 127
f 270 286 164
f 164 286 180
f 386 241 408
f 408 241 129
f 241 286 129
f 286 270 129
f 386 408 546
f 386 546 512
f 512 546 688
f 512 688 650
f 650 688 828
f 650 828 792
f 974 242 792
f 974 792 828
f 940 974 828
f 130 940 828
f 128 974 940
f 384 408 129
f 510 546 384
f 384 546 408
f 131 690 510
f 690 546 510
f 690 688 546
f 830 688 690
f 828 688 830
f 130 828 132
f 132 828 830
f 648 690 131
f 790 830 648
f 648 830 690
f 132 830 790
f 305 889 951
f 951 889 63
f 63 889 3
f 63 3 183
f 183 3 133
f 133 306 183
f 307 751 803
f 305 951 751
f 951 803 751
f 951 953 803
f 951 65 953
f 951 63 65
f 63 185 65
f 63 183 185
f 183 306 185
f 185 306 308
f 309 471 523
f 523 471 663
f 663 471 609
f 307 803 609
f 803 663 609
f 803 805 663
f 803 955 805
f 803 953 955
f 953 67 955
f 953 65 67
f 65 187 67
f 65 185 187
f 185 308 187
f 187 308 310
f 525 311 523
f 523 311 309
f 663 607 199
f 525 663 199
f 523 663 525
f 805 749 607
f 805 607 663
f 955 887 749
f 955 749 805
f 67 1 887
f 67 887 955
f 189 200 1
f 67 189 1
f 187 189 67
f 187 310 189
f 189 310 312
f 527 313 525
f 525 313 311
f 525 199 201
f 525 201 527
f 191 202 200
f 191 200 189
f 189 312 191
f 191 312 314
f 529 315 527
f 527 315 313
f 527 201 608
f 669 527 608
f 529 527 669
f 750 811 669
f 750 669 608
f 888 961 811
f 888 811 750
f 2 73 961
f 2 961 888
f 73 2 202
f 191 73 202
f 193 73 191
f 191 314 193
f 193 314 316
f 529 472 315
f 472 529 610
f 610 529 669
f 610 669 752
f 752 669 811
f 752 811 890
f 890 811 961
f 890 961 4
f 4 961 73
f 4 73 134
f 134 73 193
f 193 316 134
f 317 149 171
f 171 149 203
f 149 255 203
f 149 257 255
f 257 369 255
f 371 369 257
f 204 369 535
f 369 497 535
f 369 371 497
f 497 318 535
f 319 19 205
f 205 19 17
f 19 317 171
f 147 19 171
f 17 19 147
f 171 203 147
f 535 495 204
f 318 635 679
f 318 679 206
f 535 318 206
f 495 535 206
f 635 320 679
f 794 765 207
f 321 905 794
f 905 765 794
f 905 903 765
f 205 903 905
f 205 905 319
f 679 633 206
f 679 320 633
f 320 208 633
f 320 322 208
f 654 623 209
f 767 794 207
f 767 207 623
f 323 767 623
f 654 323 623
f 321 794 767
f 775 208 322
f 775 322 777
f 777 324 775
f 775 324 210
f 211 656 209
f 209 656 654
f 323 654 656
f 323 656 325
f 925 210 324
f 925 324 927
f 927 326 925
f 925 326 212
f 213 658 211
f 211 658 656
f 325 656 658
f 325 658 327
f 39 212 326
f 39 326 41
f 41 328 39
f 39 328 214
f 215 660 213
f 213 660 658
f 327 658 660
f 327 660 329
f 214 330 216
f 328 330 214
f 217 662 215
f 215 662 660
f 329 660 662
f 329 662 331
f 216 332 218
f 330 332 216
f 624 662 217
f 768 331 806
f 806 331 219
f 331 662 219
f 662 624 219
f 333 768 806
f 218 334 220
f 332 334 218
f 221 808 219
f 219 808 806
f 333 806 808
f 333 808 335
f 42 336 222
f 42 222 40
f 40 220 42
f 42 220 334
f 223 810 221
f 221 810 808
f 335 808 810
f 335 810 337
f 928 338 224
f 928 224 926
f 926 222 928
f 928 222 336
f 766 810 223
f 337 810 766
f 225 337 766
f 339 337 225
f 778 340 226
f 778 226 776
f 776 224 778
f 778 224 338
f 225 904 339
f 339 904 906
f 341 906 904
f 341 904 227
f 498 342 560
f 498 560 228
f 634 498 228
f 636 498 634
f 634 226 636
f 636 226 340
f 227 18 341
f 341 18 20
f 343 20 18
f 343 18 229
f 372 344 230
f 372 230 370
f 342 372 560
f 372 496 560
f 372 370 496
f 228 560 496
f 229 148 343
f 343 148 150
f 256 150 148
f 256 258 150
f 256 230 258
f 258 230 344
f 276 271 231
f 396 385 276
f 276 385 271
f 534 511 396
f 396 511 385
f 676 649 534
f 534 649 511
f 816 791 676
f 676 791 649
f 816 232 791
f 52 35 233
f 172 165 52
f 52 165 35
f 165 172 231
f 172 276 231
f 172 278 276
f 398 276 278
f 396 276 398
f 398 345 513
f 534 398 513
f 396 398 534
f 534 513 651
f 534 651 676
f 676 651 346
f 818 676 346
f 816 676 818
f 232 816 234
f 234 816 818
f 235 54 233
f 233 54 52
f 54 347 167
f 172 54 167
f 52 54 172
f 172 167 273
f 172 273 278
f 278 273 387
f 278 387 398
f 345 398 387
f 348 820 818
f 348 818 346
f 234 818 236
f 236 818 820
f 237 56 235
f 235 56 54
f 347 54 56
f 347 56 349
f 350 822 820
f 350 820 348
f 236 820 238
f 238 820 822
f 239 58 237
f 237 58 56
f 178 168 349
f 56 178 349
f 58 178 56
f 168 178 284
f 168 284 274
f 274 284 404
f 274 404 388
f 351 388 404
f 352 824 822
f 352 822 350
f 238 822 240
f 240 822 824
f 36 58 239
f 166 178 36
f 36 178 58
f 272 284 166
f 166 284 178
f 241 406 272
f 406 284 272
f 406 404 284
f 544 514 351
f 404 544 351
f 406 544 404
f 514 544 686
f 514 686 652
f 824 352 652
f 686 824 652
f 826 824 686
f 240 824 242
f 242 824 826
f 386 406 241
f 512 544 386
f 386 544 406
f 650 686 512
f 512 686 544
f 792 826 650
f 650 826 686
f 242 826 792
f 425 891 947
f 947 891 59
f 59 891 5
f 59 5 179
f 179 5 135
f 135 426 179
f 427 753 799
f 425 947 753
f 947 799 753
f 947 949 799
f 947 61 949
f 947 59 61
f 59 181 61
f 59 179 181
f 243 287 426
f 287 179 426
f 287 181 179
f 243 428 287
f 429 611 659
f 427 799 611
f 799 659 611
f 799 801 659
f 949 889 305
f 801 949 305
f 799 949 801
f 61 3 889
f 61 889 949
f 181 133 3
f 181 3 61
f 289 306 133
f 181 289 133
f 287 289 181
f 287 428 289
f 289 428 430
f 431 473 521
f 429 659 473
f 659 521 473
f 659 661 521
f 801 751 307
f 661 801 307
f 659 801 661
f 801 305 751
f 291 308 306
f 291 306 289
f 289 430 291
f 291 430 432
f 471 309 521
f 309 431 521
f 309 433 431
f 661 609 471
f 661 471 521
f 661 307 609
f 293 310 308
f 293 308 291
f 291 432 293
f 293 432 434
f 435 353 391
f 311 391 353
f 433 311 353
f 309 311 433
f 295 312 310
f 295 310 293
f 293 434 295
f 295 434 436
f 393 437 391
f 391 437 435
f 391 311 313
f 391 313 393
f 297 314 312
f 297 312 295
f 295 436 297
f 297 436 438
f 393 354 437
f 439 354 393
f 313 439 393
f 315 439 313
f 299 316 314
f 299 314 297
f 297 438 299
f 299 438 440
f 315 472 439
f 439 472 474
f 610 671 441
f 474 610 441
f 472 610 474
f 752 813 671
f 752 671 610
f 890 963 813
f 890 813 752
f 4 75 963
f 4 963 890
f 134 195 75
f 134 75 4
f 299 244 316
f 316 244 134
f 244 442 134
f 442 195 134
f 299 440 244
f 671 612 441
f 612 671 754
f 754 671 813
f 754 813 892
f 892 813 963
f 892 963 6
f 6 963 75
f 6 75 136
f 136 75 195
f 195 442 136
f 443 259 275
f 275 259 395
f 395 259 373
f 373 444 395
f 445 151 317
f 317 151 149
f 151 443 275
f 257 151 275
f 149 151 257
f 395 371 257
f 395 257 275
f 371 395 444
f 499 371 444
f 497 371 499
f 318 497 677
f 497 637 677
f 497 499 637
f 637 446 677
f 447 21 319
f 319 21 19
f 317 19 21
f 317 21 445
f 677 635 318
f 677 446 635
f 446 320 635
f 446 448 320
f 449 907 321
f 321 907 905
f 319 905 907
f 319 907 447
f 448 779 821
f 322 448 821
f 320 448 322
f 779 450 821
f 796 767 323
f 321 767 796
f 451 321 796
f 449 321 451
f 821 777 322
f 450 929 971
f 450 971 324
f 821 450 324
f 777 821 324
f 929 452 971
f 325 798 323
f 323 798 796
f 451 796 798
f 451 798 453
f 971 927 324
f 452 43 77
f 452 77 326
f 971 452 326
f 927 971 326
f 43 454 77
f 327 800 325
f 325 800 798
f 950 908 453
f 798 950 453
f 800 950 798
f 455 908 950
f 77 41 326
f 77 454 41
f 454 328 41
f 454 456 328
f 329 802 327
f 327 802 800
f 952 800 802
f 950 800 952
f 455 950 952
f 455 952 457
f 328 458 330
f 456 458 328
f 331 804 329
f 329 804 802
f 954 802 804
f 952 802 954
f 457 952 954
f 457 954 459
f 330 460 332
f 458 460 330
f 768 804 331
f 954 804 768
f 461 954 768
f 333 461 768
f 909 954 461
f 459 954 909
f 44 462 86
f 86 334 44
f 334 460 44
f 334 332 460
f 463 333 335
f 463 461 333
f 336 42 86
f 462 336 86
f 464 336 462
f 334 86 42
f 465 335 337
f 465 463 335
f 780 466 838
f 780 838 338
f 928 780 338
f 930 780 928
f 928 336 930
f 930 336 464
f 910 465 962
f 465 339 962
f 465 337 339
f 467 910 962
f 638 468 700
f 838 466 638
f 838 638 700
f 778 838 700
f 340 778 700
f 338 838 778
f 906 962 339
f 467 962 906
f 341 467 906
f 469 467 341
f 500 470 342
f 500 342 498
f 468 500 700
f 500 636 700
f 500 498 636
f 340 700 636
f 341 20 469
f 469 20 22
f 20 343 198
f 152 20 198
f 22 20 152
f 152 198 304
f 152 304 260
f 260 304 344
f 372 260 344
f 374 260 372
f 372 342 374
f 374 342 470
f 150 198 343
f 258 304 150
f 150 304 198
f 344 304 258
f 536 513 345
f 678 651 536
f 536 651 513
f 678 346 651
f 174 167 347
f 280 273 174
f 174 273 167
f 400 387 280
f 280 387 273
f 387 400 345
f 400 536 345
f 400 538 536
f 680 536 538
f 678 536 680
f 346 678 348
f 348 678 680
f 349 176 347
f 347 176 174
f 282 174 176
f 280 174 282
f 402 280 282
f 400 280 402
f 540 400 402
f 538 400 540
f 682 538 540
f 680 538 682
f 348 680 350
f 350 680 682
f 168 176 349
f 274 282 168
f 168 282 176
f 388 402 274
f 274 402 282
f 351 542 388
f 542 402 388
f 542 540 402
f 684 540 542
f 682 540 684
f 350 682 352
f 352 682 684
f 514 542 351
f 652 684 514
f 514 684 542
f 352 684 652
f 561 755 795
f 795 755 945
f 945 755 893
f 945 893 57
f 57 893 7
f 57 7 177
f 177 7 137
f 177 137 283
f 283 137 245
f 245 562 283
f 797 563 795
f 795 563 561
f 945 891 425
f 797 945 425
f 795 945 797
f 57 5 891
f 57 891 945
f 177 135 5
f 177 5 57
f 285 426 135
f 177 285 135
f 283 285 177
f 359 405 562
f 405 283 562
f 405 285 283
f 359 564 405
f 565 613 657
f 563 797 613
f 613 797 657
f 797 753 657
f 753 427 657
f 797 425 753
f 285 243 426
f 407 428 243
f 285 407 243
f 405 407 285
f 485 545 564
f 545 405 564
f 545 407 405
f 485 566 545
f 567 475 519
f 565 657 475
f 475 657 519
f 657 611 519
f 611 429 519
f 657 427 611
f 409 430 428
f 409 428 407
f 407 547 409
f 407 545 547
f 545 566 547
f 547 566 568
f 473 431 519
f 431 567 519
f 431 569 567
f 519 429 473
f 411 432 430
f 411 430 409
f 409 549 411
f 409 547 549
f 547 568 549
f 549 568 570
f 571 355 389
f 433 389 355
f 569 433 355
f 431 433 569
f 413 434 432
f 413 432 411
f 572 413 486
f 413 549 486
f 413 411 549
f 549 570 486
f 353 435 389
f 435 571 389
f 435 573 571
f 389 433 353
f 415 436 434
f 415 434 413
f 413 572 415
f 415 572 574
f 575 435 437
f 575 573 435
f 417 438 436
f 417 436 415
f 415 574 417
f 417 574 576
f 437 354 575
f 575 354 356
f 577 356 354
f 577 354 439
f 419 440 438
f 419 438 417
f 417 576 419
f 419 576 578
f 439 474 577
f 577 474 476
f 579 476 474
f 579 474 441
f 244 301 442
f 301 244 440
f 419 301 440
f 421 301 419
f 419 578 421
f 421 578 580
f 441 612 579
f 579 612 614
f 754 614 612
f 754 756 614
f 892 756 754
f 892 894 756
f 6 894 892
f 6 8 894
f 136 8 6
f 136 138 8
f 301 246 442
f 246 136 442
f 246 138 136
f 246 301 360
f 360 301 421
f 421 580 360
f 581 261 443
f 443 261 259
f 261 373 259
f 375 373 261
f 444 373 533
f 373 501 533
f 373 375 501
f 533 501 675
f 675 501 639
f 639 582 675
f 583 153 445
f 445 153 151
f 443 151 153
f 443 153 581
f 533 499 444
f 675 637 499
f 675 499 533
f 582 781 817
f 582 817 446
f 675 582 446
f 637 675 446
f 781 584 817
f 585 23 447
f 447 23 21
f 445 21 23
f 445 23 583
f 819 448 446
f 819 446 817
f 817 584 819
f 819 584 586
f 587 911 449
f 449 911 907
f 447 907 911
f 447 911 585
f 819 779 448
f 819 586 779
f 586 450 779
f 586 588 450
f 912 587 946
f 587 451 946
f 587 449 451
f 589 912 946
f 929 450 588
f 929 588 931
f 931 590 929
f 929 590 452
f 453 948 451
f 451 948 946
f 589 946 948
f 589 948 591
f 43 452 590
f 43 590 45
f 45 592 43
f 43 592 454
f 908 948 453
f 591 948 908
f 455 591 908
f 593 591 455
f 454 594 456
f 592 594 454
f 24 593 64
f 593 457 64
f 593 455 457
f 595 24 64
f 456 596 458
f 594 596 456
f 459 66 457
f 457 66 64
f 595 64 66
f 595 66 597
f 458 598 460
f 596 598 458
f 956 909 461
f 25 66 459
f 25 459 909
f 599 25 909
f 956 599 909
f 597 66 25
f 46 600 462
f 46 462 44
f 44 460 46
f 46 460 598
f 463 958 461
f 461 958 956
f 599 956 958
f 599 958 601
f 932 602 984
f 984 464 932
f 464 600 932
f 464 462 600
f 465 960 463
f 463 960 958
f 601 958 960
f 601 960 603
f 640 604 698
f 640 698 466
f 780 640 466
f 782 640 780
f 602 782 984
f 782 930 984
f 782 780 930
f 464 984 930
f 910 960 465
f 603 960 910
f 467 603 910
f 605 603 467
f 502 606 558
f 698 604 502
f 698 502 558
f 638 698 558
f 468 638 558
f 466 698 638
f 26 605 76
f 605 469 76
f 605 467 469
f 26 76 196
f 26 196 154
f 154 196 302
f 154 302 262
f 262 302 422
f 262 422 376
f 558 606 376
f 558 376 422
f 500 558 422
f 470 500 422
f 468 558 500
f 22 76 469
f 152 196 22
f 22 196 76
f 260 302 152
f 152 302 196
f 374 422 260
f 260 422 302
f 470 422 374
f 701 895 943
f 943 895 55
f 55 895 9
f 55 9 175
f 175 9 139
f 175 139 281
f 281 139 247
f 281 247 401
f 401 247 361
f 361 702 401
f 703 757 561
f 561 757 755
f 757 701 943
f 893 757 943
f 755 757 893
f 55 7 893
f 55 893 943
f 175 137 7
f 175 7 55
f 281 245 137
f 281 137 175
f 403 562 245
f 281 403 245
f 401 403 281
f 487 541 702
f 541 401 702
f 541 403 401
f 487 704 541
f 705 615 655
f 563 655 615
f 703 563 615
f 561 563 703
f 403 359 562
f 543 564 359
f 403 543 359
f 541 543 403
f 625 685 704
f 685 541 704
f 685 543 541
f 625 706 685
f 613 565 655
f 565 705 655
f 565 707 705
f 655 563 613
f 543 485 564
f 687 566 485
f 543 687 485
f 685 687 543
f 685 706 687
f 687 706 708
f 709 477 567
f 567 477 475
f 565 475 477
f 565 477 707
f 689 568 566
f 689 566 687
f 687 708 689
f 689 708 710
f 711 567 569
f 711 709 567
f 691 570 568
f 691 568 689
f 689 710 691
f 691 710 712
f 713 357 571
f 571 357 355
f 569 355 357
f 569 357 711
f 486 551 572
f 551 486 570
f 691 551 570
f 693 551 691
f 691 712 693
f 693 712 714
f 715 571 573
f 715 713 571
f 553 574 572
f 553 572 551
f 551 695 553
f 551 693 695
f 693 714 695
f 695 714 716
f 358 715 394
f 715 575 394
f 715 573 575
f 717 358 394
f 555 576 574
f 555 574 553
f 553 697 555
f 553 695 697
f 695 716 697
f 697 716 718
f 356 394 575
f 717 394 356
f 577 717 356
f 719 717 577
f 557 578 576
f 557 576 555
f 720 557 626
f 557 697 626
f 557 555 697
f 697 718 626
f 577 476 719
f 719 476 478
f 476 579 672
f 616 476 672
f 478 476 616
f 721 616 672
f 559 580 578
f 559 578 557
f 557 720 559
f 559 720 722
f 614 672 579
f 672 614 721
f 614 758 721
f 614 756 758
f 894 758 756
f 894 896 758
f 8 896 894
f 8 10 896
f 138 197 723
f 10 138 723
f 8 138 10
f 246 303 197
f 246 197 138
f 362 724 303
f 246 362 303
f 360 362 246
f 559 488 580
f 488 360 580
f 488 362 360
f 559 722 488
f 197 140 723
f 140 197 248
f 248 197 303
f 303 724 248
f 725 155 169
f 169 155 581
f 155 261 581
f 155 263 261
f 263 375 261
f 377 375 263
f 377 501 375
f 503 501 377
f 503 639 501
f 641 639 503
f 582 639 815
f 639 783 815
f 639 641 783
f 783 726 815
f 727 27 51
f 725 169 27
f 27 169 51
f 169 153 51
f 153 583 51
f 169 581 153
f 815 781 582
f 815 726 781
f 726 584 781
f 726 728 584
f 23 585 51
f 585 727 51
f 585 729 727
f 51 583 23
f 584 730 586
f 728 730 584
f 731 913 587
f 587 913 911
f 585 911 913
f 585 913 729
f 730 933 969
f 588 730 969
f 586 730 588
f 933 732 969
f 587 912 731
f 731 912 914
f 733 914 912
f 733 912 589
f 969 931 588
f 969 732 931
f 732 590 931
f 732 734 590
f 735 589 591
f 735 733 589
f 45 590 734
f 45 734 47
f 47 736 45
f 45 736 592
f 28 735 62
f 735 593 62
f 735 591 593
f 737 28 62
f 592 738 594
f 736 738 592
f 24 62 593
f 737 62 24
f 595 737 24
f 739 737 595
f 594 740 596
f 738 740 594
f 156 739 186
f 739 597 186
f 739 595 597
f 741 156 186
f 596 742 598
f 740 742 596
f 68 25 599
f 157 186 597
f 157 597 25
f 743 157 25
f 68 743 25
f 741 186 157
f 48 744 600
f 48 600 46
f 46 598 48
f 48 598 742
f 601 70 599
f 599 70 68
f 743 68 70
f 743 70 745
f 934 746 602
f 934 602 932
f 932 600 934
f 934 600 744
f 603 72 601
f 601 72 70
f 745 70 72
f 745 72 747
f 504 748 556
f 504 556 604
f 640 504 604
f 642 504 640
f 782 642 640
f 782 784 642
f 782 602 784
f 784 602 746
f 605 74 603
f 603 74 72
f 194 158 747
f 72 194 747
f 74 194 72
f 158 194 300
f 158 300 264
f 264 300 420
f 264 420 378
f 556 748 378
f 556 378 420
f 502 556 420
f 606 502 420
f 604 556 502
f 26 74 605
f 154 194 26
f 26 194 74
f 262 300 154
f 154 300 194
f 376 420 262
f 262 420 300
f 606 420 376
f 839 141 173
f 173 141 279
f 279 141 249
f 279 249 399
f 399 249 363
f 363 840 399
f 841 897 701
f 701 897 895
f 897 9 895
f 11 9 897
f 11 839 173
f 139 11 173
f 9 11 139
f 279 247 139
f 279 139 173
f 399 361 247
f 399 247 279
f 840 489 539
f 840 539 702
f 399 840 702
f 361 399 702
f 539 489 681
f 681 489 627
f 627 842 681
f 843 617 653
f 653 617 703
f 617 757 703
f 617 759 757
f 701 757 759
f 701 759 841
f 539 487 702
f 683 704 487
f 539 683 487
f 681 683 539
f 681 842 683
f 683 842 844
f 615 705 653
f 705 843 653
f 705 845 843
f 653 703 615
f 683 625 704
f 844 769 825
f 844 825 706
f 683 844 706
f 625 683 706
f 769 846 825
f 847 479 517
f 707 517 479
f 845 707 479
f 705 707 845
f 827 708 706
f 827 706 825
f 825 846 827
f 827 846 848
f 477 709 517
f 709 847 517
f 709 849 847
f 517 707 477
f 829 710 708
f 829 708 827
f 827 848 829
f 829 848 850
f 851 709 711
f 851 849 709
f 831 712 710
f 831 710 829
f 829 850 831
f 831 850 852
f 390 357 713
f 711 357 390
f 853 711 390
f 851 711 853
f 833 714 712
f 833 712 831
f 831 852 833
f 833 852 854
f 715 392 713
f 713 392 390
f 853 390 392
f 853 392 855
f 835 716 714
f 835 714 833
f 833 854 835
f 835 854 856
f 358 392 715
f 855 392 358
f 717 855 358
f 857 855 717
f 837 718 716
f 837 716 835
f 835 856 837
f 837 856 858
f 480 857 530
f 857 719 530
f 857 717 719
f 859 480 530
f 626 699 720
f 837 770 718
f 718 770 626
f 770 860 626
f 860 699 626
f 837 858 770
f 478 530 719
f 530 478 859
f 478 618 859
f 478 616 618
f 616 721 814
f 760 616 814
f 618 616 760
f 861 760 814
f 720 699 628
f 862 720 628
f 722 720 862
f 699 860 628
f 758 814 721
f 814 758 861
f 758 898 861
f 758 896 898
f 10 898 896
f 10 12 898
f 863 12 10
f 863 10 723
f 362 423 724
f 490 864 423
f 362 490 423
f 488 490 362
f 488 722 490
f 490 722 862
f 723 140 863
f 863 140 142
f 248 142 140
f 248 250 142
f 423 364 724
f 364 248 724
f 364 250 248
f 423 864 364
f 865 505 531
f 531 505 673
f 673 505 643
f 643 866 673
f 867 159 725
f 725 159 155
f 159 263 155
f 265 263 159
f 265 377 263
f 379 377 265
f 379 865 531
f 503 379 531
f 377 379 503
f 673 641 503
f 673 503 531
f 641 673 866
f 785 641 866
f 783 641 785
f 785 868 783
f 783 868 726
f 869 29 727
f 727 29 27
f 725 27 29
f 725 29 867
f 868 935 965
f 728 868 965
f 726 868 728
f 935 870 965
f 871 915 941
f 729 941 915
f 869 729 915
f 727 729 869
f 967 730 728
f 967 728 965
f 965 870 967
f 967 870 872
f 913 731 941
f 731 871 941
f 731 873 871
f 941 729 913
f 967 933 730
f 967 872 933
f 872 732 933
f 872 874 732
f 731 914 873
f 873 914 916
f 875 916 914
f 875 914 733
f 732 876 734
f 874 876 732
f 30 875 60
f 875 735 60
f 875 733 735
f 877 30 60
f 47 734 876
f 47 876 49
f 49 878 47
f 47 878 736
f 28 60 735
f 160 877 182
f 182 877 737
f 877 60 737
f 60 28 737
f 879 160 182
f 736 880 738
f 878 880 736
f 739 184 737
f 737 184 182
f 879 182 184
f 879 184 881
f 738 882 740
f 880 882 738
f 156 184 739
f 266 881 292
f 292 881 741
f 881 184 741
f 184 156 741
f 883 266 292
f 50 884 84
f 84 742 50
f 742 882 50
f 742 740 882
f 188 157 743
f 157 188 741
f 188 292 741
f 188 294 292
f 883 292 294
f 883 294 885
f 744 48 84
f 884 744 84
f 886 744 884
f 742 84 48
f 745 190 743
f 743 190 188
f 296 188 190
f 294 188 296
f 416 380 885
f 294 416 885
f 296 416 294
f 380 416 554
f 380 554 506
f 506 554 696
f 506 696 644
f 644 696 836
f 644 836 786
f 786 836 746
f 934 786 746
f 936 786 934
f 934 744 936
f 936 744 886
f 747 192 745
f 745 192 190
f 298 190 192
f 296 190 298
f 418 296 298
f 416 296 418
f 504 554 748
f 554 418 748
f 554 416 418
f 642 696 504
f 504 696 554
f 784 836 642
f 642 836 696
f 746 836 784
f 158 192 747
f 264 298 158
f 158 298 192
f 378 418 264
f 264 418 298
f 748 418 378
f 985 143 839
f 839 143 141
f 143 249 141
f 251 249 143
f 251 363 249
f 365 363 251
f 840 363 537
f 363 491 537
f 363 365 491
f 491 986 537
f 987 761 793
f 793 761 841
f 761 897 841
f 761 899 897
f 899 11 897
f 13 11 899
f 839 11 13
f 839 13 985
f 537 489 840
f 489 537 986
f 629 489 986
f 627 489 629
f 629 988 627
f 627 988 842
f 989 619 843
f 843 619 617
f 619 987 793
f 759 619 793
f 617 619 759
f 793 841 759
f 988 771 823
f 844 988 823
f 842 988 844
f 771 990 823
f 991 481 515
f 845 515 481
f 989 845 481
f 843 845 989
f 823 769 844
f 823 990 769
f 990 846 769
f 990 992 846
f 479 847 515
f 847 991 515
f 847 993 991
f 515 845 479
f 992 921 975
f 848 992 975
f 846 992 848
f 921 994 975
f 995 847 849
f 995 993 847
f 977 850 848
f 977 848 975
f 975 994 977
f 977 994 996
f 997 849 851
f 997 995 849
f 979 852 850
f 979 850 977
f 977 996 979
f 979 996 998
f 999 851 853
f 999 997 851
f 981 854 852
f 981 852 979
f 979 998 981
f 981 998 1000
f 482 999 526
f 999 855 526
f 999 853 855
f 1001 482 526
f 983 856 854
f 983 854 981
f 981 1000 983
f 983 1000 1002
f 857 528 855
f 855 528 526
f 1001 526 528
f 1001 528 1003
f 856 983 922
f 1004 856 922
f 858 856 1004
f 983 1002 922
f 480 528 857
f 620 1003 670
f 670 1003 859
f 1003 528 859
f 528 480 859
f 1005 620 670
f 772 1006 860
f 772 860 770
f 770 858 772
f 772 858 1004
f 618 670 859
f 670 618 1005
f 618 762 1005
f 618 760 762
f 1007 762 760
f 1007 760 861
f 630 1008 862
f 630 862 628
f 628 860 630
f 630 860 1006
f 861 898 1007
f 1007 898 900
f 12 900 898
f 12 14 900
f 1009 14 12
f 1009 12 863
f 492 1010 864
f 492 864 490
f 490 862 492
f 492 862 1008
f 863 142 1009
f 1009 142 144
f 250 144 142
f 250 252 144
f 364 252 250
f 364 366 252
f 364 864 366
f 366 864 1010
f 1011 507 865
f 865 507 505
f 507 643 505
f 645 643 507
f 645 1012 643
f 643 1012 866
f 1013 161 867
f 867 161 159
f 161 265 159
f 267 265 161
f 267 379 265
f 381 379 267
f 865 379 381
f 865 381 1011
f 785 866 1012
f 785 1012 787
f 787 1014 785
f 785 1014 868
f 1015 31 869
f 869 31 29
f 867 29 31
f 867 31 1013
f 935 868 1014
f 935 1014 937
f 937 1016 935
f 935 1016 870
f 1017 917 871
f 871 917 915
f 869 915 917
f 869 917 1015
f 870 1018 872
f 1016 1018 870
f 1019 871 873
f 1019 1017 871
f 872 1020 874
f 1018 1020 872
f 873 916 1019
f 1019 916 918
f 1021 918 916
f 1021 916 875
f 874 1022 876
f 1020 1022 874
f 875 30 1021
f 1021 30 32
f 1023 32 30
f 1023 30 877
f 1024 78 49
f 876 1024 49
f 1022 1024 876
f 78 878 49
f 877 160 1023
f 1023 160 162
f 1025 162 160
f 1025 160 879
f 1026 80 78
f 1026 78 1024
f 878 78 880
f 880 78 80
f 268 1025 290
f 1025 881 290
f 1025 879 881
f 1027 268 290
f 1028 82 80
f 1028 80 1026
f 880 80 882
f 882 80 82
f 266 290 881
f 382 1027 412
f 412 1027 883
f 1027 290 883
f 290 266 883
f 1029 382 412
f 884 50 82
f 1028 884 82
f 1030 884 1028
f 882 82 50
f 885 414 883
f 883 414 412
f 552 508 1029
f 412 552 1029
f 414 552 412
f 508 552 694
f 508 694 646
f 646 694 834
f 646 834 788
f 788 834 982
f 788 982 938
f 982 886 938
f 886 1030 938
f 886 884 1030
f 380 414 885
f 506 552 380
f 380 552 414
f 644 694 506
f 506 694 552
f 786 834 644
f 644 834 694
f 936 982 786
f 786 982 834
f 886 982 936
f 87 253 277
f 277 253 397
f 397 253 367
f 367 88 397
f 89 15 53
f 53 15 985
f 15 143 985
f 15 145 143
f 145 87 277
f 251 145 277
f 143 145 251
f 397 365 251
f 397 251 277
f 365 397 88
f 493 365 88
f 491 365 493
f 493 90 491
f 491 90 986
f 91 763 987
f 987 763 761
f 763 899 761
f 901 899 763
f 901 89 53
f 13 901 53
f 899 901 13
f 53 985 13
f 629 986 90
f 629 90 631
f 631 92 629
f 629 92 988
f 93 621 989
f 989 621 619
f 987 619 621
f 987 621 91
f 771 988 92
f 771 92 773
f 773 94 771
f 771 94 990
f 95 483 991
f 991 483 481
f 989 481 483
f 989 483 93
f 990 96 992
f 94 96 990
f 97 991 993
f 97 95 991
f 921 992 96
f 921 96 923
f 923 98 921
f 921 98 994
f 99 993 995
f 99 97 993
f 98 37 81
f 996 98 81
f 994 98 996
f 37 100 81
f 484 99 522
f 99 997 522
f 99 995 997
f 101 484 522
f 83 998 996
f 83 996 81
f 81 100 83
f 83 100 102
f 999 524 997
f 997 524 522
f 101 522 524
f 101 524 103
f 85 1000 998
f 85 998 83
f 83 102 85
f 85 102 104
f 482 524 999
f 622 103 666
f 666 103 1001
f 103 524 1001
f 524 482 1001
f 105 622 666
f 1000 85 38
f 106 1000 38
f 1002 1000 106
f 85 104 38
f 1003 668 1001
f 1001 668 666
f 105 666 668
f 105 668 107
f 924 108 1004
f 924 1004 922
f 922 1002 924
f 924 1002 106
f 620 668 1003
f 764 107 812
f 812 107 1005
f 107 668 1005
f 668 620 1005
f 109 764 812
f 774 110 1006
f 774 1006 772
f 772 1004 774
f 774 1004 108
f 762 812 1005
f 902 109 964
f 964 109 1007
f 109 812 1007
f 812 762 1007
f 111 902 964
f 632 112 1008
f 632 1008 630
f 630 1006 632
f 632 1006 110
f 900 964 1007
f 964 900 111
f 900 16 111
f 900 14 16
f 113 16 14
f 113 14 1009
f 368 114 424
f 368 424 1010
f 492 368 1010
f 494 368 492
f 492 1008 494
f 494 1008 112
f 1009 144 113
f 113 144 146
f 252 146 144
f 252 254 146
f 114 254 424
f 254 366 424
f 254 252 366
f 1010 424 366
f 115 509 1011
f 1011 509 507
f 509 645 507
f 647 645 509
f 647 116 645
f 645 116 1012
f 117 163 1013
f 1013 163 161
f 163 267 161
f 269 267 163
f 269 381 267
f 383 381 269
f 1011 381 383
f 1011 383 115
f 787 1012 116
f 787 116 789
f 789 118 787
f 787 118 1014
f 119 33 1015
f 1015 33 31
f 1013 31 33
f 1013 33 117
f 937 1014 118
f 937 118 939
f 939 120 937
f 937 120 1016
f 121 919 1017
f 1017 919 917
f 1015 917 919
f 1015 919 119
f 1016 122 1018
f 120 122 1016
f 123 1017 1019
f 123 121 1017
f 1018 124 1020
f 122 124 1018
f 1019 918 123
f 123 918 920
f 125 920 918
f 125 918 1021
f 1020 126 1022
f 124 126 1020
f 1021 32 125
f 125 32 34
f 127 34 32
f 127 32 1023
f 1022 128 1024
f 126 128 1022
f 1023 162 127
f 127 162 164
f 162 1025 288
f 270 162 288
f 164 162 270
f 129 270 288
f 940 130 976
f 976 1026 940
f 1026 128 940
f 1026 1024 128
f 268 288 1025
f 384 129 410
f 410 129 1027
f 129 288 1027
f 288 268 1027
f 384 410 548
f 384 548 510
f 131 510 548
f 132 978 976
f 132 976 130
f 1026 976 1028
f 1028 976 978
f 382 410 1027
f 1029 550 382
f 550 410 382
f 550 548 410
f 692 648 131
f 548 692 131
f 550 692 548
f 648 692 832
f 648 832 790
f 978 132 790
f 832 978 790
f 980 978 832
f 1028 978 1030
f 1030 978 980
f 508 550 1029
f 646 692 508
f 508 692 550
f 788 832 646
f 646 832 692
f 938 980 788
f 788 980 832
f 1030 980 938
