# Converted from NanoShaper .vert/.face
v 8.469000 9.522000 -16.625000
v 10.068000 9.522000 -16.625000
v 7.901000 9.522000 -16.125000
v 10.680000 9.522000 -16.125000
v 7.539000 9.522000 -15.625000
v 10.941000 9.522000 -15.625000
v 7.518000 9.522000 -15.125000
v 11.473000 9.522000 -15.125000
v 7.659000 9.522000 -14.625000
v 12.171000 9.522000 -14.625000
v 7.954000 9.522000 -14.125000
v 12.404000 9.522000 -14.125000
v 8.353000 9.522000 -13.625000
v 12.422000 9.522000 -13.625000
v 8.740000 9.522000 -13.125000
v 12.234000 9.522000 -13.125000
v 9.000000 9.522000 -12.625000
v 11.662000 9.522000 -12.625000
v 9.826000 9.522000 -12.125000
v 10.268000 9.522000 -12.125000
v 7.969000 13.522000 -18.625000
v 9.149000 13.522000 -18.625000
v 7.026000 13.522000 -18.125000
v 9.733000 13.522000 -18.125000
v 6.687000 13.522000 -17.625000
v 10.003000 13.522000 -17.625000
v 6.544000 13.522000 -17.125000
v 9.991000 13.522000 -17.125000
v 6.106000 13.522000 -16.625000
v 10.040000 13.522000 -16.625000
v 3.609000 13.522000 -16.125000
v 10.177000 13.522000 -16.125000
v 3.001000 13.522000 -15.625000
v 10.346000 13.522000 -15.625000
v 2.769000 13.522000 -15.125000
v 10.409000 13.522000 -15.125000
v 2.436000 13.522000 -14.625000
v 10.415000 13.522000 -14.625000
v 2.109000 13.522000 -14.125000
v 10.336000 13.522000 -14.125000
v 2.086000 13.522000 -13.625000
v 10.107000 13.522000 -13.625000
v 2.241000 13.522000 -13.125000
v 9.295000 13.522000 -13.125000
v 2.322000 13.522000 -12.625000
v 6.967000 13.522000 -12.625000
v 2.513000 13.522000 -12.125000
v 6.023000 13.522000 -12.125000
v 2.781000 13.522000 -11.625000
v 5.332000 13.522000 -11.625000
v 3.467000 13.522000 -11.125000
v 4.701000 13.522000 -11.125000
v 7.828000 9.522000 -16.052000
v 7.828000 9.522000 -14.281000
v 8.328000 9.522000 -16.511000
v 8.328000 9.522000 -13.659000
v 8.828000 9.522000 -16.817000
v 8.828000 9.522000 -12.928000
v 9.328000 9.522000 -16.833000
v 9.328000 9.522000 -12.321000
v 9.828000 9.522000 -16.705000
v 9.828000 9.522000 -12.125000
v 10.328000 9.522000 -16.486000
v 10.328000 9.522000 -12.137000
v 10.828000 9.522000 -15.834000
v 10.828000 9.522000 -12.355000
v 11.328000 9.522000 -15.218000
v 11.328000 9.522000 -12.525000
v 11.828000 9.522000 -14.943000
v 11.828000 9.522000 -12.716000
v 12.328000 9.522000 -14.357000
v 12.328000 9.522000 -13.302000
v 2.328000 13.522000 -14.514000
v 2.328000 13.522000 -12.598000
v 2.828000 13.522000 -15.260000
v 2.828000 13.522000 -11.569000
v 3.328000 13.522000 -15.969000
v 3.328000 13.522000 -11.189000
v 3.828000 13.522000 -16.193000
v 3.828000 13.522000 -11.018000
v 4.328000 13.522000 -16.205000
v 4.328000 13.522000 -11.010000
v 4.828000 13.522000 -16.160000
v 4.828000 13.522000 -11.193000
v 5.328000 13.522000 -16.230000
v 5.328000 13.522000 -11.622000
v 5.828000 13.522000 -16.440000
v 5.828000 13.522000 -12.017000
v 6.328000 13.522000 -16.820000
v 6.328000 13.522000 -12.284000
v 6.828000 13.522000 -17.918000
v 6.828000 13.522000 -12.569000
v 7.328000 13.522000 -18.283000
v 7.328000 13.522000 -12.807000
v 7.828000 13.522000 -18.506000
v 7.828000 13.522000 -13.017000
v 8.328000 13.522000 -18.802000
v 8.328000 13.522000 -13.034000
v 8.828000 13.522000 -18.792000
v 8.828000 13.522000 -13.042000
v 9.328000 13.522000 -18.449000
v 9.328000 13.522000 -13.132000
v 9.828000 13.522000 -18.016000
v 9.828000 13.522000 -13.351000
v 10.328000 13.522000 -15.704000
v 10.328000 13.522000 -14.087000
v 6.328000 11.714000 -17.125000
v 6.328000 13.273000 -17.125000
v 6.828000 11.037000 -17.125000
v 6.828000 13.710000 -17.125000
v 7.328000 10.740000 -17.125000
v 7.328000 13.900000 -17.125000
v 7.828000 10.500000 -17.125000
v 7.828000 13.932000 -17.125000
v 8.328000 10.096000 -17.125000
v 8.328000 13.927000 -17.125000
v 8.828000 9.840000 -17.125000
v 8.828000 13.921000 -17.125000
v 9.328000 9.836000 -17.125000
v 9.328000 13.887000 -17.125000
v 9.828000 10.097000 -17.125000
v 9.828000 13.657000 -17.125000
v 10.328000 11.292000 -17.125000
v 10.328000 13.010000 -17.125000
v 2.328000 13.402000 -13.125000
v 2.328000 15.427000 -13.125000
v 2.828000 12.819000 -13.125000
v 2.828000 15.805000 -13.125000
v 3.328000 12.043000 -13.125000
v 3.328000 16.200000 -13.125000
v 3.828000 11.125000 -13.125000
v 3.828000 16.403000 -13.125000
v 4.328000 10.559000 -13.125000
v 4.328000 16.404000 -13.125000
v 4.828000 10.311000 -13.125000
v 4.828000 16.206000 -13.125000
v 5.328000 10.152000 -13.125000
v 5.328000 15.720000 -13.125000
v 5.828000 10.160000 -13.125000
v 5.828000 15.202000 -13.125000
v 6.328000 10.331000 -13.125000
v 6.328000 14.792000 -13.125000
v 6.828000 10.539000 -13.125000
v 6.828000 14.474000 -13.125000
v 7.328000 10.652000 -13.125000
v 7.328000 13.961000 -13.125000
v 7.828000 10.615000 -13.125000
v 7.828000 13.710000 -13.125000
v 8.328000 10.261000 -13.125000
v 8.328000 13.709000 -13.125000
v 8.828000 9.317000 -13.125000
v 8.828000 13.701000 -13.125000
v 9.328000 8.647000 -13.125000
v 9.328000 13.507000 -13.125000
v 9.828000 8.396000 -13.125000
v 9.828000 12.860000 -13.125000
v 10.328000 8.396000 -13.125000
v 10.328000 12.424000 -13.125000
v 10.828000 8.628000 -13.125000
v 10.828000 11.813000 -13.125000
v 11.328000 8.792000 -13.125000
v 11.328000 11.307000 -13.125000
v 11.828000 9.004000 -13.125000
v 11.828000 10.962000 -13.125000
v 8.425000 10.022000 -17.125000
v 9.731000 10.022000 -17.125000
v 7.926000 10.022000 -16.625000
v 10.326000 10.022000 -16.625000
v 6.950000 10.022000 -16.125000
v 10.780000 10.022000 -16.125000
v 6.634000 10.022000 -15.625000
v 11.051000 10.022000 -15.625000
v 6.624000 10.022000 -15.125000
v 11.650000 10.022000 -15.125000
v 6.868000 10.022000 -14.625000
v 12.267000 10.022000 -14.625000
v 7.309000 10.022000 -14.125000
v 12.483000 10.022000 -14.125000
v 7.946000 10.022000 -13.625000
v 12.500000 10.022000 -13.625000
v 8.503000 10.022000 -13.125000
v 12.325000 10.022000 -13.125000
v 8.833000 10.022000 -12.625000
v 11.829000 10.022000 -12.625000
v 9.522000 10.022000 -12.125000
v 10.584000 10.022000 -12.125000
v 3.889000 10.022000 -11.625000
v 5.360000 10.022000 -11.625000
v 3.581000 10.022000 -11.125000
v 5.539000 10.022000 -11.125000
v 3.577000 10.022000 -10.625000
v 5.543000 10.022000 -10.625000
v 3.871000 10.022000 -10.125000
v 5.249000 10.022000 -10.125000
v 3.437000 14.022000 -16.125000
v 4.913000 14.022000 -16.125000
v 5.912000 14.022000 -16.125000
v 9.725000 14.022000 -16.125000
v 2.902000 14.022000 -15.625000
v 10.037000 14.022000 -15.625000
v 2.507000 14.022000 -15.125000
v 10.085000 14.022000 -15.125000
v 2.034000 14.022000 -14.625000
v 10.089000 14.022000 -14.625000
v 1.801000 14.022000 -14.125000
v 9.983000 14.022000 -14.125000
v 1.783000 14.022000 -13.625000
v 9.623000 14.022000 -13.625000
v 1.969000 14.022000 -13.125000
v 7.261000 14.022000 -13.125000
v 2.180000 14.022000 -12.625000
v 6.588000 14.022000 -12.625000
v 2.236000 14.022000 -12.125000
v 5.783000 14.022000 -12.125000
v 2.433000 14.022000 -11.625000
v 5.132000 14.022000 -11.625000
v 3.048000 14.022000 -11.125000
v 4.373000 14.022000 -11.125000
v 3.828000 10.022000 -11.566000
v 3.828000 10.022000 -10.169000
v 4.328000 10.022000 -11.902000
v 4.328000 10.022000 -9.882000
v 4.828000 10.022000 -12.010000
v 4.828000 10.022000 -9.891000
v 5.328000 10.022000 -11.679000
v 5.328000 10.022000 -10.207000
v 6.828000 10.022000 -16.000000
v 6.828000 10.022000 -14.681000
v 7.328000 10.022000 -16.331000
v 7.328000 10.022000 -14.107000
v 7.828000 10.022000 -16.547000
v 7.828000 10.022000 -13.741000
v 8.328000 10.022000 -17.034000
v 8.328000 10.022000 -13.298000
v 8.828000 10.022000 -17.329000
v 8.828000 10.022000 -12.632000
v 9.328000 10.022000 -17.328000
v 9.328000 10.022000 -12.216000
v 9.828000 10.022000 -17.051000
v 9.828000 10.022000 -12.041000
v 10.328000 10.022000 -16.624000
v 10.328000 10.022000 -12.050000
v 10.828000 10.022000 -16.040000
v 10.828000 10.022000 -12.251000
v 11.328000 10.022000 -15.331000
v 11.328000 10.022000 -12.441000
v 11.828000 10.022000 -15.034000
v 11.828000 10.022000 -12.625000
v 12.328000 10.022000 -14.529000
v 12.328000 10.022000 -13.130000
v 1.828000 14.022000 -14.223000
v 1.828000 14.022000 -13.434000
v 2.328000 14.022000 -14.922000
v 2.328000 14.022000 -11.821000
v 2.828000 14.022000 -15.531000
v 2.828000 14.022000 -11.238000
v 3.328000 14.022000 -16.059000
v 3.328000 14.022000 -11.049000
v 3.828000 14.022000 -16.269000
v 3.828000 14.022000 -11.023000
v 4.328000 14.022000 -16.280000
v 4.328000 14.022000 -11.111000
v 4.828000 14.022000 -16.146000
v 4.828000 14.022000 -11.344000
v 5.328000 14.022000 -16.061000
v 5.328000 14.022000 -11.777000
v 5.828000 14.022000 -16.102000
v 5.828000 14.022000 -12.156000
v 6.328000 14.022000 -16.280000
v 6.328000 14.022000 -12.499000
v 6.828000 14.022000 -16.344000
v 6.828000 14.022000 -12.763000
v 7.328000 14.022000 -16.485000
v 7.328000 14.022000 -13.171000
v 7.828000 14.022000 -16.535000
v 7.828000 14.022000 -13.380000
v 8.328000 14.022000 -16.520000
v 8.328000 14.022000 -13.366000
v 8.828000 14.022000 -16.521000
v 8.828000 14.022000 -13.371000
v 9.328000 14.022000 -16.434000
v 9.328000 14.022000 -13.484000
v 9.828000 14.022000 -16.021000
v 9.828000 14.022000 -13.823000
v 6.328000 11.149000 -16.625000
v 6.328000 13.696000 -16.625000
v 6.828000 10.667000 -16.625000
v 6.828000 13.879000 -16.625000
v 7.328000 10.376000 -16.625000
v 7.328000 13.979000 -16.625000
v 7.828000 10.090000 -16.625000
v 7.828000 13.996000 -16.625000
v 8.328000 9.632000 -16.625000
v 8.328000 13.989000 -16.625000
v 8.828000 9.356000 -16.625000
v 8.828000 13.988000 -16.625000
v 9.328000 9.309000 -16.625000
v 9.328000 13.949000 -16.625000
v 9.828000 9.364000 -16.625000
v 9.828000 13.694000 -16.625000
v 10.328000 10.029000 -16.625000
v 10.328000 13.140000 -16.625000
v 2.328000 13.508000 -12.625000
v 2.328000 15.244000 -12.625000
v 2.828000 12.833000 -12.625000
v 2.828000 15.733000 -12.625000
v 3.328000 11.440000 -12.625000
v 3.328000 16.215000 -12.625000
v 3.828000 10.563000 -12.625000
v 3.828000 16.415000 -12.625000
v 4.328000 10.300000 -12.625000
v 4.328000 16.417000 -12.625000
v 4.828000 10.141000 -12.625000
v 4.828000 16.221000 -12.625000
v 5.328000 10.127000 -12.625000
v 5.328000 15.658000 -12.625000
v 5.828000 10.154000 -12.625000
v 5.828000 14.972000 -12.625000
v 6.328000 10.365000 -12.625000
v 6.328000 14.335000 -12.625000
v 6.828000 10.706000 -12.625000
v 6.828000 13.655000 -12.625000
v 7.328000 10.941000 -12.625000
v 7.328000 13.186000 -12.625000
v 7.828000 11.017000 -12.625000
v 7.828000 12.683000 -12.625000
v 8.328000 10.729000 -12.625000
v 8.328000 12.431000 -12.625000
v 8.828000 10.033000 -12.625000
v 8.828000 12.177000 -12.625000
v 9.328000 9.101000 -12.625000
v 9.328000 12.188000 -12.625000
v 9.828000 8.867000 -12.625000
v 9.828000 12.147000 -12.625000
v 10.328000 8.880000 -12.625000
v 10.328000 11.898000 -12.625000
v 10.828000 9.111000 -12.625000
v 10.828000 11.506000 -12.625000
v 11.328000 9.301000 -12.625000
v 11.328000 10.856000 -12.625000
v 11.828000 9.921000 -12.625000
v 11.828000 10.045000 -12.625000
v 8.367000 10.522000 -17.625000
v 9.433000 10.522000 -17.625000
v 7.789000 10.522000 -17.125000
v 10.139000 10.522000 -17.125000
v 7.028000 10.522000 -16.625000
v 10.436000 10.522000 -16.625000
v 6.506000 10.522000 -16.125000
v 10.813000 10.522000 -16.125000
v 6.208000 10.522000 -15.625000
v 11.053000 10.522000 -15.625000
v 6.176000 10.522000 -15.125000
v 11.485000 10.522000 -15.125000
v 6.136000 10.522000 -14.625000
v 12.133000 10.522000 -14.625000
v 5.905000 10.522000 -14.125000
v 12.373000 10.522000 -14.125000
v 4.912000 10.522000 -13.625000
v 12.392000 10.522000 -13.625000
v 4.380000 10.522000 -13.125000
v 6.783000 10.522000 -13.125000
v 8.027000 10.522000 -13.125000
v 12.199000 10.522000 -13.125000
v 3.882000 10.522000 -12.625000
v 6.552000 10.522000 -12.625000
v 8.486000 10.522000 -12.625000
v 11.588000 10.522000 -12.625000
v 3.606000 10.522000 -12.125000
v 6.465000 10.522000 -12.125000
v 9.270000 10.522000 -12.125000
v 10.757000 10.522000 -12.125000
v 3.449000 10.522000 -11.625000
v 6.158000 10.522000 -11.625000
v 3.266000 10.522000 -11.125000
v 5.941000 10.522000 -11.125000
v 3.263000 10.522000 -10.625000
v 5.858000 10.522000 -10.625000
v 3.469000 10.522000 -10.125000
v 5.652000 10.522000 -10.125000
v 4.113000 10.522000 -9.625000
v 5.007000 10.522000 -9.625000
v 3.719000 14.522000 -16.125000
v 4.498000 14.522000 -16.125000
v 2.894000 14.522000 -15.625000
v 5.318000 14.522000 -15.625000
v 2.397000 14.522000 -15.125000
v 6.321000 14.522000 -15.125000
v 1.943000 14.522000 -14.625000
v 6.837000 14.522000 -14.625000
v 1.726000 14.522000 -14.125000
v 7.202000 14.522000 -14.125000
v 1.709000 14.522000 -13.625000
v 7.065000 14.522000 -13.625000
v 1.883000 14.522000 -13.125000
v 6.765000 14.522000 -13.125000
v 2.090000 14.522000 -12.625000
v 6.196000 14.522000 -12.625000
v 2.148000 14.522000 -12.125000
v 5.565000 14.522000 -12.125000
v 2.331000 14.522000 -11.625000
v 4.861000 14.522000 -11.625000
v 2.846000 14.522000 -11.125000
v 4.216000 14.522000 -11.125000
v 3.328000 10.522000 -11.339000
v 3.328000 10.522000 -10.396000
v 3.828000 10.522000 -12.567000
v 3.828000 10.522000 -9.770000
v 4.328000 10.522000 -13.077000
v 4.328000 10.522000 -9.568000
v 4.828000 10.522000 -13.545000
v 4.828000 10.522000 -9.575000
v 5.328000 10.522000 -13.836000
v 5.328000 10.522000 -9.793000
v 5.828000 10.522000 -14.056000
v 5.828000 10.522000 -10.498000
v 6.328000 10.522000 -15.887000
v 6.328000 10.522000 -11.845000
v 6.828000 10.522000 -16.464000
v 6.828000 10.522000 -13.171000
v 7.328000 10.522000 -16.780000
v 7.328000 10.522000 -13.346000
v 7.828000 10.522000 -17.166000
v 7.828000 10.522000 -13.233000
v 8.328000 10.522000 -17.608000
v 8.328000 10.522000 -12.807000
v 8.828000 10.522000 -17.755000
v 8.828000 10.522000 -12.336000
v 9.328000 10.522000 -17.664000
v 9.328000 10.522000 -12.111000
v 9.828000 10.522000 -17.426000
v 9.828000 10.522000 -12.008000
v 10.328000 10.522000 -16.801000
v 10.328000 10.522000 -11.990000
v 10.828000 10.522000 -16.101000
v 10.828000 10.522000 -12.164000
v 11.328000 10.522000 -15.264000
v 11.328000 10.522000 -12.493000
v 11.828000 10.522000 -14.908000
v 11.828000 10.522000 -12.751000
v 12.328000 10.522000 -14.278000
v 12.328000 10.522000 -13.381000
v 1.828000 14.522000 -14.426000
v 1.828000 14.522000 -13.232000
v 2.328000 14.522000 -15.040000
v 2.328000 14.522000 -11.631000
v 2.828000 14.522000 -15.582000
v 2.828000 14.522000 -11.136000
v 3.328000 14.522000 -15.923000
v 3.328000 14.522000 -10.961000
v 3.828000 14.522000 -16.155000
v 3.828000 14.522000 -10.978000
v 4.328000 14.522000 -16.167000
v 4.328000 14.522000 -11.193000
v 4.828000 14.522000 -15.968000
v 4.828000 14.522000 -11.599000
v 5.328000 14.522000 -15.618000
v 5.328000 14.522000 -11.999000
v 5.828000 14.522000 -15.327000
v 5.828000 14.522000 -12.269000
v 6.328000 14.522000 -15.119000
v 6.328000 14.522000 -12.760000
v 6.828000 14.522000 -14.634000
v 6.828000 14.522000 -13.195000
v 3.828000 13.361000 -16.125000
v 3.828000 14.585000 -16.125000
v 4.328000 13.333000 -16.125000
v 4.328000 14.610000 -16.125000
v 4.828000 13.351000 -16.125000
v 4.828000 14.117000 -16.125000
v 5.328000 12.767000 -16.125000
v 5.328000 13.889000 -16.125000
v 5.828000 11.486000 -16.125000
v 5.828000 13.997000 -16.125000
v 6.328000 10.700000 -16.125000
v 6.328000 14.141000 -16.125000
v 6.828000 10.119000 -16.125000
v 6.828000 14.168000 -16.125000
v 7.328000 9.850000 -16.125000
v 7.328000 14.203000 -16.125000
v 7.828000 9.582000 -16.125000
v 7.828000 14.219000 -16.125000
v 8.328000 9.090000 -16.125000
v 8.328000 14.206000 -16.125000
v 8.828000 8.871000 -16.125000
v 8.828000 14.215000 -16.125000
v 9.328000 8.829000 -16.125000
v 9.328000 14.202000 -16.125000
v 9.828000 8.828000 -16.125000
v 9.828000 13.942000 -16.125000
v 10.328000 9.063000 -16.125000
v 10.328000 13.212000 -16.125000
v 2.328000 13.827000 -12.125000
v 2.328000 15.188000 -12.125000
v 2.828000 12.907000 -12.125000
v 2.828000 15.698000 -12.125000
v 3.328000 10.917000 -12.125000
v 3.328000 15.998000 -12.125000
v 3.828000 10.339000 -12.125000
v 3.828000 16.232000 -12.125000
v 4.328000 10.127000 -12.125000
v 4.328000 16.234000 -12.125000
v 4.828000 10.057000 -12.125000
v 4.828000 16.000000 -12.125000
v 5.328000 10.109000 -12.125000
v 5.328000 15.057000 -12.125000
v 5.828000 10.187000 -12.125000
v 5.828000 13.853000 -12.125000
v 6.328000 10.411000 -12.125000
v 6.328000 13.181000 -12.125000
v 6.828000 10.916000 -12.125000
v 6.828000 12.661000 -12.125000
v 9.328000 10.472000 -12.125000
v 9.328000 11.483000 -12.125000
v 9.828000 9.521000 -12.125000
v 9.828000 11.511000 -12.125000
v 10.328000 9.554000 -12.125000
v 10.328000 11.153000 -12.125000
v 7.492000 11.022000 -18.125000
v 9.331000 11.022000 -18.125000
v 7.174000 11.022000 -17.625000
v 9.868000 11.022000 -17.625000
v 6.849000 11.022000 -17.125000
v 10.259000 11.022000 -17.125000
v 6.483000 11.022000 -16.625000
v 10.457000 11.022000 -16.625000
v 6.079000 11.022000 -16.125000
v 10.706000 11.022000 -16.125000
v 5.856000 11.022000 -15.625000
v 10.898000 11.022000 -15.625000
v 5.738000 11.022000 -15.125000
v 11.094000 11.022000 -15.125000
v 5.457000 11.022000 -14.625000
v 11.612000 11.022000 -14.625000
v 4.905000 11.022000 -14.125000
v 12.006000 11.022000 -14.125000
v 4.414000 11.022000 -13.625000
v 12.032000 11.022000 -13.625000
v 3.926000 11.022000 -13.125000
v 11.736000 11.022000 -13.125000
v 3.476000 11.022000 -12.625000
v 11.223000 11.022000 -12.625000
v 3.284000 11.022000 -12.125000
v 6.897000 11.022000 -12.125000
v 9.036000 11.022000 -12.125000
v 10.550000 11.022000 -12.125000
v 3.247000 11.022000 -11.625000
v 6.578000 11.022000 -11.625000
v 3.181000 11.022000 -11.125000
v 6.165000 11.022000 -11.125000
v 3.182000 11.022000 -10.625000
v 5.945000 11.022000 -10.625000
v 3.373000 11.022000 -10.125000
v 5.747000 11.022000 -10.125000
v 3.915000 11.022000 -9.625000
v 5.206000 11.022000 -9.625000
v 3.104000 15.022000 -15.625000
v 4.683000 15.022000 -15.625000
v 2.515000 15.022000 -15.125000
v 5.017000 15.022000 -15.125000
v 2.081000 15.022000 -14.625000
v 5.428000 15.022000 -14.625000
v 1.840000 15.022000 -14.125000
v 5.914000 15.022000 -14.125000
v 1.821000 15.022000 -13.625000
v 6.105000 15.022000 -13.625000
v 2.013000 15.022000 -13.125000
v 6.048000 15.022000 -13.125000
v 2.202000 15.022000 -12.625000
v 5.774000 15.022000 -12.625000
v 2.248000 15.022000 -12.125000
v 5.338000 15.022000 -12.125000
v 2.447000 15.022000 -11.625000
v 4.779000 15.022000 -11.625000
v 3.078000 15.022000 -11.125000
v 3.983000 15.022000 -11.125000
v 3.328000 11.022000 -12.310000
v 3.328000 11.022000 -10.205000
v 3.828000 11.022000 -13.025000
v 3.828000 11.022000 -9.675000
v 4.328000 11.022000 -13.544000
v 4.328000 11.022000 -9.487000
v 4.828000 11.022000 -14.054000
v 4.828000 11.022000 -9.493000
v 5.328000 11.022000 -14.477000
v 5.328000 11.022000 -9.697000
v 5.828000 11.022000 -15.473000
v 5.828000 11.022000 -10.273000
v 6.328000 11.022000 -16.461000
v 6.328000 11.022000 -11.347000
v 6.828000 11.022000 -17.104000
v 6.828000 11.022000 -12.012000
v 7.328000 11.022000 -17.950000
v 7.328000 11.022000 -12.532000
v 7.828000 11.022000 -18.304000
v 7.828000 11.022000 -12.622000
v 8.328000 11.022000 -18.400000
v 8.328000 11.022000 -12.494000
v 8.828000 11.022000 -18.410000
v 8.828000 11.022000 -12.236000
v 9.328000 11.022000 -18.129000
v 9.328000 11.022000 -12.032000
v 9.828000 11.022000 -17.659000
v 9.828000 11.022000 -12.020000
v 10.328000 11.022000 -16.983000
v 10.328000 11.022000 -12.071000
v 10.828000 11.022000 -15.870000
v 10.828000 11.022000 -12.257000
v 11.328000 11.022000 -14.828000
v 11.328000 11.022000 -12.741000
v 11.828000 11.022000 -14.441000
v 11.828000 11.022000 -13.218000
v 1.828000 15.022000 -14.068000
v 1.828000 15.022000 -13.589000
v 2.328000 15.022000 -14.881000
v 2.328000 15.022000 -11.849000
v 2.828000 15.022000 -15.465000
v 2.828000 15.022000 -11.251000
v 3.328000 15.022000 -15.698000
v 3.328000 15.022000 -11.060000
v 3.828000 15.022000 -15.798000
v 3.828000 15.022000 -11.079000
v 4.328000 15.022000 -15.799000
v 4.328000 15.022000 -11.316000
v 4.828000 15.022000 -15.484000
v 4.828000 15.022000 -11.656000
v 5.328000 15.022000 -14.701000
v 5.328000 15.022000 -12.114000
v 5.828000 15.022000 -14.228000
v 5.828000 15.022000 -12.695000
v 3.328000 13.067000 -15.625000
v 3.328000 15.175000 -15.625000
v 3.828000 12.810000 -15.625000
v 3.828000 15.226000 -15.625000
v 4.328000 12.775000 -15.625000
v 4.328000 15.149000 -15.625000
v 4.828000 12.662000 -15.625000
v 4.828000 14.929000 -15.625000
v 5.328000 12.288000 -15.625000
v 5.328000 14.516000 -15.625000
v 5.828000 11.098000 -15.625000
v 5.828000 14.350000 -15.625000
v 6.328000 10.403000 -15.625000
v 6.328000 14.357000 -15.625000
v 6.828000 9.858000 -15.625000
v 6.828000 14.358000 -15.625000
v 7.328000 9.628000 -15.625000
v 7.328000 14.394000 -15.625000
v 7.828000 9.310000 -15.625000
v 7.828000 14.406000 -15.625000
v 8.328000 8.859000 -15.625000
v 8.328000 14.390000 -15.625000
v 8.828000 8.626000 -15.625000
v 8.828000 14.421000 -15.625000
v 9.328000 8.428000 -15.625000
v 9.328000 14.411000 -15.625000
v 9.828000 8.431000 -15.625000
v 9.828000 14.199000 -15.625000
v 10.328000 8.683000 -15.625000
v 10.328000 13.572000 -15.625000
v 10.828000 9.227000 -15.625000
v 10.828000 11.161000 -15.625000
v 2.828000 13.445000 -11.625000
v 2.828000 15.480000 -11.625000
v 3.328000 10.792000 -11.625000
v 3.328000 15.690000 -11.625000
v 3.828000 10.068000 -11.625000
v 3.828000 15.749000 -11.625000
v 4.328000 9.835000 -11.625000
v 4.328000 15.706000 -11.625000
v 4.828000 9.842000 -11.625000
v 4.828000 14.621000 -11.625000
v 5.328000 10.008000 -11.625000
v 5.328000 13.530000 -11.625000
v 5.828000 10.275000 -11.625000
v 5.828000 12.957000 -11.625000
v 6.328000 10.679000 -11.625000
v 6.328000 12.400000 -11.625000
v 7.701000 11.522000 -18.625000
v 9.249000 11.522000 -18.625000
v 6.978000 11.522000 -18.125000
v 9.744000 11.522000 -18.125000
v 6.664000 11.522000 -17.625000
v 10.202000 11.522000 -17.625000
v 6.426000 11.522000 -17.125000
v 10.400000 11.522000 -17.125000
v 6.047000 11.522000 -16.625000
v 10.471000 11.522000 -16.625000
v 5.813000 11.522000 -16.125000
v 10.558000 11.522000 -16.125000
v 5.720000 11.522000 -15.625000
v 10.624000 11.522000 -15.625000
v 5.460000 11.522000 -15.125000
v 10.701000 11.522000 -15.125000
v 4.991000 11.522000 -14.625000
v 10.925000 11.522000 -14.625000
v 4.431000 11.522000 -14.125000
v 11.234000 11.522000 -14.125000
v 3.976000 11.522000 -13.625000
v 11.249000 11.522000 -13.625000
v 3.507000 11.522000 -13.125000
v 11.107000 11.522000 -13.125000
v 3.300000 11.522000 -12.625000
v 10.806000 11.522000 -12.625000
v 3.196000 11.522000 -12.125000
v 7.152000 11.522000 -12.125000
v 3.154000 11.522000 -11.625000
v 6.693000 11.522000 -11.625000
v 3.169000 11.522000 -11.125000
v 6.253000 11.522000 -11.125000
v 3.286000 11.522000 -10.625000
v 5.890000 11.522000 -10.625000
v 3.499000 11.522000 -10.125000
v 5.621000 11.522000 -10.125000
v 4.195000 11.522000 -9.625000
v 4.926000 11.522000 -9.625000
v 2.941000 15.522000 -15.125000
v 4.291000 15.522000 -15.125000
v 2.583000 15.522000 -14.625000
v 4.710000 15.522000 -14.625000
v 2.215000 15.522000 -14.125000
v 5.258000 15.522000 -14.125000
v 2.188000 15.522000 -13.625000
v 5.533000 15.522000 -13.625000
v 2.448000 15.522000 -13.125000
v 5.512000 15.522000 -13.125000
v 2.580000 15.522000 -12.625000
v 5.398000 15.522000 -12.625000
v 2.592000 15.522000 -12.125000
v 5.192000 15.522000 -12.125000
v 2.890000 15.522000 -11.625000
v 4.598000 15.522000 -11.625000
v 3.328000 11.522000 -12.726000
v 3.328000 11.522000 -10.472000
v 3.828000 11.522000 -13.463000
v 3.828000 11.522000 -9.800000
v 4.328000 11.522000 -14.020000
v 4.328000 11.522000 -9.594000
v 4.828000 11.522000 -14.479000
v 4.828000 11.522000 -9.601000
v 5.328000 11.522000 -14.975000
v 5.328000 11.522000 -9.825000
v 5.828000 11.522000 -16.183000
v 5.828000 11.522000 -10.514000
v 6.328000 11.522000 -16.961000
v 6.328000 11.522000 -11.220000
v 6.828000 11.522000 -17.949000
v 6.828000 11.522000 -11.809000
v 7.328000 11.522000 -18.431000
v 7.328000 11.522000 -12.239000
v 7.828000 11.522000 -18.674000
v 7.828000 11.522000 -12.429000
v 8.328000 11.522000 -18.858000
v 8.328000 11.522000 -12.462000
v 8.828000 11.522000 -18.849000
v 8.828000 11.522000 -12.333000
v 9.328000 11.522000 -18.561000
v 9.328000 11.522000 -12.142000
v 9.828000 11.522000 -18.038000
v 9.828000 11.522000 -12.130000
v 10.328000 11.522000 -17.384000
v 10.328000 11.522000 -12.321000
v 10.828000 11.522000 -14.785000
v 10.828000 11.522000 -12.646000
v 2.328000 15.522000 -14.352000
v 2.328000 15.522000 -13.306000
v 2.828000 15.522000 -14.995000
v 2.828000 15.522000 -11.686000
v 3.328000 15.522000 -15.354000
v 3.328000 15.522000 -11.403000
v 3.828000 15.522000 -15.375000
v 3.828000 15.522000 -11.422000
v 4.328000 15.522000 -15.089000
v 4.328000 15.522000 -11.541000
v 4.828000 15.522000 -14.505000
v 4.828000 15.522000 -11.751000
v 5.328000 15.522000 -14.050000
v 5.328000 15.522000 -12.403000
v 8.328000 11.901000 -19.125000
v 8.328000 13.089000 -19.125000
v 8.828000 11.917000 -19.125000
v 8.828000 13.073000 -19.125000
v 2.828000 13.418000 -15.125000
v 2.828000 15.436000 -15.125000
v 3.328000 12.834000 -15.125000
v 3.328000 15.693000 -15.125000
v 3.828000 12.617000 -15.125000
v 3.828000 15.709000 -15.125000
v 4.328000 12.484000 -15.125000
v 4.328000 15.497000 -15.125000
v 4.828000 12.313000 -15.125000
v 4.828000 15.158000 -15.125000
v 5.328000 11.819000 -15.125000
v 5.328000 14.840000 -15.125000
v 5.828000 10.905000 -15.125000
v 5.828000 14.673000 -15.125000
v 6.328000 10.374000 -15.125000
v 6.328000 14.520000 -15.125000
v 6.828000 9.850000 -15.125000
v 6.828000 14.411000 -15.125000
v 7.328000 9.619000 -15.125000
v 7.328000 14.409000 -15.125000
v 7.828000 9.296000 -15.125000
v 7.828000 14.430000 -15.125000
v 8.328000 8.840000 -15.125000
v 8.328000 14.431000 -15.125000
v 8.828000 8.409000 -15.125000
v 8.828000 14.433000 -15.125000
v 9.328000 8.212000 -15.125000
v 9.328000 14.422000 -15.125000
v 9.828000 8.214000 -15.125000
v 9.828000 14.227000 -15.125000
v 10.328000 8.309000 -15.125000
v 10.328000 13.699000 -15.125000
v 10.828000 8.544000 -15.125000
v 10.828000 11.314000 -15.125000
v 11.328000 9.265000 -15.125000
v 11.328000 10.754000 -15.125000
v 3.328000 10.378000 -11.125000
v 3.328000 12.246000 -11.125000
v 3.328000 13.782000 -11.125000
v 3.328000 15.162000 -11.125000
v 3.828000 9.824000 -11.125000
v 3.828000 15.125000 -11.125000
v 4.328000 9.633000 -11.125000
v 4.328000 14.084000 -11.125000
v 4.828000 9.639000 -11.125000
v 4.828000 13.338000 -11.125000
v 5.328000 9.847000 -11.125000
v 5.328000 12.854000 -11.125000
v 5.828000 10.355000 -11.125000
v 5.828000 12.444000 -11.125000
v 8.132000 12.022000 -19.125000
v 8.986000 12.022000 -19.125000
v 7.271000 12.022000 -18.625000
v 9.650000 12.022000 -18.625000
v 6.557000 12.022000 -18.125000
v 10.123000 12.022000 -18.125000
v 6.336000 12.022000 -17.625000
v 10.336000 12.022000 -17.625000
v 6.213000 12.022000 -17.125000
v 10.476000 12.022000 -17.125000
v 5.936000 12.022000 -16.625000
v 10.487000 12.022000 -16.625000
v 5.679000 12.022000 -16.125000
v 10.481000 12.022000 -16.125000
v 5.520000 12.022000 -15.625000
v 10.494000 12.022000 -15.625000
v 5.191000 12.022000 -15.125000
v 10.547000 12.022000 -15.125000
v 4.442000 12.022000 -14.625000
v 10.690000 12.022000 -14.625000
v 4.001000 12.022000 -14.125000
v 10.878000 12.022000 -14.125000
v 3.711000 12.022000 -13.625000
v 10.877000 12.022000 -13.625000
v 3.335000 12.022000 -13.125000
v 10.667000 12.022000 -13.125000
v 3.188000 12.022000 -12.625000
v 10.141000 12.022000 -12.625000
v 3.147000 12.022000 -12.125000
v 7.265000 12.022000 -12.125000
v 3.159000 12.022000 -11.625000
v 6.587000 12.022000 -11.625000
v 3.260000 12.022000 -11.125000
v 6.151000 12.022000 -11.125000
v 3.498000 12.022000 -10.625000
v 5.614000 12.022000 -10.625000
v 3.974000 12.022000 -10.125000
v 5.146000 12.022000 -10.125000
v 3.332000 16.022000 -13.625000
v 4.732000 16.022000 -13.625000
v 3.097000 16.022000 -13.125000
v 5.054000 16.022000 -13.125000
v 3.092000 16.022000 -12.625000
v 5.072000 16.022000 -12.625000
v 3.363000 16.022000 -12.125000
v 4.799000 16.022000 -12.125000
v 3.328000 12.022000 -13.110000
v 3.328000 12.022000 -10.924000
v 3.828000 12.022000 -13.799000
v 3.828000 12.022000 -10.249000
v 4.328000 12.022000 -14.515000
v 4.328000 12.022000 -9.951000
v 4.828000 12.022000 -14.878000
v 4.828000 12.022000 -9.961000
v 5.328000 12.022000 -15.271000
v 5.328000 12.022000 -10.295000
v 5.828000 12.022000 -16.443000
v 5.828000 12.022000 -10.812000
v 6.328000 12.022000 -17.578000
v 6.328000 12.022000 -11.352000
v 6.828000 12.022000 -18.402000
v 6.828000 12.022000 -11.854000
v 7.328000 12.022000 -18.649000
v 7.328000 12.022000 -12.162000
v 7.828000 12.022000 -18.975000
v 7.828000 12.022000 -12.443000
v 8.328000 12.022000 -19.176000
v 8.328000 12.022000 -12.540000
v 8.828000 12.022000 -19.169000
v 8.828000 12.022000 -12.544000
v 9.328000 12.022000 -18.949000
v 9.328000 12.022000 -12.489000
v 9.828000 12.022000 -18.450000
v 9.828000 12.022000 -12.490000
v 10.328000 12.022000 -17.650000
v 10.328000 12.022000 -12.763000
v 10.828000 12.022000 -14.309000
v 10.828000 12.022000 -13.449000
v 3.328000 16.022000 -13.621000
v 3.328000 16.022000 -12.163000
v 3.828000 16.022000 -13.956000
v 3.828000 16.022000 -11.860000
v 4.328000 16.022000 -13.855000
v 4.328000 16.022000 -11.858000
v 4.828000 16.022000 -13.534000
v 4.828000 16.022000 -12.155000
v 7.328000 11.969000 -18.625000
v 7.328000 13.050000 -18.625000
v 7.828000 11.441000 -18.625000
v 7.828000 13.429000 -18.625000
v 8.328000 11.295000 -18.625000
v 8.328000 13.656000 -18.625000
v 8.828000 11.292000 -18.625000
v 8.828000 13.649000 -18.625000
v 9.328000 11.590000 -18.625000
v 9.328000 13.396000 -18.625000
v 2.328000 13.613000 -14.625000
v 2.328000 15.333000 -14.625000
v 2.828000 13.161000 -14.625000
v 2.828000 15.668000 -14.625000
v 3.328000 12.800000 -14.625000
v 3.328000 15.870000 -14.625000
v 3.828000 12.486000 -14.625000
v 3.828000 15.885000 -14.625000
v 4.328000 12.113000 -14.625000
v 4.328000 15.720000 -14.625000
v 4.828000 11.729000 -14.625000
v 4.828000 15.439000 -14.625000
v 5.328000 11.119000 -14.625000
v 5.328000 15.065000 -14.625000
v 5.828000 10.771000 -14.625000
v 5.828000 14.899000 -14.625000
v 6.328000 10.388000 -14.625000
v 6.328000 14.703000 -14.625000
v 6.828000 10.045000 -14.625000
v 6.828000 14.524000 -14.625000
v 7.328000 9.773000 -14.625000
v 7.328000 14.440000 -14.625000
v 7.828000 9.375000 -14.625000
v 7.828000 14.437000 -14.625000
v 8.328000 8.866000 -14.625000
v 8.328000 14.427000 -14.625000
v 8.828000 8.393000 -14.625000
v 8.828000 14.410000 -14.625000
v 9.328000 8.196000 -14.625000
v 9.328000 14.401000 -14.625000
v 9.828000 8.117000 -14.625000
v 9.828000 14.223000 -14.625000
v 10.328000 8.115000 -14.625000
v 10.328000 13.710000 -14.625000
v 10.828000 8.310000 -14.625000
v 10.828000 11.679000 -14.625000
v 11.328000 8.737000 -14.625000
v 11.328000 11.169000 -14.625000
v 11.828000 9.078000 -14.625000
v 11.828000 10.888000 -14.625000
v 3.328000 10.371000 -10.625000
v 3.328000 11.634000 -10.625000
v 3.828000 9.821000 -10.625000
v 3.828000 12.441000 -10.625000
v 4.328000 9.630000 -10.625000
v 4.328000 12.694000 -10.625000
v 4.828000 9.636000 -10.625000
v 4.828000 12.644000 -10.625000
v 5.328000 9.843000 -10.625000
v 5.328000 12.363000 -10.625000
v 5.828000 10.445000 -10.625000
v 5.828000 11.699000 -10.625000
v 9.058000 8.522000 -15.625000
v 10.084000 8.522000 -15.625000
v 8.677000 8.522000 -15.125000
v 10.798000 8.522000 -15.125000
v 8.657000 8.522000 -14.625000
v 11.086000 8.522000 -14.625000
v 8.722000 8.522000 -14.125000
v 11.170000 8.522000 -14.125000
v 9.073000 8.522000 -13.625000
v 11.086000 8.522000 -13.625000
v 9.504000 8.522000 -13.125000
v 10.654000 8.522000 -13.125000
v 7.922000 12.522000 -19.125000
v 9.196000 12.522000 -19.125000
v 7.026000 12.522000 -18.625000
v 9.774000 12.522000 -18.625000
v 6.449000 12.522000 -18.125000
v 10.238000 12.522000 -18.125000
v 6.246000 12.522000 -17.625000
v 10.413000 12.522000 -17.625000
v 6.148000 12.522000 -17.125000
v 10.418000 12.522000 -17.125000
v 5.881000 12.522000 -16.625000
v 10.478000 12.522000 -16.625000
v 5.467000 12.522000 -16.125000
v 10.478000 12.522000 -16.125000
v 5.069000 12.522000 -15.625000
v 10.494000 12.522000 -15.625000
v 4.175000 12.522000 -15.125000
v 10.497000 12.522000 -15.125000
v 3.775000 12.522000 -14.625000
v 10.559000 12.522000 -14.625000
v 3.579000 12.522000 -14.125000
v 10.606000 12.522000 -14.125000
v 3.257000 12.522000 -13.625000
v 10.545000 12.522000 -13.625000
v 3.072000 12.522000 -13.125000
v 10.202000 12.522000 -13.125000
v 3.031000 12.522000 -12.625000
v 8.114000 12.522000 -12.625000
v 3.019000 12.522000 -12.125000
v 6.990000 12.522000 -12.125000
v 3.144000 12.522000 -11.625000
v 6.237000 12.522000 -11.625000
v 3.402000 12.522000 -11.125000
v 5.720000 12.522000 -11.125000
v 3.927000 12.522000 -10.625000
v 5.113000 12.522000 -10.625000
v 8.828000 8.522000 -15.413000
v 8.828000 8.522000 -13.894000
v 9.328000 8.522000 -15.745000
v 9.328000 8.522000 -13.291000
v 9.828000 8.522000 -15.742000
v 9.828000 8.522000 -12.971000
v 10.328000 8.522000 -15.431000
v 10.328000 8.522000 -12.971000
v 10.828000 8.522000 -15.096000
v 10.828000 8.522000 -13.280000
v 3.328000 12.522000 -13.748000
v 3.328000 12.522000 -11.239000
v 3.828000 12.522000 -14.748000
v 3.828000 12.522000 -10.691000
v 4.328000 12.522000 -15.183000
v 4.328000 12.522000 -10.462000
v 4.828000 12.522000 -15.387000
v 4.828000 12.522000 -10.483000
v 5.328000 12.522000 -15.957000
v 5.328000 12.522000 -10.814000
v 5.828000 12.522000 -16.553000
v 5.828000 12.522000 -11.219000
v 6.328000 12.522000 -17.896000
v 6.328000 12.522000 -11.699000
v 6.828000 12.522000 -18.512000
v 6.828000 12.522000 -12.055000
v 7.328000 12.522000 -18.747000
v 7.328000 12.522000 -12.292000
v 7.828000 12.522000 -19.072000
v 7.828000 12.522000 -12.563000
v 8.328000 12.522000 -19.259000
v 8.328000 12.522000 -12.659000
v 8.828000 12.522000 -19.253000
v 8.828000 12.522000 -12.801000
v 9.328000 12.522000 -19.049000
v 9.328000 12.522000 -12.852000
v 9.828000 12.522000 -18.577000
v 9.828000 12.522000 -12.928000
v 10.328000 12.522000 -17.943000
v 10.328000 12.522000 -13.246000
v 6.828000 11.651000 -18.125000
v 6.828000 13.375000 -18.125000
v 7.328000 11.140000 -18.125000
v 7.328000 13.647000 -18.125000
v 7.828000 10.886000 -18.125000
v 7.828000 13.731000 -18.125000
v 8.328000 10.805000 -18.125000
v 8.328000 13.854000 -18.125000
v 8.828000 10.796000 -18.125000
v 8.828000 13.847000 -18.125000
v 9.328000 11.019000 -18.125000
v 9.328000 13.713000 -18.125000
v 9.828000 11.621000 -18.125000
v 9.828000 13.447000 -18.125000
v 1.828000 13.952000 -14.125000
v 1.828000 14.993000 -14.125000
v 2.328000 13.339000 -14.125000
v 2.328000 15.607000 -14.125000
v 2.828000 12.921000 -14.125000
v 2.828000 15.815000 -14.125000
v 3.328000 12.677000 -14.125000
v 3.328000 15.890000 -14.125000
v 3.828000 12.279000 -14.125000
v 3.828000 15.965000 -14.125000
v 4.328000 11.620000 -14.125000
v 4.328000 15.884000 -14.125000
v 4.828000 11.077000 -14.125000
v 4.828000 15.722000 -14.125000
v 5.328000 10.786000 -14.125000
v 5.328000 15.469000 -14.125000
v 5.828000 10.556000 -14.125000
v 5.828000 15.066000 -14.125000
v 6.328000 10.349000 -14.125000
v 6.328000 14.881000 -14.125000
v 6.828000 10.190000 -14.125000
v 6.828000 14.676000 -14.125000
v 7.328000 10.012000 -14.125000
v 7.328000 14.488000 -14.125000
v 7.828000 9.629000 -14.125000
v 7.828000 14.415000 -14.125000
v 8.328000 9.034000 -14.125000
v 8.328000 14.399000 -14.125000
v 8.828000 8.441000 -14.125000
v 8.828000 14.395000 -14.125000
v 9.328000 8.226000 -14.125000
v 9.328000 14.347000 -14.125000
v 9.828000 8.121000 -14.125000
v 9.828000 14.142000 -14.125000
v 10.328000 8.118000 -14.125000
v 10.328000 13.543000 -14.125000
v 10.828000 8.314000 -14.125000
v 10.828000 12.128000 -14.125000
v 11.328000 8.598000 -14.125000
v 11.328000 11.442000 -14.125000
v 11.828000 8.814000 -14.125000
v 11.828000 11.152000 -14.125000
v 12.328000 9.348000 -14.125000
v 12.328000 10.618000 -14.125000
v 3.828000 10.055000 -10.125000
v 3.828000 11.923000 -10.125000
v 4.328000 9.825000 -10.125000
v 4.328000 12.164000 -10.125000
v 4.828000 9.832000 -10.125000
v 4.828000 12.153000 -10.125000
v 5.328000 10.083000 -10.125000
v 5.328000 11.895000 -10.125000
v 8.428000 9.022000 -16.125000
v 10.273000 9.022000 -16.125000
v 8.110000 9.022000 -15.625000
v 10.695000 9.022000 -15.625000
v 8.107000 9.022000 -15.125000
v 11.194000 9.022000 -15.125000
v 8.144000 9.022000 -14.625000
v 11.750000 9.022000 -14.625000
v 8.335000 9.022000 -14.125000
v 12.090000 9.022000 -14.125000
v 8.575000 9.022000 -13.625000
v 12.113000 9.022000 -13.625000
v 9.025000 9.022000 -13.125000
v 11.851000 9.022000 -13.125000
v 9.439000 9.022000 -12.625000
v 10.659000 9.022000 -12.625000
v 8.201000 13.022000 -19.125000
v 8.918000 13.022000 -19.125000
v 7.295000 13.022000 -18.625000
v 9.636000 13.022000 -18.625000
v 6.566000 13.022000 -18.125000
v 10.138000 13.022000 -18.125000
v 6.343000 13.022000 -17.625000
v 10.326000 13.022000 -17.625000
v 6.207000 13.022000 -17.125000
v 10.323000 13.022000 -17.125000
v 5.863000 13.022000 -16.625000
v 10.381000 13.022000 -16.625000
v 5.170000 13.022000 -16.125000
v 10.391000 13.022000 -16.125000
v 3.383000 13.022000 -15.625000
v 10.430000 13.022000 -15.625000
v 3.107000 13.022000 -15.125000
v 10.498000 13.022000 -15.125000
v 2.979000 13.022000 -14.625000
v 10.506000 13.022000 -14.625000
v 2.695000 13.022000 -14.125000
v 10.450000 13.022000 -14.125000
v 2.619000 13.022000 -13.625000
v 10.271000 13.022000 -13.625000
v 2.619000 13.022000 -13.125000
v 9.698000 13.022000 -13.125000
v 2.661000 13.022000 -12.625000
v 7.563000 13.022000 -12.625000
v 2.777000 13.022000 -12.125000
v 6.539000 13.022000 -12.125000
v 3.000000 13.022000 -11.625000
v 5.755000 13.022000 -11.625000
v 3.494000 13.022000 -11.125000
v 5.134000 13.022000 -11.125000
v 8.328000 9.022000 -16.029000
v 8.328000 9.022000 -14.145000
v 8.828000 9.022000 -16.322000
v 8.828000 9.022000 -13.357000
v 9.328000 9.022000 -16.372000
v 9.328000 9.022000 -12.724000
v 9.828000 9.022000 -16.373000
v 9.828000 9.022000 -12.444000
v 10.328000 9.022000 -16.068000
v 10.328000 9.022000 -12.460000
v 10.828000 9.022000 -15.498000
v 10.828000 9.022000 -12.718000
v 11.328000 9.022000 -14.979000
v 11.328000 9.022000 -12.834000
v 11.828000 9.022000 -14.557000
v 11.828000 9.022000 -13.102000
v 2.828000 13.022000 -14.385000
v 2.828000 13.022000 -11.956000
v 3.328000 13.022000 -15.565000
v 3.328000 13.022000 -11.257000
v 3.828000 13.022000 -15.886000
v 3.828000 13.022000 -10.943000
v 4.328000 13.022000 -15.916000
v 4.328000 13.022000 -10.846000
v 4.828000 13.022000 -15.985000
v 4.828000 13.022000 -10.950000
v 5.328000 13.022000 -16.215000
v 5.328000 13.022000 -11.304000
v 5.828000 13.022000 -16.590000
v 5.828000 13.022000 -11.693000
v 6.328000 13.022000 -17.544000
v 6.328000 13.022000 -12.029000
v 6.828000 13.022000 -18.394000
v 6.828000 13.022000 -12.277000
v 7.328000 13.022000 -18.638000
v 7.328000 13.022000 -12.548000
v 7.828000 13.022000 -18.950000
v 7.828000 13.022000 -12.754000
v 8.328000 13.022000 -19.155000
v 8.328000 13.022000 -12.884000
v 8.828000 13.022000 -19.148000
v 8.828000 13.022000 -12.945000
v 9.328000 13.022000 -18.924000
v 9.328000 13.022000 -13.020000
v 9.828000 13.022000 -18.464000
v 9.828000 13.022000 -13.191000
v 10.328000 13.022000 -16.959000
v 10.328000 13.022000 -13.730000
v 6.328000 12.046000 -17.625000
v 6.328000 12.980000 -17.625000
v 6.828000 11.376000 -17.625000
v 6.828000 13.636000 -17.625000
v 7.328000 10.902000 -17.625000
v 7.328000 13.856000 -17.625000
v 7.828000 10.682000 -17.625000
v 7.828000 13.899000 -17.625000
v 8.328000 10.535000 -17.625000
v 8.328000 13.905000 -17.625000
v 8.828000 10.390000 -17.625000
v 8.828000 13.910000 -17.625000
v 9.328000 10.460000 -17.625000
v 9.328000 13.891000 -17.625000
v 9.828000 10.973000 -17.625000
v 9.828000 13.669000 -17.625000
v 10.328000 11.984000 -17.625000
v 10.328000 13.018000 -17.625000
v 1.828000 13.909000 -13.625000
v 1.828000 15.036000 -13.625000
v 2.328000 13.304000 -13.625000
v 2.328000 15.627000 -13.625000
v 2.828000 12.854000 -13.625000
v 2.828000 15.847000 -13.625000
v 3.328000 12.458000 -13.625000
v 3.328000 16.020000 -13.625000
v 3.828000 11.791000 -13.625000
v 3.828000 16.188000 -13.625000
v 4.328000 11.094000 -13.625000
v 4.328000 16.189000 -13.625000
v 4.828000 10.583000 -13.625000
v 4.828000 15.969000 -13.625000
v 5.328000 10.354000 -13.625000
v 5.328000 15.688000 -13.625000
v 5.828000 10.326000 -13.625000
v 5.828000 15.219000 -13.625000
v 6.328000 10.329000 -13.625000
v 6.328000 14.915000 -13.625000
v 6.828000 10.349000 -13.625000
v 6.828000 14.690000 -13.625000
v 7.328000 10.338000 -13.625000
v 7.328000 14.375000 -13.625000
v 7.828000 10.125000 -13.625000
v 7.828000 14.218000 -13.625000
v 8.328000 9.562000 -13.625000
v 8.328000 14.220000 -13.625000
v 8.828000 8.698000 -13.625000
v 8.828000 14.216000 -13.625000
v 9.328000 8.373000 -13.625000
v 9.328000 14.134000 -13.625000
v 9.828000 8.178000 -13.625000
v 9.828000 13.881000 -13.625000
v 10.328000 8.177000 -13.625000
v 10.328000 12.885000 -13.625000
v 10.828000 8.377000 -13.625000
v 10.828000 12.124000 -13.625000
v 11.328000 8.609000 -13.625000
v 11.328000 11.457000 -13.625000
v 11.828000 8.795000 -13.625000
v 11.828000 11.171000 -13.625000
v 12.328000 9.312000 -13.625000
v 12.328000 10.654000 -13.625000
v 4.328000 10.386000 -9.625000
v 4.328000 11.592000 -9.625000
v 4.828000 10.400000 -9.625000
v 4.828000 11.578000 -9.625000
f 285 687 745
f 745 687 107
f 687 841 107
f 687 843 841
f 843 1001 841
f 1003 1001 843
f 1003 1159 1001
f 1161 1159 1003
f 108 1159 89
f 1159 29 89
f 1159 1161 29
f 29 286 89
f 287 525 591
f 285 745 525
f 525 745 591
f 745 685 591
f 685 109 591
f 745 107 685
f 89 27 108
f 89 286 27
f 286 110 27
f 286 288 110
f 289 347 421
f 287 591 347
f 347 591 421
f 591 523 421
f 523 111 421
f 591 109 523
f 110 290 112
f 288 290 110
f 345 113 421
f 113 289 421
f 113 291 289
f 421 111 345
f 112 292 114
f 290 292 112
f 293 167 233
f 115 233 167
f 291 115 167
f 113 115 291
f 114 294 116
f 292 294 114
f 295 1 57
f 293 233 1
f 1 233 57
f 233 165 57
f 165 117 57
f 233 115 165
f 116 296 118
f 294 296 116
f 59 297 57
f 57 297 295
f 57 117 119
f 57 119 59
f 118 298 120
f 296 298 118
f 61 299 59
f 59 299 297
f 59 119 166
f 239 59 166
f 61 59 239
f 121 239 166
f 120 300 122
f 298 300 120
f 61 2 299
f 2 61 168
f 168 61 239
f 433 301 346
f 346 301 121
f 301 168 121
f 168 239 121
f 524 605 433
f 524 433 346
f 123 605 524
f 1160 1231 124
f 30 302 1231
f 1160 30 1231
f 28 30 1160
f 28 122 30
f 30 122 300
f 433 348 301
f 348 433 526
f 526 433 605
f 123 686 605
f 686 526 605
f 686 688 526
f 842 688 686
f 842 844 688
f 1002 844 842
f 1002 1004 844
f 1231 1162 124
f 1162 1002 124
f 1162 1004 1002
f 1231 302 1162
f 303 45 125
f 125 45 43
f 45 209 43
f 211 209 45
f 211 395 209
f 397 395 211
f 397 567 395
f 569 567 397
f 569 304 567
f 567 304 126
f 305 1177 127
f 127 1177 1175
f 125 1175 1177
f 125 1177 303
f 725 126 304
f 725 304 727
f 727 306 725
f 725 306 128
f 307 703 733
f 733 703 879
f 879 703 859
f 879 859 129
f 859 1017 129
f 859 1019 1017
f 127 1017 1019
f 127 1019 305
f 873 128 306
f 873 306 875
f 875 308 873
f 873 308 130
f 309 541 579
f 307 733 541
f 541 733 579
f 733 701 579
f 701 131 579
f 879 857 701
f 879 701 733
f 879 129 857
f 130 310 132
f 308 310 130
f 311 365 409
f 309 579 365
f 365 579 409
f 579 539 409
f 539 133 409
f 579 131 539
f 132 312 134
f 310 312 132
f 361 135 409
f 135 311 409
f 135 313 311
f 409 133 361
f 134 314 136
f 312 314 134
f 315 135 137
f 315 313 135
f 876 316 138
f 876 138 874
f 874 136 876
f 876 136 314
f 317 137 139
f 317 315 137
f 570 318 630
f 570 630 140
f 726 570 140
f 728 570 726
f 726 138 728
f 728 138 316
f 319 139 141
f 319 317 139
f 398 320 462
f 630 318 398
f 630 398 462
f 568 630 462
f 142 568 462
f 140 630 568
f 141 362 319
f 319 362 366
f 321 366 362
f 321 362 143
f 212 322 272
f 462 320 212
f 462 212 272
f 396 462 272
f 144 396 272
f 142 462 396
f 323 143 145
f 323 321 143
f 46 324 94
f 272 322 46
f 272 46 94
f 210 272 94
f 146 210 94
f 144 272 210
f 325 145 147
f 325 323 145
f 1178 326 1222
f 94 324 1178
f 1222 94 1178
f 96 94 1222
f 146 94 148
f 148 94 96
f 426 363 149
f 147 363 426
f 327 147 426
f 325 147 327
f 1020 328 1060
f 1222 326 1020
f 1060 1222 1020
f 1224 1222 1060
f 98 1222 1224
f 96 1222 98
f 148 96 150
f 150 96 98
f 58 15 151
f 236 181 58
f 58 181 15
f 367 426 149
f 367 149 181
f 329 367 181
f 236 329 181
f 327 426 367
f 330 1062 1060
f 330 1060 328
f 1226 1060 1062
f 1224 1060 1226
f 100 1224 1226
f 98 1224 100
f 150 98 152
f 152 98 100
f 1190 1147 153
f 17 58 151
f 17 151 1147
f 331 17 1147
f 1190 331 1147
f 58 17 183
f 58 183 236
f 329 236 183
f 332 1064 1062
f 332 1062 330
f 1228 1062 1064
f 1226 1062 1228
f 44 100 154
f 100 1228 154
f 100 1226 1228
f 152 100 44
f 1034 991 155
f 1149 1190 153
f 1149 153 991
f 333 1149 991
f 1034 333 991
f 331 1190 1149
f 334 1066 1064
f 334 1064 332
f 1176 1228 156
f 1228 1066 156
f 1228 1064 1066
f 154 1228 1176
f 157 1036 155
f 155 1036 1034
f 333 1034 1036
f 333 1036 335
f 860 336 908
f 1066 334 860
f 1066 860 908
f 1018 1066 908
f 158 1018 908
f 156 1066 1018
f 992 1036 157
f 1150 335 1196
f 1196 335 159
f 335 1036 159
f 1036 992 159
f 337 1150 1196
f 704 338 764
f 908 336 704
f 908 704 764
f 858 908 764
f 160 858 764
f 158 908 858
f 161 1198 159
f 159 1198 1196
f 337 1196 1198
f 337 1198 339
f 542 340 610
f 764 338 542
f 764 542 610
f 702 764 610
f 162 702 610
f 160 764 702
f 163 1200 161
f 161 1200 1198
f 70 18 339
f 1198 70 339
f 1200 70 1198
f 341 18 70
f 368 342 440
f 610 340 368
f 610 368 440
f 540 610 440
f 164 540 440
f 162 610 540
f 1148 1200 163
f 16 70 1148
f 1148 70 1200
f 70 16 341
f 16 184 341
f 16 182 184
f 342 184 440
f 184 364 440
f 184 182 364
f 164 440 364
f 465 31 79
f 79 31 259
f 259 31 195
f 259 195 451
f 451 195 383
f 383 466 451
f 81 467 79
f 79 467 465
f 79 261 81
f 79 259 261
f 259 453 261
f 259 451 453
f 451 466 453
f 453 466 468
f 83 469 81
f 81 469 467
f 81 263 83
f 81 261 263
f 470 263 384
f 263 453 384
f 263 261 453
f 453 468 384
f 471 1163 1211
f 469 83 1163
f 83 1211 1163
f 83 85 1211
f 472 85 196
f 85 263 196
f 85 83 263
f 263 470 196
f 473 689 743
f 743 689 889
f 889 689 845
f 889 845 1049
f 1049 845 1005
f 471 1211 1005
f 1211 1049 1005
f 1211 1213 1049
f 1211 87 1213
f 1211 85 87
f 85 472 87
f 87 472 474
f 475 527 589
f 473 743 527
f 527 743 589
f 743 687 589
f 687 285 589
f 889 843 687
f 889 687 743
f 1049 1003 843
f 1049 843 889
f 1213 1161 1003
f 1213 1003 1049
f 87 29 1161
f 87 1161 1213
f 474 197 269
f 474 269 286
f 87 474 286
f 29 87 286
f 197 476 269
f 477 349 419
f 475 589 349
f 349 589 419
f 589 525 419
f 525 287 419
f 589 285 525
f 271 288 286
f 271 286 269
f 269 476 271
f 271 476 478
f 479 169 229
f 477 419 169
f 169 419 229
f 419 347 229
f 347 289 229
f 419 287 347
f 273 290 288
f 273 288 271
f 271 478 273
f 273 478 480
f 231 481 229
f 229 481 479
f 229 289 291
f 229 291 231
f 275 292 290
f 275 290 273
f 273 480 275
f 275 480 482
f 483 3 55
f 481 231 3
f 3 231 55
f 231 167 55
f 167 293 55
f 231 291 167
f 277 294 292
f 277 292 275
f 275 482 277
f 277 482 484
f 485 1135 1187
f 483 55 1135
f 1135 55 1187
f 55 1 1187
f 1 295 1187
f 55 293 1
f 279 296 294
f 279 294 277
f 277 484 279
f 279 484 486
f 1189 487 1187
f 1187 487 485
f 1187 295 297
f 1187 297 1189
f 281 298 296
f 281 296 279
f 279 486 281
f 281 486 488
f 1191 489 1189
f 1189 489 487
f 1189 297 299
f 1189 299 1191
f 298 281 198
f 490 298 198
f 300 298 490
f 281 488 198
f 1191 1136 489
f 63 491 2
f 2 491 299
f 491 1136 299
f 1136 1191 299
f 168 241 63
f 168 63 2
f 301 241 168
f 32 492 302
f 32 302 30
f 30 300 32
f 32 300 490
f 63 4 491
f 4 63 170
f 170 63 241
f 301 348 241
f 348 170 241
f 348 350 170
f 526 350 348
f 526 528 350
f 688 528 526
f 688 690 528
f 844 690 688
f 844 846 690
f 1004 846 844
f 1004 1006 846
f 1162 1006 1004
f 1162 1164 1006
f 1162 302 1164
f 1164 302 492
f 74 45 303
f 493 213 74
f 213 45 74
f 213 211 45
f 213 397 211
f 399 397 213
f 399 569 397
f 571 569 399
f 571 494 569
f 569 494 304
f 495 1179 305
f 305 1179 1177
f 47 74 303
f 1177 47 303
f 1179 47 1177
f 493 74 47
f 727 304 494
f 727 494 729
f 729 496 727
f 727 496 306
f 497 543 577
f 577 543 307
f 543 703 307
f 543 705 703
f 705 859 703
f 861 859 705
f 861 1019 859
f 1021 1019 861
f 305 1019 1021
f 305 1021 495
f 498 912 875
f 306 498 875
f 496 498 306
f 912 308 875
f 499 369 407
f 497 577 369
f 369 577 407
f 577 541 407
f 541 309 407
f 577 307 541
f 877 912 498
f 877 500 912
f 500 308 912
f 500 310 308
f 365 311 407
f 311 499 407
f 311 501 499
f 407 309 365
f 310 502 312
f 500 502 310
f 503 311 313
f 503 501 311
f 878 504 918
f 918 314 878
f 314 502 878
f 314 312 502
f 505 313 315
f 505 503 313
f 730 506 778
f 918 504 730
f 918 730 778
f 876 918 778
f 316 876 778
f 314 918 876
f 507 315 317
f 507 505 315
f 214 508 268
f 214 268 460
f 214 460 400
f 400 460 318
f 570 400 318
f 572 400 570
f 506 572 778
f 572 728 778
f 572 570 728
f 316 778 728
f 509 317 319
f 509 507 317
f 48 510 90
f 268 508 48
f 90 268 48
f 270 268 90
f 398 460 320
f 460 270 320
f 460 268 270
f 318 460 398
f 319 366 509
f 509 366 370
f 511 370 366
f 511 366 321
f 1180 512 1218
f 90 510 1180
f 1218 90 1180
f 92 90 1218
f 212 270 322
f 270 92 322
f 270 90 92
f 320 270 212
f 544 511 594
f 511 323 594
f 511 321 323
f 544 594 750
f 544 750 706
f 706 750 896
f 706 896 862
f 862 896 1056
f 862 1056 1022
f 1218 512 1022
f 1056 1218 1022
f 1220 1218 1056
f 46 92 324
f 92 1220 324
f 92 1218 1220
f 322 92 46
f 325 596 323
f 323 596 594
f 752 594 596
f 750 594 752
f 898 750 752
f 896 750 898
f 1058 896 898
f 1056 896 1058
f 1178 1220 326
f 1220 1058 326
f 1220 1056 1058
f 324 1220 1178
f 327 598 325
f 325 598 596
f 754 596 598
f 752 596 754
f 900 752 754
f 898 752 900
f 1020 1058 328
f 1058 900 328
f 1058 898 900
f 326 1058 1020
f 428 367 329
f 367 428 327
f 428 598 327
f 428 600 598
f 756 598 600
f 754 598 756
f 902 754 756
f 900 754 902
f 328 900 330
f 330 900 902
f 60 17 331
f 238 183 60
f 60 183 17
f 371 428 329
f 371 329 183
f 513 371 183
f 238 513 183
f 428 371 545
f 428 545 600
f 600 545 514
f 758 600 514
f 756 600 758
f 904 756 758
f 902 756 904
f 330 902 332
f 332 902 904
f 1192 1149 333
f 19 60 331
f 19 331 1149
f 515 19 1149
f 1192 515 1149
f 60 19 185
f 60 185 238
f 513 238 185
f 516 760 758
f 516 758 514
f 906 758 760
f 904 758 906
f 332 904 334
f 334 904 906
f 335 1194 333
f 333 1194 1192
f 64 20 515
f 1192 64 515
f 1194 64 1192
f 517 20 64
f 518 762 760
f 518 760 516
f 860 906 336
f 906 762 336
f 906 760 762
f 334 906 860
f 1150 1194 335
f 337 66 1150
f 66 1194 1150
f 66 64 1194
f 244 186 517
f 64 244 517
f 66 244 64
f 186 244 436
f 186 436 372
f 372 436 608
f 372 608 546
f 762 518 546
f 762 546 608
f 704 762 608
f 338 704 608
f 336 762 704
f 339 68 337
f 337 68 66
f 246 66 68
f 244 66 246
f 438 244 246
f 436 244 438
f 542 608 340
f 608 438 340
f 608 436 438
f 338 608 542
f 18 68 339
f 341 248 18
f 248 68 18
f 248 246 68
f 368 438 342
f 438 248 342
f 438 246 248
f 340 438 368
f 184 248 341
f 342 248 184
f 631 33 77
f 77 33 257
f 257 33 199
f 257 199 449
f 449 199 385
f 449 385 619
f 619 385 557
f 557 632 619
f 633 1165 1205
f 631 77 1165
f 1165 77 1205
f 77 31 1205
f 31 465 1205
f 257 195 31
f 257 31 77
f 449 383 195
f 449 195 257
f 621 466 383
f 449 621 383
f 619 621 449
f 619 632 621
f 621 632 634
f 1207 635 1205
f 1205 635 633
f 1205 465 467
f 1205 467 1207
f 623 468 466
f 623 466 621
f 621 634 623
f 623 634 636
f 1209 637 1207
f 1207 637 635
f 1207 467 469
f 1207 469 1209
f 384 455 470
f 623 558 468
f 468 558 384
f 558 638 384
f 638 455 384
f 623 636 558
f 639 1007 1047
f 637 1209 1007
f 1007 1209 1047
f 1209 1163 1047
f 1163 471 1047
f 1209 469 1163
f 196 265 472
f 455 386 470
f 470 386 196
f 386 640 196
f 640 265 196
f 455 638 386
f 641 691 473
f 473 691 689
f 691 845 689
f 847 845 691
f 847 639 1047
f 1005 847 1047
f 845 847 1005
f 1047 471 1005
f 267 474 472
f 267 472 265
f 265 640 267
f 267 640 642
f 643 351 417
f 417 351 475
f 351 527 475
f 351 529 527
f 473 527 529
f 473 529 641
f 267 197 474
f 267 642 197
f 642 476 197
f 642 644 476
f 645 171 227
f 643 417 171
f 171 417 227
f 417 349 227
f 349 477 227
f 417 475 349
f 476 646 478
f 644 646 476
f 169 479 227
f 479 645 227
f 479 647 645
f 227 477 169
f 478 648 480
f 646 648 478
f 649 5 53
f 481 53 5
f 647 481 5
f 479 481 647
f 480 650 482
f 648 650 480
f 651 1137 1185
f 649 53 1137
f 1137 53 1185
f 53 3 1185
f 3 483 1185
f 53 481 3
f 482 652 484
f 650 652 482
f 1135 485 1185
f 485 651 1185
f 485 653 651
f 1185 483 1135
f 484 654 486
f 652 654 484
f 655 981 1031
f 487 1031 981
f 653 487 981
f 485 487 653
f 486 656 488
f 654 656 486
f 1033 657 1031
f 1031 657 655
f 1031 487 489
f 1031 489 1033
f 198 283 490
f 198 488 283
f 488 658 283
f 488 656 658
f 1033 982 657
f 1193 659 1136
f 1136 659 489
f 659 982 489
f 982 1033 489
f 491 1193 1136
f 32 105 492
f 283 200 490
f 490 200 32
f 200 660 32
f 660 105 32
f 283 658 200
f 1193 1138 659
f 65 661 4
f 4 661 491
f 661 1138 491
f 1138 1193 491
f 170 243 65
f 170 65 4
f 350 435 243
f 350 243 170
f 528 607 435
f 528 435 350
f 692 662 607
f 528 692 607
f 690 692 528
f 846 692 690
f 846 848 692
f 1006 848 846
f 1006 1008 848
f 1164 1008 1006
f 1164 1166 1008
f 105 34 492
f 34 1164 492
f 34 1166 1164
f 105 660 34
f 65 6 661
f 6 65 172
f 172 65 243
f 172 243 352
f 352 243 435
f 352 435 530
f 530 435 607
f 607 662 530
f 254 213 493
f 446 399 254
f 254 399 213
f 616 571 446
f 446 571 399
f 616 494 571
f 1202 1179 495
f 663 49 1202
f 49 1179 1202
f 49 47 1179
f 215 254 493
f 47 215 493
f 49 215 47
f 254 215 401
f 254 401 446
f 446 401 573
f 446 573 616
f 664 768 729
f 664 729 494
f 573 664 494
f 616 573 494
f 768 496 729
f 665 547 497
f 497 547 543
f 547 705 543
f 707 705 547
f 707 861 705
f 863 861 707
f 863 1021 861
f 1023 1021 863
f 1181 1202 495
f 1021 1181 495
f 1023 1181 1021
f 663 1202 1181
f 731 768 664
f 731 666 768
f 666 496 768
f 666 498 496
f 667 373 499
f 499 373 369
f 497 369 373
f 497 373 665
f 668 914 877
f 498 668 877
f 666 668 498
f 914 500 877
f 669 187 221
f 501 221 187
f 667 501 187
f 499 501 667
f 670 916 914
f 670 914 668
f 500 914 502
f 502 914 916
f 223 671 221
f 221 671 669
f 221 501 503
f 221 503 223
f 574 672 626
f 574 626 776
f 574 776 732
f 916 670 732
f 916 732 776
f 878 916 776
f 504 878 776
f 502 916 878
f 225 673 223
f 223 673 671
f 223 503 505
f 223 505 225
f 216 674 266
f 216 266 458
f 216 458 402
f 626 672 402
f 458 626 402
f 628 626 458
f 730 776 506
f 776 628 506
f 776 626 628
f 504 776 730
f 225 188 673
f 675 188 225
f 505 675 225
f 507 675 505
f 1182 676 1214
f 1182 1214 88
f 1182 88 50
f 266 674 50
f 266 50 88
f 214 266 88
f 508 214 88
f 400 458 214
f 214 458 266
f 572 628 400
f 400 628 458
f 506 628 572
f 374 675 418
f 675 509 418
f 675 507 509
f 677 374 418
f 1024 678 1052
f 1214 676 1024
f 1052 1214 1024
f 1216 1214 1052
f 48 88 510
f 88 1216 510
f 88 1214 1216
f 508 88 48
f 370 418 509
f 548 677 592
f 592 677 511
f 677 418 511
f 418 370 511
f 548 592 748
f 548 748 708
f 708 748 894
f 708 894 864
f 1052 678 864
f 894 1052 864
f 1054 1052 894
f 1180 1216 512
f 1216 1054 512
f 1216 1052 1054
f 510 1216 1180
f 544 592 511
f 706 748 544
f 544 748 592
f 862 894 706
f 706 894 748
f 1022 1054 862
f 862 1054 894
f 512 1054 1022
f 430 371 513
f 602 545 430
f 430 545 371
f 602 514 545
f 62 19 515
f 240 185 62
f 62 185 19
f 185 240 513
f 240 430 513
f 240 432 430
f 604 430 432
f 602 430 604
f 514 602 516
f 516 602 604
f 20 62 515
f 517 242 20
f 242 62 20
f 242 240 62
f 434 240 242
f 432 240 434
f 606 432 434
f 604 432 606
f 516 604 518
f 518 604 606
f 186 242 517
f 372 434 186
f 186 434 242
f 546 606 372
f 372 606 434
f 518 606 546
f 779 833 899
f 899 833 1059
f 1059 833 993
f 1059 993 1223
f 1223 993 1151
f 1151 780 1223
f 901 781 899
f 899 781 779
f 899 1061 901
f 899 1059 1061
f 1059 1225 1061
f 1059 1223 1225
f 1223 780 1225
f 1225 780 782
f 901 834 781
f 834 901 994
f 994 901 1061
f 994 1061 1152
f 1152 1061 1225
f 1225 782 1152
f 783 35 75
f 75 35 255
f 255 35 201
f 255 201 447
f 447 201 387
f 447 387 617
f 617 387 559
f 559 784 617
f 785 1167 1203
f 783 75 1167
f 1167 75 1203
f 75 33 1203
f 33 631 1203
f 255 199 33
f 255 33 75
f 447 385 199
f 447 199 255
f 617 557 385
f 617 385 447
f 784 717 769
f 784 769 632
f 617 784 632
f 557 617 632
f 717 786 769
f 1165 633 1203
f 633 785 1203
f 633 787 785
f 1203 631 1165
f 771 634 632
f 771 632 769
f 769 786 771
f 771 786 788
f 789 1009 1043
f 635 1043 1009
f 787 635 1009
f 633 635 787
f 634 771 718
f 790 634 718
f 636 634 790
f 771 788 718
f 1045 791 1043
f 1043 791 789
f 1043 635 637
f 1043 637 1045
f 558 625 638
f 558 636 625
f 636 792 625
f 636 790 792
f 793 849 887
f 791 1045 849
f 849 1045 887
f 1045 1007 887
f 1007 639 887
f 1045 637 1007
f 386 457 640
f 625 560 638
f 638 560 386
f 560 794 386
f 794 457 386
f 625 792 560
f 795 531 587
f 587 531 641
f 531 691 641
f 531 693 691
f 693 793 887
f 847 693 887
f 691 693 847
f 887 639 847
f 459 642 640
f 459 640 457
f 457 794 459
f 459 794 796
f 797 353 643
f 643 353 351
f 353 795 587
f 529 353 587
f 351 353 529
f 587 641 529
f 642 459 388
f 798 642 388
f 644 642 798
f 459 796 388
f 799 173 645
f 645 173 171
f 643 171 173
f 643 173 797
f 644 800 646
f 798 800 644
f 801 645 647
f 801 799 645
f 646 802 648
f 800 802 646
f 803 7 649
f 649 7 5
f 647 5 7
f 647 7 801
f 648 804 650
f 802 804 648
f 805 1139 651
f 651 1139 1137
f 649 1137 1139
f 649 1139 803
f 650 806 652
f 804 806 650
f 807 983 1029
f 653 1029 983
f 805 653 983
f 651 653 805
f 652 808 654
f 806 808 652
f 981 655 1029
f 655 807 1029
f 655 809 807
f 1029 653 981
f 654 810 656
f 808 810 654
f 811 655 657
f 811 809 655
f 656 812 658
f 810 812 656
f 1035 813 982
f 813 657 982
f 813 811 657
f 659 1035 982
f 202 814 660
f 202 660 200
f 200 658 202
f 202 658 812
f 1035 984 813
f 1195 815 1138
f 1138 815 659
f 815 984 659
f 984 1035 659
f 661 1195 1138
f 694 816 662
f 694 662 692
f 848 694 692
f 848 850 694
f 1008 850 848
f 1008 1010 850
f 1166 1010 1008
f 1166 1168 1010
f 34 1168 1166
f 34 36 1168
f 34 660 36
f 36 660 814
f 1195 1140 815
f 67 817 6
f 6 817 661
f 817 1140 661
f 1140 1195 661
f 172 245 67
f 172 67 6
f 352 437 245
f 352 245 172
f 532 818 437
f 352 532 437
f 530 532 352
f 530 662 532
f 532 662 816
f 67 8 817
f 8 67 174
f 174 67 245
f 174 245 354
f 354 245 437
f 437 818 354
f 76 49 663
f 256 215 76
f 76 215 49
f 448 401 256
f 256 401 215
f 618 573 448
f 448 573 401
f 618 664 573
f 819 375 405
f 405 375 665
f 375 547 665
f 375 549 547
f 549 707 547
f 709 707 549
f 709 863 707
f 865 863 709
f 1040 1023 820
f 1023 865 820
f 1023 863 865
f 1204 1181 1040
f 1040 1181 1023
f 1181 1204 663
f 1204 76 663
f 1204 78 76
f 78 821 217
f 256 78 217
f 76 78 256
f 256 217 403
f 256 403 448
f 448 403 575
f 448 575 618
f 822 770 731
f 822 731 664
f 575 822 664
f 618 575 664
f 770 666 731
f 823 189 219
f 819 405 189
f 189 405 219
f 405 373 219
f 373 667 219
f 405 665 373
f 1025 1040 820
f 1040 1025 1183
f 1040 1183 1204
f 1204 1183 51
f 1204 51 78
f 821 78 51
f 824 772 770
f 824 770 822
f 666 770 668
f 668 770 772
f 187 669 219
f 669 823 219
f 669 825 823
f 219 667 187
f 404 826 454
f 404 454 624
f 404 624 576
f 772 824 576
f 624 772 576
f 774 772 624
f 668 772 670
f 670 772 774
f 827 669 671
f 827 825 669
f 52 828 84
f 52 84 264
f 52 264 218
f 454 826 218
f 264 454 218
f 456 454 264
f 574 624 672
f 624 456 672
f 624 454 456
f 732 774 574
f 574 774 624
f 670 774 732
f 829 671 673
f 829 827 671
f 1184 830 1212
f 84 828 1184
f 1212 84 1184
f 86 84 1212
f 216 264 674
f 264 86 674
f 264 84 86
f 402 456 216
f 216 456 264
f 672 456 402
f 673 188 829
f 829 188 190
f 831 190 188
f 831 188 675
f 1026 832 1050
f 1212 830 1026
f 1212 1026 1050
f 1182 1212 1050
f 676 1182 1050
f 50 86 1182
f 1182 86 1212
f 674 86 50
f 675 374 831
f 831 374 376
f 374 677 590
f 550 374 590
f 376 374 550
f 550 590 746
f 550 746 710
f 710 746 892
f 710 892 866
f 1050 832 866
f 1050 866 892
f 1024 1050 892
f 678 1024 892
f 676 1050 1024
f 548 590 677
f 708 746 548
f 548 746 590
f 864 892 708
f 708 892 746
f 678 892 864
f 919 835 895
f 895 835 1055
f 1055 835 995
f 1055 995 1219
f 1219 995 1153
f 1153 920 1219
f 921 679 751
f 919 895 679
f 895 751 679
f 895 897 751
f 895 1057 897
f 895 1055 1057
f 1055 1221 1057
f 1055 1219 1221
f 1219 920 1221
f 1221 920 922
f 753 923 751
f 751 923 921
f 897 833 779
f 753 897 779
f 751 897 753
f 1057 993 833
f 1057 833 897
f 1221 1151 993
f 1221 993 1057
f 922 21 97
f 922 97 780
f 1221 922 780
f 1151 1221 780
f 21 924 97
f 755 925 753
f 753 925 923
f 753 779 781
f 753 781 755
f 99 782 780
f 99 780 97
f 97 924 99
f 99 924 926
f 755 680 925
f 903 927 834
f 834 927 781
f 927 680 781
f 680 755 781
f 994 1063 903
f 994 903 834
f 1152 1227 1063
f 1152 1063 994
f 99 22 782
f 782 22 1152
f 22 928 1152
f 928 1227 1152
f 99 926 22
f 903 836 927
f 836 903 996
f 996 903 1063
f 996 1063 1154
f 1154 1063 1227
f 1227 928 1154
f 929 203 253
f 253 203 445
f 445 203 389
f 445 389 615
f 615 389 561
f 561 930 615
f 931 37 783
f 783 37 35
f 37 929 253
f 201 37 253
f 35 37 201
f 445 387 201
f 445 201 253
f 615 559 387
f 615 387 445
f 930 719 767
f 930 767 784
f 615 930 784
f 559 615 784
f 719 932 767
f 933 1169 785
f 785 1169 1167
f 783 1167 1169
f 783 1169 931
f 767 717 784
f 767 932 717
f 932 786 717
f 932 934 786
f 935 1011 1041
f 787 1041 1011
f 933 787 1011
f 785 787 933
f 786 936 788
f 934 936 786
f 1009 789 1041
f 789 935 1041
f 789 937 935
f 1041 787 1009
f 718 773 790
f 718 788 773
f 788 938 773
f 788 936 938
f 939 851 885
f 791 885 851
f 937 791 851
f 789 791 937
f 790 773 720
f 940 790 720
f 792 790 940
f 773 938 720
f 941 695 741
f 939 885 695
f 695 885 741
f 885 849 741
f 849 793 741
f 885 791 849
f 560 627 794
f 560 792 627
f 792 942 627
f 792 940 942
f 943 533 795
f 795 533 531
f 533 941 741
f 693 533 741
f 531 533 693
f 741 793 693
f 794 627 562
f 944 794 562
f 796 794 944
f 627 942 562
f 945 355 797
f 797 355 353
f 795 353 355
f 795 355 943
f 388 461 798
f 388 796 461
f 796 946 461
f 796 944 946
f 228 173 799
f 797 173 228
f 947 797 228
f 945 797 947
f 463 800 798
f 463 798 461
f 461 946 463
f 463 946 948
f 228 799 175
f 799 949 175
f 799 801 949
f 947 228 175
f 800 463 390
f 950 800 390
f 802 800 950
f 463 948 390
f 951 9 803
f 803 9 7
f 801 7 9
f 801 9 949
f 802 952 804
f 950 952 802
f 953 1141 805
f 805 1141 1139
f 803 1139 1141
f 803 1141 951
f 804 954 806
f 952 954 804
f 955 985 807
f 807 985 983
f 805 983 985
f 805 985 953
f 806 956 808
f 954 956 806
f 957 807 809
f 957 955 807
f 808 958 810
f 956 958 808
f 959 809 811
f 959 957 809
f 810 960 812
f 958 960 810
f 961 811 813
f 961 959 811
f 204 962 814
f 204 814 202
f 202 812 204
f 204 812 960
f 1037 963 984
f 963 813 984
f 963 961 813
f 815 1037 984
f 694 763 816
f 852 964 763
f 694 852 763
f 850 852 694
f 1010 852 850
f 1010 1012 852
f 1168 1012 1010
f 1168 1170 1012
f 36 1170 1168
f 36 38 1170
f 36 814 38
f 38 814 962
f 1037 986 963
f 1197 965 1140
f 1140 965 815
f 965 986 815
f 986 1037 815
f 817 1197 1140
f 532 609 818
f 763 696 816
f 816 696 532
f 696 966 532
f 966 609 532
f 763 964 696
f 1197 1142 965
f 69 967 8
f 8 967 817
f 967 1142 817
f 1142 1197 817
f 174 247 69
f 174 69 8
f 354 439 247
f 354 247 174
f 609 534 818
f 818 534 354
f 534 968 354
f 968 439 354
f 609 966 534
f 69 10 967
f 10 69 176
f 176 69 247
f 176 247 356
f 356 247 439
f 439 968 356
f 969 377 819
f 819 377 375
f 377 549 375
f 551 549 377
f 551 709 549
f 711 709 551
f 880 865 970
f 865 711 970
f 865 709 711
f 880 820 865
f 258 217 821
f 450 403 258
f 258 403 217
f 620 575 450
f 450 575 403
f 620 822 575
f 971 191 823
f 823 191 189
f 819 189 191
f 819 191 969
f 867 880 970
f 972 1042 1025
f 972 1025 820
f 867 972 820
f 880 867 820
f 1206 1183 1042
f 1042 1183 1025
f 80 51 1206
f 1206 51 1183
f 51 80 821
f 80 258 821
f 80 260 258
f 452 258 260
f 450 258 452
f 622 450 452
f 620 450 622
f 822 620 824
f 824 620 622
f 973 823 825
f 973 971 823
f 1027 1042 972
f 1042 1027 974
f 1208 1042 974
f 1206 1042 1208
f 82 1206 1208
f 80 1206 82
f 262 80 82
f 260 80 262
f 404 452 826
f 452 262 826
f 452 260 262
f 576 622 404
f 404 622 452
f 824 622 576
f 975 825 827
f 975 973 825
f 976 1210 1208
f 976 1208 974
f 52 82 828
f 82 1210 828
f 82 1208 1210
f 218 262 52
f 52 262 82
f 826 262 218
f 977 827 829
f 977 975 827
f 1028 978 1048
f 1210 976 1028
f 1210 1028 1048
f 1184 1210 1048
f 830 1184 1048
f 828 1210 1184
f 829 190 977
f 977 190 192
f 979 192 190
f 979 190 831
f 868 980 890
f 1048 978 868
f 1048 868 890
f 1026 1048 890
f 832 1026 890
f 830 1048 1026
f 831 376 979
f 979 376 378
f 550 378 376
f 550 552 378
f 710 552 550
f 710 712 552
f 980 712 890
f 712 866 890
f 712 710 866
f 832 890 866
f 1069 837 893
f 893 837 1053
f 1053 837 997
f 1053 997 1217
f 1217 997 1155
f 1155 1070 1217
f 1071 681 749
f 1069 893 681
f 681 893 749
f 893 835 749
f 835 919 749
f 1053 995 835
f 1053 835 893
f 1217 1153 995
f 1217 995 1053
f 1070 23 93
f 1070 93 920
f 1217 1070 920
f 1153 1217 920
f 23 1072 93
f 1073 519 595
f 1071 749 519
f 519 749 595
f 749 679 595
f 679 921 595
f 749 919 679
f 95 922 920
f 95 920 93
f 93 1072 95
f 95 1072 1074
f 597 1075 595
f 595 1075 1073
f 595 921 923
f 595 923 597
f 95 21 922
f 95 1074 21
f 1074 924 21
f 1074 1076 924
f 599 1077 597
f 597 1077 1075
f 597 923 925
f 597 925 599
f 924 1078 926
f 1076 1078 924
f 601 1079 599
f 599 1079 1077
f 599 925 680
f 757 599 680
f 601 599 757
f 927 757 680
f 22 101 928
f 22 926 101
f 926 1080 101
f 926 1078 1080
f 601 520 1079
f 520 601 682
f 682 601 757
f 905 1081 836
f 836 1081 927
f 1081 682 927
f 682 757 927
f 996 1065 905
f 996 905 836
f 1154 1229 1065
f 1154 1065 996
f 101 24 928
f 928 24 1154
f 24 1082 1154
f 1082 1229 1154
f 101 1080 24
f 905 838 1081
f 838 905 998
f 998 905 1065
f 998 1065 1156
f 1156 1065 1229
f 1229 1082 1156
f 1083 205 251
f 251 205 443
f 443 205 391
f 391 1084 443
f 1085 39 73
f 1083 251 39
f 39 251 73
f 251 203 73
f 203 929 73
f 443 389 203
f 443 203 251
f 389 443 1084
f 563 389 1084
f 561 389 563
f 930 561 765
f 561 721 765
f 561 563 721
f 721 1086 765
f 1087 1171 1201
f 1085 73 1171
f 1171 73 1201
f 73 37 1201
f 37 931 1201
f 73 929 37
f 765 719 930
f 765 1086 719
f 1086 932 719
f 1086 1088 932
f 1169 933 1201
f 933 1087 1201
f 933 1089 1087
f 1201 931 1169
f 932 1090 934
f 1088 1090 932
f 1091 1013 935
f 935 1013 1011
f 933 1011 1013
f 933 1013 1089
f 934 1092 936
f 1090 1092 934
f 1093 853 883
f 937 883 853
f 1091 937 853
f 935 937 1091
f 936 1094 938
f 1092 1094 936
f 1095 697 739
f 1093 883 697
f 697 883 739
f 883 851 739
f 851 939 739
f 883 937 851
f 720 775 940
f 720 938 775
f 938 1096 775
f 938 1094 1096
f 1097 535 585
f 1095 739 535
f 535 739 585
f 739 695 585
f 695 941 585
f 739 939 695
f 940 775 722
f 1098 940 722
f 942 940 1098
f 775 1096 722
f 533 943 585
f 943 1097 585
f 943 1099 1097
f 585 941 533
f 562 629 944
f 562 942 629
f 942 1100 629
f 942 1098 1100
f 1101 357 945
f 945 357 355
f 943 355 357
f 943 357 1099
f 944 629 564
f 1102 944 564
f 946 944 1102
f 629 1100 564
f 1103 945 947
f 1103 1101 945
f 946 1104 948
f 1102 1104 946
f 1105 177 949
f 949 177 175
f 947 175 177
f 947 177 1103
f 392 1106 950
f 392 950 390
f 390 948 392
f 392 948 1104
f 54 9 951
f 949 9 54
f 1107 949 54
f 1105 949 1107
f 950 1108 952
f 1106 1108 950
f 1186 1141 953
f 11 54 951
f 11 951 1141
f 1109 11 1141
f 1186 1109 1141
f 1107 54 11
f 952 1110 954
f 1108 1110 952
f 1111 987 955
f 955 987 985
f 1143 1186 953
f 985 1143 953
f 987 1143 985
f 1109 1186 1143
f 954 1112 956
f 1110 1112 954
f 1113 955 957
f 1113 1111 955
f 956 1114 958
f 1112 1114 956
f 1115 957 959
f 1115 1113 957
f 958 1116 960
f 1114 1116 958
f 1117 959 961
f 1117 1115 959
f 206 1118 962
f 206 962 204
f 204 960 206
f 206 960 1116
f 1119 961 963
f 1119 1117 961
f 852 909 964
f 1014 1120 909
f 852 1014 909
f 1012 1014 852
f 1170 1014 1012
f 1170 1172 1014
f 38 1172 1170
f 38 40 1172
f 38 962 40
f 40 962 1118
f 963 986 1119
f 1119 986 988
f 1121 988 986
f 1121 986 965
f 698 1122 966
f 698 966 696
f 909 854 964
f 854 696 964
f 854 698 696
f 909 1120 854
f 1199 1123 1142
f 1123 965 1142
f 1123 1121 965
f 967 1199 1142
f 534 611 968
f 534 966 611
f 966 1124 611
f 966 1122 1124
f 1199 1144 1123
f 71 1125 10
f 10 1125 967
f 1125 1144 967
f 1144 1199 967
f 176 249 71
f 176 71 10
f 356 441 249
f 356 249 176
f 611 536 968
f 968 536 356
f 536 1126 356
f 1126 441 356
f 611 1124 536
f 71 12 1125
f 12 71 178
f 178 71 249
f 178 249 358
f 358 249 441
f 441 1126 358
f 406 377 969
f 578 551 406
f 406 551 377
f 734 711 578
f 578 711 551
f 734 970 711
f 220 191 971
f 379 406 969
f 379 969 191
f 1127 379 191
f 220 1127 191
f 406 379 553
f 406 553 578
f 578 553 713
f 578 713 734
f 1128 882 867
f 1128 867 970
f 713 1128 970
f 734 713 970
f 882 972 867
f 220 971 193
f 971 1129 193
f 971 973 1129
f 1127 220 193
f 869 882 1128
f 1130 1044 1027
f 1130 1027 972
f 869 1130 972
f 882 869 972
f 1044 974 1027
f 1131 973 975
f 1131 1129 973
f 1132 1046 1044
f 1132 1044 1130
f 974 1044 976
f 976 1044 1046
f 194 1131 226
f 1131 977 226
f 1131 975 977
f 1133 194 226
f 870 1134 888
f 1046 1132 870
f 1046 870 888
f 1028 1046 888
f 978 1028 888
f 976 1046 1028
f 192 226 977
f 380 1133 416
f 416 1133 979
f 1133 226 979
f 226 192 979
f 380 416 588
f 380 588 554
f 554 588 744
f 554 744 714
f 888 1134 714
f 888 714 744
f 868 888 744
f 980 868 744
f 978 888 868
f 378 416 979
f 552 588 378
f 378 588 416
f 712 744 552
f 552 744 588
f 980 744 712
f 1233 999 1051
f 999 1234 1051
f 1235 683 747
f 747 683 1069
f 683 837 1069
f 683 839 837
f 839 1233 1051
f 997 839 1051
f 837 839 997
f 997 1051 1234
f 1157 997 1234
f 1155 997 1157
f 1070 1155 91
f 1155 25 91
f 1155 1157 25
f 25 1236 91
f 1237 521 593
f 1235 747 521
f 521 747 593
f 747 681 593
f 681 1071 593
f 747 1069 681
f 91 23 1070
f 91 1236 23
f 1236 1072 23
f 1236 1238 1072
f 519 1073 593
f 1073 1237 593
f 1073 1239 1237
f 593 1071 519
f 1072 1240 1074
f 1238 1240 1072
f 1241 1073 1075
f 1241 1239 1073
f 1074 1242 1076
f 1240 1242 1074
f 1243 343 427
f 1077 427 343
f 1241 1077 343
f 1075 1077 1241
f 1076 1244 1078
f 1242 1244 1076
f 429 1245 427
f 427 1245 1243
f 427 1077 1079
f 427 1079 429
f 1078 1246 1080
f 1244 1246 1078
f 429 344 1245
f 603 1247 520
f 520 1247 1079
f 1247 344 1079
f 344 429 1079
f 682 759 603
f 682 603 520
f 1081 759 682
f 24 103 1082
f 24 1080 103
f 1080 1248 103
f 1080 1246 1248
f 603 522 1247
f 522 603 684
f 684 603 759
f 907 1249 838
f 838 1249 1081
f 1249 684 1081
f 684 759 1081
f 998 1067 907
f 998 907 838
f 1158 1250 1067
f 998 1158 1067
f 1156 1158 998
f 103 26 1082
f 26 1156 1082
f 26 1158 1156
f 103 1248 26
f 907 840 1249
f 840 907 1000
f 1000 907 1067
f 1067 1250 1000
f 1251 207 1083
f 1083 207 205
f 207 391 205
f 393 391 207
f 1084 391 613
f 391 565 613
f 391 393 565
f 565 1252 613
f 1253 41 1085
f 1085 41 39
f 1083 39 41
f 1083 41 1251
f 613 563 1084
f 563 613 1252
f 723 563 1252
f 721 563 723
f 723 1254 721
f 721 1254 1086
f 1255 1173 1087
f 1087 1173 1171
f 1085 1171 1173
f 1085 1173 1253
f 1086 1256 1088
f 1254 1256 1086
f 1257 1015 1039
f 1089 1039 1015
f 1255 1089 1015
f 1087 1089 1255
f 1088 1258 1090
f 1256 1258 1088
f 1259 855 881
f 1257 1039 855
f 855 1039 881
f 1039 1013 881
f 1013 1091 881
f 1039 1089 1013
f 1258 871 913
f 1092 1258 913
f 1090 1258 1092
f 871 1260 913
f 1261 699 737
f 1259 881 699
f 699 881 737
f 881 853 737
f 853 1093 737
f 881 1091 853
f 915 1094 1092
f 915 1092 913
f 913 1260 915
f 915 1260 1262
f 1263 537 583
f 1261 737 537
f 537 737 583
f 737 697 583
f 697 1095 583
f 737 1093 697
f 1094 915 872
f 1264 1094 872
f 1096 1094 1264
f 915 1262 872
f 1265 359 413
f 1263 583 359
f 359 583 413
f 583 535 413
f 535 1097 413
f 583 1095 535
f 722 777 1098
f 722 1096 777
f 1096 1266 777
f 1096 1264 1266
f 415 1267 413
f 413 1267 1265
f 413 1097 1099
f 413 1099 415
f 1098 777 724
f 1268 1098 724
f 1100 1098 1268
f 777 1266 724
f 357 1101 415
f 1101 1267 415
f 1101 1269 1267
f 415 1099 357
f 566 1270 1102
f 566 1102 564
f 564 1100 566
f 566 1100 1268
f 1271 1101 1103
f 1271 1269 1101
f 1102 1272 1104
f 1270 1272 1102
f 230 177 1105
f 1103 177 230
f 1273 1103 230
f 1271 1103 1273
f 394 1274 1106
f 394 1106 392
f 392 1104 394
f 394 1104 1272
f 1107 232 1105
f 1105 232 230
f 1273 230 232
f 1273 232 1275
f 1106 1276 1108
f 1274 1276 1106
f 56 11 1109
f 179 232 1107
f 179 1107 11
f 1277 179 11
f 56 1277 11
f 1275 232 179
f 1108 1278 1110
f 1276 1278 1108
f 1030 987 1111
f 1279 1145 1030
f 1145 987 1030
f 1145 1143 987
f 13 56 1109
f 1143 13 1109
f 1145 13 1143
f 1277 56 13
f 1110 1280 1112
f 1278 1280 1110
f 1030 1111 989
f 1111 1281 989
f 1111 1113 1281
f 1279 1030 989
f 1112 1282 1114
f 1280 1282 1112
f 1283 1113 1115
f 1283 1281 1113
f 208 1284 284
f 284 1116 208
f 1116 1282 208
f 1116 1114 1282
f 1285 1115 1117
f 1285 1283 1115
f 1174 1286 1232
f 1174 1232 106
f 1174 106 42
f 284 1284 42
f 284 42 106
f 206 284 106
f 1118 206 106
f 1116 284 206
f 1287 1117 1119
f 1287 1285 1117
f 1016 1288 1120
f 1016 1120 1014
f 1286 1016 1232
f 1016 1172 1232
f 1016 1014 1172
f 40 106 1172
f 1172 106 1232
f 1118 106 40
f 1119 988 1287
f 1287 988 990
f 1289 990 988
f 1289 988 1121
f 700 1290 1122
f 700 1122 698
f 854 700 698
f 854 856 700
f 854 1120 856
f 856 1120 1288
f 1291 1121 1123
f 1291 1289 1121
f 1122 1292 1124
f 1290 1292 1122
f 1123 1144 1291
f 1291 1144 1146
f 1293 1146 1144
f 1293 1144 1125
f 538 1294 1126
f 538 1126 536
f 536 1124 538
f 538 1124 1292
f 1125 12 1293
f 1293 12 14
f 178 14 12
f 178 180 14
f 358 180 178
f 358 360 180
f 358 1126 360
f 360 1126 1294
f 408 379 1127
f 580 553 408
f 408 553 379
f 736 713 580
f 580 713 553
f 736 1128 713
f 222 193 1129
f 381 408 1127
f 381 1127 193
f 1295 381 193
f 222 1295 193
f 408 381 555
f 408 555 580
f 580 555 715
f 580 715 736
f 1296 884 869
f 1296 869 1128
f 715 1296 1128
f 736 715 1128
f 884 1130 869
f 1131 224 1129
f 1129 224 222
f 1295 222 224
f 1295 224 1297
f 1298 886 884
f 1298 884 1296
f 1130 884 1132
f 1132 884 886
f 194 224 1131
f 382 1297 414
f 414 1297 1133
f 1297 224 1133
f 224 194 1133
f 382 414 586
f 382 586 556
f 556 586 742
f 556 742 716
f 886 1298 716
f 886 716 742
f 870 886 742
f 1134 870 742
f 1132 886 870
f 380 414 1133
f 554 586 380
f 380 586 414
f 714 742 554
f 554 742 586
f 1134 742 714
f 107 841 891
f 891 841 1233
f 841 999 1233
f 841 1001 999
f 1234 999 1215
f 999 1159 1215
f 999 1001 1159
f 1159 108 1215
f 109 685 1235
f 1235 685 683
f 685 107 891
f 839 685 891
f 683 685 839
f 891 1233 839
f 1215 1157 1234
f 1157 1215 108
f 27 1157 108
f 25 1157 27
f 27 110 25
f 25 110 1236
f 111 523 1237
f 1237 523 521
f 1235 521 523
f 1235 523 109
f 1236 112 1238
f 110 112 1236
f 113 345 423
f 1239 423 345
f 111 1239 345
f 1237 1239 111
f 1238 114 1240
f 112 114 1238
f 425 115 423
f 423 115 113
f 423 1239 1241
f 423 1241 425
f 1240 116 1242
f 114 116 1240
f 117 165 235
f 115 425 165
f 165 425 235
f 425 343 235
f 343 1243 235
f 425 1241 343
f 1242 118 1244
f 116 118 1242
f 237 119 235
f 235 119 117
f 235 1243 1245
f 235 1245 237
f 1244 120 1246
f 118 120 1244
f 237 166 119
f 431 121 344
f 344 121 1245
f 121 166 1245
f 166 237 1245
f 1247 431 344
f 1246 122 1248
f 120 122 1246
f 431 346 121
f 1247 522 431
f 522 346 431
f 522 524 346
f 684 761 123
f 524 684 123
f 522 684 524
f 1249 761 684
f 1160 124 1250
f 1160 1250 1158
f 26 1160 1158
f 26 28 1160
f 26 1248 28
f 28 1248 122
f 761 686 123
f 1249 840 761
f 840 686 761
f 840 842 686
f 1000 842 840
f 1000 1002 842
f 1000 1250 1002
f 1002 1250 124
f 252 207 1251
f 444 393 252
f 252 393 207
f 614 565 444
f 444 565 393
f 614 1252 565
f 125 43 1253
f 1253 43 41
f 209 252 1251
f 41 209 1251
f 43 209 41
f 252 209 395
f 252 395 444
f 444 395 567
f 444 567 614
f 126 766 723
f 126 723 1252
f 567 126 1252
f 614 567 1252
f 766 1254 723
f 127 1175 1255
f 1255 1175 1173
f 1253 1173 1175
f 1253 1175 125
f 725 766 126
f 725 128 766
f 128 1254 766
f 128 1256 1254
f 129 1017 1257
f 1257 1017 1015
f 1255 1015 1017
f 1255 1017 127
f 128 873 911
f 1258 128 911
f 1256 128 1258
f 873 130 911
f 131 701 735
f 735 701 1259
f 701 855 1259
f 701 857 855
f 1257 855 857
f 1257 857 129
f 911 871 1258
f 911 130 871
f 130 1260 871
f 130 132 1260
f 133 539 581
f 131 735 539
f 539 735 581
f 735 699 581
f 699 1261 581
f 735 1259 699
f 1260 134 1262
f 132 134 1260
f 135 361 411
f 133 581 361
f 361 581 411
f 581 537 411
f 537 1263 411
f 581 1261 537
f 872 917 1264
f 872 1262 917
f 1262 136 917
f 1262 134 136
f 359 1265 411
f 1265 135 411
f 1265 137 135
f 411 1263 359
f 1264 917 874
f 138 1264 874
f 1266 1264 138
f 917 136 874
f 139 1265 1267
f 139 137 1265
f 726 140 1268
f 726 1268 724
f 724 1266 726
f 726 1266 138
f 141 1267 1269
f 141 139 1267
f 568 142 1270
f 568 1270 566
f 566 1268 568
f 568 1268 140
f 362 141 420
f 141 1271 420
f 141 1269 1271
f 143 362 420
f 396 144 464
f 464 1272 396
f 1272 142 396
f 1272 1270 142
f 1273 422 1271
f 1271 422 420
f 143 420 422
f 143 422 145
f 210 146 274
f 464 144 210
f 464 210 274
f 394 464 274
f 1274 394 274
f 1272 464 394
f 1275 424 1273
f 1273 424 422
f 145 422 424
f 145 424 147
f 148 276 274
f 148 274 146
f 1274 274 1276
f 1276 274 276
f 234 179 1277
f 363 424 1275
f 363 1275 179
f 149 363 179
f 234 149 179
f 147 424 363
f 150 278 276
f 150 276 148
f 1276 276 1278
f 1278 276 278
f 1188 1145 1279
f 151 15 1188
f 15 1145 1188
f 15 13 1145
f 181 234 1277
f 13 181 1277
f 15 181 13
f 149 234 181
f 152 280 278
f 152 278 150
f 1278 278 1280
f 1280 278 280
f 1032 989 1281
f 1147 1188 1279
f 1147 1279 989
f 153 1147 989
f 1032 153 989
f 151 1188 1147
f 44 154 102
f 280 152 44
f 102 280 44
f 282 280 102
f 1280 280 1282
f 1282 280 282
f 1032 1281 991
f 1281 155 991
f 1281 1283 155
f 153 1032 991
f 1176 156 1230
f 102 154 1176
f 1230 102 1176
f 104 102 1230
f 208 282 1284
f 282 104 1284
f 282 102 104
f 1282 282 208
f 157 1283 1285
f 157 155 1283
f 1018 158 1068
f 1230 156 1018
f 1230 1018 1068
f 1174 1230 1068
f 1286 1174 1068
f 42 104 1174
f 1174 104 1230
f 1284 104 42
f 992 157 1038
f 157 1287 1038
f 157 1285 1287
f 159 992 1038
f 858 160 910
f 1068 158 858
f 1068 858 910
f 1016 1068 910
f 1288 1016 910
f 1286 1068 1016
f 990 1038 1287
f 159 1038 990
f 1289 159 990
f 161 159 1289
f 702 162 1290
f 702 1290 700
f 160 702 910
f 702 856 910
f 702 700 856
f 1288 910 856
f 163 1289 1291
f 163 161 1289
f 540 164 612
f 612 1292 540
f 1292 162 540
f 1292 1290 162
f 1291 1146 163
f 163 1146 1148
f 1146 1293 72
f 16 1146 72
f 1148 1146 16
f 16 72 250
f 16 250 182
f 182 250 442
f 182 442 364
f 612 164 364
f 612 364 442
f 538 612 442
f 1294 538 442
f 1292 612 538
f 14 72 1293
f 180 250 14
f 14 250 72
f 360 442 180
f 180 442 250
f 1294 442 360
f 410 381 1295
f 582 555 410
f 410 555 381
f 738 715 582
f 582 715 555
f 738 1296 715
f 1297 412 1295
f 1295 412 410
f 584 410 412
f 582 410 584
f 740 582 584
f 738 582 740
f 1296 738 1298
f 1298 738 740
f 382 412 1297
f 556 584 382
f 382 584 412
f 716 740 556
f 556 740 584
f 1298 740 716
