# Converted from NanoShaper .vert/.face
v -11.548000 -6.478000 -12.125000
v -9.974000 -6.478000 -12.125000
v -12.002000 -6.478000 -11.625000
v -8.561000 -6.478000 -11.625000
v -12.216000 -6.478000 -11.125000
v -7.827000 -6.478000 -11.125000
v -12.219000 -6.478000 -10.625000
v -7.606000 -6.478000 -10.625000
v -12.022000 -6.478000 -10.125000
v -7.599000 -6.478000 -10.125000
v -11.847000 -6.478000 -9.625000
v -7.604000 -6.478000 -9.625000
v -11.816000 -6.478000 -9.125000
v -7.588000 -6.478000 -9.125000
v -11.882000 -6.478000 -8.625000
v -7.744000 -6.478000 -8.625000
v -12.104000 -6.478000 -8.125000
v -7.824000 -6.478000 -8.125000
v -12.295000 -6.478000 -7.625000
v -7.748000 -6.478000 -7.625000
v -12.571000 -6.478000 -7.125000
v -7.611000 -6.478000 -7.125000
v -12.777000 -6.478000 -6.625000
v -7.494000 -6.478000 -6.625000
v -13.085000 -6.478000 -6.125000
v -7.496000 -6.478000 -6.125000
v -13.296000 -6.478000 -5.625000
v -7.683000 -6.478000 -5.625000
v -13.308000 -6.478000 -5.125000
v -7.989000 -6.478000 -5.125000
v -13.264000 -6.478000 -4.625000
v -8.132000 -6.478000 -4.625000
v -13.230000 -6.478000 -4.125000
v -8.326000 -6.478000 -4.125000
v -13.202000 -6.478000 -3.625000
v -8.497000 -6.478000 -3.625000
v -13.069000 -6.478000 -3.125000
v -8.523000 -6.478000 -3.125000
v -13.082000 -6.478000 -2.625000
v -8.513000 -6.478000 -2.625000
v -13.232000 -6.478000 -2.125000
v -8.514000 -6.478000 -2.125000
v -13.240000 -6.478000 -1.625000
v -8.581000 -6.478000 -1.625000
v -13.041000 -6.478000 -1.125000
v -8.768000 -6.478000 -1.125000
v -12.418000 -6.478000 -0.625000
v -9.338000 -6.478000 -0.625000
v -10.009000 -2.478000 -9.625000
v -8.846000 -2.478000 -9.625000
v -10.366000 -2.478000 -9.125000
v -8.504000 -2.478000 -9.125000
v -10.433000 -2.478000 -8.625000
v -8.496000 -2.478000 -8.625000
v -10.138000 -2.478000 -8.125000
v -8.803000 -2.478000 -8.125000
v -12.922000 -6.478000 -6.348000
v -12.922000 -6.478000 -0.973000
v -12.422000 -6.478000 -7.353000
v -12.422000 -6.478000 -0.627000
v -11.922000 -6.478000 -11.738000
v -11.922000 -6.478000 -9.898000
v -11.922000 -6.478000 -8.493000
v -11.922000 -6.478000 -0.537000
v -11.422000 -6.478000 -12.209000
v -11.422000 -6.478000 -0.497000
v -10.922000 -6.478000 -12.344000
v -10.922000 -6.478000 -0.405000
v -10.422000 -6.478000 -12.247000
v -10.422000 -6.478000 -0.467000
v -9.922000 -6.478000 -12.106000
v -9.922000 -6.478000 -0.491000
v -9.422000 -6.478000 -11.821000
v -9.422000 -6.478000 -0.590000
v -8.922000 -6.478000 -11.674000
v -8.922000 -6.478000 -0.925000
v -8.422000 -6.478000 -11.582000
v -8.422000 -6.478000 -3.900000
v -7.922000 -6.478000 -11.242000
v -7.922000 -6.478000 -5.262000
v -10.422000 -2.478000 -8.834000
v -10.422000 -2.478000 -8.546000
v -9.922000 -2.478000 -9.684000
v -9.922000 -2.478000 -7.937000
v -9.422000 -2.478000 -9.821000
v -9.422000 -2.478000 -7.721000
v -8.922000 -2.478000 -9.678000
v -8.922000 -2.478000 -8.010000
v -11.922000 -6.963000 -11.125000
v -11.922000 -4.477000 -11.125000
v -11.422000 -7.303000 -11.125000
v -11.422000 -4.162000 -11.125000
v -10.922000 -7.399000 -11.125000
v -10.922000 -4.039000 -11.125000
v -10.422000 -7.340000 -11.125000
v -10.422000 -4.035000 -11.125000
v -9.922000 -7.270000 -11.125000
v -9.922000 -4.090000 -11.125000
v -9.422000 -7.224000 -11.125000
v -9.422000 -4.217000 -11.125000
v -8.922000 -7.155000 -11.125000
v -8.922000 -4.299000 -11.125000
v -8.422000 -7.056000 -11.125000
v -8.422000 -4.431000 -11.125000
v -7.922000 -6.644000 -11.125000
v -7.922000 -4.882000 -11.125000
v -12.422000 -7.118000 -7.125000
v -12.422000 -5.899000 -7.125000
v -11.922000 -7.922000 -7.125000
v -11.922000 -4.795000 -7.125000
v -11.422000 -8.262000 -7.125000
v -11.422000 -3.429000 -7.125000
v -10.922000 -8.361000 -7.125000
v -10.922000 -2.958000 -7.125000
v -10.422000 -8.350000 -7.125000
v -10.422000 -2.717000 -7.125000
v -9.922000 -8.458000 -7.125000
v -9.922000 -2.602000 -7.125000
v -9.422000 -8.604000 -7.125000
v -9.422000 -2.542000 -7.125000
v -8.922000 -8.707000 -7.125000
v -8.922000 -2.642000 -7.125000
v -8.422000 -8.604000 -7.125000
v -8.422000 -2.984000 -7.125000
v -7.922000 -8.182000 -7.125000
v -7.922000 -3.533000 -7.125000
v -7.422000 -6.023000 -7.125000
v -7.422000 -4.016000 -7.125000
v -12.922000 -7.710000 -3.125000
v -12.922000 -6.197000 -3.125000
v -12.422000 -8.107000 -3.125000
v -12.422000 -5.023000 -3.125000
v -11.922000 -8.454000 -3.125000
v -11.922000 -4.683000 -3.125000
v -11.422000 -8.787000 -3.125000
v -11.422000 -4.587000 -3.125000
v -10.922000 -8.900000 -3.125000
v -10.922000 -4.624000 -3.125000
v -10.422000 -8.887000 -3.125000
v -10.422000 -4.744000 -3.125000
v -9.922000 -8.903000 -3.125000
v -9.922000 -4.997000 -3.125000
v -9.422000 -8.766000 -3.125000
v -9.422000 -5.142000 -3.125000
v -8.922000 -8.412000 -3.125000
v -8.922000 -5.467000 -3.125000
v -11.312000 -5.978000 -12.625000
v -10.550000 -5.978000 -12.625000
v -11.998000 -5.978000 -12.125000
v -9.722000 -5.978000 -12.125000
v -12.210000 -5.978000 -11.625000
v -8.293000 -5.978000 -11.625000
v -12.295000 -5.978000 -11.125000
v -7.717000 -5.978000 -11.125000
v -12.297000 -5.978000 -10.625000
v -7.513000 -5.978000 -10.625000
v -12.106000 -5.978000 -10.125000
v -7.507000 -5.978000 -10.125000
v -11.875000 -5.978000 -9.625000
v -7.518000 -5.978000 -9.625000
v -11.805000 -5.978000 -9.125000
v -7.492000 -5.978000 -9.125000
v -11.852000 -5.978000 -8.625000
v -7.478000 -5.978000 -8.625000
v -12.016000 -5.978000 -8.125000
v -7.422000 -5.978000 -8.125000
v -12.207000 -5.978000 -7.625000
v -7.418000 -5.978000 -7.625000
v -12.454000 -5.978000 -7.125000
v -7.394000 -5.978000 -7.125000
v -12.723000 -5.978000 -6.625000
v -7.339000 -5.978000 -6.625000
v -13.093000 -5.978000 -6.125000
v -7.384000 -5.978000 -6.125000
v -13.288000 -5.978000 -5.625000
v -7.602000 -5.978000 -5.625000
v -13.296000 -5.978000 -5.125000
v -7.963000 -5.978000 -5.125000
v -13.269000 -5.978000 -4.625000
v -8.252000 -5.978000 -4.625000
v -13.113000 -5.978000 -4.125000
v -8.531000 -5.978000 -4.125000
v -12.944000 -5.978000 -3.625000
v -8.625000 -5.978000 -3.625000
v -12.839000 -5.978000 -3.125000
v -8.603000 -5.978000 -3.125000
v -12.850000 -5.978000 -2.625000
v -8.595000 -5.978000 -2.625000
v -12.920000 -5.978000 -2.125000
v -8.605000 -5.978000 -2.125000
v -12.920000 -5.978000 -1.625000
v -8.798000 -5.978000 -1.625000
v -12.633000 -5.978000 -1.125000
v -9.144000 -5.978000 -1.125000
v -12.922000 -5.978000 -6.349000
v -12.922000 -5.978000 -3.551000
v -12.422000 -5.978000 -7.180000
v -12.422000 -5.978000 -0.973000
v -11.922000 -5.978000 -12.224000
v -11.922000 -5.978000 -9.772000
v -11.922000 -5.978000 -8.386000
v -11.922000 -5.978000 -0.851000
v -11.422000 -5.978000 -12.586000
v -11.422000 -5.978000 -0.954000
v -10.922000 -5.978000 -12.682000
v -10.922000 -5.978000 -0.939000
v -10.422000 -5.978000 -12.579000
v -10.422000 -5.978000 -0.841000
v -9.922000 -5.978000 -12.258000
v -9.922000 -5.978000 -0.805000
v -9.422000 -5.978000 -11.939000
v -9.422000 -5.978000 -0.917000
v -8.922000 -5.978000 -11.772000
v -8.922000 -5.978000 -1.422000
v -8.422000 -5.978000 -11.678000
v -8.422000 -5.978000 -4.354000
v -7.922000 -5.978000 -11.372000
v -7.922000 -5.978000 -5.190000
v -7.422000 -5.978000 -8.127000
v -7.422000 -5.978000 -5.977000
v -11.922000 -6.968000 -10.625000
v -11.922000 -4.476000 -10.625000
v -11.422000 -7.309000 -10.625000
v -11.422000 -4.109000 -10.625000
v -10.922000 -7.443000 -10.625000
v -10.922000 -3.896000 -10.625000
v -10.422000 -7.428000 -10.625000
v -10.422000 -3.800000 -10.625000
v -9.922000 -7.401000 -10.625000
v -9.922000 -3.770000 -10.625000
v -9.422000 -7.405000 -10.625000
v -9.422000 -3.779000 -10.625000
v -8.922000 -7.358000 -10.625000
v -8.922000 -3.798000 -10.625000
v -8.422000 -7.275000 -10.625000
v -8.422000 -3.910000 -10.625000
v -7.922000 -6.960000 -10.625000
v -7.922000 -4.310000 -10.625000
v -12.422000 -7.399000 -6.625000
v -12.422000 -5.317000 -6.625000
v -11.922000 -7.921000 -6.625000
v -11.922000 -4.505000 -6.625000
v -11.422000 -8.265000 -6.625000
v -11.422000 -3.797000 -6.625000
v -10.922000 -8.365000 -6.625000
v -10.922000 -3.299000 -6.625000
v -10.422000 -8.374000 -6.625000
v -10.422000 -2.920000 -6.625000
v -9.922000 -8.524000 -6.625000
v -9.922000 -2.636000 -6.625000
v -9.422000 -8.802000 -6.625000
v -9.422000 -2.550000 -6.625000
v -8.922000 -8.903000 -6.625000
v -8.922000 -2.652000 -6.625000
v -8.422000 -8.816000 -6.625000
v -8.422000 -3.001000 -6.625000
v -7.922000 -8.492000 -6.625000
v -7.922000 -3.552000 -6.625000
v -7.422000 -6.191000 -6.625000
v -7.422000 -4.009000 -6.625000
v -12.922000 -7.716000 -2.625000
v -12.922000 -6.167000 -2.625000
v -12.422000 -8.104000 -2.625000
v -12.422000 -5.086000 -2.625000
v -11.922000 -8.456000 -2.625000
v -11.922000 -4.731000 -2.625000
v -11.422000 -8.815000 -2.625000
v -11.422000 -4.626000 -2.625000
v -10.922000 -9.031000 -2.625000
v -10.922000 -4.630000 -2.625000
v -10.422000 -9.117000 -2.625000
v -10.422000 -4.734000 -2.625000
v -9.922000 -9.032000 -2.625000
v -9.922000 -4.995000 -2.625000
v -9.422000 -8.788000 -2.625000
v -9.422000 -5.143000 -2.625000
v -8.922000 -8.382000 -2.625000
v -8.922000 -5.464000 -2.625000
v -11.572000 -5.478000 -12.625000
v -10.290000 -5.478000 -12.625000
v -12.117000 -5.478000 -12.125000
v -9.679000 -5.478000 -12.125000
v -12.309000 -5.478000 -11.625000
v -8.323000 -5.478000 -11.625000
v -12.340000 -5.478000 -11.125000
v -7.740000 -5.478000 -11.125000
v -12.345000 -5.478000 -10.625000
v -7.534000 -5.478000 -10.625000
v -12.162000 -5.478000 -10.125000
v -7.524000 -5.478000 -10.125000
v -11.911000 -5.478000 -9.625000
v -7.504000 -5.478000 -9.625000
v -11.844000 -5.478000 -9.125000
v -7.451000 -5.478000 -9.125000
v -11.856000 -5.478000 -8.625000
v -7.298000 -5.478000 -8.625000
v -11.909000 -5.478000 -8.125000
v -7.119000 -5.478000 -8.125000
v -12.079000 -5.478000 -7.625000
v -7.128000 -5.478000 -7.625000
v -12.267000 -5.478000 -7.125000
v -7.097000 -5.478000 -7.125000
v -12.512000 -5.478000 -6.625000
v -7.083000 -5.478000 -6.625000
v -12.975000 -5.478000 -6.125000
v -7.141000 -5.478000 -6.125000
v -13.188000 -5.478000 -5.625000
v -7.344000 -5.478000 -5.625000
v -13.264000 -5.478000 -5.125000
v -7.864000 -5.478000 -5.125000
v -13.258000 -5.478000 -4.625000
v -8.387000 -5.478000 -4.625000
v -13.063000 -5.478000 -4.125000
v -8.773000 -5.478000 -4.125000
v -12.814000 -5.478000 -3.625000
v -8.931000 -5.478000 -3.625000
v -12.706000 -5.478000 -3.125000
v -8.911000 -5.478000 -3.125000
v -12.668000 -5.478000 -2.625000
v -8.908000 -5.478000 -2.625000
v -12.502000 -5.478000 -2.125000
v -8.934000 -5.478000 -2.125000
v -12.086000 -5.478000 -1.625000
v -9.220000 -5.478000 -1.625000
v -12.922000 -5.478000 -6.196000
v -12.922000 -5.478000 -3.885000
v -12.422000 -5.478000 -6.759000
v -12.422000 -5.478000 -1.979000
v -11.922000 -5.478000 -12.369000
v -11.922000 -5.478000 -9.660000
v -11.922000 -5.478000 -8.060000
v -11.922000 -5.478000 -1.517000
v -11.422000 -5.478000 -12.692000
v -11.422000 -5.478000 -1.402000
v -10.922000 -5.478000 -12.781000
v -10.922000 -5.478000 -1.410000
v -10.422000 -5.478000 -12.685000
v -10.422000 -5.478000 -1.372000
v -9.922000 -5.478000 -12.352000
v -9.922000 -5.478000 -1.357000
v -9.422000 -5.478000 -11.953000
v -9.422000 -5.478000 -1.478000
v -8.922000 -5.478000 -11.769000
v -8.922000 -5.478000 -3.693000
v -8.922000 -5.478000 -3.198000
v -8.922000 -5.478000 -2.184000
v -8.422000 -5.478000 -11.666000
v -8.422000 -5.478000 -4.587000
v -7.922000 -5.478000 -11.348000
v -7.922000 -5.478000 -5.075000
v -7.422000 -5.478000 -8.983000
v -7.422000 -5.478000 -5.520000
v -11.922000 -6.703000 -10.125000
v -11.922000 -4.674000 -10.125000
v -11.422000 -7.297000 -10.125000
v -11.422000 -3.940000 -10.125000
v -10.922000 -7.576000 -10.125000
v -10.922000 -3.538000 -10.125000
v -10.422000 -7.673000 -10.125000
v -10.422000 -3.352000 -10.125000
v -9.922000 -7.698000 -10.125000
v -9.922000 -3.101000 -10.125000
v -9.422000 -7.633000 -10.125000
v -9.422000 -2.896000 -10.125000
v -8.922000 -7.542000 -10.125000
v -8.922000 -3.138000 -10.125000
v -8.422000 -7.321000 -10.125000
v -8.422000 -3.577000 -10.125000
v -7.922000 -6.969000 -10.125000
v -7.922000 -4.029000 -10.125000
v -12.922000 -7.035000 -6.125000
v -12.922000 -5.381000 -6.125000
v -12.422000 -7.543000 -6.125000
v -12.422000 -4.843000 -6.125000
v -11.922000 -7.931000 -6.125000
v -11.922000 -4.326000 -6.125000
v -11.422000 -8.273000 -6.125000
v -11.422000 -3.985000 -6.125000
v -10.922000 -8.375000 -6.125000
v -10.922000 -3.458000 -6.125000
v -10.422000 -8.392000 -6.125000
v -10.422000 -3.127000 -6.125000
v -9.922000 -8.539000 -6.125000
v -9.922000 -2.842000 -6.125000
v -9.422000 -8.803000 -6.125000
v -9.422000 -2.741000 -6.125000
v -8.922000 -8.904000 -6.125000
v -8.922000 -2.860000 -6.125000
v -8.422000 -8.817000 -6.125000
v -8.422000 -3.303000 -6.125000
v -7.922000 -8.493000 -6.125000
v -7.922000 -3.725000 -6.125000
v -7.422000 -6.086000 -6.125000
v -7.422000 -4.087000 -6.125000
v -12.922000 -7.920000 -2.125000
v -12.922000 -5.982000 -2.125000
v -12.422000 -8.243000 -2.125000
v -12.422000 -5.387000 -2.125000
v -11.922000 -8.444000 -2.125000
v -11.922000 -4.950000 -2.125000
v -11.422000 -8.868000 -2.125000
v -11.422000 -4.825000 -2.125000
v -10.922000 -9.212000 -2.125000
v -10.922000 -4.814000 -2.125000
v -10.422000 -9.310000 -2.125000
v -10.422000 -4.933000 -2.125000
v -9.922000 -9.221000 -2.125000
v -9.922000 -5.070000 -2.125000
v -9.422000 -8.893000 -2.125000
v -9.422000 -5.171000 -2.125000
v -8.922000 -8.121000 -2.125000
v -8.922000 -5.489000 -2.125000
v -11.077000 -8.978000 -2.625000
v -9.787000 -8.978000 -2.625000
v -11.308000 -8.978000 -2.125000
v -9.513000 -8.978000 -2.125000
v -11.424000 -8.978000 -1.625000
v -9.495000 -8.978000 -1.625000
v -11.425000 -8.978000 -1.125000
v -9.513000 -8.978000 -1.125000
v -11.114000 -8.978000 -0.625000
v -9.824000 -8.978000 -0.625000
v -11.352000 -4.978000 -12.625000
v -10.510000 -4.978000 -12.625000
v -12.013000 -4.978000 -12.125000
v -9.807000 -4.978000 -12.125000
v -12.222000 -4.978000 -11.625000
v -8.666000 -4.978000 -11.625000
v -12.250000 -4.978000 -11.125000
v -7.868000 -4.978000 -11.125000
v -12.254000 -4.978000 -10.625000
v -7.636000 -4.978000 -10.625000
v -12.063000 -4.978000 -10.125000
v -7.512000 -4.978000 -10.125000
v -11.896000 -4.978000 -9.625000
v -7.496000 -4.978000 -9.625000
v -11.837000 -4.978000 -9.125000
v -7.437000 -4.978000 -9.125000
v -11.808000 -4.978000 -8.625000
v -7.222000 -4.978000 -8.625000
v -11.832000 -4.978000 -8.125000
v -7.044000 -4.978000 -8.125000
v -11.920000 -4.978000 -7.625000
v -7.051000 -4.978000 -7.625000
v -11.998000 -4.978000 -7.125000
v -7.013000 -4.978000 -7.125000
v -12.178000 -4.978000 -6.625000
v -7.000000 -4.978000 -6.625000
v -12.546000 -4.978000 -6.125000
v -7.062000 -4.978000 -6.125000
v -12.975000 -4.978000 -5.625000
v -7.252000 -4.978000 -5.625000
v -13.181000 -4.978000 -5.125000
v -7.788000 -4.978000 -5.125000
v -13.179000 -4.978000 -4.625000
v -8.892000 -4.978000 -4.625000
v -12.968000 -4.978000 -4.125000
v -9.694000 -4.978000 -4.125000
v -12.586000 -4.978000 -3.625000
v -10.050000 -4.978000 -3.625000
v -12.378000 -4.978000 -3.125000
v -9.968000 -4.978000 -3.125000
v -12.315000 -4.978000 -2.625000
v -9.963000 -4.978000 -2.625000
v -11.976000 -4.978000 -2.125000
v -10.298000 -4.978000 -2.125000
v -11.422000 -8.978000 -1.633000
v -11.422000 -8.978000 -1.115000
v -10.922000 -8.978000 -2.785000
v -10.922000 -8.978000 -0.496000
v -10.422000 -8.978000 -2.875000
v -10.422000 -8.978000 -0.387000
v -9.922000 -8.978000 -2.774000
v -9.922000 -8.978000 -0.551000
v -12.922000 -4.978000 -5.703000
v -12.922000 -4.978000 -4.064000
v -12.422000 -4.978000 -6.253000
v -12.422000 -4.978000 -3.283000
v -11.922000 -4.978000 -12.243000
v -11.922000 -4.978000 -9.745000
v -11.922000 -4.978000 -7.614000
v -11.922000 -4.978000 -2.088000
v -11.422000 -4.978000 -12.599000
v -11.422000 -4.978000 -1.929000
v -10.922000 -4.978000 -12.695000
v -10.922000 -4.978000 -1.906000
v -10.422000 -4.978000 -12.592000
v -10.422000 -4.978000 -2.055000
v -9.922000 -4.978000 -12.228000
v -9.922000 -4.978000 -3.922000
v -9.422000 -4.978000 -11.855000
v -9.422000 -4.978000 -4.315000
v -8.922000 -4.978000 -11.663000
v -8.922000 -4.978000 -4.611000
v -8.422000 -4.978000 -11.554000
v -8.422000 -4.978000 -4.843000
v -7.922000 -4.978000 -11.194000
v -7.922000 -4.978000 -5.063000
v -7.422000 -4.978000 -9.070000
v -7.422000 -4.978000 -5.404000
v -11.422000 -7.414000 -9.625000
v -11.422000 -3.408000 -9.625000
v -10.922000 -7.757000 -9.625000
v -10.922000 -2.953000 -9.625000
v -10.422000 -7.855000 -9.625000
v -10.422000 -2.762000 -9.625000
v -9.922000 -7.894000 -9.625000
v -9.922000 -2.433000 -9.625000
v -9.422000 -7.839000 -9.625000
v -9.422000 -2.324000 -9.625000
v -8.922000 -7.749000 -9.625000
v -8.922000 -2.438000 -9.625000
v -8.422000 -7.419000 -9.625000
v -8.422000 -2.892000 -9.625000
v -7.922000 -6.973000 -9.625000
v -7.922000 -3.976000 -9.625000
v -12.922000 -7.383000 -5.625000
v -12.922000 -4.871000 -5.625000
v -12.422000 -7.722000 -5.625000
v -12.422000 -4.383000 -5.625000
v -11.922000 -8.010000 -5.625000
v -11.922000 -4.186000 -5.625000
v -11.422000 -8.307000 -5.625000
v -11.422000 -3.979000 -5.625000
v -10.922000 -8.403000 -5.625000
v -10.922000 -3.688000 -5.625000
v -10.422000 -8.442000 -5.625000
v -10.422000 -3.364000 -5.625000
v -9.922000 -8.601000 -5.625000
v -9.922000 -3.260000 -5.625000
v -9.422000 -8.786000 -5.625000
v -9.422000 -3.251000 -5.625000
v -8.922000 -8.798000 -5.625000
v -8.922000 -3.414000 -5.625000
v -8.422000 -8.638000 -5.625000
v -8.422000 -3.763000 -5.625000
v -7.922000 -8.190000 -5.625000
v -7.922000 -3.947000 -5.625000
v -7.422000 -5.632000 -5.625000
v -7.422000 -4.403000 -5.625000
v -12.922000 -7.931000 -1.625000
v -12.922000 -5.981000 -1.625000
v -12.422000 -8.252000 -1.625000
v -12.422000 -5.642000 -1.625000
v -11.922000 -8.499000 -1.625000
v -11.922000 -5.397000 -1.625000
v -11.422000 -8.980000 -1.625000
v -11.422000 -5.292000 -1.625000
v -10.922000 -9.287000 -1.625000
v -10.922000 -5.285000 -1.625000
v -10.422000 -9.363000 -1.625000
v -10.422000 -5.266000 -1.625000
v -9.922000 -9.253000 -1.625000
v -9.922000 -5.269000 -1.625000
v -9.422000 -8.906000 -1.625000
v -9.422000 -5.367000 -1.625000
v -8.922000 -7.959000 -1.625000
v -8.922000 -5.768000 -1.625000
v -9.853000 -8.478000 -7.125000
v -8.206000 -8.478000 -7.125000
v -10.023000 -8.478000 -6.625000
v -7.909000 -8.478000 -6.625000
v -10.077000 -8.478000 -6.125000
v -7.908000 -8.478000 -6.125000
v -10.287000 -8.478000 -5.625000
v -8.182000 -8.478000 -5.625000
v -10.579000 -8.478000 -5.125000
v -8.376000 -8.478000 -5.125000
v -10.580000 -8.478000 -4.625000
v -8.409000 -8.478000 -4.625000
v -10.853000 -8.478000 -4.125000
v -8.684000 -8.478000 -4.125000
v -11.733000 -8.478000 -3.625000
v -8.927000 -8.478000 -3.625000
v -11.891000 -8.478000 -3.125000
v -8.986000 -8.478000 -3.125000
v -11.896000 -8.478000 -2.625000
v -9.013000 -8.478000 -2.625000
v -11.866000 -8.478000 -2.125000
v -9.108000 -8.478000 -2.125000
v -11.954000 -8.478000 -1.625000
v -9.145000 -8.478000 -1.625000
v -11.865000 -8.478000 -1.125000
v -9.182000 -8.478000 -1.125000
v -11.589000 -8.478000 -0.625000
v -9.393000 -8.478000 -0.625000
v -10.869000 -8.478000 -0.125000
v -10.069000 -8.478000 -0.125000
v -11.593000 -4.478000 -12.125000
v -10.270000 -4.478000 -12.125000
v -11.897000 -4.478000 -11.625000
v -9.650000 -4.478000 -11.625000
v -11.923000 -4.478000 -11.125000
v -8.342000 -4.478000 -11.125000
v -11.924000 -4.478000 -10.625000
v -7.820000 -4.478000 -10.625000
v -11.817000 -4.478000 -10.125000
v -7.619000 -4.478000 -10.125000
v -11.771000 -4.478000 -9.625000
v -7.604000 -4.478000 -9.625000
v -11.817000 -4.478000 -9.125000
v -7.558000 -4.478000 -9.125000
v -11.836000 -4.478000 -8.625000
v -7.352000 -4.478000 -8.625000
v -11.846000 -4.478000 -8.125000
v -7.156000 -4.478000 -8.125000
v -11.831000 -4.478000 -7.625000
v -7.154000 -4.478000 -7.625000
v -11.843000 -4.478000 -7.125000
v -7.117000 -4.478000 -7.125000
v -11.909000 -4.478000 -6.625000
v -7.104000 -4.478000 -6.625000
v -12.096000 -4.478000 -6.125000
v -7.172000 -4.478000 -6.125000
v -12.577000 -4.478000 -5.625000
v -7.381000 -4.478000 -5.625000
v -12.871000 -4.478000 -5.125000
v -8.070000 -4.478000 -5.125000
v -12.869000 -4.478000 -4.625000
v -10.199000 -4.478000 -4.625000
v -12.567000 -4.478000 -4.125000
v -10.650000 -4.478000 -4.125000
v -11.922000 -8.478000 -1.847000
v -11.922000 -8.478000 -1.396000
v -11.422000 -8.478000 -3.867000
v -11.422000 -8.478000 -0.459000
v -10.922000 -8.478000 -4.082000
v -10.922000 -8.478000 -0.144000
v -10.422000 -8.478000 -5.445000
v -10.422000 -8.478000 -0.064000
v -9.922000 -8.478000 -6.898000
v -9.922000 -8.478000 -0.182000
v -9.422000 -8.478000 -7.461000
v -9.422000 -8.478000 -0.585000
v -8.922000 -8.478000 -7.516000
v -8.922000 -8.478000 -3.647000
v -8.422000 -8.478000 -7.280000
v -8.422000 -8.478000 -4.573000
v -7.922000 -8.478000 -6.674000
v -7.922000 -8.478000 -6.073000
v -12.422000 -4.478000 -5.749000
v -12.422000 -4.478000 -4.016000
v -11.922000 -4.478000 -11.139000
v -11.922000 -4.478000 -10.618000
v -11.922000 -4.478000 -6.571000
v -11.922000 -4.478000 -3.779000
v -11.422000 -4.478000 -12.247000
v -11.422000 -4.478000 -3.669000
v -10.922000 -4.478000 -12.377000
v -10.922000 -4.478000 -3.855000
v -10.422000 -4.478000 -12.237000
v -10.422000 -4.478000 -4.418000
v -9.922000 -4.478000 -11.832000
v -9.922000 -4.478000 -4.774000
v -9.422000 -4.478000 -11.460000
v -9.422000 -4.478000 -4.876000
v -8.922000 -4.478000 -11.303000
v -8.922000 -4.478000 -5.019000
v -8.422000 -4.478000 -11.172000
v -8.422000 -4.478000 -5.071000
v -7.922000 -4.478000 -10.758000
v -7.922000 -4.478000 -5.180000
v -7.422000 -4.478000 -8.748000
v -7.422000 -4.478000 -5.569000
v -11.422000 -7.456000 -9.125000
v -11.422000 -3.056000 -9.125000
v -10.922000 -7.777000 -9.125000
v -10.922000 -2.721000 -9.125000
v -10.422000 -7.871000 -9.125000
v -10.422000 -2.513000 -9.125000
v -9.922000 -7.948000 -9.125000
v -9.922000 -2.214000 -9.125000
v -9.422000 -7.938000 -9.125000
v -9.422000 -2.122000 -9.125000
v -8.922000 -7.841000 -9.125000
v -8.922000 -2.218000 -9.125000
v -8.422000 -7.480000 -9.125000
v -8.422000 -2.558000 -9.125000
v -7.922000 -6.995000 -9.125000
v -7.922000 -3.851000 -9.125000
v -12.922000 -7.552000 -5.125000
v -12.922000 -4.534000 -5.125000
v -12.422000 -7.970000 -5.125000
v -12.422000 -4.170000 -5.125000
v -11.922000 -8.167000 -5.125000
v -11.922000 -4.059000 -5.125000
v -11.422000 -8.317000 -5.125000
v -11.422000 -4.023000 -5.125000
v -10.922000 -8.412000 -5.125000
v -10.922000 -3.923000 -5.125000
v -10.422000 -8.533000 -5.125000
v -10.422000 -3.848000 -5.125000
v -9.922000 -8.781000 -5.125000
v -9.922000 -3.852000 -5.125000
v -9.422000 -8.885000 -5.125000
v -9.422000 -3.919000 -5.125000
v -8.922000 -8.803000 -5.125000
v -8.922000 -4.237000 -5.125000
v -8.422000 -8.520000 -5.125000
v -8.422000 -4.363000 -5.125000
v -7.922000 -5.736000 -5.125000
v -7.922000 -4.618000 -5.125000
v -12.922000 -7.644000 -1.125000
v -12.922000 -6.268000 -1.125000
v -12.422000 -8.056000 -1.125000
v -12.422000 -5.860000 -1.125000
v -11.922000 -8.423000 -1.125000
v -11.922000 -5.759000 -1.125000
v -11.422000 -8.981000 -1.125000
v -11.422000 -5.806000 -1.125000
v -10.922000 -9.287000 -1.125000
v -10.922000 -5.803000 -1.125000
v -10.422000 -9.363000 -1.125000
v -10.422000 -5.741000 -1.125000
v -9.922000 -9.251000 -1.125000
v -9.922000 -5.708000 -1.125000
v -9.422000 -8.882000 -1.125000
v -9.422000 -5.812000 -1.125000
v -8.922000 -7.682000 -1.125000
v -8.922000 -6.204000 -1.125000
v -10.276000 -7.978000 -8.625000
v -8.692000 -7.978000 -8.625000
v -11.528000 -7.978000 -8.125000
v -8.404000 -7.978000 -8.125000
v -11.842000 -7.978000 -7.625000
v -8.197000 -7.978000 -7.625000
v -11.866000 -7.978000 -7.125000
v -7.813000 -7.978000 -7.125000
v -11.866000 -7.978000 -6.625000
v -7.603000 -7.978000 -6.625000
v -11.872000 -7.978000 -6.125000
v -7.602000 -7.978000 -6.125000
v -11.969000 -7.978000 -5.625000
v -7.810000 -7.978000 -5.625000
v -12.406000 -7.978000 -5.125000
v -8.033000 -7.978000 -5.125000
v -12.801000 -7.978000 -4.625000
v -8.096000 -7.978000 -4.625000
v -12.868000 -7.978000 -4.125000
v -8.294000 -7.978000 -4.125000
v -12.856000 -7.978000 -3.625000
v -8.565000 -7.978000 -3.625000
v -12.649000 -7.978000 -3.125000
v -8.657000 -7.978000 -3.125000
v -12.649000 -7.978000 -2.625000
v -8.682000 -7.978000 -2.625000
v -12.861000 -7.978000 -2.125000
v -8.843000 -7.978000 -2.125000
v -12.873000 -7.978000 -1.625000
v -8.934000 -7.978000 -1.625000
v -12.565000 -7.978000 -1.125000
v -9.044000 -7.978000 -1.125000
v -11.997000 -7.978000 -0.625000
v -9.286000 -7.978000 -0.625000
v -11.334000 -7.978000 -0.125000
v -9.835000 -7.978000 -0.125000
v -11.130000 -3.978000 -10.625000
v -8.288000 -3.978000 -10.625000
v -11.458000 -3.978000 -10.125000
v -7.977000 -3.978000 -10.125000
v -11.650000 -3.978000 -9.625000
v -7.921000 -3.978000 -9.625000
v -11.798000 -3.978000 -9.125000
v -7.857000 -3.978000 -9.125000
v -11.822000 -3.978000 -8.625000
v -7.686000 -3.978000 -8.625000
v -11.805000 -3.978000 -8.125000
v -7.522000 -3.978000 -8.125000
v -11.770000 -3.978000 -7.625000
v -7.491000 -3.978000 -7.625000
v -11.705000 -3.978000 -7.125000
v -7.461000 -3.978000 -7.125000
v -11.581000 -3.978000 -6.625000
v -7.456000 -3.978000 -6.625000
v -11.414000 -3.978000 -6.125000
v -7.534000 -3.978000 -6.125000
v -11.421000 -3.978000 -5.625000
v -7.862000 -3.978000 -5.625000
v -11.177000 -3.978000 -5.125000
v -9.217000 -3.978000 -5.125000
v -12.422000 -7.978000 -5.115000
v -12.422000 -7.978000 -1.019000
v -11.922000 -7.978000 -5.775000
v -11.922000 -7.978000 -0.543000
v -11.422000 -7.978000 -8.203000
v -11.422000 -7.978000 -0.160000
v -10.922000 -7.978000 -8.421000
v -10.922000 -7.978000 -0.028000
v -10.422000 -7.978000 -8.515000
v -10.422000 -7.978000 0.025000
v -9.922000 -7.978000 -8.977000
v -9.922000 -7.978000 -0.085000
v -9.422000 -7.978000 -9.019000
v -9.422000 -7.978000 -0.444000
v -8.922000 -7.978000 -8.821000
v -8.922000 -7.978000 -1.698000
v -8.422000 -7.978000 -8.192000
v -8.422000 -7.978000 -3.936000
v -7.922000 -7.978000 -7.263000
v -7.922000 -7.978000 -5.431000
v -11.422000 -3.978000 -10.199000
v -11.422000 -3.978000 -6.167000
v -10.922000 -3.978000 -10.848000
v -10.922000 -3.978000 -4.991000
v -10.422000 -3.978000 -10.959000
v -10.422000 -3.978000 -4.991000
v -9.922000 -3.978000 -10.910000
v -9.922000 -3.978000 -5.062000
v -9.422000 -3.978000 -10.829000
v -9.422000 -3.978000 -5.103000
v -8.922000 -3.978000 -10.845000
v -8.922000 -3.978000 -5.217000
v -8.422000 -3.978000 -10.720000
v -8.422000 -3.978000 -5.395000
v -7.922000 -3.978000 -9.692000
v -7.922000 -3.978000 -5.582000
v -11.422000 -5.874000 -12.625000
v -11.422000 -5.050000 -12.625000
v -10.922000 -6.103000 -12.625000
v -10.922000 -4.821000 -12.625000
v -10.422000 -5.853000 -12.625000
v -10.422000 -5.071000 -12.625000
v -11.422000 -7.649000 -8.625000
v -11.422000 -2.986000 -8.625000
v -10.922000 -7.889000 -8.625000
v -10.922000 -2.657000 -8.625000
v -10.422000 -7.945000 -8.625000
v -10.422000 -2.473000 -8.625000
v -9.922000 -8.096000 -8.625000
v -9.922000 -2.208000 -8.625000
v -9.422000 -8.204000 -8.625000
v -9.422000 -2.116000 -8.625000
v -8.922000 -8.108000 -8.625000
v -8.922000 -2.212000 -8.625000
v -8.422000 -7.715000 -8.625000
v -8.422000 -2.550000 -8.625000
v -7.922000 -6.878000 -8.625000
v -7.922000 -3.575000 -8.625000
v -7.422000 -5.846000 -8.625000
v -7.422000 -4.356000 -8.625000
v -12.922000 -7.860000 -4.625000
v -12.922000 -4.537000 -4.625000
v -12.422000 -8.209000 -4.625000
v -12.422000 -4.172000 -4.625000
v -11.922000 -8.309000 -4.625000
v -11.922000 -4.062000 -4.625000
v -11.422000 -8.336000 -4.625000
v -11.422000 -4.064000 -4.625000
v -10.922000 -8.413000 -4.625000
v -10.922000 -4.118000 -4.625000
v -10.422000 -8.536000 -4.625000
v -10.422000 -4.308000 -4.625000
v -9.922000 -8.791000 -4.625000
v -9.922000 -4.637000 -4.625000
v -9.422000 -8.894000 -4.625000
v -9.422000 -4.773000 -4.625000
v -8.922000 -8.810000 -4.625000
v -8.922000 -4.965000 -4.625000
v -8.422000 -8.492000 -4.625000
v -8.422000 -5.408000 -4.625000
v -12.422000 -7.430000 -0.625000
v -12.422000 -6.482000 -0.625000
v -11.922000 -8.096000 -0.625000
v -11.922000 -6.283000 -0.625000
v -11.422000 -8.687000 -0.625000
v -11.422000 -6.327000 -0.625000
v -10.922000 -9.079000 -0.625000
v -10.922000 -6.293000 -0.625000
v -10.422000 -9.168000 -0.625000
v -10.422000 -6.254000 -0.625000
v -9.922000 -9.036000 -0.625000
v -9.922000 -6.218000 -0.625000
v -9.422000 -8.538000 -0.625000
v -9.422000 -6.392000 -0.625000
v -11.142000 -7.478000 -10.125000
v -8.748000 -7.478000 -10.125000
v -11.359000 -7.478000 -9.625000
v -8.483000 -7.478000 -9.625000
v -11.400000 -7.478000 -9.125000
v -8.421000 -7.478000 -9.125000
v -11.592000 -7.478000 -8.625000
v -8.254000 -7.478000 -8.625000
v -11.977000 -7.478000 -8.125000
v -8.091000 -7.478000 -8.125000
v -12.185000 -7.478000 -7.625000
v -7.981000 -7.478000 -7.625000
v -12.233000 -7.478000 -7.125000
v -7.724000 -7.478000 -7.125000
v -12.349000 -7.478000 -6.625000
v -7.528000 -7.478000 -6.625000
v -12.515000 -7.478000 -6.125000
v -7.527000 -7.478000 -6.125000
v -12.823000 -7.478000 -5.625000
v -7.722000 -7.478000 -5.625000
v -12.976000 -7.478000 -5.125000
v -7.947000 -7.478000 -5.125000
v -13.167000 -7.478000 -4.625000
v -8.016000 -7.478000 -4.625000
v -13.208000 -7.478000 -4.125000
v -8.201000 -7.478000 -4.125000
v -13.198000 -7.478000 -3.625000
v -8.464000 -7.478000 -3.625000
v -13.059000 -7.478000 -3.125000
v -8.559000 -7.478000 -3.125000
v -13.066000 -7.478000 -2.625000
v -8.587000 -7.478000 -2.625000
v -13.214000 -7.478000 -2.125000
v -8.616000 -7.478000 -2.125000
v -13.223000 -7.478000 -1.625000
v -8.617000 -7.478000 -1.625000
v -13.020000 -7.478000 -1.125000
v -8.811000 -7.478000 -1.125000
v -12.374000 -7.478000 -0.625000
v -9.233000 -7.478000 -0.625000
v -11.546000 -7.478000 -0.125000
v -9.860000 -7.478000 -0.125000
v -10.804000 -3.478000 -10.125000
v -8.533000 -3.478000 -10.125000
v -11.461000 -3.478000 -9.625000
v -8.179000 -3.478000 -9.625000
v -11.696000 -3.478000 -9.125000
v -8.041000 -3.478000 -9.125000
v -11.733000 -3.478000 -8.625000
v -7.969000 -3.478000 -8.625000
v -11.718000 -3.478000 -8.125000
v -7.976000 -3.478000 -8.125000
v -11.656000 -3.478000 -7.625000
v -7.988000 -3.478000 -7.625000
v -11.452000 -3.478000 -7.125000
v -7.979000 -3.478000 -7.125000
v -11.104000 -3.478000 -6.625000
v -8.001000 -3.478000 -6.625000
v -10.942000 -3.478000 -6.125000
v -8.254000 -3.478000 -6.125000
v -10.625000 -3.478000 -5.625000
v -8.828000 -3.478000 -5.625000
v -12.922000 -7.478000 -5.275000
v -12.922000 -7.478000 -0.999000
v -12.422000 -7.478000 -6.321000
v -12.422000 -7.478000 -0.645000
v -11.922000 -7.478000 -8.199000
v -11.922000 -7.478000 -0.381000
v -11.422000 -7.478000 -9.016000
v -11.422000 -7.478000 -0.068000
v -10.922000 -7.478000 -10.433000
v -10.922000 -7.478000 0.035000
v -10.422000 -7.478000 -10.485000
v -10.422000 -7.478000 -0.014000
v -9.922000 -7.478000 -10.459000
v -9.922000 -7.478000 -0.101000
v -9.422000 -7.478000 -10.412000
v -9.422000 -7.478000 -0.416000
v -8.922000 -7.478000 -10.267000
v -8.922000 -7.478000 -0.978000
v -8.422000 -7.478000 -9.134000
v -8.422000 -7.478000 -3.732000
v -7.922000 -7.478000 -7.480000
v -7.922000 -7.478000 -5.210000
v -11.422000 -3.478000 -9.673000
v -11.422000 -3.478000 -7.079000
v -10.922000 -3.478000 -10.074000
v -10.922000 -3.478000 -6.063000
v -10.422000 -3.478000 -10.244000
v -10.422000 -3.478000 -5.489000
v -9.922000 -3.478000 -10.366000
v -9.922000 -3.478000 -5.377000
v -9.422000 -3.478000 -10.393000
v -9.422000 -3.478000 -5.409000
v -8.922000 -3.478000 -10.325000
v -8.922000 -3.478000 -5.564000
v -8.422000 -3.478000 -10.019000
v -8.422000 -3.478000 -5.934000
v -11.922000 -6.112000 -12.125000
v -11.922000 -4.812000 -12.125000
v -11.422000 -6.553000 -12.125000
v -11.422000 -4.383000 -12.125000
v -10.922000 -6.687000 -12.125000
v -10.922000 -4.276000 -12.125000
v -10.422000 -6.644000 -12.125000
v -10.422000 -4.391000 -12.125000
v -9.922000 -6.431000 -12.125000
v -9.922000 -4.808000 -12.125000
v -11.922000 -7.579000 -8.125000
v -11.922000 -5.582000 -8.125000
v -11.422000 -8.036000 -8.125000
v -11.422000 -3.003000 -8.125000
v -10.922000 -8.155000 -8.125000
v -10.922000 -2.670000 -8.125000
v -10.422000 -8.160000 -8.125000
v -10.422000 -2.561000 -8.125000
v -9.922000 -8.288000 -8.125000
v -9.922000 -2.401000 -8.125000
v -9.422000 -8.393000 -8.125000
v -9.422000 -2.305000 -8.125000
v -8.922000 -8.311000 -8.125000
v -8.922000 -2.415000 -8.125000
v -8.422000 -7.996000 -8.125000
v -8.422000 -2.823000 -8.125000
v -7.922000 -6.705000 -8.125000
v -7.922000 -3.552000 -8.125000
v -7.422000 -5.978000 -8.125000
v -7.422000 -4.073000 -8.125000
v -12.922000 -7.924000 -4.125000
v -12.922000 -4.883000 -4.125000
v -12.422000 -8.259000 -4.125000
v -12.422000 -4.390000 -4.125000
v -11.922000 -8.354000 -4.125000
v -11.922000 -4.259000 -4.125000
v -11.422000 -8.400000 -4.125000
v -11.422000 -4.238000 -4.125000
v -10.922000 -8.465000 -4.125000
v -10.922000 -4.328000 -4.125000
v -10.422000 -8.621000 -4.125000
v -10.422000 -4.661000 -4.125000
v -9.922000 -8.783000 -4.125000
v -9.922000 -4.927000 -4.125000
v -9.422000 -8.786000 -4.125000
v -9.422000 -5.055000 -4.125000
v -8.922000 -8.629000 -4.125000
v -8.922000 -5.329000 -4.125000
v -8.422000 -8.207000 -4.125000
v -8.422000 -6.257000 -4.125000
v -11.422000 -7.880000 -0.125000
v -11.422000 -7.114000 -0.125000
v -10.922000 -8.429000 -0.125000
v -10.922000 -6.846000 -0.125000
v -10.422000 -8.618000 -0.125000
v -10.422000 -6.969000 -0.125000
v -9.922000 -8.307000 -0.125000
v -9.922000 -7.264000 -0.125000
v -11.604000 -6.978000 -11.625000
v -9.775000 -6.978000 -11.625000
v -11.908000 -6.978000 -11.125000
v -8.273000 -6.978000 -11.125000
v -11.913000 -6.978000 -10.625000
v -7.941000 -6.978000 -10.625000
v -11.743000 -6.978000 -10.125000
v -7.932000 -6.978000 -10.125000
v -11.705000 -6.978000 -9.625000
v -7.928000 -6.978000 -9.625000
v -11.723000 -6.978000 -9.125000
v -7.906000 -6.978000 -9.125000
v -11.833000 -6.978000 -8.625000
v -7.969000 -6.978000 -8.625000
v -12.093000 -6.978000 -8.125000
v -7.989000 -6.978000 -8.125000
v -12.287000 -6.978000 -7.625000
v -7.918000 -6.978000 -7.625000
v -12.477000 -6.978000 -7.125000
v -7.679000 -6.978000 -7.125000
v -12.679000 -6.978000 -6.625000
v -7.506000 -6.978000 -6.625000
v -12.954000 -6.978000 -6.125000
v -7.519000 -6.978000 -6.125000
v -13.187000 -6.978000 -5.625000
v -7.729000 -6.978000 -5.625000
v -13.218000 -6.978000 -5.125000
v -7.983000 -6.978000 -5.125000
v -13.276000 -6.978000 -4.625000
v -8.065000 -6.978000 -4.625000
v -13.308000 -6.978000 -4.125000
v -8.244000 -6.978000 -4.125000
v -13.294000 -6.978000 -3.625000
v -8.447000 -6.978000 -3.625000
v -13.169000 -6.978000 -3.125000
v -8.502000 -6.978000 -3.125000
v -13.179000 -6.978000 -2.625000
v -8.526000 -6.978000 -2.625000
v -13.317000 -6.978000 -2.125000
v -8.521000 -6.978000 -2.125000
v -13.325000 -6.978000 -1.625000
v -8.505000 -6.978000 -1.625000
v -13.140000 -6.978000 -1.125000
v -8.681000 -6.978000 -1.125000
v -12.617000 -6.978000 -0.625000
v -9.178000 -6.978000 -0.625000
v -11.289000 -6.978000 -0.125000
v -10.358000 -6.978000 -0.125000
v -9.730000 -2.978000 -10.125000
v -9.125000 -2.978000 -10.125000
v -10.972000 -2.978000 -9.625000
v -8.376000 -2.978000 -9.625000
v -11.342000 -2.978000 -9.125000
v -8.154000 -2.978000 -9.125000
v -11.415000 -2.978000 -8.625000
v -8.148000 -2.978000 -8.625000
v -11.398000 -2.978000 -8.125000
v -8.321000 -2.978000 -8.125000
v -11.288000 -2.978000 -7.625000
v -8.425000 -2.978000 -7.625000
v -10.961000 -2.978000 -7.125000
v -8.428000 -2.978000 -7.125000
v -10.502000 -2.978000 -6.625000
v -8.443000 -2.978000 -6.625000
v -10.164000 -2.978000 -6.125000
v -8.729000 -2.978000 -6.125000
v -12.922000 -6.978000 -6.166000
v -12.922000 -6.978000 -0.852000
v -12.422000 -6.978000 -7.240000
v -12.422000 -6.978000 -0.538000
v -11.922000 -6.978000 -8.415000
v -11.922000 -6.978000 -0.397000
v -11.422000 -6.978000 -11.757000
v -11.422000 -6.978000 -0.176000
v -10.922000 -6.978000 -11.890000
v -10.922000 -6.978000 -0.065000
v -10.422000 -6.978000 -11.854000
v -10.422000 -6.978000 -0.122000
v -9.922000 -6.978000 -11.727000
v -9.922000 -6.978000 -0.217000
v -9.422000 -6.978000 -11.455000
v -9.422000 -6.978000 -0.486000
v -8.922000 -6.978000 -11.345000
v -8.922000 -6.978000 -0.819000
v -8.422000 -6.978000 -11.224000
v -8.422000 -6.978000 -3.722000
v -7.922000 -6.978000 -9.601000
v -7.922000 -6.978000 -9.028000
v -7.922000 -6.978000 -7.641000
v -7.922000 -6.978000 -5.289000
v -10.922000 -2.978000 -9.658000
v -10.922000 -2.978000 -7.095000
v -10.422000 -2.978000 -9.845000
v -10.422000 -2.978000 -6.513000
v -9.922000 -2.978000 -10.064000
v -9.922000 -2.978000 -5.956000
v -9.422000 -2.978000 -10.161000
v -9.422000 -2.978000 -5.838000
v -8.922000 -2.978000 -10.059000
v -8.922000 -2.978000 -5.979000
v -8.422000 -2.978000 -9.686000
v -8.422000 -2.978000 -7.667000
v -11.922000 -6.634000 -11.625000
v -11.922000 -4.504000 -11.625000
v -11.422000 -7.085000 -11.625000
v -11.422000 -4.174000 -11.625000
v -10.922000 -7.199000 -11.625000
v -10.922000 -4.084000 -11.625000
v -10.422000 -7.152000 -11.625000
v -10.422000 -4.169000 -11.625000
v -9.922000 -7.053000 -11.625000
v -9.922000 -4.317000 -11.625000
v -9.422000 -6.793000 -11.625000
v -9.422000 -4.634000 -11.625000
v -8.922000 -6.587000 -11.625000
v -8.922000 -4.898000 -11.625000
v -8.422000 -6.352000 -11.625000
v -8.422000 -5.184000 -11.625000
v -11.922000 -7.897000 -7.625000
v -11.922000 -4.988000 -7.625000
v -11.422000 -8.245000 -7.625000
v -11.422000 -3.111000 -7.625000
v -10.922000 -8.346000 -7.625000
v -10.922000 -2.752000 -7.625000
v -10.422000 -8.330000 -7.625000
v -10.422000 -2.642000 -7.625000
v -9.922000 -8.394000 -7.625000
v -9.922000 -2.559000 -7.625000
v -9.422000 -8.443000 -7.625000
v -9.422000 -2.501000 -7.625000
v -8.922000 -8.432000 -7.625000
v -8.922000 -2.608000 -7.625000
v -8.422000 -8.208000 -7.625000
v -8.422000 -2.981000 -7.625000
v -7.922000 -7.009000 -7.625000
v -7.922000 -3.543000 -7.625000
v -7.422000 -5.985000 -7.625000
v -7.422000 -4.049000 -7.625000
v -12.922000 -7.912000 -3.625000
v -12.922000 -5.926000 -3.625000
v -12.422000 -8.251000 -3.625000
v -12.422000 -4.805000 -3.625000
v -11.922000 -8.417000 -3.625000
v -11.922000 -4.550000 -3.625000
v -11.422000 -8.579000 -3.625000
v -11.422000 -4.493000 -3.625000
v -10.922000 -8.698000 -3.625000
v -10.922000 -4.561000 -3.625000
v -10.422000 -8.795000 -3.625000
v -10.422000 -4.790000 -3.625000
v -9.922000 -8.873000 -3.625000
v -9.922000 -5.017000 -3.625000
v -9.422000 -8.774000 -3.625000
v -9.422000 -5.147000 -3.625000
v -8.922000 -8.474000 -3.625000
v -8.922000 -5.486000 -3.625000
f 221 7 89
f 89 7 5
f 7 153 5
f 155 153 7
f 155 285 153
f 287 285 155
f 287 429 285
f 431 429 287
f 431 593 429
f 595 593 431
f 595 222 593
f 593 222 90
f 223 1035 91
f 91 1035 1033
f 89 1033 1035
f 89 1035 221
f 90 224 92
f 222 224 90
f 225 91 93
f 225 223 91
f 224 757 803
f 94 224 803
f 92 224 94
f 757 226 803
f 227 93 95
f 227 225 93
f 805 96 94
f 805 94 803
f 803 226 805
f 805 226 228
f 229 95 97
f 229 227 95
f 807 98 96
f 807 96 805
f 805 228 807
f 807 228 230
f 231 97 99
f 231 229 97
f 809 100 98
f 809 98 807
f 807 230 809
f 809 230 232
f 233 99 101
f 233 231 99
f 811 102 100
f 811 100 809
f 809 232 811
f 811 232 234
f 235 101 103
f 235 233 101
f 813 104 102
f 813 102 811
f 811 234 813
f 813 234 236
f 103 1034 235
f 235 1034 1036
f 237 1036 1034
f 237 1034 105
f 594 661 106
f 813 758 104
f 104 758 594
f 758 238 594
f 238 661 594
f 813 236 758
f 105 6 237
f 237 6 8
f 154 8 6
f 154 156 8
f 286 156 154
f 286 288 156
f 430 288 286
f 430 432 288
f 661 596 106
f 596 430 106
f 596 432 430
f 661 238 596
f 239 1051 107
f 107 1051 1049
f 1051 21 1049
f 23 21 1051
f 23 169 21
f 171 169 23
f 108 169 327
f 169 303 327
f 169 171 303
f 303 240 327
f 241 889 109
f 109 889 887
f 107 887 889
f 107 889 239
f 327 301 108
f 301 327 240
f 447 301 240
f 445 301 447
f 447 242 445
f 445 242 110
f 243 729 111
f 111 729 727
f 109 727 729
f 109 729 241
f 609 110 242
f 609 242 611
f 611 771 609
f 773 771 611
f 960 929 244
f 929 773 244
f 929 771 773
f 960 112 929
f 245 111 113
f 245 243 111
f 931 960 244
f 246 1122 1091
f 246 1091 112
f 931 246 112
f 960 931 112
f 1122 114 1091
f 247 113 115
f 247 245 113
f 1093 1122 246
f 1093 248 1122
f 248 114 1122
f 248 116 114
f 249 561 631
f 117 631 561
f 247 117 561
f 115 117 247
f 116 250 118
f 248 250 116
f 559 119 631
f 119 249 631
f 119 251 249
f 631 117 559
f 118 252 120
f 250 252 118
f 253 119 121
f 253 251 119
f 120 254 122
f 252 254 120
f 255 121 123
f 255 253 121
f 1094 256 124
f 1094 124 1092
f 1092 122 1094
f 1094 122 254
f 639 257 560
f 257 123 560
f 257 255 123
f 125 639 560
f 932 258 126
f 932 126 930
f 930 124 932
f 932 124 256
f 639 562 257
f 125 728 639
f 728 562 639
f 728 730 562
f 888 730 728
f 888 890 730
f 1050 890 888
f 1050 1052 890
f 22 1052 1050
f 22 24 1052
f 259 24 22
f 259 22 127
f 774 260 128
f 774 128 772
f 772 126 774
f 774 126 258
f 127 170 259
f 259 170 172
f 302 172 170
f 302 304 172
f 446 304 302
f 446 448 304
f 610 448 446
f 610 612 448
f 610 128 612
f 612 128 260
f 261 905 129
f 129 905 903
f 905 1065 903
f 1067 1065 905
f 1067 37 1065
f 39 37 1067
f 39 262 37
f 37 262 130
f 263 745 131
f 131 745 743
f 129 743 745
f 129 745 261
f 185 130 262
f 185 262 187
f 187 317 185
f 319 317 187
f 319 264 317
f 317 264 132
f 265 131 133
f 265 263 131
f 461 132 264
f 461 264 463
f 463 266 461
f 461 266 134
f 267 577 135
f 135 577 575
f 133 575 577
f 133 577 265
f 134 268 136
f 266 268 134
f 269 413 469
f 137 469 413
f 267 137 413
f 135 137 267
f 136 270 138
f 268 270 136
f 471 271 469
f 469 271 269
f 469 137 139
f 469 139 471
f 138 272 140
f 270 272 138
f 473 273 471
f 471 273 271
f 471 139 141
f 471 141 473
f 464 274 142
f 464 142 462
f 462 140 464
f 464 140 272
f 473 414 273
f 275 414 473
f 141 275 473
f 143 275 141
f 142 276 144
f 274 276 142
f 143 576 275
f 275 576 578
f 277 578 576
f 277 576 145
f 144 278 146
f 276 278 144
f 145 744 277
f 277 744 746
f 904 746 744
f 904 906 746
f 1066 906 904
f 1066 1068 906
f 38 1068 1066
f 38 40 1068
f 186 40 38
f 186 188 40
f 318 188 186
f 318 320 188
f 318 146 320
f 320 146 278
f 353 9 221
f 221 9 7
f 9 155 7
f 157 155 9
f 157 287 155
f 289 287 157
f 289 431 287
f 433 431 289
f 644 595 354
f 595 433 354
f 595 431 433
f 644 222 595
f 355 1037 223
f 223 1037 1035
f 221 1035 1037
f 221 1037 353
f 597 644 354
f 224 222 644
f 759 224 644
f 597 759 644
f 801 224 759
f 759 356 801
f 357 875 945
f 225 945 875
f 355 225 875
f 223 225 355
f 801 757 224
f 801 356 757
f 356 226 757
f 356 358 226
f 947 359 945
f 945 359 357
f 945 225 227
f 945 227 947
f 358 917 963
f 228 358 963
f 226 358 228
f 917 360 963
f 949 361 947
f 947 361 359
f 947 227 229
f 947 229 949
f 965 230 228
f 965 228 963
f 963 360 965
f 965 360 362
f 951 363 949
f 949 363 361
f 949 229 231
f 949 231 951
f 967 232 230
f 967 230 965
f 1079 1127 362
f 1127 965 362
f 1127 967 965
f 1079 364 1127
f 953 365 951
f 951 365 363
f 951 231 233
f 951 233 953
f 969 234 232
f 969 232 967
f 366 969 1080
f 969 1127 1080
f 969 967 1127
f 1127 364 1080
f 953 876 365
f 367 876 953
f 233 367 953
f 235 367 233
f 234 969 918
f 368 234 918
f 236 234 368
f 969 366 918
f 235 1036 367
f 367 1036 1038
f 369 1038 1036
f 369 1036 237
f 760 370 238
f 760 238 758
f 758 236 760
f 760 236 368
f 237 8 369
f 369 8 10
f 156 10 8
f 156 158 10
f 288 158 156
f 288 290 158
f 432 290 288
f 432 434 290
f 596 434 432
f 596 598 434
f 596 238 598
f 598 238 370
f 371 1053 1097
f 1097 1053 57
f 57 1053 25
f 57 25 195
f 195 25 173
f 195 173 325
f 325 173 305
f 305 372 325
f 373 891 939
f 371 1097 891
f 891 1097 939
f 1097 1051 939
f 1051 239 939
f 57 23 1051
f 57 1051 1097
f 195 171 23
f 195 23 57
f 325 303 171
f 325 171 195
f 372 449 477
f 372 477 240
f 325 372 240
f 303 325 240
f 449 374 477
f 889 241 939
f 241 373 939
f 241 375 373
f 939 239 889
f 477 447 240
f 374 613 645
f 374 645 242
f 477 374 242
f 447 477 242
f 613 376 645
f 377 731 243
f 243 731 729
f 241 729 731
f 241 731 375
f 645 611 242
f 773 611 645
f 378 773 645
f 376 378 645
f 773 378 802
f 802 244 773
f 379 243 245
f 379 377 243
f 775 802 378
f 931 244 802
f 775 931 802
f 933 931 775
f 933 380 931
f 931 380 246
f 381 245 247
f 381 379 245
f 382 1124 1093
f 246 382 1093
f 380 382 246
f 1124 248 1093
f 383 563 249
f 249 563 561
f 247 561 563
f 247 563 381
f 1095 1124 382
f 1095 384 1124
f 384 248 1124
f 384 250 248
f 385 249 251
f 385 383 249
f 250 386 252
f 384 386 250
f 387 251 253
f 387 385 251
f 252 388 254
f 386 388 252
f 389 253 255
f 389 387 253
f 1096 390 256
f 1096 256 1094
f 1094 254 1096
f 1096 254 388
f 391 255 257
f 391 389 255
f 934 392 258
f 934 258 932
f 932 256 934
f 934 256 390
f 257 562 391
f 391 562 564
f 730 564 562
f 730 732 564
f 890 732 730
f 890 892 732
f 1052 892 890
f 1052 1054 892
f 24 1054 1052
f 24 26 1054
f 393 26 24
f 393 24 259
f 776 394 260
f 776 260 774
f 774 258 776
f 776 258 392
f 259 172 393
f 393 172 174
f 304 174 172
f 304 306 174
f 448 306 304
f 448 450 306
f 612 450 448
f 612 614 450
f 612 260 614
f 614 260 394
f 395 907 261
f 261 907 905
f 907 1067 905
f 1069 1067 907
f 1069 39 1067
f 41 39 1069
f 41 396 39
f 39 396 262
f 397 747 263
f 263 747 745
f 261 745 747
f 261 747 395
f 187 262 396
f 187 396 189
f 189 319 187
f 321 319 189
f 321 398 319
f 319 398 264
f 399 263 265
f 399 397 263
f 463 264 398
f 463 398 465
f 465 400 463
f 463 400 266
f 401 579 267
f 267 579 577
f 265 577 579
f 265 579 399
f 266 402 268
f 400 402 266
f 403 415 269
f 269 415 413
f 267 413 415
f 267 415 401
f 268 404 270
f 402 404 268
f 405 269 271
f 405 403 269
f 270 406 272
f 404 406 270
f 407 271 273
f 407 405 271
f 466 408 274
f 466 274 464
f 464 272 466
f 466 272 406
f 273 414 407
f 407 414 416
f 409 416 414
f 409 414 275
f 274 410 276
f 408 410 274
f 275 578 409
f 409 578 580
f 411 580 578
f 411 578 277
f 322 412 346
f 346 278 322
f 278 410 322
f 278 276 410
f 277 746 411
f 411 746 748
f 906 748 746
f 906 908 748
f 1068 908 906
f 1068 1070 908
f 40 1070 1068
f 40 42 1070
f 188 42 40
f 188 190 42
f 412 190 346
f 190 320 346
f 190 188 320
f 278 346 320
f 62 9 353
f 200 157 62
f 62 157 9
f 330 289 200
f 200 289 157
f 480 433 330
f 330 433 289
f 480 354 433
f 501 1039 355
f 355 1039 1037
f 11 62 353
f 1037 11 353
f 1039 11 1037
f 62 11 159
f 62 159 200
f 200 159 291
f 200 291 330
f 330 291 435
f 330 435 480
f 597 354 480
f 435 597 480
f 599 597 435
f 599 759 597
f 761 759 599
f 356 759 959
f 759 919 959
f 759 761 919
f 919 502 959
f 503 877 357
f 357 877 875
f 355 875 877
f 355 877 501
f 961 358 356
f 961 356 959
f 1081 1121 502
f 1121 959 502
f 1121 961 959
f 1081 504 1121
f 505 357 359
f 505 503 357
f 961 917 358
f 1123 360 917
f 961 1123 917
f 1121 1123 961
f 1121 504 1123
f 1123 504 506
f 507 359 361
f 507 505 359
f 1125 362 360
f 1125 360 1123
f 49 83 506
f 83 1123 506
f 83 1125 1123
f 49 508 83
f 509 361 363
f 509 507 361
f 1125 1079 362
f 85 364 1079
f 1125 85 1079
f 83 85 1125
f 83 508 85
f 85 508 510
f 511 363 365
f 511 509 363
f 1080 1129 366
f 1129 1080 364
f 85 1129 364
f 87 1129 85
f 85 510 87
f 87 510 512
f 365 876 511
f 511 876 878
f 513 878 876
f 513 876 367
f 918 971 368
f 971 918 366
f 1129 971 366
f 1131 971 1129
f 514 1131 50
f 1131 87 50
f 1131 1129 87
f 87 512 50
f 367 1038 513
f 513 1038 1040
f 515 1040 1038
f 515 1038 369
f 760 815 370
f 971 920 368
f 368 920 760
f 920 516 760
f 516 815 760
f 920 971 1082
f 1082 971 1131
f 1131 514 1082
f 369 10 515
f 515 10 12
f 158 12 10
f 158 160 12
f 290 160 158
f 290 292 160
f 434 292 290
f 434 436 292
f 598 436 434
f 598 600 436
f 815 762 370
f 762 598 370
f 762 600 598
f 815 516 762
f 517 1055 371
f 371 1055 1053
f 1055 25 1053
f 27 25 1055
f 27 173 25
f 175 173 27
f 175 305 173
f 307 305 175
f 372 305 475
f 305 451 475
f 305 307 451
f 451 518 475
f 519 893 373
f 373 893 891
f 371 891 893
f 371 893 517
f 475 449 372
f 518 615 641
f 518 641 374
f 475 518 374
f 449 475 374
f 615 520 641
f 521 733 783
f 375 783 733
f 519 375 733
f 373 375 519
f 641 613 374
f 641 520 613
f 520 376 613
f 520 522 376
f 731 377 783
f 377 521 783
f 377 523 521
f 783 375 731
f 376 524 378
f 522 524 376
f 525 377 379
f 525 523 377
f 775 378 524
f 775 524 777
f 962 933 526
f 933 777 526
f 933 775 777
f 962 380 933
f 527 379 381
f 527 525 379
f 935 962 526
f 935 528 962
f 528 380 962
f 528 382 380
f 529 565 383
f 383 565 563
f 381 563 565
f 381 565 527
f 530 1126 1095
f 382 530 1095
f 528 530 382
f 1126 384 1095
f 531 383 385
f 531 529 383
f 532 1128 1126
f 532 1126 530
f 384 1126 386
f 386 1126 1128
f 533 385 387
f 533 531 385
f 534 1130 1128
f 534 1128 532
f 386 1128 388
f 388 1128 1130
f 535 387 389
f 535 533 387
f 936 536 972
f 1130 534 936
f 1130 936 972
f 1096 1130 972
f 390 1096 972
f 388 1130 1096
f 566 535 640
f 535 391 640
f 535 389 391
f 537 566 640
f 392 934 972
f 536 392 972
f 538 392 536
f 390 972 934
f 564 640 391
f 640 564 537
f 564 734 537
f 564 732 734
f 892 734 732
f 892 894 734
f 1054 894 892
f 1054 1056 894
f 26 1056 1054
f 26 28 1056
f 26 393 220
f 176 26 220
f 28 26 176
f 539 176 220
f 778 540 394
f 778 394 776
f 776 392 778
f 778 392 538
f 174 220 393
f 220 174 539
f 174 308 539
f 174 306 308
f 450 308 306
f 450 452 308
f 614 452 450
f 614 616 452
f 614 394 616
f 616 394 540
f 541 909 395
f 395 909 907
f 909 1069 907
f 1071 1069 909
f 1071 41 1069
f 43 41 1071
f 43 542 41
f 41 542 396
f 543 749 397
f 397 749 747
f 395 747 749
f 395 749 541
f 189 396 542
f 189 542 191
f 328 321 544
f 321 191 544
f 321 189 191
f 328 398 321
f 545 581 623
f 399 623 581
f 543 399 581
f 397 399 543
f 323 328 544
f 546 482 465
f 546 465 398
f 323 546 398
f 328 323 398
f 482 400 465
f 547 417 467
f 545 623 417
f 417 623 467
f 623 579 467
f 579 401 467
f 623 399 579
f 548 484 482
f 548 482 546
f 400 482 402
f 402 482 484
f 415 403 467
f 403 547 467
f 403 549 547
f 467 401 415
f 550 486 484
f 550 484 548
f 402 484 404
f 404 484 486
f 551 403 405
f 551 549 403
f 552 488 486
f 552 486 550
f 404 486 406
f 406 486 488
f 553 405 407
f 553 551 405
f 408 466 488
f 552 408 488
f 554 408 552
f 406 488 466
f 407 416 553
f 553 416 418
f 555 418 416
f 555 416 409
f 408 556 410
f 554 556 408
f 409 580 555
f 555 580 582
f 580 411 796
f 750 580 796
f 582 580 750
f 557 750 796
f 324 558 412
f 324 412 322
f 322 410 324
f 324 410 556
f 748 796 411
f 796 748 557
f 748 910 557
f 748 908 910
f 1070 910 908
f 1070 1072 910
f 42 1072 1070
f 42 44 1072
f 190 44 42
f 190 192 44
f 190 412 192
f 192 412 558
f 665 1041 501
f 501 1041 1039
f 1041 11 1039
f 13 11 1041
f 13 159 11
f 161 159 13
f 161 291 159
f 293 291 161
f 293 435 291
f 437 435 293
f 437 599 435
f 601 599 437
f 601 761 599
f 763 761 601
f 763 919 761
f 921 919 763
f 921 666 919
f 919 666 502
f 667 879 503
f 503 879 877
f 501 877 879
f 501 879 665
f 1081 502 666
f 1081 666 1083
f 1083 668 1081
f 1081 668 504
f 669 503 505
f 669 667 503
f 504 670 506
f 668 670 504
f 671 505 507
f 671 669 505
f 49 506 670
f 49 670 51
f 51 672 49
f 49 672 508
f 673 507 509
f 673 671 507
f 508 674 510
f 672 674 508
f 675 509 511
f 675 673 509
f 510 676 512
f 674 676 510
f 955 677 878
f 677 511 878
f 677 675 511
f 513 955 878
f 52 678 514
f 52 514 50
f 50 512 52
f 52 512 676
f 955 880 677
f 1117 679 1040
f 1040 679 513
f 679 880 513
f 880 955 513
f 515 1117 1040
f 922 680 516
f 922 516 920
f 1082 922 920
f 1082 1084 922
f 1082 514 1084
f 1084 514 678
f 1117 1042 679
f 515 12 1117
f 12 1042 1117
f 12 14 1042
f 160 14 12
f 160 162 14
f 292 162 160
f 292 294 162
f 436 294 292
f 436 438 294
f 600 438 436
f 600 602 438
f 762 602 600
f 762 764 602
f 762 516 764
f 764 516 680
f 681 895 937
f 937 895 517
f 895 1055 517
f 895 1057 1055
f 1057 27 1055
f 29 27 1057
f 29 175 27
f 177 175 29
f 177 307 175
f 309 307 177
f 309 451 307
f 453 451 309
f 453 682 451
f 451 682 518
f 893 519 937
f 519 681 937
f 519 683 681
f 937 517 893
f 615 518 682
f 615 682 617
f 617 684 615
f 615 684 520
f 685 735 521
f 521 735 733
f 519 733 735
f 519 735 683
f 520 686 522
f 684 686 520
f 687 521 523
f 687 685 521
f 522 688 524
f 686 688 522
f 689 523 525
f 689 687 523
f 777 524 688
f 777 688 779
f 779 690 777
f 777 690 526
f 691 567 629
f 527 629 567
f 689 527 567
f 525 527 689
f 692 964 935
f 526 692 935
f 690 692 526
f 964 528 935
f 565 529 629
f 529 691 629
f 529 693 691
f 629 527 565
f 694 966 964
f 694 964 692
f 528 964 530
f 530 964 966
f 695 529 531
f 695 693 529
f 696 968 966
f 696 966 694
f 530 966 532
f 532 966 968
f 697 531 533
f 697 695 531
f 780 698 812
f 968 696 780
f 812 968 780
f 970 968 812
f 532 968 534
f 534 968 970
f 699 533 535
f 699 697 533
f 700 814 812
f 700 812 698
f 936 970 536
f 970 814 536
f 970 812 814
f 534 970 936
f 535 566 699
f 699 566 568
f 566 537 800
f 736 566 800
f 568 566 736
f 736 800 958
f 736 958 896
f 896 958 1120
f 896 1120 1058
f 1058 1120 80
f 1058 80 30
f 30 80 218
f 30 218 178
f 701 178 218
f 618 702 662
f 814 700 618
f 662 814 618
f 816 814 662
f 536 814 538
f 538 814 816
f 734 800 537
f 894 958 734
f 734 958 800
f 1056 1120 894
f 894 1120 958
f 28 80 1056
f 1056 80 1120
f 176 218 28
f 28 218 80
f 310 701 352
f 352 701 539
f 701 218 539
f 218 176 539
f 310 352 500
f 310 500 454
f 662 702 454
f 500 662 454
f 664 662 500
f 778 816 540
f 816 664 540
f 816 662 664
f 538 816 778
f 308 352 539
f 452 500 308
f 308 500 352
f 616 664 452
f 452 664 500
f 540 664 616
f 703 911 541
f 541 911 909
f 911 1071 909
f 1073 1071 911
f 1073 43 1071
f 45 43 1073
f 45 704 43
f 43 704 542
f 705 751 543
f 543 751 749
f 541 749 751
f 541 751 703
f 191 542 704
f 191 704 193
f 193 706 191
f 191 706 544
f 624 581 545
f 543 581 624
f 707 543 624
f 705 543 707
f 708 332 323
f 544 708 323
f 706 708 544
f 332 546 323
f 709 419 547
f 547 419 417
f 583 624 545
f 417 583 545
f 419 583 417
f 707 624 583
f 710 334 332
f 710 332 708
f 546 332 548
f 548 332 334
f 711 547 549
f 711 709 547
f 712 336 334
f 712 334 710
f 548 334 550
f 550 334 336
f 713 549 551
f 713 711 549
f 714 338 336
f 714 336 712
f 550 336 552
f 552 336 338
f 715 551 553
f 715 713 551
f 716 340 338
f 716 338 714
f 552 338 554
f 554 338 340
f 553 418 715
f 715 418 420
f 717 420 418
f 717 418 555
f 718 342 340
f 718 340 716
f 554 340 556
f 556 340 342
f 555 582 717
f 717 582 584
f 750 584 582
f 750 752 584
f 719 752 750
f 719 750 557
f 194 720 214
f 342 718 194
f 342 194 214
f 324 342 214
f 558 324 214
f 556 342 324
f 557 910 719
f 719 910 912
f 1072 912 910
f 1072 1074 912
f 44 1074 1072
f 44 46 1074
f 720 46 214
f 46 192 214
f 46 44 192
f 558 214 192
f 817 279 333
f 279 818 333
f 819 147 205
f 817 333 147
f 333 205 147
f 333 335 205
f 423 485 818
f 485 333 818
f 485 335 333
f 423 820 485
f 205 148 819
f 148 205 821
f 205 337 821
f 205 335 337
f 822 337 424
f 337 485 424
f 337 335 485
f 485 820 424
f 337 280 821
f 337 822 280
f 823 881 943
f 943 881 665
f 881 1041 665
f 881 1043 1041
f 1043 13 1041
f 15 13 1043
f 15 161 13
f 163 161 15
f 163 293 161
f 295 293 163
f 295 437 293
f 439 437 295
f 439 601 437
f 603 601 439
f 603 763 601
f 765 763 603
f 765 921 763
f 923 921 765
f 923 824 921
f 921 824 666
f 879 667 943
f 667 823 943
f 667 825 823
f 943 665 879
f 1083 666 824
f 1083 824 1085
f 1085 826 1083
f 1083 826 668
f 827 667 669
f 827 825 667
f 826 53 81
f 670 826 81
f 668 826 670
f 53 828 81
f 829 721 791
f 671 791 721
f 827 671 721
f 669 671 827
f 81 51 670
f 81 828 51
f 828 672 51
f 828 830 672
f 793 831 791
f 791 831 829
f 791 671 673
f 791 673 793
f 672 832 674
f 830 832 672
f 795 833 793
f 793 833 831
f 793 673 675
f 793 675 795
f 674 834 676
f 832 834 674
f 795 722 833
f 835 722 795
f 675 835 795
f 677 835 675
f 54 836 678
f 54 678 52
f 52 676 54
f 54 676 834
f 677 880 835
f 835 880 882
f 880 679 1118
f 1044 880 1118
f 882 880 1044
f 837 1044 1118
f 924 838 680
f 924 680 922
f 1084 924 922
f 1084 1086 924
f 1084 678 1086
f 1086 678 836
f 1042 1118 679
f 1118 1042 837
f 1042 16 837
f 1042 14 16
f 162 16 14
f 162 164 16
f 294 351 839
f 164 294 839
f 162 294 164
f 438 499 351
f 438 351 294
f 602 663 499
f 602 499 438
f 766 840 663
f 602 766 663
f 764 766 602
f 764 680 766
f 766 680 838
f 351 296 839
f 296 351 440
f 440 351 499
f 440 499 604
f 604 499 663
f 663 840 604
f 841 897 681
f 681 897 895
f 897 1057 895
f 1059 1057 897
f 1059 29 1057
f 31 29 1059
f 31 177 29
f 179 177 31
f 179 309 177
f 311 309 179
f 311 453 309
f 455 453 311
f 455 842 453
f 453 842 682
f 843 737 781
f 683 781 737
f 841 683 737
f 681 683 841
f 617 682 842
f 617 842 619
f 619 844 617
f 617 844 684
f 735 685 781
f 685 843 781
f 685 845 843
f 781 683 735
f 684 846 686
f 844 846 684
f 847 685 687
f 847 845 685
f 686 848 688
f 846 848 686
f 849 687 689
f 849 847 687
f 850 804 779
f 688 850 779
f 848 850 688
f 804 690 779
f 851 569 691
f 691 569 567
f 689 567 569
f 689 569 849
f 852 806 804
f 852 804 850
f 690 804 692
f 692 804 806
f 853 691 693
f 853 851 691
f 620 854 654
f 806 852 620
f 654 806 620
f 808 806 654
f 692 806 694
f 694 806 808
f 855 693 695
f 855 853 693
f 856 656 654
f 856 654 854
f 810 654 656
f 808 654 810
f 694 808 696
f 696 808 810
f 857 695 697
f 857 855 695
f 858 658 656
f 858 656 856
f 780 810 698
f 810 658 698
f 810 656 658
f 696 810 780
f 859 697 699
f 859 857 697
f 456 860 496
f 658 858 456
f 496 658 456
f 660 658 496
f 698 658 700
f 700 658 660
f 699 568 859
f 859 568 570
f 736 570 568
f 736 738 570
f 896 738 736
f 896 898 738
f 1058 898 896
f 1058 1060 898
f 30 1060 1058
f 30 32 1060
f 178 32 30
f 178 180 32
f 178 701 350
f 312 178 350
f 180 178 312
f 496 860 312
f 350 496 312
f 498 496 350
f 618 660 702
f 660 498 702
f 660 496 498
f 700 660 618
f 310 350 701
f 454 498 310
f 310 498 350
f 702 498 454
f 938 911 703
f 1098 1073 938
f 938 1073 911
f 58 45 1098
f 1098 45 1073
f 58 704 45
f 782 751 705
f 751 782 703
f 782 938 703
f 782 940 938
f 940 861 1075
f 1098 940 1075
f 938 940 1098
f 1098 1075 862
f 60 1098 862
f 58 1098 60
f 704 58 193
f 58 198 193
f 58 60 198
f 198 706 193
f 782 705 753
f 705 863 753
f 705 707 863
f 782 753 913
f 782 913 940
f 861 940 913
f 47 60 862
f 60 47 864
f 202 60 864
f 198 60 202
f 706 198 708
f 708 198 202
f 468 419 709
f 865 585 468
f 585 419 468
f 585 583 419
f 707 583 585
f 707 585 863
f 866 204 202
f 866 202 864
f 708 202 710
f 710 202 204
f 468 709 421
f 709 867 421
f 709 711 867
f 865 468 421
f 868 206 204
f 868 204 866
f 710 204 712
f 712 204 206
f 869 711 713
f 869 867 711
f 870 208 206
f 870 206 868
f 712 206 714
f 714 206 208
f 871 713 715
f 871 869 713
f 872 210 208
f 872 208 870
f 714 208 716
f 716 208 210
f 715 420 871
f 871 420 422
f 873 422 420
f 873 420 717
f 874 212 210
f 874 210 872
f 716 210 718
f 718 210 212
f 717 584 873
f 873 584 586
f 752 586 584
f 752 754 586
f 752 719 954
f 914 752 954
f 754 752 914
f 914 954 1114
f 914 1114 1076
f 1076 1114 76
f 1076 76 48
f 212 874 48
f 212 48 76
f 194 212 76
f 720 194 76
f 718 212 194
f 912 954 719
f 1074 1114 912
f 912 1114 954
f 46 76 1074
f 1074 76 1114
f 720 76 46
f 973 149 199
f 199 149 329
f 329 149 281
f 329 281 479
f 479 281 425
f 425 974 479
f 975 1 65
f 973 199 1
f 199 65 1
f 199 203 65
f 329 279 817
f 203 329 817
f 199 329 203
f 483 818 279
f 329 483 279
f 479 483 329
f 589 647 974
f 647 479 974
f 647 483 479
f 589 976 647
f 67 977 65
f 65 977 975
f 203 147 819
f 67 203 819
f 65 203 67
f 203 817 147
f 483 423 818
f 649 820 423
f 483 649 423
f 647 649 483
f 647 976 649
f 649 976 978
f 69 979 67
f 67 979 977
f 67 819 148
f 207 67 148
f 69 67 207
f 821 207 148
f 424 487 822
f 487 424 820
f 649 487 820
f 651 487 649
f 649 978 651
f 651 978 980
f 69 2 979
f 2 69 981
f 69 209 981
f 69 207 209
f 207 821 280
f 339 207 280
f 209 207 339
f 339 280 822
f 487 339 822
f 489 339 487
f 982 489 590
f 489 651 590
f 489 487 651
f 651 980 590
f 209 150 981
f 150 209 282
f 282 209 339
f 282 339 426
f 426 339 489
f 489 982 426
f 983 883 941
f 941 883 1101
f 1101 883 1045
f 1101 1045 63
f 63 1045 17
f 63 17 201
f 201 17 165
f 165 984 201
f 985 723 785
f 983 941 723
f 723 941 785
f 941 881 785
f 881 823 785
f 1101 1043 881
f 1101 881 941
f 63 15 1043
f 63 1043 1101
f 201 163 15
f 201 15 63
f 163 201 984
f 297 163 984
f 295 163 297
f 297 439 295
f 441 439 297
f 441 603 439
f 605 603 441
f 605 765 603
f 767 765 605
f 767 923 765
f 925 923 767
f 925 986 923
f 923 986 824
f 787 987 785
f 785 987 985
f 785 823 825
f 785 825 787
f 1085 824 986
f 1085 986 1087
f 1087 988 1085
f 1085 988 826
f 789 989 787
f 787 989 987
f 787 825 827
f 787 827 789
f 990 82 53
f 826 990 53
f 988 990 826
f 82 828 53
f 721 829 789
f 829 989 789
f 829 991 989
f 789 827 721
f 55 82 990
f 55 992 82
f 992 828 82
f 992 830 828
f 993 829 831
f 993 991 829
f 830 994 832
f 992 994 830
f 995 831 833
f 995 993 831
f 832 996 834
f 994 996 832
f 797 997 722
f 997 833 722
f 997 995 833
f 835 797 722
f 56 998 836
f 56 836 54
f 54 834 56
f 56 834 996
f 797 724 997
f 835 882 797
f 882 724 797
f 882 884 724
f 1044 884 882
f 1044 1046 884
f 999 1046 1044
f 999 1044 837
f 926 1000 838
f 926 838 924
f 1086 926 924
f 1086 1088 926
f 1086 836 1088
f 1088 836 998
f 837 16 999
f 999 16 18
f 164 219 1001
f 18 164 1001
f 16 164 18
f 839 219 164
f 768 1002 840
f 768 840 766
f 766 838 768
f 768 838 1000
f 219 166 1001
f 839 296 219
f 296 166 219
f 296 298 166
f 440 298 296
f 440 442 298
f 604 442 440
f 604 606 442
f 604 840 606
f 606 840 1002
f 1003 899 841
f 841 899 897
f 899 1059 897
f 1061 1059 899
f 1061 31 1059
f 33 31 1061
f 33 179 31
f 181 179 33
f 181 311 179
f 313 311 181
f 313 455 311
f 457 455 313
f 457 1004 455
f 455 1004 842
f 1005 739 843
f 843 739 737
f 841 737 739
f 841 739 1003
f 619 842 1004
f 619 1004 621
f 621 1006 619
f 619 1006 844
f 1007 843 845
f 1007 1005 843
f 844 1008 846
f 1006 1008 844
f 1009 845 847
f 1009 1007 845
f 846 1010 848
f 1008 1010 846
f 1011 847 849
f 1011 1009 847
f 848 1012 850
f 1010 1012 848
f 1013 571 851
f 851 571 569
f 849 569 571
f 849 571 1011
f 622 1014 652
f 652 852 622
f 852 1012 622
f 852 850 1012
f 1015 851 853
f 1015 1013 851
f 854 620 652
f 1014 854 652
f 1016 854 1014
f 852 652 620
f 1017 853 855
f 1017 1015 853
f 458 1018 492
f 492 856 458
f 856 1016 458
f 856 854 1016
f 1019 855 857
f 1019 1017 855
f 1020 494 492
f 1020 492 1018
f 856 492 858
f 858 492 494
f 572 1019 638
f 1019 859 638
f 1019 857 859
f 1021 572 638
f 182 1022 216
f 182 216 348
f 182 348 314
f 494 1020 314
f 494 314 348
f 456 494 348
f 860 456 348
f 858 494 456
f 570 638 859
f 638 570 1021
f 570 740 1021
f 570 738 740
f 898 740 738
f 898 900 740
f 1060 900 898
f 1060 1062 900
f 32 1062 1060
f 32 34 1062
f 1022 34 216
f 34 180 216
f 34 32 180
f 312 348 180
f 180 348 216
f 860 348 312
f 1100 1075 861
f 1100 862 1075
f 784 753 863
f 942 913 784
f 784 913 753
f 913 942 861
f 942 1100 861
f 942 1102 1100
f 862 1100 47
f 1100 64 47
f 1100 1102 64
f 64 864 47
f 626 585 865
f 585 626 863
f 626 784 863
f 626 786 784
f 786 1023 915
f 942 786 915
f 784 786 942
f 942 915 1024
f 1104 942 1024
f 1102 942 1104
f 66 1102 1104
f 64 1102 66
f 864 64 866
f 866 64 66
f 470 421 867
f 421 470 865
f 470 626 865
f 470 628 626
f 628 1025 755
f 786 628 755
f 626 628 786
f 1023 786 755
f 1077 1104 1024
f 1104 1077 1026
f 68 1104 1026
f 66 1104 68
f 866 66 868
f 868 66 68
f 869 472 867
f 867 472 470
f 472 1027 587
f 628 472 587
f 470 472 628
f 1025 628 587
f 1028 70 68
f 1028 68 1026
f 868 68 870
f 870 68 70
f 871 474 869
f 869 474 472
f 632 588 1027
f 472 632 1027
f 474 632 472
f 1029 588 632
f 1078 1030 1110
f 70 1028 1078
f 1110 70 1078
f 72 70 1110
f 870 70 872
f 872 70 72
f 422 474 871
f 873 634 422
f 634 474 422
f 634 632 474
f 794 756 1029
f 632 794 1029
f 634 794 632
f 756 794 952
f 756 952 916
f 1110 1030 916
f 952 1110 916
f 1112 1110 952
f 74 1110 1112
f 72 1110 74
f 872 72 874
f 874 72 74
f 586 634 873
f 754 794 586
f 586 794 634
f 914 952 754
f 754 952 794
f 1076 1112 914
f 914 1112 952
f 48 74 1076
f 1076 74 1112
f 874 74 48
f 1133 3 61
f 61 3 973
f 3 149 973
f 3 151 149
f 151 281 149
f 283 281 151
f 283 425 281
f 427 425 283
f 427 1134 425
f 425 1134 974
f 1135 1031 1103
f 1133 61 1031
f 1031 61 1103
f 61 1 1103
f 1 975 1103
f 61 973 1
f 589 974 1134
f 589 1134 591
f 591 1136 589
f 589 1136 976
f 1105 1137 1103
f 1103 1137 1135
f 1103 975 977
f 1103 977 1105
f 976 1138 978
f 1136 1138 976
f 1107 1139 1105
f 1105 1139 1137
f 1105 977 979
f 1105 979 1107
f 978 1140 980
f 1138 1140 978
f 1109 1141 1107
f 1107 1141 1139
f 1107 979 2
f 71 1107 2
f 1109 1107 71
f 981 71 2
f 590 653 982
f 590 980 653
f 980 1142 653
f 980 1140 1142
f 1109 1032 1141
f 1032 1109 1143
f 1109 73 1143
f 1109 71 73
f 71 981 150
f 211 71 150
f 73 71 211
f 282 341 211
f 282 211 150
f 426 491 341
f 426 341 282
f 653 592 982
f 982 592 426
f 592 1144 426
f 1144 491 426
f 653 1142 592
f 75 1145 73
f 73 1145 1143
f 73 213 75
f 73 211 213
f 211 343 213
f 211 341 343
f 341 493 343
f 341 491 493
f 491 1144 493
f 493 1144 1146
f 75 4 1145
f 4 75 1147
f 75 215 1147
f 75 213 215
f 213 347 215
f 213 343 347
f 1148 347 428
f 347 493 428
f 347 343 493
f 493 1146 428
f 215 152 1147
f 152 215 284
f 284 215 347
f 347 1148 284
f 1149 885 983
f 983 885 883
f 885 1045 883
f 1047 1045 885
f 1047 17 1045
f 19 17 1047
f 19 165 17
f 167 165 19
f 984 165 331
f 165 299 331
f 165 167 299
f 299 1150 331
f 1151 725 985
f 985 725 723
f 983 723 725
f 983 725 1149
f 331 297 984
f 297 331 1150
f 443 297 1150
f 441 297 443
f 443 605 441
f 607 605 443
f 607 767 605
f 769 767 607
f 769 925 767
f 927 925 769
f 927 1152 925
f 925 1152 986
f 1153 985 987
f 1153 1151 985
f 1087 986 1152
f 1087 1152 1089
f 1089 1154 1087
f 1087 1154 988
f 1155 987 989
f 1155 1153 987
f 988 1156 990
f 1154 1156 988
f 1157 989 991
f 1157 1155 989
f 1158 84 55
f 990 1158 55
f 1156 1158 990
f 84 992 55
f 1159 991 993
f 1159 1157 991
f 1160 86 84
f 1160 84 1158
f 992 84 994
f 994 84 86
f 1161 993 995
f 1161 1159 993
f 1162 88 86
f 1162 86 1160
f 994 86 996
f 996 86 88
f 1163 995 997
f 1163 1161 995
f 1090 1164 1132
f 88 1162 1090
f 88 1090 1132
f 56 88 1132
f 998 56 1132
f 996 88 56
f 997 724 1163
f 1163 724 726
f 884 726 724
f 884 886 726
f 1046 1119 1165
f 886 1046 1165
f 884 1046 886
f 999 1119 1046
f 928 1166 1000
f 928 1000 926
f 1164 928 1132
f 928 1088 1132
f 928 926 1088
f 998 1132 1088
f 1119 1048 1165
f 999 18 1119
f 18 1048 1119
f 18 20 1048
f 1167 20 18
f 1167 18 1001
f 770 1168 1002
f 770 1002 768
f 768 1000 770
f 770 1000 1166
f 1001 166 1167
f 1167 166 168
f 298 168 166
f 298 300 168
f 442 300 298
f 442 444 300
f 606 444 442
f 606 608 444
f 606 1002 608
f 608 1002 1168
f 1169 901 1003
f 1003 901 899
f 901 1061 899
f 1063 1061 901
f 1063 33 1061
f 35 33 1063
f 35 181 33
f 183 181 35
f 326 313 1170
f 313 183 1170
f 313 181 183
f 476 457 326
f 326 457 313
f 476 1004 457
f 1171 741 1005
f 1005 741 739
f 1003 739 741
f 1003 741 1169
f 315 326 1170
f 326 315 459
f 326 459 476
f 1172 642 621
f 1172 621 1004
f 459 1172 1004
f 476 459 1004
f 642 1006 621
f 1173 1005 1007
f 1173 1171 1005
f 1174 646 642
f 1174 642 1172
f 1006 642 1008
f 1008 642 646
f 1175 573 625
f 1009 625 573
f 1173 1009 573
f 1007 1009 1173
f 1176 648 646
f 1176 646 1174
f 1008 646 1010
f 1010 646 648
f 627 1177 625
f 625 1177 1175
f 625 1009 1011
f 625 1011 627
f 1178 650 648
f 1178 648 1176
f 1010 648 1012
f 1012 648 650
f 571 1013 627
f 1013 1177 627
f 1013 1179 1177
f 627 1011 571
f 1014 622 650
f 1178 1014 650
f 1180 1014 1178
f 1012 650 622
f 1181 1013 1015
f 1181 1179 1013
f 460 1182 490
f 490 1016 460
f 1016 1180 460
f 1016 1014 1180
f 1183 1015 1017
f 1183 1181 1015
f 1018 458 490
f 1182 1018 490
f 1184 1018 1182
f 1016 490 458
f 574 1183 636
f 1183 1019 636
f 1183 1017 1019
f 1185 574 636
f 316 1186 344
f 344 1020 316
f 1020 1184 316
f 1020 1018 1184
f 572 636 1019
f 742 1185 798
f 798 1185 1021
f 1185 636 1021
f 636 572 1021
f 742 798 956
f 742 956 902
f 902 956 1116
f 902 1116 1064
f 1064 1116 78
f 1064 78 36
f 36 78 1022
f 182 36 1022
f 184 36 182
f 1186 184 344
f 184 314 344
f 184 182 314
f 1020 344 314
f 740 798 1021
f 900 956 740
f 740 956 798
f 1062 1116 900
f 900 1116 956
f 34 78 1062
f 1062 78 1116
f 1022 78 34
f 944 915 1023
f 944 1024 915
f 788 755 1025
f 755 788 1023
f 788 944 1023
f 788 946 944
f 1024 944 1077
f 944 1106 1077
f 944 946 1106
f 1106 1026 1077
f 630 587 1027
f 587 630 1025
f 630 788 1025
f 630 790 788
f 948 788 790
f 946 788 948
f 1108 946 948
f 1106 946 1108
f 1026 1106 1028
f 1028 1106 1108
f 588 630 1027
f 1029 792 588
f 792 630 588
f 792 790 630
f 950 790 792
f 948 790 950
f 1078 1108 1030
f 1108 950 1030
f 1108 948 950
f 1028 1108 1078
f 756 792 1029
f 916 950 756
f 756 950 792
f 1030 950 916
f 89 5 1133
f 1133 5 3
f 5 151 3
f 153 151 5
f 153 283 151
f 285 283 153
f 285 427 283
f 429 427 285
f 1134 427 643
f 427 593 643
f 427 429 593
f 593 90 643
f 91 1033 1135
f 1135 1033 1031
f 1133 1031 1033
f 1133 1033 89
f 643 591 1134
f 643 90 591
f 90 1136 591
f 90 92 1136
f 93 1135 1137
f 93 91 1135
f 1136 94 1138
f 92 94 1136
f 95 1137 1139
f 95 93 1137
f 1138 96 1140
f 94 96 1138
f 97 1139 1141
f 97 95 1139
f 1140 98 1142
f 96 98 1140
f 1111 99 1032
f 99 1141 1032
f 99 97 1141
f 1143 1111 1032
f 592 655 1144
f 592 1142 655
f 1142 100 655
f 1142 98 100
f 1113 101 1111
f 1111 101 99
f 1111 1143 1145
f 1111 1145 1113
f 657 1146 1144
f 657 1144 655
f 655 100 657
f 657 100 102
f 1115 103 1113
f 1113 103 101
f 1113 1145 4
f 77 1113 4
f 1115 1113 77
f 1147 77 4
f 428 495 1148
f 495 428 1146
f 657 495 1146
f 659 495 657
f 657 102 659
f 659 102 104
f 1115 1034 103
f 1034 1115 105
f 1115 79 105
f 1115 77 79
f 77 1147 152
f 217 77 152
f 79 77 217
f 284 349 217
f 284 217 152
f 349 284 1148
f 495 349 1148
f 497 349 495
f 106 497 594
f 497 659 594
f 497 495 659
f 659 104 594
f 79 6 105
f 6 79 154
f 154 79 217
f 154 217 286
f 286 217 349
f 286 349 430
f 430 349 497
f 497 106 430
f 107 1049 1099
f 1099 1049 59
f 59 1049 21
f 59 21 197
f 197 21 169
f 169 108 197
f 109 887 1149
f 1149 887 885
f 887 107 1099
f 1047 887 1099
f 885 887 1047
f 59 19 1047
f 59 1047 1099
f 197 167 19
f 197 19 59
f 167 197 108
f 301 167 108
f 299 167 301
f 1150 299 481
f 299 445 481
f 299 301 445
f 445 110 481
f 111 727 1151
f 1151 727 725
f 1149 725 727
f 1149 727 109
f 481 443 1150
f 443 481 110
f 609 443 110
f 607 443 609
f 609 769 607
f 771 769 609
f 771 927 769
f 929 927 771
f 929 112 927
f 927 112 1152
f 113 1151 1153
f 113 111 1151
f 1089 1152 112
f 1089 112 1091
f 1091 114 1089
f 1089 114 1154
f 115 1153 1155
f 115 113 1153
f 1154 116 1156
f 114 116 1154
f 117 1155 1157
f 117 115 1155
f 1156 118 1158
f 116 118 1156
f 119 559 633
f 1159 633 559
f 117 1159 559
f 1157 1159 117
f 1158 120 1160
f 118 120 1158
f 635 121 633
f 633 121 119
f 633 1159 1161
f 633 1161 635
f 1160 122 1162
f 120 122 1160
f 637 123 635
f 635 123 121
f 635 1161 1163
f 635 1163 637
f 1092 124 1164
f 1092 1164 1090
f 1090 1162 1092
f 1092 1162 122
f 637 560 123
f 799 125 726
f 726 125 1163
f 125 560 1163
f 560 637 1163
f 886 957 799
f 886 799 726
f 1165 957 886
f 930 126 1166
f 930 1166 928
f 928 1164 930
f 930 1164 124
f 799 728 125
f 728 799 888
f 888 799 957
f 1165 1048 957
f 1048 888 957
f 1048 1050 888
f 20 1050 1048
f 20 22 1050
f 127 22 20
f 127 20 1167
f 772 128 1168
f 772 1168 770
f 770 1166 772
f 772 1166 126
f 1167 168 127
f 127 168 170
f 300 170 168
f 300 302 170
f 444 302 300
f 444 446 302
f 608 446 444
f 608 610 446
f 608 1168 610
f 610 1168 128
f 129 903 1169
f 1169 903 901
f 903 1063 901
f 1065 1063 903
f 1065 35 1063
f 37 35 1065
f 196 183 130
f 183 37 130
f 183 35 37
f 196 1170 183
f 131 743 1171
f 1171 743 741
f 1169 741 743
f 1169 743 129
f 185 196 130
f 315 1170 196
f 185 315 196
f 317 315 185
f 478 459 132
f 459 317 132
f 459 315 317
f 478 1172 459
f 133 1171 1173
f 133 131 1171
f 461 478 132
f 461 134 478
f 134 1172 478
f 134 1174 1172
f 135 575 1175
f 1175 575 573
f 1173 573 575
f 1173 575 133
f 1174 136 1176
f 134 136 1174
f 137 1175 1177
f 137 135 1175
f 1176 138 1178
f 136 138 1176
f 139 1177 1179
f 139 137 1177
f 1178 140 1180
f 138 140 1178
f 141 1179 1181
f 141 139 1179
f 462 142 1182
f 462 1182 460
f 460 1180 462
f 462 1180 140
f 143 1181 1183
f 143 141 1181
f 1182 144 1184
f 142 144 1182
f 1183 574 143
f 143 574 576
f 145 576 574
f 145 574 1185
f 316 345 1186
f 316 1184 345
f 1184 146 345
f 1184 144 146
f 1185 742 145
f 145 742 744
f 902 744 742
f 902 904 744
f 1064 904 902
f 1064 1066 904
f 36 1066 1064
f 36 38 1066
f 184 38 36
f 184 186 38
f 345 318 1186
f 318 184 1186
f 318 186 184
f 345 146 318
