# Converted from NanoShaper .vert/.face
v -5.280000 9.053000 -11.770000
v -3.521000 9.053000 -11.770000
v -5.416000 9.053000 -11.270000
v -3.009000 9.053000 -11.270000
v -5.375000 9.053000 -10.770000
v -2.883000 9.053000 -10.770000
v -5.251000 9.053000 -10.270000
v -2.886000 9.053000 -10.270000
v -4.692000 9.053000 -9.770000
v -3.062000 9.053000 -9.770000
v -4.289000 13.053000 -13.270000
v -2.248000 13.053000 -13.270000
v -5.008000 13.053000 -12.770000
v -1.804000 13.053000 -12.770000
v -6.639000 13.053000 -12.270000
v -1.529000 13.053000 -12.270000
v -7.025000 13.053000 -11.770000
v -1.451000 13.053000 -11.770000
v -7.134000 13.053000 -11.270000
v -1.468000 13.053000 -11.270000
v -7.045000 13.053000 -10.770000
v -1.552000 13.053000 -10.770000
v -6.840000 13.053000 -10.270000
v -1.867000 13.053000 -10.270000
v -6.766000 13.053000 -9.770000
v -2.399000 13.053000 -9.770000
v -6.684000 13.053000 -9.270000
v -2.712000 13.053000 -9.270000
v -6.376000 13.053000 -8.770000
v -3.110000 13.053000 -8.770000
v -5.124000 9.053000 -11.971000
v -5.124000 9.053000 -10.088000
v -4.624000 9.053000 -12.241000
v -4.624000 9.053000 -9.717000
v -4.124000 9.053000 -12.216000
v -4.124000 9.053000 -9.386000
v -3.624000 9.053000 -11.866000
v -3.624000 9.053000 -9.375000
v -3.124000 9.053000 -11.445000
v -3.124000 9.053000 -9.688000
v -7.124000 13.053000 -11.412000
v -7.124000 13.053000 -11.080000
v -6.624000 13.053000 -12.282000
v -6.624000 13.053000 -9.127000
v -6.124000 13.053000 -12.518000
v -6.124000 13.053000 -8.562000
v -5.624000 13.053000 -12.593000
v -5.624000 13.053000 -8.363000
v -5.124000 13.053000 -12.720000
v -5.124000 13.053000 -8.359000
v -4.624000 13.053000 -12.995000
v -4.624000 13.053000 -8.348000
v -4.124000 13.053000 -13.441000
v -4.124000 13.053000 -8.342000
v -3.624000 13.053000 -13.725000
v -3.624000 13.053000 -8.499000
v -3.124000 13.053000 -13.715000
v -3.124000 13.053000 -8.759000
v -2.624000 13.053000 -13.489000
v -2.624000 13.053000 -9.415000
v -2.124000 13.053000 -13.157000
v -2.124000 13.053000 -10.055000
v -1.624000 13.053000 -12.484000
v -1.624000 13.053000 -10.606000
v -7.124000 12.306000 -10.770000
v -7.124000 12.786000 -10.770000
v -6.624000 11.491000 -10.770000
v -6.624000 13.618000 -10.770000
v -6.124000 10.824000 -10.770000
v -6.124000 13.938000 -10.770000
v -5.624000 9.412000 -10.770000
v -5.624000 14.286000 -10.770000
v -5.124000 8.846000 -10.770000
v -5.124000 14.584000 -10.770000
v -4.624000 8.645000 -10.770000
v -4.624000 14.884000 -10.770000
v -4.124000 8.624000 -10.770000
v -4.124000 15.213000 -10.770000
v -3.624000 8.644000 -10.770000
v -3.624000 15.408000 -10.770000
v -3.124000 8.858000 -10.770000
v -3.124000 15.492000 -10.770000
v -2.624000 9.237000 -10.770000
v -2.624000 15.438000 -10.770000
v -2.124000 9.509000 -10.770000
v -2.124000 15.167000 -10.770000
v -1.624000 10.177000 -10.770000
v -1.624000 14.463000 -10.770000
v -5.270000 9.553000 -12.270000
v -3.574000 9.553000 -12.270000
v -5.635000 9.553000 -11.770000
v -3.004000 9.553000 -11.770000
v -5.735000 9.553000 -11.270000
v -2.534000 9.553000 -11.270000
v -5.683000 9.553000 -10.770000
v -2.065000 9.553000 -10.770000
v -5.590000 9.553000 -10.270000
v -1.941000 9.553000 -10.270000
v -5.288000 9.553000 -9.770000
v -2.107000 9.553000 -9.770000
v -4.706000 9.553000 -9.270000
v -2.982000 9.553000 -9.270000
v -4.216000 13.553000 -13.770000
v -2.035000 13.553000 -13.770000
v -4.625000 13.553000 -13.270000
v -1.842000 13.553000 -13.270000
v -5.036000 13.553000 -12.770000
v -1.650000 13.553000 -12.770000
v -5.861000 13.553000 -12.270000
v -1.522000 13.553000 -12.270000
v -6.649000 13.553000 -11.770000
v -1.487000 13.553000 -11.770000
v -6.802000 13.553000 -11.270000
v -1.444000 13.553000 -11.270000
v -6.693000 13.553000 -10.770000
v -1.519000 13.553000 -10.770000
v -6.628000 13.553000 -10.270000
v -1.819000 13.553000 -10.270000
v -6.667000 13.553000 -9.770000
v -2.347000 13.553000 -9.770000
v -6.581000 13.553000 -9.270000
v -2.873000 13.553000 -9.270000
v -6.236000 13.553000 -8.770000
v -3.353000 13.553000 -8.770000
v -5.624000 9.553000 -11.796000
v -5.624000 9.553000 -10.366000
v -5.124000 9.553000 -12.377000
v -5.124000 9.553000 -9.573000
v -4.624000 9.553000 -12.565000
v -4.624000 9.553000 -9.227000
v -4.124000 9.553000 -12.546000
v -4.124000 9.553000 -9.030000
v -3.624000 9.553000 -12.310000
v -3.624000 9.553000 -9.023000
v -3.124000 9.553000 -11.862000
v -3.124000 9.553000 -9.208000
v -2.624000 9.553000 -11.393000
v -2.624000 9.553000 -9.401000
v -2.124000 9.553000 -10.860000
v -2.124000 9.553000 -9.746000
v -6.624000 13.553000 -11.807000
v -6.624000 13.553000 -9.404000
v -6.124000 13.553000 -12.173000
v -6.124000 13.553000 -8.680000
v -5.624000 13.553000 -12.374000
v -5.624000 13.553000 -8.462000
v -5.124000 13.553000 -12.693000
v -5.124000 13.553000 -8.432000
v -4.624000 13.553000 -13.271000
v -4.624000 13.553000 -8.364000
v -4.124000 13.553000 -13.837000
v -4.124000 13.553000 -8.364000
v -3.624000 13.553000 -14.063000
v -3.624000 13.553000 -8.560000
v -3.124000 13.553000 -14.241000
v -3.124000 13.553000 -9.017000
v -2.624000 13.553000 -14.223000
v -2.624000 13.553000 -9.530000
v -2.124000 13.553000 -13.895000
v -2.124000 13.553000 -10.005000
v -1.624000 13.553000 -12.702000
v -1.624000 13.553000 -10.537000
v -3.624000 13.884000 -14.270000
v -3.624000 15.137000 -14.270000
v -3.124000 13.585000 -14.270000
v -3.124000 15.436000 -14.270000
v -2.624000 13.604000 -14.270000
v -2.624000 15.416000 -14.270000
v -2.124000 13.976000 -14.270000
v -2.124000 15.044000 -14.270000
v -6.624000 11.823000 -10.270000
v -6.624000 13.559000 -10.270000
v -6.124000 11.002000 -10.270000
v -6.124000 14.090000 -10.270000
v -5.624000 9.653000 -10.270000
v -5.624000 14.355000 -10.270000
v -5.124000 8.950000 -10.270000
v -5.124000 14.693000 -10.270000
v -4.624000 8.733000 -10.270000
v -4.624000 14.896000 -10.270000
v -4.124000 8.692000 -10.270000
v -4.124000 15.119000 -10.270000
v -3.624000 8.699000 -10.270000
v -3.624000 15.304000 -10.270000
v -3.124000 8.885000 -10.270000
v -3.124000 15.294000 -10.270000
v -2.624000 9.196000 -10.270000
v -2.624000 15.080000 -10.270000
v -2.124000 9.414000 -10.270000
v -2.124000 14.687000 -10.270000
v -1.624000 9.969000 -10.270000
v -1.624000 11.864000 -10.270000
v -5.400000 10.053000 -12.270000
v -3.398000 10.053000 -12.270000
v -5.729000 10.053000 -11.770000
v -2.520000 10.053000 -11.770000
v -5.824000 10.053000 -11.270000
v -1.997000 10.053000 -11.270000
v -5.780000 10.053000 -10.770000
v -1.672000 10.053000 -10.770000
v -5.703000 10.053000 -10.270000
v -1.585000 10.053000 -10.270000
v -5.592000 10.053000 -9.770000
v -1.700000 10.053000 -9.770000
v -5.256000 10.053000 -9.270000
v -2.102000 10.053000 -9.270000
v -3.743000 14.053000 -14.270000
v -2.077000 14.053000 -14.270000
v -4.337000 14.053000 -13.770000
v -1.697000 14.053000 -13.770000
v -4.687000 14.053000 -13.270000
v -1.585000 14.053000 -13.270000
v -4.908000 14.053000 -12.770000
v -1.505000 14.053000 -12.770000
v -5.254000 14.053000 -12.270000
v -1.462000 14.053000 -12.270000
v -5.736000 14.053000 -11.770000
v -1.492000 14.053000 -11.770000
v -5.896000 14.053000 -11.270000
v -1.463000 14.053000 -11.270000
v -5.936000 14.053000 -10.770000
v -1.556000 14.053000 -10.770000
v -6.175000 14.053000 -10.270000
v -1.886000 14.053000 -10.270000
v -6.332000 14.053000 -9.770000
v -2.401000 14.053000 -9.770000
v -6.211000 14.053000 -9.270000
v -2.996000 14.053000 -9.270000
v -5.487000 14.053000 -8.770000
v -3.504000 14.053000 -8.770000
v -5.624000 10.053000 -11.986000
v -5.624000 10.053000 -9.865000
v -5.124000 10.053000 -12.479000
v -5.124000 10.053000 -9.162000
v -4.624000 10.053000 -12.653000
v -4.624000 10.053000 -8.944000
v -4.124000 10.053000 -12.636000
v -4.124000 10.053000 -8.908000
v -3.624000 10.053000 -12.421000
v -3.624000 10.053000 -8.913000
v -3.124000 10.053000 -12.091000
v -3.124000 10.053000 -8.965000
v -2.624000 10.053000 -11.846000
v -2.624000 10.053000 -9.037000
v -2.124000 10.053000 -11.405000
v -2.124000 10.053000 -9.254000
v -1.624000 10.053000 -10.618000
v -1.624000 10.053000 -9.988000
v -6.124000 14.053000 -10.352000
v -6.124000 14.053000 -9.139000
v -5.624000 14.053000 -11.925000
v -5.624000 14.053000 -8.807000
v -5.124000 14.053000 -12.424000
v -5.124000 14.053000 -8.643000
v -4.624000 14.053000 -13.403000
v -4.624000 14.053000 -8.461000
v -4.124000 14.053000 -13.943000
v -4.124000 14.053000 -8.461000
v -3.624000 14.053000 -14.356000
v -3.624000 14.053000 -8.675000
v -3.124000 14.053000 -14.548000
v -3.124000 14.053000 -9.161000
v -2.624000 14.053000 -14.534000
v -2.624000 14.053000 -9.584000
v -2.124000 14.053000 -14.306000
v -2.124000 14.053000 -10.068000
v -1.624000 14.053000 -13.554000
v -1.624000 14.053000 -10.620000
v -4.124000 13.419000 -13.770000
v -4.124000 14.965000 -13.770000
v -3.624000 13.101000 -13.770000
v -3.624000 15.592000 -13.770000
v -3.124000 13.110000 -13.770000
v -3.124000 15.789000 -13.770000
v -2.624000 13.241000 -13.770000
v -2.624000 15.775000 -13.770000
v -2.124000 13.479000 -13.770000
v -2.124000 15.542000 -13.770000
v -1.624000 14.344000 -13.770000
v -1.624000 14.677000 -13.770000
v -6.624000 12.281000 -9.770000
v -6.624000 13.652000 -9.770000
v -6.124000 11.469000 -9.770000
v -6.124000 14.217000 -9.770000
v -5.624000 10.148000 -9.770000
v -5.624000 14.431000 -9.770000
v -5.124000 9.368000 -9.770000
v -5.124000 14.727000 -9.770000
v -4.624000 9.016000 -9.770000
v -4.624000 14.922000 -9.770000
v -4.124000 8.812000 -9.770000
v -4.124000 14.981000 -9.770000
v -3.624000 8.804000 -9.770000
v -3.624000 15.010000 -9.770000
v -3.124000 9.008000 -9.770000
v -3.124000 14.970000 -9.770000
v -2.624000 9.313000 -9.770000
v -2.624000 14.639000 -9.770000
v -2.124000 9.541000 -9.770000
v -2.124000 12.205000 -9.770000
v -1.624000 10.266000 -9.770000
v -1.624000 11.367000 -9.770000
v -5.309000 10.553000 -12.270000
v -2.966000 10.553000 -12.270000
v -5.774000 10.553000 -11.770000
v -2.023000 10.553000 -11.770000
v -5.915000 10.553000 -11.270000
v -1.680000 10.553000 -11.270000
v -5.957000 10.553000 -10.770000
v -1.545000 10.553000 -10.770000
v -5.872000 10.553000 -10.270000
v -1.477000 10.553000 -10.270000
v -5.692000 10.553000 -9.770000
v -1.582000 10.553000 -9.770000
v -5.369000 10.553000 -9.270000
v -1.932000 10.553000 -9.270000
v -3.859000 14.553000 -14.270000
v -1.961000 14.553000 -14.270000
v -4.240000 14.553000 -13.770000
v -1.614000 14.553000 -13.770000
v -4.572000 14.553000 -13.270000
v -1.508000 14.553000 -13.270000
v -4.694000 14.553000 -12.770000
v -1.436000 14.553000 -12.770000
v -4.825000 14.553000 -12.270000
v -1.469000 14.553000 -12.270000
v -4.954000 14.553000 -11.770000
v -1.433000 14.553000 -11.770000
v -4.960000 14.553000 -11.270000
v -1.522000 14.553000 -11.270000
v -5.171000 14.553000 -10.770000
v -1.658000 14.553000 -10.770000
v -5.316000 14.553000 -10.270000
v -2.027000 14.553000 -10.270000
v -5.378000 14.553000 -9.770000
v -2.561000 14.553000 -9.770000
v -5.227000 14.553000 -9.270000
v -3.449000 14.553000 -9.270000
v -5.624000 10.553000 -11.989000
v -5.624000 10.553000 -9.634000
v -5.124000 10.553000 -12.380000
v -5.124000 10.553000 -9.066000
v -4.624000 10.553000 -12.554000
v -4.624000 10.553000 -8.863000
v -4.124000 10.553000 -12.538000
v -4.124000 10.553000 -8.857000
v -3.624000 10.553000 -12.440000
v -3.624000 10.553000 -8.870000
v -3.124000 10.553000 -12.316000
v -3.124000 10.553000 -8.869000
v -2.624000 10.553000 -12.167000
v -2.624000 10.553000 -8.927000
v -2.124000 10.553000 -11.868000
v -2.124000 10.553000 -9.123000
v -1.624000 10.553000 -11.109000
v -1.624000 10.553000 -9.678000
v -5.124000 14.553000 -10.857000
v -5.124000 14.553000 -9.123000
v -4.624000 14.553000 -13.134000
v -4.624000 14.553000 -8.803000
v -4.124000 14.553000 -13.941000
v -4.124000 14.553000 -8.803000
v -3.624000 14.553000 -14.445000
v -3.624000 14.553000 -9.121000
v -3.124000 14.553000 -14.625000
v -3.124000 14.553000 -9.463000
v -2.624000 14.553000 -14.612000
v -2.624000 14.553000 -9.720000
v -2.124000 14.553000 -14.400000
v -2.124000 14.553000 -10.196000
v -1.624000 14.553000 -13.794000
v -1.624000 14.553000 -10.861000
v -4.624000 13.551000 -13.270000
v -4.624000 14.418000 -13.270000
v -4.124000 12.936000 -13.270000
v -4.124000 15.213000 -13.270000
v -3.624000 12.737000 -13.270000
v -3.624000 15.714000 -13.270000
v -3.124000 12.679000 -13.270000
v -3.124000 15.894000 -13.270000
v -2.624000 12.826000 -13.270000
v -2.624000 15.881000 -13.270000
v -2.124000 13.175000 -13.270000
v -2.124000 15.669000 -13.270000
v -1.624000 13.954000 -13.270000
v -1.624000 15.067000 -13.270000
v -6.624000 12.647000 -9.270000
v -6.624000 13.434000 -9.270000
v -6.124000 11.922000 -9.270000
v -6.124000 14.120000 -9.270000
v -5.624000 11.510000 -9.270000
v -5.624000 14.343000 -9.270000
v -5.124000 9.858000 -9.270000
v -5.124000 14.629000 -9.270000
v -4.624000 9.494000 -9.270000
v -4.624000 14.839000 -9.270000
v -4.124000 9.170000 -9.270000
v -4.124000 14.839000 -9.270000
v -3.624000 9.159000 -9.270000
v -3.624000 14.658000 -9.270000
v -3.124000 9.457000 -9.270000
v -3.124000 14.250000 -9.270000
v -2.624000 9.684000 -9.270000
v -2.624000 12.668000 -9.270000
v -2.124000 10.022000 -9.270000
v -2.124000 11.645000 -9.270000
v -5.203000 11.053000 -12.270000
v -2.087000 11.053000 -12.270000
v -6.022000 11.053000 -11.770000
v -1.685000 11.053000 -11.770000
v -6.210000 11.053000 -11.270000
v -1.550000 11.053000 -11.270000
v -6.256000 11.053000 -10.770000
v -1.489000 11.053000 -10.770000
v -6.145000 11.053000 -10.270000
v -1.490000 11.053000 -10.270000
v -5.829000 11.053000 -9.770000
v -1.594000 11.053000 -9.770000
v -5.389000 11.053000 -9.270000
v -1.943000 11.053000 -9.270000
v -3.690000 15.053000 -14.270000
v -2.130000 15.053000 -14.270000
v -4.087000 15.053000 -13.770000
v -1.732000 15.053000 -13.770000
v -4.236000 15.053000 -13.270000
v -1.618000 15.053000 -13.270000
v -4.335000 15.053000 -12.770000
v -1.543000 15.053000 -12.770000
v -4.306000 15.053000 -12.270000
v -1.563000 15.053000 -12.270000
v -4.321000 15.053000 -11.770000
v -1.541000 15.053000 -11.770000
v -4.428000 15.053000 -11.270000
v -1.659000 15.053000 -11.270000
v -4.350000 15.053000 -10.770000
v -2.002000 15.053000 -10.770000
v -4.259000 15.053000 -10.270000
v -2.580000 15.053000 -10.270000
v -6.124000 11.053000 -11.598000
v -6.124000 11.053000 -10.219000
v -5.624000 11.053000 -12.109000
v -5.624000 11.053000 -9.495000
v -5.124000 11.053000 -12.293000
v -5.124000 11.053000 -9.083000
v -4.624000 11.053000 -12.356000
v -4.624000 11.053000 -8.909000
v -4.124000 11.053000 -12.367000
v -4.124000 11.053000 -8.869000
v -3.624000 11.053000 -12.438000
v -3.624000 11.053000 -8.876000
v -3.124000 11.053000 -12.508000
v -3.124000 11.053000 -8.895000
v -2.624000 11.053000 -12.507000
v -2.624000 11.053000 -8.927000
v -2.124000 11.053000 -12.297000
v -2.124000 11.053000 -9.129000
v -1.624000 11.053000 -11.607000
v -1.624000 11.053000 -9.702000
v -4.124000 15.053000 -13.679000
v -4.124000 15.053000 -10.030000
v -3.624000 15.053000 -14.317000
v -3.624000 15.053000 -9.832000
v -3.124000 15.053000 -14.514000
v -3.124000 15.053000 -9.860000
v -2.624000 15.053000 -14.500000
v -2.624000 15.053000 -10.224000
v -2.124000 15.053000 -14.266000
v -2.124000 15.053000 -10.635000
v -1.624000 15.053000 -13.352000
v -1.624000 15.053000 -11.352000
v -4.624000 12.689000 -12.770000
v -4.624000 14.684000 -12.770000
v -4.124000 12.584000 -12.770000
v -4.124000 15.223000 -12.770000
v -3.624000 12.333000 -12.770000
v -3.624000 15.687000 -12.770000
v -3.124000 12.018000 -12.770000
v -3.124000 15.883000 -12.770000
v -2.624000 12.001000 -12.770000
v -2.624000 15.897000 -12.770000
v -2.124000 12.353000 -12.770000
v -2.124000 15.719000 -12.770000
v -1.624000 13.619000 -12.770000
v -1.624000 15.215000 -12.770000
v -6.124000 12.374000 -8.770000
v -6.124000 13.708000 -8.770000
v -5.624000 12.064000 -8.770000
v -5.624000 14.018000 -8.770000
v -5.124000 11.982000 -8.770000
v -5.124000 14.235000 -8.770000
v -4.624000 11.814000 -8.770000
v -4.624000 14.522000 -8.770000
v -4.124000 11.494000 -8.770000
v -4.124000 14.521000 -8.770000
v -3.624000 11.523000 -8.770000
v -3.624000 14.217000 -8.770000
v -3.124000 11.932000 -8.770000
v -3.124000 13.074000 -8.770000
v -5.875000 11.553000 -12.270000
v -1.923000 11.553000 -12.270000
v -6.666000 11.553000 -11.770000
v -1.571000 11.553000 -11.770000
v -6.816000 11.553000 -11.270000
v -1.465000 11.553000 -11.270000
v -6.694000 11.553000 -10.770000
v -1.479000 11.553000 -10.770000
v -6.404000 11.553000 -10.270000
v -1.551000 11.553000 -10.270000
v -6.205000 11.553000 -9.770000
v -1.680000 11.553000 -9.770000
v -5.662000 11.553000 -9.270000
v -2.064000 11.553000 -9.270000
v -4.285000 11.553000 -8.770000
v -3.534000 11.553000 -8.770000
v -3.680000 15.553000 -13.770000
v -2.139000 15.553000 -13.770000
v -3.844000 15.553000 -13.270000
v -1.976000 15.553000 -13.270000
v -3.800000 15.553000 -12.770000
v -1.898000 15.553000 -12.770000
v -3.876000 15.553000 -12.270000
v -1.878000 15.553000 -12.270000
v -3.779000 15.553000 -11.770000
v -1.896000 15.553000 -11.770000
v -3.619000 15.553000 -11.270000
v -2.066000 15.553000 -11.270000
v -6.624000 11.553000 -11.832000
v -6.624000 11.553000 -10.653000
v -6.124000 11.553000 -12.195000
v -6.124000 11.553000 -9.658000
v -5.624000 11.553000 -12.308000
v -5.624000 11.553000 -9.239000
v -5.124000 11.553000 -12.348000
v -5.124000 11.553000 -8.971000
v -4.624000 11.553000 -12.281000
v -4.624000 11.553000 -8.847000
v -4.124000 11.553000 -12.306000
v -4.124000 11.553000 -8.746000
v -3.624000 11.553000 -12.440000
v -3.624000 11.553000 -8.759000
v -3.124000 11.553000 -12.618000
v -3.124000 11.553000 -8.852000
v -2.624000 11.553000 -12.622000
v -2.624000 11.553000 -8.990000
v -2.124000 11.553000 -12.424000
v -2.124000 11.553000 -9.225000
v -1.624000 11.553000 -11.882000
v -1.624000 11.553000 -9.923000
v -3.624000 15.553000 -13.844000
v -3.624000 15.553000 -11.279000
v -3.124000 15.553000 -14.151000
v -3.124000 15.553000 -10.885000
v -2.624000 15.553000 -14.131000
v -2.624000 15.553000 -10.895000
v -2.124000 15.553000 -13.747000
v -2.124000 15.553000 -11.195000
v -6.624000 12.016000 -12.270000
v -6.624000 13.076000 -12.270000
v -6.124000 11.637000 -12.270000
v -6.124000 13.454000 -12.270000
v -5.624000 11.467000 -12.270000
v -5.624000 13.715000 -12.270000
v -5.124000 9.359000 -12.270000
v -5.124000 14.194000 -12.270000
v -4.624000 9.083000 -12.270000
v -4.624000 14.749000 -12.270000
v -4.124000 9.108000 -12.270000
v -4.124000 15.242000 -12.270000
v -3.624000 9.475000 -12.270000
v -3.624000 15.756000 -12.270000
v -3.124000 10.453000 -12.270000
v -3.124000 15.950000 -12.270000
v -2.624000 10.674000 -12.270000
v -2.624000 15.949000 -12.270000
v -2.124000 11.002000 -12.270000
v -2.124000 15.752000 -12.270000
v -1.624000 12.573000 -12.270000
v -1.624000 15.196000 -12.270000
v -3.193000 12.053000 -12.770000
v -2.516000 12.053000 -12.770000
v -6.648000 12.053000 -12.270000
v -1.836000 12.053000 -12.270000
v -7.031000 12.053000 -11.770000
v -1.573000 12.053000 -11.770000
v -7.140000 12.053000 -11.270000
v -1.489000 12.053000 -11.270000
v -7.050000 12.053000 -10.770000
v -1.542000 12.053000 -10.770000
v -6.753000 12.053000 -10.270000
v -1.692000 12.053000 -10.270000
v -6.553000 12.053000 -9.770000
v -2.000000 12.053000 -9.770000
v -6.256000 12.053000 -9.270000
v -2.430000 12.053000 -9.270000
v -5.582000 12.053000 -8.770000
v -3.071000 12.053000 -8.770000
v -7.124000 12.053000 -11.450000
v -7.124000 12.053000 -11.042000
v -6.624000 12.053000 -12.288000
v -6.624000 12.053000 -9.970000
v -6.124000 12.053000 -12.523000
v -6.124000 12.053000 -9.100000
v -5.624000 12.053000 -12.544000
v -5.624000 12.053000 -8.781000
v -5.124000 12.053000 -12.518000
v -5.124000 12.053000 -8.729000
v -4.624000 12.053000 -12.395000
v -4.624000 12.053000 -8.653000
v -4.124000 12.053000 -12.421000
v -4.124000 12.053000 -8.497000
v -3.624000 12.053000 -12.592000
v -3.624000 12.053000 -8.514000
v -3.124000 12.053000 -12.789000
v -3.124000 12.053000 -8.737000
v -2.624000 12.053000 -12.797000
v -2.624000 12.053000 -9.094000
v -2.124000 12.053000 -12.568000
v -2.124000 12.053000 -9.620000
v -1.624000 12.053000 -11.899000
v -1.624000 12.053000 -10.437000
v -7.124000 12.444000 -11.770000
v -7.124000 12.648000 -11.770000
v -6.624000 11.519000 -11.770000
v -6.624000 13.573000 -11.770000
v -6.124000 11.159000 -11.770000
v -6.124000 13.821000 -11.770000
v -5.624000 9.526000 -11.770000
v -5.624000 14.138000 -11.770000
v -5.124000 8.937000 -11.770000
v -5.124000 14.428000 -11.770000
v -4.624000 8.748000 -11.770000
v -4.624000 14.812000 -11.770000
v -4.124000 8.767000 -11.770000
v -4.124000 15.247000 -11.770000
v -3.624000 8.989000 -11.770000
v -3.624000 15.676000 -11.770000
v -3.124000 9.383000 -11.770000
v -3.124000 15.886000 -11.770000
v -2.624000 9.920000 -11.770000
v -2.624000 15.898000 -11.770000
v -2.124000 10.438000 -11.770000
v -2.124000 15.720000 -11.770000
v -1.624000 11.218000 -11.770000
v -1.624000 15.219000 -11.770000
v -4.044000 12.553000 -12.770000
v -1.971000 12.553000 -12.770000
v -6.785000 12.553000 -12.270000
v -1.632000 12.553000 -12.270000
v -7.128000 12.553000 -11.770000
v -1.522000 12.553000 -11.770000
v -7.229000 12.553000 -11.270000
v -1.455000 12.553000 -11.270000
v -7.146000 12.553000 -10.770000
v -1.539000 12.553000 -10.770000
v -6.878000 12.553000 -10.270000
v -1.840000 12.553000 -10.270000
v -6.698000 12.553000 -9.770000
v -2.320000 12.553000 -9.770000
v -6.591000 12.553000 -9.270000
v -2.602000 12.553000 -9.270000
v -6.250000 12.553000 -8.770000
v -2.963000 12.553000 -8.770000
v -7.124000 12.553000 -11.780000
v -7.124000 12.553000 -10.713000
v -6.624000 12.553000 -12.399000
v -6.624000 12.553000 -9.369000
v -6.124000 12.553000 -12.615000
v -6.124000 12.553000 -8.668000
v -5.624000 12.553000 -12.636000
v -5.624000 12.553000 -8.452000
v -5.124000 12.553000 -12.657000
v -5.124000 12.553000 -8.449000
v -4.624000 12.553000 -12.681000
v -4.624000 12.553000 -8.455000
v -4.124000 12.553000 -12.738000
v -4.124000 12.553000 -8.398000
v -3.624000 12.553000 -12.990000
v -3.624000 12.553000 -8.424000
v -3.124000 12.553000 -13.148000
v -3.124000 12.553000 -8.640000
v -2.624000 12.553000 -13.097000
v -2.624000 12.553000 -9.229000
v -2.124000 12.553000 -12.890000
v -2.124000 12.553000 -9.975000
v -1.624000 12.553000 -12.248000
v -1.624000 12.553000 -10.582000
v -7.124000 12.013000 -11.270000
v -7.124000 13.079000 -11.270000
v -6.624000 11.393000 -11.270000
v -6.624000 13.699000 -11.270000
v -6.124000 10.949000 -11.270000
v -6.124000 13.931000 -11.270000
v -5.624000 9.321000 -11.270000
v -5.624000 14.246000 -11.270000
v -5.124000 8.828000 -11.270000
v -5.124000 14.466000 -11.270000
v -4.624000 8.654000 -11.270000
v -4.624000 14.829000 -11.270000
v -4.124000 8.663000 -11.270000
v -4.124000 15.291000 -11.270000
v -3.624000 8.726000 -11.270000
v -3.624000 15.550000 -11.270000
v -3.124000 8.957000 -11.270000
v -3.124000 15.772000 -11.270000
v -2.624000 9.479000 -11.270000
v -2.624000 15.788000 -11.270000
v -2.124000 9.912000 -11.270000
v -2.124000 15.594000 -11.270000
v -1.624000 10.724000 -11.270000
v -1.624000 14.971000 -11.270000
f 163 207 259
f 259 207 363
f 363 207 317
f 363 317 461
f 461 317 421
f 421 164 461
f 261 165 259
f 259 165 163
f 259 365 261
f 259 363 365
f 363 463 365
f 363 461 463
f 461 164 463
f 463 164 166
f 263 167 261
f 261 167 165
f 261 367 263
f 261 365 367
f 365 465 367
f 365 463 465
f 463 166 465
f 465 166 168
f 265 169 263
f 263 169 167
f 263 369 265
f 263 367 369
f 170 369 422
f 369 465 422
f 369 367 465
f 465 168 422
f 265 208 169
f 208 265 318
f 318 265 369
f 369 170 318
f 664 653 65
f 664 66 653
f 528 505 67
f 171 589 528
f 589 505 528
f 589 587 505
f 655 664 65
f 587 655 65
f 589 655 587
f 21 66 664
f 655 21 664
f 23 21 655
f 23 115 21
f 117 115 23
f 117 172 115
f 115 172 68
f 173 415 69
f 69 415 413
f 507 528 67
f 413 507 67
f 415 507 413
f 171 528 507
f 172 223 249
f 70 172 249
f 68 172 70
f 223 174 249
f 126 95 71
f 175 201 126
f 201 95 126
f 201 199 95
f 201 309 199
f 311 309 201
f 69 309 311
f 69 311 173
f 249 221 70
f 249 174 221
f 174 72 221
f 174 176 72
f 177 7 73
f 73 7 5
f 97 126 71
f 5 97 71
f 7 97 5
f 175 126 97
f 331 72 176
f 331 176 333
f 333 178 331
f 331 178 74
f 179 73 75
f 179 177 73
f 74 180 76
f 178 180 74
f 181 75 77
f 181 179 75
f 435 76 180
f 435 180 437
f 437 182 435
f 435 182 78
f 183 77 79
f 183 181 77
f 78 184 80
f 182 184 78
f 185 79 81
f 185 183 79
f 80 186 82
f 184 186 80
f 81 6 185
f 185 6 8
f 187 8 6
f 187 6 83
f 82 188 84
f 186 188 82
f 189 83 85
f 189 187 83
f 438 190 468
f 468 86 438
f 86 188 438
f 86 84 188
f 85 96 189
f 189 96 98
f 200 247 191
f 98 200 191
f 96 200 98
f 87 247 200
f 590 192 620
f 590 620 686
f 590 686 656
f 656 686 64
f 656 64 24
f 24 64 162
f 24 162 118
f 118 162 268
f 118 268 224
f 224 268 88
f 332 224 88
f 334 224 332
f 190 334 468
f 334 436 468
f 334 332 436
f 86 468 436
f 247 202 191
f 87 310 247
f 310 202 247
f 310 312 202
f 414 312 310
f 414 416 312
f 506 416 414
f 506 508 416
f 192 508 620
f 508 588 620
f 508 506 588
f 654 686 588
f 588 686 620
f 22 64 654
f 654 64 686
f 116 162 22
f 22 162 64
f 222 268 116
f 116 268 162
f 88 268 222
f 269 103 151
f 151 103 257
f 257 103 209
f 257 209 361
f 361 209 319
f 319 270 361
f 153 271 151
f 151 271 269
f 257 207 163
f 153 257 163
f 151 257 153
f 361 317 207
f 361 207 257
f 317 361 270
f 423 317 270
f 421 317 423
f 164 421 549
f 421 515 549
f 421 423 515
f 515 272 549
f 155 273 153
f 153 273 271
f 153 163 165
f 153 165 155
f 551 166 164
f 551 164 549
f 549 272 551
f 551 272 274
f 157 275 155
f 155 275 273
f 155 165 167
f 155 167 157
f 553 168 166
f 553 166 551
f 551 274 553
f 553 274 276
f 159 277 157
f 157 277 275
f 157 167 169
f 157 169 159
f 422 467 170
f 553 516 168
f 168 516 422
f 516 278 422
f 278 467 422
f 553 276 516
f 159 104 277
f 169 208 159
f 208 104 159
f 208 210 104
f 318 371 279
f 210 318 279
f 208 318 210
f 467 424 170
f 170 424 318
f 424 280 318
f 280 371 318
f 467 278 424
f 371 320 279
f 371 280 320
f 600 589 171
f 281 657 600
f 657 589 600
f 657 655 589
f 657 23 655
f 25 23 657
f 25 117 23
f 119 117 25
f 119 282 117
f 117 282 172
f 440 415 173
f 283 509 440
f 509 415 440
f 509 507 415
f 591 600 171
f 507 591 171
f 509 591 507
f 281 600 591
f 223 172 282
f 223 282 225
f 225 284 223
f 223 284 174
f 232 201 175
f 285 313 232
f 313 201 232
f 313 311 201
f 417 440 173
f 311 417 173
f 313 417 311
f 283 440 417
f 174 286 176
f 284 286 174
f 32 7 177
f 287 99 32
f 99 7 32
f 99 97 7
f 203 232 175
f 97 203 175
f 99 203 97
f 285 232 203
f 333 176 286
f 333 286 335
f 335 288 333
f 333 288 178
f 32 177 9
f 177 289 9
f 177 179 289
f 287 32 9
f 178 290 180
f 288 290 178
f 291 179 181
f 291 289 179
f 292 460 437
f 180 292 437
f 290 292 180
f 460 182 437
f 293 181 183
f 293 291 181
f 294 462 460
f 294 460 292
f 182 460 184
f 184 460 462
f 295 183 185
f 295 293 183
f 296 464 462
f 296 462 294
f 184 462 186
f 186 462 464
f 185 8 295
f 295 8 10
f 297 10 8
f 297 8 187
f 298 466 464
f 298 464 296
f 186 464 188
f 188 464 466
f 299 187 189
f 299 297 187
f 658 300 684
f 658 684 62
f 658 62 26
f 26 62 160
f 26 160 120
f 120 160 266
f 120 266 226
f 226 266 370
f 226 370 336
f 466 298 336
f 466 336 370
f 438 466 370
f 190 438 370
f 188 466 438
f 189 98 299
f 299 98 100
f 98 191 248
f 204 98 248
f 100 98 204
f 301 204 248
f 510 302 548
f 510 548 192
f 590 510 192
f 592 510 590
f 300 592 684
f 592 656 684
f 592 590 656
f 24 62 656
f 656 62 684
f 118 160 24
f 24 160 62
f 224 266 118
f 118 266 160
f 334 370 224
f 224 370 266
f 190 370 334
f 202 248 191
f 248 202 301
f 202 314 301
f 202 312 314
f 416 314 312
f 416 418 314
f 302 418 548
f 418 508 548
f 418 416 508
f 192 548 508
f 373 105 149
f 149 105 255
f 255 105 211
f 211 374 255
f 375 11 53
f 373 149 11
f 11 149 53
f 149 103 53
f 103 269 53
f 255 209 103
f 255 103 149
f 209 255 374
f 321 209 374
f 319 209 321
f 270 319 459
f 319 425 459
f 319 321 425
f 425 376 459
f 55 377 53
f 53 377 375
f 53 269 271
f 53 271 55
f 459 423 270
f 423 459 376
f 517 423 376
f 515 423 517
f 517 378 515
f 515 378 272
f 57 379 55
f 55 379 377
f 55 271 273
f 55 273 57
f 272 380 274
f 378 380 272
f 59 381 57
f 57 381 379
f 57 273 275
f 57 275 59
f 274 382 276
f 380 382 274
f 59 12 381
f 383 12 59
f 275 383 59
f 277 383 275
f 516 555 278
f 516 276 555
f 276 384 555
f 276 382 384
f 277 104 383
f 383 104 106
f 210 267 385
f 106 210 385
f 104 210 106
f 279 267 210
f 424 469 280
f 555 518 278
f 278 518 424
f 518 386 424
f 386 469 424
f 555 384 518
f 267 212 385
f 279 320 267
f 320 212 267
f 320 322 212
f 469 426 280
f 426 320 280
f 426 322 320
f 469 386 426
f 666 657 281
f 387 27 666
f 27 657 666
f 27 25 657
f 142 119 388
f 119 27 388
f 119 25 27
f 142 282 119
f 530 509 283
f 389 593 530
f 593 509 530
f 593 591 509
f 659 666 281
f 591 659 281
f 593 659 591
f 387 666 659
f 121 142 388
f 225 282 142
f 121 225 142
f 227 225 121
f 227 390 225
f 225 390 284
f 340 313 285
f 442 417 340
f 340 417 313
f 511 530 283
f 511 283 417
f 391 511 417
f 442 391 417
f 389 530 511
f 284 392 286
f 390 392 284
f 128 99 287
f 393 205 128
f 205 99 128
f 205 203 99
f 315 340 285
f 203 315 285
f 205 315 203
f 340 315 419
f 340 419 442
f 391 442 419
f 335 286 392
f 335 392 337
f 337 394 335
f 335 394 288
f 34 9 289
f 101 128 287
f 101 287 9
f 395 101 9
f 34 395 9
f 393 128 101
f 288 396 290
f 394 396 288
f 291 36 289
f 289 36 34
f 395 34 36
f 395 36 397
f 290 398 292
f 396 398 290
f 293 38 291
f 291 38 36
f 397 36 38
f 397 38 399
f 292 400 294
f 398 400 292
f 295 40 293
f 293 40 38
f 399 38 40
f 399 40 401
f 338 402 366
f 366 296 338
f 296 400 338
f 296 294 400
f 10 40 295
f 102 401 138
f 138 401 297
f 401 40 297
f 40 10 297
f 403 102 138
f 28 404 60
f 28 60 158
f 28 158 122
f 122 158 264
f 122 264 228
f 366 402 228
f 264 366 228
f 368 366 264
f 296 366 298
f 298 366 368
f 299 140 297
f 297 140 138
f 403 138 140
f 403 140 405
f 594 406 618
f 594 618 300
f 658 594 300
f 660 594 658
f 404 660 60
f 660 26 60
f 660 658 26
f 120 158 26
f 26 158 60
f 226 264 120
f 120 264 158
f 336 368 226
f 226 368 264
f 298 368 336
f 100 140 299
f 140 100 405
f 100 206 405
f 100 204 206
f 204 301 356
f 316 204 356
f 206 204 316
f 316 356 458
f 316 458 420
f 420 458 302
f 510 420 302
f 512 420 510
f 406 512 618
f 512 592 618
f 512 510 592
f 300 618 592
f 314 356 301
f 418 458 314
f 314 458 356
f 302 458 418
f 471 13 51
f 51 13 373
f 13 105 373
f 13 107 105
f 107 211 105
f 213 211 107
f 374 211 359
f 211 323 359
f 211 213 323
f 323 472 359
f 11 375 51
f 375 471 51
f 375 473 471
f 51 373 11
f 359 321 374
f 321 359 472
f 427 321 472
f 425 321 427
f 427 474 425
f 425 474 376
f 475 645 677
f 377 677 645
f 473 377 645
f 375 377 473
f 517 376 474
f 517 474 519
f 519 476 517
f 517 476 378
f 477 579 613
f 475 677 579
f 677 613 579
f 677 679 613
f 677 377 379
f 677 379 679
f 378 478 380
f 476 478 378
f 615 479 613
f 613 479 477
f 613 681 615
f 613 679 681
f 679 379 381
f 679 381 681
f 380 480 382
f 478 480 380
f 615 580 479
f 580 615 481
f 615 683 481
f 615 681 683
f 681 381 12
f 61 681 12
f 683 681 61
f 383 61 12
f 382 482 384
f 480 482 382
f 683 646 481
f 646 683 14
f 14 683 61
f 383 106 61
f 106 14 61
f 106 108 14
f 483 108 106
f 483 106 385
f 520 484 386
f 520 386 518
f 518 384 520
f 520 384 482
f 385 212 483
f 483 212 214
f 322 214 212
f 322 324 214
f 426 324 322
f 426 428 324
f 426 386 428
f 428 386 484
f 44 27 387
f 44 388 27
f 602 593 389
f 485 661 602
f 661 593 602
f 661 659 593
f 29 44 387
f 659 29 387
f 661 29 659
f 121 388 44
f 29 121 44
f 123 121 29
f 250 227 486
f 227 123 486
f 227 121 123
f 250 390 227
f 532 511 391
f 511 532 389
f 532 602 389
f 532 604 602
f 485 602 604
f 485 604 487
f 488 252 250
f 488 250 486
f 390 250 392
f 392 250 252
f 234 205 393
f 342 315 234
f 234 315 205
f 444 419 342
f 342 419 315
f 419 444 391
f 444 532 391
f 444 534 532
f 534 489 595
f 604 534 595
f 532 534 604
f 487 604 595
f 229 252 488
f 490 358 337
f 490 337 392
f 229 490 392
f 252 229 392
f 358 394 337
f 130 101 395
f 101 130 393
f 130 234 393
f 130 236 234
f 344 234 236
f 342 234 344
f 446 342 344
f 444 342 446
f 536 444 446
f 534 444 536
f 489 534 536
f 489 536 491
f 492 360 358
f 492 358 490
f 394 358 396
f 396 358 360
f 397 132 395
f 395 132 130
f 238 130 132
f 236 130 238
f 346 236 238
f 344 236 346
f 448 344 346
f 446 344 448
f 448 493 513
f 536 448 513
f 446 448 536
f 491 536 513
f 494 362 360
f 494 360 492
f 396 360 398
f 398 360 362
f 399 134 397
f 397 134 132
f 240 132 134
f 238 132 240
f 348 238 240
f 346 238 348
f 450 346 348
f 448 346 450
f 493 448 450
f 493 450 495
f 496 364 362
f 496 362 494
f 398 362 400
f 400 362 364
f 401 136 399
f 399 136 134
f 242 134 136
f 240 134 242
f 350 240 242
f 348 240 350
f 452 348 350
f 450 348 452
f 542 514 495
f 450 542 495
f 452 542 450
f 497 514 542
f 124 498 156
f 124 156 262
f 124 262 230
f 364 496 230
f 364 230 262
f 338 364 262
f 402 338 262
f 400 364 338
f 102 136 401
f 403 244 102
f 244 136 102
f 244 242 136
f 352 242 244
f 350 242 352
f 454 350 352
f 452 350 454
f 544 452 454
f 542 452 544
f 616 596 497
f 542 616 497
f 544 616 542
f 596 616 682
f 596 682 662
f 662 682 404
f 28 662 404
f 30 662 28
f 498 30 156
f 30 122 156
f 30 28 122
f 228 262 122
f 122 262 156
f 402 262 228
f 405 246 403
f 403 246 244
f 354 244 246
f 352 244 354
f 456 352 354
f 454 352 456
f 546 454 456
f 544 454 546
f 594 616 406
f 616 546 406
f 616 544 546
f 660 682 594
f 594 682 616
f 404 682 660
f 206 246 405
f 316 354 206
f 206 354 246
f 420 456 316
f 316 456 354
f 512 546 420
f 420 546 456
f 406 546 512
f 557 581 599
f 599 581 665
f 665 581 647
f 665 647 43
f 43 647 15
f 15 558 43
f 601 559 599
f 599 559 557
f 599 667 601
f 599 665 667
f 665 45 667
f 665 43 45
f 43 558 45
f 45 558 560
f 561 499 531
f 559 601 499
f 601 531 499
f 601 603 531
f 601 669 603
f 601 667 669
f 667 47 669
f 667 45 47
f 109 145 560
f 145 45 560
f 145 47 45
f 109 562 145
f 563 89 127
f 127 89 233
f 233 89 193
f 233 193 341
f 341 193 303
f 341 303 443
f 443 303 407
f 561 531 407
f 531 443 407
f 531 533 443
f 531 605 533
f 531 603 605
f 603 671 605
f 603 669 671
f 669 49 671
f 669 47 49
f 47 147 49
f 47 145 147
f 215 253 562
f 253 145 562
f 253 147 145
f 215 564 253
f 129 565 127
f 127 565 563
f 127 235 129
f 127 233 235
f 233 343 235
f 233 341 343
f 341 445 343
f 341 443 445
f 443 535 445
f 443 533 535
f 533 607 535
f 533 605 607
f 605 673 607
f 605 671 673
f 49 13 471
f 673 49 471
f 671 49 673
f 147 107 13
f 147 13 49
f 253 213 107
f 253 107 147
f 213 253 564
f 325 213 564
f 323 213 325
f 325 566 323
f 323 566 472
f 131 567 129
f 129 567 565
f 129 237 131
f 129 235 237
f 235 345 237
f 235 343 345
f 343 447 345
f 343 445 447
f 445 537 447
f 445 535 537
f 535 609 537
f 535 607 609
f 607 675 609
f 607 673 675
f 673 471 473
f 673 473 675
f 427 472 566
f 427 566 429
f 429 568 427
f 427 568 474
f 133 569 131
f 131 569 567
f 131 239 133
f 131 237 239
f 237 347 239
f 237 345 347
f 345 449 347
f 345 447 449
f 447 539 449
f 447 537 539
f 537 611 539
f 537 609 611
f 675 645 475
f 611 675 475
f 609 675 611
f 675 473 645
f 519 474 568
f 519 568 521
f 521 570 519
f 519 570 476
f 133 90 569
f 90 133 194
f 194 133 239
f 194 239 571
f 239 349 571
f 239 347 349
f 347 451 349
f 347 449 451
f 449 541 451
f 449 539 541
f 611 579 477
f 541 611 477
f 539 611 541
f 611 475 579
f 476 572 478
f 570 572 476
f 349 304 571
f 304 349 573
f 349 453 573
f 349 451 453
f 451 543 453
f 451 541 543
f 541 477 479
f 541 479 543
f 478 574 480
f 572 574 478
f 455 575 453
f 453 575 573
f 453 545 455
f 453 543 545
f 543 479 580
f 617 543 580
f 545 543 617
f 481 617 580
f 480 576 482
f 574 576 480
f 455 408 575
f 408 455 500
f 500 455 545
f 500 545 582
f 582 545 617
f 481 646 617
f 646 582 617
f 646 648 582
f 14 63 577
f 648 14 577
f 646 14 648
f 108 161 63
f 108 63 14
f 483 161 108
f 522 578 484
f 522 484 520
f 520 482 522
f 522 482 576
f 63 16 577
f 16 63 110
f 110 63 161
f 483 214 161
f 214 110 161
f 214 216 110
f 324 216 214
f 324 326 216
f 428 326 324
f 428 430 326
f 428 484 430
f 430 484 578
f 668 661 485
f 46 29 668
f 668 29 661
f 144 123 46
f 46 123 29
f 144 486 123
f 487 670 485
f 485 670 668
f 48 668 670
f 46 668 48
f 146 46 48
f 144 46 146
f 486 144 488
f 488 144 146
f 606 595 489
f 595 606 487
f 606 670 487
f 606 672 670
f 50 670 672
f 48 670 50
f 148 48 50
f 146 48 148
f 488 146 229
f 146 254 229
f 146 148 254
f 254 490 229
f 491 608 489
f 489 608 606
f 674 606 608
f 672 606 674
f 52 672 674
f 50 672 52
f 150 50 52
f 148 50 150
f 256 148 150
f 254 148 256
f 490 254 492
f 492 254 256
f 538 513 493
f 513 538 491
f 538 608 491
f 538 610 608
f 676 608 610
f 674 608 676
f 54 674 676
f 52 674 54
f 152 52 54
f 150 52 152
f 258 150 152
f 256 150 258
f 492 256 494
f 494 256 258
f 495 540 493
f 493 540 538
f 612 538 540
f 610 538 612
f 678 610 612
f 676 610 678
f 56 676 678
f 54 676 56
f 154 54 56
f 152 54 154
f 260 152 154
f 258 152 260
f 494 258 496
f 496 258 260
f 514 540 495
f 497 614 514
f 614 540 514
f 614 612 540
f 680 612 614
f 678 612 680
f 58 678 680
f 56 678 58
f 124 154 498
f 154 58 498
f 154 56 58
f 230 260 124
f 124 260 154
f 496 260 230
f 596 614 497
f 662 680 596
f 596 680 614
f 30 58 662
f 662 58 680
f 498 58 30
f 621 649 663
f 649 622 663
f 623 501 527
f 527 501 557
f 501 581 557
f 501 583 581
f 583 621 663
f 647 583 663
f 581 583 647
f 647 663 622
f 17 647 622
f 15 647 17
f 558 15 141
f 15 111 141
f 15 17 111
f 111 624 141
f 529 625 527
f 527 625 623
f 527 557 559
f 527 559 529
f 143 560 558
f 143 558 141
f 141 624 143
f 143 624 626
f 627 91 125
f 125 91 231
f 231 91 195
f 231 195 339
f 339 195 305
f 339 305 441
f 441 305 409
f 625 529 409
f 409 529 441
f 529 499 441
f 499 561 441
f 529 559 499
f 143 109 560
f 626 217 251
f 626 251 562
f 143 626 562
f 109 143 562
f 217 628 251
f 629 1 31
f 627 125 1
f 1 125 31
f 125 89 31
f 89 563 31
f 231 193 89
f 231 89 125
f 339 303 193
f 339 193 231
f 441 407 303
f 441 303 339
f 441 561 407
f 251 215 562
f 251 628 215
f 628 564 215
f 628 630 564
f 33 631 31
f 31 631 629
f 31 563 565
f 31 565 33
f 325 564 630
f 325 630 327
f 327 632 325
f 325 632 566
f 35 633 33
f 33 633 631
f 33 565 567
f 33 567 35
f 429 566 632
f 429 632 431
f 431 634 429
f 429 634 568
f 37 635 35
f 35 635 633
f 35 567 569
f 35 569 37
f 521 568 634
f 521 634 523
f 523 636 521
f 521 636 570
f 37 2 635
f 135 637 90
f 90 637 569
f 637 2 569
f 2 37 569
f 194 241 135
f 194 135 90
f 571 241 194
f 570 638 572
f 636 638 570
f 135 92 637
f 92 135 639
f 135 243 639
f 135 241 243
f 241 571 304
f 351 241 304
f 243 241 351
f 573 351 304
f 572 640 574
f 638 640 572
f 243 196 639
f 196 243 641
f 243 353 641
f 243 351 353
f 351 573 575
f 351 575 353
f 574 642 576
f 640 642 574
f 353 306 641
f 575 408 353
f 408 306 353
f 408 410 306
f 500 547 643
f 410 500 643
f 408 500 410
f 582 619 547
f 582 547 500
f 648 685 619
f 648 619 582
f 577 685 648
f 524 644 578
f 524 578 522
f 522 576 524
f 524 576 642
f 547 502 643
f 502 547 584
f 584 547 619
f 584 619 650
f 650 619 685
f 577 16 685
f 16 650 685
f 16 18 650
f 110 18 16
f 110 112 18
f 216 112 110
f 216 218 112
f 326 218 216
f 326 328 218
f 430 328 326
f 430 432 328
f 430 578 432
f 432 578 644
f 687 585 597
f 597 585 621
f 585 649 621
f 585 651 649
f 622 649 41
f 649 19 41
f 649 651 19
f 19 688 41
f 689 503 623
f 623 503 501
f 503 687 597
f 583 503 597
f 501 503 583
f 597 621 583
f 41 17 622
f 17 41 688
f 113 17 688
f 111 17 113
f 113 690 111
f 111 690 624
f 691 411 439
f 625 439 411
f 689 625 411
f 623 625 689
f 624 692 626
f 690 692 624
f 693 93 627
f 627 93 91
f 93 195 91
f 197 195 93
f 197 305 195
f 307 305 197
f 307 691 439
f 409 307 439
f 305 307 409
f 439 625 409
f 217 626 692
f 217 692 219
f 219 694 217
f 217 694 628
f 695 3 629
f 629 3 1
f 627 1 3
f 627 3 693
f 628 696 630
f 694 696 628
f 697 629 631
f 697 695 629
f 327 630 696
f 327 696 329
f 329 698 327
f 327 698 632
f 699 631 633
f 699 697 631
f 431 632 698
f 431 698 433
f 433 700 431
f 431 700 634
f 701 633 635
f 701 699 633
f 702 550 523
f 634 702 523
f 700 702 634
f 550 636 523
f 39 703 2
f 703 635 2
f 703 701 635
f 637 39 2
f 525 550 702
f 525 704 550
f 704 636 550
f 704 638 636
f 39 4 703
f 137 705 92
f 92 705 637
f 705 4 637
f 4 39 637
f 639 137 92
f 638 706 640
f 704 706 638
f 137 94 705
f 245 707 196
f 196 707 639
f 707 94 639
f 94 137 639
f 641 245 196
f 640 708 642
f 706 708 640
f 245 198 707
f 641 306 245
f 306 198 245
f 306 308 198
f 410 457 709
f 308 410 709
f 306 410 308
f 643 457 410
f 434 710 470
f 434 470 644
f 524 434 644
f 526 434 524
f 524 642 526
f 526 642 708
f 457 412 709
f 643 502 457
f 502 412 457
f 502 504 412
f 584 504 502
f 584 586 504
f 650 586 584
f 650 652 586
f 18 652 650
f 18 20 652
f 112 20 18
f 112 114 20
f 218 114 112
f 218 220 114
f 328 220 218
f 328 330 220
f 710 330 470
f 330 432 470
f 330 328 432
f 644 470 432
f 598 585 687
f 65 653 598
f 653 585 598
f 653 651 585
f 42 19 66
f 19 653 66
f 19 651 653
f 42 688 19
f 67 505 689
f 689 505 503
f 587 598 687
f 503 587 687
f 505 587 503
f 65 598 587
f 21 42 66
f 113 688 42
f 21 113 42
f 115 113 21
f 115 68 113
f 113 68 690
f 69 413 691
f 691 413 411
f 689 411 413
f 689 413 67
f 690 70 692
f 68 70 690
f 71 95 693
f 693 95 93
f 95 197 93
f 199 197 95
f 199 307 197
f 309 307 199
f 691 307 309
f 691 309 69
f 219 692 70
f 219 70 221
f 221 72 219
f 219 72 694
f 73 5 695
f 695 5 3
f 693 3 5
f 693 5 71
f 72 331 357
f 696 72 357
f 694 72 696
f 331 74 357
f 75 695 697
f 75 73 695
f 357 329 696
f 357 74 329
f 74 698 329
f 74 76 698
f 77 697 699
f 77 75 697
f 433 698 76
f 433 76 435
f 435 78 433
f 433 78 700
f 79 699 701
f 79 77 699
f 700 80 702
f 78 80 700
f 81 701 703
f 81 79 701
f 82 552 525
f 702 82 525
f 80 82 702
f 552 704 525
f 703 4 81
f 81 4 6
f 83 6 4
f 83 4 705
f 84 554 552
f 84 552 82
f 704 552 706
f 706 552 554
f 139 85 94
f 85 705 94
f 85 83 705
f 707 139 94
f 86 556 554
f 86 554 84
f 706 554 708
f 708 554 556
f 139 96 85
f 707 198 139
f 198 96 139
f 198 200 96
f 308 355 87
f 200 308 87
f 198 308 200
f 709 355 308
f 332 88 372
f 332 372 710
f 434 332 710
f 436 332 434
f 86 436 556
f 436 526 556
f 436 434 526
f 708 556 526
f 355 310 87
f 709 412 355
f 412 310 355
f 412 414 310
f 504 414 412
f 504 506 414
f 586 506 504
f 586 588 506
f 652 588 586
f 652 654 588
f 20 654 652
f 20 22 654
f 114 22 20
f 114 116 22
f 220 116 114
f 220 222 116
f 88 222 372
f 222 330 372
f 222 220 330
f 710 372 330
