# Converted from NanoShaper .vert/.face
v 7.324000 11.053000 3.980000
v 8.771000 11.053000 3.980000
v 6.564000 11.053000 4.480000
v 10.302000 11.053000 4.480000
v 6.062000 11.053000 4.980000
v 10.596000 11.053000 4.980000
v 5.870000 11.053000 5.480000
v 10.595000 11.053000 5.480000
v 5.888000 11.053000 5.980000
v 10.320000 11.053000 5.980000
v 5.964000 11.053000 6.480000
v 10.127000 11.053000 6.480000
v 5.885000 11.053000 6.980000
v 9.809000 11.053000 6.980000
v 5.671000 11.053000 7.480000
v 9.090000 11.053000 7.480000
v 5.694000 11.053000 7.980000
v 8.627000 11.053000 7.980000
v 6.058000 11.053000 8.480000
v 8.357000 11.053000 8.480000
v 6.604000 11.053000 8.980000
v 7.696000 11.053000 8.980000
v 6.126000 11.053000 4.890000
v 6.126000 11.053000 8.526000
v 6.626000 11.053000 4.412000
v 6.626000 11.053000 8.995000
v 7.126000 11.053000 4.045000
v 7.126000 11.053000 9.148000
v 7.626000 11.053000 3.944000
v 7.626000 11.053000 9.018000
v 8.126000 11.053000 3.911000
v 8.126000 11.053000 8.698000
v 8.626000 11.053000 3.958000
v 8.626000 11.053000 7.982000
v 9.126000 11.053000 4.044000
v 9.126000 11.053000 7.452000
v 9.626000 11.053000 4.163000
v 9.626000 11.053000 7.106000
v 10.126000 11.053000 4.348000
v 10.126000 11.053000 6.483000
v 5.626000 11.097000 7.480000
v 5.626000 13.018000 7.480000
v 6.126000 10.765000 7.480000
v 6.126000 13.350000 7.480000
v 6.626000 10.638000 7.480000
v 6.626000 13.448000 7.480000
v 7.126000 10.547000 7.480000
v 7.126000 13.487000 7.480000
v 7.626000 10.378000 7.480000
v 7.626000 13.383000 7.480000
v 8.126000 9.903000 7.480000
v 8.126000 13.059000 7.480000
v 8.626000 7.557000 7.480000
v 8.626000 12.081000 7.480000
v 9.126000 7.239000 7.480000
v 9.126000 11.021000 7.480000
v 9.626000 7.156000 7.480000
v 9.626000 10.776000 7.480000
v 10.126000 7.161000 7.480000
v 10.126000 10.634000 7.480000
v 10.626000 7.248000 7.480000
v 10.626000 10.390000 7.480000
v 11.126000 7.360000 7.480000
v 11.126000 10.035000 7.480000
v 11.626000 7.462000 7.480000
v 11.626000 9.691000 7.480000
v 12.126000 7.854000 7.480000
v 12.126000 9.272000 7.480000
v 10.574000 7.553000 5.980000
v 11.760000 7.553000 5.980000
v 8.903000 7.553000 6.480000
v 12.099000 7.553000 6.480000
v 8.618000 7.553000 6.980000
v 12.108000 7.553000 6.980000
v 8.630000 7.553000 7.480000
v 11.801000 7.553000 7.480000
v 8.956000 7.553000 7.980000
v 10.797000 7.553000 7.980000
v 7.047000 11.553000 3.980000
v 8.844000 11.553000 3.980000
v 6.412000 11.553000 4.480000
v 9.545000 11.553000 4.480000
v 5.932000 11.553000 4.980000
v 9.867000 11.553000 4.980000
v 5.758000 11.553000 5.480000
v 9.866000 11.553000 5.480000
v 5.763000 11.553000 5.980000
v 9.695000 11.553000 5.980000
v 5.726000 11.553000 6.480000
v 9.522000 11.553000 6.480000
v 5.524000 11.553000 6.980000
v 9.222000 11.553000 6.980000
v 5.334000 11.553000 7.480000
v 8.811000 11.553000 7.480000
v 5.351000 11.553000 7.980000
v 8.596000 11.553000 7.980000
v 5.587000 11.553000 8.480000
v 8.487000 11.553000 8.480000
v 6.109000 11.553000 8.980000
v 8.183000 11.553000 8.980000
v 6.953000 11.553000 9.480000
v 7.336000 11.553000 9.480000
v 8.626000 7.553000 6.948000
v 8.626000 7.553000 7.466000
v 9.126000 7.553000 6.320000
v 9.126000 7.553000 8.094000
v 9.626000 7.553000 6.203000
v 9.626000 7.553000 8.210000
v 10.126000 7.553000 6.195000
v 10.126000 7.553000 8.227000
v 10.626000 7.553000 5.943000
v 10.626000 7.553000 8.101000
v 11.126000 7.553000 5.779000
v 11.126000 7.553000 7.768000
v 11.626000 7.553000 5.893000
v 11.626000 7.553000 7.601000
v 5.626000 11.553000 6.782000
v 5.626000 11.553000 8.528000
v 6.126000 11.553000 4.721000
v 6.126000 11.553000 9.000000
v 6.626000 11.553000 4.275000
v 6.626000 11.553000 9.386000
v 7.126000 11.553000 3.947000
v 7.126000 11.553000 9.494000
v 7.626000 11.553000 3.853000
v 7.626000 11.553000 9.402000
v 8.126000 11.553000 3.799000
v 8.126000 11.553000 9.046000
v 8.626000 11.553000 3.881000
v 8.626000 11.553000 7.862000
v 9.126000 11.553000 4.146000
v 9.126000 11.553000 7.092000
v 9.626000 11.553000 4.567000
v 9.626000 11.553000 6.232000
v 7.126000 11.257000 3.980000
v 7.126000 12.444000 3.980000
v 7.626000 10.966000 3.980000
v 7.626000 12.640000 3.980000
v 8.126000 10.912000 3.980000
v 8.126000 12.374000 3.980000
v 8.626000 10.944000 3.980000
v 8.626000 12.106000 3.980000
v 9.126000 9.679000 3.980000
v 9.126000 10.675000 3.980000
v 9.626000 9.464000 3.980000
v 9.626000 10.732000 3.980000
v 10.126000 9.739000 3.980000
v 10.126000 10.457000 3.980000
v 5.626000 11.121000 7.980000
v 5.626000 12.994000 7.980000
v 6.126000 10.782000 7.980000
v 6.126000 13.332000 7.980000
v 6.626000 10.689000 7.980000
v 6.626000 13.431000 7.980000
v 7.126000 10.666000 7.980000
v 7.126000 13.478000 7.980000
v 7.626000 10.579000 7.980000
v 7.626000 13.386000 7.980000
v 8.126000 10.469000 7.980000
v 8.126000 13.060000 7.980000
v 8.626000 7.880000 7.980000
v 8.626000 11.079000 7.980000
v 9.126000 7.460000 7.980000
v 9.126000 10.535000 7.980000
v 9.626000 7.362000 7.980000
v 9.626000 10.502000 7.980000
v 10.126000 7.355000 7.980000
v 10.126000 10.473000 7.980000
v 10.626000 7.459000 7.980000
v 10.626000 10.363000 7.980000
v 11.126000 7.768000 7.980000
v 11.126000 10.004000 7.980000
v 11.626000 8.085000 7.980000
v 11.626000 9.242000 7.980000
v 10.583000 8.053000 5.480000
v 11.474000 8.053000 5.480000
v 8.771000 8.053000 5.980000
v 12.221000 8.053000 5.980000
v 8.476000 8.053000 6.480000
v 12.443000 8.053000 6.480000
v 8.299000 8.053000 6.980000
v 12.450000 8.053000 6.980000
v 8.308000 8.053000 7.480000
v 12.245000 8.053000 7.480000
v 8.530000 8.053000 7.980000
v 11.590000 8.053000 7.980000
v 9.243000 8.053000 8.480000
v 10.725000 8.053000 8.480000
v 6.955000 12.053000 3.980000
v 8.677000 12.053000 3.980000
v 6.379000 12.053000 4.480000
v 9.269000 12.053000 4.480000
v 5.906000 12.053000 4.980000
v 9.472000 12.053000 4.980000
v 5.720000 12.053000 5.480000
v 9.464000 12.053000 5.480000
v 5.716000 12.053000 5.980000
v 9.418000 12.053000 5.980000
v 5.655000 12.053000 6.480000
v 9.201000 12.053000 6.480000
v 5.415000 12.053000 6.980000
v 8.879000 12.053000 6.980000
v 5.239000 12.053000 7.480000
v 8.639000 12.053000 7.480000
v 5.255000 12.053000 7.980000
v 8.559000 12.053000 7.980000
v 5.471000 12.053000 8.480000
v 8.515000 12.053000 8.480000
v 5.972000 12.053000 8.980000
v 8.305000 12.053000 8.980000
v 6.584000 12.053000 9.480000
v 7.705000 12.053000 9.480000
v 8.626000 8.053000 6.190000
v 8.626000 8.053000 8.097000
v 9.126000 8.053000 5.708000
v 9.126000 8.053000 8.437000
v 9.626000 8.053000 5.612000
v 9.626000 8.053000 8.611000
v 10.126000 8.053000 5.565000
v 10.126000 8.053000 8.708000
v 10.626000 8.053000 5.472000
v 10.626000 8.053000 8.546000
v 11.126000 8.053000 5.442000
v 11.126000 8.053000 8.174000
v 11.626000 8.053000 5.527000
v 11.626000 8.053000 7.967000
v 12.126000 8.053000 5.864000
v 12.126000 8.053000 7.630000
v 5.626000 12.053000 6.570000
v 5.626000 12.053000 8.668000
v 6.126000 12.053000 4.705000
v 6.126000 12.053000 9.157000
v 6.626000 12.053000 4.210000
v 6.626000 12.053000 9.497000
v 7.126000 12.053000 3.908000
v 7.126000 12.053000 9.597000
v 7.626000 12.053000 3.832000
v 7.626000 12.053000 9.512000
v 8.126000 12.053000 3.870000
v 8.126000 12.053000 9.195000
v 8.626000 12.053000 3.960000
v 8.626000 12.053000 7.533000
v 9.126000 12.053000 4.296000
v 9.126000 12.053000 6.592000
v 6.626000 10.950000 4.480000
v 6.626000 12.704000 4.480000
v 7.126000 10.495000 4.480000
v 7.126000 13.101000 4.480000
v 7.626000 10.347000 4.480000
v 7.626000 13.192000 4.480000
v 8.126000 10.134000 4.480000
v 8.126000 13.061000 4.480000
v 8.626000 9.223000 4.480000
v 8.626000 12.711000 4.480000
v 9.126000 8.901000 4.480000
v 9.126000 12.310000 4.480000
v 9.626000 8.857000 4.480000
v 9.626000 11.467000 4.480000
v 10.126000 8.962000 4.480000
v 10.126000 11.159000 4.480000
v 10.626000 9.350000 4.480000
v 10.626000 10.693000 4.480000
v 5.626000 11.480000 8.480000
v 5.626000 12.635000 8.480000
v 6.126000 11.017000 8.480000
v 6.126000 13.102000 8.480000
v 6.626000 10.809000 8.480000
v 6.626000 13.350000 8.480000
v 7.126000 10.709000 8.480000
v 7.126000 13.451000 8.480000
v 7.626000 10.718000 8.480000
v 7.626000 13.364000 8.480000
v 8.126000 10.838000 8.480000
v 8.126000 13.038000 8.480000
v 9.126000 8.166000 8.480000
v 9.126000 10.065000 8.480000
v 9.626000 7.894000 8.480000
v 9.626000 10.261000 8.480000
v 10.126000 7.847000 8.480000
v 10.126000 10.291000 8.480000
v 10.626000 7.990000 8.480000
v 10.626000 10.166000 8.480000
v 11.126000 8.459000 8.480000
v 11.126000 9.701000 8.480000
v 8.525000 8.553000 4.980000
v 10.648000 8.553000 4.980000
v 8.212000 8.553000 5.480000
v 11.763000 8.553000 5.480000
v 8.201000 8.553000 5.980000
v 12.338000 8.553000 5.980000
v 8.223000 8.553000 6.480000
v 12.541000 8.553000 6.480000
v 8.207000 8.553000 6.980000
v 12.547000 8.553000 6.980000
v 8.223000 8.553000 7.480000
v 12.360000 8.553000 7.480000
v 8.429000 8.553000 7.980000
v 11.830000 8.553000 7.980000
v 8.942000 8.553000 8.480000
v 11.178000 8.553000 8.480000
v 9.643000 8.553000 8.980000
v 10.536000 8.553000 8.980000
v 7.262000 12.553000 3.980000
v 7.905000 12.553000 3.980000
v 6.529000 12.553000 4.480000
v 8.889000 12.553000 4.480000
v 6.034000 12.553000 4.980000
v 9.159000 12.553000 4.980000
v 5.829000 12.553000 5.480000
v 9.150000 12.553000 5.480000
v 5.827000 12.553000 5.980000
v 9.107000 12.553000 5.980000
v 5.773000 12.553000 6.480000
v 8.915000 12.553000 6.480000
v 5.521000 12.553000 6.980000
v 8.681000 12.553000 6.980000
v 5.331000 12.553000 7.480000
v 8.472000 12.553000 7.480000
v 5.348000 12.553000 7.980000
v 8.446000 12.553000 7.980000
v 5.583000 12.553000 8.480000
v 8.432000 12.553000 8.480000
v 6.084000 12.553000 8.980000
v 8.205000 12.553000 8.980000
v 6.842000 12.553000 9.480000
v 7.447000 12.553000 9.480000
v 8.626000 8.553000 4.904000
v 8.626000 8.553000 8.216000
v 9.126000 8.553000 4.741000
v 9.126000 8.553000 8.639000
v 9.626000 8.553000 4.712000
v 9.626000 8.553000 8.973000
v 10.126000 8.553000 4.800000
v 10.126000 8.553000 9.059000
v 10.626000 8.553000 4.968000
v 10.626000 8.553000 8.943000
v 11.126000 8.553000 5.213000
v 11.126000 8.553000 8.541000
v 11.626000 8.553000 5.423000
v 11.626000 8.553000 8.098000
v 12.126000 8.553000 5.727000
v 12.126000 8.553000 7.767000
v 5.626000 12.553000 6.816000
v 5.626000 12.553000 8.534000
v 6.126000 12.553000 4.860000
v 6.126000 12.553000 9.034000
v 6.626000 12.553000 4.365000
v 6.626000 12.553000 9.409000
v 7.126000 12.553000 4.023000
v 7.126000 12.553000 9.515000
v 7.626000 12.553000 3.940000
v 7.626000 12.553000 9.424000
v 8.126000 12.553000 4.059000
v 8.126000 12.553000 9.077000
v 8.626000 12.553000 4.286000
v 8.626000 12.553000 7.072000
v 9.126000 12.553000 4.863000
v 9.126000 12.553000 5.899000
v 6.126000 10.942000 4.980000
v 6.126000 12.706000 4.980000
v 6.626000 10.455000 4.980000
v 6.626000 13.112000 4.980000
v 7.126000 9.990000 4.980000
v 7.126000 13.311000 4.980000
v 7.626000 9.733000 4.980000
v 7.626000 13.388000 4.980000
v 8.126000 8.992000 4.980000
v 8.126000 13.277000 4.980000
v 8.626000 8.494000 4.980000
v 8.626000 12.937000 4.980000
v 9.126000 8.361000 4.980000
v 9.126000 12.586000 4.980000
v 9.626000 8.329000 4.980000
v 9.626000 11.805000 4.980000
v 10.126000 8.407000 4.980000
v 10.126000 11.379000 4.980000
v 10.626000 8.542000 4.980000
v 10.626000 11.021000 4.980000
v 11.126000 9.058000 4.980000
v 11.126000 10.062000 4.980000
v 6.126000 11.522000 8.980000
v 6.126000 12.637000 8.980000
v 6.626000 11.042000 8.980000
v 6.626000 13.119000 8.980000
v 7.126000 10.920000 8.980000
v 7.126000 13.241000 8.980000
v 7.626000 11.021000 8.980000
v 7.626000 13.137000 8.980000
v 8.126000 11.444000 8.980000
v 8.126000 12.700000 8.980000
v 9.626000 8.568000 8.980000
v 9.626000 9.608000 8.980000
v 10.126000 8.392000 8.980000
v 10.126000 9.783000 8.980000
v 10.626000 8.643000 8.980000
v 10.626000 9.532000 8.980000
v 8.777000 9.053000 4.480000
v 10.341000 9.053000 4.480000
v 8.096000 9.053000 4.980000
v 11.124000 9.053000 4.980000
v 7.876000 9.053000 5.480000
v 11.665000 9.053000 5.480000
v 7.874000 9.053000 5.980000
v 12.231000 9.053000 5.980000
v 8.049000 9.053000 6.480000
v 12.451000 9.053000 6.480000
v 8.153000 9.053000 6.980000
v 12.458000 9.053000 6.980000
v 8.269000 9.053000 7.480000
v 12.255000 9.053000 7.480000
v 8.475000 9.053000 7.980000
v 11.714000 9.053000 7.980000
v 8.884000 9.053000 8.480000
v 11.293000 9.053000 8.480000
v 9.394000 9.053000 8.980000
v 10.785000 9.053000 8.980000
v 7.025000 13.053000 4.480000
v 8.142000 13.053000 4.480000
v 6.508000 13.053000 4.980000
v 8.485000 13.053000 4.980000
v 6.190000 13.053000 5.480000
v 8.637000 13.053000 5.480000
v 6.191000 13.053000 5.980000
v 8.648000 13.053000 5.980000
v 6.129000 13.053000 6.480000
v 8.568000 13.053000 6.480000
v 5.925000 13.053000 6.980000
v 8.287000 13.053000 6.980000
v 5.661000 13.053000 7.480000
v 8.133000 13.053000 7.480000
v 5.685000 13.053000 7.980000
v 8.133000 13.053000 7.980000
v 6.042000 13.053000 8.480000
v 8.111000 13.053000 8.480000
v 6.511000 13.053000 8.980000
v 7.778000 13.053000 8.980000
v 8.126000 9.053000 4.939000
v 8.126000 9.053000 6.782000
v 8.626000 9.053000 4.538000
v 8.626000 9.053000 8.179000
v 9.126000 9.053000 4.375000
v 9.126000 9.053000 8.781000
v 9.626000 9.053000 4.296000
v 9.626000 9.053000 9.086000
v 10.126000 9.053000 4.409000
v 10.126000 9.053000 9.165000
v 10.626000 9.053000 4.586000
v 10.626000 9.053000 9.058000
v 11.126000 9.053000 4.983000
v 11.126000 9.053000 8.706000
v 11.626000 9.053000 5.448000
v 11.626000 9.053000 8.061000
v 12.126000 9.053000 5.852000
v 12.126000 9.053000 7.642000
v 6.126000 13.053000 6.492000
v 6.126000 13.053000 8.549000
v 6.626000 13.053000 4.891000
v 6.626000 13.053000 9.061000
v 7.126000 13.053000 4.415000
v 7.126000 13.053000 9.204000
v 7.626000 13.053000 4.296000
v 7.626000 13.053000 9.082000
v 8.126000 13.053000 4.468000
v 8.126000 13.053000 8.423000
v 8.626000 13.053000 5.444000
v 8.626000 13.053000 6.074000
v 6.126000 10.659000 5.480000
v 6.126000 12.994000 5.480000
v 6.626000 10.129000 5.480000
v 6.626000 13.312000 5.480000
v 7.126000 9.754000 5.480000
v 7.126000 13.396000 5.480000
v 7.626000 9.404000 5.480000
v 7.626000 13.446000 5.480000
v 8.126000 8.645000 5.480000
v 8.126000 13.370000 5.480000
v 8.626000 8.277000 5.480000
v 8.626000 13.064000 5.480000
v 9.126000 8.152000 5.480000
v 9.126000 12.578000 5.480000
v 9.626000 8.113000 5.480000
v 9.626000 11.798000 5.480000
v 10.126000 8.102000 5.480000
v 10.126000 11.379000 5.480000
v 10.626000 8.045000 5.480000
v 10.626000 11.020000 5.480000
v 11.126000 7.969000 5.480000
v 11.126000 10.452000 5.480000
v 11.626000 8.184000 5.480000
v 11.626000 9.197000 5.480000
v 6.626000 11.866000 9.480000
v 6.626000 12.295000 9.480000
v 7.126000 11.520000 9.480000
v 7.126000 12.641000 9.480000
v 7.626000 11.792000 9.480000
v 7.626000 12.368000 9.480000
v 9.278000 9.553000 3.980000
v 9.928000 9.553000 3.980000
v 8.489000 9.553000 4.480000
v 10.711000 9.553000 4.480000
v 7.819000 9.553000 4.980000
v 11.236000 9.553000 4.980000
v 7.461000 9.553000 5.480000
v 11.521000 9.553000 5.480000
v 7.444000 9.553000 5.980000
v 11.836000 9.553000 5.980000
v 7.738000 9.553000 6.480000
v 12.120000 9.553000 6.480000
v 7.971000 9.553000 6.980000
v 12.129000 9.553000 6.980000
v 8.225000 9.553000 7.480000
v 11.833000 9.553000 7.480000
v 8.474000 9.553000 7.980000
v 11.447000 9.553000 7.980000
v 8.922000 9.553000 8.480000
v 11.200000 9.553000 8.480000
v 9.571000 9.553000 8.980000
v 10.608000 9.553000 8.980000
v 7.626000 9.553000 5.190000
v 7.626000 9.553000 6.314000
v 8.126000 9.553000 4.734000
v 8.126000 9.553000 7.298000
v 8.626000 9.553000 4.365000
v 8.626000 9.553000 8.142000
v 9.126000 9.553000 4.030000
v 9.126000 9.553000 8.690000
v 9.626000 9.553000 3.939000
v 9.626000 9.553000 9.002000
v 10.126000 9.553000 4.049000
v 10.126000 9.553000 9.086000
v 10.626000 9.553000 4.409000
v 10.626000 9.553000 8.972000
v 11.126000 9.553000 4.838000
v 11.126000 9.553000 8.584000
v 11.626000 9.553000 5.656000
v 11.626000 9.553000 7.702000
v 12.126000 9.553000 6.501000
v 12.126000 9.553000 6.993000
v 6.126000 10.685000 5.980000
v 6.126000 12.992000 5.980000
v 6.626000 10.109000 5.980000
v 6.626000 13.321000 5.980000
v 7.126000 9.740000 5.980000
v 7.126000 13.421000 5.980000
v 7.626000 9.393000 5.980000
v 7.626000 13.461000 5.980000
v 8.126000 8.643000 5.980000
v 8.126000 13.380000 5.980000
v 8.626000 8.153000 5.980000
v 8.626000 13.074000 5.980000
v 9.126000 7.879000 5.980000
v 9.126000 12.533000 5.980000
v 9.626000 7.794000 5.980000
v 9.626000 11.645000 5.980000
v 10.126000 7.762000 5.980000
v 10.126000 11.194000 5.980000
v 10.626000 7.524000 5.980000
v 10.626000 10.853000 5.980000
v 11.126000 7.393000 5.980000
v 11.126000 10.472000 5.980000
v 11.626000 7.486000 5.980000
v 11.626000 9.791000 5.980000
v 12.126000 7.891000 5.980000
v 12.126000 9.236000 5.980000
v 8.970000 10.053000 3.980000
v 10.236000 10.053000 3.980000
v 8.216000 10.053000 4.480000
v 10.785000 10.053000 4.480000
v 7.022000 10.053000 4.980000
v 11.130000 10.053000 4.980000
v 6.695000 10.053000 5.480000
v 11.360000 10.053000 5.480000
v 6.677000 10.053000 5.980000
v 11.424000 10.053000 5.980000
v 6.946000 10.053000 6.480000
v 11.386000 10.053000 6.480000
v 7.507000 10.053000 6.980000
v 11.161000 10.053000 6.980000
v 8.042000 10.053000 7.480000
v 11.101000 10.053000 7.480000
v 8.457000 10.053000 7.980000
v 11.081000 10.053000 7.980000
v 9.114000 10.053000 8.480000
v 10.809000 10.053000 8.480000
v 7.126000 10.053000 4.904000
v 7.126000 10.053000 6.626000
v 7.626000 10.053000 4.716000
v 7.626000 10.053000 7.090000
v 8.126000 10.053000 4.533000
v 8.126000 10.053000 7.570000
v 8.626000 10.053000 4.191000
v 8.626000 10.053000 8.087000
v 9.126000 10.053000 3.912000
v 9.126000 10.053000 8.487000
v 9.626000 10.053000 3.829000
v 9.626000 10.053000 8.691000
v 10.126000 10.053000 3.930000
v 10.126000 10.053000 8.779000
v 10.626000 10.053000 4.273000
v 10.626000 10.053000 8.626000
v 11.126000 10.053000 4.974000
v 11.126000 10.053000 7.222000
v 6.126000 10.868000 6.480000
v 6.126000 13.050000 6.480000
v 6.626000 10.365000 6.480000
v 6.626000 13.357000 6.480000
v 7.126000 9.939000 6.480000
v 7.126000 13.437000 6.480000
v 7.626000 9.649000 6.480000
v 7.626000 13.439000 6.480000
v 8.126000 8.821000 6.480000
v 8.126000 13.340000 6.480000
v 8.626000 7.828000 6.480000
v 8.626000 12.994000 6.480000
v 9.126000 7.428000 6.480000
v 9.126000 12.195000 6.480000
v 9.626000 7.332000 6.480000
v 9.626000 11.451000 6.480000
v 10.126000 7.359000 6.480000
v 10.126000 11.054000 6.480000
v 10.626000 7.285000 6.480000
v 10.626000 10.662000 6.480000
v 11.126000 7.190000 6.480000
v 11.126000 10.252000 6.480000
v 11.626000 7.268000 6.480000
v 11.626000 9.892000 6.480000
v 12.126000 7.579000 6.480000
v 12.126000 9.548000 6.480000
v 9.023000 10.553000 3.980000
v 10.045000 10.553000 3.980000
v 7.020000 10.553000 4.480000
v 10.695000 10.553000 4.480000
v 6.519000 10.553000 4.980000
v 10.907000 10.553000 4.980000
v 6.236000 10.553000 5.480000
v 11.034000 10.553000 5.480000
v 6.261000 10.553000 5.980000
v 11.051000 10.553000 5.980000
v 6.467000 10.553000 6.480000
v 10.781000 10.553000 6.480000
v 6.630000 10.553000 6.980000
v 10.554000 10.553000 6.980000
v 7.092000 10.553000 7.480000
v 10.326000 10.553000 7.480000
v 7.761000 10.553000 7.980000
v 8.905000 10.553000 7.980000
v 6.626000 10.553000 4.879000
v 6.626000 10.553000 6.972000
v 7.126000 10.553000 4.407000
v 7.126000 10.553000 7.494000
v 7.626000 10.553000 4.267000
v 7.626000 10.553000 7.859000
v 8.126000 10.553000 4.205000
v 8.126000 10.553000 8.102000
v 8.626000 10.553000 4.065000
v 8.626000 10.553000 7.993000
v 9.126000 10.553000 3.962000
v 9.126000 10.553000 7.954000
v 9.626000 10.553000 3.904000
v 9.626000 10.553000 7.850000
v 10.126000 10.553000 4.012000
v 10.126000 10.553000 7.688000
v 10.626000 10.553000 4.388000
v 10.626000 10.553000 6.750000
v 5.626000 11.362000 6.980000
v 5.626000 12.740000 6.980000
v 6.126000 10.872000 6.980000
v 6.126000 13.187000 6.980000
v 6.626000 10.555000 6.980000
v 6.626000 13.403000 6.980000
v 7.126000 10.322000 6.980000
v 7.126000 13.478000 6.980000
v 7.626000 9.956000 6.980000
v 7.626000 13.387000 6.980000
v 8.126000 9.182000 6.980000
v 8.126000 13.163000 6.980000
v 8.626000 7.545000 6.980000
v 8.626000 12.661000 6.980000
v 9.126000 7.230000 6.980000
v 9.126000 11.709000 6.980000
v 9.626000 7.147000 6.980000
v 9.626000 11.163000 6.980000
v 10.126000 7.163000 6.980000
v 10.126000 10.859000 6.980000
v 10.626000 7.203000 6.980000
v 10.626000 10.477000 6.980000
v 11.126000 7.183000 6.980000
v 11.126000 10.074000 6.980000
v 11.626000 7.261000 6.980000
v 11.626000 9.865000 6.980000
v 12.126000 7.570000 6.980000
v 12.126000 9.556000 6.980000
f 135 79 123
f 123 79 235
f 235 79 189
f 189 136 235
f 137 1 29
f 135 123 1
f 123 29 1
f 123 125 29
f 123 237 125
f 123 235 237
f 303 351 136
f 351 235 136
f 351 237 235
f 303 138 351
f 31 139 29
f 29 139 137
f 29 127 31
f 29 125 127
f 125 239 127
f 125 237 239
f 140 239 304
f 239 351 304
f 239 237 351
f 351 138 304
f 33 141 31
f 31 141 139
f 31 129 33
f 31 127 129
f 127 241 129
f 127 239 241
f 239 140 241
f 241 140 142
f 143 565 593
f 593 565 657
f 657 565 629
f 144 657 629
f 33 2 141
f 2 33 80
f 80 33 129
f 80 129 190
f 190 129 241
f 241 142 190
f 145 497 527
f 143 593 497
f 593 527 497
f 593 595 527
f 593 659 595
f 593 657 659
f 657 144 659
f 659 144 146
f 527 498 145
f 498 527 147
f 527 597 147
f 527 595 597
f 148 597 630
f 597 659 630
f 597 595 659
f 659 146 630
f 597 566 147
f 597 148 566
f 149 95 41
f 41 95 93
f 95 203 93
f 205 203 95
f 205 317 203
f 319 317 205
f 319 150 317
f 317 150 42
f 151 17 43
f 43 17 15
f 41 15 17
f 41 17 149
f 429 42 150
f 429 150 431
f 431 152 429
f 429 152 44
f 153 43 45
f 153 151 43
f 44 154 46
f 152 154 44
f 650 643 47
f 45 643 650
f 155 45 650
f 153 45 155
f 46 156 48
f 154 156 46
f 49 652 47
f 47 652 650
f 155 650 652
f 155 652 157
f 48 158 50
f 156 158 48
f 590 579 51
f 645 652 49
f 645 49 579
f 159 645 579
f 590 159 579
f 157 652 645
f 50 160 52
f 158 160 50
f 161 185 53
f 53 185 183
f 185 295 183
f 297 295 185
f 297 409 295
f 411 409 297
f 411 511 409
f 513 511 411
f 581 590 51
f 511 581 51
f 513 581 511
f 159 590 581
f 96 162 130
f 96 130 242
f 96 242 206
f 206 242 54
f 318 206 54
f 320 206 318
f 430 320 318
f 430 432 320
f 430 52 432
f 432 52 160
f 163 77 55
f 55 77 75
f 53 75 77
f 53 77 161
f 646 164 658
f 646 658 56
f 16 646 56
f 18 646 16
f 162 18 130
f 18 94 130
f 18 16 94
f 204 242 94
f 94 242 130
f 54 242 204
f 165 55 57
f 165 163 55
f 166 660 658
f 166 658 164
f 56 658 58
f 58 658 660
f 167 57 59
f 167 165 57
f 168 662 660
f 168 660 166
f 58 660 60
f 60 660 662
f 169 59 61
f 169 167 59
f 62 644 662
f 168 62 662
f 170 62 168
f 60 662 644
f 78 169 114
f 169 63 114
f 169 61 63
f 171 78 114
f 582 172 64
f 582 64 580
f 580 62 582
f 582 62 170
f 65 116 63
f 63 116 114
f 226 186 171
f 114 226 171
f 116 226 114
f 173 186 226
f 514 174 536
f 536 66 514
f 66 172 514
f 66 64 172
f 76 116 65
f 67 228 76
f 228 116 76
f 228 226 116
f 342 298 173
f 226 342 173
f 228 342 226
f 298 342 454
f 298 454 412
f 536 174 412
f 536 412 454
f 512 536 454
f 68 512 454
f 66 536 512
f 184 228 67
f 296 342 184
f 184 342 228
f 410 454 296
f 296 454 342
f 68 454 410
f 245 3 25
f 25 3 121
f 121 3 81
f 121 81 233
f 233 81 191
f 233 191 347
f 347 191 305
f 305 246 347
f 247 631 649
f 245 25 631
f 25 649 631
f 25 27 649
f 121 79 135
f 27 121 135
f 25 121 27
f 233 189 79
f 233 79 121
f 349 136 189
f 233 349 189
f 347 349 233
f 417 459 246
f 459 347 246
f 459 349 347
f 417 248 459
f 651 249 649
f 649 249 247
f 27 1 137
f 651 27 137
f 649 27 651
f 27 135 1
f 349 303 136
f 461 138 303
f 349 461 303
f 459 461 349
f 459 248 461
f 461 248 250
f 653 251 651
f 651 251 249
f 651 137 139
f 651 139 653
f 304 353 140
f 353 304 138
f 461 353 138
f 463 353 461
f 461 250 463
f 463 250 252
f 253 499 523
f 523 499 591
f 591 499 567
f 251 653 567
f 653 591 567
f 653 655 591
f 653 139 141
f 653 141 655
f 355 142 140
f 355 140 353
f 254 355 418
f 355 463 418
f 355 353 463
f 463 252 418
f 255 397 441
f 253 523 397
f 523 441 397
f 523 525 441
f 591 565 143
f 525 591 143
f 523 591 525
f 655 629 565
f 655 565 591
f 655 141 2
f 35 655 2
f 655 144 629
f 655 35 144
f 80 131 35
f 80 35 2
f 190 243 131
f 190 131 80
f 355 306 142
f 142 306 190
f 306 256 190
f 256 243 190
f 355 254 306
f 443 257 441
f 441 257 255
f 525 497 145
f 443 525 145
f 441 525 443
f 525 143 497
f 37 146 144
f 37 144 35
f 258 37 82
f 37 131 82
f 37 35 131
f 82 131 192
f 192 131 243
f 243 256 192
f 445 259 443
f 443 259 257
f 443 145 498
f 529 443 498
f 445 443 529
f 147 529 498
f 630 661 148
f 661 630 146
f 37 661 146
f 39 661 37
f 37 258 39
f 39 258 260
f 445 398 259
f 398 445 261
f 445 531 261
f 445 529 531
f 529 147 566
f 599 529 566
f 531 529 599
f 599 566 148
f 661 599 148
f 663 599 661
f 262 663 4
f 663 39 4
f 663 661 39
f 39 260 4
f 531 500 261
f 500 531 568
f 568 531 599
f 568 599 632
f 632 599 663
f 663 262 632
f 263 97 149
f 149 97 95
f 97 205 95
f 207 205 97
f 207 319 205
f 321 319 207
f 321 264 319
f 319 264 150
f 265 19 151
f 151 19 17
f 149 17 19
f 149 19 263
f 431 150 264
f 431 264 433
f 433 266 431
f 431 266 152
f 267 151 153
f 267 265 151
f 152 268 154
f 266 268 152
f 269 153 155
f 269 267 153
f 154 270 156
f 268 270 154
f 271 155 157
f 271 269 155
f 156 272 158
f 270 272 156
f 654 645 159
f 157 645 654
f 273 157 654
f 271 157 273
f 434 274 464
f 464 160 434
f 160 272 434
f 160 158 272
f 214 185 161
f 328 297 214
f 214 297 185
f 440 411 328
f 328 411 297
f 524 513 440
f 440 513 411
f 592 581 524
f 524 581 513
f 581 592 159
f 592 654 159
f 592 656 654
f 34 20 273
f 654 34 273
f 656 34 654
f 20 34 162
f 96 20 162
f 98 20 96
f 206 98 96
f 206 208 98
f 320 208 206
f 320 322 208
f 274 322 464
f 322 432 464
f 322 320 432
f 160 464 432
f 106 77 163
f 77 106 161
f 106 214 161
f 106 216 214
f 216 275 299
f 328 216 299
f 214 216 328
f 328 299 413
f 328 413 440
f 440 413 515
f 440 515 524
f 524 515 583
f 524 583 592
f 276 164 646
f 592 276 646
f 656 592 646
f 276 592 583
f 18 34 646
f 646 34 656
f 162 34 18
f 165 108 163
f 163 108 106
f 108 277 187
f 216 108 187
f 106 108 216
f 275 216 187
f 164 278 166
f 276 278 164
f 167 110 165
f 165 110 108
f 277 108 110
f 277 110 279
f 166 280 168
f 278 280 166
f 169 112 167
f 167 112 110
f 279 110 112
f 279 112 281
f 168 282 170
f 280 282 168
f 78 112 169
f 188 281 224
f 224 281 171
f 281 112 171
f 112 78 171
f 283 188 224
f 584 284 172
f 584 172 582
f 582 170 584
f 584 170 282
f 186 224 171
f 300 283 340
f 340 283 173
f 283 224 173
f 224 186 173
f 300 340 452
f 300 452 414
f 414 452 174
f 514 414 174
f 516 414 514
f 514 172 516
f 516 172 284
f 298 340 173
f 412 452 298
f 298 452 340
f 174 452 412
f 359 5 23
f 23 5 119
f 119 5 83
f 119 83 231
f 231 83 193
f 231 193 345
f 345 193 307
f 307 360 345
f 361 633 647
f 359 23 633
f 633 23 647
f 23 3 647
f 3 245 647
f 119 81 3
f 119 3 23
f 231 191 81
f 231 81 119
f 345 305 191
f 345 191 231
f 360 419 457
f 360 457 246
f 345 360 246
f 305 345 246
f 419 362 457
f 363 569 585
f 361 647 569
f 569 647 585
f 647 631 585
f 631 247 585
f 647 245 631
f 457 417 246
f 457 362 417
f 362 248 417
f 362 364 248
f 587 365 585
f 585 365 363
f 585 247 249
f 585 249 587
f 248 366 250
f 364 366 248
f 367 399 437
f 437 399 521
f 521 399 501
f 365 587 501
f 587 521 501
f 587 589 521
f 587 249 251
f 587 251 589
f 250 368 252
f 366 368 250
f 369 285 327
f 367 437 285
f 437 327 285
f 437 439 327
f 521 499 253
f 439 521 253
f 437 521 439
f 589 567 499
f 589 499 521
f 589 251 567
f 420 370 254
f 420 254 418
f 418 252 420
f 420 252 368
f 329 371 327
f 327 371 369
f 439 397 255
f 329 439 255
f 327 439 329
f 439 253 397
f 306 357 256
f 306 254 357
f 254 372 357
f 254 370 372
f 331 373 329
f 329 373 371
f 329 255 257
f 329 257 331
f 82 133 258
f 194 374 133
f 82 194 133
f 192 194 82
f 357 308 256
f 308 192 256
f 308 194 192
f 357 372 308
f 333 375 331
f 331 375 373
f 331 257 259
f 331 259 333
f 258 133 84
f 376 258 84
f 260 258 376
f 133 374 84
f 335 377 333
f 333 377 375
f 333 259 398
f 447 333 398
f 335 333 447
f 261 447 398
f 6 378 262
f 6 262 4
f 4 260 6
f 6 260 376
f 335 286 377
f 286 335 400
f 400 335 447
f 533 379 500
f 500 379 261
f 379 400 261
f 400 447 261
f 568 601 533
f 568 533 500
f 634 380 601
f 568 634 601
f 632 634 568
f 632 262 634
f 634 262 378
f 533 502 379
f 502 533 570
f 570 533 601
f 601 380 570
f 118 97 263
f 230 207 118
f 118 207 97
f 344 321 230
f 230 321 207
f 344 264 321
f 24 19 265
f 99 118 263
f 99 263 19
f 381 99 19
f 24 381 19
f 118 99 209
f 118 209 230
f 230 209 323
f 230 323 344
f 382 456 433
f 382 433 264
f 323 382 264
f 344 323 264
f 456 266 433
f 24 265 21
f 265 383 21
f 265 267 383
f 381 24 21
f 435 456 382
f 435 384 456
f 384 266 456
f 384 268 266
f 385 267 269
f 385 383 267
f 268 386 270
f 384 386 268
f 387 269 271
f 387 385 269
f 270 388 272
f 386 388 270
f 22 387 32
f 387 273 32
f 387 271 273
f 389 22 32
f 436 390 274
f 436 274 434
f 434 272 436
f 436 272 388
f 20 32 273
f 32 20 389
f 20 100 389
f 20 98 100
f 208 100 98
f 208 210 100
f 322 210 208
f 322 324 210
f 322 274 324
f 324 274 390
f 330 299 275
f 442 413 330
f 330 413 299
f 526 515 442
f 442 515 413
f 594 583 526
f 526 583 515
f 594 276 583
f 218 187 277
f 187 218 275
f 218 330 275
f 218 332 330
f 332 391 415
f 442 332 415
f 330 332 442
f 442 415 517
f 442 517 526
f 526 517 392
f 596 526 392
f 594 526 596
f 276 594 278
f 278 594 596
f 279 220 277
f 277 220 218
f 220 393 301
f 332 220 301
f 218 220 332
f 391 332 301
f 394 598 596
f 394 596 392
f 278 596 280
f 280 596 598
f 281 222 279
f 279 222 220
f 336 302 393
f 220 336 393
f 222 336 220
f 395 302 336
f 518 396 532
f 598 394 518
f 532 598 518
f 600 598 532
f 280 598 282
f 282 598 600
f 188 222 281
f 283 338 188
f 338 222 188
f 338 336 222
f 450 416 395
f 336 450 395
f 338 450 336
f 532 396 416
f 450 532 416
f 534 532 450
f 584 600 284
f 600 534 284
f 600 532 534
f 282 600 584
f 300 338 283
f 414 450 300
f 300 450 338
f 516 534 414
f 414 534 450
f 284 534 516
f 467 7 359
f 359 7 5
f 7 83 5
f 85 83 7
f 85 193 83
f 195 193 85
f 195 307 193
f 309 307 195
f 309 468 307
f 307 468 360
f 469 635 361
f 361 635 633
f 359 633 635
f 359 635 467
f 419 360 468
f 419 468 421
f 421 470 419
f 419 470 362
f 471 571 363
f 363 571 569
f 361 569 571
f 361 571 469
f 362 472 364
f 470 472 362
f 473 503 519
f 365 519 503
f 471 365 503
f 363 365 471
f 364 474 366
f 472 474 364
f 475 401 367
f 367 401 399
f 401 473 519
f 501 401 519
f 399 401 501
f 519 365 501
f 366 476 368
f 474 476 366
f 477 287 369
f 369 287 285
f 367 285 287
f 367 287 475
f 420 465 370
f 420 368 465
f 368 478 465
f 368 476 478
f 479 369 371
f 479 477 369
f 370 465 422
f 480 370 422
f 372 370 480
f 465 478 422
f 481 371 373
f 481 479 371
f 196 482 374
f 196 374 194
f 308 196 194
f 308 310 196
f 308 372 310
f 310 372 480
f 483 373 375
f 483 481 373
f 86 484 376
f 86 376 84
f 84 374 86
f 86 374 482
f 485 175 221
f 377 221 175
f 483 377 175
f 375 377 483
f 8 486 378
f 8 378 6
f 6 376 8
f 8 376 484
f 223 487 221
f 221 487 485
f 221 377 286
f 337 221 286
f 223 221 337
f 400 449 337
f 400 337 286
f 379 449 400
f 636 488 380
f 636 380 634
f 634 378 636
f 636 378 486
f 223 176 487
f 176 223 489
f 223 339 489
f 223 337 339
f 337 451 339
f 337 449 451
f 451 449 490
f 449 502 490
f 502 504 490
f 502 449 379
f 570 504 502
f 570 572 504
f 570 380 572
f 572 380 488
f 339 288 489
f 288 339 402
f 402 339 451
f 451 490 402
f 120 99 381
f 232 209 120
f 120 209 99
f 346 323 232
f 232 323 209
f 346 382 323
f 26 21 383
f 21 26 381
f 26 120 381
f 26 122 120
f 122 491 211
f 232 122 211
f 120 122 232
f 232 211 492
f 348 232 492
f 346 232 348
f 382 346 435
f 346 458 435
f 346 348 458
f 458 384 435
f 385 28 383
f 383 28 26
f 28 493 101
f 122 28 101
f 26 28 122
f 491 122 101
f 325 348 492
f 348 325 494
f 460 348 494
f 458 348 460
f 384 458 386
f 386 458 460
f 387 30 385
f 385 30 28
f 126 102 493
f 28 126 493
f 30 126 28
f 495 102 126
f 326 496 352
f 460 494 326
f 352 460 326
f 462 460 352
f 386 460 388
f 388 460 462
f 22 30 387
f 389 128 22
f 128 30 22
f 128 126 30
f 240 212 495
f 126 240 495
f 128 240 126
f 352 496 212
f 240 352 212
f 354 352 240
f 436 462 390
f 462 354 390
f 462 352 354
f 388 462 436
f 100 128 389
f 210 240 100
f 100 240 128
f 324 354 210
f 210 354 240
f 390 354 324
f 444 415 391
f 528 517 444
f 444 517 415
f 528 392 517
f 334 301 393
f 301 334 391
f 334 444 391
f 334 446 444
f 530 444 446
f 528 444 530
f 392 528 394
f 394 528 530
f 302 334 393
f 395 448 302
f 448 334 302
f 448 446 334
f 518 530 396
f 530 448 396
f 530 446 448
f 394 530 518
f 416 448 395
f 396 448 416
f 539 9 467
f 467 9 7
f 9 85 7
f 87 85 9
f 87 195 85
f 197 195 87
f 197 309 195
f 311 309 197
f 311 540 309
f 309 540 468
f 541 637 469
f 469 637 635
f 467 635 637
f 467 637 539
f 421 468 540
f 421 540 423
f 423 542 421
f 421 542 470
f 543 573 471
f 471 573 571
f 469 571 573
f 469 573 541
f 470 544 472
f 542 544 470
f 545 505 473
f 473 505 503
f 471 503 505
f 471 505 543
f 472 546 474
f 544 546 472
f 547 403 475
f 475 403 401
f 473 401 403
f 473 403 545
f 474 548 476
f 546 548 474
f 549 289 477
f 477 289 287
f 475 287 289
f 475 289 547
f 476 550 478
f 548 550 476
f 551 177 215
f 479 215 177
f 549 479 177
f 477 479 549
f 312 552 358
f 312 358 480
f 422 312 480
f 424 312 422
f 422 478 424
f 424 478 550
f 217 553 215
f 215 553 551
f 215 479 481
f 215 481 217
f 198 554 482
f 198 482 196
f 552 198 358
f 198 310 358
f 198 196 310
f 480 358 310
f 219 555 217
f 217 555 553
f 217 481 483
f 217 483 219
f 88 556 484
f 88 484 86
f 86 482 88
f 88 482 554
f 557 69 111
f 555 219 69
f 69 219 111
f 219 175 111
f 175 485 111
f 219 483 175
f 10 558 486
f 10 486 8
f 8 484 10
f 10 484 556
f 113 559 111
f 111 559 557
f 111 485 487
f 111 487 113
f 638 560 488
f 638 488 636
f 636 486 638
f 638 486 558
f 115 561 113
f 113 561 559
f 113 487 176
f 225 113 176
f 115 113 225
f 489 225 176
f 504 535 490
f 574 562 535
f 504 574 535
f 572 574 504
f 572 488 574
f 574 488 560
f 115 70 561
f 70 115 563
f 115 227 563
f 115 225 227
f 225 489 288
f 341 225 288
f 227 225 341
f 402 453 341
f 402 341 288
f 535 506 490
f 490 506 402
f 506 564 402
f 564 453 402
f 535 562 506
f 227 178 563
f 178 227 290
f 290 227 341
f 290 341 404
f 404 341 453
f 453 564 404
f 234 211 491
f 234 492 211
f 124 101 493
f 101 124 491
f 124 234 491
f 124 236 234
f 492 234 325
f 234 350 325
f 234 236 350
f 350 494 325
f 102 124 493
f 495 238 102
f 238 124 102
f 238 236 124
f 326 350 496
f 350 238 496
f 350 236 238
f 494 350 326
f 212 238 495
f 496 238 212
f 603 11 539
f 539 11 9
f 11 87 9
f 89 87 11
f 89 197 87
f 199 197 89
f 199 311 197
f 313 311 199
f 313 604 311
f 311 604 540
f 605 639 541
f 541 639 637
f 539 637 639
f 539 639 603
f 423 540 604
f 423 604 425
f 425 606 423
f 423 606 542
f 607 575 543
f 543 575 573
f 541 573 575
f 541 575 605
f 542 608 544
f 606 608 542
f 520 505 545
f 543 505 520
f 609 543 520
f 607 543 609
f 544 610 546
f 608 610 544
f 611 405 547
f 547 405 403
f 507 520 545
f 403 507 545
f 405 507 403
f 609 520 507
f 546 612 548
f 610 612 546
f 613 179 213
f 213 179 549
f 179 289 549
f 179 291 289
f 547 289 291
f 547 291 611
f 426 614 466
f 466 550 426
f 550 612 426
f 550 548 612
f 615 71 105
f 613 213 71
f 71 213 105
f 213 177 105
f 177 551 105
f 213 549 177
f 314 616 552
f 314 552 312
f 614 314 466
f 314 424 466
f 314 312 424
f 550 466 424
f 107 617 105
f 105 617 615
f 105 551 553
f 105 553 107
f 90 618 134
f 90 134 554
f 198 90 554
f 200 90 198
f 198 552 200
f 200 552 616
f 109 619 107
f 107 619 617
f 107 553 555
f 107 555 109
f 556 88 134
f 618 556 134
f 620 556 618
f 554 134 88
f 69 557 109
f 557 619 109
f 557 621 619
f 109 555 69
f 12 622 558
f 12 558 10
f 10 556 12
f 12 556 620
f 623 557 559
f 623 621 557
f 640 624 560
f 640 560 638
f 638 558 640
f 640 558 622
f 625 559 561
f 625 623 559
f 576 626 562
f 576 562 574
f 574 560 576
f 576 560 624
f 561 70 625
f 625 70 72
f 627 72 70
f 627 70 563
f 508 628 564
f 508 564 506
f 506 562 508
f 508 562 626
f 563 178 627
f 627 178 180
f 290 180 178
f 290 292 180
f 404 292 290
f 404 406 292
f 404 564 406
f 406 564 628
f 665 91 117
f 117 91 229
f 229 91 201
f 229 201 343
f 343 201 315
f 315 666 343
f 667 13 603
f 603 13 11
f 13 665 117
f 89 13 117
f 11 13 89
f 229 199 89
f 229 89 117
f 343 313 199
f 343 199 229
f 666 427 455
f 666 455 604
f 343 666 604
f 313 343 604
f 427 668 455
f 648 639 605
f 603 639 648
f 669 603 648
f 667 603 669
f 455 425 604
f 455 668 425
f 668 606 425
f 668 670 606
f 586 575 607
f 641 648 605
f 641 605 575
f 671 641 575
f 586 671 575
f 669 648 641
f 606 672 608
f 670 672 606
f 586 607 577
f 607 673 577
f 607 609 673
f 671 586 577
f 608 674 610
f 672 674 608
f 438 405 611
f 675 509 438
f 509 405 438
f 509 507 405
f 609 507 509
f 609 509 673
f 610 676 612
f 674 676 610
f 677 73 103
f 103 73 613
f 73 179 613
f 73 181 179
f 181 291 179
f 293 291 181
f 407 438 611
f 291 407 611
f 293 407 291
f 675 438 407
f 428 678 614
f 428 614 426
f 426 612 428
f 428 612 676
f 71 615 103
f 615 677 103
f 615 679 677
f 103 613 71
f 202 680 244
f 202 244 616
f 314 202 616
f 316 202 314
f 314 614 316
f 316 614 678
f 681 615 617
f 681 679 615
f 92 682 618
f 92 618 90
f 680 92 244
f 92 200 244
f 92 90 200
f 616 244 200
f 683 617 619
f 683 681 617
f 14 684 40
f 40 620 14
f 620 682 14
f 620 618 682
f 685 619 621
f 685 683 619
f 642 686 664
f 40 684 642
f 40 642 664
f 12 40 664
f 622 12 664
f 620 40 12
f 687 621 623
f 687 685 621
f 624 640 664
f 686 624 664
f 688 624 686
f 622 664 640
f 689 623 625
f 689 687 623
f 578 690 626
f 578 626 576
f 576 624 578
f 578 624 688
f 625 72 689
f 689 72 74
f 691 74 72
f 691 72 627
f 508 537 628
f 508 626 537
f 626 692 537
f 626 690 692
f 627 180 691
f 691 180 182
f 292 182 180
f 292 294 182
f 406 294 292
f 406 408 294
f 537 510 628
f 510 406 628
f 510 408 406
f 537 692 510
f 41 93 665
f 665 93 91
f 93 201 91
f 203 201 93
f 203 315 201
f 317 315 203
f 317 42 315
f 315 42 666
f 43 15 667
f 667 15 13
f 665 13 15
f 665 15 41
f 427 666 42
f 427 42 429
f 429 44 427
f 427 44 668
f 45 667 669
f 45 43 667
f 668 46 670
f 44 46 668
f 47 643 671
f 671 643 641
f 669 641 643
f 669 643 45
f 670 48 672
f 46 48 670
f 588 577 673
f 671 577 588
f 49 671 588
f 47 671 49
f 672 50 674
f 48 50 672
f 522 509 675
f 579 588 673
f 579 673 509
f 51 579 509
f 522 51 509
f 49 588 579
f 674 52 676
f 50 52 674
f 104 73 677
f 53 183 104
f 183 73 104
f 183 181 73
f 183 293 181
f 295 293 183
f 295 407 293
f 409 407 295
f 511 522 675
f 407 511 675
f 409 511 407
f 51 522 511
f 318 54 356
f 318 356 678
f 428 318 678
f 430 318 428
f 428 676 430
f 430 676 52
f 104 677 75
f 677 55 75
f 677 679 55
f 53 104 75
f 16 56 36
f 16 36 132
f 16 132 94
f 94 132 680
f 202 94 680
f 204 94 202
f 54 204 356
f 204 316 356
f 204 202 316
f 678 356 316
f 57 679 681
f 57 55 679
f 58 38 36
f 58 36 56
f 92 132 682
f 132 38 682
f 132 36 38
f 680 132 92
f 59 681 683
f 59 57 681
f 684 14 38
f 58 684 38
f 60 684 58
f 682 38 14
f 61 683 685
f 61 59 683
f 644 62 686
f 644 686 642
f 642 684 644
f 644 684 60
f 63 685 687
f 63 61 685
f 580 64 602
f 602 688 580
f 688 62 580
f 688 686 62
f 65 687 689
f 65 63 687
f 690 578 602
f 64 690 602
f 66 690 64
f 688 602 578
f 689 74 65
f 65 74 76
f 67 76 74
f 67 74 691
f 512 68 538
f 538 692 512
f 692 66 512
f 692 690 66
f 691 182 67
f 67 182 184
f 294 184 182
f 294 296 184
f 408 296 294
f 408 410 296
f 68 410 538
f 410 510 538
f 410 408 510
f 692 538 510
