# Converted from NanoShaper .vert/.face
v 14.363000 -14.197000 -15.770000
v 15.320000 -14.197000 -15.770000
v 14.021000 -14.197000 -15.270000
v 15.665000 -14.197000 -15.270000
v 14.271000 -14.197000 -14.770000
v 15.348000 -14.197000 -14.770000
v 15.231000 -10.197000 -16.270000
v 16.684000 -10.197000 -16.270000
v 14.703000 -10.197000 -15.770000
v 16.887000 -10.197000 -15.770000
v 14.455000 -10.197000 -15.270000
v 16.829000 -10.197000 -15.270000
v 14.385000 -10.197000 -14.770000
v 16.582000 -10.197000 -14.770000
v 14.421000 -10.197000 -14.270000
v 16.294000 -10.197000 -14.270000
v 14.668000 -10.197000 -13.770000
v 15.845000 -10.197000 -13.770000
v 14.376000 -14.197000 -15.776000
v 14.376000 -14.197000 -14.713000
v 14.876000 -14.197000 -15.784000
v 14.876000 -14.197000 -14.722000
v 15.376000 -14.197000 -15.744000
v 15.376000 -14.197000 -14.784000
v 14.876000 -10.197000 -15.978000
v 14.876000 -10.197000 -13.638000
v 15.376000 -10.197000 -16.353000
v 15.376000 -10.197000 -13.583000
v 15.876000 -10.197000 -16.540000
v 15.876000 -10.197000 -13.791000
v 16.376000 -10.197000 -16.486000
v 16.376000 -10.197000 -14.436000
v 16.876000 -10.197000 -15.846000
v 16.876000 -10.197000 -15.465000
v 12.376000 -12.492000 -14.770000
v 12.376000 -11.458000 -14.770000
v 12.876000 -13.164000 -14.770000
v 12.876000 -10.868000 -14.770000
v 13.376000 -13.652000 -14.770000
v 13.376000 -10.678000 -14.770000
v 13.876000 -14.024000 -14.770000
v 13.876000 -10.535000 -14.770000
v 14.376000 -14.219000 -14.770000
v 14.376000 -10.206000 -14.770000
v 14.876000 -14.216000 -14.770000
v 14.876000 -7.998000 -14.770000
v 15.376000 -14.192000 -14.770000
v 15.376000 -7.305000 -14.770000
v 15.876000 -13.978000 -14.770000
v 15.876000 -7.028000 -14.770000
v 16.376000 -13.286000 -14.770000
v 16.376000 -6.965000 -14.770000
v 16.876000 -9.638000 -14.770000
v 16.876000 -6.979000 -14.770000
v 17.376000 -8.804000 -14.770000
v 17.376000 -7.295000 -14.770000
v 14.042000 -13.697000 -16.270000
v 15.691000 -13.697000 -16.270000
v 13.555000 -13.697000 -15.770000
v 16.161000 -13.697000 -15.770000
v 13.426000 -13.697000 -15.270000
v 16.278000 -13.697000 -15.270000
v 13.442000 -13.697000 -14.770000
v 16.167000 -13.697000 -14.770000
v 13.748000 -13.697000 -14.270000
v 15.712000 -13.697000 -14.270000
v 14.162000 -13.697000 -13.770000
v 15.026000 -13.697000 -13.770000
v 15.472000 -9.697000 -16.770000
v 16.858000 -9.697000 -16.770000
v 15.020000 -9.697000 -16.270000
v 17.266000 -9.697000 -16.270000
v 14.792000 -9.697000 -15.770000
v 17.366000 -9.697000 -15.770000
v 14.736000 -9.697000 -15.270000
v 17.248000 -9.697000 -15.270000
v 14.759000 -9.697000 -14.770000
v 16.834000 -9.697000 -14.770000
v 14.929000 -9.697000 -14.270000
v 16.385000 -9.697000 -14.270000
v 13.876000 -13.697000 -16.161000
v 13.876000 -13.697000 -14.158000
v 14.376000 -13.697000 -16.389000
v 14.376000 -13.697000 -13.644000
v 14.876000 -13.697000 -16.402000
v 14.876000 -13.697000 -13.671000
v 15.376000 -13.697000 -16.391000
v 15.376000 -13.697000 -14.058000
v 15.876000 -13.697000 -16.140000
v 15.876000 -13.697000 -14.388000
v 14.876000 -9.697000 -16.002000
v 14.876000 -9.697000 -14.358000
v 15.376000 -9.697000 -16.695000
v 15.376000 -9.697000 -13.967000
v 15.876000 -9.697000 -16.955000
v 15.876000 -9.697000 -13.982000
v 16.376000 -9.697000 -16.972000
v 16.376000 -9.697000 -14.262000
v 16.876000 -9.697000 -16.757000
v 16.876000 -9.697000 -14.808000
v 12.376000 -12.684000 -14.270000
v 12.376000 -11.265000 -14.270000
v 12.876000 -13.184000 -14.270000
v 12.876000 -10.766000 -14.270000
v 13.376000 -13.523000 -14.270000
v 13.376000 -10.590000 -14.270000
v 13.876000 -13.745000 -14.270000
v 13.876000 -10.503000 -14.270000
v 14.376000 -13.940000 -14.270000
v 14.376000 -10.233000 -14.270000
v 14.876000 -13.935000 -14.270000
v 14.876000 -9.763000 -14.270000
v 15.376000 -13.866000 -14.270000
v 15.376000 -7.786000 -14.270000
v 15.876000 -13.555000 -14.270000
v 15.876000 -7.493000 -14.270000
v 16.376000 -12.741000 -14.270000
v 16.376000 -10.713000 -14.270000
v 16.376000 -9.718000 -14.270000
v 16.376000 -7.505000 -14.270000
v 16.876000 -9.079000 -14.270000
v 16.876000 -7.823000 -14.270000
v 13.682000 -13.197000 -16.270000
v 16.052000 -13.197000 -16.270000
v 13.308000 -13.197000 -15.770000
v 16.395000 -13.197000 -15.770000
v 13.008000 -13.197000 -15.270000
v 16.492000 -13.197000 -15.270000
v 12.903000 -13.197000 -14.770000
v 16.400000 -13.197000 -14.770000
v 12.896000 -13.197000 -14.270000
v 16.175000 -13.197000 -14.270000
v 13.134000 -13.197000 -13.770000
v 15.728000 -13.197000 -13.770000
v 13.935000 -13.197000 -13.270000
v 15.252000 -13.197000 -13.270000
v 15.190000 -9.197000 -16.770000
v 17.140000 -9.197000 -16.770000
v 14.868000 -9.197000 -16.270000
v 17.462000 -9.197000 -16.270000
v 14.780000 -9.197000 -15.770000
v 17.554000 -9.197000 -15.770000
v 14.804000 -9.197000 -15.270000
v 17.452000 -9.197000 -15.270000
v 14.864000 -9.197000 -14.770000
v 17.195000 -9.197000 -14.770000
v 15.148000 -9.197000 -14.270000
v 16.765000 -9.197000 -14.270000
v 13.376000 -13.197000 -15.881000
v 13.376000 -13.197000 -13.619000
v 13.876000 -13.197000 -16.414000
v 13.876000 -13.197000 -13.309000
v 14.376000 -13.197000 -16.599000
v 14.376000 -13.197000 -13.091000
v 14.876000 -13.197000 -16.616000
v 14.876000 -13.197000 -13.105000
v 15.376000 -13.197000 -16.610000
v 15.376000 -13.197000 -13.364000
v 15.876000 -13.197000 -16.407000
v 15.876000 -13.197000 -13.901000
v 16.376000 -13.197000 -15.815000
v 16.376000 -13.197000 -14.711000
v 14.876000 -9.197000 -16.290000
v 14.876000 -9.197000 -14.724000
v 15.376000 -9.197000 -16.925000
v 15.376000 -9.197000 -14.108000
v 15.876000 -9.197000 -17.142000
v 15.876000 -9.197000 -13.985000
v 16.376000 -9.197000 -17.156000
v 16.376000 -9.197000 -14.070000
v 16.876000 -9.197000 -16.975000
v 16.876000 -9.197000 -14.355000
v 17.376000 -9.197000 -16.457000
v 17.376000 -9.197000 -15.115000
v 12.376000 -12.464000 -13.770000
v 12.376000 -11.485000 -13.770000
v 12.876000 -13.068000 -13.770000
v 12.876000 -10.881000 -13.770000
v 13.376000 -13.273000 -13.770000
v 13.376000 -10.689000 -13.770000
v 13.876000 -13.556000 -13.770000
v 13.876000 -10.609000 -13.770000
v 14.376000 -13.752000 -13.770000
v 14.376000 -10.350000 -13.770000
v 14.876000 -13.739000 -13.770000
v 14.876000 -10.109000 -13.770000
v 15.376000 -13.513000 -13.770000
v 15.376000 -9.992000 -13.770000
v 15.876000 -13.004000 -13.770000
v 15.876000 -10.229000 -13.770000
v 16.376000 -11.758000 -13.770000
v 16.376000 -11.132000 -13.770000
v 13.668000 -12.697000 -16.270000
v 16.101000 -12.697000 -16.270000
v 13.113000 -12.697000 -15.770000
v 16.435000 -12.697000 -15.770000
v 12.781000 -12.697000 -15.270000
v 16.529000 -12.697000 -15.270000
v 12.486000 -12.697000 -14.770000
v 16.498000 -12.697000 -14.770000
v 12.384000 -12.697000 -14.270000
v 16.385000 -12.697000 -14.270000
v 12.499000 -12.697000 -13.770000
v 16.016000 -12.697000 -13.770000
v 12.942000 -12.697000 -13.270000
v 15.554000 -12.697000 -13.270000
v 15.195000 -8.697000 -16.770000
v 17.251000 -8.697000 -16.770000
v 14.865000 -8.697000 -16.270000
v 17.663000 -8.697000 -16.270000
v 14.771000 -8.697000 -15.770000
v 17.794000 -8.697000 -15.770000
v 14.726000 -8.697000 -15.270000
v 17.706000 -8.697000 -15.270000
v 14.814000 -8.697000 -14.770000
v 17.417000 -8.697000 -14.770000
v 15.140000 -8.697000 -14.270000
v 17.066000 -8.697000 -14.270000
v 12.876000 -12.697000 -15.442000
v 12.876000 -12.697000 -13.315000
v 13.376000 -12.697000 -16.001000
v 13.376000 -12.697000 -13.103000
v 13.876000 -12.697000 -16.425000
v 13.876000 -12.697000 -13.029000
v 14.376000 -12.697000 -16.609000
v 14.376000 -12.697000 -12.898000
v 14.876000 -12.697000 -16.638000
v 14.876000 -12.697000 -12.910000
v 15.376000 -12.697000 -16.637000
v 15.376000 -12.697000 -13.124000
v 15.876000 -12.697000 -16.445000
v 15.876000 -12.697000 -13.643000
v 16.376000 -12.697000 -15.901000
v 16.376000 -12.697000 -14.249000
v 14.876000 -8.697000 -16.297000
v 14.876000 -8.697000 -14.631000
v 15.376000 -8.697000 -16.919000
v 15.376000 -8.697000 -14.086000
v 15.876000 -8.697000 -17.134000
v 15.876000 -8.697000 -13.899000
v 16.376000 -8.697000 -17.147000
v 16.376000 -8.697000 -13.907000
v 16.876000 -8.697000 -16.998000
v 16.876000 -8.697000 -14.116000
v 17.376000 -8.697000 -16.659000
v 17.376000 -8.697000 -14.701000
v 12.876000 -12.632000 -13.270000
v 12.876000 -11.317000 -13.270000
v 13.376000 -12.918000 -13.270000
v 13.376000 -11.032000 -13.270000
v 13.876000 -13.147000 -13.270000
v 13.876000 -10.967000 -13.270000
v 14.376000 -13.424000 -13.270000
v 14.376000 -10.752000 -13.270000
v 14.876000 -13.407000 -13.270000
v 14.876000 -10.476000 -13.270000
v 15.376000 -13.064000 -13.270000
v 15.376000 -10.489000 -13.270000
v 15.876000 -12.067000 -13.270000
v 15.876000 -10.822000 -13.270000
v 13.967000 -12.197000 -16.270000
v 16.092000 -12.197000 -16.270000
v 13.116000 -12.197000 -15.770000
v 16.430000 -12.197000 -15.770000
v 12.614000 -12.197000 -15.270000
v 16.525000 -12.197000 -15.270000
v 12.289000 -12.197000 -14.770000
v 16.510000 -12.197000 -14.770000
v 12.201000 -12.197000 -14.270000
v 16.413000 -12.197000 -14.270000
v 12.300000 -12.197000 -13.770000
v 16.204000 -12.197000 -13.770000
v 12.643000 -12.197000 -13.270000
v 15.769000 -12.197000 -13.270000
v 15.133000 -8.197000 -16.770000
v 17.499000 -8.197000 -16.770000
v 14.805000 -8.197000 -16.270000
v 17.867000 -8.197000 -16.270000
v 14.715000 -8.197000 -15.770000
v 17.980000 -8.197000 -15.770000
v 14.728000 -8.197000 -15.270000
v 17.905000 -8.197000 -15.270000
v 14.819000 -8.197000 -14.770000
v 17.601000 -8.197000 -14.770000
v 15.149000 -8.197000 -14.270000
v 17.061000 -8.197000 -14.270000
v 12.376000 -12.197000 -14.958000
v 12.376000 -12.197000 -13.610000
v 12.876000 -12.197000 -15.516000
v 12.876000 -12.197000 -13.096000
v 13.376000 -12.197000 -15.978000
v 13.376000 -12.197000 -12.917000
v 13.876000 -12.197000 -16.224000
v 13.876000 -12.197000 -12.897000
v 14.376000 -12.197000 -16.447000
v 14.376000 -12.197000 -12.874000
v 14.876000 -12.197000 -16.617000
v 14.876000 -12.197000 -12.906000
v 15.376000 -12.197000 -16.626000
v 15.376000 -12.197000 -13.043000
v 15.876000 -12.197000 -16.436000
v 15.876000 -12.197000 -13.361000
v 16.376000 -12.197000 -15.890000
v 16.376000 -12.197000 -14.150000
v 14.876000 -8.197000 -16.427000
v 14.876000 -8.197000 -14.641000
v 15.376000 -8.197000 -16.958000
v 15.376000 -8.197000 -14.093000
v 15.876000 -8.197000 -17.144000
v 15.876000 -8.197000 -13.903000
v 16.376000 -8.197000 -17.137000
v 16.376000 -8.197000 -13.911000
v 16.876000 -8.197000 -17.075000
v 16.876000 -8.197000 -14.120000
v 17.376000 -8.197000 -16.864000
v 17.376000 -8.197000 -14.567000
v 17.876000 -8.197000 -16.250000
v 17.876000 -8.197000 -15.193000
v 15.376000 -9.591000 -16.770000
v 15.376000 -7.294000 -16.770000
v 15.876000 -9.935000 -16.770000
v 15.876000 -7.008000 -16.770000
v 16.376000 -9.954000 -16.770000
v 16.376000 -7.020000 -16.770000
v 16.876000 -9.680000 -16.770000
v 16.876000 -7.082000 -16.770000
v 17.376000 -8.476000 -16.770000
v 17.376000 -7.459000 -16.770000
v 14.526000 -11.697000 -16.270000
v 15.843000 -11.697000 -16.270000
v 13.417000 -11.697000 -15.770000
v 16.280000 -11.697000 -15.770000
v 12.629000 -11.697000 -15.270000
v 16.459000 -11.697000 -15.270000
v 12.300000 -11.697000 -14.770000
v 16.524000 -11.697000 -14.770000
v 12.211000 -11.697000 -14.270000
v 16.480000 -11.697000 -14.270000
v 12.311000 -11.697000 -13.770000
v 16.389000 -11.697000 -13.770000
v 12.658000 -11.697000 -13.270000
v 16.062000 -11.697000 -13.270000
v 15.146000 -7.697000 -16.770000
v 17.487000 -7.697000 -16.770000
v 14.815000 -7.697000 -16.270000
v 17.859000 -7.697000 -16.270000
v 14.724000 -7.697000 -15.770000
v 17.973000 -7.697000 -15.770000
v 14.822000 -7.697000 -15.270000
v 17.897000 -7.697000 -15.270000
v 15.036000 -7.697000 -14.770000
v 17.591000 -7.697000 -14.770000
v 15.470000 -7.697000 -14.270000
v 16.752000 -7.697000 -14.270000
v 12.376000 -11.697000 -14.937000
v 12.376000 -11.697000 -13.631000
v 12.876000 -11.697000 -15.460000
v 12.876000 -11.697000 -13.108000
v 13.376000 -11.697000 -15.744000
v 13.376000 -11.697000 -12.927000
v 13.876000 -11.697000 -15.966000
v 13.876000 -11.697000 -12.894000
v 14.376000 -11.697000 -16.169000
v 14.376000 -11.697000 -12.885000
v 14.876000 -11.697000 -16.415000
v 14.876000 -11.697000 -12.892000
v 15.376000 -11.697000 -16.437000
v 15.376000 -11.697000 -12.906000
v 15.876000 -11.697000 -16.249000
v 15.876000 -11.697000 -13.118000
v 16.376000 -11.697000 -15.530000
v 16.376000 -11.697000 -13.736000
v 14.876000 -7.697000 -16.407000
v 14.876000 -7.697000 -15.135000
v 15.376000 -7.697000 -16.948000
v 15.376000 -7.697000 -14.337000
v 15.876000 -7.697000 -17.134000
v 15.876000 -7.697000 -14.106000
v 16.376000 -7.697000 -17.124000
v 16.376000 -7.697000 -14.115000
v 16.876000 -7.697000 -17.067000
v 16.876000 -7.697000 -14.332000
v 17.376000 -7.697000 -16.855000
v 17.376000 -7.697000 -14.588000
v 17.876000 -7.697000 -16.230000
v 17.876000 -7.697000 -15.213000
v 13.876000 -13.547000 -16.270000
v 13.876000 -12.287000 -16.270000
v 14.376000 -13.848000 -16.270000
v 14.376000 -11.849000 -16.270000
v 14.876000 -13.861000 -16.270000
v 14.876000 -11.459000 -16.270000
v 14.876000 -9.237000 -16.270000
v 14.876000 -7.494000 -16.270000
v 15.376000 -13.847000 -16.270000
v 15.376000 -11.312000 -16.270000
v 15.376000 -10.404000 -16.270000
v 15.376000 -6.877000 -16.270000
v 15.876000 -13.523000 -16.270000
v 15.876000 -11.752000 -16.270000
v 15.876000 -10.576000 -16.270000
v 15.876000 -6.680000 -16.270000
v 16.376000 -10.369000 -16.270000
v 16.376000 -6.681000 -16.270000
v 16.876000 -10.084000 -16.270000
v 16.876000 -6.709000 -16.270000
v 17.376000 -9.490000 -16.270000
v 17.376000 -6.940000 -16.270000
v 14.093000 -11.197000 -15.770000
v 16.227000 -11.197000 -15.770000
v 12.964000 -11.197000 -15.270000
v 16.472000 -11.197000 -15.270000
v 12.525000 -11.197000 -14.770000
v 16.530000 -11.197000 -14.770000
v 12.419000 -11.197000 -14.270000
v 16.479000 -11.197000 -14.270000
v 12.538000 -11.197000 -13.770000
v 16.390000 -11.197000 -13.770000
v 13.011000 -11.197000 -13.270000
v 16.064000 -11.197000 -13.270000
v 15.482000 -7.197000 -16.770000
v 17.117000 -7.197000 -16.770000
v 15.039000 -7.197000 -16.270000
v 17.632000 -7.197000 -16.270000
v 14.931000 -7.197000 -15.770000
v 17.768000 -7.197000 -15.770000
v 15.048000 -7.197000 -15.270000
v 17.678000 -7.197000 -15.270000
v 15.511000 -7.197000 -14.770000
v 17.279000 -7.197000 -14.770000
v 12.876000 -11.197000 -15.209000
v 12.876000 -11.197000 -13.359000
v 13.376000 -11.197000 -15.430000
v 13.376000 -11.197000 -13.138000
v 13.876000 -11.197000 -15.616000
v 13.876000 -11.197000 -13.088000
v 14.376000 -11.197000 -15.954000
v 14.376000 -11.197000 -13.016000
v 14.876000 -11.197000 -16.165000
v 14.876000 -11.197000 -12.896000
v 15.376000 -11.197000 -16.232000
v 15.376000 -11.197000 -12.906000
v 15.876000 -11.197000 -16.122000
v 15.876000 -11.197000 -13.117000
v 16.376000 -11.197000 -15.510000
v 16.376000 -11.197000 -13.734000
v 15.376000 -7.197000 -16.696000
v 15.376000 -7.197000 -14.863000
v 15.876000 -7.197000 -16.924000
v 15.876000 -7.197000 -14.614000
v 16.376000 -7.197000 -16.913000
v 16.376000 -7.197000 -14.560000
v 16.876000 -7.197000 -16.857000
v 16.876000 -7.197000 -14.586000
v 17.376000 -7.197000 -16.596000
v 17.376000 -7.197000 -14.848000
v 13.376000 -13.367000 -15.770000
v 13.376000 -11.736000 -15.770000
v 13.876000 -14.001000 -15.770000
v 13.876000 -11.408000 -15.770000
v 14.376000 -14.199000 -15.770000
v 14.376000 -10.750000 -15.770000
v 14.876000 -14.203000 -15.770000
v 14.876000 -7.287000 -15.770000
v 15.376000 -14.187000 -15.770000
v 15.376000 -6.772000 -15.770000
v 15.876000 -13.972000 -15.770000
v 15.876000 -6.590000 -15.770000
v 16.376000 -13.270000 -15.770000
v 16.376000 -12.004000 -15.770000
v 16.376000 -10.766000 -15.770000
v 16.376000 -6.580000 -15.770000
v 16.876000 -10.206000 -15.770000
v 16.876000 -6.596000 -15.770000
v 17.376000 -9.680000 -15.770000
v 17.376000 -6.803000 -15.770000
v 17.876000 -8.542000 -15.770000
v 17.876000 -7.394000 -15.770000
v 14.420000 -10.697000 -15.770000
v 16.420000 -10.697000 -15.770000
v 13.959000 -10.697000 -15.270000
v 16.569000 -10.697000 -15.270000
v 13.281000 -10.697000 -14.770000
v 16.503000 -10.697000 -14.770000
v 13.011000 -10.697000 -14.270000
v 16.372000 -10.697000 -14.270000
v 13.331000 -10.697000 -13.770000
v 16.191000 -10.697000 -13.770000
v 14.445000 -10.697000 -13.270000
v 15.756000 -10.697000 -13.270000
v 15.791000 -6.697000 -16.270000
v 16.811000 -6.697000 -16.270000
v 15.519000 -6.697000 -15.770000
v 17.186000 -6.697000 -15.770000
v 15.824000 -6.697000 -15.270000
v 16.976000 -6.697000 -15.270000
v 13.376000 -10.697000 -14.818000
v 13.376000 -10.697000 -13.750000
v 13.876000 -10.697000 -15.181000
v 13.876000 -10.697000 -13.604000
v 14.376000 -10.697000 -15.733000
v 14.376000 -10.697000 -13.315000
v 14.876000 -10.697000 -16.054000
v 14.876000 -10.697000 -13.094000
v 15.376000 -10.697000 -16.202000
v 15.376000 -10.697000 -13.105000
v 15.876000 -10.697000 -16.209000
v 15.876000 -10.697000 -13.361000
v 16.376000 -10.697000 -15.839000
v 16.376000 -10.697000 -14.284000
v 15.876000 -6.697000 -16.314000
v 15.876000 -6.697000 -15.245000
v 16.376000 -6.697000 -16.309000
v 16.376000 -6.697000 -15.176000
v 16.876000 -6.697000 -16.240000
v 16.876000 -6.697000 -15.203000
v 12.876000 -12.951000 -15.270000
v 12.876000 -11.276000 -15.270000
v 13.376000 -13.633000 -15.270000
v 13.376000 -11.002000 -15.270000
v 13.876000 -14.122000 -15.270000
v 13.876000 -10.759000 -15.270000
v 14.376000 -14.303000 -15.270000
v 14.376000 -10.294000 -15.270000
v 14.876000 -14.302000 -15.270000
v 14.876000 -7.514000 -15.270000
v 15.376000 -14.284000 -15.270000
v 15.376000 -6.886000 -15.270000
v 15.876000 -14.086000 -15.270000
v 15.876000 -6.687000 -15.270000
v 16.376000 -13.529000 -15.270000
v 16.376000 -6.660000 -15.270000
v 16.876000 -10.134000 -15.270000
v 16.876000 -6.672000 -15.270000
v 17.376000 -9.450000 -15.270000
v 17.376000 -6.893000 -15.270000
v 17.876000 -8.325000 -15.270000
v 17.876000 -7.610000 -15.270000
f 101 269 35
f 35 269 267
f 269 335 267
f 337 335 269
f 337 102 335
f 335 102 36
f 103 201 37
f 37 201 199
f 35 199 201
f 35 201 101
f 413 36 102
f 413 102 415
f 415 104 413
f 413 104 38
f 105 131 39
f 39 131 129
f 37 129 131
f 37 131 103
f 483 38 104
f 483 104 485
f 485 106 483
f 483 106 40
f 107 65 41
f 41 65 63
f 39 63 65
f 39 65 105
f 40 108 42
f 106 108 40
f 20 5 43
f 41 5 20
f 109 41 20
f 107 41 109
f 42 110 44
f 108 110 42
f 45 22 43
f 43 22 20
f 109 20 22
f 109 22 111
f 13 44 110
f 13 110 15
f 92 77 112
f 77 15 112
f 77 13 15
f 164 145 92
f 92 145 77
f 236 215 164
f 164 215 145
f 306 283 236
f 236 283 215
f 306 46 283
f 6 22 45
f 111 22 6
f 47 111 6
f 113 111 47
f 79 92 112
f 92 79 147
f 92 147 164
f 164 147 217
f 164 217 236
f 236 217 285
f 236 285 306
f 114 376 351
f 114 351 46
f 285 114 46
f 306 285 46
f 376 48 351
f 66 113 90
f 113 49 90
f 113 47 49
f 115 66 90
f 353 376 114
f 116 450 429
f 116 429 48
f 353 116 48
f 376 353 48
f 450 50 429
f 64 90 49
f 132 115 162
f 162 115 51
f 115 90 51
f 90 64 51
f 117 132 162
f 486 118 510
f 486 510 32
f 486 32 16
f 119 16 32
f 120 452 450
f 120 450 116
f 50 450 52
f 52 450 452
f 130 162 51
f 162 130 117
f 130 202 117
f 130 200 202
f 268 202 200
f 268 270 202
f 336 270 268
f 336 338 270
f 414 338 336
f 414 416 338
f 118 416 510
f 416 484 510
f 416 414 484
f 14 32 484
f 484 32 510
f 32 14 119
f 14 80 119
f 14 78 80
f 78 53 172
f 148 78 172
f 80 78 148
f 121 148 172
f 354 122 382
f 452 120 354
f 382 452 354
f 454 452 382
f 52 452 54
f 54 452 454
f 146 172 53
f 218 121 246
f 246 121 55
f 121 172 55
f 172 146 55
f 218 246 316
f 218 316 286
f 382 122 286
f 316 382 286
f 384 382 316
f 430 454 56
f 454 384 56
f 454 382 384
f 54 454 430
f 216 246 55
f 284 316 216
f 216 316 246
f 352 384 284
f 284 384 316
f 56 384 352
f 175 271 101
f 101 271 269
f 271 337 269
f 339 337 271
f 339 176 337
f 337 176 102
f 177 203 103
f 103 203 201
f 101 201 203
f 101 203 175
f 415 102 176
f 415 176 417
f 417 178 415
f 415 178 104
f 179 133 105
f 105 133 131
f 103 131 133
f 103 133 177
f 485 104 178
f 485 178 487
f 487 180 485
f 485 180 106
f 82 65 107
f 105 65 82
f 181 105 82
f 179 105 181
f 106 182 108
f 180 182 106
f 82 107 67
f 107 183 67
f 107 109 183
f 181 82 67
f 108 184 110
f 182 184 108
f 185 109 111
f 185 183 109
f 15 110 184
f 15 184 17
f 17 186 15
f 15 186 112
f 68 185 88
f 185 113 88
f 185 111 113
f 187 68 88
f 188 94 79
f 112 188 79
f 186 188 112
f 166 147 94
f 94 147 79
f 238 217 166
f 166 217 147
f 308 285 238
f 238 285 217
f 308 114 285
f 66 88 113
f 134 187 160
f 160 187 115
f 187 88 115
f 88 66 115
f 189 134 160
f 18 190 30
f 94 188 18
f 30 94 18
f 96 94 30
f 168 94 96
f 166 94 168
f 240 166 168
f 238 166 240
f 310 238 240
f 308 238 310
f 114 308 353
f 308 378 353
f 308 310 378
f 378 116 353
f 132 160 115
f 204 189 234
f 234 189 117
f 189 160 117
f 160 132 117
f 204 234 304
f 204 304 272
f 191 272 304
f 488 192 118
f 488 118 486
f 190 488 30
f 488 16 30
f 488 486 16
f 119 98 16
f 98 30 16
f 98 96 30
f 170 96 98
f 168 96 170
f 242 168 170
f 240 168 242
f 312 240 242
f 310 240 312
f 380 310 312
f 378 310 380
f 116 378 120
f 120 378 380
f 202 234 117
f 270 304 202
f 202 304 234
f 304 270 191
f 270 340 191
f 270 338 340
f 416 340 338
f 416 418 340
f 416 118 418
f 418 118 192
f 80 98 119
f 148 170 80
f 80 170 98
f 121 244 148
f 244 170 148
f 244 242 170
f 314 242 244
f 312 242 314
f 354 380 122
f 380 314 122
f 380 312 314
f 120 380 354
f 218 244 121
f 286 314 218
f 218 314 244
f 122 314 286
f 288 271 175
f 356 339 288
f 288 339 271
f 356 176 339
f 220 203 177
f 273 288 175
f 273 175 203
f 247 273 203
f 220 247 203
f 288 273 341
f 288 341 356
f 248 432 417
f 248 417 176
f 341 248 176
f 356 341 176
f 432 178 417
f 150 133 179
f 205 220 177
f 205 177 133
f 249 205 133
f 150 249 133
f 247 220 205
f 419 432 248
f 250 498 487
f 250 487 178
f 419 250 178
f 432 419 178
f 498 180 487
f 181 152 179
f 179 152 150
f 249 150 152
f 249 152 251
f 252 500 498
f 252 498 250
f 180 498 182
f 182 498 500
f 84 67 183
f 135 152 181
f 135 181 67
f 253 135 67
f 84 253 67
f 251 152 135
f 254 502 500
f 254 500 252
f 182 500 184
f 184 500 502
f 185 86 183
f 183 86 84
f 253 84 86
f 253 86 255
f 489 502 254
f 256 26 17
f 256 17 184
f 489 256 184
f 502 489 184
f 26 186 17
f 68 86 185
f 136 255 158
f 158 255 187
f 255 86 187
f 86 68 187
f 257 136 158
f 258 28 26
f 258 26 256
f 186 26 188
f 188 26 28
f 134 158 187
f 206 257 232
f 232 257 189
f 257 158 189
f 158 134 189
f 206 232 302
f 206 302 274
f 259 274 302
f 490 260 508
f 28 258 490
f 28 490 508
f 18 28 508
f 190 18 508
f 188 28 18
f 204 232 189
f 272 302 204
f 204 302 232
f 342 259 372
f 372 259 191
f 259 302 191
f 302 272 191
f 342 372 446
f 342 446 420
f 508 260 420
f 508 420 446
f 488 508 446
f 192 488 446
f 190 508 488
f 340 372 191
f 418 446 340
f 340 446 372
f 192 446 418
f 319 137 165
f 165 137 237
f 237 137 207
f 237 207 307
f 307 207 275
f 307 275 375
f 375 275 343
f 343 320 375
f 321 69 95
f 319 165 69
f 165 95 69
f 165 167 95
f 165 239 167
f 165 237 239
f 237 309 239
f 237 307 309
f 307 377 309
f 307 375 377
f 421 449 320
f 449 375 320
f 449 377 375
f 421 322 449
f 97 323 95
f 95 323 321
f 95 169 97
f 95 167 169
f 167 241 169
f 167 239 241
f 239 311 241
f 239 309 311
f 309 379 311
f 309 377 379
f 377 451 379
f 377 449 451
f 449 322 451
f 451 322 324
f 97 70 323
f 70 97 325
f 97 171 325
f 97 169 171
f 169 243 171
f 169 241 243
f 241 313 243
f 241 311 313
f 311 381 313
f 311 379 381
f 379 453 381
f 379 451 453
f 451 324 453
f 453 324 326
f 171 138 325
f 138 171 208
f 208 171 243
f 208 243 327
f 243 315 327
f 243 313 315
f 313 383 315
f 313 381 383
f 328 383 422
f 383 453 422
f 383 381 453
f 453 326 422
f 315 276 327
f 276 315 344
f 344 315 383
f 383 328 344
f 290 273 247
f 358 341 290
f 290 341 273
f 358 248 341
f 222 205 249
f 205 222 247
f 222 290 247
f 222 292 290
f 360 290 292
f 358 290 360
f 248 358 419
f 358 434 419
f 358 360 434
f 434 250 419
f 251 224 249
f 249 224 222
f 294 222 224
f 292 222 294
f 362 292 294
f 360 292 362
f 436 360 362
f 434 360 436
f 250 434 252
f 252 434 436
f 154 135 253
f 135 154 251
f 154 224 251
f 154 226 224
f 296 224 226
f 294 224 296
f 364 294 296
f 362 294 364
f 438 362 364
f 436 362 438
f 252 436 254
f 254 436 438
f 255 156 253
f 253 156 154
f 228 154 156
f 226 154 228
f 298 226 228
f 296 226 298
f 366 296 298
f 364 296 366
f 440 364 366
f 438 364 440
f 254 438 489
f 438 504 489
f 438 440 504
f 504 256 489
f 136 156 255
f 257 230 136
f 230 156 136
f 230 228 156
f 300 228 230
f 298 228 300
f 368 298 300
f 366 298 368
f 442 366 368
f 440 366 442
f 506 440 442
f 504 440 506
f 256 504 258
f 258 504 506
f 206 230 257
f 274 300 206
f 206 300 230
f 259 370 274
f 370 300 274
f 370 368 300
f 444 368 370
f 442 368 444
f 490 506 260
f 506 444 260
f 506 442 444
f 258 506 490
f 342 370 259
f 420 444 342
f 342 444 370
f 260 444 420
f 387 123 151
f 151 123 223
f 223 123 193
f 193 388 223
f 389 57 83
f 387 151 57
f 151 83 57
f 151 153 83
f 151 225 153
f 151 223 225
f 261 295 388
f 295 223 388
f 295 225 223
f 261 390 295
f 85 391 83
f 83 391 389
f 83 155 85
f 83 153 155
f 153 227 155
f 153 225 227
f 225 297 227
f 225 295 297
f 329 365 390
f 365 295 390
f 365 297 295
f 329 392 365
f 393 139 163
f 163 139 235
f 235 139 209
f 235 209 305
f 305 209 277
f 305 277 373
f 373 277 345
f 345 394 373
f 87 395 85
f 85 395 391
f 85 157 87
f 85 155 157
f 155 229 157
f 155 227 229
f 227 299 229
f 227 297 299
f 297 367 299
f 297 365 367
f 365 392 367
f 367 392 396
f 397 7 27
f 27 7 93
f 93 7 71
f 393 163 71
f 71 163 93
f 163 137 93
f 137 319 93
f 235 207 137
f 235 137 163
f 305 275 207
f 305 207 235
f 373 343 275
f 373 275 305
f 394 423 447
f 394 447 320
f 373 394 320
f 343 373 320
f 423 398 447
f 87 58 395
f 58 87 399
f 87 159 399
f 87 157 159
f 157 231 159
f 157 229 231
f 229 301 231
f 229 299 301
f 400 301 330
f 301 367 330
f 301 299 367
f 367 396 330
f 29 401 27
f 27 401 397
f 93 69 321
f 29 93 321
f 27 93 29
f 93 319 69
f 447 421 320
f 398 491 511
f 398 511 322
f 447 398 322
f 421 447 322
f 491 402 511
f 159 124 399
f 124 159 194
f 194 159 231
f 194 231 262
f 262 231 301
f 301 400 262
f 31 403 29
f 29 403 401
f 29 321 323
f 29 323 31
f 513 324 322
f 513 322 511
f 511 402 513
f 513 402 404
f 31 8 403
f 99 405 70
f 70 405 323
f 405 8 323
f 8 31 323
f 325 99 70
f 324 513 492
f 406 324 492
f 326 324 406
f 513 404 492
f 99 72 405
f 173 407 138
f 138 407 325
f 407 72 325
f 72 99 325
f 208 245 173
f 208 173 138
f 327 245 208
f 422 455 328
f 422 326 455
f 326 408 455
f 326 406 408
f 173 140 407
f 140 173 210
f 210 173 245
f 327 276 245
f 276 210 245
f 276 278 210
f 344 278 276
f 344 346 278
f 455 424 328
f 424 344 328
f 424 346 344
f 455 408 424
f 457 125 149
f 149 125 221
f 221 125 195
f 221 195 291
f 291 195 263
f 263 458 291
f 459 59 81
f 457 149 59
f 59 149 81
f 149 123 81
f 123 387 81
f 221 193 123
f 221 123 149
f 293 388 193
f 221 293 193
f 291 293 221
f 331 361 458
f 361 291 458
f 361 293 291
f 331 460 361
f 461 1 19
f 459 81 1
f 1 81 19
f 81 57 19
f 57 389 19
f 81 387 57
f 293 261 388
f 363 390 261
f 293 363 261
f 361 363 293
f 409 437 460
f 437 361 460
f 437 363 361
f 409 462 437
f 21 463 19
f 19 463 461
f 19 389 391
f 19 391 21
f 363 329 390
f 439 392 329
f 363 439 329
f 437 439 363
f 479 503 462
f 503 437 462
f 503 439 437
f 503 479 25
f 25 479 9
f 25 9 91
f 91 9 73
f 91 73 393
f 73 139 393
f 73 141 139
f 141 209 139
f 211 209 141
f 211 277 209
f 279 277 211
f 279 345 277
f 347 345 279
f 347 464 345
f 345 464 394
f 21 2 463
f 465 2 21
f 391 465 21
f 395 465 391
f 441 396 392
f 441 392 439
f 439 505 441
f 439 503 505
f 25 7 397
f 505 25 397
f 503 25 505
f 91 71 7
f 91 7 25
f 91 393 71
f 423 394 464
f 423 464 425
f 425 466 423
f 423 466 398
f 89 467 58
f 467 395 58
f 467 465 395
f 399 89 58
f 330 369 400
f 369 330 396
f 441 369 396
f 443 369 441
f 441 507 443
f 441 505 507
f 505 397 401
f 505 401 507
f 491 398 466
f 491 466 493
f 493 468 491
f 491 468 402
f 89 60 467
f 161 469 124
f 124 469 399
f 469 60 399
f 60 89 399
f 194 233 161
f 194 161 124
f 262 303 233
f 262 233 194
f 369 332 400
f 400 332 262
f 332 470 262
f 470 303 262
f 332 369 410
f 410 369 443
f 410 443 471
f 443 509 471
f 443 507 509
f 507 401 403
f 507 403 509
f 402 472 404
f 468 472 402
f 161 126 469
f 126 161 196
f 196 161 233
f 196 233 264
f 264 233 303
f 303 470 264
f 509 480 471
f 33 473 8
f 8 473 403
f 473 480 403
f 480 509 403
f 405 33 8
f 492 515 406
f 492 404 515
f 404 474 515
f 404 472 474
f 33 10 473
f 405 72 33
f 72 10 33
f 72 74 10
f 475 74 72
f 475 72 407
f 406 515 494
f 476 406 494
f 408 406 476
f 515 474 494
f 407 140 475
f 475 140 142
f 210 142 140
f 210 212 142
f 278 317 477
f 212 278 477
f 210 278 212
f 346 385 317
f 346 317 278
f 426 478 385
f 346 426 385
f 424 426 346
f 424 408 426
f 426 408 476
f 317 280 477
f 280 317 348
f 348 317 385
f 385 478 348
f 517 197 219
f 219 197 289
f 289 197 265
f 289 265 357
f 357 265 333
f 333 518 357
f 519 127 457
f 457 127 125
f 127 517 219
f 195 127 219
f 125 127 195
f 289 263 195
f 289 195 219
f 359 458 263
f 289 359 263
f 357 359 289
f 411 433 518
f 433 357 518
f 433 359 357
f 411 520 433
f 521 61 459
f 459 61 59
f 457 59 61
f 457 61 519
f 359 331 458
f 435 460 331
f 359 435 331
f 433 435 359
f 433 520 435
f 435 520 522
f 523 3 461
f 461 3 1
f 459 1 3
f 459 3 521
f 435 409 460
f 522 481 501
f 522 501 462
f 435 522 462
f 409 435 462
f 481 524 501
f 525 461 463
f 525 523 461
f 501 479 462
f 479 501 524
f 11 479 524
f 9 479 11
f 11 73 9
f 75 73 11
f 75 141 73
f 143 141 75
f 143 211 141
f 213 211 143
f 213 279 211
f 281 279 213
f 281 347 279
f 349 347 281
f 349 526 347
f 347 526 464
f 23 527 2
f 527 463 2
f 527 525 463
f 465 23 2
f 425 464 526
f 425 526 427
f 427 528 425
f 425 528 466
f 23 4 527
f 529 4 23
f 465 529 23
f 467 529 465
f 493 466 528
f 493 528 495
f 495 530 493
f 493 530 468
f 467 60 529
f 529 60 62
f 531 62 60
f 531 60 469
f 332 371 470
f 410 445 371
f 410 371 332
f 471 445 410
f 468 532 472
f 530 532 468
f 469 126 531
f 531 126 128
f 196 128 126
f 196 198 128
f 264 198 196
f 264 266 198
f 371 334 470
f 334 264 470
f 334 266 264
f 334 371 412
f 412 371 445
f 471 480 445
f 480 412 445
f 480 482 412
f 480 473 34
f 12 480 34
f 482 480 12
f 533 12 34
f 472 534 474
f 532 534 472
f 10 34 473
f 34 10 533
f 10 76 533
f 10 74 76
f 535 76 74
f 535 74 475
f 496 536 476
f 496 476 494
f 494 474 496
f 496 474 534
f 475 142 535
f 535 142 144
f 212 144 142
f 212 214 144
f 537 214 212
f 537 212 477
f 428 538 478
f 428 478 426
f 426 476 428
f 428 476 536
f 477 280 537
f 537 280 282
f 348 282 280
f 348 350 282
f 348 478 350
f 350 478 538
f 35 267 287
f 287 267 355
f 355 267 335
f 335 36 355
f 37 199 517
f 517 199 197
f 199 35 287
f 265 199 287
f 197 199 265
f 355 333 265
f 355 265 287
f 36 413 431
f 36 431 518
f 355 36 518
f 333 355 518
f 413 38 431
f 39 129 519
f 519 129 127
f 517 127 129
f 517 129 37
f 431 411 518
f 38 483 497
f 38 497 520
f 431 38 520
f 411 431 520
f 483 40 497
f 41 63 521
f 521 63 61
f 519 61 63
f 519 63 39
f 499 522 520
f 499 520 497
f 497 40 499
f 499 40 42
f 43 5 523
f 523 5 3
f 521 3 5
f 521 5 41
f 499 481 522
f 499 42 481
f 42 524 481
f 42 44 524
f 45 523 525
f 45 43 523
f 11 524 44
f 11 44 13
f 13 75 11
f 77 75 13
f 77 143 75
f 145 143 77
f 145 213 143
f 215 213 145
f 215 281 213
f 283 281 215
f 374 349 46
f 349 283 46
f 349 281 283
f 374 526 349
f 6 45 24
f 45 527 24
f 45 525 527
f 47 6 24
f 351 374 46
f 48 448 427
f 48 427 526
f 351 48 526
f 374 351 526
f 448 528 427
f 4 24 527
f 47 24 4
f 529 47 4
f 49 47 529
f 429 448 48
f 50 512 495
f 50 495 528
f 429 50 528
f 448 429 528
f 512 530 495
f 529 62 49
f 49 62 64
f 51 64 62
f 51 62 531
f 52 514 512
f 52 512 50
f 530 512 532
f 532 512 514
f 531 128 51
f 51 128 130
f 198 130 128
f 198 200 130
f 266 200 198
f 266 268 200
f 334 268 266
f 334 336 268
f 412 336 334
f 412 414 336
f 482 414 412
f 482 484 414
f 12 484 482
f 12 14 484
f 12 533 100
f 78 12 100
f 14 12 78
f 53 78 100
f 54 516 514
f 54 514 52
f 532 514 534
f 534 514 516
f 76 100 533
f 146 53 174
f 174 53 535
f 53 100 535
f 100 76 535
f 55 146 174
f 430 56 456
f 516 54 430
f 516 430 456
f 496 516 456
f 536 496 456
f 534 516 496
f 144 174 535
f 174 144 55
f 144 216 55
f 144 214 216
f 214 537 318
f 284 214 318
f 216 214 284
f 284 318 386
f 284 386 352
f 456 56 352
f 456 352 386
f 428 456 386
f 538 428 386
f 536 456 428
f 282 318 537
f 350 386 282
f 282 386 318
f 538 386 350
