# Converted from NanoShaper .vert/.face
v -7.247000 -12.335000 3.565000
v -4.828000 -12.335000 3.565000
v -7.741000 -12.335000 4.065000
v -4.457000 -12.335000 4.065000
v -7.873000 -12.335000 4.565000
v -4.344000 -12.335000 4.565000
v -8.057000 -12.335000 5.065000
v -4.329000 -12.335000 5.065000
v -8.377000 -12.335000 5.565000
v -4.356000 -12.335000 5.565000
v -8.465000 -12.335000 6.065000
v -4.463000 -12.335000 6.065000
v -8.336000 -12.335000 6.565000
v -4.823000 -12.335000 6.565000
v -7.866000 -12.335000 7.065000
v -5.283000 -12.335000 7.065000
v -7.967000 -12.335000 4.893000
v -7.967000 -12.335000 6.998000
v -7.467000 -12.335000 3.715000
v -7.467000 -12.335000 7.242000
v -6.967000 -12.335000 3.461000
v -6.967000 -12.335000 7.406000
v -6.467000 -12.335000 3.385000
v -6.467000 -12.335000 7.446000
v -5.967000 -12.335000 3.262000
v -5.967000 -12.335000 7.426000
v -5.467000 -12.335000 3.261000
v -5.467000 -12.335000 7.215000
v -4.967000 -12.335000 3.461000
v -4.967000 -12.335000 6.696000
v -4.467000 -12.335000 4.041000
v -4.467000 -12.335000 6.075000
v -8.967000 -10.915000 4.565000
v -8.967000 -10.288000 4.565000
v -8.467000 -11.654000 4.565000
v -8.467000 -9.549000 4.565000
v -7.967000 -12.195000 4.565000
v -7.967000 -9.329000 4.565000
v -7.467000 -12.729000 4.565000
v -7.467000 -9.259000 4.565000
v -6.967000 -13.099000 4.565000
v -6.967000 -9.256000 4.565000
v -6.467000 -13.609000 4.565000
v -6.467000 -9.461000 4.565000
v -5.967000 -13.823000 4.565000
v -5.967000 -9.743000 4.565000
v -5.467000 -13.824000 4.565000
v -5.467000 -9.969000 4.565000
v -4.967000 -13.611000 4.565000
v -4.967000 -10.456000 4.565000
v -4.467000 -12.913000 4.565000
v -4.467000 -11.095000 4.565000
v -7.613000 -11.835000 3.565000
v -4.805000 -11.835000 3.565000
v -7.997000 -11.835000 4.065000
v -4.448000 -11.835000 4.065000
v -8.264000 -11.835000 4.565000
v -4.336000 -11.835000 4.565000
v -8.476000 -11.835000 5.065000
v -4.349000 -11.835000 5.065000
v -8.768000 -11.835000 5.565000
v -4.425000 -11.835000 5.565000
v -8.875000 -11.835000 6.065000
v -4.637000 -11.835000 6.065000
v -8.753000 -11.835000 6.565000
v -5.117000 -11.835000 6.565000
v -8.274000 -11.835000 7.065000
v -5.610000 -11.835000 7.065000
v -8.467000 -11.835000 5.045000
v -8.467000 -11.835000 6.927000
v -7.967000 -11.835000 4.017000
v -7.967000 -11.835000 7.227000
v -7.467000 -11.835000 3.453000
v -7.467000 -11.835000 7.389000
v -6.967000 -11.835000 3.247000
v -6.967000 -11.835000 7.427000
v -6.467000 -11.835000 3.204000
v -6.467000 -11.835000 7.407000
v -5.967000 -11.835000 3.196000
v -5.967000 -11.835000 7.239000
v -5.467000 -11.835000 3.226000
v -5.467000 -11.835000 6.957000
v -4.967000 -11.835000 3.438000
v -4.967000 -11.835000 6.431000
v -4.467000 -11.835000 4.021000
v -4.467000 -11.835000 5.710000
v -8.967000 -11.211000 5.065000
v -8.967000 -9.993000 5.065000
v -8.467000 -11.843000 5.065000
v -8.467000 -9.426000 5.065000
v -7.967000 -12.439000 5.065000
v -7.967000 -9.226000 5.065000
v -7.467000 -12.851000 5.065000
v -7.467000 -9.181000 5.065000
v -6.967000 -13.337000 5.065000
v -6.967000 -9.179000 5.065000
v -6.467000 -13.743000 5.065000
v -6.467000 -9.371000 5.065000
v -5.967000 -13.926000 5.065000
v -5.967000 -9.658000 5.065000
v -5.467000 -13.926000 5.065000
v -5.467000 -9.874000 5.065000
v -4.967000 -13.729000 5.065000
v -4.967000 -10.361000 5.065000
v -4.467000 -13.179000 5.065000
v -4.467000 -10.962000 5.065000
v -7.640000 -11.335000 3.565000
v -4.843000 -11.335000 3.565000
v -8.327000 -11.335000 4.065000
v -4.494000 -11.335000 4.065000
v -8.779000 -11.335000 4.565000
v -4.394000 -11.335000 4.565000
v -8.902000 -11.335000 5.065000
v -4.357000 -11.335000 5.065000
v -9.007000 -11.335000 5.565000
v -4.436000 -11.335000 5.565000
v -9.093000 -11.335000 6.065000
v -4.745000 -11.335000 6.065000
v -8.992000 -11.335000 6.565000
v -5.509000 -11.335000 6.565000
v -8.641000 -11.335000 7.065000
v -6.068000 -11.335000 7.065000
v -8.967000 -11.335000 5.423000
v -8.967000 -11.335000 6.621000
v -8.467000 -11.335000 4.169000
v -8.467000 -11.335000 7.198000
v -7.967000 -11.335000 3.805000
v -7.967000 -11.335000 7.395000
v -7.467000 -11.335000 3.440000
v -7.467000 -11.335000 7.446000
v -6.967000 -11.335000 3.236000
v -6.967000 -11.335000 7.452000
v -6.467000 -11.335000 3.211000
v -6.467000 -11.335000 7.306000
v -5.967000 -11.335000 3.209000
v -5.967000 -11.335000 6.977000
v -5.467000 -11.335000 3.241000
v -5.467000 -11.335000 6.540000
v -4.967000 -11.335000 3.464000
v -4.967000 -11.335000 6.251000
v -4.467000 -11.335000 4.137000
v -4.467000 -11.335000 5.646000
v -8.967000 -11.462000 5.565000
v -8.967000 -10.215000 5.565000
v -8.467000 -12.189000 5.565000
v -8.467000 -9.527000 5.565000
v -7.967000 -12.746000 5.565000
v -7.967000 -9.311000 5.565000
v -7.467000 -13.166000 5.565000
v -7.467000 -9.253000 5.565000
v -6.967000 -13.685000 5.565000
v -6.967000 -9.246000 5.565000
v -6.467000 -13.889000 5.565000
v -6.467000 -9.429000 5.565000
v -5.967000 -13.985000 5.565000
v -5.967000 -9.739000 5.565000
v -5.467000 -13.981000 5.565000
v -5.467000 -10.003000 5.565000
v -4.967000 -13.780000 5.565000
v -4.967000 -10.469000 5.565000
v -4.467000 -13.211000 5.565000
v -4.467000 -11.189000 5.565000
v -7.439000 -10.835000 3.565000
v -5.205000 -10.835000 3.565000
v -8.634000 -10.835000 4.065000
v -4.727000 -10.835000 4.065000
v -8.985000 -10.835000 4.565000
v -4.606000 -10.835000 4.565000
v -9.087000 -10.835000 5.065000
v -4.533000 -10.835000 5.065000
v -9.071000 -10.835000 5.565000
v -4.624000 -10.835000 5.565000
v -9.111000 -10.835000 6.065000
v -5.008000 -10.835000 6.065000
v -9.011000 -10.835000 6.565000
v -5.773000 -10.835000 6.565000
v -8.668000 -10.835000 7.065000
v -6.230000 -10.835000 7.065000
v -8.967000 -10.835000 4.524000
v -8.967000 -10.835000 6.662000
v -8.467000 -10.835000 3.935000
v -8.467000 -10.835000 7.219000
v -7.967000 -10.835000 3.724000
v -7.967000 -10.835000 7.413000
v -7.467000 -10.835000 3.573000
v -7.467000 -10.835000 7.445000
v -6.967000 -10.835000 3.421000
v -6.967000 -10.835000 7.448000
v -6.467000 -10.835000 3.408000
v -6.467000 -10.835000 7.255000
v -5.967000 -10.835000 3.422000
v -5.967000 -10.835000 6.749000
v -5.467000 -10.835000 3.459000
v -5.467000 -10.835000 6.338000
v -4.967000 -10.835000 3.738000
v -4.967000 -10.835000 6.032000
v -8.967000 -11.681000 6.065000
v -8.967000 -10.391000 6.065000
v -8.467000 -12.332000 6.065000
v -8.467000 -9.805000 6.065000
v -7.967000 -12.840000 6.065000
v -7.967000 -9.555000 6.065000
v -7.467000 -13.306000 6.065000
v -7.467000 -9.341000 6.065000
v -6.967000 -13.801000 6.065000
v -6.967000 -9.326000 6.065000
v -6.467000 -13.986000 6.065000
v -6.467000 -9.518000 6.065000
v -5.967000 -13.978000 6.065000
v -5.967000 -9.970000 6.065000
v -5.467000 -13.875000 6.065000
v -5.467000 -10.458000 6.065000
v -4.967000 -13.653000 6.065000
v -4.967000 -10.880000 6.065000
v -4.467000 -12.897000 6.065000
v -4.467000 -12.316000 6.065000
v -8.625000 -10.335000 4.065000
v -5.422000 -10.335000 4.065000
v -8.978000 -10.335000 4.565000
v -5.092000 -10.335000 4.565000
v -9.081000 -10.335000 5.065000
v -4.994000 -10.335000 5.065000
v -9.004000 -10.335000 5.565000
v -5.129000 -10.335000 5.565000
v -8.937000 -10.335000 6.065000
v -5.574000 -10.335000 6.065000
v -8.822000 -10.335000 6.565000
v -6.056000 -10.335000 6.565000
v -8.387000 -10.335000 7.065000
v -6.542000 -10.335000 7.065000
v -8.967000 -10.335000 4.539000
v -8.967000 -10.335000 5.754000
v -8.467000 -10.335000 3.942000
v -8.467000 -10.335000 7.007000
v -7.967000 -10.335000 3.737000
v -7.967000 -10.335000 7.236000
v -7.467000 -10.335000 3.663000
v -7.467000 -10.335000 7.252000
v -6.967000 -10.335000 3.647000
v -6.967000 -10.335000 7.244000
v -6.467000 -10.335000 3.755000
v -6.467000 -10.335000 7.009000
v -5.967000 -10.335000 3.845000
v -5.967000 -10.335000 6.490000
v -5.467000 -10.335000 4.031000
v -5.467000 -10.335000 5.960000
v -8.967000 -11.425000 6.565000
v -8.967000 -10.648000 6.565000
v -8.467000 -12.146000 6.565000
v -8.467000 -9.967000 6.565000
v -7.967000 -12.706000 6.565000
v -7.967000 -9.757000 6.565000
v -7.467000 -13.166000 6.565000
v -7.467000 -9.648000 6.565000
v -6.967000 -13.699000 6.565000
v -6.967000 -9.631000 6.565000
v -6.467000 -13.898000 6.565000
v -6.467000 -9.898000 6.565000
v -5.967000 -13.889000 6.565000
v -5.967000 -10.440000 6.565000
v -5.467000 -13.666000 6.565000
v -5.467000 -11.378000 6.565000
v -4.967000 -13.173000 6.565000
v -4.967000 -12.038000 6.565000
v -6.270000 -13.835000 5.065000
v -5.168000 -13.835000 5.065000
v -6.666000 -13.835000 5.565000
v -5.060000 -13.835000 5.565000
v -6.909000 -13.835000 6.065000
v -5.321000 -13.835000 6.065000
v -6.701000 -13.835000 6.565000
v -5.782000 -13.835000 6.565000
v -8.279000 -9.835000 4.065000
v -6.478000 -9.835000 4.065000
v -8.756000 -9.835000 4.565000
v -5.703000 -9.835000 4.565000
v -8.878000 -9.835000 5.065000
v -5.530000 -9.835000 5.065000
v -8.777000 -9.835000 5.565000
v -5.771000 -9.835000 5.565000
v -8.508000 -9.835000 6.065000
v -6.116000 -9.835000 6.065000
v -8.227000 -9.835000 6.565000
v -6.538000 -9.835000 6.565000
v -6.467000 -13.835000 5.411000
v -6.467000 -13.835000 6.708000
v -5.967000 -13.835000 4.595000
v -5.967000 -13.835000 6.689000
v -5.467000 -13.835000 4.594000
v -5.467000 -13.835000 6.169000
v -8.467000 -9.835000 4.196000
v -8.467000 -9.835000 6.148000
v -7.967000 -9.835000 3.945000
v -7.967000 -9.835000 6.726000
v -7.467000 -9.835000 3.850000
v -7.467000 -9.835000 6.772000
v -6.967000 -9.835000 3.846000
v -6.967000 -9.835000 6.751000
v -6.467000 -9.835000 4.071000
v -6.467000 -9.835000 6.513000
v -5.967000 -9.835000 4.370000
v -5.967000 -9.835000 5.816000
v -8.467000 -11.651000 7.065000
v -8.467000 -10.421000 7.065000
v -7.967000 -12.232000 7.065000
v -7.967000 -10.103000 7.065000
v -7.467000 -12.700000 7.065000
v -7.467000 -10.095000 7.065000
v -6.967000 -13.285000 7.065000
v -6.967000 -10.116000 7.065000
v -6.467000 -13.574000 7.065000
v -6.467000 -10.407000 7.065000
v -5.967000 -13.561000 7.065000
v -5.967000 -11.484000 7.065000
v -5.467000 -13.231000 7.065000
v -5.467000 -11.978000 7.065000
v -6.270000 -13.335000 4.065000
v -5.163000 -13.335000 4.065000
v -6.752000 -13.335000 4.565000
v -4.681000 -13.335000 4.565000
v -6.969000 -13.335000 5.065000
v -4.560000 -13.335000 5.065000
v -7.320000 -13.335000 5.565000
v -4.535000 -13.335000 5.565000
v -7.444000 -13.335000 6.065000
v -4.659000 -13.335000 6.065000
v -7.333000 -13.335000 6.565000
v -5.094000 -13.335000 6.565000
v -6.917000 -13.335000 7.065000
v -5.565000 -13.335000 7.065000
v -7.995000 -9.335000 4.565000
v -6.702000 -9.335000 4.565000
v -8.303000 -9.335000 5.065000
v -6.528000 -9.335000 5.065000
v -8.065000 -9.335000 5.565000
v -6.654000 -9.335000 5.565000
v -7.441000 -9.335000 6.065000
v -6.920000 -9.335000 6.065000
v -6.967000 -13.335000 5.062000
v -6.967000 -13.335000 7.028000
v -6.467000 -13.335000 4.201000
v -6.467000 -13.335000 7.253000
v -5.967000 -13.335000 3.947000
v -5.967000 -13.335000 7.242000
v -5.467000 -13.335000 3.946000
v -5.467000 -13.335000 6.990000
v -4.967000 -13.335000 4.199000
v -4.967000 -13.335000 6.453000
v -7.967000 -9.335000 4.550000
v -7.967000 -9.335000 5.624000
v -7.467000 -9.335000 4.389000
v -7.467000 -9.335000 6.048000
v -6.967000 -9.335000 4.382000
v -6.967000 -9.335000 6.089000
v -7.467000 -12.121000 3.565000
v -7.467000 -10.866000 3.565000
v -6.967000 -12.468000 3.565000
v -6.967000 -10.551000 3.565000
v -6.467000 -12.654000 3.565000
v -6.467000 -10.624000 3.565000
v -5.967000 -12.958000 3.565000
v -5.967000 -10.659000 3.565000
v -5.467000 -12.958000 3.565000
v -5.467000 -10.703000 3.565000
v -4.967000 -12.612000 3.565000
v -4.967000 -11.077000 3.565000
v -6.234000 -12.835000 3.565000
v -5.200000 -12.835000 3.565000
v -6.997000 -12.835000 4.065000
v -4.684000 -12.835000 4.065000
v -7.314000 -12.835000 4.565000
v -4.447000 -12.835000 4.565000
v -7.489000 -12.835000 5.065000
v -4.347000 -12.835000 5.065000
v -7.840000 -12.835000 5.565000
v -4.349000 -12.835000 5.565000
v -7.974000 -12.835000 6.065000
v -4.455000 -12.835000 6.065000
v -7.807000 -12.835000 6.565000
v -4.812000 -12.835000 6.565000
v -7.320000 -12.835000 7.065000
v -5.273000 -12.835000 7.065000
v -7.967000 -12.835000 5.918000
v -7.967000 -12.835000 6.136000
v -7.467000 -12.835000 5.028000
v -7.467000 -12.835000 6.963000
v -6.967000 -12.835000 4.043000
v -6.967000 -12.835000 7.263000
v -6.467000 -12.835000 3.711000
v -6.467000 -12.835000 7.442000
v -5.967000 -12.835000 3.471000
v -5.967000 -12.835000 7.433000
v -5.467000 -12.835000 3.471000
v -5.467000 -12.835000 7.224000
v -4.967000 -12.835000 3.716000
v -4.967000 -12.835000 6.707000
v -4.467000 -12.835000 4.515000
v -4.467000 -12.835000 6.094000
v -8.467000 -11.181000 4.065000
v -8.467000 -10.022000 4.065000
v -7.967000 -11.898000 4.065000
v -7.967000 -9.681000 4.065000
v -7.467000 -12.603000 4.065000
v -7.467000 -9.568000 4.065000
v -6.967000 -12.848000 4.065000
v -6.967000 -9.564000 4.065000
v -6.467000 -13.168000 4.065000
v -6.467000 -9.843000 4.065000
v -5.967000 -13.477000 4.065000
v -5.967000 -10.065000 4.065000
v -5.467000 -13.477000 4.065000
v -5.467000 -10.311000 4.065000
v -4.967000 -13.170000 4.065000
v -4.967000 -10.592000 4.065000
v -4.467000 -12.379000 4.065000
v -4.467000 -11.506000 4.065000
f 87 169 33
f 33 169 167
f 169 219 167
f 221 219 169
f 221 88 219
f 219 88 34
f 89 59 69
f 69 59 35
f 59 111 35
f 59 113 111
f 33 111 113
f 33 113 87
f 275 34 88
f 275 88 277
f 277 90 275
f 275 90 36
f 91 7 17
f 89 69 7
f 7 69 17
f 69 57 17
f 57 37 17
f 69 35 57
f 331 36 90
f 331 90 333
f 333 92 331
f 331 92 38
f 93 373 385
f 91 17 373
f 373 17 385
f 17 5 385
f 5 39 385
f 17 37 5
f 38 94 40
f 92 94 38
f 95 321 339
f 93 385 321
f 321 385 339
f 385 371 339
f 371 41 339
f 385 39 371
f 40 96 42
f 94 96 40
f 319 43 339
f 43 95 339
f 43 97 95
f 339 41 319
f 334 98 44
f 334 44 332
f 332 42 334
f 334 42 96
f 99 265 287
f 45 287 265
f 97 45 265
f 43 45 97
f 44 100 46
f 98 100 44
f 289 101 287
f 287 101 99
f 287 45 47
f 287 47 289
f 278 102 48
f 278 48 276
f 276 46 278
f 278 46 100
f 289 266 101
f 103 266 289
f 47 103 289
f 49 103 47
f 222 104 50
f 222 50 220
f 220 48 222
f 222 48 102
f 49 320 103
f 103 320 322
f 105 322 320
f 105 320 51
f 170 106 52
f 170 52 168
f 168 50 170
f 170 50 104
f 51 372 105
f 105 372 374
f 6 374 372
f 6 8 374
f 58 8 6
f 58 60 8
f 112 60 58
f 112 114 60
f 112 52 114
f 114 52 106
f 143 115 123
f 123 115 87
f 115 169 87
f 115 171 169
f 171 221 169
f 223 221 171
f 223 144 221
f 221 144 88
f 145 61 89
f 89 61 59
f 61 143 123
f 113 61 123
f 59 61 113
f 123 87 113
f 277 88 144
f 277 144 279
f 279 146 277
f 277 146 90
f 147 9 91
f 91 9 7
f 89 7 9
f 89 9 145
f 333 90 146
f 333 146 335
f 335 148 333
f 333 148 92
f 149 375 93
f 93 375 373
f 91 373 375
f 91 375 147
f 92 150 94
f 148 150 92
f 151 323 95
f 95 323 321
f 93 321 323
f 93 323 149
f 94 152 96
f 150 152 94
f 153 267 285
f 97 285 267
f 151 97 267
f 95 97 151
f 336 154 98
f 336 98 334
f 334 96 336
f 336 96 152
f 265 99 285
f 99 153 285
f 99 155 153
f 285 97 265
f 98 156 100
f 154 156 98
f 157 99 101
f 157 155 99
f 280 158 102
f 280 102 278
f 278 100 280
f 280 100 156
f 101 266 157
f 157 266 268
f 159 268 266
f 159 266 103
f 224 160 104
f 224 104 222
f 222 102 224
f 224 102 158
f 103 322 159
f 159 322 324
f 161 324 322
f 161 322 105
f 172 162 106
f 172 106 170
f 170 104 172
f 172 104 160
f 105 374 161
f 161 374 376
f 8 376 374
f 8 10 376
f 60 10 8
f 60 62 10
f 114 62 60
f 114 116 62
f 114 106 116
f 116 106 162
f 197 117 143
f 143 117 115
f 117 171 115
f 173 171 117
f 232 223 198
f 223 173 198
f 223 171 173
f 232 144 223
f 199 63 145
f 145 63 61
f 143 61 63
f 143 63 197
f 225 232 198
f 279 144 232
f 225 279 232
f 281 279 225
f 281 200 279
f 279 200 146
f 201 377 383
f 383 377 147
f 377 9 147
f 377 11 9
f 145 9 11
f 145 11 199
f 202 350 335
f 146 202 335
f 200 202 146
f 350 148 335
f 375 149 383
f 149 201 383
f 149 203 201
f 383 147 375
f 204 352 350
f 204 350 202
f 148 350 150
f 150 350 352
f 205 325 151
f 151 325 323
f 149 323 325
f 149 325 203
f 337 352 204
f 337 206 352
f 206 150 352
f 206 152 150
f 207 269 153
f 153 269 267
f 151 267 269
f 151 269 205
f 338 208 154
f 338 154 336
f 336 152 338
f 338 152 206
f 209 153 155
f 209 207 153
f 282 210 302
f 302 156 282
f 156 208 282
f 156 154 208
f 211 155 157
f 211 209 155
f 226 212 246
f 302 210 226
f 302 226 246
f 280 302 246
f 158 280 246
f 156 302 280
f 157 268 211
f 211 268 270
f 213 270 268
f 213 268 159
f 174 214 196
f 246 212 174
f 246 174 196
f 224 246 196
f 160 224 196
f 158 246 224
f 159 324 213
f 213 324 326
f 215 326 324
f 215 324 161
f 64 216 86
f 64 86 142
f 64 142 118
f 196 214 118
f 196 118 142
f 172 196 142
f 162 172 142
f 160 196 172
f 161 376 215
f 215 376 378
f 10 378 376
f 10 12 378
f 216 12 86
f 12 62 86
f 12 10 62
f 116 142 62
f 62 142 86
f 162 142 116
f 247 119 197
f 197 119 117
f 119 173 117
f 175 173 119
f 175 248 173
f 173 248 198
f 249 65 199
f 199 65 63
f 197 63 65
f 197 65 247
f 225 198 248
f 225 248 227
f 292 281 250
f 281 227 250
f 281 225 227
f 292 200 281
f 384 377 201
f 251 13 384
f 13 377 384
f 13 11 377
f 199 11 13
f 199 13 249
f 283 292 250
f 283 252 292
f 252 200 292
f 252 202 200
f 384 201 379
f 201 253 379
f 201 203 253
f 251 384 379
f 202 254 204
f 252 254 202
f 255 327 205
f 205 327 325
f 203 325 327
f 203 327 253
f 256 354 337
f 204 256 337
f 254 256 204
f 354 206 337
f 257 271 207
f 207 271 269
f 205 269 271
f 205 271 255
f 284 258 300
f 354 256 284
f 354 284 300
f 338 354 300
f 208 338 300
f 206 354 338
f 259 207 209
f 259 257 207
f 228 260 244
f 300 258 228
f 300 228 244
f 282 300 244
f 210 282 244
f 208 300 282
f 272 259 290
f 259 211 290
f 259 209 211
f 261 272 290
f 120 262 138
f 120 138 194
f 120 194 176
f 244 260 176
f 244 176 194
f 226 244 194
f 212 226 194
f 210 244 226
f 270 290 211
f 328 261 348
f 348 261 213
f 261 290 213
f 290 270 213
f 263 328 348
f 66 264 84
f 138 262 66
f 84 138 66
f 140 138 84
f 174 194 214
f 194 140 214
f 194 138 140
f 212 194 174
f 326 348 213
f 380 263 398
f 398 263 215
f 263 348 215
f 348 326 215
f 380 398 32
f 380 32 14
f 84 264 14
f 84 14 32
f 64 84 32
f 216 64 32
f 118 140 64
f 64 140 84
f 214 140 118
f 378 398 215
f 12 32 378
f 378 32 398
f 216 32 12
f 124 119 247
f 180 175 124
f 124 175 119
f 180 248 175
f 70 65 249
f 121 124 247
f 121 247 65
f 303 121 65
f 70 303 65
f 124 121 177
f 124 177 180
f 304 234 227
f 304 227 248
f 177 304 248
f 180 177 248
f 234 250 227
f 18 13 251
f 67 70 249
f 67 249 13
f 305 67 13
f 18 305 13
f 303 70 67
f 229 234 304
f 306 294 283
f 306 283 250
f 229 306 250
f 234 229 250
f 294 252 283
f 386 379 253
f 15 18 251
f 15 251 379
f 307 15 379
f 386 307 379
f 305 18 15
f 308 296 294
f 308 294 306
f 252 294 254
f 254 294 296
f 340 327 255
f 381 386 253
f 381 253 327
f 309 381 327
f 340 309 327
f 307 386 381
f 310 298 296
f 310 296 308
f 254 296 256
f 256 296 298
f 286 271 257
f 329 340 255
f 329 255 271
f 311 329 271
f 286 311 271
f 309 340 329
f 230 312 242
f 298 310 230
f 298 230 242
f 284 298 242
f 258 284 242
f 256 298 284
f 259 288 257
f 257 288 286
f 311 286 288
f 311 288 313
f 122 314 136
f 122 136 192
f 122 192 178
f 242 312 178
f 242 178 192
f 228 242 192
f 260 228 192
f 258 242 228
f 272 288 259
f 330 313 346
f 346 313 261
f 313 288 261
f 288 272 261
f 315 330 346
f 68 316 82
f 136 314 68
f 136 68 82
f 120 136 82
f 262 120 82
f 176 192 120
f 120 192 136
f 260 192 176
f 328 346 261
f 382 315 396
f 396 315 263
f 315 346 263
f 346 328 263
f 382 396 30
f 382 30 16
f 82 316 16
f 82 16 30
f 66 82 30
f 264 66 30
f 262 82 66
f 380 396 263
f 14 30 380
f 380 30 396
f 264 30 14
f 355 53 73
f 73 53 129
f 129 53 107
f 107 356 129
f 357 1 21
f 355 73 1
f 73 21 1
f 73 75 21
f 73 131 75
f 73 129 131
f 163 187 356
f 187 129 356
f 187 131 129
f 163 358 187
f 23 359 21
f 21 359 357
f 21 77 23
f 21 75 77
f 75 133 77
f 75 131 133
f 131 189 133
f 131 187 189
f 187 358 189
f 189 358 360
f 361 367 391
f 359 23 367
f 23 391 367
f 23 25 391
f 23 79 25
f 23 77 79
f 77 135 79
f 77 133 135
f 133 191 135
f 133 189 191
f 189 360 191
f 191 360 362
f 393 363 391
f 391 363 361
f 391 27 393
f 391 25 27
f 25 81 27
f 25 79 81
f 79 137 81
f 79 135 137
f 135 193 137
f 135 191 193
f 191 362 193
f 193 362 364
f 393 368 363
f 368 393 365
f 393 29 365
f 393 27 29
f 27 83 29
f 27 81 83
f 81 139 83
f 81 137 139
f 366 139 164
f 139 193 164
f 139 137 193
f 193 364 164
f 29 2 365
f 2 29 54
f 54 29 83
f 54 83 108
f 108 83 139
f 139 366 108
f 126 121 303
f 182 177 126
f 126 177 121
f 182 304 177
f 72 67 305
f 67 72 303
f 72 126 303
f 72 128 126
f 184 126 128
f 182 126 184
f 304 182 229
f 182 236 229
f 182 184 236
f 236 306 229
f 20 15 307
f 15 20 305
f 20 72 305
f 20 74 72
f 130 72 74
f 128 72 130
f 186 128 130
f 184 128 186
f 238 184 186
f 236 184 238
f 306 236 308
f 308 236 238
f 388 381 309
f 381 388 307
f 388 20 307
f 388 22 20
f 76 20 22
f 74 20 76
f 132 74 76
f 130 74 132
f 188 130 132
f 186 130 188
f 240 186 188
f 238 186 240
f 308 238 310
f 310 238 240
f 342 329 311
f 329 342 309
f 342 388 309
f 342 390 388
f 24 388 390
f 22 388 24
f 78 22 24
f 76 22 78
f 134 76 78
f 132 76 134
f 190 132 134
f 188 132 190
f 230 240 312
f 240 190 312
f 240 188 190
f 310 240 230
f 313 344 311
f 311 344 342
f 392 342 344
f 390 342 392
f 26 390 392
f 24 390 26
f 80 24 26
f 78 24 80
f 122 134 314
f 134 80 314
f 134 78 80
f 178 190 122
f 122 190 134
f 312 190 178
f 330 344 313
f 315 394 330
f 394 344 330
f 394 392 344
f 28 392 394
f 26 392 28
f 68 80 316
f 80 28 316
f 80 26 28
f 314 80 68
f 382 394 315
f 16 28 382
f 382 28 394
f 316 28 16
f 399 165 181
f 181 165 233
f 233 165 217
f 217 400 233
f 401 55 71
f 71 55 127
f 127 55 109
f 399 181 109
f 181 127 109
f 181 183 127
f 181 235 183
f 181 233 235
f 273 293 400
f 293 233 400
f 293 235 233
f 273 402 293
f 403 3 19
f 401 71 3
f 3 71 19
f 71 53 19
f 53 355 19
f 127 107 53
f 127 53 71
f 185 356 107
f 127 185 107
f 183 185 127
f 183 237 185
f 183 235 237
f 235 295 237
f 235 293 295
f 293 402 295
f 295 402 404
f 405 369 387
f 403 19 369
f 369 19 387
f 19 1 387
f 1 357 387
f 19 355 1
f 185 163 356
f 239 358 163
f 185 239 163
f 237 239 185
f 237 297 239
f 237 295 297
f 295 404 297
f 297 404 406
f 389 407 387
f 387 407 405
f 387 357 359
f 387 359 389
f 241 360 358
f 241 358 239
f 408 241 274
f 241 297 274
f 241 239 297
f 297 406 274
f 409 317 343
f 407 389 317
f 317 389 343
f 389 367 343
f 367 361 343
f 389 359 367
f 243 362 360
f 243 360 241
f 241 408 243
f 243 408 410
f 345 411 343
f 343 411 409
f 343 361 363
f 343 363 345
f 245 364 362
f 245 362 243
f 243 410 245
f 245 410 412
f 345 318 411
f 395 413 368
f 368 413 363
f 413 318 363
f 318 345 363
f 365 395 368
f 164 195 366
f 245 218 364
f 364 218 164
f 218 414 164
f 414 195 164
f 245 412 218
f 395 370 413
f 31 415 2
f 2 415 365
f 415 370 365
f 370 395 365
f 54 85 31
f 54 31 2
f 110 416 85
f 54 110 85
f 108 110 54
f 195 166 366
f 166 108 366
f 166 110 108
f 195 414 166
f 31 4 415
f 4 31 56
f 56 31 85
f 85 416 56
f 33 167 179
f 179 167 231
f 231 167 219
f 219 34 231
f 35 111 125
f 33 179 111
f 111 179 125
f 179 165 125
f 165 399 125
f 231 217 165
f 231 165 179
f 34 275 291
f 34 291 400
f 231 34 400
f 217 231 400
f 275 36 291
f 37 57 401
f 401 57 55
f 57 35 125
f 109 57 125
f 55 57 109
f 125 399 109
f 291 273 400
f 36 331 349
f 36 349 402
f 291 36 402
f 273 291 402
f 331 38 349
f 39 5 403
f 403 5 3
f 401 3 5
f 401 5 37
f 351 404 402
f 351 402 349
f 349 38 351
f 351 38 40
f 41 371 405
f 405 371 369
f 403 369 371
f 403 371 39
f 353 406 404
f 353 404 351
f 351 40 353
f 353 40 42
f 43 319 341
f 407 341 319
f 41 407 319
f 405 407 41
f 274 299 408
f 353 332 406
f 406 332 274
f 332 44 274
f 44 299 274
f 353 42 332
f 317 409 341
f 409 43 341
f 409 45 43
f 341 407 317
f 301 410 408
f 301 408 299
f 299 44 301
f 301 44 46
f 47 409 411
f 47 45 409
f 410 301 276
f 48 410 276
f 412 410 48
f 301 46 276
f 347 49 318
f 49 411 318
f 49 47 411
f 413 347 318
f 220 50 414
f 220 414 218
f 218 412 220
f 220 412 48
f 347 320 49
f 397 51 370
f 370 51 413
f 51 320 413
f 320 347 413
f 415 397 370
f 110 141 416
f 168 52 141
f 110 168 141
f 166 168 110
f 166 414 168
f 168 414 50
f 397 372 51
f 415 4 397
f 4 372 397
f 4 6 372
f 56 6 4
f 56 58 6
f 141 112 416
f 112 56 416
f 112 58 56
f 141 52 112
