# Converted from NanoShaper .vert/.face
v 9.055000 8.493000 -16.624000
v 11.371000 8.493000 -16.624000
v 8.763000 8.493000 -16.124000
v 11.602000 8.493000 -16.124000
v 8.624000 8.493000 -15.624000
v 11.594000 8.493000 -15.624000
v 8.216000 8.493000 -15.124000
v 11.386000 8.493000 -15.124000
v 7.613000 8.493000 -14.624000
v 11.281000 8.493000 -14.624000
v 7.321000 8.493000 -14.124000
v 11.322000 8.493000 -14.124000
v 7.156000 8.493000 -13.624000
v 11.336000 8.493000 -13.624000
v 7.138000 8.493000 -13.124000
v 11.156000 8.493000 -13.124000
v 7.308000 8.493000 -12.624000
v 10.956000 8.493000 -12.624000
v 7.578000 8.493000 -12.124000
v 10.900000 8.493000 -12.124000
v 7.790000 8.493000 -11.624000
v 10.866000 8.493000 -11.624000
v 8.051000 8.493000 -11.124000
v 10.675000 8.493000 -11.124000
v 8.301000 8.493000 -10.624000
v 10.226000 8.493000 -10.624000
v 8.384000 8.493000 -10.124000
v 9.791000 8.493000 -10.124000
v 8.446000 8.493000 -9.624000
v 9.507000 8.493000 -9.624000
v 7.242000 8.493000 -13.913000
v 7.242000 8.493000 -12.766000
v 7.742000 8.493000 -14.757000
v 7.742000 8.493000 -11.744000
v 8.242000 8.493000 -15.149000
v 8.242000 8.493000 -10.775000
v 8.742000 8.493000 -16.032000
v 8.742000 8.493000 -9.359000
v 9.242000 8.493000 -16.786000
v 9.242000 8.493000 -9.372000
v 9.742000 8.493000 -17.030000
v 9.742000 8.493000 -10.056000
v 10.242000 8.493000 -17.104000
v 10.242000 8.493000 -10.641000
v 10.742000 8.493000 -17.036000
v 10.742000 8.493000 -11.244000
v 11.242000 8.493000 -16.763000
v 11.242000 8.493000 -13.294000
v 7.242000 8.182000 -13.624000
v 7.242000 10.041000 -13.624000
v 7.742000 7.563000 -13.624000
v 7.742000 11.394000 -13.624000
v 8.242000 7.078000 -13.624000
v 8.242000 11.933000 -13.624000
v 8.742000 6.551000 -13.624000
v 8.742000 12.143000 -13.624000
v 9.242000 6.355000 -13.624000
v 9.242000 12.153000 -13.624000
v 9.742000 6.350000 -13.624000
v 9.742000 11.969000 -13.624000
v 10.242000 6.398000 -13.624000
v 10.242000 11.485000 -13.624000
v 10.742000 6.596000 -13.624000
v 10.742000 9.753000 -13.624000
v 11.242000 7.164000 -13.624000
v 11.242000 8.807000 -13.624000
v 7.742000 9.164000 -9.624000
v 7.742000 10.402000 -9.624000
v 8.242000 8.600000 -9.624000
v 8.242000 11.242000 -9.624000
v 8.742000 8.406000 -9.624000
v 8.742000 11.460000 -9.624000
v 9.242000 8.411000 -9.624000
v 9.242000 11.444000 -9.624000
v 9.742000 8.619000 -9.624000
v 9.742000 11.184000 -9.624000
v 10.242000 9.231000 -9.624000
v 10.242000 10.279000 -9.624000
v 8.602000 8.993000 -16.624000
v 10.894000 8.993000 -16.624000
v 8.342000 8.993000 -16.124000
v 11.176000 8.993000 -16.124000
v 8.035000 8.993000 -15.624000
v 11.174000 8.993000 -15.624000
v 7.476000 8.993000 -15.124000
v 11.071000 8.993000 -15.124000
v 7.261000 8.993000 -14.624000
v 11.024000 8.993000 -14.624000
v 7.128000 8.993000 -14.124000
v 11.129000 8.993000 -14.124000
v 7.105000 8.993000 -13.624000
v 11.143000 8.993000 -13.624000
v 7.132000 8.993000 -13.124000
v 10.972000 8.993000 -13.124000
v 7.182000 8.993000 -12.624000
v 10.890000 8.993000 -12.624000
v 7.401000 8.993000 -12.124000
v 10.876000 8.993000 -12.124000
v 7.617000 8.993000 -11.624000
v 10.865000 8.993000 -11.624000
v 7.774000 8.993000 -11.124000
v 10.674000 8.993000 -11.124000
v 7.843000 8.993000 -10.624000
v 10.397000 8.993000 -10.624000
v 7.820000 8.993000 -10.124000
v 10.203000 8.993000 -10.124000
v 7.839000 8.993000 -9.624000
v 10.114000 8.993000 -9.624000
v 8.110000 8.993000 -9.124000
v 9.843000 8.993000 -9.124000
v 7.242000 8.993000 -14.550000
v 7.242000 8.993000 -12.425000
v 7.742000 8.993000 -15.390000
v 7.742000 8.993000 -11.230000
v 8.242000 8.993000 -15.902000
v 8.242000 8.993000 -9.001000
v 8.742000 8.993000 -16.764000
v 8.742000 8.993000 -8.767000
v 9.242000 8.993000 -17.020000
v 9.242000 8.993000 -8.773000
v 9.742000 8.993000 -17.086000
v 9.742000 8.993000 -9.026000
v 10.242000 8.993000 -17.013000
v 10.242000 8.993000 -10.253000
v 10.742000 8.993000 -16.761000
v 10.742000 8.993000 -11.245000
v 9.242000 9.216000 -17.124000
v 9.242000 10.174000 -17.124000
v 9.742000 9.156000 -17.124000
v 9.742000 10.207000 -17.124000
v 10.242000 7.107000 -17.124000
v 10.242000 8.421000 -17.124000
v 10.742000 7.146000 -17.124000
v 10.742000 8.335000 -17.124000
v 7.242000 8.136000 -13.124000
v 7.242000 9.759000 -13.124000
v 7.742000 7.525000 -13.124000
v 7.742000 11.345000 -13.124000
v 8.242000 7.024000 -13.124000
v 8.242000 11.933000 -13.124000
v 8.742000 6.550000 -13.124000
v 8.742000 12.137000 -13.124000
v 9.242000 6.354000 -13.124000
v 9.242000 12.142000 -13.124000
v 9.742000 6.357000 -13.124000
v 9.742000 11.950000 -13.124000
v 10.242000 6.544000 -13.124000
v 10.242000 11.400000 -13.124000
v 10.742000 6.827000 -13.124000
v 10.742000 9.387000 -13.124000
v 8.242000 8.865000 -9.124000
v 8.242000 10.647000 -9.124000
v 8.742000 8.625000 -9.124000
v 8.742000 10.938000 -9.124000
v 9.242000 8.631000 -9.124000
v 9.242000 10.920000 -9.124000
v 9.742000 8.891000 -9.124000
v 9.742000 10.618000 -9.124000
v 9.006000 9.493000 -17.124000
v 10.042000 9.493000 -17.124000
v 8.382000 9.493000 -16.624000
v 10.703000 9.493000 -16.624000
v 8.139000 9.493000 -16.124000
v 10.942000 9.493000 -16.124000
v 7.738000 9.493000 -15.624000
v 10.951000 9.493000 -15.624000
v 7.252000 9.493000 -15.124000
v 10.934000 9.493000 -15.124000
v 7.076000 9.493000 -14.624000
v 10.916000 9.493000 -14.624000
v 7.077000 9.493000 -14.124000
v 10.931000 9.493000 -14.124000
v 7.104000 9.493000 -13.624000
v 10.830000 9.493000 -13.624000
v 7.154000 9.493000 -13.124000
v 10.696000 9.493000 -13.124000
v 7.198000 9.493000 -12.624000
v 10.662000 9.493000 -12.624000
v 7.408000 9.493000 -12.124000
v 10.670000 9.493000 -12.124000
v 7.584000 9.493000 -11.624000
v 10.668000 9.493000 -11.624000
v 7.648000 9.493000 -11.124000
v 10.530000 9.493000 -11.124000
v 7.658000 9.493000 -10.624000
v 10.431000 9.493000 -10.624000
v 7.617000 9.493000 -10.124000
v 10.383000 9.493000 -10.124000
v 7.633000 9.493000 -9.624000
v 10.320000 9.493000 -9.624000
v 7.853000 9.493000 -9.124000
v 10.100000 9.493000 -9.124000
v 8.508000 9.493000 -8.624000
v 9.445000 9.493000 -8.624000
v 7.242000 9.493000 -15.106000
v 7.242000 9.493000 -12.470000
v 7.742000 9.493000 -15.627000
v 7.742000 9.493000 -9.312000
v 8.242000 9.493000 -16.364000
v 8.242000 9.493000 -8.755000
v 8.742000 9.493000 -16.983000
v 8.742000 9.493000 -8.562000
v 9.242000 9.493000 -17.196000
v 9.242000 9.493000 -8.568000
v 9.742000 9.493000 -17.208000
v 9.742000 9.493000 -8.774000
v 10.242000 9.493000 -17.025000
v 10.242000 9.493000 -9.378000
v 10.742000 9.493000 -16.571000
v 10.742000 9.493000 -13.323000
v 8.742000 8.840000 -16.624000
v 8.742000 10.553000 -16.624000
v 9.242000 7.931000 -16.624000
v 9.242000 10.840000 -16.624000
v 9.742000 6.776000 -16.624000
v 9.742000 10.849000 -16.624000
v 10.242000 6.564000 -16.624000
v 10.242000 10.606000 -16.624000
v 10.742000 6.585000 -16.624000
v 10.742000 9.316000 -16.624000
v 11.242000 6.852000 -16.624000
v 11.242000 8.628000 -16.624000
v 7.242000 8.739000 -12.624000
v 7.242000 9.648000 -12.624000
v 7.742000 7.660000 -12.624000
v 7.742000 10.970000 -12.624000
v 8.242000 7.066000 -12.624000
v 8.242000 11.715000 -12.624000
v 8.742000 6.777000 -12.624000
v 8.742000 11.957000 -12.624000
v 9.242000 6.552000 -12.624000
v 9.242000 11.963000 -12.624000
v 9.742000 6.556000 -12.624000
v 9.742000 11.736000 -12.624000
v 10.242000 6.799000 -12.624000
v 10.242000 10.979000 -12.624000
v 10.742000 7.292000 -12.624000
v 10.742000 9.356000 -12.624000
v 8.742000 9.272000 -8.624000
v 8.742000 10.237000 -8.624000
v 9.242000 9.287000 -8.624000
v 9.242000 10.222000 -8.624000
v 9.054000 9.993000 -17.124000
v 9.994000 9.993000 -17.124000
v 8.403000 9.993000 -16.624000
v 10.644000 9.993000 -16.624000
v 8.124000 9.993000 -16.124000
v 10.862000 9.993000 -16.124000
v 7.713000 9.993000 -15.624000
v 10.885000 9.993000 -15.624000
v 7.259000 9.993000 -15.124000
v 10.888000 9.993000 -15.124000
v 7.081000 9.993000 -14.624000
v 10.896000 9.993000 -14.624000
v 7.097000 9.993000 -14.124000
v 10.850000 9.993000 -14.124000
v 7.233000 9.993000 -13.624000
v 10.667000 9.993000 -13.624000
v 7.345000 9.993000 -13.124000
v 10.504000 9.993000 -13.124000
v 7.407000 9.993000 -12.624000
v 10.455000 9.993000 -12.624000
v 7.537000 9.993000 -12.124000
v 10.449000 9.993000 -12.124000
v 7.620000 9.993000 -11.624000
v 10.468000 9.993000 -11.624000
v 7.622000 9.993000 -11.124000
v 10.422000 9.993000 -11.124000
v 7.606000 9.993000 -10.624000
v 10.392000 9.993000 -10.624000
v 7.585000 9.993000 -10.124000
v 10.378000 9.993000 -10.124000
v 7.629000 9.993000 -9.624000
v 10.325000 9.993000 -9.624000
v 7.848000 9.993000 -9.124000
v 10.106000 9.993000 -9.124000
v 8.495000 9.993000 -8.624000
v 9.458000 9.993000 -8.624000
v 7.242000 9.993000 -15.094000
v 7.242000 9.993000 -13.591000
v 7.742000 9.993000 -15.652000
v 7.742000 9.993000 -9.303000
v 8.242000 9.993000 -16.333000
v 8.242000 9.993000 -8.750000
v 8.742000 9.993000 -16.962000
v 8.742000 9.993000 -8.558000
v 9.242000 9.993000 -17.178000
v 9.242000 9.993000 -8.563000
v 9.742000 9.993000 -17.190000
v 9.742000 9.993000 -8.769000
v 10.242000 9.993000 -17.004000
v 10.242000 9.993000 -9.367000
v 10.742000 9.993000 -16.463000
v 10.742000 9.993000 -13.775000
v 8.242000 9.174000 -16.124000
v 8.242000 10.643000 -16.124000
v 8.742000 8.520000 -16.124000
v 8.742000 11.362000 -16.124000
v 9.242000 7.063000 -16.124000
v 9.242000 11.426000 -16.124000
v 9.742000 6.552000 -16.124000
v 9.742000 11.429000 -16.124000
v 10.242000 6.375000 -16.124000
v 10.242000 11.123000 -16.124000
v 10.742000 6.392000 -16.124000
v 10.742000 10.326000 -16.124000
v 11.242000 6.613000 -16.124000
v 11.242000 8.907000 -16.124000
v 11.742000 7.267000 -16.124000
v 11.742000 8.213000 -16.124000
v 7.742000 8.093000 -12.124000
v 7.742000 10.853000 -12.124000
v 8.242000 7.327000 -12.124000
v 8.242000 11.433000 -12.124000
v 8.742000 7.030000 -12.124000
v 8.742000 11.679000 -12.124000
v 9.242000 6.833000 -12.124000
v 9.242000 11.692000 -12.124000
v 9.742000 6.823000 -12.124000
v 9.742000 11.467000 -12.124000
v 10.242000 7.015000 -12.124000
v 10.242000 10.863000 -12.124000
v 10.742000 7.533000 -12.124000
v 10.742000 9.371000 -12.124000
v 9.853000 6.493000 -16.124000
v 11.035000 6.493000 -16.124000
v 9.869000 6.493000 -15.624000
v 11.020000 6.493000 -15.624000
v 9.414000 6.493000 -14.124000
v 10.534000 6.493000 -14.124000
v 8.842000 6.493000 -13.624000
v 10.550000 6.493000 -13.624000
v 8.840000 6.493000 -13.124000
v 10.132000 6.493000 -13.124000
v 8.681000 10.493000 -16.624000
v 10.365000 10.493000 -16.624000
v 8.213000 10.493000 -16.124000
v 10.660000 10.493000 -16.124000
v 7.750000 10.493000 -15.624000
v 10.830000 10.493000 -15.624000
v 7.309000 10.493000 -15.124000
v 10.891000 10.493000 -15.124000
v 7.116000 10.493000 -14.624000
v 10.891000 10.493000 -14.624000
v 7.120000 10.493000 -14.124000
v 10.730000 10.493000 -14.124000
v 7.321000 10.493000 -13.624000
v 10.513000 10.493000 -13.624000
v 7.555000 10.493000 -13.124000
v 10.410000 10.493000 -13.124000
v 7.604000 10.493000 -12.624000
v 10.380000 10.493000 -12.624000
v 7.608000 10.493000 -12.124000
v 10.369000 10.493000 -12.124000
v 7.665000 10.493000 -11.624000
v 10.396000 10.493000 -11.624000
v 7.650000 10.493000 -11.124000
v 10.393000 10.493000 -11.124000
v 7.598000 10.493000 -10.624000
v 10.363000 10.493000 -10.624000
v 7.590000 10.493000 -10.124000
v 10.321000 10.493000 -10.124000
v 7.769000 10.493000 -9.624000
v 10.158000 10.493000 -9.624000
v 8.090000 10.493000 -9.124000
v 9.864000 10.493000 -9.124000
v 9.242000 6.493000 -14.019000
v 9.242000 6.493000 -12.726000
v 9.742000 6.493000 -14.404000
v 9.742000 6.493000 -12.733000
v 10.242000 6.493000 -16.494000
v 10.242000 6.493000 -15.221000
v 10.242000 6.493000 -14.458000
v 10.242000 6.493000 -13.275000
v 10.742000 6.493000 -16.453000
v 10.742000 6.493000 -15.331000
v 7.242000 10.493000 -15.005000
v 7.242000 10.493000 -13.765000
v 7.742000 10.493000 -15.614000
v 7.742000 10.493000 -9.681000
v 8.242000 10.493000 -16.156000
v 8.242000 10.493000 -8.982000
v 8.742000 10.493000 -16.684000
v 8.742000 10.493000 -8.751000
v 9.242000 10.493000 -16.955000
v 9.242000 10.493000 -8.758000
v 9.742000 10.493000 -16.970000
v 9.742000 10.493000 -9.006000
v 10.242000 10.493000 -16.739000
v 10.242000 10.493000 -9.837000
v 10.742000 10.493000 -15.914000
v 10.742000 10.493000 -14.152000
v 7.742000 9.480000 -15.624000
v 7.742000 10.446000 -15.624000
v 8.242000 8.808000 -15.624000
v 8.242000 11.665000 -15.624000
v 8.742000 8.341000 -15.624000
v 8.742000 11.896000 -15.624000
v 9.242000 7.067000 -15.624000
v 9.242000 11.937000 -15.624000
v 9.742000 6.559000 -15.624000
v 9.742000 11.948000 -15.624000
v 10.242000 6.381000 -15.624000
v 10.242000 11.730000 -15.624000
v 10.742000 6.399000 -15.624000
v 10.742000 10.853000 -15.624000
v 11.242000 6.621000 -15.624000
v 11.242000 8.903000 -15.624000
v 11.742000 7.287000 -15.624000
v 11.742000 8.194000 -15.624000
v 7.742000 8.607000 -11.624000
v 7.742000 10.745000 -11.624000
v 8.242000 7.821000 -11.624000
v 8.242000 11.365000 -11.624000
v 8.742000 7.285000 -11.624000
v 8.742000 11.590000 -11.624000
v 9.242000 7.028000 -11.624000
v 9.242000 11.606000 -11.624000
v 9.742000 7.012000 -11.624000
v 9.742000 11.420000 -11.624000
v 10.242000 7.225000 -11.624000
v 10.242000 10.908000 -11.624000
v 10.742000 8.031000 -11.624000
v 10.742000 9.360000 -11.624000
v 9.515000 6.993000 -16.624000
v 11.374000 6.993000 -16.624000
v 9.284000 6.993000 -16.124000
v 11.605000 6.993000 -16.124000
v 9.288000 6.993000 -15.624000
v 11.597000 6.993000 -15.624000
v 9.297000 6.993000 -15.124000
v 11.352000 6.993000 -15.124000
v 9.065000 6.993000 -14.624000
v 11.136000 6.993000 -14.624000
v 8.547000 6.993000 -14.124000
v 11.138000 6.993000 -14.124000
v 8.307000 6.993000 -13.624000
v 11.144000 6.993000 -13.624000
v 8.272000 6.993000 -13.124000
v 10.911000 6.993000 -13.124000
v 8.363000 6.993000 -12.624000
v 10.451000 6.993000 -12.624000
v 8.827000 6.993000 -12.124000
v 10.204000 6.993000 -12.124000
v 8.353000 10.993000 -16.124000
v 10.366000 10.993000 -16.124000
v 7.813000 10.993000 -15.624000
v 10.705000 10.993000 -15.624000
v 7.521000 10.993000 -15.124000
v 10.889000 10.993000 -15.124000
v 7.296000 10.993000 -14.624000
v 10.880000 10.993000 -14.624000
v 7.300000 10.993000 -14.124000
v 10.670000 10.993000 -14.124000
v 7.499000 10.993000 -13.624000
v 10.440000 10.993000 -13.624000
v 7.637000 10.993000 -13.124000
v 10.373000 10.993000 -13.124000
v 7.750000 10.993000 -12.624000
v 10.238000 10.993000 -12.624000
v 7.828000 10.993000 -12.124000
v 10.173000 10.993000 -12.124000
v 7.873000 10.993000 -11.624000
v 10.190000 10.993000 -11.624000
v 7.848000 10.993000 -11.124000
v 10.191000 10.993000 -11.124000
v 7.779000 10.993000 -10.624000
v 10.169000 10.993000 -10.624000
v 7.770000 10.993000 -10.124000
v 10.141000 10.993000 -10.124000
v 7.993000 10.993000 -9.624000
v 9.918000 10.993000 -9.624000
v 8.742000 6.993000 -14.317000
v 8.742000 6.993000 -12.217000
v 9.242000 6.993000 -14.921000
v 9.242000 6.993000 -11.688000
v 9.742000 6.993000 -16.845000
v 9.742000 6.993000 -11.659000
v 10.242000 6.993000 -17.058000
v 10.242000 6.993000 -12.211000
v 10.742000 6.993000 -17.038000
v 10.742000 6.993000 -12.951000
v 11.242000 6.993000 -16.767000
v 11.242000 6.993000 -14.935000
v 7.742000 10.993000 -15.496000
v 7.742000 10.993000 -12.668000
v 8.242000 10.993000 -16.060000
v 8.242000 10.993000 -9.380000
v 8.742000 10.993000 -16.304000
v 8.742000 10.993000 -9.164000
v 9.242000 10.993000 -16.495000
v 9.242000 10.993000 -9.179000
v 9.742000 10.993000 -16.494000
v 9.742000 10.993000 -9.437000
v 10.242000 10.993000 -16.244000
v 10.242000 10.993000 -12.641000
v 10.742000 10.993000 -15.555000
v 10.742000 10.993000 -14.242000
v 7.742000 8.736000 -15.124000
v 7.742000 11.344000 -15.124000
v 8.242000 8.479000 -15.124000
v 8.242000 11.888000 -15.124000
v 8.742000 8.049000 -15.124000
v 8.742000 12.082000 -15.124000
v 9.242000 7.057000 -15.124000
v 9.242000 12.124000 -15.124000
v 9.742000 6.643000 -15.124000
v 9.742000 12.135000 -15.124000
v 10.242000 6.511000 -15.124000
v 10.242000 11.952000 -15.124000
v 10.742000 6.574000 -15.124000
v 10.742000 11.425000 -15.124000
v 11.242000 6.872000 -15.124000
v 11.242000 8.688000 -15.124000
v 7.742000 9.089000 -11.124000
v 7.742000 10.793000 -11.124000
v 8.242000 8.312000 -11.124000
v 8.242000 11.393000 -11.124000
v 8.742000 7.826000 -11.124000
v 8.742000 11.600000 -11.124000
v 9.242000 7.526000 -11.124000
v 9.242000 11.609000 -11.124000
v 9.742000 7.507000 -11.124000
v 9.742000 11.426000 -11.124000
v 10.242000 7.792000 -11.124000
v 10.242000 10.908000 -11.124000
v 9.828000 7.493000 -17.124000
v 11.061000 7.493000 -17.124000
v 9.277000 7.493000 -16.624000
v 11.612000 7.493000 -16.624000
v 9.086000 7.493000 -16.124000
v 11.803000 7.493000 -16.124000
v 9.070000 7.493000 -15.624000
v 11.796000 7.493000 -15.624000
v 9.013000 7.493000 -15.124000
v 11.589000 7.493000 -15.124000
v 8.729000 7.493000 -14.624000
v 11.379000 7.493000 -14.624000
v 8.132000 7.493000 -14.124000
v 11.348000 7.493000 -14.124000
v 7.830000 7.493000 -13.624000
v 11.350000 7.493000 -13.624000
v 7.776000 7.493000 -13.124000
v 11.158000 7.493000 -13.124000
v 7.839000 7.493000 -12.624000
v 10.854000 7.493000 -12.624000
v 8.088000 7.493000 -12.124000
v 10.718000 7.493000 -12.124000
v 8.550000 7.493000 -11.624000
v 10.509000 7.493000 -11.624000
v 8.063000 11.493000 -15.624000
v 10.480000 11.493000 -15.624000
v 7.835000 11.493000 -15.124000
v 10.703000 11.493000 -15.124000
v 7.758000 11.493000 -14.624000
v 10.693000 11.493000 -14.624000
v 7.763000 11.493000 -14.124000
v 10.447000 11.493000 -14.124000
v 7.816000 11.493000 -13.624000
v 10.237000 11.493000 -13.624000
v 7.819000 11.493000 -13.124000
v 10.191000 11.493000 -13.124000
v 8.029000 11.493000 -12.624000
v 9.983000 11.493000 -12.624000
v 8.325000 11.493000 -12.124000
v 9.706000 11.493000 -12.124000
v 8.463000 11.493000 -11.624000
v 9.608000 11.493000 -11.624000
v 8.417000 11.493000 -11.124000
v 9.617000 11.493000 -11.124000
v 8.302000 11.493000 -10.624000
v 9.633000 11.493000 -10.624000
v 8.287000 11.493000 -10.124000
v 9.624000 11.493000 -10.124000
v 8.242000 7.493000 -14.229000
v 8.242000 7.493000 -11.971000
v 8.742000 7.493000 -14.638000
v 8.742000 7.493000 -11.416000
v 9.242000 7.493000 -16.564000
v 9.242000 7.493000 -11.151000
v 9.742000 7.493000 -17.077000
v 9.742000 7.493000 -11.136000
v 10.242000 7.493000 -17.255000
v 10.242000 7.493000 -11.355000
v 10.742000 7.493000 -17.238000
v 10.742000 7.493000 -12.266000
v 11.242000 7.493000 -17.016000
v 11.242000 7.493000 -13.278000
v 11.742000 7.493000 -16.357000
v 11.742000 7.493000 -15.427000
v 8.242000 11.493000 -15.807000
v 8.242000 11.493000 -12.280000
v 8.742000 11.493000 -16.047000
v 8.742000 11.493000 -9.680000
v 9.242000 11.493000 -16.074000
v 9.242000 11.493000 -9.707000
v 9.742000 11.493000 -16.079000
v 9.742000 11.493000 -12.201000
v 10.242000 11.493000 -15.860000
v 10.242000 11.493000 -13.647000
v 7.242000 9.029000 -14.624000
v 7.242000 10.893000 -14.624000
v 7.742000 8.370000 -14.624000
v 7.742000 11.475000 -14.624000
v 8.242000 8.062000 -14.624000
v 8.242000 11.956000 -14.624000
v 8.742000 7.474000 -14.624000
v 8.742000 12.142000 -14.624000
v 9.242000 6.843000 -14.624000
v 9.242000 12.153000 -14.624000
v 9.742000 6.570000 -14.624000
v 9.742000 12.127000 -14.624000
v 10.242000 6.522000 -14.624000
v 10.242000 11.942000 -14.624000
v 10.742000 6.670000 -14.624000
v 10.742000 11.407000 -14.624000
v 11.242000 7.144000 -14.624000
v 11.242000 8.581000 -14.624000
v 7.742000 9.211000 -10.624000
v 7.742000 10.927000 -10.624000
v 8.242000 8.534000 -10.624000
v 8.242000 11.458000 -10.624000
v 8.742000 8.199000 -10.624000
v 8.742000 11.642000 -10.624000
v 9.242000 8.016000 -10.624000
v 9.242000 11.633000 -10.624000
v 9.742000 8.066000 -10.624000
v 9.742000 11.428000 -10.624000
v 10.242000 8.522000 -10.624000
v 10.242000 10.862000 -10.624000
v 9.830000 7.993000 -17.124000
v 11.059000 7.993000 -17.124000
v 9.234000 7.993000 -16.624000
v 11.611000 7.993000 -16.624000
v 9.008000 7.993000 -16.124000
v 11.802000 7.993000 -16.124000
v 8.918000 7.993000 -15.624000
v 11.795000 7.993000 -15.624000
v 8.783000 7.993000 -15.124000
v 11.590000 7.993000 -15.124000
v 8.330000 7.993000 -14.624000
v 11.384000 7.993000 -14.624000
v 7.600000 7.993000 -14.124000
v 11.355000 7.993000 -14.124000
v 7.336000 7.993000 -13.624000
v 11.358000 7.993000 -13.624000
v 7.315000 7.993000 -13.124000
v 11.172000 7.993000 -13.124000
v 7.522000 7.993000 -12.624000
v 10.965000 7.993000 -12.624000
v 7.797000 7.993000 -12.124000
v 10.899000 7.993000 -12.124000
v 8.069000 7.993000 -11.624000
v 10.730000 7.993000 -11.624000
v 8.578000 7.993000 -11.124000
v 10.437000 7.993000 -11.124000
v 8.440000 11.993000 -15.124000
v 10.170000 11.993000 -15.124000
v 8.305000 11.993000 -14.624000
v 10.151000 11.993000 -14.624000
v 8.305000 11.993000 -14.124000
v 9.798000 11.993000 -14.124000
v 8.338000 11.993000 -13.624000
v 9.701000 11.993000 -13.624000
v 8.340000 11.993000 -13.124000
v 9.669000 11.993000 -13.124000
v 7.742000 7.993000 -14.262000
v 7.742000 7.993000 -12.266000
v 8.242000 7.993000 -14.567000
v 8.242000 7.993000 -11.466000
v 8.742000 7.993000 -15.044000
v 8.742000 7.993000 -10.939000
v 9.242000 7.993000 -16.634000
v 9.242000 7.993000 -10.654000
v 9.742000 7.993000 -17.077000
v 9.742000 7.993000 -10.688000
v 10.242000 7.993000 -17.254000
v 10.242000 7.993000 -10.929000
v 10.742000 7.993000 -17.237000
v 10.742000 7.993000 -11.649000
v 11.242000 7.993000 -17.015000
v 11.242000 7.993000 -13.252000
v 11.742000 7.993000 -16.355000
v 11.742000 7.993000 -15.430000
v 8.742000 11.993000 -15.437000
v 8.742000 11.993000 -12.687000
v 9.242000 11.993000 -15.525000
v 9.242000 11.993000 -12.677000
v 9.742000 11.993000 -15.547000
v 9.742000 11.993000 -13.893000
v 7.242000 8.657000 -14.124000
v 7.242000 10.884000 -14.124000
v 7.742000 7.840000 -14.124000
v 7.742000 11.470000 -14.124000
v 8.242000 7.387000 -14.124000
v 8.242000 11.955000 -14.124000
v 8.742000 6.793000 -14.124000
v 8.742000 12.149000 -14.124000
v 9.242000 6.546000 -14.124000
v 9.242000 12.152000 -14.124000
v 9.742000 6.406000 -14.124000
v 9.742000 12.017000 -14.124000
v 10.242000 6.405000 -14.124000
v 10.242000 11.711000 -14.124000
v 10.742000 6.603000 -14.124000
v 10.742000 10.431000 -14.124000
v 11.242000 7.172000 -14.124000
v 11.242000 8.770000 -14.124000
v 7.742000 9.128000 -10.124000
v 7.742000 10.943000 -10.124000
v 8.242000 8.573000 -10.124000
v 8.242000 11.466000 -10.124000
v 8.742000 8.349000 -10.124000
v 8.742000 11.649000 -10.124000
v 9.242000 8.297000 -10.124000
v 9.242000 11.635000 -10.124000
v 9.742000 8.460000 -10.124000
v 9.742000 11.420000 -10.124000
v 10.242000 9.073000 -10.124000
v 10.242000 10.788000 -10.124000
f 127 159 203
f 203 159 287
f 287 159 243
f 243 128 287
f 205 129 203
f 203 129 127
f 203 289 205
f 203 287 289
f 287 128 289
f 289 128 130
f 131 527 583
f 583 527 677
f 677 527 631
f 631 132 677
f 205 160 129
f 160 205 244
f 244 205 289
f 289 130 244
f 585 133 583
f 583 133 131
f 583 679 585
f 583 677 679
f 677 132 679
f 679 132 134
f 585 528 133
f 528 585 632
f 632 585 679
f 679 134 632
f 135 15 49
f 49 15 13
f 15 91 13
f 93 91 15
f 93 173 91
f 175 173 93
f 280 257 136
f 257 175 136
f 257 173 175
f 280 50 257
f 137 647 51
f 51 647 645
f 49 645 647
f 49 647 135
f 259 280 136
f 347 50 280
f 259 347 280
f 349 347 259
f 349 455 347
f 457 455 349
f 457 138 455
f 455 138 52
f 139 543 53
f 53 543 541
f 51 541 543
f 51 543 137
f 559 52 138
f 559 138 561
f 561 140 559
f 559 140 54
f 141 439 55
f 55 439 437
f 53 437 439
f 53 439 139
f 663 54 140
f 663 140 665
f 665 142 663
f 663 142 56
f 143 333 57
f 57 333 331
f 55 331 333
f 55 333 141
f 56 144 58
f 142 144 56
f 145 57 59
f 145 143 57
f 666 146 60
f 666 60 664
f 664 58 666
f 666 58 144
f 334 145 374
f 145 61 374
f 145 59 61
f 147 334 374
f 562 148 62
f 562 62 560
f 560 60 562
f 562 60 146
f 332 374 61
f 147 374 332
f 63 147 332
f 149 147 63
f 176 150 210
f 176 210 64
f 258 176 64
f 260 176 258
f 348 260 258
f 348 350 260
f 456 350 348
f 456 458 350
f 456 62 458
f 458 62 148
f 63 438 149
f 149 438 440
f 438 65 588
f 544 438 588
f 440 438 544
f 544 588 682
f 544 682 648
f 648 682 48
f 648 48 16
f 16 48 66
f 92 16 66
f 94 16 92
f 150 94 210
f 94 174 210
f 94 92 174
f 64 210 174
f 542 588 65
f 646 682 542
f 542 682 588
f 14 48 646
f 646 48 682
f 66 48 14
f 198 189 67
f 282 273 198
f 198 273 189
f 282 68 273
f 151 109 69
f 69 109 107
f 191 198 67
f 107 191 67
f 109 191 107
f 198 191 275
f 198 275 282
f 363 68 282
f 275 363 282
f 365 363 275
f 488 471 152
f 471 365 152
f 471 363 365
f 488 70 471
f 38 29 71
f 69 29 38
f 153 69 38
f 151 69 153
f 154 490 488
f 154 488 152
f 70 488 72
f 72 488 490
f 73 40 71
f 71 40 38
f 153 38 40
f 153 40 155
f 156 492 490
f 156 490 154
f 72 490 74
f 74 490 492
f 30 40 73
f 155 40 30
f 75 155 30
f 157 155 75
f 158 494 492
f 158 492 156
f 74 492 76
f 76 492 494
f 75 108 157
f 157 108 110
f 108 77 208
f 192 108 208
f 110 108 192
f 192 208 292
f 192 292 276
f 276 292 78
f 364 276 78
f 366 276 364
f 158 366 494
f 366 472 494
f 366 364 472
f 76 494 472
f 190 208 77
f 274 292 190
f 190 292 208
f 78 292 274
f 211 79 117
f 117 79 201
f 201 79 161
f 201 161 285
f 285 161 245
f 285 245 383
f 383 245 335
f 335 212 383
f 213 633 673
f 673 633 39
f 39 633 1
f 211 117 1
f 117 39 1
f 117 119 39
f 201 159 127
f 119 201 127
f 117 201 119
f 285 243 159
f 285 159 201
f 385 128 243
f 285 385 243
f 383 385 285
f 383 212 385
f 385 212 214
f 215 425 477
f 477 425 581
f 581 425 529
f 213 673 529
f 673 581 529
f 673 675 581
f 673 41 675
f 673 39 41
f 39 121 41
f 39 119 121
f 119 127 129
f 119 129 121
f 387 130 128
f 387 128 385
f 385 214 387
f 387 214 216
f 479 217 477
f 477 217 215
f 581 527 131
f 479 581 131
f 477 581 479
f 675 631 527
f 675 527 581
f 43 132 631
f 675 43 631
f 41 43 675
f 41 123 43
f 41 121 123
f 121 129 160
f 207 121 160
f 123 121 207
f 244 291 207
f 244 207 160
f 291 244 130
f 387 291 130
f 389 291 387
f 387 216 389
f 389 216 218
f 481 219 479
f 479 219 217
f 479 131 133
f 479 133 481
f 45 134 132
f 45 132 43
f 43 125 45
f 43 123 125
f 220 125 162
f 125 207 162
f 125 123 207
f 162 207 246
f 246 207 291
f 246 291 336
f 336 291 389
f 389 218 336
f 483 221 481
f 481 221 219
f 481 133 528
f 587 481 528
f 483 481 587
f 632 681 587
f 632 587 528
f 681 632 134
f 45 681 134
f 47 681 45
f 222 47 80
f 47 125 80
f 47 45 125
f 125 220 80
f 483 426 221
f 426 483 530
f 530 483 587
f 530 587 634
f 634 587 681
f 634 681 2
f 2 681 47
f 47 222 2
f 32 15 135
f 223 95 32
f 95 15 32
f 95 93 15
f 95 175 93
f 177 175 95
f 177 224 175
f 175 224 136
f 225 649 137
f 137 649 647
f 17 32 135
f 647 17 135
f 649 17 647
f 223 32 17
f 259 136 224
f 259 224 261
f 261 349 259
f 351 349 261
f 486 457 226
f 457 351 226
f 457 349 351
f 486 138 457
f 227 545 139
f 139 545 543
f 137 543 545
f 137 545 225
f 459 486 226
f 561 138 486
f 459 561 486
f 563 561 459
f 563 228 561
f 561 228 140
f 229 441 141
f 141 441 439
f 139 439 441
f 139 441 227
f 230 686 665
f 140 230 665
f 228 230 140
f 686 142 665
f 368 333 143
f 141 333 368
f 231 141 368
f 229 141 231
f 232 688 686
f 232 686 230
f 142 686 144
f 144 686 688
f 145 370 143
f 143 370 368
f 231 368 370
f 231 370 233
f 146 666 688
f 232 146 688
f 234 146 232
f 144 688 666
f 334 370 145
f 233 370 334
f 147 233 334
f 235 233 147
f 460 236 496
f 460 496 148
f 562 460 148
f 564 460 562
f 562 146 564
f 564 146 234
f 442 235 482
f 235 149 482
f 235 147 149
f 237 442 482
f 178 238 150
f 178 150 176
f 260 178 176
f 260 262 178
f 350 262 260
f 350 352 262
f 236 352 496
f 352 458 496
f 352 350 458
f 148 496 458
f 440 482 149
f 482 440 237
f 440 546 237
f 440 544 546
f 648 546 544
f 648 650 546
f 16 650 648
f 16 18 650
f 94 18 16
f 94 96 18
f 94 150 96
f 96 150 238
f 116 109 151
f 200 191 116
f 116 191 109
f 284 275 200
f 200 275 191
f 382 365 284
f 284 365 275
f 382 152 365
f 153 118 151
f 151 118 116
f 118 239 193
f 200 118 193
f 116 118 200
f 200 193 277
f 200 277 284
f 284 277 240
f 384 284 240
f 382 284 384
f 152 382 154
f 154 382 384
f 155 120 153
f 153 120 118
f 239 118 120
f 239 120 241
f 242 386 384
f 242 384 240
f 154 384 156
f 156 384 386
f 157 122 155
f 155 122 120
f 206 194 241
f 120 206 241
f 122 206 120
f 194 206 290
f 194 290 278
f 386 242 278
f 290 386 278
f 388 386 290
f 156 386 158
f 158 386 388
f 110 122 157
f 192 206 110
f 110 206 122
f 276 290 192
f 192 290 206
f 366 388 276
f 276 388 290
f 158 388 366
f 295 163 199
f 199 163 283
f 283 163 247
f 283 247 381
f 381 247 337
f 337 296 381
f 297 81 211
f 211 81 79
f 81 295 199
f 161 81 199
f 79 81 161
f 283 245 161
f 283 161 199
f 381 335 245
f 381 245 283
f 296 445 489
f 296 489 212
f 381 296 212
f 335 381 212
f 445 298 489
f 299 531 579
f 579 531 213
f 531 633 213
f 531 635 633
f 635 1 633
f 3 1 635
f 211 1 3
f 211 3 297
f 491 214 212
f 491 212 489
f 489 298 491
f 491 298 300
f 301 427 215
f 215 427 425
f 427 299 579
f 529 427 579
f 425 427 529
f 579 213 529
f 493 216 214
f 493 214 491
f 491 300 493
f 493 300 302
f 303 325 371
f 217 371 325
f 301 217 325
f 215 217 301
f 495 218 216
f 495 216 493
f 493 302 495
f 495 302 304
f 375 305 371
f 371 305 303
f 371 217 219
f 371 219 375
f 162 209 220
f 246 293 209
f 246 209 162
f 338 306 293
f 246 338 293
f 336 338 246
f 495 446 218
f 446 336 218
f 446 338 336
f 495 304 446
f 375 326 305
f 307 326 375
f 219 307 375
f 221 307 219
f 82 308 222
f 82 222 80
f 209 164 220
f 164 80 220
f 164 82 80
f 164 209 248
f 248 209 293
f 293 306 248
f 221 426 307
f 307 426 428
f 530 589 309
f 428 530 309
f 426 530 428
f 634 683 589
f 634 589 530
f 4 310 683
f 634 4 683
f 2 4 634
f 2 222 4
f 4 222 308
f 589 532 309
f 532 589 636
f 636 589 683
f 683 310 636
f 112 95 223
f 196 177 112
f 112 177 95
f 196 224 177
f 668 649 225
f 311 19 668
f 19 649 668
f 19 17 649
f 97 112 223
f 17 97 223
f 19 97 17
f 112 97 179
f 112 179 196
f 261 224 196
f 179 261 196
f 263 261 179
f 263 351 261
f 353 351 263
f 353 312 351
f 351 312 226
f 313 547 227
f 227 547 545
f 651 668 225
f 545 651 225
f 547 651 545
f 311 668 651
f 459 226 312
f 459 312 461
f 592 563 314
f 563 461 314
f 563 459 461
f 592 228 563
f 474 441 229
f 227 441 474
f 315 227 474
f 313 227 315
f 565 592 314
f 565 316 592
f 316 228 592
f 316 230 228
f 474 229 443
f 229 317 443
f 229 231 317
f 315 474 443
f 230 318 232
f 316 318 230
f 319 231 233
f 319 317 231
f 566 320 598
f 598 234 566
f 234 318 566
f 234 232 318
f 444 319 480
f 319 235 480
f 319 233 235
f 321 444 480
f 462 322 236
f 462 236 460
f 320 462 598
f 462 564 598
f 462 460 564
f 234 598 564
f 442 480 235
f 548 321 586
f 586 321 237
f 321 480 237
f 480 442 237
f 323 548 586
f 180 324 238
f 180 238 178
f 262 180 178
f 262 264 180
f 352 264 262
f 352 354 264
f 352 236 354
f 354 236 322
f 546 586 237
f 586 546 323
f 546 652 323
f 546 650 652
f 18 652 650
f 18 20 652
f 96 20 18
f 96 98 20
f 96 238 98
f 98 238 324
f 202 193 239
f 286 277 202
f 202 277 193
f 286 240 277
f 241 204 239
f 239 204 202
f 288 202 204
f 286 202 288
f 240 286 242
f 242 286 288
f 194 204 241
f 278 288 194
f 194 288 204
f 242 288 278
f 393 165 197
f 197 165 281
f 281 165 249
f 249 394 281
f 395 83 115
f 393 197 83
f 83 197 115
f 197 163 115
f 163 295 115
f 281 247 163
f 281 163 197
f 247 281 394
f 339 247 394
f 337 247 339
f 296 337 487
f 337 447 487
f 337 339 447
f 487 447 591
f 591 447 551
f 551 396 591
f 397 5 37
f 395 115 5
f 5 115 37
f 115 81 37
f 81 297 37
f 115 295 81
f 487 445 296
f 593 298 445
f 487 593 445
f 591 593 487
f 591 396 593
f 593 396 398
f 399 533 299
f 299 533 531
f 533 635 531
f 637 635 533
f 637 397 37
f 3 637 37
f 635 637 3
f 37 297 3
f 595 300 298
f 595 298 593
f 593 398 595
f 595 398 400
f 401 429 301
f 301 429 427
f 299 427 429
f 299 429 399
f 597 302 300
f 597 300 595
f 595 400 597
f 597 400 402
f 403 327 303
f 303 327 325
f 301 325 327
f 301 327 401
f 599 304 302
f 599 302 597
f 597 402 599
f 599 402 404
f 405 303 305
f 405 403 303
f 338 391 306
f 448 406 391
f 338 448 391
f 446 448 338
f 599 552 304
f 552 446 304
f 552 448 446
f 599 404 552
f 305 326 405
f 405 326 328
f 407 328 326
f 407 326 307
f 84 408 308
f 84 308 82
f 164 84 82
f 164 166 84
f 248 166 164
f 248 250 166
f 391 340 306
f 340 248 306
f 340 250 248
f 391 406 340
f 307 428 407
f 407 428 430
f 409 430 428
f 409 428 309
f 6 410 310
f 6 310 4
f 4 308 6
f 6 308 408
f 309 532 409
f 409 532 534
f 636 534 532
f 636 638 534
f 636 310 638
f 638 310 410
f 34 19 311
f 411 99 34
f 99 19 34
f 99 97 19
f 99 179 97
f 181 179 99
f 181 263 179
f 265 263 181
f 265 353 263
f 355 353 265
f 355 412 353
f 353 412 312
f 576 547 313
f 413 653 576
f 653 547 576
f 653 651 547
f 21 34 311
f 651 21 311
f 653 21 651
f 411 34 21
f 461 312 412
f 461 412 463
f 463 414 461
f 461 414 314
f 576 313 549
f 313 415 549
f 313 315 415
f 413 576 549
f 565 314 414
f 565 414 567
f 567 416 565
f 565 416 316
f 476 443 317
f 315 443 476
f 417 315 476
f 415 315 417
f 316 418 318
f 416 418 316
f 319 478 317
f 317 478 476
f 417 476 478
f 417 478 419
f 568 420 320
f 568 320 566
f 566 318 568
f 568 318 418
f 444 478 319
f 419 478 444
f 321 419 444
f 421 419 321
f 464 422 322
f 464 322 462
f 462 320 464
f 464 320 420
f 321 548 421
f 421 548 550
f 548 323 680
f 654 548 680
f 550 548 654
f 423 654 680
f 182 424 324
f 182 324 180
f 264 182 180
f 264 266 182
f 354 266 264
f 354 356 266
f 354 322 356
f 356 322 422
f 652 680 323
f 680 652 423
f 652 22 423
f 652 20 22
f 98 22 20
f 98 100 22
f 98 324 100
f 100 324 424
f 499 85 113
f 113 85 393
f 85 165 393
f 85 167 165
f 167 249 165
f 251 249 167
f 394 249 379
f 249 341 379
f 249 251 341
f 379 341 485
f 485 341 449
f 449 500 485
f 501 7 35
f 499 113 7
f 7 113 35
f 113 83 35
f 83 395 35
f 113 393 83
f 379 339 394
f 485 447 339
f 485 339 379
f 447 485 500
f 553 447 500
f 551 447 553
f 553 502 551
f 551 502 396
f 5 397 35
f 397 501 35
f 397 503 501
f 35 395 5
f 502 657 685
f 398 502 685
f 396 502 398
f 657 504 685
f 505 535 399
f 399 535 533
f 535 637 533
f 639 637 535
f 397 637 639
f 397 639 503
f 687 400 398
f 687 398 685
f 685 504 687
f 687 504 506
f 507 431 401
f 401 431 429
f 399 429 431
f 399 431 505
f 689 402 400
f 689 400 687
f 687 506 689
f 689 506 508
f 372 327 403
f 401 327 372
f 509 401 372
f 507 401 509
f 402 689 658
f 510 402 658
f 404 402 510
f 689 508 658
f 405 376 403
f 403 376 372
f 509 372 376
f 509 376 511
f 448 497 406
f 554 512 497
f 448 554 497
f 552 554 448
f 552 404 554
f 554 404 510
f 328 376 405
f 511 376 328
f 407 511 328
f 513 511 407
f 86 514 408
f 86 408 84
f 166 86 84
f 166 168 86
f 250 168 166
f 250 252 168
f 340 252 250
f 340 342 252
f 497 450 406
f 450 340 406
f 450 342 340
f 497 512 450
f 407 430 513
f 513 430 432
f 430 409 590
f 536 430 590
f 432 430 536
f 536 590 684
f 536 684 640
f 640 684 410
f 6 640 410
f 8 640 6
f 6 408 8
f 8 408 514
f 534 590 409
f 638 684 534
f 534 684 590
f 410 684 638
f 114 99 411
f 515 183 114
f 183 99 114
f 183 181 99
f 183 265 181
f 267 265 183
f 267 355 265
f 357 355 267
f 357 516 355
f 355 516 412
f 670 653 413
f 517 23 670
f 23 653 670
f 23 21 653
f 101 114 411
f 21 101 411
f 23 101 21
f 515 114 101
f 463 412 516
f 463 516 465
f 465 518 463
f 463 518 414
f 578 549 415
f 655 670 413
f 655 413 549
f 519 655 549
f 578 519 549
f 517 670 655
f 567 414 518
f 567 518 569
f 569 520 567
f 567 520 416
f 417 580 415
f 415 580 578
f 519 578 580
f 519 580 521
f 416 522 418
f 520 522 416
f 419 582 417
f 417 582 580
f 521 580 582
f 521 582 523
f 570 524 420
f 570 420 568
f 568 418 570
f 570 418 522
f 421 584 419
f 419 584 582
f 523 582 584
f 523 584 525
f 466 526 422
f 466 422 464
f 464 420 466
f 466 420 524
f 550 584 421
f 584 550 525
f 550 656 525
f 550 654 656
f 654 423 46
f 24 654 46
f 656 654 24
f 24 46 126
f 24 126 102
f 102 126 424
f 182 102 424
f 184 102 182
f 266 184 182
f 266 268 184
f 356 268 266
f 356 358 268
f 356 422 358
f 358 422 526
f 22 46 423
f 100 126 22
f 22 126 46
f 424 126 100
f 601 169 195
f 195 169 279
f 279 169 253
f 279 253 377
f 377 253 343
f 343 602 377
f 603 9 33
f 33 9 499
f 9 85 499
f 9 87 85
f 87 601 195
f 167 87 195
f 85 87 167
f 279 251 167
f 279 167 195
f 377 341 251
f 377 251 279
f 341 377 602
f 451 341 602
f 449 341 451
f 451 604 449
f 449 604 500
f 7 501 33
f 501 603 33
f 501 605 603
f 33 499 7
f 553 500 604
f 553 604 555
f 555 606 553
f 553 606 502
f 607 537 577
f 577 537 671
f 671 537 641
f 503 671 641
f 605 503 641
f 501 503 605
f 657 502 606
f 657 606 659
f 659 608 657
f 657 608 504
f 609 433 475
f 607 577 433
f 433 577 475
f 577 535 475
f 535 505 475
f 671 639 535
f 671 535 577
f 671 503 639
f 504 610 506
f 608 610 504
f 431 507 475
f 507 609 475
f 507 611 609
f 475 505 431
f 506 612 508
f 610 612 506
f 613 507 509
f 613 611 507
f 660 614 510
f 660 510 658
f 658 508 660
f 660 508 612
f 615 509 511
f 615 613 509
f 556 616 512
f 556 512 554
f 554 510 556
f 556 510 614
f 434 615 484
f 615 513 484
f 615 511 513
f 617 434 484
f 88 618 514
f 88 514 86
f 168 88 86
f 168 170 88
f 252 170 168
f 252 254 170
f 342 254 252
f 342 344 254
f 450 344 342
f 450 452 344
f 450 512 452
f 452 512 616
f 432 484 513
f 484 432 617
f 432 538 617
f 432 536 538
f 640 538 536
f 640 642 538
f 8 642 640
f 8 10 642
f 8 514 10
f 10 514 618
f 619 185 515
f 515 185 183
f 185 267 183
f 269 267 185
f 269 357 267
f 359 357 269
f 359 620 357
f 357 620 516
f 36 23 517
f 621 103 36
f 103 23 36
f 103 101 23
f 515 101 103
f 515 103 619
f 465 516 620
f 465 620 467
f 467 622 465
f 465 622 518
f 672 655 519
f 25 36 517
f 25 517 655
f 623 25 655
f 672 623 655
f 621 36 25
f 569 518 622
f 569 622 571
f 571 624 569
f 569 624 520
f 521 674 519
f 519 674 672
f 623 672 674
f 623 674 625
f 520 626 522
f 624 626 520
f 523 676 521
f 521 676 674
f 625 674 676
f 625 676 627
f 572 628 524
f 572 524 570
f 570 522 572
f 572 522 626
f 525 678 523
f 523 678 676
f 44 26 627
f 676 44 627
f 678 44 676
f 629 26 44
f 468 630 526
f 468 526 466
f 466 524 468
f 468 524 628
f 656 678 525
f 24 44 656
f 656 44 678
f 44 24 629
f 24 104 629
f 24 102 104
f 184 104 102
f 184 186 104
f 268 186 184
f 268 270 186
f 358 270 268
f 358 360 270
f 358 526 360
f 360 526 630
f 691 89 111
f 111 89 601
f 89 169 601
f 89 171 169
f 171 253 169
f 255 253 171
f 255 343 253
f 345 343 255
f 345 692 343
f 343 692 602
f 693 643 667
f 667 643 603
f 643 9 603
f 643 11 9
f 11 691 111
f 87 11 111
f 9 11 87
f 111 601 87
f 451 602 692
f 451 692 453
f 453 694 451
f 451 694 604
f 695 539 575
f 693 667 539
f 667 575 539
f 667 669 575
f 667 603 605
f 667 605 669
f 555 604 694
f 555 694 557
f 557 696 555
f 555 696 606
f 697 435 473
f 695 575 435
f 435 575 473
f 575 537 473
f 537 607 473
f 669 641 537
f 669 537 575
f 669 605 641
f 659 606 696
f 659 696 661
f 661 698 659
f 659 698 608
f 433 609 473
f 609 697 473
f 609 699 697
f 473 607 433
f 608 700 610
f 698 700 608
f 701 329 369
f 611 369 329
f 699 611 329
f 609 611 699
f 610 702 612
f 700 702 610
f 373 703 369
f 369 703 701
f 369 611 613
f 369 613 373
f 662 704 614
f 662 614 660
f 660 612 662
f 662 612 702
f 373 330 703
f 705 330 373
f 613 705 373
f 615 705 613
f 346 706 392
f 346 392 498
f 346 498 454
f 454 498 616
f 556 454 616
f 558 454 556
f 556 614 558
f 558 614 704
f 615 434 705
f 705 434 436
f 707 436 434
f 707 434 617
f 90 708 618
f 90 618 88
f 170 90 88
f 170 172 90
f 254 172 170
f 254 256 172
f 706 256 392
f 256 344 392
f 256 254 344
f 452 498 344
f 344 498 392
f 616 498 452
f 617 538 707
f 707 538 540
f 642 540 538
f 642 644 540
f 10 644 642
f 10 12 644
f 10 618 12
f 12 618 708
f 709 187 619
f 619 187 185
f 187 269 185
f 271 269 187
f 271 359 269
f 361 359 271
f 361 710 359
f 359 710 620
f 711 105 621
f 621 105 103
f 619 103 105
f 619 105 709
f 467 620 710
f 467 710 469
f 469 712 467
f 467 712 622
f 713 27 623
f 623 27 25
f 621 25 27
f 621 27 711
f 571 622 712
f 571 712 573
f 573 714 571
f 571 714 624
f 715 623 625
f 715 713 623
f 624 716 626
f 714 716 624
f 717 625 627
f 717 715 625
f 574 718 628
f 574 628 572
f 572 626 574
f 574 626 716
f 627 26 717
f 717 26 28
f 26 629 124
f 106 26 124
f 28 26 106
f 719 106 124
f 470 720 630
f 470 630 468
f 468 628 470
f 470 628 718
f 104 124 629
f 124 104 719
f 104 188 719
f 104 186 188
f 270 188 186
f 270 272 188
f 360 272 270
f 360 362 272
f 360 630 362
f 362 630 720
f 49 13 31
f 31 13 691
f 13 89 691
f 13 91 89
f 91 171 89
f 173 171 91
f 173 255 171
f 257 255 173
f 378 345 50
f 345 257 50
f 345 255 257
f 378 692 345
f 51 645 693
f 693 645 643
f 645 49 31
f 11 645 31
f 643 645 11
f 31 691 11
f 347 378 50
f 453 692 378
f 347 453 378
f 455 453 347
f 455 52 453
f 453 52 694
f 53 541 695
f 695 541 539
f 693 539 541
f 693 541 51
f 557 694 52
f 557 52 559
f 559 54 557
f 557 54 696
f 55 437 697
f 697 437 435
f 695 435 437
f 695 437 53
f 661 696 54
f 661 54 663
f 663 56 661
f 661 56 698
f 57 331 367
f 699 367 331
f 55 699 331
f 697 699 55
f 698 58 700
f 56 58 698
f 329 701 367
f 701 57 367
f 701 59 57
f 367 699 329
f 664 60 690
f 690 702 664
f 702 58 664
f 702 700 58
f 61 701 703
f 61 59 701
f 560 62 600
f 690 60 560
f 690 560 600
f 662 690 600
f 704 662 600
f 702 690 662
f 703 330 61
f 61 330 332
f 63 332 330
f 63 330 705
f 258 64 294
f 258 294 706
f 346 258 706
f 348 258 346
f 454 348 346
f 454 456 348
f 62 456 600
f 456 558 600
f 456 454 558
f 704 600 558
f 705 436 63
f 63 436 438
f 65 438 436
f 65 436 707
f 92 66 708
f 92 708 90
f 172 92 90
f 172 174 92
f 64 174 294
f 174 256 294
f 174 172 256
f 706 294 256
f 707 540 65
f 65 540 542
f 644 542 540
f 644 646 542
f 12 646 644
f 12 14 646
f 12 708 14
f 14 708 66
f 67 189 709
f 709 189 187
f 189 271 187
f 273 271 189
f 380 361 68
f 361 273 68
f 361 271 273
f 380 710 361
f 69 107 711
f 711 107 105
f 709 105 107
f 709 107 67
f 363 380 68
f 469 710 380
f 363 469 380
f 471 469 363
f 471 70 469
f 469 70 712
f 71 29 713
f 713 29 27
f 711 27 29
f 711 29 69
f 72 594 573
f 712 72 573
f 70 72 712
f 594 714 573
f 73 713 715
f 73 71 713
f 74 596 594
f 74 594 72
f 714 594 716
f 716 594 596
f 30 73 42
f 73 717 42
f 73 715 717
f 75 30 42
f 718 574 596
f 74 718 596
f 76 718 74
f 716 596 574
f 28 42 717
f 42 28 75
f 28 108 75
f 28 106 108
f 77 108 106
f 77 106 719
f 364 78 390
f 364 390 720
f 470 364 720
f 472 364 470
f 470 718 472
f 472 718 76
f 719 188 77
f 77 188 190
f 272 190 188
f 272 274 190
f 78 274 390
f 274 362 390
f 274 272 362
f 720 390 362
