# Converted from NanoShaper .vert/.face
v -4.931000 10.789000 -13.727000
v -3.008000 10.789000 -13.727000
v -5.151000 10.789000 -13.227000
v -2.230000 10.789000 -13.227000
v -5.152000 10.789000 -12.727000
v -1.686000 10.789000 -12.727000
v -5.139000 10.789000 -12.227000
v -0.939000 10.789000 -12.227000
v -5.128000 10.789000 -11.727000
v 0.502000 10.789000 -11.727000
v -5.117000 10.789000 -11.227000
v 0.738000 10.789000 -11.227000
v -5.149000 10.789000 -10.727000
v 0.770000 10.789000 -10.727000
v -5.263000 10.789000 -10.227000
v 0.742000 10.789000 -10.227000
v -5.566000 10.789000 -9.727000
v 0.300000 10.789000 -9.727000
v -6.089000 10.789000 -9.227000
v -0.050000 10.789000 -9.227000
v -6.610000 10.789000 -8.727000
v -0.182000 10.789000 -8.727000
v -6.813000 10.789000 -8.227000
v -0.234000 10.789000 -8.227000
v -6.818000 10.789000 -7.727000
v -0.265000 10.789000 -7.727000
v -6.625000 10.789000 -7.227000
v -0.301000 10.789000 -7.227000
v -6.138000 10.789000 -6.727000
v -0.573000 10.789000 -6.727000
v -5.524000 10.789000 -6.227000
v -3.349000 10.789000 -6.227000
v -6.436000 10.789000 -8.941000
v -6.436000 10.789000 -6.989000
v -5.936000 10.789000 -9.382000
v -5.936000 10.789000 -6.507000
v -5.436000 10.789000 -9.899000
v -5.436000 10.789000 -6.192000
v -4.936000 10.789000 -13.720000
v -4.936000 10.789000 -6.109000
v -4.436000 10.789000 -14.113000
v -4.436000 10.789000 -6.052000
v -3.936000 10.789000 -14.205000
v -3.936000 10.789000 -6.075000
v -3.436000 10.789000 -14.078000
v -3.436000 10.789000 -6.188000
v -2.936000 10.789000 -13.657000
v -2.936000 10.789000 -6.419000
v -2.436000 10.789000 -13.325000
v -2.436000 10.789000 -6.532000
v -1.936000 10.789000 -13.011000
v -1.936000 10.789000 -6.450000
v -1.436000 10.789000 -12.486000
v -1.436000 10.789000 -6.346000
v -0.936000 10.789000 -12.226000
v -0.936000 10.789000 -6.459000
v -0.436000 10.789000 -12.180000
v -0.436000 10.789000 -6.908000
v 0.064000 10.789000 -12.076000
v 0.064000 10.789000 -9.415000
v 0.564000 10.789000 -11.638000
v 0.564000 10.789000 -9.949000
v -4.936000 10.518000 -10.727000
v -4.936000 12.538000 -10.727000
v -4.436000 10.211000 -10.727000
v -4.436000 12.856000 -10.727000
v -3.936000 10.093000 -10.727000
v -3.936000 12.949000 -10.727000
v -3.436000 10.035000 -10.727000
v -3.436000 13.096000 -10.727000
v -2.936000 10.077000 -10.727000
v -2.936000 13.355000 -10.727000
v -2.436000 10.274000 -10.727000
v -2.436000 13.454000 -10.727000
v -1.936000 10.449000 -10.727000
v -1.936000 13.646000 -10.727000
v -1.436000 10.467000 -10.727000
v -1.436000 13.867000 -10.727000
v -0.936000 10.317000 -10.727000
v -0.936000 14.066000 -10.727000
v -0.436000 10.214000 -10.727000
v -0.436000 14.350000 -10.727000
v 0.064000 10.300000 -10.727000
v 0.064000 14.438000 -10.727000
v 0.564000 10.617000 -10.727000
v 0.564000 14.339000 -10.727000
v 1.064000 11.038000 -10.727000
v 1.064000 13.996000 -10.727000
v -5.936000 10.381000 -6.727000
v -5.936000 11.737000 -6.727000
v -5.436000 9.980000 -6.727000
v -5.436000 12.144000 -6.727000
v -4.936000 9.846000 -6.727000
v -4.936000 12.311000 -6.727000
v -4.436000 9.636000 -6.727000
v -4.436000 12.603000 -6.727000
v -3.936000 9.417000 -6.727000
v -3.936000 12.720000 -6.727000
v -3.436000 9.612000 -6.727000
v -3.436000 12.945000 -6.727000
v -2.936000 10.195000 -6.727000
v -2.936000 13.463000 -6.727000
v -2.436000 10.404000 -6.727000
v -2.436000 13.822000 -6.727000
v -1.936000 10.382000 -6.727000
v -1.936000 13.928000 -6.727000
v -1.436000 10.391000 -6.727000
v -1.436000 13.845000 -6.727000
v -0.936000 10.512000 -6.727000
v -0.936000 13.611000 -6.727000
v -0.436000 10.981000 -6.727000
v -0.436000 13.135000 -6.727000
v -4.625000 11.289000 -14.227000
v -3.323000 11.289000 -14.227000
v -5.154000 11.289000 -13.727000
v -2.786000 11.289000 -13.727000
v -5.338000 11.289000 -13.227000
v -2.214000 11.289000 -13.227000
v -5.334000 11.289000 -12.727000
v -1.568000 11.289000 -12.727000
v -5.324000 11.289000 -12.227000
v 0.244000 11.289000 -12.227000
v -5.323000 11.289000 -11.727000
v 0.992000 11.289000 -11.727000
v -5.312000 11.289000 -11.227000
v 1.238000 11.289000 -11.227000
v -5.330000 11.289000 -10.727000
v 1.259000 11.289000 -10.727000
v -5.396000 11.289000 -10.227000
v 1.251000 11.289000 -10.227000
v -5.637000 11.289000 -9.727000
v 1.024000 11.289000 -9.727000
v -6.086000 11.289000 -9.227000
v 0.549000 11.289000 -9.227000
v -6.589000 11.289000 -8.727000
v 0.219000 11.289000 -8.727000
v -6.796000 11.289000 -8.227000
v 0.034000 11.289000 -8.227000
v -6.800000 11.289000 -7.727000
v -0.061000 11.289000 -7.727000
v -6.605000 11.289000 -7.227000
v -0.095000 11.289000 -7.227000
v -6.136000 11.289000 -6.727000
v -0.316000 11.289000 -6.727000
v -5.544000 11.289000 -6.227000
v -2.751000 11.289000 -6.227000
v -2.071000 11.289000 -6.227000
v -0.974000 11.289000 -6.227000
v -6.436000 11.289000 -8.917000
v -6.436000 11.289000 -7.013000
v -5.936000 11.289000 -9.393000
v -5.936000 11.289000 -6.495000
v -5.436000 11.289000 -10.104000
v -5.436000 11.289000 -6.183000
v -4.936000 11.289000 -14.000000
v -4.936000 11.289000 -6.103000
v -4.436000 11.289000 -14.311000
v -4.436000 11.289000 -6.060000
v -3.936000 11.289000 -14.390000
v -3.936000 11.289000 -6.065000
v -3.436000 11.289000 -14.281000
v -3.436000 11.289000 -6.121000
v -2.936000 11.289000 -13.920000
v -2.936000 11.289000 -6.193000
v -2.436000 11.289000 -13.395000
v -2.436000 11.289000 -6.269000
v -1.936000 11.289000 -13.021000
v -1.936000 11.289000 -6.188000
v -1.436000 11.289000 -12.631000
v -1.436000 11.289000 -6.139000
v -0.936000 11.289000 -12.423000
v -0.936000 11.289000 -6.241000
v -0.436000 11.289000 -12.395000
v -0.436000 11.289000 -6.580000
v 0.064000 11.289000 -12.309000
v 0.064000 11.289000 -8.318000
v 0.564000 11.289000 -12.057000
v 0.564000 11.289000 -9.247000
v 1.064000 11.289000 -11.631000
v 1.064000 11.289000 -9.783000
v -4.436000 11.004000 -14.227000
v -4.436000 12.027000 -14.227000
v -3.936000 10.827000 -14.227000
v -3.936000 12.204000 -14.227000
v -3.436000 11.084000 -14.227000
v -3.436000 11.947000 -14.227000
v -4.936000 10.354000 -10.227000
v -4.936000 12.523000 -10.227000
v -4.436000 10.110000 -10.227000
v -4.436000 12.847000 -10.227000
v -3.936000 10.052000 -10.227000
v -3.936000 12.949000 -10.227000
v -3.436000 10.034000 -10.227000
v -3.436000 13.112000 -10.227000
v -2.936000 10.101000 -10.227000
v -2.936000 13.380000 -10.227000
v -2.436000 10.355000 -10.227000
v -2.436000 13.555000 -10.227000
v -1.936000 10.569000 -10.227000
v -1.936000 13.828000 -10.227000
v -1.436000 10.585000 -10.227000
v -1.436000 13.939000 -10.227000
v -0.936000 10.451000 -10.227000
v -0.936000 14.095000 -10.227000
v -0.436000 10.409000 -10.227000
v -0.436000 14.354000 -10.227000
v 0.064000 10.525000 -10.227000
v 0.064000 14.442000 -10.227000
v 0.564000 10.705000 -10.227000
v 0.564000 14.342000 -10.227000
v 1.064000 11.041000 -10.227000
v 1.064000 13.997000 -10.227000
v -5.436000 10.657000 -6.227000
v -5.436000 11.467000 -6.227000
v -4.936000 10.439000 -6.227000
v -4.936000 11.685000 -6.227000
v -4.436000 10.307000 -6.227000
v -4.436000 11.989000 -6.227000
v -3.936000 10.354000 -6.227000
v -3.936000 12.170000 -6.227000
v -3.436000 10.634000 -6.227000
v -3.436000 12.344000 -6.227000
v -2.936000 11.195000 -6.227000
v -2.936000 13.106000 -6.227000
v -2.436000 11.356000 -6.227000
v -2.436000 13.596000 -6.227000
v -1.936000 11.221000 -6.227000
v -1.936000 13.722000 -6.227000
v -1.436000 11.016000 -6.227000
v -1.436000 13.624000 -6.227000
v -0.936000 11.372000 -6.227000
v -0.936000 13.205000 -6.227000
v -4.607000 11.789000 -14.227000
v -3.341000 11.789000 -14.227000
v -5.144000 11.789000 -13.727000
v -2.794000 11.789000 -13.727000
v -5.329000 11.789000 -13.227000
v -2.277000 11.789000 -13.227000
v -5.322000 11.789000 -12.727000
v -1.313000 11.789000 -12.727000
v -5.316000 11.789000 -12.227000
v 0.650000 11.789000 -12.227000
v -5.321000 11.789000 -11.727000
v 1.236000 11.789000 -11.727000
v -5.308000 11.789000 -11.227000
v 1.439000 11.789000 -11.227000
v -5.328000 11.789000 -10.727000
v 1.447000 11.789000 -10.727000
v -5.353000 11.789000 -10.227000
v 1.428000 11.789000 -10.227000
v -5.481000 11.789000 -9.727000
v 1.235000 11.789000 -9.727000
v -5.837000 11.789000 -9.227000
v 0.773000 11.789000 -9.227000
v -6.316000 11.789000 -8.727000
v 0.424000 11.789000 -8.727000
v -6.574000 11.789000 -8.227000
v 0.202000 11.789000 -8.227000
v -6.579000 11.789000 -7.727000
v 0.008000 11.789000 -7.727000
v -6.337000 11.789000 -7.227000
v -0.055000 11.789000 -7.227000
v -5.897000 11.789000 -6.727000
v -0.273000 11.789000 -6.727000
v -4.656000 11.789000 -6.227000
v -0.855000 11.789000 -6.227000
v -6.436000 11.789000 -8.564000
v -6.436000 11.789000 -7.366000
v -5.936000 11.789000 -9.103000
v -5.936000 11.789000 -6.777000
v -5.436000 11.789000 -9.842000
v -5.436000 11.789000 -6.382000
v -4.936000 11.789000 -13.988000
v -4.936000 11.789000 -6.279000
v -4.436000 11.789000 -14.301000
v -4.436000 11.789000 -6.165000
v -3.936000 11.789000 -14.381000
v -3.936000 11.789000 -6.087000
v -3.436000 11.789000 -14.272000
v -3.436000 11.789000 -6.120000
v -2.936000 11.789000 -13.907000
v -2.936000 11.789000 -6.060000
v -2.436000 11.789000 -13.382000
v -2.436000 11.789000 -5.939000
v -1.936000 11.789000 -12.989000
v -1.936000 11.789000 -5.827000
v -1.436000 11.789000 -12.786000
v -1.436000 11.789000 -5.920000
v -0.936000 11.789000 -12.536000
v -0.936000 11.789000 -6.173000
v -0.436000 11.789000 -12.417000
v -0.436000 11.789000 -6.534000
v 0.064000 11.789000 -12.361000
v 0.064000 11.789000 -7.930000
v 0.564000 11.789000 -12.262000
v 0.564000 11.789000 -8.963000
v 1.064000 11.789000 -11.940000
v 1.064000 11.789000 -9.508000
v -4.936000 10.796000 -13.727000
v -4.936000 12.235000 -13.727000
v -4.436000 10.406000 -13.727000
v -4.436000 12.625000 -13.727000
v -3.936000 10.314000 -13.727000
v -3.936000 12.716000 -13.727000
v -3.436000 10.441000 -13.727000
v -3.436000 12.590000 -13.727000
v -2.936000 10.891000 -13.727000
v -2.936000 12.122000 -13.727000
v -5.436000 10.455000 -9.727000
v -5.436000 11.867000 -9.727000
v -4.936000 9.962000 -9.727000
v -4.936000 12.385000 -9.727000
v -4.436000 9.792000 -9.727000
v -4.436000 12.664000 -9.727000
v -3.936000 9.758000 -9.727000
v -3.936000 12.842000 -9.727000
v -3.436000 9.829000 -9.727000
v -3.436000 13.069000 -9.727000
v -2.936000 9.933000 -9.727000
v -2.936000 13.375000 -9.727000
v -2.436000 10.256000 -9.727000
v -2.436000 13.562000 -9.727000
v -1.936000 10.502000 -9.727000
v -1.936000 13.851000 -9.727000
v -1.436000 10.539000 -9.727000
v -1.436000 13.952000 -9.727000
v -0.936000 10.478000 -9.727000
v -0.936000 14.019000 -9.727000
v -0.436000 10.572000 -9.727000
v -0.436000 14.161000 -9.727000
v 0.064000 10.697000 -9.727000
v 0.064000 14.254000 -9.727000
v 0.564000 10.911000 -9.727000
v 0.564000 14.137000 -9.727000
v 1.064000 11.348000 -9.727000
v 1.064000 13.688000 -9.727000
v -2.436000 12.304000 -5.727000
v -2.436000 12.805000 -5.727000
v -1.936000 11.969000 -5.727000
v -1.936000 13.140000 -5.727000
v -1.436000 12.205000 -5.727000
v -1.436000 12.904000 -5.727000
v -4.893000 12.289000 -13.727000
v -3.055000 12.289000 -13.727000
v -5.120000 12.289000 -13.227000
v -2.537000 12.289000 -13.227000
v -5.110000 12.289000 -12.727000
v -1.312000 12.289000 -12.727000
v -5.110000 12.289000 -12.227000
v 0.673000 12.289000 -12.227000
v -5.119000 12.289000 -11.727000
v 1.238000 12.289000 -11.727000
v -5.104000 12.289000 -11.227000
v 1.440000 12.289000 -11.227000
v -5.135000 12.289000 -10.727000
v 1.466000 12.289000 -10.727000
v -5.123000 12.289000 -10.227000
v 1.446000 12.289000 -10.227000
v -5.063000 12.289000 -9.727000
v 1.253000 12.289000 -9.727000
v -5.146000 12.289000 -9.227000
v 0.784000 12.289000 -9.227000
v -5.547000 12.289000 -8.727000
v 0.423000 12.289000 -8.727000
v -5.911000 12.289000 -8.227000
v 0.191000 12.289000 -8.227000
v -5.924000 12.289000 -7.727000
v 0.011000 12.289000 -7.727000
v -5.594000 12.289000 -7.227000
v -0.047000 12.289000 -7.227000
v -4.985000 12.289000 -6.727000
v -0.265000 12.289000 -6.727000
v -3.509000 12.289000 -6.227000
v -0.747000 12.289000 -6.227000
v -2.429000 12.289000 -5.727000
v -1.384000 12.289000 -5.727000
v -5.436000 12.289000 -8.888000
v -5.436000 12.289000 -6.996000
v -4.936000 12.289000 -13.669000
v -4.936000 12.289000 -6.697000
v -4.436000 12.289000 -14.080000
v -4.436000 12.289000 -6.395000
v -3.936000 12.289000 -14.175000
v -3.936000 12.289000 -6.296000
v -3.436000 12.289000 -14.044000
v -3.436000 12.289000 -6.207000
v -2.936000 12.289000 -13.577000
v -2.936000 12.289000 -6.006000
v -2.436000 12.289000 -13.154000
v -2.436000 12.289000 -5.730000
v -1.936000 12.289000 -12.925000
v -1.936000 12.289000 -5.624000
v -1.436000 12.289000 -12.787000
v -1.436000 12.289000 -5.707000
v -0.936000 12.289000 -12.522000
v -0.936000 12.289000 -6.025000
v -0.436000 12.289000 -12.394000
v -0.436000 12.289000 -6.525000
v 0.064000 12.289000 -12.374000
v 0.064000 12.289000 -7.938000
v 0.564000 12.289000 -12.275000
v 0.564000 12.289000 -8.968000
v 1.064000 12.289000 -11.944000
v 1.064000 12.289000 -9.489000
v -4.936000 10.522000 -13.227000
v -4.936000 12.509000 -13.227000
v -4.436000 10.212000 -13.227000
v -4.436000 12.819000 -13.227000
v -3.936000 10.128000 -13.227000
v -3.936000 12.898000 -13.227000
v -3.436000 10.177000 -13.227000
v -3.436000 12.794000 -13.227000
v -2.936000 10.271000 -13.227000
v -2.936000 12.587000 -13.227000
v -2.436000 10.497000 -13.227000
v -2.436000 12.168000 -13.227000
v -5.936000 10.460000 -9.227000
v -5.936000 11.647000 -9.227000
v -5.436000 9.847000 -9.227000
v -5.436000 12.135000 -9.227000
v -4.936000 9.457000 -9.227000
v -4.936000 12.365000 -9.227000
v -4.436000 9.362000 -9.227000
v -4.436000 12.564000 -9.227000
v -3.936000 9.332000 -9.227000
v -3.936000 12.854000 -9.227000
v -3.436000 9.461000 -9.227000
v -3.436000 13.068000 -9.227000
v -2.936000 9.703000 -9.227000
v -2.936000 13.363000 -9.227000
v -2.436000 9.995000 -9.227000
v -2.436000 13.591000 -9.227000
v -1.936000 10.253000 -9.227000
v -1.936000 13.876000 -9.227000
v -1.436000 10.311000 -9.227000
v -1.436000 13.964000 -9.227000
v -0.936000 10.373000 -9.227000
v -0.936000 13.944000 -9.227000
v -0.436000 10.582000 -9.227000
v -0.436000 13.915000 -9.227000
v 0.064000 10.862000 -9.227000
v 0.064000 13.806000 -9.227000
v 0.564000 11.310000 -9.227000
v 0.564000 13.485000 -9.227000
v -4.424000 8.789000 -8.227000
v -3.374000 8.789000 -8.227000
v -4.431000 8.789000 -7.727000
v -3.367000 8.789000 -7.727000
v -4.512000 12.789000 -13.227000
v -3.421000 12.789000 -13.227000
v -4.494000 12.789000 -12.727000
v -2.481000 12.789000 -12.727000
v -4.515000 12.789000 -12.227000
v 0.662000 12.789000 -12.227000
v -4.543000 12.789000 -11.727000
v 1.208000 12.789000 -11.727000
v -4.526000 12.789000 -11.227000
v 1.407000 12.789000 -11.227000
v -4.589000 12.789000 -10.727000
v 1.457000 12.789000 -10.727000
v -4.570000 12.789000 -10.227000
v 1.455000 12.789000 -10.227000
v -4.142000 12.789000 -9.727000
v 1.264000 12.789000 -9.727000
v -4.080000 12.789000 -9.227000
v 0.777000 12.789000 -9.227000
v -4.078000 12.789000 -8.727000
v 0.309000 12.789000 -8.727000
v -4.097000 12.789000 -8.227000
v 0.031000 12.789000 -8.227000
v -4.448000 12.789000 -7.727000
v -0.061000 12.789000 -7.727000
v -4.470000 12.789000 -7.227000
v -0.094000 12.789000 -7.227000
v -3.719000 12.789000 -6.727000
v -0.308000 12.789000 -6.727000
v -3.103000 12.789000 -6.227000
v -0.760000 12.789000 -6.227000
v -2.443000 12.789000 -5.727000
v -1.369000 12.789000 -5.727000
v -3.936000 8.789000 -8.553000
v -3.936000 8.789000 -7.386000
v -3.436000 8.789000 -8.326000
v -3.436000 8.789000 -7.613000
v -4.436000 12.789000 -13.361000
v -4.436000 12.789000 -10.030000
v -4.436000 12.789000 -7.746000
v -4.436000 12.789000 -7.165000
v -3.936000 12.789000 -13.588000
v -3.936000 12.789000 -6.855000
v -3.436000 12.789000 -13.247000
v -3.436000 12.789000 -6.516000
v -2.936000 12.789000 -12.872000
v -2.936000 12.789000 -6.073000
v -2.436000 12.789000 -12.721000
v -2.436000 12.789000 -5.724000
v -1.936000 12.789000 -12.699000
v -1.936000 12.789000 -5.619000
v -1.436000 12.789000 -12.573000
v -1.436000 12.789000 -5.701000
v -0.936000 12.789000 -12.404000
v -0.936000 12.789000 -6.017000
v -0.436000 12.789000 -12.360000
v -0.436000 12.789000 -6.568000
v 0.064000 12.789000 -12.384000
v 0.064000 12.789000 -8.319000
v 0.564000 12.789000 -12.273000
v 0.564000 12.789000 -8.992000
v 1.064000 12.789000 -11.916000
v 1.064000 12.789000 -9.478000
v -4.936000 10.514000 -12.727000
v -4.936000 12.497000 -12.727000
v -4.436000 10.181000 -12.727000
v -4.436000 12.812000 -12.727000
v -3.936000 9.949000 -12.727000
v -3.936000 12.895000 -12.727000
v -3.436000 9.843000 -12.727000
v -3.436000 12.916000 -12.727000
v -2.936000 9.830000 -12.727000
v -2.936000 12.853000 -12.727000
v -2.436000 9.918000 -12.727000
v -2.436000 12.784000 -12.727000
v -1.936000 10.298000 -12.727000
v -1.936000 12.744000 -12.727000
v -1.436000 11.571000 -12.727000
v -1.436000 12.498000 -12.727000
v -6.436000 10.349000 -8.727000
v -6.436000 11.635000 -8.727000
v -5.936000 9.919000 -8.727000
v -5.936000 12.073000 -8.727000
v -5.436000 9.578000 -8.727000
v -5.436000 12.338000 -8.727000
v -4.936000 9.264000 -8.727000
v -4.936000 12.441000 -8.727000
v -4.436000 9.013000 -8.727000
v -4.436000 12.588000 -8.727000
v -3.936000 8.884000 -8.727000
v -3.936000 12.856000 -8.727000
v -3.436000 8.979000 -8.727000
v -3.436000 13.035000 -8.727000
v -2.936000 9.378000 -8.727000
v -2.936000 13.317000 -8.727000
v -2.436000 9.752000 -8.727000
v -2.436000 13.571000 -8.727000
v -1.936000 9.872000 -8.727000
v -1.936000 13.876000 -8.727000
v -1.436000 9.992000 -8.727000
v -1.436000 13.960000 -8.727000
v -0.936000 10.209000 -8.727000
v -0.936000 13.858000 -8.727000
v -0.436000 10.524000 -8.727000
v -0.436000 13.685000 -8.727000
v 0.064000 11.094000 -8.727000
v 0.064000 13.280000 -8.727000
v -4.990000 9.289000 -8.727000
v -3.010000 9.289000 -8.727000
v -5.081000 9.289000 -8.227000
v -2.727000 9.289000 -8.227000
v -5.074000 9.289000 -7.727000
v -2.722000 9.289000 -7.727000
v -4.801000 9.289000 -7.227000
v -2.998000 9.289000 -7.227000
v -0.593000 13.289000 -12.227000
v 0.583000 13.289000 -12.227000
v -2.568000 13.289000 -11.727000
v 1.192000 13.289000 -11.727000
v -2.682000 13.289000 -11.227000
v 1.400000 13.289000 -11.227000
v -3.092000 13.289000 -10.727000
v 1.418000 13.289000 -10.727000
v -3.138000 13.289000 -10.227000
v 1.410000 13.289000 -10.227000
v -3.119000 13.289000 -9.727000
v 1.220000 13.289000 -9.727000
v -3.088000 13.289000 -9.227000
v 0.678000 13.289000 -9.227000
v -3.000000 13.289000 -8.727000
v 0.057000 13.289000 -8.727000
v -2.952000 13.289000 -8.227000
v -0.203000 13.289000 -8.227000
v -3.008000 13.289000 -7.727000
v -0.259000 13.289000 -7.727000
v -3.122000 13.289000 -7.227000
v -0.282000 13.289000 -7.227000
v -3.076000 13.289000 -6.727000
v -0.540000 13.289000 -6.727000
v -2.815000 13.289000 -6.227000
v -0.998000 13.289000 -6.227000
v -4.936000 9.289000 -8.826000
v -4.936000 9.289000 -7.419000
v -4.436000 9.289000 -9.118000
v -4.436000 9.289000 -6.932000
v -3.936000 9.289000 -9.176000
v -3.936000 9.289000 -6.802000
v -3.436000 9.289000 -9.047000
v -3.436000 9.289000 -6.897000
v -2.936000 9.289000 -8.630000
v -2.936000 9.289000 -7.308000
v -2.936000 13.289000 -10.940000
v -2.936000 13.289000 -6.399000
v -2.436000 13.289000 -11.947000
v -2.436000 13.289000 -5.931000
v -1.936000 13.289000 -12.149000
v -1.936000 13.289000 -5.807000
v -1.436000 13.289000 -12.155000
v -1.436000 13.289000 -5.903000
v -0.936000 13.289000 -12.194000
v -0.936000 13.289000 -6.306000
v -0.436000 13.289000 -12.257000
v -0.436000 13.289000 -6.867000
v 0.064000 13.289000 -12.334000
v 0.064000 13.289000 -8.736000
v 0.564000 13.289000 -12.235000
v 0.564000 13.289000 -9.158000
v 1.064000 13.289000 -11.889000
v 1.064000 13.289000 -9.523000
v -4.936000 10.530000 -12.227000
v -4.936000 12.501000 -12.227000
v -4.436000 10.100000 -12.227000
v -4.436000 12.821000 -12.227000
v -3.936000 9.754000 -12.227000
v -3.936000 12.907000 -12.227000
v -3.436000 9.651000 -12.227000
v -3.436000 12.936000 -12.227000
v -2.936000 9.653000 -12.227000
v -2.936000 13.010000 -12.227000
v -2.436000 9.729000 -12.227000
v -2.436000 13.155000 -12.227000
v -1.936000 10.034000 -12.227000
v -1.936000 13.247000 -12.227000
v -1.436000 10.488000 -12.227000
v -1.436000 13.216000 -12.227000
v -0.936000 10.790000 -12.227000
v -0.936000 13.230000 -12.227000
v -0.436000 10.863000 -12.227000
v -0.436000 13.385000 -12.227000
v 0.064000 11.045000 -12.227000
v 0.064000 13.620000 -12.227000
v 0.564000 11.650000 -12.227000
v 0.564000 13.325000 -12.227000
v -6.436000 10.030000 -8.227000
v -6.436000 11.954000 -8.227000
v -5.936000 9.705000 -8.227000
v -5.936000 12.280000 -8.227000
v -5.436000 9.525000 -8.227000
v -5.436000 12.386000 -8.227000
v -4.936000 9.152000 -8.227000
v -4.936000 12.487000 -8.227000
v -4.436000 8.794000 -8.227000
v -4.436000 12.632000 -8.227000
v -3.936000 8.685000 -8.227000
v -3.936000 12.855000 -8.227000
v -3.436000 8.765000 -8.227000
v -3.436000 13.030000 -8.227000
v -2.936000 9.078000 -8.227000
v -2.936000 13.296000 -8.227000
v -2.436000 9.495000 -8.227000
v -2.436000 13.554000 -8.227000
v -1.936000 9.662000 -8.227000
v -1.936000 13.832000 -8.227000
v -1.436000 9.772000 -8.227000
v -1.436000 13.910000 -8.227000
v -0.936000 10.112000 -8.227000
v -0.936000 13.813000 -8.227000
v -0.436000 10.537000 -8.227000
v -0.436000 13.535000 -8.227000
v 0.064000 11.356000 -8.227000
v 0.064000 12.689000 -8.227000
v -4.014000 9.789000 -12.227000
v -2.290000 9.789000 -12.227000
v -4.008000 9.789000 -11.727000
v -2.325000 9.789000 -11.727000
v -4.401000 9.789000 -9.727000
v -3.639000 9.789000 -9.727000
v -5.390000 9.789000 -9.227000
v -2.785000 9.789000 -9.227000
v -5.722000 9.789000 -8.727000
v -2.345000 9.789000 -8.727000
v -6.119000 9.789000 -8.227000
v -1.395000 9.789000 -8.227000
v -6.128000 9.789000 -7.727000
v -1.383000 9.789000 -7.727000
v -5.573000 9.789000 -7.227000
v -2.325000 9.789000 -7.227000
v -4.747000 9.789000 -6.727000
v -3.310000 9.789000 -6.727000
v -0.983000 13.789000 -11.727000
v 0.940000 13.789000 -11.727000
v -1.567000 13.789000 -11.227000
v 1.195000 13.789000 -11.227000
v -1.662000 13.789000 -10.727000
v 1.224000 13.789000 -10.727000
v -2.025000 13.789000 -10.227000
v 1.222000 13.789000 -10.227000
v -2.069000 13.789000 -9.727000
v 0.994000 13.789000 -9.727000
v -2.126000 13.789000 -9.227000
v 0.112000 13.789000 -9.227000
v -2.128000 13.789000 -8.727000
v -0.718000 13.789000 -8.727000
v -2.046000 13.789000 -8.227000
v -0.876000 13.789000 -8.227000
v -2.118000 13.789000 -7.727000
v -0.804000 13.789000 -7.727000
v -2.525000 13.789000 -7.227000
v -0.831000 13.789000 -7.227000
v -2.508000 13.789000 -6.727000
v -1.298000 13.789000 -6.727000
v -5.936000 9.789000 -8.493000
v -5.936000 9.789000 -7.436000
v -5.436000 9.789000 -9.162000
v -5.436000 9.789000 -7.120000
v -4.936000 9.789000 -9.585000
v -4.936000 9.789000 -6.788000
v -4.436000 9.789000 -9.724000
v -4.436000 9.789000 -6.627000
v -3.936000 9.789000 -12.367000
v -3.936000 9.789000 -11.601000
v -3.936000 9.789000 -9.765000
v -3.936000 9.789000 -6.578000
v -3.436000 9.789000 -12.633000
v -3.436000 9.789000 -11.335000
v -3.436000 9.789000 -9.663000
v -3.436000 9.789000 -6.671000
v -2.936000 9.789000 -12.652000
v -2.936000 9.789000 -11.383000
v -2.936000 9.789000 -9.432000
v -2.936000 9.789000 -6.920000
v -2.436000 9.789000 -12.462000
v -2.436000 9.789000 -11.573000
v -2.436000 9.789000 -8.784000
v -2.436000 9.789000 -7.181000
v -1.936000 9.789000 -8.586000
v -1.936000 9.789000 -7.342000
v -1.436000 9.789000 -8.300000
v -1.436000 9.789000 -7.627000
v -2.436000 13.789000 -7.392000
v -2.436000 13.789000 -6.605000
v -1.936000 13.789000 -10.368000
v -1.936000 13.789000 -6.339000
v -1.436000 13.789000 -11.447000
v -1.436000 13.789000 -6.535000
v -0.936000 13.789000 -11.752000
v -0.936000 13.789000 -7.065000
v -0.436000 13.789000 -12.028000
v -0.436000 13.789000 -8.958000
v 0.064000 13.789000 -12.133000
v 0.064000 13.789000 -9.210000
v 0.564000 13.789000 -12.015000
v 0.564000 13.789000 -9.380000
v 1.064000 13.789000 -11.553000
v 1.064000 13.789000 -9.828000
v -4.936000 10.550000 -11.727000
v -4.936000 12.513000 -11.727000
v -4.436000 10.110000 -11.727000
v -4.436000 12.834000 -11.727000
v -3.936000 9.757000 -11.727000
v -3.936000 12.925000 -11.727000
v -3.436000 9.654000 -11.727000
v -3.436000 12.935000 -11.727000
v -2.936000 9.668000 -11.727000
v -2.936000 13.087000 -11.727000
v -2.436000 9.745000 -11.727000
v -2.436000 13.344000 -11.727000
v -1.936000 10.031000 -11.727000
v -1.936000 13.461000 -11.727000
v -1.436000 10.284000 -11.727000
v -1.436000 13.645000 -11.727000
v -0.936000 10.387000 -11.727000
v -0.936000 13.807000 -11.727000
v -0.436000 10.370000 -11.727000
v -0.436000 14.091000 -11.727000
v 0.064000 10.468000 -11.727000
v 0.064000 14.198000 -11.727000
v 0.564000 10.866000 -11.727000
v 0.564000 14.079000 -11.727000
v 1.064000 11.385000 -11.727000
v 1.064000 13.614000 -11.727000
v -6.436000 10.024000 -7.727000
v -6.436000 11.960000 -7.727000
v -5.936000 9.700000 -7.727000
v -5.936000 12.285000 -7.727000
v -5.436000 9.531000 -7.727000
v -5.436000 12.390000 -7.727000
v -4.936000 9.152000 -7.727000
v -4.936000 12.541000 -7.727000
v -4.436000 8.791000 -7.727000
v -4.436000 12.793000 -7.727000
v -3.936000 8.683000 -7.727000
v -3.936000 12.892000 -7.727000
v -3.436000 8.762000 -7.727000
v -3.436000 13.029000 -7.727000
v -2.936000 9.075000 -7.727000
v -2.936000 13.341000 -7.727000
v -2.436000 9.490000 -7.727000
v -2.436000 13.656000 -7.727000
v -1.936000 9.657000 -7.727000
v -1.936000 13.857000 -7.727000
v -1.436000 9.767000 -7.727000
v -1.436000 13.947000 -7.727000
v -0.936000 10.113000 -7.727000
v -0.936000 13.850000 -7.727000
v -0.436000 10.576000 -7.727000
v -0.436000 13.514000 -7.727000
v -4.613000 10.289000 -13.227000
v -2.872000 10.289000 -13.227000
v -4.638000 10.289000 -12.727000
v -1.943000 10.289000 -12.727000
v -4.647000 10.289000 -12.227000
v -1.669000 10.289000 -12.227000
v -4.614000 10.289000 -11.727000
v -1.423000 10.289000 -11.727000
v -4.585000 10.289000 -11.227000
v -1.597000 10.289000 -11.227000
v -1.074000 10.289000 -11.227000
v 0.085000 10.289000 -11.227000
v -4.616000 10.289000 -10.727000
v -2.402000 10.289000 -10.727000
v -0.863000 10.289000 -10.727000
v 0.034000 10.289000 -10.727000
v -4.848000 10.289000 -10.227000
v -2.566000 10.289000 -10.227000
v -5.326000 10.289000 -9.727000
v -2.391000 10.289000 -9.727000
v -5.801000 10.289000 -9.227000
v -1.788000 10.289000 -9.227000
v -6.394000 10.289000 -8.727000
v -0.759000 10.289000 -8.727000
v -6.635000 10.289000 -8.227000
v -0.733000 10.289000 -8.227000
v -6.640000 10.289000 -7.727000
v -0.767000 10.289000 -7.727000
v -6.413000 10.289000 -7.227000
v -0.895000 10.289000 -7.227000
v -5.860000 10.289000 -6.727000
v -2.807000 10.289000 -6.727000
v -0.493000 14.289000 -11.227000
v 0.595000 14.289000 -11.227000
v -0.575000 14.289000 -10.727000
v 0.674000 14.289000 -10.727000
v -0.582000 14.289000 -10.227000
v 0.680000 14.289000 -10.227000
v -6.436000 10.289000 -8.672000
v -6.436000 10.289000 -7.258000
v -5.936000 10.289000 -9.103000
v -5.936000 10.289000 -6.805000
v -5.436000 10.289000 -9.587000
v -5.436000 10.289000 -6.413000
v -4.936000 10.289000 -10.121000
v -4.936000 10.289000 -6.312000
v -4.436000 10.289000 -13.501000
v -4.436000 10.289000 -6.238000
v -3.936000 10.289000 -13.683000
v -3.936000 10.289000 -6.265000
v -3.436000 10.289000 -13.451000
v -3.436000 10.289000 -6.398000
v -2.936000 10.289000 -13.244000
v -2.936000 10.289000 -6.682000
v -2.436000 10.289000 -13.111000
v -2.436000 10.289000 -10.684000
v -2.436000 10.289000 -9.813000
v -2.436000 10.289000 -6.789000
v -1.936000 10.289000 -12.718000
v -1.936000 10.289000 -11.082000
v -1.936000 10.289000 -9.284000
v -1.936000 10.289000 -6.786000
v -1.436000 10.289000 -11.756000
v -1.436000 10.289000 -11.300000
v -1.436000 10.289000 -9.190000
v -1.436000 10.289000 -6.850000
v -0.936000 10.289000 -11.395000
v -0.936000 10.289000 -10.867000
v -0.936000 10.289000 -9.002000
v -0.936000 10.289000 -7.165000
v -0.436000 10.289000 -11.564000
v -0.436000 10.289000 -10.488000
v 0.064000 10.289000 -11.273000
v 0.064000 10.289000 -10.778000
v -0.436000 14.289000 -11.320000
v -0.436000 14.289000 -9.993000
v 0.064000 14.289000 -11.565000
v 0.064000 14.289000 -9.787000
v 0.564000 14.289000 -11.282000
v 0.564000 14.289000 -10.028000
v -4.936000 10.562000 -11.227000
v -4.936000 12.498000 -11.227000
v -4.436000 10.196000 -11.227000
v -4.436000 12.828000 -11.227000
v -3.936000 9.946000 -11.227000
v -3.936000 12.924000 -11.227000
v -3.436000 9.843000 -11.227000
v -3.436000 13.003000 -11.227000
v -2.936000 9.875000 -11.227000
v -2.936000 13.172000 -11.227000
v -2.436000 9.974000 -11.227000
v -2.436000 13.362000 -11.227000
v -1.936000 10.210000 -11.227000
v -1.936000 13.555000 -11.227000
v -1.436000 10.303000 -11.227000
v -1.436000 13.849000 -11.227000
v -0.936000 10.270000 -11.227000
v -0.936000 14.032000 -11.227000
v -0.436000 10.196000 -11.227000
v -0.436000 14.312000 -11.227000
v 0.064000 10.281000 -11.227000
v 0.064000 14.401000 -11.227000
v 0.564000 10.600000 -11.227000
v 0.564000 14.302000 -11.227000
v 1.064000 11.074000 -11.227000
v 1.064000 13.956000 -11.227000
v -6.436000 10.322000 -7.227000
v -6.436000 11.663000 -7.227000
v -5.936000 9.905000 -7.227000
v -5.936000 12.095000 -7.227000
v -5.436000 9.743000 -7.227000
v -5.436000 12.357000 -7.227000
v -4.936000 9.427000 -7.227000
v -4.936000 12.533000 -7.227000
v -4.436000 9.003000 -7.227000
v -4.436000 12.801000 -7.227000
v -3.936000 8.875000 -7.227000
v -3.936000 12.898000 -7.227000
v -3.436000 8.968000 -7.227000
v -3.436000 13.069000 -7.227000
v -2.936000 9.364000 -7.227000
v -2.936000 13.475000 -7.227000
v -2.436000 9.748000 -7.227000
v -2.436000 13.830000 -7.227000
v -1.936000 9.855000 -7.227000
v -1.936000 13.935000 -7.227000
v -1.436000 9.973000 -7.227000
v -1.436000 13.935000 -7.227000
v -0.936000 10.267000 -7.227000
v -0.936000 13.837000 -7.227000
v -0.436000 10.618000 -7.227000
v -0.436000 13.491000 -7.227000
f 181 113 157
f 157 113 275
f 275 113 233
f 233 182 275
f 159 183 157
f 157 183 181
f 157 277 159
f 157 275 277
f 275 182 277
f 277 182 184
f 161 185 159
f 159 185 183
f 159 279 161
f 159 277 279
f 277 184 279
f 279 184 186
f 161 114 185
f 114 161 234
f 234 161 279
f 279 186 234
f 187 15 63
f 63 15 13
f 15 127 13
f 129 127 15
f 129 247 127
f 249 247 129
f 249 355 247
f 357 355 249
f 357 188 355
f 355 188 64
f 189 821 65
f 65 821 817
f 63 817 821
f 63 821 187
f 459 64 188
f 459 188 461
f 461 190 459
f 459 190 66
f 191 65 67
f 191 189 65
f 66 192 68
f 190 192 66
f 193 67 69
f 193 191 67
f 68 194 70
f 192 194 68
f 195 69 71
f 195 193 69
f 569 70 194
f 569 194 571
f 571 196 569
f 569 196 72
f 822 195 860
f 195 73 860
f 195 71 73
f 197 822 860
f 72 198 74
f 196 198 72
f 818 860 73
f 197 860 818
f 75 197 818
f 199 197 75
f 198 693 739
f 76 198 739
f 74 198 76
f 693 200 739
f 201 75 77
f 201 199 75
f 739 691 76
f 739 200 691
f 200 78 691
f 200 202 78
f 203 77 79
f 203 201 77
f 78 204 80
f 202 204 78
f 876 819 81
f 79 819 876
f 205 79 876
f 203 79 205
f 839 80 204
f 839 204 841
f 841 206 839
f 839 206 82
f 820 876 81
f 205 876 820
f 83 205 820
f 207 205 83
f 82 208 84
f 206 208 82
f 209 83 85
f 209 207 83
f 84 210 86
f 208 210 84
f 85 14 209
f 209 14 16
f 211 16 14
f 211 14 87
f 842 212 88
f 842 88 840
f 840 86 842
f 842 86 210
f 87 128 211
f 211 128 130
f 248 130 128
f 248 250 130
f 356 250 248
f 356 358 250
f 460 358 356
f 460 462 358
f 570 462 460
f 570 572 462
f 692 572 570
f 692 694 572
f 692 88 694
f 694 88 212
f 36 29 89
f 152 143 36
f 36 143 29
f 152 90 143
f 848 835 91
f 31 36 89
f 31 89 835
f 213 31 835
f 848 213 835
f 36 31 145
f 36 145 152
f 214 272 263
f 214 263 90
f 145 214 90
f 152 145 90
f 272 92 263
f 93 850 91
f 91 850 848
f 213 848 850
f 213 850 215
f 216 274 272
f 216 272 214
f 92 272 371
f 272 380 371
f 272 274 380
f 380 94 371
f 716 685 95
f 685 716 93
f 716 850 93
f 716 852 850
f 215 850 852
f 215 852 217
f 265 274 216
f 274 265 218
f 382 274 218
f 380 274 382
f 94 380 96
f 96 380 382
f 97 720 95
f 95 720 716
f 854 716 720
f 852 716 854
f 217 852 854
f 217 854 219
f 220 384 382
f 220 382 218
f 96 382 98
f 98 382 384
f 99 724 97
f 97 724 720
f 856 720 724
f 854 720 856
f 219 854 856
f 219 856 221
f 373 384 220
f 222 492 475
f 222 475 98
f 373 222 98
f 384 373 98
f 492 100 475
f 686 724 99
f 101 858 686
f 858 724 686
f 858 856 724
f 48 32 221
f 856 48 221
f 858 48 856
f 223 32 48
f 477 492 222
f 224 600 585
f 224 585 100
f 477 224 100
f 492 477 100
f 600 102 585
f 836 858 101
f 103 50 836
f 50 858 836
f 50 48 858
f 166 146 223
f 48 166 223
f 50 166 48
f 225 146 166
f 587 600 224
f 226 738 707
f 226 707 102
f 587 226 102
f 600 587 102
f 738 104 707
f 105 52 103
f 103 52 50
f 52 227 147
f 166 52 147
f 50 52 166
f 225 166 147
f 228 740 738
f 228 738 226
f 104 738 106
f 106 738 740
f 107 54 105
f 105 54 52
f 227 52 54
f 227 54 229
f 230 742 740
f 230 740 228
f 106 740 108
f 108 740 742
f 109 56 107
f 107 56 54
f 172 148 229
f 54 172 229
f 56 172 54
f 231 148 172
f 588 232 608
f 742 230 588
f 742 588 608
f 708 742 608
f 110 708 608
f 108 742 708
f 30 56 109
f 111 174 30
f 174 56 30
f 174 172 56
f 292 266 231
f 172 292 231
f 174 292 172
f 266 292 398
f 266 398 374
f 374 398 504
f 374 504 478
f 608 232 478
f 608 478 504
f 586 608 504
f 112 586 504
f 110 608 586
f 144 174 111
f 264 292 144
f 144 292 174
f 372 398 264
f 264 398 292
f 476 504 372
f 372 504 398
f 112 504 476
f 299 115 155
f 155 115 273
f 273 115 235
f 235 300 273
f 301 1 41
f 299 155 1
f 1 155 41
f 155 113 41
f 113 181 41
f 273 233 113
f 273 113 155
f 300 343 381
f 300 381 182
f 273 300 182
f 233 273 182
f 343 302 381
f 43 303 41
f 41 303 301
f 41 181 183
f 41 183 43
f 383 184 182
f 383 182 381
f 381 302 383
f 383 302 304
f 45 305 43
f 43 305 303
f 43 183 185
f 43 185 45
f 385 186 184
f 385 184 383
f 383 304 385
f 385 304 306
f 45 2 305
f 163 307 114
f 114 307 185
f 307 2 185
f 2 45 185
f 234 281 163
f 234 163 114
f 385 344 186
f 186 344 234
f 344 308 234
f 308 281 234
f 385 306 344
f 163 116 307
f 116 163 236
f 236 163 281
f 281 308 236
f 309 17 37
f 37 17 153
f 153 17 131
f 153 131 271
f 271 131 251
f 251 310 271
f 311 823 849
f 309 37 823
f 823 37 849
f 37 15 849
f 15 187 849
f 153 129 15
f 153 15 37
f 271 249 129
f 271 129 153
f 249 271 310
f 359 249 310
f 357 249 359
f 359 312 357
f 357 312 188
f 821 189 849
f 189 311 849
f 189 313 311
f 849 187 821
f 314 486 461
f 188 314 461
f 312 314 188
f 486 190 461
f 315 673 719
f 191 719 673
f 313 191 673
f 189 191 313
f 463 486 314
f 463 316 486
f 316 190 486
f 316 192 190
f 719 674 315
f 317 674 719
f 191 317 719
f 193 317 191
f 192 318 194
f 316 318 192
f 319 193 195
f 319 317 193
f 571 194 318
f 571 318 573
f 573 320 571
f 571 320 196
f 861 321 822
f 321 195 822
f 321 319 195
f 197 861 822
f 196 322 198
f 320 322 196
f 861 824 321
f 323 824 861
f 197 323 861
f 199 323 197
f 693 198 322
f 693 322 695
f 695 324 693
f 693 324 200
f 325 199 201
f 325 323 199
f 200 326 202
f 324 326 200
f 327 201 203
f 327 325 201
f 202 328 204
f 326 328 202
f 329 203 205
f 329 327 203
f 330 880 841
f 204 330 841
f 328 330 204
f 880 206 841
f 331 205 207
f 331 329 205
f 332 882 880
f 332 880 330
f 206 880 208
f 208 880 882
f 18 331 62
f 331 209 62
f 331 207 209
f 333 18 62
f 334 884 882
f 334 882 332
f 208 882 210
f 210 882 884
f 16 62 209
f 132 333 180
f 180 333 211
f 333 62 211
f 62 16 211
f 335 132 180
f 696 336 752
f 884 334 696
f 884 696 752
f 842 884 752
f 212 842 752
f 210 884 842
f 130 180 211
f 180 130 335
f 130 252 335
f 130 250 252
f 358 252 250
f 358 360 252
f 462 360 358
f 462 464 360
f 572 464 462
f 572 574 464
f 336 574 752
f 574 694 752
f 574 572 694
f 212 752 694
f 38 31 213
f 154 145 38
f 38 145 31
f 154 214 145
f 215 40 213
f 213 40 38
f 156 38 40
f 154 38 156
f 214 154 216
f 216 154 156
f 217 42 215
f 215 42 40
f 158 40 42
f 156 40 158
f 216 156 265
f 156 276 265
f 156 158 276
f 276 218 265
f 219 44 217
f 217 44 42
f 160 42 44
f 158 42 160
f 278 158 160
f 276 158 278
f 218 276 220
f 220 276 278
f 221 46 219
f 219 46 44
f 162 44 46
f 160 44 162
f 280 160 162
f 278 160 280
f 220 278 373
f 278 386 373
f 278 280 386
f 386 222 373
f 32 46 221
f 223 164 32
f 164 46 32
f 164 162 46
f 282 162 164
f 280 162 282
f 388 280 282
f 386 280 388
f 222 386 477
f 386 494 477
f 386 388 494
f 494 224 477
f 146 164 223
f 225 284 146
f 284 164 146
f 284 282 164
f 390 282 284
f 388 282 390
f 390 337 479
f 494 390 479
f 388 390 494
f 338 602 587
f 338 587 224
f 479 338 224
f 494 479 224
f 602 226 587
f 168 147 227
f 147 168 225
f 168 284 225
f 168 286 284
f 286 339 375
f 390 286 375
f 284 286 390
f 337 390 375
f 340 604 602
f 340 602 338
f 226 602 228
f 228 602 604
f 229 170 227
f 227 170 168
f 288 168 170
f 286 168 288
f 339 286 288
f 339 288 341
f 342 606 604
f 342 604 340
f 228 604 230
f 230 604 606
f 148 170 229
f 231 290 148
f 290 170 148
f 290 288 170
f 396 376 341
f 288 396 341
f 290 396 288
f 376 396 502
f 376 502 480
f 606 342 480
f 606 480 502
f 588 606 502
f 232 588 502
f 230 606 588
f 266 290 231
f 374 396 266
f 266 396 290
f 478 502 374
f 374 502 396
f 232 502 478
f 405 3 39
f 39 3 299
f 3 115 299
f 3 117 115
f 117 235 115
f 237 235 117
f 300 235 379
f 235 345 379
f 235 237 345
f 345 406 379
f 407 805 851
f 405 39 805
f 805 39 851
f 39 1 851
f 1 301 851
f 39 299 1
f 379 343 300
f 406 449 485
f 406 485 302
f 379 406 302
f 343 379 302
f 449 408 485
f 853 409 851
f 851 409 407
f 851 301 303
f 851 303 853
f 489 304 302
f 489 302 485
f 485 408 489
f 489 408 410
f 855 411 853
f 853 411 409
f 853 303 305
f 853 305 855
f 491 306 304
f 491 304 489
f 489 410 491
f 491 410 412
f 857 413 855
f 855 413 411
f 855 305 2
f 47 855 2
f 857 855 47
f 307 47 2
f 344 387 308
f 491 450 306
f 306 450 344
f 450 414 344
f 414 387 344
f 491 412 450
f 857 806 413
f 806 857 415
f 857 49 415
f 857 47 49
f 47 307 116
f 165 47 116
f 49 47 165
f 236 283 165
f 236 165 116
f 387 346 308
f 308 346 236
f 346 416 236
f 416 283 236
f 387 414 346
f 49 4 415
f 4 49 118
f 118 49 165
f 118 165 238
f 238 165 283
f 283 416 238
f 417 19 35
f 35 19 151
f 151 19 133
f 133 418 151
f 419 825 847
f 417 35 825
f 825 35 847
f 35 17 847
f 17 309 847
f 151 131 17
f 151 17 35
f 131 151 418
f 253 131 418
f 251 131 253
f 253 420 251
f 251 420 310
f 421 675 713
f 419 847 675
f 675 847 713
f 847 823 713
f 823 311 713
f 847 309 823
f 359 310 420
f 359 420 361
f 361 422 359
f 359 422 312
f 715 423 713
f 713 423 421
f 713 311 313
f 713 313 715
f 312 424 314
f 422 424 312
f 673 315 715
f 315 423 715
f 315 425 423
f 715 313 673
f 463 314 424
f 463 424 465
f 465 426 463
f 463 426 316
f 723 427 674
f 427 315 674
f 427 425 315
f 317 723 674
f 316 428 318
f 426 428 316
f 727 429 723
f 723 429 427
f 723 317 319
f 723 319 727
f 573 318 428
f 573 428 575
f 575 430 573
f 573 430 320
f 727 676 429
f 431 676 727
f 319 431 727
f 321 431 319
f 320 432 322
f 430 432 320
f 865 433 824
f 433 321 824
f 433 431 321
f 323 865 824
f 695 322 432
f 695 432 697
f 697 434 695
f 695 434 324
f 865 826 433
f 435 826 865
f 323 435 865
f 325 435 323
f 324 436 326
f 434 436 324
f 437 325 327
f 437 435 325
f 326 438 328
f 436 438 326
f 439 327 329
f 439 437 327
f 328 440 330
f 438 440 328
f 20 439 60
f 439 331 60
f 439 329 331
f 441 20 60
f 330 442 332
f 440 442 330
f 18 60 331
f 134 441 178
f 178 441 333
f 441 60 333
f 60 18 333
f 443 134 178
f 698 444 750
f 750 334 698
f 334 442 698
f 334 332 442
f 132 178 333
f 254 443 298
f 298 443 335
f 443 178 335
f 178 132 335
f 254 298 404
f 254 404 362
f 362 404 510
f 362 510 466
f 466 510 616
f 466 616 576
f 750 444 576
f 750 576 616
f 696 750 616
f 336 696 616
f 334 750 696
f 252 298 335
f 360 404 252
f 252 404 298
f 464 510 360
f 360 510 404
f 574 616 464
f 464 616 510
f 336 616 574
f 496 479 337
f 496 338 479
f 392 375 339
f 375 392 337
f 392 496 337
f 392 498 496
f 338 496 340
f 340 496 498
f 341 394 339
f 339 394 392
f 500 392 394
f 498 392 500
f 340 498 342
f 342 498 500
f 376 394 341
f 480 500 376
f 376 500 394
f 342 500 480
f 511 5 405
f 405 5 3
f 5 117 3
f 119 117 5
f 119 237 117
f 239 237 119
f 239 345 237
f 347 345 239
f 347 512 345
f 345 512 406
f 513 807 407
f 407 807 805
f 405 805 807
f 405 807 511
f 449 406 512
f 449 512 451
f 451 514 449
f 449 514 408
f 515 407 409
f 515 513 407
f 408 516 410
f 514 516 408
f 517 409 411
f 517 515 409
f 410 518 412
f 516 518 410
f 519 411 413
f 519 517 411
f 450 493 414
f 450 412 493
f 412 520 493
f 412 518 520
f 859 521 806
f 521 413 806
f 521 519 413
f 415 859 806
f 346 389 416
f 493 452 414
f 414 452 346
f 452 522 346
f 522 389 346
f 493 520 452
f 859 808 521
f 51 523 4
f 4 523 415
f 523 808 415
f 808 859 415
f 118 167 51
f 118 51 4
f 238 285 167
f 238 167 118
f 285 238 416
f 389 285 416
f 391 285 389
f 389 522 391
f 391 522 524
f 51 6 523
f 6 51 120
f 120 51 167
f 120 167 525
f 167 287 525
f 167 285 287
f 285 393 287
f 285 391 393
f 391 524 393
f 393 524 526
f 287 240 525
f 240 287 348
f 348 287 393
f 393 526 348
f 527 21 33
f 33 21 149
f 149 21 135
f 135 528 149
f 529 827 845
f 527 33 827
f 827 33 845
f 33 19 845
f 19 417 845
f 149 133 19
f 149 19 33
f 528 255 269
f 528 269 418
f 149 528 418
f 133 149 418
f 255 530 269
f 531 677 711
f 529 845 677
f 677 845 711
f 845 825 711
f 825 419 711
f 845 417 825
f 269 253 418
f 530 363 377
f 530 377 420
f 269 530 420
f 253 269 420
f 363 532 377
f 533 555 589
f 531 711 555
f 555 711 589
f 711 675 589
f 675 421 589
f 711 419 675
f 377 361 420
f 377 532 361
f 532 422 361
f 532 534 422
f 591 535 589
f 589 535 533
f 589 421 423
f 589 423 591
f 422 536 424
f 534 536 422
f 593 537 591
f 591 537 535
f 591 423 425
f 591 425 593
f 465 424 536
f 465 536 467
f 467 538 465
f 465 538 426
f 595 539 593
f 593 539 537
f 593 425 427
f 593 427 595
f 426 540 428
f 538 540 426
f 595 556 539
f 541 556 595
f 427 541 595
f 429 541 427
f 575 428 540
f 575 540 577
f 577 542 575
f 575 542 430
f 731 543 676
f 543 429 676
f 543 541 429
f 431 731 676
f 430 544 432
f 542 544 430
f 731 678 543
f 545 678 731
f 431 545 731
f 433 545 431
f 697 432 544
f 697 544 699
f 699 546 697
f 697 546 434
f 869 547 826
f 547 433 826
f 547 545 433
f 435 869 826
f 434 548 436
f 546 548 434
f 873 549 869
f 869 549 547
f 869 435 437
f 869 437 873
f 436 550 438
f 548 550 436
f 873 828 549
f 551 828 873
f 437 551 873
f 439 551 437
f 700 552 746
f 746 440 700
f 440 550 700
f 440 438 550
f 439 20 551
f 551 20 22
f 553 22 20
f 553 20 441
f 578 554 612
f 746 552 578
f 612 746 578
f 748 746 612
f 440 746 442
f 442 746 748
f 441 134 553
f 553 134 136
f 134 443 296
f 256 134 296
f 136 134 256
f 256 296 402
f 256 402 364
f 364 402 508
f 364 508 468
f 612 554 468
f 508 612 468
f 614 612 508
f 698 748 444
f 748 614 444
f 748 612 614
f 442 748 698
f 254 296 443
f 362 402 254
f 254 402 296
f 466 508 362
f 362 508 402
f 576 614 466
f 466 614 508
f 444 614 576
f 617 7 511
f 511 7 5
f 7 119 5
f 121 119 7
f 121 239 119
f 241 239 121
f 241 347 239
f 349 347 241
f 349 618 347
f 347 618 512
f 619 809 513
f 513 809 807
f 511 807 809
f 511 809 617
f 451 512 618
f 451 618 453
f 453 620 451
f 451 620 514
f 621 669 717
f 515 717 669
f 619 515 669
f 513 515 619
f 514 622 516
f 620 622 514
f 721 623 717
f 717 623 621
f 717 515 517
f 717 517 721
f 516 624 518
f 622 624 516
f 725 625 721
f 721 625 623
f 721 517 519
f 721 519 725
f 518 626 520
f 624 626 518
f 729 627 725
f 725 627 625
f 725 519 521
f 725 521 729
f 452 495 522
f 452 520 495
f 520 628 495
f 520 626 628
f 729 670 627
f 863 629 808
f 808 629 521
f 629 670 521
f 670 729 521
f 523 863 808
f 497 524 522
f 497 522 495
f 495 628 497
f 497 628 630
f 863 810 629
f 53 631 6
f 6 631 523
f 631 810 523
f 810 863 523
f 120 169 53
f 120 53 6
f 525 169 120
f 499 526 524
f 499 524 497
f 497 630 499
f 499 630 632
f 53 8 631
f 8 53 633
f 53 171 633
f 53 169 171
f 169 525 240
f 289 169 240
f 171 169 289
f 348 395 289
f 348 289 240
f 395 348 526
f 499 395 526
f 501 395 499
f 499 632 501
f 501 632 634
f 173 635 171
f 171 635 633
f 171 291 173
f 171 289 291
f 289 397 291
f 289 395 397
f 395 503 397
f 395 501 503
f 563 609 634
f 609 501 634
f 609 503 501
f 563 636 609
f 175 637 173
f 173 637 635
f 173 293 175
f 173 291 293
f 291 399 293
f 291 397 399
f 397 505 399
f 397 503 505
f 503 611 505
f 503 609 611
f 609 636 611
f 611 636 638
f 175 122 637
f 122 175 639
f 175 295 639
f 175 293 295
f 293 401 295
f 293 399 401
f 399 507 401
f 399 505 507
f 505 613 507
f 505 611 613
f 611 638 613
f 613 638 640
f 295 242 639
f 242 295 350
f 350 295 401
f 350 401 454
f 454 401 507
f 454 507 564
f 564 507 613
f 613 640 564
f 641 829 843
f 843 829 527
f 829 21 527
f 829 23 21
f 23 135 21
f 137 135 23
f 528 135 267
f 135 257 267
f 135 137 257
f 257 642 267
f 643 679 709
f 641 843 679
f 679 843 709
f 843 827 709
f 827 529 709
f 843 527 827
f 267 255 528
f 267 642 255
f 642 530 255
f 642 644 530
f 677 531 709
f 531 643 709
f 531 645 643
f 709 529 677
f 363 530 644
f 363 644 365
f 365 646 363
f 363 646 532
f 647 557 533
f 533 557 555
f 531 555 557
f 531 557 645
f 532 648 534
f 646 648 532
f 649 533 535
f 649 647 533
f 534 650 536
f 648 650 534
f 651 445 481
f 537 481 445
f 649 537 445
f 535 537 649
f 467 536 650
f 467 650 469
f 469 652 467
f 467 652 538
f 483 653 481
f 481 653 651
f 481 537 539
f 481 539 483
f 538 654 540
f 652 654 538
f 483 446 653
f 597 655 556
f 556 655 539
f 655 446 539
f 446 483 539
f 541 597 556
f 577 540 654
f 577 654 579
f 579 656 577
f 577 656 542
f 597 558 655
f 657 558 597
f 541 657 597
f 543 657 541
f 542 658 544
f 656 658 542
f 733 659 678
f 659 543 678
f 659 657 543
f 545 733 678
f 699 544 658
f 699 658 701
f 701 660 699
f 699 660 546
f 735 661 733
f 733 661 659
f 733 545 547
f 733 547 735
f 546 662 548
f 660 662 546
f 735 680 661
f 663 680 735
f 547 663 735
f 549 663 547
f 548 664 550
f 662 664 548
f 549 828 663
f 663 828 830
f 665 830 828
f 665 828 551
f 702 666 552
f 702 552 700
f 700 550 702
f 702 550 664
f 551 22 665
f 665 22 24
f 22 553 176
f 138 22 176
f 24 22 138
f 667 138 176
f 470 668 506
f 470 506 554
f 578 470 554
f 580 470 578
f 578 552 580
f 580 552 666
f 136 176 553
f 176 136 667
f 136 258 667
f 136 256 258
f 364 258 256
f 364 366 258
f 668 366 506
f 366 468 506
f 366 364 468
f 554 506 468
f 753 9 617
f 617 9 7
f 9 121 7
f 123 121 9
f 123 241 121
f 243 241 123
f 243 349 241
f 351 349 243
f 351 754 349
f 349 754 618
f 755 811 619
f 619 811 809
f 617 809 811
f 617 811 753
f 453 618 754
f 453 754 455
f 455 756 453
f 453 756 620
f 757 671 621
f 621 671 669
f 619 669 671
f 619 671 755
f 620 758 622
f 756 758 620
f 759 621 623
f 759 757 621
f 622 760 624
f 758 760 622
f 761 623 625
f 761 759 623
f 624 762 626
f 760 762 624
f 763 625 627
f 763 761 625
f 762 565 601
f 628 762 601
f 626 762 628
f 565 764 601
f 627 670 763
f 763 670 672
f 765 672 670
f 765 670 629
f 603 630 628
f 603 628 601
f 601 764 603
f 603 764 766
f 867 767 810
f 767 629 810
f 767 765 629
f 631 867 810
f 605 632 630
f 605 630 603
f 603 766 605
f 605 766 768
f 867 812 767
f 55 769 8
f 8 769 631
f 769 812 631
f 812 867 631
f 633 55 8
f 607 634 632
f 607 632 605
f 687 743 768
f 743 605 768
f 743 607 605
f 687 770 743
f 57 771 55
f 55 771 769
f 55 633 635
f 55 635 57
f 607 563 634
f 745 636 563
f 607 745 563
f 743 745 607
f 743 770 745
f 745 770 772
f 59 773 57
f 57 773 771
f 57 635 637
f 57 637 59
f 747 638 636
f 747 636 745
f 745 772 747
f 747 772 774
f 59 10 773
f 177 775 122
f 122 775 637
f 775 10 637
f 10 59 637
f 639 177 122
f 749 640 638
f 749 638 747
f 747 774 749
f 749 774 776
f 177 124 775
f 297 777 242
f 242 777 639
f 777 124 639
f 124 177 639
f 350 403 297
f 350 297 242
f 454 509 403
f 454 403 350
f 564 615 509
f 564 509 454
f 749 688 640
f 640 688 564
f 688 778 564
f 778 615 564
f 749 776 688
f 297 244 777
f 244 297 352
f 352 297 403
f 352 403 456
f 456 403 509
f 456 509 566
f 566 509 615
f 615 778 566
f 779 831 641
f 641 831 829
f 831 23 829
f 25 23 831
f 25 137 23
f 139 137 25
f 139 257 137
f 259 257 139
f 259 780 257
f 257 780 642
f 781 681 643
f 643 681 679
f 641 679 681
f 641 681 779
f 642 782 644
f 780 782 642
f 783 643 645
f 783 781 643
f 365 644 782
f 365 782 367
f 367 784 365
f 365 784 646
f 785 559 647
f 647 559 557
f 645 557 559
f 645 559 783
f 646 786 648
f 784 786 646
f 787 647 649
f 787 785 647
f 786 471 487
f 650 786 487
f 648 786 650
f 471 788 487
f 789 447 651
f 651 447 445
f 649 445 447
f 649 447 787
f 487 469 650
f 487 788 469
f 788 652 469
f 788 790 652
f 791 651 653
f 791 789 651
f 652 792 654
f 790 792 652
f 653 446 791
f 791 446 448
f 793 448 446
f 793 446 655
f 579 654 792
f 579 792 581
f 581 794 579
f 579 794 656
f 655 558 793
f 793 558 560
f 795 560 558
f 795 558 657
f 656 796 658
f 794 796 656
f 797 657 659
f 797 795 657
f 701 658 796
f 701 796 703
f 703 798 701
f 701 798 660
f 799 659 661
f 799 797 659
f 660 800 662
f 798 800 660
f 661 680 799
f 799 680 682
f 801 682 680
f 801 680 663
f 662 802 664
f 800 802 662
f 663 830 801
f 801 830 832
f 803 832 830
f 803 830 665
f 704 804 666
f 704 666 702
f 702 664 704
f 704 664 802
f 665 24 803
f 803 24 26
f 138 26 24
f 138 140 26
f 138 667 294
f 260 138 294
f 140 138 260
f 260 294 400
f 260 400 368
f 368 400 668
f 470 368 668
f 472 368 470
f 580 472 470
f 580 582 472
f 580 666 582
f 582 666 804
f 258 294 667
f 366 400 258
f 258 400 294
f 668 400 366
f 885 11 753
f 753 11 9
f 11 123 9
f 125 123 11
f 125 243 123
f 245 243 125
f 245 351 243
f 353 351 245
f 353 886 351
f 351 886 754
f 887 813 755
f 755 813 811
f 753 811 813
f 753 813 885
f 455 754 886
f 455 886 457
f 457 888 455
f 455 888 756
f 718 671 757
f 755 671 718
f 889 755 718
f 887 755 889
f 756 890 758
f 888 890 756
f 759 722 757
f 757 722 718
f 889 718 722
f 889 722 891
f 758 892 760
f 890 892 758
f 761 726 759
f 759 726 722
f 891 722 726
f 891 726 893
f 760 894 762
f 892 894 760
f 763 730 761
f 761 730 726
f 893 726 730
f 893 730 895
f 565 762 894
f 565 894 567
f 567 896 565
f 565 896 764
f 672 730 763
f 895 730 672
f 765 895 672
f 897 895 765
f 764 898 766
f 896 898 764
f 814 897 868
f 897 767 868
f 897 765 767
f 899 814 868
f 898 689 741
f 768 898 741
f 766 898 768
f 689 900 741
f 868 767 812
f 901 815 871
f 769 871 815
f 899 769 815
f 769 868 812
f 769 899 868
f 741 687 768
f 741 900 687
f 900 770 687
f 900 902 770
f 875 903 871
f 871 903 901
f 871 769 771
f 871 771 875
f 902 837 879
f 772 902 879
f 770 902 772
f 837 904 879
f 877 905 875
f 875 905 903
f 875 771 773
f 875 773 877
f 881 774 772
f 881 772 879
f 879 904 881
f 881 904 906
f 877 816 905
f 61 907 10
f 10 907 773
f 907 816 773
f 816 877 773
f 775 61 10
f 883 776 774
f 883 774 881
f 881 906 883
f 883 906 908
f 61 12 907
f 179 909 124
f 124 909 775
f 909 12 775
f 12 61 775
f 777 179 124
f 688 751 778
f 883 838 776
f 776 838 688
f 838 910 688
f 910 751 688
f 883 908 838
f 179 126 909
f 777 244 179
f 244 126 179
f 244 246 126
f 352 246 244
f 352 354 246
f 456 354 352
f 456 458 354
f 566 458 456
f 566 568 458
f 751 690 778
f 690 566 778
f 690 568 566
f 751 910 690
f 844 831 779
f 911 27 844
f 27 831 844
f 27 25 831
f 27 139 25
f 141 139 27
f 268 259 912
f 259 141 912
f 259 139 141
f 268 780 259
f 710 681 781
f 833 844 779
f 833 779 681
f 913 833 681
f 710 913 681
f 911 844 833
f 261 268 912
f 261 914 268
f 914 780 268
f 914 782 780
f 710 781 683
f 781 915 683
f 781 783 915
f 913 710 683
f 367 782 914
f 367 914 369
f 369 916 367
f 367 916 784
f 590 559 785
f 783 559 590
f 917 783 590
f 915 783 917
f 784 918 786
f 916 918 784
f 590 785 561
f 785 919 561
f 785 787 919
f 917 590 561
f 471 786 918
f 471 918 473
f 473 920 471
f 471 920 788
f 482 447 789
f 787 447 482
f 921 787 482
f 919 787 921
f 788 922 790
f 920 922 788
f 791 484 789
f 789 484 482
f 921 482 484
f 921 484 923
f 790 924 792
f 922 924 790
f 448 484 791
f 562 923 598
f 598 923 793
f 923 484 793
f 484 448 793
f 925 562 598
f 581 792 924
f 581 924 583
f 583 926 581
f 581 926 794
f 560 598 793
f 925 598 560
f 795 925 560
f 927 925 795
f 926 705 737
f 796 926 737
f 794 926 796
f 705 928 737
f 684 927 734
f 927 797 734
f 927 795 797
f 929 684 734
f 737 703 796
f 737 928 703
f 928 798 703
f 928 930 798
f 799 736 797
f 797 736 734
f 929 734 736
f 929 736 931
f 798 932 800
f 930 932 798
f 682 736 799
f 931 736 682
f 801 931 682
f 933 931 801
f 800 934 802
f 932 934 800
f 801 832 933
f 933 832 834
f 935 834 832
f 935 832 803
f 706 936 804
f 706 804 704
f 704 802 706
f 706 802 934
f 803 26 935
f 935 26 28
f 140 28 26
f 140 142 28
f 260 142 140
f 260 262 142
f 368 262 260
f 368 370 262
f 472 370 368
f 472 474 370
f 582 474 472
f 582 584 474
f 582 804 584
f 584 804 936
f 63 13 885
f 885 13 11
f 13 125 11
f 127 125 13
f 127 245 125
f 247 245 127
f 247 353 245
f 355 353 247
f 355 64 353
f 353 64 886
f 65 817 887
f 887 817 813
f 885 813 817
f 885 817 63
f 457 886 64
f 457 64 459
f 459 66 457
f 457 66 888
f 67 887 889
f 67 65 887
f 888 68 890
f 66 68 888
f 69 889 891
f 69 67 889
f 890 70 892
f 68 70 890
f 71 891 893
f 71 69 891
f 70 569 599
f 894 70 599
f 892 70 894
f 569 72 599
f 73 893 895
f 73 71 893
f 599 567 894
f 599 72 567
f 72 896 567
f 72 74 896
f 818 73 864
f 73 897 864
f 73 895 897
f 75 818 864
f 896 76 898
f 74 76 896
f 814 864 897
f 75 864 814
f 899 75 814
f 77 75 899
f 689 898 76
f 689 76 691
f 691 78 689
f 689 78 900
f 872 815 901
f 899 815 872
f 79 899 872
f 77 899 79
f 900 80 902
f 78 80 900
f 872 901 819
f 901 81 819
f 901 903 81
f 79 872 819
f 837 902 80
f 837 80 839
f 839 82 837
f 837 82 904
f 820 81 878
f 81 905 878
f 81 903 905
f 83 820 878
f 904 84 906
f 82 84 904
f 816 878 905
f 83 878 816
f 907 83 816
f 85 83 907
f 906 86 908
f 84 86 906
f 907 12 85
f 85 12 14
f 87 14 12
f 87 12 909
f 840 88 910
f 840 910 838
f 838 908 840
f 840 908 86
f 909 126 87
f 87 126 128
f 246 128 126
f 246 248 128
f 354 248 246
f 354 356 248
f 458 356 354
f 458 460 356
f 568 460 458
f 568 570 460
f 690 570 568
f 690 692 570
f 690 910 692
f 692 910 88
f 34 27 911
f 150 141 34
f 34 141 27
f 150 912 141
f 846 833 913
f 29 34 911
f 29 911 833
f 89 29 833
f 846 89 833
f 34 29 143
f 34 143 150
f 90 270 261
f 90 261 912
f 143 90 912
f 150 143 912
f 270 914 261
f 712 683 915
f 835 846 913
f 835 913 683
f 91 835 683
f 712 91 683
f 89 846 835
f 263 270 90
f 92 378 369
f 92 369 914
f 263 92 914
f 270 263 914
f 378 916 369
f 917 714 915
f 915 714 712
f 91 712 714
f 91 714 93
f 371 378 92
f 371 94 378
f 94 916 378
f 94 918 916
f 592 561 919
f 685 714 917
f 685 917 561
f 95 685 561
f 592 95 561
f 93 714 685
f 96 488 473
f 918 96 473
f 94 96 918
f 488 920 473
f 921 594 919
f 919 594 592
f 95 592 594
f 95 594 97
f 98 490 488
f 98 488 96
f 920 488 922
f 922 488 490
f 923 596 921
f 921 596 594
f 97 594 596
f 97 596 99
f 475 490 98
f 475 100 490
f 100 922 490
f 100 924 922
f 562 596 923
f 686 99 728
f 728 99 925
f 99 596 925
f 596 562 925
f 101 686 728
f 583 924 100
f 583 100 585
f 585 102 583
f 583 102 926
f 927 732 925
f 925 732 728
f 862 836 101
f 728 862 101
f 732 862 728
f 103 836 862
f 705 926 102
f 705 102 707
f 707 104 705
f 705 104 928
f 684 732 927
f 929 866 684
f 866 732 684
f 866 862 732
f 103 862 866
f 103 866 105
f 928 106 930
f 104 106 928
f 931 870 929
f 929 870 866
f 105 866 870
f 105 870 107
f 930 108 932
f 106 108 930
f 933 874 931
f 931 874 870
f 107 870 874
f 107 874 109
f 708 110 744
f 744 934 708
f 934 108 708
f 934 932 108
f 834 874 933
f 30 109 58
f 58 109 935
f 109 874 935
f 874 834 935
f 111 30 58
f 586 112 610
f 744 110 586
f 744 586 610
f 706 744 610
f 936 706 610
f 934 744 706
f 28 58 935
f 58 28 111
f 28 144 111
f 28 142 144
f 262 144 142
f 262 264 144
f 370 264 262
f 370 372 264
f 474 372 370
f 474 476 372
f 112 476 610
f 476 584 610
f 476 474 584
f 936 610 584
