# Converted from NanoShaper .vert/.face
v 2.224000 8.780000 16.586000
v 3.934000 8.780000 16.586000
v 2.074000 8.780000 17.086000
v 4.084000 8.780000 17.086000
v 2.190000 8.780000 17.586000
v 3.968000 8.780000 17.586000
v 2.814000 8.780000 18.086000
v 3.344000 8.780000 18.086000
v 2.719000 12.780000 12.086000
v 4.917000 12.780000 12.086000
v 2.395000 12.780000 12.586000
v 5.069000 12.780000 12.586000
v 1.225000 12.780000 13.086000
v 4.949000 12.780000 13.086000
v -0.722000 12.780000 13.586000
v 4.268000 12.780000 13.586000
v -1.131000 12.780000 14.086000
v 2.834000 12.780000 14.086000
v -1.254000 12.780000 14.586000
v 2.508000 12.780000 14.586000
v -1.346000 12.780000 15.086000
v 2.320000 12.780000 15.086000
v -1.445000 12.780000 15.586000
v 2.103000 12.780000 15.586000
v -1.286000 12.780000 16.086000
v 1.878000 12.780000 16.086000
v -0.801000 12.780000 16.586000
v 1.740000 12.780000 16.586000
v -0.257000 12.780000 17.086000
v 1.358000 12.780000 17.086000
v 2.532000 8.780000 16.272000
v 2.532000 8.780000 17.960000
v 3.032000 8.780000 16.112000
v 3.032000 8.780000 18.121000
v 3.532000 8.780000 16.218000
v 3.532000 8.780000 18.014000
v 4.032000 8.780000 16.794000
v 4.032000 8.780000 17.438000
v -0.968000 12.780000 13.824000
v -0.968000 12.780000 16.445000
v -0.468000 12.780000 13.441000
v -0.468000 12.780000 16.875000
v 0.032000 12.780000 13.299000
v 0.032000 12.780000 17.260000
v 0.532000 12.780000 13.217000
v 0.532000 12.780000 17.368000
v 1.032000 12.780000 13.126000
v 1.032000 12.780000 17.276000
v 1.532000 12.780000 12.997000
v 1.532000 12.780000 16.919000
v 2.032000 12.780000 12.863000
v 2.032000 12.780000 15.727000
v 2.532000 12.780000 12.390000
v 2.532000 12.780000 14.536000
v 3.032000 12.780000 11.796000
v 3.032000 12.780000 13.902000
v 3.532000 12.780000 11.667000
v 3.532000 12.780000 13.643000
v 4.032000 12.780000 11.624000
v 4.032000 12.780000 13.606000
v 4.532000 12.780000 11.732000
v 4.532000 12.780000 13.495000
v 5.032000 12.780000 12.343000
v 5.032000 12.780000 12.884000
v 3.032000 12.996000 11.586000
v 3.032000 14.595000 11.586000
v 3.532000 12.862000 11.586000
v 3.532000 14.729000 11.586000
v 4.032000 12.818000 11.586000
v 4.032000 14.718000 11.586000
v 4.532000 12.932000 11.586000
v 4.532000 14.604000 11.586000
v -1.468000 10.772000 15.586000
v -1.468000 12.757000 15.586000
v -0.968000 10.372000 15.586000
v -0.968000 13.237000 15.586000
v -0.468000 10.047000 15.586000
v -0.468000 13.653000 15.586000
v 0.032000 9.784000 15.586000
v 0.032000 14.006000 15.586000
v 0.532000 9.470000 15.586000
v 0.532000 14.106000 15.586000
v 1.032000 9.368000 15.586000
v 1.032000 14.004000 15.586000
v 1.532000 9.416000 15.586000
v 1.532000 13.644000 15.586000
v 2.032000 9.505000 15.586000
v 2.032000 12.929000 15.586000
v 2.532000 9.685000 15.586000
v 2.532000 11.305000 15.586000
v 1.765000 9.280000 16.086000
v 3.900000 9.280000 16.086000
v 1.501000 9.280000 16.586000
v 4.285000 9.280000 16.586000
v 1.636000 9.280000 17.086000
v 4.396000 9.280000 17.086000
v 1.846000 9.280000 17.586000
v 4.309000 9.280000 17.586000
v 2.188000 9.280000 18.086000
v 3.970000 9.280000 18.086000
v 2.736000 13.280000 11.586000
v 4.894000 13.280000 11.586000
v 2.217000 13.280000 12.086000
v 5.279000 13.280000 12.086000
v 1.608000 13.280000 12.586000
v 5.390000 13.280000 12.586000
v 0.909000 13.280000 13.086000
v 5.302000 13.280000 13.086000
v -0.271000 13.280000 13.586000
v 4.958000 13.280000 13.586000
v -0.744000 13.280000 14.086000
v 3.114000 13.280000 14.086000
v -0.909000 13.280000 14.586000
v 2.572000 13.280000 14.586000
v -0.897000 13.280000 15.086000
v 2.224000 13.280000 15.086000
v -0.923000 13.280000 15.586000
v 1.852000 13.280000 15.586000
v -0.776000 13.280000 16.086000
v 1.540000 13.280000 16.086000
v -0.250000 13.280000 16.586000
v 1.346000 13.280000 16.586000
v 1.532000 9.280000 16.349000
v 1.532000 9.280000 16.763000
v 2.032000 9.280000 15.937000
v 2.032000 9.280000 17.915000
v 2.532000 9.280000 15.842000
v 2.532000 9.280000 18.315000
v 3.032000 9.280000 15.800000
v 3.032000 9.280000 18.433000
v 3.532000 9.280000 15.879000
v 3.532000 9.280000 18.353000
v 4.032000 9.280000 16.206000
v 4.032000 9.280000 18.026000
v -0.468000 13.280000 13.754000
v -0.468000 13.280000 16.386000
v 0.032000 13.280000 13.406000
v 0.032000 13.280000 16.865000
v 0.532000 13.280000 13.241000
v 0.532000 13.280000 17.020000
v 1.032000 13.280000 13.025000
v 1.032000 13.280000 16.889000
v 1.532000 13.280000 12.657000
v 1.532000 13.280000 16.108000
v 2.032000 13.280000 12.224000
v 2.032000 13.280000 15.380000
v 2.532000 13.280000 11.776000
v 2.532000 13.280000 14.639000
v 3.032000 13.280000 11.421000
v 3.032000 13.280000 14.132000
v 3.532000 13.280000 11.328000
v 3.532000 13.280000 13.951000
v 4.032000 13.280000 11.303000
v 4.032000 13.280000 13.925000
v 4.532000 13.280000 11.383000
v 4.532000 13.280000 13.845000
v 5.032000 13.280000 11.712000
v 5.032000 13.280000 13.515000
v 2.032000 13.431000 12.086000
v 2.032000 15.029000 12.086000
v 2.532000 12.959000 12.086000
v 2.532000 15.177000 12.086000
v 3.032000 12.599000 12.086000
v 3.032000 15.106000 12.086000
v 3.532000 12.506000 12.086000
v 3.532000 15.086000 12.086000
v 4.032000 12.472000 12.086000
v 4.032000 15.064000 12.086000
v 4.532000 12.553000 12.086000
v 4.532000 14.983000 12.086000
v 5.032000 12.889000 12.086000
v 5.032000 14.647000 12.086000
v -1.468000 10.926000 16.086000
v -1.468000 12.603000 16.086000
v -0.968000 10.565000 16.086000
v -0.968000 13.101000 16.086000
v -0.468000 10.291000 16.086000
v -0.468000 13.452000 16.086000
v 0.032000 9.792000 16.086000
v 0.032000 13.668000 16.086000
v 0.532000 9.456000 16.086000
v 0.532000 13.785000 16.086000
v 1.032000 9.359000 16.086000
v 1.032000 13.673000 16.086000
v 1.532000 9.331000 16.086000
v 1.532000 13.288000 16.086000
v 2.032000 9.195000 16.086000
v 2.032000 12.551000 16.086000
v 2.532000 8.973000 16.086000
v 2.532000 11.501000 16.086000
v 3.032000 8.806000 16.086000
v 3.032000 10.916000 16.086000
v 3.532000 8.920000 16.086000
v 3.532000 10.588000 16.086000
v 0.139000 9.780000 15.086000
v 1.893000 9.780000 15.086000
v 0.038000 9.780000 15.586000
v 2.660000 9.780000 15.586000
v 0.044000 9.780000 16.086000
v 4.027000 9.780000 16.086000
v 0.181000 9.780000 16.586000
v 4.374000 9.780000 16.586000
v 0.898000 9.780000 17.086000
v 4.478000 9.780000 17.086000
v 1.640000 9.780000 17.586000
v 4.397000 9.780000 17.586000
v 2.070000 9.780000 18.086000
v 4.088000 9.780000 18.086000
v 2.575000 13.780000 11.586000
v 5.029000 13.780000 11.586000
v 1.708000 13.780000 12.086000
v 5.375000 13.780000 12.086000
v 1.308000 13.780000 12.586000
v 5.478000 13.780000 12.586000
v 0.928000 13.780000 13.086000
v 5.396000 13.780000 13.086000
v 0.319000 13.780000 13.586000
v 5.085000 13.780000 13.586000
v -0.319000 13.780000 14.086000
v 3.630000 13.780000 14.086000
v -0.469000 13.780000 14.586000
v 2.605000 13.780000 14.586000
v -0.480000 13.780000 15.086000
v 1.871000 13.780000 15.086000
v -0.330000 13.780000 15.586000
v 1.389000 13.780000 15.586000
v 0.424000 13.780000 16.086000
v 0.646000 13.780000 16.086000
v 0.532000 9.780000 14.779000
v 0.532000 9.780000 16.940000
v 1.032000 9.780000 14.639000
v 1.032000 9.780000 17.143000
v 1.532000 9.780000 14.760000
v 1.532000 9.780000 17.482000
v 2.032000 9.780000 15.227000
v 2.032000 9.780000 18.045000
v 2.532000 9.780000 15.539000
v 2.532000 9.780000 18.405000
v 3.032000 9.780000 15.684000
v 3.032000 9.780000 18.515000
v 3.532000 9.780000 15.792000
v 3.532000 9.780000 18.441000
v 4.032000 9.780000 16.091000
v 4.032000 9.780000 18.142000
v -0.468000 13.780000 14.569000
v -0.468000 13.780000 15.212000
v 0.032000 13.780000 13.741000
v 0.032000 13.780000 15.936000
v 0.532000 13.780000 13.446000
v 0.532000 13.780000 16.095000
v 1.032000 13.780000 12.966000
v 1.032000 13.780000 15.935000
v 1.532000 13.780000 12.258000
v 1.532000 13.780000 15.393000
v 2.032000 13.780000 11.894000
v 2.032000 13.780000 14.962000
v 2.532000 13.780000 11.618000
v 2.532000 13.780000 14.630000
v 3.032000 13.780000 11.315000
v 3.032000 13.780000 14.354000
v 3.532000 13.780000 11.230000
v 3.532000 13.780000 14.117000
v 4.032000 13.780000 11.214000
v 4.032000 13.780000 14.018000
v 4.532000 13.780000 11.289000
v 4.532000 13.780000 13.938000
v 5.032000 13.780000 11.588000
v 5.032000 13.780000 13.639000
v 1.532000 13.364000 12.586000
v 1.532000 15.045000 12.586000
v 2.032000 13.009000 12.586000
v 2.032000 15.423000 12.586000
v 2.532000 12.669000 12.586000
v 2.532000 15.526000 12.586000
v 3.032000 12.463000 12.586000
v 3.032000 15.429000 12.586000
v 3.532000 12.397000 12.586000
v 3.532000 15.232000 12.586000
v 4.032000 12.369000 12.586000
v 4.032000 15.168000 12.586000
v 4.532000 12.444000 12.586000
v 4.532000 15.093000 12.586000
v 5.032000 12.743000 12.586000
v 5.032000 14.793000 12.586000
v -0.968000 10.953000 16.586000
v -0.968000 12.589000 16.586000
v -0.468000 10.626000 16.586000
v -0.468000 13.118000 16.586000
v 0.032000 9.935000 16.586000
v 0.032000 13.443000 16.586000
v 0.532000 9.558000 16.586000
v 0.532000 13.551000 16.586000
v 1.032000 9.433000 16.586000
v 1.032000 13.459000 16.586000
v 1.532000 9.265000 16.586000
v 1.532000 13.105000 16.586000
v 2.032000 8.949000 16.586000
v 2.032000 11.921000 16.586000
v 2.532000 8.579000 16.586000
v 2.532000 11.418000 16.586000
v 3.032000 8.458000 16.586000
v 3.032000 11.154000 16.586000
v 3.532000 8.539000 16.586000
v 3.532000 10.968000 16.586000
v 4.032000 8.875000 16.586000
v 4.032000 10.632000 16.586000
v 0.687000 10.280000 14.086000
v 1.452000 10.280000 14.086000
v -0.838000 10.280000 14.586000
v 1.996000 10.280000 14.586000
v -0.987000 10.280000 15.086000
v 2.299000 10.280000 15.086000
v -0.860000 10.280000 15.586000
v 2.866000 10.280000 15.586000
v -0.454000 10.280000 16.086000
v 3.868000 10.280000 16.086000
v -0.191000 10.280000 16.586000
v 4.263000 10.280000 16.586000
v 0.197000 10.280000 17.086000
v 4.376000 10.280000 17.086000
v 1.527000 10.280000 17.586000
v 4.288000 10.280000 17.586000
v 2.217000 10.280000 18.086000
v 3.940000 10.280000 18.086000
v 2.683000 14.280000 11.586000
v 4.880000 14.280000 11.586000
v 1.594000 14.280000 12.086000
v 5.270000 14.280000 12.086000
v 1.245000 14.280000 12.586000
v 5.381000 14.280000 12.586000
v 1.068000 14.280000 13.086000
v 5.293000 14.280000 13.086000
v 0.909000 14.280000 13.586000
v 4.946000 14.280000 13.586000
v 0.803000 14.280000 14.086000
v 3.639000 14.280000 14.086000
v 1.298000 14.280000 14.586000
v 2.252000 14.280000 14.586000
v -0.968000 10.280000 14.914000
v -0.968000 10.280000 15.297000
v -0.468000 10.280000 14.244000
v -0.468000 10.280000 16.064000
v 0.032000 10.280000 14.131000
v 0.032000 10.280000 16.920000
v 0.532000 10.280000 14.119000
v 0.532000 10.280000 17.292000
v 1.032000 10.280000 14.016000
v 1.032000 10.280000 17.417000
v 1.532000 10.280000 14.122000
v 1.532000 10.280000 17.589000
v 2.032000 10.280000 14.651000
v 2.032000 10.280000 17.917000
v 2.532000 10.280000 15.343000
v 2.532000 10.280000 18.293000
v 3.032000 10.280000 15.679000
v 3.032000 10.280000 18.413000
v 3.532000 10.280000 15.900000
v 3.532000 10.280000 18.332000
v 4.032000 10.280000 16.236000
v 4.032000 10.280000 17.997000
v 1.032000 14.280000 13.195000
v 1.032000 14.280000 14.501000
v 1.532000 14.280000 12.147000
v 1.532000 14.280000 14.617000
v 2.032000 14.280000 11.815000
v 2.032000 14.280000 14.608000
v 2.532000 14.280000 11.654000
v 2.532000 14.280000 14.544000
v 3.032000 14.280000 11.408000
v 3.032000 14.280000 14.428000
v 3.532000 14.280000 11.316000
v 3.532000 14.280000 14.143000
v 4.032000 14.280000 11.311000
v 4.032000 14.280000 13.944000
v 4.532000 14.280000 11.392000
v 4.532000 14.280000 13.836000
v 5.032000 14.280000 11.725000
v 5.032000 14.280000 13.502000
v 1.032000 13.022000 13.086000
v 1.032000 14.167000 13.086000
v 1.532000 12.590000 13.086000
v 1.532000 15.203000 13.086000
v 2.032000 12.517000 13.086000
v 2.032000 15.536000 13.086000
v 2.532000 12.412000 13.086000
v 2.532000 15.631000 13.086000
v 3.032000 12.423000 13.086000
v 3.032000 15.541000 13.086000
v 3.532000 12.467000 13.086000
v 3.532000 15.274000 13.086000
v 4.032000 12.451000 13.086000
v 4.032000 15.106000 13.086000
v 4.532000 12.531000 13.086000
v 4.532000 15.006000 13.086000
v 5.032000 12.859000 13.086000
v 5.032000 14.678000 13.086000
v 0.032000 10.821000 17.086000
v 0.032000 13.063000 17.086000
v 0.532000 9.931000 17.086000
v 0.532000 13.214000 17.086000
v 1.032000 9.722000 17.086000
v 1.032000 13.086000 17.086000
v 1.532000 9.379000 17.086000
v 1.532000 12.243000 17.086000
v 2.032000 8.825000 17.086000
v 2.032000 11.381000 17.086000
v 2.532000 8.465000 17.086000
v 2.532000 11.241000 17.086000
v 3.032000 8.355000 17.086000
v 3.032000 11.171000 17.086000
v 3.532000 8.429000 17.086000
v 3.532000 11.078000 17.086000
v 4.032000 8.728000 17.086000
v 4.032000 10.779000 17.086000
v -0.261000 10.780000 13.586000
v 0.649000 10.780000 13.586000
v -0.907000 10.780000 14.086000
v 1.994000 10.780000 14.086000
v -1.211000 10.780000 14.586000
v 2.319000 10.780000 14.586000
v -1.380000 10.780000 15.086000
v 2.497000 10.780000 15.086000
v -1.475000 10.780000 15.586000
v 2.751000 10.780000 15.586000
v -1.322000 10.780000 16.086000
v 3.226000 10.780000 16.086000
v -0.654000 10.780000 16.586000
v 3.870000 10.780000 16.586000
v 0.045000 10.780000 17.086000
v 4.031000 10.780000 17.086000
v 1.915000 10.780000 17.586000
v 3.907000 10.780000 17.586000
v 1.768000 14.780000 12.086000
v 4.890000 14.780000 12.086000
v 1.366000 14.780000 12.586000
v 5.046000 14.780000 12.586000
v 1.251000 14.780000 13.086000
v 4.923000 14.780000 13.086000
v 1.313000 14.780000 13.586000
v 4.176000 14.780000 13.586000
v 1.637000 14.780000 14.086000
v 3.389000 14.780000 14.086000
v -1.468000 10.780000 15.433000
v -1.468000 10.780000 15.677000
v -0.968000 10.780000 14.175000
v -0.968000 10.780000 16.422000
v -0.468000 10.780000 13.667000
v -0.468000 10.780000 16.699000
v 0.032000 10.780000 13.552000
v 0.032000 10.780000 17.075000
v 0.532000 10.780000 13.580000
v 0.532000 10.780000 17.383000
v 1.032000 10.780000 13.638000
v 1.032000 10.780000 17.481000
v 1.532000 10.780000 13.757000
v 1.532000 10.780000 17.511000
v 2.032000 10.780000 14.124000
v 2.032000 10.780000 17.624000
v 2.532000 10.780000 15.168000
v 2.532000 10.780000 17.896000
v 3.032000 10.780000 15.927000
v 3.032000 10.780000 18.068000
v 3.532000 10.780000 16.278000
v 3.532000 10.780000 17.954000
v 1.532000 14.780000 12.316000
v 1.532000 14.780000 13.986000
v 2.032000 14.780000 11.935000
v 2.032000 14.780000 14.312000
v 2.532000 14.780000 11.828000
v 2.532000 14.780000 14.407000
v 3.032000 14.780000 11.740000
v 3.032000 14.780000 14.309000
v 3.532000 14.780000 11.634000
v 3.532000 14.780000 13.957000
v 4.032000 14.780000 11.647000
v 4.032000 14.780000 13.637000
v 4.532000 14.780000 11.758000
v 4.532000 14.780000 13.469000
v 5.032000 14.780000 12.445000
v 5.032000 14.780000 12.782000
v -0.968000 11.516000 13.586000
v -0.968000 11.964000 13.586000
v -0.468000 10.862000 13.586000
v -0.468000 13.040000 13.586000
v 0.032000 10.744000 13.586000
v 0.032000 13.609000 13.586000
v 0.532000 10.773000 13.586000
v 0.532000 13.931000 13.586000
v 1.032000 10.833000 13.586000
v 1.032000 14.417000 13.586000
v 1.532000 10.975000 13.586000
v 1.532000 15.084000 13.586000
v 2.032000 11.593000 13.586000
v 2.032000 15.449000 13.586000
v 2.532000 12.213000 13.586000
v 2.532000 15.551000 13.586000
v 3.032000 12.541000 13.586000
v 3.032000 15.455000 13.586000
v 3.532000 12.729000 13.586000
v 3.532000 15.122000 13.586000
v 4.032000 12.760000 13.586000
v 4.032000 14.827000 13.586000
v 4.532000 12.869000 13.586000
v 4.532000 14.667000 13.586000
v 5.032000 13.445000 13.586000
v 5.032000 14.092000 13.586000
v 1.532000 10.200000 17.586000
v 1.532000 10.359000 17.586000
v 2.032000 8.952000 17.586000
v 2.032000 10.828000 17.586000
v 2.532000 8.554000 17.586000
v 2.532000 10.999000 17.586000
v 3.032000 8.436000 17.586000
v 3.032000 11.071000 17.586000
v 3.532000 8.515000 17.586000
v 3.532000 10.992000 17.586000
v 4.032000 8.842000 17.586000
v 4.032000 10.665000 17.586000
v -0.881000 11.280000 13.586000
v 1.846000 11.280000 13.586000
v -1.228000 11.280000 14.086000
v 2.217000 11.280000 14.086000
v -1.417000 11.280000 14.586000
v 2.404000 11.280000 14.586000
v -1.708000 11.280000 15.086000
v 2.488000 11.280000 15.086000
v -1.794000 11.280000 15.586000
v 2.540000 11.280000 15.586000
v -1.682000 11.280000 16.086000
v 2.673000 11.280000 16.086000
v -1.294000 11.280000 16.586000
v 2.766000 11.280000 16.586000
v -0.249000 11.280000 17.086000
v 2.330000 11.280000 17.086000
v 1.779000 15.280000 12.586000
v 3.380000 15.280000 12.586000
v 1.611000 15.280000 13.086000
v 3.521000 15.280000 13.086000
v 1.737000 15.280000 13.586000
v 3.340000 15.280000 13.586000
v -1.468000 11.280000 14.674000
v -1.468000 11.280000 16.421000
v -0.968000 11.280000 13.673000
v -0.968000 11.280000 16.774000
v -0.468000 11.280000 13.335000
v -0.468000 11.280000 16.952000
v 0.032000 11.280000 13.248000
v 0.032000 11.280000 17.252000
v 0.532000 11.280000 13.248000
v 0.532000 11.280000 17.396000
v 1.032000 11.280000 13.291000
v 1.032000 11.280000 17.407000
v 1.532000 11.280000 13.395000
v 1.532000 11.280000 17.309000
v 2.032000 11.280000 13.775000
v 2.032000 11.280000 17.183000
v 2.532000 11.280000 15.524000
v 2.532000 11.280000 16.957000
v 2.032000 15.280000 12.342000
v 2.032000 15.280000 13.896000
v 2.532000 15.280000 12.191000
v 2.532000 15.280000 14.047000
v 3.032000 15.280000 12.324000
v 3.032000 15.280000 13.905000
v -0.968000 10.850000 14.086000
v -0.968000 13.051000 14.086000
v -0.468000 10.436000 14.086000
v -0.468000 13.617000 14.086000
v 0.032000 10.325000 14.086000
v 0.032000 14.009000 14.086000
v 0.532000 10.312000 14.086000
v 0.532000 14.175000 14.086000
v 1.032000 10.209000 14.086000
v 1.032000 14.385000 14.086000
v 1.532000 10.315000 14.086000
v 1.532000 14.695000 14.086000
v 2.032000 10.858000 14.086000
v 2.032000 15.107000 14.086000
v 2.532000 12.171000 14.086000
v 2.532000 15.243000 14.086000
v 3.032000 13.169000 14.086000
v 3.032000 15.115000 14.086000
v 3.532000 13.667000 14.086000
v 3.532000 14.520000 14.086000
v 2.532000 8.905000 18.086000
v 2.532000 10.602000 18.086000
v 3.032000 8.745000 18.086000
v 3.032000 10.762000 18.086000
v 3.532000 8.851000 18.086000
v 3.532000 10.656000 18.086000
v 4.032000 9.420000 18.086000
v 4.032000 10.087000 18.086000
v -0.993000 11.780000 13.586000
v 2.154000 11.780000 13.586000
v -1.311000 11.780000 14.086000
v 2.400000 11.780000 14.086000
v -1.517000 11.780000 14.586000
v 2.429000 11.780000 14.586000
v -1.800000 11.780000 15.086000
v 2.448000 11.780000 15.086000
v -1.881000 11.780000 15.586000
v 2.412000 11.780000 15.586000
v -1.776000 11.780000 16.086000
v 2.389000 11.780000 16.086000
v -1.427000 11.780000 16.586000
v 2.125000 11.780000 16.586000
v -0.446000 11.780000 17.086000
v 1.645000 11.780000 17.086000
v -1.468000 11.780000 14.500000
v -1.468000 11.780000 16.547000
v -0.968000 11.780000 13.562000
v -0.968000 11.780000 16.867000
v -0.468000 11.780000 13.252000
v -0.468000 11.780000 17.073000
v 0.032000 11.780000 13.171000
v 0.032000 11.780000 17.372000
v 0.532000 11.780000 13.153000
v 0.532000 11.780000 17.467000
v 1.032000 11.780000 13.185000
v 1.032000 11.780000 17.377000
v 1.532000 11.780000 13.260000
v 1.532000 11.780000 17.151000
v 2.032000 11.780000 13.480000
v 2.032000 11.780000 16.696000
v -1.468000 11.423000 14.586000
v -1.468000 12.108000 14.586000
v -0.968000 10.403000 14.586000
v -0.968000 13.220000 14.586000
v -0.468000 10.067000 14.586000
v -0.468000 13.780000 14.586000
v 0.032000 9.983000 14.586000
v 0.032000 14.124000 14.586000
v 0.532000 9.933000 14.586000
v 0.532000 14.227000 14.586000
v 1.032000 9.830000 14.586000
v 1.032000 14.253000 14.586000
v 1.532000 9.940000 14.586000
v 1.532000 14.302000 14.586000
v 2.032000 10.316000 14.586000
v 2.032000 14.314000 14.586000
v 2.532000 13.050000 14.586000
v 2.532000 14.067000 14.586000
v -0.886000 12.280000 13.586000
v 2.610000 12.280000 13.586000
v -1.241000 12.280000 14.086000
v 2.579000 12.280000 14.086000
v -1.432000 12.280000 14.586000
v 2.502000 12.280000 14.586000
v -1.696000 12.280000 15.086000
v 2.386000 12.280000 15.086000
v -1.783000 12.280000 15.586000
v 2.298000 12.280000 15.586000
v -1.670000 12.280000 16.086000
v 2.184000 12.280000 16.086000
v -1.275000 12.280000 16.586000
v 1.886000 12.280000 16.586000
v -0.423000 12.280000 17.086000
v 1.525000 12.280000 17.086000
v -1.468000 12.280000 14.660000
v -1.468000 12.280000 16.403000
v -0.968000 12.280000 13.667000
v -0.968000 12.280000 16.762000
v -0.468000 12.280000 13.329000
v -0.468000 12.280000 17.052000
v 0.032000 12.280000 13.232000
v 0.032000 12.280000 17.373000
v 0.532000 12.280000 13.169000
v 0.532000 12.280000 17.473000
v 1.032000 12.280000 13.193000
v 1.032000 12.280000 17.388000
v 1.532000 12.280000 13.186000
v 1.532000 12.280000 17.081000
v 2.032000 12.280000 13.213000
v 2.032000 12.280000 16.348000
v 2.532000 12.280000 13.395000
v 2.532000 12.280000 14.419000
v -1.468000 10.889000 15.086000
v -1.468000 12.641000 15.086000
v -0.968000 10.262000 15.086000
v -0.968000 13.211000 15.086000
v -0.468000 9.961000 15.086000
v -0.468000 13.792000 15.086000
v 0.032000 9.820000 15.086000
v 0.032000 14.118000 15.086000
v 0.532000 9.589000 15.086000
v 0.532000 14.210000 15.086000
v 1.032000 9.478000 15.086000
v 1.032000 14.145000 15.086000
v 1.532000 9.569000 15.086000
v 1.532000 13.963000 15.086000
v 2.032000 9.902000 15.086000
v 2.032000 13.625000 15.086000
f 159 211 255
f 255 211 365
f 365 211 327
f 365 327 467
f 467 327 433
f 433 160 467
f 161 103 147
f 159 255 103
f 255 147 103
f 255 257 147
f 255 367 257
f 255 365 367
f 365 469 367
f 365 467 469
f 467 160 469
f 469 160 162
f 163 9 55
f 161 147 9
f 9 147 55
f 147 101 55
f 101 65 55
f 257 209 101
f 257 101 147
f 367 325 209
f 367 209 257
f 471 66 325
f 367 471 325
f 469 471 367
f 469 162 471
f 471 162 164
f 57 165 55
f 55 165 163
f 55 65 67
f 55 67 57
f 473 68 66
f 473 66 471
f 471 164 473
f 473 164 166
f 59 167 57
f 57 167 165
f 57 67 69
f 57 69 59
f 475 70 68
f 475 68 473
f 473 166 475
f 475 166 168
f 61 169 59
f 59 169 167
f 59 69 71
f 59 71 61
f 477 72 70
f 477 70 475
f 475 168 477
f 477 168 170
f 61 10 169
f 157 171 102
f 102 171 71
f 171 10 71
f 10 61 71
f 210 267 157
f 210 157 102
f 326 377 267
f 326 267 210
f 477 434 72
f 72 434 326
f 434 172 326
f 172 377 326
f 477 170 434
f 157 104 171
f 104 157 212
f 212 157 267
f 212 267 328
f 328 267 377
f 377 172 328
f 444 423 73
f 173 529 444
f 529 423 444
f 529 527 423
f 529 601 527
f 603 601 529
f 603 651 601
f 653 651 603
f 653 174 651
f 651 174 74
f 444 73 425
f 73 175 425
f 73 75 175
f 173 444 425
f 23 74 174
f 23 174 25
f 25 176 23
f 23 176 76
f 342 313 77
f 75 313 342
f 177 75 342
f 175 75 177
f 117 76 176
f 117 176 119
f 119 178 117
f 117 178 78
f 342 77 315
f 77 179 315
f 77 79 179
f 177 342 315
f 180 248 225
f 78 180 225
f 178 180 78
f 248 80 225
f 181 199 81
f 81 199 197
f 79 197 199
f 79 199 179
f 227 248 180
f 227 182 248
f 182 80 248
f 182 82 80
f 183 81 83
f 183 181 81
f 228 184 252
f 252 84 228
f 84 182 228
f 84 82 182
f 185 83 85
f 185 183 83
f 86 226 252
f 184 86 252
f 186 86 184
f 84 252 226
f 187 91 125
f 87 125 91
f 185 87 91
f 85 87 185
f 26 188 52
f 26 52 88
f 118 26 88
f 120 26 118
f 118 86 120
f 120 86 186
f 127 189 125
f 125 189 187
f 125 87 89
f 125 89 127
f 604 190 90
f 604 90 602
f 652 604 602
f 652 654 604
f 188 654 52
f 654 24 52
f 654 652 24
f 88 52 24
f 129 191 127
f 127 191 189
f 127 89 198
f 239 127 198
f 129 127 239
f 314 355 239
f 314 239 198
f 424 461 355
f 424 355 314
f 530 192 461
f 424 530 461
f 528 530 424
f 528 90 530
f 530 90 190
f 131 193 129
f 129 193 191
f 129 241 131
f 129 239 241
f 239 357 241
f 239 355 357
f 194 357 426
f 357 461 426
f 357 355 461
f 461 192 426
f 131 92 193
f 92 131 200
f 200 131 241
f 200 241 316
f 316 241 357
f 357 194 316
f 269 213 253
f 253 213 363
f 363 213 329
f 363 329 465
f 465 329 435
f 435 270 465
f 271 105 145
f 269 253 105
f 105 253 145
f 253 211 145
f 211 159 145
f 363 327 211
f 363 211 253
f 465 433 327
f 465 327 363
f 270 535 559
f 270 559 160
f 465 270 160
f 433 465 160
f 535 272 559
f 273 11 53
f 271 145 11
f 11 145 53
f 145 103 53
f 103 161 53
f 145 159 103
f 561 162 160
f 561 160 559
f 559 272 561
f 561 272 274
f 9 163 53
f 163 273 53
f 163 275 273
f 53 161 9
f 563 164 162
f 563 162 561
f 561 274 563
f 563 274 276
f 277 163 165
f 277 275 163
f 164 563 536
f 278 164 536
f 166 164 278
f 563 276 536
f 279 165 167
f 279 277 165
f 166 280 168
f 278 280 166
f 281 167 169
f 281 279 167
f 168 282 170
f 280 282 168
f 63 283 10
f 283 169 10
f 283 281 169
f 171 63 10
f 434 479 172
f 434 170 479
f 170 284 479
f 170 282 284
f 63 12 283
f 171 104 63
f 104 12 63
f 104 106 12
f 212 106 104
f 212 214 106
f 328 214 212
f 328 330 214
f 479 436 172
f 436 328 172
f 436 330 328
f 479 284 436
f 542 529 173
f 610 603 542
f 542 603 529
f 660 653 610
f 610 653 603
f 660 174 653
f 446 425 175
f 531 542 173
f 531 173 425
f 285 531 425
f 446 285 425
f 542 531 605
f 542 605 610
f 610 605 655
f 610 655 660
f 286 40 25
f 286 25 174
f 655 286 174
f 660 655 174
f 40 176 25
f 446 175 427
f 175 287 427
f 175 177 287
f 285 446 427
f 27 40 286
f 288 136 119
f 288 119 176
f 27 288 176
f 40 27 176
f 136 178 119
f 289 317 179
f 179 317 315
f 177 315 317
f 177 317 287
f 121 136 288
f 121 290 136
f 290 178 136
f 290 180 178
f 291 201 181
f 181 201 199
f 179 199 201
f 179 201 289
f 292 250 227
f 180 292 227
f 290 292 180
f 250 182 227
f 293 181 183
f 293 291 181
f 184 228 250
f 292 184 250
f 294 184 292
f 182 250 228
f 295 93 123
f 185 123 93
f 293 185 93
f 183 185 293
f 122 296 144
f 144 186 122
f 186 294 122
f 186 184 294
f 91 187 123
f 187 295 123
f 187 297 295
f 123 185 91
f 656 298 674
f 656 674 188
f 26 656 188
f 28 656 26
f 296 28 144
f 28 120 144
f 28 26 120
f 186 144 120
f 299 1 31
f 189 31 1
f 297 189 1
f 187 189 297
f 606 300 190
f 606 190 604
f 298 606 674
f 606 654 674
f 606 604 654
f 188 674 654
f 33 301 31
f 31 301 299
f 31 189 191
f 31 191 33
f 532 302 192
f 532 192 530
f 530 190 532
f 532 190 300
f 35 303 33
f 33 303 301
f 33 191 193
f 33 193 35
f 426 463 194
f 426 192 463
f 192 304 463
f 192 302 304
f 35 2 303
f 133 305 92
f 92 305 193
f 305 2 193
f 2 35 193
f 200 243 133
f 200 133 92
f 316 359 243
f 316 243 200
f 463 428 194
f 194 428 316
f 428 306 316
f 306 359 316
f 463 304 428
f 133 94 305
f 94 133 202
f 202 133 243
f 202 243 318
f 318 243 359
f 359 306 318
f 379 107 141
f 141 107 251
f 251 107 215
f 215 380 251
f 381 13 49
f 379 141 13
f 141 49 13
f 141 143 49
f 251 213 269
f 143 251 269
f 141 251 143
f 213 251 380
f 331 213 380
f 329 213 331
f 331 435 329
f 437 435 331
f 437 382 435
f 435 382 270
f 51 383 49
f 49 383 381
f 143 105 271
f 51 143 271
f 49 143 51
f 143 269 105
f 535 270 382
f 535 382 537
f 537 384 535
f 535 384 272
f 11 273 51
f 273 383 51
f 273 385 383
f 51 271 11
f 272 386 274
f 384 386 272
f 387 273 275
f 387 385 273
f 274 388 276
f 386 388 274
f 389 275 277
f 389 387 275
f 538 390 278
f 538 278 536
f 536 276 538
f 538 276 388
f 391 277 279
f 391 389 277
f 278 392 280
f 390 392 278
f 393 279 281
f 393 391 279
f 280 394 282
f 392 394 280
f 14 393 64
f 393 283 64
f 393 281 283
f 395 14 64
f 438 396 480
f 480 284 438
f 284 394 438
f 284 282 394
f 12 64 283
f 64 12 395
f 12 108 395
f 12 106 108
f 214 108 106
f 214 216 108
f 330 216 214
f 330 332 216
f 396 332 480
f 332 436 480
f 332 330 436
f 284 480 436
f 544 531 285
f 612 605 544
f 544 605 531
f 662 655 612
f 612 655 605
f 662 286 655
f 448 427 287
f 427 448 285
f 448 544 285
f 448 546 544
f 614 544 546
f 612 544 614
f 664 612 614
f 662 612 664
f 286 662 27
f 662 42 27
f 662 664 42
f 42 288 27
f 344 317 289
f 317 344 287
f 344 448 287
f 344 450 448
f 450 397 533
f 546 450 533
f 448 450 546
f 546 533 607
f 546 607 614
f 614 607 657
f 614 657 664
f 664 657 29
f 664 29 42
f 398 138 121
f 398 121 288
f 29 398 288
f 42 29 288
f 138 290 121
f 230 201 291
f 319 344 289
f 319 289 201
f 399 319 201
f 230 399 201
f 344 319 429
f 344 429 450
f 397 450 429
f 400 140 138
f 400 138 398
f 290 138 292
f 292 138 140
f 230 291 203
f 291 401 203
f 291 293 401
f 399 230 203
f 402 142 140
f 402 140 400
f 292 140 294
f 294 140 142
f 124 93 295
f 293 93 124
f 403 293 124
f 401 293 403
f 658 404 672
f 658 672 50
f 658 50 30
f 142 402 30
f 142 30 50
f 122 142 50
f 296 122 50
f 294 142 122
f 124 295 95
f 295 405 95
f 295 297 405
f 403 124 95
f 608 406 624
f 672 404 608
f 672 608 624
f 656 672 624
f 298 656 624
f 28 50 656
f 656 50 672
f 296 50 28
f 407 3 299
f 299 3 1
f 297 1 3
f 297 3 405
f 534 408 558
f 624 406 534
f 624 534 558
f 606 624 558
f 300 606 558
f 298 624 606
f 409 299 301
f 409 407 299
f 302 532 558
f 408 302 558
f 410 302 408
f 300 558 532
f 411 301 303
f 411 409 301
f 302 412 304
f 410 412 302
f 37 413 2
f 413 303 2
f 413 411 303
f 305 37 2
f 430 414 306
f 430 306 428
f 428 304 430
f 430 304 412
f 37 4 413
f 305 94 37
f 94 4 37
f 94 96 4
f 202 96 94
f 202 204 96
f 318 204 202
f 318 320 204
f 318 306 320
f 320 306 414
f 481 593 611
f 593 482 611
f 483 519 545
f 481 611 519
f 611 545 519
f 611 613 545
f 643 663 482
f 663 611 482
f 663 613 611
f 663 643 41
f 41 643 15
f 15 484 41
f 485 415 449
f 483 545 415
f 545 449 415
f 545 547 449
f 545 615 547
f 545 613 615
f 613 665 615
f 613 663 665
f 663 43 665
f 663 41 43
f 109 137 484
f 137 41 484
f 137 43 41
f 109 486 137
f 451 487 449
f 449 487 485
f 449 549 451
f 449 547 549
f 547 617 549
f 547 615 617
f 615 667 617
f 615 665 667
f 665 45 667
f 665 43 45
f 43 139 45
f 43 137 139
f 217 249 486
f 249 137 486
f 249 139 137
f 217 488 249
f 451 416 487
f 416 451 489
f 451 551 489
f 451 549 551
f 549 619 551
f 549 617 619
f 617 669 619
f 617 667 669
f 667 47 669
f 667 45 47
f 139 107 379
f 47 139 379
f 45 139 47
f 249 215 107
f 249 107 139
f 488 333 361
f 488 361 380
f 249 488 380
f 215 249 380
f 333 490 361
f 553 491 551
f 551 491 489
f 551 621 553
f 551 619 621
f 619 671 621
f 619 669 671
f 47 13 381
f 671 47 381
f 669 47 671
f 47 379 13
f 361 331 380
f 331 361 490
f 439 331 490
f 437 331 439
f 439 492 437
f 437 492 382
f 553 520 491
f 520 553 493
f 553 623 493
f 553 621 623
f 621 673 623
f 621 671 673
f 671 381 383
f 671 383 673
f 537 382 492
f 537 492 539
f 539 494 537
f 537 494 384
f 623 594 493
f 594 623 495
f 623 675 495
f 623 673 675
f 673 383 385
f 673 385 675
f 384 496 386
f 494 496 384
f 675 644 495
f 497 644 675
f 385 497 675
f 387 497 385
f 386 498 388
f 496 498 386
f 499 387 389
f 499 497 387
f 540 500 390
f 540 390 538
f 538 388 540
f 540 388 498
f 501 389 391
f 501 499 389
f 390 502 392
f 500 502 390
f 16 501 62
f 501 393 62
f 501 391 393
f 503 16 62
f 440 504 478
f 478 394 440
f 394 502 440
f 394 392 502
f 14 62 393
f 110 503 158
f 158 503 395
f 503 62 395
f 62 14 395
f 505 110 158
f 334 506 378
f 478 504 334
f 478 334 378
f 438 478 378
f 396 438 378
f 394 478 438
f 108 158 395
f 158 108 505
f 108 218 505
f 108 216 218
f 506 218 378
f 218 332 378
f 218 216 332
f 396 378 332
f 548 533 397
f 616 607 548
f 548 607 533
f 666 657 616
f 616 657 607
f 44 29 666
f 666 29 657
f 44 398 29
f 346 319 399
f 452 429 346
f 346 429 319
f 429 452 397
f 452 548 397
f 452 550 548
f 618 548 550
f 616 548 618
f 668 616 618
f 666 616 668
f 46 666 668
f 44 666 46
f 398 44 400
f 400 44 46
f 232 203 401
f 203 232 399
f 232 346 399
f 232 348 346
f 454 346 348
f 452 346 454
f 552 452 454
f 550 452 552
f 620 550 552
f 618 550 620
f 670 618 620
f 668 618 670
f 48 668 670
f 46 668 48
f 400 46 402
f 402 46 48
f 403 234 401
f 401 234 232
f 234 507 321
f 348 234 321
f 232 234 348
f 348 321 508
f 456 348 508
f 454 348 456
f 554 454 456
f 552 454 554
f 622 552 554
f 620 552 622
f 658 670 404
f 670 622 404
f 670 620 622
f 30 48 658
f 658 48 670
f 402 48 30
f 509 97 405
f 405 97 95
f 205 234 403
f 95 205 403
f 97 205 95
f 507 234 205
f 431 456 508
f 456 431 510
f 556 456 510
f 554 456 556
f 608 622 406
f 622 556 406
f 622 554 556
f 404 622 608
f 511 5 407
f 407 5 3
f 405 3 5
f 405 5 509
f 408 534 556
f 510 408 556
f 512 408 510
f 406 556 534
f 513 407 409
f 513 511 407
f 408 514 410
f 512 514 408
f 515 409 411
f 515 513 409
f 410 516 412
f 514 516 410
f 6 515 38
f 515 413 38
f 515 411 413
f 517 6 38
f 432 518 414
f 432 414 430
f 430 412 432
f 432 412 516
f 4 38 413
f 38 4 517
f 4 98 517
f 4 96 98
f 204 98 96
f 204 206 98
f 320 206 204
f 320 322 206
f 320 414 322
f 322 414 518
f 565 521 543
f 543 521 481
f 521 593 481
f 521 595 593
f 482 593 661
f 593 645 661
f 593 595 645
f 661 645 39
f 39 645 17
f 17 566 39
f 567 417 447
f 565 543 417
f 417 543 447
f 543 519 447
f 519 483 447
f 543 481 519
f 661 643 482
f 39 15 643
f 39 643 661
f 566 111 135
f 566 135 484
f 39 566 484
f 15 39 484
f 111 568 135
f 415 485 447
f 485 567 447
f 485 569 567
f 447 483 415
f 135 109 484
f 568 219 247
f 568 247 486
f 135 568 486
f 109 135 486
f 219 570 247
f 571 485 487
f 571 569 485
f 247 217 486
f 247 570 217
f 570 488 217
f 570 572 488
f 573 307 347
f 453 347 416
f 347 571 416
f 571 487 416
f 347 307 571
f 489 453 416
f 333 488 572
f 333 572 335
f 335 574 333
f 333 574 490
f 347 308 573
f 308 347 575
f 347 455 575
f 347 453 455
f 453 489 491
f 453 491 455
f 576 466 439
f 490 576 439
f 574 576 490
f 466 492 439
f 455 418 575
f 555 577 520
f 520 577 491
f 577 418 491
f 418 455 491
f 493 555 520
f 441 466 576
f 578 560 539
f 578 539 492
f 441 578 492
f 466 441 492
f 560 494 539
f 555 522 577
f 493 594 555
f 594 522 555
f 594 596 522
f 579 596 594
f 579 594 495
f 580 562 560
f 580 560 578
f 494 560 496
f 496 560 562
f 495 644 579
f 579 644 646
f 644 497 56
f 18 644 56
f 646 644 18
f 581 18 56
f 582 564 562
f 582 562 580
f 496 562 498
f 498 562 564
f 499 58 497
f 497 58 56
f 152 112 581
f 56 152 581
f 58 152 56
f 583 112 152
f 442 584 474
f 564 582 442
f 564 442 474
f 540 564 474
f 500 540 474
f 498 564 540
f 501 60 499
f 499 60 58
f 154 58 60
f 152 58 154
f 264 220 583
f 152 264 583
f 154 264 152
f 220 264 374
f 220 374 336
f 474 584 336
f 374 474 336
f 476 474 374
f 500 474 502
f 502 474 476
f 16 60 501
f 503 156 16
f 156 60 16
f 156 154 60
f 266 154 156
f 264 154 266
f 376 264 266
f 374 264 376
f 440 476 504
f 476 376 504
f 476 374 376
f 502 476 440
f 110 156 503
f 505 268 110
f 268 156 110
f 268 266 156
f 334 376 506
f 376 268 506
f 376 266 268
f 504 376 334
f 218 268 505
f 506 268 218
f 350 321 507
f 350 508 321
f 126 97 509
f 236 205 126
f 126 205 97
f 205 236 507
f 236 350 507
f 236 352 350
f 508 350 431
f 350 458 431
f 350 352 458
f 458 510 431
f 32 5 511
f 99 126 509
f 99 509 5
f 585 99 5
f 32 585 5
f 126 99 207
f 126 207 236
f 236 207 323
f 236 323 352
f 352 323 586
f 460 352 586
f 458 352 460
f 510 458 512
f 512 458 460
f 32 511 7
f 511 587 7
f 511 513 587
f 585 32 7
f 588 462 460
f 588 460 586
f 512 460 514
f 514 460 462
f 8 587 36
f 587 515 36
f 587 513 515
f 589 8 36
f 590 464 462
f 590 462 588
f 514 462 516
f 516 462 464
f 6 36 515
f 100 589 134
f 134 589 517
f 589 36 517
f 36 6 517
f 591 100 134
f 324 592 360
f 464 590 324
f 464 324 360
f 432 464 360
f 518 432 360
f 516 464 432
f 98 134 517
f 134 98 591
f 98 208 591
f 98 206 208
f 592 208 360
f 208 322 360
f 208 206 322
f 518 360 322
f 625 597 609
f 597 626 609
f 627 419 445
f 445 419 565
f 419 521 565
f 419 523 521
f 523 625 609
f 595 523 609
f 521 523 595
f 595 609 626
f 647 595 626
f 645 595 647
f 647 17 645
f 19 17 647
f 19 628 17
f 17 628 566
f 629 309 341
f 627 445 309
f 309 445 341
f 445 417 341
f 417 567 341
f 445 565 417
f 111 566 628
f 111 628 113
f 568 111 245
f 111 221 245
f 111 113 221
f 221 630 245
f 343 631 341
f 341 631 629
f 341 567 569
f 341 569 343
f 245 219 568
f 245 630 219
f 630 570 219
f 630 632 570
f 345 633 343
f 343 633 631
f 343 569 571
f 343 571 345
f 570 634 572
f 632 634 570
f 307 573 345
f 573 633 345
f 573 635 633
f 345 571 307
f 636 362 335
f 572 636 335
f 634 636 572
f 362 574 335
f 349 637 308
f 637 573 308
f 637 635 573
f 575 349 308
f 337 362 636
f 337 638 362
f 638 574 362
f 638 576 574
f 349 310 637
f 457 639 418
f 418 639 575
f 639 310 575
f 310 349 575
f 577 457 418
f 640 468 441
f 576 640 441
f 638 640 576
f 468 578 441
f 457 420 639
f 577 522 457
f 522 420 457
f 522 524 420
f 596 524 522
f 596 598 524
f 596 579 676
f 648 596 676
f 598 596 648
f 648 676 54
f 648 54 20
f 641 20 54
f 338 642 368
f 468 640 338
f 368 468 338
f 470 468 368
f 578 468 580
f 580 468 470
f 646 676 579
f 18 54 646
f 646 54 676
f 114 641 150
f 150 641 581
f 641 54 581
f 54 18 581
f 114 150 260
f 114 260 222
f 368 642 222
f 260 368 222
f 370 368 260
f 472 368 370
f 470 368 472
f 580 470 582
f 582 470 472
f 112 150 581
f 583 262 112
f 262 150 112
f 262 260 150
f 372 260 262
f 370 260 372
f 442 472 584
f 472 372 584
f 472 370 372
f 582 472 442
f 220 262 583
f 336 372 220
f 220 372 262
f 584 372 336
f 128 99 585
f 238 207 128
f 128 207 99
f 354 323 238
f 238 323 207
f 354 586 323
f 34 7 587
f 7 34 585
f 34 128 585
f 34 130 128
f 240 128 130
f 238 128 240
f 356 238 240
f 354 238 356
f 586 354 588
f 588 354 356
f 8 34 587
f 589 132 8
f 132 34 8
f 132 130 34
f 242 130 132
f 240 130 242
f 358 240 242
f 356 240 358
f 588 356 590
f 590 356 358
f 100 132 589
f 591 244 100
f 244 132 100
f 244 242 132
f 324 358 592
f 358 244 592
f 358 242 244
f 590 358 324
f 208 244 591
f 592 244 208
f 677 525 541
f 541 525 625
f 525 597 625
f 525 599 597
f 626 597 659
f 597 649 659
f 597 599 649
f 649 678 659
f 679 311 339
f 339 311 627
f 311 419 627
f 311 421 419
f 421 677 541
f 523 421 541
f 419 421 523
f 541 625 523
f 659 647 626
f 647 659 678
f 21 647 678
f 19 647 21
f 21 680 19
f 19 680 628
f 309 629 339
f 629 679 339
f 629 681 679
f 339 627 309
f 113 628 680
f 113 680 115
f 115 221 113
f 223 221 115
f 223 682 221
f 221 682 630
f 683 629 631
f 683 681 629
f 630 684 632
f 682 684 630
f 685 195 229
f 633 229 195
f 683 633 195
f 631 633 683
f 632 686 634
f 684 686 632
f 231 687 229
f 229 687 685
f 229 633 635
f 229 635 231
f 634 688 636
f 686 688 634
f 233 689 231
f 231 689 687
f 231 635 637
f 231 637 233
f 690 364 337
f 636 690 337
f 688 690 636
f 364 638 337
f 233 196 689
f 351 691 310
f 310 691 637
f 691 196 637
f 196 233 637
f 639 351 310
f 224 692 256
f 364 690 224
f 256 364 224
f 366 364 256
f 638 364 640
f 640 364 366
f 351 312 691
f 639 420 351
f 420 312 351
f 420 422 312
f 524 422 420
f 524 526 422
f 598 526 524
f 598 600 526
f 648 600 598
f 648 650 600
f 20 650 648
f 20 22 650
f 20 641 148
f 116 20 148
f 22 20 116
f 256 692 116
f 148 256 116
f 258 256 148
f 338 366 642
f 366 258 642
f 366 256 258
f 640 366 338
f 114 148 641
f 222 258 114
f 114 258 148
f 642 258 222
f 65 101 149
f 149 101 259
f 259 101 209
f 259 209 369
f 369 209 325
f 325 66 369
f 151 67 149
f 149 67 65
f 149 261 151
f 149 259 261
f 259 371 261
f 259 369 371
f 369 66 371
f 371 66 68
f 153 69 151
f 151 69 67
f 151 263 153
f 151 261 263
f 261 373 263
f 261 371 373
f 371 68 373
f 373 68 70
f 155 71 153
f 153 71 69
f 153 265 155
f 153 263 265
f 263 375 265
f 263 373 375
f 373 70 375
f 375 70 72
f 155 102 71
f 102 155 210
f 210 155 265
f 210 265 326
f 326 265 375
f 375 72 326
f 73 423 443
f 443 423 677
f 423 525 677
f 423 527 525
f 527 599 525
f 601 599 527
f 601 649 599
f 651 649 601
f 651 74 649
f 649 74 678
f 340 311 679
f 75 73 340
f 73 421 340
f 421 311 340
f 73 443 421
f 443 677 421
f 21 678 74
f 21 74 23
f 23 76 21
f 21 76 680
f 340 679 313
f 679 77 313
f 679 681 77
f 75 340 313
f 115 680 76
f 115 76 117
f 246 223 78
f 223 117 78
f 223 115 117
f 246 682 223
f 79 681 683
f 79 77 681
f 225 246 78
f 225 80 246
f 80 682 246
f 80 684 682
f 81 197 685
f 685 197 195
f 683 195 197
f 683 197 79
f 684 82 686
f 80 82 684
f 83 685 687
f 83 81 685
f 686 84 688
f 82 84 686
f 85 687 689
f 85 83 687
f 226 86 254
f 254 690 226
f 690 84 226
f 690 688 84
f 235 87 196
f 87 689 196
f 87 85 689
f 691 235 196
f 118 88 146
f 254 86 118
f 254 118 146
f 224 254 146
f 692 224 146
f 690 254 224
f 237 89 235
f 235 89 87
f 235 691 312
f 353 235 312
f 237 235 353
f 422 459 353
f 422 353 312
f 526 557 459
f 526 459 422
f 602 90 557
f 526 602 557
f 600 602 526
f 650 602 600
f 650 652 602
f 22 652 650
f 22 24 652
f 88 24 146
f 24 116 146
f 24 22 116
f 692 146 116
f 237 198 89
f 198 237 314
f 314 237 353
f 314 353 424
f 424 353 459
f 424 459 528
f 528 459 557
f 557 90 528
