# Converted from NanoShaper .vert/.face
v -17.658000 1.780000 -13.164000
v -16.054000 1.780000 -13.164000
v -17.943000 1.780000 -12.664000
v -14.833000 1.780000 -12.664000
v -17.982000 1.780000 -12.164000
v -14.259000 1.780000 -12.164000
v -17.871000 1.780000 -11.664000
v -13.904000 1.780000 -11.664000
v -17.615000 1.780000 -11.164000
v -13.359000 1.780000 -11.164000
v -17.392000 1.780000 -10.664000
v -13.135000 1.780000 -10.664000
v -17.173000 1.780000 -10.164000
v -13.070000 1.780000 -10.164000
v -16.921000 1.780000 -9.664000
v -13.062000 1.780000 -9.664000
v -16.834000 1.780000 -9.164000
v -13.075000 1.780000 -9.164000
v -16.643000 1.780000 -8.664000
v -13.265000 1.780000 -8.664000
v -16.384000 1.780000 -8.164000
v -13.529000 1.780000 -8.164000
v -16.297000 1.780000 -7.664000
v -13.642000 1.780000 -7.664000
v -16.271000 1.780000 -7.164000
v -13.697000 1.780000 -7.164000
v -16.067000 1.780000 -6.664000
v -13.901000 1.780000 -6.664000
v -15.420000 1.780000 -6.164000
v -14.549000 1.780000 -6.164000
v -17.968000 1.780000 -12.538000
v -17.968000 1.780000 -12.044000
v -17.468000 1.780000 -13.304000
v -17.468000 1.780000 -10.882000
v -16.968000 1.780000 -13.428000
v -16.968000 1.780000 -9.797000
v -16.468000 1.780000 -13.303000
v -16.468000 1.780000 -8.369000
v -15.968000 1.780000 -13.134000
v -15.968000 1.780000 -6.536000
v -15.468000 1.780000 -12.898000
v -15.468000 1.780000 -6.182000
v -14.968000 1.780000 -12.729000
v -14.968000 1.780000 -6.089000
v -14.468000 1.780000 -12.398000
v -14.468000 1.780000 -6.195000
v -13.968000 1.780000 -11.732000
v -13.968000 1.780000 -6.573000
v -13.468000 1.780000 -11.295000
v -13.468000 1.780000 -8.311000
v -17.468000 0.232000 -13.664000
v -17.468000 1.304000 -13.664000
v -16.968000 0.052000 -13.664000
v -16.968000 1.484000 -13.664000
v -16.468000 0.279000 -13.664000
v -16.468000 1.256000 -13.664000
v -16.968000 2.056000 -9.664000
v -16.968000 3.309000 -9.664000
v -16.468000 -0.166000 -9.664000
v -16.468000 3.866000 -9.664000
v -15.968000 -0.415000 -9.664000
v -15.968000 4.104000 -9.664000
v -15.468000 -0.427000 -9.664000
v -15.468000 4.184000 -9.664000
v -14.968000 -0.324000 -9.664000
v -14.968000 4.159000 -9.664000
v -14.468000 -0.118000 -9.664000
v -14.468000 4.127000 -9.664000
v -13.968000 0.013000 -9.664000
v -13.968000 4.035000 -9.664000
v -13.468000 0.344000 -9.664000
v -13.468000 3.706000 -9.664000
v -17.511000 2.280000 -12.664000
v -14.717000 2.280000 -12.664000
v -17.774000 2.280000 -12.164000
v -13.959000 2.280000 -12.164000
v -17.828000 2.280000 -11.664000
v -13.658000 2.280000 -11.664000
v -17.746000 2.280000 -11.164000
v -13.262000 2.280000 -11.164000
v -17.515000 2.280000 -10.664000
v -13.054000 2.280000 -10.664000
v -17.242000 2.280000 -10.164000
v -13.044000 2.280000 -10.164000
v -17.033000 2.280000 -9.664000
v -13.084000 2.280000 -9.664000
v -16.877000 2.280000 -9.164000
v -13.102000 2.280000 -9.164000
v -16.667000 2.280000 -8.664000
v -13.314000 2.280000 -8.664000
v -16.312000 2.280000 -8.164000
v -13.658000 2.280000 -8.164000
v -16.096000 2.280000 -7.664000
v -13.888000 2.280000 -7.664000
v -15.936000 2.280000 -7.164000
v -14.032000 2.280000 -7.164000
v -15.634000 2.280000 -6.664000
v -14.334000 2.280000 -6.664000
v -17.468000 2.280000 -12.709000
v -17.468000 2.280000 -10.593000
v -16.968000 2.280000 -12.980000
v -16.968000 2.280000 -9.493000
v -16.468000 2.280000 -12.973000
v -16.468000 2.280000 -8.406000
v -15.968000 2.280000 -12.909000
v -15.968000 2.280000 -7.280000
v -15.468000 2.280000 -12.834000
v -15.468000 2.280000 -6.545000
v -14.968000 2.280000 -12.728000
v -14.968000 2.280000 -6.417000
v -14.468000 2.280000 -12.568000
v -14.468000 2.280000 -6.563000
v -13.968000 2.280000 -12.175000
v -13.968000 2.280000 -7.429000
v -13.468000 2.280000 -11.416000
v -13.468000 2.280000 -8.453000
v -17.968000 0.051000 -13.164000
v -17.968000 1.485000 -13.164000
v -17.468000 -0.346000 -13.164000
v -17.468000 1.883000 -13.164000
v -16.968000 -0.443000 -13.164000
v -16.968000 2.036000 -13.164000
v -16.468000 -0.354000 -13.164000
v -16.468000 1.952000 -13.164000
v -15.968000 0.000000 -13.164000
v -15.968000 1.701000 -13.164000
v -16.468000 0.318000 -9.164000
v -16.468000 3.778000 -9.164000
v -15.968000 -0.047000 -9.164000
v -15.968000 4.093000 -9.164000
v -15.468000 -0.149000 -9.164000
v -15.468000 4.174000 -9.164000
v -14.968000 -0.141000 -9.164000
v -14.968000 4.149000 -9.164000
v -14.468000 -0.046000 -9.164000
v -14.468000 4.042000 -9.164000
v -13.968000 0.190000 -9.164000
v -13.968000 3.847000 -9.164000
v -13.468000 0.650000 -9.164000
v -13.468000 3.434000 -9.164000
v -17.210000 2.780000 -12.664000
v -14.450000 2.780000 -12.664000
v -17.682000 2.780000 -12.164000
v -13.842000 2.780000 -12.164000
v -17.859000 2.780000 -11.664000
v -13.620000 2.780000 -11.664000
v -17.849000 2.780000 -11.164000
v -13.385000 2.780000 -11.164000
v -17.641000 2.780000 -10.664000
v -13.162000 2.780000 -10.664000
v -17.329000 2.780000 -10.164000
v -13.088000 2.780000 -10.164000
v -17.106000 2.780000 -9.664000
v -13.077000 2.780000 -9.664000
v -16.880000 2.780000 -9.164000
v -13.177000 2.780000 -9.164000
v -16.677000 2.780000 -8.664000
v -13.406000 2.780000 -8.664000
v -16.214000 2.780000 -8.164000
v -13.923000 2.780000 -8.164000
v -15.623000 2.780000 -7.664000
v -14.380000 2.780000 -7.664000
v -17.468000 2.780000 -12.454000
v -17.468000 2.780000 -10.427000
v -16.968000 2.780000 -12.778000
v -16.968000 2.780000 -9.414000
v -16.468000 2.780000 -12.850000
v -16.468000 2.780000 -8.412000
v -15.968000 2.780000 -12.792000
v -15.968000 2.780000 -7.945000
v -15.468000 2.780000 -12.820000
v -15.468000 2.780000 -7.545000
v -14.968000 2.780000 -12.775000
v -14.968000 2.780000 -7.377000
v -14.468000 2.780000 -12.671000
v -14.468000 2.780000 -7.590000
v -13.968000 2.780000 -12.323000
v -13.968000 2.780000 -8.111000
v -13.468000 2.780000 -11.313000
v -13.468000 2.780000 -8.586000
v -17.968000 -0.216000 -12.664000
v -17.968000 1.752000 -12.664000
v -17.468000 -0.534000 -12.664000
v -17.468000 2.337000 -12.664000
v -16.968000 -0.723000 -12.664000
v -16.968000 3.297000 -12.664000
v -16.468000 -0.834000 -12.664000
v -16.468000 3.505000 -12.664000
v -15.968000 -0.723000 -12.664000
v -15.968000 3.371000 -12.664000
v -15.468000 -0.265000 -12.664000
v -15.468000 3.416000 -12.664000
v -14.968000 1.384000 -12.664000
v -14.968000 3.336000 -12.664000
v -14.468000 2.647000 -12.664000
v -14.468000 2.929000 -12.664000
v -16.468000 0.697000 -8.664000
v -16.468000 3.467000 -8.664000
v -15.968000 0.166000 -8.664000
v -15.968000 3.877000 -8.664000
v -15.468000 -0.044000 -8.664000
v -15.468000 3.973000 -8.664000
v -14.968000 -0.102000 -8.664000
v -14.968000 3.948000 -8.664000
v -14.468000 0.003000 -8.664000
v -14.468000 3.820000 -8.664000
v -13.968000 0.328000 -8.664000
v -13.968000 3.396000 -8.664000
v -13.468000 1.074000 -8.664000
v -13.468000 2.905000 -8.664000
v -16.976000 -0.720000 -12.664000
v -15.963000 -0.720000 -12.664000
v -17.353000 -0.720000 -12.164000
v -15.443000 -0.720000 -12.164000
v -17.381000 -0.720000 -11.664000
v -15.081000 -0.720000 -11.664000
v -17.101000 -0.720000 -11.164000
v -14.993000 -0.720000 -11.164000
v -16.878000 -0.720000 -10.664000
v -14.991000 -0.720000 -10.664000
v -16.562000 -0.720000 -10.164000
v -15.306000 -0.720000 -10.164000
v -16.985000 3.280000 -12.664000
v -14.754000 3.280000 -12.664000
v -17.587000 3.280000 -12.164000
v -13.951000 3.280000 -12.164000
v -17.782000 3.280000 -11.664000
v -13.720000 3.280000 -11.664000
v -17.772000 3.280000 -11.164000
v -13.649000 3.280000 -11.164000
v -17.548000 3.280000 -10.664000
v -13.437000 3.280000 -10.664000
v -17.220000 3.280000 -10.164000
v -13.205000 3.280000 -10.164000
v -16.983000 3.280000 -9.664000
v -13.186000 3.280000 -9.664000
v -16.791000 3.280000 -9.164000
v -13.377000 3.280000 -9.164000
v -16.574000 3.280000 -8.664000
v -13.813000 3.280000 -8.664000
v -15.877000 3.280000 -8.164000
v -14.409000 3.280000 -8.164000
v -16.968000 -0.720000 -12.668000
v -16.968000 -0.720000 -10.945000
v -16.468000 -0.720000 -12.806000
v -16.468000 -0.720000 -10.094000
v -15.968000 -0.720000 -12.667000
v -15.968000 -0.720000 -9.936000
v -15.468000 -0.720000 -12.183000
v -15.468000 -0.720000 -10.054000
v -17.468000 3.280000 -12.319000
v -17.468000 3.280000 -10.564000
v -16.968000 3.280000 -12.670000
v -16.968000 3.280000 -9.639000
v -16.468000 3.280000 -12.765000
v -16.468000 3.280000 -8.533000
v -15.968000 3.280000 -12.702000
v -15.968000 3.280000 -8.196000
v -15.468000 3.280000 -12.725000
v -15.468000 3.280000 -8.035000
v -14.968000 3.280000 -12.686000
v -14.968000 3.280000 -7.948000
v -14.468000 3.280000 -12.575000
v -14.468000 3.280000 -8.121000
v -13.968000 3.280000 -12.186000
v -13.968000 3.280000 -8.546000
v -13.468000 3.280000 -10.713000
v -13.468000 3.280000 -9.035000
v -17.968000 -0.191000 -12.164000
v -17.968000 1.805000 -12.164000
v -17.468000 -0.621000 -12.164000
v -17.468000 3.498000 -12.164000
v -16.968000 -0.954000 -12.164000
v -16.968000 3.917000 -12.164000
v -16.468000 -1.052000 -12.164000
v -16.468000 4.022000 -12.164000
v -15.968000 -0.961000 -12.164000
v -15.968000 3.960000 -12.164000
v -15.468000 -0.735000 -12.164000
v -15.468000 3.959000 -12.164000
v -14.968000 -0.196000 -12.164000
v -14.968000 3.945000 -12.164000
v -14.468000 1.198000 -12.164000
v -14.468000 3.817000 -12.164000
v -13.968000 2.262000 -12.164000
v -13.968000 3.315000 -12.164000
v -15.968000 0.301000 -8.164000
v -15.968000 3.200000 -8.164000
v -15.468000 -0.012000 -8.164000
v -15.468000 3.442000 -8.164000
v -14.968000 -0.094000 -8.164000
v -14.968000 3.461000 -8.164000
v -14.468000 0.007000 -8.164000
v -14.468000 3.314000 -8.164000
v -13.968000 0.342000 -8.164000
v -13.968000 2.850000 -8.164000
v -17.692000 -0.220000 -13.164000
v -16.194000 -0.220000 -13.164000
v -17.963000 -0.220000 -12.664000
v -15.444000 -0.220000 -12.664000
v -17.939000 -0.220000 -12.164000
v -14.980000 -0.220000 -12.164000
v -17.754000 -0.220000 -11.664000
v -14.714000 -0.220000 -11.664000
v -17.548000 -0.220000 -11.164000
v -14.519000 -0.220000 -11.164000
v -17.233000 -0.220000 -10.664000
v -14.507000 -0.220000 -10.664000
v -17.006000 -0.220000 -10.164000
v -14.473000 -0.220000 -10.164000
v -16.407000 -0.220000 -9.664000
v -14.716000 -0.220000 -9.664000
v -17.200000 3.780000 -12.164000
v -14.402000 3.780000 -12.164000
v -17.475000 3.780000 -11.664000
v -14.053000 3.780000 -11.664000
v -17.461000 3.780000 -11.164000
v -14.015000 3.780000 -11.164000
v -17.144000 3.780000 -10.664000
v -13.881000 3.780000 -10.664000
v -16.846000 3.780000 -10.164000
v -13.572000 3.780000 -10.164000
v -16.584000 3.780000 -9.664000
v -13.545000 3.780000 -9.664000
v -16.467000 3.780000 -9.164000
v -13.839000 3.780000 -9.164000
v -16.149000 3.780000 -8.664000
v -14.396000 3.780000 -8.664000
v -17.468000 -0.220000 -13.331000
v -17.468000 -0.220000 -11.054000
v -16.968000 -0.220000 -13.452000
v -16.968000 -0.220000 -10.112000
v -16.468000 -0.220000 -13.304000
v -16.468000 -0.220000 -9.701000
v -15.968000 -0.220000 -13.060000
v -15.968000 -0.220000 -9.444000
v -15.468000 -0.220000 -12.694000
v -15.468000 -0.220000 -9.326000
v -14.968000 -0.220000 -12.148000
v -14.968000 -0.220000 -9.419000
v -17.468000 3.780000 -11.691000
v -17.468000 3.780000 -11.191000
v -16.968000 3.780000 -12.338000
v -16.968000 3.780000 -10.441000
v -16.468000 3.780000 -12.463000
v -16.468000 3.780000 -9.168000
v -15.968000 3.780000 -12.382000
v -15.968000 3.780000 -8.542000
v -15.468000 3.780000 -12.393000
v -15.468000 3.780000 -8.427000
v -14.968000 3.780000 -12.364000
v -14.968000 3.780000 -8.452000
v -14.468000 3.780000 -12.210000
v -14.468000 3.780000 -8.611000
v -13.968000 3.780000 -10.865000
v -13.968000 3.780000 -9.067000
v -17.968000 0.154000 -11.664000
v -17.968000 1.422000 -11.664000
v -17.468000 -0.635000 -11.664000
v -17.468000 3.786000 -11.664000
v -16.968000 -0.974000 -11.664000
v -16.968000 4.115000 -11.664000
v -16.468000 -1.074000 -11.664000
v -16.468000 4.205000 -11.664000
v -15.968000 -1.091000 -11.664000
v -15.968000 4.168000 -11.664000
v -15.468000 -0.976000 -11.664000
v -15.468000 4.151000 -11.664000
v -14.968000 -0.601000 -11.664000
v -14.968000 4.158000 -11.664000
v -14.468000 0.116000 -11.664000
v -14.468000 4.051000 -11.664000
v -13.968000 1.658000 -11.664000
v -13.968000 3.691000 -11.664000
v -15.968000 0.318000 -7.664000
v -15.968000 2.471000 -7.664000
v -15.468000 -0.008000 -7.664000
v -15.468000 2.874000 -7.664000
v -14.968000 -0.097000 -7.664000
v -14.968000 2.989000 -7.664000
v -14.468000 -0.002000 -7.664000
v -14.468000 2.837000 -7.664000
v -13.968000 0.327000 -7.664000
v -13.968000 2.395000 -7.664000
v -17.517000 0.280000 -13.664000
v -16.468000 0.280000 -13.664000
v -18.101000 0.280000 -13.164000
v -15.836000 0.280000 -13.164000
v -18.289000 0.280000 -12.664000
v -15.311000 0.280000 -12.664000
v -18.271000 0.280000 -12.164000
v -14.843000 0.280000 -12.164000
v -18.035000 0.280000 -11.664000
v -14.380000 0.280000 -11.664000
v -17.672000 0.280000 -11.164000
v -14.158000 0.280000 -11.164000
v -17.344000 0.280000 -10.664000
v -13.857000 0.280000 -10.664000
v -17.119000 0.280000 -10.164000
v -13.539000 0.280000 -10.164000
v -16.746000 0.280000 -9.664000
v -13.535000 0.280000 -9.664000
v -16.435000 0.280000 -9.164000
v -13.830000 0.280000 -9.164000
v -16.126000 0.280000 -8.664000
v -14.022000 0.280000 -8.664000
v -15.946000 0.280000 -8.164000
v -14.033000 0.280000 -8.164000
v -15.929000 0.280000 -7.664000
v -14.017000 0.280000 -7.664000
v -15.936000 0.280000 -7.164000
v -14.033000 0.280000 -7.164000
v -15.634000 0.280000 -6.664000
v -14.334000 0.280000 -6.664000
v -17.968000 0.280000 -13.338000
v -17.968000 0.280000 -11.582000
v -17.468000 0.280000 -13.684000
v -17.468000 0.280000 -10.876000
v -16.968000 0.280000 -13.773000
v -16.968000 0.280000 -9.961000
v -16.468000 0.280000 -13.664000
v -16.468000 0.280000 -9.225000
v -15.968000 0.280000 -13.289000
v -15.968000 0.280000 -8.262000
v -15.468000 0.280000 -12.851000
v -15.468000 0.280000 -6.545000
v -14.968000 0.280000 -12.294000
v -14.968000 0.280000 -6.417000
v -14.468000 0.280000 -11.786000
v -14.468000 0.280000 -6.564000
v -13.968000 0.280000 -10.812000
v -13.968000 0.280000 -8.901000
v -17.468000 -0.358000 -11.164000
v -17.468000 3.772000 -11.164000
v -16.968000 -0.805000 -11.164000
v -16.968000 4.104000 -11.164000
v -16.468000 -1.033000 -11.164000
v -16.468000 4.194000 -11.164000
v -15.968000 -1.112000 -11.164000
v -15.968000 4.179000 -11.164000
v -15.468000 -1.016000 -11.164000
v -15.468000 4.182000 -11.164000
v -14.968000 -0.697000 -11.164000
v -14.968000 4.172000 -11.164000
v -14.468000 -0.169000 -11.164000
v -14.468000 4.068000 -11.164000
v -13.968000 0.582000 -11.164000
v -13.968000 3.735000 -11.164000
v -13.468000 1.583000 -11.164000
v -13.468000 2.958000 -11.164000
v -15.968000 0.312000 -7.164000
v -15.968000 2.248000 -7.164000
v -15.468000 -0.013000 -7.164000
v -15.468000 2.583000 -7.164000
v -14.968000 -0.101000 -7.164000
v -14.968000 2.678000 -7.164000
v -14.468000 -0.001000 -7.164000
v -14.468000 2.567000 -7.164000
v -13.968000 0.345000 -7.164000
v -13.968000 2.215000 -7.164000
v -17.709000 0.780000 -13.664000
v -16.276000 0.780000 -13.664000
v -18.204000 0.780000 -13.164000
v -15.758000 0.780000 -13.164000
v -18.378000 0.780000 -12.664000
v -15.246000 0.780000 -12.664000
v -18.361000 0.780000 -12.164000
v -14.697000 0.780000 -12.164000
v -18.143000 0.780000 -11.664000
v -14.258000 0.780000 -11.664000
v -17.659000 0.780000 -11.164000
v -13.848000 0.780000 -11.164000
v -17.339000 0.780000 -10.664000
v -13.405000 0.780000 -10.664000
v -17.117000 0.780000 -10.164000
v -13.187000 0.780000 -10.164000
v -16.850000 0.780000 -9.664000
v -13.185000 0.780000 -9.664000
v -16.733000 0.780000 -9.164000
v -13.395000 0.780000 -9.164000
v -16.508000 0.780000 -8.664000
v -13.634000 0.780000 -8.664000
v -16.292000 0.780000 -8.164000
v -13.674000 0.780000 -8.164000
v -16.268000 0.780000 -7.664000
v -13.669000 0.780000 -7.664000
v -16.271000 0.780000 -7.164000
v -13.697000 0.780000 -7.164000
v -16.067000 0.780000 -6.664000
v -13.901000 0.780000 -6.664000
v -15.419000 0.780000 -6.164000
v -14.549000 0.780000 -6.164000
v -17.968000 0.780000 -13.465000
v -17.968000 0.780000 -11.457000
v -17.468000 0.780000 -13.778000
v -17.468000 0.780000 -10.907000
v -16.968000 0.780000 -13.861000
v -16.968000 0.780000 -9.933000
v -16.468000 0.780000 -13.759000
v -16.468000 0.780000 -8.599000
v -15.968000 0.780000 -13.415000
v -15.968000 0.780000 -6.536000
v -15.468000 0.780000 -12.896000
v -15.468000 0.780000 -6.182000
v -14.968000 0.780000 -12.405000
v -14.968000 0.780000 -6.089000
v -14.468000 0.780000 -11.943000
v -14.468000 0.780000 -6.195000
v -13.968000 0.780000 -11.321000
v -13.968000 0.780000 -6.573000
v -13.468000 0.780000 -10.745000
v -13.468000 0.780000 -9.050000
v -17.468000 2.134000 -10.664000
v -17.468000 3.434000 -10.664000
v -16.968000 -0.628000 -10.664000
v -16.968000 3.892000 -10.664000
v -16.468000 -0.987000 -10.664000
v -16.468000 4.079000 -10.664000
v -15.968000 -1.094000 -10.664000
v -15.968000 4.136000 -10.664000
v -15.468000 -1.013000 -10.664000
v -15.468000 4.190000 -10.664000
v -14.968000 -0.698000 -10.664000
v -14.968000 4.181000 -10.664000
v -14.468000 -0.186000 -10.664000
v -14.468000 4.099000 -10.664000
v -13.968000 0.194000 -10.664000
v -13.968000 3.837000 -10.664000
v -13.468000 0.667000 -10.664000
v -13.468000 3.330000 -10.664000
v -15.968000 0.606000 -6.664000
v -15.968000 1.953000 -6.664000
v -15.468000 0.190000 -6.664000
v -15.468000 2.370000 -6.664000
v -14.968000 0.087000 -6.664000
v -14.968000 2.472000 -6.664000
v -14.468000 0.204000 -6.664000
v -14.468000 2.355000 -6.664000
v -13.968000 0.654000 -6.664000
v -13.968000 1.905000 -6.664000
v -17.495000 1.280000 -13.664000
v -16.491000 1.280000 -13.664000
v -18.090000 1.280000 -13.164000
v -15.779000 1.280000 -13.164000
v -18.280000 1.280000 -12.664000
v -15.041000 1.280000 -12.664000
v -18.262000 1.280000 -12.164000
v -14.426000 1.280000 -12.164000
v -18.025000 1.280000 -11.664000
v -14.123000 1.280000 -11.664000
v -17.619000 1.280000 -11.164000
v -13.663000 1.280000 -11.164000
v -17.377000 1.280000 -10.664000
v -13.272000 1.280000 -10.664000
v -17.195000 1.280000 -10.164000
v -13.085000 1.280000 -10.164000
v -16.921000 1.280000 -9.664000
v -13.082000 1.280000 -9.664000
v -16.814000 1.280000 -9.164000
v -13.177000 1.280000 -9.164000
v -16.603000 1.280000 -8.664000
v -13.371000 1.280000 -8.664000
v -16.395000 1.280000 -8.164000
v -13.519000 1.280000 -8.164000
v -16.364000 1.280000 -7.664000
v -13.562000 1.280000 -7.664000
v -16.365000 1.280000 -7.164000
v -13.604000 1.280000 -7.164000
v -16.177000 1.280000 -6.664000
v -13.791000 1.280000 -6.664000
v -15.647000 1.280000 -6.164000
v -14.321000 1.280000 -6.164000
v -17.968000 1.280000 -13.325000
v -17.968000 1.280000 -11.590000
v -17.468000 1.280000 -13.674000
v -17.468000 1.280000 -10.907000
v -16.968000 1.280000 -13.764000
v -16.968000 1.280000 -9.780000
v -16.468000 1.280000 -13.654000
v -16.468000 1.280000 -8.397000
v -15.968000 1.280000 -13.305000
v -15.968000 1.280000 -6.401000
v -15.468000 1.280000 -12.935000
v -15.468000 1.280000 -6.083000
v -14.968000 1.280000 -12.626000
v -14.968000 1.280000 -5.997000
v -14.468000 1.280000 -12.223000
v -14.468000 1.280000 -6.095000
v -13.968000 1.280000 -11.488000
v -13.968000 1.280000 -6.433000
v -13.468000 1.280000 -10.948000
v -13.468000 1.280000 -8.399000
v -16.968000 -0.294000 -10.164000
v -16.968000 3.660000 -10.164000
v -16.468000 -0.773000 -10.164000
v -16.468000 4.016000 -10.164000
v -15.968000 -0.900000 -10.164000
v -15.968000 4.126000 -10.164000
v -15.468000 -0.804000 -10.164000
v -15.468000 4.185000 -10.164000
v -14.968000 -0.529000 -10.164000
v -14.968000 4.185000 -10.164000
v -14.468000 -0.217000 -10.164000
v -14.468000 4.133000 -10.164000
v -13.968000 0.016000 -10.164000
v -13.968000 4.017000 -10.164000
v -13.468000 0.348000 -10.164000
v -13.468000 3.681000 -10.164000
v -15.468000 0.827000 -6.164000
v -15.468000 1.732000 -6.164000
v -14.968000 0.617000 -6.164000
v -14.968000 1.942000 -6.164000
v -14.468000 0.863000 -6.164000
v -14.468000 1.696000 -6.164000
f 117 387 415
f 415 387 493
f 493 387 463
f 493 463 573
f 573 463 543
f 543 118 573
f 119 297 329
f 117 415 297
f 297 415 329
f 415 385 329
f 385 51 329
f 493 461 385
f 493 385 415
f 573 541 461
f 573 461 493
f 118 1 33
f 118 33 52
f 573 118 52
f 541 573 52
f 1 120 33
f 331 121 329
f 329 121 119
f 329 51 53
f 329 53 331
f 35 54 52
f 35 52 33
f 33 120 35
f 35 120 122
f 333 123 331
f 331 123 121
f 331 53 55
f 331 55 333
f 542 579 56
f 579 542 54
f 35 579 54
f 37 579 35
f 35 122 37
f 37 122 124
f 333 298 123
f 423 125 386
f 386 125 55
f 125 298 55
f 298 333 55
f 462 501 423
f 462 423 386
f 501 462 56
f 579 501 56
f 581 501 579
f 126 581 2
f 581 37 2
f 581 579 37
f 37 124 2
f 423 388 125
f 388 423 464
f 464 423 501
f 464 501 544
f 544 501 581
f 581 126 544
f 102 85 57
f 166 153 102
f 102 153 85
f 254 235 166
f 166 235 153
f 254 58 235
f 422 401 59
f 127 479 422
f 479 401 422
f 479 477 401
f 479 557 477
f 559 557 479
f 559 15 557
f 17 15 559
f 87 102 57
f 15 87 57
f 17 87 15
f 102 87 155
f 102 155 166
f 166 155 237
f 166 237 254
f 128 346 323
f 128 323 58
f 237 128 58
f 254 237 58
f 346 60 323
f 336 311 61
f 403 422 59
f 403 59 311
f 129 403 311
f 336 129 311
f 127 422 403
f 325 346 128
f 325 130 346
f 130 60 346
f 130 62 60
f 63 338 61
f 61 338 336
f 129 336 338
f 129 338 131
f 62 132 64
f 130 132 62
f 65 340 63
f 63 340 338
f 131 338 340
f 131 340 133
f 64 134 66
f 132 134 64
f 312 340 65
f 133 340 312
f 67 133 312
f 135 133 67
f 66 136 68
f 134 136 66
f 137 67 69
f 137 135 67
f 68 138 70
f 136 138 68
f 69 402 137
f 137 402 404
f 139 404 402
f 139 402 71
f 326 140 72
f 326 72 324
f 324 70 326
f 326 70 138
f 71 478 139
f 139 478 480
f 558 480 478
f 558 560 480
f 16 560 558
f 16 18 560
f 86 18 16
f 86 88 18
f 154 88 86
f 154 156 88
f 236 156 154
f 236 238 156
f 236 72 238
f 238 72 140
f 181 389 117
f 117 389 387
f 389 463 387
f 465 463 389
f 465 543 463
f 545 543 465
f 545 182 543
f 543 182 118
f 183 299 119
f 119 299 297
f 117 297 299
f 117 299 181
f 1 118 182
f 1 182 3
f 120 1 99
f 1 73 99
f 1 3 73
f 73 184 99
f 185 211 243
f 121 243 211
f 183 121 211
f 119 121 183
f 101 122 120
f 101 120 99
f 141 165 184
f 165 99 184
f 165 101 99
f 165 141 253
f 253 141 223
f 223 186 253
f 245 187 243
f 243 187 185
f 243 121 123
f 243 123 245
f 103 124 122
f 103 122 101
f 101 167 103
f 101 165 167
f 165 255 167
f 165 253 255
f 253 186 255
f 255 186 188
f 247 189 245
f 245 189 187
f 245 123 298
f 335 245 298
f 247 245 335
f 125 335 298
f 2 39 126
f 39 2 124
f 103 39 124
f 105 39 103
f 103 169 105
f 103 167 169
f 167 257 169
f 167 255 257
f 255 188 257
f 257 188 190
f 247 212 189
f 212 247 191
f 247 337 191
f 247 335 337
f 335 125 388
f 425 335 388
f 337 335 425
f 464 503 425
f 464 425 388
f 544 583 503
f 544 503 464
f 583 544 126
f 39 583 126
f 41 583 39
f 39 107 41
f 39 105 107
f 105 171 107
f 105 169 171
f 169 259 171
f 169 257 259
f 257 190 259
f 259 190 192
f 337 300 191
f 300 337 390
f 390 337 425
f 390 425 466
f 466 425 503
f 466 503 546
f 546 503 583
f 546 583 193
f 583 43 193
f 583 41 43
f 41 109 43
f 41 107 109
f 107 173 109
f 107 171 173
f 171 261 173
f 171 259 261
f 259 192 261
f 261 192 194
f 43 4 193
f 4 43 74
f 74 43 109
f 74 109 195
f 109 175 195
f 109 173 175
f 196 175 224
f 175 261 224
f 175 173 261
f 261 194 224
f 175 142 195
f 175 196 142
f 197 481 127
f 127 481 479
f 481 559 479
f 561 559 481
f 561 17 559
f 19 17 561
f 19 87 17
f 89 87 19
f 89 155 87
f 157 155 89
f 157 237 155
f 239 237 157
f 239 198 237
f 237 198 128
f 199 405 129
f 129 405 403
f 127 403 405
f 127 405 197
f 325 128 198
f 325 198 327
f 327 200 325
f 325 200 130
f 201 129 131
f 201 199 129
f 130 202 132
f 200 202 130
f 203 131 133
f 203 201 131
f 132 204 134
f 202 204 132
f 205 133 135
f 205 203 133
f 134 206 136
f 204 206 134
f 406 205 432
f 205 137 432
f 205 135 137
f 207 406 432
f 328 208 356
f 356 138 328
f 138 206 328
f 138 136 206
f 404 432 137
f 482 207 512
f 512 207 139
f 207 432 139
f 432 404 139
f 209 482 512
f 240 210 268
f 356 208 240
f 356 240 268
f 326 356 268
f 140 326 268
f 138 356 326
f 480 512 139
f 512 480 209
f 480 562 209
f 480 560 562
f 18 562 560
f 18 20 562
f 88 20 18
f 88 90 20
f 156 90 88
f 156 158 90
f 210 158 268
f 158 238 268
f 158 156 238
f 140 268 238
f 269 391 181
f 181 391 389
f 391 465 389
f 467 465 391
f 467 545 465
f 547 545 467
f 182 545 31
f 545 5 31
f 545 547 5
f 5 270 31
f 271 301 183
f 183 301 299
f 181 299 301
f 181 301 269
f 31 3 182
f 3 31 270
f 75 3 270
f 73 3 75
f 184 73 163
f 73 143 163
f 73 75 143
f 163 143 251
f 251 143 225
f 225 272 251
f 273 213 185
f 185 213 211
f 183 211 213
f 183 213 271
f 163 141 184
f 251 223 141
f 251 141 163
f 272 313 343
f 272 343 186
f 251 272 186
f 223 251 186
f 313 274 343
f 275 185 187
f 275 273 185
f 345 188 186
f 345 186 343
f 343 274 345
f 345 274 276
f 277 187 189
f 277 275 187
f 347 190 188
f 347 188 345
f 345 276 347
f 347 276 278
f 249 279 212
f 279 189 212
f 279 277 189
f 191 249 212
f 349 192 190
f 349 190 347
f 347 278 349
f 349 278 280
f 249 214 279
f 191 300 249
f 300 214 249
f 300 302 214
f 390 427 281
f 302 390 281
f 300 390 302
f 466 505 427
f 466 427 390
f 546 585 505
f 546 505 466
f 193 585 546
f 351 194 192
f 351 192 349
f 349 280 351
f 351 280 282
f 427 392 281
f 392 427 468
f 468 427 505
f 468 505 283
f 505 587 283
f 505 585 587
f 585 193 4
f 45 585 4
f 587 585 45
f 74 111 45
f 74 45 4
f 195 111 74
f 224 263 196
f 263 224 194
f 351 263 194
f 353 263 351
f 351 282 353
f 353 282 284
f 587 548 283
f 548 587 6
f 6 587 45
f 6 45 285
f 45 113 285
f 45 111 113
f 111 195 142
f 177 111 142
f 113 111 177
f 177 142 196
f 263 177 196
f 265 177 263
f 286 265 314
f 265 353 314
f 265 263 353
f 353 284 314
f 113 76 285
f 76 113 144
f 144 113 177
f 144 177 226
f 226 177 265
f 265 286 226
f 500 481 197
f 580 561 500
f 500 561 481
f 38 19 580
f 580 19 561
f 104 89 38
f 38 89 19
f 168 157 104
f 104 157 89
f 256 239 168
f 168 239 157
f 256 198 239
f 424 405 199
f 483 500 197
f 483 197 405
f 287 483 405
f 424 287 405
f 500 483 563
f 500 563 580
f 580 563 21
f 580 21 38
f 38 21 91
f 38 91 104
f 104 91 159
f 104 159 168
f 168 159 288
f 258 168 288
f 256 168 258
f 198 256 327
f 256 348 327
f 256 258 348
f 348 200 327
f 424 199 407
f 199 289 407
f 199 201 289
f 287 424 407
f 241 258 288
f 258 241 290
f 350 258 290
f 348 258 350
f 200 348 202
f 202 348 350
f 291 201 203
f 291 289 201
f 292 352 350
f 292 350 290
f 202 350 204
f 204 350 352
f 293 203 205
f 293 291 203
f 294 354 352
f 294 352 292
f 204 352 206
f 206 352 354
f 205 406 293
f 293 406 408
f 295 408 406
f 295 406 207
f 242 296 266
f 354 294 242
f 354 242 266
f 328 354 266
f 208 328 266
f 206 354 328
f 207 482 295
f 295 482 484
f 482 209 592
f 564 482 592
f 484 482 564
f 564 592 50
f 564 50 22
f 22 50 116
f 22 116 92
f 92 116 180
f 92 180 160
f 266 296 160
f 266 160 180
f 240 266 180
f 210 240 180
f 208 266 240
f 562 592 209
f 20 50 562
f 562 50 592
f 90 116 20
f 20 116 50
f 158 180 90
f 90 180 116
f 210 180 158
f 357 393 269
f 269 393 391
f 393 467 391
f 469 467 393
f 469 547 467
f 549 547 469
f 32 5 358
f 5 549 358
f 5 547 549
f 32 270 5
f 359 303 271
f 271 303 301
f 269 301 303
f 269 303 357
f 7 32 358
f 75 270 32
f 7 75 32
f 77 75 7
f 77 143 75
f 145 143 77
f 145 225 143
f 227 225 145
f 272 225 341
f 225 315 341
f 225 227 315
f 315 360 341
f 361 215 273
f 273 215 213
f 271 213 215
f 271 215 359
f 341 313 272
f 341 360 313
f 360 274 313
f 360 362 274
f 363 273 275
f 363 361 273
f 274 364 276
f 362 364 274
f 365 275 277
f 365 363 275
f 276 366 278
f 364 366 276
f 367 277 279
f 367 365 277
f 278 368 280
f 366 368 278
f 279 214 367
f 367 214 216
f 302 339 369
f 216 302 369
f 214 302 216
f 281 339 302
f 280 370 282
f 368 370 280
f 339 304 369
f 429 371 392
f 392 371 281
f 371 304 281
f 304 339 281
f 468 507 429
f 468 429 392
f 283 507 468
f 282 372 284
f 370 372 282
f 429 394 371
f 394 429 470
f 470 429 507
f 283 548 507
f 548 470 507
f 548 550 470
f 6 47 373
f 550 6 373
f 548 6 550
f 285 47 6
f 316 374 286
f 316 286 314
f 314 284 316
f 316 284 372
f 47 8 373
f 285 76 47
f 76 8 47
f 76 78 8
f 144 78 76
f 144 146 78
f 226 146 144
f 226 228 146
f 226 286 228
f 228 286 374
f 375 485 287
f 287 485 483
f 485 563 483
f 565 563 485
f 565 21 563
f 23 21 565
f 23 91 21
f 93 91 23
f 170 159 376
f 159 93 376
f 159 91 93
f 170 288 159
f 377 409 289
f 289 409 407
f 287 407 409
f 287 409 375
f 161 170 376
f 378 260 241
f 378 241 288
f 161 378 288
f 170 161 288
f 260 290 241
f 379 289 291
f 379 377 289
f 380 262 260
f 380 260 378
f 290 260 292
f 292 260 262
f 381 291 293
f 381 379 291
f 382 264 262
f 382 262 380
f 292 262 294
f 294 262 264
f 293 408 381
f 381 408 410
f 383 410 408
f 383 408 295
f 162 384 178
f 264 382 162
f 264 162 178
f 242 264 178
f 296 242 178
f 294 264 242
f 295 484 383
f 383 484 486
f 564 486 484
f 564 566 486
f 22 566 564
f 22 24 566
f 92 24 22
f 92 94 24
f 384 94 178
f 94 160 178
f 94 92 160
f 296 178 160
f 416 393 357
f 494 469 416
f 416 469 393
f 574 549 494
f 494 549 469
f 574 358 549
f 433 305 359
f 359 305 303
f 395 416 357
f 303 395 357
f 305 395 303
f 416 395 471
f 416 471 494
f 494 471 551
f 494 551 574
f 7 358 574
f 551 7 574
f 9 7 551
f 9 77 7
f 79 77 9
f 79 145 77
f 147 145 79
f 147 227 145
f 229 227 147
f 342 315 434
f 315 229 434
f 315 227 229
f 342 360 315
f 435 217 361
f 361 217 215
f 359 215 217
f 359 217 433
f 317 342 434
f 317 436 342
f 436 360 342
f 436 362 360
f 437 361 363
f 437 435 361
f 362 438 364
f 436 438 362
f 439 363 365
f 439 437 363
f 364 440 366
f 438 440 364
f 441 365 367
f 441 439 365
f 366 442 368
f 440 442 366
f 367 216 441
f 441 216 218
f 443 218 216
f 443 216 369
f 368 444 370
f 442 444 368
f 369 304 443
f 443 304 306
f 445 306 304
f 445 304 371
f 370 446 372
f 444 446 370
f 371 394 445
f 445 394 396
f 470 509 447
f 396 470 447
f 394 470 396
f 550 589 509
f 550 509 470
f 373 589 550
f 318 448 374
f 318 374 316
f 316 372 318
f 318 372 446
f 509 472 447
f 472 509 552
f 552 509 589
f 49 449 8
f 8 449 373
f 449 552 373
f 552 589 373
f 78 115 49
f 78 49 8
f 146 179 115
f 146 115 78
f 230 450 179
f 146 230 179
f 228 230 146
f 228 374 230
f 230 374 448
f 49 10 449
f 10 49 80
f 80 49 115
f 80 115 148
f 148 115 179
f 179 450 148
f 451 487 375
f 375 487 485
f 487 565 485
f 567 565 487
f 567 23 565
f 25 23 567
f 106 93 452
f 93 25 452
f 93 23 25
f 106 376 93
f 453 411 377
f 377 411 409
f 375 409 411
f 375 411 451
f 95 106 452
f 454 172 161
f 454 161 376
f 95 454 376
f 106 95 376
f 172 378 161
f 455 377 379
f 455 453 377
f 456 174 172
f 456 172 454
f 378 172 380
f 380 172 174
f 457 379 381
f 457 455 379
f 458 176 174
f 458 174 456
f 380 174 382
f 382 174 176
f 381 410 457
f 457 410 412
f 459 412 410
f 459 410 383
f 96 460 114
f 176 458 96
f 176 96 114
f 162 176 114
f 384 162 114
f 382 176 162
f 383 486 459
f 459 486 488
f 566 488 486
f 566 568 488
f 24 568 566
f 24 26 568
f 460 26 114
f 26 94 114
f 26 24 94
f 384 114 94
f 330 305 433
f 418 395 330
f 330 395 305
f 496 471 418
f 418 471 395
f 576 551 496
f 496 551 471
f 34 9 576
f 576 9 551
f 513 81 34
f 81 9 34
f 81 79 9
f 81 147 79
f 149 147 81
f 149 229 147
f 231 229 149
f 231 514 229
f 229 514 434
f 244 217 435
f 307 330 433
f 307 433 217
f 515 307 217
f 244 515 217
f 330 307 397
f 330 397 418
f 418 397 473
f 418 473 496
f 496 473 553
f 496 553 576
f 576 553 11
f 576 11 34
f 513 34 11
f 317 434 514
f 317 514 319
f 319 516 317
f 317 516 436
f 244 435 219
f 435 517 219
f 435 437 517
f 515 244 219
f 436 518 438
f 516 518 436
f 519 437 439
f 519 517 437
f 438 520 440
f 518 520 438
f 521 439 441
f 521 519 439
f 440 522 442
f 520 522 440
f 441 218 521
f 521 218 220
f 523 220 218
f 523 218 443
f 442 524 444
f 522 524 442
f 443 306 523
f 523 306 308
f 525 308 306
f 525 306 445
f 444 526 446
f 524 526 444
f 431 527 396
f 527 445 396
f 527 525 445
f 447 431 396
f 318 355 448
f 318 446 355
f 446 528 355
f 446 526 528
f 431 398 527
f 511 529 472
f 472 529 447
f 529 398 447
f 398 431 447
f 552 591 511
f 552 511 472
f 449 591 552
f 230 267 450
f 355 320 448
f 448 320 230
f 320 530 230
f 530 267 230
f 355 528 320
f 511 474 529
f 474 511 554
f 554 511 591
f 449 10 591
f 10 554 591
f 10 12 554
f 80 12 10
f 80 82 12
f 148 82 80
f 148 150 82
f 267 232 450
f 232 148 450
f 232 150 148
f 267 530 232
f 531 489 451
f 451 489 487
f 489 567 487
f 569 567 489
f 569 25 567
f 27 25 569
f 27 532 25
f 25 532 452
f 533 413 453
f 453 413 411
f 451 411 413
f 451 413 531
f 95 452 532
f 95 532 97
f 97 534 95
f 95 534 454
f 535 453 455
f 535 533 453
f 454 536 456
f 534 536 454
f 537 455 457
f 537 535 455
f 456 538 458
f 536 538 456
f 457 412 537
f 537 412 414
f 539 414 412
f 539 412 459
f 98 540 460
f 98 460 96
f 96 458 98
f 98 458 538
f 459 488 539
f 539 488 490
f 568 490 488
f 568 570 490
f 26 570 568
f 26 28 570
f 26 460 28
f 28 460 540
f 100 81 513
f 164 149 100
f 100 149 81
f 252 231 164
f 164 231 149
f 252 514 231
f 593 309 515
f 515 309 307
f 309 397 307
f 399 397 309
f 399 473 397
f 475 473 399
f 475 553 473
f 555 553 475
f 555 11 553
f 13 11 555
f 83 100 513
f 11 83 513
f 13 83 11
f 100 83 151
f 100 151 164
f 164 151 233
f 164 233 252
f 594 344 319
f 594 319 514
f 233 594 514
f 252 233 514
f 344 516 319
f 595 221 517
f 517 221 219
f 515 219 221
f 515 221 593
f 321 344 594
f 321 596 344
f 596 516 344
f 596 518 516
f 597 517 519
f 597 595 517
f 518 598 520
f 596 598 518
f 599 519 521
f 599 597 519
f 520 600 522
f 598 600 520
f 521 220 599
f 599 220 222
f 601 222 220
f 601 220 523
f 522 602 524
f 600 602 522
f 523 308 601
f 601 308 310
f 603 310 308
f 603 308 525
f 524 604 526
f 602 604 524
f 605 525 527
f 605 603 525
f 526 606 528
f 604 606 526
f 527 398 605
f 605 398 400
f 607 400 398
f 607 398 529
f 322 608 530
f 322 530 320
f 320 528 322
f 322 528 606
f 529 474 607
f 607 474 476
f 554 476 474
f 554 556 476
f 12 556 554
f 12 14 556
f 82 14 12
f 82 84 14
f 150 84 82
f 150 152 84
f 232 152 150
f 232 234 152
f 232 530 234
f 234 530 608
f 502 489 531
f 582 569 502
f 502 569 489
f 40 27 582
f 582 27 569
f 40 532 27
f 426 413 533
f 413 426 531
f 426 502 531
f 426 504 502
f 504 609 571
f 582 504 571
f 502 504 582
f 582 571 610
f 42 582 610
f 40 582 42
f 532 40 97
f 40 108 97
f 40 42 108
f 108 534 97
f 535 428 533
f 533 428 426
f 428 611 491
f 504 428 491
f 426 428 504
f 609 504 491
f 29 42 610
f 42 29 612
f 110 42 612
f 108 42 110
f 534 108 536
f 536 108 110
f 537 430 535
f 535 430 428
f 508 492 611
f 428 508 611
f 430 508 428
f 613 492 508
f 30 614 46
f 110 612 30
f 46 110 30
f 112 110 46
f 536 110 538
f 538 110 112
f 414 430 537
f 539 510 414
f 510 430 414
f 510 508 430
f 590 572 613
f 508 590 613
f 510 590 508
f 46 614 572
f 590 46 572
f 48 46 590
f 98 112 540
f 112 48 540
f 112 46 48
f 538 112 98
f 490 510 539
f 570 590 490
f 490 590 510
f 28 48 570
f 570 48 590
f 540 48 28
f 51 385 417
f 417 385 495
f 495 385 461
f 495 461 575
f 575 461 541
f 541 52 575
f 419 53 417
f 417 53 51
f 417 497 419
f 417 495 497
f 495 577 497
f 495 575 577
f 575 52 577
f 577 52 54
f 421 55 419
f 419 55 53
f 419 499 421
f 419 497 499
f 56 499 542
f 499 577 542
f 499 497 577
f 577 54 542
f 421 386 55
f 386 421 462
f 462 421 499
f 499 56 462
f 332 309 593
f 420 399 332
f 332 399 309
f 498 475 420
f 420 475 399
f 578 555 498
f 498 555 475
f 36 13 578
f 578 13 555
f 57 85 36
f 85 13 36
f 85 83 13
f 85 151 83
f 153 151 85
f 153 233 151
f 235 233 153
f 235 58 233
f 233 58 594
f 246 221 595
f 221 246 593
f 246 332 593
f 246 334 332
f 334 59 401
f 420 334 401
f 332 334 420
f 420 401 477
f 420 477 498
f 498 477 557
f 498 557 578
f 578 557 15
f 578 15 36
f 57 36 15
f 321 594 58
f 321 58 323
f 323 60 321
f 321 60 596
f 597 248 595
f 595 248 246
f 248 61 311
f 334 248 311
f 246 248 334
f 59 334 311
f 596 62 598
f 60 62 596
f 599 250 597
f 597 250 248
f 61 248 250
f 61 250 63
f 598 64 600
f 62 64 598
f 222 250 599
f 63 250 222
f 601 63 222
f 65 63 601
f 600 66 602
f 64 66 600
f 601 310 65
f 65 310 312
f 67 312 310
f 67 310 603
f 602 68 604
f 66 68 602
f 69 603 605
f 69 67 603
f 604 70 606
f 68 70 604
f 605 400 69
f 69 400 402
f 71 402 400
f 71 400 607
f 324 72 608
f 324 608 322
f 322 606 324
f 324 606 70
f 607 476 71
f 71 476 478
f 556 478 476
f 556 558 478
f 14 558 556
f 14 16 558
f 84 16 14
f 84 86 16
f 152 86 84
f 152 154 86
f 234 154 152
f 234 236 154
f 234 608 236
f 236 608 72
f 584 571 609
f 584 610 571
f 506 491 611
f 491 506 609
f 506 584 609
f 506 586 584
f 610 584 29
f 584 44 29
f 584 586 44
f 44 612 29
f 492 506 611
f 613 588 492
f 588 506 492
f 588 586 506
f 30 44 614
f 44 588 614
f 44 586 588
f 612 44 30
f 572 588 613
f 614 588 572
