# Converted from NanoShaper .vert/.face
v -7.633000 -17.622000 -17.718000
v -6.147000 -17.622000 -17.718000
v -8.010000 -17.622000 -17.218000
v -5.770000 -17.622000 -17.218000
v -8.110000 -17.622000 -16.718000
v -5.683000 -17.622000 -16.718000
v -8.126000 -17.622000 -16.218000
v -5.750000 -17.622000 -16.218000
v -8.071000 -17.622000 -15.718000
v -5.794000 -17.622000 -15.718000
v -7.723000 -17.622000 -15.218000
v -6.135000 -17.622000 -15.218000
v -9.470000 -13.622000 -17.218000
v -7.736000 -13.622000 -17.218000
v -9.982000 -13.622000 -16.718000
v -7.121000 -13.622000 -16.718000
v -10.287000 -13.622000 -16.218000
v -6.826000 -13.622000 -16.218000
v -10.491000 -13.622000 -15.718000
v -6.837000 -13.622000 -15.718000
v -10.593000 -13.622000 -15.218000
v -7.032000 -13.622000 -15.218000
v -10.495000 -13.622000 -14.718000
v -7.382000 -13.622000 -14.718000
v -10.091000 -13.622000 -14.218000
v -8.457000 -13.622000 -14.218000
v -7.682000 -17.622000 -17.678000
v -7.682000 -17.622000 -15.198000
v -7.182000 -17.622000 -17.938000
v -7.182000 -17.622000 -15.085000
v -6.682000 -17.622000 -17.956000
v -6.682000 -17.622000 -15.079000
v -6.182000 -17.622000 -17.745000
v -6.182000 -17.622000 -15.193000
v -10.182000 -13.622000 -16.412000
v -10.182000 -13.622000 -14.291000
v -9.682000 -13.622000 -17.066000
v -9.682000 -13.622000 -14.032000
v -9.182000 -13.622000 -17.332000
v -9.182000 -13.622000 -14.017000
v -8.682000 -13.622000 -17.418000
v -8.682000 -13.622000 -14.156000
v -8.182000 -13.622000 -17.417000
v -8.182000 -13.622000 -14.292000
v -7.682000 -13.622000 -17.178000
v -7.682000 -13.622000 -14.479000
v -7.182000 -13.622000 -16.764000
v -7.182000 -13.622000 -14.977000
v -10.682000 -13.188000 -14.718000
v -10.682000 -12.595000 -14.718000
v -10.182000 -13.954000 -14.718000
v -10.182000 -11.832000 -14.718000
v -9.682000 -14.445000 -14.718000
v -9.682000 -11.605000 -14.718000
v -9.182000 -15.429000 -14.718000
v -9.182000 -11.592000 -14.718000
v -8.682000 -16.061000 -14.718000
v -8.682000 -11.785000 -14.718000
v -8.182000 -16.936000 -14.718000
v -8.182000 -12.382000 -14.718000
v -7.682000 -17.264000 -14.718000
v -7.682000 -13.079000 -14.718000
v -7.182000 -17.299000 -14.718000
v -7.182000 -14.247000 -14.718000
v -6.682000 -17.312000 -14.718000
v -6.682000 -14.920000 -14.718000
v -6.182000 -17.288000 -14.718000
v -6.182000 -15.268000 -14.718000
v -5.682000 -16.997000 -14.718000
v -5.682000 -15.686000 -14.718000
v -7.996000 -17.122000 -17.718000
v -5.885000 -17.122000 -17.718000
v -8.447000 -17.122000 -17.218000
v -5.582000 -17.122000 -17.218000
v -8.562000 -17.122000 -16.718000
v -5.481000 -17.122000 -16.718000
v -8.609000 -17.122000 -16.218000
v -5.343000 -17.122000 -16.218000
v -8.621000 -17.122000 -15.718000
v -5.236000 -17.122000 -15.718000
v -8.489000 -17.122000 -15.218000
v -5.353000 -17.122000 -15.218000
v -7.988000 -17.122000 -14.718000
v -5.821000 -17.122000 -14.718000
v -9.678000 -13.122000 -16.718000
v -7.769000 -13.122000 -16.718000
v -10.327000 -13.122000 -16.218000
v -7.308000 -13.122000 -16.218000
v -10.675000 -13.122000 -15.718000
v -7.178000 -13.122000 -15.718000
v -10.779000 -13.122000 -15.218000
v -7.265000 -13.122000 -15.218000
v -10.696000 -13.122000 -14.718000
v -7.640000 -13.122000 -14.718000
v -10.378000 -13.122000 -14.218000
v -8.380000 -13.122000 -14.218000
v -8.182000 -17.122000 -17.574000
v -8.182000 -17.122000 -14.845000
v -7.682000 -17.122000 -17.913000
v -7.682000 -17.122000 -14.611000
v -7.182000 -17.122000 -18.119000
v -7.182000 -17.122000 -14.586000
v -6.682000 -17.122000 -18.135000
v -6.682000 -17.122000 -14.574000
v -6.182000 -17.122000 -17.956000
v -6.182000 -17.122000 -14.585000
v -5.682000 -17.122000 -17.443000
v -5.682000 -17.122000 -14.812000
v -10.682000 -13.122000 -15.700000
v -10.682000 -13.122000 -14.683000
v -10.182000 -13.122000 -16.354000
v -10.182000 -13.122000 -14.055000
v -9.682000 -13.122000 -16.716000
v -9.682000 -13.122000 -13.840000
v -9.182000 -13.122000 -16.926000
v -9.182000 -13.122000 -13.828000
v -8.682000 -13.122000 -16.960000
v -8.682000 -13.122000 -14.011000
v -8.182000 -13.122000 -16.916000
v -8.182000 -13.122000 -14.354000
v -7.682000 -13.122000 -16.656000
v -7.682000 -13.122000 -14.686000
v -7.182000 -13.122000 -15.780000
v -7.182000 -13.122000 -15.561000
v -10.182000 -13.522000 -14.218000
v -10.182000 -12.260000 -14.218000
v -9.682000 -13.857000 -14.218000
v -9.682000 -11.926000 -14.218000
v -9.182000 -13.941000 -14.218000
v -9.182000 -11.908000 -14.218000
v -8.682000 -13.815000 -14.218000
v -8.682000 -12.184000 -14.218000
v -8.330000 -16.622000 -17.718000
v -5.907000 -16.622000 -17.718000
v -8.679000 -16.622000 -17.218000
v -5.551000 -16.622000 -17.218000
v -8.790000 -16.622000 -16.718000
v -5.318000 -16.622000 -16.718000
v -8.833000 -16.622000 -16.218000
v -5.118000 -16.622000 -16.218000
v -8.853000 -16.622000 -15.718000
v -5.027000 -16.622000 -15.718000
v -8.731000 -16.622000 -15.218000
v -5.125000 -16.622000 -15.218000
v -8.344000 -16.622000 -14.718000
v -5.469000 -16.622000 -14.718000
v -10.312000 -12.622000 -16.218000
v -7.925000 -12.622000 -16.218000
v -10.668000 -12.622000 -15.718000
v -7.672000 -12.622000 -15.718000
v -10.772000 -12.622000 -15.218000
v -7.785000 -12.622000 -15.218000
v -10.688000 -12.622000 -14.718000
v -8.057000 -12.622000 -14.718000
v -10.368000 -12.622000 -14.218000
v -8.429000 -12.622000 -14.218000
v -8.682000 -16.622000 -17.211000
v -8.682000 -16.622000 -15.125000
v -8.182000 -16.622000 -17.838000
v -8.182000 -16.622000 -14.599000
v -7.682000 -16.622000 -18.055000
v -7.682000 -16.622000 -14.406000
v -7.182000 -16.622000 -18.118000
v -7.182000 -16.622000 -14.391000
v -6.682000 -16.622000 -18.119000
v -6.682000 -16.622000 -14.375000
v -6.182000 -16.622000 -17.938000
v -6.182000 -16.622000 -14.373000
v -5.682000 -16.622000 -17.430000
v -5.682000 -16.622000 -14.557000
v -5.182000 -16.622000 -16.382000
v -5.182000 -16.622000 -15.093000
v -10.682000 -12.622000 -15.681000
v -10.682000 -12.622000 -14.703000
v -10.182000 -12.622000 -16.320000
v -10.182000 -12.622000 -14.063000
v -9.682000 -12.622000 -16.537000
v -9.682000 -12.622000 -13.848000
v -9.182000 -12.622000 -16.590000
v -9.182000 -12.622000 -13.835000
v -8.682000 -12.622000 -16.498000
v -8.682000 -12.622000 -14.019000
v -8.182000 -12.622000 -16.365000
v -8.182000 -12.622000 -14.530000
v -7.682000 -12.622000 -15.800000
v -7.682000 -12.622000 -15.541000
v -8.682000 -15.990000 -17.718000
v -8.682000 -14.569000 -17.718000
v -8.182000 -16.922000 -17.718000
v -8.182000 -14.306000 -17.718000
v -7.682000 -17.566000 -17.718000
v -7.682000 -14.367000 -17.718000
v -7.182000 -17.898000 -17.718000
v -7.182000 -14.640000 -17.718000
v -6.682000 -17.919000 -17.718000
v -6.682000 -15.370000 -17.718000
v -6.182000 -17.658000 -17.718000
v -6.182000 -15.800000 -17.718000
v -8.568000 -16.122000 -17.718000
v -6.010000 -16.122000 -17.718000
v -8.970000 -16.122000 -17.218000
v -5.476000 -16.122000 -17.218000
v -9.088000 -16.122000 -16.718000
v -5.125000 -16.122000 -16.718000
v -9.191000 -16.122000 -16.218000
v -5.022000 -16.122000 -16.218000
v -9.188000 -16.122000 -15.718000
v -5.016000 -16.122000 -15.718000
v -9.068000 -16.122000 -15.218000
v -5.113000 -16.122000 -15.218000
v -8.624000 -16.122000 -14.718000
v -5.453000 -16.122000 -14.718000
v -9.959000 -12.122000 -16.218000
v -8.838000 -12.122000 -16.218000
v -10.443000 -12.122000 -15.718000
v -8.349000 -12.122000 -15.718000
v -10.568000 -12.122000 -15.218000
v -8.229000 -12.122000 -15.218000
v -10.468000 -12.122000 -14.718000
v -8.329000 -12.122000 -14.718000
v -10.047000 -12.122000 -14.218000
v -8.750000 -12.122000 -14.218000
v -9.182000 -16.122000 -16.348000
v -9.182000 -16.122000 -15.629000
v -8.682000 -16.122000 -17.620000
v -8.682000 -16.122000 -14.759000
v -8.182000 -16.122000 -17.940000
v -8.182000 -16.122000 -14.504000
v -7.682000 -16.122000 -18.075000
v -7.682000 -16.122000 -14.335000
v -7.182000 -16.122000 -18.078000
v -7.182000 -16.122000 -14.330000
v -6.682000 -16.122000 -18.026000
v -6.682000 -16.122000 -14.351000
v -6.182000 -16.122000 -17.843000
v -6.182000 -16.122000 -14.362000
v -5.682000 -16.122000 -17.406000
v -5.682000 -16.122000 -14.544000
v -5.182000 -16.122000 -16.841000
v -5.182000 -16.122000 -15.069000
v -10.182000 -12.122000 -16.060000
v -10.182000 -12.122000 -14.324000
v -9.682000 -12.122000 -16.327000
v -9.682000 -12.122000 -14.057000
v -9.182000 -12.122000 -16.341000
v -9.182000 -12.122000 -14.042000
v -8.682000 -12.122000 -16.117000
v -8.682000 -12.122000 -14.267000
v -9.682000 -14.970000 -17.218000
v -9.682000 -13.835000 -17.218000
v -9.182000 -15.704000 -17.218000
v -9.182000 -13.479000 -17.218000
v -8.682000 -16.613000 -17.218000
v -8.682000 -13.369000 -17.218000
v -8.182000 -17.404000 -17.218000
v -8.182000 -13.371000 -17.218000
v -7.682000 -17.976000 -17.218000
v -7.682000 -13.677000 -17.218000
v -7.182000 -18.207000 -17.218000
v -7.182000 -13.985000 -17.218000
v -6.682000 -18.223000 -17.218000
v -6.682000 -14.254000 -17.218000
v -6.182000 -18.035000 -17.218000
v -6.182000 -14.415000 -17.218000
v -5.682000 -17.460000 -17.218000
v -5.682000 -14.782000 -17.218000
v -8.871000 -15.622000 -17.718000
v -6.338000 -15.622000 -17.718000
v -9.221000 -15.622000 -17.218000
v -5.482000 -15.622000 -17.218000
v -9.534000 -15.622000 -16.718000
v -5.131000 -15.622000 -16.718000
v -9.653000 -15.622000 -16.218000
v -5.028000 -15.622000 -16.218000
v -9.572000 -15.622000 -15.718000
v -5.113000 -15.622000 -15.718000
v -9.448000 -15.622000 -15.218000
v -5.299000 -15.622000 -15.218000
v -9.004000 -15.622000 -14.718000
v -5.747000 -15.622000 -14.718000
v -9.666000 -11.622000 -15.718000
v -9.131000 -11.622000 -15.718000
v -9.989000 -11.622000 -15.218000
v -8.809000 -11.622000 -15.218000
v -9.752000 -11.622000 -14.718000
v -9.045000 -11.622000 -14.718000
v -9.182000 -15.622000 -17.284000
v -9.182000 -15.622000 -14.858000
v -8.682000 -15.622000 -17.877000
v -8.682000 -15.622000 -14.537000
v -8.182000 -15.622000 -18.094000
v -8.182000 -15.622000 -14.373000
v -7.682000 -15.622000 -18.108000
v -7.682000 -15.622000 -14.330000
v -7.182000 -15.622000 -17.987000
v -7.182000 -15.622000 -14.334000
v -6.682000 -15.622000 -17.829000
v -6.682000 -15.622000 -14.384000
v -6.182000 -15.622000 -17.653000
v -6.182000 -15.622000 -14.532000
v -5.682000 -15.622000 -17.370000
v -5.682000 -15.622000 -14.763000
v -5.182000 -15.622000 -16.830000
v -5.182000 -15.622000 -15.493000
v -9.682000 -11.622000 -15.710000
v -9.682000 -11.622000 -14.674000
v -9.182000 -11.622000 -15.741000
v -9.182000 -11.622000 -14.642000
v -10.182000 -14.642000 -16.718000
v -10.182000 -14.162000 -16.718000
v -9.682000 -15.454000 -16.718000
v -9.682000 -13.128000 -16.718000
v -9.182000 -16.012000 -16.718000
v -9.182000 -12.834000 -16.718000
v -8.682000 -16.900000 -16.718000
v -8.682000 -12.870000 -16.718000
v -8.182000 -17.537000 -16.718000
v -8.182000 -12.919000 -16.718000
v -7.682000 -18.068000 -16.718000
v -7.682000 -13.194000 -16.718000
v -7.182000 -18.283000 -16.718000
v -7.182000 -13.590000 -16.718000
v -6.682000 -18.299000 -16.718000
v -6.682000 -13.841000 -16.718000
v -6.182000 -18.122000 -16.718000
v -6.182000 -14.062000 -16.718000
v -5.682000 -17.622000 -16.718000
v -5.682000 -14.295000 -16.718000
v -5.182000 -16.332000 -16.718000
v -5.182000 -15.142000 -16.718000
v -8.896000 -15.122000 -17.718000
v -6.832000 -15.122000 -17.718000
v -9.550000 -15.122000 -17.218000
v -5.533000 -15.122000 -17.218000
v -9.988000 -15.122000 -16.718000
v -5.186000 -15.122000 -16.718000
v -10.104000 -15.122000 -16.218000
v -5.084000 -15.122000 -16.218000
v -10.001000 -15.122000 -15.718000
v -5.170000 -15.122000 -15.718000
v -9.691000 -15.122000 -15.218000
v -5.489000 -15.122000 -15.218000
v -9.332000 -15.122000 -14.718000
v -6.337000 -15.122000 -14.718000
v -9.682000 -15.122000 -17.117000
v -9.682000 -15.122000 -15.204000
v -9.182000 -15.122000 -17.496000
v -9.182000 -15.122000 -14.596000
v -8.682000 -15.122000 -17.884000
v -8.682000 -15.122000 -14.377000
v -8.182000 -15.122000 -18.100000
v -8.182000 -15.122000 -14.348000
v -7.682000 -15.122000 -18.113000
v -7.682000 -15.122000 -14.355000
v -7.182000 -15.122000 -17.931000
v -7.182000 -15.122000 -14.463000
v -6.682000 -15.122000 -17.657000
v -6.682000 -15.122000 -14.590000
v -6.182000 -15.122000 -17.553000
v -6.182000 -15.122000 -14.792000
v -5.682000 -15.122000 -17.338000
v -5.682000 -15.122000 -15.052000
v -5.182000 -15.122000 -16.711000
v -5.182000 -15.122000 -15.686000
v -10.182000 -14.970000 -16.218000
v -10.182000 -12.351000 -16.218000
v -9.682000 -15.590000 -16.218000
v -9.682000 -11.983000 -16.218000
v -9.182000 -16.132000 -16.218000
v -9.182000 -11.964000 -16.218000
v -8.682000 -16.979000 -16.218000
v -8.682000 -12.251000 -16.218000
v -8.182000 -17.576000 -16.218000
v -8.182000 -12.530000 -16.218000
v -7.682000 -18.020000 -16.218000
v -7.682000 -12.746000 -16.218000
v -7.182000 -18.219000 -16.218000
v -7.182000 -13.287000 -16.218000
v -6.682000 -18.224000 -16.218000
v -6.682000 -13.722000 -16.218000
v -6.182000 -18.033000 -16.218000
v -6.182000 -13.958000 -16.218000
v -5.682000 -17.550000 -16.218000
v -5.682000 -14.172000 -16.218000
v -5.182000 -16.832000 -16.218000
v -5.182000 -14.777000 -16.218000
v -8.731000 -14.622000 -17.718000
v -7.201000 -14.622000 -17.718000
v -9.842000 -14.622000 -17.218000
v -5.823000 -14.622000 -17.218000
v -10.186000 -14.622000 -16.718000
v -5.379000 -14.622000 -16.718000
v -10.286000 -14.622000 -16.218000
v -5.261000 -14.622000 -16.218000
v -10.200000 -14.622000 -15.718000
v -5.360000 -14.622000 -15.718000
v -9.988000 -14.622000 -15.218000
v -5.762000 -14.622000 -15.218000
v -9.534000 -14.622000 -14.718000
v -6.960000 -14.622000 -14.718000
v -10.182000 -14.622000 -16.727000
v -10.182000 -14.622000 -15.665000
v -9.682000 -14.622000 -17.345000
v -9.682000 -14.622000 -14.836000
v -9.182000 -14.622000 -17.567000
v -9.182000 -14.622000 -14.507000
v -8.682000 -14.622000 -17.735000
v -8.682000 -14.622000 -14.347000
v -8.182000 -14.622000 -17.907000
v -8.182000 -14.622000 -14.338000
v -7.682000 -14.622000 -17.923000
v -7.682000 -14.622000 -14.370000
v -7.182000 -14.622000 -17.705000
v -7.182000 -14.622000 -14.565000
v -6.682000 -14.622000 -17.451000
v -6.682000 -14.622000 -14.877000
v -6.182000 -14.622000 -17.371000
v -6.182000 -14.622000 -15.025000
v -5.682000 -14.622000 -17.115000
v -5.682000 -14.622000 -15.281000
v -10.182000 -14.698000 -15.718000
v -10.182000 -11.858000 -15.718000
v -9.682000 -15.494000 -15.718000
v -9.682000 -11.626000 -15.718000
v -9.182000 -16.131000 -15.718000
v -9.182000 -11.612000 -15.718000
v -8.682000 -17.018000 -15.718000
v -8.682000 -11.810000 -15.718000
v -8.182000 -17.551000 -15.718000
v -8.182000 -12.285000 -15.718000
v -7.682000 -17.895000 -15.718000
v -7.682000 -12.616000 -15.718000
v -7.182000 -18.114000 -15.718000
v -7.182000 -13.115000 -15.718000
v -6.682000 -18.116000 -15.718000
v -6.682000 -13.766000 -15.718000
v -6.182000 -17.905000 -15.718000
v -6.182000 -14.040000 -15.718000
v -5.682000 -17.546000 -15.718000
v -5.682000 -14.276000 -15.718000
v -5.182000 -17.035000 -15.718000
v -5.182000 -15.055000 -15.718000
v -7.435000 -18.122000 -17.218000
v -6.344000 -18.122000 -17.218000
v -7.597000 -18.122000 -16.718000
v -6.183000 -18.122000 -16.718000
v -7.494000 -18.122000 -16.218000
v -6.349000 -18.122000 -16.218000
v -9.826000 -14.122000 -17.218000
v -6.877000 -14.122000 -17.218000
v -10.174000 -14.122000 -16.718000
v -5.990000 -14.122000 -16.718000
v -10.291000 -14.122000 -16.218000
v -5.762000 -14.122000 -16.218000
v -10.323000 -14.122000 -15.718000
v -5.949000 -14.122000 -15.718000
v -10.260000 -14.122000 -15.218000
v -6.662000 -14.122000 -15.218000
v -9.994000 -14.122000 -14.718000
v -7.254000 -14.122000 -14.718000
v -7.182000 -18.122000 -17.411000
v -7.182000 -18.122000 -15.739000
v -6.682000 -18.122000 -17.444000
v -6.682000 -18.122000 -15.732000
v -10.182000 -14.122000 -16.698000
v -10.182000 -14.122000 -15.006000
v -9.682000 -14.122000 -17.332000
v -9.682000 -14.122000 -14.482000
v -9.182000 -14.122000 -17.546000
v -9.182000 -14.122000 -14.318000
v -8.682000 -14.122000 -17.605000
v -8.682000 -14.122000 -14.290000
v -8.182000 -14.122000 -17.632000
v -8.182000 -14.122000 -14.317000
v -7.682000 -14.122000 -17.508000
v -7.682000 -14.122000 -14.456000
v -7.182000 -14.122000 -17.328000
v -7.182000 -14.122000 -14.782000
v -6.682000 -14.122000 -17.104000
v -6.682000 -14.122000 -15.204000
v -6.182000 -14.122000 -16.845000
v -6.182000 -14.122000 -15.541000
v -10.682000 -13.449000 -15.218000
v -10.682000 -12.333000 -15.218000
v -10.182000 -14.268000 -15.218000
v -10.182000 -11.732000 -15.218000
v -9.682000 -15.144000 -15.218000
v -9.682000 -11.521000 -15.218000
v -9.182000 -15.941000 -15.218000
v -9.182000 -11.508000 -15.218000
v -8.682000 -16.738000 -15.218000
v -8.682000 -11.689000 -15.218000
v -8.182000 -17.421000 -15.218000
v -8.182000 -12.191000 -15.218000
v -7.682000 -17.632000 -15.218000
v -7.682000 -12.701000 -15.218000
v -7.182000 -17.758000 -15.218000
v -7.182000 -13.276000 -15.218000
v -6.682000 -17.762000 -15.218000
v -6.682000 -14.104000 -15.218000
v -6.182000 -17.635000 -15.218000
v -6.182000 -14.372000 -15.218000
v -5.682000 -17.432000 -15.218000
v -5.682000 -14.712000 -15.218000
v -5.182000 -16.813000 -15.218000
v -5.182000 -15.870000 -15.218000
f 110 93 49
f 174 153 110
f 110 153 93
f 174 50 153
f 36 23 51
f 95 110 49
f 95 49 23
f 125 95 23
f 36 125 23
f 110 95 155
f 110 155 174
f 126 242 219
f 126 219 50
f 155 126 50
f 174 155 50
f 242 52 219
f 468 459 53
f 25 36 51
f 25 51 459
f 127 25 459
f 468 127 459
f 125 36 25
f 221 242 126
f 128 306 285
f 128 285 52
f 221 128 52
f 242 221 52
f 306 54 285
f 348 343 55
f 406 399 348
f 348 399 343
f 399 406 53
f 406 468 53
f 406 470 468
f 127 468 470
f 127 470 129
f 130 308 306
f 130 306 128
f 54 306 56
f 56 306 308
f 290 279 57
f 279 290 55
f 290 348 55
f 290 350 348
f 408 348 350
f 406 348 408
f 472 406 408
f 470 406 472
f 129 470 472
f 129 472 131
f 222 132 248
f 308 130 222
f 308 222 248
f 286 308 248
f 58 286 248
f 56 308 286
f 160 145 59
f 228 211 160
f 160 211 145
f 211 228 57
f 228 290 57
f 228 292 290
f 352 290 292
f 350 290 352
f 410 350 352
f 408 350 410
f 474 408 410
f 472 408 474
f 44 26 131
f 472 44 131
f 474 44 472
f 26 44 120
f 26 120 96
f 96 120 184
f 96 184 156
f 248 132 156
f 248 156 184
f 220 248 184
f 60 220 184
f 58 248 220
f 100 83 61
f 83 100 59
f 100 160 59
f 100 162 160
f 230 160 162
f 228 160 230
f 294 228 230
f 292 228 294
f 354 292 294
f 352 292 354
f 412 352 354
f 410 352 412
f 476 410 412
f 474 410 476
f 46 474 476
f 44 474 46
f 122 44 46
f 120 44 122
f 154 184 62
f 184 122 62
f 184 120 122
f 60 184 154
f 63 102 61
f 61 102 100
f 164 100 102
f 162 100 164
f 232 162 164
f 230 162 232
f 296 230 232
f 294 230 296
f 356 294 296
f 354 294 356
f 414 354 356
f 412 354 414
f 460 476 64
f 476 414 64
f 476 412 414
f 24 46 460
f 460 46 476
f 94 122 24
f 24 122 46
f 62 122 94
f 65 104 63
f 63 104 102
f 166 102 104
f 164 102 166
f 234 164 166
f 232 164 234
f 298 232 234
f 296 232 298
f 358 296 298
f 356 296 358
f 400 414 66
f 414 358 66
f 414 356 358
f 64 414 400
f 67 106 65
f 65 106 104
f 168 104 106
f 166 104 168
f 236 166 168
f 234 166 236
f 300 234 236
f 298 234 300
f 344 358 68
f 358 300 68
f 358 298 300
f 66 358 344
f 84 106 67
f 69 170 84
f 170 106 84
f 170 168 106
f 238 168 170
f 236 168 238
f 280 300 70
f 300 238 70
f 300 236 238
f 68 300 280
f 146 170 69
f 212 238 146
f 146 238 170
f 70 238 212
f 187 267 289
f 289 267 349
f 349 267 331
f 349 331 407
f 407 331 387
f 387 188 407
f 189 133 159
f 159 133 227
f 227 133 199
f 187 289 199
f 289 227 199
f 289 291 227
f 289 351 291
f 289 349 351
f 349 409 351
f 349 407 409
f 407 188 409
f 409 188 190
f 191 71 99
f 189 159 71
f 159 99 71
f 159 161 99
f 159 229 161
f 159 227 229
f 227 293 229
f 227 291 293
f 291 353 293
f 291 351 353
f 351 411 353
f 351 409 411
f 409 190 411
f 411 190 192
f 193 1 29
f 191 99 1
f 99 29 1
f 99 101 29
f 99 163 101
f 99 161 163
f 161 231 163
f 161 229 231
f 229 295 231
f 229 293 295
f 293 355 295
f 293 353 355
f 194 355 388
f 355 411 388
f 355 353 411
f 411 192 388
f 31 195 29
f 29 195 193
f 29 103 31
f 29 101 103
f 101 165 103
f 101 163 165
f 163 233 165
f 163 231 233
f 231 297 233
f 231 295 297
f 196 297 332
f 297 355 332
f 297 295 355
f 355 194 332
f 33 197 31
f 31 197 195
f 31 105 33
f 31 103 105
f 103 167 105
f 103 165 167
f 165 235 167
f 165 233 235
f 198 235 268
f 235 297 268
f 235 233 297
f 297 196 268
f 33 2 197
f 2 33 72
f 72 33 105
f 72 105 134
f 134 105 167
f 134 167 200
f 200 167 235
f 235 198 200
f 112 95 125
f 176 155 112
f 112 155 95
f 176 126 155
f 38 25 127
f 25 38 125
f 38 112 125
f 38 114 112
f 178 112 114
f 176 112 178
f 126 176 221
f 176 244 221
f 176 178 244
f 244 128 221
f 129 40 127
f 127 40 38
f 116 38 40
f 114 38 116
f 180 114 116
f 178 114 180
f 246 178 180
f 244 178 246
f 128 244 130
f 130 244 246
f 131 42 129
f 129 42 40
f 118 40 42
f 116 40 118
f 182 116 118
f 180 116 182
f 222 246 132
f 246 182 132
f 246 180 182
f 130 246 222
f 26 42 131
f 96 118 26
f 26 118 42
f 156 182 96
f 96 182 118
f 132 182 156
f 249 389 403
f 403 389 467
f 467 389 449
f 449 250 467
f 251 269 287
f 287 269 347
f 347 269 333
f 249 403 333
f 403 347 333
f 403 405 347
f 403 469 405
f 403 467 469
f 13 39 250
f 39 467 250
f 39 469 467
f 13 252 39
f 253 201 225
f 251 287 201
f 201 287 225
f 287 267 225
f 267 187 225
f 347 331 267
f 347 267 287
f 405 387 331
f 405 331 347
f 471 188 387
f 405 471 387
f 469 471 405
f 469 41 471
f 469 39 41
f 39 252 41
f 41 252 254
f 255 73 97
f 97 73 189
f 73 133 189
f 73 135 133
f 135 253 225
f 199 135 225
f 133 135 199
f 225 187 199
f 473 190 188
f 473 188 471
f 471 43 473
f 471 41 43
f 41 254 43
f 43 254 256
f 257 3 27
f 255 97 3
f 3 97 27
f 97 71 27
f 71 191 27
f 97 189 71
f 475 192 190
f 475 190 473
f 258 475 14
f 475 43 14
f 475 473 43
f 43 256 14
f 259 443 461
f 257 27 443
f 443 27 461
f 27 1 461
f 1 193 461
f 27 191 1
f 388 413 194
f 413 388 192
f 475 413 192
f 477 413 475
f 475 258 477
f 477 258 260
f 463 261 461
f 461 261 259
f 461 193 195
f 461 195 463
f 332 357 196
f 357 332 194
f 413 357 194
f 415 357 413
f 262 415 450
f 415 477 450
f 415 413 477
f 477 260 450
f 463 444 261
f 263 444 463
f 195 263 463
f 197 263 195
f 268 299 198
f 299 268 196
f 357 299 196
f 359 299 357
f 357 417 359
f 357 415 417
f 415 262 417
f 417 262 264
f 197 2 263
f 263 2 4
f 72 107 265
f 4 72 265
f 2 72 4
f 134 169 107
f 134 107 72
f 200 237 169
f 200 169 134
f 237 200 198
f 299 237 198
f 301 237 299
f 299 361 301
f 299 359 361
f 266 361 390
f 361 417 390
f 361 359 417
f 417 264 390
f 107 74 265
f 74 107 136
f 136 107 169
f 136 169 202
f 202 169 237
f 202 237 270
f 270 237 301
f 270 301 334
f 334 301 361
f 361 266 334
f 309 391 401
f 391 310 401
f 311 335 345
f 309 401 335
f 335 401 345
f 401 389 345
f 389 249 345
f 389 401 310
f 451 389 310
f 449 389 451
f 250 449 37
f 449 15 37
f 449 451 15
f 15 312 37
f 313 271 251
f 251 271 269
f 271 311 345
f 333 271 345
f 269 271 333
f 345 249 333
f 37 13 250
f 312 85 115
f 312 115 252
f 37 312 252
f 13 37 252
f 85 314 115
f 315 137 157
f 157 137 253
f 137 201 253
f 137 203 201
f 251 201 203
f 251 203 313
f 117 254 252
f 117 252 115
f 115 314 117
f 117 314 316
f 317 75 255
f 255 75 73
f 75 315 157
f 135 75 157
f 73 75 135
f 157 253 135
f 119 256 254
f 119 254 117
f 117 316 119
f 119 316 318
f 319 5 257
f 257 5 3
f 255 3 5
f 255 5 317
f 14 45 258
f 119 86 256
f 256 86 14
f 86 320 14
f 320 45 14
f 119 318 86
f 321 445 259
f 259 445 443
f 257 443 445
f 257 445 319
f 47 260 258
f 47 258 45
f 45 320 47
f 47 320 322
f 323 259 261
f 323 321 259
f 450 479 262
f 47 16 260
f 260 16 450
f 16 324 450
f 324 479 450
f 47 322 16
f 261 444 323
f 323 444 446
f 325 446 444
f 325 444 263
f 481 264 262
f 481 262 479
f 479 324 481
f 481 324 326
f 263 4 325
f 325 4 6
f 327 6 4
f 327 4 265
f 390 419 266
f 481 452 264
f 264 452 390
f 452 328 390
f 328 419 390
f 481 326 452
f 265 74 327
f 327 74 76
f 136 76 74
f 136 138 76
f 202 239 329
f 138 202 329
f 136 202 138
f 270 303 239
f 270 239 202
f 336 330 303
f 270 336 303
f 334 336 270
f 419 392 266
f 392 334 266
f 392 336 334
f 419 328 392
f 239 204 329
f 204 239 272
f 272 239 303
f 303 330 272
f 365 393 309
f 309 393 391
f 310 391 465
f 391 453 465
f 391 393 453
f 465 453 35
f 35 453 17
f 35 17 111
f 111 17 87
f 111 87 175
f 175 87 147
f 147 366 175
f 367 337 311
f 311 337 335
f 309 335 337
f 309 337 365
f 465 451 310
f 35 15 451
f 35 451 465
f 113 312 15
f 35 113 15
f 111 113 35
f 111 177 113
f 111 175 177
f 213 243 366
f 243 175 366
f 243 177 175
f 213 368 243
f 369 205 223
f 223 205 313
f 205 271 313
f 205 273 271
f 311 271 273
f 311 273 367
f 113 85 312
f 179 314 85
f 113 179 85
f 177 179 113
f 177 245 179
f 177 243 245
f 243 368 245
f 245 368 370
f 371 139 315
f 315 139 137
f 139 369 223
f 203 139 223
f 137 139 203
f 223 313 203
f 181 316 314
f 181 314 179
f 372 181 214
f 181 245 214
f 181 179 245
f 245 370 214
f 373 77 317
f 317 77 75
f 315 75 77
f 315 77 371
f 183 318 316
f 183 316 181
f 181 372 183
f 183 372 374
f 375 7 319
f 319 7 5
f 317 5 7
f 317 7 373
f 86 121 320
f 183 148 318
f 318 148 86
f 148 376 86
f 376 121 86
f 183 374 148
f 377 447 321
f 321 447 445
f 319 445 447
f 319 447 375
f 320 121 88
f 378 320 88
f 322 320 378
f 121 376 88
f 379 321 323
f 379 377 321
f 18 380 324
f 18 324 16
f 16 322 18
f 18 322 378
f 323 446 379
f 379 446 448
f 381 448 446
f 381 446 325
f 324 382 326
f 380 382 324
f 325 6 381
f 381 6 8
f 383 8 6
f 383 6 327
f 454 384 328
f 454 328 452
f 452 326 454
f 454 326 382
f 327 76 383
f 383 76 78
f 138 171 385
f 78 138 385
f 76 138 78
f 329 171 138
f 336 363 330
f 394 386 363
f 336 394 363
f 392 394 336
f 392 328 394
f 394 328 384
f 171 140 385
f 329 204 171
f 204 140 171
f 204 206 140
f 272 206 204
f 272 274 206
f 363 338 330
f 338 272 330
f 338 274 272
f 363 386 338
f 421 395 365
f 365 395 393
f 395 453 393
f 455 453 395
f 455 17 453
f 19 17 455
f 19 87 17
f 89 87 19
f 89 147 87
f 149 147 89
f 366 147 241
f 147 215 241
f 147 149 215
f 215 422 241
f 423 339 367
f 367 339 337
f 365 337 339
f 365 339 421
f 241 213 366
f 241 422 213
f 422 368 213
f 422 424 368
f 425 207 369
f 369 207 205
f 207 273 205
f 275 273 207
f 367 273 275
f 367 275 423
f 424 281 307
f 370 424 307
f 368 424 370
f 281 426 307
f 427 141 371
f 371 141 139
f 369 139 141
f 369 141 425
f 214 247 372
f 307 282 370
f 370 282 214
f 282 428 214
f 428 247 214
f 307 426 282
f 429 79 373
f 373 79 77
f 371 77 79
f 371 79 427
f 372 247 216
f 430 372 216
f 374 372 430
f 247 428 216
f 431 9 375
f 375 9 7
f 373 7 9
f 373 9 429
f 148 185 376
f 148 374 185
f 374 432 185
f 374 430 432
f 462 447 377
f 375 447 462
f 433 375 462
f 431 375 433
f 88 123 378
f 185 150 376
f 376 150 88
f 150 434 88
f 434 123 88
f 185 432 150
f 379 464 377
f 377 464 462
f 433 462 464
f 433 464 435
f 20 436 380
f 20 380 18
f 123 90 378
f 90 18 378
f 90 20 18
f 123 434 90
f 448 464 379
f 435 464 448
f 381 435 448
f 437 435 381
f 380 438 382
f 436 438 380
f 381 8 437
f 437 8 10
f 439 10 8
f 439 8 383
f 456 440 384
f 456 384 454
f 454 382 456
f 456 382 438
f 383 78 439
f 439 78 80
f 441 80 78
f 441 78 385
f 396 442 386
f 396 386 394
f 394 384 396
f 396 384 440
f 385 140 441
f 441 140 142
f 206 142 140
f 206 208 142
f 274 208 206
f 274 276 208
f 338 276 274
f 338 340 276
f 338 386 340
f 340 386 442
f 483 91 109
f 109 91 173
f 173 91 151
f 151 484 173
f 402 395 421
f 485 457 402
f 457 395 402
f 457 455 395
f 457 19 455
f 21 19 457
f 21 483 109
f 89 21 109
f 19 21 89
f 173 149 89
f 173 89 109
f 149 173 484
f 217 149 484
f 215 149 217
f 217 486 215
f 215 486 422
f 487 341 423
f 423 341 339
f 397 402 421
f 339 397 421
f 341 397 339
f 485 402 397
f 486 283 305
f 424 486 305
f 422 486 424
f 283 488 305
f 224 207 425
f 489 277 224
f 277 207 224
f 277 275 207
f 423 275 277
f 423 277 487
f 305 281 424
f 305 488 281
f 488 426 281
f 488 490 426
f 491 143 427
f 427 143 141
f 209 224 425
f 141 209 425
f 143 209 141
f 489 224 209
f 284 492 428
f 284 428 282
f 282 426 284
f 284 426 490
f 493 81 429
f 429 81 79
f 427 79 81
f 427 81 491
f 218 494 430
f 218 430 216
f 216 428 218
f 218 428 492
f 495 11 431
f 431 11 9
f 429 9 11
f 429 11 493
f 152 496 186
f 186 432 152
f 432 494 152
f 432 430 494
f 497 431 433
f 497 495 431
f 92 498 124
f 186 496 92
f 186 92 124
f 150 186 124
f 434 150 124
f 432 186 150
f 499 433 435
f 499 497 433
f 22 500 436
f 22 436 20
f 498 22 124
f 22 90 124
f 22 20 90
f 434 124 90
f 501 435 437
f 501 499 435
f 458 502 482
f 482 438 458
f 438 500 458
f 438 436 500
f 437 10 501
f 501 10 12
f 503 12 10
f 503 10 439
f 398 504 420
f 482 502 398
f 482 398 420
f 456 482 420
f 440 456 420
f 438 482 456
f 439 80 503
f 503 80 82
f 505 82 80
f 505 80 441
f 278 506 304
f 278 304 364
f 278 364 342
f 420 504 342
f 420 342 364
f 396 420 364
f 442 396 364
f 440 420 396
f 441 142 505
f 505 142 144
f 208 144 142
f 208 210 144
f 506 210 304
f 210 276 304
f 210 208 276
f 340 364 276
f 276 364 304
f 442 364 340
f 49 93 483
f 483 93 91
f 93 151 91
f 153 151 93
f 153 50 151
f 151 50 484
f 466 457 485
f 51 23 466
f 23 457 466
f 23 21 457
f 483 21 23
f 483 23 49
f 217 484 50
f 217 50 219
f 219 52 217
f 217 52 486
f 346 341 487
f 404 397 346
f 346 397 341
f 459 466 485
f 459 485 397
f 53 459 397
f 404 53 397
f 51 466 459
f 283 486 52
f 283 52 285
f 285 54 283
f 283 54 488
f 288 277 489
f 343 346 487
f 343 487 277
f 55 343 277
f 288 55 277
f 346 343 399
f 346 399 404
f 53 404 399
f 488 56 490
f 54 56 488
f 158 143 491
f 226 209 158
f 158 209 143
f 279 288 489
f 279 489 209
f 57 279 209
f 226 57 209
f 55 288 279
f 286 58 492
f 286 492 284
f 284 490 286
f 286 490 56
f 98 81 493
f 145 158 491
f 145 491 81
f 59 145 81
f 98 59 81
f 158 145 211
f 158 211 226
f 57 226 211
f 220 60 494
f 220 494 218
f 218 492 220
f 220 492 58
f 28 11 495
f 83 98 493
f 83 493 11
f 61 83 11
f 28 61 11
f 59 98 83
f 154 62 496
f 154 496 152
f 152 494 154
f 154 494 60
f 497 30 495
f 495 30 28
f 61 28 30
f 61 30 63
f 460 64 478
f 460 478 48
f 460 48 24
f 24 48 498
f 92 24 498
f 94 24 92
f 92 496 94
f 94 496 62
f 499 32 497
f 497 32 30
f 63 30 32
f 63 32 65
f 400 66 416
f 478 64 400
f 416 478 400
f 480 478 416
f 22 48 500
f 48 480 500
f 48 478 480
f 498 48 22
f 501 34 499
f 499 34 32
f 65 32 34
f 65 34 67
f 344 68 360
f 416 66 344
f 360 416 344
f 418 416 360
f 458 480 502
f 480 418 502
f 480 416 418
f 500 480 458
f 12 34 501
f 84 67 108
f 108 67 503
f 67 34 503
f 34 12 503
f 69 84 108
f 280 70 302
f 360 68 280
f 302 360 280
f 362 360 302
f 398 418 504
f 418 362 504
f 418 360 362
f 502 418 398
f 82 108 503
f 146 69 172
f 172 69 505
f 69 108 505
f 108 82 505
f 146 172 240
f 146 240 212
f 302 70 212
f 302 212 240
f 278 302 240
f 506 278 240
f 342 362 278
f 278 362 302
f 504 362 342
f 144 172 505
f 210 240 144
f 144 240 172
f 506 240 210
