# Converted from NanoShaper .vert/.face
v -13.226000 -5.872000 3.282000
v -12.732000 -5.872000 3.282000
v -13.877000 -5.872000 3.782000
v -12.008000 -5.872000 3.782000
v -14.155000 -5.872000 4.282000
v -11.130000 -5.872000 4.282000
v -14.489000 -5.872000 4.782000
v -10.755000 -5.872000 4.782000
v -14.894000 -5.872000 5.282000
v -10.382000 -5.872000 5.282000
v -15.331000 -5.872000 5.782000
v -10.076000 -5.872000 5.782000
v -15.470000 -5.872000 6.282000
v -9.997000 -5.872000 6.282000
v -15.502000 -5.872000 6.782000
v -10.037000 -5.872000 6.782000
v -15.449000 -5.872000 7.282000
v -10.137000 -5.872000 7.282000
v -15.360000 -5.872000 7.782000
v -10.408000 -5.872000 7.782000
v -15.245000 -5.872000 8.282000
v -10.558000 -5.872000 8.282000
v -15.196000 -5.872000 8.782000
v -10.567000 -5.872000 8.782000
v -15.240000 -5.872000 9.282000
v -10.685000 -5.872000 9.282000
v -15.220000 -5.872000 9.782000
v -11.083000 -5.872000 9.782000
v -15.183000 -5.872000 10.282000
v -12.055000 -5.872000 10.282000
v -15.209000 -5.872000 10.782000
v -12.476000 -5.872000 10.782000
v -15.265000 -5.872000 11.282000
v -12.625000 -5.872000 11.282000
v -15.151000 -5.872000 11.782000
v -12.664000 -5.872000 11.782000
v -14.777000 -5.872000 12.282000
v -12.596000 -5.872000 12.282000
v -14.421000 -5.872000 12.782000
v -12.462000 -5.872000 12.782000
v -14.224000 -5.872000 13.282000
v -12.586000 -5.872000 13.282000
v -15.182000 -5.872000 5.588000
v -15.182000 -5.872000 11.704000
v -14.682000 -5.872000 5.033000
v -14.682000 -5.872000 12.389000
v -14.182000 -5.872000 4.326000
v -14.182000 -5.872000 13.348000
v -13.682000 -5.872000 3.531000
v -13.682000 -5.872000 13.716000
v -13.182000 -5.872000 3.272000
v -13.182000 -5.872000 13.731000
v -12.682000 -5.872000 3.295000
v -12.682000 -5.872000 13.421000
v -12.182000 -5.872000 3.627000
v -12.182000 -5.872000 10.394000
v -11.682000 -5.872000 3.980000
v -11.682000 -5.872000 10.061000
v -11.182000 -5.872000 4.239000
v -11.182000 -5.872000 9.851000
v -10.682000 -5.872000 4.899000
v -10.682000 -5.872000 9.276000
v -10.182000 -5.872000 5.549000
v -10.182000 -5.872000 7.384000
v -15.182000 -5.553000 5.282000
v -15.182000 -4.232000 5.282000
v -14.682000 -6.138000 5.282000
v -14.682000 -3.944000 5.282000
v -14.182000 -7.522000 5.282000
v -14.182000 -3.964000 5.282000
v -13.682000 -8.256000 5.282000
v -13.682000 -4.315000 5.282000
v -13.182000 -8.947000 5.282000
v -13.182000 -4.654000 5.282000
v -12.682000 -9.254000 5.282000
v -12.682000 -4.701000 5.282000
v -12.182000 -9.272000 5.282000
v -12.182000 -4.596000 5.282000
v -11.682000 -8.982000 5.282000
v -11.682000 -4.409000 5.282000
v -11.182000 -8.184000 5.282000
v -11.182000 -4.427000 5.282000
v -10.682000 -6.928000 5.282000
v -10.682000 -4.759000 5.282000
v -15.182000 -6.985000 9.282000
v -15.182000 -5.740000 9.282000
v -14.682000 -7.609000 9.282000
v -14.682000 -5.180000 9.282000
v -14.182000 -8.490000 9.282000
v -14.182000 -4.983000 9.282000
v -13.682000 -9.040000 9.282000
v -13.682000 -4.981000 9.282000
v -13.182000 -9.235000 9.282000
v -13.182000 -4.980000 9.282000
v -12.682000 -9.235000 9.282000
v -12.682000 -4.983000 9.282000
v -12.182000 -9.040000 9.282000
v -12.182000 -5.046000 9.282000
v -11.682000 -8.700000 9.282000
v -11.682000 -5.065000 9.282000
v -11.182000 -8.415000 9.282000
v -11.182000 -5.258000 9.282000
v -10.682000 -7.746000 9.282000
v -10.682000 -5.878000 9.282000
v -14.682000 -7.237000 13.282000
v -14.682000 -6.576000 13.282000
v -14.182000 -7.972000 13.282000
v -14.182000 -5.840000 13.282000
v -13.682000 -8.204000 13.282000
v -13.682000 -5.616000 13.282000
v -13.182000 -8.272000 13.282000
v -13.182000 -5.606000 13.282000
v -12.682000 -8.119000 13.282000
v -12.682000 -5.802000 13.282000
v -12.182000 -7.414000 13.282000
v -12.182000 -6.410000 13.282000
v -13.206000 -9.372000 5.782000
v -11.594000 -9.372000 5.782000
v -13.370000 -9.372000 6.282000
v -11.430000 -9.372000 6.282000
v -13.423000 -9.372000 6.782000
v -11.426000 -9.372000 6.782000
v -13.469000 -9.372000 7.282000
v -11.485000 -9.372000 7.282000
v -13.347000 -9.372000 7.782000
v -11.609000 -9.372000 7.782000
v -12.964000 -9.372000 8.282000
v -12.220000 -9.372000 8.282000
v -13.199000 -5.372000 4.282000
v -12.486000 -5.372000 4.282000
v -14.456000 -5.372000 4.782000
v -11.014000 -5.372000 4.782000
v -15.315000 -5.372000 5.282000
v -10.453000 -5.372000 5.282000
v -15.683000 -5.372000 5.782000
v -10.144000 -5.372000 5.782000
v -15.785000 -5.372000 6.282000
v -10.064000 -5.372000 6.282000
v -15.800000 -5.372000 6.782000
v -10.130000 -5.372000 6.782000
v -15.715000 -5.372000 7.282000
v -10.254000 -5.372000 7.282000
v -15.438000 -5.372000 7.782000
v -10.593000 -5.372000 7.782000
v -15.158000 -5.372000 8.282000
v -10.835000 -5.372000 8.282000
v -14.984000 -5.372000 8.782000
v -10.873000 -5.372000 8.782000
v -14.918000 -5.372000 9.282000
v -11.033000 -5.372000 9.282000
v -14.876000 -5.372000 9.782000
v -11.867000 -5.372000 9.782000
v -14.826000 -5.372000 10.282000
v -12.567000 -5.372000 10.282000
v -14.874000 -5.372000 10.782000
v -12.886000 -5.372000 10.782000
v -14.954000 -5.372000 11.282000
v -12.942000 -5.372000 11.282000
v -14.799000 -5.372000 11.782000
v -13.096000 -5.372000 11.782000
v -14.031000 -5.372000 12.282000
v -13.560000 -5.372000 12.282000
v -13.182000 -9.372000 5.749000
v -13.182000 -9.372000 8.046000
v -12.682000 -9.372000 5.395000
v -12.682000 -9.372000 8.383000
v -12.182000 -9.372000 5.377000
v -12.182000 -9.372000 8.265000
v -11.682000 -9.372000 5.669000
v -11.682000 -9.372000 7.896000
v -15.682000 -5.372000 5.780000
v -15.682000 -5.372000 7.361000
v -15.182000 -5.372000 5.184000
v -15.182000 -5.372000 8.231000
v -14.682000 -5.372000 4.902000
v -14.682000 -5.372000 11.932000
v -14.182000 -5.372000 4.644000
v -14.182000 -5.372000 12.233000
v -13.682000 -5.372000 4.435000
v -13.682000 -5.372000 12.315000
v -13.182000 -5.372000 4.275000
v -13.182000 -5.372000 11.924000
v -12.682000 -5.372000 4.267000
v -12.682000 -5.372000 10.420000
v -12.182000 -5.372000 4.300000
v -12.182000 -5.372000 9.963000
v -11.682000 -5.372000 4.345000
v -11.682000 -5.372000 9.727000
v -11.182000 -5.372000 4.646000
v -11.182000 -5.372000 9.464000
v -10.682000 -5.372000 5.067000
v -10.682000 -5.372000 7.921000
v -10.182000 -5.372000 5.684000
v -10.182000 -5.372000 7.073000
v -15.682000 -5.373000 5.782000
v -15.682000 -4.412000 5.782000
v -15.182000 -5.987000 5.782000
v -15.182000 -3.800000 5.782000
v -14.682000 -6.490000 5.782000
v -14.682000 -3.605000 5.782000
v -14.182000 -7.467000 5.782000
v -14.182000 -3.620000 5.782000
v -13.682000 -8.590000 5.782000
v -13.682000 -3.852000 5.782000
v -13.182000 -9.390000 5.782000
v -13.182000 -4.214000 5.782000
v -12.682000 -9.623000 5.782000
v -12.682000 -4.345000 5.782000
v -12.182000 -9.636000 5.782000
v -12.182000 -4.257000 5.782000
v -11.682000 -9.436000 5.782000
v -11.682000 -4.098000 5.782000
v -11.182000 -8.792000 5.782000
v -11.182000 -4.112000 5.782000
v -10.682000 -7.020000 5.782000
v -10.682000 -4.341000 5.782000
v -10.182000 -6.365000 5.782000
v -10.182000 -5.102000 5.782000
v -15.182000 -7.004000 9.782000
v -15.182000 -5.788000 9.782000
v -14.682000 -7.588000 9.782000
v -14.682000 -5.221000 9.782000
v -14.182000 -8.458000 9.782000
v -14.182000 -5.021000 9.782000
v -13.682000 -9.058000 9.782000
v -13.682000 -5.009000 9.782000
v -13.182000 -9.269000 9.782000
v -13.182000 -5.015000 9.782000
v -12.682000 -9.281000 9.782000
v -12.682000 -5.069000 9.782000
v -12.182000 -9.100000 9.782000
v -12.182000 -5.252000 9.782000
v -11.682000 -8.633000 9.782000
v -11.682000 -5.430000 9.782000
v -11.182000 -8.044000 9.782000
v -11.182000 -5.732000 9.782000
v -14.182000 -7.553000 13.782000
v -14.182000 -6.259000 13.782000
v -13.682000 -7.879000 13.782000
v -13.682000 -5.933000 13.782000
v -13.182000 -7.893000 13.782000
v -13.182000 -5.919000 13.782000
v -12.682000 -7.614000 13.782000
v -12.682000 -6.198000 13.782000
v -13.262000 -8.872000 5.282000
v -11.576000 -8.872000 5.282000
v -13.586000 -8.872000 5.782000
v -11.214000 -8.872000 5.782000
v -13.704000 -8.872000 6.282000
v -11.096000 -8.872000 6.282000
v -13.739000 -8.872000 6.782000
v -11.110000 -8.872000 6.782000
v -13.790000 -8.872000 7.282000
v -11.163000 -8.872000 7.282000
v -13.754000 -8.872000 7.782000
v -11.248000 -8.872000 7.782000
v -13.804000 -8.872000 8.282000
v -11.483000 -8.872000 8.282000
v -13.912000 -8.872000 8.782000
v -11.852000 -8.872000 8.782000
v -13.898000 -8.872000 9.282000
v -11.959000 -8.872000 9.282000
v -13.905000 -8.872000 9.782000
v -11.895000 -8.872000 9.782000
v -13.849000 -8.872000 10.282000
v -11.960000 -8.872000 10.282000
v -13.873000 -8.872000 10.782000
v -11.970000 -8.872000 10.782000
v -13.963000 -8.872000 11.282000
v -11.972000 -8.872000 11.282000
v -13.890000 -8.872000 11.782000
v -11.982000 -8.872000 11.782000
v -13.764000 -8.872000 12.282000
v -12.104000 -8.872000 12.282000
v -15.441000 -4.872000 5.282000
v -10.602000 -4.872000 5.282000
v -15.774000 -4.872000 5.782000
v -10.259000 -4.872000 5.782000
v -15.869000 -4.872000 6.282000
v -10.174000 -4.872000 6.282000
v -15.873000 -4.872000 6.782000
v -10.290000 -4.872000 6.782000
v -15.793000 -4.872000 7.282000
v -10.627000 -4.872000 7.282000
v -15.486000 -4.872000 7.782000
v -11.372000 -4.872000 7.782000
v -14.944000 -4.872000 8.282000
v -13.000000 -4.872000 8.282000
v -14.209000 -4.872000 8.782000
v -13.626000 -4.872000 8.782000
v -13.682000 -8.872000 6.086000
v -13.682000 -8.872000 12.403000
v -13.182000 -8.872000 5.192000
v -13.182000 -8.872000 12.734000
v -12.682000 -8.872000 4.881000
v -12.682000 -8.872000 12.733000
v -12.182000 -8.872000 4.881000
v -12.182000 -8.872000 12.400000
v -11.682000 -8.872000 5.177000
v -11.682000 -8.872000 8.551000
v -11.182000 -8.872000 5.856000
v -11.182000 -8.872000 7.515000
v -15.682000 -4.872000 5.591000
v -15.682000 -4.872000 7.521000
v -15.182000 -4.872000 5.085000
v -15.182000 -4.872000 8.068000
v -14.682000 -4.872000 4.904000
v -14.682000 -4.872000 8.495000
v -14.182000 -4.872000 4.850000
v -14.182000 -4.872000 8.793000
v -13.682000 -4.872000 4.914000
v -13.682000 -4.872000 8.796000
v -13.182000 -4.872000 5.043000
v -13.182000 -4.872000 8.579000
v -12.682000 -4.872000 5.060000
v -12.682000 -4.872000 7.907000
v -12.182000 -4.872000 4.866000
v -12.182000 -4.872000 7.885000
v -11.682000 -4.872000 4.866000
v -11.682000 -4.872000 7.922000
v -11.182000 -4.872000 4.979000
v -11.182000 -4.872000 7.686000
v -10.682000 -4.872000 5.215000
v -10.682000 -4.872000 7.341000
v -10.182000 -4.872000 6.091000
v -10.182000 -4.872000 6.398000
v -15.682000 -5.592000 6.282000
v -15.682000 -4.193000 6.282000
v -15.182000 -6.113000 6.282000
v -15.182000 -3.688000 6.282000
v -14.682000 -6.616000 6.282000
v -14.682000 -3.509000 6.282000
v -14.182000 -7.540000 6.282000
v -14.182000 -3.522000 6.282000
v -13.682000 -8.923000 6.282000
v -13.682000 -3.735000 6.282000
v -13.182000 -9.524000 6.282000
v -13.182000 -4.076000 6.282000
v -12.682000 -9.734000 6.282000
v -12.682000 -4.218000 6.282000
v -12.182000 -9.746000 6.282000
v -12.182000 -4.160000 6.282000
v -11.682000 -9.565000 6.282000
v -11.682000 -4.019000 6.282000
v -11.182000 -9.054000 6.282000
v -11.182000 -4.032000 6.282000
v -10.682000 -7.120000 6.282000
v -10.682000 -4.245000 6.282000
v -10.182000 -6.542000 6.282000
v -10.182000 -4.851000 6.282000
v -15.182000 -6.960000 10.282000
v -15.182000 -5.871000 10.282000
v -14.682000 -7.584000 10.282000
v -14.682000 -5.259000 10.282000
v -14.182000 -8.411000 10.282000
v -14.182000 -5.045000 10.282000
v -13.682000 -9.003000 10.282000
v -13.682000 -5.030000 10.282000
v -13.182000 -9.213000 10.282000
v -13.182000 -5.095000 10.282000
v -12.682000 -9.223000 10.282000
v -12.682000 -5.299000 10.282000
v -12.182000 -9.039000 10.282000
v -12.182000 -5.697000 10.282000
v -11.682000 -8.523000 10.282000
v -11.682000 -6.365000 10.282000
v -13.377000 -8.372000 4.782000
v -11.650000 -8.372000 4.782000
v -13.623000 -8.372000 5.282000
v -11.245000 -8.372000 5.282000
v -13.747000 -8.372000 5.782000
v -11.091000 -8.372000 5.782000
v -13.809000 -8.372000 6.282000
v -11.001000 -8.372000 6.282000
v -13.833000 -8.372000 6.782000
v -11.000000 -8.372000 6.782000
v -13.916000 -8.372000 7.282000
v -10.940000 -8.372000 7.282000
v -13.967000 -8.372000 7.782000
v -10.910000 -8.372000 7.782000
v -14.150000 -8.372000 8.282000
v -10.930000 -8.372000 8.282000
v -14.247000 -8.372000 8.782000
v -10.998000 -8.372000 8.782000
v -14.235000 -8.372000 9.282000
v -11.124000 -8.372000 9.282000
v -14.217000 -8.372000 9.782000
v -11.457000 -8.372000 9.782000
v -14.199000 -8.372000 10.282000
v -11.599000 -8.372000 10.282000
v -14.217000 -8.372000 10.782000
v -11.623000 -8.372000 10.782000
v -14.281000 -8.372000 11.282000
v -11.654000 -8.372000 11.282000
v -14.232000 -8.372000 11.782000
v -11.637000 -8.372000 11.782000
v -14.146000 -8.372000 12.282000
v -11.723000 -8.372000 12.282000
v -13.895000 -8.372000 12.782000
v -12.068000 -8.372000 12.782000
v -15.290000 -4.372000 5.282000
v -13.628000 -4.372000 5.282000
v -15.666000 -4.372000 5.782000
v -10.642000 -4.372000 5.782000
v -15.769000 -4.372000 6.282000
v -10.522000 -4.372000 6.282000
v -15.761000 -4.372000 6.782000
v -10.688000 -4.372000 6.782000
v -15.674000 -4.372000 7.282000
v -13.089000 -4.372000 7.282000
v -15.325000 -4.372000 7.782000
v -13.538000 -4.372000 7.782000
v -14.182000 -8.372000 8.369000
v -14.182000 -8.372000 12.166000
v -13.682000 -8.372000 5.444000
v -13.682000 -8.372000 12.999000
v -13.182000 -8.372000 4.544000
v -13.182000 -8.372000 13.172000
v -12.682000 -8.372000 4.356000
v -12.682000 -8.372000 13.101000
v -12.182000 -8.372000 4.487000
v -12.182000 -8.372000 12.873000
v -11.682000 -8.372000 4.758000
v -11.682000 -8.372000 12.158000
v -11.182000 -8.372000 5.443000
v -11.182000 -8.372000 9.370000
v -15.682000 -4.372000 5.823000
v -15.682000 -4.372000 7.260000
v -15.182000 -4.372000 5.203000
v -15.182000 -4.372000 7.890000
v -14.682000 -4.372000 5.007000
v -14.682000 -4.372000 8.096000
v -14.182000 -4.372000 5.022000
v -14.182000 -4.372000 8.120000
v -13.682000 -4.372000 5.246000
v -13.682000 -4.372000 7.921000
v -13.182000 -4.372000 5.582000
v -13.182000 -4.372000 7.385000
v -12.682000 -4.372000 5.737000
v -12.682000 -4.372000 6.974000
v -12.182000 -4.372000 5.574000
v -12.182000 -4.372000 6.983000
v -11.682000 -4.372000 5.321000
v -11.682000 -4.372000 7.168000
v -11.182000 -4.372000 5.341000
v -11.182000 -4.372000 7.148000
v -10.682000 -4.372000 5.716000
v -10.682000 -4.372000 6.774000
v -15.682000 -5.629000 6.782000
v -15.682000 -4.215000 6.782000
v -15.182000 -6.164000 6.782000
v -15.182000 -3.715000 6.782000
v -14.682000 -6.891000 6.782000
v -14.682000 -3.538000 6.782000
v -14.182000 -7.550000 6.782000
v -14.182000 -3.553000 6.782000
v -13.682000 -9.004000 6.782000
v -13.682000 -3.768000 6.782000
v -13.182000 -9.568000 6.782000
v -13.182000 -4.122000 6.782000
v -12.682000 -9.767000 6.782000
v -12.682000 -4.295000 6.782000
v -12.182000 -9.770000 6.782000
v -12.182000 -4.263000 6.782000
v -11.682000 -9.578000 6.782000
v -11.682000 -4.127000 6.782000
v -11.182000 -9.036000 6.782000
v -11.182000 -4.141000 6.782000
v -10.682000 -7.279000 6.782000
v -10.682000 -4.376000 6.782000
v -10.182000 -6.536000 6.782000
v -10.182000 -5.188000 6.782000
v -15.182000 -6.954000 10.782000
v -15.182000 -5.810000 10.782000
v -14.682000 -7.564000 10.782000
v -14.682000 -5.218000 10.782000
v -14.182000 -8.451000 10.782000
v -14.182000 -5.012000 10.782000
v -13.682000 -9.020000 10.782000
v -13.682000 -5.002000 10.782000
v -13.182000 -9.219000 10.782000
v -13.182000 -5.180000 10.782000
v -12.682000 -9.223000 10.782000
v -12.682000 -5.567000 10.782000
v -12.182000 -9.034000 10.782000
v -12.182000 -6.319000 10.782000
v -11.682000 -8.499000 10.782000
v -11.682000 -7.107000 10.782000
v -13.767000 -7.872000 3.782000
v -12.191000 -7.872000 3.782000
v -13.909000 -7.872000 4.282000
v -11.880000 -7.872000 4.282000
v -13.868000 -7.872000 4.782000
v -11.440000 -7.872000 4.782000
v -13.937000 -7.872000 5.282000
v -11.124000 -7.872000 5.282000
v -13.943000 -7.872000 5.782000
v -11.027000 -7.872000 5.782000
v -13.976000 -7.872000 6.282000
v -11.000000 -7.872000 6.282000
v -13.975000 -7.872000 6.782000
v -10.901000 -7.872000 6.782000
v -14.115000 -7.872000 7.282000
v -10.678000 -7.872000 7.282000
v -14.229000 -7.872000 7.782000
v -10.582000 -7.872000 7.782000
v -14.325000 -7.872000 8.282000
v -10.617000 -7.872000 8.282000
v -14.440000 -7.872000 8.782000
v -10.644000 -7.872000 8.782000
v -14.488000 -7.872000 9.282000
v -10.732000 -7.872000 9.282000
v -14.442000 -7.872000 9.782000
v -11.074000 -7.872000 9.782000
v -14.438000 -7.872000 10.282000
v -11.392000 -7.872000 10.282000
v -14.433000 -7.872000 10.782000
v -11.516000 -7.872000 10.782000
v -14.472000 -7.872000 11.282000
v -11.568000 -7.872000 11.282000
v -14.411000 -7.872000 11.782000
v -11.534000 -7.872000 11.782000
v -14.386000 -7.872000 12.282000
v -11.614000 -7.872000 12.282000
v -14.418000 -7.872000 12.782000
v -11.921000 -7.872000 12.782000
v -14.304000 -7.872000 13.282000
v -12.421000 -7.872000 13.282000
v -13.706000 -7.872000 13.782000
v -13.104000 -7.872000 13.782000
v -15.282000 -3.872000 5.782000
v -13.657000 -3.872000 5.782000
v -15.428000 -3.872000 6.282000
v -13.502000 -3.872000 6.282000
v -15.400000 -3.872000 6.782000
v -13.547000 -3.872000 6.782000
v -15.274000 -3.872000 7.282000
v -13.674000 -3.872000 7.282000
v -14.182000 -7.872000 7.471000
v -14.182000 -7.872000 13.464000
v -13.682000 -7.872000 3.668000
v -13.682000 -7.872000 13.788000
v -13.182000 -7.872000 3.369000
v -13.182000 -7.872000 13.802000
v -12.682000 -7.872000 3.395000
v -12.682000 -7.872000 13.527000
v -12.182000 -7.872000 3.796000
v -12.182000 -7.872000 13.047000
v -11.682000 -7.872000 4.530000
v -11.682000 -7.872000 12.442000
v -11.182000 -7.872000 5.145000
v -11.182000 -7.872000 9.913000
v -10.682000 -7.872000 7.271000
v -10.682000 -7.872000 9.127000
v -15.182000 -3.872000 5.649000
v -15.182000 -3.872000 7.412000
v -14.682000 -3.872000 5.355000
v -14.682000 -3.872000 7.717000
v -14.182000 -3.872000 5.375000
v -14.182000 -3.872000 7.694000
v -13.682000 -3.872000 5.743000
v -13.682000 -3.872000 7.295000
v -13.682000 -7.515000 3.282000
v -13.682000 -6.136000 3.282000
v -13.182000 -7.789000 3.282000
v -13.182000 -5.862000 3.282000
v -12.682000 -7.765000 3.282000
v -12.682000 -5.886000 3.282000
v -12.182000 -7.405000 3.282000
v -12.182000 -6.246000 3.282000
v -15.682000 -5.454000 7.282000
v -15.682000 -4.390000 7.282000
v -15.182000 -6.350000 7.282000
v -15.182000 -3.808000 7.282000
v -14.682000 -7.074000 7.282000
v -14.682000 -3.618000 7.282000
v -14.182000 -7.751000 7.282000
v -14.182000 -3.635000 7.282000
v -13.682000 -9.096000 7.282000
v -13.682000 -3.866000 7.282000
v -13.182000 -9.593000 7.282000
v -13.182000 -4.314000 7.282000
v -12.682000 -9.769000 7.282000
v -12.682000 -4.533000 7.282000
v -12.182000 -9.752000 7.282000
v -12.182000 -4.552000 7.282000
v -11.682000 -9.536000 7.282000
v -11.682000 -4.471000 7.282000
v -11.182000 -8.922000 7.282000
v -11.182000 -4.506000 7.282000
v -10.682000 -7.882000 7.282000
v -10.682000 -4.820000 7.282000
v -10.182000 -6.258000 7.282000
v -10.182000 -5.568000 7.282000
v -15.182000 -7.004000 11.282000
v -15.182000 -5.685000 11.282000
v -14.682000 -7.578000 11.282000
v -14.682000 -5.153000 11.282000
v -14.182000 -8.583000 11.282000
v -14.182000 -4.965000 11.282000
v -13.682000 -9.092000 11.282000
v -13.682000 -4.971000 11.282000
v -13.182000 -9.271000 11.282000
v -13.182000 -5.173000 11.282000
v -12.682000 -9.259000 11.282000
v -12.682000 -5.743000 11.282000
v -12.182000 -9.047000 11.282000
v -12.182000 -6.617000 11.282000
v -11.682000 -8.444000 11.282000
v -11.682000 -7.312000 11.282000
v -13.799000 -7.372000 3.282000
v -12.159000 -7.372000 3.282000
v -14.169000 -7.372000 3.782000
v -11.789000 -7.372000 3.782000
v -14.268000 -7.372000 4.282000
v -11.530000 -7.372000 4.282000
v -14.214000 -7.372000 4.782000
v -11.114000 -7.372000 4.782000
v -14.249000 -7.372000 5.282000
v -10.940000 -7.372000 5.282000
v -14.220000 -7.372000 5.782000
v -10.897000 -7.372000 5.782000
v -14.264000 -7.372000 6.282000
v -10.848000 -7.372000 6.282000
v -14.343000 -7.372000 6.782000
v -10.735000 -7.372000 6.782000
v -14.448000 -7.372000 7.282000
v -10.553000 -7.372000 7.282000
v -14.459000 -7.372000 7.782000
v -10.488000 -7.372000 7.782000
v -14.617000 -7.372000 8.282000
v -10.534000 -7.372000 8.282000
v -14.791000 -7.372000 8.782000
v -10.536000 -7.372000 8.782000
v -14.898000 -7.372000 9.282000
v -10.616000 -7.372000 9.282000
v -14.925000 -7.372000 9.782000
v -10.925000 -7.372000 9.782000
v -14.915000 -7.372000 10.282000
v -11.372000 -7.372000 10.282000
v -14.895000 -7.372000 10.782000
v -11.581000 -7.372000 10.782000
v -14.899000 -7.372000 11.282000
v -11.659000 -7.372000 11.282000
v -14.763000 -7.372000 11.782000
v -11.617000 -7.372000 11.782000
v -14.693000 -7.372000 12.282000
v -11.702000 -7.372000 12.282000
v -14.725000 -7.372000 12.782000
v -11.938000 -7.372000 12.782000
v -14.640000 -7.372000 13.282000
v -12.168000 -7.372000 13.282000
v -14.303000 -7.372000 13.782000
v -12.507000 -7.372000 13.782000
v -14.682000 -7.372000 8.473000
v -14.682000 -7.372000 13.147000
v -14.182000 -7.372000 3.815000
v -14.182000 -7.372000 13.881000
v -13.682000 -7.372000 3.196000
v -13.682000 -7.372000 14.104000
v -13.182000 -7.372000 3.003000
v -13.182000 -7.372000 14.115000
v -12.682000 -7.372000 3.022000
v -12.682000 -7.372000 13.919000
v -12.182000 -7.372000 3.263000
v -12.182000 -7.372000 13.314000
v -11.682000 -7.372000 4.033000
v -11.682000 -7.372000 12.227000
v -11.182000 -7.372000 4.684000
v -11.182000 -7.372000 10.034000
v -10.682000 -7.372000 6.907000
v -10.682000 -7.372000 9.437000
v -14.182000 -7.342000 3.782000
v -14.182000 -6.309000 3.782000
v -13.682000 -7.930000 3.782000
v -13.682000 -5.721000 3.782000
v -13.182000 -8.119000 3.782000
v -13.182000 -5.532000 3.782000
v -12.682000 -8.101000 3.782000
v -12.682000 -5.550000 3.782000
v -12.182000 -7.865000 3.782000
v -12.182000 -5.754000 3.782000
v -11.682000 -7.078000 3.782000
v -11.682000 -6.301000 3.782000
v -15.182000 -6.512000 7.782000
v -15.182000 -4.198000 7.782000
v -14.682000 -7.093000 7.782000
v -14.682000 -3.931000 7.782000
v -14.182000 -7.975000 7.782000
v -14.182000 -3.952000 7.782000
v -13.682000 -8.988000 7.782000
v -13.682000 -4.255000 7.782000
v -13.182000 -9.495000 7.782000
v -13.182000 -4.630000 7.782000
v -12.682000 -9.684000 7.782000
v -12.682000 -4.821000 7.782000
v -12.182000 -9.666000 7.782000
v -12.182000 -4.827000 7.782000
v -11.682000 -9.432000 7.782000
v -11.682000 -4.813000 7.782000
v -11.182000 -8.749000 7.782000
v -11.182000 -4.928000 7.782000
v -10.682000 -8.079000 7.782000
v -10.682000 -5.255000 7.782000
v -15.182000 -6.728000 11.782000
v -15.182000 -5.962000 11.782000
v -14.682000 -7.455000 11.782000
v -14.682000 -5.281000 11.782000
v -14.182000 -8.482000 11.782000
v -14.182000 -5.074000 11.782000
v -13.682000 -9.032000 11.782000
v -13.682000 -5.080000 11.782000
v -13.182000 -9.225000 11.782000
v -13.182000 -5.304000 11.782000
v -12.682000 -9.223000 11.782000
v -12.682000 -5.842000 11.782000
v -12.182000 -9.027000 11.782000
v -12.182000 -6.632000 11.782000
v -11.682000 -8.473000 11.782000
v -11.682000 -7.219000 11.782000
v -13.963000 -6.872000 3.282000
v -11.995000 -6.872000 3.282000
v -14.288000 -6.872000 3.782000
v -11.637000 -6.872000 3.782000
v -14.378000 -6.872000 4.282000
v -11.131000 -6.872000 4.282000
v -14.328000 -6.872000 4.782000
v -10.764000 -6.872000 4.782000
v -14.372000 -6.872000 5.282000
v -10.655000 -6.872000 5.282000
v -14.409000 -6.872000 5.782000
v -10.549000 -6.872000 5.782000
v -14.487000 -6.872000 6.282000
v -10.445000 -6.872000 6.282000
v -14.691000 -6.872000 6.782000
v -10.406000 -6.872000 6.782000
v -14.833000 -6.872000 7.282000
v -10.415000 -6.872000 7.282000
v -14.916000 -6.872000 7.782000
v -10.493000 -6.872000 7.782000
v -14.959000 -6.872000 8.282000
v -10.529000 -6.872000 8.282000
v -15.140000 -6.872000 8.782000
v -10.485000 -6.872000 8.782000
v -15.232000 -6.872000 9.282000
v -10.588000 -6.872000 9.282000
v -15.238000 -6.872000 9.782000
v -10.934000 -6.872000 9.782000
v -15.216000 -6.872000 10.282000
v -11.482000 -6.872000 10.282000
v -15.216000 -6.872000 10.782000
v -11.803000 -6.872000 10.782000
v -15.244000 -6.872000 11.282000
v -11.947000 -6.872000 11.282000
v -15.128000 -6.872000 11.782000
v -11.928000 -6.872000 11.782000
v -14.901000 -6.872000 12.282000
v -11.951000 -6.872000 12.282000
v -14.808000 -6.872000 12.782000
v -11.995000 -6.872000 12.782000
v -14.724000 -6.872000 13.282000
v -12.086000 -6.872000 13.282000
v -14.416000 -6.872000 13.782000
v -12.394000 -6.872000 13.782000
v -15.182000 -6.872000 8.907000
v -15.182000 -6.872000 11.641000
v -14.682000 -6.872000 6.758000
v -14.682000 -6.872000 13.385000
v -14.182000 -6.872000 3.563000
v -14.182000 -6.872000 13.977000
v -13.682000 -6.872000 3.067000
v -13.682000 -6.872000 14.185000
v -13.182000 -6.872000 2.892000
v -13.182000 -6.872000 14.195000
v -12.682000 -6.872000 2.909000
v -12.682000 -6.872000 14.012000
v -12.182000 -6.872000 3.126000
v -12.182000 -6.872000 13.495000
v -11.682000 -6.872000 3.715000
v -11.682000 -6.872000 10.567000
v -11.182000 -6.872000 4.241000
v -11.182000 -6.872000 9.983000
v -10.682000 -6.872000 5.066000
v -10.682000 -6.872000 9.471000
v -14.182000 -7.541000 4.282000
v -14.182000 -5.921000 4.282000
v -13.682000 -8.036000 4.282000
v -13.682000 -5.472000 4.282000
v -13.182000 -8.261000 4.282000
v -13.182000 -5.369000 4.282000
v -12.682000 -8.323000 4.282000
v -12.682000 -5.365000 4.282000
v -12.182000 -8.164000 4.282000
v -12.182000 -5.385000 4.282000
v -11.682000 -7.595000 4.282000
v -11.682000 -5.436000 4.282000
v -11.182000 -6.950000 4.282000
v -11.182000 -5.792000 4.282000
v -15.182000 -6.418000 8.282000
v -15.182000 -5.479000 8.282000
v -14.682000 -7.248000 8.282000
v -14.682000 -4.645000 8.282000
v -14.182000 -8.288000 8.282000
v -14.182000 -4.538000 8.282000
v -13.682000 -8.987000 8.282000
v -13.682000 -4.601000 8.282000
v -13.182000 -9.298000 8.282000
v -13.182000 -4.795000 8.282000
v -12.682000 -9.418000 8.282000
v -12.682000 -4.958000 8.282000
v -12.182000 -9.360000 8.282000
v -12.182000 -4.969000 8.282000
v -11.682000 -9.049000 8.282000
v -11.682000 -4.954000 8.282000
v -11.182000 -8.604000 8.282000
v -11.182000 -5.107000 8.282000
v -10.682000 -8.024000 8.282000
v -10.682000 -5.579000 8.282000
v -14.682000 -7.390000 12.282000
v -14.682000 -5.740000 12.282000
v -14.182000 -8.298000 12.282000
v -14.182000 -5.409000 12.282000
v -13.682000 -8.933000 12.282000
v -13.682000 -5.357000 12.282000
v -13.182000 -9.142000 12.282000
v -13.182000 -5.483000 12.282000
v -12.682000 -9.142000 12.282000
v -12.682000 -5.793000 12.282000
v -12.182000 -8.931000 12.282000
v -12.182000 -6.441000 12.282000
v -11.682000 -8.266000 12.282000
v -11.682000 -7.426000 12.282000
v -13.853000 -6.372000 3.282000
v -12.104000 -6.372000 3.282000
v -14.208000 -6.372000 3.782000
v -11.659000 -6.372000 3.782000
v -14.332000 -6.372000 4.282000
v -10.993000 -6.372000 4.282000
v -14.422000 -6.372000 4.782000
v -10.664000 -6.372000 4.782000
v -14.551000 -6.372000 5.282000
v -10.461000 -6.372000 5.282000
v -14.787000 -6.372000 5.782000
v -10.185000 -6.372000 5.782000
v -14.928000 -6.372000 6.282000
v -10.100000 -6.372000 6.282000
v -14.984000 -6.372000 6.782000
v -10.114000 -6.372000 6.782000
v -15.170000 -6.372000 7.282000
v -10.220000 -6.372000 7.282000
v -15.245000 -6.372000 7.782000
v -10.428000 -6.372000 7.782000
v -15.196000 -6.372000 8.282000
v -10.495000 -6.372000 8.282000
v -15.250000 -6.372000 8.782000
v -10.488000 -6.372000 8.782000
v -15.328000 -6.372000 9.282000
v -10.598000 -6.372000 9.282000
v -15.321000 -6.372000 9.782000
v -10.959000 -6.372000 9.782000
v -15.292000 -6.372000 10.282000
v -11.677000 -6.372000 10.282000
v -15.304000 -6.372000 10.782000
v -12.142000 -6.372000 10.782000
v -15.347000 -6.372000 11.282000
v -12.391000 -6.372000 11.282000
v -15.240000 -6.372000 11.782000
v -12.401000 -6.372000 11.782000
v -14.940000 -6.372000 12.282000
v -12.221000 -6.372000 12.282000
v -14.731000 -6.372000 12.782000
v -12.111000 -6.372000 12.782000
v -14.612000 -6.372000 13.282000
v -12.199000 -6.372000 13.282000
v -14.264000 -6.372000 13.782000
v -12.546000 -6.372000 13.782000
v -15.182000 -6.372000 7.325000
v -15.182000 -6.372000 11.903000
v -14.682000 -6.372000 5.566000
v -14.682000 -6.372000 13.020000
v -14.182000 -6.372000 3.723000
v -14.182000 -6.372000 13.848000
v -13.682000 -6.372000 3.154000
v -13.682000 -6.372000 14.078000
v -13.182000 -6.372000 2.967000
v -13.182000 -6.372000 14.088000
v -12.682000 -6.372000 2.985000
v -12.682000 -6.372000 13.887000
v -12.182000 -6.372000 3.218000
v -12.182000 -6.372000 10.836000
v -12.182000 -6.372000 12.389000
v -12.182000 -6.372000 13.238000
v -11.682000 -6.372000 3.759000
v -11.682000 -6.372000 10.285000
v -11.182000 -6.372000 4.126000
v -11.182000 -6.372000 9.945000
v -10.682000 -6.372000 4.737000
v -10.682000 -6.372000 9.447000
v -10.182000 -6.372000 5.789000
v -10.182000 -6.372000 7.184000
v -14.182000 -7.443000 4.782000
v -14.182000 -5.055000 4.782000
v -13.682000 -8.072000 4.782000
v -13.682000 -5.055000 4.782000
v -13.182000 -8.521000 4.782000
v -13.182000 -5.050000 4.782000
v -12.682000 -8.767000 4.782000
v -12.682000 -5.050000 4.782000
v -12.182000 -8.767000 4.782000
v -12.182000 -4.952000 4.782000
v -11.682000 -8.419000 4.782000
v -11.682000 -4.958000 4.782000
v -11.182000 -7.455000 4.782000
v -11.182000 -5.202000 4.782000
v -10.682000 -6.587000 4.782000
v -10.682000 -6.152000 4.782000
v -15.182000 -6.755000 8.782000
v -15.182000 -5.825000 8.782000
v -14.682000 -7.506000 8.782000
v -14.682000 -5.055000 8.782000
v -14.182000 -8.513000 8.782000
v -14.182000 -4.867000 8.782000
v -13.682000 -9.051000 8.782000
v -13.682000 -4.866000 8.782000
v -13.182000 -9.241000 8.782000
v -13.182000 -4.922000 8.782000
v -12.682000 -9.255000 8.782000
v -12.682000 -4.976000 8.782000
v -12.182000 -9.107000 8.782000
v -12.182000 -4.969000 8.782000
v -11.682000 -8.775000 8.782000
v -11.682000 -4.953000 8.782000
v -11.182000 -8.513000 8.782000
v -11.182000 -5.128000 8.782000
v -10.682000 -7.956000 8.782000
v -10.682000 -5.624000 8.782000
v -14.682000 -7.478000 12.782000
v -14.682000 -6.249000 12.782000
v -14.182000 -8.108000 12.782000
v -14.182000 -5.689000 12.782000
v -13.682000 -8.549000 12.782000
v -13.682000 -5.516000 12.782000
v -13.182000 -8.827000 12.782000
v -13.182000 -5.524000 12.782000
v -12.682000 -8.827000 12.782000
v -12.682000 -5.708000 12.782000
v -12.182000 -8.525000 12.782000
v -12.182000 -6.225000 12.782000
f 195 135 171
f 171 135 303
f 303 135 277
f 277 196 303
f 197 11 43
f 195 171 11
f 11 171 43
f 171 133 43
f 133 65 43
f 303 275 133
f 303 133 171
f 275 303 196
f 403 275 196
f 401 275 403
f 66 401 555
f 401 531 555
f 401 403 531
f 531 198 555
f 199 843 879
f 197 43 843
f 843 43 879
f 43 9 879
f 9 67 879
f 43 65 9
f 557 68 66
f 557 66 555
f 555 198 557
f 557 198 200
f 201 621 69
f 69 621 619
f 621 729 619
f 731 729 621
f 731 199 879
f 841 731 879
f 729 731 841
f 879 67 841
f 559 70 68
f 559 68 557
f 557 200 559
f 559 200 202
f 203 371 415
f 415 371 71
f 371 495 71
f 371 497 495
f 69 495 497
f 69 497 201
f 561 72 70
f 561 70 559
f 559 202 561
f 561 202 204
f 205 117 163
f 163 117 73
f 117 245 73
f 117 247 245
f 247 203 415
f 369 247 415
f 245 247 369
f 415 71 369
f 402 437 74
f 561 532 72
f 72 532 402
f 532 206 402
f 206 437 402
f 561 204 532
f 165 207 163
f 163 207 205
f 163 73 75
f 163 75 165
f 439 76 74
f 439 74 437
f 437 206 439
f 439 206 208
f 167 209 165
f 165 209 207
f 165 75 77
f 165 77 167
f 441 78 76
f 441 76 439
f 439 208 441
f 441 208 210
f 169 211 167
f 167 211 209
f 167 77 79
f 167 79 169
f 443 80 78
f 443 78 441
f 441 210 443
f 443 210 212
f 169 118 211
f 79 246 169
f 246 118 169
f 246 248 118
f 370 425 213
f 248 370 213
f 246 370 248
f 81 425 370
f 445 82 80
f 445 80 443
f 443 212 445
f 445 212 214
f 425 372 213
f 81 496 425
f 496 372 425
f 496 498 372
f 620 498 496
f 620 622 498
f 215 622 620
f 215 620 83
f 447 84 82
f 447 82 445
f 445 214 447
f 447 214 216
f 83 730 215
f 215 730 732
f 842 732 730
f 842 844 732
f 10 63 217
f 844 10 217
f 842 10 844
f 134 193 63
f 134 63 10
f 278 218 193
f 134 278 193
f 276 278 134
f 447 404 84
f 404 276 84
f 404 278 276
f 447 216 404
f 63 12 217
f 12 63 136
f 136 63 193
f 193 218 136
f 219 747 85
f 85 747 745
f 747 857 745
f 859 857 747
f 859 25 857
f 27 25 859
f 27 220 25
f 25 220 86
f 221 637 87
f 87 637 635
f 85 635 637
f 85 637 219
f 149 86 220
f 149 220 151
f 151 222 149
f 149 222 88
f 223 387 89
f 89 387 385
f 387 511 385
f 513 511 387
f 87 511 513
f 87 513 221
f 88 224 90
f 222 224 88
f 225 263 91
f 91 263 261
f 89 261 263
f 89 263 223
f 90 226 92
f 224 226 90
f 227 91 93
f 227 225 91
f 92 228 94
f 226 228 92
f 229 93 95
f 229 227 93
f 94 230 96
f 228 230 94
f 231 95 97
f 231 229 95
f 96 232 98
f 230 232 96
f 97 262 231
f 231 262 264
f 233 264 262
f 233 262 99
f 152 234 188
f 188 100 152
f 100 232 152
f 100 98 232
f 388 233 426
f 233 101 426
f 233 99 101
f 235 388 426
f 236 190 188
f 236 188 234
f 100 188 102
f 102 188 190
f 386 426 101
f 426 386 235
f 386 514 235
f 386 512 514
f 512 103 672
f 638 512 672
f 514 512 638
f 638 672 784
f 638 784 748
f 748 784 898
f 748 898 860
f 860 898 104
f 26 860 104
f 28 860 26
f 236 28 190
f 28 150 190
f 28 26 150
f 102 190 150
f 636 672 103
f 746 784 636
f 636 784 672
f 858 898 746
f 746 898 784
f 104 898 858
f 768 761 105
f 768 106 761
f 540 527 107
f 237 653 540
f 653 527 540
f 653 651 527
f 763 768 105
f 651 763 105
f 653 763 651
f 873 106 768
f 763 873 768
f 875 873 763
f 48 41 238
f 41 875 238
f 41 873 875
f 48 108 41
f 540 107 529
f 107 239 529
f 107 109 239
f 237 540 529
f 240 50 48
f 240 48 238
f 108 48 110
f 110 48 50
f 241 109 111
f 241 239 109
f 242 52 50
f 242 50 240
f 110 50 112
f 112 50 52
f 530 241 546
f 241 113 546
f 241 111 113
f 243 530 546
f 244 54 52
f 244 52 242
f 112 52 114
f 114 52 54
f 528 546 113
f 654 243 666
f 666 243 115
f 243 546 115
f 546 528 115
f 654 666 778
f 654 778 764
f 764 778 116
f 874 764 116
f 876 764 874
f 244 876 54
f 876 42 54
f 876 874 42
f 114 54 42
f 652 666 115
f 762 778 652
f 652 778 666
f 116 778 762
f 327 137 195
f 195 137 135
f 137 277 135
f 279 277 137
f 196 277 427
f 277 405 427
f 277 279 405
f 405 328 427
f 329 13 197
f 197 13 11
f 195 11 13
f 195 13 327
f 427 403 196
f 403 427 328
f 533 403 328
f 531 403 533
f 533 330 531
f 531 330 198
f 331 845 199
f 199 845 843
f 197 843 845
f 197 845 329
f 198 332 200
f 330 332 198
f 333 623 201
f 201 623 621
f 623 731 621
f 733 731 623
f 199 731 733
f 199 733 331
f 200 334 202
f 332 334 200
f 335 249 291
f 291 249 203
f 249 371 203
f 249 373 371
f 373 497 371
f 499 497 373
f 201 497 499
f 201 499 333
f 202 336 204
f 334 336 202
f 337 119 205
f 205 119 117
f 119 335 291
f 247 119 291
f 117 119 247
f 291 203 247
f 534 338 206
f 534 206 532
f 532 204 534
f 534 204 336
f 339 205 207
f 339 337 205
f 206 340 208
f 338 340 206
f 341 207 209
f 341 339 207
f 208 342 210
f 340 342 208
f 343 209 211
f 343 341 209
f 210 344 212
f 342 344 210
f 211 118 343
f 343 118 120
f 248 301 345
f 120 248 345
f 118 248 120
f 213 301 248
f 212 346 214
f 344 346 212
f 301 250 345
f 213 372 301
f 372 250 301
f 372 374 250
f 498 374 372
f 498 500 374
f 622 500 498
f 622 624 500
f 347 624 622
f 347 622 215
f 214 348 216
f 346 348 214
f 215 732 347
f 347 732 734
f 844 899 349
f 734 844 349
f 732 844 734
f 217 899 844
f 278 325 218
f 406 350 325
f 278 406 325
f 404 406 278
f 404 216 406
f 406 216 348
f 899 846 349
f 217 12 899
f 12 846 899
f 12 14 846
f 136 14 12
f 136 138 14
f 325 280 218
f 280 136 218
f 280 138 136
f 325 350 280
f 351 749 219
f 219 749 747
f 749 859 747
f 861 859 749
f 861 27 859
f 29 27 861
f 29 352 27
f 27 352 220
f 353 639 221
f 221 639 637
f 219 637 639
f 219 639 351
f 151 220 352
f 151 352 153
f 153 354 151
f 151 354 222
f 355 389 223
f 223 389 387
f 389 513 387
f 515 513 389
f 221 513 515
f 221 515 353
f 222 356 224
f 354 356 222
f 357 265 225
f 225 265 263
f 223 263 265
f 223 265 355
f 224 358 226
f 356 358 224
f 359 225 227
f 359 357 225
f 226 360 228
f 358 360 226
f 361 227 229
f 361 359 227
f 228 362 230
f 360 362 228
f 363 229 231
f 363 361 229
f 154 364 186
f 186 232 154
f 232 362 154
f 232 230 362
f 231 264 363
f 363 264 266
f 365 266 264
f 365 264 233
f 30 366 58
f 186 364 30
f 186 30 58
f 152 186 58
f 234 152 58
f 232 186 152
f 233 388 365
f 365 388 390
f 388 235 552
f 516 388 552
f 390 388 516
f 516 552 670
f 516 670 640
f 640 670 782
f 640 782 750
f 750 782 896
f 750 896 862
f 58 366 862
f 896 58 862
f 60 58 896
f 234 58 236
f 236 58 60
f 514 552 235
f 638 670 514
f 514 670 552
f 748 782 638
f 638 782 670
f 860 896 748
f 748 896 782
f 28 60 860
f 860 60 896
f 236 60 28
f 658 653 237
f 770 763 658
f 658 763 653
f 882 875 770
f 770 875 763
f 882 238 875
f 542 529 239
f 529 542 237
f 542 658 237
f 542 660 658
f 772 658 660
f 770 658 772
f 884 770 772
f 882 770 884
f 238 882 240
f 240 882 884
f 241 544 239
f 239 544 542
f 662 542 544
f 660 542 662
f 774 660 662
f 772 660 774
f 886 772 774
f 884 772 886
f 240 884 242
f 242 884 886
f 530 544 241
f 243 664 530
f 664 544 530
f 664 662 544
f 776 662 664
f 774 662 776
f 888 774 776
f 886 774 888
f 242 886 244
f 244 886 888
f 654 664 243
f 764 776 654
f 654 776 664
f 876 888 764
f 764 888 776
f 244 888 876
f 449 139 327
f 327 139 137
f 139 279 137
f 281 279 139
f 281 405 279
f 407 405 281
f 407 450 405
f 405 450 328
f 451 15 329
f 329 15 13
f 327 13 15
f 327 15 449
f 533 328 450
f 533 450 535
f 535 452 533
f 533 452 330
f 453 735 767
f 767 735 331
f 735 845 331
f 735 847 845
f 329 845 847
f 329 847 451
f 330 454 332
f 452 454 330
f 455 625 333
f 333 625 623
f 625 453 767
f 733 625 767
f 623 625 733
f 767 331 733
f 332 456 334
f 454 456 332
f 457 251 335
f 335 251 249
f 251 373 249
f 375 373 251
f 375 499 373
f 501 499 375
f 333 499 501
f 333 501 455
f 334 458 336
f 456 458 334
f 459 121 337
f 337 121 119
f 335 119 121
f 335 121 457
f 536 460 338
f 536 338 534
f 534 336 536
f 536 336 458
f 461 337 339
f 461 459 337
f 338 462 340
f 460 462 338
f 463 339 341
f 463 461 339
f 340 464 342
f 462 464 340
f 465 341 343
f 465 463 341
f 342 466 344
f 464 466 342
f 343 120 465
f 465 120 122
f 467 122 120
f 467 120 345
f 344 468 346
f 466 468 344
f 345 250 467
f 467 250 252
f 374 252 250
f 374 376 252
f 500 376 374
f 500 502 376
f 624 502 500
f 624 626 502
f 469 626 624
f 469 624 347
f 408 470 448
f 448 348 408
f 348 468 408
f 348 346 468
f 347 734 469
f 469 734 736
f 471 736 734
f 471 734 349
f 282 472 326
f 448 470 282
f 448 282 326
f 406 448 326
f 350 406 326
f 348 448 406
f 349 846 471
f 471 846 848
f 14 848 846
f 14 16 848
f 138 16 14
f 138 140 16
f 472 140 326
f 140 280 326
f 140 138 280
f 350 326 280
f 473 751 351
f 351 751 749
f 751 861 749
f 863 861 751
f 863 29 861
f 31 29 863
f 31 474 29
f 29 474 352
f 475 641 353
f 353 641 639
f 351 639 641
f 351 641 473
f 153 352 474
f 153 474 155
f 155 476 153
f 153 476 354
f 477 391 355
f 355 391 389
f 391 515 389
f 517 515 391
f 353 515 517
f 353 517 475
f 354 478 356
f 476 478 354
f 479 267 357
f 357 267 265
f 355 265 267
f 355 267 477
f 356 480 358
f 478 480 356
f 481 357 359
f 481 479 357
f 358 482 360
f 480 482 358
f 483 359 361
f 483 481 359
f 156 484 184
f 184 362 156
f 362 482 156
f 362 360 482
f 485 361 363
f 485 483 361
f 32 486 56
f 184 484 32
f 184 32 56
f 154 184 56
f 364 154 56
f 362 184 154
f 363 266 485
f 485 266 268
f 487 268 266
f 487 266 365
f 752 488 780
f 752 780 894
f 752 894 864
f 56 486 864
f 56 864 894
f 30 56 894
f 366 30 894
f 364 56 30
f 365 390 487
f 487 390 392
f 516 392 390
f 516 518 392
f 640 518 516
f 640 642 518
f 488 642 780
f 642 750 780
f 642 640 750
f 862 894 750
f 750 894 780
f 366 894 862
f 563 611 659
f 659 611 771
f 771 611 721
f 771 721 883
f 883 721 833
f 833 564 883
f 661 565 659
f 659 565 563
f 659 773 661
f 659 771 773
f 771 885 773
f 771 883 885
f 1 51 564
f 51 883 564
f 51 885 883
f 1 566 51
f 663 567 661
f 661 567 565
f 661 775 663
f 661 773 775
f 773 887 775
f 773 885 887
f 568 887 2
f 887 51 2
f 887 885 51
f 51 566 2
f 665 569 663
f 663 569 567
f 663 777 665
f 663 775 777
f 775 889 777
f 775 887 889
f 887 568 889
f 889 568 570
f 665 612 569
f 612 665 722
f 722 665 777
f 722 777 834
f 834 777 889
f 889 570 834
f 571 141 449
f 449 141 139
f 141 281 139
f 283 281 141
f 428 407 572
f 407 283 572
f 407 281 283
f 428 450 407
f 573 17 451
f 451 17 15
f 449 15 17
f 449 17 571
f 409 428 572
f 535 450 428
f 409 535 428
f 537 535 409
f 537 574 535
f 535 574 452
f 575 737 453
f 453 737 735
f 737 847 735
f 849 847 737
f 451 847 849
f 451 849 573
f 452 576 454
f 574 576 452
f 577 627 455
f 455 627 625
f 453 625 627
f 453 627 575
f 454 578 456
f 576 578 454
f 579 253 457
f 457 253 251
f 253 375 251
f 377 375 253
f 377 501 375
f 503 501 377
f 455 501 503
f 455 503 577
f 456 580 458
f 578 580 456
f 581 123 459
f 459 123 121
f 457 121 123
f 457 123 579
f 538 582 460
f 538 460 536
f 536 458 538
f 538 458 580
f 583 459 461
f 583 581 459
f 410 584 440
f 440 462 410
f 462 582 410
f 462 460 582
f 585 461 463
f 585 583 461
f 586 442 440
f 586 440 584
f 462 440 464
f 464 440 442
f 587 463 465
f 587 585 463
f 588 444 442
f 588 442 586
f 464 442 466
f 466 442 444
f 465 122 587
f 587 122 124
f 589 124 122
f 589 122 467
f 590 446 444
f 590 444 588
f 466 444 468
f 468 444 446
f 467 252 589
f 589 252 254
f 376 254 252
f 376 378 254
f 502 553 591
f 378 502 591
f 376 502 378
f 626 671 553
f 626 553 502
f 469 671 626
f 470 408 446
f 590 470 446
f 592 470 590
f 468 446 408
f 553 504 591
f 504 553 628
f 628 553 671
f 469 736 671
f 736 628 671
f 736 738 628
f 736 471 900
f 850 736 900
f 738 736 850
f 593 850 900
f 142 594 194
f 142 194 472
f 282 142 472
f 284 142 282
f 282 470 284
f 284 470 592
f 848 900 471
f 900 848 593
f 848 18 593
f 848 16 18
f 594 18 194
f 18 140 194
f 18 16 140
f 472 194 140
f 595 753 473
f 473 753 751
f 753 863 751
f 865 863 753
f 865 31 863
f 33 31 865
f 33 596 31
f 31 596 474
f 597 643 475
f 475 643 641
f 473 641 643
f 473 643 595
f 155 474 596
f 155 596 157
f 157 598 155
f 155 598 476
f 599 393 477
f 477 393 391
f 393 517 391
f 519 517 393
f 475 517 519
f 475 519 597
f 476 600 478
f 598 600 476
f 601 269 479
f 479 269 267
f 477 267 269
f 477 269 599
f 478 602 480
f 600 602 478
f 603 479 481
f 603 601 479
f 480 604 482
f 602 604 480
f 605 481 483
f 605 603 481
f 158 606 484
f 158 484 156
f 156 482 158
f 158 482 604
f 607 483 485
f 607 605 483
f 866 608 890
f 866 890 486
f 32 866 486
f 34 866 32
f 32 484 34
f 34 484 606
f 485 268 607
f 607 268 270
f 609 270 268
f 609 268 487
f 754 610 488
f 754 488 752
f 608 754 890
f 754 864 890
f 754 752 864
f 486 890 864
f 487 392 609
f 609 392 394
f 518 394 392
f 518 520 394
f 642 520 518
f 642 644 520
f 642 488 644
f 644 488 610
f 673 723 769
f 769 723 881
f 881 723 835
f 835 674 881
f 675 489 541
f 541 489 563
f 489 611 563
f 489 613 611
f 613 673 769
f 721 613 769
f 611 613 721
f 881 833 721
f 881 721 769
f 674 3 49
f 674 49 564
f 881 674 564
f 833 881 564
f 3 676 49
f 543 677 541
f 541 677 675
f 541 563 565
f 541 565 543
f 49 1 564
f 49 676 1
f 676 566 1
f 676 678 566
f 545 679 543
f 543 679 677
f 543 565 567
f 543 567 545
f 2 53 568
f 2 566 53
f 566 680 53
f 566 678 680
f 545 490 679
f 681 490 545
f 567 681 545
f 569 681 567
f 55 570 568
f 55 568 53
f 53 680 55
f 55 680 682
f 569 612 681
f 681 612 614
f 722 779 683
f 614 722 683
f 612 722 614
f 834 893 779
f 834 779 722
f 55 4 570
f 570 4 834
f 4 684 834
f 684 893 834
f 55 682 4
f 779 724 683
f 724 779 836
f 836 779 893
f 893 684 836
f 172 141 571
f 304 283 172
f 172 283 141
f 304 572 283
f 685 851 877
f 877 851 573
f 851 17 573
f 851 19 17
f 143 172 571
f 17 143 571
f 19 143 17
f 172 143 285
f 172 285 304
f 409 572 304
f 285 409 304
f 411 409 285
f 556 537 686
f 537 411 686
f 537 409 411
f 556 574 537
f 687 739 575
f 575 739 737
f 739 685 877
f 849 739 877
f 737 739 849
f 877 573 849
f 688 558 556
f 688 556 686
f 574 556 576
f 576 556 558
f 689 505 539
f 539 505 577
f 505 627 577
f 505 629 627
f 575 627 629
f 575 629 687
f 690 560 558
f 690 558 688
f 576 558 578
f 578 558 560
f 691 255 579
f 579 255 253
f 255 377 253
f 379 377 255
f 379 689 539
f 503 379 539
f 377 379 503
f 539 577 503
f 692 562 560
f 692 560 690
f 578 560 580
f 580 560 562
f 693 125 581
f 581 125 123
f 579 123 125
f 579 125 691
f 412 694 438
f 562 692 412
f 562 412 438
f 538 562 438
f 582 538 438
f 580 562 538
f 695 581 583
f 695 693 581
f 584 410 438
f 694 584 438
f 696 584 694
f 582 438 410
f 697 583 585
f 697 695 583
f 584 698 586
f 696 698 584
f 699 585 587
f 699 697 585
f 586 700 588
f 698 700 586
f 587 124 699
f 699 124 126
f 124 589 302
f 256 124 302
f 126 124 256
f 701 256 302
f 286 702 322
f 322 590 286
f 590 700 286
f 590 588 700
f 254 302 589
f 302 254 701
f 254 380 701
f 254 378 380
f 703 380 378
f 703 378 591
f 704 324 322
f 704 322 702
f 590 322 592
f 592 322 324
f 591 504 703
f 703 504 506
f 628 506 504
f 628 630 506
f 738 630 628
f 738 740 630
f 850 740 738
f 850 852 740
f 850 593 64
f 20 850 64
f 852 850 20
f 20 64 594
f 142 20 594
f 144 20 142
f 704 144 324
f 144 284 324
f 144 142 284
f 592 324 284
f 18 64 593
f 594 64 18
f 766 753 595
f 705 867 766
f 867 753 766
f 867 865 753
f 44 33 706
f 33 867 706
f 33 865 867
f 44 596 33
f 707 645 597
f 597 645 643
f 755 766 595
f 643 755 595
f 645 755 643
f 705 766 755
f 35 44 706
f 157 596 44
f 35 157 44
f 159 157 35
f 159 708 157
f 157 708 598
f 709 395 599
f 599 395 393
f 395 519 393
f 521 519 395
f 597 519 521
f 597 521 707
f 598 710 600
f 708 710 598
f 711 271 601
f 601 271 269
f 599 269 271
f 599 271 709
f 600 712 602
f 710 712 600
f 713 601 603
f 713 711 601
f 602 714 604
f 712 714 602
f 715 603 605
f 715 713 603
f 160 716 606
f 160 606 158
f 158 604 160
f 160 604 714
f 717 605 607
f 717 715 605
f 868 718 608
f 868 608 866
f 34 868 866
f 34 36 868
f 34 606 36
f 36 606 716
f 607 270 717
f 717 270 272
f 719 272 270
f 719 270 609
f 756 720 610
f 756 610 754
f 754 608 756
f 756 608 718
f 609 394 719
f 719 394 396
f 520 396 394
f 520 522 396
f 644 522 520
f 644 646 522
f 644 610 646
f 646 610 720
f 785 615 657
f 657 615 673
f 615 723 673
f 615 725 723
f 725 835 723
f 837 835 725
f 837 786 835
f 835 786 674
f 787 491 675
f 675 491 489
f 491 785 657
f 613 491 657
f 489 491 613
f 657 673 613
f 3 674 786
f 3 786 5
f 5 788 3
f 3 788 676
f 789 675 677
f 789 787 675
f 788 129 181
f 678 788 181
f 676 788 678
f 129 790 181
f 791 677 679
f 791 789 677
f 183 680 678
f 183 678 181
f 181 790 183
f 183 790 792
f 547 793 490
f 793 679 490
f 793 791 679
f 681 547 490
f 680 183 130
f 794 680 130
f 682 680 794
f 183 792 130
f 547 492 793
f 667 795 614
f 614 795 681
f 795 492 681
f 492 547 681
f 683 667 614
f 4 57 684
f 4 682 57
f 682 796 57
f 682 794 796
f 667 616 795
f 781 797 724
f 724 797 683
f 797 616 683
f 616 667 683
f 836 895 781
f 836 781 724
f 895 836 684
f 57 895 684
f 59 895 57
f 57 796 59
f 59 796 798
f 781 726 797
f 726 781 838
f 838 781 895
f 838 895 6
f 6 895 59
f 59 798 6
f 799 853 685
f 685 853 851
f 853 19 851
f 21 19 853
f 174 143 800
f 143 21 800
f 143 19 21
f 306 285 174
f 174 285 143
f 430 411 306
f 306 411 285
f 430 686 411
f 801 741 687
f 687 741 739
f 685 739 741
f 685 741 799
f 145 174 800
f 174 145 287
f 174 287 306
f 306 287 802
f 432 306 802
f 430 306 432
f 686 430 688
f 688 430 432
f 803 507 689
f 689 507 505
f 507 629 505
f 631 629 507
f 687 629 631
f 687 631 801
f 804 434 432
f 804 432 802
f 688 432 690
f 690 432 434
f 805 257 691
f 691 257 255
f 257 379 255
f 381 379 257
f 689 379 381
f 689 381 803
f 806 436 434
f 806 434 804
f 690 434 692
f 692 434 436
f 164 125 693
f 691 125 164
f 807 691 164
f 805 691 807
f 694 412 436
f 806 694 436
f 808 694 806
f 692 436 412
f 164 693 127
f 693 809 127
f 693 695 809
f 807 164 127
f 288 810 316
f 316 696 288
f 696 808 288
f 696 694 808
f 128 809 168
f 809 697 168
f 809 695 697
f 811 128 168
f 812 318 316
f 812 316 810
f 696 316 698
f 698 316 318
f 699 170 697
f 697 170 168
f 811 168 170
f 811 170 813
f 814 320 318
f 814 318 812
f 698 318 700
f 700 318 320
f 126 170 699
f 170 126 813
f 126 258 813
f 126 256 258
f 815 258 256
f 815 256 701
f 702 286 320
f 814 702 320
f 816 702 814
f 700 320 286
f 701 380 815
f 815 380 382
f 817 382 380
f 817 380 703
f 146 818 192
f 192 704 146
f 704 816 146
f 704 702 816
f 703 506 817
f 817 506 508
f 630 508 506
f 630 632 508
f 740 632 630
f 740 742 632
f 852 742 740
f 852 854 742
f 20 854 852
f 20 22 854
f 818 22 192
f 22 144 192
f 22 20 144
f 704 192 144
f 878 867 705
f 878 706 867
f 819 647 707
f 707 647 645
f 647 755 645
f 757 755 647
f 869 878 705
f 755 869 705
f 757 869 755
f 35 706 878
f 869 35 878
f 37 35 869
f 176 159 820
f 159 37 820
f 159 35 37
f 176 708 159
f 414 395 709
f 821 523 414
f 523 395 414
f 523 521 395
f 707 521 523
f 707 523 819
f 822 178 176
f 822 176 820
f 708 176 710
f 710 176 178
f 823 273 711
f 711 273 271
f 397 414 709
f 271 397 709
f 273 397 271
f 821 414 397
f 161 178 822
f 161 824 178
f 824 710 178
f 824 712 710
f 825 711 713
f 825 823 711
f 162 826 182
f 182 714 162
f 714 824 162
f 714 712 824
f 827 713 715
f 827 825 713
f 716 160 182
f 826 716 182
f 828 716 826
f 714 182 160
f 829 715 717
f 829 827 715
f 870 830 718
f 870 718 868
f 36 870 868
f 36 38 870
f 36 716 38
f 38 716 828
f 717 272 829
f 829 272 274
f 272 719 424
f 398 272 424
f 274 272 398
f 831 398 424
f 648 832 668
f 648 668 720
f 756 648 720
f 758 648 756
f 756 718 758
f 758 718 830
f 396 424 719
f 424 396 831
f 396 524 831
f 396 522 524
f 832 524 668
f 524 646 668
f 524 522 646
f 720 668 646
f 901 617 785
f 785 617 615
f 617 725 615
f 727 725 617
f 727 837 725
f 839 837 727
f 786 837 47
f 837 7 47
f 837 839 7
f 47 7 177
f 177 7 131
f 131 902 177
f 903 493 787
f 787 493 491
f 785 491 493
f 785 493 901
f 47 5 786
f 179 788 5
f 47 179 5
f 177 179 47
f 177 902 179
f 179 902 904
f 905 367 417
f 789 417 367
f 903 789 367
f 787 789 903
f 179 129 788
f 179 904 129
f 904 790 129
f 904 906 790
f 419 907 417
f 417 907 905
f 417 789 791
f 417 791 419
f 790 908 792
f 906 908 790
f 421 909 419
f 419 909 907
f 419 791 793
f 419 793 421
f 130 185 794
f 130 792 185
f 792 910 185
f 792 908 910
f 423 911 421
f 421 911 909
f 421 793 492
f 549 421 492
f 423 421 549
f 795 549 492
f 187 796 794
f 187 794 185
f 185 910 187
f 187 910 912
f 423 368 911
f 368 423 494
f 494 423 549
f 669 913 616
f 616 913 795
f 913 494 795
f 494 549 795
f 797 669 616
f 189 798 796
f 189 796 187
f 187 912 189
f 189 912 914
f 669 618 913
f 797 726 669
f 726 618 669
f 726 728 618
f 838 897 915
f 728 838 915
f 726 838 728
f 8 916 897
f 838 8 897
f 6 8 838
f 189 132 798
f 132 6 798
f 132 8 6
f 189 914 132
f 897 840 915
f 897 916 840
f 917 855 799
f 799 855 853
f 855 21 853
f 23 21 855
f 23 918 21
f 21 918 800
f 919 633 655
f 655 633 801
f 633 741 801
f 633 743 741
f 799 741 743
f 799 743 917
f 145 800 918
f 145 918 147
f 308 287 920
f 287 147 920
f 287 145 147
f 308 802 287
f 921 383 413
f 413 383 803
f 383 507 803
f 383 509 507
f 509 919 655
f 631 509 655
f 507 509 631
f 655 801 631
f 289 308 920
f 289 922 308
f 922 802 308
f 922 804 802
f 923 259 805
f 805 259 257
f 259 921 413
f 381 259 413
f 257 259 381
f 413 803 381
f 804 924 806
f 922 924 804
f 925 805 807
f 925 923 805
f 290 926 314
f 314 808 290
f 808 924 290
f 808 806 924
f 166 127 809
f 807 127 166
f 927 807 166
f 925 807 927
f 810 288 314
f 926 810 314
f 928 810 926
f 808 314 288
f 128 166 809
f 927 166 128
f 811 927 128
f 929 927 811
f 810 930 812
f 928 930 810
f 260 929 300
f 929 813 300
f 929 811 813
f 931 260 300
f 812 932 814
f 930 932 812
f 258 300 813
f 931 300 258
f 815 931 258
f 933 931 815
f 814 934 816
f 932 934 814
f 815 382 933
f 933 382 384
f 935 384 382
f 935 382 817
f 148 936 818
f 148 818 146
f 146 816 148
f 148 816 934
f 817 508 935
f 935 508 510
f 632 510 508
f 632 634 510
f 742 634 632
f 742 744 634
f 854 744 742
f 854 856 744
f 22 856 854
f 22 24 856
f 22 818 24
f 24 818 936
f 937 649 819
f 819 649 647
f 649 757 647
f 759 757 649
f 759 869 757
f 871 869 759
f 46 37 938
f 37 871 938
f 37 869 871
f 46 820 37
f 939 525 821
f 821 525 523
f 819 523 525
f 819 525 937
f 39 46 938
f 39 940 46
f 940 820 46
f 940 822 820
f 292 273 823
f 941 399 292
f 399 273 292
f 399 397 273
f 821 397 399
f 821 399 939
f 942 180 161
f 822 942 161
f 940 942 822
f 180 824 161
f 825 294 823
f 823 294 292
f 941 292 294
f 941 294 943
f 826 162 180
f 942 826 180
f 944 826 942
f 824 180 162
f 827 296 825
f 825 296 294
f 943 294 296
f 943 296 945
f 826 946 828
f 944 946 826
f 829 298 827
f 827 298 296
f 945 296 298
f 945 298 947
f 870 891 830
f 40 948 891
f 870 40 891
f 38 40 870
f 38 828 40
f 40 828 946
f 274 298 829
f 298 274 947
f 274 400 947
f 274 398 400
f 398 831 550
f 526 398 550
f 400 398 526
f 526 550 832
f 648 526 832
f 650 526 648
f 758 650 648
f 758 760 650
f 891 872 830
f 872 758 830
f 872 760 758
f 891 948 872
f 524 550 831
f 832 550 524
f 65 133 173
f 173 133 305
f 305 133 275
f 305 275 429
f 429 275 401
f 401 66 429
f 67 9 45
f 65 173 9
f 173 45 9
f 173 175 45
f 173 307 175
f 173 305 307
f 305 431 307
f 305 429 431
f 429 66 431
f 431 66 68
f 69 619 901
f 901 619 617
f 619 727 617
f 729 727 619
f 729 839 727
f 841 839 729
f 841 67 45
f 7 841 45
f 839 841 7
f 175 131 7
f 175 7 45
f 309 902 131
f 175 309 131
f 307 309 175
f 307 433 309
f 307 431 433
f 431 68 433
f 433 68 70
f 71 495 903
f 903 495 493
f 901 493 495
f 901 495 69
f 311 904 902
f 311 902 309
f 309 435 311
f 309 433 435
f 433 70 435
f 435 70 72
f 73 245 293
f 293 245 905
f 245 367 905
f 245 369 367
f 903 367 369
f 903 369 71
f 313 906 904
f 313 904 311
f 74 313 402
f 313 435 402
f 313 311 435
f 435 72 402
f 295 75 293
f 293 75 73
f 293 905 907
f 293 907 295
f 315 908 906
f 315 906 313
f 313 74 315
f 315 74 76
f 297 77 295
f 295 77 75
f 295 907 909
f 295 909 297
f 317 910 908
f 317 908 315
f 315 76 317
f 317 76 78
f 299 79 297
f 297 79 77
f 297 909 911
f 297 911 299
f 319 912 910
f 319 910 317
f 317 78 319
f 319 78 80
f 299 246 79
f 911 368 299
f 368 246 299
f 368 370 246
f 494 551 81
f 370 494 81
f 368 494 370
f 913 551 494
f 321 914 912
f 321 912 319
f 319 80 321
f 321 80 82
f 551 496 81
f 913 618 551
f 618 496 551
f 618 620 496
f 728 783 83
f 620 728 83
f 618 728 620
f 915 783 728
f 8 61 916
f 132 191 61
f 132 61 8
f 191 132 914
f 321 191 914
f 323 191 321
f 321 82 323
f 323 82 84
f 783 730 83
f 915 840 783
f 840 730 783
f 840 842 730
f 61 10 916
f 10 840 916
f 10 842 840
f 10 61 134
f 134 61 191
f 134 191 276
f 276 191 323
f 323 84 276
f 85 745 765
f 765 745 917
f 745 855 917
f 745 857 855
f 857 23 855
f 25 23 857
f 25 86 23
f 23 86 918
f 87 635 919
f 919 635 633
f 635 85 765
f 743 635 765
f 633 635 743
f 765 917 743
f 147 918 86
f 147 86 149
f 149 88 147
f 147 88 920
f 89 385 921
f 921 385 383
f 385 509 383
f 511 509 385
f 919 509 511
f 919 511 87
f 90 310 289
f 920 90 289
f 88 90 920
f 310 922 289
f 91 261 923
f 923 261 259
f 921 259 261
f 921 261 89
f 92 312 310
f 92 310 90
f 922 310 924
f 924 310 312
f 93 923 925
f 93 91 923
f 926 290 312
f 92 926 312
f 94 926 92
f 924 312 290
f 95 925 927
f 95 93 925
f 926 96 928
f 94 96 926
f 97 927 929
f 97 95 927
f 928 98 930
f 96 98 928
f 929 260 97
f 97 260 262
f 99 262 260
f 99 260 931
f 930 100 932
f 98 100 930
f 101 931 933
f 101 99 931
f 932 102 934
f 100 102 932
f 933 384 101
f 101 384 386
f 384 935 554
f 512 384 554
f 386 384 512
f 103 512 554
f 26 104 62
f 26 62 936
f 148 26 936
f 150 26 148
f 148 934 150
f 150 934 102
f 510 554 935
f 554 510 103
f 510 636 103
f 510 634 636
f 744 636 634
f 744 746 636
f 856 746 744
f 856 858 746
f 104 858 62
f 858 24 62
f 858 856 24
f 936 62 24
f 656 649 937
f 105 761 656
f 761 649 656
f 761 759 649
f 880 871 106
f 871 761 106
f 871 759 761
f 880 938 871
f 107 527 939
f 939 527 525
f 651 656 937
f 525 651 937
f 527 651 525
f 105 656 651
f 873 880 106
f 39 938 880
f 873 39 880
f 41 39 873
f 41 108 39
f 39 108 940
f 416 399 941
f 939 399 416
f 109 939 416
f 107 939 109
f 940 110 942
f 108 110 940
f 943 418 941
f 941 418 416
f 109 416 418
f 109 418 111
f 942 112 944
f 110 112 942
f 945 420 943
f 943 420 418
f 111 418 420
f 111 420 113
f 944 114 946
f 112 114 944
f 947 422 945
f 945 422 420
f 548 528 113
f 420 548 113
f 422 548 420
f 115 528 548
f 874 116 892
f 874 892 948
f 40 874 948
f 42 874 40
f 40 946 42
f 42 946 114
f 400 422 947
f 526 548 400
f 400 548 422
f 548 526 115
f 526 652 115
f 526 650 652
f 760 652 650
f 760 762 652
f 116 762 892
f 762 872 892
f 762 760 872
f 948 892 872
