# Converted from NanoShaper .vert/.face
v 7.524000 -16.696000 -14.871000
v 9.721000 -16.696000 -14.871000
v 6.587000 -16.696000 -14.371000
v 10.348000 -16.696000 -14.371000
v 5.752000 -16.696000 -13.871000
v 10.560000 -16.696000 -13.871000
v 5.532000 -16.696000 -13.371000
v 10.594000 -16.696000 -13.371000
v 5.553000 -16.696000 -12.871000
v 10.574000 -16.696000 -12.871000
v 5.770000 -16.696000 -12.371000
v 10.378000 -16.696000 -12.371000
v 6.017000 -16.696000 -11.871000
v 9.882000 -16.696000 -11.871000
v 6.605000 -16.696000 -11.371000
v 9.382000 -16.696000 -11.371000
v 7.659000 -16.696000 -10.871000
v 8.783000 -16.696000 -10.871000
v 5.592000 -12.696000 -13.871000
v 9.855000 -12.696000 -13.871000
v 4.983000 -12.696000 -13.371000
v 10.383000 -12.696000 -13.371000
v 4.774000 -12.696000 -12.871000
v 10.567000 -12.696000 -12.871000
v 4.765000 -12.696000 -12.371000
v 10.578000 -12.696000 -12.371000
v 4.954000 -12.696000 -11.871000
v 10.591000 -12.696000 -11.871000
v 5.262000 -12.696000 -11.371000
v 10.549000 -12.696000 -11.371000
v 5.485000 -12.696000 -10.871000
v 10.350000 -12.696000 -10.871000
v 5.752000 -12.696000 -10.371000
v 10.007000 -12.696000 -10.371000
v 6.027000 -12.696000 -9.871000
v 9.815000 -12.696000 -9.871000
v 6.279000 -12.696000 -9.371000
v 9.553000 -12.696000 -9.371000
v 6.740000 -12.696000 -8.871000
v 9.354000 -12.696000 -8.871000
v 7.000000 -12.696000 -8.371000
v 9.117000 -12.696000 -8.371000
v 7.108000 -12.696000 -7.871000
v 8.451000 -12.696000 -7.871000
v 6.763000 -8.696000 -7.871000
v 8.663000 -8.696000 -7.871000
v 6.277000 -8.696000 -7.371000
v 9.145000 -8.696000 -7.371000
v 5.815000 -8.696000 -6.871000
v 9.392000 -8.696000 -6.871000
v 5.479000 -8.696000 -6.371000
v 9.525000 -8.696000 -6.371000
v 5.273000 -8.696000 -5.871000
v 9.571000 -8.696000 -5.871000
v 5.261000 -8.696000 -5.371000
v 9.583000 -8.696000 -5.371000
v 5.444000 -8.696000 -4.871000
v 9.400000 -8.696000 -4.871000
v 5.792000 -8.696000 -4.371000
v 8.881000 -8.696000 -4.371000
v 6.528000 -8.696000 -3.871000
v 8.206000 -8.696000 -3.871000
v 5.673000 -16.696000 -13.754000
v 5.673000 -16.696000 -12.573000
v 6.173000 -16.696000 -14.214000
v 6.173000 -16.696000 -11.675000
v 6.673000 -16.696000 -14.406000
v 6.673000 -16.696000 -11.342000
v 7.173000 -16.696000 -14.651000
v 7.173000 -16.696000 -11.163000
v 7.673000 -16.696000 -14.936000
v 7.673000 -16.696000 -10.864000
v 8.173000 -16.696000 -15.023000
v 8.173000 -16.696000 -10.751000
v 8.673000 -16.696000 -15.034000
v 8.673000 -16.696000 -10.827000
v 9.173000 -16.696000 -14.978000
v 9.173000 -16.696000 -11.135000
v 9.673000 -16.696000 -14.888000
v 9.673000 -16.696000 -11.640000
v 10.173000 -16.696000 -14.578000
v 10.173000 -16.696000 -12.120000
v 5.173000 -12.696000 -13.596000
v 5.173000 -12.696000 -11.526000
v 5.673000 -12.696000 -13.902000
v 5.673000 -12.696000 -10.476000
v 6.173000 -12.696000 -14.033000
v 6.173000 -12.696000 -9.517000
v 6.673000 -12.696000 -14.203000
v 6.673000 -12.696000 -8.968000
v 7.173000 -12.696000 -14.260000
v 7.173000 -12.696000 -7.743000
v 7.673000 -12.696000 -14.280000
v 7.673000 -12.696000 -7.470000
v 8.173000 -12.696000 -14.220000
v 8.173000 -12.696000 -7.682000
v 8.673000 -12.696000 -14.079000
v 8.673000 -12.696000 -8.010000
v 9.173000 -12.696000 -14.035000
v 9.173000 -12.696000 -8.449000
v 9.673000 -12.696000 -13.951000
v 9.673000 -12.696000 -9.548000
v 10.173000 -12.696000 -13.635000
v 10.173000 -12.696000 -10.632000
v 5.673000 -8.696000 -6.684000
v 5.673000 -8.696000 -4.522000
v 6.173000 -8.696000 -7.238000
v 6.173000 -8.696000 -4.070000
v 6.673000 -8.696000 -7.752000
v 6.673000 -8.696000 -3.804000
v 7.173000 -8.696000 -8.207000
v 7.173000 -8.696000 -3.713000
v 7.673000 -8.696000 -8.334000
v 7.673000 -8.696000 -3.744000
v 8.173000 -8.696000 -8.243000
v 8.173000 -8.696000 -3.856000
v 8.673000 -8.696000 -7.857000
v 8.673000 -8.696000 -4.212000
v 9.173000 -8.696000 -7.333000
v 9.173000 -8.696000 -4.588000
v 5.173000 -14.110000 -12.871000
v 5.173000 -11.853000 -12.871000
v 5.673000 -16.845000 -12.871000
v 5.673000 -10.299000 -12.871000
v 6.173000 -17.417000 -12.871000
v 6.173000 -9.861000 -12.871000
v 6.673000 -17.926000 -12.871000
v 6.673000 -9.650000 -12.871000
v 7.173000 -18.238000 -12.871000
v 7.173000 -9.447000 -12.871000
v 7.673000 -18.323000 -12.871000
v 7.673000 -9.316000 -12.871000
v 8.173000 -18.351000 -12.871000
v 8.173000 -9.408000 -12.871000
v 8.673000 -18.331000 -12.871000
v 8.673000 -9.806000 -12.871000
v 9.173000 -18.245000 -12.871000
v 9.173000 -10.535000 -12.871000
v 9.673000 -18.102000 -12.871000
v 9.673000 -11.281000 -12.871000
v 10.173000 -17.717000 -12.871000
v 10.173000 -11.837000 -12.871000
v 10.673000 -15.409000 -12.871000
v 10.673000 -13.367000 -12.871000
v 6.173000 -12.028000 -8.871000
v 6.173000 -10.723000 -8.871000
v 6.673000 -12.623000 -8.871000
v 6.673000 -9.914000 -8.871000
v 7.173000 -13.015000 -8.871000
v 7.173000 -9.466000 -8.871000
v 7.673000 -13.237000 -8.871000
v 7.673000 -9.341000 -8.871000
v 8.173000 -13.334000 -8.871000
v 8.173000 -9.295000 -8.871000
v 8.673000 -13.243000 -8.871000
v 8.673000 -9.379000 -8.871000
v 9.173000 -12.913000 -8.871000
v 9.173000 -9.526000 -8.871000
v 9.673000 -12.384000 -8.871000
v 9.673000 -9.675000 -8.871000
v 10.173000 -11.938000 -8.871000
v 10.173000 -9.989000 -8.871000
v 5.673000 -11.100000 -4.871000
v 5.673000 -8.180000 -4.871000
v 6.173000 -11.571000 -4.871000
v 6.173000 -7.799000 -4.871000
v 6.673000 -11.700000 -4.871000
v 6.673000 -7.659000 -4.871000
v 7.173000 -11.588000 -4.871000
v 7.173000 -7.586000 -4.871000
v 7.673000 -11.296000 -4.871000
v 7.673000 -7.591000 -4.871000
v 8.173000 -10.893000 -4.871000
v 8.173000 -7.669000 -4.871000
v 8.673000 -10.398000 -4.871000
v 8.673000 -7.789000 -4.871000
v 9.173000 -9.630000 -4.871000
v 9.173000 -8.174000 -4.871000
v 7.517000 -16.196000 -14.871000
v 9.317000 -16.196000 -14.871000
v 6.017000 -16.196000 -14.371000
v 10.099000 -16.196000 -14.371000
v 5.497000 -16.196000 -13.871000
v 10.412000 -16.196000 -13.871000
v 5.319000 -16.196000 -13.371000
v 10.559000 -16.196000 -13.371000
v 5.336000 -16.196000 -12.871000
v 10.561000 -16.196000 -12.871000
v 5.559000 -16.196000 -12.371000
v 10.367000 -16.196000 -12.371000
v 5.992000 -16.196000 -11.871000
v 9.884000 -16.196000 -11.871000
v 6.533000 -16.196000 -11.371000
v 9.399000 -16.196000 -11.371000
v 7.606000 -16.196000 -10.871000
v 8.811000 -16.196000 -10.871000
v 6.716000 -12.196000 -14.371000
v 8.180000 -12.196000 -14.371000
v 5.873000 -12.196000 -13.871000
v 9.282000 -12.196000 -13.871000
v 5.220000 -12.196000 -13.371000
v 10.158000 -12.196000 -13.371000
v 4.967000 -12.196000 -12.871000
v 10.382000 -12.196000 -12.871000
v 4.958000 -12.196000 -12.371000
v 10.492000 -12.196000 -12.371000
v 5.108000 -12.196000 -11.871000
v 10.537000 -12.196000 -11.871000
v 5.231000 -12.196000 -11.371000
v 10.536000 -12.196000 -11.371000
v 5.299000 -12.196000 -10.871000
v 10.352000 -12.196000 -10.871000
v 5.461000 -12.196000 -10.371000
v 10.144000 -12.196000 -10.371000
v 5.715000 -12.196000 -9.871000
v 10.052000 -12.196000 -9.871000
v 6.008000 -12.196000 -9.371000
v 9.984000 -12.196000 -9.371000
v 6.292000 -12.196000 -8.871000
v 9.857000 -12.196000 -8.871000
v 6.488000 -12.196000 -8.371000
v 9.587000 -12.196000 -8.371000
v 6.525000 -12.196000 -7.871000
v 9.041000 -12.196000 -7.871000
v 6.545000 -12.196000 -7.371000
v 8.621000 -12.196000 -7.371000
v 6.385000 -12.196000 -6.871000
v 7.910000 -12.196000 -6.871000
v 5.968000 -12.196000 -6.371000
v 7.399000 -12.196000 -6.371000
v 5.967000 -12.196000 -5.871000
v 7.282000 -12.196000 -5.871000
v 7.673000 -8.196000 -7.871000
v 7.730000 -8.196000 -7.871000
v 6.737000 -8.196000 -7.371000
v 8.643000 -8.196000 -7.371000
v 6.208000 -8.196000 -6.871000
v 9.126000 -8.196000 -6.871000
v 5.715000 -8.196000 -6.371000
v 9.338000 -8.196000 -6.371000
v 5.458000 -8.196000 -5.871000
v 9.392000 -8.196000 -5.871000
v 5.444000 -8.196000 -5.371000
v 9.406000 -8.196000 -5.371000
v 5.661000 -8.196000 -4.871000
v 9.190000 -8.196000 -4.871000
v 6.229000 -8.196000 -4.371000
v 8.552000 -8.196000 -4.371000
v 5.673000 -16.196000 -14.104000
v 5.673000 -16.196000 -12.231000
v 6.173000 -16.196000 -14.444000
v 6.173000 -16.196000 -11.639000
v 6.673000 -16.196000 -14.547000
v 6.673000 -16.196000 -11.307000
v 7.173000 -16.196000 -14.687000
v 7.173000 -16.196000 -11.123000
v 7.673000 -16.196000 -14.939000
v 7.673000 -16.196000 -10.842000
v 8.173000 -16.196000 -15.025000
v 8.173000 -16.196000 -10.739000
v 8.673000 -16.196000 -15.023000
v 8.673000 -16.196000 -10.814000
v 9.173000 -16.196000 -14.933000
v 9.173000 -16.196000 -11.118000
v 9.673000 -16.196000 -14.702000
v 9.673000 -16.196000 -11.639000
v 10.173000 -16.196000 -14.290000
v 10.173000 -16.196000 -12.126000
v 5.173000 -12.196000 -13.312000
v 5.173000 -12.196000 -11.651000
v 5.673000 -12.196000 -13.740000
v 5.673000 -12.196000 -9.928000
v 6.173000 -12.196000 -14.071000
v 6.173000 -12.196000 -9.044000
v 6.173000 -12.196000 -6.659000
v 6.173000 -12.196000 -5.581000
v 6.673000 -12.196000 -14.356000
v 6.673000 -12.196000 -5.419000
v 7.173000 -12.196000 -14.439000
v 7.173000 -12.196000 -5.681000
v 7.673000 -12.196000 -14.475000
v 7.673000 -12.196000 -6.710000
v 8.173000 -12.196000 -14.373000
v 8.173000 -12.196000 -7.013000
v 8.673000 -12.196000 -14.113000
v 8.673000 -12.196000 -7.445000
v 9.173000 -12.196000 -13.906000
v 9.173000 -12.196000 -8.007000
v 9.673000 -12.196000 -13.751000
v 9.673000 -12.196000 -8.491000
v 10.173000 -12.196000 -13.350000
v 10.173000 -12.196000 -10.452000
v 5.673000 -8.196000 -6.320000
v 5.673000 -8.196000 -4.854000
v 6.173000 -8.196000 -6.826000
v 6.173000 -8.196000 -4.424000
v 6.673000 -8.196000 -7.296000
v 6.673000 -8.196000 -4.029000
v 7.173000 -8.196000 -7.730000
v 7.173000 -8.196000 -3.927000
v 7.673000 -8.196000 -7.871000
v 7.673000 -8.196000 -3.953000
v 8.173000 -8.196000 -7.754000
v 8.173000 -8.196000 -4.083000
v 8.673000 -8.196000 -7.332000
v 8.673000 -8.196000 -4.456000
v 9.173000 -8.196000 -6.800000
v 9.173000 -8.196000 -4.849000
v 5.173000 -13.963000 -12.371000
v 5.173000 -11.785000 -12.371000
v 5.673000 -16.488000 -12.371000
v 5.673000 -9.964000 -12.371000
v 6.173000 -17.412000 -12.371000
v 6.173000 -9.622000 -12.371000
v 6.673000 -17.931000 -12.371000
v 6.673000 -9.329000 -12.371000
v 7.173000 -18.245000 -12.371000
v 7.173000 -9.197000 -12.371000
v 7.673000 -18.326000 -12.371000
v 7.673000 -9.119000 -12.371000
v 8.173000 -18.298000 -12.371000
v 8.173000 -9.197000 -12.371000
v 8.673000 -18.193000 -12.371000
v 8.673000 -9.506000 -12.371000
v 9.173000 -18.008000 -12.371000
v 9.173000 -10.310000 -12.371000
v 9.673000 -17.616000 -12.371000
v 9.673000 -11.015000 -12.371000
v 10.173000 -17.185000 -12.371000
v 10.173000 -11.538000 -12.371000
v 10.673000 -15.026000 -12.371000
v 10.673000 -13.618000 -12.371000
v 6.173000 -11.312000 -8.371000
v 6.173000 -11.177000 -8.371000
v 6.673000 -12.422000 -8.371000
v 6.673000 -9.740000 -8.371000
v 7.173000 -12.787000 -8.371000
v 7.173000 -8.962000 -8.371000
v 7.673000 -13.040000 -8.371000
v 7.673000 -8.760000 -8.371000
v 8.173000 -13.149000 -8.371000
v 8.173000 -8.865000 -8.371000
v 8.673000 -13.042000 -8.371000
v 8.673000 -9.138000 -8.371000
v 9.173000 -12.622000 -8.371000
v 9.173000 -9.467000 -8.371000
v 9.673000 -12.093000 -8.371000
v 9.673000 -9.790000 -8.371000
v 10.173000 -11.601000 -8.371000
v 10.173000 -10.326000 -8.371000
v 5.673000 -9.911000 -4.371000
v 5.673000 -8.887000 -4.371000
v 6.173000 -11.022000 -4.371000
v 6.173000 -8.260000 -4.371000
v 6.673000 -11.279000 -4.371000
v 6.673000 -7.869000 -4.371000
v 7.173000 -11.301000 -4.371000
v 7.173000 -7.770000 -4.371000
v 7.673000 -11.184000 -4.371000
v 7.673000 -7.786000 -4.371000
v 8.173000 -10.844000 -4.371000
v 8.173000 -7.915000 -4.371000
v 8.673000 -10.110000 -4.371000
v 8.673000 -8.325000 -4.371000
v 7.477000 -15.696000 -14.871000
v 9.235000 -15.696000 -14.871000
v 5.989000 -15.696000 -14.371000
v 9.894000 -15.696000 -14.371000
v 5.465000 -15.696000 -13.871000
v 10.372000 -15.696000 -13.871000
v 5.271000 -15.696000 -13.371000
v 10.574000 -15.696000 -13.371000
v 5.271000 -15.696000 -12.871000
v 10.582000 -15.696000 -12.871000
v 5.468000 -15.696000 -12.371000
v 10.384000 -15.696000 -12.371000
v 5.948000 -15.696000 -11.871000
v 9.900000 -15.696000 -11.871000
v 6.494000 -15.696000 -11.371000
v 9.390000 -15.696000 -11.371000
v 7.536000 -15.696000 -10.871000
v 8.803000 -15.696000 -10.871000
v 6.541000 -11.696000 -14.371000
v 8.213000 -11.696000 -14.371000
v 5.974000 -11.696000 -13.871000
v 8.904000 -11.696000 -13.871000
v 5.471000 -11.696000 -13.371000
v 9.611000 -11.696000 -13.371000
v 5.236000 -11.696000 -12.871000
v 10.076000 -11.696000 -12.871000
v 5.205000 -11.696000 -12.371000
v 10.293000 -11.696000 -12.371000
v 5.245000 -11.696000 -11.871000
v 10.322000 -11.696000 -11.871000
v 5.251000 -11.696000 -11.371000
v 10.319000 -11.696000 -11.371000
v 5.264000 -11.696000 -10.871000
v 10.229000 -11.696000 -10.871000
v 5.291000 -11.696000 -10.371000
v 10.211000 -11.696000 -10.371000
v 5.490000 -11.696000 -9.871000
v 10.270000 -11.696000 -9.871000
v 5.806000 -11.696000 -9.371000
v 10.387000 -11.696000 -9.371000
v 6.031000 -11.696000 -8.871000
v 10.368000 -11.696000 -8.871000
v 6.251000 -11.696000 -8.371000
v 10.103000 -11.696000 -8.371000
v 6.272000 -11.696000 -7.871000
v 9.514000 -11.696000 -7.871000
v 6.097000 -11.696000 -7.371000
v 9.088000 -11.696000 -7.371000
v 5.680000 -11.696000 -6.871000
v 8.582000 -11.696000 -6.871000
v 5.445000 -11.696000 -6.371000
v 8.074000 -11.696000 -6.371000
v 5.444000 -11.696000 -5.871000
v 7.830000 -11.696000 -5.871000
v 5.679000 -11.696000 -5.371000
v 7.570000 -11.696000 -5.371000
v 6.587000 -11.696000 -4.871000
v 6.762000 -11.696000 -4.871000
v 7.009000 -7.696000 -6.871000
v 8.367000 -7.696000 -6.871000
v 6.486000 -7.696000 -6.371000
v 8.804000 -7.696000 -6.371000
v 5.995000 -7.696000 -5.871000
v 8.874000 -7.696000 -5.871000
v 5.969000 -7.696000 -5.371000
v 8.896000 -7.696000 -5.371000
v 6.520000 -7.696000 -4.871000
v 8.319000 -7.696000 -4.871000
v 5.673000 -15.696000 -14.133000
v 5.673000 -15.696000 -12.121000
v 6.173000 -15.696000 -14.457000
v 6.173000 -15.696000 -11.628000
v 6.673000 -15.696000 -14.561000
v 6.673000 -15.696000 -11.261000
v 7.173000 -15.696000 -14.708000
v 7.173000 -15.696000 -11.023000
v 7.673000 -15.696000 -14.956000
v 7.673000 -15.696000 -10.821000
v 8.173000 -15.696000 -15.032000
v 8.173000 -15.696000 -10.724000
v 8.673000 -15.696000 -14.998000
v 8.673000 -15.696000 -10.814000
v 9.173000 -15.696000 -14.896000
v 9.173000 -15.696000 -11.141000
v 9.673000 -15.696000 -14.594000
v 9.673000 -15.696000 -11.625000
v 10.173000 -15.696000 -14.123000
v 10.173000 -15.696000 -12.118000
v 5.673000 -11.696000 -13.587000
v 5.673000 -11.696000 -9.618000
v 5.673000 -11.696000 -6.862000
v 5.673000 -11.696000 -5.378000
v 6.173000 -11.696000 -14.090000
v 6.173000 -11.696000 -8.598000
v 6.173000 -11.696000 -7.523000
v 6.173000 -11.696000 -4.991000
v 6.673000 -11.696000 -14.432000
v 6.673000 -11.696000 -4.867000
v 7.173000 -11.696000 -14.533000
v 7.173000 -11.696000 -5.011000
v 7.673000 -11.696000 -14.492000
v 7.673000 -11.696000 -5.519000
v 8.173000 -11.696000 -14.387000
v 8.173000 -11.696000 -6.476000
v 8.673000 -11.696000 -14.049000
v 8.673000 -11.696000 -6.981000
v 9.173000 -11.696000 -13.711000
v 9.173000 -11.696000 -7.492000
v 9.673000 -11.696000 -13.298000
v 9.673000 -11.696000 -8.028000
v 10.173000 -11.696000 -12.717000
v 10.173000 -11.696000 -8.458000
v 6.173000 -7.696000 -6.110000
v 6.173000 -7.696000 -5.064000
v 6.673000 -7.696000 -6.615000
v 6.673000 -7.696000 -4.748000
v 7.173000 -7.696000 -7.091000
v 7.173000 -7.696000 -4.509000
v 7.673000 -7.696000 -7.326000
v 7.673000 -7.696000 -4.536000
v 8.173000 -7.696000 -7.126000
v 8.173000 -7.696000 -4.800000
v 8.673000 -7.696000 -6.605000
v 8.673000 -7.696000 -5.040000
v 5.173000 -13.656000 -11.871000
v 5.173000 -12.002000 -11.871000
v 5.673000 -14.134000 -11.871000
v 5.673000 -9.950000 -11.871000
v 6.173000 -17.088000 -11.871000
v 6.173000 -9.448000 -11.871000
v 6.673000 -17.652000 -11.871000
v 6.673000 -9.123000 -11.871000
v 7.173000 -18.048000 -11.871000
v 7.173000 -9.035000 -11.871000
v 7.673000 -18.142000 -11.871000
v 7.673000 -9.098000 -11.871000
v 8.173000 -18.099000 -11.871000
v 8.173000 -9.196000 -11.871000
v 8.673000 -17.964000 -11.871000
v 8.673000 -9.505000 -11.871000
v 9.173000 -17.578000 -11.871000
v 9.173000 -10.021000 -11.871000
v 9.673000 -17.148000 -11.871000
v 9.673000 -10.946000 -11.871000
v 10.173000 -15.006000 -11.871000
v 10.173000 -11.514000 -11.871000
v 6.173000 -11.327000 -7.871000
v 6.173000 -10.796000 -7.871000
v 6.673000 -12.382000 -7.871000
v 6.673000 -8.833000 -7.871000
v 7.173000 -12.725000 -7.871000
v 7.173000 -8.343000 -7.871000
v 7.673000 -12.832000 -7.871000
v 7.673000 -8.196000 -7.871000
v 8.173000 -12.797000 -7.871000
v 8.173000 -8.308000 -7.871000
v 8.673000 -12.548000 -7.871000
v 8.673000 -8.711000 -7.871000
v 9.173000 -12.031000 -7.871000
v 9.173000 -9.252000 -7.871000
v 9.673000 -11.489000 -7.871000
v 9.673000 -9.943000 -7.871000
v 6.173000 -10.511000 -3.871000
v 6.173000 -9.172000 -3.871000
v 6.673000 -10.961000 -3.871000
v 6.673000 -8.486000 -3.871000
v 7.173000 -11.073000 -3.871000
v 7.173000 -8.290000 -3.871000
v 7.673000 -10.959000 -3.871000
v 7.673000 -8.338000 -3.871000
v 8.173000 -10.502000 -3.871000
v 8.173000 -8.637000 -3.871000
v 7.478000 -15.196000 -14.871000
v 9.209000 -15.196000 -14.871000
v 6.032000 -15.196000 -14.371000
v 9.932000 -15.196000 -14.371000
v 5.480000 -15.196000 -13.871000
v 10.526000 -15.196000 -13.871000
v 5.284000 -15.196000 -13.371000
v 10.768000 -15.196000 -13.371000
v 5.286000 -15.196000 -12.871000
v 10.782000 -15.196000 -12.871000
v 5.486000 -15.196000 -12.371000
v 10.565000 -15.196000 -12.371000
v 5.999000 -15.196000 -11.871000
v 10.062000 -15.196000 -11.871000
v 6.479000 -15.196000 -11.371000
v 9.602000 -15.196000 -11.371000
v 7.121000 -15.196000 -10.871000
v 8.878000 -15.196000 -10.871000
v 6.569000 -11.196000 -14.371000
v 8.147000 -11.196000 -14.371000
v 6.018000 -11.196000 -13.871000
v 8.803000 -11.196000 -13.871000
v 5.547000 -11.196000 -13.371000
v 9.331000 -11.196000 -13.371000
v 5.334000 -11.196000 -12.871000
v 9.609000 -11.196000 -12.871000
v 5.288000 -11.196000 -12.371000
v 9.822000 -11.196000 -12.371000
v 5.283000 -11.196000 -11.871000
v 9.850000 -11.196000 -11.871000
v 5.279000 -11.196000 -11.371000
v 9.873000 -11.196000 -11.371000
v 5.279000 -11.196000 -10.871000
v 9.947000 -11.196000 -10.871000
v 5.300000 -11.196000 -10.371000
v 10.154000 -11.196000 -10.371000
v 5.501000 -11.196000 -9.871000
v 10.401000 -11.196000 -9.871000
v 5.800000 -11.196000 -9.371000
v 10.577000 -11.196000 -9.371000
v 6.006000 -11.196000 -8.871000
v 10.561000 -11.196000 -8.871000
v 6.172000 -11.196000 -8.371000
v 10.342000 -11.196000 -8.371000
v 6.151000 -11.196000 -7.871000
v 9.807000 -11.196000 -7.871000
v 5.882000 -11.196000 -7.371000
v 9.390000 -11.196000 -7.371000
v 5.462000 -11.196000 -6.871000
v 9.099000 -11.196000 -6.871000
v 5.263000 -11.196000 -6.371000
v 8.628000 -11.196000 -6.371000
v 5.263000 -11.196000 -5.871000
v 8.335000 -11.196000 -5.871000
v 5.453000 -11.196000 -5.371000
v 8.083000 -11.196000 -5.371000
v 5.739000 -11.196000 -4.871000
v 7.809000 -11.196000 -4.871000
v 6.431000 -11.196000 -4.371000
v 7.641000 -11.196000 -4.371000
v 5.673000 -15.196000 -14.112000
v 5.673000 -15.196000 -12.141000
v 6.173000 -15.196000 -14.433000
v 6.173000 -15.196000 -11.689000
v 6.673000 -15.196000 -14.535000
v 6.673000 -15.196000 -11.159000
v 7.173000 -15.196000 -14.699000
v 7.173000 -15.196000 -10.851000
v 7.673000 -15.196000 -14.956000
v 7.673000 -15.196000 -10.765000
v 8.173000 -15.196000 -15.032000
v 8.173000 -15.196000 -10.720000
v 8.673000 -15.196000 -14.970000
v 8.673000 -15.196000 -10.802000
v 9.173000 -15.196000 -14.884000
v 9.173000 -15.196000 -11.017000
v 9.673000 -15.196000 -14.578000
v 9.673000 -15.196000 -11.454000
v 10.173000 -15.196000 -14.188000
v 10.173000 -15.196000 -11.986000
v 10.673000 -15.196000 -13.631000
v 10.673000 -15.196000 -12.550000
v 5.673000 -11.196000 -13.529000
v 5.673000 -11.196000 -9.625000
v 5.673000 -11.196000 -7.129000
v 5.673000 -11.196000 -4.971000
v 6.173000 -11.196000 -14.068000
v 6.173000 -11.196000 -4.503000
v 6.673000 -11.196000 -14.419000
v 6.673000 -11.196000 -4.256000
v 7.173000 -11.196000 -14.520000
v 7.173000 -11.196000 -4.101000
v 7.673000 -11.196000 -14.473000
v 7.673000 -11.196000 -4.436000
v 8.173000 -11.196000 -14.360000
v 8.173000 -11.196000 -5.508000
v 8.673000 -11.196000 -13.991000
v 8.673000 -11.196000 -6.432000
v 9.173000 -11.196000 -13.571000
v 9.173000 -11.196000 -6.975000
v 9.673000 -11.196000 -12.720000
v 9.673000 -11.196000 -7.728000
v 10.173000 -11.196000 -10.330000
v 10.173000 -11.196000 -8.173000
v 5.673000 -13.553000 -11.371000
v 5.673000 -10.225000 -11.371000
v 6.173000 -14.160000 -11.371000
v 6.173000 -9.454000 -11.371000
v 6.673000 -16.820000 -11.371000
v 6.673000 -9.127000 -11.371000
v 7.173000 -17.439000 -11.371000
v 7.173000 -9.039000 -11.371000
v 7.673000 -17.627000 -11.371000
v 7.673000 -9.140000 -11.371000
v 8.173000 -17.614000 -11.371000
v 8.173000 -9.379000 -11.371000
v 8.673000 -17.506000 -11.371000
v 8.673000 -9.597000 -11.371000
v 9.173000 -17.115000 -11.371000
v 9.173000 -9.979000 -11.371000
v 9.673000 -15.080000 -11.371000
v 9.673000 -10.911000 -11.371000
v 10.173000 -13.699000 -11.371000
v 10.173000 -11.515000 -11.371000
v 6.173000 -11.813000 -7.371000
v 6.173000 -8.826000 -7.371000
v 6.673000 -12.289000 -7.371000
v 6.673000 -8.284000 -7.371000
v 7.173000 -12.540000 -7.371000
v 7.173000 -7.840000 -7.371000
v 7.673000 -12.642000 -7.371000
v 7.673000 -7.723000 -7.371000
v 8.173000 -12.539000 -7.371000
v 8.173000 -7.825000 -7.371000
v 8.673000 -12.127000 -7.371000
v 8.673000 -8.234000 -7.371000
v 9.173000 -11.575000 -7.371000
v 9.173000 -8.736000 -7.371000
v 6.673000 -10.202000 -3.371000
v 6.673000 -9.612000 -3.371000
v 7.173000 -10.485000 -3.371000
v 7.173000 -9.329000 -3.371000
v 7.673000 -10.192000 -3.371000
v 7.673000 -9.622000 -3.371000
v 6.018000 -14.696000 -14.371000
v 10.122000 -14.696000 -14.371000
v 5.474000 -14.696000 -13.871000
v 10.761000 -14.696000 -13.871000
v 5.282000 -14.696000 -13.371000
v 10.977000 -14.696000 -13.371000
v 5.286000 -14.696000 -12.871000
v 10.989000 -14.696000 -12.871000
v 5.487000 -14.696000 -12.371000
v 10.804000 -14.696000 -12.371000
v 5.980000 -14.696000 -11.871000
v 10.320000 -14.696000 -11.871000
v 6.433000 -14.696000 -11.371000
v 9.833000 -14.696000 -11.371000
v 7.003000 -14.696000 -10.871000
v 9.214000 -14.696000 -10.871000
v 6.284000 -10.696000 -13.871000
v 8.513000 -10.696000 -13.871000
v 5.812000 -10.696000 -13.371000
v 9.062000 -10.696000 -13.371000
v 5.496000 -10.696000 -12.871000
v 9.306000 -10.696000 -12.871000
v 5.303000 -10.696000 -12.371000
v 9.410000 -10.696000 -12.371000
v 5.292000 -10.696000 -11.871000
v 9.553000 -10.696000 -11.871000
v 5.417000 -10.696000 -11.371000
v 9.566000 -10.696000 -11.371000
v 5.492000 -10.696000 -10.871000
v 9.645000 -10.696000 -10.871000
v 5.511000 -10.696000 -10.371000
v 9.957000 -10.696000 -10.371000
v 5.749000 -10.696000 -9.871000
v 10.390000 -10.696000 -9.871000
v 5.994000 -10.696000 -9.371000
v 10.571000 -10.696000 -9.371000
v 6.187000 -10.696000 -8.871000
v 10.555000 -10.696000 -8.871000
v 6.261000 -10.696000 -8.371000
v 10.334000 -10.696000 -8.371000
v 6.194000 -10.696000 -7.871000
v 9.871000 -10.696000 -7.871000
v 5.931000 -10.696000 -7.371000
v 9.551000 -10.696000 -7.371000
v 5.478000 -10.696000 -6.871000
v 9.388000 -10.696000 -6.871000
v 5.278000 -10.696000 -6.371000
v 9.159000 -10.696000 -6.371000
v 5.275000 -10.696000 -5.871000
v 8.813000 -10.696000 -5.871000
v 5.340000 -10.696000 -5.371000
v 8.555000 -10.696000 -5.371000
v 5.518000 -10.696000 -4.871000
v 8.353000 -10.696000 -4.871000
v 5.937000 -10.696000 -4.371000
v 8.293000 -10.696000 -4.371000
v 6.313000 -10.696000 -3.871000
v 8.028000 -10.696000 -3.871000
v 5.673000 -14.696000 -14.120000
v 5.673000 -14.696000 -12.134000
v 6.173000 -14.696000 -14.439000
v 6.173000 -14.696000 -11.671000
v 6.673000 -14.696000 -14.528000
v 6.673000 -14.696000 -11.112000
v 7.173000 -14.696000 -14.603000
v 7.173000 -14.696000 -10.790000
v 7.673000 -14.696000 -14.748000
v 7.673000 -14.696000 -10.692000
v 8.173000 -14.696000 -14.836000
v 8.173000 -14.696000 -10.667000
v 8.673000 -14.696000 -14.777000
v 8.673000 -14.696000 -10.748000
v 9.173000 -14.696000 -14.698000
v 9.173000 -14.696000 -10.855000
v 9.673000 -14.696000 -14.529000
v 9.673000 -14.696000 -11.180000
v 10.173000 -14.696000 -14.350000
v 10.173000 -14.696000 -11.714000
v 10.673000 -14.696000 -13.984000
v 10.673000 -14.696000 -12.191000
v 5.673000 -10.696000 -13.183000
v 5.673000 -10.696000 -9.985000
v 5.673000 -10.696000 -7.106000
v 5.673000 -10.696000 -4.658000
v 6.173000 -10.696000 -13.726000
v 6.173000 -10.696000 -8.910000
v 6.173000 -10.696000 -7.807000
v 6.173000 -10.696000 -4.058000
v 6.673000 -10.696000 -14.186000
v 6.673000 -10.696000 -3.602000
v 7.173000 -10.696000 -14.308000
v 7.173000 -10.696000 -3.490000
v 7.673000 -10.696000 -14.275000
v 7.673000 -10.696000 -3.605000
v 8.173000 -10.696000 -14.140000
v 8.173000 -10.696000 -4.070000
v 8.673000 -10.696000 -13.703000
v 8.673000 -10.696000 -5.561000
v 9.173000 -10.696000 -13.212000
v 9.173000 -10.696000 -6.390000
v 9.673000 -10.696000 -10.797000
v 9.673000 -10.696000 -7.605000
v 10.173000 -10.696000 -10.147000
v 10.173000 -10.696000 -8.182000
v 7.673000 -17.385000 -14.871000
v 7.673000 -14.920000 -14.871000
v 8.173000 -17.599000 -14.871000
v 8.173000 -14.754000 -14.871000
v 8.673000 -17.679000 -14.871000
v 8.673000 -14.873000 -14.871000
v 9.173000 -17.579000 -14.871000
v 9.173000 -15.133000 -14.871000
v 9.673000 -17.363000 -14.871000
v 9.673000 -16.629000 -14.871000
v 5.673000 -13.069000 -10.871000
v 5.673000 -10.450000 -10.871000
v 6.173000 -13.600000 -10.871000
v 6.173000 -9.758000 -10.871000
v 6.673000 -14.134000 -10.871000
v 6.673000 -9.344000 -10.871000
v 7.173000 -15.286000 -10.871000
v 7.173000 -9.240000 -10.871000
v 7.673000 -16.723000 -10.871000
v 7.673000 -9.345000 -10.871000
v 8.173000 -17.041000 -10.871000
v 8.173000 -9.502000 -10.871000
v 8.673000 -16.851000 -10.871000
v 8.673000 -9.620000 -10.871000
v 9.173000 -14.770000 -10.871000
v 9.173000 -9.941000 -10.871000
v 9.673000 -13.638000 -10.871000
v 9.673000 -10.755000 -10.871000
v 10.173000 -13.135000 -10.871000
v 10.173000 -11.565000 -10.871000
v 5.673000 -11.687000 -6.871000
v 5.673000 -8.903000 -6.871000
v 6.173000 -12.095000 -6.871000
v 6.173000 -8.244000 -6.871000
v 6.673000 -12.294000 -6.871000
v 6.673000 -7.836000 -6.871000
v 7.173000 -12.363000 -6.871000
v 7.173000 -7.636000 -6.871000
v 7.673000 -12.294000 -6.871000
v 7.673000 -7.537000 -6.871000
v 8.173000 -12.043000 -6.871000
v 8.173000 -7.624000 -6.871000
v 8.673000 -11.594000 -6.871000
v 8.673000 -7.828000 -6.871000
v 9.173000 -11.087000 -6.871000
v 9.173000 -8.265000 -6.871000
v 7.559000 -18.196000 -13.871000
v 9.886000 -18.196000 -13.871000
v 7.147000 -18.196000 -13.371000
v 9.902000 -18.196000 -13.371000
v 7.070000 -18.196000 -12.871000
v 9.359000 -18.196000 -12.871000
v 7.056000 -18.196000 -12.371000
v 8.664000 -18.196000 -12.371000
v 6.044000 -14.196000 -14.371000
v 10.146000 -14.196000 -14.371000
v 5.481000 -14.196000 -13.871000
v 10.772000 -14.196000 -13.871000
v 5.261000 -14.196000 -13.371000
v 10.986000 -14.196000 -13.371000
v 5.200000 -14.196000 -12.871000
v 10.998000 -14.196000 -12.871000
v 5.315000 -14.196000 -12.371000
v 10.814000 -14.196000 -12.371000
v 5.725000 -14.196000 -11.871000
v 10.383000 -14.196000 -11.871000
v 6.199000 -14.196000 -11.371000
v 9.910000 -14.196000 -11.371000
v 6.727000 -14.196000 -10.871000
v 9.350000 -14.196000 -10.871000
v 6.202000 -10.196000 -13.371000
v 8.634000 -10.196000 -13.371000
v 5.746000 -10.196000 -12.871000
v 8.908000 -10.196000 -12.871000
v 5.492000 -10.196000 -12.371000
v 9.108000 -10.196000 -12.371000
v 5.479000 -10.196000 -11.871000
v 9.319000 -10.196000 -11.871000
v 5.694000 -10.196000 -11.371000
v 9.343000 -10.196000 -11.371000
v 5.871000 -10.196000 -10.871000
v 9.403000 -10.196000 -10.871000
v 6.006000 -10.196000 -10.371000
v 9.636000 -10.196000 -10.371000
v 6.058000 -10.196000 -9.871000
v 10.146000 -10.196000 -9.871000
v 6.287000 -10.196000 -9.371000
v 10.365000 -10.196000 -9.371000
v 6.458000 -10.196000 -8.871000
v 10.346000 -10.196000 -8.871000
v 6.429000 -10.196000 -8.371000
v 10.077000 -10.196000 -8.371000
v 6.280000 -10.196000 -7.871000
v 9.779000 -10.196000 -7.871000
v 5.960000 -10.196000 -7.371000
v 9.635000 -10.196000 -7.371000
v 5.497000 -10.196000 -6.871000
v 9.576000 -10.196000 -6.871000
v 5.292000 -10.196000 -6.371000
v 9.440000 -10.196000 -6.371000
v 5.286000 -10.196000 -5.871000
v 9.335000 -10.196000 -5.871000
v 5.340000 -10.196000 -5.371000
v 9.079000 -10.196000 -5.371000
v 5.482000 -10.196000 -4.871000
v 8.834000 -10.196000 -4.871000
v 5.788000 -10.196000 -4.371000
v 8.613000 -10.196000 -4.371000
v 6.041000 -10.196000 -3.871000
v 8.300000 -10.196000 -3.871000
v 6.670000 -10.196000 -3.371000
v 7.671000 -10.196000 -3.371000
v 7.173000 -18.196000 -13.417000
v 7.173000 -18.196000 -12.178000
v 7.673000 -18.196000 -14.053000
v 7.673000 -18.196000 -11.969000
v 8.173000 -18.196000 -14.271000
v 8.173000 -18.196000 -12.049000
v 8.673000 -18.196000 -14.354000
v 8.673000 -18.196000 -12.380000
v 9.173000 -18.196000 -14.316000
v 9.173000 -18.196000 -12.729000
v 9.673000 -18.196000 -14.157000
v 9.673000 -18.196000 -13.040000
v 5.673000 -14.196000 -14.109000
v 5.673000 -14.196000 -11.917000
v 6.173000 -14.196000 -14.425000
v 6.173000 -14.196000 -11.404000
v 6.673000 -14.196000 -14.507000
v 6.673000 -14.196000 -10.913000
v 7.173000 -14.196000 -14.439000
v 7.173000 -14.196000 -10.665000
v 7.673000 -14.196000 -14.376000
v 7.673000 -14.196000 -10.536000
v 8.173000 -14.196000 -14.414000
v 8.173000 -14.196000 -10.438000
v 8.673000 -14.196000 -14.504000
v 8.673000 -14.196000 -10.529000
v 9.173000 -14.196000 -14.550000
v 9.173000 -14.196000 -10.774000
v 9.673000 -14.196000 -14.475000
v 9.673000 -14.196000 -11.122000
v 10.173000 -14.196000 -14.359000
v 10.173000 -14.196000 -11.638000
v 10.673000 -14.196000 -13.997000
v 10.673000 -14.196000 -12.177000
v 5.673000 -10.196000 -12.777000
v 5.673000 -10.196000 -11.405000
v 5.673000 -10.196000 -7.086000
v 5.673000 -10.196000 -4.545000
v 6.173000 -10.196000 -13.331000
v 6.173000 -10.196000 -9.568000
v 6.173000 -10.196000 -7.662000
v 6.173000 -10.196000 -3.707000
v 6.673000 -10.196000 -13.736000
v 6.673000 -10.196000 -3.369000
v 7.173000 -10.196000 -13.832000
v 7.173000 -10.196000 -3.276000
v 7.673000 -10.196000 -13.836000
v 7.673000 -10.196000 -3.372000
v 8.173000 -10.196000 -13.727000
v 8.173000 -10.196000 -3.713000
v 8.673000 -10.196000 -13.318000
v 8.673000 -10.196000 -4.462000
v 9.173000 -10.196000 -12.237000
v 9.173000 -10.196000 -5.497000
v 9.673000 -10.196000 -10.325000
v 9.673000 -10.196000 -7.552000
v 10.173000 -10.196000 -9.832000
v 10.173000 -10.196000 -8.495000
v 6.173000 -16.424000 -14.371000
v 6.173000 -14.002000 -14.371000
v 6.673000 -16.776000 -14.371000
v 6.673000 -13.804000 -14.371000
v 6.673000 -12.125000 -14.371000
v 6.673000 -11.034000 -14.371000
v 7.173000 -17.622000 -14.371000
v 7.173000 -14.039000 -14.371000
v 7.173000 -12.418000 -14.371000
v 7.173000 -10.798000 -14.371000
v 7.673000 -18.038000 -14.371000
v 7.673000 -14.190000 -14.371000
v 7.673000 -12.512000 -14.371000
v 7.673000 -10.871000 -14.371000
v 8.173000 -18.140000 -14.371000
v 8.173000 -14.140000 -14.371000
v 8.173000 -12.209000 -14.371000
v 8.173000 -11.258000 -14.371000
v 8.673000 -18.187000 -14.371000
v 8.673000 -13.909000 -14.371000
v 9.173000 -18.162000 -14.371000
v 9.173000 -13.707000 -14.371000
v 9.673000 -18.071000 -14.371000
v 9.673000 -13.854000 -14.371000
v 10.173000 -17.669000 -14.371000
v 10.173000 -16.318000 -14.371000
v 5.673000 -12.594000 -10.371000
v 5.673000 -10.500000 -10.371000
v 6.173000 -13.124000 -10.371000
v 6.173000 -9.992000 -10.371000
v 6.673000 -13.549000 -10.371000
v 6.673000 -9.605000 -10.371000
v 7.173000 -13.729000 -10.371000
v 7.173000 -9.496000 -10.371000
v 7.673000 -13.918000 -10.371000
v 7.673000 -9.534000 -10.371000
v 8.173000 -14.087000 -10.371000
v 8.173000 -9.592000 -10.371000
v 8.673000 -13.928000 -10.371000
v 8.673000 -9.648000 -10.371000
v 9.173000 -13.545000 -10.371000
v 9.173000 -9.848000 -10.371000
v 9.673000 -13.127000 -10.371000
v 9.673000 -10.236000 -10.371000
v 10.173000 -12.060000 -10.371000
v 10.173000 -11.283000 -10.371000
v 5.673000 -11.982000 -6.371000
v 5.673000 -8.252000 -6.371000
v 6.173000 -12.287000 -6.371000
v 6.173000 -7.841000 -6.371000
v 6.673000 -12.362000 -6.371000
v 6.673000 -7.622000 -6.371000
v 7.173000 -12.282000 -6.371000
v 7.173000 -7.541000 -6.371000
v 7.673000 -12.028000 -6.371000
v 7.673000 -7.544000 -6.371000
v 8.173000 -11.620000 -6.371000
v 8.173000 -7.537000 -6.371000
v 8.673000 -11.144000 -6.371000
v 8.673000 -7.636000 -6.371000
v 9.173000 -10.678000 -6.371000
v 9.173000 -7.979000 -6.371000
v 7.229000 -17.696000 -14.371000
v 10.153000 -17.696000 -14.371000
v 6.757000 -17.696000 -13.871000
v 10.400000 -17.696000 -13.871000
v 6.510000 -17.696000 -13.371000
v 10.410000 -17.696000 -13.371000
v 6.470000 -17.696000 -12.871000
v 10.189000 -17.696000 -12.871000
v 6.471000 -17.696000 -12.371000
v 9.579000 -17.696000 -12.371000
v 6.708000 -17.696000 -11.871000
v 9.020000 -17.696000 -11.871000
v 5.586000 -13.696000 -13.871000
v 10.538000 -13.696000 -13.871000
v 5.176000 -13.696000 -13.371000
v 10.796000 -13.696000 -13.371000
v 4.983000 -13.696000 -12.871000
v 10.812000 -13.696000 -12.871000
v 4.975000 -13.696000 -12.371000
v 10.689000 -13.696000 -12.371000
v 5.206000 -13.696000 -11.871000
v 10.483000 -13.696000 -11.871000
v 5.797000 -13.696000 -11.371000
v 10.175000 -13.696000 -11.371000
v 6.250000 -13.696000 -10.871000
v 9.618000 -13.696000 -10.871000
v 7.042000 -13.696000 -10.371000
v 8.946000 -13.696000 -10.371000
v 6.567000 -9.696000 -12.871000
v 8.584000 -9.696000 -12.871000
v 6.038000 -9.696000 -12.371000
v 8.837000 -9.696000 -12.371000
v 5.940000 -9.696000 -11.871000
v 8.852000 -9.696000 -11.871000
v 5.985000 -9.696000 -11.371000
v 8.831000 -9.696000 -11.371000
v 6.221000 -9.696000 -10.871000
v 8.836000 -9.696000 -10.871000
v 6.504000 -9.696000 -10.371000
v 8.854000 -9.696000 -10.371000
v 6.661000 -9.696000 -9.871000
v 9.261000 -9.696000 -9.871000
v 6.873000 -9.696000 -9.371000
v 9.770000 -9.696000 -9.371000
v 6.857000 -9.696000 -8.871000
v 9.730000 -9.696000 -8.871000
v 6.695000 -9.696000 -8.371000
v 9.553000 -9.696000 -8.371000
v 6.367000 -9.696000 -7.871000
v 9.533000 -9.696000 -7.871000
v 5.967000 -9.696000 -7.371000
v 9.570000 -9.696000 -7.371000
v 5.512000 -9.696000 -6.871000
v 9.589000 -9.696000 -6.871000
v 5.304000 -9.696000 -6.371000
v 9.567000 -9.696000 -6.371000
v 5.290000 -9.696000 -5.871000
v 9.554000 -9.696000 -5.871000
v 5.334000 -9.696000 -5.371000
v 9.380000 -9.696000 -5.371000
v 5.372000 -9.696000 -4.871000
v 9.130000 -9.696000 -4.871000
v 5.593000 -9.696000 -4.371000
v 8.848000 -9.696000 -4.371000
v 6.018000 -9.696000 -3.871000
v 8.367000 -9.696000 -3.871000
v 6.632000 -9.696000 -3.371000
v 7.709000 -9.696000 -3.371000
v 6.673000 -17.696000 -13.759000
v 6.673000 -17.696000 -11.917000
v 7.173000 -17.696000 -14.296000
v 7.173000 -17.696000 -11.510000
v 7.673000 -17.696000 -14.713000
v 7.673000 -17.696000 -11.414000
v 8.173000 -17.696000 -14.815000
v 8.173000 -17.696000 -11.451000
v 8.673000 -17.696000 -14.860000
v 8.673000 -17.696000 -11.591000
v 9.173000 -17.696000 -14.809000
v 9.173000 -17.696000 -12.026000
v 9.673000 -17.696000 -14.722000
v 9.673000 -17.696000 -12.447000
v 10.173000 -17.696000 -14.346000
v 10.173000 -17.696000 -12.851000
v 5.173000 -13.696000 -13.366000
v 5.173000 -13.696000 -11.914000
v 5.673000 -13.696000 -13.943000
v 5.673000 -13.696000 -11.484000
v 6.173000 -13.696000 -14.219000
v 6.173000 -13.696000 -10.980000
v 6.673000 -13.696000 -14.322000
v 6.673000 -13.696000 -10.509000
v 7.173000 -13.696000 -14.244000
v 7.173000 -13.696000 -10.339000
v 7.673000 -13.696000 -14.117000
v 7.673000 -13.696000 -10.161000
v 8.173000 -13.696000 -14.138000
v 8.173000 -13.696000 -10.045000
v 8.673000 -13.696000 -14.286000
v 8.673000 -13.696000 -10.194000
v 9.173000 -13.696000 -14.364000
v 9.173000 -13.696000 -10.511000
v 9.673000 -13.696000 -14.287000
v 9.673000 -13.696000 -10.910000
v 10.173000 -13.696000 -14.156000
v 10.173000 -13.696000 -11.369000
v 10.673000 -13.696000 -13.680000
v 10.673000 -13.696000 -12.324000
v 5.673000 -9.696000 -7.069000
v 5.673000 -9.696000 -4.268000
v 6.173000 -9.696000 -12.568000
v 6.173000 -9.696000 -10.942000
v 6.173000 -9.696000 -7.620000
v 6.173000 -9.696000 -3.686000
v 6.673000 -9.696000 -12.994000
v 6.673000 -9.696000 -9.846000
v 6.673000 -9.696000 -8.321000
v 6.673000 -9.696000 -3.354000
v 7.173000 -9.696000 -13.251000
v 7.173000 -9.696000 -3.262000
v 7.673000 -9.696000 -13.331000
v 7.673000 -9.696000 -3.356000
v 8.173000 -9.696000 -13.195000
v 8.173000 -9.696000 -3.690000
v 8.673000 -9.696000 -12.753000
v 8.673000 -9.696000 -4.142000
v 9.173000 -9.696000 -9.986000
v 9.173000 -9.696000 -4.945000
v 9.673000 -9.696000 -9.539000
v 9.673000 -9.696000 -8.770000
v 5.673000 -16.594000 -13.871000
v 5.673000 -12.564000 -13.871000
v 6.173000 -17.047000 -13.871000
v 6.173000 -10.846000 -13.871000
v 6.673000 -17.591000 -13.871000
v 6.673000 -10.368000 -13.871000
v 7.173000 -18.005000 -13.871000
v 7.173000 -10.240000 -13.871000
v 7.673000 -18.245000 -13.871000
v 7.673000 -10.240000 -13.871000
v 8.173000 -18.331000 -13.871000
v 8.173000 -10.397000 -13.871000
v 8.673000 -18.366000 -13.871000
v 8.673000 -10.920000 -13.871000
v 9.173000 -18.368000 -13.871000
v 9.173000 -12.116000 -13.871000
v 9.673000 -18.292000 -13.871000
v 9.673000 -12.420000 -13.871000
v 10.173000 -17.983000 -13.871000
v 10.173000 -13.315000 -13.871000
v 10.673000 -14.938000 -13.871000
v 10.673000 -13.908000 -13.871000
v 5.673000 -12.137000 -9.871000
v 5.673000 -10.807000 -9.871000
v 6.173000 -12.885000 -9.871000
v 6.173000 -10.047000 -9.871000
v 6.673000 -13.243000 -9.871000
v 6.673000 -9.691000 -9.871000
v 7.173000 -13.380000 -9.871000
v 7.173000 -9.582000 -9.871000
v 7.673000 -13.503000 -9.871000
v 7.673000 -9.592000 -9.871000
v 8.173000 -13.567000 -9.871000
v 8.173000 -9.561000 -9.871000
v 8.673000 -13.444000 -9.871000
v 8.673000 -9.555000 -9.871000
v 9.173000 -13.202000 -9.871000
v 9.173000 -9.663000 -9.871000
v 9.673000 -12.866000 -9.871000
v 9.673000 -9.847000 -9.871000
v 10.173000 -11.907000 -9.871000
v 10.173000 -10.232000 -9.871000
v 5.673000 -11.982000 -5.871000
v 5.673000 -7.928000 -5.871000
v 6.173000 -12.287000 -5.871000
v 6.173000 -7.620000 -5.871000
v 6.673000 -12.363000 -5.871000
v 6.673000 -7.541000 -5.871000
v 7.173000 -12.249000 -5.871000
v 7.173000 -7.539000 -5.871000
v 7.673000 -11.879000 -5.871000
v 7.673000 -7.557000 -5.871000
v 8.173000 -11.393000 -5.871000
v 8.173000 -7.523000 -5.871000
v 8.673000 -10.848000 -5.871000
v 8.673000 -7.606000 -5.871000
v 9.173000 -10.387000 -5.871000
v 9.173000 -7.919000 -5.871000
v 7.555000 -17.196000 -14.871000
v 9.768000 -17.196000 -14.871000
v 6.942000 -17.196000 -14.371000
v 10.370000 -17.196000 -14.371000
v 6.324000 -17.196000 -13.871000
v 10.578000 -17.196000 -13.871000
v 6.053000 -17.196000 -13.371000
v 10.586000 -17.196000 -13.371000
v 5.988000 -17.196000 -12.871000
v 10.425000 -17.196000 -12.871000
v 6.006000 -17.196000 -12.371000
v 10.165000 -17.196000 -12.371000
v 6.250000 -17.196000 -11.871000
v 9.637000 -17.196000 -11.871000
v 7.006000 -17.196000 -11.371000
v 9.107000 -17.196000 -11.371000
v 5.590000 -13.196000 -13.871000
v 10.079000 -13.196000 -13.871000
v 4.989000 -13.196000 -13.371000
v 10.508000 -13.196000 -13.371000
v 4.779000 -13.196000 -12.871000
v 10.628000 -13.196000 -12.871000
v 4.770000 -13.196000 -12.371000
v 10.612000 -13.196000 -12.371000
v 4.960000 -13.196000 -11.871000
v 10.583000 -13.196000 -11.871000
v 5.404000 -13.196000 -11.371000
v 10.414000 -13.196000 -11.371000
v 5.761000 -13.196000 -10.871000
v 10.130000 -13.196000 -10.871000
v 6.237000 -13.196000 -10.371000
v 9.604000 -13.196000 -10.371000
v 6.578000 -13.196000 -9.871000
v 9.187000 -13.196000 -9.871000
v 7.058000 -13.196000 -9.371000
v 8.843000 -13.196000 -9.371000
v 7.569000 -13.196000 -8.871000
v 8.781000 -13.196000 -8.871000
v 7.176000 -9.196000 -12.371000
v 8.172000 -9.196000 -12.371000
v 6.510000 -9.196000 -11.871000
v 8.175000 -9.196000 -11.871000
v 6.519000 -9.196000 -11.371000
v 7.796000 -9.196000 -11.371000
v 6.949000 -9.196000 -8.371000
v 8.760000 -9.196000 -8.371000
v 6.518000 -9.196000 -7.871000
v 9.116000 -9.196000 -7.871000
v 6.003000 -9.196000 -7.371000
v 9.392000 -9.196000 -7.371000
v 5.564000 -9.196000 -6.871000
v 9.560000 -9.196000 -6.871000
v 5.347000 -9.196000 -6.371000
v 9.580000 -9.196000 -6.371000
v 5.277000 -9.196000 -5.871000
v 9.590000 -9.196000 -5.871000
v 5.272000 -9.196000 -5.371000
v 9.566000 -9.196000 -5.371000
v 5.354000 -9.196000 -4.871000
v 9.381000 -9.196000 -4.871000
v 5.572000 -9.196000 -4.371000
v 8.909000 -9.196000 -4.371000
v 6.160000 -9.196000 -3.871000
v 8.319000 -9.196000 -3.871000
v 6.173000 -17.196000 -13.661000
v 6.173000 -17.196000 -11.975000
v 6.673000 -17.196000 -14.155000
v 6.673000 -17.196000 -11.540000
v 7.173000 -17.196000 -14.598000
v 7.173000 -17.196000 -11.298000
v 7.673000 -17.196000 -14.921000
v 7.673000 -17.196000 -11.094000
v 8.173000 -17.196000 -15.007000
v 8.173000 -17.196000 -10.962000
v 8.673000 -17.196000 -15.039000
v 8.673000 -17.196000 -11.052000
v 9.173000 -17.196000 -14.984000
v 9.173000 -17.196000 -11.445000
v 9.673000 -17.196000 -14.907000
v 9.673000 -17.196000 -11.913000
v 10.173000 -17.196000 -14.603000
v 10.173000 -17.196000 -12.381000
v 5.173000 -13.196000 -13.590000
v 5.173000 -13.196000 -11.607000
v 5.673000 -13.196000 -13.909000
v 5.673000 -13.196000 -10.990000
v 6.173000 -13.196000 -14.043000
v 6.173000 -13.196000 -10.456000
v 6.673000 -13.196000 -14.179000
v 6.673000 -13.196000 -9.731000
v 7.173000 -13.196000 -14.175000
v 7.173000 -13.196000 -9.213000
v 7.673000 -13.196000 -14.103000
v 7.673000 -13.196000 -8.705000
v 8.173000 -13.196000 -14.108000
v 8.173000 -13.196000 -8.456000
v 8.673000 -13.196000 -14.127000
v 8.673000 -13.196000 -8.687000
v 9.173000 -13.196000 -14.117000
v 9.173000 -13.196000 -9.857000
v 9.673000 -13.196000 -14.044000
v 9.673000 -13.196000 -10.451000
v 10.173000 -13.196000 -13.801000
v 10.173000 -13.196000 -10.928000
v 5.673000 -9.196000 -7.007000
v 5.673000 -9.196000 -4.242000
v 6.173000 -9.196000 -7.575000
v 6.173000 -9.196000 -3.862000
v 6.673000 -9.196000 -12.123000
v 6.673000 -9.196000 -11.140000
v 6.673000 -9.196000 -8.053000
v 6.673000 -9.196000 -3.547000
v 7.173000 -9.196000 -12.369000
v 7.173000 -9.196000 -10.942000
v 7.173000 -9.196000 -8.546000
v 7.173000 -9.196000 -3.439000
v 7.673000 -9.196000 -12.638000
v 7.673000 -9.196000 -11.173000
v 7.673000 -9.196000 -8.695000
v 7.673000 -9.196000 -3.545000
v 8.173000 -9.196000 -12.368000
v 8.173000 -9.196000 -11.868000
v 8.173000 -9.196000 -8.726000
v 8.173000 -9.196000 -3.798000
v 8.673000 -9.196000 -8.477000
v 8.673000 -9.196000 -4.140000
v 9.173000 -9.196000 -7.787000
v 9.173000 -9.196000 -4.611000
v 5.173000 -13.688000 -13.371000
v 5.173000 -12.258000 -13.371000
v 5.673000 -16.870000 -13.371000
v 5.673000 -10.886000 -13.371000
v 6.173000 -17.328000 -13.371000
v 6.173000 -10.232000 -13.371000
v 6.673000 -17.891000 -13.371000
v 6.673000 -9.859000 -13.371000
v 7.173000 -18.206000 -13.371000
v 7.173000 -9.772000 -13.371000
v 7.673000 -18.296000 -13.371000
v 7.673000 -9.724000 -13.371000
v 8.173000 -18.361000 -13.371000
v 8.173000 -9.828000 -13.371000
v 8.673000 -18.361000 -13.371000
v 8.673000 -10.252000 -13.371000
v 9.173000 -18.376000 -13.371000
v 9.173000 -10.841000 -13.371000
v 9.673000 -18.300000 -13.371000
v 9.673000 -11.762000 -13.371000
v 10.173000 -17.995000 -13.371000
v 10.173000 -12.217000 -13.371000
v 10.673000 -15.382000 -13.371000
v 10.673000 -13.514000 -13.371000
v 6.173000 -12.542000 -9.371000
v 6.173000 -10.381000 -9.371000
v 6.673000 -13.013000 -9.371000
v 6.673000 -9.816000 -9.371000
v 7.173000 -13.243000 -9.371000
v 7.173000 -9.597000 -9.371000
v 7.673000 -13.328000 -9.371000
v 7.673000 -9.547000 -9.371000
v 8.173000 -13.386000 -9.371000
v 8.173000 -9.499000 -9.371000
v 8.673000 -13.280000 -9.371000
v 8.673000 -9.507000 -9.371000
v 9.173000 -13.023000 -9.371000
v 9.173000 -9.576000 -9.371000
v 9.673000 -12.563000 -9.371000
v 9.673000 -9.658000 -9.371000
v 10.173000 -11.974000 -9.371000
v 10.173000 -9.967000 -9.371000
v 5.673000 -11.688000 -5.371000
v 5.673000 -7.911000 -5.371000
v 6.173000 -12.079000 -5.371000
v 6.173000 -7.607000 -5.371000
v 6.673000 -12.167000 -5.371000
v 6.673000 -7.531000 -5.371000
v 7.173000 -12.033000 -5.371000
v 7.173000 -7.578000 -5.371000
v 7.673000 -11.568000 -5.371000
v 7.673000 -7.552000 -5.371000
v 8.173000 -11.087000 -5.371000
v 8.173000 -7.518000 -5.371000
v 8.673000 -10.567000 -5.371000
v 8.673000 -7.596000 -5.371000
v 9.173000 -10.076000 -5.371000
v 9.173000 -7.903000 -5.371000
f 309 1035 121
f 121 1035 1033
f 1035 1225 1033
f 1227 1225 1035
f 1227 23 1225
f 25 23 1227
f 25 203 23
f 205 203 25
f 205 310 203
f 203 310 122
f 64 9 123
f 311 189 64
f 189 9 64
f 189 187 9
f 189 373 187
f 375 373 189
f 375 545 373
f 547 545 375
f 547 687 545
f 689 687 547
f 689 845 687
f 847 845 689
f 121 845 847
f 121 847 309
f 389 122 310
f 389 310 391
f 391 561 389
f 563 561 391
f 563 701 561
f 703 701 563
f 124 701 931
f 701 859 931
f 701 703 859
f 859 312 931
f 313 1215 125
f 125 1215 1213
f 11 64 123
f 1213 11 123
f 1215 11 1213
f 311 64 11
f 931 857 124
f 312 1047 1127
f 312 1127 126
f 931 312 126
f 857 931 126
f 1047 314 1127
f 315 1025 127
f 127 1025 1023
f 125 1023 1025
f 125 1025 313
f 1127 1045 126
f 1127 314 1045
f 314 128 1045
f 314 316 128
f 317 837 129
f 129 837 835
f 127 835 837
f 127 837 315
f 128 318 130
f 316 318 128
f 319 129 131
f 319 317 129
f 318 1243 1321
f 132 318 1321
f 130 318 132
f 1243 320 1321
f 321 131 133
f 321 319 131
f 132 1321 1244
f 322 132 1244
f 134 132 322
f 1321 320 1244
f 838 321 904
f 321 135 904
f 321 133 135
f 323 838 904
f 1046 1141 136
f 1046 134 1141
f 134 324 1141
f 134 322 324
f 137 906 135
f 135 906 904
f 323 904 906
f 323 906 325
f 860 326 138
f 860 138 858
f 1141 1048 136
f 1048 858 136
f 1048 860 858
f 1141 324 1048
f 836 906 137
f 1026 325 1098
f 1098 325 139
f 325 906 139
f 906 836 139
f 327 1026 1098
f 562 637 140
f 704 328 637
f 562 704 637
f 702 704 562
f 702 138 704
f 704 138 326
f 141 1100 139
f 139 1100 1098
f 1286 1216 327
f 1098 1286 327
f 1100 1286 1098
f 329 1216 1286
f 390 475 142
f 637 564 140
f 140 564 390
f 564 330 390
f 330 475 390
f 637 328 564
f 1024 1100 141
f 1214 1286 1024
f 1024 1286 1100
f 1286 1214 329
f 1214 12 329
f 1214 10 12
f 188 12 10
f 188 190 12
f 374 190 188
f 374 376 190
f 374 143 618
f 548 374 618
f 376 374 548
f 331 548 618
f 1228 332 144
f 1228 144 1226
f 24 1228 1226
f 24 26 1228
f 204 26 24
f 204 206 26
f 475 392 142
f 392 204 142
f 392 206 204
f 475 330 392
f 546 618 143
f 618 546 331
f 546 690 331
f 546 688 690
f 846 690 688
f 846 848 690
f 1034 848 846
f 1034 1036 848
f 1034 144 1036
f 1036 144 332
f 458 405 145
f 333 579 458
f 579 405 458
f 579 577 405
f 579 334 577
f 577 334 146
f 335 221 147
f 147 221 219
f 407 458 145
f 219 407 145
f 221 407 219
f 333 458 407
f 717 146 334
f 717 334 719
f 719 873 717
f 875 873 719
f 875 336 873
f 873 336 148
f 337 41 149
f 149 41 39
f 147 39 41
f 147 41 335
f 1061 148 336
f 1061 336 1063
f 150 1061 1319
f 1061 1249 1319
f 1061 1063 1249
f 1249 338 1319
f 1298 1241 151
f 149 1241 1298
f 339 149 1298
f 337 149 339
f 1323 152 150
f 1323 150 1319
f 1319 338 1323
f 1323 338 340
f 153 1300 151
f 151 1300 1298
f 339 1298 1300
f 339 1300 341
f 1327 154 152
f 1327 152 1323
f 1323 340 1327
f 1327 340 342
f 155 1302 153
f 153 1302 1300
f 341 1300 1302
f 341 1302 343
f 1329 156 154
f 1329 154 1327
f 1327 342 1329
f 1329 342 344
f 1242 1302 155
f 42 343 100
f 100 343 157
f 343 1302 157
f 1302 1242 157
f 345 42 100
f 156 1329 1250
f 346 156 1250
f 158 156 346
f 1329 344 1250
f 40 100 157
f 222 345 290
f 290 345 159
f 345 100 159
f 100 40 159
f 347 222 290
f 1064 348 1146
f 1146 160 1064
f 160 346 1064
f 160 158 346
f 220 290 159
f 408 347 476
f 476 347 161
f 347 290 161
f 290 220 161
f 349 408 476
f 876 350 954
f 1146 348 876
f 1146 876 954
f 1062 1146 954
f 162 1062 954
f 160 1146 1062
f 406 476 161
f 476 406 349
f 406 580 349
f 406 578 580
f 718 580 578
f 718 720 580
f 350 720 954
f 720 874 954
f 720 718 874
f 162 954 874
f 764 733 163
f 934 889 764
f 764 889 733
f 351 1079 934
f 1079 889 934
f 1079 1077 889
f 1079 1263 1077
f 1265 1263 1079
f 106 57 352
f 57 1265 352
f 57 1263 1265
f 294 245 106
f 106 245 57
f 294 164 245
f 624 593 165
f 735 764 163
f 735 163 593
f 353 735 593
f 624 353 593
f 764 735 891
f 764 891 934
f 351 934 891
f 59 106 352
f 106 59 354
f 296 106 354
f 294 106 296
f 164 294 166
f 166 294 296
f 462 421 167
f 595 624 165
f 595 165 421
f 355 595 421
f 462 355 421
f 353 624 595
f 247 296 354
f 356 480 431
f 356 431 166
f 247 356 166
f 296 247 166
f 480 168 431
f 422 462 167
f 355 462 422
f 169 355 422
f 357 355 169
f 358 482 480
f 358 480 356
f 168 480 170
f 170 480 482
f 596 357 630
f 357 171 630
f 357 169 171
f 359 596 630
f 360 484 482
f 360 482 358
f 170 482 172
f 172 482 484
f 594 630 171
f 359 630 594
f 173 359 594
f 361 359 173
f 362 486 484
f 362 484 360
f 172 484 174
f 174 484 486
f 173 734 361
f 361 734 736
f 734 175 948
f 892 734 948
f 736 734 892
f 363 892 948
f 248 364 306
f 486 362 248
f 486 248 306
f 432 486 306
f 176 432 306
f 174 486 432
f 890 948 175
f 948 890 363
f 890 1080 363
f 890 1078 1080
f 1078 177 1332
f 1266 1078 1332
f 1080 1078 1266
f 1266 1332 120
f 1266 120 60
f 306 364 60
f 120 306 60
f 308 306 120
f 176 306 178
f 178 306 308
f 1264 1332 177
f 58 120 1264
f 1264 120 1332
f 246 308 58
f 58 308 120
f 178 308 246
f 1102 1035 309
f 489 1229 1102
f 1229 1035 1102
f 1229 1227 1035
f 1229 25 1227
f 27 25 1229
f 27 205 25
f 207 205 27
f 207 490 205
f 205 490 310
f 250 189 311
f 434 375 250
f 250 375 189
f 598 547 434
f 434 547 375
f 740 689 598
f 598 689 547
f 910 847 740
f 740 847 689
f 1037 1102 309
f 1037 309 847
f 491 1037 847
f 910 491 847
f 489 1102 1037
f 391 310 490
f 391 490 393
f 393 563 391
f 565 563 393
f 565 703 563
f 705 703 565
f 705 859 703
f 861 859 705
f 861 492 859
f 859 492 312
f 1270 1215 313
f 493 13 1270
f 13 1215 1270
f 13 11 1215
f 191 250 311
f 11 191 311
f 13 191 11
f 250 191 377
f 250 377 434
f 434 377 549
f 434 549 598
f 598 549 691
f 598 691 740
f 740 691 849
f 740 849 910
f 491 910 849
f 1047 312 492
f 1047 492 1049
f 1049 494 1047
f 1047 494 314
f 1086 1025 315
f 1217 1270 313
f 1217 313 1025
f 495 1217 1025
f 1086 495 1025
f 493 1270 1217
f 494 1245 1313
f 316 494 1313
f 314 494 316
f 1245 496 1313
f 898 837 317
f 1027 1086 315
f 1027 315 837
f 497 1027 837
f 898 497 837
f 495 1086 1027
f 1317 318 316
f 1317 316 1313
f 1313 496 1317
f 1317 496 498
f 319 900 317
f 317 900 898
f 497 898 900
f 497 900 499
f 1317 1243 318
f 1317 498 1243
f 498 320 1243
f 498 500 320
f 321 902 319
f 319 902 900
f 499 900 902
f 499 902 501
f 1244 1325 322
f 1244 320 1325
f 320 502 1325
f 320 500 502
f 838 902 321
f 501 902 838
f 323 501 838
f 503 501 323
f 322 1325 1246
f 504 322 1246
f 324 322 504
f 1325 502 1246
f 1028 503 1096
f 503 325 1096
f 503 323 325
f 505 1028 1096
f 860 949 326
f 1050 506 949
f 860 1050 949
f 1048 1050 860
f 1048 324 1050
f 1050 324 504
f 1026 1096 325
f 1218 505 1284
f 1284 505 327
f 505 1096 327
f 1096 1026 327
f 507 1218 1284
f 706 508 328
f 706 328 704
f 949 862 326
f 862 704 326
f 862 706 704
f 949 506 862
f 1216 1284 327
f 14 507 82
f 82 507 329
f 507 1284 329
f 1284 1216 329
f 14 82 268
f 14 268 192
f 192 268 452
f 192 452 378
f 378 452 616
f 378 616 550
f 509 550 616
f 566 510 330
f 566 330 564
f 564 328 566
f 566 328 508
f 12 82 329
f 190 268 12
f 12 268 82
f 376 452 190
f 190 452 268
f 548 616 376
f 376 616 452
f 692 509 760
f 760 509 331
f 509 616 331
f 616 548 331
f 692 760 930
f 692 930 850
f 850 930 1124
f 850 1124 1038
f 1038 1124 332
f 1228 1038 332
f 1230 1038 1228
f 26 1230 1228
f 26 28 1230
f 206 28 26
f 206 208 28
f 392 208 206
f 392 394 208
f 392 330 394
f 394 330 510
f 690 760 331
f 848 930 690
f 690 930 760
f 1036 1124 848
f 848 1124 930
f 332 1124 1036
f 511 581 333
f 333 581 579
f 581 512 579
f 579 512 334
f 513 223 335
f 335 223 221
f 223 407 221
f 409 407 223
f 333 407 409
f 333 409 511
f 719 334 512
f 719 512 721
f 721 875 719
f 877 875 721
f 336 875 1133
f 875 1065 1133
f 875 877 1065
f 1133 1065 1315
f 1315 1065 1251
f 1251 514 1315
f 515 43 337
f 337 43 41
f 335 41 43
f 335 43 513
f 1133 1063 336
f 1315 1249 1063
f 1315 1063 1133
f 514 45 111
f 514 111 338
f 1315 514 338
f 1249 1315 338
f 45 516 111
f 517 337 339
f 517 515 337
f 113 340 338
f 113 338 111
f 233 301 516
f 301 111 516
f 301 113 111
f 233 518 301
f 519 339 341
f 519 517 339
f 115 342 340
f 115 340 113
f 520 115 234
f 115 301 234
f 115 113 301
f 301 518 234
f 44 519 98
f 519 343 98
f 519 341 343
f 521 44 98
f 342 115 46
f 522 342 46
f 344 342 522
f 115 520 46
f 42 98 343
f 224 521 288
f 288 521 345
f 521 98 345
f 98 42 345
f 523 224 288
f 1252 524 346
f 1252 346 1250
f 1250 344 1252
f 1252 344 522
f 222 288 345
f 410 523 474
f 474 523 347
f 523 288 347
f 288 222 347
f 525 410 474
f 1066 526 348
f 1066 348 1064
f 1064 346 1066
f 1066 346 524
f 408 474 347
f 582 525 640
f 640 525 349
f 525 474 349
f 474 408 349
f 582 640 784
f 582 784 722
f 722 784 350
f 876 722 350
f 878 722 876
f 876 348 878
f 878 348 526
f 580 640 349
f 720 784 580
f 580 784 640
f 350 784 720
f 1126 1079 351
f 1310 1265 1126
f 1126 1265 1079
f 1310 352 1265
f 768 735 353
f 527 893 768
f 893 735 768
f 893 891 735
f 1081 1126 351
f 891 1081 351
f 893 1081 891
f 1126 1081 1267
f 1126 1267 1310
f 528 108 59
f 528 59 352
f 1267 528 352
f 1310 1267 352
f 108 354 59
f 626 595 355
f 737 768 353
f 737 353 595
f 529 737 595
f 626 529 595
f 527 768 737
f 61 108 528
f 530 298 247
f 530 247 354
f 61 530 354
f 108 61 354
f 298 356 247
f 357 628 355
f 355 628 626
f 529 626 628
f 529 628 531
f 532 300 298
f 532 298 530
f 356 298 358
f 358 298 300
f 596 628 357
f 531 628 596
f 359 531 596
f 533 531 359
f 534 302 300
f 534 300 532
f 358 300 360
f 360 300 302
f 738 533 776
f 533 361 776
f 533 359 361
f 535 738 776
f 536 304 302
f 536 302 534
f 360 302 362
f 362 302 304
f 736 776 361
f 776 736 535
f 736 894 535
f 736 892 894
f 892 363 1142
f 1082 892 1142
f 894 892 1082
f 1082 1142 1330
f 1082 1330 1268
f 1268 1330 118
f 1268 118 62
f 304 536 62
f 304 62 118
f 248 304 118
f 364 248 118
f 362 304 248
f 1080 1142 363
f 1266 1330 1080
f 1080 1330 1142
f 60 118 1266
f 1266 118 1330
f 364 118 60
f 1288 1229 489
f 84 27 1288
f 1288 27 1229
f 270 207 84
f 84 207 27
f 270 490 207
f 1104 1037 491
f 1231 1288 489
f 1231 489 1037
f 641 1231 1037
f 1104 641 1037
f 1288 1231 29
f 1288 29 84
f 84 29 209
f 84 209 270
f 393 490 270
f 209 393 270
f 395 393 209
f 395 565 393
f 567 565 395
f 567 705 565
f 707 705 567
f 932 861 642
f 861 707 642
f 861 705 707
f 932 492 861
f 66 13 493
f 252 191 66
f 66 191 13
f 436 377 252
f 252 377 191
f 600 549 436
f 436 549 377
f 742 691 600
f 600 691 549
f 912 849 742
f 742 849 691
f 1039 1104 491
f 1039 491 849
f 643 1039 849
f 912 643 849
f 641 1104 1039
f 863 932 642
f 1049 492 932
f 863 1049 932
f 1051 1049 863
f 1051 644 1049
f 1049 644 494
f 1272 1217 495
f 15 66 493
f 15 493 1217
f 645 15 1217
f 1272 645 1217
f 66 15 193
f 66 193 252
f 252 193 379
f 252 379 436
f 436 379 551
f 436 551 600
f 600 551 693
f 600 693 742
f 742 693 851
f 742 851 912
f 643 912 851
f 1245 494 644
f 1245 644 1247
f 1247 646 1245
f 1245 646 496
f 1088 1027 497
f 1219 1272 495
f 1219 495 1027
f 647 1219 1027
f 1088 647 1027
f 645 1272 1219
f 496 648 498
f 646 648 496
f 499 1090 497
f 497 1090 1088
f 647 1088 1090
f 647 1090 649
f 498 650 500
f 648 650 498
f 501 1092 499
f 499 1092 1090
f 649 1090 1092
f 649 1092 651
f 1248 652 1326
f 1326 502 1248
f 502 650 1248
f 502 500 650
f 503 1094 501
f 501 1094 1092
f 651 1092 1094
f 651 1094 653
f 504 1246 1326
f 652 504 1326
f 654 504 652
f 502 1326 1246
f 1028 1094 503
f 1220 653 1282
f 1282 653 505
f 653 1094 505
f 1094 1028 505
f 655 1220 1282
f 1052 656 506
f 1052 506 1050
f 1050 504 1052
f 1052 504 654
f 1218 1282 505
f 16 655 80
f 80 655 507
f 655 1282 507
f 1282 1218 507
f 16 80 266
f 16 266 194
f 194 266 450
f 194 450 380
f 380 450 614
f 380 614 552
f 657 552 614
f 708 658 508
f 708 508 706
f 862 708 706
f 862 864 708
f 862 506 864
f 864 506 656
f 14 80 507
f 192 266 14
f 14 266 80
f 378 450 192
f 192 450 266
f 550 614 378
f 378 614 450
f 694 657 758
f 758 657 509
f 657 614 509
f 614 550 509
f 694 758 928
f 694 928 852
f 659 852 928
f 568 660 510
f 568 510 566
f 566 508 568
f 568 508 658
f 692 758 509
f 850 928 692
f 692 928 758
f 928 850 659
f 850 1040 659
f 850 1038 1040
f 1230 1040 1038
f 1230 1232 1040
f 28 1232 1230
f 28 30 1232
f 208 30 28
f 208 210 30
f 394 210 208
f 394 396 210
f 394 510 396
f 396 510 660
f 661 411 459
f 459 411 511
f 411 581 511
f 411 583 581
f 512 581 767
f 581 723 767
f 581 583 723
f 767 723 937
f 937 723 879
f 937 879 1129
f 1129 879 1067
f 1129 1067 1311
f 1311 1067 1253
f 1253 662 1311
f 663 225 513
f 513 225 223
f 225 661 459
f 409 225 459
f 223 225 409
f 459 511 409
f 767 721 512
f 937 877 721
f 937 721 767
f 1129 1065 877
f 1129 877 937
f 1311 1251 1065
f 1311 1065 1129
f 662 47 109
f 662 109 514
f 1311 662 514
f 1251 1311 514
f 47 664 109
f 92 43 515
f 513 43 92
f 665 513 92
f 663 513 665
f 109 45 514
f 664 235 299
f 664 299 516
f 109 664 516
f 45 109 516
f 235 666 299
f 517 94 515
f 515 94 92
f 665 92 94
f 665 94 667
f 299 233 516
f 299 666 233
f 666 518 233
f 666 668 518
f 519 96 517
f 517 96 94
f 667 94 96
f 667 96 669
f 234 303 520
f 234 518 303
f 518 670 303
f 518 668 670
f 44 96 519
f 226 669 286
f 286 669 521
f 669 96 521
f 96 44 521
f 671 226 286
f 46 117 522
f 303 236 520
f 520 236 46
f 236 672 46
f 672 117 46
f 303 670 236
f 224 286 521
f 412 671 472
f 472 671 523
f 671 286 523
f 286 224 523
f 673 412 472
f 1252 1331 524
f 117 48 522
f 522 48 1252
f 48 674 1252
f 674 1331 1252
f 117 672 48
f 410 472 523
f 584 673 638
f 638 673 525
f 673 472 525
f 472 410 525
f 584 638 782
f 584 782 724
f 724 782 952
f 724 952 880
f 880 952 526
f 1066 880 526
f 1068 880 1066
f 1331 1254 524
f 1254 1066 524
f 1254 1068 1066
f 1331 674 1254
f 582 638 525
f 722 782 582
f 582 782 638
f 878 952 722
f 722 952 782
f 526 952 878
f 938 893 527
f 1130 1081 938
f 938 1081 893
f 1312 1267 1130
f 1130 1267 1081
f 1312 528 1267
f 770 737 529
f 895 938 527
f 895 527 737
f 675 895 737
f 770 675 737
f 938 895 1083
f 938 1083 1130
f 1130 1083 676
f 1316 1130 676
f 1312 1130 1316
f 528 1312 61
f 1312 110 61
f 1312 1316 110
f 110 530 61
f 531 772 529
f 529 772 770
f 675 770 772
f 675 772 677
f 678 1320 1316
f 678 1316 676
f 112 1316 1320
f 110 1316 112
f 530 110 532
f 532 110 112
f 533 774 531
f 531 774 772
f 944 896 677
f 772 944 677
f 774 944 772
f 679 896 944
f 680 1324 1320
f 680 1320 678
f 114 1320 1324
f 112 1320 114
f 532 112 534
f 534 112 114
f 738 774 533
f 535 946 738
f 946 774 738
f 946 944 774
f 1140 1084 679
f 944 1140 679
f 946 1140 944
f 1324 680 1084
f 1140 1324 1084
f 1328 1324 1140
f 116 1324 1328
f 114 1324 116
f 534 114 536
f 536 114 116
f 894 946 535
f 1082 1140 894
f 894 1140 946
f 1268 1328 1082
f 1082 1328 1140
f 62 116 1268
f 1268 116 1328
f 536 116 62
f 785 1205 1275
f 1275 1205 71
f 71 1205 1
f 71 1 257
f 257 1 179
f 257 179 441
f 441 179 365
f 441 365 605
f 605 365 537
f 537 786 605
f 1277 787 1275
f 1275 787 785
f 1275 73 1277
f 1275 71 73
f 71 259 73
f 71 257 259
f 257 443 259
f 257 441 443
f 441 607 443
f 441 605 607
f 605 786 607
f 607 786 788
f 1279 789 1277
f 1277 789 787
f 1277 75 1279
f 1277 73 75
f 73 261 75
f 73 259 261
f 259 445 261
f 259 443 445
f 443 609 445
f 443 607 609
f 607 788 609
f 609 788 790
f 1281 791 1279
f 1279 791 789
f 1279 77 1281
f 1279 75 77
f 75 263 77
f 75 261 263
f 261 447 263
f 261 445 447
f 445 611 447
f 445 609 611
f 609 790 611
f 611 790 792
f 1283 793 1281
f 1281 793 791
f 1281 79 1283
f 1281 77 79
f 794 79 180
f 79 263 180
f 79 77 263
f 180 263 366
f 366 263 447
f 366 447 538
f 538 447 611
f 611 792 538
f 1283 1206 793
f 1206 1283 2
f 2 1283 79
f 79 794 2
f 1290 1231 641
f 795 31 1290
f 31 1231 1290
f 31 29 1231
f 31 209 29
f 211 209 31
f 211 395 209
f 397 395 211
f 397 567 395
f 569 567 397
f 569 707 567
f 709 707 569
f 709 796 707
f 707 796 642
f 1106 1039 643
f 1233 1290 641
f 1233 641 1039
f 797 1233 1039
f 1106 797 1039
f 795 1290 1233
f 863 642 796
f 863 796 865
f 1128 1051 798
f 1051 865 798
f 1051 863 865
f 1128 644 1051
f 68 15 645
f 254 193 68
f 68 193 15
f 438 379 254
f 254 379 193
f 602 551 438
f 438 551 379
f 744 693 602
f 602 693 551
f 914 851 744
f 744 851 693
f 1041 1106 643
f 1041 643 851
f 799 1041 851
f 914 799 851
f 797 1106 1041
f 1053 1128 798
f 800 1314 1247
f 800 1247 644
f 1053 800 644
f 1128 1053 644
f 1314 646 1247
f 1274 1219 647
f 1219 1274 645
f 1274 68 645
f 1274 70 68
f 256 68 70
f 254 68 256
f 440 254 256
f 438 254 440
f 440 801 553
f 602 440 553
f 438 440 602
f 602 553 695
f 602 695 744
f 744 695 853
f 744 853 914
f 799 914 853
f 802 1318 1314
f 802 1314 800
f 646 1314 648
f 648 1314 1318
f 649 1276 647
f 647 1276 1274
f 1276 803 17
f 70 1276 17
f 1274 1276 70
f 70 17 195
f 70 195 256
f 256 195 381
f 256 381 440
f 801 440 381
f 804 1322 1318
f 804 1318 802
f 648 1318 650
f 650 1318 1322
f 651 1278 649
f 649 1278 1276
f 803 1276 1278
f 803 1278 805
f 652 1248 1322
f 804 652 1322
f 806 652 804
f 650 1322 1248
f 653 1280 651
f 651 1280 1278
f 805 1278 1280
f 805 1280 807
f 652 808 654
f 806 808 652
f 1220 1280 653
f 18 807 78
f 78 807 655
f 807 1280 655
f 1280 1220 655
f 18 78 264
f 18 264 196
f 196 264 448
f 196 448 382
f 382 448 612
f 382 612 554
f 809 554 612
f 1054 810 656
f 1054 656 1052
f 1052 654 1054
f 1054 654 808
f 16 78 655
f 194 264 16
f 16 264 78
f 380 448 194
f 194 448 264
f 552 612 380
f 380 612 448
f 696 809 756
f 756 809 657
f 809 612 657
f 612 552 657
f 696 756 926
f 696 926 854
f 854 926 1120
f 854 1120 1042
f 811 1042 1120
f 710 812 658
f 710 658 708
f 864 710 708
f 864 866 710
f 864 656 866
f 866 656 810
f 694 756 657
f 852 926 694
f 694 926 756
f 659 1122 852
f 1122 926 852
f 1122 1120 926
f 1308 1234 811
f 1120 1308 811
f 1122 1308 1120
f 813 1234 1308
f 570 814 660
f 570 660 568
f 568 658 570
f 570 658 812
f 1040 1122 659
f 1232 1308 1040
f 1040 1308 1122
f 1308 1232 813
f 1232 32 813
f 1232 30 32
f 210 32 30
f 210 212 32
f 396 212 210
f 396 398 212
f 396 660 398
f 398 660 814
f 815 585 621
f 621 585 763
f 763 585 725
f 763 725 933
f 933 725 881
f 933 881 1125
f 1125 881 1069
f 1125 1069 1309
f 1309 1069 1255
f 1255 816 1309
f 817 413 661
f 661 413 411
f 413 815 621
f 583 413 621
f 411 413 583
f 763 723 583
f 763 583 621
f 933 879 723
f 933 723 763
f 1125 1067 879
f 1125 879 933
f 1309 1253 1067
f 1309 1067 1125
f 816 49 107
f 816 107 662
f 1309 816 662
f 1253 1309 662
f 49 818 107
f 819 227 663
f 663 227 225
f 661 225 227
f 661 227 817
f 107 47 662
f 818 237 297
f 818 297 664
f 107 818 664
f 47 107 664
f 237 820 297
f 821 663 665
f 821 819 663
f 297 235 664
f 820 423 481
f 820 481 666
f 297 820 666
f 235 297 666
f 423 822 481
f 823 665 667
f 823 821 665
f 483 668 666
f 483 666 481
f 481 822 483
f 483 822 824
f 228 823 284
f 823 669 284
f 823 667 669
f 825 228 284
f 485 670 668
f 485 668 483
f 483 824 485
f 485 824 826
f 226 284 669
f 414 825 470
f 470 825 671
f 825 284 671
f 284 226 671
f 827 414 470
f 236 305 672
f 485 424 670
f 670 424 236
f 424 828 236
f 828 305 236
f 485 826 424
f 412 470 671
f 586 827 636
f 636 827 673
f 827 470 673
f 470 412 673
f 829 586 636
f 48 119 674
f 305 238 672
f 672 238 48
f 238 830 48
f 830 119 48
f 305 828 238
f 584 636 673
f 636 584 829
f 584 726 829
f 584 724 726
f 880 726 724
f 880 882 726
f 1068 882 880
f 1068 1070 882
f 1254 1070 1068
f 1254 1256 1070
f 119 50 674
f 50 1254 674
f 50 1256 1254
f 119 830 50
f 940 895 675
f 1134 1083 940
f 940 1083 895
f 1134 676 1083
f 677 942 675
f 675 942 940
f 1136 940 942
f 1134 940 1136
f 676 1134 678
f 678 1134 1136
f 896 942 677
f 679 1138 896
f 1138 942 896
f 1138 1136 942
f 678 1136 680
f 680 1136 1138
f 1084 1138 679
f 680 1138 1084
f 955 181 251
f 251 181 435
f 435 181 367
f 435 367 599
f 599 367 539
f 599 539 741
f 741 539 681
f 741 681 911
f 911 681 839
f 839 956 911
f 957 3 67
f 955 251 3
f 251 67 3
f 251 253 67
f 251 437 253
f 251 435 437
f 435 601 437
f 435 599 601
f 599 743 601
f 599 741 743
f 741 913 743
f 741 911 913
f 911 956 913
f 913 956 958
f 959 383 461
f 461 383 625
f 625 383 555
f 555 960 625
f 961 1207 1273
f 957 67 1207
f 67 1273 1207
f 67 69 1273
f 67 255 69
f 67 253 255
f 253 439 255
f 253 437 439
f 437 603 439
f 437 601 603
f 601 745 603
f 601 743 745
f 743 915 745
f 743 913 915
f 913 958 915
f 915 958 962
f 963 197 279
f 959 461 197
f 461 279 197
f 461 463 279
f 461 627 463
f 461 625 627
f 625 960 627
f 627 960 964
f 965 1017 1089
f 961 1273 1017
f 1017 1273 1089
f 1273 1205 1089
f 1205 785 1089
f 69 1 1205
f 69 1205 1273
f 255 179 1
f 255 1 69
f 439 365 179
f 439 179 255
f 603 537 365
f 603 365 439
f 747 786 537
f 603 747 537
f 745 747 603
f 745 917 747
f 745 915 917
f 915 962 917
f 917 962 966
f 281 967 279
f 279 967 963
f 279 465 281
f 279 463 465
f 463 629 465
f 463 627 629
f 627 964 629
f 629 964 968
f 1091 969 1089
f 1089 969 965
f 1089 785 787
f 1089 787 1091
f 749 788 786
f 749 786 747
f 747 919 749
f 747 917 919
f 917 966 919
f 919 966 970
f 283 971 281
f 281 971 967
f 281 467 283
f 281 465 467
f 972 467 556
f 467 629 556
f 467 465 629
f 629 968 556
f 1093 973 1091
f 1091 973 969
f 1091 787 789
f 1091 789 1093
f 751 790 788
f 751 788 749
f 749 921 751
f 749 919 921
f 919 970 921
f 921 970 974
f 283 198 971
f 198 283 384
f 384 283 467
f 467 972 384
f 1095 975 1093
f 1093 975 973
f 1093 789 791
f 1093 791 1095
f 753 792 790
f 753 790 751
f 751 923 753
f 751 921 923
f 921 974 923
f 923 974 976
f 1097 977 1095
f 1095 977 975
f 1095 791 793
f 1095 793 1097
f 180 265 794
f 366 449 265
f 366 265 180
f 538 613 449
f 538 449 366
f 613 538 792
f 753 613 792
f 755 613 753
f 753 925 755
f 753 923 925
f 923 976 925
f 925 976 978
f 1097 1018 977
f 1285 979 1206
f 1206 979 793
f 979 1018 793
f 1018 1097 793
f 2 81 1285
f 2 1285 1206
f 265 182 794
f 794 182 2
f 182 980 2
f 980 81 2
f 182 265 368
f 368 265 449
f 368 449 540
f 540 449 613
f 540 613 682
f 682 613 755
f 682 755 840
f 840 755 925
f 925 978 840
f 1285 1208 979
f 1208 1285 4
f 4 1285 81
f 81 980 4
f 86 31 795
f 981 213 86
f 213 31 86
f 213 211 31
f 213 397 211
f 399 397 213
f 399 569 397
f 571 569 399
f 571 709 569
f 711 709 571
f 711 982 709
f 709 982 796
f 1292 1233 797
f 33 86 795
f 33 795 1233
f 983 33 1233
f 1292 983 1233
f 981 86 33
f 865 796 982
f 865 982 867
f 867 984 865
f 865 984 798
f 1108 1041 799
f 1235 1292 797
f 1235 797 1041
f 985 1235 1041
f 1108 985 1041
f 983 1292 1235
f 1053 798 984
f 1053 984 1055
f 1055 986 1053
f 1053 986 800
f 604 553 801
f 746 695 604
f 604 695 553
f 916 853 746
f 746 853 695
f 1043 1108 799
f 1043 799 853
f 987 1043 853
f 916 987 853
f 985 1108 1043
f 800 988 802
f 986 988 800
f 72 17 803
f 258 195 72
f 72 195 17
f 442 381 258
f 258 381 195
f 381 442 801
f 442 604 801
f 442 606 604
f 748 604 606
f 746 604 748
f 918 746 748
f 916 746 918
f 987 916 918
f 987 918 989
f 802 990 804
f 988 990 802
f 805 74 803
f 803 74 72
f 260 72 74
f 258 72 260
f 444 258 260
f 442 258 444
f 608 442 444
f 606 442 608
f 750 606 608
f 748 606 750
f 920 748 750
f 918 748 920
f 989 918 920
f 989 920 991
f 804 992 806
f 990 992 804
f 807 76 805
f 805 76 74
f 262 74 76
f 260 74 262
f 446 260 262
f 444 260 446
f 610 444 446
f 608 444 610
f 752 608 610
f 750 608 752
f 922 750 752
f 920 750 922
f 991 920 922
f 991 922 993
f 806 994 808
f 992 994 806
f 18 76 807
f 196 262 18
f 18 262 76
f 382 446 196
f 196 446 262
f 554 610 382
f 382 610 446
f 809 754 554
f 754 610 554
f 754 752 610
f 924 752 754
f 922 752 924
f 1118 1044 993
f 922 1118 993
f 924 1118 922
f 995 1044 1118
f 1056 996 810
f 1056 810 1054
f 1054 808 1056
f 1056 808 994
f 696 754 809
f 854 924 696
f 696 924 754
f 1042 1118 854
f 854 1118 924
f 1236 995 1306
f 1306 995 811
f 995 1118 811
f 1118 1042 811
f 997 1236 1306
f 710 781 812
f 868 998 781
f 710 868 781
f 866 868 710
f 866 810 868
f 868 810 996
f 1234 1306 811
f 34 997 104
f 104 997 813
f 997 1306 813
f 1306 1234 813
f 34 104 292
f 34 292 214
f 999 214 292
f 572 1000 814
f 572 814 570
f 781 712 812
f 712 570 812
f 712 572 570
f 781 998 712
f 32 104 813
f 212 292 32
f 32 292 104
f 292 212 999
f 212 400 999
f 212 398 400
f 398 814 400
f 400 814 1000
f 1001 415 455
f 455 415 815
f 415 585 815
f 415 587 585
f 587 725 585
f 727 725 587
f 727 881 725
f 883 881 727
f 883 1069 881
f 1071 1069 883
f 1071 1255 1069
f 1257 1255 1071
f 816 1255 105
f 1255 51 105
f 1255 1257 51
f 51 1002 105
f 1003 229 275
f 1001 455 229
f 229 455 275
f 455 413 275
f 413 817 275
f 455 815 413
f 105 49 816
f 1002 239 295
f 1002 295 818
f 105 1002 818
f 49 105 818
f 239 1004 295
f 227 819 275
f 819 1003 275
f 819 1005 1003
f 275 817 227
f 295 237 818
f 1004 425 479
f 1004 479 820
f 295 1004 820
f 237 295 820
f 425 1006 479
f 1007 819 821
f 1007 1005 819
f 479 423 820
f 479 1006 423
f 1006 822 423
f 1006 1008 822
f 230 1007 282
f 1007 823 282
f 1007 821 823
f 1009 230 282
f 822 1010 824
f 1008 1010 822
f 228 282 823
f 416 1009 468
f 468 1009 825
f 1009 282 825
f 282 228 825
f 1011 416 468
f 824 1012 826
f 1010 1012 824
f 414 468 825
f 588 1011 634
f 634 1011 827
f 1011 468 827
f 468 414 827
f 1013 588 634
f 424 487 828
f 424 826 487
f 826 1014 487
f 826 1012 1014
f 586 634 827
f 728 1013 780
f 780 1013 829
f 1013 634 829
f 634 586 829
f 1015 728 780
f 238 307 830
f 487 426 828
f 828 426 238
f 426 1016 238
f 1016 307 238
f 487 1014 426
f 726 780 829
f 780 726 1015
f 726 884 1015
f 726 882 884
f 1070 884 882
f 1070 1072 884
f 1256 1072 1070
f 1256 1258 1072
f 50 1258 1256
f 50 52 1258
f 307 240 830
f 240 50 830
f 240 52 50
f 307 1016 240
f 1147 183 249
f 249 183 433
f 433 183 369
f 433 369 597
f 597 369 541
f 597 541 739
f 739 541 683
f 739 683 909
f 909 683 841
f 909 841 1103
f 1103 841 1029
f 1103 1029 1289
f 1289 1029 1221
f 1289 1221 85
f 85 1221 19
f 19 1148 85
f 1149 5 65
f 1147 249 5
f 5 249 65
f 249 181 65
f 181 955 65
f 433 367 181
f 433 181 249
f 597 539 367
f 597 367 433
f 739 681 539
f 739 539 597
f 909 839 681
f 909 681 739
f 1105 956 839
f 909 1105 839
f 1103 1105 909
f 1103 1291 1105
f 1103 1289 1291
f 1289 87 1291
f 1289 85 87
f 199 273 1148
f 273 85 1148
f 273 87 85
f 273 199 457
f 457 199 385
f 457 385 623
f 623 385 557
f 557 1150 623
f 1151 1209 1271
f 1149 65 1209
f 1209 65 1271
f 65 3 1271
f 3 957 1271
f 65 955 3
f 1107 958 956
f 1107 956 1105
f 1105 1293 1107
f 1105 1291 1293
f 1291 89 1293
f 1291 87 89
f 87 277 89
f 87 273 277
f 457 383 959
f 277 457 959
f 273 457 277
f 623 555 383
f 623 383 457
f 1150 697 769
f 1150 769 960
f 623 1150 960
f 555 623 960
f 697 1152 769
f 1153 1019 1087
f 1151 1271 1019
f 1019 1271 1087
f 1271 1207 1087
f 1207 961 1087
f 1271 957 1207
f 1109 962 958
f 1109 958 1107
f 1107 1295 1109
f 1107 1293 1295
f 1293 91 1295
f 1293 89 91
f 277 197 963
f 91 277 963
f 89 277 91
f 277 959 197
f 771 964 960
f 771 960 769
f 769 1152 771
f 771 1152 1154
f 1155 831 899
f 1153 1087 831
f 831 1087 899
f 1087 1017 899
f 1017 965 899
f 1087 961 1017
f 1111 966 962
f 1111 962 1109
f 1109 1297 1111
f 1109 1295 1297
f 1295 93 1297
f 1295 91 93
f 91 963 967
f 91 967 93
f 773 968 964
f 773 964 771
f 771 1154 773
f 773 1154 1156
f 901 1157 899
f 899 1157 1155
f 899 965 969
f 899 969 901
f 1113 970 966
f 1113 966 1111
f 1111 1299 1113
f 1111 1297 1299
f 1297 95 1299
f 1297 93 95
f 93 967 971
f 93 971 95
f 556 631 972
f 631 556 968
f 773 631 968
f 775 631 773
f 773 1156 775
f 775 1156 1158
f 903 1159 901
f 901 1159 1157
f 901 969 973
f 901 973 903
f 1115 974 970
f 1115 970 1113
f 1113 1301 1115
f 1113 1299 1301
f 1299 97 1301
f 1299 95 97
f 95 971 198
f 285 95 198
f 97 95 285
f 384 469 285
f 384 285 198
f 469 384 972
f 631 469 972
f 633 469 631
f 1160 633 698
f 633 775 698
f 633 631 775
f 775 1158 698
f 905 1161 903
f 903 1161 1159
f 903 973 975
f 903 975 905
f 1117 976 974
f 1117 974 1115
f 1115 1303 1117
f 1115 1301 1303
f 1301 99 1303
f 1301 97 99
f 97 287 99
f 97 285 287
f 1162 287 386
f 287 469 386
f 287 285 469
f 386 469 558
f 558 469 633
f 633 1160 558
f 907 1163 905
f 905 1163 1161
f 905 975 977
f 905 977 907
f 1119 978 976
f 1119 976 1117
f 1117 1305 1119
f 1117 1303 1305
f 1303 101 1305
f 1303 99 101
f 1164 101 200
f 101 287 200
f 101 99 287
f 287 1162 200
f 907 832 1163
f 1099 1165 1018
f 1018 1165 977
f 1165 832 977
f 832 907 977
f 979 1099 1018
f 182 267 980
f 368 451 267
f 368 267 182
f 540 615 451
f 540 451 368
f 682 757 615
f 682 615 540
f 840 927 757
f 840 757 682
f 927 840 978
f 1119 927 978
f 1121 927 1119
f 1166 1121 1222
f 1121 1305 1222
f 1121 1119 1305
f 1222 1305 20
f 20 1305 101
f 101 1164 20
f 1099 1020 1165
f 979 1208 1099
f 1208 1020 1099
f 1208 1210 1020
f 4 1210 1208
f 4 6 1210
f 267 184 980
f 184 4 980
f 184 6 4
f 184 267 370
f 370 267 451
f 370 451 542
f 542 451 615
f 542 615 1167
f 615 759 1167
f 615 757 759
f 757 929 759
f 757 927 929
f 1168 929 1030
f 929 1121 1030
f 929 927 1121
f 1121 1166 1030
f 759 684 1167
f 684 759 842
f 842 759 929
f 929 1168 842
f 272 213 981
f 1169 401 272
f 401 213 272
f 401 399 213
f 401 571 399
f 573 571 401
f 762 711 1170
f 711 573 1170
f 711 571 573
f 762 982 711
f 1171 35 983
f 983 35 33
f 215 272 981
f 33 215 981
f 35 215 33
f 1169 272 215
f 713 762 1170
f 867 982 762
f 713 867 762
f 869 867 713
f 869 1172 867
f 867 1172 984
f 1173 1237 985
f 985 1237 1235
f 983 1235 1237
f 983 1237 1171
f 1055 984 1172
f 1055 1172 1057
f 1057 1174 1055
f 1055 1174 986
f 1110 1043 987
f 985 1043 1110
f 1175 985 1110
f 1173 985 1175
f 986 1176 988
f 1174 1176 986
f 989 1112 987
f 987 1112 1110
f 1175 1110 1112
f 1175 1112 1177
f 988 1178 990
f 1176 1178 988
f 991 1114 989
f 989 1114 1112
f 1177 1112 1114
f 1177 1114 1179
f 990 1180 992
f 1178 1180 990
f 993 1116 991
f 991 1116 1114
f 1179 1114 1116
f 1179 1116 1181
f 992 1182 994
f 1180 1182 992
f 1044 1116 993
f 1181 1116 1044
f 995 1181 1044
f 1183 1181 995
f 1056 1143 996
f 1056 994 1143
f 994 1184 1143
f 994 1182 1184
f 995 1236 1183
f 1183 1236 1238
f 1185 1238 1236
f 1185 1236 997
f 868 951 998
f 1143 1058 996
f 996 1058 868
f 1058 1186 868
f 1186 951 868
f 1143 1184 1058
f 997 34 1185
f 1185 34 36
f 214 36 34
f 214 216 36
f 1187 216 214
f 1187 214 999
f 572 639 1000
f 712 783 639
f 712 639 572
f 951 870 998
f 998 870 712
f 870 1188 712
f 1188 783 712
f 951 1186 870
f 999 400 1187
f 1187 400 402
f 639 574 1000
f 574 400 1000
f 574 402 400
f 574 639 714
f 714 639 783
f 783 1188 714
f 1189 417 1001
f 1001 417 415
f 417 587 415
f 589 587 417
f 589 727 587
f 729 727 589
f 729 883 727
f 885 883 729
f 885 1071 883
f 1073 1071 885
f 1073 1257 1071
f 1259 1257 1073
f 1259 51 1257
f 53 51 1259
f 1002 51 293
f 51 241 293
f 51 53 241
f 241 1190 293
f 1191 231 1003
f 1003 231 229
f 1001 229 231
f 1001 231 1189
f 293 239 1002
f 1190 427 477
f 1190 477 1004
f 293 1190 1004
f 239 293 1004
f 427 1192 477
f 1193 1003 1005
f 1193 1191 1003
f 477 425 1004
f 477 1192 425
f 1192 1006 425
f 1192 1194 1006
f 1195 1005 1007
f 1195 1193 1005
f 1006 1196 1008
f 1194 1196 1006
f 1007 230 1195
f 1195 230 232
f 1197 232 230
f 1197 230 1009
f 1008 1198 1010
f 1196 1198 1008
f 1009 416 1197
f 1197 416 418
f 1199 418 416
f 1199 416 1011
f 1010 1200 1012
f 1198 1200 1010
f 1011 588 1199
f 1199 588 590
f 1201 590 588
f 1201 588 1013
f 1012 1202 1014
f 1200 1202 1012
f 1013 728 1201
f 1201 728 730
f 1203 730 728
f 1203 728 1015
f 428 1204 1016
f 428 1016 426
f 426 1014 428
f 428 1014 1202
f 1015 884 1203
f 1203 884 886
f 1072 886 884
f 1072 1074 886
f 1258 1074 1072
f 1258 1260 1074
f 52 1260 1258
f 52 54 1260
f 240 54 52
f 240 242 54
f 240 1016 242
f 242 1016 1204
f 1333 1223 1287
f 1287 1223 83
f 83 1223 21
f 21 1334 83
f 1335 7 63
f 63 7 1147
f 7 183 1147
f 7 185 183
f 185 369 183
f 371 369 185
f 371 541 369
f 543 541 371
f 543 683 541
f 685 683 543
f 685 841 683
f 843 841 685
f 843 1029 841
f 1031 1029 843
f 1031 1333 1287
f 1221 1031 1287
f 1029 1031 1221
f 83 19 1221
f 83 1221 1287
f 1334 201 271
f 1334 271 1148
f 83 1334 1148
f 19 83 1148
f 271 201 453
f 453 201 387
f 453 387 619
f 619 387 559
f 559 1336 619
f 1337 1211 1269
f 1335 63 1211
f 1211 63 1269
f 63 5 1269
f 5 1149 1269
f 63 1147 5
f 271 199 1148
f 453 385 199
f 453 199 271
f 619 557 385
f 619 385 453
f 1336 699 765
f 1336 765 1150
f 619 1336 1150
f 557 619 1150
f 699 1338 765
f 1339 1021 1085
f 1337 1269 1021
f 1021 1269 1085
f 1269 1209 1085
f 1209 1151 1085
f 1269 1149 1209
f 765 697 1150
f 1338 855 939
f 1338 939 1152
f 765 1338 1152
f 697 765 1152
f 855 1340 939
f 1341 833 897
f 1339 1085 833
f 833 1085 897
f 1085 1019 897
f 1019 1153 897
f 1085 1151 1019
f 941 1154 1152
f 941 1152 939
f 939 1340 941
f 941 1340 1342
f 831 1155 897
f 1155 1341 897
f 1155 1343 1341
f 897 1153 831
f 943 1156 1154
f 943 1154 941
f 941 1342 943
f 943 1342 1344
f 1345 1155 1157
f 1345 1343 1155
f 945 1158 1156
f 945 1156 943
f 943 1344 945
f 945 1344 1346
f 1347 1157 1159
f 1347 1345 1157
f 698 777 1160
f 945 856 1158
f 1158 856 698
f 856 1348 698
f 1348 777 698
f 945 1346 856
f 1349 1159 1161
f 1349 1347 1159
f 386 471 1162
f 558 635 471
f 558 471 386
f 777 700 1160
f 1160 700 558
f 700 1350 558
f 1350 635 558
f 777 1348 700
f 1351 1161 1163
f 1351 1349 1161
f 200 289 1164
f 471 388 1162
f 1162 388 200
f 388 1352 200
f 1352 289 200
f 388 471 560
f 560 471 635
f 635 1350 560
f 1163 832 1351
f 1351 832 834
f 1353 834 832
f 1353 832 1165
f 1222 1307 1166
f 20 103 1307
f 20 1307 1222
f 289 202 1164
f 1164 202 20
f 202 1354 20
f 1354 103 20
f 289 1352 202
f 1165 1020 1353
f 1353 1020 1022
f 1210 1022 1020
f 1210 1212 1022
f 6 1212 1210
f 6 8 1212
f 184 8 6
f 184 186 8
f 370 186 184
f 370 372 186
f 542 617 1355
f 372 542 1355
f 370 542 372
f 1167 617 542
f 1030 1123 1168
f 1307 1224 1166
f 1166 1224 1030
f 1224 1356 1030
f 1356 1123 1030
f 1224 1307 22
f 22 1307 103
f 103 1354 22
f 617 544 1355
f 1167 684 617
f 684 544 617
f 684 686 544
f 842 686 684
f 842 844 686
f 1123 1032 1168
f 1032 842 1168
f 1032 844 842
f 1123 1356 1032
f 454 401 1169
f 620 573 454
f 454 573 401
f 620 1170 573
f 88 35 1171
f 1357 217 88
f 217 35 88
f 217 215 35
f 403 454 1169
f 215 403 1169
f 217 403 215
f 454 403 575
f 454 575 620
f 713 1170 620
f 575 713 620
f 715 713 575
f 936 869 1358
f 869 715 1358
f 869 713 715
f 936 1172 869
f 1294 1237 1173
f 37 88 1171
f 37 1171 1237
f 1359 37 1237
f 1294 1359 1237
f 1357 88 37
f 871 936 1358
f 1360 1132 1057
f 1360 1057 1172
f 871 1360 1172
f 936 871 1172
f 1132 1174 1057
f 1294 1173 1239
f 1173 1361 1239
f 1173 1175 1361
f 1359 1294 1239
f 1059 1132 1360
f 1059 1362 1132
f 1362 1174 1132
f 1362 1176 1174
f 1363 1175 1177
f 1363 1361 1175
f 1176 1364 1178
f 1362 1364 1176
f 1365 1177 1179
f 1365 1363 1177
f 1178 1366 1180
f 1364 1366 1178
f 1367 1179 1181
f 1367 1365 1179
f 1180 1368 1182
f 1366 1368 1180
f 1240 1367 1304
f 1367 1183 1304
f 1367 1181 1183
f 1369 1240 1304
f 1182 1370 1184
f 1368 1370 1182
f 1238 1304 1183
f 38 1369 102
f 102 1369 1185
f 1369 1304 1185
f 1304 1238 1185
f 1371 38 102
f 1058 1145 1186
f 1058 1184 1145
f 1184 1372 1145
f 1184 1370 1372
f 36 102 1185
f 102 36 1371
f 36 218 1371
f 36 216 218
f 1373 218 216
f 1373 216 1187
f 870 953 1188
f 1145 1060 1186
f 1186 1060 870
f 1060 1374 870
f 1374 953 870
f 1145 1372 1060
f 1187 402 1373
f 1373 402 404
f 574 404 402
f 574 576 404
f 714 576 574
f 714 716 576
f 953 872 1188
f 872 714 1188
f 872 716 714
f 953 1374 872
f 456 417 1189
f 1375 591 456
f 591 417 456
f 591 589 417
f 591 729 589
f 731 729 591
f 731 885 729
f 887 885 731
f 887 1073 885
f 1075 1073 887
f 1075 1259 1073
f 1261 1259 1075
f 1261 53 1259
f 55 53 1261
f 55 241 53
f 243 241 55
f 243 1376 241
f 241 1376 1190
f 276 231 1191
f 419 456 1189
f 419 1189 231
f 1377 419 231
f 276 1377 231
f 1375 456 419
f 427 1190 1376
f 427 1376 429
f 429 1378 427
f 427 1378 1192
f 1193 278 1191
f 1191 278 276
f 1377 276 278
f 1377 278 1379
f 1192 1380 1194
f 1378 1380 1192
f 1195 280 1193
f 1193 280 278
f 1379 278 280
f 1379 280 1381
f 1194 1382 1196
f 1380 1382 1194
f 232 280 1195
f 420 1381 466
f 466 1381 1197
f 1381 280 1197
f 280 232 1197
f 1383 420 466
f 1196 1384 1198
f 1382 1384 1196
f 418 466 1197
f 592 1383 632
f 632 1383 1199
f 1383 466 1199
f 466 418 1199
f 1385 592 632
f 1198 1386 1200
f 1384 1386 1198
f 590 632 1199
f 732 1385 778
f 778 1385 1201
f 1385 632 1201
f 632 590 1201
f 1387 732 778
f 1200 1388 1202
f 1386 1388 1200
f 730 778 1201
f 888 1387 950
f 950 1387 1203
f 1387 778 1203
f 778 730 1203
f 1389 888 950
f 430 1390 1204
f 430 1204 428
f 428 1202 430
f 430 1202 1388
f 886 950 1203
f 950 886 1389
f 886 1076 1389
f 886 1074 1076
f 1260 1076 1074
f 1260 1262 1076
f 54 1262 1260
f 54 56 1262
f 242 56 54
f 242 244 56
f 242 1204 244
f 244 1204 1390
f 121 1033 1101
f 1101 1033 1333
f 1033 1223 1333
f 1033 1225 1223
f 1225 21 1223
f 23 21 1225
f 1334 21 269
f 21 203 269
f 21 23 203
f 203 122 269
f 123 9 1335
f 1335 9 7
f 9 185 7
f 187 185 9
f 187 371 185
f 373 371 187
f 373 543 371
f 545 543 373
f 545 685 543
f 687 685 545
f 687 843 685
f 845 843 687
f 845 121 1101
f 1031 845 1101
f 843 845 1031
f 1101 1333 1031
f 269 201 1334
f 201 269 122
f 389 201 122
f 387 201 389
f 389 559 387
f 561 559 389
f 1336 559 761
f 559 701 761
f 559 561 701
f 701 124 761
f 125 1213 1337
f 1337 1213 1211
f 1335 1211 1213
f 1335 1213 123
f 761 699 1336
f 124 857 935
f 124 935 1338
f 761 124 1338
f 699 761 1338
f 857 126 935
f 127 1023 1339
f 1339 1023 1021
f 1337 1021 1023
f 1337 1023 125
f 935 855 1338
f 126 1045 1131
f 126 1131 1340
f 935 126 1340
f 855 935 1340
f 1045 128 1131
f 129 835 1341
f 1341 835 833
f 1339 833 835
f 1339 835 127
f 1135 1342 1340
f 1135 1340 1131
f 1131 128 1135
f 1135 128 130
f 131 1341 1343
f 131 129 1341
f 1137 1344 1342
f 1137 1342 1135
f 1135 130 1137
f 1137 130 132
f 133 1343 1345
f 133 131 1343
f 1139 1346 1344
f 1139 1344 1137
f 1137 132 1139
f 1139 132 134
f 135 1345 1347
f 135 133 1345
f 856 947 1348
f 1139 1046 1346
f 1346 1046 856
f 1046 136 856
f 136 947 856
f 1139 134 1046
f 137 1347 1349
f 137 135 1347
f 700 779 1350
f 947 858 1348
f 1348 858 700
f 858 138 700
f 138 779 700
f 947 136 858
f 836 137 908
f 137 1351 908
f 137 1349 1351
f 139 836 908
f 388 473 1352
f 562 140 473
f 388 562 473
f 560 562 388
f 779 702 1350
f 702 560 1350
f 702 562 560
f 779 138 702
f 834 908 1351
f 139 908 834
f 1353 139 834
f 141 139 1353
f 202 291 1354
f 473 390 1352
f 1352 390 202
f 390 142 202
f 142 291 202
f 473 140 390
f 1353 1022 141
f 141 1022 1024
f 1212 1024 1022
f 1212 1214 1024
f 8 1214 1212
f 8 10 1214
f 186 10 8
f 186 188 10
f 372 188 186
f 372 374 188
f 143 374 372
f 143 372 1355
f 1226 144 1356
f 1226 1356 1224
f 22 1226 1224
f 22 24 1226
f 291 204 1354
f 204 22 1354
f 204 24 22
f 291 142 204
f 1355 544 143
f 143 544 546
f 686 546 544
f 686 688 546
f 844 688 686
f 844 846 688
f 1032 846 844
f 1032 1034 846
f 1032 1356 1034
f 1034 1356 144
f 274 217 1357
f 145 405 274
f 405 217 274
f 405 403 217
f 405 575 403
f 577 575 405
f 766 715 146
f 715 577 146
f 715 575 577
f 766 1358 715
f 90 37 1359
f 219 274 1357
f 219 1357 37
f 147 219 37
f 90 147 37
f 145 274 219
f 717 766 146
f 871 1358 766
f 717 871 766
f 873 871 717
f 873 148 871
f 871 148 1360
f 1296 1239 1361
f 39 90 1359
f 39 1359 1239
f 149 39 1239
f 1296 149 1239
f 147 90 39
f 1059 1360 148
f 1059 148 1061
f 1061 150 1059
f 1059 150 1362
f 1296 1361 1241
f 1361 151 1241
f 1361 1363 151
f 149 1296 1241
f 1362 152 1364
f 150 152 1362
f 153 1363 1365
f 153 151 1363
f 1364 154 1366
f 152 154 1364
f 155 1365 1367
f 155 153 1365
f 1366 156 1368
f 154 156 1366
f 1367 1240 155
f 155 1240 1242
f 157 1242 1240
f 157 1240 1369
f 1368 158 1370
f 156 158 1368
f 1369 38 157
f 157 38 40
f 159 40 38
f 159 38 1371
f 1370 160 1372
f 158 160 1370
f 1371 218 159
f 159 218 220
f 161 220 218
f 161 218 1373
f 1062 162 1374
f 1062 1374 1060
f 1060 1372 1062
f 1062 1372 160
f 1373 404 161
f 161 404 406
f 576 406 404
f 576 578 406
f 716 578 576
f 716 718 578
f 872 718 716
f 872 874 718
f 872 1374 874
f 874 1374 162
f 622 591 1375
f 163 733 622
f 733 591 622
f 733 731 591
f 733 887 731
f 889 887 733
f 889 1075 887
f 1077 1075 889
f 1077 1261 1075
f 1263 1261 1077
f 1263 55 1261
f 57 55 1263
f 57 243 55
f 245 243 57
f 245 164 243
f 243 164 1376
f 460 419 1377
f 593 622 1375
f 593 1375 419
f 165 593 419
f 460 165 419
f 163 622 593
f 166 478 429
f 1376 166 429
f 164 166 1376
f 478 1378 429
f 460 1377 421
f 1377 167 421
f 1377 1379 167
f 165 460 421
f 431 478 166
f 431 168 478
f 168 1378 478
f 168 1380 1378
f 422 167 464
f 167 1381 464
f 167 1379 1381
f 169 422 464
f 1380 170 1382
f 168 170 1380
f 420 464 1381
f 169 464 420
f 1383 169 420
f 171 169 1383
f 1382 172 1384
f 170 172 1382
f 1383 592 171
f 171 592 594
f 173 594 592
f 173 592 1385
f 1384 174 1386
f 172 174 1384
f 1385 732 173
f 173 732 734
f 175 734 732
f 175 732 1387
f 432 176 488
f 488 1388 432
f 1388 174 432
f 1388 1386 174
f 1387 888 175
f 175 888 890
f 888 1389 1144
f 1078 888 1144
f 890 888 1078
f 177 1078 1144
f 1390 430 488
f 176 1390 488
f 178 1390 176
f 1388 488 430
f 1076 1144 1389
f 1144 1076 177
f 1076 1264 177
f 1076 1262 1264
f 56 1264 1262
f 56 58 1264
f 244 58 56
f 244 246 58
f 244 1390 246
f 246 1390 178
