# Converted from NanoShaper .vert/.face
v 4.521000 15.054000 12.879000
v 6.135000 15.054000 12.879000
v 4.134000 15.054000 13.379000
v 6.396000 15.054000 13.379000
v 3.848000 15.054000 13.879000
v 6.704000 15.054000 13.879000
v 3.773000 15.054000 14.379000
v 7.033000 15.054000 14.379000
v 3.882000 15.054000 14.879000
v 7.519000 15.054000 14.879000
v 4.241000 15.054000 15.379000
v 7.863000 15.054000 15.379000
v 4.677000 15.054000 15.879000
v 7.950000 15.054000 15.879000
v 5.286000 15.054000 16.379000
v 7.837000 15.054000 16.379000
v 5.844000 15.054000 16.879000
v 7.446000 15.054000 16.879000
v 4.173000 15.054000 13.326000
v 4.173000 15.054000 15.315000
v 4.673000 15.054000 12.709000
v 4.673000 15.054000 15.876000
v 5.173000 15.054000 12.424000
v 5.173000 15.054000 16.282000
v 5.673000 15.054000 12.416000
v 5.673000 15.054000 16.721000
v 6.173000 15.054000 12.944000
v 6.173000 15.054000 17.066000
v 6.673000 15.054000 13.828000
v 6.673000 15.054000 17.154000
v 7.173000 15.054000 14.549000
v 7.173000 15.054000 17.042000
v 7.673000 15.054000 15.045000
v 7.673000 15.054000 16.652000
v 3.673000 16.551000 11.379000
v 3.673000 17.380000 11.379000
v 4.173000 15.526000 11.379000
v 4.173000 18.116000 11.379000
v 4.673000 15.222000 11.379000
v 4.673000 18.405000 11.379000
v 5.173000 15.144000 11.379000
v 5.173000 18.483000 11.379000
v 5.673000 15.168000 11.379000
v 5.673000 18.376000 11.379000
v 6.173000 15.268000 11.379000
v 6.173000 18.183000 11.379000
v 6.673000 15.608000 11.379000
v 6.673000 17.851000 11.379000
v 4.673000 14.183000 15.379000
v 4.673000 16.530000 15.379000
v 5.173000 13.864000 15.379000
v 5.173000 17.105000 15.379000
v 5.673000 13.763000 15.379000
v 5.673000 17.247000 15.379000
v 6.173000 13.861000 15.379000
v 6.173000 17.868000 15.379000
v 6.673000 14.107000 15.379000
v 6.673000 18.453000 15.379000
v 7.173000 14.350000 15.379000
v 7.173000 18.568000 15.379000
v 7.673000 14.734000 15.379000
v 7.673000 18.414000 15.379000
v 5.408000 15.554000 8.379000
v 6.029000 15.554000 8.379000
v 4.823000 15.554000 8.879000
v 6.615000 15.554000 8.879000
v 4.713000 15.554000 9.379000
v 6.724000 15.554000 9.379000
v 4.645000 15.554000 9.879000
v 6.638000 15.554000 9.879000
v 4.336000 15.554000 10.379000
v 6.674000 15.554000 10.379000
v 4.220000 15.554000 10.879000
v 6.595000 15.554000 10.879000
v 4.145000 15.554000 11.379000
v 6.620000 15.554000 11.379000
v 4.268000 15.554000 11.879000
v 6.601000 15.554000 11.879000
v 4.366000 15.554000 12.379000
v 6.674000 15.554000 12.379000
v 4.327000 15.554000 12.879000
v 6.735000 15.554000 12.879000
v 4.115000 15.554000 13.379000
v 6.750000 15.554000 13.379000
v 3.905000 15.554000 13.879000
v 6.897000 15.554000 13.879000
v 3.867000 15.554000 14.379000
v 7.202000 15.554000 14.379000
v 3.998000 15.554000 14.879000
v 7.685000 15.554000 14.879000
v 4.337000 15.554000 15.379000
v 7.964000 15.554000 15.379000
v 4.689000 15.554000 15.879000
v 8.044000 15.554000 15.879000
v 5.168000 15.554000 16.379000
v 7.940000 15.554000 16.379000
v 5.697000 15.554000 16.879000
v 7.592000 15.554000 16.879000
v 4.173000 15.554000 11.120000
v 4.173000 15.554000 11.596000
v 4.173000 15.554000 13.265000
v 4.173000 15.554000 15.158000
v 4.673000 15.554000 9.793000
v 4.673000 15.554000 15.862000
v 5.173000 15.554000 8.491000
v 5.173000 15.554000 16.384000
v 5.673000 15.554000 8.331000
v 5.673000 15.554000 16.857000
v 6.173000 15.554000 8.439000
v 6.173000 15.554000 17.167000
v 6.673000 15.554000 9.019000
v 6.673000 15.554000 9.660000
v 6.673000 15.554000 10.319000
v 6.673000 15.554000 10.398000
v 6.673000 15.554000 12.332000
v 6.673000 15.554000 17.249000
v 7.173000 15.554000 14.342000
v 7.173000 15.554000 17.145000
v 7.673000 15.554000 14.865000
v 7.673000 15.554000 16.798000
v 4.173000 15.658000 11.879000
v 4.173000 18.022000 11.879000
v 4.673000 15.268000 11.879000
v 4.673000 18.355000 11.879000
v 5.173000 15.166000 11.879000
v 5.173000 18.445000 11.879000
v 5.673000 15.182000 11.879000
v 5.673000 18.411000 11.879000
v 6.173000 15.283000 11.879000
v 6.173000 18.281000 11.879000
v 6.673000 15.625000 11.879000
v 6.673000 17.979000 11.879000
v 7.173000 16.545000 11.879000
v 7.173000 17.457000 11.879000
v 5.173000 14.214000 15.879000
v 5.173000 16.447000 15.879000
v 5.673000 14.078000 15.879000
v 5.673000 16.758000 15.879000
v 6.173000 14.103000 15.879000
v 6.173000 17.038000 15.879000
v 6.673000 14.153000 15.879000
v 6.673000 17.388000 15.879000
v 7.173000 14.264000 15.879000
v 7.173000 17.446000 15.879000
v 7.673000 14.610000 15.879000
v 7.673000 16.824000 15.879000
v 4.813000 16.054000 8.379000
v 6.624000 16.054000 8.379000
v 4.483000 16.054000 8.879000
v 6.955000 16.054000 8.879000
v 4.246000 16.054000 9.379000
v 7.104000 16.054000 9.379000
v 3.831000 16.054000 9.879000
v 7.191000 16.054000 9.879000
v 3.671000 16.054000 10.379000
v 7.065000 16.054000 10.379000
v 3.754000 16.054000 10.879000
v 6.940000 16.054000 10.879000
v 3.822000 16.054000 11.379000
v 6.957000 16.054000 11.379000
v 3.931000 16.054000 11.879000
v 6.963000 16.054000 11.879000
v 4.110000 16.054000 12.379000
v 7.092000 16.054000 12.379000
v 4.111000 16.054000 12.879000
v 7.230000 16.054000 12.879000
v 3.965000 16.054000 13.379000
v 7.173000 16.054000 13.379000
v 3.864000 16.054000 13.879000
v 7.242000 16.054000 13.879000
v 3.927000 16.054000 14.379000
v 7.576000 16.054000 14.379000
v 4.186000 16.054000 14.879000
v 7.856000 16.054000 14.879000
v 4.482000 16.054000 15.379000
v 7.955000 16.054000 15.379000
v 4.814000 16.054000 15.879000
v 7.957000 16.054000 15.879000
v 5.325000 16.054000 16.379000
v 7.842000 16.054000 16.379000
v 5.836000 16.054000 16.879000
v 7.453000 16.054000 16.879000
v 3.673000 16.054000 10.344000
v 3.673000 16.054000 10.510000
v 4.173000 16.054000 9.484000
v 4.173000 16.054000 14.864000
v 4.673000 16.054000 8.535000
v 4.673000 16.054000 15.722000
v 5.173000 16.054000 8.137000
v 5.173000 16.054000 16.232000
v 5.673000 16.054000 8.020000
v 5.673000 16.054000 16.728000
v 6.173000 16.054000 8.100000
v 6.173000 16.054000 17.071000
v 6.673000 16.054000 8.428000
v 6.673000 16.054000 17.158000
v 7.173000 16.054000 9.640000
v 7.173000 16.054000 10.026000
v 7.173000 16.054000 12.574000
v 7.173000 16.054000 13.363000
v 7.173000 16.054000 13.498000
v 7.173000 16.054000 17.047000
v 7.673000 16.054000 14.502000
v 7.673000 16.054000 16.660000
v 5.173000 15.663000 8.379000
v 5.173000 17.399000 8.379000
v 5.673000 15.506000 8.379000
v 5.673000 17.548000 8.379000
v 6.173000 15.612000 8.379000
v 6.173000 17.443000 8.379000
v 6.673000 16.162000 8.379000
v 6.673000 16.892000 8.379000
v 4.173000 15.940000 12.379000
v 4.173000 18.036000 12.379000
v 4.673000 15.228000 12.379000
v 4.673000 18.380000 12.379000
v 5.173000 15.073000 12.379000
v 5.173000 18.482000 12.379000
v 5.673000 15.068000 12.379000
v 5.673000 18.487000 12.379000
v 6.173000 15.212000 12.379000
v 6.173000 18.399000 12.379000
v 6.673000 15.552000 12.379000
v 6.673000 18.241000 12.379000
v 7.173000 16.143000 12.379000
v 7.173000 17.907000 12.379000
v 5.173000 15.414000 16.379000
v 5.173000 15.626000 16.379000
v 5.673000 14.614000 16.379000
v 5.673000 16.437000 16.379000
v 6.173000 14.351000 16.379000
v 6.173000 16.766000 16.379000
v 6.673000 14.264000 16.379000
v 6.673000 16.877000 16.379000
v 7.173000 14.377000 16.379000
v 7.173000 16.770000 16.379000
v 7.673000 14.772000 16.379000
v 7.673000 16.347000 16.379000
v 4.697000 16.554000 8.379000
v 6.741000 16.554000 8.379000
v 4.278000 16.554000 8.879000
v 7.111000 16.554000 8.879000
v 3.868000 16.554000 9.379000
v 7.418000 16.554000 9.379000
v 3.480000 16.554000 9.879000
v 7.498000 16.554000 9.879000
v 3.362000 16.554000 10.379000
v 7.380000 16.554000 10.379000
v 3.441000 16.554000 10.879000
v 7.147000 16.554000 10.879000
v 3.673000 16.554000 11.379000
v 7.074000 16.554000 11.379000
v 3.823000 16.554000 11.879000
v 7.176000 16.554000 11.879000
v 3.892000 16.554000 12.379000
v 7.430000 16.554000 12.379000
v 3.850000 16.554000 12.879000
v 7.546000 16.554000 12.879000
v 3.843000 16.554000 13.379000
v 7.659000 16.554000 13.379000
v 3.791000 16.554000 13.879000
v 7.949000 16.554000 13.879000
v 3.890000 16.554000 14.379000
v 8.102000 16.554000 14.379000
v 4.229000 16.554000 14.879000
v 8.084000 16.554000 14.879000
v 4.685000 16.554000 15.379000
v 7.978000 16.554000 15.379000
v 5.313000 16.554000 15.879000
v 7.786000 16.554000 15.879000
v 5.813000 16.554000 16.379000
v 7.483000 16.554000 16.379000
v 3.673000 16.554000 9.575000
v 3.673000 16.554000 11.381000
v 4.173000 16.554000 8.993000
v 4.173000 16.554000 14.823000
v 4.673000 16.554000 8.406000
v 4.673000 16.554000 15.368000
v 5.173000 16.554000 8.047000
v 5.173000 16.554000 15.762000
v 5.673000 16.554000 7.937000
v 5.673000 16.554000 16.216000
v 6.173000 16.554000 8.012000
v 6.173000 16.554000 16.715000
v 6.673000 16.554000 8.312000
v 6.673000 16.554000 16.834000
v 7.173000 16.554000 8.962000
v 7.173000 16.554000 10.802000
v 7.173000 16.554000 11.873000
v 7.173000 16.554000 16.681000
v 7.673000 16.554000 13.417000
v 7.673000 16.554000 16.092000
v 4.173000 16.843000 8.879000
v 4.173000 17.272000 8.879000
v 4.673000 15.716000 8.879000
v 4.673000 17.940000 8.879000
v 5.173000 15.321000 8.879000
v 5.173000 18.064000 8.879000
v 5.673000 15.205000 8.879000
v 5.673000 18.015000 8.879000
v 6.173000 15.284000 8.879000
v 6.173000 18.044000 8.879000
v 6.673000 15.611000 8.879000
v 6.673000 17.917000 8.879000
v 7.173000 16.773000 8.879000
v 7.173000 17.266000 8.879000
v 4.173000 15.940000 12.879000
v 4.173000 17.987000 12.879000
v 4.673000 14.877000 12.879000
v 4.673000 18.335000 12.879000
v 5.173000 14.678000 12.879000
v 5.173000 18.441000 12.879000
v 5.673000 14.766000 12.879000
v 5.673000 18.438000 12.879000
v 6.173000 15.084000 12.879000
v 6.173000 18.425000 12.879000
v 6.673000 15.491000 12.879000
v 6.673000 18.376000 12.879000
v 7.173000 15.998000 12.879000
v 7.173000 18.176000 12.879000
v 7.673000 16.999000 12.879000
v 7.673000 17.428000 12.879000
v 6.173000 14.737000 16.879000
v 6.173000 16.382000 16.879000
v 6.673000 14.612000 16.879000
v 6.673000 16.507000 16.879000
v 7.173000 14.773000 16.879000
v 7.173000 16.346000 16.879000
v 4.834000 17.054000 8.379000
v 6.596000 17.054000 8.379000
v 4.150000 17.054000 8.879000
v 7.203000 17.054000 8.879000
v 3.750000 17.054000 9.379000
v 7.503000 17.054000 9.379000
v 3.392000 17.054000 9.879000
v 7.577000 17.054000 9.879000
v 3.281000 17.054000 10.379000
v 7.467000 17.054000 10.379000
v 3.355000 17.054000 10.879000
v 7.233000 17.054000 10.879000
v 3.621000 17.054000 11.379000
v 7.147000 17.054000 11.379000
v 3.786000 17.054000 11.879000
v 7.266000 17.054000 11.879000
v 3.799000 17.054000 12.379000
v 7.519000 17.054000 12.379000
v 3.775000 17.054000 12.879000
v 7.681000 17.054000 12.879000
v 3.804000 17.054000 13.379000
v 7.975000 17.054000 13.379000
v 3.777000 17.054000 13.879000
v 8.333000 17.054000 13.879000
v 3.866000 17.054000 14.379000
v 8.440000 17.054000 14.379000
v 4.187000 17.054000 14.879000
v 8.347000 17.054000 14.879000
v 5.097000 17.054000 15.379000
v 8.046000 17.054000 15.379000
v 6.192000 17.054000 15.879000
v 7.557000 17.054000 15.879000
v 3.673000 17.054000 9.455000
v 3.673000 17.054000 11.490000
v 4.173000 17.054000 8.856000
v 4.173000 17.054000 14.866000
v 4.673000 17.054000 8.494000
v 4.673000 17.054000 15.212000
v 5.173000 17.054000 8.159000
v 5.173000 17.054000 15.405000
v 5.673000 17.054000 8.040000
v 5.673000 17.054000 15.523000
v 6.173000 17.054000 8.121000
v 6.173000 17.054000 15.858000
v 6.673000 17.054000 8.444000
v 6.673000 17.054000 16.155000
v 7.173000 17.054000 8.849000
v 7.173000 17.054000 11.088000
v 7.173000 17.054000 11.591000
v 7.173000 17.054000 16.096000
v 7.673000 17.054000 12.861000
v 7.673000 17.054000 15.785000
v 8.173000 17.054000 13.608000
v 8.173000 17.054000 15.197000
v 4.173000 16.141000 9.379000
v 4.173000 17.938000 9.379000
v 4.673000 15.593000 9.379000
v 4.673000 18.283000 9.379000
v 5.173000 15.238000 9.379000
v 5.173000 18.375000 9.379000
v 5.673000 15.129000 9.379000
v 5.673000 18.360000 9.379000
v 6.173000 15.204000 9.379000
v 6.173000 18.344000 9.379000
v 6.673000 15.504000 9.379000
v 6.673000 18.248000 9.379000
v 7.173000 16.143000 9.379000
v 7.173000 17.894000 9.379000
v 4.173000 14.789000 13.379000
v 4.173000 18.021000 13.379000
v 4.673000 14.124000 13.379000
v 4.673000 18.369000 13.379000
v 5.173000 13.995000 13.379000
v 5.173000 18.473000 13.379000
v 5.673000 14.126000 13.379000
v 5.673000 18.455000 13.379000
v 6.173000 14.691000 13.379000
v 6.173000 18.484000 13.379000
v 6.673000 15.425000 13.379000
v 6.673000 18.542000 13.379000
v 7.173000 16.054000 13.379000
v 7.173000 18.544000 13.379000
v 7.673000 16.571000 13.379000
v 7.673000 18.372000 13.379000
v 4.281000 17.554000 8.879000
v 7.053000 17.554000 8.879000
v 3.889000 17.554000 9.379000
v 7.391000 17.554000 9.379000
v 3.506000 17.554000 9.879000
v 7.472000 17.554000 9.879000
v 3.385000 17.554000 10.379000
v 7.352000 17.554000 10.379000
v 3.466000 17.554000 10.879000
v 7.088000 17.554000 10.879000
v 3.737000 17.554000 11.379000
v 6.985000 17.554000 11.379000
v 3.881000 17.554000 11.879000
v 7.124000 17.554000 11.879000
v 3.880000 17.554000 12.379000
v 7.407000 17.554000 12.379000
v 3.885000 17.554000 12.879000
v 7.645000 17.554000 12.879000
v 3.889000 17.554000 13.379000
v 8.101000 17.554000 13.379000
v 3.872000 17.554000 13.879000
v 8.440000 17.554000 13.879000
v 3.967000 17.554000 14.379000
v 8.539000 17.554000 14.379000
v 4.326000 17.554000 14.879000
v 8.453000 17.554000 14.879000
v 6.023000 17.554000 15.379000
v 8.136000 17.554000 15.379000
v 3.673000 17.554000 9.611000
v 3.673000 17.554000 11.258000
v 4.173000 17.554000 8.988000
v 4.173000 17.554000 14.724000
v 4.673000 17.554000 8.636000
v 4.673000 17.554000 15.094000
v 5.173000 17.554000 8.493000
v 5.173000 17.554000 15.195000
v 5.673000 17.554000 8.385000
v 5.673000 17.554000 15.241000
v 6.173000 17.554000 8.474000
v 6.173000 17.554000 15.478000
v 6.673000 17.554000 8.637000
v 6.673000 17.554000 15.793000
v 7.173000 17.554000 9.005000
v 7.173000 17.554000 10.700000
v 7.173000 17.554000 11.975000
v 7.173000 17.554000 15.842000
v 7.673000 17.554000 12.921000
v 7.673000 17.554000 15.696000
v 8.173000 17.554000 13.453000
v 8.173000 17.554000 15.340000
v 3.673000 16.219000 9.879000
v 3.673000 17.827000 9.879000
v 4.173000 15.836000 9.879000
v 4.173000 18.208000 9.879000
v 4.673000 15.531000 9.879000
v 4.673000 18.378000 9.879000
v 5.173000 15.283000 9.879000
v 5.173000 18.457000 9.879000
v 5.673000 15.191000 9.879000
v 5.673000 18.462000 9.879000
v 6.173000 15.270000 9.879000
v 6.173000 18.420000 9.879000
v 6.673000 15.588000 9.879000
v 6.673000 18.328000 9.879000
v 7.173000 16.036000 9.879000
v 7.173000 18.004000 9.879000
v 4.173000 14.149000 13.879000
v 4.173000 18.024000 13.879000
v 4.673000 13.792000 13.879000
v 4.673000 18.354000 13.879000
v 5.173000 13.695000 13.879000
v 5.173000 18.447000 13.879000
v 5.673000 13.794000 13.879000
v 5.673000 18.438000 13.879000
v 6.173000 14.145000 13.879000
v 6.173000 18.564000 13.879000
v 6.673000 14.960000 13.879000
v 6.673000 18.787000 13.879000
v 7.173000 15.974000 13.879000
v 7.173000 18.873000 13.879000
v 7.673000 16.378000 13.879000
v 7.673000 18.758000 13.879000
v 8.173000 16.782000 13.879000
v 8.173000 18.362000 13.879000
v 4.830000 14.054000 13.379000
v 5.513000 14.054000 13.379000
v 4.265000 14.054000 13.879000
v 6.078000 14.054000 13.879000
v 4.158000 14.054000 14.379000
v 6.475000 14.054000 14.379000
v 4.317000 14.054000 14.879000
v 6.630000 14.054000 14.879000
v 4.840000 14.054000 15.379000
v 6.567000 14.054000 15.379000
v 5.013000 18.054000 8.879000
v 5.301000 18.054000 8.879000
v 4.294000 18.054000 9.379000
v 7.006000 18.054000 9.379000
v 3.907000 18.054000 9.879000
v 7.121000 18.054000 9.879000
v 3.733000 18.054000 10.379000
v 6.948000 18.054000 10.379000
v 3.847000 18.054000 10.879000
v 6.537000 18.054000 10.879000
v 4.102000 18.054000 11.379000
v 6.403000 18.054000 11.379000
v 4.204000 18.054000 11.879000
v 6.553000 18.054000 11.879000
v 4.190000 18.054000 12.379000
v 7.012000 18.054000 12.379000
v 4.243000 18.054000 12.879000
v 7.334000 18.054000 12.879000
v 4.204000 18.054000 13.379000
v 7.972000 18.054000 13.379000
v 4.203000 18.054000 13.879000
v 8.348000 18.054000 13.879000
v 4.336000 18.054000 14.379000
v 8.454000 18.054000 14.379000
v 5.354000 18.054000 14.879000
v 8.362000 18.054000 14.879000
v 6.266000 18.054000 15.379000
v 8.012000 18.054000 15.379000
v 4.173000 14.054000 14.155000
v 4.173000 14.054000 14.513000
v 4.673000 14.054000 13.451000
v 4.673000 14.054000 15.225000
v 5.173000 14.054000 13.320000
v 5.173000 14.054000 15.710000
v 5.673000 14.054000 13.453000
v 5.673000 14.054000 15.853000
v 6.173000 14.054000 14.031000
v 6.173000 14.054000 15.780000
v 4.173000 18.054000 9.578000
v 4.173000 18.054000 11.728000
v 4.673000 18.054000 8.996000
v 4.673000 18.054000 14.723000
v 5.173000 18.054000 8.869000
v 5.173000 18.054000 14.863000
v 5.673000 18.054000 8.916000
v 5.673000 18.054000 14.972000
v 6.173000 18.054000 8.889000
v 6.173000 18.054000 15.297000
v 6.673000 18.054000 9.029000
v 6.673000 18.054000 10.673000
v 6.673000 18.054000 12.032000
v 6.673000 18.054000 15.626000
v 7.173000 18.054000 12.670000
v 7.173000 18.054000 15.711000
v 7.673000 18.054000 13.173000
v 7.673000 18.054000 15.598000
v 8.173000 18.054000 13.585000
v 8.173000 18.054000 15.208000
v 3.673000 16.051000 10.379000
v 3.673000 17.995000 10.379000
v 4.173000 15.678000 10.379000
v 4.173000 18.327000 10.379000
v 4.673000 15.339000 10.379000
v 4.673000 18.422000 10.379000
v 5.173000 15.221000 10.379000
v 5.173000 18.463000 10.379000
v 5.673000 15.169000 10.379000
v 5.673000 18.449000 10.379000
v 6.173000 15.247000 10.379000
v 6.173000 18.376000 10.379000
v 6.673000 15.553000 10.379000
v 6.673000 18.210000 10.379000
v 7.173000 16.198000 10.379000
v 7.173000 17.839000 10.379000
v 4.173000 14.038000 14.379000
v 4.173000 17.892000 14.379000
v 4.673000 13.711000 14.379000
v 4.673000 18.258000 14.379000
v 5.173000 13.620000 14.379000
v 5.173000 18.359000 14.379000
v 5.673000 13.707000 14.379000
v 5.673000 18.407000 14.379000
v 6.173000 13.878000 14.379000
v 6.173000 18.613000 14.379000
v 6.673000 14.245000 14.379000
v 6.673000 18.892000 14.379000
v 7.173000 15.481000 14.379000
v 7.173000 18.971000 14.379000
v 7.673000 16.140000 14.379000
v 7.673000 18.866000 14.379000
v 8.173000 16.628000 14.379000
v 8.173000 18.516000 14.379000
v 4.259000 14.554000 13.379000
v 6.089000 14.554000 13.379000
v 3.932000 14.554000 13.879000
v 6.487000 14.554000 13.879000
v 3.852000 14.554000 14.379000
v 6.865000 14.554000 14.379000
v 3.969000 14.554000 14.879000
v 7.110000 14.554000 14.879000
v 4.363000 14.554000 15.379000
v 7.498000 14.554000 15.379000
v 4.825000 14.554000 15.879000
v 7.618000 14.554000 15.879000
v 5.756000 14.554000 16.379000
v 7.461000 14.554000 16.379000
v 6.148000 18.554000 13.879000
v 7.993000 18.554000 13.879000
v 6.066000 18.554000 14.379000
v 8.138000 18.554000 14.379000
v 6.266000 18.554000 14.879000
v 8.013000 18.554000 14.879000
v 6.964000 18.554000 15.379000
v 7.314000 18.554000 15.379000
v 4.173000 14.554000 13.470000
v 4.173000 14.554000 15.199000
v 4.673000 14.554000 13.096000
v 4.673000 14.554000 15.723000
v 5.173000 14.554000 12.972000
v 5.173000 14.554000 16.096000
v 5.673000 14.554000 13.073000
v 5.673000 14.554000 16.327000
v 6.173000 14.554000 13.473000
v 6.173000 14.554000 16.701000
v 6.673000 14.554000 14.069000
v 6.673000 14.554000 16.822000
v 7.173000 14.554000 14.972000
v 7.173000 14.554000 16.666000
v 6.173000 18.554000 13.814000
v 6.173000 18.554000 14.693000
v 6.673000 18.554000 13.406000
v 6.673000 18.554000 15.279000
v 7.173000 18.554000 13.390000
v 7.173000 18.554000 15.394000
v 7.673000 18.554000 13.553000
v 7.673000 18.554000 15.240000
v 3.673000 16.155000 10.879000
v 3.673000 17.885000 10.879000
v 4.173000 15.601000 10.879000
v 4.173000 18.248000 10.879000
v 4.673000 15.257000 10.879000
v 4.673000 18.386000 10.879000
v 5.173000 15.152000 10.879000
v 5.173000 18.430000 10.879000
v 5.673000 15.166000 10.879000
v 5.673000 18.386000 10.879000
v 6.173000 15.277000 10.879000
v 6.173000 18.262000 10.879000
v 6.673000 15.634000 10.879000
v 6.673000 17.954000 10.879000
v 7.173000 16.659000 10.879000
v 7.173000 17.371000 10.879000
v 4.173000 14.202000 14.879000
v 4.173000 16.006000 14.879000
v 4.673000 13.829000 14.879000
v 4.673000 17.900000 14.879000
v 5.173000 13.717000 14.879000
v 5.173000 18.038000 14.879000
v 5.673000 13.679000 14.879000
v 5.673000 18.145000 14.879000
v 6.173000 13.770000 14.879000
v 6.173000 18.471000 14.879000
v 6.673000 14.096000 14.879000
v 6.673000 18.801000 14.879000
v 7.173000 14.623000 14.879000
v 7.173000 18.886000 14.879000
v 7.673000 15.511000 14.879000
v 7.673000 18.773000 14.879000
v 8.173000 16.726000 14.879000
v 8.173000 18.383000 14.879000
f 274 251 35
f 362 341 274
f 274 341 251
f 362 36 341
f 100 75 37
f 121 161 100
f 161 75 100
f 161 159 75
f 253 274 35
f 159 253 35
f 161 253 159
f 274 253 343
f 274 343 362
f 423 36 362
f 343 423 362
f 425 423 343
f 546 517 122
f 517 425 122
f 517 423 425
f 546 38 517
f 100 37 77
f 37 123 77
f 37 39 123
f 121 100 77
f 519 546 122
f 519 124 546
f 124 38 546
f 124 40 38
f 125 39 41
f 125 123 39
f 40 126 42
f 124 126 40
f 127 41 43
f 127 125 41
f 42 128 44
f 126 128 42
f 129 43 45
f 129 127 43
f 44 130 46
f 128 130 44
f 45 76 129
f 129 76 78
f 131 78 76
f 131 76 47
f 520 132 48
f 520 48 518
f 518 46 520
f 520 46 130
f 47 160 131
f 131 160 162
f 252 289 133
f 162 252 133
f 160 252 162
f 342 377 289
f 342 289 252
f 426 134 377
f 342 426 377
f 424 426 342
f 424 48 426
f 426 48 132
f 289 254 133
f 254 289 344
f 344 289 377
f 377 134 344
f 624 607 49
f 22 11 624
f 624 11 607
f 104 91 22
f 22 91 11
f 188 175 104
f 104 175 91
f 188 50 175
f 540 505 51
f 609 624 49
f 609 49 505
f 135 609 505
f 540 135 505
f 624 609 13
f 624 13 22
f 22 13 93
f 22 93 104
f 104 93 177
f 104 177 188
f 136 280 267
f 136 267 50
f 177 136 50
f 188 177 50
f 368 357 280
f 280 357 267
f 368 52 357
f 53 542 51
f 51 542 540
f 135 540 542
f 135 542 137
f 269 280 136
f 280 269 138
f 370 280 138
f 368 280 370
f 52 368 54
f 54 368 370
f 55 544 53
f 53 544 542
f 137 542 544
f 137 544 139
f 140 372 370
f 140 370 138
f 54 370 439
f 370 452 439
f 370 372 452
f 452 56 439
f 506 544 55
f 139 544 506
f 57 139 506
f 141 139 57
f 359 372 140
f 372 359 142
f 454 372 142
f 452 372 454
f 56 452 533
f 452 558 533
f 452 454 558
f 558 58 533
f 143 57 59
f 143 141 57
f 144 458 454
f 144 454 142
f 560 454 458
f 558 454 560
f 58 558 619
f 558 640 619
f 558 560 640
f 640 60 619
f 59 608 143
f 143 608 610
f 145 610 608
f 145 608 61
f 360 146 380
f 458 144 360
f 380 458 360
f 460 458 380
f 562 458 460
f 560 458 562
f 620 640 62
f 640 562 62
f 640 560 562
f 60 640 620
f 61 12 145
f 145 12 14
f 92 14 12
f 92 94 14
f 176 94 92
f 176 178 94
f 268 178 176
f 268 270 178
f 146 270 380
f 270 358 380
f 270 268 358
f 440 460 358
f 358 460 380
f 534 562 440
f 440 562 460
f 62 562 534
f 205 147 189
f 189 147 279
f 279 147 239
f 279 239 367
f 367 239 329
f 329 206 367
f 207 63 107
f 205 189 63
f 189 107 63
f 189 191 107
f 189 281 191
f 189 279 281
f 279 369 281
f 279 367 369
f 367 206 369
f 369 206 208
f 107 64 207
f 64 107 209
f 107 193 209
f 107 191 193
f 191 283 193
f 191 281 283
f 281 371 283
f 281 369 371
f 369 208 371
f 371 208 210
f 193 148 209
f 148 193 211
f 193 285 211
f 193 283 285
f 212 285 330
f 285 371 330
f 285 283 371
f 371 210 330
f 285 240 211
f 285 212 240
f 213 163 121
f 121 163 161
f 163 253 161
f 255 253 163
f 255 343 253
f 345 343 255
f 345 425 343
f 427 425 345
f 427 214 425
f 425 214 122
f 215 79 123
f 123 79 77
f 121 77 79
f 121 79 213
f 519 122 214
f 519 214 521
f 521 216 519
f 519 216 124
f 217 123 125
f 217 215 123
f 124 218 126
f 216 218 124
f 219 125 127
f 219 217 125
f 126 220 128
f 218 220 126
f 221 127 129
f 221 219 127
f 128 222 130
f 220 222 128
f 115 223 78
f 223 129 78
f 223 221 129
f 131 115 78
f 520 557 132
f 520 130 557
f 130 224 557
f 130 222 224
f 115 80 223
f 131 162 115
f 162 80 115
f 162 164 80
f 225 164 162
f 225 162 133
f 426 457 134
f 557 522 132
f 132 522 426
f 522 226 426
f 226 457 426
f 557 224 522
f 133 254 225
f 225 254 256
f 344 256 254
f 344 346 256
f 457 428 134
f 428 344 134
f 428 346 344
f 457 226 428
f 626 609 135
f 24 13 626
f 626 13 609
f 227 95 24
f 95 13 24
f 95 93 13
f 190 177 228
f 177 95 228
f 177 93 95
f 190 136 177
f 137 628 135
f 135 628 626
f 628 229 15
f 24 628 15
f 626 628 24
f 227 24 15
f 179 190 228
f 230 282 269
f 230 269 136
f 179 230 136
f 190 179 136
f 282 138 269
f 628 137 611
f 137 231 611
f 137 139 231
f 229 628 611
f 271 282 230
f 271 232 282
f 232 138 282
f 232 140 138
f 233 139 141
f 233 231 139
f 234 374 359
f 140 234 359
f 232 234 140
f 374 142 359
f 235 141 143
f 235 233 141
f 236 378 374
f 236 374 234
f 142 374 144
f 144 374 378
f 143 610 235
f 235 610 612
f 237 612 610
f 237 610 145
f 272 238 292
f 378 236 272
f 378 272 292
f 360 378 292
f 146 360 292
f 144 378 360
f 145 14 237
f 237 14 16
f 94 16 14
f 94 96 16
f 178 96 94
f 178 180 96
f 238 180 292
f 180 270 292
f 180 178 270
f 146 292 270
f 293 331 363
f 331 294 363
f 295 149 187
f 187 149 277
f 277 149 241
f 293 363 241
f 363 277 241
f 363 365 277
f 413 445 294
f 445 363 294
f 445 365 363
f 413 296 445
f 297 65 105
f 295 187 65
f 65 187 105
f 187 147 105
f 147 205 105
f 277 239 147
f 277 147 187
f 365 329 239
f 365 239 277
f 447 206 329
f 365 447 329
f 445 447 365
f 507 549 296
f 549 445 296
f 549 447 445
f 507 298 549
f 63 207 105
f 207 297 105
f 207 299 297
f 105 205 63
f 449 208 206
f 449 206 447
f 300 449 508
f 449 549 508
f 449 447 549
f 549 298 508
f 109 301 64
f 301 207 64
f 301 299 207
f 209 109 64
f 451 210 208
f 451 208 449
f 449 300 451
f 451 300 302
f 109 66 301
f 195 303 148
f 148 303 209
f 303 66 209
f 66 109 209
f 211 195 148
f 330 373 212
f 373 330 210
f 451 373 210
f 453 373 451
f 451 302 453
f 453 302 304
f 195 150 303
f 211 240 195
f 240 150 195
f 240 242 150
f 242 240 305
f 240 373 305
f 373 375 305
f 240 212 373
f 306 375 414
f 375 453 414
f 375 373 453
f 453 304 414
f 375 332 305
f 375 306 332
f 307 165 213
f 213 165 163
f 165 255 163
f 257 255 165
f 257 345 255
f 347 345 257
f 347 427 345
f 429 427 347
f 429 308 427
f 427 308 214
f 309 1 21
f 21 1 215
f 1 79 215
f 1 81 79
f 213 79 81
f 213 81 307
f 521 214 308
f 521 308 523
f 523 310 521
f 521 310 216
f 23 311 21
f 21 311 309
f 21 215 217
f 21 217 23
f 216 312 218
f 310 312 216
f 25 313 23
f 23 313 311
f 23 217 219
f 23 219 25
f 218 314 220
f 312 314 218
f 25 2 313
f 315 2 25
f 219 315 25
f 221 315 219
f 220 316 222
f 314 316 220
f 317 221 223
f 317 315 221
f 222 318 224
f 316 318 222
f 223 80 317
f 317 80 82
f 164 199 319
f 82 164 319
f 80 164 82
f 225 199 164
f 522 559 226
f 522 224 559
f 224 320 559
f 224 318 320
f 199 166 319
f 225 256 199
f 256 166 199
f 256 258 166
f 346 379 321
f 258 346 321
f 256 346 258
f 430 322 379
f 346 430 379
f 428 430 346
f 559 524 226
f 524 428 226
f 524 430 428
f 559 320 524
f 379 348 321
f 379 322 348
f 106 95 227
f 106 228 95
f 26 15 229
f 15 26 227
f 26 106 227
f 26 108 106
f 228 106 179
f 106 192 179
f 106 108 192
f 192 230 179
f 630 611 231
f 17 26 229
f 17 229 611
f 323 17 611
f 630 323 611
f 26 17 97
f 26 97 108
f 108 97 181
f 108 181 192
f 324 284 271
f 324 271 230
f 181 324 230
f 192 181 230
f 284 232 271
f 233 632 231
f 231 632 630
f 323 630 632
f 323 632 325
f 326 286 284
f 326 284 324
f 232 284 234
f 234 284 286
f 235 634 233
f 233 634 632
f 325 632 634
f 325 634 327
f 328 290 286
f 328 286 326
f 234 286 236
f 236 286 290
f 612 634 235
f 18 327 34
f 34 327 237
f 327 634 237
f 634 612 237
f 18 34 120
f 18 120 98
f 98 120 204
f 98 204 182
f 290 328 182
f 290 182 204
f 272 290 204
f 238 272 204
f 236 290 272
f 16 34 237
f 96 120 16
f 16 120 34
f 180 204 96
f 96 204 120
f 238 204 180
f 383 243 275
f 275 243 293
f 243 331 293
f 243 333 331
f 294 331 443
f 331 415 443
f 331 333 415
f 415 384 443
f 385 151 295
f 295 151 149
f 151 383 275
f 241 151 275
f 149 151 241
f 275 293 241
f 443 413 294
f 384 509 547
f 384 547 296
f 443 384 296
f 413 443 296
f 509 386 547
f 387 67 297
f 297 67 65
f 295 65 67
f 295 67 385
f 547 507 296
f 547 386 507
f 386 298 507
f 386 388 298
f 389 297 299
f 389 387 297
f 508 551 300
f 508 298 551
f 298 390 551
f 298 388 390
f 391 299 301
f 391 389 299
f 553 302 300
f 553 300 551
f 551 390 553
f 553 390 392
f 111 393 66
f 393 301 66
f 393 391 301
f 303 111 66
f 555 304 302
f 555 302 553
f 553 392 555
f 555 392 394
f 111 68 393
f 303 150 111
f 150 68 111
f 150 152 68
f 242 287 395
f 152 242 395
f 150 242 152
f 305 287 242
f 414 455 306
f 555 510 304
f 304 510 414
f 510 396 414
f 396 455 414
f 555 394 510
f 287 244 395
f 305 332 287
f 332 244 287
f 332 334 244
f 455 416 306
f 416 332 306
f 416 334 332
f 455 396 416
f 397 3 19
f 19 3 101
f 101 3 83
f 101 83 307
f 83 165 307
f 83 167 165
f 167 257 165
f 259 257 167
f 259 347 257
f 349 347 259
f 349 429 347
f 431 429 349
f 431 398 429
f 429 398 308
f 399 599 623
f 397 19 599
f 599 19 623
f 19 1 623
f 1 309 623
f 101 81 1
f 101 1 19
f 101 307 81
f 523 308 398
f 523 398 525
f 525 400 523
f 523 400 310
f 401 497 539
f 399 623 497
f 623 539 497
f 623 625 539
f 623 309 311
f 623 311 625
f 310 402 312
f 400 402 310
f 539 498 401
f 498 539 403
f 539 627 403
f 539 625 627
f 625 311 313
f 625 313 627
f 312 404 314
f 402 404 312
f 627 600 403
f 27 405 2
f 2 405 313
f 405 600 313
f 600 627 313
f 315 27 2
f 314 406 316
f 404 406 314
f 27 4 405
f 407 4 27
f 315 407 27
f 317 407 315
f 316 408 318
f 406 408 316
f 317 82 407
f 407 82 84
f 82 319 200
f 168 82 200
f 84 82 168
f 409 168 200
f 318 410 320
f 408 410 318
f 166 200 319
f 200 166 409
f 166 260 409
f 166 258 260
f 411 260 258
f 411 258 321
f 430 459 322
f 524 561 459
f 524 459 430
f 524 320 561
f 320 412 561
f 320 410 412
f 321 348 411
f 411 348 350
f 459 432 322
f 432 348 322
f 432 350 348
f 432 459 526
f 526 459 561
f 561 412 526
f 28 17 323
f 110 97 28
f 28 97 17
f 194 181 110
f 110 181 97
f 194 324 181
f 325 30 323
f 323 30 28
f 116 28 30
f 110 28 116
f 196 110 116
f 194 110 196
f 324 194 326
f 326 194 196
f 327 32 325
f 325 32 30
f 118 30 32
f 116 30 118
f 202 116 118
f 196 116 202
f 326 196 328
f 328 196 202
f 18 32 327
f 98 118 18
f 18 118 32
f 182 202 98
f 98 202 118
f 328 202 182
f 463 245 273
f 273 245 361
f 361 245 335
f 361 335 441
f 441 335 417
f 417 464 441
f 465 153 185
f 463 273 153
f 153 273 185
f 273 243 185
f 243 383 185
f 361 333 243
f 361 243 273
f 441 415 333
f 441 333 361
f 464 511 545
f 464 545 384
f 441 464 384
f 415 441 384
f 511 466 545
f 467 69 103
f 465 185 69
f 69 185 103
f 185 151 103
f 151 385 103
f 185 383 151
f 545 509 384
f 545 466 509
f 466 386 509
f 466 468 386
f 67 387 103
f 387 467 103
f 387 469 467
f 103 385 67
f 386 470 388
f 468 470 386
f 471 387 389
f 471 469 387
f 388 472 390
f 470 472 388
f 473 389 391
f 473 471 389
f 390 474 392
f 472 474 390
f 70 473 112
f 473 393 112
f 473 391 393
f 475 70 112
f 392 476 394
f 474 476 392
f 68 112 393
f 68 152 112
f 152 477 112
f 477 475 112
f 477 152 197
f 395 197 152
f 512 478 396
f 512 396 510
f 510 394 512
f 512 394 476
f 197 154 477
f 395 244 197
f 244 154 197
f 244 246 154
f 334 246 244
f 334 336 246
f 416 336 334
f 416 418 336
f 416 396 418
f 418 396 478
f 479 601 621
f 621 601 397
f 601 3 397
f 601 5 3
f 5 83 3
f 85 83 5
f 85 167 83
f 169 167 85
f 169 259 167
f 261 259 169
f 261 349 259
f 351 349 261
f 351 431 349
f 433 431 351
f 433 480 431
f 431 480 398
f 481 499 537
f 479 621 499
f 499 621 537
f 621 599 537
f 599 399 537
f 621 397 599
f 525 398 480
f 525 480 527
f 527 482 525
f 525 482 400
f 497 401 537
f 401 481 537
f 401 483 481
f 537 399 497
f 400 484 402
f 482 484 400
f 541 485 498
f 485 401 498
f 485 483 401
f 403 541 498
f 402 486 404
f 484 486 402
f 541 500 485
f 629 487 600
f 600 487 403
f 487 500 403
f 500 541 403
f 405 629 600
f 486 613 635
f 406 486 635
f 404 486 406
f 613 488 635
f 629 602 487
f 29 489 4
f 4 489 405
f 489 602 405
f 602 629 405
f 407 29 4
f 637 408 406
f 637 406 635
f 635 488 637
f 637 488 490
f 29 6 489
f 407 84 29
f 84 6 29
f 84 86 6
f 168 201 491
f 86 168 491
f 84 168 86
f 409 201 168
f 639 410 408
f 639 408 637
f 637 490 639
f 639 490 492
f 201 170 491
f 291 493 260
f 260 493 409
f 493 170 409
f 170 201 409
f 411 291 260
f 641 412 410
f 641 410 639
f 639 492 641
f 641 492 494
f 291 262 493
f 381 495 350
f 350 495 411
f 495 262 411
f 262 291 411
f 432 461 381
f 432 381 350
f 526 563 461
f 526 461 432
f 641 614 412
f 412 614 526
f 614 496 526
f 496 563 526
f 641 494 614
f 381 352 495
f 352 381 434
f 434 381 461
f 434 461 528
f 528 461 563
f 563 496 528
f 565 155 183
f 183 155 463
f 155 245 463
f 155 247 245
f 247 335 245
f 337 335 247
f 337 417 335
f 419 417 337
f 419 566 417
f 417 566 464
f 153 465 183
f 465 565 183
f 465 567 565
f 183 463 153
f 511 464 566
f 511 566 513
f 513 568 511
f 511 568 466
f 569 71 467
f 467 71 69
f 465 69 71
f 465 71 567
f 466 570 468
f 568 570 466
f 571 467 469
f 571 569 467
f 468 572 470
f 570 572 468
f 573 469 471
f 573 571 469
f 470 574 472
f 572 574 470
f 575 471 473
f 575 573 471
f 472 576 474
f 574 576 472
f 113 577 70
f 577 473 70
f 577 575 473
f 475 113 70
f 474 578 476
f 576 578 474
f 113 72 577
f 475 477 113
f 477 156 113
f 156 72 113
f 477 198 156
f 579 156 198
f 514 580 478
f 514 478 512
f 512 476 514
f 514 476 578
f 154 198 477
f 198 154 579
f 154 248 579
f 154 246 248
f 336 248 246
f 336 338 248
f 418 338 336
f 418 420 338
f 418 478 420
f 420 478 580
f 581 501 535
f 535 501 479
f 501 601 479
f 501 603 601
f 603 5 601
f 7 5 603
f 7 85 5
f 87 85 7
f 87 169 85
f 171 169 87
f 171 261 169
f 263 261 171
f 263 351 261
f 353 351 263
f 353 433 351
f 435 433 353
f 435 582 433
f 433 582 480
f 499 481 535
f 481 581 535
f 481 583 581
f 535 479 499
f 527 480 582
f 527 582 529
f 529 584 527
f 527 584 482
f 585 481 483
f 585 583 481
f 482 586 484
f 584 586 482
f 587 483 485
f 587 585 483
f 484 588 486
f 586 588 484
f 543 589 500
f 589 485 500
f 589 587 485
f 487 543 500
f 613 486 588
f 613 588 615
f 615 590 613
f 613 590 488
f 543 502 589
f 631 591 602
f 602 591 487
f 591 502 487
f 502 543 487
f 489 631 602
f 488 592 490
f 590 592 488
f 631 604 591
f 489 6 631
f 6 604 631
f 6 8 604
f 86 117 593
f 8 86 593
f 6 86 8
f 491 117 86
f 490 594 492
f 592 594 490
f 117 88 593
f 491 170 117
f 170 88 117
f 170 172 88
f 595 172 170
f 595 170 493
f 492 596 494
f 594 596 492
f 493 262 595
f 595 262 264
f 597 264 262
f 597 262 495
f 616 598 496
f 616 496 614
f 614 494 616
f 616 494 596
f 495 352 597
f 597 352 354
f 434 354 352
f 434 436 354
f 528 436 434
f 528 530 436
f 528 496 530
f 530 496 598
f 184 155 565
f 643 249 184
f 249 155 184
f 249 247 155
f 249 337 247
f 339 337 249
f 339 419 337
f 421 419 339
f 421 644 419
f 419 644 566
f 184 565 157
f 565 645 157
f 565 567 645
f 643 184 157
f 513 566 644
f 513 644 515
f 515 646 513
f 513 646 568
f 647 73 569
f 569 73 71
f 567 71 73
f 567 73 645
f 568 648 570
f 646 648 568
f 649 569 571
f 649 647 569
f 570 650 572
f 648 650 570
f 651 571 573
f 651 649 571
f 572 652 574
f 650 652 572
f 653 573 575
f 653 651 573
f 574 654 576
f 652 654 574
f 74 653 114
f 653 577 114
f 653 575 577
f 655 74 114
f 516 656 556
f 556 578 516
f 578 654 516
f 578 576 654
f 72 114 577
f 114 72 655
f 72 158 655
f 72 156 158
f 156 579 288
f 250 156 288
f 158 156 250
f 657 250 288
f 422 658 456
f 556 656 422
f 556 422 456
f 514 556 456
f 580 514 456
f 578 556 514
f 248 288 579
f 288 248 657
f 248 340 657
f 248 338 340
f 658 340 456
f 340 420 456
f 340 338 420
f 580 456 420
f 536 501 581
f 659 605 536
f 605 501 536
f 605 603 501
f 605 7 603
f 9 7 605
f 9 87 7
f 89 87 9
f 186 171 660
f 171 89 660
f 171 87 89
f 276 263 186
f 186 263 171
f 364 353 276
f 276 353 263
f 444 435 364
f 364 435 353
f 444 582 435
f 536 581 503
f 581 661 503
f 581 583 661
f 659 536 503
f 173 186 660
f 186 173 265
f 186 265 276
f 276 265 355
f 276 355 364
f 364 355 437
f 364 437 444
f 662 548 529
f 662 529 582
f 437 662 582
f 444 437 582
f 548 584 529
f 663 583 585
f 663 661 583
f 664 550 548
f 664 548 662
f 584 548 586
f 586 548 550
f 665 585 587
f 665 663 585
f 531 550 664
f 531 666 550
f 666 586 550
f 666 588 586
f 667 587 589
f 667 665 587
f 668 636 615
f 588 668 615
f 666 668 588
f 636 590 615
f 589 502 667
f 667 502 504
f 669 504 502
f 669 502 591
f 617 636 668
f 617 670 636
f 670 590 636
f 670 592 590
f 591 604 669
f 669 604 606
f 8 31 671
f 606 8 671
f 604 8 606
f 593 31 8
f 592 672 594
f 670 672 592
f 31 10 671
f 119 673 88
f 88 673 593
f 673 10 593
f 10 31 593
f 172 203 119
f 172 119 88
f 595 203 172
f 594 674 596
f 672 674 594
f 119 90 673
f 90 119 174
f 174 119 203
f 595 264 203
f 264 174 203
f 264 266 174
f 675 266 264
f 675 264 597
f 618 676 598
f 618 598 616
f 616 596 618
f 618 596 674
f 597 354 675
f 675 354 356
f 436 356 354
f 436 438 356
f 530 438 436
f 530 532 438
f 530 598 532
f 532 598 676
f 35 251 643
f 643 251 249
f 251 339 249
f 341 339 251
f 442 421 36
f 421 341 36
f 421 339 341
f 442 644 421
f 37 75 99
f 99 75 645
f 75 157 645
f 75 159 157
f 643 157 159
f 643 159 35
f 423 442 36
f 515 644 442
f 423 515 442
f 517 515 423
f 517 38 515
f 515 38 646
f 73 647 99
f 647 37 99
f 647 39 37
f 99 645 73
f 646 40 648
f 38 40 646
f 41 647 649
f 41 39 647
f 648 42 650
f 40 42 648
f 43 649 651
f 43 41 649
f 650 44 652
f 42 44 650
f 45 651 653
f 45 43 651
f 652 46 654
f 44 46 652
f 653 74 45
f 45 74 76
f 47 76 74
f 47 74 655
f 518 48 656
f 518 656 516
f 516 654 518
f 518 654 46
f 655 158 47
f 47 158 160
f 250 160 158
f 250 252 160
f 250 657 376
f 342 250 376
f 252 250 342
f 342 376 658
f 422 342 658
f 424 342 422
f 422 656 424
f 424 656 48
f 340 376 657
f 658 376 340
f 622 605 659
f 20 9 622
f 622 9 605
f 102 89 20
f 20 89 9
f 102 660 89
f 538 503 661
f 607 622 659
f 607 659 503
f 49 607 503
f 538 49 503
f 622 607 11
f 622 11 20
f 20 11 91
f 20 91 102
f 173 660 102
f 91 173 102
f 175 173 91
f 278 265 50
f 265 175 50
f 265 173 175
f 366 355 278
f 278 355 265
f 446 437 366
f 366 437 355
f 446 662 437
f 538 661 505
f 661 51 505
f 661 663 51
f 49 538 505
f 267 278 50
f 278 267 357
f 278 357 366
f 366 357 52
f 448 366 52
f 446 366 448
f 662 446 664
f 664 446 448
f 53 663 665
f 53 51 663
f 54 450 448
f 54 448 52
f 664 448 531
f 448 552 531
f 448 450 552
f 552 666 531
f 55 665 667
f 55 53 665
f 439 450 54
f 450 439 56
f 554 450 56
f 552 450 554
f 666 552 668
f 668 552 554
f 667 504 55
f 55 504 506
f 57 506 504
f 57 504 669
f 533 554 56
f 58 638 617
f 58 617 668
f 533 58 668
f 554 533 668
f 638 670 617
f 633 59 606
f 59 669 606
f 59 57 669
f 671 633 606
f 619 638 58
f 619 60 638
f 60 670 638
f 60 672 670
f 633 608 59
f 33 61 10
f 10 61 671
f 61 608 671
f 608 633 671
f 673 33 10
f 620 62 642
f 642 674 620
f 674 60 620
f 674 672 60
f 33 12 61
f 673 90 33
f 90 12 33
f 90 92 12
f 174 92 90
f 174 176 92
f 266 176 174
f 266 268 176
f 266 675 382
f 358 266 382
f 268 266 358
f 358 382 462
f 358 462 440
f 440 462 564
f 440 564 534
f 642 62 534
f 642 534 564
f 618 642 564
f 676 618 564
f 674 642 618
f 356 382 675
f 438 462 356
f 356 462 382
f 532 564 438
f 438 564 462
f 676 564 532
