# Converted from NanoShaper .vert/.face
v 2.610000 -14.041000 -10.298000
v 3.444000 -14.041000 -10.298000
v 1.964000 -14.041000 -9.798000
v 3.781000 -14.041000 -9.798000
v 1.572000 -14.041000 -9.298000
v 3.842000 -14.041000 -9.298000
v 1.413000 -14.041000 -8.798000
v 3.901000 -14.041000 -8.798000
v 1.373000 -14.041000 -8.298000
v 3.848000 -14.041000 -8.298000
v 1.513000 -14.041000 -7.798000
v 3.833000 -14.041000 -7.798000
v 1.814000 -14.041000 -7.298000
v 3.891000 -14.041000 -7.298000
v 1.906000 -14.041000 -6.798000
v 3.817000 -14.041000 -6.798000
v 1.932000 -14.041000 -6.298000
v 3.852000 -14.041000 -6.298000
v 2.071000 -14.041000 -5.798000
v 3.713000 -14.041000 -5.798000
v 2.490000 -10.041000 -10.798000
v 5.651000 -10.041000 -10.798000
v 2.014000 -10.041000 -10.298000
v 5.818000 -10.041000 -10.298000
v 1.256000 -10.041000 -9.798000
v 5.820000 -10.041000 -9.798000
v 0.457000 -10.041000 -9.298000
v 5.822000 -10.041000 -9.298000
v 0.310000 -10.041000 -8.798000
v 5.831000 -10.041000 -8.798000
v 0.428000 -10.041000 -8.298000
v 5.828000 -10.041000 -8.298000
v 1.063000 -10.041000 -7.798000
v 5.754000 -10.041000 -7.798000
v 3.250000 -10.041000 -7.298000
v 5.635000 -10.041000 -7.298000
v 4.216000 -10.041000 -6.798000
v 5.570000 -10.041000 -6.798000
v 5.046000 -10.041000 -6.298000
v 6.107000 -10.041000 -6.298000
v 4.894000 -10.041000 -5.798000
v 6.747000 -10.041000 -5.798000
v 4.861000 -10.041000 -5.298000
v 6.897000 -10.041000 -5.298000
v 4.975000 -10.041000 -4.798000
v 6.784000 -10.041000 -4.798000
v 5.314000 -10.041000 -4.298000
v 6.202000 -10.041000 -4.298000
v 1.606000 -14.041000 -9.344000
v 1.606000 -14.041000 -7.670000
v 2.106000 -14.041000 -9.999000
v 2.106000 -14.041000 -5.745000
v 2.606000 -14.041000 -10.297000
v 2.606000 -14.041000 -5.379000
v 3.106000 -14.041000 -10.368000
v 3.106000 -14.041000 -5.360000
v 3.606000 -14.041000 -10.139000
v 3.606000 -14.041000 -5.653000
v 0.606000 -10.041000 -9.487000
v 0.606000 -10.041000 -8.059000
v 1.106000 -10.041000 -9.759000
v 1.106000 -10.041000 -7.788000
v 1.606000 -10.041000 -9.975000
v 1.606000 -10.041000 -7.767000
v 2.106000 -10.041000 -10.370000
v 2.106000 -10.041000 -7.654000
v 2.606000 -10.041000 -10.921000
v 2.606000 -10.041000 -7.472000
v 3.106000 -10.041000 -11.231000
v 3.106000 -10.041000 -7.326000
v 3.606000 -10.041000 -11.254000
v 3.606000 -10.041000 -7.147000
v 4.106000 -10.041000 -11.292000
v 4.106000 -10.041000 -6.845000
v 4.606000 -10.041000 -11.268000
v 4.606000 -10.041000 -6.705000
v 5.106000 -10.041000 -11.192000
v 5.106000 -10.041000 -4.555000
v 5.606000 -10.041000 -10.861000
v 5.606000 -10.041000 -7.182000
v 5.606000 -10.041000 -6.693000
v 5.606000 -10.041000 -4.173000
v 6.106000 -10.041000 -6.299000
v 6.106000 -10.041000 -4.262000
v 6.606000 -10.041000 -5.979000
v 6.606000 -10.041000 -4.552000
v 0.106000 -12.161000 -9.298000
v 0.106000 -10.548000 -9.298000
v 0.606000 -12.693000 -9.298000
v 0.606000 -9.928000 -9.298000
v 1.106000 -13.378000 -9.298000
v 1.106000 -9.733000 -9.298000
v 1.606000 -14.066000 -9.298000
v 1.606000 -9.614000 -9.298000
v 2.106000 -14.298000 -9.298000
v 2.106000 -9.342000 -9.298000
v 2.606000 -14.438000 -9.298000
v 2.606000 -9.147000 -9.298000
v 3.106000 -14.434000 -9.298000
v 3.106000 -9.148000 -9.298000
v 3.606000 -14.234000 -9.298000
v 3.606000 -9.156000 -9.298000
v 4.106000 -13.774000 -9.298000
v 4.106000 -9.147000 -9.298000
v 4.606000 -13.461000 -9.298000
v 4.606000 -9.330000 -9.298000
v 5.106000 -13.230000 -9.298000
v 5.106000 -9.631000 -9.298000
v 5.606000 -12.918000 -9.298000
v 5.606000 -9.859000 -9.298000
v 6.106000 -12.713000 -9.298000
v 6.106000 -10.308000 -9.298000
v 6.606000 -12.198000 -9.298000
v 6.606000 -10.829000 -9.298000
v 2.106000 -13.611000 -5.298000
v 2.106000 -11.964000 -5.298000
v 2.606000 -13.962000 -5.298000
v 2.606000 -11.645000 -5.298000
v 3.106000 -13.981000 -5.298000
v 3.106000 -11.482000 -5.298000
v 3.606000 -13.768000 -5.298000
v 3.606000 -11.225000 -5.298000
v 4.106000 -13.583000 -5.298000
v 4.106000 -10.716000 -5.298000
v 4.606000 -13.455000 -5.298000
v 4.606000 -10.289000 -5.298000
v 5.106000 -13.366000 -5.298000
v 5.106000 -9.837000 -5.298000
v 5.606000 -13.172000 -5.298000
v 5.606000 -9.630000 -5.298000
v 6.106000 -12.960000 -5.298000
v 6.106000 -9.622000 -5.298000
v 6.606000 -12.736000 -5.298000
v 6.606000 -9.806000 -5.298000
v 7.106000 -12.187000 -5.298000
v 7.106000 -10.327000 -5.298000
v 3.571000 -13.541000 -11.798000
v 4.044000 -13.541000 -11.798000
v 2.932000 -13.541000 -11.298000
v 4.683000 -13.541000 -11.298000
v 2.528000 -13.541000 -10.798000
v 4.796000 -13.541000 -10.798000
v 1.957000 -13.541000 -10.298000
v 4.779000 -13.541000 -10.298000
v 1.554000 -13.541000 -9.798000
v 4.633000 -13.541000 -9.798000
v 1.175000 -13.541000 -9.298000
v 4.431000 -13.541000 -9.298000
v 0.969000 -13.541000 -8.798000
v 4.470000 -13.541000 -8.798000
v 0.853000 -13.541000 -8.298000
v 4.411000 -13.541000 -8.298000
v 0.998000 -13.541000 -7.798000
v 4.458000 -13.541000 -7.798000
v 1.373000 -13.541000 -7.298000
v 4.396000 -13.541000 -7.298000
v 1.541000 -13.541000 -6.798000
v 4.349000 -13.541000 -6.798000
v 1.592000 -13.541000 -6.298000
v 4.371000 -13.541000 -6.298000
v 1.691000 -13.541000 -5.798000
v 4.307000 -13.541000 -5.798000
v 2.058000 -13.541000 -5.298000
v 4.248000 -13.541000 -5.298000
v 2.541000 -9.541000 -10.298000
v 4.731000 -9.541000 -10.298000
v 2.013000 -9.541000 -9.798000
v 4.876000 -9.541000 -9.798000
v 1.772000 -9.541000 -9.298000
v 4.922000 -9.541000 -9.298000
v 1.645000 -9.541000 -8.798000
v 4.833000 -9.541000 -8.798000
v 1.898000 -9.541000 -8.298000
v 4.397000 -9.541000 -8.298000
v 1.106000 -13.541000 -9.127000
v 1.106000 -13.541000 -7.651000
v 1.606000 -13.541000 -9.856000
v 1.606000 -13.541000 -6.106000
v 2.106000 -13.541000 -10.420000
v 2.106000 -13.541000 -5.260000
v 2.606000 -13.541000 -10.880000
v 2.606000 -13.541000 -5.027000
v 3.106000 -13.541000 -11.534000
v 3.106000 -13.541000 -4.985000
v 3.606000 -13.541000 -11.806000
v 3.606000 -13.541000 -5.033000
v 4.106000 -13.541000 -11.781000
v 4.106000 -13.541000 -5.170000
v 4.606000 -13.541000 -11.422000
v 4.606000 -13.541000 -9.740000
v 2.106000 -9.541000 -9.920000
v 2.106000 -9.541000 -8.087000
v 2.606000 -9.541000 -10.379000
v 2.606000 -9.541000 -7.798000
v 3.106000 -9.541000 -10.738000
v 3.106000 -9.541000 -7.802000
v 3.606000 -9.541000 -10.755000
v 3.606000 -9.541000 -7.930000
v 4.106000 -9.541000 -10.707000
v 4.106000 -9.541000 -8.151000
v 4.606000 -9.541000 -10.436000
v 4.606000 -9.541000 -8.463000
v -0.394000 -11.995000 -8.798000
v -0.394000 -11.098000 -8.798000
v 0.106000 -12.629000 -8.798000
v 0.106000 -10.310000 -8.798000
v 0.606000 -13.119000 -8.798000
v 0.606000 -9.808000 -8.798000
v 1.106000 -13.693000 -8.798000
v 1.106000 -9.629000 -8.798000
v 1.606000 -14.189000 -8.798000
v 1.606000 -9.553000 -8.798000
v 2.106000 -14.386000 -8.798000
v 2.106000 -9.313000 -8.798000
v 2.606000 -14.433000 -8.798000
v 2.606000 -9.121000 -8.798000
v 3.106000 -14.448000 -8.798000
v 3.106000 -9.124000 -8.798000
v 3.606000 -14.272000 -8.798000
v 3.606000 -9.200000 -8.798000
v 4.106000 -13.815000 -8.798000
v 4.106000 -9.225000 -8.798000
v 4.606000 -13.475000 -8.798000
v 4.606000 -9.419000 -8.798000
v 5.106000 -13.248000 -8.798000
v 5.106000 -9.652000 -8.798000
v 5.606000 -12.922000 -8.798000
v 5.606000 -9.861000 -8.798000
v 6.106000 -12.702000 -8.798000
v 6.106000 -10.331000 -8.798000
v 6.606000 -12.145000 -8.798000
v 6.606000 -10.900000 -8.798000
v 3.106000 -13.192000 -4.798000
v 3.106000 -11.879000 -4.798000
v 3.606000 -13.341000 -4.798000
v 3.606000 -11.358000 -4.798000
v 4.106000 -13.398000 -4.798000
v 4.106000 -10.884000 -4.798000
v 4.606000 -13.464000 -4.798000
v 4.606000 -10.407000 -4.798000
v 5.106000 -13.465000 -4.798000
v 5.106000 -9.934000 -4.798000
v 5.606000 -13.346000 -4.798000
v 5.606000 -9.712000 -4.798000
v 6.106000 -13.115000 -4.798000
v 6.106000 -9.703000 -4.798000
v 6.606000 -12.679000 -4.798000
v 6.606000 -9.900000 -4.798000
v 7.106000 -11.881000 -4.798000
v 7.106000 -10.513000 -4.798000
v 2.915000 -13.041000 -11.798000
v 4.700000 -13.041000 -11.798000
v 2.523000 -13.041000 -11.298000
v 5.057000 -13.041000 -11.298000
v 2.136000 -13.041000 -10.798000
v 5.276000 -13.041000 -10.798000
v 1.825000 -13.041000 -10.298000
v 5.347000 -13.041000 -10.298000
v 1.388000 -13.041000 -9.798000
v 5.359000 -13.041000 -9.798000
v 0.920000 -13.041000 -9.298000
v 5.365000 -13.041000 -9.298000
v 0.520000 -13.041000 -8.798000
v 5.385000 -13.041000 -8.798000
v 0.390000 -13.041000 -8.298000
v 5.366000 -13.041000 -8.298000
v 0.540000 -13.041000 -7.798000
v 5.420000 -13.041000 -7.798000
v 0.999000 -13.041000 -7.298000
v 5.318000 -13.041000 -7.298000
v 1.328000 -13.041000 -6.798000
v 5.342000 -13.041000 -6.798000
v 1.469000 -13.041000 -6.298000
v 5.368000 -13.041000 -6.298000
v 1.583000 -13.041000 -5.798000
v 5.506000 -13.041000 -5.798000
v 1.910000 -13.041000 -5.298000
v 5.879000 -13.041000 -5.298000
v 2.952000 -13.041000 -4.798000
v 6.205000 -13.041000 -4.798000
v 3.702000 -13.041000 -4.298000
v 6.335000 -13.041000 -4.298000
v 3.897000 -13.041000 -3.798000
v 6.335000 -13.041000 -3.798000
v 4.046000 -13.041000 -3.298000
v 6.349000 -13.041000 -3.298000
v 4.553000 -13.041000 -2.798000
v 6.202000 -13.041000 -2.798000
v 0.606000 -13.041000 -8.929000
v 0.606000 -13.041000 -7.702000
v 1.106000 -13.041000 -9.513000
v 1.106000 -13.041000 -7.170000
v 1.606000 -13.041000 -10.029000
v 1.606000 -13.041000 -5.744000
v 2.106000 -13.041000 -10.739000
v 2.106000 -13.041000 -5.138000
v 2.606000 -13.041000 -11.399000
v 2.606000 -13.041000 -4.919000
v 3.106000 -13.041000 -11.945000
v 3.106000 -13.041000 -4.735000
v 3.606000 -13.041000 -12.133000
v 3.606000 -13.041000 -4.417000
v 4.106000 -13.041000 -12.115000
v 4.106000 -13.041000 -3.207000
v 4.606000 -13.041000 -11.878000
v 4.606000 -13.041000 -2.735000
v 5.106000 -13.041000 -11.206000
v 5.106000 -13.041000 -2.385000
v 5.606000 -13.041000 -5.697000
v 5.606000 -13.041000 -2.371000
v 6.106000 -13.041000 -4.988000
v 6.106000 -13.041000 -2.670000
v -0.394000 -12.247000 -8.298000
v -0.394000 -10.846000 -8.298000
v 0.106000 -12.762000 -8.298000
v 0.106000 -10.324000 -8.298000
v 0.606000 -13.243000 -8.298000
v 0.606000 -9.905000 -8.298000
v 1.106000 -13.762000 -8.298000
v 1.106000 -9.713000 -8.298000
v 1.606000 -14.223000 -8.298000
v 1.606000 -9.650000 -8.298000
v 2.106000 -14.413000 -8.298000
v 2.106000 -9.420000 -8.298000
v 2.606000 -14.456000 -8.298000
v 2.606000 -9.212000 -8.298000
v 3.106000 -14.448000 -8.298000
v 3.106000 -9.214000 -8.298000
v 3.606000 -14.243000 -8.298000
v 3.606000 -9.326000 -8.298000
v 4.106000 -13.764000 -8.298000
v 4.106000 -9.482000 -8.298000
v 4.606000 -13.446000 -8.298000
v 4.606000 -9.588000 -8.298000
v 5.106000 -13.232000 -8.298000
v 5.106000 -9.703000 -8.298000
v 5.606000 -12.896000 -8.298000
v 5.606000 -9.880000 -8.298000
v 6.106000 -12.599000 -8.298000
v 6.106000 -10.359000 -8.298000
v 6.606000 -11.917000 -8.298000
v 6.606000 -11.128000 -8.298000
v 3.606000 -12.960000 -4.298000
v 3.606000 -11.428000 -4.298000
v 4.106000 -13.250000 -4.298000
v 4.106000 -10.861000 -4.298000
v 4.606000 -13.409000 -4.298000
v 4.606000 -10.391000 -4.298000
v 5.106000 -13.453000 -4.298000
v 5.106000 -10.117000 -4.298000
v 5.606000 -13.442000 -4.298000
v 5.606000 -9.981000 -4.298000
v 6.106000 -13.233000 -4.298000
v 6.106000 -10.012000 -4.298000
v 6.606000 -12.640000 -4.298000
v 6.606000 -10.297000 -4.298000
v 2.789000 -12.541000 -11.798000
v 4.837000 -12.541000 -11.798000
v 2.378000 -12.541000 -11.298000
v 5.509000 -12.541000 -11.298000
v 2.019000 -12.541000 -10.798000
v 6.174000 -12.541000 -10.798000
v 1.723000 -12.541000 -10.298000
v 6.329000 -12.541000 -10.298000
v 1.075000 -12.541000 -9.798000
v 6.305000 -12.541000 -9.798000
v 0.466000 -12.541000 -9.298000
v 6.335000 -12.541000 -9.298000
v -0.007000 -12.541000 -8.798000
v 6.312000 -12.541000 -8.798000
v -0.167000 -12.541000 -8.298000
v 6.182000 -12.541000 -8.298000
v -0.053000 -12.541000 -7.798000
v 5.897000 -12.541000 -7.798000
v 0.491000 -12.541000 -7.298000
v 5.890000 -12.541000 -7.298000
v 1.122000 -12.541000 -6.798000
v 6.209000 -12.541000 -6.798000
v 1.371000 -12.541000 -6.298000
v 6.729000 -12.541000 -6.298000
v 1.538000 -12.541000 -5.798000
v 6.853000 -12.541000 -5.798000
v 1.891000 -12.541000 -5.298000
v 6.849000 -12.541000 -5.298000
v 2.882000 -12.541000 -4.798000
v 6.727000 -12.541000 -4.798000
v 3.377000 -12.541000 -4.298000
v 6.649000 -12.541000 -4.298000
v 3.549000 -12.541000 -3.798000
v 6.638000 -12.541000 -3.798000
v 3.669000 -12.541000 -3.298000
v 6.685000 -12.541000 -3.298000
v 4.026000 -12.541000 -2.798000
v 6.579000 -12.541000 -2.798000
v 4.563000 -12.541000 -2.298000
v 6.200000 -12.541000 -2.298000
v 0.106000 -12.541000 -8.941000
v 0.106000 -12.541000 -7.578000
v 0.606000 -12.541000 -9.452000
v 0.606000 -12.541000 -7.233000
v 1.106000 -12.541000 -9.817000
v 1.106000 -12.541000 -6.820000
v 1.606000 -12.541000 -10.166000
v 1.606000 -12.541000 -5.659000
v 2.106000 -12.541000 -10.967000
v 2.106000 -12.541000 -5.138000
v 2.606000 -12.541000 -11.559000
v 2.606000 -12.541000 -4.927000
v 3.106000 -12.541000 -12.049000
v 3.106000 -12.541000 -4.646000
v 3.606000 -12.541000 -12.223000
v 3.606000 -12.541000 -3.506000
v 4.106000 -12.541000 -12.206000
v 4.106000 -12.541000 -2.735000
v 4.606000 -12.541000 -11.988000
v 4.606000 -12.541000 -2.266000
v 5.106000 -12.541000 -11.580000
v 5.106000 -12.541000 -2.039000
v 5.606000 -12.541000 -11.240000
v 5.606000 -12.541000 -2.028000
v 6.106000 -12.541000 -10.891000
v 6.106000 -12.541000 -8.182000
v 6.106000 -12.541000 -6.901000
v 6.106000 -12.541000 -2.228000
v 6.606000 -12.541000 -6.474000
v 6.606000 -12.541000 -2.864000
v 3.106000 -13.289000 -11.798000
v 3.106000 -11.741000 -11.798000
v 3.606000 -13.549000 -11.798000
v 3.606000 -11.405000 -11.798000
v 4.106000 -13.525000 -11.798000
v 4.106000 -11.423000 -11.798000
v 4.606000 -13.184000 -11.798000
v 4.606000 -11.758000 -11.798000
v -0.394000 -12.075000 -7.798000
v -0.394000 -11.018000 -7.798000
v 0.106000 -12.661000 -7.798000
v 0.106000 -10.433000 -7.798000
v 0.606000 -13.099000 -7.798000
v 0.606000 -10.211000 -7.798000
v 1.106000 -13.630000 -7.798000
v 1.106000 -10.031000 -7.798000
v 1.606000 -14.111000 -7.798000
v 1.606000 -10.006000 -7.798000
v 2.106000 -14.331000 -7.798000
v 2.106000 -9.822000 -7.798000
v 2.606000 -14.420000 -7.798000
v 2.606000 -9.542000 -7.798000
v 3.106000 -14.418000 -7.798000
v 3.106000 -9.545000 -7.798000
v 3.606000 -14.217000 -7.798000
v 3.606000 -9.624000 -7.798000
v 4.106000 -13.768000 -7.798000
v 4.106000 -9.634000 -7.798000
v 4.606000 -13.481000 -7.798000
v 4.606000 -9.672000 -7.798000
v 5.106000 -13.290000 -7.798000
v 5.106000 -9.711000 -7.798000
v 5.606000 -12.824000 -7.798000
v 5.606000 -9.926000 -7.798000
v 6.106000 -12.395000 -7.798000
v 6.106000 -10.503000 -7.798000
v 3.606000 -12.670000 -3.798000
v 3.606000 -11.438000 -3.798000
v 4.106000 -13.196000 -3.798000
v 4.106000 -10.821000 -3.798000
v 4.606000 -13.398000 -3.798000
v 4.606000 -10.348000 -3.798000
v 5.106000 -13.467000 -3.798000
v 5.106000 -10.173000 -3.798000
v 5.606000 -13.452000 -3.798000
v 5.606000 -10.167000 -3.798000
v 6.106000 -13.238000 -3.798000
v 6.106000 -10.337000 -3.798000
v 6.606000 -12.626000 -3.798000
v 6.606000 -10.906000 -3.798000
v 2.922000 -12.041000 -11.798000
v 4.809000 -12.041000 -11.798000
v 2.409000 -12.041000 -11.298000
v 6.164000 -12.041000 -11.298000
v 2.045000 -12.041000 -10.798000
v 6.553000 -12.041000 -10.798000
v 1.560000 -12.041000 -10.298000
v 6.664000 -12.041000 -10.298000
v 0.535000 -12.041000 -9.798000
v 6.629000 -12.041000 -9.798000
v 0.020000 -12.041000 -9.298000
v 6.681000 -12.041000 -9.298000
v -0.376000 -12.041000 -8.798000
v 6.652000 -12.041000 -8.798000
v -0.492000 -12.041000 -8.298000
v 6.559000 -12.041000 -8.298000
v -0.408000 -12.041000 -7.798000
v 6.419000 -12.041000 -7.798000
v -0.072000 -12.041000 -7.298000
v 6.460000 -12.041000 -7.298000
v 0.863000 -12.041000 -6.798000
v 6.749000 -12.041000 -6.798000
v 1.386000 -12.041000 -6.298000
v 7.079000 -12.041000 -6.298000
v 1.647000 -12.041000 -5.798000
v 7.170000 -12.041000 -5.798000
v 2.048000 -12.041000 -5.298000
v 7.169000 -12.041000 -5.298000
v 2.990000 -12.041000 -4.798000
v 7.052000 -12.041000 -4.798000
v 3.345000 -12.041000 -4.298000
v 6.822000 -12.041000 -4.298000
v 3.464000 -12.041000 -3.798000
v 6.749000 -12.041000 -3.798000
v 3.563000 -12.041000 -3.298000
v 6.782000 -12.041000 -3.298000
v 3.882000 -12.041000 -2.798000
v 6.684000 -12.041000 -2.798000
v 4.417000 -12.041000 -2.298000
v 6.347000 -12.041000 -2.298000
v -0.394000 -12.041000 -8.756000
v -0.394000 -12.041000 -7.763000
v 0.106000 -12.041000 -9.364000
v 0.106000 -12.041000 -7.160000
v 0.606000 -12.041000 -9.851000
v 0.606000 -12.041000 -6.933000
v 1.106000 -12.041000 -10.077000
v 1.106000 -12.041000 -6.619000
v 1.606000 -12.041000 -10.329000
v 1.606000 -12.041000 -5.895000
v 2.106000 -12.041000 -10.902000
v 2.106000 -12.041000 -5.257000
v 2.606000 -12.041000 -11.497000
v 2.606000 -12.041000 -5.025000
v 3.106000 -12.041000 -11.937000
v 3.106000 -12.041000 -4.692000
v 3.606000 -12.041000 -12.126000
v 3.606000 -12.041000 -3.196000
v 4.106000 -12.041000 -12.107000
v 4.106000 -12.041000 -2.609000
v 4.606000 -12.041000 -11.892000
v 4.606000 -12.041000 -2.147000
v 5.106000 -12.041000 -11.685000
v 5.106000 -12.041000 -1.940000
v 5.606000 -12.041000 -11.552000
v 5.606000 -12.041000 -1.930000
v 6.106000 -12.041000 -11.341000
v 6.106000 -12.041000 -2.114000
v 6.606000 -12.041000 -10.658000
v 6.606000 -12.041000 -8.436000
v 6.606000 -12.041000 -6.999000
v 6.606000 -12.041000 -2.632000
v 7.106000 -12.041000 -6.223000
v 7.106000 -12.041000 -4.936000
v 2.606000 -13.175000 -11.298000
v 2.606000 -10.424000 -11.298000
v 3.106000 -13.671000 -11.298000
v 3.106000 -10.106000 -11.298000
v 3.606000 -13.857000 -11.298000
v 3.606000 -10.085000 -11.298000
v 4.106000 -13.839000 -11.298000
v 4.106000 -10.048000 -11.298000
v 4.606000 -13.605000 -11.298000
v 4.606000 -10.072000 -11.298000
v 5.106000 -12.969000 -11.298000
v 5.106000 -10.153000 -11.298000
v 5.606000 -12.477000 -11.298000
v 5.606000 -10.508000 -11.298000
v 6.106000 -12.124000 -11.298000
v 6.106000 -10.939000 -11.298000
v 0.106000 -12.274000 -7.298000
v 0.106000 -10.819000 -7.298000
v 0.606000 -12.638000 -7.298000
v 0.606000 -10.551000 -7.298000
v 1.106000 -13.196000 -7.298000
v 1.106000 -10.563000 -7.298000
v 1.606000 -13.824000 -7.298000
v 1.606000 -10.557000 -7.298000
v 2.106000 -14.260000 -7.298000
v 2.106000 -10.517000 -7.298000
v 2.606000 -14.460000 -7.298000
v 2.606000 -10.329000 -7.298000
v 3.106000 -14.464000 -7.298000
v 3.106000 -10.066000 -7.298000
v 3.606000 -14.275000 -7.298000
v 3.606000 -9.935000 -7.298000
v 4.106000 -13.790000 -7.298000
v 4.106000 -9.771000 -7.298000
v 4.606000 -13.424000 -7.298000
v 4.606000 -9.771000 -7.298000
v 5.106000 -13.204000 -7.298000
v 5.106000 -9.821000 -7.298000
v 5.606000 -12.797000 -7.298000
v 5.606000 -10.023000 -7.298000
v 6.106000 -12.391000 -7.298000
v 6.106000 -10.525000 -7.298000
v 3.606000 -12.355000 -3.298000
v 3.606000 -11.694000 -3.298000
v 4.106000 -13.088000 -3.298000
v 4.106000 -10.953000 -3.298000
v 4.606000 -13.310000 -3.298000
v 4.606000 -10.459000 -3.298000
v 5.106000 -13.403000 -3.298000
v 5.106000 -10.269000 -3.298000
v 5.606000 -13.412000 -3.298000
v 5.606000 -10.287000 -3.298000
v 6.106000 -13.228000 -3.298000
v 6.106000 -10.524000 -3.298000
v 6.606000 -12.710000 -3.298000
v 6.606000 -11.290000 -3.298000
v 3.273000 -11.541000 -11.798000
v 4.344000 -11.541000 -11.798000
v 2.343000 -11.541000 -11.298000
v 6.312000 -11.541000 -11.298000
v 1.966000 -11.541000 -10.798000
v 6.658000 -11.541000 -10.798000
v 1.382000 -11.541000 -10.298000
v 6.760000 -11.541000 -10.298000
v 0.419000 -11.541000 -9.798000
v 6.732000 -11.541000 -9.798000
v -0.121000 -11.541000 -9.298000
v 6.784000 -11.541000 -9.298000
v -0.475000 -11.541000 -8.798000
v 6.752000 -11.541000 -8.798000
v -0.582000 -11.541000 -8.298000
v 6.666000 -11.541000 -8.298000
v -0.505000 -11.541000 -7.798000
v 6.551000 -11.541000 -7.798000
v -0.201000 -11.541000 -7.298000
v 6.601000 -11.541000 -7.298000
v 0.865000 -11.541000 -6.798000
v 6.868000 -11.541000 -6.798000
v 1.725000 -11.541000 -6.298000
v 7.171000 -11.541000 -6.298000
v 2.037000 -11.541000 -5.798000
v 7.256000 -11.541000 -5.798000
v 2.914000 -11.541000 -5.298000
v 7.257000 -11.541000 -5.298000
v 3.401000 -11.541000 -4.798000
v 7.148000 -11.541000 -4.798000
v 3.544000 -11.541000 -4.298000
v 6.874000 -11.541000 -4.298000
v 3.563000 -11.541000 -3.798000
v 6.731000 -11.541000 -3.798000
v 3.655000 -11.541000 -3.298000
v 6.695000 -11.541000 -3.298000
v 4.006000 -11.541000 -2.798000
v 6.589000 -11.541000 -2.798000
v 4.549000 -11.541000 -2.298000
v 6.215000 -11.541000 -2.298000
v -0.394000 -11.541000 -8.960000
v -0.394000 -11.541000 -7.558000
v 0.106000 -11.541000 -9.479000
v 0.106000 -11.541000 -7.054000
v 0.606000 -11.541000 -9.943000
v 0.606000 -11.541000 -6.870000
v 1.106000 -11.541000 -10.165000
v 1.106000 -11.541000 -6.714000
v 1.606000 -11.541000 -10.440000
v 1.606000 -11.541000 -6.419000
v 2.106000 -11.541000 -10.998000
v 2.106000 -11.541000 -5.708000
v 2.606000 -11.541000 -11.497000
v 2.606000 -11.541000 -5.403000
v 3.106000 -11.541000 -11.739000
v 3.106000 -11.541000 -5.189000
v 3.606000 -11.541000 -11.856000
v 3.606000 -11.541000 -3.450000
v 4.106000 -11.541000 -11.845000
v 4.106000 -11.541000 -2.719000
v 4.606000 -11.541000 -11.730000
v 4.606000 -11.541000 -2.254000
v 5.106000 -11.541000 -11.670000
v 5.106000 -11.541000 -2.029000
v 5.606000 -11.541000 -11.650000
v 5.606000 -11.541000 -2.019000
v 6.106000 -11.541000 -11.457000
v 6.106000 -11.541000 -2.217000
v 6.606000 -11.541000 -10.912000
v 6.606000 -11.541000 -8.098000
v 6.606000 -11.541000 -7.284000
v 6.606000 -11.541000 -2.838000
v 7.106000 -11.541000 -6.448000
v 7.106000 -11.541000 -4.706000
v 2.106000 -12.968000 -10.798000
v 2.106000 -10.553000 -10.798000
v 2.606000 -13.595000 -10.798000
v 2.606000 -9.912000 -10.798000
v 3.106000 -13.840000 -10.798000
v 3.106000 -9.597000 -10.798000
v 3.606000 -13.942000 -10.798000
v 3.606000 -9.583000 -10.798000
v 4.106000 -13.918000 -10.798000
v 4.106000 -9.625000 -10.798000
v 4.606000 -13.701000 -10.798000
v 4.606000 -9.731000 -10.798000
v 5.106000 -13.193000 -10.798000
v 5.106000 -9.783000 -10.798000
v 5.606000 -12.835000 -10.798000
v 5.606000 -10.006000 -10.798000
v 6.106000 -12.593000 -10.798000
v 6.106000 -10.469000 -10.798000
v 6.606000 -11.895000 -10.798000
v 6.606000 -11.167000 -10.798000
v 1.106000 -12.511000 -6.798000
v 1.106000 -11.340000 -6.798000
v 1.606000 -13.659000 -6.798000
v 1.606000 -11.181000 -6.798000
v 2.106000 -14.195000 -6.798000
v 2.106000 -11.047000 -6.798000
v 2.606000 -14.392000 -6.798000
v 2.606000 -10.821000 -6.798000
v 3.106000 -14.400000 -6.798000
v 3.106000 -10.412000 -6.798000
v 3.606000 -14.207000 -6.798000
v 3.606000 -10.218000 -6.798000
v 4.106000 -13.729000 -6.798000
v 4.106000 -10.071000 -6.798000
v 4.606000 -13.414000 -6.798000
v 4.606000 -10.004000 -6.798000
v 5.106000 -13.209000 -6.798000
v 5.106000 -9.983000 -6.798000
v 5.606000 -12.858000 -6.798000
v 5.606000 -10.053000 -6.798000
v 6.106000 -12.598000 -6.798000
v 6.106000 -10.361000 -6.798000
v 6.606000 -12.251000 -6.798000
v 6.606000 -10.858000 -6.798000
v 4.106000 -12.654000 -2.798000
v 4.106000 -11.395000 -2.798000
v 4.606000 -13.078000 -2.798000
v 4.606000 -10.885000 -2.798000
v 5.106000 -13.302000 -2.798000
v 5.106000 -10.607000 -2.798000
v 5.606000 -13.313000 -2.798000
v 5.606000 -10.631000 -2.798000
v 6.106000 -13.112000 -2.798000
v 6.106000 -10.926000 -2.798000
v 6.606000 -12.475000 -2.798000
v 6.606000 -11.584000 -2.798000
v 2.371000 -11.041000 -11.298000
v 6.177000 -11.041000 -11.298000
v 1.961000 -11.041000 -10.798000
v 6.562000 -11.041000 -10.798000
v 1.283000 -11.041000 -10.298000
v 6.672000 -11.041000 -10.298000
v 0.364000 -11.041000 -9.798000
v 6.645000 -11.041000 -9.798000
v -0.030000 -11.041000 -9.298000
v 6.702000 -11.041000 -9.298000
v -0.372000 -11.041000 -8.798000
v 6.667000 -11.041000 -8.798000
v -0.488000 -11.041000 -8.298000
v 6.575000 -11.041000 -8.298000
v -0.404000 -11.041000 -7.798000
v 6.429000 -11.041000 -7.798000
v -0.067000 -11.041000 -7.298000
v 6.458000 -11.041000 -7.298000
v 2.128000 -11.041000 -6.798000
v 6.734000 -11.041000 -6.798000
v 2.723000 -11.041000 -6.298000
v 7.065000 -11.041000 -6.298000
v 3.408000 -11.041000 -5.798000
v 7.198000 -11.041000 -5.798000
v 3.802000 -11.041000 -5.298000
v 7.279000 -11.041000 -5.298000
v 3.933000 -11.041000 -4.798000
v 7.199000 -11.041000 -4.798000
v 3.892000 -11.041000 -4.298000
v 6.908000 -11.041000 -4.298000
v 3.880000 -11.041000 -3.798000
v 6.655000 -11.041000 -3.798000
v 4.006000 -11.041000 -3.298000
v 6.508000 -11.041000 -3.298000
v 4.467000 -11.041000 -2.798000
v 6.235000 -11.041000 -2.798000
v -0.394000 -11.041000 -8.746000
v -0.394000 -11.041000 -7.773000
v 0.106000 -11.041000 -9.483000
v 0.106000 -11.041000 -7.164000
v 0.606000 -11.041000 -9.979000
v 0.606000 -11.041000 -6.971000
v 1.106000 -11.041000 -10.196000
v 1.106000 -11.041000 -6.957000
v 1.606000 -11.041000 -10.533000
v 1.606000 -11.041000 -6.922000
v 2.106000 -11.041000 -10.958000
v 2.106000 -11.041000 -6.805000
v 2.606000 -11.041000 -11.488000
v 2.606000 -11.041000 -6.462000
v 3.106000 -11.041000 -11.687000
v 3.106000 -11.041000 -6.039000
v 3.606000 -11.041000 -11.701000
v 3.606000 -11.041000 -5.584000
v 4.106000 -11.041000 -11.702000
v 4.106000 -11.041000 -3.150000
v 4.606000 -11.041000 -11.673000
v 4.606000 -11.041000 -2.666000
v 5.106000 -11.041000 -11.629000
v 5.106000 -11.041000 -2.360000
v 5.606000 -11.041000 -11.560000
v 5.606000 -11.041000 -2.346000
v 6.106000 -11.041000 -11.351000
v 6.106000 -11.041000 -2.634000
v 6.606000 -11.041000 -10.684000
v 6.606000 -11.041000 -8.384000
v 6.606000 -11.041000 -6.981000
v 6.606000 -11.041000 -3.634000
v 7.106000 -11.041000 -6.179000
v 7.106000 -11.041000 -4.590000
v 1.606000 -12.241000 -10.298000
v 1.606000 -10.358000 -10.298000
v 2.106000 -13.747000 -10.298000
v 2.106000 -9.946000 -10.298000
v 2.606000 -14.040000 -10.298000
v 2.606000 -9.499000 -10.298000
v 3.106000 -14.080000 -10.298000
v 3.106000 -9.282000 -10.298000
v 3.606000 -14.008000 -10.298000
v 3.606000 -9.250000 -10.298000
v 4.106000 -13.898000 -10.298000
v 4.106000 -9.268000 -10.298000
v 4.606000 -13.682000 -10.298000
v 4.606000 -9.484000 -10.298000
v 5.106000 -13.209000 -10.298000
v 5.106000 -9.668000 -10.298000
v 5.606000 -12.921000 -10.298000
v 5.606000 -9.872000 -10.298000
v 6.106000 -12.716000 -10.298000
v 6.106000 -10.336000 -10.298000
v 6.606000 -12.171000 -10.298000
v 6.606000 -10.891000 -10.298000
v 1.606000 -13.575000 -6.298000
v 1.606000 -11.650000 -6.298000
v 2.106000 -14.181000 -6.298000
v 2.106000 -11.316000 -6.298000
v 2.606000 -14.393000 -6.298000
v 2.606000 -11.105000 -6.298000
v 3.106000 -14.406000 -6.298000
v 3.106000 -10.816000 -6.298000
v 3.606000 -14.227000 -6.298000
v 3.606000 -10.489000 -6.298000
v 4.106000 -13.761000 -6.298000
v 4.106000 -10.268000 -6.298000
v 4.606000 -13.414000 -6.298000
v 4.606000 -10.134000 -6.298000
v 5.106000 -13.188000 -6.298000
v 5.106000 -10.028000 -6.298000
v 5.606000 -12.953000 -6.298000
v 5.606000 -9.948000 -6.298000
v 6.106000 -12.849000 -6.298000
v 6.106000 -10.041000 -6.298000
v 6.606000 -12.639000 -6.298000
v 6.606000 -10.385000 -6.298000
v 7.106000 -11.967000 -6.298000
v 7.106000 -11.150000 -6.298000
v 4.606000 -12.603000 -2.298000
v 4.606000 -11.456000 -2.298000
v 5.106000 -12.955000 -2.298000
v 5.106000 -11.105000 -2.298000
v 5.606000 -12.969000 -2.298000
v 5.606000 -11.091000 -2.298000
v 6.106000 -12.669000 -2.298000
v 6.106000 -11.391000 -2.298000
v 2.520000 -10.541000 -11.298000
v 5.636000 -10.541000 -11.298000
v 2.112000 -10.541000 -10.798000
v 6.199000 -10.541000 -10.798000
v 1.459000 -10.541000 -10.298000
v 6.350000 -10.541000 -10.298000
v 0.488000 -10.541000 -9.798000
v 6.315000 -10.541000 -9.798000
v 0.108000 -10.541000 -9.298000
v 6.392000 -10.541000 -9.298000
v -0.049000 -10.541000 -8.798000
v 6.351000 -10.541000 -8.798000
v -0.157000 -10.541000 -8.298000
v 6.250000 -10.541000 -8.298000
v -0.041000 -10.541000 -7.798000
v 6.127000 -10.541000 -7.798000
v 1.706000 -10.541000 -7.298000
v 6.118000 -10.541000 -7.298000
v 2.935000 -10.541000 -6.798000
v 6.287000 -10.541000 -6.798000
v 3.516000 -10.541000 -6.298000
v 6.747000 -10.541000 -6.298000
v 3.929000 -10.541000 -5.798000
v 7.090000 -10.541000 -5.798000
v 4.308000 -10.541000 -5.298000
v 7.201000 -10.541000 -5.298000
v 4.451000 -10.541000 -4.798000
v 7.116000 -10.541000 -4.798000
v 4.421000 -10.541000 -4.298000
v 6.781000 -10.541000 -4.298000
v 4.347000 -10.541000 -3.798000
v 6.365000 -10.541000 -3.798000
v 4.491000 -10.541000 -3.298000
v 6.128000 -10.541000 -3.298000
v 0.106000 -10.541000 -9.292000
v 0.106000 -10.541000 -7.593000
v 0.606000 -10.541000 -9.883000
v 0.606000 -10.541000 -7.308000
v 1.106000 -10.541000 -10.095000
v 1.106000 -10.541000 -7.321000
v 1.606000 -10.541000 -10.410000
v 1.606000 -10.541000 -7.313000
v 2.106000 -10.541000 -10.791000
v 2.106000 -10.541000 -7.275000
v 2.606000 -10.541000 -11.365000
v 2.606000 -10.541000 -7.103000
v 3.106000 -10.541000 -11.583000
v 3.106000 -10.541000 -6.586000
v 3.606000 -10.541000 -11.595000
v 3.606000 -10.541000 -6.219000
v 4.106000 -10.541000 -11.607000
v 4.106000 -10.541000 -5.557000
v 4.606000 -10.541000 -11.589000
v 4.606000 -10.541000 -3.149000
v 5.106000 -10.541000 -11.531000
v 5.106000 -10.541000 -2.864000
v 5.606000 -10.541000 -11.317000
v 5.606000 -10.541000 -2.889000
v 6.106000 -10.541000 -10.924000
v 6.106000 -10.541000 -3.264000
v 6.606000 -10.541000 -6.444000
v 6.606000 -10.541000 -4.117000
v 7.106000 -10.541000 -5.760000
v 7.106000 -10.541000 -4.770000
v 0.606000 -12.151000 -9.798000
v 0.606000 -10.378000 -9.798000
v 1.106000 -12.570000 -9.798000
v 1.106000 -10.083000 -9.798000
v 1.606000 -13.628000 -9.798000
v 1.606000 -9.871000 -9.798000
v 2.106000 -14.152000 -9.798000
v 2.106000 -9.470000 -9.798000
v 2.606000 -14.356000 -9.798000
v 2.606000 -9.256000 -9.798000
v 3.106000 -14.352000 -9.798000
v 3.106000 -9.191000 -9.798000
v 3.606000 -14.143000 -9.798000
v 3.606000 -9.142000 -9.798000
v 4.106000 -13.853000 -9.798000
v 4.106000 -9.155000 -9.798000
v 4.606000 -13.559000 -9.798000
v 4.606000 -9.368000 -9.798000
v 5.106000 -13.204000 -9.798000
v 5.106000 -9.641000 -9.798000
v 5.606000 -12.929000 -9.798000
v 5.606000 -9.861000 -9.798000
v 6.106000 -12.707000 -9.798000
v 6.106000 -10.360000 -9.798000
v 6.606000 -12.096000 -9.798000
v 6.606000 -10.948000 -9.798000
v 1.606000 -13.262000 -5.798000
v 1.606000 -12.149000 -5.798000
v 2.106000 -14.069000 -5.798000
v 2.106000 -11.491000 -5.798000
v 2.606000 -14.300000 -5.798000
v 2.606000 -11.289000 -5.798000
v 3.106000 -14.314000 -5.798000
v 3.106000 -11.191000 -5.798000
v 3.606000 -14.120000 -5.798000
v 3.606000 -10.882000 -5.798000
v 4.106000 -13.700000 -5.798000
v 4.106000 -10.408000 -5.798000
v 4.606000 -13.380000 -5.798000
v 4.606000 -10.174000 -5.798000
v 5.106000 -13.215000 -5.798000
v 5.106000 -9.939000 -5.798000
v 5.606000 -13.016000 -5.798000
v 5.606000 -9.738000 -5.798000
v 6.106000 -12.936000 -5.798000
v 6.106000 -9.728000 -5.798000
v 6.606000 -12.741000 -5.798000
v 6.606000 -9.931000 -5.798000
v 7.106000 -12.190000 -5.798000
v 7.106000 -10.586000 -5.798000
f 203 619 647
f 619 204 647
f 205 369 397
f 397 369 87
f 369 487 87
f 369 489 487
f 489 203 647
f 617 489 647
f 487 489 617
f 617 647 204
f 747 617 204
f 745 617 747
f 88 745 895
f 745 871 895
f 745 747 871
f 871 206 895
f 207 263 289
f 205 397 263
f 263 397 289
f 397 367 289
f 367 89 289
f 397 87 367
f 895 869 88
f 869 895 206
f 29 869 206
f 27 869 29
f 29 208 27
f 27 208 90
f 209 149 175
f 207 289 149
f 149 289 175
f 289 261 175
f 261 91 175
f 289 89 261
f 90 210 92
f 208 210 90
f 211 7 93
f 93 7 5
f 7 209 175
f 147 7 175
f 5 7 147
f 175 91 147
f 92 212 94
f 210 212 92
f 213 93 95
f 213 211 93
f 169 94 212
f 169 212 171
f 171 214 169
f 169 214 96
f 215 95 97
f 215 213 95
f 96 216 98
f 214 216 96
f 217 97 99
f 217 215 97
f 98 218 100
f 216 218 98
f 219 99 101
f 219 217 99
f 100 220 102
f 218 220 100
f 101 6 219
f 219 6 8
f 221 8 6
f 221 6 103
f 102 222 104
f 220 222 102
f 103 148 221
f 221 148 150
f 223 150 148
f 223 148 105
f 104 224 106
f 222 224 104
f 225 105 107
f 225 223 105
f 172 226 108
f 172 108 170
f 170 106 172
f 172 106 224
f 107 262 225
f 225 262 264
f 227 264 262
f 227 262 109
f 108 228 110
f 226 228 108
f 229 109 111
f 229 227 109
f 30 230 112
f 30 112 28
f 28 110 30
f 30 110 228
f 111 368 229
f 229 368 370
f 231 370 368
f 231 368 113
f 872 232 114
f 872 114 870
f 870 112 872
f 872 112 230
f 113 488 231
f 231 488 490
f 618 490 488
f 618 620 490
f 746 620 618
f 746 748 620
f 746 114 748
f 748 114 232
f 180 163 115
f 296 277 180
f 180 277 163
f 406 383 296
f 296 383 277
f 528 503 406
f 406 503 383
f 528 116 503
f 117 182 115
f 115 182 180
f 298 180 182
f 296 180 298
f 408 296 298
f 406 296 408
f 530 406 408
f 528 406 530
f 116 528 118
f 118 528 530
f 119 184 117
f 117 184 182
f 184 233 279
f 298 184 279
f 182 184 298
f 298 279 385
f 298 385 408
f 408 385 505
f 408 505 530
f 234 662 633
f 234 633 118
f 505 234 118
f 530 505 118
f 662 120 633
f 121 186 119
f 119 186 184
f 233 184 186
f 233 186 235
f 635 662 234
f 635 236 662
f 236 120 662
f 236 122 120
f 123 188 121
f 121 188 186
f 235 186 188
f 235 188 237
f 761 122 236
f 761 236 763
f 763 238 761
f 761 238 124
f 164 188 123
f 237 188 164
f 125 237 164
f 239 237 125
f 885 124 238
f 885 238 887
f 887 240 885
f 885 240 126
f 241 125 127
f 241 239 125
f 43 126 240
f 43 240 45
f 45 242 43
f 43 242 128
f 243 127 129
f 243 241 127
f 128 244 130
f 242 244 128
f 311 245 278
f 245 129 278
f 245 243 129
f 131 311 278
f 130 246 132
f 244 246 130
f 311 280 245
f 247 280 311
f 131 247 311
f 133 247 131
f 132 248 134
f 246 248 132
f 133 384 247
f 247 384 386
f 384 135 550
f 506 384 550
f 386 384 506
f 249 506 550
f 46 250 136
f 46 136 44
f 44 134 46
f 46 134 248
f 504 550 135
f 550 504 249
f 504 636 249
f 504 634 636
f 762 636 634
f 762 764 636
f 886 764 762
f 886 888 764
f 886 136 888
f 888 136 250
f 313 491 517
f 517 491 203
f 491 619 203
f 491 621 619
f 204 619 773
f 619 749 773
f 619 621 749
f 749 314 773
f 315 371 205
f 205 371 369
f 371 313 517
f 489 371 517
f 369 371 489
f 517 203 489
f 773 747 204
f 747 773 314
f 873 747 314
f 871 747 873
f 873 316 871
f 871 316 206
f 317 265 207
f 207 265 263
f 205 263 265
f 205 265 315
f 29 206 316
f 29 316 31
f 31 318 29
f 29 318 208
f 319 151 209
f 209 151 149
f 207 149 151
f 207 151 317
f 208 320 210
f 318 320 208
f 321 9 211
f 211 9 7
f 209 7 9
f 209 9 319
f 210 322 212
f 320 322 210
f 323 211 213
f 323 321 211
f 171 212 322
f 171 322 173
f 173 324 171
f 171 324 214
f 325 213 215
f 325 323 213
f 214 326 216
f 324 326 214
f 327 215 217
f 327 325 215
f 216 328 218
f 326 328 216
f 329 217 219
f 329 327 217
f 218 330 220
f 328 330 218
f 219 8 329
f 329 8 10
f 331 10 8
f 331 8 221
f 220 332 222
f 330 332 220
f 221 150 331
f 331 150 152
f 333 152 150
f 333 150 223
f 174 334 202
f 202 224 174
f 224 332 174
f 224 222 332
f 335 223 225
f 335 333 223
f 226 172 202
f 334 226 202
f 336 226 334
f 224 202 172
f 225 264 335
f 335 264 266
f 337 266 264
f 337 264 227
f 226 338 228
f 336 338 226
f 339 227 229
f 339 337 227
f 32 340 230
f 32 230 30
f 30 228 32
f 32 228 338
f 229 370 339
f 339 370 372
f 370 231 546
f 492 370 546
f 372 370 492
f 341 492 546
f 750 342 802
f 750 802 232
f 872 750 232
f 874 750 872
f 872 230 874
f 874 230 340
f 490 546 231
f 546 490 341
f 490 622 341
f 490 620 622
f 342 622 802
f 622 748 802
f 622 620 748
f 232 802 748
f 300 279 233
f 410 385 300
f 300 385 279
f 532 505 410
f 410 505 385
f 532 234 505
f 235 302 233
f 233 302 300
f 302 343 387
f 410 302 387
f 300 302 410
f 410 387 507
f 410 507 532
f 635 234 532
f 507 635 532
f 637 635 507
f 637 344 635
f 635 344 236
f 302 235 281
f 235 345 281
f 235 237 345
f 343 302 281
f 763 236 344
f 763 344 765
f 765 346 763
f 763 346 238
f 347 237 239
f 347 345 237
f 887 238 346
f 887 346 889
f 889 348 887
f 887 348 240
f 349 239 241
f 349 347 239
f 350 78 45
f 240 350 45
f 348 350 240
f 78 242 45
f 351 241 243
f 351 349 241
f 47 78 350
f 47 352 78
f 352 242 78
f 352 244 242
f 353 243 245
f 353 351 243
f 244 354 246
f 352 354 244
f 245 280 353
f 353 280 282
f 355 282 280
f 355 280 247
f 48 356 86
f 86 248 48
f 248 354 48
f 248 246 354
f 247 386 355
f 355 386 388
f 506 388 386
f 506 508 388
f 506 249 680
f 638 506 680
f 508 506 638
f 638 680 806
f 638 806 766
f 766 806 924
f 766 924 890
f 86 356 890
f 86 890 924
f 46 86 924
f 250 46 924
f 248 86 46
f 636 680 249
f 764 806 636
f 636 806 680
f 888 924 764
f 764 924 806
f 250 924 888
f 427 251 299
f 299 251 409
f 409 251 357
f 409 357 531
f 531 357 477
f 477 428 531
f 429 137 185
f 427 299 137
f 299 185 137
f 299 301 185
f 299 411 301
f 299 409 411
f 409 533 411
f 409 531 533
f 607 663 428
f 663 531 428
f 663 533 531
f 607 430 663
f 185 138 429
f 138 185 431
f 185 303 431
f 185 301 303
f 301 413 303
f 301 411 413
f 411 535 413
f 411 533 535
f 533 665 535
f 533 663 665
f 663 430 665
f 665 430 432
f 305 433 303
f 303 433 431
f 303 415 305
f 303 413 415
f 413 537 415
f 413 535 537
f 434 537 608
f 537 665 608
f 537 535 665
f 665 432 608
f 305 252 433
f 252 305 358
f 358 305 415
f 358 415 478
f 478 415 537
f 537 434 478
f 435 493 313
f 313 493 491
f 493 621 491
f 623 621 493
f 623 749 621
f 751 749 623
f 751 436 749
f 749 436 314
f 437 373 315
f 315 373 371
f 313 371 373
f 313 373 435
f 873 314 436
f 873 436 875
f 875 438 873
f 873 438 316
f 439 267 317
f 317 267 265
f 315 265 267
f 315 267 437
f 440 60 31
f 316 440 31
f 438 440 316
f 60 318 31
f 441 153 319
f 319 153 151
f 317 151 153
f 317 153 439
f 33 60 440
f 33 442 60
f 442 318 60
f 442 320 318
f 443 11 321
f 321 11 9
f 319 9 11
f 319 11 441
f 320 444 322
f 442 444 320
f 445 321 323
f 445 443 321
f 446 192 173
f 322 446 173
f 444 446 322
f 192 324 173
f 447 323 325
f 447 445 323
f 448 194 192
f 448 192 446
f 324 192 326
f 326 192 194
f 449 325 327
f 449 447 325
f 450 196 194
f 450 194 448
f 326 194 328
f 328 194 196
f 451 327 329
f 451 449 327
f 452 198 196
f 452 196 450
f 328 196 330
f 330 196 198
f 329 10 451
f 451 10 12
f 453 12 10
f 453 10 331
f 454 200 198
f 454 198 452
f 330 198 332
f 332 198 200
f 331 152 453
f 453 152 154
f 455 154 152
f 455 152 333
f 334 174 200
f 454 334 200
f 456 334 454
f 332 200 174
f 457 333 335
f 457 455 333
f 334 458 336
f 456 458 334
f 335 266 457
f 457 266 268
f 459 268 266
f 459 266 337
f 336 460 338
f 458 460 336
f 374 459 422
f 459 339 422
f 459 337 339
f 461 374 422
f 34 462 340
f 34 340 32
f 32 338 34
f 34 338 460
f 372 422 339
f 422 372 461
f 372 494 461
f 372 492 494
f 492 341 676
f 624 492 676
f 494 492 624
f 624 676 342
f 750 624 342
f 752 624 750
f 874 752 750
f 874 876 752
f 874 340 876
f 876 340 462
f 622 676 341
f 342 676 622
f 463 389 343
f 343 389 387
f 389 507 387
f 509 507 389
f 509 637 507
f 639 637 509
f 639 464 637
f 637 464 344
f 465 283 345
f 345 283 281
f 343 281 283
f 343 283 463
f 765 344 464
f 765 464 767
f 767 466 765
f 765 466 346
f 467 345 347
f 467 465 345
f 889 346 466
f 889 466 891
f 891 468 889
f 889 468 348
f 469 347 349
f 469 467 347
f 348 470 350
f 468 470 348
f 471 349 351
f 471 469 349
f 472 82 47
f 350 472 47
f 470 472 350
f 82 352 47
f 473 351 353
f 473 471 351
f 474 84 82
f 474 82 472
f 352 82 354
f 354 82 84
f 353 282 473
f 473 282 284
f 475 284 282
f 475 282 355
f 892 476 922
f 84 474 892
f 84 892 922
f 48 84 922
f 356 48 922
f 354 84 48
f 355 388 475
f 475 388 390
f 508 390 388
f 508 510 390
f 638 510 508
f 638 640 510
f 766 640 638
f 766 768 640
f 476 768 922
f 768 890 922
f 768 766 890
f 356 922 890
f 551 253 297
f 297 253 407
f 407 253 359
f 407 359 529
f 529 359 479
f 529 479 659
f 659 479 609
f 659 609 785
f 785 609 737
f 785 737 905
f 905 737 861
f 861 552 905
f 553 139 183
f 551 297 139
f 139 297 183
f 297 251 183
f 251 427 183
f 407 357 251
f 407 251 297
f 529 477 357
f 529 357 407
f 661 428 477
f 529 661 477
f 659 661 529
f 659 787 661
f 659 785 787
f 785 907 787
f 785 905 907
f 905 552 907
f 907 552 554
f 137 429 183
f 429 553 183
f 429 555 553
f 183 427 137
f 661 607 428
f 789 430 607
f 661 789 607
f 787 789 661
f 787 909 789
f 787 907 909
f 907 554 909
f 909 554 556
f 187 557 138
f 557 429 138
f 557 555 429
f 431 187 138
f 791 432 430
f 791 430 789
f 789 911 791
f 789 909 911
f 909 556 911
f 911 556 558
f 189 559 187
f 187 559 557
f 187 431 433
f 187 433 189
f 608 667 434
f 667 608 432
f 791 667 432
f 793 667 791
f 791 913 793
f 791 911 913
f 911 558 913
f 913 558 560
f 189 140 559
f 433 252 189
f 252 140 189
f 252 254 140
f 358 417 561
f 254 358 561
f 252 358 254
f 478 539 417
f 478 417 358
f 539 478 434
f 667 539 434
f 669 539 667
f 667 795 669
f 667 793 795
f 793 915 795
f 793 913 915
f 913 560 915
f 915 560 562
f 417 360 561
f 360 417 563
f 417 541 563
f 417 539 541
f 539 671 541
f 539 669 671
f 669 797 671
f 669 795 797
f 795 917 797
f 795 915 917
f 915 562 917
f 917 562 564
f 543 565 541
f 541 565 563
f 541 673 543
f 541 671 673
f 671 799 673
f 671 797 799
f 566 799 862
f 799 917 862
f 799 797 917
f 917 564 862
f 543 480 565
f 480 543 610
f 610 543 673
f 610 673 738
f 738 673 799
f 799 566 738
f 518 493 435
f 648 623 518
f 518 623 493
f 774 751 648
f 648 751 623
f 774 436 751
f 398 373 437
f 495 518 435
f 495 435 373
f 567 495 373
f 398 567 373
f 518 495 625
f 518 625 648
f 648 625 753
f 648 753 774
f 568 896 875
f 568 875 436
f 753 568 436
f 774 753 436
f 896 438 875
f 290 267 439
f 375 398 437
f 375 437 267
f 569 375 267
f 290 569 267
f 567 398 375
f 570 898 896
f 570 896 568
f 438 896 440
f 440 896 898
f 176 153 441
f 269 290 439
f 269 439 153
f 571 269 153
f 176 571 153
f 569 290 269
f 572 900 898
f 572 898 570
f 440 898 33
f 898 62 33
f 898 900 62
f 62 442 33
f 50 11 443
f 155 176 441
f 155 441 11
f 573 155 11
f 50 573 11
f 571 176 155
f 574 902 900
f 574 900 572
f 64 900 902
f 62 900 64
f 442 62 444
f 444 62 64
f 50 443 13
f 443 575 13
f 443 445 575
f 573 50 13
f 877 902 574
f 902 877 576
f 66 902 576
f 64 902 66
f 444 64 446
f 446 64 66
f 577 445 447
f 577 575 445
f 578 68 66
f 578 66 576
f 446 66 448
f 448 66 68
f 579 447 449
f 579 577 447
f 580 70 68
f 580 68 578
f 448 68 450
f 450 68 70
f 581 449 451
f 581 579 449
f 35 70 580
f 35 582 70
f 582 450 70
f 582 452 450
f 451 12 581
f 581 12 14
f 583 14 12
f 583 12 453
f 452 584 454
f 582 584 452
f 453 154 583
f 583 154 156
f 585 156 154
f 585 154 455
f 454 586 456
f 584 586 454
f 587 455 457
f 587 585 455
f 456 588 458
f 586 588 456
f 457 268 587
f 587 268 270
f 589 270 268
f 589 268 459
f 458 590 460
f 588 590 458
f 459 374 589
f 589 374 376
f 591 376 374
f 591 374 461
f 36 592 462
f 36 462 34
f 34 460 36
f 36 460 590
f 461 494 591
f 591 494 496
f 624 496 494
f 624 626 496
f 752 626 624
f 752 754 626
f 876 754 752
f 876 878 754
f 876 462 878
f 878 462 592
f 412 389 463
f 593 511 412
f 511 389 412
f 511 509 389
f 664 639 594
f 639 511 594
f 639 509 511
f 664 464 639
f 595 285 465
f 465 285 283
f 391 412 463
f 283 391 463
f 285 391 283
f 593 412 391
f 641 664 594
f 767 464 664
f 641 767 664
f 769 767 641
f 769 596 767
f 767 596 466
f 597 465 467
f 597 595 465
f 891 466 596
f 891 596 893
f 893 598 891
f 891 598 468
f 599 467 469
f 599 597 467
f 468 600 470
f 598 600 468
f 601 469 471
f 601 599 469
f 470 602 472
f 600 602 470
f 603 471 473
f 603 601 471
f 472 604 474
f 602 604 472
f 473 284 603
f 603 284 286
f 605 286 284
f 605 284 475
f 770 606 804
f 770 804 476
f 892 770 476
f 894 770 892
f 892 474 894
f 894 474 604
f 475 390 605
f 605 390 392
f 510 392 390
f 510 512 392
f 640 512 510
f 640 642 512
f 606 642 804
f 642 768 804
f 642 640 768
f 476 804 768
f 681 361 405
f 405 361 527
f 527 361 481
f 527 481 657
f 657 481 611
f 657 611 783
f 783 611 739
f 739 682 783
f 683 141 181
f 181 141 551
f 141 253 551
f 141 255 253
f 255 681 405
f 359 255 405
f 253 255 359
f 527 479 359
f 527 359 405
f 657 609 479
f 657 479 527
f 783 737 609
f 783 609 657
f 737 783 682
f 863 737 682
f 861 737 863
f 552 861 67
f 861 21 67
f 861 863 21
f 21 684 67
f 139 553 181
f 553 683 181
f 553 685 683
f 181 551 139
f 69 554 552
f 69 552 67
f 67 684 69
f 69 684 686
f 687 553 555
f 687 685 553
f 71 556 554
f 71 554 69
f 69 686 71
f 71 686 688
f 689 555 557
f 689 687 555
f 73 558 556
f 73 556 71
f 71 688 73
f 73 688 690
f 691 557 559
f 691 689 557
f 75 560 558
f 75 558 73
f 73 690 75
f 75 690 692
f 559 140 691
f 691 140 142
f 254 307 693
f 142 254 693
f 140 254 142
f 561 307 254
f 77 562 560
f 77 560 75
f 75 692 77
f 77 692 694
f 307 256 693
f 419 695 360
f 360 695 561
f 695 256 561
f 256 307 561
f 563 419 360
f 79 564 562
f 79 562 77
f 77 694 79
f 79 694 696
f 421 697 419
f 419 697 695
f 419 563 565
f 419 565 421
f 862 919 566
f 79 22 564
f 564 22 862
f 22 698 862
f 698 919 862
f 79 696 22
f 421 362 697
f 565 480 421
f 480 362 421
f 480 482 362
f 610 675 699
f 482 610 699
f 480 610 482
f 740 700 675
f 610 740 675
f 738 740 610
f 919 864 566
f 864 738 566
f 864 740 738
f 919 698 864
f 675 612 699
f 675 700 612
f 520 495 567
f 650 625 520
f 520 625 495
f 776 753 650
f 650 753 625
f 776 568 753
f 400 375 569
f 375 400 567
f 400 520 567
f 400 522 520
f 652 520 522
f 650 520 652
f 778 650 652
f 776 650 778
f 568 776 570
f 570 776 778
f 292 269 571
f 269 292 569
f 292 400 569
f 292 402 400
f 402 701 497
f 522 402 497
f 400 402 522
f 522 497 627
f 522 627 652
f 652 627 702
f 780 652 702
f 778 652 780
f 570 778 572
f 572 778 780
f 703 157 573
f 573 157 155
f 271 292 571
f 155 271 571
f 157 271 155
f 292 271 377
f 292 377 402
f 701 402 377
f 704 782 780
f 704 780 702
f 572 780 574
f 574 780 782
f 705 15 575
f 575 15 13
f 573 13 15
f 573 15 703
f 706 784 782
f 706 782 704
f 574 782 877
f 782 904 877
f 782 784 904
f 904 576 877
f 707 575 577
f 707 705 575
f 755 784 706
f 784 755 708
f 906 784 708
f 904 784 906
f 576 904 578
f 578 904 906
f 709 577 579
f 709 707 577
f 879 906 708
f 879 710 906
f 710 578 906
f 710 580 578
f 711 579 581
f 711 709 579
f 712 72 35
f 580 712 35
f 710 712 580
f 72 582 35
f 581 14 711
f 711 14 16
f 713 16 14
f 713 14 583
f 714 74 72
f 714 72 712
f 582 72 584
f 584 72 74
f 583 156 713
f 713 156 158
f 715 158 156
f 715 156 585
f 37 74 714
f 37 716 74
f 716 584 74
f 716 586 584
f 717 585 587
f 717 715 585
f 586 718 588
f 716 718 586
f 587 270 717
f 717 270 272
f 719 272 270
f 719 270 589
f 38 720 80
f 80 590 38
f 590 718 38
f 590 588 718
f 423 721 376
f 721 589 376
f 721 719 589
f 591 423 376
f 592 36 80
f 720 592 80
f 722 592 720
f 590 80 36
f 423 378 721
f 547 723 496
f 496 723 591
f 723 378 591
f 378 423 591
f 626 677 547
f 626 547 496
f 754 803 677
f 754 677 626
f 880 724 803
f 754 880 803
f 878 880 754
f 878 592 880
f 880 592 722
f 547 498 723
f 498 547 628
f 628 547 677
f 628 677 756
f 756 677 803
f 803 724 756
f 534 511 593
f 534 594 511
f 304 285 595
f 725 393 304
f 393 285 304
f 393 391 285
f 513 534 593
f 391 513 593
f 393 513 391
f 641 594 534
f 513 641 534
f 643 641 513
f 792 769 726
f 769 643 726
f 769 641 643
f 792 596 769
f 304 595 287
f 595 727 287
f 595 597 727
f 725 304 287
f 771 792 726
f 728 914 893
f 728 893 596
f 771 728 596
f 792 771 596
f 914 598 893
f 729 597 599
f 729 727 597
f 730 916 914
f 730 914 728
f 598 914 600
f 600 914 916
f 731 599 601
f 731 729 599
f 732 918 916
f 732 916 730
f 600 916 602
f 602 916 918
f 733 601 603
f 733 731 601
f 734 920 918
f 734 918 732
f 602 918 604
f 604 918 920
f 603 286 733
f 733 286 288
f 286 605 426
f 394 286 426
f 288 286 394
f 735 394 426
f 644 736 678
f 644 678 606
f 770 644 606
f 772 644 770
f 734 772 920
f 772 894 920
f 772 770 894
f 604 920 894
f 392 426 605
f 426 392 735
f 392 514 735
f 392 512 514
f 736 514 678
f 514 642 678
f 514 512 642
f 606 678 642
f 807 483 525
f 525 483 655
f 655 483 613
f 655 613 781
f 781 613 741
f 781 741 901
f 901 741 865
f 865 808 901
f 809 143 179
f 179 143 295
f 295 143 257
f 295 257 681
f 257 361 681
f 257 363 361
f 363 807 525
f 481 363 525
f 361 363 481
f 655 611 481
f 655 481 525
f 781 739 611
f 781 611 655
f 903 682 739
f 781 903 739
f 901 903 781
f 23 65 808
f 65 901 808
f 65 903 901
f 23 810 65
f 141 683 179
f 683 809 179
f 683 811 809
f 295 255 141
f 295 141 179
f 295 681 255
f 903 863 682
f 65 21 863
f 65 863 903
f 810 165 193
f 810 193 684
f 65 810 684
f 21 65 684
f 165 812 193
f 813 1 55
f 685 55 1
f 811 685 1
f 683 685 811
f 195 686 684
f 195 684 193
f 193 812 195
f 195 812 814
f 55 2 813
f 815 2 55
f 685 815 55
f 687 815 685
f 197 688 686
f 197 686 195
f 195 814 197
f 197 814 816
f 817 687 689
f 817 815 687
f 199 690 688
f 199 688 197
f 197 816 199
f 199 816 818
f 819 689 691
f 819 817 689
f 201 692 690
f 201 690 199
f 199 818 201
f 201 818 820
f 691 142 819
f 819 142 144
f 821 144 142
f 821 142 693
f 692 201 166
f 822 692 166
f 694 692 822
f 201 820 166
f 693 256 821
f 821 256 258
f 823 258 256
f 823 256 695
f 694 824 696
f 822 824 694
f 825 695 697
f 825 823 695
f 24 826 698
f 24 698 22
f 22 696 24
f 24 696 824
f 697 362 825
f 825 362 364
f 482 545 827
f 364 482 827
f 362 482 364
f 699 545 482
f 740 801 700
f 866 828 801
f 740 866 801
f 864 866 740
f 864 698 866
f 866 698 826
f 545 484 827
f 699 612 545
f 612 484 545
f 612 614 484
f 801 742 700
f 742 612 700
f 742 614 612
f 801 828 742
f 524 497 701
f 654 627 524
f 524 627 497
f 654 702 627
f 829 159 703
f 703 159 157
f 159 271 157
f 273 271 159
f 273 377 271
f 379 377 273
f 499 524 701
f 377 499 701
f 379 499 377
f 524 499 830
f 656 524 830
f 654 524 656
f 702 654 704
f 704 654 656
f 831 17 705
f 705 17 15
f 703 15 17
f 703 17 829
f 629 656 830
f 629 832 656
f 832 704 656
f 832 706 704
f 833 705 707
f 833 831 705
f 834 786 755
f 706 834 755
f 832 834 706
f 786 708 755
f 835 707 709
f 835 833 707
f 757 786 834
f 836 908 879
f 836 879 708
f 757 836 708
f 786 757 708
f 908 710 879
f 837 709 711
f 837 835 709
f 881 908 836
f 881 838 908
f 838 710 908
f 838 712 710
f 711 16 837
f 837 16 18
f 839 18 16
f 839 16 713
f 712 840 714
f 838 840 712
f 713 158 839
f 839 158 160
f 841 160 158
f 841 158 715
f 842 76 37
f 714 842 37
f 840 842 714
f 76 716 37
f 843 715 717
f 843 841 715
f 39 76 842
f 39 844 76
f 844 716 76
f 844 718 716
f 717 272 843
f 843 272 274
f 845 274 272
f 845 272 719
f 38 81 720
f 38 718 81
f 718 846 81
f 718 844 846
f 847 719 721
f 847 845 719
f 83 722 720
f 83 720 81
f 81 846 83
f 83 846 848
f 425 849 378
f 849 721 378
f 849 847 721
f 723 425 378
f 880 921 724
f 83 40 722
f 722 40 880
f 40 850 880
f 850 921 880
f 83 848 40
f 425 380 849
f 723 498 425
f 498 380 425
f 498 500 380
f 628 679 851
f 500 628 851
f 498 628 500
f 758 852 679
f 628 758 679
f 756 758 628
f 921 882 724
f 882 756 724
f 882 758 756
f 921 850 882
f 679 630 851
f 679 852 630
f 414 393 725
f 536 513 414
f 414 513 393
f 666 643 536
f 536 643 513
f 666 726 643
f 306 287 727
f 395 414 725
f 395 725 287
f 853 395 287
f 306 853 287
f 414 395 515
f 414 515 536
f 536 515 645
f 536 645 666
f 854 794 771
f 854 771 726
f 645 854 726
f 666 645 726
f 794 728 771
f 729 308 727
f 727 308 306
f 853 306 308
f 853 308 855
f 856 796 794
f 856 794 854
f 728 794 730
f 730 794 796
f 731 310 729
f 729 310 308
f 855 308 310
f 855 310 857
f 858 798 796
f 858 796 856
f 730 796 732
f 732 796 798
f 733 312 731
f 731 312 310
f 857 310 312
f 857 312 859
f 860 800 798
f 860 798 858
f 732 798 734
f 734 798 800
f 288 312 733
f 312 288 859
f 288 396 859
f 288 394 396
f 394 735 548
f 516 394 548
f 396 394 516
f 516 548 736
f 644 516 736
f 646 516 644
f 860 646 800
f 646 772 800
f 646 644 772
f 734 800 772
f 514 548 735
f 736 548 514
f 925 485 521
f 521 485 651
f 651 485 615
f 651 615 777
f 777 615 743
f 777 743 897
f 897 743 867
f 867 926 897
f 927 365 401
f 925 521 365
f 521 401 365
f 521 523 401
f 521 653 523
f 521 651 653
f 651 779 653
f 651 777 779
f 777 899 779
f 777 897 899
f 897 926 899
f 899 926 928
f 929 145 177
f 177 145 293
f 293 145 259
f 927 401 259
f 401 293 259
f 401 403 293
f 523 483 807
f 403 523 807
f 401 523 403
f 653 613 483
f 653 483 523
f 779 741 613
f 779 613 653
f 899 865 741
f 899 741 779
f 928 25 63
f 928 63 808
f 899 928 808
f 865 899 808
f 25 930 63
f 931 3 51
f 929 177 3
f 3 177 51
f 177 143 51
f 143 809 51
f 293 257 143
f 293 143 177
f 403 363 257
f 403 257 293
f 403 807 363
f 63 23 808
f 930 167 191
f 930 191 810
f 63 930 810
f 23 63 810
f 167 932 191
f 53 933 51
f 51 933 931
f 51 809 811
f 51 811 53
f 191 165 810
f 191 932 165
f 932 812 165
f 932 934 812
f 1 813 53
f 813 933 53
f 813 935 933
f 53 811 1
f 812 936 814
f 934 936 812
f 57 937 2
f 937 813 2
f 937 935 813
f 815 57 2
f 814 938 816
f 936 938 814
f 57 4 937
f 939 4 57
f 815 939 57
f 817 939 815
f 816 940 818
f 938 940 816
f 941 817 819
f 941 939 817
f 818 942 820
f 940 942 818
f 819 144 941
f 941 144 146
f 943 146 144
f 943 144 821
f 168 944 822
f 168 822 166
f 166 820 168
f 168 820 942
f 821 258 943
f 943 258 260
f 945 260 258
f 945 258 823
f 822 946 824
f 944 946 822
f 947 823 825
f 947 945 823
f 26 948 826
f 26 826 24
f 24 824 26
f 26 824 946
f 825 364 947
f 947 364 366
f 949 366 364
f 949 364 827
f 868 950 828
f 868 828 866
f 866 826 868
f 868 826 948
f 827 484 949
f 949 484 486
f 614 486 484
f 614 616 486
f 742 616 614
f 742 744 616
f 742 828 744
f 744 828 950
f 178 159 829
f 951 275 178
f 275 159 178
f 275 273 159
f 275 379 273
f 381 379 275
f 526 499 952
f 499 381 952
f 499 379 381
f 526 830 499
f 953 19 831
f 831 19 17
f 161 178 829
f 17 161 829
f 19 161 17
f 951 178 161
f 501 526 952
f 629 830 526
f 501 629 526
f 631 629 501
f 631 954 629
f 629 954 832
f 955 831 833
f 955 953 831
f 832 956 834
f 954 956 832
f 957 833 835
f 957 955 833
f 958 788 757
f 834 958 757
f 956 958 834
f 788 836 757
f 959 835 837
f 959 957 835
f 759 788 958
f 960 910 881
f 960 881 836
f 759 960 836
f 788 759 836
f 910 838 881
f 837 18 959
f 959 18 20
f 961 20 18
f 961 18 839
f 883 910 960
f 883 962 910
f 962 838 910
f 962 840 838
f 839 160 961
f 961 160 162
f 963 162 160
f 963 160 841
f 840 964 842
f 962 964 840
f 965 841 843
f 965 963 841
f 39 842 964
f 39 964 41
f 41 966 39
f 39 966 844
f 843 274 965
f 965 274 276
f 967 276 274
f 967 274 845
f 844 968 846
f 966 968 844
f 969 845 847
f 969 967 845
f 846 970 848
f 968 970 846
f 971 847 849
f 971 969 847
f 40 85 850
f 40 848 85
f 848 972 85
f 848 970 972
f 849 380 971
f 971 380 382
f 500 549 973
f 382 500 973
f 380 500 382
f 851 549 500
f 758 805 852
f 884 974 805
f 758 884 805
f 882 884 758
f 85 42 850
f 42 882 850
f 42 884 882
f 85 972 42
f 549 502 973
f 851 630 549
f 630 502 549
f 630 632 502
f 805 760 852
f 760 630 852
f 760 632 630
f 805 974 760
f 416 395 853
f 538 515 416
f 416 515 395
f 668 645 538
f 538 645 515
f 668 854 645
f 855 418 853
f 853 418 416
f 540 416 418
f 538 416 540
f 670 538 540
f 668 538 670
f 854 668 856
f 856 668 670
f 857 420 855
f 855 420 418
f 542 418 420
f 540 418 542
f 672 540 542
f 670 540 672
f 856 670 858
f 858 670 672
f 859 424 857
f 857 424 420
f 544 420 424
f 542 420 544
f 674 542 544
f 672 542 674
f 858 672 860
f 860 672 674
f 396 424 859
f 516 544 396
f 396 544 424
f 646 674 516
f 516 674 544
f 860 674 646
f 87 487 519
f 519 487 649
f 649 487 617
f 649 617 775
f 775 617 745
f 745 88 775
f 89 367 399
f 87 519 367
f 367 519 399
f 519 485 399
f 485 925 399
f 649 615 485
f 649 485 519
f 775 743 615
f 775 615 649
f 743 775 88
f 869 743 88
f 867 743 869
f 926 867 59
f 867 27 59
f 867 869 27
f 27 90 59
f 91 261 291
f 89 399 261
f 261 399 291
f 399 365 291
f 365 927 291
f 399 925 365
f 61 928 926
f 61 926 59
f 59 90 61
f 61 90 92
f 93 5 49
f 49 5 929
f 5 145 929
f 5 147 145
f 147 91 291
f 259 147 291
f 145 147 259
f 291 927 259
f 61 25 928
f 61 92 25
f 92 930 25
f 92 94 930
f 3 931 49
f 931 93 49
f 931 95 93
f 49 929 3
f 167 930 94
f 167 94 169
f 169 96 167
f 167 96 932
f 97 931 933
f 97 95 931
f 932 98 934
f 96 98 932
f 99 933 935
f 99 97 933
f 934 100 936
f 98 100 934
f 101 935 937
f 101 99 935
f 936 102 938
f 100 102 936
f 937 4 101
f 101 4 6
f 103 6 4
f 103 4 939
f 938 104 940
f 102 104 938
f 148 103 190
f 103 941 190
f 103 939 941
f 105 148 190
f 940 106 942
f 104 106 940
f 146 190 941
f 105 190 146
f 943 105 146
f 107 105 943
f 170 108 944
f 170 944 168
f 168 942 170
f 170 942 106
f 943 260 107
f 107 260 262
f 109 262 260
f 109 260 945
f 944 110 946
f 108 110 944
f 111 945 947
f 111 109 945
f 28 112 948
f 28 948 26
f 26 946 28
f 28 946 110
f 947 366 111
f 111 366 368
f 113 368 366
f 113 366 949
f 870 114 950
f 870 950 868
f 868 948 870
f 870 948 112
f 949 486 113
f 113 486 488
f 616 488 486
f 616 618 488
f 744 618 616
f 744 746 618
f 744 950 746
f 746 950 114
f 294 275 951
f 404 381 294
f 294 381 275
f 404 952 381
f 52 19 953
f 115 163 52
f 163 19 52
f 163 161 19
f 277 294 951
f 161 277 951
f 163 277 161
f 294 277 383
f 294 383 404
f 501 952 404
f 383 501 404
f 503 501 383
f 658 631 116
f 631 503 116
f 631 501 503
f 658 954 631
f 955 54 953
f 953 54 52
f 115 52 54
f 115 54 117
f 118 660 658
f 118 658 116
f 954 658 956
f 956 658 660
f 957 56 955
f 955 56 54
f 117 54 56
f 117 56 119
f 633 660 118
f 633 120 660
f 120 956 660
f 120 958 956
f 959 58 957
f 957 58 56
f 119 56 58
f 119 58 121
f 122 790 759
f 958 122 759
f 120 122 958
f 790 960 759
f 20 58 959
f 121 58 20
f 961 121 20
f 123 121 961
f 761 790 122
f 124 912 883
f 124 883 960
f 761 124 960
f 790 761 960
f 912 962 883
f 961 162 123
f 123 162 164
f 125 164 162
f 125 162 963
f 885 912 124
f 885 126 912
f 126 962 912
f 126 964 962
f 127 963 965
f 127 125 963
f 41 964 126
f 41 126 43
f 43 128 41
f 41 128 966
f 309 129 276
f 129 965 276
f 129 127 965
f 967 309 276
f 966 130 968
f 128 130 966
f 309 278 129
f 131 278 309
f 967 131 309
f 969 131 967
f 968 132 970
f 130 132 968
f 133 969 971
f 133 131 969
f 970 134 972
f 132 134 970
f 971 382 133
f 133 382 384
f 135 384 382
f 135 382 973
f 884 923 974
f 44 136 923
f 884 44 923
f 42 44 884
f 42 972 44
f 44 972 134
f 973 502 135
f 135 502 504
f 632 504 502
f 632 634 504
f 760 634 632
f 760 762 634
f 923 886 974
f 886 760 974
f 886 762 760
f 923 136 886
