# Converted from NanoShaper .vert/.face
v -13.264000 0.039000 -12.266000
v -11.576000 0.039000 -12.266000
v -13.622000 0.039000 -11.766000
v -11.158000 0.039000 -11.766000
v -13.714000 0.039000 -11.266000
v -11.045000 0.039000 -11.266000
v -13.605000 0.039000 -10.766000
v -10.978000 0.039000 -10.766000
v -13.217000 0.039000 -10.266000
v -11.123000 0.039000 -10.266000
v -13.277000 4.039000 -12.766000
v -11.524000 4.039000 -12.766000
v -13.679000 4.039000 -12.266000
v -10.630000 4.039000 -12.266000
v -13.840000 4.039000 -11.766000
v -10.463000 4.039000 -11.766000
v -13.910000 4.039000 -11.266000
v -10.309000 4.039000 -11.266000
v -13.805000 4.039000 -10.766000
v -10.194000 4.039000 -10.766000
v -13.488000 4.039000 -10.266000
v -10.274000 4.039000 -10.266000
v -13.194000 4.039000 -9.766000
v -10.596000 4.039000 -9.766000
v -13.036000 4.039000 -9.266000
v -10.925000 4.039000 -9.266000
v -12.894000 4.039000 -8.766000
v -11.112000 4.039000 -8.766000
v -13.711000 0.039000 -11.369000
v -13.711000 0.039000 -11.203000
v -13.211000 0.039000 -12.310000
v -13.211000 0.039000 -10.263000
v -12.711000 0.039000 -12.546000
v -12.711000 0.039000 -9.949000
v -12.211000 0.039000 -12.562000
v -12.211000 0.039000 -9.797000
v -11.711000 0.039000 -12.368000
v -11.711000 0.039000 -9.819000
v -11.211000 0.039000 -11.863000
v -11.211000 0.039000 -10.147000
v -13.711000 4.039000 -12.190000
v -13.711000 4.039000 -10.579000
v -13.211000 4.039000 -12.813000
v -13.211000 4.039000 -9.804000
v -12.711000 4.039000 -13.010000
v -12.711000 4.039000 -8.531000
v -12.211000 4.039000 -12.997000
v -12.211000 4.039000 -8.267000
v -11.711000 4.039000 -12.822000
v -11.711000 4.039000 -8.289000
v -11.211000 4.039000 -12.699000
v -11.211000 4.039000 -8.622000
v -10.711000 4.039000 -12.378000
v -10.711000 4.039000 -9.624000
v -10.211000 4.039000 -10.940000
v -10.211000 4.039000 -10.501000
v -13.211000 2.927000 -12.766000
v -13.211000 4.128000 -12.766000
v -12.711000 2.559000 -12.766000
v -12.711000 4.437000 -12.766000
v -12.211000 2.349000 -12.766000
v -12.211000 4.419000 -12.766000
v -11.711000 1.999000 -12.766000
v -11.711000 4.120000 -12.766000
v -11.211000 2.134000 -12.766000
v -11.211000 3.967000 -12.766000
v -10.711000 2.508000 -12.766000
v -10.711000 3.613000 -12.766000
v -13.211000 1.692000 -8.766000
v -13.211000 3.580000 -8.766000
v -12.711000 0.845000 -8.766000
v -12.711000 4.181000 -8.766000
v -12.211000 0.571000 -8.766000
v -12.211000 4.372000 -8.766000
v -11.711000 0.589000 -8.766000
v -11.711000 4.356000 -8.766000
v -11.211000 0.913000 -8.766000
v -11.211000 4.122000 -8.766000
v -10.711000 1.678000 -8.766000
v -10.711000 3.281000 -8.766000
v -13.420000 0.539000 -12.266000
v -11.123000 0.539000 -12.266000
v -13.735000 0.539000 -11.766000
v -10.786000 0.539000 -11.766000
v -13.820000 0.539000 -11.266000
v -10.700000 0.539000 -11.266000
v -13.720000 0.539000 -10.766000
v -10.640000 0.539000 -10.766000
v -13.408000 0.539000 -10.266000
v -10.744000 0.539000 -10.266000
v -13.083000 0.539000 -9.766000
v -10.975000 0.539000 -9.766000
v -12.834000 0.539000 -9.266000
v -11.160000 0.539000 -9.266000
v -13.403000 4.539000 -12.266000
v -11.537000 4.539000 -12.266000
v -13.739000 4.539000 -11.766000
v -11.135000 4.539000 -11.766000
v -13.825000 4.539000 -11.266000
v -10.667000 4.539000 -11.266000
v -13.713000 4.539000 -10.766000
v -10.507000 4.539000 -10.766000
v -13.325000 4.539000 -10.266000
v -10.614000 4.539000 -10.266000
v -12.655000 4.539000 -9.766000
v -11.167000 4.539000 -9.766000
v -13.711000 0.539000 -11.827000
v -13.711000 0.539000 -10.745000
v -13.211000 0.539000 -12.441000
v -13.211000 0.539000 -9.978000
v -12.711000 0.539000 -12.655000
v -12.711000 0.539000 -9.095000
v -12.211000 0.539000 -12.670000
v -12.211000 0.539000 -8.801000
v -11.711000 0.539000 -12.576000
v -11.711000 0.539000 -8.820000
v -11.211000 0.539000 -12.341000
v -11.211000 0.539000 -9.184000
v -10.711000 0.539000 -11.457000
v -10.711000 0.539000 -10.350000
v -13.711000 4.539000 -11.833000
v -13.711000 4.539000 -10.763000
v -13.211000 4.539000 -12.433000
v -13.211000 4.539000 -10.176000
v -12.711000 4.539000 -12.671000
v -12.711000 4.539000 -9.804000
v -12.211000 4.539000 -12.653000
v -12.211000 4.539000 -9.562000
v -11.711000 4.539000 -12.379000
v -11.711000 4.539000 -9.560000
v -11.211000 4.539000 -11.886000
v -11.211000 4.539000 -9.744000
v -10.711000 4.539000 -11.330000
v -10.711000 4.539000 -10.112000
v -13.711000 3.098000 -12.266000
v -13.711000 3.957000 -12.266000
v -13.211000 -0.037000 -12.266000
v -13.211000 4.786000 -12.266000
v -12.711000 -0.382000 -12.266000
v -12.711000 5.048000 -12.266000
v -12.211000 -0.403000 -12.266000
v -12.211000 5.023000 -12.266000
v -11.711000 -0.130000 -12.266000
v -11.711000 4.685000 -12.266000
v -11.211000 0.413000 -12.266000
v -11.211000 4.351000 -12.266000
v -10.711000 1.909000 -12.266000
v -10.711000 4.104000 -12.266000
v -10.211000 2.792000 -12.266000
v -10.211000 3.329000 -12.266000
v -12.711000 1.447000 -8.266000
v -12.711000 3.756000 -8.266000
v -12.211000 1.115000 -8.266000
v -12.211000 4.038000 -8.266000
v -11.711000 1.113000 -8.266000
v -11.711000 4.015000 -8.266000
v -11.211000 1.442000 -8.266000
v -11.211000 3.656000 -8.266000
v -13.422000 1.039000 -12.266000
v -10.979000 1.039000 -12.266000
v -13.753000 1.039000 -11.766000
v -10.673000 1.039000 -11.766000
v -13.848000 1.039000 -11.266000
v -10.589000 1.039000 -11.266000
v -13.756000 1.039000 -10.766000
v -10.541000 1.039000 -10.766000
v -13.482000 1.039000 -10.266000
v -10.600000 1.039000 -10.266000
v -13.317000 1.039000 -9.766000
v -10.689000 1.039000 -9.766000
v -13.209000 1.039000 -9.266000
v -10.785000 1.039000 -9.266000
v -12.870000 1.039000 -8.766000
v -11.095000 1.039000 -8.766000
v -12.754000 5.039000 -12.266000
v -12.267000 5.039000 -12.266000
v -13.392000 5.039000 -11.766000
v -11.629000 5.039000 -11.766000
v -13.509000 5.039000 -11.266000
v -11.490000 5.039000 -11.266000
v -13.356000 5.039000 -10.766000
v -11.547000 5.039000 -10.766000
v -13.711000 1.039000 -11.862000
v -13.711000 1.039000 -10.664000
v -13.211000 1.039000 -12.435000
v -13.211000 1.039000 -9.272000
v -12.711000 1.039000 -12.639000
v -12.711000 1.039000 -8.619000
v -12.211000 1.039000 -12.694000
v -12.211000 1.039000 -8.340000
v -11.711000 1.039000 -12.679000
v -11.711000 1.039000 -8.339000
v -11.211000 1.039000 -12.465000
v -11.211000 1.039000 -8.640000
v -10.711000 1.039000 -11.864000
v -10.711000 1.039000 -9.540000
v -13.211000 5.039000 -12.009000
v -13.211000 5.039000 -10.587000
v -12.711000 5.039000 -12.276000
v -12.711000 5.039000 -10.320000
v -12.211000 5.039000 -12.251000
v -12.211000 5.039000 -10.344000
v -11.711000 5.039000 -11.897000
v -11.711000 5.039000 -10.576000
v -13.711000 0.323000 -11.766000
v -13.711000 4.603000 -11.766000
v -13.211000 -0.476000 -11.766000
v -13.211000 5.175000 -11.766000
v -12.711000 -0.708000 -11.766000
v -12.711000 5.361000 -11.766000
v -12.211000 -0.724000 -11.766000
v -12.211000 5.342000 -11.766000
v -11.711000 -0.533000 -11.766000
v -11.711000 5.107000 -11.766000
v -11.211000 -0.017000 -11.766000
v -11.211000 4.598000 -11.766000
v -10.711000 0.767000 -11.766000
v -10.711000 4.273000 -11.766000
v -10.211000 2.256000 -11.766000
v -10.211000 3.656000 -11.766000
v -13.476000 1.539000 -12.266000
v -10.886000 1.539000 -12.266000
v -13.811000 1.539000 -11.766000
v -10.539000 1.539000 -11.766000
v -13.907000 1.539000 -11.266000
v -10.438000 1.539000 -11.266000
v -13.819000 1.539000 -10.766000
v -10.472000 1.539000 -10.766000
v -13.551000 1.539000 -10.266000
v -10.510000 1.539000 -10.266000
v -13.405000 1.539000 -9.766000
v -10.580000 1.539000 -9.766000
v -13.320000 1.539000 -9.266000
v -10.640000 1.539000 -9.266000
v -13.159000 1.539000 -8.766000
v -10.760000 1.539000 -8.766000
v -12.775000 1.539000 -8.266000
v -11.144000 1.539000 -8.266000
v -13.711000 1.539000 -11.970000
v -13.711000 1.539000 -10.542000
v -13.211000 1.539000 -12.466000
v -13.211000 1.539000 -8.907000
v -12.711000 1.539000 -12.640000
v -12.711000 1.539000 -8.219000
v -12.211000 1.539000 -12.666000
v -12.211000 1.539000 -8.006000
v -11.711000 1.539000 -12.681000
v -11.711000 1.539000 -8.005000
v -11.211000 1.539000 -12.519000
v -11.211000 1.539000 -8.217000
v -10.711000 1.539000 -12.066000
v -10.711000 1.539000 -8.896000
v -13.711000 0.032000 -11.266000
v -13.711000 4.776000 -11.266000
v -13.211000 -0.581000 -11.266000
v -13.211000 5.269000 -11.266000
v -12.711000 -0.795000 -11.266000
v -12.711000 5.442000 -11.266000
v -12.211000 -0.810000 -11.266000
v -12.211000 5.425000 -11.266000
v -11.711000 -0.632000 -11.266000
v -11.711000 5.206000 -11.266000
v -11.211000 -0.144000 -11.266000
v -11.211000 4.858000 -11.266000
v -10.711000 0.511000 -11.266000
v -10.711000 4.575000 -11.266000
v -10.211000 1.950000 -11.266000
v -10.211000 3.758000 -11.266000
v -11.846000 2.039000 -12.766000
v -11.441000 2.039000 -12.766000
v -13.450000 2.039000 -12.266000
v -10.614000 2.039000 -12.266000
v -13.795000 2.039000 -11.766000
v -10.275000 2.039000 -11.766000
v -13.898000 2.039000 -11.266000
v -10.176000 2.039000 -11.266000
v -13.815000 2.039000 -10.766000
v -10.275000 2.039000 -10.766000
v -13.542000 2.039000 -10.266000
v -10.443000 2.039000 -10.266000
v -13.372000 2.039000 -9.766000
v -10.526000 2.039000 -9.766000
v -13.360000 2.039000 -9.266000
v -10.560000 2.039000 -9.266000
v -13.260000 2.039000 -8.766000
v -10.661000 2.039000 -8.766000
v -12.920000 2.039000 -8.266000
v -11.005000 2.039000 -8.266000
v -13.711000 2.039000 -11.938000
v -13.711000 2.039000 -10.542000
v -13.211000 2.039000 -12.444000
v -13.211000 2.039000 -8.658000
v -12.711000 2.039000 -12.627000
v -12.711000 2.039000 -8.106000
v -12.211000 2.039000 -12.692000
v -12.211000 2.039000 -7.912000
v -11.711000 2.039000 -12.780000
v -11.711000 2.039000 -7.913000
v -11.211000 2.039000 -12.710000
v -11.211000 2.039000 -8.107000
v -10.711000 2.039000 -12.368000
v -10.711000 2.039000 -8.656000
v -10.211000 2.039000 -11.569000
v -10.211000 2.039000 -10.964000
v -13.711000 0.419000 -10.766000
v -13.711000 4.542000 -10.766000
v -13.211000 -0.458000 -10.766000
v -13.211000 5.146000 -10.766000
v -12.711000 -0.693000 -10.766000
v -12.711000 5.337000 -10.766000
v -12.211000 -0.709000 -10.766000
v -12.211000 5.317000 -10.766000
v -11.711000 -0.515000 -10.766000
v -11.711000 5.107000 -10.766000
v -11.211000 -0.144000 -10.766000
v -11.211000 4.931000 -10.766000
v -10.711000 0.386000 -10.766000
v -10.711000 4.712000 -10.766000
v -10.211000 2.246000 -10.766000
v -10.211000 4.085000 -10.766000
v -12.651000 2.539000 -12.766000
v -10.690000 2.539000 -12.766000
v -13.509000 2.539000 -12.266000
v -10.293000 2.539000 -12.266000
v -13.814000 2.539000 -11.766000
v -10.156000 2.539000 -11.766000
v -13.907000 2.539000 -11.266000
v -10.094000 2.539000 -11.266000
v -13.815000 2.539000 -10.766000
v -10.137000 2.539000 -10.766000
v -13.546000 2.539000 -10.266000
v -10.238000 2.539000 -10.266000
v -13.401000 2.539000 -9.766000
v -10.453000 2.539000 -9.766000
v -13.410000 2.539000 -9.266000
v -10.599000 2.539000 -9.266000
v -13.328000 2.539000 -8.766000
v -10.692000 2.539000 -8.766000
v -13.018000 2.539000 -8.266000
v -11.002000 2.539000 -8.266000
v -13.711000 2.539000 -11.981000
v -13.711000 2.539000 -10.551000
v -13.211000 2.539000 -12.545000
v -13.211000 2.539000 -8.520000
v -12.711000 2.539000 -12.757000
v -12.711000 2.539000 -8.027000
v -12.211000 2.539000 -12.841000
v -12.211000 2.539000 -7.853000
v -11.711000 2.539000 -13.011000
v -11.711000 2.539000 -7.871000
v -11.211000 2.539000 -13.005000
v -11.211000 2.539000 -8.089000
v -10.711000 2.539000 -12.782000
v -10.711000 2.539000 -8.715000
v -10.211000 2.539000 -12.024000
v -10.211000 2.539000 -10.344000
v -13.211000 0.031000 -10.266000
v -13.211000 4.693000 -10.266000
v -12.711000 -0.340000 -10.266000
v -12.711000 4.982000 -10.266000
v -12.211000 -0.362000 -10.266000
v -12.211000 4.969000 -10.266000
v -11.711000 -0.237000 -10.266000
v -11.711000 4.898000 -10.266000
v -11.211000 -0.027000 -10.266000
v -11.211000 4.853000 -10.266000
v -10.711000 0.620000 -10.266000
v -10.711000 4.619000 -10.266000
v -10.211000 2.601000 -10.266000
v -10.211000 3.824000 -10.266000
v -13.291000 3.039000 -12.766000
v -10.533000 3.039000 -12.766000
v -13.689000 3.039000 -12.266000
v -10.184000 3.039000 -12.266000
v -13.834000 3.039000 -11.766000
v -10.078000 3.039000 -11.766000
v -13.898000 3.039000 -11.266000
v -10.097000 3.039000 -11.266000
v -13.796000 3.039000 -10.766000
v -10.046000 3.039000 -10.766000
v -13.525000 3.039000 -10.266000
v -10.121000 3.039000 -10.266000
v -13.392000 3.039000 -9.766000
v -10.398000 3.039000 -9.766000
v -13.403000 3.039000 -9.266000
v -10.588000 3.039000 -9.266000
v -13.309000 3.039000 -8.766000
v -10.697000 3.039000 -8.766000
v -12.980000 3.039000 -8.266000
v -11.026000 3.039000 -8.266000
v -13.711000 3.039000 -12.213000
v -13.711000 3.039000 -10.593000
v -13.211000 3.039000 -12.823000
v -13.211000 3.039000 -8.563000
v -12.711000 3.039000 -13.019000
v -12.711000 3.039000 -8.062000
v -12.211000 3.039000 -13.040000
v -12.211000 3.039000 -7.885000
v -11.711000 3.039000 -13.114000
v -11.711000 3.039000 -7.900000
v -11.211000 3.039000 -13.108000
v -11.211000 3.039000 -8.115000
v -10.711000 3.039000 -12.905000
v -10.711000 3.039000 -8.730000
v -10.211000 3.039000 -12.330000
v -10.211000 3.039000 -10.060000
v -13.211000 0.759000 -9.766000
v -13.211000 4.005000 -9.766000
v -12.711000 0.196000 -9.766000
v -12.711000 4.513000 -9.766000
v -12.211000 0.056000 -9.766000
v -12.211000 4.616000 -9.766000
v -11.711000 0.071000 -9.766000
v -11.711000 4.621000 -9.766000
v -11.211000 0.307000 -9.766000
v -11.211000 4.555000 -9.766000
v -10.711000 0.987000 -9.766000
v -10.711000 4.210000 -9.766000
v -13.231000 -0.461000 -11.766000
v -11.611000 -0.461000 -11.766000
v -13.362000 -0.461000 -11.266000
v -11.479000 -0.461000 -11.266000
v -13.206000 -0.461000 -10.766000
v -11.635000 -0.461000 -10.766000
v -13.429000 3.539000 -12.766000
v -10.663000 3.539000 -12.766000
v -13.785000 3.539000 -12.266000
v -10.275000 3.539000 -12.266000
v -13.893000 3.539000 -11.766000
v -10.162000 3.539000 -11.766000
v -13.873000 3.539000 -11.266000
v -10.166000 3.539000 -11.266000
v -13.788000 3.539000 -10.766000
v -10.104000 3.539000 -10.766000
v -13.518000 3.539000 -10.266000
v -10.180000 3.539000 -10.266000
v -13.348000 3.539000 -9.766000
v -10.456000 3.539000 -9.766000
v -13.327000 3.539000 -9.266000
v -10.656000 3.539000 -9.266000
v -13.228000 3.539000 -8.766000
v -10.779000 3.539000 -8.766000
v -12.868000 3.539000 -8.266000
v -11.139000 3.539000 -8.266000
v -13.211000 -0.461000 -11.798000
v -13.211000 -0.461000 -10.774000
v -12.711000 -0.461000 -12.182000
v -12.711000 -0.461000 -10.390000
v -12.211000 -0.461000 -12.204000
v -12.211000 -0.461000 -10.368000
v -11.711000 -0.461000 -11.906000
v -11.711000 -0.461000 -10.667000
v -13.711000 3.539000 -12.416000
v -13.711000 3.539000 -10.596000
v -13.211000 3.539000 -12.927000
v -13.211000 3.539000 -8.728000
v -12.711000 3.539000 -13.108000
v -12.711000 3.539000 -8.150000
v -12.211000 3.539000 -13.096000
v -12.211000 3.539000 -7.961000
v -11.711000 3.539000 -13.044000
v -11.711000 3.539000 -7.978000
v -11.211000 3.539000 -13.022000
v -11.211000 3.539000 -8.208000
v -10.711000 3.539000 -12.803000
v -10.711000 3.539000 -8.980000
v -10.211000 3.539000 -12.091000
v -10.211000 3.539000 -10.184000
v -13.211000 1.044000 -9.266000
v -13.211000 3.792000 -9.266000
v -12.711000 0.449000 -9.266000
v -12.711000 4.307000 -9.266000
v -12.211000 0.256000 -9.266000
v -12.211000 4.475000 -9.266000
v -11.711000 0.270000 -9.266000
v -11.711000 4.464000 -9.266000
v -11.211000 0.498000 -9.266000
v -11.211000 4.281000 -9.266000
v -10.711000 1.260000 -9.266000
v -10.711000 3.696000 -9.266000
f 135 427 453
f 427 136 453
f 137 1 31
f 31 1 109
f 109 1 81
f 109 81 185
f 185 81 159
f 185 159 241
f 241 159 221
f 241 221 291
f 291 221 271
f 291 271 343
f 343 271 323
f 343 323 57
f 323 371 57
f 323 373 371
f 373 135 453
f 425 373 453
f 371 373 425
f 425 453 136
f 13 425 136
f 11 425 13
f 58 11 123
f 11 95 123
f 11 13 95
f 95 138 123
f 33 139 31
f 31 139 137
f 31 111 33
f 31 109 111
f 109 187 111
f 109 185 187
f 185 243 187
f 185 241 243
f 241 293 243
f 241 291 293
f 291 345 293
f 291 343 345
f 343 57 59
f 343 59 345
f 125 60 58
f 125 58 123
f 175 199 138
f 199 123 138
f 199 125 123
f 175 140 199
f 35 141 33
f 33 141 139
f 33 113 35
f 33 111 113
f 111 189 113
f 111 187 189
f 187 245 189
f 187 243 245
f 243 295 245
f 243 293 295
f 345 321 61
f 295 345 61
f 293 345 295
f 345 59 321
f 127 62 60
f 127 60 125
f 142 127 176
f 127 199 176
f 127 125 199
f 199 140 176
f 37 143 35
f 35 143 141
f 35 115 37
f 35 113 115
f 113 191 115
f 113 189 191
f 189 247 191
f 189 245 247
f 295 269 63
f 247 295 63
f 245 295 247
f 295 61 269
f 129 64 62
f 129 62 127
f 127 142 129
f 129 142 144
f 37 2 143
f 2 37 145
f 37 117 145
f 37 115 117
f 115 193 117
f 115 191 193
f 191 249 193
f 191 247 249
f 247 63 270
f 299 247 270
f 249 247 299
f 65 299 270
f 12 51 66
f 129 96 64
f 64 96 12
f 96 146 12
f 146 51 12
f 129 144 96
f 117 82 145
f 82 117 160
f 160 117 193
f 160 193 222
f 222 193 249
f 222 249 147
f 249 301 147
f 249 299 301
f 299 65 67
f 299 67 301
f 53 68 66
f 53 66 51
f 51 146 53
f 53 146 148
f 301 272 147
f 67 322 301
f 322 272 301
f 322 324 272
f 372 405 149
f 324 372 149
f 322 372 324
f 428 150 405
f 372 428 405
f 426 428 372
f 53 14 68
f 14 426 68
f 14 428 426
f 53 148 14
f 405 374 149
f 405 150 374
f 292 285 69
f 344 337 292
f 292 337 285
f 394 387 344
f 344 387 337
f 456 441 394
f 394 441 387
f 456 70 441
f 188 173 71
f 151 237 188
f 237 173 188
f 237 235 173
f 287 292 69
f 235 287 69
f 237 287 235
f 292 287 339
f 292 339 344
f 344 339 389
f 344 389 394
f 394 389 443
f 394 443 456
f 152 46 27
f 152 27 70
f 443 152 70
f 456 443 70
f 46 72 27
f 73 190 71
f 71 190 188
f 151 188 190
f 151 190 153
f 154 48 46
f 154 46 152
f 72 46 74
f 74 46 48
f 75 192 73
f 73 192 190
f 153 190 192
f 153 192 155
f 156 50 48
f 156 48 154
f 74 48 76
f 76 48 50
f 77 194 75
f 75 194 192
f 155 192 194
f 155 194 157
f 158 52 50
f 158 50 156
f 76 50 78
f 78 50 52
f 174 194 77
f 194 174 157
f 174 238 157
f 174 236 238
f 236 79 302
f 288 236 302
f 238 236 288
f 288 302 354
f 288 354 340
f 340 354 404
f 340 404 390
f 390 404 80
f 442 390 80
f 444 390 442
f 158 444 52
f 444 28 52
f 444 442 28
f 78 52 28
f 286 302 79
f 338 354 286
f 286 354 302
f 388 404 338
f 338 404 354
f 80 404 388
f 205 83 107
f 107 83 183
f 183 83 161
f 183 161 239
f 239 161 223
f 239 223 289
f 289 223 273
f 289 273 341
f 341 273 325
f 341 325 391
f 391 325 375
f 391 375 135
f 375 427 135
f 375 429 427
f 136 427 41
f 427 15 41
f 427 429 15
f 41 15 121
f 121 15 97
f 97 206 121
f 207 419 445
f 445 419 137
f 419 1 137
f 419 3 1
f 3 205 107
f 81 3 107
f 1 3 81
f 183 159 81
f 183 81 107
f 239 221 159
f 239 159 183
f 289 271 221
f 289 221 239
f 341 323 271
f 341 271 289
f 391 373 323
f 391 323 341
f 391 135 373
f 41 13 136
f 121 95 13
f 121 13 41
f 206 177 197
f 206 197 138
f 121 206 138
f 95 121 138
f 177 208 197
f 447 209 445
f 445 209 207
f 445 137 139
f 445 139 447
f 197 175 138
f 197 208 175
f 208 140 175
f 208 210 140
f 449 211 447
f 447 211 209
f 447 139 141
f 447 141 449
f 176 201 142
f 176 140 201
f 140 212 201
f 140 210 212
f 451 213 449
f 449 213 211
f 449 141 143
f 449 143 451
f 203 144 142
f 203 142 201
f 201 212 203
f 203 212 214
f 451 420 213
f 39 215 2
f 2 215 143
f 215 420 143
f 420 451 143
f 145 39 2
f 96 131 146
f 203 178 144
f 144 178 96
f 178 216 96
f 216 131 96
f 203 214 178
f 39 4 215
f 145 82 39
f 82 4 39
f 82 84 4
f 160 195 217
f 84 160 217
f 82 160 84
f 222 251 195
f 222 195 160
f 147 251 222
f 146 131 98
f 218 146 98
f 148 146 218
f 131 216 98
f 195 162 217
f 162 195 224
f 224 195 251
f 147 272 251
f 272 224 251
f 272 274 224
f 324 355 219
f 274 324 219
f 272 324 274
f 149 355 324
f 428 467 150
f 16 220 467
f 428 16 467
f 14 16 428
f 14 148 16
f 16 148 218
f 355 326 219
f 149 374 355
f 374 326 355
f 374 376 326
f 467 430 150
f 430 374 150
f 430 376 374
f 467 220 430
f 244 237 151
f 294 287 244
f 244 287 237
f 346 339 294
f 294 339 287
f 396 389 346
f 346 389 339
f 458 443 396
f 396 443 389
f 458 152 443
f 153 246 151
f 151 246 244
f 296 244 246
f 294 244 296
f 348 294 296
f 346 294 348
f 398 346 348
f 396 346 398
f 460 396 398
f 458 396 460
f 152 458 154
f 154 458 460
f 155 248 153
f 153 248 246
f 298 246 248
f 296 246 298
f 350 296 298
f 348 296 350
f 400 348 350
f 398 348 400
f 462 398 400
f 460 398 462
f 154 460 156
f 156 460 462
f 157 250 155
f 155 250 248
f 300 248 250
f 298 248 300
f 352 298 300
f 350 298 352
f 402 350 352
f 400 350 402
f 464 400 402
f 462 400 464
f 156 462 158
f 158 462 464
f 238 250 157
f 288 300 238
f 238 300 250
f 340 352 288
f 288 352 300
f 390 402 340
f 340 402 352
f 444 464 390
f 390 464 402
f 158 464 444
f 253 5 29
f 29 5 205
f 5 83 205
f 5 85 83
f 85 161 83
f 163 161 85
f 163 223 161
f 225 223 163
f 225 273 223
f 275 273 225
f 275 325 273
f 327 325 275
f 327 375 325
f 377 375 327
f 377 429 375
f 431 429 377
f 431 15 429
f 17 15 431
f 17 97 15
f 99 97 17
f 99 254 97
f 97 254 206
f 255 421 207
f 207 421 419
f 421 253 29
f 3 421 29
f 419 421 3
f 29 205 3
f 177 206 254
f 177 254 179
f 179 256 177
f 177 256 208
f 257 207 209
f 257 255 207
f 208 258 210
f 256 258 208
f 259 209 211
f 259 257 209
f 210 260 212
f 258 260 210
f 261 211 213
f 261 259 211
f 212 262 214
f 260 262 212
f 213 420 261
f 261 420 422
f 263 422 420
f 263 420 215
f 180 264 216
f 180 216 178
f 178 214 180
f 180 214 262
f 215 4 263
f 263 4 6
f 84 119 265
f 6 84 265
f 4 84 6
f 217 119 84
f 98 133 218
f 98 216 133
f 216 266 133
f 216 264 266
f 119 86 265
f 217 162 119
f 162 86 119
f 162 164 86
f 224 164 162
f 224 226 164
f 274 303 267
f 226 274 267
f 224 274 226
f 219 303 274
f 18 268 220
f 18 220 16
f 133 100 218
f 100 16 218
f 100 18 16
f 133 266 100
f 303 276 267
f 219 326 303
f 326 276 303
f 326 328 276
f 376 328 326
f 376 378 328
f 430 378 376
f 430 432 378
f 430 220 432
f 432 220 268
f 30 5 253
f 305 87 30
f 87 5 30
f 87 85 5
f 87 163 85
f 165 163 87
f 165 225 163
f 227 225 165
f 227 275 225
f 277 275 227
f 277 327 275
f 329 327 277
f 329 377 327
f 379 377 329
f 379 431 377
f 433 431 379
f 433 17 431
f 19 17 433
f 19 99 17
f 101 99 19
f 101 306 99
f 99 306 254
f 446 421 255
f 7 30 253
f 7 253 421
f 307 7 421
f 446 307 421
f 305 30 7
f 179 254 306
f 179 306 181
f 181 308 179
f 179 308 256
f 446 255 423
f 255 309 423
f 255 257 309
f 307 446 423
f 256 310 258
f 308 310 256
f 311 257 259
f 311 309 257
f 258 312 260
f 310 312 258
f 313 259 261
f 313 311 259
f 260 314 262
f 312 314 260
f 261 422 313
f 313 422 424
f 315 424 422
f 315 422 263
f 182 316 264
f 182 264 180
f 180 262 182
f 182 262 314
f 263 6 315
f 315 6 8
f 317 8 6
f 317 6 265
f 264 318 266
f 316 318 264
f 265 86 317
f 317 86 88
f 164 88 86
f 164 166 88
f 226 166 164
f 226 228 166
f 226 267 304
f 278 226 304
f 228 226 278
f 319 278 304
f 18 55 268
f 102 320 55
f 18 102 55
f 100 102 18
f 100 266 102
f 102 266 318
f 276 304 267
f 304 276 319
f 276 330 319
f 276 328 330
f 378 330 328
f 378 380 330
f 432 380 378
f 432 434 380
f 55 20 268
f 20 432 268
f 20 434 432
f 55 320 20
f 108 87 305
f 184 165 108
f 108 165 87
f 240 227 184
f 184 227 165
f 290 277 240
f 240 277 227
f 342 329 290
f 290 329 277
f 392 379 342
f 342 379 329
f 454 433 392
f 392 433 379
f 42 19 454
f 454 19 433
f 122 101 42
f 42 101 19
f 122 306 101
f 357 9 307
f 307 9 7
f 89 108 305
f 7 89 305
f 9 89 7
f 108 89 167
f 108 167 184
f 184 167 229
f 184 229 240
f 240 229 279
f 240 279 290
f 290 279 331
f 290 331 342
f 342 331 381
f 342 381 392
f 392 381 435
f 392 435 454
f 454 435 21
f 454 21 42
f 42 21 103
f 42 103 122
f 358 198 181
f 358 181 306
f 103 358 306
f 122 103 306
f 198 308 181
f 448 423 309
f 307 423 448
f 359 307 448
f 357 307 359
f 360 200 198
f 360 198 358
f 308 198 310
f 310 198 200
f 311 450 309
f 309 450 448
f 359 448 450
f 359 450 361
f 362 202 200
f 362 200 360
f 310 200 312
f 312 200 202
f 313 452 311
f 311 452 450
f 361 450 452
f 361 452 363
f 364 204 202
f 364 202 362
f 312 202 314
f 314 202 204
f 424 452 313
f 363 452 424
f 315 363 424
f 365 363 315
f 316 182 204
f 364 316 204
f 366 316 364
f 314 204 182
f 315 8 365
f 365 8 10
f 8 317 120
f 90 8 120
f 10 8 90
f 367 90 120
f 316 368 318
f 366 368 316
f 88 120 317
f 120 88 367
f 88 168 367
f 88 166 168
f 228 168 166
f 228 230 168
f 278 230 228
f 278 280 230
f 278 319 356
f 332 278 356
f 280 278 332
f 369 332 356
f 22 370 56
f 22 56 320
f 102 22 320
f 104 22 102
f 102 318 104
f 104 318 368
f 330 356 319
f 356 330 369
f 330 382 369
f 330 380 382
f 434 382 380
f 434 436 382
f 370 436 56
f 436 20 56
f 436 434 20
f 320 56 20
f 32 9 357
f 110 89 32
f 32 89 9
f 407 169 110
f 169 89 110
f 169 167 89
f 169 229 167
f 231 229 169
f 231 279 229
f 281 279 231
f 281 331 279
f 333 331 281
f 333 381 331
f 383 381 333
f 383 435 381
f 437 435 383
f 44 21 408
f 21 437 408
f 21 435 437
f 124 103 44
f 44 103 21
f 124 358 103
f 359 34 357
f 357 34 32
f 34 409 91
f 110 34 91
f 32 34 110
f 407 110 91
f 23 44 408
f 44 23 410
f 126 44 410
f 124 44 126
f 358 124 360
f 360 124 126
f 361 36 359
f 359 36 34
f 409 34 36
f 409 36 411
f 105 126 410
f 105 412 126
f 412 360 126
f 412 362 360
f 363 38 361
f 361 38 36
f 411 36 38
f 411 38 413
f 362 414 364
f 412 414 362
f 365 40 363
f 363 40 38
f 413 38 40
f 413 40 415
f 364 416 366
f 414 416 364
f 10 40 365
f 40 10 415
f 10 92 415
f 10 90 92
f 417 92 90
f 417 90 367
f 106 418 134
f 134 368 106
f 368 416 106
f 368 366 416
f 367 168 417
f 417 168 170
f 230 170 168
f 230 232 170
f 280 232 230
f 280 282 232
f 332 282 280
f 332 334 282
f 332 369 406
f 384 332 406
f 334 332 384
f 384 406 468
f 384 468 438
f 438 468 370
f 22 438 370
f 24 438 22
f 418 24 134
f 24 104 134
f 24 22 104
f 368 134 104
f 382 406 369
f 436 468 382
f 382 468 406
f 370 468 436
f 186 169 407
f 469 233 186
f 233 169 186
f 233 231 169
f 233 281 231
f 283 281 233
f 283 333 281
f 335 333 283
f 335 383 333
f 385 383 335
f 385 437 383
f 439 437 385
f 439 470 437
f 437 470 408
f 471 93 409
f 409 93 91
f 171 186 407
f 91 171 407
f 93 171 91
f 469 186 171
f 23 408 470
f 23 470 25
f 25 472 23
f 23 472 410
f 473 409 411
f 473 471 409
f 474 128 105
f 410 474 105
f 472 474 410
f 128 412 105
f 475 411 413
f 475 473 411
f 476 130 128
f 476 128 474
f 412 128 414
f 414 128 130
f 477 413 415
f 477 475 413
f 478 132 130
f 478 130 476
f 414 130 416
f 416 130 132
f 415 92 477
f 477 92 94
f 92 417 196
f 172 92 196
f 94 92 172
f 479 172 196
f 26 480 54
f 132 478 26
f 132 26 54
f 106 132 54
f 418 106 54
f 416 132 106
f 170 196 417
f 196 170 479
f 170 234 479
f 170 232 234
f 282 234 232
f 282 284 234
f 334 284 282
f 334 336 284
f 384 336 334
f 384 386 336
f 438 386 384
f 438 440 386
f 480 440 54
f 440 24 54
f 440 438 24
f 418 54 24
f 57 371 393
f 393 371 455
f 455 371 425
f 455 425 43
f 43 425 11
f 11 58 43
f 395 59 393
f 393 59 57
f 393 457 395
f 393 455 457
f 455 45 457
f 455 43 45
f 43 58 45
f 45 58 60
f 61 321 347
f 59 395 321
f 395 347 321
f 395 397 347
f 395 459 397
f 395 457 459
f 457 47 459
f 457 45 47
f 45 60 47
f 47 60 62
f 63 269 297
f 61 347 269
f 347 297 269
f 347 349 297
f 347 399 349
f 347 397 399
f 397 461 399
f 397 459 461
f 459 49 461
f 459 47 49
f 47 62 49
f 49 62 64
f 297 270 63
f 270 297 65
f 297 351 65
f 297 349 351
f 349 401 351
f 349 399 401
f 399 463 401
f 399 461 463
f 66 463 12
f 463 49 12
f 463 461 49
f 49 64 12
f 353 67 351
f 351 67 65
f 351 403 353
f 351 401 403
f 401 465 403
f 401 463 465
f 463 66 465
f 465 66 68
f 353 322 67
f 322 353 372
f 372 353 403
f 372 403 426
f 426 403 465
f 465 68 426
f 242 233 469
f 69 285 242
f 285 233 242
f 285 283 233
f 285 335 283
f 337 335 285
f 337 385 335
f 387 385 337
f 387 439 385
f 441 439 387
f 441 70 439
f 439 70 470
f 112 93 471
f 71 173 112
f 173 93 112
f 173 171 93
f 235 242 469
f 171 235 469
f 173 235 171
f 69 242 235
f 25 470 70
f 25 70 27
f 27 72 25
f 25 72 472
f 473 114 471
f 471 114 112
f 71 112 114
f 71 114 73
f 472 74 474
f 72 74 472
f 475 116 473
f 473 116 114
f 73 114 116
f 73 116 75
f 474 76 476
f 74 76 474
f 477 118 475
f 475 118 116
f 75 116 118
f 75 118 77
f 476 78 478
f 76 78 476
f 94 118 477
f 118 94 77
f 94 174 77
f 94 172 174
f 172 479 252
f 236 172 252
f 174 172 236
f 79 236 252
f 442 80 466
f 442 466 480
f 26 442 480
f 28 442 26
f 26 478 28
f 28 478 78
f 234 252 479
f 252 234 79
f 234 286 79
f 234 284 286
f 336 286 284
f 336 338 286
f 386 338 336
f 386 388 338
f 80 388 466
f 388 440 466
f 388 386 440
f 480 466 440
