# Converted from NanoShaper .vert/.face
v 3.740000 11.539000 -8.266000
v 6.581000 11.539000 -8.266000
v 3.114000 11.539000 -7.766000
v 7.835000 11.539000 -7.766000
v 2.996000 11.539000 -7.266000
v 8.222000 11.539000 -7.266000
v 3.143000 11.539000 -6.766000
v 8.365000 11.539000 -6.766000
v 3.665000 11.539000 -6.266000
v 8.592000 11.539000 -6.266000
v 4.089000 11.539000 -5.766000
v 8.872000 11.539000 -5.766000
v 4.341000 11.539000 -5.266000
v 8.951000 11.539000 -5.266000
v 4.694000 11.539000 -4.766000
v 8.949000 11.539000 -4.766000
v 5.166000 11.539000 -4.266000
v 8.931000 11.539000 -4.266000
v 5.567000 11.539000 -3.766000
v 8.985000 11.539000 -3.766000
v 5.710000 11.539000 -3.266000
v 8.932000 11.539000 -3.266000
v 5.703000 11.539000 -2.766000
v 8.960000 11.539000 -2.766000
v 5.712000 11.539000 -2.266000
v 8.927000 11.539000 -2.266000
v 5.819000 11.539000 -1.766000
v 8.975000 11.539000 -1.766000
v 6.176000 11.539000 -1.266000
v 8.890000 11.539000 -1.266000
v 6.577000 11.539000 -0.766000
v 8.574000 11.539000 -0.766000
v 1.571000 15.539000 -10.266000
v 3.528000 15.539000 -10.266000
v 1.242000 15.539000 -9.766000
v 3.901000 15.539000 -9.766000
v 1.149000 15.539000 -9.266000
v 4.374000 15.539000 -9.266000
v 1.241000 15.539000 -8.766000
v 4.834000 15.539000 -8.766000
v 1.546000 15.539000 -8.266000
v 5.414000 15.539000 -8.266000
v 1.775000 15.539000 -7.766000
v 5.885000 15.539000 -7.766000
v 2.131000 15.539000 -7.266000
v 6.058000 15.539000 -7.266000
v 2.645000 15.539000 -6.766000
v 6.092000 15.539000 -6.766000
v 3.562000 15.539000 -6.266000
v 5.669000 15.539000 -6.266000
v 3.289000 11.539000 -8.004000
v 3.289000 11.539000 -6.582000
v 3.789000 11.539000 -8.278000
v 3.789000 11.539000 -6.116000
v 4.289000 11.539000 -8.418000
v 4.289000 11.539000 -5.394000
v 4.789000 11.539000 -8.673000
v 4.789000 11.539000 -4.686000
v 5.289000 11.539000 -8.719000
v 5.289000 11.539000 -4.150000
v 5.789000 11.539000 -8.706000
v 5.789000 11.539000 -1.844000
v 6.289000 11.539000 -8.434000
v 6.289000 11.539000 -1.130000
v 6.789000 11.539000 -8.160000
v 6.789000 11.539000 -0.590000
v 7.289000 11.539000 -8.018000
v 7.289000 11.539000 -0.377000
v 7.789000 11.539000 -7.801000
v 7.789000 11.539000 -0.364000
v 8.289000 11.539000 -7.077000
v 8.289000 11.539000 -0.543000
v 8.789000 11.539000 -5.958000
v 8.789000 11.539000 -1.048000
v 1.289000 15.539000 -9.874000
v 1.289000 15.539000 -8.657000
v 1.789000 15.539000 -10.441000
v 1.789000 15.539000 -7.735000
v 2.289000 15.539000 -10.641000
v 2.289000 15.539000 -7.126000
v 2.789000 15.539000 -10.645000
v 2.789000 15.539000 -6.654000
v 3.289000 15.539000 -10.454000
v 3.289000 15.539000 -6.403000
v 3.789000 15.539000 -9.930000
v 3.789000 15.539000 -6.146000
v 4.289000 15.539000 -9.332000
v 4.289000 15.539000 -5.927000
v 4.789000 15.539000 -8.814000
v 4.789000 15.539000 -5.909000
v 5.289000 15.539000 -8.369000
v 5.289000 15.539000 -6.071000
v 5.789000 15.539000 -7.916000
v 5.789000 15.539000 -6.350000
v 1.789000 15.370000 -7.766000
v 1.789000 15.749000 -7.766000
v 2.289000 13.923000 -7.766000
v 2.289000 16.696000 -7.766000
v 2.789000 12.002000 -7.766000
v 2.789000 17.212000 -7.766000
v 3.289000 11.403000 -7.766000
v 3.289000 17.402000 -7.766000
v 3.789000 11.209000 -7.766000
v 3.789000 17.397000 -7.766000
v 4.289000 11.173000 -7.766000
v 4.289000 17.196000 -7.766000
v 4.789000 11.004000 -7.766000
v 4.789000 16.658000 -7.766000
v 5.289000 10.751000 -7.766000
v 5.289000 16.168000 -7.766000
v 5.789000 10.548000 -7.766000
v 5.789000 15.637000 -7.766000
v 6.289000 10.567000 -7.766000
v 6.289000 15.117000 -7.766000
v 6.789000 10.647000 -7.766000
v 6.789000 14.657000 -7.766000
v 7.289000 10.969000 -7.766000
v 7.289000 14.152000 -7.766000
v 7.789000 11.474000 -7.766000
v 7.789000 13.754000 -7.766000
v 5.789000 11.227000 -3.766000
v 5.789000 12.872000 -3.766000
v 6.289000 10.783000 -3.766000
v 6.289000 13.291000 -3.766000
v 6.789000 10.369000 -3.766000
v 6.789000 13.720000 -3.766000
v 7.289000 10.163000 -3.766000
v 7.289000 13.929000 -3.766000
v 7.789000 10.146000 -3.766000
v 7.789000 13.940000 -3.766000
v 8.289000 10.321000 -3.766000
v 8.289000 13.758000 -3.766000
v 8.789000 10.815000 -3.766000
v 8.789000 13.243000 -3.766000
v 3.959000 12.039000 -8.766000
v 6.399000 12.039000 -8.766000
v 3.107000 12.039000 -8.266000
v 7.094000 12.039000 -8.266000
v 2.774000 12.039000 -7.766000
v 7.991000 12.039000 -7.766000
v 2.686000 12.039000 -7.266000
v 8.333000 12.039000 -7.266000
v 2.795000 12.039000 -6.766000
v 8.440000 12.039000 -6.766000
v 3.176000 12.039000 -6.266000
v 8.595000 12.039000 -6.266000
v 3.669000 12.039000 -5.766000
v 8.868000 12.039000 -5.766000
v 4.171000 12.039000 -5.266000
v 8.956000 12.039000 -5.266000
v 4.552000 12.039000 -4.766000
v 8.916000 12.039000 -4.766000
v 5.045000 12.039000 -4.266000
v 8.956000 12.039000 -4.266000
v 5.450000 12.039000 -3.766000
v 8.953000 12.039000 -3.766000
v 5.615000 12.039000 -3.266000
v 8.961000 12.039000 -3.266000
v 5.621000 12.039000 -2.766000
v 8.934000 12.039000 -2.766000
v 5.623000 12.039000 -2.266000
v 8.976000 12.039000 -2.266000
v 5.723000 12.039000 -1.766000
v 8.909000 12.039000 -1.766000
v 6.063000 12.039000 -1.266000
v 8.796000 12.039000 -1.266000
v 6.704000 12.039000 -0.766000
v 8.447000 12.039000 -0.766000
v 1.705000 16.039000 -10.266000
v 3.394000 16.039000 -10.266000
v 1.339000 16.039000 -9.766000
v 3.759000 16.039000 -9.766000
v 1.240000 16.039000 -9.266000
v 4.022000 16.039000 -9.266000
v 1.338000 16.039000 -8.766000
v 4.536000 16.039000 -8.766000
v 1.653000 16.039000 -8.266000
v 4.986000 16.039000 -8.266000
v 1.867000 16.039000 -7.766000
v 5.455000 16.039000 -7.766000
v 2.182000 16.039000 -7.266000
v 5.613000 16.039000 -7.266000
v 2.521000 16.039000 -6.766000
v 5.509000 16.039000 -6.766000
v 3.977000 16.039000 -6.266000
v 4.972000 16.039000 -6.266000
v 2.789000 12.039000 -7.803000
v 2.789000 12.039000 -6.783000
v 3.289000 12.039000 -8.439000
v 3.289000 12.039000 -6.174000
v 3.789000 12.039000 -8.727000
v 3.789000 12.039000 -5.673000
v 4.289000 12.039000 -8.861000
v 4.289000 12.039000 -5.110000
v 4.789000 12.039000 -9.048000
v 4.789000 12.039000 -4.557000
v 5.289000 12.039000 -9.238000
v 5.289000 12.039000 -4.009000
v 5.789000 12.039000 -9.223000
v 5.789000 12.039000 -1.625000
v 6.289000 12.039000 -8.896000
v 6.289000 12.039000 -1.091000
v 6.789000 12.039000 -8.422000
v 6.789000 12.039000 -0.698000
v 7.289000 12.039000 -8.172000
v 7.289000 12.039000 -0.467000
v 7.789000 12.039000 -7.924000
v 7.789000 12.039000 -0.453000
v 8.289000 12.039000 -7.365000
v 8.289000 12.039000 -0.646000
v 8.789000 12.039000 -5.942000
v 8.789000 12.039000 -1.247000
v 1.289000 16.039000 -9.620000
v 1.289000 16.039000 -8.911000
v 1.789000 16.039000 -10.332000
v 1.789000 16.039000 -7.979000
v 2.289000 16.039000 -10.549000
v 2.289000 16.039000 -7.086000
v 2.789000 16.039000 -10.553000
v 2.789000 16.039000 -6.551000
v 3.289000 16.039000 -10.347000
v 3.289000 16.039000 -6.361000
v 3.789000 16.039000 -9.692000
v 3.789000 16.039000 -6.292000
v 4.289000 16.039000 -9.004000
v 4.289000 16.039000 -6.223000
v 4.789000 16.039000 -8.473000
v 4.789000 16.039000 -6.211000
v 5.289000 16.039000 -7.969000
v 5.289000 16.039000 -6.469000
v 2.289000 15.041000 -7.266000
v 2.289000 16.473000 -7.266000
v 2.789000 11.816000 -7.266000
v 2.789000 17.113000 -7.266000
v 3.289000 11.306000 -7.266000
v 3.289000 17.318000 -7.266000
v 3.789000 11.126000 -7.266000
v 3.789000 17.313000 -7.266000
v 4.289000 11.046000 -7.266000
v 4.289000 17.097000 -7.266000
v 4.789000 10.818000 -7.266000
v 4.789000 16.619000 -7.266000
v 5.289000 10.401000 -7.266000
v 5.289000 16.298000 -7.266000
v 5.789000 10.205000 -7.266000
v 5.789000 15.817000 -7.266000
v 6.289000 10.219000 -7.266000
v 6.289000 15.375000 -7.266000
v 6.789000 10.279000 -7.266000
v 6.789000 15.097000 -7.266000
v 7.289000 10.480000 -7.266000
v 7.289000 14.550000 -7.266000
v 7.789000 10.909000 -7.266000
v 7.789000 14.173000 -7.266000
v 8.289000 11.726000 -7.266000
v 8.289000 13.534000 -7.266000
v 5.789000 11.373000 -3.266000
v 5.789000 12.693000 -3.266000
v 6.289000 10.792000 -3.266000
v 6.289000 13.249000 -3.266000
v 6.789000 10.308000 -3.266000
v 6.789000 13.702000 -3.266000
v 7.289000 10.130000 -3.266000
v 7.289000 13.901000 -3.266000
v 7.789000 10.143000 -3.266000
v 7.789000 13.907000 -3.266000
v 8.289000 10.354000 -3.266000
v 8.289000 13.720000 -3.266000
v 8.789000 10.903000 -3.266000
v 8.789000 13.195000 -3.266000
v 4.371000 12.539000 -9.266000
v 6.364000 12.539000 -9.266000
v 3.148000 12.539000 -8.766000
v 6.847000 12.539000 -8.766000
v 2.841000 12.539000 -8.266000
v 7.428000 12.539000 -8.266000
v 2.673000 12.539000 -7.766000
v 8.013000 12.539000 -7.766000
v 2.605000 12.539000 -7.266000
v 8.337000 12.539000 -7.266000
v 2.707000 12.539000 -6.766000
v 8.431000 12.539000 -6.766000
v 3.053000 12.539000 -6.266000
v 8.555000 12.539000 -6.266000
v 3.531000 12.539000 -5.766000
v 8.811000 12.539000 -5.766000
v 4.074000 12.539000 -5.266000
v 8.900000 12.539000 -5.266000
v 4.515000 12.539000 -4.766000
v 8.942000 12.539000 -4.766000
v 5.176000 12.539000 -4.266000
v 8.968000 12.539000 -4.266000
v 5.579000 12.539000 -3.766000
v 8.968000 12.539000 -3.766000
v 5.716000 12.539000 -3.266000
v 8.958000 12.539000 -3.266000
v 5.723000 12.539000 -2.766000
v 8.903000 12.539000 -2.766000
v 5.719000 12.539000 -2.266000
v 8.900000 12.539000 -2.266000
v 5.827000 12.539000 -1.766000
v 8.793000 12.539000 -1.766000
v 6.209000 12.539000 -1.266000
v 8.529000 12.539000 -1.266000
v 1.701000 16.539000 -9.766000
v 3.398000 16.539000 -9.766000
v 1.564000 16.539000 -9.266000
v 3.691000 16.539000 -9.266000
v 1.700000 16.539000 -8.766000
v 4.327000 16.539000 -8.766000
v 2.031000 16.539000 -8.266000
v 4.717000 16.539000 -8.266000
v 2.177000 16.539000 -7.766000
v 4.884000 16.539000 -7.766000
v 2.315000 16.539000 -7.266000
v 4.891000 16.539000 -7.266000
v 2.664000 16.539000 -6.766000
v 4.535000 16.539000 -6.766000
v 2.789000 12.539000 -8.117000
v 2.789000 12.539000 -6.600000
v 3.289000 12.539000 -8.916000
v 3.289000 12.539000 -6.051000
v 3.789000 12.539000 -9.197000
v 3.789000 12.539000 -5.553000
v 4.289000 12.539000 -9.250000
v 4.289000 12.539000 -5.050000
v 4.789000 12.539000 -9.391000
v 4.789000 12.539000 -4.544000
v 5.289000 12.539000 -9.562000
v 5.289000 12.539000 -4.165000
v 5.789000 12.539000 -9.551000
v 5.789000 12.539000 -1.865000
v 6.289000 12.539000 -9.326000
v 6.289000 12.539000 -1.207000
v 6.789000 12.539000 -8.815000
v 6.789000 12.539000 -0.985000
v 7.289000 12.539000 -8.376000
v 7.289000 12.539000 -0.778000
v 7.789000 12.539000 -7.956000
v 7.789000 12.539000 -0.769000
v 8.289000 12.539000 -7.380000
v 8.289000 12.539000 -1.014000
v 8.789000 12.539000 -5.823000
v 8.789000 12.539000 -1.756000
v 1.789000 16.539000 -9.892000
v 1.789000 16.539000 -8.639000
v 2.289000 16.539000 -10.216000
v 2.289000 16.539000 -7.339000
v 2.789000 16.539000 -10.221000
v 2.789000 16.539000 -6.669000
v 3.289000 16.539000 -9.917000
v 3.289000 16.539000 -6.461000
v 3.789000 16.539000 -9.163000
v 3.789000 16.539000 -6.466000
v 4.289000 16.539000 -8.796000
v 4.289000 16.539000 -6.628000
v 4.789000 16.539000 -8.090000
v 4.789000 16.539000 -7.024000
v 2.789000 12.057000 -6.766000
v 2.789000 13.309000 -6.766000
v 2.789000 15.336000 -6.766000
v 2.789000 16.705000 -6.766000
v 3.289000 11.427000 -6.766000
v 3.289000 16.999000 -6.766000
v 3.789000 11.230000 -6.766000
v 3.789000 16.993000 -6.766000
v 4.289000 11.089000 -6.766000
v 4.289000 16.696000 -6.766000
v 4.789000 10.741000 -6.766000
v 4.789000 16.422000 -6.766000
v 5.289000 10.286000 -6.766000
v 5.289000 16.211000 -6.766000
v 5.789000 10.107000 -6.766000
v 5.789000 15.752000 -6.766000
v 6.289000 10.119000 -6.766000
v 6.289000 15.443000 -6.766000
v 6.789000 10.160000 -6.766000
v 6.789000 15.209000 -6.766000
v 7.289000 10.219000 -6.766000
v 7.289000 14.707000 -6.766000
v 7.789000 10.440000 -6.766000
v 7.789000 14.282000 -6.766000
v 8.289000 11.194000 -6.766000
v 8.289000 13.747000 -6.766000
v 5.789000 11.348000 -2.766000
v 5.789000 12.677000 -2.766000
v 6.289000 10.803000 -2.766000
v 6.289000 13.271000 -2.766000
v 6.789000 10.322000 -2.766000
v 6.789000 13.765000 -2.766000
v 7.289000 10.117000 -2.766000
v 7.289000 13.945000 -2.766000
v 7.789000 10.109000 -2.766000
v 7.789000 13.932000 -2.766000
v 8.289000 10.294000 -2.766000
v 8.289000 13.721000 -2.766000
v 8.789000 10.817000 -2.766000
v 8.789000 13.117000 -2.766000
v 3.163000 13.039000 -9.266000
v 6.492000 13.039000 -9.266000
v 2.754000 13.039000 -8.766000
v 7.011000 13.039000 -8.766000
v 2.591000 13.039000 -8.266000
v 7.554000 13.039000 -8.266000
v 2.567000 13.039000 -7.766000
v 8.047000 13.039000 -7.766000
v 2.642000 13.039000 -7.266000
v 8.367000 13.039000 -7.266000
v 2.754000 13.039000 -6.766000
v 8.455000 13.039000 -6.766000
v 3.100000 13.039000 -6.266000
v 8.512000 13.039000 -6.266000
v 3.607000 13.039000 -5.766000
v 8.690000 13.039000 -5.766000
v 4.116000 13.039000 -5.266000
v 8.789000 13.039000 -5.266000
v 4.676000 13.039000 -4.766000
v 8.846000 13.039000 -4.766000
v 5.553000 13.039000 -4.266000
v 8.878000 13.039000 -4.266000
v 5.949000 13.039000 -3.766000
v 8.883000 13.039000 -3.766000
v 6.055000 13.039000 -3.266000
v 8.861000 13.039000 -3.266000
v 6.069000 13.039000 -2.766000
v 8.820000 13.039000 -2.766000
v 6.053000 13.039000 -2.266000
v 8.798000 13.039000 -2.266000
v 6.203000 13.039000 -1.766000
v 8.681000 13.039000 -1.766000
v 6.698000 13.039000 -1.266000
v 8.282000 13.039000 -1.266000
v 2.681000 17.039000 -8.266000
v 4.333000 17.039000 -8.266000
v 2.564000 17.039000 -7.766000
v 4.489000 17.039000 -7.766000
v 2.688000 17.039000 -7.266000
v 4.364000 17.039000 -7.266000
v 2.789000 13.039000 -8.829000
v 2.789000 13.039000 -6.688000
v 3.289000 13.039000 -9.360000
v 3.289000 13.039000 -6.106000
v 3.789000 13.039000 -9.555000
v 3.789000 13.039000 -5.615000
v 4.289000 13.039000 -9.561000
v 4.289000 13.039000 -5.121000
v 4.789000 13.039000 -9.573000
v 4.789000 13.039000 -4.678000
v 5.289000 13.039000 -9.650000
v 5.289000 13.039000 -4.428000
v 5.789000 13.039000 -9.640000
v 5.789000 13.039000 -4.039000
v 6.289000 13.039000 -9.432000
v 6.289000 13.039000 -1.644000
v 6.789000 13.039000 -8.950000
v 6.789000 13.039000 -1.205000
v 7.289000 13.039000 -8.492000
v 7.289000 13.039000 -1.016000
v 7.789000 13.039000 -7.999000
v 7.789000 13.039000 -1.034000
v 8.289000 13.039000 -7.441000
v 8.289000 13.039000 -1.272000
v 8.789000 13.039000 -5.278000
v 8.789000 13.039000 -2.148000
v 2.789000 17.039000 -8.491000
v 2.789000 17.039000 -7.122000
v 3.289000 17.039000 -8.733000
v 3.289000 17.039000 -6.808000
v 3.789000 17.039000 -8.667000
v 3.789000 17.039000 -6.814000
v 4.289000 17.039000 -8.329000
v 4.289000 17.039000 -7.152000
v 1.789000 14.928000 -10.266000
v 1.789000 16.160000 -10.266000
v 2.289000 14.601000 -10.266000
v 2.289000 16.487000 -10.266000
v 2.789000 14.595000 -10.266000
v 2.789000 16.493000 -10.266000
v 3.289000 14.902000 -10.266000
v 3.289000 16.186000 -10.266000
v 3.289000 11.878000 -6.266000
v 3.289000 13.582000 -6.266000
v 3.789000 11.456000 -6.266000
v 3.789000 15.957000 -6.266000
v 4.289000 11.196000 -6.266000
v 4.289000 16.094000 -6.266000
v 4.789000 10.818000 -6.266000
v 4.789000 16.094000 -6.266000
v 5.289000 10.333000 -6.266000
v 5.289000 15.836000 -6.266000
v 5.789000 10.150000 -6.266000
v 5.789000 15.480000 -6.266000
v 6.289000 10.143000 -6.266000
v 6.289000 15.331000 -6.266000
v 6.789000 10.110000 -6.266000
v 6.789000 15.093000 -6.266000
v 7.289000 10.115000 -6.266000
v 7.289000 14.768000 -6.266000
v 7.789000 10.308000 -6.266000
v 7.789000 14.267000 -6.266000
v 8.289000 10.723000 -6.266000
v 8.289000 13.615000 -6.266000
v 5.789000 11.370000 -2.266000
v 5.789000 12.689000 -2.266000
v 6.289000 10.780000 -2.266000
v 6.289000 13.271000 -2.266000
v 6.789000 10.292000 -2.266000
v 6.789000 13.748000 -2.266000
v 7.289000 10.114000 -2.266000
v 7.289000 13.922000 -2.266000
v 7.789000 10.127000 -2.266000
v 7.789000 13.905000 -2.266000
v 8.289000 10.340000 -2.266000
v 8.289000 13.687000 -2.266000
v 8.789000 10.922000 -2.266000
v 8.789000 13.062000 -2.266000
v 2.739000 13.539000 -9.266000
v 6.346000 13.539000 -9.266000
v 2.382000 13.539000 -8.766000
v 6.890000 13.539000 -8.766000
v 2.287000 13.539000 -8.266000
v 7.417000 13.539000 -8.266000
v 2.390000 13.539000 -7.766000
v 7.938000 13.539000 -7.766000
v 2.619000 13.539000 -7.266000
v 8.287000 13.539000 -7.266000
v 2.864000 13.539000 -6.766000
v 8.380000 13.539000 -6.766000
v 3.260000 13.539000 -6.266000
v 8.326000 13.539000 -6.266000
v 3.751000 13.539000 -5.766000
v 8.352000 13.539000 -5.766000
v 4.288000 13.539000 -5.266000
v 8.430000 13.539000 -5.266000
v 5.768000 13.539000 -4.766000
v 8.512000 13.539000 -4.766000
v 6.442000 13.539000 -4.266000
v 8.555000 13.539000 -4.266000
v 6.567000 13.539000 -3.766000
v 8.567000 13.539000 -3.766000
v 6.582000 13.539000 -3.266000
v 8.525000 13.539000 -3.266000
v 6.502000 13.539000 -2.766000
v 8.506000 13.539000 -2.766000
v 6.513000 13.539000 -2.266000
v 8.469000 13.539000 -2.266000
v 6.676000 13.539000 -1.766000
v 8.307000 13.539000 -1.766000
v 2.289000 13.539000 -8.328000
v 2.289000 13.539000 -8.217000
v 2.789000 13.539000 -9.305000
v 2.789000 13.539000 -6.917000
v 3.289000 13.539000 -9.544000
v 3.289000 13.539000 -6.242000
v 3.789000 13.539000 -9.664000
v 3.789000 13.539000 -5.739000
v 4.289000 13.539000 -9.652000
v 4.289000 13.539000 -5.266000
v 4.789000 13.539000 -9.611000
v 4.789000 13.539000 -5.019000
v 5.289000 13.539000 -9.563000
v 5.289000 13.539000 -4.836000
v 5.789000 13.539000 -9.539000
v 5.789000 13.539000 -4.761000
v 6.289000 13.539000 -9.312000
v 6.289000 13.539000 -4.477000
v 6.789000 13.539000 -8.842000
v 6.789000 13.539000 -1.626000
v 7.289000 13.539000 -8.371000
v 7.289000 13.539000 -1.350000
v 7.789000 13.539000 -7.887000
v 7.789000 13.539000 -1.375000
v 8.289000 13.539000 -7.263000
v 8.289000 13.539000 -1.740000
v 1.289000 15.199000 -9.766000
v 1.289000 15.889000 -9.766000
v 1.789000 14.481000 -9.766000
v 1.789000 16.607000 -9.766000
v 2.289000 14.249000 -9.766000
v 2.289000 16.825000 -9.766000
v 2.789000 14.084000 -9.766000
v 2.789000 16.829000 -9.766000
v 3.289000 14.018000 -9.766000
v 3.289000 16.622000 -9.766000
v 3.789000 14.213000 -9.766000
v 3.789000 15.961000 -9.766000
v 3.789000 11.875000 -5.766000
v 3.789000 13.593000 -5.766000
v 4.289000 11.331000 -5.766000
v 4.289000 14.328000 -5.766000
v 4.789000 10.788000 -5.766000
v 4.789000 14.773000 -5.766000
v 5.289000 10.293000 -5.766000
v 5.289000 14.909000 -5.766000
v 5.789000 10.118000 -5.766000
v 5.789000 15.016000 -5.766000
v 6.289000 10.128000 -5.766000
v 6.289000 14.988000 -5.766000
v 6.789000 10.128000 -5.766000
v 6.789000 14.851000 -5.766000
v 7.289000 10.128000 -5.766000
v 7.289000 14.647000 -5.766000
v 7.789000 10.192000 -5.766000
v 7.789000 14.189000 -5.766000
v 8.289000 10.397000 -5.766000
v 8.289000 13.619000 -5.766000
v 8.789000 11.028000 -5.766000
v 8.789000 12.732000 -5.766000
v 5.789000 11.621000 -1.766000
v 5.789000 12.438000 -1.766000
v 6.289000 10.905000 -1.766000
v 6.289000 13.117000 -1.766000
v 6.789000 10.385000 -1.766000
v 6.789000 13.621000 -1.766000
v 7.289000 10.178000 -1.766000
v 7.289000 13.813000 -1.766000
v 7.789000 10.166000 -1.766000
v 7.789000 13.794000 -1.766000
v 8.289000 10.345000 -1.766000
v 8.289000 13.553000 -1.766000
v 8.789000 10.851000 -1.766000
v 8.789000 12.564000 -1.766000
v 3.037000 14.039000 -9.766000
v 3.494000 14.039000 -9.766000
v 2.178000 14.039000 -9.266000
v 5.522000 14.039000 -9.266000
v 2.032000 14.039000 -8.766000
v 6.436000 14.039000 -8.766000
v 2.088000 14.039000 -8.266000
v 6.938000 14.039000 -8.266000
v 2.273000 14.039000 -7.766000
v 7.438000 14.039000 -7.766000
v 2.613000 14.039000 -7.266000
v 7.957000 14.039000 -7.266000
v 3.047000 14.039000 -6.766000
v 8.080000 14.039000 -6.766000
v 3.527000 14.039000 -6.266000
v 7.986000 14.039000 -6.266000
v 4.111000 14.039000 -5.766000
v 7.951000 14.039000 -5.766000
v 5.577000 14.039000 -5.266000
v 7.834000 14.039000 -5.266000
v 6.812000 14.039000 -4.766000
v 7.428000 14.039000 -4.766000
v 2.289000 14.039000 -9.418000
v 2.289000 14.039000 -7.734000
v 2.789000 14.039000 -9.724000
v 2.789000 14.039000 -7.071000
v 3.289000 14.039000 -9.777000
v 3.289000 14.039000 -6.515000
v 3.789000 14.039000 -9.724000
v 3.789000 14.039000 -6.005000
v 4.289000 14.039000 -9.670000
v 4.289000 14.039000 -5.634000
v 4.789000 14.039000 -9.520000
v 4.789000 14.039000 -5.389000
v 5.289000 14.039000 -9.339000
v 5.289000 14.039000 -5.330000
v 5.789000 14.039000 -9.191000
v 5.789000 14.039000 -5.188000
v 6.289000 14.039000 -8.901000
v 6.289000 14.039000 -4.963000
v 6.789000 14.039000 -8.445000
v 6.789000 14.039000 -4.772000
v 7.289000 14.039000 -7.921000
v 7.289000 14.039000 -4.725000
v 7.789000 14.039000 -7.495000
v 7.789000 14.039000 -5.181000
v 1.289000 14.935000 -9.266000
v 1.289000 16.152000 -9.266000
v 1.789000 14.363000 -9.266000
v 1.789000 16.719000 -9.266000
v 2.289000 13.949000 -9.266000
v 2.289000 16.919000 -9.266000
v 2.789000 13.479000 -9.266000
v 2.789000 16.925000 -9.266000
v 3.289000 12.880000 -9.266000
v 3.289000 16.792000 -9.266000
v 3.789000 12.605000 -9.266000
v 3.789000 16.436000 -9.266000
v 4.289000 12.556000 -9.266000
v 4.289000 15.670000 -9.266000
v 4.789000 12.346000 -9.266000
v 4.789000 14.754000 -9.266000
v 5.289000 12.068000 -9.266000
v 5.289000 14.157000 -9.266000
v 5.789000 12.082000 -9.266000
v 5.789000 13.964000 -9.266000
v 6.289000 12.425000 -9.266000
v 6.289000 13.621000 -9.266000
v 4.289000 11.673000 -5.266000
v 4.289000 13.539000 -5.266000
v 4.789000 10.952000 -5.266000
v 4.789000 13.900000 -5.266000
v 5.289000 10.415000 -5.266000
v 5.289000 13.957000 -5.266000
v 5.789000 10.223000 -5.266000
v 5.789000 14.157000 -5.266000
v 6.289000 10.205000 -5.266000
v 6.289000 14.477000 -5.266000
v 6.789000 10.140000 -5.266000
v 6.789000 14.493000 -5.266000
v 7.289000 10.111000 -5.266000
v 7.289000 14.316000 -5.266000
v 7.789000 10.114000 -5.266000
v 7.789000 14.070000 -5.266000
v 8.289000 10.303000 -5.266000
v 8.289000 13.659000 -5.266000
v 8.789000 10.837000 -5.266000
v 8.789000 13.040000 -5.266000
v 6.289000 11.232000 -1.266000
v 6.289000 12.648000 -1.266000
v 6.789000 10.497000 -1.266000
v 6.789000 13.156000 -1.266000
v 7.289000 10.267000 -1.266000
v 7.289000 13.451000 -1.266000
v 7.789000 10.253000 -1.266000
v 7.789000 13.425000 -1.266000
v 8.289000 10.445000 -1.266000
v 8.289000 13.028000 -1.266000
v 8.789000 11.043000 -1.266000
v 8.789000 12.057000 -1.266000
v 5.114000 10.539000 -7.266000
v 7.378000 10.539000 -7.266000
v 4.976000 10.539000 -6.766000
v 7.908000 10.539000 -6.766000
v 5.029000 10.539000 -6.266000
v 8.112000 10.539000 -6.266000
v 4.978000 10.539000 -5.766000
v 8.465000 10.539000 -5.766000
v 5.128000 10.539000 -5.266000
v 8.575000 10.539000 -5.266000
v 5.870000 10.539000 -4.766000
v 8.531000 10.539000 -4.766000
v 6.484000 10.539000 -4.266000
v 8.499000 10.539000 -4.266000
v 6.550000 10.539000 -3.766000
v 8.573000 10.539000 -3.766000
v 6.496000 10.539000 -3.266000
v 8.522000 10.539000 -3.266000
v 6.534000 10.539000 -2.766000
v 8.588000 10.539000 -2.766000
v 6.481000 10.539000 -2.266000
v 8.520000 10.539000 -2.266000
v 6.596000 10.539000 -1.766000
v 8.543000 10.539000 -1.766000
v 6.736000 10.539000 -1.266000
v 8.416000 10.539000 -1.266000
v 1.714000 14.539000 -9.766000
v 3.973000 14.539000 -9.766000
v 1.575000 14.539000 -9.266000
v 4.946000 14.539000 -9.266000
v 1.669000 14.539000 -8.766000
v 5.768000 14.539000 -8.766000
v 1.815000 14.539000 -8.266000
v 6.421000 14.539000 -8.266000
v 2.142000 14.539000 -7.766000
v 6.898000 14.539000 -7.766000
v 2.549000 14.539000 -7.266000
v 7.301000 14.539000 -7.266000
v 3.086000 14.539000 -6.766000
v 7.467000 14.539000 -6.766000
v 3.571000 14.539000 -6.266000
v 7.577000 14.539000 -6.266000
v 4.421000 14.539000 -5.766000
v 7.429000 14.539000 -5.766000
v 5.289000 10.539000 -7.491000
v 5.289000 10.539000 -5.067000
v 5.789000 10.539000 -7.758000
v 5.789000 10.539000 -4.795000
v 6.289000 10.539000 -7.740000
v 6.289000 10.539000 -4.540000
v 6.789000 10.539000 -7.663000
v 6.789000 10.539000 -1.184000
v 7.289000 10.539000 -7.363000
v 7.289000 10.539000 -0.823000
v 7.789000 10.539000 -6.929000
v 7.789000 10.539000 -0.803000
v 8.289000 10.539000 -6.014000
v 8.289000 10.539000 -1.093000
v 1.789000 14.539000 -9.874000
v 1.789000 14.539000 -8.341000
v 2.289000 14.539000 -10.204000
v 2.289000 14.539000 -7.549000
v 2.789000 14.539000 -10.210000
v 2.789000 14.539000 -7.078000
v 3.289000 14.539000 -10.056000
v 3.289000 14.539000 -6.582000
v 3.789000 14.539000 -9.852000
v 3.789000 14.539000 -6.083000
v 4.289000 14.539000 -9.625000
v 4.289000 14.539000 -5.820000
v 4.789000 14.539000 -9.388000
v 4.789000 14.539000 -5.683000
v 5.289000 14.539000 -8.987000
v 5.289000 14.539000 -5.621000
v 5.789000 14.539000 -8.757000
v 5.789000 14.539000 -5.464000
v 6.289000 14.539000 -8.423000
v 6.289000 14.539000 -5.324000
v 6.789000 14.539000 -7.885000
v 6.789000 14.539000 -5.309000
v 7.289000 14.539000 -7.289000
v 7.289000 14.539000 -5.587000
v 1.289000 15.196000 -8.766000
v 1.289000 15.892000 -8.766000
v 1.789000 14.367000 -8.766000
v 1.789000 16.608000 -8.766000
v 2.289000 13.699000 -8.766000
v 2.289000 16.849000 -8.766000
v 2.789000 13.000000 -8.766000
v 2.789000 16.982000 -8.766000
v 3.289000 12.388000 -8.766000
v 3.289000 17.021000 -8.766000
v 3.789000 12.076000 -8.766000
v 3.789000 16.940000 -8.766000
v 4.289000 11.904000 -8.766000
v 4.289000 16.594000 -8.766000
v 4.789000 11.633000 -8.766000
v 4.789000 15.610000 -8.766000
v 5.289000 11.589000 -8.766000
v 5.289000 15.033000 -8.766000
v 5.789000 11.603000 -8.766000
v 5.789000 14.527000 -8.766000
v 6.289000 11.921000 -8.766000
v 6.289000 14.222000 -8.766000
v 6.789000 12.457000 -8.766000
v 6.789000 13.685000 -8.766000
v 4.789000 11.405000 -4.766000
v 4.789000 13.183000 -4.766000
v 5.289000 10.858000 -4.766000
v 5.289000 13.475000 -4.766000
v 5.789000 10.564000 -4.766000
v 5.789000 13.543000 -4.766000
v 6.289000 10.409000 -4.766000
v 6.289000 13.771000 -4.766000
v 6.789000 10.218000 -4.766000
v 6.789000 14.034000 -4.766000
v 7.289000 10.153000 -4.766000
v 7.289000 14.054000 -4.766000
v 7.789000 10.157000 -4.766000
v 7.789000 13.941000 -4.766000
v 8.289000 10.348000 -4.766000
v 8.289000 13.713000 -4.766000
v 8.789000 10.885000 -4.766000
v 8.789000 13.167000 -4.766000
v 6.789000 10.935000 -0.766000
v 6.789000 12.166000 -0.766000
v 7.289000 10.593000 -0.766000
v 7.289000 12.522000 -0.766000
v 7.789000 10.574000 -0.766000
v 7.789000 12.535000 -0.766000
v 8.289000 10.850000 -0.766000
v 8.289000 12.250000 -0.766000
v 4.721000 11.039000 -7.766000
v 7.340000 11.039000 -7.766000
v 4.316000 11.039000 -7.266000
v 7.898000 11.039000 -7.266000
v 4.391000 11.039000 -6.766000
v 8.242000 11.039000 -6.766000
v 4.536000 11.039000 -6.266000
v 8.481000 11.039000 -6.266000
v 4.584000 11.039000 -5.766000
v 8.792000 11.039000 -5.766000
v 4.708000 11.039000 -5.266000
v 8.876000 11.039000 -5.266000
v 5.127000 11.039000 -4.766000
v 8.858000 11.039000 -4.766000
v 5.681000 11.039000 -4.266000
v 8.838000 11.039000 -4.266000
v 6.011000 11.039000 -3.766000
v 8.896000 11.039000 -3.766000
v 6.039000 11.039000 -3.266000
v 8.847000 11.039000 -3.266000
v 6.015000 11.039000 -2.766000
v 8.886000 11.039000 -2.766000
v 6.034000 11.039000 -2.266000
v 8.839000 11.039000 -2.266000
v 6.169000 11.039000 -1.766000
v 8.879000 11.039000 -1.766000
v 6.364000 11.039000 -1.266000
v 8.787000 11.039000 -1.266000
v 6.718000 11.039000 -0.766000
v 8.434000 11.039000 -0.766000
v 1.711000 15.039000 -10.266000
v 3.388000 15.039000 -10.266000
v 1.344000 15.039000 -9.766000
v 4.001000 15.039000 -9.766000
v 1.244000 15.039000 -9.266000
v 4.573000 15.039000 -9.266000
v 1.343000 15.039000 -8.766000
v 5.285000 15.039000 -8.766000
v 1.661000 15.039000 -8.266000
v 5.897000 15.039000 -8.266000
v 1.884000 15.039000 -7.766000
v 6.387000 15.039000 -7.766000
v 2.290000 15.039000 -7.266000
v 6.859000 15.039000 -7.266000
v 2.956000 15.039000 -6.766000
v 6.990000 15.039000 -6.766000
v 3.561000 15.039000 -6.266000
v 6.863000 15.039000 -6.266000
v 4.789000 11.039000 -7.833000
v 4.789000 11.039000 -5.136000
v 5.289000 11.039000 -8.160000
v 5.289000 11.039000 -4.590000
v 5.789000 11.039000 -8.180000
v 5.789000 11.039000 -4.165000
v 6.289000 11.039000 -8.061000
v 6.289000 11.039000 -1.467000
v 6.789000 11.039000 -8.003000
v 6.789000 11.039000 -0.709000
v 7.289000 11.039000 -7.802000
v 7.289000 11.039000 -0.476000
v 7.789000 11.039000 -7.374000
v 7.789000 11.039000 -0.462000
v 8.289000 11.039000 -6.642000
v 8.289000 11.039000 -0.657000
v 8.789000 11.039000 -5.777000
v 8.789000 11.039000 -1.271000
v 1.289000 15.039000 -9.604000
v 1.289000 15.039000 -8.927000
v 1.789000 15.039000 -10.326000
v 1.789000 15.039000 -8.016000
v 2.289000 15.039000 -10.545000
v 2.289000 15.039000 -7.268000
v 2.789000 15.039000 -10.549000
v 2.789000 15.039000 -6.930000
v 3.289000 15.039000 -10.342000
v 3.289000 15.039000 -6.518000
v 3.789000 15.039000 -9.937000
v 3.789000 15.039000 -6.069000
v 4.289000 15.039000 -9.492000
v 4.289000 15.039000 -5.852000
v 4.789000 15.039000 -9.079000
v 4.789000 15.039000 -5.821000
v 5.289000 15.039000 -8.764000
v 5.289000 15.039000 -5.819000
v 5.789000 15.039000 -8.352000
v 5.789000 15.039000 -5.786000
v 6.289000 15.039000 -7.891000
v 6.289000 15.039000 -5.816000
v 6.789000 15.039000 -7.374000
v 6.789000 15.039000 -6.151000
v 1.789000 14.615000 -8.266000
v 1.789000 16.272000 -8.266000
v 2.289000 13.536000 -8.266000
v 2.289000 16.759000 -8.266000
v 2.789000 12.669000 -8.266000
v 2.789000 17.101000 -8.266000
v 3.289000 11.803000 -8.266000
v 3.289000 17.298000 -8.266000
v 3.789000 11.527000 -8.266000
v 3.789000 17.293000 -8.266000
v 4.289000 11.430000 -8.266000
v 4.289000 17.072000 -8.266000
v 4.789000 11.275000 -8.266000
v 4.789000 16.381000 -8.266000
v 5.289000 11.148000 -8.266000
v 5.289000 15.695000 -8.266000
v 5.789000 11.131000 -8.266000
v 5.789000 15.185000 -8.266000
v 6.289000 11.335000 -8.266000
v 6.289000 14.669000 -8.266000
v 6.789000 11.787000 -8.266000
v 6.789000 14.178000 -8.266000
v 7.289000 12.317000 -8.266000
v 7.289000 13.713000 -8.266000
v 5.289000 11.357000 -4.266000
v 5.289000 12.756000 -4.266000
v 5.789000 10.980000 -4.266000
v 5.789000 13.189000 -4.266000
v 6.289000 10.660000 -4.266000
v 6.289000 13.438000 -4.266000
v 6.789000 10.346000 -4.266000
v 6.789000 13.793000 -4.266000
v 7.289000 10.173000 -4.266000
v 7.289000 13.929000 -4.266000
v 7.789000 10.178000 -4.266000
v 7.789000 13.928000 -4.266000
v 8.289000 10.377000 -4.266000
v 8.289000 13.746000 -4.266000
v 8.789000 10.928000 -4.266000
v 8.789000 13.232000 -4.266000
f 78 43 95
f 78 96 43
f 646 631 97
f 784 757 646
f 646 757 631
f 926 895 784
f 784 895 757
f 45 78 95
f 45 95 895
f 231 45 895
f 926 231 895
f 179 96 78
f 45 179 78
f 181 179 45
f 348 313 232
f 313 181 232
f 313 179 181
f 348 98 313
f 233 141 99
f 99 141 139
f 141 277 139
f 279 277 141
f 279 405 277
f 407 405 279
f 407 523 405
f 525 523 407
f 633 646 97
f 523 633 97
f 525 633 523
f 646 633 759
f 646 759 784
f 784 759 897
f 784 897 926
f 231 926 897
f 315 348 232
f 435 98 348
f 315 435 348
f 437 435 315
f 437 234 435
f 435 234 100
f 235 5 101
f 101 5 3
f 99 3 5
f 99 5 233
f 100 236 102
f 234 236 100
f 237 101 103
f 237 235 101
f 102 238 104
f 236 238 102
f 239 103 105
f 239 237 103
f 104 240 106
f 238 240 104
f 241 857 107
f 107 857 855
f 105 855 857
f 105 857 239
f 438 242 108
f 438 108 436
f 436 106 438
f 438 106 240
f 243 723 767
f 109 767 723
f 241 109 723
f 107 109 241
f 316 244 110
f 316 110 314
f 314 108 316
f 316 108 242
f 769 245 767
f 767 245 243
f 767 109 111
f 767 111 769
f 182 246 112
f 182 112 180
f 180 110 182
f 182 110 244
f 771 247 769
f 769 247 245
f 769 111 113
f 769 113 771
f 46 248 114
f 46 114 44
f 44 112 46
f 46 112 246
f 773 249 771
f 771 249 247
f 771 113 115
f 771 115 773
f 896 943 116
f 896 114 943
f 114 250 943
f 114 248 250
f 775 251 773
f 773 251 249
f 773 115 117
f 773 117 775
f 758 803 118
f 943 898 116
f 116 898 758
f 898 252 758
f 252 803 758
f 943 250 898
f 775 724 251
f 915 253 856
f 856 253 117
f 253 724 117
f 724 775 117
f 119 915 856
f 632 667 120
f 803 760 118
f 118 760 632
f 760 254 632
f 254 667 632
f 803 252 760
f 915 858 253
f 119 4 915
f 4 858 915
f 4 6 858
f 140 209 255
f 6 140 255
f 4 140 6
f 278 341 209
f 278 209 140
f 406 461 341
f 406 341 278
f 526 256 461
f 406 526 461
f 524 526 406
f 667 634 120
f 634 524 120
f 634 526 524
f 667 254 634
f 209 142 255
f 142 209 280
f 280 209 341
f 280 341 408
f 408 341 461
f 461 256 408
f 257 21 121
f 121 21 19
f 21 155 19
f 157 155 21
f 157 293 155
f 295 293 157
f 295 258 293
f 293 258 122
f 259 873 123
f 123 873 871
f 121 871 873
f 121 873 257
f 421 122 258
f 421 258 423
f 423 260 421
f 421 260 124
f 261 739 125
f 125 739 737
f 123 737 739
f 123 739 259
f 539 124 260
f 539 260 541
f 541 262 539
f 539 262 126
f 263 125 127
f 263 261 125
f 126 264 128
f 262 264 126
f 265 127 129
f 265 263 127
f 128 266 130
f 264 266 128
f 267 129 131
f 267 265 129
f 130 268 132
f 266 268 130
f 131 738 267
f 267 738 740
f 269 740 738
f 269 738 133
f 542 270 134
f 542 134 540
f 540 132 542
f 542 132 268
f 133 872 269
f 269 872 874
f 20 874 872
f 20 22 874
f 156 22 20
f 156 158 22
f 294 158 156
f 294 296 158
f 422 296 294
f 422 424 296
f 422 134 424
f 424 134 270
f 80 45 231
f 218 181 80
f 80 181 45
f 218 232 181
f 188 141 233
f 359 281 188
f 281 141 188
f 281 279 141
f 281 407 279
f 409 407 281
f 552 525 360
f 525 409 360
f 525 407 409
f 648 633 552
f 552 633 525
f 786 759 648
f 648 759 633
f 928 897 786
f 786 897 759
f 47 80 231
f 47 231 897
f 361 47 897
f 928 361 897
f 80 47 183
f 80 183 218
f 315 232 218
f 183 315 218
f 317 315 183
f 466 437 362
f 437 317 362
f 437 315 317
f 466 234 437
f 363 7 235
f 235 7 5
f 143 188 233
f 5 143 233
f 7 143 5
f 359 188 143
f 527 552 360
f 552 527 635
f 552 635 648
f 648 635 761
f 648 761 786
f 786 761 899
f 786 899 928
f 361 928 899
f 364 468 466
f 364 466 362
f 234 466 236
f 236 466 468
f 365 235 237
f 365 363 235
f 366 470 468
f 366 468 364
f 236 468 238
f 238 468 470
f 367 237 239
f 367 365 237
f 368 472 470
f 368 470 366
f 238 470 240
f 240 470 472
f 369 859 241
f 241 859 857
f 239 857 859
f 239 859 367
f 318 370 358
f 472 368 318
f 472 318 358
f 438 472 358
f 242 438 358
f 240 472 438
f 371 725 243
f 243 725 723
f 241 723 725
f 241 725 369
f 244 316 358
f 370 244 358
f 372 244 370
f 242 358 316
f 373 243 245
f 373 371 243
f 184 374 246
f 184 246 182
f 182 244 184
f 184 244 372
f 375 245 247
f 375 373 245
f 48 376 248
f 48 248 46
f 46 246 48
f 48 246 374
f 377 247 249
f 377 375 247
f 248 378 250
f 376 378 248
f 379 249 251
f 379 377 249
f 900 380 252
f 900 252 898
f 898 250 900
f 900 250 378
f 777 381 724
f 381 251 724
f 381 379 251
f 253 777 724
f 762 382 254
f 762 254 760
f 760 252 762
f 762 252 380
f 777 726 381
f 253 858 777
f 858 726 777
f 858 860 726
f 6 71 383
f 860 6 383
f 858 6 860
f 255 71 6
f 526 573 256
f 636 384 573
f 526 636 573
f 634 636 526
f 634 254 636
f 636 254 382
f 71 8 383
f 255 142 71
f 142 8 71
f 142 144 8
f 280 144 142
f 280 282 144
f 408 282 280
f 408 410 282
f 573 528 256
f 528 408 256
f 528 410 408
f 573 384 528
f 385 23 257
f 257 23 21
f 23 157 21
f 159 157 23
f 159 295 157
f 297 295 159
f 297 386 295
f 295 386 258
f 387 875 259
f 259 875 873
f 257 873 875
f 257 875 385
f 423 258 386
f 423 386 425
f 425 388 423
f 423 388 260
f 389 741 261
f 261 741 739
f 259 739 741
f 259 741 387
f 541 260 388
f 541 388 543
f 543 390 541
f 541 390 262
f 391 261 263
f 391 389 261
f 262 392 264
f 390 392 262
f 393 263 265
f 393 391 263
f 264 394 266
f 392 394 264
f 395 265 267
f 395 393 265
f 266 396 268
f 394 396 266
f 267 740 395
f 395 740 742
f 397 742 740
f 397 740 269
f 544 398 270
f 544 270 542
f 542 268 544
f 544 268 396
f 269 874 397
f 397 874 876
f 22 876 874
f 22 24 876
f 158 24 22
f 158 160 24
f 296 160 158
f 296 298 160
f 424 298 296
f 424 426 298
f 424 270 426
f 426 270 398
f 473 885 923
f 923 885 77
f 77 885 33
f 77 33 215
f 215 33 169
f 169 474 215
f 925 475 923
f 923 475 473
f 923 79 925
f 923 77 79
f 77 217 79
f 77 215 217
f 215 474 217
f 217 474 476
f 927 477 925
f 925 477 475
f 925 81 927
f 925 79 81
f 79 219 81
f 79 217 219
f 217 476 219
f 219 476 478
f 929 479 927
f 927 479 477
f 927 83 929
f 927 81 83
f 81 221 83
f 81 219 221
f 219 478 221
f 221 478 480
f 929 886 479
f 886 929 34
f 34 929 83
f 34 83 170
f 170 83 221
f 221 480 170
f 320 281 359
f 440 409 320
f 320 409 281
f 440 360 409
f 82 47 361
f 220 183 82
f 82 183 47
f 350 317 220
f 220 317 183
f 350 362 317
f 52 7 363
f 481 145 52
f 145 7 52
f 145 143 7
f 283 320 359
f 143 283 359
f 145 283 143
f 320 283 411
f 320 411 440
f 527 360 440
f 411 527 440
f 529 527 411
f 650 635 482
f 635 529 482
f 635 527 529
f 788 761 650
f 650 761 635
f 930 899 788
f 788 899 761
f 899 930 361
f 930 82 361
f 930 84 82
f 222 82 84
f 220 82 222
f 352 220 222
f 350 220 352
f 362 350 364
f 364 350 352
f 52 363 9
f 363 483 9
f 363 365 483
f 481 52 9
f 637 650 482
f 650 637 763
f 650 763 788
f 788 763 901
f 788 901 930
f 930 901 49
f 930 49 84
f 84 49 484
f 224 84 484
f 222 84 224
f 354 222 224
f 352 222 354
f 364 352 366
f 366 352 354
f 485 365 367
f 485 483 365
f 185 224 484
f 224 185 486
f 356 224 486
f 354 224 356
f 366 354 368
f 368 354 356
f 487 861 369
f 369 861 859
f 367 859 861
f 367 861 485
f 370 318 356
f 486 370 356
f 488 370 486
f 368 356 318
f 489 727 371
f 371 727 725
f 369 725 727
f 369 727 487
f 186 490 230
f 230 372 186
f 372 488 186
f 372 370 488
f 491 371 373
f 491 489 371
f 50 492 94
f 230 490 50
f 230 50 94
f 184 230 94
f 374 184 94
f 372 230 184
f 493 373 375
f 493 491 373
f 376 48 94
f 492 376 94
f 494 376 492
f 374 94 48
f 495 375 377
f 495 493 375
f 376 496 378
f 494 496 376
f 497 377 379
f 497 495 377
f 902 498 380
f 902 380 900
f 900 378 902
f 902 378 496
f 499 379 381
f 499 497 379
f 764 500 382
f 764 382 762
f 762 380 764
f 764 380 498
f 381 726 499
f 499 726 728
f 860 917 501
f 728 860 501
f 726 860 728
f 383 917 860
f 638 502 384
f 638 384 636
f 636 382 638
f 638 382 500
f 917 862 501
f 383 8 917
f 8 862 917
f 8 10 862
f 144 10 8
f 144 146 10
f 282 146 144
f 282 284 146
f 410 284 282
f 410 412 284
f 528 412 410
f 528 530 412
f 528 384 530
f 530 384 502
f 503 25 385
f 385 25 23
f 25 159 23
f 161 159 25
f 161 297 159
f 299 297 161
f 299 504 297
f 297 504 386
f 505 877 387
f 387 877 875
f 385 875 877
f 385 877 503
f 425 386 504
f 425 504 427
f 427 506 425
f 425 506 388
f 507 743 389
f 389 743 741
f 387 741 743
f 387 743 505
f 543 388 506
f 543 506 545
f 545 508 543
f 543 508 390
f 509 389 391
f 509 507 389
f 390 510 392
f 508 510 390
f 511 391 393
f 511 509 391
f 392 512 394
f 510 512 392
f 513 393 395
f 513 511 393
f 394 514 396
f 512 514 394
f 395 742 513
f 513 742 744
f 515 744 742
f 515 742 397
f 546 516 398
f 546 398 544
f 544 396 546
f 546 396 514
f 397 876 515
f 515 876 878
f 24 878 876
f 24 26 878
f 160 26 24
f 160 162 26
f 298 162 160
f 298 300 162
f 426 300 298
f 426 428 300
f 426 398 428
f 428 398 516
f 575 35 75
f 35 576 75
f 577 749 781
f 781 749 473
f 749 885 473
f 749 887 885
f 887 575 75
f 33 887 75
f 885 887 33
f 33 75 576
f 171 33 576
f 169 33 171
f 474 169 345
f 169 305 345
f 169 171 305
f 305 578 345
f 783 579 781
f 781 579 577
f 781 473 475
f 781 475 783
f 347 476 474
f 347 474 345
f 345 578 347
f 347 578 580
f 785 581 783
f 783 581 579
f 783 475 477
f 783 477 785
f 349 478 476
f 349 476 347
f 347 580 349
f 349 580 582
f 583 623 649
f 581 785 623
f 785 649 623
f 785 787 649
f 785 477 479
f 785 479 787
f 351 480 478
f 351 478 349
f 349 582 351
f 351 582 584
f 649 624 583
f 624 649 585
f 649 789 585
f 649 787 789
f 787 479 886
f 931 787 886
f 789 787 931
f 34 85 931
f 34 931 886
f 172 586 85
f 34 172 85
f 170 172 34
f 351 306 480
f 306 170 480
f 306 172 170
f 351 584 306
f 789 750 585
f 750 789 888
f 888 789 931
f 888 931 36
f 36 931 85
f 85 586 36
f 190 145 481
f 322 283 190
f 190 283 145
f 442 411 322
f 322 411 283
f 554 529 442
f 442 529 411
f 554 482 529
f 54 9 483
f 147 190 481
f 147 481 9
f 587 147 9
f 54 587 9
f 190 147 285
f 190 285 322
f 322 285 413
f 322 413 442
f 442 413 531
f 442 531 554
f 588 652 637
f 588 637 482
f 531 588 482
f 554 531 482
f 790 763 652
f 652 763 637
f 932 901 790
f 790 901 763
f 86 49 932
f 932 49 901
f 86 484 49
f 54 483 11
f 483 589 11
f 483 485 589
f 587 54 11
f 639 652 588
f 652 639 590
f 792 652 590
f 790 652 792
f 934 790 792
f 932 790 934
f 88 932 934
f 86 932 88
f 484 86 185
f 86 226 185
f 86 88 226
f 226 486 185
f 591 863 487
f 487 863 861
f 485 861 863
f 485 863 589
f 765 792 590
f 792 765 592
f 936 792 592
f 934 792 936
f 90 934 936
f 88 934 90
f 228 88 90
f 226 88 228
f 486 226 488
f 488 226 228
f 593 729 489
f 489 729 727
f 487 727 729
f 487 729 591
f 594 938 936
f 594 936 592
f 92 936 938
f 90 936 92
f 186 228 490
f 228 92 490
f 228 90 92
f 488 228 186
f 595 489 491
f 595 593 489
f 596 940 938
f 596 938 594
f 50 92 492
f 92 940 492
f 92 938 940
f 490 92 50
f 597 491 493
f 597 595 491
f 598 942 940
f 598 940 596
f 492 940 494
f 494 940 942
f 599 493 495
f 599 597 493
f 600 944 942
f 600 942 598
f 494 942 496
f 496 942 944
f 601 495 497
f 601 599 495
f 498 902 944
f 600 498 944
f 602 498 600
f 496 944 902
f 603 497 499
f 603 601 497
f 766 604 500
f 766 500 764
f 764 498 766
f 766 498 602
f 779 605 728
f 605 499 728
f 605 603 499
f 501 779 728
f 640 606 502
f 640 502 638
f 638 500 640
f 640 500 604
f 779 730 605
f 919 607 862
f 862 607 501
f 607 730 501
f 730 779 501
f 10 73 919
f 10 919 862
f 146 211 73
f 146 73 10
f 284 343 211
f 284 211 146
f 414 608 343
f 284 414 343
f 412 414 284
f 530 414 412
f 530 532 414
f 530 502 532
f 532 502 606
f 919 864 607
f 864 919 12
f 12 919 73
f 12 73 148
f 148 73 211
f 148 211 286
f 286 211 343
f 343 608 286
f 62 25 503
f 609 163 62
f 163 25 62
f 163 161 25
f 332 299 610
f 299 163 610
f 299 161 163
f 332 504 299
f 611 879 505
f 505 879 877
f 27 62 503
f 877 27 503
f 879 27 877
f 609 62 27
f 301 332 610
f 427 504 332
f 301 427 332
f 429 427 301
f 429 612 427
f 427 612 506
f 613 745 507
f 507 745 743
f 505 743 745
f 505 745 611
f 545 506 612
f 545 612 547
f 547 614 545
f 545 614 508
f 615 507 509
f 615 613 507
f 508 616 510
f 614 616 508
f 617 509 511
f 617 615 509
f 510 618 512
f 616 618 510
f 619 511 513
f 619 617 511
f 512 620 514
f 618 620 512
f 513 744 619
f 619 744 746
f 621 746 744
f 621 744 515
f 430 622 464
f 430 464 516
f 546 430 516
f 548 430 546
f 546 514 548
f 548 514 620
f 515 878 621
f 621 878 880
f 26 880 878
f 26 28 880
f 162 28 26
f 162 164 28
f 300 164 162
f 300 302 164
f 622 302 464
f 302 428 464
f 302 300 428
f 516 464 428
f 669 889 921
f 921 889 575
f 889 35 575
f 889 37 35
f 576 35 213
f 35 173 213
f 35 37 173
f 173 670 213
f 671 751 577
f 577 751 749
f 751 669 921
f 887 751 921
f 749 751 887
f 921 575 887
f 213 171 576
f 171 213 670
f 307 171 670
f 305 171 307
f 307 672 305
f 305 672 578
f 673 625 645
f 579 645 625
f 671 579 625
f 577 579 671
f 578 674 580
f 672 674 578
f 675 517 551
f 673 645 517
f 645 551 517
f 645 647 551
f 645 579 581
f 645 581 647
f 580 676 582
f 674 676 580
f 677 399 441
f 675 551 399
f 551 441 399
f 551 553 441
f 647 623 583
f 553 647 583
f 551 647 553
f 647 581 623
f 582 678 584
f 676 678 582
f 443 679 441
f 441 679 677
f 441 555 443
f 441 553 555
f 553 583 624
f 651 553 624
f 555 553 651
f 585 651 624
f 172 223 586
f 308 680 223
f 172 308 223
f 306 308 172
f 306 584 308
f 308 584 678
f 445 681 443
f 443 681 679
f 443 557 445
f 443 555 557
f 555 653 557
f 555 651 653
f 651 585 750
f 791 651 750
f 653 651 791
f 888 933 791
f 888 791 750
f 36 87 933
f 36 933 888
f 223 174 586
f 586 174 36
f 174 682 36
f 682 87 36
f 223 680 174
f 683 271 327
f 681 445 271
f 445 327 271
f 445 447 327
f 445 559 447
f 445 557 559
f 557 655 559
f 557 653 655
f 653 793 655
f 653 791 793
f 684 793 890
f 793 933 890
f 793 791 933
f 890 933 38
f 38 933 87
f 87 682 38
f 329 685 327
f 327 685 683
f 327 449 329
f 327 447 449
f 447 561 449
f 447 559 561
f 559 657 561
f 559 655 657
f 686 657 752
f 657 793 752
f 657 655 793
f 793 684 752
f 331 687 329
f 329 687 685
f 329 451 331
f 329 449 451
f 449 563 451
f 449 561 563
f 688 563 626
f 563 657 626
f 563 561 657
f 657 686 626
f 333 689 331
f 331 689 687
f 331 453 333
f 331 451 453
f 451 565 453
f 451 563 565
f 563 688 565
f 565 688 690
f 333 272 689
f 272 333 400
f 400 333 453
f 400 453 518
f 518 453 565
f 565 690 518
f 192 147 587
f 324 285 192
f 192 285 147
f 444 413 324
f 324 413 285
f 556 531 444
f 444 531 413
f 556 588 531
f 56 11 589
f 149 192 587
f 149 587 11
f 691 149 11
f 56 691 11
f 192 149 287
f 192 287 324
f 324 287 415
f 324 415 444
f 444 415 533
f 444 533 556
f 692 654 639
f 692 639 588
f 533 692 588
f 556 533 588
f 654 590 639
f 693 865 591
f 591 865 863
f 13 56 589
f 863 13 589
f 865 13 863
f 691 56 13
f 694 656 654
f 694 654 692
f 590 654 765
f 654 794 765
f 654 656 794
f 794 592 765
f 695 731 593
f 593 731 729
f 591 729 731
f 591 731 693
f 696 658 656
f 696 656 694
f 796 656 658
f 794 656 796
f 592 794 594
f 594 794 796
f 697 593 595
f 697 695 593
f 641 658 696
f 658 641 698
f 798 658 698
f 796 658 798
f 594 796 596
f 596 796 798
f 699 595 597
f 699 697 595
f 700 800 798
f 700 798 698
f 596 798 598
f 598 798 800
f 701 597 599
f 701 699 597
f 702 802 800
f 702 800 700
f 598 800 600
f 600 800 802
f 703 599 601
f 703 701 599
f 704 804 802
f 704 802 702
f 600 802 602
f 602 802 804
f 705 601 603
f 705 703 601
f 604 766 804
f 704 604 804
f 706 604 704
f 602 804 766
f 707 603 605
f 707 705 603
f 642 708 606
f 642 606 640
f 640 604 642
f 642 604 706
f 605 730 707
f 707 730 732
f 709 732 730
f 709 730 607
f 414 463 608
f 534 710 463
f 414 534 463
f 532 534 414
f 532 606 534
f 534 606 708
f 607 864 709
f 709 864 866
f 12 866 864
f 12 14 866
f 148 14 12
f 148 150 14
f 286 150 148
f 286 288 150
f 463 416 608
f 416 286 608
f 416 288 286
f 463 710 416
f 200 163 609
f 200 610 163
f 910 879 611
f 711 29 910
f 29 879 910
f 29 27 879
f 165 200 609
f 27 165 609
f 29 165 27
f 301 610 200
f 165 301 200
f 303 301 165
f 454 429 712
f 429 303 712
f 429 301 303
f 454 612 429
f 713 747 613
f 613 747 745
f 881 910 611
f 745 881 611
f 747 881 745
f 711 910 881
f 431 454 712
f 714 568 547
f 714 547 612
f 431 714 612
f 454 431 612
f 568 614 547
f 715 613 615
f 715 713 613
f 716 570 568
f 716 568 714
f 614 568 616
f 616 568 570
f 717 615 617
f 717 715 615
f 718 572 570
f 718 570 716
f 616 570 618
f 618 570 572
f 719 617 619
f 719 717 617
f 432 720 462
f 572 718 432
f 462 572 432
f 574 572 462
f 618 572 620
f 620 572 574
f 619 746 719
f 719 746 748
f 746 621 920
f 882 746 920
f 748 746 882
f 721 882 920
f 304 722 344
f 462 720 304
f 462 304 344
f 430 462 344
f 622 430 344
f 548 574 430
f 430 574 462
f 620 574 548
f 880 920 621
f 920 880 721
f 880 30 721
f 880 28 30
f 164 30 28
f 164 166 30
f 722 166 344
f 166 302 344
f 166 164 302
f 622 344 302
f 922 889 669
f 805 39 922
f 39 889 922
f 39 37 889
f 214 173 806
f 173 39 806
f 173 37 39
f 214 670 173
f 807 753 671
f 671 753 751
f 891 922 669
f 751 891 669
f 753 891 751
f 805 922 891
f 175 214 806
f 307 670 214
f 175 307 214
f 309 307 175
f 309 808 307
f 307 808 672
f 809 627 673
f 673 627 625
f 671 625 627
f 671 627 807
f 672 810 674
f 808 810 672
f 811 401 439
f 439 401 675
f 401 517 675
f 401 519 517
f 673 517 519
f 673 519 809
f 674 812 676
f 810 812 674
f 813 273 321
f 811 439 273
f 273 439 321
f 439 399 321
f 399 677 321
f 439 675 399
f 676 814 678
f 812 814 676
f 323 815 321
f 321 815 813
f 321 677 679
f 321 679 323
f 308 353 680
f 308 678 353
f 678 816 353
f 678 814 816
f 817 135 193
f 815 323 135
f 323 193 135
f 323 325 193
f 323 679 681
f 323 681 325
f 174 225 682
f 225 174 680
f 353 225 680
f 355 225 353
f 353 816 355
f 355 816 818
f 195 819 193
f 193 819 817
f 325 271 683
f 195 325 683
f 193 325 195
f 325 681 271
f 890 935 684
f 38 89 935
f 38 935 890
f 225 176 682
f 682 176 38
f 176 820 38
f 820 89 38
f 176 225 310
f 310 225 355
f 355 818 310
f 197 821 195
f 195 821 819
f 195 683 685
f 195 685 197
f 752 795 686
f 935 892 684
f 684 892 752
f 892 822 752
f 822 795 752
f 892 935 40
f 40 935 89
f 89 820 40
f 199 823 197
f 197 823 821
f 197 685 687
f 197 687 199
f 626 659 688
f 795 754 686
f 686 754 626
f 754 824 626
f 824 659 626
f 795 822 754
f 201 825 199
f 199 825 823
f 199 687 689
f 199 689 201
f 661 690 688
f 661 688 659
f 659 824 661
f 661 824 826
f 201 136 825
f 335 827 272
f 272 827 689
f 827 136 689
f 136 201 689
f 400 455 335
f 400 335 272
f 518 567 455
f 518 455 400
f 661 628 690
f 690 628 518
f 628 828 518
f 828 567 518
f 661 826 628
f 335 274 827
f 274 335 402
f 402 335 455
f 402 455 520
f 520 455 567
f 567 828 520
f 194 149 691
f 326 287 194
f 194 287 149
f 446 415 326
f 326 415 287
f 558 533 446
f 446 533 415
f 558 692 533
f 904 865 693
f 829 15 904
f 15 865 904
f 15 13 865
f 151 194 691
f 13 151 691
f 15 151 13
f 194 151 289
f 194 289 326
f 326 289 417
f 326 417 446
f 446 417 830
f 560 446 830
f 558 446 560
f 692 558 694
f 694 558 560
f 768 731 695
f 867 904 693
f 867 693 731
f 831 867 731
f 768 831 731
f 829 904 867
f 832 562 560
f 832 560 830
f 694 560 696
f 696 560 562
f 697 770 695
f 695 770 768
f 831 768 770
f 831 770 833
f 535 562 832
f 834 660 641
f 834 641 696
f 535 834 696
f 562 535 696
f 660 698 641
f 770 697 733
f 697 835 733
f 697 699 835
f 833 770 733
f 836 662 660
f 836 660 834
f 698 660 700
f 700 660 662
f 837 699 701
f 837 835 699
f 838 664 662
f 838 662 836
f 700 662 702
f 702 662 664
f 839 701 703
f 839 837 701
f 643 664 838
f 643 840 664
f 840 702 664
f 840 704 702
f 841 703 705
f 841 839 703
f 644 842 668
f 668 706 644
f 706 840 644
f 706 704 840
f 843 705 707
f 843 841 705
f 708 642 668
f 842 708 668
f 844 708 842
f 706 668 642
f 707 732 843
f 843 732 734
f 845 734 732
f 845 732 709
f 536 846 710
f 536 710 534
f 534 708 536
f 536 708 844
f 709 866 845
f 845 866 868
f 14 868 866
f 14 16 868
f 150 16 14
f 150 152 16
f 288 152 150
f 288 290 152
f 416 290 288
f 416 418 290
f 416 710 418
f 418 710 846
f 64 29 711
f 202 165 64
f 64 165 29
f 334 303 202
f 202 303 165
f 334 712 303
f 774 747 713
f 847 883 774
f 883 747 774
f 883 881 747
f 31 64 711
f 881 31 711
f 883 31 881
f 64 31 167
f 64 167 202
f 202 167 848
f 336 202 848
f 334 202 336
f 712 334 431
f 334 456 431
f 334 336 456
f 456 714 431
f 715 776 713
f 713 776 774
f 847 774 776
f 847 776 849
f 850 338 336
f 850 336 848
f 458 336 338
f 456 336 458
f 714 456 716
f 716 456 458
f 717 778 715
f 715 778 776
f 849 776 778
f 849 778 851
f 852 340 338
f 852 338 850
f 460 338 340
f 458 338 460
f 716 458 718
f 718 458 460
f 719 780 717
f 717 780 778
f 851 778 780
f 851 780 853
f 854 342 340
f 854 340 852
f 432 460 720
f 460 342 720
f 460 340 342
f 718 460 432
f 748 780 719
f 780 748 853
f 748 884 853
f 748 882 884
f 882 721 74
f 32 882 74
f 884 882 32
f 32 74 212
f 32 212 168
f 342 854 168
f 342 168 212
f 304 342 212
f 722 304 212
f 720 342 304
f 30 74 721
f 166 212 30
f 30 212 74
f 722 212 166
f 76 39 805
f 76 806 39
f 782 753 807
f 945 893 782
f 893 753 782
f 893 891 753
f 41 76 805
f 891 41 805
f 893 41 891
f 175 806 76
f 41 175 76
f 177 175 41
f 346 309 946
f 309 177 946
f 309 175 177
f 346 808 309
f 947 521 549
f 549 521 809
f 521 627 809
f 521 629 627
f 755 782 807
f 627 755 807
f 629 755 627
f 945 782 755
f 311 346 946
f 311 948 346
f 948 808 346
f 948 810 808
f 949 403 811
f 811 403 401
f 403 947 549
f 519 403 549
f 401 403 519
f 549 809 519
f 948 433 465
f 812 948 465
f 810 948 812
f 433 950 465
f 951 137 189
f 189 137 813
f 137 273 813
f 137 275 273
f 811 273 275
f 811 275 949
f 467 814 812
f 467 812 465
f 465 950 467
f 467 950 952
f 953 1 53
f 951 189 1
f 189 53 1
f 189 191 53
f 189 813 815
f 189 815 191
f 469 816 814
f 469 814 467
f 467 952 469
f 469 952 954
f 55 955 53
f 53 955 953
f 191 135 817
f 55 191 817
f 53 191 55
f 191 815 135
f 471 818 816
f 471 816 469
f 469 954 471
f 471 954 956
f 57 957 55
f 55 957 955
f 55 817 819
f 55 819 57
f 176 227 820
f 312 958 227
f 176 312 227
f 310 312 176
f 471 434 818
f 434 310 818
f 434 312 310
f 471 956 434
f 59 959 57
f 57 959 957
f 57 819 821
f 57 821 59
f 892 937 822
f 40 91 937
f 40 937 892
f 227 178 820
f 820 178 40
f 178 960 40
f 960 91 40
f 227 958 178
f 61 961 59
f 59 961 959
f 59 821 823
f 59 823 61
f 754 797 824
f 797 754 822
f 937 797 822
f 939 797 937
f 962 939 42
f 939 91 42
f 939 937 91
f 91 960 42
f 63 963 61
f 61 963 961
f 61 823 825
f 61 825 63
f 799 826 824
f 799 824 797
f 964 799 894
f 799 939 894
f 799 797 939
f 939 962 894
f 63 2 963
f 203 965 136
f 136 965 825
f 965 2 825
f 2 63 825
f 827 203 136
f 628 663 828
f 799 756 826
f 826 756 628
f 756 966 628
f 966 663 628
f 799 964 756
f 203 138 965
f 337 967 274
f 274 967 827
f 967 138 827
f 138 203 827
f 402 457 337
f 402 337 274
f 520 569 457
f 520 457 402
f 663 630 828
f 828 630 520
f 630 968 520
f 968 569 520
f 663 966 630
f 337 276 967
f 276 337 404
f 404 337 457
f 404 457 522
f 522 457 569
f 569 968 522
f 58 15 829
f 196 151 58
f 58 151 15
f 328 289 196
f 196 289 151
f 448 417 328
f 328 417 289
f 448 830 417
f 906 867 831
f 17 58 829
f 17 829 867
f 969 17 867
f 906 969 867
f 58 17 153
f 58 153 196
f 196 153 291
f 196 291 328
f 328 291 970
f 450 328 970
f 448 328 450
f 830 448 832
f 832 448 450
f 906 831 869
f 831 971 869
f 831 833 971
f 969 906 869
f 419 450 970
f 972 564 535
f 972 535 832
f 419 972 832
f 450 419 832
f 564 834 535
f 772 733 835
f 833 733 772
f 973 833 772
f 971 833 973
f 974 566 564
f 974 564 972
f 834 564 836
f 836 564 566
f 772 835 735
f 835 975 735
f 835 837 975
f 973 772 735
f 537 566 974
f 537 976 566
f 976 836 566
f 976 838 836
f 977 837 839
f 977 975 837
f 978 666 643
f 838 978 643
f 976 978 838
f 666 840 643
f 979 839 841
f 979 977 839
f 842 644 666
f 978 842 666
f 980 842 978
f 840 666 644
f 981 841 843
f 981 979 841
f 842 982 844
f 980 982 842
f 843 734 981
f 981 734 736
f 983 736 734
f 983 734 845
f 538 984 846
f 538 846 536
f 536 844 538
f 538 844 982
f 845 868 983
f 983 868 870
f 16 870 868
f 16 18 870
f 152 18 16
f 152 154 18
f 290 154 152
f 290 292 154
f 418 292 290
f 418 420 292
f 418 846 420
f 420 846 984
f 912 883 847
f 66 31 912
f 912 31 883
f 204 167 66
f 66 167 31
f 204 848 167
f 849 914 847
f 847 914 912
f 68 912 914
f 66 912 68
f 206 66 68
f 204 66 206
f 848 204 850
f 850 204 206
f 851 916 849
f 849 916 914
f 70 914 916
f 68 914 70
f 208 68 70
f 206 68 208
f 850 206 852
f 852 206 208
f 853 918 851
f 851 918 916
f 72 916 918
f 70 916 72
f 210 70 72
f 208 70 210
f 852 208 854
f 854 208 210
f 884 918 853
f 32 72 884
f 884 72 918
f 168 210 32
f 32 210 72
f 854 210 168
f 924 893 945
f 95 43 924
f 43 893 924
f 43 41 893
f 216 177 96
f 177 43 96
f 177 41 43
f 216 946 177
f 550 521 947
f 97 631 550
f 631 521 550
f 631 629 521
f 631 755 629
f 757 755 631
f 895 924 945
f 755 895 945
f 757 895 755
f 95 924 895
f 179 216 96
f 311 946 216
f 179 311 216
f 313 311 179
f 313 98 311
f 311 98 948
f 99 139 187
f 187 139 319
f 319 139 277
f 319 277 949
f 277 403 949
f 277 405 403
f 523 550 947
f 403 523 947
f 405 523 403
f 97 550 523
f 433 948 98
f 433 98 435
f 435 100 433
f 433 100 950
f 101 3 51
f 99 187 3
f 3 187 51
f 187 137 51
f 137 951 51
f 319 275 137
f 319 137 187
f 319 949 275
f 950 102 952
f 100 102 950
f 1 953 51
f 953 101 51
f 953 103 101
f 51 951 1
f 952 104 954
f 102 104 952
f 105 953 955
f 105 103 953
f 954 106 956
f 104 106 954
f 107 855 903
f 957 903 855
f 105 957 855
f 955 957 105
f 312 357 958
f 436 108 357
f 312 436 357
f 434 436 312
f 434 956 436
f 436 956 106
f 905 109 903
f 903 109 107
f 903 957 959
f 903 959 905
f 178 229 960
f 357 314 958
f 958 314 178
f 314 110 178
f 110 229 178
f 357 108 314
f 907 111 905
f 905 111 109
f 905 959 961
f 905 961 907
f 42 93 962
f 229 180 960
f 960 180 42
f 180 112 42
f 112 93 42
f 229 110 180
f 909 113 907
f 907 113 111
f 907 961 963
f 907 963 909
f 894 941 964
f 93 44 962
f 962 44 894
f 44 114 894
f 114 941 894
f 93 112 44
f 911 115 909
f 909 115 113
f 909 963 2
f 65 909 2
f 911 909 65
f 965 65 2
f 756 801 966
f 941 896 964
f 964 896 756
f 896 116 756
f 116 801 756
f 941 114 896
f 913 117 911
f 911 117 115
f 911 67 913
f 911 65 67
f 65 965 138
f 205 65 138
f 67 65 205
f 967 205 138
f 630 665 968
f 801 758 966
f 966 758 630
f 758 118 630
f 118 665 630
f 801 116 758
f 913 856 117
f 856 913 119
f 913 69 119
f 913 67 69
f 67 207 69
f 67 205 207
f 205 967 276
f 339 205 276
f 207 205 339
f 404 459 339
f 404 339 276
f 522 571 459
f 522 459 404
f 665 632 968
f 968 632 522
f 632 120 522
f 120 571 522
f 665 118 632
f 69 4 119
f 4 69 140
f 140 69 207
f 140 207 278
f 278 207 339
f 278 339 406
f 406 339 459
f 406 459 524
f 524 459 571
f 571 120 524
f 60 17 969
f 198 153 60
f 60 153 17
f 330 291 198
f 198 291 153
f 330 970 291
f 908 869 971
f 19 60 969
f 19 969 869
f 121 19 869
f 908 121 869
f 60 19 155
f 60 155 198
f 198 155 293
f 198 293 330
f 122 452 419
f 122 419 970
f 293 122 970
f 330 293 970
f 452 972 419
f 908 971 871
f 971 123 871
f 971 973 123
f 121 908 871
f 421 452 122
f 421 124 452
f 124 972 452
f 124 974 972
f 125 737 975
f 975 737 735
f 973 735 737
f 973 737 123
f 537 974 124
f 537 124 539
f 539 126 537
f 537 126 976
f 127 975 977
f 127 125 975
f 976 128 978
f 126 128 976
f 129 977 979
f 129 127 977
f 978 130 980
f 128 130 978
f 131 979 981
f 131 129 979
f 980 132 982
f 130 132 980
f 981 736 131
f 131 736 738
f 133 738 736
f 133 736 983
f 540 134 984
f 540 984 538
f 538 982 540
f 540 982 132
f 983 870 133
f 133 870 872
f 18 872 870
f 18 20 872
f 154 20 18
f 154 156 20
f 292 156 154
f 292 294 156
f 420 294 292
f 420 422 294
f 420 984 422
f 422 984 134
