# Converted from NanoShaper .vert/.face
v 8.224000 5.039000 -7.266000
v 10.376000 5.039000 -7.266000
v 7.823000 5.039000 -6.766000
v 10.731000 5.039000 -6.766000
v 7.705000 5.039000 -6.266000
v 10.864000 5.039000 -6.266000
v 7.554000 5.039000 -5.766000
v 10.953000 5.039000 -5.766000
v 7.275000 5.039000 -5.266000
v 11.042000 5.039000 -5.266000
v 7.194000 5.039000 -4.766000
v 11.118000 5.039000 -4.766000
v 7.313000 5.039000 -4.266000
v 11.427000 5.039000 -4.266000
v 7.563000 5.039000 -3.766000
v 11.545000 5.039000 -3.766000
v 7.725000 5.039000 -3.266000
v 11.479000 5.039000 -3.266000
v 8.008000 5.039000 -2.766000
v 11.503000 5.039000 -2.766000
v 8.754000 5.039000 -2.266000
v 11.549000 5.039000 -2.266000
v 9.685000 5.039000 -1.766000
v 11.365000 5.039000 -1.766000
v 7.289000 5.039000 -5.301000
v 7.289000 5.039000 -4.324000
v 7.789000 5.039000 -6.682000
v 7.789000 5.039000 -3.121000
v 8.289000 5.039000 -7.312000
v 8.289000 5.039000 -2.490000
v 8.789000 5.039000 -7.508000
v 8.789000 5.039000 -2.256000
v 9.289000 5.039000 -7.560000
v 9.289000 5.039000 -2.038000
v 9.789000 5.039000 -7.556000
v 9.789000 5.039000 -1.653000
v 10.289000 5.039000 -7.336000
v 10.289000 5.039000 -1.320000
v 10.789000 5.039000 -6.586000
v 10.789000 5.039000 -1.324000
v 11.289000 5.039000 -4.469000
v 11.289000 5.039000 -1.669000
v 8.289000 3.881000 -7.266000
v 8.289000 5.121000 -7.266000
v 8.789000 3.581000 -7.266000
v 8.789000 5.421000 -7.266000
v 9.289000 3.535000 -7.266000
v 9.289000 5.479000 -7.266000
v 9.789000 3.541000 -7.266000
v 9.789000 5.473000 -7.266000
v 10.289000 3.855000 -7.266000
v 10.289000 5.158000 -7.266000
v 7.789000 3.243000 -3.266000
v 7.789000 5.430000 -3.266000
v 8.289000 2.489000 -3.266000
v 8.289000 6.716000 -3.266000
v 8.789000 1.979000 -3.266000
v 8.789000 7.051000 -3.266000
v 9.289000 1.542000 -3.266000
v 9.289000 7.071000 -3.266000
v 9.789000 1.307000 -3.266000
v 9.789000 6.801000 -3.266000
v 10.289000 1.291000 -3.266000
v 10.289000 6.161000 -3.266000
v 10.789000 1.477000 -3.266000
v 10.789000 5.723000 -3.266000
v 11.289000 1.802000 -3.266000
v 11.289000 5.213000 -3.266000
v 11.789000 2.068000 -3.266000
v 11.789000 4.782000 -3.266000
v 12.289000 2.640000 -3.266000
v 12.289000 4.311000 -3.266000
v 9.255000 1.539000 -4.766000
v 10.984000 1.539000 -4.766000
v 9.142000 1.539000 -4.266000
v 11.054000 1.539000 -4.266000
v 9.133000 1.539000 -3.766000
v 11.033000 1.539000 -3.766000
v 9.293000 1.539000 -3.266000
v 10.896000 1.539000 -3.266000
v 9.932000 1.539000 -2.766000
v 10.318000 1.539000 -2.766000
v 8.227000 5.539000 -6.766000
v 10.345000 5.539000 -6.766000
v 8.028000 5.539000 -6.266000
v 10.475000 5.539000 -6.266000
v 7.847000 5.539000 -5.766000
v 10.507000 5.539000 -5.766000
v 7.580000 5.539000 -5.266000
v 10.617000 5.539000 -5.266000
v 7.486000 5.539000 -4.766000
v 10.734000 5.539000 -4.766000
v 7.557000 5.539000 -4.266000
v 10.945000 5.539000 -4.266000
v 7.701000 5.539000 -3.766000
v 11.080000 5.539000 -3.766000
v 7.829000 5.539000 -3.266000
v 11.006000 5.539000 -3.266000
v 8.218000 5.539000 -2.766000
v 10.860000 5.539000 -2.766000
v 9.289000 1.539000 -4.823000
v 9.289000 1.539000 -3.274000
v 9.789000 1.539000 -5.212000
v 9.789000 1.539000 -2.827000
v 10.289000 1.539000 -5.247000
v 10.289000 1.539000 -2.763000
v 10.789000 1.539000 -5.081000
v 10.789000 1.539000 -3.062000
v 7.789000 5.539000 -5.640000
v 7.789000 5.539000 -3.370000
v 8.289000 5.539000 -6.846000
v 8.289000 5.539000 -2.715000
v 8.789000 5.539000 -7.149000
v 8.789000 5.539000 -2.510000
v 9.289000 5.539000 -7.204000
v 9.289000 5.539000 -2.446000
v 9.789000 5.539000 -7.198000
v 9.789000 5.539000 -2.307000
v 10.289000 5.539000 -6.851000
v 10.289000 5.539000 -2.286000
v 10.789000 5.539000 -4.617000
v 10.789000 5.539000 -2.647000
v 7.789000 4.048000 -6.766000
v 7.789000 4.955000 -6.766000
v 8.289000 3.420000 -6.766000
v 8.289000 5.582000 -6.766000
v 8.789000 3.224000 -6.766000
v 8.789000 5.778000 -6.766000
v 9.289000 3.169000 -6.766000
v 9.289000 5.803000 -6.766000
v 9.789000 3.033000 -6.766000
v 9.789000 5.797000 -6.766000
v 10.289000 3.032000 -6.766000
v 10.289000 5.581000 -6.766000
v 10.789000 3.242000 -6.766000
v 10.789000 4.884000 -6.766000
v 7.789000 3.577000 -2.766000
v 7.789000 4.560000 -2.766000
v 8.289000 2.766000 -2.766000
v 8.289000 5.636000 -2.766000
v 8.789000 2.254000 -2.766000
v 8.789000 6.006000 -2.766000
v 9.289000 1.818000 -2.766000
v 9.289000 6.098000 -2.766000
v 9.789000 1.564000 -2.766000
v 9.789000 6.003000 -2.766000
v 10.289000 1.537000 -2.766000
v 10.289000 5.843000 -2.766000
v 10.789000 1.603000 -2.766000
v 10.789000 5.595000 -2.766000
v 11.289000 1.739000 -2.766000
v 11.289000 5.180000 -2.766000
v 11.789000 1.983000 -2.766000
v 11.789000 4.889000 -2.766000
v 12.289000 2.528000 -2.766000
v 12.289000 4.627000 -2.766000
v 12.789000 3.338000 -2.766000
v 12.789000 3.837000 -2.766000
v 10.062000 2.039000 -5.766000
v 11.850000 2.039000 -5.766000
v 9.169000 2.039000 -5.266000
v 11.996000 2.039000 -5.266000
v 8.648000 2.039000 -4.766000
v 12.052000 2.039000 -4.766000
v 8.500000 2.039000 -4.266000
v 12.042000 2.039000 -4.266000
v 8.550000 2.039000 -3.766000
v 11.905000 2.039000 -3.766000
v 8.705000 2.039000 -3.266000
v 11.748000 2.039000 -3.266000
v 9.026000 2.039000 -2.766000
v 11.860000 2.039000 -2.766000
v 9.094000 2.039000 -2.266000
v 12.004000 2.039000 -2.266000
v 9.015000 2.039000 -1.766000
v 11.880000 2.039000 -1.766000
v 9.146000 2.039000 -1.266000
v 11.424000 2.039000 -1.266000
v 10.266000 2.039000 -0.766000
v 10.743000 2.039000 -0.766000
v 8.884000 6.039000 -6.266000
v 9.382000 6.039000 -6.266000
v 8.102000 6.039000 -5.766000
v 9.995000 6.039000 -5.766000
v 7.764000 6.039000 -5.266000
v 10.233000 6.039000 -5.266000
v 7.671000 6.039000 -4.766000
v 10.447000 6.039000 -4.766000
v 7.669000 6.039000 -4.266000
v 10.577000 6.039000 -4.266000
v 7.757000 6.039000 -3.766000
v 10.579000 6.039000 -3.766000
v 8.028000 6.039000 -3.266000
v 10.412000 6.039000 -3.266000
v 8.875000 6.039000 -2.766000
v 9.662000 6.039000 -2.766000
v 8.789000 2.039000 -4.946000
v 8.789000 2.039000 -3.157000
v 9.289000 2.039000 -5.388000
v 9.289000 2.039000 -1.074000
v 9.789000 2.039000 -5.664000
v 9.789000 2.039000 -0.787000
v 10.289000 2.039000 -5.924000
v 10.289000 2.039000 -0.765000
v 10.789000 2.039000 -6.211000
v 10.789000 2.039000 -0.778000
v 11.289000 2.039000 -6.196000
v 11.289000 2.039000 -1.086000
v 11.789000 2.039000 -5.856000
v 11.789000 2.039000 -3.497000
v 11.789000 2.039000 -2.957000
v 11.789000 2.039000 -1.631000
v 7.789000 6.039000 -5.325000
v 7.789000 6.039000 -3.681000
v 8.289000 6.039000 -5.949000
v 8.289000 6.039000 -3.012000
v 8.789000 6.039000 -6.246000
v 8.789000 6.039000 -2.782000
v 9.289000 6.039000 -6.274000
v 9.289000 6.039000 -2.737000
v 9.789000 6.039000 -6.050000
v 9.789000 6.039000 -2.796000
v 10.289000 6.039000 -5.149000
v 10.289000 6.039000 -3.086000
v 7.789000 3.801000 -6.266000
v 7.789000 5.203000 -6.266000
v 8.289000 3.296000 -6.266000
v 8.289000 5.787000 -6.266000
v 8.789000 3.060000 -6.266000
v 8.789000 6.023000 -6.266000
v 9.289000 2.839000 -6.266000
v 9.289000 6.043000 -6.266000
v 9.789000 2.585000 -6.266000
v 9.789000 5.943000 -6.266000
v 10.289000 2.377000 -6.266000
v 10.289000 5.683000 -6.266000
v 10.789000 2.096000 -6.266000
v 10.789000 5.144000 -6.266000
v 11.289000 2.110000 -6.266000
v 11.289000 4.356000 -6.266000
v 11.789000 2.463000 -6.266000
v 11.789000 3.605000 -6.266000
v 8.289000 2.932000 -2.266000
v 8.289000 4.749000 -2.266000
v 8.789000 2.339000 -2.266000
v 8.789000 5.053000 -2.266000
v 9.289000 1.884000 -2.266000
v 9.289000 5.275000 -2.266000
v 9.789000 1.667000 -2.266000
v 9.789000 5.498000 -2.266000
v 10.289000 1.645000 -2.266000
v 10.289000 5.527000 -2.266000
v 10.789000 1.650000 -2.266000
v 10.789000 5.409000 -2.266000
v 11.289000 1.665000 -2.266000
v 11.289000 5.172000 -2.266000
v 11.789000 1.866000 -2.266000
v 11.789000 4.962000 -2.266000
v 12.289000 2.383000 -2.266000
v 12.289000 4.757000 -2.266000
v 12.789000 2.995000 -2.266000
v 12.789000 4.180000 -2.266000
v 9.964000 2.539000 -6.266000
v 11.839000 2.539000 -6.266000
v 9.135000 2.539000 -5.766000
v 12.215000 2.539000 -5.766000
v 8.586000 2.539000 -5.266000
v 12.322000 2.539000 -5.266000
v 8.200000 2.539000 -4.766000
v 12.375000 2.539000 -4.766000
v 8.065000 2.539000 -4.266000
v 12.381000 2.539000 -4.266000
v 8.123000 2.539000 -3.766000
v 12.291000 2.539000 -3.766000
v 8.236000 2.539000 -3.266000
v 12.210000 2.539000 -3.266000
v 8.503000 2.539000 -2.766000
v 12.299000 2.539000 -2.766000
v 8.557000 2.539000 -2.266000
v 12.447000 2.539000 -2.266000
v 8.656000 2.539000 -1.766000
v 12.329000 2.539000 -1.766000
v 8.796000 2.539000 -1.266000
v 11.899000 2.539000 -1.266000
v 9.154000 2.539000 -0.766000
v 11.402000 2.539000 -0.766000
v 8.763000 6.539000 -5.766000
v 9.218000 6.539000 -5.766000
v 8.103000 6.539000 -5.266000
v 9.935000 6.539000 -5.266000
v 7.865000 6.539000 -4.766000
v 10.287000 6.539000 -4.766000
v 7.755000 6.539000 -4.266000
v 10.399000 6.539000 -4.266000
v 7.839000 6.539000 -3.766000
v 10.315000 6.539000 -3.766000
v 8.174000 6.539000 -3.266000
v 9.986000 6.539000 -3.266000
v 8.289000 2.539000 -4.900000
v 8.289000 2.539000 -3.176000
v 8.789000 2.539000 -5.524000
v 8.789000 2.539000 -1.286000
v 9.289000 2.539000 -5.889000
v 9.289000 2.539000 -0.664000
v 9.789000 2.539000 -6.219000
v 9.789000 2.539000 -0.465000
v 10.289000 2.539000 -6.388000
v 10.289000 2.539000 -0.452000
v 10.789000 2.539000 -6.542000
v 10.789000 2.539000 -0.463000
v 11.289000 2.539000 -6.531000
v 11.289000 2.539000 -0.677000
v 11.789000 2.539000 -6.305000
v 11.789000 2.539000 -1.177000
v 12.289000 2.539000 -5.540000
v 12.289000 2.539000 -3.755000
v 12.289000 2.539000 -2.793000
v 12.289000 2.539000 -1.695000
v 7.789000 6.539000 -4.530000
v 7.789000 6.539000 -3.935000
v 8.289000 6.539000 -5.509000
v 8.289000 6.539000 -3.171000
v 8.789000 6.539000 -5.772000
v 8.789000 6.539000 -2.942000
v 9.289000 6.539000 -5.748000
v 9.289000 6.539000 -2.927000
v 9.789000 6.539000 -5.420000
v 9.789000 6.539000 -3.115000
v 10.289000 6.539000 -4.763000
v 10.289000 6.539000 -3.701000
v 7.789000 3.650000 -5.766000
v 7.789000 5.419000 -5.766000
v 8.289000 3.197000 -5.766000
v 8.289000 6.275000 -5.766000
v 8.789000 2.758000 -5.766000
v 8.789000 6.544000 -5.766000
v 9.289000 2.418000 -5.766000
v 9.289000 6.519000 -5.766000
v 9.789000 2.139000 -5.766000
v 9.789000 6.224000 -5.766000
v 10.289000 1.922000 -5.766000
v 10.289000 5.729000 -5.766000
v 10.789000 1.751000 -5.766000
v 10.789000 5.204000 -5.766000
v 11.289000 1.762000 -5.766000
v 11.289000 4.663000 -5.766000
v 11.789000 1.989000 -5.766000
v 11.789000 4.097000 -5.766000
v 12.289000 2.782000 -5.766000
v 12.289000 3.285000 -5.766000
v 8.289000 3.269000 -1.766000
v 8.289000 3.755000 -1.766000
v 8.789000 2.337000 -1.766000
v 8.789000 4.567000 -1.766000
v 9.289000 1.822000 -1.766000
v 9.289000 4.857000 -1.766000
v 9.789000 1.637000 -1.766000
v 9.789000 5.101000 -1.766000
v 10.289000 1.620000 -1.766000
v 10.289000 5.296000 -1.766000
v 10.789000 1.629000 -1.766000
v 10.789000 5.294000 -1.766000
v 11.289000 1.748000 -1.766000
v 11.289000 5.083000 -1.766000
v 11.789000 1.967000 -1.766000
v 11.789000 4.882000 -1.766000
v 12.289000 2.500000 -1.766000
v 12.289000 4.663000 -1.766000
v 12.789000 3.214000 -1.766000
v 12.789000 3.961000 -1.766000
v 9.765000 3.039000 -6.766000
v 10.329000 3.039000 -6.766000
v 8.857000 3.039000 -6.266000
v 11.975000 3.039000 -6.266000
v 8.462000 3.039000 -5.766000
v 12.313000 3.039000 -5.766000
v 8.112000 3.039000 -5.266000
v 12.412000 3.039000 -5.266000
v 7.802000 3.039000 -4.766000
v 12.465000 3.039000 -4.766000
v 7.706000 3.039000 -4.266000
v 12.481000 3.039000 -4.266000
v 7.774000 3.039000 -3.766000
v 12.436000 3.039000 -3.766000
v 7.859000 3.039000 -3.266000
v 12.485000 3.039000 -3.266000
v 8.119000 3.039000 -2.766000
v 12.690000 3.039000 -2.766000
v 8.241000 3.039000 -2.266000
v 12.808000 3.039000 -2.266000
v 8.355000 3.039000 -1.766000
v 12.723000 3.039000 -1.766000
v 8.671000 3.039000 -1.266000
v 12.378000 3.039000 -1.266000
v 9.029000 3.039000 -0.766000
v 11.544000 3.039000 -0.766000
v 8.208000 7.039000 -4.766000
v 9.946000 7.039000 -4.766000
v 8.058000 7.039000 -4.266000
v 10.096000 7.039000 -4.266000
v 8.170000 7.039000 -3.766000
v 9.984000 7.039000 -3.766000
v 8.750000 7.039000 -3.266000
v 9.405000 7.039000 -3.266000
v 7.789000 3.039000 -4.731000
v 7.789000 3.039000 -3.553000
v 8.289000 3.039000 -5.481000
v 8.289000 3.039000 -1.959000
v 8.789000 3.039000 -6.215000
v 8.789000 3.039000 -1.083000
v 9.289000 3.039000 -6.557000
v 9.289000 3.039000 -0.564000
v 9.789000 3.039000 -6.772000
v 9.789000 3.039000 -0.379000
v 10.289000 3.039000 -6.771000
v 10.289000 3.039000 -0.370000
v 10.789000 3.039000 -6.704000
v 10.789000 3.039000 -0.382000
v 11.289000 3.039000 -6.624000
v 11.289000 3.039000 -0.582000
v 11.789000 3.039000 -6.416000
v 11.789000 3.039000 -0.921000
v 12.289000 3.039000 -5.825000
v 12.289000 3.039000 -1.194000
v 12.789000 3.039000 -2.454000
v 12.789000 3.039000 -2.002000
v 8.289000 7.039000 -4.879000
v 8.289000 7.039000 -3.586000
v 8.789000 7.039000 -5.210000
v 8.789000 7.039000 -3.254000
v 9.289000 7.039000 -5.230000
v 9.289000 7.039000 -3.235000
v 9.789000 7.039000 -4.963000
v 9.789000 7.039000 -3.502000
v 7.289000 3.966000 -5.266000
v 7.289000 5.069000 -5.266000
v 7.789000 3.384000 -5.266000
v 7.789000 6.099000 -5.266000
v 8.289000 2.862000 -5.266000
v 8.289000 6.701000 -5.266000
v 8.789000 2.345000 -5.266000
v 8.789000 6.978000 -5.266000
v 9.289000 1.915000 -5.266000
v 9.289000 6.999000 -5.266000
v 9.789000 1.588000 -5.266000
v 9.789000 6.708000 -5.266000
v 10.289000 1.552000 -5.266000
v 10.289000 5.954000 -5.266000
v 10.789000 1.594000 -5.266000
v 10.789000 5.308000 -5.266000
v 11.289000 1.662000 -5.266000
v 11.289000 4.750000 -5.266000
v 11.789000 1.870000 -5.266000
v 11.789000 4.227000 -5.266000
v 12.289000 2.459000 -5.266000
v 12.289000 3.608000 -5.266000
v 8.789000 2.558000 -1.266000
v 8.789000 4.111000 -1.266000
v 9.289000 1.928000 -1.266000
v 9.289000 4.650000 -1.266000
v 9.789000 1.728000 -1.266000
v 9.789000 4.854000 -1.266000
v 10.289000 1.710000 -1.266000
v 10.289000 4.990000 -1.266000
v 10.789000 1.719000 -1.266000
v 10.789000 4.986000 -1.266000
v 11.289000 1.935000 -1.266000
v 11.289000 4.724000 -1.266000
v 11.789000 2.389000 -1.266000
v 11.789000 4.569000 -1.266000
v 12.289000 2.919000 -1.266000
v 12.289000 4.256000 -1.266000
v 9.268000 3.539000 -7.266000
v 9.779000 3.539000 -7.266000
v 8.135000 3.539000 -6.766000
v 10.945000 3.539000 -6.766000
v 7.985000 3.539000 -6.266000
v 11.833000 3.539000 -6.266000
v 7.907000 3.539000 -5.766000
v 12.211000 3.539000 -5.766000
v 7.601000 3.539000 -5.266000
v 12.318000 3.539000 -5.266000
v 7.485000 3.539000 -4.766000
v 12.370000 3.539000 -4.766000
v 7.535000 3.539000 -4.266000
v 12.397000 3.539000 -4.266000
v 7.651000 3.539000 -3.766000
v 12.413000 3.539000 -3.766000
v 7.700000 3.539000 -3.266000
v 12.543000 3.539000 -3.266000
v 7.805000 3.539000 -2.766000
v 12.812000 3.539000 -2.766000
v 8.073000 3.539000 -2.266000
v 12.919000 3.539000 -2.266000
v 8.266000 3.539000 -1.766000
v 12.842000 3.539000 -1.766000
v 8.611000 3.539000 -1.266000
v 12.537000 3.539000 -1.266000
v 9.024000 3.539000 -0.766000
v 11.500000 3.539000 -0.766000
v 7.789000 3.539000 -5.542000
v 7.789000 3.539000 -2.808000
v 8.289000 3.539000 -6.958000
v 8.289000 3.539000 -1.714000
v 8.789000 3.539000 -7.227000
v 8.789000 3.539000 -1.065000
v 9.289000 3.539000 -7.270000
v 9.289000 3.539000 -0.560000
v 9.789000 3.539000 -7.264000
v 9.789000 3.539000 -0.377000
v 10.289000 3.539000 -7.084000
v 10.289000 3.539000 -0.386000
v 10.789000 3.539000 -6.854000
v 10.789000 3.539000 -0.488000
v 11.289000 3.539000 -6.580000
v 11.289000 3.539000 -0.685000
v 11.789000 3.539000 -6.301000
v 11.789000 3.539000 -0.853000
v 12.289000 3.539000 -5.523000
v 12.289000 3.539000 -1.058000
v 12.789000 3.539000 -2.819000
v 12.789000 3.539000 -1.636000
v 7.289000 3.805000 -4.766000
v 7.289000 5.230000 -4.766000
v 7.789000 3.065000 -4.766000
v 7.789000 6.353000 -4.766000
v 8.289000 2.454000 -4.766000
v 8.289000 7.105000 -4.766000
v 8.789000 1.931000 -4.766000
v 8.789000 7.341000 -4.766000
v 9.289000 1.513000 -4.766000
v 9.289000 7.356000 -4.766000
v 9.789000 1.281000 -4.766000
v 9.789000 7.160000 -4.766000
v 10.289000 1.264000 -4.766000
v 10.289000 6.535000 -4.766000
v 10.789000 1.445000 -4.766000
v 10.789000 5.439000 -4.766000
v 11.289000 1.643000 -4.766000
v 11.289000 4.869000 -4.766000
v 11.789000 1.833000 -4.766000
v 11.789000 4.335000 -4.766000
v 12.289000 2.351000 -4.766000
v 12.289000 3.712000 -4.766000
v 9.289000 2.352000 -0.766000
v 9.289000 4.229000 -0.766000
v 9.789000 2.059000 -0.766000
v 9.789000 4.519000 -0.766000
v 10.289000 2.037000 -0.766000
v 10.289000 4.504000 -0.766000
v 10.789000 2.050000 -0.766000
v 10.789000 4.181000 -0.766000
v 11.289000 2.371000 -0.766000
v 11.289000 3.760000 -0.766000
v 8.177000 4.039000 -7.266000
v 10.412000 4.039000 -7.266000
v 7.792000 4.039000 -6.766000
v 10.996000 4.039000 -6.766000
v 7.677000 4.039000 -6.266000
v 11.449000 4.039000 -6.266000
v 7.531000 4.039000 -5.766000
v 11.844000 4.039000 -5.766000
v 7.258000 4.039000 -5.266000
v 11.986000 4.039000 -5.266000
v 7.178000 4.039000 -4.766000
v 12.068000 4.039000 -4.766000
v 7.296000 4.039000 -4.266000
v 12.231000 4.039000 -4.266000
v 7.521000 4.039000 -3.766000
v 12.319000 4.039000 -3.766000
v 7.602000 4.039000 -3.266000
v 12.447000 4.039000 -3.266000
v 7.693000 4.039000 -2.766000
v 12.732000 4.039000 -2.766000
v 8.014000 4.039000 -2.266000
v 12.845000 4.039000 -2.266000
v 8.372000 4.039000 -1.766000
v 12.763000 4.039000 -1.766000
v 8.748000 4.039000 -1.266000
v 12.433000 4.039000 -1.266000
v 9.149000 4.039000 -0.766000
v 10.930000 4.039000 -0.766000
v 7.289000 4.039000 -5.342000
v 7.289000 4.039000 -4.283000
v 7.789000 4.039000 -6.759000
v 7.789000 4.039000 -2.564000
v 8.289000 4.039000 -7.346000
v 8.289000 4.039000 -1.905000
v 8.789000 4.039000 -7.537000
v 8.789000 4.039000 -1.217000
v 9.289000 4.039000 -7.585000
v 9.289000 4.039000 -0.661000
v 9.789000 4.039000 -7.581000
v 9.789000 4.039000 -0.464000
v 10.289000 4.039000 -7.365000
v 10.289000 4.039000 -0.474000
v 10.789000 4.039000 -6.942000
v 10.789000 4.039000 -0.694000
v 11.289000 4.039000 -6.445000
v 11.289000 4.039000 -0.878000
v 11.789000 4.039000 -5.860000
v 11.789000 4.039000 -0.930000
v 12.289000 4.039000 -4.066000
v 12.289000 4.039000 -1.148000
v 12.789000 4.039000 -2.614000
v 12.789000 4.039000 -1.842000
v 7.289000 4.057000 -4.266000
v 7.289000 4.978000 -4.266000
v 7.789000 2.875000 -4.266000
v 7.789000 6.625000 -4.266000
v 8.289000 2.305000 -4.266000
v 8.289000 7.236000 -4.266000
v 8.789000 1.810000 -4.266000
v 8.789000 7.449000 -4.266000
v 9.289000 1.422000 -4.266000
v 9.289000 7.463000 -4.266000
v 9.789000 1.206000 -4.266000
v 9.789000 7.285000 -4.266000
v 10.289000 1.189000 -4.266000
v 10.289000 6.780000 -4.266000
v 10.789000 1.365000 -4.266000
v 10.789000 5.719000 -4.266000
v 11.289000 1.652000 -4.266000
v 11.289000 5.158000 -4.266000
v 11.789000 1.848000 -4.266000
v 11.789000 4.619000 -4.266000
v 12.289000 2.348000 -4.266000
v 12.289000 3.874000 -4.266000
v 8.057000 4.539000 -7.266000
v 10.528000 4.539000 -7.266000
v 7.707000 4.539000 -6.766000
v 10.887000 4.539000 -6.766000
v 7.595000 4.539000 -6.266000
v 11.202000 4.539000 -6.266000
v 7.433000 4.539000 -5.766000
v 11.412000 4.539000 -5.766000
v 7.168000 4.539000 -5.266000
v 11.518000 4.539000 -5.266000
v 7.094000 4.539000 -4.766000
v 11.589000 4.539000 -4.766000
v 7.204000 4.539000 -4.266000
v 11.877000 4.539000 -4.266000
v 7.493000 4.539000 -3.766000
v 11.992000 4.539000 -3.766000
v 7.666000 4.539000 -3.266000
v 12.070000 4.539000 -3.266000
v 7.780000 4.539000 -2.766000
v 12.396000 4.539000 -2.766000
v 8.135000 4.539000 -2.266000
v 12.547000 4.539000 -2.266000
v 8.749000 4.539000 -1.766000
v 12.439000 4.539000 -1.766000
v 9.143000 4.539000 -1.266000
v 11.883000 4.539000 -1.266000
v 7.289000 4.539000 -5.526000
v 7.289000 4.539000 -4.098000
v 7.789000 4.539000 -6.932000
v 7.789000 4.539000 -2.746000
v 8.289000 4.539000 -7.438000
v 8.289000 4.539000 -2.149000
v 8.789000 4.539000 -7.616000
v 8.789000 4.539000 -1.727000
v 9.289000 4.539000 -7.666000
v 9.289000 4.539000 -1.071000
v 9.789000 4.539000 -7.663000
v 9.789000 4.539000 -0.786000
v 10.289000 4.539000 -7.462000
v 10.289000 4.539000 -0.800000
v 10.789000 4.539000 -6.915000
v 10.789000 4.539000 -0.952000
v 11.289000 4.539000 -6.061000
v 11.289000 4.539000 -1.125000
v 11.789000 4.539000 -4.407000
v 11.789000 4.539000 -1.236000
v 12.289000 4.539000 -2.911000
v 12.289000 4.539000 -1.545000
v 7.789000 3.004000 -3.766000
v 7.789000 6.366000 -3.766000
v 8.289000 2.355000 -3.766000
v 8.289000 7.138000 -3.766000
v 8.789000 1.856000 -3.766000
v 8.789000 7.368000 -3.766000
v 9.289000 1.415000 -3.766000
v 9.289000 7.383000 -3.766000
v 9.789000 1.201000 -3.766000
v 9.789000 7.192000 -3.766000
v 10.289000 1.186000 -3.766000
v 10.289000 6.604000 -3.766000
v 10.789000 1.364000 -3.766000
v 10.789000 5.802000 -3.766000
v 11.289000 1.705000 -3.766000
v 11.289000 5.287000 -3.766000
v 11.789000 1.954000 -3.766000
v 11.789000 4.737000 -3.766000
v 12.289000 2.532000 -3.766000
v 12.289000 4.112000 -3.766000
f 123 631 657
f 631 124 657
f 125 475 503
f 503 475 43
f 475 555 43
f 475 557 555
f 557 123 657
f 629 557 657
f 555 557 629
f 629 657 124
f 3 629 124
f 1 629 3
f 44 1 111
f 1 83 111
f 1 3 83
f 83 126 111
f 505 127 503
f 503 127 125
f 503 43 45
f 503 45 505
f 113 46 44
f 113 44 111
f 111 126 113
f 113 126 128
f 473 47 505
f 47 127 505
f 47 129 127
f 505 45 473
f 115 48 46
f 115 46 113
f 113 128 115
f 115 128 130
f 131 371 413
f 509 413 474
f 413 129 474
f 129 47 474
f 413 371 129
f 49 509 474
f 117 50 48
f 117 48 115
f 115 130 117
f 117 130 132
f 415 133 413
f 413 133 131
f 413 511 415
f 413 509 511
f 509 49 51
f 509 51 511
f 119 52 50
f 119 50 117
f 117 132 119
f 119 132 134
f 415 372 133
f 372 415 135
f 415 513 135
f 415 511 513
f 511 51 556
f 597 511 556
f 513 511 597
f 630 669 597
f 630 597 556
f 4 136 669
f 630 4 669
f 2 4 630
f 119 84 52
f 84 2 52
f 84 4 2
f 119 134 84
f 513 476 135
f 476 513 558
f 558 513 597
f 558 597 632
f 632 597 669
f 669 136 632
f 502 489 53
f 137 573 502
f 573 489 502
f 573 571 489
f 573 645 571
f 647 645 573
f 28 17 138
f 17 647 138
f 17 645 647
f 28 54 17
f 300 275 55
f 139 387 300
f 387 275 300
f 387 385 275
f 491 502 53
f 385 491 53
f 387 491 385
f 137 502 491
f 19 28 138
f 97 54 28
f 19 97 28
f 99 97 19
f 216 193 140
f 193 99 140
f 193 97 99
f 322 297 216
f 216 297 193
f 322 56 297
f 198 169 57
f 277 300 55
f 277 55 169
f 141 277 169
f 198 141 169
f 139 300 277
f 142 218 216
f 142 216 140
f 324 216 218
f 322 216 324
f 56 322 403
f 322 430 403
f 322 324 430
f 430 58 403
f 198 57 171
f 57 143 171
f 57 59 143
f 141 198 171
f 195 218 142
f 218 195 144
f 326 218 144
f 324 218 326
f 432 324 326
f 430 324 432
f 58 430 60
f 60 430 432
f 104 79 61
f 59 79 104
f 145 59 104
f 143 59 145
f 196 146 222
f 326 144 196
f 222 326 196
f 328 326 222
f 404 432 62
f 432 328 62
f 432 326 328
f 60 432 404
f 104 61 81
f 61 147 81
f 61 63 147
f 145 104 81
f 148 224 222
f 148 222 146
f 298 328 64
f 328 224 64
f 328 222 224
f 62 328 298
f 82 147 108
f 147 65 108
f 147 63 65
f 149 82 108
f 66 194 224
f 148 66 224
f 150 66 148
f 64 224 194
f 80 108 65
f 149 108 80
f 67 149 80
f 151 149 67
f 100 152 68
f 100 68 98
f 98 66 100
f 100 66 150
f 211 153 170
f 153 67 170
f 153 151 67
f 69 211 170
f 20 154 70
f 20 70 18
f 18 68 20
f 20 68 152
f 211 172 153
f 317 155 276
f 276 155 69
f 155 172 69
f 172 211 69
f 71 317 276
f 646 675 72
f 646 70 675
f 70 156 675
f 70 154 156
f 317 278 155
f 71 386 317
f 386 278 317
f 386 388 278
f 490 521 157
f 388 490 157
f 386 490 388
f 574 158 521
f 490 574 521
f 572 574 490
f 675 648 72
f 648 572 72
f 648 574 572
f 675 156 648
f 521 492 157
f 521 158 492
f 225 559 585
f 585 559 123
f 559 631 123
f 559 633 631
f 124 631 27
f 631 5 27
f 631 633 5
f 5 226 27
f 227 477 125
f 125 477 475
f 477 225 585
f 557 477 585
f 475 477 557
f 585 123 557
f 27 3 124
f 3 27 226
f 85 3 226
f 83 3 85
f 85 228 83
f 83 228 126
f 229 125 127
f 229 227 125
f 126 230 128
f 228 230 126
f 231 373 411
f 129 411 373
f 229 129 373
f 127 129 229
f 230 181 219
f 130 230 219
f 128 230 130
f 181 232 219
f 371 131 411
f 131 231 411
f 131 233 231
f 411 129 371
f 130 219 182
f 234 130 182
f 132 130 234
f 219 232 182
f 235 263 307
f 133 307 263
f 233 133 263
f 131 133 233
f 132 236 134
f 234 236 132
f 309 237 307
f 307 237 235
f 307 133 372
f 417 307 372
f 309 307 417
f 135 417 372
f 4 39 136
f 86 238 39
f 4 86 39
f 84 86 4
f 84 134 86
f 86 134 236
f 311 239 309
f 309 239 237
f 309 419 311
f 309 417 419
f 417 135 476
f 515 417 476
f 419 417 515
f 558 599 515
f 558 515 476
f 634 240 599
f 558 634 599
f 632 634 558
f 39 6 136
f 6 632 136
f 6 634 632
f 39 238 6
f 313 241 311
f 311 241 239
f 311 421 313
f 311 419 421
f 419 517 421
f 419 515 517
f 242 517 560
f 517 599 560
f 517 515 599
f 599 240 560
f 313 264 241
f 264 313 374
f 374 313 421
f 374 421 478
f 478 421 517
f 517 242 478
f 586 573 137
f 658 647 586
f 586 647 573
f 658 138 647
f 243 389 139
f 139 389 387
f 389 491 387
f 493 491 389
f 575 586 137
f 491 575 137
f 493 575 491
f 586 575 649
f 586 649 658
f 244 30 19
f 244 19 138
f 649 244 138
f 658 649 138
f 112 99 30
f 30 99 19
f 112 140 99
f 245 279 141
f 141 279 277
f 139 277 279
f 139 279 243
f 21 30 244
f 30 21 246
f 114 30 246
f 112 30 114
f 140 112 142
f 142 112 114
f 247 173 143
f 143 173 171
f 141 171 173
f 141 173 245
f 248 116 114
f 248 114 246
f 142 114 195
f 114 220 195
f 114 116 220
f 220 144 195
f 249 143 145
f 249 247 143
f 250 118 116
f 250 116 248
f 196 220 146
f 220 118 146
f 220 116 118
f 144 220 196
f 106 81 147
f 145 81 106
f 251 145 106
f 249 145 251
f 252 120 118
f 252 118 250
f 146 118 148
f 148 118 120
f 82 106 147
f 251 106 82
f 149 251 82
f 253 251 149
f 254 122 120
f 254 120 252
f 148 120 150
f 150 120 122
f 255 149 151
f 255 253 149
f 152 100 122
f 254 152 122
f 256 152 254
f 150 122 100
f 257 151 153
f 257 255 151
f 22 258 154
f 22 154 20
f 20 152 22
f 22 152 256
f 153 172 257
f 257 172 174
f 259 174 172
f 259 172 155
f 154 260 156
f 258 260 154
f 155 278 259
f 259 278 280
f 388 425 261
f 280 388 261
f 278 388 280
f 157 425 388
f 574 605 158
f 650 262 605
f 574 650 605
f 648 650 574
f 648 156 650
f 650 156 260
f 425 390 261
f 157 492 425
f 492 390 425
f 492 494 390
f 605 576 158
f 576 492 158
f 576 494 492
f 605 262 576
f 331 561 225
f 225 561 559
f 561 633 559
f 635 633 561
f 635 5 633
f 7 5 635
f 7 332 5
f 5 332 226
f 333 479 227
f 227 479 477
f 225 477 479
f 225 479 331
f 85 226 332
f 85 332 87
f 228 85 215
f 85 183 215
f 85 87 183
f 183 334 215
f 335 375 409
f 229 409 375
f 333 229 375
f 227 229 333
f 217 230 228
f 217 228 215
f 287 323 334
f 323 215 334
f 323 217 215
f 287 336 323
f 337 265 303
f 335 409 265
f 265 409 303
f 409 373 303
f 373 231 303
f 409 229 373
f 217 181 230
f 217 323 181
f 323 338 181
f 338 232 181
f 323 288 338
f 323 336 288
f 305 339 303
f 303 339 337
f 303 231 233
f 303 233 305
f 182 221 234
f 182 232 221
f 232 340 221
f 232 338 340
f 341 159 203
f 339 305 159
f 159 305 203
f 305 263 203
f 263 235 203
f 305 233 263
f 234 221 184
f 342 234 184
f 236 234 342
f 221 340 184
f 205 343 203
f 203 343 341
f 203 235 237
f 203 237 205
f 88 344 238
f 88 238 86
f 86 236 88
f 88 236 342
f 207 345 205
f 205 345 343
f 205 237 239
f 205 239 207
f 634 671 240
f 8 346 671
f 634 8 671
f 6 8 634
f 6 238 8
f 8 238 344
f 209 347 207
f 207 347 345
f 207 239 241
f 207 241 209
f 560 601 242
f 671 636 240
f 240 636 560
f 636 348 560
f 348 601 560
f 671 346 636
f 209 160 347
f 241 264 209
f 264 160 209
f 264 266 160
f 374 423 349
f 266 374 349
f 264 374 266
f 480 350 423
f 374 480 423
f 478 480 374
f 601 562 242
f 562 478 242
f 562 480 478
f 601 348 562
f 423 376 349
f 423 350 376
f 408 389 243
f 351 495 408
f 495 389 408
f 495 493 389
f 588 575 352
f 575 495 352
f 575 493 495
f 660 649 588
f 588 649 575
f 660 244 649
f 353 281 245
f 245 281 279
f 391 408 243
f 279 391 243
f 281 391 279
f 351 408 391
f 577 588 352
f 588 577 651
f 588 651 660
f 354 32 21
f 354 21 244
f 651 354 244
f 660 651 244
f 32 246 21
f 355 175 247
f 247 175 173
f 245 173 175
f 245 175 353
f 356 34 32
f 356 32 354
f 246 32 248
f 248 32 34
f 357 247 249
f 357 355 247
f 23 34 356
f 23 358 34
f 358 248 34
f 358 250 248
f 359 249 251
f 359 357 249
f 250 360 252
f 358 360 250
f 361 251 253
f 361 359 251
f 252 362 254
f 360 362 252
f 363 253 255
f 363 361 253
f 254 364 256
f 362 364 254
f 365 255 257
f 365 363 255
f 24 366 258
f 24 258 22
f 22 256 24
f 24 256 364
f 257 174 365
f 365 174 176
f 367 176 174
f 367 174 259
f 258 368 260
f 366 368 258
f 259 280 367
f 367 280 282
f 280 261 426
f 392 280 426
f 282 280 392
f 369 392 426
f 578 370 606
f 578 606 262
f 650 578 262
f 652 578 650
f 650 260 652
f 652 260 368
f 390 426 261
f 426 390 369
f 390 496 369
f 390 494 496
f 370 496 606
f 496 576 606
f 496 494 576
f 262 606 576
f 435 563 583
f 583 563 655
f 655 563 637
f 655 637 25
f 25 637 9
f 9 436 25
f 437 481 501
f 435 583 481
f 481 583 501
f 583 561 501
f 561 331 501
f 655 635 561
f 655 561 583
f 25 7 635
f 25 635 655
f 436 89 109
f 436 109 332
f 25 436 332
f 7 25 332
f 109 89 213
f 213 89 185
f 185 438 213
f 439 377 407
f 437 501 377
f 377 501 407
f 501 479 407
f 479 333 407
f 501 331 479
f 109 87 332
f 213 183 87
f 213 87 109
f 438 289 321
f 438 321 334
f 213 438 334
f 183 213 334
f 289 440 321
f 441 267 301
f 439 407 267
f 267 407 301
f 407 375 301
f 375 335 301
f 407 333 375
f 321 287 334
f 321 440 287
f 440 336 287
f 440 442 336
f 443 161 199
f 441 301 161
f 161 301 199
f 301 265 199
f 265 337 199
f 301 335 265
f 288 325 338
f 288 336 325
f 336 444 325
f 336 442 444
f 201 445 199
f 199 445 443
f 199 337 339
f 199 339 201
f 327 340 338
f 327 338 325
f 325 444 327
f 327 444 446
f 159 341 201
f 341 445 201
f 341 447 445
f 201 339 159
f 186 448 342
f 186 342 184
f 327 290 340
f 290 184 340
f 290 186 184
f 327 446 290
f 449 341 343
f 449 447 341
f 90 450 344
f 90 344 88
f 88 342 90
f 90 342 448
f 451 343 345
f 451 449 343
f 10 452 346
f 10 346 8
f 8 344 10
f 10 344 450
f 453 345 347
f 453 451 345
f 638 454 348
f 638 348 636
f 636 346 638
f 638 346 452
f 347 160 453
f 453 160 162
f 266 315 455
f 162 266 455
f 160 266 162
f 349 315 266
f 480 519 350
f 564 456 519
f 480 564 519
f 562 564 480
f 562 348 564
f 564 348 454
f 315 268 455
f 349 376 315
f 376 268 315
f 376 378 268
f 519 482 350
f 482 376 350
f 482 378 376
f 519 456 482
f 504 495 351
f 504 352 495
f 302 281 353
f 457 393 302
f 393 281 302
f 393 391 281
f 497 504 351
f 391 497 351
f 393 497 391
f 577 352 504
f 497 577 504
f 579 577 497
f 662 651 458
f 651 579 458
f 651 577 579
f 662 354 651
f 459 177 355
f 355 177 175
f 283 302 353
f 175 283 353
f 177 283 175
f 457 302 283
f 653 662 458
f 653 460 662
f 460 354 662
f 460 356 354
f 461 355 357
f 461 459 355
f 462 36 23
f 356 462 23
f 460 462 356
f 36 358 23
f 463 357 359
f 463 461 357
f 464 38 36
f 464 36 462
f 358 36 360
f 360 36 38
f 465 359 361
f 465 463 359
f 466 40 38
f 466 38 464
f 360 38 362
f 362 38 40
f 467 361 363
f 467 465 361
f 468 42 40
f 468 40 466
f 362 40 364
f 364 40 42
f 178 467 212
f 467 365 212
f 467 363 365
f 469 178 212
f 366 24 42
f 468 366 42
f 470 366 468
f 364 42 24
f 176 212 365
f 284 469 318
f 318 469 367
f 469 212 367
f 212 176 367
f 471 284 318
f 654 472 676
f 676 368 654
f 368 470 654
f 368 366 470
f 282 318 367
f 318 282 471
f 282 394 471
f 282 392 394
f 392 369 522
f 498 392 522
f 394 392 498
f 498 522 370
f 578 498 370
f 580 498 578
f 472 580 676
f 580 652 676
f 580 578 652
f 368 676 652
f 496 522 369
f 370 522 496
f 523 565 435
f 435 565 563
f 565 637 563
f 639 637 565
f 639 9 637
f 11 9 639
f 11 524 9
f 9 524 436
f 525 483 437
f 437 483 481
f 435 481 483
f 435 483 523
f 89 436 524
f 89 524 91
f 91 185 89
f 187 185 91
f 187 526 185
f 185 526 438
f 527 269 299
f 299 269 439
f 269 377 439
f 269 379 377
f 437 377 379
f 437 379 525
f 289 438 526
f 289 526 291
f 440 289 427
f 289 397 427
f 289 291 397
f 397 528 427
f 529 163 197
f 527 299 163
f 163 299 197
f 299 267 197
f 267 441 197
f 299 439 267
f 429 442 440
f 429 440 427
f 427 528 429
f 429 528 530
f 531 73 101
f 529 197 73
f 73 197 101
f 197 161 101
f 161 443 101
f 197 441 161
f 431 444 442
f 431 442 429
f 429 530 431
f 431 530 532
f 103 533 101
f 101 533 531
f 101 443 445
f 101 445 103
f 433 446 444
f 433 444 431
f 431 532 433
f 433 532 534
f 105 535 103
f 103 535 533
f 103 445 447
f 103 447 105
f 186 223 448
f 292 536 223
f 186 292 223
f 290 292 186
f 433 398 446
f 398 290 446
f 398 292 290
f 433 534 398
f 107 537 105
f 105 537 535
f 105 447 449
f 105 449 107
f 92 538 450
f 92 450 90
f 223 188 448
f 188 90 448
f 188 92 90
f 223 536 188
f 107 74 537
f 539 74 107
f 449 539 107
f 451 539 449
f 12 540 452
f 12 452 10
f 10 450 12
f 12 450 538
f 541 451 453
f 541 539 451
f 640 542 454
f 640 454 638
f 638 452 640
f 640 452 540
f 453 162 541
f 541 162 164
f 543 164 162
f 543 162 455
f 566 544 456
f 566 456 564
f 564 454 566
f 566 454 542
f 455 268 543
f 543 268 270
f 378 270 268
f 378 380 270
f 482 380 378
f 482 484 380
f 482 456 484
f 484 456 544
f 410 393 457
f 506 497 410
f 410 497 393
f 590 579 506
f 506 579 497
f 590 458 579
f 200 177 459
f 545 285 200
f 285 177 200
f 285 283 177
f 395 410 457
f 283 395 457
f 285 395 283
f 410 395 499
f 410 499 506
f 506 499 581
f 506 581 590
f 546 664 653
f 546 653 458
f 581 546 458
f 590 581 458
f 664 460 653
f 461 202 459
f 459 202 200
f 545 200 202
f 545 202 547
f 548 666 664
f 548 664 546
f 460 664 462
f 462 664 666
f 202 461 179
f 461 549 179
f 461 463 549
f 547 202 179
f 550 668 666
f 550 666 548
f 462 666 464
f 464 666 668
f 180 549 206
f 549 465 206
f 549 463 465
f 551 180 206
f 552 670 668
f 552 668 550
f 464 668 466
f 466 668 670
f 467 208 465
f 465 208 206
f 551 206 208
f 551 208 553
f 582 554 600
f 670 552 582
f 600 670 582
f 672 670 600
f 466 670 468
f 468 670 672
f 178 208 467
f 286 553 314
f 314 553 469
f 553 208 469
f 208 178 469
f 286 314 422
f 286 422 396
f 396 422 518
f 396 518 500
f 600 554 500
f 518 600 500
f 602 600 518
f 674 600 602
f 672 600 674
f 468 672 470
f 470 672 674
f 284 314 469
f 471 424 284
f 424 314 284
f 424 422 314
f 520 422 424
f 518 422 520
f 604 518 520
f 602 518 604
f 654 674 472
f 674 604 472
f 674 602 604
f 470 674 654
f 394 424 471
f 498 520 394
f 394 520 424
f 580 604 498
f 498 604 520
f 472 604 580
f 584 565 523
f 607 641 584
f 641 565 584
f 641 639 565
f 26 11 608
f 11 641 608
f 11 639 641
f 26 524 11
f 609 381 405
f 405 381 525
f 381 483 525
f 381 485 483
f 567 584 523
f 483 567 523
f 485 567 483
f 607 584 567
f 13 26 608
f 91 524 26
f 13 91 26
f 93 91 13
f 93 187 91
f 189 187 93
f 526 187 319
f 187 293 319
f 187 189 293
f 293 610 319
f 611 271 527
f 527 271 269
f 271 609 405
f 379 271 405
f 269 271 379
f 405 525 379
f 319 291 526
f 291 319 610
f 399 291 610
f 397 291 399
f 399 612 397
f 397 612 528
f 613 165 529
f 529 165 163
f 527 163 165
f 527 165 611
f 528 614 530
f 612 614 528
f 615 75 531
f 531 75 73
f 529 73 75
f 529 75 613
f 530 616 532
f 614 616 530
f 617 531 533
f 617 615 531
f 532 618 534
f 616 618 532
f 619 533 535
f 619 617 533
f 292 329 536
f 400 620 329
f 292 400 329
f 398 400 292
f 398 534 400
f 400 534 618
f 621 535 537
f 621 619 535
f 92 121 538
f 190 622 121
f 92 190 121
f 188 190 92
f 329 294 536
f 294 188 536
f 294 190 188
f 329 620 294
f 537 74 621
f 621 74 76
f 623 76 74
f 623 74 539
f 12 41 540
f 121 94 538
f 538 94 12
f 94 624 12
f 624 41 12
f 121 622 94
f 625 539 541
f 625 623 539
f 640 673 542
f 41 14 540
f 540 14 640
f 14 626 640
f 626 673 640
f 41 624 14
f 541 164 625
f 625 164 166
f 627 166 164
f 627 164 543
f 568 628 544
f 568 544 566
f 673 642 542
f 642 566 542
f 642 568 566
f 673 626 642
f 543 270 627
f 627 270 272
f 380 272 270
f 380 382 272
f 484 382 380
f 484 486 382
f 484 544 486
f 486 544 628
f 304 285 545
f 412 395 304
f 304 395 285
f 508 499 412
f 412 499 395
f 592 581 508
f 508 581 499
f 592 546 581
f 547 306 545
f 545 306 304
f 414 304 306
f 412 304 414
f 510 412 414
f 508 412 510
f 594 508 510
f 592 508 594
f 546 592 548
f 548 592 594
f 204 179 549
f 179 204 547
f 204 306 547
f 204 308 306
f 416 306 308
f 414 306 416
f 512 414 416
f 510 414 512
f 596 510 512
f 594 510 596
f 548 594 550
f 550 594 596
f 180 204 549
f 551 310 180
f 310 204 180
f 310 308 204
f 418 308 310
f 416 308 418
f 514 416 418
f 512 416 514
f 598 512 514
f 596 512 598
f 550 596 552
f 552 596 598
f 553 312 551
f 551 312 310
f 420 310 312
f 418 310 420
f 516 418 420
f 514 418 516
f 582 598 554
f 598 516 554
f 598 514 516
f 552 598 582
f 286 312 553
f 396 420 286
f 286 420 312
f 500 516 396
f 396 516 420
f 554 516 500
f 656 641 607
f 656 608 641
f 677 383 609
f 609 383 381
f 383 485 381
f 487 485 383
f 487 567 485
f 569 567 487
f 643 656 607
f 567 643 607
f 569 643 567
f 13 608 656
f 643 13 656
f 15 13 643
f 15 93 13
f 95 93 15
f 95 189 93
f 191 189 95
f 320 293 678
f 293 191 678
f 293 189 191
f 320 610 293
f 679 273 611
f 611 273 271
f 609 271 273
f 609 273 677
f 295 320 678
f 399 610 320
f 295 399 320
f 401 399 295
f 401 680 399
f 399 680 612
f 681 167 613
f 613 167 165
f 611 165 167
f 611 167 679
f 612 682 614
f 680 682 612
f 683 77 615
f 615 77 75
f 613 75 77
f 613 77 681
f 614 684 616
f 682 684 614
f 685 615 617
f 685 683 615
f 616 686 618
f 684 686 616
f 687 617 619
f 687 685 617
f 402 688 620
f 402 620 400
f 400 618 402
f 402 618 686
f 689 619 621
f 689 687 619
f 192 690 622
f 192 622 190
f 294 192 190
f 294 296 192
f 294 620 296
f 296 620 688
f 621 76 689
f 689 76 78
f 691 78 76
f 691 76 623
f 96 692 624
f 96 624 94
f 94 622 96
f 96 622 690
f 693 623 625
f 693 691 623
f 16 694 626
f 16 626 14
f 14 624 16
f 16 624 692
f 625 166 693
f 693 166 168
f 695 168 166
f 695 166 627
f 568 603 628
f 644 696 603
f 568 644 603
f 642 644 568
f 642 626 644
f 644 626 694
f 627 272 695
f 695 272 274
f 382 274 272
f 382 384 274
f 486 384 382
f 486 488 384
f 603 570 628
f 570 486 628
f 570 488 486
f 603 696 570
f 43 555 587
f 587 555 659
f 659 555 629
f 659 629 29
f 29 629 1
f 1 44 29
f 589 45 587
f 587 45 43
f 587 661 589
f 587 659 661
f 659 31 661
f 659 29 31
f 29 44 31
f 31 44 46
f 47 473 507
f 45 589 473
f 589 507 473
f 589 591 507
f 589 663 591
f 589 661 663
f 661 33 663
f 661 31 33
f 31 46 33
f 33 46 48
f 507 474 47
f 474 507 49
f 507 593 49
f 507 591 593
f 591 665 593
f 591 663 665
f 663 35 665
f 663 33 35
f 33 48 35
f 35 48 50
f 595 51 593
f 593 51 49
f 593 667 595
f 593 665 667
f 665 37 667
f 665 35 37
f 35 50 37
f 37 50 52
f 595 556 51
f 556 595 630
f 630 595 667
f 630 667 2
f 2 667 37
f 37 52 2
f 406 383 677
f 53 489 406
f 489 383 406
f 489 487 383
f 489 569 487
f 571 569 489
f 571 643 569
f 645 643 571
f 645 15 643
f 17 15 645
f 110 95 54
f 95 17 54
f 95 15 17
f 214 191 110
f 110 191 95
f 214 678 191
f 55 275 679
f 679 275 273
f 385 406 677
f 273 385 677
f 275 385 273
f 53 406 385
f 97 110 54
f 110 97 193
f 110 193 214
f 295 678 214
f 193 295 214
f 297 295 193
f 428 401 56
f 401 297 56
f 401 295 297
f 428 680 401
f 57 169 681
f 681 169 167
f 679 167 169
f 679 169 55
f 403 428 56
f 403 58 428
f 58 680 428
f 58 682 680
f 102 77 683
f 681 77 102
f 59 681 102
f 57 681 59
f 682 60 684
f 58 60 682
f 102 683 79
f 683 61 79
f 683 685 61
f 59 102 79
f 404 62 434
f 434 686 404
f 686 60 404
f 686 684 60
f 63 685 687
f 63 61 685
f 298 64 330
f 434 62 298
f 434 298 330
f 402 434 330
f 688 402 330
f 686 434 402
f 65 687 689
f 65 63 687
f 194 66 690
f 194 690 192
f 64 194 330
f 194 296 330
f 194 192 296
f 688 330 296
f 689 78 65
f 65 78 80
f 67 80 78
f 67 78 691
f 98 68 692
f 98 692 96
f 96 690 98
f 98 690 66
f 170 67 210
f 67 693 210
f 67 691 693
f 69 170 210
f 18 70 694
f 18 694 16
f 16 692 18
f 18 692 68
f 168 210 693
f 276 69 316
f 316 69 695
f 69 210 695
f 210 168 695
f 71 276 316
f 646 72 696
f 646 696 644
f 644 694 646
f 646 694 70
f 274 316 695
f 316 274 71
f 274 386 71
f 274 384 386
f 488 386 384
f 488 490 386
f 570 490 488
f 570 572 490
f 570 696 572
f 572 696 72
