# Converted from NanoShaper .vert/.face
v -5.660000 11.185000 -11.734000
v -3.917000 11.185000 -11.734000
v -5.999000 11.185000 -11.234000
v -3.579000 11.185000 -11.234000
v -6.154000 11.185000 -10.734000
v -3.457000 11.185000 -10.734000
v -6.446000 11.185000 -10.234000
v -3.254000 11.185000 -10.234000
v -6.727000 11.185000 -9.734000
v -2.753000 11.185000 -9.734000
v -7.186000 11.185000 -9.234000
v -1.420000 11.185000 -9.234000
v -7.341000 11.185000 -8.734000
v -0.870000 11.185000 -8.734000
v -7.306000 11.185000 -8.234000
v -0.571000 11.185000 -8.234000
v -7.342000 11.185000 -7.734000
v -0.475000 11.185000 -7.734000
v -7.604000 11.185000 -7.234000
v -0.581000 11.185000 -7.234000
v -7.809000 11.185000 -6.734000
v -0.817000 11.185000 -6.734000
v -8.168000 11.185000 -6.234000
v -0.971000 11.185000 -6.234000
v -8.519000 11.185000 -5.734000
v -1.286000 11.185000 -5.734000
v -8.615000 11.185000 -5.234000
v -1.528000 11.185000 -5.234000
v -8.649000 11.185000 -4.734000
v -1.872000 11.185000 -4.734000
v -8.658000 11.185000 -4.234000
v -2.434000 11.185000 -4.234000
v -8.707000 11.185000 -3.734000
v -4.155000 11.185000 -3.734000
v -8.772000 11.185000 -3.234000
v -4.618000 11.185000 -3.234000
v -8.975000 11.185000 -2.734000
v -4.885000 11.185000 -2.734000
v -9.077000 11.185000 -2.234000
v -5.137000 11.185000 -2.234000
v -8.983000 11.185000 -1.734000
v -5.364000 11.185000 -1.734000
v -8.767000 11.185000 -1.234000
v -5.525000 11.185000 -1.234000
v -8.635000 11.185000 -0.734000
v -5.857000 11.185000 -0.734000
v -8.332000 11.185000 -0.234000
v -6.292000 11.185000 -0.234000
v -9.047000 11.185000 -2.502000
v -9.047000 11.185000 -1.945000
v -8.547000 11.185000 -5.656000
v -8.547000 11.185000 -0.534000
v -8.047000 11.185000 -6.372000
v -8.047000 11.185000 -0.002000
v -7.547000 11.185000 -7.320000
v -7.547000 11.185000 0.187000
v -7.047000 11.185000 -9.408000
v -7.047000 11.185000 0.182000
v -6.547000 11.185000 -10.019000
v -6.547000 11.185000 -0.020000
v -6.047000 11.185000 -11.073000
v -6.047000 11.185000 -0.543000
v -5.547000 11.185000 -11.826000
v -5.547000 11.185000 -1.179000
v -5.047000 11.185000 -12.046000
v -5.047000 11.185000 -2.411000
v -4.547000 11.185000 -12.049000
v -4.547000 11.185000 -3.345000
v -4.047000 11.185000 -11.838000
v -4.047000 11.185000 -3.791000
v -3.547000 11.185000 -11.140000
v -3.547000 11.185000 -3.910000
v -3.047000 11.185000 -9.968000
v -3.047000 11.185000 -3.943000
v -2.547000 11.185000 -9.635000
v -2.547000 11.185000 -4.148000
v -2.047000 11.185000 -9.505000
v -2.047000 11.185000 -4.592000
v -1.547000 11.185000 -9.310000
v -1.547000 11.185000 -5.188000
v -1.047000 11.185000 -8.952000
v -1.047000 11.185000 -6.070000
v -0.547000 11.185000 -8.173000
v -0.547000 11.185000 -7.319000
v -6.547000 9.955000 -10.234000
v -6.547000 10.886000 -10.234000
v -6.047000 9.315000 -10.234000
v -6.047000 11.693000 -10.234000
v -5.547000 9.018000 -10.234000
v -5.547000 11.933000 -10.234000
v -5.047000 8.844000 -10.234000
v -5.047000 12.069000 -10.234000
v -4.547000 8.836000 -10.234000
v -4.547000 12.207000 -10.234000
v -4.047000 9.021000 -10.234000
v -4.047000 12.164000 -10.234000
v -3.547000 9.542000 -10.234000
v -3.547000 11.863000 -10.234000
v -8.047000 9.484000 -6.234000
v -8.047000 11.343000 -6.234000
v -7.547000 8.954000 -6.234000
v -7.547000 11.766000 -6.234000
v -7.047000 8.606000 -6.234000
v -7.047000 12.052000 -6.234000
v -6.547000 8.395000 -6.234000
v -6.547000 12.415000 -6.234000
v -6.047000 8.377000 -6.234000
v -6.047000 12.762000 -6.234000
v -5.547000 8.324000 -6.234000
v -5.547000 13.266000 -6.234000
v -5.047000 8.313000 -6.234000
v -5.047000 13.782000 -6.234000
v -4.547000 8.375000 -6.234000
v -4.547000 14.021000 -6.234000
v -4.047000 8.378000 -6.234000
v -4.047000 14.230000 -6.234000
v -3.547000 8.387000 -6.234000
v -3.547000 14.222000 -6.234000
v -3.047000 8.613000 -6.234000
v -3.047000 14.068000 -6.234000
v -2.547000 8.902000 -6.234000
v -2.547000 13.684000 -6.234000
v -2.047000 9.144000 -6.234000
v -2.047000 13.388000 -6.234000
v -1.547000 9.940000 -6.234000
v -1.547000 12.969000 -6.234000
v -1.047000 10.787000 -6.234000
v -1.047000 12.148000 -6.234000
v -9.047000 11.108000 -2.234000
v -9.047000 12.189000 -2.234000
v -8.547000 9.502000 -2.234000
v -8.547000 12.803000 -2.234000
v -8.047000 8.953000 -2.234000
v -8.047000 13.038000 -2.234000
v -7.547000 8.532000 -2.234000
v -7.547000 13.150000 -2.234000
v -7.047000 8.333000 -2.234000
v -7.047000 13.175000 -2.234000
v -6.547000 8.332000 -2.234000
v -6.547000 13.072000 -2.234000
v -6.047000 8.527000 -2.234000
v -6.047000 12.861000 -2.234000
v -5.547000 9.041000 -2.234000
v -5.547000 12.479000 -2.234000
v -5.047000 9.756000 -2.234000
v -5.047000 10.857000 -2.234000
v -5.611000 11.685000 -11.234000
v -3.966000 11.685000 -11.234000
v -5.758000 11.685000 -10.734000
v -3.772000 11.685000 -10.734000
v -6.057000 11.685000 -10.234000
v -3.423000 11.685000 -10.234000
v -6.227000 11.685000 -9.734000
v -2.685000 11.685000 -9.734000
v -6.299000 11.685000 -9.234000
v -0.903000 11.685000 -9.234000
v -6.334000 11.685000 -8.734000
v -0.543000 11.685000 -8.734000
v -6.399000 11.685000 -8.234000
v -0.427000 11.685000 -8.234000
v -6.677000 11.685000 -7.734000
v -0.364000 11.685000 -7.734000
v -7.106000 11.685000 -7.234000
v -0.461000 11.685000 -7.234000
v -7.298000 11.685000 -6.734000
v -0.761000 11.685000 -6.734000
v -7.657000 11.685000 -6.234000
v -0.969000 11.685000 -6.234000
v -8.145000 11.685000 -5.734000
v -1.274000 11.685000 -5.734000
v -8.278000 11.685000 -5.234000
v -1.472000 11.685000 -5.234000
v -8.348000 11.685000 -4.734000
v -1.777000 11.685000 -4.734000
v -8.527000 11.685000 -4.234000
v -2.316000 11.685000 -4.234000
v -8.630000 11.685000 -3.734000
v -3.855000 11.685000 -3.734000
v -8.790000 11.685000 -3.234000
v -4.488000 11.685000 -3.234000
v -9.059000 11.685000 -2.734000
v -4.867000 11.685000 -2.734000
v -9.156000 11.685000 -2.234000
v -5.241000 11.685000 -2.234000
v -9.067000 11.685000 -1.734000
v -5.402000 11.685000 -1.734000
v -8.814000 11.685000 -1.234000
v -5.494000 11.685000 -1.234000
v -8.668000 11.685000 -0.734000
v -5.802000 11.685000 -0.734000
v -8.368000 11.685000 -0.234000
v -6.319000 11.685000 -0.234000
v -9.047000 11.685000 -2.763000
v -9.047000 11.685000 -1.684000
v -8.547000 11.685000 -4.179000
v -8.547000 11.685000 -0.474000
v -8.047000 11.685000 -5.870000
v -8.047000 11.685000 0.022000
v -7.547000 11.685000 -6.378000
v -7.547000 11.685000 0.197000
v -7.047000 11.685000 -7.318000
v -7.047000 11.685000 0.180000
v -6.547000 11.685000 -7.969000
v -6.547000 11.685000 -0.037000
v -6.047000 11.685000 -10.248000
v -6.047000 11.685000 -0.522000
v -5.547000 11.685000 -11.334000
v -5.547000 11.685000 -1.104000
v -5.047000 11.685000 -11.683000
v -5.047000 11.685000 -2.536000
v -4.547000 11.685000 -11.688000
v -4.547000 11.685000 -3.151000
v -4.047000 11.685000 -11.357000
v -4.047000 11.685000 -3.643000
v -3.547000 11.685000 -10.380000
v -3.547000 11.685000 -3.813000
v -3.047000 11.685000 -9.921000
v -3.047000 11.685000 -3.863000
v -2.547000 11.685000 -9.686000
v -2.547000 11.685000 -4.054000
v -2.047000 11.685000 -9.596000
v -2.047000 11.685000 -4.503000
v -1.547000 11.685000 -9.536000
v -1.547000 11.685000 -5.059000
v -1.047000 11.685000 -9.342000
v -1.047000 11.685000 -6.073000
v -0.547000 11.685000 -8.745000
v -0.547000 11.685000 -7.054000
v -7.047000 9.620000 -9.734000
v -7.047000 10.820000 -9.734000
v -6.547000 9.287000 -9.734000
v -6.547000 11.371000 -9.734000
v -6.047000 9.129000 -9.734000
v -6.047000 11.829000 -9.734000
v -5.547000 8.941000 -9.734000
v -5.547000 12.045000 -9.734000
v -5.047000 8.871000 -9.734000
v -5.047000 12.265000 -9.734000
v -4.547000 8.918000 -9.734000
v -4.547000 12.489000 -9.734000
v -4.047000 9.117000 -9.734000
v -4.047000 12.606000 -9.734000
v -3.547000 9.677000 -9.734000
v -3.547000 12.617000 -9.734000
v -3.047000 10.624000 -9.734000
v -3.047000 12.385000 -9.734000
v -8.547000 10.233000 -5.734000
v -8.547000 11.111000 -5.734000
v -8.047000 9.477000 -5.734000
v -8.047000 11.758000 -5.734000
v -7.547000 8.855000 -5.734000
v -7.547000 11.965000 -5.734000
v -7.047000 8.496000 -5.734000
v -7.047000 12.109000 -5.734000
v -6.547000 8.312000 -5.734000
v -6.547000 12.421000 -5.734000
v -6.047000 8.310000 -5.734000
v -6.047000 12.885000 -5.734000
v -5.547000 8.369000 -5.734000
v -5.547000 13.409000 -5.734000
v -5.047000 8.397000 -5.734000
v -5.047000 13.896000 -5.734000
v -4.547000 8.569000 -5.734000
v -4.547000 14.278000 -5.734000
v -4.047000 8.693000 -5.734000
v -4.047000 14.484000 -5.734000
v -3.547000 8.738000 -5.734000
v -3.547000 14.480000 -5.734000
v -3.047000 8.856000 -5.734000
v -3.047000 14.262000 -5.734000
v -2.547000 9.091000 -5.734000
v -2.547000 13.749000 -5.734000
v -2.047000 9.577000 -5.734000
v -2.047000 13.381000 -5.734000
v -1.547000 10.356000 -5.734000
v -1.547000 12.820000 -5.734000
v -9.047000 11.419000 -1.734000
v -9.047000 11.878000 -1.734000
v -8.547000 9.722000 -1.734000
v -8.547000 12.762000 -1.734000
v -8.047000 9.060000 -1.734000
v -8.047000 13.203000 -1.734000
v -7.547000 8.650000 -1.734000
v -7.547000 13.421000 -1.734000
v -7.047000 8.434000 -1.734000
v -7.047000 13.425000 -1.734000
v -6.547000 8.432000 -1.734000
v -6.547000 13.217000 -1.734000
v -6.047000 8.642000 -1.734000
v -6.047000 12.834000 -1.734000
v -5.547000 9.321000 -1.734000
v -5.547000 12.272000 -1.734000
v -4.692000 12.185000 -10.234000
v -4.127000 12.185000 -10.234000
v -5.198000 12.185000 -9.734000
v -2.869000 12.185000 -9.734000
v -5.368000 12.185000 -9.234000
v -0.787000 12.185000 -9.234000
v -5.650000 12.185000 -8.734000
v -0.459000 12.185000 -8.734000
v -5.776000 12.185000 -8.234000
v -0.366000 12.185000 -8.234000
v -5.880000 12.185000 -7.734000
v -0.403000 12.185000 -7.734000
v -6.214000 12.185000 -7.234000
v -0.502000 12.185000 -7.234000
v -6.718000 12.185000 -6.734000
v -0.809000 12.185000 -6.734000
v -6.854000 12.185000 -6.234000
v -1.062000 12.185000 -6.234000
v -6.891000 12.185000 -5.734000
v -1.326000 12.185000 -5.734000
v -7.233000 12.185000 -5.234000
v -1.495000 12.185000 -5.234000
v -7.695000 12.185000 -4.734000
v -1.817000 12.185000 -4.734000
v -8.169000 12.185000 -4.234000
v -2.475000 12.185000 -4.234000
v -8.326000 12.185000 -3.734000
v -3.945000 12.185000 -3.734000
v -8.599000 12.185000 -3.234000
v -4.569000 12.185000 -3.234000
v -8.944000 12.185000 -2.734000
v -4.989000 12.185000 -2.734000
v -9.049000 12.185000 -2.234000
v -5.355000 12.185000 -2.234000
v -8.953000 12.185000 -1.734000
v -5.507000 12.185000 -1.734000
v -8.740000 12.185000 -1.234000
v -5.602000 12.185000 -1.234000
v -8.607000 12.185000 -0.734000
v -5.918000 12.185000 -0.734000
v -8.292000 12.185000 -0.234000
v -6.289000 12.185000 -0.234000
v -9.047000 12.185000 -2.289000
v -9.047000 12.185000 -2.158000
v -8.547000 12.185000 -3.305000
v -8.547000 12.185000 -0.594000
v -8.047000 12.185000 -4.408000
v -8.047000 12.185000 -0.036000
v -7.547000 12.185000 -4.938000
v -7.547000 12.185000 0.163000
v -7.047000 12.185000 -5.439000
v -7.047000 12.185000 0.166000
v -6.547000 12.185000 -6.971000
v -6.547000 12.185000 -0.026000
v -6.047000 12.185000 -7.409000
v -6.047000 12.185000 -0.551000
v -5.547000 12.185000 -8.933000
v -5.547000 12.185000 -1.414000
v -5.047000 12.185000 -9.907000
v -5.047000 12.185000 -2.674000
v -4.547000 12.185000 -10.282000
v -4.547000 12.185000 -3.259000
v -4.047000 12.185000 -10.207000
v -4.047000 12.185000 -3.681000
v -3.547000 12.185000 -10.010000
v -3.547000 12.185000 -3.855000
v -3.047000 12.185000 -9.790000
v -3.047000 12.185000 -3.949000
v -2.547000 12.185000 -9.680000
v -2.547000 12.185000 -4.181000
v -2.047000 12.185000 -9.659000
v -2.047000 12.185000 -4.547000
v -1.547000 12.185000 -9.616000
v -1.547000 12.185000 -5.112000
v -1.047000 12.185000 -9.434000
v -1.047000 12.185000 -6.267000
v -0.547000 12.185000 -8.923000
v -0.547000 12.185000 -7.132000
v -7.547000 9.796000 -9.234000
v -7.547000 10.644000 -9.234000
v -7.047000 9.148000 -9.234000
v -7.047000 11.292000 -9.234000
v -6.547000 8.947000 -9.234000
v -6.547000 11.537000 -9.234000
v -6.047000 8.926000 -9.234000
v -6.047000 11.867000 -9.234000
v -5.547000 8.859000 -9.234000
v -5.547000 12.103000 -9.234000
v -5.047000 8.847000 -9.234000
v -5.047000 12.391000 -9.234000
v -4.547000 9.009000 -9.234000
v -4.547000 12.759000 -9.234000
v -4.047000 9.226000 -9.234000
v -4.047000 13.228000 -9.234000
v -3.547000 9.792000 -9.234000
v -3.547000 13.569000 -9.234000
v -3.047000 10.304000 -9.234000
v -3.047000 13.651000 -9.234000
v -2.547000 10.577000 -9.234000
v -2.547000 13.658000 -9.234000
v -2.047000 10.736000 -9.234000
v -2.047000 13.356000 -9.234000
v -1.547000 11.046000 -9.234000
v -1.547000 13.102000 -9.234000
v -1.047000 11.483000 -9.234000
v -1.047000 12.814000 -9.234000
v -8.547000 10.014000 -5.234000
v -8.547000 11.330000 -5.234000
v -8.047000 9.178000 -5.234000
v -8.047000 11.865000 -5.234000
v -7.547000 8.575000 -5.234000
v -7.547000 12.088000 -5.234000
v -7.047000 8.379000 -5.234000
v -7.047000 12.269000 -5.234000
v -6.547000 8.280000 -5.234000
v -6.547000 12.526000 -5.234000
v -6.047000 8.294000 -5.234000
v -6.047000 12.902000 -5.234000
v -5.547000 8.467000 -5.234000
v -5.547000 13.321000 -5.234000
v -5.047000 8.679000 -5.234000
v -5.047000 13.879000 -5.234000
v -4.547000 8.979000 -5.234000
v -4.547000 14.387000 -5.234000
v -4.047000 9.195000 -5.234000
v -4.047000 14.577000 -5.234000
v -3.547000 9.169000 -5.234000
v -3.547000 14.573000 -5.234000
v -3.047000 9.191000 -5.234000
v -3.047000 14.372000 -5.234000
v -2.547000 9.545000 -5.234000
v -2.547000 13.818000 -5.234000
v -2.047000 10.050000 -5.234000
v -2.047000 13.274000 -5.234000
v -1.547000 11.005000 -5.234000
v -1.547000 12.572000 -5.234000
v -8.547000 10.241000 -1.234000
v -8.547000 12.761000 -1.234000
v -8.047000 9.479000 -1.234000
v -8.047000 13.325000 -1.234000
v -7.547000 9.085000 -1.234000
v -7.547000 13.524000 -1.234000
v -7.047000 8.776000 -1.234000
v -7.047000 13.527000 -1.234000
v -6.547000 8.774000 -1.234000
v -6.547000 13.335000 -1.234000
v -6.047000 9.046000 -1.234000
v -6.047000 12.820000 -1.234000
v -5.547000 9.671000 -1.234000
v -5.547000 12.033000 -1.234000
v -5.237000 8.685000 -8.234000
v -4.493000 8.685000 -8.234000
v -5.807000 8.685000 -7.734000
v -3.472000 8.685000 -7.734000
v -5.931000 8.685000 -7.234000
v -2.917000 8.685000 -7.234000
v -6.801000 8.685000 -6.734000
v -2.763000 8.685000 -6.734000
v -7.162000 8.685000 -6.234000
v -2.953000 8.685000 -6.234000
v -7.331000 8.685000 -5.734000
v -4.106000 8.685000 -5.734000
v -7.694000 8.685000 -5.234000
v -5.035000 8.685000 -5.234000
v -7.830000 8.685000 -4.734000
v -5.484000 8.685000 -4.734000
v -7.783000 8.685000 -4.234000
v -5.763000 8.685000 -4.234000
v -7.717000 8.685000 -3.734000
v -5.795000 8.685000 -3.734000
v -7.725000 8.685000 -3.234000
v -5.845000 8.685000 -3.234000
v -7.821000 8.685000 -2.734000
v -5.790000 8.685000 -2.734000
v -7.744000 8.685000 -2.234000
v -5.842000 8.685000 -2.234000
v -7.595000 8.685000 -1.734000
v -5.989000 8.685000 -1.734000
v -4.644000 12.685000 -9.234000
v -0.947000 12.685000 -9.234000
v -4.855000 12.685000 -8.734000
v -0.573000 12.685000 -8.734000
v -5.141000 12.685000 -8.234000
v -0.472000 12.685000 -8.234000
v -5.348000 12.685000 -7.734000
v -0.505000 12.685000 -7.734000
v -5.659000 12.685000 -7.234000
v -0.613000 12.685000 -7.234000
v -5.863000 12.685000 -6.734000
v -0.993000 12.685000 -6.734000
v -6.140000 12.685000 -6.234000
v -1.363000 12.685000 -6.234000
v -6.276000 12.685000 -5.734000
v -1.485000 12.685000 -5.734000
v -6.322000 12.685000 -5.234000
v -1.586000 12.685000 -5.234000
v -6.630000 12.685000 -4.734000
v -1.942000 12.685000 -4.734000
v -7.039000 12.685000 -4.234000
v -2.749000 12.685000 -4.234000
v -7.286000 12.685000 -3.734000
v -4.009000 12.685000 -3.734000
v -7.783000 12.685000 -3.234000
v -4.920000 12.685000 -3.234000
v -8.547000 12.685000 -2.734000
v -5.425000 12.685000 -2.734000
v -8.697000 12.685000 -2.234000
v -5.772000 12.685000 -2.234000
v -8.616000 12.685000 -1.734000
v -5.859000 12.685000 -1.734000
v -8.582000 12.685000 -1.234000
v -5.944000 12.685000 -1.234000
v -8.490000 12.685000 -0.734000
v -6.088000 12.685000 -0.734000
v -8.134000 12.685000 -0.234000
v -6.445000 12.685000 -0.234000
v -7.547000 8.685000 -5.426000
v -7.547000 8.685000 -1.666000
v -7.047000 8.685000 -6.480000
v -7.047000 8.685000 -1.327000
v -6.547000 8.685000 -6.844000
v -6.547000 8.685000 -1.324000
v -6.047000 8.685000 -7.041000
v -6.047000 8.685000 -1.652000
v -5.547000 8.685000 -8.085000
v -5.547000 8.685000 -4.643000
v -5.047000 8.685000 -8.307000
v -5.047000 8.685000 -5.227000
v -4.547000 8.685000 -8.254000
v -4.547000 8.685000 -5.546000
v -4.047000 8.685000 -8.106000
v -4.047000 8.685000 -5.743000
v -3.547000 8.685000 -7.792000
v -3.547000 8.685000 -5.790000
v -3.047000 8.685000 -7.416000
v -3.047000 8.685000 -6.095000
v -8.547000 12.685000 -2.733000
v -8.547000 12.685000 -0.916000
v -8.047000 12.685000 -3.127000
v -8.047000 12.685000 -0.166000
v -7.547000 12.685000 -3.403000
v -7.547000 12.685000 0.054000
v -7.047000 12.685000 -4.222000
v -7.047000 12.685000 0.057000
v -6.547000 12.685000 -4.847000
v -6.547000 12.685000 -0.154000
v -6.047000 12.685000 -6.441000
v -6.047000 12.685000 -0.853000
v -5.547000 12.685000 -7.387000
v -5.547000 12.685000 -2.568000
v -5.047000 12.685000 -8.370000
v -5.047000 12.685000 -3.111000
v -4.547000 12.685000 -9.363000
v -4.547000 12.685000 -3.520000
v -4.047000 12.685000 -9.656000
v -4.047000 12.685000 -3.725000
v -3.547000 12.685000 -9.695000
v -3.547000 12.685000 -3.814000
v -3.047000 12.685000 -9.658000
v -3.047000 12.685000 -4.006000
v -2.547000 12.685000 -9.612000
v -2.547000 12.685000 -4.377000
v -2.047000 12.685000 -9.553000
v -2.047000 12.685000 -4.651000
v -1.547000 12.685000 -9.508000
v -1.547000 12.685000 -5.344000
v -1.047000 12.685000 -9.308000
v -1.047000 12.685000 -6.682000
v -0.547000 12.685000 -8.667000
v -0.547000 12.685000 -7.421000
v -7.547000 9.535000 -8.734000
v -7.547000 10.905000 -8.734000
v -7.047000 9.020000 -8.734000
v -7.047000 11.420000 -8.734000
v -6.547000 8.838000 -8.734000
v -6.547000 11.609000 -8.734000
v -6.047000 8.833000 -8.734000
v -6.047000 11.847000 -8.734000
v -5.547000 8.821000 -8.734000
v -5.547000 12.263000 -8.734000
v -5.047000 8.822000 -8.734000
v -5.047000 12.543000 -8.734000
v -4.547000 8.938000 -8.734000
v -4.547000 13.058000 -8.734000
v -4.047000 9.131000 -8.734000
v -4.047000 13.714000 -8.734000
v -3.547000 9.685000 -8.734000
v -3.547000 13.931000 -8.734000
v -3.047000 10.013000 -8.734000
v -3.047000 13.993000 -8.734000
v -2.547000 10.216000 -8.734000
v -2.547000 13.998000 -8.734000
v -2.047000 10.330000 -8.734000
v -2.047000 13.791000 -8.734000
v -1.547000 10.581000 -8.734000
v -1.547000 13.460000 -8.734000
v -1.047000 11.019000 -8.734000
v -1.047000 13.241000 -8.734000
v -0.547000 11.673000 -8.734000
v -0.547000 12.623000 -8.734000
v -8.547000 9.965000 -4.734000
v -8.547000 11.396000 -4.734000
v -8.047000 8.968000 -4.734000
v -8.047000 11.985000 -4.734000
v -7.547000 8.465000 -4.734000
v -7.547000 12.276000 -4.734000
v -7.047000 8.288000 -4.734000
v -7.047000 12.489000 -4.734000
v -6.547000 8.301000 -4.734000
v -6.547000 12.742000 -4.734000
v -6.047000 8.394000 -4.734000
v -6.047000 12.979000 -4.734000
v -5.547000 8.633000 -4.734000
v -5.547000 13.266000 -4.734000
v -5.047000 9.104000 -4.734000
v -5.047000 13.719000 -4.734000
v -4.547000 9.494000 -4.734000
v -4.547000 14.276000 -4.734000
v -4.047000 9.975000 -4.734000
v -4.047000 14.483000 -4.734000
v -3.547000 10.123000 -4.734000
v -3.547000 14.478000 -4.734000
v -3.047000 10.165000 -4.734000
v -3.047000 14.259000 -4.734000
v -2.547000 10.328000 -4.734000
v -2.547000 13.565000 -4.734000
v -2.047000 10.691000 -4.734000
v -2.047000 12.838000 -4.734000
v -8.547000 10.699000 -0.734000
v -8.547000 12.532000 -0.734000
v -8.047000 9.995000 -0.734000
v -8.047000 13.223000 -0.734000
v -7.547000 9.607000 -0.734000
v -7.547000 13.438000 -0.734000
v -7.047000 9.251000 -0.734000
v -7.047000 13.441000 -0.734000
v -6.547000 9.226000 -0.734000
v -6.547000 13.234000 -0.734000
v -6.047000 9.503000 -0.734000
v -6.047000 12.582000 -0.734000
v -5.654000 9.185000 -11.234000
v -3.990000 9.185000 -11.234000
v -5.804000 9.185000 -10.734000
v -3.840000 9.185000 -10.734000
v -5.845000 9.185000 -10.234000
v -3.829000 9.185000 -10.234000
v -6.245000 9.185000 -9.734000
v -3.953000 9.185000 -9.734000
v -7.100000 9.185000 -9.234000
v -4.111000 9.185000 -9.234000
v -7.269000 9.185000 -8.734000
v -3.963000 9.185000 -8.734000
v -7.338000 9.185000 -8.234000
v -3.516000 9.185000 -8.234000
v -7.408000 9.185000 -7.734000
v -2.671000 9.185000 -7.734000
v -7.712000 9.185000 -7.234000
v -1.974000 9.185000 -7.234000
v -7.835000 9.185000 -6.734000
v -1.850000 9.185000 -6.734000
v -7.832000 9.185000 -6.234000
v -1.996000 9.185000 -6.234000
v -7.872000 9.185000 -5.734000
v -2.434000 9.185000 -5.734000
v -8.050000 9.185000 -5.234000
v -4.101000 9.185000 -5.234000
v -3.623000 9.185000 -5.234000
v -3.069000 9.185000 -5.234000
v -8.150000 9.185000 -4.734000
v -4.924000 9.185000 -4.734000
v -8.111000 9.185000 -4.234000
v -5.252000 9.185000 -4.234000
v -8.057000 9.185000 -3.734000
v -5.295000 9.185000 -3.734000
v -8.080000 9.185000 -3.234000
v -5.360000 9.185000 -3.234000
v -8.203000 9.185000 -2.734000
v -5.311000 9.185000 -2.734000
v -8.324000 9.185000 -2.234000
v -5.435000 9.185000 -2.234000
v -8.203000 9.185000 -1.734000
v -5.600000 9.185000 -1.734000
v -7.666000 9.185000 -1.234000
v -5.895000 9.185000 -1.234000
v -4.083000 13.185000 -9.234000
v -1.787000 13.185000 -9.234000
v -4.478000 13.185000 -8.734000
v -0.969000 13.185000 -8.734000
v -4.637000 13.185000 -8.234000
v -0.825000 13.185000 -8.234000
v -4.831000 13.185000 -7.734000
v -0.849000 13.185000 -7.734000
v -5.195000 13.185000 -7.234000
v -1.002000 13.185000 -7.234000
v -5.348000 13.185000 -6.734000
v -1.478000 13.185000 -6.734000
v -5.631000 13.185000 -6.234000
v -1.770000 13.185000 -6.234000
v -5.775000 13.185000 -5.734000
v -1.807000 13.185000 -5.734000
v -5.695000 13.185000 -5.234000
v -1.936000 13.185000 -5.234000
v -5.664000 13.185000 -4.734000
v -2.344000 13.185000 -4.734000
v -5.585000 13.185000 -4.234000
v -2.832000 13.185000 -4.234000
v -8.073000 13.185000 -1.734000
v -6.499000 13.185000 -1.734000
v -8.230000 13.185000 -1.234000
v -6.349000 13.185000 -1.234000
v -8.099000 13.185000 -0.734000
v -6.480000 13.185000 -0.734000
v -8.047000 9.185000 -5.241000
v -8.047000 9.185000 -1.518000
v -7.547000 9.185000 -7.472000
v -7.547000 9.185000 -1.135000
v -7.047000 9.185000 -9.302000
v -7.047000 9.185000 -0.800000
v -6.547000 9.185000 -9.614000
v -6.547000 9.185000 -0.775000
v -6.047000 9.185000 -9.866000
v -6.047000 9.185000 -1.049000
v -5.547000 9.185000 -11.374000
v -5.547000 9.185000 -1.878000
v -5.047000 9.185000 -11.668000
v -5.047000 9.185000 -4.611000
v -4.547000 9.185000 -11.655000
v -4.547000 9.185000 -5.026000
v -4.047000 9.185000 -11.316000
v -4.047000 9.185000 -9.504000
v -4.047000 9.185000 -8.879000
v -4.047000 9.185000 -5.244000
v -3.547000 9.185000 -8.265000
v -3.547000 9.185000 -5.219000
v -3.047000 9.185000 -7.881000
v -3.047000 9.185000 -5.240000
v -2.547000 9.185000 -7.699000
v -2.547000 9.185000 -5.571000
v -2.047000 9.185000 -7.347000
v -2.047000 9.185000 -6.159000
v -8.047000 13.185000 -1.775000
v -8.047000 13.185000 -0.657000
v -7.547000 13.185000 -2.160000
v -7.547000 13.185000 -0.309000
v -7.047000 13.185000 -2.209000
v -7.047000 13.185000 -0.304000
v -6.547000 13.185000 -1.817000
v -6.547000 13.185000 -0.635000
v -5.547000 13.185000 -6.360000
v -5.547000 13.185000 -4.139000
v -5.047000 13.185000 -7.454000
v -5.047000 13.185000 -3.823000
v -4.547000 13.185000 -8.552000
v -4.547000 13.185000 -3.803000
v -4.047000 13.185000 -9.260000
v -4.047000 13.185000 -3.820000
v -3.547000 13.185000 -9.471000
v -3.547000 13.185000 -3.861000
v -3.047000 13.185000 -9.519000
v -3.047000 13.185000 -4.062000
v -2.547000 13.185000 -9.524000
v -2.547000 13.185000 -4.519000
v -2.047000 13.185000 -9.341000
v -2.047000 13.185000 -5.074000
v -1.547000 13.185000 -9.150000
v -1.547000 13.185000 -6.645000
v -1.047000 13.185000 -8.841000
v -1.047000 13.185000 -7.170000
v -7.547000 9.456000 -8.234000
v -7.547000 10.882000 -8.234000
v -7.047000 8.960000 -8.234000
v -7.047000 11.379000 -8.234000
v -6.547000 8.784000 -8.234000
v -6.547000 11.625000 -8.234000
v -6.047000 8.772000 -8.234000
v -6.047000 11.912000 -8.234000
v -5.547000 8.725000 -8.234000
v -5.547000 12.381000 -8.234000
v -5.047000 8.651000 -8.234000
v -5.047000 12.754000 -8.234000
v -4.547000 8.671000 -8.234000
v -4.547000 13.309000 -8.234000
v -4.047000 8.798000 -8.234000
v -4.047000 13.843000 -8.234000
v -3.547000 9.141000 -8.234000
v -3.547000 14.040000 -8.234000
v -3.047000 9.611000 -8.234000
v -3.047000 14.090000 -8.234000
v -2.547000 9.746000 -8.234000
v -2.547000 14.095000 -8.234000
v -2.047000 9.948000 -8.234000
v -2.047000 13.905000 -8.234000
v -1.547000 10.205000 -8.234000
v -1.547000 13.567000 -8.234000
v -1.047000 10.632000 -8.234000
v -1.047000 13.350000 -8.234000
v -0.547000 11.239000 -8.234000
v -0.547000 12.838000 -8.234000
v -8.547000 10.095000 -4.234000
v -8.547000 11.633000 -4.234000
v -8.047000 9.042000 -4.234000
v -8.047000 12.278000 -4.234000
v -7.547000 8.499000 -4.234000
v -7.547000 12.484000 -4.234000
v -7.047000 8.307000 -4.234000
v -7.047000 12.680000 -4.234000
v -6.547000 8.309000 -4.234000
v -6.547000 12.915000 -4.234000
v -6.047000 8.504000 -4.234000
v -6.047000 13.034000 -4.234000
v -5.547000 8.896000 -4.234000
v -5.547000 13.199000 -4.234000
v -5.047000 9.369000 -4.234000
v -5.047000 13.438000 -4.234000
v -4.547000 10.184000 -4.234000
v -4.547000 13.841000 -4.234000
v -4.047000 10.593000 -4.234000
v -4.047000 14.146000 -4.234000
v -3.547000 10.672000 -4.234000
v -3.547000 14.139000 -4.234000
v -3.047000 10.707000 -4.234000
v -3.047000 13.810000 -4.234000
v -2.547000 11.020000 -4.234000
v -2.547000 12.284000 -4.234000
v -8.047000 10.465000 -0.234000
v -8.047000 12.801000 -0.234000
v -7.547000 10.180000 -0.234000
v -7.547000 13.115000 -0.234000
v -7.047000 10.139000 -0.234000
v -7.047000 13.119000 -0.234000
v -6.547000 10.433000 -0.234000
v -6.547000 12.820000 -0.234000
v -5.639000 9.685000 -11.734000
v -4.005000 9.685000 -11.734000
v -6.022000 9.685000 -11.234000
v -3.622000 9.685000 -11.234000
v -6.160000 9.685000 -10.734000
v -3.514000 9.685000 -10.734000
v -6.416000 9.685000 -10.234000
v -3.479000 9.685000 -10.234000
v -7.097000 9.685000 -9.734000
v -3.542000 9.685000 -9.734000
v -7.503000 9.685000 -9.234000
v -3.646000 9.685000 -9.234000
v -7.620000 9.685000 -8.734000
v -3.548000 9.685000 -8.734000
v -7.657000 9.685000 -8.234000
v -2.841000 9.685000 -8.234000
v -7.777000 9.685000 -7.734000
v -1.908000 9.685000 -7.734000
v -8.042000 9.685000 -7.234000
v -1.617000 9.685000 -7.234000
v -8.135000 9.685000 -6.734000
v -1.528000 9.685000 -6.734000
v -8.138000 9.685000 -6.234000
v -1.635000 9.685000 -6.234000
v -8.209000 9.685000 -5.734000
v -1.941000 9.685000 -5.734000
v -8.324000 9.685000 -5.234000
v -2.440000 9.685000 -5.234000
v -8.358000 9.685000 -4.734000
v -4.364000 9.685000 -4.734000
v -8.305000 9.685000 -4.234000
v -4.824000 9.685000 -4.234000
v -8.279000 9.685000 -3.734000
v -4.959000 9.685000 -3.734000
v -8.349000 9.685000 -3.234000
v -5.005000 9.685000 -3.234000
v -8.521000 9.685000 -2.734000
v -4.958000 9.685000 -2.734000
v -8.626000 9.685000 -2.234000
v -5.077000 9.685000 -2.234000
v -8.534000 9.685000 -1.734000
v -5.374000 9.685000 -1.734000
v -8.220000 9.685000 -1.234000
v -5.542000 9.685000 -1.234000
v -7.630000 9.685000 -0.734000
v -5.909000 9.685000 -0.734000
v -4.087000 13.685000 -8.734000
v -1.912000 13.685000 -8.734000
v -4.251000 13.685000 -8.234000
v -1.750000 13.685000 -8.234000
v -4.386000 13.685000 -7.734000
v -1.834000 13.685000 -7.734000
v -4.750000 13.685000 -7.234000
v -2.039000 13.685000 -7.234000
v -4.894000 13.685000 -6.734000
v -2.386000 13.685000 -6.734000
v -5.179000 13.685000 -6.234000
v -2.548000 13.685000 -6.234000
v -5.317000 13.685000 -5.734000
v -2.482000 13.685000 -5.734000
v -5.216000 13.685000 -5.234000
v -2.455000 13.685000 -5.234000
v -5.078000 13.685000 -4.734000
v -2.597000 13.685000 -4.734000
v -4.713000 13.685000 -4.234000
v -2.962000 13.685000 -4.234000
v -8.547000 9.685000 -2.666000
v -8.547000 9.685000 -1.769000
v -8.047000 9.685000 -7.220000
v -8.047000 9.685000 -1.049000
v -7.547000 9.685000 -9.124000
v -7.547000 9.685000 -0.682000
v -7.047000 9.685000 -9.769000
v -7.047000 9.685000 -0.462000
v -6.547000 9.685000 -10.097000
v -6.547000 9.685000 -0.444000
v -6.047000 9.685000 -11.171000
v -6.047000 9.685000 -0.632000
v -5.547000 9.685000 -11.801000
v -5.547000 9.685000 -1.220000
v -5.047000 9.685000 -12.001000
v -5.047000 9.685000 -2.304000
v -4.547000 9.685000 -11.992000
v -4.547000 9.685000 -4.599000
v -4.047000 9.685000 -11.767000
v -4.047000 9.685000 -4.866000
v -3.547000 9.685000 -11.009000
v -3.547000 9.685000 -9.709000
v -3.547000 9.685000 -8.734000
v -3.547000 9.685000 -4.903000
v -3.047000 9.685000 -8.306000
v -3.047000 9.685000 -4.933000
v -2.547000 9.685000 -8.170000
v -2.547000 9.685000 -5.159000
v -2.047000 9.685000 -7.874000
v -2.047000 9.685000 -5.602000
v -1.547000 9.685000 -6.977000
v -1.547000 9.685000 -6.529000
v -5.047000 13.685000 -6.418000
v -5.047000 13.685000 -4.677000
v -4.547000 13.685000 -7.507000
v -4.547000 13.685000 -4.126000
v -4.047000 13.685000 -8.788000
v -4.047000 13.685000 -3.946000
v -3.547000 13.685000 -9.120000
v -3.547000 13.685000 -3.950000
v -3.047000 13.685000 -9.201000
v -3.047000 13.685000 -4.168000
v -2.547000 13.685000 -9.208000
v -2.547000 13.685000 -6.246000
v -2.547000 13.685000 -6.102000
v -2.547000 13.685000 -4.865000
v -2.047000 13.685000 -8.916000
v -2.047000 13.685000 -7.222000
v -5.547000 9.559000 -11.734000
v -5.547000 11.335000 -11.734000
v -5.047000 9.253000 -11.734000
v -5.047000 11.638000 -11.734000
v -4.547000 9.266000 -11.734000
v -4.547000 11.642000 -11.734000
v -4.047000 9.621000 -11.734000
v -4.047000 11.354000 -11.734000
v -7.547000 9.320000 -7.734000
v -7.547000 10.984000 -7.734000
v -7.047000 8.963000 -7.734000
v -7.047000 11.461000 -7.734000
v -6.547000 8.774000 -7.734000
v -6.547000 11.775000 -7.734000
v -6.047000 8.731000 -7.734000
v -6.047000 12.056000 -7.734000
v -5.547000 8.598000 -7.734000
v -5.547000 12.483000 -7.734000
v -5.047000 8.394000 -7.734000
v -5.047000 12.974000 -7.734000
v -4.547000 8.375000 -7.734000
v -4.547000 13.539000 -7.734000
v -4.047000 8.446000 -7.734000
v -4.047000 13.879000 -7.734000
v -3.547000 8.644000 -7.734000
v -3.547000 14.028000 -7.734000
v -3.047000 8.987000 -7.734000
v -3.047000 14.059000 -7.734000
v -2.547000 9.220000 -7.734000
v -2.547000 14.033000 -7.734000
v -2.047000 9.550000 -7.734000
v -2.047000 13.830000 -7.734000
v -1.547000 10.039000 -7.734000
v -1.547000 13.550000 -7.734000
v -1.047000 10.515000 -7.734000
v -1.047000 13.339000 -7.734000
v -0.547000 11.038000 -7.734000
v -0.547000 12.781000 -7.734000
v -8.547000 10.138000 -3.734000
v -8.547000 11.879000 -3.734000
v -8.047000 9.162000 -3.734000
v -8.047000 12.402000 -3.734000
v -7.547000 8.548000 -3.734000
v -7.547000 12.590000 -3.734000
v -7.047000 8.333000 -3.734000
v -7.047000 12.819000 -3.734000
v -6.547000 8.318000 -3.734000
v -6.547000 13.023000 -3.734000
v -6.047000 8.495000 -3.734000
v -6.047000 13.093000 -3.734000
v -5.547000 8.957000 -3.734000
v -5.547000 13.124000 -3.734000
v -5.047000 9.511000 -3.734000
v -5.047000 13.126000 -3.734000
v -4.547000 10.679000 -3.734000
v -4.547000 13.071000 -3.734000
v -4.047000 11.289000 -3.734000
v -4.047000 12.721000 -3.734000
v -5.779000 10.185000 -11.734000
v -3.853000 10.185000 -11.734000
v -6.121000 10.185000 -11.234000
v -3.520000 10.185000 -11.234000
v -6.273000 10.185000 -10.734000
v -3.421000 10.185000 -10.734000
v -6.586000 10.185000 -10.234000
v -3.350000 10.185000 -10.234000
v -7.264000 10.185000 -9.734000
v -3.272000 10.185000 -9.734000
v -7.619000 10.185000 -9.234000
v -3.165000 10.185000 -9.234000
v -7.726000 10.185000 -8.734000
v -2.628000 10.185000 -8.734000
v -7.745000 10.185000 -8.234000
v -1.575000 10.185000 -8.234000
v -7.869000 10.185000 -7.734000
v -1.396000 10.185000 -7.734000
v -8.122000 10.185000 -7.234000
v -1.292000 10.185000 -7.234000
v -8.213000 10.185000 -6.734000
v -1.306000 10.185000 -6.734000
v -8.308000 10.185000 -6.234000
v -1.426000 10.185000 -6.234000
v -8.529000 10.185000 -5.734000
v -1.608000 10.185000 -5.734000
v -8.624000 10.185000 -5.234000
v -1.950000 10.185000 -5.234000
v -8.653000 10.185000 -4.734000
v -3.004000 10.185000 -4.734000
v -8.583000 10.185000 -4.234000
v -4.547000 10.185000 -4.234000
v -8.566000 10.185000 -3.734000
v -4.782000 10.185000 -3.734000
v -8.631000 10.185000 -3.234000
v -4.845000 10.185000 -3.234000
v -8.651000 10.185000 -2.734000
v -4.849000 10.185000 -2.734000
v -8.707000 10.185000 -2.234000
v -4.960000 10.185000 -2.234000
v -8.644000 10.185000 -1.734000
v -5.258000 10.185000 -1.734000
v -8.526000 10.185000 -1.234000
v -5.444000 10.185000 -1.234000
v -8.225000 10.185000 -0.734000
v -5.773000 10.185000 -0.734000
v -7.568000 10.185000 -0.234000
v -6.854000 10.185000 -0.234000
v -4.217000 14.185000 -6.234000
v -3.353000 14.185000 -6.234000
v -4.669000 14.185000 -5.734000
v -2.951000 14.185000 -5.734000
v -4.802000 14.185000 -5.234000
v -2.817000 14.185000 -5.234000
v -4.666000 14.185000 -4.734000
v -2.953000 14.185000 -4.734000
v -8.547000 10.185000 -5.687000
v -8.547000 10.185000 -1.293000
v -8.047000 10.185000 -7.401000
v -8.047000 10.185000 -0.525000
v -7.547000 10.185000 -9.380000
v -7.547000 10.185000 -0.229000
v -7.047000 10.185000 -9.894000
v -7.047000 10.185000 -0.205000
v -6.547000 10.185000 -10.275000
v -6.547000 10.185000 -0.314000
v -6.047000 10.185000 -11.389000
v -6.047000 10.185000 -0.526000
v -5.547000 10.185000 -11.910000
v -5.547000 10.185000 -1.020000
v -5.047000 10.185000 -12.098000
v -5.047000 10.185000 -2.062000
v -4.547000 10.185000 -12.093000
v -4.547000 10.185000 -4.233000
v -4.047000 10.185000 -11.889000
v -4.047000 10.185000 -4.609000
v -3.547000 10.185000 -11.299000
v -3.547000 10.185000 -4.698000
v -3.047000 10.185000 -9.052000
v -3.047000 10.185000 -4.722000
v -2.547000 10.185000 -8.698000
v -2.547000 10.185000 -4.853000
v -2.047000 10.185000 -8.579000
v -2.047000 10.185000 -5.145000
v -1.547000 10.185000 -8.193000
v -1.547000 10.185000 -5.911000
v -4.547000 14.185000 -5.902000
v -4.547000 14.185000 -4.573000
v -4.047000 14.185000 -6.359000
v -4.047000 14.185000 -4.273000
v -3.547000 14.185000 -6.330000
v -3.547000 14.185000 -4.279000
v -3.047000 14.185000 -5.887000
v -3.047000 14.185000 -4.600000
v -6.047000 9.752000 -11.234000
v -6.047000 11.058000 -11.234000
v -5.547000 9.105000 -11.234000
v -5.547000 11.732000 -11.234000
v -5.047000 8.903000 -11.234000
v -5.047000 11.946000 -11.234000
v -4.547000 8.913000 -11.234000
v -4.547000 11.949000 -11.234000
v -4.047000 9.140000 -11.234000
v -4.047000 11.744000 -11.234000
v -3.547000 9.931000 -11.234000
v -3.547000 11.108000 -11.234000
v -8.047000 9.700000 -7.234000
v -8.047000 10.578000 -7.234000
v -7.547000 9.053000 -7.234000
v -7.547000 11.232000 -7.234000
v -7.047000 8.846000 -7.234000
v -7.047000 11.728000 -7.234000
v -6.547000 8.762000 -7.234000
v -6.547000 11.993000 -7.234000
v -6.047000 8.712000 -7.234000
v -6.047000 12.298000 -7.234000
v -5.547000 8.524000 -7.234000
v -5.547000 12.788000 -7.234000
v -5.047000 8.315000 -7.234000
v -5.047000 13.328000 -7.234000
v -4.547000 8.298000 -7.234000
v -4.547000 13.842000 -7.234000
v -4.047000 8.322000 -7.234000
v -4.047000 14.030000 -7.234000
v -3.547000 8.364000 -7.234000
v -3.547000 14.080000 -7.234000
v -3.047000 8.585000 -7.234000
v -3.047000 14.088000 -7.234000
v -2.547000 8.885000 -7.234000
v -2.547000 13.942000 -7.234000
v -2.047000 9.125000 -7.234000
v -2.047000 13.692000 -7.234000
v -1.547000 9.816000 -7.234000
v -1.547000 13.438000 -7.234000
v -1.047000 10.514000 -7.234000
v -1.047000 13.219000 -7.234000
v -0.547000 11.264000 -7.234000
v -0.547000 12.501000 -7.234000
v -8.547000 9.993000 -3.234000
v -8.547000 12.256000 -3.234000
v -8.047000 9.120000 -3.234000
v -8.047000 12.616000 -3.234000
v -7.547000 8.546000 -3.234000
v -7.547000 12.765000 -3.234000
v -7.047000 8.339000 -3.234000
v -7.047000 12.948000 -3.234000
v -6.547000 8.335000 -3.234000
v -6.547000 13.060000 -3.234000
v -6.047000 8.532000 -3.234000
v -6.047000 13.068000 -3.234000
v -5.547000 9.016000 -3.234000
v -5.547000 12.981000 -3.234000
v -5.047000 9.592000 -3.234000
v -5.047000 12.776000 -3.234000
v -4.547000 11.362000 -3.234000
v -4.547000 12.116000 -3.234000
v -5.812000 10.685000 -11.734000
v -3.765000 10.685000 -11.734000
v -6.112000 10.685000 -11.234000
v -3.465000 10.685000 -11.234000
v -6.272000 10.685000 -10.734000
v -3.375000 10.685000 -10.734000
v -6.587000 10.685000 -10.234000
v -3.287000 10.685000 -10.234000
v -7.141000 10.685000 -9.734000
v -3.017000 10.685000 -9.734000
v -7.532000 10.685000 -9.234000
v -2.227000 10.685000 -9.234000
v -7.647000 10.685000 -8.734000
v -1.418000 10.685000 -8.734000
v -7.644000 10.685000 -8.234000
v -0.972000 10.685000 -8.234000
v -7.746000 10.685000 -7.734000
v -0.834000 10.685000 -7.734000
v -8.004000 10.685000 -7.234000
v -0.927000 10.685000 -7.234000
v -8.129000 10.685000 -6.734000
v -0.983000 10.685000 -6.734000
v -8.338000 10.685000 -6.234000
v -1.089000 10.685000 -6.234000
v -8.623000 10.685000 -5.734000
v -1.423000 10.685000 -5.734000
v -8.712000 10.685000 -5.234000
v -1.649000 10.685000 -5.234000
v -8.744000 10.685000 -4.734000
v -2.052000 10.685000 -4.734000
v -8.671000 10.685000 -4.234000
v -3.165000 10.685000 -4.234000
v -8.657000 10.685000 -3.734000
v -4.544000 10.685000 -3.734000
v -8.717000 10.685000 -3.234000
v -4.766000 10.685000 -3.234000
v -8.775000 10.685000 -2.734000
v -4.883000 10.685000 -2.734000
v -8.830000 10.685000 -2.234000
v -5.027000 10.685000 -2.234000
v -8.764000 10.685000 -1.734000
v -5.309000 10.685000 -1.734000
v -8.650000 10.685000 -1.234000
v -5.491000 10.685000 -1.234000
v -8.542000 10.685000 -0.734000
v -5.838000 10.685000 -0.734000
v -8.208000 10.685000 -0.234000
v -6.408000 10.685000 -0.234000
v -8.547000 10.685000 -5.902000
v -8.547000 10.685000 -0.749000
v -8.047000 10.685000 -7.110000
v -8.047000 10.685000 -0.106000
v -7.547000 10.685000 -9.199000
v -7.547000 10.685000 0.098000
v -7.047000 10.685000 -9.801000
v -7.047000 10.685000 0.093000
v -6.547000 10.685000 -10.286000
v -6.547000 10.685000 -0.126000
v -6.047000 10.685000 -11.391000
v -6.047000 10.685000 -0.559000
v -5.547000 10.685000 -11.955000
v -5.547000 10.685000 -1.112000
v -5.047000 10.685000 -12.155000
v -5.047000 10.685000 -2.186000
v -4.547000 10.685000 -12.158000
v -4.547000 10.685000 -3.729000
v -4.047000 10.685000 -11.967000
v -4.047000 10.685000 -4.146000
v -3.547000 10.685000 -11.426000
v -3.547000 10.685000 -4.220000
v -3.047000 10.685000 -9.774000
v -3.047000 10.685000 -4.255000
v -2.547000 10.685000 -9.355000
v -2.547000 10.685000 -4.476000
v -2.047000 10.685000 -9.186000
v -2.047000 10.685000 -4.737000
v -1.547000 10.685000 -8.901000
v -1.547000 10.685000 -5.499000
v -1.047000 10.685000 -8.340000
v -1.047000 10.685000 -6.344000
v -6.047000 9.481000 -10.734000
v -6.047000 11.372000 -10.734000
v -5.547000 8.985000 -10.734000
v -5.547000 11.830000 -10.734000
v -5.047000 8.801000 -10.734000
v -5.047000 12.022000 -10.734000
v -4.547000 8.810000 -10.734000
v -4.547000 12.045000 -10.734000
v -4.047000 9.017000 -10.734000
v -4.047000 11.888000 -10.734000
v -3.547000 9.604000 -10.734000
v -3.547000 11.383000 -10.734000
v -8.047000 9.483000 -6.734000
v -8.047000 10.870000 -6.734000
v -7.547000 8.949000 -6.734000
v -7.547000 11.435000 -6.734000
v -7.047000 8.742000 -6.734000
v -7.047000 11.867000 -6.734000
v -6.547000 8.644000 -6.734000
v -6.547000 12.320000 -6.734000
v -6.047000 8.588000 -6.734000
v -6.047000 12.565000 -6.734000
v -5.547000 8.421000 -6.734000
v -5.547000 12.969000 -6.734000
v -5.047000 8.277000 -6.734000
v -5.047000 13.521000 -6.734000
v -4.547000 8.274000 -6.734000
v -4.547000 13.937000 -6.734000
v -4.047000 8.274000 -6.734000
v -4.047000 14.115000 -6.734000
v -3.547000 8.282000 -6.734000
v -3.547000 14.102000 -6.734000
v -3.047000 8.487000 -6.734000
v -3.047000 14.038000 -6.734000
v -2.547000 8.793000 -6.734000
v -2.547000 13.808000 -6.734000
v -2.047000 9.021000 -6.734000
v -2.047000 13.465000 -6.734000
v -1.547000 9.636000 -6.734000
v -1.547000 13.234000 -6.734000
v -1.047000 10.553000 -6.734000
v -1.047000 12.764000 -6.734000
v -9.047000 11.471000 -2.734000
v -9.047000 11.826000 -2.734000
v -8.547000 9.759000 -2.734000
v -8.547000 12.684000 -2.734000
v -8.047000 8.979000 -2.734000
v -8.047000 12.919000 -2.734000
v -7.547000 8.462000 -2.734000
v -7.547000 12.985000 -2.734000
v -7.047000 8.270000 -2.734000
v -7.047000 13.051000 -2.734000
v -6.547000 8.273000 -2.734000
v -6.547000 13.040000 -2.734000
v -6.047000 8.472000 -2.734000
v -6.047000 12.981000 -2.734000
v -5.547000 8.973000 -2.734000
v -5.547000 12.775000 -2.734000
v -5.047000 9.506000 -2.734000
v -5.047000 12.285000 -2.734000
f 229 833 897
f 897 833 1059
f 1059 833 1005
f 1059 1005 1207
f 1207 1005 1161
f 1161 230 1207
f 899 231 897
f 897 231 229
f 1059 1003 85
f 899 1059 85
f 897 1059 899
f 1207 1159 1003
f 1207 1003 1059
f 230 9 59
f 230 59 86
f 1207 230 86
f 1159 1207 86
f 9 232 59
f 233 639 713
f 231 899 639
f 639 899 713
f 899 831 713
f 831 87 713
f 899 85 831
f 59 7 86
f 7 59 232
f 153 7 232
f 151 7 153
f 153 234 151
f 151 234 88
f 637 89 713
f 89 233 713
f 89 235 233
f 713 87 637
f 88 236 90
f 234 236 88
f 237 89 91
f 237 235 89
f 236 295 351
f 92 236 351
f 90 236 92
f 295 238 351
f 239 91 93
f 239 237 91
f 351 293 92
f 351 238 293
f 238 94 293
f 238 240 94
f 241 93 95
f 241 239 93
f 294 355 96
f 294 94 355
f 94 242 355
f 94 240 242
f 95 638 241
f 241 638 640
f 243 640 638
f 243 638 97
f 357 98 96
f 357 96 355
f 355 242 357
f 357 242 244
f 97 832 243
f 243 832 834
f 1004 834 832
f 1004 1006 834
f 1160 1223 245
f 1006 1160 245
f 1004 1160 1006
f 8 73 1223
f 8 1223 1160
f 152 217 73
f 152 73 8
f 217 152 98
f 357 217 98
f 359 217 357
f 357 244 359
f 359 244 246
f 1223 1162 245
f 1162 1223 10
f 10 1223 73
f 10 73 154
f 154 73 217
f 154 217 296
f 296 217 359
f 359 246 296
f 247 1177 1201
f 1177 248 1201
f 249 849 99
f 99 849 847
f 849 1019 847
f 1021 1019 849
f 1021 247 1201
f 1175 1021 1201
f 1019 1021 1175
f 1175 1201 248
f 25 1175 248
f 23 1175 25
f 100 23 197
f 23 169 197
f 23 25 169
f 169 250 197
f 251 655 101
f 101 655 653
f 99 653 655
f 99 655 249
f 197 167 100
f 197 250 167
f 250 102 167
f 250 252 102
f 253 453 103
f 103 453 451
f 101 451 453
f 101 453 251
f 102 254 104
f 252 254 102
f 255 103 105
f 255 253 103
f 309 104 254
f 309 254 311
f 311 256 309
f 309 256 106
f 257 105 107
f 257 255 105
f 483 106 256
f 483 256 485
f 485 258 483
f 483 258 108
f 259 107 109
f 259 257 107
f 689 108 258
f 689 258 691
f 691 260 689
f 689 260 110
f 261 109 111
f 261 259 109
f 881 110 260
f 881 260 883
f 883 262 881
f 881 262 112
f 263 111 113
f 263 261 111
f 262 1047 1083
f 114 262 1083
f 112 262 114
f 1047 264 1083
f 454 263 524
f 263 115 524
f 263 113 115
f 265 454 524
f 1083 1045 114
f 1083 264 1045
f 264 116 1045
f 264 266 116
f 117 526 115
f 115 526 524
f 265 524 526
f 265 526 267
f 116 268 118
f 266 268 116
f 119 528 117
f 117 528 526
f 267 526 528
f 267 528 269
f 1046 1089 120
f 1046 118 1089
f 118 270 1089
f 118 268 270
f 452 528 119
f 269 528 452
f 121 269 452
f 271 269 121
f 882 935 122
f 1089 1048 120
f 120 1048 882
f 1048 272 882
f 272 935 882
f 1089 270 1048
f 656 271 732
f 271 123 732
f 271 121 123
f 273 656 732
f 122 935 884
f 274 122 884
f 124 122 274
f 935 272 884
f 654 732 123
f 732 654 273
f 654 850 273
f 654 848 850
f 848 125 1082
f 1022 848 1082
f 850 848 1022
f 275 1022 1082
f 692 276 126
f 692 126 690
f 690 124 692
f 692 124 274
f 1020 1082 125
f 1082 1020 275
f 1020 1178 275
f 1020 1176 1178
f 1176 127 82
f 26 1176 82
f 1178 1176 26
f 26 82 226
f 26 226 170
f 170 226 128
f 310 170 128
f 312 170 310
f 484 312 310
f 484 486 312
f 484 126 486
f 486 126 276
f 24 82 127
f 168 226 24
f 24 226 82
f 128 226 168
f 50 39 129
f 277 185 50
f 185 39 50
f 185 183 39
f 336 325 278
f 325 185 278
f 325 183 185
f 336 130 325
f 892 863 131
f 279 1037 892
f 1037 863 892
f 1037 1035 863
f 1037 1191 1035
f 1193 1191 1037
f 41 50 129
f 1191 41 129
f 1193 41 1191
f 277 50 41
f 327 336 278
f 499 130 336
f 327 499 336
f 501 499 327
f 501 280 499
f 499 280 132
f 281 673 133
f 133 673 671
f 865 892 131
f 671 865 131
f 673 865 671
f 279 892 865
f 280 699 733
f 134 280 733
f 132 280 134
f 699 282 733
f 283 469 135
f 135 469 467
f 133 467 469
f 133 469 281
f 735 136 134
f 735 134 733
f 733 282 735
f 735 282 284
f 285 135 137
f 285 283 135
f 737 138 136
f 737 136 735
f 735 284 737
f 737 284 286
f 287 137 139
f 287 285 137
f 739 140 138
f 739 138 737
f 737 286 739
f 739 286 288
f 289 139 141
f 289 287 139
f 140 739 700
f 290 140 700
f 142 140 290
f 739 288 700
f 141 468 289
f 289 468 470
f 468 143 716
f 674 468 716
f 470 468 674
f 291 674 716
f 502 292 144
f 502 144 500
f 500 142 502
f 502 142 290
f 672 716 143
f 716 672 291
f 672 866 291
f 672 864 866
f 864 145 1068
f 1038 864 1068
f 866 864 1038
f 1038 1068 1216
f 1038 1216 1194
f 1194 1216 146
f 40 1194 146
f 42 1194 40
f 184 42 40
f 184 186 42
f 326 186 184
f 326 328 186
f 326 144 328
f 328 144 292
f 1036 1068 145
f 1192 1216 1036
f 1036 1216 1068
f 146 1216 1192
f 371 1007 1057
f 1007 372 1057
f 373 641 709
f 709 641 229
f 641 833 229
f 641 835 833
f 835 371 1057
f 1005 835 1057
f 833 835 1005
f 1005 1057 372
f 1163 1005 372
f 1161 1005 1163
f 230 1161 57
f 1161 11 57
f 1161 1163 11
f 11 374 57
f 711 375 709
f 709 375 373
f 709 229 231
f 709 231 711
f 57 9 230
f 57 374 9
f 374 232 9
f 374 376 232
f 639 233 711
f 233 375 711
f 233 377 375
f 711 231 639
f 153 232 376
f 153 376 155
f 155 378 153
f 153 378 234
f 379 233 235
f 379 377 233
f 234 380 236
f 378 380 234
f 381 235 237
f 381 379 235
f 295 236 380
f 295 380 297
f 297 382 295
f 295 382 238
f 383 237 239
f 383 381 237
f 382 471 545
f 240 382 545
f 238 382 240
f 471 384 545
f 642 383 722
f 383 241 722
f 383 239 241
f 385 642 722
f 547 242 240
f 547 240 545
f 677 747 384
f 747 545 384
f 747 547 545
f 677 386 747
f 640 722 241
f 836 385 912
f 912 385 243
f 385 722 243
f 722 640 243
f 387 836 912
f 549 244 242
f 549 242 547
f 547 749 549
f 547 747 749
f 747 386 749
f 749 386 388
f 834 912 243
f 912 834 387
f 834 1008 387
f 834 1006 1008
f 389 1008 1006
f 389 1006 245
f 551 246 244
f 551 244 549
f 549 751 551
f 549 749 751
f 749 388 751
f 751 388 390
f 1225 391 1162
f 391 245 1162
f 391 389 245
f 10 75 1225
f 10 1225 1162
f 154 219 75
f 154 75 10
f 296 361 219
f 296 219 154
f 361 296 246
f 551 361 246
f 553 361 551
f 551 753 553
f 551 751 753
f 751 390 753
f 753 390 392
f 1225 1164 391
f 1164 1225 393
f 1225 77 393
f 1225 75 77
f 75 221 77
f 75 219 221
f 219 363 221
f 219 361 363
f 361 555 363
f 361 553 555
f 553 755 555
f 553 753 755
f 753 392 755
f 755 392 394
f 79 395 77
f 77 395 393
f 77 223 79
f 77 221 223
f 221 365 223
f 221 363 365
f 363 557 365
f 363 555 557
f 396 557 678
f 557 755 678
f 557 555 755
f 755 394 678
f 79 12 395
f 12 79 397
f 79 225 397
f 79 223 225
f 223 367 225
f 223 365 367
f 365 559 367
f 365 557 559
f 557 396 559
f 559 396 398
f 225 156 397
f 156 225 298
f 298 225 367
f 298 367 472
f 472 367 559
f 559 398 472
f 399 1023 1053
f 1053 1023 247
f 1023 1177 247
f 1023 1179 1177
f 248 1177 51
f 1177 27 51
f 1177 1179 27
f 27 400 51
f 401 657 705
f 705 657 249
f 657 849 249
f 657 851 849
f 851 399 1053
f 1021 851 1053
f 849 851 1021
f 1053 247 1021
f 51 25 248
f 25 51 400
f 171 25 400
f 169 25 171
f 171 402 169
f 169 402 250
f 403 455 509
f 401 705 455
f 455 705 509
f 705 655 509
f 655 251 509
f 705 249 655
f 250 404 252
f 402 404 250
f 453 253 509
f 253 403 509
f 253 405 403
f 509 251 453
f 404 313 343
f 254 404 343
f 252 404 254
f 313 406 343
f 407 253 255
f 407 405 253
f 343 311 254
f 343 406 311
f 406 256 311
f 406 408 256
f 409 255 257
f 409 407 255
f 485 256 408
f 485 408 487
f 487 410 485
f 485 410 258
f 411 257 259
f 411 409 257
f 691 258 410
f 691 410 693
f 693 412 691
f 691 412 260
f 413 259 261
f 413 411 259
f 883 260 412
f 883 412 885
f 885 414 883
f 883 414 262
f 456 413 522
f 413 263 522
f 413 261 263
f 415 456 522
f 1047 262 414
f 1047 414 1049
f 1049 416 1047
f 1047 416 264
f 454 522 263
f 658 415 724
f 724 415 265
f 415 522 265
f 522 454 265
f 417 658 724
f 264 418 266
f 416 418 264
f 724 265 659
f 265 419 659
f 265 267 419
f 417 724 659
f 266 420 268
f 418 420 266
f 660 419 728
f 419 269 728
f 419 267 269
f 421 660 728
f 268 422 270
f 420 422 268
f 271 730 269
f 269 730 728
f 421 728 730
f 421 730 423
f 1050 424 272
f 1050 272 1048
f 1048 270 1050
f 1050 270 422
f 656 730 271
f 852 423 920
f 920 423 273
f 423 730 273
f 730 656 273
f 425 852 920
f 886 426 274
f 886 274 884
f 884 272 886
f 886 272 424
f 850 920 273
f 920 850 425
f 850 1024 425
f 850 1022 1024
f 1022 275 1230
f 1180 1022 1230
f 1024 1022 1180
f 427 1180 1230
f 488 428 558
f 488 558 276
f 692 488 276
f 694 488 692
f 692 274 694
f 694 274 426
f 1178 1230 275
f 1230 1178 427
f 1178 28 427
f 1178 26 28
f 170 28 26
f 170 172 28
f 312 172 170
f 312 314 172
f 428 314 558
f 314 486 558
f 314 312 486
f 276 558 486
f 194 185 277
f 194 278 185
f 1054 1037 279
f 429 1195 1054
f 1195 1037 1054
f 1195 1193 1037
f 1195 41 1193
f 43 41 1195
f 187 194 277
f 41 187 277
f 43 187 41
f 327 278 194
f 187 327 194
f 329 327 187
f 329 501 327
f 503 501 329
f 503 430 501
f 501 430 280
f 706 673 281
f 431 867 706
f 867 673 706
f 867 865 673
f 1039 1054 279
f 865 1039 279
f 867 1039 865
f 429 1054 1039
f 699 280 430
f 699 430 701
f 701 432 699
f 699 432 282
f 510 469 283
f 675 706 281
f 675 281 469
f 433 675 469
f 510 433 469
f 431 706 675
f 282 434 284
f 432 434 282
f 285 512 283
f 283 512 510
f 433 510 512
f 433 512 435
f 284 436 286
f 434 436 284
f 287 514 285
f 285 514 512
f 435 512 514
f 435 514 437
f 286 438 288
f 436 438 286
f 289 516 287
f 287 516 514
f 437 514 516
f 437 516 439
f 702 440 290
f 702 290 700
f 700 288 702
f 702 288 438
f 470 516 289
f 516 470 439
f 470 676 439
f 470 674 676
f 441 676 674
f 441 674 291
f 330 442 350
f 330 350 292
f 502 330 292
f 504 330 502
f 502 290 504
f 504 290 440
f 291 866 441
f 441 866 868
f 1038 868 866
f 1038 1040 868
f 1194 1040 1038
f 1194 1196 1040
f 42 1196 1194
f 42 44 1196
f 186 44 42
f 186 188 44
f 442 188 350
f 188 328 350
f 188 186 328
f 292 350 328
f 563 837 895
f 895 837 371
f 837 1007 371
f 837 1009 1007
f 372 1007 1205
f 1007 1165 1205
f 1007 1009 1165
f 1165 564 1205
f 565 643 373
f 373 643 641
f 643 563 895
f 835 643 895
f 641 643 835
f 895 371 835
f 1205 1163 372
f 1163 1205 564
f 13 1163 564
f 11 1163 13
f 13 566 11
f 11 566 374
f 567 373 375
f 567 565 373
f 374 568 376
f 566 568 374
f 569 375 377
f 569 567 375
f 155 376 568
f 155 568 157
f 157 570 155
f 155 570 378
f 571 377 379
f 571 569 377
f 570 299 349
f 380 570 349
f 378 570 380
f 299 572 349
f 573 379 381
f 573 571 379
f 349 297 380
f 349 572 297
f 572 382 297
f 572 574 382
f 575 381 383
f 575 573 381
f 471 382 574
f 471 574 473
f 473 576 471
f 471 576 384
f 723 577 642
f 577 383 642
f 577 575 383
f 385 723 642
f 677 384 576
f 677 576 679
f 386 677 927
f 677 871 927
f 677 679 871
f 871 578 927
f 723 644 577
f 385 836 723
f 836 644 723
f 836 838 644
f 579 838 836
f 579 836 387
f 929 388 386
f 929 386 927
f 927 578 929
f 929 578 580
f 1075 581 1008
f 581 387 1008
f 581 579 387
f 389 1075 1008
f 931 390 388
f 931 388 929
f 929 580 931
f 931 580 582
f 1075 1010 581
f 583 1010 1075
f 389 583 1075
f 391 583 389
f 933 392 390
f 933 390 931
f 931 582 933
f 933 582 584
f 1227 585 1164
f 585 391 1164
f 585 583 391
f 393 1227 1164
f 937 394 392
f 937 392 933
f 933 584 937
f 937 584 586
f 1229 587 1227
f 1227 587 585
f 1227 393 395
f 1227 395 1229
f 678 757 396
f 937 872 394
f 394 872 678
f 872 588 678
f 588 757 678
f 937 586 872
f 1229 1166 587
f 81 589 12
f 12 589 395
f 589 1166 395
f 1166 1229 395
f 397 81 12
f 759 398 396
f 759 396 757
f 757 588 759
f 759 588 590
f 81 14 589
f 227 591 156
f 156 591 397
f 591 14 397
f 14 81 397
f 298 369 227
f 298 227 156
f 474 592 369
f 298 474 369
f 472 474 298
f 759 680 398
f 680 472 398
f 680 474 472
f 759 590 680
f 227 158 591
f 158 227 300
f 300 227 369
f 369 592 300
f 593 1025 399
f 399 1025 1023
f 1025 1179 1023
f 1181 1179 1025
f 1181 27 1179
f 29 27 1181
f 29 594 27
f 27 594 400
f 595 661 401
f 401 661 657
f 661 851 657
f 853 851 661
f 399 851 853
f 399 853 593
f 171 400 594
f 171 594 173
f 173 596 171
f 171 596 402
f 597 457 403
f 403 457 455
f 401 455 457
f 401 457 595
f 596 315 341
f 404 596 341
f 402 596 404
f 315 598 341
f 599 403 405
f 599 597 403
f 341 313 404
f 341 598 313
f 598 406 313
f 598 600 406
f 601 405 407
f 601 599 405
f 600 489 537
f 408 600 537
f 406 600 408
f 489 602 537
f 603 407 409
f 603 601 407
f 537 487 408
f 537 602 487
f 602 410 487
f 602 604 410
f 605 409 411
f 605 603 409
f 693 410 604
f 693 604 695
f 695 606 693
f 693 606 412
f 458 605 520
f 605 413 520
f 605 411 413
f 607 458 520
f 885 412 606
f 885 606 887
f 887 608 885
f 885 608 414
f 456 520 413
f 662 607 720
f 720 607 415
f 607 520 415
f 520 456 415
f 609 662 720
f 1049 414 608
f 1049 608 1051
f 1051 610 1049
f 1049 610 416
f 658 720 415
f 854 609 910
f 910 609 417
f 609 720 417
f 720 658 417
f 611 854 910
f 416 612 418
f 610 612 416
f 726 659 419
f 659 726 417
f 726 910 417
f 726 914 910
f 611 910 914
f 611 914 613
f 418 614 420
f 612 614 418
f 660 726 419
f 421 916 660
f 916 726 660
f 916 914 726
f 613 914 916
f 613 916 615
f 420 616 422
f 614 616 420
f 423 918 421
f 421 918 916
f 1078 1026 615
f 916 1078 615
f 918 1078 916
f 617 1026 1078
f 888 618 936
f 888 936 424
f 1050 888 424
f 1052 888 1050
f 1050 422 1052
f 1052 422 616
f 852 918 423
f 425 1080 852
f 1080 918 852
f 1080 1078 918
f 1228 1182 617
f 1078 1228 617
f 1080 1228 1078
f 619 1182 1228
f 696 620 756
f 936 618 696
f 936 696 756
f 886 936 756
f 426 886 756
f 424 936 886
f 1024 1080 425
f 1180 1228 1024
f 1024 1228 1080
f 30 619 80
f 80 619 427
f 619 1228 427
f 1228 1180 427
f 30 80 224
f 30 224 174
f 174 224 366
f 174 366 316
f 316 366 428
f 488 316 428
f 490 316 488
f 620 490 756
f 490 694 756
f 490 488 694
f 426 756 694
f 28 80 427
f 172 224 28
f 28 224 80
f 314 366 172
f 172 366 224
f 428 366 314
f 1202 1195 429
f 621 45 1202
f 45 1195 1202
f 45 43 1195
f 45 187 43
f 189 187 45
f 189 329 187
f 331 329 189
f 530 503 622
f 503 331 622
f 503 329 331
f 530 430 503
f 894 867 431
f 623 1041 894
f 1041 867 894
f 1041 1039 867
f 1197 1202 429
f 1039 1197 429
f 1041 1197 1039
f 621 1202 1197
f 505 530 622
f 701 430 530
f 505 701 530
f 703 701 505
f 703 624 701
f 701 624 432
f 708 675 433
f 869 894 431
f 869 431 675
f 625 869 675
f 708 625 675
f 623 894 869
f 432 626 434
f 624 626 432
f 435 710 433
f 433 710 708
f 625 708 710
f 625 710 627
f 434 628 436
f 626 628 434
f 437 712 435
f 435 712 710
f 627 710 712
f 627 712 629
f 436 630 438
f 628 630 436
f 439 714 437
f 437 714 712
f 629 712 714
f 629 714 631
f 506 632 540
f 506 540 440
f 702 506 440
f 704 506 702
f 702 438 704
f 704 438 630
f 676 714 439
f 870 631 904
f 904 631 441
f 631 714 441
f 714 676 441
f 870 904 1066
f 870 1066 1042
f 1042 1066 1214
f 1042 1214 1198
f 1198 1214 64
f 1198 64 46
f 46 64 208
f 46 208 190
f 190 208 442
f 330 190 442
f 332 190 330
f 632 332 540
f 332 504 540
f 332 330 504
f 440 540 504
f 868 904 441
f 1040 1066 868
f 868 1066 904
f 1196 1214 1040
f 1040 1214 1066
f 44 64 1196
f 1196 64 1214
f 188 208 44
f 44 208 64
f 442 208 188
f 761 839 563
f 563 839 837
f 839 1009 837
f 1011 1009 839
f 1011 1165 1009
f 1167 1165 1011
f 1167 762 1165
f 1165 762 564
f 763 645 565
f 565 645 643
f 563 643 645
f 563 645 761
f 13 564 762
f 13 762 15
f 15 764 13
f 13 764 566
f 765 565 567
f 765 763 565
f 566 766 568
f 764 766 566
f 767 567 569
f 767 765 567
f 157 568 766
f 157 766 159
f 159 768 157
f 157 768 570
f 769 569 571
f 769 767 569
f 299 570 768
f 299 768 301
f 301 770 299
f 299 770 572
f 771 443 519
f 573 519 443
f 769 573 443
f 571 573 769
f 770 475 543
f 574 770 543
f 572 770 574
f 475 772 543
f 521 773 519
f 519 773 771
f 519 573 575
f 519 575 521
f 543 473 574
f 772 681 745
f 772 745 576
f 543 772 576
f 473 543 576
f 681 774 745
f 521 444 773
f 775 444 521
f 575 775 521
f 577 775 575
f 745 679 576
f 679 745 774
f 873 679 774
f 871 679 873
f 873 776 871
f 871 776 578
f 725 777 644
f 777 577 644
f 777 775 577
f 838 913 725
f 838 725 644
f 579 913 838
f 578 778 580
f 776 778 578
f 725 646 777
f 646 725 779
f 725 915 779
f 725 913 915
f 913 579 581
f 913 581 915
f 580 780 582
f 778 780 580
f 915 840 779
f 1077 781 1010
f 1010 781 581
f 781 840 581
f 840 915 581
f 583 1077 1010
f 582 782 584
f 780 782 582
f 1079 783 1077
f 1077 783 781
f 1077 583 585
f 1077 585 1079
f 584 784 586
f 782 784 584
f 1079 1012 783
f 785 1012 1079
f 585 785 1079
f 587 785 585
f 874 786 588
f 874 588 872
f 872 586 874
f 874 586 784
f 1231 787 1166
f 787 587 1166
f 787 785 587
f 589 1231 1166
f 588 788 590
f 786 788 588
f 1231 1168 787
f 589 14 1231
f 14 1168 1231
f 14 16 1168
f 789 16 14
f 789 14 591
f 474 561 592
f 682 790 561
f 474 682 561
f 680 682 474
f 680 590 682
f 682 590 788
f 591 158 789
f 789 158 160
f 300 160 158
f 300 302 160
f 561 476 592
f 476 300 592
f 476 302 300
f 561 790 476
f 791 1027 593
f 593 1027 1025
f 1027 1181 1025
f 1183 1181 1027
f 1183 29 1181
f 31 29 1183
f 31 792 29
f 29 792 594
f 793 663 595
f 595 663 661
f 663 853 661
f 855 853 663
f 593 853 855
f 593 855 791
f 173 594 792
f 173 792 175
f 596 173 339
f 173 317 339
f 173 175 317
f 317 794 339
f 795 459 597
f 597 459 457
f 595 457 459
f 595 459 793
f 339 315 596
f 339 794 315
f 794 598 315
f 794 796 598
f 797 597 599
f 797 795 597
f 598 798 600
f 796 798 598
f 799 599 601
f 799 797 599
f 489 600 798
f 489 798 491
f 491 800 489
f 489 800 602
f 801 601 603
f 801 799 601
f 602 802 604
f 800 802 602
f 460 801 518
f 801 605 518
f 801 603 605
f 803 460 518
f 695 604 802
f 695 802 697
f 697 804 695
f 695 804 606
f 458 518 605
f 664 803 718
f 718 803 607
f 803 518 607
f 518 458 607
f 805 664 718
f 806 924 887
f 606 806 887
f 804 806 606
f 924 608 887
f 662 718 607
f 856 805 908
f 908 805 609
f 805 718 609
f 718 662 609
f 807 856 908
f 889 924 806
f 808 1084 1051
f 808 1051 608
f 889 808 608
f 924 889 608
f 1084 610 1051
f 854 908 609
f 1028 807 1072
f 1072 807 611
f 807 908 611
f 908 854 611
f 809 1028 1072
f 810 1086 1084
f 810 1084 808
f 610 1084 612
f 612 1084 1086
f 613 1074 611
f 611 1074 1072
f 809 1072 1074
f 809 1074 811
f 812 1088 1086
f 812 1086 810
f 612 1086 614
f 614 1086 1088
f 615 1076 613
f 613 1076 1074
f 1224 1184 811
f 1074 1224 811
f 1076 1224 1074
f 813 1184 1224
f 814 1090 1088
f 814 1088 812
f 614 1088 616
f 616 1088 1090
f 1026 1076 615
f 617 1226 1026
f 1226 1076 1026
f 1226 1224 1076
f 813 1224 1226
f 813 1226 815
f 492 816 554
f 492 554 754
f 492 754 698
f 698 754 618
f 888 698 618
f 890 698 888
f 814 890 1090
f 890 1052 1090
f 890 888 1052
f 616 1090 1052
f 1182 1226 617
f 32 815 78
f 78 815 619
f 815 1226 619
f 1226 1182 619
f 32 78 222
f 32 222 176
f 176 222 364
f 176 364 318
f 554 816 318
f 364 554 318
f 556 554 364
f 696 754 620
f 754 556 620
f 754 554 556
f 618 754 696
f 30 78 619
f 174 222 30
f 30 222 78
f 316 364 174
f 174 364 222
f 490 556 316
f 316 556 364
f 620 556 490
f 52 45 621
f 196 189 52
f 52 189 45
f 338 331 196
f 196 331 189
f 338 622 331
f 1056 1041 623
f 817 1199 1056
f 1199 1041 1056
f 1199 1197 1041
f 47 52 621
f 1197 47 621
f 1199 47 1197
f 52 47 191
f 52 191 196
f 196 191 333
f 196 333 338
f 505 622 338
f 333 505 338
f 507 505 333
f 734 703 818
f 703 507 818
f 703 505 507
f 734 624 703
f 896 869 625
f 1043 1056 623
f 1043 623 869
f 819 1043 869
f 896 819 869
f 817 1056 1043
f 820 736 734
f 820 734 818
f 624 734 626
f 626 734 736
f 627 898 625
f 625 898 896
f 819 896 898
f 819 898 821
f 822 738 736
f 822 736 820
f 626 736 628
f 628 736 738
f 629 900 627
f 627 900 898
f 1062 1044 821
f 898 1062 821
f 900 1062 898
f 823 1044 1062
f 824 740 738
f 824 738 822
f 628 738 630
f 630 738 740
f 631 902 629
f 629 902 900
f 1064 900 902
f 1062 900 1064
f 1212 1200 823
f 1062 1212 823
f 1064 1212 1062
f 1200 1212 62
f 1200 62 48
f 48 62 206
f 48 206 192
f 192 206 348
f 192 348 334
f 334 348 632
f 506 334 632
f 508 334 506
f 824 508 740
f 508 704 740
f 508 506 704
f 630 740 704
f 870 902 631
f 1042 1064 870
f 870 1064 902
f 1198 1212 1042
f 1042 1212 1064
f 46 62 1198
f 1198 62 1212
f 190 206 46
f 46 206 62
f 332 348 190
f 190 348 206
f 632 348 332
f 939 825 903
f 903 825 1065
f 1065 825 997
f 1065 997 1213
f 1213 997 1153
f 1213 1153 63
f 63 1153 1
f 1 940 63
f 905 941 903
f 903 941 939
f 903 1067 905
f 903 1065 1067
f 1065 1215 1067
f 1065 1213 1215
f 1213 65 1215
f 1213 63 65
f 63 940 65
f 65 940 942
f 907 943 905
f 905 943 941
f 905 1069 907
f 905 1067 1069
f 1067 1217 1069
f 1067 1215 1217
f 1215 67 1217
f 1215 65 67
f 65 942 67
f 67 942 944
f 909 945 907
f 907 945 943
f 907 1071 909
f 907 1069 1071
f 1069 1219 1071
f 1069 1217 1219
f 1217 69 1219
f 1217 67 69
f 67 944 69
f 69 944 946
f 909 826 945
f 826 909 998
f 998 909 1071
f 998 1071 1154
f 1154 1071 1219
f 1154 1219 2
f 2 1219 69
f 69 946 2
f 947 841 761
f 761 841 839
f 841 1011 839
f 1013 1011 841
f 1013 1167 1011
f 1169 1167 1013
f 1169 948 1167
f 1167 948 762
f 949 647 763
f 763 647 645
f 761 645 647
f 761 647 947
f 15 762 948
f 15 948 17
f 17 950 15
f 15 950 764
f 951 763 765
f 951 949 763
f 950 161 203
f 766 950 203
f 764 950 766
f 161 952 203
f 953 765 767
f 953 951 765
f 203 159 766
f 203 952 159
f 952 768 159
f 952 954 768
f 955 445 517
f 769 517 445
f 953 769 445
f 767 769 953
f 301 768 954
f 301 954 303
f 303 956 301
f 301 956 770
f 443 771 517
f 771 955 517
f 771 957 955
f 517 769 443
f 475 770 956
f 475 956 477
f 477 958 475
f 475 958 772
f 959 771 773
f 959 957 771
f 681 772 958
f 681 958 683
f 683 960 681
f 681 960 774
f 523 961 444
f 961 773 444
f 961 959 773
f 775 523 444
f 873 774 960
f 873 960 875
f 875 962 873
f 873 962 776
f 525 963 523
f 523 963 961
f 523 775 777
f 523 777 525
f 776 964 778
f 962 964 776
f 525 446 963
f 727 965 646
f 646 965 777
f 965 446 777
f 446 525 777
f 779 727 646
f 778 966 780
f 964 966 778
f 727 648 965
f 917 967 840
f 840 967 779
f 967 648 779
f 648 727 779
f 781 917 840
f 780 968 782
f 966 968 780
f 919 969 917
f 917 969 967
f 917 781 783
f 917 783 919
f 782 970 784
f 968 970 782
f 919 842 969
f 1081 971 1012
f 1012 971 783
f 971 842 783
f 842 919 783
f 785 1081 1012
f 876 972 786
f 876 786 874
f 874 784 876
f 876 784 970
f 1081 1014 971
f 973 1014 1081
f 785 973 1081
f 787 973 785
f 786 974 788
f 972 974 786
f 787 1168 973
f 973 1168 1170
f 16 83 975
f 1170 16 975
f 1168 16 1170
f 789 83 16
f 684 976 790
f 684 790 682
f 682 788 684
f 684 788 974
f 83 18 975
f 789 160 83
f 160 18 83
f 160 162 18
f 302 162 160
f 302 304 162
f 476 304 302
f 476 478 304
f 476 790 478
f 478 790 976
f 977 1029 791
f 791 1029 1027
f 1029 1183 1027
f 1185 1183 1029
f 1185 31 1183
f 33 31 1185
f 792 31 195
f 31 177 195
f 31 33 177
f 177 978 195
f 979 665 793
f 793 665 663
f 665 855 663
f 857 855 665
f 791 855 857
f 791 857 977
f 195 175 792
f 175 195 978
f 319 175 978
f 317 175 319
f 319 980 317
f 317 980 794
f 981 461 795
f 795 461 459
f 793 459 461
f 793 461 979
f 794 982 796
f 980 982 794
f 983 795 797
f 983 981 795
f 982 493 535
f 798 982 535
f 796 982 798
f 493 984 535
f 985 797 799
f 985 983 797
f 535 491 798
f 535 984 491
f 984 800 491
f 984 986 800
f 987 799 801
f 987 985 799
f 800 988 802
f 986 988 800
f 801 460 987
f 987 460 462
f 989 462 460
f 989 460 803
f 990 742 697
f 802 990 697
f 988 990 802
f 742 804 697
f 803 664 989
f 989 664 666
f 991 666 664
f 991 664 805
f 992 744 742
f 992 742 990
f 804 742 806
f 806 742 744
f 805 856 991
f 991 856 858
f 856 807 1070
f 1030 856 1070
f 858 856 1030
f 993 1030 1070
f 994 746 744
f 994 744 992
f 806 744 889
f 744 926 889
f 744 746 926
f 926 808 889
f 1028 1070 807
f 1186 993 1220
f 1220 993 809
f 993 1070 809
f 1070 1028 809
f 1186 1220 70
f 1186 70 34
f 995 34 70
f 996 748 746
f 996 746 994
f 928 746 748
f 926 746 928
f 808 926 810
f 810 926 928
f 811 1222 809
f 809 1222 1220
f 72 1220 1222
f 70 1220 72
f 216 178 995
f 70 216 995
f 72 216 70
f 178 216 358
f 178 358 320
f 320 358 550
f 320 550 494
f 748 996 494
f 550 748 494
f 750 748 550
f 930 748 750
f 928 748 930
f 810 928 812
f 812 928 930
f 1184 1222 811
f 813 74 1184
f 74 1222 1184
f 74 72 1222
f 218 72 74
f 216 72 218
f 360 216 218
f 358 216 360
f 552 358 360
f 550 358 552
f 752 550 552
f 750 550 752
f 932 750 752
f 930 750 932
f 812 930 814
f 814 930 932
f 815 76 813
f 813 76 74
f 220 74 76
f 218 74 220
f 362 218 220
f 360 218 362
f 492 552 816
f 552 362 816
f 552 360 362
f 698 752 492
f 492 752 552
f 890 932 698
f 698 932 752
f 814 932 890
f 32 76 815
f 176 220 32
f 32 220 76
f 318 362 176
f 176 362 220
f 816 362 318
f 1204 1199 817
f 54 47 1204
f 1204 47 1199
f 198 191 54
f 54 191 47
f 340 333 198
f 198 333 191
f 532 507 340
f 340 507 333
f 532 818 507
f 1058 1043 819
f 1043 1058 817
f 1058 1204 817
f 1058 1206 1204
f 56 1204 1206
f 54 1204 56
f 200 54 56
f 198 54 200
f 342 198 200
f 340 198 342
f 534 340 342
f 532 340 534
f 818 532 820
f 820 532 534
f 821 1060 819
f 819 1060 1058
f 1208 1058 1060
f 1206 1058 1208
f 58 1206 1208
f 56 1206 58
f 202 56 58
f 200 56 202
f 344 200 202
f 342 200 344
f 536 342 344
f 534 342 536
f 820 534 822
f 822 534 536
f 1044 1060 821
f 823 1210 1044
f 1210 1060 1044
f 1210 1208 1060
f 60 1208 1210
f 58 1208 60
f 204 58 60
f 202 58 204
f 346 202 204
f 344 202 346
f 538 344 346
f 536 344 538
f 822 536 824
f 824 536 538
f 1200 1210 823
f 48 60 1200
f 1200 60 1210
f 192 204 48
f 48 204 60
f 334 346 192
f 192 346 204
f 508 538 334
f 334 538 346
f 824 538 508
f 1091 999 1063
f 1063 999 1211
f 1211 999 1155
f 1155 1092 1211
f 1093 633 715
f 715 633 939
f 633 825 939
f 633 827 825
f 827 1091 1063
f 997 827 1063
f 825 827 997
f 1211 1153 997
f 1211 997 1063
f 1153 1211 1092
f 3 1153 1092
f 1 1153 3
f 940 1 207
f 1 147 207
f 1 3 147
f 147 1094 207
f 717 1095 715
f 715 1095 1093
f 715 939 941
f 715 941 717
f 209 942 940
f 209 940 207
f 207 1094 209
f 209 1094 1096
f 719 1097 717
f 717 1097 1095
f 717 941 943
f 717 943 719
f 211 944 942
f 211 942 209
f 209 1096 211
f 211 1096 1098
f 721 1099 719
f 719 1099 1097
f 719 943 945
f 719 945 721
f 213 946 944
f 213 944 211
f 211 1098 213
f 213 1098 1100
f 721 634 1099
f 945 826 721
f 826 634 721
f 826 828 634
f 998 1073 1101
f 828 998 1101
f 826 998 828
f 1154 1221 1073
f 1154 1073 998
f 4 1102 1221
f 1154 4 1221
f 2 4 1154
f 213 148 946
f 148 2 946
f 148 4 2
f 213 1100 148
f 1073 1000 1101
f 1000 1073 1156
f 1156 1073 1221
f 1221 1102 1156
f 1103 1015 1055
f 1015 1104 1055
f 1105 649 707
f 707 649 947
f 649 841 947
f 649 843 841
f 843 1103 1055
f 1013 843 1055
f 841 843 1013
f 1013 1055 1104
f 1171 1013 1104
f 1169 1013 1171
f 948 1169 55
f 1169 19 55
f 1169 1171 19
f 19 1106 55
f 647 949 707
f 949 1105 707
f 949 1107 1105
f 707 947 647
f 55 17 948
f 1106 163 201
f 1106 201 950
f 55 1106 950
f 17 55 950
f 163 1108 201
f 1109 949 951
f 1109 1107 949
f 201 161 950
f 201 1108 161
f 1108 952 161
f 1108 1110 952
f 1111 951 953
f 1111 1109 951
f 1110 305 347
f 954 1110 347
f 952 1110 954
f 305 1112 347
f 1113 447 955
f 955 447 445
f 953 445 447
f 953 447 1111
f 347 303 954
f 1112 479 541
f 1112 541 956
f 347 1112 956
f 303 347 956
f 479 1114 541
f 1115 955 957
f 1115 1113 955
f 541 477 956
f 1114 685 743
f 1114 743 958
f 541 1114 958
f 477 541 958
f 685 1116 743
f 1117 957 959
f 1117 1115 957
f 743 683 958
f 1116 877 925
f 1116 925 960
f 743 1116 960
f 683 743 960
f 877 1118 925
f 1119 959 961
f 1119 1117 959
f 925 875 960
f 925 1118 875
f 1118 962 875
f 1118 1120 962
f 1121 961 963
f 1121 1119 961
f 962 1122 964
f 1120 1122 962
f 527 1123 446
f 1123 963 446
f 1123 1121 963
f 965 527 446
f 964 1124 966
f 1122 1124 964
f 527 448 1123
f 729 1125 648
f 648 1125 965
f 1125 448 965
f 448 527 965
f 967 729 648
f 966 1126 968
f 1124 1126 966
f 731 1127 729
f 729 1127 1125
f 729 967 969
f 729 969 731
f 968 1128 970
f 1126 1128 968
f 731 650 1127
f 969 842 731
f 842 650 731
f 842 844 650
f 1129 844 842
f 1129 842 971
f 878 1130 972
f 878 972 876
f 876 970 878
f 878 970 1128
f 971 1014 1129
f 1129 1014 1016
f 1131 1016 1014
f 1131 1014 973
f 972 1132 974
f 1130 1132 972
f 973 1170 1131
f 1131 1170 1172
f 1170 975 84
f 20 1170 84
f 1172 1170 20
f 1133 20 84
f 480 1134 562
f 480 562 976
f 684 480 976
f 686 480 684
f 684 974 686
f 686 974 1132
f 18 84 975
f 84 18 1133
f 18 164 1133
f 18 162 164
f 304 164 162
f 304 306 164
f 1134 306 562
f 306 478 562
f 306 304 478
f 976 562 478
f 1135 1031 977
f 977 1031 1029
f 1031 1185 1029
f 1187 1185 1031
f 1187 33 1185
f 35 33 1187
f 35 177 33
f 179 177 35
f 978 177 337
f 177 321 337
f 177 179 321
f 321 1136 337
f 1137 667 979
f 979 667 665
f 667 857 665
f 859 857 667
f 977 857 859
f 977 859 1135
f 337 319 978
f 337 1136 319
f 1136 980 319
f 1136 1138 980
f 1139 463 981
f 981 463 461
f 979 461 463
f 979 463 1137
f 1138 495 533
f 982 1138 533
f 980 1138 982
f 495 1140 533
f 1141 981 983
f 1141 1139 981
f 533 493 982
f 533 1140 493
f 1140 984 493
f 1140 1142 984
f 1143 983 985
f 1143 1141 983
f 984 1144 986
f 1142 1144 984
f 1145 985 987
f 1145 1143 985
f 986 1146 988
f 1144 1146 986
f 987 462 1145
f 1145 462 464
f 1147 464 462
f 1147 462 989
f 988 1148 990
f 1146 1148 988
f 989 666 1147
f 1147 666 668
f 1149 668 666
f 1149 666 991
f 990 1150 992
f 1148 1150 990
f 991 858 1149
f 1149 858 860
f 1030 860 858
f 1030 1032 860
f 1030 993 1218
f 1188 1030 1218
f 1032 1030 1188
f 1188 1218 68
f 1188 68 36
f 1151 36 68
f 322 1152 354
f 322 354 546
f 322 546 496
f 546 994 496
f 994 1150 496
f 994 992 1150
f 1186 1218 993
f 34 68 1186
f 1186 68 1218
f 180 1151 214
f 214 1151 995
f 1151 68 995
f 68 34 995
f 354 1152 180
f 214 354 180
f 356 354 214
f 548 354 356
f 546 354 548
f 994 546 996
f 996 546 548
f 178 214 995
f 320 356 178
f 178 356 214
f 494 548 320
f 320 548 356
f 996 548 494
f 1233 829 901
f 901 829 1091
f 829 999 1091
f 829 1001 999
f 1001 1155 999
f 1157 1155 1001
f 1092 1155 61
f 1155 5 61
f 1155 1157 5
f 5 1234 61
f 1235 635 1093
f 1093 635 633
f 635 1233 901
f 827 635 901
f 633 635 827
f 901 1091 827
f 61 3 1092
f 3 61 1234
f 149 3 1234
f 147 3 149
f 149 1236 147
f 147 1236 1094
f 1237 1093 1095
f 1237 1235 1093
f 1094 1238 1096
f 1236 1238 1094
f 1239 1095 1097
f 1239 1237 1095
f 1096 1240 1098
f 1238 1240 1096
f 1241 1097 1099
f 1241 1239 1097
f 1098 1242 1100
f 1240 1242 1098
f 1099 634 1241
f 1241 634 636
f 828 911 1243
f 636 828 1243
f 634 828 636
f 1101 911 828
f 4 71 1102
f 150 1244 71
f 4 150 71
f 148 150 4
f 148 1100 150
f 150 1100 1242
f 911 830 1243
f 1101 1000 911
f 1000 830 911
f 1000 1002 830
f 1156 1002 1000
f 1156 1158 1002
f 71 6 1102
f 6 1156 1102
f 6 1158 1156
f 71 1244 6
f 1245 845 893
f 893 845 1103
f 845 1015 1103
f 845 1017 1015
f 1104 1015 1203
f 1015 1173 1203
f 1015 1017 1173
f 1173 1246 1203
f 1247 651 1105
f 1105 651 649
f 651 1245 893
f 843 651 893
f 649 651 843
f 893 1103 843
f 1203 1171 1104
f 1171 1203 1246
f 21 1171 1246
f 19 1171 21
f 21 1248 19
f 19 1248 1106
f 1249 1105 1107
f 1249 1247 1105
f 163 1106 1248
f 163 1248 165
f 165 1250 163
f 163 1250 1108
f 1251 449 513
f 1109 513 449
f 1249 1109 449
f 1107 1109 1249
f 1250 307 345
f 1110 1250 345
f 1108 1250 1110
f 307 1252 345
f 515 1253 513
f 513 1253 1251
f 513 1109 1111
f 513 1111 515
f 345 305 1110
f 345 1252 305
f 1252 1112 305
f 1252 1254 1112
f 447 1113 515
f 1113 1253 515
f 1113 1255 1253
f 515 1111 447
f 479 1112 1254
f 479 1254 481
f 481 1256 479
f 479 1256 1114
f 1257 1113 1115
f 1257 1255 1113
f 685 1114 1256
f 685 1256 687
f 687 1258 685
f 685 1258 1116
f 1259 1115 1117
f 1259 1257 1115
f 877 1116 1258
f 877 1258 879
f 879 1260 877
f 877 1260 1118
f 1261 1117 1119
f 1261 1259 1117
f 1118 1262 1120
f 1260 1262 1118
f 1263 1119 1121
f 1263 1261 1119
f 1120 1264 1122
f 1262 1264 1120
f 1265 1121 1123
f 1265 1263 1121
f 1122 1266 1124
f 1264 1266 1122
f 1123 448 1265
f 1265 448 450
f 1267 450 448
f 1267 448 1125
f 1124 1268 1126
f 1266 1268 1124
f 1269 1125 1127
f 1269 1267 1125
f 880 1270 938
f 938 1128 880
f 1128 1268 880
f 1128 1126 1268
f 1127 650 1269
f 1269 650 652
f 844 921 1271
f 652 844 1271
f 650 844 652
f 1129 921 844
f 1130 878 938
f 1270 1130 938
f 1272 1130 1270
f 1128 938 878
f 921 846 1271
f 1129 1016 921
f 1016 846 921
f 1016 1018 846
f 1273 1018 1016
f 1273 1016 1131
f 688 1274 760
f 760 1132 688
f 1132 1272 688
f 1132 1130 1272
f 1131 1172 1273
f 1273 1172 1174
f 20 1174 1172
f 20 22 1174
f 20 1133 228
f 166 20 228
f 22 20 166
f 166 228 370
f 166 370 308
f 308 370 1134
f 480 308 1134
f 482 308 480
f 1274 482 760
f 482 686 760
f 482 480 686
f 1132 760 686
f 164 228 1133
f 306 370 164
f 164 370 228
f 1134 370 306
f 1275 181 193
f 181 1276 193
f 1277 1033 1135
f 1135 1033 1031
f 1033 1187 1031
f 1189 1187 1033
f 1189 35 1187
f 37 35 1189
f 37 1275 193
f 179 37 193
f 35 37 179
f 179 193 1276
f 323 179 1276
f 321 179 323
f 323 1278 321
f 321 1278 1136
f 1279 669 1137
f 1137 669 667
f 669 859 667
f 861 859 669
f 1135 859 861
f 1135 861 1277
f 1278 497 531
f 1138 1278 531
f 1136 1278 1138
f 497 1280 531
f 1281 465 1139
f 1139 465 463
f 1137 463 465
f 1137 465 1279
f 531 495 1138
f 531 1280 495
f 1280 1140 495
f 1280 1282 1140
f 1283 1139 1141
f 1283 1281 1139
f 1140 1284 1142
f 1282 1284 1140
f 1285 1141 1143
f 1285 1283 1141
f 1142 1286 1144
f 1284 1286 1142
f 1287 1143 1145
f 1287 1285 1143
f 1144 1288 1146
f 1286 1288 1144
f 1145 464 1287
f 1287 464 466
f 1289 466 464
f 1289 464 1147
f 1146 1290 1148
f 1288 1290 1146
f 1147 668 1289
f 1289 668 670
f 1291 670 668
f 1291 668 1149
f 498 1292 544
f 544 1150 498
f 1150 1290 498
f 1150 1148 1290
f 1149 860 1291
f 1291 860 862
f 1032 862 860
f 1032 1034 862
f 1188 1034 1032
f 1188 1190 1034
f 36 1190 1188
f 36 38 1190
f 36 1151 212
f 182 36 212
f 38 36 182
f 182 212 1152
f 322 182 1152
f 324 182 322
f 1292 324 544
f 324 496 544
f 324 322 496
f 1150 544 496
f 180 212 1151
f 1152 212 180
f 85 1003 1061
f 1061 1003 1209
f 1209 1003 1159
f 1159 86 1209
f 87 831 1233
f 1233 831 829
f 831 85 1061
f 1001 831 1061
f 829 831 1001
f 1209 1157 1001
f 1209 1001 1061
f 1157 1209 86
f 7 1157 86
f 5 1157 7
f 1234 5 205
f 5 151 205
f 5 7 151
f 151 88 205
f 89 637 1235
f 1235 637 635
f 1233 635 637
f 1233 637 87
f 205 149 1234
f 205 88 149
f 88 1236 149
f 88 90 1236
f 91 1235 1237
f 91 89 1235
f 1236 92 1238
f 90 92 1236
f 93 1237 1239
f 93 91 1237
f 92 293 353
f 1240 92 353
f 1238 92 1240
f 293 94 353
f 95 1239 1241
f 95 93 1239
f 1240 353 294
f 96 1240 294
f 1242 1240 96
f 353 94 294
f 1241 636 95
f 95 636 638
f 97 638 636
f 97 636 1243
f 150 215 1244
f 150 1242 215
f 1242 98 215
f 1242 96 98
f 1243 830 97
f 97 830 832
f 1002 832 830
f 1002 1004 832
f 1158 1004 1002
f 1158 1160 1004
f 6 1160 1158
f 6 8 1160
f 215 152 1244
f 152 6 1244
f 152 8 6
f 215 98 152
f 99 847 1245
f 1245 847 845
f 847 1017 845
f 1019 1017 847
f 1019 1173 1017
f 1175 1173 1019
f 1246 1173 53
f 1173 23 53
f 1173 1175 23
f 23 100 53
f 101 653 1247
f 1247 653 651
f 1245 651 653
f 1245 653 99
f 53 21 1246
f 100 167 199
f 100 199 1248
f 53 100 1248
f 21 53 1248
f 167 102 199
f 103 451 511
f 1249 511 451
f 101 1249 451
f 1247 1249 101
f 199 165 1248
f 199 102 165
f 102 1250 165
f 102 104 1250
f 449 1251 511
f 1251 103 511
f 1251 105 103
f 511 1249 449
f 307 1250 104
f 307 104 309
f 309 106 307
f 307 106 1252
f 107 1251 1253
f 107 105 1251
f 106 483 539
f 1254 106 539
f 1252 106 1254
f 483 108 539
f 109 1253 1255
f 109 107 1253
f 539 481 1254
f 108 689 741
f 108 741 1256
f 539 108 1256
f 481 539 1256
f 689 110 741
f 111 1255 1257
f 111 109 1255
f 741 687 1256
f 110 881 923
f 110 923 1258
f 741 110 1258
f 687 741 1258
f 881 112 923
f 113 1257 1259
f 113 111 1257
f 923 879 1258
f 923 112 879
f 112 1260 879
f 112 114 1260
f 115 1259 1261
f 115 113 1259
f 114 1045 1085
f 1262 114 1085
f 1260 114 1262
f 1045 116 1085
f 117 1261 1263
f 117 115 1261
f 1087 1264 1262
f 1087 1262 1085
f 1085 116 1087
f 1087 116 118
f 119 1263 1265
f 119 117 1263
f 1264 1087 1046
f 120 1264 1046
f 1266 1264 120
f 1087 118 1046
f 1265 450 119
f 119 450 452
f 121 452 450
f 121 450 1267
f 882 122 934
f 934 1268 882
f 1268 120 882
f 1268 1266 120
f 123 1267 1269
f 123 121 1267
f 1270 880 934
f 122 1270 934
f 124 1270 122
f 1268 934 880
f 1269 652 123
f 123 652 654
f 652 1271 922
f 848 652 922
f 654 652 848
f 125 848 922
f 690 126 758
f 758 1272 690
f 1272 124 690
f 1272 1270 124
f 846 922 1271
f 922 846 125
f 846 1020 125
f 846 1018 1020
f 1018 1273 1232
f 1176 1018 1232
f 1020 1018 1176
f 127 1176 1232
f 310 128 368
f 310 368 560
f 310 560 484
f 758 126 484
f 758 484 560
f 688 758 560
f 1274 688 560
f 1272 758 688
f 1174 1232 1273
f 1232 1174 127
f 1174 24 127
f 1174 22 24
f 166 24 22
f 166 168 24
f 128 168 368
f 168 308 368
f 168 166 308
f 482 560 308
f 308 560 368
f 1274 560 482
f 129 39 49
f 49 39 1275
f 39 181 1275
f 39 183 181
f 1276 181 335
f 181 325 335
f 181 183 325
f 325 130 335
f 131 863 891
f 891 863 1277
f 863 1033 1277
f 863 1035 1033
f 1035 1189 1033
f 1191 1189 1035
f 1191 129 49
f 37 1191 49
f 1189 1191 37
f 49 1275 37
f 335 323 1276
f 130 499 529
f 130 529 1278
f 335 130 1278
f 323 335 1278
f 499 132 529
f 133 671 1279
f 1279 671 669
f 671 131 891
f 861 671 891
f 669 671 861
f 891 1277 861
f 529 497 1278
f 529 132 497
f 132 1280 497
f 132 134 1280
f 135 467 1281
f 1281 467 465
f 1279 465 467
f 1279 467 133
f 1280 136 1282
f 134 136 1280
f 137 1281 1283
f 137 135 1281
f 1282 138 1284
f 136 138 1282
f 139 1283 1285
f 139 137 1283
f 1284 140 1286
f 138 140 1284
f 141 1285 1287
f 141 139 1285
f 1286 142 1288
f 140 142 1286
f 1287 466 141
f 141 466 468
f 143 468 466
f 143 466 1289
f 500 144 542
f 542 1290 500
f 1290 142 500
f 1290 1288 142
f 1289 670 143
f 143 670 672
f 670 1291 906
f 864 670 906
f 672 670 864
f 145 864 906
f 40 146 66
f 40 66 210
f 40 210 184
f 184 210 352
f 184 352 326
f 542 144 326
f 542 326 352
f 498 542 352
f 1292 498 352
f 1290 542 498
f 862 906 1291
f 906 862 145
f 862 1036 145
f 862 1034 1036
f 1190 1036 1034
f 1190 1192 1036
f 146 1192 66
f 1192 38 66
f 1192 1190 38
f 182 210 38
f 38 210 66
f 324 352 182
f 182 352 210
f 1292 352 324
