# Converted from NanoShaper .vert/.face
v 9.569000 8.435000 -16.484000
v 11.369000 8.435000 -16.484000
v 9.008000 8.435000 -15.984000
v 11.896000 8.435000 -15.984000
v 8.553000 8.435000 -15.484000
v 12.077000 8.435000 -15.484000
v 8.090000 8.435000 -14.984000
v 12.062000 8.435000 -14.984000
v 7.854000 8.435000 -14.484000
v 11.841000 8.435000 -14.484000
v 7.505000 8.435000 -13.984000
v 11.583000 8.435000 -13.984000
v 7.320000 8.435000 -13.484000
v 11.375000 8.435000 -13.484000
v 7.323000 8.435000 -12.984000
v 11.031000 8.435000 -12.984000
v 7.338000 8.435000 -12.484000
v 10.789000 8.435000 -12.484000
v 7.303000 8.435000 -11.984000
v 10.559000 8.435000 -11.984000
v 7.311000 8.435000 -11.484000
v 10.369000 8.435000 -11.484000
v 7.451000 8.435000 -10.984000
v 10.116000 8.435000 -10.984000
v 7.526000 8.435000 -10.484000
v 9.987000 8.435000 -10.484000
v 7.744000 8.435000 -9.984000
v 9.824000 8.435000 -9.984000
v 7.453000 8.435000 -13.890000
v 7.453000 8.435000 -10.974000
v 7.953000 8.435000 -14.714000
v 7.953000 8.435000 -9.769000
v 8.453000 8.435000 -15.373000
v 8.453000 8.435000 -9.532000
v 8.953000 8.435000 -15.919000
v 8.953000 8.435000 -9.509000
v 9.453000 8.435000 -16.419000
v 9.453000 8.435000 -9.616000
v 9.953000 8.435000 -16.607000
v 9.953000 8.435000 -10.343000
v 10.453000 8.435000 -16.640000
v 10.453000 8.435000 -11.661000
v 10.953000 8.435000 -16.626000
v 10.953000 8.435000 -12.797000
v 11.453000 8.435000 -16.435000
v 11.453000 8.435000 -13.618000
v 11.953000 8.435000 -15.880000
v 11.953000 8.435000 -14.672000
v 9.953000 8.034000 -16.484000
v 9.953000 9.343000 -16.484000
v 10.453000 7.493000 -16.484000
v 10.453000 9.321000 -16.484000
v 10.953000 7.477000 -16.484000
v 10.953000 8.836000 -16.484000
v 7.453000 7.017000 -12.484000
v 7.453000 9.233000 -12.484000
v 7.953000 6.297000 -12.484000
v 7.953000 9.891000 -12.484000
v 8.453000 6.036000 -12.484000
v 8.453000 10.402000 -12.484000
v 8.953000 6.021000 -12.484000
v 8.953000 10.587000 -12.484000
v 9.453000 6.159000 -12.484000
v 9.453000 10.573000 -12.484000
v 9.953000 6.375000 -12.484000
v 9.953000 10.355000 -12.484000
v 10.453000 6.713000 -12.484000
v 10.453000 9.703000 -12.484000
v 9.546000 8.935000 -16.484000
v 10.841000 8.935000 -16.484000
v 8.992000 8.935000 -15.984000
v 11.638000 8.935000 -15.984000
v 8.534000 8.935000 -15.484000
v 11.861000 8.935000 -15.484000
v 8.075000 8.935000 -14.984000
v 11.842000 8.935000 -14.984000
v 7.845000 8.935000 -14.484000
v 11.605000 8.935000 -14.484000
v 7.507000 8.935000 -13.984000
v 11.401000 8.935000 -13.984000
v 7.322000 8.935000 -13.484000
v 11.153000 8.935000 -13.484000
v 7.329000 8.935000 -12.984000
v 10.844000 8.935000 -12.984000
v 7.363000 8.935000 -12.484000
v 10.611000 8.935000 -12.484000
v 7.378000 8.935000 -11.984000
v 10.404000 8.935000 -11.984000
v 7.397000 8.935000 -11.484000
v 10.139000 8.935000 -11.484000
v 7.603000 8.935000 -10.984000
v 9.883000 8.935000 -10.984000
v 7.938000 8.935000 -10.484000
v 9.497000 8.935000 -10.484000
v 7.453000 8.935000 -13.886000
v 7.453000 8.935000 -11.292000
v 7.953000 8.935000 -14.749000
v 7.953000 8.935000 -10.466000
v 8.453000 8.935000 -15.393000
v 8.453000 8.935000 -10.080000
v 8.953000 8.935000 -15.939000
v 8.953000 8.935000 -10.081000
v 9.453000 8.935000 -16.431000
v 9.453000 8.935000 -10.436000
v 9.953000 8.935000 -16.618000
v 9.953000 8.935000 -11.115000
v 10.453000 8.935000 -16.608000
v 10.453000 8.935000 -12.122000
v 10.953000 8.935000 -16.440000
v 10.953000 8.935000 -13.185000
v 11.453000 8.935000 -16.173000
v 11.453000 8.935000 -14.152000
v 9.453000 7.763000 -15.984000
v 9.453000 9.664000 -15.984000
v 9.953000 7.216000 -15.984000
v 9.953000 9.887000 -15.984000
v 10.453000 6.969000 -15.984000
v 10.453000 9.876000 -15.984000
v 10.953000 6.960000 -15.984000
v 10.953000 9.621000 -15.984000
v 11.453000 7.184000 -15.984000
v 11.453000 9.109000 -15.984000
v 7.453000 6.680000 -11.984000
v 7.453000 9.184000 -11.984000
v 7.953000 6.047000 -11.984000
v 7.953000 9.823000 -11.984000
v 8.453000 5.833000 -11.984000
v 8.453000 10.174000 -11.984000
v 8.953000 5.821000 -11.984000
v 8.953000 10.367000 -11.984000
v 9.453000 6.004000 -11.984000
v 9.453000 10.351000 -11.984000
v 9.953000 6.296000 -11.984000
v 9.953000 10.077000 -11.984000
v 10.453000 6.841000 -11.984000
v 10.453000 8.781000 -11.984000
v 9.224000 9.435000 -15.984000
v 11.128000 9.435000 -15.984000
v 8.756000 9.435000 -15.484000
v 11.368000 9.435000 -15.484000
v 8.296000 9.435000 -14.984000
v 11.362000 9.435000 -14.984000
v 8.052000 9.435000 -14.484000
v 11.331000 9.435000 -14.484000
v 7.747000 9.435000 -13.984000
v 11.109000 9.435000 -13.984000
v 7.522000 9.435000 -13.484000
v 10.814000 9.435000 -13.484000
v 7.526000 9.435000 -12.984000
v 10.641000 9.435000 -12.984000
v 7.559000 9.435000 -12.484000
v 10.520000 9.435000 -12.484000
v 7.585000 9.435000 -11.984000
v 10.301000 9.435000 -11.984000
v 7.606000 9.435000 -11.484000
v 9.926000 9.435000 -11.484000
v 7.873000 9.435000 -10.984000
v 9.610000 9.435000 -10.984000
v 7.953000 9.435000 -14.267000
v 7.953000 9.435000 -10.904000
v 8.453000 9.435000 -15.145000
v 8.453000 9.435000 -10.634000
v 8.953000 9.435000 -15.689000
v 8.953000 9.435000 -10.617000
v 9.453000 9.435000 -16.211000
v 9.453000 9.435000 -10.839000
v 9.953000 9.435000 -16.432000
v 9.953000 9.435000 -11.525000
v 10.453000 9.435000 -16.421000
v 10.453000 9.435000 -12.264000
v 10.953000 9.435000 -16.168000
v 10.953000 9.435000 -13.775000
v 8.953000 7.810000 -15.484000
v 8.953000 9.645000 -15.484000
v 9.453000 7.303000 -15.484000
v 9.453000 9.918000 -15.484000
v 9.953000 6.988000 -15.484000
v 9.953000 10.077000 -15.484000
v 10.453000 6.788000 -15.484000
v 10.453000 10.067000 -15.484000
v 10.953000 6.781000 -15.484000
v 10.953000 9.856000 -15.484000
v 11.453000 6.969000 -15.484000
v 11.453000 9.346000 -15.484000
v 11.953000 7.510000 -15.484000
v 11.953000 8.783000 -15.484000
v 7.453000 6.629000 -11.484000
v 7.453000 9.134000 -11.484000
v 7.953000 6.027000 -11.484000
v 7.953000 9.788000 -11.484000
v 8.453000 5.818000 -11.484000
v 8.453000 10.006000 -11.484000
v 8.953000 5.809000 -11.484000
v 8.953000 10.047000 -11.484000
v 9.453000 5.881000 -11.484000
v 9.453000 9.909000 -11.484000
v 9.953000 6.090000 -11.484000
v 9.953000 9.383000 -11.484000
v 10.453000 6.706000 -11.484000
v 10.453000 8.173000 -11.484000
v 8.148000 5.935000 -11.984000
v 9.323000 5.935000 -11.984000
v 8.111000 5.935000 -11.484000
v 9.647000 5.935000 -11.484000
v 8.114000 5.935000 -10.984000
v 9.856000 5.935000 -10.984000
v 8.149000 5.935000 -10.484000
v 9.886000 5.935000 -10.484000
v 8.192000 5.935000 -9.984000
v 9.783000 5.935000 -9.984000
v 9.494000 9.935000 -15.484000
v 10.821000 9.935000 -15.484000
v 9.027000 9.935000 -14.984000
v 10.812000 9.935000 -14.984000
v 8.581000 9.935000 -14.484000
v 10.755000 9.935000 -14.484000
v 8.256000 9.935000 -13.984000
v 10.442000 9.935000 -13.984000
v 8.011000 9.935000 -13.484000
v 10.337000 9.935000 -13.484000
v 7.957000 9.935000 -12.984000
v 10.363000 9.935000 -12.984000
v 7.985000 9.935000 -12.484000
v 10.342000 9.935000 -12.484000
v 8.089000 9.935000 -11.984000
v 10.081000 9.935000 -11.984000
v 8.222000 9.935000 -11.484000
v 9.399000 9.935000 -11.484000
v 8.453000 5.935000 -12.303000
v 8.453000 5.935000 -9.724000
v 8.953000 5.935000 -12.331000
v 8.953000 5.935000 -9.654000
v 9.453000 5.935000 -11.706000
v 9.453000 5.935000 -9.660000
v 8.453000 9.935000 -14.271000
v 8.453000 9.935000 -11.251000
v 8.953000 9.935000 -14.898000
v 8.953000 9.935000 -11.215000
v 9.453000 9.935000 -15.443000
v 9.453000 9.935000 -11.518000
v 9.953000 9.935000 -15.901000
v 9.953000 9.935000 -11.856000
v 10.453000 9.935000 -15.880000
v 10.453000 9.935000 -14.010000
v 8.453000 7.837000 -14.984000
v 8.453000 9.603000 -14.984000
v 8.953000 7.275000 -14.984000
v 8.953000 9.901000 -14.984000
v 9.453000 7.027000 -14.984000
v 9.453000 10.083000 -14.984000
v 9.953000 6.869000 -14.984000
v 9.953000 10.103000 -14.984000
v 10.453000 6.792000 -14.984000
v 10.453000 10.062000 -14.984000
v 10.953000 6.796000 -14.984000
v 10.953000 9.851000 -14.984000
v 11.453000 6.987000 -14.984000
v 11.453000 9.337000 -14.984000
v 11.953000 7.543000 -14.984000
v 11.953000 8.749000 -14.984000
v 7.453000 6.610000 -10.984000
v 7.453000 8.441000 -10.984000
v 7.953000 6.027000 -10.984000
v 7.953000 9.517000 -10.984000
v 8.453000 5.821000 -10.984000
v 8.453000 9.790000 -10.984000
v 8.953000 5.780000 -10.984000
v 8.953000 9.807000 -10.984000
v 9.453000 5.794000 -10.984000
v 9.453000 9.583000 -10.984000
v 9.953000 5.992000 -10.984000
v 9.953000 8.756000 -10.984000
v 10.453000 6.568000 -10.984000
v 10.453000 7.806000 -10.984000
v 8.707000 6.435000 -13.484000
v 10.311000 6.435000 -13.484000
v 8.148000 6.435000 -12.984000
v 10.303000 6.435000 -12.984000
v 7.810000 6.435000 -12.484000
v 10.081000 6.435000 -12.484000
v 7.578000 6.435000 -11.984000
v 10.135000 6.435000 -11.984000
v 7.555000 6.435000 -11.484000
v 10.304000 6.435000 -11.484000
v 7.549000 6.435000 -10.984000
v 10.382000 6.435000 -10.984000
v 7.568000 6.435000 -10.484000
v 10.401000 6.435000 -10.484000
v 7.604000 6.435000 -9.984000
v 10.372000 6.435000 -9.984000
v 7.875000 6.435000 -9.484000
v 10.134000 6.435000 -9.484000
v 8.649000 10.435000 -13.484000
v 9.673000 10.435000 -13.484000
v 8.475000 10.435000 -12.984000
v 9.858000 10.435000 -12.984000
v 8.509000 10.435000 -12.484000
v 9.824000 10.435000 -12.484000
v 7.953000 6.435000 -12.703000
v 7.953000 6.435000 -9.407000
v 8.453000 6.435000 -13.270000
v 8.453000 6.435000 -9.136000
v 8.953000 6.435000 -13.730000
v 8.953000 6.435000 -9.080000
v 9.453000 6.435000 -13.885000
v 9.453000 6.435000 -9.073000
v 9.953000 6.435000 -13.865000
v 9.953000 6.435000 -9.305000
v 8.953000 10.435000 -13.775000
v 8.953000 10.435000 -12.091000
v 9.453000 10.435000 -13.733000
v 9.453000 10.435000 -12.118000
v 7.953000 8.158000 -14.484000
v 7.953000 9.259000 -14.484000
v 8.453000 7.247000 -14.484000
v 8.453000 9.854000 -14.484000
v 8.953000 6.983000 -14.484000
v 8.953000 10.074000 -14.484000
v 9.453000 6.829000 -14.484000
v 9.453000 10.145000 -14.484000
v 9.953000 6.758000 -14.484000
v 9.953000 10.098000 -14.484000
v 10.453000 6.788000 -14.484000
v 10.453000 10.035000 -14.484000
v 10.953000 6.939000 -14.484000
v 10.953000 9.822000 -14.484000
v 11.453000 7.246000 -14.484000
v 11.453000 9.217000 -14.484000
v 7.453000 6.643000 -10.484000
v 7.453000 8.302000 -10.484000
v 7.953000 6.047000 -10.484000
v 7.953000 8.949000 -10.484000
v 8.453000 5.831000 -10.484000
v 8.453000 9.249000 -10.484000
v 8.953000 5.775000 -10.484000
v 8.953000 9.264000 -10.484000
v 9.453000 5.779000 -10.484000
v 9.453000 8.978000 -10.484000
v 9.953000 5.975000 -10.484000
v 9.953000 8.474000 -10.484000
v 10.453000 6.528000 -10.484000
v 10.453000 7.812000 -10.484000
v 10.052000 6.935000 -15.484000
v 11.394000 6.935000 -15.484000
v 9.710000 6.935000 -14.984000
v 11.362000 6.935000 -14.984000
v 9.054000 6.935000 -14.484000
v 10.943000 6.935000 -14.484000
v 8.363000 6.935000 -13.984000
v 10.819000 6.935000 -13.984000
v 7.768000 6.935000 -13.484000
v 10.857000 6.935000 -13.484000
v 7.539000 6.935000 -12.984000
v 10.846000 6.935000 -12.984000
v 7.487000 6.935000 -12.484000
v 10.629000 6.935000 -12.484000
v 7.381000 6.935000 -11.984000
v 10.497000 6.935000 -11.984000
v 7.361000 6.935000 -11.484000
v 10.525000 6.935000 -11.484000
v 7.347000 6.935000 -10.984000
v 10.566000 6.935000 -10.984000
v 7.357000 6.935000 -10.484000
v 10.586000 6.935000 -10.484000
v 7.403000 6.935000 -9.984000
v 10.575000 6.935000 -9.984000
v 7.625000 6.935000 -9.484000
v 10.379000 6.935000 -9.484000
v 8.284000 6.935000 -8.984000
v 9.812000 6.935000 -8.984000
v 7.453000 6.935000 -12.293000
v 7.453000 6.935000 -9.813000
v 7.953000 6.935000 -13.669000
v 7.953000 6.935000 -9.156000
v 8.453000 6.935000 -14.076000
v 8.453000 6.935000 -8.936000
v 8.953000 6.935000 -14.417000
v 8.953000 6.935000 -8.877000
v 9.453000 6.935000 -14.756000
v 9.453000 6.935000 -8.870000
v 9.953000 6.935000 -15.282000
v 9.953000 6.935000 -9.061000
v 10.453000 6.935000 -15.924000
v 10.453000 6.935000 -9.613000
v 10.953000 6.935000 -15.940000
v 10.953000 6.935000 -14.499000
v 7.953000 7.399000 -13.984000
v 7.953000 9.637000 -13.984000
v 8.453000 6.844000 -13.984000
v 8.453000 10.114000 -13.984000
v 8.953000 6.573000 -13.984000
v 8.953000 10.329000 -13.984000
v 9.453000 6.492000 -13.984000
v 9.453000 10.317000 -13.984000
v 9.953000 6.503000 -13.984000
v 9.953000 10.161000 -13.984000
v 10.453000 6.691000 -13.984000
v 10.453000 9.929000 -13.984000
v 10.953000 7.043000 -13.984000
v 10.953000 9.596000 -13.984000
v 11.453000 7.599000 -13.984000
v 11.453000 8.829000 -13.984000
v 7.453000 6.745000 -9.984000
v 7.453000 7.655000 -9.984000
v 7.953000 6.072000 -9.984000
v 7.953000 8.646000 -9.984000
v 8.453000 5.849000 -9.984000
v 8.453000 8.881000 -9.984000
v 8.953000 5.825000 -9.984000
v 8.953000 8.879000 -9.984000
v 9.453000 5.835000 -9.984000
v 9.453000 8.650000 -9.984000
v 9.953000 6.025000 -9.984000
v 9.953000 8.363000 -9.984000
v 10.453000 6.574000 -9.984000
v 10.453000 7.814000 -9.984000
v 9.747000 7.435000 -15.984000
v 11.699000 7.435000 -15.984000
v 9.314000 7.435000 -15.484000
v 11.911000 7.435000 -15.484000
v 8.783000 7.435000 -14.984000
v 11.893000 7.435000 -14.984000
v 8.269000 7.435000 -14.484000
v 11.633000 7.435000 -14.484000
v 7.934000 7.435000 -13.984000
v 11.351000 7.435000 -13.984000
v 7.510000 7.435000 -13.484000
v 11.161000 7.435000 -13.484000
v 7.324000 7.435000 -12.984000
v 11.034000 7.435000 -12.984000
v 7.333000 7.435000 -12.484000
v 10.831000 7.435000 -12.484000
v 7.340000 7.435000 -11.984000
v 10.608000 7.435000 -11.984000
v 7.331000 7.435000 -11.484000
v 10.553000 7.435000 -11.484000
v 7.330000 7.435000 -10.984000
v 10.563000 7.435000 -10.984000
v 7.331000 7.435000 -10.484000
v 10.581000 7.435000 -10.484000
v 7.403000 7.435000 -9.984000
v 10.579000 7.435000 -9.984000
v 7.625000 7.435000 -9.484000
v 10.383000 7.435000 -9.484000
v 8.284000 7.435000 -8.984000
v 9.819000 7.435000 -8.984000
v 7.453000 7.435000 -13.381000
v 7.453000 7.435000 -9.813000
v 7.953000 7.435000 -14.008000
v 7.953000 7.435000 -9.157000
v 8.453000 7.435000 -14.663000
v 8.453000 7.435000 -8.936000
v 8.953000 7.435000 -15.158000
v 8.953000 7.435000 -8.874000
v 9.453000 7.435000 -15.624000
v 9.453000 7.435000 -8.867000
v 9.953000 7.435000 -16.203000
v 9.953000 7.435000 -9.057000
v 10.453000 7.435000 -16.451000
v 10.453000 7.435000 -9.606000
v 10.953000 7.435000 -16.460000
v 10.953000 7.435000 -12.713000
v 11.453000 7.435000 -16.236000
v 11.453000 7.435000 -14.223000
v 7.453000 7.850000 -13.484000
v 7.453000 9.315000 -13.484000
v 7.953000 6.763000 -13.484000
v 7.953000 9.876000 -13.484000
v 8.453000 6.526000 -13.484000
v 8.453000 10.338000 -13.484000
v 8.953000 6.360000 -13.484000
v 8.953000 10.518000 -13.484000
v 9.453000 6.299000 -13.484000
v 9.453000 10.502000 -13.484000
v 9.953000 6.308000 -13.484000
v 9.953000 10.284000 -13.484000
v 10.453000 6.519000 -13.484000
v 10.453000 9.812000 -13.484000
v 10.953000 7.075000 -13.484000
v 10.953000 9.223000 -13.484000
v 7.953000 6.353000 -9.484000
v 7.953000 8.020000 -9.484000
v 8.453000 6.073000 -9.484000
v 8.453000 8.362000 -9.484000
v 8.953000 6.031000 -9.484000
v 8.953000 8.407000 -9.484000
v 9.453000 6.030000 -9.484000
v 9.453000 8.358000 -9.484000
v 9.953000 6.259000 -9.484000
v 9.953000 8.129000 -9.484000
v 10.030000 7.935000 -16.484000
v 11.398000 7.935000 -16.484000
v 9.271000 7.935000 -15.984000
v 11.912000 7.935000 -15.984000
v 8.825000 7.935000 -15.484000
v 12.091000 7.935000 -15.484000
v 8.354000 7.935000 -14.984000
v 12.076000 7.935000 -14.984000
v 8.033000 7.935000 -14.484000
v 11.858000 7.935000 -14.484000
v 7.729000 7.935000 -13.984000
v 11.575000 7.935000 -13.984000
v 7.438000 7.935000 -13.484000
v 11.359000 7.935000 -13.484000
v 7.309000 7.935000 -12.984000
v 11.057000 7.935000 -12.984000
v 7.311000 7.935000 -12.484000
v 10.827000 7.935000 -12.484000
v 7.292000 7.935000 -11.984000
v 10.592000 7.935000 -11.984000
v 7.299000 7.935000 -11.484000
v 10.512000 7.935000 -11.484000
v 7.334000 7.935000 -10.984000
v 10.402000 7.935000 -10.984000
v 7.336000 7.935000 -10.484000
v 10.385000 7.935000 -10.484000
v 7.518000 7.935000 -9.984000
v 10.384000 7.935000 -9.984000
v 7.875000 7.935000 -9.484000
v 10.148000 7.935000 -9.484000
v 7.453000 7.935000 -13.519000
v 7.453000 7.935000 -10.107000
v 7.953000 7.935000 -14.336000
v 7.953000 7.935000 -9.407000
v 8.453000 7.935000 -15.086000
v 8.453000 7.935000 -9.137000
v 8.953000 7.935000 -15.618000
v 8.953000 7.935000 -9.069000
v 9.453000 7.935000 -16.164000
v 9.453000 7.935000 -9.062000
v 9.953000 7.935000 -16.449000
v 9.953000 7.935000 -9.291000
v 10.453000 7.935000 -16.633000
v 10.453000 7.935000 -11.230000
v 10.953000 7.935000 -16.641000
v 10.953000 7.935000 -12.717000
v 11.453000 7.935000 -16.452000
v 11.453000 7.935000 -13.646000
v 11.953000 7.935000 -15.911000
v 11.953000 7.935000 -14.640000
v 7.453000 7.078000 -12.984000
v 7.453000 9.306000 -12.984000
v 7.953000 6.541000 -12.984000
v 7.953000 9.930000 -12.984000
v 8.453000 6.338000 -12.984000
v 8.453000 10.422000 -12.984000
v 8.953000 6.258000 -12.984000
v 8.953000 10.603000 -12.984000
v 9.453000 6.252000 -12.984000
v 9.453000 10.590000 -12.984000
v 9.953000 6.312000 -12.984000
v 9.953000 10.375000 -12.984000
v 10.453000 6.524000 -12.984000
v 10.453000 9.789000 -12.984000
v 10.953000 7.145000 -12.984000
v 10.953000 8.673000 -12.984000
v 8.453000 6.749000 -8.984000
v 8.453000 7.621000 -8.984000
v 8.953000 6.606000 -8.984000
v 8.953000 7.780000 -8.984000
v 9.453000 6.592000 -8.984000
v 9.453000 7.796000 -8.984000
f 113 493 529
f 529 493 37
f 37 493 3
f 37 3 103
f 103 3 71
f 103 71 165
f 165 71 137
f 137 114 165
f 115 417 457
f 113 529 417
f 529 457 417
f 529 531 457
f 37 1 49
f 531 37 49
f 529 37 531
f 103 69 1
f 103 1 37
f 167 50 69
f 103 167 69
f 165 167 103
f 165 114 167
f 167 114 116
f 459 117 457
f 457 117 115
f 531 491 51
f 459 531 51
f 457 531 459
f 531 49 491
f 169 52 50
f 169 50 167
f 167 116 169
f 169 116 118
f 461 119 459
f 459 119 117
f 459 51 53
f 459 53 461
f 70 109 54
f 109 70 52
f 169 109 52
f 171 109 169
f 169 118 171
f 171 118 120
f 463 121 461
f 461 121 119
f 461 53 492
f 537 461 492
f 463 461 537
f 2 45 537
f 2 537 492
f 45 2 54
f 109 45 54
f 111 45 109
f 122 111 138
f 111 171 138
f 111 109 171
f 171 120 138
f 463 418 121
f 418 463 494
f 494 463 537
f 494 537 4
f 4 537 45
f 4 45 72
f 72 45 111
f 111 122 72
f 123 357 371
f 371 357 55
f 357 431 55
f 357 433 431
f 433 507 431
f 509 507 433
f 509 17 507
f 19 17 509
f 19 85 17
f 87 85 19
f 87 124 85
f 85 124 56
f 125 281 57
f 57 281 279
f 281 123 371
f 355 281 371
f 279 281 355
f 371 55 355
f 151 56 124
f 151 124 153
f 153 126 151
f 151 126 58
f 127 201 229
f 59 229 201
f 125 59 201
f 57 59 125
f 223 58 126
f 223 126 225
f 225 128 223
f 223 128 60
f 231 129 229
f 229 129 127
f 229 59 61
f 229 61 231
f 130 310 297
f 60 130 297
f 128 130 60
f 310 62 297
f 231 202 129
f 131 202 231
f 61 131 231
f 63 131 61
f 132 312 310
f 132 310 130
f 62 310 64
f 64 310 312
f 133 63 65
f 133 131 63
f 66 298 312
f 132 66 312
f 134 66 132
f 64 312 298
f 65 280 133
f 133 280 282
f 135 282 280
f 135 280 67
f 88 136 108
f 88 108 170
f 88 170 154
f 154 170 68
f 224 154 68
f 226 154 224
f 224 66 226
f 226 66 134
f 67 356 135
f 135 356 358
f 432 358 356
f 432 434 358
f 508 434 432
f 508 510 434
f 18 510 508
f 18 20 510
f 136 20 108
f 20 86 108
f 20 18 86
f 152 170 86
f 86 170 108
f 68 170 152
f 173 495 527
f 527 495 35
f 35 495 5
f 35 5 101
f 101 5 73
f 101 73 163
f 163 73 139
f 139 174 163
f 175 419 455
f 173 527 419
f 419 527 455
f 527 493 455
f 493 113 455
f 35 3 493
f 35 493 527
f 101 71 3
f 101 3 35
f 163 137 71
f 163 71 101
f 163 174 137
f 174 114 137
f 174 176 114
f 417 115 455
f 115 175 455
f 115 177 175
f 455 113 417
f 176 211 241
f 116 176 241
f 114 176 116
f 211 178 241
f 179 343 383
f 117 383 343
f 177 117 343
f 115 117 177
f 243 118 116
f 243 116 241
f 241 178 243
f 243 178 180
f 385 181 383
f 383 181 179
f 383 117 119
f 383 119 385
f 118 243 212
f 182 118 212
f 120 118 182
f 243 180 212
f 385 344 181
f 183 344 385
f 119 183 385
f 121 183 119
f 140 184 122
f 140 122 138
f 138 120 140
f 140 120 182
f 121 418 183
f 183 418 420
f 494 539 185
f 420 494 185
f 418 494 420
f 4 47 539
f 4 539 494
f 74 186 47
f 4 74 47
f 72 74 4
f 72 122 74
f 74 122 184
f 539 496 185
f 496 539 6
f 6 539 47
f 47 186 6
f 187 359 123
f 123 359 357
f 359 433 357
f 435 433 359
f 435 509 433
f 511 509 435
f 511 19 509
f 21 19 511
f 21 87 19
f 89 87 21
f 89 188 87
f 87 188 124
f 189 283 125
f 125 283 281
f 123 281 283
f 123 283 187
f 153 124 188
f 153 188 155
f 155 190 153
f 153 190 126
f 191 203 127
f 127 203 201
f 125 201 203
f 125 203 189
f 225 126 190
f 225 190 227
f 227 192 225
f 225 192 128
f 193 127 129
f 193 191 127
f 128 194 130
f 192 194 128
f 233 195 202
f 195 129 202
f 195 193 129
f 131 233 202
f 228 196 240
f 240 132 228
f 132 194 228
f 132 130 194
f 233 204 195
f 197 204 233
f 131 197 233
f 133 197 131
f 156 198 168
f 240 196 156
f 168 240 156
f 242 240 168
f 132 240 134
f 134 240 242
f 133 282 197
f 197 282 284
f 199 284 282
f 199 282 135
f 22 200 42
f 22 42 136
f 88 22 136
f 90 22 88
f 198 90 168
f 90 154 168
f 90 88 154
f 226 242 154
f 154 242 168
f 134 242 226
f 135 358 199
f 199 358 360
f 434 360 358
f 434 436 360
f 510 436 434
f 510 512 436
f 200 512 42
f 512 20 42
f 512 510 20
f 136 42 20
f 245 497 525
f 525 497 33
f 33 497 7
f 33 7 99
f 99 7 75
f 99 75 161
f 161 75 141
f 141 246 161
f 247 421 453
f 245 525 421
f 421 525 453
f 525 495 453
f 495 173 453
f 33 5 495
f 33 495 525
f 99 73 5
f 99 5 33
f 161 139 73
f 161 73 99
f 161 246 139
f 246 174 139
f 246 248 174
f 419 175 453
f 175 247 453
f 175 249 247
f 453 173 419
f 248 213 239
f 176 248 239
f 174 248 176
f 213 250 239
f 251 345 381
f 177 381 345
f 249 177 345
f 175 177 249
f 239 211 176
f 239 250 211
f 250 178 211
f 250 252 178
f 343 179 381
f 179 251 381
f 179 253 251
f 381 177 343
f 178 254 180
f 252 254 178
f 255 179 181
f 255 253 179
f 214 256 182
f 214 182 212
f 212 180 214
f 214 180 254
f 181 344 255
f 255 344 346
f 257 346 344
f 257 344 183
f 142 258 184
f 142 184 140
f 140 182 142
f 142 182 256
f 183 420 257
f 257 420 422
f 259 422 420
f 259 420 185
f 76 260 186
f 76 186 74
f 74 184 76
f 76 184 258
f 185 496 259
f 259 496 498
f 6 498 496
f 6 8 498
f 6 186 8
f 8 186 260
f 261 361 187
f 187 361 359
f 361 435 359
f 437 435 361
f 437 511 435
f 513 511 437
f 513 21 511
f 23 21 513
f 96 89 262
f 89 23 262
f 89 21 23
f 96 188 89
f 263 285 189
f 189 285 283
f 187 283 285
f 187 285 261
f 91 96 262
f 155 188 96
f 91 155 96
f 157 155 91
f 157 264 155
f 155 264 190
f 265 205 191
f 191 205 203
f 189 203 205
f 189 205 263
f 266 236 227
f 190 266 227
f 264 266 190
f 236 192 227
f 267 191 193
f 267 265 191
f 268 238 236
f 268 236 266
f 192 236 194
f 194 236 238
f 269 193 195
f 269 267 193
f 196 228 238
f 268 196 238
f 270 196 268
f 194 238 228
f 195 204 269
f 269 204 206
f 271 206 204
f 271 204 197
f 92 272 106
f 92 106 198
f 156 92 198
f 158 92 156
f 156 196 158
f 158 196 270
f 197 284 271
f 271 284 286
f 273 286 284
f 273 284 199
f 514 274 534
f 514 534 200
f 22 514 200
f 24 514 22
f 272 24 106
f 24 90 106
f 24 22 90
f 198 106 90
f 199 360 273
f 273 360 362
f 436 362 360
f 436 438 362
f 274 438 534
f 438 512 534
f 438 436 512
f 200 534 512
f 313 9 31
f 31 9 97
f 97 9 77
f 77 314 97
f 315 423 451
f 451 423 245
f 423 497 245
f 423 499 497
f 499 313 31
f 7 499 31
f 497 499 7
f 97 75 7
f 97 7 31
f 75 97 314
f 143 75 314
f 141 75 143
f 143 316 141
f 141 316 246
f 421 247 451
f 247 315 451
f 247 317 315
f 451 245 421
f 316 215 237
f 248 316 237
f 246 316 248
f 215 318 237
f 319 347 379
f 249 379 347
f 317 249 347
f 247 249 317
f 237 213 248
f 237 318 213
f 318 250 213
f 318 320 250
f 345 251 379
f 251 319 379
f 251 321 319
f 379 249 345
f 250 322 252
f 320 322 250
f 323 251 253
f 323 321 251
f 252 324 254
f 322 324 252
f 348 323 386
f 323 255 386
f 323 253 255
f 325 348 386
f 216 326 256
f 216 256 214
f 214 254 216
f 216 254 324
f 346 386 255
f 325 386 346
f 257 325 346
f 327 325 257
f 144 328 258
f 144 258 142
f 142 256 144
f 144 256 326
f 257 422 327
f 327 422 424
f 422 259 540
f 500 422 540
f 424 422 500
f 500 540 48
f 500 48 10
f 10 48 260
f 76 10 260
f 78 10 76
f 76 258 78
f 78 258 328
f 498 540 259
f 8 48 498
f 498 48 540
f 260 48 8
f 329 363 261
f 261 363 361
f 363 437 361
f 439 437 363
f 439 513 437
f 515 513 439
f 30 23 330
f 23 515 330
f 23 513 515
f 30 262 23
f 331 287 263
f 263 287 285
f 261 285 287
f 261 287 329
f 25 30 330
f 91 262 30
f 25 91 30
f 93 91 25
f 160 157 332
f 157 93 332
f 157 91 93
f 160 264 157
f 333 207 265
f 265 207 205
f 263 205 207
f 263 207 331
f 334 162 160
f 334 160 332
f 264 160 266
f 266 160 162
f 335 265 267
f 335 333 265
f 336 164 162
f 336 162 334
f 266 162 268
f 268 162 164
f 337 267 269
f 337 335 267
f 338 166 164
f 338 164 336
f 268 164 270
f 270 164 166
f 269 206 337
f 337 206 208
f 339 208 206
f 339 206 271
f 94 340 272
f 94 272 92
f 338 94 166
f 94 158 166
f 94 92 158
f 270 166 158
f 271 286 339
f 339 286 288
f 341 288 286
f 341 286 273
f 516 342 274
f 516 274 514
f 24 516 514
f 24 26 516
f 24 272 26
f 26 272 340
f 273 362 341
f 341 362 364
f 438 364 362
f 438 440 364
f 438 274 440
f 440 274 342
f 387 425 449
f 449 425 523
f 523 425 501
f 523 501 313
f 501 9 313
f 501 11 9
f 11 77 9
f 79 77 11
f 314 77 159
f 77 145 159
f 77 79 145
f 145 388 159
f 389 349 375
f 387 449 349
f 349 449 375
f 449 423 375
f 423 315 375
f 523 499 423
f 523 423 449
f 523 313 499
f 159 143 314
f 388 217 235
f 388 235 316
f 159 388 316
f 143 159 316
f 217 390 235
f 377 391 375
f 375 391 389
f 375 315 317
f 375 317 377
f 235 215 316
f 235 390 215
f 390 318 215
f 390 392 318
f 347 319 377
f 319 391 377
f 319 393 391
f 377 317 347
f 318 394 320
f 392 394 318
f 395 319 321
f 395 393 319
f 320 396 322
f 394 396 320
f 397 321 323
f 397 395 321
f 218 398 244
f 244 324 218
f 324 396 218
f 324 322 396
f 323 348 397
f 397 348 350
f 399 350 348
f 399 348 325
f 326 216 244
f 398 326 244
f 400 326 398
f 324 244 216
f 426 399 464
f 399 327 464
f 399 325 327
f 401 426 464
f 80 402 112
f 80 112 328
f 144 80 328
f 146 80 144
f 144 326 146
f 146 326 400
f 424 464 327
f 464 424 401
f 424 502 401
f 424 500 502
f 10 502 500
f 10 12 502
f 402 12 112
f 12 78 112
f 12 10 78
f 328 112 78
f 403 365 329
f 329 365 363
f 365 439 363
f 441 439 365
f 522 515 404
f 515 441 404
f 515 439 441
f 522 330 515
f 405 289 331
f 331 289 287
f 329 287 289
f 329 289 403
f 517 522 404
f 25 330 522
f 517 25 522
f 27 25 517
f 98 93 406
f 93 27 406
f 93 25 27
f 98 332 93
f 407 209 333
f 333 209 207
f 331 207 209
f 331 209 405
f 408 100 98
f 408 98 406
f 332 98 334
f 334 98 100
f 409 333 335
f 409 407 333
f 410 102 100
f 410 100 408
f 334 100 336
f 336 100 102
f 411 335 337
f 411 409 335
f 412 104 102
f 412 102 410
f 336 102 338
f 338 102 104
f 337 208 411
f 411 208 210
f 413 210 208
f 413 208 339
f 28 414 40
f 104 412 28
f 104 28 40
f 94 104 40
f 340 94 40
f 338 104 94
f 339 288 413
f 413 288 290
f 415 290 288
f 415 288 341
f 518 416 342
f 518 342 516
f 414 518 40
f 518 26 40
f 518 516 26
f 340 40 26
f 341 364 415
f 415 364 366
f 440 366 364
f 440 442 366
f 440 342 442
f 442 342 416
f 465 503 521
f 521 503 29
f 29 503 13
f 29 13 95
f 95 13 81
f 81 466 95
f 467 351 373
f 373 351 387
f 351 425 387
f 351 427 425
f 427 465 521
f 501 427 521
f 425 427 501
f 29 11 501
f 29 501 521
f 95 79 11
f 95 11 29
f 79 95 466
f 147 79 466
f 145 79 147
f 147 468 145
f 145 468 388
f 349 389 373
f 389 467 373
f 389 469 467
f 373 387 349
f 217 388 468
f 217 468 219
f 219 470 217
f 217 470 390
f 471 275 303
f 391 303 275
f 469 391 275
f 389 391 469
f 470 293 309
f 392 470 309
f 390 470 392
f 293 472 309
f 305 473 303
f 303 473 471
f 303 391 393
f 303 393 305
f 311 394 392
f 311 392 309
f 309 472 311
f 311 472 474
f 307 475 305
f 305 475 473
f 305 393 395
f 305 395 307
f 394 311 294
f 476 394 294
f 396 394 476
f 311 474 294
f 307 276 475
f 477 276 307
f 395 477 307
f 397 477 395
f 220 478 398
f 220 398 218
f 218 396 220
f 220 396 476
f 397 350 477
f 477 350 352
f 479 352 350
f 479 350 399
f 148 480 172
f 172 400 148
f 400 478 148
f 400 398 478
f 399 426 479
f 479 426 428
f 426 401 538
f 504 426 538
f 428 426 504
f 504 538 46
f 504 46 14
f 14 46 402
f 80 14 402
f 82 14 80
f 480 82 172
f 82 146 172
f 82 80 146
f 400 172 146
f 502 538 401
f 12 46 502
f 502 46 538
f 402 46 12
f 372 365 403
f 448 441 372
f 372 441 365
f 448 404 441
f 481 291 405
f 405 291 289
f 367 372 403
f 289 367 403
f 291 367 289
f 372 367 443
f 372 443 448
f 517 404 448
f 443 517 448
f 519 517 443
f 32 27 482
f 27 519 482
f 27 517 519
f 32 406 27
f 230 209 407
f 405 209 230
f 483 405 230
f 481 405 483
f 484 34 32
f 484 32 482
f 406 32 408
f 408 32 34
f 409 232 407
f 407 232 230
f 483 230 232
f 483 232 485
f 486 36 34
f 486 34 484
f 408 34 410
f 410 34 36
f 411 234 409
f 409 234 232
f 485 232 234
f 485 234 487
f 488 38 36
f 488 36 486
f 410 36 412
f 412 36 38
f 210 234 411
f 487 234 210
f 413 487 210
f 489 487 413
f 414 28 38
f 488 414 38
f 490 414 488
f 412 38 28
f 413 290 489
f 489 290 292
f 290 415 384
f 368 290 384
f 292 290 368
f 368 384 460
f 368 460 444
f 444 460 416
f 518 444 416
f 520 444 518
f 518 414 520
f 520 414 490
f 366 384 415
f 442 460 366
f 366 460 384
f 416 460 442
f 541 429 447
f 447 429 465
f 429 503 465
f 429 505 503
f 505 13 503
f 15 13 505
f 15 81 13
f 83 81 15
f 83 542 81
f 81 542 466
f 543 353 467
f 467 353 351
f 353 541 447
f 427 353 447
f 351 353 427
f 447 465 427
f 147 466 542
f 147 542 149
f 149 544 147
f 147 544 468
f 545 277 301
f 469 301 277
f 543 469 277
f 467 469 543
f 219 468 544
f 219 544 221
f 221 546 219
f 219 546 470
f 275 471 301
f 471 545 301
f 471 547 545
f 301 469 275
f 293 470 546
f 293 546 295
f 295 548 293
f 293 548 472
f 549 471 473
f 549 547 471
f 472 550 474
f 548 550 472
f 551 473 475
f 551 549 473
f 296 552 476
f 296 476 294
f 294 474 296
f 296 474 550
f 475 276 551
f 551 276 278
f 553 278 276
f 553 276 477
f 222 554 478
f 222 478 220
f 220 476 222
f 222 476 552
f 477 352 553
f 553 352 354
f 555 354 352
f 555 352 479
f 84 556 110
f 84 110 480
f 148 84 480
f 150 84 148
f 148 478 150
f 150 478 554
f 479 428 555
f 555 428 430
f 504 430 428
f 504 506 430
f 14 506 504
f 14 16 506
f 556 16 110
f 16 82 110
f 16 14 82
f 480 110 82
f 300 291 481
f 374 367 300
f 300 367 291
f 450 443 374
f 374 443 367
f 524 519 450
f 450 519 443
f 524 482 519
f 483 302 481
f 481 302 300
f 302 557 369
f 374 302 369
f 300 302 374
f 374 369 445
f 374 445 450
f 450 445 558
f 526 450 558
f 524 450 526
f 482 524 484
f 484 524 526
f 485 304 483
f 483 304 302
f 557 302 304
f 557 304 559
f 560 528 526
f 560 526 558
f 484 526 486
f 486 526 528
f 487 306 485
f 485 306 304
f 559 304 306
f 559 306 561
f 562 530 528
f 562 528 560
f 486 528 488
f 488 528 530
f 489 308 487
f 487 308 306
f 382 370 561
f 306 382 561
f 308 382 306
f 370 382 458
f 370 458 446
f 530 562 446
f 458 530 446
f 532 530 458
f 488 530 490
f 490 530 532
f 292 308 489
f 368 382 292
f 292 382 308
f 444 458 368
f 368 458 382
f 520 532 444
f 444 532 458
f 490 532 520
f 49 1 39
f 39 1 105
f 105 1 69
f 69 50 105
f 51 491 533
f 49 39 491
f 39 533 491
f 39 41 533
f 39 107 41
f 39 105 107
f 105 50 107
f 107 50 52
f 535 53 533
f 533 53 51
f 533 43 535
f 533 41 43
f 54 43 70
f 43 107 70
f 43 41 107
f 107 52 70
f 535 492 53
f 492 535 2
f 2 535 43
f 43 54 2
f 55 431 541
f 541 431 429
f 431 505 429
f 507 505 431
f 507 15 505
f 17 15 507
f 17 83 15
f 85 83 17
f 85 56 83
f 83 56 542
f 57 279 299
f 299 279 543
f 279 353 543
f 279 355 353
f 541 353 355
f 541 355 55
f 149 542 56
f 149 56 151
f 151 58 149
f 149 58 544
f 277 545 299
f 545 57 299
f 545 59 57
f 299 543 277
f 221 544 58
f 221 58 223
f 223 60 221
f 221 60 546
f 61 545 547
f 61 59 545
f 295 546 60
f 295 60 297
f 297 62 295
f 295 62 548
f 63 547 549
f 63 61 547
f 548 64 550
f 62 64 548
f 65 549 551
f 65 63 549
f 298 66 552
f 298 552 296
f 296 550 298
f 298 550 64
f 551 278 65
f 65 278 280
f 67 280 278
f 67 278 553
f 224 68 554
f 224 554 222
f 222 552 224
f 224 552 66
f 553 354 67
f 67 354 356
f 354 555 462
f 432 354 462
f 356 354 432
f 432 462 536
f 432 536 508
f 508 536 44
f 508 44 18
f 18 44 556
f 84 18 556
f 86 18 84
f 150 86 84
f 150 152 86
f 150 554 152
f 152 554 68
f 430 462 555
f 506 536 430
f 430 536 462
f 16 44 506
f 506 44 536
f 556 44 16
f 376 369 557
f 452 445 376
f 376 445 369
f 452 558 445
f 559 378 557
f 557 378 376
f 454 376 378
f 452 376 454
f 558 452 560
f 560 452 454
f 561 380 559
f 559 380 378
f 456 378 380
f 454 378 456
f 560 454 562
f 562 454 456
f 370 380 561
f 446 456 370
f 370 456 380
f 562 456 446
