# Converted from NanoShaper .vert/.face
v -8.860000 -9.959000 -11.536000
v -7.983000 -9.959000 -11.536000
v -9.050000 -9.959000 -11.036000
v -7.793000 -9.959000 -11.036000
v -9.098000 -9.959000 -10.536000
v -7.924000 -9.959000 -10.536000
v -8.782000 -9.959000 -10.036000
v -8.240000 -9.959000 -10.036000
v -9.895000 -5.959000 -13.036000
v -9.083000 -5.959000 -13.036000
v -11.124000 -5.959000 -12.536000
v -8.868000 -5.959000 -12.536000
v -11.524000 -5.959000 -12.036000
v -8.825000 -5.959000 -12.036000
v -11.634000 -5.959000 -11.536000
v -8.772000 -5.959000 -11.536000
v -11.614000 -5.959000 -11.036000
v -8.750000 -5.959000 -11.036000
v -11.519000 -5.959000 -10.536000
v -8.791000 -5.959000 -10.536000
v -11.100000 -5.959000 -10.036000
v -9.080000 -5.959000 -10.036000
v -8.967000 -9.959000 -11.400000
v -8.967000 -9.959000 -10.188000
v -8.467000 -9.959000 -11.713000
v -8.467000 -9.959000 -9.972000
v -7.967000 -9.959000 -11.521000
v -7.967000 -9.959000 -10.336000
v -11.467000 -5.959000 -12.144000
v -11.467000 -5.959000 -10.432000
v -10.967000 -5.959000 -12.655000
v -10.967000 -5.959000 -9.960000
v -10.467000 -5.959000 -12.805000
v -10.467000 -5.959000 -9.842000
v -9.967000 -5.959000 -12.983000
v -9.967000 -5.959000 -9.783000
v -9.467000 -5.959000 -13.187000
v -9.467000 -5.959000 -9.849000
v -8.967000 -5.959000 -12.902000
v -8.967000 -5.959000 -10.147000
v -11.967000 -8.613000 -13.536000
v -11.967000 -6.856000 -13.536000
v -11.467000 -8.957000 -13.536000
v -11.467000 -6.511000 -13.536000
v -10.967000 -9.054000 -13.536000
v -10.967000 -6.423000 -13.536000
v -10.467000 -9.203000 -13.536000
v -10.467000 -6.389000 -13.536000
v -9.967000 -9.480000 -13.536000
v -9.967000 -6.303000 -13.536000
v -9.467000 -9.564000 -13.536000
v -9.467000 -6.205000 -13.536000
v -8.967000 -9.451000 -13.536000
v -8.967000 -6.350000 -13.536000
v -8.467000 -9.062000 -13.536000
v -8.467000 -7.173000 -13.536000
v -10.967000 -8.270000 -9.536000
v -10.967000 -7.503000 -9.536000
v -10.467000 -9.219000 -9.536000
v -10.467000 -6.585000 -9.536000
v -9.967000 -9.530000 -9.536000
v -9.967000 -6.313000 -9.536000
v -9.467000 -9.621000 -9.536000
v -9.467000 -6.203000 -9.536000
v -8.967000 -9.652000 -9.536000
v -8.967000 -6.234000 -9.536000
v -8.467000 -9.646000 -9.536000
v -8.467000 -6.371000 -9.536000
v -7.967000 -9.477000 -9.536000
v -7.967000 -6.692000 -9.536000
v -7.467000 -8.281000 -9.536000
v -7.467000 -7.851000 -9.536000
v -10.019000 -9.459000 -13.536000
v -8.987000 -9.459000 -13.536000
v -10.196000 -9.459000 -13.036000
v -8.802000 -9.459000 -13.036000
v -10.065000 -9.459000 -12.536000
v -8.536000 -9.459000 -12.536000
v -9.827000 -9.459000 -12.036000
v -7.722000 -9.459000 -12.036000
v -9.673000 -9.459000 -11.536000
v -7.330000 -9.459000 -11.536000
v -9.873000 -9.459000 -11.036000
v -7.240000 -9.459000 -11.036000
v -10.123000 -9.459000 -10.536000
v -7.337000 -9.459000 -10.536000
v -10.077000 -9.459000 -10.036000
v -7.465000 -9.459000 -10.036000
v -10.130000 -9.459000 -9.536000
v -7.942000 -9.459000 -9.536000
v -9.850000 -9.459000 -9.036000
v -9.140000 -9.459000 -9.036000
v -10.771000 -5.459000 -12.036000
v -9.565000 -5.459000 -12.036000
v -11.047000 -5.459000 -11.536000
v -9.331000 -5.459000 -11.536000
v -10.996000 -5.459000 -11.036000
v -9.284000 -5.459000 -11.036000
v -10.736000 -5.459000 -10.536000
v -9.449000 -5.459000 -10.536000
v -9.967000 -9.459000 -13.589000
v -9.967000 -9.459000 -12.218000
v -9.967000 -9.459000 -10.934000
v -9.967000 -9.459000 -9.138000
v -9.467000 -9.459000 -13.766000
v -9.467000 -9.459000 -8.929000
v -8.967000 -9.459000 -13.513000
v -8.967000 -9.459000 -9.157000
v -8.467000 -9.459000 -12.478000
v -8.467000 -9.459000 -9.360000
v -7.967000 -9.459000 -12.178000
v -7.967000 -9.459000 -9.523000
v -7.467000 -9.459000 -11.781000
v -7.467000 -9.459000 -10.032000
v -10.967000 -5.459000 -11.837000
v -10.967000 -5.459000 -10.818000
v -10.467000 -5.459000 -12.123000
v -10.467000 -5.459000 -10.440000
v -9.967000 -5.459000 -12.179000
v -9.967000 -5.459000 -10.289000
v -9.467000 -5.459000 -11.936000
v -9.467000 -5.459000 -10.516000
v -11.967000 -8.739000 -13.036000
v -11.967000 -6.729000 -13.036000
v -11.467000 -9.051000 -13.036000
v -11.467000 -6.397000 -13.036000
v -10.967000 -9.144000 -13.036000
v -10.967000 -6.203000 -13.036000
v -10.467000 -9.299000 -13.036000
v -10.467000 -6.119000 -13.036000
v -9.967000 -9.564000 -13.036000
v -9.967000 -5.983000 -13.036000
v -9.467000 -9.642000 -13.036000
v -9.467000 -5.896000 -13.036000
v -8.967000 -9.536000 -13.036000
v -8.967000 -6.003000 -13.036000
v -8.467000 -9.219000 -13.036000
v -8.467000 -6.381000 -13.036000
v -10.467000 -9.070000 -9.036000
v -10.467000 -7.334000 -9.036000
v -9.967000 -9.420000 -9.036000
v -9.967000 -6.845000 -9.036000
v -9.467000 -9.509000 -9.036000
v -9.467000 -6.493000 -9.036000
v -8.967000 -9.398000 -9.036000
v -8.967000 -6.389000 -9.036000
v -8.467000 -9.088000 -9.036000
v -8.467000 -6.485000 -9.036000
v -7.967000 -8.560000 -9.036000
v -7.967000 -6.850000 -9.036000
v -10.234000 -8.959000 -14.036000
v -8.783000 -8.959000 -14.036000
v -11.462000 -8.959000 -13.536000
v -8.393000 -8.959000 -13.536000
v -11.670000 -8.959000 -13.036000
v -8.259000 -8.959000 -13.036000
v -11.438000 -8.959000 -12.536000
v -7.981000 -8.959000 -12.536000
v -11.150000 -8.959000 -12.036000
v -7.427000 -8.959000 -12.036000
v -11.137000 -8.959000 -11.536000
v -7.121000 -8.959000 -11.536000
v -11.092000 -8.959000 -11.036000
v -7.045000 -8.959000 -11.036000
v -10.908000 -8.959000 -10.536000
v -7.131000 -8.959000 -10.536000
v -10.718000 -8.959000 -10.036000
v -7.240000 -8.959000 -10.036000
v -10.678000 -8.959000 -9.536000
v -7.592000 -8.959000 -9.536000
v -10.555000 -8.959000 -9.036000
v -8.352000 -8.959000 -9.036000
v -10.082000 -8.959000 -8.536000
v -8.908000 -8.959000 -8.536000
v -11.467000 -8.959000 -13.532000
v -11.467000 -8.959000 -12.564000
v -10.967000 -8.959000 -13.733000
v -10.967000 -8.959000 -10.619000
v -10.467000 -8.959000 -13.908000
v -10.467000 -8.959000 -8.889000
v -9.967000 -8.959000 -14.183000
v -9.967000 -8.959000 -8.479000
v -9.467000 -8.959000 -14.276000
v -9.467000 -8.959000 -8.381000
v -8.967000 -8.959000 -14.150000
v -8.967000 -8.959000 -8.505000
v -8.467000 -8.959000 -13.684000
v -8.467000 -8.959000 -8.934000
v -7.967000 -8.959000 -12.520000
v -7.967000 -8.959000 -9.275000
v -7.467000 -8.959000 -12.077000
v -7.467000 -8.959000 -9.665000
v -11.967000 -8.600000 -12.536000
v -11.967000 -6.830000 -12.536000
v -11.467000 -8.948000 -12.536000
v -11.467000 -6.239000 -12.536000
v -10.967000 -9.070000 -12.536000
v -10.967000 -5.869000 -12.536000
v -10.467000 -9.222000 -12.536000
v -10.467000 -5.747000 -12.536000
v -9.967000 -9.505000 -12.536000
v -9.967000 -5.704000 -12.536000
v -9.467000 -9.614000 -12.536000
v -9.467000 -5.741000 -12.536000
v -8.967000 -9.574000 -12.536000
v -8.967000 -5.911000 -12.536000
v -8.467000 -9.428000 -12.536000
v -8.467000 -6.258000 -12.536000
v -7.967000 -8.930000 -12.536000
v -7.967000 -7.773000 -12.536000
v -9.967000 -9.037000 -8.536000
v -9.967000 -7.383000 -8.536000
v -9.467000 -9.162000 -8.536000
v -9.467000 -6.891000 -8.536000
v -8.967000 -9.003000 -8.536000
v -8.967000 -6.741000 -8.536000
v -8.467000 -8.490000 -8.536000
v -8.467000 -6.878000 -8.536000
v -11.668000 -8.459000 -14.036000
v -8.511000 -8.459000 -14.036000
v -12.086000 -8.459000 -13.536000
v -8.200000 -8.459000 -13.536000
v -12.190000 -8.459000 -13.036000
v -8.090000 -8.459000 -13.036000
v -12.075000 -8.459000 -12.536000
v -7.881000 -8.459000 -12.536000
v -11.792000 -8.459000 -12.036000
v -7.427000 -8.459000 -12.036000
v -11.696000 -8.459000 -11.536000
v -7.121000 -8.459000 -11.536000
v -11.638000 -8.459000 -11.036000
v -7.045000 -8.459000 -11.036000
v -11.541000 -8.459000 -10.536000
v -7.078000 -8.459000 -10.536000
v -11.183000 -8.459000 -10.036000
v -7.173000 -8.459000 -10.036000
v -10.917000 -8.459000 -9.536000
v -7.504000 -8.459000 -9.536000
v -10.768000 -8.459000 -9.036000
v -7.902000 -8.459000 -9.036000
v -10.413000 -8.459000 -8.536000
v -8.426000 -8.459000 -8.536000
v -11.967000 -8.459000 -13.744000
v -11.967000 -8.459000 -12.352000
v -11.467000 -8.459000 -14.147000
v -11.467000 -8.459000 -10.391000
v -10.967000 -8.459000 -14.245000
v -10.967000 -8.459000 -9.665000
v -10.467000 -8.459000 -14.277000
v -10.467000 -8.459000 -8.588000
v -9.967000 -8.459000 -14.380000
v -9.967000 -8.459000 -8.270000
v -9.467000 -8.459000 -14.456000
v -9.467000 -8.459000 -8.187000
v -8.967000 -8.459000 -14.348000
v -8.967000 -8.459000 -8.291000
v -8.467000 -8.459000 -13.989000
v -8.467000 -8.459000 -8.515000
v -7.967000 -8.459000 -12.691000
v -7.967000 -8.459000 -8.950000
v -7.467000 -8.459000 -12.077000
v -7.467000 -8.459000 -9.573000
v -11.967000 -8.135000 -12.036000
v -11.967000 -7.238000 -12.036000
v -11.467000 -8.770000 -12.036000
v -11.467000 -5.887000 -12.036000
v -10.967000 -9.045000 -12.036000
v -10.967000 -5.523000 -12.036000
v -10.467000 -9.184000 -12.036000
v -10.467000 -5.424000 -12.036000
v -9.967000 -9.399000 -12.036000
v -9.967000 -5.396000 -12.036000
v -9.467000 -9.594000 -12.036000
v -9.467000 -5.495000 -12.036000
v -8.967000 -9.712000 -12.036000
v -8.967000 -5.834000 -12.036000
v -8.467000 -9.745000 -12.036000
v -8.467000 -6.240000 -12.036000
v -7.967000 -9.629000 -12.036000
v -7.967000 -7.219000 -12.036000
v -7.467000 -9.085000 -12.036000
v -7.467000 -8.334000 -12.036000
v -11.958000 -7.959000 -14.036000
v -8.528000 -7.959000 -14.036000
v -12.285000 -7.959000 -13.536000
v -8.213000 -7.959000 -13.536000
v -12.374000 -7.959000 -13.036000
v -8.113000 -7.959000 -13.036000
v -12.276000 -7.959000 -12.536000
v -7.921000 -7.959000 -12.536000
v -12.016000 -7.959000 -12.036000
v -7.615000 -7.959000 -12.036000
v -11.897000 -7.959000 -11.536000
v -7.330000 -7.959000 -11.536000
v -11.833000 -7.959000 -11.036000
v -7.166000 -7.959000 -11.036000
v -11.747000 -7.959000 -10.536000
v -7.077000 -7.959000 -10.536000
v -11.435000 -7.959000 -10.036000
v -7.167000 -7.959000 -10.036000
v -11.005000 -7.959000 -9.536000
v -7.457000 -7.959000 -9.536000
v -10.767000 -7.959000 -9.036000
v -7.694000 -7.959000 -9.036000
v -10.411000 -7.959000 -8.536000
v -8.058000 -7.959000 -8.536000
v -11.967000 -7.959000 -14.027000
v -11.967000 -7.959000 -11.904000
v -11.467000 -7.959000 -14.345000
v -11.467000 -7.959000 -10.071000
v -10.967000 -7.959000 -14.429000
v -10.967000 -7.959000 -9.472000
v -10.467000 -7.959000 -14.463000
v -10.467000 -7.959000 -8.589000
v -9.967000 -7.959000 -14.431000
v -9.967000 -7.959000 -8.271000
v -9.467000 -7.959000 -14.444000
v -9.467000 -7.959000 -8.188000
v -8.967000 -7.959000 -14.335000
v -8.967000 -7.959000 -8.199000
v -8.467000 -7.959000 -13.971000
v -8.467000 -7.959000 -8.291000
v -7.967000 -7.959000 -12.620000
v -7.967000 -7.959000 -8.623000
v -7.467000 -7.959000 -11.786000
v -7.467000 -7.959000 -9.520000
v -11.467000 -8.733000 -11.536000
v -11.467000 -5.754000 -11.536000
v -10.967000 -9.030000 -11.536000
v -10.967000 -5.426000 -11.536000
v -10.467000 -9.128000 -11.536000
v -10.467000 -5.334000 -11.536000
v -9.967000 -9.322000 -11.536000
v -9.967000 -5.307000 -11.536000
v -9.467000 -9.602000 -11.536000
v -9.467000 -5.399000 -11.536000
v -8.967000 -9.917000 -11.536000
v -8.967000 -5.727000 -11.536000
v -8.467000 -10.033000 -11.536000
v -8.467000 -6.251000 -11.536000
v -7.967000 -9.954000 -11.536000
v -7.967000 -7.031000 -11.536000
v -7.467000 -9.628000 -11.536000
v -7.467000 -7.784000 -11.536000
v -11.945000 -7.459000 -14.036000
v -8.856000 -7.459000 -14.036000
v -12.275000 -7.459000 -13.536000
v -8.386000 -7.459000 -13.536000
v -12.365000 -7.459000 -13.036000
v -8.177000 -7.459000 -13.036000
v -12.266000 -7.459000 -12.536000
v -8.020000 -7.459000 -12.536000
v -12.009000 -7.459000 -12.036000
v -7.851000 -7.459000 -12.036000
v -11.897000 -7.459000 -11.536000
v -7.691000 -7.459000 -11.536000
v -11.835000 -7.459000 -11.036000
v -7.380000 -7.459000 -11.036000
v -11.748000 -7.459000 -10.536000
v -7.266000 -7.459000 -10.536000
v -11.438000 -7.459000 -10.036000
v -7.372000 -7.459000 -10.036000
v -10.955000 -7.459000 -9.536000
v -7.550000 -7.459000 -9.536000
v -10.559000 -7.459000 -9.036000
v -7.683000 -7.459000 -9.036000
v -10.075000 -7.459000 -8.536000
v -8.042000 -7.459000 -8.536000
v -11.967000 -7.459000 -14.014000
v -11.967000 -7.459000 -11.918000
v -11.467000 -7.459000 -14.336000
v -11.467000 -7.459000 -10.068000
v -10.967000 -7.459000 -14.420000
v -10.967000 -7.459000 -9.549000
v -10.467000 -7.459000 -14.460000
v -10.467000 -7.459000 -8.895000
v -9.967000 -7.459000 -14.397000
v -9.967000 -7.459000 -8.483000
v -9.467000 -7.459000 -14.300000
v -9.467000 -7.459000 -8.287000
v -8.967000 -7.459000 -14.102000
v -8.967000 -7.459000 -8.191000
v -8.467000 -7.459000 -13.659000
v -8.467000 -7.459000 -8.281000
v -7.967000 -7.459000 -12.380000
v -7.967000 -7.459000 -8.608000
v -7.467000 -7.459000 -11.190000
v -7.467000 -7.459000 -9.808000
v -11.467000 -8.678000 -11.036000
v -11.467000 -5.780000 -11.036000
v -10.967000 -9.016000 -11.036000
v -10.967000 -5.448000 -11.036000
v -10.467000 -9.181000 -11.036000
v -10.467000 -5.344000 -11.036000
v -9.967000 -9.422000 -11.036000
v -9.967000 -5.272000 -11.036000
v -9.467000 -9.682000 -11.036000
v -9.467000 -5.371000 -11.036000
v -8.967000 -9.998000 -11.036000
v -8.967000 -5.710000 -11.036000
v -8.467000 -10.108000 -11.036000
v -8.467000 -6.215000 -11.036000
v -7.967000 -10.033000 -11.036000
v -7.967000 -6.885000 -11.036000
v -7.467000 -9.732000 -11.036000
v -7.467000 -7.346000 -11.036000
v -11.610000 -6.959000 -14.036000
v -9.400000 -6.959000 -14.036000
v -12.051000 -6.959000 -13.536000
v -8.512000 -6.959000 -13.536000
v -12.158000 -6.959000 -13.036000
v -8.195000 -6.959000 -13.036000
v -12.049000 -6.959000 -12.536000
v -8.111000 -6.959000 -12.536000
v -11.921000 -6.959000 -12.036000
v -8.059000 -6.959000 -12.036000
v -11.854000 -6.959000 -11.536000
v -8.015000 -6.959000 -11.536000
v -11.846000 -6.959000 -11.036000
v -7.895000 -6.959000 -11.036000
v -11.767000 -6.959000 -10.536000
v -7.775000 -6.959000 -10.536000
v -11.459000 -6.959000 -10.036000
v -7.755000 -6.959000 -10.036000
v -10.775000 -6.959000 -9.536000
v -7.758000 -6.959000 -9.536000
v -10.063000 -6.959000 -9.036000
v -7.884000 -6.959000 -9.036000
v -9.560000 -6.959000 -8.536000
v -8.354000 -6.959000 -8.536000
v -11.967000 -6.959000 -13.688000
v -11.967000 -6.959000 -12.247000
v -11.467000 -6.959000 -14.113000
v -11.467000 -6.959000 -10.045000
v -10.967000 -6.959000 -14.213000
v -10.967000 -6.959000 -9.664000
v -10.467000 -6.959000 -14.261000
v -10.467000 -6.959000 -9.345000
v -9.967000 -6.959000 -14.188000
v -9.967000 -6.959000 -8.922000
v -9.467000 -6.959000 -14.067000
v -9.467000 -6.959000 -8.488000
v -8.967000 -6.959000 -13.844000
v -8.967000 -6.959000 -8.374000
v -8.467000 -6.959000 -13.489000
v -8.467000 -6.959000 -8.478000
v -7.967000 -6.959000 -11.303000
v -7.967000 -6.959000 -8.896000
v -11.467000 -8.558000 -10.536000
v -11.467000 -5.894000 -10.536000
v -10.967000 -8.932000 -10.536000
v -10.967000 -5.531000 -10.536000
v -10.467000 -9.222000 -10.536000
v -10.467000 -5.421000 -10.536000
v -9.967000 -9.528000 -10.536000
v -9.967000 -5.347000 -10.536000
v -9.467000 -9.733000 -10.536000
v -9.467000 -5.452000 -10.536000
v -8.967000 -10.012000 -10.536000
v -8.967000 -5.809000 -10.536000
v -8.467000 -10.088000 -10.536000
v -8.467000 -6.220000 -10.536000
v -7.967000 -9.978000 -10.536000
v -7.967000 -6.777000 -10.536000
v -7.467000 -9.626000 -10.536000
v -7.467000 -7.205000 -10.536000
v -11.301000 -6.459000 -13.536000
v -8.818000 -6.459000 -13.536000
v -11.585000 -6.459000 -13.036000
v -8.407000 -6.459000 -13.036000
v -11.682000 -6.459000 -12.536000
v -8.310000 -6.459000 -12.536000
v -11.774000 -6.459000 -12.036000
v -8.279000 -6.459000 -12.036000
v -11.840000 -6.459000 -11.536000
v -8.296000 -6.459000 -11.536000
v -11.830000 -6.459000 -11.036000
v -8.277000 -6.459000 -11.036000
v -11.750000 -6.459000 -10.536000
v -8.268000 -6.459000 -10.536000
v -11.437000 -6.459000 -10.036000
v -8.283000 -6.459000 -10.036000
v -10.291000 -6.459000 -9.536000
v -8.276000 -6.459000 -9.536000
v -9.378000 -6.459000 -9.036000
v -8.535000 -6.459000 -9.036000
v -11.467000 -6.459000 -13.378000
v -11.467000 -6.459000 -10.068000
v -10.967000 -6.459000 -13.625000
v -10.967000 -6.459000 -9.725000
v -10.467000 -6.459000 -13.698000
v -10.467000 -6.459000 -9.587000
v -9.967000 -6.459000 -13.713000
v -9.967000 -6.459000 -9.418000
v -9.467000 -6.459000 -13.746000
v -9.467000 -6.459000 -9.105000
v -8.967000 -6.459000 -13.624000
v -8.967000 -6.459000 -8.891000
v -8.467000 -6.459000 -13.155000
v -8.467000 -6.459000 -9.098000
v -11.467000 -8.605000 -14.036000
v -11.467000 -6.864000 -14.036000
v -10.967000 -8.725000 -14.036000
v -10.967000 -6.744000 -14.036000
v -10.467000 -8.820000 -14.036000
v -10.467000 -6.692000 -14.036000
v -9.967000 -9.147000 -14.036000
v -9.967000 -6.773000 -14.036000
v -9.467000 -9.258000 -14.036000
v -9.467000 -6.916000 -14.036000
v -8.967000 -9.106000 -14.036000
v -8.967000 -7.368000 -14.036000
v -10.967000 -8.722000 -10.036000
v -10.967000 -5.868000 -10.036000
v -10.467000 -9.182000 -10.036000
v -10.467000 -5.730000 -10.036000
v -9.967000 -9.507000 -10.036000
v -9.967000 -5.646000 -10.036000
v -9.467000 -9.678000 -10.036000
v -9.467000 -5.784000 -10.036000
v -8.967000 -9.905000 -10.036000
v -8.967000 -6.006000 -10.036000
v -8.467000 -9.987000 -10.036000
v -8.467000 -6.315000 -10.036000
v -7.967000 -9.869000 -10.036000
v -7.967000 -6.703000 -10.036000
v -7.467000 -9.462000 -10.036000
v -7.467000 -7.329000 -10.036000
f 123 223 41
f 41 223 221
f 223 285 221
f 287 285 223
f 287 347 285
f 349 347 287
f 349 409 347
f 411 409 349
f 411 124 409
f 409 124 42
f 125 155 175
f 43 175 155
f 123 43 155
f 41 43 123
f 124 469 487
f 44 124 487
f 42 124 44
f 469 126 487
f 153 45 175
f 45 125 175
f 45 127 125
f 175 43 153
f 487 467 44
f 487 126 467
f 126 46 467
f 126 128 46
f 129 45 47
f 129 127 45
f 46 130 48
f 128 130 46
f 131 75 49
f 49 75 73
f 47 73 75
f 47 75 129
f 48 132 50
f 130 132 48
f 133 49 51
f 133 131 49
f 132 9 37
f 52 132 37
f 50 132 52
f 9 134 37
f 107 135 74
f 135 51 74
f 135 133 51
f 53 107 74
f 52 37 10
f 136 52 10
f 54 52 136
f 37 134 10
f 107 76 135
f 137 76 107
f 53 137 107
f 55 137 53
f 410 445 56
f 468 499 445
f 468 445 410
f 468 54 499
f 54 138 499
f 54 136 138
f 55 154 137
f 137 154 156
f 222 156 154
f 222 224 156
f 286 224 222
f 286 288 224
f 348 288 286
f 348 350 288
f 445 412 56
f 412 348 56
f 412 350 348
f 412 445 470
f 470 445 499
f 499 138 470
f 312 301 57
f 312 58 301
f 139 171 59
f 59 171 169
f 171 237 169
f 239 237 171
f 303 312 57
f 237 303 57
f 239 303 237
f 363 58 312
f 303 363 312
f 365 363 303
f 438 425 140
f 425 365 140
f 425 363 365
f 438 60 425
f 104 89 61
f 59 89 104
f 141 59 104
f 139 59 141
f 427 438 140
f 142 494 483
f 142 483 60
f 427 142 60
f 438 427 60
f 494 62 483
f 104 61 91
f 61 143 91
f 61 63 143
f 141 104 91
f 144 496 494
f 144 494 142
f 62 494 64
f 64 494 496
f 92 143 108
f 143 65 108
f 143 63 65
f 145 92 108
f 485 496 144
f 485 146 496
f 146 64 496
f 146 66 64
f 67 110 65
f 65 110 108
f 145 108 110
f 145 110 147
f 486 148 500
f 500 68 486
f 68 146 486
f 68 66 146
f 69 112 67
f 67 112 110
f 190 172 147
f 110 190 147
f 112 190 110
f 149 172 190
f 70 484 500
f 148 70 500
f 150 70 148
f 68 500 484
f 90 112 69
f 170 190 90
f 90 190 112
f 190 170 149
f 170 240 149
f 170 238 240
f 238 71 326
f 304 238 326
f 240 238 304
f 304 326 72
f 364 304 72
f 366 304 364
f 426 366 364
f 426 428 366
f 426 70 428
f 428 70 150
f 302 326 71
f 72 326 302
f 193 225 123
f 123 225 223
f 225 287 223
f 289 287 225
f 289 349 287
f 351 349 289
f 351 411 349
f 413 411 351
f 413 194 411
f 411 194 124
f 176 155 125
f 123 155 176
f 195 123 176
f 193 123 195
f 469 124 194
f 469 194 471
f 471 196 469
f 469 196 126
f 176 125 157
f 125 197 157
f 125 127 197
f 195 176 157
f 196 11 31
f 128 196 31
f 126 196 128
f 11 198 31
f 199 127 129
f 199 197 127
f 33 130 128
f 33 128 31
f 31 198 33
f 33 198 200
f 201 77 131
f 131 77 75
f 129 75 77
f 129 77 199
f 35 132 130
f 35 130 33
f 33 200 35
f 35 200 202
f 203 131 133
f 203 201 131
f 35 9 132
f 35 202 9
f 202 134 9
f 202 204 134
f 205 133 135
f 205 203 133
f 10 39 136
f 10 134 39
f 134 206 39
f 134 204 206
f 135 76 205
f 205 76 78
f 207 78 76
f 207 76 137
f 136 39 12
f 208 136 12
f 138 136 208
f 39 206 12
f 137 156 207
f 207 156 158
f 224 259 209
f 158 224 209
f 156 224 158
f 288 323 259
f 288 259 224
f 352 210 323
f 288 352 323
f 350 352 288
f 412 352 350
f 412 414 352
f 470 414 412
f 470 472 414
f 470 138 472
f 472 138 208
f 259 226 209
f 226 259 290
f 290 259 323
f 323 210 290
f 180 171 139
f 250 239 180
f 180 239 171
f 314 303 250
f 250 303 239
f 376 365 314
f 314 365 303
f 376 140 365
f 180 139 173
f 139 211 173
f 139 141 211
f 180 173 241
f 180 241 250
f 250 241 305
f 250 305 314
f 314 305 367
f 314 367 376
f 212 440 427
f 212 427 140
f 367 212 140
f 376 367 140
f 440 142 427
f 106 91 143
f 141 91 106
f 213 141 106
f 211 141 213
f 429 440 212
f 429 214 440
f 214 142 440
f 214 144 142
f 92 106 143
f 213 106 92
f 145 213 92
f 215 213 145
f 216 498 485
f 144 216 485
f 214 216 144
f 498 146 485
f 174 215 188
f 215 147 188
f 215 145 147
f 217 174 188
f 148 486 498
f 216 148 498
f 218 148 216
f 146 498 486
f 172 188 147
f 242 217 260
f 260 217 149
f 217 188 149
f 188 172 149
f 242 260 324
f 242 324 306
f 306 324 386
f 306 386 368
f 368 386 448
f 368 448 430
f 448 150 430
f 150 218 430
f 150 148 218
f 240 260 149
f 304 324 240
f 240 324 260
f 366 386 304
f 304 386 324
f 428 448 366
f 366 448 386
f 150 448 428
f 244 225 193
f 263 291 244
f 291 225 244
f 291 289 225
f 291 351 289
f 353 351 291
f 432 413 264
f 413 353 264
f 413 351 353
f 432 194 413
f 244 193 227
f 193 265 227
f 193 195 265
f 263 244 227
f 415 432 264
f 471 194 432
f 415 471 432
f 473 471 415
f 196 471 29
f 471 13 29
f 471 473 13
f 13 266 29
f 267 159 197
f 197 159 157
f 195 157 159
f 195 159 265
f 29 11 196
f 29 266 11
f 266 198 11
f 266 268 198
f 269 197 199
f 269 267 197
f 268 93 117
f 200 268 117
f 198 268 200
f 93 270 117
f 102 77 201
f 199 77 102
f 271 199 102
f 269 199 271
f 119 202 200
f 119 200 117
f 117 270 119
f 119 270 272
f 102 201 79
f 201 273 79
f 201 203 273
f 271 102 79
f 202 119 94
f 274 202 94
f 204 202 274
f 119 272 94
f 275 203 205
f 275 273 203
f 204 276 206
f 274 276 204
f 109 277 78
f 277 205 78
f 277 275 205
f 207 109 78
f 14 278 208
f 14 208 12
f 12 206 14
f 14 206 276
f 111 279 109
f 109 279 277
f 109 207 158
f 189 109 158
f 111 109 189
f 209 189 158
f 352 385 210
f 416 280 385
f 352 416 385
f 414 416 352
f 472 416 414
f 472 474 416
f 472 208 474
f 474 208 278
f 111 80 279
f 80 111 281
f 111 191 281
f 111 189 191
f 189 209 226
f 261 189 226
f 191 189 261
f 292 282 261
f 226 292 261
f 290 292 226
f 385 354 210
f 354 290 210
f 354 292 290
f 385 280 354
f 191 160 281
f 160 191 228
f 228 191 261
f 261 282 228
f 182 173 211
f 252 241 182
f 182 241 173
f 316 305 252
f 252 305 241
f 378 367 316
f 316 367 305
f 378 212 367
f 213 184 211
f 211 184 182
f 254 182 184
f 252 182 254
f 318 252 254
f 316 252 318
f 380 316 318
f 378 316 380
f 212 378 429
f 378 442 429
f 378 380 442
f 442 214 429
f 215 186 213
f 213 186 184
f 256 184 186
f 254 184 256
f 320 254 256
f 318 254 320
f 382 318 320
f 380 318 382
f 444 380 382
f 442 380 444
f 214 442 216
f 216 442 444
f 174 186 215
f 217 258 174
f 258 186 174
f 258 256 186
f 322 256 258
f 320 256 322
f 384 320 322
f 382 320 384
f 446 382 384
f 444 382 446
f 216 444 218
f 218 444 446
f 242 258 217
f 306 322 242
f 242 322 258
f 368 384 306
f 306 384 322
f 430 446 368
f 368 446 384
f 218 446 430
f 308 291 263
f 370 353 308
f 308 353 291
f 370 264 353
f 327 229 265
f 265 229 227
f 293 308 263
f 227 293 263
f 229 293 227
f 308 293 355
f 308 355 370
f 415 264 370
f 355 415 370
f 417 415 355
f 417 473 415
f 475 473 417
f 475 13 473
f 15 13 475
f 15 328 13
f 13 328 266
f 329 161 267
f 267 161 159
f 265 159 161
f 265 161 327
f 328 95 115
f 268 328 115
f 266 328 268
f 95 330 115
f 331 267 269
f 331 329 267
f 115 93 268
f 115 330 93
f 330 270 93
f 330 332 270
f 333 269 271
f 333 331 269
f 270 334 272
f 332 334 270
f 335 81 273
f 273 81 79
f 271 79 81
f 271 81 333
f 94 121 274
f 94 272 121
f 272 336 121
f 272 334 336
f 337 273 275
f 337 335 273
f 274 121 96
f 338 274 96
f 276 274 338
f 121 336 96
f 339 1 25
f 277 25 1
f 337 277 1
f 275 277 337
f 16 340 278
f 16 278 14
f 14 276 16
f 16 276 338
f 25 2 339
f 341 2 25
f 277 341 25
f 279 341 277
f 418 342 280
f 418 280 416
f 474 418 416
f 474 476 418
f 474 278 476
f 476 278 340
f 113 343 80
f 343 279 80
f 343 341 279
f 281 113 80
f 292 325 282
f 356 344 325
f 292 356 325
f 354 356 292
f 354 280 356
f 356 280 342
f 113 82 343
f 281 160 113
f 160 82 113
f 160 162 82
f 228 162 160
f 228 230 162
f 325 294 282
f 294 228 282
f 294 230 228
f 325 344 294
f 389 231 327
f 327 231 229
f 231 293 229
f 295 293 231
f 295 355 293
f 357 355 295
f 357 417 355
f 419 417 357
f 419 475 417
f 477 475 419
f 477 15 475
f 17 15 477
f 17 390 15
f 15 390 328
f 391 163 329
f 329 163 161
f 327 161 163
f 327 163 389
f 95 328 390
f 95 390 97
f 97 392 95
f 95 392 330
f 393 329 331
f 393 391 329
f 330 394 332
f 392 394 330
f 395 331 333
f 395 393 331
f 332 396 334
f 394 396 332
f 397 83 335
f 335 83 81
f 333 81 83
f 333 83 395
f 334 398 336
f 396 398 334
f 399 3 23
f 337 23 3
f 397 337 3
f 335 337 397
f 98 400 338
f 98 338 96
f 96 336 98
f 98 336 398
f 1 339 23
f 339 399 23
f 339 401 399
f 23 337 1
f 18 402 340
f 18 340 16
f 16 338 18
f 18 338 400
f 27 403 2
f 403 339 2
f 403 401 339
f 341 27 2
f 418 447 342
f 478 404 447
f 418 478 447
f 476 478 418
f 476 340 478
f 478 340 402
f 27 4 403
f 405 4 27
f 341 405 27
f 343 405 341
f 356 387 344
f 447 420 342
f 342 420 356
f 420 406 356
f 406 387 356
f 447 404 420
f 343 82 405
f 405 82 84
f 162 84 82
f 162 164 84
f 230 164 162
f 230 232 164
f 294 232 230
f 294 296 232
f 387 358 344
f 358 294 344
f 358 296 294
f 387 406 358
f 449 233 389
f 389 233 231
f 233 295 231
f 297 295 233
f 297 357 295
f 359 357 297
f 359 419 357
f 421 419 359
f 421 477 419
f 479 477 421
f 479 17 477
f 19 17 479
f 19 450 17
f 17 450 390
f 178 163 391
f 389 163 178
f 451 389 178
f 449 389 451
f 452 116 97
f 390 452 97
f 450 452 390
f 116 392 97
f 178 391 165
f 391 453 165
f 391 393 453
f 451 178 165
f 99 116 452
f 99 454 116
f 454 392 116
f 454 394 392
f 455 85 103
f 395 103 85
f 453 395 85
f 393 395 453
f 394 456 396
f 454 456 394
f 83 397 103
f 397 455 103
f 397 457 455
f 103 395 83
f 396 458 398
f 456 458 396
f 459 5 399
f 399 5 3
f 397 3 5
f 397 5 457
f 100 460 400
f 100 400 98
f 98 398 100
f 100 398 458
f 461 399 401
f 461 459 399
f 20 462 402
f 20 402 18
f 18 400 20
f 20 400 460
f 463 401 403
f 463 461 401
f 480 464 404
f 480 404 478
f 478 402 480
f 480 402 462
f 403 4 463
f 463 4 6
f 465 6 4
f 465 4 405
f 422 466 406
f 422 406 420
f 420 404 422
f 422 404 464
f 405 84 465
f 465 84 86
f 164 86 84
f 164 166 86
f 232 166 164
f 232 234 166
f 296 234 232
f 296 298 234
f 358 298 296
f 358 360 298
f 358 406 360
f 360 406 466
f 501 219 245
f 245 219 309
f 309 219 283
f 309 283 371
f 371 283 345
f 371 345 433
f 433 345 407
f 407 502 433
f 247 503 245
f 245 503 501
f 245 311 247
f 245 309 311
f 309 373 311
f 309 371 373
f 371 435 373
f 371 433 435
f 433 502 435
f 435 502 504
f 249 505 247
f 247 505 503
f 247 313 249
f 247 311 313
f 311 375 313
f 311 373 375
f 373 437 375
f 373 435 437
f 435 504 437
f 437 504 506
f 507 151 181
f 505 249 151
f 249 181 151
f 249 251 181
f 249 315 251
f 249 313 315
f 313 377 315
f 313 375 377
f 375 439 377
f 375 437 439
f 437 506 439
f 439 506 508
f 183 509 181
f 181 509 507
f 181 253 183
f 181 251 253
f 251 317 253
f 251 315 317
f 315 379 317
f 315 377 379
f 377 441 379
f 377 439 441
f 439 508 441
f 441 508 510
f 185 511 183
f 183 511 509
f 183 255 185
f 183 253 255
f 253 319 255
f 253 317 319
f 317 381 319
f 317 379 381
f 512 381 408
f 381 441 408
f 381 379 441
f 441 510 408
f 185 152 511
f 152 185 220
f 220 185 255
f 220 255 284
f 284 255 319
f 284 319 346
f 346 319 381
f 381 512 346
f 246 233 449
f 310 297 246
f 246 297 233
f 372 359 310
f 310 359 297
f 434 421 372
f 372 421 359
f 488 479 434
f 434 479 421
f 30 19 488
f 488 19 479
f 30 450 19
f 246 449 235
f 449 513 235
f 449 451 513
f 246 235 299
f 246 299 310
f 310 299 361
f 310 361 372
f 372 361 423
f 372 423 434
f 434 423 481
f 434 481 488
f 488 481 21
f 488 21 30
f 21 514 30
f 514 450 30
f 514 452 450
f 515 167 453
f 453 167 165
f 451 165 167
f 451 167 513
f 516 118 99
f 452 516 99
f 514 516 452
f 118 454 99
f 517 87 455
f 455 87 85
f 453 85 87
f 453 87 515
f 518 120 118
f 518 118 516
f 454 118 456
f 456 118 120
f 519 455 457
f 519 517 455
f 520 122 120
f 520 120 518
f 456 120 458
f 458 120 122
f 24 5 459
f 457 5 24
f 521 457 24
f 519 457 521
f 22 522 40
f 122 520 22
f 122 22 40
f 100 122 40
f 460 100 40
f 458 122 100
f 24 459 7
f 459 523 7
f 459 461 523
f 521 24 7
f 462 20 40
f 522 462 40
f 524 462 522
f 460 40 20
f 8 523 28
f 523 463 28
f 523 461 463
f 525 8 28
f 482 526 464
f 482 464 480
f 480 462 482
f 482 462 524
f 6 28 463
f 525 28 6
f 465 525 6
f 527 525 465
f 424 528 466
f 424 466 422
f 422 464 424
f 424 464 526
f 465 86 527
f 527 86 88
f 166 88 86
f 166 168 88
f 234 168 166
f 234 236 168
f 298 236 234
f 298 300 236
f 360 300 298
f 360 362 300
f 360 466 362
f 362 466 528
f 41 221 243
f 243 221 307
f 307 221 285
f 307 285 369
f 369 285 347
f 369 347 431
f 431 347 409
f 409 42 431
f 219 501 243
f 501 41 243
f 501 43 41
f 307 283 219
f 307 219 243
f 369 345 283
f 369 283 307
f 431 407 345
f 431 345 369
f 431 42 407
f 42 502 407
f 42 44 502
f 45 153 177
f 503 177 153
f 43 503 153
f 501 503 43
f 44 467 489
f 504 44 489
f 502 44 504
f 467 46 489
f 179 47 177
f 177 47 45
f 177 503 505
f 177 505 179
f 491 506 504
f 491 504 489
f 489 46 491
f 491 46 48
f 49 73 101
f 47 179 73
f 73 179 101
f 179 151 101
f 151 507 101
f 179 505 151
f 493 508 506
f 493 506 491
f 491 48 493
f 493 48 50
f 105 51 101
f 101 51 49
f 101 507 509
f 101 509 105
f 495 510 508
f 495 508 493
f 493 50 495
f 495 50 52
f 105 74 51
f 53 74 105
f 509 53 105
f 511 53 509
f 408 443 512
f 443 408 510
f 495 443 510
f 497 443 495
f 495 52 497
f 497 52 54
f 187 55 152
f 55 511 152
f 55 53 511
f 220 257 187
f 220 187 152
f 284 321 257
f 284 257 220
f 346 383 321
f 346 321 284
f 443 410 512
f 512 410 346
f 410 56 346
f 56 383 346
f 410 443 468
f 468 443 497
f 497 54 468
f 187 154 55
f 154 187 222
f 222 187 257
f 222 257 286
f 286 257 321
f 286 321 348
f 348 321 383
f 383 56 348
f 248 235 513
f 57 301 248
f 301 235 248
f 301 299 235
f 374 361 58
f 361 301 58
f 361 299 301
f 436 423 374
f 374 423 361
f 490 481 436
f 436 481 423
f 32 21 490
f 490 21 481
f 32 514 21
f 59 169 515
f 515 169 167
f 237 248 513
f 167 237 513
f 169 237 167
f 57 248 237
f 363 374 58
f 374 363 425
f 374 425 436
f 436 425 60
f 492 436 60
f 490 436 492
f 34 490 492
f 32 490 34
f 514 32 516
f 516 32 34
f 61 89 517
f 517 89 87
f 515 87 89
f 515 89 59
f 483 492 60
f 492 483 62
f 36 492 62
f 34 492 36
f 516 34 518
f 518 34 36
f 63 517 519
f 63 61 517
f 64 38 36
f 64 36 62
f 518 36 520
f 520 36 38
f 65 519 521
f 65 63 519
f 522 22 38
f 64 522 38
f 66 522 64
f 520 38 22
f 26 7 523
f 521 7 26
f 67 521 26
f 65 521 67
f 522 68 524
f 66 68 522
f 8 26 523
f 67 26 8
f 525 67 8
f 69 67 525
f 484 70 526
f 484 526 482
f 482 524 484
f 484 524 68
f 90 69 114
f 69 527 114
f 69 525 527
f 90 114 192
f 90 192 170
f 170 192 262
f 170 262 238
f 71 238 262
f 364 72 388
f 364 388 528
f 424 364 528
f 426 364 424
f 424 526 426
f 426 526 70
f 88 114 527
f 168 192 88
f 88 192 114
f 236 262 168
f 168 262 192
f 262 236 71
f 236 302 71
f 236 300 302
f 72 302 388
f 302 362 388
f 302 300 362
f 528 388 362
