# Converted from NanoShaper .vert/.face
v -12.313000 -6.557000 -15.357000
v -10.671000 -6.557000 -15.357000
v -12.699000 -6.557000 -14.857000
v -10.207000 -6.557000 -14.857000
v -12.811000 -6.557000 -14.357000
v -9.552000 -6.557000 -14.357000
v -12.726000 -6.557000 -13.857000
v -9.157000 -6.557000 -13.857000
v -12.441000 -6.557000 -13.357000
v -8.756000 -6.557000 -13.357000
v -12.257000 -6.557000 -12.857000
v -8.357000 -6.557000 -12.857000
v -11.996000 -6.557000 -12.357000
v -8.186000 -6.557000 -12.357000
v -11.889000 -6.557000 -11.857000
v -8.102000 -6.557000 -11.857000
v -11.922000 -6.557000 -11.357000
v -8.101000 -6.557000 -11.357000
v -12.003000 -6.557000 -10.857000
v -8.112000 -6.557000 -10.857000
v -12.121000 -6.557000 -10.357000
v -8.158000 -6.557000 -10.357000
v -12.438000 -6.557000 -9.857000
v -8.264000 -6.557000 -9.857000
v -12.555000 -6.557000 -9.357000
v -8.616000 -6.557000 -9.357000
v -12.415000 -6.557000 -8.857000
v -9.102000 -6.557000 -8.857000
v -12.206000 -6.557000 -8.357000
v -9.711000 -6.557000 -8.357000
v -11.810000 -6.557000 -7.857000
v -10.238000 -6.557000 -7.857000
v -12.516000 -6.557000 -15.157000
v -12.516000 -6.557000 -13.485000
v -12.516000 -6.557000 -9.663000
v -12.516000 -6.557000 -9.105000
v -12.016000 -6.557000 -15.536000
v -12.016000 -6.557000 -12.403000
v -12.016000 -6.557000 -10.769000
v -12.016000 -6.557000 -8.054000
v -11.516000 -6.557000 -15.644000
v -11.516000 -6.557000 -7.688000
v -11.016000 -6.557000 -15.555000
v -11.016000 -6.557000 -7.591000
v -10.516000 -6.557000 -15.213000
v -10.516000 -6.557000 -7.695000
v -10.016000 -6.557000 -14.695000
v -10.016000 -6.557000 -8.073000
v -9.516000 -6.557000 -14.321000
v -9.516000 -6.557000 -8.545000
v -9.016000 -6.557000 -13.684000
v -9.016000 -6.557000 -8.939000
v -8.516000 -6.557000 -13.109000
v -8.516000 -6.557000 -9.458000
v -12.516000 -5.429000 -11.857000
v -12.516000 -4.861000 -11.857000
v -12.016000 -6.339000 -11.857000
v -12.016000 -4.176000 -11.857000
v -11.516000 -7.101000 -11.857000
v -11.516000 -4.048000 -11.857000
v -11.016000 -7.672000 -11.857000
v -11.016000 -4.184000 -11.857000
v -10.516000 -8.586000 -11.857000
v -10.516000 -4.463000 -11.857000
v -10.016000 -8.905000 -11.857000
v -10.016000 -4.544000 -11.857000
v -9.516000 -8.993000 -11.857000
v -9.516000 -4.554000 -11.857000
v -9.016000 -8.895000 -11.857000
v -9.016000 -4.700000 -11.857000
v -8.516000 -8.559000 -11.857000
v -8.516000 -5.013000 -11.857000
v -11.516000 -6.837000 -7.857000
v -11.516000 -5.168000 -7.857000
v -11.016000 -6.974000 -7.857000
v -11.016000 -5.074000 -7.857000
v -10.516000 -6.827000 -7.857000
v -10.516000 -5.221000 -7.857000
v -12.436000 -6.057000 -15.357000
v -10.548000 -6.057000 -15.357000
v -12.786000 -6.057000 -14.857000
v -10.101000 -6.057000 -14.857000
v -12.891000 -6.057000 -14.357000
v -9.682000 -6.057000 -14.357000
v -12.811000 -6.057000 -13.857000
v -9.334000 -6.057000 -13.857000
v -12.542000 -6.057000 -13.357000
v -9.014000 -6.057000 -13.357000
v -12.366000 -6.057000 -12.857000
v -8.451000 -6.057000 -12.857000
v -12.251000 -6.057000 -12.357000
v -8.149000 -6.057000 -12.357000
v -12.238000 -6.057000 -11.857000
v -8.071000 -6.057000 -11.857000
v -12.429000 -6.057000 -11.357000
v -8.074000 -6.057000 -11.357000
v -12.844000 -6.057000 -10.857000
v -8.072000 -6.057000 -10.857000
v -12.981000 -6.057000 -10.357000
v -8.160000 -6.057000 -10.357000
v -13.020000 -6.057000 -9.857000
v -8.352000 -6.057000 -9.857000
v -12.978000 -6.057000 -9.357000
v -8.657000 -6.057000 -9.357000
v -12.824000 -6.057000 -8.857000
v -8.995000 -6.057000 -8.857000
v -12.425000 -6.057000 -8.357000
v -9.588000 -6.057000 -8.357000
v -11.974000 -6.057000 -7.857000
v -10.074000 -6.057000 -7.857000
v -13.016000 -6.057000 -9.960000
v -13.016000 -6.057000 -9.777000
v -12.516000 -6.057000 -15.279000
v -12.516000 -6.057000 -13.305000
v -12.516000 -6.057000 -11.245000
v -12.516000 -6.057000 -8.466000
v -12.016000 -6.057000 -15.622000
v -12.016000 -6.057000 -7.898000
v -11.516000 -6.057000 -15.724000
v -11.516000 -6.057000 -7.575000
v -11.016000 -6.057000 -15.641000
v -11.016000 -6.057000 -7.486000
v -10.516000 -6.057000 -15.328000
v -10.516000 -6.057000 -7.581000
v -10.016000 -6.057000 -14.771000
v -10.016000 -6.057000 -7.915000
v -9.516000 -6.057000 -14.161000
v -9.516000 -6.057000 -8.431000
v -9.016000 -6.057000 -13.360000
v -9.016000 -6.057000 -8.837000
v -8.516000 -6.057000 -12.926000
v -8.516000 -6.057000 -9.568000
v -12.016000 -6.877000 -15.357000
v -12.016000 -5.304000 -15.357000
v -11.516000 -7.035000 -15.357000
v -11.516000 -5.146000 -15.357000
v -11.016000 -6.907000 -15.357000
v -11.016000 -5.274000 -15.357000
v -12.516000 -5.984000 -11.357000
v -12.516000 -4.176000 -11.357000
v -12.016000 -6.452000 -11.357000
v -12.016000 -3.831000 -11.357000
v -11.516000 -7.082000 -11.357000
v -11.516000 -3.737000 -11.357000
v -11.016000 -7.601000 -11.357000
v -11.016000 -3.838000 -11.357000
v -10.516000 -8.525000 -11.357000
v -10.516000 -3.985000 -11.357000
v -10.016000 -8.851000 -11.357000
v -10.016000 -4.089000 -11.357000
v -9.516000 -8.937000 -11.357000
v -9.516000 -4.239000 -11.357000
v -9.016000 -8.836000 -11.357000
v -9.016000 -4.580000 -11.357000
v -8.516000 -8.519000 -11.357000
v -8.516000 -5.041000 -11.357000
v -12.272000 -5.557000 -15.357000
v -10.712000 -5.557000 -15.357000
v -12.672000 -5.557000 -14.857000
v -10.223000 -5.557000 -14.857000
v -12.786000 -5.557000 -14.357000
v -9.846000 -5.557000 -14.357000
v -12.700000 -5.557000 -13.857000
v -9.672000 -5.557000 -13.857000
v -12.435000 -5.557000 -13.357000
v -9.322000 -5.557000 -13.357000
v -12.311000 -5.557000 -12.857000
v -8.573000 -5.557000 -12.857000
v -12.330000 -5.557000 -12.357000
v -8.239000 -5.557000 -12.357000
v -12.485000 -5.557000 -11.857000
v -8.156000 -5.557000 -11.857000
v -12.835000 -5.557000 -11.357000
v -8.168000 -5.557000 -11.357000
v -13.194000 -5.557000 -10.857000
v -8.182000 -5.557000 -10.857000
v -13.296000 -5.557000 -10.357000
v -8.277000 -5.557000 -10.357000
v -13.343000 -5.557000 -9.857000
v -8.511000 -5.557000 -9.857000
v -13.293000 -5.557000 -9.357000
v -8.674000 -5.557000 -9.357000
v -13.177000 -5.557000 -8.857000
v -9.002000 -5.557000 -8.857000
v -12.781000 -5.557000 -8.357000
v -9.708000 -5.557000 -8.357000
v -11.891000 -5.557000 -7.857000
v -10.196000 -5.557000 -7.857000
v -13.016000 -5.557000 -11.162000
v -13.016000 -5.557000 -8.591000
v -12.516000 -5.557000 -15.117000
v -12.516000 -5.557000 -13.513000
v -12.516000 -5.557000 -11.791000
v -12.516000 -5.557000 -8.196000
v -12.016000 -5.557000 -15.508000
v -12.016000 -5.557000 -7.926000
v -11.516000 -5.557000 -15.619000
v -11.516000 -5.557000 -7.661000
v -11.016000 -5.557000 -15.528000
v -11.016000 -5.557000 -7.566000
v -10.516000 -5.557000 -15.175000
v -10.516000 -5.557000 -7.667000
v -10.016000 -5.557000 -14.646000
v -10.016000 -5.557000 -8.033000
v -9.516000 -5.557000 -13.570000
v -9.516000 -5.557000 -8.501000
v -9.016000 -5.557000 -13.146000
v -9.016000 -5.557000 -8.844000
v -8.516000 -5.557000 -12.801000
v -8.516000 -5.557000 -9.845000
v -12.516000 -6.882000 -14.857000
v -12.516000 -5.298000 -14.857000
v -12.016000 -7.274000 -14.857000
v -12.016000 -4.907000 -14.857000
v -11.516000 -7.385000 -14.857000
v -11.516000 -4.796000 -14.857000
v -11.016000 -7.296000 -14.857000
v -11.016000 -4.886000 -14.857000
v -10.516000 -7.022000 -14.857000
v -10.516000 -5.203000 -14.857000
v -13.016000 -5.873000 -10.857000
v -13.016000 -4.286000 -10.857000
v -12.516000 -6.270000 -10.857000
v -12.516000 -3.890000 -10.857000
v -12.016000 -6.548000 -10.857000
v -12.016000 -3.731000 -10.857000
v -11.516000 -7.052000 -10.857000
v -11.516000 -3.654000 -10.857000
v -11.016000 -7.644000 -10.857000
v -11.016000 -3.706000 -10.857000
v -10.516000 -8.565000 -10.857000
v -10.516000 -3.698000 -10.857000
v -10.016000 -8.871000 -10.857000
v -10.016000 -3.760000 -10.857000
v -9.516000 -8.950000 -10.857000
v -9.516000 -3.881000 -10.857000
v -9.016000 -8.844000 -10.857000
v -9.016000 -4.280000 -10.857000
v -8.516000 -8.492000 -10.857000
v -8.516000 -5.069000 -10.857000
v -12.273000 -5.057000 -14.857000
v -10.705000 -5.057000 -14.857000
v -12.437000 -5.057000 -14.357000
v -10.192000 -5.057000 -14.357000
v -12.314000 -5.057000 -13.857000
v -10.044000 -5.057000 -13.857000
v -12.065000 -5.057000 -13.357000
v -9.925000 -5.057000 -13.357000
v -12.055000 -5.057000 -12.857000
v -9.194000 -5.057000 -12.857000
v -12.220000 -5.057000 -12.357000
v -8.583000 -5.057000 -12.357000
v -12.544000 -5.057000 -11.857000
v -8.470000 -5.057000 -11.857000
v -12.953000 -5.057000 -11.357000
v -8.499000 -5.057000 -11.357000
v -13.285000 -5.057000 -10.857000
v -8.526000 -5.057000 -10.857000
v -13.380000 -5.057000 -10.357000
v -8.565000 -5.057000 -10.357000
v -13.432000 -5.057000 -9.857000
v -8.656000 -5.057000 -9.857000
v -13.378000 -5.057000 -9.357000
v -8.755000 -5.057000 -9.357000
v -13.269000 -5.057000 -8.857000
v -9.113000 -5.057000 -8.857000
v -12.914000 -5.057000 -8.357000
v -10.066000 -5.057000 -8.357000
v -13.016000 -5.057000 -11.292000
v -13.016000 -5.057000 -8.460000
v -12.516000 -5.057000 -11.894000
v -12.516000 -5.057000 -8.107000
v -12.016000 -5.057000 -15.111000
v -12.016000 -5.057000 -7.987000
v -11.516000 -5.057000 -15.269000
v -11.516000 -5.057000 -7.917000
v -11.016000 -5.057000 -15.141000
v -11.016000 -5.057000 -7.873000
v -10.516000 -5.057000 -14.690000
v -10.516000 -5.057000 -8.009000
v -10.016000 -5.057000 -13.660000
v -10.016000 -5.057000 -8.389000
v -9.516000 -5.057000 -12.977000
v -9.516000 -5.057000 -8.618000
v -9.016000 -5.057000 -12.787000
v -9.016000 -5.057000 -8.951000
v -8.516000 -5.057000 -12.197000
v -8.516000 -5.057000 -11.120000
v -12.516000 -7.044000 -14.357000
v -12.516000 -5.136000 -14.357000
v -12.016000 -7.388000 -14.357000
v -12.016000 -4.793000 -14.357000
v -11.516000 -7.499000 -14.357000
v -11.516000 -4.691000 -14.357000
v -11.016000 -7.549000 -14.357000
v -11.016000 -4.723000 -14.357000
v -10.516000 -7.566000 -14.357000
v -10.516000 -4.845000 -14.357000
v -10.016000 -7.423000 -14.357000
v -10.016000 -5.250000 -14.357000
v -13.016000 -6.021000 -10.357000
v -13.016000 -4.138000 -10.357000
v -12.516000 -6.379000 -10.357000
v -12.516000 -3.787000 -10.357000
v -12.016000 -6.621000 -10.357000
v -12.016000 -3.680000 -10.357000
v -11.516000 -7.072000 -10.357000
v -11.516000 -3.659000 -10.357000
v -11.016000 -7.643000 -10.357000
v -11.016000 -3.654000 -10.357000
v -10.516000 -8.574000 -10.357000
v -10.516000 -3.618000 -10.357000
v -10.016000 -8.890000 -10.357000
v -10.016000 -3.670000 -10.357000
v -9.516000 -8.975000 -10.357000
v -9.516000 -3.779000 -10.357000
v -9.016000 -8.875000 -10.357000
v -9.016000 -4.133000 -10.357000
v -8.516000 -8.534000 -10.357000
v -8.516000 -5.152000 -10.357000
v -9.968000 -8.557000 -12.857000
v -9.402000 -8.557000 -12.857000
v -10.413000 -8.557000 -12.357000
v -8.655000 -8.557000 -12.357000
v -10.544000 -8.557000 -11.857000
v -8.515000 -8.557000 -11.857000
v -10.483000 -8.557000 -11.357000
v -8.558000 -8.557000 -11.357000
v -10.524000 -8.557000 -10.857000
v -8.580000 -8.557000 -10.857000
v -10.533000 -8.557000 -10.357000
v -8.539000 -8.557000 -10.357000
v -10.369000 -8.557000 -9.857000
v -8.702000 -8.557000 -9.857000
v -11.722000 -4.557000 -12.357000
v -10.950000 -4.557000 -12.357000
v -12.401000 -4.557000 -11.857000
v -9.490000 -4.557000 -11.857000
v -12.810000 -4.557000 -11.357000
v -9.042000 -4.557000 -11.357000
v -13.176000 -4.557000 -10.857000
v -8.844000 -4.557000 -10.857000
v -13.279000 -4.557000 -10.357000
v -8.754000 -4.557000 -10.357000
v -13.336000 -4.557000 -9.857000
v -8.852000 -4.557000 -9.857000
v -13.278000 -4.557000 -9.357000
v -9.087000 -4.557000 -9.357000
v -13.160000 -4.557000 -8.857000
v -9.759000 -4.557000 -8.857000
v -12.756000 -4.557000 -8.357000
v -11.115000 -4.557000 -8.357000
v -10.516000 -8.557000 -12.079000
v -10.516000 -8.557000 -11.605000
v -10.516000 -8.557000 -11.030000
v -10.516000 -8.557000 -10.217000
v -10.016000 -8.557000 -12.837000
v -10.016000 -8.557000 -9.532000
v -9.516000 -8.557000 -12.880000
v -9.516000 -8.557000 -9.409000
v -9.016000 -8.557000 -12.717000
v -9.016000 -8.557000 -9.555000
v -8.516000 -8.557000 -11.893000
v -8.516000 -8.557000 -11.791000
v -13.016000 -4.557000 -11.134000
v -13.016000 -4.557000 -8.616000
v -12.516000 -4.557000 -11.740000
v -12.516000 -4.557000 -8.216000
v -12.016000 -4.557000 -12.158000
v -12.016000 -4.557000 -8.100000
v -11.516000 -4.557000 -12.464000
v -11.516000 -4.557000 -8.180000
v -11.016000 -4.557000 -12.415000
v -11.016000 -4.557000 -8.425000
v -10.516000 -4.557000 -12.002000
v -10.516000 -4.557000 -8.768000
v -10.016000 -4.557000 -11.878000
v -10.016000 -4.557000 -8.833000
v -9.516000 -4.557000 -11.867000
v -9.516000 -4.557000 -8.945000
v -9.016000 -4.557000 -11.302000
v -9.016000 -4.557000 -9.490000
v -12.516000 -6.923000 -13.857000
v -12.516000 -5.258000 -13.857000
v -12.016000 -7.304000 -13.857000
v -12.016000 -4.879000 -13.857000
v -11.516000 -7.554000 -13.857000
v -11.516000 -4.703000 -13.857000
v -11.016000 -7.802000 -13.857000
v -11.016000 -4.627000 -13.857000
v -10.516000 -7.970000 -13.857000
v -10.516000 -4.736000 -13.857000
v -10.016000 -8.074000 -13.857000
v -10.016000 -5.086000 -13.857000
v -9.516000 -7.927000 -13.857000
v -9.516000 -5.765000 -13.857000
v -13.016000 -6.062000 -9.857000
v -13.016000 -4.070000 -9.857000
v -12.516000 -6.488000 -9.857000
v -12.516000 -3.752000 -9.857000
v -12.016000 -6.852000 -9.857000
v -12.016000 -3.666000 -9.857000
v -11.516000 -7.243000 -9.857000
v -11.516000 -3.685000 -9.857000
v -11.016000 -7.690000 -9.857000
v -11.016000 -3.734000 -9.857000
v -10.516000 -8.411000 -9.857000
v -10.516000 -3.723000 -9.857000
v -10.016000 -8.771000 -9.857000
v -10.016000 -3.762000 -9.857000
v -9.516000 -8.864000 -9.857000
v -9.516000 -3.878000 -9.857000
v -9.016000 -8.754000 -9.857000
v -9.016000 -4.276000 -9.857000
v -8.516000 -8.362000 -9.857000
v -8.516000 -5.534000 -9.857000
v -10.219000 -8.057000 -13.857000
v -9.859000 -8.057000 -13.857000
v -10.912000 -8.057000 -13.357000
v -9.160000 -8.057000 -13.357000
v -11.034000 -8.057000 -12.857000
v -8.662000 -8.057000 -12.857000
v -10.924000 -8.057000 -12.357000
v -8.314000 -8.057000 -12.357000
v -10.853000 -8.057000 -11.857000
v -8.209000 -8.057000 -11.857000
v -10.815000 -8.057000 -11.357000
v -8.203000 -8.057000 -11.357000
v -10.857000 -8.057000 -10.857000
v -8.248000 -8.057000 -10.857000
v -10.850000 -8.057000 -10.357000
v -8.222000 -8.057000 -10.357000
v -10.746000 -8.057000 -9.857000
v -8.342000 -8.057000 -9.857000
v -10.374000 -8.057000 -9.357000
v -8.744000 -8.057000 -9.357000
v -11.663000 -4.057000 -11.857000
v -11.389000 -4.057000 -11.857000
v -12.388000 -4.057000 -11.357000
v -10.148000 -4.057000 -11.357000
v -12.791000 -4.057000 -10.857000
v -9.231000 -4.057000 -10.857000
v -12.936000 -4.057000 -10.357000
v -9.090000 -4.057000 -10.357000
v -13.003000 -4.057000 -9.857000
v -9.228000 -4.057000 -9.857000
v -12.936000 -4.057000 -9.357000
v -10.445000 -4.057000 -9.357000
v -12.770000 -4.057000 -8.857000
v -11.187000 -4.057000 -8.857000
v -11.016000 -8.057000 -13.067000
v -11.016000 -8.057000 -12.690000
v -10.516000 -8.057000 -13.753000
v -10.516000 -8.057000 -9.487000
v -10.016000 -8.057000 -13.874000
v -10.016000 -8.057000 -9.175000
v -9.516000 -8.057000 -13.726000
v -9.516000 -8.057000 -9.093000
v -9.016000 -8.057000 -13.182000
v -9.016000 -8.057000 -9.200000
v -8.516000 -8.057000 -12.690000
v -8.516000 -8.057000 -9.577000
v -12.516000 -4.057000 -11.171000
v -12.516000 -4.057000 -8.605000
v -12.016000 -4.057000 -11.736000
v -12.016000 -4.057000 -8.441000
v -11.516000 -4.057000 -11.867000
v -11.516000 -4.057000 -8.560000
v -11.016000 -4.057000 -11.725000
v -11.016000 -4.057000 -9.047000
v -10.516000 -4.057000 -11.441000
v -10.516000 -4.057000 -9.339000
v -10.016000 -4.057000 -11.326000
v -10.016000 -4.057000 -9.389000
v -9.516000 -4.057000 -11.156000
v -9.516000 -4.057000 -9.554000
v -12.516000 -6.322000 -13.357000
v -12.516000 -5.823000 -13.357000
v -12.016000 -7.096000 -13.357000
v -12.016000 -5.016000 -13.357000
v -11.516000 -7.581000 -13.357000
v -11.516000 -4.723000 -13.357000
v -11.016000 -7.973000 -13.357000
v -11.016000 -4.643000 -13.357000
v -10.516000 -8.299000 -13.357000
v -10.516000 -4.748000 -13.357000
v -10.016000 -8.388000 -13.357000
v -10.016000 -5.010000 -13.357000
v -9.516000 -8.281000 -13.357000
v -9.516000 -5.348000 -13.357000
v -9.016000 -7.920000 -13.357000
v -9.016000 -6.052000 -13.357000
v -13.016000 -6.017000 -9.357000
v -13.016000 -4.139000 -9.357000
v -12.516000 -6.596000 -9.357000
v -12.516000 -3.786000 -9.357000
v -12.016000 -6.980000 -9.357000
v -12.016000 -3.679000 -9.357000
v -11.516000 -7.337000 -9.357000
v -11.516000 -3.744000 -9.357000
v -11.016000 -7.570000 -9.357000
v -11.016000 -3.881000 -9.357000
v -10.516000 -7.934000 -9.357000
v -10.516000 -4.041000 -9.357000
v -10.016000 -8.368000 -9.357000
v -10.016000 -4.089000 -9.357000
v -9.516000 -8.502000 -9.357000
v -9.516000 -4.238000 -9.357000
v -9.016000 -8.343000 -9.357000
v -9.016000 -4.629000 -9.357000
v -10.874000 -7.557000 -14.357000
v -10.397000 -7.557000 -14.357000
v -11.509000 -7.557000 -13.857000
v -9.163000 -7.557000 -13.857000
v -11.539000 -7.557000 -13.357000
v -8.744000 -7.557000 -13.357000
v -11.427000 -7.557000 -12.857000
v -8.357000 -7.557000 -12.857000
v -11.253000 -7.557000 -12.357000
v -8.208000 -7.557000 -12.357000
v -11.086000 -7.557000 -11.857000
v -8.130000 -7.557000 -11.857000
v -11.045000 -7.557000 -11.357000
v -8.096000 -7.557000 -11.357000
v -11.064000 -7.557000 -10.857000
v -8.140000 -7.557000 -10.857000
v -11.064000 -7.557000 -10.357000
v -8.137000 -7.557000 -10.357000
v -11.140000 -7.557000 -9.857000
v -8.248000 -7.557000 -9.857000
v -11.038000 -7.557000 -9.357000
v -8.610000 -7.557000 -9.357000
v -11.516000 -7.557000 -13.816000
v -11.516000 -7.557000 -13.134000
v -11.016000 -7.557000 -14.340000
v -11.016000 -7.557000 -9.305000
v -10.516000 -7.557000 -14.366000
v -10.516000 -7.557000 -8.885000
v -10.016000 -7.557000 -14.254000
v -10.016000 -7.557000 -8.885000
v -9.516000 -7.557000 -14.084000
v -9.516000 -7.557000 -8.966000
v -9.016000 -7.557000 -13.703000
v -9.016000 -7.557000 -9.107000
v -8.516000 -7.557000 -13.121000
v -8.516000 -7.557000 -9.448000
v -12.016000 -6.930000 -12.857000
v -12.016000 -5.013000 -12.857000
v -11.516000 -7.450000 -12.857000
v -11.516000 -4.694000 -12.857000
v -11.016000 -8.075000 -12.857000
v -11.016000 -4.652000 -12.857000
v -10.516000 -8.394000 -12.857000
v -10.516000 -4.787000 -12.857000
v -10.016000 -8.549000 -12.857000
v -10.016000 -4.887000 -12.857000
v -9.516000 -8.574000 -12.857000
v -9.516000 -4.980000 -12.857000
v -9.016000 -8.409000 -12.857000
v -9.016000 -5.126000 -12.857000
v -8.516000 -7.848000 -12.857000
v -8.516000 -5.686000 -12.857000
v -13.016000 -5.846000 -8.857000
v -13.016000 -4.310000 -8.857000
v -12.516000 -6.450000 -8.857000
v -12.516000 -3.904000 -8.857000
v -12.016000 -7.011000 -8.857000
v -12.016000 -3.787000 -8.857000
v -11.516000 -7.334000 -8.857000
v -11.516000 -3.873000 -8.857000
v -11.016000 -7.461000 -8.857000
v -11.016000 -4.195000 -8.857000
v -10.516000 -7.538000 -8.857000
v -10.516000 -4.472000 -8.857000
v -10.016000 -7.515000 -8.857000
v -10.016000 -4.533000 -8.857000
v -9.516000 -7.189000 -8.857000
v -9.516000 -4.649000 -8.857000
v -9.016000 -6.314000 -8.857000
v -9.016000 -5.343000 -8.857000
v -12.353000 -7.057000 -14.857000
v -10.560000 -7.057000 -14.857000
v -12.504000 -7.057000 -14.357000
v -9.669000 -7.057000 -14.357000
v -12.390000 -7.057000 -13.857000
v -9.038000 -7.057000 -13.857000
v -12.063000 -7.057000 -13.357000
v -8.615000 -7.057000 -13.357000
v -11.882000 -7.057000 -12.857000
v -8.260000 -7.057000 -12.857000
v -11.604000 -7.057000 -12.357000
v -8.152000 -7.057000 -12.357000
v -11.561000 -7.057000 -11.857000
v -8.129000 -7.057000 -11.857000
v -11.541000 -7.057000 -11.357000
v -8.101000 -7.057000 -11.357000
v -11.511000 -7.057000 -10.857000
v -8.074000 -7.057000 -10.857000
v -11.532000 -7.057000 -10.357000
v -8.120000 -7.057000 -10.357000
v -11.784000 -7.057000 -9.857000
v -8.224000 -7.057000 -9.857000
v -11.938000 -7.057000 -9.357000
v -8.572000 -7.057000 -9.357000
v -11.968000 -7.057000 -8.857000
v -9.443000 -7.057000 -8.857000
v -11.807000 -7.057000 -8.357000
v -10.207000 -7.057000 -8.357000
v -12.016000 -7.057000 -15.190000
v -12.016000 -7.057000 -13.231000
v -11.516000 -7.057000 -15.336000
v -11.516000 -7.057000 -11.119000
v -11.516000 -7.057000 -10.444000
v -11.516000 -7.057000 -8.080000
v -11.016000 -7.057000 -15.218000
v -11.016000 -7.057000 -7.941000
v -10.516000 -7.057000 -14.827000
v -10.516000 -7.057000 -8.089000
v -10.016000 -7.057000 -14.570000
v -10.016000 -7.057000 -8.508000
v -9.516000 -7.057000 -14.234000
v -9.516000 -7.057000 -8.810000
v -9.016000 -7.057000 -13.835000
v -9.016000 -7.057000 -9.067000
v -8.516000 -7.057000 -13.259000
v -8.516000 -7.057000 -9.412000
v -12.016000 -6.522000 -12.357000
v -12.016000 -4.759000 -12.357000
v -11.516000 -7.153000 -12.357000
v -11.516000 -4.496000 -12.357000
v -11.016000 -7.941000 -12.357000
v -11.016000 -4.534000 -12.357000
v -10.516000 -8.473000 -12.357000
v -10.516000 -4.725000 -12.357000
v -10.016000 -8.800000 -12.357000
v -10.016000 -4.770000 -12.357000
v -9.516000 -8.895000 -12.357000
v -9.516000 -4.715000 -12.357000
v -9.016000 -8.789000 -12.357000
v -9.016000 -4.795000 -12.357000
v -8.516000 -8.410000 -12.357000
v -8.516000 -5.122000 -12.357000
v -12.516000 -5.907000 -8.357000
v -12.516000 -4.312000 -8.357000
v -12.016000 -6.859000 -8.357000
v -12.016000 -4.143000 -8.357000
v -11.516000 -7.224000 -8.357000
v -11.516000 -4.265000 -8.357000
v -11.016000 -7.321000 -8.357000
v -11.016000 -4.615000 -8.357000
v -10.516000 -7.224000 -8.357000
v -10.516000 -4.827000 -8.357000
v -10.016000 -6.906000 -8.357000
v -10.016000 -5.096000 -8.357000
f 133 1 37
f 37 1 117
f 117 1 79
f 117 79 195
f 195 79 157
f 157 134 195
f 41 135 37
f 37 135 133
f 37 119 41
f 37 117 119
f 117 197 119
f 117 195 197
f 195 134 197
f 197 134 136
f 43 137 41
f 41 137 135
f 41 121 43
f 41 119 121
f 119 199 121
f 119 197 199
f 197 136 199
f 199 136 138
f 43 2 137
f 2 43 80
f 80 43 121
f 80 121 158
f 158 121 199
f 199 138 158
f 139 173 193
f 193 173 55
f 173 253 55
f 173 255 253
f 56 253 367
f 253 339 367
f 253 255 339
f 339 140 367
f 141 95 57
f 57 95 93
f 95 139 193
f 171 95 193
f 93 95 171
f 193 55 171
f 367 337 56
f 140 439 465
f 140 465 58
f 367 140 58
f 337 367 58
f 439 142 465
f 143 595 59
f 59 595 593
f 595 15 593
f 17 15 595
f 57 15 17
f 57 17 141
f 465 437 58
f 465 142 437
f 142 60 437
f 142 144 60
f 145 523 61
f 61 523 521
f 59 521 523
f 59 523 143
f 438 469 62
f 438 60 469
f 60 146 469
f 60 144 146
f 354 325 63
f 147 427 354
f 427 325 354
f 427 425 325
f 61 425 427
f 61 427 145
f 471 64 62
f 471 62 469
f 469 146 471
f 471 146 148
f 354 63 327
f 63 149 327
f 63 65 149
f 147 354 327
f 64 471 440
f 150 64 440
f 66 64 150
f 471 148 440
f 151 65 67
f 151 149 65
f 66 152 68
f 150 152 66
f 153 67 69
f 153 151 67
f 340 154 70
f 340 70 338
f 338 68 340
f 340 68 152
f 328 153 364
f 153 71 364
f 153 69 71
f 155 328 364
f 70 156 72
f 154 156 70
f 326 364 71
f 364 326 155
f 326 428 155
f 326 426 428
f 522 428 426
f 522 524 428
f 594 524 522
f 594 596 524
f 16 596 594
f 16 18 596
f 94 18 16
f 94 96 18
f 172 96 94
f 172 174 96
f 254 174 172
f 254 256 174
f 254 72 256
f 256 72 156
f 42 31 73
f 120 109 42
f 42 109 31
f 198 187 120
f 120 187 109
f 198 74 187
f 75 44 73
f 73 44 42
f 122 42 44
f 120 42 122
f 200 120 122
f 198 120 200
f 74 198 76
f 76 198 200
f 77 46 75
f 75 46 44
f 124 44 46
f 122 44 124
f 202 122 124
f 200 122 202
f 76 200 78
f 78 200 202
f 32 46 77
f 110 124 32
f 32 124 46
f 188 202 110
f 110 202 124
f 78 202 188
f 211 3 33
f 33 3 113
f 113 3 81
f 113 81 191
f 191 81 159
f 159 212 191
f 213 581 609
f 211 33 581
f 581 33 609
f 33 1 609
f 1 133 609
f 113 79 1
f 113 1 33
f 191 157 79
f 191 79 113
f 212 241 273
f 212 273 134
f 191 212 134
f 157 191 134
f 241 214 273
f 611 215 609
f 609 215 213
f 609 133 135
f 609 135 611
f 275 136 134
f 275 134 273
f 273 214 275
f 275 214 216
f 615 217 611
f 611 217 215
f 611 135 137
f 611 137 615
f 277 138 136
f 277 136 275
f 275 216 277
f 277 216 218
f 615 582 217
f 45 219 2
f 2 219 137
f 219 582 137
f 582 615 137
f 80 123 45
f 80 45 2
f 158 201 123
f 158 123 80
f 277 242 138
f 138 242 158
f 242 220 158
f 220 201 158
f 277 218 242
f 45 4 219
f 4 45 82
f 82 45 123
f 82 123 160
f 160 123 201
f 201 220 160
f 221 175 189
f 189 175 269
f 269 175 257
f 269 257 365
f 365 257 341
f 341 222 365
f 223 97 115
f 221 189 97
f 97 189 115
f 189 173 115
f 173 139 115
f 269 255 173
f 269 173 189
f 365 339 255
f 365 255 269
f 222 441 463
f 222 463 140
f 365 222 140
f 339 365 140
f 441 224 463
f 95 141 115
f 141 223 115
f 141 225 223
f 115 139 95
f 463 439 140
f 463 224 439
f 224 142 439
f 224 226 142
f 612 595 143
f 227 19 612
f 19 595 612
f 19 17 595
f 141 17 19
f 141 19 225
f 142 228 144
f 226 228 142
f 229 525 145
f 145 525 523
f 597 612 143
f 523 597 143
f 525 597 523
f 227 612 597
f 144 230 146
f 228 230 144
f 231 329 355
f 355 329 147
f 329 427 147
f 329 429 427
f 145 427 429
f 145 429 229
f 146 232 148
f 230 232 146
f 327 149 355
f 149 231 355
f 149 233 231
f 355 147 327
f 440 473 150
f 440 148 473
f 148 234 473
f 148 232 234
f 235 149 151
f 235 233 149
f 475 152 150
f 475 150 473
f 473 234 475
f 475 234 236
f 237 151 153
f 237 235 151
f 340 381 154
f 475 442 152
f 152 442 340
f 442 238 340
f 238 381 340
f 475 236 442
f 153 328 237
f 237 328 330
f 239 330 328
f 239 328 155
f 258 240 288
f 342 258 288
f 154 342 288
f 156 154 288
f 342 154 381
f 381 238 342
f 155 428 239
f 239 428 430
f 524 430 428
f 524 526 430
f 596 526 524
f 596 598 526
f 18 598 596
f 18 20 598
f 96 20 18
f 96 98 20
f 174 98 96
f 174 176 98
f 240 176 288
f 176 256 288
f 176 174 256
f 156 288 256
f 289 5 211
f 211 5 3
f 5 81 3
f 83 81 5
f 83 159 81
f 161 159 83
f 161 290 159
f 159 290 212
f 291 583 213
f 213 583 581
f 211 581 583
f 211 583 289
f 241 212 290
f 241 290 243
f 243 292 241
f 241 292 214
f 293 213 215
f 293 291 213
f 214 294 216
f 292 294 214
f 295 215 217
f 295 293 215
f 216 296 218
f 294 296 216
f 297 511 537
f 617 537 582
f 537 295 582
f 295 217 582
f 537 511 295
f 219 617 582
f 242 279 220
f 242 218 279
f 218 298 279
f 218 296 298
f 537 512 297
f 512 537 299
f 537 619 299
f 537 617 619
f 617 219 4
f 47 617 4
f 619 617 47
f 82 125 47
f 82 47 4
f 160 203 125
f 160 125 82
f 279 244 220
f 220 244 160
f 244 300 160
f 300 203 160
f 279 298 244
f 619 584 299
f 584 619 6
f 6 619 47
f 6 47 84
f 84 47 125
f 84 125 162
f 162 125 203
f 203 300 162
f 301 177 221
f 221 177 175
f 177 257 175
f 259 257 177
f 259 341 257
f 343 341 259
f 343 302 341
f 341 302 222
f 303 99 223
f 223 99 97
f 221 97 99
f 221 99 301
f 441 222 302
f 441 302 443
f 443 304 441
f 441 304 224
f 305 21 39
f 225 39 21
f 303 225 21
f 223 225 303
f 224 306 226
f 304 306 224
f 307 599 613
f 305 39 599
f 599 39 613
f 39 19 613
f 19 227 613
f 39 225 19
f 226 308 228
f 306 308 226
f 309 527 229
f 229 527 525
f 527 307 613
f 597 527 613
f 525 527 597
f 613 227 597
f 228 310 230
f 308 310 228
f 311 331 231
f 231 331 329
f 331 429 329
f 431 429 331
f 229 429 431
f 229 431 309
f 230 312 232
f 310 312 230
f 313 231 233
f 313 311 231
f 232 314 234
f 312 314 232
f 315 233 235
f 315 313 233
f 234 316 236
f 314 316 234
f 317 235 237
f 317 315 235
f 444 318 238
f 444 238 442
f 442 236 444
f 444 236 316
f 237 330 317
f 317 330 332
f 319 332 330
f 319 330 239
f 260 320 240
f 260 240 258
f 342 260 258
f 342 344 260
f 342 238 344
f 344 238 318
f 239 430 319
f 319 430 432
f 526 432 430
f 526 528 432
f 598 528 526
f 598 600 528
f 20 600 598
f 20 22 600
f 98 22 20
f 98 100 22
f 176 100 98
f 176 178 100
f 176 240 178
f 178 240 320
f 383 7 289
f 289 7 5
f 7 83 5
f 85 83 7
f 85 161 83
f 163 161 85
f 163 384 161
f 161 384 290
f 385 585 291
f 291 585 583
f 289 583 585
f 289 585 383
f 243 290 384
f 243 384 245
f 245 386 243
f 243 386 292
f 387 291 293
f 387 385 291
f 292 388 294
f 386 388 292
f 389 513 535
f 295 535 513
f 387 295 513
f 293 295 387
f 294 390 296
f 388 390 294
f 511 297 535
f 297 389 535
f 297 391 389
f 535 295 511
f 296 392 298
f 390 392 296
f 393 417 455
f 539 455 512
f 455 391 512
f 391 297 512
f 455 417 391
f 299 539 512
f 246 394 300
f 246 300 244
f 244 298 246
f 246 298 392
f 455 418 393
f 418 455 395
f 455 541 395
f 455 539 541
f 539 299 584
f 621 539 584
f 541 539 621
f 6 49 621
f 6 621 584
f 84 127 49
f 84 49 6
f 164 396 127
f 84 164 127
f 162 164 84
f 162 300 164
f 164 300 394
f 541 514 395
f 514 541 586
f 586 541 621
f 586 621 8
f 8 621 49
f 8 49 86
f 86 49 127
f 127 396 86
f 397 101 111
f 111 101 301
f 101 177 301
f 101 179 177
f 179 259 177
f 261 259 179
f 261 343 259
f 345 343 261
f 345 398 343
f 343 398 302
f 99 303 111
f 303 397 111
f 303 399 397
f 111 301 99
f 443 302 398
f 443 398 445
f 445 400 443
f 443 400 304
f 401 23 305
f 305 23 21
f 303 21 23
f 303 23 399
f 304 402 306
f 400 402 304
f 403 601 307
f 307 601 599
f 305 599 601
f 305 601 401
f 306 404 308
f 402 404 306
f 405 529 309
f 309 529 527
f 307 527 529
f 307 529 403
f 308 406 310
f 404 406 308
f 356 331 311
f 407 433 356
f 433 331 356
f 433 431 331
f 309 431 433
f 309 433 405
f 310 408 312
f 406 408 310
f 356 311 333
f 311 409 333
f 311 313 409
f 407 356 333
f 312 410 314
f 408 410 312
f 411 313 315
f 411 409 313
f 314 412 316
f 410 412 314
f 413 315 317
f 413 411 315
f 446 414 318
f 446 318 444
f 444 316 446
f 446 316 412
f 317 332 413
f 413 332 334
f 415 334 332
f 415 332 319
f 262 416 320
f 262 320 260
f 344 262 260
f 344 346 262
f 344 318 346
f 346 318 414
f 319 432 415
f 415 432 434
f 528 434 432
f 528 530 434
f 600 530 528
f 600 602 530
f 22 602 600
f 22 24 602
f 100 24 22
f 100 102 24
f 178 102 100
f 178 180 102
f 178 320 180
f 180 320 416
f 34 7 383
f 477 87 34
f 87 7 34
f 87 85 7
f 192 163 478
f 163 87 478
f 163 85 87
f 192 384 163
f 479 587 385
f 385 587 585
f 9 34 383
f 585 9 383
f 587 9 585
f 477 34 9
f 165 192 478
f 245 384 192
f 165 245 192
f 247 245 165
f 247 480 245
f 245 480 386
f 481 515 533
f 387 533 515
f 479 387 515
f 385 387 479
f 386 482 388
f 480 482 386
f 513 389 533
f 389 481 533
f 389 483 481
f 533 387 513
f 388 484 390
f 482 484 388
f 485 419 453
f 391 453 419
f 483 391 419
f 389 391 483
f 390 486 392
f 484 486 390
f 417 393 453
f 393 485 453
f 393 487 485
f 453 391 417
f 246 281 394
f 246 392 281
f 392 488 281
f 392 486 488
f 457 489 418
f 489 393 418
f 489 487 393
f 395 457 418
f 164 205 396
f 281 248 394
f 394 248 164
f 248 490 164
f 490 205 164
f 281 488 248
f 457 420 489
f 543 491 514
f 514 491 395
f 491 420 395
f 420 457 395
f 586 623 543
f 586 543 514
f 8 51 623
f 8 623 586
f 86 129 51
f 86 51 8
f 205 166 396
f 396 166 86
f 166 492 86
f 492 129 86
f 205 490 166
f 543 516 491
f 516 543 588
f 588 543 623
f 588 623 10
f 10 623 51
f 10 51 88
f 88 51 129
f 129 492 88
f 112 101 397
f 493 181 112
f 181 101 112
f 181 179 101
f 181 261 179
f 263 261 181
f 263 345 261
f 347 345 263
f 347 494 345
f 345 494 398
f 495 25 35
f 25 103 35
f 103 397 35
f 397 399 35
f 397 103 112
f 493 112 103
f 445 398 494
f 445 494 447
f 447 496 445
f 445 496 400
f 23 401 35
f 401 495 35
f 401 497 495
f 35 399 23
f 400 498 402
f 496 498 400
f 499 603 403
f 403 603 601
f 401 601 603
f 401 603 497
f 402 500 404
f 498 500 402
f 501 531 405
f 405 531 529
f 403 529 531
f 403 531 499
f 404 502 406
f 500 502 404
f 454 433 407
f 405 433 454
f 503 405 454
f 501 405 503
f 406 504 408
f 502 504 406
f 358 333 409
f 435 454 407
f 435 407 333
f 505 435 333
f 358 505 333
f 503 454 435
f 448 506 474
f 474 410 448
f 410 504 448
f 410 408 504
f 411 360 409
f 409 360 358
f 505 358 360
f 505 360 507
f 508 476 474
f 508 474 506
f 410 474 412
f 412 474 476
f 413 362 411
f 411 362 360
f 507 360 362
f 507 362 509
f 348 510 382
f 476 508 348
f 476 348 382
f 446 476 382
f 414 446 382
f 412 476 446
f 334 362 413
f 436 509 462
f 462 509 415
f 509 362 415
f 362 334 415
f 436 462 546
f 436 546 532
f 532 546 626
f 532 626 604
f 604 626 54
f 604 54 26
f 26 54 132
f 26 132 104
f 104 132 210
f 104 210 182
f 182 210 416
f 262 182 416
f 264 182 262
f 510 264 382
f 264 346 382
f 264 262 346
f 414 382 346
f 434 462 415
f 530 546 434
f 434 546 462
f 602 626 530
f 530 626 546
f 24 54 602
f 602 54 626
f 102 132 24
f 24 132 54
f 180 210 102
f 102 210 132
f 416 210 180
f 114 87 477
f 114 478 87
f 610 587 479
f 547 11 610
f 11 587 610
f 11 9 587
f 89 114 477
f 9 89 477
f 11 89 9
f 165 478 114
f 89 165 114
f 167 165 89
f 167 247 165
f 249 247 167
f 249 548 247
f 247 548 480
f 534 515 481
f 589 610 479
f 589 479 515
f 549 589 515
f 534 549 515
f 547 610 589
f 480 550 482
f 548 550 480
f 551 421 451
f 421 517 451
f 517 481 451
f 481 483 451
f 481 517 534
f 549 534 517
f 482 552 484
f 550 552 482
f 419 485 451
f 485 551 451
f 485 553 551
f 451 483 419
f 484 554 486
f 552 554 484
f 555 485 487
f 555 553 485
f 486 556 488
f 554 556 486
f 557 321 359
f 489 359 321
f 555 489 321
f 487 489 555
f 248 283 490
f 248 488 283
f 488 558 283
f 488 556 558
f 359 322 557
f 459 559 420
f 420 559 489
f 559 322 489
f 322 359 489
f 491 459 420
f 166 207 492
f 283 250 490
f 490 250 166
f 250 560 166
f 560 207 166
f 283 558 250
f 459 422 559
f 545 561 516
f 516 561 491
f 561 422 491
f 422 459 491
f 588 625 545
f 588 545 516
f 10 53 625
f 10 625 588
f 88 131 53
f 88 53 10
f 207 168 492
f 492 168 88
f 168 562 88
f 562 131 88
f 207 560 168
f 545 518 561
f 518 545 590
f 590 545 625
f 590 625 12
f 12 625 53
f 12 53 90
f 90 53 131
f 131 562 90
f 563 183 493
f 493 183 181
f 183 263 181
f 265 263 183
f 265 347 263
f 349 347 265
f 349 564 347
f 347 564 494
f 36 25 495
f 565 105 36
f 105 25 36
f 105 103 25
f 493 103 105
f 493 105 563
f 447 494 564
f 447 564 449
f 449 566 447
f 447 566 496
f 36 495 27
f 495 567 27
f 495 497 567
f 565 36 27
f 496 568 498
f 566 568 496
f 569 605 499
f 499 605 603
f 497 603 605
f 497 605 567
f 498 570 500
f 568 570 498
f 536 531 501
f 499 531 536
f 571 499 536
f 569 499 571
f 450 572 470
f 470 502 450
f 502 570 450
f 502 500 570
f 503 538 501
f 501 538 536
f 571 536 538
f 571 538 573
f 574 472 470
f 574 470 572
f 502 470 504
f 504 470 472
f 456 435 505
f 435 456 503
f 456 538 503
f 456 540 538
f 573 538 540
f 573 540 575
f 506 448 472
f 574 506 472
f 576 506 574
f 504 472 448
f 507 458 505
f 505 458 456
f 542 456 458
f 540 456 542
f 575 540 542
f 575 542 577
f 350 578 380
f 380 508 350
f 508 576 350
f 508 506 576
f 509 460 507
f 507 460 458
f 544 458 460
f 542 458 544
f 624 606 577
f 542 624 577
f 544 624 542
f 606 624 52
f 606 52 28
f 579 28 52
f 266 580 286
f 380 578 266
f 380 266 286
f 348 380 286
f 510 348 286
f 508 380 348
f 436 460 509
f 532 544 436
f 436 544 460
f 604 624 532
f 532 624 544
f 26 52 604
f 604 52 624
f 52 26 579
f 26 106 579
f 26 104 106
f 182 106 104
f 182 184 106
f 580 184 286
f 184 264 286
f 184 182 264
f 510 286 264
f 38 11 547
f 627 91 38
f 91 11 38
f 91 89 11
f 91 167 89
f 169 167 91
f 169 249 167
f 251 249 169
f 251 628 249
f 249 628 548
f 629 591 549
f 549 591 589
f 13 38 547
f 589 13 547
f 591 13 589
f 627 38 13
f 628 335 371
f 550 628 371
f 548 628 550
f 335 630 371
f 452 421 551
f 631 519 452
f 519 421 452
f 519 517 421
f 549 517 519
f 549 519 629
f 373 552 550
f 373 550 371
f 371 630 373
f 373 630 632
f 452 551 423
f 551 633 423
f 551 553 633
f 631 452 423
f 552 373 336
f 634 552 336
f 554 552 634
f 373 632 336
f 635 323 357
f 555 357 323
f 633 555 323
f 553 555 633
f 554 636 556
f 634 636 554
f 321 557 357
f 557 635 357
f 557 637 635
f 357 555 321
f 556 638 558
f 636 638 556
f 361 639 322
f 639 557 322
f 639 637 557
f 559 361 322
f 250 285 560
f 250 558 285
f 558 640 285
f 558 638 640
f 361 324 639
f 461 641 422
f 422 641 559
f 641 324 559
f 324 361 559
f 561 461 422
f 168 209 562
f 285 252 560
f 560 252 168
f 252 642 168
f 642 209 168
f 285 640 252
f 461 424 641
f 561 518 461
f 518 424 461
f 518 520 424
f 590 520 518
f 590 592 520
f 12 592 590
f 12 14 592
f 90 14 12
f 90 92 14
f 209 170 562
f 170 90 562
f 170 92 90
f 209 642 170
f 190 183 563
f 270 265 190
f 190 265 183
f 366 349 270
f 270 349 265
f 366 564 349
f 116 105 565
f 185 190 563
f 185 563 105
f 643 185 105
f 116 643 105
f 190 185 267
f 190 267 270
f 270 267 351
f 270 351 366
f 644 464 449
f 644 449 564
f 351 644 564
f 366 351 564
f 464 566 449
f 645 29 567
f 567 29 27
f 107 116 565
f 27 107 565
f 29 107 27
f 643 116 107
f 646 466 464
f 646 464 644
f 566 464 568
f 568 464 466
f 647 607 569
f 569 607 605
f 567 605 607
f 567 607 645
f 648 468 466
f 648 466 646
f 568 466 570
f 570 466 468
f 649 569 571
f 649 647 569
f 352 650 374
f 468 648 352
f 468 352 374
f 450 468 374
f 572 450 374
f 570 468 450
f 651 571 573
f 651 649 571
f 652 376 374
f 652 374 650
f 572 374 574
f 574 374 376
f 608 651 620
f 651 575 620
f 651 573 575
f 653 608 620
f 268 654 282
f 376 652 268
f 282 376 268
f 378 376 282
f 574 376 576
f 576 376 378
f 577 622 575
f 575 622 620
f 50 30 653
f 620 50 653
f 622 50 620
f 30 50 128
f 30 128 108
f 108 128 206
f 108 206 186
f 282 654 186
f 206 282 186
f 284 282 206
f 350 378 578
f 378 284 578
f 378 282 284
f 576 378 350
f 606 622 577
f 28 50 606
f 606 50 622
f 579 130 28
f 130 50 28
f 130 128 50
f 208 128 130
f 206 128 208
f 266 284 580
f 284 208 580
f 284 206 208
f 578 284 266
f 106 130 579
f 184 208 106
f 106 208 130
f 580 208 184
f 55 253 271
f 253 56 271
f 57 93 627
f 627 93 91
f 93 169 91
f 171 169 93
f 171 55 271
f 251 171 271
f 169 171 251
f 56 337 369
f 56 369 628
f 271 56 628
f 251 271 628
f 337 58 369
f 59 593 629
f 629 593 591
f 593 13 591
f 15 13 593
f 627 13 15
f 627 15 57
f 369 335 628
f 58 437 467
f 58 467 630
f 369 58 630
f 335 369 630
f 437 60 467
f 61 521 631
f 631 521 519
f 629 519 521
f 629 521 59
f 630 467 438
f 62 630 438
f 632 630 62
f 467 60 438
f 63 325 353
f 353 325 633
f 325 423 633
f 325 425 423
f 631 423 425
f 631 425 61
f 336 375 634
f 336 632 375
f 632 64 375
f 632 62 64
f 323 635 353
f 635 63 353
f 635 65 63
f 353 633 323
f 377 636 634
f 377 634 375
f 375 64 377
f 377 64 66
f 67 635 637
f 67 65 635
f 379 638 636
f 379 636 377
f 377 66 379
f 379 66 68
f 69 637 639
f 69 67 637
f 638 379 338
f 70 638 338
f 640 638 70
f 379 68 338
f 363 71 324
f 71 639 324
f 71 69 639
f 641 363 324
f 252 287 642
f 252 640 287
f 640 72 287
f 640 70 72
f 363 326 71
f 641 424 363
f 424 326 363
f 424 426 326
f 520 426 424
f 520 522 426
f 592 522 520
f 592 594 522
f 14 594 592
f 14 16 594
f 92 16 14
f 92 94 16
f 170 94 92
f 170 172 94
f 287 254 642
f 254 170 642
f 254 172 170
f 287 72 254
f 194 185 643
f 272 267 194
f 194 267 185
f 368 351 272
f 272 351 267
f 368 644 351
f 40 29 645
f 118 107 40
f 40 107 29
f 107 118 643
f 118 194 643
f 118 196 194
f 274 194 196
f 272 194 274
f 370 272 274
f 368 272 370
f 644 368 646
f 646 368 370
f 614 607 647
f 31 40 645
f 31 645 607
f 73 31 607
f 614 73 607
f 40 31 109
f 40 109 118
f 118 109 187
f 118 187 196
f 196 187 74
f 276 196 74
f 274 196 276
f 372 274 276
f 370 274 372
f 646 370 648
f 648 370 372
f 649 616 647
f 647 616 614
f 73 614 616
f 73 616 75
f 76 278 276
f 76 276 74
f 352 372 650
f 372 278 650
f 372 276 278
f 648 372 352
f 651 618 649
f 649 618 616
f 75 616 618
f 75 618 77
f 78 280 278
f 78 278 76
f 650 278 652
f 652 278 280
f 608 618 651
f 32 77 48
f 48 77 653
f 77 618 653
f 618 608 653
f 32 48 126
f 32 126 110
f 110 126 204
f 110 204 188
f 280 78 188
f 280 188 204
f 268 280 204
f 654 268 204
f 652 280 268
f 30 48 653
f 108 126 30
f 30 126 48
f 186 204 108
f 108 204 126
f 654 204 186
