# Converted from NanoShaper .vert/.face
v -5.832000 9.877000 -6.967000
v -3.558000 9.877000 -6.967000
v -6.581000 9.877000 -6.467000
v -3.043000 9.877000 -6.467000
v -7.679000 9.877000 -5.967000
v -2.853000 9.877000 -5.967000
v -8.259000 9.877000 -5.467000
v -2.834000 9.877000 -5.467000
v -8.447000 9.877000 -4.967000
v -2.733000 9.877000 -4.967000
v -8.430000 9.877000 -4.467000
v -2.420000 9.877000 -4.467000
v -8.198000 9.877000 -3.967000
v -1.794000 9.877000 -3.967000
v -7.632000 9.877000 -3.467000
v -1.094000 9.877000 -3.467000
v -6.897000 9.877000 -2.967000
v -0.858000 9.877000 -2.967000
v -6.719000 9.877000 -2.467000
v -0.834000 9.877000 -2.467000
v -6.681000 9.877000 -1.967000
v -0.837000 9.877000 -1.967000
v -6.623000 9.877000 -1.467000
v -1.025000 9.877000 -1.467000
v -6.236000 9.877000 -0.967000
v -1.611000 9.877000 -0.967000
v -5.862000 9.877000 -0.467000
v -2.665000 9.877000 -0.467000
v -5.209000 9.877000 0.033000
v -3.076000 9.877000 0.033000
v -4.401000 9.877000 0.533000
v -3.865000 9.877000 0.533000
v -4.347000 13.877000 -8.467000
v -2.554000 13.877000 -8.467000
v -4.735000 13.877000 -7.967000
v -2.005000 13.877000 -7.967000
v -4.938000 13.877000 -7.467000
v -1.815000 13.877000 -7.467000
v -5.001000 13.877000 -6.967000
v -1.765000 13.877000 -6.967000
v -5.159000 13.877000 -6.467000
v -1.769000 13.877000 -6.467000
v -5.206000 13.877000 -5.967000
v -1.968000 13.877000 -5.967000
v -5.373000 13.877000 -5.467000
v -2.512000 13.877000 -5.467000
v -5.639000 13.877000 -4.967000
v -3.190000 13.877000 -4.967000
v -5.848000 13.877000 -4.467000
v -3.570000 13.877000 -4.467000
v -6.143000 13.877000 -3.967000
v -3.643000 13.877000 -3.967000
v -6.144000 13.877000 -3.467000
v -3.644000 13.877000 -3.467000
v -6.096000 13.877000 -2.967000
v -3.703000 13.877000 -2.967000
v -5.832000 13.877000 -2.467000
v -4.021000 13.877000 -2.467000
v -8.424000 9.877000 -5.081000
v -8.424000 9.877000 -4.440000
v -7.924000 9.877000 -5.825000
v -7.924000 9.877000 -3.695000
v -7.424000 9.877000 -6.053000
v -7.424000 9.877000 -3.316000
v -6.924000 9.877000 -6.308000
v -6.924000 9.877000 -2.997000
v -6.424000 9.877000 -6.536000
v -6.424000 9.877000 -1.164000
v -5.924000 9.877000 -6.877000
v -5.924000 9.877000 -0.526000
v -5.424000 9.877000 -7.183000
v -5.424000 9.877000 -0.158000
v -4.924000 9.877000 -7.201000
v -4.924000 9.877000 0.298000
v -4.424000 9.877000 -7.173000
v -4.424000 9.877000 0.528000
v -3.924000 9.877000 -7.124000
v -3.924000 9.877000 0.544000
v -3.424000 9.877000 -6.873000
v -3.424000 9.877000 0.355000
v -2.924000 9.877000 -6.231000
v -2.924000 9.877000 -0.192000
v -2.424000 9.877000 -4.472000
v -2.424000 9.877000 -0.638000
v -1.924000 9.877000 -4.047000
v -1.924000 9.877000 -0.872000
v -1.424000 9.877000 -3.771000
v -1.424000 9.877000 -1.066000
v -0.924000 9.877000 -3.172000
v -0.924000 9.877000 -1.661000
v -5.924000 13.877000 -4.373000
v -5.924000 13.877000 -2.590000
v -5.424000 13.877000 -5.391000
v -5.424000 13.877000 -2.229000
v -4.924000 13.877000 -7.532000
v -4.924000 13.877000 -2.239000
v -4.424000 13.877000 -8.388000
v -4.424000 13.877000 -2.260000
v -3.924000 13.877000 -8.701000
v -3.924000 13.877000 -2.561000
v -3.424000 13.877000 -8.740000
v -3.424000 13.877000 -4.718000
v -2.924000 13.877000 -8.627000
v -2.924000 13.877000 -5.183000
v -2.424000 13.877000 -8.392000
v -2.424000 13.877000 -5.523000
v -1.924000 13.877000 -7.818000
v -1.924000 13.877000 -6.039000
v -7.424000 9.690000 -5.967000
v -7.424000 11.133000 -5.967000
v -6.924000 9.418000 -5.967000
v -6.924000 12.017000 -5.967000
v -6.424000 9.210000 -5.967000
v -6.424000 12.548000 -5.967000
v -5.924000 9.216000 -5.967000
v -5.924000 13.057000 -5.967000
v -5.424000 9.214000 -5.967000
v -5.424000 13.619000 -5.967000
v -4.924000 9.116000 -5.967000
v -4.924000 14.112000 -5.967000
v -4.424000 8.981000 -5.967000
v -4.424000 14.559000 -5.967000
v -3.924000 8.975000 -5.967000
v -3.924000 14.793000 -5.967000
v -3.424000 9.179000 -5.967000
v -3.424000 15.007000 -5.967000
v -2.924000 9.720000 -5.967000
v -2.924000 15.019000 -5.967000
v -2.424000 11.769000 -5.967000
v -2.424000 14.794000 -5.967000
v -7.924000 10.784000 -1.967000
v -7.924000 11.922000 -1.967000
v -7.424000 10.194000 -1.967000
v -7.424000 12.547000 -1.967000
v -6.924000 9.980000 -1.967000
v -6.924000 13.051000 -1.967000
v -6.424000 9.719000 -1.967000
v -6.424000 13.510000 -1.967000
v -5.924000 9.498000 -1.967000
v -5.924000 13.702000 -1.967000
v -5.424000 9.201000 -1.967000
v -5.424000 13.737000 -1.967000
v -4.924000 8.873000 -1.967000
v -4.924000 13.657000 -1.967000
v -4.424000 8.600000 -1.967000
v -4.424000 13.478000 -1.967000
v -3.924000 8.356000 -1.967000
v -3.924000 12.963000 -1.967000
v -3.424000 8.181000 -1.967000
v -3.424000 12.678000 -1.967000
v -2.924000 8.165000 -1.967000
v -2.924000 12.532000 -1.967000
v -2.424000 8.253000 -1.967000
v -2.424000 12.311000 -1.967000
v -1.924000 8.474000 -1.967000
v -1.924000 12.056000 -1.967000
v -1.424000 9.089000 -1.967000
v -1.424000 11.577000 -1.967000
v -0.924000 9.691000 -1.967000
v -0.924000 11.048000 -1.967000
v -5.841000 10.377000 -7.467000
v -3.841000 10.377000 -7.467000
v -6.263000 10.377000 -6.967000
v -3.115000 10.377000 -6.967000
v -6.847000 10.377000 -6.467000
v -2.888000 10.377000 -6.467000
v -7.853000 10.377000 -5.967000
v -2.763000 10.377000 -5.967000
v -8.352000 10.377000 -5.467000
v -2.740000 10.377000 -5.467000
v -8.528000 10.377000 -4.967000
v -2.630000 10.377000 -4.967000
v -8.512000 10.377000 -4.467000
v -2.334000 10.377000 -4.467000
v -8.297000 10.377000 -3.967000
v -1.591000 10.377000 -3.967000
v -7.933000 10.377000 -3.467000
v -0.974000 10.377000 -3.467000
v -7.705000 10.377000 -2.967000
v -0.759000 10.377000 -2.967000
v -7.645000 10.377000 -2.467000
v -0.739000 10.377000 -2.467000
v -7.645000 10.377000 -1.967000
v -0.746000 10.377000 -1.967000
v -7.652000 10.377000 -1.467000
v -0.921000 10.377000 -1.467000
v -7.385000 10.377000 -0.967000
v -1.414000 10.377000 -0.967000
v -6.391000 10.377000 -0.467000
v -2.539000 10.377000 -0.467000
v -5.627000 10.377000 0.033000
v -2.982000 10.377000 0.033000
v -4.660000 10.377000 0.533000
v -3.606000 10.377000 0.533000
v -3.608000 14.377000 -8.467000
v -2.796000 14.377000 -8.467000
v -4.317000 14.377000 -7.967000
v -2.125000 14.377000 -7.967000
v -4.590000 14.377000 -7.467000
v -1.916000 14.377000 -7.467000
v -4.623000 14.377000 -6.967000
v -1.865000 14.377000 -6.967000
v -4.672000 14.377000 -6.467000
v -1.868000 14.377000 -6.467000
v -4.658000 14.377000 -5.967000
v -2.085000 14.377000 -5.967000
v -4.489000 14.377000 -5.467000
v -2.805000 14.377000 -5.467000
v -8.424000 10.377000 -5.326000
v -8.424000 10.377000 -4.195000
v -7.924000 10.377000 -5.923000
v -7.924000 10.377000 -3.452000
v -7.424000 10.377000 -6.140000
v -7.424000 10.377000 -1.009000
v -6.924000 10.377000 -6.414000
v -6.924000 10.377000 -0.702000
v -6.424000 10.377000 -6.802000
v -6.424000 10.377000 -0.488000
v -5.924000 10.377000 -7.388000
v -5.924000 10.377000 -0.107000
v -5.424000 10.377000 -7.690000
v -5.424000 10.377000 0.111000
v -4.924000 10.377000 -7.686000
v -4.924000 10.377000 0.391000
v -4.424000 10.377000 -7.544000
v -4.424000 10.377000 0.605000
v -3.924000 10.377000 -7.486000
v -3.924000 10.377000 0.620000
v -3.424000 10.377000 -7.274000
v -3.424000 10.377000 0.443000
v -2.924000 10.377000 -6.577000
v -2.924000 10.377000 -0.056000
v -2.424000 10.377000 -4.582000
v -2.424000 10.377000 -0.548000
v -1.924000 10.377000 -4.127000
v -1.924000 10.377000 -0.779000
v -1.424000 10.377000 -3.884000
v -1.424000 10.377000 -0.961000
v -0.924000 10.377000 -3.388000
v -0.924000 10.377000 -1.461000
v -4.424000 14.377000 -7.828000
v -4.424000 14.377000 -5.370000
v -3.924000 14.377000 -8.318000
v -3.924000 14.377000 -5.203000
v -3.424000 14.377000 -8.512000
v -3.424000 14.377000 -5.287000
v -2.924000 14.377000 -8.502000
v -2.924000 14.377000 -5.434000
v -2.424000 14.377000 -8.275000
v -2.424000 14.377000 -5.640000
v -1.924000 14.377000 -7.508000
v -1.924000 14.377000 -6.271000
v -7.924000 9.420000 -5.467000
v -7.924000 11.267000 -5.467000
v -7.424000 9.168000 -5.467000
v -7.424000 11.694000 -5.467000
v -6.924000 9.109000 -5.467000
v -6.924000 12.297000 -5.467000
v -6.424000 9.004000 -5.467000
v -6.424000 12.752000 -5.467000
v -5.924000 8.991000 -5.467000
v -5.924000 13.297000 -5.467000
v -5.424000 8.899000 -5.467000
v -5.424000 13.834000 -5.467000
v -4.924000 8.707000 -5.467000
v -4.924000 14.170000 -5.467000
v -4.424000 8.667000 -5.467000
v -4.424000 14.401000 -5.467000
v -3.924000 8.659000 -5.467000
v -3.924000 14.536000 -5.467000
v -3.424000 8.883000 -5.467000
v -3.424000 14.549000 -5.467000
v -2.924000 9.584000 -5.467000
v -2.924000 14.441000 -5.467000
v -7.924000 10.759000 -1.467000
v -7.924000 11.959000 -1.467000
v -7.424000 10.193000 -1.467000
v -7.424000 12.536000 -1.467000
v -6.924000 9.992000 -1.467000
v -6.924000 13.007000 -1.467000
v -6.424000 9.760000 -1.467000
v -6.424000 13.298000 -1.467000
v -5.924000 9.529000 -1.467000
v -5.924000 13.522000 -1.467000
v -5.424000 9.167000 -1.467000
v -5.424000 13.517000 -1.467000
v -4.924000 8.701000 -1.467000
v -4.924000 13.275000 -1.467000
v -4.424000 8.521000 -1.467000
v -4.424000 12.775000 -1.467000
v -3.924000 8.467000 -1.467000
v -3.924000 12.301000 -1.467000
v -3.424000 8.492000 -1.467000
v -3.424000 12.103000 -1.467000
v -2.924000 8.598000 -1.467000
v -2.924000 12.091000 -1.467000
v -2.424000 8.802000 -1.467000
v -2.424000 12.059000 -1.467000
v -1.924000 9.108000 -1.467000
v -1.924000 11.812000 -1.467000
v -1.424000 9.387000 -1.467000
v -1.424000 11.352000 -1.467000
v -0.924000 10.278000 -1.467000
v -0.924000 10.461000 -1.467000
v -5.630000 10.877000 -7.967000
v -4.734000 10.877000 -7.967000
v -6.269000 10.877000 -7.467000
v -3.415000 10.877000 -7.467000
v -6.514000 10.877000 -6.967000
v -2.961000 10.877000 -6.967000
v -6.874000 10.877000 -6.467000
v -2.784000 10.877000 -6.467000
v -7.620000 10.877000 -5.967000
v -2.760000 10.877000 -5.967000
v -8.229000 10.877000 -5.467000
v -2.720000 10.877000 -5.467000
v -8.422000 10.877000 -4.967000
v -2.547000 10.877000 -4.967000
v -8.405000 10.877000 -4.467000
v -2.277000 10.877000 -4.467000
v -8.177000 10.877000 -3.967000
v -1.763000 10.877000 -3.967000
v -7.964000 10.877000 -3.467000
v -1.083000 10.877000 -3.467000
v -7.895000 10.877000 -2.967000
v -0.849000 10.877000 -2.967000
v -7.942000 10.877000 -2.467000
v -0.830000 10.877000 -2.467000
v -7.962000 10.877000 -1.967000
v -0.842000 10.877000 -1.967000
v -7.974000 10.877000 -1.467000
v -1.032000 10.877000 -1.467000
v -7.787000 10.877000 -0.967000
v -1.624000 10.877000 -0.967000
v -7.209000 10.877000 -0.467000
v -2.722000 10.877000 -0.467000
v -5.864000 10.877000 0.033000
v -3.118000 10.877000 0.033000
v -3.845000 14.877000 -7.967000
v -2.558000 14.877000 -7.967000
v -4.155000 14.877000 -7.467000
v -2.248000 14.877000 -7.467000
v -4.153000 14.877000 -6.967000
v -2.207000 14.877000 -6.967000
v -4.076000 14.877000 -6.467000
v -2.214000 14.877000 -6.467000
v -3.750000 14.877000 -5.967000
v -2.546000 14.877000 -5.967000
v -7.924000 10.877000 -5.794000
v -7.924000 10.877000 -3.293000
v -7.924000 10.877000 -2.580000
v -7.924000 10.877000 -1.258000
v -7.424000 10.877000 -6.068000
v -7.424000 10.877000 -0.588000
v -6.924000 10.877000 -6.420000
v -6.924000 10.877000 -0.377000
v -6.424000 10.877000 -7.160000
v -6.424000 10.877000 -0.261000
v -5.924000 10.877000 -7.816000
v -5.924000 10.877000 0.000000
v -5.424000 10.877000 -8.023000
v -5.424000 10.877000 0.175000
v -4.924000 10.877000 -8.020000
v -4.924000 10.877000 0.303000
v -4.424000 10.877000 -7.818000
v -4.424000 10.877000 0.493000
v -3.924000 10.877000 -7.665000
v -3.924000 10.877000 0.510000
v -3.424000 10.877000 -7.474000
v -3.424000 10.877000 0.314000
v -2.924000 10.877000 -6.900000
v -2.924000 10.877000 -0.251000
v -2.424000 10.877000 -4.730000
v -2.424000 10.877000 -0.679000
v -1.924000 10.877000 -4.079000
v -1.924000 10.877000 -0.880000
v -1.424000 10.877000 -3.781000
v -1.424000 10.877000 -1.073000
v -0.924000 10.877000 -3.195000
v -0.924000 10.877000 -1.675000
v -3.924000 14.877000 -7.891000
v -3.924000 14.877000 -6.145000
v -3.424000 14.877000 -8.181000
v -3.424000 14.877000 -5.800000
v -2.924000 14.877000 -8.166000
v -2.924000 14.877000 -5.784000
v -2.424000 14.877000 -7.825000
v -2.424000 14.877000 -6.082000
v -3.924000 12.201000 -8.967000
v -3.924000 13.534000 -8.967000
v -3.424000 12.207000 -8.967000
v -3.424000 13.528000 -8.967000
v -8.424000 9.816000 -4.967000
v -8.424000 10.871000 -4.967000
v -7.924000 9.200000 -4.967000
v -7.924000 11.493000 -4.967000
v -7.424000 8.988000 -4.967000
v -7.424000 11.994000 -4.967000
v -6.924000 8.976000 -4.967000
v -6.924000 12.516000 -4.967000
v -6.424000 8.977000 -4.967000
v -6.424000 13.022000 -4.967000
v -5.924000 8.918000 -4.967000
v -5.924000 13.546000 -4.967000
v -5.424000 8.720000 -4.967000
v -5.424000 14.050000 -4.967000
v -4.924000 8.521000 -4.967000
v -4.924000 14.252000 -4.967000
v -4.424000 8.476000 -4.967000
v -4.424000 14.303000 -4.967000
v -3.924000 8.467000 -4.967000
v -3.924000 14.256000 -4.967000
v -3.424000 8.653000 -4.967000
v -3.424000 14.079000 -4.967000
v -2.924000 9.180000 -4.967000
v -2.924000 13.494000 -4.967000
v -7.424000 10.406000 -0.967000
v -7.424000 12.312000 -0.967000
v -6.924000 10.173000 -0.967000
v -6.924000 12.739000 -0.967000
v -6.424000 9.999000 -0.967000
v -6.424000 12.983000 -0.967000
v -5.924000 9.681000 -0.967000
v -5.924000 13.085000 -0.967000
v -5.424000 9.213000 -0.967000
v -5.424000 13.084000 -0.967000
v -4.924000 8.709000 -0.967000
v -4.924000 12.840000 -0.967000
v -4.424000 8.528000 -0.967000
v -4.424000 12.257000 -0.967000
v -3.924000 8.544000 -0.967000
v -3.924000 11.879000 -0.967000
v -3.424000 8.708000 -0.967000
v -3.424000 11.727000 -0.967000
v -2.924000 8.939000 -0.967000
v -2.924000 11.645000 -0.967000
v -2.424000 9.410000 -0.967000
v -2.424000 11.482000 -0.967000
v -1.924000 9.680000 -0.967000
v -1.924000 11.066000 -0.967000
v -1.424000 10.252000 -0.967000
v -1.424000 10.487000 -0.967000
v -5.850000 11.377000 -7.967000
v -3.536000 11.377000 -7.967000
v -6.377000 11.377000 -7.467000
v -3.048000 11.377000 -7.467000
v -6.585000 11.377000 -6.967000
v -2.722000 11.377000 -6.967000
v -6.897000 11.377000 -6.467000
v -2.642000 11.377000 -6.467000
v -7.269000 11.377000 -5.967000
v -2.626000 11.377000 -5.967000
v -7.774000 11.377000 -5.467000
v -2.624000 11.377000 -5.467000
v -8.066000 11.377000 -4.967000
v -2.545000 11.377000 -4.967000
v -8.057000 11.377000 -4.467000
v -2.417000 11.377000 -4.467000
v -7.956000 11.377000 -3.967000
v -2.100000 11.377000 -3.967000
v -7.852000 11.377000 -3.467000
v -1.527000 11.377000 -3.467000
v -7.890000 11.377000 -2.967000
v -1.181000 11.377000 -2.967000
v -8.020000 11.377000 -2.467000
v -1.156000 11.377000 -2.467000
v -8.046000 11.377000 -1.967000
v -1.180000 11.377000 -1.967000
v -8.061000 11.377000 -1.467000
v -1.459000 11.377000 -1.467000
v -7.887000 11.377000 -0.967000
v -2.265000 11.377000 -0.967000
v -7.394000 11.377000 -0.467000
v -3.192000 11.377000 -0.467000
v -5.623000 11.377000 0.033000
v -3.647000 11.377000 0.033000
v -7.924000 11.377000 -5.294000
v -7.924000 11.377000 -3.845000
v -7.924000 11.377000 -2.838000
v -7.924000 11.377000 -1.035000
v -7.424000 11.377000 -5.791000
v -7.424000 11.377000 -0.485000
v -6.924000 11.377000 -6.427000
v -6.924000 11.377000 -0.290000
v -6.424000 11.377000 -7.383000
v -6.424000 11.377000 -0.243000
v -5.924000 11.377000 -7.924000
v -5.924000 11.377000 -0.099000
v -5.424000 11.377000 -8.116000
v -5.424000 11.377000 0.080000
v -4.924000 11.377000 -8.155000
v -4.924000 11.377000 0.090000
v -4.424000 11.377000 -8.141000
v -4.424000 11.377000 0.130000
v -3.924000 11.377000 -8.040000
v -3.924000 11.377000 0.146000
v -3.424000 11.377000 -7.907000
v -3.424000 11.377000 -0.157000
v -2.924000 11.377000 -7.305000
v -2.924000 11.377000 -0.690000
v -2.424000 11.377000 -4.484000
v -2.424000 11.377000 -0.917000
v -1.924000 11.377000 -3.778000
v -1.924000 11.377000 -1.129000
v -1.424000 11.377000 -3.372000
v -1.424000 11.377000 -1.502000
v -4.424000 11.835000 -8.467000
v -4.424000 13.822000 -8.467000
v -3.924000 11.679000 -8.467000
v -3.924000 14.150000 -8.467000
v -3.424000 11.687000 -8.467000
v -3.424000 14.481000 -8.467000
v -2.924000 11.927000 -8.467000
v -2.924000 14.458000 -8.467000
v -8.424000 9.859000 -4.467000
v -8.424000 10.828000 -4.467000
v -7.924000 9.219000 -4.467000
v -7.924000 11.535000 -4.467000
v -7.424000 9.004000 -4.467000
v -7.424000 12.077000 -4.467000
v -6.924000 8.992000 -4.467000
v -6.924000 12.569000 -4.467000
v -6.424000 8.988000 -4.467000
v -6.424000 13.176000 -4.467000
v -5.924000 8.907000 -4.467000
v -5.924000 13.816000 -4.467000
v -5.424000 8.703000 -4.467000
v -5.424000 14.114000 -4.467000
v -4.924000 8.509000 -4.467000
v -4.924000 14.252000 -4.467000
v -4.424000 8.470000 -4.467000
v -4.424000 14.255000 -4.467000
v -3.924000 8.466000 -4.467000
v -3.924000 14.104000 -4.467000
v -3.424000 8.599000 -4.467000
v -3.424000 13.716000 -4.467000
v -2.924000 8.879000 -4.467000
v -2.924000 13.062000 -4.467000
v -2.424000 9.819000 -4.467000
v -2.424000 11.398000 -4.467000
v -6.924000 10.684000 -0.467000
v -6.924000 12.034000 -0.467000
v -6.424000 10.405000 -0.467000
v -6.424000 12.332000 -0.467000
v -5.924000 9.919000 -0.467000
v -5.924000 12.515000 -0.467000
v -5.424000 9.534000 -0.467000
v -5.424000 12.517000 -0.467000
v -4.924000 8.955000 -0.467000
v -4.924000 12.125000 -0.467000
v -4.424000 8.735000 -0.467000
v -4.424000 11.848000 -0.467000
v -3.924000 8.753000 -0.467000
v -3.924000 11.693000 -0.467000
v -3.424000 9.024000 -0.467000
v -3.424000 11.513000 -0.467000
v -2.924000 9.542000 -0.467000
v -2.924000 11.133000 -0.467000
v -4.489000 11.877000 -8.467000
v -2.991000 11.877000 -8.467000
v -5.625000 11.877000 -7.967000
v -2.716000 11.877000 -7.967000
v -6.265000 11.877000 -7.467000
v -2.587000 11.877000 -7.467000
v -6.479000 11.877000 -6.967000
v -2.395000 11.877000 -6.967000
v -6.769000 11.877000 -6.467000
v -2.372000 11.877000 -6.467000
v -6.999000 11.877000 -5.967000
v -2.380000 11.877000 -5.967000
v -7.264000 11.877000 -5.467000
v -2.507000 11.877000 -5.467000
v -7.546000 11.877000 -4.967000
v -2.612000 11.877000 -4.967000
v -7.643000 11.877000 -4.467000
v -2.607000 11.877000 -4.467000
v -7.634000 11.877000 -3.967000
v -2.406000 11.877000 -3.967000
v -7.592000 11.877000 -3.467000
v -2.029000 11.877000 -3.467000
v -7.733000 11.877000 -2.967000
v -1.722000 11.877000 -2.967000
v -7.910000 11.877000 -2.467000
v -1.687000 11.877000 -2.467000
v -7.943000 11.877000 -1.967000
v -1.705000 11.877000 -1.967000
v -7.960000 11.877000 -1.467000
v -2.008000 11.877000 -1.467000
v -7.771000 11.877000 -0.967000
v -3.918000 11.877000 -0.967000
v -7.175000 11.877000 -0.467000
v -4.499000 11.877000 -0.467000
v -7.924000 11.877000 -2.342000
v -7.924000 11.877000 -1.304000
v -7.424000 11.877000 -5.233000
v -7.424000 11.877000 -0.604000
v -6.924000 11.877000 -6.189000
v -6.924000 11.877000 -0.391000
v -6.424000 11.877000 -7.142000
v -6.424000 11.877000 -0.361000
v -5.924000 11.877000 -7.812000
v -5.924000 11.877000 -0.294000
v -5.424000 11.877000 -8.051000
v -5.424000 11.877000 -0.203000
v -4.924000 11.877000 -8.267000
v -4.924000 11.877000 -0.273000
v -4.424000 11.877000 -8.498000
v -4.424000 11.877000 -0.504000
v -3.924000 11.877000 -8.719000
v -3.924000 11.877000 -0.962000
v -3.424000 11.877000 -8.714000
v -3.424000 11.877000 -1.209000
v -2.924000 11.877000 -8.394000
v -2.924000 11.877000 -1.230000
v -2.424000 11.877000 -7.070000
v -2.424000 11.877000 -5.775000
v -2.424000 11.877000 -4.000000
v -2.424000 11.877000 -1.243000
v -1.924000 11.877000 -3.332000
v -1.924000 11.877000 -1.552000
v -5.424000 10.750000 -7.967000
v -5.424000 12.152000 -7.967000
v -4.924000 10.756000 -7.967000
v -4.924000 13.487000 -7.967000
v -4.424000 11.116000 -7.967000
v -4.424000 14.272000 -7.967000
v -3.924000 11.309000 -7.967000
v -3.924000 14.821000 -7.967000
v -3.424000 11.418000 -7.967000
v -3.424000 15.045000 -7.967000
v -2.924000 11.707000 -7.967000
v -2.924000 15.033000 -7.967000
v -2.424000 12.283000 -7.967000
v -2.424000 14.775000 -7.967000
v -7.924000 9.494000 -3.967000
v -7.924000 11.455000 -3.967000
v -7.424000 9.225000 -3.967000
v -7.424000 12.077000 -3.967000
v -6.924000 9.206000 -3.967000
v -6.924000 12.592000 -3.967000
v -6.424000 9.187000 -3.967000
v -6.424000 13.505000 -3.967000
v -5.924000 9.021000 -3.967000
v -5.924000 14.044000 -3.967000
v -5.424000 8.695000 -3.967000
v -5.424000 14.232000 -3.967000
v -4.924000 8.506000 -3.967000
v -4.924000 14.264000 -3.967000
v -4.424000 8.496000 -3.967000
v -4.424000 14.272000 -3.967000
v -3.924000 8.475000 -3.967000
v -3.924000 14.090000 -3.967000
v -3.424000 8.461000 -3.967000
v -3.424000 13.604000 -3.967000
v -2.924000 8.561000 -3.967000
v -2.924000 13.023000 -3.967000
v -2.424000 8.721000 -3.967000
v -2.424000 11.917000 -3.967000
v -1.924000 9.542000 -3.967000
v -1.924000 11.098000 -3.967000
v -5.424000 10.169000 0.033000
v -5.424000 11.485000 0.033000
v -4.924000 9.496000 0.033000
v -4.924000 11.474000 0.033000
v -4.424000 9.213000 0.033000
v -4.424000 11.465000 0.033000
v -3.924000 9.200000 0.033000
v -3.924000 11.465000 0.033000
v -3.424000 9.425000 0.033000
v -3.424000 11.240000 0.033000
v -3.961000 8.377000 -3.467000
v -2.006000 8.377000 -3.467000
v -4.137000 8.377000 -2.967000
v -1.702000 8.377000 -2.967000
v -4.126000 8.377000 -2.467000
v -1.716000 8.377000 -2.467000
v -3.973000 8.377000 -1.967000
v -2.073000 8.377000 -1.967000
v -4.194000 12.377000 -8.967000
v -3.171000 12.377000 -8.967000
v -4.819000 12.377000 -8.467000
v -2.579000 12.377000 -8.467000
v -5.309000 12.377000 -7.967000
v -2.370000 12.377000 -7.967000
v -5.830000 12.377000 -7.467000
v -2.223000 12.377000 -7.467000
v -6.130000 12.377000 -6.967000
v -2.133000 12.377000 -6.967000
v -6.325000 12.377000 -6.467000
v -2.138000 12.377000 -6.467000
v -6.632000 12.377000 -5.967000
v -2.257000 12.377000 -5.967000
v -6.825000 12.377000 -5.467000
v -2.469000 12.377000 -5.467000
v -7.093000 12.377000 -4.967000
v -2.679000 12.377000 -4.967000
v -7.158000 12.377000 -4.467000
v -2.708000 12.377000 -4.467000
v -7.159000 12.377000 -3.967000
v -2.562000 12.377000 -3.967000
v -7.172000 12.377000 -3.467000
v -2.372000 12.377000 -3.467000
v -7.322000 12.377000 -2.967000
v -2.271000 12.377000 -2.967000
v -7.551000 12.377000 -2.467000
v -2.259000 12.377000 -2.467000
v -7.593000 12.377000 -1.967000
v -2.548000 12.377000 -1.967000
v -7.615000 12.377000 -1.467000
v -4.017000 12.377000 -1.467000
v -7.333000 12.377000 -0.967000
v -4.539000 12.377000 -0.967000
v -6.300000 12.377000 -0.467000
v -5.213000 12.377000 -0.467000
v -3.924000 8.377000 -3.503000
v -3.924000 8.377000 -1.887000
v -3.424000 8.377000 -3.773000
v -3.424000 8.377000 -1.665000
v -2.924000 8.377000 -3.702000
v -2.924000 8.377000 -1.704000
v -2.424000 8.377000 -3.677000
v -2.424000 8.377000 -1.810000
v -1.924000 8.377000 -3.387000
v -1.924000 8.377000 -2.100000
v -7.424000 12.377000 -2.794000
v -7.424000 12.377000 -1.065000
v -6.924000 12.377000 -5.336000
v -6.924000 12.377000 -0.678000
v -6.424000 12.377000 -6.340000
v -6.424000 12.377000 -0.484000
v -5.924000 12.377000 -7.371000
v -5.924000 12.377000 -0.409000
v -5.424000 12.377000 -7.853000
v -5.424000 12.377000 -0.408000
v -4.924000 12.377000 -8.358000
v -4.924000 12.377000 -0.613000
v -4.424000 12.377000 -8.841000
v -4.424000 12.377000 -1.099000
v -3.924000 12.377000 -9.049000
v -3.924000 12.377000 -1.526000
v -3.424000 12.377000 -9.045000
v -3.424000 12.377000 -1.707000
v -2.924000 12.377000 -8.829000
v -2.924000 12.377000 -1.760000
v -2.424000 12.377000 -8.131000
v -2.424000 12.377000 -5.554000
v -2.424000 12.377000 -3.642000
v -2.424000 12.377000 -2.103000
v -5.924000 10.436000 -7.467000
v -5.924000 12.309000 -7.467000
v -5.424000 10.187000 -7.467000
v -5.424000 12.768000 -7.467000
v -4.924000 10.170000 -7.467000
v -4.924000 13.909000 -7.467000
v -4.424000 10.263000 -7.467000
v -4.424000 14.549000 -7.467000
v -3.924000 10.335000 -7.467000
v -3.924000 15.055000 -7.467000
v -3.424000 10.864000 -7.467000
v -3.424000 15.241000 -7.467000
v -2.924000 11.506000 -7.467000
v -2.924000 15.231000 -7.467000
v -2.424000 12.142000 -7.467000
v -2.424000 15.019000 -7.467000
v -1.924000 12.752000 -7.467000
v -1.924000 14.398000 -7.467000
v -7.924000 10.344000 -3.467000
v -7.924000 11.073000 -3.467000
v -7.424000 9.739000 -3.467000
v -7.424000 12.067000 -3.467000
v -6.924000 9.589000 -3.467000
v -6.924000 12.664000 -3.467000
v -6.424000 9.488000 -3.467000
v -6.424000 13.520000 -3.467000
v -5.924000 9.311000 -3.467000
v -5.924000 14.047000 -3.467000
v -5.424000 8.905000 -3.467000
v -5.424000 14.243000 -3.467000
v -4.924000 8.677000 -3.467000
v -4.924000 14.280000 -3.467000
v -4.424000 8.521000 -3.467000
v -4.424000 14.282000 -3.467000
v -3.924000 8.365000 -3.467000
v -3.924000 14.099000 -3.467000
v -3.424000 8.207000 -3.467000
v -3.424000 13.623000 -3.467000
v -2.924000 8.191000 -3.467000
v -2.924000 13.079000 -3.467000
v -2.424000 8.218000 -3.467000
v -2.424000 12.482000 -3.467000
v -1.924000 8.432000 -3.467000
v -1.924000 11.769000 -3.467000
v -1.424000 9.277000 -3.467000
v -1.424000 11.302000 -3.467000
v -4.424000 9.891000 0.533000
v -4.424000 10.774000 0.533000
v -3.924000 9.847000 0.533000
v -3.924000 10.818000 0.533000
v -5.364000 8.877000 -5.467000
v -3.432000 8.877000 -5.467000
v -5.768000 8.877000 -4.967000
v -3.148000 8.877000 -4.967000
v -5.817000 8.877000 -4.467000
v -2.927000 8.877000 -4.467000
v -5.681000 8.877000 -3.967000
v -2.193000 8.877000 -3.967000
v -5.383000 8.877000 -3.467000
v -1.553000 8.877000 -3.467000
v -4.878000 8.877000 -2.967000
v -1.352000 8.877000 -2.967000
v -4.750000 8.877000 -2.467000
v -1.363000 8.877000 -2.467000
v -4.931000 8.877000 -1.967000
v -1.582000 8.877000 -1.967000
v -5.157000 8.877000 -1.467000
v -2.318000 8.877000 -1.467000
v -5.147000 8.877000 -0.967000
v -3.017000 8.877000 -0.967000
v -4.807000 8.877000 -0.467000
v -3.624000 8.877000 -0.467000
v -4.392000 12.877000 -8.967000
v -2.974000 12.877000 -8.967000
v -4.891000 12.877000 -8.467000
v -2.462000 12.877000 -8.467000
v -5.123000 12.877000 -7.967000
v -2.061000 12.877000 -7.967000
v -5.337000 12.877000 -7.467000
v -1.863000 12.877000 -7.467000
v -5.572000 12.877000 -6.967000
v -1.829000 12.877000 -6.967000
v -5.812000 12.877000 -6.467000
v -1.848000 12.877000 -6.467000
v -6.116000 12.877000 -5.967000
v -2.083000 12.877000 -5.967000
v -6.303000 12.877000 -5.467000
v -2.446000 12.877000 -5.467000
v -6.568000 12.877000 -4.967000
v -2.729000 12.877000 -4.967000
v -6.630000 12.877000 -4.467000
v -2.850000 12.877000 -4.467000
v -6.706000 12.877000 -3.967000
v -2.825000 12.877000 -3.967000
v -6.767000 12.877000 -3.467000
v -2.700000 12.877000 -3.467000
v -6.954000 12.877000 -2.967000
v -2.709000 12.877000 -2.967000
v -7.117000 12.877000 -2.467000
v -3.000000 12.877000 -2.467000
v -7.127000 12.877000 -1.967000
v -3.816000 12.877000 -1.967000
v -7.095000 12.877000 -1.467000
v -4.548000 12.877000 -1.467000
v -6.719000 12.877000 -0.967000
v -4.971000 12.877000 -0.967000
v -5.424000 8.877000 -5.426000
v -5.424000 8.877000 -3.511000
v -4.924000 8.877000 -5.688000
v -4.924000 8.877000 -3.029000
v -4.924000 8.877000 -1.980000
v -4.924000 8.877000 -0.573000
v -4.424000 8.877000 -5.765000
v -4.424000 8.877000 -0.288000
v -3.924000 8.877000 -5.776000
v -3.924000 8.877000 -0.310000
v -3.424000 8.877000 -5.459000
v -3.424000 8.877000 -0.664000
v -2.924000 8.877000 -4.462000
v -2.924000 8.877000 -1.058000
v -2.424000 8.877000 -4.072000
v -2.424000 8.877000 -1.416000
v -1.924000 8.877000 -3.832000
v -1.924000 8.877000 -1.644000
v -1.424000 8.877000 -3.221000
v -1.424000 8.877000 -2.265000
v -6.924000 12.877000 -3.047000
v -6.924000 12.877000 -1.153000
v -6.424000 12.877000 -5.281000
v -6.424000 12.877000 -0.834000
v -5.924000 12.877000 -6.323000
v -5.924000 12.877000 -0.720000
v -5.424000 12.877000 -7.301000
v -5.424000 12.877000 -0.719000
v -4.924000 12.877000 -8.407000
v -4.924000 12.877000 -1.015000
v -4.424000 12.877000 -8.947000
v -4.424000 12.877000 -1.574000
v -3.924000 12.877000 -9.139000
v -3.924000 12.877000 -1.919000
v -3.424000 12.877000 -9.136000
v -3.424000 12.877000 -2.119000
v -2.924000 12.877000 -8.936000
v -2.924000 12.877000 -2.569000
v -2.424000 12.877000 -8.419000
v -2.424000 12.877000 -5.502000
v -1.924000 12.877000 -7.697000
v -1.924000 12.877000 -6.238000
v -6.424000 10.627000 -6.967000
v -6.424000 11.990000 -6.967000
v -5.924000 9.946000 -6.967000
v -5.924000 12.540000 -6.967000
v -5.424000 9.700000 -6.967000
v -5.424000 13.077000 -6.967000
v -4.924000 9.687000 -6.967000
v -4.924000 13.989000 -6.967000
v -4.424000 9.657000 -6.967000
v -4.424000 14.576000 -6.967000
v -3.924000 9.685000 -6.967000
v -3.924000 15.053000 -6.967000
v -3.424000 9.990000 -6.967000
v -3.424000 15.242000 -6.967000
v -2.924000 10.988000 -6.967000
v -2.924000 15.239000 -6.967000
v -2.424000 11.814000 -6.967000
v -2.424000 15.044000 -6.967000
v -1.924000 12.668000 -6.967000
v -1.924000 14.504000 -6.967000
v -7.424000 10.088000 -2.967000
v -7.424000 12.268000 -2.967000
v -6.924000 9.887000 -2.967000
v -6.924000 12.924000 -2.967000
v -6.424000 9.629000 -2.967000
v -6.424000 13.521000 -2.967000
v -5.924000 9.431000 -2.967000
v -5.924000 14.017000 -2.967000
v -5.424000 9.103000 -2.967000
v -5.424000 14.231000 -2.967000
v -4.924000 8.893000 -2.967000
v -4.924000 14.256000 -2.967000
v -4.424000 8.606000 -2.967000
v -4.424000 14.249000 -2.967000
v -3.924000 8.216000 -2.967000
v -3.924000 14.053000 -2.967000
v -3.424000 7.998000 -2.967000
v -3.424000 13.572000 -2.967000
v -2.924000 7.984000 -2.967000
v -2.924000 13.067000 -2.967000
v -2.424000 8.033000 -2.967000
v -2.424000 12.548000 -2.967000
v -1.924000 8.212000 -2.967000
v -1.924000 12.039000 -2.967000
v -1.424000 8.727000 -2.967000
v -1.424000 11.573000 -2.967000
v -0.924000 9.737000 -2.967000
v -0.924000 11.039000 -2.967000
v -4.907000 9.377000 -6.467000
v -3.456000 9.377000 -6.467000
v -6.853000 9.377000 -5.967000
v -3.181000 9.377000 -5.967000
v -7.869000 9.377000 -5.467000
v -3.019000 9.377000 -5.467000
v -8.135000 9.377000 -4.967000
v -2.833000 9.377000 -4.967000
v -8.112000 9.377000 -4.467000
v -2.542000 9.377000 -4.467000
v -7.772000 9.377000 -3.967000
v -1.944000 9.377000 -3.967000
v -6.047000 9.377000 -3.467000
v -1.388000 9.377000 -3.467000
v -5.813000 9.377000 -2.967000
v -1.156000 9.377000 -2.967000
v -5.758000 9.377000 -2.467000
v -1.135000 9.377000 -2.467000
v -5.672000 9.377000 -1.967000
v -1.165000 9.377000 -1.967000
v -5.669000 9.377000 -1.467000
v -1.438000 9.377000 -1.467000
v -5.570000 9.377000 -0.967000
v -2.466000 9.377000 -0.967000
v -5.284000 9.377000 -0.467000
v -3.055000 9.377000 -0.467000
v -4.775000 9.377000 0.033000
v -3.491000 9.377000 0.033000
v -4.176000 13.377000 -8.967000
v -3.189000 13.377000 -8.967000
v -4.778000 13.377000 -8.467000
v -2.434000 13.377000 -8.467000
v -4.970000 13.377000 -7.967000
v -1.932000 13.377000 -7.967000
v -5.078000 13.377000 -7.467000
v -1.752000 13.377000 -7.467000
v -5.254000 13.377000 -6.967000
v -1.743000 13.377000 -6.967000
v -5.488000 13.377000 -6.467000
v -1.766000 13.377000 -6.467000
v -5.651000 13.377000 -5.967000
v -1.984000 13.377000 -5.967000
v -5.834000 13.377000 -5.467000
v -2.495000 13.377000 -5.467000
v -6.113000 13.377000 -4.967000
v -2.877000 13.377000 -4.967000
v -6.297000 13.377000 -4.467000
v -3.113000 13.377000 -4.467000
v -6.482000 13.377000 -3.967000
v -3.214000 13.377000 -3.967000
v -6.511000 13.377000 -3.467000
v -3.184000 13.377000 -3.467000
v -6.570000 13.377000 -2.967000
v -3.200000 13.377000 -2.967000
v -6.601000 13.377000 -2.467000
v -3.520000 13.377000 -2.467000
v -6.602000 13.377000 -1.967000
v -4.283000 13.377000 -1.967000
v -6.302000 13.377000 -1.467000
v -5.070000 13.377000 -1.467000
v -7.924000 9.377000 -5.405000
v -7.924000 9.377000 -4.116000
v -7.424000 9.377000 -5.733000
v -7.424000 9.377000 -3.788000
v -6.924000 9.377000 -5.918000
v -6.924000 9.377000 -3.747000
v -6.424000 9.377000 -6.171000
v -6.424000 9.377000 -3.690000
v -5.924000 9.377000 -6.181000
v -5.924000 9.377000 -3.289000
v -5.424000 9.377000 -6.226000
v -5.424000 9.377000 -0.655000
v -4.924000 9.377000 -6.455000
v -4.924000 9.377000 -0.094000
v -4.424000 9.377000 -6.710000
v -4.424000 9.377000 0.217000
v -3.924000 9.377000 -6.724000
v -3.924000 9.377000 0.238000
v -3.424000 9.377000 -6.434000
v -3.424000 9.377000 -0.026000
v -2.924000 9.377000 -5.240000
v -2.924000 9.377000 -0.593000
v -2.424000 9.377000 -4.347000
v -2.424000 9.377000 -0.995000
v -1.924000 9.377000 -3.953000
v -1.924000 9.377000 -1.204000
v -1.424000 9.377000 -3.515000
v -1.424000 9.377000 -1.481000
v -6.424000 13.377000 -4.175000
v -6.424000 13.377000 -1.595000
v -5.924000 13.377000 -5.339000
v -5.924000 13.377000 -1.267000
v -5.424000 13.377000 -6.641000
v -5.424000 13.377000 -1.274000
v -4.924000 13.377000 -8.160000
v -4.924000 13.377000 -1.601000
v -4.424000 13.377000 -8.833000
v -4.424000 13.377000 -1.907000
v -3.924000 13.377000 -9.042000
v -3.924000 13.377000 -2.143000
v -3.424000 13.377000 -9.038000
v -3.424000 13.377000 -2.568000
v -2.924000 13.377000 -8.821000
v -2.924000 13.377000 -4.885000
v -2.424000 13.377000 -8.461000
v -2.424000 13.377000 -5.536000
v -1.924000 13.377000 -7.954000
v -1.924000 13.377000 -6.061000
v -6.424000 9.765000 -6.467000
v -6.424000 12.298000 -6.467000
v -5.924000 9.577000 -6.467000
v -5.924000 12.765000 -6.467000
v -5.424000 9.483000 -6.467000
v -5.424000 13.502000 -6.467000
v -4.924000 9.382000 -6.467000
v -4.924000 14.091000 -6.467000
v -4.424000 9.191000 -6.467000
v -4.424000 14.580000 -6.467000
v -3.924000 9.180000 -6.467000
v -3.924000 14.997000 -6.467000
v -3.424000 9.400000 -6.467000
v -3.424000 15.210000 -6.467000
v -2.924000 10.248000 -6.467000
v -2.924000 15.221000 -6.467000
v -2.424000 11.763000 -6.467000
v -2.424000 15.035000 -6.467000
v -1.924000 12.705000 -6.467000
v -1.924000 14.498000 -6.467000
v -7.924000 10.828000 -2.467000
v -7.924000 11.843000 -2.467000
v -7.424000 10.182000 -2.467000
v -7.424000 12.516000 -2.467000
v -6.924000 9.963000 -2.467000
v -6.924000 13.042000 -2.467000
v -6.424000 9.692000 -2.467000
v -6.424000 13.509000 -2.467000
v -5.924000 9.461000 -2.467000
v -5.924000 13.830000 -2.467000
v -5.424000 9.153000 -2.467000
v -5.424000 14.035000 -2.467000
v -4.924000 8.946000 -2.467000
v -4.924000 14.058000 -2.467000
v -4.424000 8.669000 -2.467000
v -4.424000 14.044000 -2.467000
v -3.924000 8.207000 -2.467000
v -3.924000 13.806000 -2.467000
v -3.424000 7.990000 -2.467000
v -3.424000 13.298000 -2.467000
v -2.924000 7.977000 -2.467000
v -2.924000 12.817000 -2.467000
v -2.424000 8.042000 -2.467000
v -2.424000 12.507000 -2.467000
v -1.924000 8.223000 -2.467000
v -1.924000 12.072000 -2.467000
v -1.424000 8.747000 -2.467000
v -1.424000 11.604000 -2.467000
v -0.924000 9.689000 -2.467000
v -0.924000 11.076000 -2.467000
f 253 7 61
f 61 7 211
f 211 7 169
f 211 169 349
f 349 169 315
f 315 254 349
f 255 949 1007
f 253 61 949
f 949 61 1007
f 61 5 1007
f 5 109 1007
f 211 167 5
f 211 5 61
f 349 313 167
f 349 167 211
f 254 453 481
f 254 481 110
f 349 254 110
f 313 349 110
f 453 256 481
f 1009 257 1007
f 1007 257 255
f 1007 109 111
f 1007 111 1009
f 481 451 110
f 451 481 256
f 571 451 256
f 569 451 571
f 571 258 569
f 569 258 112
f 947 113 1009
f 113 257 1009
f 113 259 257
f 1009 111 947
f 691 112 258
f 691 258 693
f 693 260 691
f 691 260 114
f 261 113 115
f 261 259 113
f 833 114 260
f 833 260 835
f 835 262 833
f 833 262 116
f 263 115 117
f 263 261 115
f 985 116 262
f 985 262 987
f 987 264 985
f 985 264 118
f 265 799 857
f 119 857 799
f 263 119 799
f 117 119 263
f 43 118 264
f 43 264 45
f 45 266 43
f 43 266 120
f 861 267 857
f 857 267 265
f 857 119 121
f 857 121 861
f 205 120 266
f 205 266 207
f 207 268 205
f 205 268 122
f 863 269 861
f 861 269 267
f 861 121 123
f 861 123 863
f 122 270 124
f 268 270 122
f 863 800 269
f 271 800 863
f 123 271 863
f 125 271 123
f 272 384 347
f 124 272 347
f 270 272 124
f 384 126 347
f 125 948 271
f 271 948 950
f 273 950 948
f 273 948 127
f 274 386 384
f 274 384 272
f 126 384 128
f 128 384 386
f 127 6 273
f 273 6 8
f 168 8 6
f 168 170 8
f 314 170 168
f 314 316 170
f 452 316 314
f 452 454 316
f 452 129 616
f 572 452 616
f 454 452 572
f 572 616 746
f 572 746 694
f 694 746 894
f 694 894 836
f 836 894 1050
f 836 1050 988
f 988 1050 106
f 988 106 46
f 46 106 250
f 46 250 208
f 386 274 208
f 386 208 250
f 348 386 250
f 130 348 250
f 128 386 348
f 570 616 129
f 692 746 570
f 570 746 616
f 834 894 692
f 692 894 746
f 986 1050 834
f 834 1050 894
f 44 106 986
f 986 106 1050
f 206 250 44
f 44 250 106
f 130 250 206
f 275 331 131
f 131 331 329
f 331 467 329
f 469 467 331
f 469 585 467
f 587 585 469
f 587 276 585
f 585 276 132
f 277 185 133
f 133 185 183
f 131 183 185
f 131 185 275
f 707 132 276
f 707 276 709
f 709 278 707
f 707 278 134
f 279 133 135
f 279 277 133
f 849 134 278
f 849 278 851
f 851 280 849
f 849 280 136
f 281 23 137
f 137 23 21
f 135 21 23
f 135 23 279
f 282 1034 1001
f 136 282 1001
f 280 282 136
f 1034 138 1001
f 283 137 139
f 283 281 137
f 1003 1034 282
f 1003 284 1034
f 284 138 1034
f 284 140 138
f 285 965 141
f 141 965 963
f 139 963 965
f 139 965 283
f 140 286 142
f 284 286 140
f 287 815 143
f 143 815 813
f 141 813 815
f 141 815 285
f 1004 288 1040
f 1040 144 1004
f 144 286 1004
f 144 142 286
f 289 143 145
f 289 287 143
f 852 290 886
f 1040 288 852
f 886 1040 852
f 1042 1040 886
f 144 1040 146
f 146 1040 1042
f 716 677 147
f 145 677 716
f 291 145 716
f 289 145 291
f 710 292 740
f 886 290 710
f 740 886 710
f 888 886 740
f 1002 1042 148
f 1042 888 148
f 1042 886 888
f 146 1042 1002
f 149 718 147
f 147 718 716
f 291 716 718
f 291 718 293
f 294 742 740
f 294 740 292
f 850 888 150
f 888 742 150
f 888 740 742
f 148 888 850
f 151 720 149
f 149 720 718
f 293 718 720
f 293 720 295
f 296 744 742
f 296 742 294
f 150 742 152
f 152 742 744
f 153 722 151
f 151 722 720
f 295 720 722
f 295 722 297
f 154 708 744
f 296 154 744
f 298 154 296
f 152 744 708
f 678 722 153
f 816 297 872
f 872 297 155
f 297 722 155
f 722 678 155
f 299 816 872
f 588 300 620
f 620 156 588
f 156 298 588
f 156 154 298
f 814 872 155
f 966 299 1032
f 1032 299 157
f 299 872 157
f 872 814 157
f 301 966 1032
f 470 302 506
f 620 300 470
f 620 470 506
f 586 620 506
f 158 586 506
f 156 620 586
f 964 1032 157
f 24 301 90
f 90 301 159
f 301 1032 159
f 1032 964 159
f 303 24 90
f 332 304 380
f 506 302 332
f 506 332 380
f 468 506 380
f 160 468 380
f 158 506 468
f 22 90 159
f 90 22 303
f 22 186 303
f 22 184 186
f 304 186 380
f 186 330 380
f 186 184 330
f 160 380 330
f 389 679 739
f 739 679 887
f 887 679 821
f 887 821 1043
f 1043 821 973
f 973 390 1043
f 741 391 739
f 739 391 389
f 739 889 741
f 739 887 889
f 887 1045 889
f 887 1043 1045
f 1043 390 1045
f 1045 390 392
f 741 680 391
f 680 741 822
f 822 741 889
f 822 889 974
f 974 889 1045
f 1045 392 974
f 393 9 59
f 59 9 209
f 209 9 171
f 171 394 209
f 395 951 1005
f 393 59 951
f 951 59 1005
f 59 7 1005
f 7 253 1005
f 209 169 7
f 209 7 59
f 169 209 394
f 317 169 394
f 315 169 317
f 254 315 477
f 315 455 477
f 315 317 455
f 455 396 477
f 949 255 1005
f 255 395 1005
f 255 397 395
f 1005 253 949
f 477 453 254
f 396 573 595
f 396 595 256
f 477 396 256
f 453 477 256
f 573 398 595
f 399 255 257
f 399 397 255
f 595 571 256
f 398 695 727
f 398 727 258
f 595 398 258
f 571 595 258
f 695 400 727
f 401 257 259
f 401 399 257
f 727 693 258
f 400 837 877
f 400 877 260
f 727 400 260
f 693 727 260
f 837 402 877
f 403 259 261
f 403 401 259
f 877 835 260
f 402 989 1035
f 402 1035 262
f 877 402 262
f 835 877 262
f 989 404 1035
f 405 801 855
f 263 855 801
f 403 263 801
f 261 263 403
f 1035 987 262
f 404 47 93
f 404 93 264
f 1035 404 264
f 987 1035 264
f 47 406 93
f 799 265 855
f 265 405 855
f 265 407 405
f 855 263 799
f 93 45 264
f 93 406 45
f 406 266 45
f 406 408 266
f 409 265 267
f 409 407 265
f 410 242 207
f 266 410 207
f 408 410 266
f 242 268 207
f 411 267 269
f 411 409 267
f 412 244 242
f 412 242 410
f 268 242 270
f 270 242 244
f 865 413 800
f 413 269 800
f 413 411 269
f 271 865 800
f 414 246 244
f 414 244 412
f 270 244 272
f 272 244 246
f 865 802 413
f 1025 415 950
f 950 415 271
f 415 802 271
f 802 865 271
f 273 1025 950
f 48 416 104
f 246 414 48
f 104 246 48
f 248 246 104
f 272 246 274
f 274 246 248
f 1025 952 415
f 273 8 1025
f 8 952 1025
f 8 10 952
f 170 10 8
f 170 172 10
f 316 172 170
f 316 318 172
f 454 318 316
f 454 456 318
f 572 456 454
f 572 574 456
f 694 574 572
f 694 696 574
f 836 696 694
f 836 838 696
f 988 838 836
f 988 990 838
f 416 990 104
f 990 46 104
f 990 988 46
f 208 248 46
f 46 248 104
f 274 248 208
f 352 331 275
f 480 469 352
f 352 469 331
f 594 587 480
f 480 587 469
f 594 276 587
f 214 185 277
f 333 352 275
f 333 275 185
f 417 333 185
f 214 417 185
f 352 333 471
f 352 471 480
f 480 471 589
f 480 589 594
f 418 726 709
f 418 709 276
f 589 418 276
f 594 589 276
f 726 278 709
f 214 277 187
f 277 419 187
f 277 279 419
f 417 214 187
f 711 726 418
f 420 876 851
f 420 851 278
f 711 420 278
f 726 711 278
f 876 280 851
f 68 23 281
f 279 23 68
f 421 279 68
f 419 279 421
f 853 876 420
f 853 422 876
f 422 280 876
f 422 282 280
f 68 281 25
f 281 423 25
f 281 283 423
f 421 68 25
f 424 1036 1003
f 282 424 1003
f 422 424 282
f 1036 284 1003
f 425 967 285
f 285 967 965
f 283 965 967
f 283 967 423
f 426 1038 1036
f 426 1036 424
f 284 1036 286
f 286 1036 1038
f 427 817 287
f 287 817 815
f 285 815 817
f 285 817 425
f 854 428 884
f 1038 426 854
f 1038 854 884
f 1004 1038 884
f 288 1004 884
f 286 1038 1004
f 429 287 289
f 429 427 287
f 712 430 738
f 884 428 712
f 884 712 738
f 852 884 738
f 290 852 738
f 288 884 852
f 431 289 291
f 431 429 289
f 292 710 738
f 430 292 738
f 432 292 430
f 290 738 710
f 433 291 293
f 433 431 291
f 590 434 612
f 612 294 590
f 294 432 590
f 294 292 432
f 818 433 868
f 433 295 868
f 433 293 295
f 435 818 868
f 436 614 612
f 436 612 434
f 294 612 296
f 296 612 614
f 297 870 295
f 295 870 868
f 1028 968 435
f 868 1028 435
f 870 1028 868
f 437 968 1028
f 438 618 614
f 438 614 436
f 296 614 298
f 298 614 618
f 816 870 297
f 299 1030 816
f 1030 870 816
f 1030 1028 870
f 437 1028 1030
f 437 1030 439
f 472 440 504
f 618 438 472
f 618 472 504
f 588 618 504
f 300 588 504
f 298 618 588
f 966 1030 299
f 26 439 88
f 88 439 301
f 439 1030 301
f 1030 966 301
f 441 26 88
f 334 442 378
f 504 440 334
f 504 334 378
f 470 504 378
f 302 470 378
f 300 504 470
f 24 88 301
f 188 441 240
f 240 441 303
f 441 88 303
f 88 24 303
f 378 442 188
f 378 188 240
f 332 378 240
f 304 332 240
f 302 378 332
f 186 240 303
f 304 240 186
f 507 559 607
f 607 559 737
f 737 559 681
f 737 681 885
f 885 681 823
f 885 823 1041
f 1041 823 975
f 975 508 1041
f 609 509 607
f 607 509 507
f 737 679 389
f 609 737 389
f 607 737 609
f 885 821 679
f 885 679 737
f 1041 973 821
f 1041 821 885
f 508 33 99
f 508 99 390
f 1041 508 390
f 973 1041 390
f 33 510 99
f 611 511 609
f 609 511 509
f 609 389 391
f 609 391 611
f 101 392 390
f 101 390 99
f 195 245 510
f 245 99 510
f 245 101 99
f 195 512 245
f 611 560 511
f 743 513 680
f 680 513 391
f 513 560 391
f 560 611 391
f 822 891 743
f 822 743 680
f 974 1047 891
f 974 891 822
f 1047 974 392
f 101 1047 392
f 103 1047 101
f 101 247 103
f 101 245 247
f 245 512 247
f 247 512 514
f 743 682 513
f 682 743 824
f 824 743 891
f 824 891 976
f 976 891 1047
f 976 1047 34
f 34 1047 103
f 34 103 196
f 196 103 247
f 247 514 196
f 515 11 393
f 393 11 9
f 11 171 9
f 173 171 11
f 173 516 171
f 171 516 394
f 517 953 395
f 395 953 951
f 393 951 953
f 393 953 515
f 317 394 516
f 317 516 319
f 319 455 317
f 457 455 319
f 457 518 455
f 455 518 396
f 519 395 397
f 519 517 395
f 573 396 518
f 573 518 575
f 575 520 573
f 573 520 398
f 521 397 399
f 521 519 397
f 695 398 520
f 695 520 697
f 697 522 695
f 695 522 400
f 523 399 401
f 523 521 399
f 837 400 522
f 837 522 839
f 839 524 837
f 837 524 402
f 525 401 403
f 525 523 401
f 989 402 524
f 989 524 991
f 991 526 989
f 989 526 404
f 527 803 405
f 405 803 801
f 403 801 803
f 403 803 525
f 47 404 526
f 47 526 49
f 49 528 47
f 47 528 406
f 529 405 407
f 529 527 405
f 406 530 408
f 528 530 406
f 531 407 409
f 531 529 407
f 408 532 410
f 530 532 408
f 533 409 411
f 533 531 409
f 410 534 412
f 532 534 410
f 535 411 413
f 535 533 411
f 50 536 102
f 102 414 50
f 414 534 50
f 414 412 534
f 413 802 535
f 535 802 804
f 537 804 802
f 537 802 415
f 992 538 1048
f 102 536 992
f 102 992 1048
f 48 102 1048
f 416 48 1048
f 414 102 48
f 415 952 537
f 537 952 954
f 10 83 539
f 954 10 539
f 952 10 954
f 172 233 83
f 172 83 10
f 318 373 233
f 318 233 172
f 456 501 373
f 456 373 318
f 576 540 501
f 456 576 501
f 574 576 456
f 696 576 574
f 696 698 576
f 838 698 696
f 838 840 698
f 538 840 1048
f 840 990 1048
f 840 838 990
f 416 1048 990
f 83 12 539
f 12 83 174
f 174 83 233
f 174 233 320
f 320 233 373
f 320 373 458
f 458 373 501
f 501 540 458
f 354 333 417
f 482 471 354
f 354 471 333
f 596 589 482
f 482 589 471
f 596 418 589
f 216 187 419
f 335 354 417
f 335 417 187
f 541 335 187
f 216 541 187
f 354 335 473
f 354 473 482
f 482 473 591
f 482 591 596
f 542 728 711
f 542 711 418
f 591 542 418
f 596 591 418
f 728 420 711
f 421 218 419
f 419 218 216
f 541 216 218
f 541 218 543
f 544 730 728
f 544 728 542
f 420 728 853
f 728 878 853
f 728 730 878
f 878 422 853
f 70 25 423
f 189 218 421
f 189 421 25
f 545 189 25
f 70 545 25
f 543 218 189
f 713 730 544
f 730 713 546
f 880 730 546
f 878 730 880
f 422 878 424
f 424 878 880
f 1016 967 425
f 27 70 423
f 27 423 967
f 547 27 967
f 1016 547 967
f 545 70 27
f 548 882 880
f 548 880 546
f 424 880 426
f 426 880 882
f 860 817 427
f 969 1016 425
f 969 425 817
f 549 969 817
f 860 549 817
f 547 1016 969
f 714 550 736
f 882 548 714
f 882 714 736
f 854 882 736
f 428 854 736
f 426 882 854
f 860 427 819
f 427 551 819
f 427 429 551
f 549 860 819
f 592 552 608
f 736 550 592
f 736 592 608
f 712 736 608
f 430 712 608
f 428 736 712
f 553 429 431
f 553 551 429
f 554 610 608
f 554 608 552
f 430 608 432
f 432 608 610
f 820 553 866
f 553 433 866
f 553 431 433
f 555 820 866
f 434 590 610
f 554 434 610
f 556 434 554
f 432 610 590
f 818 866 433
f 970 555 1026
f 1026 555 435
f 555 866 435
f 866 818 435
f 557 970 1026
f 474 558 500
f 500 436 474
f 436 556 474
f 436 434 556
f 968 1026 435
f 28 557 84
f 84 557 437
f 557 1026 437
f 1026 968 437
f 28 84 234
f 28 234 190
f 190 234 374
f 190 374 336
f 500 558 336
f 374 500 336
f 502 500 374
f 436 500 438
f 438 500 502
f 439 86 437
f 437 86 84
f 236 84 86
f 234 84 236
f 376 234 236
f 374 234 376
f 472 502 440
f 502 376 440
f 502 374 376
f 438 502 472
f 26 86 439
f 441 238 26
f 238 86 26
f 238 236 86
f 334 376 442
f 376 238 442
f 376 236 238
f 440 376 334
f 188 238 441
f 442 238 188
f 621 305 361
f 361 305 489
f 489 305 443
f 489 443 603
f 603 443 561
f 561 622 603
f 363 623 361
f 361 623 621
f 361 491 363
f 361 489 491
f 489 605 491
f 489 603 605
f 683 735 622
f 735 603 622
f 735 605 603
f 735 683 883
f 883 683 825
f 883 825 1039
f 1039 825 977
f 977 624 1039
f 363 306 623
f 306 363 625
f 363 493 625
f 363 491 493
f 605 559 507
f 493 605 507
f 491 605 493
f 735 681 559
f 735 559 605
f 883 823 681
f 883 681 735
f 1039 975 823
f 1039 823 883
f 624 35 97
f 624 97 508
f 1039 624 508
f 975 1039 508
f 35 626 97
f 495 627 493
f 493 627 625
f 493 507 509
f 493 509 495
f 97 33 508
f 626 197 243
f 626 243 510
f 97 626 510
f 33 97 510
f 197 628 243
f 495 444 627
f 629 444 495
f 509 629 495
f 511 629 509
f 243 195 510
f 628 339 383
f 628 383 512
f 243 628 512
f 195 243 512
f 339 630 383
f 613 631 560
f 631 511 560
f 631 629 511
f 513 613 560
f 385 514 512
f 385 512 383
f 383 630 385
f 385 630 632
f 613 562 631
f 745 633 682
f 682 633 513
f 633 562 513
f 562 613 513
f 824 893 745
f 824 745 682
f 976 1049 893
f 976 893 824
f 34 105 1049
f 34 1049 976
f 196 249 105
f 196 105 34
f 385 340 514
f 514 340 196
f 340 634 196
f 634 249 196
f 385 632 340
f 745 684 633
f 684 745 826
f 826 745 893
f 826 893 978
f 978 893 1049
f 978 1049 36
f 36 1049 105
f 36 105 198
f 198 105 249
f 249 634 198
f 60 11 515
f 210 173 60
f 60 173 11
f 210 516 173
f 1006 953 517
f 13 60 515
f 13 515 953
f 635 13 953
f 1006 635 953
f 60 13 175
f 60 175 210
f 319 516 210
f 175 319 210
f 321 319 175
f 321 457 319
f 459 457 321
f 459 636 457
f 457 636 518
f 1006 517 955
f 517 637 955
f 517 519 637
f 635 1006 955
f 575 518 636
f 575 636 577
f 577 638 575
f 575 638 520
f 639 519 521
f 639 637 519
f 697 520 638
f 697 638 699
f 699 640 697
f 697 640 522
f 641 521 523
f 641 639 521
f 839 522 640
f 839 640 841
f 524 839 1033
f 839 993 1033
f 839 841 993
f 993 642 1033
f 643 523 525
f 643 641 523
f 1033 991 524
f 642 51 91
f 642 91 526
f 1033 642 526
f 991 1033 526
f 51 644 91
f 645 805 527
f 527 805 803
f 525 803 805
f 525 805 643
f 91 49 526
f 91 644 49
f 644 528 49
f 644 646 528
f 647 527 529
f 647 645 527
f 528 648 530
f 646 648 528
f 649 529 531
f 649 647 529
f 530 650 532
f 648 650 530
f 651 531 533
f 651 649 531
f 532 652 534
f 650 652 532
f 653 533 535
f 653 651 533
f 52 654 536
f 52 536 50
f 50 534 52
f 52 534 652
f 867 655 804
f 655 535 804
f 655 653 535
f 537 867 804
f 994 656 538
f 994 538 992
f 992 536 994
f 994 536 654
f 869 657 867
f 867 657 655
f 867 537 954
f 1027 867 954
f 869 867 1027
f 539 1027 954
f 576 617 540
f 700 658 617
f 576 700 617
f 698 700 576
f 840 700 698
f 840 842 700
f 840 538 842
f 842 538 656
f 869 806 657
f 806 869 956
f 956 869 1027
f 85 659 12
f 12 659 539
f 659 956 539
f 956 1027 539
f 174 235 85
f 174 85 12
f 320 375 235
f 320 235 174
f 460 660 375
f 320 460 375
f 458 460 320
f 617 578 540
f 578 458 540
f 578 460 458
f 617 658 578
f 85 14 659
f 14 85 176
f 176 85 235
f 176 235 322
f 322 235 375
f 375 660 322
f 356 335 541
f 484 473 356
f 356 473 335
f 598 591 484
f 484 591 473
f 598 542 591
f 543 358 541
f 541 358 356
f 486 356 358
f 484 356 486
f 600 484 486
f 598 484 600
f 542 598 544
f 544 598 600
f 220 189 545
f 189 220 543
f 220 358 543
f 220 360 358
f 488 358 360
f 486 358 488
f 602 486 488
f 600 486 602
f 544 600 713
f 600 732 713
f 600 602 732
f 732 546 713
f 72 27 547
f 191 220 545
f 191 545 27
f 661 191 27
f 72 661 27
f 220 191 337
f 220 337 360
f 360 337 475
f 360 475 488
f 488 475 662
f 604 488 662
f 602 488 604
f 734 602 604
f 732 602 734
f 546 732 548
f 548 732 734
f 1018 969 549
f 29 72 547
f 29 547 969
f 663 29 969
f 1018 663 969
f 661 72 29
f 664 606 604
f 664 604 662
f 714 734 550
f 734 606 550
f 734 604 606
f 548 734 714
f 862 819 551
f 971 1018 549
f 971 549 819
f 665 971 819
f 862 665 819
f 663 1018 971
f 552 592 606
f 664 552 606
f 666 552 664
f 550 606 592
f 553 864 551
f 551 864 862
f 665 862 864
f 665 864 667
f 552 668 554
f 666 668 552
f 820 864 553
f 972 667 1024
f 1024 667 555
f 667 864 555
f 864 820 555
f 669 972 1024
f 476 670 498
f 498 556 476
f 556 668 476
f 556 554 668
f 970 1024 555
f 30 669 82
f 82 669 557
f 669 1024 557
f 1024 970 557
f 30 82 232
f 30 232 192
f 192 232 372
f 192 372 338
f 498 670 338
f 498 338 372
f 474 498 372
f 558 474 372
f 556 498 474
f 28 82 557
f 190 232 28
f 28 232 82
f 336 372 190
f 190 372 232
f 558 372 336
f 749 307 359
f 359 307 487
f 487 307 445
f 487 445 601
f 601 445 563
f 563 750 601
f 751 161 221
f 749 359 161
f 161 359 221
f 359 305 221
f 305 621 221
f 487 443 305
f 487 305 359
f 601 561 443
f 601 443 487
f 750 685 733
f 750 733 622
f 601 750 622
f 561 601 622
f 685 752 733
f 223 753 221
f 221 753 751
f 221 621 623
f 221 623 223
f 733 683 622
f 683 733 752
f 827 683 752
f 825 683 827
f 827 977 825
f 979 977 827
f 624 977 95
f 977 37 95
f 977 979 37
f 37 754 95
f 225 755 223
f 223 755 753
f 223 623 306
f 365 223 306
f 225 223 365
f 625 365 306
f 95 35 624
f 754 199 241
f 754 241 626
f 95 754 626
f 35 95 626
f 199 756 241
f 227 757 225
f 225 757 755
f 225 367 227
f 225 365 367
f 365 625 627
f 365 627 367
f 241 197 626
f 756 341 381
f 756 381 628
f 241 756 628
f 197 241 628
f 341 758 381
f 227 162 757
f 162 227 759
f 227 369 759
f 227 367 369
f 367 627 444
f 497 367 444
f 369 367 497
f 629 497 444
f 381 339 628
f 381 758 339
f 758 630 339
f 758 760 630
f 369 308 759
f 308 369 446
f 446 369 497
f 761 446 497
f 629 761 497
f 631 761 629
f 630 762 632
f 760 762 630
f 631 562 761
f 761 562 564
f 763 564 562
f 763 562 633
f 340 387 634
f 340 632 387
f 632 764 387
f 632 762 764
f 633 684 763
f 763 684 686
f 826 895 765
f 686 826 765
f 684 826 686
f 978 1051 895
f 978 895 826
f 36 107 1051
f 36 1051 978
f 198 251 107
f 198 107 36
f 387 342 634
f 634 342 198
f 342 766 198
f 766 251 198
f 387 764 342
f 895 828 765
f 828 895 980
f 980 895 1051
f 980 1051 38
f 38 1051 107
f 38 107 200
f 200 107 251
f 251 766 200
f 62 13 635
f 767 177 62
f 177 13 62
f 177 175 13
f 177 321 175
f 323 321 177
f 478 459 768
f 459 323 768
f 459 321 323
f 478 636 459
f 1008 955 637
f 15 62 635
f 15 635 955
f 769 15 955
f 1008 769 955
f 767 62 15
f 461 478 768
f 577 636 478
f 461 577 478
f 579 577 461
f 579 770 577
f 577 770 638
f 639 1010 637
f 637 1010 1008
f 769 1008 1010
f 769 1010 771
f 699 638 770
f 699 770 701
f 701 772 699
f 699 772 640
f 641 1012 639
f 639 1012 1010
f 771 1010 1012
f 771 1012 773
f 841 640 772
f 841 772 843
f 843 993 841
f 995 993 843
f 995 774 993
f 993 774 642
f 1012 641 957
f 641 775 957
f 641 643 775
f 773 1012 957
f 51 642 774
f 51 774 53
f 53 776 51
f 51 776 644
f 856 805 645
f 643 805 856
f 777 643 856
f 775 643 777
f 644 778 646
f 776 778 644
f 856 645 807
f 645 779 807
f 645 647 779
f 777 856 807
f 646 780 648
f 778 780 646
f 781 647 649
f 781 779 647
f 648 782 650
f 780 782 648
f 783 671 715
f 651 715 671
f 781 651 671
f 649 651 781
f 650 784 652
f 782 784 650
f 717 785 715
f 715 785 783
f 715 651 653
f 715 653 717
f 54 786 654
f 54 654 52
f 52 652 54
f 54 652 784
f 719 787 717
f 717 787 785
f 717 653 655
f 717 655 719
f 996 788 656
f 996 656 994
f 994 654 996
f 996 654 786
f 721 789 719
f 719 789 787
f 719 655 657
f 719 657 721
f 700 747 658
f 844 790 747
f 700 844 747
f 842 844 700
f 842 656 844
f 844 656 788
f 721 672 789
f 871 791 806
f 806 791 657
f 791 672 657
f 672 721 657
f 956 1029 871
f 956 871 806
f 659 1029 956
f 460 503 660
f 580 792 503
f 460 580 503
f 578 580 460
f 747 702 658
f 702 578 658
f 702 580 578
f 747 790 702
f 871 808 791
f 808 871 793
f 871 1031 793
f 871 1029 1031
f 1029 659 14
f 87 1029 14
f 1031 1029 87
f 176 237 87
f 176 87 14
f 322 377 237
f 322 237 176
f 503 462 660
f 660 462 322
f 462 794 322
f 794 377 322
f 503 792 462
f 1031 958 793
f 958 1031 16
f 16 1031 87
f 16 87 178
f 178 87 237
f 178 237 324
f 324 237 377
f 377 794 324
f 222 191 661
f 362 337 222
f 222 337 191
f 490 475 362
f 362 475 337
f 490 662 475
f 74 29 663
f 29 74 661
f 74 222 661
f 74 224 222
f 364 222 224
f 362 222 364
f 492 362 364
f 490 362 492
f 662 490 664
f 664 490 492
f 1020 971 665
f 971 1020 663
f 1020 74 663
f 1020 76 74
f 76 795 193
f 224 76 193
f 74 76 224
f 224 193 796
f 366 224 796
f 364 224 366
f 494 364 366
f 492 364 494
f 664 492 666
f 666 492 494
f 667 1022 665
f 665 1022 1020
f 1022 797 31
f 76 1022 31
f 1020 1022 76
f 795 76 31
f 798 368 366
f 798 366 796
f 496 366 368
f 494 366 496
f 666 494 668
f 668 494 496
f 972 1022 667
f 32 797 80
f 80 797 669
f 797 1022 669
f 1022 972 669
f 32 80 230
f 32 230 194
f 368 798 194
f 230 368 194
f 370 368 230
f 476 496 670
f 496 370 670
f 496 368 370
f 668 496 476
f 30 80 669
f 192 230 30
f 30 230 80
f 338 370 192
f 192 370 230
f 670 370 338
f 897 309 357
f 357 309 485
f 485 309 447
f 485 447 599
f 599 447 565
f 565 898 599
f 899 163 219
f 897 357 163
f 163 357 219
f 357 307 219
f 307 749 219
f 485 445 307
f 485 307 357
f 599 563 445
f 599 445 485
f 898 687 731
f 898 731 750
f 599 898 750
f 563 599 750
f 687 900 731
f 901 1 71
f 899 219 1
f 1 219 71
f 219 161 71
f 161 751 71
f 219 749 161
f 731 685 750
f 900 829 881
f 900 881 752
f 731 900 752
f 685 731 752
f 829 902 881
f 73 903 71
f 71 903 901
f 71 751 753
f 71 753 73
f 881 827 752
f 827 881 902
f 981 827 902
f 979 827 981
f 981 37 979
f 39 37 981
f 39 904 37
f 37 904 754
f 75 905 73
f 73 905 903
f 73 753 755
f 73 755 75
f 199 754 904
f 199 904 201
f 201 906 199
f 199 906 756
f 77 907 75
f 75 907 905
f 75 755 757
f 75 757 77
f 341 756 906
f 341 906 343
f 343 908 341
f 341 908 758
f 77 2 907
f 229 909 162
f 162 909 757
f 909 2 757
f 2 77 757
f 759 229 162
f 758 910 760
f 908 910 758
f 229 164 909
f 759 308 229
f 308 164 229
f 308 310 164
f 446 499 911
f 310 446 911
f 308 446 310
f 761 499 446
f 760 912 762
f 910 912 760
f 499 448 911
f 615 913 564
f 564 913 761
f 913 448 761
f 448 499 761
f 763 615 564
f 762 914 764
f 912 914 762
f 615 566 913
f 763 686 615
f 686 566 615
f 686 688 566
f 915 688 686
f 915 686 765
f 344 916 766
f 344 766 342
f 342 764 344
f 344 764 914
f 765 828 915
f 915 828 830
f 980 830 828
f 980 982 830
f 38 982 980
f 38 40 982
f 200 40 38
f 200 202 40
f 200 766 202
f 202 766 916
f 212 177 767
f 350 323 212
f 212 323 177
f 350 768 323
f 64 15 769
f 179 212 767
f 179 767 15
f 917 179 15
f 64 917 15
f 212 179 325
f 212 325 350
f 461 768 350
f 325 461 350
f 463 461 325
f 463 579 461
f 581 579 463
f 581 918 579
f 579 918 770
f 771 66 769
f 769 66 64
f 917 64 66
f 917 66 919
f 701 770 918
f 701 918 703
f 772 701 875
f 701 845 875
f 701 703 845
f 845 920 875
f 66 771 17
f 771 921 17
f 771 773 921
f 919 66 17
f 875 843 772
f 843 875 920
f 997 843 920
f 995 843 997
f 997 922 995
f 995 922 774
f 1014 957 775
f 773 957 1014
f 923 773 1014
f 921 773 923
f 53 774 922
f 53 922 55
f 55 924 53
f 53 924 776
f 1014 775 959
f 775 925 959
f 775 777 925
f 923 1014 959
f 776 926 778
f 924 926 776
f 858 807 779
f 777 807 858
f 927 777 858
f 925 777 927
f 778 928 780
f 926 928 778
f 858 779 809
f 779 929 809
f 779 781 929
f 927 858 809
f 780 930 782
f 928 930 780
f 931 673 783
f 783 673 671
f 781 671 673
f 781 673 929
f 782 932 784
f 930 932 782
f 933 783 785
f 933 931 783
f 56 934 786
f 56 786 54
f 54 784 56
f 56 784 932
f 935 785 787
f 935 933 785
f 998 936 788
f 998 788 996
f 996 786 998
f 998 786 934
f 937 787 789
f 937 935 787
f 846 938 790
f 846 790 844
f 844 788 846
f 846 788 936
f 723 939 672
f 939 789 672
f 939 937 789
f 791 723 672
f 580 619 792
f 704 940 619
f 580 704 619
f 702 704 580
f 702 790 704
f 704 790 938
f 723 674 939
f 873 941 808
f 808 941 791
f 941 674 791
f 674 723 791
f 793 873 808
f 462 505 794
f 619 582 792
f 792 582 462
f 582 942 462
f 942 505 462
f 619 940 582
f 873 810 941
f 793 958 873
f 958 810 873
f 958 960 810
f 16 89 943
f 960 16 943
f 958 16 960
f 178 239 89
f 178 89 16
f 324 379 239
f 324 239 178
f 505 464 794
f 794 464 324
f 464 944 324
f 944 379 324
f 505 942 464
f 89 18 943
f 18 89 180
f 180 89 239
f 180 239 326
f 326 239 379
f 379 944 326
f 226 193 795
f 226 796 193
f 78 31 797
f 31 78 795
f 78 226 795
f 78 228 226
f 796 226 798
f 798 226 228
f 32 78 797
f 194 228 32
f 32 228 78
f 798 228 194
f 1053 3 67
f 67 3 217
f 217 3 165
f 217 165 897
f 165 309 897
f 165 311 309
f 311 447 309
f 449 447 311
f 449 565 447
f 567 565 449
f 567 1054 565
f 565 1054 898
f 69 1055 67
f 67 1055 1053
f 217 163 899
f 69 217 899
f 67 217 69
f 217 897 163
f 687 898 1054
f 687 1054 689
f 689 1056 687
f 687 1056 900
f 1 901 69
f 901 1055 69
f 901 1057 1055
f 69 899 1
f 829 900 1056
f 829 1056 831
f 902 829 1037
f 829 983 1037
f 829 831 983
f 983 1058 1037
f 1059 901 903
f 1059 1057 901
f 1037 981 902
f 981 1037 1058
f 41 981 1058
f 39 981 41
f 41 1060 39
f 39 1060 904
f 1061 945 1019
f 905 1019 945
f 1059 905 945
f 903 905 1059
f 201 904 1060
f 201 1060 203
f 203 1062 201
f 201 1062 906
f 1021 1063 1019
f 1019 1063 1061
f 1019 905 907
f 1019 907 1021
f 343 906 1062
f 343 1062 345
f 345 1064 343
f 343 1064 908
f 1021 946 1063
f 79 1065 2
f 2 1065 907
f 1065 946 907
f 946 1021 907
f 909 79 2
f 908 1066 910
f 1064 1066 908
f 79 4 1065
f 231 1067 164
f 164 1067 909
f 1067 4 909
f 4 79 909
f 310 371 231
f 310 231 164
f 911 371 310
f 910 1068 912
f 1066 1068 910
f 231 166 1067
f 166 231 312
f 312 231 371
f 911 448 371
f 448 312 371
f 448 450 312
f 1069 450 448
f 1069 448 913
f 912 1070 914
f 1068 1070 912
f 913 566 1069
f 1069 566 568
f 688 568 566
f 688 690 568
f 1071 690 688
f 1071 688 915
f 346 1072 916
f 346 916 344
f 344 914 346
f 346 914 1070
f 915 830 1071
f 1071 830 832
f 982 832 830
f 982 984 832
f 40 984 982
f 40 42 984
f 202 42 40
f 202 204 42
f 202 916 204
f 204 916 1072
f 1073 327 351
f 351 327 479
f 479 327 465
f 465 1074 479
f 1075 181 917
f 917 181 179
f 181 1073 351
f 325 181 351
f 179 181 325
f 479 463 325
f 479 325 351
f 463 479 1074
f 583 463 1074
f 581 463 583
f 918 581 725
f 581 705 725
f 581 583 705
f 705 1076 725
f 1077 917 919
f 1077 1075 917
f 725 703 918
f 703 725 1076
f 847 703 1076
f 845 703 847
f 847 1078 845
f 845 1078 920
f 1079 19 921
f 921 19 17
f 919 17 19
f 919 19 1077
f 997 920 1078
f 997 1078 999
f 999 1080 997
f 997 1080 922
f 1081 921 923
f 1081 1079 921
f 1082 92 55
f 922 1082 55
f 1080 1082 922
f 92 924 55
f 1083 961 925
f 925 961 959
f 923 959 961
f 923 961 1081
f 57 92 1082
f 57 1084 92
f 1084 924 92
f 1084 926 924
f 1085 925 927
f 1085 1083 925
f 926 1086 928
f 1084 1086 926
f 1087 811 929
f 929 811 809
f 927 809 811
f 927 811 1085
f 928 1088 930
f 1086 1088 928
f 1089 675 931
f 931 675 673
f 929 673 675
f 929 675 1087
f 58 1090 100
f 100 932 58
f 932 1088 58
f 932 930 1088
f 1091 931 933
f 1091 1089 931
f 1000 1092 1046
f 100 1090 1000
f 100 1000 1046
f 56 100 1046
f 934 56 1046
f 932 100 56
f 1093 933 935
f 1093 1091 933
f 848 1094 892
f 1046 1092 848
f 1046 848 892
f 998 1046 892
f 936 998 892
f 934 1046 998
f 1095 935 937
f 1095 1093 935
f 938 846 892
f 1094 938 892
f 1096 938 1094
f 936 892 846
f 1097 937 939
f 1097 1095 937
f 706 1098 940
f 706 940 704
f 704 938 706
f 706 938 1096
f 939 674 1097
f 1097 674 676
f 1099 676 674
f 1099 674 941
f 584 1100 942
f 584 942 582
f 582 940 584
f 584 940 1098
f 941 810 1099
f 1099 810 812
f 960 812 810
f 960 962 812
f 1101 962 960
f 1101 960 943
f 466 1102 944
f 466 944 464
f 464 942 466
f 466 942 1100
f 943 18 1101
f 1101 18 20
f 180 20 18
f 180 182 20
f 326 182 180
f 326 328 182
f 326 944 328
f 328 944 1102
f 109 5 63
f 63 5 213
f 213 5 167
f 213 167 353
f 353 167 313
f 313 110 353
f 65 111 63
f 63 111 109
f 63 215 65
f 63 213 215
f 213 355 215
f 213 353 355
f 451 483 110
f 483 353 110
f 483 355 353
f 483 451 597
f 597 451 569
f 569 112 597
f 113 947 1011
f 111 65 947
f 947 65 1011
f 65 3 1011
f 3 1053 1011
f 215 165 3
f 215 3 65
f 355 311 165
f 355 165 215
f 483 449 311
f 483 311 355
f 597 567 449
f 597 449 483
f 112 691 729
f 112 729 1054
f 597 112 1054
f 567 597 1054
f 691 114 729
f 1013 115 1011
f 1011 115 113
f 1011 1053 1055
f 1011 1055 1013
f 729 689 1054
f 114 833 879
f 114 879 1056
f 729 114 1056
f 689 729 1056
f 833 116 879
f 1015 117 1013
f 1013 117 115
f 1013 1055 1057
f 1013 1057 1015
f 879 831 1056
f 831 879 116
f 985 831 116
f 983 831 985
f 985 118 983
f 983 118 1058
f 1017 119 1015
f 1015 119 117
f 1015 1057 1059
f 1015 1059 1017
f 41 1058 118
f 41 118 43
f 43 120 41
f 41 120 1060
f 945 1061 1017
f 1061 119 1017
f 1061 121 119
f 1017 1059 945
f 203 1060 120
f 203 120 205
f 205 122 203
f 203 122 1062
f 123 1061 1063
f 123 121 1061
f 124 382 345
f 1062 124 345
f 122 124 1062
f 382 1064 345
f 1023 125 946
f 125 1063 946
f 125 123 1063
f 1065 1023 946
f 347 382 124
f 347 126 382
f 126 1064 382
f 126 1066 1064
f 1023 948 125
f 81 127 4
f 4 127 1065
f 127 948 1065
f 948 1023 1065
f 1067 81 4
f 1066 128 1068
f 126 128 1066
f 81 6 127
f 1067 166 81
f 166 6 81
f 166 168 6
f 312 168 166
f 312 314 168
f 450 314 312
f 450 452 314
f 129 452 450
f 129 450 1069
f 348 130 388
f 388 1070 348
f 1070 128 348
f 1070 1068 128
f 1069 568 129
f 129 568 570
f 690 570 568
f 690 692 570
f 690 1071 896
f 834 690 896
f 692 690 834
f 834 896 1052
f 834 1052 986
f 986 1052 108
f 986 108 44
f 44 108 252
f 44 252 206
f 388 130 206
f 388 206 252
f 346 388 252
f 1072 346 252
f 1070 388 346
f 832 896 1071
f 984 1052 832
f 832 1052 896
f 42 108 984
f 984 108 1052
f 204 252 42
f 42 252 108
f 1072 252 204
f 131 329 1073
f 1073 329 327
f 329 465 327
f 467 465 329
f 1074 465 593
f 465 585 593
f 465 467 585
f 585 132 593
f 133 183 1075
f 1075 183 181
f 1073 181 183
f 1073 183 131
f 593 583 1074
f 583 593 132
f 707 583 132
f 705 583 707
f 707 134 705
f 705 134 1076
f 135 1075 1077
f 135 133 1075
f 847 1076 134
f 847 134 849
f 849 136 847
f 847 136 1078
f 137 21 1079
f 1079 21 19
f 1077 19 21
f 1077 21 135
f 999 1078 136
f 999 136 1001
f 1001 138 999
f 999 138 1080
f 139 1079 1081
f 139 137 1079
f 1080 140 1082
f 138 140 1080
f 141 963 1083
f 1083 963 961
f 1081 961 963
f 1081 963 139
f 142 94 57
f 1082 142 57
f 140 142 1082
f 94 1084 57
f 143 813 859
f 1085 859 813
f 141 1085 813
f 1083 1085 141
f 144 96 94
f 144 94 142
f 1084 94 1086
f 1086 94 96
f 811 1087 859
f 1087 143 859
f 1087 145 143
f 859 1085 811
f 146 98 96
f 146 96 144
f 1086 96 1088
f 1088 96 98
f 147 677 1089
f 1089 677 675
f 1087 675 677
f 1087 677 145
f 1002 148 1044
f 98 146 1002
f 98 1002 1044
f 58 98 1044
f 1090 58 1044
f 1088 98 58
f 149 1089 1091
f 149 147 1089
f 850 150 890
f 1044 148 850
f 1044 850 890
f 1000 1044 890
f 1092 1000 890
f 1090 1044 1000
f 151 1091 1093
f 151 149 1091
f 1094 848 890
f 150 1094 890
f 152 1094 150
f 1092 890 848
f 153 1093 1095
f 153 151 1093
f 708 154 748
f 748 1096 708
f 1096 152 708
f 1096 1094 152
f 678 153 724
f 153 1097 724
f 153 1095 1097
f 155 678 724
f 1098 706 748
f 154 1098 748
f 156 1098 154
f 1096 748 706
f 676 724 1097
f 814 155 874
f 874 155 1099
f 155 724 1099
f 724 676 1099
f 157 814 874
f 586 158 1100
f 586 1100 584
f 584 1098 586
f 586 1098 156
f 812 874 1099
f 874 812 157
f 812 964 157
f 812 962 964
f 159 964 962
f 159 962 1101
f 468 160 1102
f 468 1102 466
f 466 1100 468
f 468 1100 158
f 1101 20 159
f 159 20 22
f 182 22 20
f 182 184 22
f 328 184 182
f 328 330 184
f 328 1102 330
f 330 1102 160
