# Converted from NanoShaper .vert/.face
v -13.723000 -4.373000 -2.467000
v -10.011000 -4.373000 -2.467000
v -14.304000 -4.373000 -1.967000
v -9.470000 -4.373000 -1.967000
v -14.503000 -4.373000 -1.467000
v -9.017000 -4.373000 -1.467000
v -14.529000 -4.373000 -0.967000
v -8.812000 -4.373000 -0.967000
v -14.513000 -4.373000 -0.467000
v -8.796000 -4.373000 -0.467000
v -14.293000 -4.373000 0.033000
v -8.811000 -4.373000 0.033000
v -13.852000 -4.373000 0.533000
v -9.014000 -4.373000 0.533000
v -13.417000 -4.373000 1.033000
v -9.289000 -4.373000 1.033000
v -13.104000 -4.373000 1.533000
v -9.511000 -4.373000 1.533000
v -12.898000 -4.373000 2.033000
v -10.004000 -4.373000 2.033000
v -12.593000 -4.373000 2.533000
v -10.481000 -4.373000 2.533000
v -11.936000 -4.373000 3.033000
v -11.345000 -4.373000 3.033000
v -13.831000 -0.373000 1.033000
v -11.626000 -0.373000 1.033000
v -14.364000 -0.373000 1.533000
v -10.989000 -0.373000 1.533000
v -14.549000 -0.373000 2.033000
v -10.460000 -0.373000 2.033000
v -14.537000 -0.373000 2.533000
v -10.270000 -0.373000 2.533000
v -14.485000 -0.373000 3.033000
v -10.277000 -0.373000 3.033000
v -14.434000 -0.373000 3.533000
v -10.302000 -0.373000 3.533000
v -14.498000 -0.373000 4.033000
v -10.277000 -0.373000 4.033000
v -14.533000 -0.373000 4.533000
v -10.276000 -0.373000 4.533000
v -14.563000 -0.373000 5.033000
v -10.300000 -0.373000 5.033000
v -14.656000 -0.373000 5.533000
v -10.514000 -0.373000 5.533000
v -14.829000 -0.373000 6.033000
v -10.904000 -0.373000 6.033000
v -14.816000 -0.373000 6.533000
v -11.167000 -0.373000 6.533000
v -14.563000 -0.373000 7.033000
v -11.453000 -0.373000 7.033000
v -13.691000 -0.373000 7.533000
v -11.960000 -0.373000 7.533000
v -14.174000 -4.373000 -2.137000
v -14.174000 -4.373000 0.179000
v -13.674000 -4.373000 -2.488000
v -13.674000 -4.373000 0.760000
v -13.174000 -4.373000 -2.596000
v -13.174000 -4.373000 1.404000
v -12.674000 -4.373000 -2.630000
v -12.674000 -4.373000 2.440000
v -12.174000 -4.373000 -2.620000
v -12.174000 -4.373000 2.913000
v -11.674000 -4.373000 -2.567000
v -11.674000 -4.373000 3.088000
v -11.174000 -4.373000 -2.577000
v -11.174000 -4.373000 2.984000
v -10.674000 -4.373000 -2.622000
v -10.674000 -4.373000 2.698000
v -10.174000 -4.373000 -2.539000
v -10.174000 -4.373000 2.240000
v -9.674000 -4.373000 -2.219000
v -9.674000 -4.373000 1.728000
v -9.174000 -4.373000 -1.662000
v -9.174000 -4.373000 0.776000
v -14.674000 -0.373000 5.585000
v -14.674000 -0.373000 6.878000
v -14.174000 -0.373000 1.289000
v -14.174000 -0.373000 7.336000
v -13.674000 -0.373000 0.962000
v -13.674000 -0.373000 7.539000
v -13.174000 -0.373000 0.732000
v -13.174000 -0.373000 7.629000
v -12.674000 -0.373000 0.601000
v -12.674000 -0.373000 7.707000
v -12.174000 -0.373000 0.692000
v -12.174000 -0.373000 7.628000
v -11.674000 -0.373000 1.002000
v -11.674000 -0.373000 7.320000
v -11.174000 -0.373000 1.382000
v -11.174000 -0.373000 6.546000
v -10.674000 -0.373000 1.768000
v -10.674000 -0.373000 5.734000
v -14.174000 -4.659000 0.033000
v -14.174000 -3.063000 0.033000
v -13.674000 -5.563000 0.033000
v -13.674000 -2.308000 0.033000
v -13.174000 -6.081000 0.033000
v -13.174000 -1.873000 0.033000
v -12.674000 -6.411000 0.033000
v -12.674000 -1.463000 0.033000
v -12.174000 -6.499000 0.033000
v -12.174000 -1.426000 0.033000
v -11.674000 -6.399000 0.033000
v -11.674000 -1.594000 0.033000
v -11.174000 -6.163000 0.033000
v -11.174000 -1.818000 0.033000
v -10.674000 -5.937000 0.033000
v -10.674000 -2.160000 0.033000
v -10.174000 -5.627000 0.033000
v -10.174000 -2.567000 0.033000
v -9.674000 -5.395000 0.033000
v -9.674000 -2.819000 0.033000
v -9.174000 -5.067000 0.033000
v -9.174000 -3.150000 0.033000
v -14.174000 -1.050000 4.033000
v -14.174000 1.325000 4.033000
v -13.674000 -1.874000 4.033000
v -13.674000 1.531000 4.033000
v -13.174000 -2.636000 4.033000
v -13.174000 1.536000 4.033000
v -12.674000 -3.522000 4.033000
v -12.674000 1.584000 4.033000
v -12.174000 -3.874000 4.033000
v -12.174000 1.478000 4.033000
v -11.674000 -3.998000 4.033000
v -11.674000 1.272000 4.033000
v -11.174000 -3.911000 4.033000
v -11.174000 1.136000 4.033000
v -10.674000 -3.582000 4.033000
v -10.674000 0.808000 4.033000
v -10.174000 -2.789000 4.033000
v -10.174000 -1.299000 4.033000
v -14.174000 1.422000 8.033000
v -14.174000 2.398000 8.033000
v -13.674000 1.195000 8.033000
v -13.674000 2.625000 8.033000
v -13.174000 1.377000 8.033000
v -13.174000 2.443000 8.033000
v -12.674000 -2.397000 8.033000
v -12.674000 -1.835000 8.033000
v -12.174000 -2.658000 8.033000
v -12.174000 -1.574000 8.033000
v -13.761000 -3.873000 -2.467000
v -9.975000 -3.873000 -2.467000
v -14.323000 -3.873000 -1.967000
v -9.453000 -3.873000 -1.967000
v -14.519000 -3.873000 -1.467000
v -9.007000 -3.873000 -1.467000
v -14.547000 -3.873000 -0.967000
v -8.803000 -3.873000 -0.967000
v -14.531000 -3.873000 -0.467000
v -8.789000 -3.873000 -0.467000
v -14.315000 -3.873000 0.033000
v -8.805000 -3.873000 0.033000
v -13.855000 -3.873000 0.533000
v -9.008000 -3.873000 0.533000
v -13.550000 -3.873000 1.033000
v -9.301000 -3.873000 1.033000
v -13.330000 -3.873000 1.533000
v -9.530000 -3.873000 1.533000
v -13.109000 -3.873000 2.033000
v -9.999000 -3.873000 2.033000
v -12.851000 -3.873000 2.533000
v -10.339000 -3.873000 2.533000
v -12.599000 -3.873000 3.033000
v -10.661000 -3.873000 3.033000
v -12.317000 -3.873000 3.533000
v -10.965000 -3.873000 3.533000
v -12.175000 -3.873000 4.033000
v -11.084000 -3.873000 4.033000
v -12.149000 -3.873000 4.533000
v -11.120000 -3.873000 4.533000
v -14.121000 0.127000 1.533000
v -11.313000 0.127000 1.533000
v -14.345000 0.127000 2.033000
v -10.679000 0.127000 2.033000
v -14.335000 0.127000 2.533000
v -10.454000 0.127000 2.533000
v -14.307000 0.127000 3.033000
v -10.456000 0.127000 3.033000
v -14.367000 0.127000 3.533000
v -10.433000 0.127000 3.533000
v -14.523000 0.127000 4.033000
v -10.311000 0.127000 4.033000
v -14.689000 0.127000 4.533000
v -10.316000 0.127000 4.533000
v -14.854000 0.127000 5.033000
v -10.340000 0.127000 5.033000
v -14.913000 0.127000 5.533000
v -10.550000 0.127000 5.533000
v -15.009000 0.127000 6.033000
v -10.826000 0.127000 6.033000
v -14.999000 0.127000 6.533000
v -11.061000 0.127000 6.533000
v -14.786000 0.127000 7.033000
v -11.479000 0.127000 7.033000
v -14.170000 0.127000 7.533000
v -12.018000 0.127000 7.533000
v -14.174000 -3.873000 -2.160000
v -14.174000 -3.873000 0.205000
v -13.674000 -3.873000 -2.505000
v -13.674000 -3.873000 0.810000
v -13.174000 -3.873000 -2.606000
v -13.174000 -3.873000 1.907000
v -12.674000 -3.873000 -2.561000
v -12.674000 -3.873000 2.910000
v -12.174000 -3.873000 -2.594000
v -12.174000 -3.873000 4.467000
v -11.674000 -3.873000 -2.570000
v -11.674000 -3.873000 4.864000
v -11.174000 -3.873000 -2.596000
v -11.174000 -3.873000 4.627000
v -10.674000 -3.873000 -2.654000
v -10.674000 -3.873000 3.052000
v -10.174000 -3.873000 -2.560000
v -10.174000 -3.873000 2.280000
v -9.674000 -3.873000 -2.240000
v -9.674000 -3.873000 1.706000
v -9.174000 -3.873000 -1.674000
v -9.174000 -3.873000 0.773000
v -14.674000 0.127000 4.489000
v -14.674000 0.127000 7.177000
v -14.174000 0.127000 1.607000
v -14.174000 0.127000 7.531000
v -13.674000 0.127000 1.179000
v -13.674000 0.127000 7.637000
v -13.174000 0.127000 1.075000
v -13.174000 0.127000 7.683000
v -12.674000 0.127000 1.077000
v -12.674000 0.127000 7.692000
v -12.174000 0.127000 1.122000
v -12.174000 0.127000 7.603000
v -11.674000 0.127000 1.256000
v -11.674000 0.127000 7.275000
v -11.174000 0.127000 1.639000
v -11.174000 0.127000 6.673000
v -10.674000 0.127000 2.040000
v -10.674000 0.127000 5.726000
v -13.674000 -5.214000 0.533000
v -13.674000 -2.182000 0.533000
v -13.174000 -6.106000 0.533000
v -13.174000 -0.795000 0.533000
v -12.674000 -6.429000 0.533000
v -12.674000 -0.492000 0.533000
v -12.174000 -6.517000 0.533000
v -12.174000 -0.682000 0.533000
v -11.674000 -6.481000 0.533000
v -11.674000 -1.236000 0.533000
v -11.174000 -6.368000 0.533000
v -11.174000 -1.795000 0.533000
v -10.674000 -6.013000 0.533000
v -10.674000 -2.360000 0.533000
v -10.174000 -5.593000 0.533000
v -10.174000 -2.783000 0.533000
v -9.674000 -5.241000 0.533000
v -9.674000 -3.016000 0.533000
v -9.174000 -4.750000 0.533000
v -9.174000 -3.467000 0.533000
v -14.674000 0.086000 4.533000
v -14.674000 1.579000 4.533000
v -14.174000 -1.047000 4.533000
v -14.174000 2.327000 4.533000
v -13.674000 -1.619000 4.533000
v -13.674000 2.553000 4.533000
v -13.174000 -2.588000 4.533000
v -13.174000 2.329000 4.533000
v -12.674000 -3.501000 4.533000
v -12.674000 1.974000 4.533000
v -12.174000 -3.863000 4.533000
v -12.174000 1.701000 4.533000
v -11.674000 -3.972000 4.533000
v -11.674000 1.448000 4.533000
v -11.174000 -3.894000 4.533000
v -11.174000 1.181000 4.533000
v -10.674000 -3.584000 4.533000
v -10.674000 0.812000 4.533000
v -11.412000 -3.373000 -2.467000
v -10.050000 -3.373000 -2.467000
v -14.108000 -3.373000 -1.967000
v -9.529000 -3.373000 -1.967000
v -14.360000 -3.373000 -1.467000
v -9.233000 -3.373000 -1.467000
v -14.508000 -3.373000 -0.967000
v -8.993000 -3.373000 -0.967000
v -14.493000 -3.373000 -0.467000
v -8.978000 -3.373000 -0.467000
v -14.275000 -3.373000 0.033000
v -8.998000 -3.373000 0.033000
v -13.843000 -3.373000 0.533000
v -9.241000 -3.373000 0.533000
v -13.603000 -3.373000 1.033000
v -9.531000 -3.373000 1.033000
v -13.522000 -3.373000 1.533000
v -9.767000 -3.373000 1.533000
v -13.352000 -3.373000 2.033000
v -10.034000 -3.373000 2.033000
v -13.096000 -3.373000 2.533000
v -10.236000 -3.373000 2.533000
v -12.941000 -3.373000 3.033000
v -10.364000 -3.373000 3.033000
v -12.811000 -3.373000 3.533000
v -10.497000 -3.373000 3.533000
v -12.792000 -3.373000 4.033000
v -10.498000 -3.373000 4.033000
v -12.773000 -3.373000 4.533000
v -10.496000 -3.373000 4.533000
v -12.573000 -3.373000 5.033000
v -10.732000 -3.373000 5.033000
v -12.368000 -3.373000 5.533000
v -11.314000 -3.373000 5.533000
v -12.396000 -3.373000 6.033000
v -11.717000 -3.373000 6.033000
v -12.787000 -3.373000 6.533000
v -11.631000 -3.373000 6.533000
v -12.751000 -3.373000 7.033000
v -11.667000 -3.373000 7.033000
v -13.759000 0.627000 2.033000
v -11.611000 0.627000 2.033000
v -13.763000 0.627000 2.533000
v -10.983000 0.627000 2.533000
v -13.860000 0.627000 3.033000
v -10.919000 0.627000 3.033000
v -14.122000 0.627000 3.533000
v -10.729000 0.627000 3.533000
v -14.477000 0.627000 4.033000
v -10.525000 0.627000 4.033000
v -14.861000 0.627000 4.533000
v -10.525000 0.627000 4.533000
v -15.063000 0.627000 5.033000
v -10.547000 0.627000 5.033000
v -15.065000 0.627000 5.533000
v -10.738000 0.627000 5.533000
v -15.077000 0.627000 6.033000
v -10.857000 0.627000 6.033000
v -15.065000 0.627000 6.533000
v -11.080000 0.627000 6.533000
v -14.851000 0.627000 7.033000
v -11.542000 0.627000 7.033000
v -14.311000 0.627000 7.533000
v -12.181000 0.627000 7.533000
v -14.174000 -3.373000 -1.874000
v -14.174000 -3.373000 0.161000
v -13.674000 -3.373000 -2.314000
v -13.674000 -3.373000 0.831000
v -13.174000 -3.373000 -2.430000
v -13.174000 -3.373000 2.373000
v -12.674000 -3.373000 -2.365000
v -12.674000 -3.373000 4.820000
v -12.674000 -3.373000 6.340000
v -12.674000 -3.373000 7.145000
v -12.174000 -3.373000 -2.384000
v -12.174000 -3.373000 7.357000
v -11.674000 -3.373000 -2.403000
v -11.674000 -3.373000 5.921000
v -11.674000 -3.373000 6.413000
v -11.674000 -3.373000 7.046000
v -11.174000 -3.373000 -2.550000
v -11.174000 -3.373000 5.417000
v -10.674000 -3.373000 -2.633000
v -10.674000 -3.373000 4.954000
v -10.174000 -3.373000 -2.527000
v -10.174000 -3.373000 2.344000
v -9.674000 -3.373000 -2.166000
v -9.674000 -3.373000 1.365000
v -9.174000 -3.373000 -1.383000
v -9.174000 -3.373000 0.443000
v -14.674000 0.627000 4.288000
v -14.674000 0.627000 7.242000
v -14.174000 0.627000 3.613000
v -14.174000 0.627000 7.608000
v -13.674000 0.627000 1.881000
v -13.674000 0.627000 7.726000
v -13.174000 0.627000 1.642000
v -13.174000 0.627000 7.735000
v -12.674000 0.627000 1.603000
v -12.674000 0.627000 7.647000
v -12.174000 0.627000 1.719000
v -12.174000 0.627000 7.530000
v -11.674000 0.627000 1.996000
v -11.674000 0.627000 7.194000
v -11.174000 0.627000 2.249000
v -11.174000 0.627000 6.650000
v -10.674000 0.627000 3.635000
v -10.674000 0.627000 5.364000
v -13.674000 -2.717000 1.033000
v -13.674000 -0.140000 1.033000
v -13.174000 -5.837000 1.033000
v -13.174000 0.064000 1.033000
v -12.674000 -6.259000 1.033000
v -12.674000 0.081000 1.033000
v -12.174000 -6.449000 1.033000
v -12.174000 0.018000 1.033000
v -11.674000 -6.515000 1.033000
v -11.674000 -0.301000 1.033000
v -11.174000 -6.420000 1.033000
v -11.174000 -1.621000 1.033000
v -10.674000 -6.084000 1.033000
v -10.674000 -2.491000 1.033000
v -10.174000 -5.577000 1.033000
v -10.174000 -2.843000 1.033000
v -9.674000 -5.128000 1.033000
v -9.674000 -3.204000 1.033000
v -14.674000 -0.144000 5.033000
v -14.674000 2.546000 5.033000
v -14.174000 -1.120000 5.033000
v -14.174000 2.977000 5.033000
v -13.674000 -1.691000 5.033000
v -13.674000 3.085000 5.033000
v -13.174000 -2.637000 5.033000
v -13.174000 2.974000 5.033000
v -12.674000 -3.259000 5.033000
v -12.674000 2.537000 5.033000
v -12.174000 -3.659000 5.033000
v -12.174000 1.997000 5.033000
v -11.674000 -3.785000 5.033000
v -11.674000 1.646000 5.033000
v -11.174000 -3.693000 5.033000
v -11.174000 1.290000 5.033000
v -10.674000 -3.300000 5.033000
v -10.674000 0.788000 5.033000
v -13.322000 -2.873000 -1.967000
v -9.792000 -2.873000 -1.967000
v -14.112000 -2.873000 -1.467000
v -9.571000 -2.873000 -1.467000
v -14.325000 -2.873000 -0.967000
v -9.503000 -2.873000 -0.967000
v -14.308000 -2.873000 -0.467000
v -9.491000 -2.873000 -0.467000
v -14.085000 -2.873000 0.033000
v -9.554000 -2.873000 0.033000
v -13.819000 -2.873000 0.533000
v -9.995000 -2.873000 0.533000
v -13.636000 -2.873000 1.033000
v -10.124000 -2.873000 1.033000
v -13.610000 -2.873000 1.533000
v -10.147000 -2.873000 1.533000
v -13.544000 -2.873000 2.033000
v -10.134000 -2.873000 2.033000
v -13.416000 -2.873000 2.533000
v -10.104000 -2.873000 2.533000
v -13.369000 -2.873000 3.033000
v -10.066000 -2.873000 3.033000
v -13.171000 -2.873000 3.533000
v -10.067000 -2.873000 3.533000
v -13.034000 -2.873000 4.033000
v -10.210000 -2.873000 4.033000
v -13.009000 -2.873000 4.533000
v -10.283000 -2.873000 4.533000
v -12.972000 -2.873000 5.033000
v -10.475000 -2.873000 5.033000
v -12.953000 -2.873000 5.533000
v -10.848000 -2.873000 5.533000
v -13.158000 -2.873000 6.033000
v -11.047000 -2.873000 6.033000
v -13.368000 -2.873000 6.533000
v -11.050000 -2.873000 6.533000
v -13.350000 -2.873000 7.033000
v -11.068000 -2.873000 7.033000
v -13.082000 -2.873000 7.533000
v -11.337000 -2.873000 7.533000
v -12.865000 1.127000 3.533000
v -12.469000 1.127000 3.533000
v -14.323000 1.127000 4.033000
v -11.149000 1.127000 4.033000
v -14.869000 1.127000 4.533000
v -11.093000 1.127000 4.533000
v -15.070000 1.127000 5.033000
v -11.021000 1.127000 5.033000
v -15.076000 1.127000 5.533000
v -11.045000 1.127000 5.533000
v -15.086000 1.127000 6.033000
v -11.078000 1.127000 6.033000
v -15.073000 1.127000 6.533000
v -11.358000 1.127000 6.533000
v -14.909000 1.127000 7.033000
v -11.761000 1.127000 7.033000
v -14.589000 1.127000 7.533000
v -12.395000 1.127000 7.533000
v -14.174000 -2.873000 -1.373000
v -14.174000 -2.873000 -0.136000
v -13.674000 -2.873000 -1.842000
v -13.674000 -2.873000 0.873000
v -13.174000 -2.873000 -1.982000
v -13.174000 -2.873000 3.527000
v -13.174000 -2.873000 6.061000
v -13.174000 -2.873000 7.417000
v -12.674000 -2.873000 -1.985000
v -12.674000 -2.873000 7.824000
v -12.174000 -2.873000 -2.065000
v -12.174000 -2.873000 7.919000
v -11.674000 -2.873000 -2.148000
v -11.674000 -2.873000 7.791000
v -11.174000 -2.873000 -2.315000
v -11.174000 -2.873000 7.304000
v -10.674000 -2.873000 -2.416000
v -10.674000 -2.873000 5.290000
v -10.174000 -2.873000 -2.287000
v -10.174000 -2.873000 3.888000
v -9.674000 -2.873000 -1.779000
v -9.674000 -2.873000 0.221000
v -14.674000 1.127000 4.296000
v -14.674000 1.127000 7.429000
v -14.174000 1.127000 3.942000
v -14.174000 1.127000 7.865000
v -13.674000 1.127000 3.697000
v -13.674000 1.127000 7.989000
v -13.174000 1.127000 3.565000
v -13.174000 1.127000 7.902000
v -12.674000 1.127000 3.509000
v -12.674000 1.127000 7.690000
v -12.174000 1.127000 3.605000
v -12.174000 1.127000 7.403000
v -11.674000 1.127000 3.677000
v -11.674000 1.127000 6.913000
v -11.174000 1.127000 3.978000
v -11.174000 1.127000 6.277000
v -13.674000 -4.454000 -2.467000
v -13.674000 -3.706000 -2.467000
v -13.174000 -5.102000 -2.467000
v -13.174000 -3.441000 -2.467000
v -12.674000 -5.346000 -2.467000
v -12.674000 -3.564000 -2.467000
v -12.174000 -5.283000 -2.467000
v -12.174000 -3.513000 -2.467000
v -11.674000 -5.010000 -2.467000
v -11.674000 -3.514000 -2.467000
v -11.174000 -4.720000 -2.467000
v -11.174000 -3.128000 -2.467000
v -10.674000 -4.779000 -2.467000
v -10.674000 -2.953000 -2.467000
v -10.174000 -4.597000 -2.467000
v -10.174000 -3.186000 -2.467000
v -14.174000 -1.789000 1.533000
v -14.174000 0.057000 1.533000
v -13.674000 -2.680000 1.533000
v -13.674000 0.466000 1.533000
v -13.174000 -4.176000 1.533000
v -13.174000 0.568000 1.533000
v -12.674000 -6.081000 1.533000
v -12.674000 0.583000 1.533000
v -12.174000 -6.418000 1.533000
v -12.174000 0.526000 1.533000
v -11.674000 -6.513000 1.533000
v -11.674000 0.398000 1.533000
v -11.174000 -6.419000 1.533000
v -11.174000 -0.029000 1.533000
v -10.674000 -6.084000 1.533000
v -10.674000 -2.284000 1.533000
v -10.174000 -5.575000 1.533000
v -10.174000 -2.847000 1.533000
v -9.674000 -4.789000 1.533000
v -9.674000 -3.534000 1.533000
v -14.674000 -0.334000 5.533000
v -14.674000 2.848000 5.533000
v -14.174000 -1.139000 5.533000
v -14.174000 3.181000 5.533000
v -13.674000 -1.724000 5.533000
v -13.674000 3.274000 5.533000
v -13.174000 -2.671000 5.533000
v -13.174000 3.179000 5.533000
v -12.674000 -3.168000 5.533000
v -12.674000 2.842000 5.533000
v -12.174000 -3.448000 5.533000
v -12.174000 2.297000 5.533000
v -11.674000 -3.488000 5.533000
v -11.674000 1.757000 5.533000
v -11.174000 -3.285000 5.533000
v -11.174000 1.289000 5.533000
v -10.674000 -1.392000 5.533000
v -10.674000 0.490000 5.533000
v -12.762000 -6.373000 0.033000
v -11.616000 -6.373000 0.033000
v -12.803000 -6.373000 0.533000
v -11.187000 -6.373000 0.533000
v -12.422000 -6.373000 1.033000
v -11.068000 -6.373000 1.033000
v -12.276000 -6.373000 1.533000
v -11.069000 -6.373000 1.533000
v -12.982000 -2.373000 -1.467000
v -10.218000 -2.373000 -1.467000
v -13.802000 -2.373000 -0.967000
v -10.134000 -2.373000 -0.967000
v -13.800000 -2.373000 -0.467000
v -10.147000 -2.373000 -0.467000
v -13.734000 -2.373000 0.033000
v -10.441000 -2.373000 0.033000
v -13.733000 -2.373000 0.533000
v -10.663000 -2.373000 0.533000
v -13.769000 -2.373000 1.033000
v -10.770000 -2.373000 1.033000
v -13.828000 -2.373000 1.533000
v -10.615000 -2.373000 1.533000
v -13.860000 -2.373000 2.033000
v -10.321000 -2.373000 2.033000
v -13.828000 -2.373000 2.533000
v -10.049000 -2.373000 2.533000
v -13.628000 -2.373000 3.033000
v -9.871000 -2.373000 3.033000
v -13.470000 -2.373000 3.533000
v -9.861000 -2.373000 3.533000
v -13.363000 -2.373000 4.033000
v -10.047000 -2.373000 4.033000
v -13.331000 -2.373000 4.533000
v -10.263000 -2.373000 4.533000
v -13.379000 -2.373000 5.033000
v -10.461000 -2.373000 5.033000
v -13.396000 -2.373000 5.533000
v -10.762000 -2.373000 5.533000
v -13.439000 -2.373000 6.033000
v -10.883000 -2.373000 6.033000
v -13.569000 -2.373000 6.533000
v -10.849000 -2.373000 6.533000
v -13.554000 -2.373000 7.033000
v -10.864000 -2.373000 7.033000
v -13.336000 -2.373000 7.533000
v -11.083000 -2.373000 7.533000
v -12.687000 -2.373000 8.033000
v -11.731000 -2.373000 8.033000
v -14.641000 1.627000 4.533000
v -12.036000 1.627000 4.533000
v -14.931000 1.627000 5.033000
v -11.637000 1.627000 5.033000
v -15.044000 1.627000 5.533000
v -11.546000 1.627000 5.533000
v -15.073000 1.627000 6.033000
v -11.585000 1.627000 6.033000
v -15.065000 1.627000 6.533000
v -11.721000 1.627000 6.533000
v -15.007000 1.627000 7.033000
v -11.948000 1.627000 7.033000
v -14.828000 1.627000 7.533000
v -12.409000 1.627000 7.533000
v -14.308000 1.627000 8.033000
v -12.994000 1.627000 8.033000
v -12.674000 -6.373000 -0.096000
v -12.674000 -6.373000 0.758000
v -12.174000 -6.373000 -0.315000
v -12.174000 -6.373000 1.701000
v -11.674000 -6.373000 -0.059000
v -11.674000 -6.373000 1.935000
v -11.174000 -6.373000 0.560000
v -11.174000 -6.373000 1.704000
v -13.674000 -2.373000 -1.201000
v -13.674000 -2.373000 2.917000
v -13.174000 -2.373000 -1.450000
v -13.174000 -2.373000 7.724000
v -12.674000 -2.373000 -1.558000
v -12.674000 -2.373000 8.038000
v -12.174000 -2.373000 -1.809000
v -12.174000 -2.373000 8.118000
v -11.674000 -2.373000 -1.905000
v -11.674000 -2.373000 8.010000
v -11.174000 -2.373000 -1.846000
v -11.174000 -2.373000 7.649000
v -10.674000 -2.373000 -1.791000
v -10.674000 -2.373000 0.564000
v -10.674000 -2.373000 1.419000
v -10.674000 -2.373000 5.358000
v -10.174000 -2.373000 -1.135000
v -10.174000 -2.373000 -0.415000
v -10.174000 -2.373000 2.274000
v -10.174000 -2.373000 4.292000
v -14.674000 1.627000 4.573000
v -14.674000 1.627000 7.742000
v -14.174000 1.627000 4.186000
v -14.174000 1.627000 8.097000
v -13.674000 1.627000 4.094000
v -13.674000 1.627000 8.200000
v -13.174000 1.627000 4.109000
v -13.174000 1.627000 8.115000
v -12.674000 1.627000 4.094000
v -12.674000 1.627000 7.791000
v -12.174000 1.627000 4.326000
v -12.174000 1.627000 7.319000
v -11.674000 1.627000 4.956000
v -11.674000 1.627000 6.392000
v -14.174000 -4.686000 -1.967000
v -14.174000 -3.473000 -1.967000
v -13.674000 -5.268000 -1.967000
v -13.674000 -3.005000 -1.967000
v -13.174000 -5.726000 -1.967000
v -13.174000 -2.857000 -1.967000
v -12.674000 -5.850000 -1.967000
v -12.674000 -2.853000 -1.967000
v -12.174000 -5.813000 -1.967000
v -12.174000 -2.648000 -1.967000
v -11.674000 -5.685000 -1.967000
v -11.674000 -2.473000 -1.967000
v -11.174000 -5.391000 -1.967000
v -11.174000 -2.485000 -1.967000
v -10.674000 -5.292000 -1.967000
v -10.674000 -2.460000 -1.967000
v -10.174000 -5.191000 -1.967000
v -10.174000 -2.581000 -1.967000
v -9.674000 -4.795000 -1.967000
v -9.674000 -3.032000 -1.967000
v -14.174000 -2.058000 2.033000
v -14.174000 0.338000 2.033000
v -13.674000 -2.632000 2.033000
v -13.674000 0.661000 2.033000
v -13.174000 -3.762000 2.033000
v -13.174000 0.748000 2.033000
v -12.674000 -5.762000 2.033000
v -12.674000 0.789000 2.033000
v -12.174000 -6.205000 2.033000
v -12.174000 0.726000 2.033000
v -11.674000 -6.317000 2.033000
v -11.674000 0.640000 2.033000
v -11.174000 -6.206000 2.033000
v -11.174000 0.511000 2.033000
v -10.674000 -5.781000 2.033000
v -10.674000 0.119000 2.033000
v -10.174000 -5.244000 2.033000
v -10.174000 -2.742000 2.033000
v -14.674000 -0.583000 6.033000
v -14.674000 2.884000 6.033000
v -14.174000 -1.142000 6.033000
v -14.174000 3.198000 6.033000
v -13.674000 -1.700000 6.033000
v -13.674000 3.282000 6.033000
v -13.174000 -2.855000 6.033000
v -13.174000 3.182000 6.033000
v -12.674000 -3.266000 6.033000
v -12.674000 2.839000 6.033000
v -12.174000 -3.413000 6.033000
v -12.174000 2.351000 6.033000
v -11.674000 -3.361000 6.033000
v -11.674000 1.733000 6.033000
v -11.174000 -3.042000 6.033000
v -11.174000 1.246000 6.033000
v -13.276000 -5.873000 -1.467000
v -11.578000 -5.873000 -1.467000
v -13.315000 -5.873000 -0.967000
v -10.669000 -5.873000 -0.967000
v -13.348000 -5.873000 -0.467000
v -10.597000 -5.873000 -0.467000
v -13.373000 -5.873000 0.033000
v -10.563000 -5.873000 0.033000
v -13.359000 -5.873000 0.533000
v -10.516000 -5.873000 0.533000
v -13.146000 -5.873000 1.033000
v -10.490000 -5.873000 1.033000
v -12.842000 -5.873000 1.533000
v -10.491000 -5.873000 1.533000
v -12.595000 -5.873000 2.033000
v -10.750000 -5.873000 2.033000
v -12.282000 -1.873000 -0.967000
v -11.206000 -1.873000 -0.967000
v -12.829000 -1.873000 -0.467000
v -11.138000 -1.873000 -0.467000
v -13.174000 -1.873000 0.033000
v -11.075000 -1.873000 0.033000
v -13.544000 -1.873000 0.533000
v -11.094000 -1.873000 0.533000
v -13.839000 -1.873000 1.033000
v -11.050000 -1.873000 1.033000
v -14.122000 -1.873000 1.533000
v -10.830000 -1.873000 1.533000
v -14.328000 -1.873000 2.033000
v -10.502000 -1.873000 2.033000
v -14.318000 -1.873000 2.533000
v -10.076000 -1.873000 2.533000
v -14.066000 -1.873000 3.033000
v -9.864000 -1.873000 3.033000
v -13.876000 -1.873000 3.533000
v -9.854000 -1.873000 3.533000
v -13.674000 -1.873000 4.033000
v -10.041000 -1.873000 4.033000
v -13.556000 -1.873000 4.533000
v -10.269000 -1.873000 4.533000
v -13.588000 -1.873000 5.033000
v -10.481000 -1.873000 5.033000
v -13.603000 -1.873000 5.533000
v -10.731000 -1.873000 5.533000
v -13.585000 -1.873000 6.033000
v -10.822000 -1.873000 6.033000
v -13.668000 -1.873000 6.533000
v -10.840000 -1.873000 6.533000
v -13.597000 -1.873000 7.033000
v -10.861000 -1.873000 7.033000
v -13.339000 -1.873000 7.533000
v -11.079000 -1.873000 7.533000
v -12.695000 -1.873000 8.033000
v -11.723000 -1.873000 8.033000
v -14.308000 2.127000 4.533000
v -12.911000 2.127000 4.533000
v -14.846000 2.127000 5.033000
v -12.305000 2.127000 5.033000
v -15.037000 2.127000 5.533000
v -12.028000 2.127000 5.533000
v -15.072000 2.127000 6.033000
v -11.985000 2.127000 6.033000
v -15.069000 2.127000 6.533000
v -11.973000 2.127000 6.533000
v -15.019000 2.127000 7.033000
v -12.179000 2.127000 7.033000
v -14.842000 2.127000 7.533000
v -12.460000 2.127000 7.533000
v -14.333000 2.127000 8.033000
v -12.969000 2.127000 8.033000
v -13.174000 -5.873000 -1.661000
v -13.174000 -5.873000 0.994000
v -12.674000 -5.873000 -1.925000
v -12.674000 -5.873000 1.924000
v -12.174000 -5.873000 -1.857000
v -12.174000 -5.873000 2.361000
v -11.674000 -5.873000 -1.562000
v -11.674000 -5.873000 2.472000
v -11.174000 -5.873000 -1.318000
v -11.174000 -5.873000 2.362000
v -10.674000 -5.873000 -0.979000
v -10.674000 -5.873000 1.930000
v -14.174000 -1.873000 1.633000
v -14.174000 -1.873000 2.873000
v -13.674000 -1.873000 0.749000
v -13.674000 -1.873000 4.034000
v -13.174000 -1.873000 0.033000
v -13.174000 -1.873000 7.728000
v -12.674000 -1.873000 -0.693000
v -12.674000 -1.873000 8.041000
v -12.174000 -1.873000 -1.057000
v -12.174000 -1.873000 8.121000
v -11.674000 -1.873000 -1.298000
v -11.674000 -1.873000 8.013000
v -11.174000 -1.873000 -0.870000
v -11.174000 -1.873000 7.654000
v -10.674000 -1.873000 1.767000
v -10.674000 -1.873000 5.375000
v -10.174000 -1.873000 2.405000
v -10.174000 -1.873000 4.289000
v -14.674000 2.127000 4.813000
v -14.674000 2.127000 7.760000
v -14.174000 2.127000 4.470000
v -14.174000 2.127000 8.110000
v -13.674000 2.127000 4.373000
v -13.674000 2.127000 8.213000
v -13.174000 2.127000 4.437000
v -13.174000 2.127000 8.128000
v -12.674000 2.127000 4.692000
v -12.674000 2.127000 7.809000
v -12.174000 2.127000 5.200000
v -12.174000 2.127000 7.024000
v -14.174000 -5.009000 -1.467000
v -14.174000 -2.967000 -1.467000
v -13.674000 -5.565000 -1.467000
v -13.674000 -2.507000 -1.467000
v -13.174000 -5.921000 -1.467000
v -13.174000 -2.383000 -1.467000
v -12.674000 -6.028000 -1.467000
v -12.674000 -2.305000 -1.467000
v -12.174000 -6.001000 -1.467000
v -12.174000 -2.052000 -1.467000
v -11.674000 -5.900000 -1.467000
v -11.674000 -1.960000 -1.467000
v -11.174000 -5.797000 -1.467000
v -11.174000 -2.086000 -1.467000
v -10.674000 -5.667000 -1.467000
v -10.674000 -2.262000 -1.467000
v -10.174000 -5.394000 -1.467000
v -10.174000 -2.391000 -1.467000
v -9.674000 -5.174000 -1.467000
v -9.674000 -2.744000 -1.467000
v -9.174000 -4.741000 -1.467000
v -9.174000 -3.462000 -1.467000
v -14.174000 -2.046000 2.533000
v -14.174000 0.329000 2.533000
v -13.674000 -2.552000 2.533000
v -13.674000 0.666000 2.533000
v -13.174000 -3.268000 2.533000
v -13.174000 0.767000 2.533000
v -12.674000 -4.245000 2.533000
v -12.674000 0.808000 2.533000
v -12.174000 -5.514000 2.533000
v -12.174000 0.761000 2.533000
v -11.674000 -5.764000 2.533000
v -11.674000 0.789000 2.533000
v -11.174000 -5.518000 2.533000
v -11.174000 0.711000 2.533000
v -10.674000 -5.020000 2.533000
v -10.674000 0.402000 2.533000
v -10.174000 -3.138000 2.533000
v -10.174000 -1.567000 2.533000
v -14.674000 -0.567000 6.533000
v -14.674000 2.880000 6.533000
v -14.174000 -1.106000 6.533000
v -14.174000 3.199000 6.533000
v -13.674000 -1.856000 6.533000
v -13.674000 3.289000 6.533000
v -13.174000 -3.108000 6.533000
v -13.174000 3.197000 6.533000
v -12.674000 -3.420000 6.533000
v -12.674000 2.869000 6.533000
v -12.174000 -3.500000 6.533000
v -12.174000 2.368000 6.533000
v -11.674000 -3.392000 6.533000
v -11.674000 1.544000 6.533000
v -11.174000 -3.036000 6.533000
v -11.174000 0.869000 6.533000
v -13.601000 -5.373000 -1.967000
v -11.129000 -5.373000 -1.967000
v -13.821000 -5.373000 -1.467000
v -10.131000 -5.373000 -1.467000
v -13.841000 -5.373000 -0.967000
v -9.636000 -5.373000 -0.967000
v -13.849000 -5.373000 -0.467000
v -9.591000 -5.373000 -0.467000
v -13.814000 -5.373000 0.033000
v -9.621000 -5.373000 0.033000
v -13.603000 -5.373000 0.533000
v -9.899000 -5.373000 0.533000
v -13.376000 -5.373000 1.033000
v -9.953000 -5.373000 1.033000
v -13.054000 -5.373000 1.533000
v -10.026000 -5.373000 1.533000
v -12.830000 -5.373000 2.033000
v -10.258000 -5.373000 2.033000
v -12.254000 -5.373000 2.533000
v -11.070000 -5.373000 2.533000
v -13.393000 -1.373000 0.533000
v -11.555000 -1.373000 0.533000
v -13.884000 -1.373000 1.033000
v -11.280000 -1.373000 1.033000
v -14.356000 -1.373000 1.533000
v -10.919000 -1.373000 1.533000
v -14.546000 -1.373000 2.033000
v -10.524000 -1.373000 2.033000
v -14.537000 -1.373000 2.533000
v -10.226000 -1.373000 2.533000
v -14.334000 -1.373000 3.033000
v -10.050000 -1.373000 3.033000
v -14.088000 -1.373000 3.533000
v -10.043000 -1.373000 3.533000
v -13.961000 -1.373000 4.033000
v -10.156000 -1.373000 4.033000
v -13.852000 -1.373000 4.533000
v -10.273000 -1.373000 4.533000
v -13.905000 -1.373000 5.033000
v -10.435000 -1.373000 5.033000
v -13.923000 -1.373000 5.533000
v -10.670000 -1.373000 5.533000
v -13.926000 -1.373000 6.033000
v -10.806000 -1.373000 6.033000
v -13.930000 -1.373000 6.533000
v -10.956000 -1.373000 6.533000
v -13.732000 -1.373000 7.033000
v -11.058000 -1.373000 7.033000
v -13.262000 -1.373000 7.533000
v -11.323000 -1.373000 7.533000
v -14.616000 2.627000 5.033000
v -12.737000 2.627000 5.033000
v -14.846000 2.627000 5.533000
v -12.502000 2.627000 5.533000
v -14.881000 2.627000 6.033000
v -12.473000 2.627000 6.033000
v -14.878000 2.627000 6.533000
v -12.447000 2.627000 6.533000
v -14.836000 2.627000 7.033000
v -12.465000 2.627000 7.033000
v -14.627000 2.627000 7.533000
v -12.675000 2.627000 7.533000
v -13.674000 -5.373000 -1.856000
v -13.674000 -5.373000 0.385000
v -13.174000 -5.373000 -2.326000
v -13.174000 -5.373000 1.318000
v -12.674000 -5.373000 -2.451000
v -12.674000 -5.373000 2.231000
v -12.174000 -5.373000 -2.414000
v -12.174000 -5.373000 2.567000
v -11.674000 -5.373000 -2.285000
v -11.674000 -5.373000 2.662000
v -11.174000 -5.373000 -1.988000
v -11.174000 -5.373000 2.570000
v -10.674000 -5.373000 -1.854000
v -10.674000 -5.373000 2.371000
v -10.174000 -5.373000 -1.536000
v -10.174000 -5.373000 1.911000
v -9.674000 -5.373000 -1.032000
v -9.674000 -5.373000 0.124000
v -14.174000 -1.373000 1.301000
v -14.174000 -1.373000 3.327000
v -13.674000 -1.373000 0.840000
v -13.674000 -1.373000 7.118000
v -13.174000 -1.373000 0.384000
v -13.174000 -1.373000 7.595000
v -12.674000 -1.373000 0.112000
v -12.674000 -1.373000 7.847000
v -12.174000 -1.373000 0.096000
v -12.174000 -1.373000 7.929000
v -11.674000 -1.373000 0.388000
v -11.674000 -1.373000 7.802000
v -11.174000 -1.373000 1.211000
v -11.174000 -1.373000 7.324000
v -10.674000 -1.373000 1.830000
v -10.674000 -1.373000 5.548000
v -10.174000 -1.373000 2.638000
v -10.174000 -1.373000 4.105000
v -14.674000 2.627000 5.113000
v -14.674000 2.627000 7.462000
v -14.174000 2.627000 4.684000
v -14.174000 2.627000 7.913000
v -13.674000 2.627000 4.575000
v -13.674000 2.627000 8.032000
v -13.174000 2.627000 4.686000
v -13.174000 2.627000 7.934000
v -12.674000 2.627000 5.122000
v -12.674000 2.627000 7.531000
v -14.174000 -5.039000 -0.967000
v -14.174000 -2.669000 -0.967000
v -13.674000 -5.588000 -0.967000
v -13.674000 -2.312000 -0.967000
v -13.174000 -5.941000 -0.967000
v -13.174000 -2.184000 -0.967000
v -12.674000 -6.062000 -0.967000
v -12.674000 -2.009000 -0.967000
v -12.174000 -6.066000 -0.967000
v -12.174000 -1.846000 -0.967000
v -11.674000 -6.030000 -0.967000
v -11.674000 -1.778000 -0.967000
v -11.174000 -5.983000 -0.967000
v -11.174000 -1.886000 -0.967000
v -10.674000 -5.876000 -0.967000
v -10.674000 -2.176000 -0.967000
v -10.174000 -5.575000 -0.967000
v -10.174000 -2.356000 -0.967000
v -9.674000 -5.388000 -0.967000
v -9.674000 -2.712000 -0.967000
v -9.174000 -5.061000 -0.967000
v -9.174000 -3.142000 -0.967000
v -14.174000 -1.721000 3.033000
v -14.174000 0.333000 3.033000
v -13.674000 -2.305000 3.033000
v -13.674000 0.730000 3.033000
v -13.174000 -3.128000 3.033000
v -13.174000 0.851000 3.033000
v -12.674000 -3.770000 3.033000
v -12.674000 0.873000 3.033000
v -12.174000 -4.247000 3.033000
v -12.174000 0.823000 3.033000
v -11.674000 -4.431000 3.033000
v -11.674000 0.848000 3.033000
v -11.174000 -4.319000 3.033000
v -11.174000 0.759000 3.033000
v -10.674000 -3.890000 3.033000
v -10.674000 0.421000 3.033000
v -10.174000 -3.054000 3.033000
v -10.174000 -1.054000 3.033000
v -14.674000 -0.200000 7.033000
v -14.674000 2.844000 7.033000
v -14.174000 -0.772000 7.033000
v -14.174000 3.193000 7.033000
v -13.674000 -1.520000 7.033000
v -13.674000 3.295000 7.033000
v -13.174000 -3.088000 7.033000
v -13.174000 3.211000 7.033000
v -12.674000 -3.404000 7.033000
v -12.674000 2.892000 7.033000
v -12.174000 -3.485000 7.033000
v -12.174000 2.118000 7.033000
v -11.674000 -3.377000 7.033000
v -11.674000 0.988000 7.033000
v -11.174000 -3.013000 7.033000
v -11.174000 -1.196000 7.033000
v -13.309000 -4.873000 -2.467000
v -11.544000 -4.873000 -2.467000
v -14.036000 -4.873000 -1.967000
v -9.737000 -4.873000 -1.967000
v -14.283000 -4.873000 -1.467000
v -9.274000 -4.873000 -1.467000
v -14.310000 -4.873000 -0.967000
v -9.021000 -4.873000 -0.967000
v -14.289000 -4.873000 -0.467000
v -9.002000 -4.873000 -0.467000
v -14.060000 -4.873000 0.033000
v -9.018000 -4.873000 0.033000
v -13.791000 -4.873000 0.533000
v -9.262000 -4.873000 0.533000
v -13.382000 -4.873000 1.033000
v -9.476000 -4.873000 1.033000
v -13.057000 -4.873000 1.533000
v -9.727000 -4.873000 1.533000
v -12.839000 -4.873000 2.033000
v -10.040000 -4.873000 2.033000
v -12.368000 -4.873000 2.533000
v -10.601000 -4.873000 2.533000
v -13.215000 -0.873000 0.533000
v -11.989000 -0.873000 0.533000
v -13.874000 -0.873000 1.033000
v -11.450000 -0.873000 1.033000
v -14.383000 -0.873000 1.533000
v -10.952000 -0.873000 1.533000
v -14.567000 -0.873000 2.033000
v -10.472000 -0.873000 2.033000
v -14.557000 -0.873000 2.533000
v -10.267000 -0.873000 2.533000
v -14.483000 -0.873000 3.033000
v -10.219000 -0.873000 3.033000
v -14.341000 -0.873000 3.533000
v -10.235000 -0.873000 3.533000
v -14.298000 -0.873000 4.033000
v -10.260000 -0.873000 4.033000
v -14.316000 -0.873000 4.533000
v -10.265000 -0.873000 4.533000
v -14.361000 -0.873000 5.033000
v -10.316000 -0.873000 5.033000
v -14.383000 -0.873000 5.533000
v -10.535000 -0.873000 5.533000
v -14.402000 -0.873000 6.033000
v -10.885000 -0.873000 6.033000
v -14.371000 -0.873000 6.533000
v -11.142000 -0.873000 6.533000
v -14.095000 -0.873000 7.033000
v -11.347000 -0.873000 7.033000
v -13.288000 -0.873000 7.533000
v -11.775000 -0.873000 7.533000
v -14.297000 3.127000 5.533000
v -13.057000 3.127000 5.533000
v -14.338000 3.127000 6.033000
v -13.053000 3.127000 6.033000
v -14.337000 3.127000 6.533000
v -13.019000 3.127000 6.533000
v -14.314000 3.127000 7.033000
v -12.988000 3.127000 7.033000
v -14.174000 -4.873000 -1.764000
v -14.174000 -4.873000 -0.184000
v -13.674000 -4.873000 -2.263000
v -13.674000 -4.873000 0.683000
v -13.174000 -4.873000 -2.530000
v -13.174000 -4.873000 1.323000
v -12.674000 -4.873000 -2.637000
v -12.674000 -4.873000 2.262000
v -12.174000 -4.873000 -2.610000
v -12.174000 -4.873000 2.648000
v -11.674000 -4.873000 -2.506000
v -11.674000 -4.873000 2.774000
v -11.174000 -4.873000 -2.395000
v -11.174000 -4.873000 2.701000
v -10.674000 -4.873000 -2.408000
v -10.674000 -4.873000 2.567000
v -10.174000 -4.873000 -2.308000
v -10.174000 -4.873000 2.210000
v -9.674000 -4.873000 -1.880000
v -9.674000 -4.873000 1.458000
v -9.174000 -4.873000 -1.332000
v -9.174000 -4.873000 0.407000
v -14.174000 -0.873000 1.268000
v -14.174000 -0.873000 6.936000
v -13.674000 -0.873000 0.867000
v -13.674000 -0.873000 7.359000
v -13.174000 -0.873000 0.515000
v -13.174000 -0.873000 7.568000
v -12.674000 -0.873000 0.387000
v -12.674000 -0.873000 7.702000
v -12.174000 -0.873000 0.451000
v -12.174000 -0.873000 7.696000
v -11.674000 -0.873000 0.774000
v -11.674000 -0.873000 7.460000
v -11.174000 -0.873000 1.334000
v -11.174000 -0.873000 6.619000
v -10.674000 -0.873000 1.782000
v -10.674000 -0.873000 5.731000
v -14.174000 3.127000 5.329000
v -14.174000 3.127000 7.285000
v -13.674000 3.127000 5.105000
v -13.674000 3.127000 7.522000
v -13.174000 3.127000 5.336000
v -13.174000 3.127000 7.333000
v -14.174000 -5.013000 -0.467000
v -14.174000 -2.691000 -0.467000
v -13.674000 -5.605000 -0.467000
v -13.674000 -2.294000 -0.467000
v -13.174000 -5.982000 -0.467000
v -13.174000 -2.079000 -0.467000
v -12.674000 -6.201000 -0.467000
v -12.674000 -1.791000 -0.467000
v -12.174000 -6.282000 -0.467000
v -12.174000 -1.691000 -0.467000
v -11.674000 -6.192000 -0.467000
v -11.674000 -1.729000 -0.467000
v -11.174000 -6.039000 -0.467000
v -11.174000 -1.860000 -0.467000
v -10.674000 -5.904000 -0.467000
v -10.674000 -2.135000 -0.467000
v -10.174000 -5.624000 -0.467000
v -10.174000 -2.362000 -0.467000
v -9.674000 -5.408000 -0.467000
v -9.674000 -2.714000 -0.467000
v -9.174000 -5.085000 -0.467000
v -9.174000 -3.125000 -0.467000
v -14.174000 -1.205000 3.533000
v -14.174000 0.551000 3.533000
v -13.674000 -2.137000 3.533000
v -13.674000 0.985000 3.533000
v -13.174000 -2.868000 3.533000
v -13.174000 1.106000 3.533000
v -12.674000 -3.555000 3.533000
v -12.674000 1.146000 3.533000
v -12.174000 -3.953000 3.533000
v -12.174000 1.074000 3.533000
v -11.674000 -4.086000 3.533000
v -11.674000 1.052000 3.533000
v -11.174000 -3.989000 3.533000
v -11.174000 0.948000 3.533000
v -10.674000 -3.615000 3.533000
v -10.674000 0.563000 3.533000
v -10.174000 -3.013000 3.533000
v -10.174000 -1.080000 3.533000
v -14.674000 1.263000 7.533000
v -14.674000 2.557000 7.533000
v -14.174000 0.137000 7.533000
v -14.174000 3.002000 7.533000
v -13.674000 -0.401000 7.533000
v -13.674000 3.120000 7.533000
v -13.174000 -2.752000 7.533000
v -13.174000 3.023000 7.533000
v -12.674000 -3.174000 7.533000
v -12.674000 2.625000 7.533000
v -12.174000 -3.271000 7.533000
v -12.174000 0.608000 7.533000
v -11.674000 -3.140000 7.533000
v -11.674000 -1.005000 7.533000
v -11.174000 -2.630000 7.533000
v -11.174000 -1.602000 7.533000
f 54 11 93
f 200 153 54
f 54 153 11
f 342 287 200
f 200 287 153
f 342 94 287
f 962 907 95
f 239 1075 962
f 1075 907 962
f 1075 1073 907
f 13 54 93
f 1073 13 93
f 1075 13 1073
f 54 13 155
f 54 155 200
f 200 155 289
f 200 289 342
f 429 94 342
f 289 429 342
f 431 429 289
f 431 585 429
f 587 585 431
f 587 240 585
f 585 240 96
f 241 739 97
f 97 739 737
f 909 962 95
f 737 909 95
f 739 909 737
f 239 962 909
f 751 96 240
f 751 240 753
f 98 751 983
f 751 919 983
f 751 753 919
f 983 919 1149
f 1149 919 1085
f 1085 242 1149
f 243 573 99
f 99 573 571
f 97 571 573
f 97 573 241
f 985 100 98
f 985 98 983
f 983 1151 985
f 983 1149 1151
f 1149 242 1151
f 1151 242 244
f 245 99 101
f 245 243 99
f 987 102 100
f 987 100 985
f 985 1153 987
f 985 1151 1153
f 1151 244 1153
f 1153 244 246
f 247 101 103
f 247 245 101
f 989 104 102
f 989 102 987
f 248 989 1086
f 989 1153 1086
f 989 987 1153
f 1153 246 1086
f 103 572 247
f 247 572 574
f 249 574 572
f 249 572 105
f 104 989 920
f 250 104 920
f 106 104 250
f 989 248 920
f 251 105 107
f 251 249 105
f 754 252 108
f 754 108 752
f 752 106 754
f 754 106 250
f 107 738 251
f 251 738 740
f 253 740 738
f 253 738 109
f 588 254 110
f 588 110 586
f 586 108 588
f 588 108 252
f 910 253 978
f 253 111 978
f 253 109 111
f 255 910 978
f 432 256 500
f 500 112 432
f 112 254 432
f 112 110 254
f 908 978 111
f 1076 255 1144
f 1144 255 113
f 255 978 113
f 978 908 113
f 257 1076 1144
f 290 258 366
f 500 256 290
f 500 290 366
f 430 500 366
f 114 430 366
f 112 500 430
f 1074 1144 113
f 1144 1074 257
f 1074 14 257
f 1074 12 14
f 154 14 12
f 154 156 14
f 258 156 366
f 156 288 366
f 156 154 288
f 114 366 288
f 259 185 221
f 221 185 367
f 367 185 327
f 367 327 501
f 501 327 465
f 465 260 501
f 261 1101 115
f 115 1101 1099
f 1101 37 1099
f 39 37 1101
f 39 259 221
f 183 39 221
f 37 39 183
f 367 325 183
f 367 183 221
f 501 463 325
f 501 325 367
f 260 619 665
f 260 665 116
f 501 260 116
f 463 501 116
f 665 619 833
f 833 619 785
f 785 262 833
f 816 767 117
f 263 935 816
f 935 767 816
f 935 933 767
f 115 933 935
f 115 935 261
f 667 118 116
f 667 116 665
f 665 835 667
f 665 833 835
f 833 262 835
f 835 262 264
f 265 603 119
f 119 603 601
f 769 816 117
f 601 769 117
f 603 769 601
f 263 816 769
f 669 120 118
f 669 118 667
f 667 837 669
f 667 835 837
f 835 264 837
f 837 264 266
f 267 305 121
f 121 305 303
f 305 445 303
f 447 445 305
f 119 445 447
f 119 447 265
f 671 122 120
f 671 120 669
f 268 671 786
f 671 837 786
f 671 669 837
f 837 266 786
f 208 169 123
f 121 169 208
f 269 121 208
f 267 121 269
f 673 124 122
f 673 122 671
f 671 268 673
f 673 268 270
f 208 123 171
f 123 271 171
f 123 125 271
f 269 208 171
f 124 673 620
f 272 124 620
f 126 124 272
f 673 270 620
f 273 125 127
f 273 271 125
f 126 274 128
f 272 274 126
f 127 170 273
f 273 170 172
f 275 172 170
f 275 170 129
f 466 276 130
f 466 130 464
f 464 128 466
f 466 128 274
f 129 304 275
f 275 304 306
f 446 306 304
f 446 448 306
f 446 131 662
f 604 446 662
f 448 446 604
f 604 662 830
f 604 830 770
f 770 830 996
f 770 996 936
f 936 996 132
f 1100 936 132
f 1102 936 1100
f 38 1102 1100
f 38 40 1102
f 184 40 38
f 184 186 40
f 326 186 184
f 326 328 186
f 326 130 328
f 328 130 276
f 602 662 131
f 768 830 602
f 602 830 662
f 934 996 768
f 768 996 830
f 132 996 934
f 666 633 133
f 834 799 666
f 666 799 633
f 834 134 799
f 135 668 133
f 133 668 666
f 836 666 668
f 834 666 836
f 134 834 136
f 136 834 836
f 137 670 135
f 135 670 668
f 838 668 670
f 836 668 838
f 136 836 138
f 138 836 838
f 648 617 139
f 820 783 648
f 648 783 617
f 820 140 783
f 634 670 137
f 800 838 634
f 634 838 670
f 138 838 800
f 141 650 139
f 139 650 648
f 822 648 650
f 820 648 822
f 140 820 142
f 142 820 822
f 618 650 141
f 784 822 618
f 618 822 650
f 142 822 784
f 1126 1075 239
f 56 13 1126
f 1126 13 1075
f 202 155 56
f 56 155 13
f 344 289 202
f 202 289 155
f 482 431 344
f 344 431 289
f 385 589 482
f 589 431 482
f 589 587 431
f 240 587 815
f 587 755 815
f 587 589 755
f 815 755 981
f 981 755 921
f 981 921 1147
f 1147 921 1087
f 1147 1087 79
f 79 1087 25
f 25 386 79
f 802 739 241
f 387 911 802
f 911 739 802
f 911 909 739
f 1077 1126 239
f 909 1077 239
f 911 1077 909
f 1126 1077 15
f 1126 15 56
f 56 15 157
f 56 157 202
f 202 157 291
f 202 291 344
f 344 291 433
f 344 433 482
f 385 482 433
f 815 753 240
f 981 919 753
f 981 753 815
f 1147 1085 919
f 1147 919 981
f 81 242 1085
f 1147 81 1085
f 79 81 1147
f 79 386 81
f 81 386 388
f 636 573 243
f 741 802 241
f 741 241 573
f 389 741 573
f 636 389 573
f 387 802 741
f 83 244 242
f 83 242 81
f 81 388 83
f 83 388 390
f 636 243 575
f 243 391 575
f 243 245 391
f 389 636 575
f 85 246 244
f 85 244 83
f 83 390 85
f 85 390 392
f 393 245 247
f 393 391 245
f 1086 1155 248
f 1155 1086 246
f 85 1155 246
f 87 1155 85
f 85 392 87
f 87 392 394
f 641 395 574
f 395 247 574
f 395 393 247
f 249 641 574
f 922 396 250
f 922 250 920
f 1155 1088 248
f 1088 920 248
f 1088 922 920
f 1088 1155 26
f 26 1155 87
f 87 394 26
f 641 576 395
f 397 576 641
f 249 397 641
f 251 397 249
f 590 398 656
f 590 656 252
f 754 590 252
f 756 590 754
f 754 250 756
f 756 250 396
f 251 740 397
f 397 740 742
f 399 742 740
f 399 740 253
f 254 588 656
f 398 254 656
f 400 254 398
f 252 656 588
f 253 910 399
f 399 910 912
f 401 912 910
f 401 910 255
f 434 402 256
f 434 256 432
f 432 254 434
f 434 254 400
f 255 1076 401
f 401 1076 1078
f 1076 257 74
f 16 1076 74
f 1078 1076 16
f 16 74 220
f 16 220 158
f 158 220 258
f 290 158 258
f 292 158 290
f 290 256 292
f 292 256 402
f 14 74 257
f 156 220 14
f 14 220 74
f 258 220 156
f 403 187 259
f 259 187 185
f 187 327 185
f 329 327 187
f 329 465 327
f 467 465 329
f 260 465 663
f 465 621 663
f 465 467 621
f 663 621 831
f 831 621 787
f 787 404 831
f 405 1103 261
f 261 1103 1101
f 1103 39 1101
f 41 39 1103
f 259 39 41
f 259 41 403
f 663 619 260
f 831 785 619
f 831 619 663
f 404 949 999
f 404 999 262
f 831 404 262
f 785 831 262
f 949 406 999
f 407 937 263
f 263 937 935
f 261 935 937
f 261 937 405
f 1001 264 262
f 1001 262 999
f 999 406 1001
f 1001 406 408
f 409 605 265
f 265 605 603
f 605 769 603
f 771 769 605
f 263 769 771
f 263 771 407
f 1003 266 264
f 1003 264 1001
f 1001 408 1003
f 1003 408 410
f 348 305 267
f 411 449 348
f 449 305 348
f 449 447 305
f 265 447 449
f 265 449 409
f 786 839 268
f 1003 950 266
f 266 950 786
f 950 412 786
f 412 839 786
f 1003 410 950
f 348 267 307
f 267 413 307
f 267 269 413
f 411 348 307
f 268 839 788
f 414 268 788
f 270 268 414
f 839 412 788
f 210 171 271
f 269 171 210
f 415 269 210
f 413 269 415
f 620 675 272
f 620 270 675
f 270 416 675
f 270 414 416
f 273 212 271
f 271 212 210
f 415 210 212
f 415 212 417
f 272 675 622
f 418 272 622
f 274 272 418
f 675 416 622
f 172 212 273
f 308 417 360
f 360 417 275
f 417 212 275
f 212 172 275
f 419 308 360
f 468 420 276
f 468 276 466
f 466 274 468
f 468 274 418
f 306 360 275
f 360 306 419
f 306 450 419
f 306 448 450
f 604 450 448
f 604 606 450
f 770 606 604
f 770 772 606
f 936 772 770
f 936 938 772
f 1102 938 936
f 1102 1104 938
f 40 1104 1102
f 40 42 1104
f 186 42 40
f 186 188 42
f 328 188 186
f 328 330 188
f 328 276 330
f 330 276 420
f 517 1 55
f 55 1 201
f 201 1 143
f 143 518 201
f 519 1063 1127
f 517 55 1063
f 55 1127 1063
f 55 57 1127
f 55 203 57
f 55 201 203
f 201 518 203
f 203 518 520
f 1129 521 1127
f 1127 521 519
f 1127 59 1129
f 1127 57 59
f 57 205 59
f 57 203 205
f 203 520 205
f 205 520 522
f 1131 523 1129
f 1129 523 521
f 1129 61 1131
f 1129 59 61
f 59 207 61
f 59 205 207
f 205 522 207
f 207 522 524
f 1133 525 1131
f 1131 525 523
f 1131 63 1133
f 1131 61 63
f 61 209 63
f 61 207 209
f 207 524 209
f 209 524 526
f 1133 1064 525
f 1064 1133 527
f 1133 65 527
f 1133 63 65
f 63 211 65
f 63 209 211
f 277 357 526
f 357 209 526
f 357 211 209
f 277 528 357
f 67 529 65
f 65 529 527
f 65 213 67
f 65 211 213
f 211 359 213
f 211 357 359
f 357 528 359
f 359 528 530
f 69 531 67
f 67 531 529
f 67 215 69
f 67 213 215
f 213 361 215
f 213 359 361
f 359 530 361
f 361 530 532
f 69 2 531
f 2 69 144
f 144 69 215
f 144 215 278
f 278 215 361
f 361 532 278
f 533 923 979
f 979 923 1145
f 1145 923 1089
f 1145 1089 77
f 77 1089 27
f 27 534 77
f 535 591 385
f 385 591 589
f 591 755 589
f 757 755 591
f 757 533 979
f 921 757 979
f 755 757 921
f 1145 1087 921
f 1145 921 979
f 77 25 1087
f 77 1087 1145
f 534 173 225
f 534 225 386
f 77 534 386
f 25 77 386
f 173 536 225
f 964 911 387
f 1128 1077 964
f 964 1077 911
f 58 15 1128
f 1128 15 1077
f 537 159 58
f 159 15 58
f 159 157 15
f 159 291 157
f 293 291 159
f 293 433 291
f 435 433 293
f 385 433 435
f 385 435 535
f 227 388 386
f 227 386 225
f 225 536 227
f 227 536 538
f 539 743 389
f 389 743 741
f 913 964 387
f 741 913 387
f 743 913 741
f 964 913 1079
f 964 1079 1128
f 1128 1079 17
f 1128 17 58
f 537 58 17
f 229 390 388
f 229 388 227
f 227 538 229
f 229 538 540
f 541 577 391
f 391 577 575
f 389 575 577
f 389 577 539
f 231 392 390
f 231 390 229
f 229 540 231
f 231 540 542
f 543 391 393
f 543 541 391
f 233 394 392
f 233 392 231
f 231 542 233
f 233 542 544
f 545 393 395
f 545 543 393
f 922 991 396
f 1088 1157 991
f 1088 991 922
f 26 89 1157
f 26 1157 1088
f 233 174 394
f 394 174 26
f 174 546 26
f 546 89 26
f 233 544 174
f 395 576 545
f 545 576 578
f 547 578 576
f 547 576 397
f 590 657 398
f 758 548 657
f 590 758 657
f 756 758 590
f 991 924 396
f 924 756 396
f 924 758 756
f 924 991 1090
f 1090 991 1157
f 1090 1157 28
f 28 1157 89
f 89 546 28
f 397 742 547
f 547 742 744
f 549 744 742
f 549 742 399
f 398 657 592
f 550 398 592
f 400 398 550
f 657 548 592
f 399 912 549
f 549 912 914
f 912 401 1142
f 1080 912 1142
f 914 912 1080
f 551 1080 1142
f 294 552 364
f 294 364 402
f 434 294 402
f 436 294 434
f 434 400 436
f 436 400 550
f 1078 1142 401
f 1142 1078 551
f 1078 18 551
f 1078 16 18
f 158 18 16
f 158 160 18
f 552 160 364
f 160 292 364
f 160 158 292
f 402 364 292
f 553 189 403
f 403 189 187
f 189 329 187
f 331 329 189
f 331 467 329
f 469 467 331
f 469 621 467
f 623 621 469
f 623 787 621
f 789 787 623
f 404 787 997
f 787 951 997
f 787 789 951
f 951 554 997
f 555 1105 405
f 405 1105 1103
f 1105 41 1103
f 43 41 1105
f 403 41 43
f 403 43 553
f 997 949 404
f 554 1115 1161
f 554 1161 406
f 997 554 406
f 949 997 406
f 1115 556 1161
f 557 939 407
f 407 939 937
f 405 937 939
f 405 939 555
f 1163 408 406
f 1163 406 1161
f 1161 556 1163
f 1163 556 558
f 559 607 409
f 409 607 605
f 607 771 605
f 773 771 607
f 407 771 773
f 407 773 557
f 1165 410 408
f 1165 408 1163
f 1163 558 1165
f 1165 558 560
f 561 451 411
f 411 451 449
f 409 449 451
f 409 451 559
f 950 1005 412
f 1165 1116 410
f 410 1116 950
f 1116 562 950
f 562 1005 950
f 1165 560 1116
f 563 309 413
f 413 309 307
f 411 307 309
f 411 309 561
f 788 841 414
f 1005 952 412
f 412 952 788
f 952 564 788
f 564 841 788
f 1005 562 952
f 565 413 415
f 565 563 413
f 414 841 790
f 566 414 790
f 416 414 566
f 841 564 790
f 310 565 358
f 565 417 358
f 565 415 417
f 567 310 358
f 624 568 418
f 624 418 622
f 622 416 624
f 624 416 566
f 308 358 417
f 452 567 496
f 496 567 419
f 567 358 419
f 358 308 419
f 452 496 658
f 452 658 608
f 608 658 828
f 608 828 774
f 569 774 828
f 332 570 384
f 332 384 420
f 468 332 420
f 470 332 468
f 468 418 470
f 470 418 568
f 450 496 419
f 606 658 450
f 450 658 496
f 772 828 606
f 606 828 658
f 828 772 569
f 772 940 569
f 772 938 940
f 1104 940 938
f 1104 1106 940
f 42 1106 1104
f 42 44 1106
f 188 44 42
f 188 190 44
f 570 190 384
f 190 330 384
f 190 188 330
f 420 384 330
f 677 3 53
f 53 3 199
f 199 3 145
f 145 678 199
f 679 1065 1125
f 677 53 1065
f 1065 53 1125
f 53 1 1125
f 1 517 1125
f 199 143 1
f 199 1 53
f 678 279 343
f 678 343 518
f 199 678 518
f 143 199 518
f 279 680 343
f 681 899 963
f 679 1125 899
f 899 1125 963
f 1125 1063 963
f 1063 519 963
f 1125 517 1063
f 345 520 518
f 345 518 343
f 421 483 680
f 483 343 680
f 483 345 343
f 421 682 483
f 965 683 963
f 963 683 681
f 963 519 521
f 963 521 965
f 347 522 520
f 347 520 345
f 345 487 347
f 345 483 487
f 483 682 487
f 487 682 684
f 967 685 965
f 965 685 683
f 965 521 523
f 965 523 967
f 351 524 522
f 351 522 347
f 347 489 351
f 347 487 489
f 487 684 489
f 489 684 686
f 969 687 967
f 967 687 685
f 967 523 525
f 967 525 969
f 353 526 524
f 353 524 351
f 351 491 353
f 351 489 491
f 489 686 491
f 491 686 688
f 971 689 969
f 969 689 687
f 969 525 1064
f 1135 969 1064
f 971 969 1135
f 527 1135 1064
f 353 277 526
f 493 528 277
f 353 493 277
f 491 493 353
f 491 688 493
f 493 688 690
f 971 900 689
f 900 971 691
f 971 1137 691
f 971 1135 1137
f 1135 527 529
f 1135 529 1137
f 495 530 528
f 495 528 493
f 493 690 495
f 495 690 692
f 1139 693 1137
f 1137 693 691
f 1137 529 531
f 1137 531 1139
f 497 532 530
f 497 530 495
f 495 692 497
f 497 692 694
f 1139 1066 693
f 71 695 2
f 2 695 531
f 695 1066 531
f 1066 1139 531
f 144 217 71
f 144 71 2
f 278 363 217
f 278 217 144
f 497 422 532
f 532 422 278
f 422 696 278
f 696 363 278
f 497 694 422
f 71 4 695
f 4 71 146
f 146 71 217
f 146 217 280
f 280 217 363
f 363 696 280
f 697 759 813
f 813 759 533
f 759 923 533
f 759 925 923
f 925 1089 923
f 1091 1089 925
f 1091 27 1089
f 29 27 1091
f 534 27 223
f 27 175 223
f 27 29 175
f 175 698 223
f 699 593 535
f 535 593 591
f 593 697 813
f 757 593 813
f 591 593 757
f 813 533 757
f 223 173 534
f 698 317 371
f 698 371 536
f 223 698 536
f 173 223 536
f 317 700 371
f 204 159 537
f 701 295 204
f 295 159 204
f 295 293 159
f 295 435 293
f 437 435 295
f 535 435 437
f 535 437 699
f 373 538 536
f 373 536 371
f 371 700 373
f 373 700 702
f 804 743 539
f 703 915 804
f 915 743 804
f 915 913 743
f 915 1079 913
f 1081 1079 915
f 1081 17 1079
f 19 17 1081
f 161 204 537
f 17 161 537
f 19 161 17
f 701 204 161
f 375 540 538
f 375 538 373
f 373 702 375
f 375 702 704
f 638 577 541
f 745 804 539
f 745 539 577
f 705 745 577
f 638 705 577
f 703 804 745
f 377 542 540
f 377 540 375
f 375 704 377
f 377 704 706
f 543 640 541
f 541 640 638
f 705 638 640
f 705 640 707
f 379 544 542
f 379 542 377
f 377 706 379
f 379 706 708
f 545 642 543
f 543 642 640
f 707 640 642
f 707 642 709
f 174 235 546
f 379 318 544
f 544 318 174
f 318 710 174
f 710 235 174
f 379 708 318
f 578 642 545
f 746 709 812
f 812 709 547
f 709 642 547
f 642 578 547
f 711 746 812
f 758 827 548
f 924 993 827
f 924 827 758
f 1090 1159 993
f 1090 993 924
f 28 91 1159
f 28 1159 1090
f 235 176 546
f 546 176 28
f 176 712 28
f 712 91 28
f 235 710 176
f 744 812 547
f 916 711 976
f 976 711 549
f 711 812 549
f 812 744 549
f 713 916 976
f 594 714 550
f 594 550 592
f 827 760 548
f 760 592 548
f 760 594 592
f 760 827 926
f 926 827 993
f 926 993 1092
f 1092 993 1159
f 1092 1159 30
f 30 1159 91
f 91 712 30
f 914 976 549
f 976 914 713
f 914 1082 713
f 914 1080 1082
f 1080 551 72
f 20 1080 72
f 1082 1080 20
f 20 72 218
f 20 218 162
f 162 218 552
f 294 162 552
f 296 162 294
f 436 296 294
f 436 438 296
f 436 550 438
f 438 550 714
f 18 72 551
f 160 218 18
f 18 218 72
f 552 218 160
f 715 45 75
f 75 45 553
f 45 189 553
f 45 191 189
f 191 331 189
f 333 331 191
f 333 469 331
f 471 469 333
f 471 623 469
f 625 623 471
f 625 789 623
f 791 789 625
f 791 951 789
f 953 951 791
f 953 716 951
f 951 716 554
f 717 1107 555
f 555 1107 1105
f 1107 715 75
f 43 1107 75
f 1105 1107 43
f 75 553 43
f 1115 554 716
f 1115 716 1117
f 1117 718 1115
f 1115 718 556
f 719 941 557
f 557 941 939
f 555 939 941
f 555 941 717
f 556 720 558
f 718 720 556
f 721 609 559
f 559 609 607
f 609 773 607
f 775 773 609
f 557 773 775
f 557 775 719
f 558 722 560
f 720 722 558
f 723 453 561
f 561 453 451
f 559 451 453
f 559 453 721
f 1118 724 562
f 1118 562 1116
f 1116 560 1118
f 1118 560 722
f 725 311 563
f 563 311 309
f 561 309 311
f 561 311 723
f 954 726 564
f 954 564 952
f 952 562 954
f 954 562 724
f 312 725 354
f 725 565 354
f 725 563 565
f 727 312 354
f 792 728 566
f 792 566 790
f 790 564 792
f 792 564 726
f 310 354 565
f 727 354 310
f 567 727 310
f 729 727 567
f 626 730 568
f 626 568 624
f 624 566 626
f 626 566 728
f 567 452 729
f 729 452 454
f 608 454 452
f 608 610 454
f 774 610 608
f 774 776 610
f 774 569 994
f 942 774 994
f 776 774 942
f 942 994 1160
f 942 1160 1108
f 1108 1160 92
f 1108 92 46
f 46 92 238
f 46 238 192
f 192 238 570
f 332 192 570
f 334 192 332
f 470 334 332
f 470 472 334
f 470 568 472
f 472 568 730
f 940 994 569
f 1106 1160 940
f 940 1160 994
f 44 92 1106
f 1106 92 1160
f 190 238 44
f 44 238 92
f 570 238 190
f 843 1067 1123
f 1123 1067 677
f 1067 3 677
f 1067 5 3
f 5 145 3
f 147 145 5
f 678 145 341
f 145 281 341
f 145 147 281
f 281 844 341
f 845 901 961
f 843 1123 901
f 901 1123 961
f 1123 1065 961
f 1065 679 961
f 1123 677 1065
f 341 279 678
f 844 423 481
f 844 481 680
f 341 844 680
f 279 341 680
f 423 846 481
f 847 731 801
f 845 961 731
f 731 961 801
f 961 899 801
f 899 681 801
f 961 679 899
f 481 421 680
f 481 846 421
f 846 682 421
f 846 848 682
f 803 849 801
f 801 849 847
f 801 681 683
f 801 683 803
f 848 579 647
f 684 848 647
f 682 848 684
f 579 850 647
f 805 851 803
f 803 851 849
f 803 683 685
f 803 685 805
f 649 686 684
f 649 684 647
f 647 850 649
f 649 850 852
f 807 853 805
f 805 853 851
f 805 685 687
f 805 687 807
f 651 688 686
f 651 686 649
f 649 852 651
f 651 852 854
f 807 732 853
f 855 732 807
f 687 855 807
f 689 855 687
f 653 690 688
f 653 688 651
f 651 854 653
f 653 854 856
f 973 857 900
f 857 689 900
f 857 855 689
f 691 973 900
f 655 692 690
f 655 690 653
f 653 856 655
f 655 856 858
f 975 859 973
f 973 859 857
f 973 691 693
f 973 693 975
f 692 655 580
f 860 692 580
f 694 692 860
f 655 858 580
f 975 902 859
f 1141 861 1066
f 1066 861 693
f 861 902 693
f 902 975 693
f 695 1141 1066
f 422 499 696
f 422 694 499
f 694 862 499
f 694 860 862
f 1141 1068 861
f 73 863 4
f 4 863 695
f 863 1068 695
f 1068 1141 695
f 146 219 73
f 146 73 4
f 282 864 219
f 146 282 219
f 280 282 146
f 499 424 696
f 424 280 696
f 424 282 280
f 499 862 424
f 73 6 863
f 6 73 148
f 148 73 219
f 219 864 148
f 865 761 697
f 697 761 759
f 761 925 759
f 927 925 761
f 927 1091 925
f 1093 1091 927
f 1093 29 1091
f 31 29 1093
f 31 175 29
f 177 175 31
f 177 866 175
f 175 866 698
f 867 595 699
f 699 595 593
f 697 593 595
f 697 595 865
f 317 698 866
f 317 866 319
f 319 868 317
f 317 868 700
f 346 295 701
f 869 439 346
f 439 295 346
f 439 437 295
f 699 437 439
f 699 439 867
f 700 870 702
f 868 870 700
f 966 915 703
f 1130 1081 966
f 966 1081 915
f 60 19 1130
f 1130 19 1081
f 871 163 60
f 163 19 60
f 163 161 19
f 297 346 701
f 161 297 701
f 163 297 161
f 869 346 297
f 702 872 704
f 870 872 702
f 806 745 705
f 917 966 703
f 917 703 745
f 873 917 745
f 806 873 745
f 966 917 1083
f 966 1083 1130
f 1130 1083 21
f 1130 21 60
f 871 60 21
f 704 874 706
f 872 874 704
f 707 808 705
f 705 808 806
f 873 806 808
f 873 808 875
f 706 876 708
f 874 876 706
f 709 810 707
f 707 810 808
f 875 808 810
f 875 810 877
f 318 381 710
f 318 708 381
f 708 878 381
f 708 876 878
f 746 810 709
f 918 877 974
f 974 877 711
f 877 810 711
f 810 746 711
f 879 918 974
f 176 237 712
f 381 320 710
f 710 320 176
f 320 880 176
f 880 237 176
f 381 878 320
f 916 974 711
f 1084 879 1140
f 1140 879 713
f 879 974 713
f 974 916 713
f 1084 1140 70
f 1084 70 22
f 22 70 216
f 22 216 164
f 164 216 362
f 164 362 298
f 881 298 362
f 594 661 714
f 760 829 661
f 760 661 594
f 928 882 829
f 760 928 829
f 926 928 760
f 1092 928 926
f 1092 1094 928
f 30 1094 1092
f 30 32 1094
f 237 178 712
f 178 30 712
f 178 32 30
f 237 880 178
f 1082 1140 713
f 20 70 1082
f 1082 70 1140
f 162 216 20
f 20 216 70
f 296 362 162
f 162 362 216
f 362 296 881
f 296 440 881
f 296 438 440
f 661 596 714
f 596 438 714
f 596 440 438
f 596 661 762
f 762 661 829
f 829 882 762
f 883 47 715
f 715 47 45
f 47 191 45
f 193 191 47
f 193 333 191
f 335 333 193
f 335 471 333
f 473 471 335
f 473 625 471
f 627 625 473
f 627 791 625
f 793 791 627
f 793 953 791
f 955 953 793
f 955 884 953
f 953 884 716
f 885 1109 717
f 717 1109 1107
f 715 1107 1109
f 715 1109 883
f 1117 716 884
f 1117 884 1119
f 1119 886 1117
f 1117 886 718
f 887 943 719
f 719 943 941
f 717 941 943
f 717 943 885
f 718 888 720
f 886 888 718
f 889 455 485
f 485 455 721
f 455 609 721
f 455 611 609
f 611 775 609
f 777 775 611
f 719 775 777
f 719 777 887
f 720 890 722
f 888 890 720
f 891 313 349
f 889 485 313
f 313 485 349
f 485 453 349
f 453 723 349
f 485 721 453
f 1120 892 724
f 1120 724 1118
f 1118 722 1120
f 1120 722 890
f 311 725 349
f 725 891 349
f 725 893 891
f 349 723 311
f 956 894 726
f 956 726 954
f 954 724 956
f 956 724 892
f 355 895 312
f 895 725 312
f 895 893 725
f 727 355 312
f 628 896 676
f 628 676 728
f 792 628 728
f 794 628 792
f 792 726 794
f 794 726 894
f 355 314 895
f 897 314 355
f 727 897 355
f 729 897 727
f 474 898 516
f 676 896 474
f 676 474 516
f 626 676 516
f 730 626 516
f 728 676 626
f 729 454 897
f 897 454 456
f 610 456 454
f 610 612 456
f 776 612 610
f 776 778 612
f 942 778 776
f 942 944 778
f 1108 944 942
f 1108 1110 944
f 46 1110 1108
f 46 48 1110
f 192 48 46
f 192 194 48
f 334 194 192
f 334 336 194
f 898 336 516
f 336 472 516
f 336 334 472
f 730 516 472
f 1007 1069 843
f 843 1069 1067
f 1069 5 1067
f 7 5 1069
f 7 147 5
f 149 147 7
f 149 281 147
f 283 281 149
f 844 281 479
f 281 425 479
f 281 283 425
f 425 1008 479
f 1009 903 845
f 845 903 901
f 843 901 903
f 843 903 1007
f 479 423 844
f 1008 581 643
f 1008 643 846
f 479 1008 846
f 423 479 846
f 581 1010 643
f 1011 733 847
f 847 733 731
f 845 731 733
f 845 733 1009
f 645 848 846
f 645 846 643
f 643 1010 645
f 645 1010 1012
f 1013 847 849
f 1013 1011 847
f 645 579 848
f 645 1012 579
f 1012 850 579
f 1012 1014 850
f 1015 849 851
f 1015 1013 849
f 1014 747 821
f 852 1014 821
f 850 1014 852
f 747 1016 821
f 1017 851 853
f 1017 1015 851
f 823 854 852
f 823 852 821
f 821 1016 823
f 823 1016 1018
f 809 1019 732
f 1019 853 732
f 1019 1017 853
f 855 809 732
f 854 823 748
f 1020 854 748
f 856 854 1020
f 823 1018 748
f 811 1021 809
f 809 1021 1019
f 809 855 857
f 809 857 811
f 856 1022 858
f 1020 1022 856
f 811 734 1021
f 1023 734 811
f 857 1023 811
f 859 1023 857
f 580 659 860
f 580 858 659
f 858 1024 659
f 858 1022 1024
f 977 1025 902
f 1025 859 902
f 1025 1023 859
f 861 977 902
f 860 659 582
f 1026 860 582
f 862 860 1026
f 659 1024 582
f 977 904 1025
f 1143 1027 1068
f 1068 1027 861
f 1027 904 861
f 904 977 861
f 863 1143 1068
f 282 365 864
f 426 1028 365
f 282 426 365
f 424 426 282
f 424 862 426
f 426 862 1026
f 1143 1070 1027
f 863 6 1143
f 6 1070 1143
f 6 8 1070
f 148 8 6
f 148 150 8
f 365 284 864
f 284 148 864
f 284 150 148
f 365 1028 284
f 814 761 865
f 1029 929 814
f 929 761 814
f 929 927 761
f 929 1093 927
f 1095 1093 929
f 1095 31 1093
f 33 31 1095
f 33 177 31
f 179 177 33
f 179 1030 177
f 177 1030 866
f 644 595 867
f 763 814 865
f 763 865 595
f 1031 763 595
f 644 1031 595
f 1029 814 763
f 319 866 1030
f 319 1030 321
f 321 1032 319
f 319 1032 868
f 1033 441 869
f 869 441 439
f 597 644 867
f 439 597 867
f 441 597 439
f 1031 644 597
f 868 1034 870
f 1032 1034 868
f 206 163 871
f 1035 299 206
f 299 163 206
f 299 297 163
f 869 297 299
f 869 299 1033
f 870 1036 872
f 1034 1036 870
f 968 917 873
f 1132 1083 968
f 968 1083 917
f 62 21 1132
f 1132 21 1083
f 165 206 871
f 165 871 21
f 1037 165 21
f 62 1037 21
f 1035 206 165
f 872 1038 874
f 1036 1038 872
f 875 970 873
f 873 970 968
f 1134 968 970
f 1132 968 1134
f 1134 1039 23
f 62 1134 23
f 1132 1134 62
f 1037 62 23
f 874 1040 876
f 1038 1040 874
f 877 972 875
f 875 972 970
f 1136 970 972
f 1134 970 1136
f 66 24 1039
f 1134 66 1039
f 1136 66 1134
f 1041 24 66
f 876 1042 878
f 1040 1042 876
f 918 972 877
f 879 1138 918
f 1138 972 918
f 1138 1136 972
f 68 1136 1138
f 66 1136 68
f 1041 66 68
f 1041 68 1043
f 322 1044 880
f 322 880 320
f 320 878 322
f 322 878 1042
f 1084 1138 879
f 22 68 1084
f 1084 68 1138
f 68 22 1043
f 22 166 1043
f 22 164 166
f 298 166 164
f 298 300 166
f 1045 300 298
f 1045 298 881
f 928 995 882
f 1096 1046 995
f 928 1096 995
f 1094 1096 928
f 32 1096 1094
f 32 34 1096
f 178 34 32
f 178 180 34
f 178 880 180
f 180 880 1044
f 881 440 1045
f 1045 440 442
f 596 442 440
f 596 598 442
f 762 598 596
f 762 764 598
f 995 930 882
f 930 762 882
f 930 764 762
f 995 1046 930
f 76 47 883
f 1047 195 76
f 195 47 76
f 195 193 47
f 195 335 193
f 337 335 195
f 337 473 335
f 475 473 337
f 475 627 473
f 629 627 475
f 629 793 627
f 795 793 629
f 795 955 793
f 957 955 795
f 957 1048 955
f 955 1048 884
f 1146 1109 885
f 49 76 883
f 49 883 1109
f 1049 49 1109
f 1146 1049 1109
f 1047 76 49
f 1119 884 1048
f 1119 1048 1121
f 1121 1050 1119
f 1119 1050 886
f 1051 945 887
f 887 945 943
f 1111 1146 885
f 943 1111 885
f 945 1111 943
f 1049 1146 1111
f 886 1052 888
f 1050 1052 886
f 1053 457 889
f 889 457 455
f 457 611 455
f 613 611 457
f 613 777 611
f 779 777 613
f 887 777 779
f 887 779 1051
f 888 1054 890
f 1052 1054 888
f 1055 315 891
f 891 315 313
f 889 313 315
f 889 315 1053
f 1122 1056 892
f 1122 892 1120
f 1120 890 1122
f 1122 890 1054
f 1057 891 893
f 1057 1055 891
f 796 1058 842
f 796 842 894
f 956 796 894
f 958 796 956
f 956 892 958
f 958 892 1056
f 1059 893 895
f 1059 1057 893
f 476 1060 514
f 476 514 896
f 628 476 896
f 630 476 628
f 1058 630 842
f 630 794 842
f 630 628 794
f 894 842 794
f 895 314 1059
f 1059 314 316
f 1061 316 314
f 1061 314 897
f 1112 1062 1158
f 1112 1158 90
f 1112 90 50
f 50 90 236
f 50 236 196
f 196 236 382
f 196 382 338
f 514 1060 338
f 514 338 382
f 474 514 382
f 898 474 382
f 896 514 474
f 897 456 1061
f 1061 456 458
f 612 458 456
f 612 614 458
f 778 614 612
f 778 780 614
f 944 780 778
f 944 946 780
f 1062 946 1158
f 946 1110 1158
f 946 944 1110
f 48 90 1110
f 1110 90 1158
f 194 236 48
f 48 236 90
f 336 382 194
f 194 382 236
f 898 382 336
f 1167 1071 1007
f 1007 1071 1069
f 1071 7 1069
f 9 7 1071
f 9 149 7
f 151 149 9
f 151 283 149
f 285 283 151
f 285 425 283
f 427 425 285
f 427 1168 425
f 425 1168 1008
f 1169 905 1009
f 1009 905 903
f 1007 903 905
f 1007 905 1167
f 581 1008 1168
f 581 1168 583
f 583 1170 581
f 581 1170 1010
f 1171 735 1011
f 1011 735 733
f 1009 733 735
f 1009 735 1169
f 1010 1172 1012
f 1170 1172 1010
f 1173 1011 1013
f 1173 1171 1011
f 1172 749 819
f 1014 1172 819
f 1012 1172 1014
f 749 1174 819
f 1175 1013 1015
f 1175 1173 1013
f 819 747 1014
f 819 1174 747
f 1174 1016 747
f 1174 1176 1016
f 1177 1015 1017
f 1177 1175 1015
f 1016 1178 1018
f 1176 1178 1016
f 1179 1017 1019
f 1179 1177 1017
f 748 825 1020
f 748 1018 825
f 1018 1180 825
f 1018 1178 1180
f 1181 1019 1021
f 1181 1179 1019
f 1020 825 750
f 1182 1020 750
f 1022 1020 1182
f 825 1180 750
f 1021 734 1181
f 1181 734 736
f 1183 736 734
f 1183 734 1023
f 1022 1184 1024
f 1182 1184 1022
f 1185 1023 1025
f 1185 1183 1023
f 584 1186 1026
f 584 1026 582
f 582 1024 584
f 584 1024 1184
f 1025 904 1185
f 1185 904 906
f 1187 906 904
f 1187 904 1027
f 428 1188 1028
f 428 1028 426
f 426 1026 428
f 428 1026 1186
f 1027 1070 1187
f 1187 1070 1072
f 8 1072 1070
f 8 10 1072
f 150 10 8
f 150 152 10
f 284 152 150
f 284 286 152
f 284 1028 286
f 286 1028 1188
f 980 929 1029
f 1189 1097 980
f 1097 929 980
f 1097 1095 929
f 1097 33 1095
f 35 33 1097
f 35 179 33
f 181 179 35
f 181 1190 179
f 179 1190 1030
f 1191 765 1031
f 1031 765 763
f 931 980 1029
f 763 931 1029
f 765 931 763
f 1189 980 931
f 321 1030 1190
f 321 1190 323
f 323 1192 321
f 321 1192 1032
f 484 441 1033
f 1193 599 484
f 599 441 484
f 599 597 441
f 1031 597 599
f 1031 599 1191
f 1032 1194 1034
f 1192 1194 1032
f 1195 301 1035
f 1035 301 299
f 443 484 1033
f 299 443 1033
f 301 443 299
f 1193 484 443
f 1194 461 509
f 1036 1194 509
f 1034 1194 1036
f 461 1196 509
f 1197 167 1037
f 1037 167 165
f 1035 165 167
f 1035 167 1195
f 1036 509 462
f 1198 1036 462
f 1038 1036 1198
f 509 1196 462
f 64 23 1039
f 1037 23 64
f 1199 1037 64
f 1197 1037 1199
f 1038 1200 1040
f 1198 1200 1038
f 24 64 1039
f 1199 64 24
f 1041 1199 24
f 1201 1199 1041
f 1040 1202 1042
f 1200 1202 1040
f 168 1201 214
f 1201 1043 214
f 1201 1041 1043
f 1203 168 214
f 324 1204 1044
f 324 1044 322
f 322 1042 324
f 324 1042 1202
f 166 214 1043
f 214 166 1203
f 166 302 1203
f 166 300 302
f 1205 302 300
f 1205 300 1045
f 1098 1206 1046
f 1098 1046 1096
f 34 1098 1096
f 34 36 1098
f 180 36 34
f 180 182 36
f 180 1044 182
f 182 1044 1204
f 1045 442 1205
f 1205 442 444
f 598 444 442
f 598 600 444
f 764 600 598
f 764 766 600
f 930 766 764
f 930 932 766
f 930 1046 932
f 932 1046 1206
f 222 195 1047
f 368 337 222
f 222 337 195
f 502 475 368
f 368 475 337
f 1207 631 502
f 631 475 502
f 631 629 475
f 631 795 629
f 797 795 631
f 998 957 1208
f 957 797 1208
f 957 795 797
f 998 1048 957
f 78 49 1049
f 49 78 1047
f 78 222 1047
f 78 224 222
f 224 1209 339
f 368 224 339
f 222 224 368
f 368 339 477
f 368 477 502
f 1207 502 477
f 959 998 1208
f 1210 1162 1121
f 1210 1121 1048
f 959 1210 1048
f 998 959 1048
f 1162 1050 1121
f 982 945 1051
f 1148 1111 982
f 982 1111 945
f 51 78 1049
f 51 1049 1111
f 1211 51 1111
f 1148 1211 1111
f 78 51 197
f 78 197 224
f 1209 224 197
f 1212 1164 1162
f 1212 1162 1210
f 1050 1162 1052
f 1052 1162 1164
f 486 457 1053
f 1213 615 486
f 615 457 486
f 615 613 457
f 615 779 613
f 781 779 615
f 947 982 1051
f 779 947 1051
f 781 947 779
f 982 947 1113
f 982 1113 1148
f 1211 1148 1113
f 1214 1166 1164
f 1214 1164 1212
f 1052 1164 1054
f 1054 1164 1166
f 350 315 1055
f 459 486 1053
f 459 1053 315
f 1215 459 315
f 350 1215 315
f 1213 486 459
f 960 1216 1006
f 1166 1214 960
f 1166 960 1006
f 1122 1166 1006
f 1056 1122 1006
f 1054 1166 1122
f 1057 352 1055
f 1055 352 350
f 1215 350 352
f 1215 352 1217
f 340 1218 378
f 340 378 512
f 340 512 478
f 478 512 674
f 478 674 632
f 632 674 1058
f 796 632 1058
f 798 632 796
f 1216 798 1006
f 798 958 1006
f 798 796 958
f 1056 1006 958
f 1059 356 1057
f 1057 356 352
f 1217 352 356
f 1217 356 1219
f 1114 1220 1156
f 1114 1156 88
f 1114 88 52
f 52 88 234
f 52 234 198
f 378 1218 198
f 234 378 198
f 380 378 234
f 476 512 1060
f 512 380 1060
f 512 378 380
f 630 674 476
f 476 674 512
f 1058 674 630
f 316 356 1059
f 460 1219 494
f 494 1219 1061
f 1219 356 1061
f 356 316 1061
f 1221 460 494
f 948 1222 992
f 1156 1220 948
f 1156 948 992
f 1112 1156 992
f 1062 1112 992
f 50 88 1112
f 1112 88 1156
f 196 234 50
f 50 234 88
f 338 380 196
f 196 380 234
f 1060 380 338
f 458 494 1061
f 494 458 1221
f 458 616 1221
f 458 614 616
f 780 616 614
f 780 782 616
f 1222 782 992
f 782 946 992
f 782 780 946
f 1062 992 946
f 1124 1071 1167
f 93 11 1124
f 11 1071 1124
f 11 9 1071
f 11 151 9
f 153 151 11
f 153 285 151
f 287 285 153
f 480 427 94
f 427 287 94
f 427 285 287
f 480 1168 427
f 95 907 1169
f 1169 907 905
f 1073 1124 1167
f 905 1073 1167
f 907 1073 905
f 93 1124 1073
f 429 480 94
f 583 1168 480
f 429 583 480
f 585 583 429
f 585 96 583
f 583 96 1170
f 97 737 1171
f 1171 737 735
f 1169 735 737
f 1169 737 95
f 96 751 817
f 1172 96 817
f 1170 96 1172
f 751 98 817
f 99 571 635
f 1173 635 571
f 97 1173 571
f 1171 1173 97
f 817 749 1172
f 817 98 749
f 98 1174 749
f 98 100 1174
f 637 101 635
f 635 101 99
f 635 1173 1175
f 635 1175 637
f 1174 102 1176
f 100 102 1174
f 639 103 637
f 637 103 101
f 637 1175 1177
f 637 1177 639
f 1176 104 1178
f 102 104 1176
f 639 572 103
f 105 572 639
f 1177 105 639
f 1179 105 1177
f 1178 106 1180
f 104 106 1178
f 107 1179 1181
f 107 105 1179
f 752 108 1182
f 752 1182 750
f 750 1180 752
f 752 1180 106
f 1181 736 107
f 107 736 738
f 109 738 736
f 109 736 1183
f 586 110 660
f 660 1184 586
f 1184 108 586
f 1184 1182 108
f 111 1183 1185
f 111 109 1183
f 1186 584 660
f 110 1186 660
f 112 1186 110
f 1184 660 584
f 1185 906 111
f 111 906 908
f 113 908 906
f 113 906 1187
f 430 114 1188
f 430 1188 428
f 428 1186 430
f 430 1186 112
f 1187 1072 113
f 113 1072 1074
f 10 1074 1072
f 10 12 1074
f 152 12 10
f 152 154 12
f 286 154 152
f 286 288 154
f 286 1188 288
f 288 1188 114
f 115 1099 1189
f 1189 1099 1097
f 1099 35 1097
f 37 35 1099
f 37 181 35
f 183 181 37
f 1190 181 369
f 181 325 369
f 181 183 325
f 369 325 503
f 503 325 463
f 463 116 503
f 117 767 1191
f 1191 767 765
f 767 931 765
f 933 931 767
f 1189 931 933
f 1189 933 115
f 369 323 1190
f 505 1192 323
f 369 505 323
f 503 505 369
f 503 116 505
f 505 116 118
f 119 601 1193
f 1193 601 599
f 1191 599 601
f 1191 601 117
f 507 1194 1192
f 507 1192 505
f 505 118 507
f 507 118 120
f 121 303 1195
f 1195 303 301
f 303 443 301
f 445 443 303
f 1193 443 445
f 1193 445 119
f 507 461 1194
f 507 120 461
f 120 1196 461
f 120 122 1196
f 123 169 1197
f 1197 169 167
f 1195 167 169
f 1195 169 121
f 462 511 1198
f 462 1196 511
f 1196 124 511
f 1196 122 124
f 125 1197 1199
f 125 123 1197
f 513 1200 1198
f 513 1198 511
f 511 124 513
f 513 124 126
f 127 1199 1201
f 127 125 1199
f 515 1202 1200
f 515 1200 513
f 513 126 515
f 515 126 128
f 1201 168 127
f 127 168 170
f 129 170 168
f 129 168 1203
f 324 383 1204
f 515 464 1202
f 1202 464 324
f 464 130 324
f 130 383 324
f 515 128 464
f 1203 302 129
f 129 302 304
f 302 1205 498
f 446 302 498
f 304 302 446
f 131 446 498
f 1100 132 1206
f 1100 1206 1098
f 36 1100 1098
f 36 38 1100
f 182 38 36
f 182 184 38
f 383 326 1204
f 326 182 1204
f 326 184 182
f 383 130 326
f 444 498 1205
f 498 444 131
f 444 602 131
f 444 600 602
f 766 602 600
f 766 768 602
f 932 768 766
f 932 934 768
f 932 1206 934
f 934 1206 132
f 664 631 1207
f 832 797 664
f 664 797 631
f 832 1208 797
f 370 339 1209
f 504 477 370
f 370 477 339
f 633 664 1207
f 633 1207 477
f 133 633 477
f 504 133 477
f 664 633 799
f 664 799 832
f 134 1000 959
f 134 959 1208
f 799 134 1208
f 832 799 1208
f 1000 1210 959
f 80 51 1211
f 226 197 80
f 80 197 51
f 197 226 1209
f 226 370 1209
f 226 372 370
f 506 370 372
f 504 370 506
f 133 504 506
f 133 506 135
f 136 1002 1000
f 136 1000 134
f 1210 1000 1212
f 1212 1000 1002
f 646 615 1213
f 818 781 646
f 646 781 615
f 984 947 818
f 818 947 781
f 1150 1113 984
f 984 1113 947
f 1113 1150 1211
f 1150 80 1211
f 1150 82 80
f 228 80 82
f 226 80 228
f 374 226 228
f 372 226 374
f 508 372 374
f 506 372 508
f 135 506 508
f 135 508 137
f 138 1004 1002
f 138 1002 136
f 1212 1002 1214
f 1214 1002 1004
f 488 459 1215
f 617 646 1213
f 617 1213 459
f 139 617 459
f 488 139 459
f 646 617 783
f 646 783 818
f 818 783 140
f 986 818 140
f 984 818 986
f 1152 984 986
f 1150 984 1152
f 84 1150 1152
f 82 1150 84
f 230 82 84
f 228 82 230
f 376 228 230
f 374 228 376
f 510 374 376
f 508 374 510
f 672 634 137
f 508 672 137
f 510 672 508
f 634 672 840
f 634 840 800
f 1004 138 800
f 1004 800 840
f 960 1004 840
f 1216 960 840
f 1214 1004 960
f 1217 490 1215
f 1215 490 488
f 139 488 490
f 139 490 141
f 142 988 986
f 142 986 140
f 1154 986 988
f 1152 986 1154
f 86 1152 1154
f 84 1152 86
f 232 84 86
f 230 84 232
f 340 376 1218
f 376 232 1218
f 376 230 232
f 478 510 340
f 340 510 376
f 632 672 478
f 478 672 510
f 798 840 632
f 632 840 672
f 1216 840 798
f 1219 492 1217
f 1217 492 490
f 652 618 141
f 490 652 141
f 492 652 490
f 618 652 824
f 618 824 784
f 988 142 784
f 824 988 784
f 990 988 824
f 1114 1154 1220
f 1154 990 1220
f 1154 988 990
f 52 86 1114
f 1114 86 1154
f 198 232 52
f 52 232 86
f 1218 232 198
f 460 492 1219
f 1221 654 460
f 654 492 460
f 654 652 492
f 826 652 654
f 824 652 826
f 948 990 1222
f 990 826 1222
f 990 824 826
f 1220 990 948
f 616 654 1221
f 782 826 616
f 616 826 654
f 1222 826 782
