# Converted from NanoShaper .vert/.face
v 3.486000 -1.596000 -10.445000
v 5.177000 -1.596000 -10.445000
v 3.007000 -1.596000 -9.945000
v 5.548000 -1.596000 -9.945000
v 2.853000 -1.596000 -9.445000
v 5.765000 -1.596000 -9.445000
v 2.827000 -1.596000 -8.945000
v 6.133000 -1.596000 -8.945000
v 2.929000 -1.596000 -8.445000
v 6.300000 -1.596000 -8.445000
v 3.136000 -1.596000 -7.945000
v 6.178000 -1.596000 -7.945000
v 3.482000 -1.596000 -7.445000
v 5.796000 -1.596000 -7.445000
v 3.942000 -1.596000 -6.945000
v 5.586000 -1.596000 -6.945000
v 4.300000 2.404000 -8.945000
v 5.201000 2.404000 -8.945000
v 3.660000 2.404000 -8.445000
v 5.864000 2.404000 -8.445000
v 3.437000 2.404000 -7.945000
v 6.138000 2.404000 -7.945000
v 3.146000 2.404000 -7.445000
v 6.222000 2.404000 -7.445000
v 3.039000 2.404000 -6.945000
v 6.280000 2.404000 -6.945000
v 3.129000 2.404000 -6.445000
v 6.172000 2.404000 -6.445000
v 3.472000 2.404000 -5.945000
v 5.863000 2.404000 -5.945000
v 4.645000 2.404000 -5.445000
v 5.056000 2.404000 -5.445000
v 2.836000 -1.596000 -9.037000
v 2.836000 -1.596000 -8.767000
v 3.336000 -1.596000 -10.321000
v 3.336000 -1.596000 -7.630000
v 3.836000 -1.596000 -10.653000
v 3.836000 -1.596000 -7.048000
v 4.336000 -1.596000 -10.751000
v 4.336000 -1.596000 -6.534000
v 4.836000 -1.596000 -10.652000
v 4.836000 -1.596000 -6.495000
v 5.336000 -1.596000 -10.289000
v 5.336000 -1.596000 -6.685000
v 5.836000 -1.596000 -9.326000
v 5.836000 -1.596000 -7.514000
v 3.336000 2.404000 -7.766000
v 3.336000 2.404000 -6.087000
v 3.836000 2.404000 -8.669000
v 3.836000 2.404000 -5.719000
v 4.336000 2.404000 -8.955000
v 4.336000 2.404000 -5.548000
v 4.836000 2.404000 -9.026000
v 4.836000 2.404000 -5.426000
v 5.336000 2.404000 -8.878000
v 5.336000 2.404000 -5.534000
v 5.836000 2.404000 -8.481000
v 5.836000 2.404000 -5.913000
v 2.836000 -1.427000 -9.945000
v 2.836000 0.239000 -9.945000
v 3.336000 -1.961000 -9.945000
v 3.336000 0.806000 -9.945000
v 3.836000 -2.327000 -9.945000
v 3.836000 1.309000 -9.945000
v 4.336000 -2.426000 -9.945000
v 4.336000 1.673000 -9.945000
v 4.836000 -2.326000 -9.945000
v 4.836000 1.777000 -9.945000
v 5.336000 -1.956000 -9.945000
v 5.336000 1.685000 -9.945000
v 5.836000 -0.953000 -9.945000
v 5.836000 1.348000 -9.945000
v 2.836000 -0.408000 -5.945000
v 2.836000 1.770000 -5.945000
v 3.336000 -0.957000 -5.945000
v 3.336000 2.239000 -5.945000
v 3.836000 -1.319000 -5.945000
v 3.836000 2.771000 -5.945000
v 4.336000 -1.414000 -5.945000
v 4.336000 3.182000 -5.945000
v 4.836000 -1.309000 -5.945000
v 4.836000 3.352000 -5.945000
v 5.336000 -0.940000 -5.945000
v 5.336000 3.233000 -5.945000
v 5.836000 -0.503000 -5.945000
v 5.836000 2.486000 -5.945000
v 6.336000 0.803000 -5.945000
v 6.336000 1.063000 -5.945000
v 3.022000 -1.096000 -10.445000
v 5.360000 -1.096000 -10.445000
v 2.634000 -1.096000 -9.945000
v 5.743000 -1.096000 -9.945000
v 2.524000 -1.096000 -9.445000
v 6.137000 -1.096000 -9.445000
v 2.505000 -1.096000 -8.945000
v 6.536000 -1.096000 -8.945000
v 2.586000 -1.096000 -8.445000
v 6.651000 -1.096000 -8.445000
v 2.899000 -1.096000 -7.945000
v 6.566000 -1.096000 -7.945000
v 3.140000 -1.096000 -7.445000
v 6.346000 -1.096000 -7.445000
v 3.307000 -1.096000 -6.945000
v 6.151000 -1.096000 -6.945000
v 3.322000 -1.096000 -6.445000
v 5.636000 -1.096000 -6.445000
v 3.473000 -1.096000 -5.945000
v 5.174000 -1.096000 -5.945000
v 3.917000 2.904000 -8.445000
v 5.684000 2.904000 -8.445000
v 3.583000 2.904000 -7.945000
v 6.018000 2.904000 -7.945000
v 3.458000 2.904000 -7.445000
v 6.115000 2.904000 -7.445000
v 3.361000 2.904000 -6.945000
v 6.187000 2.904000 -6.945000
v 3.484000 2.904000 -6.445000
v 6.072000 2.904000 -6.445000
v 4.034000 2.904000 -5.945000
v 5.678000 2.904000 -5.945000
v 2.836000 -1.096000 -10.266000
v 2.836000 -1.096000 -8.028000
v 3.336000 -1.096000 -10.628000
v 3.336000 -1.096000 -6.311000
v 3.836000 -1.096000 -10.762000
v 3.836000 -1.096000 -5.600000
v 4.336000 -1.096000 -10.833000
v 4.336000 -1.096000 -5.473000
v 4.836000 -1.096000 -10.742000
v 4.836000 -1.096000 -5.614000
v 5.336000 -1.096000 -10.465000
v 5.336000 -1.096000 -6.163000
v 5.836000 -1.096000 -9.792000
v 5.836000 -1.096000 -6.612000
v 6.336000 -1.096000 -9.257000
v 6.336000 -1.096000 -7.417000
v 3.836000 2.904000 -8.363000
v 3.836000 2.904000 -6.073000
v 4.336000 2.904000 -8.707000
v 4.336000 2.904000 -5.788000
v 4.836000 2.904000 -8.792000
v 4.836000 2.904000 -5.672000
v 5.336000 2.904000 -8.677000
v 5.336000 2.904000 -5.755000
v 5.836000 2.904000 -8.278000
v 5.836000 2.904000 -6.089000
v 2.836000 -1.579000 -9.445000
v 2.836000 0.722000 -9.445000
v 3.336000 -2.105000 -9.445000
v 3.336000 1.224000 -9.445000
v 3.836000 -2.432000 -9.445000
v 3.836000 1.746000 -9.445000
v 4.336000 -2.523000 -9.445000
v 4.336000 1.925000 -9.445000
v 4.836000 -2.430000 -9.445000
v 4.836000 1.994000 -9.445000
v 5.336000 -2.115000 -9.445000
v 5.336000 1.860000 -9.445000
v 5.836000 -1.507000 -9.445000
v 5.836000 1.634000 -9.445000
v 6.336000 -0.560000 -9.445000
v 6.336000 1.252000 -9.445000
v 3.336000 -0.473000 -5.445000
v 3.336000 1.749000 -5.445000
v 3.836000 -0.932000 -5.445000
v 3.836000 1.926000 -5.445000
v 4.336000 -1.067000 -5.445000
v 4.336000 2.270000 -5.445000
v 4.836000 -0.917000 -5.445000
v 4.836000 2.431000 -5.445000
v 5.336000 -0.497000 -5.445000
v 5.336000 2.280000 -5.445000
v 5.836000 1.257000 -5.445000
v 5.836000 1.551000 -5.445000
v 2.879000 -0.596000 -10.445000
v 5.704000 -0.596000 -10.445000
v 2.533000 -0.596000 -9.945000
v 6.039000 -0.596000 -9.945000
v 2.431000 -0.596000 -9.445000
v 6.326000 -0.596000 -9.445000
v 2.416000 -0.596000 -8.945000
v 6.651000 -0.596000 -8.945000
v 2.491000 -0.596000 -8.445000
v 6.757000 -0.596000 -8.445000
v 2.675000 -0.596000 -7.945000
v 6.692000 -0.596000 -7.945000
v 2.817000 -0.596000 -7.445000
v 6.644000 -0.596000 -7.445000
v 2.844000 -0.596000 -6.945000
v 6.545000 -0.596000 -6.945000
v 2.888000 -0.596000 -6.445000
v 6.193000 -0.596000 -6.445000
v 3.019000 -0.596000 -5.945000
v 5.744000 -0.596000 -5.945000
v 3.453000 -0.596000 -5.445000
v 5.212000 -0.596000 -5.445000
v 4.714000 3.404000 -8.445000
v 4.887000 3.404000 -8.445000
v 3.959000 3.404000 -7.945000
v 5.642000 3.404000 -7.945000
v 3.847000 3.404000 -7.445000
v 5.772000 3.404000 -7.445000
v 3.888000 3.404000 -6.945000
v 5.865000 3.404000 -6.945000
v 4.046000 3.404000 -6.445000
v 5.707000 3.404000 -6.445000
v 2.836000 -0.596000 -10.404000
v 2.836000 -0.596000 -7.291000
v 3.336000 -0.596000 -10.728000
v 3.336000 -0.596000 -5.570000
v 3.836000 -0.596000 -10.822000
v 3.836000 -0.596000 -5.100000
v 4.336000 -0.596000 -10.876000
v 4.336000 -0.596000 -4.961000
v 4.836000 -0.596000 -10.811000
v 4.836000 -0.596000 -5.102000
v 5.336000 -0.596000 -10.688000
v 5.336000 -0.596000 -5.551000
v 5.836000 -0.596000 -10.304000
v 5.836000 -0.596000 -6.079000
v 6.336000 -0.596000 -9.434000
v 6.336000 -0.596000 -6.602000
v 4.336000 3.404000 -8.328000
v 4.336000 3.404000 -6.155000
v 4.836000 3.404000 -8.449000
v 4.836000 3.404000 -5.995000
v 5.336000 3.404000 -8.285000
v 5.336000 3.404000 -6.107000
v 5.836000 3.404000 -7.224000
v 5.836000 3.404000 -6.742000
v 2.836000 -1.605000 -8.945000
v 2.836000 1.182000 -8.945000
v 3.336000 -2.077000 -8.945000
v 3.336000 1.746000 -8.945000
v 3.836000 -2.429000 -8.945000
v 3.836000 2.154000 -8.945000
v 4.336000 -2.535000 -8.945000
v 4.336000 2.417000 -8.945000
v 4.836000 -2.456000 -8.945000
v 4.836000 2.541000 -8.945000
v 5.336000 -2.258000 -8.945000
v 5.336000 2.290000 -8.945000
v 5.836000 -1.868000 -8.945000
v 5.836000 1.880000 -8.945000
v 6.336000 -1.408000 -8.945000
v 6.336000 1.419000 -8.945000
v 3.336000 0.327000 -4.945000
v 3.336000 0.516000 -4.945000
v 3.836000 -0.449000 -4.945000
v 3.836000 1.292000 -4.945000
v 4.336000 -0.581000 -4.945000
v 4.336000 1.446000 -4.945000
v 4.836000 -0.447000 -4.945000
v 4.836000 1.391000 -4.945000
v 5.336000 0.372000 -4.945000
v 5.336000 0.471000 -4.945000
v 3.019000 -0.096000 -10.445000
v 5.827000 -0.096000 -10.445000
v 2.633000 -0.096000 -9.945000
v 6.182000 -0.096000 -9.945000
v 2.516000 -0.096000 -9.445000
v 6.505000 -0.096000 -9.445000
v 2.478000 -0.096000 -8.945000
v 6.659000 -0.096000 -8.945000
v 2.480000 -0.096000 -8.445000
v 6.709000 -0.096000 -8.445000
v 2.478000 -0.096000 -7.945000
v 6.709000 -0.096000 -7.945000
v 2.541000 -0.096000 -7.445000
v 6.750000 -0.096000 -7.445000
v 2.545000 -0.096000 -6.945000
v 6.669000 -0.096000 -6.945000
v 2.556000 -0.096000 -6.445000
v 6.510000 -0.096000 -6.445000
v 2.651000 -0.096000 -5.945000
v 6.125000 -0.096000 -5.945000
v 3.010000 -0.096000 -5.445000
v 5.695000 -0.096000 -5.445000
v 3.475000 -0.096000 -4.945000
v 5.193000 -0.096000 -4.945000
v 2.836000 -0.096000 -10.268000
v 2.836000 -0.096000 -5.627000
v 3.336000 -0.096000 -10.630000
v 3.336000 -0.096000 -5.089000
v 3.836000 -0.096000 -10.786000
v 3.836000 -0.096000 -4.721000
v 4.336000 -0.096000 -10.858000
v 4.336000 -0.096000 -4.622000
v 4.836000 -0.096000 -10.884000
v 4.836000 -0.096000 -4.722000
v 5.336000 -0.096000 -10.781000
v 5.336000 -0.096000 -5.093000
v 5.836000 -0.096000 -10.436000
v 5.836000 -0.096000 -5.576000
v 6.336000 -0.096000 -9.731000
v 6.336000 -0.096000 -6.166000
v 2.836000 -1.495000 -8.445000
v 2.836000 1.348000 -8.445000
v 3.336000 -2.092000 -8.445000
v 3.336000 1.913000 -8.445000
v 3.836000 -2.416000 -8.445000
v 3.836000 2.739000 -8.445000
v 4.336000 -2.507000 -8.445000
v 4.336000 3.296000 -8.445000
v 4.836000 -2.448000 -8.445000
v 4.836000 3.407000 -8.445000
v 5.336000 -2.339000 -8.445000
v 5.336000 3.257000 -8.445000
v 5.836000 -1.982000 -8.445000
v 5.836000 2.494000 -8.445000
v 6.336000 -1.563000 -8.445000
v 6.336000 1.687000 -8.445000
v 3.441000 0.404000 -10.445000
v 5.873000 0.404000 -10.445000
v 2.973000 0.404000 -9.945000
v 6.282000 0.404000 -9.945000
v 2.663000 0.404000 -9.445000
v 6.620000 0.404000 -9.445000
v 2.543000 0.404000 -8.945000
v 6.718000 0.404000 -8.945000
v 2.464000 0.404000 -8.445000
v 6.738000 0.404000 -8.445000
v 2.395000 0.404000 -7.945000
v 6.734000 0.404000 -7.945000
v 2.447000 0.404000 -7.445000
v 6.717000 0.404000 -7.445000
v 2.470000 0.404000 -6.945000
v 6.723000 0.404000 -6.945000
v 2.462000 0.404000 -6.445000
v 6.614000 0.404000 -6.445000
v 2.550000 0.404000 -5.945000
v 6.257000 0.404000 -5.945000
v 2.871000 0.404000 -5.445000
v 5.808000 0.404000 -5.445000
v 3.331000 0.404000 -4.945000
v 5.337000 0.404000 -4.945000
v 2.836000 0.404000 -9.758000
v 2.836000 0.404000 -5.482000
v 3.336000 0.404000 -10.351000
v 3.336000 0.404000 -4.941000
v 3.836000 0.404000 -10.679000
v 3.836000 0.404000 -4.614000
v 4.336000 0.404000 -10.811000
v 4.336000 0.404000 -4.522000
v 4.836000 0.404000 -10.890000
v 4.836000 0.404000 -4.615000
v 5.336000 0.404000 -10.803000
v 5.336000 0.404000 -4.944000
v 5.836000 0.404000 -10.484000
v 5.836000 0.404000 -5.471000
v 6.336000 0.404000 -9.892000
v 6.336000 0.404000 -6.021000
v 2.836000 -0.984000 -7.945000
v 2.836000 1.434000 -7.945000
v 3.336000 -1.929000 -7.945000
v 3.336000 2.169000 -7.945000
v 3.836000 -2.299000 -7.945000
v 3.836000 3.288000 -7.945000
v 4.336000 -2.397000 -7.945000
v 4.336000 3.621000 -7.945000
v 4.836000 -2.337000 -7.945000
v 4.836000 3.705000 -7.945000
v 5.336000 -2.217000 -7.945000
v 5.336000 3.592000 -7.945000
v 5.836000 -1.838000 -7.945000
v 5.836000 3.208000 -7.945000
v 6.336000 -1.450000 -7.945000
v 6.336000 1.851000 -7.945000
v 3.917000 0.904000 -10.445000
v 5.770000 0.904000 -10.445000
v 3.448000 0.904000 -9.945000
v 6.170000 0.904000 -9.945000
v 2.987000 0.904000 -9.445000
v 6.535000 0.904000 -9.445000
v 2.677000 0.904000 -8.945000
v 6.639000 0.904000 -8.945000
v 2.561000 0.904000 -8.445000
v 6.666000 0.904000 -8.445000
v 2.496000 0.904000 -7.945000
v 6.699000 0.904000 -7.945000
v 2.494000 0.904000 -7.445000
v 6.759000 0.904000 -7.445000
v 2.439000 0.904000 -6.945000
v 6.744000 0.904000 -6.945000
v 2.415000 0.904000 -6.445000
v 6.659000 0.904000 -6.445000
v 2.514000 0.904000 -5.945000
v 6.344000 0.904000 -5.945000
v 2.852000 0.904000 -5.445000
v 5.768000 0.904000 -5.445000
v 3.454000 0.904000 -4.945000
v 5.221000 0.904000 -4.945000
v 2.836000 0.904000 -9.224000
v 2.836000 0.904000 -5.461000
v 3.336000 0.904000 -9.815000
v 3.336000 0.904000 -5.053000
v 3.836000 0.904000 -10.377000
v 3.836000 0.904000 -4.706000
v 4.336000 0.904000 -10.712000
v 4.336000 0.904000 -4.608000
v 4.836000 0.904000 -10.816000
v 4.836000 0.904000 -4.707000
v 5.336000 0.904000 -10.724000
v 5.336000 0.904000 -5.040000
v 5.836000 0.904000 -10.378000
v 5.836000 0.904000 -5.511000
v 6.336000 0.904000 -9.773000
v 6.336000 0.904000 -5.937000
v 2.836000 -0.626000 -7.445000
v 2.836000 1.729000 -7.445000
v 3.336000 -1.396000 -7.445000
v 3.336000 2.730000 -7.445000
v 3.836000 -1.906000 -7.445000
v 3.836000 3.393000 -7.445000
v 4.336000 -2.068000 -7.445000
v 4.336000 3.699000 -7.445000
v 4.836000 -2.047000 -7.445000
v 4.836000 3.779000 -7.445000
v 5.336000 -1.920000 -7.445000
v 5.336000 3.679000 -7.445000
v 5.836000 -1.566000 -7.445000
v 5.836000 3.341000 -7.445000
v 6.336000 -1.109000 -7.445000
v 6.336000 2.020000 -7.445000
v 4.470000 1.404000 -10.445000
v 5.231000 1.404000 -10.445000
v 3.925000 1.404000 -9.945000
v 5.776000 1.404000 -9.945000
v 3.489000 1.404000 -9.445000
v 6.193000 1.404000 -9.445000
v 3.045000 1.404000 -8.945000
v 6.348000 1.404000 -8.945000
v 2.889000 1.404000 -8.445000
v 6.507000 1.404000 -8.445000
v 2.808000 1.404000 -7.945000
v 6.596000 1.404000 -7.945000
v 2.637000 1.404000 -7.445000
v 6.666000 1.404000 -7.445000
v 2.537000 1.404000 -6.945000
v 6.663000 1.404000 -6.945000
v 2.504000 1.404000 -6.445000
v 6.573000 1.404000 -6.445000
v 2.609000 1.404000 -5.945000
v 6.241000 1.404000 -5.945000
v 2.986000 1.404000 -5.445000
v 5.846000 1.404000 -5.445000
v 4.126000 1.404000 -4.945000
v 4.809000 1.404000 -4.945000
v 2.836000 1.404000 -8.058000
v 2.836000 1.404000 -5.590000
v 3.336000 1.404000 -9.294000
v 3.336000 1.404000 -5.241000
v 3.836000 1.404000 -9.811000
v 3.836000 1.404000 -5.047000
v 4.336000 1.404000 -10.380000
v 4.336000 1.404000 -4.914000
v 4.836000 1.404000 -10.518000
v 4.836000 1.404000 -4.951000
v 5.336000 1.404000 -10.397000
v 5.336000 1.404000 -5.109000
v 5.836000 1.404000 -9.860000
v 5.836000 1.404000 -5.434000
v 6.336000 1.404000 -9.006000
v 6.336000 1.404000 -6.056000
v 2.836000 -0.588000 -6.945000
v 2.836000 1.902000 -6.945000
v 3.336000 -1.131000 -6.945000
v 3.336000 2.878000 -6.945000
v 3.836000 -1.547000 -6.945000
v 3.836000 3.349000 -6.945000
v 4.336000 -1.791000 -6.945000
v 4.336000 3.704000 -6.945000
v 4.836000 -1.871000 -6.945000
v 4.836000 3.812000 -6.945000
v 5.336000 -1.750000 -6.945000
v 5.336000 3.735000 -6.945000
v 5.836000 -1.350000 -6.945000
v 5.836000 3.432000 -6.945000
v 6.336000 -0.923000 -6.945000
v 6.336000 2.111000 -6.945000
v 3.467000 -2.096000 -9.945000
v 5.200000 -2.096000 -9.945000
v 3.327000 -2.096000 -9.445000
v 5.356000 -2.096000 -9.445000
v 3.353000 -2.096000 -8.945000
v 5.604000 -2.096000 -8.945000
v 3.340000 -2.096000 -8.445000
v 5.721000 -2.096000 -8.445000
v 3.502000 -2.096000 -7.945000
v 5.543000 -2.096000 -7.945000
v 4.215000 1.904000 -9.445000
v 5.247000 1.904000 -9.445000
v 3.485000 1.904000 -8.945000
v 5.809000 1.904000 -8.945000
v 3.328000 1.904000 -8.445000
v 6.154000 1.904000 -8.445000
v 3.199000 1.904000 -7.945000
v 6.308000 1.904000 -7.945000
v 2.950000 1.904000 -7.445000
v 6.391000 1.904000 -7.445000
v 2.836000 1.904000 -6.945000
v 6.410000 1.904000 -6.945000
v 2.818000 1.904000 -6.445000
v 6.303000 1.904000 -6.445000
v 2.970000 1.904000 -5.945000
v 6.061000 1.904000 -5.945000
v 3.779000 1.904000 -5.445000
v 5.713000 1.904000 -5.445000
v 3.336000 -2.096000 -9.561000
v 3.336000 -2.096000 -9.306000
v 3.836000 -2.096000 -10.308000
v 3.836000 -2.096000 -7.630000
v 4.336000 -2.096000 -10.440000
v 4.336000 -2.096000 -7.484000
v 4.836000 -2.096000 -10.306000
v 4.836000 -2.096000 -7.538000
v 5.336000 -2.096000 -9.541000
v 5.336000 -2.096000 -7.740000
v 2.836000 1.904000 -6.862000
v 2.836000 1.904000 -6.307000
v 3.336000 1.904000 -8.498000
v 3.336000 1.904000 -5.596000
v 3.836000 1.904000 -9.294000
v 3.836000 1.904000 -5.427000
v 4.336000 1.904000 -9.479000
v 4.336000 1.904000 -5.216000
v 4.836000 1.904000 -9.612000
v 4.836000 1.904000 -5.114000
v 5.336000 1.904000 -9.362000
v 5.336000 1.904000 -5.210000
v 5.836000 1.904000 -8.910000
v 5.836000 1.904000 -5.570000
v 6.336000 1.904000 -7.788000
v 6.336000 1.904000 -6.525000
v 3.336000 -1.422000 -10.445000
v 3.336000 0.256000 -10.445000
v 3.836000 -1.953000 -10.445000
v 3.836000 0.810000 -10.445000
v 4.336000 -2.091000 -10.445000
v 4.336000 1.338000 -10.445000
v 4.836000 -1.950000 -10.445000
v 4.836000 1.477000 -10.445000
v 5.336000 -1.152000 -10.445000
v 5.336000 1.355000 -10.445000
v 5.836000 0.145000 -10.445000
v 5.836000 0.732000 -10.445000
v 2.836000 -0.543000 -6.445000
v 2.836000 1.926000 -6.445000
v 3.336000 -1.110000 -6.445000
v 3.336000 2.750000 -6.445000
v 3.836000 -1.432000 -6.445000
v 3.836000 3.191000 -6.445000
v 4.336000 -1.564000 -6.445000
v 4.336000 3.587000 -6.445000
v 4.836000 -1.563000 -6.445000
v 4.836000 3.705000 -6.445000
v 5.336000 -1.364000 -6.445000
v 5.336000 3.621000 -6.445000
v 5.836000 -0.936000 -6.445000
v 5.836000 3.279000 -6.445000
v 6.336000 -0.402000 -6.445000
v 6.336000 1.837000 -6.445000
f 147 93 59
f 59 93 91
f 93 177 91
f 179 177 93
f 179 259 177
f 261 259 179
f 60 259 337
f 259 317 337
f 259 261 317
f 317 148 337
f 149 483 509
f 509 483 61
f 483 3 61
f 483 5 3
f 59 3 5
f 59 5 147
f 337 315 60
f 148 373 395
f 148 395 62
f 337 148 62
f 315 337 62
f 373 150 395
f 481 63 509
f 63 149 509
f 63 151 149
f 509 61 481
f 395 371 62
f 150 429 453
f 150 453 64
f 395 150 64
f 371 395 64
f 429 152 453
f 153 63 65
f 153 151 63
f 453 427 64
f 152 491 525
f 152 525 66
f 453 152 66
f 427 453 66
f 491 154 525
f 155 65 67
f 155 153 65
f 527 68 66
f 527 66 525
f 525 154 527
f 527 154 156
f 517 157 482
f 157 67 482
f 157 155 67
f 69 517 482
f 68 527 492
f 158 68 492
f 70 68 158
f 527 156 492
f 517 484 157
f 69 4 517
f 4 484 517
f 4 6 484
f 92 133 159
f 6 92 159
f 4 92 6
f 71 133 92
f 428 461 72
f 428 70 461
f 70 160 461
f 70 158 160
f 133 94 159
f 71 178 133
f 178 94 133
f 178 180 94
f 260 295 161
f 180 260 161
f 178 260 180
f 316 351 295
f 316 295 260
f 372 407 351
f 372 351 316
f 461 430 72
f 72 430 372
f 430 162 372
f 162 407 372
f 461 160 430
f 295 262 161
f 262 295 318
f 318 295 351
f 318 351 374
f 374 351 407
f 407 162 374
f 282 275 73
f 338 331 282
f 282 331 275
f 394 387 338
f 338 387 331
f 450 443 394
f 394 443 387
f 450 74 443
f 210 193 75
f 277 282 73
f 277 73 193
f 163 277 193
f 210 163 193
f 282 277 333
f 282 333 338
f 338 333 389
f 338 389 394
f 394 389 445
f 394 445 450
f 164 522 505
f 164 505 74
f 445 164 74
f 450 445 74
f 522 76 505
f 126 107 77
f 195 210 75
f 195 75 107
f 165 195 107
f 126 165 107
f 163 210 195
f 507 522 164
f 166 50 29
f 166 29 76
f 507 166 76
f 522 507 76
f 50 78 29
f 79 128 77
f 77 128 126
f 165 126 128
f 165 128 167
f 168 52 50
f 168 50 166
f 78 50 119
f 50 140 119
f 50 52 140
f 140 80 119
f 81 130 79
f 79 130 128
f 167 128 130
f 167 130 169
f 31 52 168
f 52 31 170
f 142 52 170
f 140 52 142
f 80 140 82
f 82 140 142
f 108 130 81
f 196 169 218
f 218 169 83
f 169 130 83
f 130 108 83
f 171 196 218
f 32 172 56
f 142 170 32
f 56 142 32
f 144 142 56
f 82 142 84
f 84 142 144
f 194 218 83
f 278 171 294
f 294 171 85
f 171 218 85
f 218 194 85
f 278 294 350
f 278 350 334
f 334 350 406
f 334 406 390
f 173 390 406
f 508 174 532
f 56 172 508
f 532 56 508
f 58 56 532
f 120 144 86
f 144 58 86
f 144 56 58
f 84 144 120
f 276 294 85
f 332 350 276
f 276 350 294
f 87 408 332
f 408 350 332
f 408 406 350
f 444 446 88
f 446 406 88
f 406 408 88
f 446 173 406
f 174 446 532
f 446 506 532
f 446 444 506
f 30 58 506
f 506 58 532
f 86 58 30
f 388 408 87
f 88 408 388
f 231 7 33
f 33 7 147
f 7 93 147
f 7 95 93
f 95 179 93
f 181 179 95
f 181 261 179
f 263 261 181
f 263 317 261
f 319 317 263
f 148 317 393
f 317 375 393
f 317 319 375
f 375 232 393
f 510 483 149
f 233 231 510
f 231 5 510
f 5 483 510
f 231 33 5
f 33 147 5
f 393 373 148
f 232 431 451
f 232 451 150
f 393 232 150
f 373 393 150
f 431 234 451
f 510 149 485
f 149 235 485
f 149 151 235
f 233 510 485
f 451 429 150
f 234 493 523
f 234 523 152
f 451 234 152
f 429 451 152
f 493 236 523
f 237 151 153
f 237 235 151
f 523 491 152
f 236 17 51
f 236 51 154
f 523 236 154
f 491 523 154
f 17 238 51
f 239 153 155
f 239 237 153
f 53 156 154
f 53 154 51
f 51 238 53
f 53 238 240
f 241 155 157
f 241 239 155
f 492 529 158
f 53 18 156
f 156 18 492
f 18 242 492
f 242 529 492
f 53 240 18
f 157 484 241
f 241 484 486
f 6 45 243
f 486 6 243
f 484 6 486
f 159 45 6
f 158 529 494
f 244 158 494
f 160 158 244
f 529 242 494
f 45 8 243
f 135 245 94
f 94 245 159
f 245 8 159
f 8 45 159
f 180 221 135
f 180 135 94
f 161 221 180
f 430 463 162
f 430 160 463
f 160 246 463
f 160 244 246
f 135 96 245
f 96 135 182
f 182 135 221
f 161 262 221
f 262 182 221
f 262 264 182
f 318 264 262
f 318 320 264
f 374 320 318
f 374 376 320
f 463 432 162
f 432 374 162
f 432 376 374
f 463 246 432
f 284 277 163
f 247 335 284
f 335 277 284
f 335 333 277
f 396 389 248
f 389 335 248
f 389 333 335
f 452 445 396
f 396 445 389
f 452 164 445
f 212 195 165
f 279 284 163
f 279 163 195
f 249 279 195
f 212 249 195
f 247 284 279
f 391 396 248
f 396 391 250
f 454 396 250
f 452 396 454
f 164 452 507
f 452 524 507
f 452 454 524
f 524 166 507
f 167 214 165
f 165 214 212
f 249 212 214
f 249 214 251
f 447 454 250
f 454 447 252
f 526 454 252
f 524 454 526
f 166 524 168
f 168 524 526
f 169 216 167
f 167 216 214
f 251 214 216
f 251 216 253
f 448 254 458
f 526 252 448
f 458 526 448
f 528 526 458
f 168 526 31
f 526 54 31
f 526 528 54
f 54 170 31
f 196 216 169
f 280 253 292
f 292 253 171
f 253 216 171
f 216 196 171
f 255 280 292
f 392 256 404
f 458 254 392
f 404 458 392
f 460 458 404
f 530 458 460
f 528 458 530
f 32 54 172
f 54 530 172
f 54 528 530
f 170 54 32
f 278 292 171
f 292 278 255
f 278 336 255
f 278 334 336
f 256 336 404
f 336 390 404
f 336 334 390
f 173 462 390
f 462 404 390
f 462 460 404
f 508 530 174
f 530 462 174
f 530 460 462
f 172 530 508
f 446 462 173
f 174 462 446
f 34 7 231
f 297 97 34
f 97 7 34
f 97 95 7
f 97 181 95
f 183 181 97
f 183 263 181
f 265 263 183
f 265 319 263
f 321 319 265
f 321 375 319
f 377 375 321
f 377 298 375
f 375 298 232
f 34 231 9
f 231 299 9
f 231 233 299
f 297 34 9
f 431 232 298
f 431 298 433
f 234 431 521
f 431 495 521
f 431 433 495
f 495 300 521
f 301 487 235
f 235 487 485
f 233 485 487
f 233 487 299
f 521 493 234
f 300 19 49
f 300 49 236
f 521 300 236
f 493 521 236
f 19 302 49
f 303 235 237
f 303 301 235
f 49 17 236
f 302 109 139
f 302 139 238
f 49 302 238
f 17 49 238
f 109 304 139
f 305 237 239
f 305 303 237
f 141 240 238
f 141 238 139
f 197 225 304
f 225 139 304
f 225 141 139
f 197 306 225
f 307 239 241
f 307 305 239
f 18 55 242
f 55 18 240
f 141 55 240
f 143 55 141
f 308 143 198
f 143 225 198
f 143 141 225
f 225 306 198
f 241 486 307
f 307 486 488
f 309 488 486
f 309 486 243
f 494 531 244
f 531 494 242
f 55 531 242
f 57 531 55
f 310 57 110
f 57 143 110
f 57 55 143
f 143 308 110
f 243 8 309
f 309 8 10
f 311 10 8
f 311 8 245
f 244 531 496
f 312 244 496
f 246 244 312
f 496 531 20
f 20 531 57
f 57 310 20
f 245 96 311
f 311 96 98
f 182 98 96
f 182 184 98
f 264 184 182
f 264 266 184
f 320 266 264
f 320 322 266
f 376 322 320
f 376 378 322
f 432 378 376
f 432 434 378
f 432 246 434
f 434 246 312
f 340 335 247
f 340 248 335
f 286 279 249
f 279 286 247
f 286 340 247
f 286 342 340
f 248 340 391
f 340 398 391
f 340 342 398
f 398 250 391
f 251 288 249
f 249 288 286
f 344 286 288
f 342 286 344
f 400 342 344
f 398 342 400
f 250 398 447
f 398 456 447
f 398 400 456
f 456 252 447
f 253 290 251
f 251 290 288
f 346 288 290
f 344 288 346
f 402 344 346
f 400 344 402
f 448 456 254
f 456 402 254
f 456 400 402
f 252 456 448
f 280 290 253
f 255 348 280
f 348 290 280
f 348 346 290
f 392 402 256
f 402 348 256
f 402 346 348
f 254 402 392
f 336 348 255
f 256 348 336
f 122 97 297
f 353 185 122
f 185 97 122
f 185 183 97
f 185 265 183
f 267 265 185
f 267 321 265
f 323 321 267
f 323 377 321
f 379 377 323
f 298 377 449
f 377 435 449
f 377 379 435
f 435 354 449
f 355 11 299
f 299 11 9
f 99 122 297
f 9 99 297
f 11 99 9
f 353 122 99
f 449 433 298
f 433 449 354
f 497 433 354
f 495 433 497
f 497 356 495
f 495 356 300
f 357 489 301
f 301 489 487
f 299 487 489
f 299 489 355
f 19 300 356
f 19 356 21
f 302 19 137
f 19 111 137
f 19 21 111
f 111 358 137
f 359 301 303
f 359 357 301
f 137 109 302
f 358 199 223
f 358 223 304
f 137 358 304
f 109 137 304
f 199 360 223
f 361 303 305
f 361 359 303
f 223 197 304
f 223 360 197
f 360 306 197
f 360 362 306
f 363 305 307
f 363 361 305
f 198 227 308
f 198 306 227
f 306 364 227
f 306 362 364
f 307 488 363
f 363 488 490
f 365 490 488
f 365 488 309
f 110 145 310
f 227 200 308
f 308 200 110
f 200 366 110
f 366 145 110
f 227 364 200
f 309 10 365
f 365 10 12
f 367 12 10
f 367 10 311
f 498 368 312
f 498 312 496
f 20 498 496
f 20 22 498
f 145 112 310
f 112 20 310
f 112 22 20
f 145 366 112
f 311 98 367
f 367 98 100
f 184 100 98
f 184 186 100
f 266 186 184
f 266 268 186
f 322 268 266
f 322 324 268
f 378 324 322
f 378 380 324
f 434 380 378
f 434 436 380
f 434 312 436
f 436 312 368
f 409 187 353
f 353 187 185
f 187 267 185
f 269 267 187
f 269 323 267
f 325 323 269
f 325 379 323
f 381 379 325
f 381 435 379
f 437 435 381
f 437 410 435
f 435 410 354
f 36 11 355
f 411 101 36
f 101 11 36
f 101 99 11
f 353 99 101
f 353 101 409
f 497 354 410
f 497 410 499
f 356 497 47
f 497 23 47
f 497 499 23
f 23 412 47
f 512 489 357
f 13 36 355
f 13 355 489
f 413 13 489
f 512 413 489
f 411 36 13
f 47 21 356
f 21 47 412
f 113 21 412
f 111 21 113
f 113 414 111
f 111 414 358
f 359 514 357
f 357 514 512
f 413 512 514
f 413 514 415
f 199 358 414
f 199 414 201
f 201 416 199
f 199 416 360
f 361 516 359
f 359 516 514
f 415 514 516
f 415 516 417
f 360 418 362
f 416 418 360
f 363 518 361
f 361 518 516
f 417 516 518
f 417 518 419
f 362 420 364
f 418 420 362
f 490 518 363
f 14 419 46
f 46 419 365
f 419 518 365
f 518 490 365
f 421 14 46
f 202 422 366
f 202 366 200
f 200 364 202
f 202 364 420
f 12 46 365
f 421 46 12
f 367 421 12
f 423 421 367
f 498 533 368
f 24 424 533
f 498 24 533
f 22 24 498
f 112 24 22
f 112 114 24
f 112 366 114
f 114 366 422
f 367 100 423
f 423 100 102
f 186 102 100
f 186 188 102
f 268 188 186
f 268 270 188
f 324 270 268
f 324 326 270
f 380 326 324
f 380 382 326
f 436 382 380
f 436 438 382
f 533 500 368
f 500 436 368
f 500 438 436
f 533 424 500
f 208 187 409
f 465 271 208
f 271 187 208
f 271 269 187
f 271 325 269
f 327 325 271
f 327 381 325
f 383 381 327
f 383 437 381
f 439 437 383
f 439 466 437
f 437 466 410
f 467 103 411
f 411 103 101
f 189 208 409
f 101 189 409
f 103 189 101
f 465 208 189
f 499 410 466
f 499 466 501
f 501 23 499
f 25 23 501
f 25 468 23
f 23 468 412
f 38 13 413
f 411 13 38
f 469 411 38
f 467 411 469
f 113 412 468
f 113 468 115
f 115 470 113
f 113 470 414
f 38 413 15
f 413 471 15
f 413 415 471
f 469 38 15
f 201 414 470
f 201 470 203
f 203 472 201
f 201 472 416
f 473 415 417
f 473 471 415
f 416 474 418
f 472 474 416
f 475 417 419
f 475 473 417
f 418 476 420
f 474 476 418
f 419 14 475
f 475 14 16
f 477 16 14
f 477 14 421
f 202 229 422
f 202 420 229
f 420 478 229
f 420 476 478
f 104 477 136
f 477 423 136
f 477 421 423
f 479 104 136
f 26 480 424
f 26 424 24
f 114 26 24
f 114 116 26
f 229 204 422
f 204 114 422
f 204 116 114
f 229 478 204
f 102 136 423
f 136 102 479
f 102 190 479
f 102 188 190
f 270 190 188
f 270 272 190
f 326 272 270
f 326 328 272
f 382 328 326
f 382 384 328
f 438 384 382
f 438 440 384
f 500 440 438
f 500 502 440
f 500 424 502
f 502 424 480
f 535 89 123
f 123 89 209
f 209 89 175
f 209 175 283
f 283 175 257
f 257 536 283
f 537 1 37
f 535 123 1
f 123 37 1
f 123 125 37
f 123 211 125
f 123 209 211
f 209 285 211
f 209 283 285
f 313 341 536
f 341 283 536
f 341 285 283
f 313 538 341
f 39 539 37
f 37 539 537
f 37 127 39
f 37 125 127
f 125 213 127
f 125 211 213
f 211 287 213
f 211 285 287
f 285 343 287
f 285 341 343
f 369 399 538
f 399 341 538
f 399 343 341
f 369 540 399
f 41 541 39
f 39 541 539
f 39 129 41
f 39 127 129
f 127 215 129
f 127 213 215
f 213 289 215
f 213 287 289
f 287 345 289
f 287 343 345
f 343 401 345
f 343 399 401
f 425 457 540
f 457 399 540
f 457 401 399
f 425 542 457
f 41 2 541
f 2 41 543
f 41 131 543
f 41 129 131
f 129 217 131
f 129 215 217
f 215 291 217
f 215 289 291
f 289 347 291
f 289 345 347
f 345 403 347
f 345 401 403
f 544 403 426
f 403 457 426
f 403 401 457
f 457 542 426
f 131 90 543
f 90 131 176
f 176 131 217
f 176 217 258
f 258 217 291
f 258 291 545
f 291 349 545
f 291 347 349
f 546 349 370
f 349 403 370
f 349 347 403
f 403 544 370
f 349 314 545
f 349 546 314
f 547 273 465
f 465 273 271
f 273 327 271
f 329 327 273
f 329 383 327
f 385 383 329
f 385 439 383
f 441 439 385
f 466 439 519
f 439 503 519
f 439 441 503
f 503 548 519
f 549 105 467
f 467 105 103
f 105 189 103
f 191 189 105
f 465 189 191
f 465 191 547
f 519 501 466
f 501 519 548
f 27 501 548
f 25 501 27
f 27 550 25
f 25 550 468
f 551 467 469
f 551 549 467
f 115 468 550
f 115 550 117
f 117 552 115
f 115 552 470
f 40 15 471
f 469 15 40
f 553 469 40
f 551 469 553
f 203 470 552
f 203 552 205
f 205 554 203
f 203 554 472
f 473 42 471
f 471 42 40
f 553 40 42
f 553 42 555
f 472 556 474
f 554 556 472
f 475 44 473
f 473 44 42
f 555 42 44
f 555 44 557
f 474 558 476
f 556 558 474
f 16 44 475
f 106 557 134
f 134 557 477
f 557 44 477
f 44 16 477
f 559 106 134
f 206 560 230
f 230 478 206
f 478 558 206
f 478 476 558
f 104 134 477
f 192 559 222
f 222 559 479
f 559 134 479
f 134 104 479
f 561 192 222
f 504 562 534
f 504 534 480
f 26 504 480
f 28 504 26
f 116 28 26
f 116 118 28
f 560 118 230
f 118 204 230
f 118 116 204
f 478 230 204
f 190 222 479
f 222 190 561
f 190 274 561
f 190 272 274
f 328 274 272
f 328 330 274
f 384 330 328
f 384 386 330
f 440 386 384
f 440 442 386
f 562 442 534
f 442 502 534
f 442 440 502
f 480 534 502
f 59 91 121
f 121 91 207
f 207 91 177
f 207 177 281
f 281 177 259
f 259 60 281
f 61 3 35
f 59 121 3
f 3 121 35
f 121 89 35
f 89 535 35
f 207 175 89
f 207 89 121
f 281 257 175
f 281 175 207
f 60 315 339
f 60 339 536
f 281 60 536
f 257 281 536
f 315 62 339
f 63 481 511
f 61 35 481
f 481 35 511
f 35 1 511
f 1 537 511
f 35 535 1
f 339 313 536
f 62 371 397
f 62 397 538
f 339 62 538
f 313 339 538
f 371 64 397
f 513 65 511
f 511 65 63
f 511 537 539
f 511 539 513
f 397 369 538
f 64 427 455
f 64 455 540
f 397 64 540
f 369 397 540
f 427 66 455
f 515 67 513
f 513 67 65
f 513 539 541
f 513 541 515
f 455 425 540
f 455 66 425
f 66 542 425
f 66 68 542
f 515 482 67
f 43 69 2
f 2 69 541
f 69 482 541
f 482 515 541
f 543 43 2
f 426 459 544
f 426 542 459
f 542 70 459
f 542 68 70
f 43 4 69
f 543 90 43
f 90 4 43
f 90 92 4
f 176 219 71
f 92 176 71
f 90 176 92
f 258 293 219
f 258 219 176
f 545 293 258
f 370 405 546
f 459 428 544
f 544 428 370
f 428 72 370
f 72 405 370
f 459 70 428
f 219 178 71
f 178 219 260
f 260 219 293
f 545 314 293
f 314 260 293
f 314 316 260
f 405 372 546
f 372 314 546
f 372 316 314
f 405 72 372
f 73 275 547
f 547 275 273
f 275 329 273
f 331 329 275
f 331 385 329
f 387 385 331
f 387 441 385
f 443 441 387
f 520 503 74
f 503 443 74
f 503 441 443
f 520 548 503
f 124 105 549
f 75 193 124
f 193 105 124
f 193 191 105
f 547 191 193
f 547 193 73
f 505 520 74
f 76 48 27
f 76 27 548
f 505 76 548
f 520 505 548
f 48 550 27
f 124 549 107
f 549 77 107
f 549 551 77
f 75 124 107
f 29 48 76
f 78 138 117
f 78 117 550
f 29 78 550
f 48 29 550
f 138 552 117
f 79 551 553
f 79 77 551
f 119 138 78
f 80 224 205
f 80 205 552
f 119 80 552
f 138 119 552
f 224 554 205
f 81 553 555
f 81 79 553
f 82 226 224
f 82 224 80
f 554 224 556
f 556 224 226
f 108 81 132
f 81 557 132
f 81 555 557
f 83 108 132
f 84 228 226
f 84 226 82
f 556 226 558
f 558 226 228
f 106 132 557
f 194 83 220
f 220 83 559
f 83 132 559
f 132 106 559
f 85 194 220
f 120 86 146
f 228 84 120
f 228 120 146
f 206 228 146
f 560 206 146
f 558 228 206
f 192 220 559
f 276 85 296
f 296 85 561
f 85 220 561
f 220 192 561
f 276 296 352
f 276 352 332
f 87 332 352
f 444 88 464
f 444 464 562
f 504 444 562
f 506 444 504
f 28 506 504
f 28 30 506
f 86 30 146
f 30 118 146
f 30 28 118
f 560 146 118
f 274 296 561
f 330 352 274
f 274 352 296
f 352 330 87
f 330 388 87
f 330 386 388
f 88 388 464
f 388 442 464
f 388 386 442
f 562 464 442
