# Converted from NanoShaper .vert/.face
v 11.337000 1.013000 -3.446000
v 12.510000 1.013000 -3.446000
v 10.982000 1.013000 -2.946000
v 12.866000 1.013000 -2.946000
v 10.936000 1.013000 -2.446000
v 12.900000 1.013000 -2.446000
v 10.820000 1.013000 -1.946000
v 12.974000 1.013000 -1.946000
v 10.628000 1.013000 -1.446000
v 13.146000 1.013000 -1.446000
v 10.586000 1.013000 -0.946000
v 13.184000 1.013000 -0.946000
v 10.546000 1.013000 -0.446000
v 13.184000 1.013000 -0.446000
v 10.462000 1.013000 0.054000
v 13.040000 1.013000 0.054000
v 10.436000 1.013000 0.554000
v 12.939000 1.013000 0.554000
v 10.718000 1.013000 1.054000
v 12.881000 1.013000 1.054000
v 11.371000 1.013000 1.554000
v 12.536000 1.013000 1.554000
v 10.671000 1.013000 -1.590000
v 10.671000 1.013000 1.006000
v 11.171000 1.013000 -3.290000
v 11.171000 1.013000 1.369000
v 11.671000 1.013000 -3.606000
v 11.671000 1.013000 1.707000
v 12.171000 1.013000 -3.608000
v 12.171000 1.013000 1.725000
v 12.671000 1.013000 -3.297000
v 12.671000 1.013000 1.430000
v 13.171000 1.013000 -1.307000
v 13.171000 1.013000 -0.381000
v 11.171000 -1.384000 -3.946000
v 11.171000 0.455000 -3.946000
v 11.671000 -1.634000 -3.946000
v 11.671000 0.706000 -3.946000
v 12.171000 -1.672000 -3.946000
v 12.171000 0.715000 -3.946000
v 12.671000 -1.576000 -3.946000
v 12.671000 0.490000 -3.946000
v 10.171000 -1.160000 0.054000
v 10.171000 0.639000 0.054000
v 10.671000 -1.699000 0.054000
v 10.671000 1.196000 0.054000
v 11.171000 -2.178000 0.054000
v 11.171000 1.531000 0.054000
v 11.671000 -2.367000 0.054000
v 11.671000 1.723000 0.054000
v 12.171000 -2.360000 0.054000
v 12.171000 1.707000 0.054000
v 12.671000 -2.156000 0.054000
v 12.671000 1.449000 0.054000
v 13.171000 -1.591000 0.054000
v 13.171000 0.758000 0.054000
v 11.367000 1.513000 -1.946000
v 12.416000 1.513000 -1.946000
v 10.995000 1.513000 -1.446000
v 12.779000 1.513000 -1.446000
v 10.902000 1.513000 -0.946000
v 12.865000 1.513000 -0.946000
v 10.894000 1.513000 -0.446000
v 12.873000 1.513000 -0.446000
v 11.138000 1.513000 0.054000
v 12.588000 1.513000 0.054000
v 11.171000 1.513000 -1.761000
v 11.171000 1.513000 0.095000
v 11.671000 1.513000 -2.150000
v 11.671000 1.513000 0.396000
v 12.171000 1.513000 -2.129000
v 12.171000 1.513000 0.385000
v 12.671000 1.513000 -1.672000
v 12.671000 1.513000 -0.037000
v 10.671000 -1.006000 -3.446000
v 10.671000 0.081000 -3.446000
v 11.171000 -1.617000 -3.446000
v 11.171000 0.893000 -3.446000
v 11.671000 -1.893000 -3.446000
v 11.671000 1.145000 -3.446000
v 12.171000 -2.132000 -3.446000
v 12.171000 1.146000 -3.446000
v 12.671000 -2.149000 -3.446000
v 12.671000 0.899000 -3.446000
v 13.171000 -1.928000 -3.446000
v 13.171000 0.173000 -3.446000
v 10.171000 -0.719000 0.554000
v 10.171000 0.677000 0.554000
v 10.671000 -1.544000 0.554000
v 10.671000 1.188000 0.554000
v 11.171000 -2.112000 0.554000
v 11.171000 1.369000 0.554000
v 11.671000 -2.319000 0.554000
v 11.671000 1.447000 0.554000
v 12.171000 -2.324000 0.554000
v 12.171000 1.448000 0.554000
v 12.671000 -2.132000 0.554000
v 12.671000 1.232000 0.554000
v 13.171000 -1.577000 0.554000
v 13.171000 0.704000 0.554000
v 11.831000 -1.987000 -3.446000
v 13.085000 -1.987000 -3.446000
v 11.285000 -1.987000 -2.946000
v 13.408000 -1.987000 -2.946000
v 10.939000 -1.987000 -2.446000
v 13.422000 -1.987000 -2.446000
v 10.918000 -1.987000 -1.946000
v 13.406000 -1.987000 -1.946000
v 10.968000 -1.987000 -1.446000
v 13.312000 -1.987000 -1.446000
v 10.956000 -1.987000 -0.946000
v 13.017000 -1.987000 -0.946000
v 10.914000 -1.987000 -0.446000
v 12.894000 -1.987000 -0.446000
v 10.929000 -1.987000 0.054000
v 12.883000 -1.987000 0.054000
v 11.010000 -1.987000 0.554000
v 12.861000 -1.987000 0.554000
v 11.343000 -1.987000 1.054000
v 12.529000 -1.987000 1.054000
v 11.171000 -1.987000 -2.843000
v 11.171000 -1.987000 0.879000
v 11.671000 -1.987000 -3.277000
v 11.671000 -1.987000 1.222000
v 12.171000 -1.987000 -3.628000
v 12.171000 -1.987000 1.230000
v 12.671000 -1.987000 -3.648000
v 12.671000 -1.987000 0.917000
v 13.171000 -1.987000 -3.367000
v 13.171000 -1.987000 -1.178000
v 10.671000 -1.159000 -2.946000
v 10.671000 0.570000 -2.946000
v 11.171000 -1.907000 -2.946000
v 11.171000 1.163000 -2.946000
v 11.671000 -2.165000 -2.946000
v 11.671000 1.365000 -2.946000
v 12.171000 -2.337000 -2.946000
v 12.171000 1.366000 -2.946000
v 12.671000 -2.351000 -2.946000
v 12.671000 1.167000 -2.946000
v 13.171000 -2.169000 -2.946000
v 13.171000 0.585000 -2.946000
v 13.671000 -1.643000 -2.946000
v 13.671000 -0.341000 -2.946000
v 10.171000 -0.119000 1.054000
v 10.171000 0.111000 1.054000
v 10.671000 -1.053000 1.054000
v 10.671000 0.981000 1.054000
v 11.171000 -1.865000 1.054000
v 11.171000 1.198000 1.054000
v 11.671000 -2.117000 1.054000
v 11.671000 1.344000 1.054000
v 12.171000 -2.123000 1.054000
v 12.171000 1.356000 1.054000
v 12.671000 -1.890000 1.054000
v 12.671000 1.171000 1.054000
v 13.171000 -0.736000 1.054000
v 13.171000 0.636000 1.054000
v 11.314000 -1.487000 -3.946000
v 12.823000 -1.487000 -3.946000
v 11.011000 -1.487000 -3.446000
v 13.525000 -1.487000 -3.446000
v 10.816000 -1.487000 -2.946000
v 13.742000 -1.487000 -2.946000
v 10.610000 -1.487000 -2.446000
v 13.753000 -1.487000 -2.446000
v 10.595000 -1.487000 -1.946000
v 13.742000 -1.487000 -1.946000
v 10.649000 -1.487000 -1.446000
v 13.684000 -1.487000 -1.446000
v 10.588000 -1.487000 -0.946000
v 13.449000 -1.487000 -0.946000
v 10.422000 -1.487000 -0.446000
v 13.245000 -1.487000 -0.446000
v 10.425000 -1.487000 0.054000
v 13.216000 -1.487000 0.054000
v 10.633000 -1.487000 0.554000
v 13.211000 -1.487000 0.554000
v 10.877000 -1.487000 1.054000
v 12.994000 -1.487000 1.054000
v 11.596000 -1.487000 1.554000
v 12.276000 -1.487000 1.554000
v 10.671000 -1.487000 -2.642000
v 10.671000 -1.487000 0.643000
v 11.171000 -1.487000 -3.790000
v 11.171000 -1.487000 1.350000
v 11.671000 -1.487000 -4.142000
v 11.671000 -1.487000 1.572000
v 12.171000 -1.487000 -4.154000
v 12.171000 -1.487000 1.578000
v 12.671000 -1.487000 -3.997000
v 12.671000 -1.487000 1.372000
v 13.171000 -1.487000 -3.786000
v 13.171000 -1.487000 0.707000
v 13.671000 -1.487000 -3.183000
v 13.671000 -1.487000 -1.392000
v 10.671000 -1.624000 -2.446000
v 10.671000 0.641000 -2.446000
v 11.171000 -2.167000 -2.446000
v 11.171000 1.216000 -2.446000
v 11.671000 -2.355000 -2.446000
v 11.671000 1.425000 -2.446000
v 12.171000 -2.373000 -2.446000
v 12.171000 1.422000 -2.446000
v 12.671000 -2.361000 -2.446000
v 12.671000 1.209000 -2.446000
v 13.171000 -2.180000 -2.446000
v 13.171000 0.622000 -2.446000
v 13.671000 -1.663000 -2.446000
v 13.671000 -0.315000 -2.446000
v 10.671000 -0.145000 1.554000
v 10.671000 0.136000 1.554000
v 11.171000 -0.937000 1.554000
v 11.171000 0.868000 1.554000
v 11.671000 -1.529000 1.554000
v 11.671000 1.134000 1.554000
v 12.171000 -1.542000 1.554000
v 12.171000 1.148000 1.554000
v 12.671000 -1.009000 1.554000
v 12.671000 0.922000 1.554000
v 11.498000 -0.987000 -4.446000
v 12.387000 -0.987000 -4.446000
v 10.862000 -0.987000 -3.946000
v 13.112000 -0.987000 -3.946000
v 10.662000 -0.987000 -3.446000
v 13.635000 -0.987000 -3.446000
v 10.622000 -0.987000 -2.946000
v 13.834000 -0.987000 -2.946000
v 10.522000 -0.987000 -2.446000
v 13.845000 -0.987000 -2.446000
v 10.503000 -0.987000 -1.946000
v 13.837000 -0.987000 -1.946000
v 10.474000 -0.987000 -1.446000
v 13.797000 -0.987000 -1.446000
v 10.291000 -0.987000 -0.946000
v 13.581000 -0.987000 -0.946000
v 10.087000 -0.987000 -0.446000
v 13.360000 -0.987000 -0.446000
v 10.089000 -0.987000 0.054000
v 13.320000 -0.987000 0.054000
v 10.300000 -0.987000 0.554000
v 13.312000 -0.987000 0.554000
v 10.624000 -0.987000 1.054000
v 13.122000 -0.987000 1.054000
v 11.203000 -0.987000 1.554000
v 12.686000 -0.987000 1.554000
v 10.171000 -0.987000 -0.717000
v 10.171000 -0.987000 0.316000
v 10.671000 -0.987000 -3.488000
v 10.671000 -0.987000 1.111000
v 11.171000 -0.987000 -4.270000
v 11.171000 -0.987000 1.530000
v 11.671000 -0.987000 -4.495000
v 11.671000 -0.987000 1.773000
v 12.171000 -0.987000 -4.504000
v 12.171000 -0.987000 1.785000
v 12.671000 -0.987000 -4.301000
v 12.671000 -0.987000 1.565000
v 13.171000 -0.987000 -3.901000
v 13.171000 -0.987000 0.963000
v 13.671000 -0.987000 -3.387000
v 13.671000 -0.987000 -1.096000
v 10.671000 -1.655000 -1.946000
v 10.671000 0.734000 -1.946000
v 11.171000 -2.187000 -1.946000
v 11.171000 1.395000 -1.946000
v 11.671000 -2.385000 -1.946000
v 11.671000 1.613000 -1.946000
v 12.171000 -2.397000 -1.946000
v 12.171000 1.600000 -1.946000
v 12.671000 -2.351000 -1.946000
v 12.671000 1.353000 -1.946000
v 13.171000 -2.167000 -1.946000
v 13.171000 0.596000 -1.946000
v 13.671000 -1.641000 -1.946000
v 13.671000 -0.308000 -1.946000
v 11.671000 -0.515000 2.054000
v 11.671000 0.515000 2.054000
v 12.171000 -0.546000 2.054000
v 12.171000 0.546000 2.054000
v 11.257000 -0.487000 -4.446000
v 12.628000 -0.487000 -4.446000
v 10.742000 -0.487000 -3.946000
v 13.146000 -0.487000 -3.946000
v 10.560000 -0.487000 -3.446000
v 13.521000 -0.487000 -3.446000
v 10.556000 -0.487000 -2.946000
v 13.738000 -0.487000 -2.946000
v 10.525000 -0.487000 -2.446000
v 13.751000 -0.487000 -2.446000
v 10.504000 -0.487000 -1.946000
v 13.750000 -0.487000 -1.946000
v 10.429000 -0.487000 -1.446000
v 13.720000 -0.487000 -1.446000
v 10.187000 -0.487000 -0.946000
v 13.513000 -0.487000 -0.946000
v 9.994000 -0.487000 -0.446000
v 13.343000 -0.487000 -0.446000
v 9.995000 -0.487000 0.054000
v 13.304000 -0.487000 0.054000
v 10.078000 -0.487000 0.554000
v 13.298000 -0.487000 0.554000
v 10.265000 -0.487000 1.054000
v 13.239000 -0.487000 1.054000
v 10.823000 -0.487000 1.554000
v 13.016000 -0.487000 1.554000
v 11.624000 -0.487000 2.054000
v 12.282000 -0.487000 2.054000
v 10.171000 -0.487000 -0.919000
v 10.171000 -0.487000 0.874000
v 10.671000 -0.487000 -3.810000
v 10.671000 -0.487000 1.462000
v 11.171000 -0.487000 -4.393000
v 11.171000 -0.487000 1.837000
v 11.671000 -0.487000 -4.599000
v 11.671000 -0.487000 2.065000
v 12.171000 -0.487000 -4.607000
v 12.171000 -0.487000 2.078000
v 12.671000 -0.487000 -4.421000
v 12.671000 -0.487000 1.883000
v 13.171000 -0.487000 -3.910000
v 13.171000 -0.487000 1.275000
v 13.671000 -0.487000 -3.173000
v 13.671000 -0.487000 -1.280000
v 10.671000 -1.533000 -1.446000
v 10.671000 1.102000 -1.446000
v 11.171000 -2.159000 -1.446000
v 11.171000 1.641000 -1.446000
v 11.671000 -2.377000 -1.446000
v 11.671000 1.826000 -1.446000
v 12.171000 -2.393000 -1.446000
v 12.171000 1.814000 -1.446000
v 12.671000 -2.289000 -1.446000
v 12.671000 1.597000 -1.446000
v 13.171000 -2.092000 -1.446000
v 13.171000 0.953000 -1.446000
v 13.671000 -1.518000 -1.446000
v 13.671000 -0.365000 -1.446000
v 11.450000 0.013000 -4.446000
v 12.435000 0.013000 -4.446000
v 10.841000 0.013000 -3.946000
v 13.044000 0.013000 -3.946000
v 10.645000 0.013000 -3.446000
v 13.251000 0.013000 -3.446000
v 10.554000 0.013000 -2.946000
v 13.426000 0.013000 -2.946000
v 10.517000 0.013000 -2.446000
v 13.445000 0.013000 -2.446000
v 10.514000 0.013000 -1.946000
v 13.449000 0.013000 -1.946000
v 10.468000 0.013000 -1.446000
v 13.458000 0.013000 -1.446000
v 10.288000 0.013000 -0.946000
v 13.393000 0.013000 -0.946000
v 10.088000 0.013000 -0.446000
v 13.338000 0.013000 -0.446000
v 10.008000 0.013000 0.054000
v 13.333000 0.013000 0.054000
v 9.992000 0.013000 0.554000
v 13.346000 0.013000 0.554000
v 10.165000 0.013000 1.054000
v 13.327000 0.013000 1.054000
v 10.657000 0.013000 1.554000
v 13.122000 0.013000 1.554000
v 11.366000 0.013000 2.054000
v 12.541000 0.013000 2.054000
v 10.171000 0.013000 -0.715000
v 10.171000 0.013000 1.063000
v 10.671000 0.013000 -3.563000
v 10.671000 0.013000 1.562000
v 11.171000 0.013000 -4.291000
v 11.171000 0.013000 1.944000
v 11.671000 0.013000 -4.513000
v 11.671000 0.013000 2.154000
v 12.171000 0.013000 -4.522000
v 12.171000 0.013000 2.166000
v 12.671000 0.013000 -4.322000
v 12.671000 0.013000 1.986000
v 13.171000 0.013000 -3.699000
v 13.171000 0.013000 1.475000
v 10.671000 -1.603000 -0.946000
v 10.671000 1.199000 -0.946000
v 11.171000 -2.160000 -0.946000
v 11.171000 1.726000 -0.946000
v 11.671000 -2.364000 -0.946000
v 11.671000 1.908000 -0.946000
v 12.171000 -2.373000 -0.946000
v 12.171000 1.895000 -0.946000
v 12.671000 -2.195000 -0.946000
v 12.671000 1.677000 -0.946000
v 13.171000 -1.856000 -0.946000
v 13.171000 1.047000 -0.946000
v 11.246000 0.513000 -3.946000
v 12.639000 0.513000 -3.946000
v 10.874000 0.513000 -3.446000
v 12.985000 0.513000 -3.446000
v 10.647000 0.513000 -2.946000
v 13.201000 0.513000 -2.946000
v 10.613000 0.513000 -2.446000
v 13.218000 0.513000 -2.446000
v 10.593000 0.513000 -1.946000
v 13.204000 0.513000 -1.946000
v 10.518000 0.513000 -1.446000
v 13.275000 0.513000 -1.446000
v 10.447000 0.513000 -0.946000
v 13.282000 0.513000 -0.946000
v 10.324000 0.513000 -0.446000
v 13.270000 0.513000 -0.446000
v 10.111000 0.513000 0.054000
v 13.258000 0.513000 0.054000
v 10.092000 0.513000 0.554000
v 13.258000 0.513000 0.554000
v 10.281000 0.513000 1.054000
v 13.227000 0.513000 1.054000
v 10.845000 0.513000 1.554000
v 13.003000 0.513000 1.554000
v 11.667000 0.513000 2.054000
v 12.239000 0.513000 2.054000
v 10.171000 0.513000 -0.132000
v 10.171000 0.513000 0.840000
v 10.671000 0.513000 -3.035000
v 10.671000 0.513000 1.446000
v 11.171000 0.513000 -3.865000
v 11.171000 0.513000 1.824000
v 11.671000 0.513000 -4.190000
v 11.671000 0.513000 2.055000
v 12.171000 0.513000 -4.201000
v 12.171000 0.513000 2.068000
v 12.671000 0.513000 -3.914000
v 12.671000 0.513000 1.871000
v 13.171000 0.513000 -3.055000
v 13.171000 0.513000 1.247000
v 11.671000 -1.094000 -4.446000
v 11.671000 0.165000 -4.446000
v 12.171000 -1.111000 -4.446000
v 12.171000 0.182000 -4.446000
v 10.171000 -1.163000 -0.446000
v 10.171000 0.198000 -0.446000
v 10.671000 -1.710000 -0.446000
v 10.671000 1.221000 -0.446000
v 11.171000 -2.191000 -0.446000
v 11.171000 1.732000 -0.446000
v 11.671000 -2.380000 -0.446000
v 11.671000 1.914000 -0.446000
v 12.171000 -2.373000 -0.446000
v 12.171000 1.901000 -0.446000
v 12.671000 -2.170000 -0.446000
v 12.671000 1.684000 -0.446000
v 13.171000 -1.637000 -0.446000
v 13.171000 1.049000 -0.446000
f 75 225 249
f 249 225 311
f 311 225 285
f 311 285 369
f 369 285 343
f 343 76 369
f 77 161 185
f 75 249 161
f 161 249 185
f 249 223 185
f 223 35 185
f 311 283 223
f 311 223 249
f 369 341 283
f 369 283 311
f 76 395 423
f 76 423 36
f 369 76 36
f 341 369 36
f 395 78 423
f 159 37 185
f 37 77 185
f 37 79 77
f 185 35 159
f 423 393 36
f 78 1 27
f 78 27 38
f 423 78 38
f 393 423 38
f 1 80 27
f 81 101 125
f 39 125 101
f 79 39 101
f 37 39 79
f 29 40 38
f 29 38 27
f 27 80 29
f 29 80 82
f 127 83 125
f 125 83 81
f 125 39 41
f 125 41 127
f 394 429 42
f 29 2 40
f 40 2 394
f 2 84 394
f 84 429 394
f 29 82 2
f 127 102 83
f 193 85 160
f 160 85 41
f 85 102 41
f 102 127 41
f 224 259 193
f 224 193 160
f 284 321 259
f 284 259 224
f 342 379 321
f 342 321 284
f 429 396 42
f 42 396 342
f 396 86 342
f 86 379 342
f 429 84 396
f 193 162 85
f 162 193 226
f 226 193 259
f 226 259 286
f 286 259 321
f 286 321 344
f 344 321 379
f 379 86 344
f 248 239 43
f 87 301 248
f 301 239 248
f 301 299 239
f 301 357 299
f 359 357 301
f 359 409 357
f 411 409 359
f 411 88 409
f 409 88 44
f 89 177 45
f 45 177 175
f 241 248 43
f 175 241 43
f 177 241 175
f 87 248 241
f 15 44 88
f 15 88 17
f 17 90 15
f 15 90 46
f 91 117 47
f 47 117 115
f 45 115 117
f 45 117 89
f 92 68 65
f 46 92 65
f 90 92 46
f 68 48 65
f 93 47 49
f 93 91 47
f 94 70 68
f 94 68 92
f 48 68 50
f 50 68 70
f 95 49 51
f 95 93 49
f 96 72 70
f 96 70 94
f 50 70 52
f 52 70 72
f 97 51 53
f 97 95 51
f 54 66 72
f 96 54 72
f 98 54 96
f 52 72 66
f 53 116 97
f 97 116 118
f 99 118 116
f 99 116 55
f 18 100 56
f 18 56 16
f 16 54 18
f 18 54 98
f 55 176 99
f 99 176 178
f 240 178 176
f 240 242 178
f 300 242 240
f 300 302 242
f 358 302 300
f 358 360 302
f 410 360 358
f 410 412 360
f 410 56 412
f 412 56 100
f 131 227 75
f 75 227 225
f 227 285 225
f 287 285 227
f 287 343 285
f 345 343 287
f 76 343 421
f 343 397 421
f 343 345 397
f 397 132 421
f 133 163 77
f 77 163 161
f 75 161 163
f 75 163 131
f 421 395 76
f 132 3 25
f 132 25 78
f 421 132 78
f 395 421 78
f 3 134 25
f 135 103 123
f 79 123 103
f 133 79 103
f 77 79 133
f 25 1 78
f 25 134 1
f 134 80 1
f 134 136 80
f 101 81 123
f 81 135 123
f 81 137 135
f 123 79 101
f 80 138 82
f 136 138 80
f 139 81 83
f 139 137 81
f 2 31 84
f 2 82 31
f 82 140 31
f 82 138 140
f 129 141 102
f 141 83 102
f 141 139 83
f 85 129 102
f 396 431 86
f 31 4 84
f 84 4 396
f 4 142 396
f 142 431 396
f 31 140 4
f 129 104 141
f 195 143 162
f 162 143 85
f 143 104 85
f 104 129 85
f 226 261 195
f 226 195 162
f 286 323 261
f 286 261 226
f 346 144 323
f 286 346 323
f 344 346 286
f 431 398 86
f 398 344 86
f 398 346 344
f 431 142 398
f 195 164 143
f 164 195 228
f 228 195 261
f 228 261 288
f 288 261 323
f 323 144 288
f 310 301 87
f 145 361 310
f 361 301 310
f 361 359 301
f 420 411 146
f 411 361 146
f 411 359 361
f 420 88 411
f 184 177 89
f 147 243 184
f 243 177 184
f 243 241 177
f 303 310 87
f 241 303 87
f 243 303 241
f 145 310 303
f 413 420 146
f 148 24 17
f 148 17 88
f 413 148 88
f 420 413 88
f 24 90 17
f 122 117 91
f 179 184 89
f 179 89 117
f 149 179 117
f 122 149 117
f 147 184 179
f 19 24 148
f 19 150 24
f 150 90 24
f 150 92 90
f 122 91 119
f 91 151 119
f 91 93 151
f 149 122 119
f 92 152 94
f 150 152 92
f 153 93 95
f 153 151 93
f 94 154 96
f 152 154 94
f 120 153 128
f 153 97 128
f 153 95 97
f 155 120 128
f 96 156 98
f 154 156 96
f 118 128 97
f 180 155 194
f 194 155 99
f 155 128 99
f 128 118 99
f 180 194 260
f 180 260 244
f 157 244 260
f 20 158 100
f 20 100 18
f 18 98 20
f 20 98 156
f 178 194 99
f 242 260 178
f 178 260 194
f 260 242 157
f 242 304 157
f 242 302 304
f 360 304 302
f 360 362 304
f 412 362 360
f 412 414 362
f 412 100 414
f 414 100 158
f 197 165 183
f 183 165 131
f 165 227 131
f 165 229 227
f 229 287 227
f 289 287 229
f 289 345 287
f 347 345 289
f 347 397 345
f 399 397 347
f 399 198 397
f 397 198 132
f 199 105 121
f 197 183 105
f 105 183 121
f 183 163 121
f 163 133 121
f 183 131 163
f 3 132 198
f 3 198 5
f 5 200 3
f 3 200 134
f 103 135 121
f 135 199 121
f 135 201 199
f 121 133 103
f 134 202 136
f 200 202 134
f 203 135 137
f 203 201 135
f 136 204 138
f 202 204 136
f 205 137 139
f 205 203 137
f 138 206 140
f 204 206 138
f 207 139 141
f 207 205 139
f 6 208 142
f 6 142 4
f 4 140 6
f 6 140 206
f 141 104 207
f 207 104 106
f 209 106 104
f 209 104 143
f 348 210 144
f 348 144 346
f 398 348 346
f 398 400 348
f 398 142 400
f 400 142 208
f 143 164 209
f 209 164 166
f 228 166 164
f 228 230 166
f 288 230 228
f 288 290 230
f 288 144 290
f 290 144 210
f 368 361 145
f 368 146 361
f 250 243 147
f 312 303 250
f 250 303 243
f 363 368 145
f 363 145 303
f 211 363 303
f 312 211 303
f 212 422 413
f 212 413 146
f 363 212 146
f 368 363 146
f 422 148 413
f 186 179 149
f 179 186 147
f 186 250 147
f 186 252 250
f 252 213 305
f 312 252 305
f 250 252 312
f 211 312 305
f 415 422 212
f 214 26 19
f 214 19 148
f 415 214 148
f 422 415 148
f 26 150 19
f 124 119 151
f 181 186 149
f 181 149 119
f 215 181 119
f 124 215 119
f 186 181 245
f 186 245 252
f 213 252 245
f 21 26 214
f 21 216 26
f 216 150 26
f 216 152 150
f 153 126 151
f 151 126 124
f 215 124 126
f 215 126 217
f 152 218 154
f 216 218 152
f 120 126 153
f 182 217 192
f 192 217 155
f 217 126 155
f 126 120 155
f 219 182 192
f 22 220 32
f 32 156 22
f 156 218 22
f 156 154 218
f 180 192 155
f 192 180 219
f 180 246 219
f 180 244 246
f 244 157 322
f 306 244 322
f 246 244 306
f 306 322 380
f 306 380 364
f 364 380 432
f 364 432 416
f 32 220 416
f 32 416 432
f 20 32 432
f 158 20 432
f 156 32 20
f 304 322 157
f 362 380 304
f 304 380 322
f 414 432 362
f 362 432 380
f 158 432 414
f 263 167 197
f 197 167 165
f 167 229 165
f 231 229 167
f 231 289 229
f 291 289 231
f 291 347 289
f 349 347 291
f 349 399 347
f 401 399 349
f 401 264 399
f 399 264 198
f 265 107 199
f 199 107 105
f 197 105 107
f 197 107 263
f 5 198 264
f 5 264 7
f 7 266 5
f 5 266 200
f 267 199 201
f 267 265 199
f 266 57 69
f 202 266 69
f 200 266 202
f 57 268 69
f 269 201 203
f 269 267 201
f 71 204 202
f 71 202 69
f 69 268 71
f 71 268 270
f 271 203 205
f 271 269 203
f 204 71 58
f 272 204 58
f 206 204 272
f 71 270 58
f 273 205 207
f 273 271 205
f 8 274 208
f 8 208 6
f 6 206 8
f 8 206 272
f 207 106 273
f 273 106 108
f 275 108 106
f 275 106 209
f 350 276 210
f 350 210 348
f 400 350 348
f 400 402 350
f 400 208 402
f 402 208 274
f 209 166 275
f 275 166 168
f 230 168 166
f 230 232 168
f 290 232 230
f 290 292 232
f 290 210 292
f 292 210 276
f 370 363 211
f 370 212 363
f 314 305 213
f 305 314 211
f 314 370 211
f 314 372 370
f 212 370 415
f 370 424 415
f 370 372 424
f 424 214 415
f 188 181 215
f 254 245 188
f 188 245 181
f 307 314 213
f 307 213 245
f 277 307 245
f 254 277 245
f 314 307 365
f 314 365 372
f 372 365 417
f 372 417 424
f 278 28 21
f 278 21 214
f 417 278 214
f 424 417 214
f 28 216 21
f 217 190 215
f 215 190 188
f 256 188 190
f 254 188 256
f 277 254 256
f 277 256 279
f 280 30 28
f 280 28 278
f 216 28 218
f 218 28 30
f 182 190 217
f 219 258 182
f 258 190 182
f 258 256 190
f 320 308 279
f 256 320 279
f 258 320 256
f 308 320 378
f 308 378 366
f 366 378 430
f 366 430 418
f 30 280 418
f 30 418 430
f 22 30 430
f 220 22 430
f 218 30 22
f 246 258 219
f 306 320 246
f 246 320 258
f 364 378 306
f 306 378 320
f 416 430 364
f 364 430 378
f 220 430 416
f 325 169 263
f 263 169 167
f 169 231 167
f 233 231 169
f 233 291 231
f 293 291 233
f 293 349 291
f 351 349 293
f 351 401 349
f 403 401 351
f 264 401 23
f 401 9 23
f 401 403 9
f 9 326 23
f 327 109 265
f 265 109 107
f 263 107 109
f 263 109 325
f 23 7 264
f 326 59 67
f 326 67 266
f 23 326 266
f 7 23 266
f 59 328 67
f 329 265 267
f 329 327 265
f 67 57 266
f 67 328 57
f 328 268 57
f 328 330 268
f 331 267 269
f 331 329 267
f 268 332 270
f 330 332 268
f 333 269 271
f 333 331 269
f 58 73 272
f 58 270 73
f 270 334 73
f 270 332 334
f 335 271 273
f 335 333 271
f 10 336 274
f 10 274 8
f 73 60 272
f 60 8 272
f 60 10 8
f 73 334 60
f 273 108 335
f 335 108 110
f 337 110 108
f 337 108 275
f 352 338 276
f 352 276 350
f 402 352 350
f 402 404 352
f 402 274 404
f 404 274 336
f 275 168 337
f 337 168 170
f 232 170 168
f 232 234 170
f 292 234 232
f 292 294 234
f 292 276 294
f 294 276 338
f 316 307 277
f 374 365 316
f 316 365 307
f 426 417 374
f 374 417 365
f 426 278 417
f 279 318 277
f 277 318 316
f 376 316 318
f 374 316 376
f 428 374 376
f 426 374 428
f 278 426 280
f 280 426 428
f 308 318 279
f 366 376 308
f 308 376 318
f 418 428 366
f 366 428 376
f 280 428 418
f 381 171 325
f 325 171 169
f 171 233 169
f 235 233 171
f 235 293 233
f 295 293 235
f 295 351 293
f 353 351 295
f 353 403 351
f 405 403 353
f 405 9 403
f 11 9 405
f 11 382 9
f 9 382 326
f 383 111 327
f 327 111 109
f 325 109 111
f 325 111 381
f 59 326 382
f 59 382 61
f 61 384 59
f 59 384 328
f 385 327 329
f 385 383 327
f 328 386 330
f 384 386 328
f 387 329 331
f 387 385 329
f 330 388 332
f 386 388 330
f 389 331 333
f 389 387 331
f 332 390 334
f 388 390 332
f 112 389 130
f 389 335 130
f 389 333 335
f 391 112 130
f 10 33 336
f 62 392 33
f 10 62 33
f 60 62 10
f 60 334 62
f 62 334 390
f 110 130 335
f 172 391 196
f 196 391 337
f 391 130 337
f 130 110 337
f 172 196 262
f 172 262 236
f 236 262 324
f 236 324 296
f 296 324 338
f 352 296 338
f 354 296 352
f 404 354 352
f 404 406 354
f 33 12 336
f 12 404 336
f 12 406 404
f 33 392 12
f 170 196 337
f 234 262 170
f 170 262 196
f 294 324 234
f 234 324 262
f 338 324 294
f 433 221 253
f 253 221 315
f 315 221 281
f 315 281 373
f 373 281 339
f 339 434 373
f 255 435 253
f 253 435 433
f 253 317 255
f 253 315 317
f 315 375 317
f 315 373 375
f 373 434 375
f 375 434 436
f 255 222 435
f 222 255 282
f 282 255 317
f 282 317 340
f 340 317 375
f 375 436 340
f 437 237 247
f 247 237 309
f 309 237 297
f 309 297 367
f 367 297 355
f 355 438 367
f 439 173 381
f 381 173 171
f 173 437 247
f 235 173 247
f 171 173 235
f 309 295 235
f 309 235 247
f 367 353 295
f 367 295 309
f 353 367 438
f 407 353 438
f 405 353 407
f 407 11 405
f 13 11 407
f 13 440 11
f 11 440 382
f 441 113 383
f 383 113 111
f 381 111 113
f 381 113 439
f 61 382 440
f 61 440 63
f 63 442 61
f 61 442 384
f 443 383 385
f 443 441 383
f 384 444 386
f 442 444 384
f 445 385 387
f 445 443 385
f 386 446 388
f 444 446 386
f 447 387 389
f 447 445 387
f 388 448 390
f 446 448 388
f 389 112 447
f 447 112 114
f 449 114 112
f 449 112 391
f 64 450 392
f 64 392 62
f 62 390 64
f 64 390 448
f 391 172 449
f 449 172 174
f 236 174 172
f 236 238 174
f 296 238 236
f 296 298 238
f 354 298 296
f 354 356 298
f 406 356 354
f 406 408 356
f 12 408 406
f 12 14 408
f 12 392 14
f 14 392 450
f 35 223 251
f 251 223 313
f 313 223 283
f 313 283 371
f 371 283 341
f 341 36 371
f 37 159 187
f 35 251 159
f 159 251 187
f 251 221 187
f 221 433 187
f 313 281 221
f 313 221 251
f 371 339 281
f 371 281 313
f 36 393 425
f 36 425 434
f 371 36 434
f 339 371 434
f 393 38 425
f 189 39 187
f 187 39 37
f 187 433 435
f 187 435 189
f 427 436 434
f 427 434 425
f 425 38 427
f 427 38 40
f 191 41 189
f 189 41 39
f 189 435 222
f 257 189 222
f 191 189 257
f 282 319 257
f 282 257 222
f 340 377 319
f 340 319 282
f 427 394 436
f 436 394 340
f 394 42 340
f 42 377 340
f 427 40 394
f 191 160 41
f 160 191 224
f 224 191 257
f 224 257 284
f 284 257 319
f 284 319 342
f 342 319 377
f 377 42 342
f 43 239 437
f 437 239 237
f 239 297 237
f 299 297 239
f 299 355 297
f 357 355 299
f 438 355 419
f 355 409 419
f 355 357 409
f 409 44 419
f 45 175 439
f 439 175 173
f 437 173 175
f 437 175 43
f 419 407 438
f 407 419 44
f 15 407 44
f 13 407 15
f 15 46 13
f 13 46 440
f 47 115 441
f 441 115 113
f 439 113 115
f 439 115 45
f 63 440 46
f 63 46 65
f 65 48 63
f 63 48 442
f 49 441 443
f 49 47 441
f 442 50 444
f 48 50 442
f 51 443 445
f 51 49 443
f 444 52 446
f 50 52 444
f 53 445 447
f 53 51 445
f 66 54 74
f 74 448 66
f 448 52 66
f 448 446 52
f 447 114 53
f 53 114 116
f 55 116 114
f 55 114 449
f 16 56 34
f 74 54 16
f 74 16 34
f 64 74 34
f 450 64 34
f 448 74 64
f 449 174 55
f 55 174 176
f 238 176 174
f 238 240 176
f 298 240 238
f 298 300 240
f 356 300 298
f 356 358 300
f 408 358 356
f 408 410 358
f 56 410 34
f 410 14 34
f 410 408 14
f 450 34 14
