# Converted from NanoShaper .vert/.face
v -1.982000 -12.078000 -3.533000
v -0.482000 -12.078000 -3.533000
v -2.425000 -12.078000 -3.033000
v 0.147000 -12.078000 -3.033000
v -2.598000 -12.078000 -2.533000
v 0.664000 -12.078000 -2.533000
v -2.619000 -12.078000 -2.033000
v 0.917000 -12.078000 -2.033000
v -2.658000 -12.078000 -1.533000
v 0.925000 -12.078000 -1.533000
v -2.856000 -12.078000 -1.033000
v 0.698000 -12.078000 -1.033000
v -3.069000 -12.078000 -0.533000
v 0.394000 -12.078000 -0.533000
v -3.114000 -12.078000 -0.033000
v 0.197000 -12.078000 -0.033000
v -3.128000 -12.078000 0.467000
v -0.025000 -12.078000 0.467000
v -3.024000 -12.078000 0.967000
v -0.449000 -12.078000 0.967000
v -2.720000 -12.078000 1.467000
v -0.826000 -12.078000 1.467000
v -3.331000 -8.078000 0.467000
v -0.764000 -8.078000 0.467000
v -3.940000 -8.078000 0.967000
v -0.534000 -8.078000 0.967000
v -4.379000 -8.078000 1.467000
v -0.538000 -8.078000 1.467000
v -4.558000 -8.078000 1.967000
v -0.693000 -8.078000 1.967000
v -4.593000 -8.078000 2.467000
v -0.792000 -8.078000 2.467000
v -4.590000 -8.078000 2.967000
v -0.829000 -8.078000 2.967000
v -4.388000 -8.078000 3.467000
v -0.753000 -8.078000 3.467000
v -4.095000 -8.078000 3.967000
v -0.602000 -8.078000 3.967000
v -3.883000 -8.078000 4.467000
v -0.610000 -8.078000 4.467000
v -3.322000 -8.078000 4.967000
v -0.867000 -8.078000 4.967000
v -2.955000 -12.078000 -0.861000
v -2.955000 -12.078000 1.111000
v -2.455000 -12.078000 -2.976000
v -2.455000 -12.078000 1.730000
v -1.955000 -12.078000 -3.552000
v -1.955000 -12.078000 1.943000
v -1.455000 -12.078000 -3.756000
v -1.455000 -12.078000 1.919000
v -0.955000 -12.078000 -3.745000
v -0.955000 -12.078000 1.614000
v -0.455000 -12.078000 -3.514000
v -0.455000 -12.078000 0.974000
v 0.045000 -12.078000 -3.111000
v 0.045000 -12.078000 0.355000
v 0.545000 -12.078000 -2.670000
v 0.545000 -12.078000 -0.798000
v -4.455000 -8.078000 1.614000
v -4.455000 -8.078000 3.353000
v -3.955000 -8.078000 0.982000
v -3.955000 -8.078000 4.339000
v -3.455000 -8.078000 0.534000
v -3.455000 -8.078000 4.893000
v -2.955000 -8.078000 0.344000
v -2.955000 -8.078000 5.129000
v -2.455000 -8.078000 0.212000
v -2.455000 -8.078000 5.346000
v -1.955000 -8.078000 0.018000
v -1.955000 -8.078000 5.366000
v -1.455000 -8.078000 0.023000
v -1.455000 -8.078000 5.330000
v -0.955000 -8.078000 0.273000
v -0.955000 -8.078000 5.058000
v -2.955000 -13.887000 -1.033000
v -2.955000 -12.716000 -1.033000
v -2.455000 -14.470000 -1.033000
v -2.455000 -9.623000 -1.033000
v -1.955000 -14.682000 -1.033000
v -1.955000 -9.028000 -1.033000
v -1.455000 -14.692000 -1.033000
v -1.455000 -8.868000 -1.033000
v -0.955000 -14.518000 -1.033000
v -0.955000 -8.922000 -1.033000
v -0.455000 -14.084000 -1.033000
v -0.455000 -9.159000 -1.033000
v 0.045000 -13.473000 -1.033000
v 0.045000 -9.739000 -1.033000
v 0.545000 -12.306000 -1.033000
v 0.545000 -10.430000 -1.033000
v -4.455000 -8.905000 2.967000
v -4.455000 -7.183000 2.967000
v -3.955000 -9.489000 2.967000
v -3.955000 -6.609000 2.967000
v -3.455000 -9.695000 2.967000
v -3.455000 -6.112000 2.967000
v -2.955000 -9.787000 2.967000
v -2.955000 -5.923000 2.967000
v -2.455000 -9.832000 2.967000
v -2.455000 -5.931000 2.967000
v -1.955000 -9.716000 2.967000
v -1.955000 -6.104000 2.967000
v -1.455000 -9.432000 2.967000
v -1.455000 -6.430000 2.967000
v -0.955000 -8.548000 2.967000
v -0.955000 -6.952000 2.967000
v -1.912000 -11.578000 -3.533000
v -0.568000 -11.578000 -3.533000
v -2.427000 -11.578000 -3.033000
v 0.300000 -11.578000 -3.033000
v -2.610000 -11.578000 -2.533000
v 0.906000 -11.578000 -2.533000
v -2.609000 -11.578000 -2.033000
v 1.114000 -11.578000 -2.033000
v -2.625000 -11.578000 -1.533000
v 1.122000 -11.578000 -1.533000
v -2.735000 -11.578000 -1.033000
v 0.931000 -11.578000 -1.033000
v -2.891000 -11.578000 -0.533000
v 0.469000 -11.578000 -0.533000
v -3.018000 -11.578000 -0.033000
v 0.091000 -11.578000 -0.033000
v -3.106000 -11.578000 0.467000
v -0.165000 -11.578000 0.467000
v -3.087000 -11.578000 0.967000
v -0.377000 -11.578000 0.967000
v -2.915000 -11.578000 1.467000
v -0.565000 -11.578000 1.467000
v -2.668000 -11.578000 1.967000
v -0.808000 -11.578000 1.967000
v -2.249000 -7.578000 0.467000
v -1.863000 -7.578000 0.467000
v -3.889000 -7.578000 0.967000
v -1.060000 -7.578000 0.967000
v -4.396000 -7.578000 1.467000
v -0.942000 -7.578000 1.467000
v -4.572000 -7.578000 1.967000
v -0.895000 -7.578000 1.967000
v -4.595000 -7.578000 2.467000
v -0.844000 -7.578000 2.467000
v -4.591000 -7.578000 2.967000
v -0.773000 -7.578000 2.967000
v -4.388000 -7.578000 3.467000
v -0.582000 -7.578000 3.467000
v -4.123000 -7.578000 3.967000
v -0.393000 -7.578000 3.967000
v -3.922000 -7.578000 4.467000
v -0.400000 -7.578000 4.467000
v -3.402000 -7.578000 4.967000
v -0.608000 -7.578000 4.967000
v -2.673000 -7.578000 5.467000
v -1.220000 -7.578000 5.467000
v -2.955000 -11.578000 -0.297000
v -2.955000 -11.578000 1.362000
v -2.455000 -11.578000 -2.983000
v -2.455000 -11.578000 2.183000
v -1.955000 -11.578000 -3.508000
v -1.955000 -11.578000 2.409000
v -1.455000 -11.578000 -3.690000
v -1.455000 -11.578000 2.394000
v -0.955000 -11.578000 -3.678000
v -0.955000 -11.578000 2.128000
v -0.455000 -11.578000 -3.463000
v -0.455000 -11.578000 1.172000
v 0.045000 -11.578000 -3.142000
v 0.045000 -11.578000 0.041000
v 0.545000 -11.578000 -2.898000
v 0.545000 -11.578000 -0.609000
v 1.045000 -11.578000 -2.269000
v 1.045000 -11.578000 -1.258000
v -4.455000 -7.578000 1.579000
v -4.455000 -7.578000 3.354000
v -3.955000 -7.578000 1.007000
v -3.955000 -7.578000 4.409000
v -3.455000 -7.578000 0.755000
v -3.455000 -7.578000 4.935000
v -2.955000 -7.578000 0.568000
v -2.955000 -7.578000 5.318000
v -2.455000 -7.578000 0.496000
v -2.455000 -7.578000 5.532000
v -1.955000 -7.578000 0.462000
v -1.955000 -7.578000 5.560000
v -1.455000 -7.578000 0.561000
v -1.455000 -7.578000 5.541000
v -0.955000 -7.578000 1.382000
v -0.955000 -7.578000 5.321000
v -0.455000 -7.578000 3.732000
v -0.455000 -7.578000 4.666000
v -2.955000 -14.278000 -0.533000
v -2.955000 -11.700000 -0.533000
v -2.455000 -14.575000 -0.533000
v -2.455000 -9.147000 -0.533000
v -1.955000 -14.691000 -0.533000
v -1.955000 -8.671000 -0.533000
v -1.455000 -14.687000 -0.533000
v -1.455000 -8.612000 -0.533000
v -0.955000 -14.497000 -0.533000
v -0.955000 -8.788000 -0.533000
v -0.455000 -14.013000 -0.533000
v -0.455000 -9.224000 -0.533000
v 0.045000 -13.429000 -0.533000
v 0.045000 -10.223000 -0.533000
v -3.955000 -9.239000 3.467000
v -3.955000 -6.670000 3.467000
v -3.455000 -9.485000 3.467000
v -3.455000 -6.168000 3.467000
v -2.955000 -9.488000 3.467000
v -2.955000 -5.981000 3.467000
v -2.455000 -9.460000 3.467000
v -2.455000 -5.972000 3.467000
v -1.955000 -9.359000 3.467000
v -1.955000 -6.011000 3.467000
v -1.455000 -9.121000 3.467000
v -1.455000 -6.145000 3.467000
v -0.955000 -8.468000 3.467000
v -0.955000 -6.413000 3.467000
v -1.792000 -11.078000 -3.533000
v -0.572000 -11.078000 -3.533000
v -2.378000 -11.078000 -3.033000
v 0.295000 -11.078000 -3.033000
v -2.586000 -11.078000 -2.533000
v 0.904000 -11.078000 -2.533000
v -2.607000 -11.078000 -2.033000
v 1.113000 -11.078000 -2.033000
v -2.621000 -11.078000 -1.533000
v 1.120000 -11.078000 -1.533000
v -2.654000 -11.078000 -1.033000
v 0.930000 -11.078000 -1.033000
v -2.704000 -11.078000 -0.533000
v 0.430000 -11.078000 -0.533000
v -2.924000 -11.078000 -0.033000
v 0.005000 -11.078000 -0.033000
v -3.105000 -11.078000 0.467000
v -0.234000 -11.078000 0.467000
v -3.116000 -11.078000 0.967000
v -0.328000 -11.078000 0.967000
v -3.096000 -11.078000 1.467000
v -0.380000 -11.078000 1.467000
v -2.916000 -11.078000 1.967000
v -0.560000 -11.078000 1.967000
v -2.396000 -11.078000 2.467000
v -1.080000 -11.078000 2.467000
v -4.184000 -7.078000 1.467000
v -1.403000 -7.078000 1.467000
v -4.393000 -7.078000 1.967000
v -1.138000 -7.078000 1.967000
v -4.404000 -7.078000 2.467000
v -1.048000 -7.078000 2.467000
v -4.394000 -7.078000 2.967000
v -0.889000 -7.078000 2.967000
v -4.207000 -7.078000 3.467000
v -0.575000 -7.078000 3.467000
v -4.094000 -7.078000 3.967000
v -0.385000 -7.078000 3.967000
v -3.911000 -7.078000 4.467000
v -0.392000 -7.078000 4.467000
v -3.385000 -7.078000 4.967000
v -0.599000 -7.078000 4.967000
v -2.641000 -7.078000 5.467000
v -1.199000 -7.078000 5.467000
v -2.955000 -11.078000 0.022000
v -2.955000 -11.078000 1.898000
v -2.455000 -11.078000 -2.904000
v -2.455000 -11.078000 2.433000
v -1.955000 -11.078000 -3.444000
v -1.955000 -11.078000 2.618000
v -1.455000 -11.078000 -3.642000
v -1.455000 -11.078000 2.606000
v -0.955000 -11.078000 -3.652000
v -0.955000 -11.078000 2.390000
v -0.455000 -11.078000 -3.470000
v -0.455000 -11.078000 1.751000
v 0.045000 -11.078000 -3.151000
v 0.045000 -11.078000 -0.095000
v 0.545000 -11.078000 -2.896000
v 0.545000 -11.078000 -0.629000
v 1.045000 -11.078000 -2.265000
v 1.045000 -11.078000 -1.262000
v -3.955000 -7.078000 1.226000
v -3.955000 -7.078000 4.390000
v -3.455000 -7.078000 0.990000
v -3.455000 -7.078000 4.925000
v -2.955000 -7.078000 0.979000
v -2.955000 -7.078000 5.304000
v -2.455000 -7.078000 0.975000
v -2.455000 -7.078000 5.520000
v -1.955000 -7.078000 1.013000
v -1.955000 -7.078000 5.565000
v -1.455000 -7.078000 1.402000
v -1.455000 -7.078000 5.549000
v -0.955000 -7.078000 2.813000
v -0.955000 -7.078000 5.331000
v -0.455000 -7.078000 3.709000
v -0.455000 -7.078000 4.689000
v -1.455000 -13.975000 -4.033000
v -1.455000 -12.678000 -4.033000
v -0.955000 -13.967000 -4.033000
v -0.955000 -12.686000 -4.033000
v -3.455000 -13.898000 -0.033000
v -3.455000 -12.856000 -0.033000
v -2.955000 -14.517000 -0.033000
v -2.955000 -11.236000 -0.033000
v -2.455000 -14.728000 -0.033000
v -2.455000 -8.381000 -0.033000
v -1.955000 -14.739000 -0.033000
v -1.955000 -8.136000 -0.033000
v -1.455000 -14.678000 -0.033000
v -1.455000 -8.142000 -0.033000
v -0.955000 -14.473000 -0.033000
v -0.955000 -8.426000 -0.033000
v -0.455000 -13.929000 -0.033000
v -0.455000 -9.173000 -0.033000
v 0.045000 -12.953000 -0.033000
v 0.045000 -11.376000 -0.033000
v -3.955000 -8.563000 3.967000
v -3.955000 -6.691000 3.967000
v -3.455000 -9.064000 3.967000
v -3.455000 -6.164000 3.967000
v -2.955000 -9.196000 3.967000
v -2.955000 -5.981000 3.967000
v -2.455000 -9.227000 3.967000
v -2.455000 -5.971000 3.967000
v -1.955000 -9.218000 3.967000
v -1.955000 -5.938000 3.967000
v -1.455000 -9.011000 3.967000
v -1.455000 -5.956000 3.967000
v -0.955000 -8.492000 3.967000
v -0.955000 -6.175000 3.967000
v -0.455000 -7.794000 3.967000
v -0.455000 -6.818000 3.967000
v -1.804000 -14.578000 -3.033000
v -0.628000 -14.578000 -3.033000
v -1.823000 -14.578000 -2.533000
v -0.522000 -14.578000 -2.533000
v -1.815000 -14.578000 -2.033000
v -0.514000 -14.578000 -2.033000
v -1.866000 -14.578000 -1.533000
v -0.949000 -14.578000 -1.533000
v -2.267000 -14.578000 -1.033000
v -1.077000 -14.578000 -1.033000
v -2.447000 -14.578000 -0.533000
v -1.105000 -14.578000 -0.533000
v -2.856000 -14.578000 -0.033000
v -1.144000 -14.578000 -0.033000
v -2.847000 -14.578000 0.467000
v -1.178000 -14.578000 0.467000
v -1.769000 -10.578000 -3.533000
v -0.545000 -10.578000 -3.533000
v -2.325000 -10.578000 -3.033000
v 0.057000 -10.578000 -3.033000
v -2.519000 -10.578000 -2.533000
v 0.657000 -10.578000 -2.533000
v -2.587000 -10.578000 -2.033000
v 0.911000 -10.578000 -2.033000
v -2.618000 -10.578000 -1.533000
v 0.919000 -10.578000 -1.533000
v -2.614000 -10.578000 -1.033000
v 0.689000 -10.578000 -1.033000
v -2.666000 -10.578000 -0.533000
v 0.235000 -10.578000 -0.533000
v -2.881000 -10.578000 -0.033000
v -0.048000 -10.578000 -0.033000
v -3.074000 -10.578000 0.467000
v -0.266000 -10.578000 0.467000
v -3.106000 -10.578000 0.967000
v -0.333000 -10.578000 0.967000
v -3.125000 -10.578000 1.467000
v -0.366000 -10.578000 1.467000
v -3.017000 -10.578000 1.967000
v -0.549000 -10.578000 1.967000
v -2.586000 -10.578000 2.467000
v -1.062000 -10.578000 2.467000
v -3.877000 -6.578000 1.967000
v -1.723000 -6.578000 1.967000
v -3.940000 -6.578000 2.467000
v -1.531000 -6.578000 2.467000
v -3.928000 -6.578000 2.967000
v -1.300000 -6.578000 2.967000
v -3.883000 -6.578000 3.467000
v -0.801000 -6.578000 3.467000
v -3.887000 -6.578000 3.967000
v -0.573000 -6.578000 3.967000
v -3.664000 -6.578000 4.467000
v -0.581000 -6.578000 4.467000
v -3.029000 -6.578000 4.967000
v -0.830000 -6.578000 4.967000
v -2.455000 -14.578000 -0.523000
v -2.455000 -14.578000 0.869000
v -1.955000 -14.578000 -1.416000
v -1.955000 -14.578000 0.889000
v -1.455000 -14.578000 -3.395000
v -1.455000 -14.578000 0.754000
v -0.955000 -14.578000 -3.386000
v -0.955000 -14.578000 -1.526000
v -2.955000 -10.578000 0.100000
v -2.955000 -10.578000 2.093000
v -2.455000 -10.578000 -2.771000
v -2.455000 -10.578000 2.534000
v -1.955000 -10.578000 -3.422000
v -1.955000 -10.578000 2.664000
v -1.455000 -10.578000 -3.643000
v -1.455000 -10.578000 2.627000
v -0.955000 -10.578000 -3.661000
v -0.955000 -10.578000 2.400000
v -0.455000 -10.578000 -3.484000
v -0.455000 -10.578000 1.779000
v 0.045000 -10.578000 -3.044000
v 0.045000 -10.578000 -0.210000
v 0.545000 -10.578000 -2.646000
v 0.545000 -10.578000 -0.881000
v -3.455000 -6.578000 1.512000
v -3.455000 -6.578000 4.678000
v -2.955000 -6.578000 1.473000
v -2.955000 -6.578000 5.036000
v -2.455000 -6.578000 1.531000
v -2.455000 -6.578000 5.305000
v -1.955000 -6.578000 1.733000
v -1.955000 -6.578000 5.376000
v -1.455000 -6.578000 2.705000
v -1.455000 -6.578000 5.359000
v -0.955000 -6.578000 3.302000
v -0.955000 -6.578000 5.095000
v -1.955000 -14.274000 -3.533000
v -1.955000 -11.914000 -3.533000
v -1.455000 -14.505000 -3.533000
v -1.455000 -10.216000 -3.533000
v -0.955000 -14.500000 -3.533000
v -0.955000 -10.176000 -3.533000
v -0.455000 -14.257000 -3.533000
v -0.455000 -12.157000 -3.533000
v -3.455000 -13.886000 0.467000
v -3.455000 -12.867000 0.467000
v -2.955000 -14.511000 0.467000
v -2.955000 -7.749000 0.467000
v -2.455000 -14.724000 0.467000
v -2.455000 -7.628000 0.467000
v -1.955000 -14.734000 0.467000
v -1.955000 -7.572000 0.467000
v -1.455000 -14.667000 0.467000
v -1.455000 -7.634000 0.467000
v -0.955000 -14.454000 0.467000
v -0.955000 -7.878000 0.467000
v -0.455000 -13.830000 0.467000
v -0.455000 -8.763000 0.467000
v -3.455000 -8.748000 4.467000
v -3.455000 -6.380000 4.467000
v -2.955000 -8.977000 4.467000
v -2.955000 -6.158000 4.467000
v -2.455000 -9.003000 4.467000
v -2.455000 -6.019000 4.467000
v -1.955000 -8.994000 4.467000
v -1.955000 -5.948000 4.467000
v -1.455000 -8.749000 4.467000
v -1.455000 -5.963000 4.467000
v -0.955000 -8.429000 4.467000
v -0.955000 -6.183000 4.467000
v -0.455000 -7.775000 4.467000
v -0.455000 -6.837000 4.467000
v -2.154000 -14.078000 -3.533000
v -0.278000 -14.078000 -3.533000
v -2.377000 -14.078000 -3.033000
v -0.055000 -14.078000 -3.033000
v -2.369000 -14.078000 -2.533000
v 0.012000 -14.078000 -2.533000
v -2.396000 -14.078000 -2.033000
v 0.016000 -14.078000 -2.033000
v -2.618000 -14.078000 -1.533000
v -0.210000 -14.078000 -1.533000
v -2.846000 -14.078000 -1.033000
v -0.450000 -14.078000 -1.033000
v -3.139000 -14.078000 -0.533000
v -0.516000 -14.078000 -0.533000
v -3.366000 -14.078000 -0.033000
v -0.561000 -14.078000 -0.033000
v -3.361000 -14.078000 0.467000
v -0.585000 -14.078000 0.467000
v -3.120000 -14.078000 0.967000
v -0.834000 -14.078000 0.967000
v -2.106000 -10.078000 -3.033000
v -0.207000 -10.078000 -3.033000
v -2.383000 -10.078000 -2.533000
v 0.166000 -10.078000 -2.533000
v -2.565000 -10.078000 -2.033000
v 0.405000 -10.078000 -2.033000
v -2.577000 -10.078000 -1.533000
v 0.396000 -10.078000 -1.533000
v -2.584000 -10.078000 -1.033000
v 0.238000 -10.078000 -1.033000
v -2.655000 -10.078000 -0.533000
v -0.017000 -10.078000 -0.533000
v -2.898000 -10.078000 -0.033000
v -0.205000 -10.078000 -0.033000
v -3.097000 -10.078000 0.467000
v -0.324000 -10.078000 0.467000
v -3.160000 -10.078000 0.967000
v -0.344000 -10.078000 0.967000
v -3.205000 -10.078000 1.467000
v -0.365000 -10.078000 1.467000
v -3.211000 -10.078000 1.967000
v -0.551000 -10.078000 1.967000
v -3.039000 -10.078000 2.467000
v -1.071000 -10.078000 2.467000
v -3.381000 -6.078000 2.467000
v -2.071000 -6.078000 2.467000
v -3.398000 -6.078000 2.967000
v -2.008000 -6.078000 2.967000
v -3.282000 -6.078000 3.467000
v -1.698000 -6.078000 3.467000
v -3.288000 -6.078000 3.967000
v -1.115000 -6.078000 3.967000
v -2.671000 -6.078000 4.467000
v -1.130000 -6.078000 4.467000
v -2.955000 -14.078000 -0.790000
v -2.955000 -14.078000 1.135000
v -2.455000 -14.078000 -1.836000
v -2.455000 -14.078000 1.385000
v -1.955000 -14.078000 -3.737000
v -1.955000 -14.078000 1.397000
v -1.455000 -14.078000 -3.972000
v -1.455000 -14.078000 1.352000
v -0.955000 -14.078000 -3.967000
v -0.955000 -14.078000 1.091000
v -0.455000 -14.078000 -3.719000
v -0.455000 -14.078000 -1.012000
v -2.955000 -10.078000 0.063000
v -2.955000 -10.078000 2.551000
v -2.455000 -10.078000 -2.378000
v -2.455000 -10.078000 2.751000
v -1.955000 -10.078000 -3.194000
v -1.955000 -10.078000 2.772000
v -1.455000 -10.078000 -3.459000
v -1.455000 -10.078000 2.642000
v -0.955000 -10.078000 -3.479000
v -0.955000 -10.078000 2.396000
v -0.455000 -10.078000 -3.271000
v -0.455000 -10.078000 1.779000
v 0.045000 -10.078000 -2.672000
v 0.045000 -10.078000 -0.663000
v -2.955000 -6.078000 2.068000
v -2.955000 -6.078000 4.303000
v -2.455000 -6.078000 2.084000
v -2.455000 -6.078000 4.666000
v -1.955000 -6.078000 3.156000
v -1.955000 -6.078000 4.838000
v -1.455000 -6.078000 3.593000
v -1.455000 -6.078000 4.805000
v -2.455000 -13.940000 -3.033000
v -2.455000 -12.607000 -3.033000
v -1.955000 -14.495000 -3.033000
v -1.955000 -9.912000 -3.033000
v -1.455000 -14.688000 -3.033000
v -1.455000 -9.631000 -3.033000
v -0.955000 -14.684000 -3.033000
v -0.955000 -9.614000 -3.033000
v -0.455000 -14.481000 -3.033000
v -0.455000 -9.833000 -3.033000
v 0.045000 -13.895000 -3.033000
v 0.045000 -10.553000 -3.033000
v -3.455000 -9.402000 0.967000
v -3.455000 -7.117000 0.967000
v -2.955000 -14.257000 0.967000
v -2.955000 -7.094000 0.967000
v -2.455000 -14.518000 0.967000
v -2.455000 -7.085000 0.967000
v -1.955000 -14.530000 0.967000
v -1.955000 -7.104000 0.967000
v -1.455000 -14.462000 0.967000
v -1.455000 -7.326000 0.967000
v -0.955000 -14.202000 0.967000
v -0.955000 -7.642000 0.967000
v -0.455000 -12.103000 0.967000
v -0.455000 -8.228000 0.967000
v -2.955000 -8.423000 4.967000
v -2.955000 -6.508000 4.967000
v -2.455000 -8.510000 4.967000
v -2.455000 -6.238000 4.967000
v -1.955000 -8.501000 4.967000
v -1.955000 -6.154000 4.967000
v -1.455000 -8.439000 4.967000
v -1.455000 -6.173000 4.967000
v -0.955000 -8.168000 4.967000
v -0.955000 -6.444000 4.967000
v -1.860000 -13.578000 -4.033000
v -0.572000 -13.578000 -4.033000
v -2.391000 -13.578000 -3.533000
v -0.040000 -13.578000 -3.533000
v -2.576000 -13.578000 -3.033000
v 0.144000 -13.578000 -3.033000
v -2.573000 -13.578000 -2.533000
v 0.197000 -13.578000 -2.533000
v -2.622000 -13.578000 -2.033000
v 0.201000 -13.578000 -2.033000
v -2.854000 -13.578000 -1.533000
v 0.068000 -13.578000 -1.533000
v -3.056000 -13.578000 -1.033000
v -0.013000 -13.578000 -1.033000
v -3.350000 -13.578000 -0.533000
v -0.040000 -13.578000 -0.533000
v -3.542000 -13.578000 -0.033000
v -0.228000 -13.578000 -0.033000
v -3.538000 -13.578000 0.467000
v -0.381000 -13.578000 0.467000
v -3.335000 -13.578000 0.967000
v -0.585000 -13.578000 0.967000
v -2.749000 -13.578000 1.467000
v -1.177000 -13.578000 1.467000
v -2.133000 -9.578000 -2.533000
v -0.284000 -9.578000 -2.533000
v -2.370000 -9.578000 -2.033000
v -0.046000 -9.578000 -2.033000
v -2.384000 -9.578000 -1.533000
v -0.034000 -9.578000 -1.533000
v -2.435000 -9.578000 -1.033000
v -0.043000 -9.578000 -1.033000
v -2.586000 -9.578000 -0.533000
v -0.223000 -9.578000 -0.533000
v -2.906000 -9.578000 -0.033000
v -0.342000 -9.578000 -0.033000
v -3.159000 -9.578000 0.467000
v -0.350000 -9.578000 0.467000
v -3.348000 -9.578000 0.967000
v -0.323000 -9.578000 0.967000
v -3.494000 -9.578000 1.467000
v -0.329000 -9.578000 1.467000
v -3.594000 -9.578000 1.967000
v -0.522000 -9.578000 1.967000
v -3.812000 -9.578000 2.467000
v -0.969000 -9.578000 2.467000
v -3.796000 -9.578000 2.967000
v -1.675000 -9.578000 2.967000
v -3.455000 -13.578000 -0.331000
v -3.455000 -13.578000 0.741000
v -2.955000 -13.578000 -1.330000
v -2.955000 -13.578000 1.352000
v -2.455000 -13.578000 -3.416000
v -2.455000 -13.578000 1.563000
v -1.955000 -13.578000 -3.978000
v -1.955000 -13.578000 1.580000
v -1.455000 -13.578000 -4.172000
v -1.455000 -13.578000 1.556000
v -0.955000 -13.578000 -4.168000
v -0.955000 -13.578000 1.343000
v -0.455000 -13.578000 -3.963000
v -0.455000 -13.578000 0.719000
v 0.045000 -13.578000 -3.370000
v 0.045000 -13.578000 -1.422000
v -3.455000 -9.578000 1.290000
v -3.455000 -9.578000 3.303000
v -2.955000 -9.578000 0.047000
v -2.955000 -9.578000 3.314000
v -2.455000 -9.578000 -0.936000
v -2.455000 -9.578000 3.286000
v -1.955000 -9.578000 -2.711000
v -1.955000 -9.578000 3.098000
v -1.455000 -9.578000 -2.976000
v -1.455000 -9.578000 2.855000
v -0.955000 -9.578000 -2.989000
v -0.955000 -9.578000 2.453000
v -0.455000 -9.578000 -2.710000
v -0.455000 -9.578000 1.846000
v -2.455000 -13.926000 -2.533000
v -2.455000 -10.309000 -2.533000
v -1.955000 -14.500000 -2.533000
v -1.955000 -9.400000 -2.533000
v -1.455000 -14.708000 -2.533000
v -1.455000 -9.161000 -2.533000
v -0.955000 -14.721000 -2.533000
v -0.955000 -9.162000 -2.533000
v -0.455000 -14.540000 -2.533000
v -0.455000 -9.405000 -2.533000
v 0.045000 -14.021000 -2.533000
v 0.045000 -9.956000 -2.533000
v 0.545000 -12.245000 -2.533000
v 0.545000 -10.463000 -2.533000
v -3.955000 -9.031000 1.467000
v -3.955000 -6.839000 1.467000
v -3.455000 -9.626000 1.467000
v -3.455000 -6.604000 1.467000
v -2.955000 -11.488000 1.467000
v -2.955000 -6.583000 1.467000
v -2.455000 -13.916000 1.467000
v -2.455000 -6.638000 1.467000
v -1.955000 -13.946000 1.467000
v -1.955000 -6.755000 1.467000
v -1.455000 -13.865000 1.467000
v -1.455000 -7.031000 1.467000
v -0.955000 -12.375000 1.467000
v -0.955000 -7.563000 1.467000
v -0.455000 -11.327000 1.467000
v -0.455000 -8.237000 1.467000
v -2.455000 -7.827000 5.467000
v -2.455000 -6.891000 5.467000
v -1.955000 -7.885000 5.467000
v -1.955000 -6.751000 5.467000
v -1.455000 -7.822000 5.467000
v -1.455000 -6.790000 5.467000
v -1.861000 -13.078000 -4.033000
v -0.571000 -13.078000 -4.033000
v -2.392000 -13.078000 -3.533000
v -0.039000 -13.078000 -3.533000
v -2.576000 -13.078000 -3.033000
v 0.151000 -13.078000 -3.033000
v -2.584000 -13.078000 -2.533000
v 0.226000 -13.078000 -2.533000
v -2.637000 -13.078000 -2.033000
v 0.279000 -13.078000 -2.033000
v -2.854000 -13.078000 -1.533000
v 0.206000 -13.078000 -1.533000
v -3.051000 -13.078000 -1.033000
v 0.176000 -13.078000 -1.033000
v -3.329000 -13.078000 -0.533000
v 0.162000 -13.078000 -0.533000
v -3.524000 -13.078000 -0.033000
v -0.003000 -13.078000 -0.033000
v -3.520000 -13.078000 0.467000
v -0.251000 -13.078000 0.467000
v -3.313000 -13.078000 0.967000
v -0.525000 -13.078000 0.967000
v -2.706000 -13.078000 1.467000
v -1.135000 -13.078000 1.467000
v -1.805000 -9.078000 -2.033000
v -0.611000 -9.078000 -2.033000
v -1.849000 -9.078000 -1.533000
v -0.584000 -9.078000 -1.533000
v -2.031000 -9.078000 -1.033000
v -0.587000 -9.078000 -1.033000
v -2.417000 -9.078000 -0.533000
v -0.585000 -9.078000 -0.533000
v -2.862000 -9.078000 -0.033000
v -0.495000 -9.078000 -0.033000
v -3.239000 -9.078000 0.467000
v -0.367000 -9.078000 0.467000
v -3.699000 -9.078000 0.967000
v -0.327000 -9.078000 0.967000
v -3.928000 -9.078000 1.467000
v -0.332000 -9.078000 1.467000
v -4.137000 -9.078000 1.967000
v -0.535000 -9.078000 1.967000
v -4.366000 -9.078000 2.467000
v -0.904000 -9.078000 2.467000
v -4.361000 -9.078000 2.967000
v -1.206000 -9.078000 2.967000
v -4.114000 -9.078000 3.467000
v -1.402000 -9.078000 3.467000
v -3.426000 -9.078000 3.967000
v -1.565000 -9.078000 3.967000
v -3.455000 -13.078000 -0.284000
v -3.455000 -13.078000 0.694000
v -2.955000 -13.078000 -1.332000
v -2.955000 -13.078000 1.330000
v -2.455000 -13.078000 -3.418000
v -2.455000 -13.078000 1.551000
v -1.955000 -13.078000 -3.978000
v -1.955000 -13.078000 1.589000
v -1.455000 -13.078000 -4.172000
v -1.455000 -13.078000 1.572000
v -0.955000 -13.078000 -4.168000
v -0.955000 -13.078000 1.373000
v -0.455000 -13.078000 -3.964000
v -0.455000 -13.078000 0.856000
v 0.045000 -13.078000 -3.371000
v 0.045000 -13.078000 -0.140000
v -3.955000 -9.078000 1.575000
v -3.955000 -9.078000 3.624000
v -3.455000 -9.078000 0.693000
v -3.455000 -9.078000 3.948000
v -2.955000 -9.078000 0.102000
v -2.955000 -9.078000 4.275000
v -2.455000 -9.078000 -0.491000
v -2.455000 -9.078000 4.345000
v -1.955000 -9.078000 -1.166000
v -1.955000 -9.078000 4.334000
v -1.455000 -9.078000 -2.384000
v -1.455000 -9.078000 3.623000
v -0.955000 -9.078000 -2.382000
v -0.955000 -9.078000 2.539000
v -0.455000 -9.078000 0.130000
v -0.455000 -9.078000 1.829000
v -2.455000 -13.984000 -2.033000
v -2.455000 -9.732000 -2.033000
v -1.955000 -14.499000 -2.033000
v -1.955000 -9.162000 -2.033000
v -1.455000 -14.708000 -2.033000
v -1.455000 -8.964000 -2.033000
v -0.955000 -14.724000 -2.033000
v -0.955000 -8.965000 -2.033000
v -0.455000 -14.544000 -2.033000
v -0.455000 -9.166000 -2.033000
v 0.045000 -14.028000 -2.033000
v 0.045000 -9.698000 -2.033000
v 0.545000 -12.527000 -2.033000
v 0.545000 -10.201000 -2.033000
v 1.045000 -11.825000 -2.033000
v 1.045000 -10.839000 -2.033000
v -4.455000 -8.405000 1.967000
v -4.455000 -7.195000 1.967000
v -3.955000 -9.277000 1.967000
v -3.955000 -6.625000 1.967000
v -3.455000 -9.723000 1.967000
v -3.455000 -6.350000 1.967000
v -2.955000 -10.859000 1.967000
v -2.955000 -6.140000 1.967000
v -2.455000 -11.791000 1.967000
v -2.455000 -6.149000 1.967000
v -1.955000 -12.051000 1.967000
v -1.955000 -6.406000 1.967000
v -1.455000 -12.024000 1.967000
v -1.455000 -6.761000 1.967000
v -0.955000 -11.727000 1.967000
v -0.955000 -7.428000 1.967000
v -2.178000 -12.578000 -3.533000
v -0.252000 -12.578000 -3.533000
v -2.450000 -12.578000 -3.033000
v 0.125000 -12.578000 -3.033000
v -2.560000 -12.578000 -2.533000
v 0.364000 -12.578000 -2.533000
v -2.608000 -12.578000 -2.033000
v 0.509000 -12.578000 -2.033000
v -2.729000 -12.578000 -1.533000
v 0.481000 -12.578000 -1.533000
v -2.920000 -12.578000 -1.033000
v 0.378000 -12.578000 -1.033000
v -3.152000 -12.578000 -0.533000
v 0.247000 -12.578000 -0.533000
v -3.307000 -12.578000 -0.033000
v 0.174000 -12.578000 -0.033000
v -3.306000 -12.578000 0.467000
v -0.046000 -12.578000 0.467000
v -3.106000 -12.578000 0.967000
v -0.508000 -12.578000 0.967000
v -2.611000 -12.578000 1.467000
v -1.029000 -12.578000 1.467000
v -2.652000 -8.578000 -0.033000
v -0.808000 -8.578000 -0.033000
v -3.369000 -8.578000 0.467000
v -0.522000 -8.578000 0.467000
v -3.916000 -8.578000 0.967000
v -0.350000 -8.578000 0.967000
v -4.160000 -8.578000 1.467000
v -0.354000 -8.578000 1.467000
v -4.390000 -8.578000 1.967000
v -0.557000 -8.578000 1.967000
v -4.561000 -8.578000 2.467000
v -0.828000 -8.578000 2.467000
v -4.556000 -8.578000 2.967000
v -0.966000 -8.578000 2.967000
v -4.352000 -8.578000 3.467000
v -1.014000 -8.578000 3.467000
v -3.947000 -8.578000 3.967000
v -1.027000 -8.578000 3.967000
v -3.632000 -8.578000 4.467000
v -1.190000 -8.578000 4.467000
v -2.955000 -12.578000 -0.958000
v -2.955000 -12.578000 1.165000
v -2.455000 -12.578000 -3.015000
v -2.455000 -12.578000 1.551000
v -1.955000 -12.578000 -3.746000
v -1.955000 -12.578000 1.657000
v -1.455000 -12.578000 -3.974000
v -1.455000 -12.578000 1.639000
v -0.955000 -12.578000 -3.970000
v -0.955000 -12.578000 1.418000
v -0.455000 -12.578000 -3.726000
v -0.455000 -12.578000 0.910000
v 0.045000 -12.578000 -3.157000
v 0.045000 -12.578000 0.319000
v -4.455000 -8.578000 2.122000
v -4.455000 -8.578000 3.281000
v -3.955000 -8.578000 1.033000
v -3.955000 -8.578000 3.956000
v -3.455000 -8.578000 0.517000
v -3.455000 -8.578000 4.643000
v -2.955000 -8.578000 0.200000
v -2.955000 -8.578000 4.877000
v -2.455000 -8.578000 -0.201000
v -2.455000 -8.578000 4.900000
v -1.955000 -8.578000 -0.448000
v -1.955000 -8.578000 4.883000
v -1.455000 -8.578000 -0.489000
v -1.455000 -8.578000 4.734000
v -0.955000 -8.578000 -0.199000
v -0.955000 -8.578000 2.899000
v -0.455000 -8.578000 0.625000
v -0.455000 -8.578000 1.783000
v -2.455000 -14.252000 -1.533000
v -2.455000 -9.705000 -1.533000
v -1.955000 -14.549000 -1.533000
v -1.955000 -9.139000 -1.533000
v -1.455000 -14.643000 -1.533000
v -1.455000 -8.950000 -1.533000
v -0.955000 -14.580000 -1.533000
v -0.955000 -8.953000 -1.533000
v -0.455000 -14.324000 -1.533000
v -0.455000 -9.152000 -1.533000
v 0.045000 -13.638000 -1.533000
v 0.045000 -9.688000 -1.533000
v 0.545000 -12.502000 -1.533000
v 0.545000 -10.194000 -1.533000
v 1.045000 -11.845000 -1.533000
v 1.045000 -10.820000 -1.533000
v -4.455000 -8.915000 2.467000
v -4.455000 -7.166000 2.467000
v -3.955000 -9.494000 2.467000
v -3.955000 -6.594000 2.467000
v -3.455000 -9.790000 2.467000
v -3.455000 -6.121000 2.467000
v -2.955000 -10.147000 2.467000
v -2.955000 -5.931000 2.467000
v -2.455000 -10.886000 2.467000
v -2.455000 -5.939000 2.467000
v -1.955000 -11.484000 2.467000
v -1.955000 -6.149000 2.467000
v -1.455000 -11.459000 2.467000
v -1.455000 -6.657000 2.467000
v -0.955000 -9.346000 2.467000
v -0.955000 -7.242000 2.467000
f 189 471 513
f 513 471 75
f 471 595 75
f 471 597 595
f 597 709 595
f 711 709 597
f 76 709 853
f 709 823 853
f 709 711 823
f 853 823 43
f 43 823 13
f 13 190 43
f 469 77 513
f 77 189 513
f 77 191 189
f 513 75 469
f 853 821 76
f 43 11 821
f 43 821 853
f 11 43 190
f 119 11 190
f 117 11 119
f 119 227 117
f 229 227 119
f 229 357 227
f 359 357 229
f 359 487 357
f 489 487 359
f 78 487 651
f 487 615 651
f 487 489 615
f 615 192 651
f 193 341 79
f 79 341 339
f 77 339 341
f 77 341 191
f 651 613 78
f 613 651 192
f 727 613 192
f 725 613 727
f 727 194 725
f 725 194 80
f 195 79 81
f 195 193 79
f 80 196 82
f 194 196 80
f 81 340 195
f 195 340 342
f 197 342 340
f 197 340 83
f 82 198 84
f 196 198 82
f 472 197 524
f 197 85 524
f 197 83 85
f 199 472 524
f 728 200 86
f 728 86 726
f 726 84 728
f 728 84 198
f 470 524 85
f 524 470 199
f 470 598 199
f 470 596 598
f 201 598 596
f 201 596 87
f 490 202 538
f 490 538 88
f 614 490 88
f 616 490 614
f 614 86 616
f 616 86 200
f 87 710 201
f 201 710 712
f 822 712 710
f 822 824 712
f 822 89 58
f 14 822 58
f 824 822 14
f 14 58 168
f 14 168 120
f 120 168 276
f 120 276 230
f 230 276 410
f 230 410 360
f 538 202 360
f 538 360 410
f 488 538 410
f 90 488 410
f 88 538 488
f 12 58 89
f 118 168 12
f 12 168 58
f 228 276 118
f 118 276 168
f 358 410 228
f 228 410 276
f 90 410 358
f 868 845 91
f 60 33 868
f 868 33 845
f 172 141 60
f 60 141 33
f 172 92 141
f 203 743 93
f 93 743 741
f 847 868 91
f 741 847 91
f 743 847 741
f 868 847 35
f 868 35 60
f 60 35 143
f 60 143 172
f 249 92 172
f 143 249 172
f 251 249 143
f 251 204 249
f 249 204 94
f 648 629 95
f 93 629 648
f 205 93 648
f 203 93 205
f 377 94 204
f 377 204 379
f 379 206 377
f 377 206 96
f 97 650 95
f 95 650 648
f 205 648 650
f 205 650 207
f 505 96 206
f 505 206 507
f 507 208 505
f 505 208 98
f 99 652 97
f 97 652 650
f 207 650 652
f 207 652 209
f 98 210 100
f 208 210 98
f 101 654 99
f 99 654 652
f 209 652 654
f 209 654 211
f 506 543 102
f 506 100 543
f 100 212 543
f 100 210 212
f 630 654 101
f 211 654 630
f 103 211 630
f 213 211 103
f 102 543 508
f 214 102 508
f 104 102 214
f 543 212 508
f 103 742 213
f 213 742 744
f 846 744 742
f 846 848 744
f 215 848 846
f 215 846 105
f 378 421 106
f 378 104 421
f 104 216 421
f 104 214 216
f 105 34 215
f 215 34 36
f 142 36 34
f 142 144 36
f 250 144 142
f 250 252 144
f 421 380 106
f 380 250 106
f 380 252 250
f 421 216 380
f 295 583 639
f 639 583 755
f 755 583 697
f 697 296 755
f 641 297 639
f 639 297 295
f 639 757 641
f 639 755 757
f 755 296 757
f 757 296 298
f 641 584 297
f 584 641 698
f 698 641 757
f 757 298 698
f 299 599 631
f 631 599 747
f 747 599 713
f 713 300 747
f 301 473 189
f 189 473 471
f 473 299 631
f 597 473 631
f 471 473 597
f 747 711 597
f 747 597 631
f 711 747 300
f 825 711 300
f 823 711 825
f 825 13 823
f 15 13 825
f 190 13 153
f 13 121 153
f 13 15 121
f 121 302 153
f 303 343 387
f 191 387 343
f 301 191 343
f 189 191 301
f 153 119 190
f 119 153 302
f 231 119 302
f 229 119 231
f 231 359 229
f 361 359 231
f 361 489 359
f 491 489 361
f 491 615 489
f 617 615 491
f 192 615 769
f 615 729 769
f 615 617 729
f 769 729 875
f 875 729 833
f 833 304 875
f 341 193 387
f 193 303 387
f 193 305 303
f 387 191 341
f 769 727 192
f 877 194 727
f 769 877 727
f 875 877 769
f 875 304 877
f 877 304 306
f 307 193 195
f 307 305 193
f 879 196 194
f 879 194 877
f 877 306 879
f 879 306 308
f 195 342 307
f 307 342 344
f 309 344 342
f 309 342 197
f 881 198 196
f 881 196 879
f 879 308 881
f 881 308 310
f 197 472 309
f 309 472 474
f 311 474 472
f 311 472 199
f 730 312 200
f 730 200 728
f 881 834 198
f 834 728 198
f 834 730 728
f 881 310 834
f 199 598 311
f 311 598 600
f 598 201 762
f 714 598 762
f 600 598 714
f 313 714 762
f 232 314 274
f 232 274 408
f 232 408 362
f 362 408 202
f 490 362 202
f 492 362 490
f 616 492 490
f 616 618 492
f 616 200 618
f 618 200 312
f 712 762 201
f 762 712 313
f 712 826 313
f 712 824 826
f 14 826 824
f 14 16 826
f 120 16 14
f 120 122 16
f 314 122 274
f 122 230 274
f 122 120 230
f 360 408 230
f 230 408 274
f 202 408 360
f 764 743 203
f 870 847 764
f 764 847 743
f 315 37 870
f 37 847 870
f 37 35 847
f 37 143 35
f 145 143 37
f 145 251 143
f 253 251 145
f 253 316 251
f 251 316 204
f 205 766 203
f 203 766 764
f 766 317 849
f 870 766 849
f 764 766 870
f 315 870 849
f 379 204 316
f 379 316 381
f 381 318 379
f 379 318 206
f 766 205 745
f 205 319 745
f 205 207 319
f 317 766 745
f 507 206 318
f 507 318 509
f 509 320 507
f 507 320 208
f 321 207 209
f 321 319 207
f 208 322 210
f 320 322 208
f 323 209 211
f 323 321 209
f 210 324 212
f 322 324 210
f 746 323 774
f 323 213 774
f 323 211 213
f 325 746 774
f 508 545 214
f 508 212 545
f 212 326 545
f 212 324 326
f 744 774 213
f 774 744 325
f 744 850 325
f 744 848 850
f 327 850 848
f 327 848 215
f 214 545 510
f 328 214 510
f 216 214 328
f 545 326 510
f 215 36 327
f 327 36 38
f 144 187 329
f 38 144 329
f 36 144 38
f 252 293 187
f 252 187 144
f 382 330 293
f 252 382 293
f 380 382 252
f 380 216 382
f 382 216 328
f 187 146 329
f 146 187 254
f 254 187 293
f 293 330 254
f 423 459 517
f 517 459 637
f 637 459 585
f 637 585 753
f 753 585 699
f 753 699 857
f 857 699 811
f 857 811 47
f 47 811 1
f 1 424 47
f 519 425 517
f 517 425 423
f 637 583 295
f 519 637 295
f 517 637 519
f 753 697 583
f 753 583 637
f 859 296 697
f 753 859 697
f 857 859 753
f 857 49 859
f 857 47 49
f 107 159 424
f 159 47 424
f 159 49 47
f 159 107 267
f 267 107 217
f 267 217 401
f 401 217 347
f 347 426 401
f 521 427 519
f 519 427 425
f 519 295 297
f 519 297 521
f 861 298 296
f 861 296 859
f 859 51 861
f 859 49 51
f 49 161 51
f 49 159 161
f 159 269 161
f 159 267 269
f 267 403 269
f 267 401 403
f 401 426 403
f 403 426 428
f 523 429 521
f 521 429 427
f 521 297 584
f 643 521 584
f 523 521 643
f 698 759 643
f 698 643 584
f 759 698 298
f 861 759 298
f 863 759 861
f 430 863 2
f 863 51 2
f 863 861 51
f 2 51 108
f 108 51 161
f 108 161 218
f 218 161 269
f 218 269 348
f 348 269 403
f 403 428 348
f 523 460 429
f 460 523 586
f 586 523 643
f 586 643 700
f 700 643 759
f 700 759 812
f 812 759 863
f 863 430 812
f 431 601 299
f 299 601 599
f 601 713 599
f 715 713 601
f 715 432 713
f 713 432 300
f 433 475 301
f 301 475 473
f 299 473 475
f 299 475 431
f 825 300 432
f 825 432 827
f 827 15 825
f 17 15 827
f 17 121 15
f 123 121 17
f 302 121 261
f 121 233 261
f 121 123 233
f 261 233 395
f 395 233 363
f 395 363 525
f 525 363 493
f 525 493 649
f 649 493 619
f 649 619 767
f 767 619 731
f 767 731 873
f 873 731 835
f 873 835 65
f 65 835 23
f 23 434 65
f 435 345 303
f 303 345 343
f 301 343 345
f 301 345 433
f 261 231 302
f 395 361 231
f 395 231 261
f 525 491 361
f 525 361 395
f 649 617 491
f 649 491 525
f 767 729 617
f 767 617 649
f 873 833 729
f 873 729 767
f 67 304 833
f 873 67 833
f 65 67 873
f 65 434 67
f 67 434 436
f 437 303 305
f 437 435 303
f 69 306 304
f 69 304 67
f 131 181 436
f 181 67 436
f 181 69 67
f 131 438 181
f 439 305 307
f 439 437 305
f 71 308 306
f 71 306 69
f 440 71 132
f 71 181 132
f 71 69 181
f 181 438 132
f 307 344 439
f 439 344 346
f 441 346 344
f 441 344 309
f 73 310 308
f 73 308 71
f 71 440 73
f 73 440 442
f 309 474 441
f 441 474 476
f 443 476 474
f 443 474 311
f 730 777 312
f 836 444 777
f 730 836 777
f 834 836 730
f 73 24 310
f 24 834 310
f 24 836 834
f 73 442 24
f 311 600 443
f 443 600 602
f 714 602 600
f 714 716 602
f 714 313 866
f 828 714 866
f 716 714 828
f 828 866 56
f 828 56 18
f 18 56 166
f 18 166 124
f 124 166 314
f 232 124 314
f 234 124 232
f 362 234 232
f 362 364 234
f 492 364 362
f 492 494 364
f 618 494 492
f 618 620 494
f 777 732 312
f 732 618 312
f 732 620 618
f 777 444 732
f 826 866 313
f 16 56 826
f 826 56 866
f 122 166 16
f 16 166 56
f 314 166 122
f 62 37 315
f 174 145 62
f 62 145 37
f 280 253 174
f 174 253 145
f 280 316 253
f 445 851 317
f 317 851 849
f 39 62 315
f 849 39 315
f 851 39 849
f 62 39 147
f 62 147 174
f 174 147 255
f 174 255 280
f 381 316 280
f 255 381 280
f 383 381 255
f 383 446 381
f 381 446 318
f 768 745 319
f 317 745 768
f 447 317 768
f 445 317 447
f 448 540 509
f 318 448 509
f 446 448 318
f 540 320 509
f 321 770 319
f 319 770 768
f 447 768 770
f 447 770 449
f 511 540 448
f 511 450 540
f 450 320 540
f 450 322 320
f 323 772 321
f 321 772 770
f 449 770 772
f 449 772 451
f 322 452 324
f 450 452 322
f 746 772 323
f 451 772 746
f 325 451 746
f 453 451 325
f 324 454 326
f 452 454 324
f 325 850 453
f 453 850 852
f 455 852 850
f 455 850 327
f 512 456 328
f 512 328 510
f 510 326 512
f 512 326 454
f 327 38 455
f 455 38 40
f 457 40 38
f 457 38 329
f 384 458 330
f 384 330 382
f 382 328 384
f 384 328 456
f 329 146 457
f 457 146 148
f 254 148 146
f 254 256 148
f 254 330 256
f 256 330 458
f 547 587 635
f 635 587 751
f 751 587 701
f 701 548 751
f 549 461 423
f 423 461 459
f 461 547 635
f 585 461 635
f 459 461 585
f 751 699 585
f 751 585 635
f 699 751 548
f 813 699 548
f 811 699 813
f 813 1 811
f 3 1 813
f 424 1 157
f 1 109 157
f 1 3 109
f 157 109 265
f 265 109 219
f 265 219 399
f 399 219 349
f 399 349 529
f 529 349 479
f 479 550 529
f 551 331 391
f 425 391 331
f 549 425 331
f 423 425 549
f 157 107 424
f 265 217 107
f 265 107 157
f 399 347 217
f 399 217 265
f 531 426 347
f 399 531 347
f 529 531 399
f 529 550 531
f 531 550 552
f 393 553 391
f 391 553 551
f 391 425 427
f 391 427 393
f 533 428 426
f 533 426 531
f 531 552 533
f 533 552 554
f 393 332 553
f 555 332 393
f 427 555 393
f 429 555 427
f 2 53 430
f 108 163 53
f 108 53 2
f 218 271 163
f 218 163 108
f 348 405 271
f 348 271 218
f 405 348 428
f 533 405 428
f 535 405 533
f 533 554 535
f 535 554 556
f 429 460 555
f 555 460 462
f 586 645 557
f 462 586 557
f 460 586 462
f 700 761 645
f 700 645 586
f 812 865 761
f 812 761 700
f 865 812 430
f 53 865 430
f 55 865 53
f 53 165 55
f 53 163 165
f 163 273 165
f 163 271 273
f 271 407 273
f 271 405 407
f 558 407 480
f 407 535 480
f 407 405 535
f 535 556 480
f 645 588 557
f 588 645 702
f 702 645 761
f 702 761 814
f 814 761 865
f 814 865 4
f 4 865 55
f 4 55 110
f 110 55 165
f 110 165 220
f 220 165 273
f 220 273 350
f 350 273 407
f 407 558 350
f 632 601 431
f 748 715 632
f 632 715 601
f 748 432 715
f 559 733 765
f 765 733 871
f 871 733 837
f 871 837 63
f 63 837 25
f 63 25 175
f 175 25 133
f 133 560 175
f 561 477 433
f 433 477 475
f 603 632 431
f 475 603 431
f 477 603 475
f 632 603 717
f 632 717 748
f 827 432 748
f 717 827 748
f 829 827 717
f 829 17 827
f 19 17 829
f 19 123 17
f 125 123 19
f 125 233 123
f 235 233 125
f 235 363 233
f 365 363 235
f 365 493 363
f 495 493 365
f 495 619 493
f 621 619 495
f 621 559 765
f 731 621 765
f 619 621 731
f 871 835 731
f 871 731 765
f 63 23 835
f 63 835 871
f 177 434 23
f 63 177 23
f 175 177 63
f 175 560 177
f 177 560 562
f 388 345 435
f 433 345 388
f 563 433 388
f 561 433 563
f 179 436 434
f 179 434 177
f 177 562 179
f 179 562 564
f 437 390 435
f 435 390 388
f 563 388 390
f 563 390 565
f 179 131 436
f 179 564 131
f 564 438 131
f 564 566 438
f 439 392 437
f 437 392 390
f 565 390 392
f 565 392 567
f 132 183 440
f 132 438 183
f 438 568 183
f 438 566 568
f 346 392 439
f 567 392 346
f 441 567 346
f 569 567 441
f 440 183 134
f 570 440 134
f 442 440 570
f 183 568 134
f 441 476 569
f 569 476 478
f 476 443 644
f 604 476 644
f 478 476 604
f 604 644 760
f 604 760 718
f 718 760 864
f 718 864 830
f 571 830 864
f 836 883 444
f 26 572 883
f 836 26 883
f 24 26 836
f 24 442 26
f 26 442 570
f 602 644 443
f 716 760 602
f 602 760 644
f 828 864 716
f 716 864 760
f 864 828 571
f 828 20 571
f 828 18 20
f 124 20 18
f 124 126 20
f 234 126 124
f 234 236 126
f 364 236 234
f 364 366 236
f 494 366 364
f 494 496 366
f 620 496 494
f 620 622 496
f 732 622 620
f 732 734 622
f 883 838 444
f 838 732 444
f 838 734 732
f 883 572 838
f 872 851 445
f 64 39 872
f 872 39 851
f 176 147 64
f 64 147 39
f 282 255 176
f 176 255 147
f 412 383 282
f 282 383 255
f 412 446 383
f 447 874 445
f 445 874 872
f 874 573 41
f 64 874 41
f 872 874 64
f 64 41 149
f 64 149 176
f 176 149 257
f 176 257 282
f 282 257 385
f 282 385 412
f 385 574 412
f 574 446 412
f 574 448 446
f 449 876 447
f 447 876 874
f 573 874 876
f 573 876 575
f 576 542 511
f 448 576 511
f 574 576 448
f 542 450 511
f 451 878 449
f 449 878 876
f 575 876 878
f 575 878 577
f 578 544 542
f 578 542 576
f 450 542 452
f 452 542 544
f 453 880 451
f 451 880 878
f 577 878 880
f 577 880 579
f 580 546 544
f 580 544 578
f 452 544 454
f 454 544 546
f 852 880 453
f 579 880 852
f 455 579 852
f 581 579 455
f 456 512 546
f 580 456 546
f 582 456 580
f 454 546 512
f 455 40 581
f 581 40 42
f 40 457 188
f 150 40 188
f 42 40 150
f 150 188 294
f 150 294 258
f 258 294 458
f 384 258 458
f 386 258 384
f 384 456 386
f 386 456 582
f 148 188 457
f 256 294 148
f 148 294 188
f 458 294 256
f 661 589 547
f 547 589 587
f 589 701 587
f 703 701 589
f 548 701 855
f 701 815 855
f 701 703 815
f 855 815 45
f 45 815 5
f 45 5 155
f 155 5 111
f 155 111 263
f 263 111 221
f 263 221 397
f 397 221 351
f 351 662 397
f 663 463 549
f 549 463 461
f 547 461 463
f 547 463 661
f 855 813 548
f 45 3 813
f 45 813 855
f 155 109 3
f 155 3 45
f 263 219 109
f 263 109 155
f 397 349 219
f 397 219 263
f 349 397 662
f 481 349 662
f 479 349 481
f 550 479 653
f 479 607 653
f 479 481 607
f 607 664 653
f 665 333 551
f 551 333 331
f 549 331 333
f 549 333 663
f 655 552 550
f 655 550 653
f 653 664 655
f 655 664 666
f 667 551 553
f 667 665 551
f 657 554 552
f 657 552 655
f 655 666 657
f 657 666 668
f 553 332 667
f 667 332 334
f 669 334 332
f 669 332 555
f 659 556 554
f 659 554 657
f 657 668 659
f 659 668 670
f 555 462 669
f 669 462 464
f 671 464 462
f 671 462 557
f 480 537 558
f 659 608 556
f 556 608 480
f 608 672 480
f 672 537 480
f 659 670 608
f 557 588 671
f 671 588 590
f 702 590 588
f 702 704 590
f 814 704 702
f 814 816 704
f 4 57 673
f 816 4 673
f 814 4 816
f 110 167 57
f 110 57 4
f 220 275 167
f 220 167 110
f 350 409 275
f 350 275 220
f 537 482 558
f 558 482 350
f 482 674 350
f 674 409 350
f 537 672 482
f 57 6 673
f 6 57 112
f 112 57 167
f 112 167 222
f 222 167 275
f 222 275 352
f 352 275 409
f 409 674 352
f 675 839 869
f 869 839 61
f 61 839 27
f 61 27 173
f 173 27 135
f 173 135 279
f 279 135 243
f 243 676 279
f 677 623 647
f 647 623 559
f 623 733 559
f 623 735 733
f 735 675 869
f 837 735 869
f 733 735 837
f 61 25 837
f 61 837 869
f 173 133 25
f 173 25 61
f 281 560 133
f 173 281 133
f 279 281 173
f 279 676 281
f 281 676 678
f 514 477 561
f 634 603 514
f 514 603 477
f 750 717 634
f 634 717 603
f 854 829 750
f 750 829 717
f 44 19 854
f 854 19 829
f 154 125 44
f 44 125 19
f 679 237 154
f 237 125 154
f 237 235 125
f 237 365 235
f 367 365 237
f 367 495 365
f 497 495 367
f 497 677 647
f 621 497 647
f 495 497 621
f 647 559 621
f 283 562 560
f 283 560 281
f 281 678 283
f 283 678 680
f 563 516 561
f 561 516 514
f 516 681 605
f 634 516 605
f 514 516 634
f 634 605 719
f 634 719 750
f 750 719 831
f 750 831 854
f 854 831 21
f 854 21 44
f 44 21 127
f 44 127 154
f 679 154 127
f 285 564 562
f 285 562 283
f 283 680 285
f 285 680 682
f 565 518 563
f 563 518 516
f 681 516 518
f 681 518 683
f 287 566 564
f 287 564 285
f 285 682 287
f 287 682 684
f 567 520 565
f 565 520 518
f 683 518 520
f 683 520 685
f 289 568 566
f 289 566 287
f 287 684 289
f 289 684 686
f 569 522 567
f 567 522 520
f 642 606 685
f 520 642 685
f 522 642 520
f 606 642 758
f 606 758 720
f 720 758 862
f 720 862 832
f 687 832 862
f 134 185 570
f 289 244 568
f 568 244 134
f 244 688 134
f 688 185 134
f 289 686 244
f 478 522 569
f 604 642 478
f 478 642 522
f 718 758 604
f 604 758 642
f 830 862 718
f 718 862 758
f 22 687 54
f 54 687 571
f 687 862 571
f 862 830 571
f 22 54 164
f 22 164 128
f 689 128 164
f 28 690 572
f 28 572 26
f 185 136 570
f 136 26 570
f 136 28 26
f 185 688 136
f 20 54 571
f 126 164 20
f 20 164 54
f 164 126 689
f 126 238 689
f 126 236 238
f 366 238 236
f 366 368 238
f 496 368 366
f 496 498 368
f 622 498 496
f 622 624 498
f 734 624 622
f 734 736 624
f 838 736 734
f 838 840 736
f 838 572 840
f 840 572 690
f 66 41 573
f 178 149 66
f 66 149 41
f 284 257 178
f 178 257 149
f 414 385 284
f 284 385 257
f 414 574 385
f 575 68 573
f 573 68 66
f 68 691 151
f 178 68 151
f 66 68 178
f 178 151 259
f 178 259 284
f 284 259 692
f 416 284 692
f 414 284 416
f 574 414 576
f 576 414 416
f 577 70 575
f 575 70 68
f 691 68 70
f 691 70 693
f 694 418 416
f 694 416 692
f 576 416 578
f 578 416 418
f 579 72 577
f 577 72 70
f 693 70 72
f 693 72 695
f 696 420 418
f 696 418 694
f 578 418 580
f 580 418 420
f 581 74 579
f 579 74 72
f 186 152 695
f 72 186 695
f 74 186 72
f 152 186 292
f 152 292 260
f 420 696 260
f 292 420 260
f 422 420 292
f 580 420 582
f 582 420 422
f 42 74 581
f 150 186 42
f 42 186 74
f 258 292 150
f 150 292 186
f 386 422 258
f 258 422 292
f 582 422 386
f 779 591 661
f 661 591 589
f 591 703 589
f 705 703 591
f 705 815 703
f 817 815 705
f 817 5 815
f 7 5 817
f 7 111 5
f 113 111 7
f 113 221 111
f 223 221 113
f 223 351 221
f 353 351 223
f 662 351 527
f 351 483 527
f 351 353 483
f 483 780 527
f 781 465 663
f 663 465 463
f 661 463 465
f 661 465 779
f 527 481 662
f 481 527 780
f 609 481 780
f 607 481 609
f 609 782 607
f 607 782 664
f 783 335 665
f 665 335 333
f 663 333 335
f 663 335 781
f 782 721 773
f 666 782 773
f 664 782 666
f 721 784 773
f 785 665 667
f 785 783 665
f 775 668 666
f 775 666 773
f 773 784 775
f 775 784 786
f 667 334 785
f 785 334 336
f 787 336 334
f 787 334 669
f 668 775 722
f 788 668 722
f 670 668 788
f 775 786 722
f 669 464 787
f 787 464 466
f 789 466 464
f 789 464 671
f 610 790 672
f 610 672 608
f 608 670 610
f 610 670 788
f 671 590 789
f 789 590 592
f 704 592 590
f 704 706 592
f 816 706 704
f 816 818 706
f 791 818 816
f 791 816 673
f 484 792 674
f 484 674 482
f 482 672 484
f 484 672 790
f 673 6 791
f 791 6 8
f 112 169 793
f 8 112 793
f 6 112 8
f 222 277 169
f 222 169 112
f 354 794 277
f 222 354 277
f 352 354 222
f 352 674 354
f 354 674 792
f 169 114 793
f 114 169 224
f 224 169 277
f 277 794 224
f 795 29 59
f 59 29 171
f 171 29 137
f 137 796 171
f 797 737 763
f 763 737 675
f 737 839 675
f 737 841 839
f 841 795 59
f 27 841 59
f 839 841 27
f 171 135 27
f 171 27 59
f 135 171 796
f 245 135 796
f 243 135 245
f 245 798 243
f 243 798 676
f 799 625 677
f 677 625 623
f 625 797 763
f 735 625 763
f 623 625 735
f 763 675 735
f 798 373 411
f 678 798 411
f 676 798 678
f 373 800 411
f 262 237 679
f 801 369 262
f 369 237 262
f 369 367 237
f 369 497 367
f 499 497 369
f 677 497 499
f 677 499 799
f 413 680 678
f 413 678 411
f 411 800 413
f 413 800 802
f 636 605 681
f 752 719 636
f 636 719 605
f 856 831 752
f 752 831 719
f 46 21 856
f 856 21 831
f 803 129 46
f 129 21 46
f 129 127 21
f 239 262 679
f 127 239 679
f 129 239 127
f 801 262 239
f 415 682 680
f 415 680 413
f 413 802 415
f 415 802 804
f 683 638 681
f 681 638 636
f 754 636 638
f 752 636 754
f 858 752 754
f 856 752 858
f 48 856 858
f 46 856 48
f 803 46 48
f 803 48 805
f 417 684 682
f 417 682 415
f 415 804 417
f 417 804 806
f 685 640 683
f 683 640 638
f 756 638 640
f 754 638 756
f 860 754 756
f 858 754 860
f 50 858 860
f 48 858 50
f 805 48 50
f 805 50 807
f 684 417 374
f 808 684 374
f 686 684 808
f 417 806 374
f 606 640 685
f 720 756 606
f 606 756 640
f 832 860 720
f 720 860 756
f 687 52 832
f 52 860 832
f 52 50 860
f 807 50 52
f 807 52 809
f 246 810 688
f 246 688 244
f 244 686 246
f 246 686 808
f 22 52 687
f 52 22 809
f 22 130 809
f 22 128 130
f 128 689 272
f 240 128 272
f 130 128 240
f 240 272 406
f 240 406 370
f 370 406 536
f 370 536 500
f 500 536 660
f 500 660 626
f 626 660 778
f 626 778 738
f 738 778 884
f 738 884 842
f 842 884 690
f 28 842 690
f 30 842 28
f 136 30 28
f 136 138 30
f 136 688 138
f 138 688 810
f 238 272 689
f 368 406 238
f 238 406 272
f 498 536 368
f 368 536 406
f 624 660 498
f 498 660 536
f 736 778 624
f 624 778 660
f 840 884 736
f 736 884 778
f 690 884 840
f 180 151 691
f 286 259 180
f 180 259 151
f 286 692 259
f 693 182 691
f 691 182 180
f 288 180 182
f 286 180 288
f 692 286 694
f 694 286 288
f 695 184 693
f 693 184 182
f 290 182 184
f 288 182 290
f 694 288 696
f 696 288 290
f 152 184 695
f 260 290 152
f 152 290 184
f 696 290 260
f 885 467 515
f 515 467 779
f 467 591 779
f 467 593 591
f 593 705 591
f 707 705 593
f 707 817 705
f 819 817 707
f 819 7 817
f 9 7 819
f 9 113 7
f 115 113 9
f 115 223 113
f 225 223 115
f 225 353 223
f 355 353 225
f 355 483 353
f 485 483 355
f 485 886 483
f 483 886 780
f 465 781 515
f 781 885 515
f 781 887 885
f 515 779 465
f 609 780 886
f 609 886 611
f 611 888 609
f 609 888 782
f 889 337 783
f 783 337 335
f 781 335 337
f 781 337 887
f 721 782 888
f 721 888 723
f 723 890 721
f 721 890 784
f 891 783 785
f 891 889 783
f 784 892 786
f 890 892 784
f 785 336 891
f 891 336 338
f 893 338 336
f 893 336 787
f 724 894 788
f 724 788 722
f 722 786 724
f 724 786 892
f 787 466 893
f 893 466 468
f 895 468 466
f 895 466 789
f 612 896 790
f 612 790 610
f 610 788 612
f 612 788 894
f 789 592 895
f 895 592 594
f 706 594 592
f 706 708 594
f 818 708 706
f 818 820 708
f 897 820 818
f 897 818 791
f 486 898 792
f 486 792 484
f 484 790 486
f 486 790 896
f 791 8 897
f 897 8 10
f 899 10 8
f 899 8 793
f 356 900 794
f 356 794 354
f 354 792 356
f 356 792 898
f 793 114 899
f 899 114 116
f 224 116 114
f 224 226 116
f 224 794 226
f 226 794 900
f 901 843 867
f 867 843 795
f 843 29 795
f 843 31 29
f 31 137 29
f 139 137 31
f 139 902 137
f 137 902 796
f 903 739 797
f 797 739 737
f 739 901 867
f 841 739 867
f 737 739 841
f 867 795 841
f 245 796 902
f 245 902 247
f 247 904 245
f 245 904 798
f 905 627 799
f 799 627 625
f 797 625 627
f 797 627 903
f 373 798 904
f 373 904 375
f 375 906 373
f 373 906 800
f 396 369 801
f 907 501 396
f 501 369 396
f 501 499 369
f 799 499 501
f 799 501 905
f 906 503 539
f 802 906 539
f 800 906 802
f 503 908 539
f 156 129 803
f 264 239 156
f 156 239 129
f 371 396 801
f 371 801 239
f 909 371 239
f 264 909 239
f 907 396 371
f 541 804 802
f 541 802 539
f 539 908 541
f 541 908 910
f 805 158 803
f 803 158 156
f 158 911 241
f 264 158 241
f 156 158 264
f 909 264 241
f 804 541 504
f 912 804 504
f 806 804 912
f 541 910 504
f 807 160 805
f 805 160 158
f 911 158 160
f 911 160 913
f 376 914 808
f 376 808 374
f 374 806 376
f 376 806 912
f 809 162 807
f 807 162 160
f 270 242 913
f 160 270 913
f 162 270 160
f 242 270 404
f 242 404 372
f 372 404 534
f 372 534 502
f 502 534 658
f 502 658 628
f 915 628 658
f 248 916 810
f 248 810 246
f 246 808 248
f 248 808 914
f 130 162 809
f 240 270 130
f 130 270 162
f 370 404 240
f 240 404 270
f 500 534 370
f 370 534 404
f 626 658 500
f 500 658 534
f 658 626 915
f 626 740 915
f 626 738 740
f 842 740 738
f 842 844 740
f 30 844 842
f 30 32 844
f 138 32 30
f 138 140 32
f 138 810 140
f 140 810 916
f 75 595 633
f 633 595 749
f 749 595 709
f 709 76 749
f 77 469 885
f 885 469 467
f 469 75 633
f 593 469 633
f 467 469 593
f 749 707 593
f 749 593 633
f 707 749 76
f 821 707 76
f 819 707 821
f 821 9 819
f 11 9 821
f 11 115 9
f 117 115 11
f 117 225 115
f 227 225 117
f 227 355 225
f 357 355 227
f 357 485 355
f 487 485 357
f 487 78 485
f 485 78 886
f 79 339 389
f 887 389 339
f 77 887 339
f 885 887 77
f 611 886 78
f 611 78 613
f 888 611 771
f 611 725 771
f 611 613 725
f 725 80 771
f 337 889 389
f 889 79 389
f 889 81 79
f 389 887 337
f 771 723 888
f 771 80 723
f 80 890 723
f 80 82 890
f 340 81 394
f 81 891 394
f 81 889 891
f 83 340 394
f 890 84 892
f 82 84 890
f 338 394 891
f 83 394 338
f 893 83 338
f 85 83 893
f 726 86 894
f 726 894 724
f 724 892 726
f 726 892 84
f 893 468 85
f 85 468 470
f 468 895 646
f 596 468 646
f 470 468 596
f 87 596 646
f 614 88 896
f 614 896 612
f 612 894 614
f 614 894 86
f 594 646 895
f 646 594 87
f 594 710 87
f 594 708 710
f 820 710 708
f 820 822 710
f 89 822 820
f 89 820 897
f 488 90 898
f 488 898 486
f 486 896 488
f 488 896 88
f 897 10 89
f 89 10 12
f 10 899 170
f 118 10 170
f 12 10 118
f 118 170 278
f 118 278 228
f 228 278 900
f 356 228 900
f 358 228 356
f 356 898 358
f 358 898 90
f 116 170 899
f 226 278 116
f 116 278 170
f 900 278 226
f 91 845 901
f 901 845 843
f 845 31 843
f 33 31 845
f 33 139 31
f 141 139 33
f 141 92 139
f 139 92 902
f 93 741 903
f 903 741 739
f 901 739 741
f 901 741 91
f 247 902 92
f 247 92 249
f 249 94 247
f 247 94 904
f 95 629 905
f 905 629 627
f 903 627 629
f 903 629 93
f 375 904 94
f 375 94 377
f 377 96 375
f 375 96 906
f 526 501 907
f 905 501 526
f 97 905 526
f 95 905 97
f 503 906 96
f 503 96 505
f 505 98 503
f 503 98 908
f 398 371 909
f 371 398 907
f 398 526 907
f 398 528 526
f 97 526 528
f 97 528 99
f 908 100 910
f 98 100 908
f 266 241 911
f 241 266 909
f 266 398 909
f 266 400 398
f 530 398 400
f 528 398 530
f 99 528 530
f 99 530 101
f 506 102 912
f 506 912 504
f 504 910 506
f 506 910 100
f 913 268 911
f 911 268 266
f 402 266 268
f 400 266 402
f 532 400 402
f 530 400 532
f 656 630 101
f 530 656 101
f 532 656 530
f 103 630 656
f 376 419 914
f 376 912 419
f 912 104 419
f 912 102 104
f 242 268 913
f 372 402 242
f 242 402 268
f 502 532 372
f 372 532 402
f 628 656 502
f 502 656 532
f 742 103 776
f 776 103 915
f 103 656 915
f 656 628 915
f 742 776 882
f 742 882 846
f 105 846 882
f 248 291 916
f 419 378 914
f 914 378 248
f 378 106 248
f 106 291 248
f 419 104 378
f 740 776 915
f 844 882 740
f 740 882 776
f 882 844 105
f 844 34 105
f 844 32 34
f 140 34 32
f 140 142 34
f 291 250 916
f 250 140 916
f 250 142 140
f 291 106 250
