# Converted from NanoShaper .vert/.face
v 10.696000 8.050000 -17.362000
v 12.183000 8.050000 -17.362000
v 10.431000 8.050000 -16.862000
v 12.458000 8.050000 -16.862000
v 10.169000 8.050000 -16.362000
v 12.478000 8.050000 -16.362000
v 9.702000 8.050000 -15.862000
v 12.443000 8.050000 -15.862000
v 9.412000 8.050000 -15.362000
v 12.419000 8.050000 -15.362000
v 9.387000 8.050000 -14.862000
v 12.396000 8.050000 -14.862000
v 9.390000 8.050000 -14.362000
v 12.337000 8.050000 -14.362000
v 9.593000 8.050000 -13.862000
v 12.311000 8.050000 -13.862000
v 9.818000 8.050000 -13.362000
v 12.369000 8.050000 -13.362000
v 10.214000 8.050000 -12.862000
v 12.384000 8.050000 -12.862000
v 10.777000 8.050000 -12.362000
v 12.091000 8.050000 -12.362000
v 9.636000 8.050000 -15.796000
v 9.636000 8.050000 -13.755000
v 10.136000 8.050000 -16.326000
v 10.136000 8.050000 -12.944000
v 10.636000 8.050000 -17.294000
v 10.636000 8.050000 -12.516000
v 11.136000 8.050000 -17.628000
v 11.136000 8.050000 -12.155000
v 11.636000 8.050000 -17.646000
v 11.636000 8.050000 -12.129000
v 12.136000 8.050000 -17.400000
v 12.136000 8.050000 -12.407000
v 11.136000 5.619000 -17.862000
v 11.136000 7.735000 -17.862000
v 11.636000 5.360000 -17.862000
v 11.636000 7.788000 -17.862000
v 12.136000 5.343000 -17.862000
v 12.136000 7.716000 -17.862000
v 12.636000 5.398000 -17.862000
v 12.636000 7.688000 -17.862000
v 13.136000 5.618000 -17.862000
v 13.136000 7.468000 -17.862000
v 9.636000 5.959000 -13.862000
v 9.636000 8.115000 -13.862000
v 10.136000 5.403000 -13.862000
v 10.136000 8.680000 -13.862000
v 10.636000 5.200000 -13.862000
v 10.636000 8.887000 -13.862000
v 11.136000 5.133000 -13.862000
v 11.136000 8.894000 -13.862000
v 11.636000 5.133000 -13.862000
v 11.636000 8.705000 -13.862000
v 12.136000 5.107000 -13.862000
v 12.136000 8.225000 -13.862000
v 12.636000 5.223000 -13.862000
v 12.636000 7.715000 -13.862000
v 13.136000 5.641000 -13.862000
v 13.136000 7.120000 -13.862000
v 10.373000 8.550000 -15.862000
v 11.500000 8.550000 -15.862000
v 9.977000 8.550000 -15.362000
v 11.741000 8.550000 -15.362000
v 9.945000 8.550000 -14.862000
v 11.785000 8.550000 -14.862000
v 9.959000 8.550000 -14.362000
v 11.824000 8.550000 -14.362000
v 9.970000 8.550000 -13.862000
v 11.841000 8.550000 -13.862000
v 10.263000 8.550000 -13.362000
v 11.602000 8.550000 -13.362000
v 10.136000 8.550000 -15.654000
v 10.136000 8.550000 -13.502000
v 10.636000 8.550000 -15.987000
v 10.636000 8.550000 -13.154000
v 11.136000 8.550000 -16.098000
v 11.136000 8.550000 -13.102000
v 11.636000 8.550000 -15.635000
v 11.636000 8.550000 -13.409000
v 10.636000 6.012000 -17.362000
v 10.636000 8.001000 -17.362000
v 11.136000 5.392000 -17.362000
v 11.136000 8.257000 -17.362000
v 11.636000 5.175000 -17.362000
v 11.636000 8.272000 -17.362000
v 12.136000 5.160000 -17.362000
v 12.136000 8.072000 -17.362000
v 12.636000 5.186000 -17.362000
v 12.636000 7.902000 -17.362000
v 13.136000 5.366000 -17.362000
v 13.136000 7.720000 -17.362000
v 13.636000 5.887000 -17.362000
v 13.636000 7.199000 -17.362000
v 9.636000 6.003000 -13.362000
v 9.636000 7.634000 -13.362000
v 10.136000 5.411000 -13.362000
v 10.136000 8.458000 -13.362000
v 10.636000 5.206000 -13.362000
v 10.636000 8.705000 -13.362000
v 11.136000 5.164000 -13.362000
v 11.136000 8.713000 -13.362000
v 11.636000 5.154000 -13.362000
v 11.636000 8.533000 -13.362000
v 12.136000 5.178000 -13.362000
v 12.136000 8.235000 -13.362000
v 12.636000 5.385000 -13.362000
v 12.636000 7.747000 -13.362000
v 13.136000 5.984000 -13.362000
v 13.136000 7.086000 -13.362000
v 11.725000 5.050000 -16.362000
v 13.050000 5.050000 -16.362000
v 11.461000 5.050000 -15.862000
v 13.384000 5.050000 -15.862000
v 11.343000 5.050000 -15.362000
v 13.403000 5.050000 -15.362000
v 11.340000 5.050000 -14.862000
v 13.306000 5.050000 -14.862000
v 11.553000 5.050000 -14.362000
v 13.005000 5.050000 -14.362000
v 11.636000 5.050000 -16.215000
v 11.636000 5.050000 -14.274000
v 12.136000 5.050000 -16.699000
v 12.136000 5.050000 -14.058000
v 12.636000 5.050000 -16.665000
v 12.636000 5.050000 -14.159000
v 13.136000 5.050000 -16.279000
v 13.136000 5.050000 -14.500000
v 10.136000 6.522000 -16.862000
v 10.136000 7.639000 -16.862000
v 10.636000 5.898000 -16.862000
v 10.636000 8.222000 -16.862000
v 11.136000 5.400000 -16.862000
v 11.136000 8.436000 -16.862000
v 11.636000 5.166000 -16.862000
v 11.636000 8.449000 -16.862000
v 12.136000 5.095000 -16.862000
v 12.136000 8.267000 -16.862000
v 12.636000 5.113000 -16.862000
v 12.636000 7.952000 -16.862000
v 13.136000 5.308000 -16.862000
v 13.136000 7.734000 -16.862000
v 13.636000 5.858000 -16.862000
v 13.636000 7.221000 -16.862000
v 10.136000 5.635000 -12.862000
v 10.136000 7.988000 -12.862000
v 10.636000 5.339000 -12.862000
v 10.636000 8.286000 -12.862000
v 11.136000 5.167000 -12.862000
v 11.136000 8.428000 -12.862000
v 11.636000 5.182000 -12.862000
v 11.636000 8.413000 -12.862000
v 12.136000 5.348000 -12.862000
v 12.136000 8.236000 -12.862000
v 12.636000 5.609000 -12.862000
v 12.636000 7.728000 -12.862000
v 11.224000 5.550000 -17.862000
v 13.036000 5.550000 -17.862000
v 10.947000 5.550000 -17.362000
v 13.377000 5.550000 -17.362000
v 10.942000 5.550000 -16.862000
v 13.419000 5.550000 -16.862000
v 10.854000 5.550000 -16.362000
v 13.527000 5.550000 -16.362000
v 10.346000 5.550000 -15.862000
v 13.710000 5.550000 -15.862000
v 9.995000 5.550000 -15.362000
v 13.725000 5.550000 -15.362000
v 9.880000 5.550000 -14.862000
v 13.673000 5.550000 -14.862000
v 9.899000 5.550000 -14.362000
v 13.480000 5.550000 -14.362000
v 9.951000 5.550000 -13.862000
v 13.068000 5.550000 -13.862000
v 9.959000 5.550000 -13.362000
v 12.838000 5.550000 -13.362000
v 10.254000 5.550000 -12.862000
v 12.559000 5.550000 -12.862000
v 10.663000 5.550000 -12.362000
v 12.027000 5.550000 -12.362000
v 10.136000 5.550000 -15.649000
v 10.136000 5.550000 -12.990000
v 10.636000 5.550000 -16.076000
v 10.636000 5.550000 -12.389000
v 11.136000 5.550000 -17.764000
v 11.136000 5.550000 -12.115000
v 11.636000 5.550000 -18.106000
v 11.636000 5.550000 -12.136000
v 12.136000 5.550000 -18.126000
v 12.136000 5.550000 -12.483000
v 12.636000 5.550000 -18.048000
v 12.636000 5.550000 -12.946000
v 13.136000 5.550000 -17.773000
v 13.136000 5.550000 -13.954000
v 13.636000 5.550000 -16.093000
v 13.636000 5.550000 -14.700000
v 10.136000 6.163000 -16.362000
v 10.136000 8.023000 -16.362000
v 10.636000 5.702000 -16.362000
v 10.636000 8.350000 -16.362000
v 11.136000 5.391000 -16.362000
v 11.136000 8.484000 -16.362000
v 11.636000 5.098000 -16.362000
v 11.636000 8.452000 -16.362000
v 12.136000 4.903000 -16.362000
v 12.136000 8.263000 -16.362000
v 12.636000 4.891000 -16.362000
v 12.636000 7.977000 -16.362000
v 13.136000 5.106000 -16.362000
v 13.136000 7.756000 -16.362000
v 13.636000 5.790000 -16.362000
v 13.636000 7.195000 -16.362000
v 10.636000 5.569000 -12.362000
v 10.636000 7.942000 -12.362000
v 11.136000 5.355000 -12.362000
v 11.136000 8.208000 -12.362000
v 11.636000 5.372000 -12.362000
v 11.636000 8.228000 -12.362000
v 12.136000 5.635000 -12.362000
v 12.136000 8.018000 -12.362000
v 11.420000 6.050000 -18.362000
v 12.713000 6.050000 -18.362000
v 10.821000 6.050000 -17.862000
v 13.484000 6.050000 -17.862000
v 10.617000 6.050000 -17.362000
v 13.711000 6.050000 -17.362000
v 10.496000 6.050000 -16.862000
v 13.723000 6.050000 -16.862000
v 10.273000 6.050000 -16.362000
v 13.716000 6.050000 -16.362000
v 9.700000 6.050000 -15.862000
v 13.797000 6.050000 -15.862000
v 9.411000 6.050000 -15.362000
v 13.811000 6.050000 -15.362000
v 9.423000 6.050000 -14.862000
v 13.785000 6.050000 -14.862000
v 9.473000 6.050000 -14.362000
v 13.610000 6.050000 -14.362000
v 9.575000 6.050000 -13.862000
v 13.308000 6.050000 -13.862000
v 9.616000 6.050000 -13.362000
v 13.163000 6.050000 -13.362000
v 9.813000 6.050000 -12.862000
v 12.969000 6.050000 -12.862000
v 10.250000 6.050000 -12.362000
v 12.460000 6.050000 -12.362000
v 10.875000 6.050000 -11.862000
v 11.815000 6.050000 -11.862000
v 9.636000 6.050000 -15.798000
v 9.636000 6.050000 -13.267000
v 10.136000 6.050000 -16.205000
v 10.136000 6.050000 -12.504000
v 10.636000 6.050000 -17.429000
v 10.636000 6.050000 -11.983000
v 11.136000 6.050000 -18.200000
v 11.136000 6.050000 -11.792000
v 11.636000 6.050000 -18.431000
v 11.636000 6.050000 -11.808000
v 12.136000 6.050000 -18.446000
v 12.136000 6.050000 -12.040000
v 12.636000 6.050000 -18.377000
v 12.636000 6.050000 -12.512000
v 13.136000 6.050000 -18.187000
v 13.136000 6.050000 -13.239000
v 13.636000 6.050000 -17.598000
v 13.636000 6.050000 -14.409000
v 9.636000 6.095000 -15.862000
v 9.636000 8.003000 -15.862000
v 10.136000 5.701000 -15.862000
v 10.136000 8.402000 -15.862000
v 10.636000 5.428000 -15.862000
v 10.636000 8.635000 -15.862000
v 11.136000 5.260000 -15.862000
v 11.136000 8.641000 -15.862000
v 11.636000 4.912000 -15.862000
v 11.636000 8.502000 -15.862000
v 12.136000 4.691000 -15.862000
v 12.136000 8.253000 -15.862000
v 12.636000 4.676000 -15.862000
v 12.636000 7.961000 -15.862000
v 13.136000 4.858000 -15.862000
v 13.136000 7.750000 -15.862000
v 13.636000 5.385000 -15.862000
v 13.636000 7.180000 -15.862000
v 11.136000 5.892000 -11.862000
v 11.136000 7.662000 -11.862000
v 11.636000 5.925000 -11.862000
v 11.636000 7.699000 -11.862000
v 11.230000 6.550000 -18.362000
v 12.999000 6.550000 -18.362000
v 10.714000 6.550000 -17.862000
v 13.594000 6.550000 -17.862000
v 10.335000 6.550000 -17.362000
v 13.803000 6.550000 -17.362000
v 10.123000 6.550000 -16.862000
v 13.814000 6.550000 -16.862000
v 9.788000 6.550000 -16.362000
v 13.782000 6.550000 -16.362000
v 9.274000 6.550000 -15.862000
v 13.773000 6.550000 -15.862000
v 9.077000 6.550000 -15.362000
v 13.719000 6.550000 -15.362000
v 9.083000 6.550000 -14.862000
v 13.711000 6.550000 -14.862000
v 9.110000 6.550000 -14.362000
v 13.524000 6.550000 -14.362000
v 9.313000 6.550000 -13.862000
v 13.320000 6.550000 -13.862000
v 9.510000 6.550000 -13.362000
v 13.250000 6.550000 -13.362000
v 9.698000 6.550000 -12.862000
v 13.071000 6.550000 -12.862000
v 10.137000 6.550000 -12.362000
v 12.597000 6.550000 -12.362000
v 10.671000 6.550000 -11.862000
v 12.020000 6.550000 -11.862000
v 9.136000 6.550000 -15.587000
v 9.136000 6.550000 -14.254000
v 9.636000 6.550000 -16.231000
v 9.636000 6.550000 -12.978000
v 10.136000 6.550000 -16.897000
v 10.136000 6.550000 -12.364000
v 10.636000 6.550000 -17.758000
v 10.636000 6.550000 -11.882000
v 11.136000 6.550000 -18.304000
v 11.136000 6.550000 -11.705000
v 11.636000 6.550000 -18.517000
v 11.636000 6.550000 -11.720000
v 12.136000 6.550000 -18.531000
v 12.136000 6.550000 -11.933000
v 12.636000 6.550000 -18.468000
v 12.636000 6.550000 -12.396000
v 13.136000 6.550000 -18.293000
v 13.136000 6.550000 -12.986000
v 13.636000 6.550000 -17.796000
v 13.636000 6.550000 -14.586000
v 9.136000 6.418000 -15.362000
v 9.136000 7.680000 -15.362000
v 9.636000 5.873000 -15.362000
v 9.636000 8.228000 -15.362000
v 10.136000 5.437000 -15.362000
v 10.136000 8.665000 -15.362000
v 10.636000 5.221000 -15.362000
v 10.636000 8.853000 -15.362000
v 11.136000 5.125000 -15.362000
v 11.136000 8.843000 -15.362000
v 11.636000 4.893000 -15.362000
v 11.636000 8.630000 -15.362000
v 12.136000 4.678000 -15.362000
v 12.136000 8.252000 -15.362000
v 12.636000 4.663000 -15.362000
v 12.636000 7.889000 -15.362000
v 13.136000 4.842000 -15.362000
v 13.136000 7.519000 -15.362000
v 13.636000 5.357000 -15.362000
v 13.636000 6.811000 -15.362000
v 11.465000 7.050000 -18.362000
v 12.688000 7.050000 -18.362000
v 10.702000 7.050000 -17.862000
v 13.478000 7.050000 -17.862000
v 10.212000 7.050000 -17.362000
v 13.706000 7.050000 -17.362000
v 10.003000 7.050000 -16.862000
v 13.718000 7.050000 -16.862000
v 9.641000 7.050000 -16.362000
v 13.698000 7.050000 -16.362000
v 9.165000 7.050000 -15.862000
v 13.689000 7.050000 -15.862000
v 8.984000 7.050000 -15.362000
v 13.522000 7.050000 -15.362000
v 8.984000 7.050000 -14.862000
v 13.408000 7.050000 -14.862000
v 9.001000 7.050000 -14.362000
v 13.247000 7.050000 -14.362000
v 9.193000 7.050000 -13.862000
v 13.166000 7.050000 -13.862000
v 9.507000 7.050000 -13.362000
v 13.151000 7.050000 -13.362000
v 9.714000 7.050000 -12.862000
v 12.956000 7.050000 -12.862000
v 10.189000 7.050000 -12.362000
v 12.634000 7.050000 -12.362000
v 10.749000 7.050000 -11.862000
v 12.118000 7.050000 -11.862000
v 9.136000 7.050000 -15.811000
v 9.136000 7.050000 -13.963000
v 9.636000 7.050000 -16.358000
v 9.636000 7.050000 -13.013000
v 10.136000 7.050000 -17.211000
v 10.136000 7.050000 -12.408000
v 10.636000 7.050000 -17.816000
v 10.636000 7.050000 -11.933000
v 11.136000 7.050000 -18.180000
v 11.136000 7.050000 -11.716000
v 11.636000 7.050000 -18.414000
v 11.636000 7.050000 -11.698000
v 12.136000 7.050000 -18.429000
v 12.136000 7.050000 -11.873000
v 12.636000 7.050000 -18.372000
v 12.636000 7.050000 -12.366000
v 13.136000 7.050000 -18.181000
v 13.136000 7.050000 -13.285000
v 13.636000 7.050000 -17.585000
v 13.636000 7.050000 -15.673000
v 9.136000 6.433000 -14.862000
v 9.136000 7.701000 -14.862000
v 9.636000 5.831000 -14.862000
v 9.636000 8.262000 -14.862000
v 10.136000 5.341000 -14.862000
v 10.136000 8.690000 -14.862000
v 10.636000 5.147000 -14.862000
v 10.636000 8.877000 -14.862000
v 11.136000 5.097000 -14.862000
v 11.136000 8.870000 -14.862000
v 11.636000 4.935000 -14.862000
v 11.636000 8.664000 -14.862000
v 12.136000 4.738000 -14.862000
v 12.136000 8.264000 -14.862000
v 12.636000 4.733000 -14.862000
v 12.636000 7.794000 -14.862000
v 13.136000 4.924000 -14.862000
v 13.136000 7.307000 -14.862000
v 13.636000 5.470000 -14.862000
v 13.636000 6.725000 -14.862000
v 10.884000 7.550000 -17.862000
v 13.014000 7.550000 -17.862000
v 10.306000 7.550000 -17.362000
v 13.363000 7.550000 -17.362000
v 10.097000 7.550000 -16.862000
v 13.379000 7.550000 -16.862000
v 9.770000 7.550000 -16.362000
v 13.388000 7.550000 -16.362000
v 9.274000 7.550000 -15.862000
v 13.381000 7.550000 -15.862000
v 9.078000 7.550000 -15.362000
v 13.100000 7.550000 -15.362000
v 9.070000 7.550000 -14.862000
v 12.921000 7.550000 -14.862000
v 9.080000 7.550000 -14.362000
v 12.884000 7.550000 -14.362000
v 9.286000 7.550000 -13.862000
v 12.827000 7.550000 -13.862000
v 9.599000 7.550000 -13.362000
v 12.812000 7.550000 -13.362000
v 9.812000 7.550000 -12.862000
v 12.722000 7.550000 -12.862000
v 10.323000 7.550000 -12.362000
v 12.523000 7.550000 -12.362000
v 10.971000 7.550000 -11.862000
v 11.897000 7.550000 -11.862000
v 9.136000 7.550000 -15.585000
v 9.136000 7.550000 -14.156000
v 9.636000 7.550000 -16.234000
v 9.636000 7.550000 -13.262000
v 10.136000 7.550000 -16.967000
v 10.136000 7.550000 -12.519000
v 10.636000 7.550000 -17.718000
v 10.636000 7.550000 -12.049000
v 11.136000 7.550000 -17.948000
v 11.136000 7.550000 -11.812000
v 11.636000 7.550000 -18.068000
v 11.636000 7.550000 -11.793000
v 12.136000 7.550000 -18.081000
v 12.136000 7.550000 -11.982000
v 12.636000 7.550000 -18.034000
v 12.636000 7.550000 -12.573000
v 13.136000 7.550000 -17.754000
v 13.136000 7.550000 -15.415000
v 11.636000 5.895000 -18.362000
v 11.636000 7.161000 -18.362000
v 12.136000 5.865000 -18.362000
v 12.136000 7.191000 -18.362000
v 12.636000 6.013000 -18.362000
v 12.636000 7.073000 -18.362000
v 9.136000 6.492000 -14.362000
v 9.136000 7.685000 -14.362000
v 9.636000 5.880000 -14.362000
v 9.636000 8.257000 -14.362000
v 10.136000 5.357000 -14.362000
v 10.136000 8.684000 -14.362000
v 10.636000 5.161000 -14.362000
v 10.636000 8.883000 -14.362000
v 11.136000 5.124000 -14.362000
v 11.136000 8.886000 -14.362000
v 11.636000 5.031000 -14.362000
v 11.636000 8.692000 -14.362000
v 12.136000 4.916000 -14.362000
v 12.136000 8.236000 -14.362000
v 12.636000 4.911000 -14.362000
v 12.636000 7.760000 -14.362000
v 13.136000 5.137000 -14.362000
v 13.136000 7.205000 -14.362000
f 81 225 253
f 253 225 323
f 323 225 293
f 323 293 391
f 391 293 361
f 391 361 457
f 457 361 427
f 427 82 457
f 83 159 185
f 81 253 159
f 159 253 185
f 253 223 185
f 223 35 185
f 323 291 223
f 323 223 253
f 391 359 291
f 391 291 323
f 457 425 359
f 457 359 391
f 82 1 29
f 82 29 36
f 457 82 36
f 425 457 36
f 1 84 29
f 157 37 185
f 37 83 185
f 37 85 83
f 185 35 157
f 31 38 36
f 31 36 29
f 29 84 31
f 31 84 86
f 87 37 39
f 87 85 37
f 33 40 38
f 33 38 31
f 31 86 33
f 33 86 88
f 89 39 41
f 89 87 39
f 40 33 2
f 90 40 2
f 42 40 90
f 33 88 2
f 193 91 158
f 91 41 158
f 91 89 41
f 43 193 158
f 426 467 44
f 426 42 467
f 42 92 467
f 42 90 92
f 193 160 91
f 265 93 224
f 224 93 43
f 93 160 43
f 160 193 43
f 292 335 265
f 292 265 224
f 360 403 335
f 360 335 292
f 467 428 44
f 44 428 360
f 428 94 360
f 94 403 360
f 467 92 428
f 265 226 93
f 226 265 294
f 294 265 335
f 294 335 362
f 362 335 403
f 403 94 362
f 95 241 45
f 45 241 239
f 241 307 239
f 309 307 241
f 309 375 307
f 377 375 309
f 377 441 375
f 443 441 377
f 24 15 96
f 15 443 96
f 15 441 443
f 24 46 15
f 97 175 47
f 47 175 173
f 45 173 175
f 45 175 95
f 17 24 96
f 98 74 69
f 98 69 46
f 17 98 46
f 24 17 46
f 74 48 69
f 99 47 49
f 99 97 47
f 71 74 98
f 71 100 74
f 100 48 74
f 100 50 48
f 101 49 51
f 101 99 49
f 50 102 52
f 100 102 50
f 103 51 53
f 103 101 51
f 72 104 80
f 80 54 72
f 54 102 72
f 54 52 102
f 105 53 55
f 105 103 53
f 56 70 80
f 104 56 80
f 106 56 104
f 54 80 70
f 107 55 57
f 107 105 55
f 18 108 58
f 18 58 16
f 16 56 18
f 18 56 106
f 57 174 107
f 107 174 176
f 109 176 174
f 109 174 59
f 444 110 60
f 444 60 442
f 442 58 444
f 444 58 108
f 59 240 109
f 109 240 242
f 308 242 240
f 308 310 242
f 376 310 308
f 376 378 310
f 376 60 378
f 378 60 110
f 129 295 321
f 321 295 389
f 389 295 363
f 389 363 455
f 455 363 429
f 429 130 455
f 131 227 81
f 81 227 225
f 227 129 321
f 293 227 321
f 225 227 293
f 389 361 293
f 389 293 321
f 455 427 361
f 455 361 389
f 130 3 27
f 130 27 82
f 455 130 82
f 427 455 82
f 3 132 27
f 133 161 83
f 83 161 159
f 81 159 161
f 81 161 131
f 27 1 82
f 27 132 1
f 132 84 1
f 132 134 84
f 135 83 85
f 135 133 83
f 84 136 86
f 134 136 84
f 137 85 87
f 137 135 85
f 86 138 88
f 136 138 86
f 139 87 89
f 139 137 87
f 4 140 90
f 4 90 2
f 2 88 4
f 4 88 138
f 141 89 91
f 141 139 89
f 90 142 92
f 140 142 90
f 91 160 141
f 141 160 162
f 143 162 160
f 143 160 93
f 430 144 94
f 430 94 428
f 428 92 430
f 430 92 142
f 93 226 143
f 143 226 228
f 294 228 226
f 294 296 228
f 362 296 294
f 362 364 296
f 362 94 364
f 364 94 144
f 250 241 95
f 320 309 250
f 250 309 241
f 388 377 320
f 320 377 309
f 454 443 388
f 388 443 377
f 454 96 443
f 182 175 97
f 243 250 95
f 243 95 175
f 145 243 175
f 182 145 175
f 250 243 311
f 250 311 320
f 320 311 379
f 320 379 388
f 388 379 445
f 388 445 454
f 146 26 17
f 146 17 96
f 445 146 96
f 454 445 96
f 26 98 17
f 182 97 177
f 97 147 177
f 97 99 147
f 145 182 177
f 19 26 146
f 148 76 71
f 148 71 98
f 19 148 98
f 26 19 98
f 76 100 71
f 149 99 101
f 149 147 99
f 150 78 76
f 150 76 148
f 100 76 102
f 102 76 78
f 151 101 103
f 151 149 101
f 104 72 78
f 150 104 78
f 152 104 150
f 102 78 72
f 153 103 105
f 153 151 103
f 104 154 106
f 152 154 104
f 178 153 192
f 153 107 192
f 153 105 107
f 155 178 192
f 20 156 108
f 20 108 18
f 18 106 20
f 20 106 154
f 176 192 107
f 244 155 264
f 264 155 109
f 155 192 109
f 192 176 109
f 244 264 334
f 244 334 312
f 312 334 402
f 312 402 380
f 380 402 110
f 444 380 110
f 446 380 444
f 444 108 446
f 446 108 156
f 242 264 109
f 310 334 242
f 242 334 264
f 378 402 310
f 310 402 334
f 110 402 378
f 197 297 129
f 129 297 295
f 297 363 295
f 365 363 297
f 365 429 363
f 431 429 365
f 431 198 429
f 429 198 130
f 199 229 131
f 131 229 227
f 129 227 229
f 129 229 197
f 3 130 198
f 3 198 5
f 5 200 3
f 3 200 132
f 201 163 133
f 133 163 161
f 131 161 163
f 131 163 199
f 132 202 134
f 200 202 132
f 203 133 135
f 203 201 133
f 134 204 136
f 202 204 134
f 205 111 123
f 137 123 111
f 203 137 111
f 135 137 203
f 136 206 138
f 204 206 136
f 125 207 123
f 123 207 205
f 123 137 139
f 123 139 125
f 6 208 140
f 6 140 4
f 4 138 6
f 6 138 206
f 125 112 207
f 209 112 125
f 139 209 125
f 141 209 139
f 140 210 142
f 208 210 140
f 141 162 209
f 209 162 164
f 211 164 162
f 211 162 143
f 432 212 144
f 432 144 430
f 430 142 432
f 432 142 210
f 143 228 211
f 211 228 230
f 296 230 228
f 296 298 230
f 364 298 296
f 364 366 298
f 364 144 366
f 366 144 212
f 252 243 145
f 322 311 252
f 252 311 243
f 390 379 322
f 322 379 311
f 456 445 390
f 390 445 379
f 456 146 445
f 184 177 147
f 245 252 145
f 245 145 177
f 213 245 177
f 184 213 177
f 252 245 313
f 252 313 322
f 322 313 381
f 322 381 390
f 390 381 447
f 390 447 456
f 214 28 19
f 214 19 146
f 447 214 146
f 456 447 146
f 28 148 19
f 184 147 179
f 147 215 179
f 147 149 215
f 213 184 179
f 21 28 214
f 21 216 28
f 216 148 28
f 216 150 148
f 217 149 151
f 217 215 149
f 150 218 152
f 216 218 150
f 180 217 190
f 217 153 190
f 217 151 153
f 219 180 190
f 22 220 34
f 34 154 22
f 154 218 22
f 154 152 218
f 178 190 153
f 246 219 262
f 262 219 155
f 219 190 155
f 190 178 155
f 246 262 332
f 246 332 314
f 314 332 400
f 314 400 382
f 382 400 466
f 382 466 448
f 34 220 448
f 34 448 466
f 20 34 466
f 156 20 466
f 154 34 20
f 244 262 155
f 312 332 244
f 244 332 262
f 380 400 312
f 312 400 332
f 446 466 380
f 380 466 400
f 156 466 446
f 267 299 319
f 319 299 387
f 387 299 367
f 387 367 453
f 453 367 433
f 433 268 453
f 269 231 251
f 267 319 231
f 231 319 251
f 319 297 251
f 297 197 251
f 387 365 297
f 387 297 319
f 453 431 365
f 453 365 387
f 268 7 25
f 268 25 198
f 453 268 198
f 431 453 198
f 7 270 25
f 271 165 183
f 269 251 165
f 165 251 183
f 251 229 183
f 229 199 183
f 251 197 229
f 25 5 198
f 270 61 75
f 270 75 200
f 25 270 200
f 5 25 200
f 61 272 75
f 163 201 183
f 201 271 183
f 201 273 271
f 183 199 163
f 77 202 200
f 77 200 75
f 75 272 77
f 77 272 274
f 275 113 121
f 203 121 113
f 273 203 113
f 201 203 273
f 202 77 62
f 276 202 62
f 204 202 276
f 77 274 62
f 111 205 121
f 205 275 121
f 205 277 275
f 121 203 111
f 204 278 206
f 276 278 204
f 279 205 207
f 279 277 205
f 8 280 208
f 8 208 6
f 6 206 8
f 8 206 278
f 127 281 112
f 281 207 112
f 281 279 207
f 209 127 112
f 208 282 210
f 280 282 208
f 127 114 281
f 195 283 164
f 164 283 209
f 283 114 209
f 114 127 209
f 211 195 164
f 434 284 212
f 434 212 432
f 432 210 434
f 434 210 282
f 195 166 283
f 211 230 195
f 230 166 195
f 230 232 166
f 298 232 230
f 298 300 232
f 366 300 298
f 366 368 300
f 366 212 368
f 368 212 284
f 254 245 213
f 324 313 254
f 254 313 245
f 392 381 324
f 324 381 313
f 458 447 392
f 392 447 381
f 458 214 447
f 186 179 215
f 247 254 213
f 247 213 179
f 285 247 179
f 186 285 179
f 254 247 315
f 254 315 324
f 324 315 383
f 324 383 392
f 392 383 449
f 392 449 458
f 286 30 21
f 286 21 214
f 449 286 214
f 458 449 214
f 30 216 21
f 217 188 215
f 215 188 186
f 285 186 188
f 285 188 287
f 288 32 30
f 288 30 286
f 216 30 218
f 218 30 32
f 180 188 217
f 248 287 260
f 260 287 219
f 287 188 219
f 188 180 219
f 248 260 330
f 248 330 316
f 316 330 398
f 316 398 384
f 384 398 464
f 384 464 450
f 32 288 450
f 32 450 464
f 22 32 464
f 220 22 464
f 218 32 22
f 246 260 219
f 314 330 246
f 246 330 260
f 382 398 314
f 314 398 330
f 448 464 382
f 382 464 398
f 220 464 448
f 337 301 317
f 317 301 385
f 385 301 369
f 385 369 451
f 451 369 435
f 435 338 451
f 339 233 249
f 337 317 233
f 233 317 249
f 317 299 249
f 299 267 249
f 385 367 299
f 385 299 317
f 451 433 367
f 451 367 385
f 338 9 23
f 338 23 268
f 451 338 268
f 433 451 268
f 9 340 23
f 341 167 181
f 339 249 167
f 167 249 181
f 249 231 181
f 231 269 181
f 249 267 231
f 23 7 268
f 340 63 73
f 340 73 270
f 23 340 270
f 7 23 270
f 63 342 73
f 165 271 181
f 271 341 181
f 271 343 341
f 181 269 165
f 73 61 270
f 73 342 61
f 342 272 61
f 342 344 272
f 345 271 273
f 345 343 271
f 272 346 274
f 344 346 272
f 347 115 275
f 275 115 113
f 273 113 115
f 273 115 345
f 62 79 276
f 62 274 79
f 274 348 79
f 274 346 348
f 349 275 277
f 349 347 275
f 276 79 64
f 350 276 64
f 278 276 350
f 79 348 64
f 351 277 279
f 351 349 277
f 10 352 280
f 10 280 8
f 8 278 10
f 10 278 350
f 353 279 281
f 353 351 279
f 436 354 468
f 468 282 436
f 282 352 436
f 282 280 352
f 281 114 353
f 353 114 116
f 355 116 114
f 355 114 283
f 370 356 404
f 468 354 370
f 468 370 404
f 434 468 404
f 284 434 404
f 282 468 434
f 283 166 355
f 355 166 168
f 232 168 166
f 232 234 168
f 300 234 232
f 300 302 234
f 356 302 404
f 302 368 404
f 302 300 368
f 284 404 368
f 256 247 285
f 326 315 256
f 256 315 247
f 394 383 326
f 326 383 315
f 460 449 394
f 394 449 383
f 460 286 449
f 287 258 285
f 285 258 256
f 328 256 258
f 326 256 328
f 396 326 328
f 394 326 396
f 462 394 396
f 460 394 462
f 286 460 288
f 288 460 462
f 248 258 287
f 316 328 248
f 248 328 258
f 384 396 316
f 316 396 328
f 450 462 384
f 384 462 396
f 288 462 450
f 405 303 337
f 337 303 301
f 303 369 301
f 371 369 303
f 371 435 369
f 437 435 371
f 437 406 435
f 435 406 338
f 407 235 339
f 339 235 233
f 337 233 235
f 337 235 405
f 9 338 406
f 9 406 11
f 11 408 9
f 9 408 340
f 409 169 341
f 341 169 167
f 339 167 169
f 339 169 407
f 63 340 408
f 63 408 65
f 65 410 63
f 63 410 342
f 411 341 343
f 411 409 341
f 342 412 344
f 410 412 342
f 413 343 345
f 413 411 343
f 344 414 346
f 412 414 344
f 415 117 347
f 347 117 115
f 345 115 117
f 345 117 413
f 346 416 348
f 414 416 346
f 417 347 349
f 417 415 347
f 66 418 350
f 66 350 64
f 64 348 66
f 66 348 416
f 419 349 351
f 419 417 349
f 12 420 352
f 12 352 10
f 10 350 12
f 12 350 418
f 421 351 353
f 421 419 351
f 438 422 354
f 438 354 436
f 436 352 438
f 438 352 420
f 353 116 421
f 421 116 118
f 423 118 116
f 423 116 355
f 372 424 356
f 372 356 370
f 370 354 372
f 372 354 422
f 355 168 423
f 423 168 170
f 234 170 168
f 234 236 170
f 302 236 234
f 302 304 236
f 302 356 304
f 304 356 424
f 469 221 257
f 257 221 327
f 327 221 289
f 327 289 395
f 395 289 357
f 357 470 395
f 259 471 257
f 257 471 469
f 257 329 259
f 257 327 329
f 327 397 329
f 327 395 397
f 395 470 397
f 397 470 472
f 261 473 259
f 259 473 471
f 259 331 261
f 259 329 331
f 329 399 331
f 329 397 399
f 397 472 399
f 399 472 474
f 261 222 473
f 222 261 290
f 290 261 331
f 290 331 358
f 358 331 399
f 399 474 358
f 475 305 405
f 405 305 303
f 305 371 303
f 373 371 305
f 373 437 371
f 439 437 373
f 439 476 437
f 437 476 406
f 477 237 407
f 407 237 235
f 405 235 237
f 405 237 475
f 11 406 476
f 11 476 13
f 13 478 11
f 11 478 408
f 479 171 409
f 409 171 169
f 407 169 171
f 407 171 477
f 65 408 478
f 65 478 67
f 67 480 65
f 65 480 410
f 481 409 411
f 481 479 409
f 410 482 412
f 480 482 410
f 483 411 413
f 483 481 411
f 412 484 414
f 482 484 412
f 485 119 415
f 415 119 117
f 413 117 119
f 413 119 483
f 414 486 416
f 484 486 414
f 487 415 417
f 487 485 415
f 68 488 418
f 68 418 66
f 66 416 68
f 68 416 486
f 489 417 419
f 489 487 417
f 14 490 420
f 14 420 12
f 12 418 14
f 14 418 488
f 120 489 128
f 489 421 128
f 489 419 421
f 491 120 128
f 440 492 422
f 440 422 438
f 438 420 440
f 440 420 490
f 118 128 421
f 172 491 196
f 196 491 423
f 491 128 423
f 128 118 423
f 172 196 266
f 172 266 238
f 238 266 336
f 238 336 306
f 306 336 424
f 372 306 424
f 374 306 372
f 372 422 374
f 374 422 492
f 170 196 423
f 236 266 170
f 170 266 196
f 304 336 236
f 236 336 266
f 424 336 304
f 35 223 255
f 255 223 325
f 325 223 291
f 325 291 393
f 393 291 359
f 393 359 459
f 459 359 425
f 425 36 459
f 37 157 187
f 35 255 157
f 157 255 187
f 255 221 187
f 221 469 187
f 325 289 221
f 325 221 255
f 393 357 289
f 393 289 325
f 461 470 357
f 393 461 357
f 459 461 393
f 459 36 461
f 461 36 38
f 189 39 187
f 187 39 37
f 187 469 471
f 187 471 189
f 463 472 470
f 463 470 461
f 461 38 463
f 463 38 40
f 191 41 189
f 189 41 39
f 189 471 473
f 189 473 191
f 465 474 472
f 465 472 463
f 463 40 465
f 465 40 42
f 191 158 41
f 263 43 222
f 222 43 473
f 43 158 473
f 158 191 473
f 290 333 263
f 290 263 222
f 358 401 333
f 358 333 290
f 465 426 474
f 474 426 358
f 426 44 358
f 44 401 358
f 465 42 426
f 263 224 43
f 224 263 292
f 292 263 333
f 292 333 360
f 360 333 401
f 401 44 360
f 318 305 475
f 386 373 318
f 318 373 305
f 452 439 386
f 386 439 373
f 452 476 439
f 45 239 477
f 477 239 237
f 307 318 475
f 237 307 475
f 239 307 237
f 318 307 375
f 318 375 386
f 386 375 441
f 386 441 452
f 13 476 452
f 441 13 452
f 15 13 441
f 15 46 13
f 13 46 478
f 47 173 479
f 479 173 171
f 477 171 173
f 477 173 45
f 67 478 46
f 67 46 69
f 69 48 67
f 67 48 480
f 49 479 481
f 49 47 479
f 480 50 482
f 48 50 480
f 51 481 483
f 51 49 481
f 482 52 484
f 50 52 482
f 122 119 485
f 483 119 122
f 53 483 122
f 51 483 53
f 484 54 486
f 52 54 484
f 487 124 485
f 485 124 122
f 53 122 124
f 53 124 55
f 70 56 488
f 70 488 68
f 68 486 70
f 70 486 54
f 489 126 487
f 487 126 124
f 55 124 126
f 55 126 57
f 16 58 490
f 16 490 14
f 14 488 16
f 16 488 56
f 120 126 489
f 174 57 194
f 194 57 491
f 57 126 491
f 126 120 491
f 59 174 194
f 442 60 492
f 442 492 440
f 440 490 442
f 442 490 58
f 172 194 491
f 194 172 59
f 172 240 59
f 172 238 240
f 306 240 238
f 306 308 240
f 374 308 306
f 374 376 308
f 374 492 376
f 376 492 60
