# Converted from NanoShaper .vert/.face
v 0.000000 13.050000 9.388000
v 1.788000 13.050000 9.388000
v -0.410000 13.050000 9.888000
v 2.243000 13.050000 9.888000
v -0.567000 13.050000 10.388000
v 2.389000 13.050000 10.388000
v -0.641000 13.050000 10.888000
v 2.474000 13.050000 10.888000
v -0.492000 13.050000 11.388000
v 2.790000 13.050000 11.388000
v -0.160000 13.050000 11.888000
v 2.918000 13.050000 11.888000
v 0.011000 13.050000 12.388000
v 2.842000 13.050000 12.388000
v 0.475000 13.050000 12.888000
v 2.716000 13.050000 12.888000
v 1.090000 13.050000 13.388000
v 1.978000 13.050000 13.388000
v -0.614000 13.050000 10.637000
v -0.614000 13.050000 11.096000
v -0.114000 13.050000 9.531000
v -0.114000 13.050000 12.028000
v 0.386000 13.050000 9.033000
v 0.386000 13.050000 12.792000
v 0.886000 13.050000 8.903000
v 0.886000 13.050000 13.297000
v 1.386000 13.050000 9.045000
v 1.386000 13.050000 13.436000
v 1.886000 13.050000 9.484000
v 1.886000 13.050000 13.395000
v 2.386000 13.050000 10.336000
v 2.386000 13.050000 13.239000
v 2.886000 13.050000 11.624000
v 2.886000 13.050000 12.123000
v -0.614000 13.252000 9.888000
v -0.614000 15.263000 9.888000
v -0.114000 12.730000 9.888000
v -0.114000 15.677000 9.888000
v 0.386000 12.347000 9.888000
v 0.386000 15.878000 9.888000
v 0.886000 12.238000 9.888000
v 0.886000 15.985000 9.888000
v 1.386000 12.326000 9.888000
v 1.386000 15.932000 9.888000
v 1.886000 12.671000 9.888000
v 1.886000 15.812000 9.888000
v 2.386000 13.202000 9.888000
v 2.386000 15.550000 9.888000
v 0.031000 13.550000 8.888000
v 1.720000 13.550000 8.888000
v -0.409000 13.550000 9.388000
v 2.205000 13.550000 9.388000
v -0.795000 13.550000 9.888000
v 2.583000 13.550000 9.888000
v -0.907000 13.550000 10.388000
v 2.733000 13.550000 10.388000
v -0.966000 13.550000 10.888000
v 2.896000 13.550000 10.888000
v -0.858000 13.550000 11.388000
v 3.237000 13.550000 11.388000
v -0.538000 13.550000 11.888000
v 3.357000 13.550000 11.888000
v -0.336000 13.550000 12.388000
v 3.340000 13.550000 12.388000
v 0.019000 13.550000 12.888000
v 3.187000 13.550000 12.888000
v 0.508000 13.550000 13.388000
v 2.722000 13.550000 13.388000
v -0.614000 13.550000 9.594000
v -0.614000 13.550000 11.770000
v -0.114000 13.550000 9.031000
v -0.114000 13.550000 12.753000
v 0.386000 13.550000 8.674000
v 0.386000 13.550000 13.260000
v 0.886000 13.550000 8.580000
v 0.886000 13.550000 13.630000
v 1.386000 13.550000 8.683000
v 1.386000 13.550000 13.734000
v 1.886000 13.550000 9.056000
v 1.886000 13.550000 13.717000
v 2.386000 13.550000 9.567000
v 2.386000 13.550000 13.603000
v 2.886000 13.550000 10.867000
v 2.886000 13.550000 13.243000
v -0.614000 13.095000 10.388000
v -0.614000 15.430000 10.388000
v -0.114000 12.597000 10.388000
v -0.114000 15.792000 10.388000
v 0.386000 12.253000 10.388000
v 0.386000 15.903000 10.388000
v 0.886000 12.151000 10.388000
v 0.886000 15.955000 10.388000
v 1.386000 12.234000 10.388000
v 1.386000 15.999000 10.388000
v 1.886000 12.546000 10.388000
v 1.886000 16.048000 10.388000
v 2.386000 13.047000 10.388000
v 2.386000 16.065000 10.388000
v 2.886000 13.765000 10.388000
v 2.886000 15.924000 10.388000
v -0.102000 14.050000 8.888000
v 1.855000 14.050000 8.888000
v -0.556000 14.050000 9.388000
v 2.323000 14.050000 9.388000
v -0.902000 14.050000 9.888000
v 2.724000 14.050000 9.888000
v -1.006000 14.050000 10.388000
v 3.061000 14.050000 10.388000
v -1.056000 14.050000 10.888000
v 3.327000 14.050000 10.888000
v -0.956000 14.050000 11.388000
v 3.779000 14.050000 11.388000
v -0.645000 14.050000 11.888000
v 3.936000 14.050000 11.888000
v -0.426000 14.050000 12.388000
v 3.829000 14.050000 12.388000
v -0.103000 14.050000 12.888000
v 3.559000 14.050000 12.888000
v 0.402000 14.050000 13.388000
v 3.168000 14.050000 13.388000
v -0.614000 14.050000 9.444000
v -0.614000 14.050000 11.939000
v -0.114000 14.050000 8.899000
v -0.114000 14.050000 12.877000
v 0.386000 14.050000 8.578000
v 0.386000 14.050000 13.371000
v 0.886000 14.050000 8.490000
v 0.886000 14.050000 13.709000
v 1.386000 14.050000 8.586000
v 1.386000 14.050000 13.808000
v 1.886000 14.050000 8.919000
v 1.886000 14.050000 13.805000
v 2.386000 14.050000 9.450000
v 2.386000 14.050000 13.713000
v 2.886000 14.050000 10.097000
v 2.886000 14.050000 13.557000
v 3.386000 14.050000 10.962000
v 3.386000 14.050000 13.169000
v 3.886000 14.050000 11.613000
v 3.886000 14.050000 12.249000
v -0.614000 13.024000 10.888000
v -0.614000 15.304000 10.888000
v -0.114000 12.681000 10.888000
v -0.114000 15.704000 10.888000
v 0.386000 12.359000 10.888000
v 0.386000 15.870000 10.888000
v 0.886000 12.234000 10.888000
v 0.886000 15.961000 10.888000
v 1.386000 12.268000 10.888000
v 1.386000 16.057000 10.888000
v 1.886000 12.480000 10.888000
v 1.886000 16.282000 10.888000
v 2.386000 12.952000 10.888000
v 2.386000 16.375000 10.888000
v 2.886000 13.537000 10.888000
v 2.886000 16.271000 10.888000
v 3.386000 14.113000 10.888000
v 3.386000 15.920000 10.888000
v -0.073000 14.550000 8.888000
v 1.943000 14.550000 8.888000
v -0.509000 14.550000 9.388000
v 2.396000 14.550000 9.388000
v -0.858000 14.550000 9.888000
v 2.839000 14.550000 9.888000
v -0.963000 14.550000 10.388000
v 3.256000 14.550000 10.388000
v -0.962000 14.550000 10.888000
v 3.732000 14.550000 10.888000
v -0.854000 14.550000 11.388000
v 4.126000 14.550000 11.388000
v -0.527000 14.550000 11.888000
v 4.243000 14.550000 11.888000
v -0.317000 14.550000 12.388000
v 4.162000 14.550000 12.388000
v 0.046000 14.550000 12.888000
v 3.833000 14.550000 12.888000
v 0.565000 14.550000 13.388000
v 3.308000 14.550000 13.388000
v -0.614000 14.550000 9.494000
v -0.614000 14.550000 11.760000
v -0.114000 14.550000 8.932000
v -0.114000 14.550000 12.726000
v 0.386000 14.550000 8.571000
v 0.386000 14.550000 13.201000
v 0.886000 14.550000 8.460000
v 0.886000 14.550000 13.589000
v 1.386000 14.550000 8.534000
v 1.386000 14.550000 13.696000
v 1.886000 14.550000 8.832000
v 1.886000 14.550000 13.722000
v 2.386000 14.550000 9.378000
v 2.386000 14.550000 13.760000
v 2.886000 14.550000 9.935000
v 2.886000 14.550000 13.656000
v 3.386000 14.550000 10.537000
v 3.386000 14.550000 13.309000
v 3.886000 14.550000 11.028000
v 3.886000 14.550000 12.835000
v -0.614000 13.166000 11.388000
v -0.614000 14.923000 11.388000
v -0.114000 12.824000 11.388000
v -0.114000 15.423000 11.388000
v 0.386000 12.538000 11.388000
v 0.386000 15.780000 11.388000
v 0.886000 12.274000 11.388000
v 0.886000 15.902000 11.388000
v 1.386000 12.199000 11.388000
v 1.386000 16.091000 11.388000
v 1.886000 12.285000 11.388000
v 1.886000 16.369000 11.388000
v 2.386000 12.615000 11.388000
v 2.386000 16.457000 11.388000
v 2.886000 13.141000 11.388000
v 2.886000 16.370000 11.388000
v 3.386000 13.696000 11.388000
v 3.386000 16.219000 11.388000
v 3.886000 14.156000 11.388000
v 3.886000 15.873000 11.388000
v 0.039000 15.050000 8.888000
v 1.831000 15.050000 8.888000
v -0.358000 15.050000 9.388000
v 2.285000 15.050000 9.388000
v -0.739000 15.050000 9.888000
v 2.730000 15.050000 9.888000
v -0.853000 15.050000 10.388000
v 3.381000 15.050000 10.388000
v -0.766000 15.050000 10.888000
v 3.856000 15.050000 10.888000
v -0.489000 15.050000 11.388000
v 4.213000 15.050000 11.388000
v -0.129000 15.050000 11.888000
v 4.322000 15.050000 11.888000
v 0.065000 15.050000 12.388000
v 4.246000 15.050000 12.388000
v 0.594000 15.050000 12.888000
v 3.945000 15.050000 12.888000
v 1.407000 15.050000 13.388000
v 3.178000 15.050000 13.388000
v -0.614000 15.050000 9.671000
v -0.614000 15.050000 11.196000
v -0.114000 15.050000 9.055000
v -0.114000 15.050000 11.922000
v 0.386000 15.050000 8.657000
v 0.386000 15.050000 12.712000
v 0.886000 15.050000 8.539000
v 0.886000 15.050000 13.179000
v 1.386000 15.050000 8.617000
v 1.386000 15.050000 13.380000
v 1.886000 15.050000 8.942000
v 1.886000 15.050000 13.578000
v 2.386000 15.050000 9.492000
v 2.386000 15.050000 13.666000
v 2.886000 15.050000 10.011000
v 2.886000 15.050000 13.554000
v 3.386000 15.050000 10.393000
v 3.386000 15.050000 13.268000
v 3.886000 15.050000 10.916000
v 3.886000 15.050000 12.947000
v -0.614000 13.773000 11.888000
v -0.614000 14.306000 11.888000
v -0.114000 13.011000 11.888000
v -0.114000 15.065000 11.888000
v 0.386000 12.581000 11.888000
v 0.386000 15.470000 11.888000
v 0.886000 12.223000 11.888000
v 0.886000 15.738000 11.888000
v 1.386000 12.112000 11.888000
v 1.386000 15.946000 11.888000
v 1.886000 12.186000 11.888000
v 1.886000 16.259000 11.888000
v 2.386000 12.484000 11.888000
v 2.386000 16.367000 11.888000
v 2.886000 13.019000 11.888000
v 2.886000 16.413000 11.888000
v 3.386000 13.578000 11.888000
v 3.386000 16.335000 11.888000
v 3.886000 13.999000 11.888000
v 3.886000 16.030000 11.888000
v 0.637000 15.550000 8.888000
v 1.233000 15.550000 8.888000
v 0.035000 15.550000 9.388000
v 1.848000 15.550000 9.388000
v -0.329000 15.550000 9.888000
v 2.387000 15.550000 9.888000
v -0.495000 15.550000 10.388000
v 3.252000 15.550000 10.388000
v -0.370000 15.550000 10.888000
v 3.693000 15.550000 10.888000
v 0.023000 15.550000 11.388000
v 4.097000 15.550000 11.388000
v 0.537000 15.550000 11.888000
v 4.216000 15.550000 11.888000
v 1.187000 15.550000 12.388000
v 4.134000 15.550000 12.388000
v 1.536000 15.550000 12.888000
v 3.794000 15.550000 12.888000
v -0.114000 15.550000 9.637000
v -0.114000 15.550000 11.191000
v 0.386000 15.550000 9.004000
v 0.386000 15.550000 11.780000
v 0.886000 15.550000 8.844000
v 0.886000 15.550000 12.194000
v 1.386000 15.550000 8.949000
v 1.386000 15.550000 12.617000
v 1.886000 15.550000 9.432000
v 1.886000 15.550000 13.215000
v 2.386000 15.550000 9.887000
v 2.386000 15.550000 13.335000
v 2.886000 15.550000 10.153000
v 2.886000 15.550000 13.254000
v 3.386000 15.550000 10.528000
v 3.386000 15.550000 13.139000
v 3.886000 15.550000 11.067000
v 3.886000 15.550000 12.795000
v -0.114000 13.177000 12.388000
v -0.114000 14.876000 12.388000
v 0.386000 12.725000 12.388000
v 0.386000 15.239000 12.388000
v 0.886000 12.324000 12.388000
v 0.886000 15.414000 12.388000
v 1.386000 12.204000 12.388000
v 1.386000 15.653000 12.388000
v 1.886000 12.284000 12.388000
v 1.886000 15.947000 12.388000
v 2.386000 12.613000 12.388000
v 2.386000 16.224000 12.388000
v 2.886000 13.095000 12.388000
v 2.886000 16.338000 12.388000
v 3.386000 13.597000 12.388000
v 3.386000 16.255000 12.388000
v 3.886000 14.107000 12.388000
v 3.886000 15.923000 12.388000
v 1.912000 16.050000 10.388000
v 2.548000 16.050000 10.388000
v 1.365000 16.050000 10.888000
v 3.241000 16.050000 10.888000
v 1.307000 16.050000 11.388000
v 3.693000 16.050000 11.388000
v 1.538000 16.050000 11.888000
v 3.865000 16.050000 11.888000
v 2.078000 16.050000 12.388000
v 3.748000 16.050000 12.388000
v 1.386000 16.050000 10.842000
v 1.386000 16.050000 11.594000
v 1.886000 16.050000 10.391000
v 1.886000 16.050000 12.224000
v 2.386000 16.050000 10.372000
v 2.386000 16.050000 12.706000
v 2.886000 16.050000 10.516000
v 2.886000 16.050000 12.873000
v 3.386000 16.050000 11.079000
v 3.386000 16.050000 12.753000
v 0.386000 13.197000 8.888000
v 0.386000 15.432000 8.888000
v 0.886000 13.065000 8.888000
v 0.886000 15.593000 8.888000
v 1.386000 13.209000 8.888000
v 1.386000 15.488000 8.888000
v 1.886000 14.241000 8.888000
v 1.886000 14.921000 8.888000
v 0.386000 13.126000 12.888000
v 0.386000 14.903000 12.888000
v 0.886000 12.697000 12.888000
v 0.886000 15.211000 12.888000
v 1.386000 12.531000 12.888000
v 1.386000 15.438000 12.888000
v 1.886000 12.632000 12.888000
v 1.886000 15.754000 12.888000
v 2.386000 12.839000 12.888000
v 2.386000 15.909000 12.888000
v 2.886000 13.230000 12.888000
v 2.886000 16.036000 12.888000
v 3.386000 13.757000 12.888000
v 3.386000 15.926000 12.888000
v 3.886000 14.671000 12.888000
v 3.886000 15.358000 12.888000
v 0.061000 12.550000 9.888000
v 1.761000 12.550000 9.888000
v -0.068000 12.550000 10.388000
v 1.889000 12.550000 10.388000
v 0.075000 12.550000 10.888000
v 1.981000 12.550000 10.888000
v 0.372000 12.550000 11.388000
v 2.320000 12.550000 11.388000
v 0.417000 12.550000 11.888000
v 2.452000 12.550000 11.888000
v 0.548000 12.550000 12.388000
v 2.321000 12.550000 12.388000
v 1.241000 12.550000 12.888000
v 1.628000 12.550000 12.888000
v 0.386000 12.550000 9.547000
v 0.386000 12.550000 11.438000
v 0.886000 12.550000 9.395000
v 0.886000 12.550000 12.746000
v 1.386000 12.550000 9.517000
v 1.386000 12.550000 12.905000
v 1.886000 12.550000 10.292000
v 1.886000 12.550000 12.800000
v 2.386000 12.550000 11.529000
v 2.386000 12.550000 12.249000
v -0.114000 13.177000 9.388000
v -0.114000 15.393000 9.388000
v 0.386000 12.706000 9.388000
v 0.386000 15.785000 9.388000
v 0.886000 12.556000 9.388000
v 0.886000 15.904000 9.388000
v 1.386000 12.677000 9.388000
v 1.386000 15.825000 9.388000
v 1.886000 13.164000 9.388000
v 1.886000 15.518000 9.388000
v 2.386000 14.443000 9.388000
v 2.386000 14.733000 9.388000
v 0.886000 13.143000 13.388000
v 0.886000 14.858000 13.388000
v 1.386000 13.000000 13.388000
v 1.386000 15.041000 13.388000
v 1.886000 13.042000 13.388000
v 1.886000 15.371000 13.388000
v 2.386000 13.197000 13.388000
v 2.386000 15.496000 13.388000
v 2.886000 13.745000 13.388000
v 2.886000 15.343000 13.388000
f 85 55 35
f 35 55 53
f 55 105 53
f 107 105 55
f 107 163 105
f 165 163 107
f 165 223 163
f 225 223 165
f 225 86 223
f 223 86 36
f 87 5 37
f 37 5 3
f 35 3 5
f 35 5 85
f 283 36 86
f 283 86 285
f 285 88 283
f 283 88 38
f 89 379 39
f 39 379 377
f 37 377 379
f 37 379 87
f 38 90 40
f 88 90 38
f 91 39 41
f 91 89 39
f 40 92 42
f 90 92 40
f 93 41 43
f 93 91 41
f 42 94 44
f 92 94 42
f 397 95 378
f 95 43 378
f 95 93 43
f 45 397 378
f 44 96 46
f 94 96 44
f 397 380 95
f 31 97 4
f 4 97 45
f 97 380 45
f 380 397 45
f 47 31 4
f 96 333 347
f 48 96 347
f 46 96 48
f 333 98 347
f 31 6 97
f 47 54 31
f 54 6 31
f 54 56 6
f 106 135 99
f 56 106 99
f 54 106 56
f 164 193 135
f 164 135 106
f 224 253 193
f 224 193 164
f 284 309 253
f 284 253 224
f 347 334 48
f 48 334 284
f 334 100 284
f 100 309 284
f 347 98 334
f 135 108 99
f 108 135 166
f 166 135 193
f 166 193 226
f 226 193 253
f 226 253 286
f 286 253 309
f 309 100 286
f 141 7 19
f 19 7 85
f 7 55 85
f 7 57 55
f 57 107 55
f 109 107 57
f 109 165 107
f 167 165 109
f 167 225 165
f 227 225 167
f 227 142 225
f 225 142 86
f 5 87 19
f 87 141 19
f 87 143 141
f 19 85 5
f 285 86 142
f 285 142 287
f 287 144 285
f 285 144 88
f 145 381 89
f 89 381 379
f 87 379 381
f 87 381 143
f 88 146 90
f 144 146 88
f 147 89 91
f 147 145 89
f 90 148 92
f 146 148 90
f 149 91 93
f 149 147 91
f 148 335 343
f 94 148 343
f 92 148 94
f 335 150 343
f 151 93 95
f 151 149 93
f 345 96 94
f 345 94 343
f 343 150 345
f 345 150 152
f 95 380 151
f 151 380 382
f 153 382 380
f 153 380 97
f 345 333 96
f 345 152 333
f 152 98 333
f 152 154 98
f 97 6 153
f 153 6 8
f 56 83 155
f 8 56 155
f 6 56 8
f 99 83 56
f 334 349 100
f 334 98 349
f 98 156 349
f 98 154 156
f 83 58 155
f 99 108 83
f 108 58 83
f 108 110 58
f 166 195 157
f 110 166 157
f 108 166 110
f 226 255 195
f 226 195 166
f 286 311 255
f 286 255 226
f 349 336 100
f 100 336 286
f 336 158 286
f 158 311 286
f 349 156 336
f 195 168 157
f 168 195 228
f 228 195 255
f 228 255 288
f 288 255 311
f 311 158 288
f 20 7 141
f 199 59 20
f 59 7 20
f 59 57 7
f 59 109 57
f 111 109 59
f 111 167 109
f 169 167 111
f 240 227 200
f 227 169 200
f 227 167 169
f 240 142 227
f 20 141 9
f 141 201 9
f 141 143 201
f 199 20 9
f 229 240 200
f 202 298 287
f 202 287 142
f 229 202 142
f 240 229 142
f 298 144 287
f 203 383 145
f 145 383 381
f 143 381 383
f 143 383 201
f 289 298 202
f 289 204 298
f 204 144 298
f 204 146 144
f 205 145 147
f 205 203 145
f 146 206 148
f 204 206 146
f 207 147 149
f 207 205 147
f 335 148 206
f 335 206 337
f 337 208 335
f 335 208 150
f 209 149 151
f 209 207 149
f 150 210 152
f 208 210 150
f 151 382 209
f 209 382 384
f 211 384 382
f 211 382 153
f 152 212 154
f 210 212 152
f 153 8 211
f 211 8 10
f 213 10 8
f 213 8 155
f 154 214 156
f 212 214 154
f 155 58 213
f 213 58 60
f 110 137 215
f 60 110 215
f 58 110 60
f 157 137 110
f 336 351 158
f 336 156 351
f 156 216 351
f 156 214 216
f 137 112 215
f 197 217 168
f 168 217 157
f 217 112 157
f 112 137 157
f 228 257 197
f 228 197 168
f 288 313 257
f 288 257 228
f 351 338 158
f 158 338 288
f 338 218 288
f 218 313 288
f 351 216 338
f 197 170 217
f 170 197 230
f 230 197 257
f 230 257 290
f 290 257 313
f 313 218 290
f 70 59 199
f 259 113 70
f 113 59 70
f 113 111 59
f 180 169 260
f 169 113 260
f 169 111 113
f 180 200 169
f 261 11 201
f 201 11 9
f 61 70 199
f 9 61 199
f 11 61 9
f 259 70 61
f 171 180 260
f 229 200 180
f 171 229 180
f 231 229 171
f 231 262 229
f 229 262 202
f 392 383 203
f 201 383 392
f 263 201 392
f 261 201 263
f 264 300 289
f 202 264 289
f 262 264 202
f 300 204 289
f 392 203 385
f 203 265 385
f 203 205 265
f 263 392 385
f 291 300 264
f 291 266 300
f 266 204 300
f 266 206 204
f 267 205 207
f 267 265 205
f 268 344 337
f 206 268 337
f 266 268 206
f 344 208 337
f 269 207 209
f 269 267 207
f 339 344 268
f 339 270 344
f 270 208 344
f 270 210 208
f 399 271 384
f 271 209 384
f 271 269 209
f 211 399 384
f 210 272 212
f 270 272 210
f 399 386 271
f 33 273 10
f 10 273 211
f 273 386 211
f 386 399 211
f 213 33 10
f 212 274 214
f 272 274 212
f 33 12 273
f 213 60 33
f 60 12 33
f 60 62 12
f 275 62 60
f 275 60 215
f 214 276 216
f 274 276 214
f 139 277 112
f 277 215 112
f 277 275 215
f 217 139 112
f 340 278 218
f 340 218 338
f 338 216 340
f 340 216 276
f 139 114 277
f 217 170 139
f 170 114 139
f 170 172 114
f 230 172 170
f 230 232 172
f 290 232 230
f 290 292 232
f 290 218 292
f 292 218 278
f 122 113 259
f 122 260 113
f 22 11 261
f 315 63 22
f 63 11 22
f 63 61 11
f 115 122 259
f 61 115 259
f 63 115 61
f 171 260 122
f 115 171 122
f 173 171 115
f 242 231 316
f 231 173 316
f 231 171 173
f 242 262 231
f 22 261 13
f 261 317 13
f 261 263 317
f 315 22 13
f 233 242 316
f 233 318 242
f 318 262 242
f 318 264 262
f 319 387 265
f 265 387 385
f 263 385 387
f 263 387 317
f 320 302 291
f 264 320 291
f 318 320 264
f 302 266 291
f 321 265 267
f 321 319 265
f 293 302 320
f 293 322 302
f 322 266 302
f 322 268 266
f 323 267 269
f 323 321 267
f 324 346 339
f 268 324 339
f 322 324 268
f 346 270 339
f 388 323 400
f 323 271 400
f 323 269 271
f 325 388 400
f 341 346 324
f 341 326 346
f 326 270 346
f 326 272 270
f 386 400 271
f 14 325 34
f 34 325 273
f 325 400 273
f 400 386 273
f 327 14 34
f 272 328 274
f 326 328 272
f 12 34 273
f 34 12 327
f 12 64 327
f 12 62 64
f 329 64 62
f 329 62 275
f 274 330 276
f 328 330 274
f 116 329 140
f 329 277 140
f 329 275 277
f 331 116 140
f 342 332 278
f 342 278 340
f 340 276 342
f 342 276 330
f 114 140 277
f 140 114 331
f 114 174 331
f 114 172 174
f 232 174 172
f 232 234 174
f 292 234 232
f 292 294 234
f 292 278 294
f 294 278 332
f 353 49 73
f 73 49 125
f 125 49 101
f 125 101 183
f 183 101 159
f 183 159 243
f 243 159 219
f 219 354 243
f 75 355 73
f 73 355 353
f 73 127 75
f 73 125 127
f 125 185 127
f 125 183 185
f 183 245 185
f 183 243 245
f 279 301 354
f 301 243 354
f 301 245 243
f 279 356 301
f 77 357 75
f 75 357 355
f 75 129 77
f 75 127 129
f 127 187 129
f 127 185 187
f 185 247 187
f 185 245 247
f 358 247 280
f 247 301 280
f 247 245 301
f 301 356 280
f 77 50 357
f 50 77 102
f 102 77 129
f 102 129 359
f 129 189 359
f 129 187 189
f 360 189 220
f 189 247 220
f 189 187 247
f 247 358 220
f 189 160 359
f 189 360 160
f 72 63 315
f 124 115 72
f 72 115 63
f 182 173 124
f 124 173 115
f 182 316 173
f 24 13 317
f 65 72 315
f 65 315 13
f 361 65 13
f 24 361 13
f 72 65 117
f 72 117 124
f 124 117 175
f 124 175 182
f 362 244 233
f 362 233 316
f 175 362 316
f 182 175 316
f 244 318 233
f 394 387 319
f 15 24 317
f 15 317 387
f 363 15 387
f 394 363 387
f 361 24 15
f 235 244 362
f 235 364 244
f 364 318 244
f 364 320 318
f 394 319 389
f 319 365 389
f 319 321 365
f 363 394 389
f 366 304 293
f 320 366 293
f 364 366 320
f 304 322 293
f 390 365 398
f 365 323 398
f 365 321 323
f 367 390 398
f 295 304 366
f 295 368 304
f 368 322 304
f 368 324 322
f 388 398 323
f 367 398 388
f 325 367 388
f 369 367 325
f 370 348 341
f 324 370 341
f 368 370 324
f 348 326 341
f 325 14 369
f 369 14 16
f 371 16 14
f 371 14 327
f 372 350 348
f 372 348 370
f 326 348 328
f 328 348 350
f 327 64 371
f 371 64 66
f 373 66 64
f 373 64 329
f 374 352 350
f 374 350 372
f 328 350 330
f 330 350 352
f 329 116 373
f 373 116 118
f 116 331 198
f 176 116 198
f 118 116 176
f 375 176 198
f 296 376 314
f 352 374 296
f 352 296 314
f 342 352 314
f 332 342 314
f 330 352 342
f 174 198 331
f 198 174 375
f 174 236 375
f 174 234 236
f 376 236 314
f 236 294 314
f 236 234 294
f 332 314 294
f 401 51 71
f 71 51 123
f 123 51 103
f 123 103 181
f 181 103 161
f 181 161 241
f 241 161 221
f 221 402 241
f 403 1 23
f 401 71 1
f 1 71 23
f 71 49 23
f 49 353 23
f 123 101 49
f 123 49 71
f 181 159 101
f 181 101 123
f 241 219 159
f 241 159 181
f 402 281 299
f 402 299 354
f 241 402 354
f 219 241 354
f 281 404 299
f 25 405 23
f 23 405 403
f 23 353 355
f 23 355 25
f 299 279 354
f 299 404 279
f 404 356 279
f 404 406 356
f 27 407 25
f 25 407 405
f 25 355 357
f 25 357 27
f 280 303 358
f 280 356 303
f 356 408 303
f 356 406 408
f 27 2 407
f 79 409 50
f 50 409 357
f 409 2 357
f 2 27 357
f 102 131 79
f 102 79 50
f 359 131 102
f 220 249 360
f 303 282 358
f 358 282 220
f 282 410 220
f 410 249 220
f 303 408 282
f 79 52 409
f 52 79 104
f 104 79 131
f 191 411 160
f 160 411 359
f 411 104 359
f 104 131 359
f 249 222 360
f 360 222 160
f 222 412 160
f 412 191 160
f 249 410 222
f 191 162 411
f 191 412 162
f 74 65 361
f 126 117 74
f 74 117 65
f 184 175 126
f 126 175 117
f 184 362 175
f 26 15 363
f 67 74 361
f 67 361 15
f 413 67 15
f 26 413 15
f 74 67 119
f 74 119 126
f 126 119 177
f 126 177 184
f 414 246 235
f 414 235 362
f 177 414 362
f 184 177 362
f 246 364 235
f 396 389 365
f 17 26 363
f 17 363 389
f 415 17 389
f 396 415 389
f 413 26 17
f 416 248 246
f 416 246 414
f 364 246 366
f 366 246 248
f 390 396 365
f 415 396 390
f 367 415 390
f 417 415 367
f 237 248 416
f 418 306 295
f 418 295 366
f 237 418 366
f 248 237 366
f 306 368 295
f 18 417 32
f 417 369 32
f 417 367 369
f 419 18 32
f 420 308 306
f 420 306 418
f 368 306 370
f 370 306 308
f 16 32 369
f 68 419 84
f 84 419 371
f 419 32 371
f 32 16 371
f 421 68 84
f 422 310 308
f 422 308 420
f 370 308 372
f 372 308 310
f 66 84 371
f 120 421 138
f 138 421 373
f 421 84 373
f 84 66 373
f 120 138 196
f 120 196 178
f 178 196 256
f 178 256 238
f 310 422 238
f 256 310 238
f 312 310 256
f 372 310 374
f 374 310 312
f 118 138 373
f 176 196 118
f 118 196 138
f 375 258 176
f 258 196 176
f 258 256 196
f 296 312 376
f 312 258 376
f 312 256 258
f 374 312 296
f 236 258 375
f 376 258 236
f 35 53 69
f 69 53 121
f 121 53 105
f 121 105 179
f 179 105 163
f 179 163 239
f 239 163 223
f 223 36 239
f 37 3 21
f 35 69 3
f 3 69 21
f 69 51 21
f 51 401 21
f 121 103 51
f 121 51 69
f 179 161 103
f 179 103 121
f 239 221 161
f 239 161 179
f 36 283 297
f 36 297 402
f 239 36 402
f 221 239 402
f 283 38 297
f 39 377 391
f 37 21 377
f 377 21 391
f 21 1 391
f 1 403 391
f 21 401 1
f 297 281 402
f 297 38 281
f 38 404 281
f 38 40 404
f 393 41 391
f 391 41 39
f 391 403 405
f 391 405 393
f 404 42 406
f 40 42 404
f 395 43 393
f 393 43 41
f 393 405 407
f 393 407 395
f 406 44 408
f 42 44 406
f 395 378 43
f 29 45 2
f 2 45 407
f 45 378 407
f 378 395 407
f 409 29 2
f 282 305 410
f 282 408 305
f 408 46 305
f 408 44 46
f 29 4 45
f 81 47 52
f 52 47 409
f 47 4 409
f 4 29 409
f 104 133 81
f 104 81 52
f 411 133 104
f 222 251 412
f 251 222 410
f 305 251 410
f 307 251 305
f 305 46 307
f 307 46 48
f 81 54 47
f 54 81 106
f 106 81 133
f 411 162 133
f 162 106 133
f 162 164 106
f 251 224 412
f 224 162 412
f 224 164 162
f 224 251 284
f 284 251 307
f 307 48 284
f 76 67 413
f 128 119 76
f 76 119 67
f 186 177 128
f 128 177 119
f 186 414 177
f 28 17 415
f 17 28 413
f 28 76 413
f 28 78 76
f 130 76 78
f 128 76 130
f 188 128 130
f 186 128 188
f 414 186 416
f 416 186 188
f 417 30 415
f 415 30 28
f 80 28 30
f 78 28 80
f 132 78 80
f 130 78 132
f 190 130 132
f 188 130 190
f 416 188 237
f 188 250 237
f 188 190 250
f 250 418 237
f 18 30 417
f 419 82 18
f 82 30 18
f 82 80 30
f 134 80 82
f 132 80 134
f 192 132 134
f 190 132 192
f 252 190 192
f 250 190 252
f 418 250 420
f 420 250 252
f 68 82 419
f 421 136 68
f 136 82 68
f 136 134 82
f 194 134 136
f 192 134 194
f 254 192 194
f 252 192 254
f 420 252 422
f 422 252 254
f 120 136 421
f 178 194 120
f 120 194 136
f 238 254 178
f 178 254 194
f 422 254 238
