# Converted from NanoShaper .vert/.face
v 13.168000 -4.200000 -14.612000
v 13.633000 -4.200000 -14.612000
v 12.802000 -4.200000 -14.112000
v 13.977000 -4.200000 -14.112000
v 12.300000 -4.200000 -13.612000
v 13.742000 -4.200000 -13.612000
v 12.090000 -4.200000 -13.112000
v 13.538000 -4.200000 -13.112000
v 11.860000 -4.200000 -12.612000
v 13.556000 -4.200000 -12.612000
v 11.729000 -4.200000 -12.112000
v 13.710000 -4.200000 -12.112000
v 11.974000 -4.200000 -11.612000
v 13.941000 -4.200000 -11.612000
v 12.384000 -4.200000 -11.112000
v 13.968000 -4.200000 -11.112000
v 13.145000 -4.200000 -10.612000
v 13.635000 -4.200000 -10.612000
v 11.886000 -4.200000 -12.750000
v 11.886000 -4.200000 -11.698000
v 12.386000 -4.200000 -13.698000
v 12.386000 -4.200000 -11.110000
v 12.886000 -4.200000 -14.347000
v 12.886000 -4.200000 -10.816000
v 13.386000 -4.200000 -14.661000
v 13.386000 -4.200000 -10.558000
v 13.886000 -4.200000 -14.396000
v 13.886000 -4.200000 -13.771000
v 13.886000 -4.200000 -11.886000
v 13.886000 -4.200000 -10.839000
v 12.386000 -6.268000 -15.112000
v 12.386000 -5.545000 -15.112000
v 12.886000 -7.272000 -15.112000
v 12.886000 -4.677000 -15.112000
v 13.386000 -7.623000 -15.112000
v 13.386000 -4.526000 -15.112000
v 13.886000 -7.711000 -15.112000
v 13.886000 -4.622000 -15.112000
v 14.386000 -7.596000 -15.112000
v 14.386000 -4.782000 -15.112000
v 14.886000 -7.193000 -15.112000
v 14.886000 -5.175000 -15.112000
v 11.386000 -7.478000 -11.112000
v 11.386000 -5.129000 -11.112000
v 11.886000 -7.782000 -11.112000
v 11.886000 -4.529000 -11.112000
v 12.386000 -7.859000 -11.112000
v 12.386000 -4.200000 -11.112000
v 12.886000 -7.751000 -11.112000
v 12.886000 -4.105000 -11.112000
v 13.386000 -7.400000 -11.112000
v 13.386000 -4.076000 -11.112000
v 13.886000 -6.972000 -11.112000
v 13.886000 -4.167000 -11.112000
v 14.386000 -6.493000 -11.112000
v 14.386000 -4.492000 -11.112000
v 13.690000 -7.700000 -15.112000
v 14.018000 -7.700000 -15.112000
v 13.283000 -7.700000 -14.612000
v 14.425000 -7.700000 -14.612000
v 13.269000 -7.700000 -14.112000
v 14.531000 -7.700000 -14.112000
v 13.209000 -7.700000 -13.612000
v 14.495000 -7.700000 -13.612000
v 13.463000 -7.700000 -13.112000
v 14.241000 -7.700000 -13.112000
v 11.940000 -7.700000 -11.612000
v 12.752000 -7.700000 -11.612000
v 11.698000 -7.700000 -11.112000
v 12.994000 -7.700000 -11.112000
v 11.928000 -7.700000 -10.612000
v 12.764000 -7.700000 -10.612000
v 11.886000 -7.700000 -11.564000
v 11.886000 -7.700000 -10.651000
v 12.386000 -7.700000 -11.754000
v 12.386000 -7.700000 -10.461000
v 12.886000 -7.700000 -11.466000
v 12.886000 -7.700000 -10.749000
v 13.386000 -7.700000 -14.894000
v 13.386000 -7.700000 -13.182000
v 13.886000 -7.700000 -15.135000
v 13.886000 -7.700000 -12.982000
v 14.386000 -7.700000 -14.777000
v 14.386000 -7.700000 -13.266000
v 12.386000 -6.824000 -14.612000
v 12.386000 -4.668000 -14.612000
v 12.886000 -7.434000 -14.612000
v 12.886000 -4.286000 -14.612000
v 13.386000 -7.742000 -14.612000
v 13.386000 -4.180000 -14.612000
v 13.886000 -7.822000 -14.612000
v 13.886000 -4.274000 -14.612000
v 14.386000 -7.717000 -14.612000
v 14.386000 -4.605000 -14.612000
v 14.886000 -7.369000 -14.612000
v 14.886000 -5.003000 -14.612000
v 11.386000 -7.350000 -10.612000
v 11.386000 -5.568000 -10.612000
v 11.886000 -7.686000 -10.612000
v 11.886000 -5.045000 -10.612000
v 12.386000 -7.768000 -10.612000
v 12.386000 -4.533000 -10.612000
v 12.886000 -7.653000 -10.612000
v 12.886000 -4.279000 -10.612000
v 13.386000 -7.259000 -10.612000
v 13.386000 -4.177000 -10.612000
v 13.886000 -6.814000 -10.612000
v 13.886000 -4.276000 -10.612000
v 14.386000 -6.308000 -10.612000
v 14.386000 -4.643000 -10.612000
v 13.349000 -7.200000 -15.612000
v 14.359000 -7.200000 -15.612000
v 12.827000 -7.200000 -15.112000
v 14.881000 -7.200000 -15.112000
v 12.690000 -7.200000 -14.612000
v 15.018000 -7.200000 -14.612000
v 12.696000 -7.200000 -14.112000
v 15.082000 -7.200000 -14.112000
v 12.652000 -7.200000 -13.612000
v 15.038000 -7.200000 -13.612000
v 12.658000 -7.200000 -13.112000
v 14.922000 -7.200000 -13.112000
v 12.463000 -7.200000 -12.612000
v 14.504000 -7.200000 -12.612000
v 11.711000 -7.200000 -12.112000
v 14.096000 -7.200000 -12.112000
v 11.271000 -7.200000 -11.612000
v 13.820000 -7.200000 -11.612000
v 11.158000 -7.200000 -11.112000
v 13.588000 -7.200000 -11.112000
v 11.266000 -7.200000 -10.612000
v 13.442000 -7.200000 -10.612000
v 11.698000 -7.200000 -10.112000
v 12.995000 -7.200000 -10.112000
v 11.386000 -7.200000 -11.807000
v 11.386000 -7.200000 -10.408000
v 11.886000 -7.200000 -12.215000
v 11.886000 -7.200000 -10.012000
v 12.386000 -7.200000 -12.529000
v 12.386000 -7.200000 -9.920000
v 12.886000 -7.200000 -15.210000
v 12.886000 -7.200000 -10.050000
v 13.386000 -7.200000 -15.629000
v 13.386000 -7.200000 -10.517000
v 13.886000 -7.200000 -15.727000
v 13.886000 -7.200000 -11.697000
v 14.386000 -7.200000 -15.599000
v 14.386000 -7.200000 -12.495000
v 14.886000 -7.200000 -15.102000
v 14.886000 -7.200000 -13.043000
v 11.886000 -6.081000 -14.112000
v 11.886000 -5.022000 -14.112000
v 12.386000 -6.932000 -14.112000
v 12.386000 -4.419000 -14.112000
v 12.886000 -7.416000 -14.112000
v 12.886000 -4.170000 -14.112000
v 13.386000 -7.753000 -14.112000
v 13.386000 -4.076000 -14.112000
v 13.886000 -7.851000 -14.112000
v 13.886000 -4.163000 -14.112000
v 14.386000 -7.764000 -14.112000
v 14.386000 -4.482000 -14.112000
v 14.886000 -7.444000 -14.112000
v 14.886000 -4.909000 -14.112000
v 11.886000 -7.330000 -10.112000
v 11.886000 -5.562000 -10.112000
v 12.386000 -7.443000 -10.112000
v 12.386000 -5.057000 -10.112000
v 12.886000 -7.283000 -10.112000
v 12.886000 -4.665000 -10.112000
v 13.386000 -6.836000 -10.112000
v 13.386000 -4.521000 -10.112000
v 13.886000 -6.317000 -10.112000
v 13.886000 -4.660000 -10.112000
v 12.970000 -6.700000 -15.612000
v 14.738000 -6.700000 -15.612000
v 12.579000 -6.700000 -15.112000
v 15.111000 -6.700000 -15.112000
v 12.281000 -6.700000 -14.612000
v 15.226000 -6.700000 -14.612000
v 12.185000 -6.700000 -14.112000
v 15.277000 -6.700000 -14.112000
v 12.137000 -6.700000 -13.612000
v 15.231000 -6.700000 -13.612000
v 11.879000 -6.700000 -13.112000
v 15.140000 -6.700000 -13.112000
v 11.581000 -6.700000 -12.612000
v 14.961000 -6.700000 -12.612000
v 11.295000 -6.700000 -12.112000
v 14.652000 -6.700000 -12.112000
v 11.063000 -6.700000 -11.612000
v 14.479000 -6.700000 -11.612000
v 10.967000 -6.700000 -11.112000
v 14.170000 -6.700000 -11.112000
v 11.059000 -6.700000 -10.612000
v 13.980000 -6.700000 -10.612000
v 11.391000 -6.700000 -10.112000
v 13.573000 -6.700000 -10.112000
v 11.386000 -6.700000 -12.280000
v 11.386000 -6.700000 -10.118000
v 11.886000 -6.700000 -13.121000
v 11.886000 -6.700000 -9.807000
v 12.386000 -6.700000 -14.804000
v 12.386000 -6.700000 -9.729000
v 12.886000 -6.700000 -15.536000
v 12.886000 -6.700000 -9.829000
v 13.386000 -6.700000 -15.853000
v 13.386000 -6.700000 -10.004000
v 13.886000 -6.700000 -15.935000
v 13.886000 -6.700000 -10.442000
v 14.386000 -6.700000 -15.828000
v 14.386000 -6.700000 -11.451000
v 14.886000 -6.700000 -15.467000
v 14.886000 -6.700000 -12.483000
v 11.886000 -6.471000 -13.612000
v 11.886000 -4.489000 -13.612000
v 12.386000 -6.946000 -13.612000
v 12.386000 -4.166000 -13.612000
v 12.886000 -7.470000 -13.612000
v 12.886000 -4.082000 -13.612000
v 13.386000 -7.777000 -13.612000
v 13.386000 -4.117000 -13.612000
v 13.886000 -7.856000 -13.612000
v 13.886000 -4.250000 -13.612000
v 14.386000 -7.751000 -13.612000
v 14.386000 -4.578000 -13.612000
v 14.886000 -7.401000 -13.612000
v 14.886000 -4.985000 -13.612000
v 12.941000 -6.200000 -15.612000
v 14.777000 -6.200000 -15.612000
v 12.363000 -6.200000 -15.112000
v 15.139000 -6.200000 -15.112000
v 12.049000 -6.200000 -14.612000
v 15.250000 -6.200000 -14.612000
v 11.922000 -6.200000 -14.112000
v 15.289000 -6.200000 -14.112000
v 11.665000 -6.200000 -13.612000
v 15.305000 -6.200000 -13.612000
v 11.289000 -6.200000 -13.112000
v 15.272000 -6.200000 -13.112000
v 11.172000 -6.200000 -12.612000
v 15.165000 -6.200000 -12.612000
v 11.087000 -6.200000 -12.112000
v 14.872000 -6.200000 -12.112000
v 11.004000 -6.200000 -11.612000
v 14.695000 -6.200000 -11.612000
v 10.970000 -6.200000 -11.112000
v 14.591000 -6.200000 -11.112000
v 11.062000 -6.200000 -10.612000
v 14.467000 -6.200000 -10.612000
v 11.396000 -6.200000 -10.112000
v 14.011000 -6.200000 -10.112000
v 11.386000 -6.200000 -13.283000
v 11.386000 -6.200000 -10.122000
v 11.886000 -6.200000 -14.009000
v 11.886000 -6.200000 -9.811000
v 12.386000 -6.200000 -15.135000
v 12.386000 -6.200000 -9.725000
v 12.886000 -6.200000 -15.561000
v 12.886000 -6.200000 -9.696000
v 13.386000 -6.200000 -15.875000
v 13.386000 -6.200000 -9.788000
v 13.886000 -6.200000 -15.957000
v 13.886000 -6.200000 -10.041000
v 14.386000 -6.200000 -15.854000
v 14.386000 -6.200000 -10.471000
v 14.886000 -6.200000 -15.505000
v 14.886000 -6.200000 -12.140000
v 11.386000 -6.333000 -13.112000
v 11.386000 -4.665000 -13.112000
v 11.886000 -6.704000 -13.112000
v 11.886000 -4.293000 -13.112000
v 12.386000 -6.967000 -13.112000
v 12.386000 -4.086000 -13.112000
v 12.886000 -7.407000 -13.112000
v 12.886000 -4.013000 -13.112000
v 13.386000 -7.674000 -13.112000
v 13.386000 -4.125000 -13.112000
v 13.886000 -7.759000 -13.112000
v 13.886000 -4.410000 -13.112000
v 14.386000 -7.646000 -13.112000
v 14.386000 -4.661000 -13.112000
v 14.886000 -7.250000 -13.112000
v 14.886000 -4.989000 -13.112000
v 12.967000 -5.700000 -15.612000
v 14.760000 -5.700000 -15.612000
v 12.341000 -5.700000 -15.112000
v 15.127000 -5.700000 -15.112000
v 12.032000 -5.700000 -14.612000
v 15.238000 -5.700000 -14.612000
v 11.817000 -5.700000 -14.112000
v 15.288000 -5.700000 -14.112000
v 11.442000 -5.700000 -13.612000
v 15.287000 -5.700000 -13.612000
v 11.100000 -5.700000 -13.112000
v 15.264000 -5.700000 -13.112000
v 11.001000 -5.700000 -12.612000
v 15.156000 -5.700000 -12.612000
v 11.007000 -5.700000 -12.112000
v 14.895000 -5.700000 -12.112000
v 11.013000 -5.700000 -11.612000
v 14.769000 -5.700000 -11.612000
v 11.110000 -5.700000 -11.112000
v 14.772000 -5.700000 -11.112000
v 11.279000 -5.700000 -10.612000
v 14.669000 -5.700000 -10.612000
v 11.719000 -5.700000 -10.112000
v 14.318000 -5.700000 -10.112000
v 11.386000 -5.700000 -13.557000
v 11.386000 -5.700000 -10.428000
v 11.886000 -5.700000 -14.245000
v 11.886000 -5.700000 -10.021000
v 12.386000 -5.700000 -15.157000
v 12.386000 -5.700000 -9.789000
v 12.886000 -5.700000 -15.538000
v 12.886000 -5.700000 -9.693000
v 13.386000 -5.700000 -15.859000
v 13.386000 -5.700000 -9.743000
v 13.886000 -5.700000 -15.945000
v 13.886000 -5.700000 -9.847000
v 14.386000 -5.700000 -15.842000
v 14.386000 -5.700000 -10.179000
v 14.886000 -5.700000 -15.489000
v 14.886000 -5.700000 -12.091000
v 11.386000 -6.510000 -12.612000
v 11.386000 -4.520000 -12.612000
v 11.886000 -6.891000 -12.612000
v 11.886000 -4.190000 -12.612000
v 12.386000 -7.145000 -12.612000
v 12.386000 -4.092000 -12.612000
v 12.886000 -7.409000 -12.612000
v 12.886000 -4.036000 -12.612000
v 13.386000 -7.498000 -12.612000
v 13.386000 -4.124000 -12.612000
v 13.886000 -7.474000 -12.612000
v 13.886000 -4.418000 -12.612000
v 14.386000 -7.291000 -12.612000
v 14.386000 -4.697000 -12.612000
v 14.886000 -6.800000 -12.612000
v 14.886000 -5.143000 -12.612000
v 13.323000 -5.200000 -15.612000
v 14.404000 -5.200000 -15.612000
v 12.491000 -5.200000 -15.112000
v 14.905000 -5.200000 -15.112000
v 12.133000 -5.200000 -14.612000
v 15.039000 -5.200000 -14.612000
v 11.833000 -5.200000 -14.112000
v 15.113000 -5.200000 -14.112000
v 11.462000 -5.200000 -13.612000
v 15.069000 -5.200000 -13.612000
v 11.119000 -5.200000 -13.112000
v 15.058000 -5.200000 -13.112000
v 11.018000 -5.200000 -12.612000
v 14.930000 -5.200000 -12.612000
v 11.003000 -5.200000 -12.112000
v 14.768000 -5.200000 -12.112000
v 11.101000 -5.200000 -11.612000
v 14.740000 -5.200000 -11.612000
v 11.337000 -5.200000 -11.112000
v 14.762000 -5.200000 -11.112000
v 11.760000 -5.200000 -10.612000
v 14.659000 -5.200000 -10.612000
v 12.192000 -5.200000 -10.112000
v 14.304000 -5.200000 -10.112000
v 11.386000 -5.200000 -13.531000
v 11.386000 -5.200000 -11.029000
v 11.886000 -5.200000 -14.177000
v 11.886000 -5.200000 -10.439000
v 12.386000 -5.200000 -15.009000
v 12.386000 -5.200000 -9.997000
v 12.886000 -5.200000 -15.366000
v 12.886000 -5.200000 -9.844000
v 13.386000 -5.200000 -15.643000
v 13.386000 -5.200000 -9.764000
v 13.886000 -5.200000 -15.744000
v 13.886000 -5.200000 -9.856000
v 14.386000 -5.200000 -15.622000
v 14.386000 -5.200000 -10.192000
v 14.886000 -5.200000 -15.148000
v 14.886000 -5.200000 -12.518000
v 11.386000 -6.840000 -12.112000
v 11.386000 -4.456000 -12.112000
v 11.886000 -7.319000 -12.112000
v 11.886000 -4.130000 -12.112000
v 12.386000 -7.478000 -12.112000
v 12.386000 -4.039000 -12.112000
v 12.886000 -7.496000 -12.112000
v 12.886000 -4.080000 -12.112000
v 13.386000 -7.394000 -12.112000
v 13.386000 -4.127000 -12.112000
v 13.886000 -7.288000 -12.112000
v 13.886000 -4.266000 -12.112000
v 14.386000 -6.994000 -12.112000
v 14.386000 -4.626000 -12.112000
v 14.886000 -6.112000 -12.112000
v 14.886000 -5.622000 -12.112000
v 12.852000 -4.700000 -15.112000
v 14.153000 -4.700000 -15.112000
v 12.361000 -4.700000 -14.612000
v 14.510000 -4.700000 -14.612000
v 12.077000 -4.700000 -14.112000
v 14.625000 -4.700000 -14.112000
v 11.711000 -4.700000 -13.612000
v 14.524000 -4.700000 -13.612000
v 11.358000 -4.700000 -13.112000
v 14.474000 -4.700000 -13.112000
v 11.236000 -4.700000 -12.612000
v 14.391000 -4.700000 -12.612000
v 11.193000 -4.700000 -12.112000
v 14.454000 -4.700000 -12.112000
v 11.308000 -4.700000 -11.612000
v 14.532000 -4.700000 -11.612000
v 11.719000 -4.700000 -11.112000
v 14.556000 -4.700000 -11.112000
v 12.160000 -4.700000 -10.612000
v 14.432000 -4.700000 -10.612000
v 12.832000 -4.700000 -10.112000
v 13.948000 -4.700000 -10.112000
v 11.386000 -4.700000 -13.165000
v 11.386000 -4.700000 -11.473000
v 11.886000 -4.700000 -13.901000
v 11.886000 -4.700000 -10.894000
v 12.386000 -4.700000 -14.659000
v 12.386000 -4.700000 -10.465000
v 12.886000 -4.700000 -15.130000
v 12.886000 -4.700000 -10.085000
v 13.386000 -4.700000 -15.250000
v 13.386000 -4.700000 -9.970000
v 13.886000 -4.700000 -15.215000
v 13.886000 -4.700000 -10.081000
v 14.386000 -4.700000 -14.894000
v 14.386000 -4.700000 -10.530000
v 13.386000 -7.223000 -15.612000
v 13.386000 -5.159000 -15.612000
v 13.886000 -7.349000 -15.612000
v 13.886000 -5.028000 -15.612000
v 14.386000 -7.182000 -15.612000
v 14.386000 -5.188000 -15.612000
v 11.386000 -7.345000 -11.612000
v 11.386000 -4.598000 -11.612000
v 11.886000 -7.682000 -11.612000
v 11.886000 -4.233000 -11.612000
v 12.386000 -7.765000 -11.612000
v 12.386000 -4.097000 -11.612000
v 12.886000 -7.650000 -11.612000
v 12.886000 -4.030000 -11.612000
v 13.386000 -7.404000 -11.612000
v 13.386000 -4.078000 -11.612000
v 13.886000 -7.170000 -11.612000
v 13.886000 -4.177000 -11.612000
v 14.386000 -6.818000 -11.612000
v 14.386000 -4.517000 -11.612000
f 85 179 203
f 203 179 31
f 179 231 31
f 179 233 231
f 233 287 231
f 289 287 233
f 32 287 369
f 287 345 369
f 287 289 345
f 369 345 423
f 423 345 399
f 399 86 423
f 87 115 33
f 33 115 113
f 115 85 203
f 177 115 203
f 113 115 177
f 203 31 177
f 369 343 32
f 423 397 343
f 423 343 369
f 423 86 397
f 86 34 397
f 86 88 34
f 89 59 79
f 35 79 59
f 87 35 59
f 33 35 87
f 88 1 25
f 36 88 25
f 34 88 36
f 1 90 25
f 57 37 79
f 37 89 79
f 37 91 89
f 79 35 57
f 36 25 2
f 92 36 2
f 38 36 92
f 25 90 2
f 83 93 58
f 93 37 58
f 93 91 37
f 39 83 58
f 398 431 40
f 398 38 431
f 38 94 431
f 38 92 94
f 83 60 93
f 149 95 114
f 114 95 39
f 95 60 39
f 60 83 39
f 41 149 114
f 40 431 400
f 96 40 400
f 42 40 96
f 431 94 400
f 149 116 95
f 41 178 149
f 178 116 149
f 178 180 116
f 232 180 178
f 232 234 180
f 288 234 232
f 288 290 234
f 344 290 288
f 344 346 290
f 344 42 346
f 346 42 96
f 97 131 43
f 43 131 129
f 131 193 129
f 195 193 131
f 195 247 193
f 249 247 195
f 249 303 247
f 305 303 249
f 366 359 98
f 359 305 98
f 359 303 305
f 366 44 359
f 74 69 45
f 43 69 74
f 99 43 74
f 97 43 99
f 361 366 98
f 100 422 413
f 100 413 44
f 361 100 44
f 366 361 44
f 422 46 413
f 74 45 71
f 45 101 71
f 45 47 101
f 99 74 71
f 415 422 100
f 102 22 15
f 102 15 46
f 415 102 46
f 422 415 46
f 22 48 15
f 72 101 78
f 101 49 78
f 101 47 49
f 103 72 78
f 104 24 22
f 104 22 102
f 48 22 50
f 50 22 24
f 70 78 49
f 103 78 70
f 51 103 70
f 105 103 51
f 17 24 104
f 17 106 24
f 106 50 24
f 106 52 50
f 51 130 105
f 105 130 132
f 107 132 130
f 107 130 53
f 18 108 30
f 30 54 18
f 54 106 18
f 54 52 106
f 53 194 107
f 107 194 196
f 109 196 194
f 109 194 55
f 56 16 30
f 108 56 30
f 110 56 108
f 54 30 16
f 55 248 109
f 109 248 250
f 304 250 248
f 304 306 250
f 360 306 304
f 360 362 306
f 414 362 360
f 414 416 362
f 414 56 416
f 416 56 110
f 151 291 311
f 311 291 367
f 367 291 347
f 347 152 367
f 153 181 85
f 85 181 179
f 181 233 179
f 235 233 181
f 235 151 311
f 289 235 311
f 233 235 289
f 367 345 289
f 367 289 311
f 345 367 152
f 401 345 152
f 399 345 401
f 401 154 399
f 399 154 86
f 155 117 87
f 87 117 115
f 85 115 117
f 85 117 153
f 154 3 23
f 88 154 23
f 86 154 88
f 3 156 23
f 157 61 89
f 89 61 59
f 87 59 61
f 87 61 155
f 23 1 88
f 23 156 1
f 156 90 1
f 156 158 90
f 159 89 91
f 159 157 89
f 2 27 92
f 2 90 27
f 90 160 27
f 90 158 160
f 161 91 93
f 161 159 91
f 92 27 4
f 162 92 4
f 94 92 162
f 27 160 4
f 93 60 161
f 161 60 62
f 163 62 60
f 163 60 95
f 402 164 96
f 402 96 400
f 400 94 402
f 402 94 162
f 95 116 163
f 163 116 118
f 180 118 116
f 180 182 118
f 234 182 180
f 234 236 182
f 290 236 234
f 290 292 236
f 346 292 290
f 346 348 292
f 346 96 348
f 348 96 164
f 136 131 97
f 200 195 136
f 136 195 131
f 254 249 200
f 200 249 195
f 310 305 254
f 254 305 249
f 310 98 305
f 136 97 133
f 97 165 133
f 97 99 165
f 136 133 197
f 136 197 200
f 200 197 251
f 200 251 254
f 254 251 307
f 254 307 310
f 166 368 361
f 166 361 98
f 307 166 98
f 310 307 98
f 368 100 361
f 76 71 101
f 99 71 76
f 167 99 76
f 165 99 167
f 363 368 166
f 168 424 415
f 168 415 100
f 363 168 100
f 368 363 100
f 424 102 415
f 72 76 101
f 167 76 72
f 103 167 72
f 169 167 103
f 417 424 168
f 417 170 424
f 170 102 424
f 170 104 102
f 134 169 144
f 169 105 144
f 169 103 105
f 171 134 144
f 172 26 17
f 104 172 17
f 170 172 104
f 26 106 17
f 132 144 105
f 198 171 210
f 210 171 107
f 171 144 107
f 144 132 107
f 173 198 210
f 108 18 26
f 172 108 26
f 174 108 172
f 106 26 18
f 196 210 107
f 252 173 266
f 266 173 109
f 173 210 109
f 210 196 109
f 252 266 322
f 252 322 308
f 308 322 378
f 308 378 364
f 364 378 432
f 364 432 418
f 432 110 418
f 110 174 418
f 110 108 174
f 250 266 109
f 306 322 250
f 250 322 266
f 362 378 306
f 306 378 322
f 416 432 362
f 362 432 378
f 110 432 416
f 215 237 255
f 255 237 151
f 237 291 151
f 237 293 291
f 293 347 291
f 349 347 293
f 152 347 421
f 347 403 421
f 347 349 403
f 403 216 421
f 217 183 153
f 153 183 181
f 183 215 255
f 235 183 255
f 181 183 235
f 255 151 235
f 421 401 152
f 216 5 21
f 216 21 154
f 421 216 154
f 401 421 154
f 5 218 21
f 219 119 155
f 155 119 117
f 153 117 119
f 153 119 217
f 21 3 154
f 21 218 3
f 218 156 3
f 218 220 156
f 221 63 157
f 157 63 61
f 155 61 63
f 155 63 219
f 156 222 158
f 220 222 156
f 223 157 159
f 223 221 157
f 6 224 28
f 28 160 6
f 160 222 6
f 160 158 222
f 225 159 161
f 225 223 159
f 162 4 28
f 224 162 28
f 226 162 224
f 160 28 4
f 161 62 225
f 225 62 64
f 227 64 62
f 227 62 163
f 404 228 164
f 404 164 402
f 402 162 404
f 404 162 226
f 163 118 227
f 227 118 120
f 182 120 118
f 182 184 120
f 236 184 182
f 236 238 184
f 292 238 236
f 292 294 238
f 348 294 292
f 348 350 294
f 348 164 350
f 350 164 228
f 138 133 165
f 202 197 138
f 138 197 133
f 256 251 202
f 202 251 197
f 312 307 256
f 256 307 251
f 312 166 307
f 167 140 165
f 165 140 138
f 204 138 140
f 202 138 204
f 258 202 204
f 256 202 258
f 314 256 258
f 312 256 314
f 166 312 363
f 312 370 363
f 312 314 370
f 370 168 363
f 169 142 167
f 167 142 140
f 206 140 142
f 204 140 206
f 260 204 206
f 258 204 260
f 316 258 260
f 314 258 316
f 372 314 316
f 370 314 372
f 168 370 417
f 370 426 417
f 370 372 426
f 426 170 417
f 134 142 169
f 171 208 134
f 208 142 134
f 208 206 142
f 262 206 208
f 260 206 262
f 318 260 262
f 316 260 318
f 374 316 318
f 372 316 374
f 428 372 374
f 426 372 428
f 170 426 172
f 172 426 428
f 198 208 171
f 173 264 198
f 264 208 198
f 264 262 208
f 320 262 264
f 318 262 320
f 376 318 320
f 374 318 376
f 430 374 376
f 428 374 430
f 172 428 174
f 174 428 430
f 252 264 173
f 308 320 252
f 252 320 264
f 364 376 308
f 308 376 320
f 418 430 364
f 364 430 376
f 174 430 418
f 269 239 253
f 253 239 309
f 309 239 295
f 309 295 365
f 365 295 351
f 365 351 419
f 419 351 405
f 405 270 419
f 271 185 201
f 269 253 185
f 185 253 201
f 253 237 201
f 237 215 201
f 309 293 237
f 309 237 253
f 365 349 293
f 365 293 309
f 419 403 349
f 419 349 365
f 419 270 403
f 270 216 403
f 270 272 216
f 183 217 201
f 217 271 201
f 217 273 271
f 201 215 183
f 5 216 272
f 5 272 7
f 7 274 5
f 5 274 218
f 275 121 219
f 219 121 119
f 217 119 121
f 217 121 273
f 218 276 220
f 274 276 218
f 80 63 221
f 219 63 80
f 277 219 80
f 275 219 277
f 220 278 222
f 276 278 220
f 80 221 65
f 221 279 65
f 221 223 279
f 277 80 65
f 8 280 224
f 8 224 6
f 6 222 8
f 8 222 278
f 66 279 84
f 279 225 84
f 279 223 225
f 281 66 84
f 224 282 226
f 280 282 224
f 64 84 225
f 281 84 64
f 227 281 64
f 283 281 227
f 406 284 228
f 406 228 404
f 404 226 406
f 406 226 282
f 227 120 283
f 283 120 122
f 184 122 120
f 184 186 122
f 238 186 184
f 238 240 186
f 294 240 238
f 294 296 240
f 350 296 294
f 350 352 296
f 350 228 352
f 352 228 284
f 325 241 269
f 269 241 239
f 241 295 239
f 297 295 241
f 297 351 295
f 353 351 297
f 353 405 351
f 407 405 353
f 407 326 405
f 405 326 270
f 327 187 271
f 271 187 185
f 269 185 187
f 269 187 325
f 326 9 19
f 272 326 19
f 270 326 272
f 9 328 19
f 329 271 273
f 329 327 271
f 19 7 272
f 19 328 7
f 328 274 7
f 328 330 274
f 331 123 275
f 275 123 121
f 273 121 123
f 273 123 329
f 274 332 276
f 330 332 274
f 333 275 277
f 333 331 275
f 276 334 278
f 332 334 276
f 82 65 279
f 277 65 82
f 335 277 82
f 333 277 335
f 10 336 280
f 10 280 8
f 8 278 10
f 10 278 334
f 66 82 279
f 335 82 66
f 281 335 66
f 337 335 281
f 280 338 282
f 336 338 280
f 124 337 150
f 337 283 150
f 337 281 283
f 339 124 150
f 408 340 284
f 408 284 406
f 406 282 408
f 408 282 338
f 122 150 283
f 150 122 339
f 122 188 339
f 122 186 188
f 240 188 186
f 240 242 188
f 296 242 240
f 296 298 242
f 352 298 296
f 352 354 298
f 352 284 354
f 354 284 340
f 381 189 199
f 199 189 325
f 189 241 325
f 189 243 241
f 243 297 241
f 299 297 243
f 299 353 297
f 355 353 299
f 355 407 353
f 409 407 355
f 409 382 407
f 407 382 326
f 383 125 137
f 381 199 125
f 125 199 137
f 199 187 137
f 187 327 137
f 199 325 187
f 9 326 382
f 9 382 11
f 11 384 9
f 9 384 328
f 139 385 137
f 137 385 383
f 137 327 329
f 137 329 139
f 328 386 330
f 384 386 328
f 123 331 139
f 331 385 139
f 331 387 385
f 139 329 123
f 330 388 332
f 386 388 330
f 389 331 333
f 389 387 331
f 332 390 334
f 388 390 332
f 391 333 335
f 391 389 333
f 12 392 336
f 12 336 10
f 10 334 12
f 12 334 390
f 126 391 148
f 391 337 148
f 391 335 337
f 393 126 148
f 336 394 338
f 392 394 336
f 124 148 337
f 190 393 214
f 214 393 339
f 393 148 339
f 148 124 339
f 190 214 268
f 190 268 244
f 395 244 268
f 356 396 380
f 356 380 340
f 408 356 340
f 410 356 408
f 408 338 410
f 410 338 394
f 188 214 339
f 242 268 188
f 188 268 214
f 268 242 395
f 242 300 395
f 242 298 300
f 396 300 380
f 300 354 380
f 300 298 354
f 340 380 354
f 433 111 143
f 143 111 207
f 207 111 175
f 207 175 261
f 261 175 229
f 261 229 317
f 317 229 285
f 317 285 373
f 373 285 341
f 341 434 373
f 145 435 143
f 143 435 433
f 143 209 145
f 143 207 209
f 207 263 209
f 207 261 263
f 261 319 263
f 261 317 319
f 317 375 319
f 317 373 375
f 373 434 375
f 375 434 436
f 145 112 435
f 112 145 437
f 145 211 437
f 145 209 211
f 209 265 211
f 209 263 265
f 263 321 265
f 263 319 321
f 319 377 321
f 319 375 377
f 375 436 377
f 377 436 438
f 211 176 437
f 176 211 230
f 230 211 265
f 230 265 286
f 286 265 321
f 286 321 342
f 342 321 377
f 377 438 342
f 439 127 135
f 135 127 381
f 127 189 381
f 127 191 189
f 191 243 189
f 245 243 191
f 245 299 243
f 301 299 245
f 301 355 299
f 357 355 301
f 357 409 355
f 411 409 357
f 411 440 409
f 409 440 382
f 125 383 135
f 383 439 135
f 383 441 439
f 135 381 125
f 442 20 11
f 382 442 11
f 440 442 382
f 20 384 11
f 443 67 75
f 385 75 67
f 441 385 67
f 383 385 441
f 13 20 442
f 13 444 20
f 444 384 20
f 444 386 384
f 75 68 443
f 445 68 75
f 385 445 75
f 387 445 385
f 386 446 388
f 444 446 386
f 447 387 389
f 447 445 387
f 388 448 390
f 446 448 388
f 128 447 146
f 447 391 146
f 447 389 391
f 449 128 146
f 12 29 392
f 12 390 29
f 390 450 29
f 390 448 450
f 126 146 391
f 449 146 126
f 393 449 126
f 451 449 393
f 392 29 14
f 452 392 14
f 394 392 452
f 29 450 14
f 393 190 451
f 451 190 192
f 244 192 190
f 244 246 192
f 244 395 324
f 302 244 324
f 246 244 302
f 302 324 396
f 356 302 396
f 358 302 356
f 410 358 356
f 410 412 358
f 410 394 412
f 412 394 452
f 300 324 395
f 396 324 300
f 31 231 257
f 257 231 313
f 313 231 287
f 287 32 313
f 33 113 141
f 141 113 205
f 205 113 177
f 31 257 177
f 257 205 177
f 257 259 205
f 257 315 259
f 257 313 315
f 343 371 32
f 371 313 32
f 371 315 313
f 371 343 425
f 425 343 397
f 397 34 425
f 111 433 141
f 433 33 141
f 433 35 33
f 205 175 111
f 205 111 141
f 259 229 175
f 259 175 205
f 315 285 229
f 315 229 259
f 371 341 285
f 371 285 315
f 427 434 341
f 371 427 341
f 425 427 371
f 425 34 427
f 427 34 36
f 37 57 81
f 435 81 57
f 35 435 57
f 433 435 35
f 429 436 434
f 429 434 427
f 427 36 429
f 429 36 38
f 81 58 37
f 147 39 112
f 112 39 435
f 39 58 435
f 58 81 435
f 437 147 112
f 436 429 398
f 40 436 398
f 438 436 40
f 429 38 398
f 147 114 39
f 213 41 176
f 176 41 437
f 41 114 437
f 114 147 437
f 230 267 213
f 230 213 176
f 286 323 267
f 286 267 230
f 342 379 323
f 342 323 286
f 342 438 379
f 438 42 379
f 438 40 42
f 213 178 41
f 178 213 232
f 232 213 267
f 232 267 288
f 288 267 323
f 288 323 344
f 344 323 379
f 379 42 344
f 43 129 439
f 439 129 127
f 129 191 127
f 193 191 129
f 193 245 191
f 247 245 193
f 247 301 245
f 303 301 247
f 303 357 301
f 359 357 303
f 420 411 44
f 411 359 44
f 411 357 359
f 420 440 411
f 45 69 73
f 441 73 69
f 43 441 69
f 439 441 43
f 413 420 44
f 413 46 420
f 46 440 420
f 46 442 440
f 67 443 73
f 443 45 73
f 443 47 45
f 73 441 67
f 13 442 46
f 13 46 15
f 15 48 13
f 13 48 444
f 77 49 68
f 49 443 68
f 49 47 443
f 445 77 68
f 444 50 446
f 48 50 444
f 77 70 49
f 51 70 77
f 445 51 77
f 447 51 445
f 446 52 448
f 50 52 446
f 447 128 51
f 51 128 130
f 53 130 128
f 53 128 449
f 448 54 450
f 52 54 448
f 194 53 212
f 53 451 212
f 53 449 451
f 55 194 212
f 16 56 452
f 16 452 14
f 14 450 16
f 16 450 54
f 192 212 451
f 212 192 55
f 192 248 55
f 192 246 248
f 302 248 246
f 302 304 248
f 358 304 302
f 358 360 304
f 412 360 358
f 412 414 360
f 412 452 414
f 414 452 56
