# Converted from NanoShaper .vert/.face
v 8.982000 4.482000 -10.548000
v 10.900000 4.482000 -10.548000
v 8.462000 4.482000 -10.048000
v 11.323000 4.482000 -10.048000
v 8.035000 4.482000 -9.548000
v 11.686000 4.482000 -9.548000
v 7.920000 4.482000 -9.048000
v 11.815000 4.482000 -9.048000
v 8.022000 4.482000 -8.548000
v 11.702000 4.482000 -8.548000
v 8.425000 4.482000 -8.048000
v 11.447000 4.482000 -8.048000
v 9.015000 4.482000 -7.548000
v 11.164000 4.482000 -7.548000
v 9.527000 4.482000 -7.048000
v 10.716000 4.482000 -7.048000
v 9.638000 4.482000 -6.548000
v 10.719000 4.482000 -6.548000
v 9.509000 4.482000 -6.048000
v 11.079000 4.482000 -6.048000
v 9.704000 4.482000 -5.548000
v 11.372000 4.482000 -5.548000
v 10.216000 4.482000 -5.048000
v 11.664000 4.482000 -5.048000
v 10.942000 4.482000 -4.548000
v 11.334000 4.482000 -4.548000
v 6.956000 8.482000 -12.548000
v 9.106000 8.482000 -12.548000
v 6.572000 8.482000 -12.048000
v 9.656000 8.482000 -12.048000
v 6.469000 8.482000 -11.548000
v 10.187000 8.482000 -11.548000
v 6.486000 8.482000 -11.048000
v 11.303000 8.482000 -11.048000
v 6.593000 8.482000 -10.548000
v 11.835000 8.482000 -10.548000
v 6.824000 8.482000 -10.048000
v 12.259000 8.482000 -10.048000
v 7.157000 8.482000 -9.548000
v 12.375000 8.482000 -9.548000
v 7.375000 8.482000 -9.048000
v 12.385000 8.482000 -9.048000
v 7.454000 8.482000 -8.548000
v 12.378000 8.482000 -8.548000
v 7.511000 8.482000 -8.048000
v 12.353000 8.482000 -8.048000
v 7.648000 8.482000 -7.548000
v 12.367000 8.482000 -7.548000
v 7.894000 8.482000 -7.048000
v 12.377000 8.482000 -7.048000
v 7.942000 8.482000 -6.548000
v 12.278000 8.482000 -6.548000
v 7.934000 8.482000 -6.048000
v 11.868000 8.482000 -6.048000
v 8.008000 8.482000 -5.548000
v 11.275000 8.482000 -5.548000
v 8.115000 8.482000 -5.048000
v 10.959000 8.482000 -5.048000
v 8.523000 8.482000 -4.548000
v 10.773000 8.482000 -4.548000
v 9.002000 8.482000 -4.048000
v 10.345000 8.482000 -4.048000
v 8.166000 4.482000 -9.764000
v 8.166000 4.482000 -8.303000
v 8.666000 4.482000 -10.254000
v 8.666000 4.482000 -7.878000
v 9.166000 4.482000 -10.643000
v 9.166000 4.482000 -7.435000
v 9.666000 4.482000 -10.732000
v 9.666000 4.482000 -5.591000
v 10.166000 4.482000 -10.761000
v 10.166000 4.482000 -5.091000
v 10.666000 4.482000 -10.674000
v 10.666000 4.482000 -4.778000
v 11.166000 4.482000 -10.298000
v 11.166000 4.482000 -7.549000
v 11.166000 4.482000 -5.946000
v 11.166000 4.482000 -4.510000
v 11.666000 4.482000 -9.584000
v 11.666000 4.482000 -8.472000
v 6.666000 8.482000 -12.231000
v 6.666000 8.482000 -10.363000
v 7.166000 8.482000 -12.775000
v 7.166000 8.482000 -9.535000
v 7.666000 8.482000 -12.962000
v 7.666000 8.482000 -7.516000
v 8.166000 8.482000 -12.932000
v 8.166000 8.482000 -4.948000
v 8.666000 8.482000 -12.816000
v 8.666000 8.482000 -4.382000
v 9.166000 8.482000 -12.490000
v 9.166000 8.482000 -3.956000
v 9.666000 8.482000 -12.039000
v 9.666000 8.482000 -3.844000
v 10.166000 8.482000 -11.563000
v 10.166000 8.482000 -3.949000
v 10.666000 8.482000 -11.298000
v 10.666000 8.482000 -4.360000
v 11.166000 8.482000 -11.121000
v 11.166000 8.482000 -5.376000
v 11.666000 8.482000 -10.708000
v 11.666000 8.482000 -5.924000
v 12.166000 8.482000 -10.214000
v 12.166000 8.482000 -6.347000
v 5.166000 9.263000 -12.548000
v 5.166000 11.737000 -12.548000
v 5.666000 8.915000 -12.548000
v 5.666000 12.080000 -12.548000
v 6.166000 8.789000 -12.548000
v 6.166000 12.182000 -12.548000
v 6.666000 8.633000 -12.548000
v 6.666000 12.098000 -12.548000
v 7.166000 8.325000 -12.548000
v 7.166000 11.784000 -12.548000
v 7.666000 7.898000 -12.548000
v 7.666000 11.224000 -12.548000
v 8.166000 7.748000 -12.548000
v 8.166000 10.466000 -12.548000
v 8.666000 7.882000 -12.548000
v 8.666000 9.592000 -12.548000
v 7.666000 5.698000 -8.548000
v 7.666000 8.786000 -8.548000
v 8.166000 4.295000 -8.548000
v 8.166000 9.577000 -8.548000
v 8.666000 3.858000 -8.548000
v 8.666000 9.961000 -8.548000
v 9.166000 3.497000 -8.548000
v 9.166000 10.115000 -8.548000
v 9.666000 3.397000 -8.548000
v 9.666000 10.179000 -8.548000
v 10.166000 3.394000 -8.548000
v 10.166000 10.133000 -8.548000
v 10.666000 3.507000 -8.548000
v 10.666000 10.042000 -8.548000
v 11.166000 3.895000 -8.548000
v 11.166000 9.717000 -8.548000
v 11.666000 4.432000 -8.548000
v 11.666000 9.274000 -8.548000
v 12.166000 4.977000 -8.548000
v 12.166000 8.751000 -8.548000
v 12.666000 6.322000 -8.548000
v 12.666000 8.109000 -8.548000
v 8.666000 6.794000 -4.548000
v 8.666000 8.626000 -4.548000
v 9.166000 6.170000 -4.548000
v 9.166000 9.051000 -4.548000
v 9.666000 5.377000 -4.548000
v 9.666000 9.177000 -4.548000
v 10.166000 4.843000 -4.548000
v 10.166000 9.041000 -4.548000
v 10.666000 4.555000 -4.548000
v 10.666000 8.628000 -4.548000
v 11.166000 4.468000 -4.548000
v 11.166000 7.620000 -4.548000
v 11.666000 4.578000 -4.548000
v 11.666000 7.068000 -4.548000
v 12.166000 4.963000 -4.548000
v 12.166000 6.596000 -4.548000
v 8.565000 4.982000 -10.548000
v 11.306000 4.982000 -10.548000
v 8.083000 4.982000 -10.048000
v 11.816000 4.982000 -10.048000
v 7.844000 4.982000 -9.548000
v 12.211000 4.982000 -9.548000
v 7.745000 4.982000 -9.048000
v 12.304000 4.982000 -9.048000
v 7.833000 4.982000 -8.548000
v 12.169000 4.982000 -8.548000
v 8.052000 4.982000 -8.048000
v 11.930000 4.982000 -8.048000
v 8.315000 4.982000 -7.548000
v 11.807000 4.982000 -7.548000
v 8.463000 4.982000 -7.048000
v 11.581000 4.982000 -7.048000
v 8.575000 4.982000 -6.548000
v 11.545000 4.982000 -6.548000
v 8.773000 4.982000 -6.048000
v 11.781000 4.982000 -6.048000
v 9.086000 4.982000 -5.548000
v 12.169000 4.982000 -5.548000
v 9.496000 4.982000 -5.048000
v 12.289000 4.982000 -5.048000
v 10.001000 4.982000 -4.548000
v 12.180000 4.982000 -4.548000
v 10.549000 4.982000 -4.048000
v 11.728000 4.982000 -4.048000
v 6.126000 8.982000 -14.048000
v 7.151000 8.982000 -14.048000
v 5.855000 8.982000 -13.548000
v 7.548000 8.982000 -13.548000
v 5.591000 8.982000 -13.048000
v 8.237000 8.982000 -13.048000
v 5.525000 8.982000 -12.548000
v 9.089000 8.982000 -12.548000
v 5.693000 8.982000 -12.048000
v 9.646000 8.982000 -12.048000
v 5.917000 8.982000 -11.548000
v 10.096000 8.982000 -11.548000
v 6.060000 8.982000 -11.048000
v 10.660000 8.982000 -11.048000
v 6.320000 8.982000 -10.548000
v 11.194000 8.982000 -10.548000
v 6.722000 8.982000 -10.048000
v 11.569000 8.982000 -10.048000
v 7.184000 8.982000 -9.548000
v 11.801000 8.982000 -9.548000
v 7.543000 8.982000 -9.048000
v 11.861000 8.982000 -9.048000
v 7.823000 8.982000 -8.548000
v 11.923000 8.982000 -8.548000
v 7.988000 8.982000 -8.048000
v 11.870000 8.982000 -8.048000
v 8.319000 8.982000 -7.548000
v 11.886000 8.982000 -7.548000
v 8.498000 8.982000 -7.048000
v 11.897000 8.982000 -7.048000
v 8.452000 8.982000 -6.548000
v 11.766000 8.982000 -6.548000
v 8.400000 8.982000 -6.048000
v 11.321000 8.982000 -6.048000
v 8.483000 8.982000 -5.548000
v 10.910000 8.982000 -5.548000
v 8.606000 8.982000 -5.048000
v 10.697000 8.982000 -5.048000
v 9.052000 8.982000 -4.548000
v 10.265000 8.982000 -4.548000
v 8.166000 4.982000 -10.179000
v 8.166000 4.982000 -7.840000
v 8.666000 4.982000 -10.626000
v 8.666000 4.982000 -6.206000
v 9.166000 4.982000 -10.883000
v 9.166000 4.982000 -5.416000
v 9.666000 4.982000 -10.925000
v 9.666000 4.982000 -4.858000
v 10.166000 4.982000 -10.934000
v 10.166000 4.982000 -4.401000
v 10.666000 4.982000 -10.859000
v 10.666000 4.982000 -3.987000
v 11.166000 4.982000 -10.628000
v 11.166000 4.982000 -3.885000
v 11.666000 4.982000 -10.224000
v 11.666000 4.982000 -7.256000
v 11.666000 4.982000 -6.213000
v 11.666000 4.982000 -4.013000
v 12.166000 4.982000 -9.641000
v 12.166000 4.982000 -8.541000
v 12.166000 4.982000 -5.555000
v 12.166000 4.982000 -4.517000
v 5.666000 8.982000 -13.316000
v 5.666000 8.982000 -12.088000
v 6.166000 8.982000 -14.087000
v 6.166000 8.982000 -10.855000
v 6.666000 8.982000 -14.271000
v 6.666000 8.982000 -10.102000
v 7.166000 8.982000 -14.031000
v 7.166000 8.982000 -9.572000
v 7.666000 8.982000 -13.441000
v 7.666000 8.982000 -8.870000
v 8.166000 8.982000 -13.090000
v 8.166000 8.982000 -7.755000
v 8.666000 8.982000 -12.814000
v 8.666000 8.982000 -4.938000
v 9.166000 8.982000 -12.475000
v 9.166000 8.982000 -4.476000
v 9.666000 8.982000 -12.029000
v 9.666000 8.982000 -4.329000
v 10.166000 8.982000 -11.478000
v 10.166000 8.982000 -4.480000
v 10.666000 8.982000 -11.044000
v 10.666000 8.982000 -4.986000
v 11.166000 8.982000 -10.589000
v 11.166000 8.982000 -5.877000
v 11.666000 8.982000 -9.945000
v 11.666000 8.982000 -6.390000
v 5.166000 9.377000 -12.048000
v 5.166000 11.677000 -12.048000
v 5.666000 8.995000 -12.048000
v 5.666000 12.012000 -12.048000
v 6.166000 8.754000 -12.048000
v 6.166000 12.113000 -12.048000
v 6.666000 8.403000 -12.048000
v 6.666000 12.026000 -12.048000
v 7.166000 7.890000 -12.048000
v 7.166000 11.697000 -12.048000
v 7.666000 7.509000 -12.048000
v 7.666000 11.207000 -12.048000
v 8.166000 7.374000 -12.048000
v 8.166000 10.577000 -12.048000
v 8.666000 7.414000 -12.048000
v 8.666000 10.126000 -12.048000
v 9.166000 7.775000 -12.048000
v 9.166000 9.603000 -12.048000
v 7.666000 5.713000 -8.048000
v 7.666000 8.673000 -8.048000
v 8.166000 4.803000 -8.048000
v 8.166000 9.145000 -8.048000
v 8.666000 4.293000 -8.048000
v 8.666000 9.695000 -8.048000
v 9.166000 3.827000 -8.048000
v 9.166000 10.021000 -8.048000
v 9.666000 3.695000 -8.048000
v 9.666000 10.110000 -8.048000
v 10.166000 3.704000 -8.048000
v 10.166000 10.152000 -8.048000
v 10.666000 3.857000 -8.048000
v 10.666000 10.062000 -8.048000
v 11.166000 4.256000 -8.048000
v 11.166000 9.739000 -8.048000
v 11.666000 4.676000 -8.048000
v 11.666000 9.186000 -8.048000
v 12.166000 5.569000 -8.048000
v 12.166000 8.731000 -8.048000
v 12.666000 6.983000 -8.048000
v 12.666000 7.746000 -8.048000
v 9.166000 6.954000 -4.048000
v 9.166000 8.608000 -4.048000
v 9.666000 6.471000 -4.048000
v 9.666000 8.752000 -4.048000
v 10.166000 5.422000 -4.048000
v 10.166000 8.618000 -4.048000
v 10.666000 4.908000 -4.048000
v 10.666000 7.713000 -4.048000
v 11.166000 4.788000 -4.048000
v 11.166000 7.023000 -4.048000
v 11.666000 4.939000 -4.048000
v 11.666000 6.619000 -4.048000
v 8.583000 5.482000 -11.048000
v 9.929000 5.482000 -11.048000
v 8.111000 5.482000 -10.548000
v 11.840000 5.482000 -10.548000
v 7.864000 5.482000 -10.048000
v 12.261000 5.482000 -10.048000
v 7.758000 5.482000 -9.548000
v 12.442000 5.482000 -9.548000
v 7.746000 5.482000 -9.048000
v 12.518000 5.482000 -9.048000
v 7.731000 5.482000 -8.548000
v 12.406000 5.482000 -8.548000
v 7.799000 5.482000 -8.048000
v 12.150000 5.482000 -8.048000
v 7.891000 5.482000 -7.548000
v 12.013000 5.482000 -7.548000
v 7.933000 5.482000 -7.048000
v 11.861000 5.482000 -7.048000
v 7.938000 5.482000 -6.548000
v 11.869000 5.482000 -6.548000
v 8.074000 5.482000 -6.048000
v 12.096000 5.482000 -6.048000
v 8.520000 5.482000 -5.548000
v 12.407000 5.482000 -5.548000
v 9.059000 5.482000 -5.048000
v 12.506000 5.482000 -5.048000
v 9.561000 5.482000 -4.548000
v 12.416000 5.482000 -4.548000
v 10.105000 5.482000 -4.048000
v 12.084000 5.482000 -4.048000
v 5.930000 9.482000 -14.548000
v 7.346000 9.482000 -14.548000
v 5.510000 9.482000 -14.048000
v 7.745000 9.482000 -14.048000
v 5.120000 9.482000 -13.548000
v 7.953000 9.482000 -13.548000
v 5.000000 9.482000 -13.048000
v 8.263000 9.482000 -13.048000
v 5.000000 9.482000 -12.548000
v 8.758000 9.482000 -12.548000
v 5.089000 9.482000 -12.048000
v 9.317000 9.482000 -12.048000
v 5.329000 9.482000 -11.548000
v 9.787000 9.482000 -11.548000
v 5.449000 9.482000 -11.048000
v 10.271000 9.482000 -11.048000
v 5.690000 9.482000 -10.548000
v 10.716000 9.482000 -10.548000
v 6.466000 9.482000 -10.048000
v 10.854000 9.482000 -10.048000
v 7.203000 9.482000 -9.548000
v 10.939000 9.482000 -9.548000
v 7.802000 9.482000 -9.048000
v 11.254000 9.482000 -9.048000
v 8.097000 9.482000 -8.548000
v 11.402000 9.482000 -8.548000
v 8.480000 9.482000 -8.048000
v 11.376000 9.482000 -8.048000
v 8.824000 9.482000 -7.548000
v 11.346000 9.482000 -7.548000
v 9.103000 9.482000 -7.048000
v 11.296000 9.482000 -7.048000
v 9.101000 9.482000 -6.548000
v 11.007000 9.482000 -6.548000
v 8.929000 9.482000 -6.048000
v 10.557000 9.482000 -6.048000
v 9.077000 9.482000 -5.548000
v 10.211000 9.482000 -5.548000
v 9.413000 9.482000 -5.048000
v 9.890000 9.482000 -5.048000
v 8.166000 5.482000 -10.644000
v 8.166000 5.482000 -5.905000
v 8.666000 5.482000 -11.091000
v 8.666000 5.482000 -5.424000
v 9.166000 5.482000 -11.204000
v 9.166000 5.482000 -4.943000
v 9.666000 5.482000 -11.117000
v 9.666000 5.482000 -4.452000
v 10.166000 5.482000 -10.983000
v 10.166000 5.482000 -4.011000
v 10.666000 5.482000 -10.907000
v 10.666000 5.482000 -3.752000
v 11.166000 5.482000 -10.826000
v 11.166000 5.482000 -3.668000
v 11.666000 5.482000 -10.644000
v 11.666000 5.482000 -3.773000
v 12.166000 5.482000 -10.222000
v 12.166000 5.482000 -8.087000
v 12.166000 5.482000 -5.947000
v 12.166000 5.482000 -4.132000
v 5.166000 9.482000 -13.631000
v 5.166000 9.482000 -11.892000
v 5.666000 9.482000 -14.284000
v 5.666000 9.482000 -10.572000
v 6.166000 9.482000 -14.681000
v 6.166000 9.482000 -10.205000
v 6.666000 9.482000 -14.777000
v 6.666000 9.482000 -9.935000
v 7.166000 9.482000 -14.656000
v 7.166000 9.482000 -9.576000
v 7.666000 9.482000 -14.202000
v 7.666000 9.482000 -9.191000
v 8.166000 9.482000 -13.181000
v 8.166000 9.482000 -8.426000
v 8.666000 9.482000 -12.626000
v 8.666000 9.482000 -7.765000
v 9.166000 9.482000 -12.170000
v 9.166000 9.482000 -5.284000
v 9.666000 9.482000 -11.709000
v 9.666000 9.482000 -4.994000
v 10.166000 9.482000 -11.145000
v 10.166000 9.482000 -5.344000
v 10.666000 9.482000 -10.640000
v 10.666000 9.482000 -6.144000
v 11.166000 9.482000 -9.172000
v 11.166000 9.482000 -6.686000
v 5.166000 9.657000 -11.548000
v 5.166000 11.667000 -11.548000
v 5.666000 9.231000 -11.548000
v 5.666000 12.007000 -11.548000
v 6.166000 8.729000 -11.548000
v 6.166000 12.107000 -11.548000
v 6.666000 8.292000 -11.548000
v 6.666000 12.022000 -11.548000
v 7.166000 7.718000 -11.548000
v 7.166000 11.706000 -11.548000
v 7.666000 7.263000 -11.548000
v 7.666000 11.276000 -11.548000
v 8.166000 6.866000 -11.548000
v 8.166000 10.688000 -11.548000
v 8.666000 6.684000 -11.548000
v 8.666000 10.273000 -11.548000
v 9.166000 6.787000 -11.548000
v 9.166000 9.939000 -11.548000
v 9.666000 7.284000 -11.548000
v 9.666000 9.605000 -11.548000
v 10.166000 7.812000 -11.548000
v 10.166000 8.607000 -11.548000
v 7.666000 5.703000 -7.548000
v 7.666000 8.505000 -7.548000
v 8.166000 5.139000 -7.548000
v 8.166000 8.889000 -7.548000
v 8.666000 4.727000 -7.548000
v 8.666000 9.301000 -7.548000
v 9.166000 4.390000 -7.548000
v 9.166000 9.722000 -7.548000
v 9.666000 4.187000 -7.548000
v 9.666000 9.954000 -7.548000
v 10.166000 4.164000 -7.548000
v 10.166000 10.057000 -7.548000
v 10.666000 4.278000 -7.548000
v 10.666000 9.960000 -7.548000
v 11.166000 4.483000 -7.548000
v 11.166000 9.628000 -7.548000
v 11.666000 4.808000 -7.548000
v 11.666000 9.212000 -7.548000
v 12.166000 6.544000 -7.548000
v 12.166000 8.745000 -7.548000
v 8.252000 5.982000 -11.048000
v 10.354000 5.982000 -11.048000
v 7.893000 5.982000 -10.548000
v 12.160000 5.982000 -10.548000
v 7.759000 5.982000 -10.048000
v 12.486000 5.982000 -10.048000
v 7.690000 5.982000 -9.548000
v 12.583000 5.982000 -9.548000
v 7.686000 5.982000 -9.048000
v 12.626000 5.982000 -9.048000
v 7.558000 5.982000 -8.548000
v 12.503000 5.982000 -8.548000
v 7.472000 5.982000 -8.048000
v 12.220000 5.982000 -8.048000
v 7.452000 5.982000 -7.548000
v 12.035000 5.982000 -7.548000
v 7.501000 5.982000 -7.048000
v 11.934000 5.982000 -7.048000
v 7.451000 5.982000 -6.548000
v 11.959000 5.982000 -6.548000
v 7.550000 5.982000 -6.048000
v 12.154000 5.982000 -6.048000
v 7.952000 5.982000 -5.548000
v 12.426000 5.982000 -5.548000
v 8.581000 5.982000 -5.048000
v 12.524000 5.982000 -5.048000
v 9.252000 5.982000 -4.548000
v 12.435000 5.982000 -4.548000
v 9.792000 5.982000 -4.048000
v 12.109000 5.982000 -4.048000
v 5.504000 9.982000 -14.548000
v 7.620000 9.982000 -14.548000
v 5.097000 9.982000 -14.048000
v 7.938000 9.982000 -14.048000
v 4.892000 9.982000 -13.548000
v 8.044000 9.982000 -13.548000
v 4.792000 9.982000 -13.048000
v 8.181000 9.982000 -13.048000
v 4.815000 9.982000 -12.548000
v 8.442000 9.982000 -12.548000
v 4.887000 9.982000 -12.048000
v 8.781000 9.982000 -12.048000
v 4.970000 9.982000 -11.548000
v 9.082000 9.982000 -11.548000
v 4.947000 9.982000 -11.048000
v 9.410000 9.982000 -11.048000
v 5.071000 9.982000 -10.548000
v 10.055000 9.982000 -10.548000
v 5.531000 9.982000 -10.048000
v 10.310000 9.982000 -10.048000
v 7.505000 9.982000 -9.548000
v 10.236000 9.982000 -9.548000
v 8.367000 9.982000 -9.048000
v 10.502000 9.982000 -9.048000
v 8.718000 9.982000 -8.548000
v 10.802000 9.982000 -8.548000
v 9.072000 9.982000 -8.048000
v 10.841000 9.982000 -8.048000
v 9.737000 9.982000 -7.548000
v 10.608000 9.982000 -7.548000
v 7.666000 5.982000 -8.919000
v 7.666000 5.982000 -5.840000
v 8.166000 5.982000 -10.963000
v 8.166000 5.982000 -5.390000
v 8.666000 5.982000 -11.303000
v 8.666000 5.982000 -5.003000
v 9.166000 5.982000 -11.399000
v 9.166000 5.982000 -4.631000
v 9.666000 5.982000 -11.308000
v 9.666000 5.982000 -4.174000
v 10.166000 5.982000 -11.106000
v 10.166000 5.982000 -3.814000
v 10.666000 5.982000 -10.967000
v 10.666000 5.982000 -3.698000
v 11.166000 5.982000 -10.948000
v 11.166000 5.982000 -3.651000
v 11.666000 5.982000 -10.863000
v 11.666000 5.982000 -3.755000
v 12.166000 5.982000 -10.542000
v 12.166000 5.982000 -7.902000
v 12.166000 5.982000 -6.026000
v 12.166000 5.982000 -4.106000
v 5.166000 9.982000 -14.182000
v 5.166000 9.982000 -10.389000
v 5.666000 9.982000 -14.647000
v 5.666000 9.982000 -9.978000
v 6.166000 9.982000 -14.873000
v 6.166000 9.982000 -9.867000
v 6.666000 9.982000 -14.956000
v 6.666000 9.982000 -9.789000
v 7.166000 9.982000 -14.852000
v 7.166000 9.982000 -9.663000
v 7.666000 9.982000 -14.500000
v 7.666000 9.982000 -9.484000
v 8.166000 9.982000 -13.089000
v 8.166000 9.982000 -9.221000
v 8.666000 9.982000 -12.242000
v 8.666000 9.982000 -8.598000
v 9.166000 9.982000 -11.416000
v 9.166000 9.982000 -7.954000
v 9.666000 9.982000 -10.778000
v 9.666000 9.982000 -7.619000
v 10.166000 9.982000 -10.438000
v 10.166000 9.982000 -7.386000
v 10.666000 9.982000 -8.897000
v 10.666000 9.982000 -7.603000
v 5.166000 9.700000 -11.048000
v 5.166000 11.683000 -11.048000
v 5.666000 9.347000 -11.048000
v 5.666000 12.003000 -11.048000
v 6.166000 8.850000 -11.048000
v 6.166000 12.091000 -11.048000
v 6.666000 8.253000 -11.048000
v 6.666000 11.994000 -11.048000
v 7.166000 7.433000 -11.048000
v 7.166000 11.658000 -11.048000
v 7.666000 6.850000 -11.048000
v 7.666000 11.146000 -11.048000
v 8.166000 6.198000 -11.048000
v 8.166000 10.715000 -11.048000
v 8.666000 5.424000 -11.048000
v 8.666000 10.429000 -11.048000
v 9.166000 5.262000 -11.048000
v 9.166000 10.105000 -11.048000
v 9.666000 5.336000 -11.048000
v 9.666000 9.891000 -11.048000
v 10.166000 5.820000 -11.048000
v 10.166000 9.579000 -11.048000
v 10.666000 6.310000 -11.048000
v 10.666000 8.977000 -11.048000
v 11.166000 6.791000 -11.048000
v 11.166000 8.583000 -11.048000
v 7.666000 5.764000 -7.048000
v 7.666000 8.005000 -7.048000
v 8.166000 5.202000 -7.048000
v 8.166000 8.752000 -7.048000
v 8.666000 4.883000 -7.048000
v 8.666000 9.111000 -7.048000
v 9.166000 4.687000 -7.048000
v 9.166000 9.513000 -7.048000
v 9.666000 4.426000 -7.048000
v 9.666000 9.723000 -7.048000
v 10.166000 4.357000 -7.048000
v 10.166000 9.782000 -7.048000
v 10.666000 4.459000 -7.048000
v 10.666000 9.697000 -7.048000
v 11.166000 4.667000 -7.048000
v 11.166000 9.540000 -7.048000
v 11.666000 5.079000 -7.048000
v 11.666000 9.230000 -7.048000
v 12.166000 6.684000 -7.048000
v 12.166000 8.749000 -7.048000
v 7.989000 6.482000 -11.048000
v 10.941000 6.482000 -11.048000
v 7.624000 6.482000 -10.548000
v 12.353000 6.482000 -10.548000
v 7.524000 6.482000 -10.048000
v 12.762000 6.482000 -10.048000
v 7.477000 6.482000 -9.548000
v 12.872000 6.482000 -9.548000
v 7.461000 6.482000 -9.048000
v 12.903000 6.482000 -9.048000
v 7.368000 6.482000 -8.548000
v 12.778000 6.482000 -8.548000
v 7.282000 6.482000 -8.048000
v 12.402000 6.482000 -8.048000
v 7.278000 6.482000 -7.548000
v 12.141000 6.482000 -7.548000
v 7.320000 6.482000 -7.048000
v 12.081000 6.482000 -7.048000
v 7.275000 6.482000 -6.548000
v 12.078000 6.482000 -6.548000
v 7.361000 6.482000 -6.048000
v 12.185000 6.482000 -6.048000
v 7.682000 6.482000 -5.548000
v 12.285000 6.482000 -5.548000
v 8.245000 6.482000 -5.048000
v 12.349000 6.482000 -5.048000
v 8.912000 6.482000 -4.548000
v 12.246000 6.482000 -4.548000
v 9.660000 6.482000 -4.048000
v 11.838000 6.482000 -4.048000
v 5.203000 10.482000 -14.548000
v 7.601000 10.482000 -14.548000
v 4.888000 10.482000 -14.048000
v 7.923000 10.482000 -14.048000
v 4.804000 10.482000 -13.548000
v 8.017000 10.482000 -13.548000
v 4.763000 10.482000 -13.048000
v 8.096000 10.482000 -13.048000
v 4.804000 10.482000 -12.548000
v 8.156000 10.482000 -12.548000
v 4.784000 10.482000 -12.048000
v 8.269000 10.482000 -12.048000
v 4.803000 10.482000 -11.548000
v 8.389000 10.482000 -11.548000
v 4.770000 10.482000 -11.048000
v 8.557000 10.482000 -11.048000
v 4.876000 10.482000 -10.548000
v 8.763000 10.482000 -10.548000
v 5.233000 10.482000 -10.048000
v 8.494000 10.482000 -10.048000
v 7.666000 6.482000 -10.633000
v 7.666000 6.482000 -5.564000
v 8.166000 6.482000 -11.219000
v 8.166000 6.482000 -5.124000
v 8.666000 6.482000 -11.446000
v 8.666000 6.482000 -4.747000
v 9.166000 6.482000 -11.461000
v 9.166000 6.482000 -4.390000
v 9.666000 6.482000 -11.409000
v 9.666000 6.482000 -4.044000
v 10.166000 6.482000 -11.298000
v 10.166000 6.482000 -3.813000
v 10.666000 6.482000 -11.108000
v 10.666000 6.482000 -3.715000
v 11.166000 6.482000 -10.997000
v 11.166000 6.482000 -3.786000
v 11.666000 6.482000 -10.885000
v 11.666000 6.482000 -3.946000
v 12.166000 6.482000 -10.676000
v 12.166000 6.482000 -7.627000
v 12.166000 6.482000 -6.130000
v 12.166000 6.482000 -4.395000
v 12.666000 6.482000 -10.218000
v 12.666000 6.482000 -8.365000
v 5.166000 10.482000 -14.508000
v 5.166000 10.482000 -10.112000
v 5.666000 10.482000 -14.856000
v 5.666000 10.482000 -9.787000
v 6.166000 10.482000 -14.957000
v 6.166000 10.482000 -9.698000
v 6.666000 10.482000 -14.945000
v 6.666000 10.482000 -9.759000
v 7.166000 10.482000 -14.838000
v 7.166000 10.482000 -9.831000
v 7.666000 10.482000 -14.480000
v 7.666000 10.482000 -9.896000
v 8.166000 10.482000 -12.483000
v 8.166000 10.482000 -9.945000
v 8.666000 10.482000 -10.881000
v 8.666000 10.482000 -10.221000
v 5.666000 9.826000 -14.548000
v 5.666000 11.598000 -14.548000
v 6.166000 9.308000 -14.548000
v 6.166000 11.741000 -14.548000
v 6.666000 9.191000 -14.548000
v 6.666000 11.619000 -14.548000
v 7.166000 9.340000 -14.548000
v 7.166000 11.088000 -14.548000
v 5.166000 9.856000 -10.548000
v 5.166000 11.527000 -10.548000
v 5.666000 9.493000 -10.548000
v 5.666000 11.890000 -10.548000
v 6.166000 9.167000 -10.548000
v 6.166000 11.985000 -10.548000
v 6.666000 8.328000 -10.548000
v 6.666000 11.880000 -10.548000
v 7.166000 7.259000 -10.548000
v 7.166000 11.498000 -10.548000
v 7.666000 6.424000 -10.548000
v 7.666000 10.913000 -10.548000
v 8.166000 5.402000 -10.548000
v 8.166000 10.665000 -10.548000
v 8.666000 4.878000 -10.548000
v 8.666000 10.524000 -10.548000
v 9.166000 4.357000 -10.548000
v 9.166000 10.248000 -10.548000
v 9.666000 4.245000 -10.548000
v 9.666000 10.065000 -10.548000
v 10.166000 4.202000 -10.548000
v 10.166000 9.939000 -10.548000
v 10.666000 4.312000 -10.548000
v 10.666000 9.551000 -10.548000
v 11.166000 4.838000 -10.548000
v 11.166000 9.006000 -10.548000
v 11.666000 5.351000 -10.548000
v 11.666000 8.635000 -10.548000
v 12.166000 6.004000 -10.548000
v 12.166000 8.092000 -10.548000
v 7.666000 5.702000 -6.548000
v 7.666000 7.764000 -6.548000
v 8.166000 5.275000 -6.548000
v 8.166000 8.753000 -6.548000
v 8.666000 4.943000 -6.548000
v 8.666000 9.160000 -6.548000
v 9.166000 4.758000 -6.548000
v 9.166000 9.510000 -6.548000
v 9.666000 4.470000 -6.548000
v 9.666000 9.639000 -6.548000
v 10.166000 4.371000 -6.548000
v 10.166000 9.633000 -6.548000
v 10.666000 4.461000 -6.548000
v 10.666000 9.561000 -6.548000
v 11.166000 4.683000 -6.548000
v 11.166000 9.433000 -6.548000
v 11.666000 5.116000 -6.548000
v 11.666000 9.093000 -6.548000
v 12.166000 6.698000 -6.548000
v 12.166000 8.627000 -6.548000
v 8.004000 6.982000 -11.548000
v 9.428000 6.982000 -11.548000
v 7.569000 6.982000 -11.048000
v 11.330000 6.982000 -11.048000
v 7.361000 6.982000 -10.548000
v 12.632000 6.982000 -10.548000
v 7.315000 6.982000 -10.048000
v 12.967000 6.982000 -10.048000
v 7.266000 6.982000 -9.548000
v 13.061000 6.982000 -9.548000
v 7.279000 6.982000 -9.048000
v 13.093000 6.982000 -9.048000
v 7.295000 6.982000 -8.548000
v 12.988000 6.982000 -8.548000
v 7.275000 6.982000 -8.048000
v 12.665000 6.982000 -8.048000
v 7.294000 6.982000 -7.548000
v 12.417000 6.982000 -7.548000
v 7.318000 6.982000 -7.048000
v 12.352000 6.982000 -7.048000
v 7.292000 6.982000 -6.548000
v 12.295000 6.982000 -6.548000
v 7.379000 6.982000 -6.048000
v 12.204000 6.982000 -6.048000
v 7.675000 6.982000 -5.548000
v 12.084000 6.982000 -5.548000
v 8.027000 6.982000 -5.048000
v 11.976000 6.982000 -5.048000
v 8.458000 6.982000 -4.548000
v 11.746000 6.982000 -4.548000
v 9.122000 6.982000 -4.048000
v 11.230000 6.982000 -4.048000
v 5.204000 10.982000 -14.548000
v 7.266000 10.982000 -14.548000
v 4.889000 10.982000 -14.048000
v 7.694000 10.982000 -14.048000
v 4.807000 10.982000 -13.548000
v 7.812000 10.982000 -13.548000
v 4.760000 10.982000 -13.048000
v 7.904000 10.982000 -13.048000
v 4.803000 10.982000 -12.548000
v 7.851000 10.982000 -12.548000
v 4.796000 10.982000 -12.048000
v 7.854000 10.982000 -12.048000
v 4.812000 10.982000 -11.548000
v 7.906000 10.982000 -11.548000
v 4.784000 10.982000 -11.048000
v 7.833000 10.982000 -11.048000
v 4.893000 10.982000 -10.548000
v 7.581000 10.982000 -10.548000
v 5.256000 10.982000 -10.048000
v 7.099000 10.982000 -10.048000
v 7.666000 6.982000 -11.214000
v 7.666000 6.982000 -5.562000
v 8.166000 6.982000 -11.636000
v 8.166000 6.982000 -4.850000
v 8.666000 6.982000 -11.737000
v 8.666000 6.982000 -4.411000
v 9.166000 6.982000 -11.635000
v 9.166000 6.982000 -4.025000
v 9.666000 6.982000 -11.471000
v 9.666000 6.982000 -3.869000
v 10.166000 6.982000 -11.398000
v 10.166000 6.982000 -3.822000
v 10.666000 6.982000 -11.301000
v 10.666000 6.982000 -3.868000
v 11.166000 6.982000 -11.110000
v 11.166000 6.982000 -4.017000
v 11.666000 6.982000 -10.947000
v 11.666000 6.982000 -4.425000
v 12.166000 6.982000 -10.840000
v 12.166000 6.982000 -5.871000
v 12.666000 6.982000 -10.515000
v 12.666000 6.982000 -8.048000
v 5.166000 10.982000 -14.507000
v 5.166000 10.982000 -10.134000
v 5.666000 10.982000 -14.855000
v 5.666000 10.982000 -9.802000
v 6.166000 10.982000 -14.956000
v 6.166000 10.982000 -9.712000
v 6.666000 10.982000 -14.869000
v 6.666000 10.982000 -9.812000
v 7.166000 10.982000 -14.614000
v 7.166000 10.982000 -10.093000
v 7.666000 10.982000 -14.107000
v 7.666000 10.982000 -10.736000
v 5.166000 9.887000 -14.048000
v 5.166000 11.569000 -14.048000
v 5.666000 9.305000 -14.048000
v 5.666000 11.943000 -14.048000
v 6.166000 8.966000 -14.048000
v 6.166000 12.049000 -14.048000
v 6.666000 8.878000 -14.048000
v 6.666000 11.958000 -14.048000
v 7.166000 8.988000 -14.048000
v 7.166000 11.611000 -14.048000
v 7.666000 9.371000 -14.048000
v 7.666000 11.019000 -14.048000
v 5.666000 9.884000 -10.048000
v 5.666000 11.499000 -10.048000
v 6.166000 9.692000 -10.048000
v 6.166000 11.635000 -10.048000
v 6.666000 9.147000 -10.048000
v 6.666000 11.484000 -10.048000
v 7.166000 7.294000 -10.048000
v 7.166000 10.909000 -10.048000
v 7.666000 6.219000 -10.048000
v 7.666000 10.618000 -10.048000
v 8.166000 4.857000 -10.048000
v 8.166000 10.530000 -10.048000
v 8.666000 4.295000 -10.048000
v 8.666000 10.423000 -10.048000
v 9.166000 3.932000 -10.048000
v 9.166000 10.223000 -10.048000
v 9.666000 3.796000 -10.048000
v 9.666000 10.151000 -10.048000
v 10.166000 3.764000 -10.048000
v 10.166000 10.050000 -10.048000
v 10.666000 3.907000 -10.048000
v 10.666000 9.708000 -10.048000
v 11.166000 4.287000 -10.048000
v 11.166000 9.198000 -10.048000
v 11.666000 4.837000 -10.048000
v 11.666000 8.946000 -10.048000
v 12.166000 5.358000 -10.048000
v 12.166000 8.598000 -10.048000
v 12.666000 6.346000 -10.048000
v 12.666000 8.078000 -10.048000
v 7.666000 5.827000 -6.048000
v 7.666000 7.685000 -6.048000
v 8.166000 5.396000 -6.048000
v 8.166000 8.767000 -6.048000
v 8.666000 5.032000 -6.048000
v 8.666000 9.285000 -6.048000
v 9.166000 4.736000 -6.048000
v 9.166000 9.590000 -6.048000
v 9.666000 4.406000 -6.048000
v 9.666000 9.669000 -6.048000
v 10.166000 4.300000 -6.048000
v 10.166000 9.581000 -6.048000
v 10.666000 4.368000 -6.048000
v 10.666000 9.446000 -6.048000
v 11.166000 4.518000 -6.048000
v 11.166000 9.127000 -6.048000
v 11.666000 4.884000 -6.048000
v 11.666000 8.635000 -6.048000
v 12.166000 6.222000 -6.048000
v 12.166000 7.945000 -6.048000
v 9.325000 3.482000 -9.548000
v 10.538000 3.482000 -9.548000
v 9.023000 3.482000 -9.048000
v 10.798000 3.482000 -9.048000
v 9.203000 3.482000 -8.548000
v 10.605000 3.482000 -8.548000
v 7.734000 7.482000 -12.048000
v 8.821000 7.482000 -12.048000
v 7.420000 7.482000 -11.548000
v 9.933000 7.482000 -11.548000
v 7.128000 7.482000 -11.048000
v 11.641000 7.482000 -11.048000
v 6.994000 7.482000 -10.548000
v 12.624000 7.482000 -10.548000
v 7.069000 7.482000 -10.048000
v 12.961000 7.482000 -10.048000
v 7.196000 7.482000 -9.548000
v 13.055000 7.482000 -9.548000
v 7.277000 7.482000 -9.048000
v 13.089000 7.482000 -9.048000
v 7.272000 7.482000 -8.548000
v 12.983000 7.482000 -8.548000
v 7.281000 7.482000 -8.048000
v 12.710000 7.482000 -8.048000
v 7.371000 7.482000 -7.548000
v 12.563000 7.482000 -7.548000
v 7.467000 7.482000 -7.048000
v 12.557000 7.482000 -7.048000
v 7.507000 7.482000 -6.548000
v 12.471000 7.482000 -6.548000
v 7.587000 7.482000 -6.048000
v 12.199000 7.482000 -6.048000
v 7.725000 7.482000 -5.548000
v 11.923000 7.482000 -5.548000
v 7.868000 7.482000 -5.048000
v 11.683000 7.482000 -5.048000
v 8.186000 7.482000 -4.548000
v 11.267000 7.482000 -4.548000
v 8.750000 7.482000 -4.048000
v 10.738000 7.482000 -4.048000
v 5.508000 11.482000 -14.548000
v 6.860000 11.482000 -14.548000
v 5.100000 11.482000 -14.048000
v 7.268000 11.482000 -14.048000
v 5.002000 11.482000 -13.548000
v 7.375000 11.482000 -13.548000
v 4.945000 11.482000 -13.048000
v 7.400000 11.482000 -13.048000
v 4.976000 11.482000 -12.548000
v 7.413000 11.482000 -12.548000
v 5.008000 11.482000 -12.048000
v 7.376000 11.482000 -12.048000
v 5.019000 11.482000 -11.548000
v 7.402000 11.482000 -11.548000
v 4.999000 11.482000 -11.048000
v 7.326000 11.482000 -11.048000
v 5.129000 11.482000 -10.548000
v 7.178000 11.482000 -10.548000
v 5.639000 11.482000 -10.048000
v 6.668000 11.482000 -10.048000
v 9.166000 3.482000 -9.406000
v 9.166000 3.482000 -8.591000
v 9.666000 3.482000 -9.647000
v 9.666000 3.482000 -8.349000
v 10.166000 3.482000 -9.686000
v 10.166000 3.482000 -8.351000
v 10.666000 3.482000 -9.419000
v 10.666000 3.482000 -8.618000
v 7.166000 7.482000 -11.113000
v 7.166000 7.482000 -9.667000
v 7.666000 7.482000 -11.981000
v 7.666000 7.482000 -5.770000
v 8.166000 7.482000 -12.211000
v 8.166000 7.482000 -4.569000
v 8.666000 7.482000 -12.114000
v 8.666000 7.482000 -4.132000
v 9.166000 7.482000 -11.858000
v 9.166000 7.482000 -3.786000
v 9.666000 7.482000 -11.634000
v 9.666000 7.482000 -3.689000
v 10.166000 7.482000 -11.474000
v 10.166000 7.482000 -3.776000
v 10.666000 7.482000 -11.400000
v 10.666000 7.482000 -4.002000
v 11.166000 7.482000 -11.306000
v 11.166000 7.482000 -4.441000
v 11.666000 7.482000 -11.035000
v 11.666000 7.482000 -5.014000
v 12.166000 7.482000 -10.835000
v 12.166000 7.482000 -5.997000
v 12.666000 7.482000 -10.507000
v 12.666000 7.482000 -7.944000
v 5.166000 11.482000 -14.178000
v 5.166000 11.482000 -10.483000
v 5.666000 11.482000 -14.640000
v 5.666000 11.482000 -10.035000
v 6.166000 11.482000 -14.760000
v 6.166000 11.482000 -9.927000
v 6.666000 11.482000 -14.657000
v 6.666000 11.482000 -10.046000
v 7.166000 11.482000 -14.235000
v 7.166000 11.482000 -10.525000
v 5.166000 9.424000 -13.548000
v 5.166000 11.691000 -13.548000
v 5.666000 9.057000 -13.548000
v 5.666000 12.030000 -13.548000
v 6.166000 8.876000 -13.548000
v 6.166000 12.130000 -13.548000
v 6.666000 8.793000 -13.548000
v 6.666000 12.044000 -13.548000
v 7.166000 8.833000 -13.548000
v 7.166000 11.728000 -13.548000
v 7.666000 9.067000 -13.548000
v 7.666000 11.165000 -13.548000
v 7.166000 7.705000 -9.548000
v 7.166000 8.522000 -9.548000
v 7.666000 6.072000 -9.548000
v 7.666000 10.073000 -9.548000
v 8.166000 4.311000 -9.548000
v 8.166000 10.216000 -9.548000
v 8.666000 3.906000 -9.548000
v 8.666000 10.228000 -9.548000
v 9.166000 3.538000 -9.548000
v 9.166000 10.152000 -9.548000
v 9.666000 3.435000 -9.548000
v 9.666000 10.103000 -9.548000
v 10.166000 3.417000 -9.548000
v 10.166000 10.009000 -9.548000
v 10.666000 3.532000 -9.548000
v 10.666000 9.749000 -9.548000
v 11.166000 3.932000 -9.548000
v 11.166000 9.295000 -9.548000
v 11.666000 4.459000 -9.548000
v 11.666000 9.050000 -9.548000
v 12.166000 4.924000 -9.548000
v 12.166000 8.723000 -9.548000
v 12.666000 6.161000 -9.548000
v 12.666000 8.212000 -9.548000
v 8.166000 5.810000 -5.548000
v 8.166000 8.675000 -5.548000
v 8.666000 5.358000 -5.548000
v 8.666000 9.197000 -5.548000
v 9.166000 4.888000 -5.548000
v 9.166000 9.518000 -5.548000
v 9.666000 4.498000 -5.548000
v 9.666000 9.603000 -5.548000
v 10.166000 4.369000 -5.548000
v 10.166000 9.501000 -5.548000
v 10.666000 4.317000 -5.548000
v 10.666000 9.220000 -5.548000
v 11.166000 4.417000 -5.548000
v 11.166000 8.618000 -5.548000
v 11.666000 4.588000 -5.548000
v 11.666000 8.054000 -5.548000
v 12.166000 4.977000 -5.548000
v 12.166000 6.799000 -5.548000
v 9.078000 3.982000 -10.048000
v 10.794000 3.982000 -10.048000
v 8.578000 3.982000 -9.548000
v 11.203000 3.982000 -9.548000
v 8.408000 3.982000 -9.048000
v 11.338000 3.982000 -9.048000
v 8.541000 3.982000 -8.548000
v 11.231000 3.982000 -8.548000
v 8.958000 3.982000 -8.048000
v 10.833000 3.982000 -8.048000
v 7.553000 7.982000 -12.548000
v 8.804000 7.982000 -12.548000
v 7.096000 7.982000 -12.048000
v 9.364000 7.982000 -12.048000
v 6.966000 7.982000 -11.548000
v 10.223000 7.982000 -11.548000
v 6.852000 7.982000 -11.048000
v 11.602000 7.982000 -11.048000
v 6.792000 7.982000 -10.548000
v 12.294000 7.982000 -10.548000
v 6.872000 7.982000 -10.048000
v 12.741000 7.982000 -10.048000
v 7.122000 7.982000 -9.548000
v 12.853000 7.982000 -9.548000
v 7.265000 7.982000 -9.048000
v 12.889000 7.982000 -9.048000
v 7.272000 7.982000 -8.548000
v 12.763000 7.982000 -8.548000
v 7.301000 7.982000 -8.048000
v 12.587000 7.982000 -8.048000
v 7.415000 7.982000 -7.548000
v 12.546000 7.982000 -7.548000
v 7.659000 7.982000 -7.048000
v 12.564000 7.982000 -7.048000
v 7.744000 7.982000 -6.548000
v 12.478000 7.982000 -6.548000
v 7.745000 7.982000 -6.048000
v 12.157000 7.982000 -6.048000
v 7.798000 7.982000 -5.548000
v 11.718000 7.982000 -5.548000
v 7.884000 7.982000 -5.048000
v 11.308000 7.982000 -5.048000
v 8.207000 7.982000 -4.548000
v 10.985000 7.982000 -4.548000
v 8.724000 7.982000 -4.048000
v 10.623000 7.982000 -4.048000
v 5.767000 11.982000 -14.048000
v 6.600000 11.982000 -14.048000
v 5.557000 11.982000 -13.548000
v 6.810000 11.982000 -13.548000
v 5.465000 11.982000 -13.048000
v 6.819000 11.982000 -13.048000
v 5.468000 11.982000 -12.548000
v 6.909000 11.982000 -12.548000
v 5.595000 11.982000 -12.048000
v 6.769000 11.982000 -12.048000
v 5.606000 11.982000 -11.548000
v 6.763000 11.982000 -11.548000
v 5.612000 11.982000 -11.048000
v 6.695000 11.982000 -11.048000
v 6.061000 11.982000 -10.548000
v 6.246000 11.982000 -10.548000
v 8.666000 3.982000 -9.665000
v 8.666000 3.982000 -8.353000
v 9.166000 3.982000 -10.102000
v 9.166000 3.982000 -7.923000
v 9.666000 3.982000 -10.231000
v 9.666000 3.982000 -7.780000
v 10.166000 3.982000 -10.279000
v 10.166000 3.982000 -7.782000
v 10.666000 3.982000 -10.140000
v 10.666000 3.982000 -7.935000
v 11.166000 3.982000 -9.615000
v 11.166000 3.982000 -8.422000
v 7.166000 7.982000 -12.168000
v 7.166000 7.982000 -9.444000
v 7.666000 7.982000 -12.608000
v 7.666000 7.982000 -7.028000
v 8.166000 7.982000 -12.723000
v 8.166000 7.982000 -4.590000
v 8.666000 7.982000 -12.620000
v 8.666000 7.982000 -4.106000
v 9.166000 7.982000 -12.221000
v 9.166000 7.982000 -3.767000
v 9.666000 7.982000 -11.856000
v 9.666000 7.982000 -3.671000
v 10.166000 7.982000 -11.573000
v 10.166000 7.982000 -3.761000
v 10.666000 7.982000 -11.423000
v 10.666000 7.982000 -4.089000
v 11.166000 7.982000 -11.318000
v 11.166000 7.982000 -4.838000
v 11.666000 7.982000 -10.989000
v 11.666000 7.982000 -5.468000
v 12.166000 7.982000 -10.621000
v 12.166000 7.982000 -6.056000
v 12.666000 7.982000 -10.184000
v 12.666000 7.982000 -8.329000
v 5.666000 11.982000 -13.932000
v 5.666000 11.982000 -10.845000
v 6.166000 11.982000 -14.206000
v 6.166000 11.982000 -10.540000
v 6.666000 11.982000 -13.980000
v 6.666000 11.982000 -10.903000
v 5.166000 9.278000 -13.048000
v 5.166000 11.760000 -13.048000
v 5.666000 8.951000 -13.048000
v 5.666000 12.073000 -13.048000
v 6.166000 8.856000 -13.048000
v 6.166000 12.156000 -13.048000
v 6.666000 8.770000 -13.048000
v 6.666000 12.055000 -13.048000
v 7.166000 8.632000 -13.048000
v 7.166000 11.712000 -13.048000
v 7.666000 8.587000 -13.048000
v 7.666000 11.274000 -13.048000
v 8.166000 8.835000 -13.048000
v 8.166000 10.088000 -13.048000
v 7.666000 6.054000 -9.048000
v 7.666000 9.189000 -9.048000
v 8.166000 4.171000 -9.048000
v 8.166000 9.868000 -9.048000
v 8.666000 3.749000 -9.048000
v 8.666000 10.092000 -9.048000
v 9.166000 3.418000 -9.048000
v 9.166000 10.171000 -9.048000
v 9.666000 3.324000 -9.048000
v 9.666000 10.108000 -9.048000
v 10.166000 3.313000 -9.048000
v 10.166000 10.051000 -9.048000
v 10.666000 3.419000 -9.048000
v 10.666000 9.924000 -9.048000
v 11.166000 3.770000 -9.048000
v 11.166000 9.560000 -9.048000
v 11.666000 4.302000 -9.048000
v 11.666000 9.168000 -9.048000
v 12.166000 4.810000 -9.048000
v 12.166000 8.718000 -9.048000
v 12.666000 6.082000 -9.048000
v 12.666000 8.248000 -9.048000
v 8.166000 6.691000 -5.048000
v 8.166000 8.546000 -5.048000
v 8.666000 5.919000 -5.048000
v 8.666000 9.056000 -5.048000
v 9.166000 5.377000 -5.048000
v 9.166000 9.410000 -5.048000
v 9.666000 4.815000 -5.048000
v 9.666000 9.504000 -5.048000
v 10.166000 4.500000 -5.048000
v 10.166000 9.399000 -5.048000
v 10.666000 4.407000 -5.048000
v 10.666000 9.023000 -5.048000
v 11.166000 4.380000 -5.048000
v 11.166000 8.162000 -5.048000
v 11.666000 4.482000 -5.048000
v 11.666000 7.509000 -5.048000
v 12.166000 4.828000 -5.048000
v 12.166000 6.735000 -5.048000
f 275 367 105
f 105 367 365
f 367 523 365
f 525 523 367
f 525 675 523
f 677 675 525
f 677 825 675
f 827 825 677
f 827 981 825
f 983 981 827
f 983 276 981
f 981 276 106
f 250 193 107
f 105 193 250
f 277 105 250
f 275 105 277
f 1141 106 276
f 1141 276 1143
f 1143 278 1141
f 1141 278 108
f 250 107 195
f 107 279 195
f 107 109 279
f 277 250 195
f 108 280 110
f 278 280 108
f 281 29 81
f 111 81 29
f 279 111 29
f 109 111 279
f 110 282 112
f 280 282 110
f 283 1101 1163
f 281 81 1101
f 1101 81 1163
f 81 27 1163
f 27 113 1163
f 81 111 27
f 1144 284 114
f 1144 114 1142
f 1142 112 1144
f 1144 112 282
f 1099 115 1163
f 115 283 1163
f 115 285 283
f 1163 113 1099
f 984 286 116
f 984 116 982
f 982 114 984
f 984 114 284
f 287 939 1005
f 117 1005 939
f 285 117 939
f 115 117 285
f 676 723 118
f 828 288 723
f 676 828 723
f 826 828 676
f 826 116 828
f 828 116 286
f 1007 289 1005
f 1005 289 287
f 1005 117 119
f 1005 119 1007
f 524 581 120
f 723 678 118
f 118 678 524
f 678 290 524
f 290 581 524
f 723 288 678
f 1007 940 289
f 1171 291 1100
f 1100 291 119
f 291 940 119
f 940 1007 119
f 28 91 1171
f 28 1171 1100
f 194 263 91
f 194 91 28
f 366 433 263
f 366 263 194
f 581 526 120
f 120 526 366
f 526 292 366
f 292 433 366
f 581 290 526
f 1171 1102 291
f 1102 1171 30
f 30 1171 91
f 30 91 196
f 196 91 263
f 196 263 368
f 368 263 433
f 433 292 368
f 293 497 121
f 121 497 495
f 497 647 495
f 649 647 497
f 649 797 647
f 799 797 649
f 799 953 797
f 955 953 799
f 955 1115 953
f 1117 1115 955
f 1117 43 1115
f 45 43 1117
f 45 294 43
f 43 294 122
f 64 9 123
f 295 169 64
f 169 9 64
f 169 167 9
f 169 337 167
f 339 337 169
f 121 337 339
f 121 339 293
f 209 122 294
f 209 294 211
f 430 381 296
f 381 211 296
f 381 209 211
f 430 124 381
f 1152 1095 125
f 11 64 123
f 11 123 1095
f 297 11 1095
f 1152 297 1095
f 295 64 11
f 383 430 296
f 383 298 430
f 298 124 430
f 298 126 124
f 1152 125 1097
f 125 299 1097
f 125 127 299
f 297 1152 1097
f 539 126 298
f 539 298 541
f 541 300 539
f 539 300 128
f 996 937 129
f 127 937 996
f 301 127 996
f 299 127 301
f 128 302 130
f 300 302 128
f 131 998 129
f 129 998 996
f 301 996 998
f 301 998 303
f 130 304 132
f 302 304 130
f 938 998 131
f 303 998 938
f 133 303 938
f 305 303 133
f 132 306 134
f 304 306 132
f 1098 305 1162
f 305 135 1162
f 305 133 135
f 307 1098 1162
f 542 308 136
f 542 136 540
f 540 134 542
f 542 134 306
f 1096 1162 135
f 12 307 80
f 80 307 137
f 307 1162 137
f 1162 1096 137
f 309 12 80
f 384 310 138
f 384 138 382
f 382 136 384
f 384 136 308
f 10 80 137
f 170 309 246
f 246 309 139
f 309 80 139
f 80 10 139
f 170 246 414
f 170 414 340
f 311 340 414
f 212 312 140
f 212 140 210
f 210 138 212
f 212 138 310
f 168 246 139
f 338 414 168
f 168 414 246
f 414 338 311
f 338 498 311
f 338 496 498
f 496 141 710
f 650 496 710
f 498 496 650
f 650 710 858
f 650 858 800
f 313 800 858
f 1118 314 1186
f 1118 1186 142
f 44 1118 142
f 46 1118 44
f 44 140 46
f 46 140 312
f 648 710 141
f 798 858 648
f 648 858 710
f 858 798 313
f 798 956 313
f 798 954 956
f 314 956 1186
f 956 1116 1186
f 956 954 1116
f 142 1186 1116
f 842 813 143
f 1008 969 842
f 842 969 813
f 1170 1131 1008
f 1008 1131 969
f 90 59 1170
f 1170 59 1131
f 90 144 59
f 694 663 145
f 815 842 143
f 815 143 663
f 315 815 663
f 694 315 663
f 842 815 971
f 842 971 1008
f 1008 971 1133
f 1008 1133 1170
f 1170 1133 61
f 1170 61 90
f 316 264 225
f 316 225 144
f 61 316 144
f 90 61 144
f 264 146 225
f 404 353 147
f 554 511 404
f 404 511 353
f 665 694 145
f 665 145 511
f 317 665 511
f 554 317 511
f 315 694 665
f 318 266 264
f 318 264 316
f 146 264 148
f 148 264 266
f 236 183 149
f 355 404 147
f 355 147 183
f 319 355 183
f 236 319 183
f 404 355 513
f 404 513 554
f 317 554 513
f 320 268 266
f 320 266 318
f 148 266 150
f 150 266 268
f 236 149 185
f 149 321 185
f 149 151 321
f 319 236 185
f 1134 322 1178
f 1134 1178 98
f 1134 98 62
f 268 320 62
f 268 62 98
f 226 268 98
f 152 226 98
f 150 268 226
f 78 25 153
f 151 25 78
f 323 151 78
f 321 151 323
f 972 324 1018
f 1178 322 972
f 1178 972 1018
f 1132 1178 1018
f 154 1132 1018
f 60 98 1132
f 1132 98 1178
f 152 98 60
f 26 78 153
f 323 78 26
f 155 323 26
f 325 323 155
f 816 326 854
f 1018 324 816
f 1018 816 854
f 970 1018 854
f 156 970 854
f 154 1018 970
f 186 325 248
f 325 157 248
f 325 155 157
f 186 248 416
f 186 416 356
f 356 416 566
f 356 566 514
f 514 566 708
f 514 708 666
f 854 326 666
f 854 666 708
f 814 854 708
f 158 814 708
f 156 854 814
f 184 248 157
f 354 416 184
f 184 416 248
f 512 566 354
f 354 566 416
f 664 708 512
f 512 708 566
f 158 708 664
f 418 367 275
f 443 527 418
f 527 367 418
f 527 525 367
f 527 677 525
f 679 677 527
f 679 827 677
f 829 827 679
f 829 983 827
f 985 983 829
f 985 444 983
f 983 444 276
f 418 275 369
f 275 445 369
f 275 277 445
f 443 418 369
f 1143 276 444
f 1143 444 1145
f 1145 446 1143
f 1143 446 278
f 447 197 279
f 279 197 195
f 277 195 197
f 277 197 445
f 278 448 280
f 446 448 278
f 449 31 281
f 281 31 29
f 279 29 31
f 279 31 447
f 280 450 282
f 448 450 280
f 451 1103 283
f 283 1103 1101
f 281 1101 1103
f 281 1103 449
f 1146 452 284
f 1146 284 1144
f 1144 282 1146
f 1146 282 450
f 453 941 1003
f 285 1003 941
f 451 285 941
f 283 285 451
f 986 454 286
f 986 286 984
f 984 284 986
f 986 284 452
f 455 785 839
f 453 1003 785
f 785 1003 839
f 1003 939 839
f 939 287 839
f 1003 285 939
f 830 456 288
f 830 288 828
f 828 286 830
f 830 286 454
f 841 457 839
f 839 457 455
f 839 287 289
f 839 289 841
f 680 458 290
f 680 290 678
f 678 288 680
f 680 288 456
f 843 459 841
f 841 459 457
f 841 289 940
f 1009 841 940
f 843 841 1009
f 291 1009 940
f 528 460 292
f 528 292 526
f 526 290 528
f 528 290 458
f 843 786 459
f 786 843 461
f 843 1011 461
f 843 1009 1011
f 1009 291 1102
f 1173 1009 1102
f 1011 1009 1173
f 30 93 1173
f 30 1173 1102
f 196 265 93
f 196 93 30
f 368 435 265
f 368 265 196
f 368 292 435
f 292 462 435
f 292 460 462
f 1011 942 461
f 942 1011 463
f 1011 1175 463
f 1011 1173 1175
f 1173 95 1175
f 1173 93 95
f 464 95 198
f 95 265 198
f 95 93 265
f 198 265 370
f 370 265 435
f 435 462 370
f 1175 1104 463
f 1104 1175 32
f 32 1175 95
f 95 464 32
f 465 499 293
f 293 499 497
f 499 649 497
f 651 649 499
f 651 799 649
f 801 799 651
f 801 955 799
f 957 955 801
f 957 1117 955
f 1119 1117 957
f 1119 45 1117
f 47 45 1119
f 47 466 45
f 45 466 294
f 228 169 295
f 467 341 228
f 341 169 228
f 341 339 169
f 293 339 341
f 293 341 465
f 468 260 211
f 294 468 211
f 466 468 294
f 260 296 211
f 66 11 297
f 171 228 295
f 171 295 11
f 469 171 11
f 66 469 11
f 467 228 171
f 213 260 468
f 470 432 383
f 470 383 296
f 213 470 296
f 260 213 296
f 432 298 383
f 1154 1097 299
f 13 66 297
f 13 297 1097
f 471 13 1097
f 1154 471 1097
f 469 66 13
f 385 432 470
f 472 584 541
f 472 541 298
f 385 472 298
f 432 385 298
f 584 300 541
f 301 1156 299
f 299 1156 1154
f 471 1154 1156
f 471 1156 473
f 474 586 584
f 474 584 472
f 300 584 302
f 302 584 586
f 303 1158 301
f 301 1158 1156
f 473 1156 1158
f 473 1158 475
f 543 586 474
f 543 476 586
f 476 302 586
f 476 304 302
f 305 1160 303
f 303 1160 1158
f 475 1158 1160
f 475 1160 477
f 544 478 590
f 590 306 544
f 306 476 544
f 306 304 476
f 1098 1160 305
f 14 477 76
f 76 477 307
f 477 1160 307
f 1160 1098 307
f 479 14 76
f 308 542 590
f 478 308 590
f 480 308 478
f 306 590 542
f 12 76 307
f 479 76 12
f 309 479 12
f 481 479 309
f 386 482 310
f 386 310 384
f 384 308 386
f 386 308 480
f 309 170 481
f 481 170 172
f 340 172 170
f 340 342 172
f 340 311 564
f 500 340 564
f 342 340 500
f 500 564 706
f 500 706 652
f 483 652 706
f 214 484 312
f 214 312 212
f 212 310 214
f 214 310 482
f 498 564 311
f 650 706 498
f 498 706 564
f 706 650 483
f 650 802 483
f 650 800 802
f 800 313 1024
f 958 800 1024
f 802 800 958
f 958 1024 314
f 1118 958 314
f 1120 958 1118
f 46 1120 1118
f 46 48 1120
f 46 312 48
f 48 312 484
f 956 1024 313
f 314 1024 956
f 844 815 315
f 1010 971 844
f 844 971 815
f 1172 1133 1010
f 1010 1133 971
f 92 61 1172
f 1172 61 1133
f 92 316 61
f 696 665 317
f 665 696 315
f 696 844 315
f 696 846 844
f 1012 844 846
f 1010 844 1012
f 1174 1010 1012
f 1172 1010 1174
f 94 1172 1174
f 92 1172 94
f 316 92 318
f 318 92 94
f 406 355 319
f 556 513 406
f 406 513 355
f 513 556 317
f 556 696 317
f 556 698 696
f 848 696 698
f 846 696 848
f 1014 846 848
f 1012 846 1014
f 1176 1012 1014
f 1174 1012 1176
f 96 1174 1176
f 94 1174 96
f 318 94 320
f 320 94 96
f 238 185 321
f 185 238 319
f 238 406 319
f 238 408 406
f 558 406 408
f 556 406 558
f 700 556 558
f 698 556 700
f 850 698 700
f 848 698 850
f 1016 848 850
f 1014 848 1016
f 1134 1176 322
f 1176 1016 322
f 1176 1014 1016
f 62 96 1134
f 1134 96 1176
f 320 96 62
f 323 240 321
f 321 240 238
f 410 238 240
f 408 238 410
f 560 408 410
f 558 408 560
f 702 558 560
f 700 558 702
f 852 700 702
f 850 700 852
f 972 1016 324
f 1016 852 324
f 1016 850 852
f 322 1016 972
f 325 244 323
f 323 244 240
f 412 240 244
f 410 240 412
f 562 410 412
f 560 410 562
f 704 560 562
f 702 560 704
f 816 852 326
f 852 704 326
f 852 702 704
f 324 852 816
f 186 244 325
f 356 412 186
f 186 412 244
f 514 562 356
f 356 562 412
f 666 704 514
f 514 704 562
f 326 704 666
f 591 529 443
f 443 529 527
f 529 679 527
f 681 679 529
f 681 829 679
f 831 829 681
f 831 985 829
f 987 985 831
f 987 592 985
f 985 592 444
f 593 371 445
f 445 371 369
f 443 369 371
f 443 371 591
f 1145 444 592
f 1145 592 1147
f 1147 594 1145
f 1145 594 446
f 595 199 447
f 447 199 197
f 445 197 199
f 445 199 593
f 446 596 448
f 594 596 446
f 597 33 449
f 449 33 31
f 447 31 33
f 447 33 595
f 448 598 450
f 596 598 448
f 599 943 1001
f 1001 943 451
f 943 1103 451
f 943 1105 1103
f 449 1103 1105
f 449 1105 597
f 1148 600 452
f 1148 452 1146
f 1146 450 1148
f 1148 450 598
f 601 787 837
f 599 1001 787
f 787 1001 837
f 1001 941 837
f 941 453 837
f 1001 451 941
f 988 602 454
f 988 454 986
f 986 452 988
f 988 452 600
f 603 637 689
f 601 837 637
f 637 837 689
f 837 785 689
f 785 455 689
f 837 453 785
f 832 604 456
f 832 456 830
f 830 454 832
f 832 454 602
f 605 327 399
f 399 327 549
f 549 327 485
f 603 689 485
f 689 549 485
f 689 691 549
f 689 455 457
f 689 457 691
f 682 606 458
f 682 458 680
f 680 456 682
f 682 456 604
f 401 607 399
f 399 607 605
f 399 551 401
f 399 549 551
f 549 693 551
f 549 691 693
f 691 457 459
f 691 459 693
f 528 583 460
f 528 458 583
f 458 608 583
f 458 606 608
f 403 609 401
f 401 609 607
f 401 553 403
f 401 551 553
f 551 695 553
f 551 693 695
f 693 459 786
f 845 693 786
f 695 693 845
f 461 845 786
f 460 583 530
f 610 460 530
f 462 460 610
f 583 608 530
f 403 328 609
f 328 403 611
f 403 555 611
f 403 553 555
f 553 697 555
f 553 695 697
f 695 847 697
f 695 845 847
f 845 461 942
f 1013 845 942
f 847 845 1013
f 463 1013 942
f 198 267 464
f 370 437 267
f 370 267 198
f 370 462 437
f 462 612 437
f 462 610 612
f 555 486 611
f 486 555 613
f 555 699 613
f 555 697 699
f 697 849 699
f 697 847 849
f 847 1015 849
f 847 1013 1015
f 1013 463 1104
f 1177 1013 1104
f 1015 1013 1177
f 32 97 1177
f 32 1177 1104
f 267 200 464
f 464 200 32
f 200 614 32
f 614 97 32
f 200 267 372
f 372 267 437
f 437 612 372
f 699 638 613
f 638 699 615
f 699 851 615
f 699 849 851
f 849 1017 851
f 849 1015 1017
f 1015 1179 1017
f 1015 1177 1179
f 1177 99 1179
f 1177 97 99
f 97 614 99
f 99 614 616
f 851 788 615
f 788 851 944
f 944 851 1017
f 944 1017 1106
f 1106 1017 1179
f 1106 1179 34
f 34 1179 99
f 99 616 34
f 617 501 465
f 465 501 499
f 501 651 499
f 653 651 501
f 653 801 651
f 803 801 653
f 803 957 801
f 959 957 803
f 959 1119 957
f 1121 1119 959
f 86 47 618
f 47 1121 618
f 47 1119 1121
f 86 466 47
f 619 343 467
f 467 343 341
f 465 341 343
f 465 343 617
f 49 86 618
f 49 620 86
f 620 466 86
f 620 468 466
f 621 173 469
f 469 173 171
f 467 171 173
f 467 173 619
f 213 468 620
f 213 620 215
f 215 622 213
f 213 622 470
f 68 13 471
f 469 13 68
f 623 469 68
f 621 469 623
f 385 470 622
f 385 622 387
f 387 624 385
f 385 624 472
f 68 471 15
f 471 625 15
f 471 473 625
f 623 68 15
f 472 626 474
f 624 626 472
f 627 473 475
f 627 625 473
f 628 588 543
f 474 628 543
f 626 628 474
f 588 476 543
f 629 475 477
f 629 627 475
f 478 544 588
f 628 478 588
f 630 478 628
f 476 588 544
f 477 14 629
f 629 14 16
f 631 16 14
f 631 14 479
f 478 632 480
f 630 632 478
f 174 631 242
f 631 481 242
f 631 479 481
f 633 174 242
f 388 634 482
f 388 482 386
f 386 480 388
f 388 480 632
f 172 242 481
f 242 172 633
f 172 344 633
f 172 342 344
f 500 344 342
f 500 502 344
f 652 502 500
f 652 654 502
f 635 654 652
f 635 652 483
f 216 636 484
f 216 484 214
f 214 482 216
f 216 482 634
f 483 802 635
f 635 802 804
f 958 804 802
f 958 960 804
f 1120 960 958
f 1120 1122 960
f 48 1122 1120
f 48 50 1122
f 48 484 50
f 50 484 636
f 727 515 569
f 569 515 713
f 713 515 667
f 713 667 861
f 861 667 817
f 861 817 1027
f 1027 817 973
f 973 728 1027
f 729 357 421
f 727 569 357
f 569 421 357
f 569 571 421
f 569 715 571
f 569 713 715
f 713 863 715
f 713 861 863
f 861 1029 863
f 861 1027 1029
f 1027 728 1029
f 1029 728 730
f 423 731 421
f 421 731 729
f 421 573 423
f 421 571 573
f 571 717 573
f 571 715 717
f 715 865 717
f 715 863 865
f 863 1031 865
f 863 1029 1031
f 1029 730 1031
f 1031 730 732
f 425 733 423
f 423 733 731
f 423 575 425
f 423 573 575
f 573 719 575
f 573 717 719
f 717 867 719
f 717 865 867
f 734 867 974
f 867 1031 974
f 867 865 1031
f 1031 732 974
f 425 358 733
f 358 425 516
f 516 425 575
f 516 575 668
f 668 575 719
f 668 719 818
f 818 719 867
f 867 734 818
f 735 531 591
f 591 531 529
f 531 681 529
f 683 681 531
f 683 831 681
f 833 831 683
f 833 987 831
f 989 987 833
f 989 736 987
f 987 736 592
f 420 371 593
f 591 371 420
f 737 591 420
f 735 591 737
f 738 1188 1147
f 592 738 1147
f 736 738 592
f 1188 594 1147
f 252 199 595
f 373 420 593
f 373 593 199
f 739 373 199
f 252 739 199
f 737 420 373
f 1149 1188 738
f 1149 740 1188
f 740 594 1188
f 740 596 594
f 741 35 597
f 597 35 33
f 201 252 595
f 33 201 595
f 35 201 33
f 739 252 201
f 1150 742 1192
f 1192 598 1150
f 598 740 1150
f 598 596 740
f 743 945 599
f 599 945 943
f 945 1105 943
f 1107 1105 945
f 597 1105 1107
f 597 1107 741
f 600 1148 1192
f 742 600 1192
f 744 600 742
f 598 1192 1148
f 745 639 687
f 687 639 601
f 639 787 601
f 639 789 787
f 599 787 789
f 599 789 743
f 834 746 870
f 834 870 602
f 988 834 602
f 990 834 988
f 988 600 990
f 990 600 744
f 747 329 397
f 397 329 547
f 547 329 487
f 745 687 487
f 487 687 547
f 687 637 547
f 637 603 547
f 687 601 637
f 604 832 870
f 746 604 870
f 748 604 746
f 602 870 832
f 749 159 229
f 747 397 159
f 159 397 229
f 397 327 229
f 327 605 229
f 547 485 327
f 547 327 397
f 547 603 485
f 682 725 606
f 682 604 725
f 604 750 725
f 604 748 750
f 751 1 67
f 749 229 1
f 229 67 1
f 229 231 67
f 229 605 607
f 229 607 231
f 606 725 684
f 752 606 684
f 608 606 752
f 725 750 684
f 69 753 67
f 67 753 751
f 67 233 69
f 67 231 233
f 231 607 609
f 231 609 233
f 530 585 610
f 530 608 585
f 608 754 585
f 608 752 754
f 71 755 69
f 69 755 753
f 69 235 71
f 69 233 235
f 233 609 328
f 405 233 328
f 235 233 405
f 611 405 328
f 610 585 532
f 756 610 532
f 612 610 756
f 585 754 532
f 73 757 71
f 71 757 755
f 71 237 73
f 71 235 237
f 235 407 237
f 235 405 407
f 405 611 486
f 557 405 486
f 407 405 557
f 613 557 486
f 200 269 614
f 372 439 269
f 372 269 200
f 372 612 439
f 612 758 439
f 612 756 758
f 73 2 757
f 2 73 759
f 73 239 759
f 73 237 239
f 237 409 239
f 237 407 409
f 407 559 409
f 407 557 559
f 557 613 638
f 701 557 638
f 559 557 701
f 615 701 638
f 271 616 614
f 271 614 269
f 760 271 374
f 271 439 374
f 271 269 439
f 439 758 374
f 239 160 759
f 160 239 761
f 239 411 761
f 239 409 411
f 409 561 411
f 409 559 561
f 559 703 561
f 559 701 703
f 701 615 788
f 853 701 788
f 703 701 853
f 944 1019 853
f 944 853 788
f 1106 1181 1019
f 1106 1019 944
f 34 101 1181
f 34 1181 1106
f 271 202 616
f 616 202 34
f 202 762 34
f 762 101 34
f 271 760 202
f 411 330 761
f 330 411 488
f 488 411 561
f 488 561 763
f 561 705 763
f 561 703 705
f 703 855 705
f 703 853 855
f 853 1021 855
f 853 1019 1021
f 1019 1183 1021
f 1019 1181 1183
f 764 1183 36
f 1183 101 36
f 1183 1181 101
f 101 762 36
f 705 640 763
f 640 705 790
f 790 705 855
f 790 855 946
f 946 855 1021
f 946 1021 1108
f 1108 1021 1183
f 1183 764 1108
f 765 503 617
f 617 503 501
f 503 653 501
f 655 653 503
f 655 803 653
f 805 803 655
f 805 959 803
f 961 959 805
f 1166 1121 766
f 1121 961 766
f 1121 959 961
f 1166 618 1121
f 767 345 619
f 619 345 343
f 617 343 345
f 617 345 765
f 1123 1166 766
f 49 618 1166
f 1123 49 1166
f 51 49 1123
f 51 768 49
f 49 768 620
f 769 175 621
f 621 175 173
f 619 173 175
f 619 175 767
f 215 620 768
f 215 768 217
f 217 770 215
f 215 770 622
f 771 621 623
f 771 769 621
f 387 622 770
f 387 770 389
f 389 772 387
f 387 772 624
f 773 17 625
f 625 17 15
f 623 15 17
f 623 17 771
f 624 774 626
f 772 774 624
f 775 625 627
f 775 773 625
f 626 776 628
f 774 776 626
f 777 627 629
f 777 775 627
f 628 778 630
f 776 778 628
f 629 16 777
f 777 16 18
f 779 18 16
f 779 16 631
f 390 780 442
f 442 632 390
f 632 778 390
f 632 630 778
f 631 174 779
f 779 174 176
f 781 176 174
f 781 174 633
f 634 388 442
f 780 634 442
f 782 634 780
f 632 442 388
f 633 344 781
f 781 344 346
f 502 346 344
f 502 504 346
f 654 504 502
f 654 656 504
f 783 656 654
f 783 654 635
f 218 784 636
f 218 636 216
f 216 634 218
f 218 634 782
f 635 804 783
f 783 804 806
f 960 806 804
f 960 962 806
f 1122 962 960
f 1122 1124 962
f 50 1124 1122
f 50 52 1124
f 50 636 52
f 52 636 784
f 871 517 567
f 567 517 711
f 711 517 669
f 711 669 859
f 859 669 819
f 859 819 1025
f 1025 819 975
f 975 872 1025
f 873 359 419
f 871 567 359
f 359 567 419
f 567 515 419
f 515 727 419
f 711 667 515
f 711 515 567
f 859 817 667
f 859 667 711
f 1025 973 817
f 1025 817 859
f 1025 872 973
f 872 728 973
f 872 874 728
f 875 187 251
f 873 419 187
f 187 419 251
f 419 357 251
f 357 729 251
f 419 727 357
f 874 1135 1189
f 730 874 1189
f 728 874 730
f 1135 876 1189
f 253 877 251
f 251 877 875
f 251 729 731
f 251 731 253
f 730 1189 1136
f 878 730 1136
f 732 730 878
f 1189 876 1136
f 253 188 877
f 879 188 253
f 731 879 253
f 733 879 731
f 974 1033 734
f 974 732 1033
f 732 880 1033
f 732 878 880
f 427 881 358
f 881 733 358
f 881 879 733
f 516 577 427
f 516 427 358
f 668 721 577
f 668 577 516
f 818 869 721
f 818 721 668
f 1033 976 734
f 734 976 818
f 976 882 818
f 882 869 818
f 1033 880 976
f 427 360 881
f 360 427 518
f 518 427 577
f 518 577 670
f 670 577 721
f 670 721 820
f 820 721 869
f 869 882 820
f 568 531 735
f 712 683 568
f 568 683 531
f 860 833 712
f 712 833 683
f 1026 989 860
f 860 989 833
f 1026 736 989
f 568 735 533
f 735 883 533
f 735 737 883
f 568 533 685
f 568 685 712
f 712 685 835
f 712 835 860
f 860 835 991
f 860 991 1026
f 991 884 1026
f 884 736 1026
f 884 738 736
f 422 373 739
f 737 373 422
f 885 737 422
f 883 737 885
f 886 1190 1149
f 738 886 1149
f 884 886 738
f 1190 740 1149
f 82 35 741
f 254 201 82
f 82 201 35
f 375 422 739
f 375 739 201
f 887 375 201
f 254 887 201
f 885 422 375
f 742 1150 1190
f 886 742 1190
f 888 742 886
f 740 1190 1150
f 889 947 743
f 743 947 945
f 947 1107 945
f 1109 1107 947
f 37 82 741
f 1107 37 741
f 1109 37 1107
f 82 37 203
f 82 203 254
f 887 254 203
f 836 890 868
f 836 868 1034
f 836 1034 992
f 1034 744 992
f 744 888 992
f 744 742 888
f 891 641 745
f 745 641 639
f 641 789 639
f 791 789 641
f 743 789 791
f 743 791 889
f 746 834 868
f 890 746 868
f 892 746 890
f 990 1034 834
f 834 1034 868
f 744 1034 990
f 893 161 227
f 227 161 747
f 161 329 747
f 161 331 329
f 331 487 329
f 489 487 331
f 745 487 489
f 745 489 891
f 746 894 748
f 892 894 746
f 895 3 65
f 893 227 3
f 3 227 65
f 227 159 65
f 159 749 65
f 227 747 159
f 686 896 726
f 726 750 686
f 750 894 686
f 750 748 894
f 897 1089 1153
f 895 65 1089
f 1089 65 1153
f 65 1 1153
f 1 751 1153
f 65 749 1
f 752 684 726
f 896 752 726
f 898 752 896
f 750 726 684
f 1155 899 1153
f 1153 899 897
f 1153 751 753
f 1153 753 1155
f 752 900 754
f 898 900 752
f 1157 901 1155
f 1155 901 899
f 1155 753 755
f 1155 755 1157
f 532 587 756
f 532 754 587
f 754 902 587
f 754 900 902
f 1159 903 1157
f 1157 903 901
f 1157 755 757
f 1157 757 1159
f 756 587 534
f 904 756 534
f 758 756 904
f 587 902 534
f 1159 1090 903
f 75 905 2
f 2 905 757
f 905 1090 757
f 1090 1159 757
f 759 75 2
f 376 906 760
f 376 760 374
f 374 758 376
f 376 758 904
f 75 4 905
f 241 907 160
f 160 907 759
f 907 4 759
f 4 75 759
f 761 241 160
f 204 908 762
f 204 762 202
f 202 760 204
f 204 760 906
f 241 162 907
f 413 909 330
f 330 909 761
f 909 162 761
f 162 241 761
f 488 563 413
f 488 413 330
f 763 563 488
f 36 103 764
f 36 762 103
f 762 910 103
f 762 908 910
f 413 332 909
f 332 413 490
f 490 413 563
f 709 911 640
f 640 911 763
f 911 490 763
f 490 563 763
f 790 857 709
f 790 709 640
f 946 1023 857
f 946 857 790
f 1108 1185 1023
f 1108 1023 946
f 103 38 764
f 764 38 1108
f 38 912 1108
f 912 1185 1108
f 103 910 38
f 709 642 911
f 642 709 792
f 792 709 857
f 792 857 948
f 948 857 1023
f 948 1023 1110
f 1110 1023 1185
f 1185 912 1110
f 913 505 765
f 765 505 503
f 505 655 503
f 657 655 505
f 657 805 655
f 807 805 657
f 807 961 805
f 963 961 807
f 963 914 961
f 961 914 766
f 915 347 767
f 767 347 345
f 765 345 347
f 765 347 913
f 1123 766 914
f 1123 914 1125
f 1125 51 1123
f 53 51 1125
f 53 916 51
f 51 916 768
f 230 175 769
f 767 175 230
f 917 767 230
f 915 767 917
f 217 768 916
f 217 916 219
f 219 918 217
f 217 918 770
f 230 769 177
f 769 919 177
f 769 771 919
f 917 230 177
f 389 770 918
f 389 918 391
f 391 920 389
f 389 920 772
f 921 19 773
f 773 19 17
f 771 17 19
f 771 19 919
f 772 922 774
f 920 922 772
f 923 773 775
f 923 921 773
f 774 924 776
f 922 924 774
f 925 775 777
f 925 923 775
f 392 926 440
f 440 778 392
f 778 924 392
f 778 776 924
f 777 18 925
f 925 18 20
f 927 20 18
f 927 18 779
f 780 390 440
f 926 780 440
f 928 780 926
f 778 440 390
f 243 929 176
f 929 779 176
f 929 927 779
f 781 243 176
f 220 930 274
f 274 782 220
f 782 928 220
f 782 780 928
f 243 178 929
f 781 346 243
f 346 178 243
f 346 348 178
f 504 348 346
f 504 506 348
f 656 707 931
f 506 656 931
f 504 656 506
f 783 707 656
f 1126 932 1184
f 1126 1184 104
f 1126 104 54
f 274 930 54
f 274 54 104
f 218 274 104
f 784 218 104
f 782 274 218
f 707 658 931
f 783 806 707
f 806 658 707
f 806 808 658
f 962 808 806
f 962 964 808
f 932 964 1184
f 964 1124 1184
f 964 962 1124
f 52 104 1124
f 1124 104 1184
f 784 104 52
f 1035 361 417
f 417 361 871
f 361 517 871
f 361 519 517
f 519 669 517
f 671 669 519
f 671 819 669
f 821 819 671
f 821 975 819
f 977 975 821
f 977 1036 975
f 975 1036 872
f 359 873 417
f 873 1035 417
f 873 1037 1035
f 417 871 359
f 1036 1137 1187
f 874 1036 1187
f 872 1036 874
f 1137 1038 1187
f 1039 189 875
f 875 189 187
f 873 187 189
f 873 189 1037
f 1187 1135 874
f 1187 1038 1135
f 1038 876 1135
f 1038 1040 876
f 1041 875 877
f 1041 1039 875
f 1136 1191 878
f 1136 876 1191
f 876 1042 1191
f 876 1040 1042
f 255 1043 188
f 1043 877 188
f 1043 1041 877
f 879 255 188
f 878 1191 1138
f 1044 878 1138
f 880 878 1044
f 1191 1042 1138
f 255 190 1043
f 1045 190 255
f 879 1045 255
f 881 1045 879
f 978 1046 882
f 978 882 976
f 976 880 978
f 978 880 1044
f 881 360 1045
f 1045 360 362
f 518 362 360
f 518 520 362
f 670 520 518
f 670 672 520
f 820 672 670
f 820 822 672
f 820 882 822
f 822 882 1046
f 570 533 883
f 714 685 570
f 570 685 533
f 862 835 714
f 714 835 685
f 1028 991 862
f 862 991 835
f 1028 884 991
f 885 572 883
f 883 572 570
f 716 570 572
f 714 570 716
f 864 714 716
f 862 714 864
f 1030 862 864
f 1028 862 1030
f 884 1028 886
f 886 1028 1030
f 424 375 887
f 375 424 885
f 424 572 885
f 424 574 572
f 718 572 574
f 716 572 718
f 866 716 718
f 864 716 866
f 1032 864 866
f 1030 864 1032
f 886 1030 888
f 888 1030 1032
f 1002 947 889
f 1047 1111 1002
f 1111 947 1002
f 1111 1109 947
f 1111 37 1109
f 39 37 1111
f 256 203 1048
f 203 39 1048
f 203 37 39
f 203 256 887
f 256 424 887
f 256 426 424
f 576 424 426
f 574 424 576
f 720 574 576
f 718 574 720
f 836 866 890
f 866 720 890
f 866 718 720
f 992 1032 836
f 836 1032 866
f 888 1032 992
f 1049 643 891
f 891 643 641
f 643 791 641
f 793 791 643
f 949 1002 889
f 791 949 889
f 793 949 791
f 1047 1002 949
f 205 256 1048
f 256 205 377
f 256 377 426
f 426 377 535
f 426 535 576
f 576 535 1050
f 722 576 1050
f 720 576 722
f 890 720 892
f 892 720 722
f 1051 5 63
f 63 5 893
f 5 161 893
f 5 163 161
f 163 331 161
f 333 331 163
f 333 489 331
f 491 489 333
f 891 489 491
f 891 491 1049
f 1052 724 722
f 1052 722 1050
f 892 722 894
f 894 722 724
f 1053 1091 1151
f 1051 63 1091
f 1091 63 1151
f 63 3 1151
f 3 895 1151
f 63 893 3
f 896 686 724
f 1052 896 724
f 1054 896 1052
f 894 724 686
f 1089 897 1151
f 897 1053 1151
f 897 1055 1053
f 1151 895 1089
f 896 1056 898
f 1054 1056 896
f 1057 933 995
f 899 995 933
f 1055 899 933
f 897 899 1055
f 898 1058 900
f 1056 1058 898
f 997 1059 995
f 995 1059 1057
f 995 899 901
f 995 901 997
f 900 1060 902
f 1058 1060 900
f 997 934 1059
f 1061 934 997
f 901 1061 997
f 903 1061 901
f 536 1062 904
f 536 904 534
f 534 902 536
f 536 902 1060
f 1161 1063 1090
f 1063 903 1090
f 1063 1061 903
f 905 1161 1090
f 378 1064 906
f 378 906 376
f 376 904 378
f 378 904 1062
f 1161 1092 1063
f 79 1065 4
f 4 1065 905
f 1065 1092 905
f 1092 1161 905
f 907 79 4
f 204 273 908
f 204 906 273
f 906 1066 273
f 906 1064 1066
f 79 6 1065
f 245 1067 162
f 162 1067 907
f 1067 6 907
f 6 79 907
f 909 245 162
f 908 273 206
f 1068 908 206
f 910 908 1068
f 273 1066 206
f 245 164 1067
f 909 332 245
f 332 164 245
f 332 334 164
f 490 334 332
f 490 492 334
f 1069 492 490
f 1069 490 911
f 40 1070 912
f 40 912 38
f 38 910 40
f 40 910 1068
f 911 642 1069
f 1069 642 644
f 792 644 642
f 792 794 644
f 948 794 792
f 948 950 794
f 1110 950 948
f 1110 1112 950
f 1110 912 1112
f 1112 912 1070
f 546 505 913
f 688 657 546
f 546 657 505
f 838 807 688
f 688 807 657
f 1004 963 838
f 838 963 807
f 1004 914 963
f 398 347 915
f 507 546 913
f 507 913 347
f 1071 507 347
f 398 1071 347
f 546 507 659
f 546 659 688
f 688 659 809
f 688 809 838
f 838 809 965
f 838 965 1004
f 1125 914 1004
f 965 1125 1004
f 1127 1125 965
f 1127 53 1125
f 55 53 1127
f 55 1072 53
f 53 1072 916
f 398 915 349
f 915 1073 349
f 915 917 1073
f 1071 398 349
f 219 916 1072
f 219 1072 221
f 221 1074 219
f 219 1074 918
f 1075 179 919
f 919 179 177
f 917 177 179
f 917 179 1073
f 391 918 1074
f 391 1074 393
f 393 1076 391
f 391 1076 920
f 70 19 921
f 919 19 70
f 1077 919 70
f 1075 919 1077
f 920 1078 922
f 1076 1078 920
f 70 921 21
f 921 1079 21
f 921 923 1079
f 1077 70 21
f 922 1080 924
f 1078 1080 922
f 1081 923 925
f 1081 1079 923
f 394 1082 926
f 394 926 392
f 392 924 394
f 394 924 1080
f 77 1083 20
f 1083 925 20
f 1083 1081 925
f 927 77 20
f 222 1084 272
f 272 928 222
f 928 1082 222
f 928 926 1082
f 77 22 1083
f 1085 22 77
f 927 1085 77
f 929 1085 927
f 56 1086 102
f 272 1084 56
f 272 56 102
f 220 272 102
f 930 220 102
f 928 272 220
f 247 1087 178
f 1087 929 178
f 1087 1085 929
f 348 415 247
f 348 247 178
f 506 565 415
f 506 415 348
f 931 565 506
f 810 1088 856
f 810 856 1022
f 810 1022 966
f 966 1022 932
f 1126 966 932
f 1128 966 1126
f 1086 1128 102
f 1128 54 102
f 1128 1126 54
f 930 102 54
f 247 180 1087
f 180 247 350
f 350 247 415
f 350 415 508
f 508 415 565
f 931 658 565
f 658 508 565
f 658 660 508
f 1088 660 856
f 660 808 856
f 660 658 808
f 964 1022 808
f 808 1022 856
f 932 1022 964
f 1193 363 1035
f 1035 363 361
f 363 519 361
f 521 519 363
f 521 671 519
f 673 671 521
f 673 821 671
f 823 821 673
f 823 977 821
f 979 977 823
f 979 1194 977
f 977 1194 1036
f 1195 191 249
f 1037 249 191
f 1193 1037 191
f 1035 1037 1193
f 1137 1036 1194
f 1137 1194 1139
f 1139 1196 1137
f 1137 1196 1038
f 189 1039 249
f 1039 1195 249
f 1039 1197 1195
f 249 1037 189
f 1038 1198 1040
f 1196 1198 1038
f 1199 1039 1041
f 1199 1197 1039
f 1040 1200 1042
f 1198 1200 1040
f 1201 1041 1043
f 1201 1199 1041
f 1140 1202 1044
f 1140 1044 1138
f 1138 1042 1140
f 1140 1042 1200
f 257 1203 190
f 1203 1043 190
f 1203 1201 1043
f 1045 257 190
f 980 1204 1046
f 980 1046 978
f 978 1044 980
f 980 1044 1202
f 259 1205 257
f 257 1205 1203
f 257 1045 362
f 429 257 362
f 259 257 429
f 520 579 429
f 520 429 362
f 674 1206 579
f 520 674 579
f 672 674 520
f 822 674 672
f 822 824 674
f 822 1046 824
f 824 1046 1204
f 259 192 1205
f 192 259 364
f 364 259 429
f 364 429 522
f 522 429 579
f 579 1206 522
f 1164 1111 1047
f 84 39 1164
f 1164 39 1111
f 84 1048 39
f 1207 645 1049
f 1049 645 643
f 645 793 643
f 795 793 645
f 795 949 793
f 951 949 795
f 1113 1164 1047
f 949 1113 1047
f 951 1113 949
f 1164 1113 41
f 1164 41 84
f 205 1048 84
f 41 205 84
f 207 205 41
f 428 377 1208
f 377 207 1208
f 377 205 207
f 578 535 428
f 428 535 377
f 578 1050 535
f 1209 7 1051
f 1051 7 5
f 7 163 5
f 165 163 7
f 165 333 163
f 335 333 165
f 335 491 333
f 493 491 335
f 1049 491 493
f 1049 493 1207
f 379 428 1208
f 428 379 1210
f 580 428 1210
f 578 428 580
f 1050 578 1052
f 1052 578 580
f 1211 1093 1053
f 1053 1093 1091
f 1051 1091 1093
f 1051 1093 1209
f 537 580 1210
f 537 1212 580
f 1212 1052 580
f 1212 1054 1052
f 1213 935 993
f 1055 993 935
f 1211 1055 935
f 1053 1055 1211
f 1054 1214 1056
f 1212 1214 1054
f 933 1057 993
f 1057 1213 993
f 1057 1215 1213
f 993 1055 933
f 1056 1216 1058
f 1214 1216 1056
f 1217 1057 1059
f 1217 1215 1057
f 1058 1218 1060
f 1216 1218 1058
f 999 1219 934
f 1219 1059 934
f 1219 1217 1059
f 1061 999 934
f 538 1220 1062
f 538 1062 536
f 536 1060 538
f 538 1060 1218
f 999 936 1219
f 1221 936 999
f 1061 1221 999
f 1063 1221 1061
f 378 441 1064
f 378 1062 441
f 1062 1222 441
f 1062 1220 1222
f 1063 1092 1221
f 1221 1092 1094
f 1223 1094 1092
f 1223 1092 1065
f 1064 441 380
f 1224 1064 380
f 1066 1064 1224
f 441 1222 380
f 1065 6 1223
f 1223 6 8
f 1225 8 6
f 1225 6 1067
f 208 1226 1068
f 208 1068 206
f 206 1066 208
f 208 1066 1224
f 1067 164 1225
f 1225 164 166
f 334 166 164
f 334 336 166
f 492 336 334
f 492 494 336
f 1227 494 492
f 1227 492 1069
f 42 1228 1070
f 42 1070 40
f 40 1068 42
f 42 1068 1226
f 1069 644 1227
f 1227 644 646
f 794 646 644
f 794 796 646
f 950 796 794
f 950 952 796
f 1112 952 950
f 1112 1114 952
f 1112 1070 1114
f 1114 1070 1228
f 548 507 1071
f 690 659 548
f 548 659 507
f 1229 811 690
f 811 659 690
f 811 809 659
f 811 965 809
f 967 965 811
f 967 1127 965
f 1129 1127 967
f 1129 55 1127
f 57 55 1129
f 57 1230 55
f 55 1230 1072
f 400 349 1073
f 509 548 1071
f 509 1071 349
f 1231 509 349
f 400 1231 349
f 548 509 661
f 548 661 690
f 1229 690 661
f 221 1072 1230
f 221 1230 223
f 223 1232 221
f 221 1232 1074
f 232 179 1075
f 351 400 1073
f 351 1073 179
f 1233 351 179
f 232 1233 179
f 1231 400 351
f 1234 434 393
f 1074 1234 393
f 1232 1234 1074
f 434 1076 393
f 232 1075 181
f 1075 1235 181
f 1075 1077 1235
f 1233 232 181
f 395 434 1234
f 395 1236 434
f 1236 1076 434
f 1236 1078 1076
f 72 21 1079
f 1077 21 72
f 1237 1077 72
f 1235 1077 1237
f 396 1238 438
f 438 1080 396
f 1080 1236 396
f 1080 1078 1236
f 72 1079 23
f 1079 1239 23
f 1079 1081 1239
f 1237 72 23
f 1082 394 438
f 1238 1082 438
f 1240 1082 1238
f 1080 438 394
f 1241 1081 1083
f 1241 1239 1081
f 58 1242 100
f 58 100 1084
f 222 58 1084
f 224 58 222
f 222 1082 224
f 224 1082 1240
f 1083 22 1241
f 1241 22 24
f 1243 24 22
f 1243 22 1085
f 1130 1244 1182
f 100 1242 1130
f 100 1130 1182
f 56 100 1182
f 1086 56 1182
f 1084 100 56
f 1245 1085 1087
f 1245 1243 1085
f 812 1246 1088
f 812 1088 810
f 966 812 810
f 966 968 812
f 1244 968 1182
f 968 1128 1182
f 968 966 1128
f 1086 1182 1128
f 1087 180 1245
f 1245 180 182
f 350 182 180
f 350 352 182
f 508 352 350
f 508 510 352
f 660 510 508
f 660 662 510
f 660 1088 662
f 662 1088 1246
f 105 365 1193
f 1193 365 363
f 365 521 363
f 523 521 365
f 523 673 521
f 675 673 523
f 675 823 673
f 825 823 675
f 825 979 823
f 981 979 825
f 981 106 979
f 979 106 1194
f 107 193 1195
f 1195 193 191
f 1193 191 193
f 1193 193 105
f 1139 1194 106
f 1139 106 1141
f 1141 108 1139
f 1139 108 1196
f 109 1195 1197
f 109 107 1195
f 1196 110 1198
f 108 110 1196
f 111 1197 1199
f 111 109 1197
f 1198 112 1200
f 110 112 1198
f 113 27 83
f 1201 83 27
f 111 1201 27
f 1199 1201 111
f 1142 114 1202
f 1142 1202 1140
f 1140 1200 1142
f 1142 1200 112
f 115 1099 1165
f 113 83 1099
f 83 1165 1099
f 83 85 1165
f 83 1201 1203
f 83 1203 85
f 982 116 1204
f 982 1204 980
f 980 1202 982
f 982 1202 114
f 1167 117 1165
f 1165 117 115
f 1165 87 1167
f 1165 85 87
f 85 1203 1205
f 85 1205 87
f 676 118 1206
f 676 1206 674
f 824 676 674
f 824 826 676
f 824 1204 826
f 826 1204 116
f 1169 119 1167
f 1167 119 117
f 1167 89 1169
f 1167 87 89
f 87 1205 192
f 261 87 192
f 89 87 261
f 364 431 261
f 364 261 192
f 524 120 431
f 364 524 431
f 522 524 364
f 522 1206 524
f 524 1206 118
f 1169 1100 119
f 1100 1169 28
f 28 1169 89
f 28 89 194
f 194 89 261
f 194 261 366
f 366 261 431
f 431 120 366
f 121 495 545
f 545 495 1207
f 495 645 1207
f 495 647 645
f 647 795 645
f 797 795 647
f 797 951 795
f 953 951 797
f 953 1113 951
f 1115 1113 953
f 1115 41 1113
f 43 41 1115
f 258 207 122
f 207 43 122
f 207 41 43
f 258 1208 207
f 123 9 1209
f 1209 9 7
f 9 165 7
f 167 165 9
f 167 335 165
f 337 335 167
f 337 121 545
f 493 337 545
f 335 337 493
f 545 1207 493
f 209 258 122
f 379 1208 258
f 209 379 258
f 381 379 209
f 381 124 379
f 379 124 1210
f 125 1095 1211
f 1211 1095 1093
f 1209 1093 1095
f 1209 1095 123
f 126 582 537
f 1210 126 537
f 124 126 1210
f 582 1212 537
f 994 935 1213
f 1211 935 994
f 127 1211 994
f 125 1211 127
f 539 582 126
f 539 128 582
f 128 1212 582
f 128 1214 1212
f 994 1213 937
f 1213 129 937
f 1213 1215 129
f 127 994 937
f 1214 130 1216
f 128 130 1214
f 131 1215 1217
f 131 129 1215
f 1216 132 1218
f 130 132 1216
f 938 131 1000
f 131 1219 1000
f 131 1217 1219
f 133 938 1000
f 538 589 1220
f 538 1218 589
f 1218 134 589
f 1218 132 134
f 936 1000 1219
f 133 1000 936
f 1221 133 936
f 135 133 1221
f 1220 589 540
f 136 1220 540
f 1222 1220 136
f 589 134 540
f 1221 1094 135
f 135 1094 1096
f 137 1096 1094
f 137 1094 1223
f 382 138 1224
f 382 1224 380
f 380 1222 382
f 382 1222 136
f 1223 8 137
f 137 8 10
f 139 10 8
f 139 8 1225
f 210 140 1226
f 210 1226 208
f 208 1224 210
f 210 1224 138
f 1225 166 139
f 139 166 168
f 336 168 166
f 336 338 168
f 494 338 336
f 494 496 338
f 141 496 494
f 141 494 1227
f 44 142 1228
f 44 1228 42
f 42 1226 44
f 44 1226 140
f 1227 646 141
f 141 646 648
f 796 648 646
f 796 798 648
f 952 798 796
f 952 954 798
f 1114 954 952
f 1114 1116 954
f 1114 1228 1116
f 1116 1228 142
f 840 811 1229
f 1006 967 840
f 840 967 811
f 1168 1129 1006
f 1006 1129 967
f 88 57 1168
f 1168 57 1129
f 88 1230 57
f 550 509 1231
f 692 661 550
f 550 661 509
f 813 840 1229
f 813 1229 661
f 143 813 661
f 692 143 661
f 840 813 969
f 840 969 1006
f 1006 969 1131
f 1006 1131 1168
f 1168 1131 59
f 1168 59 88
f 144 262 223
f 144 223 1230
f 59 144 1230
f 88 59 1230
f 262 1232 223
f 402 351 1233
f 351 402 1231
f 402 550 1231
f 402 552 550
f 552 145 663
f 692 552 663
f 550 552 692
f 143 692 663
f 225 262 144
f 225 146 262
f 146 1232 262
f 146 1234 1232
f 234 181 1235
f 353 402 1233
f 353 1233 181
f 147 353 181
f 234 147 181
f 402 353 511
f 402 511 552
f 145 552 511
f 148 436 395
f 1234 148 395
f 146 148 1234
f 436 1236 395
f 234 1235 183
f 1235 149 183
f 1235 1237 149
f 147 234 183
f 1238 396 436
f 148 1238 436
f 150 1238 148
f 1236 436 396
f 74 23 1239
f 1237 23 74
f 151 1237 74
f 149 1237 151
f 226 152 270
f 270 1240 226
f 1240 150 226
f 1240 1238 150
f 74 1239 25
f 1239 153 25
f 1239 1241 153
f 151 74 25
f 1132 154 1180
f 1132 1180 1242
f 58 1132 1242
f 60 1132 58
f 152 60 270
f 60 224 270
f 60 58 224
f 1240 270 224
f 1241 24 153
f 153 24 26
f 155 26 24
f 155 24 1243
f 970 156 1020
f 1180 154 970
f 1180 970 1020
f 1130 1180 1020
f 1244 1130 1020
f 1242 1180 1130
f 157 1243 1245
f 157 155 1243
f 814 158 1246
f 814 1246 812
f 156 814 1020
f 814 968 1020
f 814 812 968
f 1244 1020 968
f 1245 182 157
f 157 182 184
f 352 184 182
f 352 354 184
f 510 354 352
f 510 512 354
f 662 512 510
f 662 664 512
f 662 1246 664
f 664 1246 158
