# Converted from NanoShaper .vert/.face
v -9.183000 -11.750000 2.151000
v -7.987000 -11.750000 2.151000
v -9.634000 -11.750000 2.651000
v -7.537000 -11.750000 2.651000
v -9.743000 -11.750000 3.151000
v -7.428000 -11.750000 3.151000
v -9.686000 -11.750000 3.651000
v -7.385000 -11.750000 3.651000
v -9.581000 -11.750000 4.151000
v -7.490000 -11.750000 4.151000
v -9.144000 -11.750000 4.651000
v -7.910000 -11.750000 4.651000
v -9.014000 -11.750000 7.151000
v -8.050000 -11.750000 7.151000
v -9.217000 -11.750000 7.651000
v -7.846000 -11.750000 7.651000
v -8.988000 -11.750000 8.151000
v -8.076000 -11.750000 8.151000
v -9.340000 -7.750000 -0.349000
v -8.177000 -7.750000 -0.349000
v -9.952000 -7.750000 0.151000
v -7.916000 -7.750000 0.151000
v -10.288000 -7.750000 0.651000
v -7.911000 -7.750000 0.651000
v -10.596000 -7.750000 1.151000
v -8.118000 -7.750000 1.151000
v -10.732000 -7.750000 1.651000
v -8.363000 -7.750000 1.651000
v -10.641000 -7.750000 2.151000
v -8.499000 -7.750000 2.151000
v -10.232000 -7.750000 2.651000
v -8.918000 -7.750000 2.651000
v -9.834000 -7.750000 7.151000
v -8.409000 -7.750000 7.151000
v -10.514000 -7.750000 7.651000
v -7.801000 -7.750000 7.651000
v -10.827000 -7.750000 8.151000
v -7.410000 -7.750000 8.151000
v -10.921000 -7.750000 8.651000
v -7.230000 -7.750000 8.651000
v -11.003000 -7.750000 9.151000
v -7.177000 -7.750000 9.151000
v -11.157000 -7.750000 9.651000
v -7.138000 -7.750000 9.651000
v -11.393000 -7.750000 10.151000
v -7.220000 -7.750000 10.151000
v -11.608000 -7.750000 10.651000
v -7.533000 -7.750000 10.651000
v -11.847000 -7.750000 11.151000
v -8.129000 -7.750000 11.151000
v -11.954000 -7.750000 11.651000
v -8.551000 -7.750000 11.651000
v -11.877000 -7.750000 12.151000
v -8.777000 -7.750000 12.151000
v -11.800000 -7.750000 12.651000
v -8.826000 -7.750000 12.651000
v -11.891000 -7.750000 13.151000
v -8.796000 -7.750000 13.151000
v -12.163000 -7.750000 13.651000
v -8.737000 -7.750000 13.651000
v -12.282000 -7.750000 14.151000
v -8.697000 -7.750000 14.151000
v -12.193000 -7.750000 14.651000
v -8.678000 -7.750000 14.651000
v -12.048000 -7.750000 15.151000
v -8.788000 -7.750000 15.151000
v -11.981000 -7.750000 15.651000
v -9.039000 -7.750000 15.651000
v -11.955000 -7.750000 16.151000
v -9.160000 -7.750000 16.151000
v -11.923000 -7.750000 16.651000
v -9.165000 -7.750000 16.651000
v -11.816000 -7.750000 17.151000
v -9.267000 -7.750000 17.151000
v -11.465000 -7.750000 17.651000
v -9.618000 -7.750000 17.651000
v -9.318000 -11.750000 2.246000
v -9.318000 -11.750000 4.513000
v -8.818000 -11.750000 2.008000
v -8.818000 -11.750000 4.823000
v -8.818000 -11.750000 7.015000
v -8.818000 -11.750000 8.261000
v -8.318000 -11.750000 2.015000
v -8.318000 -11.750000 4.841000
v -8.318000 -11.750000 6.986000
v -8.318000 -11.750000 8.290000
v -7.818000 -11.750000 2.275000
v -7.818000 -11.750000 4.575000
v -11.818000 -7.750000 11.087000
v -11.818000 -7.750000 12.427000
v -11.818000 -7.750000 12.893000
v -11.818000 -7.750000 17.144000
v -11.318000 -7.750000 9.974000
v -11.318000 -7.750000 17.766000
v -10.818000 -7.750000 8.126000
v -10.818000 -7.750000 17.978000
v -10.318000 -7.750000 0.702000
v -10.318000 -7.750000 2.585000
v -10.318000 -7.750000 7.466000
v -10.318000 -7.750000 17.988000
v -9.818000 -7.750000 0.072000
v -9.818000 -7.750000 2.829000
v -9.818000 -7.750000 7.143000
v -9.818000 -7.750000 17.801000
v -9.318000 -7.750000 -0.361000
v -9.318000 -7.750000 2.826000
v -9.318000 -7.750000 6.974000
v -9.318000 -7.750000 17.262000
v -8.818000 -7.750000 -0.436000
v -8.818000 -7.750000 2.574000
v -8.818000 -7.750000 6.990000
v -8.818000 -7.750000 12.376000
v -8.818000 -7.750000 12.937000
v -8.818000 -7.750000 15.216000
v -8.318000 -7.750000 -0.430000
v -8.318000 -7.750000 1.509000
v -8.318000 -7.750000 7.203000
v -8.318000 -7.750000 11.337000
v -7.818000 -7.750000 7.635000
v -7.818000 -7.750000 10.886000
v -7.318000 -7.750000 8.360000
v -7.318000 -7.750000 10.366000
v -10.818000 -9.657000 1.151000
v -10.818000 -8.173000 1.151000
v -10.318000 -10.191000 1.151000
v -10.318000 -7.483000 1.151000
v -9.818000 -10.508000 1.151000
v -9.818000 -7.271000 1.151000
v -9.318000 -10.750000 1.151000
v -9.318000 -7.273000 1.151000
v -8.818000 -10.957000 1.151000
v -8.818000 -7.447000 1.151000
v -8.318000 -10.948000 1.151000
v -8.318000 -7.659000 1.151000
v -7.818000 -10.714000 1.151000
v -7.818000 -7.925000 1.151000
v -7.318000 -10.109000 1.151000
v -7.318000 -8.756000 1.151000
v -9.818000 -10.729000 5.151000
v -9.818000 -9.058000 5.151000
v -9.318000 -11.283000 5.151000
v -9.318000 -8.443000 5.151000
v -8.818000 -11.536000 5.151000
v -8.818000 -8.244000 5.151000
v -8.318000 -11.542000 5.151000
v -8.318000 -8.201000 5.151000
v -7.818000 -11.402000 5.151000
v -7.818000 -8.218000 5.151000
v -7.318000 -10.962000 5.151000
v -7.318000 -8.450000 5.151000
v -6.818000 -9.770000 5.151000
v -6.818000 -9.241000 5.151000
v -10.818000 -9.180000 9.151000
v -10.818000 -5.498000 9.151000
v -10.318000 -9.720000 9.151000
v -10.318000 -5.216000 9.151000
v -9.818000 -10.135000 9.151000
v -9.818000 -5.105000 9.151000
v -9.318000 -10.577000 9.151000
v -9.318000 -5.114000 9.151000
v -8.818000 -10.926000 9.151000
v -8.818000 -5.313000 9.151000
v -8.318000 -10.931000 9.151000
v -8.318000 -5.824000 9.151000
v -7.818000 -10.615000 9.151000
v -7.818000 -6.310000 9.151000
v -7.318000 -10.264000 9.151000
v -7.318000 -6.856000 9.151000
v -11.818000 -7.888000 13.151000
v -11.818000 -5.427000 13.151000
v -11.318000 -8.580000 13.151000
v -11.318000 -4.855000 13.151000
v -10.818000 -8.799000 13.151000
v -10.818000 -4.639000 13.151000
v -10.318000 -8.815000 13.151000
v -10.318000 -4.622000 13.151000
v -9.818000 -8.786000 13.151000
v -9.818000 -4.796000 13.151000
v -9.318000 -8.553000 13.151000
v -9.318000 -5.275000 13.151000
v -8.818000 -7.820000 13.151000
v -8.818000 -5.846000 13.151000
v -11.818000 -8.881000 17.151000
v -11.818000 -7.763000 17.151000
v -11.318000 -9.667000 17.151000
v -11.318000 -6.796000 17.151000
v -10.818000 -9.978000 17.151000
v -10.818000 -6.495000 17.151000
v -10.318000 -9.988000 17.151000
v -10.318000 -6.500000 17.151000
v -9.818000 -9.709000 17.151000
v -9.818000 -6.817000 17.151000
v -9.318000 -8.784000 17.151000
v -9.318000 -7.563000 17.151000
v -8.983000 -11.250000 1.651000
v -8.211000 -11.250000 1.651000
v -9.570000 -11.250000 2.151000
v -7.614000 -11.250000 2.151000
v -9.865000 -11.250000 2.651000
v -7.306000 -11.250000 2.651000
v -9.956000 -11.250000 3.151000
v -7.215000 -11.250000 3.151000
v -9.904000 -11.250000 3.651000
v -7.168000 -11.250000 3.651000
v -9.816000 -11.250000 4.151000
v -7.254000 -11.250000 4.151000
v -9.588000 -11.250000 4.651000
v -7.449000 -11.250000 4.651000
v -9.357000 -11.250000 5.151000
v -7.594000 -11.250000 5.151000
v -9.248000 -11.250000 5.651000
v -7.578000 -11.250000 5.651000
v -9.302000 -11.250000 6.151000
v -7.421000 -11.250000 6.151000
v -9.399000 -11.250000 6.651000
v -7.424000 -11.250000 6.651000
v -9.641000 -11.250000 7.151000
v -7.378000 -11.250000 7.151000
v -9.769000 -11.250000 7.651000
v -7.330000 -11.250000 7.651000
v -9.632000 -11.250000 8.151000
v -7.446000 -11.250000 8.151000
v -9.179000 -11.250000 8.651000
v -7.887000 -11.250000 8.651000
v -10.125000 -7.250000 1.651000
v -9.025000 -7.250000 1.651000
v -9.890000 -7.250000 2.151000
v -9.260000 -7.250000 2.151000
v -10.583000 -7.250000 7.651000
v -8.350000 -7.250000 7.651000
v -10.894000 -7.250000 8.151000
v -7.572000 -7.250000 8.151000
v -10.976000 -7.250000 8.651000
v -7.262000 -7.250000 8.651000
v -11.062000 -7.250000 9.151000
v -7.183000 -7.250000 9.151000
v -11.303000 -7.250000 9.651000
v -7.199000 -7.250000 9.651000
v -11.494000 -7.250000 10.151000
v -7.305000 -7.250000 10.151000
v -11.796000 -7.250000 10.651000
v -7.664000 -7.250000 10.651000
v -11.916000 -7.250000 11.151000
v -8.134000 -7.250000 11.151000
v -11.964000 -7.250000 11.651000
v -8.502000 -7.250000 11.651000
v -11.939000 -7.250000 12.151000
v -8.654000 -7.250000 12.151000
v -11.926000 -7.250000 12.651000
v -8.652000 -7.250000 12.651000
v -12.072000 -7.250000 13.151000
v -8.693000 -7.250000 13.151000
v -12.353000 -7.250000 13.651000
v -8.658000 -7.250000 13.651000
v -12.455000 -7.250000 14.151000
v -8.680000 -7.250000 14.151000
v -12.371000 -7.250000 14.651000
v -8.672000 -7.250000 14.651000
v -12.155000 -7.250000 15.151000
v -8.784000 -7.250000 15.151000
v -12.017000 -7.250000 15.651000
v -9.060000 -7.250000 15.651000
v -11.964000 -7.250000 16.151000
v -9.190000 -7.250000 16.151000
v -11.875000 -7.250000 16.651000
v -9.279000 -7.250000 16.651000
v -11.614000 -7.250000 17.151000
v -9.482000 -7.250000 17.151000
v -11.134000 -7.250000 17.651000
v -9.949000 -7.250000 17.651000
v -9.818000 -11.250000 2.543000
v -9.818000 -11.250000 4.145000
v -9.318000 -11.250000 1.881000
v -9.318000 -11.250000 5.270000
v -9.318000 -11.250000 6.352000
v -9.318000 -11.250000 8.545000
v -8.818000 -11.250000 1.590000
v -8.818000 -11.250000 8.818000
v -8.318000 -11.250000 1.608000
v -8.318000 -11.250000 8.831000
v -7.818000 -11.250000 1.927000
v -7.818000 -11.250000 8.604000
v -7.318000 -11.250000 2.620000
v -7.318000 -11.250000 4.323000
v -12.318000 -7.250000 13.574000
v -12.318000 -7.250000 14.776000
v -11.818000 -7.250000 10.705000
v -11.818000 -7.250000 16.780000
v -11.318000 -7.250000 9.689000
v -11.318000 -7.250000 17.518000
v -10.818000 -7.250000 7.977000
v -10.818000 -7.250000 17.777000
v -10.318000 -7.250000 7.438000
v -10.318000 -7.250000 17.789000
v -9.818000 -7.250000 1.201000
v -9.818000 -7.250000 2.193000
v -9.818000 -7.250000 7.223000
v -9.818000 -7.250000 17.563000
v -9.318000 -7.250000 1.208000
v -9.318000 -7.250000 2.186000
v -9.318000 -7.250000 7.165000
v -9.318000 -7.250000 16.768000
v -8.818000 -7.250000 7.317000
v -8.818000 -7.250000 15.225000
v -8.318000 -7.250000 7.670000
v -8.318000 -7.250000 11.357000
v -7.818000 -7.250000 7.936000
v -7.818000 -7.250000 10.796000
v -7.318000 -7.250000 8.514000
v -7.318000 -7.250000 10.181000
v -10.818000 -9.423000 1.651000
v -10.818000 -7.895000 1.651000
v -10.318000 -10.165000 1.651000
v -10.318000 -7.351000 1.651000
v -9.818000 -10.649000 1.651000
v -9.818000 -7.159000 1.651000
v -9.318000 -11.060000 1.651000
v -9.318000 -7.161000 1.651000
v -8.818000 -11.301000 1.651000
v -8.818000 -7.359000 1.651000
v -8.318000 -11.287000 1.651000
v -8.318000 -7.787000 1.651000
v -7.818000 -11.009000 1.651000
v -7.818000 -8.228000 1.651000
v -7.318000 -10.232000 1.651000
v -7.318000 -9.121000 1.651000
v -9.818000 -10.709000 5.651000
v -9.818000 -8.865000 5.651000
v -9.318000 -11.211000 5.651000
v -9.318000 -8.348000 5.651000
v -8.818000 -11.406000 5.651000
v -8.818000 -8.164000 5.651000
v -8.318000 -11.402000 5.651000
v -8.318000 -8.121000 5.651000
v -7.818000 -11.344000 5.651000
v -7.818000 -8.135000 5.651000
v -7.318000 -11.087000 5.651000
v -7.318000 -8.348000 5.651000
v -6.818000 -10.396000 5.651000
v -6.818000 -8.963000 5.651000
v -11.318000 -7.123000 9.651000
v -11.318000 -5.369000 9.651000
v -10.818000 -9.082000 9.651000
v -10.818000 -5.052000 9.651000
v -10.318000 -9.550000 9.651000
v -10.318000 -4.993000 9.651000
v -9.818000 -9.762000 9.651000
v -9.818000 -5.047000 9.651000
v -9.318000 -9.927000 9.651000
v -9.318000 -5.195000 9.651000
v -8.818000 -9.978000 9.651000
v -8.818000 -5.448000 9.651000
v -8.318000 -9.952000 9.651000
v -8.318000 -5.961000 9.651000
v -7.818000 -9.680000 9.651000
v -7.818000 -6.316000 9.651000
v -7.318000 -8.884000 9.651000
v -7.318000 -6.880000 9.651000
v -12.318000 -7.405000 13.651000
v -12.318000 -6.263000 13.651000
v -11.818000 -8.181000 13.651000
v -11.818000 -5.361000 13.651000
v -11.318000 -8.767000 13.651000
v -11.318000 -4.820000 13.651000
v -10.818000 -9.006000 13.651000
v -10.818000 -4.620000 13.651000
v -10.318000 -9.017000 13.651000
v -10.318000 -4.616000 13.651000
v -9.818000 -8.975000 13.651000
v -9.818000 -4.807000 13.651000
v -9.318000 -8.727000 13.651000
v -9.318000 -5.301000 13.651000
v -8.818000 -8.032000 13.651000
v -8.818000 -5.945000 13.651000
v -11.318000 -9.092000 17.651000
v -11.318000 -7.443000 17.651000
v -10.818000 -9.413000 17.651000
v -10.818000 -7.086000 17.651000
v -10.318000 -9.405000 17.651000
v -10.318000 -7.071000 17.651000
v -9.818000 -9.058000 17.651000
v -9.818000 -7.374000 17.651000
v -8.924000 -10.750000 0.651000
v -8.228000 -10.750000 0.651000
v -9.318000 -10.750000 1.151000
v -7.870000 -10.750000 1.151000
v -9.693000 -10.750000 1.651000
v -7.566000 -10.750000 1.651000
v -9.892000 -10.750000 2.151000
v -7.393000 -10.750000 2.151000
v -9.998000 -10.750000 2.651000
v -7.237000 -10.750000 2.651000
v -9.985000 -10.750000 3.151000
v -7.149000 -10.750000 3.151000
v -9.978000 -10.750000 3.651000
v -7.150000 -10.750000 3.651000
v -9.904000 -10.750000 4.151000
v -7.144000 -10.750000 4.151000
v -9.832000 -10.750000 4.651000
v -7.207000 -10.750000 4.651000
v -9.806000 -10.750000 5.151000
v -7.184000 -10.750000 5.151000
v -9.794000 -10.750000 5.651000
v -6.992000 -10.750000 5.651000
v -9.814000 -10.750000 6.151000
v -6.878000 -10.750000 6.151000
v -9.878000 -10.750000 6.651000
v -6.902000 -10.750000 6.651000
v -10.127000 -10.750000 7.151000
v -6.912000 -10.750000 7.151000
v -10.236000 -10.750000 7.651000
v -6.913000 -10.750000 7.651000
v -10.128000 -10.750000 8.151000
v -7.025000 -10.750000 8.151000
v -9.710000 -10.750000 8.651000
v -7.417000 -10.750000 8.651000
v -9.154000 -10.750000 9.151000
v -7.965000 -10.750000 9.151000
v -10.570000 -6.750000 7.651000
v -8.606000 -6.750000 7.651000
v -10.890000 -6.750000 8.151000
v -7.873000 -6.750000 8.151000
v -10.982000 -6.750000 8.651000
v -7.473000 -6.750000 8.651000
v -11.079000 -6.750000 9.151000
v -7.380000 -6.750000 9.151000
v -11.362000 -6.750000 9.651000
v -7.391000 -6.750000 9.651000
v -11.652000 -6.750000 10.151000
v -7.516000 -6.750000 10.151000
v -11.865000 -6.750000 10.651000
v -7.956000 -6.750000 10.651000
v -11.949000 -6.750000 11.151000
v -8.335000 -6.750000 11.151000
v -11.956000 -6.750000 11.651000
v -8.573000 -6.750000 11.651000
v -11.948000 -6.750000 12.151000
v -8.660000 -6.750000 12.151000
v -11.965000 -6.750000 12.651000
v -8.661000 -6.750000 12.651000
v -12.088000 -6.750000 13.151000
v -8.654000 -6.750000 13.151000
v -12.342000 -6.750000 13.651000
v -8.661000 -6.750000 13.651000
v -12.440000 -6.750000 14.151000
v -8.739000 -6.750000 14.151000
v -12.410000 -6.750000 14.651000
v -8.844000 -6.750000 14.651000
v -12.322000 -6.750000 15.151000
v -8.991000 -6.750000 15.151000
v -12.062000 -6.750000 15.651000
v -9.280000 -6.750000 15.651000
v -11.841000 -6.750000 16.151000
v -9.372000 -6.750000 16.151000
v -11.682000 -6.750000 16.651000
v -9.474000 -6.750000 16.651000
v -11.275000 -6.750000 17.151000
v -9.882000 -6.750000 17.151000
v -9.818000 -10.750000 1.976000
v -9.818000 -10.750000 4.767000
v -9.818000 -10.750000 6.347000
v -9.818000 -10.750000 8.565000
v -9.318000 -10.750000 1.151000
v -9.318000 -10.750000 9.037000
v -8.818000 -10.750000 0.593000
v -8.818000 -10.750000 9.280000
v -8.318000 -10.750000 0.600000
v -8.318000 -10.750000 9.284000
v -7.818000 -10.750000 1.236000
v -7.818000 -10.750000 9.052000
v -7.318000 -10.750000 2.429000
v -7.318000 -10.750000 8.546000
v -12.318000 -6.750000 13.594000
v -12.318000 -6.750000 15.160000
v -11.818000 -6.750000 10.525000
v -11.818000 -6.750000 16.217000
v -11.318000 -6.750000 9.591000
v -11.318000 -6.750000 17.118000
v -10.818000 -6.750000 7.990000
v -10.818000 -6.750000 17.350000
v -10.318000 -6.750000 7.451000
v -10.318000 -6.750000 17.349000
v -9.818000 -6.750000 7.262000
v -9.818000 -6.750000 17.103000
v -9.318000 -6.750000 7.270000
v -9.318000 -6.750000 15.766000
v -8.818000 -6.750000 7.476000
v -8.818000 -6.750000 14.499000
v -8.318000 -6.750000 7.856000
v -8.318000 -6.750000 11.123000
v -7.818000 -6.750000 8.192000
v -7.818000 -6.750000 10.530000
v -10.818000 -8.992000 2.151000
v -10.818000 -8.080000 2.151000
v -10.318000 -10.199000 2.151000
v -10.318000 -7.440000 2.151000
v -9.818000 -10.849000 2.151000
v -9.818000 -7.235000 2.151000
v -9.318000 -11.626000 2.151000
v -9.318000 -7.237000 2.151000
v -8.818000 -11.923000 2.151000
v -8.818000 -7.449000 2.151000
v -8.318000 -11.915000 2.151000
v -8.318000 -7.906000 2.151000
v -7.818000 -11.587000 2.151000
v -7.818000 -8.490000 2.151000
v -7.318000 -10.547000 2.151000
v -7.318000 -9.416000 2.151000
v -9.818000 -10.743000 6.151000
v -9.818000 -8.695000 6.151000
v -9.318000 -11.241000 6.151000
v -9.318000 -8.308000 6.151000
v -8.818000 -11.421000 6.151000
v -8.818000 -8.129000 6.151000
v -8.318000 -11.415000 6.151000
v -8.318000 -8.068000 6.151000
v -7.818000 -11.385000 6.151000
v -7.818000 -8.075000 6.151000
v -7.318000 -11.192000 6.151000
v -7.318000 -8.266000 6.151000
v -6.818000 -10.646000 6.151000
v -6.818000 -8.805000 6.151000
v -11.818000 -6.392000 10.151000
v -11.818000 -5.584000 10.151000
v -11.318000 -8.470000 10.151000
v -11.318000 -4.916000 10.151000
v -10.818000 -9.133000 10.151000
v -10.818000 -4.709000 10.151000
v -10.318000 -9.413000 10.151000
v -10.318000 -4.714000 10.151000
v -9.818000 -9.509000 10.151000
v -9.818000 -4.924000 10.151000
v -9.318000 -9.511000 10.151000
v -9.318000 -5.254000 10.151000
v -8.818000 -9.442000 10.151000
v -8.818000 -5.709000 10.151000
v -8.318000 -9.321000 10.151000
v -8.318000 -6.167000 10.151000
v -7.818000 -9.087000 10.151000
v -7.818000 -6.443000 10.151000
v -7.318000 -8.492000 10.151000
v -7.318000 -7.189000 10.151000
v -12.318000 -7.682000 14.151000
v -12.318000 -5.967000 14.151000
v -11.818000 -8.443000 14.151000
v -11.818000 -5.345000 14.151000
v -11.318000 -9.164000 14.151000
v -11.318000 -4.931000 14.151000
v -10.818000 -9.465000 14.151000
v -10.818000 -4.714000 14.151000
v -10.318000 -9.456000 14.151000
v -10.318000 -4.710000 14.151000
v -9.818000 -9.275000 14.151000
v -9.818000 -4.917000 14.151000
v -9.318000 -9.032000 14.151000
v -9.318000 -5.425000 14.151000
v -8.818000 -8.310000 14.151000
v -8.818000 -6.240000 14.151000
v -9.384000 -10.250000 -0.349000
v -8.248000 -10.250000 -0.349000
v -9.974000 -10.250000 0.151000
v -7.837000 -10.250000 0.151000
v -10.215000 -10.250000 0.651000
v -7.515000 -10.250000 0.651000
v -10.219000 -10.250000 1.151000
v -7.397000 -10.250000 1.151000
v -10.233000 -10.250000 1.651000
v -7.324000 -10.250000 1.651000
v -10.288000 -10.250000 2.151000
v -7.230000 -10.250000 2.151000
v -10.205000 -10.250000 2.651000
v -7.197000 -10.250000 2.651000
v -10.065000 -10.250000 3.151000
v -7.164000 -10.250000 3.151000
v -9.987000 -10.250000 3.651000
v -7.183000 -10.250000 3.651000
v -9.932000 -10.250000 4.151000
v -7.143000 -10.250000 4.151000
v -9.932000 -10.250000 4.651000
v -7.104000 -10.250000 4.651000
v -9.996000 -10.250000 5.151000
v -7.002000 -10.250000 5.151000
v -9.987000 -10.250000 5.651000
v -6.782000 -10.250000 5.651000
v -10.027000 -10.250000 6.151000
v -6.685000 -10.250000 6.151000
v -10.201000 -10.250000 6.651000
v -6.717000 -10.250000 6.651000
v -10.337000 -10.250000 7.151000
v -6.731000 -10.250000 7.151000
v -10.413000 -10.250000 7.651000
v -6.708000 -10.250000 7.651000
v -10.331000 -10.250000 8.151000
v -6.790000 -10.250000 8.151000
v -10.143000 -10.250000 8.651000
v -6.927000 -10.250000 8.651000
v -9.664000 -10.250000 9.151000
v -7.305000 -10.250000 9.151000
v -11.035000 -10.250000 15.151000
v -10.187000 -10.250000 15.151000
v -11.251000 -10.250000 15.651000
v -9.971000 -10.250000 15.651000
v -11.155000 -10.250000 16.151000
v -9.944000 -10.250000 16.151000
v -10.954000 -10.250000 16.651000
v -10.145000 -10.250000 16.651000
v -10.510000 -6.250000 7.651000
v -8.671000 -6.250000 7.651000
v -10.862000 -6.250000 8.151000
v -8.277000 -6.250000 8.151000
v -10.976000 -6.250000 8.651000
v -8.016000 -6.250000 8.651000
v -11.135000 -6.250000 9.151000
v -7.889000 -6.250000 9.151000
v -11.509000 -6.250000 9.651000
v -7.922000 -6.250000 9.651000
v -11.856000 -6.250000 10.151000
v -8.171000 -6.250000 10.151000
v -11.957000 -6.250000 10.651000
v -8.444000 -6.250000 10.651000
v -11.970000 -6.250000 11.151000
v -8.596000 -6.250000 11.151000
v -11.963000 -6.250000 11.651000
v -8.654000 -6.250000 11.651000
v -11.984000 -6.250000 12.151000
v -8.690000 -6.250000 12.151000
v -11.983000 -6.250000 12.651000
v -8.687000 -6.250000 12.651000
v -12.090000 -6.250000 13.151000
v -8.667000 -6.250000 13.151000
v -12.316000 -6.250000 13.651000
v -8.729000 -6.250000 13.651000
v -12.401000 -6.250000 14.151000
v -8.817000 -6.250000 14.151000
v -12.387000 -6.250000 14.651000
v -9.087000 -6.250000 14.651000
v -12.305000 -6.250000 15.151000
v -9.492000 -6.250000 15.151000
v -11.986000 -6.250000 15.651000
v -9.761000 -6.250000 15.651000
v -11.508000 -6.250000 16.151000
v -9.874000 -6.250000 16.151000
v -11.085000 -6.250000 16.651000
v -10.071000 -6.250000 16.651000
v -10.818000 -10.250000 15.024000
v -10.818000 -10.250000 16.742000
v -10.318000 -10.250000 7.070000
v -10.318000 -10.250000 8.195000
v -10.318000 -10.250000 15.060000
v -10.318000 -10.250000 16.759000
v -9.818000 -10.250000 0.056000
v -9.818000 -10.250000 9.047000
v -9.318000 -10.250000 -0.385000
v -9.318000 -10.250000 9.368000
v -8.818000 -10.250000 -0.422000
v -8.818000 -10.250000 9.499000
v -8.318000 -10.250000 -0.386000
v -8.318000 -10.250000 9.492000
v -7.818000 -10.250000 0.178000
v -7.818000 -10.250000 9.383000
v -7.318000 -10.250000 1.673000
v -7.318000 -10.250000 9.161000
v -6.818000 -10.250000 5.566000
v -6.818000 -10.250000 8.263000
v -12.318000 -6.250000 13.657000
v -12.318000 -6.250000 15.110000
v -11.818000 -6.250000 10.066000
v -11.818000 -6.250000 15.822000
v -11.318000 -6.250000 9.439000
v -11.318000 -6.250000 16.365000
v -10.818000 -6.250000 8.054000
v -10.818000 -6.250000 16.825000
v -10.318000 -6.250000 7.506000
v -10.318000 -6.250000 16.818000
v -9.818000 -6.250000 7.317000
v -9.818000 -6.250000 15.834000
v -9.318000 -6.250000 7.325000
v -9.318000 -6.250000 14.937000
v -8.818000 -6.250000 7.535000
v -8.818000 -6.250000 14.156000
v -8.318000 -6.250000 8.088000
v -8.318000 -6.250000 10.384000
v -10.318000 -10.022000 2.651000
v -10.318000 -7.831000 2.651000
v -9.818000 -11.408000 2.651000
v -9.818000 -7.541000 2.651000
v -9.318000 -12.049000 2.651000
v -9.318000 -7.544000 2.651000
v -8.818000 -12.252000 2.651000
v -8.818000 -7.844000 2.651000
v -8.318000 -12.246000 2.651000
v -8.318000 -8.264000 2.651000
v -7.818000 -12.026000 2.651000
v -7.818000 -8.731000 2.651000
v -7.318000 -11.300000 2.651000
v -7.318000 -9.350000 2.651000
v -10.318000 -10.023000 6.651000
v -10.318000 -9.033000 6.651000
v -9.818000 -10.830000 6.651000
v -9.818000 -8.396000 6.651000
v -9.318000 -11.316000 6.651000
v -9.318000 -8.091000 6.651000
v -8.818000 -11.549000 6.651000
v -8.818000 -7.977000 6.651000
v -8.318000 -11.558000 6.651000
v -8.318000 -7.990000 6.651000
v -7.818000 -11.437000 6.651000
v -7.818000 -8.093000 6.651000
v -7.318000 -11.186000 6.651000
v -7.318000 -8.335000 6.651000
v -6.818000 -10.591000 6.651000
v -6.818000 -8.922000 6.651000
v -11.818000 -7.130000 10.651000
v -11.818000 -5.332000 10.651000
v -11.318000 -8.720000 10.651000
v -11.318000 -4.798000 10.651000
v -10.818000 -9.228000 10.651000
v -10.818000 -4.608000 10.651000
v -10.318000 -9.408000 10.651000
v -10.318000 -4.613000 10.651000
v -9.818000 -9.405000 10.651000
v -9.818000 -4.815000 10.651000
v -9.318000 -9.266000 10.651000
v -9.318000 -5.288000 10.651000
v -8.818000 -9.082000 10.651000
v -8.818000 -5.820000 10.651000
v -8.318000 -8.944000 10.651000
v -8.318000 -6.383000 10.651000
v -7.818000 -8.679000 10.651000
v -7.818000 -6.921000 10.651000
v -12.318000 -7.466000 14.651000
v -12.318000 -6.026000 14.651000
v -11.818000 -8.945000 14.651000
v -11.818000 -5.396000 14.651000
v -11.318000 -9.712000 14.651000
v -11.318000 -5.137000 14.651000
v -10.818000 -9.984000 14.651000
v -10.818000 -5.011000 14.651000
v -10.318000 -9.962000 14.651000
v -10.318000 -5.043000 14.651000
v -9.818000 -9.641000 14.651000
v -9.818000 -5.335000 14.651000
v -9.318000 -9.167000 14.651000
v -9.318000 -5.867000 14.651000
v -8.818000 -8.538000 14.651000
v -8.818000 -6.808000 14.651000
v -9.606000 -9.750000 -0.849000
v -7.983000 -9.750000 -0.849000
v -10.214000 -9.750000 -0.349000
v -7.512000 -9.750000 -0.349000
v -10.652000 -9.750000 0.151000
v -7.387000 -9.750000 0.151000
v -10.762000 -9.750000 0.651000
v -7.291000 -9.750000 0.651000
v -10.764000 -9.750000 1.151000
v -7.200000 -9.750000 1.151000
v -10.653000 -9.750000 1.651000
v -7.241000 -9.750000 1.651000
v -10.505000 -9.750000 2.151000
v -7.221000 -9.750000 2.151000
v -10.402000 -9.750000 2.651000
v -7.194000 -9.750000 2.651000
v -10.138000 -9.750000 3.151000
v -7.204000 -9.750000 3.151000
v -9.970000 -9.750000 3.651000
v -7.192000 -9.750000 3.651000
v -9.923000 -9.750000 4.151000
v -7.164000 -9.750000 4.151000
v -9.927000 -9.750000 4.651000
v -7.045000 -9.750000 4.651000
v -9.992000 -9.750000 5.151000
v -6.815000 -9.750000 5.151000
v -10.001000 -9.750000 5.651000
v -6.726000 -9.750000 5.651000
v -10.147000 -9.750000 6.151000
v -6.674000 -9.750000 6.151000
v -10.396000 -9.750000 6.651000
v -6.710000 -9.750000 6.651000
v -10.472000 -9.750000 7.151000
v -6.687000 -9.750000 7.151000
v -10.437000 -9.750000 7.651000
v -6.669000 -9.750000 7.651000
v -10.482000 -9.750000 8.151000
v -6.662000 -9.750000 8.151000
v -10.429000 -9.750000 8.651000
v -6.737000 -9.750000 8.651000
v -10.285000 -9.750000 9.151000
v -7.041000 -9.750000 9.151000
v -9.854000 -9.750000 9.651000
v -7.896000 -9.750000 9.651000
v -11.279000 -9.750000 14.651000
v -9.942000 -9.750000 14.651000
v -11.695000 -9.750000 15.151000
v -9.527000 -9.750000 15.151000
v -11.796000 -9.750000 15.651000
v -9.426000 -9.750000 15.651000
v -11.726000 -9.750000 16.151000
v -9.375000 -9.750000 16.151000
v -11.633000 -9.750000 16.651000
v -9.465000 -9.750000 16.651000
v -11.236000 -9.750000 17.151000
v -9.862000 -9.750000 17.151000
v -10.167000 -5.750000 7.651000
v -9.014000 -5.750000 7.651000
v -10.641000 -5.750000 8.151000
v -8.539000 -5.750000 8.151000
v -10.783000 -5.750000 8.651000
v -8.417000 -5.750000 8.651000
v -11.012000 -5.750000 9.151000
v -8.382000 -5.750000 9.151000
v -11.514000 -5.750000 9.651000
v -8.520000 -5.750000 9.651000
v -11.861000 -5.750000 10.151000
v -8.787000 -5.750000 10.151000
v -11.961000 -5.750000 10.651000
v -8.873000 -5.750000 10.651000
v -11.960000 -5.750000 11.151000
v -8.826000 -5.750000 11.151000
v -11.951000 -5.750000 11.651000
v -8.871000 -5.750000 11.651000
v -11.974000 -5.750000 12.151000
v -8.890000 -5.750000 12.151000
v -11.976000 -5.750000 12.651000
v -8.884000 -5.750000 12.651000
v -11.981000 -5.750000 13.151000
v -8.878000 -5.750000 13.151000
v -12.106000 -5.750000 13.651000
v -8.918000 -5.750000 13.651000
v -12.206000 -5.750000 14.151000
v -9.017000 -5.750000 14.151000
v -12.171000 -5.750000 14.651000
v -9.414000 -5.750000 14.651000
v -12.072000 -5.750000 15.151000
v -9.898000 -5.750000 15.151000
v -11.644000 -5.750000 15.651000
v -10.362000 -5.750000 15.651000
v -11.318000 -9.750000 14.679000
v -11.318000 -9.750000 17.086000
v -10.818000 -9.750000 14.448000
v -10.818000 -9.750000 17.342000
v -10.318000 -9.750000 -0.274000
v -10.318000 -9.750000 2.838000
v -10.318000 -9.750000 6.471000
v -10.318000 -9.750000 9.067000
v -10.318000 -9.750000 14.464000
v -10.318000 -9.750000 17.350000
v -9.818000 -9.750000 -0.704000
v -9.818000 -9.750000 9.669000
v -9.818000 -9.750000 14.748000
v -9.818000 -9.750000 17.118000
v -9.318000 -9.750000 -0.958000
v -9.318000 -9.750000 9.825000
v -8.818000 -9.750000 -0.987000
v -8.818000 -9.750000 9.832000
v -8.318000 -9.750000 -0.978000
v -8.318000 -9.750000 9.801000
v -7.818000 -9.750000 -0.736000
v -7.818000 -9.750000 9.616000
v -7.318000 -9.750000 0.543000
v -7.318000 -9.750000 9.376000
v -6.818000 -9.750000 5.140000
v -6.818000 -9.750000 8.839000
v -11.818000 -5.750000 10.056000
v -11.818000 -5.750000 15.512000
v -11.318000 -5.750000 9.485000
v -11.318000 -5.750000 15.796000
v -10.818000 -5.750000 8.771000
v -10.818000 -5.750000 15.849000
v -10.318000 -5.750000 7.752000
v -10.318000 -5.750000 15.614000
v -9.818000 -5.750000 7.522000
v -9.818000 -5.750000 15.082000
v -9.318000 -5.750000 7.531000
v -9.318000 -5.750000 14.566000
v -8.818000 -5.750000 7.789000
v -8.818000 -5.750000 10.263000
v -9.818000 -9.526000 -0.849000
v -9.818000 -8.485000 -0.849000
v -9.318000 -9.896000 -0.849000
v -9.318000 -8.115000 -0.849000
v -8.818000 -9.929000 -0.849000
v -8.818000 -8.062000 -0.849000
v -8.318000 -9.916000 -0.849000
v -8.318000 -8.064000 -0.849000
v -7.818000 -9.589000 -0.849000
v -7.818000 -8.390000 -0.849000
v -9.818000 -11.625000 3.151000
v -9.818000 -8.417000 3.151000
v -9.318000 -12.155000 3.151000
v -9.318000 -8.211000 3.151000
v -8.818000 -12.343000 3.151000
v -8.818000 -8.305000 3.151000
v -8.318000 -12.337000 3.151000
v -8.318000 -8.518000 3.151000
v -7.818000 -12.133000 3.151000
v -7.818000 -8.787000 3.151000
v -7.318000 -11.558000 3.151000
v -7.318000 -9.368000 3.151000
v -10.318000 -10.308000 7.151000
v -10.318000 -8.773000 7.151000
v -9.818000 -11.084000 7.151000
v -9.818000 -7.727000 7.151000
v -9.318000 -11.580000 7.151000
v -9.318000 -7.306000 7.151000
v -8.818000 -11.810000 7.151000
v -8.818000 -7.573000 7.151000
v -8.318000 -11.824000 7.151000
v -8.318000 -7.786000 7.151000
v -7.818000 -11.631000 7.151000
v -7.818000 -8.039000 7.151000
v -7.318000 -11.197000 7.151000
v -7.318000 -8.329000 7.151000
v -6.818000 -10.563000 7.151000
v -6.818000 -8.882000 7.151000
v -11.818000 -7.858000 11.151000
v -11.818000 -5.354000 11.151000
v -11.318000 -8.667000 11.151000
v -11.318000 -4.826000 11.151000
v -10.818000 -9.135000 11.151000
v -10.818000 -4.639000 11.151000
v -10.318000 -9.328000 11.151000
v -10.318000 -4.645000 11.151000
v -9.818000 -9.314000 11.151000
v -9.818000 -4.849000 11.151000
v -9.318000 -9.087000 11.151000
v -9.318000 -5.256000 11.151000
v -8.818000 -8.670000 11.151000
v -8.818000 -5.763000 11.151000
v -8.318000 -8.241000 11.151000
v -8.318000 -6.784000 11.151000
v -12.318000 -6.771000 15.151000
v -12.318000 -6.319000 15.151000
v -11.818000 -9.527000 15.151000
v -11.818000 -5.496000 15.151000
v -11.318000 -10.114000 15.151000
v -11.318000 -5.260000 15.151000
v -10.818000 -10.304000 15.151000
v -10.818000 -5.241000 15.151000
v -10.318000 -10.287000 15.151000
v -10.318000 -5.421000 15.151000
v -9.818000 -10.055000 15.151000
v -9.818000 -5.831000 15.151000
v -9.318000 -9.342000 15.151000
v -9.318000 -6.414000 15.151000
v -8.818000 -8.170000 15.151000
v -8.818000 -7.107000 15.151000
v -9.945000 -9.250000 -0.849000
v -7.644000 -9.250000 -0.849000
v -10.527000 -9.250000 -0.349000
v -7.293000 -9.250000 -0.349000
v -10.863000 -9.250000 0.151000
v -7.191000 -9.250000 0.151000
v -10.956000 -9.250000 0.651000
v -7.222000 -9.250000 0.651000
v -10.960000 -9.250000 1.151000
v -7.198000 -9.250000 1.151000
v -10.866000 -9.250000 1.651000
v -7.285000 -9.250000 1.651000
v -10.694000 -9.250000 2.151000
v -7.390000 -9.250000 2.151000
v -10.458000 -9.250000 2.651000
v -7.372000 -9.250000 2.651000
v -10.098000 -9.250000 3.151000
v -7.380000 -9.250000 3.151000
v -9.831000 -9.250000 3.651000
v -7.374000 -9.250000 3.651000
v -9.735000 -9.250000 4.151000
v -7.328000 -9.250000 4.151000
v -9.741000 -9.250000 4.651000
v -7.105000 -9.250000 4.651000
v -9.879000 -9.250000 5.151000
v -6.817000 -9.250000 5.151000
v -9.969000 -9.250000 5.651000
v -6.734000 -9.250000 5.651000
v -10.120000 -9.250000 6.151000
v -6.674000 -9.250000 6.151000
v -10.385000 -9.250000 6.651000
v -6.719000 -9.250000 6.651000
v -10.462000 -9.250000 7.151000
v -6.693000 -9.250000 7.151000
v -10.452000 -9.250000 7.651000
v -6.656000 -9.250000 7.651000
v -10.560000 -9.250000 8.151000
v -6.677000 -9.250000 8.151000
v -10.697000 -9.250000 8.651000
v -6.753000 -9.250000 8.651000
v -10.774000 -9.250000 9.151000
v -7.046000 -9.250000 9.151000
v -10.681000 -9.250000 9.651000
v -7.476000 -9.250000 9.651000
v -10.654000 -9.250000 10.151000
v -8.100000 -9.250000 10.151000
v -10.780000 -9.250000 10.651000
v -9.275000 -9.250000 10.651000
v -10.597000 -9.250000 11.151000
v -9.611000 -9.250000 11.151000
v -11.225000 -9.250000 14.151000
v -9.755000 -9.250000 14.151000
v -11.673000 -9.250000 14.651000
v -9.402000 -9.250000 14.651000
v -11.903000 -9.250000 15.151000
v -9.276000 -9.250000 15.151000
v -11.989000 -9.250000 15.651000
v -9.232000 -9.250000 15.651000
v -11.927000 -9.250000 16.151000
v -9.175000 -9.250000 16.151000
v -11.848000 -9.250000 16.651000
v -9.250000 -9.250000 16.651000
v -11.635000 -9.250000 17.151000
v -9.513000 -9.250000 17.151000
v -11.155000 -9.250000 17.651000
v -10.008000 -9.250000 17.651000
v -9.892000 -5.250000 8.151000
v -9.288000 -5.250000 8.151000
v -10.194000 -5.250000 8.651000
v -8.987000 -5.250000 8.651000
v -10.419000 -5.250000 9.151000
v -8.927000 -5.250000 9.151000
v -11.200000 -5.250000 9.651000
v -9.184000 -5.250000 9.651000
v -11.653000 -5.250000 10.151000
v -9.325000 -5.250000 10.151000
v -11.771000 -5.250000 10.651000
v -9.360000 -5.250000 10.651000
v -11.756000 -5.250000 11.151000
v -9.327000 -5.250000 11.151000
v -11.766000 -5.250000 11.651000
v -9.351000 -5.250000 11.651000
v -11.767000 -5.250000 12.151000
v -9.398000 -5.250000 12.151000
v -11.779000 -5.250000 12.651000
v -9.388000 -5.250000 12.651000
v -11.715000 -5.250000 13.151000
v -9.339000 -5.250000 13.151000
v -11.743000 -5.250000 13.651000
v -9.364000 -5.250000 13.651000
v -11.699000 -5.250000 14.151000
v -9.481000 -5.250000 14.151000
v -11.569000 -5.250000 14.651000
v -9.917000 -5.250000 14.651000
v -11.271000 -5.250000 15.151000
v -10.766000 -5.250000 15.151000
v -11.818000 -9.250000 14.950000
v -11.818000 -9.250000 16.735000
v -11.318000 -9.250000 14.217000
v -11.318000 -9.250000 17.541000
v -10.818000 -9.250000 0.049000
v -10.818000 -9.250000 1.790000
v -10.818000 -9.250000 13.962000
v -10.818000 -9.250000 17.776000
v -10.318000 -9.250000 -0.514000
v -10.318000 -9.250000 2.865000
v -10.318000 -9.250000 6.493000
v -10.318000 -9.250000 11.328000
v -10.318000 -9.250000 13.958000
v -10.318000 -9.250000 17.770000
v -9.818000 -9.250000 -0.946000
v -9.818000 -9.250000 3.688000
v -9.818000 -9.250000 4.974000
v -9.818000 -9.250000 11.300000
v -9.818000 -9.250000 14.107000
v -9.818000 -9.250000 17.519000
v -9.318000 -9.250000 -1.156000
v -9.318000 -9.250000 10.694000
v -9.318000 -9.250000 14.928000
v -9.318000 -9.250000 16.812000
v -8.818000 -9.250000 -1.186000
v -8.818000 -9.250000 10.370000
v -8.318000 -9.250000 -1.182000
v -8.318000 -9.250000 10.237000
v -7.818000 -9.250000 -0.984000
v -7.818000 -9.250000 9.951000
v -7.318000 -9.250000 -0.408000
v -7.318000 -9.250000 1.764000
v -7.318000 -9.250000 4.184000
v -7.318000 -9.250000 9.482000
v -6.818000 -9.250000 5.145000
v -6.818000 -9.250000 8.807000
v -11.318000 -5.250000 9.733000
v -11.318000 -5.250000 15.122000
v -10.818000 -5.250000 9.441000
v -10.818000 -5.250000 15.175000
v -10.318000 -5.250000 9.030000
v -10.318000 -5.250000 14.890000
v -9.818000 -5.250000 8.114000
v -9.818000 -5.250000 14.578000
v -9.318000 -5.250000 8.134000
v -9.318000 -5.250000 10.005000
v -10.318000 -9.646000 -0.349000
v -10.318000 -8.360000 -0.349000
v -9.818000 -10.043000 -0.349000
v -9.818000 -7.967000 -0.349000
v -9.318000 -10.266000 -0.349000
v -9.318000 -7.745000 -0.349000
v -8.818000 -10.283000 -0.349000
v -8.818000 -7.711000 -0.349000
v -8.318000 -10.266000 -0.349000
v -8.318000 -7.714000 -0.349000
v -7.818000 -10.053000 -0.349000
v -7.818000 -7.927000 -0.349000
v -7.318000 -9.353000 -0.349000
v -7.318000 -8.626000 -0.349000
v -9.818000 -11.514000 3.651000
v -9.818000 -9.219000 3.651000
v -9.318000 -12.113000 3.651000
v -9.318000 -8.637000 3.651000
v -8.818000 -12.323000 3.651000
v -8.818000 -8.540000 3.651000
v -8.318000 -12.335000 3.651000
v -8.318000 -8.591000 3.651000
v -7.818000 -12.155000 3.651000
v -7.818000 -8.791000 3.651000
v -7.318000 -11.644000 3.651000
v -7.318000 -9.351000 3.651000
v -10.318000 -10.586000 7.651000
v -10.318000 -5.893000 7.651000
v -9.818000 -11.205000 7.651000
v -9.818000 -5.584000 7.651000
v -9.318000 -11.687000 7.651000
v -9.318000 -5.596000 7.651000
v -8.818000 -11.900000 7.651000
v -8.818000 -5.949000 7.651000
v -8.318000 -11.913000 7.651000
v -8.318000 -7.282000 7.651000
v -7.818000 -11.734000 7.651000
v -7.818000 -7.734000 7.651000
v -7.318000 -11.233000 7.651000
v -7.318000 -8.197000 7.651000
v -6.818000 -10.583000 7.651000
v -6.818000 -8.772000 7.651000
v -11.818000 -8.130000 11.651000
v -11.818000 -5.345000 11.651000
v -11.318000 -8.664000 11.651000
v -11.318000 -4.794000 11.651000
v -10.818000 -8.910000 11.651000
v -10.818000 -4.599000 11.651000
v -10.318000 -9.033000 11.651000
v -10.318000 -4.599000 11.651000
v -9.818000 -9.009000 11.651000
v -9.818000 -4.795000 11.651000
v -9.318000 -8.701000 11.651000
v -9.318000 -5.286000 11.651000
v -8.818000 -8.234000 11.651000
v -8.818000 -5.833000 11.651000
v -11.818000 -9.713000 15.651000
v -11.818000 -5.926000 15.651000
v -11.318000 -10.213000 15.651000
v -11.318000 -5.579000 15.651000
v -10.818000 -10.389000 15.651000
v -10.818000 -5.554000 15.651000
v -10.318000 -10.374000 15.651000
v -10.318000 -5.778000 15.651000
v -9.818000 -10.159000 15.651000
v -9.818000 -6.196000 15.651000
v -9.318000 -9.543000 15.651000
v -9.318000 -6.699000 15.651000
v -9.942000 -8.750000 -0.849000
v -7.638000 -8.750000 -0.849000
v -10.525000 -8.750000 -0.349000
v -7.289000 -8.750000 -0.349000
v -10.861000 -8.750000 0.151000
v -7.187000 -8.750000 0.151000
v -10.955000 -8.750000 0.651000
v -7.232000 -8.750000 0.651000
v -10.960000 -8.750000 1.151000
v -7.320000 -8.750000 1.151000
v -10.958000 -8.750000 1.651000
v -7.496000 -8.750000 1.651000
v -10.882000 -8.750000 2.151000
v -7.694000 -8.750000 2.151000
v -10.577000 -8.750000 2.651000
v -7.802000 -8.750000 2.651000
v -9.992000 -8.750000 3.151000
v -7.876000 -8.750000 3.151000
v -9.499000 -8.750000 3.651000
v -7.887000 -8.750000 3.651000
v -9.259000 -8.750000 4.151000
v -7.803000 -8.750000 4.151000
v -9.382000 -8.750000 4.651000
v -7.415000 -8.750000 4.651000
v -9.646000 -8.750000 5.151000
v -7.029000 -8.750000 5.151000
v -9.745000 -8.750000 5.651000
v -6.929000 -8.750000 5.651000
v -9.867000 -8.750000 6.151000
v -6.849000 -8.750000 6.151000
v -10.162000 -8.750000 6.651000
v -6.911000 -8.750000 6.651000
v -10.311000 -8.750000 7.151000
v -6.894000 -8.750000 7.151000
v -10.405000 -8.750000 7.651000
v -6.831000 -8.750000 7.651000
v -10.635000 -8.750000 8.151000
v -6.889000 -8.750000 8.151000
v -10.908000 -8.750000 8.651000
v -6.966000 -8.750000 8.651000
v -10.983000 -8.750000 9.151000
v -7.108000 -8.750000 9.151000
v -11.006000 -8.750000 9.651000
v -7.275000 -8.750000 9.651000
v -11.175000 -8.750000 10.151000
v -7.471000 -8.750000 10.151000
v -11.301000 -8.750000 10.651000
v -7.900000 -8.750000 10.651000
v -11.245000 -8.750000 11.151000
v -8.918000 -8.750000 11.151000
v -11.169000 -8.750000 11.651000
v -9.366000 -8.750000 11.651000
v -10.924000 -8.750000 12.151000
v -9.902000 -8.750000 12.151000
v -10.996000 -8.750000 13.151000
v -9.690000 -8.750000 13.151000
v -11.340000 -8.750000 13.651000
v -9.348000 -8.750000 13.651000
v -11.654000 -8.750000 14.151000
v -9.033000 -8.750000 14.151000
v -11.867000 -8.750000 14.651000
v -8.938000 -8.750000 14.651000
v -11.970000 -8.750000 15.151000
v -9.040000 -8.750000 15.151000
v -11.987000 -8.750000 15.651000
v -9.135000 -8.750000 15.651000
v -11.978000 -8.750000 16.151000
v -9.169000 -8.750000 16.151000
v -11.958000 -8.750000 16.651000
v -9.199000 -8.750000 16.651000
v -11.852000 -8.750000 17.151000
v -9.311000 -8.750000 17.151000
v -11.496000 -8.750000 17.651000
v -9.667000 -8.750000 17.651000
v -10.982000 -4.750000 10.151000
v -10.182000 -4.750000 10.151000
v -11.235000 -4.750000 10.651000
v -9.928000 -4.750000 10.651000
v -11.177000 -4.750000 11.151000
v -9.996000 -4.750000 11.151000
v -11.245000 -4.750000 11.651000
v -9.894000 -4.750000 11.651000
v -11.178000 -4.750000 12.151000
v -10.013000 -4.750000 12.151000
v -11.221000 -4.750000 12.651000
v -9.979000 -4.750000 12.651000
v -11.138000 -4.750000 13.151000
v -9.905000 -4.750000 13.151000
v -11.197000 -4.750000 13.651000
v -9.919000 -4.750000 13.651000
v -10.958000 -4.750000 14.151000
v -10.158000 -4.750000 14.151000
v -11.818000 -8.750000 14.523000
v -11.818000 -8.750000 17.226000
v -11.318000 -8.750000 13.616000
v -11.318000 -8.750000 17.784000
v -10.818000 -8.750000 0.052000
v -10.818000 -8.750000 2.304000
v -10.818000 -8.750000 8.448000
v -10.818000 -8.750000 12.240000
v -10.818000 -8.750000 12.984000
v -10.818000 -8.750000 17.978000
v -10.318000 -8.750000 -0.512000
v -10.318000 -8.750000 2.875000
v -10.318000 -8.750000 7.186000
v -10.318000 -8.750000 12.274000
v -10.318000 -8.750000 12.921000
v -10.318000 -8.750000 17.973000
v -9.818000 -8.750000 -0.944000
v -9.818000 -8.750000 3.309000
v -9.818000 -8.750000 6.033000
v -9.818000 -8.750000 12.090000
v -9.818000 -8.750000 13.037000
v -9.818000 -8.750000 17.767000
v -9.318000 -8.750000 -1.154000
v -9.318000 -8.750000 3.927000
v -9.318000 -8.750000 4.505000
v -9.318000 -8.750000 11.600000
v -9.318000 -8.750000 13.695000
v -9.318000 -8.750000 17.168000
v -8.818000 -8.750000 -1.188000
v -8.818000 -8.750000 11.068000
v -8.318000 -8.750000 -1.186000
v -8.318000 -8.750000 10.818000
v -7.818000 -8.750000 -0.988000
v -7.818000 -8.750000 2.742000
v -7.818000 -8.750000 4.117000
v -7.818000 -8.750000 10.593000
v -7.318000 -8.750000 -0.417000
v -7.318000 -8.750000 1.145000
v -7.318000 -8.750000 4.744000
v -7.318000 -8.750000 9.768000
v -10.818000 -4.750000 10.058000
v -10.818000 -4.750000 14.236000
v -10.318000 -4.750000 10.069000
v -10.318000 -4.750000 14.244000
v -10.818000 -9.418000 0.151000
v -10.818000 -8.588000 0.151000
v -10.318000 -10.082000 0.151000
v -10.318000 -7.925000 0.151000
v -9.818000 -10.289000 0.151000
v -9.818000 -7.718000 0.151000
v -9.318000 -10.396000 0.151000
v -9.318000 -7.631000 0.151000
v -8.818000 -10.489000 0.151000
v -8.818000 -7.607000 0.151000
v -8.318000 -10.470000 0.151000
v -8.318000 -7.612000 0.151000
v -7.818000 -10.236000 0.151000
v -7.818000 -7.806000 0.151000
v -7.318000 -9.625000 0.151000
v -7.318000 -8.355000 0.151000
v -9.818000 -11.240000 4.151000
v -9.818000 -9.414000 4.151000
v -9.318000 -12.009000 4.151000
v -9.318000 -8.788000 4.151000
v -8.818000 -12.237000 4.151000
v -8.818000 -8.605000 4.151000
v -8.318000 -12.249000 4.151000
v -8.318000 -8.593000 4.151000
v -7.818000 -12.055000 4.151000
v -7.818000 -8.741000 4.151000
v -7.318000 -11.451000 4.151000
v -7.318000 -9.269000 4.151000
v -10.818000 -7.795000 8.151000
v -10.818000 -6.090000 8.151000
v -10.318000 -10.292000 8.151000
v -10.318000 -5.438000 8.151000
v -9.818000 -11.085000 8.151000
v -9.818000 -5.235000 8.151000
v -9.318000 -11.568000 8.151000
v -9.318000 -5.243000 8.151000
v -8.818000 -11.800000 8.151000
v -8.818000 -5.469000 8.151000
v -8.318000 -11.815000 8.151000
v -8.318000 -6.172000 8.151000
v -7.818000 -11.620000 8.151000
v -7.818000 -6.804000 8.151000
v -7.318000 -11.073000 8.151000
v -7.318000 -7.968000 8.151000
v -6.818000 -10.334000 8.151000
v -6.818000 -8.866000 8.151000
v -11.818000 -7.938000 12.151000
v -11.818000 -5.333000 12.151000
v -11.318000 -8.570000 12.151000
v -11.318000 -4.823000 12.151000
v -10.818000 -8.774000 12.151000
v -10.818000 -4.643000 12.151000
v -10.318000 -8.782000 12.151000
v -10.318000 -4.651000 12.151000
v -9.818000 -8.728000 12.151000
v -9.818000 -4.859000 12.151000
v -9.318000 -8.389000 12.151000
v -9.318000 -5.316000 12.151000
v -8.818000 -7.829000 12.151000
v -8.818000 -5.873000 12.151000
v -11.818000 -9.585000 16.151000
v -11.818000 -6.695000 16.151000
v -11.318000 -10.158000 16.151000
v -11.318000 -6.110000 16.151000
v -10.818000 -10.361000 16.151000
v -10.818000 -5.966000 16.151000
v -10.318000 -10.368000 16.151000
v -10.318000 -6.039000 16.151000
v -9.818000 -10.182000 16.151000
v -9.818000 -6.285000 16.151000
v -9.318000 -9.654000 16.151000
v -9.318000 -6.849000 16.151000
v -8.832000 -12.250000 2.651000
v -8.339000 -12.250000 2.651000
v -9.135000 -12.250000 3.151000
v -8.036000 -12.250000 3.151000
v -9.060000 -12.250000 3.651000
v -8.010000 -12.250000 3.651000
v -9.591000 -8.250000 -0.849000
v -7.957000 -8.250000 -0.849000
v -10.206000 -8.250000 -0.349000
v -7.498000 -8.250000 -0.349000
v -10.647000 -8.250000 0.151000
v -7.378000 -8.250000 0.151000
v -10.760000 -8.250000 0.651000
v -7.410000 -8.250000 0.651000
v -10.844000 -8.250000 1.151000
v -7.520000 -8.250000 1.151000
v -10.945000 -8.250000 1.651000
v -7.802000 -8.250000 1.651000
v -10.868000 -8.250000 2.151000
v -7.957000 -8.250000 2.151000
v -10.559000 -8.250000 2.651000
v -8.339000 -8.250000 2.651000
v -9.586000 -8.250000 3.151000
v -9.017000 -8.250000 3.151000
v -8.850000 -8.250000 5.151000
v -7.702000 -8.250000 5.151000
v -9.127000 -8.250000 5.651000
v -7.486000 -8.250000 5.651000
v -9.221000 -8.250000 6.151000
v -7.345000 -8.250000 6.151000
v -9.595000 -8.250000 6.651000
v -7.465000 -8.250000 6.651000
v -10.119000 -8.250000 7.151000
v -7.442000 -8.250000 7.151000
v -10.428000 -8.250000 7.651000
v -7.264000 -8.250000 7.651000
v -10.693000 -8.250000 8.151000
v -7.183000 -8.250000 8.151000
v -10.921000 -8.250000 8.651000
v -7.152000 -8.250000 8.651000
v -11.002000 -8.250000 9.151000
v -7.174000 -8.250000 9.151000
v -11.124000 -8.250000 9.651000
v -7.155000 -8.250000 9.651000
v -11.378000 -8.250000 10.151000
v -7.237000 -8.250000 10.151000
v -11.497000 -8.250000 10.651000
v -7.556000 -8.250000 10.651000
v -11.626000 -8.250000 11.151000
v -8.325000 -8.250000 11.151000
v -11.747000 -8.250000 11.651000
v -8.833000 -8.250000 11.651000
v -11.650000 -8.250000 12.151000
v -9.171000 -8.250000 12.151000
v -11.544000 -8.250000 12.651000
v -9.200000 -8.250000 12.651000
v -11.638000 -8.250000 13.151000
v -9.027000 -8.250000 13.151000
v -11.767000 -8.250000 13.651000
v -8.921000 -8.250000 13.651000
v -11.926000 -8.250000 14.151000
v -8.803000 -8.250000 14.151000
v -11.997000 -8.250000 14.651000
v -8.724000 -8.250000 14.651000
v -11.978000 -8.250000 15.151000
v -8.834000 -8.250000 15.151000
v -11.966000 -8.250000 15.651000
v -9.077000 -8.250000 15.651000
v -11.990000 -8.250000 16.151000
v -9.164000 -8.250000 16.151000
v -11.960000 -8.250000 16.651000
v -9.163000 -8.250000 16.651000
v -11.856000 -8.250000 17.151000
v -9.265000 -8.250000 17.151000
v -11.505000 -8.250000 17.651000
v -9.614000 -8.250000 17.651000
v -8.818000 -12.250000 2.644000
v -8.818000 -12.250000 4.113000
v -8.318000 -12.250000 2.661000
v -8.318000 -12.250000 4.149000
v -11.818000 -8.250000 13.847000
v -11.818000 -8.250000 17.234000
v -11.318000 -8.250000 10.027000
v -11.318000 -8.250000 17.794000
v -10.818000 -8.250000 1.048000
v -10.818000 -8.250000 2.273000
v -10.818000 -8.250000 8.382000
v -10.818000 -8.250000 17.992000
v -10.318000 -8.250000 -0.269000
v -10.318000 -8.250000 2.848000
v -10.318000 -8.250000 7.448000
v -10.318000 -8.250000 17.996000
v -9.818000 -8.250000 -0.695000
v -9.818000 -8.250000 3.084000
v -9.818000 -8.250000 6.827000
v -9.818000 -8.250000 17.805000
v -9.318000 -8.250000 -0.951000
v -9.318000 -8.250000 3.183000
v -9.318000 -8.250000 6.332000
v -9.318000 -8.250000 17.266000
v -8.818000 -8.250000 -0.993000
v -8.818000 -8.250000 3.070000
v -8.818000 -8.250000 5.134000
v -8.818000 -8.250000 11.635000
v -8.818000 -8.250000 14.102000
v -8.818000 -8.250000 15.112000
v -8.318000 -8.250000 -0.991000
v -8.318000 -8.250000 2.632000
v -8.318000 -8.250000 5.031000
v -8.318000 -8.250000 11.146000
v -7.818000 -8.250000 -0.753000
v -7.818000 -8.250000 1.692000
v -7.818000 -8.250000 5.069000
v -7.818000 -8.250000 10.855000
v -7.318000 -8.250000 7.478000
v -7.318000 -8.250000 10.331000
v -10.818000 -9.653000 0.651000
v -10.818000 -8.354000 0.651000
v -10.318000 -10.192000 0.651000
v -10.318000 -7.771000 0.651000
v -9.818000 -10.393000 0.651000
v -9.818000 -7.553000 0.651000
v -9.318000 -10.576000 0.651000
v -9.318000 -7.515000 0.651000
v -8.818000 -10.775000 0.651000
v -8.818000 -7.547000 0.651000
v -8.318000 -10.772000 0.651000
v -8.318000 -7.591000 0.651000
v -7.818000 -10.554000 0.651000
v -7.818000 -7.809000 0.651000
v -7.318000 -9.845000 0.651000
v -7.318000 -8.436000 0.651000
v -9.818000 -10.790000 4.651000
v -9.818000 -9.421000 4.651000
v -9.318000 -11.600000 4.651000
v -9.318000 -8.695000 4.651000
v -8.818000 -11.911000 4.651000
v -8.818000 -8.484000 4.651000
v -8.318000 -11.928000 4.651000
v -8.318000 -8.453000 4.651000
v -7.818000 -11.683000 4.651000
v -7.818000 -8.511000 4.651000
v -7.318000 -11.032000 4.651000
v -7.318000 -8.851000 4.651000
v -10.818000 -9.020000 8.651000
v -10.818000 -5.808000 8.651000
v -10.318000 -9.959000 8.651000
v -10.318000 -5.315000 8.651000
v -9.818000 -10.636000 8.651000
v -9.818000 -5.132000 8.651000
v -9.318000 -11.121000 8.651000
v -9.318000 -5.140000 8.651000
v -8.818000 -11.453000 8.651000
v -8.818000 -5.346000 8.651000
v -8.318000 -11.473000 8.651000
v -8.318000 -5.889000 8.651000
v -7.818000 -11.184000 8.651000
v -7.818000 -6.408000 8.651000
v -7.318000 -10.668000 8.651000
v -7.318000 -7.047000 8.651000
v -6.818000 -10.040000 8.651000
v -6.818000 -9.040000 8.651000
v -11.818000 -7.705000 12.651000
v -11.818000 -5.316000 12.651000
v -11.318000 -8.476000 12.651000
v -11.318000 -4.803000 12.651000
v -10.818000 -8.704000 12.651000
v -10.818000 -4.622000 12.651000
v -10.318000 -8.717000 12.651000
v -10.318000 -4.633000 12.651000
v -9.818000 -8.672000 12.651000
v -9.818000 -4.843000 12.651000
v -9.318000 -8.365000 12.651000
v -9.318000 -5.311000 12.651000
v -8.818000 -7.737000 12.651000
v -8.818000 -5.864000 12.651000
v -11.818000 -9.367000 16.651000
v -11.818000 -7.029000 16.651000
v -11.318000 -10.067000 16.651000
v -11.318000 -6.377000 16.651000
v -10.818000 -10.286000 16.651000
v -10.818000 -6.170000 16.651000
v -10.318000 -10.293000 16.651000
v -10.318000 -6.174000 16.651000
v -9.818000 -10.094000 16.651000
v -9.818000 -6.390000 16.651000
v -9.318000 -9.479000 16.651000
v -9.318000 -7.089000 16.651000
f 311 957 123
f 123 957 955
f 957 1165 955
f 1167 1165 957
f 1167 1379 1165
f 1381 1379 1167
f 1381 312 1379
f 1379 312 124
f 313 757 125
f 125 757 755
f 123 755 757
f 123 757 311
f 25 124 312
f 25 312 27
f 27 314 25
f 25 314 126
f 315 567 127
f 127 567 565
f 125 565 567
f 125 567 313
f 314 225 295
f 128 314 295
f 126 314 128
f 225 316 295
f 317 387 463
f 129 463 387
f 315 129 387
f 127 129 315
f 299 130 128
f 299 128 295
f 295 316 299
f 299 316 318
f 319 195 277
f 317 463 195
f 195 463 277
f 463 385 277
f 385 131 277
f 463 129 385
f 130 299 226
f 320 130 226
f 132 130 320
f 299 318 226
f 279 321 277
f 277 321 319
f 277 131 133
f 277 133 279
f 28 322 116
f 116 134 28
f 134 320 28
f 134 132 320
f 279 196 321
f 469 323 386
f 386 323 133
f 323 196 133
f 196 279 133
f 135 469 386
f 136 26 116
f 322 136 116
f 324 136 322
f 134 116 26
f 469 388 323
f 135 566 469
f 566 388 469
f 566 568 388
f 325 568 566
f 325 566 137
f 1168 326 138
f 1168 138 1166
f 1380 1168 1166
f 1380 1382 1168
f 1380 136 1382
f 1382 136 324
f 137 756 325
f 325 756 758
f 956 758 756
f 956 958 758
f 956 138 958
f 958 138 326
f 327 583 139
f 139 583 581
f 583 771 581
f 773 771 583
f 773 971 771
f 973 971 773
f 973 328 971
f 971 328 140
f 274 209 141
f 329 403 274
f 403 209 274
f 403 401 209
f 139 401 403
f 139 403 327
f 1181 140 328
f 1181 328 1183
f 1183 330 1181
f 1181 330 142
f 274 141 211
f 141 331 211
f 141 143 331
f 329 274 211
f 1389 142 330
f 1389 330 1391
f 1391 332 1389
f 1389 332 144
f 333 143 145
f 333 331 143
f 144 334 146
f 332 334 144
f 335 145 147
f 335 333 145
f 146 336 148
f 334 336 146
f 147 210 335
f 335 210 212
f 337 212 210
f 337 210 149
f 1392 338 150
f 1392 150 1390
f 1390 148 1392
f 1392 148 336
f 149 402 337
f 337 402 404
f 582 663 339
f 404 582 339
f 402 582 404
f 151 663 582
f 1184 340 152
f 1184 152 1182
f 1182 150 1184
f 1184 150 338
f 663 584 339
f 151 772 663
f 772 584 663
f 772 774 584
f 972 774 772
f 972 974 774
f 972 152 974
f 974 152 340
f 341 427 477
f 477 427 669
f 669 427 615
f 669 615 865
f 865 615 811
f 811 342 865
f 343 1199 153
f 153 1199 1197
f 1199 1405 1197
f 1407 1405 1199
f 1407 41 1405
f 43 41 1407
f 43 235 41
f 237 235 43
f 237 341 477
f 425 237 477
f 235 237 425
f 669 613 425
f 669 425 477
f 865 809 613
f 865 613 669
f 342 1019 1081
f 342 1081 154
f 865 342 154
f 809 865 154
f 1019 344 1081
f 345 989 155
f 155 989 987
f 153 987 989
f 153 989 343
f 1081 1017 154
f 1081 344 1017
f 344 156 1017
f 344 346 156
f 347 789 157
f 157 789 787
f 155 787 789
f 155 789 345
f 156 348 158
f 346 348 156
f 654 597 159
f 157 597 654
f 349 157 654
f 347 157 349
f 158 350 160
f 348 350 158
f 466 417 161
f 417 466 159
f 466 654 159
f 466 656 654
f 349 654 656
f 349 656 351
f 1020 352 162
f 1020 162 1018
f 1018 160 1020
f 1020 160 350
f 163 468 161
f 161 468 466
f 658 466 468
f 656 466 658
f 351 656 658
f 351 658 353
f 812 354 164
f 812 164 810
f 810 162 812
f 812 162 352
f 418 468 163
f 165 660 418
f 660 468 418
f 660 658 468
f 858 790 353
f 658 858 353
f 660 858 658
f 355 790 858
f 616 356 166
f 616 166 614
f 614 164 616
f 616 164 354
f 167 662 165
f 165 662 660
f 860 660 662
f 858 660 860
f 1076 990 355
f 858 1076 355
f 860 1076 858
f 357 990 1076
f 428 358 168
f 428 168 426
f 426 166 428
f 428 166 356
f 598 662 167
f 788 860 598
f 598 860 662
f 988 1076 788
f 788 1076 860
f 1076 988 357
f 988 1200 357
f 988 1198 1200
f 1406 1200 1198
f 1406 1408 1200
f 42 1408 1406
f 42 44 1408
f 236 44 42
f 236 238 44
f 236 168 238
f 238 168 358
f 359 253 285
f 285 253 473
f 473 253 443
f 443 360 473
f 361 59 169
f 169 59 57
f 59 359 285
f 251 59 285
f 57 59 251
f 473 441 251
f 473 251 285
f 441 473 360
f 631 441 360
f 629 441 631
f 631 825 629
f 827 825 631
f 827 362 825
f 825 362 170
f 363 1213 1251
f 1251 1213 171
f 1213 1421 171
f 1213 1423 1421
f 169 1421 1423
f 169 1423 361
f 1033 170 362
f 1033 362 1035
f 1035 364 1033
f 1033 364 172
f 1211 173 1251
f 173 363 1251
f 173 365 363
f 1251 171 1211
f 1243 172 364
f 1243 364 1245
f 1245 366 1243
f 1243 366 174
f 367 173 175
f 367 365 173
f 174 368 176
f 366 368 174
f 369 175 177
f 369 367 175
f 1246 370 178
f 1246 178 1244
f 1244 176 1246
f 1246 176 368
f 177 1212 369
f 369 1212 1214
f 371 1214 1212
f 371 1212 179
f 1036 372 180
f 1036 180 1034
f 1034 178 1036
f 1036 178 370
f 179 1422 371
f 371 1422 1424
f 373 1424 1422
f 373 1422 181
f 828 374 182
f 828 182 826
f 826 180 828
f 828 180 372
f 181 58 373
f 373 58 60
f 252 60 58
f 252 254 60
f 442 254 252
f 442 444 254
f 630 444 442
f 630 632 444
f 630 182 632
f 632 182 374
f 1250 1227 183
f 1446 1437 1250
f 1250 1437 1227
f 1446 184 1437
f 1046 1009 185
f 1229 1250 183
f 1229 183 1009
f 375 1229 1009
f 1046 375 1009
f 1250 1229 1439
f 1250 1439 1446
f 73 184 1446
f 1439 73 1446
f 75 73 1439
f 290 267 376
f 267 75 376
f 267 73 75
f 290 186 267
f 840 801 187
f 1011 1046 185
f 1011 185 801
f 377 1011 801
f 840 377 801
f 375 1046 1011
f 269 290 376
f 378 480 457
f 378 457 186
f 269 378 186
f 290 269 186
f 480 188 457
f 189 846 187
f 187 846 840
f 377 840 846
f 377 846 379
f 380 482 480
f 380 480 378
f 188 480 190
f 190 480 482
f 802 846 189
f 1012 379 1062
f 1062 379 191
f 379 846 191
f 846 802 191
f 381 1012 1062
f 270 382 298
f 482 380 270
f 482 270 298
f 458 482 298
f 192 458 298
f 190 482 458
f 1010 1062 191
f 1230 381 1276
f 1276 381 193
f 381 1062 193
f 1062 1010 193
f 1230 1276 1464
f 1230 1464 1440
f 1440 1464 108
f 1440 108 76
f 298 382 76
f 298 76 108
f 268 298 108
f 194 268 108
f 192 298 268
f 1228 1276 193
f 1438 1464 1228
f 1228 1464 1276
f 74 108 1438
f 1438 108 1464
f 194 108 74
f 1048 957 311
f 493 1169 1048
f 1169 957 1048
f 1169 1167 957
f 1169 1381 1167
f 1383 1381 1169
f 1383 494 1381
f 1381 494 312
f 495 759 313
f 313 759 757
f 959 1048 311
f 757 959 311
f 759 959 757
f 493 1048 959
f 27 312 494
f 27 494 29
f 29 496 27
f 27 496 314
f 497 389 459
f 459 389 315
f 389 567 315
f 389 569 567
f 313 567 569
f 313 569 495
f 225 314 496
f 225 496 227
f 227 498 225
f 225 498 316
f 499 197 273
f 497 459 197
f 197 459 273
f 459 387 273
f 387 317 273
f 459 315 387
f 316 500 318
f 498 500 316
f 501 1 79
f 499 273 1
f 1 273 79
f 273 195 79
f 195 319 79
f 273 317 195
f 228 502 320
f 228 320 226
f 226 318 228
f 228 318 500
f 83 503 79
f 79 503 501
f 79 319 321
f 79 321 83
f 30 504 322
f 30 322 28
f 28 320 30
f 30 320 502
f 83 2 503
f 281 505 196
f 196 505 321
f 505 2 321
f 2 83 321
f 323 281 196
f 1384 506 1476
f 1476 324 1384
f 324 504 1384
f 324 322 504
f 281 198 505
f 323 388 281
f 388 198 281
f 388 390 198
f 568 661 507
f 390 568 507
f 388 568 390
f 325 661 568
f 960 508 1074
f 960 1074 326
f 1168 960 326
f 1170 960 1168
f 506 1170 1476
f 1170 1382 1476
f 1170 1168 1382
f 324 1476 1382
f 661 570 507
f 325 758 661
f 758 570 661
f 758 760 570
f 508 760 1074
f 760 958 1074
f 760 758 958
f 326 1074 958
f 509 585 327
f 327 585 583
f 585 773 583
f 775 773 585
f 775 973 773
f 975 973 775
f 328 973 1267
f 973 1185 1267
f 973 975 1185
f 1185 510 1267
f 511 405 329
f 329 405 403
f 327 403 405
f 327 405 509
f 1267 1183 328
f 1267 510 1183
f 510 330 1183
f 510 512 330
f 513 213 331
f 331 213 211
f 329 211 213
f 329 213 511
f 1391 330 512
f 1391 512 1393
f 1393 514 1391
f 1391 514 332
f 515 331 333
f 515 513 331
f 332 516 334
f 514 516 332
f 517 333 335
f 517 515 333
f 334 518 336
f 516 518 334
f 335 212 517
f 517 212 214
f 519 214 212
f 519 212 337
f 1394 520 338
f 1394 338 1392
f 1392 336 1394
f 1394 336 518
f 337 404 519
f 519 404 406
f 521 406 404
f 521 404 339
f 1186 522 340
f 1186 340 1184
f 1184 338 1186
f 1186 338 520
f 339 584 521
f 521 584 586
f 774 586 584
f 774 776 586
f 974 776 774
f 974 976 776
f 974 340 976
f 976 340 522
f 523 617 667
f 667 617 863
f 863 617 813
f 813 524 863
f 525 1409 1447
f 1447 1409 93
f 93 1409 45
f 93 45 289
f 289 45 239
f 289 239 341
f 239 427 341
f 239 429 427
f 429 523 667
f 615 429 667
f 427 429 615
f 863 811 615
f 863 615 667
f 524 1021 1079
f 524 1079 342
f 863 524 342
f 811 863 342
f 1021 526 1079
f 527 1201 343
f 343 1201 1199
f 1201 525 1447
f 1407 1201 1447
f 1199 1201 1407
f 93 43 1407
f 93 1407 1447
f 289 237 43
f 289 43 93
f 289 341 237
f 1079 1019 342
f 526 1231 1289
f 526 1289 344
f 1079 526 344
f 1019 1079 344
f 1231 528 1289
f 529 991 345
f 345 991 989
f 343 989 991
f 343 991 527
f 1291 346 344
f 1291 344 1289
f 1289 528 1291
f 1291 528 530
f 848 789 347
f 345 789 848
f 531 345 848
f 529 345 531
f 346 1291 1232
f 532 346 1232
f 348 346 532
f 1291 530 1232
f 349 852 347
f 347 852 848
f 531 848 852
f 531 852 533
f 1022 534 1088
f 1088 350 1022
f 350 532 1022
f 350 348 532
f 351 854 349
f 349 854 852
f 533 852 854
f 533 854 535
f 352 1020 1088
f 534 352 1088
f 536 352 534
f 350 1088 1020
f 353 856 351
f 351 856 854
f 535 854 856
f 535 856 537
f 814 538 354
f 814 354 812
f 812 352 814
f 814 352 536
f 790 856 353
f 992 537 1072
f 1072 537 355
f 537 856 355
f 856 790 355
f 539 992 1072
f 618 540 356
f 618 356 616
f 616 354 618
f 618 354 538
f 990 1072 355
f 1202 539 1288
f 1288 539 357
f 539 1072 357
f 1072 990 357
f 541 1202 1288
f 430 542 358
f 430 358 428
f 428 356 430
f 430 356 540
f 1200 1288 357
f 1288 1200 541
f 1200 1410 541
f 1200 1408 1410
f 44 1410 1408
f 44 46 1410
f 238 46 44
f 238 240 46
f 238 358 240
f 240 358 542
f 543 255 359
f 359 255 253
f 255 443 253
f 445 443 255
f 360 443 665
f 443 633 665
f 443 445 633
f 633 544 665
f 545 1425 1445
f 1445 1425 361
f 1425 59 361
f 1425 61 59
f 359 59 61
f 359 61 543
f 665 631 360
f 631 665 544
f 829 631 544
f 827 631 829
f 829 546 827
f 827 546 362
f 547 1215 363
f 363 1215 1213
f 1215 545 1445
f 1423 1215 1445
f 1213 1215 1423
f 1445 361 1423
f 1035 362 546
f 1035 546 1037
f 1037 548 1035
f 1035 548 364
f 549 997 1049
f 365 1049 997
f 547 365 997
f 363 365 547
f 1245 364 548
f 1245 548 1247
f 1247 550 1245
f 1245 550 366
f 1055 551 1049
f 1049 551 549
f 1049 365 367
f 1049 367 1055
f 366 552 368
f 550 552 366
f 1061 553 1055
f 1055 553 551
f 1055 367 369
f 1055 369 1061
f 1248 554 370
f 1248 370 1246
f 1246 368 1248
f 1248 368 552
f 1061 998 553
f 1275 555 1214
f 1214 555 369
f 555 998 369
f 998 1061 369
f 371 1275 1214
f 1038 556 372
f 1038 372 1036
f 1036 370 1038
f 1038 370 554
f 1275 1216 555
f 1469 557 1424
f 1424 557 371
f 557 1216 371
f 1216 1275 371
f 373 1469 1424
f 830 558 374
f 830 374 828
f 828 372 830
f 830 372 556
f 1469 1426 557
f 373 60 1469
f 60 1426 1469
f 60 62 1426
f 254 62 60
f 254 256 62
f 444 256 254
f 444 446 256
f 632 446 444
f 632 634 446
f 632 374 634
f 634 374 558
f 1252 1229 375
f 1448 1439 1252
f 1252 1439 1229
f 94 75 1448
f 1448 75 1439
f 94 376 75
f 1050 1011 377
f 1011 1050 375
f 1050 1252 375
f 1050 1258 1252
f 1452 1252 1258
f 1448 1252 1452
f 96 1448 1452
f 94 1448 96
f 376 94 269
f 94 292 269
f 94 96 292
f 292 378 269
f 379 1056 377
f 377 1056 1050
f 1264 1050 1056
f 1258 1050 1264
f 1456 1258 1264
f 1452 1258 1456
f 100 1452 1456
f 96 1452 100
f 294 96 100
f 292 96 294
f 378 292 380
f 380 292 294
f 1012 1056 379
f 381 1270 1012
f 1270 1056 1012
f 1270 1264 1056
f 1460 1264 1270
f 1456 1264 1460
f 104 1456 1460
f 100 1456 104
f 270 294 382
f 294 104 382
f 294 100 104
f 380 294 270
f 1230 1270 381
f 1440 1460 1230
f 1230 1460 1270
f 76 104 1440
f 1440 104 1460
f 382 104 76
f 1254 1169 493
f 1450 1383 1254
f 1254 1383 1169
f 1450 494 1383
f 683 761 495
f 495 761 759
f 761 959 759
f 961 959 761
f 1171 1254 493
f 959 1171 493
f 961 1171 959
f 1254 1171 1385
f 1254 1385 1450
f 684 98 29
f 684 29 494
f 1385 684 494
f 1450 1385 494
f 98 496 29
f 685 199 271
f 271 199 497
f 199 389 497
f 199 391 389
f 391 569 389
f 571 569 391
f 495 569 571
f 495 571 683
f 31 98 684
f 686 296 227
f 686 227 496
f 31 686 496
f 98 31 496
f 296 498 227
f 687 3 77
f 685 271 3
f 3 271 77
f 271 197 77
f 197 499 77
f 271 497 197
f 688 300 296
f 688 296 686
f 498 296 500
f 500 296 300
f 689 1365 1441
f 687 77 1365
f 1365 77 1441
f 77 1 1441
f 1 501 1441
f 77 499 1
f 32 690 110
f 300 688 32
f 300 32 110
f 228 300 110
f 502 228 110
f 500 300 228
f 1441 1366 689
f 691 1366 1441
f 501 691 1441
f 503 691 501
f 1386 692 1472
f 110 690 1386
f 110 1386 1472
f 30 110 1472
f 504 30 1472
f 502 110 30
f 87 693 2
f 693 503 2
f 693 691 503
f 505 87 2
f 506 1384 1472
f 692 506 1472
f 694 506 692
f 504 1472 1384
f 87 4 693
f 283 695 198
f 198 695 505
f 695 4 505
f 4 87 505
f 390 471 283
f 390 283 198
f 507 471 390
f 962 696 508
f 962 508 960
f 1170 962 960
f 1170 1172 962
f 1170 506 1172
f 1172 506 694
f 283 200 695
f 200 283 392
f 392 283 471
f 507 570 471
f 570 392 471
f 570 572 392
f 760 572 570
f 760 762 572
f 760 508 762
f 762 508 696
f 697 777 843
f 843 777 1053
f 1053 777 977
f 977 698 1053
f 699 407 461
f 461 407 509
f 407 585 509
f 407 587 585
f 587 697 843
f 775 587 843
f 585 587 775
f 1053 975 775
f 1053 775 843
f 975 1053 698
f 1187 975 698
f 1185 975 1187
f 1187 700 1185
f 1185 700 510
f 701 215 275
f 699 461 215
f 215 461 275
f 461 405 275
f 405 511 275
f 461 509 405
f 700 1395 1463
f 512 700 1463
f 510 700 512
f 1395 702 1463
f 213 513 275
f 513 701 275
f 513 703 701
f 275 511 213
f 1463 1393 512
f 1463 702 1393
f 702 514 1393
f 702 704 514
f 705 513 515
f 705 703 513
f 514 706 516
f 704 706 514
f 707 515 517
f 707 705 515
f 516 708 518
f 706 708 516
f 517 214 707
f 707 214 216
f 709 216 214
f 709 214 519
f 1396 710 520
f 1396 520 1394
f 1394 518 1396
f 1396 518 708
f 519 406 709
f 709 406 408
f 711 408 406
f 711 406 521
f 1188 712 522
f 1188 522 1186
f 1186 520 1188
f 1188 520 710
f 521 586 711
f 711 586 588
f 776 588 586
f 776 778 588
f 976 778 776
f 976 978 778
f 976 522 978
f 978 522 712
f 713 431 475
f 475 431 523
f 431 617 523
f 431 619 617
f 619 813 617
f 815 813 619
f 815 714 813
f 813 714 524
f 715 1411 525
f 525 1411 1409
f 1411 45 1409
f 47 45 1411
f 47 239 45
f 241 239 47
f 241 713 475
f 429 241 475
f 239 241 429
f 475 523 429
f 1021 524 714
f 1021 714 1023
f 1023 716 1021
f 1021 716 526
f 717 1203 527
f 527 1203 1201
f 525 1201 1203
f 525 1203 715
f 1231 526 716
f 1231 716 1233
f 1233 718 1231
f 1231 718 528
f 719 993 529
f 529 993 991
f 527 991 993
f 527 993 717
f 528 720 530
f 718 720 528
f 721 529 531
f 721 719 529
f 1234 722 532
f 1234 532 1232
f 1232 530 1234
f 1234 530 720
f 723 531 533
f 723 721 531
f 1024 724 534
f 1024 534 1022
f 1022 532 1024
f 1024 532 722
f 994 723 1068
f 723 535 1068
f 723 533 535
f 725 994 1068
f 816 726 876
f 876 536 816
f 536 724 816
f 536 534 724
f 537 1070 535
f 535 1070 1068
f 725 1068 1070
f 725 1070 727
f 620 728 682
f 876 726 620
f 876 620 682
f 814 876 682
f 538 814 682
f 536 876 814
f 992 1070 537
f 1204 727 1284
f 1284 727 539
f 727 1070 539
f 1070 992 539
f 729 1204 1284
f 432 730 492
f 682 728 432
f 682 432 492
f 618 682 492
f 540 618 492
f 538 682 618
f 1202 1284 539
f 1412 729 1480
f 1480 729 541
f 729 1284 541
f 1284 1202 541
f 1412 1480 122
f 1412 122 48
f 48 122 310
f 48 310 242
f 492 730 242
f 492 242 310
f 430 492 310
f 542 430 310
f 540 492 430
f 1410 1480 541
f 46 122 1410
f 1410 122 1480
f 240 310 46
f 46 310 122
f 542 310 240
f 731 257 543
f 543 257 255
f 257 445 255
f 447 445 257
f 447 633 445
f 635 633 447
f 635 732 633
f 633 732 544
f 733 1217 1249
f 1249 1217 545
f 1217 1425 545
f 1217 1427 1425
f 1427 61 1425
f 63 61 1427
f 543 61 63
f 543 63 731
f 829 544 732
f 829 732 831
f 831 734 829
f 829 734 546
f 735 999 1045
f 733 1249 999
f 999 1249 1045
f 1249 1215 1045
f 1215 547 1045
f 1249 545 1215
f 1037 546 734
f 1037 734 1039
f 1039 736 1037
f 1037 736 548
f 737 791 839
f 735 1045 791
f 791 1045 839
f 1045 997 839
f 997 549 839
f 1045 547 997
f 738 1290 1247
f 548 738 1247
f 736 738 548
f 1290 550 1247
f 845 739 839
f 839 739 737
f 839 549 551
f 839 551 845
f 740 1292 1290
f 740 1290 738
f 550 1290 552
f 552 1290 1292
f 845 792 739
f 741 792 845
f 551 741 845
f 553 741 551
f 1040 742 1086
f 1292 740 1040
f 1292 1040 1086
f 1248 1292 1086
f 554 1248 1086
f 552 1292 1248
f 553 998 741
f 741 998 1000
f 743 1000 998
f 743 998 555
f 832 744 874
f 1086 742 832
f 1086 832 874
f 1038 1086 874
f 556 1038 874
f 554 1086 1038
f 555 1216 743
f 743 1216 1218
f 745 1218 1216
f 745 1216 557
f 448 746 488
f 448 488 680
f 448 680 636
f 874 744 636
f 874 636 680
f 830 874 680
f 558 830 680
f 556 874 830
f 557 1426 745
f 745 1426 1428
f 62 1428 1426
f 62 64 1428
f 256 64 62
f 256 258 64
f 746 258 488
f 258 446 488
f 258 256 446
f 634 680 446
f 446 680 488
f 558 680 634
f 877 947 1057
f 1057 947 1265
f 1265 947 1157
f 1157 878 1265
f 879 747 851
f 877 1057 747
f 1057 851 747
f 1057 1063 851
f 1057 1271 1063
f 1057 1265 1271
f 1371 1461 878
f 1461 1265 878
f 1461 1271 1265
f 1371 880 1461
f 853 881 851
f 851 881 879
f 851 1067 853
f 851 1063 1067
f 1063 1277 1067
f 1063 1271 1277
f 1271 1465 1277
f 1271 1461 1465
f 1461 880 1465
f 1465 880 882
f 855 883 853
f 853 883 881
f 853 1069 855
f 853 1067 1069
f 1067 1279 1069
f 1067 1277 1279
f 1277 1471 1279
f 1277 1465 1471
f 1465 882 1471
f 1471 882 884
f 855 748 883
f 748 855 885
f 855 1071 885
f 855 1069 1071
f 1069 1281 1071
f 1069 1279 1281
f 886 1281 1372
f 1281 1471 1372
f 1281 1279 1471
f 1471 884 1372
f 1071 948 885
f 948 1071 1158
f 1158 1071 1281
f 1281 886 1158
f 842 761 683
f 1052 961 842
f 842 961 761
f 1260 1171 1052
f 1052 1171 961
f 1454 1385 1260
f 1260 1385 1171
f 1454 684 1385
f 887 201 685
f 685 201 199
f 201 391 199
f 393 391 201
f 393 571 391
f 573 571 393
f 763 842 683
f 571 763 683
f 573 763 571
f 842 763 963
f 842 963 1052
f 1052 963 1173
f 1052 1173 1260
f 1260 1173 888
f 1458 1260 888
f 1454 1260 1458
f 684 1454 31
f 1454 102 31
f 1454 1458 102
f 102 686 31
f 889 5 687
f 687 5 3
f 685 3 5
f 685 5 887
f 1387 1458 888
f 1458 1387 890
f 106 1458 890
f 102 1458 106
f 686 102 688
f 688 102 106
f 891 1367 689
f 689 1367 1365
f 687 1365 1367
f 687 1367 889
f 1388 892 1466
f 106 890 1388
f 106 1388 1466
f 32 106 1466
f 690 32 1466
f 688 106 32
f 1443 893 1366
f 893 689 1366
f 893 891 689
f 691 1443 1366
f 692 1386 1466
f 892 692 1466
f 894 692 892
f 690 1466 1386
f 1443 1368 893
f 895 1368 1443
f 691 895 1443
f 693 895 691
f 1174 896 1282
f 1282 694 1174
f 694 894 1174
f 694 692 894
f 693 4 895
f 895 4 6
f 897 6 4
f 897 4 695
f 964 898 696
f 964 696 962
f 896 964 1282
f 964 1172 1282
f 964 962 1172
f 694 1282 1172
f 695 200 897
f 897 200 202
f 392 202 200
f 392 394 202
f 572 394 392
f 572 574 394
f 762 574 572
f 762 764 574
f 762 696 764
f 764 696 898
f 899 589 647
f 647 589 697
f 589 777 697
f 589 779 777
f 779 977 777
f 979 977 779
f 979 900 977
f 977 900 698
f 901 409 699
f 699 409 407
f 409 899 647
f 587 409 647
f 407 409 587
f 647 697 587
f 1187 698 900
f 1187 900 1189
f 700 1187 1459
f 1187 1397 1459
f 1187 1189 1397
f 1459 1397 103
f 103 1397 33
f 33 902 103
f 903 217 701
f 701 217 215
f 699 215 217
f 699 217 901
f 1459 1395 700
f 107 702 1395
f 1459 107 1395
f 103 107 1459
f 103 902 107
f 107 902 904
f 905 13 81
f 703 81 13
f 903 703 13
f 701 703 903
f 111 704 702
f 111 702 107
f 107 904 111
f 111 904 906
f 85 907 81
f 81 907 905
f 81 703 705
f 81 705 85
f 704 111 34
f 908 704 34
f 706 704 908
f 111 906 34
f 85 14 907
f 909 14 85
f 705 909 85
f 707 909 705
f 706 910 708
f 908 910 706
f 707 216 909
f 909 216 218
f 911 218 216
f 911 216 709
f 1398 912 710
f 1398 710 1396
f 1396 708 1398
f 1398 708 910
f 709 408 911
f 911 408 410
f 913 410 408
f 913 408 711
f 1190 914 712
f 1190 712 1188
f 1188 710 1190
f 1190 710 912
f 711 588 913
f 913 588 590
f 778 590 588
f 778 780 590
f 978 780 778
f 978 980 780
f 978 712 980
f 980 712 914
f 915 49 89
f 89 49 287
f 287 49 243
f 287 243 713
f 243 431 713
f 243 433 431
f 433 619 431
f 621 619 433
f 621 815 619
f 817 815 621
f 817 916 815
f 815 916 714
f 917 1413 715
f 715 1413 1411
f 1413 915 89
f 47 1413 89
f 1411 1413 47
f 287 241 47
f 287 47 89
f 287 713 241
f 1023 714 916
f 1023 916 1025
f 1025 918 1023
f 1023 918 716
f 919 1205 717
f 717 1205 1203
f 715 1203 1205
f 715 1205 917
f 1233 716 918
f 1233 918 1235
f 1235 920 1233
f 1233 920 718
f 921 995 719
f 719 995 993
f 717 993 995
f 717 995 919
f 718 922 720
f 920 922 718
f 923 719 721
f 923 921 719
f 1236 924 722
f 1236 722 1234
f 1234 720 1236
f 1236 720 922
f 996 923 1064
f 923 723 1064
f 923 721 723
f 925 996 1064
f 1026 926 724
f 1026 724 1024
f 1024 722 1026
f 1026 722 924
f 994 1064 723
f 1206 925 1278
f 1278 925 725
f 925 1064 725
f 1064 994 725
f 927 1206 1278
f 818 928 726
f 818 726 816
f 816 724 818
f 818 724 926
f 727 1280 725
f 725 1280 1278
f 1474 1414 927
f 1278 1474 927
f 1280 1474 1278
f 929 1414 1474
f 434 930 490
f 434 490 728
f 620 434 728
f 622 434 620
f 620 726 622
f 622 726 928
f 1204 1280 727
f 729 1478 1204
f 1478 1280 1204
f 1478 1474 1280
f 120 50 929
f 1474 120 929
f 1478 120 1474
f 50 120 308
f 50 308 244
f 490 930 244
f 490 244 308
f 432 490 308
f 730 432 308
f 728 490 432
f 1412 1478 729
f 48 120 1412
f 1412 120 1478
f 242 308 48
f 48 308 120
f 730 308 242
f 286 257 731
f 931 449 286
f 449 257 286
f 449 447 257
f 666 635 932
f 635 449 932
f 635 447 449
f 666 732 635
f 933 1001 1043
f 1043 1001 733
f 1001 1217 733
f 1001 1219 1217
f 1219 1427 1217
f 1429 1427 1219
f 1429 63 1427
f 65 63 1429
f 259 286 731
f 63 259 731
f 65 259 63
f 931 286 259
f 637 666 932
f 831 732 666
f 637 831 666
f 833 831 637
f 833 934 831
f 831 934 734
f 935 793 837
f 933 1043 793
f 793 1043 837
f 1043 999 837
f 999 735 837
f 1043 733 999
f 936 1080 1039
f 734 936 1039
f 934 936 734
f 1080 736 1039
f 937 599 645
f 935 837 599
f 599 837 645
f 837 791 645
f 791 737 645
f 837 735 791
f 1041 1080 936
f 1041 938 1080
f 938 736 1080
f 938 738 736
f 649 939 645
f 645 939 937
f 645 737 739
f 645 739 649
f 1042 940 1084
f 1084 740 1042
f 740 938 1042
f 740 738 938
f 649 600 939
f 849 941 792
f 792 941 739
f 941 600 739
f 600 649 739
f 741 849 792
f 834 942 872
f 1084 940 834
f 1084 834 872
f 1040 1084 872
f 742 1040 872
f 740 1084 1040
f 849 794 941
f 1065 943 1000
f 1000 943 741
f 943 794 741
f 794 849 741
f 743 1065 1000
f 638 944 678
f 872 942 638
f 872 638 678
f 832 872 678
f 744 832 678
f 742 872 832
f 1065 1002 943
f 743 1218 1065
f 1218 1002 1065
f 1218 1220 1002
f 1218 745 1470
f 1430 1218 1470
f 1220 1218 1430
f 945 1430 1470
f 450 946 746
f 450 746 448
f 944 450 678
f 450 636 678
f 450 448 636
f 744 678 636
f 1428 1470 745
f 1470 1428 945
f 1428 66 945
f 1428 64 66
f 258 66 64
f 258 260 66
f 258 746 260
f 260 746 946
f 1089 949 1051
f 1051 949 1259
f 1259 949 1159
f 1159 1090 1259
f 1091 749 847
f 1089 1051 749
f 749 1051 847
f 1051 947 847
f 947 877 847
f 1259 1157 947
f 1259 947 1051
f 1090 1373 1457
f 1090 1457 878
f 1259 1090 878
f 1157 1259 878
f 1373 1092 1457
f 1093 559 653
f 1091 847 559
f 559 847 653
f 847 747 653
f 747 879 653
f 847 877 747
f 1457 1371 878
f 1092 19 105
f 1092 105 880
f 1457 1092 880
f 1371 1457 880
f 19 1094 105
f 655 1095 653
f 653 1095 1093
f 653 879 881
f 653 881 655
f 109 882 880
f 109 880 105
f 105 1094 109
f 109 1094 1096
f 657 1097 655
f 655 1097 1095
f 655 881 883
f 655 883 657
f 115 884 882
f 115 882 109
f 109 1096 115
f 115 1096 1098
f 657 560 1097
f 857 1099 748
f 748 1099 883
f 1099 560 883
f 560 657 883
f 885 857 748
f 1372 1475 886
f 115 20 884
f 884 20 1372
f 20 1100 1372
f 1100 1475 1372
f 115 1098 20
f 857 750 1099
f 1073 1101 948
f 948 1101 885
f 1101 750 885
f 750 857 885
f 1158 1285 1073
f 1158 1073 948
f 1475 1374 886
f 886 1374 1158
f 1374 1102 1158
f 1102 1285 1158
f 1475 1100 1374
f 1073 950 1101
f 950 1073 1160
f 1160 1073 1285
f 1285 1102 1160
f 1103 203 887
f 887 203 201
f 203 393 201
f 395 393 203
f 395 573 393
f 575 573 395
f 575 763 573
f 765 763 575
f 765 963 763
f 965 963 765
f 1266 1173 1104
f 1173 965 1104
f 1173 963 965
f 1266 888 1173
f 1105 7 889
f 889 7 5
f 887 5 7
f 887 7 1103
f 1175 1266 1104
f 1106 1462 1387
f 1106 1387 888
f 1175 1106 888
f 1266 1175 888
f 1462 890 1387
f 1107 1369 891
f 891 1369 1367
f 889 1367 1369
f 889 1369 1105
f 892 1388 1462
f 1106 892 1462
f 1108 892 1106
f 890 1462 1388
f 1109 891 893
f 1109 1107 891
f 892 1110 894
f 1108 1110 892
f 893 1368 1109
f 1109 1368 1370
f 1111 1370 1368
f 1111 1368 895
f 1176 1112 896
f 1176 896 1174
f 1174 894 1176
f 1176 894 1110
f 895 6 1111
f 1111 6 8
f 1113 8 6
f 1113 6 897
f 966 1114 898
f 966 898 964
f 964 896 966
f 966 896 1112
f 897 202 1113
f 1113 202 204
f 394 204 202
f 394 396 204
f 574 396 394
f 574 576 396
f 764 576 574
f 764 766 576
f 764 898 766
f 766 898 1114
f 1115 591 899
f 899 591 589
f 591 779 589
f 781 779 591
f 781 979 779
f 981 979 781
f 900 979 1261
f 979 1191 1261
f 979 981 1191
f 1261 1191 1455
f 1455 1191 1399
f 1455 1399 99
f 99 1399 35
f 99 35 293
f 293 35 229
f 293 229 481
f 481 229 419
f 481 419 673
f 673 419 607
f 607 1116 673
f 1117 411 901
f 901 411 409
f 899 409 411
f 899 411 1115
f 1261 1189 900
f 1455 1397 1189
f 1455 1189 1261
f 99 33 1397
f 99 1397 1455
f 297 902 33
f 99 297 33
f 293 297 99
f 293 483 297
f 293 481 483
f 481 675 483
f 481 673 675
f 803 871 1116
f 871 673 1116
f 871 675 673
f 803 1118 871
f 1119 219 903
f 903 219 217
f 901 217 219
f 901 219 1117
f 301 904 902
f 301 902 297
f 297 485 301
f 297 483 485
f 483 677 485
f 483 675 677
f 675 873 677
f 675 871 873
f 871 1118 873
f 873 1118 1120
f 1121 15 905
f 905 15 13
f 903 13 15
f 903 15 1119
f 303 906 904
f 303 904 301
f 301 487 303
f 301 485 487
f 485 679 487
f 485 677 679
f 1122 679 804
f 679 873 804
f 679 677 873
f 873 1120 804
f 1123 905 907
f 1123 1121 905
f 34 117 908
f 303 230 906
f 906 230 34
f 230 1124 34
f 1124 117 34
f 230 303 420
f 420 303 487
f 420 487 608
f 608 487 679
f 679 1122 608
f 907 14 1123
f 1123 14 16
f 1125 16 14
f 1125 14 909
f 119 910 908
f 119 908 117
f 117 1124 119
f 119 1124 1126
f 909 218 1125
f 1125 218 220
f 1127 220 218
f 1127 218 911
f 1398 1479 912
f 119 36 910
f 910 36 1398
f 36 1128 1398
f 1128 1479 1398
f 119 1126 36
f 911 410 1127
f 1127 410 412
f 1129 412 410
f 1129 410 913
f 1192 1130 914
f 1192 914 1190
f 1479 1400 912
f 1400 1190 912
f 1400 1192 1190
f 1479 1128 1400
f 913 590 1129
f 1129 590 592
f 780 592 590
f 780 782 592
f 980 782 780
f 980 982 782
f 980 914 982
f 982 914 1130
f 1131 51 915
f 915 51 49
f 51 243 49
f 245 243 51
f 245 433 243
f 435 433 245
f 435 621 433
f 623 621 435
f 623 817 621
f 819 817 623
f 819 1132 817
f 817 1132 916
f 1133 1415 917
f 917 1415 1413
f 915 1413 1415
f 915 1415 1131
f 1025 916 1132
f 1025 1132 1027
f 1027 1134 1025
f 1025 1134 918
f 1135 1207 919
f 919 1207 1205
f 917 1205 1207
f 917 1207 1133
f 1235 918 1134
f 1235 1134 1237
f 1237 1136 1235
f 1235 1136 920
f 1054 995 921
f 919 995 1054
f 1137 919 1054
f 1135 919 1137
f 920 1138 922
f 1136 1138 920
f 923 1060 921
f 921 1060 1054
f 1137 1054 1060
f 1137 1060 1139
f 1238 1140 924
f 1238 924 1236
f 1236 922 1238
f 1238 922 1138
f 996 1060 923
f 1208 1139 1274
f 1274 1139 925
f 1139 1060 925
f 1060 996 925
f 1141 1208 1274
f 1028 1142 926
f 1028 926 1026
f 1026 924 1028
f 1028 924 1140
f 1206 1274 925
f 1416 1141 1468
f 1468 1141 927
f 1141 1274 927
f 1274 1206 927
f 1143 1416 1468
f 820 1144 928
f 820 928 818
f 818 926 820
f 820 926 1142
f 1414 1468 927
f 52 1143 118
f 118 1143 929
f 1143 1468 929
f 1468 1414 929
f 52 118 306
f 52 306 246
f 246 306 930
f 434 246 930
f 436 246 434
f 622 436 434
f 622 624 436
f 622 928 624
f 624 928 1144
f 50 118 929
f 244 306 50
f 50 306 118
f 930 306 244
f 474 449 931
f 474 932 449
f 1145 1003 933
f 933 1003 1001
f 1003 1219 1001
f 1221 1219 1003
f 1221 1429 1219
f 1431 1429 1221
f 1431 65 1429
f 67 65 1431
f 67 259 65
f 261 259 67
f 451 474 931
f 259 451 931
f 261 451 259
f 637 932 474
f 451 637 474
f 639 637 451
f 864 833 1146
f 833 639 1146
f 833 637 639
f 864 934 833
f 1147 795 935
f 935 795 793
f 933 793 795
f 933 795 1145
f 835 864 1146
f 835 1148 864
f 1148 934 864
f 1148 936 934
f 1149 601 937
f 937 601 599
f 935 599 601
f 935 601 1147
f 1150 1082 1041
f 936 1150 1041
f 1148 1150 936
f 1082 938 1041
f 1151 937 939
f 1151 1149 937
f 836 1152 870
f 1082 1150 836
f 1082 836 870
f 1042 1082 870
f 940 1042 870
f 938 1082 1042
f 939 600 1151
f 1151 600 602
f 1153 602 600
f 1153 600 941
f 942 834 870
f 1152 942 870
f 1154 942 1152
f 940 870 834
f 941 794 1153
f 1153 794 796
f 1155 796 794
f 1155 794 943
f 640 1156 944
f 640 944 638
f 638 942 640
f 640 942 1154
f 943 1002 1155
f 1155 1002 1004
f 1220 1004 1002
f 1220 1222 1004
f 1430 1222 1220
f 1430 1432 1222
f 1430 945 114
f 68 1430 114
f 1432 1430 68
f 68 114 304
f 68 304 262
f 262 304 946
f 450 262 946
f 452 262 450
f 450 944 452
f 452 944 1156
f 66 114 945
f 260 304 66
f 66 304 114
f 946 304 260
f 1293 951 1047
f 1047 951 1253
f 1253 951 1161
f 1161 1294 1253
f 1295 751 841
f 1293 1047 751
f 751 1047 841
f 1047 949 841
f 949 1089 841
f 1253 1159 949
f 1253 949 1047
f 1294 1375 1453
f 1294 1453 1090
f 1253 1294 1090
f 1159 1253 1090
f 1375 1296 1453
f 1297 561 651
f 1295 841 561
f 561 841 651
f 841 749 651
f 749 1091 651
f 841 1089 749
f 1453 1373 1090
f 1296 21 101
f 1296 101 1092
f 1453 1296 1092
f 1373 1453 1092
f 21 1298 101
f 559 1093 651
f 1093 1297 651
f 1093 1299 1297
f 651 1091 559
f 101 19 1092
f 101 1298 19
f 1298 1094 19
f 1298 1300 1094
f 1301 1093 1095
f 1301 1299 1093
f 1094 1302 1096
f 1300 1302 1094
f 1303 1095 1097
f 1303 1301 1095
f 1096 1304 1098
f 1302 1304 1096
f 1097 560 1303
f 1303 560 562
f 1305 562 560
f 1305 560 1099
f 22 1306 1100
f 22 1100 20
f 20 1098 22
f 22 1098 1304
f 1099 750 1305
f 1305 750 752
f 1307 752 750
f 1307 750 1101
f 1376 1308 1102
f 1376 1102 1374
f 1374 1100 1376
f 1376 1100 1306
f 1101 950 1307
f 1307 950 952
f 1160 952 950
f 1160 1162 952
f 1160 1102 1162
f 1162 1102 1308
f 272 203 1103
f 1309 397 272
f 397 203 272
f 397 395 203
f 397 575 395
f 577 575 397
f 577 765 575
f 767 765 577
f 1058 965 1310
f 965 767 1310
f 965 765 767
f 1058 1104 965
f 1311 9 1105
f 1105 9 7
f 205 272 1103
f 7 205 1103
f 9 205 7
f 1309 272 205
f 967 1058 1310
f 1312 1272 1175
f 1312 1175 1104
f 967 1312 1104
f 1058 967 1104
f 1272 1106 1175
f 1442 1369 1107
f 1105 1369 1442
f 1313 1105 1442
f 1311 1105 1313
f 1177 1272 1312
f 1177 1314 1272
f 1314 1106 1272
f 1314 1108 1106
f 1109 1444 1107
f 1107 1444 1442
f 1313 1442 1444
f 1313 1444 1315
f 1108 1316 1110
f 1314 1316 1108
f 1370 1444 1109
f 1315 1444 1370
f 1111 1315 1370
f 1317 1315 1111
f 1176 1283 1112
f 1176 1110 1283
f 1110 1318 1283
f 1110 1316 1318
f 1111 8 1317
f 1317 8 10
f 1319 10 8
f 1319 8 1113
f 968 1320 1114
f 968 1114 966
f 1283 1178 1112
f 1178 966 1112
f 1178 968 966
f 1283 1318 1178
f 1113 204 1319
f 1319 204 206
f 396 206 204
f 396 398 206
f 576 398 396
f 576 578 398
f 766 578 576
f 766 768 578
f 766 1114 768
f 768 1114 1320
f 1321 37 95
f 95 37 291
f 291 37 231
f 291 231 479
f 479 231 421
f 479 421 671
f 671 421 609
f 609 1322 671
f 1323 593 1115
f 1115 593 591
f 593 781 591
f 783 781 593
f 783 981 781
f 983 981 783
f 983 1191 981
f 1193 1191 983
f 1193 1399 1191
f 1401 1399 1193
f 1401 1321 95
f 35 1401 95
f 1399 1401 35
f 291 229 35
f 291 35 95
f 479 419 229
f 479 229 291
f 671 607 419
f 671 419 479
f 1322 805 869
f 1322 869 1116
f 671 1322 1116
f 607 671 1116
f 805 1324 869
f 1325 413 1117
f 1117 413 411
f 1115 411 413
f 1115 413 1323
f 869 803 1116
f 1324 1013 1085
f 1324 1085 1118
f 869 1324 1118
f 803 869 1118
f 1013 1326 1085
f 1327 221 1119
f 1119 221 219
f 1117 219 221
f 1117 221 1325
f 1087 1120 1118
f 1087 1118 1085
f 1085 1326 1087
f 1087 1326 1328
f 1329 17 1121
f 1121 17 15
f 1119 15 17
f 1119 17 1327
f 804 875 1122
f 1087 1014 1120
f 1120 1014 804
f 1014 1330 804
f 1330 875 804
f 1087 1328 1014
f 1331 1121 1123
f 1331 1329 1121
f 230 305 1124
f 420 489 305
f 420 305 230
f 608 681 489
f 608 489 420
f 875 806 1122
f 1122 806 608
f 806 1332 608
f 1332 681 608
f 875 1330 806
f 1123 16 1331
f 1331 16 18
f 1333 18 16
f 1333 16 1125
f 307 1126 1124
f 307 1124 305
f 1334 307 422
f 307 489 422
f 307 305 489
f 422 489 610
f 610 489 681
f 681 1332 610
f 1125 220 1333
f 1333 220 222
f 1335 222 220
f 1335 220 1127
f 38 1336 1128
f 38 1128 36
f 307 232 1126
f 232 36 1126
f 232 38 36
f 307 1334 232
f 1127 412 1335
f 1335 412 414
f 1337 414 412
f 1337 412 1129
f 1194 1338 1130
f 1194 1130 1192
f 1400 1194 1192
f 1400 1402 1194
f 1400 1128 1402
f 1402 1128 1336
f 1129 592 1337
f 1337 592 594
f 782 594 592
f 782 784 594
f 982 784 782
f 982 984 784
f 982 1130 984
f 984 1130 1338
f 1339 53 1131
f 1131 53 51
f 53 245 51
f 247 245 53
f 247 435 245
f 437 435 247
f 437 623 435
f 625 623 437
f 625 819 623
f 821 819 625
f 821 1340 819
f 819 1340 1132
f 1341 1417 1133
f 1133 1417 1415
f 1131 1415 1417
f 1131 1417 1339
f 1027 1132 1340
f 1027 1340 1029
f 1029 1342 1027
f 1027 1342 1134
f 1343 1209 1135
f 1135 1209 1207
f 1133 1207 1209
f 1133 1209 1341
f 1237 1134 1342
f 1237 1342 1239
f 1239 1344 1237
f 1237 1344 1136
f 1345 1135 1137
f 1345 1343 1135
f 1136 1346 1138
f 1344 1346 1136
f 1210 1345 1268
f 1345 1139 1268
f 1345 1137 1139
f 1347 1210 1268
f 1240 1348 1140
f 1240 1140 1238
f 1238 1138 1240
f 1240 1138 1346
f 1208 1268 1139
f 1347 1268 1208
f 1141 1347 1208
f 1349 1347 1141
f 1030 1350 1142
f 1030 1142 1028
f 1028 1140 1030
f 1030 1140 1348
f 1141 1416 1349
f 1349 1416 1418
f 1351 1418 1416
f 1351 1416 1143
f 822 1352 1144
f 822 1144 820
f 820 1142 822
f 822 1142 1350
f 1143 52 1351
f 1351 52 54
f 246 54 52
f 246 248 54
f 436 248 246
f 436 438 248
f 624 438 436
f 624 626 438
f 624 1144 626
f 626 1144 1352
f 1353 1005 1145
f 1145 1005 1003
f 1005 1221 1003
f 1223 1221 1005
f 1223 1431 1221
f 1433 1431 1223
f 1433 67 1431
f 69 67 1433
f 69 261 67
f 263 261 69
f 263 451 261
f 453 451 263
f 668 639 1354
f 639 453 1354
f 639 451 453
f 668 1146 639
f 1355 797 1147
f 1147 797 795
f 1145 795 797
f 1145 797 1353
f 641 668 1354
f 1356 866 835
f 1356 835 1146
f 641 1356 1146
f 668 641 1146
f 866 1148 835
f 1357 603 1149
f 1149 603 601
f 1147 601 603
f 1147 603 1355
f 1358 868 866
f 1358 866 1356
f 1148 866 1150
f 1150 866 868
f 1359 1149 1151
f 1359 1357 1149
f 1152 836 868
f 1358 1152 868
f 1360 1152 1358
f 1150 868 836
f 1151 602 1359
f 1359 602 604
f 1361 604 602
f 1361 602 1153
f 642 1362 676
f 676 1154 642
f 1154 1360 642
f 1154 1152 1360
f 1153 796 1361
f 1361 796 798
f 1363 798 796
f 1363 796 1155
f 454 1364 486
f 676 1362 454
f 676 454 486
f 640 676 486
f 1156 640 486
f 1154 676 640
f 1155 1004 1363
f 1363 1004 1006
f 1222 1006 1004
f 1222 1224 1006
f 1432 1224 1222
f 1432 1434 1224
f 68 1434 1432
f 68 70 1434
f 262 70 68
f 262 264 70
f 1364 264 486
f 264 452 486
f 264 262 452
f 1156 486 452
f 1481 953 1293
f 1293 953 951
f 953 1161 951
f 1163 1161 953
f 1163 1482 1161
f 1161 1482 1294
f 1483 753 1295
f 1295 753 751
f 1293 751 753
f 1293 753 1481
f 1375 1294 1482
f 1375 1482 1377
f 1377 1484 1375
f 1375 1484 1296
f 1485 563 1297
f 1297 563 561
f 1295 561 563
f 1295 563 1483
f 21 1296 1484
f 21 1484 23
f 23 1486 21
f 21 1486 1298
f 1487 1297 1299
f 1487 1485 1297
f 1298 1488 1300
f 1486 1488 1298
f 1489 383 465
f 1301 465 383
f 1487 1301 383
f 1299 1301 1487
f 1300 1490 1302
f 1488 1490 1300
f 467 1491 465
f 465 1491 1489
f 465 1301 1303
f 465 1303 467
f 1302 1492 1304
f 1490 1492 1302
f 467 384 1491
f 659 1493 562
f 562 1493 1303
f 1493 384 1303
f 384 467 1303
f 1305 659 562
f 24 1494 1306
f 24 1306 22
f 22 1304 24
f 24 1304 1492
f 659 564 1493
f 859 1495 752
f 752 1495 1305
f 1495 564 1305
f 564 659 1305
f 1307 859 752
f 1378 1496 1308
f 1378 1308 1376
f 1376 1306 1378
f 1378 1306 1494
f 859 754 1495
f 1307 952 859
f 952 754 859
f 952 954 754
f 1162 954 952
f 1162 1164 954
f 1162 1308 1164
f 1164 1308 1496
f 1497 399 1309
f 1309 399 397
f 399 577 397
f 579 577 399
f 579 767 577
f 769 767 579
f 769 1498 767
f 767 1498 1310
f 78 9 1311
f 1499 207 78
f 207 9 78
f 207 205 9
f 1309 205 207
f 1309 207 1497
f 967 1310 1498
f 967 1498 969
f 1312 967 1273
f 967 1179 1273
f 967 969 1179
f 1179 1500 1273
f 78 1311 11
f 1311 1501 11
f 1311 1313 1501
f 1499 78 11
f 1273 1177 1312
f 1273 1500 1177
f 1500 1314 1177
f 1500 1502 1314
f 1503 1313 1315
f 1503 1501 1313
f 1314 1504 1316
f 1502 1504 1314
f 12 1503 88
f 1503 1317 88
f 1503 1315 1317
f 1505 12 88
f 1316 1506 1318
f 1504 1506 1316
f 10 88 1317
f 208 1505 284
f 284 1505 1319
f 1505 88 1319
f 88 10 1319
f 1507 208 284
f 968 1075 1320
f 1180 1508 1075
f 968 1180 1075
f 1178 1180 968
f 1178 1318 1180
f 1180 1318 1506
f 206 284 1319
f 284 206 1507
f 206 400 1507
f 206 398 400
f 578 400 398
f 578 580 400
f 768 580 578
f 768 770 580
f 1075 970 1320
f 970 768 1320
f 970 770 768
f 1075 1508 970
f 1509 1195 1255
f 1255 1195 1451
f 1451 1195 1403
f 1451 1403 1321
f 1403 37 1321
f 1403 39 37
f 39 231 37
f 233 231 39
f 233 421 231
f 423 421 233
f 423 609 421
f 611 609 423
f 611 1510 609
f 609 1510 1322
f 648 593 1323
f 1511 785 648
f 785 593 648
f 785 783 593
f 785 983 783
f 985 983 785
f 985 1509 1255
f 1193 985 1255
f 983 985 1193
f 1451 1401 1193
f 1451 1193 1255
f 1451 1321 1401
f 805 1322 1510
f 805 1510 807
f 807 1512 805
f 805 1512 1324
f 462 413 1325
f 595 648 1323
f 595 1323 413
f 1513 595 413
f 462 1513 413
f 1511 648 595
f 1013 1324 1512
f 1013 1512 1015
f 1015 1514 1013
f 1013 1514 1326
f 276 221 1327
f 415 462 1325
f 415 1325 221
f 1515 415 221
f 276 1515 221
f 1513 462 415
f 1326 1516 1328
f 1514 1516 1326
f 82 17 1329
f 223 276 1327
f 223 1327 17
f 1517 223 17
f 82 1517 17
f 1515 276 223
f 1016 1518 1330
f 1016 1330 1014
f 1014 1328 1016
f 1016 1328 1516
f 1331 86 1329
f 1329 86 82
f 1517 82 86
f 1517 86 1519
f 808 1520 1332
f 808 1332 806
f 806 1330 808
f 808 1330 1518
f 18 86 1331
f 224 1519 282
f 282 1519 1333
f 1519 86 1333
f 86 18 1333
f 1521 224 282
f 422 491 1334
f 612 1522 491
f 422 612 491
f 610 612 422
f 610 1332 612
f 612 1332 1520
f 222 282 1333
f 416 1521 472
f 472 1521 1335
f 1521 282 1335
f 282 222 1335
f 1523 416 472
f 38 121 1336
f 232 309 121
f 232 121 38
f 491 424 1334
f 1334 424 232
f 424 1524 232
f 1524 309 232
f 491 1522 424
f 414 472 1335
f 596 1523 664
f 664 1523 1337
f 1523 472 1337
f 472 414 1337
f 1525 596 664
f 1196 1526 1338
f 1196 1338 1194
f 1402 1196 1194
f 1402 1404 1196
f 121 40 1336
f 40 1402 1336
f 40 1404 1402
f 40 121 234
f 234 121 309
f 309 1524 234
f 594 664 1337
f 664 594 1525
f 594 786 1525
f 594 784 786
f 984 786 784
f 984 986 786
f 984 1338 986
f 986 1338 1526
f 90 53 1339
f 1527 249 90
f 249 53 90
f 249 247 53
f 249 437 247
f 439 437 249
f 439 625 437
f 627 625 439
f 627 821 625
f 823 821 627
f 823 1528 821
f 821 1528 1340
f 1529 1419 1341
f 1341 1419 1417
f 55 90 1339
f 1417 55 1339
f 1419 55 1417
f 1527 90 55
f 1029 1340 1528
f 1029 1528 1031
f 1031 1530 1029
f 1029 1530 1342
f 1256 1209 1343
f 1341 1209 1256
f 1531 1341 1256
f 1529 1341 1531
f 1239 1342 1530
f 1239 1530 1241
f 1241 1532 1239
f 1239 1532 1344
f 1345 1262 1343
f 1343 1262 1256
f 1531 1256 1262
f 1531 1262 1533
f 1344 1534 1346
f 1532 1534 1344
f 1210 1262 1345
f 1533 1262 1210
f 1347 1533 1210
f 1535 1533 1347
f 1242 1536 1348
f 1242 1348 1240
f 1240 1346 1242
f 1242 1346 1534
f 1537 1347 1349
f 1537 1535 1347
f 1032 1538 1350
f 1032 1350 1030
f 1030 1348 1032
f 1032 1348 1536
f 1349 1418 1537
f 1537 1418 1420
f 1418 1351 112
f 56 1418 112
f 1420 1418 56
f 1539 56 112
f 824 1540 1352
f 824 1352 822
f 822 1350 824
f 824 1350 1538
f 54 112 1351
f 112 54 1539
f 54 250 1539
f 54 248 250
f 438 250 248
f 438 440 250
f 626 440 438
f 626 628 440
f 626 1352 628
f 628 1352 1540
f 1541 1007 1353
f 1353 1007 1005
f 1007 1223 1005
f 1225 1223 1007
f 1225 1433 1223
f 1435 1433 1225
f 1435 69 1433
f 71 69 1435
f 71 263 69
f 265 263 71
f 476 453 1542
f 453 265 1542
f 453 263 265
f 476 1354 453
f 1543 799 1355
f 1355 799 797
f 1353 797 799
f 1353 799 1541
f 455 476 1542
f 1544 670 641
f 1544 641 1354
f 455 1544 1354
f 476 455 1354
f 670 1356 641
f 1545 605 1357
f 1357 605 603
f 1355 603 605
f 1355 605 1543
f 643 670 1544
f 643 1546 670
f 1546 1356 670
f 1546 1358 1356
f 1547 1357 1359
f 1547 1545 1357
f 1358 1548 1360
f 1546 1548 1358
f 1359 604 1547
f 1547 604 606
f 1549 606 604
f 1549 604 1361
f 644 1550 1362
f 644 1362 642
f 642 1360 644
f 644 1360 1548
f 1361 798 1549
f 1549 798 800
f 1551 800 798
f 1551 798 1363
f 456 1552 1364
f 456 1364 454
f 454 1362 456
f 456 1362 1550
f 1363 1006 1551
f 1551 1006 1008
f 1224 1008 1006
f 1224 1226 1008
f 1434 1226 1224
f 1434 1436 1226
f 70 1436 1434
f 70 72 1436
f 264 72 70
f 264 266 72
f 264 1364 266
f 266 1364 1552
f 123 955 1481
f 1481 955 953
f 955 1163 953
f 1165 1163 955
f 1482 1163 1449
f 1163 1379 1449
f 1163 1165 1379
f 1379 124 1449
f 125 755 1483
f 1483 755 753
f 1481 753 755
f 1481 755 123
f 1449 1377 1482
f 124 25 97
f 124 97 1484
f 1449 124 1484
f 1377 1449 1484
f 25 126 97
f 127 565 1485
f 1485 565 563
f 1483 563 565
f 1483 565 125
f 97 23 1484
f 97 126 23
f 126 1486 23
f 126 128 1486
f 129 1485 1487
f 129 127 1485
f 1486 130 1488
f 128 130 1486
f 131 385 1489
f 1489 385 383
f 1487 383 385
f 1487 385 129
f 1488 132 1490
f 130 132 1488
f 133 1489 1491
f 133 131 1489
f 1490 134 1492
f 132 134 1490
f 1491 384 133
f 133 384 386
f 135 386 384
f 135 384 1493
f 26 136 1494
f 26 1494 24
f 24 1492 26
f 26 1492 134
f 1493 564 135
f 135 564 566
f 137 566 564
f 137 564 1495
f 1166 138 1286
f 1166 1286 1496
f 1378 1166 1496
f 1380 1166 1378
f 1378 1494 1380
f 1380 1494 136
f 1495 754 137
f 137 754 756
f 954 756 754
f 954 956 756
f 138 956 1286
f 956 1164 1286
f 956 954 1164
f 1496 1286 1164
f 460 399 1497
f 139 581 460
f 581 399 460
f 581 579 399
f 581 769 579
f 771 769 581
f 1498 769 1059
f 769 971 1059
f 769 771 971
f 971 140 1059
f 141 209 1499
f 1499 209 207
f 401 460 1497
f 207 401 1497
f 209 401 207
f 139 460 401
f 1059 969 1498
f 969 1059 140
f 1181 969 140
f 1179 969 1181
f 1181 142 1179
f 1179 142 1500
f 80 11 1501
f 1499 11 80
f 143 1499 80
f 141 1499 143
f 142 1389 1467
f 1502 142 1467
f 1500 142 1502
f 1389 144 1467
f 1503 84 1501
f 1501 84 80
f 143 80 84
f 143 84 145
f 1473 1504 1502
f 1473 1502 1467
f 1467 144 1473
f 1473 144 146
f 12 84 1503
f 145 84 12
f 1505 145 12
f 147 145 1505
f 1477 1506 1504
f 1477 1504 1473
f 1473 146 1477
f 1477 146 148
f 1505 208 147
f 147 208 210
f 149 210 208
f 149 208 1507
f 1180 1287 1508
f 1477 1390 1506
f 1506 1390 1180
f 1390 150 1180
f 150 1287 1180
f 1477 148 1390
f 1507 400 149
f 149 400 402
f 580 402 400
f 580 582 402
f 770 861 151
f 582 770 151
f 580 770 582
f 970 1077 861
f 970 861 770
f 1287 1182 1508
f 1508 1182 970
f 1182 152 970
f 152 1077 970
f 1287 150 1182
f 861 772 151
f 772 861 972
f 972 861 1077
f 1077 152 972
f 153 1197 1509
f 1509 1197 1195
f 1197 1403 1195
f 1405 1403 1197
f 1405 39 1403
f 41 39 1405
f 41 233 39
f 235 233 41
f 235 423 233
f 425 423 235
f 425 611 423
f 613 611 425
f 1510 611 867
f 611 809 867
f 611 613 809
f 809 154 867
f 844 785 1511
f 155 987 844
f 987 785 844
f 987 985 785
f 1509 985 987
f 1509 987 153
f 867 807 1510
f 154 1017 1083
f 154 1083 1512
f 867 154 1512
f 807 867 1512
f 1017 156 1083
f 652 595 1513
f 787 844 1511
f 787 1511 595
f 157 787 595
f 652 157 595
f 155 844 787
f 1083 1015 1512
f 1083 156 1015
f 156 1514 1015
f 156 158 1514
f 464 415 1515
f 597 652 1513
f 597 1513 415
f 159 597 415
f 464 159 415
f 157 652 597
f 1514 160 1516
f 158 160 1514
f 278 223 1517
f 417 464 1515
f 417 1515 223
f 161 417 223
f 278 161 223
f 159 464 417
f 1018 162 1518
f 1018 1518 1016
f 1016 1516 1018
f 1018 1516 160
f 1519 280 1517
f 1517 280 278
f 161 278 280
f 161 280 163
f 810 164 1520
f 810 1520 808
f 808 1518 810
f 810 1518 162
f 224 280 1519
f 418 163 470
f 470 163 1521
f 163 280 1521
f 280 224 1521
f 165 418 470
f 614 166 1522
f 614 1522 612
f 612 1520 614
f 614 1520 164
f 416 470 1521
f 165 470 416
f 1523 165 416
f 167 165 1523
f 426 168 1524
f 426 1524 424
f 424 1522 426
f 426 1522 166
f 1523 596 167
f 167 596 598
f 596 1525 862
f 788 596 862
f 598 596 788
f 788 862 1078
f 788 1078 988
f 988 1078 1526
f 1196 988 1526
f 1198 988 1196
f 1404 1198 1196
f 1404 1406 1198
f 40 1406 1404
f 40 42 1406
f 234 42 40
f 234 236 42
f 234 1524 236
f 236 1524 168
f 786 862 1525
f 986 1078 786
f 786 1078 862
f 1526 1078 986
f 169 57 91
f 91 57 1527
f 57 249 1527
f 57 251 249
f 251 439 249
f 441 439 251
f 441 627 439
f 629 627 441
f 629 823 627
f 825 823 629
f 825 170 823
f 823 170 1528
f 171 1421 1529
f 1529 1421 1419
f 1421 169 91
f 55 1421 91
f 1419 1421 55
f 91 1527 55
f 1031 1528 170
f 1031 170 1033
f 1033 172 1031
f 1031 172 1530
f 173 1211 1257
f 1531 1257 1211
f 171 1531 1211
f 1529 1531 171
f 1241 1530 172
f 1241 172 1243
f 1243 174 1241
f 1241 174 1532
f 1263 175 1257
f 1257 175 173
f 1257 1531 1533
f 1257 1533 1263
f 1532 176 1534
f 174 176 1532
f 1269 177 1263
f 1263 177 175
f 1263 1533 1535
f 1263 1535 1269
f 1244 178 1536
f 1244 1536 1242
f 1242 1534 1244
f 1244 1534 176
f 1269 1212 177
f 179 1212 1269
f 1535 179 1269
f 1537 179 1535
f 1034 180 1538
f 1034 1538 1032
f 1032 1536 1034
f 1034 1536 178
f 1537 1420 179
f 179 1420 1422
f 56 113 181
f 1422 56 181
f 1420 56 1422
f 1539 113 56
f 826 182 1540
f 826 1540 824
f 824 1538 826
f 826 1538 180
f 113 58 181
f 1539 250 113
f 250 58 113
f 250 252 58
f 440 252 250
f 440 442 252
f 628 442 440
f 628 630 442
f 628 1540 630
f 630 1540 182
f 1044 1007 1541
f 183 1227 1044
f 1227 1007 1044
f 1227 1225 1007
f 1227 1435 1225
f 1437 1435 1227
f 92 71 184
f 71 1437 184
f 71 1435 1437
f 288 265 92
f 92 265 71
f 288 1542 265
f 838 799 1543
f 1009 1044 1541
f 1009 1541 799
f 185 1009 799
f 838 185 799
f 183 1044 1009
f 73 92 184
f 92 73 267
f 92 267 288
f 186 478 455
f 186 455 1542
f 267 186 1542
f 288 267 1542
f 478 1544 455
f 646 605 1545
f 801 838 1543
f 801 1543 605
f 187 801 605
f 646 187 605
f 185 838 801
f 457 478 186
f 188 672 643
f 188 643 1544
f 457 188 1544
f 478 457 1544
f 672 1546 643
f 1547 650 1545
f 1545 650 646
f 187 646 650
f 187 650 189
f 190 674 672
f 190 672 188
f 1546 672 1548
f 1548 672 674
f 606 650 1547
f 802 189 850
f 850 189 1549
f 189 650 1549
f 650 606 1549
f 191 802 850
f 458 192 484
f 674 190 458
f 674 458 484
f 644 674 484
f 1550 644 484
f 1548 674 644
f 800 850 1549
f 1010 191 1066
f 1066 191 1551
f 191 850 1551
f 850 800 1551
f 193 1010 1066
f 268 194 302
f 484 192 268
f 484 268 302
f 456 484 302
f 1552 456 302
f 1550 484 456
f 1008 1066 1551
f 1066 1008 193
f 1008 1228 193
f 1008 1226 1228
f 1436 1228 1226
f 1436 1438 1228
f 72 1438 1436
f 72 74 1438
f 194 74 302
f 74 266 302
f 74 72 266
f 1552 302 266
