# Converted from NanoShaper .vert/.face
v -12.846000 -1.507000 6.405000
v -11.795000 -1.507000 6.405000
v -13.224000 -1.507000 6.905000
v -11.283000 -1.507000 6.905000
v -13.284000 -1.507000 7.405000
v -10.963000 -1.507000 7.405000
v -13.370000 -1.507000 7.905000
v -10.838000 -1.507000 7.905000
v -13.383000 -1.507000 8.405000
v -10.847000 -1.507000 8.405000
v -13.110000 -1.507000 8.905000
v -11.162000 -1.507000 8.905000
v -13.360000 -1.507000 7.872000
v -13.360000 -1.507000 8.490000
v -12.860000 -1.507000 6.415000
v -12.860000 -1.507000 9.157000
v -12.360000 -1.507000 6.247000
v -12.360000 -1.507000 9.404000
v -11.860000 -1.507000 6.365000
v -11.860000 -1.507000 9.256000
v -11.360000 -1.507000 6.844000
v -11.360000 -1.507000 9.054000
v -10.860000 -1.507000 7.826000
v -10.860000 -1.507000 8.449000
v -13.360000 -1.369000 6.905000
v -13.360000 1.909000 6.905000
v -12.860000 -1.737000 6.905000
v -12.860000 2.255000 6.905000
v -12.360000 -1.847000 6.905000
v -12.360000 2.356000 6.905000
v -11.860000 -1.769000 6.905000
v -11.860000 2.269000 6.905000
v -11.360000 -1.547000 6.905000
v -11.360000 1.946000 6.905000
v -10.860000 -1.110000 6.905000
v -10.860000 1.104000 6.905000
v -13.360000 -0.035000 10.905000
v -13.360000 1.576000 10.905000
v -12.860000 -0.573000 10.905000
v -12.860000 2.055000 10.905000
v -12.360000 -0.715000 10.905000
v -12.360000 2.176000 10.905000
v -11.860000 -0.597000 10.905000
v -11.860000 2.070000 10.905000
v -11.360000 -0.175000 10.905000
v -11.360000 1.627000 10.905000
v -12.435000 -1.007000 5.905000
v -12.205000 -1.007000 5.905000
v -13.347000 -1.007000 6.405000
v -11.292000 -1.007000 6.405000
v -13.583000 -1.007000 6.905000
v -10.801000 -1.007000 6.905000
v -13.625000 -1.007000 7.405000
v -10.597000 -1.007000 7.405000
v -13.679000 -1.007000 7.905000
v -10.527000 -1.007000 7.905000
v -13.689000 -1.007000 8.405000
v -10.534000 -1.007000 8.405000
v -13.526000 -1.007000 8.905000
v -10.729000 -1.007000 8.905000
v -13.423000 -1.007000 9.405000
v -10.904000 -1.007000 9.405000
v -13.389000 -1.007000 9.905000
v -11.205000 -1.007000 9.905000
v -13.082000 -1.007000 10.405000
v -11.724000 -1.007000 10.405000
v -13.360000 -1.007000 6.423000
v -13.360000 -1.007000 9.994000
v -12.860000 -1.007000 6.018000
v -12.860000 -1.007000 10.555000
v -12.360000 -1.007000 5.900000
v -12.360000 -1.007000 10.663000
v -11.860000 -1.007000 5.984000
v -11.860000 -1.007000 10.508000
v -11.360000 -1.007000 6.324000
v -11.360000 -1.007000 10.026000
v -10.860000 -1.007000 6.824000
v -10.860000 -1.007000 9.250000
v -13.360000 -1.429000 7.405000
v -13.360000 1.913000 7.405000
v -12.860000 -1.778000 7.405000
v -12.860000 2.259000 7.405000
v -12.360000 -1.881000 7.405000
v -12.360000 2.361000 7.405000
v -11.860000 -1.845000 7.405000
v -11.860000 2.277000 7.405000
v -11.360000 -1.747000 7.405000
v -11.360000 1.961000 7.405000
v -10.860000 -1.409000 7.405000
v -10.860000 1.448000 7.405000
v -12.860000 0.815000 11.405000
v -12.860000 1.218000 11.405000
v -12.360000 -0.066000 11.405000
v -12.360000 1.570000 11.405000
v -11.860000 0.205000 11.405000
v -11.860000 1.282000 11.405000
v -12.860000 -0.507000 5.905000
v -11.780000 -0.507000 5.905000
v -13.475000 -0.507000 6.405000
v -11.146000 -0.507000 6.405000
v -13.689000 -0.507000 6.905000
v -10.670000 -0.507000 6.905000
v -13.726000 -0.507000 7.405000
v -10.486000 -0.507000 7.405000
v -13.761000 -0.507000 7.905000
v -10.448000 -0.507000 7.905000
v -13.766000 -0.507000 8.405000
v -10.453000 -0.507000 8.405000
v -13.680000 -0.507000 8.905000
v -10.552000 -0.507000 8.905000
v -13.704000 -0.507000 9.405000
v -10.594000 -0.507000 9.405000
v -13.699000 -0.507000 9.905000
v -10.806000 -0.507000 9.905000
v -13.485000 -0.507000 10.405000
v -11.271000 -0.507000 10.405000
v -12.959000 -0.507000 10.905000
v -11.695000 -0.507000 10.905000
v -13.360000 -0.507000 6.260000
v -13.360000 -0.507000 10.556000
v -12.860000 -0.507000 5.905000
v -12.860000 -0.507000 10.968000
v -12.360000 -0.507000 5.797000
v -12.360000 -0.507000 11.121000
v -11.860000 -0.507000 5.874000
v -11.860000 -0.507000 11.011000
v -11.360000 -0.507000 6.177000
v -11.360000 -0.507000 10.514000
v -10.860000 -0.507000 6.658000
v -10.860000 -0.507000 9.978000
v -13.360000 -1.517000 7.905000
v -13.360000 1.970000 7.905000
v -12.860000 -1.839000 7.905000
v -12.860000 2.301000 7.905000
v -12.360000 -1.924000 7.905000
v -12.360000 2.394000 7.905000
v -11.860000 -1.924000 7.905000
v -11.860000 2.300000 7.905000
v -11.360000 -1.843000 7.905000
v -11.360000 1.969000 7.905000
v -10.860000 -1.529000 7.905000
v -10.860000 1.492000 7.905000
v -12.958000 -0.007000 5.905000
v -11.762000 -0.007000 5.905000
v -13.532000 -0.007000 6.405000
v -11.167000 -0.007000 6.405000
v -13.735000 -0.007000 6.905000
v -10.669000 -0.007000 6.905000
v -13.788000 -0.007000 7.405000
v -10.467000 -0.007000 7.405000
v -13.789000 -0.007000 7.905000
v -10.436000 -0.007000 7.905000
v -13.781000 -0.007000 8.405000
v -10.438000 -0.007000 8.405000
v -13.749000 -0.007000 8.905000
v -10.464000 -0.007000 8.905000
v -13.782000 -0.007000 9.405000
v -10.509000 -0.007000 9.405000
v -13.778000 -0.007000 9.905000
v -10.702000 -0.007000 9.905000
v -13.621000 -0.007000 10.405000
v -11.013000 -0.007000 10.405000
v -13.373000 -0.007000 10.905000
v -11.269000 -0.007000 10.905000
v -12.566000 -0.007000 11.405000
v -12.077000 -0.007000 11.405000
v -13.360000 -0.007000 6.191000
v -13.360000 -0.007000 10.922000
v -12.860000 -0.007000 5.863000
v -12.860000 -0.007000 11.313000
v -12.360000 -0.007000 5.770000
v -12.360000 -0.007000 11.427000
v -11.860000 -0.007000 5.863000
v -11.860000 -0.007000 11.345000
v -11.360000 -0.007000 6.192000
v -11.360000 -0.007000 11.013000
v -10.860000 -0.007000 6.672000
v -10.860000 -0.007000 10.128000
v -13.360000 -1.530000 8.405000
v -13.360000 1.956000 8.405000
v -12.860000 -1.849000 8.405000
v -12.860000 2.285000 8.405000
v -12.360000 -1.934000 8.405000
v -12.360000 2.377000 8.405000
v -11.860000 -1.918000 8.405000
v -11.860000 2.282000 8.405000
v -11.360000 -1.837000 8.405000
v -11.360000 1.941000 8.405000
v -10.860000 -1.520000 8.405000
v -10.860000 1.485000 8.405000
v -13.053000 0.493000 5.905000
v -11.650000 0.493000 5.905000
v -13.557000 0.493000 6.405000
v -11.142000 0.493000 6.405000
v -13.735000 0.493000 6.905000
v -10.706000 0.493000 6.905000
v -13.744000 0.493000 7.405000
v -10.497000 0.493000 7.405000
v -13.741000 0.493000 7.905000
v -10.444000 0.493000 7.905000
v -13.748000 0.493000 8.405000
v -10.437000 0.493000 8.405000
v -13.735000 0.493000 8.905000
v -10.443000 0.493000 8.905000
v -13.742000 0.493000 9.405000
v -10.441000 0.493000 9.405000
v -13.721000 0.493000 9.905000
v -10.617000 0.493000 9.905000
v -13.689000 0.493000 10.405000
v -10.934000 0.493000 10.405000
v -13.471000 0.493000 10.905000
v -11.171000 0.493000 10.905000
v -12.846000 0.493000 11.405000
v -11.797000 0.493000 11.405000
v -13.360000 0.493000 6.146000
v -13.360000 0.493000 11.045000
v -12.860000 0.493000 5.812000
v -12.860000 0.493000 11.399000
v -12.360000 0.493000 5.717000
v -12.360000 0.493000 11.506000
v -11.860000 0.493000 5.805000
v -11.860000 0.493000 11.429000
v -11.360000 0.493000 6.128000
v -11.360000 0.493000 11.125000
v -10.860000 0.493000 6.713000
v -10.860000 0.493000 10.262000
v -13.360000 -1.265000 8.905000
v -13.360000 1.936000 8.905000
v -12.860000 -1.652000 8.905000
v -12.860000 2.256000 8.905000
v -12.360000 -1.750000 8.905000
v -12.360000 2.342000 8.905000
v -11.860000 -1.715000 8.905000
v -11.860000 2.241000 8.905000
v -11.360000 -1.618000 8.905000
v -11.360000 1.895000 8.905000
v -10.860000 -1.214000 8.905000
v -10.860000 1.480000 8.905000
v -13.017000 0.993000 5.905000
v -11.669000 0.993000 5.905000
v -13.539000 0.993000 6.405000
v -11.147000 0.993000 6.405000
v -13.724000 0.993000 6.905000
v -10.807000 0.993000 6.905000
v -13.729000 0.993000 7.405000
v -10.581000 0.993000 7.405000
v -13.748000 0.993000 7.905000
v -10.536000 0.993000 7.905000
v -13.770000 0.993000 8.405000
v -10.534000 0.993000 8.405000
v -13.768000 0.993000 8.905000
v -10.540000 0.993000 8.905000
v -13.761000 0.993000 9.405000
v -10.530000 0.993000 9.405000
v -13.732000 0.993000 9.905000
v -10.720000 0.993000 9.905000
v -13.716000 0.993000 10.405000
v -10.964000 0.993000 10.405000
v -13.503000 0.993000 10.905000
v -11.188000 0.993000 10.905000
v -12.897000 0.993000 11.405000
v -11.794000 0.993000 11.405000
v -13.360000 0.993000 6.170000
v -13.360000 0.993000 11.082000
v -12.860000 0.993000 5.831000
v -12.860000 0.993000 11.420000
v -12.360000 0.993000 5.732000
v -12.360000 0.993000 11.518000
v -11.860000 0.993000 5.818000
v -11.860000 0.993000 11.432000
v -11.360000 0.993000 6.135000
v -11.360000 0.993000 11.113000
v -10.860000 0.993000 6.835000
v -10.860000 0.993000 10.162000
v -13.360000 -1.077000 9.405000
v -13.360000 1.966000 9.405000
v -12.860000 -1.418000 9.405000
v -12.860000 2.313000 9.405000
v -12.360000 -1.507000 9.405000
v -12.360000 2.418000 9.405000
v -11.860000 -1.444000 9.405000
v -11.860000 2.334000 9.405000
v -11.360000 -1.327000 9.405000
v -11.360000 2.014000 9.405000
v -10.860000 -0.960000 9.405000
v -10.860000 1.497000 9.405000
v -12.774000 1.493000 5.905000
v -11.912000 1.493000 5.905000
v -13.421000 1.493000 6.405000
v -11.265000 1.493000 6.405000
v -13.623000 1.493000 6.905000
v -11.056000 1.493000 6.905000
v -13.627000 1.493000 7.405000
v -10.904000 1.493000 7.405000
v -13.660000 1.493000 7.905000
v -10.862000 1.493000 7.905000
v -13.664000 1.493000 8.405000
v -10.868000 1.493000 8.405000
v -13.659000 1.493000 8.905000
v -10.873000 1.493000 8.905000
v -13.660000 1.493000 9.405000
v -10.856000 1.493000 9.405000
v -13.652000 1.493000 9.905000
v -10.986000 1.493000 9.905000
v -13.631000 1.493000 10.405000
v -11.060000 1.493000 10.405000
v -13.402000 1.493000 10.905000
v -11.289000 1.493000 10.905000
v -12.627000 1.493000 11.405000
v -12.064000 1.493000 11.405000
v -13.360000 1.493000 6.322000
v -13.360000 1.493000 10.958000
v -12.860000 1.493000 5.939000
v -12.860000 1.493000 11.331000
v -12.360000 1.493000 5.831000
v -12.360000 1.493000 11.435000
v -11.860000 1.493000 5.924000
v -11.860000 1.493000 11.343000
v -11.360000 1.493000 6.280000
v -11.360000 1.493000 10.993000
v -10.860000 1.493000 8.972000
v -10.860000 1.493000 9.423000
v -12.860000 -0.500000 5.905000
v -12.860000 1.407000 5.905000
v -12.360000 -1.018000 5.905000
v -12.360000 1.649000 5.905000
v -11.860000 -0.764000 5.905000
v -11.860000 1.446000 5.905000
v -13.360000 -1.035000 9.905000
v -13.360000 1.976000 9.905000
v -12.860000 -1.345000 9.905000
v -12.860000 2.322000 9.905000
v -12.360000 -1.422000 9.905000
v -12.360000 2.424000 9.905000
v -11.860000 -1.313000 9.905000
v -11.860000 2.340000 9.905000
v -11.360000 -1.101000 9.905000
v -11.360000 2.023000 9.905000
v -10.860000 -0.619000 9.905000
v -10.860000 1.281000 9.905000
v -12.971000 1.993000 6.405000
v -11.715000 1.993000 6.405000
v -13.276000 1.993000 6.905000
v -11.410000 1.993000 6.905000
v -13.281000 1.993000 7.405000
v -11.395000 1.993000 7.405000
v -13.337000 1.993000 7.905000
v -11.384000 1.993000 7.905000
v -13.323000 1.993000 8.405000
v -11.412000 1.993000 8.405000
v -13.300000 1.993000 8.905000
v -11.461000 1.993000 8.905000
v -13.334000 1.993000 9.405000
v -11.339000 1.993000 9.405000
v -13.344000 1.993000 9.905000
v -11.331000 1.993000 9.905000
v -13.308000 1.993000 10.405000
v -11.382000 1.993000 10.405000
v -12.971000 1.993000 10.905000
v -11.720000 1.993000 10.905000
v -12.860000 1.993000 6.323000
v -12.860000 1.993000 10.981000
v -12.360000 1.993000 6.171000
v -12.360000 1.993000 11.123000
v -11.860000 1.993000 6.301000
v -11.860000 1.993000 10.998000
v -11.360000 1.993000 9.335000
v -11.360000 1.993000 10.317000
v -13.360000 -0.980000 6.405000
v -13.360000 1.604000 6.405000
v -12.860000 -1.499000 6.405000
v -12.860000 2.053000 6.405000
v -12.360000 -1.633000 6.405000
v -12.360000 2.171000 6.405000
v -11.860000 -1.538000 6.405000
v -11.860000 2.069000 6.405000
v -11.360000 -1.121000 6.405000
v -11.360000 1.657000 6.405000
v -13.360000 -0.729000 10.405000
v -13.360000 1.939000 10.405000
v -12.860000 -1.130000 10.405000
v -12.860000 2.288000 10.405000
v -12.360000 -1.222000 10.405000
v -12.360000 2.388000 10.405000
v -11.860000 -1.090000 10.405000
v -11.860000 2.300000 10.405000
v -11.360000 -0.612000 10.405000
v -11.360000 1.971000 10.405000
f 79 53 25
f 25 53 51
f 53 101 51
f 103 101 53
f 103 147 101
f 149 147 103
f 149 195 147
f 197 195 149
f 197 243 195
f 245 243 197
f 245 291 243
f 293 291 245
f 293 80 291
f 291 80 26
f 81 5 27
f 27 5 3
f 25 3 5
f 25 5 79
f 343 26 80
f 343 80 345
f 345 82 343
f 343 82 28
f 83 27 29
f 83 81 27
f 28 84 30
f 82 84 28
f 85 29 31
f 85 83 29
f 30 86 32
f 84 86 30
f 87 31 33
f 87 85 31
f 346 88 34
f 346 34 344
f 344 32 346
f 346 32 86
f 33 4 87
f 87 4 6
f 89 6 4
f 89 4 35
f 294 90 36
f 294 36 292
f 292 34 294
f 294 34 88
f 35 52 89
f 89 52 54
f 102 54 52
f 102 104 54
f 148 104 102
f 148 150 104
f 196 150 148
f 196 198 150
f 244 198 196
f 244 246 198
f 244 36 246
f 246 36 90
f 168 163 37
f 216 211 168
f 168 211 163
f 264 259 216
f 216 259 211
f 312 307 264
f 264 307 259
f 312 38 307
f 122 117 39
f 117 122 37
f 122 168 37
f 122 170 168
f 218 168 170
f 216 168 218
f 218 91 261
f 264 218 261
f 216 218 264
f 264 261 92
f 314 264 92
f 312 264 314
f 38 312 359
f 312 362 359
f 312 314 362
f 362 40 359
f 41 124 39
f 39 124 122
f 124 93 165
f 170 124 165
f 122 124 170
f 170 165 213
f 170 213 218
f 91 218 213
f 309 314 92
f 314 309 94
f 364 314 94
f 362 314 364
f 40 362 42
f 42 362 364
f 43 126 41
f 41 126 124
f 174 166 93
f 124 174 93
f 126 174 124
f 95 166 174
f 310 96 318
f 364 94 310
f 318 364 310
f 366 364 318
f 42 364 44
f 44 364 366
f 118 126 43
f 45 176 118
f 176 126 118
f 176 174 126
f 224 214 95
f 174 224 95
f 176 224 174
f 214 224 272
f 214 272 262
f 318 96 262
f 272 318 262
f 320 318 272
f 360 366 46
f 366 320 46
f 366 318 320
f 44 366 360
f 164 176 45
f 212 224 164
f 164 224 176
f 260 272 212
f 212 272 224
f 308 320 260
f 260 320 272
f 46 320 308
f 131 7 13
f 13 7 79
f 7 53 79
f 7 55 53
f 55 103 53
f 105 103 55
f 105 149 103
f 151 149 105
f 151 197 149
f 199 197 151
f 199 245 197
f 247 245 199
f 247 293 245
f 295 293 247
f 295 132 293
f 293 132 80
f 5 81 13
f 81 131 13
f 81 133 131
f 13 79 5
f 345 80 132
f 345 132 347
f 347 134 345
f 345 134 82
f 135 81 83
f 135 133 81
f 82 136 84
f 134 136 82
f 137 83 85
f 137 135 83
f 84 138 86
f 136 138 84
f 139 85 87
f 139 137 85
f 348 140 88
f 348 88 346
f 346 86 348
f 348 86 138
f 23 141 6
f 141 87 6
f 141 139 87
f 89 23 6
f 296 142 90
f 296 90 294
f 294 88 296
f 296 88 140
f 23 8 141
f 89 54 23
f 54 8 23
f 54 56 8
f 104 56 54
f 104 106 56
f 150 106 104
f 150 152 106
f 198 152 150
f 198 200 152
f 246 200 198
f 246 248 200
f 246 90 248
f 248 90 142
f 266 261 91
f 266 92 261
f 172 165 93
f 220 213 172
f 172 213 165
f 213 220 91
f 220 266 91
f 220 268 266
f 92 266 309
f 266 316 309
f 266 268 316
f 316 94 309
f 166 172 93
f 95 222 166
f 222 172 166
f 222 220 172
f 270 220 222
f 268 220 270
f 310 316 96
f 316 270 96
f 316 268 270
f 94 316 310
f 214 222 95
f 262 270 214
f 214 270 222
f 96 270 262
f 179 9 131
f 131 9 7
f 9 55 7
f 57 55 9
f 57 105 55
f 107 105 57
f 107 151 105
f 153 151 107
f 153 199 151
f 201 199 153
f 201 247 199
f 249 247 201
f 249 295 247
f 297 295 249
f 297 180 295
f 295 180 132
f 181 131 133
f 181 179 131
f 347 132 180
f 347 180 349
f 349 182 347
f 347 182 134
f 183 133 135
f 183 181 133
f 134 184 136
f 182 184 134
f 185 135 137
f 185 183 135
f 136 186 138
f 184 186 136
f 187 137 139
f 187 185 137
f 350 188 140
f 350 140 348
f 348 138 350
f 350 138 186
f 189 139 141
f 189 187 139
f 298 190 142
f 298 142 296
f 296 140 298
f 298 140 188
f 141 8 189
f 189 8 10
f 56 10 8
f 56 58 10
f 106 58 56
f 106 108 58
f 152 108 106
f 152 154 108
f 200 154 152
f 200 202 154
f 248 202 200
f 248 250 202
f 248 142 250
f 250 142 190
f 14 9 179
f 227 59 14
f 59 9 14
f 59 57 9
f 59 107 57
f 109 107 59
f 109 153 107
f 155 153 109
f 155 201 153
f 203 201 155
f 203 249 201
f 251 249 203
f 251 297 249
f 299 297 251
f 299 228 297
f 297 228 180
f 14 179 11
f 179 229 11
f 179 181 229
f 227 14 11
f 349 180 228
f 349 228 351
f 351 230 349
f 349 230 182
f 231 181 183
f 231 229 181
f 182 232 184
f 230 232 182
f 233 183 185
f 233 231 183
f 184 234 186
f 232 234 184
f 235 185 187
f 235 233 185
f 352 236 188
f 352 188 350
f 350 186 352
f 352 186 234
f 12 235 24
f 235 189 24
f 235 187 189
f 237 12 24
f 300 238 190
f 300 190 298
f 298 188 300
f 300 188 236
f 10 24 189
f 24 10 237
f 10 60 237
f 10 58 60
f 108 60 58
f 108 110 60
f 154 110 108
f 154 156 110
f 202 156 154
f 202 204 156
f 250 204 202
f 250 252 204
f 250 190 252
f 252 190 238
f 275 61 227
f 227 61 59
f 61 109 59
f 111 109 61
f 111 155 109
f 157 155 111
f 157 203 155
f 205 203 157
f 205 251 203
f 253 251 205
f 253 299 251
f 301 299 253
f 301 276 299
f 299 276 228
f 16 11 229
f 227 11 16
f 277 227 16
f 275 227 277
f 351 228 276
f 351 276 353
f 353 278 351
f 351 278 230
f 231 18 229
f 229 18 16
f 277 16 18
f 277 18 279
f 230 280 232
f 278 280 230
f 233 20 231
f 231 20 18
f 279 18 20
f 279 20 281
f 232 282 234
f 280 282 232
f 235 22 233
f 233 22 20
f 281 20 22
f 281 22 283
f 352 367 236
f 352 234 367
f 234 284 367
f 234 282 284
f 12 22 235
f 62 283 78
f 78 283 237
f 283 22 237
f 22 12 237
f 285 62 78
f 300 321 238
f 367 354 236
f 236 354 300
f 354 286 300
f 286 321 300
f 367 284 354
f 60 78 237
f 78 60 285
f 60 112 285
f 60 110 112
f 156 112 110
f 156 158 112
f 204 158 156
f 204 206 158
f 252 206 204
f 252 254 206
f 321 302 238
f 302 252 238
f 302 254 252
f 321 286 302
f 323 143 169
f 169 143 217
f 217 143 191
f 217 191 265
f 265 191 239
f 239 324 265
f 325 47 71
f 71 47 123
f 123 47 97
f 323 169 97
f 169 123 97
f 169 171 123
f 169 219 171
f 169 217 219
f 217 267 219
f 217 265 267
f 287 315 324
f 315 265 324
f 315 267 265
f 287 326 315
f 71 48 325
f 48 71 327
f 71 125 327
f 71 123 125
f 123 173 125
f 123 171 173
f 171 221 173
f 171 219 221
f 219 269 221
f 219 267 269
f 328 269 288
f 269 315 288
f 269 267 315
f 315 326 288
f 125 98 327
f 98 125 144
f 144 125 173
f 144 173 192
f 192 173 221
f 192 221 240
f 240 221 269
f 269 328 240
f 329 63 275
f 275 63 61
f 63 111 61
f 113 111 63
f 113 157 111
f 159 157 113
f 159 205 157
f 207 205 159
f 207 253 205
f 255 253 207
f 255 301 253
f 303 301 255
f 303 330 301
f 301 330 276
f 331 275 277
f 331 329 275
f 353 276 330
f 353 330 355
f 355 332 353
f 353 332 278
f 333 277 279
f 333 331 277
f 278 334 280
f 332 334 278
f 335 279 281
f 335 333 279
f 280 336 282
f 334 336 280
f 337 281 283
f 337 335 281
f 282 338 284
f 336 338 282
f 283 62 337
f 337 62 64
f 339 64 62
f 339 62 285
f 304 340 322
f 304 322 286
f 354 304 286
f 356 304 354
f 354 284 356
f 356 284 338
f 285 112 339
f 339 112 114
f 158 114 112
f 158 160 114
f 206 160 158
f 206 208 160
f 254 208 206
f 254 256 208
f 340 256 322
f 256 302 322
f 256 254 302
f 286 322 302
f 369 99 119
f 119 99 167
f 167 99 145
f 167 145 215
f 215 145 193
f 215 193 263
f 263 193 241
f 263 241 311
f 311 241 289
f 289 370 311
f 371 49 69
f 369 119 49
f 119 69 49
f 119 121 69
f 167 143 323
f 121 167 323
f 119 167 121
f 215 191 143
f 215 143 167
f 263 239 191
f 263 191 215
f 313 324 239
f 263 313 239
f 311 313 263
f 341 361 370
f 361 311 370
f 361 313 311
f 341 372 361
f 373 1 17
f 371 69 1
f 1 69 17
f 69 47 17
f 47 325 17
f 121 97 47
f 121 47 69
f 121 323 97
f 313 287 324
f 363 326 287
f 313 363 287
f 361 363 313
f 361 372 363
f 363 372 374
f 19 375 17
f 17 375 373
f 17 325 48
f 73 17 48
f 19 17 73
f 327 73 48
f 288 317 328
f 317 288 326
f 363 317 326
f 365 317 363
f 363 374 365
f 365 374 376
f 19 2 375
f 2 19 377
f 19 75 377
f 19 73 75
f 73 327 98
f 127 73 98
f 75 73 127
f 144 175 127
f 144 127 98
f 192 223 175
f 192 175 144
f 240 271 223
f 240 223 192
f 271 240 328
f 317 271 328
f 319 271 317
f 378 319 342
f 319 365 342
f 319 317 365
f 365 376 342
f 75 50 377
f 50 75 100
f 100 75 127
f 100 127 146
f 146 127 175
f 146 175 194
f 194 175 223
f 194 223 242
f 242 223 271
f 242 271 290
f 290 271 319
f 319 378 290
f 68 63 329
f 379 115 68
f 115 63 68
f 115 113 63
f 115 159 113
f 161 159 115
f 161 207 159
f 209 207 161
f 209 255 207
f 257 255 209
f 257 303 255
f 305 303 257
f 305 380 303
f 303 380 330
f 68 329 65
f 329 381 65
f 329 331 381
f 379 68 65
f 355 330 380
f 355 380 357
f 357 382 355
f 355 382 332
f 383 331 333
f 383 381 331
f 332 384 334
f 382 384 332
f 385 333 335
f 385 383 333
f 334 386 336
f 384 386 334
f 66 385 76
f 385 337 76
f 385 335 337
f 387 66 76
f 358 388 368
f 368 338 358
f 338 386 358
f 338 336 386
f 64 76 337
f 116 387 130
f 130 387 339
f 387 76 339
f 76 64 339
f 116 130 178
f 116 178 162
f 162 178 226
f 162 226 210
f 210 226 274
f 210 274 258
f 258 274 340
f 304 258 340
f 306 258 304
f 388 306 368
f 306 356 368
f 306 304 356
f 338 368 356
f 114 130 339
f 160 178 114
f 114 178 130
f 208 226 160
f 160 226 178
f 256 274 208
f 208 274 226
f 340 274 256
f 25 51 67
f 67 51 369
f 51 99 369
f 51 101 99
f 101 145 99
f 147 145 101
f 147 193 145
f 195 193 147
f 195 241 193
f 243 241 195
f 243 289 241
f 291 289 243
f 291 26 289
f 289 26 370
f 27 3 15
f 25 67 3
f 3 67 15
f 67 49 15
f 49 371 15
f 67 369 49
f 341 370 26
f 341 26 343
f 343 28 341
f 341 28 372
f 1 373 15
f 373 27 15
f 373 29 27
f 15 371 1
f 372 30 374
f 28 30 372
f 31 373 375
f 31 29 373
f 374 32 376
f 30 32 374
f 21 33 2
f 33 375 2
f 33 31 375
f 377 21 2
f 344 34 378
f 344 378 342
f 342 376 344
f 344 376 32
f 21 4 33
f 77 35 50
f 50 35 377
f 35 4 377
f 4 21 377
f 100 129 77
f 100 77 50
f 146 177 129
f 146 129 100
f 194 225 177
f 194 177 146
f 242 273 225
f 242 225 194
f 292 36 273
f 242 292 273
f 290 292 242
f 290 378 292
f 292 378 34
f 77 52 35
f 52 77 102
f 102 77 129
f 102 129 148
f 148 129 177
f 148 177 196
f 196 177 225
f 196 225 244
f 244 225 273
f 273 36 244
f 120 115 379
f 37 163 120
f 163 115 120
f 163 161 115
f 163 209 161
f 211 209 163
f 211 257 209
f 259 257 211
f 259 305 257
f 307 305 259
f 307 38 305
f 305 38 380
f 70 65 381
f 117 120 379
f 117 379 65
f 39 117 65
f 70 39 65
f 37 120 117
f 357 380 38
f 357 38 359
f 359 40 357
f 357 40 382
f 383 72 381
f 381 72 70
f 39 70 72
f 39 72 41
f 382 42 384
f 40 42 382
f 385 74 383
f 383 74 72
f 41 72 74
f 41 74 43
f 384 44 386
f 42 44 384
f 66 74 385
f 118 43 128
f 128 43 387
f 43 74 387
f 74 66 387
f 45 118 128
f 360 46 388
f 360 388 358
f 358 386 360
f 360 386 44
f 116 128 387
f 128 116 45
f 116 164 45
f 116 162 164
f 210 164 162
f 210 212 164
f 258 212 210
f 258 260 212
f 306 260 258
f 306 308 260
f 306 388 308
f 308 388 46
