# Converted from NanoShaper .vert/.face
v -3.501000 -12.007000 -7.595000
v -2.143000 -12.007000 -7.595000
v -3.810000 -12.007000 -7.095000
v -1.252000 -12.007000 -7.095000
v -3.872000 -12.007000 -6.595000
v -0.917000 -12.007000 -6.595000
v -3.885000 -12.007000 -6.095000
v -0.855000 -12.007000 -6.095000
v -3.854000 -12.007000 -5.595000
v -0.858000 -12.007000 -5.595000
v -3.814000 -12.007000 -5.095000
v -0.922000 -12.007000 -5.095000
v -3.822000 -12.007000 -4.595000
v -0.909000 -12.007000 -4.595000
v -3.549000 -12.007000 -4.095000
v -0.960000 -12.007000 -4.095000
v -3.355000 -12.007000 -3.595000
v -1.254000 -12.007000 -3.595000
v -3.343000 -12.007000 -3.095000
v -1.405000 -12.007000 -3.095000
v -3.378000 -12.007000 -2.595000
v -1.388000 -12.007000 -2.595000
v -3.353000 -12.007000 -2.095000
v -1.352000 -12.007000 -2.095000
v -3.297000 -12.007000 -1.595000
v -1.177000 -12.007000 -1.595000
v -2.967000 -12.007000 -1.095000
v -0.234000 -12.007000 -1.095000
v -2.006000 -12.007000 -0.595000
v 0.253000 -12.007000 -0.595000
v -1.778000 -12.007000 -0.095000
v 0.557000 -12.007000 -0.095000
v -1.483000 -12.007000 0.405000
v 0.552000 -12.007000 0.405000
v -1.036000 -12.007000 0.905000
v 0.232000 -12.007000 0.905000
v -3.860000 -12.007000 -6.657000
v -3.860000 -12.007000 -5.623000
v -3.360000 -12.007000 -7.700000
v -3.360000 -12.007000 -3.627000
v -3.360000 -12.007000 -2.995000
v -3.360000 -12.007000 -2.130000
v -2.860000 -12.007000 -7.852000
v -2.860000 -12.007000 -1.024000
v -2.360000 -12.007000 -7.743000
v -2.360000 -12.007000 -0.846000
v -1.860000 -12.007000 -7.379000
v -1.860000 -12.007000 -0.342000
v -1.360000 -12.007000 -7.170000
v -1.360000 -12.007000 -3.359000
v -1.360000 -12.007000 -2.193000
v -1.360000 -12.007000 0.520000
v -0.860000 -12.007000 -6.123000
v -0.860000 -12.007000 -5.585000
v -0.860000 -12.007000 -1.373000
v -0.860000 -12.007000 1.022000
v -0.360000 -12.007000 -1.177000
v -0.360000 -12.007000 1.134000
v 0.140000 -12.007000 -0.690000
v 0.140000 -12.007000 0.973000
v -3.860000 -11.960000 -5.095000
v -3.860000 -9.569000 -5.095000
v -3.360000 -12.300000 -5.095000
v -3.360000 -9.222000 -5.095000
v -2.860000 -12.399000 -5.095000
v -2.860000 -9.118000 -5.095000
v -2.360000 -12.423000 -5.095000
v -2.360000 -9.100000 -5.095000
v -1.860000 -12.381000 -5.095000
v -1.860000 -9.181000 -5.095000
v -1.360000 -12.285000 -5.095000
v -1.360000 -9.491000 -5.095000
v -0.860000 -11.945000 -5.095000
v -0.860000 -10.050000 -5.095000
v -3.360000 -11.659000 -1.095000
v -3.360000 -10.266000 -1.095000
v -2.860000 -12.058000 -1.095000
v -2.860000 -9.565000 -1.095000
v -2.360000 -12.156000 -1.095000
v -2.360000 -8.611000 -1.095000
v -1.860000 -12.173000 -1.095000
v -1.860000 -8.265000 -1.095000
v -1.360000 -12.178000 -1.095000
v -1.360000 -8.165000 -1.095000
v -0.860000 -12.173000 -1.095000
v -0.860000 -8.251000 -1.095000
v -0.360000 -12.072000 -1.095000
v -0.360000 -8.573000 -1.095000
v 0.140000 -11.655000 -1.095000
v 0.140000 -9.493000 -1.095000
v -3.213000 -11.507000 -8.095000
v -2.431000 -11.507000 -8.095000
v -3.902000 -11.507000 -7.595000
v -1.532000 -11.507000 -7.595000
v -4.119000 -11.507000 -7.095000
v -0.804000 -11.507000 -7.095000
v -4.196000 -11.507000 -6.595000
v -0.581000 -11.507000 -6.595000
v -4.202000 -11.507000 -6.095000
v -0.533000 -11.507000 -6.095000
v -4.167000 -11.507000 -5.595000
v -0.535000 -11.507000 -5.595000
v -4.147000 -11.507000 -5.095000
v -0.585000 -11.507000 -5.095000
v -4.155000 -11.507000 -4.595000
v -0.575000 -11.507000 -4.595000
v -3.957000 -11.507000 -4.095000
v -0.606000 -11.507000 -4.095000
v -3.728000 -11.507000 -3.595000
v -0.825000 -11.507000 -3.595000
v -3.679000 -11.507000 -3.095000
v -1.039000 -11.507000 -3.095000
v -3.692000 -11.507000 -2.595000
v -1.059000 -11.507000 -2.595000
v -3.680000 -11.507000 -2.095000
v -0.909000 -11.507000 -2.095000
v -3.663000 -11.507000 -1.595000
v -0.428000 -11.507000 -1.595000
v -3.454000 -11.507000 -1.095000
v 0.224000 -11.507000 -1.095000
v -2.785000 -11.507000 -0.595000
v 0.679000 -11.507000 -0.595000
v -2.186000 -11.507000 -0.095000
v 0.887000 -11.507000 -0.095000
v -1.928000 -11.507000 0.405000
v 0.883000 -11.507000 0.405000
v -1.587000 -11.507000 0.905000
v 0.667000 -11.507000 0.905000
v -0.768000 -11.507000 1.405000
v -0.036000 -11.507000 1.405000
v -3.860000 -11.507000 -7.651000
v -3.860000 -11.507000 -3.936000
v -3.360000 -11.507000 -8.040000
v -3.360000 -11.507000 -0.976000
v -2.860000 -11.507000 -8.153000
v -2.860000 -11.507000 -0.628000
v -2.360000 -11.507000 -8.071000
v -2.360000 -11.507000 -0.307000
v -1.860000 -11.507000 -7.763000
v -1.860000 -11.507000 0.528000
v -1.360000 -11.507000 -7.533000
v -1.360000 -11.507000 1.095000
v -0.860000 -11.507000 -7.167000
v -0.860000 -11.507000 -3.538000
v -0.860000 -11.507000 -2.011000
v -0.860000 -11.507000 1.374000
v -0.360000 -11.507000 -1.554000
v -0.360000 -11.507000 1.456000
v 0.140000 -11.507000 -1.198000
v 0.140000 -11.507000 1.340000
v 0.640000 -11.507000 -0.650000
v 0.640000 -11.507000 0.942000
v -3.860000 -11.968000 -4.595000
v -3.860000 -9.602000 -4.595000
v -3.360000 -12.300000 -4.595000
v -3.360000 -9.258000 -4.595000
v -2.860000 -12.391000 -4.595000
v -2.860000 -9.159000 -4.595000
v -2.360000 -12.421000 -4.595000
v -2.360000 -9.123000 -4.595000
v -1.860000 -12.393000 -4.595000
v -1.860000 -9.203000 -4.595000
v -1.360000 -12.296000 -4.595000
v -1.360000 -9.516000 -4.595000
v -0.860000 -11.958000 -4.595000
v -0.860000 -10.039000 -4.595000
v -2.860000 -11.430000 -0.595000
v -2.860000 -9.851000 -0.595000
v -2.360000 -11.820000 -0.595000
v -2.360000 -8.632000 -0.595000
v -1.860000 -12.074000 -0.595000
v -1.860000 -8.280000 -0.595000
v -1.360000 -12.272000 -0.595000
v -1.360000 -8.178000 -0.595000
v -0.860000 -12.376000 -0.595000
v -0.860000 -8.266000 -0.595000
v -0.360000 -12.295000 -0.595000
v -0.360000 -8.590000 -0.595000
v 0.140000 -12.073000 -0.595000
v 0.140000 -9.125000 -0.595000
v 0.640000 -11.587000 -0.595000
v 0.640000 -10.438000 -0.595000
v -3.421000 -11.007000 -8.095000
v -2.223000 -11.007000 -8.095000
v -3.994000 -11.007000 -7.595000
v -1.274000 -11.007000 -7.595000
v -4.196000 -11.007000 -7.095000
v -0.693000 -11.007000 -7.095000
v -4.283000 -11.007000 -6.595000
v -0.488000 -11.007000 -6.595000
v -4.286000 -11.007000 -6.095000
v -0.447000 -11.007000 -6.095000
v -4.247000 -11.007000 -5.595000
v -0.449000 -11.007000 -5.595000
v -4.239000 -11.007000 -5.095000
v -0.492000 -11.007000 -5.095000
v -4.248000 -11.007000 -4.595000
v -0.480000 -11.007000 -4.595000
v -4.065000 -11.007000 -4.095000
v -0.502000 -11.007000 -4.095000
v -3.839000 -11.007000 -3.595000
v -0.695000 -11.007000 -3.595000
v -3.777000 -11.007000 -3.095000
v -0.898000 -11.007000 -3.095000
v -3.776000 -11.007000 -2.595000
v -0.912000 -11.007000 -2.595000
v -3.777000 -11.007000 -2.095000
v -0.706000 -11.007000 -2.095000
v -3.774000 -11.007000 -1.595000
v -0.199000 -11.007000 -1.595000
v -3.585000 -11.007000 -1.095000
v 0.342000 -11.007000 -1.095000
v -3.061000 -11.007000 -0.595000
v 0.786000 -11.007000 -0.595000
v -2.474000 -11.007000 -0.095000
v 0.977000 -11.007000 -0.095000
v -2.200000 -11.007000 0.405000
v 0.974000 -11.007000 0.405000
v -2.001000 -11.007000 0.905000
v 0.774000 -11.007000 0.905000
v -1.412000 -11.007000 1.405000
v 0.210000 -11.007000 1.405000
v -3.860000 -11.007000 -7.768000
v -3.860000 -11.007000 -3.668000
v -3.360000 -11.007000 -8.122000
v -3.360000 -11.007000 -0.819000
v -2.860000 -11.007000 -8.229000
v -2.860000 -11.007000 -0.450000
v -2.360000 -11.007000 -8.152000
v -2.360000 -11.007000 0.060000
v -1.860000 -11.007000 -7.861000
v -1.860000 -11.007000 1.088000
v -1.360000 -11.007000 -7.632000
v -1.360000 -11.007000 1.426000
v -0.860000 -11.007000 -7.303000
v -0.860000 -11.007000 -3.215000
v -0.860000 -11.007000 -2.402000
v -0.860000 -11.007000 1.519000
v -0.360000 -11.007000 -1.724000
v -0.360000 -11.007000 1.545000
v 0.140000 -11.007000 -1.332000
v 0.140000 -11.007000 1.437000
v 0.640000 -11.007000 -0.789000
v 0.640000 -11.007000 1.081000
v -3.360000 -11.317000 -8.095000
v -3.360000 -10.784000 -8.095000
v -2.860000 -11.650000 -8.095000
v -2.860000 -10.451000 -8.095000
v -2.360000 -11.435000 -8.095000
v -2.360000 -10.666000 -8.095000
v -3.860000 -11.679000 -4.095000
v -3.860000 -9.934000 -4.095000
v -3.360000 -12.136000 -4.095000
v -3.360000 -9.476000 -4.095000
v -2.860000 -12.346000 -4.095000
v -2.860000 -9.359000 -4.095000
v -2.360000 -12.417000 -4.095000
v -2.360000 -9.334000 -4.095000
v -1.860000 -12.367000 -4.095000
v -1.860000 -9.413000 -4.095000
v -1.360000 -12.257000 -4.095000
v -1.360000 -9.699000 -4.095000
v -0.860000 -11.908000 -4.095000
v -0.860000 -10.057000 -4.095000
v -2.360000 -11.190000 -0.095000
v -2.360000 -8.983000 -0.095000
v -1.860000 -11.928000 -0.095000
v -1.860000 -8.513000 -0.095000
v -1.360000 -12.279000 -0.095000
v -1.360000 -8.391000 -0.095000
v -0.860000 -12.386000 -0.095000
v -0.860000 -8.460000 -0.095000
v -0.360000 -12.394000 -0.095000
v -0.360000 -8.651000 -0.095000
v 0.140000 -12.284000 -0.095000
v 0.140000 -8.985000 -0.095000
v 0.640000 -11.920000 -0.095000
v 0.640000 -10.044000 -0.095000
v -3.078000 -10.507000 -8.095000
v -2.566000 -10.507000 -8.095000
v -3.861000 -10.507000 -7.595000
v -1.549000 -10.507000 -7.595000
v -4.085000 -10.507000 -7.095000
v -0.807000 -10.507000 -7.095000
v -4.183000 -10.507000 -6.595000
v -0.584000 -10.507000 -6.595000
v -4.285000 -10.507000 -6.095000
v -0.548000 -10.507000 -6.095000
v -4.272000 -10.507000 -5.595000
v -0.551000 -10.507000 -5.595000
v -4.233000 -10.507000 -5.095000
v -0.580000 -10.507000 -5.095000
v -4.225000 -10.507000 -4.595000
v -0.569000 -10.507000 -4.595000
v -4.025000 -10.507000 -4.095000
v -0.587000 -10.507000 -4.095000
v -3.782000 -10.507000 -3.595000
v -0.779000 -10.507000 -3.595000
v -3.690000 -10.507000 -3.095000
v -0.940000 -10.507000 -3.095000
v -3.676000 -10.507000 -2.595000
v -0.892000 -10.507000 -2.595000
v -3.693000 -10.507000 -2.095000
v -0.582000 -10.507000 -2.095000
v -3.697000 -10.507000 -1.595000
v -0.136000 -10.507000 -1.595000
v -3.495000 -10.507000 -1.095000
v 0.316000 -10.507000 -1.095000
v -3.054000 -10.507000 -0.595000
v 0.671000 -10.507000 -0.595000
v -2.684000 -10.507000 -0.095000
v 0.880000 -10.507000 -0.095000
v -2.404000 -10.507000 0.405000
v 0.876000 -10.507000 0.405000
v -2.106000 -10.507000 0.905000
v 0.658000 -10.507000 0.905000
v -1.610000 -10.507000 1.405000
v -0.039000 -10.507000 1.405000
v -3.860000 -10.507000 -7.596000
v -3.860000 -10.507000 -3.799000
v -3.360000 -10.507000 -8.003000
v -3.360000 -10.507000 -0.926000
v -2.860000 -10.507000 -8.120000
v -2.860000 -10.507000 -0.351000
v -2.360000 -10.507000 -8.035000
v -2.360000 -10.507000 0.473000
v -1.860000 -10.507000 -7.734000
v -1.860000 -10.507000 1.216000
v -1.360000 -10.507000 -7.531000
v -1.360000 -10.507000 1.521000
v -0.860000 -10.507000 -7.164000
v -0.860000 -10.507000 -3.394000
v -0.860000 -10.507000 -2.510000
v -0.860000 -10.507000 1.600000
v -0.360000 -10.507000 -1.854000
v -0.360000 -10.507000 1.502000
v 0.140000 -10.507000 -1.323000
v 0.140000 -10.507000 1.333000
v 0.640000 -10.507000 -0.639000
v 0.640000 -10.507000 0.931000
v -3.860000 -11.596000 -7.595000
v -3.860000 -10.506000 -7.595000
v -3.360000 -12.093000 -7.595000
v -3.360000 -10.009000 -7.595000
v -2.860000 -12.223000 -7.595000
v -2.860000 -9.878000 -7.595000
v -2.360000 -12.129000 -7.595000
v -2.360000 -9.972000 -7.595000
v -1.860000 -11.786000 -7.595000
v -1.860000 -10.281000 -7.595000
v -1.360000 -11.317000 -7.595000
v -1.360000 -10.703000 -7.595000
v -3.360000 -12.001000 -3.595000
v -3.360000 -9.832000 -3.595000
v -2.860000 -12.326000 -3.595000
v -2.860000 -9.590000 -3.595000
v -2.360000 -12.414000 -3.595000
v -2.360000 -9.537000 -3.595000
v -1.860000 -12.315000 -3.595000
v -1.860000 -9.623000 -3.595000
v -1.360000 -12.077000 -3.595000
v -1.360000 -9.827000 -3.595000
v -0.860000 -11.572000 -3.595000
v -0.860000 -10.315000 -3.595000
v -2.360000 -10.609000 0.405000
v -2.360000 -9.393000 0.405000
v -1.860000 -11.614000 0.405000
v -1.860000 -8.932000 0.405000
v -1.360000 -12.079000 0.405000
v -1.360000 -8.688000 0.405000
v -0.860000 -12.313000 0.405000
v -0.860000 -8.602000 0.405000
v -0.360000 -12.391000 0.405000
v -0.360000 -8.679000 0.405000
v 0.140000 -12.281000 0.405000
v 0.140000 -8.986000 0.405000
v 0.640000 -11.915000 0.405000
v 0.640000 -10.050000 0.405000
v -3.357000 -10.007000 -7.595000
v -2.287000 -10.007000 -7.595000
v -3.729000 -10.007000 -7.095000
v -1.262000 -10.007000 -7.095000
v -4.000000 -10.007000 -6.595000
v -0.923000 -10.007000 -6.595000
v -4.192000 -10.007000 -6.095000
v -0.890000 -10.007000 -6.095000
v -4.178000 -10.007000 -5.595000
v -0.883000 -10.007000 -5.595000
v -4.135000 -10.007000 -5.095000
v -0.902000 -10.007000 -5.095000
v -4.120000 -10.007000 -4.595000
v -0.892000 -10.007000 -4.595000
v -3.900000 -10.007000 -4.095000
v -0.909000 -10.007000 -4.095000
v -3.537000 -10.007000 -3.595000
v -1.094000 -10.007000 -3.595000
v -3.370000 -10.007000 -3.095000
v -1.182000 -10.007000 -3.095000
v -3.335000 -10.007000 -2.595000
v -1.023000 -10.007000 -2.595000
v -3.383000 -10.007000 -2.095000
v -0.638000 -10.007000 -2.095000
v -3.390000 -10.007000 -1.595000
v -0.176000 -10.007000 -1.595000
v -3.165000 -10.007000 -1.095000
v 0.265000 -10.007000 -1.095000
v -2.925000 -10.007000 -0.595000
v 0.500000 -10.007000 -0.595000
v -2.730000 -10.007000 -0.095000
v 0.624000 -10.007000 -0.095000
v -2.523000 -10.007000 0.405000
v 0.622000 -10.007000 0.405000
v -2.041000 -10.007000 0.905000
v 0.402000 -10.007000 0.905000
v -1.458000 -10.007000 1.405000
v -0.190000 -10.007000 1.405000
v -3.860000 -10.007000 -6.841000
v -3.860000 -10.007000 -4.043000
v -3.360000 -10.007000 -7.593000
v -3.360000 -10.007000 -3.019000
v -3.360000 -10.007000 -2.181000
v -3.360000 -10.007000 -1.494000
v -2.860000 -10.007000 -7.763000
v -2.860000 -10.007000 -0.456000
v -2.360000 -10.007000 -7.642000
v -2.360000 -10.007000 0.609000
v -1.860000 -10.007000 -7.333000
v -1.860000 -10.007000 1.104000
v -1.360000 -10.007000 -7.163000
v -1.360000 -10.007000 1.449000
v -0.860000 -10.007000 -2.358000
v -0.860000 -10.007000 1.552000
v -0.360000 -10.007000 -1.820000
v -0.360000 -10.007000 1.476000
v 0.140000 -10.007000 -1.251000
v 0.140000 -10.007000 1.189000
v -3.860000 -11.952000 -7.095000
v -3.860000 -10.147000 -7.095000
v -3.360000 -12.316000 -7.095000
v -3.360000 -9.755000 -7.095000
v -2.860000 -12.425000 -7.095000
v -2.860000 -9.643000 -7.095000
v -2.360000 -12.346000 -7.095000
v -2.360000 -9.682000 -7.095000
v -1.860000 -12.198000 -7.095000
v -1.860000 -9.832000 -7.095000
v -1.360000 -12.066000 -7.095000
v -1.360000 -9.954000 -7.095000
v -0.860000 -11.613000 -7.095000
v -0.860000 -10.407000 -7.095000
v -3.360000 -11.990000 -3.095000
v -3.360000 -9.998000 -3.095000
v -2.860000 -12.308000 -3.095000
v -2.860000 -9.682000 -3.095000
v -2.360000 -12.392000 -3.095000
v -2.360000 -9.575000 -3.095000
v -1.860000 -12.288000 -3.095000
v -1.860000 -9.621000 -3.095000
v -1.360000 -11.966000 -3.095000
v -1.360000 -9.859000 -3.095000
v -1.860000 -11.244000 0.905000
v -1.860000 -9.424000 0.905000
v -1.360000 -11.706000 0.905000
v -1.360000 -8.932000 0.905000
v -0.860000 -12.099000 0.905000
v -0.860000 -8.799000 0.905000
v -0.360000 -12.192000 0.905000
v -0.360000 -8.889000 0.905000
v 0.140000 -12.060000 0.905000
v 0.140000 -9.284000 0.905000
v 0.640000 -11.563000 0.905000
v 0.640000 -10.469000 0.905000
v -3.576000 -9.507000 -6.595000
v -1.692000 -9.507000 -6.595000
v -3.860000 -9.507000 -6.095000
v -1.393000 -9.507000 -6.095000
v -3.844000 -9.507000 -5.595000
v -1.363000 -9.507000 -5.595000
v -3.799000 -9.507000 -5.095000
v -1.344000 -9.507000 -5.095000
v -3.764000 -9.507000 -4.595000
v -1.370000 -9.507000 -4.595000
v -3.420000 -9.507000 -4.095000
v -1.674000 -9.507000 -4.095000
v -2.293000 -9.507000 -2.595000
v -1.490000 -9.507000 -2.595000
v -2.592000 -9.507000 -2.095000
v -0.619000 -9.507000 -2.095000
v -2.820000 -9.507000 -1.595000
v -0.138000 -9.507000 -1.595000
v -2.829000 -9.507000 -1.095000
v 0.145000 -9.507000 -1.095000
v -2.732000 -9.507000 -0.595000
v 0.378000 -9.507000 -0.595000
v -2.638000 -9.507000 -0.095000
v 0.480000 -9.507000 -0.095000
v -2.420000 -9.507000 0.405000
v 0.479000 -9.507000 0.405000
v -1.905000 -9.507000 0.905000
v 0.267000 -9.507000 0.905000
v -1.226000 -9.507000 1.405000
v -0.404000 -9.507000 1.405000
v -3.360000 -9.507000 -6.749000
v -3.360000 -9.507000 -4.054000
v -2.860000 -9.507000 -6.876000
v -2.860000 -9.507000 -3.818000
v -2.360000 -9.507000 -6.871000
v -2.360000 -9.507000 -3.709000
v -2.360000 -9.507000 -2.517000
v -2.360000 -9.507000 0.481000
v -1.860000 -9.507000 -6.720000
v -1.860000 -9.507000 -3.919000
v -1.860000 -9.507000 -2.747000
v -1.860000 -9.507000 0.956000
v -1.360000 -9.507000 -5.569000
v -1.360000 -9.507000 -4.627000
v -1.360000 -9.507000 -2.532000
v -1.360000 -9.507000 1.353000
v -0.860000 -9.507000 -2.271000
v -0.860000 -9.507000 1.470000
v -0.360000 -9.507000 -1.880000
v -0.360000 -9.507000 1.390000
v 0.140000 -9.507000 -1.104000
v 0.140000 -9.507000 1.062000
v -3.860000 -12.019000 -6.595000
v -3.860000 -9.776000 -6.595000
v -3.360000 -12.337000 -6.595000
v -3.360000 -9.391000 -6.595000
v -2.860000 -12.432000 -6.595000
v -2.860000 -9.301000 -6.595000
v -2.360000 -12.421000 -6.595000
v -2.360000 -9.282000 -6.595000
v -1.860000 -12.384000 -6.595000
v -1.860000 -9.405000 -6.595000
v -1.360000 -12.289000 -6.595000
v -1.360000 -9.715000 -6.595000
v -0.860000 -11.950000 -6.595000
v -0.860000 -10.070000 -6.595000
v -3.360000 -12.024000 -2.595000
v -3.360000 -10.032000 -2.595000
v -2.860000 -12.341000 -2.595000
v -2.860000 -9.710000 -2.595000
v -2.360000 -12.426000 -2.595000
v -2.360000 -9.528000 -2.595000
v -1.860000 -12.325000 -2.595000
v -1.860000 -9.429000 -2.595000
v -1.360000 -11.978000 -2.595000
v -1.360000 -9.575000 -2.595000
v -1.360000 -11.055000 1.405000
v -1.360000 -9.673000 1.405000
v -0.860000 -11.422000 1.405000
v -0.860000 -9.355000 1.405000
v -0.360000 -11.627000 1.405000
v -0.360000 -9.549000 1.405000
v 0.140000 -11.301000 1.405000
v 0.140000 -10.731000 1.405000
v -1.889000 -9.007000 -2.095000
v -0.898000 -9.007000 -2.095000
v -2.424000 -9.007000 -1.595000
v -0.265000 -9.007000 -1.595000
v -2.616000 -9.007000 -1.095000
v -0.068000 -9.007000 -1.095000
v -2.601000 -9.007000 -0.595000
v 0.029000 -9.007000 -0.595000
v -2.376000 -9.007000 -0.095000
v 0.162000 -9.007000 -0.095000
v -1.992000 -9.007000 0.405000
v 0.161000 -9.007000 0.405000
v -1.486000 -9.007000 0.905000
v -0.144000 -9.007000 0.905000
v -2.360000 -9.007000 -1.687000
v -2.360000 -9.007000 -0.069000
v -1.860000 -9.007000 -2.107000
v -1.860000 -9.007000 0.505000
v -1.360000 -9.007000 -2.195000
v -1.360000 -9.007000 1.000000
v -0.860000 -9.007000 -2.081000
v -0.860000 -9.007000 1.159000
v -0.360000 -9.007000 -1.722000
v -0.360000 -9.007000 1.052000
v 0.140000 -9.007000 -0.172000
v 0.140000 -9.007000 0.477000
v -3.860000 -12.031000 -6.095000
v -3.860000 -9.508000 -6.095000
v -3.360000 -12.344000 -6.095000
v -3.360000 -9.200000 -6.095000
v -2.860000 -12.428000 -6.095000
v -2.860000 -9.122000 -6.095000
v -2.360000 -12.437000 -6.095000
v -2.360000 -9.084000 -6.095000
v -1.860000 -12.411000 -6.095000
v -1.860000 -9.188000 -6.095000
v -1.360000 -12.327000 -6.095000
v -1.360000 -9.542000 -6.095000
v -0.860000 -12.012000 -6.095000
v -0.860000 -10.035000 -6.095000
v -3.360000 -12.000000 -2.095000
v -3.360000 -9.984000 -2.095000
v -2.860000 -12.322000 -2.095000
v -2.860000 -9.662000 -2.095000
v -2.360000 -12.409000 -2.095000
v -2.360000 -9.328000 -2.095000
v -1.860000 -12.306000 -2.095000
v -1.860000 -8.992000 -2.095000
v -1.360000 -12.013000 -2.095000
v -1.360000 -8.846000 -2.095000
v -0.860000 -11.407000 -2.095000
v -0.860000 -9.040000 -2.095000
v -1.949000 -8.507000 -1.595000
v -0.735000 -8.507000 -1.595000
v -2.254000 -8.507000 -1.095000
v -0.431000 -8.507000 -1.095000
v -2.233000 -8.507000 -0.595000
v -0.452000 -8.507000 -0.595000
v -1.847000 -8.507000 -0.095000
v -0.704000 -8.507000 -0.095000
v -1.860000 -8.507000 -1.662000
v -1.860000 -8.507000 -0.104000
v -1.360000 -8.507000 -1.818000
v -1.360000 -8.507000 0.075000
v -0.860000 -8.507000 -1.685000
v -0.860000 -8.507000 0.037000
v -3.860000 -12.000000 -5.595000
v -3.860000 -9.523000 -5.595000
v -3.360000 -12.330000 -5.595000
v -3.360000 -9.201000 -5.595000
v -2.860000 -12.422000 -5.595000
v -2.860000 -9.107000 -5.595000
v -2.360000 -12.432000 -5.595000
v -2.360000 -9.080000 -5.595000
v -1.860000 -12.405000 -5.595000
v -1.860000 -9.177000 -5.595000
v -1.360000 -12.324000 -5.595000
v -1.360000 -9.509000 -5.595000
v -0.860000 -12.010000 -5.595000
v -0.860000 -10.030000 -5.595000
v -3.360000 -11.948000 -1.595000
v -3.360000 -9.977000 -1.595000
v -2.860000 -12.262000 -1.595000
v -2.860000 -9.548000 -1.595000
v -2.360000 -12.342000 -1.595000
v -2.360000 -8.904000 -1.595000
v -1.860000 -12.240000 -1.595000
v -1.860000 -8.460000 -1.595000
v -1.360000 -12.069000 -1.595000
v -1.360000 -8.343000 -1.595000
v -0.860000 -11.860000 -1.595000
v -0.860000 -8.443000 -1.595000
v -0.360000 -11.418000 -1.595000
v -0.360000 -8.849000 -1.595000
f 153 105 61
f 61 105 103
f 105 195 103
f 197 195 105
f 197 291 195
f 293 291 197
f 293 389 291
f 391 389 293
f 391 154 389
f 389 154 62
f 155 13 63
f 63 13 11
f 61 11 13
f 61 13 153
f 479 62 154
f 479 154 481
f 481 156 479
f 479 156 64
f 157 63 65
f 157 155 63
f 64 158 66
f 156 158 64
f 159 65 67
f 159 157 65
f 66 160 68
f 158 160 66
f 161 67 69
f 161 159 67
f 68 162 70
f 160 162 68
f 163 69 71
f 163 161 69
f 482 164 516
f 516 72 482
f 72 162 482
f 72 70 162
f 71 12 163
f 163 12 14
f 165 14 12
f 165 12 73
f 392 166 74
f 392 74 390
f 164 392 516
f 392 480 516
f 392 390 480
f 72 516 480
f 73 104 165
f 165 104 106
f 196 106 104
f 196 198 106
f 292 198 196
f 292 294 198
f 292 74 294
f 294 74 166
f 134 119 75
f 226 211 134
f 134 211 119
f 322 307 226
f 226 307 211
f 322 76 307
f 44 27 77
f 27 44 75
f 44 134 75
f 44 136 134
f 136 167 213
f 226 136 213
f 134 136 226
f 226 213 309
f 226 309 322
f 405 76 322
f 309 405 322
f 407 405 309
f 407 168 405
f 405 168 78
f 79 46 77
f 77 46 44
f 46 169 121
f 136 46 121
f 44 46 136
f 167 136 121
f 491 78 168
f 491 168 493
f 493 561 491
f 563 561 493
f 563 170 561
f 561 170 80
f 46 79 29
f 79 171 29
f 79 81 171
f 169 46 29
f 611 80 170
f 611 170 613
f 613 172 611
f 611 172 82
f 173 81 83
f 173 171 81
f 82 174 84
f 172 174 82
f 175 83 85
f 175 173 83
f 84 176 86
f 174 176 84
f 177 85 87
f 177 175 85
f 614 178 88
f 614 88 612
f 612 86 614
f 614 86 176
f 59 179 28
f 179 87 28
f 179 177 87
f 89 59 28
f 564 180 90
f 564 90 562
f 562 88 564
f 564 88 178
f 59 30 179
f 151 181 120
f 120 181 89
f 181 30 89
f 30 59 89
f 212 243 151
f 212 151 120
f 308 339 243
f 308 243 212
f 408 182 339
f 308 408 339
f 406 408 308
f 492 408 406
f 492 494 408
f 492 90 494
f 494 90 180
f 151 122 181
f 122 151 214
f 214 151 243
f 214 243 310
f 310 243 339
f 339 182 310
f 245 183 225
f 183 246 225
f 247 91 135
f 245 225 91
f 225 135 91
f 225 227 135
f 279 323 246
f 323 225 246
f 323 227 225
f 279 248 323
f 135 92 247
f 92 135 249
f 135 229 249
f 135 227 229
f 250 229 280
f 229 323 280
f 229 227 323
f 323 248 280
f 229 184 249
f 229 250 184
f 251 107 153
f 153 107 105
f 107 197 105
f 199 197 107
f 199 293 197
f 295 293 199
f 295 391 293
f 393 391 295
f 393 252 391
f 391 252 154
f 253 15 155
f 155 15 13
f 153 13 15
f 153 15 251
f 481 154 252
f 481 252 483
f 483 254 481
f 481 254 156
f 255 155 157
f 255 253 155
f 156 256 158
f 254 256 156
f 257 157 159
f 257 255 157
f 158 258 160
f 256 258 158
f 259 159 161
f 259 257 159
f 160 260 162
f 258 260 160
f 261 161 163
f 261 259 161
f 484 262 164
f 484 164 482
f 482 162 484
f 484 162 260
f 163 14 261
f 261 14 16
f 263 16 14
f 263 14 165
f 394 264 166
f 394 166 392
f 392 164 394
f 394 164 262
f 165 106 263
f 263 106 108
f 198 108 106
f 198 200 108
f 294 200 198
f 294 296 200
f 294 166 296
f 296 166 264
f 228 213 167
f 324 309 228
f 228 309 213
f 424 407 324
f 324 407 309
f 424 168 407
f 138 121 169
f 215 228 167
f 215 167 121
f 265 215 121
f 138 265 121
f 228 215 311
f 228 311 324
f 324 311 409
f 324 409 424
f 493 168 424
f 409 493 424
f 495 493 409
f 495 563 493
f 565 563 495
f 565 266 563
f 563 266 170
f 48 29 171
f 123 138 169
f 123 169 29
f 267 123 29
f 48 267 29
f 265 138 123
f 268 618 613
f 170 268 613
f 266 268 170
f 618 172 613
f 48 171 31
f 171 269 31
f 171 173 269
f 267 48 31
f 615 618 268
f 615 270 618
f 270 172 618
f 270 174 172
f 271 173 175
f 271 269 173
f 174 272 176
f 270 272 174
f 273 175 177
f 273 271 175
f 616 274 178
f 616 178 614
f 614 176 616
f 616 176 272
f 275 177 179
f 275 273 177
f 564 581 180
f 564 178 581
f 178 276 581
f 178 274 276
f 179 30 275
f 275 30 32
f 277 32 30
f 277 30 181
f 410 278 182
f 410 182 408
f 494 410 408
f 494 496 410
f 581 566 180
f 566 494 180
f 566 496 494
f 581 276 566
f 181 122 277
f 277 122 124
f 214 124 122
f 214 216 124
f 310 216 214
f 310 312 216
f 310 182 312
f 312 182 278
f 341 93 131
f 131 93 223
f 223 93 185
f 223 185 319
f 319 185 281
f 281 342 319
f 343 1 39
f 341 131 1
f 131 39 1
f 131 133 39
f 223 183 245
f 133 223 245
f 131 223 133
f 321 246 183
f 223 321 183
f 319 321 223
f 319 342 321
f 321 342 344
f 43 345 39
f 39 345 343
f 133 91 247
f 43 133 247
f 39 133 43
f 133 245 91
f 321 279 246
f 344 379 423
f 344 423 248
f 321 344 248
f 279 321 248
f 379 346 423
f 45 347 43
f 43 347 345
f 43 247 92
f 137 43 92
f 45 43 137
f 249 137 92
f 280 325 250
f 325 280 248
f 423 325 248
f 425 325 423
f 423 346 425
f 425 346 348
f 45 2 347
f 2 45 349
f 45 139 349
f 45 137 139
f 137 249 184
f 231 137 184
f 139 137 231
f 231 184 250
f 325 231 250
f 327 231 325
f 350 327 380
f 327 425 380
f 327 325 425
f 425 348 380
f 139 94 349
f 94 139 351
f 139 233 351
f 139 231 233
f 352 233 282
f 233 327 282
f 233 231 327
f 327 350 282
f 233 186 351
f 233 352 186
f 132 107 251
f 224 199 132
f 132 199 107
f 320 295 224
f 224 295 199
f 418 393 320
f 320 393 295
f 418 252 393
f 40 15 253
f 109 132 251
f 109 251 15
f 353 109 15
f 40 353 15
f 132 109 201
f 132 201 224
f 224 201 297
f 224 297 320
f 320 297 395
f 320 395 418
f 354 504 483
f 354 483 252
f 395 354 252
f 418 395 252
f 504 254 483
f 40 253 17
f 253 355 17
f 253 255 355
f 353 40 17
f 356 506 504
f 356 504 354
f 254 504 256
f 256 504 506
f 357 255 257
f 357 355 255
f 358 508 506
f 358 506 356
f 256 506 258
f 258 506 508
f 359 257 259
f 359 357 257
f 360 512 508
f 360 508 358
f 258 508 260
f 260 508 512
f 361 259 261
f 361 359 259
f 262 484 512
f 360 262 512
f 362 262 360
f 260 512 484
f 261 16 361
f 361 16 18
f 363 18 16
f 363 16 263
f 396 364 264
f 396 264 394
f 394 262 396
f 396 262 362
f 263 108 363
f 363 108 110
f 200 110 108
f 200 202 110
f 296 202 200
f 296 298 202
f 296 264 298
f 298 264 364
f 230 215 265
f 365 313 230
f 313 215 230
f 313 311 215
f 313 409 311
f 411 409 313
f 411 495 409
f 497 495 411
f 572 565 366
f 565 497 366
f 565 495 497
f 572 266 565
f 367 125 267
f 267 125 123
f 217 230 265
f 123 217 265
f 125 217 123
f 365 230 217
f 567 572 366
f 567 368 572
f 368 266 572
f 368 268 266
f 369 33 269
f 269 33 31
f 267 31 33
f 267 33 367
f 370 620 615
f 268 370 615
f 368 370 268
f 620 270 615
f 371 269 271
f 371 369 269
f 372 622 620
f 372 620 370
f 270 620 272
f 272 620 622
f 373 271 273
f 373 371 271
f 274 616 622
f 372 274 622
f 374 274 372
f 272 622 616
f 375 273 275
f 375 373 273
f 274 376 276
f 374 376 274
f 275 32 375
f 375 32 34
f 377 34 32
f 377 32 277
f 412 378 278
f 412 278 410
f 496 412 410
f 496 498 412
f 566 498 496
f 566 568 498
f 566 276 568
f 568 276 376
f 277 124 377
f 377 124 126
f 216 126 124
f 216 218 126
f 312 218 216
f 312 314 218
f 312 278 314
f 314 278 378
f 437 95 341
f 341 95 93
f 95 185 93
f 187 185 95
f 187 281 185
f 283 281 187
f 283 438 281
f 281 438 342
f 439 3 343
f 343 3 1
f 341 1 3
f 341 3 437
f 438 381 419
f 344 438 419
f 342 438 344
f 381 440 419
f 441 343 345
f 441 439 343
f 419 379 344
f 419 440 379
f 440 346 379
f 440 442 346
f 443 345 347
f 443 441 345
f 346 444 348
f 442 444 346
f 47 445 2
f 445 347 2
f 445 443 347
f 349 47 2
f 380 427 350
f 380 348 427
f 348 446 427
f 348 444 446
f 49 447 47
f 47 447 445
f 47 349 94
f 141 47 94
f 49 47 141
f 351 141 94
f 282 329 352
f 329 282 350
f 427 329 350
f 429 329 427
f 427 446 429
f 429 446 448
f 49 4 447
f 4 49 449
f 49 143 449
f 49 141 143
f 141 351 186
f 235 141 186
f 143 141 235
f 235 186 352
f 329 235 352
f 331 235 329
f 450 331 382
f 331 429 382
f 331 329 429
f 429 448 382
f 143 96 449
f 96 143 188
f 188 143 235
f 188 235 284
f 284 235 331
f 331 450 284
f 451 111 353
f 353 111 109
f 111 201 109
f 203 201 111
f 203 297 201
f 299 297 203
f 299 395 297
f 397 395 299
f 397 452 395
f 395 452 354
f 453 19 355
f 355 19 17
f 353 17 19
f 353 19 451
f 354 454 356
f 452 454 354
f 455 355 357
f 455 453 355
f 356 456 358
f 454 456 356
f 457 357 359
f 457 455 357
f 358 458 360
f 456 458 358
f 20 457 50
f 457 361 50
f 457 359 361
f 459 20 50
f 360 460 362
f 458 460 360
f 18 50 361
f 112 459 144
f 144 459 363
f 459 50 363
f 50 18 363
f 112 144 236
f 112 236 204
f 204 236 332
f 204 332 300
f 300 332 364
f 396 300 364
f 398 300 396
f 396 362 398
f 398 362 460
f 110 144 363
f 202 236 110
f 110 236 144
f 298 332 202
f 202 332 236
f 364 332 298
f 326 313 365
f 426 411 326
f 326 411 313
f 510 497 426
f 426 497 411
f 510 366 497
f 140 125 367
f 461 219 140
f 219 125 140
f 219 217 125
f 315 326 365
f 217 315 365
f 219 315 217
f 326 315 413
f 326 413 426
f 426 413 499
f 426 499 510
f 462 574 567
f 462 567 366
f 499 462 366
f 510 499 366
f 574 368 567
f 52 33 369
f 127 140 367
f 127 367 33
f 463 127 33
f 52 463 33
f 461 140 127
f 569 574 462
f 569 464 574
f 464 368 574
f 464 370 368
f 52 369 35
f 369 465 35
f 369 371 465
f 463 52 35
f 370 466 372
f 464 466 370
f 467 371 373
f 467 465 371
f 372 468 374
f 466 468 372
f 469 373 375
f 469 467 373
f 570 470 582
f 582 376 570
f 376 468 570
f 376 374 468
f 375 34 469
f 469 34 36
f 471 36 34
f 471 34 377
f 414 472 378
f 414 378 412
f 498 414 412
f 498 500 414
f 470 500 582
f 500 568 582
f 500 498 568
f 376 582 568
f 377 126 471
f 471 126 128
f 218 128 126
f 218 220 128
f 314 220 218
f 314 316 220
f 314 378 316
f 316 378 472
f 525 5 37
f 37 5 437
f 5 95 437
f 5 97 95
f 97 187 95
f 189 187 97
f 189 283 187
f 285 283 189
f 438 283 417
f 283 383 417
f 283 285 383
f 383 526 417
f 3 439 37
f 439 525 37
f 439 527 525
f 37 437 3
f 417 381 438
f 526 473 503
f 526 503 440
f 417 526 440
f 381 417 440
f 473 528 503
f 529 439 441
f 529 527 439
f 505 442 440
f 505 440 503
f 503 528 505
f 505 528 530
f 531 441 443
f 531 529 441
f 507 444 442
f 507 442 505
f 505 530 507
f 507 530 532
f 533 443 445
f 533 531 443
f 511 446 444
f 511 444 507
f 507 532 511
f 511 532 534
f 535 445 447
f 535 533 445
f 446 511 474
f 536 446 474
f 448 446 536
f 511 534 474
f 447 4 535
f 535 4 6
f 537 6 4
f 537 4 449
f 384 538 450
f 384 450 382
f 382 448 384
f 384 448 536
f 449 96 537
f 537 96 98
f 188 98 96
f 188 190 98
f 284 190 188
f 284 286 190
f 284 450 286
f 286 450 538
f 539 21 41
f 41 21 451
f 21 111 451
f 21 113 111
f 113 203 111
f 205 203 113
f 205 299 203
f 301 299 205
f 420 397 540
f 397 301 540
f 397 299 301
f 420 452 397
f 19 453 41
f 453 539 41
f 453 541 539
f 41 451 19
f 399 420 540
f 399 542 420
f 542 452 420
f 542 454 452
f 543 453 455
f 543 541 453
f 454 544 456
f 542 544 454
f 545 455 457
f 545 543 455
f 544 485 513
f 458 544 513
f 456 544 458
f 485 546 513
f 457 20 545
f 545 20 22
f 547 22 20
f 547 20 459
f 458 513 486
f 548 458 486
f 460 458 548
f 513 546 486
f 459 112 547
f 547 112 114
f 204 114 112
f 204 206 114
f 300 206 204
f 300 302 206
f 398 302 300
f 398 400 302
f 398 460 400
f 400 460 548
f 232 219 461
f 328 315 232
f 232 315 219
f 428 413 328
f 328 413 315
f 514 499 428
f 428 499 413
f 514 462 499
f 142 127 463
f 221 232 461
f 221 461 127
f 549 221 127
f 142 549 127
f 232 221 317
f 232 317 328
f 328 317 415
f 328 415 428
f 428 415 550
f 518 428 550
f 514 428 518
f 462 514 569
f 514 576 569
f 514 518 576
f 576 464 569
f 56 35 465
f 35 56 463
f 56 142 463
f 56 146 142
f 549 142 146
f 549 146 551
f 501 518 550
f 518 501 552
f 578 518 552
f 576 518 578
f 464 576 466
f 466 576 578
f 467 58 465
f 465 58 56
f 58 553 129
f 146 58 129
f 56 58 146
f 551 146 129
f 502 554 522
f 578 552 502
f 522 578 502
f 580 578 522
f 466 578 468
f 468 578 580
f 469 60 467
f 467 60 58
f 150 130 553
f 58 150 553
f 60 150 58
f 555 130 150
f 318 556 338
f 318 338 436
f 318 436 416
f 522 554 416
f 436 522 416
f 524 522 436
f 570 580 470
f 580 524 470
f 580 522 524
f 468 580 570
f 36 60 469
f 471 152 36
f 152 60 36
f 152 150 60
f 244 222 555
f 150 244 555
f 152 244 150
f 338 556 222
f 244 338 222
f 340 338 244
f 414 436 472
f 436 340 472
f 436 338 340
f 500 524 414
f 414 524 436
f 470 524 500
f 128 152 471
f 220 244 128
f 128 244 152
f 316 340 220
f 220 340 244
f 472 340 316
f 583 7 525
f 525 7 5
f 7 97 5
f 99 97 7
f 99 189 97
f 191 189 99
f 191 285 189
f 287 285 191
f 287 383 285
f 385 383 287
f 385 584 383
f 383 584 526
f 585 525 527
f 585 583 525
f 473 526 584
f 473 584 475
f 475 586 473
f 473 586 528
f 587 527 529
f 587 585 527
f 528 588 530
f 586 588 528
f 589 529 531
f 589 587 529
f 530 590 532
f 588 590 530
f 591 531 533
f 591 589 531
f 532 592 534
f 590 592 532
f 593 533 535
f 593 591 533
f 476 594 536
f 476 536 474
f 474 534 476
f 476 534 592
f 53 595 6
f 595 535 6
f 595 593 535
f 537 53 6
f 386 596 538
f 386 538 384
f 384 536 386
f 386 536 594
f 53 8 595
f 537 98 53
f 98 8 53
f 98 100 8
f 190 100 98
f 190 192 100
f 286 192 190
f 286 288 192
f 286 538 288
f 288 538 596
f 42 21 539
f 597 115 42
f 115 21 42
f 115 113 21
f 115 205 113
f 207 205 115
f 207 301 205
f 303 301 207
f 540 301 421
f 301 401 421
f 301 303 401
f 401 598 421
f 42 539 23
f 539 599 23
f 539 541 599
f 597 42 23
f 421 399 540
f 421 598 399
f 598 542 399
f 598 600 542
f 601 541 543
f 601 599 541
f 600 487 509
f 544 600 509
f 542 600 544
f 487 602 509
f 603 543 545
f 603 601 543
f 509 485 544
f 602 557 573
f 602 573 546
f 509 602 546
f 485 509 546
f 557 604 573
f 51 605 22
f 605 545 22
f 605 603 545
f 547 51 22
f 486 517 548
f 517 486 546
f 573 517 546
f 575 517 573
f 573 604 575
f 575 604 606
f 51 24 605
f 547 114 51
f 114 24 51
f 114 116 24
f 206 237 607
f 116 206 607
f 114 206 116
f 302 333 237
f 302 237 206
f 400 431 333
f 400 333 302
f 431 400 548
f 517 431 548
f 519 431 517
f 608 519 558
f 519 575 558
f 519 517 575
f 575 606 558
f 237 208 607
f 208 237 304
f 304 237 333
f 304 333 402
f 402 333 431
f 402 431 488
f 488 431 519
f 519 608 488
f 234 221 549
f 330 317 234
f 234 317 221
f 430 415 330
f 330 415 317
f 430 550 415
f 551 238 549
f 549 238 234
f 334 234 238
f 330 234 334
f 432 330 334
f 430 330 432
f 550 430 501
f 430 520 501
f 430 432 520
f 520 552 501
f 148 129 553
f 129 148 551
f 148 238 551
f 148 240 238
f 336 238 240
f 334 238 336
f 434 334 336
f 432 334 434
f 502 520 554
f 520 434 554
f 520 432 434
f 552 520 502
f 130 148 553
f 555 242 130
f 242 148 130
f 242 240 148
f 318 336 556
f 336 242 556
f 336 240 242
f 416 434 318
f 318 434 336
f 554 434 416
f 222 242 555
f 556 242 222
f 38 7 583
f 623 101 38
f 101 7 38
f 101 99 7
f 101 191 99
f 193 191 101
f 193 287 191
f 289 287 193
f 289 385 287
f 387 385 289
f 387 624 385
f 385 624 584
f 38 583 9
f 583 625 9
f 583 585 625
f 623 38 9
f 475 584 624
f 475 624 477
f 477 626 475
f 475 626 586
f 627 585 587
f 627 625 585
f 586 628 588
f 626 628 586
f 629 587 589
f 629 627 587
f 588 630 590
f 628 630 588
f 631 589 591
f 631 629 589
f 590 632 592
f 630 632 590
f 633 591 593
f 633 631 591
f 478 634 594
f 478 594 476
f 476 592 478
f 478 592 632
f 635 593 595
f 635 633 593
f 388 636 596
f 388 596 386
f 386 594 388
f 388 594 634
f 595 8 635
f 635 8 10
f 100 10 8
f 100 102 10
f 192 102 100
f 192 194 102
f 288 194 192
f 288 290 194
f 288 596 290
f 290 596 636
f 637 117 597
f 597 117 115
f 117 207 115
f 209 207 117
f 209 303 207
f 305 303 209
f 305 401 303
f 403 401 305
f 403 638 401
f 401 638 598
f 639 25 599
f 599 25 23
f 597 23 25
f 597 25 637
f 598 640 600
f 638 640 598
f 641 599 601
f 641 639 599
f 487 600 640
f 487 640 489
f 602 487 571
f 487 559 571
f 487 489 559
f 559 642 571
f 643 601 603
f 643 641 601
f 571 557 602
f 642 609 617
f 642 617 604
f 571 642 604
f 557 571 604
f 609 644 617
f 645 603 605
f 645 643 603
f 619 606 604
f 619 604 617
f 617 644 619
f 619 644 646
f 605 24 645
f 645 24 26
f 116 145 647
f 26 116 647
f 24 116 26
f 607 145 116
f 558 577 608
f 577 558 606
f 619 577 606
f 621 577 619
f 619 646 621
f 621 646 648
f 145 118 647
f 239 649 208
f 208 649 607
f 649 118 607
f 118 145 607
f 304 335 239
f 304 239 208
f 402 433 335
f 402 335 304
f 488 521 433
f 488 433 402
f 521 488 608
f 577 521 608
f 579 521 577
f 650 579 610
f 579 621 610
f 579 577 621
f 621 648 610
f 239 210 649
f 210 239 306
f 306 239 335
f 306 335 404
f 404 335 433
f 404 433 490
f 490 433 521
f 490 521 560
f 560 521 579
f 579 650 560
f 61 103 623
f 623 103 101
f 103 193 101
f 195 193 103
f 195 289 193
f 291 289 195
f 291 387 289
f 389 387 291
f 389 62 387
f 387 62 624
f 63 11 625
f 625 11 9
f 623 9 11
f 623 11 61
f 477 624 62
f 477 62 479
f 479 64 477
f 477 64 626
f 65 625 627
f 65 63 625
f 626 66 628
f 64 66 626
f 67 627 629
f 67 65 627
f 628 68 630
f 66 68 628
f 69 629 631
f 69 67 629
f 630 70 632
f 68 70 630
f 71 631 633
f 71 69 631
f 478 515 634
f 478 632 515
f 632 72 515
f 632 70 72
f 12 71 54
f 71 635 54
f 71 633 635
f 73 12 54
f 390 74 636
f 390 636 388
f 515 480 634
f 480 388 634
f 480 390 388
f 515 72 480
f 10 54 635
f 54 10 73
f 10 104 73
f 10 102 104
f 194 104 102
f 194 196 104
f 290 196 194
f 290 292 196
f 290 636 292
f 292 636 74
f 75 119 637
f 637 119 117
f 119 209 117
f 211 209 119
f 211 305 209
f 307 305 211
f 422 403 76
f 403 307 76
f 403 305 307
f 422 638 403
f 77 27 639
f 639 27 25
f 637 25 27
f 637 27 75
f 405 422 76
f 405 78 422
f 78 638 422
f 78 640 638
f 79 639 641
f 79 77 639
f 489 640 78
f 489 78 491
f 491 559 489
f 561 559 491
f 561 80 559
f 559 80 642
f 81 641 643
f 81 79 641
f 609 642 80
f 609 80 611
f 611 82 609
f 609 82 644
f 83 643 645
f 83 81 643
f 644 84 646
f 82 84 644
f 55 85 26
f 85 645 26
f 85 83 645
f 647 55 26
f 646 86 648
f 84 86 646
f 57 87 55
f 55 87 85
f 55 647 118
f 147 55 118
f 57 55 147
f 649 147 118
f 612 88 650
f 612 650 610
f 610 648 612
f 612 648 86
f 57 28 87
f 28 57 89
f 57 149 89
f 57 147 149
f 147 649 210
f 241 147 210
f 149 147 241
f 306 337 241
f 306 241 210
f 404 435 337
f 404 337 306
f 490 523 435
f 490 435 404
f 562 90 523
f 490 562 523
f 560 562 490
f 560 650 562
f 562 650 88
f 149 120 89
f 120 149 212
f 212 149 241
f 212 241 308
f 308 241 337
f 308 337 406
f 406 337 435
f 406 435 492
f 492 435 523
f 523 90 492
