# Converted from NanoShaper .vert/.face
v 6.179000 11.778000 -5.411000
v 7.923000 11.778000 -5.411000
v 5.788000 11.778000 -4.911000
v 7.931000 11.778000 -4.911000
v 3.817000 11.778000 -4.411000
v 7.400000 11.778000 -4.411000
v 3.555000 11.778000 -3.911000
v 6.501000 11.778000 -3.911000
v 3.536000 11.778000 -3.411000
v 6.005000 11.778000 -3.411000
v 3.744000 11.778000 -2.911000
v 5.712000 11.778000 -2.911000
v 4.610000 11.778000 -2.411000
v 4.846000 11.778000 -2.411000
v 3.768000 11.778000 -4.351000
v 3.768000 11.778000 -2.880000
v 4.268000 11.778000 -4.749000
v 4.268000 11.778000 -2.497000
v 4.768000 11.778000 -4.870000
v 4.768000 11.778000 -2.406000
v 5.268000 11.778000 -4.824000
v 5.268000 11.778000 -2.533000
v 5.768000 11.778000 -4.903000
v 5.768000 11.778000 -2.997000
v 6.268000 11.778000 -5.566000
v 6.268000 11.778000 -3.750000
v 6.768000 11.778000 -5.826000
v 6.768000 11.778000 -3.978000
v 7.268000 11.778000 -5.818000
v 7.268000 11.778000 -4.243000
v 7.768000 11.778000 -5.636000
v 7.768000 11.778000 -4.667000
v 3.768000 9.430000 -8.411000
v 3.768000 10.694000 -8.411000
v 4.268000 8.991000 -8.411000
v 4.268000 11.134000 -8.411000
v 4.768000 8.880000 -8.411000
v 4.768000 11.244000 -8.411000
v 5.268000 8.835000 -8.411000
v 5.268000 11.255000 -8.411000
v 5.768000 8.942000 -8.411000
v 5.768000 11.147000 -8.411000
v 6.268000 9.362000 -8.411000
v 6.268000 10.727000 -8.411000
v 3.768000 10.345000 -4.411000
v 3.768000 11.709000 -4.411000
v 4.268000 9.883000 -4.411000
v 4.268000 12.129000 -4.411000
v 4.768000 9.779000 -4.411000
v 4.768000 12.224000 -4.411000
v 5.268000 9.751000 -4.411000
v 5.268000 12.098000 -4.411000
v 5.768000 9.523000 -4.411000
v 5.768000 11.936000 -4.411000
v 6.268000 9.231000 -4.411000
v 6.268000 11.891000 -4.411000
v 6.768000 9.143000 -4.411000
v 6.768000 11.915000 -4.411000
v 7.268000 9.242000 -4.411000
v 7.268000 11.821000 -4.411000
v 7.768000 9.450000 -4.411000
v 7.768000 11.644000 -4.411000
v 8.268000 9.846000 -4.411000
v 8.268000 11.249000 -4.411000
v 4.079000 12.278000 -3.911000
v 5.377000 12.278000 -3.911000
v 4.045000 12.278000 -3.411000
v 5.411000 12.278000 -3.411000
v 4.614000 12.278000 -2.911000
v 4.842000 12.278000 -2.911000
v 4.268000 12.278000 -4.160000
v 4.268000 12.278000 -3.071000
v 4.768000 12.278000 -4.327000
v 4.768000 12.278000 -2.903000
v 5.268000 12.278000 -4.082000
v 5.268000 12.278000 -3.149000
v 3.768000 9.113000 -7.911000
v 3.768000 11.011000 -7.911000
v 4.268000 8.778000 -7.911000
v 4.268000 11.346000 -7.911000
v 4.768000 8.685000 -7.911000
v 4.768000 11.439000 -7.911000
v 5.268000 8.660000 -7.911000
v 5.268000 11.430000 -7.911000
v 5.768000 8.753000 -7.911000
v 5.768000 11.337000 -7.911000
v 6.268000 9.085000 -7.911000
v 6.268000 11.004000 -7.911000
v 3.768000 10.099000 -3.911000
v 3.768000 12.048000 -3.911000
v 4.268000 9.785000 -3.911000
v 4.268000 12.362000 -3.911000
v 4.768000 9.705000 -3.911000
v 4.768000 12.441000 -3.911000
v 5.268000 9.707000 -3.911000
v 5.268000 12.331000 -3.911000
v 5.768000 9.620000 -3.911000
v 5.768000 12.042000 -3.911000
v 6.268000 9.418000 -3.911000
v 6.268000 11.834000 -3.911000
v 6.768000 9.317000 -3.911000
v 6.768000 11.743000 -3.911000
v 7.268000 9.431000 -3.911000
v 7.268000 11.627000 -3.911000
v 7.768000 9.861000 -3.911000
v 7.768000 11.202000 -3.911000
v 4.268000 8.778000 -7.911000
v 5.829000 8.778000 -7.911000
v 4.061000 8.778000 -7.411000
v 5.813000 8.778000 -7.411000
v 4.090000 8.778000 -6.911000
v 5.748000 8.778000 -6.911000
v 4.242000 8.778000 -6.411000
v 5.199000 8.778000 -6.411000
v 4.268000 8.778000 -7.911000
v 4.268000 8.778000 -6.368000
v 4.768000 8.778000 -8.219000
v 4.768000 8.778000 -6.125000
v 5.268000 8.778000 -8.303000
v 5.268000 8.778000 -6.514000
v 5.768000 8.778000 -8.034000
v 5.768000 8.778000 -6.949000
v 3.768000 8.999000 -7.411000
v 3.768000 11.017000 -7.411000
v 4.268000 8.684000 -7.411000
v 4.268000 11.349000 -7.411000
v 4.768000 8.601000 -7.411000
v 4.768000 11.441000 -7.411000
v 5.268000 8.661000 -7.411000
v 5.268000 11.456000 -7.411000
v 5.768000 8.760000 -7.411000
v 5.768000 11.371000 -7.411000
v 6.268000 9.084000 -7.411000
v 6.268000 11.054000 -7.411000
v 3.768000 10.075000 -3.411000
v 3.768000 12.071000 -3.411000
v 4.268000 9.767000 -3.411000
v 4.268000 12.379000 -3.411000
v 4.768000 9.689000 -3.411000
v 4.768000 12.458000 -3.411000
v 5.268000 9.778000 -3.411000
v 5.268000 12.349000 -3.411000
v 5.768000 9.870000 -3.411000
v 5.768000 11.995000 -3.411000
v 6.268000 9.887000 -3.411000
v 6.268000 11.565000 -3.411000
v 6.768000 9.808000 -3.411000
v 6.768000 11.280000 -3.411000
v 7.268000 10.024000 -3.411000
v 7.268000 11.034000 -3.411000
v 3.882000 9.278000 -8.411000
v 6.205000 9.278000 -8.411000
v 3.634000 9.278000 -7.911000
v 6.422000 9.278000 -7.911000
v 3.549000 9.278000 -7.411000
v 6.428000 9.278000 -7.411000
v 3.558000 9.278000 -6.911000
v 6.446000 9.278000 -6.911000
v 3.594000 9.278000 -6.411000
v 6.423000 9.278000 -6.411000
v 3.844000 9.278000 -5.911000
v 6.570000 9.278000 -5.911000
v 6.055000 9.278000 -5.411000
v 7.838000 9.278000 -5.411000
v 6.160000 9.278000 -4.911000
v 7.848000 9.278000 -4.911000
v 6.158000 9.278000 -4.411000
v 7.362000 9.278000 -4.411000
v 3.768000 9.278000 -8.251000
v 3.768000 9.278000 -6.011000
v 4.268000 9.278000 -8.708000
v 4.268000 9.278000 -5.599000
v 4.768000 9.278000 -8.821000
v 4.768000 9.278000 -5.493000
v 5.268000 9.278000 -8.879000
v 5.268000 9.278000 -5.505000
v 5.768000 9.278000 -8.767000
v 5.768000 9.278000 -5.544000
v 6.268000 9.278000 -8.319000
v 6.268000 9.278000 -4.213000
v 6.768000 9.278000 -5.795000
v 6.768000 9.278000 -3.983000
v 7.268000 9.278000 -5.741000
v 7.268000 9.278000 -4.250000
v 7.768000 9.278000 -5.523000
v 7.768000 9.278000 -4.780000
v 3.768000 9.016000 -6.911000
v 3.768000 11.064000 -6.911000
v 4.268000 8.698000 -6.911000
v 4.268000 11.371000 -6.911000
v 4.768000 8.615000 -6.911000
v 4.768000 11.447000 -6.911000
v 5.268000 8.693000 -6.911000
v 5.268000 11.451000 -6.911000
v 5.768000 8.785000 -6.911000
v 5.768000 11.383000 -6.911000
v 6.268000 9.104000 -6.911000
v 6.268000 11.192000 -6.911000
v 6.768000 9.677000 -6.911000
v 6.768000 10.824000 -6.911000
v 3.768000 10.337000 -2.911000
v 3.768000 11.809000 -2.911000
v 4.268000 9.954000 -2.911000
v 4.268000 12.192000 -2.911000
v 4.768000 9.864000 -2.911000
v 4.768000 12.283000 -2.911000
v 5.268000 9.990000 -2.911000
v 5.268000 12.156000 -2.911000
v 5.768000 10.370000 -2.911000
v 5.768000 11.693000 -2.911000
v 4.205000 9.778000 -8.911000
v 5.931000 9.778000 -8.911000
v 3.619000 9.778000 -8.411000
v 6.449000 9.778000 -8.411000
v 3.418000 9.778000 -7.911000
v 6.628000 9.778000 -7.911000
v 3.370000 9.778000 -7.411000
v 6.675000 9.778000 -7.411000
v 3.364000 9.778000 -6.911000
v 6.828000 9.778000 -6.911000
v 3.375000 9.778000 -6.411000
v 7.318000 9.778000 -6.411000
v 3.576000 9.778000 -5.911000
v 8.197000 9.778000 -5.911000
v 3.970000 9.778000 -5.411000
v 8.449000 9.778000 -5.411000
v 4.374000 9.778000 -4.911000
v 8.453000 9.778000 -4.911000
v 5.129000 9.778000 -4.411000
v 8.214000 9.778000 -4.411000
v 4.287000 9.778000 -3.911000
v 7.705000 9.778000 -3.911000
v 4.237000 9.778000 -3.411000
v 5.266000 9.778000 -3.411000
v 3.768000 9.778000 -8.600000
v 3.768000 9.778000 -5.663000
v 4.268000 9.778000 -8.938000
v 4.268000 9.778000 -5.043000
v 4.268000 9.778000 -3.881000
v 4.268000 9.778000 -3.350000
v 4.768000 9.778000 -9.032000
v 4.768000 9.778000 -4.551000
v 4.768000 9.778000 -4.389000
v 4.768000 9.778000 -3.085000
v 5.268000 9.778000 -9.082000
v 5.268000 9.778000 -3.413000
v 5.768000 9.778000 -8.988000
v 5.768000 9.778000 -3.559000
v 6.268000 9.778000 -8.651000
v 6.268000 9.778000 -3.501000
v 6.768000 9.778000 -7.039000
v 6.768000 9.778000 -3.430000
v 7.268000 9.778000 -6.441000
v 7.268000 9.778000 -3.548000
v 7.768000 9.778000 -6.227000
v 7.768000 9.778000 -3.990000
v 8.268000 9.778000 -5.821000
v 8.268000 9.778000 -4.482000
v 3.768000 9.075000 -6.411000
v 3.768000 11.064000 -6.411000
v 4.268000 8.769000 -6.411000
v 4.268000 11.370000 -6.411000
v 4.768000 8.693000 -6.411000
v 4.768000 11.446000 -6.411000
v 5.268000 8.803000 -6.411000
v 5.268000 11.372000 -6.411000
v 5.768000 8.992000 -6.411000
v 5.768000 11.377000 -6.411000
v 6.268000 9.196000 -6.411000
v 6.268000 11.383000 -6.411000
v 6.768000 9.453000 -6.411000
v 6.768000 11.286000 -6.411000
v 7.268000 9.744000 -6.411000
v 7.268000 11.192000 -6.411000
v 7.768000 10.146000 -6.411000
v 7.768000 10.949000 -6.411000
v 4.268000 10.527000 -2.411000
v 4.268000 11.620000 -2.411000
v 4.768000 10.360000 -2.411000
v 4.768000 11.787000 -2.411000
v 5.268000 10.605000 -2.411000
v 5.268000 11.542000 -2.411000
v 4.175000 10.278000 -8.911000
v 5.943000 10.278000 -8.911000
v 3.604000 10.278000 -8.411000
v 6.456000 10.278000 -8.411000
v 3.406000 10.278000 -7.911000
v 6.634000 10.278000 -7.911000
v 3.382000 10.278000 -7.411000
v 6.732000 10.278000 -7.411000
v 3.357000 10.278000 -6.911000
v 6.998000 10.278000 -6.911000
v 3.359000 10.278000 -6.411000
v 7.856000 10.278000 -6.411000
v 3.556000 10.278000 -5.911000
v 8.453000 10.278000 -5.911000
v 3.793000 10.278000 -5.411000
v 8.657000 10.278000 -5.411000
v 3.893000 10.278000 -4.911000
v 8.661000 10.278000 -4.911000
v 3.811000 10.278000 -4.411000
v 8.466000 10.278000 -4.411000
v 3.615000 10.278000 -3.911000
v 7.971000 10.278000 -3.911000
v 3.594000 10.278000 -3.411000
v 7.429000 10.278000 -3.411000
v 3.816000 10.278000 -2.911000
v 5.675000 10.278000 -2.911000
v 3.768000 10.278000 -8.618000
v 3.768000 10.278000 -5.478000
v 3.768000 10.278000 -4.293000
v 3.768000 10.278000 -2.979000
v 4.268000 10.278000 -8.951000
v 4.268000 10.278000 -2.559000
v 4.768000 10.278000 -9.044000
v 4.768000 10.278000 -2.464000
v 5.268000 10.278000 -9.088000
v 5.268000 10.278000 -2.597000
v 5.768000 10.278000 -8.994000
v 5.768000 10.278000 -2.977000
v 6.268000 10.278000 -8.660000
v 6.268000 10.278000 -3.184000
v 6.768000 10.278000 -7.305000
v 6.768000 10.278000 -3.234000
v 7.268000 10.278000 -6.685000
v 7.268000 10.278000 -3.334000
v 7.768000 10.278000 -6.446000
v 7.768000 10.278000 -3.680000
v 8.268000 10.278000 -6.135000
v 8.268000 10.278000 -4.168000
v 3.768000 9.372000 -5.911000
v 3.768000 10.832000 -5.911000
v 4.268000 8.979000 -5.911000
v 4.268000 11.266000 -5.911000
v 4.768000 8.889000 -5.911000
v 4.768000 11.366000 -5.911000
v 5.268000 9.016000 -5.911000
v 5.268000 11.331000 -5.911000
v 5.768000 9.183000 -5.911000
v 5.768000 11.439000 -5.911000
v 6.268000 9.243000 -5.911000
v 6.268000 11.618000 -5.911000
v 6.768000 9.316000 -5.911000
v 6.768000 11.728000 -5.911000
v 7.268000 9.364000 -5.911000
v 7.268000 11.722000 -5.911000
v 7.768000 9.465000 -5.911000
v 7.768000 11.630000 -5.911000
v 8.268000 9.868000 -5.911000
v 8.268000 11.227000 -5.911000
v 3.826000 10.778000 -8.411000
v 6.231000 10.778000 -8.411000
v 3.589000 10.778000 -7.911000
v 6.444000 10.778000 -7.911000
v 3.582000 10.778000 -7.411000
v 6.528000 10.778000 -7.411000
v 3.539000 10.778000 -6.911000
v 6.808000 10.778000 -6.911000
v 3.540000 10.778000 -6.411000
v 7.873000 10.778000 -6.411000
v 3.734000 10.778000 -5.911000
v 8.461000 10.778000 -5.911000
v 3.856000 10.778000 -5.411000
v 8.665000 10.778000 -5.411000
v 3.803000 10.778000 -4.911000
v 8.668000 10.778000 -4.911000
v 3.601000 10.778000 -4.411000
v 8.474000 10.778000 -4.411000
v 3.392000 10.778000 -3.911000
v 7.977000 10.778000 -3.911000
v 3.375000 10.778000 -3.411000
v 7.430000 10.778000 -3.411000
v 3.554000 10.778000 -2.911000
v 5.991000 10.778000 -2.911000
v 4.077000 10.778000 -2.411000
v 5.379000 10.778000 -2.411000
v 3.768000 10.778000 -8.332000
v 3.768000 10.778000 -5.819000
v 3.768000 10.778000 -4.796000
v 3.768000 10.778000 -2.641000
v 4.268000 10.778000 -8.756000
v 4.268000 10.778000 -2.327000
v 4.768000 10.778000 -8.864000
v 4.768000 10.778000 -2.247000
v 5.268000 10.778000 -8.900000
v 5.268000 10.778000 -2.358000
v 5.768000 10.778000 -8.790000
v 5.768000 10.778000 -2.720000
v 6.268000 10.778000 -8.359000
v 6.268000 10.778000 -3.076000
v 6.768000 10.778000 -6.954000
v 6.768000 10.778000 -3.225000
v 7.268000 10.778000 -6.626000
v 7.268000 10.778000 -3.333000
v 7.768000 10.778000 -6.454000
v 7.768000 10.778000 -3.679000
v 8.268000 10.778000 -6.145000
v 8.268000 10.778000 -4.158000
v 4.268000 9.490000 -5.411000
v 4.268000 11.293000 -5.411000
v 4.768000 9.362000 -5.411000
v 4.768000 11.423000 -5.411000
v 5.268000 9.345000 -5.411000
v 5.268000 11.380000 -5.411000
v 5.768000 9.321000 -5.411000
v 5.768000 11.547000 -5.411000
v 6.268000 9.242000 -5.411000
v 6.268000 11.819000 -5.411000
v 6.768000 9.171000 -5.411000
v 6.768000 11.924000 -5.411000
v 7.268000 9.172000 -5.411000
v 7.268000 11.922000 -5.411000
v 7.768000 9.251000 -5.411000
v 7.768000 11.844000 -5.411000
v 8.268000 9.561000 -5.411000
v 8.268000 11.533000 -5.411000
v 4.119000 11.278000 -7.911000
v 5.899000 11.278000 -7.911000
v 4.113000 11.278000 -7.411000
v 5.969000 11.278000 -7.411000
v 4.059000 11.278000 -6.911000
v 6.087000 11.278000 -6.911000
v 4.060000 11.278000 -6.411000
v 6.795000 11.278000 -6.411000
v 4.294000 11.278000 -5.911000
v 8.229000 11.278000 -5.911000
v 4.244000 11.278000 -5.411000
v 8.474000 11.278000 -5.411000
v 3.953000 11.278000 -4.911000
v 8.478000 11.278000 -4.911000
v 3.595000 11.278000 -4.411000
v 8.246000 11.278000 -4.411000
v 3.375000 11.278000 -3.911000
v 7.708000 11.278000 -3.911000
v 3.358000 11.278000 -3.411000
v 6.773000 11.278000 -3.411000
v 3.535000 11.278000 -2.911000
v 5.949000 11.278000 -2.911000
v 4.043000 11.278000 -2.411000
v 5.413000 11.278000 -2.411000
v 3.768000 11.278000 -4.648000
v 3.768000 11.278000 -2.618000
v 4.268000 11.278000 -8.144000
v 4.268000 11.278000 -5.994000
v 4.268000 11.278000 -5.471000
v 4.268000 11.278000 -2.309000
v 4.768000 11.278000 -8.355000
v 4.768000 11.278000 -2.231000
v 5.268000 11.278000 -8.370000
v 5.268000 11.278000 -2.340000
v 5.768000 11.278000 -8.143000
v 5.768000 11.278000 -2.700000
v 6.268000 11.278000 -6.670000
v 6.268000 11.278000 -3.190000
v 6.768000 11.278000 -6.420000
v 6.768000 11.278000 -3.410000
v 7.268000 11.278000 -6.352000
v 7.268000 11.278000 -3.546000
v 7.768000 11.278000 -6.254000
v 7.768000 11.278000 -3.979000
v 8.268000 11.278000 -5.863000
v 8.268000 11.278000 -4.440000
v 4.268000 9.678000 -8.911000
v 4.268000 10.446000 -8.911000
v 4.768000 9.432000 -8.911000
v 4.768000 10.691000 -8.911000
v 5.268000 9.331000 -8.911000
v 5.268000 10.759000 -8.911000
v 5.768000 9.534000 -8.911000
v 5.768000 10.555000 -8.911000
v 4.268000 9.835000 -4.911000
v 4.268000 11.605000 -4.911000
v 4.768000 9.703000 -4.911000
v 4.768000 11.739000 -4.911000
v 5.268000 9.676000 -4.911000
v 5.268000 11.695000 -4.911000
v 5.768000 9.432000 -4.911000
v 5.768000 11.775000 -4.911000
v 6.268000 9.243000 -4.911000
v 6.268000 11.857000 -4.911000
v 6.768000 9.150000 -4.911000
v 6.768000 11.929000 -4.911000
v 7.268000 9.167000 -4.911000
v 7.268000 11.926000 -4.911000
v 7.768000 9.247000 -4.911000
v 7.768000 11.848000 -4.911000
v 8.268000 9.556000 -4.911000
v 8.268000 11.538000 -4.911000
f 77 153 169
f 169 153 33
f 153 213 33
f 153 215 213
f 215 285 213
f 287 285 215
f 34 285 377
f 285 353 377
f 285 287 353
f 353 78 377
f 151 35 169
f 35 77 169
f 35 79 77
f 169 33 151
f 377 351 34
f 78 417 443
f 78 443 36
f 377 78 36
f 351 377 36
f 417 80 443
f 81 107 117
f 37 117 107
f 79 37 107
f 35 37 79
f 447 38 36
f 447 36 443
f 443 80 447
f 447 80 82
f 119 83 117
f 117 83 81
f 117 37 39
f 117 39 119
f 449 40 38
f 449 38 447
f 447 82 449
f 449 82 84
f 121 85 119
f 119 85 83
f 119 39 41
f 119 41 121
f 451 42 40
f 451 40 449
f 449 84 451
f 451 84 86
f 121 108 85
f 179 87 152
f 152 87 41
f 87 108 41
f 108 121 41
f 43 179 152
f 352 389 44
f 451 418 42
f 42 418 352
f 418 88 352
f 88 389 352
f 451 86 418
f 179 154 87
f 43 214 179
f 214 154 179
f 214 216 154
f 286 216 214
f 286 288 216
f 389 354 44
f 354 286 44
f 354 288 286
f 389 88 354
f 89 303 311
f 311 303 45
f 303 367 45
f 303 369 367
f 369 431 367
f 433 431 369
f 46 431 15
f 431 7 15
f 431 433 7
f 7 90 15
f 301 47 311
f 47 89 311
f 47 91 89
f 311 45 301
f 15 5 46
f 90 65 71
f 90 71 48
f 15 90 48
f 5 15 48
f 65 92 71
f 93 231 243
f 49 243 231
f 91 49 231
f 47 49 91
f 73 50 48
f 73 48 71
f 71 92 73
f 73 92 94
f 229 51 243
f 51 93 243
f 51 95 93
f 243 49 229
f 75 52 50
f 75 50 73
f 73 94 75
f 75 94 96
f 97 51 53
f 97 95 51
f 52 75 66
f 98 52 66
f 54 52 98
f 75 96 66
f 180 167 55
f 53 167 180
f 99 53 180
f 97 53 99
f 54 100 56
f 98 100 54
f 57 182 55
f 55 182 180
f 99 180 182
f 99 182 101
f 8 102 28
f 28 58 8
f 58 100 8
f 58 56 100
f 59 184 57
f 57 184 182
f 101 182 184
f 101 184 103
f 104 30 28
f 104 28 102
f 58 28 60
f 60 28 30
f 168 184 59
f 232 103 256
f 256 103 61
f 103 184 61
f 184 168 61
f 105 232 256
f 434 106 460
f 30 104 434
f 30 434 460
f 6 30 460
f 62 6 460
f 60 30 6
f 230 256 61
f 304 105 330
f 330 105 63
f 105 256 63
f 256 230 63
f 304 330 398
f 304 398 370
f 460 106 370
f 460 370 398
f 432 460 398
f 64 432 398
f 62 460 432
f 302 330 63
f 368 398 302
f 302 398 330
f 64 398 368
f 123 155 77
f 77 155 153
f 155 215 153
f 217 215 155
f 217 287 215
f 289 287 217
f 289 353 287
f 355 353 289
f 355 124 353
f 353 124 78
f 125 109 115
f 79 115 109
f 123 79 109
f 77 79 123
f 417 78 124
f 417 124 419
f 419 126 417
f 417 126 80
f 107 81 115
f 81 125 115
f 81 127 125
f 115 79 107
f 80 128 82
f 126 128 80
f 129 81 83
f 129 127 81
f 82 130 84
f 128 130 82
f 131 83 85
f 131 129 83
f 84 132 86
f 130 132 84
f 85 108 131
f 131 108 110
f 133 110 108
f 133 108 87
f 420 134 88
f 420 88 418
f 418 86 420
f 420 86 132
f 87 154 133
f 133 154 156
f 216 156 154
f 216 218 156
f 288 218 216
f 288 290 218
f 354 290 288
f 354 356 290
f 354 88 356
f 356 88 134
f 135 305 89
f 89 305 303
f 305 369 303
f 371 369 305
f 371 433 369
f 435 433 371
f 435 7 433
f 9 7 435
f 9 136 7
f 7 136 90
f 137 233 239
f 91 239 233
f 135 91 233
f 89 91 135
f 65 90 136
f 65 136 67
f 67 138 65
f 65 138 92
f 231 93 239
f 93 137 239
f 93 139 137
f 239 91 231
f 92 140 94
f 138 140 92
f 234 139 246
f 139 95 246
f 139 93 95
f 141 234 246
f 94 142 96
f 140 142 94
f 97 248 95
f 95 248 246
f 141 246 248
f 141 248 143
f 68 144 98
f 68 98 66
f 66 96 68
f 68 96 142
f 99 250 97
f 97 250 248
f 143 248 250
f 143 250 145
f 10 146 26
f 26 100 10
f 100 144 10
f 100 98 144
f 101 252 99
f 99 252 250
f 145 250 252
f 145 252 147
f 102 8 26
f 146 102 26
f 148 102 146
f 100 26 8
f 103 254 101
f 101 254 252
f 147 252 254
f 147 254 149
f 436 150 458
f 458 104 436
f 104 148 436
f 104 102 148
f 232 254 103
f 306 149 328
f 328 149 105
f 149 254 105
f 254 232 105
f 306 328 396
f 306 396 372
f 458 150 372
f 458 372 396
f 434 458 396
f 106 434 396
f 104 458 434
f 304 328 105
f 370 396 304
f 304 396 328
f 106 396 370
f 187 157 123
f 123 157 155
f 157 217 155
f 219 217 157
f 219 289 217
f 291 289 219
f 291 355 289
f 357 355 291
f 357 188 355
f 355 188 124
f 189 111 125
f 125 111 109
f 123 109 111
f 123 111 187
f 419 124 188
f 419 188 421
f 421 190 419
f 419 190 126
f 191 125 127
f 191 189 125
f 126 192 128
f 190 192 126
f 193 127 129
f 193 191 127
f 128 194 130
f 192 194 128
f 112 193 122
f 193 131 122
f 193 129 131
f 195 112 122
f 130 196 132
f 194 196 130
f 110 122 131
f 195 122 110
f 133 195 110
f 197 195 133
f 422 198 134
f 422 134 420
f 420 132 422
f 422 132 196
f 133 156 197
f 197 156 158
f 218 251 199
f 158 218 199
f 156 218 158
f 290 323 251
f 290 251 218
f 356 391 323
f 356 323 290
f 356 134 391
f 134 200 391
f 134 198 200
f 251 220 199
f 220 251 292
f 292 251 323
f 292 323 358
f 358 323 391
f 391 200 358
f 312 305 135
f 201 373 312
f 373 305 312
f 373 371 305
f 373 435 371
f 437 435 373
f 437 9 435
f 11 9 437
f 11 202 9
f 9 202 136
f 240 233 137
f 307 312 135
f 307 135 233
f 203 307 233
f 240 203 233
f 201 312 307
f 204 72 67
f 136 204 67
f 202 204 136
f 72 138 67
f 139 244 137
f 137 244 240
f 203 240 244
f 203 244 205
f 69 72 204
f 69 206 72
f 206 138 72
f 206 140 138
f 234 244 139
f 205 244 234
f 141 205 234
f 207 205 141
f 70 208 76
f 76 142 70
f 142 206 70
f 142 140 206
f 308 207 320
f 207 143 320
f 207 141 143
f 209 308 320
f 12 210 24
f 76 208 12
f 76 12 24
f 68 76 24
f 144 68 24
f 142 76 68
f 145 322 143
f 143 322 320
f 390 374 209
f 320 390 209
f 322 390 320
f 374 390 454
f 374 454 438
f 24 210 438
f 24 438 454
f 10 24 454
f 146 10 454
f 144 24 10
f 147 324 145
f 145 324 322
f 392 322 324
f 390 322 392
f 456 390 392
f 454 390 456
f 146 454 148
f 148 454 456
f 149 326 147
f 147 326 324
f 394 324 326
f 392 324 394
f 436 456 150
f 456 394 150
f 456 392 394
f 148 456 436
f 306 326 149
f 372 394 306
f 306 394 326
f 150 394 372
f 259 159 187
f 187 159 157
f 159 219 157
f 221 219 159
f 221 291 219
f 293 291 221
f 293 357 291
f 359 357 293
f 359 260 357
f 357 260 188
f 261 113 189
f 189 113 111
f 187 111 113
f 187 113 259
f 421 188 260
f 421 260 423
f 423 262 421
f 421 262 190
f 263 189 191
f 263 261 189
f 190 264 192
f 262 264 190
f 114 263 120
f 263 193 120
f 263 191 193
f 265 114 120
f 192 266 194
f 264 266 192
f 112 120 193
f 265 120 112
f 195 265 112
f 267 265 195
f 194 268 196
f 266 268 194
f 269 195 197
f 269 267 195
f 422 453 198
f 422 196 453
f 196 270 453
f 196 268 270
f 197 158 269
f 269 158 160
f 271 160 158
f 271 158 199
f 455 200 198
f 455 198 453
f 453 270 455
f 455 270 272
f 253 273 220
f 273 199 220
f 273 271 199
f 292 325 253
f 292 253 220
f 358 393 325
f 358 325 292
f 455 424 200
f 200 424 358
f 424 274 358
f 274 393 358
f 455 272 424
f 253 222 273
f 222 253 275
f 253 327 275
f 253 325 327
f 325 395 327
f 325 393 395
f 393 274 395
f 395 274 276
f 327 294 275
f 294 327 360
f 360 327 395
f 395 276 360
f 380 373 201
f 442 437 380
f 380 437 373
f 16 11 442
f 442 11 437
f 16 202 11
f 314 307 203
f 375 380 201
f 375 201 307
f 277 375 307
f 314 277 307
f 380 375 439
f 380 439 442
f 442 439 278
f 18 442 278
f 16 442 18
f 202 16 204
f 204 16 18
f 205 316 203
f 203 316 314
f 277 314 316
f 277 316 279
f 13 18 278
f 280 74 69
f 280 69 204
f 13 280 204
f 18 13 204
f 74 206 69
f 207 318 205
f 205 318 316
f 279 316 318
f 279 318 281
f 14 282 22
f 74 280 14
f 74 14 22
f 70 74 22
f 208 70 22
f 206 74 70
f 308 318 207
f 376 281 388
f 388 281 209
f 281 318 209
f 318 308 209
f 376 388 452
f 376 452 440
f 22 282 440
f 22 440 452
f 12 22 452
f 210 12 452
f 208 22 12
f 374 388 209
f 438 452 374
f 374 452 388
f 210 452 438
f 170 159 259
f 331 223 170
f 223 159 170
f 223 221 159
f 223 293 221
f 295 293 223
f 295 359 293
f 361 359 295
f 361 332 359
f 359 332 260
f 116 113 261
f 161 170 259
f 161 259 113
f 333 161 113
f 116 333 113
f 331 170 161
f 334 444 423
f 260 334 423
f 332 334 260
f 444 262 423
f 263 118 261
f 261 118 116
f 333 116 118
f 333 118 335
f 425 444 334
f 425 336 444
f 336 262 444
f 336 264 262
f 114 118 263
f 335 118 114
f 265 335 114
f 337 335 265
f 264 338 266
f 336 338 264
f 339 265 267
f 339 337 265
f 266 340 268
f 338 340 266
f 341 267 269
f 341 339 267
f 268 342 270
f 340 342 268
f 269 160 341
f 341 160 162
f 343 162 160
f 343 160 271
f 270 344 272
f 342 344 270
f 345 271 273
f 345 343 271
f 424 457 274
f 424 272 457
f 272 346 457
f 272 344 346
f 255 347 222
f 347 273 222
f 347 345 273
f 275 255 222
f 459 276 274
f 459 274 457
f 457 346 459
f 459 346 348
f 255 224 347
f 329 349 294
f 294 349 275
f 349 224 275
f 224 255 275
f 360 397 329
f 360 329 294
f 459 426 276
f 276 426 360
f 426 350 360
f 350 397 360
f 459 348 426
f 329 296 349
f 296 329 362
f 362 329 397
f 397 350 362
f 382 375 277
f 446 439 382
f 382 439 375
f 446 278 439
f 279 384 277
f 277 384 382
f 448 382 384
f 446 382 448
f 278 446 13
f 446 20 13
f 446 448 20
f 20 280 13
f 281 386 279
f 279 386 384
f 450 384 386
f 448 384 450
f 14 20 282
f 20 450 282
f 20 448 450
f 280 20 14
f 376 386 281
f 440 450 376
f 376 450 386
f 282 450 440
f 236 223 331
f 310 295 236
f 236 295 223
f 378 361 310
f 310 361 295
f 378 332 361
f 172 161 333
f 225 236 331
f 225 331 161
f 399 225 161
f 172 399 161
f 236 225 297
f 236 297 310
f 310 297 363
f 310 363 378
f 334 332 378
f 427 334 378
f 363 427 378
f 445 334 427
f 427 400 445
f 335 174 333
f 333 174 172
f 399 172 174
f 399 174 401
f 445 425 334
f 445 400 425
f 400 336 425
f 400 402 336
f 337 176 335
f 335 176 174
f 401 174 176
f 401 176 403
f 336 404 338
f 402 404 336
f 339 178 337
f 337 178 176
f 403 176 178
f 403 178 405
f 338 406 340
f 404 406 338
f 178 339 163
f 339 407 163
f 339 341 407
f 405 178 163
f 406 1 25
f 342 406 25
f 340 406 342
f 1 408 25
f 181 409 162
f 409 341 162
f 409 407 341
f 343 181 162
f 27 344 342
f 27 342 25
f 25 408 27
f 27 408 410
f 183 411 181
f 181 411 409
f 181 343 345
f 181 345 183
f 29 346 344
f 29 344 27
f 27 410 29
f 29 410 412
f 185 413 183
f 183 413 411
f 183 345 347
f 183 347 185
f 31 348 346
f 31 346 29
f 29 412 31
f 31 412 414
f 185 164 413
f 257 415 224
f 224 415 347
f 415 164 347
f 164 185 347
f 349 257 224
f 426 461 350
f 31 2 348
f 348 2 426
f 2 416 426
f 416 461 426
f 31 414 2
f 257 226 415
f 349 296 257
f 296 226 257
f 296 298 226
f 362 298 296
f 362 364 298
f 461 428 350
f 428 362 350
f 428 364 362
f 461 416 428
f 463 211 237
f 237 211 313
f 313 211 283
f 283 464 313
f 241 465 237
f 237 465 463
f 237 315 241
f 237 313 315
f 313 464 315
f 315 464 466
f 245 467 241
f 241 467 465
f 241 317 245
f 241 315 317
f 315 466 317
f 317 466 468
f 247 469 245
f 245 469 467
f 245 319 247
f 245 317 319
f 317 468 319
f 319 468 470
f 247 212 469
f 212 247 284
f 284 247 319
f 319 470 284
f 238 225 399
f 471 299 238
f 299 225 238
f 299 297 225
f 299 363 297
f 365 363 299
f 365 427 363
f 429 427 365
f 429 472 427
f 427 472 400
f 238 399 227
f 399 473 227
f 399 401 473
f 471 238 227
f 400 474 402
f 472 474 400
f 475 401 403
f 475 473 401
f 402 476 404
f 474 476 402
f 477 403 405
f 477 475 403
f 404 478 406
f 476 478 404
f 479 165 407
f 407 165 163
f 405 163 165
f 405 165 477
f 1 406 478
f 1 478 3
f 3 480 1
f 1 480 408
f 481 407 409
f 481 479 407
f 408 482 410
f 480 482 408
f 483 409 411
f 483 481 409
f 410 484 412
f 482 484 410
f 485 411 413
f 485 483 411
f 412 486 414
f 484 486 412
f 413 164 485
f 485 164 166
f 487 166 164
f 487 164 415
f 4 488 416
f 4 416 2
f 2 414 4
f 4 414 486
f 415 226 487
f 487 226 228
f 298 228 226
f 298 300 228
f 364 300 298
f 364 366 300
f 428 366 364
f 428 430 366
f 428 416 430
f 430 416 488
f 33 213 235
f 235 213 309
f 309 213 285
f 285 34 309
f 35 151 171
f 33 235 151
f 151 235 171
f 235 211 171
f 211 463 171
f 309 283 211
f 309 211 235
f 34 351 381
f 34 381 464
f 309 34 464
f 283 309 464
f 351 36 381
f 173 37 171
f 171 37 35
f 171 463 465
f 171 465 173
f 383 466 464
f 383 464 381
f 381 36 383
f 383 36 38
f 175 39 173
f 173 39 37
f 173 465 467
f 173 467 175
f 385 468 466
f 385 466 383
f 383 38 385
f 385 38 40
f 177 41 175
f 175 41 39
f 175 467 469
f 175 469 177
f 387 470 468
f 387 468 385
f 385 40 387
f 387 40 42
f 177 152 41
f 249 43 212
f 212 43 469
f 43 152 469
f 152 177 469
f 284 321 249
f 284 249 212
f 387 352 470
f 470 352 284
f 352 44 284
f 44 321 284
f 387 42 352
f 249 214 43
f 214 249 286
f 286 249 321
f 321 44 286
f 45 367 379
f 379 367 441
f 441 367 431
f 431 46 441
f 47 301 471
f 471 301 299
f 301 45 379
f 365 301 379
f 299 301 365
f 441 429 365
f 441 365 379
f 46 5 17
f 46 17 472
f 441 46 472
f 429 441 472
f 5 48 17
f 242 227 473
f 471 227 242
f 49 471 242
f 47 471 49
f 19 474 472
f 19 472 17
f 17 48 19
f 19 48 50
f 242 473 229
f 473 51 229
f 473 475 51
f 49 242 229
f 21 476 474
f 21 474 19
f 19 50 21
f 21 50 52
f 53 475 477
f 53 51 475
f 23 478 476
f 23 476 21
f 21 52 23
f 23 52 54
f 55 167 479
f 479 167 165
f 477 165 167
f 477 167 53
f 23 3 478
f 23 54 3
f 54 480 3
f 54 56 480
f 57 479 481
f 57 55 479
f 480 58 482
f 56 58 480
f 59 481 483
f 59 57 481
f 482 60 484
f 58 60 482
f 168 59 186
f 59 485 186
f 59 483 485
f 61 168 186
f 6 62 32
f 32 486 6
f 486 60 6
f 486 484 60
f 166 186 485
f 230 61 258
f 258 61 487
f 61 186 487
f 186 166 487
f 63 230 258
f 432 64 462
f 32 62 432
f 32 432 462
f 4 32 462
f 488 4 462
f 486 32 4
f 228 258 487
f 258 228 63
f 228 302 63
f 228 300 302
f 366 302 300
f 366 368 302
f 64 368 462
f 368 430 462
f 368 366 430
f 488 462 430
