# Converted from NanoShaper .vert/.face
v 5.762000 -13.722000 -16.411000
v 6.843000 -13.722000 -16.411000
v 4.635000 -13.722000 -15.911000
v 7.447000 -13.722000 -15.911000
v 4.053000 -13.722000 -15.411000
v 7.674000 -13.722000 -15.411000
v 2.783000 -13.722000 -14.911000
v 7.952000 -13.722000 -14.911000
v 2.066000 -13.722000 -14.411000
v 8.187000 -13.722000 -14.411000
v 1.561000 -13.722000 -13.911000
v 8.367000 -13.722000 -13.911000
v 1.131000 -13.722000 -13.411000
v 8.364000 -13.722000 -13.411000
v 0.939000 -13.722000 -12.911000
v 8.112000 -13.722000 -12.911000
v 0.942000 -13.722000 -12.411000
v 7.236000 -13.722000 -12.411000
v 1.143000 -13.722000 -11.911000
v 6.480000 -13.722000 -11.911000
v 1.394000 -13.722000 -11.411000
v 6.162000 -13.722000 -11.411000
v 1.622000 -13.722000 -10.911000
v 5.995000 -13.722000 -10.911000
v 2.058000 -13.722000 -10.411000
v 5.895000 -13.722000 -10.411000
v 2.483000 -13.722000 -9.911000
v 5.632000 -13.722000 -9.911000
v 2.837000 -13.722000 -9.411000
v 5.241000 -13.722000 -9.411000
v 1.018000 -13.722000 -13.189000
v 1.018000 -13.722000 -12.153000
v 1.518000 -13.722000 -13.856000
v 1.518000 -13.722000 -11.088000
v 2.018000 -13.722000 -14.375000
v 2.018000 -13.722000 -10.466000
v 2.518000 -13.722000 -14.773000
v 2.518000 -13.722000 -9.869000
v 3.018000 -13.722000 -14.980000
v 3.018000 -13.722000 -9.234000
v 3.518000 -13.722000 -15.085000
v 3.518000 -13.722000 -9.007000
v 4.018000 -13.722000 -15.379000
v 4.018000 -13.722000 -8.977000
v 4.518000 -13.722000 -15.840000
v 4.518000 -13.722000 -8.968000
v 5.018000 -13.722000 -16.051000
v 5.018000 -13.722000 -9.190000
v 5.518000 -13.722000 -16.277000
v 5.518000 -13.722000 -9.794000
v 6.018000 -13.722000 -16.492000
v 6.018000 -13.722000 -10.995000
v 6.518000 -13.722000 -16.505000
v 6.518000 -13.722000 -11.952000
v 7.018000 -13.722000 -16.322000
v 7.018000 -13.722000 -12.302000
v 7.518000 -13.722000 -15.794000
v 7.518000 -13.722000 -12.534000
v 8.018000 -13.722000 -14.803000
v 8.018000 -13.722000 -12.814000
v 6.018000 -13.997000 -16.411000
v 6.018000 -12.954000 -16.411000
v 6.518000 -14.030000 -16.411000
v 6.518000 -12.921000 -16.411000
v 1.018000 -14.497000 -12.411000
v 1.018000 -12.987000 -12.411000
v 1.518000 -16.048000 -12.411000
v 1.518000 -11.731000 -12.411000
v 2.018000 -16.597000 -12.411000
v 2.018000 -11.020000 -12.411000
v 2.518000 -16.799000 -12.411000
v 2.518000 -10.772000 -12.411000
v 3.018000 -16.804000 -12.411000
v 3.018000 -10.611000 -12.411000
v 3.518000 -16.668000 -12.411000
v 3.518000 -10.616000 -12.411000
v 4.018000 -16.378000 -12.411000
v 4.018000 -10.609000 -12.411000
v 4.518000 -15.934000 -12.411000
v 4.518000 -10.605000 -12.411000
v 5.018000 -15.754000 -12.411000
v 5.018000 -10.799000 -12.411000
v 5.518000 -15.673000 -12.411000
v 5.518000 -11.192000 -12.411000
v 6.018000 -15.612000 -12.411000
v 6.018000 -11.596000 -12.411000
v 6.518000 -15.395000 -12.411000
v 6.518000 -12.492000 -12.411000
v 7.018000 -15.178000 -12.411000
v 7.018000 -13.365000 -12.411000
v 7.518000 -15.045000 -12.411000
v 7.518000 -13.958000 -12.411000
v 2.260000 -17.222000 -13.911000
v 3.839000 -17.222000 -13.911000
v 2.265000 -17.222000 -13.411000
v 3.827000 -17.222000 -13.411000
v 5.765000 -13.222000 -16.411000
v 6.840000 -13.222000 -16.411000
v 4.598000 -13.222000 -15.911000
v 7.446000 -13.222000 -15.911000
v 4.018000 -13.222000 -15.411000
v 7.653000 -13.222000 -15.411000
v 2.685000 -13.222000 -14.911000
v 7.770000 -13.222000 -14.911000
v 2.053000 -13.222000 -14.411000
v 7.956000 -13.222000 -14.411000
v 1.564000 -13.222000 -13.911000
v 7.966000 -13.222000 -13.911000
v 1.133000 -13.222000 -13.411000
v 7.796000 -13.222000 -13.411000
v 0.946000 -13.222000 -12.911000
v 7.381000 -13.222000 -12.911000
v 0.955000 -13.222000 -12.411000
v 6.952000 -13.222000 -12.411000
v 1.165000 -13.222000 -11.911000
v 6.499000 -13.222000 -11.911000
v 1.401000 -13.222000 -11.411000
v 6.248000 -13.222000 -11.411000
v 1.616000 -13.222000 -10.911000
v 6.155000 -13.222000 -10.911000
v 2.067000 -13.222000 -10.411000
v 6.108000 -13.222000 -10.411000
v 2.352000 -13.222000 -9.911000
v 5.896000 -13.222000 -9.911000
v 2.573000 -13.222000 -9.411000
v 5.471000 -13.222000 -9.411000
v 3.129000 -13.222000 -8.911000
v 4.928000 -13.222000 -8.911000
v 2.518000 -17.222000 -14.186000
v 2.518000 -17.222000 -13.148000
v 3.018000 -17.222000 -14.237000
v 3.018000 -17.222000 -13.103000
v 3.518000 -17.222000 -14.224000
v 3.518000 -17.222000 -13.124000
v 1.018000 -13.222000 -13.178000
v 1.018000 -13.222000 -12.195000
v 1.518000 -13.222000 -13.854000
v 1.518000 -13.222000 -11.080000
v 2.018000 -13.222000 -14.382000
v 2.018000 -13.222000 -10.472000
v 2.518000 -13.222000 -14.811000
v 2.518000 -13.222000 -9.508000
v 3.018000 -13.222000 -15.029000
v 3.018000 -13.222000 -8.973000
v 3.518000 -13.222000 -15.136000
v 3.518000 -13.222000 -8.789000
v 4.018000 -13.222000 -15.411000
v 4.018000 -13.222000 -8.778000
v 4.518000 -13.222000 -15.862000
v 4.518000 -13.222000 -8.777000
v 5.018000 -13.222000 -16.069000
v 5.018000 -13.222000 -8.962000
v 5.518000 -13.222000 -16.276000
v 5.518000 -13.222000 -9.477000
v 6.018000 -13.222000 -16.491000
v 6.018000 -13.222000 -10.129000
v 6.518000 -13.222000 -16.504000
v 6.518000 -13.222000 -11.937000
v 7.018000 -13.222000 -16.321000
v 7.018000 -13.222000 -12.485000
v 7.518000 -13.222000 -15.792000
v 7.518000 -13.222000 -13.080000
v 5.018000 -14.091000 -15.911000
v 5.018000 -12.758000 -15.911000
v 5.518000 -14.529000 -15.911000
v 5.518000 -12.560000 -15.911000
v 6.018000 -14.651000 -15.911000
v 6.018000 -12.340000 -15.911000
v 6.518000 -14.630000 -15.911000
v 6.518000 -12.324000 -15.911000
v 7.018000 -14.403000 -15.911000
v 7.018000 -12.548000 -15.911000
v 1.518000 -15.067000 -11.911000
v 1.518000 -11.379000 -11.911000
v 2.018000 -16.347000 -11.911000
v 2.018000 -10.808000 -11.911000
v 2.518000 -16.579000 -11.911000
v 2.518000 -10.609000 -11.911000
v 3.018000 -16.569000 -11.911000
v 3.018000 -10.579000 -11.911000
v 3.518000 -16.310000 -11.911000
v 3.518000 -10.579000 -11.911000
v 4.018000 -15.870000 -11.911000
v 4.018000 -10.594000 -11.911000
v 4.518000 -15.608000 -11.911000
v 4.518000 -10.606000 -11.911000
v 5.018000 -15.392000 -11.911000
v 5.018000 -10.799000 -11.911000
v 5.518000 -15.261000 -11.911000
v 5.518000 -11.315000 -11.911000
v 6.018000 -15.076000 -11.911000
v 6.018000 -11.943000 -11.911000
v 1.894000 -16.722000 -14.411000
v 4.204000 -16.722000 -14.411000
v 1.652000 -16.722000 -13.911000
v 4.482000 -16.722000 -13.911000
v 1.654000 -16.722000 -13.411000
v 4.475000 -16.722000 -13.411000
v 1.893000 -16.722000 -12.911000
v 4.183000 -16.722000 -12.911000
v 2.259000 -16.722000 -12.411000
v 3.392000 -16.722000 -12.411000
v 5.124000 -12.722000 -15.911000
v 7.199000 -12.722000 -15.911000
v 4.160000 -12.722000 -15.411000
v 7.452000 -12.722000 -15.411000
v 2.660000 -12.722000 -14.911000
v 7.475000 -12.722000 -14.911000
v 2.071000 -12.722000 -14.411000
v 7.489000 -12.722000 -14.411000
v 1.571000 -12.722000 -13.911000
v 7.451000 -12.722000 -13.911000
v 1.284000 -12.722000 -13.411000
v 7.218000 -12.722000 -13.411000
v 1.136000 -12.722000 -12.911000
v 6.956000 -12.722000 -12.911000
v 1.147000 -12.722000 -12.411000
v 6.674000 -12.722000 -12.411000
v 1.291000 -12.722000 -11.911000
v 6.327000 -12.722000 -11.911000
v 1.428000 -12.722000 -11.411000
v 6.201000 -12.722000 -11.411000
v 1.630000 -12.722000 -10.911000
v 6.164000 -12.722000 -10.911000
v 2.078000 -12.722000 -10.411000
v 6.119000 -12.722000 -10.411000
v 2.351000 -12.722000 -9.911000
v 5.908000 -12.722000 -9.911000
v 2.555000 -12.722000 -9.411000
v 5.467000 -12.722000 -9.411000
v 3.095000 -12.722000 -8.911000
v 4.917000 -12.722000 -8.911000
v 2.018000 -16.722000 -14.540000
v 2.018000 -16.722000 -12.730000
v 2.518000 -16.722000 -14.803000
v 2.518000 -16.722000 -12.188000
v 3.018000 -16.722000 -14.869000
v 3.018000 -16.722000 -12.212000
v 3.518000 -16.722000 -14.850000
v 3.518000 -16.722000 -12.476000
v 4.018000 -16.722000 -14.595000
v 4.018000 -16.722000 -12.753000
v 1.518000 -12.722000 -13.836000
v 1.518000 -12.722000 -11.121000
v 2.018000 -12.722000 -14.363000
v 2.018000 -12.722000 -10.484000
v 2.518000 -12.722000 -14.825000
v 2.518000 -12.722000 -9.476000
v 3.018000 -12.722000 -15.041000
v 3.018000 -12.722000 -8.955000
v 3.518000 -12.722000 -15.114000
v 3.518000 -12.722000 -8.773000
v 4.018000 -12.722000 -15.331000
v 4.018000 -12.722000 -8.773000
v 4.518000 -12.722000 -15.647000
v 4.518000 -12.722000 -8.782000
v 5.018000 -12.722000 -15.891000
v 5.018000 -12.722000 -8.968000
v 5.518000 -12.722000 -16.049000
v 5.518000 -12.722000 -9.478000
v 6.018000 -12.722000 -16.289000
v 6.018000 -12.722000 -10.105000
v 6.518000 -12.722000 -16.304000
v 6.518000 -12.722000 -12.232000
v 7.018000 -12.722000 -16.083000
v 7.018000 -12.722000 -13.044000
v 3.018000 -16.133000 -15.411000
v 3.018000 -14.853000 -15.411000
v 3.518000 -16.108000 -15.411000
v 3.518000 -14.808000 -15.411000
v 4.018000 -15.383000 -15.411000
v 4.018000 -14.595000 -15.411000
v 4.518000 -15.159000 -15.411000
v 4.518000 -12.380000 -15.411000
v 5.018000 -15.163000 -15.411000
v 5.018000 -12.234000 -15.411000
v 5.518000 -15.159000 -15.411000
v 5.518000 -12.209000 -15.411000
v 6.018000 -15.159000 -15.411000
v 6.018000 -12.131000 -15.411000
v 6.518000 -15.168000 -15.411000
v 6.518000 -12.118000 -15.411000
v 7.018000 -15.105000 -15.411000
v 7.018000 -12.302000 -15.411000
v 7.518000 -14.419000 -15.411000
v 7.518000 -12.834000 -15.411000
v 1.518000 -14.181000 -11.411000
v 1.518000 -11.415000 -11.411000
v 2.018000 -15.138000 -11.411000
v 2.018000 -10.825000 -11.411000
v 2.518000 -15.976000 -11.411000
v 2.518000 -10.624000 -11.411000
v 3.018000 -15.955000 -11.411000
v 3.018000 -10.591000 -11.411000
v 3.518000 -15.710000 -11.411000
v 3.518000 -10.582000 -11.411000
v 4.018000 -15.449000 -11.411000
v 4.018000 -10.631000 -11.411000
v 4.518000 -15.230000 -11.411000
v 4.518000 -10.753000 -11.411000
v 5.018000 -15.108000 -11.411000
v 5.018000 -11.034000 -11.411000
v 5.518000 -14.881000 -11.411000
v 5.518000 -11.578000 -11.411000
v 6.018000 -14.222000 -11.411000
v 6.018000 -12.237000 -11.411000
v 2.189000 -16.222000 -14.911000
v 4.190000 -16.222000 -14.911000
v 1.641000 -16.222000 -14.411000
v 4.896000 -16.222000 -14.411000
v 1.443000 -16.222000 -13.911000
v 5.887000 -16.222000 -13.911000
v 1.445000 -16.222000 -13.411000
v 5.883000 -16.222000 -13.411000
v 1.557000 -16.222000 -12.911000
v 4.914000 -16.222000 -12.911000
v 1.622000 -16.222000 -12.411000
v 4.181000 -16.222000 -12.411000
v 1.883000 -16.222000 -11.911000
v 3.607000 -16.222000 -11.911000
v 5.118000 -12.222000 -15.411000
v 6.866000 -12.222000 -15.411000
v 3.541000 -12.222000 -14.911000
v 6.931000 -12.222000 -14.911000
v 2.122000 -12.222000 -14.411000
v 6.929000 -12.222000 -14.411000
v 1.556000 -12.222000 -13.911000
v 6.935000 -12.222000 -13.911000
v 1.358000 -12.222000 -13.411000
v 6.900000 -12.222000 -13.411000
v 1.349000 -12.222000 -12.911000
v 6.676000 -12.222000 -12.911000
v 1.379000 -12.222000 -12.411000
v 6.406000 -12.222000 -12.411000
v 1.366000 -12.222000 -11.911000
v 6.117000 -12.222000 -11.911000
v 1.418000 -12.222000 -11.411000
v 6.011000 -12.222000 -11.411000
v 1.628000 -12.222000 -10.911000
v 5.978000 -12.222000 -10.911000
v 2.089000 -12.222000 -10.411000
v 5.931000 -12.222000 -10.411000
v 2.485000 -12.222000 -9.911000
v 5.678000 -12.222000 -9.911000
v 2.769000 -12.222000 -9.411000
v 5.218000 -12.222000 -9.411000
v 1.518000 -16.222000 -14.172000
v 1.518000 -16.222000 -13.112000
v 2.018000 -16.222000 -14.800000
v 2.018000 -16.222000 -11.783000
v 2.518000 -16.222000 -15.141000
v 2.518000 -16.222000 -11.548000
v 3.018000 -16.222000 -15.361000
v 3.018000 -16.222000 -11.558000
v 3.518000 -16.222000 -15.348000
v 3.518000 -16.222000 -11.822000
v 4.018000 -16.222000 -15.091000
v 4.018000 -16.222000 -12.261000
v 4.518000 -16.222000 -14.594000
v 4.518000 -16.222000 -12.696000
v 5.018000 -16.222000 -14.372000
v 5.018000 -16.222000 -12.952000
v 5.518000 -16.222000 -14.270000
v 5.518000 -16.222000 -13.062000
v 1.518000 -12.222000 -13.848000
v 1.518000 -12.222000 -11.108000
v 2.018000 -12.222000 -14.356000
v 2.018000 -12.222000 -10.492000
v 2.518000 -12.222000 -14.619000
v 2.518000 -12.222000 -9.860000
v 3.018000 -12.222000 -14.855000
v 3.018000 -12.222000 -9.167000
v 3.518000 -12.222000 -14.908000
v 3.518000 -12.222000 -8.953000
v 4.018000 -12.222000 -15.090000
v 4.018000 -12.222000 -8.961000
v 4.518000 -12.222000 -15.303000
v 4.518000 -12.222000 -8.987000
v 5.018000 -12.222000 -15.395000
v 5.018000 -12.222000 -9.213000
v 5.518000 -12.222000 -15.439000
v 5.518000 -12.222000 -9.754000
v 6.018000 -12.222000 -15.699000
v 6.018000 -12.222000 -11.476000
v 6.518000 -12.222000 -15.729000
v 6.518000 -12.222000 -12.603000
v 2.518000 -16.551000 -14.911000
v 2.518000 -14.408000 -14.911000
v 3.018000 -16.685000 -14.911000
v 3.018000 -12.323000 -14.911000
v 3.518000 -16.667000 -14.911000
v 3.518000 -12.228000 -14.911000
v 4.018000 -16.400000 -14.911000
v 4.018000 -12.033000 -14.911000
v 4.518000 -15.907000 -14.911000
v 4.518000 -11.833000 -14.911000
v 5.018000 -15.709000 -14.911000
v 5.018000 -11.854000 -14.911000
v 5.518000 -15.659000 -14.911000
v 5.518000 -11.999000 -14.911000
v 6.018000 -15.620000 -14.911000
v 6.018000 -12.042000 -14.911000
v 6.518000 -15.649000 -14.911000
v 6.518000 -12.085000 -14.911000
v 7.018000 -15.628000 -14.911000
v 7.018000 -12.271000 -14.911000
v 7.518000 -15.364000 -14.911000
v 7.518000 -12.793000 -14.911000
v 2.018000 -14.370000 -10.911000
v 2.018000 -11.093000 -10.911000
v 2.518000 -14.891000 -10.911000
v 2.518000 -10.843000 -10.911000
v 3.018000 -15.152000 -10.911000
v 3.018000 -10.776000 -10.911000
v 3.518000 -15.192000 -10.911000
v 3.518000 -10.662000 -10.911000
v 4.018000 -15.158000 -10.911000
v 4.018000 -10.654000 -10.911000
v 4.518000 -14.942000 -10.911000
v 4.518000 -10.844000 -10.911000
v 5.018000 -14.691000 -10.911000
v 5.018000 -11.233000 -10.911000
v 5.518000 -14.409000 -10.911000
v 5.518000 -11.735000 -10.911000
v 6.018000 -13.662000 -10.911000
v 6.018000 -12.292000 -10.911000
v 2.600000 -15.722000 -15.411000
v 3.873000 -15.722000 -15.411000
v 2.050000 -15.722000 -14.911000
v 4.947000 -15.722000 -14.911000
v 1.632000 -15.722000 -14.411000
v 7.333000 -15.722000 -14.411000
v 1.435000 -15.722000 -13.911000
v 7.872000 -15.722000 -13.911000
v 1.413000 -15.722000 -13.411000
v 7.866000 -15.722000 -13.411000
v 1.395000 -15.722000 -12.911000
v 6.857000 -15.722000 -12.911000
v 1.402000 -15.722000 -12.411000
v 5.160000 -15.722000 -12.411000
v 1.612000 -15.722000 -11.911000
v 4.239000 -15.722000 -11.911000
v 2.231000 -15.722000 -11.411000
v 3.493000 -15.722000 -11.411000
v 3.592000 -11.722000 -14.411000
v 5.409000 -11.722000 -14.411000
v 1.769000 -11.722000 -13.911000
v 6.308000 -11.722000 -13.911000
v 1.536000 -11.722000 -13.411000
v 6.422000 -11.722000 -13.411000
v 1.533000 -11.722000 -12.911000
v 6.393000 -11.722000 -12.911000
v 1.521000 -11.722000 -12.411000
v 6.141000 -11.722000 -12.411000
v 1.407000 -11.722000 -11.911000
v 5.891000 -11.722000 -11.911000
v 1.423000 -11.722000 -11.411000
v 5.664000 -11.722000 -11.411000
v 1.641000 -11.722000 -10.911000
v 5.504000 -11.722000 -10.911000
v 2.245000 -11.722000 -10.411000
v 5.461000 -11.722000 -10.411000
v 2.841000 -11.722000 -9.911000
v 5.188000 -11.722000 -9.911000
v 1.518000 -15.722000 -14.193000
v 1.518000 -15.722000 -12.074000
v 2.018000 -15.722000 -14.872000
v 2.018000 -15.722000 -11.521000
v 2.518000 -15.722000 -15.365000
v 2.518000 -15.722000 -11.330000
v 3.018000 -15.722000 -15.550000
v 3.018000 -15.722000 -11.302000
v 3.518000 -15.722000 -15.538000
v 3.518000 -15.722000 -11.423000
v 4.018000 -15.722000 -15.337000
v 4.018000 -15.722000 -11.749000
v 4.518000 -15.722000 -15.086000
v 4.518000 -15.722000 -12.085000
v 5.018000 -15.722000 -14.897000
v 5.018000 -15.722000 -12.371000
v 5.518000 -15.722000 -14.853000
v 5.518000 -15.722000 -12.467000
v 6.018000 -15.722000 -14.764000
v 6.018000 -15.722000 -12.605000
v 6.518000 -15.722000 -14.772000
v 6.518000 -15.722000 -12.882000
v 7.018000 -15.722000 -14.725000
v 7.018000 -15.722000 -12.950000
v 7.518000 -15.722000 -14.293000
v 7.518000 -15.722000 -13.046000
v 1.518000 -11.722000 -12.392000
v 1.518000 -11.722000 -11.127000
v 2.018000 -11.722000 -14.148000
v 2.018000 -11.722000 -10.548000
v 2.518000 -11.722000 -14.356000
v 2.518000 -11.722000 -10.235000
v 3.018000 -11.722000 -14.400000
v 3.018000 -11.722000 -9.725000
v 3.518000 -11.722000 -14.411000
v 3.518000 -11.722000 -9.440000
v 4.018000 -11.722000 -14.499000
v 4.018000 -11.722000 -9.443000
v 4.518000 -11.722000 -14.707000
v 4.518000 -11.722000 -9.490000
v 5.018000 -11.722000 -14.663000
v 5.018000 -11.722000 -9.747000
v 5.518000 -11.722000 -14.362000
v 5.518000 -11.722000 -11.013000
v 6.018000 -11.722000 -14.209000
v 6.018000 -11.722000 -12.226000
v 2.018000 -16.847000 -14.411000
v 2.018000 -14.474000 -14.411000
v 2.518000 -17.104000 -14.411000
v 2.518000 -11.824000 -14.411000
v 3.018000 -17.128000 -14.411000
v 3.018000 -11.735000 -14.411000
v 3.518000 -17.123000 -14.411000
v 3.518000 -11.723000 -14.411000
v 4.018000 -16.899000 -14.411000
v 4.018000 -11.650000 -14.411000
v 4.518000 -16.409000 -14.411000
v 4.518000 -11.606000 -14.411000
v 5.018000 -16.193000 -14.411000
v 5.018000 -11.624000 -14.411000
v 5.518000 -16.142000 -14.411000
v 5.518000 -11.756000 -14.411000
v 6.018000 -15.958000 -14.411000
v 6.018000 -11.831000 -14.411000
v 6.518000 -15.852000 -14.411000
v 6.518000 -11.998000 -14.411000
v 7.018000 -15.808000 -14.411000
v 7.018000 -12.281000 -14.411000
v 7.518000 -15.661000 -14.411000
v 7.518000 -12.751000 -14.411000
v 8.018000 -15.390000 -14.411000
v 8.018000 -13.325000 -14.411000
v 2.518000 -14.470000 -10.411000
v 2.518000 -11.421000 -10.411000
v 3.018000 -14.704000 -10.411000
v 3.018000 -11.093000 -10.411000
v 3.518000 -14.858000 -10.411000
v 3.518000 -10.852000 -10.411000
v 4.018000 -14.863000 -10.411000
v 4.018000 -10.844000 -10.411000
v 4.518000 -14.676000 -10.411000
v 4.518000 -11.045000 -10.411000
v 5.018000 -14.382000 -10.411000
v 5.018000 -11.289000 -10.411000
v 5.518000 -14.097000 -10.411000
v 5.518000 -11.780000 -10.411000
v 6.018000 -13.504000 -10.411000
v 6.018000 -12.385000 -10.411000
v 2.617000 -15.222000 -15.411000
v 4.155000 -15.222000 -15.411000
v 2.070000 -15.222000 -14.911000
v 7.655000 -15.222000 -14.911000
v 1.679000 -15.222000 -14.411000
v 8.174000 -15.222000 -14.411000
v 1.464000 -15.222000 -13.911000
v 8.406000 -15.222000 -13.911000
v 1.396000 -15.222000 -13.411000
v 8.403000 -15.222000 -13.411000
v 1.330000 -15.222000 -12.911000
v 8.161000 -15.222000 -12.911000
v 1.334000 -15.222000 -12.411000
v 6.901000 -15.222000 -12.411000
v 1.554000 -15.222000 -11.911000
v 5.668000 -15.222000 -11.911000
v 2.057000 -15.222000 -11.411000
v 4.537000 -15.222000 -11.411000
v 2.048000 -11.222000 -13.411000
v 5.762000 -11.222000 -13.411000
v 1.982000 -11.222000 -12.911000
v 5.754000 -11.222000 -12.911000
v 1.803000 -11.222000 -12.411000
v 5.555000 -11.222000 -12.411000
v 1.605000 -11.222000 -11.911000
v 5.443000 -11.222000 -11.911000
v 1.622000 -11.222000 -11.411000
v 5.218000 -11.222000 -11.411000
v 1.889000 -11.222000 -10.911000
v 5.001000 -11.222000 -10.911000
v 2.830000 -11.222000 -10.411000
v 4.901000 -11.222000 -10.411000
v 1.518000 -15.222000 -14.099000
v 1.518000 -15.222000 -11.965000
v 2.018000 -15.222000 -14.828000
v 2.018000 -15.222000 -11.438000
v 2.518000 -15.222000 -15.356000
v 2.518000 -15.222000 -11.142000
v 3.018000 -15.222000 -15.542000
v 3.018000 -15.222000 -10.974000
v 3.518000 -15.222000 -15.530000
v 3.518000 -15.222000 -10.944000
v 4.018000 -15.222000 -15.430000
v 4.018000 -15.222000 -11.019000
v 4.518000 -15.222000 -15.386000
v 4.518000 -15.222000 -11.397000
v 5.018000 -15.222000 -15.374000
v 5.018000 -15.222000 -11.602000
v 5.518000 -15.222000 -15.343000
v 5.518000 -15.222000 -11.859000
v 6.018000 -15.222000 -15.341000
v 6.018000 -15.222000 -12.007000
v 6.518000 -15.222000 -15.368000
v 6.518000 -15.222000 -12.255000
v 7.018000 -15.222000 -15.341000
v 7.018000 -15.222000 -12.437000
v 7.518000 -15.222000 -15.064000
v 7.518000 -15.222000 -12.504000
v 8.018000 -15.222000 -14.575000
v 8.018000 -15.222000 -12.763000
v 2.018000 -11.222000 -13.302000
v 2.018000 -11.222000 -10.789000
v 2.518000 -11.222000 -13.850000
v 2.518000 -11.222000 -10.544000
v 3.018000 -11.222000 -13.863000
v 3.018000 -11.222000 -10.281000
v 3.518000 -11.222000 -13.861000
v 3.518000 -11.222000 -9.995000
v 4.018000 -11.222000 -13.859000
v 4.018000 -11.222000 -9.978000
v 4.518000 -11.222000 -13.764000
v 4.518000 -11.222000 -10.050000
v 5.018000 -11.222000 -13.741000
v 5.018000 -11.222000 -10.967000
v 5.518000 -11.222000 -13.662000
v 5.518000 -11.222000 -12.267000
v 1.518000 -16.470000 -13.911000
v 1.518000 -14.906000 -13.911000
v 2.018000 -17.090000 -13.911000
v 2.018000 -11.473000 -13.911000
v 2.518000 -17.302000 -13.911000
v 2.518000 -11.259000 -13.911000
v 3.018000 -17.322000 -13.911000
v 3.018000 -11.250000 -13.911000
v 3.518000 -17.315000 -13.911000
v 3.518000 -11.251000 -13.911000
v 4.018000 -17.129000 -13.911000
v 4.018000 -11.252000 -13.911000
v 4.518000 -16.693000 -13.911000
v 4.518000 -11.304000 -13.911000
v 5.018000 -16.425000 -13.911000
v 5.018000 -11.318000 -13.911000
v 5.518000 -16.339000 -13.911000
v 5.518000 -11.348000 -13.911000
v 6.018000 -16.150000 -13.911000
v 6.018000 -11.569000 -13.911000
v 6.518000 -15.932000 -13.911000
v 6.518000 -11.839000 -13.911000
v 7.018000 -15.875000 -13.911000
v 7.018000 -12.302000 -13.911000
v 7.518000 -15.850000 -13.911000
v 7.518000 -12.782000 -13.911000
v 8.018000 -15.634000 -13.911000
v 8.018000 -13.289000 -13.911000
v 8.518000 -14.996000 -13.911000
v 8.518000 -14.008000 -13.911000
v 2.518000 -13.788000 -9.911000
v 2.518000 -12.162000 -9.911000
v 3.018000 -14.359000 -9.911000
v 3.018000 -11.543000 -9.911000
v 3.518000 -14.630000 -9.911000
v 3.518000 -11.293000 -9.911000
v 4.018000 -14.651000 -9.911000
v 4.018000 -11.279000 -9.911000
v 4.518000 -14.446000 -9.911000
v 4.518000 -11.305000 -9.911000
v 5.018000 -14.168000 -9.911000
v 5.018000 -11.547000 -9.911000
v 5.518000 -13.833000 -9.911000
v 5.518000 -12.056000 -9.911000
v 3.954000 -14.722000 -15.411000
v 7.394000 -14.722000 -15.411000
v 2.314000 -14.722000 -14.911000
v 7.920000 -14.722000 -14.911000
v 1.898000 -14.722000 -14.411000
v 8.397000 -14.722000 -14.411000
v 1.549000 -14.722000 -13.911000
v 8.591000 -14.722000 -13.911000
v 1.295000 -14.722000 -13.411000
v 8.589000 -14.722000 -13.411000
v 1.131000 -14.722000 -12.911000
v 8.387000 -14.722000 -12.911000
v 1.128000 -14.722000 -12.411000
v 7.804000 -14.722000 -12.411000
v 1.358000 -14.722000 -11.911000
v 6.353000 -14.722000 -11.911000
v 1.779000 -14.722000 -11.411000
v 5.683000 -14.722000 -11.411000
v 2.358000 -14.722000 -10.911000
v 4.950000 -14.722000 -10.911000
v 3.060000 -14.722000 -10.411000
v 4.434000 -14.722000 -10.411000
v 2.650000 -10.722000 -12.411000
v 4.879000 -10.722000 -12.411000
v 2.171000 -10.722000 -11.911000
v 4.879000 -10.722000 -11.911000
v 2.206000 -10.722000 -11.411000
v 4.423000 -10.722000 -11.411000
v 3.255000 -10.722000 -10.911000
v 4.269000 -10.722000 -10.911000
v 1.518000 -14.722000 -13.858000
v 1.518000 -14.722000 -11.736000
v 2.018000 -14.722000 -14.530000
v 2.018000 -14.722000 -11.179000
v 2.518000 -14.722000 -15.107000
v 2.518000 -14.722000 -10.749000
v 3.018000 -14.722000 -15.333000
v 3.018000 -14.722000 -10.437000
v 3.518000 -14.722000 -15.381000
v 3.518000 -14.722000 -10.075000
v 4.018000 -14.722000 -15.421000
v 4.018000 -14.722000 -10.035000
v 4.518000 -14.722000 -15.534000
v 4.518000 -14.722000 -10.539000
v 5.018000 -14.722000 -15.640000
v 5.018000 -14.722000 -10.954000
v 5.518000 -14.722000 -15.812000
v 5.518000 -14.722000 -11.261000
v 6.018000 -14.722000 -15.846000
v 6.018000 -14.722000 -11.712000
v 6.518000 -14.722000 -15.804000
v 6.518000 -14.722000 -12.009000
v 7.018000 -14.722000 -15.629000
v 7.018000 -14.722000 -12.239000
v 7.518000 -14.722000 -15.326000
v 7.518000 -14.722000 -12.317000
v 8.018000 -14.722000 -14.815000
v 8.018000 -14.722000 -12.533000
v 8.518000 -14.722000 -14.173000
v 8.518000 -14.722000 -13.165000
v 2.518000 -10.722000 -12.293000
v 2.518000 -10.722000 -11.120000
v 3.018000 -10.722000 -12.731000
v 3.018000 -10.722000 -11.033000
v 3.518000 -10.722000 -12.731000
v 3.518000 -10.722000 -10.680000
v 4.018000 -10.722000 -12.761000
v 4.018000 -10.722000 -10.659000
v 4.518000 -10.722000 -12.767000
v 4.518000 -10.722000 -11.521000
v 1.518000 -16.464000 -13.411000
v 1.518000 -11.754000 -13.411000
v 2.018000 -17.088000 -13.411000
v 2.018000 -11.240000 -13.411000
v 2.518000 -17.300000 -13.411000
v 2.518000 -11.062000 -13.411000
v 3.018000 -17.318000 -13.411000
v 3.018000 -11.058000 -13.411000
v 3.518000 -17.311000 -13.411000
v 3.518000 -11.062000 -13.411000
v 4.018000 -17.124000 -13.411000
v 4.018000 -11.053000 -13.411000
v 4.518000 -16.687000 -13.411000
v 4.518000 -11.088000 -13.411000
v 5.018000 -16.422000 -13.411000
v 5.018000 -11.114000 -13.411000
v 5.518000 -16.337000 -13.411000
v 5.518000 -11.152000 -13.411000
v 6.018000 -16.148000 -13.411000
v 6.018000 -11.353000 -13.411000
v 6.518000 -15.942000 -13.411000
v 6.518000 -11.815000 -13.411000
v 7.018000 -15.883000 -13.411000
v 7.018000 -12.426000 -13.411000
v 7.518000 -15.847000 -13.411000
v 7.518000 -13.020000 -13.411000
v 8.018000 -15.630000 -13.411000
v 8.018000 -13.373000 -13.411000
v 8.518000 -14.988000 -13.411000
v 8.518000 -14.016000 -13.411000
v 3.018000 -13.888000 -9.411000
v 3.018000 -11.972000 -9.411000
v 3.518000 -14.131000 -9.411000
v 3.518000 -11.746000 -9.411000
v 4.018000 -14.184000 -9.411000
v 4.018000 -11.751000 -9.411000
v 4.518000 -14.162000 -9.411000
v 4.518000 -11.796000 -9.411000
v 5.018000 -13.942000 -9.411000
v 5.018000 -12.031000 -9.411000
v 5.201000 -14.222000 -15.911000
v 7.204000 -14.222000 -15.911000
v 4.040000 -14.222000 -15.411000
v 7.572000 -14.222000 -15.411000
v 2.622000 -14.222000 -14.911000
v 7.966000 -14.222000 -14.911000
v 2.082000 -14.222000 -14.411000
v 8.384000 -14.222000 -14.411000
v 1.601000 -14.222000 -13.911000
v 8.580000 -14.222000 -13.911000
v 1.147000 -14.222000 -13.411000
v 8.578000 -14.222000 -13.411000
v 0.946000 -14.222000 -12.911000
v 8.374000 -14.222000 -12.911000
v 0.944000 -14.222000 -12.411000
v 7.778000 -14.222000 -12.411000
v 1.139000 -14.222000 -11.911000
v 6.481000 -14.222000 -11.911000
v 1.535000 -14.222000 -11.411000
v 6.018000 -14.222000 -11.411000
v 1.872000 -14.222000 -10.911000
v 5.705000 -14.222000 -10.911000
v 2.272000 -14.222000 -10.411000
v 5.299000 -14.222000 -10.411000
v 2.881000 -14.222000 -9.911000
v 4.918000 -14.222000 -9.911000
v 1.018000 -14.222000 -13.160000
v 1.018000 -14.222000 -12.150000
v 1.518000 -14.222000 -13.818000
v 1.518000 -14.222000 -11.437000
v 2.018000 -14.222000 -14.354000
v 2.018000 -14.222000 -10.763000
v 2.518000 -14.222000 -14.843000
v 2.518000 -14.222000 -10.172000
v 3.018000 -14.222000 -15.063000
v 3.018000 -14.222000 -9.777000
v 3.518000 -14.222000 -15.160000
v 3.518000 -14.222000 -9.497000
v 4.018000 -14.222000 -15.400000
v 4.018000 -14.222000 -9.450000
v 4.518000 -14.222000 -15.643000
v 4.518000 -14.222000 -9.518000
v 5.018000 -14.222000 -15.846000
v 5.018000 -14.222000 -10.092000
v 5.518000 -14.222000 -16.062000
v 5.518000 -14.222000 -10.669000
v 6.018000 -14.222000 -16.294000
v 6.018000 -14.222000 -11.411000
v 6.518000 -14.222000 -16.309000
v 6.518000 -14.222000 -11.941000
v 7.018000 -14.222000 -16.088000
v 7.018000 -14.222000 -12.215000
v 7.518000 -14.222000 -15.489000
v 7.518000 -14.222000 -12.328000
v 8.018000 -14.222000 -14.851000
v 8.018000 -14.222000 -12.546000
v 8.518000 -14.222000 -14.143000
v 8.518000 -14.222000 -13.196000
v 1.018000 -14.490000 -12.911000
v 1.018000 -12.961000 -12.911000
v 1.518000 -16.133000 -12.911000
v 1.518000 -11.750000 -12.911000
v 2.018000 -16.839000 -12.911000
v 2.018000 -11.198000 -12.911000
v 2.518000 -17.097000 -12.911000
v 2.518000 -10.971000 -12.911000
v 3.018000 -17.118000 -12.911000
v 3.018000 -10.826000 -12.911000
v 3.518000 -17.107000 -12.911000
v 3.518000 -10.822000 -12.911000
v 4.018000 -16.879000 -12.911000
v 4.018000 -10.804000 -12.911000
v 4.518000 -16.422000 -12.911000
v 4.518000 -10.804000 -12.911000
v 5.018000 -16.194000 -12.911000
v 5.018000 -10.964000 -12.911000
v 5.518000 -16.137000 -12.911000
v 5.518000 -11.138000 -12.911000
v 6.018000 -15.916000 -12.911000
v 6.018000 -11.357000 -12.911000
v 6.518000 -15.741000 -12.911000
v 6.518000 -11.935000 -12.911000
v 7.018000 -15.700000 -12.911000
v 7.018000 -12.825000 -12.911000
v 7.518000 -15.643000 -12.911000
v 7.518000 -13.320000 -12.911000
v 8.018000 -15.377000 -12.911000
v 8.018000 -13.627000 -12.911000
v 3.518000 -13.564000 -8.911000
v 3.518000 -12.296000 -8.911000
v 4.018000 -13.609000 -8.911000
v 4.018000 -12.310000 -8.911000
v 4.518000 -13.623000 -8.911000
v 4.518000 -12.350000 -8.911000
f 163 3 47
f 47 3 151
f 151 3 99
f 99 164 151
f 165 783 827
f 163 47 783
f 47 827 783
f 47 49 827
f 47 153 49
f 47 151 153
f 203 259 164
f 259 151 164
f 259 153 151
f 203 166 259
f 829 167 827
f 827 167 165
f 49 1 61
f 829 49 61
f 827 49 829
f 153 97 1
f 153 1 49
f 261 62 97
f 153 261 97
f 259 261 153
f 259 166 261
f 261 166 168
f 831 169 829
f 829 169 167
f 829 61 63
f 829 63 831
f 263 64 62
f 263 62 261
f 261 168 263
f 263 168 170
f 833 171 831
f 831 171 169
f 831 63 2
f 55 831 2
f 833 831 55
f 98 159 55
f 98 55 2
f 159 98 64
f 263 159 64
f 265 159 263
f 263 170 265
f 265 170 172
f 833 784 171
f 784 833 4
f 4 833 55
f 4 55 100
f 100 55 159
f 100 159 204
f 204 159 265
f 265 172 204
f 810 797 65
f 32 17 810
f 810 17 797
f 136 113 32
f 32 113 17
f 136 66 113
f 466 439 67
f 586 565 466
f 466 565 439
f 173 687 586
f 687 565 586
f 687 685 565
f 799 810 65
f 685 799 65
f 687 799 685
f 810 799 19
f 810 19 32
f 32 19 115
f 32 115 136
f 217 66 136
f 115 217 136
f 219 217 115
f 219 333 217
f 335 333 219
f 68 333 491
f 333 455 491
f 333 335 455
f 455 174 491
f 175 319 69
f 69 319 317
f 441 466 67
f 317 441 67
f 319 441 317
f 466 441 567
f 466 567 586
f 173 586 567
f 491 453 68
f 453 491 174
f 577 453 174
f 575 453 577
f 577 176 575
f 575 176 70
f 236 201 71
f 69 201 236
f 177 69 236
f 175 69 177
f 176 697 733
f 72 176 733
f 70 176 72
f 697 178 733
f 73 238 71
f 71 238 236
f 177 236 238
f 177 238 179
f 733 695 72
f 733 178 695
f 178 74 695
f 178 180 74
f 202 238 73
f 179 238 202
f 75 179 202
f 181 179 75
f 74 182 76
f 180 182 74
f 320 181 358
f 181 77 358
f 181 75 77
f 183 320 358
f 76 184 78
f 182 184 76
f 318 358 77
f 442 183 478
f 478 183 79
f 183 358 79
f 358 318 79
f 185 442 478
f 78 186 80
f 184 186 78
f 81 480 79
f 79 480 478
f 185 478 480
f 185 480 187
f 698 188 82
f 698 82 696
f 696 80 698
f 698 80 186
f 440 480 81
f 187 480 440
f 83 187 440
f 189 187 83
f 578 190 628
f 628 84 578
f 84 188 578
f 84 82 188
f 568 189 604
f 189 85 604
f 189 83 85
f 191 568 604
f 456 192 510
f 628 190 456
f 628 456 510
f 576 628 510
f 86 576 510
f 84 628 576
f 87 606 85
f 85 606 604
f 724 688 191
f 604 724 191
f 606 724 604
f 688 724 832
f 688 832 800
f 800 832 54
f 800 54 20
f 20 54 158
f 20 158 116
f 116 158 264
f 116 264 220
f 220 264 88
f 334 220 88
f 336 220 334
f 192 336 510
f 336 454 510
f 336 334 454
f 86 510 454
f 566 606 87
f 89 726 566
f 726 606 566
f 726 724 606
f 834 724 726
f 832 724 834
f 56 832 834
f 54 832 56
f 114 158 90
f 158 56 90
f 158 54 56
f 218 264 114
f 114 264 158
f 88 264 218
f 91 728 89
f 89 728 726
f 836 726 728
f 834 726 836
f 18 56 92
f 56 836 92
f 56 834 836
f 90 56 18
f 686 728 91
f 798 836 686
f 686 836 728
f 92 836 798
f 267 427 471
f 471 427 591
f 591 427 553
f 553 268 591
f 473 269 471
f 471 269 267
f 471 593 473
f 471 591 593
f 591 268 593
f 593 268 270
f 473 428 269
f 428 473 271
f 473 595 271
f 473 593 595
f 673 713 270
f 713 593 270
f 713 595 593
f 673 272 713
f 595 554 271
f 554 595 273
f 595 715 273
f 595 713 715
f 785 823 272
f 823 713 272
f 823 715 713
f 823 785 45
f 45 785 5
f 45 5 149
f 149 5 101
f 149 101 255
f 255 101 205
f 205 274 255
f 717 275 715
f 715 275 273
f 715 825 717
f 715 823 825
f 45 3 163
f 825 45 163
f 823 45 825
f 149 99 3
f 149 3 45
f 257 164 99
f 149 257 99
f 255 257 149
f 255 274 257
f 257 274 276
f 719 277 717
f 717 277 275
f 825 783 165
f 719 825 165
f 717 825 719
f 825 163 783
f 257 203 164
f 276 321 381
f 276 381 166
f 257 276 166
f 203 257 166
f 321 278 381
f 721 279 719
f 719 279 277
f 719 165 167
f 719 167 721
f 383 168 166
f 383 166 381
f 381 278 383
f 383 278 280
f 723 281 721
f 721 281 279
f 721 167 169
f 721 169 723
f 385 170 168
f 385 168 383
f 383 280 385
f 385 280 282
f 725 283 723
f 723 283 281
f 723 169 171
f 723 171 725
f 170 385 322
f 284 170 322
f 172 170 284
f 385 282 322
f 725 674 283
f 835 285 784
f 784 285 171
f 285 674 171
f 674 725 171
f 4 57 835
f 4 835 784
f 100 161 57
f 100 57 4
f 206 286 161
f 100 206 161
f 204 206 100
f 204 172 206
f 206 172 284
f 835 786 285
f 786 835 6
f 6 835 57
f 6 57 102
f 102 57 161
f 161 286 102
f 704 687 173
f 812 799 704
f 704 799 687
f 287 21 812
f 21 799 812
f 21 19 799
f 21 115 19
f 117 115 21
f 117 219 115
f 221 219 117
f 221 335 219
f 337 335 221
f 337 455 335
f 457 455 337
f 457 288 455
f 455 288 174
f 350 319 175
f 468 441 350
f 350 441 319
f 588 567 468
f 468 567 441
f 689 704 173
f 689 173 567
f 289 689 567
f 588 289 567
f 704 689 801
f 704 801 812
f 287 812 801
f 577 174 288
f 577 288 579
f 579 290 577
f 577 290 176
f 177 352 175
f 175 352 350
f 352 291 443
f 468 352 443
f 350 352 468
f 468 443 569
f 468 569 588
f 289 588 569
f 697 176 290
f 697 290 699
f 699 292 697
f 697 292 178
f 179 354 177
f 177 354 352
f 291 352 354
f 291 354 293
f 178 294 180
f 292 294 178
f 181 356 179
f 179 356 354
f 474 444 293
f 354 474 293
f 356 474 354
f 295 444 474
f 180 296 182
f 294 296 180
f 320 356 181
f 183 476 320
f 476 356 320
f 476 474 356
f 295 474 476
f 295 476 297
f 182 298 184
f 296 298 182
f 442 476 183
f 297 476 442
f 185 297 442
f 299 297 185
f 700 300 742
f 742 186 700
f 186 298 700
f 186 184 298
f 570 299 600
f 299 187 600
f 299 185 187
f 301 570 600
f 188 698 742
f 300 188 742
f 302 188 300
f 186 742 698
f 189 602 187
f 187 602 600
f 301 600 602
f 301 602 303
f 580 304 190
f 580 190 578
f 578 188 580
f 580 188 302
f 568 602 189
f 690 303 722
f 722 303 191
f 303 602 191
f 602 568 191
f 305 690 722
f 338 306 384
f 338 384 192
f 456 338 192
f 458 338 456
f 456 190 458
f 458 190 304
f 688 722 191
f 722 688 305
f 688 802 305
f 688 800 802
f 20 802 800
f 20 22 802
f 116 22 20
f 116 118 22
f 220 118 116
f 220 222 118
f 306 222 384
f 222 336 384
f 222 220 336
f 192 384 336
f 387 307 351
f 351 307 469
f 469 307 429
f 469 429 589
f 589 429 555
f 589 555 707
f 707 555 675
f 675 388 707
f 353 389 351
f 351 389 387
f 469 427 267
f 353 469 267
f 351 469 353
f 589 553 427
f 589 427 469
f 709 268 553
f 589 709 553
f 707 709 589
f 787 817 388
f 817 707 388
f 817 709 707
f 817 787 39
f 39 787 7
f 39 7 143
f 143 7 103
f 143 103 249
f 249 103 207
f 207 390 249
f 355 391 353
f 353 391 389
f 353 267 269
f 353 269 355
f 711 270 268
f 711 268 709
f 709 819 711
f 709 817 819
f 817 41 819
f 817 39 41
f 39 145 41
f 39 143 145
f 143 251 145
f 143 249 251
f 249 390 251
f 251 390 392
f 357 393 355
f 355 393 391
f 355 269 428
f 475 355 428
f 357 355 475
f 271 475 428
f 711 673 270
f 821 272 673
f 711 821 673
f 819 821 711
f 819 43 821
f 819 41 43
f 41 147 43
f 41 145 147
f 145 253 147
f 145 251 253
f 323 375 392
f 375 251 392
f 375 253 251
f 323 394 375
f 357 308 393
f 308 357 395
f 357 477 395
f 357 475 477
f 475 271 554
f 597 475 554
f 477 475 597
f 273 597 554
f 821 785 272
f 43 5 785
f 43 785 821
f 147 101 5
f 147 5 43
f 253 205 101
f 253 101 147
f 377 274 205
f 253 377 205
f 375 377 253
f 375 394 377
f 377 394 396
f 477 430 395
f 430 477 397
f 477 599 397
f 477 597 599
f 597 273 275
f 597 275 599
f 379 276 274
f 379 274 377
f 377 396 379
f 379 396 398
f 601 399 599
f 599 399 397
f 599 275 277
f 599 277 601
f 379 321 276
f 379 398 321
f 398 278 321
f 398 400 278
f 603 401 601
f 601 401 399
f 601 277 279
f 601 279 603
f 278 402 280
f 400 402 278
f 605 403 603
f 603 403 401
f 603 279 281
f 603 281 605
f 280 404 282
f 402 404 280
f 607 405 605
f 605 405 403
f 605 281 283
f 605 283 607
f 324 406 284
f 324 284 322
f 322 282 324
f 324 282 404
f 609 407 607
f 607 407 405
f 607 283 674
f 727 607 674
f 609 607 727
f 285 727 674
f 208 408 286
f 208 286 206
f 206 284 208
f 208 284 406
f 609 556 407
f 556 609 676
f 676 609 727
f 285 786 727
f 786 676 727
f 786 788 676
f 6 788 786
f 6 8 788
f 102 8 6
f 102 104 8
f 102 286 104
f 104 286 408
f 34 21 287
f 138 117 34
f 34 117 21
f 244 221 138
f 138 221 117
f 366 337 244
f 244 337 221
f 492 457 366
f 366 457 337
f 492 288 457
f 706 689 289
f 409 803 706
f 803 689 706
f 803 801 689
f 23 34 287
f 801 23 287
f 803 23 801
f 34 23 119
f 34 119 138
f 138 119 223
f 138 223 244
f 244 223 339
f 244 339 366
f 366 339 459
f 366 459 492
f 579 288 492
f 459 579 492
f 581 579 459
f 581 410 579
f 579 410 290
f 470 443 291
f 590 569 470
f 470 569 443
f 691 706 289
f 691 289 569
f 411 691 569
f 590 411 569
f 409 706 691
f 412 734 699
f 290 412 699
f 410 412 290
f 734 292 699
f 293 472 291
f 291 472 470
f 592 470 472
f 590 470 592
f 411 590 592
f 411 592 413
f 414 736 734
f 414 734 412
f 292 734 294
f 294 734 736
f 444 472 293
f 295 594 444
f 594 472 444
f 594 592 472
f 413 592 594
f 413 594 415
f 701 736 414
f 701 416 736
f 416 294 736
f 416 296 294
f 297 596 295
f 295 596 594
f 415 594 596
f 415 596 417
f 296 418 298
f 416 418 296
f 299 598 297
f 297 598 596
f 417 596 598
f 417 598 419
f 702 420 300
f 702 300 700
f 700 298 702
f 702 298 418
f 570 598 299
f 692 419 718
f 718 419 301
f 419 598 301
f 598 570 301
f 421 692 718
f 582 422 626
f 626 302 582
f 302 420 582
f 302 300 420
f 303 720 301
f 301 720 718
f 421 718 720
f 421 720 423
f 460 424 508
f 626 422 460
f 626 460 508
f 580 626 508
f 304 580 508
f 302 626 580
f 690 720 303
f 804 423 830
f 830 423 305
f 423 720 305
f 720 690 305
f 804 830 52
f 804 52 24
f 425 24 52
f 340 426 306
f 340 306 338
f 424 340 508
f 340 458 508
f 340 338 458
f 304 508 458
f 802 830 305
f 22 52 802
f 802 52 830
f 52 22 425
f 22 120 425
f 22 118 120
f 222 120 118
f 222 224 120
f 222 306 224
f 224 306 426
f 511 193 233
f 233 193 349
f 349 193 309
f 349 309 467
f 467 309 431
f 467 431 587
f 587 431 557
f 587 557 705
f 705 557 677
f 677 512 705
f 235 513 233
f 233 513 511
f 349 307 387
f 235 349 387
f 233 349 235
f 467 429 307
f 467 307 349
f 587 555 429
f 587 429 467
f 705 675 555
f 705 555 587
f 512 789 815
f 512 815 388
f 705 512 388
f 675 705 388
f 815 789 37
f 37 789 9
f 37 9 141
f 141 9 105
f 141 105 247
f 247 105 209
f 247 209 369
f 369 209 325
f 325 514 369
f 237 515 235
f 235 515 513
f 235 387 389
f 235 389 237
f 815 787 388
f 37 7 787
f 37 787 815
f 141 103 7
f 141 7 37
f 247 207 103
f 247 103 141
f 371 390 207
f 247 371 207
f 369 371 247
f 369 514 371
f 371 514 516
f 239 517 237
f 237 517 515
f 237 389 391
f 237 391 239
f 373 392 390
f 373 390 371
f 371 516 373
f 373 516 518
f 241 519 239
f 239 519 517
f 239 391 393
f 239 393 241
f 373 323 392
f 518 445 501
f 518 501 394
f 373 518 394
f 323 373 394
f 445 520 501
f 241 194 519
f 359 521 308
f 308 521 393
f 521 194 393
f 194 241 393
f 395 359 308
f 503 396 394
f 503 394 501
f 501 520 503
f 503 520 522
f 359 310 521
f 479 523 430
f 430 523 395
f 523 310 395
f 310 359 395
f 397 479 430
f 505 398 396
f 505 396 503
f 503 522 505
f 505 522 524
f 481 525 479
f 479 525 523
f 479 397 399
f 479 399 481
f 398 505 446
f 526 398 446
f 400 398 526
f 505 524 446
f 483 527 481
f 481 527 525
f 481 399 401
f 481 401 483
f 400 528 402
f 526 528 400
f 485 529 483
f 483 529 527
f 483 401 403
f 483 403 485
f 402 530 404
f 528 530 402
f 487 531 485
f 485 531 529
f 485 403 405
f 485 405 487
f 326 532 406
f 326 406 324
f 324 404 326
f 326 404 530
f 487 432 531
f 533 432 487
f 405 533 487
f 407 533 405
f 210 534 408
f 210 408 208
f 208 406 210
f 210 406 532
f 611 535 556
f 535 407 556
f 535 533 407
f 676 729 611
f 676 611 556
f 788 837 729
f 788 729 676
f 8 59 837
f 8 837 788
f 106 536 59
f 8 106 59
f 104 106 8
f 104 408 106
f 106 408 534
f 611 558 535
f 558 611 678
f 678 611 729
f 678 729 790
f 790 729 837
f 790 837 10
f 10 837 59
f 59 536 10
f 814 803 409
f 36 23 814
f 814 23 803
f 140 119 36
f 36 119 23
f 246 223 140
f 140 223 119
f 368 339 246
f 246 339 223
f 494 459 368
f 368 459 339
f 614 581 494
f 494 581 459
f 614 410 581
f 708 691 411
f 805 814 409
f 805 409 691
f 537 805 691
f 708 537 691
f 814 805 25
f 814 25 36
f 36 25 121
f 36 121 140
f 140 121 225
f 140 225 246
f 246 225 341
f 246 341 368
f 368 341 461
f 368 461 494
f 494 461 538
f 616 494 538
f 614 494 616
f 410 614 412
f 412 614 616
f 413 710 411
f 411 710 708
f 537 708 710
f 537 710 539
f 583 616 538
f 583 540 616
f 540 412 616
f 540 414 412
f 710 413 693
f 413 541 693
f 413 415 541
f 539 710 693
f 542 738 701
f 414 542 701
f 540 542 414
f 738 416 701
f 543 415 417
f 543 541 415
f 544 740 738
f 544 738 542
f 416 738 418
f 418 738 740
f 694 543 716
f 543 419 716
f 543 417 419
f 545 694 716
f 420 702 740
f 544 420 740
f 546 420 544
f 418 740 702
f 692 716 419
f 545 716 692
f 421 545 692
f 547 545 421
f 584 548 422
f 584 422 582
f 582 420 584
f 584 420 546
f 806 547 828
f 547 423 828
f 547 421 423
f 549 806 828
f 462 550 424
f 462 424 460
f 460 422 462
f 462 422 548
f 804 828 423
f 828 804 549
f 804 26 549
f 804 24 26
f 551 26 24
f 551 24 425
f 342 552 426
f 342 426 340
f 340 424 342
f 342 424 550
f 425 120 551
f 551 120 122
f 224 122 120
f 224 226 122
f 224 426 226
f 226 426 552
f 629 311 347
f 347 311 465
f 465 311 433
f 465 433 585
f 585 433 559
f 559 630 585
f 631 195 511
f 511 195 193
f 195 629 347
f 309 195 347
f 193 195 309
f 465 431 309
f 465 309 347
f 585 557 431
f 585 431 465
f 557 585 630
f 679 557 630
f 677 557 679
f 512 677 813
f 677 791 813
f 677 679 791
f 813 791 35
f 35 791 11
f 35 11 139
f 139 11 107
f 139 107 245
f 245 107 211
f 245 211 367
f 367 211 327
f 367 327 493
f 493 327 447
f 447 632 493
f 633 93 129
f 513 129 93
f 631 513 93
f 511 513 631
f 813 789 512
f 35 9 789
f 35 789 813
f 139 105 9
f 139 9 35
f 245 209 105
f 245 105 139
f 367 325 209
f 367 209 245
f 495 514 325
f 367 495 325
f 493 495 367
f 493 632 495
f 495 632 634
f 131 635 129
f 129 635 633
f 129 513 515
f 129 515 131
f 497 516 514
f 497 514 495
f 495 634 497
f 497 634 636
f 133 637 131
f 131 637 635
f 131 515 517
f 131 517 133
f 499 518 516
f 499 516 497
f 497 636 499
f 499 636 638
f 133 94 637
f 639 94 133
f 517 639 133
f 519 639 517
f 499 445 518
f 499 638 445
f 638 520 445
f 638 640 520
f 519 194 639
f 639 194 196
f 641 196 194
f 641 194 521
f 520 642 522
f 640 642 520
f 361 643 310
f 643 521 310
f 643 641 521
f 523 361 310
f 522 644 524
f 642 644 522
f 363 645 361
f 361 645 643
f 361 523 525
f 361 525 363
f 446 507 526
f 446 524 507
f 524 646 507
f 524 644 646
f 363 312 645
f 647 312 363
f 525 647 363
f 527 647 525
f 509 528 526
f 509 526 507
f 507 646 509
f 509 646 648
f 649 527 529
f 649 647 527
f 528 509 448
f 650 528 448
f 530 528 650
f 509 648 448
f 651 529 531
f 651 649 529
f 328 652 532
f 328 532 326
f 326 530 328
f 328 530 650
f 489 653 432
f 653 531 432
f 653 651 531
f 533 489 432
f 212 654 534
f 212 534 210
f 210 532 212
f 212 532 652
f 489 434 653
f 655 434 489
f 533 655 489
f 535 655 533
f 108 656 536
f 108 536 106
f 106 534 108
f 108 534 654
f 535 558 655
f 655 558 560
f 678 731 657
f 560 678 657
f 558 678 560
f 790 839 731
f 790 731 678
f 12 658 839
f 790 12 839
f 10 12 790
f 10 536 12
f 12 536 656
f 731 680 657
f 680 731 792
f 792 731 839
f 839 658 792
f 816 805 537
f 659 27 816
f 27 805 816
f 27 25 805
f 27 121 25
f 123 121 27
f 123 225 121
f 227 225 123
f 227 341 225
f 343 341 227
f 496 461 660
f 461 343 660
f 461 341 343
f 496 538 461
f 816 537 807
f 537 661 807
f 537 539 661
f 659 816 807
f 463 496 660
f 662 618 583
f 662 583 538
f 463 662 538
f 496 463 538
f 618 540 583
f 712 693 541
f 539 693 712
f 663 539 712
f 661 539 663
f 664 620 618
f 664 618 662
f 540 618 542
f 542 618 620
f 543 714 541
f 541 714 712
f 663 712 714
f 663 714 665
f 666 622 620
f 666 620 664
f 542 620 544
f 544 620 622
f 694 714 543
f 665 714 694
f 545 665 694
f 667 665 545
f 668 624 622
f 668 622 666
f 544 622 546
f 546 622 624
f 808 667 826
f 667 547 826
f 667 545 547
f 669 808 826
f 548 584 624
f 668 548 624
f 670 548 668
f 546 624 584
f 806 826 547
f 669 826 806
f 549 669 806
f 671 669 549
f 464 672 550
f 464 550 462
f 462 548 464
f 464 548 670
f 549 26 671
f 671 26 28
f 26 551 156
f 124 26 156
f 28 26 124
f 124 156 262
f 124 262 228
f 228 262 552
f 342 228 552
f 344 228 342
f 342 550 344
f 344 550 672
f 122 156 551
f 226 262 122
f 122 262 156
f 552 262 226
f 743 313 629
f 629 313 311
f 313 433 311
f 435 433 313
f 435 559 433
f 561 559 435
f 630 559 703
f 559 681 703
f 559 561 681
f 703 681 811
f 811 681 793
f 811 793 33
f 33 793 13
f 33 13 137
f 137 13 109
f 137 109 243
f 243 109 213
f 243 213 365
f 365 213 329
f 329 744 365
f 745 197 631
f 631 197 195
f 629 195 197
f 629 197 743
f 703 679 630
f 811 791 679
f 811 679 703
f 33 11 791
f 33 791 811
f 137 107 11
f 137 11 33
f 243 211 107
f 243 107 137
f 365 327 211
f 365 211 243
f 327 365 744
f 449 327 744
f 447 327 449
f 449 746 447
f 447 746 632
f 747 95 633
f 633 95 93
f 631 93 95
f 631 95 745
f 746 571 615
f 634 746 615
f 632 746 634
f 571 748 615
f 749 633 635
f 749 747 633
f 617 636 634
f 617 634 615
f 615 748 617
f 617 748 750
f 751 635 637
f 751 749 635
f 619 638 636
f 619 636 617
f 617 750 619
f 619 750 752
f 637 94 751
f 751 94 96
f 753 96 94
f 753 94 639
f 621 640 638
f 621 638 619
f 619 752 621
f 621 752 754
f 639 196 753
f 753 196 198
f 755 198 196
f 755 196 641
f 623 642 640
f 623 640 621
f 621 754 623
f 623 754 756
f 757 641 643
f 757 755 641
f 625 644 642
f 625 642 623
f 623 756 625
f 625 756 758
f 759 643 645
f 759 757 643
f 627 646 644
f 627 644 625
f 625 758 627
f 627 758 760
f 645 312 759
f 759 312 314
f 761 314 312
f 761 312 647
f 646 627 572
f 762 646 572
f 648 646 762
f 627 760 572
f 763 647 649
f 763 761 647
f 450 764 650
f 450 650 448
f 448 648 450
f 450 648 762
f 765 649 651
f 765 763 649
f 330 766 652
f 330 652 328
f 328 650 330
f 330 650 764
f 767 651 653
f 767 765 651
f 214 768 654
f 214 654 212
f 212 652 214
f 214 652 766
f 653 434 767
f 767 434 436
f 769 436 434
f 769 434 655
f 110 770 656
f 110 656 108
f 108 654 110
f 110 654 768
f 655 560 769
f 769 560 562
f 771 562 560
f 771 560 657
f 14 772 658
f 14 658 12
f 12 656 14
f 14 656 770
f 657 680 771
f 771 680 682
f 792 682 680
f 792 794 682
f 792 658 794
f 794 658 772
f 38 27 659
f 142 123 38
f 38 123 27
f 248 227 142
f 142 227 123
f 370 343 248
f 248 343 227
f 370 660 343
f 818 807 661
f 29 38 659
f 29 659 807
f 773 29 807
f 818 773 807
f 38 29 125
f 38 125 142
f 142 125 229
f 142 229 248
f 248 229 345
f 248 345 370
f 774 498 463
f 774 463 660
f 345 774 660
f 370 345 660
f 498 662 463
f 663 820 661
f 661 820 818
f 773 818 820
f 773 820 775
f 776 500 498
f 776 498 774
f 662 498 664
f 664 498 500
f 665 822 663
f 663 822 820
f 775 820 822
f 775 822 777
f 778 502 500
f 778 500 776
f 664 500 666
f 666 500 502
f 667 824 665
f 665 824 822
f 777 822 824
f 777 824 779
f 780 504 502
f 780 502 778
f 666 502 668
f 668 502 504
f 808 824 667
f 779 824 808
f 669 779 808
f 781 779 669
f 782 506 504
f 782 504 780
f 668 504 670
f 670 504 506
f 30 781 50
f 781 671 50
f 781 669 671
f 30 50 154
f 30 154 126
f 126 154 260
f 126 260 230
f 230 260 382
f 230 382 346
f 506 782 346
f 506 346 382
f 464 506 382
f 672 464 382
f 670 506 464
f 28 50 671
f 124 154 28
f 28 154 50
f 228 260 124
f 124 260 154
f 344 382 228
f 228 382 260
f 672 382 344
f 841 795 809
f 809 795 31
f 31 795 15
f 31 15 135
f 135 15 111
f 111 842 135
f 348 313 743
f 843 437 348
f 437 313 348
f 437 435 313
f 437 561 435
f 563 561 437
f 563 681 561
f 683 681 563
f 683 841 809
f 793 683 809
f 681 683 793
f 31 13 793
f 31 793 809
f 135 109 13
f 135 13 31
f 109 135 842
f 215 109 842
f 213 109 215
f 215 329 213
f 331 329 215
f 331 844 329
f 329 844 744
f 845 199 745
f 745 199 197
f 315 348 743
f 197 315 743
f 199 315 197
f 843 348 315
f 449 744 844
f 449 844 451
f 746 449 613
f 449 573 613
f 449 451 573
f 573 846 613
f 130 95 747
f 745 95 130
f 847 745 130
f 845 745 847
f 613 571 746
f 613 846 571
f 846 748 571
f 846 848 748
f 749 132 747
f 747 132 130
f 847 130 132
f 847 132 849
f 748 850 750
f 848 850 748
f 751 134 749
f 749 134 132
f 849 132 134
f 849 134 851
f 750 852 752
f 850 852 750
f 96 134 751
f 851 134 96
f 753 851 96
f 853 851 753
f 752 854 754
f 852 854 752
f 753 198 853
f 853 198 200
f 855 200 198
f 855 198 755
f 754 856 756
f 854 856 754
f 316 855 362
f 855 757 362
f 855 755 757
f 857 316 362
f 756 858 758
f 856 858 756
f 759 364 757
f 757 364 362
f 857 362 364
f 857 364 859
f 758 860 760
f 858 860 758
f 314 364 759
f 859 364 314
f 761 859 314
f 861 859 761
f 574 862 762
f 574 762 572
f 572 760 574
f 574 760 860
f 863 761 763
f 863 861 761
f 452 864 764
f 452 764 450
f 450 762 452
f 452 762 862
f 438 863 488
f 863 765 488
f 863 763 765
f 865 438 488
f 216 866 266
f 216 266 766
f 330 216 766
f 332 216 330
f 330 764 332
f 332 764 864
f 767 490 765
f 765 490 488
f 865 488 490
f 865 490 867
f 112 868 162
f 266 866 112
f 266 112 162
f 214 266 162
f 768 214 162
f 766 266 214
f 436 490 767
f 867 490 436
f 769 867 436
f 869 867 769
f 770 110 162
f 868 770 162
f 870 770 868
f 768 162 110
f 769 562 869
f 869 562 564
f 562 771 732
f 684 562 732
f 564 562 684
f 684 732 840
f 684 840 796
f 796 840 772
f 14 796 772
f 16 796 14
f 14 770 16
f 16 770 870
f 682 732 771
f 794 840 682
f 682 840 732
f 772 840 794
f 40 29 773
f 144 125 40
f 40 125 29
f 250 229 144
f 144 229 125
f 372 345 250
f 250 345 229
f 372 774 345
f 775 42 773
f 773 42 40
f 42 871 127
f 144 42 127
f 40 42 144
f 144 127 231
f 144 231 250
f 250 231 872
f 374 250 872
f 372 250 374
f 774 372 776
f 776 372 374
f 777 44 775
f 775 44 42
f 871 42 44
f 871 44 873
f 874 376 374
f 874 374 872
f 776 374 778
f 778 374 376
f 779 46 777
f 777 46 44
f 873 44 46
f 873 46 875
f 876 378 376
f 876 376 874
f 778 376 780
f 780 376 378
f 781 48 779
f 779 48 46
f 152 128 875
f 46 152 875
f 48 152 46
f 128 152 258
f 128 258 232
f 378 876 232
f 258 378 232
f 380 378 258
f 780 378 782
f 782 378 380
f 30 48 781
f 126 152 30
f 30 152 48
f 230 258 126
f 126 258 152
f 346 380 230
f 230 380 258
f 782 380 346
f 61 1 51
f 51 1 155
f 155 1 97
f 97 62 155
f 53 63 51
f 51 63 61
f 51 157 53
f 51 155 157
f 155 62 157
f 157 62 64
f 53 2 63
f 2 53 98
f 98 53 157
f 157 64 98
f 65 797 841
f 841 797 795
f 797 15 795
f 17 15 797
f 17 111 15
f 113 111 17
f 113 66 111
f 111 66 842
f 67 439 843
f 843 439 437
f 439 563 437
f 565 563 439
f 565 683 563
f 685 683 565
f 841 683 685
f 841 685 65
f 215 842 66
f 215 66 217
f 217 331 215
f 333 331 217
f 333 68 331
f 331 68 844
f 234 199 845
f 69 317 234
f 317 199 234
f 317 315 199
f 843 315 317
f 843 317 67
f 451 844 68
f 451 68 453
f 453 573 451
f 575 573 453
f 575 70 573
f 573 70 846
f 234 845 201
f 845 71 201
f 845 847 71
f 69 234 201
f 846 72 848
f 70 72 846
f 73 847 849
f 73 71 847
f 72 695 735
f 850 72 735
f 848 72 850
f 695 74 735
f 202 73 240
f 73 851 240
f 73 849 851
f 75 202 240
f 737 852 850
f 737 850 735
f 735 74 737
f 737 74 76
f 853 242 851
f 851 242 240
f 75 240 242
f 75 242 77
f 739 854 852
f 739 852 737
f 737 76 739
f 739 76 78
f 200 242 853
f 318 77 360
f 360 77 855
f 77 242 855
f 242 200 855
f 79 318 360
f 741 856 854
f 741 854 739
f 739 78 741
f 741 78 80
f 316 360 855
f 79 360 316
f 857 79 316
f 81 79 857
f 856 741 696
f 82 856 696
f 858 856 82
f 741 80 696
f 440 81 482
f 81 859 482
f 81 857 859
f 83 440 482
f 858 84 860
f 82 84 858
f 861 484 859
f 859 484 482
f 83 482 484
f 83 484 85
f 576 86 862
f 576 862 574
f 574 860 576
f 576 860 84
f 863 486 861
f 861 486 484
f 85 484 486
f 85 486 87
f 334 88 386
f 334 386 864
f 452 334 864
f 454 334 452
f 452 862 454
f 454 862 86
f 438 486 863
f 566 87 608
f 608 87 865
f 87 486 865
f 486 438 865
f 89 566 608
f 114 90 160
f 114 160 866
f 216 114 866
f 218 114 216
f 88 218 386
f 218 332 386
f 218 216 332
f 864 386 332
f 867 610 865
f 865 610 608
f 89 608 610
f 89 610 91
f 18 92 58
f 160 90 18
f 160 18 58
f 112 160 58
f 868 112 58
f 866 160 112
f 869 612 867
f 867 612 610
f 730 686 91
f 610 730 91
f 612 730 610
f 686 730 838
f 686 838 798
f 58 92 798
f 838 58 798
f 60 58 838
f 868 58 870
f 870 58 60
f 564 612 869
f 684 730 564
f 564 730 612
f 796 838 684
f 684 838 730
f 16 60 796
f 796 60 838
f 870 60 16
f 146 127 871
f 252 231 146
f 146 231 127
f 252 872 231
f 873 148 871
f 871 148 146
f 254 146 148
f 252 146 254
f 872 252 874
f 874 252 254
f 875 150 873
f 873 150 148
f 256 148 150
f 254 148 256
f 874 254 876
f 876 254 256
f 128 150 875
f 232 256 128
f 128 256 150
f 876 256 232
