# Converted from NanoShaper .vert/.face
v 8.887000 -9.101000 -12.809000
v 10.916000 -9.101000 -12.809000
v 8.292000 -9.101000 -12.309000
v 11.550000 -9.101000 -12.309000
v 7.998000 -9.101000 -11.809000
v 11.771000 -9.101000 -11.809000
v 7.629000 -9.101000 -11.309000
v 11.831000 -9.101000 -11.309000
v 6.809000 -9.101000 -10.809000
v 11.922000 -9.101000 -10.809000
v 5.991000 -9.101000 -10.309000
v 12.063000 -9.101000 -10.309000
v 5.763000 -9.101000 -9.809000
v 12.083000 -9.101000 -9.809000
v 5.768000 -9.101000 -9.309000
v 12.080000 -9.101000 -9.309000
v 5.787000 -9.101000 -8.809000
v 11.919000 -9.101000 -8.809000
v 6.008000 -9.101000 -8.309000
v 11.852000 -9.101000 -8.309000
v 6.741000 -9.101000 -7.809000
v 11.859000 -9.101000 -7.809000
v 7.310000 -9.101000 -7.309000
v 11.960000 -9.101000 -7.309000
v 7.734000 -9.101000 -6.809000
v 12.267000 -9.101000 -6.809000
v 8.091000 -9.101000 -6.309000
v 12.535000 -9.101000 -6.309000
v 8.314000 -9.101000 -5.809000
v 12.551000 -9.101000 -5.809000
v 8.347000 -9.101000 -5.309000
v 12.401000 -9.101000 -5.309000
v 8.244000 -9.101000 -4.809000
v 12.351000 -9.101000 -4.809000
v 8.244000 -9.101000 -4.309000
v 12.356000 -9.101000 -4.309000
v 8.319000 -9.101000 -3.809000
v 12.347000 -9.101000 -3.809000
v 8.337000 -9.101000 -3.309000
v 12.349000 -9.101000 -3.309000
v 8.591000 -9.101000 -2.809000
v 12.321000 -9.101000 -2.809000
v 9.522000 -9.101000 -2.309000
v 12.101000 -9.101000 -2.309000
v 10.498000 -9.101000 -1.809000
v 11.450000 -9.101000 -1.809000
v 6.196000 -9.101000 -10.521000
v 6.196000 -9.101000 -8.113000
v 6.696000 -9.101000 -10.770000
v 6.696000 -9.101000 -7.835000
v 7.196000 -9.101000 -10.957000
v 7.196000 -9.101000 -7.418000
v 7.696000 -9.101000 -11.395000
v 7.696000 -9.101000 -6.871000
v 8.196000 -9.101000 -12.142000
v 8.196000 -9.101000 -6.124000
v 8.696000 -9.101000 -12.706000
v 8.696000 -9.101000 -2.703000
v 9.196000 -9.101000 -12.961000
v 9.196000 -9.101000 -2.426000
v 9.696000 -9.101000 -13.165000
v 9.696000 -9.101000 -2.235000
v 10.196000 -9.101000 -13.153000
v 10.196000 -9.101000 -1.963000
v 10.696000 -9.101000 -12.924000
v 10.696000 -9.101000 -1.753000
v 11.196000 -9.101000 -12.656000
v 11.196000 -9.101000 -1.742000
v 11.696000 -9.101000 -12.047000
v 11.696000 -9.101000 -1.928000
v 12.196000 -9.101000 -6.895000
v 12.196000 -9.101000 -2.464000
v 7.696000 -10.935000 -11.309000
v 7.696000 -8.820000 -11.309000
v 8.196000 -11.309000 -11.309000
v 8.196000 -7.751000 -11.309000
v 8.696000 -11.560000 -11.309000
v 8.696000 -7.665000 -11.309000
v 9.196000 -11.572000 -11.309000
v 9.196000 -7.616000 -11.309000
v 9.696000 -11.410000 -11.309000
v 9.696000 -7.639000 -11.309000
v 10.196000 -11.211000 -11.309000
v 10.196000 -7.675000 -11.309000
v 10.696000 -11.004000 -11.309000
v 10.696000 -7.668000 -11.309000
v 11.196000 -10.529000 -11.309000
v 11.196000 -7.753000 -11.309000
v 11.696000 -9.910000 -11.309000
v 11.696000 -8.323000 -11.309000
v 6.696000 -10.925000 -7.309000
v 6.696000 -9.733000 -7.309000
v 7.196000 -11.047000 -7.309000
v 7.196000 -9.302000 -7.309000
v 7.696000 -11.272000 -7.309000
v 7.696000 -8.299000 -7.309000
v 8.196000 -11.542000 -7.309000
v 8.196000 -7.426000 -7.309000
v 8.696000 -11.699000 -7.309000
v 8.696000 -6.882000 -7.309000
v 9.196000 -11.682000 -7.309000
v 9.196000 -6.620000 -7.309000
v 9.696000 -11.460000 -7.309000
v 9.696000 -6.478000 -7.309000
v 10.196000 -11.003000 -7.309000
v 10.196000 -6.479000 -7.309000
v 10.696000 -10.531000 -7.309000
v 10.696000 -6.669000 -7.309000
v 11.196000 -10.059000 -7.309000
v 11.196000 -7.110000 -7.309000
v 11.696000 -9.520000 -7.309000
v 11.696000 -7.472000 -7.309000
v 8.196000 -8.835000 -3.309000
v 8.196000 -7.289000 -3.309000
v 8.696000 -9.466000 -3.309000
v 8.696000 -6.725000 -3.309000
v 9.196000 -9.959000 -3.309000
v 9.196000 -6.529000 -3.309000
v 9.696000 -10.442000 -3.309000
v 9.696000 -6.530000 -3.309000
v 10.196000 -10.652000 -3.309000
v 10.196000 -6.707000 -3.309000
v 10.696000 -10.708000 -3.309000
v 10.696000 -6.934000 -3.309000
v 11.196000 -10.708000 -3.309000
v 11.196000 -7.159000 -3.309000
v 11.696000 -10.523000 -3.309000
v 11.696000 -7.669000 -3.309000
v 12.196000 -9.993000 -3.309000
v 12.196000 -8.266000 -3.309000
v 8.551000 -8.601000 -12.309000
v 11.297000 -8.601000 -12.309000
v 8.214000 -8.601000 -11.809000
v 11.571000 -8.601000 -11.809000
v 7.732000 -8.601000 -11.309000
v 11.780000 -8.601000 -11.309000
v 7.131000 -8.601000 -10.809000
v 12.060000 -8.601000 -10.809000
v 6.524000 -8.601000 -10.309000
v 12.260000 -8.601000 -10.309000
v 6.259000 -8.601000 -9.809000
v 12.279000 -8.601000 -9.809000
v 6.268000 -8.601000 -9.309000
v 12.279000 -8.601000 -9.309000
v 6.337000 -8.601000 -8.809000
v 12.096000 -8.601000 -8.809000
v 6.622000 -8.601000 -8.309000
v 11.912000 -8.601000 -8.309000
v 7.197000 -8.601000 -7.809000
v 11.910000 -8.601000 -7.809000
v 7.554000 -8.601000 -7.309000
v 12.117000 -8.601000 -7.309000
v 7.821000 -8.601000 -6.809000
v 12.525000 -8.601000 -6.809000
v 8.142000 -8.601000 -6.309000
v 12.742000 -8.601000 -6.309000
v 8.275000 -8.601000 -5.809000
v 12.756000 -8.601000 -5.809000
v 8.216000 -8.601000 -5.309000
v 12.577000 -8.601000 -5.309000
v 8.067000 -8.601000 -4.809000
v 12.407000 -8.601000 -4.809000
v 8.067000 -8.601000 -4.309000
v 12.353000 -8.601000 -4.309000
v 8.108000 -8.601000 -3.809000
v 12.336000 -8.601000 -3.809000
v 8.126000 -8.601000 -3.309000
v 12.308000 -8.601000 -3.309000
v 8.332000 -8.601000 -2.809000
v 12.142000 -8.601000 -2.809000
v 8.936000 -8.601000 -2.309000
v 11.857000 -8.601000 -2.309000
v 6.696000 -8.601000 -10.477000
v 6.696000 -8.601000 -8.233000
v 7.196000 -8.601000 -10.863000
v 7.196000 -8.601000 -7.810000
v 7.696000 -8.601000 -11.279000
v 7.696000 -8.601000 -7.043000
v 8.196000 -8.601000 -11.784000
v 8.196000 -8.601000 -6.183000
v 8.196000 -8.601000 -5.239000
v 8.196000 -8.601000 -3.070000
v 8.696000 -8.601000 -12.451000
v 8.696000 -8.601000 -2.441000
v 9.196000 -8.601000 -12.691000
v 9.196000 -8.601000 -2.228000
v 9.696000 -8.601000 -12.719000
v 9.696000 -8.601000 -2.174000
v 10.196000 -8.601000 -12.718000
v 10.196000 -8.601000 -2.072000
v 10.696000 -8.601000 -12.662000
v 10.696000 -8.601000 -1.946000
v 11.196000 -8.601000 -12.407000
v 11.196000 -8.601000 -1.936000
v 11.696000 -8.601000 -11.492000
v 11.696000 -8.601000 -2.160000
v 12.196000 -8.601000 -10.540000
v 12.196000 -8.601000 -9.015000
v 12.196000 -8.601000 -7.198000
v 12.196000 -8.601000 -2.944000
v 12.696000 -8.601000 -6.476000
v 12.696000 -8.601000 -5.568000
v 6.196000 -11.422000 -10.809000
v 6.196000 -9.681000 -10.809000
v 6.696000 -11.405000 -10.809000
v 6.696000 -9.178000 -10.809000
v 7.196000 -11.439000 -10.809000
v 7.196000 -8.368000 -10.809000
v 7.696000 -11.534000 -10.809000
v 7.696000 -7.404000 -10.809000
v 8.196000 -11.657000 -10.809000
v 8.196000 -7.164000 -10.809000
v 8.696000 -11.754000 -10.809000
v 8.696000 -7.134000 -10.809000
v 9.196000 -11.751000 -10.809000
v 9.196000 -7.127000 -10.809000
v 9.696000 -11.567000 -10.809000
v 9.696000 -7.142000 -10.809000
v 10.196000 -11.170000 -10.809000
v 10.196000 -7.159000 -10.809000
v 10.696000 -10.785000 -10.809000
v 10.696000 -7.183000 -10.809000
v 11.196000 -10.298000 -10.809000
v 11.196000 -7.213000 -10.809000
v 11.696000 -9.610000 -10.809000
v 11.696000 -7.481000 -10.809000
v 7.696000 -9.643000 -6.809000
v 7.696000 -9.338000 -6.809000
v 8.196000 -11.280000 -6.809000
v 8.196000 -7.933000 -6.809000
v 8.696000 -11.496000 -6.809000
v 8.696000 -7.123000 -6.809000
v 9.196000 -11.476000 -6.809000
v 9.196000 -6.690000 -6.809000
v 9.696000 -11.240000 -6.809000
v 9.696000 -6.502000 -6.809000
v 10.196000 -10.980000 -6.809000
v 10.196000 -6.488000 -6.809000
v 10.696000 -10.542000 -6.809000
v 10.696000 -6.622000 -6.809000
v 11.196000 -10.110000 -6.809000
v 11.196000 -6.916000 -6.809000
v 11.696000 -9.643000 -6.809000
v 11.696000 -7.207000 -6.809000
v 12.196000 -9.178000 -6.809000
v 12.196000 -7.497000 -6.809000
v 8.696000 -9.205000 -2.809000
v 8.696000 -6.938000 -2.809000
v 9.196000 -9.673000 -2.809000
v 9.196000 -6.705000 -2.809000
v 9.696000 -10.172000 -2.809000
v 9.696000 -6.707000 -2.809000
v 10.196000 -10.483000 -2.809000
v 10.196000 -6.939000 -2.809000
v 10.696000 -10.681000 -2.809000
v 10.696000 -7.148000 -2.809000
v 11.196000 -10.692000 -2.809000
v 11.196000 -7.381000 -2.809000
v 11.696000 -10.504000 -2.809000
v 11.696000 -7.945000 -2.809000
v 12.196000 -9.958000 -2.809000
v 12.196000 -8.718000 -2.809000
v 5.798000 -12.101000 -9.809000
v 8.999000 -12.101000 -9.809000
v 5.783000 -12.101000 -9.309000
v 9.038000 -12.101000 -9.309000
v 8.778000 -8.101000 -11.809000
v 11.033000 -8.101000 -11.809000
v 7.827000 -8.101000 -11.309000
v 11.581000 -8.101000 -11.309000
v 7.242000 -8.101000 -10.809000
v 12.057000 -8.101000 -10.809000
v 6.783000 -8.101000 -10.309000
v 12.258000 -8.101000 -10.309000
v 6.585000 -8.101000 -9.809000
v 12.278000 -8.101000 -9.809000
v 6.593000 -8.101000 -9.309000
v 12.279000 -8.101000 -9.309000
v 6.744000 -8.101000 -8.809000
v 12.096000 -8.101000 -8.809000
v 6.980000 -8.101000 -8.309000
v 11.893000 -8.101000 -8.309000
v 7.461000 -8.101000 -7.809000
v 11.881000 -8.101000 -7.809000
v 7.760000 -8.101000 -7.309000
v 12.113000 -8.101000 -7.309000
v 8.059000 -8.101000 -6.809000
v 12.532000 -8.101000 -6.809000
v 8.348000 -8.101000 -6.309000
v 12.748000 -8.101000 -6.309000
v 8.403000 -8.101000 -5.809000
v 12.762000 -8.101000 -5.809000
v 8.263000 -8.101000 -5.309000
v 12.580000 -8.101000 -5.309000
v 8.085000 -8.101000 -4.809000
v 12.292000 -8.101000 -4.809000
v 8.037000 -8.101000 -4.309000
v 12.158000 -8.101000 -4.309000
v 8.042000 -8.101000 -3.809000
v 12.125000 -8.101000 -3.809000
v 8.073000 -8.101000 -3.309000
v 12.101000 -8.101000 -3.309000
v 8.249000 -8.101000 -2.809000
v 11.855000 -8.101000 -2.809000
v 8.753000 -8.101000 -2.309000
v 11.211000 -8.101000 -2.309000
v 6.196000 -12.101000 -10.165000
v 6.196000 -12.101000 -8.916000
v 6.696000 -12.101000 -10.157000
v 6.696000 -12.101000 -8.907000
v 7.196000 -12.101000 -10.144000
v 7.196000 -12.101000 -8.909000
v 7.696000 -12.101000 -10.113000
v 7.696000 -12.101000 -9.033000
v 8.196000 -12.101000 -10.122000
v 8.196000 -12.101000 -8.922000
v 8.696000 -12.101000 -10.095000
v 8.696000 -12.101000 -8.932000
v 6.696000 -8.101000 -10.151000
v 6.696000 -8.101000 -8.967000
v 7.196000 -8.101000 -10.759000
v 7.196000 -8.101000 -8.096000
v 7.696000 -8.101000 -11.238000
v 7.696000 -8.101000 -7.434000
v 8.196000 -8.101000 -11.492000
v 8.196000 -8.101000 -6.618000
v 8.196000 -8.101000 -5.148000
v 8.196000 -8.101000 -2.909000
v 8.696000 -8.101000 -11.761000
v 8.696000 -8.101000 -2.344000
v 9.196000 -8.101000 -12.077000
v 9.196000 -8.101000 -2.147000
v 9.696000 -8.101000 -12.179000
v 9.696000 -8.101000 -2.142000
v 10.196000 -8.101000 -12.193000
v 10.196000 -8.101000 -2.162000
v 10.696000 -8.101000 -12.073000
v 10.696000 -8.101000 -2.157000
v 11.196000 -8.101000 -11.663000
v 11.196000 -8.101000 -2.301000
v 11.696000 -8.101000 -11.202000
v 11.696000 -8.101000 -2.652000
v 12.196000 -8.101000 -10.534000
v 12.196000 -8.101000 -9.014000
v 12.196000 -8.101000 -7.204000
v 12.196000 -8.101000 -4.513000
v 12.696000 -8.101000 -6.492000
v 12.696000 -8.101000 -5.552000
v 5.696000 -11.801000 -10.309000
v 5.696000 -9.423000 -10.309000
v 6.196000 -12.017000 -10.309000
v 6.196000 -8.897000 -10.309000
v 6.696000 -12.012000 -10.309000
v 6.696000 -8.331000 -10.309000
v 7.196000 -12.006000 -10.309000
v 7.196000 -7.454000 -10.309000
v 7.696000 -12.000000 -10.309000
v 7.696000 -6.908000 -10.309000
v 8.196000 -11.997000 -10.309000
v 8.196000 -6.698000 -10.309000
v 8.696000 -11.981000 -10.309000
v 8.696000 -6.681000 -10.309000
v 9.196000 -11.830000 -10.309000
v 9.196000 -6.674000 -10.309000
v 9.696000 -11.556000 -10.309000
v 9.696000 -6.679000 -10.309000
v 10.196000 -11.072000 -10.309000
v 10.196000 -6.670000 -10.309000
v 10.696000 -10.583000 -10.309000
v 10.696000 -6.862000 -10.309000
v 11.196000 -10.119000 -10.309000
v 11.196000 -7.011000 -10.309000
v 11.696000 -9.556000 -10.309000
v 11.696000 -7.230000 -10.309000
v 12.196000 -8.836000 -10.309000
v 12.196000 -7.878000 -10.309000
v 8.196000 -9.639000 -6.309000
v 8.196000 -8.384000 -6.309000
v 8.696000 -10.915000 -6.309000
v 8.696000 -7.232000 -6.309000
v 9.196000 -11.002000 -6.309000
v 9.196000 -6.681000 -6.309000
v 9.696000 -10.974000 -6.309000
v 9.696000 -6.469000 -6.309000
v 10.196000 -10.840000 -6.309000
v 10.196000 -6.454000 -6.309000
v 10.696000 -10.622000 -6.309000
v 10.696000 -6.524000 -6.309000
v 11.196000 -10.311000 -6.309000
v 11.196000 -6.710000 -6.309000
v 11.696000 -9.841000 -6.309000
v 11.696000 -6.991000 -6.309000
v 12.196000 -9.450000 -6.309000
v 12.196000 -7.222000 -6.309000
v 12.696000 -8.776000 -6.309000
v 12.696000 -7.896000 -6.309000
v 9.196000 -8.862000 -2.309000
v 9.196000 -7.215000 -2.309000
v 9.696000 -9.396000 -2.309000
v 9.696000 -7.217000 -2.309000
v 10.196000 -10.192000 -2.309000
v 10.196000 -7.560000 -2.309000
v 10.696000 -10.460000 -2.309000
v 10.696000 -7.679000 -2.309000
v 11.196000 -10.472000 -2.309000
v 11.196000 -8.088000 -2.309000
v 11.696000 -10.240000 -2.309000
v 11.696000 -8.442000 -2.309000
v 8.000000 -11.601000 -10.809000
v 9.636000 -11.601000 -10.809000
v 5.487000 -11.601000 -10.309000
v 9.623000 -11.601000 -10.309000
v 5.237000 -11.601000 -9.809000
v 9.637000 -11.601000 -9.809000
v 5.229000 -11.601000 -9.309000
v 9.633000 -11.601000 -9.309000
v 5.458000 -11.601000 -8.809000
v 9.613000 -11.601000 -8.809000
v 6.189000 -11.601000 -8.309000
v 9.636000 -11.601000 -8.309000
v 7.802000 -11.601000 -7.809000
v 9.591000 -11.601000 -7.809000
v 8.344000 -11.601000 -7.309000
v 9.446000 -11.601000 -7.309000
v 7.492000 -7.601000 -10.809000
v 11.811000 -7.601000 -10.809000
v 7.045000 -7.601000 -10.309000
v 12.056000 -7.601000 -10.309000
v 6.816000 -7.601000 -9.809000
v 12.080000 -7.601000 -9.809000
v 6.831000 -7.601000 -9.309000
v 12.081000 -7.601000 -9.309000
v 7.102000 -7.601000 -8.809000
v 11.856000 -7.601000 -8.809000
v 7.515000 -7.601000 -8.309000
v 11.638000 -7.601000 -8.309000
v 7.754000 -7.601000 -7.809000
v 11.635000 -7.601000 -7.809000
v 8.018000 -7.601000 -7.309000
v 11.820000 -7.601000 -7.309000
v 8.395000 -7.601000 -6.809000
v 12.293000 -7.601000 -6.809000
v 8.558000 -7.601000 -6.309000
v 12.554000 -7.601000 -6.309000
v 8.593000 -7.601000 -5.809000
v 12.570000 -7.601000 -5.809000
v 8.487000 -7.601000 -5.309000
v 12.353000 -7.601000 -5.309000
v 8.241000 -7.601000 -4.809000
v 11.898000 -7.601000 -4.809000
v 8.042000 -7.601000 -4.309000
v 11.706000 -7.601000 -4.309000
v 8.029000 -7.601000 -3.809000
v 11.665000 -7.601000 -3.809000
v 8.088000 -7.601000 -3.309000
v 11.637000 -7.601000 -3.309000
v 8.266000 -7.601000 -2.809000
v 11.410000 -7.601000 -2.809000
v 8.783000 -7.601000 -2.309000
v 10.301000 -7.601000 -2.309000
v 5.696000 -11.601000 -10.503000
v 5.696000 -11.601000 -8.579000
v 6.196000 -11.601000 -10.714000
v 6.196000 -11.601000 -8.305000
v 6.696000 -11.601000 -10.707000
v 6.696000 -11.601000 -8.026000
v 7.196000 -11.601000 -10.711000
v 7.196000 -11.601000 -7.961000
v 7.696000 -11.601000 -10.750000
v 7.696000 -11.601000 -7.870000
v 8.196000 -11.601000 -10.892000
v 8.196000 -11.601000 -7.456000
v 8.696000 -11.601000 -11.235000
v 8.696000 -11.601000 -7.000000
v 9.196000 -11.601000 -11.259000
v 9.196000 -11.601000 -7.042000
v 7.196000 -7.601000 -10.466000
v 7.196000 -7.601000 -8.716000
v 7.696000 -7.601000 -11.005000
v 7.696000 -7.601000 -7.977000
v 8.196000 -7.601000 -11.226000
v 8.196000 -7.601000 -7.117000
v 8.196000 -7.601000 -4.719000
v 8.196000 -7.601000 -2.944000
v 8.696000 -7.601000 -11.263000
v 8.696000 -7.601000 -2.362000
v 9.196000 -7.601000 -11.295000
v 9.196000 -7.601000 -2.162000
v 9.696000 -7.601000 -11.267000
v 9.696000 -7.601000 -2.163000
v 10.196000 -7.601000 -11.225000
v 10.196000 -7.601000 -2.291000
v 10.696000 -7.601000 -11.239000
v 10.696000 -7.601000 -2.354000
v 11.196000 -7.601000 -11.198000
v 11.196000 -7.601000 -2.588000
v 11.696000 -7.601000 -10.930000
v 11.696000 -7.601000 -8.506000
v 11.696000 -7.601000 -7.572000
v 11.696000 -7.601000 -4.220000
v 12.196000 -7.601000 -6.907000
v 12.196000 -7.601000 -5.136000
v 5.196000 -11.531000 -9.809000
v 5.196000 -9.807000 -9.809000
v 5.696000 -12.046000 -9.809000
v 5.696000 -9.173000 -9.809000
v 6.196000 -12.223000 -9.809000
v 6.196000 -8.663000 -9.809000
v 6.696000 -12.222000 -9.809000
v 6.696000 -7.811000 -9.809000
v 7.196000 -12.216000 -9.809000
v 7.196000 -7.186000 -9.809000
v 7.696000 -12.190000 -9.809000
v 7.696000 -6.695000 -9.809000
v 8.196000 -12.204000 -9.809000
v 8.196000 -6.517000 -9.809000
v 8.696000 -12.198000 -9.809000
v 8.696000 -6.503000 -9.809000
v 9.196000 -11.991000 -9.809000
v 9.196000 -6.494000 -9.809000
v 9.696000 -11.549000 -9.809000
v 9.696000 -6.494000 -9.809000
v 10.196000 -11.083000 -9.809000
v 10.196000 -6.492000 -9.809000
v 10.696000 -10.547000 -9.809000
v 10.696000 -6.678000 -9.809000
v 11.196000 -10.079000 -9.809000
v 11.196000 -6.978000 -9.809000
v 11.696000 -9.565000 -9.809000
v 11.696000 -7.206000 -9.809000
v 12.196000 -8.885000 -9.809000
v 12.196000 -7.821000 -9.809000
v 8.696000 -10.010000 -5.809000
v 8.696000 -7.291000 -5.809000
v 9.196000 -10.550000 -5.809000
v 9.196000 -6.693000 -5.809000
v 9.696000 -10.728000 -5.809000
v 9.696000 -6.476000 -5.809000
v 10.196000 -10.751000 -5.809000
v 10.196000 -6.461000 -5.809000
v 10.696000 -10.714000 -5.809000
v 10.696000 -6.537000 -5.809000
v 11.196000 -10.535000 -5.809000
v 11.196000 -6.724000 -5.809000
v 11.696000 -10.068000 -5.809000
v 11.696000 -6.981000 -5.809000
v 12.196000 -9.524000 -5.809000
v 12.196000 -7.205000 -5.809000
v 12.696000 -8.816000 -5.809000
v 12.696000 -7.855000 -5.809000
v 10.696000 -9.796000 -1.809000
v 10.696000 -8.886000 -1.809000
v 11.196000 -9.826000 -1.809000
v 11.196000 -8.856000 -1.809000
v 9.322000 -11.101000 -12.309000
v 10.512000 -11.101000 -12.309000
v 8.709000 -11.101000 -11.809000
v 10.555000 -11.101000 -11.809000
v 7.921000 -11.101000 -11.309000
v 10.501000 -11.101000 -11.309000
v 5.853000 -11.101000 -10.809000
v 10.280000 -11.101000 -10.809000
v 5.251000 -11.101000 -10.309000
v 10.169000 -11.101000 -10.309000
v 5.043000 -11.101000 -9.809000
v 10.177000 -11.101000 -9.809000
v 5.037000 -11.101000 -9.309000
v 10.167000 -11.101000 -9.309000
v 5.219000 -11.101000 -8.809000
v 10.151000 -11.101000 -8.809000
v 5.495000 -11.101000 -8.309000
v 10.189000 -11.101000 -8.309000
v 6.052000 -11.101000 -7.809000
v 10.159000 -11.101000 -7.809000
v 7.352000 -11.101000 -7.309000
v 10.085000 -11.101000 -7.309000
v 8.005000 -11.101000 -6.809000
v 9.968000 -11.101000 -6.809000
v 7.486000 -7.101000 -10.309000
v 11.469000 -7.101000 -10.309000
v 7.261000 -7.101000 -9.809000
v 11.512000 -7.101000 -9.809000
v 7.277000 -7.101000 -9.309000
v 11.510000 -7.101000 -9.309000
v 7.549000 -7.101000 -8.809000
v 11.235000 -7.101000 -8.809000
v 7.845000 -7.101000 -8.309000
v 11.124000 -7.101000 -8.309000
v 8.118000 -7.101000 -7.809000
v 11.131000 -7.101000 -7.809000
v 8.478000 -7.101000 -7.309000
v 11.185000 -7.101000 -7.309000
v 8.712000 -7.101000 -6.809000
v 11.465000 -7.101000 -6.809000
v 8.774000 -7.101000 -6.309000
v 11.992000 -7.101000 -6.309000
v 8.799000 -7.101000 -5.809000
v 12.022000 -7.101000 -5.809000
v 8.740000 -7.101000 -5.309000
v 11.528000 -7.101000 -5.309000
v 8.481000 -7.101000 -4.809000
v 11.246000 -7.101000 -4.809000
v 8.225000 -7.101000 -4.309000
v 11.187000 -7.101000 -4.309000
v 8.209000 -7.101000 -3.809000
v 11.144000 -7.101000 -3.809000
v 8.305000 -7.101000 -3.309000
v 11.095000 -7.101000 -3.309000
v 8.524000 -7.101000 -2.809000
v 10.525000 -7.101000 -2.809000
v 5.196000 -11.101000 -10.220000
v 5.196000 -11.101000 -8.856000
v 5.696000 -11.101000 -10.729000
v 5.696000 -11.101000 -8.095000
v 6.196000 -11.101000 -10.906000
v 6.196000 -11.101000 -7.665000
v 6.696000 -11.101000 -10.920000
v 6.696000 -11.101000 -7.410000
v 7.196000 -11.101000 -11.006000
v 7.196000 -11.101000 -7.350000
v 7.696000 -11.101000 -11.202000
v 7.696000 -11.101000 -7.127000
v 8.196000 -11.101000 -11.518000
v 8.196000 -11.101000 -6.630000
v 8.696000 -11.101000 -11.802000
v 8.696000 -11.101000 -6.414000
v 9.196000 -11.101000 -12.149000
v 9.196000 -11.101000 -6.407000
v 9.696000 -11.101000 -12.639000
v 9.696000 -11.101000 -6.541000
v 10.196000 -11.101000 -12.617000
v 10.196000 -11.101000 -10.503000
v 7.696000 -7.101000 -10.517000
v 7.696000 -7.101000 -8.621000
v 8.196000 -7.101000 -10.748000
v 8.196000 -7.101000 -7.725000
v 8.696000 -7.101000 -10.775000
v 8.696000 -7.101000 -6.872000
v 8.696000 -7.101000 -5.175000
v 8.696000 -7.101000 -2.629000
v 9.196000 -7.101000 -10.782000
v 9.196000 -7.101000 -2.381000
v 9.696000 -7.101000 -10.770000
v 9.696000 -7.101000 -2.382000
v 10.196000 -7.101000 -10.763000
v 10.196000 -7.101000 -2.619000
v 10.696000 -7.101000 -10.699000
v 10.696000 -7.101000 -2.892000
v 11.196000 -7.101000 -10.602000
v 11.196000 -7.101000 -8.706000
v 11.196000 -7.101000 -7.273000
v 11.196000 -7.101000 -4.518000
v 11.696000 -7.101000 -6.620000
v 11.696000 -7.101000 -5.432000
v 9.696000 -10.353000 -13.309000
v 9.696000 -9.383000 -13.309000
v 10.196000 -10.324000 -13.309000
v 10.196000 -9.412000 -13.309000
v 5.196000 -11.545000 -9.309000
v 5.196000 -9.805000 -9.309000
v 5.696000 -12.054000 -9.309000
v 5.696000 -9.177000 -9.309000
v 6.196000 -12.230000 -9.309000
v 6.196000 -8.673000 -9.309000
v 6.696000 -12.232000 -9.309000
v 6.696000 -7.840000 -9.309000
v 7.196000 -12.228000 -9.309000
v 7.196000 -7.206000 -9.309000
v 7.696000 -12.185000 -9.309000
v 7.696000 -6.710000 -9.309000
v 8.196000 -12.219000 -9.309000
v 8.196000 -6.530000 -9.309000
v 8.696000 -12.215000 -9.309000
v 8.696000 -6.488000 -9.309000
v 9.196000 -12.011000 -9.309000
v 9.196000 -6.450000 -9.309000
v 9.696000 -11.542000 -9.309000
v 9.696000 -6.445000 -9.309000
v 10.196000 -11.076000 -9.309000
v 10.196000 -6.502000 -9.309000
v 10.696000 -10.596000 -9.309000
v 10.696000 -6.693000 -9.309000
v 11.196000 -10.057000 -9.309000
v 11.196000 -6.984000 -9.309000
v 11.696000 -9.510000 -9.309000
v 11.696000 -7.207000 -9.309000
v 12.196000 -8.882000 -9.309000
v 12.196000 -7.820000 -9.309000
v 8.696000 -9.637000 -5.309000
v 8.696000 -7.164000 -5.309000
v 9.196000 -10.201000 -5.309000
v 9.196000 -6.708000 -5.309000
v 9.696000 -10.600000 -5.309000
v 9.696000 -6.515000 -5.309000
v 10.196000 -10.741000 -5.309000
v 10.196000 -6.503000 -5.309000
v 10.696000 -10.735000 -5.309000
v 10.696000 -6.645000 -5.309000
v 11.196000 -10.542000 -5.309000
v 11.196000 -6.939000 -5.309000
v 11.696000 -10.064000 -5.309000
v 11.696000 -7.161000 -5.309000
v 12.196000 -9.476000 -5.309000
v 12.196000 -7.433000 -5.309000
v 9.029000 -10.601000 -12.809000
v 10.808000 -10.601000 -12.809000
v 8.633000 -10.601000 -12.309000
v 11.074000 -10.601000 -12.309000
v 8.014000 -10.601000 -11.809000
v 11.127000 -10.601000 -11.809000
v 7.387000 -10.601000 -11.309000
v 11.129000 -10.601000 -11.309000
v 5.823000 -10.601000 -10.809000
v 10.892000 -10.601000 -10.809000
v 5.255000 -10.601000 -10.309000
v 10.677000 -10.601000 -10.309000
v 5.048000 -10.601000 -9.809000
v 10.655000 -10.601000 -9.809000
v 5.039000 -10.601000 -9.309000
v 10.691000 -10.601000 -9.309000
v 5.098000 -10.601000 -8.809000
v 10.663000 -10.601000 -8.809000
v 5.277000 -10.601000 -8.309000
v 10.680000 -10.601000 -8.309000
v 5.762000 -10.601000 -7.809000
v 10.660000 -10.601000 -7.809000
v 6.367000 -10.601000 -7.309000
v 10.622000 -10.601000 -7.309000
v 7.714000 -10.601000 -6.809000
v 10.632000 -10.601000 -6.809000
v 8.351000 -10.601000 -6.309000
v 10.735000 -10.601000 -6.309000
v 9.286000 -10.601000 -5.809000
v 11.071000 -10.601000 -5.809000
v 9.697000 -10.601000 -5.309000
v 11.091000 -10.601000 -5.309000
v 9.753000 -10.601000 -4.809000
v 11.085000 -10.601000 -4.809000
v 9.735000 -10.601000 -4.309000
v 11.088000 -10.601000 -4.309000
v 9.764000 -10.601000 -3.809000
v 11.184000 -10.601000 -3.809000
v 10.010000 -10.601000 -3.309000
v 11.549000 -10.601000 -3.309000
v 10.439000 -10.601000 -2.809000
v 11.509000 -10.601000 -2.809000
v 7.885000 -6.601000 -9.809000
v 10.552000 -6.601000 -9.809000
v 7.923000 -6.601000 -9.309000
v 10.522000 -6.601000 -9.309000
v 8.375000 -6.601000 -8.809000
v 10.501000 -6.601000 -8.809000
v 8.494000 -6.601000 -8.309000
v 10.523000 -6.601000 -8.309000
v 8.812000 -6.601000 -7.809000
v 10.526000 -6.601000 -7.809000
v 9.250000 -6.601000 -7.309000
v 10.571000 -6.601000 -7.309000
v 9.380000 -6.601000 -6.809000
v 10.641000 -6.601000 -6.809000
v 9.331000 -6.601000 -6.309000
v 10.977000 -6.601000 -6.309000
v 9.349000 -6.601000 -5.809000
v 10.941000 -6.601000 -5.809000
v 9.417000 -6.601000 -5.309000
v 10.582000 -6.601000 -5.309000
v 9.250000 -6.601000 -4.809000
v 10.573000 -6.601000 -4.809000
v 8.755000 -6.601000 -4.309000
v 10.587000 -6.601000 -4.309000
v 8.726000 -6.601000 -3.809000
v 10.423000 -6.601000 -3.809000
v 8.940000 -6.601000 -3.309000
v 9.946000 -6.601000 -3.309000
v 5.196000 -10.601000 -10.211000
v 5.196000 -10.601000 -8.468000
v 5.696000 -10.601000 -10.738000
v 5.696000 -10.601000 -7.864000
v 6.196000 -10.601000 -10.934000
v 6.196000 -10.601000 -7.407000
v 6.696000 -10.601000 -10.997000
v 6.696000 -10.601000 -7.200000
v 7.196000 -10.601000 -11.201000
v 7.196000 -10.601000 -7.105000
v 7.696000 -10.601000 -11.506000
v 7.696000 -10.601000 -6.825000
v 8.196000 -10.601000 -11.977000
v 8.196000 -10.601000 -6.389000
v 8.696000 -10.601000 -12.373000
v 8.696000 -10.601000 -6.149000
v 9.196000 -10.601000 -12.963000
v 9.196000 -10.601000 -5.871000
v 9.696000 -10.601000 -13.186000
v 9.696000 -10.601000 -5.313000
v 10.196000 -10.601000 -13.175000
v 10.196000 -10.601000 -3.129000
v 10.696000 -10.601000 -12.919000
v 10.696000 -10.601000 -10.392000
v 10.696000 -10.601000 -6.424000
v 10.696000 -10.601000 -2.560000
v 11.196000 -10.601000 -3.785000
v 11.196000 -10.601000 -2.534000
v 8.196000 -6.601000 -10.115000
v 8.196000 -6.601000 -9.059000
v 8.696000 -6.601000 -10.152000
v 8.696000 -6.601000 -8.069000
v 9.196000 -6.601000 -10.168000
v 9.196000 -6.601000 -7.377000
v 9.196000 -6.601000 -4.751000
v 9.196000 -6.601000 -3.028000
v 9.696000 -6.601000 -10.159000
v 9.696000 -6.601000 -3.031000
v 10.196000 -6.601000 -10.177000
v 10.196000 -6.601000 -3.604000
v 10.696000 -6.601000 -6.675000
v 10.696000 -6.601000 -5.549000
v 9.196000 -10.766000 -12.809000
v 9.196000 -8.810000 -12.809000
v 9.696000 -10.999000 -12.809000
v 9.696000 -8.708000 -12.809000
v 10.196000 -10.987000 -12.809000
v 10.196000 -8.717000 -12.809000
v 10.696000 -10.719000 -12.809000
v 10.696000 -8.876000 -12.809000
v 5.196000 -11.021000 -8.809000
v 5.196000 -9.825000 -8.809000
v 5.696000 -11.830000 -8.809000
v 5.696000 -9.204000 -8.809000
v 6.196000 -12.041000 -8.809000
v 6.196000 -8.706000 -8.809000
v 6.696000 -12.047000 -8.809000
v 6.696000 -8.186000 -8.809000
v 7.196000 -12.046000 -8.809000
v 7.196000 -7.511000 -8.809000
v 7.696000 -11.984000 -8.809000
v 7.696000 -6.961000 -8.809000
v 8.196000 -12.041000 -8.809000
v 8.196000 -6.666000 -8.809000
v 8.696000 -12.036000 -8.809000
v 8.696000 -6.502000 -8.809000
v 9.196000 -11.847000 -8.809000
v 9.196000 -6.441000 -8.809000
v 9.696000 -11.543000 -8.809000
v 9.696000 -6.434000 -8.809000
v 10.196000 -11.052000 -8.809000
v 10.196000 -6.507000 -8.809000
v 10.696000 -10.571000 -8.809000
v 10.696000 -6.705000 -8.809000
v 11.196000 -10.067000 -8.809000
v 11.196000 -7.072000 -8.809000
v 11.696000 -9.454000 -8.809000
v 11.696000 -7.430000 -8.809000
v 8.196000 -9.011000 -4.809000
v 8.196000 -7.735000 -4.809000
v 8.696000 -9.585000 -4.809000
v 8.696000 -6.882000 -4.809000
v 9.196000 -10.078000 -4.809000
v 9.196000 -6.619000 -4.809000
v 9.696000 -10.568000 -4.809000
v 9.696000 -6.487000 -4.809000
v 10.196000 -10.753000 -4.809000
v 10.196000 -6.480000 -4.809000
v 10.696000 -10.743000 -4.809000
v 10.696000 -6.668000 -4.809000
v 11.196000 -10.534000 -4.809000
v 11.196000 -7.058000 -4.809000
v 11.696000 -10.042000 -4.809000
v 11.696000 -7.418000 -4.809000
v 12.196000 -9.501000 -4.809000
v 12.196000 -7.922000 -4.809000
v 9.438000 -10.101000 -13.309000
v 10.398000 -10.101000 -13.309000
v 8.789000 -10.101000 -12.809000
v 11.047000 -10.101000 -12.809000
v 8.322000 -10.101000 -12.309000
v 11.333000 -10.101000 -12.309000
v 7.767000 -10.101000 -11.809000
v 11.574000 -10.101000 -11.809000
v 7.321000 -10.101000 -11.309000
v 11.594000 -10.101000 -11.309000
v 5.836000 -10.101000 -10.809000
v 11.397000 -10.101000 -10.809000
v 5.298000 -10.101000 -10.309000
v 11.217000 -10.101000 -10.309000
v 5.111000 -10.101000 -9.809000
v 11.165000 -10.101000 -9.809000
v 5.105000 -10.101000 -9.309000
v 11.164000 -10.101000 -9.309000
v 5.108000 -10.101000 -8.809000
v 11.164000 -10.101000 -8.809000
v 5.288000 -10.101000 -8.309000
v 11.181000 -10.101000 -8.309000
v 5.765000 -10.101000 -7.809000
v 11.147000 -10.101000 -7.809000
v 6.349000 -10.101000 -7.309000
v 11.142000 -10.101000 -7.309000
v 7.704000 -10.101000 -6.809000
v 11.208000 -10.101000 -6.809000
v 8.236000 -10.101000 -6.309000
v 11.421000 -10.101000 -6.309000
v 8.756000 -10.101000 -5.809000
v 11.663000 -10.101000 -5.809000
v 9.116000 -10.101000 -5.309000
v 11.662000 -10.101000 -5.309000
v 9.215000 -10.101000 -4.809000
v 11.635000 -10.101000 -4.809000
v 9.205000 -10.101000 -4.309000
v 11.685000 -10.101000 -4.309000
v 9.228000 -10.101000 -3.809000
v 11.922000 -10.101000 -3.809000
v 9.341000 -10.101000 -3.309000
v 12.132000 -10.101000 -3.309000
v 9.622000 -10.101000 -2.809000
v 12.112000 -10.101000 -2.809000
v 10.107000 -10.101000 -2.309000
v 11.841000 -10.101000 -2.309000
v 5.196000 -10.101000 -10.108000
v 5.196000 -10.101000 -8.494000
v 5.696000 -10.101000 -10.725000
v 5.696000 -10.101000 -7.873000
v 6.196000 -10.101000 -10.937000
v 6.196000 -10.101000 -7.397000
v 6.696000 -10.101000 -11.006000
v 6.696000 -10.101000 -7.192000
v 7.196000 -10.101000 -11.218000
v 7.196000 -10.101000 -7.096000
v 7.696000 -10.101000 -11.706000
v 7.696000 -10.101000 -6.816000
v 8.196000 -10.101000 -12.214000
v 8.196000 -10.101000 -6.344000
v 8.696000 -10.101000 -12.684000
v 8.696000 -10.101000 -5.873000
v 9.196000 -10.101000 -13.191000
v 9.196000 -10.101000 -5.039000
v 9.696000 -10.101000 -13.377000
v 9.696000 -10.101000 -2.737000
v 10.196000 -10.101000 -13.367000
v 10.196000 -10.101000 -2.222000
v 10.696000 -10.101000 -13.156000
v 10.696000 -10.101000 -1.961000
v 11.196000 -10.101000 -12.555000
v 11.196000 -10.101000 -10.062000
v 11.196000 -10.101000 -6.870000
v 11.196000 -10.101000 -1.949000
v 11.696000 -10.101000 -4.269000
v 11.696000 -10.101000 -2.175000
v 8.696000 -10.663000 -12.309000
v 8.696000 -8.462000 -12.309000
v 9.196000 -11.036000 -12.309000
v 9.196000 -8.224000 -12.309000
v 9.696000 -11.218000 -12.309000
v 9.696000 -8.179000 -12.309000
v 10.196000 -11.208000 -12.309000
v 10.196000 -8.172000 -12.309000
v 10.696000 -10.994000 -12.309000
v 10.696000 -8.236000 -12.309000
v 11.196000 -10.372000 -12.309000
v 11.196000 -8.498000 -12.309000
v 5.696000 -11.312000 -8.309000
v 5.696000 -9.447000 -8.309000
v 6.196000 -11.604000 -8.309000
v 6.196000 -8.920000 -8.309000
v 6.696000 -11.720000 -8.309000
v 6.696000 -8.520000 -8.309000
v 7.196000 -11.743000 -8.309000
v 7.196000 -7.897000 -8.309000
v 7.696000 -11.726000 -8.309000
v 7.696000 -7.344000 -8.309000
v 8.196000 -11.793000 -8.309000
v 8.196000 -6.756000 -8.309000
v 8.696000 -11.823000 -8.309000
v 8.696000 -6.543000 -8.309000
v 9.196000 -11.769000 -8.309000
v 9.196000 -6.453000 -8.309000
v 9.696000 -11.566000 -8.309000
v 9.696000 -6.443000 -8.309000
v 10.196000 -11.094000 -8.309000
v 10.196000 -6.495000 -8.309000
v 10.696000 -10.583000 -8.309000
v 10.696000 -6.697000 -8.309000
v 11.196000 -10.089000 -8.309000
v 11.196000 -7.175000 -8.309000
v 11.696000 -9.536000 -8.309000
v 11.696000 -7.680000 -8.309000
v 8.196000 -9.013000 -4.309000
v 8.196000 -7.152000 -4.309000
v 8.696000 -9.574000 -4.309000
v 8.696000 -6.634000 -4.309000
v 9.196000 -10.089000 -4.309000
v 9.196000 -6.456000 -4.309000
v 9.696000 -10.578000 -4.309000
v 9.696000 -6.447000 -4.309000
v 10.196000 -10.760000 -4.309000
v 10.196000 -6.472000 -4.309000
v 10.696000 -10.747000 -4.309000
v 10.696000 -6.662000 -4.309000
v 11.196000 -10.535000 -4.309000
v 11.196000 -7.109000 -4.309000
v 11.696000 -10.091000 -4.309000
v 11.696000 -7.589000 -4.309000
v 12.196000 -9.555000 -4.309000
v 12.196000 -8.163000 -4.309000
v 9.456000 -9.601000 -13.309000
v 10.380000 -9.601000 -13.309000
v 8.766000 -9.601000 -12.809000
v 11.062000 -9.601000 -12.809000
v 8.253000 -9.601000 -12.309000
v 11.552000 -9.601000 -12.309000
v 7.766000 -9.601000 -11.809000
v 11.773000 -9.601000 -11.809000
v 7.384000 -9.601000 -11.309000
v 11.789000 -9.601000 -11.309000
v 6.262000 -9.601000 -10.809000
v 11.701000 -9.601000 -10.809000
v 5.526000 -9.601000 -10.309000
v 11.665000 -9.601000 -10.309000
v 5.301000 -9.601000 -9.809000
v 11.667000 -9.601000 -9.809000
v 5.304000 -9.601000 -9.309000
v 11.600000 -9.601000 -9.309000
v 5.319000 -9.601000 -8.809000
v 11.596000 -9.601000 -8.809000
v 5.540000 -9.601000 -8.309000
v 11.659000 -9.601000 -8.309000
v 6.020000 -9.601000 -7.809000
v 11.647000 -9.601000 -7.809000
v 6.915000 -9.601000 -7.309000
v 11.640000 -9.601000 -7.309000
v 7.691000 -9.601000 -6.809000
v 11.742000 -9.601000 -6.809000
v 8.184000 -9.601000 -6.309000
v 11.983000 -9.601000 -6.309000
v 8.504000 -9.601000 -5.809000
v 12.135000 -9.601000 -5.809000
v 8.664000 -9.601000 -5.309000
v 12.124000 -9.601000 -5.309000
v 8.714000 -9.601000 -4.809000
v 12.134000 -9.601000 -4.809000
v 8.727000 -9.601000 -4.309000
v 12.169000 -9.601000 -4.309000
v 8.806000 -9.601000 -3.809000
v 12.223000 -9.601000 -3.809000
v 8.837000 -9.601000 -3.309000
v 12.334000 -9.601000 -3.309000
v 9.125000 -9.601000 -2.809000
v 12.318000 -9.601000 -2.809000
v 9.806000 -9.601000 -2.309000
v 12.097000 -9.601000 -2.309000
v 10.508000 -9.601000 -1.809000
v 11.439000 -9.601000 -1.809000
v 5.696000 -9.601000 -10.489000
v 5.696000 -9.601000 -8.142000
v 6.196000 -9.601000 -10.779000
v 6.196000 -9.601000 -7.628000
v 6.696000 -9.601000 -10.958000
v 6.696000 -9.601000 -7.381000
v 7.196000 -9.601000 -11.165000
v 7.196000 -9.601000 -7.179000
v 7.696000 -9.601000 -11.696000
v 7.696000 -9.601000 -6.805000
v 8.196000 -9.601000 -12.252000
v 8.196000 -9.601000 -6.297000
v 8.696000 -9.601000 -12.742000
v 8.696000 -9.601000 -5.151000
v 9.196000 -9.601000 -13.184000
v 9.196000 -9.601000 -2.739000
v 9.696000 -9.601000 -13.371000
v 9.696000 -9.601000 -2.398000
v 10.196000 -9.601000 -13.361000
v 10.196000 -9.601000 -1.969000
v 10.696000 -9.601000 -13.148000
v 10.696000 -9.601000 -1.756000
v 11.196000 -9.601000 -12.679000
v 11.196000 -9.601000 -1.746000
v 11.696000 -9.601000 -12.052000
v 11.696000 -9.601000 -10.781000
v 11.696000 -9.601000 -7.002000
v 11.696000 -9.601000 -1.932000
v 12.196000 -9.601000 -4.028000
v 12.196000 -9.601000 -2.471000
v 8.196000 -10.774000 -11.809000
v 8.196000 -8.640000 -11.809000
v 8.696000 -11.093000 -11.809000
v 8.696000 -8.136000 -11.809000
v 9.196000 -11.266000 -11.809000
v 9.196000 -7.987000 -11.809000
v 9.696000 -11.292000 -11.809000
v 9.696000 -7.949000 -11.809000
v 10.196000 -11.225000 -11.809000
v 10.196000 -7.952000 -11.809000
v 10.696000 -11.022000 -11.809000
v 10.696000 -7.996000 -11.809000
v 11.196000 -10.522000 -11.809000
v 11.196000 -8.197000 -11.809000
v 11.696000 -9.868000 -11.809000
v 11.696000 -8.845000 -11.809000
v 6.196000 -11.240000 -7.809000
v 6.196000 -9.418000 -7.809000
v 6.696000 -11.488000 -7.809000
v 6.696000 -9.128000 -7.809000
v 7.196000 -11.516000 -7.809000
v 7.196000 -8.603000 -7.809000
v 7.696000 -11.577000 -7.809000
v 7.696000 -7.693000 -7.809000
v 8.196000 -11.710000 -7.809000
v 8.196000 -7.024000 -7.809000
v 8.696000 -11.741000 -7.809000
v 8.696000 -6.664000 -7.809000
v 9.196000 -11.735000 -7.809000
v 9.196000 -6.480000 -7.809000
v 9.696000 -11.541000 -7.809000
v 9.696000 -6.465000 -7.809000
v 10.196000 -11.067000 -7.809000
v 10.196000 -6.490000 -7.809000
v 10.696000 -10.554000 -7.809000
v 10.696000 -6.698000 -7.809000
v 11.196000 -10.063000 -7.809000
v 11.196000 -7.157000 -7.809000
v 11.696000 -9.515000 -7.809000
v 11.696000 -7.694000 -7.809000
v 8.196000 -8.874000 -3.809000
v 8.196000 -7.124000 -3.809000
v 8.696000 -9.491000 -3.809000
v 8.696000 -6.619000 -3.809000
v 9.196000 -10.058000 -3.809000
v 9.196000 -6.443000 -3.809000
v 9.696000 -10.562000 -3.809000
v 9.696000 -6.461000 -3.809000
v 10.196000 -10.745000 -3.809000
v 10.196000 -6.540000 -3.809000
v 10.696000 -10.735000 -3.809000
v 10.696000 -6.737000 -3.809000
v 11.196000 -10.596000 -3.809000
v 11.196000 -7.136000 -3.809000
v 11.696000 -10.317000 -3.809000
v 11.696000 -7.636000 -3.809000
v 12.196000 -9.667000 -3.809000
v 12.196000 -8.217000 -3.809000
f 203 561 615
f 615 561 779
f 779 561 713
f 779 713 921
f 921 713 881
f 881 204 921
f 617 205 615
f 615 205 203
f 615 781 617
f 615 779 781
f 779 923 781
f 779 921 923
f 1013 1055 204
f 1055 921 204
f 1055 923 921
f 1013 206 1055
f 619 207 617
f 617 207 205
f 617 783 619
f 617 781 783
f 781 925 783
f 781 923 925
f 923 1057 925
f 923 1055 1057
f 9 51 206
f 51 1055 206
f 51 1057 1055
f 51 9 175
f 175 9 137
f 137 208 175
f 621 209 619
f 619 209 207
f 783 711 73
f 621 783 73
f 619 783 621
f 925 879 711
f 925 711 783
f 1057 1011 879
f 1057 879 925
f 51 7 1011
f 51 1011 1057
f 177 74 7
f 51 177 7
f 175 177 51
f 271 323 208
f 323 175 208
f 323 177 175
f 323 271 479
f 479 271 425
f 425 210 479
f 211 409 471
f 209 621 409
f 409 621 471
f 621 559 471
f 559 75 471
f 621 73 559
f 177 135 74
f 323 269 135
f 323 135 177
f 481 76 269
f 323 481 269
f 479 481 323
f 479 210 481
f 481 210 212
f 473 213 471
f 471 213 211
f 471 75 77
f 471 77 473
f 485 78 76
f 485 76 481
f 481 212 485
f 485 212 214
f 475 215 473
f 473 215 213
f 473 77 79
f 473 79 475
f 487 80 78
f 487 78 485
f 485 214 487
f 487 214 216
f 475 410 215
f 217 410 475
f 79 217 475
f 81 217 79
f 489 82 80
f 489 80 487
f 487 216 489
f 489 216 218
f 219 81 83
f 219 217 81
f 491 84 82
f 491 82 489
f 489 218 491
f 491 218 220
f 83 560 219
f 219 560 562
f 221 562 560
f 221 560 85
f 493 86 84
f 493 84 491
f 491 220 493
f 493 220 222
f 85 712 221
f 221 712 714
f 223 714 712
f 223 712 87
f 495 88 86
f 495 86 493
f 493 222 495
f 495 222 224
f 87 880 223
f 223 880 882
f 225 882 880
f 225 880 89
f 270 341 90
f 341 270 88
f 495 341 88
f 497 341 495
f 495 224 497
f 497 224 226
f 89 1012 225
f 225 1012 1014
f 8 1014 1012
f 8 10 1014
f 136 10 8
f 136 138 10
f 341 272 90
f 272 136 90
f 272 138 136
f 272 341 426
f 426 341 497
f 497 226 426
f 782 727 91
f 924 895 782
f 782 895 727
f 924 92 895
f 93 784 91
f 91 784 782
f 926 782 784
f 924 782 926
f 92 924 1027
f 924 1058 1027
f 924 926 1058
f 1058 94 1027
f 622 575 95
f 575 622 93
f 622 784 93
f 622 786 784
f 928 784 786
f 926 784 928
f 928 227 1029
f 1058 928 1029
f 926 928 1058
f 228 54 23
f 228 23 94
f 1029 228 94
f 1058 1029 94
f 178 151 54
f 54 151 23
f 178 96 151
f 622 95 577
f 95 229 577
f 95 97 229
f 622 577 729
f 622 729 786
f 786 729 897
f 786 897 928
f 227 928 897
f 25 54 228
f 54 25 153
f 54 153 178
f 285 96 178
f 153 285 178
f 287 285 153
f 482 439 230
f 439 287 230
f 439 285 287
f 482 98 439
f 474 423 99
f 97 423 474
f 231 97 474
f 229 97 231
f 441 482 230
f 232 638 591
f 232 591 98
f 441 232 98
f 482 441 98
f 638 100 591
f 101 476 99
f 99 476 474
f 231 474 476
f 231 476 233
f 593 638 232
f 593 234 638
f 234 100 638
f 234 102 100
f 424 476 101
f 233 476 424
f 103 233 424
f 235 233 103
f 757 102 234
f 757 234 759
f 759 236 757
f 757 236 104
f 103 576 235
f 235 576 578
f 237 578 576
f 237 576 105
f 104 238 106
f 236 238 104
f 105 728 237
f 237 728 730
f 239 730 728
f 239 728 107
f 760 240 108
f 760 108 758
f 758 106 760
f 760 106 238
f 943 241 896
f 241 107 896
f 241 239 107
f 109 943 896
f 592 651 110
f 592 108 651
f 108 242 651
f 108 240 242
f 943 898 241
f 1077 243 1028
f 1028 243 109
f 243 898 109
f 898 943 109
f 111 1077 1028
f 110 651 594
f 244 110 594
f 112 110 244
f 651 242 594
f 1077 1030 243
f 71 245 24
f 24 245 111
f 245 1030 111
f 1030 1077 111
f 152 199 71
f 152 71 24
f 286 345 199
f 286 199 152
f 440 501 345
f 440 345 286
f 440 112 501
f 112 246 501
f 112 244 246
f 71 26 245
f 26 71 154
f 154 71 199
f 154 199 288
f 288 199 345
f 288 345 442
f 442 345 501
f 501 246 442
f 182 167 113
f 328 301 182
f 182 301 167
f 484 455 328
f 328 455 301
f 484 114 455
f 247 41 115
f 115 41 39
f 169 182 113
f 39 169 113
f 41 169 39
f 182 169 303
f 182 303 328
f 328 303 457
f 328 457 484
f 607 114 484
f 457 607 484
f 609 607 457
f 609 248 607
f 607 248 116
f 249 1045 117
f 117 1045 1043
f 115 1043 1045
f 115 1045 247
f 250 810 773
f 116 250 773
f 248 250 116
f 810 118 773
f 251 913 119
f 119 913 911
f 117 911 913
f 117 913 249
f 252 812 810
f 252 810 250
f 118 810 120
f 120 810 812
f 796 743 121
f 119 743 796
f 253 119 796
f 251 119 253
f 122 774 812
f 252 122 812
f 254 122 252
f 120 812 774
f 796 121 745
f 121 255 745
f 121 123 255
f 253 796 745
f 610 256 648
f 648 124 610
f 124 254 610
f 124 122 254
f 257 123 125
f 257 255 123
f 126 608 648
f 256 126 648
f 258 126 256
f 124 648 608
f 125 744 257
f 257 744 746
f 259 746 744
f 259 744 127
f 458 260 128
f 458 128 456
f 456 126 458
f 458 126 258
f 127 912 259
f 259 912 914
f 261 914 912
f 261 912 129
f 170 262 200
f 170 200 130
f 302 170 130
f 304 170 302
f 302 128 304
f 304 128 260
f 129 1044 261
f 261 1044 1046
f 40 1046 1044
f 40 42 1046
f 262 42 200
f 42 168 200
f 42 40 168
f 130 200 168
f 349 411 461
f 461 411 613
f 613 411 563
f 613 563 777
f 777 563 715
f 777 715 919
f 919 715 883
f 919 883 1051
f 1051 883 1015
f 1015 350 1051
f 463 351 461
f 461 351 349
f 613 561 203
f 463 613 203
f 461 613 463
f 777 713 561
f 777 561 613
f 919 881 713
f 919 713 777
f 1053 204 881
f 919 1053 881
f 1051 1053 919
f 11 47 350
f 47 1051 350
f 47 1053 1051
f 11 352 47
f 465 353 463
f 463 353 351
f 463 203 205
f 463 205 465
f 1053 1013 204
f 49 206 1013
f 1053 49 1013
f 47 49 1053
f 139 173 352
f 173 47 352
f 173 49 47
f 139 354 173
f 467 355 465
f 465 355 353
f 465 205 207
f 465 207 467
f 49 9 206
f 173 137 9
f 173 9 49
f 354 273 321
f 354 321 208
f 173 354 208
f 137 173 208
f 321 273 477
f 477 273 427
f 427 356 477
f 469 357 467
f 467 357 355
f 467 207 209
f 467 209 469
f 321 271 208
f 477 425 271
f 477 271 321
f 356 579 633
f 356 633 210
f 477 356 210
f 425 477 210
f 579 358 633
f 409 211 469
f 211 357 469
f 211 359 357
f 469 209 409
f 635 212 210
f 635 210 633
f 633 358 635
f 635 358 360
f 361 211 213
f 361 359 211
f 637 214 212
f 637 212 635
f 635 360 637
f 637 360 362
f 363 213 215
f 363 361 213
f 641 216 214
f 641 214 637
f 637 362 641
f 641 362 364
f 215 410 363
f 363 410 412
f 365 412 410
f 365 410 217
f 643 218 216
f 643 216 641
f 641 364 643
f 643 364 366
f 564 365 632
f 365 219 632
f 365 217 219
f 367 564 632
f 645 220 218
f 645 218 643
f 643 366 645
f 645 366 368
f 562 632 219
f 716 367 798
f 798 367 221
f 367 632 221
f 632 562 221
f 369 716 798
f 647 222 220
f 647 220 645
f 645 368 647
f 647 368 370
f 714 798 221
f 369 798 714
f 223 369 714
f 371 369 223
f 649 224 222
f 649 222 647
f 647 370 649
f 649 370 372
f 223 882 371
f 371 882 884
f 882 225 1076
f 1016 882 1076
f 884 882 1016
f 373 1016 1076
f 224 649 580
f 374 224 580
f 226 224 374
f 649 372 580
f 1014 1076 225
f 1076 1014 373
f 1014 12 373
f 1014 10 12
f 138 197 375
f 12 138 375
f 10 138 12
f 272 343 197
f 272 197 138
f 428 376 343
f 272 428 343
f 426 428 272
f 426 226 428
f 428 226 374
f 197 140 375
f 140 197 274
f 274 197 343
f 343 376 274
f 1060 1029 227
f 1060 228 1029
f 624 577 229
f 788 729 624
f 624 729 577
f 930 897 788
f 788 897 729
f 1031 1060 227
f 1031 227 897
f 377 1031 897
f 930 377 897
f 25 228 1060
f 1031 25 1060
f 27 25 1031
f 27 153 25
f 155 153 27
f 326 287 378
f 287 155 378
f 287 153 155
f 326 230 287
f 231 626 229
f 229 626 624
f 626 379 731
f 788 626 731
f 624 626 788
f 788 731 899
f 788 899 930
f 377 930 899
f 289 326 378
f 441 230 326
f 289 441 326
f 443 441 289
f 443 380 441
f 441 380 232
f 233 628 231
f 231 628 626
f 379 626 628
f 379 628 381
f 593 232 380
f 593 380 595
f 595 382 593
f 593 382 234
f 235 630 233
f 233 630 628
f 381 628 630
f 381 630 383
f 759 234 382
f 759 382 761
f 761 384 759
f 759 384 236
f 578 630 235
f 383 630 578
f 237 383 578
f 385 383 237
f 236 386 238
f 384 386 236
f 799 387 730
f 387 237 730
f 387 385 237
f 239 799 730
f 760 815 240
f 760 238 815
f 238 388 815
f 238 386 388
f 799 732 387
f 389 732 799
f 239 389 799
f 241 389 239
f 240 815 762
f 390 240 762
f 242 240 390
f 815 388 762
f 241 898 389
f 389 898 900
f 391 900 898
f 391 898 243
f 594 653 244
f 594 242 653
f 242 392 653
f 242 390 392
f 243 1030 391
f 391 1030 1032
f 393 1032 1030
f 393 1030 245
f 244 653 596
f 394 244 596
f 246 244 394
f 653 392 596
f 245 26 393
f 393 26 28
f 154 201 395
f 28 154 395
f 26 154 28
f 288 347 201
f 288 201 154
f 444 396 347
f 288 444 347
f 442 444 288
f 442 246 444
f 444 246 394
f 201 156 395
f 156 201 290
f 290 201 347
f 347 396 290
f 58 41 247
f 184 169 58
f 58 169 41
f 330 303 184
f 184 303 169
f 486 457 330
f 330 457 303
f 640 609 486
f 486 609 457
f 640 248 609
f 1066 1045 249
f 1045 1066 247
f 1066 58 247
f 1066 60 58
f 60 397 171
f 184 60 171
f 58 60 184
f 184 171 305
f 184 305 330
f 330 305 459
f 330 459 486
f 486 459 398
f 642 486 398
f 640 486 642
f 248 640 250
f 250 640 642
f 936 913 251
f 913 936 249
f 936 1066 249
f 936 1068 1066
f 1068 399 43
f 60 1068 43
f 1066 1068 60
f 397 60 43
f 400 644 642
f 400 642 398
f 250 642 252
f 252 642 644
f 936 251 915
f 251 401 915
f 251 253 401
f 936 915 1047
f 936 1047 1068
f 399 1068 1047
f 402 646 644
f 402 644 400
f 252 644 254
f 254 644 646
f 800 745 255
f 253 745 800
f 403 253 800
f 401 253 403
f 460 404 494
f 646 402 460
f 646 460 494
f 610 646 494
f 256 610 494
f 254 646 610
f 257 802 255
f 255 802 800
f 403 800 802
f 403 802 405
f 406 496 494
f 406 494 404
f 256 494 258
f 258 494 496
f 746 802 257
f 405 802 746
f 259 405 746
f 407 405 259
f 306 408 342
f 496 406 306
f 496 306 342
f 458 496 342
f 260 458 342
f 258 496 458
f 259 914 407
f 407 914 916
f 914 261 1080
f 1048 914 1080
f 916 914 1048
f 1048 1080 72
f 1048 72 44
f 44 72 262
f 170 44 262
f 172 44 170
f 408 172 342
f 172 304 342
f 172 170 304
f 260 342 304
f 1046 1080 261
f 42 72 1046
f 1046 72 1080
f 262 72 42
f 503 565 611
f 611 565 775
f 775 565 717
f 775 717 917
f 917 717 885
f 885 504 917
f 505 413 349
f 349 413 411
f 413 503 611
f 563 413 611
f 411 413 563
f 775 715 563
f 775 563 611
f 917 883 715
f 917 715 775
f 883 917 504
f 1017 883 504
f 1015 883 1017
f 1017 506 1015
f 1015 506 350
f 507 263 307
f 351 307 263
f 505 351 263
f 349 351 505
f 11 350 506
f 11 506 13
f 13 508 11
f 11 508 352
f 309 509 307
f 307 509 507
f 307 351 353
f 307 353 309
f 139 352 508
f 139 508 141
f 354 139 319
f 139 275 319
f 139 141 275
f 275 510 319
f 311 511 309
f 309 511 509
f 309 353 355
f 309 355 311
f 319 273 354
f 273 319 510
f 429 273 510
f 427 273 429
f 429 512 427
f 427 512 356
f 313 513 311
f 311 513 511
f 311 355 357
f 311 357 313
f 579 356 512
f 579 512 581
f 581 514 579
f 579 514 358
f 315 515 313
f 313 515 513
f 313 357 359
f 313 359 315
f 514 747 803
f 360 514 803
f 358 514 360
f 747 516 803
f 317 517 315
f 315 517 515
f 315 359 361
f 315 361 317
f 805 362 360
f 805 360 803
f 803 516 805
f 805 516 518
f 317 264 517
f 519 264 317
f 361 519 317
f 363 519 361
f 807 364 362
f 807 362 805
f 805 518 807
f 807 518 520
f 363 412 519
f 519 412 414
f 521 414 412
f 521 412 365
f 811 366 364
f 811 364 807
f 807 520 811
f 811 520 522
f 365 564 521
f 521 564 566
f 523 566 564
f 523 564 367
f 813 368 366
f 813 366 811
f 811 522 813
f 813 522 524
f 367 716 523
f 523 716 718
f 525 718 716
f 525 716 369
f 368 813 748
f 526 368 748
f 370 368 526
f 813 524 748
f 886 525 942
f 525 371 942
f 525 369 371
f 527 886 942
f 370 528 372
f 526 528 370
f 884 942 371
f 942 884 527
f 884 1018 527
f 884 1016 1018
f 529 1018 1016
f 529 1016 373
f 582 530 374
f 582 374 580
f 580 372 582
f 582 372 528
f 373 12 529
f 529 12 14
f 531 14 12
f 531 12 375
f 430 532 376
f 430 376 428
f 428 374 430
f 430 374 530
f 375 140 531
f 531 140 142
f 274 142 140
f 274 276 142
f 274 376 276
f 276 376 532
f 1062 1031 377
f 56 27 1062
f 1062 27 1031
f 180 155 56
f 56 155 27
f 180 378 155
f 790 731 379
f 932 899 790
f 790 899 731
f 1033 1062 377
f 1033 377 899
f 533 1033 899
f 932 533 899
f 1062 1033 29
f 1062 29 56
f 56 29 157
f 56 157 180
f 289 378 180
f 157 289 180
f 291 289 157
f 291 443 289
f 445 443 291
f 445 534 443
f 443 534 380
f 381 792 379
f 379 792 790
f 792 535 901
f 932 792 901
f 790 792 932
f 533 932 901
f 595 380 534
f 595 534 597
f 597 536 595
f 595 536 382
f 792 381 733
f 381 537 733
f 381 383 537
f 535 792 733
f 761 382 536
f 761 536 763
f 763 538 761
f 761 538 384
f 539 383 385
f 539 537 383
f 384 540 386
f 538 540 384
f 541 385 387
f 541 539 385
f 386 542 388
f 540 542 386
f 387 732 541
f 541 732 734
f 543 734 732
f 543 732 389
f 764 544 390
f 764 390 762
f 762 388 764
f 764 388 542
f 389 900 543
f 543 900 902
f 545 902 900
f 545 900 391
f 390 546 392
f 544 546 390
f 391 1032 545
f 545 1032 1034
f 547 1034 1032
f 547 1032 393
f 598 548 394
f 598 394 596
f 596 392 598
f 598 392 546
f 393 28 547
f 547 28 30
f 549 30 28
f 549 28 395
f 446 550 396
f 446 396 444
f 444 394 446
f 446 394 548
f 395 156 549
f 549 156 158
f 290 158 156
f 290 292 158
f 290 396 292
f 292 396 550
f 186 171 397
f 332 305 186
f 186 305 171
f 488 459 332
f 332 459 305
f 488 398 459
f 62 43 399
f 43 62 397
f 62 186 397
f 62 188 186
f 334 186 188
f 332 186 334
f 490 332 334
f 488 332 490
f 398 488 400
f 400 488 490
f 938 915 401
f 1070 1047 938
f 938 1047 915
f 1047 1070 399
f 1070 62 399
f 1070 64 62
f 190 62 64
f 188 62 190
f 336 188 190
f 334 188 336
f 492 334 336
f 490 334 492
f 400 490 402
f 402 490 492
f 403 940 401
f 401 940 938
f 940 551 1049
f 1070 940 1049
f 938 940 1070
f 1070 1049 45
f 1070 45 64
f 64 45 552
f 192 64 552
f 190 64 192
f 338 190 192
f 336 190 338
f 460 492 404
f 492 338 404
f 492 336 338
f 402 492 460
f 405 944 403
f 403 944 940
f 551 940 944
f 551 944 553
f 554 194 192
f 554 192 552
f 340 192 194
f 338 192 340
f 404 338 406
f 406 338 340
f 407 946 405
f 405 946 944
f 1078 1050 553
f 944 1078 553
f 946 1078 944
f 1050 1078 70
f 1050 70 46
f 194 554 46
f 70 194 46
f 196 194 70
f 306 340 408
f 340 196 408
f 340 194 196
f 406 340 306
f 916 946 407
f 1048 1078 916
f 916 1078 946
f 44 70 1048
f 1048 70 1078
f 172 196 44
f 44 196 70
f 408 196 172
f 655 871 935
f 935 871 1067
f 1067 871 1003
f 1003 656 1067
f 937 657 935
f 935 657 655
f 935 1069 937
f 935 1067 1069
f 1067 656 1069
f 1069 656 658
f 937 872 657
f 872 937 1004
f 1004 937 1069
f 1069 658 1004
f 659 567 503
f 503 567 565
f 567 717 565
f 719 717 567
f 719 885 717
f 887 885 719
f 887 660 885
f 885 660 504
f 661 415 505
f 505 415 413
f 503 413 415
f 503 415 659
f 1017 504 660
f 1017 660 1019
f 1019 662 1017
f 1017 662 506
f 663 265 507
f 507 265 263
f 505 263 265
f 505 265 661
f 13 506 662
f 13 662 15
f 15 664 13
f 13 664 508
f 665 507 509
f 665 663 507
f 141 508 664
f 141 664 143
f 143 275 141
f 277 275 143
f 277 666 275
f 275 666 510
f 667 509 511
f 667 665 509
f 429 510 666
f 429 666 431
f 431 668 429
f 429 668 512
f 669 511 513
f 669 667 511
f 581 512 668
f 581 668 583
f 583 670 581
f 581 670 514
f 671 513 515
f 671 669 513
f 747 514 670
f 747 670 749
f 749 672 747
f 747 672 516
f 673 515 517
f 673 671 515
f 516 674 518
f 672 674 516
f 517 264 673
f 673 264 266
f 675 266 264
f 675 264 519
f 518 676 520
f 674 676 518
f 519 414 675
f 675 414 416
f 677 416 414
f 677 414 521
f 520 678 522
f 676 678 520
f 521 566 677
f 677 566 568
f 679 568 566
f 679 566 523
f 522 680 524
f 678 680 522
f 523 718 679
f 679 718 720
f 681 720 718
f 681 718 525
f 750 682 526
f 750 526 748
f 748 524 750
f 750 524 680
f 525 886 681
f 681 886 888
f 683 888 886
f 683 886 527
f 526 684 528
f 682 684 526
f 527 1018 683
f 683 1018 1020
f 685 1020 1018
f 685 1018 529
f 584 686 530
f 584 530 582
f 582 528 584
f 584 528 684
f 529 14 685
f 685 14 16
f 687 16 14
f 687 14 531
f 432 688 532
f 432 532 430
f 430 530 432
f 432 530 686
f 531 142 687
f 687 142 144
f 276 144 142
f 276 278 144
f 276 532 278
f 278 532 688
f 689 1035 533
f 533 1035 1033
f 1035 29 1033
f 31 29 1035
f 31 157 29
f 159 157 31
f 159 291 157
f 293 291 159
f 293 445 291
f 447 445 293
f 447 690 445
f 445 690 534
f 691 903 535
f 535 903 901
f 533 901 903
f 533 903 689
f 597 534 690
f 597 690 599
f 599 692 597
f 597 692 536
f 794 733 537
f 535 733 794
f 693 535 794
f 691 535 693
f 763 536 692
f 763 692 765
f 765 694 763
f 763 694 538
f 794 537 735
f 537 695 735
f 537 539 695
f 693 794 735
f 538 696 540
f 694 696 538
f 697 539 541
f 697 695 539
f 766 698 816
f 816 542 766
f 542 696 766
f 542 540 696
f 541 734 697
f 697 734 736
f 699 736 734
f 699 734 543
f 544 764 816
f 698 544 816
f 700 544 698
f 542 816 764
f 543 902 699
f 699 902 904
f 701 904 902
f 701 902 545
f 600 702 654
f 654 546 600
f 546 700 600
f 546 544 700
f 545 1034 701
f 701 1034 1036
f 703 1036 1034
f 703 1034 547
f 548 598 654
f 702 548 654
f 704 548 702
f 546 654 598
f 547 30 703
f 703 30 32
f 30 549 202
f 160 30 202
f 32 30 160
f 160 202 348
f 160 348 294
f 294 348 550
f 446 294 550
f 448 294 446
f 446 548 448
f 448 548 704
f 158 202 549
f 292 348 158
f 158 348 202
f 550 348 292
f 1072 1049 551
f 66 45 1072
f 1072 45 1049
f 66 552 45
f 553 1074 551
f 551 1074 1072
f 68 1072 1074
f 66 1072 68
f 552 66 554
f 554 66 68
f 1050 1074 553
f 46 68 1050
f 1050 68 1074
f 554 68 46
f 817 705 791
f 791 705 933
f 933 705 873
f 933 873 1065
f 1065 873 1005
f 1065 1005 59
f 59 1005 1
f 1 818 59
f 793 819 791
f 791 819 817
f 933 871 655
f 793 933 655
f 791 933 793
f 1065 1003 871
f 1065 871 933
f 61 656 1003
f 1065 61 1003
f 59 61 1065
f 59 818 61
f 61 818 820
f 795 821 793
f 793 821 819
f 793 655 657
f 793 657 795
f 63 658 656
f 63 656 61
f 61 820 63
f 63 820 822
f 797 823 795
f 795 823 821
f 795 657 872
f 939 795 872
f 797 795 939
f 1004 1071 939
f 1004 939 872
f 1071 1004 658
f 63 1071 658
f 65 1071 63
f 63 822 65
f 65 822 824
f 797 706 823
f 706 797 874
f 874 797 939
f 874 939 1006
f 1006 939 1071
f 1006 1071 2
f 2 1071 65
f 65 824 2
f 612 567 659
f 825 721 612
f 721 567 612
f 721 719 567
f 721 887 719
f 889 887 721
f 889 826 887
f 887 826 660
f 827 417 661
f 661 417 415
f 569 612 659
f 415 569 659
f 417 569 415
f 825 612 569
f 1019 660 826
f 1019 826 1021
f 1021 828 1019
f 1019 828 662
f 308 265 663
f 661 265 308
f 829 661 308
f 827 661 829
f 15 662 828
f 15 828 17
f 17 830 15
f 15 830 664
f 665 310 663
f 663 310 308
f 829 308 310
f 829 310 831
f 143 664 830
f 143 830 145
f 320 277 832
f 277 145 832
f 277 143 145
f 320 666 277
f 667 312 665
f 665 312 310
f 831 310 312
f 831 312 833
f 279 320 832
f 431 666 320
f 279 431 320
f 433 431 279
f 433 834 431
f 431 834 668
f 669 314 667
f 667 314 312
f 833 312 314
f 833 314 835
f 583 668 834
f 583 834 585
f 585 836 583
f 583 836 670
f 671 316 669
f 669 316 314
f 835 314 316
f 835 316 837
f 838 804 749
f 670 838 749
f 836 838 670
f 804 672 749
f 673 318 671
f 671 318 316
f 837 316 318
f 837 318 839
f 751 804 838
f 751 840 804
f 840 672 804
f 840 674 672
f 266 318 673
f 839 318 266
f 675 839 266
f 841 839 675
f 674 842 676
f 840 842 674
f 675 416 841
f 841 416 418
f 843 418 416
f 843 416 677
f 676 844 678
f 842 844 676
f 677 568 843
f 843 568 570
f 845 570 568
f 845 568 679
f 678 846 680
f 844 846 678
f 679 720 845
f 845 720 722
f 847 722 720
f 847 720 681
f 752 848 682
f 752 682 750
f 750 680 752
f 752 680 846
f 681 888 847
f 847 888 890
f 849 890 888
f 849 888 683
f 682 850 684
f 848 850 682
f 683 1020 849
f 849 1020 1022
f 851 1022 1020
f 851 1020 685
f 586 852 686
f 586 686 584
f 584 684 586
f 586 684 850
f 685 16 851
f 851 16 18
f 16 687 198
f 146 16 198
f 18 16 146
f 146 198 344
f 146 344 280
f 280 344 688
f 432 280 688
f 434 280 432
f 432 686 434
f 434 686 852
f 144 198 687
f 278 344 144
f 144 344 198
f 688 344 278
f 853 161 181
f 181 161 327
f 327 161 295
f 295 854 327
f 1064 1035 689
f 855 33 1064
f 33 1035 1064
f 33 31 1035
f 33 853 181
f 159 33 181
f 31 33 159
f 327 293 159
f 327 159 181
f 293 327 854
f 449 293 854
f 447 293 449
f 690 447 639
f 447 601 639
f 447 449 601
f 601 856 639
f 934 903 691
f 1037 1064 689
f 1037 689 903
f 857 1037 903
f 934 857 903
f 855 1064 1037
f 639 599 690
f 639 856 599
f 856 692 599
f 856 858 692
f 934 691 905
f 691 859 905
f 691 693 859
f 857 934 905
f 765 692 858
f 765 858 767
f 767 860 765
f 765 860 694
f 861 737 695
f 695 737 735
f 693 735 737
f 693 737 859
f 694 862 696
f 860 862 694
f 863 695 697
f 863 861 695
f 768 864 698
f 768 698 766
f 766 696 768
f 768 696 862
f 697 736 863
f 863 736 738
f 865 738 736
f 865 736 699
f 698 866 700
f 864 866 698
f 699 904 865
f 865 904 906
f 867 906 904
f 867 904 701
f 602 868 702
f 602 702 600
f 600 700 602
f 602 700 866
f 701 1036 867
f 867 1036 1038
f 869 1038 1036
f 869 1036 703
f 450 870 502
f 502 704 450
f 704 868 450
f 704 702 868
f 703 32 869
f 869 32 34
f 160 34 32
f 160 162 34
f 294 162 160
f 294 296 162
f 870 296 502
f 296 448 502
f 296 294 448
f 704 502 448
f 947 707 789
f 789 707 931
f 931 707 875
f 931 875 1063
f 1063 875 1007
f 1063 1007 57
f 57 1007 3
f 57 3 183
f 183 3 131
f 131 948 183
f 705 817 789
f 817 947 789
f 817 949 947
f 931 873 705
f 931 705 789
f 1063 1005 873
f 1063 873 931
f 57 1 1005
f 57 1005 1063
f 185 818 1
f 57 185 1
f 183 185 57
f 183 948 185
f 185 948 950
f 951 555 629
f 819 629 555
f 949 819 555
f 817 819 949
f 187 820 818
f 187 818 185
f 185 950 187
f 187 950 952
f 631 953 629
f 629 953 951
f 629 819 821
f 629 821 631
f 189 822 820
f 189 820 187
f 187 952 189
f 189 952 954
f 631 556 953
f 955 556 631
f 821 955 631
f 823 955 821
f 191 824 822
f 191 822 189
f 189 954 191
f 191 954 956
f 823 706 955
f 955 706 708
f 874 941 957
f 708 874 957
f 706 874 708
f 1006 1073 941
f 1006 941 874
f 2 67 1073
f 2 1073 1006
f 67 2 824
f 191 67 824
f 193 67 191
f 191 956 193
f 193 956 958
f 941 876 957
f 876 941 1008
f 1008 941 1073
f 1008 1073 4
f 4 1073 67
f 4 67 132
f 132 67 193
f 193 958 132
f 776 721 825
f 918 889 776
f 776 889 721
f 918 826 889
f 462 417 827
f 959 571 462
f 571 417 462
f 571 569 417
f 723 776 825
f 569 723 825
f 571 723 569
f 776 723 891
f 776 891 918
f 1021 826 918
f 891 1021 918
f 1023 1021 891
f 1023 960 1021
f 1021 960 828
f 462 827 419
f 827 961 419
f 827 829 961
f 959 462 419
f 17 828 960
f 17 960 19
f 19 962 17
f 17 962 830
f 963 829 831
f 963 961 829
f 145 830 962
f 145 962 147
f 147 964 145
f 145 964 832
f 965 831 833
f 965 963 831
f 279 832 964
f 279 964 281
f 478 433 966
f 433 281 966
f 433 279 281
f 478 834 433
f 967 833 835
f 967 965 833
f 435 478 966
f 968 634 585
f 968 585 834
f 435 968 834
f 478 435 834
f 634 836 585
f 969 835 837
f 969 967 835
f 587 634 968
f 587 970 634
f 970 836 634
f 970 838 836
f 971 837 839
f 971 969 837
f 751 838 970
f 751 970 753
f 753 972 751
f 751 972 840
f 973 839 841
f 973 971 839
f 840 974 842
f 972 974 840
f 841 418 973
f 973 418 420
f 975 420 418
f 975 418 843
f 842 976 844
f 974 976 842
f 843 570 975
f 975 570 572
f 977 572 570
f 977 570 845
f 844 978 846
f 976 978 844
f 845 722 977
f 977 722 724
f 979 724 722
f 979 722 847
f 754 980 848
f 754 848 752
f 752 846 754
f 754 846 978
f 847 890 979
f 979 890 892
f 981 892 890
f 981 890 849
f 588 982 650
f 650 850 588
f 850 980 588
f 850 848 980
f 849 1022 981
f 981 1022 1024
f 983 1024 1022
f 983 1022 851
f 436 984 498
f 650 982 436
f 650 436 498
f 586 650 498
f 852 586 498
f 850 650 586
f 851 18 983
f 983 18 20
f 146 20 18
f 146 148 20
f 280 148 146
f 280 282 148
f 984 282 498
f 282 434 498
f 282 280 434
f 852 498 434
f 985 163 853
f 853 163 161
f 163 295 161
f 297 295 163
f 854 295 483
f 295 451 483
f 295 297 451
f 451 986 483
f 987 35 855
f 855 35 33
f 853 33 35
f 853 35 985
f 483 449 854
f 449 483 986
f 603 449 986
f 601 449 603
f 603 988 601
f 601 988 856
f 989 1039 857
f 857 1039 1037
f 855 1037 1039
f 855 1039 987
f 988 769 809
f 858 988 809
f 856 988 858
f 769 990 809
f 991 907 859
f 859 907 905
f 857 905 907
f 857 907 989
f 809 767 858
f 809 990 767
f 990 860 767
f 990 992 860
f 993 739 861
f 861 739 737
f 859 737 739
f 859 739 991
f 860 994 862
f 992 994 860
f 995 861 863
f 995 993 861
f 770 996 864
f 770 864 768
f 768 862 770
f 770 862 994
f 863 738 995
f 995 738 740
f 997 740 738
f 997 738 865
f 604 998 652
f 652 866 604
f 866 996 604
f 866 864 996
f 865 906 997
f 997 906 908
f 999 908 906
f 999 906 867
f 868 602 652
f 998 868 652
f 1000 868 998
f 866 652 602
f 867 1038 999
f 999 1038 1040
f 1001 1040 1038
f 1001 1038 869
f 298 1002 346
f 298 346 870
f 450 298 870
f 452 298 450
f 450 868 452
f 452 868 1000
f 869 34 1001
f 1001 34 36
f 162 36 34
f 162 164 36
f 1002 164 346
f 164 296 346
f 164 162 296
f 870 346 296
f 1081 709 787
f 787 709 929
f 929 709 877
f 929 877 1061
f 1061 877 1009
f 1061 1009 55
f 55 1009 5
f 5 1082 55
f 707 947 787
f 947 1081 787
f 947 1083 1081
f 929 875 707
f 929 707 787
f 1061 1007 875
f 1061 875 929
f 55 3 1007
f 55 1007 1061
f 3 55 1082
f 133 3 1082
f 131 3 133
f 133 1084 131
f 131 1084 948
f 1085 557 627
f 949 627 557
f 1083 949 557
f 947 949 1083
f 1084 267 331
f 950 1084 331
f 948 1084 950
f 267 1086 331
f 555 951 627
f 951 1085 627
f 951 1087 1085
f 627 949 555
f 333 952 950
f 333 950 331
f 331 1086 333
f 333 1086 1088
f 1089 951 953
f 1089 1087 951
f 335 954 952
f 335 952 333
f 333 1088 335
f 335 1088 1090
f 953 556 1089
f 1089 556 558
f 1091 558 556
f 1091 556 955
f 337 956 954
f 337 954 335
f 335 1090 337
f 337 1090 1092
f 955 708 1091
f 1091 708 710
f 1093 710 708
f 1093 708 957
f 956 337 268
f 1094 956 268
f 958 956 1094
f 337 1092 268
f 957 876 1093
f 1093 876 878
f 1008 1075 1095
f 878 1008 1095
f 876 1008 878
f 4 69 1075
f 4 1075 1008
f 134 1096 69
f 4 134 69
f 132 134 4
f 132 958 134
f 134 958 1094
f 1075 1010 1095
f 1010 1075 6
f 6 1075 69
f 69 1096 6
f 614 571 959
f 778 723 614
f 614 723 571
f 920 891 778
f 778 891 723
f 1052 1023 920
f 920 1023 891
f 1052 960 1023
f 464 419 961
f 573 614 959
f 573 959 419
f 1097 573 419
f 464 1097 419
f 614 573 725
f 614 725 778
f 778 725 893
f 778 893 920
f 920 893 1025
f 920 1025 1052
f 1098 48 19
f 1098 19 960
f 1025 1098 960
f 1052 1025 960
f 48 962 19
f 963 466 961
f 961 466 464
f 1097 464 466
f 1097 466 1099
f 1100 50 48
f 1100 48 1098
f 962 48 147
f 48 174 147
f 48 50 174
f 174 964 147
f 965 468 963
f 963 468 466
f 1099 466 468
f 1099 468 1101
f 21 50 1100
f 50 21 1102
f 176 50 1102
f 174 50 176
f 964 174 281
f 174 322 281
f 174 176 322
f 322 966 281
f 967 470 965
f 965 470 468
f 1101 468 470
f 1101 470 1103
f 149 176 1102
f 176 149 283
f 176 283 322
f 1104 480 435
f 1104 435 966
f 283 1104 966
f 322 283 966
f 480 968 435
f 470 967 421
f 967 1105 421
f 967 969 1105
f 1103 470 421
f 437 480 1104
f 587 968 480
f 437 587 480
f 589 587 437
f 589 1106 587
f 587 1106 970
f 1107 969 971
f 1107 1105 969
f 1108 806 753
f 970 1108 753
f 1106 1108 970
f 806 972 753
f 1109 971 973
f 1109 1107 971
f 755 806 1108
f 755 1110 806
f 1110 972 806
f 1110 974 972
f 973 420 1109
f 1109 420 422
f 1111 422 420
f 1111 420 975
f 974 1112 976
f 1110 1112 974
f 975 572 1111
f 1111 572 574
f 1113 574 572
f 1113 572 977
f 976 1114 978
f 1112 1114 976
f 977 724 1113
f 1113 724 726
f 1115 726 724
f 1115 724 979
f 756 1116 980
f 756 980 754
f 754 978 756
f 756 978 1114
f 979 892 1115
f 1115 892 894
f 1117 894 892
f 1117 892 981
f 590 1118 982
f 590 982 588
f 588 980 590
f 590 980 1116
f 981 1024 1117
f 1117 1024 1026
f 1119 1026 1024
f 1119 1024 983
f 438 1120 984
f 438 984 436
f 436 982 438
f 438 982 1118
f 983 20 1119
f 1119 20 22
f 148 22 20
f 148 150 22
f 282 150 148
f 282 284 150
f 282 984 284
f 284 984 1120
f 1121 165 985
f 985 165 163
f 165 297 163
f 299 297 165
f 299 451 297
f 453 451 299
f 453 1122 451
f 451 1122 986
f 1123 37 987
f 987 37 35
f 985 35 37
f 985 37 1121
f 603 986 1122
f 603 1122 605
f 605 1124 603
f 603 1124 988
f 1125 1041 989
f 989 1041 1039
f 987 1039 1041
f 987 1041 1123
f 769 988 1124
f 769 1124 771
f 771 1126 769
f 769 1126 990
f 1127 909 991
f 991 909 907
f 989 907 909
f 989 909 1125
f 990 1128 992
f 1126 1128 990
f 1129 741 993
f 993 741 739
f 991 739 741
f 991 741 1127
f 992 1130 994
f 1128 1130 992
f 1131 993 995
f 1131 1129 993
f 772 1132 996
f 772 996 770
f 770 994 772
f 772 994 1130
f 995 740 1131
f 1131 740 742
f 1133 742 740
f 1133 740 997
f 606 1134 998
f 606 998 604
f 604 996 606
f 606 996 1132
f 945 1135 908
f 1135 997 908
f 1135 1133 997
f 999 945 908
f 454 1136 500
f 500 1000 454
f 1000 1134 454
f 1000 998 1134
f 945 910 1135
f 1079 1137 1040
f 1040 1137 999
f 1137 910 999
f 910 945 999
f 1001 1079 1040
f 300 1138 1002
f 300 1002 298
f 1136 300 500
f 300 452 500
f 300 298 452
f 1000 500 452
f 1079 1042 1137
f 1001 36 1079
f 36 1042 1079
f 36 38 1042
f 164 38 36
f 164 166 38
f 164 1002 166
f 166 1002 1138
f 73 711 785
f 785 711 927
f 927 711 879
f 927 879 1059
f 1059 879 1011
f 1059 1011 53
f 53 1011 7
f 7 74 53
f 75 559 623
f 73 785 559
f 559 785 623
f 785 709 623
f 709 1081 623
f 927 877 709
f 927 709 785
f 1059 1009 877
f 1059 877 927
f 53 5 1009
f 53 1009 1059
f 74 135 179
f 74 179 1082
f 53 74 1082
f 5 53 1082
f 179 135 325
f 325 135 269
f 269 76 325
f 625 77 623
f 623 77 75
f 623 1081 1083
f 623 1083 625
f 179 133 1082
f 329 1084 133
f 179 329 133
f 325 329 179
f 325 76 329
f 329 76 78
f 557 1085 625
f 1085 77 625
f 1085 79 77
f 625 1083 557
f 329 267 1084
f 329 78 267
f 78 1086 267
f 78 80 1086
f 81 1085 1087
f 81 79 1085
f 1086 82 1088
f 80 82 1086
f 83 1087 1089
f 83 81 1087
f 1088 84 1090
f 82 84 1088
f 1089 558 83
f 83 558 560
f 85 560 558
f 85 558 1091
f 1090 86 1092
f 84 86 1090
f 1091 710 85
f 85 710 712
f 87 712 710
f 87 710 1093
f 268 339 1094
f 268 1092 339
f 1092 88 339
f 1092 86 88
f 1093 878 87
f 87 878 880
f 89 880 878
f 89 878 1095
f 134 195 1096
f 339 270 1094
f 1094 270 134
f 270 90 134
f 90 195 134
f 339 88 270
f 1095 1010 89
f 89 1010 1012
f 6 1012 1010
f 6 8 1012
f 195 136 1096
f 136 6 1096
f 136 8 6
f 195 90 136
f 616 573 1097
f 780 725 616
f 616 725 573
f 922 893 780
f 780 893 725
f 1054 1025 922
f 922 1025 893
f 1054 1098 1025
f 1099 618 1097
f 1097 618 616
f 618 91 727
f 780 618 727
f 616 618 780
f 780 727 895
f 780 895 922
f 922 895 92
f 1056 922 92
f 1054 922 1056
f 1098 1054 1100
f 1100 1054 1056
f 1101 620 1099
f 1099 620 618
f 91 618 620
f 91 620 93
f 1027 1056 92
f 94 52 21
f 94 21 1100
f 1027 94 1100
f 1056 1027 1100
f 52 1102 21
f 620 1101 575
f 1101 95 575
f 1101 1103 95
f 93 620 575
f 23 52 94
f 149 1102 52
f 23 149 52
f 151 149 23
f 324 283 96
f 283 151 96
f 283 149 151
f 324 1104 283
f 472 421 1105
f 1103 421 472
f 97 1103 472
f 95 1103 97
f 285 324 96
f 437 1104 324
f 285 437 324
f 439 437 285
f 636 589 98
f 589 439 98
f 589 437 439
f 636 1106 589
f 472 1105 423
f 1105 99 423
f 1105 1107 99
f 97 472 423
f 591 636 98
f 591 100 636
f 100 1106 636
f 100 1108 1106
f 101 1107 1109
f 101 99 1107
f 102 808 755
f 1108 102 755
f 100 102 1108
f 808 1110 755
f 1109 422 101
f 101 422 424
f 103 424 422
f 103 422 1111
f 757 808 102
f 757 104 808
f 104 1110 808
f 104 1112 1110
f 1111 574 103
f 103 574 576
f 105 576 574
f 105 574 1113
f 1112 106 1114
f 104 106 1112
f 1113 726 105
f 105 726 728
f 107 728 726
f 107 726 1115
f 758 108 1116
f 758 1116 756
f 756 1114 758
f 758 1114 106
f 1115 894 107
f 107 894 896
f 109 896 894
f 109 894 1117
f 592 110 1118
f 592 1118 590
f 590 1116 592
f 592 1116 108
f 1117 1026 109
f 109 1026 1028
f 111 1028 1026
f 111 1026 1119
f 438 499 1120
f 438 1118 499
f 1118 112 499
f 1118 110 112
f 1119 22 111
f 111 22 24
f 150 24 22
f 150 152 24
f 284 152 150
f 284 286 152
f 499 440 1120
f 440 284 1120
f 440 286 284
f 499 112 440
f 113 167 1121
f 1121 167 165
f 167 299 165
f 301 299 167
f 301 453 299
f 455 453 301
f 455 114 453
f 453 114 1122
f 115 39 1123
f 1123 39 37
f 1121 37 39
f 1121 39 113
f 605 1122 114
f 605 114 607
f 607 116 605
f 605 116 1124
f 117 1043 1125
f 1125 1043 1041
f 1123 1041 1043
f 1123 1043 115
f 771 1124 116
f 771 116 773
f 773 118 771
f 771 118 1126
f 119 911 1127
f 1127 911 909
f 1125 909 911
f 1125 911 117
f 1126 120 1128
f 118 120 1126
f 121 743 1129
f 1129 743 741
f 1127 741 743
f 1127 743 119
f 774 122 814
f 814 1130 774
f 1130 120 774
f 1130 1128 120
f 123 1129 1131
f 123 121 1129
f 1132 772 814
f 122 1132 814
f 124 1132 122
f 1130 814 772
f 801 125 742
f 125 1131 742
f 125 123 1131
f 1133 801 742
f 608 126 1134
f 608 1134 606
f 606 1132 608
f 608 1132 124
f 801 744 125
f 127 744 801
f 1133 127 801
f 1135 127 1133
f 456 128 1136
f 456 1136 454
f 454 1134 456
f 456 1134 126
f 1135 910 127
f 127 910 912
f 129 912 910
f 129 910 1137
f 302 130 1138
f 302 1138 300
f 300 1136 302
f 302 1136 128
f 1137 1042 129
f 129 1042 1044
f 38 1044 1042
f 38 40 1044
f 166 40 38
f 166 168 40
f 166 1138 168
f 168 1138 130
