# Converted from NanoShaper .vert/.face
v -6.511000 -13.101000 -15.059000
v -4.681000 -13.101000 -15.059000
v -6.700000 -13.101000 -14.559000
v -4.248000 -13.101000 -14.559000
v -6.441000 -13.101000 -14.059000
v -4.014000 -13.101000 -14.059000
v -4.855000 -13.101000 -13.559000
v -4.348000 -13.101000 -13.559000
v -6.304000 -13.101000 -15.205000
v -6.304000 -13.101000 -13.976000
v -5.804000 -13.101000 -15.227000
v -5.804000 -13.101000 -13.947000
v -5.304000 -13.101000 -15.178000
v -5.304000 -13.101000 -13.908000
v -4.804000 -13.101000 -15.144000
v -4.804000 -13.101000 -13.538000
v -4.304000 -13.101000 -14.598000
v -4.304000 -13.101000 -13.582000
v -6.804000 -12.520000 -15.559000
v -6.804000 -10.651000 -15.559000
v -6.304000 -12.846000 -15.559000
v -6.304000 -10.272000 -15.559000
v -5.804000 -12.860000 -15.559000
v -5.804000 -10.065000 -15.559000
v -5.304000 -12.840000 -15.559000
v -5.304000 -9.973000 -15.559000
v -4.804000 -12.822000 -15.559000
v -4.804000 -9.859000 -15.559000
v -4.304000 -12.494000 -15.559000
v -4.304000 -9.879000 -15.559000
v -3.804000 -11.998000 -15.559000
v -3.804000 -10.208000 -15.559000
v -5.804000 -11.428000 -11.559000
v -5.804000 -10.286000 -11.559000
v -5.304000 -11.784000 -11.559000
v -5.304000 -9.930000 -11.559000
v -4.804000 -11.803000 -11.559000
v -4.804000 -9.912000 -11.559000
v -4.304000 -11.511000 -11.559000
v -4.304000 -10.203000 -11.559000
v -6.729000 -12.601000 -15.559000
v -4.408000 -12.601000 -15.559000
v -7.196000 -12.601000 -15.059000
v -3.936000 -12.601000 -15.059000
v -7.841000 -12.601000 -14.559000
v -3.531000 -12.601000 -14.559000
v -8.086000 -12.601000 -14.059000
v -3.433000 -12.601000 -14.059000
v -7.590000 -12.601000 -13.559000
v -3.560000 -12.601000 -13.559000
v -5.543000 -12.601000 -13.059000
v -4.022000 -12.601000 -13.059000
v -7.804000 -12.601000 -14.581000
v -7.804000 -12.601000 -13.624000
v -7.304000 -12.601000 -14.943000
v -7.304000 -12.601000 -13.513000
v -6.804000 -12.601000 -15.500000
v -6.804000 -12.601000 -13.447000
v -6.304000 -12.601000 -15.754000
v -6.304000 -12.601000 -13.388000
v -5.804000 -12.601000 -15.803000
v -5.804000 -12.601000 -13.230000
v -5.304000 -12.601000 -15.796000
v -5.304000 -12.601000 -12.927000
v -4.804000 -12.601000 -15.742000
v -4.804000 -12.601000 -12.889000
v -4.304000 -12.601000 -15.477000
v -4.304000 -12.601000 -12.918000
v -3.804000 -12.601000 -14.944000
v -3.804000 -12.601000 -13.234000
v -8.304000 -11.993000 -15.059000
v -8.304000 -10.630000 -15.059000
v -7.804000 -12.300000 -15.059000
v -7.804000 -10.323000 -15.059000
v -7.304000 -12.523000 -15.059000
v -7.304000 -10.295000 -15.059000
v -6.804000 -12.940000 -15.059000
v -6.804000 -10.202000 -15.059000
v -6.304000 -13.164000 -15.059000
v -6.304000 -10.025000 -15.059000
v -5.804000 -13.174000 -15.059000
v -5.804000 -9.845000 -15.059000
v -5.304000 -13.149000 -15.059000
v -5.304000 -9.628000 -15.059000
v -4.804000 -13.135000 -15.059000
v -4.804000 -9.553000 -15.059000
v -4.304000 -12.908000 -15.059000
v -4.304000 -9.568000 -15.059000
v -3.804000 -12.467000 -15.059000
v -3.804000 -9.797000 -15.059000
v -3.304000 -11.731000 -15.059000
v -3.304000 -10.555000 -15.059000
v -6.262000 -12.101000 -16.059000
v -4.820000 -12.101000 -16.059000
v -7.039000 -12.101000 -15.559000
v -3.914000 -12.101000 -15.559000
v -8.192000 -12.101000 -15.059000
v -3.499000 -12.101000 -15.059000
v -8.605000 -12.101000 -14.559000
v -3.309000 -12.101000 -14.559000
v -8.698000 -12.101000 -14.059000
v -3.228000 -12.101000 -14.059000
v -8.563000 -12.101000 -13.559000
v -3.326000 -12.101000 -13.559000
v -8.040000 -12.101000 -13.059000
v -3.498000 -12.101000 -13.059000
v -5.829000 -12.101000 -12.559000
v -3.943000 -12.101000 -12.559000
v -5.412000 -12.101000 -12.059000
v -4.630000 -12.101000 -12.059000
v -8.304000 -12.101000 -14.972000
v -8.304000 -12.101000 -13.233000
v -7.804000 -12.101000 -15.229000
v -7.804000 -12.101000 -12.976000
v -7.304000 -12.101000 -15.401000
v -7.304000 -12.101000 -12.893000
v -6.804000 -12.101000 -15.732000
v -6.804000 -12.101000 -12.874000
v -6.304000 -12.101000 -16.032000
v -6.304000 -12.101000 -12.828000
v -5.804000 -12.101000 -16.269000
v -5.804000 -12.101000 -12.534000
v -5.304000 -12.101000 -16.276000
v -5.304000 -12.101000 -11.993000
v -4.804000 -12.101000 -16.049000
v -4.804000 -12.101000 -11.964000
v -4.304000 -12.101000 -15.763000
v -4.304000 -12.101000 -12.308000
v -3.804000 -12.101000 -15.475000
v -3.804000 -12.101000 -12.661000
v -3.304000 -12.101000 -14.545000
v -3.304000 -12.101000 -13.631000
v -8.804000 -11.711000 -14.559000
v -8.804000 -10.913000 -14.559000
v -8.304000 -12.394000 -14.559000
v -8.304000 -10.230000 -14.559000
v -7.804000 -12.609000 -14.559000
v -7.804000 -10.014000 -14.559000
v -7.304000 -12.744000 -14.559000
v -7.304000 -10.009000 -14.559000
v -6.804000 -13.038000 -14.559000
v -6.804000 -10.019000 -14.559000
v -6.304000 -13.246000 -14.559000
v -6.304000 -9.942000 -14.559000
v -5.804000 -13.256000 -14.559000
v -5.804000 -9.721000 -14.559000
v -5.304000 -13.228000 -14.559000
v -5.304000 -9.518000 -14.559000
v -4.804000 -13.215000 -14.559000
v -4.804000 -9.477000 -14.559000
v -4.304000 -13.115000 -14.559000
v -4.304000 -9.491000 -14.559000
v -3.804000 -12.881000 -14.559000
v -3.804000 -9.704000 -14.559000
v -3.304000 -12.083000 -14.559000
v -3.304000 -10.313000 -14.559000
v -6.539000 -11.601000 -16.059000
v -4.490000 -11.601000 -16.059000
v -7.233000 -11.601000 -15.559000
v -3.580000 -11.601000 -15.559000
v -8.523000 -11.601000 -15.059000
v -3.268000 -11.601000 -15.059000
v -8.834000 -11.601000 -14.559000
v -3.185000 -11.601000 -14.559000
v -8.912000 -11.601000 -14.059000
v -3.131000 -11.601000 -14.059000
v -8.800000 -11.601000 -13.559000
v -3.198000 -11.601000 -13.559000
v -8.430000 -11.601000 -13.059000
v -3.299000 -11.601000 -13.059000
v -6.774000 -11.601000 -12.559000
v -3.629000 -11.601000 -12.559000
v -6.108000 -11.601000 -12.059000
v -3.950000 -11.601000 -12.059000
v -5.643000 -11.601000 -11.559000
v -4.398000 -11.601000 -11.559000
v -8.804000 -11.601000 -14.635000
v -8.804000 -11.601000 -13.570000
v -8.304000 -11.601000 -15.241000
v -8.304000 -11.601000 -12.964000
v -7.804000 -11.601000 -15.447000
v -7.804000 -11.601000 -12.758000
v -7.304000 -11.601000 -15.535000
v -7.304000 -11.601000 -12.681000
v -6.804000 -11.601000 -15.799000
v -6.804000 -11.601000 -12.570000
v -6.304000 -11.601000 -16.256000
v -6.304000 -11.601000 -12.280000
v -5.804000 -11.601000 -16.462000
v -5.804000 -11.601000 -11.679000
v -5.304000 -11.601000 -16.468000
v -5.304000 -11.601000 -11.417000
v -4.804000 -11.601000 -16.277000
v -4.804000 -11.601000 -11.403000
v -4.304000 -11.601000 -15.965000
v -4.304000 -11.601000 -11.623000
v -3.804000 -11.601000 -15.744000
v -3.804000 -11.601000 -12.315000
v -3.304000 -11.601000 -15.151000
v -3.304000 -11.601000 -13.046000
v -8.804000 -11.916000 -14.059000
v -8.804000 -10.707000 -14.059000
v -8.304000 -12.485000 -14.059000
v -8.304000 -10.138000 -14.059000
v -7.804000 -12.686000 -14.059000
v -7.804000 -9.937000 -14.059000
v -7.304000 -12.749000 -14.059000
v -7.304000 -9.927000 -14.059000
v -6.804000 -12.923000 -14.059000
v -6.804000 -9.943000 -14.059000
v -6.304000 -13.139000 -14.059000
v -6.304000 -9.916000 -14.059000
v -5.804000 -13.151000 -14.059000
v -5.804000 -9.724000 -14.059000
v -5.304000 -13.142000 -14.059000
v -5.304000 -9.518000 -14.059000
v -4.804000 -13.215000 -14.059000
v -4.804000 -9.451000 -14.059000
v -4.304000 -13.198000 -14.059000
v -4.304000 -9.465000 -14.059000
v -3.804000 -12.981000 -14.059000
v -3.804000 -9.678000 -14.059000
v -3.304000 -12.357000 -14.059000
v -3.304000 -10.288000 -14.059000
v -6.532000 -11.101000 -16.059000
v -4.469000 -11.101000 -16.059000
v -7.259000 -11.101000 -15.559000
v -3.557000 -11.101000 -15.559000
v -8.543000 -11.101000 -15.059000
v -3.252000 -11.101000 -15.059000
v -8.849000 -11.101000 -14.559000
v -3.174000 -11.101000 -14.559000
v -8.926000 -11.101000 -14.059000
v -3.138000 -11.101000 -14.059000
v -8.815000 -11.101000 -13.559000
v -3.144000 -11.101000 -13.559000
v -8.452000 -11.101000 -13.059000
v -3.256000 -11.101000 -13.059000
v -6.970000 -11.101000 -12.559000
v -3.554000 -11.101000 -12.559000
v -6.339000 -11.101000 -12.059000
v -3.740000 -11.101000 -12.059000
v -5.959000 -11.101000 -11.559000
v -4.082000 -11.101000 -11.559000
v -8.804000 -11.101000 -14.671000
v -8.804000 -11.101000 -13.534000
v -8.304000 -11.101000 -15.258000
v -8.304000 -11.101000 -12.947000
v -7.804000 -11.101000 -15.462000
v -7.804000 -11.101000 -12.744000
v -7.304000 -11.101000 -15.546000
v -7.304000 -11.101000 -12.670000
v -6.804000 -11.101000 -15.799000
v -6.804000 -11.101000 -12.476000
v -6.304000 -11.101000 -16.250000
v -6.304000 -11.101000 -12.013000
v -5.804000 -11.101000 -16.457000
v -5.804000 -11.101000 -11.435000
v -5.304000 -11.101000 -16.463000
v -5.304000 -11.101000 -11.220000
v -4.804000 -11.101000 -16.271000
v -4.804000 -11.101000 -11.207000
v -4.304000 -11.101000 -15.982000
v -4.304000 -11.101000 -11.391000
v -3.804000 -11.101000 -15.765000
v -3.804000 -11.101000 -11.919000
v -3.304000 -11.101000 -15.189000
v -3.304000 -11.101000 -12.959000
v -8.804000 -11.580000 -13.559000
v -8.804000 -11.043000 -13.559000
v -8.304000 -12.353000 -13.559000
v -8.304000 -10.271000 -13.559000
v -7.804000 -12.575000 -13.559000
v -7.804000 -10.048000 -13.559000
v -7.304000 -12.619000 -13.559000
v -7.304000 -10.023000 -13.559000
v -6.804000 -12.672000 -13.559000
v -6.804000 -10.009000 -13.559000
v -6.304000 -12.779000 -13.559000
v -6.304000 -9.918000 -13.559000
v -5.804000 -12.835000 -13.559000
v -5.804000 -9.662000 -13.559000
v -5.304000 -12.945000 -13.559000
v -5.304000 -9.484000 -13.559000
v -4.804000 -13.110000 -13.559000
v -4.804000 -9.489000 -13.559000
v -4.304000 -13.092000 -13.559000
v -4.304000 -9.511000 -13.559000
v -3.804000 -12.852000 -13.559000
v -3.804000 -9.694000 -13.559000
v -3.304000 -12.028000 -13.559000
v -3.304000 -10.213000 -13.559000
v -6.226000 -10.601000 -16.059000
v -4.755000 -10.601000 -16.059000
v -6.746000 -10.601000 -15.559000
v -3.603000 -10.601000 -15.559000
v -8.277000 -10.601000 -15.059000
v -3.294000 -10.601000 -15.059000
v -8.659000 -10.601000 -14.559000
v -3.217000 -10.601000 -14.559000
v -8.748000 -10.601000 -14.059000
v -3.210000 -10.601000 -14.059000
v -8.619000 -10.601000 -13.559000
v -3.159000 -10.601000 -13.559000
v -8.147000 -10.601000 -13.059000
v -3.273000 -10.601000 -13.059000
v -6.703000 -10.601000 -12.559000
v -3.566000 -10.601000 -12.559000
v -6.309000 -10.601000 -12.059000
v -3.742000 -10.601000 -12.059000
v -5.956000 -10.601000 -11.559000
v -4.085000 -10.601000 -11.559000
v -8.304000 -10.601000 -15.038000
v -8.304000 -10.601000 -13.168000
v -7.804000 -10.601000 -15.280000
v -7.804000 -10.601000 -12.925000
v -7.304000 -10.601000 -15.329000
v -7.304000 -10.601000 -12.857000
v -6.804000 -10.601000 -15.519000
v -6.804000 -10.601000 -12.637000
v -6.304000 -10.601000 -15.997000
v -6.304000 -10.601000 -12.052000
v -5.804000 -10.601000 -16.251000
v -5.804000 -10.601000 -11.437000
v -5.304000 -10.601000 -16.258000
v -5.304000 -10.601000 -11.222000
v -4.804000 -10.601000 -16.076000
v -4.804000 -10.601000 -11.209000
v -4.304000 -10.601000 -15.949000
v -4.304000 -10.601000 -11.393000
v -3.804000 -10.601000 -15.731000
v -3.804000 -10.601000 -11.924000
v -3.304000 -10.601000 -15.087000
v -3.304000 -10.601000 -12.991000
v -8.304000 -11.851000 -13.059000
v -8.304000 -10.773000 -13.059000
v -7.804000 -12.207000 -13.059000
v -7.804000 -10.416000 -13.059000
v -7.304000 -12.301000 -13.059000
v -7.304000 -10.347000 -13.059000
v -6.804000 -12.308000 -13.059000
v -6.804000 -10.217000 -13.059000
v -6.304000 -12.326000 -13.059000
v -6.304000 -10.029000 -13.059000
v -5.804000 -12.485000 -13.059000
v -5.804000 -9.724000 -13.059000
v -5.304000 -12.668000 -13.059000
v -5.304000 -9.524000 -13.059000
v -4.804000 -12.759000 -13.059000
v -4.804000 -9.517000 -13.059000
v -4.304000 -12.732000 -13.059000
v -4.304000 -9.600000 -13.059000
v -3.804000 -12.439000 -13.059000
v -3.804000 -9.826000 -13.059000
v -3.304000 -11.630000 -13.059000
v -3.304000 -10.487000 -13.059000
v -5.939000 -10.101000 -15.559000
v -3.907000 -10.101000 -15.559000
v -6.539000 -10.101000 -15.059000
v -3.508000 -10.101000 -15.059000
v -8.077000 -10.101000 -14.559000
v -3.417000 -10.101000 -14.559000
v -8.244000 -10.101000 -14.059000
v -3.401000 -10.101000 -14.059000
v -7.988000 -10.101000 -13.559000
v -3.374000 -10.101000 -13.559000
v -6.480000 -10.101000 -13.059000
v -3.511000 -10.101000 -13.059000
v -6.252000 -10.101000 -12.559000
v -3.801000 -10.101000 -12.559000
v -6.083000 -10.101000 -12.059000
v -3.958000 -10.101000 -12.059000
v -5.628000 -10.101000 -11.559000
v -4.413000 -10.101000 -11.559000
v -7.804000 -10.101000 -14.755000
v -7.804000 -10.101000 -13.450000
v -7.304000 -10.101000 -14.771000
v -7.304000 -10.101000 -13.390000
v -6.804000 -10.101000 -14.827000
v -6.804000 -10.101000 -13.299000
v -6.304000 -10.101000 -15.233000
v -6.304000 -10.101000 -12.705000
v -5.804000 -10.101000 -15.649000
v -5.804000 -10.101000 -11.689000
v -5.304000 -10.101000 -15.723000
v -5.304000 -10.101000 -11.425000
v -4.804000 -10.101000 -15.765000
v -4.804000 -10.101000 -11.410000
v -4.304000 -10.101000 -15.744000
v -4.304000 -10.101000 -11.633000
v -3.804000 -10.101000 -15.477000
v -3.804000 -10.101000 -12.551000
v -6.804000 -11.573000 -12.559000
v -6.804000 -10.743000 -12.559000
v -6.304000 -11.878000 -12.559000
v -6.304000 -10.154000 -12.559000
v -5.804000 -12.115000 -12.559000
v -5.804000 -9.697000 -12.559000
v -5.304000 -12.345000 -12.559000
v -5.304000 -9.486000 -12.559000
v -4.804000 -12.365000 -12.559000
v -4.804000 -9.474000 -12.559000
v -4.304000 -12.307000 -12.559000
v -4.304000 -9.654000 -12.559000
v -3.804000 -11.951000 -12.559000
v -3.804000 -10.097000 -12.559000
v -5.102000 -9.601000 -15.059000
v -4.184000 -9.601000 -15.059000
v -5.579000 -9.601000 -14.559000
v -3.982000 -9.601000 -14.559000
v -5.572000 -9.601000 -14.059000
v -3.932000 -9.601000 -14.059000
v -5.688000 -9.601000 -13.559000
v -3.988000 -9.601000 -13.559000
v -5.568000 -9.601000 -13.059000
v -4.302000 -9.601000 -13.059000
v -5.639000 -9.601000 -12.559000
v -4.402000 -9.601000 -12.559000
v -5.371000 -9.601000 -12.059000
v -4.670000 -9.601000 -12.059000
v -5.304000 -9.601000 -14.992000
v -5.304000 -9.601000 -12.019000
v -4.804000 -9.601000 -15.178000
v -4.804000 -9.601000 -11.989000
v -4.304000 -9.601000 -15.143000
v -4.304000 -9.601000 -13.055000
v -6.304000 -12.056000 -16.059000
v -6.304000 -10.680000 -16.059000
v -5.804000 -12.357000 -16.059000
v -5.804000 -10.372000 -16.059000
v -5.304000 -12.365000 -16.059000
v -5.304000 -10.364000 -16.059000
v -4.804000 -12.086000 -16.059000
v -4.804000 -10.569000 -16.059000
v -6.304000 -11.242000 -12.059000
v -6.304000 -10.585000 -12.059000
v -5.804000 -11.899000 -12.059000
v -5.804000 -9.815000 -12.059000
v -5.304000 -12.130000 -12.059000
v -5.304000 -9.584000 -12.059000
v -4.804000 -12.143000 -12.059000
v -4.804000 -9.571000 -12.059000
v -4.304000 -11.948000 -12.059000
v -4.304000 -9.767000 -12.059000
v -3.804000 -11.327000 -12.059000
v -3.804000 -10.387000 -12.059000
f 71 161 179
f 179 161 247
f 247 161 229
f 229 72 247
f 73 97 113
f 71 179 97
f 179 113 97
f 179 181 113
f 179 249 181
f 179 247 249
f 297 315 72
f 315 247 72
f 315 249 247
f 297 74 315
f 115 75 113
f 113 75 73
f 113 183 115
f 113 181 183
f 181 251 183
f 181 249 251
f 249 317 251
f 249 315 317
f 315 74 317
f 317 74 76
f 77 43 57
f 75 115 43
f 43 115 57
f 115 95 57
f 95 19 57
f 183 159 95
f 183 95 115
f 251 227 159
f 251 159 183
f 319 20 227
f 251 319 227
f 317 319 251
f 317 76 319
f 319 76 78
f 79 1 9
f 77 57 1
f 1 57 9
f 57 41 9
f 41 21 9
f 57 19 41
f 319 295 20
f 78 359 381
f 78 381 22
f 319 78 22
f 295 319 22
f 359 80 381
f 11 81 9
f 9 81 79
f 9 21 23
f 9 23 11
f 381 357 22
f 381 80 357
f 80 24 357
f 80 82 24
f 13 83 11
f 11 83 81
f 11 23 25
f 11 25 13
f 24 84 26
f 82 84 24
f 15 85 13
f 13 85 83
f 13 25 27
f 13 27 15
f 84 407 423
f 28 84 423
f 26 84 28
f 407 86 423
f 15 2 85
f 67 87 42
f 42 87 27
f 87 2 27
f 2 15 27
f 29 67 42
f 425 30 28
f 425 28 423
f 423 86 425
f 425 86 88
f 67 44 87
f 129 89 96
f 96 89 29
f 89 44 29
f 44 67 29
f 31 129 96
f 358 391 32
f 425 408 30
f 30 408 358
f 408 90 358
f 90 391 358
f 425 88 408
f 129 98 89
f 199 91 160
f 160 91 31
f 91 98 31
f 98 129 31
f 228 267 199
f 228 199 160
f 296 333 267
f 296 267 228
f 391 360 32
f 32 360 296
f 360 92 296
f 92 333 296
f 391 90 360
f 199 162 91
f 162 199 230
f 230 199 267
f 230 267 298
f 298 267 333
f 333 92 298
f 258 243 33
f 324 311 258
f 258 311 243
f 324 34 311
f 192 175 35
f 175 192 33
f 192 258 33
f 192 260 258
f 326 258 260
f 324 258 326
f 34 324 373
f 324 386 373
f 324 326 386
f 386 36 373
f 37 194 35
f 35 194 192
f 262 192 194
f 260 192 262
f 328 260 262
f 326 260 328
f 388 326 328
f 386 326 388
f 36 386 38
f 38 386 388
f 176 194 37
f 39 264 176
f 264 194 176
f 264 262 194
f 330 262 264
f 328 262 330
f 374 388 40
f 388 330 40
f 388 328 330
f 38 388 374
f 244 264 39
f 312 330 244
f 244 330 264
f 40 330 312
f 133 163 177
f 177 163 245
f 245 163 231
f 231 134 245
f 135 99 111
f 133 177 99
f 99 177 111
f 177 161 111
f 161 71 111
f 245 229 161
f 245 161 177
f 134 299 313
f 134 313 72
f 245 134 72
f 229 245 72
f 299 136 313
f 137 45 53
f 135 111 45
f 45 111 53
f 111 97 53
f 97 73 53
f 111 71 97
f 313 297 72
f 136 361 375
f 136 375 74
f 313 136 74
f 297 313 74
f 361 138 375
f 55 139 53
f 53 139 137
f 53 73 75
f 53 75 55
f 377 76 74
f 377 74 375
f 375 138 377
f 377 138 140
f 43 77 55
f 77 139 55
f 77 141 139
f 55 75 43
f 379 78 76
f 379 76 377
f 377 140 379
f 379 140 142
f 143 3 79
f 79 3 1
f 77 1 3
f 77 3 141
f 379 359 78
f 379 142 359
f 142 80 359
f 142 144 80
f 145 79 81
f 145 143 79
f 80 146 82
f 144 146 80
f 147 81 83
f 147 145 81
f 146 409 421
f 84 146 421
f 82 146 84
f 409 148 421
f 149 83 85
f 149 147 83
f 421 407 84
f 421 148 407
f 148 86 407
f 148 150 86
f 17 151 2
f 151 85 2
f 151 149 85
f 87 17 2
f 86 152 88
f 150 152 86
f 17 4 151
f 69 153 44
f 44 153 87
f 153 4 87
f 4 17 87
f 89 69 44
f 410 154 90
f 410 90 408
f 408 88 410
f 410 88 152
f 69 46 153
f 89 98 69
f 98 46 69
f 98 100 46
f 155 100 98
f 155 98 91
f 362 156 92
f 362 92 360
f 360 90 362
f 362 90 154
f 91 162 155
f 155 162 164
f 230 164 162
f 230 232 164
f 298 232 230
f 298 300 232
f 298 92 300
f 300 92 156
f 201 165 133
f 133 165 163
f 165 231 163
f 233 231 165
f 233 202 231
f 231 202 134
f 203 101 135
f 135 101 99
f 133 99 101
f 133 101 201
f 299 134 202
f 299 202 301
f 301 204 299
f 299 204 136
f 205 47 137
f 137 47 45
f 135 45 47
f 135 47 203
f 361 136 204
f 361 204 363
f 363 206 361
f 361 206 138
f 207 137 139
f 207 205 137
f 138 208 140
f 206 208 138
f 209 139 141
f 209 207 139
f 140 210 142
f 208 210 140
f 211 5 143
f 143 5 3
f 141 3 5
f 141 5 209
f 142 212 144
f 210 212 142
f 213 143 145
f 213 211 143
f 144 214 146
f 212 214 144
f 215 145 147
f 215 213 145
f 409 146 214
f 409 214 411
f 411 216 409
f 409 216 148
f 217 147 149
f 217 215 147
f 148 218 150
f 216 218 148
f 219 149 151
f 219 217 149
f 150 220 152
f 218 220 150
f 151 4 219
f 219 4 6
f 221 6 4
f 221 4 153
f 412 222 154
f 412 154 410
f 410 152 412
f 412 152 220
f 153 46 221
f 221 46 48
f 100 131 223
f 48 100 223
f 46 100 48
f 155 131 100
f 364 224 156
f 364 156 362
f 362 154 364
f 364 154 222
f 131 102 223
f 155 164 131
f 164 102 131
f 164 166 102
f 232 166 164
f 232 234 166
f 300 234 232
f 300 302 234
f 300 156 302
f 302 156 224
f 178 165 201
f 269 235 178
f 235 165 178
f 235 233 165
f 235 270 233
f 233 270 202
f 271 103 203
f 203 103 101
f 167 178 201
f 101 167 201
f 103 167 101
f 269 178 167
f 301 202 270
f 301 270 303
f 303 272 301
f 301 272 204
f 54 47 205
f 203 47 54
f 273 203 54
f 271 203 273
f 363 204 272
f 363 272 365
f 365 274 363
f 363 274 206
f 54 205 49
f 205 275 49
f 205 207 275
f 273 54 49
f 206 276 208
f 274 276 206
f 277 207 209
f 277 275 207
f 208 278 210
f 276 278 208
f 10 5 211
f 209 5 10
f 279 209 10
f 277 209 279
f 210 280 212
f 278 280 210
f 213 12 211
f 211 12 10
f 279 10 12
f 279 12 281
f 212 282 214
f 280 282 212
f 215 14 213
f 213 14 12
f 281 12 14
f 281 14 283
f 411 214 282
f 411 282 413
f 413 284 411
f 411 284 216
f 14 215 7
f 215 285 7
f 215 217 285
f 283 14 7
f 216 286 218
f 284 286 216
f 8 285 18
f 285 219 18
f 285 217 219
f 287 8 18
f 218 288 220
f 286 288 218
f 6 18 219
f 287 18 6
f 221 287 6
f 289 287 221
f 414 290 222
f 414 222 412
f 412 220 414
f 414 220 288
f 221 48 289
f 289 48 50
f 48 223 132
f 104 48 132
f 50 48 104
f 291 104 132
f 366 292 224
f 366 224 364
f 364 222 366
f 366 222 290
f 102 132 223
f 132 102 291
f 102 168 291
f 102 166 168
f 234 168 166
f 234 236 168
f 302 236 234
f 302 304 236
f 302 224 304
f 304 224 292
f 246 235 269
f 246 270 235
f 112 103 271
f 335 169 112
f 169 103 112
f 169 167 103
f 237 246 269
f 167 237 269
f 169 237 167
f 336 314 303
f 336 303 270
f 237 336 270
f 246 237 270
f 314 272 303
f 112 271 105
f 271 337 105
f 271 273 337
f 335 112 105
f 305 314 336
f 338 376 365
f 338 365 272
f 305 338 272
f 314 305 272
f 376 274 365
f 56 49 275
f 273 49 56
f 339 273 56
f 337 273 339
f 340 378 376
f 340 376 338
f 274 376 276
f 276 376 378
f 277 58 275
f 275 58 56
f 339 56 58
f 339 58 341
f 342 380 378
f 342 378 340
f 276 378 278
f 278 378 380
f 279 60 277
f 277 60 58
f 341 58 60
f 341 60 343
f 367 380 342
f 367 344 380
f 344 278 380
f 344 280 278
f 281 62 279
f 279 62 60
f 343 60 62
f 343 62 345
f 280 346 282
f 344 346 280
f 62 281 51
f 281 347 51
f 281 283 347
f 345 62 51
f 413 282 346
f 413 346 415
f 415 348 413
f 413 348 284
f 16 7 285
f 283 7 16
f 349 283 16
f 347 283 349
f 284 350 286
f 348 350 284
f 8 16 285
f 349 16 8
f 287 349 8
f 351 349 287
f 286 352 288
f 350 352 286
f 52 351 70
f 351 289 70
f 351 287 289
f 353 52 70
f 416 354 290
f 416 290 414
f 414 288 416
f 416 288 352
f 50 70 289
f 70 50 353
f 50 106 353
f 50 104 106
f 355 106 104
f 355 104 291
f 368 356 292
f 368 292 366
f 366 290 368
f 368 290 354
f 291 168 355
f 355 168 170
f 236 170 168
f 236 238 170
f 304 238 236
f 304 306 238
f 304 292 306
f 306 292 356
f 180 169 335
f 248 237 180
f 180 237 169
f 248 336 237
f 114 105 337
f 105 114 335
f 114 180 335
f 114 182 180
f 250 180 182
f 248 180 250
f 336 248 305
f 248 316 305
f 248 250 316
f 316 338 305
f 339 116 337
f 337 116 114
f 184 114 116
f 182 114 184
f 252 182 184
f 250 182 252
f 318 250 252
f 316 250 318
f 338 316 340
f 340 316 318
f 341 118 339
f 339 118 116
f 186 116 118
f 184 116 186
f 186 393 239
f 252 186 239
f 184 186 252
f 252 239 394
f 320 252 394
f 318 252 320
f 340 318 342
f 342 318 320
f 343 120 341
f 341 120 118
f 120 395 171
f 186 120 171
f 118 120 186
f 393 186 171
f 307 320 394
f 396 382 367
f 396 367 342
f 307 396 342
f 320 307 342
f 382 344 367
f 120 343 107
f 343 397 107
f 343 345 397
f 395 120 107
f 369 382 396
f 369 398 382
f 398 344 382
f 398 346 344
f 64 51 347
f 345 51 64
f 399 345 64
f 397 345 399
f 415 346 398
f 415 398 417
f 417 400 415
f 415 400 348
f 349 66 347
f 347 66 64
f 399 64 66
f 399 66 401
f 348 402 350
f 400 402 348
f 351 68 349
f 349 68 66
f 401 66 68
f 401 68 403
f 418 404 426
f 426 352 418
f 352 402 418
f 352 350 402
f 52 68 351
f 108 403 130
f 130 403 353
f 403 68 353
f 68 52 353
f 405 108 130
f 354 416 426
f 404 354 426
f 406 354 404
f 352 426 416
f 106 130 353
f 172 405 200
f 200 405 355
f 405 130 355
f 130 106 355
f 172 200 268
f 172 268 240
f 240 268 334
f 240 334 308
f 308 334 356
f 368 308 356
f 370 308 368
f 368 354 370
f 370 354 406
f 170 200 355
f 238 268 170
f 170 268 200
f 306 334 238
f 238 334 268
f 356 334 306
f 427 157 187
f 187 157 255
f 255 157 225
f 225 428 255
f 429 93 121
f 427 187 93
f 187 121 93
f 187 189 121
f 187 257 189
f 187 255 257
f 293 323 428
f 323 255 428
f 323 257 255
f 293 430 323
f 123 431 121
f 121 431 429
f 121 191 123
f 121 189 191
f 189 259 191
f 189 257 259
f 257 325 259
f 257 323 325
f 323 430 325
f 325 430 432
f 123 94 431
f 94 123 433
f 123 193 433
f 123 191 193
f 191 261 193
f 191 259 261
f 259 327 261
f 259 325 327
f 325 432 327
f 327 432 434
f 193 158 433
f 158 193 226
f 226 193 261
f 226 261 294
f 294 261 327
f 327 434 294
f 254 239 393
f 254 394 239
f 188 171 395
f 241 254 393
f 241 393 171
f 435 241 171
f 188 435 171
f 307 394 254
f 241 307 254
f 309 307 241
f 309 436 307
f 307 436 396
f 122 107 397
f 173 188 395
f 173 395 107
f 437 173 107
f 122 437 107
f 435 188 173
f 369 396 436
f 369 436 371
f 371 438 369
f 369 438 398
f 122 397 109
f 397 439 109
f 397 399 439
f 437 122 109
f 417 398 438
f 417 438 419
f 419 440 417
f 417 440 400
f 441 399 401
f 441 439 399
f 400 442 402
f 440 442 400
f 110 441 128
f 441 403 128
f 441 401 403
f 443 110 128
f 420 444 404
f 420 404 418
f 418 402 420
f 420 402 442
f 108 128 403
f 174 443 198
f 198 443 405
f 443 128 405
f 128 108 405
f 445 174 198
f 372 446 392
f 392 406 372
f 406 444 372
f 406 404 444
f 172 198 405
f 198 172 445
f 172 242 445
f 172 240 242
f 308 242 240
f 308 310 242
f 446 310 392
f 310 370 392
f 310 308 370
f 406 392 370
f 19 95 117
f 117 95 185
f 185 95 159
f 185 159 253
f 253 159 227
f 227 20 253
f 21 41 59
f 19 117 41
f 117 59 41
f 117 119 59
f 185 157 427
f 119 185 427
f 117 185 119
f 253 225 157
f 253 157 185
f 20 295 321
f 20 321 428
f 253 20 428
f 225 253 428
f 295 22 321
f 61 23 59
f 59 23 21
f 119 93 429
f 61 119 429
f 59 119 61
f 119 427 93
f 321 293 428
f 22 357 383
f 22 383 430
f 321 22 430
f 293 321 430
f 357 24 383
f 63 25 61
f 61 25 23
f 61 429 431
f 61 431 63
f 385 432 430
f 385 430 383
f 383 24 385
f 385 24 26
f 65 27 63
f 63 27 25
f 63 431 94
f 125 63 94
f 65 63 125
f 433 125 94
f 387 434 432
f 387 432 385
f 385 26 387
f 387 26 28
f 65 42 27
f 42 65 29
f 65 127 29
f 65 125 127
f 125 433 158
f 195 125 158
f 127 125 195
f 226 263 195
f 226 195 158
f 294 329 263
f 294 263 226
f 329 294 434
f 387 329 434
f 389 329 387
f 387 28 389
f 389 28 30
f 127 96 29
f 96 127 31
f 127 197 31
f 127 195 197
f 195 265 197
f 195 263 265
f 263 331 265
f 263 329 331
f 32 331 358
f 331 389 358
f 331 329 389
f 389 30 358
f 197 160 31
f 160 197 228
f 228 197 265
f 228 265 296
f 296 265 331
f 331 32 296
f 256 241 435
f 322 309 256
f 256 309 241
f 322 436 309
f 190 173 437
f 243 256 435
f 243 435 173
f 33 243 173
f 190 33 173
f 256 243 311
f 256 311 322
f 34 384 371
f 34 371 436
f 311 34 436
f 322 311 436
f 384 438 371
f 124 109 439
f 175 190 437
f 175 437 109
f 35 175 109
f 124 35 109
f 33 190 175
f 373 384 34
f 36 422 419
f 36 419 438
f 373 36 438
f 384 373 438
f 422 440 419
f 441 126 439
f 439 126 124
f 35 124 126
f 35 126 37
f 38 424 422
f 38 422 36
f 440 422 442
f 442 422 424
f 110 126 441
f 176 37 196
f 196 37 443
f 37 126 443
f 126 110 443
f 39 176 196
f 374 40 390
f 424 38 374
f 424 374 390
f 420 424 390
f 444 420 390
f 442 424 420
f 174 196 443
f 244 39 266
f 266 39 445
f 39 196 445
f 196 174 445
f 244 266 332
f 244 332 312
f 390 40 312
f 390 312 332
f 372 390 332
f 446 372 332
f 444 390 372
f 242 266 445
f 310 332 242
f 242 332 266
f 446 332 310
