# Converted from NanoShaper .vert/.face
v -9.997000 -11.888000 -3.623000
v -8.332000 -11.888000 -3.623000
v -10.666000 -11.888000 -3.123000
v -7.802000 -11.888000 -3.123000
v -10.972000 -11.888000 -2.623000
v -7.656000 -11.888000 -2.623000
v -11.053000 -11.888000 -2.123000
v -7.669000 -11.888000 -2.123000
v -11.097000 -11.888000 -1.623000
v -7.662000 -11.888000 -1.623000
v -11.072000 -11.888000 -1.123000
v -7.668000 -11.888000 -1.123000
v -11.120000 -11.888000 -0.623000
v -7.775000 -11.888000 -0.623000
v -11.019000 -11.888000 -0.123000
v -8.140000 -11.888000 -0.123000
v -10.677000 -11.888000 0.377000
v -8.763000 -11.888000 0.377000
v -10.941000 -11.888000 -2.703000
v -10.941000 -11.888000 0.039000
v -10.441000 -11.888000 -3.315000
v -10.441000 -11.888000 0.555000
v -9.941000 -11.888000 -3.664000
v -9.941000 -11.888000 0.737000
v -9.441000 -11.888000 -3.890000
v -9.441000 -11.888000 0.727000
v -8.941000 -11.888000 -3.897000
v -8.941000 -11.888000 0.519000
v -8.441000 -11.888000 -3.693000
v -8.441000 -11.888000 0.103000
v -7.941000 -11.888000 -3.316000
v -7.941000 -11.888000 -0.341000
v -10.941000 -9.952000 -3.123000
v -10.941000 -8.920000 -3.123000
v -10.441000 -12.482000 -3.123000
v -10.441000 -8.324000 -3.123000
v -9.941000 -12.817000 -3.123000
v -9.941000 -8.129000 -3.123000
v -9.441000 -12.906000 -3.123000
v -9.441000 -8.141000 -3.123000
v -8.941000 -12.927000 -3.123000
v -8.941000 -8.364000 -3.123000
v -8.441000 -12.664000 -3.123000
v -8.441000 -9.001000 -3.123000
v -7.941000 -12.026000 -3.123000
v -7.941000 -9.571000 -3.123000
v -7.441000 -11.356000 -3.123000
v -7.441000 -10.459000 -3.123000
v -10.182000 -11.388000 -3.623000
v -7.804000 -11.388000 -3.623000
v -10.704000 -11.388000 -3.123000
v -7.454000 -11.388000 -3.123000
v -11.029000 -11.388000 -2.623000
v -7.362000 -11.388000 -2.623000
v -11.119000 -11.388000 -2.123000
v -7.398000 -11.388000 -2.123000
v -11.106000 -11.388000 -1.623000
v -7.355000 -11.388000 -1.623000
v -11.078000 -11.388000 -1.123000
v -7.381000 -11.388000 -1.123000
v -11.035000 -11.388000 -0.623000
v -7.485000 -11.388000 -0.623000
v -10.907000 -11.388000 -0.123000
v -7.857000 -11.388000 -0.123000
v -10.519000 -11.388000 0.377000
v -8.842000 -11.388000 0.377000
v -10.941000 -11.388000 -2.811000
v -10.941000 -11.388000 -0.210000
v -10.441000 -11.388000 -3.357000
v -10.441000 -11.388000 0.432000
v -9.941000 -11.388000 -3.856000
v -9.941000 -11.388000 0.633000
v -9.441000 -11.388000 -4.102000
v -9.441000 -11.388000 0.621000
v -8.941000 -11.388000 -4.113000
v -8.941000 -11.388000 0.423000
v -8.441000 -11.388000 -3.944000
v -8.441000 -11.388000 0.193000
v -7.941000 -11.388000 -3.730000
v -7.941000 -11.388000 -0.059000
v -7.441000 -11.388000 -3.091000
v -7.441000 -11.388000 -0.740000
v -10.941000 -12.131000 -2.623000
v -10.941000 -8.752000 -2.623000
v -10.441000 -12.903000 -2.623000
v -10.441000 -8.236000 -2.623000
v -9.941000 -13.132000 -2.623000
v -9.941000 -8.054000 -2.623000
v -9.441000 -13.214000 -2.623000
v -9.441000 -8.065000 -2.623000
v -8.941000 -13.229000 -2.623000
v -8.941000 -8.273000 -2.623000
v -8.441000 -13.040000 -2.623000
v -8.441000 -8.734000 -2.623000
v -7.941000 -12.464000 -2.623000
v -7.941000 -9.268000 -2.623000
v -7.441000 -11.567000 -2.623000
v -7.441000 -9.982000 -2.623000
v -10.022000 -10.888000 -4.123000
v -8.302000 -10.888000 -4.123000
v -10.381000 -10.888000 -3.623000
v -7.681000 -10.888000 -3.623000
v -10.693000 -10.888000 -3.123000
v -7.363000 -10.888000 -3.123000
v -11.002000 -10.888000 -2.623000
v -7.276000 -10.888000 -2.623000
v -11.087000 -10.888000 -2.123000
v -7.308000 -10.888000 -2.123000
v -11.098000 -10.888000 -1.623000
v -7.266000 -10.888000 -1.623000
v -11.035000 -10.888000 -1.123000
v -7.296000 -10.888000 -1.123000
v -10.914000 -10.888000 -0.623000
v -7.393000 -10.888000 -0.623000
v -10.592000 -10.888000 -0.123000
v -7.729000 -10.888000 -0.123000
v -10.941000 -10.888000 -2.765000
v -10.941000 -10.888000 -0.704000
v -10.441000 -10.888000 -3.514000
v -10.441000 -10.888000 0.022000
v -9.941000 -10.888000 -4.189000
v -9.941000 -10.888000 0.293000
v -9.441000 -10.888000 -4.420000
v -9.441000 -10.888000 0.358000
v -8.941000 -10.888000 -4.432000
v -8.941000 -10.888000 0.305000
v -8.441000 -10.888000 -4.231000
v -8.441000 -10.888000 0.240000
v -7.941000 -10.888000 -3.839000
v -7.941000 -10.888000 0.043000
v -7.441000 -10.888000 -3.299000
v -7.441000 -10.888000 -0.515000
v -10.941000 -12.393000 -2.123000
v -10.941000 -8.760000 -2.123000
v -10.441000 -13.002000 -2.123000
v -10.441000 -8.221000 -2.123000
v -9.941000 -13.214000 -2.123000
v -9.941000 -8.030000 -2.123000
v -9.441000 -13.289000 -2.123000
v -9.441000 -8.034000 -2.123000
v -8.941000 -13.304000 -2.123000
v -8.941000 -8.234000 -2.123000
v -8.441000 -13.127000 -2.123000
v -8.441000 -8.583000 -2.123000
v -7.941000 -12.625000 -2.123000
v -7.941000 -8.863000 -2.123000
v -7.441000 -11.489000 -2.123000
v -7.441000 -9.648000 -2.123000
v -10.177000 -10.388000 -4.123000
v -8.148000 -10.388000 -4.123000
v -10.497000 -10.388000 -3.623000
v -7.783000 -10.388000 -3.623000
v -10.768000 -10.388000 -3.123000
v -7.470000 -10.388000 -3.123000
v -10.975000 -10.388000 -2.623000
v -7.352000 -10.388000 -2.623000
v -11.068000 -10.388000 -2.123000
v -7.296000 -10.388000 -2.123000
v -11.072000 -10.388000 -1.623000
v -7.263000 -10.388000 -1.623000
v -10.996000 -10.388000 -1.123000
v -7.312000 -10.388000 -1.123000
v -10.729000 -10.388000 -0.623000
v -7.406000 -10.388000 -0.623000
v -10.097000 -10.388000 -0.123000
v -7.736000 -10.388000 -0.123000
v -10.941000 -10.388000 -2.749000
v -10.941000 -10.388000 -0.989000
v -10.441000 -10.388000 -3.736000
v -10.441000 -10.388000 -0.319000
v -9.941000 -10.388000 -4.322000
v -9.941000 -10.388000 -0.043000
v -9.441000 -10.388000 -4.531000
v -9.441000 -10.388000 0.174000
v -8.941000 -10.388000 -4.542000
v -8.941000 -10.388000 0.257000
v -8.441000 -10.388000 -4.359000
v -8.441000 -10.388000 0.247000
v -7.941000 -10.388000 -3.852000
v -7.941000 -10.388000 0.042000
v -7.441000 -10.388000 -3.047000
v -7.441000 -10.388000 -0.540000
v -10.941000 -12.526000 -1.623000
v -10.941000 -9.052000 -1.623000
v -10.441000 -13.071000 -1.623000
v -10.441000 -8.353000 -1.623000
v -9.941000 -13.263000 -1.623000
v -9.941000 -8.142000 -1.623000
v -9.441000 -13.280000 -1.623000
v -9.441000 -8.146000 -1.623000
v -8.941000 -13.261000 -1.623000
v -8.941000 -8.347000 -1.623000
v -8.441000 -13.053000 -1.623000
v -8.441000 -8.527000 -1.623000
v -7.941000 -12.484000 -1.623000
v -7.941000 -8.741000 -1.623000
v -7.441000 -11.575000 -1.623000
v -7.441000 -9.347000 -1.623000
v -10.085000 -9.888000 -4.123000
v -8.256000 -9.888000 -4.123000
v -10.644000 -9.888000 -3.623000
v -7.924000 -9.888000 -3.623000
v -10.966000 -9.888000 -3.123000
v -7.756000 -9.888000 -3.123000
v -11.055000 -9.888000 -2.623000
v -7.474000 -9.888000 -2.623000
v -11.106000 -9.888000 -2.123000
v -7.372000 -9.888000 -2.123000
v -11.114000 -9.888000 -1.623000
v -7.327000 -9.888000 -1.623000
v -11.010000 -9.888000 -1.123000
v -7.384000 -9.888000 -1.123000
v -10.661000 -9.888000 -0.623000
v -7.503000 -9.888000 -0.623000
v -9.613000 -9.888000 -0.123000
v -7.869000 -9.888000 -0.123000
v -10.941000 -9.888000 -3.187000
v -10.941000 -9.888000 -0.981000
v -10.441000 -9.888000 -3.823000
v -10.441000 -9.888000 -0.455000
v -9.941000 -9.888000 -4.229000
v -9.941000 -9.888000 -0.236000
v -9.441000 -9.888000 -4.453000
v -9.441000 -9.888000 -0.035000
v -8.941000 -9.888000 -4.464000
v -8.941000 -9.888000 0.164000
v -8.441000 -9.888000 -4.269000
v -8.441000 -9.888000 0.156000
v -7.941000 -9.888000 -3.669000
v -7.941000 -9.888000 -0.067000
v -7.441000 -9.888000 -2.533000
v -7.441000 -9.888000 -0.809000
v -10.941000 -12.486000 -1.123000
v -10.941000 -9.454000 -1.123000
v -10.441000 -13.086000 -1.123000
v -10.441000 -8.774000 -1.123000
v -9.941000 -13.298000 -1.123000
v -9.941000 -8.509000 -1.123000
v -9.441000 -13.313000 -1.123000
v -9.441000 -8.508000 -1.123000
v -8.941000 -13.281000 -1.123000
v -8.941000 -8.574000 -1.123000
v -8.441000 -13.089000 -1.123000
v -8.441000 -8.616000 -1.123000
v -7.941000 -12.547000 -1.123000
v -7.941000 -8.845000 -1.123000
v -7.441000 -11.531000 -1.123000
v -7.441000 -9.627000 -1.123000
v -9.750000 -9.388000 -4.123000
v -8.828000 -9.388000 -4.123000
v -10.747000 -9.388000 -3.623000
v -8.254000 -9.388000 -3.623000
v -11.045000 -9.388000 -3.123000
v -8.107000 -9.388000 -3.123000
v -11.119000 -9.388000 -2.623000
v -7.814000 -9.388000 -2.623000
v -11.101000 -9.388000 -2.123000
v -7.532000 -9.388000 -2.123000
v -11.039000 -9.388000 -1.623000
v -7.425000 -9.388000 -1.623000
v -10.917000 -9.388000 -1.123000
v -7.517000 -9.388000 -1.123000
v -10.530000 -9.388000 -0.623000
v -7.830000 -9.388000 -0.623000
v -10.941000 -9.388000 -3.356000
v -10.941000 -9.388000 -1.182000
v -10.441000 -9.388000 -3.871000
v -10.441000 -9.388000 -0.559000
v -9.941000 -9.388000 -4.074000
v -9.941000 -9.388000 -0.360000
v -9.441000 -9.388000 -4.174000
v -9.441000 -9.388000 -0.298000
v -8.941000 -9.388000 -4.156000
v -8.941000 -9.388000 -0.166000
v -8.441000 -9.388000 -3.882000
v -8.441000 -9.388000 -0.177000
v -7.941000 -9.388000 -2.800000
v -7.941000 -9.388000 -0.498000
v -7.441000 -9.388000 -1.814000
v -7.441000 -9.388000 -1.395000
v -10.941000 -12.601000 -0.623000
v -10.941000 -10.971000 -0.623000
v -10.441000 -13.117000 -0.623000
v -10.441000 -9.262000 -0.623000
v -9.941000 -13.299000 -0.623000
v -9.941000 -8.950000 -0.623000
v -9.441000 -13.289000 -0.623000
v -9.441000 -8.937000 -0.623000
v -8.941000 -13.202000 -0.623000
v -8.941000 -8.918000 -0.623000
v -8.441000 -12.996000 -0.623000
v -8.441000 -8.942000 -0.623000
v -7.941000 -12.352000 -0.623000
v -7.941000 -9.267000 -0.623000
v -7.441000 -11.261000 -0.623000
v -7.441000 -10.080000 -0.623000
v -9.507000 -12.888000 -3.123000
v -8.806000 -12.888000 -3.123000
v -10.460000 -12.888000 -2.623000
v -8.245000 -12.888000 -2.623000
v -10.587000 -12.888000 -2.123000
v -8.140000 -12.888000 -2.123000
v -10.673000 -12.888000 -1.623000
v -8.232000 -12.888000 -1.623000
v -10.674000 -12.888000 -1.123000
v -8.191000 -12.888000 -1.123000
v -10.728000 -12.888000 -0.623000
v -8.304000 -12.888000 -0.623000
v -10.583000 -12.888000 -0.123000
v -8.822000 -12.888000 -0.123000
v -10.590000 -8.888000 -3.623000
v -8.836000 -8.888000 -3.623000
v -10.928000 -8.888000 -3.123000
v -8.510000 -8.888000 -3.123000
v -11.009000 -8.888000 -2.623000
v -8.290000 -8.888000 -2.623000
v -11.001000 -8.888000 -2.123000
v -7.910000 -8.888000 -2.123000
v -10.881000 -8.888000 -1.623000
v -7.759000 -8.888000 -1.623000
v -10.569000 -8.888000 -1.123000
v -7.887000 -8.888000 -1.123000
v -10.441000 -12.888000 -2.655000
v -10.441000 -12.888000 0.060000
v -9.941000 -12.888000 -3.045000
v -9.941000 -12.888000 0.339000
v -9.441000 -12.888000 -3.141000
v -9.441000 -12.888000 0.324000
v -8.941000 -12.888000 -3.162000
v -8.941000 -12.888000 -0.004000
v -8.441000 -12.888000 -2.894000
v -8.441000 -12.888000 -0.426000
v -10.941000 -8.888000 -3.085000
v -10.941000 -8.888000 -1.779000
v -10.441000 -8.888000 -3.740000
v -10.441000 -8.888000 -0.969000
v -9.941000 -8.888000 -3.941000
v -9.941000 -8.888000 -0.681000
v -9.441000 -8.888000 -3.930000
v -9.441000 -8.888000 -0.672000
v -8.941000 -8.888000 -3.709000
v -8.941000 -8.888000 -0.654000
v -8.441000 -8.888000 -2.944000
v -8.441000 -8.888000 -0.679000
v -7.941000 -8.888000 -2.171000
v -7.941000 -8.888000 -1.039000
v -9.941000 -10.999000 -4.123000
v -9.941000 -9.580000 -4.123000
v -9.441000 -11.354000 -4.123000
v -9.441000 -9.300000 -4.123000
v -8.941000 -11.372000 -4.123000
v -8.941000 -9.356000 -4.123000
v -8.441000 -11.070000 -4.123000
v -8.441000 -9.632000 -4.123000
v -10.941000 -12.360000 -0.123000
v -10.941000 -11.474000 -0.123000
v -10.441000 -12.998000 -0.123000
v -10.441000 -10.691000 -0.123000
v -9.941000 -13.198000 -0.123000
v -9.941000 -10.228000 -0.123000
v -9.441000 -13.186000 -0.123000
v -9.441000 -9.693000 -0.123000
v -8.941000 -12.965000 -0.123000
v -8.941000 -9.431000 -0.123000
v -8.441000 -12.596000 -0.123000
v -8.441000 -9.443000 -0.123000
v -7.941000 -11.513000 -0.123000
v -7.941000 -9.782000 -0.123000
v -10.509000 -12.388000 -3.123000
v -8.232000 -12.388000 -3.123000
v -10.855000 -12.388000 -2.623000
v -7.910000 -12.388000 -2.623000
v -10.943000 -12.388000 -2.123000
v -7.832000 -12.388000 -2.123000
v -11.003000 -12.388000 -1.623000
v -7.901000 -12.388000 -1.623000
v -10.983000 -12.388000 -1.123000
v -7.872000 -12.388000 -1.123000
v -11.038000 -12.388000 -0.623000
v -7.955000 -12.388000 -0.623000
v -10.931000 -12.388000 -0.123000
v -8.292000 -12.388000 -0.123000
v -10.554000 -12.388000 0.377000
v -8.886000 -12.388000 0.377000
v -10.533000 -8.388000 -3.123000
v -8.909000 -8.388000 -3.123000
v -10.649000 -8.388000 -2.623000
v -8.793000 -8.388000 -2.623000
v -10.659000 -8.388000 -2.123000
v -8.734000 -8.388000 -2.123000
v -10.490000 -8.388000 -1.623000
v -8.847000 -8.388000 -1.623000
v -10.941000 -12.388000 -2.192000
v -10.941000 -12.388000 -0.149000
v -10.441000 -12.388000 -3.179000
v -10.441000 -12.388000 0.459000
v -9.941000 -12.388000 -3.417000
v -9.941000 -12.388000 0.655000
v -9.441000 -12.388000 -3.529000
v -9.441000 -12.388000 0.644000
v -8.941000 -12.388000 -3.540000
v -8.941000 -12.388000 0.419000
v -8.441000 -12.388000 -3.303000
v -8.441000 -12.388000 -0.004000
v -7.941000 -12.388000 -2.701000
v -7.941000 -12.388000 -0.662000
v -10.441000 -8.388000 -3.258000
v -10.441000 -8.388000 -1.560000
v -9.941000 -8.388000 -3.574000
v -9.941000 -8.388000 -1.241000
v -9.441000 -8.388000 -3.558000
v -9.441000 -8.388000 -1.247000
v -8.941000 -8.388000 -3.177000
v -8.941000 -8.388000 -1.514000
v -10.441000 -10.678000 -3.623000
v -10.441000 -8.704000 -3.623000
v -9.941000 -11.966000 -3.623000
v -9.941000 -8.433000 -3.623000
v -9.441000 -12.292000 -3.623000
v -9.441000 -8.448000 -3.623000
v -8.941000 -12.301000 -3.623000
v -8.941000 -8.768000 -3.623000
v -8.441000 -12.002000 -3.623000
v -8.441000 -9.237000 -3.623000
v -7.941000 -11.580000 -3.623000
v -7.941000 -9.843000 -3.623000
v -10.441000 -12.547000 0.377000
v -10.441000 -11.287000 0.377000
v -9.941000 -12.849000 0.377000
v -9.941000 -10.985000 0.377000
v -9.441000 -12.833000 0.377000
v -9.441000 -10.928000 0.377000
v -8.941000 -12.475000 0.377000
v -8.941000 -11.211000 0.377000
f 83 5 19
f 19 5 67
f 67 5 53
f 67 53 117
f 117 53 105
f 117 105 167
f 167 105 155
f 167 155 33
f 155 203 33
f 155 205 203
f 205 253 203
f 255 253 205
f 34 253 333
f 253 315 333
f 253 255 315
f 315 84 333
f 85 299 323
f 323 299 35
f 299 369 35
f 299 371 369
f 371 83 19
f 3 371 19
f 369 371 3
f 67 51 3
f 67 3 19
f 117 103 51
f 117 51 67
f 167 153 103
f 167 103 117
f 167 33 153
f 333 313 34
f 313 333 84
f 387 313 84
f 385 313 387
f 387 86 385
f 385 86 36
f 325 87 323
f 323 87 85
f 323 35 37
f 323 37 325
f 36 88 38
f 86 88 36
f 297 39 325
f 39 87 325
f 39 89 87
f 325 37 297
f 38 90 40
f 88 90 38
f 91 39 41
f 91 89 39
f 40 92 42
f 90 92 40
f 331 93 298
f 93 41 298
f 93 91 41
f 43 331 298
f 314 343 44
f 388 94 343
f 314 388 343
f 386 388 314
f 386 42 388
f 388 42 92
f 331 300 93
f 405 95 370
f 370 95 43
f 95 300 43
f 300 331 43
f 45 405 370
f 254 277 46
f 343 316 44
f 44 316 254
f 316 96 254
f 96 277 254
f 343 94 316
f 405 372 95
f 45 4 405
f 4 372 405
f 4 6 372
f 52 81 97
f 6 52 97
f 4 52 6
f 47 81 52
f 154 181 48
f 206 98 181
f 154 206 181
f 204 206 154
f 277 256 46
f 256 204 46
f 256 206 204
f 277 96 256
f 81 54 97
f 47 104 81
f 104 54 81
f 104 106 54
f 181 156 48
f 156 104 48
f 156 106 104
f 181 98 156
f 133 373 393
f 393 373 83
f 373 5 83
f 373 7 5
f 7 53 5
f 55 53 7
f 55 105 53
f 107 105 55
f 107 155 105
f 157 155 107
f 157 205 155
f 207 205 157
f 207 255 205
f 257 255 207
f 257 315 255
f 317 315 257
f 317 134 315
f 315 134 84
f 135 301 85
f 85 301 299
f 301 133 393
f 371 301 393
f 299 301 371
f 393 83 371
f 387 84 134
f 387 134 389
f 389 136 387
f 387 136 86
f 137 85 87
f 137 135 85
f 86 138 88
f 136 138 86
f 139 87 89
f 139 137 87
f 88 140 90
f 138 140 88
f 141 89 91
f 141 139 89
f 90 142 92
f 140 142 90
f 143 91 93
f 143 141 91
f 390 144 94
f 390 94 388
f 388 92 390
f 390 92 142
f 93 300 143
f 143 300 302
f 145 302 300
f 145 300 95
f 316 345 96
f 316 94 345
f 94 146 345
f 94 144 146
f 95 372 145
f 145 372 374
f 6 374 372
f 6 8 374
f 147 8 6
f 147 6 97
f 206 231 98
f 258 148 231
f 206 258 231
f 256 258 206
f 345 318 96
f 318 256 96
f 318 258 256
f 345 146 318
f 97 54 147
f 147 54 56
f 106 56 54
f 106 108 56
f 156 108 106
f 156 158 108
f 231 208 98
f 208 156 98
f 208 158 156
f 231 148 208
f 183 375 133
f 133 375 373
f 375 7 373
f 9 7 375
f 9 55 7
f 57 55 9
f 57 107 55
f 109 107 57
f 109 157 107
f 159 157 109
f 159 207 157
f 209 207 159
f 209 257 207
f 259 257 209
f 334 317 184
f 317 259 184
f 317 257 259
f 334 134 317
f 185 303 135
f 135 303 301
f 133 301 303
f 133 303 183
f 319 334 184
f 389 134 334
f 319 389 334
f 391 389 319
f 391 186 389
f 389 186 136
f 187 135 137
f 187 185 135
f 136 188 138
f 186 188 136
f 189 137 139
f 189 187 137
f 138 190 140
f 188 190 138
f 191 139 141
f 191 189 139
f 140 192 142
f 190 192 140
f 193 141 143
f 193 191 141
f 392 194 144
f 392 144 390
f 390 142 392
f 392 142 192
f 143 302 193
f 193 302 304
f 195 304 302
f 195 302 145
f 144 196 146
f 194 196 144
f 145 374 195
f 195 374 376
f 8 376 374
f 8 10 376
f 197 10 8
f 197 8 147
f 258 279 148
f 320 198 279
f 258 320 279
f 318 320 258
f 318 146 320
f 320 146 196
f 147 56 197
f 197 56 58
f 108 58 56
f 108 110 58
f 158 110 108
f 158 160 110
f 208 160 158
f 208 210 160
f 279 260 148
f 260 208 148
f 260 210 208
f 279 198 260
f 233 377 183
f 183 377 375
f 377 9 375
f 11 9 377
f 11 57 9
f 59 57 11
f 59 109 57
f 111 109 59
f 111 159 109
f 161 159 111
f 161 209 159
f 211 209 161
f 266 259 234
f 259 211 234
f 259 209 211
f 266 184 259
f 235 305 185
f 185 305 303
f 183 303 305
f 183 305 233
f 261 266 234
f 319 184 266
f 261 319 266
f 321 319 261
f 408 391 236
f 391 321 236
f 391 319 321
f 408 186 391
f 237 185 187
f 237 235 185
f 238 410 408
f 238 408 236
f 186 408 188
f 188 408 410
f 239 187 189
f 239 237 187
f 240 412 410
f 240 410 238
f 188 410 190
f 190 410 412
f 241 189 191
f 241 239 189
f 242 414 412
f 242 412 240
f 190 412 192
f 192 412 414
f 243 191 193
f 243 241 191
f 194 392 414
f 242 194 414
f 244 194 242
f 192 414 392
f 193 304 243
f 243 304 306
f 245 306 304
f 245 304 195
f 194 246 196
f 244 246 194
f 195 376 245
f 245 376 378
f 10 378 376
f 10 12 378
f 247 12 10
f 247 10 197
f 262 248 280
f 262 280 198
f 320 262 198
f 322 262 320
f 320 196 322
f 322 196 246
f 197 58 247
f 247 58 60
f 110 60 58
f 110 112 60
f 160 112 110
f 160 162 112
f 210 162 160
f 210 212 162
f 248 212 280
f 212 260 280
f 212 210 260
f 198 280 260
f 281 379 233
f 233 379 377
f 379 11 377
f 13 11 379
f 13 59 11
f 61 59 13
f 118 111 282
f 111 61 282
f 111 59 61
f 168 161 118
f 118 161 111
f 218 211 168
f 168 211 161
f 218 234 211
f 283 307 235
f 235 307 305
f 233 305 307
f 233 307 281
f 113 118 282
f 118 113 163
f 118 163 168
f 168 163 213
f 168 213 218
f 261 234 218
f 213 261 218
f 263 261 213
f 336 321 284
f 321 263 284
f 321 261 263
f 336 236 321
f 285 235 237
f 285 283 235
f 286 338 336
f 286 336 284
f 236 336 238
f 238 336 338
f 287 237 239
f 287 285 237
f 288 340 338
f 288 338 286
f 238 338 240
f 240 338 340
f 289 239 241
f 289 287 239
f 290 342 340
f 290 340 288
f 240 340 242
f 242 340 342
f 291 241 243
f 291 289 241
f 292 344 342
f 292 342 290
f 242 342 244
f 244 342 344
f 243 306 291
f 291 306 308
f 306 245 406
f 380 306 406
f 308 306 380
f 293 380 406
f 294 346 344
f 294 344 292
f 244 344 246
f 246 344 346
f 378 406 245
f 406 378 293
f 378 14 293
f 378 12 14
f 12 247 82
f 62 12 82
f 14 12 62
f 295 62 82
f 214 296 232
f 214 232 248
f 262 214 248
f 264 214 262
f 294 264 346
f 264 322 346
f 264 262 322
f 246 346 322
f 60 82 247
f 82 60 295
f 60 114 295
f 60 112 114
f 162 114 112
f 162 164 114
f 296 164 232
f 164 212 232
f 164 162 212
f 248 232 212
f 347 99 121
f 121 99 171
f 171 99 149
f 171 149 221
f 221 149 199
f 199 348 221
f 123 349 121
f 121 349 347
f 121 173 123
f 121 171 173
f 171 223 173
f 171 221 223
f 249 271 348
f 271 221 348
f 271 223 221
f 249 350 271
f 125 351 123
f 123 351 349
f 123 175 125
f 123 173 175
f 173 225 175
f 173 223 225
f 223 273 225
f 223 271 273
f 271 350 273
f 273 350 352
f 127 353 125
f 125 353 351
f 125 177 127
f 125 175 177
f 175 227 177
f 175 225 227
f 354 227 250
f 227 273 250
f 227 225 273
f 273 352 250
f 127 100 353
f 100 127 150
f 150 127 177
f 150 177 200
f 200 177 227
f 227 354 200
f 394 379 281
f 355 15 394
f 15 379 394
f 15 13 379
f 68 61 356
f 61 15 356
f 61 13 15
f 68 282 61
f 357 309 283
f 283 309 307
f 381 394 281
f 307 381 281
f 309 381 307
f 355 394 381
f 63 68 356
f 113 282 68
f 63 113 68
f 115 113 63
f 170 163 358
f 163 115 358
f 163 113 115
f 220 213 170
f 170 213 163
f 268 263 220
f 220 263 213
f 268 284 263
f 359 283 285
f 359 357 283
f 165 170 358
f 170 165 360
f 222 170 360
f 220 170 222
f 270 220 222
f 268 220 270
f 284 268 286
f 286 268 270
f 361 285 287
f 361 359 285
f 215 222 360
f 222 215 362
f 272 222 362
f 270 222 272
f 286 270 288
f 288 270 272
f 363 287 289
f 363 361 287
f 364 274 272
f 364 272 362
f 288 272 290
f 290 272 274
f 310 363 332
f 363 291 332
f 363 289 291
f 365 310 332
f 366 276 274
f 366 274 364
f 290 274 292
f 292 274 276
f 308 332 291
f 332 308 365
f 308 382 365
f 308 380 382
f 380 293 32
f 16 380 32
f 382 380 16
f 367 16 32
f 368 278 276
f 368 276 366
f 292 276 294
f 294 276 278
f 14 32 293
f 32 14 367
f 14 64 367
f 14 62 64
f 62 295 132
f 116 62 132
f 64 62 116
f 116 132 182
f 116 182 166
f 166 182 296
f 214 166 296
f 216 166 214
f 368 216 278
f 216 264 278
f 216 214 264
f 294 278 264
f 114 132 295
f 164 182 114
f 114 182 132
f 296 182 164
f 415 151 169
f 169 151 219
f 219 151 201
f 219 201 267
f 267 201 251
f 267 251 335
f 335 251 311
f 311 416 335
f 417 1 23
f 23 1 71
f 71 1 49
f 71 49 347
f 49 99 347
f 49 101 99
f 101 415 169
f 149 101 169
f 99 101 149
f 219 199 149
f 219 149 169
f 269 348 199
f 219 269 199
f 267 269 219
f 267 337 269
f 267 335 337
f 335 416 337
f 337 416 418
f 25 419 23
f 23 419 417
f 23 73 25
f 23 71 73
f 71 347 349
f 71 349 73
f 269 249 348
f 339 350 249
f 269 339 249
f 337 339 269
f 337 418 339
f 339 418 420
f 27 421 25
f 25 421 419
f 25 75 27
f 25 73 75
f 73 349 351
f 73 351 75
f 341 352 350
f 341 350 339
f 339 420 341
f 341 420 422
f 29 423 27
f 27 423 421
f 27 77 29
f 27 75 77
f 75 351 353
f 75 353 77
f 250 275 354
f 341 312 352
f 352 312 250
f 312 424 250
f 424 275 250
f 341 422 312
f 29 2 423
f 2 29 425
f 29 79 425
f 29 77 79
f 77 353 100
f 129 77 100
f 79 77 129
f 150 179 129
f 150 129 100
f 200 229 179
f 200 179 150
f 275 252 354
f 354 252 200
f 252 426 200
f 426 229 200
f 275 424 252
f 79 50 425
f 50 79 102
f 102 79 129
f 102 129 152
f 152 129 179
f 152 179 202
f 202 179 229
f 229 426 202
f 20 15 355
f 20 356 15
f 324 309 357
f 427 383 324
f 383 309 324
f 383 381 309
f 17 20 355
f 381 17 355
f 383 17 381
f 63 356 20
f 17 63 20
f 65 63 17
f 120 115 428
f 115 65 428
f 115 63 65
f 120 358 115
f 359 326 357
f 357 326 324
f 427 324 326
f 427 326 429
f 430 122 120
f 430 120 428
f 358 120 165
f 120 172 165
f 120 122 172
f 172 360 165
f 361 328 359
f 359 328 326
f 429 326 328
f 429 328 431
f 432 124 122
f 432 122 430
f 174 122 124
f 172 122 174
f 360 172 215
f 172 224 215
f 172 174 224
f 224 362 215
f 363 330 361
f 361 330 328
f 431 328 330
f 431 330 433
f 434 126 124
f 434 124 432
f 176 124 126
f 174 124 176
f 226 174 176
f 224 174 226
f 362 224 364
f 364 224 226
f 310 330 363
f 384 433 404
f 404 433 365
f 433 330 365
f 330 310 365
f 384 404 30
f 384 30 18
f 18 30 78
f 18 78 66
f 126 434 66
f 78 126 66
f 128 126 78
f 178 126 128
f 176 126 178
f 228 176 178
f 226 176 228
f 364 226 366
f 366 226 228
f 382 404 365
f 16 30 382
f 382 30 404
f 367 80 16
f 80 30 16
f 80 78 30
f 130 78 80
f 128 78 130
f 180 128 130
f 178 128 180
f 230 178 180
f 228 178 230
f 366 228 368
f 368 228 230
f 64 80 367
f 116 130 64
f 64 130 80
f 166 180 116
f 116 180 130
f 216 230 166
f 166 230 180
f 368 230 216
f 33 203 217
f 217 203 265
f 265 203 253
f 253 34 265
f 35 369 395
f 395 369 21
f 21 369 3
f 21 3 69
f 69 3 51
f 69 51 119
f 119 51 103
f 119 103 415
f 103 151 415
f 103 153 151
f 153 33 217
f 201 153 217
f 151 153 201
f 265 251 201
f 265 201 217
f 251 265 34
f 313 251 34
f 311 251 313
f 416 311 407
f 311 385 407
f 311 313 385
f 385 36 407
f 397 37 395
f 395 37 35
f 21 1 417
f 397 21 417
f 395 21 397
f 69 49 1
f 69 1 21
f 119 101 49
f 119 49 69
f 119 415 101
f 409 418 416
f 409 416 407
f 407 36 409
f 409 36 38
f 39 297 327
f 37 397 297
f 397 327 297
f 397 399 327
f 397 417 419
f 397 419 399
f 411 420 418
f 411 418 409
f 409 38 411
f 411 38 40
f 329 41 327
f 327 41 39
f 327 401 329
f 327 399 401
f 399 419 421
f 399 421 401
f 413 422 420
f 413 420 411
f 411 40 413
f 413 40 42
f 329 298 41
f 298 329 43
f 329 403 43
f 329 401 403
f 401 421 423
f 401 423 403
f 314 44 424
f 314 424 312
f 413 386 422
f 386 312 422
f 386 314 312
f 413 42 386
f 403 370 43
f 31 45 2
f 2 45 423
f 45 370 423
f 370 403 423
f 425 31 2
f 254 46 426
f 254 426 252
f 252 424 254
f 254 424 44
f 31 4 45
f 425 50 31
f 50 4 31
f 50 52 4
f 102 131 47
f 52 102 47
f 50 102 52
f 154 48 131
f 102 154 131
f 152 154 102
f 202 154 152
f 202 204 154
f 202 426 204
f 204 426 46
f 131 104 47
f 131 48 104
f 396 383 427
f 22 17 396
f 396 17 383
f 70 65 22
f 22 65 17
f 70 428 65
f 429 398 427
f 427 398 396
f 24 396 398
f 22 396 24
f 72 22 24
f 70 22 72
f 428 70 430
f 430 70 72
f 431 400 429
f 429 400 398
f 26 398 400
f 24 398 26
f 74 24 26
f 72 24 74
f 430 72 432
f 432 72 74
f 433 402 431
f 431 402 400
f 28 400 402
f 26 400 28
f 76 26 28
f 74 26 76
f 432 74 434
f 434 74 76
f 384 402 433
f 18 28 384
f 384 28 402
f 66 76 18
f 18 76 28
f 434 76 66
