# Converted from NanoShaper .vert/.face
v 13.578000 -1.888000 0.627000
v 15.426000 -1.888000 0.627000
v 13.008000 -1.888000 1.127000
v 15.857000 -1.888000 1.127000
v 12.658000 -1.888000 1.627000
v 16.070000 -1.888000 1.627000
v 12.434000 -1.888000 2.127000
v 16.118000 -1.888000 2.127000
v 12.189000 -1.888000 2.627000
v 16.218000 -1.888000 2.627000
v 11.985000 -1.888000 3.127000
v 16.347000 -1.888000 3.127000
v 11.740000 -1.888000 3.627000
v 16.533000 -1.888000 3.627000
v 11.512000 -1.888000 4.127000
v 16.640000 -1.888000 4.127000
v 11.417000 -1.888000 4.627000
v 16.734000 -1.888000 4.627000
v 11.423000 -1.888000 5.127000
v 17.002000 -1.888000 5.127000
v 11.625000 -1.888000 5.627000
v 17.444000 -1.888000 5.627000
v 11.948000 -1.888000 6.127000
v 17.633000 -1.888000 6.127000
v 12.151000 -1.888000 6.627000
v 17.617000 -1.888000 6.627000
v 12.235000 -1.888000 7.127000
v 17.388000 -1.888000 7.127000
v 12.098000 -1.888000 7.627000
v 16.980000 -1.888000 7.627000
v 11.729000 -1.888000 8.127000
v 16.294000 -1.888000 8.127000
v 11.499000 -1.888000 8.627000
v 15.634000 -1.888000 8.627000
v 11.446000 -1.888000 9.127000
v 15.376000 -1.888000 9.127000
v 11.415000 -1.888000 9.627000
v 15.257000 -1.888000 9.627000
v 11.417000 -1.888000 10.127000
v 15.224000 -1.888000 10.127000
v 11.613000 -1.888000 10.627000
v 14.962000 -1.888000 10.627000
v 12.166000 -1.888000 11.127000
v 14.318000 -1.888000 11.127000
v 11.809000 -1.888000 3.522000
v 11.809000 -1.888000 5.883000
v 11.809000 -1.888000 8.030000
v 11.809000 -1.888000 10.869000
v 12.309000 -1.888000 2.427000
v 12.309000 -1.888000 11.188000
v 12.809000 -1.888000 1.391000
v 12.809000 -1.888000 11.275000
v 13.309000 -1.888000 0.843000
v 13.309000 -1.888000 11.284000
v 13.809000 -1.888000 0.517000
v 13.809000 -1.888000 11.228000
v 14.309000 -1.888000 0.452000
v 14.309000 -1.888000 11.130000
v 14.809000 -1.888000 0.377000
v 14.809000 -1.888000 10.798000
v 15.309000 -1.888000 0.537000
v 15.309000 -1.888000 9.335000
v 15.809000 -1.888000 1.057000
v 15.809000 -1.888000 8.428000
v 16.309000 -1.888000 3.018000
v 16.309000 -1.888000 8.121000
v 16.809000 -1.888000 4.818000
v 16.809000 -1.888000 7.796000
v 17.309000 -1.888000 5.448000
v 17.309000 -1.888000 7.237000
v 11.809000 -5.062000 1.627000
v 11.809000 -3.611000 1.627000
v 12.309000 -5.479000 1.627000
v 12.309000 -2.765000 1.627000
v 12.809000 -5.687000 1.627000
v 12.809000 -1.350000 1.627000
v 13.309000 -5.768000 1.627000
v 13.309000 -0.652000 1.627000
v 13.809000 -5.661000 1.627000
v 13.809000 -0.323000 1.627000
v 14.309000 -5.310000 1.627000
v 14.309000 -0.522000 1.627000
v 14.809000 -4.856000 1.627000
v 14.809000 -0.798000 1.627000
v 15.309000 -4.423000 1.627000
v 15.309000 -1.051000 1.627000
v 15.809000 -3.789000 1.627000
v 15.809000 -1.448000 1.627000
v 11.809000 -3.549000 5.627000
v 11.809000 -1.130000 5.627000
v 12.309000 -4.369000 5.627000
v 12.309000 -0.360000 5.627000
v 12.809000 -4.724000 5.627000
v 12.809000 0.090000 5.627000
v 13.309000 -5.038000 5.627000
v 13.309000 0.556000 5.627000
v 13.809000 -5.128000 5.627000
v 13.809000 1.063000 5.627000
v 14.309000 -5.065000 5.627000
v 14.309000 1.423000 5.627000
v 14.809000 -4.959000 5.627000
v 14.809000 1.532000 5.627000
v 15.309000 -4.687000 5.627000
v 15.309000 1.454000 5.627000
v 15.809000 -4.315000 5.627000
v 15.809000 1.144000 5.627000
v 16.309000 -3.622000 5.627000
v 16.309000 0.524000 5.627000
v 16.809000 -2.608000 5.627000
v 16.809000 0.025000 5.627000
v 17.309000 -2.133000 5.627000
v 17.309000 -0.702000 5.627000
v 11.809000 -2.878000 9.627000
v 11.809000 -0.401000 9.627000
v 12.309000 -3.281000 9.627000
v 12.309000 -0.088000 9.627000
v 12.809000 -3.849000 9.627000
v 12.809000 -0.007000 9.627000
v 13.309000 -4.189000 9.627000
v 13.309000 -0.092000 9.627000
v 13.809000 -4.286000 9.627000
v 13.809000 -0.305000 9.627000
v 14.309000 -4.291000 9.627000
v 14.309000 -0.782000 9.627000
v 14.809000 -4.187000 9.627000
v 14.809000 -1.347000 9.627000
v 15.309000 -3.837000 9.627000
v 15.309000 -1.949000 9.627000
v 12.183000 -5.388000 0.127000
v 13.402000 -5.388000 0.127000
v 11.850000 -5.388000 0.627000
v 13.928000 -5.388000 0.627000
v 11.841000 -5.388000 1.127000
v 14.230000 -5.388000 1.127000
v 12.143000 -5.388000 1.627000
v 14.225000 -5.388000 1.627000
v 12.651000 -5.388000 2.127000
v 14.023000 -5.388000 2.127000
v 13.480000 -1.388000 1.127000
v 15.445000 -1.388000 1.127000
v 12.789000 -1.388000 1.627000
v 15.753000 -1.388000 1.627000
v 12.558000 -1.388000 2.127000
v 15.937000 -1.388000 2.127000
v 12.403000 -1.388000 2.627000
v 16.146000 -1.388000 2.627000
v 12.135000 -1.388000 3.127000
v 16.410000 -1.388000 3.127000
v 11.930000 -1.388000 3.627000
v 16.627000 -1.388000 3.627000
v 11.698000 -1.388000 4.127000
v 16.719000 -1.388000 4.127000
v 11.495000 -1.388000 4.627000
v 16.861000 -1.388000 4.627000
v 11.500000 -1.388000 5.127000
v 17.143000 -1.388000 5.127000
v 11.706000 -1.388000 5.627000
v 17.534000 -1.388000 5.627000
v 11.891000 -1.388000 6.127000
v 17.711000 -1.388000 6.127000
v 12.009000 -1.388000 6.627000
v 17.696000 -1.388000 6.627000
v 12.036000 -1.388000 7.127000
v 17.481000 -1.388000 7.127000
v 11.908000 -1.388000 7.627000
v 16.877000 -1.388000 7.627000
v 11.600000 -1.388000 8.127000
v 15.711000 -1.388000 8.127000
v 11.391000 -1.388000 8.627000
v 15.269000 -1.388000 8.627000
v 11.377000 -1.388000 9.127000
v 14.979000 -1.388000 9.127000
v 11.387000 -1.388000 9.627000
v 14.840000 -1.388000 9.627000
v 11.404000 -1.388000 10.127000
v 14.795000 -1.388000 10.127000
v 11.616000 -1.388000 10.627000
v 14.501000 -1.388000 10.627000
v 12.219000 -1.388000 11.127000
v 13.642000 -1.388000 11.127000
v 12.309000 -5.388000 0.042000
v 12.309000 -5.388000 1.759000
v 12.809000 -5.388000 -0.086000
v 12.809000 -5.388000 2.232000
v 13.309000 -5.388000 0.061000
v 13.309000 -5.388000 2.375000
v 13.809000 -5.388000 0.535000
v 13.809000 -5.388000 2.322000
v 11.809000 -1.388000 3.939000
v 11.809000 -1.388000 5.861000
v 11.809000 -1.388000 7.822000
v 11.809000 -1.388000 10.854000
v 12.309000 -1.388000 2.830000
v 12.309000 -1.388000 11.161000
v 12.809000 -1.388000 1.600000
v 12.809000 -1.388000 11.241000
v 13.309000 -1.388000 1.211000
v 13.309000 -1.388000 11.187000
v 13.809000 -1.388000 0.951000
v 13.809000 -1.388000 11.067000
v 14.309000 -1.388000 0.817000
v 14.309000 -1.388000 10.774000
v 14.809000 -1.388000 0.874000
v 14.809000 -1.388000 10.055000
v 15.309000 -1.388000 1.025000
v 15.309000 -1.388000 8.557000
v 15.809000 -1.388000 1.808000
v 15.809000 -1.388000 8.060000
v 16.309000 -1.388000 2.964000
v 16.309000 -1.388000 7.837000
v 16.809000 -1.388000 4.479000
v 16.809000 -1.388000 7.659000
v 17.309000 -1.388000 5.333000
v 17.309000 -1.388000 7.333000
v 12.309000 -5.061000 2.127000
v 12.309000 -2.246000 2.127000
v 12.809000 -5.471000 2.127000
v 12.809000 -0.336000 2.127000
v 13.309000 -5.567000 2.127000
v 13.309000 0.161000 2.127000
v 13.809000 -5.465000 2.127000
v 13.809000 0.287000 2.127000
v 14.309000 -5.269000 2.127000
v 14.309000 0.186000 2.127000
v 14.809000 -5.004000 2.127000
v 14.809000 -0.217000 2.127000
v 15.309000 -4.600000 2.127000
v 15.309000 -0.662000 2.127000
v 15.809000 -3.612000 2.127000
v 15.809000 -1.189000 2.127000
v 12.309000 -4.084000 6.127000
v 12.309000 -0.263000 6.127000
v 12.809000 -4.485000 6.127000
v 12.809000 0.274000 6.127000
v 13.309000 -4.657000 6.127000
v 13.309000 0.676000 6.127000
v 13.809000 -4.773000 6.127000
v 13.809000 1.073000 6.127000
v 14.309000 -4.768000 6.127000
v 14.309000 1.410000 6.127000
v 14.809000 -4.739000 6.127000
v 14.809000 1.520000 6.127000
v 15.309000 -4.624000 6.127000
v 15.309000 1.440000 6.127000
v 15.809000 -4.299000 6.127000
v 15.809000 1.127000 6.127000
v 16.309000 -3.926000 6.127000
v 16.309000 0.544000 6.127000
v 16.809000 -3.386000 6.127000
v 16.809000 -0.001000 6.127000
v 17.309000 -2.413000 6.127000
v 17.309000 -0.452000 6.127000
v 11.809000 -2.875000 10.127000
v 11.809000 -0.437000 10.127000
v 12.309000 -3.247000 10.127000
v 12.309000 -0.120000 10.127000
v 12.809000 -3.837000 10.127000
v 12.809000 -0.038000 10.127000
v 13.309000 -4.180000 10.127000
v 13.309000 -0.146000 10.127000
v 13.809000 -4.278000 10.127000
v 13.809000 -0.508000 10.127000
v 14.309000 -4.254000 10.127000
v 14.309000 -1.001000 10.127000
v 14.809000 -4.143000 10.127000
v 14.809000 -1.401000 10.127000
v 15.309000 -3.775000 10.127000
v 15.309000 -1.978000 10.127000
v 12.469000 -4.888000 -0.373000
v 13.116000 -4.888000 -0.373000
v 11.734000 -4.888000 0.127000
v 13.988000 -4.888000 0.127000
v 11.513000 -4.888000 0.627000
v 14.427000 -4.888000 0.627000
v 11.506000 -4.888000 1.127000
v 14.709000 -4.888000 1.127000
v 11.710000 -4.888000 1.627000
v 14.776000 -4.888000 1.627000
v 12.205000 -4.888000 2.127000
v 14.990000 -4.888000 2.127000
v 12.635000 -4.888000 2.627000
v 15.268000 -4.888000 2.627000
v 13.130000 -4.888000 3.127000
v 15.332000 -4.888000 3.127000
v 13.233000 -4.888000 3.627000
v 15.331000 -4.888000 3.627000
v 13.014000 -4.888000 4.127000
v 15.319000 -4.888000 4.127000
v 12.795000 -4.888000 4.627000
v 15.260000 -4.888000 4.627000
v 12.775000 -4.888000 5.127000
v 15.241000 -4.888000 5.127000
v 13.044000 -4.888000 5.627000
v 14.964000 -4.888000 5.627000
v 13.130000 -0.888000 1.627000
v 15.021000 -0.888000 1.627000
v 12.669000 -0.888000 2.127000
v 15.508000 -0.888000 2.127000
v 12.460000 -0.888000 2.627000
v 15.933000 -0.888000 2.627000
v 12.247000 -0.888000 3.127000
v 16.294000 -0.888000 3.127000
v 12.050000 -0.888000 3.627000
v 16.531000 -0.888000 3.627000
v 11.967000 -0.888000 4.127000
v 16.657000 -0.888000 4.127000
v 11.802000 -0.888000 4.627000
v 16.934000 -0.888000 4.627000
v 11.809000 -0.888000 5.127000
v 17.155000 -0.888000 5.127000
v 11.939000 -0.888000 5.627000
v 17.408000 -0.888000 5.627000
v 11.984000 -0.888000 6.127000
v 17.602000 -0.888000 6.127000
v 11.973000 -0.888000 6.627000
v 17.586000 -0.888000 6.627000
v 11.956000 -0.888000 7.127000
v 17.348000 -0.888000 7.127000
v 11.871000 -0.888000 7.627000
v 16.390000 -0.888000 7.627000
v 11.683000 -0.888000 8.127000
v 15.401000 -0.888000 8.127000
v 11.472000 -0.888000 8.627000
v 15.042000 -0.888000 8.627000
v 11.460000 -0.888000 9.127000
v 14.708000 -0.888000 9.127000
v 11.484000 -0.888000 9.627000
v 14.394000 -0.888000 9.627000
v 11.507000 -0.888000 10.127000
v 14.193000 -0.888000 10.127000
v 11.739000 -0.888000 10.627000
v 13.880000 -0.888000 10.627000
v 12.579000 -0.888000 11.127000
v 12.971000 -0.888000 11.127000
v 11.809000 -4.888000 0.033000
v 11.809000 -4.888000 1.754000
v 12.309000 -4.888000 -0.321000
v 12.309000 -4.888000 2.252000
v 12.809000 -4.888000 -0.414000
v 12.809000 -4.888000 2.806000
v 12.809000 -4.888000 4.584000
v 12.809000 -4.888000 5.246000
v 13.309000 -4.888000 -0.308000
v 13.309000 -4.888000 5.820000
v 13.809000 -4.888000 -0.015000
v 13.809000 -4.888000 5.946000
v 14.309000 -4.888000 0.506000
v 14.309000 -4.888000 5.887000
v 14.809000 -4.888000 1.756000
v 14.809000 -4.888000 5.757000
v 15.309000 -4.888000 3.015000
v 15.309000 -4.888000 4.185000
v 11.809000 -0.888000 4.603000
v 11.809000 -0.888000 5.124000
v 11.809000 -0.888000 7.832000
v 11.809000 -0.888000 10.711000
v 12.309000 -0.888000 3.009000
v 12.309000 -0.888000 11.055000
v 12.809000 -0.888000 1.927000
v 12.809000 -0.888000 11.141000
v 13.309000 -0.888000 1.523000
v 13.309000 -0.888000 11.027000
v 13.809000 -0.888000 1.388000
v 13.809000 -0.888000 10.693000
v 14.309000 -0.888000 1.381000
v 14.309000 -0.888000 9.797000
v 14.809000 -0.888000 1.531000
v 14.809000 -0.888000 8.973000
v 15.309000 -0.888000 1.884000
v 15.309000 -0.888000 8.222000
v 15.809000 -0.888000 2.455000
v 15.809000 -0.888000 7.814000
v 16.309000 -0.888000 3.146000
v 16.309000 -0.888000 7.638000
v 16.809000 -0.888000 4.436000
v 16.809000 -0.888000 7.533000
v 17.309000 -0.888000 5.459000
v 17.309000 -0.888000 7.175000
v 12.309000 -4.522000 2.627000
v 12.309000 -1.651000 2.627000
v 12.809000 -5.009000 2.627000
v 12.809000 0.038000 2.627000
v 13.309000 -5.224000 2.627000
v 13.309000 0.395000 2.627000
v 13.809000 -5.300000 2.627000
v 13.809000 0.504000 2.627000
v 14.309000 -5.258000 2.627000
v 14.309000 0.463000 2.627000
v 14.809000 -5.163000 2.627000
v 14.809000 0.218000 2.627000
v 15.309000 -4.850000 2.627000
v 15.309000 -0.177000 2.627000
v 15.809000 -3.568000 2.627000
v 15.809000 -0.671000 2.627000
v 12.309000 -2.388000 6.627000
v 12.309000 0.207000 6.627000
v 12.809000 -4.095000 6.627000
v 12.809000 0.660000 6.627000
v 13.309000 -4.395000 6.627000
v 13.309000 0.850000 6.627000
v 13.809000 -4.525000 6.627000
v 13.809000 1.076000 6.627000
v 14.309000 -4.561000 6.627000
v 14.309000 1.353000 6.627000
v 14.809000 -4.535000 6.627000
v 14.809000 1.457000 6.627000
v 15.309000 -4.441000 6.627000
v 15.309000 1.372000 6.627000
v 15.809000 -4.275000 6.627000
v 15.809000 1.049000 6.627000
v 16.309000 -4.109000 6.627000
v 16.309000 0.285000 6.627000
v 16.809000 -3.754000 6.627000
v 16.809000 -0.134000 6.627000
v 17.309000 -2.483000 6.627000
v 17.309000 -0.473000 6.627000
v 11.809000 -2.565000 10.627000
v 11.809000 -0.768000 10.627000
v 12.309000 -2.995000 10.627000
v 12.309000 -0.347000 10.627000
v 12.809000 -3.493000 10.627000
v 12.809000 -0.250000 10.627000
v 13.309000 -3.956000 10.627000
v 13.309000 -0.379000 10.627000
v 13.809000 -4.072000 10.627000
v 13.809000 -0.825000 10.627000
v 14.309000 -4.061000 10.627000
v 14.309000 -1.258000 10.627000
v 14.809000 -3.929000 10.627000
v 14.809000 -1.671000 10.627000
v 15.309000 -3.435000 10.627000
v 15.309000 -2.319000 10.627000
v 12.197000 -4.388000 -0.373000
v 13.743000 -4.388000 -0.373000
v 11.621000 -4.388000 0.127000
v 14.431000 -4.388000 0.127000
v 11.418000 -4.388000 0.627000
v 15.046000 -4.388000 0.627000
v 11.412000 -4.388000 1.127000
v 15.320000 -4.388000 1.127000
v 11.600000 -4.388000 1.627000
v 15.339000 -4.388000 1.627000
v 11.953000 -4.388000 2.127000
v 15.453000 -4.388000 2.127000
v 12.209000 -4.388000 2.627000
v 15.621000 -4.388000 2.627000
v 12.316000 -4.388000 3.127000
v 15.641000 -4.388000 3.127000
v 12.280000 -4.388000 3.627000
v 15.636000 -4.388000 3.627000
v 12.271000 -4.388000 4.127000
v 15.637000 -4.388000 4.127000
v 12.342000 -4.388000 4.627000
v 15.655000 -4.388000 4.627000
v 12.335000 -4.388000 5.127000
v 15.739000 -4.388000 5.127000
v 12.329000 -4.388000 5.627000
v 15.734000 -4.388000 5.627000
v 12.627000 -4.388000 6.127000
v 15.691000 -4.388000 6.127000
v 13.296000 -4.388000 6.627000
v 15.447000 -4.388000 6.627000
v 13.573000 -0.388000 1.627000
v 14.096000 -0.388000 1.627000
v 12.783000 -0.388000 2.127000
v 15.026000 -0.388000 2.127000
v 12.552000 -0.388000 2.627000
v 15.521000 -0.388000 2.627000
v 12.488000 -0.388000 3.127000
v 15.923000 -0.388000 3.127000
v 12.364000 -0.388000 3.627000
v 16.190000 -0.388000 3.627000
v 12.352000 -0.388000 4.127000
v 16.405000 -0.388000 4.127000
v 12.345000 -0.388000 4.627000
v 16.812000 -0.388000 4.627000
v 12.286000 -0.388000 5.127000
v 17.038000 -0.388000 5.127000
v 12.282000 -0.388000 5.627000
v 17.111000 -0.388000 5.627000
v 12.225000 -0.388000 6.127000
v 17.241000 -0.388000 6.127000
v 12.067000 -0.388000 6.627000
v 17.218000 -0.388000 6.627000
v 11.943000 -0.388000 7.127000
v 16.829000 -0.388000 7.127000
v 11.922000 -0.388000 7.627000
v 15.700000 -0.388000 7.627000
v 11.889000 -0.388000 8.127000
v 15.189000 -0.388000 8.127000
v 11.787000 -0.388000 8.627000
v 14.922000 -0.388000 8.627000
v 11.773000 -0.388000 9.127000
v 14.398000 -0.388000 9.127000
v 11.821000 -0.388000 9.627000
v 13.933000 -0.388000 9.627000
v 11.859000 -0.388000 10.127000
v 13.690000 -0.388000 10.127000
v 12.224000 -0.388000 10.627000
v 13.326000 -0.388000 10.627000
v 11.809000 -4.388000 -0.102000
v 11.809000 -4.388000 1.917000
v 12.309000 -4.388000 -0.420000
v 12.309000 -4.388000 3.021000
v 12.309000 -4.388000 3.369000
v 12.309000 -4.388000 4.304000
v 12.809000 -4.388000 -0.506000
v 12.809000 -4.388000 6.255000
v 13.309000 -4.388000 -0.458000
v 13.309000 -4.388000 6.638000
v 13.809000 -4.388000 -0.348000
v 13.809000 -4.388000 6.891000
v 14.309000 -4.388000 -0.001000
v 14.309000 -4.388000 6.990000
v 14.809000 -4.388000 0.443000
v 14.809000 -4.388000 6.943000
v 15.309000 -4.388000 1.081000
v 15.309000 -4.388000 6.793000
v 11.809000 -0.388000 8.550000
v 11.809000 -0.388000 9.498000
v 12.309000 -0.388000 4.992000
v 12.309000 -0.388000 10.679000
v 12.809000 -0.388000 2.093000
v 12.809000 -0.388000 10.800000
v 13.309000 -0.388000 1.710000
v 13.309000 -0.388000 10.638000
v 13.809000 -0.388000 1.600000
v 13.809000 -0.388000 9.810000
v 14.309000 -0.388000 1.688000
v 14.309000 -0.388000 9.208000
v 14.809000 -0.388000 1.962000
v 14.809000 -0.388000 8.772000
v 15.309000 -0.388000 2.429000
v 15.309000 -0.388000 7.967000
v 15.809000 -0.388000 2.961000
v 15.809000 -0.388000 7.557000
v 16.309000 -0.388000 3.957000
v 16.309000 -0.388000 7.342000
v 16.809000 -0.388000 4.621000
v 16.809000 -0.388000 7.139000
v 11.809000 -3.686000 3.127000
v 11.809000 -2.237000 3.127000
v 12.309000 -4.380000 3.127000
v 12.309000 -0.735000 3.127000
v 12.809000 -4.766000 3.127000
v 12.809000 0.063000 3.127000
v 13.309000 -4.983000 3.127000
v 13.309000 0.460000 3.127000
v 13.809000 -5.233000 3.127000
v 13.809000 0.715000 3.127000
v 14.309000 -5.315000 3.127000
v 14.309000 0.811000 3.127000
v 14.809000 -5.230000 3.127000
v 14.809000 0.691000 3.127000
v 15.309000 -4.912000 3.127000
v 15.309000 0.279000 3.127000
v 15.809000 -3.505000 3.127000
v 15.809000 -0.198000 3.127000
v 16.309000 -2.042000 3.127000
v 16.309000 -0.919000 3.127000
v 12.309000 -2.093000 7.127000
v 12.309000 0.526000 7.127000
v 12.809000 -3.869000 7.127000
v 12.809000 0.870000 7.127000
v 13.309000 -4.205000 7.127000
v 13.309000 0.971000 7.127000
v 13.809000 -4.312000 7.127000
v 13.809000 1.028000 7.127000
v 14.309000 -4.350000 7.127000
v 14.309000 1.145000 7.127000
v 14.809000 -4.338000 7.127000
v 14.809000 1.242000 7.127000
v 15.309000 -4.327000 7.127000
v 15.309000 1.140000 7.127000
v 15.809000 -4.239000 7.127000
v 15.809000 0.705000 7.127000
v 16.309000 -4.123000 7.127000
v 16.309000 -0.109000 7.127000
v 16.809000 -3.773000 7.127000
v 16.809000 -0.379000 7.127000
v 17.309000 -2.141000 7.127000
v 17.309000 -0.820000 7.127000
v 12.309000 -2.312000 11.127000
v 12.309000 -1.106000 11.127000
v 12.809000 -2.563000 11.127000
v 12.809000 -0.854000 11.127000
v 13.309000 -3.193000 11.127000
v 13.309000 -1.182000 11.127000
v 13.809000 -3.489000 11.127000
v 13.809000 -1.542000 11.127000
v 14.309000 -3.513000 11.127000
v 14.309000 -1.880000 11.127000
v 14.809000 -3.208000 11.127000
v 14.809000 -2.545000 11.127000
v 12.469000 -3.888000 -0.373000
v 14.071000 -3.888000 -0.373000
v 11.734000 -3.888000 0.127000
v 14.900000 -3.888000 0.127000
v 11.513000 -3.888000 0.627000
v 15.472000 -3.888000 0.627000
v 11.506000 -3.888000 1.127000
v 15.720000 -3.888000 1.127000
v 11.695000 -3.888000 1.627000
v 15.724000 -3.888000 1.627000
v 11.887000 -3.888000 2.127000
v 15.706000 -3.888000 2.127000
v 11.965000 -3.888000 2.627000
v 15.733000 -3.888000 2.627000
v 11.934000 -3.888000 3.127000
v 15.730000 -3.888000 3.127000
v 11.790000 -3.888000 3.627000
v 15.757000 -3.888000 3.627000
v 11.786000 -3.888000 4.127000
v 15.804000 -3.888000 4.127000
v 11.818000 -3.888000 4.627000
v 15.905000 -3.888000 4.627000
v 11.844000 -3.888000 5.127000
v 16.085000 -3.888000 5.127000
v 11.985000 -3.888000 5.627000
v 16.158000 -3.888000 5.627000
v 12.194000 -3.888000 6.127000
v 16.355000 -3.888000 6.127000
v 12.602000 -3.888000 6.627000
v 16.670000 -3.888000 6.627000
v 12.827000 -3.888000 7.127000
v 16.690000 -3.888000 7.127000
v 12.835000 -3.888000 7.627000
v 16.382000 -3.888000 7.627000
v 12.805000 -3.888000 8.127000
v 15.938000 -3.888000 8.127000
v 12.816000 -3.888000 8.627000
v 15.403000 -3.888000 8.627000
v 12.877000 -3.888000 9.127000
v 15.270000 -3.888000 9.127000
v 12.847000 -3.888000 9.627000
v 15.259000 -3.888000 9.627000
v 12.859000 -3.888000 10.127000
v 15.199000 -3.888000 10.127000
v 13.188000 -3.888000 10.627000
v 14.880000 -3.888000 10.627000
v 13.222000 0.112000 2.127000
v 14.448000 0.112000 2.127000
v 12.878000 0.112000 2.627000
v 14.991000 0.112000 2.627000
v 12.855000 0.112000 3.127000
v 15.522000 0.112000 3.127000
v 12.853000 0.112000 3.627000
v 15.796000 0.112000 3.627000
v 12.845000 0.112000 4.127000
v 15.907000 0.112000 4.127000
v 12.844000 0.112000 4.627000
v 16.337000 0.112000 4.627000
v 12.853000 0.112000 5.127000
v 16.687000 0.112000 5.127000
v 12.831000 0.112000 5.627000
v 16.724000 0.112000 5.627000
v 12.638000 0.112000 6.127000
v 16.695000 0.112000 6.127000
v 12.256000 0.112000 6.627000
v 16.468000 0.112000 6.627000
v 12.045000 0.112000 7.127000
v 16.105000 0.112000 7.127000
v 12.047000 0.112000 7.627000
v 15.483000 0.112000 7.627000
v 12.208000 0.112000 8.127000
v 14.962000 0.112000 8.127000
v 12.454000 0.112000 8.627000
v 14.532000 0.112000 8.627000
v 11.809000 -3.888000 0.032000
v 11.809000 -3.888000 1.889000
v 11.809000 -3.888000 3.563000
v 11.809000 -3.888000 4.333000
v 12.309000 -3.888000 -0.321000
v 12.309000 -3.888000 6.273000
v 12.809000 -3.888000 -0.453000
v 12.809000 -3.888000 7.055000
v 12.809000 -3.888000 7.756000
v 12.809000 -3.888000 8.591000
v 13.309000 -3.888000 -0.529000
v 13.309000 -3.888000 10.711000
v 13.809000 -3.888000 -0.447000
v 13.809000 -3.888000 10.850000
v 14.309000 -3.888000 -0.295000
v 14.309000 -3.888000 10.847000
v 14.809000 -3.888000 0.050000
v 14.809000 -3.888000 10.680000
v 15.309000 -3.888000 0.442000
v 15.309000 -3.888000 8.869000
v 15.809000 -3.888000 4.172000
v 15.809000 -3.888000 8.213000
v 16.309000 -3.888000 6.046000
v 16.309000 -3.888000 7.698000
v 12.309000 0.112000 6.555000
v 12.309000 0.112000 8.366000
v 12.809000 0.112000 5.739000
v 12.809000 0.112000 8.940000
v 13.309000 0.112000 2.066000
v 13.309000 0.112000 8.935000
v 13.809000 0.112000 1.916000
v 13.809000 0.112000 8.931000
v 14.309000 0.112000 2.036000
v 14.309000 0.112000 8.790000
v 14.809000 0.112000 2.489000
v 14.809000 0.112000 8.294000
v 15.309000 0.112000 2.947000
v 15.309000 0.112000 7.807000
v 15.809000 0.112000 3.690000
v 15.809000 0.112000 7.370000
v 16.309000 0.112000 4.606000
v 16.309000 0.112000 6.893000
v 12.309000 -4.735000 -0.373000
v 12.309000 -4.041000 -0.373000
v 12.809000 -4.984000 -0.373000
v 12.809000 -3.509000 -0.373000
v 13.309000 -4.697000 -0.373000
v 13.309000 -3.118000 -0.373000
v 13.809000 -4.317000 -0.373000
v 13.809000 -2.787000 -0.373000
v 14.309000 -3.658000 -0.373000
v 14.309000 -3.047000 -0.373000
v 11.809000 -3.907000 3.627000
v 11.809000 -1.744000 3.627000
v 12.309000 -4.418000 3.627000
v 12.309000 -0.449000 3.627000
v 12.809000 -4.738000 3.627000
v 12.809000 0.069000 3.627000
v 13.309000 -4.927000 3.627000
v 13.309000 0.583000 3.627000
v 13.809000 -5.221000 3.627000
v 13.809000 0.901000 3.627000
v 14.309000 -5.320000 3.627000
v 14.309000 0.985000 3.627000
v 14.809000 -5.233000 3.627000
v 14.809000 0.882000 3.627000
v 15.309000 -4.911000 3.627000
v 15.309000 0.532000 3.627000
v 15.809000 -3.666000 3.627000
v 15.809000 0.099000 3.627000
v 16.309000 -2.301000 3.627000
v 16.309000 -0.514000 3.627000
v 12.309000 -2.453000 7.627000
v 12.309000 0.523000 7.627000
v 12.809000 -3.862000 7.627000
v 12.809000 0.868000 7.627000
v 13.309000 -4.187000 7.627000
v 13.309000 0.967000 7.627000
v 13.809000 -4.276000 7.627000
v 13.809000 0.953000 7.627000
v 14.309000 -4.315000 7.627000
v 14.309000 0.916000 7.627000
v 14.809000 -4.282000 7.627000
v 14.809000 0.788000 7.627000
v 15.309000 -4.281000 7.627000
v 15.309000 0.458000 7.627000
v 15.809000 -4.193000 7.627000
v 15.809000 -0.548000 7.627000
v 16.309000 -3.931000 7.627000
v 16.309000 -0.863000 7.627000
v 16.809000 -3.477000 7.627000
v 16.809000 -1.184000 7.627000
v 12.942000 -3.388000 -0.373000
v 14.397000 -3.388000 -0.373000
v 12.171000 -3.388000 0.127000
v 15.214000 -3.388000 0.127000
v 11.850000 -3.388000 0.627000
v 15.852000 -3.388000 0.627000
v 11.841000 -3.388000 1.127000
v 16.056000 -3.388000 1.127000
v 11.914000 -3.388000 1.627000
v 16.050000 -3.388000 1.627000
v 11.939000 -3.388000 2.127000
v 15.908000 -3.388000 2.127000
v 11.881000 -3.388000 2.627000
v 15.876000 -3.388000 2.627000
v 11.677000 -3.388000 3.127000
v 15.850000 -3.388000 3.127000
v 11.478000 -3.388000 3.627000
v 15.893000 -3.388000 3.627000
v 11.469000 -3.388000 4.127000
v 16.057000 -3.388000 4.127000
v 11.474000 -3.388000 4.627000
v 16.115000 -3.388000 4.627000
v 11.494000 -3.388000 5.127000
v 16.201000 -3.388000 5.127000
v 11.723000 -3.388000 5.627000
v 16.400000 -3.388000 5.627000
v 12.083000 -3.388000 6.127000
v 16.807000 -3.388000 6.127000
v 12.377000 -3.388000 6.627000
v 17.042000 -3.388000 6.627000
v 12.514000 -3.388000 7.127000
v 17.057000 -3.388000 7.127000
v 12.505000 -3.388000 7.627000
v 16.859000 -3.388000 7.627000
v 12.455000 -3.388000 8.127000
v 16.377000 -3.388000 8.127000
v 12.359000 -3.388000 8.627000
v 15.890000 -3.388000 8.627000
v 12.339000 -3.388000 9.127000
v 15.648000 -3.388000 9.127000
v 12.423000 -3.388000 9.627000
v 15.581000 -3.388000 9.627000
v 12.461000 -3.388000 10.127000
v 15.543000 -3.388000 10.127000
v 12.740000 -3.388000 10.627000
v 15.332000 -3.388000 10.627000
v 13.489000 -3.388000 11.127000
v 14.645000 -3.388000 11.127000
v 13.575000 0.612000 3.127000
v 14.950000 0.612000 3.127000
v 13.338000 0.612000 3.627000
v 15.230000 0.612000 3.627000
v 13.363000 0.612000 4.127000
v 15.297000 0.612000 4.127000
v 13.572000 0.612000 4.627000
v 15.562000 0.612000 4.627000
v 13.564000 0.612000 5.127000
v 16.025000 0.612000 5.127000
v 13.365000 0.612000 5.627000
v 16.223000 0.612000 5.627000
v 13.218000 0.612000 6.127000
v 16.238000 0.612000 6.127000
v 12.718000 0.612000 6.627000
v 16.105000 0.612000 6.627000
v 12.395000 0.612000 7.127000
v 15.862000 0.612000 7.127000
v 12.398000 0.612000 7.627000
v 15.150000 0.612000 7.627000
v 12.732000 0.612000 8.127000
v 14.450000 0.612000 8.127000
v 11.809000 -3.388000 2.844000
v 11.809000 -3.388000 5.737000
v 12.309000 -3.388000 0.002000
v 12.309000 -3.388000 6.482000
v 12.809000 -3.388000 -0.327000
v 12.809000 -3.388000 10.703000
v 13.309000 -3.388000 -0.442000
v 13.309000 -3.388000 11.066000
v 13.809000 -3.388000 -0.492000
v 13.809000 -3.388000 11.168000
v 14.309000 -3.388000 -0.409000
v 14.309000 -3.388000 11.183000
v 14.809000 -3.388000 -0.110000
v 14.809000 -3.388000 11.064000
v 15.309000 -3.388000 0.169000
v 15.309000 -3.388000 10.659000
v 15.809000 -3.388000 0.566000
v 15.809000 -3.388000 8.744000
v 16.309000 -3.388000 5.453000
v 16.309000 -3.388000 8.207000
v 16.809000 -3.388000 6.128000
v 16.809000 -3.388000 7.697000
v 12.809000 0.612000 6.562000
v 12.809000 0.612000 8.180000
v 13.309000 0.612000 5.884000
v 13.309000 0.612000 8.329000
v 13.809000 0.612000 2.917000
v 13.809000 0.612000 8.336000
v 14.309000 0.612000 2.850000
v 14.309000 0.612000 8.222000
v 14.809000 0.612000 3.016000
v 14.809000 0.612000 7.822000
v 15.309000 0.612000 4.168000
v 15.309000 0.612000 7.546000
v 15.809000 0.612000 4.884000
v 15.809000 0.612000 7.191000
v 11.809000 -5.023000 0.127000
v 11.809000 -3.753000 0.127000
v 12.309000 -5.455000 0.127000
v 12.309000 -3.258000 0.127000
v 12.809000 -5.559000 0.127000
v 12.809000 -2.773000 0.127000
v 13.309000 -5.440000 0.127000
v 13.309000 -2.315000 0.127000
v 13.809000 -5.024000 0.127000
v 13.809000 -2.191000 0.127000
v 14.309000 -4.549000 0.127000
v 14.309000 -2.224000 0.127000
v 14.809000 -4.014000 0.127000
v 14.809000 -2.224000 0.127000
v 15.309000 -3.273000 0.127000
v 15.309000 -2.498000 0.127000
v 11.809000 -3.911000 4.127000
v 11.809000 -1.153000 4.127000
v 12.309000 -4.426000 4.127000
v 12.309000 -0.435000 4.127000
v 12.809000 -4.784000 4.127000
v 12.809000 0.076000 4.127000
v 13.309000 -5.028000 4.127000
v 13.309000 0.559000 4.127000
v 13.809000 -5.240000 4.127000
v 13.809000 0.883000 4.127000
v 14.309000 -5.318000 4.127000
v 14.309000 0.982000 4.127000
v 14.809000 -5.228000 4.127000
v 14.809000 0.912000 4.127000
v 15.309000 -4.900000 4.127000
v 15.309000 0.599000 4.127000
v 15.809000 -3.879000 4.127000
v 15.809000 0.181000 4.127000
v 16.309000 -2.646000 4.127000
v 16.309000 -0.288000 4.127000
v 11.809000 -2.020000 8.127000
v 11.809000 -0.556000 8.127000
v 12.309000 -3.105000 8.127000
v 12.309000 0.234000 8.127000
v 12.809000 -3.892000 8.127000
v 12.809000 0.652000 8.127000
v 13.309000 -4.212000 8.127000
v 13.309000 0.769000 8.127000
v 13.809000 -4.299000 8.127000
v 13.809000 0.767000 8.127000
v 14.309000 -4.320000 8.127000
v 14.309000 0.680000 8.127000
v 14.809000 -4.240000 8.127000
v 14.809000 0.306000 8.127000
v 15.309000 -4.128000 8.127000
v 15.309000 -0.668000 8.127000
v 15.809000 -3.959000 8.127000
v 15.809000 -1.498000 8.127000
v 16.309000 -3.514000 8.127000
v 16.309000 -1.902000 8.127000
v 13.509000 -2.888000 -0.373000
v 14.156000 -2.888000 -0.373000
v 12.693000 -2.888000 0.127000
v 15.434000 -2.888000 0.127000
v 12.389000 -2.888000 0.627000
v 15.963000 -2.888000 0.627000
v 12.347000 -2.888000 1.127000
v 16.151000 -2.888000 1.127000
v 12.223000 -2.888000 1.627000
v 16.149000 -2.888000 1.627000
v 12.052000 -2.888000 2.127000
v 16.140000 -2.888000 2.127000
v 11.906000 -2.888000 2.627000
v 16.129000 -2.888000 2.627000
v 11.597000 -2.888000 3.127000
v 16.095000 -2.888000 3.127000
v 11.399000 -2.888000 3.627000
v 16.089000 -2.888000 3.627000
v 11.380000 -2.888000 4.127000
v 16.198000 -2.888000 4.127000
v 11.374000 -2.888000 4.627000
v 16.333000 -2.888000 4.627000
v 11.393000 -2.888000 5.127000
v 16.394000 -2.888000 5.127000
v 11.602000 -2.888000 5.627000
v 16.607000 -2.888000 5.627000
v 12.065000 -2.888000 6.127000
v 17.004000 -2.888000 6.127000
v 12.340000 -2.888000 6.627000
v 17.172000 -2.888000 6.627000
v 12.423000 -2.888000 7.127000
v 17.169000 -2.888000 7.127000
v 12.385000 -2.888000 7.627000
v 16.989000 -2.888000 7.627000
v 12.220000 -2.888000 8.127000
v 16.508000 -2.888000 8.127000
v 12.001000 -2.888000 8.627000
v 16.015000 -2.888000 8.627000
v 11.870000 -2.888000 9.127000
v 15.751000 -2.888000 9.127000
v 11.819000 -2.888000 9.627000
v 15.669000 -2.888000 9.627000
v 11.822000 -2.888000 10.127000
v 15.642000 -2.888000 10.127000
v 12.127000 -2.888000 10.627000
v 15.448000 -2.888000 10.627000
v 13.197000 -2.888000 11.127000
v 14.901000 -2.888000 11.127000
v 14.104000 1.112000 5.127000
v 15.570000 1.112000 5.127000
v 13.853000 1.112000 5.627000
v 15.841000 1.112000 5.627000
v 13.855000 1.112000 6.127000
v 15.824000 1.112000 6.127000
v 13.873000 1.112000 6.627000
v 15.743000 1.112000 6.627000
v 14.184000 1.112000 7.127000
v 15.367000 1.112000 7.127000
v 11.809000 -2.888000 2.818000
v 11.809000 -2.888000 5.870000
v 12.309000 -2.888000 1.342000
v 12.309000 -2.888000 6.538000
v 12.309000 -2.888000 7.918000
v 12.309000 -2.888000 10.755000
v 12.809000 -2.888000 0.019000
v 12.809000 -2.888000 10.986000
v 13.309000 -2.888000 -0.305000
v 13.309000 -2.888000 11.163000
v 13.809000 -2.888000 -0.414000
v 13.809000 -2.888000 11.256000
v 14.309000 -2.888000 -0.325000
v 14.309000 -2.888000 11.280000
v 14.809000 -2.888000 -0.093000
v 14.809000 -2.888000 11.170000
v 15.309000 -2.888000 0.067000
v 15.309000 -2.888000 10.812000
v 15.809000 -2.888000 0.420000
v 15.809000 -2.888000 8.967000
v 16.309000 -2.888000 4.511000
v 16.309000 -2.888000 8.327000
v 16.809000 -2.888000 5.871000
v 16.809000 -2.888000 7.867000
v 14.309000 1.112000 4.893000
v 14.309000 1.112000 7.198000
v 14.809000 1.112000 4.750000
v 14.809000 1.112000 7.289000
v 15.309000 1.112000 4.935000
v 15.309000 1.112000 7.163000
v 15.809000 1.112000 5.509000
v 15.809000 1.112000 6.199000
v 11.809000 -5.348000 0.627000
v 11.809000 -3.429000 0.627000
v 12.309000 -5.675000 0.627000
v 12.309000 -2.965000 0.627000
v 12.809000 -5.763000 0.627000
v 12.809000 -2.440000 0.627000
v 13.309000 -5.663000 0.627000
v 13.309000 -2.044000 0.627000
v 13.809000 -5.457000 0.627000
v 13.809000 -1.774000 0.627000
v 14.309000 -5.007000 0.627000
v 14.309000 -1.641000 0.627000
v 14.809000 -4.553000 0.627000
v 14.809000 -1.669000 0.627000
v 15.309000 -4.130000 0.627000
v 15.309000 -1.816000 0.627000
v 15.809000 -3.473000 0.627000
v 15.809000 -2.298000 0.627000
v 11.809000 -3.879000 4.627000
v 11.809000 -0.882000 4.627000
v 12.309000 -4.356000 4.627000
v 12.309000 -0.428000 4.627000
v 12.809000 -4.902000 4.627000
v 12.809000 0.076000 4.627000
v 13.309000 -5.214000 4.627000
v 13.309000 0.435000 4.627000
v 13.809000 -5.293000 4.627000
v 13.809000 0.803000 4.627000
v 14.309000 -5.250000 4.627000
v 14.309000 1.026000 4.627000
v 14.809000 -5.158000 4.627000
v 14.809000 1.051000 4.627000
v 15.309000 -4.844000 4.627000
v 15.309000 0.849000 4.627000
v 15.809000 -4.105000 4.627000
v 15.809000 0.385000 4.627000
v 16.309000 -2.929000 4.627000
v 16.309000 0.127000 4.627000
v 16.809000 -1.582000 4.627000
v 16.809000 -0.381000 4.627000
v 11.809000 -2.477000 8.627000
v 11.809000 -0.367000 8.627000
v 12.309000 -3.339000 8.627000
v 12.309000 0.029000 8.627000
v 12.809000 -3.881000 8.627000
v 12.809000 0.255000 8.627000
v 13.309000 -4.208000 8.627000
v 13.309000 0.314000 8.627000
v 13.809000 -4.297000 8.627000
v 13.809000 0.350000 8.627000
v 14.309000 -4.284000 8.627000
v 14.309000 0.243000 8.627000
v 14.809000 -4.191000 8.627000
v 14.809000 -0.178000 8.627000
v 15.309000 -3.951000 8.627000
v 15.309000 -1.443000 8.627000
v 15.809000 -3.517000 8.627000
v 15.809000 -2.227000 8.627000
v 13.183000 -2.388000 0.127000
v 15.210000 -2.388000 0.127000
v 12.857000 -2.388000 0.627000
v 15.855000 -2.388000 0.627000
v 12.724000 -2.388000 1.127000
v 16.059000 -2.388000 1.127000
v 12.535000 -2.388000 1.627000
v 16.152000 -2.388000 1.627000
v 12.238000 -2.388000 2.127000
v 16.216000 -2.388000 2.127000
v 12.026000 -2.388000 2.627000
v 16.213000 -2.388000 2.627000
v 11.727000 -2.388000 3.127000
v 16.227000 -2.388000 3.127000
v 11.508000 -2.388000 3.627000
v 16.265000 -2.388000 3.627000
v 11.405000 -2.388000 4.127000
v 16.438000 -2.388000 4.127000
v 11.397000 -2.388000 4.627000
v 16.621000 -2.388000 4.627000
v 11.446000 -2.388000 5.127000
v 16.745000 -2.388000 5.127000
v 11.649000 -2.388000 5.627000
v 17.060000 -2.388000 5.627000
v 12.055000 -2.388000 6.127000
v 17.329000 -2.388000 6.127000
v 12.309000 -2.388000 6.627000
v 17.353000 -2.388000 6.627000
v 12.366000 -2.388000 7.127000
v 17.252000 -2.388000 7.127000
v 12.291000 -2.388000 7.627000
v 17.044000 -2.388000 7.627000
v 12.051000 -2.388000 8.127000
v 16.508000 -2.388000 8.127000
v 11.761000 -2.388000 8.627000
v 15.883000 -2.388000 8.627000
v 11.549000 -2.388000 9.127000
v 15.640000 -2.388000 9.127000
v 11.501000 -2.388000 9.627000
v 15.572000 -2.388000 9.627000
v 11.501000 -2.388000 10.127000
v 15.552000 -2.388000 10.127000
v 11.712000 -2.388000 10.627000
v 15.343000 -2.388000 10.627000
v 12.383000 -2.388000 11.127000
v 14.675000 -2.388000 11.127000
v 11.809000 -2.388000 3.017000
v 11.809000 -2.388000 5.828000
v 11.809000 -2.388000 8.549000
v 11.809000 -2.388000 10.749000
v 12.309000 -2.388000 2.026000
v 12.309000 -2.388000 6.626000
v 12.309000 -2.388000 7.567000
v 12.309000 -2.388000 11.099000
v 12.809000 -2.388000 0.801000
v 12.809000 -2.388000 11.192000
v 13.309000 -2.388000 0.037000
v 13.309000 -2.388000 11.232000
v 13.809000 -2.388000 -0.108000
v 13.809000 -2.388000 11.309000
v 14.309000 -2.388000 -0.016000
v 14.309000 -2.388000 11.238000
v 14.809000 -2.388000 0.051000
v 14.809000 -2.388000 11.074000
v 15.309000 -2.388000 0.166000
v 15.309000 -2.388000 10.674000
v 15.809000 -2.388000 0.562000
v 15.809000 -2.388000 8.732000
v 16.309000 -2.388000 3.819000
v 16.309000 -2.388000 8.249000
v 16.809000 -2.388000 5.270000
v 16.809000 -2.388000 7.912000
v 17.309000 -2.388000 6.053000
v 17.309000 -2.388000 6.899000
v 11.809000 -5.356000 1.127000
v 11.809000 -3.420000 1.127000
v 12.309000 -5.681000 1.127000
v 12.309000 -2.930000 1.127000
v 12.809000 -5.769000 1.127000
v 12.809000 -2.225000 1.127000
v 13.309000 -5.773000 1.127000
v 13.309000 -1.545000 1.127000
v 13.809000 -5.666000 1.127000
v 13.809000 -1.220000 1.127000
v 14.309000 -5.307000 1.127000
v 14.309000 -1.131000 1.127000
v 14.809000 -4.795000 1.127000
v 14.809000 -1.180000 1.127000
v 15.309000 -4.399000 1.127000
v 15.309000 -1.307000 1.127000
v 15.809000 -3.796000 1.127000
v 15.809000 -1.792000 1.127000
v 11.809000 -3.855000 5.127000
v 11.809000 -0.889000 5.127000
v 12.309000 -4.362000 5.127000
v 12.309000 -0.366000 5.127000
v 12.809000 -4.922000 5.127000
v 12.809000 0.070000 5.127000
v 13.309000 -5.229000 5.127000
v 13.309000 0.435000 5.127000
v 13.809000 -5.306000 5.127000
v 13.809000 0.858000 5.127000
v 14.309000 -5.246000 5.127000
v 14.309000 1.227000 5.127000
v 14.809000 -5.154000 5.127000
v 14.809000 1.352000 5.127000
v 15.309000 -4.823000 5.127000
v 15.309000 1.261000 5.127000
v 15.809000 -4.320000 5.127000
v 15.809000 0.874000 5.127000
v 16.309000 -3.050000 5.127000
v 16.309000 0.375000 5.127000
v 16.809000 -2.294000 5.127000
v 16.809000 -0.013000 5.127000
v 11.809000 -2.823000 9.127000
v 11.809000 -0.353000 9.127000
v 12.309000 -3.361000 9.127000
v 12.309000 -0.048000 9.127000
v 12.809000 -3.823000 9.127000
v 12.809000 0.059000 9.127000
v 13.309000 -4.150000 9.127000
v 13.309000 0.032000 9.127000
v 13.809000 -4.243000 9.127000
v 13.809000 -0.031000 9.127000
v 14.309000 -4.294000 9.127000
v 14.309000 -0.294000 9.127000
v 14.809000 -4.192000 9.127000
v 14.809000 -1.110000 9.127000
v 15.309000 -3.853000 9.127000
v 15.309000 -1.781000 9.127000
f 336 277 71
f 502 441 336
f 336 441 277
f 670 603 502
f 502 603 441
f 670 72 603
f 182 135 73
f 279 336 71
f 279 71 135
f 215 279 135
f 182 215 135
f 336 279 443
f 336 443 502
f 502 443 605
f 502 605 670
f 769 72 670
f 605 769 670
f 771 769 605
f 771 931 769
f 933 931 771
f 74 931 1121
f 931 1079 1121
f 931 933 1079
f 1079 216 1121
f 182 73 137
f 73 217 137
f 73 75 217
f 215 182 137
f 1121 1077 74
f 1077 1121 216
f 7 1077 216
f 5 1077 7
f 7 141 5
f 143 141 7
f 76 141 359
f 141 297 359
f 141 143 297
f 359 297 523
f 523 297 465
f 465 218 523
f 219 75 77
f 219 217 75
f 359 295 76
f 525 78 295
f 359 525 295
f 523 525 359
f 641 697 218
f 697 523 218
f 697 525 523
f 641 220 697
f 221 77 79
f 221 219 77
f 525 463 78
f 699 80 463
f 525 699 463
f 697 699 525
f 697 220 699
f 699 220 222
f 79 136 221
f 221 136 138
f 223 138 136
f 223 136 81
f 464 529 82
f 529 464 80
f 699 529 80
f 701 529 699
f 699 222 701
f 701 222 224
f 349 225 278
f 225 81 278
f 225 223 81
f 83 349 278
f 531 84 82
f 531 82 529
f 226 531 642
f 531 701 642
f 531 529 701
f 701 224 642
f 349 280 225
f 227 280 349
f 83 227 349
f 85 227 83
f 296 369 86
f 531 466 84
f 84 466 296
f 466 228 296
f 228 369 296
f 531 226 466
f 85 442 227
f 227 442 444
f 604 444 442
f 604 606 444
f 229 606 604
f 229 604 87
f 142 207 88
f 369 298 86
f 86 298 142
f 298 230 142
f 230 207 142
f 369 228 298
f 87 770 229
f 229 770 772
f 932 772 770
f 932 934 772
f 1078 934 932
f 1078 1080 934
f 6 1080 1078
f 6 8 1080
f 207 144 88
f 144 6 88
f 144 8 6
f 207 230 144
f 832 785 89
f 982 947 832
f 832 947 785
f 1118 1093 982
f 982 1093 947
f 46 21 1118
f 1118 21 1093
f 190 157 46
f 46 157 21
f 190 90 157
f 231 621 91
f 91 621 619
f 787 832 89
f 619 787 89
f 621 787 619
f 832 787 949
f 832 949 982
f 982 949 1095
f 982 1095 1118
f 1118 1095 23
f 1118 23 46
f 46 23 159
f 46 159 190
f 311 90 190
f 159 311 190
f 313 311 159
f 313 479 311
f 481 479 313
f 481 232 479
f 479 232 92
f 233 459 93
f 93 459 457
f 91 457 459
f 91 459 231
f 232 657 695
f 94 232 695
f 92 232 94
f 657 234 695
f 344 293 95
f 93 293 344
f 235 93 344
f 233 93 235
f 695 655 94
f 234 821 855
f 234 855 96
f 695 234 96
f 655 695 96
f 821 236 855
f 97 346 95
f 95 346 344
f 235 344 346
f 235 346 237
f 855 819 96
f 855 236 819
f 236 98 819
f 236 238 98
f 99 348 97
f 97 348 346
f 237 346 348
f 237 348 239
f 973 98 238
f 973 238 975
f 975 240 973
f 973 240 100
f 101 350 99
f 99 350 348
f 239 348 350
f 239 350 241
f 100 242 102
f 240 242 100
f 294 350 101
f 241 350 294
f 103 241 294
f 243 241 103
f 102 244 104
f 242 244 102
f 103 458 243
f 243 458 460
f 245 460 458
f 245 458 105
f 104 246 106
f 244 246 104
f 691 247 620
f 247 105 620
f 247 245 105
f 107 691 620
f 822 248 108
f 822 108 820
f 974 822 820
f 974 976 822
f 974 106 976
f 976 106 246
f 691 622 247
f 107 786 691
f 786 622 691
f 786 788 622
f 948 1003 249
f 788 948 249
f 786 948 788
f 109 1003 948
f 658 250 110
f 658 110 656
f 656 108 658
f 658 108 248
f 1003 950 249
f 1143 251 1094
f 1094 251 109
f 251 950 109
f 950 1003 109
f 111 1143 1094
f 482 252 112
f 482 112 480
f 480 110 482
f 482 110 250
f 1143 1096 251
f 111 22 1143
f 22 1096 1143
f 22 24 1096
f 158 24 22
f 158 160 24
f 312 160 158
f 312 314 160
f 312 112 314
f 314 112 252
f 253 1111 113
f 113 1111 1109
f 1111 37 1109
f 39 37 1111
f 39 173 37
f 175 173 39
f 175 327 173
f 329 327 175
f 329 254 327
f 327 254 114
f 255 965 115
f 115 965 963
f 113 963 965
f 113 965 253
f 495 114 254
f 495 254 497
f 497 256 495
f 495 256 116
f 257 803 117
f 117 803 801
f 115 801 803
f 115 803 255
f 116 258 118
f 256 258 116
f 259 637 119
f 119 637 635
f 117 635 637
f 117 637 257
f 118 260 120
f 258 260 118
f 261 119 121
f 261 259 119
f 498 262 528
f 528 122 498
f 122 260 498
f 122 120 260
f 263 121 123
f 263 261 121
f 330 264 366
f 528 262 330
f 528 330 366
f 496 528 366
f 124 496 366
f 122 528 496
f 265 123 125
f 265 263 123
f 176 266 204
f 366 264 176
f 366 176 204
f 328 366 204
f 126 328 204
f 124 366 328
f 125 636 265
f 265 636 638
f 267 638 636
f 267 636 127
f 40 268 128
f 40 128 38
f 266 40 204
f 40 174 204
f 40 38 174
f 126 204 174
f 127 802 267
f 267 802 804
f 964 804 802
f 964 966 804
f 1110 966 964
f 1110 1112 966
f 1110 128 1112
f 1112 128 268
f 338 279 215
f 379 445 338
f 445 279 338
f 445 443 279
f 445 605 443
f 607 605 445
f 607 771 605
f 773 771 607
f 773 933 771
f 935 933 773
f 935 1079 933
f 1081 1079 935
f 216 1079 49
f 1079 9 49
f 1079 1081 9
f 9 380 49
f 184 137 217
f 281 338 215
f 281 215 137
f 381 281 137
f 184 381 137
f 379 338 281
f 49 7 216
f 7 49 380
f 145 7 380
f 143 7 145
f 145 297 143
f 299 297 145
f 299 465 297
f 467 465 299
f 467 382 465
f 465 382 218
f 219 186 217
f 217 186 184
f 381 184 186
f 381 186 383
f 641 218 382
f 641 382 643
f 643 384 641
f 641 384 220
f 221 188 219
f 219 188 186
f 383 186 188
f 383 188 385
f 220 386 222
f 384 386 220
f 138 188 221
f 385 188 138
f 223 385 138
f 387 385 223
f 222 388 224
f 386 388 222
f 389 223 225
f 389 387 223
f 642 703 226
f 642 224 703
f 224 390 703
f 224 388 390
f 225 280 389
f 389 280 282
f 391 282 280
f 391 280 227
f 466 533 228
f 703 644 226
f 226 644 466
f 644 392 466
f 392 533 466
f 703 390 644
f 227 444 391
f 391 444 446
f 606 446 444
f 606 608 446
f 393 608 606
f 393 606 229
f 298 371 230
f 533 468 228
f 228 468 298
f 468 394 298
f 394 371 298
f 533 392 468
f 229 772 393
f 393 772 774
f 934 774 772
f 934 936 774
f 1080 936 934
f 1080 1082 936
f 8 1082 1080
f 8 10 1082
f 144 10 8
f 144 146 10
f 371 300 230
f 300 144 230
f 300 146 144
f 371 394 300
f 674 621 231
f 834 787 674
f 674 787 621
f 984 949 834
f 834 949 787
f 1122 1095 984
f 984 1095 949
f 395 25 1122
f 25 1095 1122
f 25 23 1095
f 25 159 23
f 161 159 25
f 161 313 159
f 315 313 161
f 315 481 313
f 483 481 315
f 232 481 693
f 481 659 693
f 481 483 659
f 659 396 693
f 508 459 233
f 623 674 231
f 623 231 459
f 397 623 459
f 508 397 459
f 674 623 789
f 674 789 834
f 834 789 951
f 834 951 984
f 984 951 1097
f 984 1097 1122
f 395 1122 1097
f 693 657 232
f 396 823 853
f 396 853 234
f 693 396 234
f 657 693 234
f 823 398 853
f 508 233 461
f 233 399 461
f 233 235 399
f 397 508 461
f 853 821 234
f 853 398 821
f 398 236 821
f 398 400 236
f 401 235 237
f 401 399 235
f 236 402 238
f 400 402 236
f 403 237 239
f 403 401 237
f 975 238 402
f 975 402 977
f 977 404 975
f 975 404 240
f 405 239 241
f 405 403 239
f 240 406 242
f 404 406 240
f 407 241 243
f 407 405 241
f 242 408 244
f 406 408 242
f 243 460 407
f 407 460 462
f 409 462 460
f 409 460 245
f 978 410 1012
f 1012 246 978
f 246 408 978
f 246 244 408
f 411 245 247
f 411 409 245
f 824 412 248
f 824 248 822
f 410 824 1012
f 824 976 1012
f 824 822 976
f 246 1012 976
f 247 622 411
f 411 622 624
f 788 851 413
f 624 788 413
f 622 788 624
f 249 851 788
f 660 414 250
f 660 250 658
f 658 248 660
f 660 248 412
f 851 790 413
f 249 950 851
f 950 790 851
f 950 952 790
f 415 952 950
f 415 950 251
f 484 416 252
f 484 252 482
f 482 250 484
f 484 250 414
f 251 1096 415
f 415 1096 1098
f 24 1098 1096
f 24 26 1098
f 160 26 24
f 160 162 26
f 314 162 160
f 314 316 162
f 314 252 316
f 316 252 416
f 417 1113 253
f 253 1113 1111
f 1113 39 1111
f 41 39 1113
f 41 175 39
f 177 175 41
f 177 329 175
f 331 329 177
f 331 418 329
f 329 418 254
f 419 967 255
f 255 967 965
f 253 965 967
f 253 967 417
f 497 254 418
f 497 418 499
f 499 420 497
f 497 420 256
f 421 805 257
f 257 805 803
f 255 803 805
f 255 805 419
f 256 422 258
f 420 422 256
f 423 639 259
f 259 639 637
f 257 637 639
f 257 639 421
f 258 424 260
f 422 424 258
f 425 259 261
f 425 423 259
f 500 426 262
f 500 262 498
f 498 260 500
f 500 260 424
f 427 261 263
f 427 425 261
f 332 428 264
f 332 264 330
f 330 262 332
f 332 262 426
f 429 263 265
f 429 427 263
f 178 430 266
f 178 266 176
f 176 264 178
f 178 264 428
f 265 638 429
f 429 638 640
f 431 640 638
f 431 638 267
f 42 432 268
f 42 268 40
f 40 266 42
f 42 266 430
f 267 804 431
f 431 804 806
f 966 806 804
f 966 968 806
f 1112 968 966
f 1112 1114 968
f 1112 268 1114
f 1114 268 432
f 541 775 831
f 831 775 981
f 981 775 937
f 981 937 1117
f 1117 937 1083
f 1083 542 1117
f 504 445 379
f 543 609 504
f 609 445 504
f 609 607 445
f 609 541 831
f 773 609 831
f 607 609 773
f 981 935 773
f 981 773 831
f 1117 1081 935
f 1117 935 981
f 1081 1117 542
f 11 1081 542
f 9 1081 11
f 380 9 193
f 9 147 193
f 9 11 147
f 193 147 357
f 357 147 301
f 301 544 357
f 340 281 381
f 447 504 379
f 447 379 281
f 545 447 281
f 340 545 281
f 543 504 447
f 193 145 380
f 357 299 145
f 357 145 193
f 299 357 544
f 469 299 544
f 467 299 469
f 469 546 467
f 467 546 382
f 340 381 283
f 381 547 283
f 381 383 547
f 545 340 283
f 643 382 546
f 643 546 645
f 645 548 643
f 643 548 384
f 549 383 385
f 549 547 383
f 548 809 857
f 386 548 857
f 384 548 386
f 809 550 857
f 551 385 387
f 551 549 385
f 859 388 386
f 859 386 857
f 857 550 859
f 859 550 552
f 553 387 389
f 553 551 387
f 861 390 388
f 861 388 859
f 859 552 861
f 861 552 554
f 351 555 282
f 555 389 282
f 555 553 389
f 391 351 282
f 644 705 392
f 861 810 390
f 390 810 644
f 810 556 644
f 556 705 644
f 861 554 810
f 351 284 555
f 391 446 351
f 446 284 351
f 446 448 284
f 608 448 446
f 608 610 448
f 557 610 608
f 557 608 393
f 468 535 394
f 705 646 392
f 392 646 468
f 646 558 468
f 558 535 468
f 705 556 646
f 393 774 557
f 557 774 776
f 936 776 774
f 936 938 776
f 1082 938 936
f 1082 1084 938
f 10 65 559
f 1084 10 559
f 1082 10 1084
f 146 209 65
f 146 65 10
f 302 560 209
f 146 302 209
f 300 302 146
f 535 470 394
f 470 300 394
f 470 302 300
f 535 558 470
f 65 12 559
f 12 65 148
f 148 65 209
f 209 560 148
f 561 27 395
f 395 27 25
f 27 161 25
f 163 161 27
f 163 315 161
f 317 315 163
f 317 483 315
f 485 483 317
f 485 659 483
f 661 659 485
f 661 562 659
f 659 562 396
f 676 623 397
f 563 791 676
f 791 623 676
f 791 789 623
f 791 951 789
f 953 951 791
f 953 1097 951
f 1099 1097 953
f 395 1097 1099
f 395 1099 561
f 823 396 562
f 823 562 825
f 825 564 823
f 823 564 398
f 510 461 399
f 625 676 397
f 625 397 461
f 565 625 461
f 510 565 461
f 563 676 625
f 398 566 400
f 564 566 398
f 401 512 399
f 399 512 510
f 565 510 512
f 565 512 567
f 400 568 402
f 566 568 400
f 403 514 401
f 401 514 512
f 567 512 514
f 567 514 569
f 977 402 568
f 977 568 979
f 979 570 977
f 977 570 404
f 405 516 403
f 403 516 514
f 569 514 516
f 569 516 571
f 404 572 406
f 570 572 404
f 407 518 405
f 405 518 516
f 571 516 518
f 571 518 573
f 406 574 408
f 572 574 406
f 462 518 407
f 573 518 462
f 409 573 462
f 575 573 409
f 980 576 410
f 980 410 978
f 978 408 980
f 980 408 574
f 577 409 411
f 577 575 409
f 662 578 710
f 662 710 412
f 824 662 412
f 826 662 824
f 824 410 826
f 826 410 576
f 411 624 577
f 577 624 626
f 579 626 624
f 579 624 413
f 414 660 710
f 578 414 710
f 580 414 578
f 412 710 660
f 413 790 579
f 579 790 792
f 952 792 790
f 952 954 792
f 952 415 1144
f 1100 952 1144
f 954 952 1100
f 581 1100 1144
f 486 582 416
f 486 416 484
f 484 414 486
f 486 414 580
f 1098 1144 415
f 1144 1098 581
f 1098 28 581
f 1098 26 28
f 162 28 26
f 162 164 28
f 316 164 162
f 316 318 164
f 316 416 318
f 318 416 582
f 1120 1113 417
f 48 41 1120
f 1120 41 1113
f 192 177 48
f 48 177 41
f 356 331 192
f 192 331 177
f 356 418 331
f 986 967 419
f 967 986 417
f 986 1120 417
f 986 1124 1120
f 1124 583 43
f 48 1124 43
f 1120 1124 48
f 48 43 179
f 48 179 192
f 192 179 584
f 358 192 584
f 356 192 358
f 418 356 499
f 356 522 499
f 356 358 522
f 522 420 499
f 836 805 421
f 805 836 419
f 836 986 419
f 836 988 986
f 988 585 1115
f 1124 988 1115
f 986 988 1124
f 583 1124 1115
f 333 358 584
f 358 333 586
f 524 358 586
f 522 358 524
f 420 522 422
f 422 522 524
f 680 639 423
f 639 680 421
f 680 836 421
f 680 838 836
f 838 587 969
f 988 838 969
f 836 838 988
f 585 988 969
f 334 588 362
f 524 586 334
f 362 524 334
f 526 524 362
f 422 524 424
f 424 524 526
f 425 682 423
f 423 682 680
f 682 589 807
f 838 682 807
f 680 682 838
f 587 838 807
f 180 590 200
f 362 588 180
f 200 362 180
f 364 362 200
f 500 526 426
f 526 364 426
f 526 362 364
f 424 526 500
f 427 684 425
f 425 684 682
f 589 682 684
f 589 684 591
f 592 202 200
f 592 200 590
f 332 364 428
f 364 202 428
f 364 200 202
f 426 364 332
f 429 686 427
f 427 686 684
f 844 808 591
f 684 844 591
f 686 844 684
f 593 808 844
f 1116 594 1134
f 1116 1134 60
f 1116 60 44
f 202 592 44
f 202 44 60
f 178 202 60
f 430 178 60
f 428 202 178
f 640 686 429
f 431 846 640
f 846 686 640
f 846 844 686
f 998 970 593
f 844 998 593
f 846 998 844
f 1134 594 970
f 998 1134 970
f 1136 1134 998
f 42 60 432
f 60 1136 432
f 60 1134 1136
f 430 60 42
f 806 846 431
f 968 998 806
f 806 998 846
f 1114 1136 968
f 968 1136 998
f 432 1136 1114
f 711 433 503
f 433 712 503
f 713 269 339
f 711 503 269
f 503 339 269
f 503 507 339
f 595 675 712
f 675 503 712
f 675 507 503
f 595 714 675
f 339 270 713
f 270 339 715
f 339 509 715
f 339 507 509
f 507 679 509
f 507 675 679
f 761 837 714
f 837 675 714
f 837 679 675
f 761 716 837
f 509 434 715
f 434 509 717
f 509 681 717
f 509 679 681
f 679 839 681
f 679 837 839
f 923 991 716
f 991 837 716
f 991 839 837
f 923 718 991
f 681 596 717
f 596 681 719
f 681 841 719
f 681 839 841
f 720 841 924
f 841 991 924
f 841 839 991
f 991 718 924
f 841 762 719
f 841 720 762
f 721 611 671
f 671 611 541
f 611 775 541
f 611 777 775
f 777 937 775
f 939 937 777
f 939 1083 937
f 1085 1083 939
f 542 1083 45
f 1083 13 45
f 1083 1085 13
f 13 722 45
f 723 449 505
f 721 671 449
f 449 671 505
f 671 609 505
f 609 543 505
f 671 541 609
f 45 11 542
f 11 45 722
f 149 11 722
f 147 11 149
f 149 301 147
f 303 301 149
f 303 724 301
f 301 724 544
f 447 545 505
f 545 723 505
f 545 725 723
f 505 543 447
f 469 544 724
f 469 724 471
f 471 726 469
f 469 726 546
f 727 285 547
f 547 285 283
f 545 283 285
f 545 285 725
f 645 546 726
f 645 726 647
f 647 728 645
f 645 728 548
f 729 547 549
f 729 727 547
f 809 548 728
f 809 728 811
f 811 730 809
f 809 730 550
f 731 549 551
f 731 729 549
f 550 732 552
f 730 732 550
f 733 551 553
f 733 731 551
f 552 734 554
f 732 734 552
f 735 553 555
f 735 733 553
f 812 736 556
f 812 556 810
f 810 554 812
f 812 554 734
f 555 284 735
f 735 284 286
f 448 286 284
f 448 450 286
f 610 450 448
f 610 612 450
f 737 612 610
f 737 610 557
f 648 738 558
f 648 558 646
f 646 556 648
f 648 556 736
f 557 776 737
f 737 776 778
f 938 778 776
f 938 940 778
f 1084 940 938
f 1084 1086 940
f 739 1086 1084
f 739 1084 559
f 302 373 560
f 472 740 373
f 302 472 373
f 470 472 302
f 470 558 472
f 472 558 738
f 559 12 739
f 739 12 14
f 148 14 12
f 148 150 14
f 373 304 560
f 304 148 560
f 304 150 148
f 373 740 304
f 741 1101 1123
f 1123 1101 561
f 1101 27 561
f 1101 29 27
f 29 163 27
f 165 163 29
f 165 317 163
f 319 317 165
f 319 485 317
f 487 485 319
f 487 661 485
f 663 661 487
f 663 742 661
f 661 742 562
f 743 793 563
f 563 793 791
f 793 953 791
f 955 953 793
f 955 741 1123
f 1099 955 1123
f 953 955 1099
f 1123 561 1099
f 825 562 742
f 825 742 827
f 827 744 825
f 825 744 564
f 745 627 565
f 565 627 625
f 563 625 627
f 563 627 743
f 564 746 566
f 744 746 564
f 747 565 567
f 747 745 565
f 566 748 568
f 746 748 566
f 749 567 569
f 749 747 567
f 750 1006 979
f 568 750 979
f 748 750 568
f 1006 570 979
f 751 569 571
f 751 749 569
f 752 1008 1006
f 752 1006 750
f 570 1006 572
f 572 1006 1008
f 753 571 573
f 753 751 571
f 828 754 864
f 1008 752 828
f 864 1008 828
f 1010 1008 864
f 572 1008 574
f 574 1008 1010
f 755 573 575
f 755 753 573
f 488 756 536
f 488 536 708
f 488 708 664
f 864 754 664
f 708 864 664
f 866 864 708
f 980 1010 576
f 1010 866 576
f 1010 864 866
f 574 1010 980
f 757 575 577
f 757 755 575
f 758 538 536
f 758 536 756
f 662 708 578
f 708 538 578
f 708 536 538
f 826 866 662
f 662 866 708
f 576 866 826
f 577 626 757
f 757 626 628
f 759 628 626
f 759 626 579
f 320 760 376
f 538 758 320
f 376 538 320
f 540 538 376
f 578 538 580
f 580 538 540
f 579 792 759
f 759 792 794
f 954 794 792
f 954 956 794
f 1100 956 954
f 1100 1102 956
f 1100 581 70
f 30 1100 70
f 1102 1100 30
f 30 70 214
f 30 214 166
f 376 760 166
f 214 376 166
f 378 376 214
f 486 540 582
f 540 378 582
f 540 376 378
f 580 540 486
f 28 70 581
f 164 214 28
f 28 214 70
f 318 378 164
f 164 378 214
f 582 378 318
f 50 43 583
f 194 179 50
f 50 179 43
f 194 584 179
f 1126 1115 585
f 1115 1126 583
f 1126 50 583
f 1126 52 50
f 196 50 52
f 194 50 196
f 584 194 333
f 194 360 333
f 194 196 360
f 360 586 333
f 990 969 587
f 969 990 585
f 990 1126 585
f 990 1128 1126
f 54 1126 1128
f 52 1126 54
f 198 52 54
f 196 52 198
f 334 360 588
f 360 198 588
f 360 196 198
f 586 360 334
f 840 807 589
f 807 840 587
f 840 990 587
f 840 992 990
f 1130 990 992
f 1128 990 1130
f 56 1128 1130
f 54 1128 56
f 180 198 590
f 198 56 590
f 198 54 56
f 588 198 180
f 591 842 589
f 589 842 840
f 994 840 842
f 992 840 994
f 1132 992 994
f 1130 992 1132
f 58 1130 1132
f 56 1130 58
f 590 56 592
f 592 56 58
f 808 842 591
f 593 996 808
f 996 842 808
f 996 994 842
f 1116 1132 594
f 1132 996 594
f 1132 994 996
f 44 58 1116
f 1116 58 1132
f 592 58 44
f 970 996 593
f 594 996 970
f 867 271 335
f 335 271 501
f 501 271 435
f 501 435 669
f 669 435 597
f 597 868 669
f 869 129 181
f 867 335 129
f 335 181 129
f 335 337 181
f 501 433 711
f 337 501 711
f 335 501 337
f 673 712 433
f 501 673 433
f 669 673 501
f 763 833 868
f 833 669 868
f 833 673 669
f 763 870 833
f 183 871 181
f 181 871 869
f 337 269 713
f 183 337 713
f 181 337 183
f 337 711 269
f 673 595 712
f 835 714 595
f 673 835 595
f 833 835 673
f 925 987 870
f 987 833 870
f 987 835 833
f 925 872 987
f 185 873 183
f 183 873 871
f 183 713 270
f 343 183 270
f 185 183 343
f 715 343 270
f 835 761 714
f 989 716 761
f 835 989 761
f 987 989 835
f 1071 1127 872
f 1127 987 872
f 1127 989 987
f 1071 874 1127
f 185 130 873
f 130 185 875
f 185 345 875
f 185 343 345
f 343 715 434
f 511 343 434
f 345 343 511
f 717 511 434
f 989 923 716
f 1129 718 923
f 989 1129 923
f 1127 1129 989
f 1127 874 1129
f 1129 874 876
f 345 272 875
f 272 345 877
f 345 513 877
f 345 511 513
f 511 717 596
f 683 511 596
f 513 511 683
f 719 683 596
f 924 993 720
f 993 924 718
f 1129 993 718
f 1131 993 1129
f 1129 876 1131
f 1131 876 878
f 513 436 877
f 436 513 879
f 513 685 879
f 513 683 685
f 683 719 762
f 843 683 762
f 685 683 843
f 843 762 720
f 993 843 720
f 995 843 993
f 993 1133 995
f 993 1131 1133
f 1131 878 1133
f 1133 878 880
f 685 598 879
f 598 685 764
f 764 685 843
f 764 843 881
f 843 997 881
f 843 995 997
f 882 997 1072
f 997 1133 1072
f 997 995 1133
f 1133 880 1072
f 997 926 881
f 997 882 926
f 883 613 721
f 721 613 611
f 613 777 611
f 779 777 613
f 779 939 777
f 941 939 779
f 941 1085 939
f 1087 1085 941
f 1087 13 1085
f 15 13 1087
f 722 13 189
f 13 151 189
f 13 15 151
f 151 884 189
f 885 451 723
f 723 451 449
f 721 449 451
f 721 451 883
f 189 149 722
f 149 189 884
f 305 149 884
f 303 149 305
f 305 886 303
f 303 886 724
f 887 723 725
f 887 885 723
f 471 724 886
f 471 886 473
f 473 888 471
f 471 888 726
f 889 287 727
f 727 287 285
f 725 285 287
f 725 287 887
f 647 726 888
f 647 888 649
f 649 890 647
f 647 890 728
f 891 727 729
f 891 889 727
f 811 728 890
f 811 890 813
f 813 892 811
f 811 892 730
f 893 729 731
f 893 891 729
f 730 894 732
f 892 894 730
f 895 731 733
f 895 893 731
f 732 896 734
f 894 896 732
f 897 733 735
f 897 895 733
f 814 898 736
f 814 736 812
f 812 734 814
f 814 734 896
f 735 286 897
f 897 286 288
f 450 288 286
f 450 452 288
f 612 452 450
f 612 614 452
f 899 614 612
f 899 612 737
f 648 707 738
f 648 736 707
f 736 900 707
f 736 898 900
f 737 778 899
f 899 778 780
f 940 780 778
f 940 942 780
f 1086 1139 901
f 942 1086 901
f 940 1086 942
f 739 1139 1086
f 472 537 740
f 707 650 738
f 738 650 472
f 650 902 472
f 902 537 472
f 707 900 650
f 1139 1088 901
f 739 14 1139
f 14 1088 1139
f 14 16 1088
f 150 16 14
f 150 152 16
f 304 152 150
f 304 306 152
f 537 474 740
f 474 304 740
f 474 306 304
f 537 902 474
f 903 31 47
f 47 31 191
f 191 31 167
f 191 167 355
f 355 167 321
f 321 904 355
f 905 957 985
f 985 957 741
f 957 1101 741
f 957 1103 1101
f 1103 903 47
f 29 1103 47
f 1101 1103 29
f 191 165 29
f 191 29 47
f 355 319 165
f 355 165 191
f 319 355 904
f 489 319 904
f 487 319 489
f 489 663 487
f 665 663 489
f 665 906 663
f 663 906 742
f 907 629 677
f 677 629 743
f 629 793 743
f 629 795 793
f 795 905 985
f 955 795 985
f 793 795 955
f 985 741 955
f 827 742 906
f 827 906 829
f 829 908 827
f 827 908 744
f 627 745 677
f 745 907 677
f 745 909 907
f 677 743 627
f 744 910 746
f 908 910 744
f 911 745 747
f 911 909 745
f 746 912 748
f 910 912 746
f 913 747 749
f 913 911 747
f 748 914 750
f 912 914 748
f 915 749 751
f 915 913 749
f 830 916 862
f 862 752 830
f 752 914 830
f 752 750 914
f 917 751 753
f 917 915 751
f 490 918 534
f 490 534 706
f 490 706 666
f 862 916 666
f 862 666 706
f 828 862 706
f 754 828 706
f 752 862 828
f 919 753 755
f 919 917 753
f 168 920 208
f 168 208 372
f 168 372 322
f 534 918 322
f 534 322 372
f 488 534 372
f 756 488 372
f 664 706 488
f 488 706 534
f 754 706 664
f 630 919 692
f 919 757 692
f 919 755 757
f 921 630 692
f 32 922 66
f 208 920 32
f 66 208 32
f 210 208 66
f 374 208 210
f 372 208 374
f 756 372 758
f 758 372 374
f 628 692 757
f 796 921 852
f 852 921 759
f 921 692 759
f 692 628 759
f 796 852 1004
f 796 1004 958
f 958 1004 1142
f 958 1142 1104
f 66 922 1104
f 1142 66 1104
f 68 66 1142
f 212 66 68
f 210 66 212
f 320 374 760
f 374 212 760
f 374 210 212
f 758 374 320
f 794 852 759
f 956 1004 794
f 794 1004 852
f 1102 1142 956
f 956 1142 1004
f 30 68 1102
f 1102 68 1142
f 166 212 30
f 30 212 68
f 760 212 166
f 1013 273 867
f 867 273 271
f 273 435 271
f 437 435 273
f 437 597 435
f 599 597 437
f 599 1014 597
f 597 1014 868
f 1015 131 869
f 869 131 129
f 867 129 131
f 867 131 1013
f 763 868 1014
f 763 1014 765
f 765 1016 763
f 763 1016 870
f 1017 869 871
f 1017 1015 869
f 925 870 1016
f 925 1016 927
f 927 1018 925
f 925 1018 872
f 1019 871 873
f 1019 1017 871
f 1071 872 1018
f 1071 1018 1073
f 1073 1020 1071
f 1071 1020 874
f 187 1021 130
f 1021 873 130
f 1021 1019 873
f 875 187 130
f 1020 1 55
f 876 1020 55
f 874 1020 876
f 1 1022 55
f 187 132 1021
f 347 1023 272
f 272 1023 875
f 1023 132 875
f 132 187 875
f 877 347 272
f 57 878 876
f 57 876 55
f 55 1022 57
f 57 1022 1024
f 347 274 1023
f 515 1025 436
f 436 1025 877
f 1025 274 877
f 274 347 877
f 879 515 436
f 59 880 878
f 59 878 57
f 57 1024 59
f 59 1024 1026
f 515 438 1025
f 687 1027 598
f 598 1027 879
f 1027 438 879
f 438 515 879
f 764 845 687
f 764 687 598
f 881 845 764
f 1072 1135 882
f 1135 1072 880
f 59 1135 880
f 61 1135 59
f 59 1026 61
f 61 1026 1028
f 687 600 1027
f 600 687 1029
f 687 847 1029
f 687 845 847
f 845 881 926
f 999 845 926
f 847 845 999
f 999 926 882
f 1135 999 882
f 1137 999 1135
f 1030 1137 2
f 1137 61 2
f 1137 1135 61
f 61 1028 2
f 847 766 1029
f 766 847 928
f 928 847 999
f 928 999 1074
f 1074 999 1137
f 1137 1030 1074
f 672 613 883
f 1031 781 672
f 781 613 672
f 781 779 613
f 781 941 779
f 943 941 781
f 943 1087 941
f 1089 1087 943
f 1089 15 1087
f 17 15 1089
f 17 151 15
f 153 151 17
f 884 151 353
f 151 307 353
f 151 153 307
f 307 1032 353
f 506 451 885
f 615 672 883
f 615 883 451
f 1033 615 451
f 506 1033 451
f 1031 672 615
f 353 305 884
f 353 1032 305
f 1032 886 305
f 1032 1034 886
f 1035 289 341
f 289 453 341
f 453 885 341
f 885 887 341
f 885 453 506
f 1033 506 453
f 473 886 1034
f 473 1034 475
f 475 1036 473
f 473 1036 888
f 287 889 341
f 889 1035 341
f 889 1037 1035
f 341 887 287
f 649 888 1036
f 649 1036 651
f 651 1038 649
f 649 1038 890
f 1039 889 891
f 1039 1037 889
f 813 890 1038
f 813 1038 815
f 815 1040 813
f 813 1040 892
f 1041 891 893
f 1041 1039 891
f 892 1042 894
f 1040 1042 892
f 1043 893 895
f 1043 1041 893
f 894 1044 896
f 1042 1044 894
f 290 1043 352
f 1043 897 352
f 1043 895 897
f 1045 290 352
f 814 863 898
f 814 896 863
f 896 1046 863
f 896 1044 1046
f 288 352 897
f 352 288 1045
f 288 454 1045
f 288 452 454
f 614 689 1047
f 454 614 1047
f 452 614 454
f 899 689 614
f 898 863 816
f 1048 898 816
f 900 898 1048
f 863 1046 816
f 689 616 1047
f 899 780 689
f 780 616 689
f 780 782 616
f 942 1001 1049
f 782 942 1049
f 780 942 782
f 901 1001 942
f 650 709 902
f 650 900 709
f 900 1050 709
f 900 1048 1050
f 1001 944 1049
f 901 1088 1001
f 1088 944 1001
f 1088 1090 944
f 16 1090 1088
f 16 18 1090
f 152 211 1051
f 18 152 1051
f 16 152 18
f 306 375 211
f 306 211 152
f 474 539 375
f 474 375 306
f 709 652 902
f 902 652 474
f 652 1052 474
f 1052 539 474
f 709 1050 652
f 211 154 1051
f 154 211 308
f 308 211 375
f 308 375 476
f 476 375 539
f 539 1052 476
f 1053 1105 1119
f 1119 1105 903
f 1105 31 903
f 1105 33 31
f 33 167 31
f 169 167 33
f 169 321 167
f 323 321 169
f 904 321 519
f 321 491 519
f 321 323 491
f 491 1054 519
f 1055 959 905
f 905 959 957
f 959 1053 1119
f 1103 959 1119
f 957 959 1103
f 1119 903 1103
f 519 489 904
f 665 489 519
f 1056 665 519
f 1054 1056 519
f 665 1056 694
f 694 906 665
f 678 629 907
f 1057 797 678
f 797 629 678
f 797 795 629
f 905 795 797
f 905 797 1055
f 667 694 1056
f 1058 854 829
f 1058 829 906
f 667 1058 906
f 694 667 906
f 854 908 829
f 678 907 631
f 907 1059 631
f 907 909 1059
f 1057 678 631
f 1060 856 854
f 1060 854 1058
f 908 854 910
f 910 854 856
f 1061 909 911
f 1061 1059 909
f 1062 858 856
f 1062 856 1060
f 910 856 912
f 912 856 858
f 1063 911 913
f 1063 1061 911
f 1064 860 858
f 1064 858 1062
f 912 858 914
f 914 858 860
f 1065 913 915
f 1065 1063 913
f 668 1066 704
f 860 1064 668
f 860 668 704
f 830 860 704
f 916 830 704
f 914 860 830
f 1067 915 917
f 1067 1065 915
f 170 1068 206
f 170 206 370
f 170 370 324
f 324 370 918
f 490 324 918
f 492 324 490
f 1066 492 704
f 492 666 704
f 492 490 666
f 916 704 666
f 632 1067 690
f 1067 919 690
f 1067 917 919
f 1069 632 690
f 34 1070 64
f 206 1068 34
f 206 34 64
f 168 206 64
f 920 168 64
f 322 370 168
f 168 370 206
f 918 370 322
f 630 690 919
f 798 1069 850
f 850 1069 921
f 1069 690 921
f 690 630 921
f 798 850 1002
f 798 1002 960
f 960 1002 1140
f 960 1140 1106
f 64 1070 1106
f 64 1106 1140
f 32 64 1140
f 922 32 1140
f 920 64 32
f 796 850 921
f 958 1002 796
f 796 1002 850
f 1104 1140 958
f 958 1140 1002
f 922 1140 1104
f 1145 275 1013
f 1013 275 273
f 275 437 273
f 439 437 275
f 439 599 437
f 601 599 439
f 601 1146 599
f 599 1146 1014
f 1147 133 1015
f 1015 133 131
f 1013 131 133
f 1013 133 1145
f 765 1014 1146
f 765 1146 767
f 767 1148 765
f 765 1148 1016
f 1149 1015 1017
f 1149 1147 1015
f 927 1016 1148
f 927 1148 929
f 1018 927 1125
f 927 1075 1125
f 927 929 1075
f 1075 1150 1125
f 1151 1017 1019
f 1151 1149 1017
f 1125 1073 1018
f 1150 3 53
f 1150 53 1020
f 1125 1150 1020
f 1073 1125 1020
f 3 1152 53
f 1153 1019 1021
f 1153 1151 1019
f 53 1 1020
f 1152 139 199
f 1152 199 1022
f 53 1152 1022
f 1 53 1022
f 139 1154 199
f 1021 132 1153
f 1153 132 134
f 1155 134 132
f 1155 132 1023
f 201 1024 1022
f 201 1022 199
f 199 1154 201
f 201 1154 1156
f 1023 274 1155
f 1155 274 276
f 1157 276 274
f 1157 274 1025
f 203 1026 1024
f 203 1024 201
f 201 1156 203
f 203 1156 1158
f 517 1159 438
f 1159 1025 438
f 1159 1157 1025
f 1027 517 438
f 205 1028 1026
f 205 1026 203
f 203 1158 205
f 205 1158 1160
f 517 440 1159
f 1027 600 517
f 600 440 517
f 600 602 440
f 1161 602 600
f 1161 600 1029
f 2 63 1030
f 205 140 1028
f 1028 140 2
f 140 1162 2
f 1162 63 2
f 205 1160 140
f 1029 766 1161
f 1161 766 768
f 928 768 766
f 928 930 768
f 1074 930 928
f 1074 1076 930
f 63 4 1030
f 4 1074 1030
f 4 1076 1074
f 63 1162 4
f 1163 783 1031
f 1031 783 781
f 783 943 781
f 945 943 783
f 945 1089 943
f 1091 1089 945
f 1091 17 1089
f 19 17 1091
f 19 153 17
f 155 153 19
f 354 307 1164
f 307 155 1164
f 307 153 155
f 354 1032 307
f 1165 617 1033
f 1033 617 615
f 1031 615 617
f 1031 617 1163
f 309 354 1164
f 1034 1032 354
f 477 1034 354
f 309 477 354
f 521 1034 477
f 477 1166 521
f 1167 291 1035
f 1035 291 289
f 291 453 289
f 455 453 291
f 1033 453 455
f 1033 455 1165
f 521 475 1034
f 521 1166 475
f 1166 1036 475
f 1166 1168 1036
f 1169 1035 1037
f 1169 1167 1035
f 651 1036 1168
f 651 1168 653
f 653 1170 651
f 651 1170 1038
f 1171 1037 1039
f 1171 1169 1037
f 815 1038 1170
f 815 1170 817
f 817 1172 815
f 815 1172 1040
f 1173 1039 1041
f 1173 1171 1039
f 1172 971 1005
f 1042 1172 1005
f 1040 1172 1042
f 971 1174 1005
f 1175 1041 1043
f 1175 1173 1041
f 1007 1044 1042
f 1007 1042 1005
f 1005 1174 1007
f 1007 1174 1176
f 1043 290 1175
f 1175 290 292
f 1177 292 290
f 1177 290 1045
f 1009 1046 1044
f 1009 1044 1007
f 1007 1176 1009
f 1009 1176 1178
f 1045 454 1177
f 1177 454 456
f 1179 456 454
f 1179 454 1047
f 816 865 1048
f 1009 972 1046
f 1046 972 816
f 972 1180 816
f 1180 865 816
f 1009 1178 972
f 1047 616 1179
f 1179 616 618
f 782 618 616
f 782 784 618
f 1181 784 782
f 1181 782 1049
f 1048 865 818
f 1182 1048 818
f 1050 1048 1182
f 865 1180 818
f 1049 944 1181
f 1181 944 946
f 1090 946 944
f 1090 1092 946
f 18 67 1183
f 1092 18 1183
f 1090 18 1092
f 1051 67 18
f 654 1184 1052
f 654 1052 652
f 652 1050 654
f 654 1050 1182
f 67 20 1183
f 1051 154 67
f 154 20 67
f 154 156 20
f 308 156 154
f 308 310 156
f 476 310 308
f 476 478 310
f 476 1052 478
f 478 1052 1184
f 1185 1107 1053
f 1053 1107 1105
f 1107 33 1105
f 35 33 1107
f 35 169 33
f 171 169 35
f 171 323 169
f 325 323 171
f 325 491 323
f 493 491 325
f 493 1186 491
f 491 1186 1054
f 1187 961 1055
f 1055 961 959
f 1053 959 961
f 1053 961 1185
f 1054 1188 1056
f 1186 1188 1054
f 1189 799 1057
f 1057 799 797
f 1055 797 799
f 1055 799 1187
f 1190 696 667
f 1056 1190 667
f 1188 1190 1056
f 696 1058 667
f 1191 633 1059
f 1059 633 631
f 1057 631 633
f 1057 633 1189
f 1192 698 696
f 1192 696 1190
f 1058 696 1060
f 1060 696 698
f 1193 1059 1061
f 1193 1191 1059
f 1194 700 698
f 1194 698 1192
f 1060 698 1062
f 1062 698 700
f 1195 1061 1063
f 1195 1193 1061
f 1196 702 700
f 1196 700 1194
f 1062 700 1064
f 1064 700 702
f 1197 1063 1065
f 1197 1195 1063
f 326 1198 368
f 326 368 532
f 326 532 494
f 702 1196 494
f 702 494 532
f 668 702 532
f 1066 668 532
f 1064 702 668
f 634 1197 688
f 1197 1067 688
f 1197 1065 1067
f 1199 634 688
f 172 1200 1068
f 172 1068 170
f 1198 172 368
f 172 324 368
f 172 170 324
f 492 532 324
f 324 532 368
f 1066 532 492
f 632 688 1067
f 800 1199 848
f 848 1199 1069
f 1199 688 1069
f 688 632 1069
f 800 848 1000
f 800 1000 962
f 962 1000 1138
f 962 1138 1108
f 1108 1138 1070
f 34 1108 1070
f 36 1108 34
f 34 1068 36
f 36 1068 1200
f 798 848 1069
f 960 1000 798
f 798 1000 848
f 1106 1138 960
f 960 1138 1000
f 1070 1138 1106
f 71 277 1145
f 1145 277 275
f 277 439 275
f 441 439 277
f 441 601 439
f 603 601 441
f 603 72 601
f 601 72 1146
f 73 135 1147
f 1147 135 133
f 1145 133 135
f 1145 135 71
f 767 1146 72
f 767 72 769
f 1148 767 983
f 767 931 983
f 767 769 931
f 931 74 983
f 75 1147 1149
f 75 73 1147
f 983 929 1148
f 929 983 74
f 1077 929 74
f 1075 929 1077
f 1150 1075 51
f 1075 5 51
f 1075 1077 5
f 51 5 195
f 195 5 141
f 141 76 195
f 77 1149 1151
f 77 75 1149
f 51 3 1150
f 197 1152 3
f 51 197 3
f 195 197 51
f 295 361 76
f 361 195 76
f 361 197 195
f 295 78 361
f 79 1151 1153
f 79 77 1151
f 197 139 1152
f 363 1154 139
f 197 363 139
f 361 363 197
f 463 527 78
f 527 361 78
f 527 363 361
f 463 80 527
f 1153 134 79
f 79 134 136
f 81 136 134
f 81 134 1155
f 365 1156 1154
f 365 1154 363
f 82 365 464
f 365 527 464
f 365 363 527
f 527 80 464
f 1155 276 81
f 81 276 278
f 83 278 276
f 83 276 1157
f 367 1158 1156
f 367 1156 365
f 365 82 367
f 367 82 84
f 85 1157 1159
f 85 83 1157
f 1158 367 296
f 86 1158 296
f 1160 1158 86
f 367 84 296
f 1159 440 85
f 85 440 442
f 602 442 440
f 602 604 442
f 87 604 602
f 87 602 1161
f 142 88 1162
f 142 1162 140
f 140 1160 142
f 142 1160 86
f 1161 768 87
f 87 768 770
f 930 770 768
f 930 932 770
f 1076 932 930
f 1076 1078 932
f 4 1078 1076
f 4 6 1078
f 4 1162 6
f 6 1162 88
f 89 785 1163
f 1163 785 783
f 785 945 783
f 947 945 785
f 947 1091 945
f 1093 1091 947
f 1093 19 1091
f 21 19 1093
f 21 155 19
f 157 155 21
f 157 90 155
f 155 90 1164
f 91 619 1165
f 1165 619 617
f 1163 617 619
f 1163 619 89
f 309 1164 90
f 309 90 311
f 311 477 309
f 479 477 311
f 479 92 477
f 477 92 1166
f 342 291 1167
f 93 457 342
f 457 291 342
f 457 455 291
f 1165 455 457
f 1165 457 91
f 1166 94 1168
f 92 94 1166
f 342 1167 293
f 1167 95 293
f 1167 1169 95
f 93 342 293
f 653 1168 94
f 653 94 655
f 655 96 653
f 653 96 1170
f 97 1169 1171
f 97 95 1169
f 817 1170 96
f 817 96 819
f 819 98 817
f 817 98 1172
f 99 1171 1173
f 99 97 1171
f 971 1172 98
f 971 98 973
f 973 100 971
f 971 100 1174
f 101 1173 1175
f 101 99 1173
f 1174 102 1176
f 100 102 1174
f 1175 292 101
f 101 292 294
f 103 294 292
f 103 292 1177
f 1176 104 1178
f 102 104 1176
f 1177 456 103
f 103 456 458
f 105 458 456
f 105 456 1179
f 972 1011 1180
f 972 1178 1011
f 1178 106 1011
f 1178 104 106
f 1179 618 105
f 105 618 620
f 784 849 107
f 620 784 107
f 618 784 620
f 1181 849 784
f 820 108 1182
f 820 1182 818
f 1011 974 1180
f 974 818 1180
f 974 820 818
f 1011 106 974
f 849 786 107
f 1181 946 849
f 946 786 849
f 946 948 786
f 1092 1141 109
f 948 1092 109
f 946 1092 948
f 1183 1141 1092
f 656 110 1184
f 656 1184 654
f 654 1182 656
f 656 1182 108
f 1141 1094 109
f 69 111 20
f 20 111 1183
f 111 1094 1183
f 1094 1141 1183
f 156 213 69
f 156 69 20
f 310 377 213
f 310 213 156
f 480 112 377
f 310 480 377
f 478 480 310
f 478 1184 480
f 480 1184 110
f 69 22 111
f 22 69 158
f 158 69 213
f 158 213 312
f 312 213 377
f 377 112 312
f 113 1109 1185
f 1185 1109 1107
f 1109 35 1107
f 37 35 1109
f 37 171 35
f 173 171 37
f 173 325 171
f 327 325 173
f 520 493 114
f 493 327 114
f 493 325 327
f 520 1186 493
f 115 963 1187
f 1187 963 961
f 1185 961 963
f 1185 963 113
f 495 520 114
f 495 116 520
f 116 1186 520
f 116 1188 1186
f 117 801 1189
f 1189 801 799
f 1187 799 801
f 1187 801 115
f 1188 118 1190
f 116 118 1188
f 119 635 1191
f 1191 635 633
f 1189 633 635
f 1189 635 117
f 1190 120 1192
f 118 120 1190
f 121 1191 1193
f 121 119 1191
f 1192 122 1194
f 120 122 1192
f 123 1193 1195
f 123 121 1193
f 496 124 530
f 530 1196 496
f 1196 122 496
f 1196 1194 122
f 125 1195 1197
f 125 123 1195
f 328 126 1198
f 328 1198 326
f 124 328 530
f 328 494 530
f 328 326 494
f 1196 530 494
f 1197 634 125
f 125 634 636
f 127 636 634
f 127 634 1199
f 38 128 62
f 38 62 1200
f 172 38 1200
f 174 38 172
f 172 1198 174
f 174 1198 126
f 1199 800 127
f 127 800 802
f 962 802 800
f 962 964 802
f 1108 964 962
f 1108 1110 964
f 128 1110 62
f 1110 36 62
f 1110 1108 36
f 1200 62 36
